<svg width="204" height="204" viewBox="0 0 204 204" fill="none" xmlns="http://www.w3.org/2000/svg">
<g id="Name=Business, Color=&#226;&#154;&#170;&#239;&#184;&#143; Grey">
<path id="Background-1" d="M204 102C204 158.333 158.333 204 102 204C45.667 204 0 158.333 0 102C0 45.667 45.667 0 102 0C158.333 0 204 45.667 204 102Z" fill="#E9E9E9"/>
<path id="Main-2" d="M153.924 30.3084C153.924 31.1766 153.844 32.0264 153.69 32.8508C155.554 31.9685 157.645 31.4741 159.852 31.4741C167.71 31.4741 174.08 37.737 174.08 45.4627C174.08 53.1884 167.71 57.1198 159.852 57.1198H126.654C118.797 57.1198 112.427 53.1884 112.427 45.4627C112.427 38.112 118.193 32.0856 125.521 31.5178C125.487 31.1192 125.469 30.7158 125.469 30.3084C125.469 22.5827 131.839 16.3198 139.697 16.3198C147.554 16.3198 153.924 22.5827 153.924 30.3084Z" fill="white"/>
<g id="Mask group">
<mask id="mask0_2897_63" style="mask-type:alpha" maskUnits="userSpaceOnUse" x="0" y="0" width="204" height="204">
<path id="Ellipse 3" d="M204 102C204 158.333 158.333 204 102 204C45.667 204 0 158.333 0 102C0 45.667 45.667 0 102 0C158.333 0 204 45.667 204 102Z" fill="#E9E9E9"/>
</mask>
<g mask="url(#mask0_2897_63)">
<path id="Main-1" d="M51.6797 53.4936C51.6797 49.4877 54.9271 46.2402 58.933 46.2402H145.973C149.979 46.2402 153.226 49.4877 153.226 53.4936V205.814H51.6797V53.4936Z" fill="#262626"/>
</g>
</g>
<g id="Group 3332">
<path id="Shade-2" d="M69.8135 68.0002C69.8135 65.9972 71.4372 64.3735 73.4401 64.3735H91.5735C93.5764 64.3735 95.2001 65.9972 95.2001 68.0002V86.1335C95.2001 88.1365 93.5764 89.7602 91.5735 89.7602H73.4401C71.4372 89.7602 69.8135 88.1365 69.8135 86.1335V68.0002Z" fill="#E9E9E9"/>
<path id="Shade-2_2" d="M109.707 68.0002C109.707 65.9972 111.331 64.3735 113.334 64.3735H131.467C133.47 64.3735 135.094 65.9972 135.094 68.0002V86.1335C135.094 88.1365 133.47 89.7602 131.467 89.7602H113.334C111.331 89.7602 109.707 88.1365 109.707 86.1335V68.0002Z" fill="#E9E9E9"/>
<path id="Shade-2_3" d="M69.8135 107.894C69.8135 105.891 71.4372 104.267 73.4401 104.267H91.5735C93.5764 104.267 95.2001 105.891 95.2001 107.894V126.027C95.2001 128.03 93.5764 129.654 91.5735 129.654H73.4401C71.4372 129.654 69.8135 128.03 69.8135 126.027V107.894Z" fill="#E9E9E9"/>
<path id="Shade-2_4" d="M109.707 107.894C109.707 105.891 111.331 104.267 113.334 104.267H131.467C133.47 104.267 135.094 105.891 135.094 107.894V126.027C135.094 128.03 133.47 129.654 131.467 129.654H113.334C111.331 129.654 109.707 128.03 109.707 126.027V107.894Z" fill="#E9E9E9"/>
<path id="Shade-2_5" d="M69.8135 147.787C69.8135 145.784 71.4372 144.16 73.4401 144.16H91.5735C93.5764 144.16 95.2001 145.784 95.2001 147.787V165.92C95.2001 167.923 93.5764 169.547 91.5735 169.547H73.4401C71.4372 169.547 69.8135 167.923 69.8135 165.92V147.787Z" fill="#E9E9E9"/>
<path id="Shade-2_6" d="M109.707 147.787C109.707 145.784 111.331 144.16 113.334 144.16H131.467C133.47 144.16 135.094 145.784 135.094 147.787V165.92C135.094 167.923 133.47 169.547 131.467 169.547H113.334C111.331 169.547 109.707 167.923 109.707 165.92V147.787Z" fill="#E9E9E9"/>
</g>
<path id="Main-5" d="M69 101C69 114.807 57.5833 126 43.5 126C29.4167 126 18 114.807 18 101C18 87.1929 29.4167 76 43.5 76C57.5833 76 69 87.1929 69 101Z" fill="#29D305"/>
<path id="Main-5_2" d="M74 145.5C74 161.792 60.5685 175 44 175C27.4315 175 14 161.792 14 145.5C14 129.208 27.4315 116 44 116C60.5685 116 74 129.208 74 145.5Z" fill="#29D305"/>
<path id="Shade-1" fill-rule="evenodd" clip-rule="evenodd" d="M32.5954 102.778C33.4562 101.817 34.9337 101.735 35.8957 102.595L45.2212 110.927C46.1832 111.786 46.2653 113.262 45.4045 114.222C44.5438 115.183 43.0663 115.265 42.1043 114.405L32.7788 106.073C31.8168 105.214 31.7347 103.738 32.5954 102.778Z" fill="#F4F4F4"/>
<path id="Shade-1_2" fill-rule="evenodd" clip-rule="evenodd" d="M61.6237 141.056C62.3187 142.137 62.0236 143.588 60.9646 144.297L45.5521 154.616C44.4931 155.325 43.0713 155.024 42.3763 153.944C41.6813 152.863 41.9764 151.412 43.0354 150.703L58.4479 140.384C59.5069 139.675 60.9287 139.976 61.6237 141.056Z" fill="#F4F4F4"/>
<path id="Shade-1_3" fill-rule="evenodd" clip-rule="evenodd" d="M44.5 94C45.8807 94 47 95.0587 47 96.3646L47 201.635C47 202.941 45.8807 204 44.5 204C43.1193 204 42 202.941 42 201.635L42 96.3646C42 95.0587 43.1193 94 44.5 94Z" fill="#F4F4F4"/>
</g>
</svg>
