<svg width="235" height="204" viewBox="0 0 235 204" fill="none" xmlns="http://www.w3.org/2000/svg">
<g id="Name=Can&#39;t load data, Color=&#226;&#154;&#170;&#239;&#184;&#143; Grey">
<path id="Background-1" d="M234.373 102C234.373 158.333 188.706 204 132.373 204C76.04 204 30.373 158.333 30.373 102C30.373 45.667 76.04 0 132.373 0C188.706 0 234.373 45.667 234.373 102Z" fill="#E9E9E9"/>
<path id="Main-2" d="M81.373 67C81.373 58.1634 88.5365 51 97.373 51H166.373C175.21 51 182.373 58.1634 182.373 67V136C182.373 144.837 175.21 152 166.373 152H97.373C88.5365 152 81.373 144.837 81.373 136V67Z" fill="white"/>
<path id="Shade-1" d="M168.327 101.5C168.327 121.633 152.006 137.953 131.873 137.953C111.741 137.953 95.4199 121.633 95.4199 101.5C95.4199 81.3672 111.741 65.0464 131.873 65.0464C152.006 65.0464 168.327 81.3672 168.327 101.5Z" fill="#F4F4F4"/>
<g id="Group 2842">
<path id="Main-5" d="M121.844 101.5C121.844 104.261 119.605 106.5 116.844 106.5C114.082 106.5 111.844 104.261 111.844 101.5C111.844 98.7386 114.082 96.5 116.844 96.5C119.605 96.5 121.844 98.7386 121.844 101.5Z" fill="#29D305"/>
<path id="Main-5_2" d="M151.844 101.5C151.844 104.261 149.605 106.5 146.844 106.5C144.082 106.5 141.844 104.261 141.844 101.5C141.844 98.7386 144.082 96.5 146.844 96.5C149.605 96.5 151.844 98.7386 151.844 101.5Z" fill="#29D305"/>
</g>
<path id="Main-1" d="M189.658 137.042C191.444 137.009 192.908 138.432 192.929 140.223C192.949 142.013 191.518 143.493 189.732 143.526L165.365 143.99L165.291 137.506L189.658 137.042Z" fill="#262626"/>
<path id="Main-1_2" d="M190.309 163.552C192.095 163.518 193.559 164.942 193.579 166.733C193.6 168.523 192.169 170.002 190.383 170.036L166.015 170.5L165.941 164.016L190.309 163.552Z" fill="#262626"/>
<path id="Main-1_3" fill-rule="evenodd" clip-rule="evenodd" d="M107.263 154.285C107.263 155.666 106.144 156.785 104.763 156.785C102.69 156.785 100.041 156.956 96.9012 157.16C77.465 158.417 39.2177 160.893 2.3181 131.461C1.23871 130.6 1.06172 129.027 1.9228 127.948C2.78387 126.868 4.35693 126.691 5.43633 127.552C40.6713 155.656 76.7732 153.395 96.3789 152.168C99.6642 151.962 102.486 151.785 104.763 151.785C106.144 151.785 107.264 152.904 107.263 154.285Z" fill="#262626"/>
<path id="Main-1_4" fill-rule="evenodd" clip-rule="evenodd" d="M164.476 124.509C166.846 124.468 169.128 125.372 170.82 127.023C172.512 128.673 173.475 130.936 173.499 133.311L173.906 174.756C173.929 177.132 173.01 179.427 171.351 181.136C169.692 182.845 167.429 183.828 165.059 183.87L144.392 184.229C136.541 184.366 128.98 181.37 123.374 175.9C117.768 170.431 114.575 162.936 114.498 155.064C114.421 147.192 117.465 139.589 122.962 133.926C128.459 128.263 135.958 125.005 143.809 124.868L164.476 124.509Z" fill="#262626"/>
<path id="Main-1_5" d="M117.857 141.554C118.768 141.553 119.503 142.292 119.497 143.206L119.367 165.495C119.362 166.409 118.619 167.15 117.708 167.152L109.187 167.166C107.276 167.169 105.448 166.411 104.104 165.058C102.76 163.705 102.012 161.868 102.023 159.952L102.088 148.807C102.099 146.89 102.869 145.051 104.228 143.694C105.588 142.336 107.425 141.572 109.337 141.569L117.857 141.554Z" fill="#262626"/>
</g>
</svg>
