<svg width="252" height="204" viewBox="0 0 252 204"  xmlns="http://www.w3.org/2000/svg">
<g id="Name=Confirmation, Color=&#226;&#154;&#170;&#239;&#184;&#143; Grey">
<g id="Group 2885">
<ellipse id="Background-1" cx="129.985" cy="102" rx="101.988" ry="102" fill="var(--background-1, #E9E9E9)"/>
<g id="check_circle-filled-color">
<path id="Main-5" d="M129.986 74C116.753 74 105.988 63.234 105.988 50C105.988 36.766 116.753 26 129.986 26C143.218 26 153.983 36.766 153.983 50C153.983 63.234 143.218 74 129.986 74Z" fill="var(--main-5, #29D305)"/>
<path id="Main-5--contrast" fill-rule="evenodd" clip-rule="evenodd" d="M118.926 48.6178C119.512 48.0327 120.462 48.0327 121.047 48.6178L127.057 54.6213L140.137 41.5549C140.723 40.9697 141.672 40.9697 142.258 41.5549C142.844 42.14 142.844 43.0886 142.258 43.6737L128.118 57.7996C127.532 58.3847 126.582 58.3847 125.997 57.7996L118.926 50.7367C118.341 50.1516 118.341 49.2029 118.926 48.6178Z" fill="var(--main-5--contrast, #000000)"/>
</g>
<g id="Group 2864">
<g id="Paper plane">
<path id="Main-1_2" fill-rule="evenodd" clip-rule="evenodd" d="M73.2316 124.259C74.5295 124.088 75.8883 124 77.3042 124C78.5663 124 79.764 124.073 80.8963 124.214C81.9922 124.351 82.7696 125.351 82.6327 126.447C82.4957 127.543 81.4963 128.321 80.4004 128.184C79.4442 128.064 78.4126 128 77.3043 128C76.0539 128 74.8693 128.078 73.7526 128.224C72.6576 128.368 71.6533 127.597 71.5094 126.502C71.3655 125.407 72.1366 124.402 73.2316 124.259ZM88.2659 128.725C89.0607 127.958 90.3267 127.98 91.0936 128.775C93.0573 130.811 94.123 133.342 94.2725 136.049C94.3334 137.152 93.4888 138.096 92.386 138.156C91.2833 138.217 90.3399 137.373 90.279 136.27C90.1816 134.505 89.5018 132.886 88.2154 131.553C87.4485 130.758 87.4711 129.492 88.2659 128.725ZM64.5869 129.272C65.3126 130.105 65.226 131.368 64.3935 132.094C62.6616 133.604 61.4836 135.44 60.8817 137.463C60.5668 138.521 59.4533 139.124 58.3947 138.809C57.3361 138.494 56.7333 137.38 57.0483 136.322C57.875 133.543 59.4859 131.066 61.7654 129.079C62.5979 128.353 63.8612 128.439 64.5869 129.272ZM0.255363 144.241C0.795044 143.277 2.0137 142.934 2.97731 143.474C4.10613 144.106 5.38543 144.785 6.79441 145.492C7.78159 145.987 8.18037 147.189 7.68511 148.176C7.18986 149.164 5.98811 149.563 5.00093 149.067C3.54254 148.335 2.20928 147.628 1.02295 146.963C0.059344 146.424 -0.284317 145.205 0.255363 144.241ZM90.1085 143.798C90.9622 144.499 91.0863 145.759 90.3857 146.613C89.6392 147.522 88.7897 148.403 87.8401 149.244C86.632 150.315 85.2453 151.3 83.7427 152.215C82.7993 152.789 81.569 152.49 80.9948 151.547C80.4205 150.603 80.7198 149.373 81.6633 148.798C83.0159 147.975 84.199 147.126 85.1881 146.25C85.9871 145.542 86.6882 144.813 87.294 144.075C87.9946 143.221 89.2547 143.097 90.1085 143.798ZM59.3093 146.212C60.3036 145.731 61.4994 146.147 61.9803 147.142C62.4569 148.127 63.0483 149.125 63.7624 150.125C64.5621 151.245 65.4749 152.302 66.492 153.294C67.0114 153.801 67.1963 154.521 67.0433 155.18C67.7508 154.933 68.4551 154.684 69.154 154.43C70.1924 154.054 71.3392 154.591 71.7154 155.629C72.0917 156.668 71.555 157.815 70.5166 158.191C69.0285 158.73 67.5236 159.251 66.0253 159.757C64.5633 160.251 63.0595 160.649 61.5243 160.96C60.4419 161.179 59.3865 160.48 59.167 159.397C58.9475 158.315 59.6471 157.259 60.7295 157.04C61.7849 156.826 62.8154 156.568 63.818 156.264C63.7773 156.231 63.7377 156.195 63.6991 156.157C62.5221 155.009 61.4528 153.773 60.5077 152.45C59.6693 151.276 58.9601 150.083 58.3796 148.883C57.8988 147.889 58.315 146.693 59.3093 146.212ZM152.621 150.141C153.255 151.045 153.035 152.293 152.13 152.926C151.787 153.166 151.167 153.47 150.405 153.818C149.57 154.2 148.38 154.715 146.757 155.384C145.736 155.806 144.567 155.319 144.146 154.298C143.725 153.277 144.211 152.108 145.232 151.687C146.83 151.027 147.97 150.533 148.743 150.18C149.459 149.853 149.757 149.691 149.823 149.656C149.834 149.65 149.838 149.648 149.836 149.649C150.741 149.016 151.988 149.236 152.621 150.141ZM16.1449 151.886C16.5401 150.855 17.6966 150.339 18.7279 150.735C21.3419 151.737 24.0982 152.702 26.9408 153.581C27.9959 153.908 28.5867 155.028 28.2603 156.083C27.9339 157.138 26.814 157.729 25.7589 157.403C22.8251 156.495 19.9855 155.5 17.2965 154.47C16.2652 154.074 15.7496 152.918 16.1449 151.886ZM37.2255 158.308C37.4199 157.221 38.4588 156.497 39.546 156.692C42.4085 157.203 45.2678 157.569 48.0755 157.747C49.1777 157.817 50.0146 158.767 49.9447 159.869C49.8749 160.972 48.9247 161.809 47.8225 161.739C44.8431 161.55 41.8322 161.164 38.8422 160.629C37.755 160.435 37.0312 159.396 37.2255 158.308ZM132.536 158.79C132.923 159.824 132.399 160.977 131.365 161.364C129.764 161.964 128.049 162.601 126.213 163.279C124.755 163.817 123.275 164.309 121.78 164.754C120.722 165.069 119.608 164.467 119.293 163.408C118.977 162.349 119.58 161.236 120.639 160.92C122.054 160.499 123.452 160.034 124.828 159.526C126.659 158.851 128.368 158.215 129.962 157.618C130.997 157.231 132.149 157.756 132.536 158.79ZM74.7075 161.196C75.1212 160.171 76.2867 159.677 77.3108 160.09C79.9058 161.139 82.7114 161.981 85.67 162.612C86.7502 162.842 87.4392 163.905 87.209 164.985C86.9788 166.065 85.9165 166.754 84.8363 166.524C81.6739 165.85 78.6437 164.943 75.8126 163.799C74.7886 163.385 74.2938 162.22 74.7075 161.196ZM109.849 165.308C109.971 166.406 109.18 167.394 108.082 167.516C104.966 167.862 101.848 168.022 98.7727 167.998C97.6683 167.989 96.7803 167.086 96.7891 165.981C96.798 164.877 97.7005 163.989 98.805 163.998C101.72 164.021 104.68 163.869 107.641 163.541C108.739 163.419 109.727 164.21 109.849 165.308Z" fill="var(--main-1, #262626)"/>
</g>
</g>
</g>
<g id="Group 2886">
<path id="Shade-3" d="M235.286 99.8867L181.971 136.767L161.375 147.26C160.034 147.944 158.448 146.957 158.467 145.452L158.868 114.994L222.846 96.7764L235.286 99.8867Z" fill="var(--shade-3, #D3D3D3)"/>
<path id="Shade-4" d="M160.2 147.875L170.241 129.213L184.636 135.878L160.2 147.875Z" fill="var(--shade-4, #BDBDBD)"/>
<path id="Main-3" d="M239.197 97.9623C237.109 100.747 251.048 90.9682 250.336 91L145.217 95.1772C145.217 95.1772 139.648 95.1772 143.129 100.051C146.61 104.924 158.119 117.01 158.119 117.01C158.466 117.385 158.992 117.54 159.488 117.412L239.197 97.9623Z" fill="var(--main-3, #262626)"/>
<path id="Main-3_2" d="M250.336 91C251.728 91.0003 252.423 92.0313 251.728 93.089C251.728 93.089 204.391 147.394 200.214 152.268C196.037 157.142 192.556 153.661 192.556 153.661L170.63 130.802C170.63 130.802 169.12 129.586 170.864 128.769L170.916 128.744C173.626 127.474 237.931 97.3407 234.397 97.2659C233.352 97.2437 232.711 97.2335 232.333 97.2303L232.236 97.2659C232.236 97.2659 231.299 97.2215 232.333 97.2303L248.944 91.1114C248.944 91.1114 248.944 90.9997 250.336 91Z" fill="var(--main-3, #262626)"/>
</g>
</g>
</svg>
