<svg width="204" height="204" viewBox="0 0 204 204" fill="none" xmlns="http://www.w3.org/2000/svg">
<g id="Name=Confirmation, Color=&#226;&#154;&#170;&#239;&#184;&#143; Grey">
<circle id="Background-1" cx="102" cy="102" r="102" fill="var(--background-1, #E9E9E9)"/>
<path id="Main-5" d="M101.997 74C88.7648 74 78 63.234 78 50C78 36.766 88.7648 26 101.997 26C115.23 26 125.995 36.766 125.995 50C125.995 63.234 115.23 74 101.997 74Z" fill="var(--main-5, #29D305)"/>
<path id="Main-5--contrast" fill-rule="evenodd" clip-rule="evenodd" d="M90.9375 48.6178C91.5232 48.0327 92.4729 48.0327 93.0586 48.6178L99.0683 54.6213L112.148 41.5549C112.734 40.9697 113.684 40.9697 114.269 41.5549C114.855 42.14 114.855 43.0886 114.269 43.6737L100.129 57.7996C99.5431 58.3847 98.5935 58.3847 98.0078 57.7996L90.9375 50.7367C90.3518 50.1516 90.3518 49.2029 90.9375 48.6178Z" fill="var(--main-5--contrast, #000000)"/>
<path id="Main-3" fill-rule="evenodd" clip-rule="evenodd" d="M42.9968 139.36C44.1362 138.716 45.3631 138.125 46.6759 137.595C47.846 137.122 48.9838 136.741 50.0867 136.448C51.1541 136.164 52.2493 136.8 52.533 137.867C52.8167 138.935 52.1814 140.03 51.1139 140.314C50.1827 140.561 49.2022 140.888 48.1746 141.304C47.0153 141.772 45.9461 142.288 44.9657 142.842C44.0044 143.386 42.7843 143.047 42.2406 142.086C41.6969 141.124 42.0354 139.904 42.9968 139.36ZM58.6093 137.868C59.0588 136.86 60.2411 136.406 61.2499 136.856C63.8331 138.007 65.7696 139.955 66.9226 142.409C67.3923 143.409 66.9627 144.6 65.9631 145.07C64.9635 145.539 63.7724 145.11 63.3027 144.11C62.5512 142.51 61.3142 141.264 59.622 140.509C58.6132 140.06 58.1598 138.877 58.6093 137.868ZM36.8601 147.248C37.8449 147.748 38.238 148.952 37.738 149.936C36.698 151.985 36.2936 154.129 36.4935 156.23C36.5981 157.329 35.7916 158.305 34.6921 158.41C33.5926 158.515 32.6165 157.708 32.5119 156.608C32.2373 153.722 32.8028 150.822 34.1717 148.125C34.6716 147.141 35.8753 146.748 36.8601 147.248ZM65.965 151.153C67.0191 151.483 67.6063 152.605 67.2766 153.659C66.9254 154.782 66.4678 155.917 65.9025 157.053C65.1834 158.498 64.267 159.932 63.2165 161.343C62.557 162.229 61.3042 162.412 60.4183 161.752C59.5324 161.093 59.3488 159.84 60.0084 158.954C60.954 157.684 61.7331 156.454 62.3218 155.271C62.7974 154.315 63.1743 153.376 63.4594 152.465C63.7891 151.411 64.9109 150.824 65.965 151.153ZM38.3136 164.931C39.0553 164.112 40.32 164.05 41.1384 164.792C41.9495 165.527 42.8718 166.231 43.9086 166.891C45.0696 167.629 46.3117 168.267 47.6266 168.806C48.298 169.081 48.7394 169.68 48.8444 170.348C49.408 169.854 49.9674 169.359 50.5205 168.862C51.3422 168.124 52.6066 168.192 53.3445 169.014C54.0825 169.836 54.0146 171.101 53.1928 171.839C52.0151 172.896 50.815 173.943 49.6154 174.973C48.4449 175.979 47.1996 176.911 45.8929 177.775C44.9715 178.384 43.7309 178.131 43.1218 177.209C42.5127 176.288 42.7658 175.047 43.6872 174.438C44.5856 173.844 45.4445 173.219 46.2603 172.562C46.2099 172.546 46.1597 172.528 46.1099 172.507C44.5883 171.883 43.134 171.138 41.762 170.266C40.5447 169.491 39.4405 168.651 38.4525 167.756C37.6341 167.014 37.5719 165.749 38.3136 164.931ZM0.419279 186.364C0.39932 185.26 1.27833 184.348 2.38262 184.329C5.1817 184.278 8.09884 184.14 11.0639 183.891C12.1644 183.798 13.1318 184.615 13.2245 185.716C13.3173 186.817 12.5003 187.784 11.3997 187.877C8.33964 188.134 5.33423 188.276 2.4549 188.328C1.35062 188.348 0.439239 187.469 0.419279 186.364ZM22.3706 184.42C22.1434 183.339 22.8354 182.279 23.9163 182.052C26.762 181.454 29.5499 180.721 32.2197 179.834C33.2679 179.486 34.3998 180.054 34.7481 181.102C35.0963 182.15 34.529 183.282 33.4808 183.63C30.6478 184.572 27.7115 185.342 24.739 185.966C23.6582 186.194 22.5978 185.501 22.3706 184.42ZM110.919 149.157C111.666 149.971 111.611 151.237 110.798 151.983C109.538 153.139 108.187 154.372 106.738 155.688C105.588 156.734 104.401 157.744 103.181 158.717C102.318 159.406 101.06 159.264 100.371 158.401C99.6817 157.537 99.8231 156.279 100.686 155.59C101.841 154.669 102.963 153.714 104.049 152.728C105.493 151.416 106.839 150.186 108.094 149.035C108.908 148.289 110.173 148.343 110.919 149.157ZM58.2041 173.054C58.204 171.95 59.0992 171.054 60.2037 171.054C63.0025 171.054 65.9194 170.784 68.8988 170.26C69.9866 170.069 71.0235 170.796 71.2148 171.884C71.4061 172.972 70.6793 174.008 69.5915 174.2C66.407 174.76 63.2576 175.054 60.2042 175.054C59.0997 175.054 58.2043 174.159 58.2041 173.054ZM92.3268 163.7C92.851 164.673 92.4879 165.886 91.5158 166.41C88.7561 167.898 85.925 169.215 83.0649 170.344C82.0376 170.75 80.876 170.246 80.4704 169.218C80.0649 168.191 80.5689 167.029 81.5962 166.624C84.3074 165.553 86.9951 164.303 89.6173 162.889C90.5895 162.365 91.8025 162.728 92.3268 163.7Z" fill="var(--main-3, #262626)"/>
<path id="Shade-1" d="M187 88L134.285 131.166L115.808 145.056C114.605 145.96 112.872 145.262 112.632 143.776L107.771 113.706L167.645 84.7213L187 88Z" fill="var(--shade-1, #F4F4F4)"/>
<path id="Shade-3" d="M114.757 145.864L121.426 125.749L136.756 129.83L114.757 145.864Z" fill="var(--shade-3, #D3D3D3)"/>
<g id="Main-1_2" >
<path d="M186.813 88.1191C185.057 91.1245 197.787 79.8164 197.083 79.9294L93.1311 96.0936C93.1311 96.0936 87.5984 96.7301 91.6133 101.174C95.6283 105.618 108.443 116.309 108.443 116.309C108.832 116.642 109.371 116.735 109.849 116.552L186.813 88.1191Z" fill="var(--main-1, #262626)"/>
<path d="M197.083 79.9294C198.466 79.7706 199.275 80.7155 198.705 81.8457C198.705 81.8457 157.884 141.206 154.292 146.525C150.699 151.844 146.844 148.783 146.844 148.783L122.449 128.581C122.449 128.581 120.81 127.545 122.449 126.534L122.498 126.504C125.045 124.932 185.484 87.6465 181.965 87.9761C180.924 88.0736 180.286 88.1366 179.91 88.1766L179.818 88.223C179.818 88.223 178.883 88.286 179.91 88.1766L195.713 80.1993C195.713 80.1993 195.7 80.0882 197.083 79.9294Z" fill="var(--main-1, #262626)"/>
</g>
</g>
</svg>
