<svg width="204" height="204" viewBox="0 0 204 204" fill="none" xmlns="http://www.w3.org/2000/svg">
<g id="Name=Connected, Color=&#226;&#154;&#170;&#239;&#184;&#143; Grey">
<path id="Background-1" d="M204 102C204 158.333 158.333 204 102 204C45.667 204 0 158.333 0 102C0 45.667 45.667 0 102 0C158.333 0 204 45.667 204 102Z" fill="var(--background-1, #E9E9E9)"/>
<path id="Main-2" d="M58 44C58 35.7157 64.7157 29 73 29H130C138.284 29 145 35.7157 145 44V162C145 170.284 138.284 177 130 177H73C64.7157 177 58 170.284 58 162V44Z" fill="var(--main-2, #FFFFFF)"/>
<path id="Main-1" d="M121.608 81.0405C120.752 81.044 120.06 80.3506 120.063 79.4918L120.134 58.5405C120.137 57.6817 120.834 56.9827 121.69 56.9792L129.699 56.9464C131.496 56.9391 133.216 57.6477 134.482 58.9164C135.748 60.1851 136.456 61.91 136.45 63.7115L136.414 74.1872C136.408 75.9888 135.688 77.7195 134.414 78.9985C133.139 80.2776 131.414 81.0004 129.617 81.0077L121.608 81.0405Z" fill="var(--main-1, #262626)"/>
<path id="Main-1_2" d="M126 69C126 82.8071 114.807 94 101 94C87.1929 94 76 82.8071 76 69C76 55.1929 87.1929 44 101 44C114.807 44 126 55.1929 126 69Z" fill="var(--main-1, #262626)"/>
<path id="Main-1_3" d="M81.392 124.96C82.2484 124.956 82.9403 125.649 82.9373 126.508L82.866 147.459C82.8631 148.318 82.1664 149.017 81.31 149.021L73.301 149.054C71.5044 149.061 69.7839 148.352 68.5178 147.084C67.2518 145.815 66.544 144.09 66.5501 142.288L66.5858 131.813C66.5919 130.011 67.3115 128.281 68.5862 127.001C69.8609 125.722 71.5863 125 73.3829 124.992L81.392 124.96Z" fill="var(--main-1, #262626)"/>
<path id="Main-1_4" d="M77 137C77 123.193 88.1929 112 102 112C115.807 112 127 123.193 127 137C127 150.807 115.807 162 102 162C88.1929 162 77 150.807 77 137Z" fill="var(--main-1, #262626)"/>
<path id="Main-5" d="M138 41C138 43.7614 135.761 46 133 46C130.239 46 128 43.7614 128 41C128 38.2386 130.239 36 133 36C135.761 36 138 38.2386 138 41Z" fill="var(--main-5, #29D305)"/>
<path id="Main-1_5" fill-rule="evenodd" clip-rule="evenodd" d="M38.194 136.119C51.375 133.535 64.066 133.682 71.8033 134.628C73.1738 134.796 74.149 136.042 73.9815 137.413C73.814 138.783 72.5672 139.759 71.1967 139.591C63.934 138.703 51.775 138.551 39.156 141.025C26.5123 143.504 13.7056 148.56 4.80421 157.84C3.84844 158.837 2.26587 158.87 1.26944 157.914C0.273006 156.958 0.240036 155.375 1.1958 154.379C11.0944 144.059 25.0377 138.698 38.194 136.119Z" fill="var(--main-1, #262626)"/>
<path id="Main-1_6" fill-rule="evenodd" clip-rule="evenodd" d="M165.306 70.4906C152.126 73.0748 139.435 72.927 131.697 71.9813C130.327 71.8138 129.351 70.567 129.519 69.1965C129.686 67.826 130.933 66.8507 132.304 67.0182C139.566 67.9059 151.725 68.0581 164.344 65.584C176.988 63.1051 189.795 58.0494 198.696 48.7692C199.652 47.7728 201.235 47.7398 202.231 48.6956C203.227 49.6513 203.26 51.2339 202.305 52.2303C192.406 62.5501 178.463 67.9112 165.306 70.4906Z" fill="var(--main-1, #262626)"/>
</g>
</svg>
