<svg width="248" height="204" viewBox="0 0 248 204" fill="none" xmlns="http://www.w3.org/2000/svg">
<path d="M226.5 102C226.5 158.333 180.833 204 124.5 204C68.167 204 22.5 158.333 22.5 102C22.5 45.667 68.167 0 124.5 0C180.833 0 226.5 45.667 226.5 102Z" fill="#E9E9E9"/>
<path d="M80.5 44C80.5 35.7157 87.2157 29 95.5 29H152.5C160.784 29 167.5 35.7157 167.5 44V162C167.5 170.284 160.784 177 152.5 177H95.5C87.2157 177 80.5 170.284 80.5 162V44Z" fill="white"/>
<path fill-rule="evenodd" clip-rule="evenodd" d="M246.734 35.8257C247.935 36.5073 248.356 38.0332 247.674 39.234C236.62 58.7105 215.816 66.7929 196.61 70.0889C180.878 72.7888 165.71 72.3488 157.149 72.1005C155.254 72.0455 153.682 71.9999 152.5 71.9999C151.119 71.9999 150 70.8807 150 69.4999C150 68.1192 151.119 66.9999 152.5 66.9999C153.809 66.9999 155.492 67.0479 157.485 67.1046C166.126 67.3506 180.604 67.7628 195.765 65.161C214.434 61.957 233.38 54.2895 243.326 36.7659C244.007 35.5652 245.533 35.1442 246.734 35.8257Z" fill="#262626"/>
<path d="M144.108 81.0405C143.252 81.044 142.56 80.3506 142.563 79.4918L142.634 58.5405C142.637 57.6817 143.334 56.9827 144.19 56.9792L152.199 56.9464C153.996 56.9391 155.716 57.6477 156.982 58.9164C158.248 60.1851 158.956 61.91 158.95 63.7115L158.914 74.1872C158.908 75.9888 158.188 77.7195 156.914 78.9985C155.639 80.2776 153.914 81.0004 152.117 81.0077L144.108 81.0405Z" fill="#262626"/>
<path d="M148.5 69C148.5 82.8071 137.307 94 123.5 94C109.693 94 98.5 82.8071 98.5 69C98.5 55.1929 109.693 44 123.5 44C137.307 44 148.5 55.1929 148.5 69Z" fill="#262626"/>
<path fill-rule="evenodd" clip-rule="evenodd" d="M1.26598 170.174C0.0652011 169.493 -0.355743 167.967 0.325784 166.766C11.38 147.29 32.1839 139.207 51.3896 135.911C67.1217 133.211 82.2902 133.651 90.8506 133.899C92.7464 133.954 94.3181 134 95.5 134C96.8807 134 98 135.119 98 136.5C98 137.881 96.8807 139 95.5 139C94.1912 139 92.5083 138.952 90.5146 138.895C81.8741 138.649 67.3962 138.237 52.2354 140.839C33.5661 144.043 14.62 151.711 4.67422 169.234C3.99269 170.435 2.46677 170.856 1.26598 170.174Z" fill="#262626"/>
<path d="M103.892 124.96C104.748 124.956 105.44 125.649 105.437 126.508L105.366 147.459C105.363 148.318 104.666 149.017 103.81 149.021L95.801 149.054C94.0044 149.061 92.2839 148.352 91.0178 147.084C89.7518 145.815 89.044 144.09 89.0501 142.288L89.0858 131.813C89.0919 130.011 89.8115 128.281 91.0862 127.001C92.3609 125.722 94.0863 125 95.8829 124.992L103.892 124.96Z" fill="#262626"/>
<path d="M99.5 137C99.5 123.193 110.693 112 124.5 112C138.307 112 149.5 123.193 149.5 137C149.5 150.807 138.307 162 124.5 162C110.693 162 99.5 150.807 99.5 137Z" fill="#262626"/>
<path d="M160.5 41C160.5 43.7614 158.261 46 155.5 46C152.739 46 150.5 43.7614 150.5 41C150.5 38.2386 152.739 36 155.5 36C158.261 36 160.5 38.2386 160.5 41Z" fill="#29D305"/>
</svg>
