<svg width="200" height="200" viewBox="0 0 200 200"  xmlns="http://www.w3.org/2000/svg">
<g id="Name=Data is coming, Color=&#226;&#154;&#170;&#239;&#184;&#143; Grey">
<path id="Background-1" d="M200 100C200 155.228 155.228 200 100 200C44.7715 200 0 155.228 0 100C0 44.7715 44.7715 0 100 0C155.228 0 200 44.7715 200 100Z" fill="var(--background-1, #E9E9E9)"/>
<g id="Group 3325">
<g id="Group 3223">
<path id="Background-1_2" d="M149.667 105.46C149.667 132.996 127.365 155.318 99.8545 155.318C72.3438 155.318 50.042 132.996 50.042 105.46C50.042 77.9246 72.3438 55.6025 99.8545 55.6025C127.365 55.6025 149.667 77.9246 149.667 105.46Z" fill="var(--background-1, #E9E9E9)"/>
<path id="Main-1" d="M158.607 106.553C158.607 139.054 132.284 165.4 99.8131 165.4C67.3423 165.4 41.0195 139.054 41.0195 106.553C41.0195 74.0532 67.3423 47.7065 99.8131 47.7065C132.284 47.7065 158.607 74.0532 158.607 106.553Z" fill="var(--main-1, #262626)"/>
<path id="Shade-1" d="M148.237 106.666C148.237 133.36 126.597 155 99.9036 155C73.2099 155 51.5703 133.36 51.5703 106.666C51.5703 79.9726 73.2099 58.333 99.9036 58.333C126.597 58.333 148.237 79.9726 148.237 106.666Z" fill="var(--shade-1, #F4F4F4)"/>
<g id="Group 3222">
<path id="Main-5" fill-rule="evenodd" clip-rule="evenodd" d="M90.821 79.6774C89.9865 77.8053 87.7927 76.9652 85.9212 77.8009C84.0499 78.6365 83.2093 80.8312 84.0437 82.7031L98.2527 114.579C99.0872 116.451 101.281 117.291 103.153 116.455C103.406 116.342 103.641 116.204 103.856 116.044C104.171 115.889 104.469 115.685 104.739 115.434L120.287 100.928C121.788 99.5323 121.873 97.1846 120.478 95.6837C119.082 94.1826 116.734 94.0975 115.233 95.493L113.966 96.6742L102.971 106.933L91.7258 81.7072L90.821 79.6774Z" fill="var(--main-5, #29D305)"/>
</g>
</g>
<path id="Main-1_2" d="M59.1264 56.6615L47.1748 65.1416C45.5785 66.2742 43.316 65.6151 42.8549 63.7288C41.0805 56.4692 41.4183 45.3979 52.1295 37.798C62.8803 30.1699 74.4157 32.897 81.0411 36.7287C82.7274 37.7039 82.6551 39.9671 81.0791 41.0854L68.9908 49.6624L74.6207 57.4487L65.6862 64.679L59.1264 56.6615Z" fill="var(--main-1, #262626)"/>
<path id="Main-1_3" d="M140.372 56.6615L152.324 65.1416C153.92 66.2742 156.182 65.6151 156.643 63.7288C158.418 56.4692 158.08 45.3979 147.369 37.798C136.618 30.1699 125.083 32.897 118.457 36.7287C116.771 37.7039 116.843 39.9671 118.419 41.0854L130.508 49.6624L124.878 57.4487L133.812 64.679L140.372 56.6615Z" fill="var(--main-1, #262626)"/>
<path id="Main-1_4" fill-rule="evenodd" clip-rule="evenodd" d="M64.2085 161.8L69.2783 152.8L78.8623 158.199L73.7925 167.199C72.3016 169.846 68.9476 170.783 66.3011 169.292C63.6545 167.801 62.7176 164.447 64.2085 161.8Z" fill="var(--main-1, #262626)"/>
</g>
<g id="Group 3224">
<g id="Group 3196">
<path id="Shade-2" d="M188.204 165.705C188.204 180.812 168.085 193.057 143.268 193.057C118.451 193.057 98.333 180.812 98.333 165.705C98.333 160.723 98.3328 154.034 99.3099 153.006C107.079 144.831 126.636 138.354 143.268 138.354C161.819 138.354 180.367 144.219 187.227 153.983C188.204 154.96 188.204 161.891 188.204 165.705Z" fill="var(--shade-2, #E9E9E9)"/>
<path id="Main-2" d="M188.204 157.891C188.204 172.997 168.085 185.242 143.268 185.242C118.451 185.242 98.333 172.997 98.333 157.891C98.333 142.784 118.451 130.539 143.268 130.539C168.085 130.539 188.204 142.784 188.204 157.891Z" fill="var(--main-2, #FFFFFF)"/>
</g>
<g id="Group 3197">
<path id="Shade-2_2" d="M188.204 152.03C188.204 167.136 168.085 179.382 143.268 179.382C118.451 179.382 98.333 167.136 98.333 152.03C98.333 147.048 98.3328 140.359 99.3099 139.331C107.079 131.156 126.636 124.678 143.268 124.678C161.819 124.678 180.367 130.543 187.227 140.308C188.204 141.285 188.204 148.216 188.204 152.03Z" fill="var(--shade-2, #E9E9E9)"/>
<path id="Main-2_2" d="M188.204 144.215C188.204 159.321 168.085 171.567 143.268 171.567C118.451 171.567 98.333 159.321 98.333 144.215C98.333 129.109 118.451 116.863 143.268 116.863C168.085 116.863 188.204 129.109 188.204 144.215Z" fill="var(--main-2, #FFFFFF)"/>
</g>
<g fill="var(--main-1, #262626)"  id="Main-1_5">
<path d="M142.583 160.744C142.144 160.997 141.433 160.997 140.994 160.744L114.942 145.703C114.568 145.487 114.506 145.149 114.793 144.892L118.557 141.527C118.945 141.18 119.789 141.128 120.295 141.421L135.882 150.42L135.721 140.994C135.718 140.82 135.837 140.652 136.05 140.529L140.95 137.7C141.655 137.293 142.861 137.579 142.868 138.155L142.973 147.369L161.795 148.132C162.756 148.171 163.192 148.845 162.511 149.238L156.539 152.686C156.307 152.82 155.986 152.889 155.66 152.874L138.867 152.143L147.379 157.057C147.817 157.311 147.817 157.721 147.379 157.975L142.583 160.744Z" />
<path d="M166.1 147.166C165.661 147.42 164.949 147.42 164.511 147.166L145.327 136.09C144.888 135.837 144.888 135.426 145.327 135.173L150.123 132.404C150.562 132.151 151.273 132.151 151.712 132.404L152.999 133.147C152.87 132.284 153.043 131.459 153.518 130.671C153.992 129.883 154.795 129.163 155.924 128.51C156.555 128.177 157.093 127.926 157.54 127.759C157.782 127.654 158.028 127.572 158.278 127.512C158.617 127.431 158.994 127.506 159.254 127.656L163.163 129.913C163.735 130.244 163.537 130.816 162.85 131.063C162.742 131.101 162.634 131.142 162.525 131.184C161.869 131.411 161.265 131.685 160.713 132.003C159.714 132.58 159.017 133.254 158.621 134.027C158.252 134.784 158.21 135.549 158.496 136.321L170.896 143.48C171.334 143.733 171.334 144.144 170.896 144.397L166.1 147.166Z" />
</g>
</g>
</g>
</svg>
