<svg width="204" height="220" viewBox="0 0 204 220" fill="none" xmlns="http://www.w3.org/2000/svg">
<path d="M204 102C204 158.333 158.333 204 102 204C45.667 204 0 158.333 0 102C0 45.667 45.667 0 102 0C158.333 0 204 45.667 204 102Z" fill="#E9E9E9"/>
<path d="M124 141V157.8C124 160.77 122.841 163.619 120.778 165.72C118.715 167.82 115.917 169 113 169H91C88.0826 169 85.2847 167.82 83.2218 165.72C81.1589 163.619 80 160.77 80 157.8V141" fill="#262626"/>
<path fill-rule="evenodd" clip-rule="evenodd" d="M102.5 166C103.881 166 105 166.863 105 167.929L105 218.071C105 219.137 103.881 220 102.5 220C101.119 220 100 219.137 100 218.071L100 167.929C100 166.863 101.119 166 102.5 166Z" fill="#262626"/>
<path fill-rule="evenodd" clip-rule="evenodd" d="M102 26C103.381 26 104.5 27.1193 104.5 28.5L104.5 37.6452C104.5 39.0259 103.381 40.1452 102 40.1452C100.619 40.1452 99.5 39.0259 99.5 37.6452L99.5 28.5C99.5 27.1193 100.619 26 102 26Z" fill="#29D305"/>
<path fill-rule="evenodd" clip-rule="evenodd" d="M28.5 91.5C28.5 90.1193 29.6193 89 31 89L40.1452 89C41.5259 89 42.6452 90.1193 42.6452 91.5C42.6452 92.8807 41.5259 94 40.1452 94L31 94C29.6193 94 28.5 92.8807 28.5 91.5Z" fill="#29D305"/>
<path fill-rule="evenodd" clip-rule="evenodd" d="M49.4578 44.0223C50.4341 43.046 52.017 43.046 52.9934 44.0223L59.0901 50.119C60.0664 51.0954 60.0664 52.6783 59.0901 53.6546C58.1138 54.6309 56.5309 54.6309 55.5546 53.6546L49.4578 47.5578C48.4815 46.5815 48.4815 44.9986 49.4578 44.0223Z" fill="#29D305"/>
<path fill-rule="evenodd" clip-rule="evenodd" d="M159.355 91.5C159.355 90.1193 160.475 89 161.855 89L171.001 89C172.381 89 173.501 90.1193 173.501 91.5C173.501 92.8807 172.381 94 171.001 94L161.855 94C160.475 94 159.355 92.8807 159.355 91.5Z" fill="#29D305"/>
<path fill-rule="evenodd" clip-rule="evenodd" d="M154.689 45.1631C155.587 46.2114 155.466 47.7897 154.418 48.6882L147.305 54.785C146.256 55.6836 144.678 55.5621 143.78 54.5138C142.881 53.4655 143.002 51.8873 144.051 50.9887L151.164 44.8919C152.212 43.9934 153.79 44.1148 154.689 45.1631Z" fill="#29D305"/>
<path d="M80.0639 141L123.936 141C131.859 137.053 138.509 130.938 143.12 123.361C147.73 115.785 150.114 107.054 149.996 98.1765C149.771 85.4697 144.642 73.3464 135.69 64.36C126.737 55.3735 114.659 50.2254 102 50C89.3358 50.2257 77.2538 55.3777 68.3003 64.3702C59.3467 73.3628 54.2211 85.4933 54.0038 98.205C53.891 107.078 56.2772 115.802 60.8877 123.373C65.4982 130.945 72.1454 137.055 80.0639 141Z" fill="white"/>
<path fill-rule="evenodd" clip-rule="evenodd" d="M90.9447 110.816C90.0826 110.454 89.1343 110.36 88.2193 110.544C87.3044 110.728 86.4634 111.183 85.8029 111.852C85.1423 112.52 84.692 113.373 84.5095 114.302C84.327 115.23 84.4207 116.193 84.7786 117.068C85.1364 117.942 85.7421 118.689 86.5184 119.214C87.2946 119.739 88.2068 120.019 89.1395 120.019H93.8605V115.236C93.8605 114.289 93.583 113.363 93.0637 112.576C92.5445 111.79 91.8069 111.177 90.9447 110.816ZM97.2791 120.019V115.236C97.2791 113.608 96.8023 112.016 95.9084 110.662C95.0146 109.308 93.7436 108.251 92.2558 107.627C90.768 107.004 89.1305 106.84 87.5508 107.158C85.971 107.477 84.5205 108.262 83.3825 109.414C82.2445 110.566 81.47 112.033 81.1562 113.63C80.8425 115.226 81.0035 116.882 81.619 118.386C82.2345 119.89 83.2772 121.177 84.6158 122.082C85.9544 122.988 87.5287 123.471 89.1395 123.471H93.8605V141.274C93.8605 142.227 94.6257 143 95.5698 143C96.5138 143 97.2791 142.227 97.2791 141.274V123.471H106.721V141.274C106.721 142.227 107.486 143 108.43 143C109.374 143 110.14 142.227 110.14 141.274V123.471H114.86C116.471 123.471 118.046 122.988 119.384 122.082C120.723 121.177 121.765 119.89 122.381 118.386C122.997 116.882 123.157 115.226 122.844 113.63C122.53 112.033 121.756 110.566 120.618 109.414C119.479 108.262 118.029 107.477 116.449 107.158C114.869 106.84 113.232 107.004 111.744 107.627C110.256 108.251 108.985 109.308 108.092 110.662C107.198 112.016 106.721 113.608 106.721 115.236V120.019H97.2791ZM110.14 120.019H114.86C115.793 120.019 116.705 119.739 117.482 119.214C118.258 118.689 118.864 117.942 119.221 117.068C119.579 116.193 119.673 115.23 119.491 114.302C119.308 113.373 118.858 112.52 118.197 111.852C117.537 111.183 116.696 110.728 115.781 110.544C114.866 110.36 113.917 110.454 113.055 110.816C112.193 111.177 111.456 111.79 110.936 112.576C110.417 113.363 110.14 114.289 110.14 115.236V120.019Z" fill="#262626"/>
</svg>
