<svg width="204" height="204" viewBox="0 0 204 204"  xmlns="http://www.w3.org/2000/svg">
<g id="Name=Financial aid, Color=&#226;&#154;&#170;&#239;&#184;&#143; Grey">
<path id="Background-1" d="M204 102C204 158.333 158.333 204 102 204C45.667 204 0 158.333 0 102C0 45.667 45.667 0 102 0C158.333 0 204 45.667 204 102Z" fill="var(--background-1, #E9E9E9)"/>
<g id="Hand">
<path id="Shade-4" d="M107.971 162.771L106.944 160.46C106.674 159.851 105.975 159.558 105.351 159.792C103.969 160.31 102.975 158.439 104.179 157.585L147.083 127.153C149.465 125.464 152.668 125.521 154.987 127.295C158.479 129.966 158.474 135.227 154.975 137.891L121.985 163.002C120.186 164.371 117.988 165.113 115.727 165.113L111.575 165.113C110.017 165.113 108.604 164.195 107.971 162.771Z" fill="var(--shade-4, #BDBDBD)"/>
<path id="Shade-4_2" d="M121.996 160.221L120.969 157.91C120.698 157.301 119.999 157.008 119.375 157.242C117.993 157.76 117 155.888 118.204 155.034L161.108 124.602C163.489 122.914 166.692 122.971 169.011 124.744C172.504 127.415 172.498 132.677 168.999 135.34L136.01 160.452C134.211 161.821 132.012 162.562 129.752 162.562L125.6 162.562C124.041 162.562 122.629 161.645 121.996 160.221Z" fill="var(--shade-4, #BDBDBD)"/>
<path id="Shade-3" fill-rule="evenodd" clip-rule="evenodd" d="M9.44727 144.935C15.2368 144.937 21.8491 144.937 22.5599 144.932H38.8588L52.5492 133.906C58.7222 128.943 66.4264 126.235 74.3713 126.237H121.478C122.85 126.237 124.206 126.533 125.451 127.106C126.695 127.679 127.799 128.515 128.686 129.554C129.572 130.594 130.219 131.813 130.582 133.126C130.945 134.439 131.015 135.815 130.787 137.158C130.016 141.757 125.673 144.932 120.963 144.932H97.9274C96.6781 144.932 95.4799 145.425 94.5965 146.302C93.7131 147.178 93.2168 148.367 93.2168 149.607C93.2168 150.847 93.7131 152.036 94.5965 152.913C95.4799 153.789 96.6781 154.282 97.9274 154.282H133.437L168.67 128.519C169.913 127.605 171.327 126.944 172.829 126.574C174.33 126.203 175.891 126.131 177.421 126.361C178.951 126.591 180.42 127.118 181.744 127.913C183.068 128.708 184.221 129.755 185.136 130.993C186.984 133.487 187.759 136.606 187.291 139.667C186.824 142.727 185.152 145.478 182.643 147.317L142.888 176.407C137.617 180.24 131.257 182.314 124.722 182.329H39.1285C26.5084 172.438 16.278 159.636 9.44727 144.935Z" fill="var(--shade-3, #D3D3D3)"/>
</g>
<g id="Coin">
<g id="Group 3196">
<path id="Shade-2" d="M135.869 94.5543C135.869 105.605 121.151 114.563 102.997 114.563C84.8422 114.563 70.125 105.605 70.125 94.5543C70.125 90.9098 70.1249 86.0165 70.8396 85.2645C76.5233 79.2838 90.8296 74.5454 102.997 74.5454C116.567 74.5454 130.136 78.8361 135.154 85.9791C135.869 86.6937 135.869 91.7638 135.869 94.5543Z" fill="var(--shade-2, #E9E9E9)"/>
<path id="Main-2" d="M135.869 88.8375C135.869 99.8881 121.151 108.846 102.997 108.846C84.8422 108.846 70.125 99.8881 70.125 88.8375C70.125 77.7869 84.8422 68.8286 102.997 68.8286C121.151 68.8286 135.869 77.7869 135.869 88.8375Z" fill="var(--main-2, #FFFFFF)"/>
</g>
<g id="Group 3197">
<path id="Shade-2_2" d="M135.869 84.5509C135.869 95.6015 121.151 104.56 102.997 104.56C84.8422 104.56 70.125 95.6015 70.125 84.5509C70.125 80.9064 70.1249 76.0131 70.8396 75.261C76.5233 69.2804 90.8296 64.542 102.997 64.542C116.567 64.542 130.136 68.8326 135.154 75.9756C135.869 76.6903 135.869 81.7604 135.869 84.5509Z" fill="var(--shade-2, #E9E9E9)"/>
<path id="Main-2_2" d="M135.869 78.8341C135.869 89.8847 121.151 98.843 102.997 98.843C84.8422 98.843 70.125 89.8847 70.125 78.8341C70.125 67.7835 84.8422 58.8252 102.997 58.8252C121.151 58.8252 135.869 67.7835 135.869 78.8341Z" fill="var(--main-2, #FFFFFF)"/>
</g>
<g fill="var(--main-1, #262626)"  id="Main-1">
<path d="M102.496 90.9259C102.175 91.1113 101.655 91.1113 101.334 90.9259L82.2761 79.9231C82.0022 79.765 81.9567 79.5179 82.1668 79.3301L84.9199 76.8685C85.204 76.6146 85.8214 76.5766 86.1917 76.7904L97.5944 83.3737L97.4765 76.4784C97.4743 76.3509 97.5611 76.2283 97.7172 76.1381L101.301 74.0688C101.817 73.7709 102.7 73.9799 102.705 74.4012L102.782 81.1418L116.551 81.7003C117.254 81.7288 117.573 82.2215 117.074 82.5092L112.705 85.0316C112.536 85.1294 112.301 85.1797 112.062 85.1693L99.7775 84.6342L106.004 88.2293C106.325 88.4146 106.325 88.7151 106.004 88.9004L102.496 90.9259Z" />
<path d="M119.699 80.9935C119.378 81.1789 118.858 81.1789 118.537 80.9935L104.503 72.8912C104.182 72.7059 104.182 72.4054 104.503 72.2201L108.012 70.1946C108.333 70.0092 108.853 70.0092 109.174 70.1946L110.115 70.738C110.022 70.1067 110.148 69.5029 110.495 68.9265C110.843 68.3501 111.429 67.8234 112.256 67.3462C112.717 67.102 113.111 66.9188 113.438 66.7966C113.614 66.72 113.794 66.6598 113.977 66.6161C114.226 66.5569 114.501 66.6117 114.691 66.7215L117.551 68.3725C117.97 68.6143 117.825 69.0327 117.322 69.2133C117.243 69.2416 117.164 69.2711 117.085 69.3017C116.604 69.4683 116.162 69.6682 115.759 69.9012C115.028 70.3229 114.518 70.8164 114.229 71.3816C113.958 71.9358 113.928 72.4952 114.137 73.0599L123.208 78.2969C123.529 78.4822 123.529 78.7827 123.208 78.968L119.699 80.9935Z" />
</g>
</g>
<path id="Main-5" d="M14.0254 93.7127C39.8441 93.7127 44.6254 73.6314 44.6254 61.2002C44.6254 89.8877 63.7504 94.2116 75.2254 93.7127C53.2316 94.6689 44.6254 113.794 44.6254 126.225C44.6254 98.6852 23.5879 94.2591 14.0254 93.7127Z" fill="var(--main-5, #29D305)"/>
<path id="Main-5_2" d="M149.175 77.1377C162.084 77.1377 164.475 67.2939 164.475 61.2002C164.475 75.2627 174.037 77.3823 179.775 77.1377C168.778 77.6064 164.475 86.9814 164.475 93.0752C164.475 79.5752 153.956 77.4056 149.175 77.1377Z" fill="var(--main-5, #29D305)"/>
<path id="Main-5_3" d="M90.5254 31.8751C107.2 31.8751 110.288 19.2751 110.288 11.4751C110.288 29.4751 122.639 32.1881 130.05 31.8751C115.846 32.4751 110.288 44.4751 110.288 52.2751C110.288 34.9951 96.7012 32.218 90.5254 31.8751Z" fill="var(--main-5, #29D305)"/>
</g>
</svg>
