<svg width="204" height="204" viewBox="0 0 204 204" fill="none" xmlns="http://www.w3.org/2000/svg">
<g id="Name=Heating, Color=&#226;&#154;&#170;&#239;&#184;&#143; Grey">
<path id="Background-1" d="M204 102C204 158.333 158.333 204 102 204C45.667 204 0 158.333 0 102C0 45.667 45.667 0 102 0C158.333 0 204 45.667 204 102Z" fill="#E9E9E9"/>
<path id="Main-1" fill-rule="evenodd" clip-rule="evenodd" d="M25.4854 77.2344C27.6614 75.5938 30.3735 75.3301 32.5352 75.3301H48.66C49.952 75.3301 50.9994 76.3775 50.9994 77.6695C50.9994 78.9616 49.952 80.009 48.66 80.009H32.5352C30.5939 80.009 29.2033 80.2911 28.3023 80.9704C27.5433 81.5427 26.6692 82.7623 26.6691 85.8576C26.6691 85.8576 26.6691 85.8576 26.6691 85.8576V90.7704C26.6691 92.0625 25.6217 93.1099 24.3297 93.1099C23.0376 93.1099 21.9902 92.0625 21.9902 90.7704V85.8576C21.9903 81.8566 23.1675 78.9821 25.4854 77.2344Z" fill="#262626"/>
<g id="Main-1_2">
<path d="M158.641 144.718C158.641 143.426 157.594 142.379 156.302 142.379C155.01 142.379 153.962 143.426 153.962 144.718V152.926C150.955 153.937 148.789 156.779 148.789 160.127C148.789 164.322 152.19 167.722 156.384 167.722C160.579 167.722 163.98 164.322 163.98 160.127C163.98 156.718 161.734 153.834 158.641 152.873V144.718Z" fill="#262626"/>
</g>
<g id="Main-1_3">
<path d="M50.0905 144.718C50.0905 143.426 49.0431 142.379 47.751 142.379C46.459 142.379 45.4116 143.426 45.4116 144.718V152.926C42.4044 153.937 40.2383 156.779 40.2383 160.127C40.2383 164.322 43.6388 167.722 47.8336 167.722C52.0284 167.722 55.4289 164.322 55.4289 160.127C55.4289 156.718 53.1832 153.834 50.0905 152.873V144.718Z" fill="#262626"/>
</g>
<g id="Main-2">
<path fill-rule="evenodd" clip-rule="evenodd" d="M47.6407 59.1323C54.3593 59.1323 59.8059 64.5788 59.8059 71.2975V72.5261H62.6132V71.2975C62.6132 64.5788 68.0597 59.1323 74.7783 59.1323C81.497 59.1323 86.9435 64.5788 86.9435 71.2975V72.5261H89.7508V71.2975C89.7508 64.5788 95.1973 59.1323 101.916 59.1323C108.635 59.1323 114.081 64.5788 114.081 71.2975V72.5261H116.888V71.2975C116.888 64.5788 122.335 59.1323 129.054 59.1323C135.772 59.1323 141.219 64.5788 141.219 71.2975V72.5261H144.026V71.2975C144.026 64.5788 149.473 59.1323 156.191 59.1323C162.91 59.1323 168.356 64.5788 168.356 71.2975V138.121C168.356 144.84 162.91 150.286 156.191 150.286C149.473 150.286 144.026 144.84 144.026 138.121V137.56H141.219V138.121C141.219 144.84 135.772 150.286 129.054 150.286C122.335 150.286 116.888 144.84 116.888 138.121V137.56H114.081V138.121C114.081 144.84 108.635 150.286 101.916 150.286C95.1973 150.286 89.7508 144.84 89.7508 138.121V137.56H86.9435V138.121C86.9435 144.84 81.497 150.286 74.7783 150.286C68.0597 150.286 62.6132 144.84 62.6132 138.121V137.56H59.8059V138.121C59.8059 144.84 54.3593 150.286 47.6407 150.286C40.9221 150.286 35.4756 144.84 35.4756 138.121L35.4756 71.2975C35.4756 64.5788 40.9221 59.1323 47.6407 59.1323ZM59.8059 128.202H62.6132L62.6132 81.8839H59.8059L59.8059 128.202ZM86.9435 128.202H89.7508V81.8839H86.9435L86.9435 128.202ZM114.081 128.202H116.888L116.888 81.8839H114.081L114.081 128.202ZM141.219 128.202H144.026V81.8839H141.219L141.219 128.202Z" fill="white"/>
</g>
<path id="Main-5" fill-rule="evenodd" clip-rule="evenodd" d="M101.313 66.8546C100.139 66.314 99.6262 64.9245 100.167 63.751C100.58 62.8543 100.983 61.9143 100.978 60.5843C100.973 59.2509 100.55 57.272 98.7851 54.4444C96.4481 50.7002 96.4529 47.1768 97.6117 44.3267C98.715 41.6131 100.785 39.6826 102.391 38.6897C103.49 38.0103 104.932 38.3503 105.611 39.4493C106.29 40.5483 105.95 41.99 104.851 42.6694C103.891 43.2632 102.596 44.4893 101.946 46.0889C101.351 47.5519 101.213 49.4983 102.754 51.967C104.867 55.3525 105.648 58.1735 105.657 60.5679C105.665 62.9657 104.89 64.6813 104.417 65.7086C103.876 66.8822 102.486 67.3952 101.313 66.8546Z" fill="#29D305"/>
<path id="Main-5_2" fill-rule="evenodd" clip-rule="evenodd" d="M119.039 57.213C117.866 56.6724 117.353 55.2829 117.893 54.1094C118.306 53.2127 118.709 52.2727 118.704 50.9427C118.7 49.6093 118.277 47.6304 116.512 44.8028C114.175 41.0586 114.179 37.5352 115.338 34.6851C116.442 31.9715 118.512 30.041 120.117 29.0481C121.216 28.3687 122.658 28.7087 123.338 29.8077C124.017 30.9067 123.677 32.3484 122.578 33.0278C121.618 33.6216 120.323 34.8477 119.673 36.4473C119.078 37.9103 118.94 39.8567 120.481 42.3254C122.594 45.7109 123.375 48.5319 123.383 50.9263C123.392 53.3241 122.616 55.0397 122.143 56.067C121.602 57.2406 120.213 57.7536 119.039 57.213Z" fill="#29D305"/>
<path id="Main-5_3" fill-rule="evenodd" clip-rule="evenodd" d="M84.473 51.4411C83.2995 50.9005 82.7864 49.5109 83.327 48.3374C83.7401 47.4407 84.1427 46.5008 84.138 45.1708C84.1334 43.8374 83.7101 41.8584 81.9453 39.0309C79.6082 35.2866 79.613 31.7632 80.7718 28.9131C81.8751 26.1995 83.9452 24.269 85.5511 23.2761C86.65 22.5967 88.0917 22.9368 88.7712 24.0357C89.4506 25.1347 89.1105 26.5764 88.0116 27.2558C87.0512 27.8496 85.7566 29.0757 85.1062 30.6753C84.5114 32.1384 84.3736 34.0847 85.9145 36.5534C88.0276 39.9389 88.8085 42.76 88.8169 45.1544C88.8253 47.5521 88.0499 49.2678 87.5767 50.2951C87.0361 51.4686 85.6465 51.9817 84.473 51.4411Z" fill="#29D305"/>
</g>
</svg>
