<svg width="225" height="204" viewBox="0 0 225 204" fill="none" xmlns="http://www.w3.org/2000/svg">
<g id="Name=Hello, Color=&#226;&#154;&#170;&#239;&#184;&#143; Grey">
<path id="Background-1" d="M214.374 102C214.374 158.333 168.707 204 112.374 204C56.041 204 10.374 158.333 10.374 102C10.374 45.667 56.041 0 112.374 0C168.707 0 214.374 45.667 214.374 102Z" fill="var(--background-1, #E9E9E9)"/>
<path id="Main-1" d="M164.958 60.5859C143.994 28.5939 124.196 30.301 112.375 30.301L71.3896 92.4751L89.3714 126.514L149.806 133.773C152.47 133.773 169.19 146.135 189.454 146.135C196.039 146.135 202.069 144.734 206.298 141.902C212.875 137.5 216.375 132.5 221.875 115C221.875 115 224.374 104.5 224.374 92.4998C224.374 80.4998 217.375 77.7606 211.285 77.7606C203.466 77.562 194.119 83.3558 185.622 81.5144C173.125 78.8066 168.604 66.1504 164.958 60.5859Z" fill="var(--main-1, #262626)"/>
<path id="Shade-2" d="M121.213 120.035C120.846 120.011 120.812 119.338 121.171 119.264C141.611 115.027 156.974 96.8848 156.974 75.1461C156.974 50.2647 136.746 30.9043 111.919 30.9043C87.0912 30.9043 67.0654 50.2647 67.0654 75.1461C67.0654 96.7158 82.191 114.745 102.392 119.162C102.752 119.241 102.709 119.918 102.341 119.937C93.999 120.375 86.4614 121.346 81.6317 122.211C81.5841 122.219 81.5508 122.26 81.5508 122.309V127.643C81.5508 127.682 81.573 127.717 81.6079 127.733L108.993 140.707C109.012 140.716 109.034 140.719 109.056 140.715L135.967 135.221C135.986 135.217 136.003 135.208 136.016 135.195L144.903 126.762C144.936 126.73 144.944 126.681 144.922 126.641L142.476 122.182C142.46 122.152 142.43 122.133 142.397 122.13C140.371 121.96 138.027 121.694 135.431 121.4C131.253 120.926 126.422 120.379 121.213 120.035Z" fill="var(--shade-2, #E9E9E9)"/>
<path id="Main-1_2" d="M66.9834 72.8466C67.8645 56.9528 74.9133 30.0948 113.019 30.0947C129.1 30.7872 154.135 36.4376 158.175 72.8466C142.756 72.8466 118.527 71.5222 113.019 43.2665C113.014 43.2235 113.009 43.1782 113.004 43.1305C112.811 41.6721 111.605 41.8006 111.066 42.9898C106.268 59.7576 92.9753 72.8466 66.9834 72.8466Z" fill="var(--main-1, #262626)"/>
<g id="Group 3315">
<path id="Main-1_3" fill-rule="evenodd" clip-rule="evenodd" d="M139.725 84.1886C138.994 84.8323 137.88 84.7601 137.238 84.0273C135.855 82.4499 133.401 80.6354 130.61 80.1925C127.987 79.7764 124.756 80.5166 121.465 84.6173C120.855 85.3774 119.746 85.498 118.988 84.8867C118.229 84.2755 118.109 83.1638 118.719 82.4038C122.708 77.4334 127.15 76.0675 131.161 76.704C135.004 77.3137 138.145 79.7104 139.886 81.6964C140.528 82.4291 140.456 83.545 139.725 84.1886Z" fill="var(--main-1, #262626)"/>
<path id="Main-1_4" fill-rule="evenodd" clip-rule="evenodd" d="M106.016 85.3722C105.285 86.0159 104.171 85.9437 103.529 85.2109C102.146 83.6335 99.6925 81.819 96.901 81.3761C94.2784 80.96 91.0471 81.7002 87.7562 85.8009C87.1463 86.5609 86.0371 86.6816 85.2787 86.0703C84.5203 85.4591 84.4 84.3474 85.0099 83.5874C88.9987 78.617 93.4407 77.2511 97.4521 77.8876C101.295 78.4973 104.436 80.894 106.177 82.88C106.819 83.6127 106.747 84.7286 106.016 85.3722Z" fill="var(--main-1, #262626)"/>
</g>
<path id="Main-5" fill-rule="evenodd" clip-rule="evenodd" d="M65.2288 98.751C64.1319 98.8709 63.1456 98.077 63.026 96.9776C62.6248 93.2926 59.1019 84.6219 47.9257 81.6739C46.8586 81.3924 46.2213 80.2973 46.5021 79.2279C46.783 78.1584 47.8758 77.5197 48.9429 77.8012C62.0228 81.2514 66.4543 91.5457 66.9983 96.5433C67.118 97.6426 66.3258 98.631 65.2288 98.751Z" fill="var(--main-5, #29D305)"/>
<path id="Main-5_2" fill-rule="evenodd" clip-rule="evenodd" d="M74.2874 90.5478C73.1905 90.6678 72.2042 89.8738 72.0845 88.7745C71.6834 85.0895 68.1605 76.4188 56.9843 73.4707C55.9172 73.1893 55.2799 72.0941 55.5607 71.0247C55.8416 69.9553 56.9343 69.3166 58.0015 69.5981C71.0814 73.0483 75.5129 83.3425 76.0569 88.3402C76.1766 89.4395 75.3844 90.4279 74.2874 90.5478Z" fill="var(--main-5, #29D305)"/>
<path id="Main-5_3" fill-rule="evenodd" clip-rule="evenodd" d="M13.1918 112.704C14.273 112.925 14.9707 113.983 14.7501 115.066C14.0106 118.698 14.727 128.033 24.4734 134.256C25.404 134.851 25.6777 136.088 25.0848 137.021C24.4918 137.954 23.2568 138.228 22.3262 137.634C10.9194 130.35 9.83195 119.192 10.8348 114.266C11.0554 113.182 12.1107 112.483 13.1918 112.704Z" fill="var(--main-5, #29D305)"/>
<path id="Main-5_4" fill-rule="evenodd" clip-rule="evenodd" d="M3.41058 117.957C4.48273 118.218 5.14034 119.301 4.87939 120.376C4.00465 123.977 4.37142 133.332 13.8783 139.917C14.786 140.546 15.0133 141.793 14.3859 142.703C13.7585 143.613 12.514 143.84 11.6063 143.212C0.479883 135.505 -0.189534 124.313 0.996794 119.429C1.25775 118.354 2.33844 117.695 3.41058 117.957Z" fill="var(--main-5, #29D305)"/>
<path id="Subtract" d="M82.2007 122.116C82.2007 124.782 92.3252 132.77 108.309 132.77C124.293 132.77 142.231 126.609 140.496 122.043C162.876 123.827 173.535 136.241 175.963 181.75C175.963 181.75 151.874 204 111.963 203.941C72.0525 203.883 48.3742 181.43 48.3742 181.43C47.9357 155.354 52.074 125.288 82.2007 122.116Z" fill="var(--main-2, #FFFFFF)"/>
<g fill="var(--shade-1, #F4F4F4)" id="Shade-1">
<path d="M26.5394 121.283C27.2786 123.194 30.1083 128.683 33.6693 133.165C37.2302 137.647 44.4304 143.663 46.6003 149.375C48.7702 155.087 52.3655 159.656 54.1749 160.468C55.9843 161.281 68.5375 158.879 69.9315 157.481C71.3255 156.084 64.9049 136.17 73.0269 116.395C77.2094 106.211 73.6556 104.406 72.0301 104.24C68.2371 103.852 67.4394 107.824 66.2551 112.688C65.0801 117.513 63.628 118.656 61.5105 114.459L55.4525 101.614C53.8655 99.1984 46.4395 85.7578 32.8327 91.1545C23.8176 94.73 21.4013 103.494 22.4014 109.482C23.0603 113.427 25.8003 119.372 26.5394 121.283Z" />
<path fill-rule="evenodd" clip-rule="evenodd" d="M55.6701 101.488L61.7341 114.346C62.2589 115.385 62.7297 116.067 63.1473 116.443C63.5591 116.814 63.8715 116.853 64.1339 116.729C64.4353 116.588 64.7609 116.197 65.0907 115.487C65.4149 114.789 65.7213 113.831 66.0134 112.631C66.062 112.432 66.11 112.234 66.1576 112.037C66.6869 109.849 67.1741 107.836 67.9451 106.379C68.3685 105.579 68.8876 104.925 69.5648 104.5C70.2461 104.071 71.0646 103.888 72.0588 103.99C72.9423 104.08 74.3367 104.619 74.9431 106.479C75.5403 108.311 75.3546 111.38 73.2566 116.488C69.2158 126.326 68.7901 136.206 69.2047 143.812C69.3885 147.182 69.7368 150.102 70.0081 152.376C70.0429 152.668 70.0765 152.949 70.1083 153.219C70.2476 154.404 70.3536 155.384 70.3804 156.112C70.3937 156.476 70.3878 156.789 70.3533 157.038C70.3205 157.274 70.2555 157.508 70.1057 157.658C69.8919 157.872 69.4999 158.078 69.0196 158.276C68.528 158.479 67.9069 158.687 67.2018 158.893C65.7908 159.305 64.0263 159.712 62.2516 160.05C60.4769 160.388 58.6863 160.657 57.2229 160.791C56.4917 160.858 55.8376 160.891 55.3061 160.882C54.7863 160.872 54.3469 160.822 54.0708 160.698C53.5773 160.476 52.9881 160.013 52.3557 159.374C51.7191 158.731 51.0239 157.895 50.32 156.907C48.9121 154.933 47.4605 152.344 46.3677 149.468C45.3008 146.66 42.9875 143.757 40.4715 140.979C39.552 139.964 38.6037 138.964 37.6833 137.993C36.1019 136.325 34.6029 134.744 33.4741 133.323C29.8979 128.822 27.0556 123.312 26.3074 121.377C26.1613 121 25.9361 120.463 25.662 119.809C25.5924 119.643 25.5196 119.469 25.4441 119.288C25.0728 118.4 24.6394 117.352 24.2083 116.24C23.348 114.02 22.49 111.527 22.156 109.527C21.1415 103.453 23.5906 94.5516 32.7447 90.921C39.6498 88.1823 44.9992 90.2285 48.8059 93.2566C52.162 95.9262 54.3309 99.3685 55.3296 100.954C55.4598 101.16 55.5701 101.335 55.6606 101.473L55.6701 101.488ZM61.5105 114.459C63.628 118.656 65.0801 117.513 66.2551 112.688C66.303 112.491 66.3503 112.296 66.3972 112.102C67.5089 107.51 68.3906 103.868 72.0301 104.24C73.6556 104.406 77.2094 106.211 73.0269 116.395C67.1663 130.664 68.8775 145.005 69.761 152.41C70.1019 155.267 70.3197 157.092 69.9315 157.481C68.5375 158.879 55.9843 161.281 54.1749 160.468C52.3655 159.656 48.7702 155.087 46.6003 149.375C45.1147 145.464 41.2714 141.411 37.8523 137.805C36.2773 136.144 34.7923 134.578 33.6693 133.165C30.1083 128.683 27.2786 123.194 26.5394 121.283C26.392 120.902 26.1649 120.36 25.8906 119.706C24.7899 117.08 22.9289 112.64 22.4014 109.482C21.4013 103.494 23.8176 94.73 32.8327 91.1545C45.651 86.0705 52.9841 97.7039 55.1177 101.089C55.2489 101.297 55.3605 101.474 55.4525 101.614L61.5105 114.459Z"/>
</g>
<path id="Main-2" d="M82.5265 194.899C87.9526 185.993 75.8338 154.512 74.3089 151.615C72.784 148.718 71.7204 147.837 69.972 147.798C68.2235 147.759 66.4997 148.32 59.1381 150.14C51.7766 151.959 46.8573 153.042 47.3205 157.677C48.9213 173.699 47.2716 190.212 56.1605 198.879C65.0495 207.545 77.1004 203.804 82.5265 194.899Z" fill="var(--main-2, #FFFFFF)"/>
</g>
</svg>
