<svg width="224" height="204" viewBox="0 0 224 204" fill="none" xmlns="http://www.w3.org/2000/svg">
<g id="Name=Hello, Color=&#226;&#154;&#170;&#239;&#184;&#143; Grey">
<path id="Background-1" d="M214 102C214 158.333 168.333 204 112 204C55.667 204 10 158.333 10 102C10 45.667 55.667 0 112 0C168.333 0 214 45.667 214 102Z" fill="var(--background-1, #E9E9E9)"/>
<path id="Main-1" d="M164.584 60.5859C143.62 28.5939 123.822 30.301 112 30.301L71.0156 92.4751L88.9974 126.514L149.432 133.773C152.096 133.773 168.816 146.135 189.08 146.135C195.665 146.135 201.695 144.734 205.924 141.902C212.5 137.5 216 132.5 221.5 115C221.5 115 224 104.5 224 92.4998C224 80.4998 217 77.7606 210.911 77.7606C203.092 77.562 193.745 83.3558 185.248 81.5144C172.751 78.8066 168.23 66.1504 164.584 60.5859Z" fill="var(--main-1, #262626)"/>
<path id="Shade-1" d="M120.839 120.035C120.472 120.011 120.438 119.338 120.797 119.264C141.236 115.027 156.6 96.8848 156.6 75.1461C156.6 50.2647 136.372 30.9043 111.545 30.9043C86.7172 30.9043 66.6914 50.2647 66.6914 75.1461C66.6914 96.7158 81.817 114.745 102.018 119.162C102.378 119.241 102.335 119.918 101.967 119.937C93.6249 120.375 86.0873 121.346 81.2577 122.211C81.2101 122.219 81.1767 122.26 81.1767 122.309V127.643C81.1767 127.682 81.199 127.717 81.2339 127.733L108.619 140.707C108.638 140.716 108.66 140.719 108.681 140.715L135.593 135.221C135.612 135.217 135.629 135.208 135.642 135.195L144.529 126.762C144.562 126.73 144.57 126.681 144.548 126.641L142.102 122.182C142.086 122.152 142.056 122.133 142.023 122.13C139.997 121.96 137.653 121.694 135.057 121.4C130.879 120.926 126.048 120.379 120.839 120.035Z" fill="var(--shade-1, #F4F4F4)"/>
<path id="Main-1_2" d="M66.6094 72.8466C67.4905 56.9528 74.5393 30.0948 112.645 30.0947C128.726 30.7872 153.761 36.4376 157.801 72.8466C142.382 72.8466 118.153 71.5222 112.645 43.2665C112.64 43.2235 112.635 43.1782 112.63 43.1305C112.437 41.6721 111.231 41.8006 110.692 42.9898C105.894 59.7576 92.6013 72.8466 66.6094 72.8466Z" fill="var(--main-1, #262626)"/>
<g id="Group 3315">
<path id="Main-1_3" fill-rule="evenodd" clip-rule="evenodd" d="M139.351 84.1886C138.62 84.8323 137.506 84.7601 136.864 84.0273C135.481 82.4499 133.027 80.6354 130.236 80.1925C127.613 79.7764 124.382 80.5166 121.091 84.6173C120.481 85.3774 119.372 85.498 118.614 84.8867C117.855 84.2755 117.735 83.1638 118.345 82.4038C122.334 77.4334 126.776 76.0675 130.787 76.704C134.63 77.3137 137.771 79.7104 139.512 81.6964C140.154 82.4291 140.082 83.545 139.351 84.1886Z" fill="var(--main-1, #262626)"/>
<path id="Main-1_4" fill-rule="evenodd" clip-rule="evenodd" d="M105.642 85.3722C104.911 86.0159 103.797 85.9437 103.155 85.2109C101.772 83.6335 99.3184 81.819 96.527 81.3761C93.9043 80.96 90.6731 81.7002 87.3822 85.8009C86.7723 86.5609 85.663 86.6816 84.9047 86.0703C84.1463 85.4591 84.0259 84.3474 84.6359 83.5874C88.6247 78.617 93.0666 77.2511 97.0781 77.8876C100.921 78.4973 104.062 80.894 105.803 82.88C106.445 83.6127 106.373 84.7286 105.642 85.3722Z" fill="var(--main-1, #262626)"/>
</g>
<path id="Main-5" fill-rule="evenodd" clip-rule="evenodd" d="M64.8548 98.751C63.7579 98.8709 62.7716 98.077 62.6519 96.9776C62.2508 93.2926 58.7278 84.6219 47.5517 81.6739C46.4846 81.3924 45.8472 80.2973 46.1281 79.2279C46.409 78.1584 47.5017 77.5197 48.5688 77.8012C61.6488 81.2514 66.0803 91.5457 66.6243 96.5433C66.744 97.6426 65.9517 98.631 64.8548 98.751Z" fill="var(--main-5, #29D305)"/>
<path id="Main-5_2" fill-rule="evenodd" clip-rule="evenodd" d="M73.9134 90.5478C72.8164 90.6678 71.8302 89.8738 71.7105 88.7745C71.3094 85.0895 67.7864 76.4188 56.6103 73.4707C55.5432 73.1893 54.9058 72.0941 55.1867 71.0247C55.4676 69.9553 56.5603 69.3166 57.6274 69.5981C70.7074 73.0483 75.1389 83.3425 75.6829 88.3402C75.8026 89.4395 75.0103 90.4279 73.9134 90.5478Z" fill="var(--main-5, #29D305)"/>
<path id="Main-5_3" fill-rule="evenodd" clip-rule="evenodd" d="M12.8178 112.704C13.899 112.925 14.5966 113.983 14.376 115.066C13.6366 118.698 14.3529 128.033 24.0994 134.256C25.03 134.851 25.3037 136.088 24.7108 137.021C24.1178 137.954 22.8827 138.228 21.9521 137.634C10.5454 130.35 9.45793 119.192 10.4608 114.266C10.6814 113.182 11.7366 112.483 12.8178 112.704Z" fill="var(--main-5, #29D305)"/>
<path id="Main-5_4" fill-rule="evenodd" clip-rule="evenodd" d="M3.03656 117.957C4.10871 118.218 4.76631 119.301 4.50536 120.376C3.63063 123.977 3.9974 133.332 13.5043 139.917C14.412 140.546 14.6392 141.793 14.0118 142.703C13.3844 143.613 12.14 143.84 11.2322 143.212C0.10586 135.505 -0.563557 124.313 0.62277 119.429C0.883722 118.354 1.96441 117.695 3.03656 117.957Z" fill="var(--main-5, #29D305)"/>
<path id="Subtract" d="M81.8266 122.116C81.8266 124.782 91.9511 132.77 107.935 132.77C123.919 132.77 141.856 126.609 140.122 122.043C162.502 123.827 173.161 136.241 175.589 181.75C175.589 181.75 151.5 204 111.589 203.941C71.6785 203.883 48.0002 181.43 48.0002 181.43C47.5617 155.354 51.7 125.288 81.8266 122.116Z" fill="var(--main-4, #FFFFFF)"/>
<g id="Shade-1_2">
<path d="M26.1654 121.283C26.9046 123.194 29.7343 128.683 33.2953 133.165C36.8562 137.647 44.0563 143.663 46.2262 149.375C48.3961 155.087 51.9915 159.656 53.8008 160.468C55.6102 161.281 68.1635 158.879 69.5575 157.481C70.9515 156.084 64.5309 136.17 72.6529 116.395C76.8353 106.211 73.2816 104.406 71.656 104.24C67.8631 103.852 67.0654 107.824 65.881 112.688C64.7061 117.513 63.254 118.656 61.1364 114.459L55.0785 101.614C53.4915 99.1984 46.0655 85.7578 32.4587 91.1545C23.4436 94.73 21.0273 103.494 22.0274 109.482C22.6863 113.427 25.4263 119.372 26.1654 121.283Z" fill="var(--shade-1, #F4F4F4)"/>
<path fill-rule="evenodd" clip-rule="evenodd" d="M55.2961 101.488L61.3601 114.346C61.8849 115.385 62.3557 116.067 62.7733 116.443C63.1851 116.814 63.4975 116.853 63.7598 116.729C64.0613 116.588 64.3869 116.197 64.7167 115.487C65.0409 114.789 65.3473 113.831 65.6394 112.631C65.6879 112.432 65.7359 112.234 65.7836 112.037C66.3128 109.849 66.8001 107.836 67.5711 106.379C67.9945 105.579 68.5136 104.925 69.1907 104.5C69.872 104.071 70.6905 103.888 71.6848 103.99C72.5682 104.08 73.9627 104.619 74.569 106.479C75.1662 108.311 74.9806 111.38 72.8826 116.488C68.8418 126.326 68.4161 136.206 68.8307 143.812C69.0144 147.182 69.3628 150.102 69.6341 152.376C69.6689 152.668 69.7025 152.949 69.7343 153.219C69.8735 154.404 69.9796 155.384 70.0063 156.112C70.0197 156.476 70.0138 156.789 69.9792 157.038C69.9464 157.274 69.8815 157.508 69.7316 157.658C69.5179 157.872 69.1259 158.078 68.6456 158.276C68.154 158.479 67.5329 158.687 66.8278 158.893C65.4168 159.305 63.6523 159.712 61.8776 160.05C60.1029 160.388 58.3122 160.657 56.8489 160.791C56.1176 160.858 55.4636 160.891 54.932 160.882C54.4122 160.872 53.9728 160.822 53.6968 160.698C53.2033 160.476 52.614 160.013 51.9817 159.374C51.3451 158.731 50.6499 157.895 49.9459 156.907C48.5381 154.933 47.0865 152.344 45.9936 149.468C44.9268 146.66 42.6135 143.757 40.0975 140.979C39.178 139.964 38.2297 138.964 37.3093 137.993C35.7279 136.325 34.2289 134.744 33.1001 133.323C29.5239 128.822 26.6816 123.312 25.9333 121.377C25.7873 121 25.5621 120.463 25.288 119.809C25.2184 119.643 25.1456 119.469 25.0701 119.288C24.6988 118.4 24.2654 117.352 23.8343 116.24C22.974 114.02 22.1159 111.527 21.782 109.527C20.7675 103.453 23.2166 94.5516 32.3706 90.921C39.2758 88.1823 44.6252 90.2285 48.4319 93.2566C51.788 95.9262 53.9568 99.3685 54.9556 100.954C55.0858 101.16 55.1961 101.335 55.2866 101.473L55.2961 101.488ZM61.1364 114.459C63.254 118.656 64.7061 117.513 65.881 112.688C65.929 112.491 65.9763 112.296 66.0232 112.102C67.1348 107.51 68.0166 103.868 71.656 104.24C73.2816 104.406 76.8353 106.211 72.6529 116.395C66.7923 130.664 68.5035 145.005 69.387 152.41C69.7279 155.267 69.9456 157.092 69.5575 157.481C68.1635 158.879 55.6102 161.281 53.8008 160.468C51.9915 159.656 48.3961 155.087 46.2262 149.375C44.7407 145.464 40.8974 141.411 37.4783 137.805C35.9033 136.144 34.4183 134.578 33.2953 133.165C29.7343 128.683 26.9046 123.194 26.1654 121.283C26.018 120.902 25.7909 120.36 25.5166 119.706C24.4159 117.08 22.5549 112.64 22.0274 109.482C21.0273 103.494 23.4436 94.73 32.4587 91.1545C45.277 86.0705 52.6101 97.7039 54.7437 101.089C54.8749 101.297 54.9865 101.474 55.0785 101.614L61.1364 114.459Z" fill="var(--shade-1, #F4F4F4)"/>
</g>
<path id="Main-2" d="M82.1525 194.899C87.5786 185.993 75.4598 154.512 73.9349 151.615C72.41 148.718 71.3464 147.837 69.5979 147.798C67.8495 147.759 66.1257 148.32 58.7641 150.14C51.4025 151.959 46.4833 153.042 46.9464 157.677C48.5473 173.699 46.8976 190.212 55.7865 198.879C64.6755 207.545 76.7263 203.804 82.1525 194.899Z" fill="var(--main-4, #FFFFFF)"/>
</g>
</svg>
