<svg width="224" height="204" viewBox="0 0 224 204" fill="none" xmlns="http://www.w3.org/2000/svg">
<path d="M213 102C213 158.333 167.333 204 111 204C54.667 204 9 158.333 9 102C9 45.667 54.667 0 111 0C167.333 0 213 45.667 213 102Z" fill="#E9E9E9"/>
<path d="M164.584 60.5859C143.62 28.5939 123.822 30.301 112 30.301L71.0156 92.4751L88.9974 126.514L149.432 133.773C152.096 133.773 168.816 146.135 189.08 146.135C195.665 146.135 201.695 144.734 205.924 141.902C212.5 137.5 216 132.5 221.5 115C221.5 115 224 104.5 224 92.4998C224 80.4998 217 77.7606 210.911 77.7606C203.092 77.562 193.745 83.3558 185.248 81.5144C172.751 78.8066 168.23 66.1504 164.584 60.5859Z" fill="#262626"/>
<path d="M120.839 120.035C120.472 120.011 120.438 119.338 120.797 119.264C141.236 115.027 156.6 96.8848 156.6 75.1461C156.6 50.2647 136.372 30.9043 111.545 30.9043C86.7172 30.9043 66.6914 50.2647 66.6914 75.1461C66.6914 96.7158 81.817 114.745 102.018 119.162C102.378 119.241 102.335 119.921 101.967 119.942C94.1327 120.379 88.5193 121.329 83.7256 122.191C83.6932 122.197 83.6661 122.218 83.6525 122.248L81.2174 127.617C81.1948 127.666 81.2163 127.725 81.2656 127.748L108.619 140.707C108.638 140.716 108.66 140.719 108.681 140.715L135.593 135.221C135.612 135.217 135.629 135.208 135.642 135.195L144.529 126.762C144.562 126.73 144.57 126.681 144.548 126.641L142.102 122.182C142.086 122.152 142.056 122.133 142.023 122.13C139.997 121.96 137.653 121.694 135.057 121.4C130.879 120.926 126.048 120.379 120.839 120.035Z" fill="#F4F4F4"/>
<path d="M66.6094 72.8476C67.4905 56.9538 74.5393 30.0957 112.645 30.0957C128.726 30.7881 153.761 36.4386 157.801 72.8476C142.382 72.8476 118.153 71.5231 112.645 43.2675C112.64 43.2245 112.635 43.1791 112.63 43.1315C112.437 41.6731 111.231 41.8015 110.692 42.9908C105.894 59.7585 92.6013 72.8476 66.6094 72.8476Z" fill="#262626"/>
<path d="M82.7384 122.174C82.7384 124.841 92.8629 132.829 108.847 132.829C124.83 132.829 142.768 126.668 141.034 122.102C163.328 123.879 173.939 134.906 176.42 179.979C177.148 193.214 166.256 204 153.001 204H72.5837C59.8954 204 49.0781 194.137 48.9266 181.449C48.6181 155.596 53.0154 125.304 82.7384 122.174Z" fill="white"/>
<path d="M121.31 78.356C124.038 80.7058 131.929 84.1635 141.661 79.1955" stroke="#29D305" stroke-width="4" stroke-linecap="round"/>
<path d="M88.4121 78.5947C91.2702 80.7855 99.3446 83.7888 108.778 78.2753" stroke="#29D305" stroke-width="4" stroke-linecap="round"/>
<path d="M110.332 104.297C109.822 105.922 107.777 110.625 105.077 114.53C102.378 118.434 96.7627 123.8 95.2718 128.654C93.7809 133.509 91.0578 137.488 89.6105 138.255C88.1633 139.023 77.7069 137.67 76.4873 136.581C75.2678 135.492 79.5235 118.625 71.8168 102.618C67.8482 94.3751 70.6799 92.6939 72.0092 92.4726C75.1111 91.9562 75.9729 95.2143 77.199 99.1929C78.4153 103.14 79.6695 104.015 81.1956 100.421L85.5181 89.443C86.6995 87.3556 92.1172 75.8132 103.595 79.5983C111.2 82.1061 113.642 89.2604 113.128 94.285C112.79 97.595 110.842 102.673 110.332 104.297Z" fill="#E9E9E9"/>
<path fill-rule="evenodd" clip-rule="evenodd" d="M85.3324 89.3492L81.0057 100.338C80.6274 101.228 80.2751 101.818 79.9509 102.152C79.6311 102.482 79.376 102.53 79.1537 102.441C78.8983 102.338 78.6101 102.03 78.3019 101.458C77.999 100.894 77.6973 100.115 77.395 99.1336C77.3447 98.9704 77.2949 98.8081 77.2455 98.647C76.6969 96.8577 76.1919 95.2104 75.482 94.0399C75.0921 93.397 74.6311 92.8809 74.0518 92.5621C73.4689 92.2414 72.7857 92.1312 71.9727 92.2666C71.2502 92.3868 70.1303 92.9056 69.7273 94.4815C69.3304 96.0336 69.6418 98.5724 71.6325 102.707C75.4667 110.671 76.3276 118.854 76.3793 125.192C76.4022 128 76.2663 130.443 76.1605 132.345C76.1469 132.589 76.1338 132.825 76.1216 133.051C76.0682 134.042 76.0315 134.861 76.0472 135.467C76.055 135.77 76.076 136.029 76.1173 136.234C76.1565 136.429 76.222 136.62 76.3531 136.737C76.5402 136.904 76.8734 137.055 77.279 137.195C77.6941 137.338 78.216 137.479 78.807 137.614C79.9896 137.884 81.463 138.132 82.9412 138.321C84.4193 138.511 85.9071 138.643 87.1184 138.679C87.7238 138.697 88.2638 138.692 88.7008 138.656C89.1282 138.622 89.4872 138.558 89.708 138.441C90.1028 138.231 90.5638 137.816 91.0513 137.253C91.542 136.687 92.071 135.956 92.5994 135.1C93.6562 133.389 94.7172 131.165 95.468 128.72C96.201 126.333 97.9551 123.804 99.8824 121.368C100.587 120.478 101.316 119.599 102.023 118.745C103.238 117.279 104.391 115.889 105.246 114.652C107.957 110.73 110.012 106.009 110.528 104.364C110.628 104.043 110.786 103.585 110.978 103.028C111.027 102.886 111.078 102.739 111.13 102.585C111.39 101.828 111.693 100.936 111.99 99.9898C112.583 98.1022 113.161 95.9879 113.332 94.31C113.854 89.2135 111.378 81.9463 103.656 79.3999C97.8309 77.479 93.5336 79.4523 90.5569 82.162C87.9325 84.5509 86.3253 87.5207 85.5851 88.8883C85.4886 89.0666 85.4069 89.2177 85.3395 89.3366L85.3324 89.3492ZM81.1956 100.421C79.6695 104.015 78.4153 103.14 77.199 99.1929C77.1493 99.0318 77.1003 98.872 77.0517 98.7136C75.8995 94.9568 74.9856 91.9771 72.0092 92.4726C70.6799 92.6939 67.8482 94.3751 71.8168 102.618C77.3777 114.168 76.7103 126.166 76.3656 132.361C76.2327 134.751 76.1477 136.278 76.4873 136.581C77.7069 137.67 88.1633 139.023 89.6105 138.255C91.0578 137.488 93.7809 133.509 95.2718 128.654C96.2925 125.331 99.2464 121.768 101.874 118.598C103.085 117.138 104.226 115.761 105.077 114.53C107.777 110.625 109.822 105.922 110.332 104.297C110.434 103.973 110.592 103.512 110.784 102.954C111.555 100.717 112.857 96.9347 113.128 94.285C113.642 89.2604 111.2 82.1061 103.595 79.5983C92.7823 76.0326 87.3478 86.0694 85.7665 88.9897C85.6693 89.1693 85.5866 89.322 85.5181 89.443L81.1956 100.421Z" fill="#E9E9E9"/>
<path d="M46.4751 180.647C43.4013 170.441 70.0183 123.836 72.2727 121.363C74.5271 118.89 76.0602 118.717 77.5455 118.705C79.0308 118.693 81.3742 118.185 88.1874 121.881C95.0006 125.576 97.1069 127.732 95.455 132.198C89.7453 147.634 86.6202 190.107 75.5956 196.391C64.571 202.674 49.5489 190.854 46.4751 180.647Z" fill="white"/>
<path d="M118.107 104.499C118.621 106.131 120.681 110.854 123.397 114.775C126.113 118.695 131.761 124.081 133.264 128.957C134.767 133.834 137.507 137.829 138.962 138.599C140.417 139.368 150.922 137.999 152.147 136.903C153.371 135.807 149.078 118.864 156.805 102.772C160.784 94.4856 157.937 92.7992 156.601 92.5781C153.484 92.0625 152.622 95.3371 151.394 99.336C150.175 103.303 148.916 104.184 147.379 100.574L143.025 89.5477C141.835 87.4516 136.38 75.8592 124.851 79.6742C117.212 82.2018 114.766 89.3929 115.287 94.4411C115.63 97.7667 117.593 102.867 118.107 104.499Z" fill="#E9E9E9"/>
<path fill-rule="evenodd" clip-rule="evenodd" d="M143.211 89.4533L147.57 100.491C147.951 101.385 148.305 101.977 148.632 102.313C148.953 102.643 149.21 102.691 149.433 102.601C149.689 102.498 149.979 102.189 150.288 101.613C150.592 101.047 150.894 100.263 151.197 99.2767C151.247 99.1126 151.297 98.9495 151.346 98.7876C151.896 96.9891 152.402 95.3334 153.114 94.1565C153.505 93.5102 153.967 92.9911 154.549 92.6702C155.135 92.3474 155.821 92.236 156.638 92.3711C157.364 92.4912 158.49 93.0114 158.896 94.5944C159.297 96.1536 158.987 98.7048 156.99 102.862C153.146 110.868 152.289 119.091 152.244 125.459C152.224 128.281 152.363 130.735 152.471 132.647C152.485 132.892 152.498 133.128 152.511 133.356C152.565 134.351 152.603 135.174 152.588 135.784C152.58 136.088 152.559 136.348 152.518 136.554C152.479 136.75 152.413 136.942 152.282 137.059C152.094 137.227 151.759 137.38 151.352 137.52C150.935 137.665 150.411 137.807 149.817 137.943C148.629 138.215 147.149 138.466 145.664 138.658C144.179 138.851 142.684 138.985 141.467 139.022C140.858 139.041 140.316 139.036 139.877 139.001C139.447 138.967 139.086 138.902 138.864 138.785C138.468 138.575 138.004 138.159 137.513 137.593C137.02 137.024 136.488 136.291 135.956 135.432C134.892 133.713 133.824 131.479 133.067 129.023C132.328 126.626 130.563 124.087 128.624 121.641C127.915 120.747 127.182 119.864 126.47 119.008C125.247 117.536 124.088 116.14 123.227 114.898C120.499 110.96 118.43 106.218 117.91 104.566C117.809 104.243 117.65 103.783 117.456 103.224C117.407 103.082 117.356 102.933 117.303 102.779C117.041 102.019 116.736 101.122 116.436 100.172C115.838 98.2761 115.256 96.1522 115.082 94.4664C114.553 89.346 117.033 82.0414 124.79 79.4749C130.641 77.5389 134.96 79.5173 137.954 82.2369C140.594 84.6346 142.212 87.6171 142.957 88.9905C143.054 89.1695 143.136 89.3212 143.204 89.4407L143.211 89.4533ZM147.379 100.574C148.916 104.184 150.175 103.303 151.394 99.336C151.443 99.1742 151.492 99.0135 151.541 98.8543C152.695 95.0783 153.61 92.0833 156.601 92.5781C157.937 92.7992 160.784 94.4856 156.805 102.772C151.229 114.384 151.912 126.438 152.265 132.662C152.401 135.064 152.488 136.598 152.147 136.903C150.922 137.999 140.417 139.368 138.962 138.599C137.507 137.829 134.767 133.834 133.264 128.957C132.235 125.619 129.263 122.042 126.62 118.859C125.402 117.394 124.254 116.011 123.397 114.775C120.681 110.854 118.621 106.131 118.107 104.499C118.004 104.173 117.844 103.71 117.651 103.15C116.874 100.903 115.562 97.1033 115.287 94.4411C114.766 89.3929 117.212 82.2018 124.851 79.6742C135.712 76.0803 141.183 86.1598 142.775 89.0925C142.872 89.2729 142.956 89.4263 143.025 89.5477L147.379 100.574Z" fill="#E9E9E9"/>
<path d="M182.348 181.15C185.426 170.891 158.633 124.09 156.366 121.607C154.098 119.125 152.557 118.952 151.065 118.942C149.572 118.931 147.217 118.424 140.375 122.144C133.533 125.864 131.419 128.032 133.083 132.518C138.836 148.022 142.019 190.696 153.103 196.999C164.187 203.302 179.269 191.409 182.348 181.15Z" fill="white"/>
</svg>
