<svg width="226" height="205" viewBox="0 0 226 205" fill="none" xmlns="http://www.w3.org/2000/svg">
<g id="Name=Hidden, Color=&#226;&#154;&#170;&#239;&#184;&#143; Grey">
<g id=".">
<path id="Background-1" d="M213.87 102C213.87 158.333 168.203 204 111.87 204C55.5371 204 9.87012 158.333 9.87012 102C9.87012 45.667 55.5371 0 111.87 0C168.203 0 213.87 45.667 213.87 102Z" fill="var(--background-1, #E9E9E9)"/>
<path id="Main-1" d="M165.454 60.5976C144.49 28.5994 124.692 30.3069 112.871 30.3069L71.8857 92.4929L89.8675 126.538L150.302 133.798C152.966 133.798 169.686 146.163 189.951 146.163C196.535 146.163 202.565 144.762 206.794 141.93C213.371 137.526 216.871 132.525 222.371 115.022C222.371 115.022 224.871 104.52 224.871 92.5175C224.871 80.5152 217.871 77.7755 211.781 77.7755C203.962 77.5769 194.616 83.3718 186.118 81.5301C173.621 78.8217 169.1 66.1631 165.454 60.5976Z" fill="var(--main-1, #262626)"/>
<path id="Shade-1" d="M121.708 120.058C121.342 120.034 121.307 119.361 121.667 119.287C142.106 115.05 157.47 96.9035 157.47 75.1604C157.47 50.2743 137.242 30.9102 112.415 30.9102C87.5873 30.9102 67.5615 50.2743 67.5615 75.1604C67.5615 96.7345 82.6875 114.767 102.889 119.185C103.248 119.264 103.205 119.944 102.838 119.964C95.0031 120.401 89.3895 121.352 84.5957 122.214C84.5633 122.22 84.5362 122.241 84.5226 122.271L82.0875 127.641C82.0649 127.691 82.0864 127.749 82.1357 127.773L109.489 140.734C109.508 140.743 109.53 140.746 109.552 140.741L136.463 135.246C136.482 135.243 136.499 135.234 136.512 135.221L145.399 126.786C145.432 126.755 145.44 126.705 145.418 126.665L142.972 122.205C142.956 122.176 142.927 122.156 142.893 122.154C140.867 121.983 138.523 121.717 135.927 121.423C131.749 120.949 126.918 120.402 121.708 120.058Z" fill="var(--shade-1, #F4F4F4)"/>
<path id="Main-1_2" d="M67.4795 72.8617C68.3606 56.9648 75.4094 30.1016 113.515 30.1016C129.596 30.7941 154.632 36.4456 158.671 72.8617C143.252 72.8617 119.023 71.5369 113.515 43.2758C113.51 43.2329 113.505 43.1875 113.5 43.1398C113.307 41.6811 112.101 41.8096 111.562 42.9991C106.764 59.7701 93.4714 72.8617 67.4795 72.8617Z" fill="var(--main-1, #262626)"/>
<g id="Group 3322">
<path id="Main-5" d="M122.18 78.3706C124.908 80.7204 132.799 84.1781 142.531 79.21" stroke="var(--main-5, #29D305)" stroke-width="4" stroke-linecap="round" fill="none"/>
</g>
<g id="Group 3321">
<path id="Main-5_2" d="M89.2822 78.6094C92.1402 80.8002 100.215 83.8033 109.648 78.2896" stroke="var(--main-5, #29D305)" stroke-width="4" stroke-linecap="round" fill="none"/>
</g>
</g>
<path id="Subtract" d="M83.352 122.116C83.352 124.782 93.4765 132.77 109.46 132.77C125.444 132.77 143.382 126.609 141.648 122.043C164.027 123.827 174.687 136.241 177.115 181.75C177.115 181.75 156.374 203.5 112.874 204C69.374 204.5 49.5256 181.43 49.5256 181.43C49.0871 155.354 53.2254 125.288 83.352 122.116Z" fill="var(--main-2, #FFFFFF)"/>
<g id="Group 3323">
<g fill="var(--shade-2, #E9E9E9)" id="Shade-2">
<path d="M111.202 104.317C110.692 105.942 108.647 110.646 105.947 114.551C103.248 118.457 97.6328 123.823 96.1419 128.679C94.651 133.534 91.9279 137.514 90.4806 138.281C89.0334 139.049 78.577 137.696 77.3574 136.607C76.1379 135.517 80.3936 118.648 72.6869 102.637C68.7183 94.3929 71.55 92.7114 72.8794 92.49C75.9812 91.9736 76.843 95.2323 78.0691 99.2116C79.2854 103.159 80.5397 104.034 82.0658 100.44L86.3882 89.4598C87.5696 87.3721 92.9873 75.8275 104.465 79.6133C112.07 82.1216 114.512 89.2773 113.998 94.3028C113.66 97.6135 111.712 102.692 111.202 104.317Z" />
<path fill-rule="evenodd" clip-rule="evenodd" d="M86.2026 89.366L81.8758 100.357C81.4975 101.248 81.1453 101.838 80.821 102.172C80.5013 102.501 80.2461 102.549 80.0238 102.46C79.7684 102.358 79.4802 102.05 79.172 101.477C78.8691 100.914 78.5674 100.134 78.2651 99.1523C78.2148 98.9891 78.165 98.8268 78.1156 98.6656C77.567 96.876 77.062 95.2284 76.3521 94.0576C75.9622 93.4147 75.5013 92.8985 74.9219 92.5796C74.339 92.2588 73.6559 92.1486 72.8428 92.284C72.1203 92.4043 71.0004 92.9232 70.5975 94.4993C70.2006 96.0518 70.5119 98.591 72.5026 102.727C76.3369 110.692 77.1977 118.877 77.2494 125.216C77.2723 128.025 77.1364 130.468 77.0306 132.37C77.017 132.615 77.004 132.85 76.9918 133.076C76.9383 134.067 76.9016 134.886 76.9173 135.493C76.9251 135.796 76.9461 136.055 76.9874 136.26C77.0266 136.455 77.0921 136.646 77.2232 136.763C77.4103 136.93 77.7435 137.081 78.1491 137.221C78.5642 137.364 79.0862 137.505 79.6771 137.64C80.8597 137.91 82.3331 138.158 83.8113 138.348C85.2894 138.537 86.7772 138.669 87.9885 138.706C88.5939 138.724 89.1339 138.718 89.5709 138.683C89.9983 138.648 90.3573 138.584 90.5782 138.467C90.9729 138.257 91.4339 137.842 91.9214 137.279C92.4122 136.712 92.9411 135.982 93.4695 135.126C94.5263 133.414 95.5873 131.189 96.3382 128.744C97.0711 126.357 98.8252 123.828 100.753 121.391C101.457 120.501 102.186 119.621 102.893 118.768C104.109 117.301 105.261 115.911 106.116 114.673C108.827 110.751 110.882 106.029 111.398 104.384C111.499 104.062 111.656 103.605 111.848 103.048C111.897 102.906 111.948 102.758 112 102.604C112.26 101.847 112.563 100.955 112.86 100.009C113.454 98.1208 114.031 96.006 114.203 94.3278C114.724 89.2303 112.248 81.9618 104.526 79.4148C98.701 77.4936 94.4037 79.4673 91.427 82.1775C88.8026 84.5669 87.1954 87.5372 86.4552 88.9051C86.3588 89.0834 86.277 89.2345 86.2097 89.3535L86.2026 89.366ZM82.0658 100.44C80.5397 104.034 79.2854 103.159 78.0691 99.2116C78.0195 99.0506 77.9704 98.8907 77.9218 98.7322C76.7696 94.9748 75.8557 91.9945 72.8794 92.49C71.55 92.7114 68.7183 94.3929 72.6869 102.637C78.2478 114.19 77.5804 126.19 77.2358 132.386C77.1028 134.777 77.0179 136.304 77.3574 136.607C78.577 137.696 89.0334 139.049 90.4806 138.281C91.9279 137.514 94.651 133.534 96.1419 128.679C97.1626 125.354 100.116 121.791 102.744 118.621C103.955 117.16 105.096 115.783 105.947 114.551C108.647 110.646 110.692 105.942 111.202 104.317C111.304 103.993 111.463 103.531 111.655 102.974C112.425 100.736 113.727 96.9531 113.998 94.3028C114.512 89.2773 112.07 82.1216 104.465 79.6133C93.6525 76.0469 88.2179 86.0856 86.6366 89.0065C86.5394 89.1861 86.4567 89.3389 86.3882 89.4598L82.0658 100.44Z" />
</g>
<path id="Main-2" d="M47.3452 180.681C44.2714 170.473 70.8884 123.859 73.1428 121.386C75.3972 118.913 76.9303 118.739 78.4156 118.727C79.9009 118.715 82.2443 118.207 89.0575 121.904C95.8708 125.6 97.977 127.756 96.3251 132.223C90.6154 147.661 87.4903 190.143 76.4657 196.428C65.4411 202.713 50.419 190.89 47.3452 180.681Z" fill="var(--main-2, #FFFFFF)"/>
</g>
<g id="Group 3324">
<g fill="var(--shade-2, #E9E9E9)" id="Shade-2_2">
<path d="M118.977 104.519C119.491 106.151 121.551 110.876 124.267 114.797C126.983 118.718 132.631 124.105 134.134 128.982C135.637 133.86 138.377 137.856 139.832 138.625C141.287 139.395 151.793 138.025 153.017 136.929C154.241 135.834 149.948 118.887 157.675 102.792C161.655 94.5039 158.808 92.8171 157.472 92.5961C154.354 92.0803 153.492 95.3556 152.264 99.3552C151.046 103.323 149.786 104.204 148.249 100.594L143.895 89.5651C142.706 87.4686 137.25 75.874 125.721 79.6897C118.082 82.2177 115.636 89.4102 116.157 94.4594C116.501 97.7857 118.463 102.887 118.977 104.519Z"/>
<path fill-rule="evenodd" clip-rule="evenodd" d="M144.081 89.4707L148.44 100.51C148.821 101.404 149.175 101.997 149.502 102.332C149.823 102.663 150.08 102.711 150.303 102.621C150.56 102.518 150.849 102.208 151.158 101.632C151.462 101.066 151.764 100.282 152.067 99.2959C152.117 99.1318 152.167 98.9687 152.216 98.8067C152.766 97.0079 153.272 95.3519 153.984 94.1748C154.375 93.5283 154.838 93.0092 155.419 92.6882C156.005 92.3653 156.691 92.2538 157.508 92.389C158.234 92.5092 159.36 93.0294 159.766 94.6128C160.167 96.1722 159.857 98.724 157.861 102.881C154.016 110.889 153.159 119.114 153.114 125.483C153.094 128.306 153.233 130.76 153.341 132.672C153.355 132.918 153.368 133.154 153.381 133.381C153.435 134.377 153.473 135.2 153.458 135.81C153.45 136.114 153.43 136.375 153.388 136.581C153.349 136.777 153.284 136.968 153.152 137.086C152.964 137.254 152.629 137.406 152.222 137.547C151.805 137.691 151.281 137.834 150.687 137.97C149.499 138.242 148.019 138.493 146.534 138.685C145.049 138.877 143.554 139.011 142.337 139.049C141.729 139.068 141.186 139.063 140.747 139.028C140.317 138.993 139.957 138.929 139.735 138.812C139.338 138.602 138.874 138.185 138.384 137.62C137.89 137.051 137.358 136.317 136.826 135.458C135.762 133.739 134.694 131.504 133.937 129.048C133.198 126.65 131.433 124.11 129.494 121.664C128.785 120.77 128.052 119.888 127.34 119.031C126.118 117.558 124.959 116.163 124.098 114.92C121.37 110.982 119.3 106.238 118.78 104.586C118.679 104.263 118.52 103.804 118.327 103.244C118.277 103.102 118.226 102.953 118.173 102.799C117.911 102.038 117.606 101.142 117.306 100.192C116.708 98.2952 116.126 96.1709 115.952 94.4848C115.423 89.3633 117.903 82.0573 125.66 79.4903C131.511 77.5539 135.831 79.5327 138.824 82.2529C141.464 84.6511 143.082 87.6341 143.827 89.0078C143.924 89.1868 144.006 89.3386 144.074 89.4581L144.081 89.4707ZM148.249 100.594C149.786 104.204 151.046 103.323 152.264 99.3552C152.313 99.1934 152.363 99.0327 152.411 98.8734C153.565 95.0967 154.48 92.1012 157.472 92.5961C158.808 92.8171 161.655 94.5039 157.675 102.792C152.099 114.406 152.782 126.463 153.135 132.688C153.271 135.09 153.358 136.624 153.017 136.929C151.793 138.025 141.287 139.395 139.832 138.625C138.377 137.856 135.637 133.86 134.134 128.982C133.105 125.643 130.133 122.065 127.49 118.882C126.272 117.416 125.124 116.034 124.267 114.797C121.551 110.876 119.491 106.151 118.977 104.519C118.874 104.193 118.714 103.73 118.521 103.17C117.745 100.922 116.432 97.1221 116.157 94.4594C115.636 89.4102 118.082 82.2177 125.721 79.6897C136.582 76.0951 142.053 86.1765 143.645 89.1098C143.743 89.2902 143.826 89.4436 143.895 89.5651L148.249 100.594Z" />
</g>
<path id="Main-2_2" d="M183.218 181.185C186.296 170.924 159.504 124.113 157.236 121.631C154.968 119.148 153.427 118.975 151.935 118.964C150.443 118.954 148.087 118.446 141.245 122.167C134.403 125.888 132.289 128.057 133.953 132.543C139.706 148.05 142.889 190.733 153.973 197.037C165.057 203.34 180.139 191.445 183.218 181.185Z" fill="var(--main-2, #FFFFFF)"/>
</g>
</g>
</svg>
