<svg width="204" height="204" viewBox="0 0 204 204" fill="none" xmlns="http://www.w3.org/2000/svg">
<g id="Name=Lock key, Color=&#226;&#154;&#170;&#239;&#184;&#143; Grey">
<path id="Main-1" d="M123.138 103.153C135.063 96.1261 143.023 83.4589 143.023 69C143.023 46.9086 124.443 29 101.523 29C78.6034 29 60.0234 46.9086 60.0234 69C60.0234 84.6831 69.3875 98.2581 83.0205 104.814L75.816 173.792C75.6928 174.973 76.6185 176 77.8052 176H127.352C128.525 176 129.447 174.994 129.344 173.825L123.16 103.325C123.155 103.267 123.147 103.21 123.138 103.153Z" fill="#262626"/>
<path id="Shade-3" d="M75.8157 173.792L82.9931 105H93.2227L85.815 176H77.8049C76.6182 176 75.6926 174.973 75.8157 173.792Z" fill="#D3D3D3"/>
<path id="Shade-4" d="M70.6619 74.4021C68.0361 41.7641 91.8709 30.5241 104.635 29.0001C71.8126 27.945 57.1683 52.9482 60.4505 74.4021C63.2194 92.5002 76.3756 101.952 82.6969 105H93.6378C78.7582 97.4034 72.1207 81.4361 70.6619 74.4021Z" fill="#BDBDBD"/>
<path id="Main-2" d="M125.33 64.3873C111.078 51.3576 96.3031 57.8185 88.5124 64.5392C86.9491 65.8878 86.954 68.2652 88.4818 69.6539C102.26 82.1765 117.174 76.0481 125.205 69.5928C126.856 68.2655 126.894 65.8168 125.33 64.3873Z" fill="white"/>
<path id="Main-5" d="M113.23 67.0688C113.23 70.9879 110.336 74.165 106.767 74.165C103.198 74.165 100.305 70.9879 100.305 67.0688C100.305 63.1497 103.198 59.9727 106.767 59.9727C110.336 59.9727 113.23 63.1497 113.23 67.0688Z" fill="#29D305"/>
<path id="Background-1" fill-rule="evenodd" clip-rule="evenodd" d="M102 204C158.333 204 204 158.333 204 102C204 45.667 158.333 0 102 0C45.667 0 0 45.667 0 102C0 158.333 45.667 204 102 204ZM143.023 69C143.023 83.4589 135.063 96.1261 123.138 103.153C123.144 103.19 123.149 103.226 123.154 103.264C123.156 103.284 123.158 103.305 123.16 103.325L129.344 173.825C129.447 174.994 128.525 176 127.352 176H77.8052C76.6185 176 75.6928 174.973 75.816 173.792L83.0205 104.814C69.3875 98.2581 60.0234 84.6831 60.0234 69C60.0234 46.9086 78.6034 29 101.523 29C124.443 29 143.023 46.9086 143.023 69Z" fill="#E9E9E9"/>
<path id="Main-2_2" fill-rule="evenodd" clip-rule="evenodd" d="M70.0997 179.976C72.7527 183.577 77.8266 184.353 81.4325 181.71L91.0887 174.632L96.3165 182.711C98.6243 186.277 103.391 187.305 106.963 185.006C110.536 182.708 111.561 177.953 109.253 174.387L103.517 165.523L129.212 146.69C132.653 149.205 136.667 151.056 141.104 152.013C158.006 155.657 174.655 144.944 178.289 128.085C181.924 111.227 171.168 94.606 154.266 90.962C137.364 87.3181 120.715 98.0307 117.081 114.889C115.637 121.585 116.464 128.242 119.043 134.065L71.8253 168.672C68.2193 171.315 67.4468 176.376 70.0997 179.976ZM161.647 124.498C159.989 132.189 152.394 137.076 144.683 135.414C136.972 133.751 132.065 126.169 133.723 118.477C135.381 110.786 142.976 105.899 150.687 107.561C158.399 109.224 163.305 116.806 161.647 124.498Z" fill="white"/>
<path id="Main-5_2" d="M41.7672 14.2541C41.7672 13.5615 41.1999 13 40.5 13C39.8001 13 39.2328 13.5615 39.2328 14.2541C39.2328 18.7657 38.3431 24.5398 35.1856 29.1499C32.0842 33.678 26.6866 37.2459 17.2672 37.2459C16.5813 37.2459 16.0199 37.786 16.0005 38.4645C15.9811 39.143 16.5107 39.7137 17.1955 39.7521C20.7205 39.9499 26.252 40.8502 30.8726 44.0967C35.4156 47.2887 39.2328 52.8547 39.2328 62.7459C39.2328 63.4385 39.8001 64 40.5 64C41.1999 64 41.7672 63.4385 41.7672 62.7459C41.7672 58.3656 43.3213 52.755 46.8609 48.1759C50.3706 43.6357 55.8401 40.0923 63.7874 39.7529C64.4866 39.7231 65.029 39.1379 64.9988 38.4459C64.9686 37.754 64.3773 37.2172 63.6781 37.2471C59.4707 37.4267 53.9943 36.7262 49.5999 33.5287C45.2738 30.3809 41.7672 24.6438 41.7672 14.2541Z" fill="#29D305"/>
<path id="Main-5_3" fill-rule="evenodd" clip-rule="evenodd" d="M165.703 47.2348C165.703 46.5529 165.165 46 164.5 46C163.835 46 163.297 46.5529 163.297 47.2348C163.297 48.5946 163.03 50.2495 162.17 51.53C161.362 52.7322 159.927 53.7652 157.203 53.7652C156.552 53.7652 156.019 54.2973 156 54.9656C155.982 55.6339 156.486 56.1957 157.136 56.2329C158.179 56.2926 159.743 56.5643 161.018 57.4774C162.217 58.3364 163.297 59.8569 163.297 62.7652C163.297 63.4471 163.835 64 164.5 64C165.165 64 165.703 63.4471 165.703 62.7652C165.703 61.5367 166.138 59.9237 167.131 58.613C168.096 57.3401 169.6 56.3316 171.848 56.2337C172.512 56.2048 173.027 55.629 172.999 54.9476C172.971 54.2663 172.41 53.7374 171.746 53.7663C170.515 53.8199 169.002 53.6028 167.827 52.7308C166.72 51.9094 165.703 50.3504 165.703 47.2348Z" fill="#29D305"/>
</g>
</svg>
