<svg width="204" height="204" viewBox="0 0 204 204" fill="none" xmlns="http://www.w3.org/2000/svg">
<g id="Name=Meter reading, Color=&#226;&#154;&#170;&#239;&#184;&#143; Grey">
<path id="Background-1" d="M204 102C204 158.333 158.333 204 102 204C45.667 204 0 158.333 0 102C0 45.667 45.667 0 102 0C158.333 0 204 45.667 204 102Z" fill="var(--background-1, #E9E9E9)"/>
<g id="Main-5">
<path d="M35.8701 179.341V122.605C35.8701 120.99 37.1805 119.68 38.7969 119.68H62.9433C64.5597 119.68 65.8701 120.99 65.8701 122.605V197.274C54.8159 193.036 44.687 186.929 35.8701 179.341Z" fill="var(--main-5, #29D305)"/>
<path d="M86.2412 202.731C86.0049 202.071 85.8701 201.31 85.8701 200.5V44.5752C85.8701 42.0484 87.1805 40 88.7969 40H112.943C114.56 40 115.87 42.0484 115.87 44.5752V200.5C115.87 201.504 115.663 202.433 115.312 203.187C111.075 203.724 106.757 204 102.374 204C96.8843 204 91.4959 203.566 86.2412 202.731Z" fill="var(--main-5, #29D305)"/>
<path d="M135.87 198.373V82.1276C135.87 79.7973 137.18 77.9082 138.797 77.9082H162.943C164.56 77.9082 165.87 79.7973 165.87 82.1276V181.831C156.963 188.925 146.843 194.559 135.87 198.373Z" fill="var(--main-5, #29D305)"/>
</g>
<g id="Main-3">
<path d="M4.69617 96C2.65483 96 1 97.7909 1 100C1 102.209 2.65483 104 4.69617 104H20.0617C22.103 104 23.7578 102.209 23.7578 100C23.7578 97.7909 22.103 96 20.0617 96H4.69617Z" fill="var(--main-3, #262626)"/>
<path d="M31.0404 100C31.0404 97.7909 32.6952 96 34.7365 96H50.102C52.1434 96 53.7982 97.7909 53.7982 100C53.7982 102.209 52.1434 104 50.102 104H34.7365C32.6952 104 31.0404 102.209 31.0404 100Z" fill="var(--main-3, #262626)"/>
<path d="M64.7769 96C62.7355 96 61.0807 97.7909 61.0807 100C61.0807 102.209 62.7355 104 64.7769 104H80.1424C82.1837 104 83.8386 102.209 83.8386 100C83.8386 97.7909 82.1837 96 80.1424 96H64.7769Z" fill="var(--main-3, #262626)"/>
<path d="M91.1211 100C91.1211 97.7909 92.7759 96 94.8172 96H110.183C112.224 96 113.879 97.7909 113.879 100C113.879 102.209 112.224 104 110.183 104H94.8172C92.7759 104 91.1211 102.209 91.1211 100Z" fill="var(--main-3, #262626)"/>
<path d="M124.858 96C122.816 96 121.161 97.7909 121.161 100C121.161 102.209 122.816 104 124.858 104H140.223C142.264 104 143.919 102.209 143.919 100C143.919 97.7909 142.264 96 140.223 96H124.858Z" fill="var(--main-3, #262626)"/>
<path d="M151.202 100C151.202 97.7909 152.857 96 154.898 96H170.263C172.305 96 173.96 97.7909 173.96 100C173.96 102.209 172.305 104 170.263 104H154.898C152.857 104 151.202 102.209 151.202 100Z" fill="var(--main-3, #262626)"/>
<path d="M181.242 100C181.242 97.7909 182.897 96 184.938 96H200.304C202.345 96 204 97.7909 204 100C204 102.209 202.345 104 200.304 104H184.938C182.897 104 181.242 102.209 181.242 100Z" fill="var(--main-3, #262626)"/>
</g>
</g>
</svg>
