<svg width="223" height="200" viewBox="0 0 223 200"  xmlns="http://www.w3.org/2000/svg">
<g id="Name=Fastleddstrinn, Color=&#226;&#154;&#170;&#239;&#184;&#143; Grey">
<path id="Background-1" d="M212 100C212 155.228 167.228 200 112 200C56.7715 200 12 155.228 12 100C12 44.7715 56.7715 0 112 0C167.228 0 212 44.7715 212 100Z" fill="var(--background-1, #E9E9E9)"/>
<g id="Mask group">
<mask id="mask0_2881_395" style="mask-type:alpha" maskUnits="userSpaceOnUse" x="12" y="0" width="200" height="200">
<path id="Ellipse 237" d="M212 100C212 155.228 167.228 200 112 200C56.7715 200 12 155.228 12 100C12 44.7715 56.7715 0 112 0C167.228 0 212 44.7715 212 100Z" />
</mask>
<g mask="url(#mask0_2881_395)">
<path id="Main-5" d="M47 122.605C47 120.99 48.3104 119.68 49.9268 119.68H74.0732C75.6896 119.68 77 120.99 77 122.605V202.151C77 203.766 75.6896 205.075 74.0732 205.075H49.9268C48.3104 205.075 47 203.766 47 202.151V122.605Z" fill="var(--main-5, #29D305)"/>
<path id="Main-5_2" d="M97 44.5752C97 42.0484 98.3104 40 99.9268 40H124.073C125.69 40 127 42.0484 127 44.5752V200.5C127 203.027 125.69 205.075 124.073 205.075H99.9268C98.3104 205.075 97 203.027 97 200.5L97 44.5752Z" fill="var(--main-5, #29D305)"/>
<path id="Main-5_3" d="M147 82.1276C147 79.7973 148.31 77.9082 149.927 77.9082H174.073C175.69 77.9082 177 79.7973 177 82.1276V200.856C177 203.186 175.69 205.075 174.073 205.075H149.927C148.31 205.075 147 203.186 147 200.856V82.1276Z" fill="var(--main-5, #29D305)"/>
</g>
</g>
<g fill="var(--main-1, #262626)"  id="Main-1">
<path d="M4.06032 95.667C1.81786 95.667 0 97.6422 0 100.079C0 102.515 1.81786 104.491 4.06032 104.491H20.9397C23.1821 104.491 25 102.515 25 100.079C25 97.6422 23.1821 95.667 20.9397 95.667H4.06032Z" />
<path d="M33 100.079C33 97.6422 34.8179 95.667 37.0603 95.667H53.9397C56.1821 95.667 58 97.6422 58 100.079C58 102.515 56.1821 104.491 53.9397 104.491H37.0603C34.8179 104.491 33 102.515 33 100.079Z" />
<path d="M70.0603 95.667C67.8179 95.667 66 97.6422 66 100.079C66 102.515 67.8179 104.491 70.0603 104.491H86.9397C89.1821 104.491 91 102.515 91 100.079C91 97.6422 89.1821 95.667 86.9397 95.667H70.0603Z" />
<path d="M99 100.079C99 97.6422 100.818 95.667 103.06 95.667H119.94C122.182 95.667 124 97.6422 124 100.079C124 102.515 122.182 104.491 119.94 104.491H103.06C100.818 104.491 99 102.515 99 100.079Z" />
<path d="M136.06 95.667C133.818 95.667 132 97.6422 132 100.079C132 102.515 133.818 104.491 136.06 104.491H152.94C155.182 104.491 157 102.515 157 100.079C157 97.6422 155.182 95.667 152.94 95.667H136.06Z" />
<path d="M165 100.079C165 97.6422 166.818 95.667 169.06 95.667H185.94C188.182 95.667 190 97.6422 190 100.079C190 102.515 188.182 104.491 185.94 104.491H169.06C166.818 104.491 165 102.515 165 100.079Z" />
<path d="M198 100.079C198 97.6422 199.818 95.667 202.06 95.667H218.94C221.182 95.667 223 97.6422 223 100.079C223 102.515 221.182 104.491 218.94 104.491H202.06C199.818 104.491 198 102.515 198 100.079Z" />
</g>
</g>
</svg>
