<svg width="204" height="204" viewBox="0 0 204 204" fill="none" xmlns="http://www.w3.org/2000/svg">
<g id="Name=Meter reading, Color=&#226;&#154;&#170;&#239;&#184;&#143; Grey">
<path id="Background-1" d="M204 102C204 158.333 158.333 204 102 204C45.667 204 0 158.333 0 102C0 45.667 45.667 0 102 0C158.333 0 204 45.667 204 102Z" fill="var(--background-1, #E9E9E9)"/>
<g id="Main-5">
<path d="M35.8701 179.341V122.605C35.8701 120.99 37.1805 119.68 38.7969 119.68H62.9433C64.5597 119.68 65.8701 120.99 65.8701 122.605V197.274C54.8159 193.036 44.687 186.929 35.8701 179.341Z" fill="var(--main-5, #29D305)"/>
<path d="M86.2412 202.731C86.0049 202.071 85.8701 201.31 85.8701 200.5V44.5752C85.8701 42.0484 87.1805 40 88.7969 40H112.943C114.56 40 115.87 42.0484 115.87 44.5752V200.5C115.87 201.504 115.663 202.433 115.312 203.187C111.075 203.724 106.757 204 102.374 204C96.8843 204 91.4959 203.566 86.2412 202.731Z" fill="var(--main-5, #29D305)"/>
<path d="M135.87 198.373V82.1276C135.87 79.7973 137.18 77.9082 138.797 77.9082H162.943C164.56 77.9082 165.87 79.7973 165.87 82.1276V181.831C156.963 188.925 146.843 194.559 135.87 198.373Z" fill="var(--main-5, #29D305)"/>
</g>
<path id="Main-3" fill-rule="evenodd" clip-rule="evenodd" d="M2.88495e-07 102.3C1.29164e-07 100.477 1.47313 99 3.29032 99L11.5161 99C13.3333 99 14.8065 100.477 14.8065 102.3C14.8065 104.123 13.3333 105.6 11.5161 105.6L3.29032 105.6C1.47313 105.6 4.47827e-07 104.123 2.88495e-07 102.3ZM24.6774 102.3C24.6774 100.477 26.1505 99 27.9677 99L44.4193 99C46.2365 99 47.7097 100.477 47.7097 102.3C47.7097 104.123 46.2365 105.6 44.4194 105.6L27.9677 105.6C26.1505 105.6 24.6774 104.123 24.6774 102.3ZM57.5806 102.3C57.5806 100.477 59.0538 99 60.871 99L77.3226 99C79.1398 99 80.6129 100.477 80.6129 102.3C80.6129 104.123 79.1398 105.6 77.3226 105.6L60.871 105.6C59.0538 105.6 57.5806 104.123 57.5806 102.3ZM90.4839 102.3C90.4839 100.477 91.957 99 93.7742 99L110.226 99C112.043 99 113.516 100.477 113.516 102.3C113.516 104.123 112.043 105.6 110.226 105.6L93.7742 105.6C91.957 105.6 90.4839 104.123 90.4839 102.3ZM123.387 102.3C123.387 100.477 124.86 99 126.677 99L143.129 99C144.946 99 146.419 100.477 146.419 102.3C146.419 104.123 144.946 105.6 143.129 105.6L126.677 105.6C124.86 105.6 123.387 104.123 123.387 102.3ZM156.29 102.3C156.29 100.477 157.763 99 159.581 99L176.032 99C177.849 99 179.323 100.477 179.323 102.3C179.323 104.123 177.849 105.6 176.032 105.6L159.581 105.6C157.763 105.6 156.29 104.123 156.29 102.3ZM189.194 102.3C189.194 100.477 190.667 99 192.484 99L200.71 99C202.527 99 204 100.477 204 102.3C204 104.123 202.527 105.6 200.71 105.6L192.484 105.6C190.667 105.6 189.194 104.123 189.194 102.3Z" fill="var(--main-3, #262626)"/>
</g>
</svg>
