<svg width="304" height="204" viewBox="0 0 304 204" fill="none" xmlns="http://www.w3.org/2000/svg">
<g id="Name=No connection, Color=&#226;&#154;&#170;&#239;&#184;&#143; Grey">
<path id="Background-1" d="M254.082 102C254.082 158.333 208.49 204 152.249 204C96.0089 204 50.417 158.333 50.417 102C50.417 45.667 96.0089 0 152.249 0C208.49 0 254.082 45.667 254.082 102Z" fill="var(--background-1, #E9E9E9)"/>
<g id="Main-3">
<path d="M131.808 89.9421C133.18 89.0879 134.983 89.509 135.836 90.8826C136.688 92.2562 136.268 94.0622 134.897 94.9164L119.379 104.582C119.266 104.652 119.131 104.675 119.002 104.645C118.873 104.615 118.761 104.534 118.691 104.422L116.13 100.297C115.984 100.062 116.056 99.7538 116.29 99.608L131.808 89.9421Z" fill="var(--main-3, #262626)"/>
<path d="M144.154 110.348C145.525 109.494 147.329 109.915 148.181 111.289C149.034 112.662 148.614 114.468 147.242 115.323L131.724 124.989C131.612 125.059 131.476 125.081 131.347 125.051C131.218 125.021 131.107 124.941 131.037 124.828L128.476 120.703C128.33 120.468 128.402 120.16 128.636 120.014L144.154 110.348Z" fill="var(--main-3, #262626)"/>
</g>
<path id="Main-3_2" fill-rule="evenodd" clip-rule="evenodd" d="M75.2115 143.436C75.7713 144.698 75.204 146.175 73.9444 146.736C66.8303 149.903 62.6616 153.667 58.6808 157.262C58.238 157.661 57.7975 158.059 57.3555 158.454C52.8647 162.463 48.2557 166.089 40.0003 167.304C30.9766 168.633 25.4096 166.567 20.1217 164.227C19.6758 164.029 19.2334 163.831 18.7922 163.633C14.1451 161.549 9.62108 159.52 2.41385 159.283C1.03615 159.238 -0.0439519 158.082 0.00137607 156.702C0.0467038 155.322 1.20029 154.24 2.57799 154.286C10.7949 154.556 16.121 156.951 20.8068 159.057C21.2563 159.259 21.6998 159.459 22.1395 159.653C27.0166 161.812 31.5719 163.492 39.2743 162.357C46.0943 161.353 49.8087 158.494 54.034 154.721C54.4637 154.338 54.8988 153.944 55.3426 153.543C59.3413 149.927 64.0491 145.669 71.917 142.167C73.1767 141.606 74.6517 142.174 75.2115 143.436Z" fill="var(--main-3, #262626)"/>
<path id="Main-3_3" d="M113.075 91.5046C111.034 91.0281 108.888 91.3829 107.109 92.4911L91.5912 102.157C85.6964 105.829 81.4992 111.696 79.923 118.467C79.4807 120.367 79.2549 122.295 79.24 124.216L72.1685 128.621C70.3893 129.729 69.1225 131.5 68.6468 133.544C68.1711 135.587 68.5254 137.737 69.6318 139.519L76.0651 149.881C77.1715 151.663 78.9393 152.932 80.9797 153.409C83.0201 153.885 85.1659 153.53 86.945 152.422L94.0133 148.019C95.7417 148.857 97.5701 149.508 99.4697 149.952C106.23 151.53 113.34 150.355 119.234 146.683L134.752 137.017C136.532 135.909 137.798 134.138 138.274 132.094C138.75 130.051 138.396 127.901 137.289 126.119L117.989 95.032C116.883 93.2499 115.115 91.9811 113.075 91.5046Z" fill="var(--main-3, #262626)"/>
<path id="Main-3_4" d="M197.353 91.1933C195.574 90.0851 193.428 89.7302 191.388 90.2067C189.347 90.6832 187.58 91.9521 186.473 93.7342L167.173 124.821C166.067 126.603 165.713 128.753 166.188 130.797C166.664 132.84 167.931 134.611 169.71 135.719L185.228 145.385C191.123 149.057 198.232 150.233 204.993 148.654C206.893 148.21 208.721 147.559 210.45 146.721L217.519 151.124C219.299 152.232 221.444 152.587 223.485 152.111C225.525 151.634 227.293 150.365 228.399 148.583L234.833 138.221C235.939 136.439 236.293 134.29 235.818 132.246C235.342 130.202 234.075 128.431 232.296 127.323L225.222 122.917C225.207 120.997 224.982 119.069 224.539 117.169C222.963 110.398 218.766 104.531 212.871 100.859L197.353 91.1933Z" fill="var(--main-3, #262626)"/>
<path id="Main-4" d="M194.761 108.262C195.276 107.406 195.001 106.292 194.146 105.776C193.29 105.259 192.179 105.535 191.663 106.392L182.229 122.068C181.713 122.925 181.988 124.038 182.844 124.554C183.699 125.071 184.81 124.795 185.326 123.938L194.761 108.262Z" fill="var(--main-4, #FFFFFF)"/>
<path id="Main-3_5" fill-rule="evenodd" clip-rule="evenodd" d="M229.252 142.138C228.692 143.4 229.259 144.877 230.519 145.438C237.633 148.605 241.801 152.369 245.782 155.964C246.225 156.364 246.666 156.761 247.107 157.156C251.598 161.166 256.207 164.791 264.463 166.006C273.255 167.301 278.556 166.272 283.753 164.864C284.433 164.679 285.107 164.49 285.783 164.301C290.126 163.082 294.578 161.833 301.586 161.602C302.964 161.556 304.044 160.401 303.999 159.021C303.953 157.641 302.8 156.559 301.422 156.605C293.784 156.856 288.789 158.261 284.408 159.493C283.743 159.68 283.093 159.863 282.449 160.037C277.712 161.321 273.123 162.228 265.189 161.06C258.369 160.055 254.654 157.196 250.429 153.424C249.999 153.04 249.564 152.646 249.12 152.245C245.122 148.629 240.414 144.372 232.546 140.869C231.286 140.308 229.811 140.876 229.252 142.138Z" fill="var(--main-3, #262626)"/>
<path id="Main-5" fill-rule="evenodd" clip-rule="evenodd" d="M151.251 41.5C152.63 41.5 153.747 42.6193 153.747 44L153.747 56C153.747 57.3807 152.63 58.5 151.251 58.5C149.873 58.5 148.755 57.3807 148.755 56L148.755 44C148.755 42.6193 149.873 41.5 151.251 41.5Z" fill="var(--main-5, #29D305)"/>
<path id="Main-5_2" fill-rule="evenodd" clip-rule="evenodd" d="M190.03 49.974C191.147 50.7832 191.397 52.3461 190.59 53.4649L183.568 63.1878C182.76 64.3065 181.2 64.5574 180.083 63.7482C178.966 62.939 178.716 61.3761 179.523 60.2574L186.545 50.5344C187.353 49.4157 188.913 49.1648 190.03 49.974Z" fill="var(--main-5, #29D305)"/>
<path id="Main-5_3" fill-rule="evenodd" clip-rule="evenodd" d="M112.804 50.01C113.903 49.1761 115.47 49.3911 116.304 50.4902L123.555 60.0426C124.389 61.1417 124.175 62.7087 123.077 63.5427C121.978 64.3766 120.411 64.1616 119.577 63.0625L112.326 53.5101C111.491 52.411 111.706 50.844 112.804 50.01Z" fill="var(--main-5, #29D305)"/>
</g>
</svg>
