<svg width="204" height="204" viewBox="0 0 204 204"  xmlns="http://www.w3.org/2000/svg">
<g id="Name=No notifications, Color=&#226;&#154;&#170;&#239;&#184;&#143; Grey">
<path id="Background-1" d="M204 102C204 158.333 158.333 204 102 204C45.667 204 0 158.333 0 102C0 45.667 45.667 0 102 0C158.333 0 204 45.667 204 102Z" fill="var(--background-1, #E9E9E9)"/>
<g id="alarm-bell 1">
<path id="Main-5" d="M83 141C84.2052 146.195 86.7076 150.757 90.1327 154.001C93.5579 157.246 97.7214 159 102 159C106.279 159 110.442 157.246 113.867 154.001C117.292 150.757 119.795 146.195 121 141" fill="var(--main-5, #29D305)"/>
<path id="Main-1" fill-rule="evenodd" clip-rule="evenodd" d="M102 44C103.657 44 105 45.3431 105 47L105 60C105 61.6569 103.657 63 102 63C100.343 63 99 61.6569 99 60L99 47C99 45.3431 100.343 44 102 44Z" fill="var(--main-1, #262626)"/>
<path id="Main-1_2" d="M102.375 58.6768C113.315 58.6768 123.807 63.0947 131.543 70.9588C139.279 78.8228 143.625 89.4887 143.625 100.61C143.625 118.624 145.35 129.808 147.222 136.642C148.216 140.27 144.407 146.737 140.646 146.737H61.0039C57.6842 146.737 55.1886 142.515 56.2458 139.368C58.5262 132.581 61.1247 120.486 61.1247 100.61C61.1247 89.4887 65.4707 78.8228 73.2066 70.9588C80.9424 63.0947 91.4345 58.6768 102.375 58.6768Z" fill="var(--main-1, #262626)"/>
</g>
<path id="Main-2" fill-rule="evenodd" clip-rule="evenodd" d="M96.9364 70.4379C96.6259 69.0926 95.2836 68.2536 93.9383 68.5641C86.8378 70.2027 77.098 74.6251 70.7159 88.9847C70.1551 90.2464 70.7234 91.7238 71.9851 92.2846C73.2468 92.8454 74.7242 92.2771 75.285 91.0154C80.9029 78.3751 89.163 74.7975 95.0626 73.436C96.4079 73.1256 97.2469 71.7833 96.9364 70.4379Z" fill="var(--main-2, #FFFFFF)"/>
<path id="Main-3" d="M147.936 79.0002V76.2882L153.84 69.5442H147.984V66.3042H158.88V69.0162L152.952 75.7602H159.072V79.0002H147.936Z" fill="var(--main-3, #262626)"/>
<path id="Main-3_2" d="M164.045 63.9999V60.6099L171.425 52.1799H164.105V48.1299H177.725V51.5199L170.315 59.9499H177.965V63.9999H164.045Z" fill="var(--main-3, #262626)"/>
<path id="Main-3_3" d="M183.654 47.0001V42.9321L192.51 32.8161H183.726V27.9561H200.07V32.0241L191.178 42.1401H200.358V47.0001H183.654Z" fill="var(--main-3, #262626)"/>
</g>
</svg>
