<svg width="204" height="204" viewBox="0 0 204 204"  xmlns="http://www.w3.org/2000/svg">
<g id="Name=No position, Color=&#226;&#154;&#170;&#239;&#184;&#143; Grey">
<path id="Background-1" d="M204 102C204 158.333 158.333 204 102 204C45.667 204 0 158.333 0 102C0 45.667 45.667 0 102 0C158.333 0 204 45.667 204 102Z" fill="var(--background-1, #E9E9E9)"/>
<path id="Main-2" fill-rule="evenodd" clip-rule="evenodd" d="M166.075 98.0002C164.31 98.0002 162.594 98.2085 160.954 98.6013C160.395 87.8721 151.168 79.3335 139.862 79.3335C132.265 79.3335 125.608 83.1889 121.889 88.9684C119.621 88.1693 117.172 87.7335 114.619 87.7335C102.952 87.7335 93.5 96.825 93.5 108.034C93.5 111.329 94.3178 114.444 95.7701 117.198C96.3851 118.365 97.6371 119 98.9046 119H183.479C185.482 119 187.287 117.38 186.962 115.281C185.444 105.503 176.674 98.0002 166.075 98.0002Z" fill="var(--main-2, #FFFFFF)"/>
<path id="Main-1" d="M110.7 115.173C110.15 113.553 108.303 112.797 106.689 113.363C103.879 114.349 100.861 114.884 97.7193 114.884C82.6383 114.884 70.4127 102.551 70.4127 87.3368C70.4127 72.1229 82.6383 59.7895 97.7193 59.7895C101.836 59.7895 105.739 60.7084 109.24 62.3539C111.269 63.3079 113.872 62.0518 114.003 59.8133L115.037 42.0817C115.109 40.842 114.368 39.6917 113.188 39.3049C108.238 37.6822 103.022 36.8335 97.7193 36.8335C84.442 36.8335 71.7085 42.1544 62.3201 51.6256C52.9316 61.0968 47.6572 73.9425 47.6572 87.3368C47.6572 93.441 49.8496 101.285 52.9371 109.46C56.0772 117.775 60.3496 126.953 64.923 135.914C74.0693 153.835 84.5852 171.209 90.1342 179.648C90.9644 180.911 92.0916 181.947 93.415 182.663C94.7386 183.38 96.2173 183.755 97.7193 183.755C99.2213 183.755 100.7 183.38 102.024 182.663C102.8 182.243 103.508 181.713 104.129 181.092C104.754 180.466 104.894 179.53 104.643 178.682L95.5575 147.975C95.3083 147.133 95.4637 146.223 95.9782 145.511L112.145 123.148C112.682 122.404 112.827 121.447 112.532 120.578L110.7 115.173Z" fill="var(--main-1, #262626)"/>
<path id="Main-1_2" d="M117.893 110.522C116.738 111.234 116.122 112.606 116.492 113.911L118.626 121.443C118.878 122.333 118.681 123.289 118.097 124.005L100.622 145.461C100.063 146.147 99.8567 147.055 100.064 147.915L105.89 172.067C106.456 174.414 109.493 175.018 110.881 173.044C117.209 164.048 125.955 150.862 133.881 137.3C138.96 128.609 143.748 119.684 147.351 111.56C150.893 103.573 153.517 95.8678 153.842 89.7796C154.556 76.4207 149.934 63.3252 140.993 53.3741C137.444 49.4238 133.329 46.0975 128.821 43.4776C127.135 42.4976 125.07 43.6368 124.852 45.5746L122.58 65.7397C122.481 66.6214 122.807 67.4923 123.418 68.1357C128.444 73.4266 131.367 80.6939 130.947 88.5559C130.446 97.9234 125.316 105.945 117.893 110.522Z" fill="var(--main-1, #262626)"/>
<path id="Main-2_2" fill-rule="evenodd" clip-rule="evenodd" d="M83.6117 129.444C82.0609 129.444 80.5533 129.637 79.1117 130.002C78.6203 120.039 70.5119 112.11 60.5759 112.11C53.9002 112.11 48.0502 115.69 44.7815 121.057C42.7886 120.315 40.6365 119.91 38.3933 119.91C28.1407 119.91 19.834 128.352 19.834 138.76C19.834 141.82 20.5526 144.713 21.8289 147.271C22.3694 148.354 23.4697 148.944 24.5835 148.944H98.9065C100.667 148.944 102.253 147.439 101.967 145.49C100.634 136.411 92.9263 129.444 83.6117 129.444Z" fill="var(--main-2, #FFFFFF)"/>
<path id="Main-5" fill-rule="evenodd" clip-rule="evenodd" d="M130.656 11.766C131.966 12.1961 132.679 13.6081 132.248 14.9199L128.504 26.3209C128.073 27.6327 126.662 28.3475 125.353 27.9174C124.043 27.4874 123.33 26.0753 123.761 24.7635L127.505 13.3625C127.936 12.0507 129.347 11.3359 130.656 11.766Z" fill="var(--main-5, #29D305)"/>
<path id="Main-5_2" fill-rule="evenodd" clip-rule="evenodd" d="M152.071 34.6066C152.35 35.9572 151.482 37.2805 150.131 37.5623L138.39 40.0111C137.039 40.2928 135.718 39.4264 135.438 38.0758C135.159 36.7252 136.027 35.4019 137.378 35.1201L149.119 32.6713C150.469 32.3895 151.791 33.256 152.071 34.6066Z" fill="var(--main-5, #29D305)"/>
<path id="Main-5_3" fill-rule="evenodd" clip-rule="evenodd" d="M102.079 16.2852C103.207 15.4924 104.765 15.765 105.558 16.8942L112.452 26.7078C113.245 27.8369 112.973 29.395 111.845 30.1878C110.716 30.9806 109.158 30.708 108.365 29.5788L101.471 19.7652C100.678 18.6361 100.95 17.078 102.079 16.2852Z" fill="var(--main-5, #29D305)"/>
</g>
</svg>
