<svg width="204" height="204" viewBox="0 0 204 204" fill="none" xmlns="http://www.w3.org/2000/svg">
<path d="M204 102C204 158.333 158.333 204 102 204C45.667 204 0 158.333 0 102C0 45.667 45.667 0 102 0C158.333 0 204 45.667 204 102Z" fill="#E9E9E9"/>
<path d="M160.906 67.2574C162.859 68.9475 163.956 71.2397 163.956 73.6299V86.0225L164 151.454L48.8005 152C48.8005 152 39 152 39 143.237V61.012C39 58.6219 40.0971 56.3296 42.0499 54.6396C44.0027 52.9495 46.6513 52 49.413 52H81.8168C84.5785 52 87.2271 52.9495 89.1799 54.6396C91.1327 56.3296 92.2298 58.6219 92.2298 61.012V64.6178H153.543C156.305 64.6178 158.954 65.5673 160.906 67.2574Z" fill="white"/>
<path fill-rule="evenodd" clip-rule="evenodd" d="M57.5 86C57.5 84.6193 58.6193 83.5 60 83.5H134C135.381 83.5 136.5 84.6193 136.5 86C136.5 87.3807 135.381 88.5 134 88.5H60C58.6193 88.5 57.5 87.3807 57.5 86Z" fill="#E9E9E9"/>
<path fill-rule="evenodd" clip-rule="evenodd" d="M57.417 107C57.417 105.619 58.5363 104.5 59.917 104.5H92.4526C93.8333 104.5 94.9526 105.619 94.9526 107C94.9526 108.381 93.8333 109.5 92.4526 109.5H59.917C58.5363 109.5 57.417 108.381 57.417 107Z" fill="#E9E9E9"/>
<path fill-rule="evenodd" clip-rule="evenodd" d="M57.417 127.917C57.417 126.536 58.5363 125.417 59.917 125.417H92.4526C93.8333 125.417 94.9526 126.536 94.9526 127.917C94.9526 129.298 93.8333 130.417 92.4526 130.417H59.917C58.5363 130.417 57.417 129.298 57.417 127.917Z" fill="#E9E9E9"/>
<path d="M129.98 117.061L128.98 117.741C128.207 118.247 127.66 118.807 127.34 119.421C127.047 120.007 126.913 120.794 126.94 121.781H121.54C121.433 119.941 121.593 118.501 122.02 117.461C122.447 116.421 123.287 115.434 124.54 114.501L126.7 112.901C127.367 112.394 127.86 111.914 128.18 111.461C128.527 111.007 128.7 110.567 128.7 110.141C128.7 109.367 128.353 108.727 127.66 108.221C126.967 107.687 126.087 107.421 125.02 107.421C123.873 107.421 122.82 107.727 121.86 108.341C120.927 108.954 120.26 109.767 119.86 110.781L114.62 108.821C115.367 106.767 116.7 105.127 118.62 103.901C120.567 102.674 122.78 102.061 125.26 102.061C126.647 102.061 127.94 102.261 129.14 102.661C130.34 103.034 131.367 103.567 132.22 104.261C133.1 104.954 133.78 105.767 134.26 106.701C134.767 107.634 135.02 108.647 135.02 109.741C135.02 111.207 134.647 112.474 133.9 113.541C133.18 114.581 131.873 115.754 129.98 117.061ZM124.26 123.501C125.273 123.501 126.14 123.874 126.86 124.621C127.607 125.341 127.98 126.207 127.98 127.221C127.98 128.234 127.607 129.114 126.86 129.861C126.14 130.581 125.273 130.941 124.26 130.941C123.247 130.941 122.367 130.581 121.62 129.861C120.9 129.114 120.54 128.234 120.54 127.221C120.54 126.207 120.9 125.341 121.62 124.621C122.367 123.874 123.247 123.501 124.26 123.501Z" fill="#29D305"/>
<path fill-rule="evenodd" clip-rule="evenodd" d="M107.754 74.3124C84.2774 84.2898 73.3339 111.41 83.3114 134.887C93.2888 158.364 120.409 169.307 143.886 159.33C167.363 149.352 178.306 122.232 168.329 98.7553C158.351 75.2784 131.231 64.335 107.754 74.3124ZM75.9487 138.016C64.2431 110.473 77.082 78.6553 104.625 66.9497C132.168 55.2442 163.986 68.0831 175.691 95.6262C187.397 123.169 174.558 154.987 147.015 166.692C119.472 178.398 87.6543 165.559 75.9487 138.016Z" fill="#262626"/>
<path fill-rule="evenodd" clip-rule="evenodd" d="M158.172 151.172C159.734 149.609 162.266 149.609 163.828 151.172L199.828 187.172C201.391 188.734 201.391 191.266 199.828 192.828C198.266 194.391 195.734 194.391 194.172 192.828L158.172 156.828C156.609 155.266 156.609 152.734 158.172 151.172Z" fill="#262626"/>
</svg>
