<svg width="204" height="218" viewBox="0 0 204 218"  xmlns="http://www.w3.org/2000/svg">
<g id="Name=Nothing new, Color=&#226;&#154;&#170;&#239;&#184;&#143; Grey">
<path id="Background-1" d="M204 102C204 158.333 158.333 204 102 204C45.667 204 0 158.333 0 102C0 45.667 45.667 0 102 0C158.333 0 204 45.667 204 102Z" fill="var(--background-1, #E9E9E9)"/>
<g id="Group 2891">
<path id="Main-1" d="M52.2822 61H153.46C159.805 61 165.891 63.6036 170.377 68.2381C174.864 72.8725 177.385 79.1582 177.385 85.7123V136.822C177.385 138.46 176.755 140.032 175.633 141.19C174.511 142.349 172.99 143 171.404 143H76.2068V85.7123C76.2068 79.1582 73.6861 72.8725 69.1994 68.2381C64.7127 63.6036 58.6274 61 52.2822 61Z" fill="var(--main-1, #262626)"/>
<path id="Main-2" d="M83.8205 143H33.2276C31.3107 143 29.4723 142.349 28.1169 141.19C26.7615 140.032 26 138.46 26 136.822V85.7123C26 79.1582 29.0459 72.8725 34.4676 68.2381C39.8893 63.6036 47.2428 61 54.9103 61C62.5777 61 69.9312 63.6036 75.3529 68.2381C80.7746 72.8725 83.8205 79.1582 83.8205 85.7123V143Z" fill="var(--main-2, #FFFFFF)"/>
<path id="Main-2_2" fill-rule="evenodd" clip-rule="evenodd" d="M154.654 92.9419C154.654 94.3226 153.535 95.4419 152.154 95.4419L106.949 95.4419C105.568 95.4419 104.449 94.3226 104.449 92.9419C104.449 91.5612 105.568 90.4419 106.949 90.4419L152.154 90.4419C153.535 90.4419 154.654 91.5612 154.654 92.9419Z" fill="var(--main-2, #FFFFFF)"/>
<path id="Main-5" d="M135.651 90.5583L135.651 108.436C135.651 110.017 136.388 111.532 137.699 112.65C139.01 113.768 140.789 114.396 142.643 114.396L149.636 114.396C151.49 114.396 153.269 113.768 154.58 112.65C155.891 111.532 156.628 110.017 156.628 108.436L156.628 93.5583C156.628 91.9014 155.285 90.5583 153.628 90.5583L135.651 90.5583Z" fill="var(--main-5, #29D305)"/>
</g>
<path id="Main-1_2" fill-rule="evenodd" clip-rule="evenodd" d="M102 130C104.209 130 106 131.791 106 134L106 214C106 216.209 104.209 218 102 218C99.7909 218 98 216.209 98 214L98 134C98 131.791 99.7909 130 102 130Z" fill="var(--main-1, #262626)"/>
</g>
</svg>
