<svg width="204" height="204" viewBox="0 0 204 204" fill="none" xmlns="http://www.w3.org/2000/svg">
<g id="Name=Office, Color=&#226;&#154;&#170;&#239;&#184;&#143; Grey">
<path id="Background-1" d="M204 102C204 158.333 158.333 204 102 204C45.667 204 0 158.333 0 102C0 45.667 45.667 0 102 0C158.333 0 204 45.667 204 102Z" fill="var(--background-1, #E9E9E9)"/>
<rect id="Main-2" x="60" y="58" width="85" height="124" fill="var(--main-2, #FFFFFF)"/>
<path id="Main-2_2" d="M151.924 31.3084C151.924 32.1766 151.844 33.0264 151.69 33.8508C153.554 32.9685 155.645 32.4741 157.852 32.4741C165.71 32.4741 172.08 38.737 172.08 46.4627C172.08 54.1884 165.71 58.1198 157.852 58.1198H124.654C116.797 58.1198 110.427 54.1884 110.427 46.4627C110.427 39.112 116.193 33.0856 123.521 32.5178C123.487 32.1192 123.469 31.7158 123.469 31.3084C123.469 23.5827 129.839 17.3198 137.697 17.3198C145.554 17.3198 151.924 23.5827 151.924 31.3084Z" fill="var(--main-2, #FFFFFF)"/>
<path id="Main-1" fill-rule="evenodd" clip-rule="evenodd" d="M51 53.2533V190.359C66 199 83.2012 204 101.5 204C120.172 204 137.493 199.373 152.547 190.613V53.2533C152.547 49.2474 149.299 46 145.293 46H58.2533C54.2474 46 51 49.2474 51 53.2533ZM69.1338 67.76C69.1338 65.757 70.7575 64.1333 72.7605 64.1333H90.8938C92.8967 64.1333 94.5205 65.757 94.5205 67.76V85.8933C94.5205 87.8963 92.8967 89.52 90.8938 89.52H72.7605C70.7575 89.52 69.1338 87.8963 69.1338 85.8933V67.76ZM109.027 67.76C109.027 65.757 110.651 64.1333 112.654 64.1333H130.787C132.79 64.1333 134.414 65.757 134.414 67.76V85.8933C134.414 87.8963 132.79 89.52 130.787 89.52H112.654C110.651 89.52 109.027 87.8963 109.027 85.8933V67.76ZM69.1338 107.653C69.1338 105.65 70.7575 104.026 72.7605 104.026H90.8938C92.8967 104.026 94.5205 105.65 94.5205 107.653V125.786C94.5205 127.789 92.8967 129.413 90.8938 129.413H72.7605C70.7575 129.413 69.1338 127.789 69.1338 125.786V107.653ZM109.027 107.654C109.027 105.651 110.651 104.027 112.654 104.027H130.787C132.79 104.027 134.414 105.651 134.414 107.654V125.787C134.414 127.79 132.79 129.414 130.787 129.414H112.654C110.651 129.414 109.027 127.79 109.027 125.787V107.654ZM69.1338 147.547C69.1338 145.544 70.7575 143.92 72.7605 143.92H90.8938C92.8967 143.92 94.5205 145.544 94.5205 147.547V165.68C94.5205 167.683 92.8967 169.307 90.8938 169.307H72.7605C70.7575 169.307 69.1338 167.683 69.1338 165.68V147.547ZM109.027 147.547C109.027 145.544 110.651 143.92 112.654 143.92H130.787C132.79 143.92 134.414 145.544 134.414 147.547V165.68C134.414 167.683 132.79 169.307 130.787 169.307H112.654C110.651 169.307 109.027 167.683 109.027 165.68V147.547Z" fill="var(--main-1, #262626)"/>
<path id="Main-5" d="M69 101C69 114.807 57.5833 126 43.5 126C29.4167 126 18 114.807 18 101C18 87.1929 29.4167 76 43.5 76C57.5833 76 69 87.1929 69 101Z" fill="var(--main-5, #29D305)"/>
<path id="Main-5_2" d="M74 145.5C74 161.792 60.5685 175 44 175C27.4315 175 14 161.792 14 145.5C14 129.208 27.4315 116 44 116C60.5685 116 74 129.208 74 145.5Z" fill="var(--main-5, #29D305)"/>
<path id="Shade-1" fill-rule="evenodd" clip-rule="evenodd" d="M32.5954 102.778C33.4562 101.817 34.9337 101.735 35.8957 102.595L45.2212 110.927C46.1832 111.786 46.2653 113.262 45.4045 114.222C44.5438 115.183 43.0663 115.265 42.1043 114.405L32.7788 106.073C31.8168 105.214 31.7347 103.738 32.5954 102.778Z" fill="var(--shade-1, #F4F4F4)"/>
<path id="Shade-1_2" fill-rule="evenodd" clip-rule="evenodd" d="M61.6237 141.056C62.3187 142.137 62.0236 143.588 60.9646 144.297L45.5521 154.616C44.4931 155.325 43.0713 155.024 42.3763 153.944C41.6813 152.863 41.9764 151.412 43.0354 150.703L58.4479 140.384C59.5069 139.675 60.9287 139.976 61.6237 141.056Z" fill="var(--shade-1, #F4F4F4)"/>
<path id="Shade-1_3" fill-rule="evenodd" clip-rule="evenodd" d="M44.5 94C45.8807 94 47 95.0587 47 96.3646L47 201.635C47 202.941 45.8807 204 44.5 204C43.1193 204 42 202.941 42 201.635L42 96.3646C42 95.0587 43.1193 94 44.5 94Z" fill="var(--shade-1, #F4F4F4)"/>
</g>
</svg>
