<svg width="204" height="204" viewBox="0 0 204 204" fill="none" xmlns="http://www.w3.org/2000/svg">
<path d="M204 102C204 158.333 158.333 204 102 204C45.667 204 0 158.333 0 102C0 45.667 45.667 0 102 0C158.333 0 204 45.667 204 102Z" fill="#E9E9E9"/>
<path d="M92 50C87.5817 50 84 53.5817 84 58V69H46C38.268 69 32 75.268 32 83V138C32 145.732 38.268 152 46 152H158C165.732 152 172 145.732 172 138V83C172 75.268 165.732 69 158 69H126V58C126 53.5817 122.418 50 118 50H92Z" fill="white"/>
<path d="M148.834 85.167C148.834 89.0263 151.975 92.167 155.834 92.167C159.693 92.167 162.834 89.0263 162.834 85.167C162.834 81.3077 159.693 78.167 155.834 78.167C151.975 78.167 148.834 81.3077 148.834 85.167Z" fill="#262626"/>
<path d="M72 111C72 127.54 85.46 141 102 141C118.54 141 132 127.54 132 111C132 94.46 118.54 81 102 81C85.46 81 72 94.46 72 111Z" fill="#262626"/>
<path fill-rule="evenodd" clip-rule="evenodd" d="M77.5 35.5C78.3284 35.5 79 36.1716 79 37C79 47.2275 82.3741 52.8212 86.4811 55.8757C90.6659 58.9879 95.8949 59.6778 99.9346 59.5014C100.762 59.4653 101.462 60.1069 101.499 60.9346C101.535 61.7622 100.893 62.4624 100.065 62.4986C92.4618 62.8305 87.2381 66.2907 83.8819 70.7283C80.4904 75.2127 79 80.7126 79 85C79 85.8284 78.3284 86.5 77.5 86.5C76.6716 86.5 76 85.8284 76 85C76 75.2799 72.3352 69.851 68.0118 66.7461C63.5982 63.5765 58.3031 62.692 54.9141 62.4975C54.1037 62.451 53.4774 61.7684 53.5006 60.957C53.5239 60.1457 54.1883 59.5 55 59.5C64.0327 59.5 69.1715 56.0108 72.1231 51.6062C75.1414 47.1019 76 41.4428 76 37C76 36.1716 76.6716 35.5 77.5 35.5Z" fill="#29D305"/>
<path fill-rule="evenodd" clip-rule="evenodd" d="M79 37C79 36.1716 78.3284 35.5 77.5 35.5C76.6716 35.5 76 36.1716 76 37C76 41.4428 75.1414 47.1019 72.1231 51.6062C69.1715 56.0108 64.0327 59.5 55 59.5C54.1883 59.5 53.5239 60.1457 53.5006 60.957C53.4774 61.7684 54.1037 62.451 54.9141 62.4975C58.3031 62.692 63.5982 63.5765 68.0118 66.7461C72.3352 69.851 76 75.2799 76 85C76 85.8284 76.6716 86.5 77.5 86.5C78.3284 86.5 79 85.8284 79 85C79 80.7126 80.4904 75.2127 83.8819 70.7283C87.2381 66.2907 92.4618 62.8305 100.065 62.4986C100.893 62.4624 101.535 61.7622 101.499 60.9346C101.462 60.1069 100.762 59.4653 99.9346 59.5014C95.8949 59.6778 90.6659 58.9879 86.4811 55.8757C82.3741 52.8212 79 47.2275 79 37Z" fill="#29D305"/>
</svg>
