<svg width="196" height="205" viewBox="0 0 196 205"  xmlns="http://www.w3.org/2000/svg">
<g id="Name=Power line, Color=&#226;&#154;&#170;&#239;&#184;&#143; Grey">
<path id="Background-1" fill-rule="evenodd" clip-rule="evenodd" d="M148.039 181.655C141.552 185.505 134.582 188.626 127.24 190.903L135.857 104.299L164.755 26.1277C175.181 35.8255 183.484 47.7763 188.888 61.2053L164.609 103.43L148.039 181.655ZM153.332 178.279C179.041 160.693 195.912 131.134 195.912 97.6355C195.912 86.8175 194.152 76.4104 190.904 66.6848L168.844 105.05L153.332 178.279ZM98.2761 195.271C106.677 195.271 114.83 194.21 122.609 192.215L131.457 103.284L161.157 22.9424C144.17 8.62649 122.23 0 98.2761 0C74.7366 0 53.1427 8.33036 36.2817 22.2039L69.1226 102.351L77.938 193.15C84.4982 194.54 91.3018 195.271 98.2761 195.271ZM32.7071 25.2923C21.4671 35.4859 12.6131 48.2628 7.08212 62.6857L32.3315 102.524L45.5266 179.809C53.9895 185.253 63.3479 189.425 73.332 192.056L64.7285 103.44L32.7071 25.2923ZM28.0678 104.163L40.3769 176.259C16.2748 158.48 0.640625 129.883 0.640625 97.6355C0.640625 87.3313 2.23685 77.3999 5.19552 68.0752L28.0678 104.163Z" fill="var(--background-1, #E9E9E9)"/>
<path id="Main-5" fill-rule="evenodd" clip-rule="evenodd" d="M30.6475 87.2207C31.8843 87.2207 32.8869 88.2233 32.8869 89.46V102C32.8869 103.237 31.8843 104.24 30.6475 104.24C29.4108 104.24 28.4082 103.237 28.4082 102V89.46C28.4082 88.2233 29.4108 87.2207 30.6475 87.2207Z" fill="var(--main-5, #29D305)"/>
<path id="Main-5_2" fill-rule="evenodd" clip-rule="evenodd" d="M67.3731 87.2207C68.6099 87.2207 69.6125 88.2233 69.6125 89.46V102C69.6125 103.237 68.6099 104.24 67.3731 104.24C66.1364 104.24 65.1338 103.237 65.1338 102V89.46C65.1338 88.2233 66.1364 87.2207 67.3731 87.2207Z" fill="var(--main-5, #29D305)"/>
<path id="Main-5_3" fill-rule="evenodd" clip-rule="evenodd" d="M133.657 87.2207C134.894 87.2207 135.897 88.2233 135.897 89.46V102C135.897 103.237 134.894 104.24 133.657 104.24C132.421 104.24 131.418 103.237 131.418 102V89.46C131.418 88.2233 132.421 87.2207 133.657 87.2207Z" fill="var(--main-5, #29D305)"/>
<path id="Main-5_4" fill-rule="evenodd" clip-rule="evenodd" d="M165.904 87.2207C167.141 87.2207 168.144 88.2233 168.144 89.46V102C168.144 103.237 167.141 104.24 165.904 104.24C164.668 104.24 163.665 103.237 163.665 102V89.46C163.665 88.2233 164.668 87.2207 165.904 87.2207Z" fill="var(--main-5, #29D305)"/>
<path id="Main-3" d="M94.0653 41.2193C94.4144 38.7672 96.514 36.9453 98.9909 36.9453C101.448 36.9453 103.538 38.7398 103.909 41.1692L108.093 68.5589L179.933 89.0906C182.456 89.776 181.96 93.4909 179.346 93.4909H110.158L117.209 197.9C117.436 201.262 114.77 204.115 111.4 204.115H89.9626C86.6493 204.115 84.0039 201.354 84.1456 198.043L88.6216 93.491H17.1355C14.5253 93.491 14.0254 89.7838 16.5423 89.0923L90.2771 67.8256L94.0653 41.2193Z" fill="var(--main-3, #262626)"/>
<path id="Main-4" d="M28.0681 104.164L8.03418 72.5545L12.0575 70.5361L32.3318 102.524L40.2073 148.652L35.868 149.849L28.0681 104.164Z" fill="var(--main-4, #FFFFFF)"/>
<path id="Main-4_2" d="M64.7285 103.439L45.9805 57.6853L50.2496 56.292L69.1226 102.351L73.6172 148.645L69.1913 149.406L64.7285 103.439Z" fill="var(--main-4, #FFFFFF)"/>
<path id="Main-4_3" d="M188.984 69.3733L168.47 105.05L158.548 151.025L154.276 149.578L164.235 103.43L184.925 67.4473L188.984 69.3733Z" fill="var(--main-4, #FFFFFF)"/>
<path id="Main-4_4" d="M153.275 57.1832L135.858 104.299L131.393 149.167L126.965 148.438L131.458 103.284L148.974 55.8994L153.275 57.1832Z" fill="var(--main-4, #FFFFFF)"/>
</g>
</svg>
