<svg xmlns="http://www.w3.org/2000/svg" width="204" height="204" viewBox="0 0 204 204" fill="none">
  <path d="M204 102C204 158.333 158.333 204 102 204C45.667 204 0 158.333 0 102C0 45.667 45.667 0 102 0C158.333 0 204 45.667 204 102Z" fill="var(--background-1, #E9E9E9)"/>
  <rect x="49" y="36" width="106" height="133" rx="8" fill="var(--main-2, #FFFFFF)"/>
  <rect x="49" y="51" width="106" height="66" fill="var(--shade-1, #F4F4F4)"/>
  <path d="M123.887 91.3163C124.536 89.9197 124.097 88.2558 122.844 87.3619C121.591 86.468 119.882 86.5995 118.782 87.6744C114.542 91.8179 108.537 97.7495 103.489 103.163C100.969 105.865 98.6451 108.483 96.8877 110.711C96.011 111.823 95.2364 112.886 94.6406 113.846C94.0993 114.719 93.4998 115.825 93.2917 116.951C92.6813 120.254 94.057 123.087 96.4933 124.676C98.7798 126.167 100.793 126.874 103.489 126C104.836 125.563 106.821 124.078 107.494 123.31C108.262 122.434 109.036 121.334 109.794 120.135C111.316 117.727 112.978 114.592 114.632 111.247C116.901 106.662 119.259 101.469 121.312 96.9487C122.246 94.8915 123.117 92.9738 123.887 91.3163Z" fill="var(--main-1, #262626)"/>
  <ellipse cx="102" cy="64.1781" rx="5.6383" ry="5.63559" fill="var(--main-5, #29D305)"/>
  <ellipse cx="61.2683" cy="99.5" rx="5.50264" ry="5.5" fill="var(--main-5, #29D305)"/>
  <ellipse cx="73.6383" cy="75.6356" rx="5.6383" ry="5.63559" fill="var(--main-5, #29D305)"/>
  <ellipse cx="130.358" cy="75.6356" rx="5.63829" ry="5.63559" fill="var(--main-5, #29D305)"/>
  <ellipse cx="142.46" cy="99.5" rx="5.50264" ry="5.5" fill="var(--main-5, #29D305)"/>
  <path fill-rule="evenodd" clip-rule="evenodd" d="M81 149C81 146.791 82.7909 145 85 145H119C121.209 145 123 146.791 123 149C123 151.209 121.209 153 119 153H85C82.7909 153 81 151.209 81 149Z" fill="var(--shade-2, #E9E9E9)"/>
</svg>