<svg width="204" height="204" viewBox="0 0 204 204" fill="none" xmlns="http://www.w3.org/2000/svg">
<g id="Name=Power line, Color=&#226;&#154;&#170;&#239;&#184;&#143; Grey">
<g id="Background-1">
<path d="M144.638 194.688C138.63 197.456 132.306 199.658 125.736 201.224L135.217 104.299L165.559 22.2189C176.498 30.9447 185.602 41.8731 192.2 54.3325L163.968 103.43L144.638 194.688Z" fill="var(--background-1, #E9E9E9)"/>
<path d="M149.753 192.155C182.022 175.026 204 141.08 204 102C204 86.6977 200.63 72.1824 194.593 59.1558L168.203 105.05L149.753 192.155Z" fill="var(--background-1, #E9E9E9)"/>
<path d="M102 204C108.542 204 114.94 203.384 121.14 202.207L130.817 103.284L161.833 19.383C145.025 7.18985 124.352 0 102 0C76.9945 0 54.0906 8.99802 36.3495 23.9328L68.482 102.351L77.4679 201.031C85.3259 202.971 93.5427 204 102 204Z" fill="var(--background-1, #E9E9E9)"/>
<path d="M32.7944 27.0688C21.7617 37.2635 12.9852 49.8643 7.2984 64.0377L31.6909 102.524L46.1792 187.384C54.3348 192.727 63.3023 196.932 72.8565 199.776L64.0879 103.44L32.7944 27.0688Z" fill="var(--background-1, #E9E9E9)"/>
<path d="M27.4272 104.163L41.019 183.771C16.1198 165.173 0 135.469 0 102C0 90.5716 1.87953 79.5821 5.34634 69.3239L27.4272 104.163Z" fill="var(--background-1, #E9E9E9)"/>
</g>
<path id="Main-5" fill-rule="evenodd" clip-rule="evenodd" d="M30.0069 87.2207C31.2437 87.2207 32.2463 88.2233 32.2463 89.46V102C32.2463 103.237 31.2437 104.24 30.0069 104.24C28.7702 104.24 27.7676 103.237 27.7676 102V89.46C27.7676 88.2233 28.7702 87.2207 30.0069 87.2207Z" fill="var(--main-5, #29D305)"/>
<path id="Main-5_2" fill-rule="evenodd" clip-rule="evenodd" d="M66.7325 87.2207C67.9693 87.2207 68.9718 88.2233 68.9718 89.46V102C68.9718 103.237 67.9693 104.24 66.7325 104.24C65.4958 104.24 64.4932 103.237 64.4932 102V89.46C64.4932 88.2233 65.4958 87.2207 66.7325 87.2207Z" fill="var(--main-5, #29D305)"/>
<path id="Main-5_3" fill-rule="evenodd" clip-rule="evenodd" d="M133.017 87.2207C134.253 87.2207 135.256 88.2233 135.256 89.46V102C135.256 103.237 134.253 104.24 133.017 104.24C131.78 104.24 130.777 103.237 130.777 102V89.46C130.777 88.2233 131.78 87.2207 133.017 87.2207Z" fill="var(--main-5, #29D305)"/>
<path id="Main-5_4" fill-rule="evenodd" clip-rule="evenodd" d="M165.264 87.2207C166.501 87.2207 167.503 88.2233 167.503 89.46V102C167.503 103.237 166.501 104.24 165.264 104.24C164.027 104.24 163.024 103.237 163.024 102V89.46C163.024 88.2233 164.027 87.2207 165.264 87.2207Z" fill="var(--main-5, #29D305)"/>
<path id="Main-3" d="M84.5212 202.637C83.8117 201.182 83.4432 199.486 83.505 198.043L87.981 93.491H16.4949C13.8847 93.491 13.3848 89.7838 15.9017 89.0923L89.6365 67.8256L93.4247 41.2193C93.7738 38.7672 95.8734 36.9453 98.3502 36.9453C100.808 36.9453 102.897 38.7398 103.268 41.1692L107.453 68.5589L179.293 89.0906C181.815 89.776 181.319 93.4909 178.706 93.4909H109.517L116.568 197.9C116.679 199.543 115.974 201.515 114.831 203.102C110.384 203.694 105.846 204 101.237 204C95.5443 204 89.9602 203.534 84.5212 202.637Z" fill="var(--main-3, #262626)"/>
<path id="Main-4" d="M27.4275 104.164L7.39355 72.5545L11.4168 70.5361L31.6911 102.524L39.5666 148.652L35.2274 149.849L27.4275 104.164Z" fill="var(--main-4, #FFFFFF)"/>
<path id="Main-4_2" d="M64.0879 103.439L45.3398 57.6853L49.609 56.292L68.482 102.351L72.9766 148.645L68.5507 149.406L64.0879 103.439Z" fill="var(--main-4, #FFFFFF)"/>
<path id="Main-4_3" d="M194.17 59.9261L168.111 105L158.611 150.5L154.34 149.053L163.876 103.38L190.111 58L194.17 59.9261Z" fill="var(--main-4, #FFFFFF)"/>
<path id="Main-4_4" d="M152.634 57.1832L135.217 104.299L130.752 149.167L126.324 148.438L130.817 103.284L148.334 55.8994L152.634 57.1832Z" fill="var(--main-4, #FFFFFF)"/>
</g>
</svg>
