<svg width="204" height="204" viewBox="0 0 204 204"  xmlns="http://www.w3.org/2000/svg">
<g id="Name=Power station, Color=&#226;&#154;&#170;&#239;&#184;&#143; Grey">
<path id="Background-1" d="M204 102C204 158.333 158.333 204 102 204C45.667 204 0 158.333 0 102C0 45.667 45.667 0 102 0C158.333 0 204 45.667 204 102Z" fill="var(--background-1, #E9E9E9)"/>
<path id="Main-1" fill-rule="evenodd" clip-rule="evenodd" d="M124.459 150.895C125.88 150.895 127.032 152.047 127.032 153.468V177.229C127.032 177.304 127.032 177.38 127.032 177.457C127.034 179.676 127.036 182.886 125.795 185.534C125.108 187.001 124.03 188.343 122.394 189.29C120.784 190.221 118.818 190.665 116.508 190.665H19.6515C18.2303 190.665 17.0781 189.513 17.0781 188.092C17.0781 186.671 18.2303 185.518 19.6515 185.518H116.508C118.174 185.518 119.189 185.198 119.816 184.836C120.416 184.488 120.828 184.006 121.135 183.351C121.839 181.848 121.885 179.759 121.885 177.229V153.468C121.885 152.047 123.038 150.895 124.459 150.895Z" fill="var(--main-1, #262626)"/>
<g fill="var(--main-2, #FFFFFF)"  id="Main-2">
<path d="M133.763 55.685C133.33 55.1042 132.653 54.7565 131.929 54.7435C131.205 54.7306 130.515 55.0537 130.062 55.6186L94.4224 100.041H37.4312C36.1392 100.041 35.0918 101.089 35.0918 102.381V152.532C35.0918 153.824 36.1392 154.872 37.4312 154.872H165.633C166.925 154.872 167.973 153.824 167.973 152.532V102.381C167.973 101.877 167.81 101.387 167.509 100.983L133.763 55.685Z" />
</g>
<g fill="var(--main-1, #262626)"  id="Main-1_2">
<path d="M75.791 50.0645C75.0784 50.0645 74.4046 50.3892 73.9608 50.9467L33.729 101.479C33.1695 102.182 33.0617 103.143 33.4518 103.952C33.8419 104.761 34.6609 105.275 35.5592 105.275H93.1123C93.8335 105.275 94.5144 104.943 94.9577 104.374L132.403 56.3195L166.534 104.292C167.283 105.345 168.743 105.591 169.796 104.842C170.849 104.093 171.095 102.633 170.346 101.58L134.394 51.0477C133.955 50.4308 133.245 50.0645 132.488 50.0645H75.791Z" />
</g>
<path id="Main-5" d="M115.064 111.069L116.85 108.533L122.566 101.493L133.4 87.604C134.163 86.6064 135.839 87.0012 135.861 88.0404C135.883 89.0796 133.487 103.628 133.095 105.914C133.089 105.958 133.092 106.002 133.105 106.045C133.117 106.087 133.137 106.127 133.166 106.162C133.194 106.197 133.23 106.226 133.27 106.248C133.31 106.269 133.354 106.283 133.4 106.288L138.692 107.099C139.296 107.182 139.854 107.452 140.282 107.868C140.717 108.275 141.032 108.784 141.197 109.343C141.338 109.903 141.338 110.488 141.197 111.048C141.089 111.623 140.851 112.169 140.5 112.648L134.475 120.091L121.989 136.154C121.834 136.357 121.614 136.505 121.362 136.576C121.11 136.648 120.841 136.638 120.595 136.549C120.347 136.453 120.141 136.279 120.01 136.056C119.879 135.833 119.832 135.575 119.877 135.323L122.555 117.865C122.565 117.811 122.562 117.756 122.548 117.704C122.534 117.651 122.509 117.602 122.474 117.559C122.44 117.516 122.396 117.481 122.346 117.455C122.297 117.429 122.242 117.412 122.185 117.407L116.98 116.618C116.442 116.537 115.932 116.334 115.493 116.027C115.053 115.719 114.697 115.316 114.454 114.851C114.187 114.227 114.103 113.545 114.21 112.879C114.318 112.213 114.613 111.587 115.064 111.069Z" fill="var(--main-5, #29D305)"/>
</g>
</svg>
