<svg width="204" height="204" viewBox="0 0 204 204" fill="none" xmlns="http://www.w3.org/2000/svg">
<g id="Name=Price, Color=&#226;&#154;&#170;&#239;&#184;&#143; Grey">
<path id="Background-1" d="M204 102C204 158.333 158.333 204 102 204C45.667 204 0 158.333 0 102C0 45.667 45.667 0 102 0C158.333 0 204 45.667 204 102Z" fill="var(--background-1, #E9E9E9)"/>
<path id="Shade-2" d="M168.507 124.227C168.507 145.533 140.131 162.805 105.127 162.805C70.1239 162.805 41.748 145.533 41.748 124.227C41.748 117.2 41.7478 107.765 43.1259 106.315C54.0844 94.7839 81.6681 85.6479 105.127 85.6479C131.292 85.6479 157.453 93.9207 167.129 107.693C168.507 109.071 168.507 118.846 168.507 124.227Z" fill="var(--shade-2, #E9E9E9)"/>
<path id="Main-2" d="M168.507 113.204C168.507 134.51 140.131 151.782 105.127 151.782C70.1239 151.782 41.748 134.51 41.748 113.204C41.748 91.8973 70.1239 74.625 105.127 74.625C140.131 74.625 168.507 91.8973 168.507 113.204Z" fill="var(--main-2, #FFFFFF)"/>
<path id="Shade-2_2" d="M168.507 105.891C168.507 127.197 140.131 144.469 105.127 144.469C70.1239 144.469 41.748 127.197 41.748 105.891C41.748 98.8639 41.7478 89.4291 43.1259 87.9792C54.0844 76.448 81.6681 67.312 105.127 67.312C131.292 67.312 157.453 75.5847 167.129 89.357C168.507 90.7348 168.507 100.51 168.507 105.891Z" fill="var(--shade-2, #E9E9E9)"/>
<path id="Main-2_2" d="M168.507 94.8678C168.507 116.174 140.131 133.447 105.127 133.447C70.1239 133.447 41.748 116.174 41.748 94.8678C41.748 73.5613 70.1239 56.2891 105.127 56.2891C140.131 56.2891 168.507 73.5613 168.507 94.8678Z" fill="var(--main-2, #FFFFFF)"/>
<path id="Shade-2_3" d="M168.507 86.6022C168.507 107.909 140.131 125.181 105.127 125.181C70.1239 125.181 41.748 107.909 41.748 86.6022C41.748 79.5753 41.7478 70.1406 43.1259 68.6906C54.0844 57.1594 81.6681 48.0234 105.127 48.0234C131.292 48.0234 157.453 56.2961 167.129 70.0684C168.507 71.4462 168.507 81.2219 168.507 86.6022Z" fill="var(--shade-2, #E9E9E9)"/>
<path id="Main-2_3" d="M168.507 75.5787C168.507 96.8852 140.131 114.157 105.127 114.157C70.1239 114.157 41.748 96.8852 41.748 75.5787C41.748 54.2723 70.1239 37 105.127 37C140.131 37 168.507 54.2723 168.507 75.5787Z" fill="var(--main-2, #FFFFFF)"/>
<g id="Main-1">
<path d="M104.16 98.8922C103.542 99.2495 102.538 99.2495 101.919 98.8922L65.1748 77.6778C64.6467 77.373 64.559 76.8967 64.9641 76.5345L70.2723 71.7884C70.82 71.2988 72.0105 71.2256 72.7243 71.6378L94.7096 84.331L94.4824 71.0362C94.4782 70.7904 94.6455 70.554 94.9465 70.3802L101.857 66.3903C102.852 65.8159 104.553 66.219 104.563 67.0312L104.711 80.0276L131.259 81.1044C132.614 81.1594 133.229 82.1094 132.268 82.6642L123.845 87.5275C123.518 87.7161 123.065 87.813 122.605 87.7929L98.919 86.7613L110.925 93.6928C111.544 94.0502 111.544 94.6295 110.925 94.9868L104.16 98.8922Z" fill="var(--main-1, #262626)"/>
<path d="M137.33 79.7418C136.711 80.0991 135.708 80.0991 135.089 79.7418L108.031 64.1199C107.412 63.7626 107.412 63.1833 108.031 62.8259L114.795 58.9205C115.414 58.5632 116.418 58.5632 117.036 58.9205L118.851 59.9683C118.67 58.7511 118.914 57.5869 119.584 56.4756C120.253 55.3643 121.385 54.3487 122.978 53.4286C123.868 52.9578 124.627 52.6046 125.257 52.369C125.598 52.2212 125.945 52.1052 126.298 52.021C126.776 51.9068 127.308 52.0126 127.674 52.2241L133.188 55.4075C133.995 55.8737 133.715 56.6803 132.746 57.0286C132.594 57.0831 132.441 57.1399 132.288 57.1989C131.362 57.5203 130.51 57.9056 129.732 58.355C128.324 59.168 127.34 60.1195 126.782 61.2093C126.261 62.2777 126.202 63.3563 126.605 64.4451L144.094 74.5424C144.713 74.8997 144.713 75.4791 144.094 75.8364L137.33 79.7418Z" fill="var(--main-1, #262626)"/>
</g>
<path id="Main-1_2" fill-rule="evenodd" clip-rule="evenodd" d="M202.717 64.0158C204.295 65.4912 204.437 68.0328 203.035 69.6927C197.584 76.1455 192.262 83.2857 186.812 90.5985C184.71 93.4192 182.588 96.2655 180.433 99.1079C172.775 109.207 164.752 119.167 156.047 126.968C147.332 134.78 137.69 140.652 126.763 142.212C115.752 143.784 103.957 140.904 91.1211 132.23C78.5372 123.726 67.8716 120.293 58.8673 119.897C49.8898 119.503 42.2719 122.114 35.7323 126.208C25.0396 132.902 17.5241 143.244 11.7942 151.128C10.3444 153.123 9.00884 154.961 7.76509 156.542C6.41958 158.253 4.01084 158.493 2.38502 157.077C0.759198 155.661 0.531958 153.126 1.87747 151.415C2.86425 150.16 4.00455 148.584 5.30306 146.788C10.9847 138.933 19.6949 126.89 31.8249 119.296C39.4356 114.531 48.5055 111.393 59.1862 111.862C69.8399 112.33 81.8029 116.375 95.2508 125.463C106.883 133.324 116.874 135.508 125.736 134.243C134.681 132.966 142.997 128.101 151.092 120.846C159.198 113.581 166.837 104.145 174.459 94.0918C176.52 91.3745 178.584 88.6044 180.655 85.8264C186.159 78.4415 191.704 71.0011 197.323 64.3497C198.725 62.6898 201.14 62.5403 202.717 64.0158Z" fill="var(--main-1, #262626)"/>
<path id="Main-5" d="M178 118.5C178 128.717 169.717 137 159.5 137C149.283 137 141 128.717 141 118.5C141 108.283 149.283 100 159.5 100C169.717 100 178 108.283 178 118.5Z" fill="var(--main-5, #29D305)"/>
</g>
</svg>
