<svg width="204" height="204" viewBox="0 0 204 204" fill="none" xmlns="http://www.w3.org/2000/svg">
<g id="Name=Price, Color=&#226;&#154;&#170;&#239;&#184;&#143; Grey">
<path id="Background-1" d="M204 102C204 158.333 158.333 204 102 204C45.667 204 0 158.333 0 102C0 45.667 45.667 0 102 0C158.333 0 204 45.667 204 102Z" fill="var(--background-1, #E9E9E9)"/>
<path id="Shade-2" d="M168.507 124.227C168.507 145.533 140.131 162.805 105.127 162.805C70.1239 162.805 41.748 145.533 41.748 124.227C41.748 117.2 41.7478 107.765 43.1259 106.315C54.0844 94.7839 81.6681 85.6479 105.127 85.6479C131.292 85.6479 157.453 93.9207 167.129 107.693C168.507 109.071 168.507 118.846 168.507 124.227Z" fill="var(--shade-2, #E9E9E9)"/>
<path id="Main-2" d="M168.507 113.204C168.507 134.51 140.131 151.782 105.127 151.782C70.1239 151.782 41.748 134.51 41.748 113.204C41.748 91.8973 70.1239 74.625 105.127 74.625C140.131 74.625 168.507 91.8973 168.507 113.204Z" fill="var(--main-2, #FFFFFF)"/>
<path id="Shade-2_2" d="M168.507 105.891C168.507 127.197 140.131 144.469 105.127 144.469C70.1239 144.469 41.748 127.197 41.748 105.891C41.748 98.8639 41.7478 89.4291 43.1259 87.9792C54.0844 76.448 81.6681 67.312 105.127 67.312C131.292 67.312 157.453 75.5847 167.129 89.357C168.507 90.7348 168.507 100.51 168.507 105.891Z" fill="var(--shade-2, #E9E9E9)"/>
<path id="Main-2_2" d="M168.507 94.8678C168.507 116.174 140.131 133.447 105.127 133.447C70.1239 133.447 41.748 116.174 41.748 94.8678C41.748 73.5613 70.1239 56.2891 105.127 56.2891C140.131 56.2891 168.507 73.5613 168.507 94.8678Z" fill="var(--main-2, #FFFFFF)"/>
<path id="Shade-2_3" d="M168.507 86.6022C168.507 107.909 140.131 125.181 105.127 125.181C70.1239 125.181 41.748 107.909 41.748 86.6022C41.748 79.5753 41.7478 70.1406 43.1259 68.6906C54.0844 57.1594 81.6681 48.0234 105.127 48.0234C131.292 48.0234 157.453 56.2961 167.129 70.0684C168.507 71.4462 168.507 81.2219 168.507 86.6022Z" fill="var(--shade-2, #E9E9E9)"/>
<path id="Main-2_3" d="M168.507 75.5787C168.507 96.8852 140.131 114.157 105.127 114.157C70.1239 114.157 41.748 96.8852 41.748 75.5787C41.748 54.2723 70.1239 37 105.127 37C140.131 37 168.507 54.2723 168.507 75.5787Z" fill="var(--main-2, #FFFFFF)"/>
<g id="Main-1">
<path d="M104.16 98.8922C103.542 99.2495 102.538 99.2495 101.919 98.8922L65.1748 77.6778C64.6467 77.373 64.559 76.8967 64.9641 76.5345L70.2723 71.7884C70.82 71.2988 72.0105 71.2256 72.7243 71.6378L94.7096 84.331L94.4824 71.0362C94.4782 70.7904 94.6455 70.554 94.9465 70.3802L101.857 66.3903C102.852 65.8159 104.553 66.219 104.563 67.0312L104.711 80.0276L131.259 81.1044C132.614 81.1594 133.229 82.1094 132.268 82.6642L123.845 87.5275C123.518 87.7161 123.065 87.813 122.605 87.7929L98.919 86.7613L110.925 93.6928C111.544 94.0502 111.544 94.6295 110.925 94.9868L104.16 98.8922Z" fill="var(--main-1, #262626)"/>
<path d="M137.33 79.7418C136.711 80.0991 135.708 80.0991 135.089 79.7418L108.031 64.1199C107.412 63.7626 107.412 63.1833 108.031 62.8259L114.795 58.9205C115.414 58.5632 116.418 58.5632 117.036 58.9205L118.851 59.9683C118.67 58.7511 118.914 57.5869 119.584 56.4756C120.253 55.3643 121.385 54.3487 122.978 53.4286C123.868 52.9578 124.627 52.6046 125.257 52.369C125.598 52.2212 125.945 52.1052 126.298 52.021C126.776 51.9068 127.308 52.0126 127.674 52.2241L133.188 55.4075C133.995 55.8737 133.715 56.6803 132.746 57.0286C132.594 57.0831 132.441 57.1399 132.288 57.1989C131.362 57.5203 130.51 57.9056 129.732 58.355C128.324 59.168 127.34 60.1195 126.782 61.2093C126.261 62.2777 126.202 63.3563 126.605 64.4451L144.094 74.5424C144.713 74.8997 144.713 75.4791 144.094 75.8364L137.33 79.7418Z" fill="var(--main-1, #262626)"/>
</g>
<path id="Main-1_2" fill-rule="evenodd" clip-rule="evenodd" d="M202.357 64.1437C203.658 65.169 203.882 67.0553 202.857 68.3567C200.504 71.343 197.682 75.0656 194.54 79.2102C189.206 86.247 182.951 94.5 176.503 102.43C166.241 115.051 154.983 127.52 145.152 134.004C136.452 139.743 128.252 142.506 120.034 142.438C111.837 142.369 103.972 139.486 95.9325 134.558C94.0763 133.42 92.3268 132.321 90.6547 131.271C78.1332 123.406 69.951 118.267 53.8176 119.983C44.8993 120.932 36.3256 125.654 28.3146 132.442C20.3207 139.216 13.1055 147.861 6.91715 156.277C5.93565 157.612 4.05787 157.899 2.72303 156.917C1.38818 155.936 1.10174 154.058 2.08325 152.723C8.39493 144.139 15.9297 135.072 24.4358 127.864C32.9248 120.671 42.6011 115.143 53.1828 114.017C71.4687 112.072 81.3495 118.302 93.9036 126.218C95.5693 127.268 97.2821 128.348 99.0679 129.442C106.528 134.015 113.325 136.381 120.084 136.438C126.821 136.494 133.871 134.257 141.848 128.996C150.817 123.08 161.559 111.299 171.847 98.6451C178.277 90.7373 184.331 82.7478 189.59 75.806C192.76 71.6221 195.642 67.8188 198.144 64.6435C199.169 63.3421 201.055 63.1183 202.357 64.1437Z" fill="var(--main-1, #262626)"/>
<path id="Main-5" d="M177 117.5C177 127.717 168.717 136 158.5 136C148.283 136 140 127.717 140 117.5C140 107.283 148.283 99 158.5 99C168.717 99 177 107.283 177 117.5Z" fill="var(--main-5, #29D305)"/>
</g>
</svg>
