<svg width="205" height="204" viewBox="0 0 205 204" fill="none" xmlns="http://www.w3.org/2000/svg">
<g id="Name=Sharing, Color=&#226;&#154;&#170;&#239;&#184;&#143; Grey">
<path id="Background-1" d="M204 102C204 158.333 158.333 204 102 204C45.667 204 0 158.333 0 102C0 45.667 45.667 0 102 0C158.333 0 204 45.667 204 102Z" fill="#E9E9E9"/>
<g id="Group 3344">
<path id="Shade-1" d="M202.891 66.9978C202.891 88.9016 186.548 106.98 165.416 109.655C160.893 110.168 156.023 109.834 154.154 109.602C133.216 106.751 117.08 88.7628 117.08 66.9978C117.08 43.2505 136.193 24.7725 159.889 24.7725C183.585 24.7725 202.891 43.2505 202.891 66.9978Z" fill="#F4F4F4"/>
<path id="Main-1" d="M117 64.8034C117.841 49.634 124.568 24 160.937 24C176.285 24.6609 200.18 30.0538 204.036 64.8034C189.319 64.8034 166.194 63.5393 160.937 36.5714C160.932 36.5304 160.928 36.4871 160.923 36.4416C160.739 35.0497 159.588 35.1723 159.074 36.3074C154.494 52.3109 141.807 64.8034 117 64.8034Z" fill="#262626"/>
<g id="Group 3315">
<path id="Main-1_2" fill-rule="evenodd" clip-rule="evenodd" d="M186.435 75.6281C185.737 76.2425 184.674 76.1736 184.061 75.4742C182.741 73.9686 180.399 72.2368 177.735 71.8141C175.232 71.417 172.148 72.1234 169.007 76.0373C168.425 76.7627 167.366 76.8778 166.643 76.2944C165.919 75.711 165.804 74.6501 166.386 73.9247C170.193 69.1808 174.433 67.8772 178.261 68.4846C181.929 69.0665 184.927 71.354 186.588 73.2495C187.201 73.9489 187.132 75.0138 186.435 75.6281Z" fill="#262626"/>
<path id="Main-1_3" fill-rule="evenodd" clip-rule="evenodd" d="M154.257 76.758C153.559 77.3724 152.496 77.3034 151.883 76.6041C150.564 75.0985 148.222 73.3667 145.557 72.944C143.054 72.5469 139.97 73.2533 136.829 77.1672C136.247 77.8926 135.189 78.0077 134.465 77.4243C133.741 76.8409 133.626 75.7799 134.208 75.0546C138.015 70.3107 142.255 69.0071 146.083 69.6145C149.751 70.1964 152.749 72.4839 154.411 74.3794C155.024 75.0787 154.955 76.1437 154.257 76.758Z" fill="#262626"/>
</g>
</g>
<path id="Shade-1_2" d="M85.8909 138.998C85.8909 160.902 69.5482 178.98 48.4162 181.655C43.8933 182.168 39.0234 181.834 37.1537 181.602C16.2163 178.751 0.0800781 160.763 0.0800781 138.998C0.0800781 115.25 19.1931 96.7725 42.8891 96.7725C66.5851 96.7725 85.8909 115.25 85.8909 138.998Z" fill="#F4F4F4"/>
<path id="Main-1_4" d="M0 136.803C0.840923 121.634 7.56845 96 43.9371 96C59.2853 96.6609 83.1798 102.054 87.0357 136.803C72.3194 136.803 49.194 135.539 43.9371 108.571C43.9323 108.53 43.9276 108.487 43.9231 108.442C43.7388 107.05 42.5881 107.172 42.0738 108.307C37.4942 124.311 24.8072 136.803 0 136.803Z" fill="#262626"/>
<path id="Main-1_5" fill-rule="evenodd" clip-rule="evenodd" d="M69.4327 147.628C68.7348 148.242 67.6722 148.174 67.0591 147.474C65.7395 145.969 63.3974 144.237 60.7333 143.814C58.2301 143.417 55.1461 144.123 52.0052 148.037C51.4231 148.763 50.3644 148.878 49.6406 148.294C48.9168 147.711 48.8019 146.65 49.3841 145.925C53.1911 141.181 57.4306 139.877 61.2593 140.485C64.9269 141.067 67.9249 143.354 69.5863 145.249C70.1993 145.949 70.1305 147.014 69.4327 147.628Z" fill="#262626"/>
<path id="Main-1_6" fill-rule="evenodd" clip-rule="evenodd" d="M37.2569 148.758C36.559 149.372 35.4964 149.303 34.8834 148.604C33.5637 147.099 31.2217 145.367 28.5575 144.944C26.0544 144.547 22.9704 145.253 19.8295 149.167C19.2473 149.893 18.1887 150.008 17.4649 149.424C16.741 148.841 16.6262 147.78 17.2083 147.055C21.0153 142.311 25.2548 141.007 29.0835 141.615C32.7511 142.196 35.7491 144.484 37.4105 146.379C38.0235 147.079 37.9547 148.144 37.2569 148.758Z" fill="#262626"/>
<path id="Main-5" d="M116.555 175.682C118.084 176.865 120.282 176.584 121.465 175.055C122.647 173.526 122.366 171.328 120.837 170.145L116.083 166.468C127.37 163.821 136.02 159.871 142.772 155.193C150.988 149.501 156.231 142.846 159.99 136.5C160.975 134.837 160.425 132.69 158.762 131.705C157.099 130.72 154.952 131.27 153.967 132.933C150.594 138.627 145.99 144.448 138.786 149.439C132.744 153.625 124.757 157.307 113.929 159.781L116.883 153.421C117.697 151.668 116.936 149.586 115.183 148.772C113.43 147.958 111.349 148.719 110.535 150.472L104.687 163.06C103.999 164.542 104.428 166.303 105.72 167.303L116.555 175.682Z" fill="#29D305"/>
<path id="Main-5_2" d="M78.081 31.0772C79.1752 29.4837 81.354 29.079 82.9475 30.1732L94.2385 37.9264C95.5856 38.8515 96.1133 40.5857 95.5098 42.1043L90.3835 55.0029C89.6696 56.7992 87.6347 57.6767 85.8383 56.9628C84.042 56.2488 83.1645 54.2139 83.8785 52.4176L86.4686 45.9002C75.7977 48.9827 68.0317 53.1103 62.2359 57.6313C55.3256 63.0215 51.0579 69.0938 48.0124 74.9696C47.1229 76.6858 45.0106 77.3559 43.2944 76.4664C41.5782 75.5769 40.9081 73.4646 41.7976 71.7484C45.1918 65.1999 50.0498 58.259 57.9305 52.1118C64.4079 47.0593 72.8199 42.6266 83.9401 39.3462L78.985 35.9437C77.3915 34.8495 76.9868 32.6707 78.081 31.0772Z" fill="#29D305"/>
</g>
</svg>
