<svg width="213" height="200" viewBox="0 0 213 200"  xmlns="http://www.w3.org/2000/svg">
<g id="Name=Spotpris, Color=&#226;&#154;&#170;&#239;&#184;&#143; Grey">
<path id="Background-1" d="M204 100C204 155.228 159.228 200 104 200C48.7715 200 4 155.228 4 100C4 44.7715 48.7715 0 104 0C159.228 0 204 44.7715 204 100Z" fill="var(--background-1, #E9E9E9)"/>
<path id="Shade-2" d="M167.759 124.227C167.759 145.533 139.383 162.805 104.379 162.805C69.3759 162.805 41 145.533 41 124.227C41 117.2 40.9997 107.765 42.3778 106.315C53.3364 94.7839 80.92 85.6479 104.379 85.6479C130.544 85.6479 156.705 93.9207 166.381 107.693C167.759 109.071 167.759 118.846 167.759 124.227Z" fill="var(--shade-2, #E9E9E9)"/>
<path id="Main-2" d="M167.759 113.204C167.759 134.51 139.383 151.782 104.379 151.782C69.3759 151.782 41 134.51 41 113.204C41 91.8973 69.3759 74.625 104.379 74.625C139.383 74.625 167.759 91.8973 167.759 113.204Z" fill="var(--main-2, #FFFFFF)"/>
<path id="Shade-2_2" d="M167.759 105.891C167.759 127.197 139.383 144.469 104.379 144.469C69.3759 144.469 41 127.197 41 105.891C41 98.8639 40.9997 89.4291 42.3778 87.9792C53.3364 76.448 80.92 67.312 104.379 67.312C130.544 67.312 156.705 75.5847 166.381 89.357C167.759 90.7348 167.759 100.51 167.759 105.891Z" fill="var(--shade-2, #E9E9E9)"/>
<path id="Main-2_2" d="M167.759 94.8678C167.759 116.174 139.383 133.447 104.379 133.447C69.3759 133.447 41 116.174 41 94.8678C41 73.5613 69.3759 56.2891 104.379 56.2891C139.383 56.2891 167.759 73.5613 167.759 94.8678Z" fill="var(--main-2, #FFFFFF)"/>
<path id="Shade-2_3" d="M167.759 86.6022C167.759 107.909 139.383 125.181 104.379 125.181C69.3759 125.181 41 107.909 41 86.6022C41 79.5753 40.9997 70.1406 42.3778 68.6906C53.3364 57.1594 80.92 48.0234 104.379 48.0234C130.544 48.0234 156.705 56.2961 166.381 70.0684C167.759 71.4462 167.759 81.2219 167.759 86.6022Z" fill="var(--shade-2, #E9E9E9)"/>
<path id="Main-2_3" d="M167.759 75.5787C167.759 96.8852 139.383 114.157 104.379 114.157C69.3759 114.157 41 96.8852 41 75.5787C41 54.2723 69.3759 37 104.379 37C139.383 37 167.759 54.2723 167.759 75.5787Z" fill="var(--main-2, #FFFFFF)"/>
<g fill="var(--main-1, #262626)"  id="Main-1">
<path d="M103.412 98.8922C102.793 99.2495 101.79 99.2495 101.171 98.8922L64.4267 77.6778C63.8987 77.373 63.8109 76.8967 64.216 76.5345L69.5243 71.7884C70.072 71.2988 71.2624 71.2256 71.9763 71.6378L93.9616 84.331L93.7343 71.0362C93.7301 70.7904 93.8974 70.554 94.1985 70.3802L101.109 66.3903C102.104 65.8159 103.805 66.219 103.815 67.0312L103.963 80.0276L130.511 81.1044C131.866 81.1594 132.481 82.1094 131.52 82.6642L123.097 87.5275C122.77 87.7161 122.317 87.813 121.857 87.7929L98.1709 86.7613L110.177 93.6928C110.796 94.0502 110.796 94.6295 110.177 94.9868L103.412 98.8922Z" />
<path d="M136.582 79.7418C135.963 80.0991 134.96 80.0991 134.341 79.7418L107.283 64.1199C106.664 63.7626 106.664 63.1833 107.283 62.8259L114.047 58.9205C114.666 58.5632 115.67 58.5632 116.288 58.9205L118.103 59.9683C117.922 58.7511 118.166 57.5869 118.836 56.4756C119.505 55.3643 120.637 54.3487 122.23 53.4286C123.12 52.9578 123.879 52.6046 124.509 52.369C124.85 52.2212 125.197 52.1052 125.55 52.021C126.028 51.9068 126.56 52.0126 126.926 52.2241L132.44 55.4075C133.247 55.8737 132.967 56.6803 131.998 57.0286C131.846 57.0831 131.693 57.1399 131.54 57.1989C130.614 57.5203 129.762 57.9056 128.984 58.355C127.576 59.168 126.592 60.1195 126.034 61.2093C125.513 62.2777 125.454 63.3563 125.857 64.4451L143.346 74.5424C143.965 74.8997 143.965 75.4791 143.346 75.8364L136.582 79.7418Z" />
</g>
<path id="Main-1_2" fill-rule="evenodd" clip-rule="evenodd" d="M211.158 64.0104C212.809 65.4781 212.957 68.0064 211.49 69.6575C205.784 76.0763 200.213 83.179 194.508 90.4533C192.307 93.2591 190.086 96.0905 187.83 98.9179C179.814 108.964 171.415 118.871 162.303 126.632C153.18 134.402 143.087 140.244 131.649 141.795C120.122 143.359 107.775 140.494 94.3386 131.866C81.1659 123.406 70.0012 119.992 60.5754 119.598C51.1778 119.206 43.2034 121.802 36.3578 125.875C25.1646 132.534 17.2974 142.822 11.2994 150.664C9.78168 152.649 8.38365 154.477 7.08168 156.05C5.67321 157.752 3.15175 157.99 1.44984 156.582C-0.252071 155.173 -0.489945 152.652 0.91853 150.95C1.95149 149.702 3.14516 148.133 4.50444 146.347C10.4519 138.534 19.5698 126.554 32.2674 119C40.2343 114.26 49.7287 111.138 60.9092 111.605C72.0615 112.071 84.5843 116.094 98.6616 125.134C110.838 132.954 121.297 135.126 130.573 133.868C139.937 132.597 148.643 127.758 157.116 120.541C165.601 113.314 173.598 103.928 181.577 93.9282C183.734 91.2252 185.895 88.4696 188.063 85.7063C193.824 78.3603 199.629 70.959 205.51 64.3426C206.978 62.6915 209.506 62.5427 211.158 64.0104Z" fill="var(--main-1, #262626)"/>
<path id="Main-5" d="M181 121C181 131.217 172.717 139.5 162.5 139.5C152.283 139.5 144 131.217 144 121C144 110.783 152.283 102.5 162.5 102.5C172.717 102.5 181 110.783 181 121Z" fill="var(--main-5, #29D305)"/>
</g>
</svg>
