<svg width="204" height="204" viewBox="0 0 204 204" fill="none" xmlns="http://www.w3.org/2000/svg">
<g id="Name=Statistics, Color=&#226;&#154;&#170;&#239;&#184;&#143; Grey">
<path id="Background-1" d="M204 102C204 158.333 158.333 204 102 204C45.667 204 0 158.333 0 102C0 45.667 45.667 0 102 0C158.333 0 204 45.667 204 102Z" fill="var(--background-1, #E9E9E9)"/>
<path id="Main-2" d="M32.6875 110.551C32.6875 108.483 34.3634 106.808 36.4306 106.808H67.3114C69.3786 106.808 71.0545 108.483 71.0545 110.551V158.276C71.0545 160.343 69.3786 162.019 67.3114 162.019H36.4306C34.3634 162.019 32.6875 160.343 32.6875 158.276V110.551Z" fill="var(--main-2, #FFFFFF)"/>
<path id="Main-2_2" d="M82.2842 91.8349C82.2842 89.7676 83.96 88.0918 86.0273 88.0918H116.908C118.975 88.0918 120.651 89.7676 120.651 91.8349V158.275C120.651 160.343 118.975 162.018 116.908 162.018H86.0273C83.96 162.018 82.2842 160.343 82.2842 158.275V91.8349Z" fill="var(--main-2, #FFFFFF)"/>
<path id="Main-2_3" d="M131.881 70.312C131.881 68.2447 133.557 66.5688 135.624 66.5688H166.505C168.572 66.5688 170.248 68.2447 170.248 70.312V158.275C170.248 160.343 168.572 162.018 166.505 162.018H135.624C133.557 162.018 131.881 160.343 131.881 158.275V70.312Z" fill="var(--main-2, #FFFFFF)"/>
<g id="Main-5">
<path d="M122.968 139.922C122.968 140.439 122.549 140.858 122.032 140.858H118.757C118.24 140.858 117.821 140.439 117.821 139.922V133.694H111.551C111.034 133.694 110.615 133.275 110.615 132.758V129.524C110.615 129.007 111.034 128.588 111.551 128.588H117.821V122.524C117.821 122.008 118.24 121.589 118.757 121.589H122.032C122.549 121.589 122.968 122.008 122.968 122.524V128.588H129.196C129.713 128.588 130.132 129.007 130.132 129.524V132.758C130.132 133.275 129.713 133.694 129.196 133.694H122.968V139.922Z" fill="var(--main-5, #29D305)"/>
<path d="M154.954 117.101C155.47 117.101 155.889 117.52 155.889 118.036V133.982H158.536C159.052 133.982 159.471 134.401 159.471 134.918V138.605C159.471 139.122 159.052 139.541 158.536 139.541H155.889V144.987C155.889 145.504 155.47 145.923 154.954 145.923H150.155C149.638 145.923 149.219 145.504 149.219 144.987V139.541H133.932C133.415 139.541 132.996 139.122 132.996 138.605V134.502C132.996 134.273 133.08 134.052 133.232 133.881L147.828 117.416C148.006 117.215 148.261 117.101 148.528 117.101H154.954ZM140.614 133.982H149.219V124.306L140.614 133.982Z" fill="var(--main-5, #29D305)"/>
</g>
<path id="Main-1" fill-rule="evenodd" clip-rule="evenodd" d="M158.686 20.9547C159.766 22.0677 159.738 23.845 158.625 24.9244C118.826 63.5215 82.6392 73.0257 44.9676 80.0892C43.4437 80.3749 41.9767 79.3712 41.691 77.8473C41.4053 76.3234 42.409 74.8564 43.9329 74.5707C81.1237 67.5974 116.056 58.386 154.716 20.8938C155.829 19.8144 157.607 19.8417 158.686 20.9547Z" fill="var(--main-1, #262626)"/>
<path id="Main-1_2" d="M165.116 13.0464C167.077 12.7314 168.736 14.4961 168.3 16.4337L161.191 48.069C160.697 50.2656 157.949 51.0167 156.407 49.3763L131.502 22.8846C129.96 21.2443 130.879 18.5471 133.102 18.19L165.116 13.0464Z" fill="var(--main-1, #262626)"/>
</g>
</svg>
