<svg width="204" height="204" viewBox="0 0 204 204" fill="none" xmlns="http://www.w3.org/2000/svg">
<path d="M204 102C204 158.333 158.333 204 102 204C45.667 204 0 158.333 0 102C0 45.667 45.667 0 102 0C158.333 0 204 45.667 204 102Z" fill="#E9E9E9"/>
<path d="M33.6875 110.551C33.6875 108.483 35.3634 106.808 37.4306 106.808H68.3114C70.3786 106.808 72.0545 108.483 72.0545 110.551V158.276C72.0545 160.343 70.3786 162.019 68.3114 162.019H37.4306C35.3634 162.019 33.6875 160.343 33.6875 158.276V110.551Z" fill="white"/>
<path d="M83.2842 91.8349C83.2842 89.7676 84.96 88.0918 87.0273 88.0918H117.908C119.975 88.0918 121.651 89.7676 121.651 91.8349V158.275C121.651 160.343 119.975 162.018 117.908 162.018H87.0273C84.96 162.018 83.2842 160.343 83.2842 158.275V91.8349Z" fill="white"/>
<path d="M132.881 70.312C132.881 68.2447 134.557 66.5688 136.624 66.5688H167.505C169.572 66.5688 171.248 68.2447 171.248 70.312V158.275C171.248 160.343 169.572 162.018 167.505 162.018H136.624C134.557 162.018 132.881 160.343 132.881 158.275V70.312Z" fill="white"/>
<path d="M119.968 139.922C119.968 140.439 119.549 140.858 119.032 140.858H115.757C115.24 140.858 114.821 140.439 114.821 139.922V133.694H108.551C108.034 133.694 107.615 133.275 107.615 132.758V129.524C107.615 129.007 108.034 128.588 108.551 128.588H114.821V122.524C114.821 122.008 115.24 121.589 115.757 121.589H119.032C119.549 121.589 119.968 122.008 119.968 122.524V128.588H126.196C126.713 128.588 127.132 129.007 127.132 129.524V132.758C127.132 133.275 126.713 133.694 126.196 133.694H119.968V139.922Z" fill="#29D305"/>
<path d="M151.954 117.101C152.47 117.101 152.889 117.52 152.889 118.036V133.982H155.536C156.052 133.982 156.471 134.401 156.471 134.918V138.605C156.471 139.122 156.052 139.541 155.536 139.541H152.889V144.987C152.889 145.504 152.47 145.923 151.954 145.923H147.155C146.638 145.923 146.219 145.504 146.219 144.987V139.541H130.932C130.415 139.541 129.996 139.122 129.996 138.605V134.502C129.996 134.273 130.08 134.052 130.232 133.881L144.828 117.416C145.006 117.215 145.261 117.101 145.528 117.101H151.954ZM137.614 133.982H146.219V124.306L137.614 133.982Z" fill="#29D305"/>
<path fill-rule="evenodd" clip-rule="evenodd" d="M158.686 20.9547C159.766 22.0677 159.738 23.845 158.625 24.9244C118.826 63.5215 82.6392 73.0257 44.9676 80.0892C43.4437 80.3749 41.9767 79.3712 41.691 77.8473C41.4053 76.3234 42.409 74.8564 43.9329 74.5707C81.1237 67.5974 116.056 58.386 154.716 20.8938C155.829 19.8144 157.607 19.8417 158.686 20.9547Z" fill="#262626"/>
<path d="M165.116 13.0464C167.077 12.7314 168.736 14.4961 168.3 16.4337L161.191 48.069C160.697 50.2656 157.949 51.0167 156.407 49.3763L131.502 22.8846C129.96 21.2443 130.879 18.5471 133.102 18.19L165.116 13.0464Z" fill="#262626"/>
</svg>
