<svg width="204" height="204" viewBox="0 0 204 204" fill="none" xmlns="http://www.w3.org/2000/svg">
<g id="Name=Support, Color=&#226;&#154;&#170;&#239;&#184;&#143; Grey">
<path id="Background-1" d="M204 102C204 158.333 158.333 204 102 204C45.667 204 0 158.333 0 102C0 45.667 45.667 0 102 0C158.333 0 204 45.667 204 102Z" fill="var(--background-1, #E9E9E9)"/>
<g id="Hand">
<path id="Shade-4" d="M107.971 162.771L106.944 160.46C106.674 159.851 105.975 159.558 105.351 159.792C103.969 160.31 102.975 158.439 104.179 157.585L147.083 127.153C149.465 125.464 152.668 125.521 154.987 127.295C158.479 129.966 158.474 135.227 154.975 137.891L121.985 163.002C120.186 164.371 117.988 165.113 115.727 165.113L111.575 165.113C110.017 165.113 108.604 164.195 107.971 162.771Z" fill="var(--shade-4, #BDBDBD)"/>
<path id="Shade-4_2" d="M121.996 160.221L120.969 157.91C120.698 157.301 119.999 157.008 119.375 157.242C117.993 157.76 117 155.888 118.204 155.034L161.108 124.602C163.489 122.914 166.692 122.971 169.011 124.744C172.504 127.415 172.498 132.677 168.999 135.34L136.01 160.452C134.211 161.821 132.012 162.562 129.752 162.562L125.6 162.562C124.041 162.562 122.629 161.645 121.996 160.221Z" fill="var(--shade-4, #BDBDBD)"/>
<path id="Shade-3" fill-rule="evenodd" clip-rule="evenodd" d="M9.44727 144.935C15.2368 144.937 21.8491 144.937 22.5599 144.932H38.8588L52.5492 133.906C58.7222 128.943 66.4264 126.235 74.3713 126.237H121.478C122.85 126.237 124.206 126.533 125.451 127.106C126.695 127.679 127.799 128.515 128.686 129.554C129.572 130.594 130.219 131.813 130.582 133.126C130.945 134.439 131.015 135.815 130.787 137.158C130.016 141.757 125.673 144.932 120.963 144.932H97.9274C96.6781 144.932 95.4799 145.425 94.5965 146.302C93.7131 147.178 93.2168 148.367 93.2168 149.607C93.2168 150.847 93.7131 152.036 94.5965 152.913C95.4799 153.789 96.6781 154.282 97.9274 154.282H133.437L168.67 128.519C169.913 127.605 171.327 126.944 172.829 126.574C174.33 126.203 175.891 126.131 177.421 126.361C178.951 126.591 180.42 127.118 181.744 127.913C183.068 128.708 184.221 129.755 185.136 130.993C186.984 133.487 187.759 136.606 187.291 139.667C186.824 142.727 185.152 145.478 182.643 147.317L142.888 176.407C137.617 180.24 131.257 182.314 124.722 182.329H39.1285C26.5084 172.438 16.278 159.636 9.44727 144.935Z" fill="var(--shade-3, #D3D3D3)"/>
</g>
<g id="Coin">
<g id="Group 3196">
<path id="Shade-2" d="M135.869 94.5543C135.869 105.605 121.151 114.563 102.997 114.563C84.8422 114.563 70.125 105.605 70.125 94.5543C70.125 90.9098 70.1249 86.0165 70.8396 85.2645C76.5233 79.2838 90.8296 74.5454 102.997 74.5454C116.567 74.5454 130.136 78.8361 135.154 85.9791C135.869 86.6937 135.869 91.7638 135.869 94.5543Z" fill="var(--shade-2, #E9E9E9)"/>
<path id="Main-2" d="M135.869 88.8375C135.869 99.8881 121.151 108.846 102.997 108.846C84.8422 108.846 70.125 99.8881 70.125 88.8375C70.125 77.7869 84.8422 68.8286 102.997 68.8286C121.151 68.8286 135.869 77.7869 135.869 88.8375Z" fill="var(--main-2, #FFFFFF)"/>
</g>
<g id="Group 3197">
<path id="Shade-2_2" d="M135.869 84.5509C135.869 95.6015 121.151 104.56 102.997 104.56C84.8422 104.56 70.125 95.6015 70.125 84.5509C70.125 80.9064 70.1249 76.0131 70.8396 75.261C76.5233 69.2804 90.8296 64.542 102.997 64.542C116.567 64.542 130.136 68.8326 135.154 75.9756C135.869 76.6903 135.869 81.7604 135.869 84.5509Z" fill="var(--shade-2, #E9E9E9)"/>
<path id="Main-2_2" d="M135.869 78.8341C135.869 89.8847 121.151 98.843 102.997 98.843C84.8422 98.843 70.125 89.8847 70.125 78.8341C70.125 67.7835 84.8422 58.8252 102.997 58.8252C121.151 58.8252 135.869 67.7835 135.869 78.8341Z" fill="var(--main-2, #FFFFFF)"/>
</g>
<g id="Main-1" fill="var(--main-1, #262626)">
<path d="M102.496 90.9259C102.175 91.1113 101.655 91.1113 101.334 90.9259L82.2761 79.9231C82.0022 79.765 81.9567 79.5179 82.1668 79.3301L84.9199 76.8685C85.204 76.6146 85.8214 76.5766 86.1917 76.7904L97.5944 83.3737L97.4765 76.4784C97.4743 76.3509 97.5611 76.2283 97.7172 76.1381L101.301 74.0688C101.817 73.7709 102.7 73.9799 102.705 74.4012L102.782 81.1418L116.551 81.7003C117.254 81.7288 117.573 82.2215 117.074 82.5092L112.705 85.0316C112.536 85.1294 112.301 85.1797 112.062 85.1693L99.7775 84.6342L106.004 88.2293C106.325 88.4146 106.325 88.7151 106.004 88.9004L102.496 90.9259Z" fill="var(--main-1, #262626)"/>
<path d="M119.699 80.9935C119.378 81.1789 118.858 81.1789 118.537 80.9935L104.503 72.8912C104.182 72.7059 104.182 72.4054 104.503 72.2201L108.012 70.1946C108.333 70.0092 108.853 70.0092 109.174 70.1946L110.115 70.738C110.022 70.1067 110.148 69.5029 110.495 68.9265C110.843 68.3501 111.429 67.8234 112.256 67.3462C112.717 67.102 113.111 66.9188 113.438 66.7966C113.614 66.72 113.794 66.6598 113.977 66.6161C114.226 66.5569 114.501 66.6117 114.691 66.7215L117.551 68.3725C117.97 68.6143 117.825 69.0327 117.322 69.2133C117.243 69.2416 117.164 69.2711 117.085 69.3017C116.604 69.4683 116.162 69.6682 115.759 69.9012C115.028 70.3229 114.518 70.8164 114.229 71.3816C113.958 71.9358 113.928 72.4952 114.137 73.0599L123.208 78.2969C123.529 78.4822 123.529 78.7827 123.208 78.968L119.699 80.9935Z" fill="var(--main-1, #262626)"/>
</g>
</g>
<path id="Main-5" fill-rule="evenodd" clip-rule="evenodd" d="M44 69C44 68.1716 43.3284 67.5 42.5 67.5C41.6716 67.5 41 68.1716 41 69C41 73.6334 40.1025 79.5418 36.9405 84.248C33.8452 88.8549 28.4563 92.5 19 92.5C18.1883 92.5 17.5238 93.1457 17.5006 93.9571C17.4774 94.7685 18.1039 95.4512 18.9143 95.4976C22.4601 95.7004 28.0058 96.6235 32.6305 99.9359C37.1647 103.183 41 108.858 41 119C41 119.828 41.6716 120.5 42.5 120.5C43.3284 120.5 44 119.828 44 119C44 114.522 45.5602 108.78 49.1112 104.098C52.6269 99.4613 58.1008 95.8453 66.0653 95.4986C66.8929 95.4626 67.5346 94.7624 67.4986 93.9348C67.4626 93.1071 66.7624 92.4654 65.9348 92.5014C61.7069 92.6855 56.2271 91.966 51.8389 88.7112C47.5292 85.5145 44 79.6672 44 69Z" fill="var(--main-5, #29D305)"/>
<path id="Main-5_2" d="M111 17C111 16.1716 110.328 15.5 109.5 15.5C108.672 15.5 108 16.1716 108 17C108 19.7155 107.456 23.1171 105.604 25.7981C103.817 28.3842 100.677 30.5 95 30.5C94.1878 30.5 93.5232 31.1464 93.5006 31.9583C93.478 32.7702 94.1057 33.4526 94.9167 33.4977C97.0616 33.617 100.363 34.1602 103.092 36.0607C105.726 37.8954 108 41.1108 108 47C108 47.8284 108.672 48.5 109.5 48.5C110.328 48.5 111 47.8284 111 47C111 44.4444 111.921 41.1345 114.025 38.4371C116.092 35.7855 119.318 33.6996 124.063 33.4987C124.891 33.4636 125.534 32.7642 125.499 31.9366C125.464 31.1089 124.764 30.4663 123.937 30.5013C121.389 30.6092 118.151 30.1815 115.588 28.333C113.111 26.5462 111 23.2393 111 17Z" fill="var(--main-5, #29D305)"/>
<path id="Main-5_3" fill-rule="evenodd" clip-rule="evenodd" d="M164 62C164 61.1716 163.328 60.5 162.5 60.5C161.672 60.5 161 61.1716 161 62C161 64.1439 160.573 66.7976 159.151 68.8729C157.796 70.852 155.406 72.5 151 72.5C150.188 72.5 149.523 73.1462 149.501 73.958C149.478 74.7697 150.105 75.4521 150.916 75.4976C152.59 75.5916 155.14 76.0193 157.235 77.4912C159.237 78.8976 161 81.3759 161 86C161 86.8284 161.672 87.5 162.5 87.5C163.328 87.5 164 86.8284 164 86C164 84.0147 164.712 81.431 166.337 79.3292C167.926 77.2734 170.401 75.655 174.064 75.4986C174.892 75.4633 175.534 74.7637 175.499 73.936C175.463 73.1083 174.764 72.466 173.936 72.5014C171.953 72.586 169.468 72.2473 167.515 70.8267C165.646 69.4668 164 66.9208 164 62Z" fill="var(--main-5, #29D305)"/>
</g>
</svg>
