<svg width="204" height="204" viewBox="0 0 204 204" fill="none" xmlns="http://www.w3.org/2000/svg">
<g id="Name=Unplugged, Color=&#226;&#154;&#170;&#239;&#184;&#143; Grey">
<path id="Background-1" d="M204 102C204 158.333 158.333 204 102 204C45.667 204 0 158.333 0 102C0 45.667 45.667 0 102 0C158.333 0 204 45.667 204 102Z" fill="var(--background-1, #E9E9E9)"/>
<path id="Main-2" d="M51 67C51 58.1634 58.1634 51 67 51H136C144.837 51 152 58.1634 152 67V136C152 144.837 144.837 152 136 152H67C58.1634 152 51 144.837 51 136V67Z" fill="var(--main-2, #FFFFFF)"/>
<path id="Shade-2" d="M137.954 101.5C137.954 121.633 121.633 137.953 101.5 137.953C81.3677 137.953 65.0469 121.633 65.0469 101.5C65.0469 81.3672 81.3677 65.0464 101.5 65.0464C121.633 65.0464 137.954 81.3672 137.954 101.5Z" fill="var(--shade-2, #E9E9E9)"/>
<path id="Main-5" d="M91.4707 101.5C91.4707 104.261 89.2321 106.5 86.4707 106.5C83.7093 106.5 81.4707 104.261 81.4707 101.5C81.4707 98.7386 83.7093 96.5 86.4707 96.5C89.2321 96.5 91.4707 98.7386 91.4707 101.5Z" fill="var(--main-5, #29D305)"/>
<path id="Main-5_2" d="M121.471 101.5C121.471 104.261 119.232 106.5 116.471 106.5C113.709 106.5 111.471 104.261 111.471 101.5C111.471 98.7386 113.709 96.5 116.471 96.5C119.232 96.5 121.471 98.7386 121.471 101.5Z" fill="var(--main-5, #29D305)"/>
<path id="Main-1" d="M159.285 137.042C161.071 137.009 162.535 138.432 162.556 140.223C162.576 142.013 161.145 143.493 159.359 143.526L134.992 143.99L134.918 137.506L159.285 137.042Z" fill="var(--main-1, #262626)"/>
<path id="Main-1_2" d="M159.936 163.552C161.721 163.518 163.186 164.942 163.206 166.733C163.227 168.523 161.796 170.002 160.01 170.036L135.642 170.5L135.568 164.016L159.936 163.552Z" fill="var(--main-1, #262626)"/>
<path id="Main-1_3" d="M140.447 127.022C138.755 125.372 136.473 124.467 134.103 124.509L113.436 124.868C105.585 125.005 98.0859 128.263 92.5891 133.926C90.388 136.193 88.5801 138.772 87.2084 141.555L78.9637 141.568C77.0524 141.572 75.2149 142.336 73.8555 143.693C72.4961 145.051 71.7262 146.89 71.715 148.807L71.65 159.951C71.6389 161.868 72.3874 163.705 73.731 165.058C75.0746 166.411 76.9032 167.169 78.8145 167.166L86.8309 167.153C88.3225 170.394 90.4027 173.365 93.0014 175.9C98.6075 181.37 106.168 184.366 114.019 184.229L134.686 183.869C137.056 183.828 139.319 182.845 140.978 181.136C142.637 179.427 143.556 177.132 143.533 174.756L143.126 133.311C143.102 130.935 142.139 128.673 140.447 127.022Z" fill="var(--main-1, #262626)"/>
<path id="Main-1_4" fill-rule="evenodd" clip-rule="evenodd" d="M38.694 153.509C51.875 150.925 64.566 151.073 72.3033 152.019C73.6738 152.186 74.649 153.433 74.4815 154.804C74.314 156.174 73.0672 157.149 71.6967 156.982C64.434 156.094 52.275 155.942 39.656 158.416C27.0123 160.895 14.2056 165.951 5.30421 175.231C4.34844 176.227 2.76587 176.26 1.76944 175.304C0.773006 174.349 0.740036 172.766 1.6958 171.77C11.5944 161.45 25.5377 156.089 38.694 153.509Z" fill="var(--main-1, #262626)"/>
</g>
</svg>
