<svg width="205" height="204" viewBox="0 0 205 204" fill="none" xmlns="http://www.w3.org/2000/svg">
<g id="Name=User, Color=&#226;&#154;&#170;&#239;&#184;&#143; Grey">
<path id="Ellipse 348" d="M204.374 102C204.374 158.333 158.707 204 102.374 204C46.041 204 0.374023 158.333 0.374023 102C0.374023 45.667 46.041 0 102.374 0C158.707 0 204.374 45.667 204.374 102Z" fill="var(--background-1, #E9E9E9)"/>
<path id="Union" d="M111.213 120.035C110.846 120.011 110.812 119.338 111.171 119.264C131.611 115.027 146.974 96.8848 146.974 75.1461C146.974 50.2647 126.746 30.9043 101.919 30.9043C77.0912 30.9043 57.0654 50.2647 57.0654 75.1461C57.0654 96.7158 72.191 114.745 92.3924 119.162C92.7517 119.241 92.709 119.919 92.3417 119.938C84.3045 120.37 77.9418 121.306 73.1354 122.169C73.0975 122.176 73.0675 122.204 73.0573 122.241L71.5731 127.625C71.5602 127.672 71.5828 127.722 71.6267 127.742L98.9927 140.707C99.0123 140.716 99.0343 140.719 99.0555 140.715L125.967 135.221C125.986 135.217 126.003 135.208 126.016 135.195L134.903 126.762C134.936 126.73 134.944 126.681 134.922 126.641L132.476 122.182C132.46 122.152 132.43 122.133 132.397 122.13C130.371 121.96 128.027 121.694 125.431 121.4C121.253 120.926 116.422 120.379 111.213 120.035Z" fill="var(--shade-1, #F4F4F4)"/>
<path id="Vector 1105" d="M56.9844 72.8466C57.8655 56.9528 64.9143 30.0948 103.02 30.0947C119.101 30.7872 144.136 36.4376 148.176 72.8466C132.757 72.8466 108.528 71.5222 103.02 43.2665C103.015 43.2235 103.01 43.1782 103.005 43.1305C102.812 41.6721 101.606 41.8006 101.067 42.9898C96.2691 59.7576 82.9763 72.8466 56.9844 72.8466Z" fill="var(--main-1, #262626)"/>
<g fill="var(--main-1, #262626)" id="Group 3315">
<path id="Vector 1106 (Stroke)" fill-rule="evenodd" clip-rule="evenodd" d="M129.725 84.1886C128.994 84.8323 127.88 84.7601 127.238 84.0273C125.855 82.4499 123.401 80.6354 120.61 80.1925C117.987 79.7764 114.756 80.5166 111.465 84.6173C110.855 85.3774 109.746 85.498 108.988 84.8867C108.229 84.2755 108.109 83.1638 108.719 82.4038C112.708 77.4334 117.15 76.0675 121.161 76.704C125.004 77.3137 128.145 79.7104 129.886 81.6964C130.528 82.4291 130.456 83.545 129.725 84.1886Z" />
<path id="Vector 1107 (Stroke)" fill-rule="evenodd" clip-rule="evenodd" d="M96.0159 85.3722C95.2847 86.0159 94.1713 85.9437 93.529 85.2109C92.1463 83.6335 89.6925 81.819 86.901 81.3761C84.2784 80.96 81.0471 81.7002 77.7562 85.8009C77.1463 86.5609 76.0371 86.6816 75.2787 86.0703C74.5203 85.4591 74.4 84.3474 75.0099 83.5874C78.9987 78.617 83.4407 77.2511 87.4521 77.8876C91.2949 78.4973 94.4361 80.894 96.1768 82.88C96.8191 83.6127 96.7471 84.7286 96.0159 85.3722Z" />
</g>
<path id="Subtract" d="M73.1114 122.174C73.1114 124.841 83.2359 132.829 99.2197 132.829C115.203 132.829 133.141 126.668 131.407 122.102C153.786 123.886 164.446 135.491 166.874 181C166.874 181 143.874 204 102.874 204C61.874 204 39.3148 182.2 39.3148 182.2C38.8763 156.124 42.9848 125.346 73.1114 122.174Z" fill="var(--main-2, #FFFFFF)"/>
</g>
</svg>
