<svg width="204" height="204" viewBox="0 0 204 204" fill="none" xmlns="http://www.w3.org/2000/svg">
<g id="Name=Waiting, Color=&#226;&#154;&#170;&#239;&#184;&#143; Grey">
<path id="Background-1" d="M204 102C204 158.333 158.333 204 102 204C45.667 204 0 158.333 0 102C0 45.667 45.667 0 102 0C158.333 0 204 45.667 204 102Z" fill="#E9E9E9"/>
<g id="Group 3223">
<path id="Background-1_2" d="M150.821 111.367C150.821 139.454 128.073 162.222 100.012 162.222C71.951 162.222 49.2031 139.454 49.2031 111.367C49.2031 83.2812 71.951 60.5127 100.012 60.5127C128.073 60.5127 150.821 83.2812 150.821 111.367Z" fill="#E9E9E9"/>
<path id="Main-1" d="M159.939 112.483C159.939 145.633 133.09 172.506 99.9695 172.506C66.8492 172.506 40 145.633 40 112.483C40 79.3325 66.8492 52.459 99.9695 52.459C133.09 52.459 159.939 79.3325 159.939 112.483Z" fill="#262626"/>
<path id="Main-1_2" d="M140.127 68.8341L145.274 64.623L150.421 70.2377L145.274 74.4487L140.127 68.8341Z" fill="#262626"/>
<path id="Main-1_3" d="M144.463 53.9459C146 52.5632 148.366 52.6892 149.747 54.2273L161.022 66.7823C162.403 68.3203 162.277 70.6881 160.74 72.0707L158.257 74.3044C156.721 75.687 154.355 75.561 152.974 74.0229L141.699 61.468C140.318 59.9299 140.444 57.5622 141.981 56.1796L144.463 53.9459Z" fill="#262626"/>
<path id="Main-1_4" d="M81.1758 34.7431C81.1758 32.6759 82.8516 31 84.9189 31H115.539C117.607 31 119.282 32.6759 119.282 34.7431V41.7847C119.282 43.8519 117.607 45.5278 115.539 45.5278H84.9189C82.8516 45.5278 81.1758 43.8519 81.1758 41.7847V34.7431Z" fill="#262626"/>
<path id="Main-1_5" d="M95.2129 52.8841V45.2559H105.375V52.8841H95.2129Z" fill="#262626"/>
<path id="Shade-1" d="M149.362 112.598C149.362 139.825 127.289 161.898 100.062 161.898C72.8341 161.898 50.7617 139.825 50.7617 112.598C50.7617 85.3702 72.8341 63.2979 100.062 63.2979C127.289 63.2979 149.362 85.3702 149.362 112.598Z" fill="#F4F4F4"/>
<path id="Main-5" fill-rule="evenodd" clip-rule="evenodd" d="M90.6942 84.4681C89.7327 82.3112 87.2051 81.3433 85.049 82.3061C82.8932 83.2687 81.9249 85.7969 82.8862 87.9533L97.3565 120.415C97.4007 120.518 97.4492 120.619 97.5019 120.719C98.4546 122.53 100.554 123.399 102.491 122.826C103.018 122.671 103.523 122.412 103.971 122.049C104.054 121.982 104.133 121.913 104.21 121.841L104.212 121.839L121.051 106.186C122.78 104.578 122.879 101.873 121.271 100.144C119.664 98.4142 116.959 98.3155 115.229 99.923L102.753 111.521L90.6942 84.4681ZM102.491 122.826L102.489 122.826L102.208 121.867L102.492 122.825L102.491 122.826ZM98.2724 120.014L97.3592 120.422L97.3565 120.415L97.3535 120.408L98.2724 120.014ZM98.3867 120.254L97.5029 120.721L97.5019 120.719L98.3867 120.254Z" fill="#29D305"/>
</g>
</g>
</svg>
