<svg width="40" height="40" viewBox="0 0 40 40" fill="none" xmlns="http://www.w3.org/2000/svg">
<path fill-rule="evenodd" clip-rule="evenodd" d="M16.8088 7.87498C16.8088 6.01102 18.3198 4.49999 20.1837 4.49999C22.0477 4.49999 23.5587 6.01102 23.5587 7.87498C23.5587 9.73893 22.0477 11.25 20.1837 11.25C18.3198 11.25 16.8088 9.73893 16.8088 7.87498ZM20.1837 2.25C17.0772 2.25 14.5588 4.76839 14.5588 7.87498C14.5588 10.9816 17.0772 13.5 20.1837 13.5C23.2903 13.5 25.8087 10.9816 25.8087 7.87498C25.8087 4.76839 23.2903 2.25 20.1837 2.25ZM20.125 13.5001C18.0364 13.5001 16.0334 14.3298 14.5565 15.8066C13.0797 17.2835 12.25 19.2865 12.25 21.3751V25.8751C12.25 26.4964 12.7537 27.0001 13.375 27.0001H14.6069L15.6306 37.2369C15.6881 37.812 16.172 38.25 16.75 38.25H23.4999C24.0779 38.25 24.5618 37.812 24.6194 37.2369L25.643 27.0001H26.8749C27.4963 27.0001 27.9999 26.4964 27.9999 25.8751V21.3751C27.9999 19.2865 27.1702 17.2835 25.6934 15.8066C24.2166 14.3298 22.2135 13.5001 20.125 13.5001ZM16.1475 17.3976C17.2024 16.3427 18.6331 15.7501 20.125 15.7501C21.6168 15.7501 23.0475 16.3427 24.1024 17.3976C25.1573 18.4525 25.7499 19.8832 25.7499 21.3751V24.7501H24.6249C24.047 24.7501 23.563 25.188 23.5055 25.7631L22.4818 36H17.7681L16.7444 25.7631C16.6869 25.188 16.203 24.7501 15.625 24.7501H14.5V21.3751C14.5 19.8832 15.0926 18.4525 16.1475 17.3976Z" fill="black"/>
<path fill-rule="evenodd" clip-rule="evenodd" d="M38.8355 11.3727C38.9319 10.7075 38.8391 10.0251 38.5702 9.42228C38.3671 8.96711 38.0705 8.57253 37.7048 8.27104C37.339 7.96955 36.9146 7.76979 36.4664 7.68822C36.0183 7.60664 35.5592 7.64559 35.1271 7.80186C34.6951 7.95812 34.3022 8.2273 33.9811 8.58707L33.7499 8.84621L33.5187 8.58707C33.1977 8.22727 32.8049 7.95813 32.3729 7.80185C31.9408 7.64557 31.4818 7.60662 31.0337 7.6882C30.5856 7.76979 30.1612 7.96957 29.7955 8.27109C29.4299 8.57254 29.1334 8.96705 28.9305 9.4221C28.6612 10.0248 28.5681 10.7071 28.6643 11.3724C28.7602 12.0355 29.0393 12.648 29.4621 13.1238L33.339 17.6569C33.4464 17.7824 33.5948 17.8533 33.7499 17.8533C33.905 17.8533 34.0534 17.7824 34.1608 17.6569L38.0377 13.1237C38.4604 12.648 38.7395 12.0356 38.8355 11.3727ZM32.0233 9.01603C31.7629 8.92184 31.4863 8.89837 31.2162 8.94753C30.9462 8.9967 30.6904 9.1171 30.47 9.29881C30.2496 9.48052 30.0709 9.71834 29.9486 9.99266C29.7864 10.3558 29.73 10.7675 29.788 11.1683C29.846 11.5692 30.0151 11.9394 30.2714 12.2265L30.2799 12.2363L33.7499 16.2936L37.2199 12.2363L37.2284 12.2265C37.4847 11.9394 37.6538 11.5691 37.7119 11.1682C37.77 10.7673 37.714 10.3561 37.552 9.9928C37.4296 9.71844 37.2508 9.48058 37.0304 9.29886C36.8099 9.11713 36.5541 8.99672 36.2839 8.94755C36.0138 8.89838 35.7371 8.92186 35.4767 9.01605C35.2163 9.11023 34.9796 9.27241 34.786 9.48923L34.1524 10.1994C34.0456 10.3191 33.9009 10.3863 33.7499 10.3863C33.599 10.3863 33.4542 10.3191 33.3475 10.1994L32.7138 9.48923C32.5203 9.2724 32.2837 9.11021 32.0233 9.01603Z" fill="#29D305"/>
<path fill-rule="evenodd" clip-rule="evenodd" d="M30.9693 7.29736C31.4804 7.20431 32.0038 7.24885 32.4957 7.42679C32.9677 7.59751 33.3963 7.88576 33.7499 8.26723C34.1036 7.88579 34.5323 7.59749 35.0043 7.42678C35.4963 7.24887 36.0197 7.20433 36.5308 7.29737C37.0419 7.3904 37.524 7.61789 37.9377 7.95894C38.3513 8.29987 38.6846 8.74424 38.9119 9.25392C39.2129 9.92863 39.3162 10.6904 39.2087 11.4324C39.1017 12.1705 38.791 12.856 38.3161 13.3916L34.4415 17.922C34.2654 18.1279 34.0163 18.25 33.7499 18.25C33.4835 18.25 33.2344 18.1279 33.0583 17.922L29.1838 13.3917C28.7087 12.856 28.3979 12.1703 28.2912 11.432C28.1839 10.69 28.2874 9.92815 28.5888 9.2536M30.9693 7.29736C30.4583 7.3904 29.9762 7.61793 29.5625 7.95902L30.9693 7.29736ZM29.5625 7.95902C29.1491 8.29985 28.816 8.74414 28.5888 9.2536L29.5625 7.95902ZM31.9004 9.39109C31.6999 9.31856 31.4877 9.30068 31.2807 9.33838C31.0735 9.37609 30.8754 9.46875 30.703 9.61089C30.5305 9.75314 30.3884 9.94115 30.2904 10.1609C30.1603 10.4522 30.1143 10.7848 30.1612 11.1087C30.208 11.4327 30.3443 11.7284 30.5466 11.9551L30.5494 11.9582L30.5606 11.9711L33.7499 15.7002L36.9419 11.968L36.9531 11.9552C37.1555 11.7284 37.2918 11.4326 37.3388 11.1085C37.3857 10.7843 37.3402 10.4526 37.2102 10.1612C37.1122 9.94132 36.97 9.75324 36.7974 9.61096C36.625 9.4688 36.4268 9.37612 36.2195 9.3384C36.0124 9.30069 35.8001 9.31858 35.5995 9.39113C35.3988 9.4637 35.214 9.58952 35.0614 9.76054L34.4277 10.4708C34.2523 10.6673 34.0091 10.7829 33.7499 10.7829C33.4907 10.7829 33.2475 10.6673 33.0721 10.4708L32.4385 9.76055C32.2858 9.58951 32.1011 9.46367 31.9004 9.39109Z" fill="#29D305"/>
<path d="M28.5888 9.2536L30.5943 9.06633L30.9693 7.29736L29.5625 7.95902L28.5888 9.2536Z" fill="#29D305"/>
</svg>
