<svg width="24" height="24" viewBox="0 0 24 24" fill="none" xmlns="http://www.w3.org/2000/svg">
<path d="M12.8924 8.32371H9.64746V9.29718H11.9189V10.3788H9.64746V11.3523H11.9189V12.6502H9.64746V13.6237H12.8924V8.32371Z" fill="black"/>
<path d="M8.13162 12.6502H5.86019V11.3523H8.13162V8.3237H4.88672V9.29717H7.15815V10.3788H4.88672V13.6237H8.13162V12.6502Z" fill="black"/>
<path d="M17.4373 10.3788H15.3822V9.29718H17.4373V8.32371H14.4088V11.3523H16.4639L15.9107 11.5074L16.4005 11.7523H16.6454L16.8903 11.5074L17.4373 10.3788Z" fill="black"/>
<path d="M2.25 21C1.009 21 0 19.991 0 18.75V2.25C0 1.009 1.009 0 2.25 0H20.25C21.491 0 22.5 1.009 22.5 2.25V8.25C22.5 8.664 22.164 9 21.75 9C21.336 9 21 8.664 21 8.25V6H1.5V18.75C1.5 19.164 1.836 19.5 2.25 19.5H8.25C8.664 19.5 9 19.836 9 20.25C9 20.664 8.664 21 8.25 21H2.25ZM21 4.5V2.25C21 1.836 20.664 1.5 20.25 1.5H2.25C1.836 1.5 1.5 1.836 1.5 2.25V4.5H21Z" fill="black"/>
<path d="M17.25 24.0001C13.528 24.0001 10.5 20.9721 10.5 17.2501C10.5 13.5281 13.528 10.5001 17.25 10.5001C20.972 10.5001 24 13.5281 24 17.2501C24 20.9721 20.972 24.0001 17.25 24.0001ZM17.25 12.0001C14.355 12.0001 12 14.3551 12 17.2501C12 20.1451 14.355 22.5001 17.25 22.5001C20.145 22.5001 22.5 20.1451 22.5 17.2501C22.5 14.3551 20.145 12.0001 17.25 12.0001Z" fill="black"/>
<path d="M17.25 21.0001C16.836 21.0001 16.5 20.6641 16.5 20.2501V18.0001H14.25C13.836 18.0001 13.5 17.6641 13.5 17.2501C13.5 16.8361 13.836 16.5001 14.25 16.5001H16.5V14.2501C16.5 13.8361 16.836 13.5001 17.25 13.5001C17.664 13.5001 18 13.8361 18 14.2501V16.5001H20.25C20.664 16.5001 21 16.8361 21 17.2501C21 17.6641 20.664 18.0001 20.25 18.0001H18V20.2501C18 20.6641 17.663 21.0001 17.25 21.0001Z" fill="black"/>
</svg>
