<svg width="24" height="25" viewBox="0 0 24 25" fill="none" xmlns="http://www.w3.org/2000/svg">
<path fill-rule="evenodd" clip-rule="evenodd" d="M0 12.0138C0 18.6384 5.383 24.0276 12 24.0276C18.617 24.0276 24 18.6384 24 12.0138C24 5.38919 18.617 0 12 0C5.383 0 0 5.38919 0 12.0138ZM11.25 16.519C11.25 16.9334 11.586 17.2698 12 17.2698C12.414 17.2698 12.75 16.9334 12.75 16.519V12.7647H16.5C16.914 12.7647 17.25 12.4283 17.25 12.0138C17.25 11.5993 16.914 11.2629 16.5 11.2629H12.75V7.50862C12.75 7.09415 12.414 6.75776 12 6.75776C11.586 6.75776 11.25 7.09415 11.25 7.50862V11.2629H7.5C7.086 11.2629 6.75 11.5993 6.75 12.0138C6.75 12.4283 7.086 12.7647 7.5 12.7647H11.25V16.519Z" fill="black"/>
</svg>
