<svg width="24" height="25" fill="none" xmlns="http://www.w3.org/2000/svg"><path d="M12 17.41a.75.75 0 01-.75-.752v-3.754H7.5a.75.75 0 010-1.502h3.75V7.648a.75.75 0 111.5 0v3.754h3.75a.75.75 0 010 1.502h-3.75v3.754a.75.75 0 01-.75.751z" fill="#1B314B"/><path d="M12 24.167c-6.617 0-12-5.39-12-12.014S5.383.14 12 .14s12 5.39 12 12.014c0 6.625-5.383 12.014-12 12.014zM12 1.64c-5.79 0-10.5 4.716-10.5 10.512 0 5.797 4.71 10.512 10.5 10.512s10.5-4.715 10.5-10.512C22.5 6.356 17.79 1.64 12 1.64z" fill="#FFB65C"/></svg>