<svg width="24" height="25" viewBox="0 0 24 25" fill="none" xmlns="http://www.w3.org/2000/svg">
<path d="M12.8924 8.32652H9.64746V9.29998H11.9189V10.3816H9.64746V11.3551H11.9189V12.653H9.64746V13.6265H12.8924V8.32652Z" fill="black"/>
<path d="M8.13162 12.653H5.86019V11.3551H8.13162V8.32651H4.88672V9.29998H7.15815V10.3816H4.88672V13.6265H8.13162V12.653Z" fill="black"/>
<path d="M17.4373 10.3816H15.3822V9.29999H17.4373V8.32652H14.4088V11.3551H16.4639L15.9107 11.5102L16.4005 11.7551H16.6454L16.8903 11.5102L17.4373 10.3816Z" fill="black"/>
<path d="M2.25 21.0028C1.009 21.0028 0 19.9938 0 18.7528V2.25281C0 1.01181 1.009 0.00280762 2.25 0.00280762H20.25C21.491 0.00280762 22.5 1.01181 22.5 2.25281V8.25281C22.5 8.66681 22.164 9.00281 21.75 9.00281C21.336 9.00281 21 8.66681 21 8.25281V6.00281H1.5V18.7528C1.5 19.1668 1.836 19.5028 2.25 19.5028H8.25C8.664 19.5028 9 19.8388 9 20.2528C9 20.6668 8.664 21.0028 8.25 21.0028H2.25ZM21 4.50281V2.25281C21 1.83881 20.664 1.50281 20.25 1.50281H2.25C1.836 1.50281 1.5 1.83881 1.5 2.25281V4.50281H21Z" fill="black"/>
<path d="M17.25 24.0029C13.528 24.0029 10.5 20.9749 10.5 17.2529C10.5 13.5309 13.528 10.5029 17.25 10.5029C20.972 10.5029 24 13.5309 24 17.2529C24 20.9749 20.972 24.0029 17.25 24.0029ZM17.25 12.0029C14.355 12.0029 12 14.3579 12 17.2529C12 20.1479 14.355 22.5029 17.25 22.5029C20.145 22.5029 22.5 20.1479 22.5 17.2529C22.5 14.3579 20.145 12.0029 17.25 12.0029Z" fill="black"/>
<path d="M17.25 21.0029C16.836 21.0029 16.5 20.6669 16.5 20.2529V18.0029H14.25C13.836 18.0029 13.5 17.6669 13.5 17.2529C13.5 16.8389 13.836 16.5029 14.25 16.5029H16.5V14.2529C16.5 13.8389 16.836 13.5029 17.25 13.5029C17.664 13.5029 18 13.8389 18 14.2529V16.5029H20.25C20.664 16.5029 21 16.8389 21 17.2529C21 17.6669 20.664 18.0029 20.25 18.0029H18V20.2529C18 20.6669 17.663 21.0029 17.25 21.0029Z" fill="black"/>
</svg>
