<svg width="24" height="24" viewBox="0 0 24 24" fill="none" xmlns="http://www.w3.org/2000/svg">
<path d="M17.1999 10.5C13.3999 10.5 10.3999 13.4 10.3999 17.2C10.3999 21 13.4999 24 17.1999 24C20.9999 24 23.9999 20.9 23.9999 17.2C23.9999 13.5 20.9999 10.5 17.1999 10.5ZM17.1999 22.4C14.3999 22.4 11.9999 20 11.9999 17.2C11.9999 14.4 14.2999 12 17.1999 12C20.0999 12 22.3999 14.4 22.3999 17.2C22.3999 20 19.9999 22.4 17.1999 22.4Z" fill="black"/>
<path d="M7.4 19.6H2.2C1.7 19.6 1.4 19.2 1.4 18.8V2.3C1.4 1.8 1.8 1.5 2.2 1.5H12.8C13 1.5 13.2 1.6 13.3 1.7L16.2 4.6C16.3 4.7 16.4 4.9 16.4 5.1V7.5C16.4 8 16.7 8.3 17.2 8.3C17.7 8.3 18 7.9 18 7.5V5.1C18 4.5 17.8 4 17.3 3.6L14.4 0.7C14 0.2 13.4 0 12.8 0H2.2C1 0 0 1 0 2.3V18.8C0 20 1 21 2.2 21H7.5C7.9 21 8.2 20.9 8.2 20.4C8.2 19.9 7.8 19.6 7.4 19.6Z" fill="black"/>
<path d="M20.1999 15.4001H19.3999V14.2001C19.3999 13.8001 19.0999 13.4001 18.5999 13.4001C18.0999 13.4001 17.9999 13.8001 17.9999 14.2001V15.4001H16.4999V14.2001C16.4999 13.8001 16.1999 13.4001 15.6999 13.4001C15.1999 13.4001 14.9999 13.8001 14.9999 14.2001V15.4001H14.1999C13.7999 15.4001 13.3999 15.7001 13.3999 16.2001C13.3999 18.0001 14.6999 19.5001 16.3999 19.9001V21.5001C16.3999 21.9001 16.7999 22.3001 17.1999 22.3001C17.5999 22.3001 17.9999 21.9001 17.9999 21.5001V19.9001C19.6999 19.5001 20.9999 18.0001 20.9999 16.2001C20.9999 15.8001 20.6999 15.4001 20.1999 15.4001ZM17.3999 18.4001H17.2999H17.1999C16.2999 18.3001 15.4999 17.7001 15.1999 16.9001H19.3999C19.0999 17.8001 18.2999 18.4001 17.3999 18.4001Z" fill="#29D305"/>
<path d="M3.8 6C3.3 6 3 6.4 3 6.8C3 7.2 3.3 7.5 3.8 7.5H14.2C14.7 7.5 15 7.3 15 6.8C15 6.3 14.7 6 14.3 6H3.8Z" fill="black"/>
<path d="M7.6 10.5H3.8C3.3 10.5 3 10.9 3 11.3C3 11.7 3.3 12 3.8 12H7.5C7.9 12 8.4 11.8 8.4 11.3C8.4 10.8 8 10.5 7.6 10.5Z" fill="black"/>
<path d="M7.6 15H3.8C3.3 15 3 15.3 3 15.8C3 16.2 3.4 16.5 3.8 16.5H7.5C7.9 16.5 8.2 16.2 8.4 15.8C8.4 15.3 8 15 7.6 15Z" fill="black"/>
</svg>
