<svg width="24" height="25" fill="none" xmlns="http://www.w3.org/2000/svg"><path d="M12 18.16a1.126 1.126 0 10-.001-2.251A1.126 1.126 0 0012 18.16zm0-3.754a.75.75 0 01-.75-.751v-8.26a.75.75 0 111.5 0v8.26a.75.75 0 01-.75.75z" fill="#1B314B"/><path d="M12 24.167c-6.617 0-12-5.39-12-12.014S5.383.14 12 .14s12 5.39 12 12.014c0 6.625-5.383 12.014-12 12.014zM12 1.64c-5.79 0-10.5 4.716-10.5 10.512 0 5.797 4.71 10.512 10.5 10.512s10.5-4.715 10.5-10.512C22.5 6.356 17.79 1.64 12 1.64z" fill="#FFB65C"/></svg>