<svg width="24" height="25" viewBox="0 0 24 25" fill="none" xmlns="http://www.w3.org/2000/svg">
<path fill-rule="evenodd" clip-rule="evenodd" d="M12 24.0276C5.383 24.0276 0 18.6384 0 12.0138C0 5.38919 5.383 0 12 0C18.617 0 24 5.38919 24 12.0138C24 18.6384 18.617 24.0276 12 24.0276ZM12 18.0207C12.6213 18.0207 13.125 17.5164 13.125 16.8944C13.125 16.2724 12.6213 15.7681 12 15.7681C11.3787 15.7681 10.875 16.2724 10.875 16.8944C10.875 17.5164 11.3787 18.0207 12 18.0207ZM11.25 13.5155C11.25 13.93 11.586 14.2664 12 14.2664C12.414 14.2664 12.75 13.93 12.75 13.5155V5.25603C12.75 4.84156 12.414 4.50517 12 4.50517C11.586 4.50517 11.25 4.84156 11.25 5.25603V13.5155Z" fill="black"/>
</svg>
