<svg width="16" height="16" viewBox="0 0 16 16" fill="none" xmlns="http://www.w3.org/2000/svg">
<g clip-path="url(#clip0)">
<path fill-rule="evenodd" clip-rule="evenodd" d="M5.99903e-08 2.00226C2.16369e-05 0.896423 0.89547 -2.1482e-05 2.00004 3.86095e-10L14 0.000234636C15.1046 0.000256237 16 0.896688 16 2.0025L16.0002 14.0163C16.0003 15.1222 15.1048 16.0186 14.0003 16.0187C12.8957 16.0187 12.0003 15.1222 12.0002 14.0164L12 4.0048L1.99996 4.00461C0.895391 4.00458 -2.13977e-05 3.10811 5.99903e-08 2.00226Z" fill="black"/>
<path fill-rule="evenodd" clip-rule="evenodd" d="M15.3142 0.68642C16.0953 1.46837 16.0953 2.73616 15.3142 3.5181L3.41421 15.4318C2.63317 16.2138 1.36683 16.2138 0.585786 15.4318C-0.195262 14.6499 -0.195262 13.3821 0.585786 12.6001L12.4858 0.68642C13.2668 -0.0955284 14.5332 -0.0955284 15.3142 0.68642Z" fill="black"/>
</g>
<defs>
<clipPath id="clip0">
<path d="M0 0H16V16H0V0Z" fill="white"/>
</clipPath>
</defs>
</svg>
