<svg width="24" height="24" viewBox="0 0 24 24" fill="none" xmlns="http://www.w3.org/2000/svg">
<path d="M0 12C0 18.617 5.383 24 12 24C18.617 24 24 18.617 24 12C24 5.383 18.617 0 12 0C5.383 0 0 5.383 0 12Z" fill="#29D305"/>
<path fill-rule="evenodd" clip-rule="evenodd" d="M9.2015 7.36603C8.75329 7.84033 8.76843 8.59394 9.23532 9.04927L12.261 12L9.23532 14.9507C8.76843 15.4061 8.75329 16.1597 9.2015 16.634C9.64971 17.1083 10.3915 17.1236 10.8584 16.6683L14.7647 12.8588C14.9949 12.6343 15.125 12.3242 15.125 12C15.125 11.6758 14.9949 11.3657 14.7647 11.1412L10.8584 7.33168C10.3915 6.87636 9.64971 6.89174 9.2015 7.36603Z" fill="black"/>
</svg>
