<svg width="24" height="24" viewBox="0 0 24 24" fill="none" xmlns="http://www.w3.org/2000/svg">
<path fill-rule="evenodd" clip-rule="evenodd" d="M23.6931 12.2129C23.6565 12.1245 23.6022 12.0416 23.5303 11.9697L13.0303 1.46967C12.7374 1.17678 12.2626 1.17678 11.9697 1.46967C11.6768 1.76256 11.6768 2.23744 11.9697 2.53033L21.1893 11.75L1 11.75C0.585787 11.75 0.25 12.0858 0.25 12.5C0.25 12.9142 0.585787 13.25 1 13.25L21.1893 13.25L11.9697 22.4697C11.6768 22.7626 11.6768 23.2374 11.9697 23.5303C12.2626 23.8232 12.7374 23.8232 13.0303 23.5303L23.5303 13.0303C23.6768 12.8839 23.75 12.6919 23.75 12.5C23.75 12.3983 23.7298 12.3013 23.6931 12.2129Z" fill="black"/>
</svg>
