<svg width="24" height="24" viewBox="0 0 24 24" fill="none" xmlns="http://www.w3.org/2000/svg">
<path fill-rule="evenodd" clip-rule="evenodd" d="M4.77398 23.5243C4.4844 23.2282 4.48973 22.7533 4.7859 22.4637L15.4875 12L4.7859 1.53625C4.48974 1.24667 4.4844 0.771827 4.77399 0.475661C5.06357 0.179496 5.53841 0.174161 5.83458 0.463744L16.5542 10.9451C16.6944 11.082 16.8065 11.2455 16.8834 11.4267C16.9602 11.6079 17 11.8028 17 12C17 12.1972 16.9602 12.3921 16.8834 12.5733C16.8066 12.7543 16.6946 12.9177 16.5546 13.0545C16.5544 13.0546 16.5543 13.0547 16.5542 13.0548L5.83458 23.5363C5.53841 23.8258 5.06357 23.8205 4.77398 23.5243Z" fill="black"/>
</svg>
