<svg width="24" height="24" viewBox="0 0 24 24" fill="none" xmlns="http://www.w3.org/2000/svg">
<path fill-rule="evenodd" clip-rule="evenodd" d="M15.834 4.78362L4.39122 4.7834C3.07108 4.78337 1.99997 3.71307 2 2.39165C2.00003 1.07023 3.07117 -2.56527e-05 4.39131 4.61154e-10L21.6084 0.000336254C22.1865 0.000347529 22.7156 0.204894 23.1291 0.546134C23.1881 0.594889 23.2448 0.646424 23.299 0.700556C23.7323 1.13384 23.9996 1.7312 23.9997 2.39199L24 19.6083C24 20.9297 22.9289 22 21.6088 22C20.2886 22 19.2175 20.9298 19.2175 19.6083L19.2172 8.16449L6.08196 21.2991C5.14815 22.2329 3.63438 22.2329 2.70058 21.2991C1.76647 20.3651 1.76647 18.8504 2.70058 17.9164L15.834 4.78362Z" fill="black"/>
</svg>
