<svg width="24" height="24" viewBox="0 0 24 24" fill="none" xmlns="http://www.w3.org/2000/svg">
<g clip-path="url(#clip0)">
<path fill-rule="evenodd" clip-rule="evenodd" d="M8.99854e-08 3.0034C3.24553e-05 1.34463 1.3432 -3.2223e-05 3.00006 5.79142e-10L21.0001 0.000351954C22.6569 0.000384356 24 1.34503 24 3.00375L24.0004 21.0245C24.0004 22.6832 22.6573 24.028 21.0004 24.028C19.3436 24.028 18.0004 22.6834 18.0004 21.0246L18.0001 6.0072L2.99994 6.00691C1.34309 6.00688 -3.20965e-05 4.66216 8.99854e-08 3.0034Z" fill="black"/>
<path fill-rule="evenodd" clip-rule="evenodd" d="M22.9713 1.02963C24.1429 2.20255 24.1429 4.10423 22.9713 5.27716L5.12132 23.1477C3.94975 24.3206 2.05025 24.3206 0.87868 23.1477C-0.292893 21.9748 -0.292893 20.0731 0.87868 18.9002L18.7287 1.02963C19.9003 -0.143293 21.7997 -0.143293 22.9713 1.02963Z" fill="black"/>
</g>
<defs>
<clipPath id="clip0">
<path d="M0 0H24V24H0V0Z" fill="white"/>
</clipPath>
</defs>
</svg>
