<svg width="24" height="24" viewBox="0 0 24 24" fill="none" xmlns="http://www.w3.org/2000/svg">
<path fill-rule="evenodd" clip-rule="evenodd" d="M16.7863 0.475662C17.0758 0.771828 17.0705 1.24667 16.7743 1.53626L6.07278 12L16.7743 22.4637C17.0705 22.7533 17.0758 23.2282 16.7863 23.5243C16.4967 23.8205 16.0218 23.8258 15.7257 23.5363L5.00604 13.0549C4.86585 12.918 4.75371 12.7545 4.67688 12.5733C4.60003 12.3921 4.56024 12.1972 4.56024 12C4.56024 11.8028 4.60003 11.6079 4.67688 11.4267C4.75364 11.2457 4.86565 11.0823 5.00566 10.9455C5.00579 10.9454 5.00591 10.9453 5.00604 10.9452L15.7257 0.463745C16.0218 0.174161 16.4967 0.179497 16.7863 0.475662Z" fill="black"/>
</svg>
