<svg width="24" height="25" fill="none" xmlns="http://www.w3.org/2000/svg"><path d="M9.75 24.525a5.259 5.259 0 01-5.25-5.256V8.006C4.5 3.866 7.865.497 12 .497s7.5 3.37 7.5 7.509v8.259a.75.75 0 11-1.5 0V8.006c0-3.312-2.692-6.007-6-6.007S6 4.694 6 8.006v11.263a3.756 3.756 0 003.75 3.754 3.756 3.756 0 003.75-3.754V8.006c0-.828-.673-1.502-1.5-1.502s-1.5.674-1.5 1.502v9.761a.75.75 0 11-1.5 0V8.006a3.005 3.005 0 013-3.003c1.654 0 3 1.347 3 3.003v11.263a5.259 5.259 0 01-5.25 5.256z" fill="#1B314B"/></svg>