<svg width="24" height="24" fill="none" xmlns="http://www.w3.org/2000/svg"><path fill-rule="evenodd" clip-rule="evenodd" d="M12 22.5c5.799 0 10.5-4.701 10.5-10.5S17.799 1.5 12 1.5 1.5 6.201 1.5 12 6.201 22.5 12 22.5zm0 1.5c6.627 0 12-5.373 12-12S18.627 0 12 0 0 5.373 0 12s5.373 12 12 12z" fill="#1B314B"/><path fill-rule="evenodd" clip-rule="evenodd" d="M16.829 7.47a.75.75 0 010 1.061l-8.308 8.308a.75.75 0 11-1.06-1.061l8.307-8.308a.75.75 0 011.061 0z" fill="#1B314B"/><path fill-rule="evenodd" clip-rule="evenodd" d="M8.468 9.161a.49.49 0 10.693-.693.49.49 0 00-.693.693zm-1.06 1.06a1.99 1.99 0 102.814-2.814 1.99 1.99 0 00-2.815 2.815zm7.576 5.362a.49.49 0 10.693-.693.49.49 0 00-.693.693zm-1.06 1.06a1.99 1.99 0 102.814-2.814 1.99 1.99 0 00-2.815 2.815z" fill="#FFB65C"/></svg>