<svg width="24" height="25" fill="none" xmlns="http://www.w3.org/2000/svg"><path d="M2.25 15.754A2.252 2.252 0 010 13.504v-9a2.252 2.252 0 012.25-2.25h4.5a.75.75 0 010 1.5h-4.5a.75.75 0 00-.75.75v9c0 .414.336.75.75.75h4.5a.75.75 0 010 1.5h-4.5zm13.5 0a.75.75 0 010-1.5h3a.75.75 0 00.75-.75v-1.5a.75.75 0 01.75-.75h1.5a.75.75 0 00.75-.75v-3a.75.75 0 00-.75-.75h-1.5a.75.75 0 01-.75-.75v-1.5a.75.75 0 00-.75-.75h-3a.75.75 0 010-1.5h3A2.252 2.252 0 0121 4.504v.75h.75A2.252 2.252 0 0124 7.504v3a2.252 2.252 0 01-2.25 2.25H21v.75a2.252 2.252 0 01-2.25 2.25h-3z" fill="#1B314B"/><path d="M11.25 21.754a.75.75 0 01-.75-.75v-6.827a3.743 3.743 0 01-3-3.673v-1.5c0-.96.615-1.808 1.5-2.121v-2.38a.75.75 0 011.5 0v2.25H12v-2.25a.75.75 0 011.5 0v2.38a2.258 2.258 0 011.5 2.12v1.5a3.743 3.743 0 01-3 3.674v6.827a.75.75 0 01-.75.75zm-1.5-13.5a.75.75 0 00-.75.75v1.5a2.252 2.252 0 002.25 2.25 2.252 2.252 0 002.25-2.25v-1.5a.75.75 0 00-.75-.75h-3z" fill="#1B314B"/></svg>