<svg width="24" height="24" viewBox="0 0 24 24" fill="none" xmlns="http://www.w3.org/2000/svg">
<g clip-path="url(#clip0)">
<path d="M23.2526 3.2H20.9059H16.8526V2.34667C16.8526 1.06667 15.7859 0 14.5059 0H9.59927C8.31927 0 7.2526 1.06667 7.2526 2.34667V3.2H3.19927H0.852601C0.319268 3.2 -0.000732422 3.52 -0.000732422 4.05333C-0.000732422 4.58667 0.319268 4.90667 0.852601 4.90667H2.55927L3.94593 21.8667C4.0526 23.1467 5.11927 24.1067 6.2926 24.1067H17.7059C18.9859 24.1067 19.9459 23.1467 20.0526 21.8667L21.4393 4.90667H23.1459C23.5726 4.90667 23.9993 4.58667 23.9993 4.05333C23.9993 3.52 23.6793 3.2 23.2526 3.2ZM8.74593 2.34667C8.74593 1.92 9.06594 1.49333 9.59927 1.49333H14.3993C14.8259 1.49333 15.2526 1.81333 15.2526 2.34667V3.2H8.74593V2.34667ZM18.5593 21.6533C18.5593 22.08 18.1326 22.4 17.8126 22.4H6.2926C5.86593 22.4 5.54593 22.08 5.54593 21.6533L4.0526 4.8H7.99927H15.9993H19.9459L18.5593 21.6533Z" fill="black"/>
<path d="M9.59927 8.74664C9.17261 8.74664 8.74594 9.17331 8.74594 9.59998V17.6C8.74594 18.0266 9.06594 18.4533 9.59927 18.4533C10.1326 18.4533 10.4526 18.1333 10.4526 17.6V9.59998C10.4526 9.17331 10.0259 8.74664 9.59927 8.74664Z" fill="black"/>
<path d="M14.3993 8.74664C13.9726 8.74664 13.5459 9.06664 13.5459 9.59998V17.6C13.5459 18.0266 13.8659 18.4533 14.3993 18.4533C14.9326 18.4533 15.2526 18.1333 15.2526 17.6V9.59998C15.1459 9.17331 14.8259 8.74664 14.3993 8.74664Z" fill="black"/>
</g>
<defs>
<clipPath id="clip0">
<path d="M-0.000732422 0H23.9993V24H-0.000732422V0Z" fill="white"/>
</clipPath>
</defs>
</svg>
