<svg width="24" height="24" viewBox="0 0 24 24" fill="none" xmlns="http://www.w3.org/2000/svg">
<g clip-path="url(#clip0)">
<path d="M23.2533 3.2H20.9067H16.8533V2.34667C16.8533 1.06667 15.7867 0 14.5067 0H9.6C8.32 0 7.25333 1.06667 7.25333 2.34667V3.2H3.2H0.853333C0.32 3.2 0 3.52 0 4.05333C0 4.58667 0.32 4.90667 0.853333 4.90667H2.56L3.94667 21.8667C4.05333 23.1467 5.12 24.1067 6.29333 24.1067H17.7067C18.9867 24.1067 19.9467 23.1467 20.0533 21.8667L21.44 4.90667H23.1467C23.5733 4.90667 24 4.58667 24 4.05333C24 3.52 23.68 3.2 23.2533 3.2ZM8.74667 2.34667C8.74667 1.92 9.06667 1.49333 9.6 1.49333H14.4C14.8267 1.49333 15.2533 1.81333 15.2533 2.34667V3.2H8.74667V2.34667ZM18.56 21.6533C18.56 22.08 18.1333 22.4 17.8133 22.4H6.29333C5.86667 22.4 5.54667 22.08 5.54667 21.6533L4.05333 4.8H8H16H19.9467L18.56 21.6533Z" fill="black"/>
<path d="M9.59998 8.74667C9.17331 8.74667 8.74664 9.17334 8.74664 9.60001V17.6C8.74664 18.0267 9.06664 18.4533 9.59998 18.4533C10.1333 18.4533 10.4533 18.1333 10.4533 17.6V9.60001C10.4533 9.17334 10.0266 8.74667 9.59998 8.74667Z" fill="black"/>
<path d="M14.4 8.74667C13.9734 8.74667 13.5467 9.06667 13.5467 9.60001V17.6C13.5467 18.0267 13.8667 18.4533 14.4 18.4533C14.9334 18.4533 15.2534 18.1333 15.2534 17.6V9.60001C15.1467 9.17334 14.8267 8.74667 14.4 8.74667Z" fill="black"/>
</g>
<defs>
<clipPath id="clip0">
<path d="M0 0H24V24H0V0Z" fill="white"/>
</clipPath>
</defs>
</svg>
