<svg width="24" height="25" fill="none" xmlns="http://www.w3.org/2000/svg"><path d="M12 24.525a.72.72 0 01-.225-.037.426.426 0 01-.054-.017L.471 19.966A.746.746 0 010 19.269V5.753a.75.75 0 01.244-.55l.041-.036a.57.57 0 01.132-.084.662.662 0 01.053-.026L11.721.55a.74.74 0 01.558 0l11.249 4.506a.487.487 0 01.052.025.64.64 0 01.134.084l.036.03a.723.723 0 01.094.103c.016.022.031.042.044.064a.799.799 0 01.112.39V19.27c0 .31-.185.583-.472.698l-11.25 4.505a.761.761 0 01-.278.053zm.75-1.86l9.75-3.905V6.863l-9.75 3.904v11.898zm-1.5 0V10.767L1.5 6.863V18.76l9.75 3.904zM12 9.45l4.168-1.67-9.23-3.695L2.77 5.753 12 9.45zm6.187-2.478l3.043-1.219L12 2.057 8.957 3.276l9.23 3.696z" fill="#1B314B"/><path d="M18.75 18.518a.744.744 0 01-.696-.473.748.748 0 01.418-.976l1.875-.75a.744.744 0 01.974.418.748.748 0 01-.418.976l-1.875.751a.732.732 0 01-.278.054z" fill="#FFB65C"/></svg>