<svg width="24" height="24" viewBox="0 0 24 24" fill="none" xmlns="http://www.w3.org/2000/svg">
<path d="M12 24C11.926 24 11.852 23.988 11.775 23.963C11.756 23.958 11.738 23.953 11.721 23.946L0.471 19.446C0.185 19.332 0 19.059 0 18.75V5.25C0 5.183 0.01 5.116 0.03 5.045C0.034 5.031 0.046 4.997 0.052 4.983C0.069 4.939 0.089 4.898 0.113 4.858C0.125 4.839 0.139 4.818 0.155 4.798C0.181 4.763 0.211 4.73 0.244 4.7C0.257 4.688 0.271 4.676 0.285 4.664C0.3 4.651 0.317 4.637 0.33 4.629C0.357 4.61 0.387 4.594 0.417 4.58C0.432 4.572 0.449 4.563 0.47 4.554L11.721 0.054C11.81 0.018 11.904 0 12 0C12.096 0 12.19 0.018 12.279 0.054L23.528 4.554C23.544 4.56 23.563 4.57 23.58 4.579C23.615 4.595 23.644 4.611 23.671 4.629C23.684 4.638 23.701 4.651 23.714 4.663C23.725 4.672 23.737 4.683 23.75 4.694C23.789 4.73 23.818 4.761 23.844 4.796C23.86 4.818 23.875 4.838 23.888 4.86C23.911 4.898 23.93 4.938 23.947 4.981C23.956 5.002 23.963 5.021 23.969 5.041C23.99 5.117 24 5.183 24 5.25V18.75C24 19.059 23.815 19.332 23.528 19.447L12.278 23.947C12.262 23.954 12.244 23.959 12.225 23.964C12.151 23.987 12.075 24 12 24ZM12.75 22.142L22.5 18.242V6.358L12.75 10.258V22.142ZM11.25 22.142V10.258L1.5 6.358V18.243L11.25 22.142ZM12 8.942L16.168 7.275L6.938 3.583L2.77 5.25L12 8.942ZM18.187 6.467L21.23 5.25L12 1.558L8.957 2.775L18.187 6.467Z" fill="black"/>
<path d="M18.75 18C18.441 18 18.168 17.815 18.054 17.528C17.98 17.342 17.982 17.138 18.061 16.954C18.14 16.77 18.286 16.627 18.472 16.553L20.347 15.803C20.436 15.767 20.53 15.749 20.625 15.749C20.934 15.749 21.207 15.934 21.321 16.221C21.395 16.407 21.393 16.611 21.314 16.795C21.235 16.979 21.089 17.122 20.903 17.196L19.028 17.946C18.94 17.982 18.846 18 18.75 18Z" fill="#29D305"/>
</svg>
