<svg width="24" height="25" viewBox="0 0 24 25" fill="none" xmlns="http://www.w3.org/2000/svg">
<path d="M12 24.0275C11.926 24.0275 11.852 24.0155 11.775 23.9904C11.756 23.9854 11.738 23.9804 11.721 23.9734L0.471 19.4683C0.185 19.3541 0 19.0808 0 18.7715V5.25601C0 5.18893 0.01 5.12185 0.03 5.05077C0.034 5.03676 0.046 5.00272 0.052 4.9887C0.069 4.94465 0.089 4.90361 0.113 4.86356C0.125 4.84454 0.139 4.82351 0.155 4.80349C0.181 4.76845 0.211 4.73541 0.244 4.70538C0.257 4.69336 0.271 4.68135 0.285 4.66934C0.3 4.65632 0.317 4.64231 0.33 4.6343C0.357 4.61528 0.387 4.59926 0.417 4.58524C0.432 4.57723 0.449 4.56822 0.47 4.55921L11.721 0.0540618C11.81 0.0180206 11.904 0 12 0C12.096 0 12.19 0.0180206 12.279 0.0540618L23.528 4.55921C23.544 4.56522 23.563 4.57523 23.58 4.58424C23.615 4.60026 23.644 4.61628 23.671 4.6343C23.684 4.64331 23.701 4.65632 23.714 4.66834C23.725 4.67735 23.737 4.68836 23.75 4.69937C23.789 4.73541 23.818 4.76645 23.844 4.80149C23.86 4.82351 23.875 4.84354 23.888 4.86556C23.911 4.90361 23.93 4.94365 23.947 4.9867C23.956 5.00772 23.963 5.02675 23.969 5.04677C23.99 5.12286 24 5.18893 24 5.25601V18.7715C24 19.0808 23.815 19.3541 23.528 19.4693L12.278 23.9744C12.262 23.9814 12.244 23.9864 12.225 23.9914C12.151 24.0145 12.075 24.0275 12 24.0275ZM12.75 22.1673L22.5 18.2629V6.36528L12.75 10.2697V22.1673ZM11.25 22.1673V10.2697L1.5 6.36528V18.2639L11.25 22.1673ZM12 8.95223L16.168 7.28333L6.938 3.5871L2.77 5.25601L12 8.95223ZM18.187 6.4744L21.23 5.25601L12 1.55978L8.957 2.77818L18.187 6.4744Z" fill="black"/>
<path d="M18.75 18.0206C18.441 18.0206 18.168 17.8354 18.054 17.5481C17.98 17.3619 17.982 17.1576 18.061 16.9734C18.14 16.7892 18.286 16.646 18.472 16.572L20.347 15.8211C20.436 15.7851 20.53 15.767 20.625 15.767C20.934 15.767 21.207 15.9523 21.321 16.2396C21.395 16.4258 21.393 16.63 21.314 16.8142C21.235 16.9985 21.089 17.1416 20.903 17.2157L19.028 17.9666C18.94 18.0026 18.846 18.0206 18.75 18.0206Z" fill="#29D305"/>
</svg>
