<svg width="24" height="24" viewBox="0 0 24 24" fill="none" xmlns="http://www.w3.org/2000/svg">
<path d="M4.5 24C4.086 24 3.75 23.664 3.75 23.25V11.25C3.75 10.836 4.086 10.5 4.5 10.5C4.914 10.5 5.25 10.836 5.25 11.25V23.25C5.25 23.664 4.914 24 4.5 24Z" fill="black"/>
<path d="M7.5 24C7.086 24 6.75 23.664 6.75 23.25V11.25C6.75 10.836 7.086 10.5 7.5 10.5C7.914 10.5 8.25 10.836 8.25 11.25V23.25C8.25 23.664 7.914 24 7.5 24Z" fill="black"/>
<path d="M10.5 24C10.086 24 9.75 23.664 9.75 23.25V9H2.25V23.25C2.25 23.664 1.914 24 1.5 24C1.086 24 0.75 23.664 0.75 23.25V8.25C0.75 8.236 0.751 8.216 0.753 8.199C0.755 8.176 0.757 8.154 0.76 8.132C0.765 8.106 0.77 8.084 0.775 8.063C0.783 8.035 0.79 8.012 0.798 7.99C0.807 7.966 0.817 7.944 0.827 7.923C0.837 7.901 0.848 7.881 0.86 7.862C0.873 7.841 0.886 7.821 0.901 7.802C0.91 7.788 0.922 7.772 0.93 7.762L5.25 2.722V0.75C5.25 0.336 5.586 0 6 0C6.414 0 6.75 0.336 6.75 0.75V2.723L11.069 7.762C11.078 7.772 11.09 7.788 11.099 7.802C11.113 7.821 11.127 7.841 11.139 7.861C11.151 7.882 11.162 7.901 11.172 7.921C11.183 7.944 11.192 7.965 11.201 7.988C11.21 8.012 11.217 8.035 11.223 8.057C11.23 8.084 11.235 8.106 11.238 8.128C11.242 8.153 11.244 8.176 11.246 8.199C11.248 8.216 11.249 8.236 11.249 8.25V23.25C11.25 23.664 10.914 24 10.5 24ZM8.869 7.5L6 4.152L3.131 7.5H8.869Z" fill="black"/>
<path d="M22.5 24C22.086 24 21.75 23.664 21.75 23.25V11.041L14.25 8.53998V23.25C14.25 23.664 13.914 24 13.5 24C13.086 24 12.75 23.664 12.75 23.25V8.54098C12.75 8.37898 12.776 8.21798 12.828 8.06298C12.955 7.68398 13.222 7.37598 13.581 7.19798C13.792 7.09298 14.016 7.03998 14.248 7.03998C14.409 7.03998 14.57 7.06598 14.725 7.11798L22.225 9.61798C22.838 9.82298 23.25 10.395 23.251 11.041V23.251C23.25 23.664 22.914 24 22.5 24Z" fill="black"/>
<path d="M19.5 22.5C19.086 22.5 18.75 22.164 18.75 21.75V21C18.75 20.586 19.086 20.25 19.5 20.25C19.914 20.25 20.25 20.586 20.25 21V21.75C20.25 22.164 19.914 22.5 19.5 22.5Z" fill="black"/>
<path d="M19.5 18.75C19.086 18.75 18.75 18.414 18.75 18V17.25C18.75 16.836 19.086 16.5 19.5 16.5C19.914 16.5 20.25 16.836 20.25 17.25V18C20.25 18.414 19.914 18.75 19.5 18.75Z" fill="#29D305"/>
<path d="M19.5 15C19.086 15 18.75 14.664 18.75 14.25V13.5C18.75 13.086 19.086 12.75 19.5 12.75C19.914 12.75 20.25 13.086 20.25 13.5V14.25C20.25 14.664 19.914 15 19.5 15Z" fill="black"/>
<path d="M16.5 22.5C16.086 22.5 15.75 22.164 15.75 21.75V21C15.75 20.586 16.086 20.25 16.5 20.25C16.914 20.25 17.25 20.586 17.25 21V21.75C17.25 22.164 16.914 22.5 16.5 22.5Z" fill="black"/>
<path d="M16.5 18.75C16.086 18.75 15.75 18.414 15.75 18V17.25C15.75 16.836 16.086 16.5 16.5 16.5C16.914 16.5 17.25 16.836 17.25 17.25V18C17.25 18.414 16.914 18.75 16.5 18.75Z" fill="black"/>
<path d="M16.5 15C16.086 15 15.75 14.664 15.75 14.25V13.5C15.75 13.086 16.086 12.75 16.5 12.75C16.914 12.75 17.25 13.086 17.25 13.5V14.25C17.25 14.664 16.914 15 16.5 15Z" fill="#29D305"/>
</svg>
