<svg width="24" height="24" fill="none" xmlns="http://www.w3.org/2000/svg"><g clip-path="url(#clip0)"><path d="M2.25 18.02A2.253 2.253 0 010 15.769V3.754a2.253 2.253 0 012.25-2.252H4.5V.75a.75.75 0 111.5 0v.75h6V.75a.75.75 0 111.5 0v.75h2.25C16.991 1.5 18 2.51 18 3.753V8.26a.75.75 0 11-1.5 0v-.75h-15v8.26c0 .414.336.75.75.75h6a.75.75 0 010 1.502h-6zM16.5 6.008V3.754a.75.75 0 00-.75-.75H13.5v.75a.75.75 0 11-1.5 0v-.75H6v.75a.75.75 0 11-1.5 0v-.75H2.25a.75.75 0 00-.75.75v2.253h15z" fill="#1B314B"/><path d="M17.25 24.028c-3.722 0-6.75-3.032-6.75-6.758s3.028-6.758 6.75-6.758S24 13.544 24 17.27s-3.028 6.758-6.75 6.758zm0-12.014A5.259 5.259 0 0012 17.27a5.259 5.259 0 005.25 5.256 5.259 5.259 0 005.25-5.256 5.259 5.259 0 00-5.25-5.256z" fill="#1B314B"/><path d="M17.25 18.02a.75.75 0 01-.75-.75v-2.654a.75.75 0 111.5 0v1.903h1.902a.75.75 0 010 1.502H17.25z" fill="#1B314B"/><rect x="3" y="13.5" width="5" height="1.5" rx=".75" fill="#FFB65C"/></g><defs><clipPath id="clip0"><path fill="#fff" d="M0 0h24v24H0z"/></clipPath></defs></svg>