<svg width="24" height="24" fill="none" xmlns="http://www.w3.org/2000/svg"><g clip-path="url(#clip0)"><path d="M2.25 24.028A2.253 2.253 0 010 21.775V5.256a2.253 2.253 0 012.25-2.253H6V.751a.75.75 0 111.5 0v2.252h9V.751a.75.75 0 111.5 0v2.252h3.75c1.241 0 2.25 1.01 2.25 2.253v16.519a2.253 2.253 0 01-2.25 2.253H2.25zm-.75-2.253c0 .415.336.75.75.75h19.5a.75.75 0 00.75-.75V10.512h-21v11.263zm21-12.765V5.256a.75.75 0 00-.75-.75H18v1.5a.75.75 0 11-1.5 0v-1.5h-9v1.5a.75.75 0 11-1.5 0v-1.5H2.25a.75.75 0 00-.75.75V9.01h21z" fill="#1B314B"/><rect x="3" y="19.5" width="6" height="1.5" rx=".75" fill="#FFB65C"/></g><defs><clipPath id="clip0"><path fill="#fff" d="M0 0h24v24H0z"/></clipPath></defs></svg>