<svg width="24" height="24" fill="none" xmlns="http://www.w3.org/2000/svg"><path d="M7.5 17.261a2.252 2.252 0 01-2.25-2.25v-6a2.252 2.252 0 012.25-2.25h6c1.227 0 2.228.987 2.25 2.21l2.013-.671a.742.742 0 01.675.103c.195.14.312.368.312.608v6a.749.749 0 01-.987.711l-2.013-.671a2.252 2.252 0 01-2.25 2.209l-6 .001zm0-9a.75.75 0 00-.75.75v6c0 .414.336.75.75.75h6a.75.75 0 00.75-.75v-1a.749.749 0 01.988-.711l2.012.671v-3.919l-2.013.671a.736.736 0 01-.675-.103.751.751 0 01-.312-.608v-1a.75.75 0 00-.75-.75h-6v-.001z" fill="#1B314B"/><path d="M6 23.261a5.256 5.256 0 01-5.25-5.25v-12A5.256 5.256 0 016 .761h12a5.256 5.256 0 015.25 5.25v12a5.256 5.256 0 01-5.25 5.25H6zm0-21a3.754 3.754 0 00-3.75 3.75v12A3.754 3.754 0 006 21.761h12a3.754 3.754 0 003.75-3.75v-12A3.754 3.754 0 0018 2.261H6z" fill="#1B314B"/></svg>