<svg width="24" height="24" viewBox="0 0 24 24" fill="none" xmlns="http://www.w3.org/2000/svg">
<path fill-rule="evenodd" clip-rule="evenodd" d="M22.6821 0.300228L11.0107 0L8.14789 0.272471C7.57119 0.327359 7.1304 0.793342 7.12627 1.35248L7.09295 5.8677C7.58561 5.74757 8.02277 5.65013 8.35383 5.57943L8.38416 1.4704L10.4039 1.27817V15.8148C9.96387 16.028 9.33284 16.337 8.76037 16.6182L8.27058 16.8589L8.32777 9.11095C7.97586 9.28857 7.52346 9.49041 7.06475 9.68903L7 18.4615H21.4011C21.6995 18.4615 21.9816 18.3481 22.1917 18.1498L24 16.4426L23.7847 1.37784C23.7763 0.791399 23.2897 0.315858 22.6821 0.300228ZM11.6626 15.5834V1.23172L22.5277 1.51121L22.7289 15.5833L11.6626 15.5834ZM11.1808 16.7979L21.8238 16.7979L21.3481 17.247H10.2567C10.6196 17.0696 10.9498 16.9089 11.1808 16.7979Z" fill="black"/>
<path d="M16.1428 12C16.0919 12 16.0416 11.9912 15.9936 11.974C15.8268 11.9142 15.7142 11.7574 15.7142 11.5846V8.67694H14.6426C14.4911 8.67638 14.3448 8.62432 14.2299 8.53128C14.0979 8.42328 14.0168 8.27263 14.0025 8.10703C13.9876 7.94143 14.0402 7.77971 14.1511 7.65177L17.5322 3.83688C17.6133 3.74494 17.7322 3.69232 17.8574 3.69232C17.9082 3.69232 17.9579 3.70118 18.006 3.7178C18.174 3.77817 18.286 3.93491 18.286 4.10771V7.0154H19.3576C19.5096 7.01595 19.6559 7.06801 19.7708 7.16161C20.0423 7.38315 20.0777 7.77749 19.8497 8.04001L16.468 11.8549C16.3863 11.9474 16.268 12 16.1428 12ZM16.1428 7.84617C16.3794 7.84617 16.5714 8.03226 16.5714 8.26155V10.4636L18.8918 7.84561L17.8574 7.84617C17.6208 7.84617 17.4287 7.66008 17.4287 7.43078V5.22869L15.1084 7.84672L16.1428 7.84617Z" fill="#29D305"/>
<path fill-rule="evenodd" clip-rule="evenodd" d="M8.68395 7.76712V6.07402C7.68749 6.2929 6.35975 6.61213 5.11592 6.99825C4.25491 7.26552 3.47697 7.55188 2.88953 7.84138C2.596 7.98604 2.38112 8.11645 2.23693 8.22593C2.14484 8.29585 2.10597 8.33886 2.09543 8.35081C1.97627 8.59526 1.84911 9.01 1.73625 9.59373C1.62385 10.1751 1.53941 10.8486 1.47713 11.5464C1.38559 12.5721 1.34524 13.6109 1.32759 14.4212H2.1424L3.3524 11.0022C3.3913 10.8923 3.53357 10.4957 3.9595 10.2211C4.1912 10.0717 4.68973 9.82308 5.17485 9.58259C5.31839 9.51143 5.46905 9.43704 5.62464 9.3602L5.6247 9.36018C6.04846 9.15091 6.50881 8.92358 6.96177 8.69433C7.58416 8.37933 8.15886 8.07756 8.57032 7.83513C8.61116 7.81107 8.649 7.7884 8.68395 7.76712ZM10 8.33533V5.11902C10 4.80056 9.70444 4.56111 9.38166 4.62608C7.45973 5.01296 1.6738 6.28939 0.923625 7.77134C0.120813 9.35726 0.0138229 13.4896 1.65174e-05 15.1861C-0.00226849 15.4669 0.232818 15.6923 0.523552 15.6923H1.15054C0.971659 16.8207 0.912791 18.5268 1.33691 20.0247C1.76418 21.5337 2.75318 23.0197 4.7996 23.22C5.15659 23.255 5.47667 23.0162 5.51452 22.6866C5.55237 22.3571 5.29366 22.0617 4.93668 22.0267C3.6863 21.9043 2.96542 21.0307 2.59466 19.7213C2.2252 18.4164 2.27444 16.8652 2.44181 15.8351C2.44966 15.7867 2.45104 15.7389 2.44654 15.6923H2.70766C2.93277 15.6923 3.13228 15.5541 3.20509 15.3483L4.59771 11.4133C4.61644 11.3604 4.642 11.3094 4.69018 11.2783C4.88219 11.1545 5.48458 10.857 6.21833 10.4947L6.21834 10.4947C7.80287 9.71221 10 8.62723 10 8.33533Z" fill="black"/>
</svg>
