<svg width="24" height="24" viewBox="0 0 24 24" fill="none" xmlns="http://www.w3.org/2000/svg">
<path fill-rule="evenodd" clip-rule="evenodd" d="M22.6821 0.310268L11.0107 0L8.14789 0.281583C7.57119 0.338307 7.1304 0.819871 7.12627 1.39771L7.09295 6.06391C7.58561 5.93976 8.02277 5.83907 8.35383 5.766L8.38416 1.51957L10.4039 1.32091V16.3437C9.96387 16.5639 9.33284 16.8833 8.76037 17.1739L8.27058 17.4227L8.32777 9.41562C7.97586 9.59917 7.52346 9.80777 7.06475 10.013L7 19.0789H21.4011C21.6995 19.0789 21.9816 18.9617 22.1917 18.7567L24 16.9924L23.7847 1.42391C23.7763 0.817864 23.2897 0.326421 22.6821 0.310268ZM11.6626 16.1045V1.27291L22.5277 1.56175L22.7289 16.1045L11.6626 16.1045ZM11.1808 17.3596L21.8238 17.3596L21.3481 17.8238H10.2567C10.6196 17.6404 10.9498 17.4743 11.1808 17.3596Z" fill="black"/>
<path d="M16.1428 12.4013C16.0919 12.4013 16.0416 12.3921 15.9936 12.3744C15.8268 12.3126 15.7142 12.1506 15.7142 11.972V8.9671H14.6426C14.4911 8.96653 14.3448 8.91272 14.2299 8.81657C14.0979 8.70495 14.0168 8.54927 14.0025 8.37813C13.9876 8.207 14.0402 8.03987 14.1511 7.90765L17.5322 3.96518C17.6133 3.87017 17.7322 3.8158 17.8574 3.8158C17.9082 3.8158 17.9579 3.82495 18.006 3.84212C18.174 3.90451 18.286 4.06649 18.286 4.24507V7.25H19.3576C19.5096 7.25057 19.6559 7.30437 19.7708 7.4011C20.0423 7.63005 20.0777 8.03758 19.8497 8.30888L16.468 12.2513C16.3863 12.3469 16.268 12.4013 16.1428 12.4013ZM16.1428 8.10855C16.3794 8.10855 16.5714 8.30086 16.5714 8.53782V10.8136L18.8918 8.10798L17.8574 8.10855C17.6208 8.10855 17.4287 7.91623 17.4287 7.67927V5.40354L15.1084 8.10912L16.1428 8.10855Z" fill="#29D305"/>
<path fill-rule="evenodd" clip-rule="evenodd" d="M8.68395 8.02685V6.27712C7.68749 6.50332 6.35975 6.83323 5.11592 7.23226C4.25491 7.50847 3.47697 7.8044 2.88953 8.10359C2.596 8.25309 2.38112 8.38785 2.23693 8.50099C2.14484 8.57326 2.10597 8.61771 2.09543 8.63006C1.97627 8.88268 1.84911 9.31128 1.73625 9.91454C1.62385 10.5154 1.53941 11.2113 1.47713 11.9325C1.38559 12.9925 1.34524 14.0661 1.32759 14.9034H2.1424L3.3524 11.3701C3.3913 11.2565 3.53357 10.8467 3.9595 10.5628C4.1912 10.4085 4.68973 10.1516 5.17485 9.90303C5.31839 9.82949 5.46905 9.7526 5.62464 9.6732L5.62467 9.67318C6.04844 9.45692 6.50881 9.22198 6.96177 8.98506C7.58416 8.65953 8.15886 8.34766 8.57032 8.09713C8.61116 8.07227 8.649 8.04884 8.68395 8.02685ZM10 8.61405V5.29019C10 4.96108 9.70444 4.71362 9.38166 4.78076C7.45973 5.18058 1.6738 6.4997 0.923625 8.0312C0.120813 9.67016 0.0138229 13.9407 1.65174e-05 15.6939C-0.00226849 15.9841 0.232818 16.2171 0.523552 16.2171H1.15054C0.971659 17.3831 0.912791 19.1463 1.33691 20.6943C1.76418 22.2538 2.75318 23.7895 4.7996 23.9965C5.15659 24.0326 5.47667 23.7858 5.51452 23.4453C5.55237 23.1047 5.29366 22.7994 4.93668 22.7633C3.6863 22.6368 2.96542 21.734 2.59466 20.3807C2.2252 19.0322 2.27444 17.4292 2.44181 16.3646C2.44966 16.3147 2.45104 16.2652 2.44654 16.2171H2.70766C2.93277 16.2171 3.13228 16.0742 3.20509 15.8616L4.59771 11.795C4.61644 11.7403 4.642 11.6875 4.69018 11.6554C4.88219 11.5275 5.48458 11.2201 6.21833 10.8456L6.21833 10.8456C7.80286 10.037 10 8.91572 10 8.61405Z" fill="black"/>
</svg>
