<svg width="24" height="24" fill="none" xmlns="http://www.w3.org/2000/svg"><path fill-rule="evenodd" clip-rule="evenodd" d="M22 19.102H2c-.276 0-.5-.242-.5-.54V5.886c0-.298.224-.54.5-.54h20c.276 0 .5.242.5.54v12.676c0 .298-.224.54-.5.54zM2 20.724c-1.105 0-2-.968-2-2.162V5.886c0-1.194.895-2.162 2-2.162h20c1.105 0 2 .968 2 2.162v12.676c0 1.194-.895 2.162-2 2.162H2z" fill="#1B314B"/><path fill="#1B314B" d="M0 16.414h24v-1.5H0z"/><path fill-rule="evenodd" clip-rule="evenodd" d="M2.974 8.138c0 .414.336.75.75.75h4.552a.75.75 0 000-1.5H3.724a.75.75 0 00-.75.75z" fill="#FFB65C"/></svg>