<svg width="24" height="25" fill="none" xmlns="http://www.w3.org/2000/svg"><path d="M21 24.525a.75.75 0 01-.75-.751v-4.505A2.253 2.253 0 0018 17.016a2.253 2.253 0 00-2.25 2.253A3.756 3.756 0 0112 23.023a3.756 3.756 0 01-3.75-3.754v-2.295a6.76 6.76 0 01-6-6.715V7.255A2.253 2.253 0 014.5 5.003h.75V1.248a.75.75 0 111.5 0v3.755h4.5V1.248a.75.75 0 111.5 0v3.755h.75c1.241 0 2.25 1.01 2.25 2.252v3.004a6.76 6.76 0 01-6 6.715v2.295A2.253 2.253 0 0012 21.522c1.241 0 2.25-1.01 2.25-2.253A3.756 3.756 0 0118 15.515a3.756 3.756 0 013.75 3.754v4.505a.75.75 0 01-.75.75zM4.5 6.505a.75.75 0 00-.75.75v3.004A5.259 5.259 0 009 15.515a5.259 5.259 0 005.25-5.256V7.255a.75.75 0 00-.75-.75h-9z" fill="#1B314B"/><path d="M7.5 9.506a.75.75 0 010-1.5h3a.75.75 0 010 1.5h-3z" fill="#1B314B"/></svg>