<svg width="23" height="24" viewBox="0 0 23 24" fill="none" xmlns="http://www.w3.org/2000/svg">
<path fill-rule="evenodd" clip-rule="evenodd" d="M21.5625 19.7158V11.7819C21.5625 6.08829 17.0574 1.47273 11.5 1.47273C5.95965 1.47273 1.4375 6.17884 1.4375 11.89C1.4375 17.7216 6.055 22.5274 11.713 22.5274H18.8182C19.4445 22.5274 19.8489 22.5267 20.159 22.507C20.4578 22.488 20.5728 22.4554 20.6274 22.4345C21.018 22.2853 21.3262 21.9696 21.4719 21.5693C21.4922 21.5134 21.5241 21.3956 21.5426 21.0895C21.5619 20.7718 21.5625 20.3575 21.5625 19.7158ZM11.5 0C5.14873 0 0 5.38301 0 11.89C0 18.5174 5.24407 24.0001 11.713 24.0001H18.8182C20.0352 24.0001 20.6437 24.0001 21.1297 23.8144C21.911 23.5159 22.5273 22.8845 22.8187 22.084C23 21.5861 23 20.9627 23 19.7158V11.7819C23 5.27492 17.8513 0 11.5 0Z" fill="black"/>
<path fill-rule="evenodd" clip-rule="evenodd" d="M7.23602 10.5821C8.03529 10.5821 8.68323 11.2415 8.68323 12.0548C8.68323 12.8682 8.03529 13.5276 7.23602 13.5276C6.43675 13.5276 5.78882 12.8682 5.78882 12.0548C5.78882 11.2415 6.43675 10.5821 7.23602 10.5821Z" fill="black"/>
<path fill-rule="evenodd" clip-rule="evenodd" d="M11.5777 10.5821C12.3769 10.5821 13.0249 11.2415 13.0249 12.0549C13.0249 12.8682 12.3769 13.5276 11.5777 13.5276C10.7784 13.5276 10.1305 12.8682 10.1305 12.0549C10.1305 11.2415 10.7784 10.5821 11.5777 10.5821Z" fill="black"/>
<path fill-rule="evenodd" clip-rule="evenodd" d="M15.9193 10.5821C16.7186 10.5821 17.3665 11.2415 17.3665 12.0549C17.3665 12.8682 16.7186 13.5276 15.9193 13.5276C15.12 13.5276 14.4721 12.8682 14.4721 12.0549C14.4721 11.2415 15.12 10.5821 15.9193 10.5821Z" fill="black"/>
</svg>
