<svg width="24" height="25" viewBox="0 0 24 25" fill="none" xmlns="http://www.w3.org/2000/svg">
<path fill-rule="evenodd" clip-rule="evenodd" d="M22.5 20.7141V12.7802C22.5 7.08658 17.799 2.47103 12 2.47103C6.21877 2.47103 1.5 7.17713 1.5 12.8883C1.5 18.7199 6.31826 23.5257 12.2222 23.5257H19.6364C20.2899 23.5257 20.7119 23.525 21.0355 23.5053C21.3473 23.4863 21.4672 23.4537 21.5242 23.4328C21.9318 23.2835 22.2534 22.9678 22.4054 22.5676C22.4267 22.5117 22.4599 22.3939 22.4792 22.0878C22.4993 21.77 22.5 21.3558 22.5 20.7141ZM12 0.998291C5.37258 0.998291 0 6.38131 0 12.8883C0 19.5157 5.47208 24.9984 12.2222 24.9984H19.6364C20.9063 24.9984 21.5413 24.9984 22.0484 24.8127C22.8637 24.5141 23.5068 23.8827 23.8109 23.0823C24 22.5844 24 21.9609 24 20.7141V12.7802C24 6.27322 18.6274 0.998291 12 0.998291Z" fill="black"/>
<path fill-rule="evenodd" clip-rule="evenodd" d="M7.55063 11.5804C8.38465 11.5804 9.06076 12.2398 9.06076 13.0531C9.06076 13.8665 8.38465 14.5259 7.55063 14.5259C6.71661 14.5259 6.04051 13.8665 6.04051 13.0531C6.04051 12.2398 6.71661 11.5804 7.55063 11.5804Z" fill="black"/>
<path fill-rule="evenodd" clip-rule="evenodd" d="M12.0811 11.5804C12.9151 11.5804 13.5912 12.2398 13.5912 13.0532C13.5912 13.8665 12.9151 14.5259 12.0811 14.5259C11.247 14.5259 10.5709 13.8665 10.5709 13.0532C10.5709 12.2398 11.247 11.5804 12.0811 11.5804Z" fill="black"/>
<path fill-rule="evenodd" clip-rule="evenodd" d="M16.6114 11.5804C17.4455 11.5804 18.1216 12.2398 18.1216 13.0532C18.1216 13.8665 17.4455 14.5259 16.6114 14.5259C15.7774 14.5259 15.1013 13.8665 15.1013 13.0532C15.1013 12.2398 15.7774 11.5804 16.6114 11.5804Z" fill="black"/>
</svg>
