<svg width="24" height="24" viewBox="0 0 24 24" fill="none" xmlns="http://www.w3.org/2000/svg">
<path d="M7.2444 22C7.03638 22 6.82658 21.9787 6.61856 21.9379C5.77937 21.7712 5.05575 21.2904 4.58103 20.5826L0.242838 14.4412C-0.180314 13.8416 -0.0363007 13.0096 0.564646 12.5874C0.790446 12.4278 1.05536 12.3444 1.33272 12.3444C1.76654 12.3444 2.17369 12.5555 2.42438 12.9085L6.78036 19.0765C6.87637 19.2202 6.99371 19.3001 7.13772 19.3284C7.17328 19.3355 7.20884 19.3391 7.2444 19.3391C7.34752 19.3391 7.44887 19.3071 7.53599 19.2486C7.58577 19.2149 7.62844 19.1741 7.664 19.128L21.6245 1.5038C21.8769 1.18449 22.2574 1 22.6681 1C22.9668 1 23.2602 1.10111 23.4931 1.28561C23.7722 1.50557 23.95 1.82134 23.9909 2.17435C24.0318 2.52737 23.934 2.87506 23.7135 3.15357L9.76909 20.7565C9.56818 21.0208 9.31215 21.2603 9.01702 21.4589C8.48896 21.8137 7.87557 22 7.2444 22Z" fill="black"/>
</svg>
