<svg width="24" height="25" viewBox="0 0 24 25" fill="none" xmlns="http://www.w3.org/2000/svg">
<path d="M12 24.997C5.383 24.997 0 19.614 0 12.997C0 6.37998 5.383 0.996979 12 0.996979C18.617 0.996979 24 6.37998 24 12.997C24 19.614 18.617 24.997 12 24.997ZM12 2.49698C6.21 2.49698 1.5 7.20698 1.5 12.997C1.5 18.787 6.21 23.497 12 23.497C17.79 23.497 22.5 18.787 22.5 12.997C22.5 7.20698 17.79 2.49698 12 2.49698Z" fill="black"/>
<path fill-rule="evenodd" clip-rule="evenodd" d="M6.53033 12.3067C6.82322 12.0141 7.2981 12.0141 7.59099 12.3067L10.5962 15.3085L17.1369 8.77522C17.4298 8.48266 17.9047 8.48266 18.1976 8.77522C18.4905 9.06778 18.4905 9.54211 18.1976 9.83466L11.1265 16.8976C10.8336 17.1902 10.3588 17.1902 10.0659 16.8976L6.53033 13.3661C6.23744 13.0736 6.23744 12.5993 6.53033 12.3067Z" fill="black"/>
</svg>
