<svg width="24" height="24" viewBox="0 0 24 24" fill="none" xmlns="http://www.w3.org/2000/svg">
<path d="M3.44388 22.5306C2.35484 22.5306 1.46939 21.6452 1.46939 20.5561V4.76021C1.46939 3.67117 2.35484 2.78572 3.44388 2.78572H5.41837V2.12755C5.41837 1.76425 5.71322 1.46939 6.07653 1.46939C6.43984 1.46939 6.73469 1.76425 6.73469 2.12755V2.78572H17.2653V2.12755C17.2653 1.76425 17.5602 1.46939 17.9235 1.46939C18.2868 1.46939 18.5816 1.76425 18.5816 2.12755V2.78572H20.5561C21.6452 2.78572 22.5306 3.67117 22.5306 4.76021V20.5561C22.5306 21.6452 21.6452 22.5306 20.5561 22.5306H3.44388ZM3.44388 4.10204C3.08057 4.10204 2.78571 4.3969 2.78571 4.76021V20.5561C2.78571 20.9194 3.08057 21.2143 3.44388 21.2143H20.5561C20.9194 21.2143 21.2143 20.9194 21.2143 20.5561V4.76021C21.2143 4.3969 20.9194 4.10204 20.5561 4.10204H18.5816V4.76021C18.5816 5.12351 18.2868 5.41837 17.9235 5.41837C17.5602 5.41837 17.2653 5.12351 17.2653 4.76021V4.10204H6.73469V4.76021C6.73469 5.12351 6.43984 5.41837 6.07653 5.41837C5.71322 5.41837 5.41837 5.12351 5.41837 4.76021V4.10204H3.44388Z" fill="black"/>
<path d="M12.6582 17.9235C12.2949 17.9235 12 17.6286 12 17.2653C12 16.902 12.2949 16.6071 12.6582 16.6071H16.6071C16.9704 16.6071 17.2653 16.902 17.2653 17.2653C17.2653 17.6286 16.9704 17.9235 16.6071 17.9235H12.6582Z" fill="#29D305"/>
<path d="M12.6582 11.3418C12.2949 11.3418 12 11.047 12 10.6837C12 10.3204 12.2949 10.0255 12.6582 10.0255H16.6071C16.9704 10.0255 17.2653 10.3204 17.2653 10.6837C17.2653 11.047 16.9704 11.3418 16.6071 11.3418H12.6582Z" fill="#29D305"/>
<path d="M7.39286 19.2398C7.21735 19.2398 7.05149 19.1713 6.92776 19.0467L4.95327 17.0722C4.82865 16.9476 4.7602 16.7826 4.7602 16.6071C4.7602 16.4316 4.82865 16.2658 4.95327 16.142C5.077 16.0174 5.24286 15.949 5.41837 15.949C5.59388 15.949 5.75974 16.0174 5.88347 16.142L7.32178 17.5803L9.63061 14.501C9.75522 14.336 9.9518 14.2377 10.158 14.2377C10.3011 14.2377 10.438 14.2834 10.552 14.3694C10.6924 14.4747 10.7837 14.6282 10.8083 14.8029C10.8329 14.9766 10.789 15.1504 10.6837 15.2908L7.91939 18.9765C7.80443 19.1292 7.6298 19.2249 7.43937 19.238C7.4262 19.2389 7.40953 19.2398 7.39286 19.2398Z" fill="black"/>
<path d="M7.39286 12.3949C7.21735 12.3949 7.05149 12.3264 6.92776 12.2018L4.95327 10.2273C4.82865 10.1036 4.7602 9.93775 4.7602 9.76224C4.7602 9.58673 4.82865 9.42087 4.95327 9.29714C5.077 9.17253 5.24286 9.10408 5.41837 9.10408C5.59388 9.10408 5.75974 9.17253 5.88347 9.29714L7.32178 10.7346L9.63062 7.65612C9.75435 7.49114 9.9518 7.39285 10.158 7.39285C10.3011 7.39285 10.438 7.43849 10.5529 7.52449C10.6933 7.62979 10.7846 7.78336 10.8092 7.958C10.8337 8.13175 10.789 8.30551 10.6837 8.44591L7.91939 12.1316C7.80443 12.2843 7.6298 12.38 7.43937 12.3931C7.42357 12.394 7.40778 12.3949 7.39286 12.3949Z" fill="black"/>
</svg>
