<svg width="24" height="26" viewBox="0 0 24 26" fill="none" xmlns="http://www.w3.org/2000/svg">
<path d="M12 25.0245C5.383 25.0245 0 19.6353 0 13.0107C0 6.38616 5.383 0.996986 12 0.996986C18.617 0.996986 24 6.38616 24 13.0107C24 19.6353 18.617 25.0245 12 25.0245ZM12 2.49871C6.21 2.49871 1.5 7.21411 1.5 13.0107C1.5 18.8074 6.21 23.5228 12 23.5228C17.79 23.5228 22.5 18.8074 22.5 13.0107C22.5 7.21411 17.79 2.49871 12 2.49871Z" fill="black"/>
<path fill-rule="evenodd" clip-rule="evenodd" d="M6.53033 12.3197C6.82322 12.0268 7.2981 12.0268 7.59099 12.3197L10.5962 15.3249L17.1369 8.78414C17.4298 8.49125 17.9047 8.49125 18.1976 8.78414C18.4905 9.07704 18.4905 9.55191 18.1976 9.8448L11.1265 16.9159C10.8336 17.2088 10.3588 17.2088 10.0659 16.9159L6.53033 13.3803C6.23744 13.0874 6.23744 12.6126 6.53033 12.3197Z" fill="black"/>
</svg>
