<svg width="24" height="25" viewBox="0 0 24 25" fill="none" xmlns="http://www.w3.org/2000/svg">
<path d="M12 24.997C5.383 24.997 0 19.614 0 12.997C0 6.37998 5.383 0.996979 12 0.996979C18.617 0.996979 24 6.37998 24 12.997C24 19.614 18.617 24.997 12 24.997Z" fill="black"/>
<path fill-rule="evenodd" clip-rule="evenodd" d="M6.46967 12.3059C6.76256 12.0133 7.23744 12.0133 7.53033 12.3059L10.5355 15.3076L17.0763 8.77438C17.3692 8.48182 17.844 8.48182 18.1369 8.77438C18.4298 9.06693 18.4298 9.54126 18.1369 9.83382L11.0659 16.8968C10.773 17.1893 10.2981 17.1893 10.0052 16.8968L6.46967 13.3653C6.17678 13.0727 6.17678 12.5984 6.46967 12.3059Z" fill="white"/>
</svg>
