<svg width="24" height="25" fill="none" xmlns="http://www.w3.org/2000/svg"><path d="M9.325 18.076a1.79 1.79 0 01-1.498-.8l-2.44-3.466A.752.752 0 016 12.627c.244 0 .473.119.614.318l2.45 3.481a.306.306 0 00.261.148.294.294 0 00.236-.119l7.852-9.946a.749.749 0 111.175.931l-7.843 9.934a1.78 1.78 0 01-1.42.702z" fill="#1B314B"/><path d="M12 24.164c-6.617 0-12-5.39-12-12.014S5.383.136 12 .136s12 5.39 12 12.014c0 6.625-5.383 12.014-12 12.014zm0-22.526c-5.79 0-10.5 4.716-10.5 10.512 0 5.797 4.71 10.512 10.5 10.512s10.5-4.715 10.5-10.512c0-5.796-4.71-10.512-10.5-10.512z" fill="#1B314B"/></svg>