<svg width="24" height="24" viewBox="0 0 24 24" fill="none" xmlns="http://www.w3.org/2000/svg">
<path d="M2.25 24C1.009 24 0 22.991 0 21.75V3.75C0 2.509 1.009 1.5 2.25 1.5H4.5V0.75C4.5 0.336 4.836 0 5.25 0C5.664 0 6 0.336 6 0.75V1.5H18V0.75C18 0.336 18.336 0 18.75 0C19.164 0 19.5 0.336 19.5 0.75V1.5H21.75C22.991 1.5 24 2.509 24 3.75V21.75C24 22.991 22.991 24 21.75 24H2.25ZM2.25 3C1.836 3 1.5 3.336 1.5 3.75V21.75C1.5 22.164 1.836 22.5 2.25 22.5H21.75C22.164 22.5 22.5 22.164 22.5 21.75V3.75C22.5 3.336 22.164 3 21.75 3H19.5V3.75C19.5 4.164 19.164 4.5 18.75 4.5C18.336 4.5 18 4.164 18 3.75V3H6V3.75C6 4.164 5.664 4.5 5.25 4.5C4.836 4.5 4.5 4.164 4.5 3.75V3H2.25Z" fill="black"/>
<path d="M12.75 18.75C12.336 18.75 12 18.414 12 18C12 17.586 12.336 17.25 12.75 17.25H17.25C17.664 17.25 18 17.586 18 18C18 18.414 17.664 18.75 17.25 18.75H12.75Z" fill="#29D305"/>
<path d="M12.75 11.2501C12.336 11.2501 12 10.9141 12 10.5001C12 10.0861 12.336 9.75006 12.75 9.75006H17.25C17.664 9.75006 18 10.0861 18 10.5001C18 10.9141 17.664 11.2501 17.25 11.2501H12.75Z" fill="#29D305"/>
<path d="M6.75 20.25C6.55 20.25 6.361 20.172 6.22 20.03L3.97 17.78C3.828 17.638 3.75 17.45 3.75 17.25C3.75 17.05 3.828 16.861 3.97 16.72C4.111 16.578 4.3 16.5 4.5 16.5C4.7 16.5 4.889 16.578 5.03 16.72L6.669 18.359L9.3 14.85C9.442 14.662 9.666 14.55 9.901 14.55C10.064 14.55 10.22 14.602 10.35 14.7C10.51 14.82 10.614 14.995 10.642 15.194C10.67 15.392 10.62 15.59 10.5 15.75L7.35 19.95C7.219 20.124 7.02 20.233 6.803 20.248C6.788 20.249 6.769 20.25 6.75 20.25Z" fill="black"/>
<path d="M6.75 12.4501C6.55 12.4501 6.361 12.3721 6.22 12.2301L3.97 9.98006C3.828 9.83906 3.75 9.65006 3.75 9.45006C3.75 9.25006 3.828 9.06106 3.97 8.92006C4.111 8.77806 4.3 8.70006 4.5 8.70006C4.7 8.70006 4.889 8.77806 5.03 8.92006L6.669 10.5581L9.3 7.05006C9.441 6.86206 9.666 6.75006 9.901 6.75006C10.064 6.75006 10.22 6.80206 10.351 6.90006C10.511 7.02006 10.615 7.19506 10.643 7.39406C10.671 7.59206 10.62 7.79006 10.5 7.95006L7.35 12.1501C7.219 12.3241 7.02 12.4331 6.803 12.4481C6.785 12.4491 6.767 12.4501 6.75 12.4501Z" fill="black"/>
</svg>
