<svg width="24" height="24" viewBox="0 0 24 24" fill="none" xmlns="http://www.w3.org/2000/svg">
<path d="M8.50835 20C8.35018 20 8.19066 19.9838 8.03249 19.9527C7.3944 19.8256 6.84419 19.4594 6.48324 18.9201L3.18464 14.2409C2.8629 13.7841 2.9724 13.1502 3.42933 12.8285C3.60102 12.7069 3.80245 12.6434 4.01335 12.6434C4.34321 12.6434 4.65279 12.8042 4.8434 13.0732L8.15551 17.7726C8.22852 17.8821 8.31774 17.9429 8.42724 17.9645C8.45428 17.9699 8.48132 17.9726 8.50835 17.9726C8.58676 17.9726 8.66382 17.9483 8.73006 17.9037C8.76792 17.878 8.80036 17.8469 8.8274 17.8118L19.4424 4.38385C19.6343 4.14056 19.9236 4 20.2359 4C20.463 4 20.6861 4.07704 20.8632 4.2176C21.0754 4.3852 21.2106 4.62578 21.2417 4.89475C21.2728 5.16371 21.1985 5.42862 21.0308 5.64082L10.428 19.0525C10.2753 19.2539 10.0806 19.4364 9.85618 19.5878C9.45467 19.8581 8.98827 20 8.50835 20Z" fill="black"/>
</svg>
