<svg width="24" height="26" viewBox="0 0 24 26" fill="none" xmlns="http://www.w3.org/2000/svg">
<path d="M12 25.0246C5.383 25.0246 0 19.6354 0 13.0108C0 6.38617 5.383 0.996986 12 0.996986C18.617 0.996986 24 6.38617 24 13.0108C24 19.6354 18.617 25.0246 12 25.0246Z" fill="black"/>
<path fill-rule="evenodd" clip-rule="evenodd" d="M6.46968 12.3189C6.76257 12.026 7.23744 12.026 7.53034 12.3189L10.5355 15.3241L17.0763 8.78332C17.3692 8.49043 17.844 8.49042 18.1369 8.78332C18.4298 9.07621 18.4298 9.55109 18.1369 9.84398L11.0659 16.915C10.773 17.2079 10.2981 17.2079 10.0052 16.915L6.46968 13.3795C6.17678 13.0866 6.17678 12.6117 6.46968 12.3189Z" fill="white"/>
</svg>
