<svg width="24" height="25" viewBox="0 0 24 25" fill="none" xmlns="http://www.w3.org/2000/svg">
<path d="M12 17.2698C11.586 17.2698 11.25 16.9334 11.25 16.5189V12.7646H7.5C7.086 12.7646 6.75 12.4282 6.75 12.0138C6.75 11.5993 7.086 11.2629 7.5 11.2629H11.25V7.50861C11.25 7.09414 11.586 6.75775 12 6.75775C12.414 6.75775 12.75 7.09414 12.75 7.50861V11.2629H16.5C16.914 11.2629 17.25 11.5993 17.25 12.0138C17.25 12.4282 16.914 12.7646 16.5 12.7646H12.75V16.5189C12.75 16.9334 12.414 17.2698 12 17.2698Z" fill="black"/>
<path d="M12 24.0275C5.383 24.0275 0 18.6384 0 12.0138C0 5.38917 5.383 0 12 0C18.617 0 24 5.38917 24 12.0138C24 18.6384 18.617 24.0275 12 24.0275ZM12 1.50172C6.21 1.50172 1.5 6.21712 1.5 12.0138C1.5 17.8104 6.21 22.5258 12 22.5258C17.79 22.5258 22.5 17.8104 22.5 12.0138C22.5 6.21712 17.79 1.50172 12 1.50172Z" fill="#29D305"/>
</svg>
