<svg width="24" height="24" fill="none" xmlns="http://www.w3.org/2000/svg"><path d="M12 23.276C5.797 23.276.75 18.223.75 12.013S5.797.75 12 .75s11.25 5.053 11.25 11.263S18.203 23.276 12 23.276zm0-21.024c-5.376 0-9.75 4.379-9.75 9.76 0 5.383 4.374 9.762 9.75 9.762s9.75-4.379 9.75-9.761S17.376 2.252 12 2.252z" fill="#1B314B"/><path d="M16.687 17.458a.742.742 0 01-.53-.22l-4.687-4.694a.742.742 0 01-.163-.245l-.009-.025a.738.738 0 01-.047-.26V8.259a.75.75 0 111.5 0v3.443l4.467 4.474a.744.744 0 010 1.06.751.751 0 01-.531.222z" fill="#1B314B"/><circle cx="12" cy="4.5" r="1" fill="#FFB65C"/></svg>