<svg width="24" height="24" viewBox="0 0 24 24" fill="none" xmlns="http://www.w3.org/2000/svg">
<g clip-path="url(#clip0)">
<path fill-rule="evenodd" clip-rule="evenodd" d="M23.7803 1.27935C24.0732 0.98646 24.0732 0.511587 23.7803 0.218693C23.4874 -0.0741999 23.0126 -0.0741999 22.7197 0.218693L12 10.9384L1.28033 0.218693C0.987437 -0.0741999 0.512563 -0.0741999 0.21967 0.218693C-0.0732233 0.511587 -0.0732233 0.98646 0.21967 1.27935L10.9393 11.999L0.21967 22.7187C-0.0732233 23.0116 -0.0732233 23.4865 0.21967 23.7794C0.512563 24.0722 0.987437 24.0722 1.28033 23.7794L12 13.0597L22.7197 23.7794C23.0126 24.0722 23.4874 24.0722 23.7803 23.7794C24.0732 23.4865 24.0732 23.0116 23.7803 22.7187L13.0607 11.999L23.7803 1.27935Z" fill="black"/>
</g>
<defs>
<clipPath id="clip0">
<path d="M0 0H24V24H0V0Z" fill="white"/>
</clipPath>
</defs>
</svg>
