<svg width="24" height="25" fill="none" xmlns="http://www.w3.org/2000/svg"><path d="M6.026 22.438a.752.752 0 01-.53-1.281l3.75-3.75a.744.744 0 011.06 0 .752.752 0 010 1.06l-3.75 3.75a.741.741 0 01-.53.22zm9.001 0a.752.752 0 01-.53-1.281l3.75-3.75a.744.744 0 011.06 0 .752.752 0 010 1.06l-3.75 3.75a.744.744 0 01-.53.22zm-3.001-1.5a.752.752 0 01-.53-1.281l2.25-2.25a.744.744 0 011.06 0 .752.752 0 010 1.06l-2.25 2.25a.741.741 0 01-.53.22zm-9 0a.752.752 0 01-.53-1.281l2.25-2.25a.744.744 0 011.06 0 .752.752 0 010 1.06l-2.25 2.25a.741.741 0 01-.53.22zm4.5-5.25a4.524 4.524 0 01-1.95-.442 4.464 4.464 0 01-2.296-2.561 4.463 4.463 0 01.187-3.435 4.524 4.524 0 014.059-2.552c.37 0 .736.046 1.093.136a6.757 6.757 0 016.414-4.646 6.71 6.71 0 014.779 1.983 6.706 6.706 0 011.97 4.775 6.701 6.701 0 01-1.982 4.77 6.706 6.706 0 01-4.767 1.97H7.526v.002zm7.528-1.5c1.38 0 2.697-.545 3.688-1.533a5.219 5.219 0 001.542-3.711A5.215 5.215 0 0018.75 5.23a5.215 5.215 0 00-3.711-1.542 5.255 5.255 0 00-5.163 4.268l-.002.01a5.16 5.16 0 00-.1.975c0 .213.015.43.04.646a.751.751 0 11-1.487.196 6.819 6.819 0 01-.052-.844c0-.212.012-.422.033-.631a2.88 2.88 0 00-.783-.11 3.014 3.014 0 00-2.706 1.7 2.973 2.973 0 00-.124 2.289 2.976 2.976 0 001.53 1.707c.402.192.85.294 1.295.294h7.533z" fill="#1B314B"/></svg>