<svg width="24" height="24" viewBox="0 0 24 24" fill="none" xmlns="http://www.w3.org/2000/svg">
<path d="M8.156 23.988C7.48 23.988 6.833 23.738 6.334 23.284C5.736 22.74 5.414 21.964 5.451 21.156L5.523 19.752C5.557 19.087 5.044 18.518 4.379 18.483C4.358 18.482 4.337 18.481 4.317 18.481C4.296 18.481 4.276 18.481 4.255 18.483L2.854 18.554C2.807 18.556 2.758 18.558 2.71 18.558C2.042 18.558 1.399 18.311 0.901 17.862C0.364 17.378 0.0470001 16.714 0.00900008 15.991C-0.0339999 15.174 0.29 14.391 0.896 13.842L1.938 12.902C2.177 12.686 2.318 12.389 2.335 12.066C2.351 11.743 2.241 11.433 2.025 11.193C1.998 11.163 1.969 11.134 1.938 11.106L0.896 10.16C0.36 9.67403 0.0460001 9.00903 0.0110001 8.28603C-0.0249999 7.56403 0.224 6.87103 0.71 6.33503C1.222 5.77003 1.952 5.44603 2.712 5.44603C2.756 5.44603 2.801 5.44703 2.845 5.44903L4.247 5.52003C4.268 5.52203 4.31 5.52203 4.31 5.52203C4.954 5.52203 5.484 5.01903 5.518 4.37803C5.52 4.33603 5.52 4.29303 5.518 4.25103L5.451 2.84503C5.381 1.35203 6.538 0.0810283 8.03 0.0110283C8.073 0.00902832 8.116 0.00802832 8.159 0.00802832C8.919 0.00802832 9.648 0.331028 10.16 0.894028L11.101 1.93303C11.318 2.17403 11.614 2.31503 11.936 2.33203C11.958 2.33303 11.98 2.33403 12.002 2.33403C12.303 2.33403 12.581 2.22703 12.807 2.02403C12.838 1.99603 12.867 1.96703 12.894 1.93603L13.844 0.894028C14.327 0.359028 14.992 0.0440283 15.715 0.00702832C15.761 0.00502832 15.806 0.00402832 15.851 0.00402832C16.524 0.00402832 17.17 0.252028 17.669 0.703028C18.276 1.25103 18.6 2.03403 18.558 2.85103L18.487 4.25103C18.454 4.91603 18.968 5.48403 19.633 5.51803C19.654 5.51903 19.674 5.52003 19.694 5.52003C19.713 5.52003 19.732 5.52003 19.751 5.51903L21.151 5.44803C21.198 5.44603 21.243 5.44503 21.289 5.44503C21.961 5.44503 22.605 5.69403 23.104 6.14703C23.64 6.63303 23.955 7.29903 23.991 8.02103C24.031 8.83603 23.707 9.61703 23.102 10.164L22.06 11.104C21.821 11.32 21.68 11.617 21.664 11.94C21.647 12.263 21.758 12.573 21.974 12.812C22.002 12.843 22.03 12.872 22.06 12.898L23.102 13.839C23.639 14.324 23.955 14.989 23.992 15.712C24.029 16.435 23.782 17.129 23.297 17.665C22.784 18.232 22.05 18.557 21.282 18.557C21.239 18.557 21.195 18.556 21.151 18.554L19.749 18.483C19.727 18.482 19.705 18.481 19.683 18.481C19.381 18.481 19.103 18.589 18.877 18.792C18.637 19.008 18.496 19.304 18.48 19.627C18.478 19.668 18.478 19.71 18.48 19.752L18.551 21.152C18.583 21.877 18.332 22.57 17.843 23.105C17.354 23.64 16.687 23.952 15.965 23.984C15.922 23.986 15.877 23.987 15.832 23.987C15.082 23.987 14.358 23.666 13.846 23.107L12.902 22.063C12.673 21.81 12.346 21.665 12.003 21.665C11.703 21.665 11.416 21.775 11.194 21.976C11.164 22.003 11.134 22.032 11.107 22.063L10.161 23.105C9.649 23.666 8.918 23.988 8.156 23.988ZM4.317 16.982C4.363 16.982 4.409 16.983 4.455 16.986C5.947 17.063 7.098 18.339 7.021 19.83L6.949 21.23C6.933 21.587 7.076 21.933 7.343 22.176C7.569 22.382 7.85 22.49 8.155 22.49C8.175 22.49 8.194 22.49 8.214 22.489C8.536 22.474 8.834 22.334 9.051 22.095L9.995 21.055C10.055 20.988 10.12 20.923 10.188 20.861C10.687 20.411 11.331 20.163 12.003 20.163C12.769 20.163 13.502 20.488 14.015 21.055L14.956 22.096C15.182 22.343 15.508 22.485 15.852 22.485L15.901 22.484C16.565 22.454 17.083 21.888 17.053 21.222L16.982 19.827C16.977 19.735 16.977 19.642 16.982 19.549C17.019 18.827 17.335 18.162 17.872 17.678C18.371 17.228 19.013 16.98 19.681 16.98C19.729 16.98 19.777 16.981 19.826 16.984L21.225 17.055C21.249 17.056 21.272 17.057 21.294 17.057C21.63 17.057 21.954 16.912 22.183 16.658C22.4 16.418 22.51 16.108 22.494 15.786C22.478 15.463 22.337 15.167 22.097 14.95L21.055 14.01C20.987 13.949 20.922 13.884 20.86 13.815C19.859 12.707 19.946 10.99 21.055 9.98803L22.097 9.04803C22.367 8.80403 22.511 8.45603 22.493 8.09203C22.477 7.76903 22.337 7.47203 22.097 7.25503C21.874 7.05303 21.587 6.94203 21.288 6.94203C21.267 6.94203 21.247 6.94303 21.226 6.94403L19.827 7.01503C19.783 7.01703 19.738 7.01803 19.694 7.01803C19.648 7.01803 19.602 7.01703 19.557 7.01403C18.066 6.93903 16.914 5.66503 16.989 4.17403L17.06 2.77303C17.079 2.40803 16.934 2.05903 16.663 1.81503C16.437 1.61003 16.16 1.50303 15.861 1.50303C15.839 1.50303 15.816 1.50403 15.793 1.50503C15.469 1.52103 15.172 1.66203 14.956 1.90203L14.008 2.94203C13.949 3.00803 13.882 3.07503 13.812 3.13803C13.314 3.58703 12.67 3.83403 11.998 3.83403C11.952 3.83403 11.906 3.83303 11.86 3.83103C11.137 3.79303 10.473 3.47703 9.989 2.94003L9.05 1.90203C8.822 1.65203 8.496 1.50803 8.156 1.50803C8.137 1.50803 8.118 1.50803 8.099 1.50903C7.434 1.54003 6.918 2.10803 6.949 2.77403L7.016 4.17403C7.021 4.26503 7.021 4.36103 7.016 4.45703C6.94 5.89503 5.752 7.02203 4.311 7.02203C4.264 7.02203 4.217 7.02103 4.17 7.01803L2.771 6.94803C2.753 6.94703 2.733 6.94603 2.714 6.94603C2.375 6.94603 2.049 7.09103 1.821 7.34203C1.604 7.58103 1.493 7.89003 1.509 8.21203C1.525 8.53403 1.665 8.83103 1.904 9.04803L2.945 9.99303C3.012 10.054 3.077 10.118 3.138 10.187C4.139 11.296 4.052 13.013 2.943 14.014L1.902 14.954C1.632 15.198 1.488 15.548 1.507 15.912C1.524 16.234 1.665 16.531 1.905 16.747C2.127 16.947 2.414 17.057 2.712 17.057C2.733 17.057 2.755 17.057 2.776 17.055L4.177 16.984C4.224 16.983 4.27 16.982 4.317 16.982Z" fill="black"/>
<path d="M12 17.25C9.105 17.25 6.75 14.895 6.75 12C6.75 9.105 9.105 6.75 12 6.75C14.895 6.75 17.25 9.105 17.25 12C17.25 14.895 14.895 17.25 12 17.25ZM12 8.25C9.932 8.25 8.25 9.932 8.25 12C8.25 14.068 9.932 15.75 12 15.75C14.068 15.75 15.75 14.068 15.75 12C15.75 9.932 14.068 8.25 12 8.25Z" fill="black"/>
</svg>
