<svg width="24" height="24" viewBox="0 0 24 24" fill="none" xmlns="http://www.w3.org/2000/svg">
<path fill-rule="evenodd" clip-rule="evenodd" d="M12 1.59336C6.25257 1.59336 1.59336 6.25257 1.59336 12C1.59336 17.7474 6.25257 22.4066 12 22.4066C17.7474 22.4066 22.4066 17.7474 22.4066 12C22.4066 6.25257 17.7474 1.59336 12 1.59336ZM0 12C0 5.37258 5.37258 0 12 0C18.6274 0 24 5.37258 24 12C24 18.6274 18.6274 24 12 24C5.37258 24 0 18.6274 0 12Z" fill="black"/>
<path fill-rule="evenodd" clip-rule="evenodd" d="M16.6869 5.32962C16.9201 5.24232 17.1708 5.21271 17.4179 5.2433C17.6649 5.27389 17.9009 5.36377 18.1057 5.50529C18.3105 5.64681 18.4781 5.83576 18.594 6.05603C18.71 6.27629 18.771 6.52134 18.7718 6.77028L18.7718 6.7728L18.7718 21.4785C18.7718 21.9185 18.4151 22.2752 17.9751 22.2752C17.5351 22.2752 17.1784 21.9185 17.1784 21.4785V6.90258L11.4531 10.9771C11.4062 11.0105 11.3558 11.0387 11.3029 11.0612V13.4938C11.3029 13.9338 10.9462 14.2905 10.5062 14.2905C10.0662 14.2905 9.70955 13.9338 9.70955 13.4938V11.0226C9.71054 10.7091 9.80698 10.4033 9.98602 10.1459C10.1417 9.92223 10.3533 9.74433 10.5988 9.62943L16.5044 5.42662C16.5608 5.38649 16.6221 5.35389 16.6869 5.32962Z" fill="black"/>
<path fill-rule="evenodd" clip-rule="evenodd" d="M14.9378 10.5072C14.9378 10.0672 15.2944 9.71051 15.7344 9.71051H17.9751C18.4151 9.71051 18.7718 10.0672 18.7718 10.5072C18.7718 10.9472 18.4151 11.3039 17.9751 11.3039H15.7344C15.2944 11.3039 14.9378 10.9472 14.9378 10.5072Z" fill="black"/>
<path fill-rule="evenodd" clip-rule="evenodd" d="M13.444 13.4947C13.444 13.0547 13.8007 12.6981 14.2407 12.6981H17.9751C18.4151 12.6981 18.7718 13.0547 18.7718 13.4947C18.7718 13.9347 18.4151 14.2914 17.9751 14.2914H14.2407C13.8007 14.2914 13.444 13.9347 13.444 13.4947Z" fill="black"/>
<path fill-rule="evenodd" clip-rule="evenodd" d="M4.48133 16.4813C4.48133 16.0413 4.83801 15.6846 5.27801 15.6846H9.01245C9.45244 15.6846 9.80913 16.0413 9.80913 16.4813C9.80913 16.9213 9.45244 17.278 9.01245 17.278H5.27801C4.83801 17.278 4.48133 16.9213 4.48133 16.4813Z" fill="#29D305"/>
<path fill-rule="evenodd" clip-rule="evenodd" d="M12.7469 5.22919C13.1869 5.22919 13.5436 5.58587 13.5436 6.02587V9.07516C13.5436 9.51516 13.1869 9.87184 12.7469 9.87184C12.3069 9.87184 11.9502 9.51516 11.9502 9.07516V6.02587C11.9502 5.58587 12.3069 5.22919 12.7469 5.22919Z" fill="black"/>
<path fill-rule="evenodd" clip-rule="evenodd" d="M6.77178 14.2904C6.5869 14.2904 6.40959 14.3638 6.27886 14.4946C6.14813 14.6253 6.07469 14.8026 6.07469 14.9875V20.9626C6.07469 21.4026 5.718 21.7593 5.27801 21.7593C4.83801 21.7593 4.48133 21.4026 4.48133 20.9626V14.9875C4.48133 14.38 4.72264 13.7974 5.15219 13.3679C5.58173 12.9383 6.16432 12.697 6.77178 12.697H10.5062C11.1137 12.697 11.6963 12.9383 12.1258 13.3679C12.5554 13.7974 12.7967 14.38 12.7967 14.9875V23.2032C12.7967 23.6432 12.44 23.9999 12 23.9999C11.56 23.9999 11.2033 23.6432 11.2033 23.2032V14.9875C11.2033 14.8026 11.1299 14.6253 10.9991 14.4946C10.8684 14.3638 10.6911 14.2904 10.5062 14.2904H6.77178Z" fill="black"/>
</svg>
