<svg width="24" height="24" viewBox="0 0 24 24" fill="none" xmlns="http://www.w3.org/2000/svg">
<g clip-path="url(#clip0)">
<path fill-rule="evenodd" clip-rule="evenodd" d="M11.7551 2.0082C6.10146 2.0082 1.51832 6.59135 1.51832 12.2449C1.51832 17.8985 6.10146 22.4817 11.7551 22.4817C17.4086 22.4817 21.9918 17.8985 21.9918 12.2449C21.9918 6.59135 17.4086 2.0082 11.7551 2.0082ZM-0.0490265 12.2449C-0.0490265 5.72572 5.23584 0.440857 11.7551 0.440857C18.2743 0.440857 23.5591 5.72572 23.5591 12.2449C23.5591 18.7642 18.2743 24.049 11.7551 24.049C5.23584 24.049 -0.0490265 18.7642 -0.0490265 12.2449Z" fill="black"/>
<path fill-rule="evenodd" clip-rule="evenodd" d="M16.3655 5.68346C16.5948 5.59759 16.8415 5.56845 17.0845 5.59854C17.3275 5.62863 17.5596 5.71705 17.7611 5.85626C17.9626 5.99547 18.1273 6.18133 18.2414 6.39801C18.3555 6.61467 18.4155 6.85572 18.4163 7.1006L18.4163 7.10308L18.4163 21.5687C18.4163 22.0015 18.0654 22.3524 17.6326 22.3524C17.1998 22.3524 16.8489 22.0015 16.8489 21.5687V7.23074L11.2171 11.2387C11.171 11.2716 11.1214 11.2993 11.0693 11.3214V13.7143C11.0693 14.1472 10.7185 14.498 10.2857 14.498C9.85286 14.498 9.502 14.1472 9.502 13.7143V11.2835C9.50298 10.9751 9.59784 10.6743 9.77396 10.4211C9.92705 10.2011 10.1352 10.0261 10.3767 9.91307L16.1859 5.77887C16.2414 5.7394 16.3017 5.70733 16.3655 5.68346Z" fill="black"/>
<path fill-rule="evenodd" clip-rule="evenodd" d="M14.6449 10.7765C14.6449 10.3437 14.9957 9.9928 15.4285 9.9928H17.6326C18.0654 9.9928 18.4163 10.3437 18.4163 10.7765C18.4163 11.2093 18.0654 11.5601 17.6326 11.5601H15.4285C14.9957 11.5601 14.6449 11.2093 14.6449 10.7765Z" fill="black"/>
<path fill-rule="evenodd" clip-rule="evenodd" d="M13.1755 13.7153C13.1755 13.2824 13.5263 12.9316 13.9591 12.9316H17.6326C18.0654 12.9316 18.4163 13.2824 18.4163 13.7153C18.4163 14.1481 18.0654 14.4989 17.6326 14.4989H13.9591C13.5263 14.4989 13.1755 14.1481 13.1755 13.7153Z" fill="black"/>
<path fill-rule="evenodd" clip-rule="evenodd" d="M4.35913 16.6531C4.35913 16.2202 4.70999 15.8694 5.1428 15.8694H8.81627C9.24909 15.8694 9.59995 16.2202 9.59995 16.6531C9.59995 17.0859 9.24909 17.4367 8.81627 17.4367H5.1428C4.70999 17.4367 4.35913 17.0859 4.35913 16.6531Z" fill="#29D305"/>
<path fill-rule="evenodd" clip-rule="evenodd" d="M12.4897 5.58466C12.9226 5.58466 13.2734 5.93552 13.2734 6.36833V9.36784C13.2734 9.80065 12.9226 10.1515 12.4897 10.1515C12.0569 10.1515 11.7061 9.80065 11.7061 9.36784V6.36833C11.7061 5.93552 12.0569 5.58466 12.4897 5.58466Z" fill="black"/>
<path fill-rule="evenodd" clip-rule="evenodd" d="M6.61219 14.4979C6.43033 14.4979 6.25591 14.5702 6.12732 14.6988C5.99872 14.8274 5.92648 15.0018 5.92648 15.1837V21.0612C5.92648 21.494 5.57562 21.8449 5.1428 21.8449C4.70999 21.8449 4.35913 21.494 4.35913 21.0612V15.1837C4.35913 14.5861 4.59651 14.013 5.01904 13.5905C5.44157 13.168 6.01464 12.9306 6.61219 12.9306H10.2857C10.8832 12.9306 11.4563 13.168 11.8788 13.5905C12.3013 14.013 12.5387 14.5861 12.5387 15.1837V23.2653C12.5387 23.6981 12.1879 24.049 11.755 24.049C11.3222 24.049 10.9714 23.6981 10.9714 23.2653V15.1837C10.9714 15.0018 10.8991 14.8274 10.7705 14.6988C10.6419 14.5702 10.4675 14.4979 10.2857 14.4979H6.61219Z" fill="black"/>
</g>
<defs>
<clipPath id="clip0">
<path d="M0 0H24V24H0V0Z" fill="white"/>
</clipPath>
</defs>
</svg>
