<svg width="24" height="24" fill="none" xmlns="http://www.w3.org/2000/svg"><path fill-rule="evenodd" clip-rule="evenodd" d="M22.235 20.515l-9.74-17.561a.569.569 0 00-.99 0l-9.74 17.56a.555.555 0 00.495.821h19.48c.428 0 .7-.45.495-.82zm1.486-.797c.82 1.479-.268 3.282-1.981 3.282H2.26C.547 23-.542 21.197.28 19.718l9.74-17.561c.854-1.543 3.106-1.543 3.962 0l9.74 17.56z" fill="#1B314B"/><path fill-rule="evenodd" clip-rule="evenodd" d="M14.49 15.632a3.03 3.03 0 011.327.136c.929.311 1.489.968 1.802 1.735.303.742.38 1.597.38 2.38a.616.616 0 01-.615.617H8.337a.616.616 0 01-.616-.597 5.057 5.057 0 01.25-1.734 2.385 2.385 0 013.51-1.178l.004.003a5.1 5.1 0 01.364.256 8.75 8.75 0 011.385-1.171c.38-.24.81-.393 1.257-.447zM12.304 18.6a.655.655 0 00.145-.175 7.52 7.52 0 011.454-1.308 1.799 1.799 0 011.523-.18c.526.177.848.532 1.052 1.033.152.37.234.814.27 1.298h-4.924l.008-.012a7.51 7.51 0 01.472-.656zm-1.244-.4a3.885 3.885 0 00-.24-.167 1.153 1.153 0 00-1.688.557c-.07.221-.12.448-.15.678h1.82a.617.617 0 01-.008-.677c.085-.133.174-.264.266-.391zm-.83-8.043a.538.538 0 010 .758L8.414 12.73a.536.536 0 11-.758-.758l1.814-1.814c.21-.21.549-.21.758 0z" fill="#1B314B"/><path fill-rule="evenodd" clip-rule="evenodd" d="M8.564 11.064c.21-.21.549-.21.758 0l2.722 2.721a.536.536 0 01-.758.758l-2.722-2.72a.536.536 0 010-.759z" fill="#1B314B"/><path fill-rule="evenodd" clip-rule="evenodd" d="M12.495 14.09l-.904.906a.107.107 0 000 .15l.572.573a.536.536 0 01-.758.758l-.573-.573-.001-.001a1.18 1.18 0 010-1.663l.908-.91a1.18 1.18 0 011.663 0v.002l.574.573c.13.129.227.286.285.46l.188.566a.536.536 0 11-1.017.338l-.188-.564a.11.11 0 00-.026-.042l-.572-.572a.107.107 0 00-.15 0z" fill="#1B314B"/></svg>