<svg width="24" height="24" viewBox="0 0 24 24" fill="none" xmlns="http://www.w3.org/2000/svg">
<path fill-rule="evenodd" clip-rule="evenodd" d="M22.2352 20.5147L12.4949 2.95388C12.281 2.56831 11.718 2.56831 11.5042 2.9539L1.7648 20.5147C1.55973 20.8845 1.83187 21.3353 2.26015 21.3353H21.7398C22.1681 21.3353 22.4403 20.8844 22.2352 20.5147ZM23.7212 19.7175C24.5416 21.1966 23.453 23 21.7398 23H2.26015C0.547004 23 -0.541563 21.1967 0.278751 19.7176L10.0181 2.15679C10.8735 0.614444 13.1254 0.614394 13.9809 2.1567L23.7212 19.7175Z" fill="black"/>
<path fill-rule="evenodd" clip-rule="evenodd" d="M14.4905 15.6322C14.9372 15.5784 15.3902 15.6246 15.8168 15.7676L15.817 15.7676C16.7458 16.0794 17.3056 16.7361 17.6186 17.5025C17.9221 18.2455 17.9999 19.1003 17.9999 19.8836C17.9999 20.2241 17.7239 20.5001 17.3835 20.5001H8.33748C8.00446 20.5001 7.73164 20.2356 7.72131 19.9028C7.70335 19.3243 7.78481 18.7471 7.96214 18.1963C7.96513 18.187 7.96835 18.1778 7.97178 18.1686C8.09633 17.8367 8.2933 17.5367 8.54838 17.2904C8.80346 17.0442 9.11021 16.8579 9.44634 16.7451C9.78247 16.6323 10.1395 16.5959 10.4915 16.6384C10.8435 16.681 11.1815 16.8015 11.4811 16.9911L11.485 16.9935L11.485 16.9936C11.6099 17.074 11.7312 17.1597 11.8485 17.2505C12.2622 16.8196 12.7199 16.431 13.2152 16.0916C13.2215 16.0873 13.2279 16.083 13.2344 16.0789C13.6148 15.8387 14.0439 15.6861 14.4905 15.6322ZM12.3029 18.5992C12.3167 18.5877 12.3301 18.5755 12.3431 18.5626C12.3855 18.5206 12.4204 18.4739 12.448 18.4242C12.8727 17.9277 13.3613 17.4874 13.9021 17.1155C14.1255 16.9763 14.3767 16.8878 14.6381 16.8563C14.903 16.8243 15.1717 16.8517 15.4247 16.9365C15.9514 17.1133 16.2729 17.4685 16.4773 17.9688C16.6289 18.3399 16.7111 18.7828 16.7461 19.2672H11.8232C11.8259 19.2631 11.8286 19.259 11.8313 19.2549C11.9769 19.0276 12.1344 18.8087 12.3029 18.5992ZM11.0588 18.1988C10.9813 18.1401 10.9016 18.0844 10.8198 18.0317C10.6756 17.9407 10.5129 17.8829 10.3435 17.8625C10.1735 17.8419 10.001 17.8595 9.83856 17.914C9.67616 17.9685 9.52795 18.0585 9.40471 18.1775C9.28474 18.2933 9.19137 18.4337 9.13099 18.589C9.06071 18.8105 9.01087 19.0375 8.98189 19.2672H10.801C10.6677 19.0694 10.6563 18.8033 10.7931 18.5898C10.8783 18.4569 10.9669 18.3265 11.0588 18.1988Z" fill="black"/>
<path fill-rule="evenodd" clip-rule="evenodd" d="M10.2291 10.157C10.4385 10.3664 10.4385 10.7058 10.2291 10.9151L8.41511 12.7291C8.20576 12.9385 7.86635 12.9385 7.65701 12.7291C7.44766 12.5198 7.44766 12.1804 7.65701 11.971L9.47103 10.157C9.68037 9.94766 10.0198 9.94766 10.2291 10.157Z" fill="#29D305"/>
<path fill-rule="evenodd" clip-rule="evenodd" d="M8.56405 11.0641C8.77339 10.8547 9.11281 10.8547 9.32215 11.0641L12.0436 13.7855C12.2529 13.9948 12.2529 14.3342 12.0436 14.5436C11.8342 14.7529 11.4948 14.7529 11.2855 14.5436L8.56405 11.8222C8.35471 11.6128 8.35471 11.2734 8.56405 11.0641Z" fill="#29D305"/>
<path fill-rule="evenodd" clip-rule="evenodd" d="M12.4952 14.0907L11.5912 14.9959C11.5911 14.996 11.5913 14.9958 11.5912 14.9959C11.5714 15.016 11.56 15.0433 11.56 15.0715C11.56 15.0997 11.5711 15.1267 11.5909 15.1467C11.591 15.1469 11.5908 15.1466 11.5909 15.1467L12.1634 15.7193C12.3727 15.9286 12.3727 16.268 12.1634 16.4774C11.9541 16.6867 11.6146 16.6867 11.4053 16.4774L10.832 15.904L10.8309 15.9029C10.6112 15.682 10.4879 15.383 10.4879 15.0715C10.4879 14.7599 10.6112 14.461 10.8309 14.2401L10.8317 14.2392L11.7389 13.3308C11.9599 13.1111 12.2588 12.9879 12.5703 12.9879C12.8819 12.9879 13.1808 13.1111 13.4018 13.3308L13.4029 13.3319L13.9761 13.9051C13.9761 13.9051 13.976 13.905 13.9761 13.9051C14.1051 14.0341 14.2026 14.1913 14.2606 14.3643L14.261 14.3655L14.4491 14.9307C14.5426 15.2116 14.3907 15.5152 14.1098 15.6087C13.8289 15.7022 13.5254 15.5502 13.4319 15.2693L13.2441 14.7052C13.2441 14.7051 13.2442 14.7053 13.2441 14.7052C13.2388 14.6896 13.2299 14.6751 13.2183 14.6635L12.6459 14.0911C12.6458 14.091 12.646 14.0913 12.6459 14.0911C12.6259 14.0714 12.5985 14.06 12.5703 14.06C12.5422 14.06 12.5152 14.071 12.4952 14.0907Z" fill="#29D305"/>
</svg>
