<svg width="24" height="24" viewBox="0 0 24 24" fill="none" xmlns="http://www.w3.org/2000/svg">
<path fill-rule="evenodd" clip-rule="evenodd" d="M0 14.25C0 15.491 1.009 16.5 2.25 16.5H9.75C10.164 16.5 10.5 16.164 10.5 15.75C10.5 15.336 10.164 15 9.75 15H2.25C1.836 15 1.5 14.664 1.5 14.25V2.562L8.776 8.158C9.481 8.701 10.358 8.999 11.249 8.999C12.14 8.999 13.019 8.7 13.723 8.158L20.999 2.562V10.5C20.999 10.914 21.335 11.25 21.749 11.25C22.163 11.25 22.499 10.914 22.499 10.5V2.25C22.499 1.748 22.336 1.273 22.027 0.875C22.019 0.862 22.011 0.85 22.002 0.839C21.996 0.831 21.988 0.821 21.979 0.812C21.55 0.296 20.92 0 20.25 0H2.25C1.579 0 0.949 0.297 0.52 0.814C0.51 0.824 0.501 0.835 0.494 0.844C0.49282 0.845653 0.491528 0.847417 0.490164 0.849279C0.485751 0.855305 0.480584 0.862361 0.476 0.87C0.164 1.269 0 1.746 0 2.25V14.25ZM11.251 7.499C10.681 7.499 10.141 7.316 9.691 6.969L2.579 1.5H19.921L12.811 6.969C12.367 7.311 11.813 7.499 11.251 7.499Z" fill="black"/>
<path d="M16.5 18C16.5 18.414 16.836 18.75 17.25 18.75C17.664 18.75 18 18.414 18 18V15C18 14.586 17.664 14.25 17.25 14.25C16.836 14.25 16.5 14.586 16.5 15V18Z" fill="black"/>
<path d="M16.125 20.625C16.125 21.245 16.63 21.75 17.25 21.75C17.87 21.75 18.375 21.245 18.375 20.625C18.375 20.024 17.903 19.531 17.321 19.505C17.31 19.504 17.262 19.5 17.25 19.5C16.63 19.5 16.125 20.005 16.125 20.625Z" fill="black"/>
<path fill-rule="evenodd" clip-rule="evenodd" d="M13.024 24C11.633 24 10.5 22.868 10.499 21.477C10.499 21.087 10.591 20.696 10.766 20.346L14.992 11.895C15.422 11.034 16.289 10.499 17.254 10.499C17.647 10.499 18.025 10.588 18.378 10.765C18.864 11.008 19.265 11.409 19.508 11.895L23.734 20.346C24.357 21.59 23.851 23.11 22.607 23.732C22.257 23.908 21.866 24 21.476 24H13.024ZM17.253 12C16.861 12 16.509 12.217 16.335 12.567L12.109 21.018C12.038 21.16 12 21.318 12 21.477C12 22.042 12.46 22.501 13.024 22.501H21.476C21.634 22.501 21.793 22.463 21.936 22.392C22.44 22.14 22.645 21.523 22.393 21.018L18.167 12.567C18.068 12.37 17.906 12.207 17.709 12.108C17.565 12.036 17.411 12 17.253 12Z" fill="black"/>
</svg>
