<svg width="24" height="24" viewBox="0 0 24 24" fill="none" xmlns="http://www.w3.org/2000/svg">
<g clip-path="url(#clip0)">
<path fill-rule="evenodd" clip-rule="evenodd" d="M0 14.2483C0 15.4893 1.009 16.4983 2.25 16.4983H9.75C10.164 16.4983 10.5 16.1623 10.5 15.7483C10.5 15.3343 10.164 14.9983 9.75 14.9983H2.25C1.836 14.9983 1.5 14.6623 1.5 14.2483V2.56029L8.776 8.15629C9.481 8.69929 10.358 8.99729 11.249 8.99729C12.14 8.99729 13.019 8.69829 13.723 8.15629L20.999 2.56029V10.4983C20.999 10.9123 21.335 11.2483 21.749 11.2483C22.163 11.2483 22.499 10.9123 22.499 10.4983V2.24829C22.499 1.74629 22.336 1.27129 22.027 0.873291C22.019 0.860291 22.011 0.848291 22.002 0.837291C21.996 0.829291 21.988 0.819291 21.979 0.810291C21.55 0.294291 20.92 -0.00170898 20.25 -0.00170898H2.25C1.579 -0.00170898 0.949 0.295291 0.52 0.812291C0.51 0.822291 0.501 0.833291 0.494 0.842291C0.49282 0.843944 0.491528 0.845708 0.490164 0.84757C0.485751 0.853596 0.480584 0.860652 0.476 0.868291C0.164 1.26729 0 1.74429 0 2.24829V14.2483ZM11.251 7.49729C10.681 7.49729 10.141 7.31429 9.691 6.96729L2.579 1.49829H19.921L12.811 6.96729C12.367 7.30929 11.813 7.49729 11.251 7.49729Z" fill="black"/>
<path d="M16.5 17.9983C16.5 18.4123 16.836 18.7483 17.25 18.7483C17.664 18.7483 18 18.4123 18 17.9983V14.9983C18 14.5843 17.664 14.2483 17.25 14.2483C16.836 14.2483 16.5 14.5843 16.5 14.9983V17.9983Z" fill="black"/>
<path d="M16.125 20.6233C16.125 21.2433 16.63 21.7483 17.25 21.7483C17.87 21.7483 18.375 21.2433 18.375 20.6233C18.375 20.0223 17.903 19.5293 17.321 19.5033C17.31 19.5023 17.262 19.4983 17.25 19.4983C16.63 19.4983 16.125 20.0033 16.125 20.6233Z" fill="black"/>
<path fill-rule="evenodd" clip-rule="evenodd" d="M13.024 23.9983C11.633 23.9983 10.5 22.8663 10.499 21.4753C10.499 21.0853 10.591 20.6943 10.766 20.3443L14.992 11.8933C15.422 11.0323 16.289 10.4973 17.254 10.4973C17.647 10.4973 18.025 10.5863 18.378 10.7633C18.864 11.0063 19.265 11.4073 19.508 11.8933L23.734 20.3443C24.357 21.5883 23.851 23.1083 22.607 23.7303C22.257 23.9063 21.866 23.9983 21.476 23.9983H13.024ZM17.253 11.9983C16.861 11.9983 16.509 12.2153 16.335 12.5653L12.109 21.0163C12.038 21.1583 12 21.3163 12 21.4753C12 22.0403 12.46 22.4993 13.024 22.4993H21.476C21.634 22.4993 21.793 22.4613 21.936 22.3903C22.44 22.1383 22.645 21.5213 22.393 21.0163L18.167 12.5653C18.068 12.3683 17.906 12.2053 17.709 12.1063C17.565 12.0343 17.411 11.9983 17.253 11.9983Z" fill="black"/>
</g>
<defs>
<clipPath id="clip0">
<path d="M0 0H24V24H0V0Z" fill="white"/>
</clipPath>
</defs>
</svg>
