<svg width="24" height="25" viewBox="0 0 24 25" fill="none" xmlns="http://www.w3.org/2000/svg">
<path fill-rule="evenodd" clip-rule="evenodd" d="M0 15.2483C0 16.4893 1.009 17.4983 2.25 17.4983H9.75C10.164 17.4983 10.5 17.1623 10.5 16.7483C10.5 16.3343 10.164 15.9983 9.75 15.9983H2.25C1.836 15.9983 1.5 15.6623 1.5 15.2483V3.56029L8.776 9.15629C9.481 9.69929 10.358 9.99729 11.249 9.99729C12.14 9.99729 13.019 9.69829 13.723 9.15629L20.999 3.56029V11.4983C20.999 11.9123 21.335 12.2483 21.749 12.2483C22.163 12.2483 22.499 11.9123 22.499 11.4983V3.24829C22.499 2.74629 22.336 2.27129 22.027 1.87329C22.019 1.86029 22.011 1.84829 22.002 1.83729C21.996 1.82929 21.988 1.81929 21.979 1.81029C21.55 1.29429 20.92 0.998291 20.25 0.998291H2.25C1.579 0.998291 0.949 1.29529 0.52 1.81229C0.51 1.82229 0.501 1.83329 0.494 1.84229C0.49282 1.84394 0.491528 1.84571 0.490164 1.84757C0.485751 1.8536 0.480584 1.86065 0.476 1.86829C0.164 2.26729 0 2.74429 0 3.24829V15.2483ZM11.251 8.49729C10.681 8.49729 10.141 8.31429 9.691 7.96729L2.579 2.49829H19.921L12.811 7.96729C12.367 8.30929 11.813 8.49729 11.251 8.49729Z" fill="black"/>
<path d="M16.5 18.9983C16.5 19.4123 16.836 19.7483 17.25 19.7483C17.664 19.7483 18 19.4123 18 18.9983V15.9983C18 15.5843 17.664 15.2483 17.25 15.2483C16.836 15.2483 16.5 15.5843 16.5 15.9983V18.9983Z" fill="black"/>
<path d="M16.125 21.6233C16.125 22.2433 16.63 22.7483 17.25 22.7483C17.87 22.7483 18.375 22.2433 18.375 21.6233C18.375 21.0223 17.903 20.5293 17.321 20.5033C17.31 20.5023 17.262 20.4983 17.25 20.4983C16.63 20.4983 16.125 21.0033 16.125 21.6233Z" fill="black"/>
<path fill-rule="evenodd" clip-rule="evenodd" d="M13.024 24.9983C11.633 24.9983 10.5 23.8663 10.499 22.4753C10.499 22.0853 10.591 21.6943 10.766 21.3443L14.992 12.8933C15.422 12.0323 16.289 11.4973 17.254 11.4973C17.647 11.4973 18.025 11.5863 18.378 11.7633C18.864 12.0063 19.265 12.4073 19.508 12.8933L23.734 21.3443C24.357 22.5883 23.851 24.1083 22.607 24.7303C22.257 24.9063 21.866 24.9983 21.476 24.9983H13.024ZM17.253 12.9983C16.861 12.9983 16.509 13.2153 16.335 13.5653L12.109 22.0163C12.038 22.1583 12 22.3163 12 22.4753C12 23.0403 12.46 23.4993 13.024 23.4993H21.476C21.634 23.4993 21.793 23.4613 21.936 23.3903C22.44 23.1383 22.645 22.5213 22.393 22.0163L18.167 13.5653C18.068 13.3683 17.906 13.2053 17.709 13.1063C17.565 13.0343 17.411 12.9983 17.253 12.9983Z" fill="black"/>
</svg>
