<svg width="24" height="24" fill="none" xmlns="http://www.w3.org/2000/svg"><path fill-rule="evenodd" clip-rule="evenodd" d="M7.5 0a.75.75 0 01.6.3L14.625 9h8.625a.75.75 0 010 1.5H.75a.75.75 0 01-.6-1.2L6.9.3a.75.75 0 01.6-.3zm5.25 9L7.5 2 2.25 9h10.5z" fill="#1B314B"/><path fill-rule="evenodd" clip-rule="evenodd" d="M13.05.15A.75.75 0 0114.1.3l6.75 9a.75.75 0 11-1.2.9l-6.75-9a.75.75 0 01.15-1.05zm.95 9.1a.75.75 0 01.75.75v10.5a.75.75 0 01-1.5 0V10a.75.75 0 01.75-.75zM.75 9a.75.75 0 01.75.75v4.258a.75.75 0 01-1.5 0V9.75A.75.75 0 01.75 9z" fill="#1B314B"/><path fill-rule="evenodd" clip-rule="evenodd" d="M6.75.75A.75.75 0 017.5 0h11.25a.75.75 0 010 1.5H7.5a.75.75 0 01-.75-.75zm3.375 4.5a.75.75 0 01.75-.75H21A.75.75 0 0121 6H10.875a.75.75 0 01-.75-.75zm9.875 4a.75.75 0 01.75.75v10.5a.75.75 0 01-1.5 0V10a.75.75 0 01.75-.75zM4.182 11.272a.75.75 0 01.546.91L2.41 21.954a.75.75 0 11-1.456-.364l2.318-9.772a.75.75 0 01.91-.546zm3.744-.088a.75.75 0 01.558.902L6.03 22.537a.75.75 0 01-1.46-.343l2.454-10.45a.75.75 0 01.902-.56z" fill="#1B314B"/><path fill-rule="evenodd" clip-rule="evenodd" d="M6.991 15.185L3 15l.07-1.498 3.99.184-.069 1.499zM7 18H3v-1.5h4V18zm-1 3H2v-1.5h4V21z" fill="#1B314B"/><path d="M8 6a1 1 0 11-2 0 1 1 0 012 0z" fill="#1B314B"/></svg>