<svg width="24" height="24" viewBox="0 0 24 24" fill="none" xmlns="http://www.w3.org/2000/svg">
<path fill-rule="evenodd" clip-rule="evenodd" d="M8.44733 1C8.66985 1 8.87937 1.10503 9.01288 1.2835L15.1633 9.50508H23.2931C23.6835 9.50508 24 9.8224 24 10.2138C24 10.6053 23.6835 10.9226 23.2931 10.9226H14.818C14.8129 10.9226 14.8078 10.9226 14.8026 10.9226H2.08487C1.8171 10.9226 1.57232 10.7709 1.45257 10.5308C1.33282 10.2907 1.35866 10.0033 1.51932 9.78858L7.88178 1.2835C8.01529 1.10503 8.22482 1 8.44733 1ZM13.3959 9.50508L8.44733 2.89002L3.49875 9.50508H13.3959Z" fill="black"/>
<path fill-rule="evenodd" clip-rule="evenodd" d="M13.6787 1.14179C13.991 0.906932 14.4341 0.970396 14.6684 1.28354L21.0309 9.78862C21.2651 10.1018 21.2018 10.546 20.8895 10.7809C20.5771 11.0157 20.134 10.9523 19.8998 10.6391L13.5373 2.13405C13.303 1.8209 13.3663 1.37665 13.6787 1.14179Z" fill="black"/>
<path fill-rule="evenodd" clip-rule="evenodd" d="M14.5741 9.74133C14.9646 9.74133 15.2811 10.0587 15.2811 10.4501L15.2811 20.3727C15.2811 20.7641 14.9646 21.0814 14.5741 21.0814C14.1837 21.0814 13.8672 20.7641 13.8672 20.3727L13.8672 10.4501C13.8672 10.0587 14.1837 9.74133 14.5741 9.74133Z" fill="black"/>
<path fill-rule="evenodd" clip-rule="evenodd" d="M2.08563 9.50517C2.47606 9.50523 2.79253 9.82259 2.79247 10.214L2.79189 14.2373C2.79183 14.6287 2.47528 14.946 2.08485 14.9459C1.69441 14.9459 1.37795 14.6285 1.37801 14.2371L1.37859 10.2138C1.37865 9.82239 1.6952 9.50511 2.08563 9.50517Z" fill="black"/>
<path fill-rule="evenodd" clip-rule="evenodd" d="M7.74039 1.70876C7.74039 1.31732 8.05689 1 8.44733 1H19.0514C19.4419 1 19.7584 1.31732 19.7584 1.70876C19.7584 2.10019 19.4419 2.41751 19.0514 2.41751H8.44733C8.05689 2.41751 7.74039 2.10019 7.74039 1.70876Z" fill="black"/>
<path fill-rule="evenodd" clip-rule="evenodd" d="M10.9216 5.96129C10.9216 5.56985 11.2381 5.25253 11.6285 5.25253H21.1722C21.5627 5.25253 21.8792 5.56985 21.8792 5.96129C21.8792 6.35272 21.5627 6.67005 21.1722 6.67005H11.6285C11.2381 6.67005 10.9216 6.35272 10.9216 5.96129Z" fill="black"/>
<path fill-rule="evenodd" clip-rule="evenodd" d="M20.2296 9.74133C20.6201 9.74133 20.9366 10.0587 20.9366 10.4501L20.9366 20.3727C20.9366 20.7641 20.6201 21.0814 20.2296 21.0814C19.8392 21.0814 19.5227 20.7641 19.5227 20.3727L19.5227 10.4501C19.5227 10.0587 19.8392 9.74133 20.2296 9.74133Z" fill="black"/>
<path fill-rule="evenodd" clip-rule="evenodd" d="M5.3198 11.6525C5.69857 11.7475 5.92881 12.1323 5.83407 12.5121L3.64915 21.7471C3.55441 22.1268 3.17056 22.3577 2.7918 22.2627C2.41303 22.1677 2.18279 21.7829 2.27753 21.4031L4.46245 12.1681C4.55719 11.7884 4.94104 11.5575 5.3198 11.6525Z" fill="black"/>
<path fill-rule="evenodd" clip-rule="evenodd" d="M8.84858 11.5693C9.22867 11.6588 9.46445 12.0402 9.3752 12.4213L7.06212 22.2978C6.97287 22.6789 6.59239 22.9153 6.2123 22.8258C5.8322 22.7363 5.59642 22.3549 5.68567 21.9738L7.99876 12.0973C8.088 11.7162 8.46848 11.4798 8.84858 11.5693Z" fill="black"/>
<path fill-rule="evenodd" clip-rule="evenodd" d="M7.96797 15.3497L4.20567 15.1751L4.27103 13.7591L8.03332 13.9337L7.96797 15.3497Z" fill="black"/>
<path fill-rule="evenodd" clip-rule="evenodd" d="M7.97603 18.0102H4.20569V16.5927H7.97603V18.0102Z" fill="black"/>
<path fill-rule="evenodd" clip-rule="evenodd" d="M7.03344 20.8452H3.26309V19.4277H7.03344V20.8452Z" fill="black"/>
<path d="M8.91862 6.67005C8.91862 7.19196 8.49661 7.61505 7.97603 7.61505C7.45546 7.61505 7.03345 7.19196 7.03345 6.67005C7.03345 6.14813 7.45546 5.72504 7.97603 5.72504C8.49661 5.72504 8.91862 6.14813 8.91862 6.67005Z" fill="#29D305"/>
</svg>
