<svg width="24" height="24" viewBox="0 0 24 24" fill="none" xmlns="http://www.w3.org/2000/svg">
<g clip-path="url(#clip0)">
<path fill-rule="evenodd" clip-rule="evenodd" d="M7.5 0C7.73606 0 7.95836 0.111146 8.1 0.3L14.625 9H23.25C23.6642 9 24 9.33579 24 9.75C24 10.1642 23.6642 10.5 23.25 10.5H14.2587C14.2533 10.5001 14.2479 10.5001 14.2424 10.5H0.749997C0.465918 10.5 0.20622 10.3395 0.0791763 10.0854C-0.0478677 9.83132 -0.0204507 9.52726 0.149997 9.3L6.9 0.3C7.04164 0.111146 7.26393 0 7.5 0ZM12.75 9L7.5 2L2.25 9H12.75Z" fill="black"/>
<path fill-rule="evenodd" clip-rule="evenodd" d="M13.05 0.150044C13.3814 -0.098484 13.8515 -0.0313267 14.1 0.300044L20.85 9.30004C21.0985 9.63141 21.0314 10.1015 20.7 10.35C20.3686 10.5986 19.8985 10.5314 19.65 10.2L12.9 1.20004C12.6515 0.868673 12.7186 0.398572 13.05 0.150044Z" fill="black"/>
<path fill-rule="evenodd" clip-rule="evenodd" d="M14 9.25C14.4142 9.25 14.75 9.58579 14.75 10L14.75 20.5C14.75 20.9142 14.4142 21.25 14 21.25C13.5858 21.25 13.25 20.9142 13.25 20.5L13.25 10C13.25 9.58579 13.5858 9.25 14 9.25Z" fill="black"/>
<path fill-rule="evenodd" clip-rule="evenodd" d="M0.750832 9.00011C1.16505 9.00017 1.50078 9.336 1.50072 9.75022L1.50011 14.0076C1.50005 14.4218 1.16421 14.7575 0.749997 14.7575C0.335784 14.7574 4.6161e-05 14.4216 0.00010617 14.0073L0.000722949 9.75C0.000782957 9.33579 0.336618 9.00005 0.750832 9.00011Z" fill="black"/>
<path fill-rule="evenodd" clip-rule="evenodd" d="M6.75 0.75C6.75 0.335786 7.08579 0 7.5 0H18.75C19.1642 0 19.5 0.335786 19.5 0.75C19.5 1.16421 19.1642 1.5 18.75 1.5H7.5C7.08579 1.5 6.75 1.16421 6.75 0.75Z" fill="black"/>
<path fill-rule="evenodd" clip-rule="evenodd" d="M10.125 5.25C10.125 4.83579 10.4608 4.5 10.875 4.5H21C21.4142 4.5 21.75 4.83579 21.75 5.25C21.75 5.66421 21.4142 6 21 6H10.875C10.4608 6 10.125 5.66421 10.125 5.25Z" fill="black"/>
<path fill-rule="evenodd" clip-rule="evenodd" d="M20 9.25C20.4142 9.25 20.75 9.58579 20.75 10L20.75 20.5C20.75 20.9142 20.4142 21.25 20 21.25C19.5858 21.25 19.25 20.9142 19.25 20.5L19.25 10C19.25 9.58579 19.5858 9.25 20 9.25Z" fill="black"/>
<path fill-rule="evenodd" clip-rule="evenodd" d="M4.182 11.2724C4.58383 11.3729 4.8281 11.7802 4.72759 12.182L2.40959 21.9544C2.30908 22.3563 1.90184 22.6005 1.50001 22.5C1.09818 22.3995 0.853909 21.9923 0.954422 21.5904L3.27242 11.818C3.37293 11.4162 3.78017 11.1719 4.182 11.2724Z" fill="black"/>
<path fill-rule="evenodd" clip-rule="evenodd" d="M7.9257 11.1844C8.32895 11.279 8.57909 11.6827 8.4844 12.0859L6.03042 22.5372C5.93574 22.9404 5.53209 23.1905 5.12884 23.0959C4.72559 23.0012 4.47546 22.5975 4.57014 22.1943L7.02412 11.7431C7.1188 11.3398 7.52245 11.0897 7.9257 11.1844Z" fill="black"/>
<path fill-rule="evenodd" clip-rule="evenodd" d="M6.99146 15.1847L3 15L3.06934 13.5016L7.06079 13.6863L6.99146 15.1847Z" fill="black"/>
<path fill-rule="evenodd" clip-rule="evenodd" d="M7 18H3V16.5H7V18Z" fill="black"/>
<path fill-rule="evenodd" clip-rule="evenodd" d="M6 21H2V19.5H6V21Z" fill="black"/>
<path d="M8 6C8 6.55228 7.55228 7 7 7C6.44772 7 6 6.55228 6 6C6 5.44772 6.44772 5 7 5C7.55228 5 8 5.44772 8 6Z" fill="#29D305"/>
</g>
<defs>
<clipPath id="clip0">
<path d="M0 0H24V24H0V0Z" fill="white"/>
</clipPath>
</defs>
</svg>
