<svg width="24" height="24" fill="none" xmlns="http://www.w3.org/2000/svg"><path d="M5.821 19.33c-.473 0-.909-.227-1.174-.625-.34-.511-.34-1.155.02-1.647.189-.265.378-.55.548-.89A5.687 5.687 0 013 11.662 5.665 5.665 0 018.661 6h6.646a5.665 5.665 0 015.662 5.662c0 3.124-2.518 5.66-5.643 5.66h-4.714c-1.08.664-2.67 1.497-4.412 1.97-.133.02-.246.038-.379.038zm2.84-11.702a4.036 4.036 0 00-4.033 4.034c0 1.457.796 2.802 2.045 3.502.379.209.53.682.341 1.06a13.95 13.95 0 01-.7 1.307c1.533-.492 2.897-1.268 3.616-1.723a.9.9 0 01.436-.132h4.941a4.036 4.036 0 004.034-4.034 4.024 4.024 0 00-4.034-4.033H8.662v.02z" fill="#1B314B"/></svg>