<svg width="24" height="24" viewBox="0 0 24 24" fill="none" xmlns="http://www.w3.org/2000/svg">
<path d="M23.2258 22C23.6532 22 24 21.6463 24 21.2105C24 20.7747 23.6532 20.4211 23.2258 20.4211H22.4516V17C22.4516 16.2747 21.8725 15.6842 21.1613 15.6842H18.3215C17.6103 15.6842 17.0312 16.2747 17.0312 17V20.4211H14.7097C14.7097 20.4211 14.7097 11.6726 14.7097 10.9474C14.7097 10.2221 14.1306 9.63158 13.4194 9.63158C12.7081 9.63158 10.5796 9.63158 10.5796 9.63158C9.86839 9.63158 9.28929 10.2221 9.28929 10.9474V20.4211H6.96671V4.89474C6.96671 4.17053 6.38865 3.58 5.67845 3.57895H2.83768C2.12645 3.57895 1.54736 4.16948 1.54736 4.89474V20.4211H0.774195C0.34684 20.4211 0 20.7747 0 21.2105C0 21.6463 0.34684 22 0.774195 22H23.2258ZM3.09574 20.4211V5.1579H5.41832V20.4211H3.09574ZM10.8377 20.4211V11.2105H13.1613V20.4211H10.8377ZM18.5796 20.4211V17.2632H20.9032V20.4211H18.5796Z" fill="black"/>
<path d="M17.5448 9.89474C17.2337 9.89474 16.9811 9.6421 16.9811 9.33083C16.9811 9.01955 17.2337 8.76692 17.5448 8.76692H19.0022L14.7256 4.48872L13.2683 5.94737C13.0556 6.16015 12.7722 6.27744 12.4708 6.27744C12.1694 6.27744 11.8861 6.16015 11.6741 5.94737L8.69108 2.96241C8.58435 2.85564 8.52573 2.71429 8.52573 2.56391C8.52573 2.41353 8.58435 2.27143 8.69108 2.16541C8.7978 2.05865 8.9391 2 9.08942 2C9.23974 2 9.38179 2.05865 9.48776 2.16541L12.4716 5.15038L13.9289 3.69173C14.1409 3.47895 14.4242 3.36165 14.7256 3.36165C15.0262 3.36165 15.3096 3.47895 15.5215 3.69098L19.7996 7.96917V6.51128C19.7996 6.2 20.0521 5.94737 20.3633 5.94737C20.6745 5.94737 20.927 6.2 20.927 6.51128V9.33083C20.927 9.39624 20.915 9.46165 20.8917 9.52481C20.8902 9.52932 20.8887 9.53308 20.8872 9.53759C20.827 9.68421 20.715 9.79549 20.5775 9.85263C20.5715 9.85489 20.5647 9.85789 20.558 9.86015C20.4971 9.88195 20.4302 9.89474 20.3633 9.89474H17.5448Z" fill="#29D305"/>
</svg>
