<svg width="24" height="24" viewBox="0 0 24 24" fill="none" xmlns="http://www.w3.org/2000/svg">
<path d="M6 12.7501C6 12.3358 6.33579 12.0001 6.75 12.0001V12.0001C7.16421 12.0001 7.5 12.3358 7.5 12.7501V21.2501C7.5 21.6643 7.16421 22.0001 6.75 22.0001V22.0001C6.33579 22.0001 6 21.6643 6 21.2501L6 12.7501Z" fill="#29D305"/>
<path d="M17 19.2501C17 18.8358 17.3358 18.5001 17.75 18.5001V18.5001C18.1642 18.5001 18.5 18.8358 18.5 19.2501V21.7501C18.5 22.1643 18.1642 22.5001 17.75 22.5001V22.5001C17.3358 22.5001 17 22.1643 17 21.7501L17 19.2501Z" fill="#29D305"/>
<path fill-rule="evenodd" clip-rule="evenodd" d="M3.97498 1.39806C4.2791 1.09394 4.69156 0.923096 5.12164 0.923096H8.36488C8.79496 0.923096 9.20743 1.09394 9.51154 1.39806C9.81566 1.70217 9.98651 2.11464 9.98651 2.54472V21.4637H14.5L14.5 9.00003C14.5 8.56995 14.6708 8.15749 14.9749 7.85337C15.2791 7.54926 15.6915 7.37841 16.1216 7.37841H19.3648C19.7949 7.37841 20.2074 7.54926 20.5115 7.85337C20.8156 8.15749 20.9865 8.56995 20.9865 9.00003L20.9865 21.4637H21.8046C22.2523 21.4637 22.6154 21.8267 22.6154 22.2745C22.6154 22.7223 22.2523 23.0853 21.8046 23.0853H2.65694C2.20914 23.0853 1.84613 22.7223 1.84613 22.2745C1.84613 21.8267 2.20914 21.4637 2.65694 21.4637H3.50002V2.54472C3.50002 2.11464 3.67087 1.70217 3.97498 1.39806ZM19.3649 21.4637L19.3648 9.00003H16.1216L16.1216 21.4637H19.3649ZM8.36488 2.54472H5.12164V21.4636H8.36488V2.54472Z" fill="black"/>
<path fill-rule="evenodd" clip-rule="evenodd" d="M17.5 0.5C17.7761 0.5 18 0.723858 18 1L18 6C18 6.27614 17.7761 6.5 17.5 6.5C17.2239 6.5 17 6.27614 17 6L17 1C17 0.723858 17.2239 0.5 17.5 0.5Z" fill="black"/>
<path fill-rule="evenodd" clip-rule="evenodd" d="M15.6464 4.14645C15.8417 3.95118 16.1583 3.95118 16.3536 4.14645L17.5 5.29289L18.6464 4.14645C18.8417 3.95118 19.1583 3.95118 19.3536 4.14645C19.5488 4.34171 19.5488 4.65829 19.3536 4.85355L17.8536 6.35355C17.6583 6.54882 17.3417 6.54882 17.1464 6.35355L15.6464 4.85355C15.4512 4.65829 15.4512 4.34171 15.6464 4.14645Z" fill="black"/>
</svg>
