<svg width="24" height="24" viewBox="0 0 24 24" fill="none" xmlns="http://www.w3.org/2000/svg">
<path d="M23.251 24C23.665 24 24.001 23.664 24.001 23.25C24.001 22.836 23.665 22.5 23.251 22.5H22.501V19.25C22.501 18.561 21.94 18 21.251 18H18.5C17.811 18 17.25 18.561 17.25 19.25V22.5H15.001C15.001 22.5 15.001 14.189 15.001 13.5C15.001 12.811 14.44 12.25 13.751 12.25C13.062 12.25 11 12.25 11 12.25C10.311 12.25 9.75001 12.811 9.75001 13.5V22.5H7.50001V7.75C7.50001 7.062 6.94001 6.501 6.25201 6.5H3.50001C2.81101 6.5 2.25001 7.061 2.25001 7.75V22.5H1.50101C1.08701 22.5 0.751004 22.836 0.751004 23.25C0.751004 23.664 1.08701 24 1.50101 24H23.251ZM3.75001 22.5V8H6.00001V22.5H3.75001ZM11.25 22.5V13.75H13.501V22.5H11.25ZM18.75 22.5V19.5H21.001V22.5H18.75Z" fill="black"/>
<path d="M17.7475 12.5C17.4461 12.5 17.2015 12.26 17.2015 11.9643C17.2015 11.6686 17.4461 11.4286 17.7475 11.4286H19.1593L15.0164 7.36428L13.6046 8.75C13.3986 8.95214 13.1241 9.06357 12.8321 9.06357C12.5401 9.06357 12.2656 8.95214 12.0603 8.75L9.17047 5.91429C9.06708 5.81286 9.01028 5.67857 9.01028 5.53571C9.01028 5.39286 9.06708 5.25786 9.17047 5.15714C9.27386 5.05571 9.41074 5 9.55636 5C9.70198 5 9.8396 5.05571 9.94226 5.15714L12.8328 7.99286L14.2446 6.60714C14.45 6.405 14.7245 6.29357 15.0164 6.29357C15.3077 6.29357 15.5822 6.405 15.7875 6.60643L19.9319 10.6707V9.28571C19.9319 8.99 20.1765 8.75 20.4779 8.75C20.7794 8.75 21.024 8.99 21.024 9.28571V11.9643C21.024 12.0264 21.0124 12.0886 20.9898 12.1486C20.9883 12.1529 20.9869 12.1564 20.9854 12.1607C20.9272 12.3 20.8187 12.4057 20.6854 12.46C20.6796 12.4621 20.6731 12.465 20.6665 12.4671C20.6075 12.4879 20.5427 12.5 20.4779 12.5H17.7475Z" fill="#29D305"/>
</svg>
