<svg width="24" height="24" viewBox="0 0 24 24" fill="none" xmlns="http://www.w3.org/2000/svg">
<path d="M5.40002 13.0148C5.40002 12.5761 5.75571 12.2204 6.19447 12.2204C6.63323 12.2204 6.98891 12.5761 6.98891 13.0148V22.0523C6.98891 22.4911 6.63323 22.8468 6.19447 22.8468C5.75571 22.8468 5.40002 22.4911 5.40002 22.0523L5.40002 13.0148Z" fill="#29D305"/>
<path d="M17.0519 19.922C17.0519 19.4832 17.4076 19.1276 17.8463 19.1276C18.2851 19.1276 18.6408 19.4832 18.6408 19.922V22.5837C18.6408 23.0224 18.2851 23.3781 17.8463 23.3781C17.4076 23.3781 17.0519 23.0224 17.0519 22.5837L17.0519 19.922Z" fill="#29D305"/>
<path fill-rule="evenodd" clip-rule="evenodd" d="M3.25497 0.954297C3.5771 0.631134 4.01401 0.449585 4.46958 0.449585H7.90501C8.36058 0.449585 8.79748 0.631134 9.11962 0.954297C9.44176 1.27746 9.62273 1.71576 9.62273 2.17278V22.2768H14.4037L14.4037 9.03246C14.4037 8.57544 14.5847 8.13714 14.9068 7.81398C15.229 7.49082 15.6659 7.30927 16.1214 7.30927H19.5569C20.0124 7.30927 20.4493 7.49082 20.7715 7.81398C21.0936 8.13714 21.2746 8.57544 21.2746 9.03246L21.2746 22.2768H22.1411C22.6155 22.2768 23 22.6626 23 23.1384C23 23.6143 22.6155 24 22.1411 24H1.85886C1.38452 24 1 23.6143 1 23.1384C1 22.6626 1.38452 22.2768 1.85886 22.2768H2.75186V2.17278C2.75186 1.71576 2.93283 1.27746 3.25497 0.954297ZM19.5569 22.2768L19.5569 9.03246L16.1214 9.03246L16.1214 22.2768H19.5569ZM7.90501 2.17278H4.46958V22.2767H7.90501V2.17278Z" fill="black"/>
<path fill-rule="evenodd" clip-rule="evenodd" d="M17.5815 0C17.874 -1.28267e-08 18.1112 0.23788 18.1112 0.531319L18.1112 5.84451C18.1112 6.13795 17.874 6.37583 17.5815 6.37583C17.289 6.37583 17.0519 6.13795 17.0519 5.84451L17.0519 0.531319C17.0519 0.23788 17.289 1.28267e-08 17.5815 0Z" fill="black"/>
<path fill-rule="evenodd" clip-rule="evenodd" d="M15.6181 3.87485C15.825 3.66736 16.1603 3.66736 16.3671 3.87485L17.5815 5.09311L18.7959 3.87485C19.0027 3.66736 19.3381 3.66736 19.5449 3.87485C19.7518 4.08235 19.7518 4.41876 19.5449 4.62625L17.956 6.22021C17.7492 6.4277 17.4139 6.4277 17.207 6.22021L15.6181 4.62625C15.4113 4.41876 15.4113 4.08235 15.6181 3.87485Z" fill="black"/>
</svg>
