<svg width="24" height="24" viewBox="0 0 24 24" fill="none" xmlns="http://www.w3.org/2000/svg">
<path d="M9.93893 24C9.5007 24 9.14504 23.6642 9.14504 23.2504V16.7539C9.14504 16.3401 9.5007 16.0043 9.93893 16.0043C10.3772 16.0043 10.7328 16.3401 10.7328 16.7539V23.2504C10.7328 23.6632 10.3772 24 9.93893 24Z" fill="black"/>
<path d="M2.79389 17.2536C2.35566 17.2536 2 16.9178 2 16.504C2 16.0902 2.35566 15.7544 2.79389 15.7544H5.17557C5.6138 15.7544 5.96947 16.0902 5.96947 16.504C5.96947 16.9178 5.6138 17.2536 5.17557 17.2536H2.79389Z" fill="black"/>
<path d="M6.57048 14.0733C6.35878 14.0733 6.15872 13.9953 6.00946 13.8534L4.32535 12.2632C4.17504 12.1223 4.09248 11.9334 4.09248 11.7335C4.09248 11.5336 4.17504 11.3447 4.32535 11.2038C4.4746 11.0619 4.67466 10.9839 4.88637 10.9839C5.09807 10.9839 5.29814 11.0619 5.44739 11.2038L7.1315 12.794C7.44059 13.0858 7.44059 13.5616 7.1315 13.8544C6.98225 13.9953 6.78324 14.0733 6.57048 14.0733Z" fill="black"/>
<path d="M14.9916 22.0241C14.7799 22.0241 14.5798 21.9461 14.4306 21.8042L12.7465 20.214C12.4374 19.9222 12.4374 19.4465 12.7465 19.1536C12.8968 19.0117 13.0958 18.9337 13.3075 18.9337C13.5192 18.9337 13.7192 19.0117 13.8685 19.1536L15.5526 20.7438C15.7029 20.8857 15.7855 21.0736 15.7855 21.2735C15.7855 21.4734 15.7029 21.6623 15.5526 21.8032C15.4023 21.9441 15.2044 22.0241 14.9916 22.0241Z" fill="black"/>
<path d="M4.88685 22.0241C4.67515 22.0241 4.47509 21.9461 4.32584 21.8042C4.01675 21.5124 4.01675 21.0366 4.32584 20.7438L6.00995 19.1536C6.16026 19.0117 6.35926 18.9337 6.57097 18.9337C6.78267 18.9337 6.98273 19.0117 7.13198 19.1536C7.44107 19.4455 7.44107 19.9212 7.13198 20.214L5.44787 21.8042C5.29862 21.9461 5.09962 22.0241 4.88685 22.0241Z" fill="black"/>
<path d="M14.7023 18.253C14.264 18.253 13.9084 17.9172 13.9084 17.5034C13.9084 17.0896 14.264 16.7538 14.7023 16.7538H17.0839C17.5222 16.7538 17.8778 17.0896 17.8778 17.5034C17.8778 17.9172 17.5222 18.253 17.0839 18.253H14.7023Z" fill="black"/>
<path fill-rule="evenodd" clip-rule="evenodd" d="M10.0198 12.6314L10.836 7.38568L6.35704 2.68555L5.16582 2.46629C4.77129 2.39367 4.51319 2.03047 4.5897 1.65557C4.66621 1.28067 5.04851 1.03534 5.44305 1.10796L6.15778 1.23951L6.29639 0.560347C6.37291 0.185448 6.75521 -0.0598823 7.14974 0.0127348C7.54427 0.0853518 7.80237 0.448554 7.72586 0.823453L7.58724 1.50262L9.01671 1.76572L9.15532 1.08656C9.23184 0.711659 9.61414 0.466328 10.0087 0.538945C10.4032 0.611562 10.6613 0.974764 10.5848 1.34966L10.4462 2.02883L14.7346 2.81814L14.8732 2.13898C14.9497 1.76408 15.332 1.51875 15.7265 1.59137C16.1211 1.66398 16.3792 2.02719 16.3026 2.40208L16.164 3.08125L17.5935 3.34436L17.7321 2.66519C17.8086 2.29029 18.1909 2.04496 18.5855 2.11758C18.98 2.19019 19.2381 2.5534 19.1616 2.9283L19.023 3.60746L19.7377 3.73901C20.1322 3.81163 20.3903 4.17483 20.3138 4.54973C20.2373 4.92463 19.855 5.16996 19.4605 5.09734L18.2693 4.87809L12.2655 7.64878L11.3524 13.517L11.2278 14.3674C11.1771 14.7784 10.8121 15.0764 10.413 15.0325C10.014 14.9887 9.73124 14.6195 9.78192 14.2085L9.88677 13.4932L9.88587 13.4923L9.90363 13.3782L9.99565 12.7505C10.0007 12.7096 10.0088 12.6698 10.0198 12.6314ZM15.8868 4.43958L11.7934 6.32824L8.73948 3.12405L15.8868 4.43958Z" fill="black"/>
<path fill-rule="evenodd" clip-rule="evenodd" d="M18.9047 5.51485C19.1941 5.55383 19.3952 5.80693 19.3539 6.08016C19.1039 7.73472 19.3518 9.02933 19.7957 10.2867C20.0135 10.9037 20.2772 11.5086 20.5584 12.1533C20.5672 12.1736 20.5761 12.194 20.585 12.2144C20.874 12.8773 21.1782 13.5791 21.4492 14.3471C22.7326 17.9846 21.4449 20.6791 20.8912 21.7248C20.7604 21.9717 20.4425 22.0717 20.1811 21.9483C19.9196 21.8249 19.8137 21.5247 19.9444 21.2778C20.4492 20.3246 21.5972 17.9288 20.4449 14.663C20.1869 13.9318 19.8959 13.2593 19.6062 12.5948C19.5955 12.5704 19.5849 12.5461 19.5743 12.5217C19.2973 11.8865 19.021 11.2531 18.7914 10.6027C18.3091 9.2365 18.0275 7.78257 18.306 5.93899C18.3473 5.66576 18.6154 5.47587 18.9047 5.51485Z" fill="black"/>
</svg>
