<svg width="24" height="24" viewBox="0 0 24 24" fill="none" xmlns="http://www.w3.org/2000/svg">
<g clip-path="url(#clip0)">
<path d="M10.6996 24C10.2856 24 9.9496 23.664 9.9496 23.25V16.75C9.9496 16.336 10.2856 16 10.6996 16C11.1136 16 11.4496 16.336 11.4496 16.75V23.25C11.4496 23.663 11.1136 24 10.6996 24Z" fill="black"/>
<path d="M3.9496 17.25C3.5356 17.25 3.1996 16.914 3.1996 16.5C3.1996 16.086 3.5356 15.75 3.9496 15.75H6.1996C6.6136 15.75 6.9496 16.086 6.9496 16.5C6.9496 16.914 6.6136 17.25 6.1996 17.25H3.9496Z" fill="black"/>
<path d="M7.51739 14.068C7.31739 14.068 7.12839 13.99 6.98739 13.848L5.39639 12.257C5.25439 12.116 5.17639 11.927 5.17639 11.727C5.17639 11.527 5.25439 11.338 5.39639 11.197C5.53739 11.055 5.72639 10.977 5.92639 10.977C6.12639 10.977 6.31539 11.055 6.45639 11.197L8.04739 12.788C8.33939 13.08 8.33939 13.556 8.04739 13.849C7.90639 13.99 7.71839 14.068 7.51739 14.068Z" fill="black"/>
<path d="M15.4729 22.023C15.2729 22.023 15.0839 21.945 14.9429 21.803L13.3519 20.212C13.0599 19.92 13.0599 19.444 13.3519 19.151C13.4939 19.009 13.6819 18.931 13.8819 18.931C14.0819 18.931 14.2709 19.009 14.4119 19.151L16.0029 20.742C16.1449 20.884 16.2229 21.072 16.2229 21.272C16.2229 21.472 16.1449 21.661 16.0029 21.802C15.8609 21.943 15.6739 22.023 15.4729 22.023Z" fill="black"/>
<path d="M5.92684 22.023C5.72684 22.023 5.53784 21.945 5.39684 21.803C5.10484 21.511 5.10484 21.035 5.39684 20.742L6.98784 19.151C7.12984 19.009 7.31784 18.931 7.51784 18.931C7.71784 18.931 7.90684 19.009 8.04784 19.151C8.33984 19.443 8.33984 19.919 8.04784 20.212L6.45684 21.803C6.31584 21.945 6.12784 22.023 5.92684 22.023Z" fill="black"/>
<path d="M15.1996 18.25C14.7856 18.25 14.4496 17.914 14.4496 17.5C14.4496 17.086 14.7856 16.75 15.1996 16.75H17.4496C17.8636 16.75 18.1996 17.086 18.1996 17.5C18.1996 17.914 17.8636 18.25 17.4496 18.25H15.1996Z" fill="black"/>
<path fill-rule="evenodd" clip-rule="evenodd" d="M10.776 12.6253L11.5471 7.37683L7.31575 2.6742L6.19039 2.45483C5.81767 2.38218 5.57384 2.01878 5.64612 1.64368C5.7184 1.26858 6.07957 1.02312 6.45229 1.09578L7.1275 1.2274L7.25845 0.547874C7.33074 0.172775 7.6919 -0.0726858 8.06462 -3.00761e-05C8.43734 0.0726256 8.68117 0.436021 8.60888 0.811119L8.47793 1.49065L9.82837 1.75389L9.95932 1.07436C10.0316 0.699266 10.3928 0.453805 10.7655 0.526461C11.1382 0.599116 11.382 0.962511 11.3097 1.33761L11.1788 2.01714L15.2301 2.80687L15.361 2.12735C15.4333 1.75225 15.7945 1.50679 16.1672 1.57944C16.5399 1.6521 16.7838 2.01549 16.7115 2.39059L16.5805 3.07012L17.931 3.33336L18.0619 2.65384C18.1342 2.27874 18.4954 2.03328 18.8681 2.10593C19.2408 2.17859 19.4846 2.54198 19.4123 2.91708L19.2814 3.59661L19.9566 3.72823C20.3293 3.80089 20.5732 4.16428 20.5009 4.53938C20.4286 4.91448 20.0674 5.15994 19.6947 5.08729L18.5694 4.86791L12.8975 7.64008L12.035 13.5114L11.9172 14.3623C11.8693 14.7735 11.5245 15.0716 11.1475 15.0278C10.7705 14.9839 10.5034 14.6145 10.5513 14.2033L10.6503 13.4876L10.6495 13.4867L10.6662 13.3725L10.7532 12.7445C10.7579 12.7036 10.7656 12.6638 10.776 12.6253ZM16.3186 4.42917L12.4516 6.31883L9.56647 3.11295L16.3186 4.42917Z" fill="black"/>
<path fill-rule="evenodd" clip-rule="evenodd" d="M19.1697 5.50501C19.4431 5.54402 19.6331 5.79725 19.5941 6.07062C19.3579 7.72606 19.592 9.02136 20.0114 10.2794C20.2171 10.8967 20.4663 11.5019 20.7319 12.147C20.7403 12.1673 20.7487 12.1877 20.7571 12.2081C21.0301 12.8714 21.3175 13.5736 21.5735 14.342C22.786 17.9814 21.5694 20.6774 21.0463 21.7236C20.9228 21.9706 20.6225 22.0707 20.3755 21.9472C20.1285 21.8237 20.0284 21.5234 20.1519 21.2764C20.6288 20.3226 21.7133 17.9255 20.6247 14.658C20.381 13.9264 20.106 13.2536 19.8323 12.5888C19.8223 12.5644 19.8123 12.54 19.8022 12.5156C19.5405 11.8801 19.2796 11.2463 19.0627 10.5956C18.607 9.22864 18.3409 7.77394 18.6041 5.92938C18.6431 5.656 18.8963 5.46601 19.1697 5.50501Z" fill="black"/>
</g>
<defs>
<clipPath id="clip0">
<path d="M0 0H24V24H0V0Z" fill="white"/>
</clipPath>
</defs>
</svg>
