<svg width="25" height="25" viewBox="0 0 25 25" fill="none" xmlns="http://www.w3.org/2000/svg">
<path fill-rule="evenodd" clip-rule="evenodd" d="M21.0707 20.2631L12.4393 4.43979C12.2498 4.09237 11.7509 4.09237 11.5614 4.43981L2.93094 20.2632C2.74921 20.5963 2.99037 21.0026 3.36989 21.0026H20.6317C21.0113 21.0026 21.2524 20.5963 21.0707 20.2631ZM22.3875 19.5448C23.1145 20.8776 22.1499 22.5026 20.6317 22.5026H3.36989C1.85179 22.5026 0.887162 20.8777 1.61408 19.5449L10.2446 3.72156C11.0026 2.33182 12.9981 2.33177 13.7561 3.72149L22.3875 19.5448Z" fill="black"/>
<path d="M11.9852 19.6584C11.4427 19.6584 11.0009 19.2165 11.0009 18.674C11.0009 18.1316 11.4427 17.6897 11.9852 17.6897C12.5277 17.6897 12.9695 18.1316 12.9695 18.674C12.9695 19.2165 12.5277 19.6584 11.9852 19.6584Z" fill="black"/>
<path d="M11.9852 16.3772C11.6229 16.3772 11.3289 16.0832 11.3289 15.721V9.15879C11.3289 8.79655 11.6229 8.50256 11.9852 8.50256C12.3465 8.50256 12.6414 8.79655 12.6414 9.15879V15.721C12.6414 16.0824 12.3465 16.3772 11.9852 16.3772Z" fill="black"/>
</svg>
