<svg width="24" height="24" viewBox="0 0 24 24" fill="none" xmlns="http://www.w3.org/2000/svg">
<rect y="21" width="23.8978" height="2" rx="0.999999" fill="#29D305"/>
<path fill-rule="evenodd" clip-rule="evenodd" d="M11.6637 19.0091H1.52135C1.24636 19.0091 1.02344 19.2289 1.02344 19.5001C1.02344 19.7712 1.24636 19.991 1.52134 19.991H11.6637C11.9386 19.991 12.1616 19.7712 12.1616 19.5001C12.1616 19.2289 11.9387 19.0091 11.6637 19.0091ZM1.52135 18.0001C0.68113 18.0001 0 18.6716 0 19.5001C0 20.3285 0.681128 21.0001 1.52134 21.0001H11.6637C12.5039 21.0001 13.185 20.3285 13.185 19.5001C13.185 18.6716 12.5039 18.0001 11.6637 18.0001H1.52135Z" fill="black"/>
<path fill-rule="evenodd" clip-rule="evenodd" d="M14.9608 2.51486L22.2572 11.369C22.4695 11.6266 22.4695 12.0443 22.2572 12.3019C22.0449 12.5595 21.7008 12.5595 21.4885 12.3019L14.1921 3.44772C13.9798 3.19011 13.9798 2.77246 14.1921 2.51486C14.4044 2.25725 14.7485 2.25725 14.9608 2.51486ZM13.4539 1.6191C14.0739 0.866793 15.079 0.866793 15.699 1.6191L22.9954 10.4733C23.5417 11.1362 23.6066 12.1621 23.1901 12.9113C23.3015 13.0347 23.3815 13.204 23.407 13.4052L23.9917 18.0166C24.0654 18.5979 23.6391 19.0903 23.1643 18.9724L17.6996 17.6153C17.0651 17.4578 16.9364 16.4263 17.5039 16.0478L21.2018 13.5819C21.0384 13.4894 20.8852 13.3613 20.7503 13.1976L13.4539 4.34347C12.834 3.59115 12.834 2.37142 13.4539 1.6191ZM18.8365 16.6046L22.4509 14.1944L22.8839 17.6097L18.8365 16.6046Z" fill="black"/>
<path d="M11.1764 5.38473L14.5756 2.42511C14.8224 2.21029 15.1624 2.28485 15.3352 2.59164C15.5079 2.89842 15.448 3.32126 15.2012 3.53608L12.5703 5.82678C12.7943 6.07583 12.9544 6.41504 13.0125 6.80495L13.0424 7.00555L15.802 4.60286C16.5225 3.97551 16.6976 2.74062 16.1931 1.84467C15.6886 0.948716 14.6954 0.730972 13.9749 1.35832L9.35039 5.38473H11.1764Z" fill="black"/>
<path d="M7.6114 8.48862V7.12113C7.6114 7.04205 7.61565 6.96421 7.62389 6.88794L5.49461 8.74183C5.11116 9.07568 4.88218 9.58158 4.82789 10.1169H5.90025C5.93803 9.99654 6.00384 9.88827 6.09533 9.80861L7.6114 8.48862Z" fill="black"/>
<path fill-rule="evenodd" clip-rule="evenodd" d="M8.65864 11.4192H1.39645C1.20364 11.4192 1.04734 11.6135 1.04734 11.8533V15.2636C1.04734 15.5033 1.20364 15.6977 1.39645 15.6977L12.852 15.6977C13.0702 15.6977 13.235 15.4514 13.1952 15.1845L11.9826 7.04206C11.9519 6.8363 11.8076 6.68701 11.6393 6.68701H9.00775C8.81495 6.68701 8.65864 6.88136 8.65864 7.12111V11.4192ZM7.6114 7.12113C7.6114 6.16214 8.23652 5.38471 9.00775 5.38471H11.6393C12.3125 5.38471 12.8899 5.98189 13.0125 6.80495L14.2251 14.9474C14.384 16.0149 13.7251 17 12.852 17L1.39645 17C0.625212 17 0 16.2226 0 15.2636V11.8533C0 10.8943 0.625211 10.1169 1.39645 10.1169H7.61131L7.6114 7.12113Z" fill="black"/>
<path fill-rule="evenodd" clip-rule="evenodd" d="M5.20988 16.9999V17.9999H4.12033V16.9999H5.20988ZM8.79923 17.9999V16.9999H9.88877V17.9999H8.79923Z" fill="black"/>
</svg>
