<svg width="31" height="24" viewBox="0 0 31 24" fill="none" xmlns="http://www.w3.org/2000/svg">
<rect y="20.7426" width="30.0768" height="2.07426" rx="1.03713" fill="#29D305"/>
<path fill-rule="evenodd" clip-rule="evenodd" d="M14.6794 18.6778H1.9147C1.56861 18.6778 1.28805 18.9057 1.28805 19.1869C1.28805 19.4681 1.56861 19.6961 1.9147 19.6961H14.6794C15.0255 19.6961 15.306 19.4681 15.306 19.1869C15.306 18.9057 15.0255 18.6778 14.6794 18.6778ZM1.9147 17.6312C0.857241 17.6312 0 18.3277 0 19.1869C0 20.0461 0.857237 20.7426 1.9147 20.7426H14.6794C15.7368 20.7426 16.5941 20.0461 16.5941 19.1869C16.5941 18.3277 15.7368 17.6312 14.6794 17.6312H1.9147Z" fill="black"/>
<path fill-rule="evenodd" clip-rule="evenodd" d="M18.8291 1.57114L28.012 10.7541C28.2792 11.0212 28.2792 11.4544 28.012 11.7216C27.7449 11.9887 27.3117 11.9887 27.0445 11.7216L17.8616 2.53864C17.5944 2.27147 17.5944 1.83831 17.8616 1.57114C18.1288 1.30397 18.5619 1.30397 18.8291 1.57114ZM16.9326 0.642129C17.7128 -0.138115 18.9779 -0.138115 19.7581 0.64213L28.941 9.82506C29.6286 10.5126 29.7103 11.5765 29.1862 12.3535C29.3263 12.4815 29.427 12.657 29.4591 12.8657L30.1949 17.6483C30.2877 18.2512 29.7512 18.7619 29.1536 18.6396L22.276 17.2322C21.4775 17.0688 21.3155 15.999 22.0298 15.6065L26.6836 13.049C26.478 12.9531 26.2853 12.8203 26.1155 12.6506L16.9326 3.46765C16.1524 2.6874 16.1524 1.42237 16.9326 0.642129ZM23.7069 16.184L28.2558 13.6842L28.8007 17.2263L23.7069 16.184Z" fill="black"/>
<path d="M14.0661 4.54753L18.3442 1.47802C18.6548 1.25523 19.0827 1.33256 19.3002 1.65073C19.5176 1.96891 19.4421 2.40745 19.1316 2.63024L15.8204 5.006C16.1023 5.26429 16.3039 5.6161 16.377 6.02048L16.4146 6.22853L19.8877 3.73663C20.7945 3.08599 21.0149 1.80525 20.3799 0.876031C19.7449 -0.0531887 18.495 -0.279017 17.5882 0.371629L11.768 4.54753H14.0661Z" fill="black"/>
<path d="M9.57938 7.76667V6.3484C9.57938 6.26639 9.58473 6.18566 9.59509 6.10655L6.91527 8.02928C6.43269 8.37553 6.1445 8.90021 6.07617 9.4554H7.42579C7.47334 9.33058 7.55617 9.21829 7.67132 9.13567L9.57938 7.76667Z" fill="black"/>
<path fill-rule="evenodd" clip-rule="evenodd" d="M10.8974 10.806H1.75751C1.51484 10.806 1.31813 11.0076 1.31813 11.2562V14.7932C1.31813 15.0418 1.51485 15.2434 1.75751 15.2434L16.1749 15.2434C16.4496 15.2434 16.657 14.988 16.6069 14.7112L15.0807 6.2664C15.0422 6.053 14.8605 5.89817 14.6487 5.89817H11.3368C11.0941 5.89817 10.8974 6.09974 10.8974 6.34839V10.806ZM9.57938 6.3484C9.57938 5.35381 10.3661 4.54751 11.3368 4.54751H14.6487C15.4959 4.54751 16.2227 5.16687 16.377 6.02048L17.903 14.4653C18.1031 15.5724 17.2737 16.5941 16.1749 16.5941L1.75751 16.5941C0.786864 16.5941 0 15.7878 0 14.7932V11.2562C0 10.2617 0.786863 9.45538 1.75751 9.45538H9.57926L9.57938 6.3484Z" fill="black"/>
<path fill-rule="evenodd" clip-rule="evenodd" d="M6.55692 16.5941V17.6312H5.18567V16.5941H6.55692ZM11.0743 17.6312V16.5941H12.4456V17.6312H11.0743Z" fill="black"/>
</svg>
