<svg width="24" height="25" viewBox="0 0 24 25" fill="none" xmlns="http://www.w3.org/2000/svg">
<path d="M12.001 16.519C11.913 16.519 11.826 16.5029 11.741 16.4719C11.733 16.4689 11.726 16.4669 11.719 16.4639C11.623 16.4249 11.54 16.3698 11.47 16.2987L6.97098 11.7935C6.82898 11.6524 6.75098 11.4632 6.75098 11.2629C6.75098 11.0627 6.82898 10.8735 6.97098 10.7323C7.11198 10.5902 7.30098 10.5121 7.50098 10.5121C7.70098 10.5121 7.88998 10.5902 8.03098 10.7323L11.251 13.956V3.75431C11.251 3.33983 11.587 3.00345 12.001 3.00345C12.415 3.00345 12.751 3.33983 12.751 3.75431V13.955L15.971 10.7313C16.113 10.5892 16.301 10.5111 16.501 10.5111C16.701 10.5111 16.89 10.5892 17.031 10.7313C17.173 10.8725 17.251 11.0617 17.251 11.2619C17.251 11.4622 17.173 11.6514 17.031 11.7925L12.531 16.2977C12.461 16.3678 12.378 16.4229 12.285 16.4619C12.277 16.4649 12.268 16.4689 12.259 16.4719C12.174 16.5039 12.088 16.519 12.001 16.519Z" fill="black"/>
<path d="M3.75097 21.0241C1.68297 21.0241 0.000976562 19.3402 0.000976562 17.2698V15.7681C0.000976562 15.3536 0.336976 15.0172 0.750975 15.0172C1.16497 15.0172 1.50097 15.3536 1.50097 15.7681V17.2698C1.50097 18.5123 2.50997 19.5224 3.75097 19.5224H20.2509C21.4919 19.5224 22.5009 18.5123 22.5009 17.2698V15.7681C22.5009 15.3536 22.8369 15.0172 23.2509 15.0172C23.6649 15.0172 24.0009 15.3536 24.0009 15.7681V17.2698C24.0009 19.3402 22.3189 21.0241 20.2509 21.0241H3.75097Z" fill="black"/>
</svg>
