<svg width="24" height="25" fill="none" xmlns="http://www.w3.org/2000/svg"><path d="M12.001 16.732a.756.756 0 01-.26-.047l-.022-.008a.733.733 0 01-.249-.165l-4.499-4.506a.744.744 0 01-.22-.53c0-.2.078-.39.22-.53a.742.742 0 01.53-.221c.2 0 .389.078.53.22l3.22 3.224V3.967a.75.75 0 111.5 0v10.2l3.22-3.223a.744.744 0 011.06 0c.142.141.22.33.22.53 0 .201-.078.39-.22.531l-4.5 4.506a.764.764 0 01-.246.164l-.026.01a.726.726 0 01-.258.047z" fill="#1B314B"/><path d="M3.751 21.237a3.756 3.756 0 01-3.75-3.754V15.98a.75.75 0 111.5 0v1.502a2.253 2.253 0 002.25 2.252h16.5c1.24 0 2.25-1.01 2.25-2.252V15.98a.75.75 0 111.5 0v1.502a3.756 3.756 0 01-3.75 3.754H3.75z" fill="#1B314B"/></svg>