<svg width="24" height="24" viewBox="0 0 24 24" fill="none" xmlns="http://www.w3.org/2000/svg">
<path d="M12.001 16.5C11.913 16.5 11.826 16.484 11.741 16.453C11.733 16.45 11.726 16.448 11.719 16.445C11.623 16.406 11.54 16.351 11.47 16.28L6.97097 11.78C6.82897 11.639 6.75097 11.45 6.75097 11.25C6.75097 11.05 6.82897 10.861 6.97097 10.72C7.11197 10.578 7.30097 10.5 7.50097 10.5C7.70097 10.5 7.88997 10.578 8.03097 10.72L11.251 13.94V3.75C11.251 3.336 11.587 3 12.001 3C12.415 3 12.751 3.336 12.751 3.75V13.939L15.971 10.719C16.113 10.577 16.301 10.499 16.501 10.499C16.701 10.499 16.89 10.577 17.031 10.719C17.173 10.86 17.251 11.049 17.251 11.249C17.251 11.449 17.173 11.638 17.031 11.779L12.531 16.279C12.461 16.349 12.378 16.404 12.285 16.443C12.277 16.446 12.268 16.45 12.259 16.453C12.174 16.485 12.088 16.5 12.001 16.5Z" fill="black"/>
<path d="M3.75097 21C1.68297 21 0.000976562 19.318 0.000976562 17.25V15.75C0.000976562 15.336 0.336976 15 0.750975 15C1.16497 15 1.50097 15.336 1.50097 15.75V17.25C1.50097 18.491 2.50997 19.5 3.75097 19.5H20.2509C21.4919 19.5 22.5009 18.491 22.5009 17.25V15.75C22.5009 15.336 22.8369 15 23.2509 15C23.6649 15 24.0009 15.336 24.0009 15.75V17.25C24.0009 19.318 22.3189 21 20.2509 21H3.75097Z" fill="black"/>
</svg>
