<svg width="24" height="25" fill="none" xmlns="http://www.w3.org/2000/svg"><path d="M12.008 13.318a5.215 5.215 0 01-4-1.841 3.604 3.604 0 00-2.657-1.16H2.25a2.25 2.25 0 010-4.498H3v-2.25a.75.75 0 011.5 0v2.25h.738l.112.002a3.626 3.626 0 002.674-1.178 5.247 5.247 0 013.972-1.82c1.542 0 2.998.67 3.996 1.838a3.596 3.596 0 002.648 1.16l.101-.001h.759V3.57a.75.75 0 011.5-.001v2.25h.75A2.252 2.252 0 0124 8.069a2.252 2.252 0 01-2.25 2.25h-2.988l-.102-.001a3.636 3.636 0 00-2.684 1.178 5.25 5.25 0 01-3.968 1.822zM5.365 8.817c1.428 0 2.801.608 3.768 1.667a3.77 3.77 0 002.873 1.33 3.745 3.745 0 002.846-1.312 5.153 5.153 0 013.929-1.683h2.969a.75.75 0 000-1.5h-2.988l-.125.002a5.118 5.118 0 01-3.769-1.667 3.77 3.77 0 00-2.874-1.33 3.74 3.74 0 00-2.846 1.31 5.146 5.146 0 01-3.93 1.684H2.25a.75.75 0 000 1.5h2.988l.127-.001zM.75 2.819a.75.75 0 010-1.5h1.5a.75.75 0 010 1.5H.75z" fill="#1B314B"/><path d="M5.25 2.819a.75.75 0 010-1.5h1.5a.75.75 0 010 1.5h-1.5zm12 0a.75.75 0 010-1.5h1.5a.75.75 0 010 1.5h-1.5zm4.5 0a.75.75 0 010-1.5h1.5a.75.75 0 010 1.5h-1.5zm-17.836 18a2.269 2.269 0 01-2.195-2.779 9.666 9.666 0 014.665-6.125.753.753 0 011.02.29.747.747 0 01-.289 1.02 8.154 8.154 0 00-3.937 5.164.762.762 0 00.742.93h1.33a.75.75 0 010 1.5H3.914zm14.836 0a.75.75 0 010-1.5h1.336a.766.766 0 00.734-.939 8.147 8.147 0 00-3.935-5.156.745.745 0 01-.356-.45.752.752 0 011.087-.86 9.66 9.66 0 014.664 6.117 2.271 2.271 0 01-2.186 2.788H18.75zM12 22.694a4.13 4.13 0 01-4.125-4.125A4.13 4.13 0 0112 14.444a4.13 4.13 0 014.125 4.125A4.13 4.13 0 0112 22.694zm0-6.75a2.628 2.628 0 00-2.625 2.625A2.628 2.628 0 0012 21.194a2.627 2.627 0 002.625-2.625A2.627 2.627 0 0012 15.944z" fill="#1B314B"/><path d="M12 19.694a1.125 1.125 0 100-2.25 1.125 1.125 0 000 2.25z" fill="#1B314B"/></svg>