<svg width="24" height="25" viewBox="0 0 24 25" fill="none" xmlns="http://www.w3.org/2000/svg">
<path d="M0.75001 24.0276C0.55201 24.0276 0.35901 23.9475 0.21901 23.8073C0.0330105 23.6211 -0.0419895 23.3458 0.0230105 23.0905L1.79301 16.1776C1.79901 16.1556 1.81401 16.1145 1.82301 16.0935C1.82401 16.0895 1.83001 16.0735 1.83801 16.0564C1.87901 15.9663 1.92801 15.8932 1.98901 15.8332L16.515 1.29048C17.34 0.460529 18.44 0.00300345 19.613 0C20.791 0 21.89 0.454522 22.719 1.28047L22.748 1.3095C23.569 2.15147 24.012 3.25974 23.999 4.43409C23.985 5.60844 23.517 6.7057 22.679 7.52464L8.18501 22.0353C8.12301 22.0974 8.04801 22.1484 7.95401 22.1895C7.90601 22.2105 7.87601 22.2225 7.84301 22.2315L0.93501 24.0056C0.874011 24.0206 0.81201 24.0276 0.75001 24.0276ZM1.79101 22.2345L6.20101 21.1022L2.92001 17.8235L1.79101 22.2345ZM7.65901 20.4375L20.679 7.4025L16.605 3.32382L3.58201 16.3628L7.65901 20.4375ZM21.738 6.33928C22.769 5.21299 22.753 3.46398 21.679 2.36271L21.659 2.34269C21.115 1.80107 20.391 1.50172 19.622 1.50172V1.12629L19.621 1.50172C18.887 1.50373 18.2 1.77304 17.667 2.2646L21.738 6.33928Z" fill="black"/>
</svg>
