<svg width="38" height="24" viewBox="0 0 38 24" fill="none" xmlns="http://www.w3.org/2000/svg">
<path fill-rule="evenodd" clip-rule="evenodd" d="M13.8942 4.66863C14.0609 4.49338 14.3744 4.30367 14.8814 4.13186C15.3776 3.96367 15.9976 3.8329 16.7117 3.73511C18.1399 3.53954 19.8552 3.48729 21.5251 3.48729C23.195 3.48729 24.9103 3.53954 26.3378 3.73511C27.0516 3.83289 27.6711 3.96365 28.1665 4.13177C28.673 4.30365 28.9854 4.49363 29.1506 4.66815C29.7969 5.34999 30.4801 6.48475 31.0194 7.50231L31.0426 7.54617C28.8885 7.21148 25.8399 7.05968 21.5938 7.05968C17.1876 7.05968 14.1533 7.219 11.9895 7.57106L12.0258 7.50231C12.565 6.48498 13.248 5.35052 13.8942 4.66863ZM10.6793 6.87332C10.6888 6.85124 10.6996 6.82875 10.7117 6.80584C11.2569 5.77715 12.0188 4.48514 12.8152 3.64499L12.8159 3.64421C13.2219 3.21719 13.7963 2.92922 14.404 2.72328C15.0226 2.51359 15.7442 2.36643 16.51 2.26157C18.0415 2.05186 19.8387 2 21.5251 2C23.2115 2 25.0087 2.05186 26.5397 2.26158C27.3051 2.36644 28.0263 2.51362 28.6444 2.72337C29.2514 2.92935 29.8255 3.21755 30.2304 3.64538C31.0266 4.48554 31.7884 5.77731 32.3335 6.80584C32.3578 6.85172 32.3746 6.89589 32.385 6.93853C32.7075 6.7584 33.083 6.62679 33.4997 6.55326C34.2643 6.42417 35.1182 6.48375 35.8332 6.72207C36.7368 7.02989 37.2929 7.57603 37.422 8.26119C37.5411 8.96621 37.2035 9.75067 36.4886 10.4358C36.5581 10.555 36.6177 10.6741 36.6772 10.7933C37.6404 12.7296 37.0943 16.5725 36.6673 18.7372V22.0935C36.6673 23.146 35.8133 24 34.7707 24H31.7719C30.7293 24 29.8753 23.146 29.8753 22.1034V21.6268C27.4921 21.5473 24.3344 21.4679 21.5938 21.4679C18.8532 21.4679 15.6955 21.5473 13.3123 21.6268V22.1034C13.3123 23.146 12.4583 24 11.4157 24H8.41689C7.37425 24 6.52029 23.146 6.52029 22.1034V18.7471C6.0933 16.5824 5.54716 12.7396 6.51036 10.8032C6.55949 10.6886 6.61538 10.5874 6.66689 10.4942L6.69902 10.4358C5.994 9.75067 5.64646 8.96621 5.77555 8.26119C5.89471 7.5661 6.46071 7.01996 7.36432 6.72207C8.06934 6.48375 8.91338 6.42417 9.68791 6.55326C10.0525 6.61761 10.3857 6.72643 10.6793 6.87332ZM30.6399 20.1572C28.1971 20.0777 24.6423 19.9784 21.5938 19.9784C18.5453 19.9784 14.9904 20.0678 12.5278 20.1572C12.1307 20.1671 11.8129 20.5047 11.8129 20.9019V22.1034C11.8129 22.3219 11.6342 22.5105 11.4058 22.5105H8.40696C8.1885 22.5105 7.99983 22.3318 7.99983 22.1034V18.6776C7.99983 18.628 7.99983 18.5783 7.9899 18.5287C7.34446 15.2319 7.28488 12.5906 7.84096 11.4586C7.97997 11.1706 8.11899 10.9423 8.27787 10.7437C8.40696 10.5848 8.45661 10.3763 8.42682 10.1777C8.39703 9.97906 8.29773 9.80032 8.12892 9.68116C7.45369 9.20453 7.20545 8.71797 7.23524 8.51937C7.24517 8.44986 7.41397 8.27112 7.83103 8.1321C8.30766 7.97323 8.90345 7.93351 9.42973 8.02288C10.0156 8.12217 10.4029 8.37042 10.5121 8.70804C10.6412 9.06551 11.0086 9.27404 11.3462 9.20453C13.4116 8.76761 16.6587 8.55909 21.564 8.55909C26.4594 8.55909 29.7065 8.75768 31.7818 9.20453C32.1492 9.28397 32.5266 9.07544 32.6457 8.71797C32.7649 8.38035 33.1621 8.1321 33.738 8.03281C34.2643 7.94344 34.8601 7.98316 35.3367 8.14203C35.7637 8.28105 35.9226 8.45979 35.9325 8.5293C35.9623 8.71797 35.7041 9.21446 35.0388 9.69109C34.8799 9.81025 34.7707 9.98899 34.7409 10.1876C34.7111 10.3862 34.7608 10.5947 34.8899 10.7536C35.0487 10.9522 35.1878 11.1706 35.3268 11.4586C35.8828 12.5906 35.8332 15.2319 35.1778 18.5287C35.1679 18.5783 35.1679 18.628 35.1679 18.6776V22.1034C35.1679 22.3219 34.9892 22.5105 34.7608 22.5105H31.762C31.5435 22.5105 31.3548 22.3318 31.3548 22.1034V20.9019C31.3548 20.5047 31.0371 20.1671 30.6399 20.1572ZM32.3626 16.319H28.8939H28.888C28.5447 16.3114 28.3553 15.785 28.5388 15.4035L28.888 14.6863C29.1307 14.1828 29.5391 13.8394 30.0008 13.7631L33.4754 13.1604C33.9845 13.0841 34.3515 13.7784 34.1029 14.3582L33.7063 15.2967C33.434 15.9223 32.919 16.319 32.3626 16.319ZM28.5255 18.1122H32.2332C32.5758 18.1122 32.8582 17.8929 32.8582 17.6165C32.8582 17.3447 32.5758 17.1207 32.2332 17.1207H28.5255C28.183 17.1207 27.9006 17.3447 27.9006 17.6165C27.9006 17.8882 28.183 18.1122 28.5255 18.1122ZM10.548 16.319H14.0166H14.0226C14.3659 16.3114 14.5553 15.785 14.3718 15.4035L14.0226 14.6863C13.7799 14.1828 13.3714 13.8395 12.9097 13.7632L9.43516 13.1604C8.9261 13.0841 8.55911 13.7784 8.80772 14.3583L9.20431 15.2967C9.47659 15.9223 9.99156 16.319 10.548 16.319ZM14.386 18.1122H10.6782C10.3357 18.1122 10.0533 17.893 10.0533 17.6165C10.0533 17.3448 10.3357 17.1207 10.6782 17.1207H14.386C14.7285 17.1207 15.0109 17.3448 15.0109 17.6165C15.0109 17.8882 14.7285 18.1122 14.386 18.1122Z" fill="black"/>
<path fill-rule="evenodd" clip-rule="evenodd" d="M21.9901 13.4801L22.4828 10.194L19.6508 15.0991H21.2773L20.7846 18.3852L23.6166 13.4801H21.9901Z" fill="#29D305"/>
<path fill-rule="evenodd" clip-rule="evenodd" d="M3.61186 0C2.81833 0 2.17505 0.643283 2.17505 1.43681V1.60254H0.75C0.335786 1.60254 0 1.93833 0 2.35254C0 2.76675 0.335786 3.10254 0.75 3.10254H2.17505V4.34979H0.75C0.335786 4.34979 0 4.68558 0 5.09979C0 5.51401 0.335786 5.84979 0.75 5.84979H2.17641C2.20948 6.61401 2.8395 7.22342 3.61186 7.22342H4.87101C6.53186 7.22342 7.93087 6.10238 8.35264 4.57571C8.98997 4.6959 9.59742 4.89946 10.1636 5.17452C10.5362 5.35552 10.9849 5.20023 11.1659 4.82765C11.3469 4.45508 11.1916 4.00632 10.8191 3.82531C10.0788 3.46567 9.28032 3.20737 8.44211 3.06827C8.18001 1.33141 6.68099 0 4.87102 0H3.61186ZM3.67505 5.72342V1.5H4.87102C6.03728 1.5 6.98272 2.44544 6.98272 3.61171C6.98272 4.77798 6.03728 5.72342 4.87101 5.72342H3.67505Z" fill="black"/>
</svg>
