<svg width="24" height="24" viewBox="0 0 24 24" fill="none" xmlns="http://www.w3.org/2000/svg">
<path fill-rule="evenodd" clip-rule="evenodd" d="M8.90523 7.1124C9.0121 6.99557 9.21305 6.86909 9.53795 6.75455C9.85598 6.64243 10.2534 6.55525 10.7111 6.49005C11.6265 6.35968 12.7258 6.32484 13.7961 6.32484C14.8664 6.32484 15.9658 6.35968 16.8807 6.49005C17.3382 6.55524 17.7353 6.64241 18.0528 6.75449C18.3774 6.86908 18.5777 6.99573 18.6836 7.11208C19.0978 7.56664 19.5357 8.32315 19.8813 9.00152L19.8962 9.03079C18.5156 8.80766 16.5616 8.70646 13.8402 8.70646C11.0161 8.70646 9.0713 8.81267 7.68446 9.04737L7.70775 9.00152C8.05331 8.3233 8.49108 7.56699 8.90523 7.1124ZM6.84468 8.58221C6.85078 8.56748 6.85769 8.55249 6.86547 8.53721C7.2149 7.85141 7.70326 6.99007 8.21368 6.42997L8.21415 6.42945C8.47433 6.14477 8.84251 5.9528 9.23196 5.8155C9.62847 5.67571 10.091 5.5776 10.5818 5.5077C11.5634 5.36788 12.7153 5.33331 13.7961 5.33331C14.877 5.33331 16.0289 5.36788 17.0101 5.5077C17.5007 5.57761 17.963 5.67572 18.3591 5.81556C18.7481 5.95288 19.1161 6.14502 19.3756 6.43023C19.886 6.99034 20.3742 7.85152 20.7236 8.53721C20.7392 8.5678 20.7499 8.59725 20.7566 8.62569C20.9633 8.5056 21.204 8.41786 21.471 8.36884C21.9611 8.28278 22.5084 8.3225 22.9666 8.48138C23.5458 8.6866 23.9022 9.05069 23.9849 9.50746C24.0613 9.97748 23.8449 10.5004 23.3867 10.9572C23.4312 11.0367 23.4694 11.1161 23.5076 11.1955C24.125 12.4864 23.7749 15.0483 23.5013 16.4915V18.729C23.5013 19.4307 22.9539 20 22.2857 20H20.3636C19.6954 20 19.148 19.4307 19.148 18.7356V18.4178C17.6206 18.3649 15.5967 18.3119 13.8402 18.3119C12.0836 18.3119 10.0597 18.3649 8.53228 18.4178V18.7356C8.53228 19.4307 7.98495 20 7.31669 20H5.39465C4.7264 20 4.17906 19.4307 4.17906 18.7356V16.4981C3.90539 15.0549 3.55535 12.493 4.1727 11.2022C4.20419 11.1257 4.24001 11.0583 4.27302 10.9962L4.29362 10.9572C3.84175 10.5004 3.619 9.97748 3.70173 9.50746C3.77811 9.04407 4.14088 8.67998 4.72003 8.48138C5.1719 8.3225 5.71287 8.28278 6.20929 8.36884C6.44299 8.41174 6.6565 8.48428 6.84468 8.58221ZM19.6381 17.4381C18.0725 17.3851 15.794 17.3189 13.8402 17.3189C11.8863 17.3189 9.60786 17.3785 8.0295 17.4381C7.77492 17.4447 7.57126 17.6698 7.57126 17.9346V18.7356C7.57126 18.8812 7.45671 19.007 7.31033 19.007H5.38829C5.24827 19.007 5.12735 18.8879 5.12735 18.7356V16.4517C5.12735 16.4186 5.12735 16.3855 5.12099 16.3524C4.7073 14.1546 4.66912 12.3937 5.02552 11.6391C5.11462 11.4471 5.20372 11.2948 5.30555 11.1624C5.38829 11.0565 5.42011 10.9175 5.40102 10.7851C5.38193 10.6527 5.31828 10.5335 5.21009 10.4541C4.77731 10.1364 4.6182 9.81198 4.6373 9.67958C4.64366 9.63324 4.75185 9.51408 5.01916 9.4214C5.32465 9.31549 5.70651 9.28901 6.04382 9.34859C6.41932 9.41478 6.66753 9.58028 6.73753 9.80536C6.82027 10.0437 7.05575 10.1827 7.27214 10.1364C8.59593 9.84508 10.6771 9.70606 13.8211 9.70606C16.9587 9.70606 19.0398 9.83846 20.37 10.1364C20.6055 10.1893 20.8473 10.0503 20.9237 9.81198C21.0001 9.5869 21.2546 9.4214 21.6238 9.35521C21.9611 9.29563 22.3429 9.32211 22.6484 9.42802C22.9221 9.5207 23.0239 9.63986 23.0303 9.6862C23.0494 9.81198 22.8839 10.143 22.4575 10.4607C22.3557 10.5402 22.2857 10.6593 22.2666 10.7917C22.2475 10.9241 22.2793 11.0631 22.362 11.1691C22.4639 11.3015 22.553 11.4471 22.6421 11.6391C22.9985 12.3937 22.9666 14.1546 22.5466 16.3524C22.5402 16.3855 22.5402 16.4186 22.5402 16.4517V18.7356C22.5402 18.8812 22.4257 19.007 22.2793 19.007H20.3573C20.2172 19.007 20.0963 18.8879 20.0963 18.7356V17.9346C20.0963 17.6698 19.8927 17.4447 19.6381 17.4381ZM20.7422 14.8793H18.519H18.5153C18.2952 14.8742 18.1738 14.5233 18.2914 14.269L18.5153 13.7909C18.6708 13.4552 18.9326 13.2263 19.2285 13.1754L21.4555 12.7736C21.7817 12.7227 22.017 13.1856 21.8576 13.5721L21.6034 14.1978C21.4289 14.6148 21.0988 14.8793 20.7422 14.8793ZM18.2829 16.0748H20.6593C20.8789 16.0748 21.0599 15.9286 21.0599 15.7443C21.0599 15.5632 20.8789 15.4138 20.6593 15.4138H18.2829C18.0634 15.4138 17.8824 15.5632 17.8824 15.7443C17.8824 15.9254 18.0634 16.0748 18.2829 16.0748ZM6.76053 14.8794H8.98372H8.98751C9.20755 14.8743 9.32896 14.5233 9.21135 14.269L8.98751 13.7909C8.83196 13.4552 8.57019 13.2263 8.27427 13.1755L6.04729 12.7736C5.72102 12.7228 5.48581 13.1856 5.64515 13.5722L5.89933 14.1978C6.07385 14.6149 6.40391 14.8794 6.76053 14.8794ZM9.22042 16.0748H6.84403C6.62449 16.0748 6.44347 15.9286 6.44347 15.7443C6.44347 15.5632 6.62449 15.4138 6.84403 15.4138H9.22042C9.43995 15.4138 9.62098 15.5632 9.62098 15.7443C9.62098 15.9255 9.43995 16.0748 9.22042 16.0748Z" fill="black"/>
<path fill-rule="evenodd" clip-rule="evenodd" d="M14.0942 12.9867L14.4099 10.796L12.5948 14.0661H13.6373L13.3215 16.2568L15.1367 12.9867L14.0942 12.9867Z" fill="#29D305"/>
<path fill-rule="evenodd" clip-rule="evenodd" d="M2.31496 4C1.80636 4 1.39406 4.42886 1.39406 4.95787V5.06836H0.480699C0.215216 5.06836 0 5.29222 0 5.56836C0 5.8445 0.215216 6.06836 0.480699 6.06836H1.39406V6.89987H0.480699C0.215216 6.89987 0 7.12373 0 7.39987C0 7.67601 0.215216 7.89987 0.480699 7.89987H1.39493C1.41613 8.40934 1.81993 8.81561 2.31496 8.81561H3.12199C4.18647 8.81561 5.08314 8.06826 5.35348 7.05048C5.76196 7.13061 6.1513 7.26632 6.51417 7.44969C6.75297 7.57036 7.04059 7.46683 7.1566 7.21844C7.27261 6.97006 7.17308 6.67089 6.93428 6.55022C6.45982 6.31046 5.94806 6.13826 5.41082 6.04552C5.24283 4.88761 4.28207 4 3.12199 4H2.31496ZM2.35546 7.81561V5H3.12199C3.86949 5 4.47545 5.6303 4.47545 6.40781C4.47545 7.18532 3.86949 7.81561 3.12199 7.81561H2.35546Z" fill="black"/>
</svg>
