<svg width="38" height="24" fill="none" xmlns="http://www.w3.org/2000/svg"><path fill-rule="evenodd" clip-rule="evenodd" d="M13.894 4.669c.167-.176.48-.365.987-.537.497-.168 1.117-.3 1.83-.397 1.429-.195 3.144-.248 4.814-.248s3.385.053 4.813.248c.714.098 1.333.229 1.828.397.507.172.82.362.985.536.646.682 1.33 1.817 1.868 2.834l.024.044c-2.154-.335-5.203-.486-9.45-.486-4.405 0-7.44.159-9.604.511l.037-.069c.539-1.017 1.222-2.151 1.868-2.833zM10.68 6.873a.941.941 0 01.033-.067c.545-1.029 1.307-2.32 2.103-3.161.407-.428.981-.716 1.589-.922.619-.21 1.34-.357 2.106-.461 1.53-.21 3.328-.262 5.014-.262 1.687 0 3.484.052 5.015.262.765.104 1.486.252 2.104.461.607.206 1.182.495 1.586.922.797.84 1.558 2.132 2.104 3.16a.62.62 0 01.051.134c.323-.18.698-.312 1.115-.386a5 5 0 012.333.17c.904.307 1.46.853 1.589 1.538.12.705-.218 1.49-.933 2.175.07.119.129.238.188.357.963 1.937.417 5.78-.01 7.944v3.357A1.905 1.905 0 0134.771 24h-3a1.903 1.903 0 01-1.896-1.897v-.476c-2.383-.08-5.54-.16-8.281-.16-2.74 0-5.899.08-8.282.16v.476A1.903 1.903 0 0111.416 24h-3a1.903 1.903 0 01-1.896-1.897v-3.356c-.427-2.165-.973-6.007-.01-7.944.05-.114.105-.216.157-.309l.032-.058c-.705-.685-1.053-1.47-.923-2.175.119-.695.685-1.241 1.588-1.539a4.939 4.939 0 012.324-.169c.364.065.698.173.991.32zm19.96 13.284c-2.442-.08-5.997-.179-9.045-.179-3.049 0-6.604.09-9.066.18a.744.744 0 00-.715.744v1.201a.409.409 0 01-.407.407h-3A.409.409 0 018 22.104v-3.425c0-.05 0-.1-.01-.15-.646-3.296-.705-5.937-.149-7.07a3.68 3.68 0 01.437-.714.728.728 0 00.149-.566.728.728 0 00-.298-.497c-.675-.476-.924-.963-.894-1.162.01-.07.179-.248.596-.387a3.456 3.456 0 011.599-.11c.586.1.973.348 1.082.686.13.358.497.566.834.497 2.066-.437 5.313-.646 10.218-.646 4.895 0 8.142.199 10.218.646a.748.748 0 00.864-.487c.119-.338.516-.586 1.092-.685a3.456 3.456 0 011.599.109c.427.14.586.318.595.387.03.189-.228.685-.893 1.162a.766.766 0 00-.298.497c-.03.198.02.407.149.566.159.198.298.417.437.705.556 1.132.506 3.773-.15 7.07-.01.05-.01.099-.01.149v3.425a.409.409 0 01-.406.407h-2.999a.409.409 0 01-.407-.407v-1.201a.744.744 0 00-.715-.745zm1.724-3.838h-3.475c-.343-.008-.533-.534-.35-.915l.35-.718c.243-.503.651-.847 1.113-.923l3.474-.603c.51-.076.877.618.628 1.198l-.397.939c-.272.625-.787 1.022-1.343 1.022zm-3.837 1.793h3.707c.343 0 .625-.22.625-.495 0-.272-.282-.496-.625-.496h-3.707c-.343 0-.625.224-.625.495 0 .272.282.496.625.496zm-17.98-1.792h3.476c.343-.008.532-.534.349-.915l-.35-.718c-.242-.503-.65-.847-1.112-.923l-3.475-.603c-.509-.076-.876.618-.627 1.198l.396.939c.273.625.788 1.022 1.344 1.022zm3.838 1.793h-3.708c-.342 0-.625-.219-.625-.495 0-.272.283-.496.625-.496h3.708c.343 0 .625.224.625.495 0 .272-.282.496-.625.496z" fill="#1B314B"/><path fill-rule="evenodd" clip-rule="evenodd" d="M21.99 13.48l.493-3.286-2.832 4.905h1.626l-.492 3.286 2.832-4.905H21.99zM3.612 0c-.794 0-1.437.643-1.437 1.437v.166H.75a.75.75 0 000 1.5h1.425V4.35H.75a.75.75 0 000 1.5h1.426a1.437 1.437 0 001.436 1.373H4.87c1.66 0 3.06-1.12 3.482-2.647.637.12 1.244.323 1.81.599a.75.75 0 10.656-1.35 8.693 8.693 0 00-2.377-.757A3.613 3.613 0 004.871 0h-1.26zm.063 5.723V1.5h1.196a2.112 2.112 0 110 4.223H3.675z" fill="#1B314B"/></svg>