<svg width="24" height="24" viewBox="0 0 24 24" fill="none" xmlns="http://www.w3.org/2000/svg">
<path fill-rule="evenodd" clip-rule="evenodd" d="M5.96523 3.31258H5.96361L5.93075 3.31254C5.74779 3.31219 5.67347 3.31938 5.61449 3.33955C5.55979 3.35826 5.4592 3.40805 5.26436 3.60289M5.26436 3.60289L3.60293 5.26434C3.60284 5.26444 3.60303 5.26424 3.60293 5.26434C3.41734 5.45021 3.31263 5.70263 3.3125 5.9655C3.3125 5.96559 3.3125 5.9654 3.3125 5.9655V20.6951C3.3125 20.9583 3.41705 21.2107 3.60316 21.3968C3.78926 21.5829 4.04168 21.6875 4.30487 21.6875H19.0344C19.0345 21.6875 19.0343 21.6875 19.0344 21.6875C19.2971 21.6874 19.5498 21.5828 19.7358 21.3969L21.397 19.7357C21.5827 19.5498 21.6873 19.2976 21.6874 19.0346C21.6874 19.0345 21.6874 19.0347 21.6874 19.0346V4.30495C21.6874 4.04176 21.5828 3.78935 21.3967 3.60324C21.2106 3.41714 20.9582 3.31258 20.695 3.31258H5.96523M22.9999 19.0346C22.9998 19.6454 22.7571 20.2314 22.3253 20.6635L20.6636 22.3253C20.2315 22.7571 19.6455 22.9999 19.0347 23H4.30487C3.69358 23 3.10733 22.7572 2.67508 22.3249C2.24283 21.8927 2 21.3064 2 20.6951V5.9655C2.00013 5.35464 2.24275 4.76864 2.67456 4.33656L4.33628 2.67482C4.60333 2.40777 4.87052 2.20685 5.18979 2.09766C5.4778 1.99917 5.75167 1.99969 5.93327 2.00004L5.96523 2.00008H20.695C21.3063 2.00008 21.8926 2.24292 22.3248 2.67516C22.7571 3.10741 22.9999 3.69366 22.9999 4.30495V19.0346Z" fill="black"/>
<path fill-rule="evenodd" clip-rule="evenodd" d="M19.4147 4.4169C19.7771 4.4169 20.0709 4.71071 20.0709 5.07315L20.0709 21.4633C20.0709 21.8258 19.7771 22.1196 19.4147 22.1196C19.0522 22.1196 18.7584 21.8258 18.7584 21.4633L18.7584 5.07315C18.7584 4.71071 19.0522 4.4169 19.4147 4.4169Z" fill="black"/>
<path fill-rule="evenodd" clip-rule="evenodd" d="M21.9275 2.56031C22.1838 2.8166 22.1838 3.23211 21.9275 3.48839L19.8787 5.53716C19.6224 5.79344 19.2069 5.79344 18.9506 5.53716C18.6944 5.28088 18.6944 4.86537 18.9506 4.60908L20.9994 2.56031C21.2557 2.30403 21.6712 2.30403 21.9275 2.56031Z" fill="black"/>
<path fill-rule="evenodd" clip-rule="evenodd" d="M2.36734 5.07315C2.36734 4.71071 2.66115 4.4169 3.02359 4.4169H19.4138C19.7762 4.4169 20.07 4.71071 20.07 5.07315C20.07 5.43559 19.7762 5.7294 19.4138 5.7294H3.02359C2.66115 5.7294 2.36734 5.43559 2.36734 5.07315Z" fill="black"/>
<path fill-rule="evenodd" clip-rule="evenodd" d="M11.5002 5.22728C11.714 5.15269 11.9514 5.21246 12.1049 5.37951L17.4332 11.1783C17.4639 11.2117 17.4905 11.2487 17.5125 11.2884L19.7327 15.303C19.8852 15.5789 19.7863 15.9268 19.5116 16.0801C19.237 16.2334 18.8906 16.134 18.738 15.8581L16.6804 12.1375H11.2428C11.0844 12.1375 10.9331 12.0711 10.8254 11.9543C10.7177 11.8375 10.6634 11.6809 10.6756 11.5221L11.1196 5.72332C11.137 5.49666 11.2864 5.30188 11.5002 5.22728ZM15.7158 10.9944H11.8572L12.154 7.11815L15.7158 10.9944Z" fill="black"/>
<path d="M6.65184 10.6318C6.83857 10.6318 6.98994 10.4802 6.98994 10.2933C6.98994 10.1063 6.83857 9.9548 6.65184 9.9548C6.46512 9.9548 6.31375 10.1063 6.31375 10.2933C6.31375 10.4802 6.46512 10.6318 6.65184 10.6318Z" fill="black"/>
<path d="M6.65184 10.6318C6.83857 10.6318 6.98994 10.4802 6.98994 10.2933C6.98994 10.1063 6.83857 9.9548 6.65184 9.9548C6.46512 9.9548 6.31375 10.1063 6.31375 10.2933C6.31375 10.4802 6.46512 10.6318 6.65184 10.6318Z" stroke="black"/>
<path d="M6.65304 9.72967C6.52875 9.72967 6.42789 9.62869 6.42789 9.50426V8.60263C6.42789 8.47821 6.52875 8.37723 6.65304 8.37723C6.77732 8.37723 6.87818 8.47821 6.87818 8.60263V9.50426C6.87818 9.62869 6.77732 9.72967 6.65304 9.72967Z" fill="black"/>
<path d="M6.65304 9.72967C6.52875 9.72967 6.42789 9.62869 6.42789 9.50426V8.60263C6.42789 8.47821 6.52875 8.37723 6.65304 8.37723C6.77732 8.37723 6.87818 8.47821 6.87818 8.60263V9.50426C6.87818 9.62869 6.77732 9.72967 6.65304 9.72967Z" stroke="black"/>
<path d="M4.575 10.5489L4.575 10.5489C4.575 10.424 4.60441 10.2988 4.66041 10.1867L4.66041 10.1867L5.92886 7.64718L5.92888 7.64716L5.97361 7.6695C6.10267 7.41077 6.36291 7.25 6.65256 7.25C6.77052 7.25 6.88398 7.27674 6.98994 7.32993L4.575 10.5489ZM4.575 10.5489C4.57532 10.9945 4.93773 11.3571 5.3829 11.3571H7.91982C8.04461 11.3571 8.16964 11.3276 8.28168 11.2712C8.6798 11.072 8.84162 10.5852 8.64231 10.1867C8.64231 10.1867 8.6423 10.1867 8.6423 10.1867L7.37385 7.64716L4.575 10.5489ZM6.4215 7.89367L6.42145 7.89378L5.15298 10.4333C5.15298 10.4333 5.15298 10.4333 5.15298 10.4333C5.13508 10.4692 5.12554 10.509 5.12554 10.5489C5.12554 10.6911 5.24124 10.8066 5.3829 10.8066H7.91982C7.95934 10.8066 7.99946 10.7971 8.03564 10.7791L8.0579 10.8239M6.4215 7.89367L8.15034 10.4333C8.21371 10.5605 8.16199 10.7158 8.03552 10.7792L8.0579 10.8239M6.4215 7.89367C6.46523 7.8056 6.55348 7.75105 6.65226 7.75105C6.69191 7.75105 6.73048 7.76006 6.76675 7.77822L6.78913 7.73351M6.4215 7.89367L8.15032 10.4333L6.88192 7.89387C6.88191 7.89385 6.8819 7.89383 6.88189 7.89382C6.85694 7.84414 6.81606 7.80303 6.76666 7.77817L6.78913 7.73351M8.0579 10.8239C8.01497 10.8452 7.96725 10.8566 7.91982 10.8566H5.3829C5.21361 10.8566 5.07554 10.7187 5.07554 10.5489C5.07554 10.5011 5.08694 10.4536 5.10825 10.411H8.19507C8.27071 10.5627 8.20918 10.7481 8.0579 10.8239ZM6.78913 7.73351C6.74591 7.71187 6.69969 7.70105 6.65226 7.70105C6.5346 7.70105 6.42894 7.76626 6.37672 7.87144L6.78913 7.73351Z" fill="black" stroke="black" stroke-width="0.1"/>
<ellipse cx="15.8765" cy="7.12641" rx="0.7515" ry="0.7515" fill="black"/>
<ellipse cx="17.6268" cy="7.12641" rx="0.7515" ry="0.7515" fill="black"/>
<circle cx="17.6268" cy="8.87659" r="0.7515" fill="black"/>
</svg>
