<svg width="24" height="24" viewBox="0 0 24 24" fill="none" xmlns="http://www.w3.org/2000/svg">
<path d="M23.7592 11.8094L13.699 1.74916C13.2709 1.21405 12.6288 1 11.9866 1C11.3445 1 10.7023 1.32107 10.2742 1.74916L0.214047 11.8094C0.107023 11.9164 0 12.1304 0 12.3445C0 12.5585 0.107023 12.7726 0.214047 12.8796C0.32107 12.9866 0.535117 13.0936 0.749164 13.0936C0.963211 13.0936 1.17726 12.9866 1.28428 12.8796L3.10368 11.0602V21.8696C3.10368 22.4047 3.53177 22.7258 3.95987 22.7258H7.06355V21.1204H4.70903V9.45485L11.4515 2.71237C11.5585 2.60535 11.7726 2.49833 11.9866 2.49833C12.0936 2.49833 12.3077 2.60535 12.5217 2.8194C12.5217 2.8194 22.5819 12.8796 22.689 12.9866C22.796 13.0936 23.01 13.2007 23.2241 13.2007C23.4381 13.2007 23.6522 13.0936 23.7592 12.9866C24.0803 12.6656 24.0803 12.1304 23.7592 11.8094Z" fill="black"/>
<path d="M19.9063 12.1304H10.3813C9.52507 12.1304 8.77591 12.8796 8.77591 13.7358V22.0836C8.77591 22.9398 9.52507 23.689 10.3813 23.689H19.9063C20.7625 23.689 21.5117 22.9398 21.5117 22.0836V13.7358C21.5117 12.8796 20.7625 12.1304 19.9063 12.1304ZM20.1204 21.7625C20.1204 22.0836 19.9063 22.2977 19.5853 22.2977H10.5953C10.2742 22.2977 10.0602 22.0836 10.0602 21.7625V13.9498C10.0602 13.6288 10.2742 13.4147 10.5953 13.4147H19.5853C19.9063 13.4147 20.1204 13.6288 20.1204 13.9498V21.7625ZM15.4114 16.9465C15.4114 16.9465 15.3043 16.9465 15.4114 16.9465L15.9465 14.1639L12.7358 18.6589C12.7358 18.7659 12.7358 18.7659 12.8428 18.7659H15.1973C15.1973 18.7659 15.3043 18.7659 15.3043 18.8729L14.7692 21.5485L17.8729 17.0535C17.8729 16.9465 17.8729 16.9465 17.7659 16.9465H15.4114V16.9465Z" fill="black"/>
</svg>
