<svg width="24" height="24" fill="none" xmlns="http://www.w3.org/2000/svg"><path d="M23.76 11.81L13.698 1.75c-.428-.536-1.07-.75-1.712-.75-.643 0-1.285.321-1.713.75L.214 11.81a.817.817 0 00-.214.534c0 .215.107.429.214.536a.818.818 0 00.535.214.818.818 0 00.535-.214l1.82-1.82v10.81c0 .535.428.856.856.856h3.104V21.12H4.709V9.455l6.742-6.743a.818.818 0 01.536-.214c.107 0 .32.107.535.321l10.167 10.168a.817.817 0 00.535.214.818.818 0 00.535-.214.84.84 0 000-1.178z" fill="#1B314B"/><path d="M19.906 12.13h-9.525c-.856 0-1.605.75-1.605 1.606v8.348c0 .856.75 1.605 1.605 1.605h9.525c.857 0 1.606-.75 1.606-1.605v-8.348c0-.856-.75-1.606-1.606-1.606zm.214 9.632c0 .322-.214.536-.535.536h-8.99c-.32 0-.535-.214-.535-.535V13.95c0-.321.214-.535.535-.535h8.99c.321 0 .535.214.535.535v7.813zm-4.709-4.816s-.107 0 0 0l.536-2.782-3.211 4.495c0 .107 0 .107.107.107h2.354s.107 0 .107.107l-.535 2.675 3.104-4.494c0-.107 0-.107-.107-.107H15.41z" fill="#1B314B"/></svg>