<svg width="24" height="24" fill="none" xmlns="http://www.w3.org/2000/svg"><path d="M22.9 11.6l-9.4-9.4c-.4-.5-1-.7-1.6-.7-.6 0-1.2.3-1.6.7L.9 11.6c-.1.1-.2.3-.2.5s.1.4.2.5c.1.1.3.2.5.2s.4-.1.5-.2l1.7-1.7V21c0 .5.4.8.8.8h2.9v-1.5H5.1V9.4l6.3-6.3c.1-.1.3-.2.5-.2.1 0 .3.1.5.3l9.5 9.5c.1.1.3.2.5.2s.4-.1.5-.2c.3-.3.3-.8 0-1.1z" fill="#1B314B"/><path d="M19.3 11.9h-8.9c-.8 0-1.5.7-1.5 1.5v7.8c0 .8.7 1.5 1.5 1.5h8.9c.8 0 1.5-.7 1.5-1.5v-7.8c0-.8-.7-1.5-1.5-1.5zm.2 9c0 .3-.2.5-.5.5h-8.4c-.3 0-.5-.2-.5-.5v-7.3c0-.3.2-.5.5-.5H19c.3 0 .5.2.5.5v7.3z" fill="#1B314B"/><path d="M15.1 16.4l.5-2.6-3 4.2c0 .1 0 .1.1.1h2.2s.1 0 .1.1l-.5 2.5 2.9-4.2c0-.1 0-.1-.1-.1h-2.2z" fill="#FFB65C"/></svg>