<svg width="24" height="24" viewBox="0 0 24 24" fill="none" xmlns="http://www.w3.org/2000/svg">
<path fill-rule="evenodd" clip-rule="evenodd" d="M4.53169 1.50009H4.52984L4.49229 1.50005C4.28319 1.49964 4.19825 1.50786 4.13085 1.53091C4.06833 1.55229 3.95338 1.6092 3.7307 1.83187M3.7307 1.83187L1.83192 3.73067C1.83181 3.73079 1.83203 3.73056 1.83192 3.73067C1.61981 3.9431 1.50015 4.23158 1.5 4.532C1.5 4.5321 1.5 4.53189 1.5 4.532V21.3659C1.5 21.6667 1.61949 21.9551 1.83218 22.1678C2.04487 22.3805 2.33334 22.5 2.63413 22.5H19.4679C19.468 22.5 19.4678 22.5 19.4679 22.5C19.7682 22.4999 20.0569 22.3804 20.2695 22.1679L22.168 20.2694C22.3803 20.057 22.4997 19.7687 22.4999 19.4681C22.4999 19.468 22.4999 19.4682 22.4999 19.4681V2.63423C22.4999 2.33344 22.3804 2.04497 22.1677 1.83227C21.955 1.61958 21.6665 1.50009 21.3657 1.50009H4.53169M23.9999 19.4681C23.9997 20.1662 23.7225 20.8359 23.229 21.3297L21.3298 23.2289C20.836 23.7224 20.1663 23.9999 19.4682 24H2.63413C1.93552 24 1.26551 23.7225 0.77152 23.2285C0.277524 22.7345 0 22.0645 0 21.3659V4.532C0.000149052 3.83387 0.27743 3.16416 0.770923 2.67035L2.67004 0.77122C2.97524 0.466018 3.28059 0.236396 3.64547 0.111614C3.97463 -0.000950463 4.28762 -0.000349231 4.49517 4.94955e-05L4.53169 9.4504e-05H21.3657C22.0644 9.4504e-05 22.7344 0.277619 23.2284 0.771614C23.7224 1.26561 23.9999 1.93561 23.9999 2.63423V19.4681Z" fill="black"/>
<path fill-rule="evenodd" clip-rule="evenodd" d="M19.9025 2.76217C20.3167 2.76217 20.6525 3.09795 20.6525 3.51217L20.6525 22.2438C20.6525 22.658 20.3167 22.9938 19.9025 22.9938C19.4883 22.9938 19.1525 22.658 19.1525 22.2438L19.1525 3.51217C19.1525 3.09795 19.4883 2.76217 19.9025 2.76217Z" fill="black"/>
<path fill-rule="evenodd" clip-rule="evenodd" d="M22.7743 0.640347C23.0672 0.93324 23.0672 1.40811 22.7743 1.70101L20.4328 4.04246C20.1399 4.33535 19.6651 4.33535 19.3722 4.04246C19.0793 3.74957 19.0793 3.27469 19.3722 2.9818L21.7136 0.640347C22.0065 0.347454 22.4814 0.347454 22.7743 0.640347Z" fill="black"/>
<path fill-rule="evenodd" clip-rule="evenodd" d="M0.419811 3.51217C0.419811 3.09795 0.755598 2.76217 1.16981 2.76217H19.9014C20.3156 2.76217 20.6514 3.09795 20.6514 3.51217C20.6514 3.92638 20.3156 4.26217 19.9014 4.26217H1.16981C0.755598 4.26217 0.419811 3.92638 0.419811 3.51217Z" fill="black"/>
<path fill-rule="evenodd" clip-rule="evenodd" d="M10.8574 3.68831C11.1017 3.60306 11.373 3.67137 11.5485 3.86228L17.638 10.4895C17.6731 10.5277 17.7035 10.5699 17.7286 10.6153L20.2659 15.2034C20.4403 15.5187 20.3272 15.9164 20.0133 16.0915C19.6994 16.2667 19.3036 16.1531 19.1292 15.8378L16.7777 11.5857H10.5633C10.3821 11.5857 10.2092 11.5098 10.0862 11.3763C9.96314 11.2428 9.90109 11.0638 9.91498 10.8824L10.4224 4.25522C10.4423 3.99617 10.6131 3.77356 10.8574 3.68831ZM15.6752 10.2793H11.2654L11.6046 5.8493L15.6752 10.2793Z" fill="black"/>
<path d="M5.31639 9.86489C5.52979 9.86489 5.70278 9.6917 5.70278 9.47806C5.70278 9.26441 5.52979 9.09122 5.31639 9.09122C5.10299 9.09122 4.93 9.26441 4.93 9.47806C4.93 9.6917 5.10299 9.86489 5.31639 9.86489Z" fill="black"/>
<path d="M5.31639 9.86489C5.52979 9.86489 5.70278 9.6917 5.70278 9.47806C5.70278 9.26441 5.52979 9.09122 5.31639 9.09122C5.10299 9.09122 4.93 9.26441 4.93 9.47806C4.93 9.6917 5.10299 9.86489 5.31639 9.86489Z" stroke="black"/>
<path d="M5.31775 8.83391C5.17571 8.83391 5.06044 8.7185 5.06044 8.5763V7.54587C5.06044 7.40367 5.17571 7.28827 5.31775 7.28827C5.45979 7.28827 5.57506 7.40367 5.57506 7.54587V8.5763C5.57506 8.7185 5.45979 8.83391 5.31775 8.83391Z" fill="black"/>
<path d="M5.31775 8.83391C5.17571 8.83391 5.06044 8.7185 5.06044 8.5763V7.54587C5.06044 7.40367 5.17571 7.28827 5.31775 7.28827C5.45979 7.28827 5.57506 7.40367 5.57506 7.54587V8.5763C5.57506 8.7185 5.45979 8.83391 5.31775 8.83391Z" stroke="black"/>
<path d="M2.95 9.77021L2.95 9.77017C2.95 9.6285 2.98336 9.48657 3.04686 9.35942L3.04686 9.35941L4.49652 6.45711L4.49653 6.45709L4.54126 6.47943C4.68877 6.18374 4.98618 6 5.31721 6C5.45203 6 5.58169 6.03057 5.70279 6.09135L2.95 9.77021ZM2.95 9.77021C2.95036 10.2755 3.36135 10.6866 3.86617 10.6866H6.76551C6.90702 10.6866 7.04882 10.6533 7.17587 10.5893C7.62733 10.3633 7.81085 9.81129 7.58482 9.35941C7.58482 9.35941 7.58481 9.3594 7.58481 9.35939L6.13515 6.45709L2.95 9.77021ZM5.04674 6.73245L5.04669 6.73256L3.59702 9.63488C3.57607 9.67684 3.5649 9.72346 3.5649 9.77017C3.5649 9.93662 3.70033 10.0718 3.86617 10.0718H6.76551C6.8118 10.0718 6.85875 10.0607 6.90105 10.0396L6.92331 10.0844M5.04674 6.73245L7.03535 9.63488C7.10952 9.78375 7.04902 9.96557 6.90093 10.0397L6.92331 10.0844M5.04674 6.73245C5.09794 6.62935 5.20128 6.56549 5.31687 6.56549M5.04674 6.73245L5.31687 6.56549M6.92331 10.0844C7.0962 9.99787 7.16652 9.78597 7.08008 9.61254H3.55229C3.52793 9.66131 3.5149 9.71557 3.5149 9.77017C3.5149 9.96421 3.67269 10.1218 3.86617 10.1218H6.76551C6.81971 10.1218 6.87426 10.1088 6.92331 10.0844ZM5.31687 6.56549C5.3633 6.56549 5.40846 6.57604 5.45091 6.59729L5.47329 6.55258L5.31687 6.56549ZM5.58572 6.73264L7.03533 9.63485L5.58572 6.73264Z" fill="black" stroke="black" stroke-width="0.1"/>
<ellipse cx="15.8589" cy="5.85877" rx="0.858857" ry="0.858858" fill="black"/>
<ellipse cx="17.8592" cy="5.85877" rx="0.858857" ry="0.858858" fill="black"/>
<circle cx="17.8592" cy="7.85894" r="0.858857" fill="black"/>
</svg>
