<svg width="24" height="24" viewBox="0 0 24 24" fill="none" xmlns="http://www.w3.org/2000/svg">
<path d="M23.7592 11.434L13.699 0.792453C13.2709 0.226415 12.6288 0 11.9866 0C11.3445 0 10.7023 0.339623 10.2742 0.792453L0.214047 11.434C0.107023 11.5472 0 11.7736 0 12C0 12.2264 0.107023 12.4528 0.214047 12.566C0.32107 12.6793 0.535117 12.7925 0.749164 12.7925C0.963211 12.7925 1.17726 12.6793 1.28428 12.566L3.10368 10.6415V22.0755C3.10368 22.6415 3.53177 22.9811 3.95987 22.9811H7.06355V21.283H4.70903V8.9434L11.4515 1.81132C11.5585 1.69811 11.7726 1.58491 11.9866 1.58491C12.0936 1.58491 12.3077 1.69811 12.5217 1.92453C12.5217 1.92453 22.5819 12.566 22.689 12.6793C22.796 12.7925 23.01 12.9057 23.2241 12.9057C23.4381 12.9057 23.6522 12.7925 23.7592 12.6793C24.0803 12.3396 24.0803 11.7736 23.7592 11.434Z" fill="black"/>
<path d="M19.9064 11.7736H10.3813C9.52509 11.7736 8.77592 12.566 8.77592 13.4717V22.3019C8.77592 23.2075 9.52509 24 10.3813 24H19.9064C20.7625 24 21.5117 23.2075 21.5117 22.3019V13.4717C21.5117 12.566 20.7625 11.7736 19.9064 11.7736ZM20.1204 21.9623C20.1204 22.3019 19.9064 22.5283 19.5853 22.5283H10.5953C10.2743 22.5283 10.0602 22.3019 10.0602 21.9623V13.6981C10.0602 13.3585 10.2743 13.1321 10.5953 13.1321H19.5853C19.9064 13.1321 20.1204 13.3585 20.1204 13.6981V21.9623ZM15.4114 16.8679C15.4114 16.8679 15.3044 16.8679 15.4114 16.8679L15.9465 13.9245L12.7358 18.6792C12.7358 18.7924 12.7358 18.7924 12.8428 18.7924H15.1973C15.1973 18.7924 15.3044 18.7924 15.3044 18.9057L14.7692 21.7358L17.8729 16.9811C17.8729 16.8679 17.8729 16.8679 17.7659 16.8679H15.4114Z" fill="black"/>
</svg>
