<svg width="24" height="24" viewBox="0 0 24 24" fill="none" xmlns="http://www.w3.org/2000/svg">
<path d="M8.25 24C7.836 24 7.5 23.664 7.5 23.25V8.625L2 4.5H0.75C0.336 4.5 0 4.164 0 3.75C0 3.336 0.336 3 0.75 3H1.5V2.25C1.5 1.836 1.836 1.5 2.25 1.5C2.664 1.5 3 1.836 3 2.25V3H4.5V2.25C4.5 1.836 4.836 1.5 5.25 1.5C5.664 1.5 6 1.836 6 2.25V3H10.5V2.25C10.5 1.836 10.836 1.5 11.25 1.5C11.664 1.5 12 1.836 12 2.25V3H13.5V2.25C13.5 1.836 13.836 1.5 14.25 1.5C14.664 1.5 15 1.836 15 2.25V3H15.75C16.164 3 16.5 3.336 16.5 3.75C16.5 4.164 16.164 4.5 15.75 4.5H14.5L9 8.625V23.25C9 23.664 8.664 24 8.25 24ZM8.25 7.312L12 4.5H4.5L8.25 7.312Z" fill="black"/>
<path d="M17.25 24C16.836 24 16.5 23.664 16.5 23.25V16.061L12.439 12H11.25C10.836 12 10.5 11.664 10.5 11.25C10.5 10.836 10.836 10.5 11.25 10.5H12V9.75C12 9.336 12.336 9 12.75 9C13.164 9 13.5 9.336 13.5 9.75V10.5H21V9.75C21 9.336 21.336 9 21.75 9C22.164 9 22.5 9.336 22.5 9.75V10.5H23.25C23.664 10.5 24 10.836 24 11.25C24 11.664 23.664 12 23.25 12H22.061L18 16.061V23.25C18 23.664 17.664 24 17.25 24ZM17.25 14.689L19.939 12H14.56L17.25 14.689Z" fill="black"/>
</svg>
