<svg width="24" height="25" viewBox="0 0 24 25" fill="none" xmlns="http://www.w3.org/2000/svg">
<path d="M2.4 21.7483C1.07627 21.7483 0 20.6781 0 19.3619V6.63465C0 6.10011 0.174933 5.5942 0.507733 5.17102C0.5152 5.15935 0.523733 5.14769 0.5312 5.13814C0.5376 5.12965 0.5472 5.11905 0.555733 5.1095C1.00907 4.56435 1.68213 4.24829 2.4 4.24829H21.6C22.3157 4.24829 22.9877 4.56329 23.4464 5.11162C23.4571 5.12223 23.4667 5.1339 23.4741 5.1445C23.4805 5.15193 23.4869 5.16253 23.4933 5.17208C23.8251 5.59526 24 6.10011 24 6.63465V19.3619C24 20.6781 22.9237 21.7483 21.6 21.7483H2.4ZM1.6 19.3619C1.6 19.801 1.9584 20.1574 2.4 20.1574H21.6C22.0416 20.1574 22.4 19.801 22.4 19.3619V6.96556L14.6389 12.9007C13.888 13.4756 12.9504 13.7927 12 13.7927C11.0496 13.7927 10.112 13.4756 9.36107 12.9007L1.6 6.96556V19.3619ZM10.336 11.6397C10.8096 12.0024 11.4005 12.2018 12 12.2018C12.5995 12.2018 13.1893 12.0024 13.6629 11.6397L21.248 5.83814H2.75093L10.336 11.6397Z" fill="black"/>
</svg>
