<svg width="24" height="24" fill="none" xmlns="http://www.w3.org/2000/svg"><path d="M12 7.501a3.754 3.754 0 01-3.75-3.75A3.754 3.754 0 0112 .001a3.754 3.754 0 013.75 3.75A3.754 3.754 0 0112 7.501zm0-6a2.252 2.252 0 00-2.25 2.25A2.252 2.252 0 0012 6.001a2.252 2.252 0 002.25-2.25A2.252 2.252 0 0012 1.501zm-1.5 19.5a.751.751 0 01-.744-.657l-.668-5.343H8.25a.75.75 0 01-.75-.75v-2.25c0-2.481 2.019-4.5 4.5-4.5s4.5 2.019 4.5 4.5v2.25a.75.75 0 01-.75.75h-.838l-.668 5.343a.751.751 0 01-.744.657h-3zm2.338-1.5l.668-5.343a.752.752 0 01.744-.657H15v-1.5c0-1.654-1.346-3-3-3s-3 1.346-3 3v1.5h.75c.377 0 .697.282.744.657l.668 5.343h1.676zM4.5 9.001c-1.654 0-3-1.346-3-3s1.346-3 3-3 3 1.346 3 3-1.346 3-3 3zm0-4.5c-.827 0-1.5.673-1.5 1.5s.673 1.5 1.5 1.5S6 6.828 6 6.001s-.673-1.5-1.5-1.5z" fill="#1B314B"/><path d="M3 19.501a.748.748 0 01-.74-.626l-.645-3.874H.75a.75.75 0 01-.75-.75v-.75c0-.488.08-.97.235-1.432a4.474 4.474 0 012.266-2.597A4.456 4.456 0 014.499 9c.488 0 .972.08 1.44.237a.75.75 0 01-.477 1.422 2.971 2.971 0 00-2.294.156 2.984 2.984 0 00-1.511 1.732 2.977 2.977 0 00-.157.954h.75c.368 0 .679.263.74.626l.645 3.874h1.729l.271-1.629a.747.747 0 01.863-.617.748.748 0 01.617.863l-.375 2.256a.749.749 0 01-.74.627H3zm16.5-10.5c-1.654 0-3-1.346-3-3s1.346-3 3-3 3 1.346 3 3-1.346 3-3 3zm0-4.5c-.827 0-1.5.673-1.5 1.5s.673 1.5 1.5 1.5 1.5-.673 1.5-1.5-.673-1.5-1.5-1.5z" fill="#1B314B"/><path d="M18 19.501a.749.749 0 01-.74-.627l-.376-2.256a.746.746 0 01.739-.873c.368 0 .679.264.74.627l.272 1.629h1.729l.646-3.873a.747.747 0 01.74-.627h.75c0-.325-.053-.646-.157-.954a2.984 2.984 0 00-1.511-1.732 2.971 2.971 0 00-2.293-.156.753.753 0 01-.95-.472.751.751 0 01.471-.95A4.523 4.523 0 0119.5 9c.696 0 1.368.159 1.998.472a4.477 4.477 0 012.266 2.597c.156.462.236.943.236 1.431v.751a.75.75 0 01-.75.75h-.865l-.646 3.873a.747.747 0 01-.739.627h-3zm-6 4.5c-.966 0-4.352-.039-7.381-.539C1.511 22.949 0 22.144 0 21.001a.75.75 0 011.497-.062c.407.479 3.875 1.562 10.503 1.562s10.096-1.083 10.502-1.562a.751.751 0 011.498.062c0 1.143-1.511 1.948-4.619 2.461-3.029.5-6.415.539-7.381.539z" fill="#1B314B"/></svg>