<svg width="24" height="24" viewBox="0 0 24 24" fill="none" xmlns="http://www.w3.org/2000/svg">
<path fill-rule="evenodd" clip-rule="evenodd" d="M8 1.00113C8.00001 0.448211 8.44773 -1.0741e-05 9.00002 1.93047e-10L15 0.000117318C15.5523 0.000128119 16 0.448344 16 1.00125L16.0001 7.00816C16.0001 7.56108 15.5524 8.00932 15.0001 8.00933C14.4479 8.00934 14.0001 7.56112 14.0001 7.0082L14 2.0024L8.99998 2.0023C8.4477 2.00229 7.99999 1.55405 8 1.00113Z" fill="black"/>
<path fill-rule="evenodd" clip-rule="evenodd" d="M15.6571 0.34321C16.0476 0.734184 16.0476 1.36808 15.6571 1.75905L9.70711 7.7159C9.31658 8.10688 8.68342 8.10688 8.29289 7.7159C7.90237 7.32493 7.90237 6.69104 8.29289 6.30006L14.2429 0.34321C14.6334 -0.0477642 15.2666 -0.0477642 15.6571 0.34321Z" fill="black"/>
</svg>
