<svg width="24" height="24" viewBox="0 0 24 24" fill="none" xmlns="http://www.w3.org/2000/svg">
<path d="M10.475 23.649C9.648 23.649 8.974 22.976 8.974 22.149V12.87C4.041 11.591 0.37 7.208 0.004 2.108C0.002 2.071 0 2.038 0 2.005C0 1.605 0.156 1.228 0.439 0.944C0.722 0.661 1.099 0.504 1.5 0.504H22.452C22.485 0.504 22.519 0.505 22.552 0.507C22.95 0.533 23.315 0.714 23.579 1.015C23.843 1.316 23.975 1.702 23.949 2.103C23.949 2.106 23.949 2.11 23.948 2.113C23.579 7.212 19.907 11.594 14.974 12.87V19.649C14.975 20.096 14.777 20.516 14.433 20.802L11.434 23.301C11.165 23.525 10.825 23.649 10.475 23.649ZM1.501 2.004C1.848 6.683 5.288 10.602 9.874 11.539C10.222 11.61 10.474 11.919 10.474 12.274V22.149L13.474 19.649V12.274C13.474 11.919 13.726 11.61 14.074 11.539C18.67 10.602 22.115 6.68 22.452 2.002L1.501 2.004Z" fill="black"/>
</svg>
