<svg width="24" height="24" viewBox="0 0 24 24" fill="none" xmlns="http://www.w3.org/2000/svg">
<g clip-path="url(#clip0)">
<path d="M8.9919 22.4446C8.9919 23.3021 9.66725 24 10.4959 24C10.8466 24 11.1873 23.8714 11.4568 23.6391L14.4618 21.0478C14.8065 20.7513 15.0049 20.3158 15.0039 19.8522V12.8228C19.9467 11.4997 23.626 6.9558 23.9958 1.66844C23.9968 1.66533 23.9968 1.66118 23.9968 1.65807C24.0228 1.24226 23.8906 0.841996 23.626 0.529877C23.3615 0.217758 22.9958 0.0300713 22.597 0.00311084C22.5639 0.00103696 22.5299 0 22.4968 0H1.50299C1.10119 0 0.72344 0.1628 0.439876 0.456254C0.156311 0.750745 0 1.14167 0 1.55645C0 1.59067 0.00200399 1.62489 0.00400798 1.66325C0.370738 6.95165 4.04906 11.4966 8.9919 12.8228V22.4446Z" fill="black"/>
</g>
<defs>
<clipPath id="clip0">
<path d="M0 0H24V24H0V0Z" fill="white"/>
</clipPath>
</defs>
</svg>
