<svg width="24" height="24" viewBox="0 0 24 24" fill="none" xmlns="http://www.w3.org/2000/svg">
<path d="M8.974 22.149C8.974 22.976 9.648 23.649 10.475 23.649C10.825 23.649 11.165 23.525 11.434 23.301L14.433 20.802C14.777 20.516 14.975 20.096 14.974 19.649V12.87C19.907 11.594 23.579 7.212 23.948 2.113C23.949 2.11 23.949 2.106 23.949 2.103C23.975 1.702 23.843 1.316 23.579 1.015C23.315 0.714 22.95 0.533 22.552 0.507C22.519 0.505 22.485 0.504 22.452 0.504H1.5C1.099 0.504 0.722 0.661 0.439 0.944C0.156 1.228 0 1.605 0 2.005C0 2.038 0.002 2.071 0.004 2.108C0.37 7.208 4.041 11.591 8.974 12.87V22.149Z" fill="black"/>
</svg>
