<svg width="24" height="24" viewBox="0 0 24 24" fill="none" xmlns="http://www.w3.org/2000/svg">
<g clip-path="url(#clip0)">
<path d="M10.4959 24C9.66725 24 8.9919 23.3021 8.9919 22.4446V12.8228C4.04906 11.4966 0.370738 6.95165 0.00400798 1.66325C0.00200399 1.62489 0 1.59067 0 1.55645C0 1.14167 0.156311 0.750745 0.439876 0.456254C0.72344 0.1628 1.10119 0 1.50299 0H22.4968C22.5299 0 22.5639 0.00103696 22.597 0.00311084C22.9958 0.0300713 23.3615 0.217758 23.626 0.529877C23.8906 0.841996 24.0228 1.24226 23.9968 1.65807C23.9968 1.66118 23.9968 1.66533 23.9958 1.66844C23.626 6.9558 19.9467 11.4997 15.0039 12.8228V19.8522C15.0049 20.3158 14.8065 20.7513 14.4618 21.0478L11.4568 23.6391C11.1873 23.8714 10.8466 24 10.4959 24ZM1.50399 1.55541C1.85169 6.40726 5.29855 10.471 9.8937 11.4426C10.2424 11.5163 10.4949 11.8367 10.4949 12.2048V22.4446L13.5009 19.8522V12.2048C13.5009 11.8367 13.7534 11.5163 14.1021 11.4426C18.7072 10.471 22.1591 6.40415 22.4968 1.55334L1.50399 1.55541Z" fill="black"/>
</g>
<defs>
<clipPath id="clip0">
<path d="M0 0H24V24H0V0Z" fill="white"/>
</clipPath>
</defs>
</svg>
