<svg width="24" height="24" viewBox="0 0 24 24" fill="none" xmlns="http://www.w3.org/2000/svg">
<path fill-rule="evenodd" clip-rule="evenodd" d="M5.875 5C6.35825 5 6.75 5.32464 6.75 5.7251V18.2749C6.75 18.6754 6.35825 19 5.875 19C5.39175 19 5 18.6754 5 18.2749V5.7251C5 5.32464 5.39175 5 5.875 5Z" fill="black"/>
<path fill-rule="evenodd" clip-rule="evenodd" d="M7.27152 6.13471C8.0987 5.88914 8.97067 5.81658 9.82924 5.92189C10.6879 6.02721 11.5134 6.30802 12.2506 6.74556M7.27152 6.13471C7.27159 6.13469 7.27144 6.13473 7.27152 6.13471V6.13471ZM7.27152 6.13471C7.27159 6.13469 7.27144 6.13473 7.27152 6.13471V6.13471ZM7.27152 6.13471L5.51234 6.65602C5.12954 6.76946 4.91456 7.16073 5.03217 7.52995C5.14977 7.89918 5.55543 8.10654 5.93823 7.9931L7.69741 7.47179C8.32755 7.28467 8.99224 7.22925 9.6463 7.30947C10.3004 7.3897 10.9292 7.60359 11.4907 7.93688C12.2104 8.36394 13.0144 8.64186 13.8515 8.7529C14.6885 8.86393 15.5404 8.80567 16.3529 8.58184L17.5498 8.25191V14.3653L15.9551 14.8051C15.9552 14.8051 15.955 14.8051 15.9551 14.8051C15.336 14.9752 14.6868 15.0191 14.0492 14.9341C13.4115 14.849 12.7992 14.6368 12.2511 14.311C11.5139 13.8734 10.6879 13.5924 9.82924 13.487C8.9706 13.3817 8.09855 13.4543 7.27132 13.6999C7.27138 13.6999 7.27125 13.6999 7.27132 13.6999L5.51214 14.2218C5.12937 14.3353 4.91451 14.7266 5.03223 15.0958C5.14995 15.465 5.55566 15.6723 5.93843 15.5587L7.69761 15.0369C8.32775 14.8498 8.99224 14.7944 9.6463 14.8746C10.3004 14.9548 10.9292 15.1687 11.4907 15.502C12.21 15.9296 13.0136 16.208 13.8505 16.3196C14.6876 16.4313 15.5397 16.3736 16.3524 16.1503L18.0189 15.6908C18.3016 15.6129 18.5503 15.4483 18.7273 15.2219C18.9043 14.9955 19 14.7197 19 14.4362C19 14.4362 19 14.4361 19 14.4362L19 8.12723C18.9998 7.92546 18.9511 7.72582 18.8577 7.54526C18.7644 7.3647 18.6289 7.20748 18.4619 7.08595C18.2949 6.96442 18.101 6.88189 17.8953 6.84484C17.6897 6.80779 17.478 6.81723 17.2767 6.87243L15.9546 7.23686C15.3357 7.40738 14.6867 7.45176 14.049 7.36718C13.4114 7.2826 12.7989 7.07088 12.2506 6.74556" fill="black"/>
</svg>
