<svg width="24" height="24" viewBox="0 0 24 24" fill="none" xmlns="http://www.w3.org/2000/svg">
<path fill-rule="evenodd" clip-rule="evenodd" d="M1.5 0C2.32843 0 3 0.556523 3 1.24303V22.757C3 23.4435 2.32843 24 1.5 24C0.671573 24 0 23.4435 0 22.757V1.24303C0 0.556523 0.671573 0 1.5 0Z" fill="black"/>
<path fill-rule="evenodd" clip-rule="evenodd" d="M3.89403 1.94522C5.31205 1.52424 6.80687 1.39985 8.27869 1.58038C9.75072 1.76093 11.1659 2.24231 12.4297 2.99239M3.89403 1.94522C3.89416 1.94518 3.8939 1.94526 3.89403 1.94522V1.94522ZM3.89403 1.94522C3.89416 1.94518 3.8939 1.94526 3.89403 1.94522V1.94522ZM3.89403 1.94522L0.878292 2.83889C0.222068 3.03335 -0.146468 3.70411 0.0551428 4.33706C0.256754 4.97002 0.952166 5.32549 1.60839 5.13103L4.62413 4.23736C5.70437 3.91658 6.84384 3.82157 7.96509 3.9591C9.08634 4.09663 10.1643 4.4633 11.1269 5.03465C12.3606 5.76676 13.7389 6.2432 15.1739 6.43354C16.6089 6.62388 18.0693 6.52401 19.4621 6.14029L21.514 5.5747V16.0548L18.7802 16.8087C18.7803 16.8087 18.7801 16.8088 18.7802 16.8087C17.7189 17.1003 16.606 17.1756 15.5129 17.0298C14.4197 16.884 13.37 16.5202 12.4305 15.9617C11.1667 15.2116 9.75076 14.7298 8.27869 14.5492C6.80675 14.3687 5.31181 14.4931 3.89368 14.9141C3.8938 14.9141 3.89357 14.9142 3.89368 14.9141L0.877948 15.8087C0.221783 16.0034 -0.146552 16.6742 0.0552486 17.3071C0.257049 17.94 0.952568 18.2953 1.60873 18.1007L4.62447 17.2061C5.70472 16.8853 6.84384 16.7904 7.96509 16.9279C9.08634 17.0655 10.1643 17.4321 11.1269 18.0035C12.3599 18.7364 13.7376 19.2137 15.1724 19.4051C16.6074 19.5965 18.068 19.4977 19.4612 19.1149L22.3182 18.327C22.8028 18.1935 23.2291 17.9113 23.5326 17.5232C23.836 17.1352 24.0001 16.6623 24 16.1763C24 16.1764 24 16.1762 24 16.1763L24 5.36097C23.9997 5.01508 23.9162 4.67284 23.7561 4.36331C23.5961 4.05378 23.3638 3.78426 23.0775 3.57592C22.7912 3.36758 22.4588 3.2261 22.1063 3.16258C21.7538 3.09907 21.3908 3.11526 21.0458 3.20987L18.7793 3.83462C17.7183 4.12694 16.6058 4.20302 15.5126 4.05802C14.4195 3.91302 13.3695 3.55008 12.4297 2.99239" fill="black"/>
</svg>
