<svg width="24" height="24" viewBox="0 0 24 24" fill="none" xmlns="http://www.w3.org/2000/svg">
<path d="M4.18677 11.4704C5.58522 11.0257 7.05964 10.8942 8.51144 11.0849C9.96323 11.2756 11.3585 11.784 12.6041 12.5757C13.5885 13.2024 14.6886 13.6107 15.8332 13.7742C16.9777 13.9377 18.1427 13.8533 19.2541 13.5263C19.7802 13.3715 20.3177 13.6889 20.4629 14.2155C20.6074 14.7392 20.3157 15.2948 19.7931 15.4486C18.4192 15.8528 16.9788 15.9572 15.5635 15.755C14.1484 15.5529 12.7899 15.0487 11.5745 14.275C10.5659 13.634 9.43692 13.2228 8.26314 13.0686C7.08919 12.9145 5.89685 13.0207 4.76558 13.3805C4.24291 13.5467 3.69872 13.2412 3.54265 12.7175C3.38749 12.1969 3.66781 11.6354 4.18677 11.4704Z" fill="black"/>
<path fill-rule="evenodd" clip-rule="evenodd" d="M20.9723 3.20631L18.7059 3.83103C17.6319 4.12691 16.5059 4.20391 15.3995 4.05715C14.2931 3.91039 13.2302 3.54303 12.2786 2.97839C11.0269 2.23544 9.62495 1.75852 8.16652 1.57963C6.70829 1.40078 5.22726 1.52403 3.82244 1.9411L2.42841 2.3542C2.39816 2.36316 2.36545 2.35733 2.34017 2.33845C2.31489 2.31957 2.3 2.28987 2.3 2.25832V1.14303C2.3 0.512278 1.78566 0 1.15 0C0.514344 0 0 0.512278 0 1.14303V22.657C0 23.2877 0.514345 23.8 1.15 23.8C1.78566 23.8 2.3 23.2877 2.3 22.657V17.7363C2.3 17.692 2.32911 17.653 2.37156 17.6404L4.496 17.0102C5.58945 16.6855 6.74241 16.5895 7.87726 16.7287C9.01212 16.8679 10.1034 17.239 11.078 17.8175C11.4636 18.0467 11.8636 18.2507 12.2751 18.4285C13.1669 18.8138 14.113 19.0762 15.0856 19.206C16.5073 19.3956 17.9545 19.2977 19.3347 18.9185L22.1916 18.1306C22.656 18.0027 23.0638 17.7325 23.3538 17.3616C23.6436 16.9909 23.8001 16.5397 23.8 16.0763L23.8 5.26107C23.7997 4.9312 23.7201 4.60467 23.5673 4.30924C23.4145 4.01375 23.1926 3.75611 22.9187 3.55677C22.6447 3.35742 22.3264 3.22187 21.9885 3.161C21.6507 3.10013 21.3028 3.11565 20.9723 3.20631ZM2.37159 4.67093C2.32913 4.68352 2.3 4.72253 2.3 4.76681V15.2276C2.3 15.2591 2.3149 15.2888 2.34018 15.3077C2.36547 15.3266 2.39819 15.3324 2.42844 15.3234L3.82212 14.91C5.22704 14.4929 6.70817 14.3696 8.16652 14.5485C9.62495 14.7273 11.0276 15.2047 12.2794 15.9477C13.2306 16.5132 14.2933 16.8813 15.3997 17.0289C16.506 17.1765 17.6324 17.1003 18.7067 16.8052L21.4406 16.0512C21.4839 16.0393 21.514 15.9998 21.514 15.9548V5.4747C21.514 5.44349 21.4994 5.41406 21.4746 5.39515C21.4497 5.37624 21.4175 5.37 21.3874 5.3783L19.3355 5.94389C17.9557 6.32404 16.5088 6.42299 15.0871 6.23441C13.6653 6.04582 12.2999 5.57381 11.0779 4.84866C10.1033 4.27018 9.01212 3.89904 7.87726 3.75984C6.74242 3.62065 5.58914 3.71679 4.49571 4.04148L2.37159 4.67093Z" fill="black"/>
</svg>
