<svg width="24" height="24" viewBox="0 0 24 24" fill="none" xmlns="http://www.w3.org/2000/svg">
<path d="M3.75 21C2.509 21 1.5 19.991 1.5 18.75V5.25C1.5 4.009 2.509 3 3.75 3H7.5C8.204 3 8.877 3.336 9.3 3.9L10.875 6H20.25C21.491 6 22.5 7.009 22.5 8.25V18.75C22.5 19.991 21.491 21 20.25 21H3.75ZM3.75 4.5C3.336 4.5 3 4.836 3 5.25V18.75C3 19.164 3.336 19.5 3.75 19.5H20.25C20.664 19.5 21 19.164 21 18.75V8.25C21 7.836 20.664 7.5 20.25 7.5H10.5C10.265 7.5 10.041 7.388 9.9 7.2L8.1 4.8C7.959 4.612 7.735 4.5 7.5 4.5H3.75Z" fill="black"/>
</svg>
