<svg width="24" height="25" fill="none" xmlns="http://www.w3.org/2000/svg"><path d="M11.264 24.028c-.2 0-.39-.078-.53-.22a.746.746 0 01-.206-.678l.75-3.755c.03-.146.1-.28.206-.384l7.639-7.639a2.847 2.847 0 012.028-.84c.764 0 1.482.296 2.022.833 1.092 1.12 1.1 2.893.037 4.05l-.022.022-7.638 7.638a.744.744 0 01-.385.206l-3.753.75a.685.685 0 01-.148.017zm.957-1.708l2.427-.486 7.471-7.471c.5-.55.505-1.428 0-1.948a1.341 1.341 0 00-.967-.402l-.002-.375v.376c-.364 0-.708.142-.965.4l-7.479 7.479-.485 2.427zm-9.968-1.296A2.255 2.255 0 010 18.771V2.253A2.255 2.255 0 012.253 0h10.64a2.24 2.24 0 011.593.659l2.875 2.875c.425.426.66.991.66 1.592v3.133a.751.751 0 01-1.502 0V5.127c0-.197-.08-.39-.22-.53L13.425 1.72a.749.749 0 00-.53-.22H2.253a.751.751 0 00-.751.752v16.519c0 .414.336.75.75.75H7.51a.751.751 0 010 1.502H2.253z" fill="#1B314B"/><rect x="8.368" y="6.803" width="6.253" height="2.084" rx="1" fill="#1B314B"/><path fill-rule="evenodd" clip-rule="evenodd" d="M4.46 12.274v1.043h8.858v-1.043H4.46zm-.782-1.302a.521.521 0 00-.52.52v2.606a.52.52 0 00.52.521H14.1a.521.521 0 00.52-.52v-2.606a.521.521 0 00-.52-.521H3.678z" fill="#1B314B"/><path d="M7.413 6.522A.75.75 0 006.351 5.46L4.53 7.28l-.566-.679a.75.75 0 00-1.154.962l1.083 1.298a.751.751 0 001.128.052l2.392-2.392z" fill="#1B314B"/></svg>