<svg width="24" height="25" viewBox="0 0 24 25" fill="none" xmlns="http://www.w3.org/2000/svg">
<path d="M11.2638 24.0275C11.0635 24.0275 10.8743 23.9495 10.7332 23.8073C10.555 23.6301 10.4779 23.3758 10.5279 23.1295L11.2788 19.3752C11.3078 19.229 11.3789 19.0959 11.484 18.9908L19.1228 11.352C19.6634 10.8104 20.3842 10.5121 21.1511 10.5121C21.915 10.5121 22.6328 10.8084 23.1734 11.345C24.2647 12.4653 24.2737 14.2383 23.2095 15.3946C23.2065 15.3987 23.1914 15.4137 23.1884 15.4167L15.5497 23.0554C15.4456 23.1605 15.3114 23.2316 15.1652 23.2607L11.4119 24.0115C11.3619 24.0225 11.3128 24.0275 11.2638 24.0275ZM12.2209 22.3196L14.6476 21.834L22.1192 14.3625C22.6188 13.8138 22.6238 12.9348 22.1182 12.4152C22.1152 12.4122 22.1002 12.3972 22.0972 12.3932C21.8569 12.1539 21.5155 12.0138 21.1511 12.0138L21.1501 11.6383V12.0138C20.7857 12.0138 20.4423 12.1559 20.185 12.4142L12.7064 19.8928L12.2209 22.3196Z" fill="black"/>
<path d="M2.25258 21.0241C1.01016 21.0241 0 20.0139 0 18.7715V2.25258C0 1.01016 1.01116 0 2.25258 0H12.8938C13.4955 0 14.0601 0.234269 14.4856 0.658755L17.3609 3.53405C17.7864 3.95954 18.0207 4.52519 18.0207 5.12588V8.25947C18.0207 8.67394 17.6843 9.01033 17.2698 9.01033C16.8553 9.01033 16.5189 8.67394 16.5189 8.25947V5.12688C16.5189 4.92965 16.4388 4.73643 16.2997 4.59627L13.4244 1.72097C13.2822 1.57981 13.094 1.50172 12.8938 1.50172H2.25258C1.83811 1.50172 1.50172 1.83811 1.50172 2.25258V18.7715C1.50172 19.186 1.83811 19.5224 2.25258 19.5224H7.5086C7.92308 19.5224 8.25946 19.8588 8.25946 20.2732C8.25946 20.6877 7.92308 21.0241 7.5086 21.0241H2.25258Z" fill="black"/>
<mask id="path-4-inside-1" fill="white">
<rect x="8.36797" y="6.80319" width="6.25282" height="2.08427" rx="1"/>
</mask>
<rect x="8.36797" y="6.80319" width="6.25282" height="2.08427" rx="1" fill="#29D305" stroke="#29D305" stroke-width="2.08427" mask="url(#path-4-inside-1)"/>
<path fill-rule="evenodd" clip-rule="evenodd" d="M4.45996 12.2743V13.3165H13.3181V12.2743H4.45996ZM3.67836 10.9716C3.39058 10.9716 3.15729 11.2049 3.15729 11.4927V14.0981C3.15729 14.3858 3.39058 14.6191 3.67836 14.6191H14.0997C14.3875 14.6191 14.6208 14.3858 14.6208 14.0981V11.4927C14.6208 11.2049 14.3875 10.9716 14.0997 10.9716H3.67836Z" fill="#29D305"/>
<path d="M7.41299 6.52173C7.70622 6.2285 7.70622 5.75308 7.41299 5.45985C7.11976 5.16662 6.64435 5.16662 6.35112 5.45985L4.52982 7.28115L3.96407 6.60225C3.6986 6.28368 3.22513 6.24064 2.90656 6.50611C2.58799 6.77159 2.54494 7.24506 2.81042 7.56363L3.8928 8.86248C3.90997 8.88391 3.92849 8.90462 3.94836 8.92448C4.2226 9.19872 4.65618 9.21648 4.95106 8.97778C4.95409 8.97533 4.9571 8.97286 4.9601 8.97036C4.9814 8.95261 5.00148 8.93392 5.02031 8.91441L7.41299 6.52173Z" fill="black"/>
</svg>
