<svg width="23" height="24" viewBox="0 0 23 24" fill="none" xmlns="http://www.w3.org/2000/svg">
<path fill-rule="evenodd" clip-rule="evenodd" d="M21.5624 4.28429V12.2182C21.5624 17.9117 17.0573 22.5273 11.4999 22.5273C5.95962 22.5273 1.43749 17.8212 1.43749 12.1101C1.43749 6.2785 6.05497 1.47273 11.7129 1.47273H18.8181C19.4444 1.47273 19.8488 1.47339 20.1589 1.49311C20.4577 1.51211 20.5727 1.54473 20.6272 1.56558C21.0179 1.71486 21.326 2.03056 21.4718 2.43079C21.4921 2.48671 21.5239 2.60451 21.5425 2.91061C21.5617 3.22835 21.5624 3.64259 21.5624 4.28429ZM11.4999 24C5.1487 24 0 18.617 0 12.1101C0 5.48268 5.24405 -4.76219e-07 11.7129 -4.76219e-07H18.8181C20.0351 -4.76219e-07 20.6436 1.43112e-06 21.1296 0.185711C21.9109 0.484269 22.5272 1.11567 22.8186 1.91612C22.9999 2.41404 22.9999 3.03745 22.9999 4.28429V12.2182C22.9999 18.7251 17.8512 24 11.4999 24Z" fill="white"/>
<path fill-rule="evenodd" clip-rule="evenodd" d="M6.60001 10.35C6.60001 9.93576 6.93579 9.59998 7.35001 9.59998H17.1C17.5142 9.59998 17.85 9.93576 17.85 10.35C17.85 10.7642 17.5142 11.1 17.1 11.1H7.35001C6.93579 11.1 6.60001 10.7642 6.60001 10.35Z" fill="#29D305"/>
<path fill-rule="evenodd" clip-rule="evenodd" d="M6.60001 13.35C6.60001 12.9358 6.93579 12.6 7.35001 12.6H14.1C14.5142 12.6 14.85 12.9358 14.85 13.35C14.85 13.7642 14.5142 14.1 14.1 14.1H7.35001C6.93579 14.1 6.60001 13.7642 6.60001 13.35Z" fill="#29D305"/>
</svg>
