<svg width="24" height="25" fill="none" xmlns="http://www.w3.org/2000/svg"><path d="M2.25 20.77A2.253 2.253 0 010 18.519v-2.08a12.022 12.022 0 013.479-8.574 11.998 11.998 0 018.515-3.612C18.669 4.302 24.05 9.77 24 16.44v2.077a2.253 2.253 0 01-2.25 2.253H2.25zm19.5-1.501a.75.75 0 00.75-.751v-2.082c.043-5.846-4.668-10.637-10.503-10.683C6.167 5.8 1.456 10.59 1.5 16.432v2.086c0 .415.336.75.75.75h6a3.773 3.773 0 013.196-3.71l2.093-6.285a.747.747 0 011.382-.098.75.75 0 01.04.573l-1.965 5.906a3.779 3.779 0 012.755 3.615h5.999zm-7.5 0a2.256 2.256 0 00-2.213-2.252L12 17.02c-.011 0-.024 0-.037-.002A2.255 2.255 0 009.75 19.27h4.5z" fill="#1B314B"/><path d="M4.875 17.016a1.126 1.126 0 10-.001-2.25 1.126 1.126 0 00.001 2.25zm1.5-3.751a1.127 1.127 0 010-2.253 1.127 1.127 0 010 2.253zm12.75 3.751a1.126 1.126 0 10-.001-2.25 1.126 1.126 0 00.001 2.25zm-1.5-3.751c-.62 0-1.125-.506-1.125-1.126a1.12 1.12 0 011.037-1.12.662.662 0 01.17 0 1.126 1.126 0 01-.082 2.247zm-8.25-3.003a1.126 1.126 0 10-.001-2.252 1.126 1.126 0 00.001 2.252z" fill="#FFB65C"/></svg>