<svg width="24" height="25" viewBox="0 0 24 25" fill="none" xmlns="http://www.w3.org/2000/svg">
<path d="M0.773202 24.0045C0.345847 24.0045 -0.000991821 23.6577 -0.000991821 23.2303C-0.000991821 22.803 0.345847 22.4561 0.773202 22.4561H1.5474V19.1013C1.5474 18.3901 2.12649 17.811 2.83772 17.811H5.67746C6.38869 17.811 6.96778 18.3901 6.96778 19.1013V22.4561H9.28933C9.28933 22.4561 9.28933 13.877 9.28933 13.1658C9.28933 12.4546 9.86843 11.8755 10.5797 11.8755C11.2909 11.8755 13.4194 11.8755 13.4194 11.8755C14.1306 11.8755 14.7097 12.4546 14.7097 13.1658V22.4561H17.0323V7.23032C17.0323 6.52013 17.6104 5.94103 18.3206 5.94H21.1613C21.8726 5.94 22.4517 6.5191 22.4517 7.23032V22.4561H23.2248C23.6522 22.4561 23.999 22.803 23.999 23.2303C23.999 23.6577 23.6522 24.0045 23.2248 24.0045H0.773202ZM20.9033 22.4561V7.48839H18.5807V22.4561H20.9033ZM13.1613 22.4561V13.4239H10.8377V22.4561H13.1613ZM5.4194 22.4561V19.3594H3.09578V22.4561H5.4194Z" fill="black"/>
<path d="M4.99996 7.22215C3.77478 7.22215 2.77774 6.22512 2.77774 4.99993C2.77774 3.77475 3.77478 2.77771 4.99996 2.77771C6.22515 2.77771 7.22218 3.77475 7.22218 4.99993C7.22218 6.22512 6.22515 7.22215 4.99996 7.22215ZM4.99996 3.88882C4.38737 3.88882 3.88885 4.38734 3.88885 4.99993C3.88885 5.61252 4.38737 6.11104 4.99996 6.11104C5.61256 6.11104 6.11107 5.61252 6.11107 4.99993C6.11107 4.38734 5.61256 3.88882 4.99996 3.88882Z" fill="#29D305"/>
<path d="M5.00003 2.22222C4.69336 2.22222 4.44447 1.97333 4.44447 1.66667V0.555556C4.44447 0.248889 4.69336 0 5.00003 0C5.30669 0 5.55558 0.248889 5.55558 0.555556V1.66667C5.55558 1.97333 5.30595 2.22222 5.00003 2.22222Z" fill="#29D305"/>
<path d="M8.33333 5.55551C8.02666 5.55551 7.77777 5.30662 7.77777 4.99995C7.77777 4.69329 8.02666 4.4444 8.33333 4.4444H9.44444C9.7511 4.4444 9.99999 4.69329 9.99999 4.99995C9.99999 5.30662 9.7511 5.55551 9.44444 5.55551H8.33333Z" fill="#29D305"/>
<path d="M5.00003 9.99993C4.69336 9.99993 4.44447 9.75104 4.44447 9.44438V8.33327C4.44447 8.0266 4.69336 7.77771 5.00003 7.77771C5.30669 7.77771 5.55558 8.0266 5.55558 8.33327V9.44438C5.55558 9.75104 5.30595 9.99993 5.00003 9.99993Z" fill="#29D305"/>
<path d="M0.555556 5.55551C0.248889 5.55551 0 5.30662 0 4.99995C0 4.69329 0.248889 4.4444 0.555556 4.4444H1.66667C1.97333 4.4444 2.22222 4.69329 2.22222 4.99995C2.22222 5.30662 1.97259 5.55551 1.66667 5.55551H0.555556Z" fill="#29D305"/>
<path d="M2.64296 3.19855C2.49482 3.19855 2.35482 3.14077 2.25037 3.03559L1.46445 2.24966C1.35926 2.14448 1.30148 2.00522 1.30148 1.85707C1.30148 1.70892 1.35926 1.56892 1.46445 1.46448C1.56889 1.35929 1.70889 1.30151 1.85704 1.30151C2.00519 1.30151 2.14519 1.35929 2.24963 1.46448L3.03556 2.2504C3.14074 2.35559 3.19852 2.49485 3.19852 2.643C3.19852 2.79114 3.14074 2.93114 3.03556 3.03559C2.93037 3.14077 2.79111 3.19855 2.64296 3.19855Z" fill="#29D305"/>
<path d="M7.35701 3.19855C7.20886 3.19855 7.06886 3.14077 6.96442 3.03559C6.85923 2.93114 6.80145 2.79114 6.80145 2.643C6.80145 2.49485 6.85923 2.35485 6.96442 2.2504L7.75034 1.46448C7.85553 1.35929 7.99479 1.30151 8.14293 1.30151C8.29108 1.30151 8.43108 1.35929 8.53553 1.46448C8.64071 1.56892 8.69849 1.70892 8.69849 1.85707C8.69849 2.00522 8.64071 2.14522 8.53553 2.24966L7.7496 3.03559C7.64442 3.14077 7.50516 3.19855 7.35701 3.19855Z" fill="#29D305"/>
<path d="M8.14302 8.69843C7.99487 8.69843 7.85487 8.64065 7.75043 8.53547L6.96376 7.74954C6.85857 7.6451 6.8008 7.5051 6.8008 7.35695C6.8008 7.2088 6.85857 7.0688 6.96376 6.96435C7.0682 6.85917 7.2082 6.80139 7.35635 6.80139C7.5045 6.80139 7.6445 6.85917 7.74895 6.96435L8.53487 7.75028C8.64006 7.85473 8.69784 7.99473 8.69784 8.14287C8.69784 8.29102 8.64006 8.43102 8.53487 8.53547C8.43043 8.64065 8.29117 8.69843 8.14302 8.69843Z" fill="#29D305"/>
<path d="M1.85704 8.69843C1.70889 8.69843 1.56889 8.64065 1.46445 8.53547C1.35926 8.43102 1.30148 8.29102 1.30148 8.14287C1.30148 7.99473 1.35926 7.85473 1.46445 7.75028L2.25037 6.96435C2.35482 6.85917 2.49482 6.80139 2.64296 6.80139C2.79111 6.80139 2.93111 6.85917 3.03556 6.96435C3.14074 7.0688 3.19852 7.2088 3.19852 7.35695C3.19852 7.5051 3.14074 7.6451 3.03556 7.74954L2.24963 8.53547C2.14519 8.64065 2.00519 8.69843 1.85704 8.69843Z" fill="#29D305"/>
</svg>
