<svg width="24" height="25" fill="none" xmlns="http://www.w3.org/2000/svg"><path d="M.749 24.525a.75.75 0 010-1.502h.75V19.77c0-.69.561-1.252 1.25-1.252H5.5c.689 0 1.25.562 1.25 1.252v3.253h2.249V10.76c0-.69.561-1.251 1.25-1.251H13c.689 0 1.25.561 1.25 1.251v12.264h2.25v-7.759c0-.688.56-1.25 1.248-1.251H20.5c.689 0 1.25.562 1.25 1.251v7.76h.749a.75.75 0 010 1.5H.749zm19.501-1.502v-7.508H18v7.508h2.25zm-7.5 0V11.01h-2.251v12.014h2.251zm-7.5 0V20.02H2.999v3.003H5.25z" fill="#1B314B"/><path d="M2.249 13.263a2.253 2.253 0 010-4.505c.134 0 .269.012.403.037l3.385-3.386A2.253 2.253 0 018.249 2.75c1.241 0 2.25 1.01 2.25 2.253v.028l3.421.916a2.242 2.242 0 012.868-.69l2.742-2.146A2.254 2.254 0 0121.75.497a2.253 2.253 0 010 4.505 2.24 2.24 0 01-1.484-.56l-2.452 1.92a2.253 2.253 0 01-2.064 3.147 2.254 2.254 0 01-2.246-2.118l-3.53-.945a2.241 2.241 0 01-3.15.298L3.987 9.583a2.253 2.253 0 01-1.738 3.681zm0-3.003a.75.75 0 10.001 1.501.75.75 0 00-.001-1.501zM15.75 6.504a.751.751 0 000 1.502.75.75 0 000-1.502zM8.249 4.253a.75.75 0 10.001 1.501.75.75 0 00-.001-1.501zM21.75 1.999a.751.751 0 000 1.502.751.751 0 000-1.502z" fill="#FFB65C"/></svg>