<svg width="24" height="24" viewBox="0 0 24 24" fill="none" xmlns="http://www.w3.org/2000/svg">
<path d="M0.773217 23.94C0.345862 23.94 -0.000976562 23.5944 -0.000976562 23.1686C-0.000976562 22.7427 0.345862 22.3971 0.773217 22.3971H1.54741V19.0543C1.54741 18.3456 2.12651 17.7686 2.83773 17.7686H5.67748C6.3887 17.7686 6.9678 18.3456 6.9678 19.0543V22.3971H9.28935C9.28935 22.3971 9.28935 13.8487 9.28935 13.14C9.28935 12.4313 9.86844 11.8543 10.5797 11.8543C11.2909 11.8543 13.4194 11.8543 13.4194 11.8543C14.1306 11.8543 14.7097 12.4313 14.7097 13.14V22.3971H17.0323V7.22572C17.0323 6.51806 17.6104 5.94103 18.3206 5.94H21.1613C21.8726 5.94 22.4517 6.51703 22.4517 7.22572V22.3971H23.2248C23.6522 22.3971 23.999 22.7427 23.999 23.1686C23.999 23.5944 23.6522 23.94 23.2248 23.94H0.773217ZM20.9033 22.3971V7.48286H18.5807V22.3971H20.9033ZM13.1613 22.3971V13.3971H10.8377V22.3971H13.1613ZM5.41941 22.3971V19.3114H3.0958V22.3971H5.41941Z" fill="black"/>
<path d="M4.99998 7.22215C3.77479 7.22215 2.77776 6.22512 2.77776 4.99993C2.77776 3.77475 3.77479 2.77771 4.99998 2.77771C6.22516 2.77771 7.2222 3.77475 7.2222 4.99993C7.2222 6.22512 6.22516 7.22215 4.99998 7.22215ZM4.99998 3.88882C4.38739 3.88882 3.88887 4.38734 3.88887 4.99993C3.88887 5.61252 4.38739 6.11104 4.99998 6.11104C5.61257 6.11104 6.11109 5.61252 6.11109 4.99993C6.11109 4.38734 5.61257 3.88882 4.99998 3.88882Z" fill="#29D305"/>
<path d="M5.00004 2.22222C4.69338 2.22222 4.44449 1.97333 4.44449 1.66667V0.555556C4.44449 0.248889 4.69338 0 5.00004 0C5.30671 0 5.5556 0.248889 5.5556 0.555556V1.66667C5.5556 1.97333 5.30597 2.22222 5.00004 2.22222Z" fill="#29D305"/>
<path d="M8.33334 5.55551C8.02668 5.55551 7.77779 5.30662 7.77779 4.99995C7.77779 4.69329 8.02668 4.4444 8.33334 4.4444H9.44445C9.75112 4.4444 10 4.69329 10 4.99995C10 5.30662 9.75112 5.55551 9.44445 5.55551H8.33334Z" fill="#29D305"/>
<path d="M5.00004 9.99993C4.69338 9.99993 4.44449 9.75104 4.44449 9.44438V8.33327C4.44449 8.0266 4.69338 7.77771 5.00004 7.77771C5.30671 7.77771 5.5556 8.0266 5.5556 8.33327V9.44438C5.5556 9.75104 5.30597 9.99993 5.00004 9.99993Z" fill="#29D305"/>
<path d="M0.555571 5.55551C0.248904 5.55551 1.52588e-05 5.30662 1.52588e-05 4.99995C1.52588e-05 4.69329 0.248904 4.4444 0.555571 4.4444H1.66668C1.97335 4.4444 2.22224 4.69329 2.22224 4.99995C2.22224 5.30662 1.97261 5.55551 1.66668 5.55551H0.555571Z" fill="#29D305"/>
<path d="M2.64298 3.19855C2.49483 3.19855 2.35483 3.14077 2.25039 3.03559L1.46446 2.24966C1.35928 2.14448 1.3015 2.00522 1.3015 1.85707C1.3015 1.70892 1.35928 1.56892 1.46446 1.46448C1.56891 1.35929 1.70891 1.30151 1.85705 1.30151C2.0052 1.30151 2.1452 1.35929 2.24965 1.46448L3.03557 2.2504C3.14076 2.35559 3.19854 2.49485 3.19854 2.643C3.19854 2.79114 3.14076 2.93114 3.03557 3.03559C2.93039 3.14077 2.79113 3.19855 2.64298 3.19855Z" fill="#29D305"/>
<path d="M7.35702 3.19855C7.20888 3.19855 7.06888 3.14077 6.96443 3.03559C6.85925 2.93114 6.80147 2.79114 6.80147 2.643C6.80147 2.49485 6.85925 2.35485 6.96443 2.2504L7.75036 1.46448C7.85554 1.35929 7.9948 1.30151 8.14295 1.30151C8.2911 1.30151 8.4311 1.35929 8.53554 1.46448C8.64073 1.56892 8.69851 1.70892 8.69851 1.85707C8.69851 2.00522 8.64073 2.14522 8.53554 2.24966L7.74962 3.03559C7.64443 3.14077 7.50517 3.19855 7.35702 3.19855Z" fill="#29D305"/>
<path d="M8.14303 8.69843C7.99489 8.69843 7.85489 8.64065 7.75044 8.53547L6.96377 7.74954C6.85859 7.6451 6.80081 7.5051 6.80081 7.35695C6.80081 7.2088 6.85859 7.0688 6.96377 6.96435C7.06822 6.85917 7.20822 6.80139 7.35637 6.80139C7.50452 6.80139 7.64452 6.85917 7.74896 6.96435L8.53489 7.75028C8.64007 7.85473 8.69785 7.99473 8.69785 8.14287C8.69785 8.29102 8.64007 8.43102 8.53489 8.53547C8.43044 8.64065 8.29118 8.69843 8.14303 8.69843Z" fill="#29D305"/>
<path d="M1.85705 8.69843C1.70891 8.69843 1.56891 8.64065 1.46446 8.53547C1.35928 8.43102 1.3015 8.29102 1.3015 8.14287C1.3015 7.99473 1.35928 7.85473 1.46446 7.75028L2.25039 6.96435C2.35483 6.85917 2.49483 6.80139 2.64298 6.80139C2.79113 6.80139 2.93113 6.85917 3.03557 6.96435C3.14076 7.0688 3.19854 7.2088 3.19854 7.35695C3.19854 7.5051 3.14076 7.6451 3.03557 7.74954L2.24965 8.53547C2.1452 8.64065 2.0052 8.69843 1.85705 8.69843Z" fill="#29D305"/>
</svg>
