<svg width="24" height="25" fill="none" xmlns="http://www.w3.org/2000/svg"><path d="M.749 24.027a.75.75 0 010-1.501h.75v-3.254c0-.69.561-1.251 1.25-1.251H5.5c.689 0 1.25.561 1.25 1.251v3.254h2.249V10.262c0-.69.561-1.252 1.25-1.252H13c.689 0 1.25.562 1.25 1.252v12.264h2.25v-7.76c0-.688.56-1.25 1.248-1.25H20.5c.689 0 1.25.561 1.25 1.25v7.76h.749a.75.75 0 010 1.502H.749zm19.501-1.501v-7.509H18v7.509h2.25zm-7.5 0V10.512h-2.251v12.014h2.251zm-7.5 0v-3.004H2.999v3.004H5.25z" fill="#1B314B"/><path d="M2.249 12.766a2.253 2.253 0 010-4.506c.134 0 .269.012.403.037l3.385-3.385a2.253 2.253 0 012.212-2.659c1.241 0 2.25 1.01 2.25 2.252v.028l3.421.916a2.242 2.242 0 012.868-.689l2.742-2.146A2.254 2.254 0 0121.75 0a2.253 2.253 0 010 4.505 2.24 2.24 0 01-1.484-.56l-2.452 1.919A2.253 2.253 0 0115.75 9.01a2.254 2.254 0 01-2.246-2.117l-3.53-.945a2.24 2.24 0 01-3.15.298L3.987 9.084a2.253 2.253 0 01-1.738 3.681zm0-3.004a.75.75 0 10.001 1.502.75.75 0 00-.001-1.502zM15.75 6.007a.751.751 0 000 1.502.75.75 0 000-1.502zM8.249 3.755a.75.75 0 10.001 1.502.75.75 0 00-.001-1.502zM21.75 1.502a.751.751 0 000 1.501.751.751 0 000-1.501z" fill="#1B314B"/></svg>