<svg width="24" height="24" fill="none" xmlns="http://www.w3.org/2000/svg"><path d="M.749 24a.75.75 0 010-1.5h.75v-3.25c0-.689.561-1.25 1.25-1.25H5.5c.689 0 1.25.561 1.25 1.25v3.25h2.249v-9c0-.689.561-1.25 1.25-1.25H13c.689 0 1.25.561 1.25 1.25v9h2.25V7.75c0-.688.56-1.249 1.248-1.25H20.5c.689 0 1.25.561 1.25 1.25V22.5h.749a.75.75 0 010 1.5H.749zm19.501-1.5V8H18v14.5h2.25zm-7.5 0v-8.75h-2.251v8.75h2.251zm-7.5 0v-3H2.999v3H5.25z" fill="#1B314B"/><path d="M6.257 8.583A2.338 2.338 0 013.921 6.25a2.338 2.338 0 012.336-2.333A2.338 2.338 0 018.593 6.25a2.338 2.338 0 01-2.336 2.333zm0-3.5A1.17 1.17 0 005.089 6.25a1.169 1.169 0 002.336 0 1.17 1.17 0 00-1.168-1.167zm0-1.75a.584.584 0 01-.584-.583V1.583a.584.584 0 011.168 0V2.75a.584.584 0 01-.584.583zm3.504 3.5a.584.584 0 110-1.166h1.168a.584.584 0 110 1.166H9.761zM6.257 11.5a.584.584 0 01-.584-.583V9.75a.584.584 0 011.168 0v1.167a.584.584 0 01-.584.583zM1.585 6.833a.584.584 0 110-1.166h1.168a.584.584 0 110 1.166H1.585zM3.78 4.358a.579.579 0 01-.413-.17l-.826-.826a.579.579 0 010-.824.579.579 0 01.412-.171.58.58 0 01.413.17l.826.826a.579.579 0 010 .824.58.58 0 01-.412.171zm4.955 0a.579.579 0 01-.413-.17.577.577 0 01-.171-.413c0-.155.06-.302.171-.412l.826-.825a.58.58 0 01.826 0 .579.579 0 010 .824l-.826.825a.58.58 0 01-.413.171zm.826 5.775a.579.579 0 01-.413-.17l-.827-.826a.577.577 0 01-.17-.412.579.579 0 01.584-.583.58.58 0 01.412.17l.826.826a.579.579 0 010 .824.577.577 0 01-.412.171zm-6.608 0a.579.579 0 01-.412-.17.577.577 0 01-.172-.413c0-.156.061-.303.172-.412l.826-.825a.579.579 0 01.413-.172c.155 0 .302.061.412.172a.577.577 0 010 .824l-.826.825a.579.579 0 01-.413.171z" fill="#FFB65C"/></svg>