<svg width="24" height="25" viewBox="0 0 24 25" fill="none" xmlns="http://www.w3.org/2000/svg">
<path d="M0.748993 24.0275C0.334993 24.0275 -0.00100708 23.6911 -0.00100708 23.2766C-0.00100708 22.8621 0.334993 22.5257 0.748993 22.5257H1.49899V19.272C1.49899 18.5822 2.05999 18.0206 2.74899 18.0206H5.49999C6.18899 18.0206 6.74999 18.5822 6.74999 19.272V22.5257H8.99899V10.2617C8.99899 9.57194 9.55999 9.0103 10.249 9.0103H13C13.689 9.0103 14.25 9.57194 14.25 10.2617V22.5257H16.5V14.7669C16.5 14.0781 17.06 13.5165 17.748 13.5154H20.5C21.189 13.5154 21.75 14.0771 21.75 14.7669V22.5257H22.499C22.913 22.5257 23.249 22.8621 23.249 23.2766C23.249 23.6911 22.913 24.0275 22.499 24.0275H0.748993ZM20.25 22.5257V15.0172H18V22.5257H20.25ZM12.75 22.5257V10.512H10.499V22.5257H12.75ZM5.24999 22.5257V19.5223H2.99899V22.5257H5.24999Z" fill="black"/>
<path d="M2.24899 12.7656C1.00799 12.7656 -0.00100708 11.7554 -0.00100708 10.513C-0.00100708 9.2706 1.00799 8.26044 2.24899 8.26044C2.38299 8.26044 2.51799 8.27246 2.65199 8.29748L6.03699 4.91161C6.01199 4.77646 5.99899 4.64131 5.99899 4.50515C5.99899 3.26273 7.00799 2.25257 8.24899 2.25257C9.48999 2.25257 10.499 3.26273 10.499 4.50515C10.499 4.51416 10.499 4.52417 10.499 4.53318L13.92 5.44923C14.339 4.86056 15.016 4.50515 15.75 4.50515C16.114 4.50515 16.468 4.59225 16.788 4.76044L19.53 2.61399C19.51 2.49285 19.5 2.37271 19.5 2.25257C19.5 1.01015 20.51 0 21.75 0C22.99 0 24 1.01015 24 2.25257C24 3.495 22.991 4.50515 21.75 4.50515C21.198 4.50515 20.674 4.30392 20.266 3.94451L17.814 5.8637C17.936 6.14502 18 6.44937 18 6.75772C18 8.00015 16.991 9.0103 15.75 9.0103C14.555 9.0103 13.574 8.07223 13.504 6.89388L9.97399 5.9488C9.54899 6.46038 8.92199 6.75873 8.24899 6.75873C7.72499 6.75873 7.22299 6.57552 6.82399 6.24714L3.98699 9.08438C4.31599 9.48484 4.49899 9.98742 4.49899 10.513C4.49899 11.7554 3.48999 12.7656 2.24899 12.7656ZM2.24899 9.76216C1.83499 9.76216 1.49899 10.0985 1.49899 10.513C1.49899 10.9275 1.83499 11.2639 2.24899 11.2639C2.66299 11.2639 2.99899 10.9275 2.99899 10.513C2.99899 10.0985 2.66299 9.76216 2.24899 9.76216ZM15.75 6.00687C15.337 6.00687 15 6.34325 15 6.75772C15 7.1722 15.336 7.50858 15.75 7.50858C16.164 7.50858 16.5 7.1722 16.5 6.75772C16.5 6.34325 16.164 6.00687 15.75 6.00687ZM8.24899 3.75529C7.83499 3.75529 7.49899 4.09168 7.49899 4.50615C7.49899 4.92062 7.83499 5.25701 8.24899 5.25701C8.66299 5.25701 8.99899 4.92062 8.99899 4.50615C8.99899 4.09168 8.66299 3.75529 8.24899 3.75529ZM21.75 1.50172C21.337 1.50172 21 1.8381 21 2.25257C21 2.66705 21.337 3.00343 21.75 3.00343C22.163 3.00343 22.5 2.66705 22.5 2.25257C22.5 1.8381 22.164 1.50172 21.75 1.50172Z" fill="#29D305"/>
</svg>
