<svg width="24" height="24" viewBox="0 0 24 24" fill="none" xmlns="http://www.w3.org/2000/svg">
<path d="M0.75 24.0001C0.336 24.0001 0 23.6641 0 23.2501C0 22.8361 0.336 22.5001 0.75 22.5001H1.5V19.2501C1.5 18.5611 2.061 18.0001 2.75 18.0001H5.501C6.19 18.0001 6.751 18.5611 6.751 19.2501V22.5001H9V10.2501C9 9.56106 9.561 9.00006 10.25 9.00006H13.001C13.69 9.00006 14.251 9.56106 14.251 10.2501V22.5001H16.501V14.7501C16.501 14.0621 17.061 13.5011 17.749 13.5001H20.501C21.19 13.5001 21.751 14.0611 21.751 14.7501V22.5001H22.5C22.914 22.5001 23.25 22.8361 23.25 23.2501C23.25 23.6641 22.914 24.0001 22.5 24.0001H0.75ZM20.251 22.5001V15.0001H18.001V22.5001H20.251ZM12.751 22.5001V10.5001H10.5V22.5001H12.751ZM5.251 22.5001V19.5001H3V22.5001H5.251Z" fill="black"/>
<path d="M2.25 12.751C1.009 12.751 0 11.742 0 10.501C0 9.26 1.009 8.251 2.25 8.251C2.384 8.251 2.519 8.263 2.653 8.288L6.038 4.906C6.013 4.771 6 4.636 6 4.5C6 3.259 7.009 2.25 8.25 2.25C9.491 2.25 10.5 3.259 10.5 4.5C10.5 4.509 10.5 4.519 10.5 4.528L13.921 5.443C14.34 4.855 15.017 4.5 15.751 4.5C16.115 4.5 16.469 4.587 16.789 4.755L19.531 2.611C19.511 2.49 19.501 2.37 19.501 2.25C19.501 1.009 20.511 0 21.751 0C22.991 0 24.001 1.009 24.001 2.25C24.001 3.491 22.992 4.5 21.751 4.5C21.199 4.5 20.675 4.299 20.267 3.94L17.815 5.857C17.937 6.138 18.001 6.442 18.001 6.75C18.001 7.991 16.992 9 15.751 9C14.556 9 13.575 8.063 13.505 6.886L9.975 5.942C9.55 6.453 8.923 6.751 8.25 6.751C7.726 6.751 7.224 6.568 6.825 6.24L3.988 9.074C4.317 9.474 4.5 9.976 4.5 10.501C4.5 11.742 3.491 12.751 2.25 12.751ZM2.25 9.751C1.836 9.751 1.5 10.087 1.5 10.501C1.5 10.915 1.836 11.251 2.25 11.251C2.664 11.251 3 10.915 3 10.501C3 10.087 2.664 9.751 2.25 9.751ZM15.751 6C15.338 6 15.001 6.336 15.001 6.75C15.001 7.164 15.337 7.5 15.751 7.5C16.165 7.5 16.501 7.164 16.501 6.75C16.501 6.336 16.165 6 15.751 6ZM8.25 3.751C7.836 3.751 7.5 4.087 7.5 4.501C7.5 4.915 7.836 5.251 8.25 5.251C8.664 5.251 9 4.915 9 4.501C9 4.087 8.664 3.751 8.25 3.751ZM21.751 1.5C21.338 1.5 21.001 1.836 21.001 2.25C21.001 2.664 21.338 3 21.751 3C22.164 3 22.501 2.664 22.501 2.25C22.501 1.836 22.165 1.5 21.751 1.5Z" fill="#29D305"/>
</svg>
