<svg width="24" height="24" viewBox="0 0 24 24" fill="none" xmlns="http://www.w3.org/2000/svg">
<path d="M0.749008 24C0.335008 24 -0.000991821 23.664 -0.000991821 23.25C-0.000991821 22.836 0.335008 22.5 0.749008 22.5H1.49901V19.25C1.49901 18.561 2.06001 18 2.74901 18H5.50001C6.18901 18 6.75001 18.561 6.75001 19.25V22.5H8.99901C8.99901 22.5 8.99901 14.189 8.99901 13.5C8.99901 12.811 9.56001 12.25 10.249 12.25C10.938 12.25 13 12.25 13 12.25C13.689 12.25 14.25 12.811 14.25 13.5V22.5H16.5V7.75C16.5 7.062 17.06 6.501 17.748 6.5H20.5C21.189 6.5 21.75 7.061 21.75 7.75V22.5H22.499C22.913 22.5 23.249 22.836 23.249 23.25C23.249 23.664 22.913 24 22.499 24H0.749008ZM20.25 22.5V8H18V22.5H20.25ZM12.75 22.5V13.75H10.499V22.5H12.75ZM5.25001 22.5V19.5H2.99901V22.5H5.25001Z" fill="black"/>
<path d="M6.25716 8.58329C4.96924 8.58329 3.92116 7.5364 3.92116 6.24996C3.92116 4.96351 4.96924 3.91663 6.25716 3.91663C7.54508 3.91663 8.59317 4.96351 8.59317 6.24996C8.59317 7.5364 7.54508 8.58329 6.25716 8.58329ZM6.25716 5.08329C5.6132 5.08329 5.08916 5.60674 5.08916 6.24996C5.08916 6.89318 5.6132 7.41663 6.25716 7.41663C6.90112 7.41663 7.42516 6.89318 7.42516 6.24996C7.42516 5.60674 6.90112 5.08329 6.25716 5.08329Z" fill="#29D305"/>
<path d="M6.25721 3.33333C5.93485 3.33333 5.67321 3.072 5.67321 2.75V1.58333C5.67321 1.26133 5.93485 1 6.25721 1C6.57958 1 6.84122 1.26133 6.84122 1.58333V2.75C6.84122 3.072 6.5788 3.33333 6.25721 3.33333Z" fill="#29D305"/>
<path d="M9.76119 6.83329C9.43883 6.83329 9.17719 6.57196 9.17719 6.24996C9.17719 5.92796 9.43883 5.66663 9.76119 5.66663H10.9292C11.2516 5.66663 11.5132 5.92796 11.5132 6.24996C11.5132 6.57196 11.2516 6.83329 10.9292 6.83329H9.76119Z" fill="#29D305"/>
<path d="M6.25721 11.5C5.93485 11.5 5.67321 11.2386 5.67321 10.9166V9.74996C5.67321 9.42796 5.93485 9.16663 6.25721 9.16663C6.57958 9.16663 6.84122 9.42796 6.84122 9.74996V10.9166C6.84122 11.2386 6.5788 11.5 6.25721 11.5Z" fill="#29D305"/>
<path d="M1.58519 6.83329C1.26282 6.83329 1.00119 6.57196 1.00119 6.24996C1.00119 5.92796 1.26282 5.66663 1.58519 5.66663H2.75319C3.07556 5.66663 3.33719 5.92796 3.33719 6.24996C3.33719 6.57196 3.07478 6.83329 2.75319 6.83329H1.58519Z" fill="#29D305"/>
<path d="M3.77949 4.35847C3.62375 4.35847 3.47659 4.2978 3.36679 4.18735L2.54063 3.36213C2.43006 3.25169 2.36932 3.10547 2.36932 2.94991C2.36932 2.79435 2.43006 2.64735 2.54063 2.53769C2.65042 2.42724 2.79759 2.36658 2.95332 2.36658C3.10905 2.36658 3.25622 2.42724 3.36601 2.53769L4.19218 3.36291C4.30275 3.47335 4.36349 3.61958 4.36349 3.77513C4.36349 3.93069 4.30275 4.07769 4.19218 4.18735C4.08161 4.2978 3.93522 4.35847 3.77949 4.35847Z" fill="#29D305"/>
<path d="M8.73487 4.35847C8.57914 4.35847 8.43197 4.2978 8.32218 4.18735C8.21161 4.07769 8.15087 3.93069 8.15087 3.77513C8.15087 3.61958 8.21161 3.47258 8.32218 3.36291L9.14835 2.53769C9.25892 2.42724 9.40531 2.36658 9.56104 2.36658C9.71677 2.36658 9.86394 2.42724 9.97373 2.53769C10.0843 2.64735 10.145 2.79435 10.145 2.94991C10.145 3.10547 10.0843 3.25247 9.97373 3.36213L9.14757 4.18735C9.037 4.2978 8.89061 4.35847 8.73487 4.35847Z" fill="#29D305"/>
<path d="M9.56116 10.1334C9.40543 10.1334 9.25826 10.0727 9.14847 9.96226L8.32152 9.13704C8.21095 9.02737 8.15022 8.88037 8.15022 8.72481C8.15022 8.56926 8.21095 8.42226 8.32152 8.31259C8.43131 8.20215 8.57848 8.14148 8.73422 8.14148C8.88995 8.14148 9.03712 8.20215 9.14691 8.31259L9.97308 9.13781C10.0836 9.24748 10.1444 9.39448 10.1444 9.55004C10.1444 9.70559 10.0836 9.85259 9.97308 9.96226C9.86329 10.0727 9.7169 10.1334 9.56116 10.1334Z" fill="#29D305"/>
<path d="M2.95332 10.1334C2.79759 10.1334 2.65042 10.0727 2.54063 9.96226C2.43006 9.85259 2.36932 9.70559 2.36932 9.55004C2.36932 9.39448 2.43006 9.24748 2.54063 9.13781L3.36679 8.31259C3.47659 8.20215 3.62375 8.14148 3.77949 8.14148C3.93522 8.14148 4.08239 8.20215 4.19218 8.31259C4.30275 8.42226 4.36349 8.56926 4.36349 8.72481C4.36349 8.88037 4.30275 9.02737 4.19218 9.13704L3.36601 9.96226C3.25622 10.0727 3.10905 10.1334 2.95332 10.1334Z" fill="#29D305"/>
</svg>
