<svg width="31" height="24" fill="none" xmlns="http://www.w3.org/2000/svg"><rect y="20.743" width="30.077" height="2.074" rx="1.037" fill="#FFB65C"/><path fill-rule="evenodd" clip-rule="evenodd" d="M14.68 18.678H1.914c-.346 0-.627.228-.627.509s.28.51.627.51h12.764c.346 0 .627-.229.627-.51s-.28-.51-.627-.51zM1.914 17.63C.857 17.631 0 18.328 0 19.187c0 .86.857 1.556 1.915 1.556h12.764c1.058 0 1.915-.697 1.915-1.556 0-.86-.857-1.556-1.915-1.556H1.915zM18.83 1.571l9.182 9.183a.684.684 0 11-.968.968l-9.182-9.183a.684.684 0 11.967-.968zM16.932.642c.78-.78 2.045-.78 2.825 0l9.183 9.183c.688.688.77 1.752.245 2.529.14.128.241.303.273.512l.736 4.782a.876.876 0 01-1.041.992l-6.878-1.408c-.799-.163-.96-1.233-.246-1.625l4.654-2.558a1.997 1.997 0 01-.569-.398l-9.182-9.183a1.998 1.998 0 010-2.826zm6.774 15.542l4.549-2.5.545 3.542-5.094-1.042z" fill="#1B314B"/><path d="M14.066 4.548l4.278-3.07a.676.676 0 01.956.173.714.714 0 01-.168.98L15.82 5.005c.282.258.484.61.557 1.014l.038.209 3.473-2.492c.906-.651 1.127-1.932.492-2.861a1.974 1.974 0 00-2.792-.504l-5.82 4.176h2.298zM9.58 7.767V6.348c0-.082.005-.162.015-.241l-2.68 1.922c-.482.347-.77.871-.839 1.426h1.35a.698.698 0 01.245-.32L9.58 7.768z" fill="#1B314B"/><path fill-rule="evenodd" clip-rule="evenodd" d="M10.897 10.806h-9.14a.445.445 0 00-.439.45v3.537c0 .249.197.45.44.45h14.417a.447.447 0 00.432-.532L15.08 6.266a.442.442 0 00-.432-.368h-3.312a.445.445 0 00-.44.45v4.458zM9.58 6.348c0-.994.787-1.8 1.758-1.8h3.312c.847 0 1.574.619 1.728 1.472l1.526 8.445c.2 1.107-.63 2.13-1.728 2.13H1.758C.787 16.594 0 15.787 0 14.792v-3.537c0-.994.787-1.8 1.758-1.8h7.821V6.347z" fill="#1B314B"/><path fill-rule="evenodd" clip-rule="evenodd" d="M6.557 16.594v1.037H5.186v-1.037h1.371zm4.517 1.037v-1.037h1.372v1.037h-1.372z" fill="#1B314B"/></svg>