<svg width="24" height="24" viewBox="0 0 24 24" fill="none" xmlns="http://www.w3.org/2000/svg">
<path fill-rule="evenodd" clip-rule="evenodd" d="M3.16655 11.759C3.64351 11.759 4.03015 12.1538 4.03015 12.6409V19.9902H8.14137V14.8493C8.14137 13.5676 9.20095 12.4616 10.4646 12.4616H11.9242C13.1878 12.4616 14.2474 13.5676 14.2474 14.8493V19.9902H15.0889C15.5659 19.9902 15.9525 20.385 15.9525 20.8721C15.9525 21.3591 15.5659 21.754 15.0889 21.754H13.3838C12.9068 21.754 12.5202 21.3591 12.5202 20.8721V14.8493C12.5202 14.5249 12.2175 14.2255 11.9242 14.2255H10.4646C10.1713 14.2255 9.86856 14.5249 9.86856 14.8493V20.8721C9.86856 21.3591 9.48192 21.754 9.00497 21.754H3.16655C2.6896 21.754 2.30296 21.3591 2.30296 20.8721V12.6409C2.30296 12.1538 2.6896 11.759 3.16655 11.759Z" fill="black"/>
<path fill-rule="evenodd" clip-rule="evenodd" d="M11.2642 1.95014C11.2638 1.95056 11.2634 1.95098 11.2629 1.9514L1.4785 12.0841C1.14362 12.4309 0.59683 12.4348 0.257226 12.0928C-0.0823789 11.7508 -0.0862019 11.1925 0.248687 10.8456L10.0361 0.70985L10.0391 0.706764C10.9581 -0.235588 12.379 -0.235588 13.298 0.706764L21.0503 8.65636C21.3869 9.00148 21.3858 9.55988 21.0478 9.90357C20.7099 10.2473 20.1631 10.2461 19.8265 9.901L12.0741 1.9514C11.8306 1.70173 11.5079 1.7013 11.2642 1.95014Z" fill="black"/>
<path fill-rule="evenodd" clip-rule="evenodd" d="M14.969 2.72524C14.969 2.23817 15.3556 1.84332 15.8326 1.84332H19.287C19.7639 1.84332 20.1506 2.23817 20.1506 2.72524V7.42878C20.1506 7.91585 19.7639 8.31069 19.287 8.31069C18.81 8.31069 18.4234 7.91585 18.4234 7.42878V3.60715H16.6962V4.08203C16.6962 4.56909 16.3095 4.96394 15.8326 4.96394C15.3556 4.96394 14.969 4.56909 14.969 4.08203V2.72524Z" fill="black"/>
<path d="M17.8956 24C17.8166 24 17.7393 23.9838 17.6669 23.9531C17.4113 23.8447 17.2559 23.5682 17.2901 23.2798L17.8142 18.88H16.0645C15.8618 18.88 15.673 18.7751 15.5591 18.5993C15.4452 18.4235 15.4224 18.2008 15.4981 18.0028L17.9395 11.6028C18.0323 11.3579 18.2545 11.2 18.5059 11.2H22.1681C22.3813 11.2 22.575 11.3135 22.6873 11.5038C22.7988 11.6941 22.8094 11.9271 22.7142 12.1267L21.3242 15.04H23.3888C23.6216 15.04 23.8307 15.1757 23.9349 15.3941C24.0391 15.6126 24.0171 15.8695 23.8771 16.064L18.3839 23.744C18.2691 23.9044 18.0868 24 17.8956 24ZM18.5059 17.6C18.6809 17.6 18.8477 17.6785 18.9633 17.8168C19.0797 17.955 19.1334 18.1385 19.1114 18.3202L18.7859 21.0483L22.1681 16.32H20.337C20.1238 16.32 19.9301 16.2065 19.8178 16.0162C19.7063 15.8259 19.6957 15.593 19.7909 15.3933L21.1809 12.48H18.9193L16.9662 17.6H18.5059Z" fill="#29D305"/>
</svg>
