<svg width="24" height="24" viewBox="0 0 24 24" fill="none" xmlns="http://www.w3.org/2000/svg">
<g clip-path="url(#clip0)">
<path fill-rule="evenodd" clip-rule="evenodd" d="M3.17598 11.549C3.65435 11.549 4.04215 11.9367 4.04215 12.4151V19.6332H8.1656V14.5841C8.1656 13.3253 9.22834 12.2391 10.4957 12.2391H11.9597C13.227 12.2391 14.2898 13.3253 14.2898 14.5841V19.6332H15.1338C15.6122 19.6332 16 20.021 16 20.4993C16 20.9777 15.6122 21.3655 15.1338 21.3655H13.4236C12.9452 21.3655 12.5574 20.9777 12.5574 20.4993V14.5841C12.5574 14.2654 12.2538 13.9714 11.9597 13.9714H10.4957C10.2015 13.9714 9.89793 14.2654 9.89793 14.5841V20.4993C9.89793 20.9777 9.51014 21.3655 9.03177 21.3655H3.17598C2.69761 21.3655 2.30981 20.9777 2.30981 20.4993V12.4151C2.30981 11.9367 2.69761 11.549 3.17598 11.549Z" fill="black"/>
<path fill-rule="evenodd" clip-rule="evenodd" d="M11.2977 1.91531C11.2973 1.91572 11.2969 1.91614 11.2965 1.91655L1.4829 11.8683C1.14702 12.2089 0.598607 12.2128 0.257991 11.8769C-0.0826241 11.541 -0.0864585 10.9926 0.249427 10.652L10.066 0.697174L10.069 0.694143C10.9907 -0.231381 12.4158 -0.231381 13.3375 0.694143L21.113 8.50178C21.4505 8.84074 21.4494 9.38917 21.1105 9.72672C20.7715 10.0643 20.2231 10.0632 19.8855 9.72419L12.1101 1.91655C11.8659 1.67134 11.5422 1.67092 11.2977 1.91531Z" fill="black"/>
<path fill-rule="evenodd" clip-rule="evenodd" d="M15.0135 2.67659C15.0135 2.19822 15.4013 1.81042 15.8797 1.81042H19.3444C19.8227 1.81042 20.2105 2.19822 20.2105 2.67659V7.29614C20.2105 7.77451 19.8227 8.16231 19.3444 8.16231C18.866 8.16231 18.4782 7.77451 18.4782 7.29614V3.54276H16.7459V4.00915C16.7459 4.48752 16.3581 4.87532 15.8797 4.87532C15.4013 4.87532 15.0135 4.48752 15.0135 4.00915V2.67659Z" fill="black"/>
<path d="M17.9488 23.5714C17.8696 23.5714 17.7921 23.5555 17.7195 23.5253C17.4632 23.4189 17.3073 23.1474 17.3415 22.8641L17.8672 18.5429H16.1123C15.909 18.5429 15.7197 18.4398 15.6054 18.2671C15.4911 18.0945 15.4683 17.8757 15.5442 17.6813L17.9929 11.3956C18.086 11.155 18.3088 11 18.561 11H22.2341C22.4479 11 22.6422 11.1115 22.7548 11.2984C22.8667 11.4853 22.8773 11.7141 22.7818 11.9102L21.3876 14.7714H23.4584C23.6919 14.7714 23.9017 14.9047 24.0061 15.1192C24.1106 15.3338 24.0886 15.5861 23.9482 15.7771L18.4386 23.32C18.3235 23.4776 18.1406 23.5714 17.9488 23.5714ZM18.561 17.2857C18.7365 17.2857 18.9038 17.3628 19.0197 17.4986C19.1365 17.6344 19.1903 17.8146 19.1683 17.9931L18.8418 20.6725L22.2341 16.0286H20.3975C20.1837 16.0286 19.9894 15.9171 19.8768 15.7302C19.765 15.5433 19.7543 15.3145 19.8498 15.1184L21.244 12.2571H18.9757L17.0167 17.2857H18.561Z" fill="#29D305"/>
</g>
<defs>
<clipPath id="clip0">
<path d="M0 0H24V24H0V0Z" fill="white"/>
</clipPath>
</defs>
</svg>
