<svg width="24" height="24" viewBox="0 0 24 24" fill="none" xmlns="http://www.w3.org/2000/svg">
<path d="M22.0084 2.19087H17.2283V0.796681C17.2283 0.39834 16.9296 0 16.4317 0C15.9337 0 15.635 0.298755 15.635 0.796681V2.29046H11.9503C11.552 2.29046 11.1536 2.58921 11.1536 3.08714C11.1536 3.58506 11.4524 3.88382 11.9503 3.88382H22.0084C22.2076 3.88382 22.4068 4.08299 22.4068 4.28216V14.639C22.4068 14.8382 22.2076 15.0373 22.0084 15.0373H14.9379C14.5395 15.0373 14.1412 15.3361 14.1412 15.834C14.1412 16.3319 14.44 16.6307 14.9379 16.6307H15.7346V20.7137L13.0458 22.7054C12.747 22.9046 12.6474 23.4025 12.9462 23.7012C13.0458 23.9004 13.3445 24 13.5437 24C13.7429 24 13.8424 24 13.942 23.8008L16.4317 21.9087L18.6225 23.8008C18.7221 23.9004 18.9213 24 19.1205 24C19.3196 24 19.5188 23.9004 19.718 23.7012C20.0167 23.4025 19.9171 22.9046 19.6184 22.6058L17.2283 20.6141V16.5311H22.108C23.1039 16.5311 24.0001 15.6349 24.0001 14.639V4.18257C23.9005 3.08714 23.1039 2.29046 22.0084 2.19087Z" fill="black"/>
<path d="M9.75946 3.78423C9.75946 1.69295 8.06651 0 5.97522 0C3.88394 0 2.19099 1.69295 2.19099 3.78423C2.19099 5.87552 3.88394 7.46888 5.97522 7.46888C8.06651 7.46888 9.75946 5.77593 9.75946 3.78423ZM5.97522 5.9751C4.7802 5.9751 3.78435 4.97925 3.78435 3.78423C3.78435 2.58921 4.7802 1.59336 5.97522 1.59336C7.17024 1.59336 8.16609 2.58921 8.16609 3.78423C8.16609 4.97925 7.17024 5.9751 5.97522 5.9751Z" fill="black"/>
<path d="M5.97522 7.46888C2.68892 7.46888 0 10.1577 0 13.444V15.6349C0 16.0332 0.298755 16.4315 0.79668 16.4315H2.39004L2.98755 23.2033C2.98755 23.6017 3.38589 23.9004 3.78423 23.9004H8.26556C8.56431 23.9004 8.96265 23.6017 8.96265 23.2033L9.65975 16.4315H11.2531C11.6515 16.4315 12.0498 16.1328 12.0498 15.6349V13.444C11.9502 10.1577 9.26153 7.46888 5.97522 7.46888ZM10.4564 14.9378H8.96265C8.56431 14.9378 8.26556 15.2365 8.26556 15.6349L7.56846 22.4066H4.38174L3.68465 15.6349C3.68465 15.2365 3.38589 14.9378 2.98755 14.9378H1.49378V13.444C1.49378 10.9544 3.48548 8.96265 5.9751 8.96265C8.46473 8.96265 10.4564 10.9544 10.4564 13.444V14.9378Z" fill="black"/>
<path d="M19.8172 9.56016C19.8172 9.16182 19.5185 8.76348 19.0206 8.76348H18.5226L18.2239 6.97095C18.5226 6.87137 18.7218 6.57261 18.7218 6.27386C18.7218 5.87552 18.423 5.47718 17.9251 5.47718H15.4355C15.0372 5.47718 14.6388 5.77593 14.6388 6.27386C14.6388 6.57261 14.838 6.87137 15.1367 6.97095L14.838 8.76348H14.3401C13.9417 8.76348 13.5434 9.06224 13.5434 9.56016C13.5434 9.9585 13.8421 10.3568 14.3401 10.3568H14.4396L13.9417 12.3485C13.8421 12.7469 14.0413 13.1452 14.4396 13.2448C14.838 13.3444 15.2363 13.1452 15.3359 12.7469L15.9334 10.3568H17.4272L18.0247 12.7469C18.1243 13.1452 18.5226 13.3444 18.921 13.2448C19.3193 13.1452 19.5185 12.7469 19.4189 12.3485L18.921 10.3568H19.0206C19.4189 10.3568 19.8172 9.9585 19.8172 9.56016ZM16.6305 7.07054H16.8297L17.0289 8.86307H16.4314L16.6305 7.07054Z" fill="black"/>
</svg>
