<svg width="25" height="24" viewBox="0 0 25 24" fill="none" xmlns="http://www.w3.org/2000/svg">
<path d="M8.30991 11.1723C8.10987 11.1723 7.92183 11.0943 7.7798 10.9533L7.08665 10.2635C6.51053 10.4714 5.9114 10.5764 5.30027 10.5764C4.70214 10.5764 4.11001 10.4744 3.53889 10.2735C2.2056 9.8036 1.13437 8.84383 0.522243 7.56914C-0.171906 6.1215 -0.173907 4.45891 0.515241 3.00926C0.619263 2.78932 0.825308 2.63435 1.06436 2.59236C1.10837 2.58537 1.15038 2.58137 1.19139 2.58137C1.39143 2.58137 1.58047 2.65935 1.7215 2.80031L3.14681 4.22097C3.29684 4.37493 3.48488 4.45591 3.69192 4.45791L3.73093 4.45891C3.96298 4.45891 4.13302 4.33994 4.23504 4.24096C4.38107 4.099 4.46209 3.90804 4.46509 3.70309C4.46909 3.49914 4.39207 3.30719 4.25004 3.16123L2.80973 1.72658C2.6377 1.55462 2.55868 1.30968 2.59969 1.06974C2.6407 0.829797 2.79573 0.623847 3.01578 0.519873C3.73793 0.174957 4.5051 0 5.29527 0C5.8944 0 6.48852 0.101975 7.06065 0.303926C8.39393 0.77381 9.46416 1.73557 10.0743 3.01026C10.6824 4.28095 10.7564 5.74459 10.2873 7.06427L10.9025 7.67712C11.1955 7.96905 11.1955 8.44493 10.9045 8.73786C10.7624 8.87982 10.5734 8.9578 10.3734 8.9578C10.1733 8.9578 9.98527 8.87982 9.84424 8.73986L8.87303 7.77209C8.64899 7.54815 8.58897 7.20523 8.725 6.9193C9.21811 5.88156 9.21711 4.69285 8.721 3.6561C8.28391 2.74233 7.51774 2.0535 6.56254 1.71658C6.15145 1.57161 5.72636 1.49863 5.29727 1.49863C5.11323 1.49863 4.92919 1.51263 4.74715 1.53962L5.32127 2.11148C5.74636 2.54638 5.97441 3.11724 5.96741 3.72109C5.96041 4.32594 5.71736 4.8918 5.28526 5.3137C4.85917 5.7296 4.29705 5.95854 3.70193 5.95854C3.70093 5.95854 3.67792 5.95854 3.67692 5.95854C3.07179 5.95054 2.50567 5.7086 2.08258 5.27671L1.54146 4.73684C1.43344 5.47566 1.54646 6.23247 1.87653 6.9213C2.31463 7.83408 3.08179 8.52291 4.038 8.85883C4.44809 9.00279 4.87318 9.07678 5.30127 9.07678C5.86839 9.07678 6.41851 8.95081 6.93762 8.70187C7.03864 8.65388 7.15067 8.62789 7.26169 8.62789C7.46173 8.62789 7.64977 8.70587 7.7908 8.84683L8.83903 9.89058C8.98106 10.0315 9.05907 10.2195 9.06007 10.4204C9.06007 10.6204 8.98306 10.8094 8.84103 10.9513C8.7 11.0933 8.51096 11.1723 8.30991 11.1723Z" fill="#29D305"/>
<path d="M18.7111 23.9311C18.112 23.9311 17.5179 23.8291 16.9457 23.6271C15.6124 23.1562 14.5422 22.1945 13.9331 20.9198C13.325 19.6491 13.2509 18.1865 13.72 16.8678L12.6518 15.8041C12.3587 15.5121 12.3587 15.0362 12.6508 14.7433C12.7928 14.6013 12.9819 14.5234 13.1819 14.5234C13.382 14.5234 13.57 14.6013 13.712 14.7423L15.1343 16.16C15.3584 16.3839 15.4174 16.7268 15.2824 17.0128C14.7893 18.0495 14.7913 19.2382 15.2864 20.274C15.7235 21.1877 16.4896 21.8766 17.4448 22.2135C17.8559 22.3584 18.281 22.4314 18.7101 22.4314C18.8941 22.4314 19.0772 22.4184 19.2592 22.3904L18.7131 21.8466C17.8529 20.9668 17.8539 19.5441 18.7101 18.6713C19.1382 18.2355 19.7123 17.9945 20.3255 17.9945C20.9236 17.9945 21.4867 18.2245 21.9118 18.6424L22.4629 19.1912C22.5709 18.4534 22.4569 17.6976 22.1278 17.0108C21.5007 15.7021 20.1554 14.8573 18.6991 14.8573C18.132 14.8573 17.5829 14.9823 17.0668 15.2292C16.9667 15.2772 16.8547 15.3022 16.7437 15.3022C16.5446 15.3022 16.3566 15.2252 16.2146 15.0842L14.7913 13.6656C14.4982 13.3736 14.4982 12.8978 14.7903 12.6048C14.9323 12.4629 15.1213 12.3849 15.3214 12.3849C15.5214 12.3849 15.7095 12.4629 15.8505 12.6038L16.9177 13.6676C17.4898 13.4616 18.088 13.3576 18.6981 13.3576C20.7285 13.3576 22.6059 14.5374 23.4801 16.3639C24.1733 17.8106 24.1763 19.4702 23.4871 20.9188C23.3831 21.1387 23.1781 21.2947 22.938 21.3357C22.897 21.3437 22.853 21.3477 22.808 21.3477C22.6099 21.3477 22.4229 21.2697 22.2809 21.1287L20.8556 19.7091C20.7155 19.5711 20.5255 19.4941 20.3245 19.4941C20.1164 19.4941 19.9224 19.5751 19.7783 19.7231C19.4893 20.017 19.4883 20.4969 19.7773 20.7918L21.1946 22.2045C21.3667 22.3764 21.4447 22.6224 21.4037 22.8613C21.3627 23.1013 21.2076 23.3072 20.9876 23.4122C20.2694 23.7561 19.5023 23.9311 18.7111 23.9311Z" fill="#29D305"/>
<path d="M3.03468 24C2.23451 24 1.48235 23.69 0.917224 23.1282C-0.249026 21.9685 -0.255027 20.0769 0.905222 18.9102L5.61223 14.2144C5.89529 13.9324 6.27137 13.7775 6.67146 13.7775C7.07155 13.7775 7.44763 13.9324 7.73069 14.2144L8.16878 14.6503L14.4601 8.56875L11.8246 5.9434C10.9494 5.07361 10.9464 3.65296 11.8166 2.77817L13.941 0.660692C14.3651 0.237795 14.9292 0.00485229 15.5314 0.00485229C16.1315 0.00485229 16.6956 0.236796 17.1187 0.658692L23.341 6.85717C23.7651 7.27907 23.9992 7.83993 24.0002 8.43779C24.0022 9.03564 23.7701 9.5985 23.348 10.0224C23.34 10.0304 23.327 10.0424 23.317 10.0524L21.2236 12.1419C20.7995 12.5648 20.2354 12.7977 19.6342 12.7977C19.0331 12.7977 18.469 12.5648 18.0459 12.1429L15.5224 9.62849L9.23101 15.71L9.84914 16.3259C10.1322 16.6088 10.2882 16.9837 10.2882 17.3836C10.2882 17.7825 10.1332 18.1584 9.85114 18.4413C9.84514 18.4473 9.82213 18.4693 9.81613 18.4743L5.15213 23.1282C4.58801 23.69 3.83585 24 3.03468 24ZM1.97645 19.961C1.39633 20.5438 1.39533 21.4886 1.97545 22.0644C2.25751 22.3454 2.63359 22.5003 3.03468 22.5003C3.43576 22.5003 3.81185 22.3454 4.09391 22.0644L8.78991 17.3806C8.78991 17.3806 7.62766 16.2289 7.62566 16.2269L6.67146 15.2761L1.97645 19.961ZM15.5324 1.50448C15.3323 1.50448 15.1433 1.58247 15.0022 1.72243L12.8848 3.83291C12.7448 3.97388 12.6667 4.16083 12.6667 4.35979C12.6667 4.55774 12.7438 4.74269 12.8838 4.88166L19.1061 11.0801C19.2472 11.2211 19.4352 11.2981 19.6362 11.2981C19.8373 11.2981 20.0253 11.2211 20.1664 11.0801L22.2828 8.96766C22.4258 8.82369 22.5019 8.64174 22.5019 8.44178C22.5009 8.24483 22.4238 8.05888 22.2838 7.91991L16.0615 1.72143C15.9204 1.58147 15.7324 1.50448 15.5324 1.50448Z" fill="black"/>
</svg>
