<svg width="24" height="24" viewBox="0 0 24 24" fill="none" xmlns="http://www.w3.org/2000/svg">
<path d="M8.61378 11.2358C8.43041 11.2358 8.25804 11.1642 8.12784 11.035L7.49245 10.4023C6.96434 10.593 6.41514 10.6893 5.85494 10.6893C5.30665 10.6893 4.76387 10.5958 4.24034 10.4115C3.01816 9.98057 2.0362 9.10038 1.47508 7.93138C0.838776 6.60376 0.836942 5.07902 1.46866 3.74957C1.56402 3.54786 1.75289 3.40574 1.97202 3.36723C2.01236 3.36082 2.05087 3.35715 2.08846 3.35715C2.27183 3.35715 2.44512 3.42866 2.5744 3.55794L3.88093 4.8608C4.01846 5.002 4.19083 5.07627 4.38062 5.0781L4.41638 5.07902C4.62909 5.07902 4.78496 4.96991 4.87848 4.87914C5.01234 4.74895 5.0866 4.57383 5.08936 4.38587C5.09302 4.19883 5.02242 4.02279 4.89223 3.88893L3.57195 2.57323C3.41425 2.41553 3.34181 2.1909 3.3794 1.97085C3.417 1.7508 3.55911 1.56193 3.76082 1.46658C4.4228 1.15026 5.12603 0.989807 5.85035 0.989807C6.39955 0.989807 6.94417 1.08333 7.46862 1.26853C8.6908 1.69946 9.67184 2.58148 10.2311 3.75048C10.7886 4.91582 10.8564 6.2581 10.4264 7.46836L10.9903 8.0304C11.2589 8.29813 11.2589 8.73455 10.9921 9.00319C10.8619 9.13339 10.6886 9.2049 10.5053 9.2049C10.3219 9.2049 10.1495 9.13339 10.0202 9.00503L9.12997 8.1175C8.92459 7.91213 8.86958 7.59764 8.99428 7.33542C9.44629 6.38372 9.44537 5.29356 8.99061 4.34278C8.58994 3.50476 7.88762 2.87304 7.01202 2.56406C6.63519 2.43112 6.24552 2.36419 5.85219 2.36419C5.68348 2.36419 5.51478 2.37702 5.34791 2.40178L5.87419 2.92622C6.26386 3.32506 6.4729 3.84859 6.46648 4.40237C6.46007 4.95708 6.23727 5.47602 5.84118 5.86294C5.4506 6.24435 4.93532 6.45431 4.38979 6.45431C4.38887 6.45431 4.36778 6.45431 4.36687 6.45431C3.81216 6.44698 3.29322 6.2251 2.90539 5.82901L2.40936 5.33391C2.31034 6.01147 2.41395 6.70553 2.71651 7.33725C3.1181 8.17435 3.82133 8.80607 4.69785 9.11413C5.07377 9.24616 5.46344 9.31401 5.85585 9.31401C6.37571 9.31401 6.87999 9.19849 7.35584 8.97019C7.44845 8.92618 7.55113 8.90234 7.65291 8.90234C7.83628 8.90234 8.00865 8.97385 8.13793 9.10313L9.0988 10.0603C9.22899 10.1896 9.30051 10.362 9.30143 10.5463C9.30143 10.7296 9.23083 10.9029 9.10063 11.0331C8.97136 11.1633 8.79807 11.2358 8.61378 11.2358Z" fill="#29D305"/>
<path d="M18.1482 22.9367C17.599 22.9367 17.0544 22.8432 16.5299 22.658C15.3078 22.2261 14.3267 21.3441 13.7683 20.1751C13.2109 19.0098 13.143 17.6684 13.573 16.4591L12.5938 15.4835C12.3252 15.2158 12.3252 14.7794 12.5929 14.5107C12.7231 14.3805 12.8964 14.309 13.0798 14.309C13.2631 14.309 13.4355 14.3805 13.5657 14.5098L14.8695 15.8099C15.0749 16.0153 15.129 16.3298 15.0052 16.592C14.5532 17.5428 14.555 18.6329 15.0089 19.5828C15.4095 20.4208 16.1118 21.0525 16.9874 21.3615C17.3643 21.4945 17.7539 21.5614 18.1473 21.5614C18.316 21.5614 18.4838 21.5495 18.6506 21.5238L18.15 21.025C17.3615 20.2182 17.3624 18.9135 18.1473 18.1131C18.5397 17.7133 19.066 17.4924 19.628 17.4924C20.1763 17.4924 20.6925 17.7032 21.0822 18.0865L21.5874 18.5898C21.6864 17.9132 21.5819 17.2201 21.2802 16.5902C20.7053 15.39 19.4721 14.6152 18.1372 14.6152C17.6173 14.6152 17.114 14.7299 16.6409 14.9563C16.5492 15.0003 16.4465 15.0232 16.3447 15.0232C16.1623 15.0232 15.9899 14.9526 15.8597 14.8234L14.555 13.5223C14.2864 13.2546 14.2864 12.8182 14.5541 12.5495C14.6843 12.4194 14.8576 12.3478 15.0409 12.3478C15.2243 12.3478 15.3967 12.4194 15.526 12.5486L16.5043 13.5242C17.0287 13.3353 17.577 13.2399 18.1363 13.2399C19.9975 13.2399 21.7185 14.3218 22.5198 15.997C23.1552 17.3237 23.1579 18.8457 22.5262 20.1742C22.4309 20.3759 22.2429 20.5189 22.0229 20.5565C21.9853 20.5639 21.9449 20.5675 21.9037 20.5675C21.7221 20.5675 21.5507 20.496 21.4205 20.3667L20.114 19.0648C19.9856 18.9383 19.8114 18.8677 19.6271 18.8677C19.4364 18.8677 19.2585 18.9419 19.1265 19.0776C18.8615 19.3472 18.8606 19.7873 19.1256 20.0577L20.4248 21.3533C20.5825 21.511 20.654 21.7365 20.6164 21.9557C20.5788 22.1757 20.4367 22.3646 20.235 22.4608C19.5767 22.7762 18.8734 22.9367 18.1482 22.9367Z" fill="#29D305"/>
<path d="M3.77814 22.9999C3.04465 22.9999 2.35517 22.7157 1.83714 22.2004C0.768079 21.1368 0.762578 19.4021 1.82614 18.3322L6.1409 14.0256C6.40037 13.7671 6.74511 13.625 7.11186 13.625C7.4786 13.625 7.82334 13.7671 8.08282 14.0256L8.4844 14.4254L14.2515 8.84812L11.8355 6.44043C11.0333 5.64276 11.0305 4.3399 11.8282 3.53764L13.7756 1.59573C14.1644 1.20789 14.6815 0.994263 15.2334 0.994263C15.7836 0.994263 16.3007 1.20698 16.6885 1.59389L22.3923 7.27844C22.7811 7.66536 22.9956 8.17972 22.9965 8.72801C22.9984 9.27629 22.7856 9.79249 22.3987 10.1812C22.3914 10.1886 22.3795 10.1996 22.3703 10.2087L20.4513 12.125C20.0626 12.5128 19.5454 12.7264 18.9944 12.7264C18.4434 12.7264 17.9263 12.5128 17.5384 12.1259L15.2252 9.81999L9.45811 15.3973L10.0247 15.9621C10.2842 16.2215 10.4272 16.5654 10.4272 16.9321C10.4272 17.2979 10.2851 17.6427 10.0266 17.9021C10.0211 17.9076 9.99998 17.9278 9.99448 17.9324L5.71914 22.2004C5.20203 22.7157 4.51255 22.9999 3.77814 22.9999ZM2.8081 19.2958C2.27632 19.8303 2.2754 20.6967 2.80718 21.2249C3.06574 21.4825 3.41048 21.6246 3.77814 21.6246C4.1458 21.6246 4.49055 21.4825 4.7491 21.2249L9.05377 16.9294C9.05377 16.9294 7.98838 15.8731 7.98655 15.8713L7.11186 14.9994L2.8081 19.2958ZM15.2344 2.36956C15.051 2.36956 14.8777 2.44107 14.7484 2.56943L12.8074 4.50493C12.6791 4.63421 12.6075 4.80566 12.6075 4.98812C12.6075 5.16966 12.6781 5.33928 12.8065 5.46672L18.5103 11.1513C18.6396 11.2806 18.812 11.3512 18.9962 11.3512C19.1805 11.3512 19.3529 11.2806 19.4822 11.1513L21.4223 9.21394C21.5534 9.08192 21.6231 8.91505 21.6231 8.73167C21.6221 8.55105 21.5515 8.38051 21.4232 8.25307L15.7194 2.56852C15.5901 2.44016 15.4177 2.36956 15.2344 2.36956Z" fill="black"/>
</svg>
