<svg width="24" height="24" fill="none" xmlns="http://www.w3.org/2000/svg"><path d="M8.614 11.236a.686.686 0 01-.486-.201l-.636-.633a4.8 4.8 0 01-1.637.287 4.85 4.85 0 01-1.615-.277 4.828 4.828 0 01-2.765-2.48A4.835 4.835 0 011.47 3.75a.689.689 0 011.105-.192L3.881 4.86c.137.141.31.215.5.217l.035.001c.213 0 .369-.11.462-.2a.696.696 0 00.211-.493.688.688 0 00-.197-.497l-1.32-1.316a.689.689 0 01.189-1.106 4.812 4.812 0 013.708-.198A4.82 4.82 0 0110.23 3.75a4.86 4.86 0 01.195 3.718l.564.562a.69.69 0 01-.485 1.175.685.685 0 01-.485-.2l-.89-.888a.69.69 0 01-.136-.782 3.462 3.462 0 00-.003-2.992 3.452 3.452 0 00-1.979-1.779 3.476 3.476 0 00-1.664-.162l.526.524c.39.4.599.923.592 1.476a2.063 2.063 0 01-.625 1.46c-.39.382-.906.592-1.451.592h-.023a2.07 2.07 0 01-1.462-.625l-.496-.495a3.466 3.466 0 00.307 2.003 3.454 3.454 0 001.982 1.777 3.44 3.44 0 002.658-.144.682.682 0 01.782.133l.96.957a.684.684 0 01.003.973.682.682 0 01-.487.203zm9.534 11.701a4.85 4.85 0 01-1.618-.279 4.855 4.855 0 01-2.957-6.199l-.98-.976a.689.689 0 01.973-.973l1.304 1.3a.69.69 0 01.135.782 3.46 3.46 0 00.004 2.99c.4.839 1.103 1.47 1.979 1.78a3.474 3.474 0 001.663.162l-.5-.499a2.091 2.091 0 01-.004-2.912c.393-.4.92-.62 1.481-.62.548 0 1.065.21 1.454.594l.505.503a3.46 3.46 0 00-.307-2 3.5 3.5 0 00-3.143-1.975 3.44 3.44 0 00-1.496.341.69.69 0 01-.781-.133l-1.305-1.3a.689.689 0 01.971-.974l.978.975a4.798 4.798 0 011.632-.284 4.881 4.881 0 014.384 2.757 4.828 4.828 0 01.006 4.177.685.685 0 01-1.105.193l-1.307-1.302a.69.69 0 00-.487-.197.692.692 0 00-.5.21.704.704 0 00-.001.98l1.299 1.295a.689.689 0 01-.19 1.108 4.797 4.797 0 01-2.087.476z" fill="#FFB65C"/><path d="M3.778 23a2.739 2.739 0 01-1.952-4.668l4.315-4.306c.26-.259.604-.401.971-.401s.711.142.97.4l.402.4 5.768-5.577-2.416-2.408a2.056 2.056 0 01-.008-2.902l1.948-1.942a2.05 2.05 0 011.457-.602c.55 0 1.068.213 1.456.6l5.703 5.684c.39.387.604.902.605 1.45a2.038 2.038 0 01-.598 1.453l-.029.028-1.919 1.916a2.049 2.049 0 01-1.457.601 2.048 2.048 0 01-1.456-.6L15.225 9.82l-5.767 5.577.567.565c.26.26.402.603.402.97a1.366 1.366 0 01-.432 1L5.719 22.2c-.517.516-1.206.8-1.94.8zm-.97-3.704a1.366 1.366 0 00.97 2.329c.368 0 .713-.142.971-.4l4.305-4.296-1.067-1.058L7.112 15l-4.304 4.297zM15.234 2.37a.687.687 0 00-.486.2l-1.94 1.935a.682.682 0 00-.001.962l5.703 5.684c.13.13.302.2.486.2.185 0 .357-.07.486-.2l1.94-1.937a.673.673 0 00.001-.96L15.72 2.568a.684.684 0 00-.486-.2z" fill="#1B314B"/></svg>