<svg width="24" height="24" viewBox="0 0 24 24" fill="none" xmlns="http://www.w3.org/2000/svg">
<path d="M22.9 11.6L13.5 2.2C13.1 1.7 12.5 1.5 11.9 1.5C11.3 1.5 10.7 1.8 10.3 2.2L0.900001 11.6C0.800001 11.7 0.700001 11.9 0.700001 12.1C0.700001 12.3 0.800001 12.5 0.900001 12.6C1 12.7 1.2 12.8 1.4 12.8C1.6 12.8 1.8 12.7 1.9 12.6L3.6 10.9V21C3.6 21.5 4 21.8 4.4 21.8H7.3V20.3H5.1V9.4L11.4 3.1C11.5 3 11.7 2.9 11.9 2.9C12 2.9 12.2 3 12.4 3.2C12.4 3.2 21.8 12.6 21.9 12.7C22 12.8 22.2 12.9 22.4 12.9C22.6 12.9 22.8 12.8 22.9 12.7C23.2 12.4 23.2 11.9 22.9 11.6Z" fill="black"/>
<path d="M14.9 11.8C15.5 11.8 16 11.3 16 10.7C16 10.1 15.5 9.60001 14.9 9.60001C14.3 9.60001 13.8 10.1 13.8 10.7C13.8 11.3 14.3 11.8 14.9 11.8Z" fill="#29D305"/>
<path d="M14.9 19.2C15.5 19.2 16 18.7 16 18.1C16 17.5 15.5 17 14.9 17C14.3 17 13.8 17.5 13.8 18.1C13.8 18.7 14.3 19.2 14.9 19.2Z" fill="#29D305"/>
<path d="M19.3 13.8H17.9V15.2H18.9C19.2 15.2 19.4 15.4 19.4 15.7V20.9C19.4 21.2 19.2 21.4 18.9 21.4H10.8C10.5 21.4 10.3 21.2 10.3 20.9V15.7C10.3 15.4 10.5 15.2 10.8 15.2H12V13.8H10.4C9.6 13.8 8.9 14.5 8.9 15.3V21.2C8.9 22 9.6 22.7 10.4 22.7H19.3C20.1 22.7 20.8 22 20.8 21.2V15.3C20.8 14.5 20.1 13.8 19.3 13.8Z" fill="black"/>
<path d="M14.9 15.5C15.5 15.5 16 15 16 14.4C16 13.8 15.5 13.3 14.9 13.3C14.3 13.3 13.8 13.8 13.8 14.4C13.8 15 14.3 15.5 14.9 15.5Z" fill="#29D305"/>
</svg>
