<svg width="24" height="24" viewBox="0 0 24 24" fill="none" xmlns="http://www.w3.org/2000/svg">
<path d="M23.7592 11.4693L13.699 1.49292C13.2709 0.962264 12.6288 0.75 11.9866 0.75C11.3445 0.75 10.7023 1.0684 10.2742 1.49292L0.214047 11.4693C0.107023 11.5755 0 11.7877 0 12C0 12.2123 0.107023 12.4245 0.214047 12.5307C0.32107 12.6368 0.535117 12.7429 0.749164 12.7429C0.963211 12.7429 1.17726 12.6368 1.28428 12.5307L3.10368 10.7264V21.4458C3.10368 21.9764 3.53177 22.2948 3.95987 22.2948H7.06355V20.7028H4.70903V9.13443L11.4515 2.44811C11.5585 2.34198 11.7726 2.23585 11.9866 2.23585C12.0936 2.23585 12.3077 2.34198 12.5217 2.55425C12.5217 2.55425 22.5819 12.5307 22.689 12.6368C22.796 12.7429 23.01 12.8491 23.2241 12.8491C23.4381 12.8491 23.6522 12.7429 23.7592 12.6368C24.0803 12.3184 24.0803 11.7877 23.7592 11.4693Z" fill="black"/>
<path d="M15.1973 11.6816C15.8395 11.6816 16.3746 11.1509 16.3746 10.5141C16.3746 9.87734 15.8395 9.34668 15.1973 9.34668C14.5552 9.34668 14.0201 9.87734 14.0201 10.5141C14.0201 11.1509 14.5552 11.6816 15.1973 11.6816Z" fill="#29D305"/>
<path d="M15.1973 19.5354C15.8395 19.5354 16.3746 19.0047 16.3746 18.368C16.3746 17.7312 15.8395 17.2005 15.1973 17.2005C14.5552 17.2005 14.0201 17.7312 14.0201 18.368C14.0201 19.0047 14.5552 19.5354 15.1973 19.5354Z" fill="#29D305"/>
<path d="M19.9063 13.8043H18.408V15.2901H19.4783C19.7993 15.2901 20.0134 15.5024 20.0134 15.8208V21.3396C20.0134 21.658 19.7993 21.8703 19.4783 21.8703H10.8094C10.4883 21.8703 10.2742 21.658 10.2742 21.3396V15.8208C10.2742 15.5024 10.4883 15.2901 10.8094 15.2901H12.0936V13.8043H10.3813C9.52507 13.8043 8.77591 14.5472 8.77591 15.3962V21.658C8.77591 22.5071 9.52507 23.25 10.3813 23.25H19.9063C20.7625 23.25 21.5117 22.5071 21.5117 21.658V15.3962C21.5117 14.5472 20.7625 13.8043 19.9063 13.8043Z" fill="black"/>
<path d="M15.1973 15.6084C15.8395 15.6084 16.3746 15.0777 16.3746 14.441C16.3746 13.8042 15.8395 13.2735 15.1973 13.2735C14.5552 13.2735 14.0201 13.8042 14.0201 14.441C14.0201 15.0777 14.5552 15.6084 15.1973 15.6084Z" fill="#29D305"/>
</svg>
