<svg width="24" height="24" viewBox="0 0 24 24" fill="none" xmlns="http://www.w3.org/2000/svg">
<path d="M23.7592 11.8094L13.699 1.74916C13.2709 1.21405 12.6288 1 11.9866 1C11.3445 1 10.7023 1.32107 10.2742 1.74916L0.214047 11.8094C0.107023 11.9164 0 12.1304 0 12.3445C0 12.5585 0.107023 12.7726 0.214047 12.8796C0.32107 12.9866 0.535117 13.0936 0.749164 13.0936C0.963211 13.0936 1.17726 12.9866 1.28428 12.8796L3.10368 11.0602V21.8696C3.10368 22.4047 3.53177 22.7258 3.95987 22.7258H7.06355V21.1204H4.70903V9.45485L11.4515 2.71237C11.5585 2.60535 11.7726 2.49833 11.9866 2.49833C12.0936 2.49833 12.3077 2.60535 12.5217 2.8194C12.5217 2.8194 22.5819 12.8796 22.689 12.9866C22.796 13.0936 23.01 13.2007 23.2241 13.2007C23.4381 13.2007 23.6522 13.0936 23.7592 12.9866C24.0803 12.6656 24.0803 12.1304 23.7592 11.8094Z" fill="black"/>
<path d="M15.1973 12.0234C15.8394 12.0234 16.3746 11.4883 16.3746 10.8462C16.3746 10.204 15.8394 9.66891 15.1973 9.66891C14.5552 9.66891 14.0201 10.204 14.0201 10.8462C14.0201 11.4883 14.5552 12.0234 15.1973 12.0234Z" fill="black"/>
<path d="M15.1973 19.9431C15.8394 19.9431 16.3746 19.408 16.3746 18.7659C16.3746 18.1237 15.8394 17.5886 15.1973 17.5886C14.5552 17.5886 14.0201 18.1237 14.0201 18.7659C14.0201 19.408 14.5552 19.9431 15.1973 19.9431Z" fill="black"/>
<path d="M19.9064 14.1639H18.408V15.6622H19.4783C19.7994 15.6622 20.0134 15.8763 20.0134 16.1974V21.7626C20.0134 22.0836 19.7994 22.2977 19.4783 22.2977H10.8094C10.4883 22.2977 10.2743 22.0836 10.2743 21.7626V16.1974C10.2743 15.8763 10.4883 15.6622 10.8094 15.6622H12.0937V14.1639H10.3813C9.5251 14.1639 8.77594 14.9131 8.77594 15.7693V22.0836C8.77594 22.9398 9.5251 23.689 10.3813 23.689H19.9064C20.7626 23.689 21.5117 22.9398 21.5117 22.0836V15.7693C21.5117 14.9131 20.7626 14.1639 19.9064 14.1639Z" fill="black"/>
<path d="M15.1973 15.9833C15.8394 15.9833 16.3746 15.4482 16.3746 14.806C16.3746 14.1639 15.8394 13.6288 15.1973 13.6288C14.5552 13.6288 14.0201 14.1639 14.0201 14.806C14.0201 15.4482 14.5552 15.9833 15.1973 15.9833Z" fill="black"/>
</svg>
