<svg width="24" height="24" viewBox="0 0 24 24" fill="none" xmlns="http://www.w3.org/2000/svg">
<path d="M23.7592 11.4339L13.699 0.792452C13.2709 0.226415 12.6288 0 11.9866 0C11.3445 0 10.7023 0.339622 10.2742 0.792452L0.214047 11.4339C0.107023 11.5472 0 11.7736 0 12C0 12.2264 0.107023 12.4528 0.214047 12.566C0.32107 12.6792 0.535117 12.7924 0.749164 12.7924C0.963211 12.7924 1.17726 12.6792 1.28428 12.566L3.10368 10.6415V22.0754C3.10368 22.6415 3.53177 22.9811 3.95987 22.9811H7.06355V21.283H4.70903V8.94338L11.4515 1.81132C11.5585 1.69811 11.7726 1.5849 11.9866 1.5849C12.0936 1.5849 12.3077 1.69811 12.5217 1.92453C12.5217 1.92453 22.5819 12.566 22.689 12.6792C22.796 12.7924 23.01 12.9056 23.2241 12.9056C23.4381 12.9056 23.6522 12.7924 23.7592 12.6792C24.0803 12.3396 24.0803 11.7736 23.7592 11.4339Z" fill="black"/>
<path d="M15.1973 11.6604C15.8394 11.6604 16.3746 11.0943 16.3746 10.4151C16.3746 9.73584 15.8394 9.1698 15.1973 9.1698C14.5552 9.1698 14.0201 9.73584 14.0201 10.4151C14.0201 11.0943 14.5552 11.6604 15.1973 11.6604Z" fill="black"/>
<path d="M15.1973 20.0377C15.8394 20.0377 16.3746 19.4716 16.3746 18.7924C16.3746 18.1131 15.8394 17.5471 15.1973 17.5471C14.5552 17.5471 14.0201 18.1131 14.0201 18.7924C14.0201 19.4716 14.5552 20.0377 15.1973 20.0377Z" fill="black"/>
<path d="M19.9064 13.9245H18.4081V15.5094H19.4783C19.7994 15.5094 20.0134 15.7359 20.0134 16.0755V21.9623C20.0134 22.3019 19.7994 22.5283 19.4783 22.5283H10.8094C10.4883 22.5283 10.2743 22.3019 10.2743 21.9623V16.0755C10.2743 15.7359 10.4883 15.5094 10.8094 15.5094H12.0937V13.9245H10.3813C9.52511 13.9245 8.77594 14.717 8.77594 15.6227V22.3019C8.77594 23.2075 9.52511 24 10.3813 24H19.9064C20.7626 24 21.5117 23.2075 21.5117 22.3019V15.6227C21.5117 14.717 20.7626 13.9245 19.9064 13.9245Z" fill="black"/>
<path d="M15.1973 15.849C15.8394 15.849 16.3746 15.283 16.3746 14.6038C16.3746 13.9245 15.8394 13.3585 15.1973 13.3585C14.5552 13.3585 14.0201 13.9245 14.0201 14.6038C14.0201 15.283 14.5552 15.849 15.1973 15.849Z" fill="black"/>
</svg>
