<svg width="24" height="24" fill="none" xmlns="http://www.w3.org/2000/svg"><path d="M15.909 12.817A2.912 2.912 0 0113 9.91 2.912 2.912 0 0115.909 7a2.912 2.912 0 012.908 2.909 2.912 2.912 0 01-2.908 2.908z" fill="#5A7E2C"/><path fill-rule="evenodd" clip-rule="evenodd" d="M14.568 9.741a.182.182 0 01.257 0l.729.728 1.585-1.584a.182.182 0 01.257.257l-1.714 1.712a.182.182 0 01-.257 0l-.857-.856a.182.182 0 010-.257z" fill="#fff"/><path fill-rule="evenodd" clip-rule="evenodd" d="M10.264 23.604a2.395 2.395 0 01-2.392-2.393v-3.745a3.63 3.63 0 01-.588.303.48.48 0 01-.36-.89 2.686 2.686 0 001.678-2.49.48.48 0 01.476-.48.512.512 0 01.179-.032h2.968a1.466 1.466 0 000-2.933H6.784a.512.512 0 110-1.024h1.088V5.755a.517.517 0 01-.063.004h-.402a5.423 5.423 0 00-5.423 5.423v5.486c0 .666.146 1.105.398 1.453.264.361.679.674 1.313 1.02.165.09.267.262.267.45v1.978a.512.512 0 11-1.024 0v-1.68c-.562-.33-1.04-.693-1.383-1.166-.408-.56-.595-1.224-.595-2.055v-5.486a6.447 6.447 0 016.447-6.447h.402c.021 0 .042 0 .063.003V3.032A2.394 2.394 0 0110.264.64h10.525a2.395 2.395 0 012.392 2.392v18.18a2.395 2.395 0 01-2.392 2.392H10.264zm-1.435-4.785v-2.236a3.659 3.659 0 00.697-1.682h2.699a2.49 2.49 0 000-4.981H8.829V3.032c0-.791.644-1.435 1.435-1.435h10.525c.791 0 1.435.644 1.435 1.435v15.787H8.83zm0 2.392c0 .792.644 1.436 1.435 1.436h10.525c.791 0 1.435-.644 1.435-1.436v-1.435H8.83v1.435z" fill="#1B314B"/></svg>