<svg width="24" height="24" fill="none" xmlns="http://www.w3.org/2000/svg"><path d="M8.614 11.236a.685.685 0 01-.486-.201l-.636-.633a4.8 4.8 0 01-1.637.287 4.852 4.852 0 01-1.615-.277 4.828 4.828 0 01-2.765-2.48A4.835 4.835 0 011.47 3.75a.689.689 0 011.105-.192l1.307 1.303c.137.141.31.215.5.217l.035.001a.661.661 0 00.462-.2.696.696 0 00.211-.493.688.688 0 00-.197-.497l-1.32-1.316a.689.689 0 01.189-1.106 4.812 4.812 0 013.708-.198 4.82 4.82 0 012.76 2.481 4.86 4.86 0 01.195 3.717l.564.562a.69.69 0 01-.485 1.175.685.685 0 01-.485-.2l-.89-.887a.69.69 0 01-.136-.783 3.462 3.462 0 00-.003-2.992 3.452 3.452 0 00-1.979-1.779 3.476 3.476 0 00-1.664-.162l.526.524c.39.4.599.923.592 1.476a2.063 2.063 0 01-.625 1.461c-.39.381-.906.591-1.451.591h-.023a2.07 2.07 0 01-1.462-.625l-.496-.495a3.466 3.466 0 00.307 2.003 3.454 3.454 0 001.982 1.777 3.44 3.44 0 002.658-.144.682.682 0 01.782.133l.96.957a.684.684 0 01.003.973.682.682 0 01-.487.203zm9.534 11.701a4.852 4.852 0 01-1.618-.279 4.856 4.856 0 01-2.957-6.199l-.98-.975a.689.689 0 01.973-.974l1.303 1.3a.69.69 0 01.136.782 3.46 3.46 0 00.004 2.99c.4.839 1.103 1.47 1.978 1.78a3.477 3.477 0 001.664.162l-.501-.499a2.091 2.091 0 01-.003-2.912c.393-.4.919-.62 1.481-.62.548 0 1.064.21 1.454.594l.505.503a3.46 3.46 0 00-.307-2 3.5 3.5 0 00-3.143-1.975c-.52 0-1.023.115-1.496.341a.689.689 0 01-.781-.133l-1.305-1.3a.689.689 0 01.97-.974l.98.975a4.801 4.801 0 011.631-.284 4.881 4.881 0 014.384 2.757 4.828 4.828 0 01.006 4.177.685.685 0 01-1.105.193l-1.307-1.302a.69.69 0 00-.487-.197.692.692 0 00-.5.21.704.704 0 00-.002.98l1.3 1.295a.69.69 0 01-.19 1.108 4.797 4.797 0 01-2.087.476z" fill="#1B314B"/><path d="M3.778 23a2.739 2.739 0 01-1.952-4.668l4.315-4.306c.26-.259.604-.4.97-.4.368 0 .712.141.972.4l.401.4 5.767-5.578-2.415-2.407a2.055 2.055 0 01-.008-2.903l1.948-1.942a2.049 2.049 0 011.457-.602c.55 0 1.068.213 1.456.6l5.703 5.685c.389.386.604.9.605 1.45a2.038 2.038 0 01-.598 1.452l-.029.028-1.919 1.916a2.049 2.049 0 01-1.457.602 2.048 2.048 0 01-1.456-.601L15.225 9.82l-5.767 5.577.567.565c.26.26.402.604.402.97a1.366 1.366 0 01-.433 1l-4.274 4.27a2.73 2.73 0 01-1.94.799zm-.97-3.704a1.366 1.366 0 00.97 2.329c.368 0 .713-.142.971-.4l4.305-4.296-1.067-1.058L7.112 15l-4.304 4.297zM15.234 2.37a.687.687 0 00-.486.2l-1.94 1.935a.682.682 0 00-.002.962l5.704 5.684c.13.13.302.2.486.2s.357-.07.486-.2l1.94-1.937a.673.673 0 00.001-.96L15.72 2.568a.684.684 0 00-.485-.2z" fill="#1B314B"/></svg>