<svg width="24" height="25" fill="none" xmlns="http://www.w3.org/2000/svg"><path d="M10.5 23.275a.75.75 0 010-1.5h3a.75.75 0 010 1.5h-3zm0-3.002a.75.75 0 01-.75-.75v-1.159a6.715 6.715 0 01-4.5-6.396C5.263 8.255 8.291 5.235 12 5.235a6.714 6.714 0 014.79 1.996 6.72 6.72 0 011.96 4.786 6.704 6.704 0 01-4.5 6.348v1.157a.75.75 0 01-.75.751h-3zm2.25-1.501v-.963a.75.75 0 01.564-.728 5.24 5.24 0 003.936-5.07 5.226 5.226 0 00-1.524-3.722 5.212 5.212 0 00-3.707-1.553l-.021-.376v.376c-2.883 0-5.237 2.35-5.247 5.237a5.25 5.25 0 003.937 5.108.75.75 0 01.562.727v.963h1.5zM12 3.753a.75.75 0 01-.75-.75V1.5a.75.75 0 111.5 0v1.502a.75.75 0 01-.75.75zm9 7.508a.75.75 0 010-1.5h1.5a.75.75 0 010 1.5H21zM1.5 12.763a.75.75 0 010-1.5H3a.75.75 0 010 1.5H1.5zm17.925 6.684a.742.742 0 01-.53-.22l-1.061-1.062a.753.753 0 01.53-1.283c.2 0 .389.078.53.22l1.061 1.063a.753.753 0 01-.53 1.282zM5.636 5.643a.742.742 0 01-.53-.22L4.045 4.36a.744.744 0 01-.22-.53c0-.2.078-.39.22-.531a.742.742 0 01.53-.22c.2 0 .389.078.53.22l1.06 1.062a.744.744 0 010 1.061.742.742 0 01-.529.22zm12.728 0a.742.742 0 01-.53-.22.744.744 0 01-.22-.531c0-.2.078-.39.22-.531l1.061-1.062a.744.744 0 011.06 0c.142.141.22.33.22.53s-.078.39-.22.531l-1.061 1.062a.742.742 0 01-.53.22zM4.575 19.447a.753.753 0 01-.53-1.282l1.061-1.062a.744.744 0 011.06 0 .753.753 0 010 1.062l-1.061 1.062a.742.742 0 01-.53.22z" fill="#1B314B"/></svg>