<svg width="19" height="25" fill="none" xmlns="http://www.w3.org/2000/svg"><path fill-rule="evenodd" clip-rule="evenodd" d="M6.5 21.1c1.7 0 3-1.3 3-3s-1.3-3-3-3-3 1.3-3 3 1.4 3 3 3zm0-4.5c.8 0 1.5.7 1.5 1.5s-.7 1.5-1.5 1.5S5 18.9 5 18.1s.7-1.5 1.5-1.5z" fill="#1B314B"/><path d="M14.4 16.2c0 .6-.5 1.1-1.1 1.1-.6 0-1.1-.5-1.1-1.1 0-.6.5-1.1 1.1-1.1.6 0 1.1.5 1.1 1.1zm-1.1 4.9a1.1 1.1 0 100-2.2 1.1 1.1 0 000 2.2zM7.4 5.9h3v4.9h-3v-.9h2.1V8.7H7.4v-.9h2.1v-1H7.4v-.9zM6 9.9H3.9V8.7H6V5.9H3v.9h2.1v1H3v3h3v-.9zm6.7-2.1h1.9v3h-2.8v-.9h1.9V8.7h-1.9V5.9h2.8v.9h-1.9v1z" fill="#1B314B"/><path fill-rule="evenodd" clip-rule="evenodd" d="M16.2 0H1.8C.8 0 0 .8 0 1.8v20.5c0 1 .8 1.8 1.8 1.8h14.5c1 0 1.8-.8 1.8-1.8V1.8C18 .8 17.2 0 16.2 0zm.3 22.2c0 .1-.1.2-.2.2H1.8c-.1 0-.2-.1-.2-.2v-8.8h15v8.8h-.1zm0-10.2h-15V4.5h15V12zm-.1-9H1.5V1.8c0-.1.1-.2.2-.2h14.5c.1 0 .2.1.2.2V3z" fill="#1B314B"/></svg>