<svg width="25" height="25" fill="none" xmlns="http://www.w3.org/2000/svg"><path d="M2.783 22.061a.746.746 0 01-.75-.766.746.746 0 01.231-.526l18.75-18.02a.744.744 0 011.06.021.75.75 0 01-.021 1.062l-18.75 18.02a.752.752 0 01-.52.21zm9.205-1.501h-.11c-1.048 0-2.103-.163-3.137-.483a.752.752 0 01.223-1.468.73.73 0 01.222.034c.888.277 1.8.417 2.709.417h.249c3.853 0 7.756-2.788 10.125-5.398a.912.912 0 00-.002-1.222 19.788 19.788 0 00-2.959-2.656.745.745 0 01-.299-.49.752.752 0 011.183-.723 21.358 21.358 0 013.187 2.861c.832.924.832 2.315.003 3.237-2.586 2.849-6.895 5.892-11.237 5.892l-.157-.002zm-8.21-3.243a.751.751 0 01-.46-.159A21.631 21.631 0 01.625 14.67a2.414 2.414 0 01-.003-3.238c2.586-2.848 6.896-5.89 11.236-5.89h.237c.846 0 1.687.102 2.5.306.401.1.646.507.547.91a.75.75 0 01-.91.547 8.798 8.798 0 00-2.129-.26h-.229c-3.863 0-7.771 2.788-10.14 5.397a.912.912 0 00.002 1.222 20.152 20.152 0 002.503 2.312.747.747 0 01.132 1.053.752.752 0 01-.593.288z" fill="#1B314B"/><path d="M8.25 13.802a.751.751 0 01-.75-.751 4.48 4.48 0 011.318-3.184 4.462 4.462 0 013.179-1.321c.207 0 .374.167.375.374l.002.751c0 .1-.039.195-.109.266a.37.37 0 01-.265.11c-.801 0-1.554.314-2.121.881A2.984 2.984 0 009 13.051a.749.749 0 01-.75.75zm3.751 3.754a.375.375 0 01-.375-.375l-.001-.751a.373.373 0 01.375-.376c.802 0 1.555-.312 2.122-.88A2.99 2.99 0 0015 13.05a.75.75 0 111.5 0 4.477 4.477 0 01-1.317 3.185 4.469 4.469 0 01-3.182 1.321z" fill="#1B314B"/></svg>