<svg width="24" height="24" fill="none" xmlns="http://www.w3.org/2000/svg"><path d="M12 11.25A3.754 3.754 0 018.25 7.5 3.754 3.754 0 0112 3.75a3.754 3.754 0 013.75 3.75A3.754 3.754 0 0112 11.25zm0-6A2.252 2.252 0 009.75 7.5 2.252 2.252 0 0012 9.75a2.252 2.252 0 002.25-2.25A2.252 2.252 0 0012 5.25z" fill="#FFB65C"/><path d="M11.998 20.741a1.118 1.118 0 01-.908-.462C5.142 12.087 4.5 8.613 4.5 7.5 4.5 3.365 7.865 0 12 0s7.5 3.365 7.5 7.5c0 3.435-5.043 10.648-6.589 12.777a1.118 1.118 0 01-.913.464zM12 1.5c-3.308 0-6 2.692-6 6 0 2.291 3.164 7.514 6 11.475 2.835-3.961 6-9.184 6-11.475 0-3.308-2.692-6-6-6z" fill="#1B314B"/><path d="M12 24c-2.756 0-5.495-.32-7.514-.879C2.042 22.445.75 21.452.75 20.25c0-1.803 2.775-2.734 5.103-3.198a.75.75 0 01.293 1.471c-2.915.581-3.896 1.429-3.896 1.727 0 .176.465.81 2.531 1.4 1.918.548 4.481.85 7.219.85 2.738 0 5.301-.302 7.219-.85 2.066-.59 2.531-1.224 2.531-1.4 0-.299-.986-1.15-3.917-1.73a.745.745 0 01-.478-.319.752.752 0 01.769-1.152c2.338.463 5.125 1.394 5.125 3.202 0 1.202-1.292 2.195-3.736 2.871C17.495 23.68 14.756 24 12 24z" fill="#1B314B"/></svg>