<svg width="24" height="24" fill="none" xmlns="http://www.w3.org/2000/svg"><path fill-rule="evenodd" clip-rule="evenodd" d="M0 14.25a2.252 2.252 0 002.25 2.25h7.5a.75.75 0 000-1.5h-7.5a.75.75 0 01-.75-.75V2.562l7.276 5.596a4.07 4.07 0 002.473.841c.891 0 1.77-.299 2.474-.841l7.276-5.596V10.5a.75.75 0 001.5 0V2.25c0-.502-.163-.977-.472-1.375a.327.327 0 00-.048-.063A2.242 2.242 0 0020.25 0h-18A2.242 2.242 0 00.476.87 2.22 2.22 0 000 2.25v12zm11.251-6.751c-.57 0-1.11-.183-1.56-.53L2.579 1.5h17.342l-7.11 5.469c-.444.342-.998.53-1.56.53z" fill="#1B314B"/><path d="M16.5 18a.75.75 0 001.5 0v-3a.75.75 0 00-1.5 0v3zm-.375 2.625c0 .62.505 1.125 1.125 1.125s1.125-.505 1.125-1.125c0-.601-.472-1.094-1.054-1.12a1.582 1.582 0 00-.071-.005c-.62 0-1.125.505-1.125 1.125z" fill="#1B314B"/><path fill-rule="evenodd" clip-rule="evenodd" d="M13.024 24a2.528 2.528 0 01-2.258-3.654l4.226-8.451a2.513 2.513 0 012.262-1.396c.393 0 .771.089 1.124.266.486.243.887.644 1.13 1.13l4.226 8.451A2.526 2.526 0 0121.476 24h-8.452zm4.229-12c-.392 0-.744.217-.918.567l-4.226 8.451a1.025 1.025 0 00.915 1.483h8.452a1.026 1.026 0 00.917-1.483l-4.226-8.451a1.037 1.037 0 00-.458-.459 1.013 1.013 0 00-.456-.108z" fill="#1B314B"/></svg>