<svg width="50" height="60" fill="none" xmlns="http://www.w3.org/2000/svg"><path d="M.497 6.03L4.79 1.64a.654.654 0 01.467-.198h28.3c.178 0 .349.073.472.202l4.193 4.386v36.76a.654.654 0 01-.654.655H1.151a.654.654 0 01-.654-.654V6.03z" fill="#F6F8FA"/><path fill-rule="evenodd" clip-rule="evenodd" d="M5.256 1.933a.164.164 0 00-.116.05L1.663 5.54h35.41l-3.4-3.557a.164.164 0 00-.118-.05H5.256zM37.731 6.52H.988v36.27c0 .09.073.163.163.163h36.416c.09 0 .164-.073.164-.163V6.52zM4.438 1.296c.215-.22.51-.344.818-.344h28.3c.312 0 .61.128.827.353l4.193 4.386a.49.49 0 01.136.34v36.76c0 .632.212 1.33-1.145 1.144H1.151c-1.308.022-1.144-.512-1.144-1.144V6.03a.49.49 0 01.14-.344l4.29-4.39z" fill="#005B94"/><path d="M5.942 11.908H33.36v8.167H5.942v-8.167z" fill="#005B94"/><path fill-rule="evenodd" clip-rule="evenodd" d="M4.634 11.908c0-.723.586-1.309 1.308-1.309H33.36c.723 0 1.309.586 1.309 1.309v8.167c0 .722-.586 1.308-1.309 1.308H5.942a1.308 1.308 0 01-1.308-1.308v-8.167zm1.308 0v8.167H33.36v-8.167H5.942z" fill="#005B94"/><circle cx="6.719" cy="26.333" r="1.945" fill="#005B94"/><rect x="4.97" y="32.361" width="29.363" height="1.75" rx=".875" fill="#005B94"/><rect x="4.97" y="37.028" width="17.112" height="1.75" rx=".875" fill="#005B94"/><path d="M18.192 13.543h-2.917v.816h2.042v.908h-2.042v.816h2.042v1.089h-2.042v.816h2.917v-4.445zm11.862 0h-2.917v.816h2.042v.908h-2.042v.816h2.042v1.089h-2.042v.816h2.917v-4.445zM12.36 17.172h-2.043v-1.089h2.042v-2.54H9.442v.816h2.042v.908H9.442v2.721h2.917v-.816zm11.666-1.905H22.18v-.908h1.847v-.816h-2.722v2.54h1.847v1.089h-1.847v.816h2.722v-2.721z" fill="#fff"/><path d="M1.386 59.001L.497 43.445h37.724L37.332 59H1.386z" fill="#DDE2E9"/><path fill-rule="evenodd" clip-rule="evenodd" d="M.14 43.108a.49.49 0 01.357-.154h37.724a.49.49 0 01.49.519l-.889 15.556a.49.49 0 01-.49.463H1.387a.49.49 0 01-.49-.463l-.89-15.556a.49.49 0 01.134-.365zm.877.827l.832 14.576h35.02l.833-14.576H1.017z" fill="#005B94"/><circle cx="33.138" cy="50.89" r="1.167" fill="#005B94"/><path fill-rule="evenodd" clip-rule="evenodd" d="M33.193 53.325a2.38 2.38 0 100-4.76 2.38 2.38 0 000 4.76zm0 .982a3.361 3.361 0 100-6.723 3.361 3.361 0 000 6.723zm11.804.19l-3.122-3.122a.49.49 0 010-.694l3.122-3.121a.49.49 0 11.694.693l-2.285 2.285H50v.98h-6.594l2.285 2.285a.49.49 0 01-.694.694z" fill="#FFB65C"/><circle cx="6.72" cy="26.332" r=".778" fill="#F6F8FA"/></svg>