<svg width="24" height="25" fill="none" xmlns="http://www.w3.org/2000/svg"><path d="M12 24.166c-6.617 0-12-5.39-12-12.014S5.383.138 12 .138s12 5.39 12 12.014c0 6.625-5.383 12.014-12 12.014zM12 1.64c-5.79 0-10.5 4.716-10.5 10.512 0 5.797 4.71 10.512 10.5 10.512s10.5-4.715 10.5-10.512C22.5 6.356 17.79 1.64 12 1.64z" fill="#FFB65C"/><path d="M16.5 17.408a.742.742 0 01-.53-.22L12 13.214 8.03 17.19a.744.744 0 01-1.06 0 .753.753 0 010-1.062l3.97-3.975-3.97-3.974a.744.744 0 01-.22-.531c0-.2.078-.39.22-.53a.742.742 0 01.53-.22c.2 0 .389.077.53.22L12 11.09l3.97-3.975a.744.744 0 011.06 0c.142.142.22.33.22.531 0 .2-.078.39-.22.53l-3.97 3.975 3.97 3.975a.753.753 0 010 1.062.745.745 0 01-.53.22z" fill="#1B314B"/></svg>