<svg width="25" height="24" fill="none" xmlns="http://www.w3.org/2000/svg"><path fill-rule="evenodd" clip-rule="evenodd" d="M3.176 11.549c.478 0 .866.388.866.866v7.218h4.124v-5.049c0-1.259 1.062-2.345 2.33-2.345h1.464c1.267 0 2.33 1.086 2.33 2.345v5.05h.844a.866.866 0 110 1.732h-1.71a.866.866 0 01-.867-.867v-5.915c0-.319-.303-.613-.597-.613h-1.464c-.295 0-.598.294-.598.613V20.5a.866.866 0 01-.866.867H3.176a.866.866 0 01-.866-.867v-8.084c0-.478.388-.866.866-.866z" fill="#1B314B"/><path fill-rule="evenodd" clip-rule="evenodd" d="M11.298 1.915l-.002.002-9.813 9.951a.866.866 0 11-1.234-1.216L10.066.697l.003-.003a2.27 2.27 0 013.268 0l7.776 7.808a.866.866 0 01-1.227 1.222L12.11 1.917c-.244-.246-.568-.246-.812-.002z" fill="#1B314B"/><path fill-rule="evenodd" clip-rule="evenodd" d="M15.014 2.677c0-.479.387-.867.866-.867h3.464c.479 0 .866.388.866.867v4.62a.866.866 0 11-1.732 0V3.542h-1.732v.466a.866.866 0 01-1.732 0V2.677z" fill="#1B314B"/><path d="M17.949 23.571a.596.596 0 01-.23-.046.632.632 0 01-.378-.66l.526-4.322h-1.755a.608.608 0 01-.507-.276.64.64 0 01-.06-.586l2.448-6.285A.608.608 0 0118.56 11h3.673c.214 0 .408.111.52.298a.641.641 0 01.028.612l-1.394 2.861h2.07c.234 0 .444.134.548.348a.637.637 0 01-.058.658l-5.51 7.543a.61.61 0 01-.49.251zm.612-6.285c.175 0 .343.077.459.213a.64.64 0 01.148.494l-.326 2.68 3.392-4.644h-1.837a.605.605 0 01-.52-.299.641.641 0 01-.027-.612l1.394-2.86h-2.268l-1.96 5.028h1.545z" fill="#1B314B"/></svg>