<svg width="24" height="25" fill="none" xmlns="http://www.w3.org/2000/svg"><path d="M4.983 24.026A3.488 3.488 0 011.5 20.542V4.987A3.488 3.488 0 014.983 1.5H6.75a.75.75 0 010 1.502H4.983A1.987 1.987 0 003 4.987v13.032h10.5v-2.253a.75.75 0 111.5 0v4.774a3.488 3.488 0 01-3.482 3.486H4.983zM3 20.54c0 1.094.89 1.984 1.982 1.984h6.535c1.093 0 1.983-.89 1.983-1.984v-1.02H3v1.02z" fill="#1B314B"/><path d="M13.875 5.256a1.125 1.125 0 01-.059-2.249l.059-.004a1.127 1.127 0 010 2.253z" fill="#FFB65C"/><path d="M11.25 13.515A2.254 2.254 0 019 11.264v-9.01A2.253 2.253 0 0111.25 0h9c1.241 0 2.25 1.01 2.25 2.253v9.01a2.253 2.253 0 01-2.25 2.252h-9zm9-1.501a.75.75 0 00.75-.751v-.524l-2.265-3.4-2.001 2.854a.753.753 0 01-.613.32.751.751 0 01-.469-.165l-1.236-.99h-.002l-1.764 2.656h7.6zm-9-10.512a.75.75 0 00-.75.75v9.01c0 .287.161.54.406.666l2.261-3.402a1.49 1.49 0 011.251-.67 1.5 1.5 0 01.934.328l.613.491 1.542-2.199a1.497 1.497 0 011.524-.61c.393.079.731.306.953.64L21 8.031v-5.78a.75.75 0 00-.75-.75h-9z" fill="#1B314B"/></svg>