<svg width="24" height="24" fill="none" xmlns="http://www.w3.org/2000/svg"><g clip-path="url(#clip0)"><path d="M17.25 24a.753.753 0 01-.75-.75V18h-1.876a1.134 1.134 0 01-.722-.263 1.12 1.12 0 01-.398-.766 1.12 1.12 0 01.26-.822l5.916-6.888a.748.748 0 01.83-.215c.293.109.49.392.49.704V15h1.874a1.128 1.128 0 01.861 1.85l-5.917 6.888a.747.747 0 01-.569.262zm0-7.5a.75.75 0 01.75.75v3.976l4.06-4.727-1.81.001a.75.75 0 01-.75-.75v-3.976l-4.06 4.727 1.81-.001z" fill="#FFB65C"/><path d="M12.746 22.5c-3.935 0-7.506-2.17-9.318-5.664a.746.746 0 01.666-1.095c.281 0 .536.155.666.405A8.966 8.966 0 0012.746 21a9.725 9.725 0 00.754-.028.752.752 0 01.567 1.24.743.743 0 01-.513.258c-.273.02-.543.03-.804.03h-.004zm8.221-14.999a.75.75 0 01-.633-.346 9.004 9.004 0 00-6.2-4.049.752.752 0 01-.626-.856.748.748 0 01.855-.626 10.505 10.505 0 017.235 4.724.751.751 0 01-.63 1.153zM6.749 9.75c-1.654 0-3-1.346-3-3s1.346-3 3-3 3 1.346 3 3-1.346 3-3 3zm0-4.5c-.827 0-1.5.673-1.5 1.5s.673 1.5 1.5 1.5 1.5-.673 1.5-1.5-.673-1.5-1.5-1.5zm0-2.25a.75.75 0 01-.75-.75V.75a.75.75 0 011.5 0v1.5a.75.75 0 01-.75.75zm4.5 4.5a.75.75 0 010-1.5h1.5a.75.75 0 010 1.5h-1.5zm-4.5 6a.75.75 0 01-.75-.75v-1.5a.75.75 0 011.5 0v1.5a.75.75 0 01-.75.75zm-6-6a.75.75 0 010-1.5h1.5a.75.75 0 010 1.5h-1.5zm2.818-3.182a.743.743 0 01-.53-.22l-1.061-1.06a.744.744 0 010-1.06.743.743 0 01.53-.22c.2 0 .389.077.53.22l1.06 1.06a.744.744 0 010 1.06.744.744 0 01-.53.22zm6.364 0a.743.743 0 01-.53-.22.743.743 0 01-.22-.53c0-.2.078-.389.22-.53l1.061-1.06a.744.744 0 011.06 0 .744.744 0 010 1.06l-1.06 1.06a.744.744 0 01-.53.22zm1.061 7.425a.743.743 0 01-.53-.22L9.4 10.462a.743.743 0 01-.22-.53c0-.2.078-.39.22-.53a.743.743 0 01.53-.22c.2 0 .39.078.53.22l1.061 1.06a.744.744 0 010 1.06.74.74 0 01-.529.22zm-8.486 0a.743.743 0 01-.53-.22.743.743 0 01-.22-.53c0-.2.078-.39.22-.53l1.06-1.061a.743.743 0 01.53-.22c.2 0 .39.078.53.22.143.14.22.33.22.53s-.077.389-.22.53l-1.06 1.06a.743.743 0 01-.53.22z" fill="#1B314B"/></g><defs><clipPath id="clip0"><path fill="#fff" d="M0 0h24v24H0z"/></clipPath></defs></svg>