<svg width="24" height="24" fill="none" xmlns="http://www.w3.org/2000/svg"><g clip-path="url(#clip0)"><path fill-rule="evenodd" clip-rule="evenodd" d="M15.79 3.24a.743.743 0 01.65-.85l4.402-.567a1 1 0 011.116.839l.665 4.285a.743.743 0 01-.65.849.79.79 0 01-.884-.651l-.581-3.75-3.835.495a.79.79 0 01-.883-.65z" fill="#1B314B"/><path fill-rule="evenodd" clip-rule="evenodd" d="M20.403 3.324a.75.75 0 01.182 1.058L17.242 8.89a.783.783 0 01-1.082.156.75.75 0 01-.182-1.058l3.344-4.509a.783.783 0 011.081-.156z" fill="#1B314B"/><path d="M1.485 23.787A1.606 1.606 0 01.02 21.53l1.466-3.21v-6.838c0-.885.72-1.604 1.605-1.604h10.7c.885 0 1.605.72 1.605 1.604v6.839l1.467 3.21a1.607 1.607 0 01-1.467 2.257H1.485v-.001zM.994 21.97a.536.536 0 00.491.748h13.91a.536.536 0 00.49-.752l-1.369-2.994H2.364L.994 21.97zm13.33-4.068v-6.42a.535.535 0 00-.534-.534H3.09a.535.535 0 00-.535.534v6.42h11.77z" fill="#1B314B"/><path d="M7.37 21.647a.535.535 0 010-1.07h2.14a.535.535 0 010 1.07H7.37zm-.192-8.107c-.212 0-.383-.221-.383-.494 0-.272.171-.494.383-.494h5.489c.211 0 .383.222.383.494 0 .273-.172.494-.383.494h-5.49z" fill="#1B314B"/><path d="M4.307 13.54a.485.485 0 01-.475-.494c0-.272.213-.494.475-.494h1.354c.262 0 .475.222.475.494a.485.485 0 01-.475.494H4.307z" fill="#FFB65C"/><path d="M4.25 15.845c-.23 0-.418-.222-.418-.494 0-.273.188-.494.419-.494h8.38c.231 0 .419.221.419.494 0 .272-.188.494-.42.494H4.25z" fill="#1B314B"/></g><defs><clipPath id="clip0"><path fill="#fff" d="M0 0h24v24H0z"/></clipPath></defs></svg>