<svg width="25" height="25" fill="none" xmlns="http://www.w3.org/2000/svg"><path d="M5.253 21.522a5.21 5.21 0 01-3.712-1.537 5.222 5.222 0 01-1.535-3.716c0-1.406.545-2.725 1.535-3.717l4.773-4.78a5.212 5.212 0 013.716-1.54c1.402 0 2.719.545 3.708 1.533a5.235 5.235 0 01.538 6.812.752.752 0 01-1.048.165.745.745 0 01-.3-.49.746.746 0 01.135-.558 3.739 3.739 0 00-.384-4.866 3.724 3.724 0 00-2.65-1.095 3.727 3.727 0 00-2.654 1.1L2.6 13.613a3.761 3.761 0 000 5.309 3.723 3.723 0 002.652 1.097c1.003 0 1.945-.39 2.652-1.097l.932-.934a.744.744 0 011.06 0 .747.747 0 010 1.061l-.932.934a5.202 5.202 0 01-3.712 1.539z" fill="#1B314B"/><path d="M13.978 18.045a5.21 5.21 0 01-3.709-1.537 5.234 5.234 0 01-.536-6.81.751.751 0 011.047-.167.747.747 0 01.3.49.746.746 0 01-.134.56 3.739 3.739 0 00.383 4.864 3.723 3.723 0 002.65 1.097 3.725 3.725 0 002.654-1.101l4.773-4.779a3.732 3.732 0 001.098-2.655c0-1.003-.39-1.945-1.098-2.655a3.723 3.723 0 00-2.652-1.097c-1.003 0-1.945.39-2.652 1.097l-.75.751a.744.744 0 01-1.06 0 .744.744 0 01-.22-.53c0-.2.078-.39.22-.531l.75-.751a5.213 5.213 0 013.712-1.538 5.21 5.21 0 013.712 1.538 5.222 5.222 0 011.538 3.716 5.222 5.222 0 01-1.538 3.716l-4.773 4.779a5.21 5.21 0 01-3.71 1.542h-.005z" fill="#1B314B"/><rect x="3" y="14.738" width="5" height="1.5" rx=".75" transform="rotate(-45 3 14.738)" fill="#FFB65C"/></svg>