<svg width="25" height="25" fill="none" xmlns="http://www.w3.org/2000/svg"><path d="M11.842 19.808c-4.333 0-8.636-3.044-11.219-5.891a2.414 2.414 0 01-.002-3.236c2.584-2.848 6.892-5.89 11.234-5.89l.151.001h.153c4.328 0 8.634 3.04 11.219 5.887.831.924.832 2.315.002 3.237-2.586 2.85-6.897 5.893-11.245 5.893l-.149-.001h-.144zm.011-13.516c-3.851 0-7.753 2.787-10.12 5.396a.912.912 0 00.002 1.222c2.366 2.608 6.267 5.396 10.12 5.396l.131-.001h.136c3.867 0 7.776-2.787 10.145-5.397a.912.912 0 00-.002-1.222c-2.368-2.607-6.272-5.393-10.123-5.393l-.156.001-.133-.002z" fill="#1B314B"/><path d="M11.998 16.803a4.469 4.469 0 01-3.182-1.32 4.507 4.507 0 013.183-7.69 4.47 4.47 0 013.182 1.318 4.476 4.476 0 011.318 3.185 4.48 4.48 0 01-1.319 3.189 4.469 4.469 0 01-3.181 1.318h-.001zM12 9.295a3.005 3.005 0 00-2.122 5.125c.567.568 1.32.88 2.121.88.802 0 1.555-.312 2.121-.879a2.987 2.987 0 00.879-2.123c0-.805-.312-1.559-.879-2.126A2.98 2.98 0 0012 9.295z" fill="#1B314B"/></svg>