<svg width="24" height="24" fill="none" xmlns="http://www.w3.org/2000/svg"><path fill-rule="evenodd" clip-rule="evenodd" d="M22.235 20.515l-9.74-17.561a.569.569 0 00-.99 0l-9.74 17.56a.555.555 0 00.495.821h19.48c.428 0 .7-.45.495-.82zm1.486-.797c.82 1.479-.268 3.282-1.981 3.282H2.26C.547 23-.542 21.197.28 19.718l9.74-17.561c.854-1.543 3.106-1.543 3.962 0l9.74 17.56z" fill="#1B314B"/><path fill-rule="evenodd" clip-rule="evenodd" d="M14.49 15.632c.447-.054.9-.007 1.327.136.929.311 1.489.968 1.802 1.735.303.742.381 1.597.381 2.38a.616.616 0 01-.616.617H8.338a.616.616 0 01-.617-.597 5.056 5.056 0 01.25-1.734 2.386 2.386 0 013.51-1.178l.004.003c.125.08.246.166.364.256a8.756 8.756 0 011.386-1.171c.38-.24.809-.393 1.256-.447zM12.304 18.6a.653.653 0 00.145-.175 7.524 7.524 0 011.454-1.308 1.799 1.799 0 011.523-.18c.526.177.848.532 1.052 1.033.152.37.234.814.27 1.298h-4.924l.008-.012c.146-.227.303-.446.472-.656zm-1.244-.4a3.842 3.842 0 00-.239-.167 1.151 1.151 0 00-1.689.557c-.07.222-.12.449-.149.678h1.82a.617.617 0 01-.009-.677c.085-.133.174-.264.266-.391z" fill="#1B314B"/><path fill-rule="evenodd" clip-rule="evenodd" d="M10.23 10.157a.538.538 0 010 .758L8.414 12.73a.536.536 0 11-.758-.758l1.814-1.814c.21-.21.549-.21.758 0z" fill="#FFB65C"/><path fill-rule="evenodd" clip-rule="evenodd" d="M8.564 11.064c.21-.21.549-.21.758 0l2.722 2.722a.536.536 0 11-.759.758l-2.721-2.722a.536.536 0 010-.758z" fill="#FFB65C"/><path fill-rule="evenodd" clip-rule="evenodd" d="M12.495 14.09l-.904.906a.107.107 0 000 .15l.572.573a.536.536 0 01-.758.758l-.573-.573-.001-.001a1.18 1.18 0 010-1.663l.908-.91a1.18 1.18 0 011.663 0v.002l.574.573c.129.13.226.286.284.46l.189.566a.536.536 0 01-1.017.338l-.188-.564a.108.108 0 00-.026-.041l-.572-.573a.107.107 0 00-.15 0z" fill="#FFB65C"/></svg>