<svg width="24" height="24" fill="none" xmlns="http://www.w3.org/2000/svg"><path d="M12.539 8.34l-.626.483v8.068l.626.484a4.32 4.32 0 001.727-.893c.787-.677 1.248-1.613 1.248-2.608V11.84c0-.995-.46-1.93-1.248-2.608a4.32 4.32 0 00-1.727-.892zm10.59-6.816a.652.652 0 00-.653-.653H1.524a.652.652 0 00-.653.653v20.952c0 .36.293.653.653.653h20.952c.36 0 .653-.293.653-.653V1.524zM.5 1.524C.5.958.958.5 1.524.5h20.952c.566 0 1.024.458 1.024 1.024v20.952c0 .566-.458 1.024-1.024 1.024H1.524A1.024 1.024 0 01.5 22.476V1.524zm10.285 6.248c0-.16.179-.415.564-.415 1.426 0 2.781.488 3.77 1.339.986.848 1.523 1.982 1.523 3.144v2.034c0 1.163-.537 2.296-1.523 3.145-.989.85-2.344 1.338-3.77 1.338a.658.658 0 01-.427-.147.357.357 0 01-.137-.268V7.772zm-3.072-.415c.167 0 .357.155.357.415v10.17c0 .26-.19.415-.357.415-.167 0-.357-.154-.357-.415V7.772c0-.26.19-.415.357-.415z" fill="#1B314B" stroke="#1B314B" stroke-linejoin="bevel"/></svg>