<svg width="14" height="25" fill="none" xmlns="http://www.w3.org/2000/svg"><path d="M5.49 24.02a5.258 5.258 0 01-3.916-1.748 5.23 5.23 0 01.163-7.175V3.75A3.754 3.754 0 015.487 0a3.754 3.754 0 013.75 3.75v11.348a5.215 5.215 0 011.492 3.966 5.217 5.217 0 01-1.742 3.621A5.236 5.236 0 015.49 24.02zM5.488 1.5a2.252 2.252 0 00-2.25 2.25v11.668a.75.75 0 01-.25.559 3.753 3.753 0 00-.295 5.295 3.755 3.755 0 005.295.295 3.724 3.724 0 001.244-2.586 3.725 3.725 0 00-1.244-3.004.75.75 0 01-.25-.559V3.75c0-1.24-1.01-2.25-2.25-2.25z" fill="#1B314B"/><path d="M5.488 21a2.252 2.252 0 01-2.25-2.25c0-.96.615-1.808 1.5-2.121V8.25a.75.75 0 011.5 0v8.379a2.258 2.258 0 011.5 2.121c0 1.241-1.01 2.25-2.25 2.25zm0-3a.75.75 0 100 1.5.75.75 0 000-1.5zm6-9a.75.75 0 010-1.5h1.5a.75.75 0 010 1.5h-1.5zm0 4.5a.75.75 0 010-1.5h1.5a.75.75 0 010 1.5h-1.5z" fill="#1B314B"/></svg>