<svg width="24" height="24" fill="none" xmlns="http://www.w3.org/2000/svg"><path d="M17.25 24.001a6.758 6.758 0 01-6.75-6.75 6.758 6.758 0 016.75-6.75 6.758 6.758 0 016.75 6.75 6.758 6.758 0 01-6.75 6.75zm0-12a5.256 5.256 0 00-5.25 5.25 5.256 5.256 0 005.25 5.25 5.256 5.256 0 005.25-5.25 5.256 5.256 0 00-5.25-5.25z" fill="#1B314B"/><path d="M17.25 21.001a.75.75 0 01-.75-.75v-2.25h-2.25a.75.75 0 010-1.5h2.25v-2.25a.75.75 0 011.5 0v2.25h2.25a.75.75 0 010 1.5H18v2.25a.75.75 0 01-.75.75zM6 7.501a3.754 3.754 0 01-3.75-3.75A3.754 3.754 0 016 .001a3.754 3.754 0 013.75 3.75A3.754 3.754 0 016 7.501zm0-6a2.252 2.252 0 00-2.25 2.25A2.252 2.252 0 006 6.001a2.252 2.252 0 002.25-2.25A2.252 2.252 0 006 1.501zm-2.25 22.5a.747.747 0 01-.746-.675l-.683-6.825H.75a.75.75 0 01-.75-.75v-2.25a6.016 6.016 0 013.014-5.202 5.983 5.983 0 012.978-.796 6.023 6.023 0 015.214 3.013.745.745 0 01-.277 1.023.75.75 0 01-1.024-.277 4.518 4.518 0 00-3.912-2.259c-.781 0-1.553.206-2.233.597a4.514 4.514 0 00-2.26 3.902v1.499H3c.387 0 .708.29.746.675l.683 6.825h3.143l.255-2.558a.755.755 0 01.828-.671.736.736 0 01.499.271c.127.155.186.35.166.549l-.323 3.233a.748.748 0 01-.747.676h-4.5zM16.5 6.751a3.379 3.379 0 01-3.375-3.375A3.379 3.379 0 0116.5.001a3.379 3.379 0 013.375 3.375A3.379 3.379 0 0116.5 6.751zm0-5.25a1.877 1.877 0 00-1.875 1.875c0 1.034.841 1.875 1.875 1.875a1.877 1.877 0 001.875-1.875A1.877 1.877 0 0016.5 1.501z" fill="#1B314B"/><path d="M20.4 9.751a.751.751 0 01-.649-.375 3.723 3.723 0 00-2.278-1.747 3.744 3.744 0 00-2.845.376 3.783 3.783 0 00-.948.779.75.75 0 01-1.13-.988 5.258 5.258 0 013.945-1.797c.458 0 .917.061 1.365.18a5.214 5.214 0 013.188 2.445.751.751 0 01-.648 1.127z" fill="#1B314B"/></svg>