<svg width="24" height="24" fill="none" xmlns="http://www.w3.org/2000/svg"><g clip-path="url(#clip0)"><path d="M8.25 24.028A2.253 2.253 0 016 21.775V11.263A2.253 2.253 0 018.25 9.01h2.25V6.007A4.508 4.508 0 006 1.502a4.508 4.508 0 00-4.5 4.505V9.76a.75.75 0 11-1.5 0V6.007C0 2.695 2.692 0 6 0s6 2.695 6 6.007V9.01h9.75c1.241 0 2.25 1.01 2.25 2.253v10.512a2.253 2.253 0 01-2.25 2.253H8.25zm0-13.516a.75.75 0 00-.75.75v10.513c0 .415.336.75.75.75h13.5a.75.75 0 00.75-.75V11.263a.75.75 0 00-.75-.75H8.25z" fill="#1B314B"/><path d="M15 18.772a.75.75 0 01-.75-.751v-3.004a.75.75 0 111.5 0v3.004a.75.75 0 01-.75.75z" fill="#FFB65C"/></g><defs><clipPath id="clip0"><path fill="#fff" d="M0 0h24v24H0z"/></clipPath></defs></svg>