<svg width="24" height="24" fill="none" xmlns="http://www.w3.org/2000/svg"><path d="M3.444 22.53a1.976 1.976 0 01-1.975-1.974V4.76c0-1.089.886-1.974 1.975-1.974h1.974v-.658a.658.658 0 011.317 0v.658h10.53v-.658a.658.658 0 011.317 0v.658h1.974c1.09 0 1.975.885 1.975 1.974v15.796a1.976 1.976 0 01-1.975 1.975H3.444zm0-18.428a.658.658 0 00-.658.658v15.796c0 .363.295.658.658.658h17.112a.658.658 0 00.658-.658V4.76a.658.658 0 00-.658-.658h-1.974v.658a.658.658 0 01-1.317 0v-.658H6.735v.658a.658.658 0 01-1.317 0v-.658H3.444z" fill="#1B314B"/><path d="M12.658 17.923a.658.658 0 010-1.316h3.95a.658.658 0 010 1.316h-3.95zm0-6.581a.658.658 0 010-1.317h3.95a.658.658 0 010 1.317h-3.95z" fill="#FFB65C"/><path d="M7.393 19.24a.652.652 0 01-.465-.193l-1.975-1.975a.653.653 0 010-.93.652.652 0 01.465-.193c.176 0 .342.068.466.193l1.438 1.438 2.309-3.079a.664.664 0 01.527-.263.651.651 0 01.65.565.655.655 0 01-.124.488l-2.765 3.686a.657.657 0 01-.526.263zm0-6.845a.652.652 0 01-.465-.193l-1.975-1.975a.652.652 0 01-.193-.465c0-.175.069-.341.193-.465a.652.652 0 01.465-.193c.176 0 .342.069.466.193l1.438 1.438 2.308-3.08a.663.663 0 01.922-.132.656.656 0 01.13.921L7.92 12.133a.658.658 0 01-.48.261l-.046.002z" fill="#1B314B"/></svg>