<svg width="24" height="24" fill="none" xmlns="http://www.w3.org/2000/svg"><path d="M11.25 24a.743.743 0 01-.53-.22.745.745 0 01-.204-.677l.75-3.75a.748.748 0 01.205-.384l7.63-7.63a2.844 2.844 0 012.026-.839c.763 0 1.48.296 2.02.832 1.09 1.119 1.099 2.89.036 4.045a.447.447 0 01-.021.022l-7.63 7.63a.744.744 0 01-.384.205l-3.75.75a.684.684 0 01-.147.016zm.957-1.706l2.424-.485 7.463-7.463c.499-.548.504-1.426-.001-1.945a1.34 1.34 0 00-.966-.401l-.001-.375V12c-.364 0-.707.142-.964.4l-7.47 7.47-.485 2.424z" fill="#1B314B"/><path fill-rule="evenodd" clip-rule="evenodd" d="M7.106 13.185a.75.75 0 011.06-1.06l.67.669.67-.67a.75.75 0 011.06 1.06l-.67.67.67.67a.75.75 0 01-1.06 1.06l-.67-.669-.67.67a.75.75 0 11-1.06-1.06l.67-.67-.67-.67z" fill="#FFB65C"/><path d="M11.44 6.203a.75.75 0 10-1.061-1.06l-1.82 1.819-.565-.679a.75.75 0 00-1.152.96l1.081 1.298a.75.75 0 001.126.052l2.39-2.39z" fill="#1B314B"/><path d="M2.251 21a2.252 2.252 0 01-2.25-2.25V2.25C.001 1.009 1.011 0 2.251 0H12.88c.601 0 1.165.234 1.59.658l2.872 2.872c.425.425.659.99.659 1.59v3.13a.75.75 0 01-1.5 0V5.121c0-.197-.08-.39-.219-.53L13.41 1.719a.748.748 0 00-.53-.219H2.251a.75.75 0 00-.75.75v16.5c0 .414.336.75.75.75h5.25a.75.75 0 010 1.5h-5.25z" fill="#1B314B"/></svg>