<svg width="24" height="24" fill="none" xmlns="http://www.w3.org/2000/svg"><g clip-path="url(#clip0)" fill-rule="evenodd" clip-rule="evenodd"><path d="M11.755 2.008c-5.654 0-10.237 4.583-10.237 10.237 0 5.653 4.583 10.237 10.237 10.237s10.237-4.584 10.237-10.237c0-5.654-4.583-10.237-10.237-10.237zM-.049 12.245C-.05 5.725 5.236.44 11.755.44c6.52 0 11.804 5.285 11.804 11.804 0 6.52-5.285 11.804-11.804 11.804-6.52 0-11.804-5.285-11.804-11.804z" fill="#1B314B"/><path d="M16.365 5.683a1.519 1.519 0 012.051 1.418v14.468a.784.784 0 11-1.567 0V7.23l-5.632 4.008a.78.78 0 01-.148.082v2.393a.784.784 0 11-1.567 0v-2.43a1.519 1.519 0 01.875-1.37l5.809-4.135a.786.786 0 01.18-.096z" fill="#1B314B"/><path d="M14.645 10.777c0-.433.35-.784.783-.784h2.204a.784.784 0 010 1.567h-2.204a.784.784 0 01-.783-.784zm-1.47 2.938c0-.433.351-.783.784-.783h3.674a.784.784 0 110 1.567h-3.674a.784.784 0 01-.784-.784z" fill="#1B314B"/><path d="M4.36 16.653c0-.433.35-.784.783-.784h3.673a.784.784 0 110 1.568H5.143a.784.784 0 01-.784-.784z" fill="#FFB65C"/><path d="M12.49 5.585c.432 0 .783.35.783.783v3a.784.784 0 01-1.567 0v-3c0-.432.35-.783.784-.783zm-5.878 8.913a.686.686 0 00-.686.686v5.877a.784.784 0 01-1.567 0v-5.877a2.253 2.253 0 012.253-2.253h3.674a2.253 2.253 0 012.253 2.253v8.081a.784.784 0 11-1.568 0v-8.081a.686.686 0 00-.685-.686H6.612z" fill="#1B314B"/></g><defs><clipPath id="clip0"><path fill="#fff" d="M0 0h24v24H0z"/></clipPath></defs></svg>