<svg width="24" height="24" fill="none" xmlns="http://www.w3.org/2000/svg"><g clip-path="url(#clip0)"><path d="M12.901 8.327H9.656V9.3h2.272v1.082H9.656v.973h2.272v1.298H9.656v.973h3.245v-5.3zM8.14 12.653H5.87v-1.298h2.27V8.327H4.896V9.3h2.27v1.082h-2.27v3.245H8.14v-.974zm9.306-2.271h-2.055V9.3h2.055v-.973h-3.029v3.028h2.056l-.554.155.49.245h.245l.245-.245.547-1.128z" fill="#1B314B"/><path d="M2.259 21.003a2.252 2.252 0 01-2.25-2.25v-16.5a2.252 2.252 0 012.25-2.25h18a2.252 2.252 0 012.25 2.25v6a.75.75 0 01-1.5 0v-2.25h-19.5v12.75c0 .414.336.75.75.75h6a.75.75 0 010 1.5h-6zm18.75-16.5v-2.25a.75.75 0 00-.75-.75h-18a.75.75 0 00-.75.75v2.25h19.5z" fill="#1B314B"/><path d="M17.259 24.003a6.758 6.758 0 01-6.75-6.75 6.758 6.758 0 016.75-6.75 6.758 6.758 0 016.75 6.75 6.758 6.758 0 01-6.75 6.75zm0-12a5.256 5.256 0 00-5.25 5.25 5.256 5.256 0 005.25 5.25 5.256 5.256 0 005.25-5.25 5.256 5.256 0 00-5.25-5.25z" fill="#FFB65C"/><path d="M17.259 21.003a.75.75 0 01-.75-.75v-2.25h-2.25a.75.75 0 010-1.5h2.25v-2.25a.75.75 0 011.5 0v2.25h2.25a.75.75 0 010 1.5h-2.25v2.25a.75.75 0 01-.75.75z" fill="#FFB65C"/></g><defs><clipPath id="clip0"><path fill="#fff" d="M0 0h24v24H0z"/></clipPath></defs></svg>