<svg width="24" height="24" fill="none" xmlns="http://www.w3.org/2000/svg"><path d="M17.2 10.5c-3.8 0-6.8 2.9-6.8 6.7 0 3.8 3.1 6.8 6.8 6.8 3.8 0 6.8-3.1 6.8-6.8 0-3.7-3-6.7-6.8-6.7zm0 11.9c-2.8 0-5.2-2.4-5.2-5.2 0-2.8 2.3-5.2 5.2-5.2 2.9 0 5.2 2.4 5.2 5.2 0 2.8-2.4 5.2-5.2 5.2z" fill="#1B314B"/><path d="M7.4 19.6H2.2c-.5 0-.8-.4-.8-.8V2.3c0-.5.4-.8.8-.8h10.6c.2 0 .4.1.5.2l2.9 2.9c.1.1.2.3.2.5v2.4c0 .5.3.8.8.8s.8-.4.8-.8V5.1c0-.6-.2-1.1-.7-1.5L14.4.7c-.4-.5-1-.7-1.6-.7H2.2C1 0 0 1 0 2.3v16.5C0 20 1 21 2.2 21h5.3c.4 0 .7-.1.7-.6s-.4-.8-.8-.8z" fill="#1B314B"/><path d="M20.2 15.4h-.8v-1.2c0-.4-.3-.8-.8-.8s-.6.4-.6.8v1.2h-1.5v-1.2c0-.4-.3-.8-.8-.8s-.7.4-.7.8v1.2h-.8c-.4 0-.8.3-.8.8 0 1.8 1.3 3.3 3 3.7v1.6c0 .4.4.8.8.8s.8-.4.8-.8v-1.6c1.7-.4 3-1.9 3-3.7 0-.4-.3-.8-.8-.8zm-2.8 3h-.2c-.9-.1-1.7-.7-2-1.5h4.2c-.3.9-1.1 1.5-2 1.5z" fill="#FFB65C"/><path d="M3.8 6c-.5 0-.8.4-.8.8s.3.7.8.7h10.4c.5 0 .8-.2.8-.7 0-.5-.3-.8-.7-.8H3.8zm3.8 4.5H3.8c-.5 0-.8.4-.8.8s.3.7.8.7h3.7c.4 0 .9-.2.9-.7 0-.5-.4-.8-.8-.8zm0 4.5H3.8c-.5 0-.8.3-.8.8 0 .4.4.7.8.7h3.7c.4 0 .7-.3.9-.7 0-.5-.4-.8-.8-.8z" fill="#1B314B"/></svg>