<svg width="24" height="24" fill="none" xmlns="http://www.w3.org/2000/svg"><path d="M8.709 22.72a.444.444 0 01-.068-.005l-.01-.002a1.16 1.16 0 01-1.023-.766L5.352 15.7l-3.22-1.382a1.408 1.408 0 01-.683-.623 1.392 1.392 0 01-.11-1.069c.108-.359.35-.655.679-.832L21.358 1.39a.926.926 0 011.032.107c.28.24.393.611.296.958l-4.742 16.909a1.392 1.392 0 01-.83.928 1.392 1.392 0 01-1.073-.014l-3.986-1.708-2.377 3.62a1.17 1.17 0 01-.58.457c-.103.037-.216.06-.334.065a.151.151 0 01-.055.007zm-.326-1.257l.703-4.53a.428.428 0 01.036-.116.407.407 0 01.061-.1L18.74 5.18 6.233 15.508l2.15 5.955zm.965-.394l1.874-2.854-1.342-.575-.532 3.43zm7.045-1.61a.501.501 0 00.39.005.502.502 0 00.301-.338l4.47-15.941-11.302 13.643 6.141 2.631zm-13.95-6.88a.506.506 0 00-.208.691.518.518 0 00.248.227l3.146 1.35L19.466 3.423 2.442 12.58z" fill="#1B314B"/></svg>