<svg width="24" height="24" fill="none" xmlns="http://www.w3.org/2000/svg"><path fill-rule="evenodd" clip-rule="evenodd" d="M21.07 19.76L12.438 3.938a.5.5 0 00-.878 0L2.93 19.761a.5.5 0 00.439.739H20.63a.5.5 0 00.439-.74zm1.316-.718C23.113 20.375 22.15 22 20.631 22H3.369c-1.518 0-2.483-1.625-1.756-2.958l8.63-15.823c.758-1.39 2.754-1.39 3.512 0l8.631 15.823z" fill="#FFB65C"/><path d="M10.5 19.521a.737.737 0 01-.216-.034l-.054-.019a.389.389 0 01-.067-.027.745.745 0 01-.106-.066l-.016-.012a.764.764 0 01-.151-.159l-.024-.035a.762.762 0 01-.093-.216l-.75-3.004a.752.752 0 01.727-.933.75.75 0 01.728.569l.258 1.034 1.55-3.104H9.75a.748.748 0 01-.689-1.046l2.25-5.257a.752.752 0 01.985-.394c.38.163.557.606.394.986l-1.803 4.209H13.5c.258 0 .502.136.638.355.138.225.15.497.033.731L11.9 17.646l1.418-.354a.748.748 0 01.91.547c.1.401-.144.81-.545.91l-3 .75a.817.817 0 01-.183.023z" fill="#1B314B"/></svg>