<svg width="24" height="25" fill="none" xmlns="http://www.w3.org/2000/svg"><path fill-rule="evenodd" clip-rule="evenodd" d="M-.001 10.513a2.253 2.253 0 002.25 2.253 2.253 2.253 0 001.738-3.682l2.837-2.837a2.24 2.24 0 003.15-.298l3.53.945A2.254 2.254 0 0015.75 9.01a2.253 2.253 0 002.064-3.146l2.452-1.92c.408.36.932.561 1.484.561a2.253 2.253 0 000-4.505 2.254 2.254 0 00-2.22 2.614L16.788 4.76a2.242 2.242 0 00-2.868.689l-3.421-.916v-.028a2.253 2.253 0 00-2.25-2.252 2.253 2.253 0 00-2.212 2.659L2.652 8.297a2.253 2.253 0 00-2.653 2.216zm1.5 0a.75.75 0 111.501 0 .75.75 0 01-1.501 0zM15 6.758a.75.75 0 111.499 0 .75.75 0 01-1.499 0zM7.499 4.506a.75.75 0 111.501 0 .75.75 0 01-1.501 0zM21 2.253a.75.75 0 111.499 0 .75.75 0 01-1.499 0z" fill="#1B314B"/><path d="M-.001 23.277c0 .414.336.75.75.75h21.75a.75.75 0 000-1.501h-.749v-7.76c0-.689-.561-1.25-1.25-1.25h-2.752a1.253 1.253 0 00-1.248 1.25v7.76h-2.25V10.262c0-.69-.561-1.252-1.25-1.252h-2.751c-.689 0-1.25.562-1.25 1.252v12.264H6.75v-3.254c0-.69-.561-1.251-1.25-1.251H2.749c-.689 0-1.25.561-1.25 1.251v3.254h-.75a.75.75 0 00-.75.75z" fill="#1B314B"/></svg>