<svg width="24" height="25" fill="none" xmlns="http://www.w3.org/2000/svg"><path d="M12 24.525a12.005 12.005 0 01-2.936-.366c-2.94-.736-5.487-2.57-7.153-5.155a.752.752 0 01-.109-.172A11.976 11.976 0 010 12.512C0 10.274.623 8.09 1.801 6.19a.805.805 0 01.11-.173 11.976 11.976 0 0120.177 0 .75.75 0 01.111.173A11.978 11.978 0 0124 12.51c0 2.237-.623 4.421-1.801 6.32a.745.745 0 01-.111.173A11.975 11.975 0 0112 24.524zm-2.246-1.747c.742.162 1.496.245 2.246.245s1.504-.083 2.246-.245c.563-.901 1.052-2.104 1.427-3.51H8.327c.375 1.406.864 2.609 1.427 3.51zm7.478-3.51a17.463 17.463 0 01-.945 2.836 10.477 10.477 0 003.747-2.835h-2.802zm-13.266 0a10.473 10.473 0 003.746 2.836 17.463 17.463 0 01-.945-2.835H3.966zm17.124-1.5a10.492 10.492 0 001.38-4.506h-4.481a29.354 29.354 0 01-.438 4.505h3.539zm-5.074 0c.271-1.411.433-2.955.472-4.506H7.512a27.89 27.89 0 00.472 4.505h8.032zm-9.567 0a29.354 29.354 0 01-.438-4.506H1.53a10.492 10.492 0 001.38 4.505h3.539zM22.47 11.76a10.492 10.492 0 00-1.38-4.505h-3.539c.255 1.42.402 2.932.438 4.505h4.481zm-5.982 0a27.914 27.914 0 00-.472-4.505H7.984a28.027 28.027 0 00-.472 4.505h8.976zm-10.477 0c.036-1.573.183-3.085.438-4.505H2.91a10.492 10.492 0 00-1.38 4.505h4.481zm14.023-6.007a10.469 10.469 0 00-3.747-2.835c.37.843.687 1.791.945 2.835h2.802zm-4.361 0c-.375-1.404-.864-2.608-1.427-3.509A10.471 10.471 0 0012 2c-.749 0-1.504.083-2.246.245-.563.901-1.052 2.104-1.427 3.51h7.346zm-8.905 0a17.47 17.47 0 01.945-2.835 10.469 10.469 0 00-3.747 2.835h2.802z" fill="#1B314B"/><rect x="9.5" y="8.997" width="5" height="1.5" rx=".75" fill="#FFB65C"/></svg>