<svg width="24" height="24" fill="none" xmlns="http://www.w3.org/2000/svg"><g clip-path="url(#clip0)"><path d="M17.267 23.918c-3.537 0-6.414-2.886-6.414-6.432 0-3.546 2.877-6.431 6.414-6.431 3.536 0 6.413 2.885 6.413 6.431 0 3.546-2.877 6.432-6.413 6.432zm0-11.874c-2.993 0-5.427 2.441-5.427 5.442 0 3.001 2.434 5.442 5.427 5.442 2.992 0 5.426-2.44 5.426-5.442 0-3.001-2.434-5.442-5.426-5.442z" fill="#FFB65C"/><path d="M17.267 19.383a.494.494 0 01-.494-.495v-.99c0-.272.221-.494.494-.494a1.36 1.36 0 000-2.721 1.36 1.36 0 00-1.357 1.36.494.494 0 11-.987 0 2.35 2.35 0 012.344-2.35 2.349 2.349 0 012.343 2.35 2.348 2.348 0 01-1.85 2.298v.547a.494.494 0 01-.493.495zm0 2.474a.741.741 0 10-.003-1.483.741.741 0 00.003 1.483zM2.368 9.67a.495.495 0 01-.42-.754 4.962 4.962 0 00.724-2.749V5.65a.169.169 0 01-.003-.03l.002-.032V4.92A4.728 4.728 0 017.593.004c2.61.106 4.647 2.32 4.541 4.937v1.214a4.989 4.989 0 00.717 2.764.497.497 0 01-.164.68.493.493 0 01-.676-.167 5.954 5.954 0 01-.795-2.181c-.234.49-.563.935-.97 1.306a4.207 4.207 0 01-3.051 1.097 4.209 4.209 0 01-3.606-2.392 5.967 5.967 0 01-.8 2.17.49.49 0 01-.42.237zm1.845-3.653A3.232 3.232 0 007.408 8.67a3.243 3.243 0 003.181-2.65A6.126 6.126 0 017.4 4.389a6.121 6.121 0 01-3.187 1.627zM7.4 3.174c.143 0 .28.063.373.171a5.134 5.134 0 003.377 1.753V4.92c.082-2.087-1.53-3.845-3.596-3.93A3.747 3.747 0 003.657 4.9v.196a5.14 5.14 0 003.37-1.752.492.492 0 01.372-.17zM.493 17.98A.494.494 0 010 17.487c0-4.091 3.32-7.421 7.4-7.421 1.42 0 2.804.407 3.999 1.178a.497.497 0 01.149.683.49.49 0 01-.682.15A6.377 6.377 0 007.4 11.055a6.397 6.397 0 00-6.396 5.936h7.383a.495.495 0 010 .99H.493z" fill="#1B314B"/></g><defs><clipPath id="clip0"><path fill="#fff" d="M0 0h24v24H0z"/></clipPath></defs></svg>