<svg width="24" height="24" fill="none" xmlns="http://www.w3.org/2000/svg"><path d="M3.25 20.519A2.253 2.253 0 011 18.266V6.253a2.224 2.224 0 01.498-1.413l.023-.027A2.237 2.237 0 013.25 4h18a2.244 2.244 0 011.757.846l.018.026c.311.4.475.876.475 1.38v12.014a2.253 2.253 0 01-2.25 2.253h-18zm-.75-2.253a.75.75 0 00.75.751h18a.75.75 0 00.75-.75V6.564l-7.276 5.602a4.074 4.074 0 01-2.474.842c-.891 0-1.77-.299-2.474-.842L2.5 6.565v11.701zm8.19-7.289a2.564 2.564 0 003.119 0l7.111-5.476H3.579l7.111 5.476z" fill="#1B314B"/></svg>