<svg width="24" height="20" fill="none" xmlns="http://www.w3.org/2000/svg"><path d="M.788 19.321a.75.75 0 010-1.5h.748V9.753l-.639.128A.752.752 0 01.125 8.73a.743.743 0 01.477-.319l8.42-1.684V2.591l-1.085-.475A.75.75 0 018.539.741l9.469 4.142V2.101a.75.75 0 01.75-.75h2.995a.75.75 0 01.75.75V6.85l1.044.457a.747.747 0 01.387.988.749.749 0 01-.987.386l-.443-.194v9.333h.747a.75.75 0 010 1.5l-22.463.001zm20.215-1.5v-9.99l-10.48-4.584V17.82h1.495v-3.742a2.252 2.252 0 012.25-2.25h3a2.252 2.252 0 012.25 2.25l-.009 3.742 1.494.001zm-2.994 0l.009-3.743a.75.75 0 00-.75-.749h-3a.75.75 0 00-.75.75v3.742h4.491zM9.023 8.256L3.036 9.454v8.368h5.987V8.256zm11.98-2.062V2.851h-1.495V5.54l1.495.654z" fill="#1B314B"/><path d="M12.768 8.466a1.12 1.12 0 01-1.114-1c-.003-.017-.004-.035-.005-.052a.432.432 0 01.001-.146l.005-.055c.06-.513.469-.924.982-.984a.717.717 0 01.262-.001c.528.062.938.485.985 1.015a.645.645 0 01.001.181 1.108 1.108 0 01-1.004 1.032h-.003a.733.733 0 01-.107.009l-.003.001z" fill="#1B314B"/><path fill-rule="evenodd" clip-rule="evenodd" d="M4.375 13.5c0-.345.28-.625.625-.625h2a.625.625 0 110 1.25H5a.625.625 0 01-.625-.625zm0 2c0-.345.28-.625.625-.625h2a.625.625 0 110 1.25H5a.625.625 0 01-.625-.625zm0 2c0-.345.28-.625.625-.625h2a.625.625 0 110 1.25H5a.625.625 0 01-.625-.625z" fill="#1B314B"/><path fill-rule="evenodd" clip-rule="evenodd" d="M4.625 11c.345 0 .625.28.625.625v7.75a.625.625 0 11-1.25 0v-7.75c0-.345.28-.625.625-.625zm2.5 0c.345 0 .625.28.625.625v7.75a.625.625 0 11-1.25 0v-7.75c0-.345.28-.625.625-.625z" fill="#1B314B"/></svg>