<svg width="24" height="24" fill="none" xmlns="http://www.w3.org/2000/svg"><g clip-path="url(#clip0)"><path fill-rule="evenodd" clip-rule="evenodd" d="M11.01 0l11.672.325c.608.017 1.094.532 1.103 1.168L24 17.813l-1.808 1.85c-.21.214-.492.337-.79.337H7l.126-18.535C7.13.86 7.571.355 8.148.295L11.01 0zm.653 1.334v15.548h11.066l-.201-15.245-10.865-.303zm10.16 16.864H11.182c-.231.12-.561.294-.924.486h11.091l.476-.486zm-13.552.066l.113-16.671 2.02-.208v15.748a364.16 364.16 0 00-2.133 1.13z" fill="#1B314B"/><path fill-rule="evenodd" clip-rule="evenodd" d="M10 6.209V5.5c0-.316-.266-.554-.556-.49-1.73.385-6.938 1.652-7.613 3.124-.722 1.575-.819 5.679-.831 7.363a.485.485 0 00.471.503h1.966a.476.476 0 00.448-.342l1.253-3.907a.25.25 0 01.083-.134C5.767 11.228 10 9.118 10 8.694V6.21z" fill="#EEF1F4"/><path fill-rule="evenodd" clip-rule="evenodd" d="M8.684 6.58v1.834a30.391 30.391 0 01-1.722 1.004c-.453.25-.914.496-1.337.722l-.45.241c-.485.26-.984.53-1.216.692a1.64 1.64 0 00-.607.846l-1.21 3.704h-.814c.017-.878.058-2.003.15-3.114.061-.756.146-1.486.258-2.116.113-.632.24-1.081.36-1.346a.99.99 0 01.14-.136c.145-.118.36-.26.654-.416.587-.314 1.365-.624 2.226-.914a42.426 42.426 0 013.568-1zM10 5.546V9.03c0 .316-2.197 1.492-3.782 2.34-.733.392-1.336.714-1.528.848a.273.273 0 00-.092.146l-1.393 4.263a.528.528 0 01-.497.373H.524A.533.533 0 010 16.452c.014-1.838.12-6.315.924-8.033.75-1.606 6.536-2.988 8.458-3.407.322-.07.618.189.618.534z" fill="#1B314B"/><path fill-rule="evenodd" clip-rule="evenodd" d="M1.666 15.87a.614.614 0 01.388.777c-.294.883-.47 2.566-.416 4.183.027.8.11 1.554.251 2.157.15.639.336.984.478 1.108a.614.614 0 11-.808.924c-.454-.397-.709-1.08-.866-1.752C.528 22.56.44 21.72.411 20.87c-.057-1.68.119-3.529.479-4.61a.614.614 0 01.777-.388z" fill="#1B314B"/><path d="M16.143 13a.412.412 0 01-.15-.028.452.452 0 01-.279-.422V9.4h-1.071a.63.63 0 01-.413-.158.683.683 0 01-.228-.46.694.694 0 01.15-.493l3.38-4.132a.42.42 0 01.474-.13c.168.066.28.236.28.423V7.6h1.072c.152 0 .298.057.413.158a.7.7 0 01.079.952l-3.382 4.133a.42.42 0 01-.325.157zm0-4.5a.44.44 0 01.428.45v2.386l2.32-2.837-1.034.001a.44.44 0 01-.428-.45V5.664l-2.32 2.837 1.034-.001z" fill="#FFB65C"/></g><defs><clipPath id="clip0"><path fill="#fff" d="M0 0h24v24H0z"/></clipPath></defs></svg>