<svg width="25" height="25" fill="none" xmlns="http://www.w3.org/2000/svg"><path d="M22.1 2.2h-4.8V.8c0-.4-.3-.8-.8-.8s-.8.3-.8.8v1.5H12c-.4 0-.8.3-.8.8s.3.8.8.8h10.1c.2 0 .4.2.4.4v10.4c0 .2-.2.4-.4.4H15c-.4 0-.8.3-.8.8s.3.8.8.8h.8v4.1l-2.7 2c-.3.2-.4.7-.1 1 .1.2.4.3.6.3.2 0 .3 0 .4-.2l2.5-1.9 2.2 1.9c.1.1.3.2.5.2s.4-.1.6-.3c.3-.3.2-.8-.1-1.1l-2.4-2v-4.1h4.9c1 0 1.9-.9 1.9-1.9V4.2c-.1-1.1-.9-1.9-2-2zM9.8 3.8C9.8 1.7 8.1 0 6 0 3.9 0 2.2 1.7 2.2 3.8c0 2.1 1.7 3.7 3.8 3.7 2.1 0 3.8-1.7 3.8-3.7zM6 6C4.8 6 3.8 5 3.8 3.8c0-1.2 1-2.2 2.2-2.2 1.2 0 2.2 1 2.2 2.2C8.2 5 7.2 6 6 6z" fill="#1B314B"/><path d="M6 7.5c-3.3 0-6 2.7-6 6v2.2c0 .4.3.8.8.8h1.6l.6 6.8c0 .4.4.7.8.7h4.5c.3 0 .7-.3.7-.7l.7-6.8h1.6c.4 0 .8-.3.8-.8v-2.2c-.1-3.3-2.8-6-6.1-6zm4.5 7.5H9c-.4 0-.7.3-.7.7l-.7 6.8H4.4l-.7-6.8c0-.4-.3-.7-.7-.7H1.5v-1.5C1.5 11 3.5 9 6 9s4.5 2 4.5 4.5V15zm9.4-5.4c0-.4-.3-.8-.8-.8h-.5L18.3 7c.3-.1.5-.4.5-.7 0-.4-.3-.8-.8-.8h-2.5c-.4 0-.8.3-.8.8 0 .3.2.6.5.7l-.3 1.8h-.5c-.4 0-.8.3-.8.8 0 .4.3.8.8.8h.1l-.5 2c-.1.4.1.8.5.9.4.1.8-.1.9-.5l.6-2.4h1.5l.6 2.4c.1.4.5.6.9.5.4-.1.6-.5.5-.9l-.5-2h.1c.4 0 .8-.4.8-.8zm-3.2-2.5h.2l.2 1.8h-.6l.2-1.8z" fill="#1B314B"/></svg>