<svg width="26" height="24" fill="none" xmlns="http://www.w3.org/2000/svg"><path fill-rule="evenodd" clip-rule="evenodd" d="M3.893 12.75c-1.006.503-1.343 1.059-1.343 1.45s.337.948 1.343 1.45c.961.481 2.341.8 3.907.8 1.566 0 2.946-.319 3.907-.8 1.006-.502 1.343-1.059 1.343-1.45s-.337-.947-1.343-1.45c-.96-.481-2.341-.8-3.907-.8-1.566 0-2.946.319-3.907.8zm-.671-1.342c1.21-.605 2.83-.958 4.578-.958 1.748 0 3.368.353 4.578.958 1.166.583 2.172 1.527 2.172 2.792 0 1.266-1.006 2.21-2.172 2.792-1.21.605-2.83.958-4.578.958-1.748 0-3.368-.353-4.578-.958C2.056 16.41 1.05 15.466 1.05 14.2c0-1.265 1.007-2.21 2.172-2.792z" fill="#1B314B"/><path fill-rule="evenodd" clip-rule="evenodd" d="M1.8 13.45a.75.75 0 01.75.75v6c0 .414.343.97 1.345 1.465.962.476 2.343.785 3.905.785 1.562 0 2.943-.31 3.905-.785 1.003-.495 1.345-1.05 1.345-1.465v-6a.75.75 0 111.5 0v6c0 1.286-1.007 2.23-2.18 2.81-1.213.6-2.832.94-4.57.94-1.738 0-3.357-.34-4.57-.94-1.172-.58-2.18-1.524-2.18-2.81v-6a.75.75 0 01.75-.75z" fill="#1B314B"/><path fill-rule="evenodd" clip-rule="evenodd" d="M1.8 16.45a.75.75 0 01.75.75c0 .414.343.97 1.345 1.465.962.476 2.343.785 3.905.785 1.562 0 2.943-.31 3.905-.785 1.003-.495 1.345-1.05 1.345-1.465a.75.75 0 111.5 0c0 1.286-1.007 2.23-2.18 2.81-1.213.6-2.832.94-4.57.94-1.738 0-3.357-.34-4.57-.94-1.172-.58-2.18-1.524-2.18-2.81a.75.75 0 01.75-.75zM.95 2.3C.95 1.086 1.986.05 3.2.05h19.6c1.214 0 2.25 1.036 2.25 2.25v12c0 1.214-1.036 2.25-2.25 2.25h-6a.75.75 0 110-1.5h6c.386 0 .75-.364.75-.75v-12c0-.386-.364-.75-.75-.75H3.2c-.386 0-.75.364-.75.75v7.5a.75.75 0 11-1.5 0V2.3z" fill="#1B314B"/><path fill-rule="evenodd" clip-rule="evenodd" d="M13 5.95c-1.286 0-2.25.964-2.25 2.25a.75.75 0 01-1.5 0c0-2.114 1.636-3.75 3.75-3.75s3.75 1.636 3.75 3.75c0 1.132-.504 2.115-1.22 2.83a.75.75 0 11-1.06-1.06c.484-.485.78-1.102.78-1.77 0-1.286-.964-2.25-2.25-2.25zM5.755 4.755A.353.353 0 005.85 4.5a.353.353 0 00-.095-.255.353.353 0 00-.255-.095.353.353 0 00-.255.095.353.353 0 00-.095.255c0 .144.064.225.095.255.03.03.111.095.255.095a.353.353 0 00.255-.095zm-1.06-1.06c.18-.18.461-.345.805-.345.344 0 .625.164.805.345.18.18.345.461.345.805 0 .344-.164.625-.345.805a1.15 1.15 0 01-.805.345 1.15 1.15 0 01-.805-.345A1.15 1.15 0 014.35 4.5c0-.344.164-.625.345-.805zm16.06 8.56A.353.353 0 0020.85 12a.353.353 0 00-.095-.255.353.353 0 00-.255-.095.353.353 0 00-.255.095.353.353 0 00-.095.255c0 .144.064.225.095.255.03.03.111.095.255.095a.353.353 0 00.255-.095zm-1.06-1.06c.18-.18.461-.345.805-.345.344 0 .625.165.805.345.18.18.345.461.345.805 0 .344-.164.625-.345.805a1.15 1.15 0 01-.805.345 1.15 1.15 0 01-.805-.345A1.15 1.15 0 0119.35 12c0-.344.164-.625.345-.805z" fill="#1B314B"/></svg>