<svg width="24" height="25" fill="none" xmlns="http://www.w3.org/2000/svg"><path d="M12 24.164c-6.617 0-12-5.39-12-12.014S5.383.136 12 .136s12 5.39 12 12.014c0 6.625-5.383 12.014-12 12.014zm0-22.526c-5.79 0-10.5 4.716-10.5 10.512 0 5.797 4.71 10.512 10.5 10.512s10.5-4.715 10.5-10.512c0-5.796-4.71-10.512-10.5-10.512z" fill="#FFB65C"/><path fill-rule="evenodd" clip-rule="evenodd" d="M6.53 11.46a.75.75 0 011.061 0l3.005 3.004 6.54-6.54a.75.75 0 011.062 1.06l-7.072 7.071a.75.75 0 01-1.06 0L6.53 12.52a.75.75 0 010-1.06z" fill="#1B314B"/></svg>