<svg width="24" height="24" fill="none" xmlns="http://www.w3.org/2000/svg"><path d="M22.9 11.6l-9.4-9.4c-.4-.5-1-.7-1.6-.7-.6 0-1.2.3-1.6.7L.9 11.6c-.1.1-.2.3-.2.5s.1.4.2.5c.1.1.3.2.5.2s.4-.1.5-.2l1.7-1.7V21c0 .5.4.8.8.8h2.9v-1.5H5.1V9.4l6.3-6.3c.1-.1.3-.2.5-.2.1 0 .3.1.5.3l9.5 9.5c.1.1.3.2.5.2s.4-.1.5-.2c.3-.3.3-.8 0-1.1z" fill="#1B314B"/><path d="M14.9 11.8c.6 0 1.1-.5 1.1-1.1 0-.6-.5-1.1-1.1-1.1-.6 0-1.1.5-1.1 1.1 0 .6.5 1.1 1.1 1.1zm0 7.4c.6 0 1.1-.5 1.1-1.1 0-.6-.5-1.1-1.1-1.1-.6 0-1.1.5-1.1 1.1 0 .6.5 1.1 1.1 1.1z" fill="#1B314B"/><path d="M19.3 13.8h-1.4v1.4h1c.3 0 .5.2.5.5v5.2c0 .3-.2.5-.5.5h-8.1c-.3 0-.5-.2-.5-.5v-5.2c0-.3.2-.5.5-.5H12v-1.4h-1.6c-.8 0-1.5.7-1.5 1.5v5.9c0 .8.7 1.5 1.5 1.5h8.9c.8 0 1.5-.7 1.5-1.5v-5.9c0-.8-.7-1.5-1.5-1.5z" fill="#1B314B"/><path d="M14.9 15.5c.6 0 1.1-.5 1.1-1.1 0-.6-.5-1.1-1.1-1.1-.6 0-1.1.5-1.1 1.1 0 .6.5 1.1 1.1 1.1z" fill="#1B314B"/></svg>