<svg width="33" height="24" fill="none" xmlns="http://www.w3.org/2000/svg"><path fill-rule="evenodd" clip-rule="evenodd" d="M15.923 19.345H2.077a.668.668 0 00-.68.655c0 .361.305.655.68.655h13.846c.376 0 .68-.294.68-.655a.668.668 0 00-.68-.655zM2.077 18C.93 18 0 18.895 0 20s.93 2 2.077 2h13.846C17.07 22 18 21.105 18 20s-.93-2-2.077-2H2.077zM20.158 1.653l9.659 9.659a.72.72 0 11-1.018 1.017L19.14 2.67a.72.72 0 011.018-1.017zM18.163.675c.82-.82 2.151-.82 2.972 0l9.659 9.66a2.1 2.1 0 01.258 2.659c.147.135.253.32.287.539l.774 5.03a.921.921 0 01-1.095 1.043l-7.234-1.48c-.84-.172-1.01-1.298-.26-1.71l4.896-2.69a2.1 2.1 0 01-.598-.42l-9.66-9.659a2.102 2.102 0 010-2.972zm7.126 16.348l4.784-2.63.574 3.726-5.358-1.096z" fill="#1B314B"/><path d="M14.919 4.659l4.537-3.145a.733.733 0 011.014.177c.23.326.15.775-.179 1.004L16.78 5.128c.3.265.513.625.59 1.04l.04.213 3.684-2.553a2.09 2.09 0 00.522-2.93 2.14 2.14 0 00-2.96-.517L12.48 4.659h2.438zM10.16 7.957V6.504c0-.084.006-.167.017-.248l-2.843 1.97a2.095 2.095 0 00-.89 1.46h1.432a.718.718 0 01.26-.327l2.024-1.402z" fill="#1B314B"/><path fill-rule="evenodd" clip-rule="evenodd" d="M11.558 11.07H1.864a.464.464 0 00-.466.462v3.623c0 .255.209.461.466.461h15.291a.463.463 0 00.459-.545l-1.62-8.651a.465.465 0 00-.457-.378h-3.513a.464.464 0 00-.466.462v4.566zM10.16 6.504c0-1.02.835-1.845 1.864-1.845h3.513c.898 0 1.67.634 1.833 1.509l1.618 8.651c.213 1.134-.667 2.181-1.833 2.181H1.864A1.855 1.855 0 010 15.155v-3.623c0-1.02.835-1.845 1.864-1.845h8.296V6.504z" fill="#1B314B"/><path fill-rule="evenodd" clip-rule="evenodd" d="M7.322 17v1H6v-1h1.322zm4.356 1v-1H13v1h-1.322z" fill="#1B314B"/></svg>