<svg width="25" height="25" fill="none" xmlns="http://www.w3.org/2000/svg"><path d="M12.245 16.652a.742.742 0 01-.53-.22l-3.75-3.754a.764.764 0 01-.22-.532c0-.089.016-.178.049-.264.004-.013.01-.026.015-.037a.704.704 0 01.157-.23l3.749-3.754a.744.744 0 011.06 0c.142.141.22.33.22.53 0 .201-.078.39-.22.531l-2.47 2.473h13.939a.75.75 0 010 1.502h-13.94l2.47 2.473a.753.753 0 01-.53 1.282z" fill="#1B314B"/><path d="M12.229 23.41a11.12 11.12 0 01-4.907-1.136 11.182 11.182 0 01-5.71-6.452 11.2 11.2 0 01.519-8.604A11.178 11.178 0 018.575 1.5a11.247 11.247 0 013.68-.622c1.707 0 3.36.385 4.915 1.142a11.192 11.192 0 015 4.821.752.752 0 01-.661 1.106.75.75 0 01-.662-.398 9.701 9.701 0 00-4.333-4.179 9.65 9.65 0 00-4.259-.99 9.736 9.736 0 00-3.19.54A9.687 9.687 0 003.48 7.874a9.707 9.707 0 00-.45 7.458 9.693 9.693 0 004.949 5.591 9.63 9.63 0 004.251.984c3.714 0 7.162-2.155 8.783-5.488a.754.754 0 011.002-.346.749.749 0 01.346 1.004c-1.869 3.846-5.847 6.332-10.132 6.332z" fill="#FFB65C"/></svg>