<svg width="24" height="24" fill="none" xmlns="http://www.w3.org/2000/svg"><path fill-rule="evenodd" clip-rule="evenodd" d="M11.834 21.878H1.544a.496.496 0 00-.506.486c0 .269.227.487.506.487h10.29a.496.496 0 00.505-.487.496.496 0 00-.505-.486zm-10.29-1C.69 20.878 0 21.543 0 22.364s.691 1.487 1.544 1.487h10.29c.853 0 1.544-.666 1.544-1.487 0-.82-.691-1.486-1.544-1.486H1.544zM13.499 8.002c.61-.61 1.599-.61 2.209 0l7.178 7.179a1.56 1.56 0 01.192 1.976c.11.1.189.237.214.4l.575 3.74a.685.685 0 01-.814.774l-5.377-1.1c-.624-.128-.75-.964-.192-1.27l3.638-2a1.56 1.56 0 01-.445-.311L13.5 10.21a1.562 1.562 0 010-2.208zm1.482.726l7.18 7.179a.535.535 0 11-.757.756l-7.179-7.178a.535.535 0 11.756-.757zm3.814 11.424l3.556-1.955.426 2.77-3.982-.815z" fill="#1B314B"/><path d="M11.088 10.962l3.372-2.337a.545.545 0 01.754.132.532.532 0 01-.133.746l-2.61 1.809c.222.196.38.464.438.772l.03.158 2.738-1.897c.715-.495.888-1.47.388-2.178a1.59 1.59 0 00-2.2-.384l-4.589 3.18h1.812zm-3.537 2.452v-1.08c0-.063.004-.124.012-.184l-2.112 1.463c-.38.264-.608.664-.661 1.086h1.063a.534.534 0 01.194-.243l1.504-1.042z" fill="#1B314B"/><path fill-rule="evenodd" clip-rule="evenodd" d="M8.59 15.728H1.385a.345.345 0 00-.346.342v2.693c0 .19.155.343.346.343H12.75c.217 0 .38-.194.34-.405l-1.202-6.43a.345.345 0 00-.341-.28h-2.61a.345.345 0 00-.347.343v3.394zm-1.039-3.394c0-.758.62-1.372 1.385-1.372h2.611c.668 0 1.24.472 1.362 1.122l1.203 6.43a1.375 1.375 0 01-1.362 1.62H1.385A1.378 1.378 0 010 18.765V16.07c0-.757.62-1.37 1.385-1.37h6.166v-2.366z" fill="#1B314B"/><path fill-rule="evenodd" clip-rule="evenodd" d="M5.442 20.135v.743h-.983v-.743h.983zm3.237.743v-.743h.983v.743h-.983zM21.692.308a.625.625 0 010 .884c-2.144 2.144-5.811 3.465-9.595 3.678-3.792.212-7.843-.682-10.75-3.143a.625.625 0 01.807-.954c2.592 2.193 6.291 3.05 9.873 2.849 3.592-.202 6.925-1.458 8.781-3.314a.625.625 0 01.884 0zm.84 2.614c.181.294.09.68-.204.86-3.374 2.076-7.81 3.031-11.864 3-4.025-.032-7.856-1.04-9.906-3.09a.625.625 0 11.884-.884c1.7 1.7 5.119 2.692 9.032 2.723 3.882.03 8.072-.89 11.198-2.813a.625.625 0 01.86.204z" fill="#1B314B"/></svg>