<svg width="24" height="25" fill="none" xmlns="http://www.w3.org/2000/svg"><path d="M8.251 24.028a3.756 3.756 0 01-3.75-3.755V3.754A3.756 3.756 0 018.251 0h7.5a3.756 3.756 0 013.75 3.754v16.52a3.756 3.756 0 01-3.75 3.754h-7.5zm-2.25-3.755a2.253 2.253 0 002.25 2.253h7.5c1.241 0 2.25-1.01 2.25-2.253v-.75h-12v.75zm12-2.252V3.754a2.253 2.253 0 00-2.25-2.252h-7.5a2.253 2.253 0 00-2.25 2.252v14.267h12z" fill="#1B314B"/><path d="M9.6 4.498c-.331 0-.6-.336-.6-.75s.269-.75.6-.75h4.8c.33 0 .6.336.6.75s-.27.75-.6.75H9.6z" fill="#FFB65C"/></svg>