<svg width="24" height="24" fill="none" xmlns="http://www.w3.org/2000/svg"><path fill-rule="evenodd" clip-rule="evenodd" d="M4.5 22.216l6.646-3.144a2.511 2.511 0 012.192.022l6.162 3.068V1.492h-15v20.724zm15.052 1.642a1 1 0 001.448-.89V.995A.998.998 0 0020 0H4c-.552 0-1 .446-1 .995v22.008a1 1 0 001.43.9l7.36-3.483c.278-.131.602-.128.877.009l6.885 3.429z" fill="#1B314B"/><path fill-rule="evenodd" clip-rule="evenodd" d="M12.539 9.048l.745-4.971L9 11.497h2.461l-.745 4.971L15 9.048h-2.461z" fill="#FFB65C"/></svg>