<svg width="24" height="24" fill="none" xmlns="http://www.w3.org/2000/svg"><path fill-rule="evenodd" clip-rule="evenodd" d="M20.3 13.15a.75.75 0 01.75.75v8.2a.75.75 0 01-.75.75h-4.4a.75.75 0 010-1.5h3.65V13.9a.75.75 0 01.75-.75zm-16.5 0a.75.75 0 01.75.75v7.45H9.4a.75.75 0 010 1.5H3.8a.75.75 0 01-.75-.75v-8.2a.75.75 0 01.75-.75z" fill="#1B314B"/><path fill-rule="evenodd" clip-rule="evenodd" d="M11.431 2.73L1.332 12.928a.75.75 0 01-1.066-1.056l10.1-10.2.003-.002a2.2 2.2 0 013.16 0l10.2 10.2a.75.75 0 11-1.06 1.06l-10.2-10.2c-.307-.306-.732-.307-1.039 0z" fill="#1B314B"/><path fill-rule="evenodd" clip-rule="evenodd" d="M15.75 4.2a.75.75 0 01.75-.75h3.8a.75.75 0 01.75.75v5.2a.75.75 0 01-1.5 0V4.95h-2.3v.75a.75.75 0 01-1.5 0V4.2z" fill="#1B314B"/><path d="M11.6 14.6v6.9c0 .6.4 1.1 1.1 1.2.6 0 1.1-.4 1.2-1.1v-6.8" fill="#fff"/><path fill-rule="evenodd" clip-rule="evenodd" d="M11.6 13.85a.75.75 0 01.75.75v6.9c0 .203.102.387.4.448.185-.017.346-.127.4-.409v-6.74a.75.75 0 111.5 0v6.8a.635.635 0 01-.008.107c-.15 1.058-.957 1.744-1.942 1.744a.751.751 0 01-.106-.008c-1.058-.15-1.744-.958-1.744-1.942v-6.9a.75.75 0 01.75-.75z" fill="#1B314B"/><path d="M10 14.3v-3.6h4.2c1.7 0 2.9 1.3 2.9 2.9v1.6c0 .1-.1.2-.2.3-.1.1-.4.1-.5-.1-.4-.6-.9-1-1.6-1.1H10z" fill="#fff"/><path fill-rule="evenodd" clip-rule="evenodd" d="M9.25 10.7a.75.75 0 01.75-.75h4.2c2.131 0 3.65 1.653 3.65 3.65v1.6a1 1 0 01-.213.6c-.07.094-.154.178-.198.222l-.009.008c-.275.275-.646.305-.873.277a1.068 1.068 0 01-.798-.517c-.302-.444-.618-.67-1.018-.74H10a.75.75 0 01-.75-.75v-3.6zm1.5 2.85h4.05c.035 0 .07.002.106.007.582.084 1.055.32 1.444.653v-.61c0-1.203-.881-2.15-2.15-2.15h-3.45v2.1z" fill="#1B314B"/><path d="M9.8 10.4v4.1c0 .3-.2.5-.5.5H6.9V9.9h2.4c.3 0 .6.3.5.5z" fill="#fff"/><path fill-rule="evenodd" clip-rule="evenodd" d="M6.15 9.9a.75.75 0 01.75-.75h2.4c.384 0 .717.18.93.395.15.15.424.522.32.973V14.5c0 .32-.11.646-.357.893a1.249 1.249 0 01-.893.357H6.9a.75.75 0 01-.75-.75V9.9zm1.5.75v3.6h1.4v-3.6h-1.4z" fill="#1B314B"/></svg>