<svg width="25" height="25" fill="none" xmlns="http://www.w3.org/2000/svg"><path fill-rule="evenodd" clip-rule="evenodd" d="M12.755 2.008c-5.654 0-10.237 4.583-10.237 10.237s4.583 10.237 10.237 10.237 10.237-4.583 10.237-10.237S18.409 2.008 12.755 2.008zM.951 12.245C.951 5.725 6.236.441 12.755.441c6.52 0 11.804 5.285 11.804 11.804 0 6.52-5.285 11.804-11.804 11.804-6.52 0-11.804-5.285-11.804-11.804z" fill="#1B314B"/><path fill-rule="evenodd" clip-rule="evenodd" d="M17.366 5.684a1.518 1.518 0 012.05 1.417v14.468a.784.784 0 01-1.567 0V7.23l-5.632 4.008a.784.784 0 01-.148.082v2.393a.784.784 0 01-1.567 0v-2.43a1.519 1.519 0 01.875-1.37l5.809-4.135a.784.784 0 01.18-.095z" fill="#1B314B"/><path fill-rule="evenodd" clip-rule="evenodd" d="M15.645 10.777c0-.433.35-.784.784-.784h2.204a.784.784 0 010 1.567h-2.204a.784.784 0 01-.784-.783zm-1.47 2.938c0-.432.351-.783.784-.783h3.674a.784.784 0 110 1.567h-3.674a.784.784 0 01-.784-.784zM5.36 16.653c0-.433.35-.783.783-.783h3.673a.784.784 0 010 1.567H6.143a.784.784 0 01-.784-.784zm8.13-11.068c.433 0 .783.35.783.783v3a.784.784 0 11-1.567 0v-3c0-.432.351-.783.784-.783z" fill="#1B314B"/><path fill-rule="evenodd" clip-rule="evenodd" d="M7.612 14.498a.686.686 0 00-.686.686v5.877a.784.784 0 01-1.567 0v-5.877a2.253 2.253 0 012.253-2.253h3.674a2.253 2.253 0 012.253 2.253v8.081a.784.784 0 11-1.568 0v-8.081a.686.686 0 00-.685-.686H7.612z" fill="#1B314B"/></svg>