<svg width="24" height="25" fill="none" xmlns="http://www.w3.org/2000/svg"><path d="M16.478 24.008a.752.752 0 01-.624-.333 12.747 12.747 0 00-10.617-5.671c-1.426 0-2.834.238-4.186.708a.752.752 0 01-.955-.462.752.752 0 01.462-.955 14.21 14.21 0 015.441-.77v-3.021H2.25a1.507 1.507 0 01-.743-.198 1.493 1.493 0 01-.703-.907 1.492 1.492 0 01.183-1.2l2.07-2.945H2.25a.751.751 0 01-.642-1.138L5.484.7a1.496 1.496 0 011.56-.667c.393.079.732.306.954.639l3.894 6.445c.14.23.144.52.012.756a.753.753 0 01-.654.38h-.806l2.071 2.948a1.506 1.506 0 01.235.803c0 .827-.673 1.5-1.5 1.5H7.5v3.184c1.142.183 2.257.505 3.323.958a16.43 16.43 0 017.178-3.712v-2.68h-3.136c-.239 0-.473-.062-.679-.181a1.354 1.354 0 01-.637-.826 1.356 1.356 0 01.175-1.1l1.723-2.393h-.377a.75.75 0 01-.633-1.154L17.609.623a1.37 1.37 0 011.409-.594c.358.07.666.277.868.58l3.18 4.99a.75.75 0 01-.632 1.154h-.378l1.722 2.394a1.377 1.377 0 01.221.747 1.355 1.355 0 01-.401.963 1.355 1.355 0 01-.962.397h-3.135v2.404a16.539 16.539 0 013.82-.081c.199.019.38.114.507.269a.742.742 0 01.168.549.756.756 0 01-.82.675 14.552 14.552 0 00-1.363-.067h-.082a15.062 15.062 0 00-2.873.275 14.891 14.891 0 00-6.572 3.088 14.301 14.301 0 014.815 4.473.75.75 0 01-.623 1.169zm-5.232-12.004l-2.859-4.07a.746.746 0 01-.052-.776A.746.746 0 019 6.754h.921L6.75 1.504l-3.171 5.25H4.5a.75.75 0 01.614 1.18l-2.859 4.07h8.991zm5.664-6.75a.75.75 0 01.609 1.188l-2.384 3.312 7.23-.001-2.382-3.312a.748.748 0 01.608-1.188h.474L18.751 1.62l-2.315 3.634h.474z" fill="#1B314B"/></svg>