<svg width="24" height="26" fill="none" xmlns="http://www.w3.org/2000/svg"><path fill-rule="evenodd" clip-rule="evenodd" d="M22.682.325L11.011 0 8.148.295C7.57.355 7.13.86 7.126 1.465l-.028 4.13c.45-.125.878-.236 1.261-.33l.025-3.672 2.02-.208v15.748c-.44.23-1.071.565-1.644.87l-.49.26.058-8.384c-.408.234-.847.476-1.264.704L7 20h14.401c.299 0 .58-.123.79-.338L24 17.812l-.215-16.32C23.776.858 23.29.343 22.682.326zm-11.02 16.557V1.334l10.866.303.2 15.245H11.664zm-.481 1.316h10.643l-.476.486H10.257c.363-.192.693-.366.924-.486z" fill="#1B314B"/><path fill-rule="evenodd" clip-rule="evenodd" d="M8.684 6.58v1.834a30.396 30.396 0 01-1.722 1.004c-.453.25-.913.496-1.337.722l-.45.241c-.485.26-.984.53-1.215.692a1.64 1.64 0 00-.607.846l-1.21 3.704h-.815c.017-.878.058-2.003.15-3.114.062-.756.146-1.486.258-2.116.113-.632.24-1.081.36-1.346a.99.99 0 01.141-.136c.144-.118.36-.26.653-.416.587-.314 1.365-.624 2.226-.914a42.426 42.426 0 013.568-1zM10 5.546V9.03c0 .316-2.197 1.492-3.782 2.34-.733.392-1.336.714-1.528.848a.273.273 0 00-.092.146l-1.393 4.263a.528.528 0 01-.497.373H.524A.533.533 0 010 16.452c.014-1.838.12-6.315.924-8.033.75-1.606 6.536-2.988 8.458-3.407.323-.07.618.189.618.534z" fill="#1B314B"/><path fill-rule="evenodd" clip-rule="evenodd" d="M1.666 15.87a.614.614 0 01.388.777c-.294.883-.47 2.566-.416 4.183.027.8.11 1.554.251 2.157.15.639.336.984.478 1.108a.614.614 0 11-.808.924c-.454-.397-.709-1.08-.866-1.752C.528 22.56.44 21.72.411 20.87c-.057-1.68.119-3.529.479-4.61a.614.614 0 01.777-.388z" fill="#1B314B"/><path d="M16.143 13a.412.412 0 01-.15-.028.452.452 0 01-.279-.422V9.4h-1.071a.63.63 0 01-.413-.158.683.683 0 01-.228-.46.694.694 0 01.15-.493l3.38-4.132a.42.42 0 01.474-.13c.168.066.28.236.28.423V7.6h1.072c.152 0 .298.057.413.158a.7.7 0 01.079.952l-3.382 4.133a.42.42 0 01-.325.157zm0-4.5a.44.44 0 01.428.45v2.386l2.32-2.837-1.034.001a.44.44 0 01-.428-.45V5.664l-2.32 2.837 1.034-.001z" fill="#1B314B"/></svg>