<svg width="24" height="25" fill="none" xmlns="http://www.w3.org/2000/svg"><path fill-rule="evenodd" clip-rule="evenodd" d="M2.25 18.02A2.253 2.253 0 010 15.769V3.754a2.253 2.253 0 012.25-2.252H4.5V.75a.75.75 0 111.5 0v.75h6V.75a.75.75 0 111.5 0v.75h2.25C16.991 1.5 18 2.51 18 3.753V8.26a.75.75 0 11-1.5 0v-.75h-15v8.26c0 .414.336.75.75.75h6a.75.75 0 010 1.502h-6zM16.5 6.008V3.754a.75.75 0 00-.75-.75H13.5v.75a.75.75 0 11-1.5 0v-.75H6v.75a.75.75 0 11-1.5 0v-.75H2.25a.75.75 0 00-.75.75v2.253h15z" fill="#1B314B"/><path d="M16.5 17.27c0 .414.336.75.75.75h2.652a.75.75 0 000-1.501H18v-1.903a.75.75 0 10-1.5 0v2.654z" fill="#1B314B"/><path fill-rule="evenodd" clip-rule="evenodd" d="M17.25 24.028c-3.722 0-6.75-3.032-6.75-6.758s3.028-6.758 6.75-6.758S24 13.544 24 17.27s-3.028 6.758-6.75 6.758zm0-12.014A5.259 5.259 0 0012 17.27a5.259 5.259 0 005.25 5.256 5.259 5.259 0 005.25-5.256 5.259 5.259 0 00-5.25-5.256z" fill="#1B314B"/></svg>