<svg width="24" height="25" fill="none" xmlns="http://www.w3.org/2000/svg"><path d="M6.483 24.026A3.488 3.488 0 013 20.542V4.987A3.488 3.488 0 016.483 1.5H9a.75.75 0 010 1.502H6.483A1.987 1.987 0 004.5 4.987v13.032H15v-2.253a.75.75 0 111.5 0v4.774a3.488 3.488 0 01-3.482 3.486H6.483zM4.5 20.54c0 1.094.89 1.984 1.982 1.984h6.535c1.093 0 1.983-.89 1.983-1.984v-1.02H4.5v1.02z" fill="#1B314B"/><path d="M15.75 6.382a1.124 1.124 0 01-.058-2.249h.004l.026-.002h-.019a1.127 1.127 0 11.047 2.25z" fill="#FFB65C"/><path d="M15.749 13.441a1.488 1.488 0 01-1.182-.577C12.712 10.489 10.5 7.24 10.5 5.256A5.259 5.259 0 0115.75 0 5.259 5.259 0 0121 5.256c0 1.982-2.212 5.232-4.068 7.609a1.49 1.49 0 01-1.183.576zm.001-11.94A3.756 3.756 0 0012 5.257c0 1.162 1.437 3.723 3.75 6.684 2.313-2.963 3.75-5.524 3.75-6.684a3.756 3.756 0 00-3.75-3.754z" fill="#1B314B"/></svg>