<svg width="18" height="25" fill="none" xmlns="http://www.w3.org/2000/svg"><path d="M8.207 15.877a.75.75 0 01-.648-1.127l1.88-3.242-3.241-1.882a1.5 1.5 0 01.064-2.63l3.27-1.51-.7-.407a.754.754 0 01-.373-.658.752.752 0 01.39-.648l6.572-3.6a1.523 1.523 0 01.694-.17 1.495 1.495 0 011.494 1.406l.001.034.132 7.497a.751.751 0 01-1.124.663l-.698-.405.312 3.588a1.513 1.513 0 01-.199.812 1.505 1.505 0 01-2.05.545l-3.245-1.883-1.882 3.242a.75.75 0 01-.649.375zm6.524-3.033L14.3 7.89a.749.749 0 011.122-.714l.796.462-.108-6.156v.022L10.732 4.45l.799.465a.75.75 0 01-.063 1.329L6.953 8.329l3.855 2.238a.497.497 0 01.07.042l3.853 2.235zM7.7 24.004a.75.75 0 01-.75-.75v-5.25a.75.75 0 011.5 0v5.25a.75.75 0 01-.75.75zm-6.75-6.75a.75.75 0 010-1.5H3.2a.75.75 0 010 1.5H.95zm3.568-3.182a.743.743 0 01-.53-.22L2.397 12.26a.743.743 0 01-.22-.53c0-.2.078-.39.22-.53a.743.743 0 01.53-.22c.2 0 .389.078.53.22l1.591 1.59a.752.752 0 010 1.062.744.744 0 01-.53.219zm7.682 3.182a.75.75 0 010-1.5h2.25a.75.75 0 010 1.5H12.2zm.273 4.773a.743.743 0 01-.53-.22l-1.591-1.591a.752.752 0 01.53-1.281c.2 0 .389.078.53.22l1.591 1.59a.744.744 0 010 1.06.748.748 0 01-.53.222zm-9.546 0a.752.752 0 01-.53-1.281l1.591-1.591a.744.744 0 011.06 0 .752.752 0 010 1.06l-1.591 1.592a.741.741 0 01-.53.22z" fill="#1B314B"/></svg>