<svg width="23" height="22" fill="none" xmlns="http://www.w3.org/2000/svg"><path fill-rule="evenodd" clip-rule="evenodd" d="M16.86 1.86a.646.646 0 01.566-.738l3.702-.477a1 1 0 011.116.838l.558 3.601a.646.646 0 01-.565.738.687.687 0 01-.768-.566l-.506-3.26-3.334.43a.687.687 0 01-.768-.566z" fill="#1B314B"/><path fill-rule="evenodd" clip-rule="evenodd" d="M20.872 1.934a.652.652 0 01.158.92l-2.907 3.92a.68.68 0 01-.94.137.652.652 0 01-.158-.92l2.907-3.921a.681.681 0 01.94-.136z" fill="#1B314B"/><path d="M1.453 22A1.455 1.455 0 010 20.547V8.922c0-.802.652-1.453 1.453-1.453h1.453v-.485a.485.485 0 01.969 0v.485h7.75v-.485a.485.485 0 01.969 0v.485h1.453c.801 0 1.453.651 1.453 1.453v11.625c0 .801-.652 1.453-1.453 1.453H1.453zm0-13.563a.485.485 0 00-.484.485v11.625c0 .267.217.484.484.484h12.594a.485.485 0 00.484-.484V8.922a.485.485 0 00-.484-.485h-1.453v.485a.485.485 0 01-.969 0v-.485h-7.75v.485a.485.485 0 01-.969 0v-.485H1.453z" fill="#1B314B"/><path d="M8.234 18.61a.485.485 0 010-.97h2.907a.485.485 0 010 .97H8.234zm0-4.844a.485.485 0 010-.97h2.907a.485.485 0 010 .97H8.234zM4.36 19.578a.48.48 0 01-.343-.142l-1.453-1.453a.48.48 0 010-.685.48.48 0 01.685 0l1.058 1.059 1.7-2.267a.489.489 0 01.677-.096.482.482 0 01.097.678l-2.034 2.712a.484.484 0 01-.388.194zm0-5.038a.48.48 0 01-.343-.142l-1.453-1.453a.48.48 0 010-.684.48.48 0 01.685 0l1.058 1.058 1.7-2.266a.488.488 0 01.678-.097.483.483 0 01.096.678l-2.034 2.713a.484.484 0 01-.388.194z" fill="#1B314B"/></svg>