<svg width="25" height="25" fill="none" xmlns="http://www.w3.org/2000/svg"><path fill-rule="evenodd" clip-rule="evenodd" d="M21.07 20.263L12.44 4.44a.5.5 0 00-.879 0l-8.63 15.823a.5.5 0 00.439.74h17.262a.5.5 0 00.439-.74zm1.317-.718c.727 1.333-.237 2.957-1.755 2.957H3.37c-1.518 0-2.483-1.624-1.756-2.957l8.63-15.823c.759-1.39 2.754-1.39 3.512 0l8.631 15.823z" fill="#1B314B"/><path d="M11.985 19.658a.986.986 0 01-.984-.984c0-.542.442-.984.984-.984.543 0 .985.442.985.984a.986.986 0 01-.985.984zm0-3.281a.656.656 0 01-.656-.656V9.159a.656.656 0 011.312 0v6.562a.657.657 0 01-.656.656z" fill="#1B314B"/></svg>