<svg width="19" height="25" fill="none" xmlns="http://www.w3.org/2000/svg"><path d="M9 8.254a4.13 4.13 0 01-4.125-4.125A4.13 4.13 0 019 .004a4.13 4.13 0 014.125 4.125A4.13 4.13 0 019 8.254zm0-6.75a2.629 2.629 0 00-2.625 2.625A2.629 2.629 0 009 6.754a2.628 2.628 0 002.625-2.625A2.628 2.628 0 009 1.504z" fill="#1B314B"/><path d="M6.081 10.504a.75.75 0 01-.362-1.407A6.821 6.821 0 019 8.249c1.139 0 2.274.293 3.281.847a.747.747 0 01.296 1.019.75.75 0 01-1.019.296A5.326 5.326 0 009 9.75c-.888 0-1.772.229-2.559.66a.745.745 0 01-.36.094z" fill="#1B314B"/><path d="M9 24.004a.544.544 0 01-.094-.011.697.697 0 01-.195-.051.728.728 0 01-.143-.081.429.429 0 01-.066-.048c-.033-.03-3.387-2.97-6.564-3.293A2.222 2.222 0 010 18.278v-5.512a2.217 2.217 0 012.454-2.246c2.745.307 5.488 2.073 6.546 2.824 1.058-.75 3.8-2.517 6.542-2.823.082-.01.161-.013.24-.013h.053a2.224 2.224 0 012.166 2.277v5.509a2.207 2.207 0 01-1.912 2.224c-3.211.327-6.556 3.267-6.59 3.296a.54.54 0 01-.063.046.731.731 0 01-.229.11.713.713 0 01-.11.022.378.378 0 01-.097.012zm.75-2.294c1.453-1.05 3.775-2.438 6.16-2.681a.705.705 0 00.59-.72v-5.543a.73.73 0 00-.702-.758h-.017a.662.662 0 00-.077.004c-2.487.278-5.147 2.063-5.954 2.642v7.056zm-7.532-9.702a.718.718 0 00-.718.739v5.547a.72.72 0 00.616.738c2.364.24 4.682 1.628 6.134 2.678v-7.056c-.808-.58-3.471-2.365-5.958-2.642a.58.58 0 00-.074-.004z" fill="#1B314B"/></svg>