<svg width="25" height="25" fill="none" xmlns="http://www.w3.org/2000/svg"><path d="M19.023 24.068a6.288 6.288 0 01-3.411-1.01A50.513 50.513 0 011.993 9.417C.387 6.893.734 3.665 2.833 1.563L3.607.79A2.578 2.578 0 015.442.03c.694 0 1.345.27 1.834.76l3.262 3.27a2.602 2.602 0 01-.002 3.67 1.1 1.1 0 00.001 1.551l5.232 5.24c.193.192.468.306.76.306s.567-.114.773-.32c.49-.49 1.141-.76 1.835-.76s1.345.269 1.835.758l3.261 3.264a2.603 2.603 0 010 3.673l-.774.775a6.236 6.236 0 01-4.436 1.852zm-2.581-2.262a4.84 4.84 0 002.583.758 4.74 4.74 0 003.372-1.41l.774-.775a1.1 1.1 0 000-1.55l-3.26-3.263a1.086 1.086 0 00-.774-.32c-.293 0-.568.114-.774.32-.489.49-1.141.76-1.834.76a2.57 2.57 0 01-1.824-.75L9.477 10.34a2.603 2.603 0 010-3.674 1.098 1.098 0 00.001-1.546l-.027-.028L6.215 1.85a1.089 1.089 0 00-.773-.319c-.293 0-.568.115-.775.32l-.774.775a4.766 4.766 0 00-.653 5.958 48.996 48.996 0 0013.202 13.222z" fill="#1B314B"/></svg>