<svg width="24" height="24" fill="none" xmlns="http://www.w3.org/2000/svg"><g clip-path="url(#clip0)"><path fill-rule="evenodd" clip-rule="evenodd" d="M15.79 3.239a.742.742 0 01.65-.849l4.4-.567a1 1 0 011.117.838l.664 4.284a.742.742 0 01-.65.848.79.79 0 01-.883-.65l-.582-3.748-3.833.494a.79.79 0 01-.883-.65z" fill="#1B314B"/><path fill-rule="evenodd" clip-rule="evenodd" d="M20.402 3.323a.75.75 0 01.182 1.058L17.24 8.889a.783.783 0 01-1.081.156.75.75 0 01-.181-1.058L19.32 3.48a.783.783 0 011.081-.156z" fill="#1B314B"/><path d="M15.239 10.28h0a1.212 1.212 0 00-.889-.395H6.54c-.707 0-1.267.626-1.267 1.377v11.071c0 .752.56 1.378 1.267 1.378h9.344c.708 0 1.268-.627 1.268-1.378V12.9a1.45 1.45 0 00-.38-.983h0L15.24 10.28zm.843 2.383h0a.35.35 0 01.091.236v9.434c0 .189-.138.326-.29.326H6.54c-.15 0-.289-.137-.289-.326v-11.07c0-.19.138-.326.29-.326h7.81a.27.27 0 01.198.089l1.533 1.637z" fill="#1B314B" stroke="#1B314B" stroke-width=".2"/><path d="M8.121 15.094c-.215 0-.39-.191-.39-.426 0-.234.175-.425.39-.425h6.229c.215 0 .39.19.39.425s-.176.426-.39.426H8.121zm0 2.554c-.215 0-.39-.19-.39-.425s.175-.425.39-.425h6.229c.215 0 .39.19.39.425s-.175.425-.39.425H8.121zm0 2.555c-.215 0-.39-.19-.39-.425s.175-.425.39-.425h3.114c.215 0 .39.19.39.425s-.175.425-.39.425H8.122z" fill="#1B314B"/><path d="M2.566 11.614a.464.464 0 010-.928h.928a.464.464 0 010 .928h-.928zm0 2.802a.464.464 0 010-.927h.928a.464.464 0 010 .927h-.928zm0 2.804a.464.464 0 010-.928h.928a.464.464 0 010 .928h-.928z" fill="#FFB65C"/><path fill-rule="evenodd" clip-rule="evenodd" d="M1.402 8.083a.476.476 0 00-.33.132.442.442 0 00-.138.318v9.911c0 .12.05.234.137.319a.476.476 0 00.33.131h2.687a.46.46 0 01.467.451.46.46 0 01-.467.45H1.402c-.372 0-.729-.142-.992-.395a1.327 1.327 0 01-.41-.956v-9.91c0-.36.148-.703.41-.956.263-.254.62-.396.992-.396h6.62a1.429 1.429 0 011.024.43l.66.788a.44.44 0 01-.069.634.479.479 0 01-.657-.067L8.338 8.2a.477.477 0 00-.316-.118h-6.62z" fill="#1B314B" stroke="#1B314B" stroke-width=".3" stroke-linecap="round" stroke-linejoin="round"/></g><defs><clipPath id="clip0"><path fill="#fff" d="M0 0h24v24H0z"/></clipPath></defs></svg>