<svg width="24" height="24" fill="none" xmlns="http://www.w3.org/2000/svg"><path d="M17.25 24a.75.75 0 01-.75-.75v-.75h-9v.75a.75.75 0 01-1.5 0v-.75H4.799A1.801 1.801 0 013 20.701V1.799C3 .807 3.807 0 4.799 0h14.402C20.193 0 21 .807 21 1.799v18.902c0 .992-.807 1.799-1.799 1.799H18v.75a.75.75 0 01-.75.75zM4.5 20.701a.3.3 0 00.299.299h14.402a.3.3 0 00.299-.299V9h-15v11.701zM19.5 7.5V1.799a.3.3 0 00-.299-.299H4.799a.3.3 0 00-.299.299V7.5h15z" fill="#1B314B"/><path d="M6.75 18a.75.75 0 01-.75-.75v-4.5a.75.75 0 011.5 0v4.5a.75.75 0 01-.75.75zm0-12A.75.75 0 016 5.25v-1.5a.75.75 0 011.5 0v1.5a.75.75 0 01-.75.75z" fill="#1B314B"/></svg>