<svg width="201" height="158" fill="none" xmlns="http://www.w3.org/2000/svg"><path d="M111.8 60.3c1.6-.9 3.2-1.9 4.6-3.1 3.6-23.9-8.7-28.2-10.5-36.3 3.4 1.6 4.8 1.8 6.9 2.1-1.8-6.4-2.2-13.4-1.4-19.6-3.4-1.7-7.1-2.6-11-2.6-3 0-5.9.6-8.6 1.6 2.7 32.5 22.9 26.5 20 57.9zm12.9-27.5c-3.3-.2-5.6-.8-6.9-1.3 3.1 7.2 3.1 16 2.4 22 4.7-5.6 7.6-13.2 7.6-21.6 0-11.3-5.3-21.3-13.2-26.7-.1 16 9.9 27.6 10.1 27.6zm-36 10.8c-.4 2.3-2 6-3.1 7.4-4-9.5-9.1-12.3-11.7-26-.5 2.3-.7 4.6-.7 7 0 17.2 12.2 31.2 27.3 31.2h.3c-.6-8.8-3.8-13.6-12.1-19.6z" fill="#0064A3"/><path d="M84.1 38.1c.7-1.7 1.3-4.8 1.5-8.4 5.2 10.8 18.1 14.4 18.4 33.2 1.5-.2 3-.6 4.5-1.1.7-29.2-19.4-22.6-19.5-58.1-5.8 3.1-10.4 8.5-13.1 15.1.7 6 3 14 8.2 19.3zm2.8 119.892s-2.4-.1-3.8-1.5c-.7-.6-2.3-3-2.3-3l-12-18.1v22.1H65v-28.7h3.8l14.5 22.2v-22.2h3.6v29.2zm14.8 0c-2.9 0-5.2-1-7.1-2.9-1.8-1.9-2.7-4.4-2.7-7.6v-.7c0-2.1.4-4 1.2-5.7.8-1.7 1.9-3 3.4-3.9 1.5-.9 3-1.4 4.7-1.4 2.8 0 4.9.9 6.5 2.7 1.5 1.8 2.3 4.4 2.3 7.9v1.5H95.5c.1 2.1.7 3.8 1.8 5.1 1.2 1.3 2.7 2 4.5 1.9 2.9-.1 3.9-2 4.6-2.9h3.2c0 .1-1.7 6-7.9 6zm-.5-19.1c-1.5 0-2.7.5-3.7 1.6s-1.6 2.6-1.9 4.5h10.7v-.3c-.1-1.9-.6-3.3-1.5-4.3-.8-1-2.1-1.5-3.6-1.5zm22.6.2v-2.9h-4.2v-5.2h-3.7v5.2h-3.2v2.9h3.2v14.8c0 2.8 1.9 4.1 3.9 4.1 1.2 0 2-.7 2.9-1.8l.1-.2h-.2c-1.7-.4-3.1-.8-3.1-4.2v-12.8h4.3v.1zm12.3 0v-2.9h-4.2v-5.2h-3.7v5.2H125v2.9h3.2v14.8c0 2.8 1.9 4.1 3.9 4.1 1.2 0 2-.7 2.9-1.8l.1-.2h-.2c-1.7-.4-3.1-.8-3.1-4.2v-12.8h4.3v.1zM24.4 75.2V92H7V75.2H.1v41.7H7V98h17.4v14.9c0 1.3.6 2.6 1.6 3.3.9.7 2.4 1.3 5.1.7h.2V75.2h-6.9zm27.9 30.4c0 4.4-2.3 6.8-6.8 6.8-4.2 0-5.1-2.4-5.1-4.4 0-3.9 3-5.9 8.8-5.9.6 0 1.5.1 2.8.3h.2v3.2h.1zm6.5 2.3v-6.6c0-5.9-1.1-9.9-3.2-11.9-2.1-2.1-5.5-3.1-10.1-3.1-3.1 0-5.9.5-8.3 1.6l-.2.1 1.4 5 .2-.1c1.8-.8 3.9-1.2 6.4-1.2 5.9 0 7.2 3.1 7.2 5.7v.4c-.2 0-.4-.1-.4-.1-1.1-.3-2.1-.4-2.9-.4-4.8 0-8.6 1-11.2 3-2.6 2-3.9 4.6-3.9 8.1 0 2.9.9 5.2 2.7 6.8 1.8 1.6 4.4 2.4 7.6 2.4 1.7 0 3.4-.3 5-1 1.6-.6 2.7-1.5 3.3-2.5 0 0 .2-.3.3-.6l.2.6c.3.8.8 1.6 1.6 2.4 1.9 1.5 3.9 1.2 5 .7s1.7-1.5 1.7-1.5l-.1-.1c-1.6-1.3-2.3-3.8-2.3-7.7zm12.3-22.1c0-1.8.5-3.3 1.5-4.5 1-1.2 2.3-1.9 3.7-1.9.8 0 1.9.2 3.3.7l.2.1 1.9-4.9-.2-.1c-2.2-.6-4.1-1-5.7-1-3.2 0-5.9 1.1-7.9 3.4s-3.1 5.3-3.3 9v.3h-4.5v5.3h4.5V117h6.6V92.2h6.2v-5.3H71v-1.1h.1zm21.5 13.8c-2.7-1.1-4.5-1.9-5.4-2.6-.9-.7-1.3-1.5-1.3-2.4 0-2.2 1.4-3.3 4.1-3.3 2.5 0 4.6.6 6.2 1.7l.2.2 1.8-5-.2-.1c-2.7-1.3-5.5-1.9-8.5-1.9-3.1 0-5.6.7-7.6 2.2-2 1.4-2.9 3.4-2.9 6 0 3.9 2.5 6.8 7.8 9 2.5 1 4.1 1.9 5 2.7.9.8 1.4 1.8 1.4 3.1 0 2.1-1.6 3.3-4.5 3.3-2.5 0-4.8-.8-6.9-2.3l-.2-.1-2.3 5.1.2.1c1.7.9 3.2 1.5 4.3 1.8 6.5 1.8 11.2-.3 13.3-1.9 2.1-1.6 3.1-3.7 3.1-6.5 0-2.1-.6-3.8-1.7-5.3-1.3-1.5-3.2-2.8-5.9-3.8zm16.9 8.3V75.2h-6.6V111c0 4.4 1.5 6.5 4.6 6.5 2.3 0 4-.8 5.1-2.5l.1-.2-.2-.1c-2-1-3-3.2-3-6.8zm24.6-21.1v21c-.5 1.2-1.5 2.2-2.9 3.1-1.4.9-3 1.3-4.7 1.3-3.7 0-5.6-2.1-5.6-6.2V86.9h-6.6v19.6c0 7.4 3.4 11.1 10.4 11.1 1.5 0 3.1-.3 4.8-.9 1.7-.6 3.1-1.3 4.1-2.2 0 0 .4-.3.6-.5.4.9 2.1 3.9 6.3 3h.2V86.9h-6.6v-.1zm25.1-.6c-3.7 0-6.5 1.1-8.4 3.4 0 0-.1.2-.3.3-.4-.9-1.9-3.7-6-3.1h-.2v30.1h6.6v-22l.1-.1c.7-.9 1.7-1.7 2.9-2.3 1.2-.6 2.4-.9 3.5-.9 2.4 0 4.1.6 5.2 1.9 1 1.3 1.6 3.3 1.6 5.9v17.5h6.6V98.3c0-3.8-1-6.9-3.1-9-2-2-4.9-3.1-8.5-3.1zm35.1 23.8c-.1.1-.1.1 0 0-.4.5-1.1 1-2.2 1.4-1.1.4-1.9.6-2.7.6-6.3 0-9.6-3.3-9.6-9.9 0-3.3.8-5.9 2.4-7.7 1.6-1.8 3.9-2.7 6.9-2.7 1.7 0 3.4.6 5 1.9 0 0 .1 0 .1.1V110h.1zm0-34.8v12.6l-.4-.2c-1.9-.9-4-1.4-6.2-1.4-4.1 0-7.6 1.5-10.4 4.5-2.8 3-4.2 6.9-4.2 11.7 0 4.8 1.2 8.5 3.6 11.2 2.4 2.6 5.7 4 9.9 4 1.5 0 2.9-.2 4.3-.7 1.4-.5 2.3-1 2.9-1.6 0 0 .3-.3.5-.6v2.3h6.6V75.2h-6.6z" fill="#0064A3"/></svg>