<svg width="24" height="24" fill="none" xmlns="http://www.w3.org/2000/svg"><path d="M3.078 13.26l-.481.134a1.303 1.303 0 002.555-.345 1.298 1.298 0 00-1.301-1.291.298.298 0 01-.303-.293c0-.156.13-.292.3-.292a1.3 1.3 0 001.256-.957 1.276 1.276 0 00-.132-.985l-.385.226.385-.226a1.297 1.297 0 00-1.127-.644 1.303 1.303 0 00-1.254.958l.483.13-.483-.131a.3.3 0 01-.366.207h0a.293.293 0 01-.215-.357h0c.13-.483.444-.888.885-1.14a1.922 1.922 0 011.449-.19 1.877 1.877 0 011.344 2.297h0a1.877 1.877 0 01-.418.764l-.304.336.305.335c.312.344.483.783.484 1.25-.001 1.03-.85 1.878-1.905 1.879a1.908 1.908 0 01-1.835-1.378.286.286 0 01.028-.22.296.296 0 01.18-.138h.001a.302.302 0 01.372.206l.482-.135zm0 0a.803.803 0 001.574-.211.78.78 0 00-.235-.56m-1.339.771a.802.802 0 00-.986-.553l2.325-.218m0 0a.799.799 0 00-.566-.232.798.798 0 01-.803-.792c0-.437.36-.792.8-.792a.8.8 0 00.774-.588.797.797 0 00-.567-.971l.362 3.375zm16.165-.598l.075-.062.047-.085c.207-.38.316-.828.316-1.272 0-.713-.481-1.49-1.293-1.49-.812 0-1.292.777-1.292 1.49a.626.626 0 01-.123.388c-.067.084-.13.102-.17.102-.04 0-.103-.018-.17-.102a.626.626 0 01-.122-.388c0-1.473.94-2.472 1.877-2.472s1.878.999 1.878 2.472c0 .775-.214 1.526-.589 2.112a.385.385 0 01-.079.091h0l-.002.002-.462.38-1.079.887h1.918c.04 0 .103.018.17.102a.558.558 0 01.1.206 2.665 2.665 0 01-.249.091c-.34.109-.809.21-1.299.3a31.215 31.215 0 01-1.905.28h-.004c-.065-.01-.198-.076-.256-.321-.063-.262.036-.512.155-.61l2.558-2.101zm-9.575 2.449h.5V8.585h-1.293a.293.293 0 010-.585h.793c.598 0 1.085.487 1.085 1.085v5.255h1.292a.293.293 0 010 .585h-3.17a.293.293 0 010-.585h.793z" fill="#1B314B" stroke="#1B314B"/><path fill-rule="evenodd" clip-rule="evenodd" d="M1.5 20.25a.75.75 0 01.75-.75h19.5a.75.75 0 010 1.5H2.25a.75.75 0 01-.75-.75zm0-16.5A.75.75 0 012.25 3h19.5a.75.75 0 010 1.5H2.25a.75.75 0 01-.75-.75z" fill="#FFB65C"/></svg>