<svg width="22" height="25" fill="none" xmlns="http://www.w3.org/2000/svg"><path d="M7.25 10.88a.717.717 0 01-.131-.012 1.125 1.125 0 01-.982-.982.701.701 0 010-.262c.06-.513.47-.922.982-.982a.717.717 0 01.262 0c.513.06.922.47.982.982a.71.71 0 010 .262c-.06.513-.47.922-.982.982a.701.701 0 01-.131.012zm7.5 0a.817.817 0 01-.131-.01 1.125 1.125 0 01-.982-.984.698.698 0 010-.26c.06-.513.47-.923.983-.983a.717.717 0 01.262 0c.513.06.922.47.982.983a.698.698 0 010 .26c-.06.513-.469.922-.982.983a.84.84 0 01-.132.011z" fill="#1B314B"/><path d="M11 24.091a6.736 6.736 0 01-4.345-1.59 2.674 2.674 0 01-.155.005 5.959 5.959 0 01-4.243-1.759A5.961 5.961 0 01.5 16.504v-2.1a3.874 3.874 0 011.377-2.973 3.858 3.858 0 011.72-.84 3.643 3.643 0 01-.097-.836c0-1.492.894-2.839 2.25-3.433V4.6L3.5 3.986v2.02a.75.75 0 01-1.5 0l.001-3.02a.722.722 0 01.049-.245.766.766 0 01.095-.176l.03-.038A.733.733 0 012.31 2.4l.037-.025a.703.703 0 01.148-.073.579.579 0 01.057-.02L10.413.138a2.287 2.287 0 011.183 0l7.851 2.14a.752.752 0 01.001 1.449L17 4.396v2.361a3.744 3.744 0 011.366 3.991 3.86 3.86 0 011.63.743A3.862 3.862 0 0121.5 14.52v2.073c-.031 3.264-2.707 5.917-5.966 5.917h-.059c-.044 0-.089-.003-.133-.005A6.738 6.738 0 0111 24.091zm-3.369-2.729A5.243 5.243 0 0011 22.592c1.23 0 2.423-.437 3.368-1.229a.742.742 0 01.341-.312 5.207 5.207 0 001.541-3.71v-2.337a.75.75 0 011.5 0v2.337a6.76 6.76 0 01-.977 3.492A4.442 4.442 0 0020 16.584v-2.058a2.37 2.37 0 00-.922-1.851 2.348 2.348 0 00-1.452-.497h-.021a3.72 3.72 0 01-3.894 1.176l-2.181 2.18a.744.744 0 01-1.06 0l-2.181-2.18c-.341.1-.69.15-1.039.15a3.747 3.747 0 01-2.993-1.493 2.359 2.359 0 00-1.41.563A2.378 2.378 0 002 14.404v2.1c0 1.202.468 2.333 1.318 3.183a4.445 4.445 0 001.903 1.135 6.762 6.762 0 01-.971-3.48v-2.338a.75.75 0 011.5 0v2.337c0 1.403.547 2.72 1.543 3.712.141.066.26.174.338.31zM11 13.945l1.33-1.329A3.74 3.74 0 0111 9.756a3.754 3.754 0 013.75-3.75c.251 0 .502.025.75.077V4.806l-3.902 1.066a2.247 2.247 0 01-1.19 0L7.25 5.008v.996A3.754 3.754 0 0111 9.755c0 1.111-.49 2.151-1.329 2.86L11 13.945zm3.75-6.44a2.252 2.252 0 00-2.25 2.25 2.252 2.252 0 002.25 2.25A2.252 2.252 0 0017 9.755c0-1.24-1.009-2.25-2.25-2.25zm-7.5 0A2.253 2.253 0 005 9.755a2.252 2.252 0 002.25 2.25 2.252 2.252 0 002.25-2.25c0-1.24-1.009-2.25-2.25-2.25zm3.552-3.08a.762.762 0 00.402 0l5.197-1.42-5.199-1.418a.768.768 0 00-.397 0L5.602 3.005l5.2 1.42z" fill="#1B314B"/></svg>