<svg width="24" height="24" fill="none" xmlns="http://www.w3.org/2000/svg"><g clip-path="url(#clip0)"><path d="M19.2 0H4.8C3.8 0 3 .8 3 1.8v20.5c0 1 .8 1.8 1.8 1.8h14.5c1 0 1.8-.8 1.8-1.8V1.8C21 .8 20.2 0 19.2 0zm.3 22.2c0 .1-.1.2-.2.2H4.8c-.1 0-.2-.1-.2-.2v-8.8h15v8.8h-.1zm0-10.2h-15V4.5h15V12zm0-9h-15V1.8c0-.1.1-.2.2-.2h14.5c.1 0 .2.1.2.2V3h.1z" fill="#1B314B"/><path d="M9.5 21.1c1.7 0 3-1.3 3-3s-1.3-3-3-3-3 1.3-3 3 1.4 3 3 3zm0-4.5c.8 0 1.5.7 1.5 1.5s-.7 1.5-1.5 1.5S8 18.9 8 18.1s.7-1.5 1.5-1.5z" fill="#1B314B"/><path d="M16.3 17.3c.6 0 1.1-.5 1.1-1.1 0-.6-.5-1.1-1.1-1.1-.6 0-1.1.5-1.1 1.1 0 .6.5 1.1 1.1 1.1zm0 3.8a1.1 1.1 0 100-2.2 1.1 1.1 0 000 2.2z" fill="#FFB65C"/><path d="M13.4 5.9h-3v.9h2.1v1h-2.1v.9h2.1v1.2h-2.1v.9h3V5.9zM9 9.9H6.9V8.7H9V5.9H6v.9h2.1v1H6v3h3v-.9zm8.6-2.1h-1.9v-1h1.9v-.9h-2.8v2.8h1.9v1.2h-1.9v.9h2.8v-3z" fill="#1B314B"/></g><defs><clipPath id="clip0"><path fill="#fff" d="M0 0h24v24H0z"/></clipPath></defs></svg>