<svg width="34" height="24" fill="none" xmlns="http://www.w3.org/2000/svg"><path d="M5.745 17.143C4.14 19.058 2.224 20.417 0 21.22L1.297 24c1.854-.556 3.707-1.405 5.56-2.548a23.424 23.424 0 004.958-4.078 20.508 20.508 0 003.52-5.235c.897-1.915 1.345-3.861 1.345-5.838 0-1.977-.572-3.475-1.715-4.494C13.822.787 12.355.185 10.564 0c-.556 0-1.251.232-2.085.695a10.69 10.69 0 00-2.363 1.807 10.52 10.52 0 00-1.853 2.502c-.495.927-.71 1.884-.65 2.872.68.31 1.56.726 2.642 1.251 1.08.526 1.869 1.097 2.363 1.715-.31 2.285-1.267 4.386-2.873 6.3zm16.865 0c-1.606 1.915-3.521 3.274-5.745 4.077L18.162 24c1.854-.556 3.707-1.405 5.56-2.548a23.421 23.421 0 004.957-4.078 20.506 20.506 0 003.522-5.235c.895-1.915 1.343-3.861 1.343-5.838 0-1.977-.571-3.475-1.714-4.494C30.687.787 29.22.185 27.43 0c-.556 0-1.251.232-2.085.695a10.688 10.688 0 00-2.363 1.807 10.52 10.52 0 00-1.854 2.502c-.494.927-.71 1.884-.648 2.872.68.31 1.56.726 2.64 1.251 1.082.526 1.87 1.097 2.364 1.715-.31 2.285-1.267 4.386-2.873 6.3z" fill="#1B314B"/></svg>