<svg width="24" height="24" fill="none" xmlns="http://www.w3.org/2000/svg"><g clip-path="url(#clip0)"><path d="M.788 21.321a.75.75 0 010-1.5h.748v-8.068l-.639.128a.752.752 0 01-.772-1.151.743.743 0 01.477-.319l8.42-1.684V4.591l-1.085-.475a.75.75 0 01.602-1.375l9.469 4.142V4.101a.75.75 0 01.75-.75h2.995a.75.75 0 01.75.75V8.85l1.044.457a.747.747 0 01.387.988.749.749 0 01-.987.386l-.443-.194v9.333h.747a.75.75 0 010 1.5H.788v.001zm20.215-1.5v-9.99l-10.48-4.584V19.82h1.495v-3.742a2.252 2.252 0 012.25-2.25h3a2.252 2.252 0 012.25 2.25l-.009 3.742h1.494v.001zm-2.994 0l.009-3.743a.75.75 0 00-.75-.749h-3a.75.75 0 00-.75.75v3.742h4.491zm-8.986 0v-9.565l-5.987 1.198v8.368h5.987v-.001zm11.98-11.627V4.851h-1.495V7.54l1.495.654z" fill="#1B314B"/><path d="M12.768 10.466a1.12 1.12 0 01-1.114-1c-.003-.017-.004-.035-.005-.052a.432.432 0 01.001-.146l.005-.055c.06-.513.469-.924.982-.984a.717.717 0 01.262-.001c.528.062.938.485.985 1.015a.645.645 0 01.001.181 1.108 1.108 0 01-1.004 1.032h-.003a.733.733 0 01-.107.009l-.003.001z" fill="#FFB65C"/><path fill-rule="evenodd" clip-rule="evenodd" d="M4.375 15.5c0-.345.28-.625.625-.625h2a.625.625 0 110 1.25H5a.625.625 0 01-.625-.625zm0 2c0-.345.28-.625.625-.625h2a.625.625 0 110 1.25H5a.625.625 0 01-.625-.625zm0 2c0-.345.28-.625.625-.625h2a.625.625 0 110 1.25H5a.625.625 0 01-.625-.625z" fill="#FFB65C"/><path fill-rule="evenodd" clip-rule="evenodd" d="M4.625 13c.345 0 .625.28.625.625v7.75a.625.625 0 11-1.25 0v-7.75c0-.345.28-.625.625-.625zm2.5 0c.345 0 .625.28.625.625v7.75a.625.625 0 11-1.25 0v-7.75c0-.345.28-.625.625-.625z" fill="#FFB65C"/></g><defs><clipPath id="clip0"><path fill="#fff" d="M0 0h24v24H0z"/></clipPath></defs></svg>