<svg width="24" height="25" fill="none" xmlns="http://www.w3.org/2000/svg"><path fill-rule="evenodd" clip-rule="evenodd" d="M12 24.24c-6.617 0-12-5.389-12-12.013C0 5.602 5.383.213 12 .213s12 5.39 12 12.014S18.617 24.24 12 24.24zm0-9.01a.75.75 0 01-.75-.75v-1.008a2.254 2.254 0 011.5-2.124 2.256 2.256 0 00.841-3.717A2.23 2.23 0 0012 6.971c-.601 0-1.166.235-1.591.66-.425.425-.659.99-.659 1.592a.751.751 0 01-.75.751.751.751 0 01-.75-.75c0-1.004.391-1.946 1.099-2.655A3.723 3.723 0 0112 5.47a3.757 3.757 0 013.75 3.755 3.76 3.76 0 01-2.5 3.54.752.752 0 00-.5.707v1.008a.75.75 0 01-.75.751zm1.125 2.628a1.126 1.126 0 11-2.251.001 1.126 1.126 0 012.251 0z" fill="#1B314B"/></svg>