<svg width="24" height="24" fill="none" xmlns="http://www.w3.org/2000/svg"><path d="M18.406 22.506a.75.75 0 01-.75-.75v-.75a3.754 3.754 0 00-3.75-3.75h-1.5a.75.75 0 01-.75-.75v-6.75a.75.75 0 00-1.5 0v9a.754.754 0 01-.749.75.75.75 0 01-.561-.253l-1.935-2.178a.808.808 0 00-1.207 1.073l2.764 3.11a.75.75 0 11-1.121.996l-2.764-3.11a2.294 2.294 0 01-.579-1.668 2.304 2.304 0 012.303-2.171c.66 0 1.289.282 1.725.774l.625.704V9.756a2.252 2.252 0 012.25-2.25 2.252 2.252 0 012.25 2.25v6h.75a5.256 5.256 0 015.25 5.25v.751a.752.752 0 01-.751.75z" fill="#1B314B"/><path d="M6.941 10.413a.938.938 0 00.363-1.275 4.219 4.219 0 117.464-.162.937.937 0 101.677.839 6.094 6.094 0 10-10.78.235.948.948 0 001.276.363z" fill="#1B314B"/></svg>