<svg width="24" height="25" fill="none" xmlns="http://www.w3.org/2000/svg"><path d="M.75 24.525a.746.746 0 01-.638-.355.747.747 0 01-.033-.731L11.329.913A.746.746 0 0112 .497c.286 0 .543.16.671.416l11.25 22.526a.747.747 0 01-.032.73.757.757 0 01-.639.356H.75zm21.287-1.502L12 2.927 1.964 23.023h20.073z" fill="#1B314B"/><path d="M10.5 21.521a.737.737 0 01-.216-.034l-.054-.019a.389.389 0 01-.067-.027.745.745 0 01-.106-.066l-.016-.012a.764.764 0 01-.151-.159l-.024-.035a.762.762 0 01-.093-.216l-.75-3.004a.752.752 0 01.727-.933.75.75 0 01.728.569l.258 1.034 1.551-3.104H9.75a.748.748 0 01-.689-1.046l2.25-5.257a.752.752 0 01.985-.394c.38.163.557.606.394.986l-1.803 4.209H13.5c.258 0 .502.136.638.355.138.225.15.497.033.731L11.9 19.646l1.418-.354a.748.748 0 01.91.547c.1.401-.144.81-.545.91l-3 .75a.817.817 0 01-.183.023z" fill="#1B314B"/></svg>