<svg width="24" height="24" fill="none" xmlns="http://www.w3.org/2000/svg"><g clip-path="url(#clip0)"><path d="M1.544 21.978h10.29c.228 0 .405.176.405.386 0 .21-.178.387-.405.387H1.544a.396.396 0 01-.406-.387c0-.21.178-.386.406-.386zm0-1.2c-.905 0-1.644.707-1.644 1.586 0 .88.74 1.587 1.644 1.587h10.29c.904 0 1.644-.707 1.644-1.587s-.74-1.586-1.644-1.586H1.544z" fill="#1B314B" stroke="#1B314B" stroke-width=".2"/><mask id="a" maskUnits="userSpaceOnUse" x="12.041" y="6.544" width="13" height="16" fill="#000"><path fill="#fff" d="M12.041 6.544h13v16h-13z"/><path fill-rule="evenodd" clip-rule="evenodd" d="M14.981 8.728l7.18 7.179a.535.535 0 01-.757.756l-7.179-7.179a.535.535 0 11.756-.756zM13.5 8.002c.61-.61 1.599-.61 2.209 0l7.178 7.179a1.56 1.56 0 01.192 1.976c.11.1.188.237.213.4l.576 3.74a.685.685 0 01-.814.774l-5.377-1.1c-.624-.128-.75-.964-.192-1.27l3.637-2a1.56 1.56 0 01-.444-.311L13.5 10.21a1.562 1.562 0 010-2.208zm5.296 12.15l3.556-1.955.426 2.77-3.982-.815z"/></mask><path fill-rule="evenodd" clip-rule="evenodd" d="M14.981 8.728l7.18 7.179a.535.535 0 01-.757.756l-7.179-7.179a.535.535 0 11.756-.756zM13.5 8.002c.61-.61 1.599-.61 2.209 0l7.178 7.179a1.56 1.56 0 01.192 1.976c.11.1.188.237.213.4l.576 3.74a.685.685 0 01-.814.774l-5.377-1.1c-.624-.128-.75-.964-.192-1.27l3.637-2a1.56 1.56 0 01-.444-.311L13.5 10.21a1.562 1.562 0 010-2.208zm5.296 12.15l3.556-1.955.426 2.77-3.982-.815z" fill="#1B314B"/><path d="M22.16 15.907l.142-.142-.142.142zm-7.179-7.179l.142-.141-.142.141zm6.423 7.935l.141-.141-.141.141zm-7.179-7.179l.141-.14-.141.14zm0-.756l-.141-.141.141.141zm1.483-.726l-.142.141.142-.141zm-2.21 0l.142.141-.141-.141zm9.388 7.179l-.141.141.141-.141zm.192 1.976l-.166-.112-.096.143.127.117.135-.148zm.213.4l.198-.03-.198.03zm.576 3.74l.197-.031-.197.03zm-.814.774l.04-.196-.04.196zm-5.377-1.1l-.04.196.04-.196zm-.192-1.27l-.097-.176.097.175zm3.637-2l.097.175.345-.19-.357-.166-.084.181zm-.444-.311l.142-.142-.142.142zM13.5 10.21l-.142.142.142-.141zm8.852 7.987l.197-.03-.043-.283-.25.138.096.175zm-3.556 1.955l-.097-.176-.477.262.534.11.04-.196zm3.982.814l-.04.196.281.058-.044-.284-.197.03zm-.476-5.2l-7.178-7.18-.283.284 7.179 7.178.283-.282zm0 1.039a.735.735 0 000-1.04l-.282.283c.13.131.13.343 0 .474l.283.283zm-1.039 0a.735.735 0 001.04 0l-.283-.283a.335.335 0 01-.474 0l-.283.283zm-7.178-7.18l7.178 7.18.283-.283-7.179-7.179-.282.283zm0-1.038a.735.735 0 000 1.039l.282-.283a.335.335 0 010-.473l-.282-.283zm1.039 0a.735.735 0 00-1.04 0l.283.283a.335.335 0 01.474 0l.283-.283zm.726-.727a1.762 1.762 0 00-2.492 0l.283.283a1.362 1.362 0 011.926 0l.283-.283zm7.179 7.18L15.85 7.86l-.283.283 7.179 7.18.283-.284zm.216 2.229a1.762 1.762 0 00-.216-2.23l-.283.283c.468.469.524 1.194.167 1.723l.332.224zm.245.258a.878.878 0 00-.276-.518l-.27.296c.077.07.133.167.15.283l.396-.06zm.575 3.739l-.575-3.739-.395.061.575 3.739.395-.061zm-1.051 1.001a.885.885 0 001.051-1.001l-.395.06a.485.485 0 01-.576.55l-.08.391zm-5.377-1.1l5.377 1.1.08-.392-5.377-1.1-.08.392zm-.249-1.642c-.721.396-.558 1.477.249 1.642l.08-.392a.485.485 0 01-.136-.9l-.193-.35zm3.638-2l-3.638 2 .193.35 3.638-1.999-.193-.35zm-.489.006c.15.15.32.267.501.351l.17-.362a1.36 1.36 0 01-.388-.272l-.283.283zm-7.179-7.179l7.179 7.179.283-.283-7.179-7.179-.283.283zm0-2.492a1.762 1.762 0 000 2.492l.283-.283a1.362 1.362 0 010-1.926l-.283-.283zm8.897 10.162l-3.556 1.954.193.35 3.556-1.953-.193-.35zm.72 2.914l-.426-2.769-.395.06.426 2.77.395-.061zm-4.22-.588l3.983.814.08-.392-3.982-.814-.08.392z" fill="#1B314B" mask="url(#a)"/><path d="M6.104 14.538l1.347-.934v.995H6.033a.442.442 0 01.071-.061zm2.832-3.676c-.736 0-1.349.532-1.465 1.23l-2.077 1.44c-.378.261-.614.65-.69 1.067H1.385A1.479 1.479 0 00-.1 16.07v2.693c0 .814.666 1.472 1.485 1.472H12.75c.928 0 1.63-.834 1.46-1.74l-1.16-6.207 2.684-1.86c.76-.528.945-1.566.412-2.319a1.69 1.69 0 00-2.339-.408l-4.562 3.161h-.309zm2.611 0h-.14l3.11-2.154c.2-.139.475-.09.615.107a.432.432 0 01-.108.605l-2.548 1.766a1.492 1.492 0 00-.929-.324zM8.59 15.828h.1v-3.494c0-.133.11-.243.246-.243h2.611c.12 0 .22.084.242.199l1.203 6.43a.244.244 0 01-.242.286H1.385a.245.245 0 01-.246-.243V16.07c0-.133.11-.242.246-.242H8.59z" fill="#1B314B" stroke="#1B314B" stroke-width=".2"/><path d="M5.442 20.978h.1v-.943H4.359v.943h1.083zm3.237-.943h-.1v.943h1.183v-.943H8.679z" fill="#1B314B" stroke="#1B314B" stroke-width=".2"/><path fill-rule="evenodd" clip-rule="evenodd" d="M21.692.308a.625.625 0 010 .884c-2.144 2.144-5.811 3.465-9.595 3.678-3.792.212-7.843-.682-10.75-3.143a.625.625 0 01.807-.954c2.592 2.193 6.291 3.05 9.873 2.849 3.592-.202 6.925-1.458 8.781-3.314a.625.625 0 01.884 0zm.84 2.614c.181.294.09.68-.204.86-3.374 2.076-7.81 3.031-11.864 3-4.025-.032-7.856-1.04-9.906-3.09a.625.625 0 11.884-.884c1.7 1.7 5.119 2.692 9.032 2.723 3.882.03 8.072-.89 11.198-2.813a.625.625 0 01.86.204z" fill="#FFB65C"/></g><defs><clipPath id="clip0"><path fill="#fff" d="M0 0h24v24H0z"/></clipPath></defs></svg>