<svg width="25" height="25" fill="none" xmlns="http://www.w3.org/2000/svg"><path d="M1.748 24.24a.755.755 0 01-.531-.22.756.756 0 01-.196-.717l1.77-6.913a.832.832 0 01.045-.12.73.73 0 01.151-.224L17.513 1.503a4.353 4.353 0 013.098-1.29c1.178 0 2.277.454 3.106 1.28l.029.03a4.374 4.374 0 011.251 3.124 4.363 4.363 0 01-1.32 3.09L9.183 22.249a.735.735 0 01-.231.154.784.784 0 01-.111.042l-6.908 1.774a.773.773 0 01-.185.023zm1.041-1.793l4.41-1.132-3.281-3.279-1.129 4.411zm5.868-1.797l13.02-13.035-4.074-4.078L4.58 16.576l4.077 4.074zM22.736 6.552a2.9 2.9 0 00-.059-3.976l-.02-.02a2.87 2.87 0 00-2.037-.841v-.376l-.001.376a2.871 2.871 0 00-1.954.762l4.071 4.075z" fill="#1B314B"/></svg>