<svg width="24" height="24" fill="none" xmlns="http://www.w3.org/2000/svg"><g clip-path="url(#clip0)"><path fill-rule="evenodd" clip-rule="evenodd" d="M16.86 3.86a.646.646 0 01.566-.738l3.702-.477a1 1 0 011.116.839l.558 3.6a.646.646 0 01-.565.738.687.687 0 01-.768-.566l-.506-3.26-3.334.43a.687.687 0 01-.768-.566z" fill="#1B314B"/><path fill-rule="evenodd" clip-rule="evenodd" d="M20.872 3.934a.652.652 0 01.158.92l-2.907 3.92a.68.68 0 01-.94.137.652.652 0 01-.159-.92l2.908-3.921a.68.68 0 01.94-.136z" fill="#1B314B"/><path d="M1.453 24A1.454 1.454 0 010 22.547V10.922c0-.802.652-1.453 1.453-1.453h1.453v-.485a.485.485 0 01.969 0v.485h7.75v-.485a.485.485 0 01.969 0v.485h1.453c.801 0 1.453.651 1.453 1.453v11.625c0 .801-.652 1.453-1.453 1.453H1.453zm0-13.563a.485.485 0 00-.484.485v11.625c0 .267.217.484.484.484h12.594a.485.485 0 00.484-.484V10.922a.485.485 0 00-.484-.485h-1.453v.485a.485.485 0 01-.969 0v-.485h-7.75v.485a.485.485 0 01-.969 0v-.485H1.453z" fill="#1B314B"/><path d="M8.234 20.61a.485.485 0 010-.97h2.907a.485.485 0 010 .97H8.234zm0-4.844a.485.485 0 010-.97h2.907a.485.485 0 010 .97H8.234z" fill="#FFB65C"/><path d="M4.36 21.578a.48.48 0 01-.343-.142l-1.453-1.453a.48.48 0 010-.685.48.48 0 01.685 0l1.058 1.059 1.7-2.266a.488.488 0 01.677-.097.483.483 0 01.097.678l-2.034 2.712a.484.484 0 01-.388.194zm0-5.038a.48.48 0 01-.343-.142l-1.453-1.453a.48.48 0 010-.684.48.48 0 01.685 0l1.058 1.058 1.7-2.266a.488.488 0 01.678-.097.483.483 0 01.096.678l-2.034 2.713a.484.484 0 01-.388.194z" fill="#1B314B"/></g><defs><clipPath id="clip0"><path fill="#fff" d="M0 0h24v24H0z"/></clipPath></defs></svg>