<svg width="24" height="24" fill="none" xmlns="http://www.w3.org/2000/svg"><g clip-path="url(#clip0)"><path d="M21.305 4.364h0a1.657 1.657 0 00-1.215-.54H9.157c-.966 0-1.736.856-1.736 1.889v15.499c0 1.033.77 1.888 1.736 1.888h13.08c.965 0 1.735-.855 1.735-1.888V8.004a1.99 1.99 0 00-.52-1.349h0l-2.147-2.291zm1.24 3.282h0a.528.528 0 01.137.358v13.208c0 .282-.207.496-.445.496H9.157c-.238 0-.445-.214-.445-.496v-15.5c0-.282.207-.496.445-.496H20.09a.42.42 0 01.308.138l2.146 2.292z" fill="#1B314B" stroke="#1B314B" stroke-width=".2"/><path d="M11.369 11.076c-.3 0-.545-.267-.545-.595 0-.329.244-.596.545-.596h8.72c.301 0 .545.267.545.596 0 .328-.244.595-.545.595h-8.72zm0 3.577c-.3 0-.545-.267-.545-.596 0-.328.244-.595.545-.595h8.72c.301 0 .545.267.545.595 0 .33-.244.596-.545.596h-8.72zm0 3.577c-.3 0-.545-.267-.545-.596 0-.328.244-.595.545-.595h4.36c.3 0 .545.267.545.595 0 .329-.245.596-.545.596h-4.36z" fill="#1B314B"/><path d="M3.593 6.204a.65.65 0 010-1.299H4.89a.65.65 0 010 1.3H3.593zm0 3.924a.65.65 0 010-1.299H4.89a.65.65 0 010 1.3H3.593zm0 3.925a.65.65 0 010-1.3H4.89a.65.65 0 010 1.3H3.593z" fill="#FFB65C"/><path fill-rule="evenodd" clip-rule="evenodd" d="M1.962 1.261a.667.667 0 00-.462.185.62.62 0 00-.192.446v13.875a.62.62 0 00.192.446.666.666 0 00.462.184h3.76c.362 0 .655.283.655.631 0 .348-.293.63-.654.63h-3.76a2 2 0 01-1.388-.553A1.858 1.858 0 010 15.767V1.892C0 1.39.207.909.575.554A2 2 0 011.962 0h9.269a2 2 0 011.387.554.62.62 0 01.046.05l.925 1.101a.615.615 0 01-.097.887.67.67 0 01-.92-.093l-.9-1.072a.667.667 0 00-.441-.166H1.962z" fill="#1B314B" stroke="#1B314B" stroke-width=".3" stroke-linecap="round" stroke-linejoin="round"/></g><defs><clipPath id="clip0"><path fill="#fff" d="M0 0h24v24H0z"/></clipPath></defs></svg>