<svg width="24" height="24" fill="none" xmlns="http://www.w3.org/2000/svg"><path d="M12 24a.75.75 0 01-.75-.75v-2.939l-2.531 2.025a.75.75 0 11-.938-1.171l3.469-2.775v-2.207l-2.498-1.442-1.911 1.103-.669 4.392a.745.745 0 01-.855.628.745.745 0 01-.491-.297.743.743 0 01-.137-.557l.488-3.206-2.546 1.47A.748.748 0 011.606 18a.745.745 0 01.274-1.024l2.546-1.47-3.02-1.18a.747.747 0 01-.425-.972.746.746 0 01.97-.426l4.139 1.617 1.911-1.103v-2.884l-1.91-1.103-4.137 1.617a.748.748 0 01-.961-.999.745.745 0 01.414-.398l3.02-1.18-2.546-1.47A.746.746 0 011.607 6a.754.754 0 011.025-.274l2.546 1.47-.489-3.206a.748.748 0 01.742-.863c.367 0 .686.274.741.637l.669 4.392 1.911 1.103 2.498-1.442V5.61L7.781 2.836a.747.747 0 01-.117-1.054.747.747 0 011.054-.118l2.531 2.025V.75a.75.75 0 011.501 0v2.939l2.531-2.025a.753.753 0 011.054.117.75.75 0 01-.117 1.054L12.75 5.61v2.206l2.498 1.442 1.911-1.103.669-4.392a.754.754 0 01.855-.628c.197.03.372.135.491.297a.743.743 0 01.137.557l-.488 3.205 2.546-1.47a.748.748 0 011.099.843.749.749 0 01-.349.456l-2.546 1.47 3.02 1.18a.75.75 0 01-.273 1.448.728.728 0 01-.273-.052L17.91 9.452l-1.911 1.103v2.884l1.911 1.103 4.137-1.617a.746.746 0 01.972.426.75.75 0 01-.426.971l-3.02 1.18 2.546 1.47a.75.75 0 01-.751 1.298l-2.545-1.47.488 3.206a.746.746 0 01-.741.863.755.755 0 01-.741-.637l-.669-4.391-1.911-1.103-2.498 1.442v2.207l3.469 2.775a.75.75 0 01-.937 1.171l-2.531-2.025v2.939A.755.755 0 0112 24zm0-9.116l2.498-1.442v-2.884L12 9.116l-2.498 1.442v2.884L12 14.884z" fill="#1B314B"/></svg>