<svg width="24" height="24" fill="none" xmlns="http://www.w3.org/2000/svg"><path d="M6 12.75a.75.75 0 111.5 0v8.5a.75.75 0 01-1.5 0v-8.5zm11 6.5a.75.75 0 111.5 0v2.5a.75.75 0 01-1.5 0v-2.5z" fill="#FFB65C"/><path fill-rule="evenodd" clip-rule="evenodd" d="M3.975 1.398A1.622 1.622 0 015.122.923h3.243a1.622 1.622 0 011.622 1.622v18.919H14.5V9a1.622 1.622 0 011.622-1.622h3.243A1.622 1.622 0 0120.987 9v12.464h.818a.81.81 0 110 1.621H2.657a.81.81 0 110-1.621H3.5V2.544c0-.43.17-.842.475-1.146zm15.39 20.066V9h-3.243v12.464h3.243zm-11-18.92H5.122v18.92h3.243V2.544z" fill="#1B314B"/><path fill-rule="evenodd" clip-rule="evenodd" d="M17.5.5a.5.5 0 01.5.5v5a.5.5 0 01-1 0V1a.5.5 0 01.5-.5z" fill="#1B314B"/><path fill-rule="evenodd" clip-rule="evenodd" d="M15.646 4.146a.5.5 0 01.708 0L17.5 5.293l1.146-1.147a.5.5 0 01.708.708l-1.5 1.5a.5.5 0 01-.708 0l-1.5-1.5a.5.5 0 010-.708z" fill="#1B314B"/></svg>