<svg width="24" height="24" fill="none" xmlns="http://www.w3.org/2000/svg"><path d="M23.251 24a.75.75 0 000-1.5h-.75v-3.25c0-.689-.561-1.25-1.25-1.25H18.5c-.689 0-1.25.561-1.25 1.25v3.25h-2.249v-9c0-.689-.561-1.25-1.25-1.25H11c-.689 0-1.25.561-1.25 1.25v9H7.5V7.75c0-.688-.56-1.249-1.248-1.25H3.5c-.689 0-1.25.561-1.25 1.25V22.5h-.749a.75.75 0 000 1.5h21.75zM3.75 22.5V8H6v14.5H3.75zm7.5 0v-8.75h2.251v8.75H11.25zm7.5 0v-3h2.251v3H18.75zm-1.003-10a.541.541 0 01-.546-.536c0-.295.245-.535.546-.535h1.412l-4.143-4.065-1.411 1.386a1.1 1.1 0 01-.773.314c-.292 0-.566-.112-.772-.314L9.17 5.914a.527.527 0 010-.757A.547.547 0 019.556 5c.146 0 .284.056.386.157l2.89 2.836 1.413-1.386c.205-.202.48-.313.771-.313.292 0 .566.111.771.312l4.145 4.065V9.286c0-.296.245-.536.546-.536.301 0 .546.24.546.536v2.678a.525.525 0 01-.034.185l-.005.012a.55.55 0 01-.3.299l-.018.007a.573.573 0 01-.19.033h-2.73z" fill="#1B314B"/></svg>