<svg width="23" height="24" fill="none" xmlns="http://www.w3.org/2000/svg"><path fill-rule="evenodd" clip-rule="evenodd" d="M21.563 19.716v-7.934c0-5.694-4.506-10.31-10.063-10.31-5.54 0-10.063 4.707-10.063 10.418 0 5.832 4.618 10.637 10.276 10.637h7.105c.627 0 1.03 0 1.341-.02.299-.019.414-.052.468-.073.391-.149.7-.464.845-.865.02-.056.052-.173.07-.48.02-.317.02-.731.02-1.373zM11.5 0C5.149 0 0 5.383 0 11.89 0 18.517 5.244 24 11.713 24h7.105c1.217 0 1.826 0 2.312-.186a2.91 2.91 0 001.689-1.73c.181-.498.181-1.121.181-2.368v-7.934C23 5.275 17.851 0 11.5 0z" fill="#1B314B"/><path fill-rule="evenodd" clip-rule="evenodd" d="M7.236 10.582c.8 0 1.447.66 1.447 1.473a1.46 1.46 0 01-1.447 1.473c-.8 0-1.447-.66-1.447-1.473a1.46 1.46 0 011.447-1.473zm4.342 0c.799 0 1.447.66 1.447 1.473a1.46 1.46 0 01-1.447 1.473c-.8 0-1.447-.66-1.447-1.473a1.46 1.46 0 011.447-1.473zm4.342 0c.799 0 1.446.66 1.446 1.473a1.46 1.46 0 01-1.447 1.473c-.799 0-1.447-.66-1.447-1.473a1.46 1.46 0 011.447-1.473z" fill="#1B314B"/></svg>