<svg width="24" height="24" fill="none" xmlns="http://www.w3.org/2000/svg"><path d="M.75 23.25a.75.75 0 010-1.5h.75V2.25H.75a.75.75 0 010-1.5h22.5a.75.75 0 010 1.5h-.75v19.5h.75a.75.75 0 010 1.5H.75zM21 21.75V8.25H3v13.5h18zm0-15v-4.5H3v4.5h18z" fill="#1B314B"/><path d="M6.211 20.25A1.714 1.714 0 014.5 18.539v-7.078c0-.943.768-1.711 1.711-1.711h11.578c.943 0 1.711.768 1.711 1.711v7.078c0 .943-.768 1.711-1.711 1.711H6.211zm0-9a.212.212 0 00-.211.211v7.078c0 .116.095.211.211.211h11.578a.212.212 0 00.211-.211v-7.078a.212.212 0 00-.211-.211H6.211z" fill="#1B314B"/><path d="M9 14.25a.75.75 0 010-1.5h6a.75.75 0 010 1.5H9zM5.25 5.625a1.125 1.125 0 100-2.25 1.125 1.125 0 000 2.25zm3 0a1.125 1.125 0 100-2.25 1.125 1.125 0 000 2.25zm5.25-.375a.75.75 0 010-1.5h5.25a.75.75 0 010 1.5H13.5z" fill="#1B314B"/></svg>