<svg width="24" height="24" fill="none" xmlns="http://www.w3.org/2000/svg"><path d="M9.88 9.985a.75.75 0 01-.53-1.28 2.253 2.253 0 000-3.182 3.755 3.755 0 010-5.304.746.746 0 011.06.001.744.744 0 010 1.06 2.253 2.253 0 000 3.182 3.754 3.754 0 010 5.303.743.743 0 01-.53.22zm4.007 0a.75.75 0 01-.53-1.28 2.252 2.252 0 000-3.181 3.755 3.755 0 010-5.304.743.743 0 01.53-.22c.2 0 .389.078.53.22a.744.744 0 010 1.06c-.425.425-.659.99-.659 1.591s.234 1.166.659 1.591a3.754 3.754 0 010 5.303.743.743 0 01-.53.22zm4.007 0a.748.748 0 01-.75-.75c0-.2.078-.389.22-.53a2.252 2.252 0 000-3.181 3.755 3.755 0 010-5.304.743.743 0 01.53-.22c.2 0 .389.078.53.22a.744.744 0 010 1.06 2.253 2.253 0 000 3.182 3.754 3.754 0 010 5.303.743.743 0 01-.53.22zm.856 9.515a.75.75 0 01-.75-.75v-6a.75.75 0 011.5 0v6a.75.75 0 01-.75.75zm-6 0a.75.75 0 01-.75-.75v-6a.75.75 0 011.5 0v6a.75.75 0 01-.75.75zm3 0a.75.75 0 01-.75-.75v-6a.75.75 0 011.5 0v6a.75.75 0 01-.75.75zm-6 0a.75.75 0 01-.75-.75v-6a.75.75 0 011.5 0v6a.75.75 0 01-.75.75zM4.5 10.125a1.125 1.125 0 100-2.25 1.125 1.125 0 000 2.25zm0 4.5a1.125 1.125 0 100-2.25 1.125 1.125 0 000 2.25z" fill="#1B314B"/><path d="M20.25 24a.75.75 0 01-.75-.75v-.75h-15v.75a.75.75 0 01-1.5 0v-.75h-.75A2.252 2.252 0 010 20.25V6.75A2.252 2.252 0 012.25 4.5h3a.75.75 0 010 1.5h-3a.75.75 0 00-.75.75v13.5c0 .414.336.75.75.75h19.5a.75.75 0 00.75-.75V6.75a.75.75 0 00-.75-.75.75.75 0 010-1.5A2.252 2.252 0 0124 6.75v13.5a2.252 2.252 0 01-2.25 2.25H21v.75a.75.75 0 01-.75.75z" fill="#1B314B"/></svg>