<svg width="24" height="24" fill="none" xmlns="http://www.w3.org/2000/svg"><path d="M7.93 24a.75.75 0 010-1.5h2.414l.733-2.935c-1.29-1.004-2.236-2.503-2.813-4.46a2.261 2.261 0 00-1.369-1.473l-3.2-1.2A3.751 3.751 0 011.5 10.236L.464 7.481a2.21 2.21 0 012.068-2.976c.837 0 1.591.464 1.97 1.212l.683 1.369a.747.747 0 00.671.414h7.323V3H4.93a.75.75 0 010-1.5h8.25V.75a.75.75 0 011.5 0v.75h8.25a.75.75 0 010 1.5h-8.25v4.5c1.227 0 3.328.376 5.21 1.437 2.166 1.222 3.456 3.006 3.731 5.161a.709.709 0 01.016.15c.03.271.043.517.043.752a5.964 5.964 0 01-1.756 4.242 5.973 5.973 0 01-2.59 1.525l.432 1.733h1.354l1.28-1.28a.744.744 0 011.06 0 .749.749 0 010 1.06l-1.5 1.5a.755.755 0 01-.53.22H7.93zm10.29-1.5l-.377-1.503a4.297 4.297 0 01-.162.003h-2.25a7.408 7.408 0 01-3.009-.625L11.89 22.5h6.33zM2.531 6.005a.699.699 0 00-.641.412.698.698 0 00-.02.54L2.903 9.71c.228.61.71 1.09 1.318 1.318l3.2 1.2a3.77 3.77 0 012.281 2.454c.531 1.799 1.981 4.818 5.727 4.818h2.25a4.475 4.475 0 003.183-1.318A4.468 4.468 0 0022.18 15h-3.75a3.754 3.754 0 01-3.75-3.75V9H5.857C5 9 4.227 8.524 3.844 7.756l-.683-1.365a.7.7 0 00-.629-.386zM16.18 11.25a2.252 2.252 0 002.25 2.25h3.54c-.865-2.972-4.226-3.996-5.79-4.316v2.066z" fill="#1B314B"/><path d="M10.93 12a.75.75 0 010-1.5h1.5a.75.75 0 010 1.5h-1.5z" fill="#1B314B"/></svg>