<svg width="24" height="24" viewBox="0 0 24 24" fill="none" xmlns="http://www.w3.org/2000/svg">
<path fill-rule="evenodd" clip-rule="evenodd" d="M5.25 24C5.134 24 5.018 23.973 4.914 23.921C4.659 23.793 4.5 23.536 4.5 23.25V19.5H2.25C1.009 19.5 0 18.491 0 17.25V2.25C0 1.009 1.009 0 2.25 0H21.75C22.991 0 24 1.009 24 2.25V17.25C24 18.491 22.991 19.5 21.75 19.5H11.5L5.7 23.85C5.571 23.947 5.411 24 5.25 24ZM12 12C11.586 12 11.25 11.664 11.25 11.25V10.994C11.249 10.042 11.852 9.18898 12.75 8.87198C13.647 8.55498 14.25 7.70198 14.25 6.75098C14.25 6.15098 14.016 5.58598 13.59 5.16098C13.165 4.73498 12.6 4.50098 12 4.50098C11.399 4.50098 10.834 4.73498 10.409 5.15998C9.984 5.58398 9.75 6.14898 9.75 6.74998C9.75 7.16398 9.414 7.49998 9 7.49998C8.586 7.49998 8.25 7.16298 8.25 6.74998C8.25 4.68298 9.933 3.00098 12 3.00098C13.002 3.00098 13.944 3.39098 14.652 4.09998C15.36 4.80898 15.75 5.74998 15.75 6.75198C15.75 8.33798 14.745 9.75798 13.25 10.287C12.951 10.393 12.75 10.677 12.75 10.995V11.251C12.75 11.664 12.414 12 12 12ZM13.125 14.625C13.125 15.2463 12.6213 15.75 12 15.75C11.3787 15.75 10.875 15.2463 10.875 14.625C10.875 14.0037 11.3787 13.5 12 13.5C12.6213 13.5 13.125 14.0037 13.125 14.625Z" fill="black"/>
</svg>
