<svg width="24" height="24" viewBox="0 0 24 24" fill="none" xmlns="http://www.w3.org/2000/svg">
<path d="M14.249 22.878C13.835 22.878 13.499 22.542 13.499 22.128V16.128C13.499 15.714 13.163 15.378 12.749 15.378H11.249C10.835 15.378 10.499 15.714 10.499 16.128V22.128C10.499 22.542 10.163 22.878 9.749 22.878H3.749C3.335 22.878 2.999 22.542 2.999 22.128V13.878C2.999 13.464 3.335 13.128 3.749 13.128C4.163 13.128 4.499 13.464 4.499 13.878V21.378H8.999V16.128C8.999 14.887 10.008 13.878 11.249 13.878H12.749C13.99 13.878 14.999 14.887 14.999 16.128V21.378H19.499V13.878C19.499 13.464 19.835 13.128 20.249 13.128C20.663 13.128 20.999 13.464 20.999 13.878V22.128C20.999 22.542 20.663 22.878 20.249 22.878H14.249Z" fill="black"/>
<path d="M0.749 13.128C0.549 13.128 0.36 13.05 0.219 12.908C-0.073 12.616 -0.073 12.14 0.219 11.847L10.409 1.658C10.833 1.234 11.398 1 12 1C12.601 1 13.166 1.234 13.591 1.658L15.797 3.864C15.904 3.58 16.178 3.377 16.499 3.377H20.249C20.663 3.377 20.999 3.713 20.999 4.127V9.066L23.779 11.846C24.071 12.138 24.071 12.614 23.779 12.907C23.637 13.049 23.449 13.127 23.249 13.127C23.049 13.127 22.86 13.049 22.719 12.907L12.53 2.72C12.389 2.579 12.201 2.501 12 2.501C11.799 2.501 11.611 2.579 11.469 2.72L1.279 12.909C1.138 13.05 0.949 13.128 0.749 13.128ZM19.499 7.568V4.878H17.249V5.317L19.499 7.568Z" fill="black"/>
<circle cx="12" cy="11" r="1.5" fill="#29D305"/>
</svg>
