<svg width="24" height="24" fill="none" xmlns="http://www.w3.org/2000/svg"><path fill-rule="evenodd" clip-rule="evenodd" d="M3.05 11.194l-1.717 1.734a.75.75 0 01-1.066-1.056l10.1-10.2.003-.002a2.2 2.2 0 013.16 0l2.268 2.267a.75.75 0 01.702-.487h3.8a.75.75 0 01.75.75v4.99l2.68 2.68a.75.75 0 11-1.06 1.06l-1.62-1.62V22.1h-.75.75a.75.75 0 01-.75.75h-6a.75.75 0 01-.75-.75v-6c0-.386-.364-.75-.75-.75h-1.5c-.386 0-.75.364-.75.75v6a.75.75 0 01-.75.75h-6a.75.75 0 01-.75-.75V11.194zm16.5-3.505l-2.3-2.3V4.95h2.3v2.74z" fill="#1B314B"/></svg>