<svg width="24" height="24" viewBox="0 0 24 24" fill="none" xmlns="http://www.w3.org/2000/svg">
<path fill-rule="evenodd" clip-rule="evenodd" d="M20.3 13.15C20.7142 13.15 21.05 13.4857 21.05 13.9V22.1C21.05 22.5142 20.7142 22.85 20.3 22.85H15.9C15.4858 22.85 15.15 22.5142 15.15 22.1C15.15 21.6858 15.4858 21.35 15.9 21.35H19.55V13.9C19.55 13.4857 19.8858 13.15 20.3 13.15Z" fill="black"/>
<path fill-rule="evenodd" clip-rule="evenodd" d="M3.8 13.15C4.21422 13.15 4.55 13.4857 4.55 13.9V21.35H9.4C9.81422 21.35 10.15 21.6858 10.15 22.1C10.15 22.5142 9.81422 22.85 9.4 22.85H3.8C3.38579 22.85 3.05 22.5142 3.05 22.1V13.9C3.05 13.4857 3.38579 13.15 3.8 13.15Z" fill="black"/>
<path fill-rule="evenodd" clip-rule="evenodd" d="M11.4315 2.72918C11.4311 2.72957 11.4307 2.72995 11.4303 2.73033L1.33294 12.9277C1.04149 13.222 0.566624 13.2244 0.272292 12.9329C-0.0220406 12.6415 -0.0243798 12.1666 0.267067 11.8723L10.3671 1.67229L10.3697 1.66967C11.2626 0.776777 12.6374 0.776777 13.5303 1.66967L23.7303 11.8697C24.0232 12.1626 24.0232 12.6374 23.7303 12.9303C23.4374 13.2232 22.9626 13.2232 22.6697 12.9303L12.4697 2.73033C12.1629 2.42361 11.7385 2.42322 11.4315 2.72918Z" fill="black"/>
<path fill-rule="evenodd" clip-rule="evenodd" d="M15.75 4.19995C15.75 3.78574 16.0858 3.44995 16.5 3.44995H20.3C20.7142 3.44995 21.05 3.78574 21.05 4.19995V9.39995C21.05 9.81416 20.7142 10.15 20.3 10.15C19.8858 10.15 19.55 9.81416 19.55 9.39995V4.94995H17.25V5.69995C17.25 6.11416 16.9142 6.44995 16.5 6.44995C16.0858 6.44995 15.75 6.11416 15.75 5.69995V4.19995Z" fill="black"/>
<path d="M11.6 14.5999V21.4999C11.6 22.0999 12 22.5999 12.7 22.6999C13.3 22.6999 13.8 22.2999 13.9 21.5999V21.4999V14.7999" fill="white"/>
<path fill-rule="evenodd" clip-rule="evenodd" d="M11.6 13.8499C12.0142 13.8499 12.35 14.1857 12.35 14.5999V21.4999C12.35 21.7032 12.4517 21.8866 12.75 21.9478C12.9352 21.9315 13.0959 21.8206 13.15 21.539V14.7999C13.15 14.3857 13.4858 14.0499 13.9 14.0499C14.3142 14.0499 14.65 14.3857 14.65 14.7999V21.5999C14.65 21.6354 14.6475 21.6708 14.6425 21.706C14.4913 22.7642 13.6845 23.4499 12.7 23.4499C12.6645 23.4499 12.6291 23.4474 12.5939 23.4424C11.5357 23.2912 10.85 22.4844 10.85 21.4999V14.5999C10.85 14.1857 11.1858 13.8499 11.6 13.8499Z" fill="#29D305"/>
<path d="M10 14.3V10.7H14.2C15.9 10.7 17.1 12 17.1 13.6V15.2C17.1 15.3 17 15.4 16.9 15.5C16.8 15.6 16.5 15.6 16.4 15.4C16 14.8 15.5 14.4 14.8 14.3H10V14.3Z" fill="white"/>
<path fill-rule="evenodd" clip-rule="evenodd" d="M9.25 10.7C9.25 10.2858 9.58579 9.95001 10 9.95001H14.2C16.3311 9.95001 17.85 11.6029 17.85 13.6V15.2C17.85 15.4947 17.7073 15.7069 17.6375 15.8C17.5668 15.8943 17.4825 15.9784 17.4389 16.0218C17.4358 16.0248 17.433 16.0277 17.4303 16.0303C17.1553 16.3054 16.784 16.3351 16.557 16.3067C16.3049 16.2752 15.9598 16.1401 15.7587 15.7903C15.4567 15.3464 15.141 15.1202 14.7413 15.05H10C9.58579 15.05 9.25 14.7142 9.25 14.3V10.7ZM10.75 13.55H14.8C14.8355 13.55 14.8709 13.5525 14.9061 13.5576C15.488 13.6407 15.9609 13.8778 16.35 14.2101V13.6C16.35 12.3971 15.4689 11.45 14.2 11.45H10.75V13.55Z" fill="#29D305"/>
<path d="M9.79999 10.4V14.5C9.79999 14.8 9.59999 15 9.29999 15H6.89999V9.89996H9.29999C9.59999 9.89996 9.89999 10.2 9.79999 10.4Z" fill="white"/>
<path fill-rule="evenodd" clip-rule="evenodd" d="M6.14999 9.89996C6.14999 9.48575 6.48578 9.14996 6.89999 9.14996H9.29999C9.68412 9.14996 10.0167 9.33101 10.2303 9.54463C10.3799 9.69417 10.6543 10.0671 10.55 10.5177V14.5C10.55 14.8204 10.4399 15.1457 10.1928 15.3928C9.94574 15.6399 9.62043 15.75 9.29999 15.75H6.89999C6.48578 15.75 6.14999 15.4142 6.14999 15V9.89996ZM7.64999 10.65V14.25H9.04999V10.65H7.64999Z" fill="#29D305"/>
</svg>
