<svg width="24" height="24" viewBox="0 0 24 24" fill="none" xmlns="http://www.w3.org/2000/svg">
<path fill-rule="evenodd" clip-rule="evenodd" d="M20.3347 12.9064C20.7507 12.9064 21.0879 13.2355 21.0879 13.6414V21.6771C21.0879 22.083 20.7507 22.412 20.3347 22.412H15.9163C15.5004 22.412 15.1632 22.083 15.1632 21.6771C15.1632 21.2712 15.5004 20.9421 15.9163 20.9421H19.5816V13.6414C19.5816 13.2355 19.9188 12.9064 20.3347 12.9064Z" fill="black"/>
<path fill-rule="evenodd" clip-rule="evenodd" d="M3.76568 12.9064C4.18163 12.9064 4.51882 13.2355 4.51882 13.6414V20.9421H9.38911C9.80506 20.9421 10.1422 21.2712 10.1422 21.6771C10.1422 22.083 9.80506 22.412 9.38911 22.412H3.76568C3.34973 22.412 3.01254 22.083 3.01254 21.6771V13.6414C3.01254 13.2355 3.34973 12.9064 3.76568 12.9064Z" fill="black"/>
<path fill-rule="evenodd" clip-rule="evenodd" d="M11.4291 2.69453C11.4287 2.6949 11.4283 2.69528 11.4279 2.69565L1.2883 12.6887C0.995638 12.9771 0.518783 12.9794 0.223219 12.6938C-0.0723451 12.4082 -0.0746941 11.9428 0.217972 11.6544L10.3602 1.65882L10.3628 1.65625C11.2595 0.78125 12.6401 0.78125 13.5367 1.65625L23.7794 11.6518C24.0735 11.9388 24.0735 12.4042 23.7794 12.6912C23.4853 12.9782 23.0084 12.9782 22.7143 12.6912L12.4716 2.69565C12.1636 2.39507 11.7374 2.3947 11.4291 2.69453Z" fill="black"/>
<path fill-rule="evenodd" clip-rule="evenodd" d="M15.7657 4.13585C15.7657 3.72994 16.1029 3.40088 16.5188 3.40088H20.3347C20.7507 3.40088 21.0879 3.72994 21.0879 4.13585V9.23163C21.0879 9.63754 20.7507 9.9666 20.3347 9.9666C19.9188 9.9666 19.5816 9.63754 19.5816 9.23163V4.87082H17.272V5.60579C17.272 6.0117 16.9348 6.34075 16.5188 6.34075C16.1029 6.34075 15.7657 6.0117 15.7657 5.60579V4.13585Z" fill="black"/>
<path d="M11.5984 14.3273V21.089C11.5984 21.677 12 22.167 12.703 22.265C13.3055 22.265 13.8076 21.873 13.908 21.187V21.089V14.5233" fill="white"/>
<path fill-rule="evenodd" clip-rule="evenodd" d="M11.5984 13.5924C12.0143 13.5924 12.3515 13.9214 12.3515 14.3273V21.0891C12.3515 21.2883 12.4536 21.468 12.7532 21.5279C12.9392 21.512 13.1005 21.4034 13.1548 21.1274V14.5233C13.1548 14.1174 13.492 13.7884 13.908 13.7884C14.3239 13.7884 14.6611 14.1174 14.6611 14.5233V21.1871C14.6611 21.2218 14.6586 21.2566 14.6535 21.291C14.5017 22.328 13.6915 23 12.703 23C12.6673 23 12.6317 22.9975 12.5964 22.9926C11.5338 22.8444 10.8452 22.0538 10.8452 21.0891V14.3273C10.8452 13.9214 11.1824 13.5924 11.5984 13.5924Z" fill="#29D305"/>
<path d="M9.99164 14.0334V10.5056H14.2092C15.9163 10.5056 17.1213 11.7795 17.1213 13.3474V14.9154C17.1213 15.0134 17.0209 15.1114 16.9205 15.2094C16.8201 15.3074 16.5188 15.3074 16.4184 15.1114C16.0167 14.5234 15.5147 14.1314 14.8117 14.0334H9.99164Z" fill="white"/>
<path fill-rule="evenodd" clip-rule="evenodd" d="M9.23849 10.5055C9.23849 10.0996 9.57569 9.77057 9.99163 9.77057H14.2092C16.3493 9.77057 17.8745 11.3904 17.8745 13.3474V14.9154C17.8745 15.2042 17.7312 15.4121 17.6611 15.5033C17.59 15.5958 17.5054 15.6781 17.4617 15.7206C17.4586 15.7236 17.4557 15.7264 17.4531 15.729C17.1769 15.9986 16.804 16.0277 16.576 15.9999C16.3229 15.969 15.9764 15.8366 15.7744 15.4938C15.4711 15.0588 15.1541 14.8371 14.7528 14.7684H9.99163C9.57569 14.7684 9.23849 14.4393 9.23849 14.0334V10.5055ZM10.7448 13.2984H14.8117C14.8474 13.2984 14.8829 13.3009 14.9182 13.3058C15.5026 13.3873 15.9775 13.6197 16.3682 13.9453V13.3474C16.3682 12.1686 15.4834 11.2405 14.2092 11.2405H10.7448V13.2984Z" fill="#29D305"/>
<path d="M9.7908 10.2115V14.2293C9.7908 14.5233 9.58996 14.7193 9.2887 14.7193H6.87866V9.72153H9.2887C9.58996 9.72153 9.89121 10.0155 9.7908 10.2115Z" fill="white"/>
<path fill-rule="evenodd" clip-rule="evenodd" d="M6.12552 9.72154C6.12552 9.31563 6.46271 8.98657 6.87866 8.98657H9.2887C9.67443 8.98657 10.0084 9.16399 10.2229 9.37333C10.3731 9.51987 10.6486 9.88529 10.5439 10.3269V14.2294C10.5439 14.5434 10.4334 14.8622 10.1853 15.1043C9.93715 15.3464 9.61048 15.4543 9.2887 15.4543H6.87866C6.46271 15.4543 6.12552 15.1252 6.12552 14.7193V9.72154ZM7.63179 10.4565V13.9844H9.03765V10.4565H7.63179Z" fill="#29D305"/>
</svg>
