<svg width="24" height="25" fill="none" xmlns="http://www.w3.org/2000/svg"><path d="M16.5 23.775a.75.75 0 010-1.502h2.25a.75.75 0 00.75-.75v-7.51a.75.75 0 111.5 0v7.51a2.253 2.253 0 01-2.25 2.252H16.5zm-11.25 0A2.253 2.253 0 013 21.523v-7.51a.75.75 0 111.5 0v7.51c0 .414.336.75.75.75H7.5a.75.75 0 010 1.502H5.25z" fill="#1B314B"/><path d="M.75 13.391a.746.746 0 01-.75-.75c0-.202.078-.39.22-.531L10.409 1.908A2.23 2.23 0 0112 1.25c.598 0 1.16.232 1.584.652L15.75 4.07V3.5a.75.75 0 01.75-.75h3.75a.75.75 0 01.75.75v5.825l2.78 2.784c.142.142.22.33.22.53s-.078.39-.22.531a.747.747 0 01-1.06 0L12.536 2.975a.749.749 0 00-1.067-.006L1.28 13.172a.747.747 0 01-.53.22zM19.5 7.824V4.252h-2.25v1.32l2.25 2.252z" fill="#1B314B"/><path d="M12 13.263c-1.654 0-3-1.348-3-3.003a3.005 3.005 0 013-3.004c1.654 0 3 1.348 3 3.004a3.005 3.005 0 01-3 3.003zm0-4.505a1.503 1.503 0 000 3.003 1.503 1.503 0 000-3.003zm-1.5 15.017a.748.748 0 01-.74-.627l-.646-3.878H8.25a.75.75 0 01-.75-.75v-.752a4.508 4.508 0 014.5-4.505c2.481 0 4.5 2.021 4.5 4.505v.751a.75.75 0 01-.75.75h-.865l-.646 3.878a.747.747 0 01-.74.628H10.5zm2.365-1.502l.646-3.877a.747.747 0 01.74-.628H15a3.005 3.005 0 00-3-3.003c-1.654 0-3 1.347-3 3.003h.75c.368 0 .679.264.74.627l.646 3.878h1.729z" fill="#FFB65C"/></svg>