<svg width="25" height="22" fill="none" xmlns="http://www.w3.org/2000/svg"><path d="M4.5 21.879a.75.75 0 01-.75-.75V7.478L1.916 8.7a.75.75 0 01-.832-1.248L11.502.507a2.242 2.242 0 012.496 0l10.418 6.946A.748.748 0 0124 8.827a.753.753 0 01-.416-.126L21.75 7.478V21.13a.75.75 0 01-.75.75l-16.5-.001zm15.75-1.5V6.478l-7.084-4.724a.746.746 0 00-.832 0L5.25 6.478V20.38l15-.001z" fill="#1B314B"/><path d="M15 18.129a.75.75 0 01-.583-1.221c.395-.49.622-1.08.657-1.71-.001-.511-.185-1.107-.379-1.738-.219-.71-.445-1.445-.445-2.227a4.49 4.49 0 01.99-2.61.745.745 0 011.054-.11.747.747 0 01.111 1.056 2.962 2.962 0 00-.657 1.707c.001.514.185 1.11.379 1.743.219.71.445 1.443.445 2.224a4.5 4.5 0 01-.99 2.609.742.742 0 01-.582.277zm-5.25 0a.749.749 0 01-.745-.671.747.747 0 01.162-.551c.395-.49.623-1.081.658-1.71-.001-.511-.185-1.108-.379-1.74C9.226 12.75 9 12.016 9 11.234a4.49 4.49 0 01.99-2.61.746.746 0 011.054-.111.75.75 0 01.112 1.055 2.955 2.955 0 00-.657 1.707c.001.515.185 1.112.38 1.743.219.709.444 1.443.444 2.223a4.49 4.49 0 01-.99 2.609.74.74 0 01-.583.28z" fill="#1B314B"/></svg>