<svg width="25" height="25" fill="none" xmlns="http://www.w3.org/2000/svg"><path d="M5.253 22.019a5.21 5.21 0 01-3.712-1.537 5.223 5.223 0 01-1.535-3.716 5.22 5.22 0 011.535-3.716l4.773-4.78a5.212 5.212 0 013.716-1.54c1.402 0 2.719.544 3.708 1.532a5.235 5.235 0 01.538 6.812.752.752 0 01-1.048.165.745.745 0 01-.299-.49.746.746 0 01.134-.558 3.739 3.739 0 00-.384-4.865A3.724 3.724 0 0010.03 8.23a3.727 3.727 0 00-2.655 1.1l-4.774 4.78a3.761 3.761 0 000 5.31 3.723 3.723 0 002.652 1.096c1.003 0 1.945-.39 2.652-1.097l.932-.933a.744.744 0 011.06 0 .746.746 0 010 1.061l-.932.933a5.202 5.202 0 01-3.712 1.539z" fill="#1B314B"/><path d="M13.978 18.542a5.21 5.21 0 01-3.709-1.537 5.234 5.234 0 01-.536-6.81.752.752 0 011.047-.167.746.746 0 01.3.49.747.747 0 01-.134.56 3.739 3.739 0 00.383 4.864 3.723 3.723 0 002.65 1.097 3.725 3.725 0 002.654-1.1l4.773-4.78a3.733 3.733 0 001.098-2.654c0-1.004-.39-1.946-1.098-2.655a3.723 3.723 0 00-2.652-1.098c-1.003 0-1.945.39-2.652 1.098l-.75.75a.744.744 0 01-1.06 0 .744.744 0 01-.22-.53c0-.2.078-.39.22-.53l.75-.752a5.213 5.213 0 013.712-1.537c1.403 0 2.722.545 3.712 1.537a5.222 5.222 0 011.538 3.717 5.222 5.222 0 01-1.538 3.716l-4.773 4.778a5.21 5.21 0 01-3.711 1.542h-.004v.001z" fill="#1B314B"/></svg>