<svg width="24" height="24" fill="none" xmlns="http://www.w3.org/2000/svg"><path fill-rule="evenodd" clip-rule="evenodd" d="M8.25 7.5c.413 0 .75.359.75.8v8.9c0 .442-.337.8-.75.8-.415 0-.75-.358-.75-.8V8.3c0-.441.335-.8.75-.8zm2.25.8c0-.441.416-.8.93-.8 1.345 0 2.634.46 3.585 1.277.95.818 1.484 1.927 1.484 3.083v1.78c0 1.156-.534 2.265-1.484 3.083-.951.818-2.24 1.277-3.585 1.277-.247 0-.483-.084-.658-.235a.749.749 0 01-.273-.566V8.301zm1.861.92v7.06c.5-.131.96-.366 1.337-.69.601-.517.94-1.219.94-1.95v-1.78c0-.731-.339-1.433-.94-1.95a3.343 3.343 0 00-1.337-.69z" fill="#1B314B"/><path fill-rule="evenodd" clip-rule="evenodd" d="M21.167 2.7H2.833a.133.133 0 00-.133.133v18.334c0 .073.06.133.133.133h18.334c.073 0 .133-.06.133-.133V2.833a.133.133 0 00-.133-.133zM2.833 1.5c-.736 0-1.333.597-1.333 1.333v18.334c0 .736.597 1.333 1.333 1.333h18.334c.736 0 1.333-.597 1.333-1.333V2.833c0-.736-.597-1.333-1.333-1.333H2.833z" fill="#FFB65C"/></svg>