<svg width="24" height="24" viewBox="0 0 24 24" fill="none" xmlns="http://www.w3.org/2000/svg">
<path fill-rule="evenodd" clip-rule="evenodd" d="M0.286278 2.35295C0.286278 1.21156 1.21156 0.286285 2.35294 0.286285H21.3333C22.4747 0.286285 23.4 1.21156 23.4 2.35295V21.3333C23.4 22.4747 22.4747 23.4 21.3333 23.4H2.35294C1.21155 23.4 0.286278 22.4747 0.286278 21.3333V2.35295ZM2.35294 1.75295C2.02157 1.75295 1.75294 2.02158 1.75294 2.35295V21.3333C1.75294 21.6647 2.02157 21.9333 2.35294 21.9333H21.3333C21.6647 21.9333 21.9333 21.6647 21.9333 21.3333V2.35295C21.9333 2.02158 21.6647 1.75295 21.3333 1.75295H2.35294Z" fill="black"/>
<path d="M8.46362 16.0001H6.82299V6.5209H8.46362V16.0001Z" fill="black"/>
<path d="M10.4884 16.0001V6.5209H13.2878C14.1255 6.5209 14.8677 6.70754 15.5144 7.0808C16.1654 7.45406 16.6689 7.98358 17.0248 8.66934C17.3807 9.35511 17.5587 10.1407 17.5587 11.0261V11.5014C17.5587 12.3998 17.3786 13.1897 17.0183 13.8712C16.6624 14.5526 16.1524 15.0778 15.4884 15.4467C14.8286 15.8156 14.0713 16.0001 13.2162 16.0001H10.4884ZM12.1355 7.84903V14.685H13.2097C14.0734 14.685 14.7353 14.4159 15.1954 13.8777C15.6598 13.3351 15.8963 12.5582 15.905 11.5469V11.0196C15.905 9.99096 15.6815 9.20537 15.2345 8.66283C14.7874 8.1203 14.1385 7.84903 13.2878 7.84903H12.1355Z" fill="black"/>
</svg>
