<svg width="24" height="24" viewBox="0 0 24 24" fill="none" xmlns="http://www.w3.org/2000/svg">
<g clip-path="url(#clip0)">
<path fill-rule="evenodd" clip-rule="evenodd" d="M0 2.14591C0 0.960754 0.960758 0 2.14591 0H21.8541C23.0392 0 24 0.960758 24 2.14591V21.8541C24 23.0392 23.0392 24 21.8541 24H2.14591C0.960754 24 0 23.0392 0 21.8541V2.14591ZM2.14591 1.5229C1.80183 1.5229 1.5229 1.80183 1.5229 2.14591V21.8541C1.5229 22.1982 1.80183 22.4771 2.14591 22.4771H21.8541C22.1982 22.4771 22.4771 22.1982 22.4771 21.8541V2.14591C22.4771 1.80183 22.1982 1.5229 21.8541 1.5229H2.14591Z" fill="black"/>
<path d="M8.49089 16.3163H6.78735V6.47369H8.49089V16.3163Z" fill="black"/>
<path d="M10.5933 16.3163V6.47369H13.5001C14.3699 6.47369 15.1405 6.66748 15.812 7.05506C16.488 7.44263 17.0108 7.99245 17.3804 8.70451C17.7499 9.41657 17.9347 10.2323 17.9347 11.1517V11.6451C17.9347 12.578 17.7477 13.3982 17.3736 14.1058C17.004 14.8133 16.4745 15.3587 15.785 15.7417C15.1 16.1248 14.3135 16.3163 13.4257 16.3163H10.5933ZM12.3036 7.85274V14.9508H13.419C14.3158 14.9508 15.0031 14.6714 15.4808 14.1126C15.963 13.5492 16.2086 12.7425 16.2176 11.6925V11.1449C16.2176 10.0768 15.9855 9.26109 15.5213 8.69775C15.0572 8.13441 14.3834 7.85274 13.5001 7.85274H12.3036Z" fill="black"/>
</g>
<defs>
<clipPath id="clip0">
<path d="M0 0H24V24H0V0Z" fill="white"/>
</clipPath>
</defs>
</svg>
