<svg width="24" height="25" viewBox="0 0 24 25" fill="none" xmlns="http://www.w3.org/2000/svg">
<path d="M13.5 17.2698C12.259 17.2698 11.25 16.2596 11.25 15.0172V11.2629H10.5C10.086 11.2629 9.75 10.9265 9.75 10.512C9.75 10.0976 10.086 9.76118 10.5 9.76118H11.25C12.077 9.76118 12.75 10.435 12.75 11.2629V15.0172C12.75 15.4317 13.086 15.7681 13.5 15.7681H14.25C14.664 15.7681 15 16.1045 15 16.5189C15 16.9334 14.664 17.2698 14.25 17.2698H13.5Z" fill="black"/>
<path d="M11.625 8.25946C12.2463 8.25946 12.75 7.7552 12.75 7.13317C12.75 6.51114 12.2463 6.00688 11.625 6.00688C11.0037 6.00688 10.5 6.51114 10.5 7.13317C10.5 7.7552 11.0037 8.25946 11.625 8.25946Z" fill="black"/>
<path d="M12 24.0275C5.383 24.0275 0 18.6384 0 12.0138C0 5.38917 5.383 0 12 0C18.617 0 24 5.38917 24 12.0138C24 18.6384 18.617 24.0275 12 24.0275ZM12 1.50172C6.21 1.50172 1.5 6.21712 1.5 12.0138C1.5 17.8104 6.21 22.5258 12 22.5258C17.79 22.5258 22.5 17.8104 22.5 12.0138C22.5 6.21712 17.79 1.50172 12 1.50172Z" fill="black"/>
</svg>
