<svg width="24" height="24" viewBox="0 0 24 24" fill="none" xmlns="http://www.w3.org/2000/svg">
<path fill-rule="evenodd" clip-rule="evenodd" d="M12 24C5.383 24 0 18.617 0 12C0 5.383 5.383 0 12 0C18.617 0 24 5.383 24 12C24 18.617 18.617 24 12 24ZM13.5 17.25C12.259 17.25 11.25 16.241 11.25 15V11.25H10.5C10.086 11.25 9.75 10.914 9.75 10.5C9.75 10.086 10.086 9.75 10.5 9.75H11.25C12.077 9.75 12.75 10.423 12.75 11.25V15C12.75 15.414 13.086 15.75 13.5 15.75H14.25C14.664 15.75 15 16.086 15 16.5C15 16.914 14.664 17.25 14.25 17.25H13.5ZM12.75 7.125C12.75 7.74632 12.2463 8.25 11.625 8.25C11.0037 8.25 10.5 7.74632 10.5 7.125C10.5 6.50368 11.0037 6 11.625 6C12.2463 6 12.75 6.50368 12.75 7.125Z" fill="black"/>
</svg>
