<svg width="24" height="25" viewBox="0 0 24 25" fill="none" xmlns="http://www.w3.org/2000/svg">
<path fill-rule="evenodd" clip-rule="evenodd" d="M12 24.0276C5.383 24.0276 0 18.6384 0 12.0138C0 5.38919 5.383 0 12 0C18.617 0 24 5.38919 24 12.0138C24 18.6384 18.617 24.0276 12 24.0276ZM13.5 17.2698C12.259 17.2698 11.25 16.2597 11.25 15.0172V11.2629H10.5C10.086 11.2629 9.75001 10.9265 9.75001 10.5121C9.75001 10.0976 10.086 9.76121 10.5 9.76121H11.25C12.077 9.76121 12.75 10.435 12.75 11.2629V15.0172C12.75 15.4317 13.086 15.7681 13.5 15.7681H14.25C14.664 15.7681 15 16.1045 15 16.519C15 16.9334 14.664 17.2698 14.25 17.2698H13.5ZM12.75 7.13319C12.75 7.75522 12.2463 8.25948 11.625 8.25948C11.0037 8.25948 10.5 7.75522 10.5 7.13319C10.5 6.51116 11.0037 6.0069 11.625 6.0069C12.2463 6.0069 12.75 6.51116 12.75 7.13319Z" fill="black"/>
</svg>
