<svg width="24" height="25" fill="none" xmlns="http://www.w3.org/2000/svg"><path d="M17.249 22.501a1.126 1.126 0 10-.001-2.251 1.126 1.126 0 00.001 2.251zm0-3.003a.75.75 0 01-.75-.751v-3.004a.75.75 0 111.5 0v3.004a.75.75 0 01-.75.75z" fill="#1B314B"/><path d="M13.023 24.754a2.53 2.53 0 01-2.258-3.658l4.226-8.461a2.513 2.513 0 012.262-1.398c.393 0 .771.09 1.124.267.486.243.887.644 1.13 1.131l4.226 8.46a2.53 2.53 0 01-2.258 3.659h-8.452zm4.229-12.014c-.392 0-.744.217-.918.568l-4.226 8.46a1.026 1.026 0 00.915 1.485h8.452a1.028 1.028 0 00.917-1.485l-4.226-8.46a1.038 1.038 0 00-.458-.46 1.011 1.011 0 00-.456-.108zM3.749 8.233a.75.75 0 010-1.5h10.5a.75.75 0 010 1.5h-10.5zm0 4.505a.75.75 0 010-1.5h7.5a.75.75 0 010 1.5h-7.5zm0 4.506a.75.75 0 010-1.5h3.75a.75.75 0 010 1.5h-3.75z" fill="#1B314B"/><path d="M2.249 21.75a2.253 2.253 0 01-2.25-2.252V2.978A2.253 2.253 0 012.249.727h10.629c.601 0 1.165.235 1.59.66L17.34 4.26c.425.426.659.992.659 1.592v3.134a.75.75 0 11-1.5 0V5.853a.76.76 0 00-.219-.53l-2.872-2.876a.747.747 0 00-.53-.219H2.249a.75.75 0 00-.75.75v16.52c0 .414.336.75.75.75h5.25a.75.75 0 010 1.502h-5.25z" fill="#1B314B"/></svg>