<svg width="24" height="24" viewBox="0 0 24 24" fill="none" xmlns="http://www.w3.org/2000/svg">
<path d="M4 24C2.89689 24 2 22.991 2 21.75V2.25C2 1.009 2.89689 0 4 0H17.3733C17.8996 0 18.3947 0.227 18.7707 0.639L21.3964 3.522C21.7796 3.943 22 4.53 22 5.133V21.75C22 22.991 21.1031 24 20 24H4ZM4 1.5C3.632 1.5 3.33333 1.836 3.33333 2.25V21.75C3.33333 22.164 3.632 22.5 4 22.5H20C20.368 22.5 20.6667 22.164 20.6667 21.75V5.133C20.6667 4.932 20.5929 4.736 20.4649 4.596L17.8391 1.713C17.7138 1.576 17.5493 1.5 17.3742 1.5H4Z" fill="black"/>
<path d="M6.70655 8.99822C6.33855 8.99822 6.03989 8.66261 6.03989 8.24908C6.03989 7.83555 6.33855 7.49994 6.70655 7.49994H17.3732C17.7412 7.49994 18.0399 7.83555 18.0399 8.24908C18.0399 8.66261 17.7403 8.99822 17.3732 8.99822H6.70655Z" fill="black"/>
<path d="M6.70655 13.4982C6.33855 13.4982 6.03989 13.1626 6.03989 12.7491C6.03989 12.3356 6.33855 11.9999 6.70655 11.9999H17.3732C17.7412 11.9999 18.0399 12.3356 18.0399 12.7491C18.0399 13.1626 17.7412 13.4982 17.3732 13.4982H6.70655Z" fill="black"/>
<path d="M6.70655 17.9983C6.33855 17.9983 6.03989 17.6627 6.03989 17.2492C6.03989 16.8357 6.33855 16.5001 6.70655 16.5001H12.0399C12.407 16.5001 12.7065 16.8357 12.7065 17.2492C12.7065 17.6627 12.407 17.9983 12.0399 17.9983H6.70655Z" fill="#29D305"/>
</svg>
