<svg width="24" height="25" fill="none" xmlns="http://www.w3.org/2000/svg"><path d="M4 24.086c-1.103 0-2-.982-2-2.19V2.916c0-1.208.897-2.19 2-2.19h13.373c.527 0 1.022.221 1.398.622l2.625 2.806c.384.41.604.982.604 1.568v16.174c0 1.208-.897 2.19-2 2.19H4zm0-21.9c-.368 0-.667.327-.667.73v18.98c0 .403.299.73.667.73h16c.368 0 .667-.327.667-.73V5.722a.77.77 0 00-.202-.522l-2.626-2.806a.634.634 0 00-.465-.208H4z" fill="#1B314B"/><path d="M6.706 9.485c-.368 0-.666-.327-.666-.73 0-.402.298-.729.666-.729h10.667c.368 0 .667.327.667.73 0 .402-.3.729-.667.729H6.706zm0 4.38c-.368 0-.666-.327-.666-.73 0-.402.298-.729.666-.729h10.667c.368 0 .667.327.667.73 0 .402-.299.729-.667.729H6.706z" fill="#1B314B"/><path d="M6.706 18.245c-.368 0-.666-.327-.666-.73 0-.402.298-.729.666-.729h5.334c.367 0 .667.327.667.73 0 .402-.3.729-.667.729H6.706z" fill="#FFB65C"/></svg>