<svg width="24" height="25" fill="none" xmlns="http://www.w3.org/2000/svg"><path d="M11.25 24.754a.742.742 0 01-.53-.22.746.746 0 01-.204-.678l.75-3.755a.748.748 0 01.205-.384l7.63-7.639c.54-.541 1.26-.84 2.026-.84.763 0 1.48.297 2.02.833 1.09 1.12 1.099 2.894.036 4.05l-.021.022-7.63 7.639a.744.744 0 01-.384.205l-3.75.75a.684.684 0 01-.147.017zm.957-1.708l2.424-.486 7.463-7.471c.499-.549.504-1.428-.001-1.947a1.338 1.338 0 00-.966-.401l-.001-.376v.375c-.364 0-.707.142-.964.4l-7.47 7.48-.485 2.426zM3.751 8.233a.75.75 0 010-1.5h10.5a.75.75 0 010 1.5h-10.5zm0 4.505a.75.75 0 010-1.5h10.5a.75.75 0 010 1.5h-10.5zm0 4.506a.75.75 0 010-1.5h5.25a.75.75 0 010 1.5h-5.25z" fill="#1B314B"/><path d="M2.251 21.75a2.253 2.253 0 01-2.25-2.252V2.978A2.254 2.254 0 012.251.727H12.88c.601 0 1.165.235 1.59.66l2.872 2.874c.425.426.659.992.659 1.592v3.134a.75.75 0 11-1.5 0V5.853a.76.76 0 00-.219-.53L13.41 2.447a.747.747 0 00-.53-.219H2.251a.75.75 0 00-.75.75v16.52c0 .414.336.75.75.75h5.25a.75.75 0 010 1.502h-5.25z" fill="#1B314B"/></svg>