<svg width="24" height="25" viewBox="0 0 24 25" fill="none" xmlns="http://www.w3.org/2000/svg">
<path d="M4 23.3601C2.89689 23.3601 2 22.378 2 21.1701V2.19001C2 0.982097 2.89689 0 4 0H17.3733C17.8996 0 18.3947 0.220948 18.7707 0.621962L21.3964 3.42809C21.7796 3.83787 22 4.40922 22 4.99614V21.1701C22 22.378 21.1031 23.3601 20 23.3601H4ZM4 1.46001C3.632 1.46001 3.33333 1.78705 3.33333 2.19001V21.1701C3.33333 21.573 3.632 21.9001 4 21.9001H20C20.368 21.9001 20.6667 21.573 20.6667 21.1701V4.99614C20.6667 4.8005 20.5929 4.60973 20.4649 4.47346L17.8391 1.66733C17.7138 1.53398 17.5493 1.46001 17.3742 1.46001H4Z" fill="black"/>
<path d="M6.70655 8.75834C6.33855 8.75834 6.03989 8.43167 6.03989 8.02917C6.03989 7.62667 6.33855 7.3 6.70655 7.3H17.3732C17.7412 7.3 18.0399 7.62667 18.0399 8.02917C18.0399 8.43167 17.7403 8.75834 17.3732 8.75834H6.70655Z" fill="black"/>
<path d="M6.70655 13.1383C6.33855 13.1383 6.03989 12.8117 6.03989 12.4092C6.03989 12.0067 6.33855 11.68 6.70655 11.68H17.3732C17.7412 11.68 18.0399 12.0067 18.0399 12.4092C18.0399 12.8117 17.7412 13.1383 17.3732 13.1383H6.70655Z" fill="black"/>
<path d="M6.70655 17.5184C6.33855 17.5184 6.03989 17.1918 6.03989 16.7893C6.03989 16.3868 6.33855 16.0601 6.70655 16.0601H12.0399C12.407 16.0601 12.7065 16.3868 12.7065 16.7893C12.7065 17.1918 12.407 17.5184 12.0399 17.5184H6.70655Z" fill="#29D305"/>
</svg>
