<svg width="24" height="25" fill="none" xmlns="http://www.w3.org/2000/svg"><path d="M17.25 24.027c-3.722 0-6.75-3.031-6.75-6.757 0-3.726 3.028-6.758 6.75-6.758S24 13.543 24 17.27c0 3.726-3.028 6.758-6.75 6.758zm0-12.013A5.259 5.259 0 0012 17.27a5.259 5.259 0 005.25 5.256 5.259 5.259 0 005.25-5.256 5.259 5.259 0 00-5.25-5.256z" fill="#1B314B"/><path d="M17.25 21.024a.75.75 0 01-.75-.75V17.27a.75.75 0 111.5 0v3.003a.75.75 0 01-.75.751zm0-5.194a1.126 1.126 0 10-.001-2.252 1.126 1.126 0 00.001 2.251z" fill="#FFB65C"/><path d="M3.75 7.507a.75.75 0 010-1.5h10.5a.75.75 0 010 1.5H3.75zm0 4.505a.75.75 0 010-1.5h6a.75.75 0 010 1.5h-6zm0 4.505a.75.75 0 010-1.5H7.5a.75.75 0 010 1.5H3.75z" fill="#1B314B"/><path d="M2.25 21.024A2.253 2.253 0 010 18.771V2.253A2.253 2.253 0 012.25 0h10.629c.601 0 1.165.234 1.59.659l2.872 2.875c.425.426.659.991.659 1.593v2.382a.75.75 0 11-1.5 0V5.127a.76.76 0 00-.219-.53L13.409 1.72a.747.747 0 00-.53-.22H2.25a.75.75 0 00-.75.752v16.519c0 .414.336.75.75.75H7.5a.75.75 0 010 1.502H2.25z" fill="#1B314B"/></svg>