<svg width="24" height="25" fill="none" xmlns="http://www.w3.org/2000/svg"><path d="M3.75 8.233a.75.75 0 010-1.5h10.5a.75.75 0 010 1.5H3.75zm0 4.505a.75.75 0 010-1.5H7.5a.75.75 0 010 1.5H3.75zm0 4.506a.75.75 0 010-1.5H7.5a.75.75 0 010 1.5H3.75z" fill="#1B314B"/><path d="M2.25 21.75A2.253 2.253 0 010 19.498V2.978A2.253 2.253 0 012.25.727h10.629c.601 0 1.165.235 1.59.66l2.872 2.874c.425.426.659.992.659 1.593v2.382a.75.75 0 11-1.5 0V5.853a.76.76 0 00-.219-.53l-2.872-2.876a.747.747 0 00-.53-.219H2.25a.75.75 0 00-.75.75v16.52c0 .414.336.75.75.75H7.5a.75.75 0 010 1.502H2.25z" fill="#1B314B"/><path d="M23.25 24.754a.741.741 0 01-.53-.221l-3.28-3.296a5.985 5.985 0 01-3.676 1.264c-3.308 0-6-2.695-6-6.007 0-3.311 2.692-6.006 6-6.006s6 2.695 6 6.006a6 6 0 01-1.263 3.682l3.281 3.297a.748.748 0 01-.003 1.062.743.743 0 01-.529.219zm-7.486-12.765a4.508 4.508 0 00-4.5 4.505 4.508 4.508 0 004.5 4.506c2.481 0 4.5-2.022 4.5-4.506a4.508 4.508 0 00-4.5-4.505z" fill="#1B314B"/></svg>