<svg width="24" height="25" fill="none" xmlns="http://www.w3.org/2000/svg"><path d="M3.75 7.507a.75.75 0 010-1.5h10.5a.75.75 0 010 1.5H3.75zm0 4.505a.75.75 0 010-1.5H7.5a.75.75 0 010 1.5H3.75zm0 4.505a.75.75 0 010-1.5H7.5a.75.75 0 010 1.5H3.75z" fill="#1B314B"/><path d="M2.25 21.024A2.253 2.253 0 010 18.771V2.253A2.253 2.253 0 012.25 0h10.629c.601 0 1.165.234 1.59.659l2.872 2.875c.425.426.659.991.659 1.593v2.382a.75.75 0 11-1.5 0V5.127a.76.76 0 00-.219-.53L13.409 1.72a.747.747 0 00-.53-.22H2.25a.75.75 0 00-.75.752v16.519c0 .414.336.75.75.75H7.5a.75.75 0 010 1.502H2.25z" fill="#1B314B"/><path d="M23.25 24.027a.742.742 0 01-.53-.22l-3.28-3.296a5.985 5.985 0 01-3.676 1.264c-3.308 0-6-2.695-6-6.007s2.692-6.007 6-6.007 6 2.695 6 6.007a6 6 0 01-1.263 3.681l3.281 3.298a.748.748 0 01-.003 1.061.743.743 0 01-.529.22zm-7.486-12.764a4.508 4.508 0 00-4.5 4.505 4.508 4.508 0 004.5 4.505c2.481 0 4.5-2.021 4.5-4.505a4.508 4.508 0 00-4.5-4.505z" fill="#1B314B"/><path d="M15.764 13A2.769 2.769 0 0013 15.769" stroke="#FFB65C" stroke-width="1.5" stroke-linecap="round"/></svg>