<svg width="24" height="25" fill="none" xmlns="http://www.w3.org/2000/svg"><path d="M11.25 24.027a.742.742 0 01-.53-.22.746.746 0 01-.204-.677l.75-3.755a.75.75 0 01.205-.384l7.63-7.639a2.84 2.84 0 012.026-.84c.763 0 1.48.296 2.02.833 1.09 1.12 1.099 2.893.036 4.05l-.021.022-7.63 7.638a.743.743 0 01-.384.206l-3.75.75a.684.684 0 01-.147.017zm.957-1.707l2.424-.486 7.463-7.472c.499-.548.504-1.427-.001-1.947a1.338 1.338 0 00-.966-.402l-.001-.375v.376c-.364 0-.707.142-.964.4l-7.47 7.479-.485 2.427zM3.751 7.507a.75.75 0 010-1.5h10.5a.75.75 0 010 1.5h-10.5zm0 4.505a.75.75 0 010-1.5h10.5a.75.75 0 010 1.5h-10.5z" fill="#1B314B"/><path d="M3.751 16.517a.75.75 0 010-1.5h5.25a.75.75 0 010 1.5h-5.25z" fill="#FFB65C"/><path d="M2.251 21.024a2.253 2.253 0 01-2.25-2.253V2.253A2.254 2.254 0 012.251 0H12.88c.601 0 1.165.234 1.59.659l2.872 2.875c.425.426.659.991.659 1.592v3.133a.75.75 0 11-1.5 0V5.127a.76.76 0 00-.219-.53L13.41 1.72a.747.747 0 00-.53-.22H2.251a.75.75 0 00-.75.752v16.519c0 .414.336.75.75.75h5.25a.75.75 0 010 1.502h-5.25z" fill="#1B314B"/></svg>