<svg width="24" height="25" fill="none" xmlns="http://www.w3.org/2000/svg"><path d="M17.25 24.754c-3.722 0-6.75-3.032-6.75-6.758s3.028-6.758 6.75-6.758S24 14.27 24 17.996s-3.028 6.758-6.75 6.758zm0-12.014A5.259 5.259 0 0012 17.996a5.259 5.259 0 005.25 5.256 5.259 5.259 0 005.25-5.256 5.259 5.259 0 00-5.25-5.256z" fill="#1B314B"/><path d="M16.417 21.178a1.483 1.483 0 01-1.06-.44l-1.499-1.5a.753.753 0 01.53-1.283c.2 0 .389.078.53.22l1.5 1.502 2.906-3.878a.753.753 0 011.049-.152c.332.25.399.721.151 1.053l-2.905 3.877a1.51 1.51 0 01-1.202.6zM3.75 8.233a.75.75 0 010-1.5h10.5a.75.75 0 010 1.5H3.75zm0 4.505a.75.75 0 010-1.5h6a.75.75 0 010 1.5h-6zm0 4.506a.75.75 0 010-1.5H7.5a.75.75 0 010 1.5H3.75z" fill="#1B314B"/><path d="M2.25 21.75A2.253 2.253 0 010 19.498V2.978A2.253 2.253 0 012.25.727h10.629c.601 0 1.165.235 1.59.66l2.872 2.874c.425.426.659.992.659 1.593v2.382a.75.75 0 11-1.5 0V5.853a.76.76 0 00-.219-.53l-2.872-2.876a.747.747 0 00-.53-.219H2.25a.75.75 0 00-.75.75v16.52c0 .414.336.75.75.75H7.5a.75.75 0 010 1.502H2.25z" fill="#1B314B"/></svg>