<svg width="24" height="24" viewBox="0 0 24 24" fill="none" xmlns="http://www.w3.org/2000/svg">
<path d="M2.61827 21.6913C1.42871 21.6913 0.461525 20.7242 0.461525 19.5346C0.461525 19.2307 0.523831 18.9355 0.647484 18.6585L2.61827 14.345V5.15629C2.61827 3.96672 3.58545 2.99954 4.77502 2.99954H19.1533C20.3429 2.99954 21.3101 3.96672 21.3101 5.15629V14.3459C21.3101 14.3459 23.2799 18.6546 23.2818 18.6594C23.764 19.7464 23.2732 21.0232 22.1862 21.5063C21.9082 21.629 21.6139 21.6923 21.3101 21.6923H2.61827V21.6913ZM1.95783 19.2499C1.91949 19.3371 1.89936 19.4339 1.89936 19.5356C1.89936 19.9314 2.22239 20.2545 2.61827 20.2545H21.3101C21.4117 20.2545 21.5095 20.2334 21.6024 20.1922C21.9638 20.0321 22.1277 19.6065 21.9676 19.2442L20.1291 15.2211H3.79921L1.95783 19.2499ZM19.8722 13.7833V5.15629C19.8722 4.75945 19.5502 4.43737 19.1533 4.43737H4.77502C4.37818 4.43737 4.0561 4.75945 4.0561 5.15629V13.7833H19.8722Z" fill="black"/>
<path d="M10.5263 18.8156C10.1295 18.8156 9.8074 18.4935 9.8074 18.0967C9.8074 17.6999 10.1295 17.3778 10.5263 17.3778H13.402C13.7988 17.3778 14.1209 17.6999 14.1209 18.0967C14.1209 18.4935 13.7988 18.8156 13.402 18.8156H10.5263Z" fill="black"/>
<path d="M10.2678 7.92141C9.9837 7.92141 9.75314 7.62411 9.75314 7.25779C9.75314 6.89148 9.9837 6.59418 10.2678 6.59418C10.5519 6.59418 17.6443 6.59418 17.6443 6.59418C17.9284 6.59418 18.1589 6.89148 18.1589 7.25779C18.1589 7.62411 17.9284 7.92141 17.6443 7.92141C17.6443 7.92141 10.5519 7.92141 10.2678 7.92141Z" fill="black"/>
<path d="M6.41013 7.92141C6.05755 7.92141 5.7714 7.62411 5.7714 7.25779C5.7714 6.89148 6.05755 6.59418 6.41013 6.59418C6.76271 6.59418 8.22954 6.59418 8.22954 6.59418C8.58212 6.59418 8.86827 6.89148 8.86827 7.25779C8.86827 7.62411 8.58212 7.92141 8.22954 7.92141C8.22954 7.92141 6.76271 7.92141 6.41013 7.92141Z" fill="#29D305"/>
<path d="M6.33447 11.0182C6.02365 11.0182 5.7714 10.7209 5.7714 10.3546C5.7714 9.98825 6.02365 9.69095 6.33447 9.69095C6.64528 9.69095 17.5958 9.69095 17.5958 9.69095C17.9066 9.69095 18.1589 9.98825 18.1589 10.3546C18.1589 10.7209 17.9066 11.0182 17.5958 11.0182C17.5958 11.0182 6.64528 11.0182 6.33447 11.0182Z" fill="black"/>
</svg>
