<svg width="24" height="23" fill="none" xmlns="http://www.w3.org/2000/svg"><path fill-rule="evenodd" clip-rule="evenodd" d="M16.79 2.24a.743.743 0 01.65-.85l4.402-.567a1 1 0 011.116.839l.665 4.285a.743.743 0 01-.65.849.79.79 0 01-.884-.651l-.582-3.75-3.834.495a.79.79 0 01-.883-.65z" fill="#1B314B"/><path fill-rule="evenodd" clip-rule="evenodd" d="M21.403 2.324a.75.75 0 01.182 1.058L18.24 7.89a.783.783 0 01-1.081.156.75.75 0 01-.182-1.058l3.343-4.509a.783.783 0 011.082-.156z" fill="#1B314B"/><path d="M2.485 22.787A1.606 1.606 0 011.02 20.53l1.466-3.21v-6.838c0-.885.72-1.604 1.605-1.604h10.7c.885 0 1.605.72 1.605 1.604v6.839l1.467 3.21a1.607 1.607 0 01-1.467 2.257l-13.91-.001zm-.491-1.817a.536.536 0 00.491.748h13.91a.536.536 0 00.49-.752l-1.37-2.994H3.365l-1.37 2.998zm13.33-4.068v-6.42a.535.535 0 00-.534-.534H4.09a.535.535 0 00-.535.534v6.42h11.77z" fill="#1B314B"/><path d="M8.37 20.647a.535.535 0 010-1.07h2.14a.535.535 0 010 1.07H8.37zm-.192-8.107c-.212 0-.383-.221-.383-.494 0-.272.171-.493.383-.493h5.489c.211 0 .383.22.383.493s-.172.494-.383.494h-5.49zm-2.871 0a.485.485 0 01-.475-.494c0-.272.213-.493.475-.493H6.66c.262 0 .475.22.475.493a.485.485 0 01-.475.494H5.307zm-.057 2.305c-.23 0-.418-.222-.418-.494 0-.273.187-.494.419-.494h8.38c.231 0 .419.221.419.494 0 .272-.188.494-.42.494H5.25z" fill="#1B314B"/></svg>