<svg width="24" height="24" fill="none" xmlns="http://www.w3.org/2000/svg"><path d="M2.618 21.691a2.159 2.159 0 01-1.97-3.033l1.97-4.313V5.156C2.618 3.966 3.585 3 4.775 3h14.378c1.19 0 2.157.967 2.157 2.156v9.19l1.972 4.313a2.16 2.16 0 01-1.972 3.033H2.618zm-.66-2.441a.72.72 0 00.66 1.005H21.31a.72.72 0 00.658-1.01l-1.839-4.024H3.8L1.958 19.25zm17.914-5.467V5.156a.72.72 0 00-.719-.719H4.775a.72.72 0 00-.719.72v8.626h15.816z" fill="#1B314B"/><path d="M10.526 18.816a.72.72 0 010-1.438h2.876a.72.72 0 010 1.438h-2.876zm-.258-10.895c-.284 0-.515-.297-.515-.663 0-.367.23-.664.515-.664h7.376c.284 0 .515.297.515.664 0 .366-.23.663-.515.663h-7.376zm-3.858 0a.652.652 0 01-.639-.663c0-.367.287-.664.64-.664H8.23c.352 0 .638.297.638.664a.652.652 0 01-.638.663H6.41zm-.076 3.097c-.31 0-.563-.297-.563-.664 0-.366.253-.663.563-.663h11.262c.31 0 .563.297.563.663 0 .367-.252.664-.563.664H6.334z" fill="#1B314B"/></svg>