<svg width="24" height="24" viewBox="0 0 24 24" fill="none" xmlns="http://www.w3.org/2000/svg">
<path d="M2.24996 21.999C1.00898 21.999 0 20.9642 0 19.6914C0 19.3663 0.0649989 19.0504 0.193997 18.754L2.24996 14.1389V4.30757C2.24996 3.03482 3.25894 2 4.49992 2H19.4997C20.7406 2 21.7496 3.03482 21.7496 4.30757V14.1399C21.7496 14.1399 23.8046 18.7499 23.8066 18.755C24.3096 19.9181 23.7976 21.2841 22.6636 21.801C22.3736 21.9323 22.0666 22 21.7496 22H2.24996V21.999ZM1.56097 19.3868C1.52097 19.4801 1.49997 19.5837 1.49997 19.6924C1.49997 20.116 1.83697 20.4616 2.24996 20.4616H21.7496C21.8556 20.4616 21.9576 20.4391 22.0546 20.395C22.4316 20.2237 22.6026 19.7683 22.4356 19.3806L20.5177 15.0763H3.48194L1.56097 19.3868ZM20.2497 13.5379V4.30757C20.2497 3.88298 19.9137 3.53838 19.4997 3.53838H4.49992C4.08593 3.53838 3.74994 3.88298 3.74994 4.30757V13.5379H20.2497Z" fill="black"/>
<path d="M10.4998 18.9222C10.0858 18.9222 9.7498 18.5776 9.7498 18.153C9.7498 17.7284 10.0858 17.3838 10.4998 17.3838H13.4997C13.9137 17.3838 14.2497 17.7284 14.2497 18.153C14.2497 18.5776 13.9137 18.9222 13.4997 18.9222H10.4998Z" fill="black"/>
<path d="M10.2301 7.26599C9.93372 7.26599 9.69319 6.9479 9.69319 6.55597C9.69319 6.16404 9.93372 5.84595 10.2301 5.84595C10.5264 5.84595 17.9254 5.84595 17.9254 5.84595C18.2217 5.84595 18.4623 6.16404 18.4623 6.55597C18.4623 6.9479 18.2217 7.26599 17.9254 7.26599C17.9254 7.26599 10.5264 7.26599 10.2301 7.26599Z" fill="black"/>
<path d="M6.2057 7.26599C5.83789 7.26599 5.53937 6.9479 5.53937 6.55597C5.53937 6.16404 5.83789 5.84595 6.2057 5.84595C6.57352 5.84595 8.10375 5.84595 8.10375 5.84595C8.47156 5.84595 8.77008 6.16404 8.77008 6.55597C8.77008 6.9479 8.47156 7.26599 8.10375 7.26599C8.10375 7.26599 6.57352 7.26599 6.2057 7.26599Z" fill="#29D305"/>
<path d="M6.12677 10.5793C5.80252 10.5793 5.53937 10.2613 5.53937 9.86932C5.53937 9.47739 5.80252 9.1593 6.12677 9.1593C6.45102 9.1593 17.8748 9.1593 17.8748 9.1593C18.1991 9.1593 18.4622 9.47739 18.4622 9.86932C18.4622 10.2613 18.1991 10.5793 17.8748 10.5793C17.8748 10.5793 6.45102 10.5793 6.12677 10.5793Z" fill="black"/>
</svg>
