<svg width="24" height="24" fill="none" xmlns="http://www.w3.org/2000/svg"><path d="M3.75 24a2.252 2.252 0 01-2.25-2.25V2.25A2.252 2.252 0 013.75 0h16.5a2.252 2.252 0 012.25 2.25v19.5A2.252 2.252 0 0120.25 24H3.75zM3 21.75c0 .414.336.75.75.75h16.5a.75.75 0 00.75-.75V7.5H3v14.25zM21 6V2.25a.75.75 0 00-.75-.75H3.75a.75.75 0 00-.75.75V6h18z" fill="#1B314B"/><path d="M5.25 4.5a.75.75 0 010-1.5h3a.75.75 0 010 1.5h-3zM12 21c-3.308 0-6-2.692-6-6s2.692-6 6-6 6 2.692 6 6-2.692 6-6 6zm0-10.5A4.505 4.505 0 007.5 15c0 2.481 2.019 4.5 4.5 4.5s4.5-2.019 4.5-4.5-2.019-4.5-4.5-4.5zm6-5.625a1.125 1.125 0 100-2.25 1.125 1.125 0 000 2.25zm-4.5 0a1.125 1.125 0 100-2.25 1.125 1.125 0 000 2.25z" fill="#1B314B"/><path d="M9.75 15.75A.75.75 0 019 15c0-1.654 1.346-3 3-3a.75.75 0 010 1.5c-.827 0-1.5.673-1.5 1.5a.75.75 0 01-.75.75z" fill="#1B314B"/></svg>