<svg width="24" height="25" fill="none" xmlns="http://www.w3.org/2000/svg"><path d="M12 5.392a.75.75 0 01-.75-.75V.887a.75.75 0 111.5 0v3.755a.75.75 0 01-.75.75zm0 18.772a.75.75 0 01-.75-.75v-3.755a.75.75 0 111.5 0v3.754a.75.75 0 01-.75.75zM6.697 7.592a.742.742 0 01-.53-.22L3.515 4.717a.746.746 0 010-1.062.742.742 0 01.53-.22c.2 0 .389.078.53.22L7.227 6.31a.746.746 0 010 1.062.742.742 0 01-.53.22zm13.258 13.273a.742.742 0 01-.53-.22l-2.652-2.654a.744.744 0 01-.22-.53.748.748 0 011.28-.53l2.652 2.653c.142.14.22.33.22.53s-.078.39-.22.53a.748.748 0 01-.53.221zM.75 12.9a.75.75 0 010-1.5H4.5a.75.75 0 010 1.5H.75zm18.75 0a.75.75 0 010-1.5h3.75a.75.75 0 010 1.5H19.5zM4.045 20.865a.742.742 0 01-.53-.22.746.746 0 01-.22-.532.74.74 0 01.22-.53l2.652-2.654a.744.744 0 011.06 0c.142.142.22.33.22.531s-.078.39-.22.53l-2.652 2.655a.742.742 0 01-.53.22zM17.303 7.592a.742.742 0 01-.53-.22.744.744 0 01-.22-.53c0-.201.078-.39.22-.532l2.652-2.655a.744.744 0 011.06 0c.142.142.22.33.22.531 0 .2-.078.39-.22.53l-2.652 2.656a.742.742 0 01-.53.22z" fill="#1B314B"/></svg>