<svg width="24" height="24" viewBox="0 0 24 24" fill="none" xmlns="http://www.w3.org/2000/svg">
<g clip-path="url(#clip0)">
<path d="M12 5.247C11.586 5.247 11.25 4.911 11.25 4.49699V0.746994C11.25 0.332994 11.586 -0.00300598 12 -0.00300598C12.414 -0.00300598 12.75 0.332994 12.75 0.746994V4.49699C12.75 4.911 12.414 5.247 12 5.247Z" fill="black"/>
<path d="M12 23.997C11.586 23.997 11.25 23.661 11.25 23.247V19.497C11.25 19.083 11.586 18.747 12 18.747C12.414 18.747 12.75 19.083 12.75 19.497V23.247C12.75 23.661 12.414 23.997 12 23.997Z" fill="black"/>
<path d="M6.69704 7.44399C6.49704 7.44399 6.30804 7.36599 6.16704 7.22399L3.51504 4.57199C3.37304 4.42999 3.29504 4.24199 3.29504 4.04199C3.29504 3.84199 3.37304 3.65299 3.51504 3.51199C3.65604 3.36999 3.84504 3.29199 4.04504 3.29199C4.24504 3.29199 4.43404 3.36999 4.57504 3.51199L7.22704 6.16399C7.36904 6.30599 7.44704 6.49399 7.44704 6.69399C7.44704 6.89399 7.36904 7.08299 7.22704 7.22399C7.08604 7.36599 6.89704 7.44399 6.69704 7.44399Z" fill="black"/>
<path d="M19.955 20.702C19.755 20.702 19.566 20.624 19.425 20.482L16.773 17.831C16.631 17.69 16.553 17.501 16.553 17.301C16.553 17.101 16.631 16.912 16.773 16.771C16.915 16.63 17.103 16.551 17.303 16.551C17.503 16.551 17.692 16.629 17.833 16.771L20.485 19.422C20.627 19.563 20.705 19.752 20.705 19.952C20.705 20.152 20.627 20.341 20.485 20.482C20.343 20.623 20.155 20.702 19.955 20.702Z" fill="black"/>
<path d="M0.75 12.7453C0.336 12.7453 0 12.4097 0 11.9961C0 11.5826 0.336 11.247 0.75 11.247H4.5C4.914 11.247 5.25 11.5826 5.25 11.9961C5.25 12.4097 4.914 12.7453 4.5 12.7453H0.75Z" fill="black"/>
<path d="M19.5 12.7453C19.086 12.7453 18.75 12.4097 18.75 11.9961C18.75 11.5826 19.086 11.247 19.5 11.247H23.25C23.664 11.247 24 11.5826 24 11.9961C24 12.4097 23.664 12.7453 23.25 12.7453H19.5Z" fill="black"/>
<path d="M4.04504 20.702C3.84504 20.702 3.65604 20.624 3.51504 20.482C3.37304 20.34 3.29504 20.152 3.29504 19.951C3.29504 19.75 3.37304 19.562 3.51504 19.421L6.16704 16.77C6.30904 16.628 6.49704 16.55 6.69704 16.55C6.89704 16.55 7.08604 16.628 7.22704 16.77C7.36904 16.912 7.44704 17.1 7.44704 17.301C7.44704 17.502 7.36904 17.69 7.22704 17.831L4.57504 20.482C4.43404 20.624 4.24504 20.702 4.04504 20.702Z" fill="black"/>
<path d="M17.303 7.44399C17.103 7.44399 16.914 7.36599 16.773 7.22399C16.631 7.08299 16.553 6.89399 16.553 6.69399C16.553 6.49399 16.631 6.30499 16.773 6.16399L19.425 3.51199C19.567 3.36999 19.755 3.29199 19.955 3.29199C20.155 3.29199 20.344 3.36999 20.485 3.51199C20.627 3.65299 20.705 3.84199 20.705 4.04199C20.705 4.24199 20.627 4.43099 20.485 4.57199L17.833 7.22399C17.692 7.36599 17.503 7.44399 17.303 7.44399Z" fill="black"/>
</g>
<defs>
<clipPath id="clip0">
<path d="M0 0H24V24H0V0Z" fill="white"/>
</clipPath>
</defs>
</svg>
