<svg width="24" height="26" viewBox="0 0 24 26" fill="none" xmlns="http://www.w3.org/2000/svg">
<path d="M12 6.25302C11.586 6.25302 11.25 5.91664 11.25 5.50216V1.74786C11.25 1.33339 11.586 0.997002 12 0.997002C12.414 0.997002 12.75 1.33339 12.75 1.74786V5.50216C12.75 5.91664 12.414 6.25302 12 6.25302Z" fill="black"/>
<path d="M12 25.0245C11.586 25.0245 11.25 24.6882 11.25 24.2737V20.5194C11.25 20.1049 11.586 19.7685 12 19.7685C12.414 19.7685 12.75 20.1049 12.75 20.5194V24.2737C12.75 24.6882 12.414 25.0245 12 25.0245Z" fill="black"/>
<path d="M6.69704 8.45254C6.49704 8.45254 6.30804 8.37445 6.16704 8.23229L3.51504 5.57724C3.37304 5.43508 3.29504 5.24687 3.29504 5.04664C3.29504 4.84641 3.37304 4.65719 3.51504 4.51603C3.65604 4.37387 3.84504 4.29578 4.04504 4.29578C4.24504 4.29578 4.43404 4.37387 4.57504 4.51603L7.22704 7.17107C7.36904 7.31323 7.44704 7.50145 7.44704 7.70168C7.44704 7.90191 7.36904 8.09112 7.22704 8.23229C7.08604 8.37445 6.89704 8.45254 6.69704 8.45254Z" fill="black"/>
<path d="M19.955 21.7257C19.755 21.7257 19.566 21.6477 19.425 21.5055L16.773 18.8514C16.631 18.7103 16.553 18.5211 16.553 18.3208C16.553 18.1206 16.631 17.9314 16.773 17.7902C16.915 17.6491 17.103 17.57 17.303 17.57C17.503 17.57 17.692 17.6481 17.833 17.7902L20.485 20.4443C20.627 20.5854 20.705 20.7747 20.705 20.9749C20.705 21.1751 20.627 21.3643 20.485 21.5055C20.343 21.6467 20.155 21.7257 19.955 21.7257Z" fill="black"/>
<path d="M0.75 13.7599C0.336 13.7599 0 13.4239 0 13.0099C0 12.5959 0.336 12.2599 0.75 12.2599H4.5C4.914 12.2599 5.25 12.5959 5.25 13.0099C5.25 13.4239 4.914 13.7599 4.5 13.7599H0.75Z" fill="black"/>
<path d="M19.5 13.7599C19.086 13.7599 18.75 13.4239 18.75 13.0099C18.75 12.5959 19.086 12.2599 19.5 12.2599H23.25C23.664 12.2599 24 12.5959 24 13.0099C24 13.4239 23.664 13.7599 23.25 13.7599H19.5Z" fill="black"/>
<path d="M4.04504 21.7257C3.84504 21.7257 3.65604 21.6476 3.51504 21.5055C3.37304 21.3633 3.29504 21.1751 3.29504 20.9739C3.29504 20.7726 3.37304 20.5844 3.51504 20.4433L6.16704 17.7892C6.30904 17.6471 6.49704 17.569 6.69704 17.569C6.89704 17.569 7.08604 17.6471 7.22704 17.7892C7.36904 17.9314 7.44704 18.1196 7.44704 18.3208C7.44704 18.5221 7.36904 18.7103 7.22704 18.8514L4.57504 21.5055C4.43404 21.6476 4.24504 21.7257 4.04504 21.7257Z" fill="black"/>
<path d="M17.303 8.45254C17.103 8.45254 16.914 8.37445 16.773 8.23229C16.631 8.09112 16.553 7.90191 16.553 7.70168C16.553 7.50145 16.631 7.31223 16.773 7.17107L19.425 4.51603C19.567 4.37387 19.755 4.29578 19.955 4.29578C20.155 4.29578 20.344 4.37387 20.485 4.51603C20.627 4.65719 20.705 4.84641 20.705 5.04664C20.705 5.24687 20.627 5.43608 20.485 5.57724L17.833 8.23229C17.692 8.37445 17.503 8.45254 17.303 8.45254Z" fill="black"/>
</svg>
