<svg width="24" height="24" viewBox="0 0 24 24" fill="none" xmlns="http://www.w3.org/2000/svg">
<path d="M4 15.998C6.20914 15.998 8 14.2071 8 11.998C8 9.78886 6.20914 7.998 4 7.998C1.79086 7.998 0 9.78886 0 11.998C0 14.2071 1.79086 15.998 4 15.998Z" fill="black"/>
<path d="M14 14.998C15.6569 14.998 17 13.6549 17 11.998C17 10.3411 15.6569 8.998 14 8.998C12.3431 8.998 11 10.3411 11 11.998C11 13.6549 12.3431 14.998 14 14.998Z" fill="black"/>
<path d="M22 13.998C23.1046 13.998 24 13.1026 24 11.998C24 10.8934 23.1046 9.998 22 9.998C20.8954 9.998 20 10.8934 20 11.998C20 13.1026 20.8954 13.998 22 13.998Z" fill="black"/>
</svg>
