<svg width="24" height="25" viewBox="0 0 24 25" fill="none" xmlns="http://www.w3.org/2000/svg">
<path d="M12 6.247C11.586 6.247 11.25 5.911 11.25 5.49699V1.74699C11.25 1.33299 11.586 0.996994 12 0.996994C12.414 0.996994 12.75 1.33299 12.75 1.74699V5.49699C12.75 5.911 12.414 6.247 12 6.247Z" fill="black"/>
<path d="M12 24.997C11.586 24.997 11.25 24.661 11.25 24.247V20.497C11.25 20.083 11.586 19.747 12 19.747C12.414 19.747 12.75 20.083 12.75 20.497V24.247C12.75 24.661 12.414 24.997 12 24.997Z" fill="black"/>
<path d="M6.69704 8.44399C6.49704 8.44399 6.30804 8.36599 6.16704 8.22399L3.51504 5.57199C3.37304 5.42999 3.29504 5.24199 3.29504 5.04199C3.29504 4.84199 3.37304 4.65299 3.51504 4.51199C3.65604 4.36999 3.84504 4.29199 4.04504 4.29199C4.24504 4.29199 4.43404 4.36999 4.57504 4.51199L7.22704 7.16399C7.36904 7.30599 7.44704 7.49399 7.44704 7.69399C7.44704 7.89399 7.36904 8.08299 7.22704 8.22399C7.08604 8.36599 6.89704 8.44399 6.69704 8.44399Z" fill="black"/>
<path d="M19.955 21.702C19.755 21.702 19.566 21.624 19.425 21.482L16.773 18.831C16.631 18.69 16.553 18.501 16.553 18.301C16.553 18.101 16.631 17.912 16.773 17.771C16.915 17.63 17.103 17.551 17.303 17.551C17.503 17.551 17.692 17.629 17.833 17.771L20.485 20.422C20.627 20.563 20.705 20.752 20.705 20.952C20.705 21.152 20.627 21.341 20.485 21.482C20.343 21.623 20.155 21.702 19.955 21.702Z" fill="black"/>
<path d="M0.75 13.7453C0.336 13.7453 0 13.4097 0 12.9961C0 12.5826 0.336 12.247 0.75 12.247H4.5C4.914 12.247 5.25 12.5826 5.25 12.9961C5.25 13.4097 4.914 13.7453 4.5 13.7453H0.75Z" fill="black"/>
<path d="M19.5 13.7453C19.086 13.7453 18.75 13.4097 18.75 12.9961C18.75 12.5826 19.086 12.247 19.5 12.247H23.25C23.664 12.247 24 12.5826 24 12.9961C24 13.4097 23.664 13.7453 23.25 13.7453H19.5Z" fill="black"/>
<path d="M4.04504 21.702C3.84504 21.702 3.65604 21.624 3.51504 21.482C3.37304 21.34 3.29504 21.152 3.29504 20.951C3.29504 20.75 3.37304 20.562 3.51504 20.421L6.16704 17.77C6.30904 17.628 6.49704 17.55 6.69704 17.55C6.89704 17.55 7.08604 17.628 7.22704 17.77C7.36904 17.912 7.44704 18.1 7.44704 18.301C7.44704 18.502 7.36904 18.69 7.22704 18.831L4.57504 21.482C4.43404 21.624 4.24504 21.702 4.04504 21.702Z" fill="black"/>
<path d="M17.303 8.44399C17.103 8.44399 16.914 8.36599 16.773 8.22399C16.631 8.08299 16.553 7.89399 16.553 7.69399C16.553 7.49399 16.631 7.30499 16.773 7.16399L19.425 4.51199C19.567 4.36999 19.755 4.29199 19.955 4.29199C20.155 4.29199 20.344 4.36999 20.485 4.51199C20.627 4.65299 20.705 4.84199 20.705 5.04199C20.705 5.24199 20.627 5.43099 20.485 5.57199L17.833 8.22399C17.692 8.36599 17.503 8.44399 17.303 8.44399Z" fill="black"/>
</svg>
