<svg width="245" height="84" fill="none" xmlns="http://www.w3.org/2000/svg"><path d="M23.9 5.92v16.014H7.4V5.92H.9v39.832h6.5V27.74h16.5v14.21c0 1.301.6 2.402 1.5 3.203.8.6 2.3 1.301 4.8.6h.1V5.922h-6.4zm26.6 29.025c0 4.203-2.2 6.505-6.4 6.505-4 0-4.9-2.302-4.9-4.204 0-3.703 2.8-5.604 8.4-5.604.6 0 1.5.1 2.7.3h.2v3.003zm6.2 2.101v-6.305c0-5.604-1-9.408-3-11.41-2-2.001-5.2-3.002-9.6-3.002-3 0-5.6.5-7.9 1.501l-.2.1 1.3 4.704.2-.1c1.7-.7 3.7-1.1 6.1-1.1 5.6 0 6.8 3.002 6.8 5.504v.4c-.2 0-.3-.1-.3-.1-1.1-.2-2-.4-2.8-.4-4.6 0-8.2.9-10.7 2.802-2.5 1.902-3.7 4.404-3.7 7.707 0 2.802.9 5.004 2.6 6.505 1.7 1.501 4.2 2.302 7.3 2.302 1.6 0 3.2-.3 4.7-.9 1.5-.601 2.5-1.402 3.1-2.403 0 0 .2-.3.3-.5l.2.6c.3.8.8 1.602 1.5 2.202 1.8 1.401 3.7 1.1 4.7.7 1-.4 1.6-1.5 1.6-1.5l-.1-.1c-1.4-1.102-2.1-3.504-2.1-7.207zm11.7-21.017c0-1.701.5-3.103 1.4-4.304 1-1.2 2.1-1.801 3.5-1.801.7 0 1.8.2 3.1.6l.2.1 1.8-4.703-.2-.1c-2.1-.601-3.9-.901-5.4-.901-3.1 0-5.6 1.1-7.5 3.202-1.9 2.102-3 5.005-3.1 8.507v.3H58v5.105h4.3v23.72h6.3v-23.72h5.9V17.03h-6.1v-1.001zM88.9 29.14c-2.6-1.001-4.3-1.802-5.1-2.502-.9-.7-1.3-1.401-1.3-2.302 0-2.102 1.3-3.103 3.9-3.103 2.4 0 4.4.6 5.9 1.602l.2.1 1.7-4.704-.2-.1c-2.5-1.201-5.3-1.902-8.1-1.902-2.9 0-5.4.7-7.2 2.102-1.9 1.401-2.8 3.203-2.8 5.705 0 3.703 2.4 6.505 7.4 8.507 2.4 1 3.9 1.801 4.8 2.602.9.8 1.3 1.801 1.3 3.002 0 2.002-1.5 3.103-4.3 3.103-2.4 0-4.6-.7-6.6-2.202l-.2-.1-2.2 4.904.2.1c1.7.9 3 1.401 4.1 1.701 6.2 1.702 10.7-.3 12.6-1.801 2-1.501 2.9-3.503 2.9-6.205 0-2.002-.5-3.703-1.6-5.004-1.1-1.301-2.9-2.502-5.4-3.503zm16.1 7.906V5.921h-6.3v34.128c0 4.203 1.4 6.205 4.4 6.205 2.2 0 3.8-.8 4.9-2.402l.1-.2-.2-.1c-2-.901-2.9-3.103-2.9-6.506zm23.4-20.016v20.016c-.5 1.101-1.4 2.102-2.8 2.903-1.4.8-2.9 1.2-4.5 1.2-3.5 0-5.3-2-5.3-5.904V17.03h-6.3v18.715c0 7.106 3.2 10.509 9.9 10.509 1.4 0 2.9-.3 4.6-.9 1.7-.601 3-1.302 3.9-2.102 0 0 .4-.3.6-.501.4.9 2 3.703 6 2.902h.2V17.03h-6.3zm24-.6c-3.5 0-6.2 1.1-8 3.202 0 0-.1.2-.3.3-.4-.9-1.8-3.503-5.7-3.002h-.2v28.723h6.3V24.636l.1-.1c.7-.9 1.6-1.601 2.8-2.202 1.2-.6 2.3-.9 3.3-.9 2.2 0 3.9.6 4.9 1.8 1 1.202 1.5 3.103 1.5 5.706v16.713h6.3V28.04c0-3.603-1-6.506-2.9-8.507-2-2.102-4.7-3.103-8.1-3.103zm33.3 22.618c0 .1-.1.1 0 0-.4.5-1 .9-2.1 1.401-1 .4-1.8.6-2.5.6-6 0-9.1-3.202-9.1-9.407 0-3.203.8-5.705 2.3-7.406 1.5-1.702 3.7-2.602 6.5-2.602 1.6 0 3.2.6 4.8 1.801 0 0 .1 0 .1.1v15.513zm0-33.127v12.01l-.4-.2c-1.8-.901-3.8-1.302-6-1.302-3.9 0-7.3 1.401-9.9 4.304-2.6 2.802-4 6.605-4 11.109s1.2 8.107 3.4 10.609c2.3 2.502 5.5 3.803 9.4 3.803 1.4 0 2.8-.2 4.1-.7a7.984 7.984 0 002.8-1.502l.5-.5v2.202h6.3V5.92h-6.2zm46.1 42.134c1.3-.7 2.6-1.5 3.7-2.502 2.9-19.316-7-22.818-8.5-29.324 2.8 1.301 3.9 1.501 5.6 1.701-1.5-5.104-1.8-10.808-1.1-15.813-2.7-1.4-5.7-2.101-8.9-2.101-2.4 0-4.8.5-7 1.3 2.1 26.122 18.5 21.318 16.2 46.74zm10.4-22.318c-2.7-.2-4.5-.6-5.6-1.1 2.5 5.804 2.5 12.91 1.9 17.814 3.8-4.504 6.1-10.71 6.1-17.415 0-9.207-4.3-17.214-10.7-21.617.1 12.91 8.1 22.318 8.3 22.318zm-29.1 8.707c-.3 1.902-1.6 4.904-2.5 6.005-3.3-7.706-7.4-10.008-9.5-21.017-.4 1.801-.6 3.703-.6 5.705 0 13.911 9.9 25.22 22.1 25.22h.2c-.4-7.206-3-11.009-9.7-15.913z" fill="#0064A3"/><path d="M209.4 30.04c.6-1.4 1.1-3.903 1.2-6.805 4.2 8.707 14.6 11.61 14.8 26.822 1.2-.2 2.4-.5 3.6-.9.6-23.62-15.7-18.316-15.8-46.94-4.7 2.503-8.4 6.806-10.6 12.21.7 4.905 2.6 11.31 6.8 15.614zM22.2 83.184s-2.3-.1-3.7-1.4c-.7-.601-2.2-2.903-2.2-2.903L4.6 61.266v21.518H.9V54.861h3.7L18.7 76.48V54.86h3.5v28.323zm14.3 0c-2.8 0-5.1-.9-6.9-2.802-1.7-1.801-2.6-4.303-2.6-7.406v-.7c0-2.102.4-3.904 1.2-5.505.8-1.601 1.9-2.903 3.3-3.803 1.4-.901 2.9-1.401 4.6-1.401 2.7 0 4.8.9 6.3 2.702 1.5 1.801 2.2 4.303 2.2 7.606v1.501h-14c.1 2.002.6 3.703 1.8 5.004 1.1 1.302 2.6 1.902 4.4 1.902 2.9-.1 3.8-1.901 4.4-2.802h3.1c-.1 0-1.8 5.704-7.8 5.704zm-.4-18.615c-1.4 0-2.6.5-3.6 1.601-1 1.001-1.6 2.502-1.8 4.404h10.4v-.3c-.1-1.802-.6-3.203-1.5-4.204-.9-1-2-1.5-3.5-1.5zm21.9.201v-2.703h-4.1v-5.004h-3.6v5.004h-3.1v2.802h3.1v14.412c0 2.703 1.9 4.003 3.8 4.003 1.2 0 2-.7 2.8-1.7l.1-.201h-.2c-1.6-.4-3-.8-3-4.003V64.77H58zm11.9 0v-2.703h-4.1v-5.004h-3.6v5.004h-3.1v2.802h3.1v14.412c0 2.703 1.9 4.003 3.8 4.003 1.2 0 2-.7 2.8-1.7l.1-.201h-.2c-1.6-.4-3-.8-3-4.003V64.77h4.2z" fill="#0064A3"/></svg>