<svg width="24" height="24" viewBox="0 0 24 24" fill="none" xmlns="http://www.w3.org/2000/svg">
<path fill-rule="evenodd" clip-rule="evenodd" d="M13.2803 7.7237C12.9874 7.43081 12.5126 7.43081 12.2197 7.7237C11.9268 8.01659 11.9268 8.49147 12.2197 8.78436L14.6893 11.254H0.75C0.335786 11.254 0 11.5898 0 12.004C0 12.4182 0.335786 12.754 0.75 12.754H14.6893L12.2197 15.2237C11.9268 15.5166 11.9268 15.9915 12.2197 16.2844C12.5126 16.5773 12.9874 16.5773 13.2803 16.2844L17.0303 12.5344C17.1768 12.3879 17.25 12.196 17.25 12.004C17.25 11.9023 17.2298 11.8054 17.1931 11.7169C17.1565 11.6285 17.1022 11.5456 17.0303 11.4737L13.2803 7.7237Z" fill="black"/>
<path fill-rule="evenodd" clip-rule="evenodd" d="M8.23347 1.69946C10.5477 0.685871 13.1357 0.480762 15.5807 1.11717C18.0257 1.75358 20.1853 3.19445 21.7117 5.20771C23.238 7.22096 24.0423 9.68939 23.9949 12.2154C23.9475 14.7414 23.0512 17.1779 21.4504 19.1325C19.8496 21.0871 17.6375 22.446 15.1704 22.9903C12.7033 23.5345 10.1247 23.2325 7.85016 22.1328C5.57558 21.0331 3.73737 19.1999 2.63161 16.9282C2.45032 16.5558 2.60527 16.1069 2.9777 15.9256C3.35013 15.7443 3.79902 15.8993 3.98031 16.2717C4.93863 18.2405 6.53175 19.8293 8.50305 20.7824C10.4743 21.7354 12.7091 21.9972 14.8472 21.5255C16.9854 21.0538 18.9026 19.8761 20.29 18.1821C21.6773 16.4881 22.4541 14.3765 22.4951 12.1873C22.5362 9.99806 21.8392 7.85875 20.5163 6.11393C19.1935 4.36911 17.3218 3.12035 15.2029 2.5688C13.0839 2.01725 10.8409 2.19501 8.83526 3.07345C6.8296 3.9519 5.17801 5.47988 4.14652 7.41129C3.95139 7.77666 3.49701 7.91467 3.13164 7.71954C2.76627 7.52441 2.62826 7.07003 2.82339 6.70466C4.01357 4.47611 5.91925 2.71305 8.23347 1.69946Z" fill="black"/>
</svg>
