<svg width="25" height="25" fill="none" xmlns="http://www.w3.org/2000/svg"><path d="M12.755 16.662a.753.753 0 01-.53-1.282l2.47-2.473H.755a.75.75 0 010-1.502h13.939l-2.47-2.473a.744.744 0 01-.22-.53c0-.2.078-.39.22-.53a.742.742 0 01.53-.221c.2 0 .389.078.53.22l3.75 3.755a.74.74 0 01.163.245l.01.026a.73.73 0 010 .518l-.006.016a.766.766 0 01-.168.257l-3.749 3.753a.735.735 0 01-.529.221z" fill="#1B314B"/><path d="M12.769 23.418c-4.285 0-8.262-2.486-10.132-6.332a.747.747 0 01.346-1.004.75.75 0 011.003.347 9.689 9.689 0 005.585 4.955 9.734 9.734 0 003.189.54 9.652 9.652 0 004.26-.99 9.693 9.693 0 004.949-5.592 9.707 9.707 0 00-.45-7.458c-1.621-3.333-5.068-5.488-8.783-5.488a9.626 9.626 0 00-4.251.984 9.694 9.694 0 00-4.333 4.178.749.749 0 01-1.015.31.753.753 0 01-.309-1.017 11.187 11.187 0 015-4.821A11.106 11.106 0 0112.735.894c4.285 0 8.262 2.486 10.132 6.334a11.2 11.2 0 01.519 8.604 11.183 11.183 0 01-5.71 6.452 11.115 11.115 0 01-4.907 1.134z" fill="#1B314B"/></svg>