<svg width="32" height="32" viewBox="0 0 32 32" fill="none" xmlns="http://www.w3.org/2000/svg">
<g clip-path="url(#clip0)">
<path d="M30.0935 3.41949L22.0935 0.219492C21.3801 -0.0731641 20.5802 -0.0731641 19.8668 0.219492L10.9868 3.73333C11.3468 3.63283 10.8676 3.75229 10.9868 3.73333C10.9868 3.73333 11.1061 3.74625 10.9868 3.72729L2.7335 0.472826C2.42988 0.349653 2.1005 0.303488 1.77471 0.338445C1.44893 0.373402 1.13684 0.488396 0.866263 0.673182C0.595683 0.857968 0.375009 1.10681 0.223896 1.39754C0.0727834 1.68827 -0.00407542 2.01186 0.000166528 2.33949V21.4995C-0.000547218 22.0986 0.178139 22.6842 0.513205 23.1809C0.848271 23.6775 1.32437 24.0625 1.88017 24.2862L9.88017 27.4862C10.5952 27.7704 11.3918 27.7704 12.1068 27.4862L15.9335 25.9262C16.0561 25.8771 16.1678 25.8044 16.2623 25.7122C16.3567 25.62 16.4321 25.5101 16.4841 25.3888C16.5361 25.2675 16.5637 25.1371 16.5653 25.0051C16.5669 24.8731 16.5425 24.7421 16.4935 24.6195C16.4445 24.4969 16.3718 24.3852 16.2796 24.2907C16.1874 24.1963 16.0775 24.1209 15.9561 24.0689C15.8348 24.0169 15.7044 23.9893 15.5724 23.9877C15.4404 23.9861 15.3094 24.0105 15.1868 24.0595L11.9868 25.3928V5.55827L12.0935 5.51283L19.9868 2.32616V11.0062C19.9868 11.2714 20.0922 11.5257 20.2797 11.7133C20.4673 11.9008 20.7216 12.0062 20.9868 12.0062C21.252 12.0062 21.5064 11.9008 21.6939 11.7133C21.8815 11.5257 21.9868 11.2714 21.9868 11.0062V2.32616L29.3468 5.27283C29.5342 5.34709 29.6953 5.47557 29.8093 5.64183C29.9233 5.80809 29.9851 6.00457 29.9868 6.20616V12.0062C29.9868 12.2714 30.0922 12.5257 30.2797 12.7133C30.4673 12.9008 30.7216 13.0062 30.9868 13.0062C31.252 13.0062 31.5064 12.9008 31.6939 12.7133C31.8815 12.5257 31.9868 12.2714 31.9868 12.0062V6.20616C31.9883 5.60509 31.8084 5.01756 31.4706 4.52039C31.1328 4.02321 30.6528 3.63953 30.0935 3.41949ZM2.6135 22.4328C2.42753 22.358 2.26834 22.229 2.1566 22.0626C2.04485 21.8961 1.9857 21.7 1.98683 21.4995V2.32616L9.98683 5.51283V25.3528L2.6135 22.4328Z" fill="black"/>
<path d="M25.0134 31.9999C24.7096 32.0041 24.4088 31.9391 24.1339 31.8097C23.859 31.6803 23.6171 31.49 23.4268 31.2532C20.9601 28.0932 18.0134 23.7732 18.0134 21.1199C18.0134 20.2006 18.1945 19.2904 18.5463 18.4411C18.8981 17.5918 19.4137 16.8201 20.0637 16.1701C20.7137 15.5201 21.4854 15.0045 22.3346 14.6527C23.1839 14.3009 24.0942 14.1199 25.0134 14.1199C25.9327 14.1199 26.8429 14.3009 27.6922 14.6527C28.5415 15.0045 29.3132 15.5201 29.9632 16.1701C30.6132 16.8201 31.1288 17.5918 31.4806 18.4411C31.8324 19.2904 32.0134 20.2006 32.0134 21.1199C32.0134 23.7865 29.0534 28.0932 26.5868 31.2532C26.3984 31.489 26.1589 31.6788 25.8863 31.8081C25.6137 31.9375 25.3152 32.0031 25.0134 31.9999ZM25.0134 16.0932C23.6884 16.0967 22.4187 16.6246 21.4818 17.5616C20.5449 18.4985 20.0169 19.7682 20.0134 21.0932C20.0134 22.6399 21.9201 26.0532 25.0134 29.9999C28.0934 25.9999 30.0134 22.6399 30.0134 21.0932C30.0099 19.7682 29.482 18.4985 28.5451 17.5616C27.6082 16.6246 26.3384 16.0967 25.0134 16.0932Z" fill="black"/>
<path fill-rule="evenodd" clip-rule="evenodd" d="M25.0666 17.7334C23.4466 17.7334 22.1333 19.0467 22.1333 20.6667C22.1333 22.2868 23.4466 23.6001 25.0666 23.6001C26.6867 23.6001 28 22.2868 28 20.6667C28 19.0467 26.6867 17.7334 25.0666 17.7334ZM23.8095 20.6667C23.8095 19.9724 24.3723 19.4096 25.0666 19.4096C25.7609 19.4096 26.3238 19.9724 26.3238 20.6667C26.3238 21.361 25.7609 21.9239 25.0666 21.9239C24.3723 21.9239 23.8095 21.361 23.8095 20.6667Z" fill="#29D305"/>
</g>
<defs>
<clipPath id="clip0">
<rect width="32" height="32" fill="white"/>
</clipPath>
</defs>
</svg>
