<svg width="24" height="24" viewBox="0 0 24 24" fill="none" xmlns="http://www.w3.org/2000/svg">
<path fill-rule="evenodd" clip-rule="evenodd" d="M0.600006 2.66667C0.600006 1.52528 1.52528 0.600006 2.66667 0.600006H21.3333C22.4747 0.600006 23.4 1.52528 23.4 2.66667V21.3333C23.4 22.4747 22.4747 23.4 21.3333 23.4H2.66667C1.52528 23.4 0.600006 22.4747 0.600006 21.3333V2.66667ZM2.66667 2.06667C2.3353 2.06667 2.06667 2.3353 2.06667 2.66667V21.3333C2.06667 21.6647 2.3353 21.9333 2.66667 21.9333H21.3333C21.6647 21.9333 21.9333 21.6647 21.9333 21.3333V2.66667C21.9333 2.3353 21.6647 2.06667 21.3333 2.06667H2.66667Z" fill="black"/>
<path d="M14.1176 8.47061H9.88235V9.75403H12.878V11.2514H9.88235V12.5348H12.878V14.246H9.88235V15.5294H14.1176V8.47061Z" fill="black"/>
<path d="M8.47059 14.246H5.50588V12.5348H8.47059V8.47061H4.23529V9.75403H7.2V11.2514H4.23529V15.5294H8.47059V14.246Z" fill="black"/>
<path d="M19.7647 11.2514H16.8669V9.75403H19.7647V8.47061H15.5294V12.5348H18.4272V14.246H15.5294V15.5294H19.7647V11.2514Z" fill="black"/>
</svg>
