<svg width="24" height="24" viewBox="0 0 24 24" fill="none" xmlns="http://www.w3.org/2000/svg">
<path fill-rule="evenodd" clip-rule="evenodd" d="M0 2.17544C0 0.973977 0.973977 0 2.17544 0H21.8246C23.026 0 24 0.973977 24 2.17544V21.8246C24 23.026 23.026 24 21.8246 24H2.17544C0.973977 24 0 23.026 0 21.8246V2.17544ZM2.17544 1.54386C1.82663 1.54386 1.54386 1.82663 1.54386 2.17544V21.8246C1.54386 22.1734 1.82663 22.4561 2.17544 22.4561H21.8246C22.1734 22.4561 22.4561 22.1734 22.4561 21.8246V2.17544C22.4561 1.82663 22.1734 1.54386 21.8246 1.54386H2.17544Z" fill="black"/>
<path d="M14.2291 8.28483H9.77089V9.6358H12.9243V11.2119H9.77089V12.5629H12.9243V14.3642H9.77089V15.7152H14.2291V8.28483Z" fill="black"/>
<path d="M8.28482 14.3642H5.16408V12.5629H8.28482V8.28483H3.82661V9.6358H6.94736V11.2119H3.82661V15.7152H8.28482V14.3642Z" fill="black"/>
<path d="M20.1734 11.2119H17.123V9.6358H20.1734V8.28483H15.7151V12.5629H18.7655V14.3642H15.7151V15.7152H20.1734V11.2119Z" fill="black"/>
</svg>
