<svg width="24" height="24" fill="none" xmlns="http://www.w3.org/2000/svg"><path fill-rule="evenodd" clip-rule="evenodd" d="M.6 2.667C.6 1.525 1.525.6 2.667.6h18.666c1.142 0 2.067.925 2.067 2.067v18.666a2.067 2.067 0 01-2.067 2.067H2.667A2.067 2.067 0 01.6 21.333V2.667zm2.067-.6a.6.6 0 00-.6.6v18.666a.6.6 0 00.6.6h18.666a.6.6 0 00.6-.6V2.667a.6.6 0 00-.6-.6H2.667z" fill="#1B314B"/><path d="M14.118 8.47H9.882v1.284h2.996v1.497H9.882v1.284h2.996v1.711H9.882v1.283h4.236V8.471zM8.47 14.246H5.507v-1.711H8.47V8.47H4.235v1.283H7.2v1.497H4.235v4.278h4.236v-1.283zm11.295-2.995h-2.898V9.754h2.898V8.471h-4.236v4.064h2.898v1.711H15.53v1.283h4.236v-4.278z" fill="#1B314B"/></svg>