<svg width="24" height="24" viewBox="0 0 24 24" fill="none" xmlns="http://www.w3.org/2000/svg">
<path d="M0.787988 21.0648C0.373988 21.0648 0.0379877 20.7257 0.0379877 20.3078C0.0379877 19.89 0.373988 19.5509 0.787988 19.5509H1.53599V11.4086L0.896988 11.5378C0.847988 11.5479 0.797988 11.5529 0.748988 11.5529C0.392988 11.5529 0.0839877 11.2966 0.0139877 10.9444C-0.0250123 10.7466 0.0139877 10.5447 0.124988 10.3762C0.235988 10.2076 0.405988 10.0936 0.601988 10.0542L9.02199 8.35473V4.18062L7.93699 3.70125C7.55799 3.53372 7.38499 3.08664 7.55099 2.70415C7.67099 2.42863 7.94099 2.25 8.23799 2.25C8.34199 2.25 8.44399 2.27119 8.53899 2.31358L18.008 6.49374V3.68611C18.008 3.2683 18.344 2.9292 18.758 2.9292H21.753C22.167 2.9292 22.503 3.2683 22.503 3.68611V8.47886L23.547 8.94007C23.731 9.02081 23.872 9.16916 23.945 9.35788C24.018 9.54661 24.014 9.75148 23.934 9.93717C23.815 10.2127 23.545 10.3903 23.247 10.3903C23.143 10.3903 23.043 10.3691 22.947 10.3267L22.504 10.1309V19.5499H23.251C23.665 19.5499 24.001 19.889 24.001 20.3068C24.001 20.7246 23.665 21.0637 23.251 21.0637H0.787988V21.0648ZM21.003 19.5509V9.4689L10.523 4.84267V19.5499H12.018V15.7734C12.018 14.521 13.027 13.5027 14.268 13.5027H17.268C18.509 13.5027 19.518 14.521 19.518 15.7734L19.509 19.5499H21.003V19.5509ZM18.009 19.5509L18.018 15.7734C18.018 15.3577 17.682 15.0176 17.268 15.0176H14.268C13.854 15.0176 13.518 15.3566 13.518 15.7745V19.5509H18.009ZM9.02299 19.5509V9.89781L3.03599 11.1069V19.5519H9.02299V19.5509ZM21.003 7.81682V4.44302H19.508V7.15679L21.003 7.81682Z" fill="black"/>
<path d="M12.768 10.1098C12.195 10.1098 11.718 9.67686 11.654 9.10059C11.651 9.08344 11.65 9.06527 11.649 9.04812C11.647 9.03096 11.644 8.99261 11.644 8.97444C11.644 8.9482 11.646 8.92499 11.65 8.90077C11.651 8.88361 11.653 8.86444 11.655 8.84526C11.715 8.32754 12.124 7.91275 12.637 7.8522C12.68 7.84412 12.724 7.84009 12.768 7.84009C12.812 7.84009 12.856 7.84412 12.899 7.85119C13.427 7.91376 13.837 8.34066 13.884 8.87554C13.889 8.90884 13.892 8.94114 13.892 8.97343C13.892 9.0027 13.889 9.03096 13.885 9.05821C13.856 9.59713 13.433 10.0432 12.881 10.0997C12.88 10.0997 12.879 10.0997 12.878 10.0997C12.836 10.1058 12.804 10.1088 12.771 10.1088C12.771 10.1098 12.768 10.1098 12.768 10.1098Z" fill="#29D305"/>
<path fill-rule="evenodd" clip-rule="evenodd" d="M4.375 15.1901C4.375 14.8418 4.65482 14.5594 5 14.5594H7C7.34518 14.5594 7.625 14.8418 7.625 15.1901C7.625 15.5385 7.34518 15.8209 7 15.8209H5C4.65482 15.8209 4.375 15.5385 4.375 15.1901Z" fill="black"/>
<path fill-rule="evenodd" clip-rule="evenodd" d="M4.375 17.2085C4.375 16.8602 4.65482 16.5778 5 16.5778H7C7.34518 16.5778 7.625 16.8602 7.625 17.2085C7.625 17.5569 7.34518 17.8393 7 17.8393H5C4.65482 17.8393 4.375 17.5569 4.375 17.2085Z" fill="black"/>
<path fill-rule="evenodd" clip-rule="evenodd" d="M4.375 19.227C4.375 18.8786 4.65482 18.5962 5 18.5962H7C7.34518 18.5962 7.625 18.8786 7.625 19.227C7.625 19.5753 7.34518 19.8577 7 19.8577H5C4.65482 19.8577 4.375 19.5753 4.375 19.227Z" fill="black"/>
<path fill-rule="evenodd" clip-rule="evenodd" d="M4.625 12.6671C4.97018 12.6671 5.25 12.9495 5.25 13.2978L5.25 21.1192C5.25 21.4676 4.97018 21.75 4.625 21.75C4.27982 21.75 4 21.4676 4 21.1192L4 13.2978C4 12.9495 4.27982 12.6671 4.625 12.6671Z" fill="black"/>
<path fill-rule="evenodd" clip-rule="evenodd" d="M7.125 12.6671C7.47018 12.6671 7.75 12.9495 7.75 13.2978L7.75 21.1192C7.75 21.4676 7.47018 21.75 7.125 21.75C6.77982 21.75 6.5 21.4676 6.5 21.1192L6.5 13.2978C6.5 12.9495 6.77982 12.6671 7.125 12.6671Z" fill="black"/>
</svg>
