<svg width="24" height="24" viewBox="0 0 24 24" fill="none" xmlns="http://www.w3.org/2000/svg">
<g clip-path="url(#clip0)">
<path d="M0.788 21.321C0.374 21.321 0.0380001 20.985 0.0380001 20.571C0.0380001 20.157 0.374 19.821 0.788 19.821H1.536V11.753L0.897 11.881C0.848 11.891 0.798 11.896 0.749 11.896C0.393 11.896 0.0840001 11.642 0.0140001 11.293C-0.0249999 11.097 0.0140001 10.897 0.125 10.73C0.236 10.563 0.406 10.45 0.602 10.411L9.022 8.72698V4.59098L7.937 4.11598C7.558 3.94998 7.385 3.50698 7.551 3.12798C7.671 2.85498 7.941 2.67798 8.238 2.67798C8.342 2.67798 8.444 2.69898 8.539 2.74098L18.008 6.88298V4.10098C18.008 3.68698 18.344 3.35098 18.758 3.35098H21.753C22.167 3.35098 22.503 3.68698 22.503 4.10098V8.84998L23.547 9.30698C23.731 9.38698 23.872 9.53398 23.945 9.72098C24.018 9.90798 24.014 10.111 23.934 10.295C23.815 10.568 23.545 10.744 23.247 10.744C23.143 10.744 23.043 10.723 22.947 10.681L22.504 10.487V19.82H23.251C23.665 19.82 24.001 20.156 24.001 20.57C24.001 20.984 23.665 21.32 23.251 21.32H0.788V21.321ZM21.003 19.821V9.83098L10.523 5.24698V19.82H12.018V16.078C12.018 14.837 13.027 13.828 14.268 13.828H17.268C18.509 13.828 19.518 14.837 19.518 16.078L19.509 19.82H21.003V19.821ZM18.009 19.821L18.018 16.078C18.018 15.666 17.682 15.329 17.268 15.329H14.268C13.854 15.329 13.518 15.665 13.518 16.079V19.821H18.009ZM9.023 19.821V10.256L3.036 11.454V19.822H9.023V19.821ZM21.003 8.19398V4.85098H19.508V7.53998L21.003 8.19398Z" fill="black"/>
<path d="M12.7681 10.466C12.1951 10.466 11.7181 10.037 11.6541 9.46604C11.6511 9.44904 11.6501 9.43104 11.6491 9.41404C11.6471 9.39704 11.6441 9.35904 11.6441 9.34104C11.6441 9.31504 11.6461 9.29204 11.6501 9.26804C11.6511 9.25104 11.6531 9.23204 11.6551 9.21304C11.7151 8.70004 12.1241 8.28904 12.6371 8.22904C12.6801 8.22104 12.7241 8.21704 12.7681 8.21704C12.8121 8.21704 12.8561 8.22104 12.8991 8.22804C13.4271 8.29004 13.8371 8.71304 13.8841 9.24304C13.8891 9.27604 13.8921 9.30804 13.8921 9.34004C13.8921 9.36904 13.8891 9.39704 13.8851 9.42404C13.8561 9.95804 13.4331 10.4 12.8811 10.456C12.8801 10.456 12.8791 10.456 12.8781 10.456C12.8361 10.462 12.8041 10.465 12.7711 10.465C12.7711 10.466 12.7681 10.466 12.7681 10.466Z" fill="#29D305"/>
<path fill-rule="evenodd" clip-rule="evenodd" d="M4.375 15.5C4.375 15.1548 4.65482 14.875 5 14.875H7C7.34518 14.875 7.625 15.1548 7.625 15.5C7.625 15.8452 7.34518 16.125 7 16.125H5C4.65482 16.125 4.375 15.8452 4.375 15.5Z" fill="black"/>
<path fill-rule="evenodd" clip-rule="evenodd" d="M4.375 17.5C4.375 17.1548 4.65482 16.875 5 16.875H7C7.34518 16.875 7.625 17.1548 7.625 17.5C7.625 17.8452 7.34518 18.125 7 18.125H5C4.65482 18.125 4.375 17.8452 4.375 17.5Z" fill="black"/>
<path fill-rule="evenodd" clip-rule="evenodd" d="M4.375 19.5C4.375 19.1548 4.65482 18.875 5 18.875H7C7.34518 18.875 7.625 19.1548 7.625 19.5C7.625 19.8452 7.34518 20.125 7 20.125H5C4.65482 20.125 4.375 19.8452 4.375 19.5Z" fill="black"/>
<path fill-rule="evenodd" clip-rule="evenodd" d="M4.625 13C4.97018 13 5.25 13.2798 5.25 13.625L5.25 21.375C5.25 21.7202 4.97018 22 4.625 22C4.27982 22 4 21.7202 4 21.375L4 13.625C4 13.2798 4.27982 13 4.625 13Z" fill="black"/>
<path fill-rule="evenodd" clip-rule="evenodd" d="M7.125 13C7.47018 13 7.75 13.2798 7.75 13.625L7.75 21.375C7.75 21.7202 7.47018 22 7.125 22C6.77982 22 6.5 21.7202 6.5 21.375L6.5 13.625C6.5 13.2798 6.77982 13 7.125 13Z" fill="black"/>
</g>
<defs>
<clipPath id="clip0">
<path d="M0 0H24V24H0V0Z" fill="white"/>
</clipPath>
</defs>
</svg>
