<svg width="24" height="24" viewBox="0 0 24 24" fill="none" xmlns="http://www.w3.org/2000/svg">
<path fill-rule="evenodd" clip-rule="evenodd" d="M2.222 1.00785C1.05648 1.5906 0.0500488 2.53444 0.0500488 3.79999V18.8C0.0500488 20.0857 1.05754 21.0302 2.23023 21.6098C3.4432 22.2094 5.06232 22.55 6.80005 22.55C7.65347 22.55 8.39789 22.4436 9.08914 22.3449L9.10611 22.3425C9.51616 22.2839 9.80109 21.904 9.74251 21.4939C9.68393 21.0839 9.30403 20.7989 8.89398 20.8575C8.19002 20.9581 7.53963 21.05 6.80005 21.05C5.23778 21.05 3.8569 20.7406 2.89486 20.2651C1.89255 19.7697 1.55005 19.2143 1.55005 18.8V18.2164C1.76555 18.3621 1.99455 18.4934 2.23023 18.6098C3.4432 19.2094 5.06232 19.55 6.80005 19.55C7.65345 19.55 8.39785 19.4436 9.08908 19.3449L9.10611 19.3424C9.51616 19.2839 9.80109 18.904 9.74251 18.4939C9.68393 18.0839 9.30403 17.7989 8.89398 17.8575C8.19002 17.9581 7.53963 18.05 6.80005 18.05C5.23778 18.05 3.8569 17.7406 2.89486 17.2651C1.89255 16.7697 1.55005 16.2143 1.55005 15.8V15.2164C1.76555 15.3621 1.99455 15.4934 2.23023 15.6098C3.4432 16.2094 5.06232 16.55 6.80005 16.55C7.65347 16.55 8.39788 16.4436 9.08913 16.3449L9.10611 16.3424C9.51616 16.2839 9.80109 15.904 9.74251 15.4939C9.68393 15.0839 9.30403 14.7989 8.89398 14.8575C8.19002 14.9581 7.53963 15.05 6.80005 15.05C5.23778 15.05 3.8569 14.7406 2.89486 14.2651C1.89255 13.7697 1.55005 13.2143 1.55005 12.8V12.2164C1.76555 12.3621 1.99455 12.4934 2.23023 12.6098C3.4432 13.2094 5.06232 13.55 6.80005 13.55C7.65347 13.55 8.39787 13.4436 9.08912 13.3449L9.10611 13.3425C9.51616 13.2839 9.80109 12.904 9.74251 12.4939C9.68393 12.0839 9.30403 11.7989 8.89398 11.8575C8.19002 11.9581 7.53963 12.05 6.80005 12.05C5.23778 12.05 3.8569 11.7406 2.89486 11.2651C1.89255 10.7697 1.55005 10.2143 1.55005 9.79999V9.21637C1.76555 9.36214 1.99455 9.49336 2.23023 9.60985C3.4432 10.2094 5.06232 10.55 6.80005 10.55C8.53778 10.55 10.1569 10.2094 11.3699 9.60985C11.6055 9.49336 11.8346 9.36214 12.05 9.21637V9.79999C12.05 10.2142 12.3858 10.55 12.8 10.55C13.2143 10.55 13.55 10.2142 13.55 9.79999V3.79999C13.55 2.53444 12.5436 1.5906 11.3781 1.00785C10.1677 0.402659 8.54809 0.0499878 6.80005 0.0499878C5.05201 0.0499878 3.43237 0.402659 2.222 1.00785ZM2.89282 2.34949C1.88676 2.85252 1.55005 3.40868 1.55005 3.79999C1.55005 4.19129 1.88676 4.74746 2.89282 5.25049C3.85402 5.73109 5.23438 6.04999 6.80005 6.04999C8.36572 6.04999 9.74608 5.73109 10.7073 5.25049C11.7133 4.74746 12.05 4.19129 12.05 3.79999C12.05 3.40868 11.7133 2.85252 10.7073 2.34949C9.74608 1.86889 8.36572 1.54999 6.80005 1.54999C5.23438 1.54999 3.85402 1.86889 2.89282 2.34949ZM2.89486 8.26513C1.89255 7.76973 1.55005 7.21426 1.55005 6.79999V6.20047C1.76321 6.34519 1.98944 6.47585 2.222 6.59213C3.43237 7.19732 5.05201 7.54999 6.80005 7.54999C8.54809 7.54999 10.1677 7.19732 11.3781 6.59213C11.6107 6.47585 11.8369 6.34519 12.05 6.20047V6.79999C12.05 7.21426 11.7075 7.76973 10.7052 8.26513C9.7432 8.74062 8.36232 9.04999 6.80005 9.04999C5.23778 9.04999 3.8569 8.74062 2.89486 8.26513Z" fill="black"/>
<path fill-rule="evenodd" clip-rule="evenodd" d="M12.6219 11.4079C11.4564 11.9906 10.45 12.9345 10.45 14.2V20.2C10.45 21.4857 11.4574 22.4303 12.6301 23.0099C13.8431 23.6094 15.4622 23.95 17.2 23.95C18.9377 23.95 20.5568 23.6094 21.7698 23.0099C22.9425 22.4303 23.95 21.4857 23.95 20.2V14.2C23.95 12.9345 22.9435 11.9906 21.778 11.4079C20.5676 10.8027 18.948 10.45 17.2 10.45C15.4519 10.45 13.8323 10.8027 12.6219 11.4079ZM13.2927 12.7495C12.2867 13.2525 11.95 13.8087 11.95 14.2C11.95 14.5913 12.2867 15.1475 13.2927 15.6505C14.2539 16.1311 15.6343 16.45 17.2 16.45C18.7656 16.45 20.146 16.1311 21.1072 15.6505C22.1132 15.1475 22.45 14.5913 22.45 14.2C22.45 13.8087 22.1132 13.2525 21.1072 12.7495C20.146 12.2689 18.7656 11.95 17.2 11.95C15.6343 11.95 14.2539 12.2689 13.2927 12.7495ZM22.45 17.2V16.6005C22.2368 16.7452 22.0106 16.8759 21.778 16.9922C20.5676 17.5973 18.948 17.95 17.2 17.95C15.4519 17.95 13.8323 17.5973 12.6219 16.9922C12.3893 16.8759 12.1631 16.7452 11.95 16.6005V17.2C11.95 17.6143 12.2925 18.1698 13.2948 18.6652C14.2568 19.1406 15.6377 19.45 17.2 19.45C18.7622 19.45 20.1431 19.1406 21.1051 18.6652C22.1074 18.1698 22.45 17.6143 22.45 17.2ZM11.95 19.6164C12.1654 19.7622 12.3945 19.8934 12.6301 20.0099C13.8431 20.6094 15.4622 20.95 17.2 20.95C18.9377 20.95 20.5568 20.6094 21.7698 20.0099C22.0054 19.8934 22.2345 19.7622 22.45 19.6164V20.2C22.45 20.6143 22.1074 21.1698 21.1051 21.6652C20.1431 22.1406 18.7622 22.45 17.2 22.45C15.6377 22.45 14.2568 22.1406 13.2948 21.6652C12.2925 21.1698 11.95 20.6143 11.95 20.2V19.6164Z" fill="black"/>
<path fill-rule="evenodd" clip-rule="evenodd" d="M15.3222 13.6966C15.2335 13.3812 14.9438 13.15 14.6001 13.15C14.1859 13.15 13.8501 13.4858 13.8501 13.9C13.8501 14.3486 14.1201 14.66 14.3401 14.8366C14.5678 15.0192 14.8507 15.1508 15.1323 15.2471C15.703 15.4424 16.4383 15.55 17.2001 15.55C17.9619 15.55 18.6972 15.4424 19.2679 15.2471C19.5495 15.1508 19.8324 15.0192 20.0601 14.8366C20.2801 14.66 20.5501 14.3486 20.5501 13.9C20.5501 13.4858 20.2143 13.15 19.8001 13.15C19.4564 13.15 19.1667 13.3812 19.078 13.6966C19.0222 13.731 18.9272 13.7783 18.7823 13.8279C18.403 13.9577 17.8383 14.05 17.2001 14.05C16.5619 14.05 15.9972 13.9577 15.6179 13.8279C15.473 13.7783 15.378 13.731 15.3222 13.6966ZM19.133 13.6565C19.1331 13.6565 19.1323 13.6573 19.1307 13.6587C19.1321 13.6573 19.133 13.6565 19.133 13.6565ZM15.2695 13.6587C15.2679 13.6573 15.2671 13.6565 15.2672 13.6565C15.2672 13.6565 15.268 13.6573 15.2695 13.6587Z" fill="#29D305"/>
<path fill-rule="evenodd" clip-rule="evenodd" d="M4.92202 3.29653C4.83334 2.98118 4.54364 2.75 4.19995 2.75C3.78574 2.75 3.44995 3.08579 3.44995 3.5C3.44995 3.94859 3.71994 4.26001 3.93998 4.43655C4.16763 4.61921 4.45059 4.75079 4.73219 4.84712C5.30284 5.04235 6.03815 5.15 6.79995 5.15C7.56175 5.15 8.29706 5.04235 8.86772 4.84712C9.14931 4.75079 9.43227 4.61921 9.65993 4.43655C9.87996 4.26001 10.15 3.94859 10.15 3.5C10.15 3.08579 9.81416 2.75 9.39995 2.75C9.05626 2.75 8.76656 2.98118 8.67788 3.29653C8.62204 3.33101 8.52704 3.37832 8.38219 3.42788C8.00284 3.55765 7.43815 3.65 6.79995 3.65C6.16175 3.65 5.59706 3.55765 5.21772 3.42788C5.07287 3.37832 4.97786 3.33101 4.92202 3.29653ZM8.73286 3.2565C8.73291 3.2565 8.7322 3.25723 8.73058 3.2587C8.732 3.25723 8.73281 3.2565 8.73286 3.2565ZM4.86932 3.2587C4.86771 3.25723 4.86699 3.2565 4.86704 3.2565C4.86709 3.2565 4.8679 3.25723 4.86932 3.2587Z" fill="#29D305"/>
</svg>
