<svg width="24" height="24" fill="none" xmlns="http://www.w3.org/2000/svg"><path fill-rule="evenodd" clip-rule="evenodd" d="M2.893 2.35C1.887 2.852 1.55 3.408 1.55 3.8s.337.947 1.343 1.45c.961.481 2.341.8 3.907.8 1.566 0 2.946-.319 3.907-.8 1.006-.503 1.343-1.059 1.343-1.45s-.337-.947-1.343-1.45c-.96-.481-2.341-.8-3.907-.8-1.566 0-2.946.319-3.907.8zm-.671-1.342C1.056 1.59.05 2.534.05 3.8v15c0 1.286 1.008 2.23 2.18 2.81 1.213.6 2.832.94 4.57.94.853 0 1.598-.106 2.29-.205l.016-.002a.75.75 0 00-.212-1.485c-.704.1-1.354.192-2.094.192-1.562 0-2.943-.31-3.905-.785-1.002-.495-1.345-1.05-1.345-1.465v-.584c.216.146.445.277.68.394 1.213.6 2.832.94 4.57.94.853 0 1.598-.106 2.29-.205l.016-.003a.75.75 0 10-.212-1.484c-.704.1-1.354.192-2.094.192-1.562 0-2.943-.31-3.905-.785-1.002-.495-1.345-1.05-1.345-1.465v-.584c.216.146.445.277.68.394 1.213.6 2.832.94 4.57.94.853 0 1.598-.106 2.29-.205l.016-.003a.75.75 0 10-.212-1.484c-.704.1-1.354.192-2.094.192-1.562 0-2.943-.31-3.905-.785-1.002-.495-1.345-1.05-1.345-1.465v-.584c.216.146.445.277.68.394 1.213.6 2.832.94 4.57.94.853 0 1.598-.106 2.29-.205l.016-.003a.75.75 0 00-.212-1.485c-.704.101-1.354.193-2.094.193-1.562 0-2.943-.31-3.905-.785C1.893 10.77 1.55 10.215 1.55 9.8v-.584c.216.146.445.277.68.394 1.213.6 2.832.94 4.57.94 1.738 0 3.357-.34 4.57-.94a5.81 5.81 0 00.68-.394V9.8a.75.75 0 001.5 0v-6c0-1.266-1.006-2.21-2.172-2.792C10.168.403 8.548.05 6.8.05c-1.748 0-3.368.353-4.578.958zm.673 7.257C1.893 7.77 1.55 7.215 1.55 6.8v-.6c.213.145.44.276.672.392 1.21.605 2.83.958 4.578.958 1.748 0 3.368-.353 4.578-.958a5.75 5.75 0 00.672-.392v.6c0 .414-.343.97-1.345 1.465-.962.476-2.343.785-3.905.785-1.562 0-2.943-.31-3.905-.785z" fill="#1B314B"/><path fill-rule="evenodd" clip-rule="evenodd" d="M13.293 12.75c-1.006.502-1.343 1.059-1.343 1.45s.337.948 1.343 1.45c.96.481 2.341.8 3.907.8 1.566 0 2.946-.319 3.907-.8 1.006-.502 1.343-1.059 1.343-1.45s-.337-.947-1.343-1.45c-.961-.481-2.341-.8-3.907-.8-1.566 0-2.946.319-3.907.8zm-.671-1.342c-1.166.583-2.172 1.527-2.172 2.792v6c0 1.286 1.007 2.23 2.18 2.81 1.213.6 2.832.94 4.57.94 1.738 0 3.357-.34 4.57-.94 1.172-.58 2.18-1.524 2.18-2.81v-6c0-1.265-1.006-2.21-2.172-2.792-1.21-.605-2.83-.958-4.578-.958-1.748 0-3.368.353-4.578.958zM22.45 17.2v-.6c-.213.145-.44.276-.672.392-1.21.605-2.83.958-4.578.958-1.748 0-3.368-.353-4.578-.958a5.875 5.875 0 01-.672-.392v.6c0 .414.343.97 1.345 1.465.962.476 2.343.785 3.905.785 1.562 0 2.943-.31 3.905-.785 1.002-.495 1.345-1.05 1.345-1.465zm-10.5 2.416c.215.146.445.277.68.394 1.213.6 2.832.94 4.57.94 1.738 0 3.357-.34 4.57-.94.235-.117.465-.248.68-.394v.584c0 .414-.343.97-1.345 1.465-.962.476-2.343.785-3.905.785-1.562 0-2.943-.31-3.905-.785-1.002-.495-1.345-1.05-1.345-1.465v-.584z" fill="#1B314B"/><path fill-rule="evenodd" clip-rule="evenodd" d="M15.322 13.697a.75.75 0 00-1.472.203c0 .449.27.76.49.937.228.182.51.314.792.41.571.195 1.306.303 2.068.303s1.497-.108 2.068-.303a2.65 2.65 0 00.792-.41c.22-.177.49-.488.49-.937a.75.75 0 00-1.472-.203 1.49 1.49 0 01-.296.13c-.379.13-.944.223-1.582.223-.638 0-1.203-.092-1.582-.222a1.507 1.507 0 01-.296-.131zm3.811-.04l-.002.002a.06.06 0 01.002-.003zm-3.863.002zM4.922 3.297A.75.75 0 003.45 3.5c0 .449.27.76.49.937.228.182.51.314.792.41.57.195 1.306.303 2.068.303s1.497-.108 2.068-.303a2.65 2.65 0 00.792-.41c.22-.177.49-.488.49-.937a.75.75 0 00-1.472-.203 1.519 1.519 0 01-.296.13c-.38.13-.944.223-1.582.223-.638 0-1.203-.092-1.582-.222a1.502 1.502 0 01-.296-.131zm3.81-.04zm-3.863.002z" fill="#1B314B"/></svg>