<svg width="25" height="24" fill="none" xmlns="http://www.w3.org/2000/svg"><path d="M12.401 6.362h-3.8c-.8 0-1.5.688-1.5 1.476v1.279h-3c-.8 0-1.5.689-1.5 1.476v2.952c0 .787.7 1.476 1.5 1.476h8.2c.4 0 .7-.295.7-.787V7.149c.1-.492-.2-.787-.6-.787zm-8.3 7.478v-3.149h3v3.15h-3zm7.5 0h-3V7.936h3v5.904z" fill="#1B314B"/><path d="M0 6.165v10.332c0 1.18 1 2.165 2.2 2.165h2.4c.3.886 1.1 1.476 2.1 1.476s1.8-.59 2.1-1.476h7.8c.3.886 1.1 1.476 2.1 1.476s1.8-.59 2.1-1.476h1.5c1-.098 1.7-.886 1.7-1.771V10.79c.1-1.968-1.4-3.74-3.4-3.838h-4.7v-.787C15.9 4.984 14.9 4 13.7 4H2.2C1 4 0 4.984 0 6.165zm14.3 7.577H1.5V6.165c0-.394.3-.787.8-.787h11.2c.4 0 .8.295.8.787v7.577zm8.2-3.05v.59h-3.6c-.1 0-.1 0-.1-.099V8.428h1.8c1 0 2 1.083 1.9 2.263zm-.2 6.592h-1.4c-.3-.885-1.1-1.476-2.1-1.476s-1.8.59-2.1 1.476h-.9V8.428h1.5v2.854c0 .885.7 1.574 1.6 1.574h3.6v1.476h-1.2c-.4 0-.8.295-.8.787 0 .492.3.788.8.788h1.2v1.18l-.2.197zm-4.3.69c0-.395.3-.788.8-.788s.8.295.8.787c0 .492-.3.787-.8.787s-.8-.393-.8-.787zm-12 0c0-.395.3-.788.8-.788s.8.295.8.787c0 .492-.3.787-.8.787s-.8-.393-.8-.787zm-4.5-1.477v-1.18h12.8v1.967H8.9c-.3-.885-1.1-1.476-2.1-1.476s-1.8.59-2.1 1.476H2.2c-.4 0-.7-.393-.7-.787z" fill="#1B314B"/></svg>