<svg width="24" height="24" viewBox="0 0 24 24" fill="none" xmlns="http://www.w3.org/2000/svg">
<g clip-path="url(#clip0)">
<path d="M12.401 6.49963H8.60104C7.80104 6.49963 7.10104 7.18845 7.10104 7.97566V9.25489H4.10104C3.30104 9.25489 2.60104 9.9437 2.60104 10.7309V13.683C2.60104 14.4702 3.30104 15.159 4.10104 15.159H12.301C12.701 15.159 13.001 14.8638 13.001 14.3718V7.28685C13.101 6.79484 12.801 6.49963 12.401 6.49963ZM4.10104 13.9782V10.8293H7.10104V13.9782H4.10104ZM11.601 13.9782H8.60104V10.0421V8.07407H11.601V13.9782Z" fill="#29D305"/>
<path d="M0 6.30278V13.6829V16.635C0 17.8158 1 18.7998 2.2 18.7998H4.6C4.9 19.6855 5.7 20.2759 6.7 20.2759C7.7 20.2759 8.5 19.6855 8.8 18.7998H16.6C16.9 19.6855 17.7 20.2759 18.7 20.2759C19.7 20.2759 20.5 19.6855 20.8 18.7998H22.3C23.3 18.7014 24 17.9142 24 17.0286V15.159V12.2069V10.9277C24.1 8.95964 22.6 7.1884 20.6 7.09H18.1H15.9V6.30278C15.9 5.12196 14.9 4.13794 13.7 4.13794H2.2C1 4.13794 0 5.12196 0 6.30278ZM14.3 13.8797H1.5V6.30278C1.5 5.90918 1.8 5.51557 2.3 5.51557H13.5C13.9 5.51557 14.3 5.81077 14.3 6.30278V7.77881V13.8797ZM22.5 10.8293V11.4197H18.9C18.8 11.4197 18.8 11.4197 18.8 11.3213V8.56603H20.6C21.6 8.56603 22.6 9.64845 22.5 10.8293ZM22.3 17.4222H20.9C20.6 16.5366 19.8 15.9462 18.8 15.9462C17.8 15.9462 17 16.5366 16.7 17.4222H15.8V13.6829V8.56603H17.3V11.4197C17.3 12.3053 18 12.9941 18.9 12.9941H22.5V14.4702H21.3C20.9 14.4702 20.5 14.7654 20.5 15.2574C20.5 15.7494 20.8 16.0446 21.3 16.0446H22.5V17.2254C22.5 17.2254 22.4 17.3238 22.3 17.4222ZM18 18.111C18 17.7174 18.3 17.3238 18.8 17.3238C19.3 17.3238 19.6 17.619 19.6 18.111C19.6 18.603 19.3 18.8982 18.8 18.8982C18.3 18.8982 18 18.5046 18 18.111ZM6 18.111C6 17.7174 6.3 17.3238 6.8 17.3238C7.3 17.3238 7.6 17.619 7.6 18.111C7.6 18.603 7.3 18.8982 6.8 18.8982C6.3 18.8982 6 18.5046 6 18.111ZM1.5 16.635V15.4542H14.3V17.4222H8.9C8.6 16.5366 7.8 15.9462 6.8 15.9462C5.8 15.9462 5 16.5366 4.7 17.4222H2.2C1.8 17.4222 1.5 17.0286 1.5 16.635Z" fill="black"/>
</g>
<defs>
<clipPath id="clip0">
<rect y="4.13794" width="24" height="16.1379" fill="white"/>
</clipPath>
</defs>
</svg>
