<svg width="24" height="24" viewBox="0 0 24 24" fill="none" xmlns="http://www.w3.org/2000/svg">
<g clip-path="url(#clip0)">
<path d="M12.401 6.34143H8.60104C7.80104 6.34143 7.10104 7.02436 7.10104 7.80484V9.07314H4.10104C3.30104 9.07314 2.60104 9.75606 2.60104 10.5366V13.4634C2.60104 14.2439 3.30104 14.9268 4.10104 14.9268H12.301C12.701 14.9268 13.001 14.6341 13.001 14.1463V7.12192C13.101 6.63411 12.801 6.34143 12.401 6.34143ZM4.10104 13.7561V10.6341H7.10104V13.7561H4.10104ZM11.601 13.7561H8.60104V9.85362V7.90241H11.601V13.7561Z" fill="#29D305"/>
<path d="M0 6.14634V13.4634V16.3902C0 17.561 1 18.5366 2.2 18.5366H4.6C4.9 19.4146 5.7 20 6.7 20C7.7 20 8.5 19.4146 8.8 18.5366H16.6C16.9 19.4146 17.7 20 18.7 20C19.7 20 20.5 19.4146 20.8 18.5366H22.3C23.3 18.439 24 17.6585 24 16.7805V14.9268V12V10.7317C24.1 8.78049 22.6 7.02439 20.6 6.92683H18.1H15.9V6.14634C15.9 4.97561 14.9 4 13.7 4H2.2C1 4 0 4.97561 0 6.14634ZM14.3 13.6585H1.5V6.14634C1.5 5.7561 1.8 5.36585 2.3 5.36585H13.5C13.9 5.36585 14.3 5.65854 14.3 6.14634V7.60976V13.6585ZM22.5 10.6341V11.2195H18.9C18.8 11.2195 18.8 11.2195 18.8 11.122V8.39024H20.6C21.6 8.39024 22.6 9.46341 22.5 10.6341ZM22.3 17.1707H20.9C20.6 16.2927 19.8 15.7073 18.8 15.7073C17.8 15.7073 17 16.2927 16.7 17.1707H15.8V13.4634V8.39024H17.3V11.2195C17.3 12.0976 18 12.7805 18.9 12.7805H22.5V14.2439H21.3C20.9 14.2439 20.5 14.5366 20.5 15.0244C20.5 15.5122 20.8 15.8049 21.3 15.8049H22.5V16.9756C22.5 16.9756 22.4 17.0732 22.3 17.1707ZM18 17.8537C18 17.4634 18.3 17.0732 18.8 17.0732C19.3 17.0732 19.6 17.3659 19.6 17.8537C19.6 18.3415 19.3 18.6341 18.8 18.6341C18.3 18.6341 18 18.2439 18 17.8537ZM6 17.8537C6 17.4634 6.3 17.0732 6.8 17.0732C7.3 17.0732 7.6 17.3659 7.6 17.8537C7.6 18.3415 7.3 18.6341 6.8 18.6341C6.3 18.6341 6 18.2439 6 17.8537ZM1.5 16.3902V15.2195H14.3V17.1707H8.9C8.6 16.2927 7.8 15.7073 6.8 15.7073C5.8 15.7073 5 16.2927 4.7 17.1707H2.2C1.8 17.1707 1.5 16.7805 1.5 16.3902Z" fill="black"/>
</g>
<defs>
<clipPath id="clip0">
<path d="M0 0H24V24H0V0Z" fill="white"/>
</clipPath>
</defs>
</svg>
