<svg width="24" height="24" fill="none" xmlns="http://www.w3.org/2000/svg"><path d="M1.167 0a.833.833 0 100 1.667h21.666a.833.833 0 000-1.667H1.167zm1.778 13.805a2.675 2.675 0 01-2.574-1.937.874.874 0 01.083-.669.884.884 0 01.775-.446c.399 0 .751.266.858.647a.892.892 0 001.748-.235.887.887 0 00-.89-.88.887.887 0 01-.891-.88c0-.485.398-.88.889-.88a.889.889 0 00.859-.652.886.886 0 00-.863-1.11.893.893 0 00-.857.653.89.89 0 01-1.087.622.882.882 0 01-.631-1.079 2.632 2.632 0 011.243-1.604 2.691 2.691 0 012.028-.265c1.421.377 2.269 1.828 1.888 3.234A2.64 2.64 0 014.934 9.4a2.61 2.61 0 01.682 1.762c0 1.457-1.198 2.642-2.671 2.643zm15.879 0c-.392 0-.731-.315-.844-.785-.11-.462.038-.97.36-1.235l2.843-2.335a2.43 2.43 0 00.283-1.148c0-.608-.395-1.1-.88-1.1-.487 0-.881.492-.881 1.1 0 .608-.395 1.1-.88 1.1-.487 0-.881-.492-.881-1.1C17.944 6.481 19.128 5 20.586 5c1.457 0 2.641 1.48 2.641 3.302 0 .958-.263 1.9-.742 2.648a.984.984 0 01-.204.231l-.514.423h.58c.486 0 .88.493.88 1.1 0 .608-4.403 1.101-4.403 1.101zm-9.689-.88c0 .486.395.88.88.88h3.523a.88.88 0 000-1.76h-.88V6.76c0-.97-.79-1.761-1.762-1.761h-.88a.88.88 0 000 1.761h.88v5.283h-.88a.88.88 0 00-.88.88zM.333 19.167c0-.46.373-.834.834-.834h21.666a.833.833 0 010 1.667H1.167a.833.833 0 01-.834-.833z" fill="#1B314B"/></svg>