<svg width="24" height="25" fill="none" xmlns="http://www.w3.org/2000/svg"><path d="M3.483 24.028A3.49 3.49 0 010 20.543V4.989a3.49 3.49 0 013.483-3.487H6a.75.75 0 010 1.501H3.483A1.987 1.987 0 001.5 4.99v13.03H12v-3.755a.75.75 0 111.5 0v6.276a3.488 3.488 0 01-3.482 3.486H3.483zM1.5 20.542c0 1.094.89 1.984 1.983 1.984h6.535c1.093 0 1.982-.89 1.982-1.984v-1.02H1.5v1.02z" fill="#1B314B"/><path d="M15.75 15.77a.75.75 0 01-.75-.751v-3.004h-3a3.756 3.756 0 01-3.75-3.754V3.756A3.756 3.756 0 0112 .002h8.25A3.756 3.756 0 0124 3.756v4.505a3.756 3.756 0 01-3.75 3.755h-.439l-3.53 3.534a.746.746 0 01-.531.22zM12 1.503a2.253 2.253 0 00-2.25 2.253v4.505A2.253 2.253 0 0012 10.514h3.75a.75.75 0 01.75.75v1.942l2.47-2.473c.14-.14.333-.22.53-.22h.75c1.241 0 2.25-1.01 2.25-2.253V3.755a2.253 2.253 0 00-2.25-2.253H12v.001z" fill="#1B314B"/><path d="M12.375 7.135c-.62 0-1.125-.506-1.125-1.126a1.12 1.12 0 011.084-1.124h.085A1.117 1.117 0 0113.5 6.01c0 .62-.505 1.126-1.125 1.126zm3.75 0c-.62 0-1.125-.506-1.125-1.126a1.12 1.12 0 011.084-1.124h.085A1.117 1.117 0 0117.25 6.01c0 .62-.505 1.126-1.125 1.126zm3.75 0a1.126 1.126 0 10-.001-2.251 1.126 1.126 0 00.001 2.25z" fill="#1B314B"/></svg>