<svg width="24" height="25" fill="none" xmlns="http://www.w3.org/2000/svg"><path d="M5.733 24.026a3.488 3.488 0 01-3.483-3.484V4.987A3.488 3.488 0 015.733 1.5H9a.75.75 0 010 1.502H5.733A1.987 1.987 0 003.75 4.987v13.032h10.5v-3.003a.75.75 0 111.5 0v5.524a3.488 3.488 0 01-3.482 3.486H5.733zM3.75 20.54c0 1.094.89 1.984 1.982 1.984h6.535c1.093 0 1.983-.89 1.983-1.984v-1.02H3.75v1.02z" fill="#1B314B"/><path d="M10.5 9.761a.75.75 0 010-1.502.75.75 0 00.75-.75V4.505A4.508 4.508 0 0115.75 0c2.481 0 4.5 2.021 4.5 4.505V7.51c0 .414.336.75.75.75a.75.75 0 010 1.502H10.5zm8.378-1.502a2.23 2.23 0 01-.128-.75V4.505a3.005 3.005 0 00-3-3.003c-1.654 0-3 1.347-3 3.003V7.51c0 .259-.043.512-.128.75h6.256z" fill="#1B314B"/><path d="M15.75 12.765a1.125 1.125 0 01-.058-2.249h.004c.01 0 .016-.002.026-.003l-.019.001a1.127 1.127 0 11.047 2.25z" fill="#FFB65C"/></svg>