<svg width="24" height="24" viewBox="0 0 24 24" fill="none" xmlns="http://www.w3.org/2000/svg">
<path d="M6.483 23.9983C4.563 23.9983 3.001 22.4373 3 20.5183V4.98128C3 3.06028 4.562 1.49828 6.483 1.49828H9C9.414 1.49828 9.75 1.83428 9.75 2.24828C9.75 2.66228 9.414 2.99828 9 2.99828H6.483C5.39 2.99828 4.5 3.88828 4.5 4.98128V17.9983H15V15.7483C15 15.3343 15.336 14.9983 15.75 14.9983C16.164 14.9983 16.5 15.3343 16.5 15.7483V20.5163C16.5 22.4363 14.938 23.9983 13.018 23.9983H6.483ZM4.5 20.5163C4.5 21.6093 5.39 22.4983 6.482 22.4983H13.017C14.11 22.4983 15 21.6093 15 20.5163V19.4983H4.5V20.5163Z" fill="black"/>
<path d="M15.75 6.37499C15.13 6.37499 14.625 5.86999 14.625 5.24999C14.625 4.65199 15.094 4.15999 15.692 4.12899C15.691 4.12899 15.695 4.12899 15.696 4.12899C15.706 4.12799 15.712 4.12699 15.722 4.12599C15.722 4.12599 15.712 4.12599 15.703 4.12699C15.719 4.12499 15.736 4.12399 15.75 4.12399C16.37 4.12399 16.875 4.62899 16.875 5.24899C16.875 5.86899 16.37 6.37499 15.75 6.37499Z" fill="black"/>
<path d="M15.749 13.426C15.412 13.426 15.093 13.316 14.827 13.109C14.73 13.033 14.642 12.945 14.567 12.849C12.712 10.477 10.5 7.233 10.5 5.25C10.5 2.355 12.855 0 15.75 0C18.645 0 21 2.355 21 5.25C21 7.23 18.788 10.476 16.932 12.85C16.646 13.216 16.215 13.426 15.749 13.426ZM15.75 1.5C13.682 1.5 12 3.182 12 5.25C12 6.411 13.437 8.969 15.75 11.926C18.063 8.967 19.5 6.409 19.5 5.25C19.5 3.182 17.818 1.5 15.75 1.5Z" fill="black"/>
</svg>
