<svg width="24" height="25" fill="none" xmlns="http://www.w3.org/2000/svg"><path d="M6.483 24.028A3.488 3.488 0 013 20.544V4.989a3.488 3.488 0 013.483-3.487H9a.75.75 0 010 1.501H6.483A1.987 1.987 0 004.5 4.99v13.03H15v-2.253a.75.75 0 111.5 0v4.774a3.488 3.488 0 01-3.482 3.486H6.483zM4.5 20.542c0 1.094.89 1.984 1.982 1.984h6.535c1.093 0 1.983-.89 1.983-1.984v-1.02H4.5v1.02zM15.75 6.384a1.124 1.124 0 11-.058-2.249h.004c.01 0 .016-.002.026-.003l-.019.001a1.127 1.127 0 01.047 2.25z" fill="#1B314B"/><path d="M15.749 13.443a1.488 1.488 0 01-1.182-.577C12.712 10.49 10.5 7.243 10.5 5.258A5.259 5.259 0 0115.75.002 5.259 5.259 0 0121 5.258c0 1.982-2.212 5.232-4.068 7.609a1.49 1.49 0 01-1.183.576zm.001-11.94A3.756 3.756 0 0012 5.258c0 1.162 1.437 3.723 3.75 6.683 2.313-2.962 3.75-5.523 3.75-6.683a3.756 3.756 0 00-3.75-3.755z" fill="#1B314B"/></svg>