<svg width="24" height="25" fill="none" xmlns="http://www.w3.org/2000/svg"><path d="M3.483 24.026A3.49 3.49 0 010 20.54V4.987A3.49 3.49 0 013.483 1.5H6a.75.75 0 010 1.502H3.483A1.987 1.987 0 001.5 4.987v13.032H12v-3.754a.75.75 0 111.5 0v6.275a3.488 3.488 0 01-3.482 3.486H3.483zM1.5 20.54c0 1.094.89 1.984 1.983 1.984h6.535c1.093 0 1.982-.89 1.982-1.984v-1.02H1.5v1.02z" fill="#1B314B"/><path d="M15.75 15.768a.75.75 0 01-.75-.75v-3.004h-3a3.756 3.756 0 01-3.75-3.755V3.754A3.756 3.756 0 0112 0h8.25A3.756 3.756 0 0124 3.754V8.26a3.756 3.756 0 01-3.75 3.755h-.439l-3.53 3.534a.746.746 0 01-.531.22zM12 1.502a2.253 2.253 0 00-2.25 2.252V8.26A2.253 2.253 0 0012 10.512h3.75a.75.75 0 01.75.75v1.942l2.47-2.473c.14-.14.333-.22.53-.22h.75c1.241 0 2.25-1.01 2.25-2.253V3.753a2.253 2.253 0 00-2.25-2.252H12z" fill="#1B314B"/><path d="M12.375 7.133c-.62 0-1.125-.505-1.125-1.126a1.12 1.12 0 011.084-1.123l.042-.001h.043A1.117 1.117 0 0113.5 6.008c0 .62-.505 1.126-1.125 1.126zm3.75 0c-.62 0-1.125-.505-1.125-1.126a1.12 1.12 0 011.084-1.123l.042-.001h.043a1.117 1.117 0 011.081 1.124c0 .62-.505 1.126-1.125 1.126zm3.75 0a1.126 1.126 0 10-.001-2.251 1.126 1.126 0 00.001 2.251z" fill="#FFB65C"/></svg>