<svg width="25" height="25" fill="none" xmlns="http://www.w3.org/2000/svg"><path d="M19.023 24.067a6.288 6.288 0 01-3.411-1.012A50.513 50.513 0 011.993 9.417C.387 6.89.734 3.663 2.833 1.562l.774-.775A2.578 2.578 0 015.442.028c.694 0 1.345.27 1.834.759l3.262 3.27a2.602 2.602 0 01-.002 3.67 1.1 1.1 0 00.001 1.552l5.232 5.239c.193.192.468.306.76.306s.567-.114.773-.32c.49-.49 1.141-.76 1.835-.76s1.345.27 1.835.759l3.261 3.263a2.603 2.603 0 010 3.674l-.774.774a6.236 6.236 0 01-4.436 1.853zm-2.581-2.263a4.84 4.84 0 002.583.758 4.74 4.74 0 003.372-1.41l.774-.775a1.1 1.1 0 000-1.55l-3.26-3.263a1.086 1.086 0 00-.774-.32c-.293 0-.568.115-.774.32-.489.49-1.141.76-1.834.76a2.57 2.57 0 01-1.824-.75l-5.228-5.235a2.603 2.603 0 010-3.673c.424-.426.426-1.12.001-1.547l-.027-.028-3.236-3.243a1.089 1.089 0 00-.773-.318c-.293 0-.568.114-.775.32l-.774.774a4.766 4.766 0 00-.653 5.958 48.998 48.998 0 0013.202 13.222z" fill="#1B314B"/><path fill-rule="evenodd" clip-rule="evenodd" d="M6.03 2.968a.75.75 0 010 1.06c-.661.662-.926 1.255-.97 1.783-.044.531.126 1.115.564 1.771a.75.75 0 11-1.248.832c-.562-.843-.892-1.76-.81-2.728.08-.972.565-1.88 1.403-2.718a.75.75 0 011.061 0z" fill="#FFB65C"/></svg>