<svg width="24" height="25" fill="none" xmlns="http://www.w3.org/2000/svg"><path d="M4.983 24.026A3.488 3.488 0 011.5 20.542V4.987A3.488 3.488 0 014.983 1.5H7.5a.75.75 0 010 1.502H4.983A1.987 1.987 0 003 4.987v13.032h10.5v-2.253a.75.75 0 111.5 0v4.774a3.488 3.488 0 01-3.482 3.486H4.983zM3 20.54c0 1.094.89 1.984 1.982 1.984h6.535c1.093 0 1.983-.89 1.983-1.984v-1.02H3v1.02z" fill="#1B314B"/><path d="M15.75 13.515c-3.722 0-6.75-3.031-6.75-6.757C9 3.03 12.028 0 15.75 0s6.75 3.031 6.75 6.758c0 3.726-3.028 6.757-6.75 6.757zm0-12.013a5.259 5.259 0 00-5.25 5.256 5.259 5.259 0 005.25 5.256A5.259 5.259 0 0021 6.758a5.259 5.259 0 00-5.25-5.256z" fill="#1B314B"/><path d="M15.75 8.26a.75.75 0 010-1.502 1.127 1.127 0 000-2.253c-.62 0-1.125.506-1.125 1.126a.75.75 0 11-1.5 0 2.63 2.63 0 012.625-2.628 2.63 2.63 0 012.625 2.628A2.63 2.63 0 0115.75 8.26zm0 3.003a1.124 1.124 0 01-.058-2.249h.004c.01 0 .016-.002.026-.003l-.019.001a1.127 1.127 0 11.047 2.25z" fill="#FFB65C"/></svg>