<svg width="24" height="25" fill="none" xmlns="http://www.w3.org/2000/svg"><path d="M4.983 24.028A3.488 3.488 0 011.5 20.544V4.989a3.488 3.488 0 013.483-3.487H7.5a.75.75 0 010 1.501H4.983A1.987 1.987 0 003 4.99v13.03h10.5v-2.253a.75.75 0 111.5 0v4.774a3.488 3.488 0 01-3.482 3.486H4.983zM3 20.542c0 1.094.89 1.984 1.982 1.984h6.535c1.093 0 1.983-.89 1.983-1.984v-1.02H3v1.02z" fill="#1B314B"/><path d="M15.75 13.517C12.028 13.517 9 10.486 9 6.76 9 3.033 12.028.002 15.75.002s6.75 3.031 6.75 6.757c0 3.727-3.028 6.758-6.75 6.758zm0-12.014A5.259 5.259 0 0010.5 6.76a5.259 5.259 0 005.25 5.256A5.259 5.259 0 0021 6.76a5.259 5.259 0 00-5.25-5.256z" fill="#1B314B"/><path d="M15.75 8.261a.75.75 0 010-1.502 1.127 1.127 0 000-2.252c-.62 0-1.125.505-1.125 1.126a.75.75 0 11-1.5 0 2.63 2.63 0 012.625-2.628 2.63 2.63 0 012.625 2.628 2.63 2.63 0 01-2.625 2.628zm0 3.004a1.125 1.125 0 11-.058-2.249h.004c.01 0 .016-.002.026-.003l-.019.001a1.127 1.127 0 01.047 2.25z" fill="#1B314B"/></svg>