<svg width="25" height="25" fill="none" xmlns="http://www.w3.org/2000/svg"><path d="M15.785 23.298a5.255 5.255 0 01-2.826-.83l-.038-.026A41.167 41.167 0 011.792 11.28a5.22 5.22 0 01.728-6.522l.63-.63a2.232 2.232 0 011.59-.657c.602 0 1.167.234 1.591.659l2.652 2.654c.425.425.659.99.658 1.594 0 .602-.234 1.168-.659 1.592a.752.752 0 000 1.062l4.242 4.248a.75.75 0 001.06-.001c.425-.425.99-.658 1.592-.658.602 0 1.167.234 1.591.659l2.645 2.647c.433.433.667.999.667 1.6a2.24 2.24 0 01-.66 1.593l-.628.63a5.204 5.204 0 01-3.706 1.548zM4.741 4.972a.744.744 0 00-.53.219l-.631.63a3.736 3.736 0 00-.511 4.673 39.69 39.69 0 0010.703 10.711l.023.016a3.702 3.702 0 001.984.576 3.73 3.73 0 002.653-1.11l.629-.629a.746.746 0 00.22-.532.746.746 0 00-.215-.526l-2.658-2.66a.743.743 0 00-.531-.218.744.744 0 00-.53.219c-.425.425-.99.659-1.592.659a2.237 2.237 0 01-1.591-.66l-4.242-4.247a2.257 2.257 0 010-3.186.751.751 0 00.001-1.062L5.271 5.192a.742.742 0 00-.53-.22z" fill="#1B314B"/><path d="M13.732 9.772a.75.75 0 01-.531-1.281l3.92-3.926c.232-.233.36-.542.36-.87 0-.789-.642-1.43-1.43-1.43-.892 0-1.192.473-1.565 1.608l-.043.13a.75.75 0 11-1.423-.474l.042-.126c.303-.922.867-2.64 2.99-2.64a2.936 2.936 0 012.93 2.932 2.726 2.726 0 01-.8 1.933l-2.64 2.644h2.69a.75.75 0 010 1.501h-4.5zm10.5 0a.75.75 0 01-.75-.75V8.27h-3a.749.749 0 01-.636-1.149l3.75-6.007a.745.745 0 01.843-.324c.32.092.543.388.543.722v7.509a.75.75 0 01-.75.75zm-.75-3.003V4.13l-1.647 2.638h1.647z" fill="#FFB65C"/></svg>