<svg width="24" height="25" fill="none" xmlns="http://www.w3.org/2000/svg"><path d="M5.733 24.028a3.488 3.488 0 01-3.483-3.484V4.989a3.488 3.488 0 013.483-3.487H9a.75.75 0 010 1.501H5.733A1.987 1.987 0 003.75 4.99v13.03h10.5v-3.004a.75.75 0 111.5 0v5.525a3.488 3.488 0 01-3.482 3.486H5.733zM3.75 20.542c0 1.094.89 1.984 1.982 1.984h6.535c1.093 0 1.983-.89 1.983-1.984v-1.02H3.75v1.02z" fill="#1B314B"/><path d="M10.5 9.763a.75.75 0 010-1.502.75.75 0 00.75-.75V4.506a4.508 4.508 0 014.5-4.505c2.481 0 4.5 2.021 4.5 4.505V7.51a.75.75 0 00.75.751.75.75 0 010 1.502H10.5zm8.378-1.502a2.23 2.23 0 01-.128-.75V4.506a3.005 3.005 0 00-3-3.004c-1.654 0-3 1.348-3 3.004V7.51c0 .26-.043.513-.128.751h6.256zm-3.128 4.505a1.124 1.124 0 11-.058-2.249h.004l.026-.002h-.019a1.127 1.127 0 01.047 2.25z" fill="#1B314B"/></svg>