<svg width="24" height="24" viewBox="0 0 24 24" fill="none" xmlns="http://www.w3.org/2000/svg">
<path d="M5.733 23.9983C3.813 23.9983 2.251 22.4373 2.25 20.5183V4.98128C2.25 3.06028 3.812 1.49828 5.733 1.49828H9C9.414 1.49828 9.75 1.83428 9.75 2.24828C9.75 2.66228 9.414 2.99828 9 2.99828H5.733C4.64 2.99828 3.75 3.88828 3.75 4.98128V17.9983H14.25V14.9983C14.25 14.5843 14.586 14.2483 15 14.2483C15.414 14.2483 15.75 14.5843 15.75 14.9983V20.5163C15.75 22.4363 14.188 23.9983 12.268 23.9983H5.733ZM3.75 20.5163C3.75 21.6093 4.64 22.4983 5.732 22.4983H12.267C13.36 22.4983 14.25 21.6093 14.25 20.5163V19.4983H3.75V20.5163Z" fill="black"/>
<path d="M10.5 9.75C10.086 9.75 9.74999 9.414 9.74999 9C9.74999 8.586 10.086 8.25 10.5 8.25C10.914 8.25 11.25 7.914 11.25 7.5V4.5C11.25 2.019 13.269 0 15.75 0C18.231 0 20.25 2.019 20.25 4.5V7.5C20.25 7.914 20.586 8.25 21 8.25C21.414 8.25 21.75 8.586 21.75 9C21.75 9.414 21.414 9.75 21 9.75H10.5ZM18.878 8.25C18.793 8.012 18.75 7.759 18.75 7.5V4.5C18.75 2.846 17.404 1.5 15.75 1.5C14.096 1.5 12.75 2.846 12.75 4.5V7.5C12.75 7.759 12.707 8.012 12.622 8.25H18.878Z" fill="black"/>
<path d="M15.75 12.75C15.13 12.75 14.625 12.245 14.625 11.625C14.625 11.027 15.094 10.535 15.692 10.504C15.691 10.504 15.695 10.504 15.696 10.504C15.706 10.503 15.712 10.502 15.722 10.501C15.722 10.501 15.712 10.501 15.703 10.502C15.719 10.5 15.736 10.499 15.75 10.499C16.37 10.499 16.875 11.004 16.875 11.624C16.875 12.244 16.37 12.75 15.75 12.75Z" fill="black"/>
</svg>
