<svg width="24" height="24" viewBox="0 0 24 24" fill="none" xmlns="http://www.w3.org/2000/svg">
<path d="M3.47901 23.9983C1.56121 23.9983 0.000998853 22.4363 0 20.5173V4.98129C0.000998853 3.06129 1.56121 1.49929 3.47901 1.49829H5.99312C6.40664 1.49829 6.74226 1.83429 6.74226 2.24829C6.74226 2.66229 6.40664 2.99829 5.99312 2.99829H3.47901C2.38726 2.99829 1.49828 3.88829 1.49828 4.98129V17.9983H11.9862V14.2483C11.9862 13.8343 12.3219 13.4983 12.7354 13.4983C13.1489 13.4983 13.4845 13.8343 13.4845 14.2483V20.5163C13.4845 22.4363 11.9243 23.9983 10.0065 23.9983H3.47901ZM1.49828 20.5163C1.49828 21.6093 2.38726 22.4983 3.47901 22.4983H10.0065C11.0983 22.4983 11.9862 21.6093 11.9862 20.5163V19.4983H1.49828V20.5163Z" fill="white"/>
<path d="M15.7319 15.75C15.6331 15.75 15.5362 15.731 15.4443 15.693C15.1646 15.576 14.9828 15.304 14.9828 15V12H11.9862C9.92061 12 8.24054 10.318 8.24054 8.25V3.75C8.24054 1.682 9.92061 0 11.9862 0H20.2268C22.2924 0 23.9725 1.682 23.9725 3.75V8.25C23.9725 10.318 22.2924 12 20.2268 12H19.7883L16.2623 15.53C16.1205 15.672 15.9317 15.75 15.7319 15.75ZM11.9862 1.5C10.7467 1.5 9.73882 2.509 9.73882 3.75V8.25C9.73882 9.491 10.7467 10.5 11.9862 10.5H15.7319C16.1455 10.5 16.4811 10.836 16.4811 11.25V13.189L18.9482 10.719C19.0881 10.579 19.2809 10.499 19.4776 10.499H20.2268C21.4664 10.499 22.4742 9.49 22.4742 8.249V3.749C22.4742 2.508 21.4664 1.499 20.2268 1.499H11.9862V1.5Z" fill="white"/>
<path d="M12.3608 7.12501C11.7415 7.12501 11.2371 6.62001 11.2371 6.00001C11.2371 5.39301 11.7125 4.90001 12.3198 4.87801C12.3248 4.87701 12.3438 4.87701 12.3618 4.87701C12.3698 4.87701 12.3968 4.87801 12.4047 4.87801C13.0051 4.89601 13.4845 5.38901 13.4845 6.00001C13.4845 6.62001 12.9801 7.12501 12.3608 7.12501Z" fill="#29D305"/>
<path d="M16.1065 7.12501C15.4872 7.12501 14.9828 6.62001 14.9828 6.00001C14.9828 5.39301 15.4582 4.90001 16.0655 4.87801C16.0705 4.87701 16.0895 4.87701 16.1075 4.87701C16.1155 4.87701 16.1424 4.87801 16.1504 4.87801C16.7507 4.89601 17.2302 5.38901 17.2302 6.00001C17.2302 6.62001 16.7258 7.12501 16.1065 7.12501Z" fill="#29D305"/>
<path d="M19.8522 7.125C20.4728 7.125 20.9759 6.62132 20.9759 6C20.9759 5.37868 20.4728 4.875 19.8522 4.875C19.2316 4.875 18.7285 5.37868 18.7285 6C18.7285 6.62132 19.2316 7.125 19.8522 7.125Z" fill="#29D305"/>
</svg>
