<svg width="24" height="24" viewBox="0 0 24 24" fill="none" xmlns="http://www.w3.org/2000/svg">
<path d="M4.983 23.9983C3.063 23.9983 1.501 22.4373 1.5 20.5183V4.98128C1.5 3.06028 3.062 1.49828 4.983 1.49828H7.5C7.914 1.49828 8.25 1.83428 8.25 2.24828C8.25 2.66228 7.914 2.99828 7.5 2.99828H4.983C3.89 2.99828 3 3.88828 3 4.98128V17.9983H13.5V15.7483C13.5 15.3343 13.836 14.9983 14.25 14.9983C14.664 14.9983 15 15.3343 15 15.7483V20.5163C15 22.4363 13.438 23.9983 11.518 23.9983H4.983ZM3 20.5163C3 21.6093 3.89 22.4983 4.982 22.4983H11.517C12.61 22.4983 13.5 21.6093 13.5 20.5163V19.4983H3V20.5163Z" fill="black"/>
<path d="M15.75 13.5C12.028 13.5 9 10.472 9 6.75C9 3.028 12.028 0 15.75 0C19.472 0 22.5 3.028 22.5 6.75C22.5 10.472 19.472 13.5 15.75 13.5ZM15.75 1.5C12.855 1.5 10.5 3.855 10.5 6.75C10.5 9.645 12.855 12 15.75 12C18.645 12 21 9.645 21 6.75C21 3.855 18.645 1.5 15.75 1.5Z" fill="black"/>
<path d="M15.75 8.25C15.336 8.25 15 7.914 15 7.5C15 7.086 15.336 6.75 15.75 6.75C16.37 6.75 16.875 6.245 16.875 5.625C16.875 5.005 16.37 4.5 15.75 4.5C15.13 4.5 14.625 5.005 14.625 5.625C14.625 6.039 14.289 6.375 13.875 6.375C13.461 6.375 13.125 6.039 13.125 5.625C13.125 4.178 14.302 3 15.75 3C17.198 3 18.375 4.178 18.375 5.625C18.375 7.072 17.198 8.25 15.75 8.25Z" fill="black"/>
<path d="M15.75 11.25C15.13 11.25 14.625 10.745 14.625 10.125C14.625 9.527 15.094 9.035 15.692 9.004C15.691 9.004 15.695 9.004 15.696 9.004C15.706 9.003 15.712 9.002 15.722 9.001C15.722 9.001 15.712 9.001 15.703 9.002C15.719 9.001 15.736 9 15.75 9C16.37 9 16.875 9.505 16.875 10.125C16.875 10.745 16.37 11.25 15.75 11.25Z" fill="black"/>
</svg>
