<svg width="24" height="24" viewBox="0 0 24 24" fill="none" xmlns="http://www.w3.org/2000/svg">
<path d="M14.8075 23.248C13.811 23.248 12.8345 22.9611 11.9829 22.4194L11.9449 22.3934C7.55708 19.4288 3.82092 15.6927 0.850375 11.2968C0.844378 11.2878 0.827386 11.2608 0.821389 11.2499C-0.500962 9.17387 -0.204108 6.49218 1.54903 4.73904L2.17872 4.11035C2.60251 3.68656 3.16724 3.45367 3.76794 3.45367C4.36965 3.45367 4.93437 3.68756 5.35816 4.11135L8.00886 6.76105C8.43365 7.18584 8.66754 7.75057 8.66654 8.35227C8.66654 8.95398 8.43265 9.5187 8.00786 9.94249C7.71601 10.2343 7.71601 10.7101 8.00786 11.002L12.2478 15.2429C12.3887 15.3838 12.5776 15.4618 12.7775 15.4618C12.9774 15.4618 13.1663 15.3838 13.3073 15.2429C13.7321 14.8181 14.2968 14.5852 14.8985 14.5852C15.5002 14.5852 16.0649 14.8191 16.4887 15.2429L19.1324 17.8856C19.5652 18.3184 19.7991 18.8831 19.7991 19.4838C19.7991 20.0845 19.5642 20.6492 19.1394 21.074L18.5117 21.7027C17.5172 22.6992 16.2008 23.248 14.8075 23.248ZM3.76894 4.95194C3.56804 4.95194 3.38013 5.0299 3.2392 5.17083L2.60851 5.80052C1.35613 7.05291 1.14623 8.97097 2.09776 10.4652C4.95636 14.6952 8.55759 18.2954 12.7955 21.159C12.7975 21.16 12.8165 21.174 12.8185 21.175C13.4042 21.5478 14.0959 21.7497 14.8015 21.7497C15.797 21.7497 16.7386 21.3559 17.4532 20.6422L18.0819 20.0136C18.2239 19.8716 18.3018 19.6837 18.3018 19.4828C18.3018 19.2849 18.2258 19.098 18.0869 18.9571L15.4302 16.3024C15.2883 16.1604 15.1004 16.0835 14.8995 16.0835C14.6986 16.0835 14.5107 16.1614 14.3697 16.3024C13.9449 16.7272 13.3802 16.96 12.7785 16.96C12.1778 16.96 11.6131 16.7262 11.1883 16.3024L6.94838 12.0615C6.07181 11.1849 6.07181 9.75858 6.94838 8.88101C7.09031 8.73908 7.16827 8.55117 7.16827 8.35127C7.16827 8.15137 7.09031 7.96246 6.94938 7.82053L4.29868 5.17183C4.15775 5.0299 3.96884 4.95194 3.76894 4.95194Z" fill="black"/>
<path d="M12.7555 9.7456C12.4517 9.7456 12.1798 9.56369 12.0629 9.28282C11.9469 9.00196 12.0099 8.68112 12.2248 8.46623L16.1429 4.54715C16.3748 4.31426 16.5027 4.00541 16.5027 3.67757C16.5027 2.89096 15.861 2.25027 15.0744 2.25027C14.1818 2.25027 13.882 2.72304 13.5092 3.85549L13.4662 3.98542C13.3632 4.29327 13.0774 4.49917 12.7545 4.49917C12.6736 4.49917 12.5946 4.48618 12.5176 4.46019C12.3277 4.39722 12.1738 4.26329 12.0849 4.08437C11.9959 3.90546 11.9809 3.70256 12.0439 3.51265L12.0859 3.38672C12.3887 2.46617 12.9524 0.751007 15.0754 0.751007C16.6896 0.752007 18.002 2.06536 18.003 3.67857C18.002 4.40721 17.7181 5.09288 17.2043 5.60763L14.5656 8.24733H17.2543C17.6681 8.24733 18.004 8.58317 18.004 8.99697C18.004 9.41076 17.6681 9.7466 17.2543 9.7466H12.7555V9.7456Z" fill="black"/>
<path d="M23.2504 9.74559C22.8366 9.74559 22.5008 9.40975 22.5008 8.99595V8.24632H19.5022C19.2294 8.24632 18.9785 8.0984 18.8465 7.85951C18.7146 7.62163 18.7216 7.33077 18.8665 7.09988L22.6147 1.10283C22.7526 0.881935 22.9895 0.75 23.2504 0.75C23.3204 0.75 23.3893 0.759995 23.4573 0.778986C23.7771 0.870941 24 1.1668 24 1.49963V8.99595C24 9.40975 23.6642 9.74559 23.2504 9.74559ZM22.5008 6.74706V4.11335L20.8546 6.74706H22.5008Z" fill="black"/>
</svg>
