<svg width="24" height="24" viewBox="0 0 24 24" fill="none" xmlns="http://www.w3.org/2000/svg">
<path d="M13.5 10.5C13.086 10.5 12.75 10.164 12.75 9.75V0.75C12.75 0.336 13.087 0 13.5 0C18.876 0 23.25 4.374 23.25 9.75C23.25 10.164 22.914 10.5 22.5 10.5H13.5ZM21.716 9C21.357 5.071 18.179 1.893 14.25 1.534V9H21.716Z" fill="black"/>
<path d="M10.501 24C7.89698 24 5.44898 22.986 3.60698 21.145C1.76498 19.304 0.750977 16.855 0.750977 14.251C0.750977 11.647 1.76498 9.198 3.60598 7.357C5.44698 5.515 7.89598 4.5 10.5 4.5C10.697 4.5 10.891 4.58 11.03 4.72C11.172 4.862 11.25 5.05 11.25 5.25V13.991L16.651 20.864C16.775 21.021 16.83 21.218 16.806 21.417C16.782 21.616 16.682 21.794 16.525 21.917C14.815 23.26 12.676 24 10.501 24ZM9.74998 6.034C7.83198 6.207 6.03898 7.044 4.66698 8.417C3.10898 9.975 2.25098 12.047 2.25098 14.251C2.25098 16.455 3.10898 18.526 4.66798 20.084C6.22598 21.642 8.29798 22.5 10.501 22.5C12.081 22.5 13.658 22.031 14.987 21.173L9.91098 14.713C9.80798 14.581 9.75098 14.417 9.75098 14.25V6.034H9.74998Z" fill="black"/>
<path d="M19.061 20.577C18.829 20.577 18.614 20.473 18.471 20.29L12.91 13.213C12.733 12.988 12.701 12.678 12.826 12.421C12.95 12.166 13.215 12 13.5 12H22.5C22.913 12 23.25 12.336 23.25 12.749C23.252 15.762 21.894 18.557 19.524 20.416C19.393 20.52 19.229 20.577 19.061 20.577ZM19.167 18.748C20.646 17.36 21.54 15.521 21.718 13.5H15.044L19.167 18.748Z" fill="#29D305"/>
</svg>
