<svg width="24" height="24" fill="none" xmlns="http://www.w3.org/2000/svg"><g clip-path="url(#clip0)"><path d="M12.25 12.765a4.508 4.508 0 01-4.5-4.505 4.508 4.508 0 014.5-4.505c2.481 0 4.5 2.021 4.5 4.505a4.508 4.508 0 01-4.5 4.505zm0-7.509c-1.654 0-3 1.348-3 3.004a3.005 3.005 0 003 3.004c1.654 0 3-1.348 3-3.004a3.005 3.005 0 00-3-3.004z" fill="#FFB65C"/><path d="M12.248 24.03A1.497 1.497 0 0111 23.358c-.702-1.058-2.448-3.87-4.039-6.933C4.996 12.64 4 9.894 4 8.26 4 3.705 7.701 0 12.25 0c4.549 0 8.25 3.705 8.25 8.26 0 1.633-.996 4.38-2.961 8.165-1.59 3.061-3.337 5.874-4.039 6.933a1.488 1.488 0 01-1.252.672zm.002-22.528c-3.722 0-6.75 3.031-6.75 6.758 0 2.883 4.396 10.715 6.75 14.267C14.604 18.975 19 11.142 19 8.26c0-3.726-3.028-6.758-6.75-6.758z" fill="#1B314B"/></g><defs><clipPath id="clip0"><path fill="#fff" d="M0 0h24v24H0z"/></clipPath></defs></svg>