<svg width="17" height="25" fill="none" xmlns="http://www.w3.org/2000/svg"><path fill-rule="evenodd" clip-rule="evenodd" d="M3.75 8.26a4.508 4.508 0 004.5 4.505c2.481 0 4.5-2.021 4.5-4.505a4.508 4.508 0 00-4.5-4.505 4.508 4.508 0 00-4.5 4.505zm1.5 0a3.005 3.005 0 013-3.004c1.654 0 3 1.348 3 3.004a3.005 3.005 0 01-3 3.004c-1.654 0-3-1.348-3-3.004z" fill="#1B314B"/><path fill-rule="evenodd" clip-rule="evenodd" d="M7.421 23.78a1.497 1.497 0 002.079-.422c.702-1.06 2.449-3.872 4.039-6.933C15.504 12.64 16.5 9.893 16.5 8.26 16.5 3.705 12.799 0 8.25 0 3.701 0 0 3.705 0 8.26c0 1.634.996 4.38 2.961 8.165C4.552 19.488 6.298 22.3 7 23.358c.112.168.253.31.421.422zM1.5 8.26c0-3.727 3.028-6.758 6.75-6.758S15 4.534 15 8.26c0 2.882-4.396 10.715-6.75 14.267C5.896 18.975 1.5 11.143 1.5 8.26z" fill="#1B314B"/></svg>