<svg width="24" height="24" viewBox="0 0 24 24" fill="none" xmlns="http://www.w3.org/2000/svg">
<path d="M17.2 10.5C13.5 10.5 10.6 13.2 10.4 16.8H6.3C3 16.8 1.5 13.7 1.5 10.8C1.5 9.1 2 7.5 2.8 6.4C3.7 5.1 5.1 4.5 6.7 4.5H8.2C8.5 6.2 10.1 7.5 11.9 7.5H13.4C14.4 7.5 15.2 6.9 15.5 6H18C18.4 6 18.8 5.7 18.8 5.2C18.8 4.7 18.4 4.5 18 4.5H15.8V3H18C18.4 3 18.8 2.7 18.8 2.2C18.8 1.7 18.4 1.5 18 1.5H15.6C15.3 0.7 14.5 0 13.5 0H12C10.2 0 8.7 1.3 8.3 3H6.8C4.7 3 2.9 3.9 1.7 5.5C0.6 7 0 8.8 0 10.9C0 14.6 2.2 18.4 6.3 18.4H10.5C11.1 21.6 13.9 24 17.2 24C21 24 24 20.9 24 17.2C24 13.5 21 10.5 17.2 10.5ZM12 1.6H13.5C13.9 1.6 14.3 1.9 14.3 2.4V5.4C14.2 5.7 13.9 6 13.5 6H12C10.8 6 9.8 5 9.8 3.8C9.8 2.6 10.8 1.6 12 1.6ZM17.2 22.4C14.4 22.4 12 20 12 17.2C12 14.4 14.3 12 17.2 12C20.1 12 22.4 14.4 22.4 17.2C22.4 20 20 22.4 17.2 22.4Z" fill="black"/>
<path d="M17.199 18.8001C16.599 18.8001 16.099 19.3001 16.099 19.9001C16.099 20.5001 16.599 21.0001 17.199 21.0001C17.799 21.0001 18.299 20.5001 18.299 19.9001C18.299 19.3001 17.799 18.8001 17.199 18.8001Z" fill="black"/>
<path d="M17.201 17.9998C17.701 17.9998 18.001 17.6998 18.001 17.1998V14.1997C18.001 13.6997 17.701 13.3997 17.201 13.3997C16.701 13.3997 16.401 13.7997 16.401 14.1997V17.1998C16.401 17.6998 16.801 17.9998 17.201 17.9998Z" fill="black"/>
</svg>
