<svg width="19" height="25" fill="none" xmlns="http://www.w3.org/2000/svg"><path d="M13.2 17.2H4.8c-.4 0-.7-.3-.7-.7v-.1c0-.4.3-.7.7-.7h8.4c.4 0 .7.3.7.7v.1c0 .4-.3.7-.7.7z" fill="#1B314B"/><path fill-rule="evenodd" clip-rule="evenodd" d="M1.8 0h14.4c1 0 1.8.8 1.9 1.8v20.5c0 1-.8 1.8-1.8 1.8H1.8c-1 0-1.8-.8-1.8-1.8V1.8C0 .8.8 0 1.8 0zm14.5 22.4c.1 0 .2-.1.2-.2h.1v-8.8h-15v8.8c0 .1.1.2.2.2h14.5zM9 10.5c-.9 0-1.8.6-2.1 1.5h4.2c-.3-.9-1.2-1.5-2.1-1.5zm3.7 1.5h3.8V4.5h-15V12h3.8c.4-1.7 1.9-3 3.7-3 .5 0 1 .1 1.5.2L13 5.5c.1-.2.3-.3.6-.3.1 0 .3 0 .4.1.1.1.3.3.3.5.1.2 0 .4-.1.6l-2.5 3.7c.5.5.9 1.2 1 1.9zM1.5 3h14.9V1.8c0-.1-.1-.2-.2-.2H1.7c-.1 0-.2.1-.2.2V3z" fill="#1B314B"/></svg>