<svg width="24" height="24" fill="none" xmlns="http://www.w3.org/2000/svg"><g clip-path="url(#clip0)"><path d="M19.2 0H4.8C3.8 0 3 .8 3 1.8v20.5c0 1 .8 1.8 1.8 1.8h14.5c1 0 1.8-.8 1.8-1.8V1.8C21 .8 20.2 0 19.2 0zm.3 22.2c0 .1-.1.2-.2.2H4.8c-.1 0-.2-.1-.2-.2v-8.8h15v8.8h-.1zM9.9 12c.3-.9 1.2-1.5 2.1-1.5.9 0 1.8.6 2.1 1.5H9.9zm9.6 0h-3.8c-.1-.7-.5-1.4-1-1.9l2.5-3.7c.1-.2.2-.4.1-.6 0-.2-.2-.4-.3-.5-.1-.1-.3-.1-.4-.1-.3 0-.5.1-.6.3l-2.5 3.7c-.5-.1-1-.2-1.5-.2-1.8 0-3.3 1.3-3.7 3H4.5V4.5h15V12zm0-9h-15V1.8c0-.1.1-.2.2-.2h14.5c.1 0 .2.1.2.2V3h.1z" fill="#1B314B"/><path d="M7.8 17.2h8.4c.4 0 .7-.3.7-.7v-.1c0-.4-.3-.7-.7-.7H7.8c-.4 0-.7.3-.7.7v.1c0 .4.3.7.7.7z" fill="#FFB65C"/></g><defs><clipPath id="clip0"><path fill="#fff" d="M0 0h24v24H0z"/></clipPath></defs></svg>