<svg width="24" height="24" viewBox="0 0 24 24" fill="none" xmlns="http://www.w3.org/2000/svg">
<g clip-path="url(#clip0)">
<path fill-rule="evenodd" clip-rule="evenodd" d="M3.97518 3.64347C4.18859 3.6144 4.40484 3.67533 4.56445 3.8095C5.38211 4.49685 7.24792 5.69622 9.44176 6.66073C11.6526 7.63272 14.0573 8.30348 15.9907 8.08C19.6269 7.65971 21.8873 5.97997 22.7709 5.16291C23.0521 4.90291 23.5079 4.90291 23.7891 5.16291C24.0703 5.42292 24.0703 5.84446 23.7891 6.10446C22.7527 7.06281 20.2131 8.93387 16.1694 9.40127C13.8161 9.67327 11.1009 8.86454 8.82345 7.86328C6.97057 7.04868 5.31569 6.06526 4.25108 5.29973C3.6902 6.08014 3.18401 6.61991 2.69848 7.01899C2.08721 7.52143 1.53664 7.77597 1.05496 7.99865L1.04214 8.00458C0.686483 8.16902 0.254001 8.03571 0.0761696 7.70683C-0.101661 7.37795 0.0424991 6.97804 0.398161 6.8136C0.873429 6.59386 1.27851 6.40459 1.7418 6.02378C2.21078 5.63831 2.76703 5.0318 3.46274 3.9596C3.57372 3.78856 3.76178 3.67255 3.97518 3.64347Z" fill="black"/>
<path fill-rule="evenodd" clip-rule="evenodd" d="M14.4994 16.4859C14.0581 17.034 13.4219 17.4838 12.4472 17.7696C11.7226 17.982 11.3658 18.2752 11.1521 18.5668C10.9202 18.8832 10.8007 19.2685 10.6677 19.7988C10.6553 19.8483 10.6427 19.8993 10.6298 19.9517C10.5139 20.4223 10.3712 21.0017 10.0791 21.5447C9.73653 22.1818 9.20265 22.7549 8.3268 23.1952C7.96792 23.3756 7.53076 23.2309 7.35036 22.872C7.16996 22.5131 7.31464 22.076 7.67351 21.8956C8.28251 21.5895 8.59712 21.2295 8.79807 20.8558C8.99825 20.4836 9.09774 20.0839 9.22126 19.5876C9.23287 19.541 9.2447 19.4935 9.25684 19.445C9.38902 18.9179 9.5612 18.2769 9.9789 17.707C10.4148 17.1122 11.0656 16.6589 12.0379 16.3738C12.7602 16.162 13.1316 15.8654 13.3665 15.5737C13.5938 15.2913 13.7218 14.9875 13.8875 14.5941C13.9108 14.5389 13.9348 14.4818 13.9599 14.4229C14.1492 13.9789 14.4092 13.4133 14.9661 12.9926C15.5303 12.5664 16.2916 12.3636 17.3335 12.3636C18.6298 12.3636 19.525 12.8911 20.1353 13.7354C20.7011 14.518 21.0007 15.5473 21.2504 16.5095C21.2967 16.6876 21.3414 16.8645 21.3858 17.04C21.5935 17.8607 21.7935 18.6509 22.0972 19.3829C22.4581 20.2531 22.9369 20.9614 23.6696 21.4382C24.0062 21.6573 24.1015 22.1078 23.8824 22.4444C23.6633 22.7811 23.2128 22.8764 22.8762 22.6573C21.8121 21.9648 21.1803 20.9688 20.7536 19.9403C20.4053 19.1006 20.1745 18.1858 19.9669 17.3632C19.9248 17.1962 19.8836 17.033 19.8426 16.875C19.587 15.8903 19.3407 15.1189 18.9565 14.5875C18.617 14.1178 18.1584 13.8181 17.3335 13.8181C16.4663 13.8181 16.061 13.9885 15.8429 14.1532C15.6176 14.3234 15.4799 14.5664 15.298 14.9932C15.2775 15.0412 15.2564 15.092 15.2342 15.1452C15.0753 15.5269 14.8652 16.0316 14.4994 16.4859Z" fill="black"/>
<path d="M9 14C9 14.5523 8.55228 15 8 15C7.44772 15 7 14.5523 7 14C7 13.4477 7.44772 13 8 13C8.55228 13 9 13.4477 9 14Z" fill="black"/>
<path d="M12 2.99997C12 3.55225 11.5523 3.99997 11 3.99997C10.4477 3.99997 10 3.55225 10 2.99997C10 2.44768 10.4477 1.99997 11 1.99997C11.5523 1.99997 12 2.44768 12 2.99997Z" fill="black"/>
<path d="M22 1.99997C22 2.55225 21.5523 2.99997 21 2.99997C20.4477 2.99997 20 2.55225 20 1.99997C20 1.44768 20.4477 0.999969 21 0.999969C21.5523 0.999969 22 1.44768 22 1.99997Z" fill="black"/>
<path d="M23 9.99997C23 10.5523 22.5523 11 22 11C21.4477 11 21 10.5523 21 9.99997C21 9.44768 21.4477 8.99997 22 8.99997C22.5523 8.99997 23 9.44768 23 9.99997Z" fill="black"/>
<path d="M18 4.99997C18 5.55225 17.5523 5.99997 17 5.99997C16.4477 5.99997 16 5.55225 16 4.99997C16 4.44768 16.4477 3.99997 17 3.99997C17.5523 3.99997 18 4.44768 18 4.99997Z" fill="black"/>
<path d="M11 12C11 12.5523 10.5523 13 10 13C9.44772 13 9 12.5523 9 12C9 11.4477 9.44772 11 10 11C10.5523 11 11 11.4477 11 12Z" fill="black"/>
<path fill-rule="evenodd" clip-rule="evenodd" d="M3.75 1.99999C4.16421 1.99999 4.5 2.33578 4.5 2.74999V22.25C4.5 22.6642 4.16421 23 3.75 23C3.33579 23 3 22.6642 3 22.25V2.74999C3 2.33578 3.33579 1.99999 3.75 1.99999Z" fill="black"/>
</g>
<defs>
<clipPath id="clip0">
<path d="M0 0H24V24H0V0Z" fill="white"/>
</clipPath>
</defs>
</svg>
