<svg width="24" height="24" viewBox="0 0 24 24" fill="none" xmlns="http://www.w3.org/2000/svg">
<path fill-rule="evenodd" clip-rule="evenodd" d="M9.46409 20.9751C11.1547 20.9751 12.4475 19.6805 12.4475 17.9876C12.4475 16.2946 11.1547 15 9.46409 15C7.77348 15 6.48066 16.2946 6.48066 17.9876C6.48066 19.6805 7.87293 20.9751 9.46409 20.9751ZM9.46409 16.4938C10.2597 16.4938 10.9558 17.1909 10.9558 17.9876C10.9558 18.7842 10.2597 19.4813 9.46409 19.4813C8.66851 19.4813 7.97238 18.7842 7.97238 17.9876C7.97238 17.1909 8.66851 16.4938 9.46409 16.4938Z" fill="black"/>
<path d="M17.3205 16.0954C17.3205 16.6929 16.8232 17.1909 16.2265 17.1909C15.6298 17.1909 15.1326 16.6929 15.1326 16.0954C15.1326 15.4979 15.6298 15 16.2265 15C16.8232 15 17.3205 15.4979 17.3205 16.0954Z" fill="black"/>
<path d="M16.2265 20.9752C16.8307 20.9752 17.3205 20.4847 17.3205 19.8797C17.3205 19.2747 16.8307 18.7843 16.2265 18.7843C15.6224 18.7843 15.1326 19.2747 15.1326 19.8797C15.1326 20.4847 15.6224 20.9752 16.2265 20.9752Z" fill="black"/>
<path d="M10.3591 6.37554H13.3426V11.2552H10.3591V10.3589H12.4475V9.16392H10.3591V8.26766H12.4475V7.27181H10.3591V6.37554Z" fill="black"/>
<path d="M8.96685 10.3589H6.87845V9.16392H8.96685V6.37554H5.98343V7.27181H8.07182V8.26766H5.98343V11.2552H8.96685V10.3589Z" fill="black"/>
<path d="M15.6298 8.26766H17.5193V11.2552H14.7348V10.3589H16.6243V9.16392H14.7348V6.37554H17.5193V7.27181H15.6298V8.26766Z" fill="black"/>
<path fill-rule="evenodd" clip-rule="evenodd" d="M19.1105 0H4.79006C3.79558 0 3 0.796681 3 1.79253V22.2075C3 23.2033 3.79558 24 4.79006 24H19C19.9945 24 21 23.2033 21 22.2075V1.79253C20.9006 0.796681 20.105 0 19.1105 0ZM19.5 21.5C19.5 21.5996 19.5 22.5 18.4521 22.5H5.5C4.5 22.5 4.5 21.5996 4.5 21.5L4.49171 13.3444H19.5V21.5ZM19.5 12H4.49171L4.5 4.29688H19.5V12ZM19.5 2.98755H4.5V2.5C4.5 2.40041 4.5 1.5 5.5 1.5H18.5C18.5994 1.5 19.5 1.5 19.5 2.5V2.98755Z" fill="black"/>
</svg>
