<svg width="24" height="24" viewBox="0 0 24 24" fill="none" xmlns="http://www.w3.org/2000/svg">
<path d="M12 10.5C11.1 10.5 10.2 11.1 9.9 12H8.3C8.7 10.3 10.2 9 12 9C12.5 9 13 9.1 13.5 9.2L16 5.5C16.1 5.3 16.3 5.2 16.6 5.2C16.7 5.2 16.9 5.2 17 5.3C17.1 5.4 17.3 5.6 17.3 5.8C17.4 6 17.3 6.2 17.2 6.4L14.7 10.1C15.2 10.6 15.6 11.3 15.7 12H14.1C13.8 11.1 12.9 10.5 12 10.5Z" fill="black"/>
<path fill-rule="evenodd" clip-rule="evenodd" d="M19.1105 0H4.79006C3.79558 0 3 0.796681 3 1.79253V22.2075C3 23.2033 3.79558 24 4.79006 24H19C19.9945 24 21 23.2033 21 22.2075V1.79253C20.9006 0.796681 20.105 0 19.1105 0ZM19.5 21.5C19.5 21.5996 19.5 22.5 18.4521 22.5H5.5C4.5 22.5 4.5 21.5996 4.5 21.5L4.49171 13.3444H19.5V21.5ZM19.5 12H4.49171L4.5 4.29688H19.5V12ZM19.5 2.98755H4.5V2.5C4.5 2.40041 4.5 1.5 5.5 1.5H18.5C18.5994 1.5 19.5 1.5 19.5 2.5V2.98755Z" fill="black"/>
<path fill-rule="evenodd" clip-rule="evenodd" d="M7 16.25C7 15.8358 7.33579 15.5 7.75 15.5H16.25C16.6642 15.5 17 15.8358 17 16.25C17 16.6642 16.6642 17 16.25 17H7.75C7.33579 17 7 16.6642 7 16.25Z" fill="#29D305"/>
</svg>
