<svg width="24" height="24" viewBox="0 0 24 24" fill="none" xmlns="http://www.w3.org/2000/svg">
<path fill-rule="evenodd" clip-rule="evenodd" d="M3.97518 3.61112C4.18859 3.5824 4.40484 3.64259 4.56445 3.77512C5.38211 4.45404 7.24792 5.63873 9.44176 6.59141C11.6526 7.5515 14.0573 8.21404 15.9907 7.99331C19.6269 7.57816 21.8873 5.91899 22.7709 5.11195C23.0521 4.85513 23.5079 4.85513 23.7891 5.11195C24.0703 5.36876 24.0703 5.78515 23.7891 6.04196C22.7527 6.98857 20.2131 8.83671 16.1694 9.29839C13.8161 9.56706 11.1009 8.76823 8.82345 7.77924C6.97057 6.97461 5.31569 6.00324 4.25108 5.24709C3.6902 6.01794 3.18401 6.5511 2.69848 6.94529C2.08721 7.44157 1.53664 7.69299 1.05496 7.91295L1.04214 7.9188C0.686483 8.08123 0.254001 7.94955 0.0761696 7.6247C-0.101661 7.29985 0.0424991 6.90484 0.398161 6.74241C0.873429 6.52537 1.27851 6.33841 1.7418 5.96227C2.21078 5.58152 2.76703 4.98244 3.46274 3.92337C3.57372 3.75443 3.76178 3.63984 3.97518 3.61112Z" fill="black"/>
<path fill-rule="evenodd" clip-rule="evenodd" d="M14.4994 16.2963C14.0581 16.8376 13.4219 17.2819 12.4472 17.5642C11.7226 17.774 11.3658 18.0636 11.1521 18.3516C10.9202 18.6642 10.8007 19.0448 10.6677 19.5686C10.6553 19.6174 10.6427 19.6678 10.6298 19.7196C10.5139 20.1844 10.3712 20.7567 10.0791 21.2931C9.73653 21.9224 9.20265 22.4884 8.3268 22.9233C7.96792 23.1015 7.53076 22.9586 7.35036 22.6041C7.16996 22.2496 7.31464 21.8178 7.67351 21.6396C8.28251 21.3373 8.59712 20.9817 8.79807 20.6126C8.99825 20.245 9.09774 19.8501 9.22126 19.36C9.23287 19.3139 9.2447 19.267 9.25684 19.2191C9.38902 18.6985 9.5612 18.0653 9.9789 17.5023C10.4148 16.9149 11.0656 16.4671 12.0379 16.1855C12.7602 15.9763 13.1316 15.6833 13.3665 15.3952C13.5938 15.1163 13.7218 14.8162 13.8875 14.4276C13.9108 14.3731 13.9348 14.3167 13.9599 14.2585C14.1492 13.82 14.4092 13.2613 14.9661 12.8457C15.5303 12.4248 16.2916 12.2244 17.3335 12.2244C18.6298 12.2244 19.525 12.7455 20.1353 13.5794C20.7011 14.3525 21.0007 15.3692 21.2504 16.3196C21.2967 16.4954 21.3414 16.6702 21.3858 16.8436C21.5935 17.6542 21.7935 18.4347 22.0972 19.1577C22.4581 20.0173 22.9369 20.7169 23.6696 21.1879C24.0062 21.4043 24.1015 21.8493 23.8824 22.1818C23.6633 22.5143 23.2128 22.6084 22.8762 22.392C21.8121 21.708 21.1803 20.7242 20.7536 19.7083C20.4053 18.8789 20.1745 17.9753 19.9669 17.1628C19.9248 16.9979 19.8836 16.8366 19.8426 16.6805C19.587 15.7079 19.3407 14.946 18.9565 14.4211C18.617 13.9572 18.1584 13.6611 17.3335 13.6611C16.4663 13.6611 16.061 13.8294 15.8429 13.9921C15.6176 14.1602 15.4799 14.4002 15.298 14.8219C15.2775 14.8692 15.2564 14.9194 15.2342 14.9719C15.0753 15.3489 14.8652 15.8475 14.4994 16.2963Z" fill="black"/>
<path d="M9 13.8408C9 14.3863 8.55229 14.8285 8 14.8285C7.44772 14.8285 7 14.3863 7 13.8408C7 13.2952 7.44772 12.853 8 12.853C8.55229 12.853 9 13.2952 9 13.8408Z" fill="black"/>
<path d="M12 2.9755C12 3.52102 11.5523 3.96325 11 3.96325C10.4477 3.96325 10 3.52102 10 2.9755C10 2.42998 10.4477 1.98775 11 1.98775C11.5523 1.98775 12 2.42998 12 2.9755Z" fill="black"/>
<path d="M22 1.98775C22 2.53327 21.5523 2.9755 21 2.9755C20.4477 2.9755 20 2.53327 20 1.98775C20 1.44223 20.4477 1 21 1C21.5523 1 22 1.44223 22 1.98775Z" fill="black"/>
<path d="M23 9.88975C23 10.4353 22.5523 10.8775 22 10.8775C21.4477 10.8775 21 10.4353 21 9.88975C21 9.34423 21.4477 8.902 22 8.902C22.5523 8.902 23 9.34423 23 9.88975Z" fill="black"/>
<path d="M18 4.951C18 5.49652 17.5523 5.93875 17 5.93875C16.4477 5.93875 16 5.49652 16 4.951C16 4.40548 16.4477 3.96325 17 3.96325C17.5523 3.96325 18 4.40548 18 4.951Z" fill="black"/>
<path d="M11 11.8653C11 12.4108 10.5523 12.853 10 12.853C9.44771 12.853 9 12.4108 9 11.8653C9 11.3197 9.44771 10.8775 10 10.8775C10.5523 10.8775 11 11.3197 11 11.8653Z" fill="black"/>
<path fill-rule="evenodd" clip-rule="evenodd" d="M3.75 1.98777C4.16421 1.98777 4.5 2.31945 4.5 2.72859V21.9897C4.5 22.3989 4.16421 22.7305 3.75 22.7305C3.33579 22.7305 3 22.3989 3 21.9897V2.72859C3 2.31945 3.33579 1.98777 3.75 1.98777Z" fill="black"/>
</svg>
