<svg width="25" height="25" viewBox="0 0 25 25" fill="none" xmlns="http://www.w3.org/2000/svg">
<path d="M22.1001 2.2H17.3001V0.8C17.3001 0.4 17.0001 0 16.5001 0C16.0001 0 15.7001 0.3 15.7001 0.8V2.3H12.0001C11.6001 2.3 11.2001 2.6 11.2001 3.1C11.2001 3.6 11.5001 3.9 12.0001 3.9H22.1001C22.3001 3.9 22.5001 4.1 22.5001 4.3V14.7C22.5001 14.9 22.3001 15.1 22.1001 15.1H15.0001C14.6001 15.1 14.2001 15.4 14.2001 15.9C14.2001 16.4 14.5001 16.7 15.0001 16.7H15.8001V20.8L13.1001 22.8C12.8001 23 12.7001 23.5 13.0001 23.8C13.1001 24 13.4001 24.1 13.6001 24.1C13.8001 24.1 13.9001 24.1 14.0001 23.9L16.5001 22L18.7001 23.9C18.8001 24 19.0001 24.1 19.2001 24.1C19.4001 24.1 19.6001 24 19.8001 23.8C20.1001 23.5 20.0001 23 19.7001 22.7L17.3001 20.7V16.6H22.2001C23.2001 16.6 24.1001 15.7 24.1001 14.7V4.2C24.0001 3.1 23.2001 2.3 22.1001 2.2Z" fill="black"/>
<path d="M9.80012 3.8C9.80012 1.7 8.10012 0 6.00012 0C3.90012 0 2.20012 1.7 2.20012 3.8C2.20012 5.9 3.90012 7.5 6.00012 7.5C8.10012 7.5 9.80012 5.8 9.80012 3.8ZM6.00012 6C4.80012 6 3.80012 5 3.80012 3.8C3.80012 2.6 4.80012 1.6 6.00012 1.6C7.20012 1.6 8.20012 2.6 8.20012 3.8C8.20012 5 7.20012 6 6.00012 6Z" fill="black"/>
<path d="M6.00012 7.5C2.70012 7.5 0 10.2 0 13.5V15.7C0 16.1 0.3 16.5 0.8 16.5H2.4L3 23.3C3 23.7 3.4 24 3.8 24H8.3C8.6 24 9 23.7 9 23.3L9.7 16.5H11.3C11.7 16.5 12.1 16.2 12.1 15.7V13.5C12 10.2 9.30012 7.5 6.00012 7.5ZM10.5 15H9C8.6 15 8.3 15.3 8.3 15.7L7.6 22.5H4.4L3.7 15.7C3.7 15.3 3.4 15 3 15H1.5V13.5C1.5 11 3.5 9 6 9C8.5 9 10.5 11 10.5 13.5V15Z" fill="black"/>
<path d="M19.8998 9.6C19.8998 9.2 19.5998 8.8 19.0998 8.8H18.5998L18.2998 7C18.5998 6.9 18.7998 6.6 18.7998 6.3C18.7998 5.9 18.4998 5.5 17.9998 5.5H15.4998C15.0998 5.5 14.6998 5.8 14.6998 6.3C14.6998 6.6 14.8998 6.9 15.1998 7L14.8998 8.8H14.3998C13.9998 8.8 13.5998 9.1 13.5998 9.6C13.5998 10 13.8998 10.4 14.3998 10.4H14.4998L13.9998 12.4C13.8998 12.8 14.0998 13.2 14.4998 13.3C14.8998 13.4 15.2998 13.2 15.3998 12.8L15.9998 10.4H17.4998L18.0998 12.8C18.1998 13.2 18.5998 13.4 18.9998 13.3C19.3998 13.2 19.5998 12.8 19.4998 12.4L18.9998 10.4H19.0998C19.4998 10.4 19.8998 10 19.8998 9.6ZM16.6998 7.1H16.8998L17.0998 8.9H16.4998L16.6998 7.1Z" fill="black"/>
</svg>
