<svg width="24" height="24" viewBox="0 0 24 24" fill="none" xmlns="http://www.w3.org/2000/svg">
<path fill-rule="evenodd" clip-rule="evenodd" d="M12 1.5C6.20101 1.5 1.5 6.20101 1.5 12C1.5 17.799 6.20101 22.5 12 22.5C17.799 22.5 22.5 17.799 22.5 12C22.5 6.20101 17.799 1.5 12 1.5ZM0 12C0 5.37258 5.37258 0 12 0C18.6274 0 24 5.37258 24 12C24 18.6274 18.6274 24 12 24C5.37258 24 0 18.6274 0 12Z" fill="black"/>
<path fill-rule="evenodd" clip-rule="evenodd" d="M6.25 14.25C6.66421 14.25 7 14.5858 7 15V21.3142C7 21.7284 6.66421 22.0642 6.25 22.0642C5.83579 22.0642 5.5 21.7284 5.5 21.3142V15C5.5 14.5858 5.83579 14.25 6.25 14.25ZM17.75 14.25C18.1642 14.25 18.5 14.5858 18.5 15V21.5514C18.5 21.9656 18.1642 22.3014 17.75 22.3014C17.3358 22.3014 17 21.9656 17 21.5514V15C17 14.5858 17.3358 14.25 17.75 14.25ZM10.7636 19.6031V22.5C10.7636 22.9142 10.4278 23.25 10.0136 23.25C9.59942 23.25 9.26364 22.9142 9.26364 22.5V19.5949C9.26364 18.5972 10.2056 17.9555 11.0591 17.9555H12.8015C13.655 17.9555 14.597 18.5972 14.597 19.5949V22.5C14.597 22.9142 14.2612 23.25 13.847 23.25C13.4328 23.25 13.097 22.9142 13.097 22.5V19.6031C13.0939 19.5953 13.0828 19.5737 13.0474 19.5436C12.9875 19.4927 12.8973 19.4555 12.8015 19.4555H11.0591C10.9633 19.4555 10.8731 19.4927 10.8132 19.5436C10.7778 19.5737 10.7667 19.5953 10.7636 19.6031ZM10.7626 19.6062C10.7626 19.6062 10.7627 19.6059 10.7629 19.6052L10.7626 19.6062ZM13.098 19.6062C13.098 19.6062 13.0979 19.6059 13.0977 19.6052L13.098 19.6062Z" fill="black"/>
<path fill-rule="evenodd" clip-rule="evenodd" d="M11.5937 7.81067C11.6447 7.76012 11.6897 7.75 11.7187 7.75C11.748 7.75 11.7933 7.76024 11.8447 7.81158L18.2197 14.1866C18.5126 14.4795 18.9874 14.4795 19.2803 14.1866C19.5732 13.8937 19.5732 13.4188 19.2803 13.1259L12.9053 6.75092C12.2374 6.08303 11.2001 6.08303 10.5322 6.75092L4.21706 13.1285C3.92562 13.4229 3.92796 13.8977 4.22229 14.1892C4.51662 14.4806 4.99149 14.4783 5.28294 14.184L11.5937 7.81067Z" fill="black"/>
<path fill-rule="evenodd" clip-rule="evenodd" d="M14 8C14 7.58579 14.3358 7.25 14.75 7.25H17.25C17.6642 7.25 18 7.58579 18 8V12C18 12.4142 17.6642 12.75 17.25 12.75C16.8358 12.75 16.5 12.4142 16.5 12V8.75H15.5V9.15385C15.5 9.56806 15.1642 9.90385 14.75 9.90385C14.3358 9.90385 14 9.56806 14 9.15385V8Z" fill="black"/>
<path d="M10.5 13C10.6381 13 10.75 13.1119 10.75 13.25L10.75 14.75C10.75 14.8881 10.6381 15 10.5 15L9 15C8.86193 15 8.75 14.8881 8.75 14.75L8.75 13.25C8.75 13.1119 8.86193 13 9 13L10.5 13Z" fill="#29D305"/>
<path d="M14.5 13C14.6381 13 14.75 13.1119 14.75 13.25L14.75 14.75C14.75 14.8881 14.6381 15 14.5 15L13 15C12.8619 15 12.75 14.8881 12.75 14.75L12.75 13.25C12.75 13.1119 12.8619 13 13 13L14.5 13Z" fill="#29D305"/>
</svg>
