<svg width="24" height="24" fill="none" xmlns="http://www.w3.org/2000/svg"><path fill-rule="evenodd" clip-rule="evenodd" d="M12 1.5C6.201 1.5 1.5 6.201 1.5 12S6.201 22.5 12 22.5 22.5 17.799 22.5 12 17.799 1.5 12 1.5zM0 12C0 5.373 5.373 0 12 0s12 5.373 12 12-5.373 12-12 12S0 18.627 0 12z" fill="#1B314B"/><path fill-rule="evenodd" clip-rule="evenodd" d="M6.25 14.25A.75.75 0 017 15v6.314a.75.75 0 01-1.5 0V15a.75.75 0 01.75-.75zm11.5 0a.75.75 0 01.75.75v6.551a.75.75 0 01-1.5 0V15a.75.75 0 01.75-.75zm-6.986 5.353V22.5a.75.75 0 11-1.5 0v-2.905c0-.998.942-1.64 1.795-1.64h1.743c.853 0 1.795.642 1.795 1.64V22.5a.75.75 0 01-1.5 0v-2.897a.167.167 0 00-.05-.06.39.39 0 00-.245-.087h-1.743a.39.39 0 00-.246.088.167.167 0 00-.05.06zm-.001.003zm2.335 0z" fill="#1B314B"/><path fill-rule="evenodd" clip-rule="evenodd" d="M11.594 7.81c.05-.05.096-.06.125-.06.029 0 .074.01.126.062l6.375 6.375a.75.75 0 101.06-1.061L12.905 6.75a1.656 1.656 0 00-2.373 0l-6.315 6.378a.75.75 0 001.066 1.055l6.31-6.373z" fill="#1B314B"/><path fill-rule="evenodd" clip-rule="evenodd" d="M14 8a.75.75 0 01.75-.75h2.5A.75.75 0 0118 8v4a.75.75 0 01-1.5 0V8.75h-1v.404a.75.75 0 01-1.5 0V8z" fill="#1B314B"/><path d="M10.5 13a.25.25 0 01.25.25v1.5a.25.25 0 01-.25.25H9a.25.25 0 01-.25-.25v-1.5A.25.25 0 019 13h1.5zm4 0a.25.25 0 01.25.25v1.5a.25.25 0 01-.25.25H13a.25.25 0 01-.25-.25v-1.5A.25.25 0 0113 13h1.5z" fill="#FFB65C"/></svg>