<svg width="24" height="24" fill="none" xmlns="http://www.w3.org/2000/svg"><path d="M17.25 24a6.758 6.758 0 01-6.75-6.75 6.758 6.758 0 016.75-6.75A6.758 6.758 0 0124 17.25 6.758 6.758 0 0117.25 24zm0-12A5.256 5.256 0 0012 17.25a5.256 5.256 0 005.25 5.25 5.256 5.256 0 005.25-5.25A5.256 5.256 0 0017.25 12z" fill="#1B314B"/><path d="M17.25 18a.75.75 0 01-.75-.75v-2.652a.75.75 0 011.5 0V16.5h1.902a.75.75 0 010 1.5H17.25zM3.75 7.5a.75.75 0 010-1.5h10.5a.75.75 0 010 1.5H3.75zm0 4.5a.75.75 0 010-1.5h6a.75.75 0 010 1.5h-6zm0 4.5a.75.75 0 010-1.5H7.5a.75.75 0 010 1.5H3.75z" fill="#1B314B"/><path d="M2.25 21A2.252 2.252 0 010 18.75V2.25A2.252 2.252 0 012.25 0h10.629c.601 0 1.165.234 1.59.658l2.872 2.872c.425.425.659.99.659 1.591V7.5a.75.75 0 01-1.5 0V5.121c0-.197-.08-.39-.219-.53l-2.872-2.872a.748.748 0 00-.53-.219H2.25a.75.75 0 00-.75.75v16.5c0 .414.336.75.75.75H7.5a.75.75 0 010 1.5H2.25z" fill="#1B314B"/></svg>