<svg width="24" height="24" viewBox="0 0 24 24" fill="none" xmlns="http://www.w3.org/2000/svg">
<path d="M12.5994 14.664C9.38343 14.664 6.76743 12.048 6.76743 8.832C6.76743 5.616 9.38343 3 12.5994 3C15.8154 3 18.4314 5.616 18.4314 8.832C18.4314 12.048 15.8154 14.664 12.5994 14.664ZM12.5994 4.8C10.3758 4.8 8.56743 6.6084 8.56743 8.832C8.56743 11.0556 10.3758 12.864 12.5994 12.864C14.823 12.864 16.6314 11.0556 16.6314 8.832C16.6314 6.6084 14.823 4.8 12.5994 4.8Z" fill="black"/>
<path d="M4.49938 21.3551C4.35418 21.3551 4.21018 21.3191 4.08058 21.2519C3.64138 21.0203 3.47218 20.4743 3.70378 20.0363C4.65418 18.2339 6.10858 16.7783 7.91218 15.8279C9.35818 15.0659 10.9746 14.6639 12.5886 14.6639C13.5966 14.6639 14.601 14.8175 15.5754 15.1187C18.141 15.9131 20.2434 17.6591 21.4962 20.0363C21.7278 20.4755 21.5586 21.0203 21.1194 21.2519C20.991 21.3191 20.8458 21.3551 20.7006 21.3551C20.3646 21.3551 20.0598 21.1703 19.9038 20.8739C18.8766 18.9239 17.1498 17.4899 15.0426 16.8371C14.2422 16.5887 13.4166 16.4639 12.5898 16.4639C11.265 16.4639 9.93778 16.7939 8.75098 17.4203C7.27138 18.2003 6.07618 19.3955 5.29618 20.8751C5.13898 21.1715 4.83418 21.3551 4.49938 21.3551Z" fill="black"/>
</svg>
