<svg width="24" height="24" viewBox="0 0 24 24" fill="none" xmlns="http://www.w3.org/2000/svg">
<path d="M11.9992 15.2511C7.71123 15.2511 4.22322 11.8306 4.22322 7.62556C4.22322 3.42052 7.71123 0 11.9992 0C16.2873 0 19.7753 3.42052 19.7753 7.62556C19.7753 11.8306 16.2873 15.2511 11.9992 15.2511ZM11.9992 2.35357C9.03444 2.35357 6.62323 4.71812 6.62323 7.62556C6.62323 10.533 9.03444 12.8976 11.9992 12.8976C14.9641 12.8976 17.3753 10.533 17.3753 7.62556C17.3753 4.71812 14.9641 2.35357 11.9992 2.35357Z" fill="black"/>
<path d="M1.19917 24C1.00557 24 0.813567 23.953 0.640766 23.8651C0.0551643 23.5623 -0.170437 22.8484 0.138364 22.2757C1.40557 19.9189 3.34477 18.0157 5.74958 16.773C7.67759 15.7767 9.83279 15.251 11.9848 15.251C13.3288 15.251 14.668 15.4519 15.9672 15.8457C19.388 16.8844 22.1912 19.1674 23.8616 22.2757C24.1704 22.8499 23.9448 23.5623 23.3592 23.8651C23.188 23.953 22.9944 24 22.8008 24C22.3528 24 21.9464 23.7584 21.7384 23.3708C20.3688 20.8211 18.0664 18.9461 15.2568 18.0926C14.1896 17.7678 13.0888 17.6046 11.9864 17.6046C10.22 17.6046 8.45039 18.0361 6.86798 18.8551C4.89518 19.875 3.30157 21.4378 2.26157 23.3724C2.05197 23.76 1.64557 24 1.19917 24Z" fill="black"/>
</svg>
