<svg width="24" height="24" fill="none" xmlns="http://www.w3.org/2000/svg"><path fill-rule="evenodd" clip-rule="evenodd" d="M6.232 6.098a.73.73 0 01.731.731c0 2.514 2.005 4.44 4.44 4.44 2.425 0 4.438-2.015 4.438-4.44a.732.732 0 011.464 0c0 3.234-2.67 5.903-5.903 5.903-3.224 0-5.902-2.563-5.902-5.903 0-.404.328-.731.732-.731zm5.561 8.39c-4.874 0-8.83 3.877-8.83 8.732a.732.732 0 01-1.463 0c0-5.683 4.63-10.196 10.293-10.196 5.667 0 10.292 4.616 10.292 10.196a.732.732 0 01-1.463 0c0-4.762-3.96-8.732-8.83-8.732z" fill="#1B314B"/><path fill-rule="evenodd" clip-rule="evenodd" d="M7.518 14.171a.732.732 0 011.03-.104l3.245 2.647 3.245-2.647a.732.732 0 01.925 1.134l-3.708 3.024a.731.731 0 01-.925 0l-3.707-3.024a.732.732 0 01-.105-1.03zm-1.677.902c.405 0 .732.328.732.732v7.415a.732.732 0 01-1.463 0v-7.415c0-.404.327-.732.731-.732zm11.708 0c.404 0 .731.328.731.732v7.415a.732.732 0 01-1.463 0v-7.415c0-.404.328-.732.732-.732zM9.626.936a.732.732 0 01.84.605l.78 4.78a.732.732 0 11-1.444.236l-.78-4.78a.732.732 0 01.604-.84zm3.62.238s.951.051.878.449l-.878 4.78a.732.732 0 11-1.439-.264l.878-4.78c.073-.398.561-.185.561-.185z" fill="#1B314B"/><path fill-rule="evenodd" clip-rule="evenodd" d="M4.427 6.44c0-.405.327-.733.732-.733h13.17a.732.732 0 010 1.464H5.16a.732.732 0 01-.732-.732zm7.366 10.487c.404 0 .731.328.731.732v5.56a.732.732 0 01-1.463 0v-5.56c0-.404.328-.732.732-.732z" fill="#1B314B"/><path fill-rule="evenodd" clip-rule="evenodd" d="M9.976 2.23a1.257 1.257 0 01-.432.296l-.004.002c-1.573.662-2.577 2.146-2.577 4.009 0 .404-.327.292-.731.292-.404 0-.732.112-.732-.292 0-2.392 1.295-4.394 3.37-5.313.027-.086.075-.217.174-.352.217-.296.544-.437.89-.515.345-.077.818-.113 1.468-.113.654 0 1.133.037 1.489.112.355.074.67.202.9.45a1.23 1.23 0 01.26.425c2.081.933 3.254 2.946 3.254 5.306 0 .404-.425.292-.83.292-.404 0-.634.112-.634-.292 0-1.889-.928-3.356-2.479-4.009a1.188 1.188 0 01-.633-.656l-.022-.055a1.192 1.192 0 00-.116-.03c-.211-.043-.574-.08-1.189-.08-.617 0-.962.037-1.15.079a1.1 1.1 0 00-.024.005 1.127 1.127 0 01-.252.439zm2.786-.391z" fill="#1B314B"/></svg>