<svg width="24" height="24" viewBox="0 0 24 24" fill="none" xmlns="http://www.w3.org/2000/svg">
<path fill-rule="evenodd" clip-rule="evenodd" d="M6.59716 5.9259C6.98978 5.9259 7.30806 6.25754 7.30806 6.66664C7.30806 9.2114 9.25587 11.1605 11.6209 11.1605C13.9771 11.1605 15.9337 9.12174 15.9337 6.66664C15.9337 6.25754 16.2519 5.9259 16.6446 5.9259C17.0372 5.9259 17.3555 6.25754 17.3555 6.66664C17.3555 9.93993 14.7623 12.6419 11.6209 12.6419C8.48821 12.6419 5.88626 10.0478 5.88626 6.66664C5.88626 6.25754 6.20454 5.9259 6.59716 5.9259Z" fill="black"/>
<path fill-rule="evenodd" clip-rule="evenodd" d="M12 14.4198C7.2646 14.4198 3.4218 18.3449 3.4218 23.2593C3.4218 23.6684 3.10352 24 2.7109 24C2.31828 24 2 23.6684 2 23.2593C2 17.507 6.49844 12.9383 12 12.9383C17.5064 12.9383 22 17.6107 22 23.2593C22 23.6684 21.6817 24 21.2891 24C20.8965 24 20.5782 23.6684 20.5782 23.2593C20.5782 18.4387 16.7306 14.4198 12 14.4198Z" fill="black"/>
<path fill-rule="evenodd" clip-rule="evenodd" d="M7.84727 14.0996C8.09545 13.7826 8.54327 13.7353 8.8475 13.9939L12 16.6736L15.1525 13.9939C15.4568 13.7353 15.9046 13.7826 16.1528 14.0996C16.4009 14.4166 16.3555 14.8832 16.0513 15.1418L12.4494 18.2035C12.1878 18.4259 11.8122 18.4259 11.5506 18.2035L7.94874 15.1418C7.64451 14.8832 7.59908 14.4166 7.84727 14.0996Z" fill="black"/>
<path fill-rule="evenodd" clip-rule="evenodd" d="M6.21798 15.0123C6.6106 15.0123 6.92888 15.3439 6.92888 15.753V23.2592C6.92888 23.6683 6.6106 23.9999 6.21798 23.9999C5.82536 23.9999 5.50708 23.6683 5.50708 23.2592V15.753C5.50708 15.3439 5.82536 15.0123 6.21798 15.0123Z" fill="black"/>
<path fill-rule="evenodd" clip-rule="evenodd" d="M17.5923 15.0123C17.985 15.0123 18.3032 15.3439 18.3032 15.753V23.2592C18.3032 23.6683 17.985 23.9999 17.5923 23.9999C17.1997 23.9999 16.8814 23.6683 16.8814 23.2592V15.753C16.8814 15.3439 17.1997 15.0123 17.5923 15.0123Z" fill="black"/>
<path fill-rule="evenodd" clip-rule="evenodd" d="M9.89492 0.701015C10.2824 0.635096 10.6478 0.908965 10.7111 1.31272L11.4694 6.15221C11.5326 6.55597 11.2698 6.93671 10.8823 7.00263C10.4948 7.06855 10.1294 6.79468 10.0662 6.39093L9.30786 1.55143C9.2446 1.14768 9.50743 0.766934 9.89492 0.701015Z" fill="#29D305"/>
<path fill-rule="evenodd" clip-rule="evenodd" d="M13.4123 0.941176C13.4123 0.941176 14.3363 0.993311 14.2654 1.39568L13.4123 6.23517C13.3414 6.63754 12.9708 6.90381 12.5847 6.82991C12.1985 6.75601 11.943 6.36991 12.0139 5.96754L12.867 1.12805C12.9379 0.725679 13.4123 0.941176 13.4123 0.941176Z" fill="#29D305"/>
<path fill-rule="evenodd" clip-rule="evenodd" d="M4.84366 6.27168C4.84366 5.86259 5.16194 5.53094 5.55456 5.53094H18.3508C18.7434 5.53094 19.0617 5.86259 19.0617 6.27168C19.0617 6.68078 18.7434 7.01242 18.3508 7.01242H5.55456C5.16194 7.01242 4.84366 6.68078 4.84366 6.27168Z" fill="#29D305"/>
<path fill-rule="evenodd" clip-rule="evenodd" d="M11.9999 16.8889C12.3926 16.8889 12.7108 17.2206 12.7108 17.6297V23.2593C12.7108 23.6684 12.3926 24 11.9999 24C11.6073 24 11.289 23.6684 11.289 23.2593V17.6297C11.289 17.2206 11.6073 16.8889 11.9999 16.8889Z" fill="black"/>
<path fill-rule="evenodd" clip-rule="evenodd" d="M10.235 2.01103C10.1146 2.1458 9.97001 2.24152 9.81559 2.31047L9.81143 2.31233C8.28315 2.98282 7.30806 4.48517 7.30806 6.37036C7.30806 6.77945 6.98978 6.66665 6.59716 6.66665C6.20454 6.66665 5.88626 6.77945 5.88626 6.37036C5.88626 3.94944 7.14459 1.92283 9.16024 0.99171C9.18625 0.905524 9.23338 0.772702 9.32958 0.636025C9.5408 0.335908 9.85795 0.192994 10.194 0.114959C10.5298 0.0369842 10.9884 0 11.6209 0C12.2556 0 12.721 0.0373715 13.0671 0.112987C13.4124 0.188431 13.7174 0.318433 13.9415 0.568652C14.0522 0.692231 14.1178 0.817497 14.16 0.915851C14.1733 0.94673 14.1846 0.975892 14.1935 0.999736C16.2162 1.94389 17.3555 3.98172 17.3555 6.37036C17.3555 6.77945 16.9424 6.66665 16.5498 6.66665C16.1572 6.66665 15.9337 6.77945 15.9337 6.37036C15.9337 4.45886 15.0314 2.97318 13.5251 2.31232C13.5109 2.30608 13.4968 2.29936 13.483 2.29216C13.1447 2.11591 12.9928 1.8579 12.9098 1.64832C12.9012 1.62667 12.894 1.60833 12.8879 1.5929C12.862 1.58429 12.8253 1.57386 12.7753 1.56293C12.5705 1.51818 12.2183 1.48148 11.6209 1.48148C11.0211 1.48148 10.6859 1.51857 10.5033 1.56096C10.495 1.56289 10.4872 1.56477 10.48 1.56661C10.4749 1.58328 10.469 1.6012 10.4625 1.61977C10.4233 1.7317 10.3573 1.87403 10.235 2.01103ZM12.9419 1.61472L12.9409 1.61415L12.9419 1.61472Z" fill="#29D305"/>
</svg>
