<svg width="24" height="25" fill="none" xmlns="http://www.w3.org/2000/svg"><path d="M12 15.157a.75.75 0 01-.75-.751v-1.007a2.254 2.254 0 011.5-2.125 2.256 2.256 0 00.841-3.716A2.23 2.23 0 0012 6.898c-.601 0-1.166.234-1.591.66-.425.424-.659.99-.659 1.592A.75.75 0 019 9.9a.751.751 0 01-.75-.75c0-1.003.391-1.945 1.099-2.654A3.723 3.723 0 0112 5.396a3.757 3.757 0 013.75 3.755 3.76 3.76 0 01-2.5 3.539.752.752 0 00-.5.708v1.008a.75.75 0 01-.75.75zm0 3.753a1.126 1.126 0 10-.001-2.25A1.126 1.126 0 0012 18.91z" fill="#1B314B"/><path d="M12 24.167c-6.617 0-12-5.39-12-12.014S5.383.14 12 .14s12 5.39 12 12.014c0 6.625-5.383 12.014-12 12.014zM12 1.64c-5.79 0-10.5 4.716-10.5 10.512 0 5.797 4.71 10.512 10.5 10.512s10.5-4.715 10.5-10.512C22.5 6.356 17.79 1.64 12 1.64z" fill="#FFB65C"/></svg>