<svg width="24" height="25" viewBox="0 0 24 25" fill="none" xmlns="http://www.w3.org/2000/svg">
<path fill-rule="evenodd" clip-rule="evenodd" d="M12 24.0276C5.383 24.0276 0 18.6384 0 12.0138C0 5.38919 5.383 0 12 0C18.617 0 24 5.38919 24 12.0138C24 18.6384 18.617 24.0276 12 24.0276ZM12 15.0173C11.586 15.0173 11.25 14.6809 11.25 14.2664V13.2592C11.249 12.3061 11.852 11.4522 12.75 11.1348C13.647 10.8174 14.25 9.96345 14.25 9.01135C14.25 8.40966 14.016 7.84401 13.591 7.41852C13.167 6.99304 12.602 6.75877 12 6.75877C11.399 6.75877 10.834 6.99304 10.409 7.41852C9.984 7.84301 9.75 8.40866 9.75 9.01035C9.75 9.42383 9.414 9.76121 9 9.76121C8.586 9.76121 8.25 9.42383 8.25 9.01035C8.25 8.0072 8.641 7.06512 9.349 6.35631C10.057 5.64749 10.999 5.25704 12 5.25704C14.068 5.25704 15.75 6.94198 15.75 9.01135C15.75 10.5992 14.745 12.0208 13.25 12.5504C12.951 12.6565 12.75 12.9409 12.75 13.2582V14.2664C12.75 14.6809 12.414 15.0173 12 15.0173ZM13.125 17.6453C13.125 18.2673 12.6213 18.7716 12 18.7716C11.3787 18.7716 10.875 18.2673 10.875 17.6453C10.875 17.0232 11.3787 16.519 12 16.519C12.6213 16.519 13.125 17.0232 13.125 17.6453Z" fill="black"/>
</svg>
