<svg width="24" height="24" viewBox="0 0 24 24" fill="none" xmlns="http://www.w3.org/2000/svg">
<g clip-path="url(#clip0)">
<path d="M17.8754 14.7275L14.2946 18.2026C13.8712 18.6137 13.8712 19.279 14.2946 19.6901C14.7181 20.1012 15.4032 20.1012 15.8266 19.6901L22.4363 13.274C22.438 13.2724 22.438 13.2724 22.4397 13.2708C24.5201 11.2508 24.5201 7.96503 22.4397 5.94503C21.3995 4.93503 20.0342 4.43003 18.6672 4.43003C17.3003 4.43003 15.935 4.93503 14.8948 5.94503C12.8143 7.96503 12.8143 11.2508 14.8948 13.2708C15.7333 14.0849 16.7835 14.5705 17.8754 14.7275Z" fill="#29D305"/>
<path d="M1.56027 13.2723C2.39878 14.0865 3.449 14.5705 4.53922 14.7291L0.960145 18.2042C0.536724 18.6153 0.536724 19.2805 0.960145 19.6917C1.38357 20.1028 2.06871 20.1028 2.49213 19.6917L9.10017 13.2756C9.10184 13.274 9.10184 13.274 9.10351 13.2723C11.1839 11.2523 11.1839 7.96662 9.10351 5.94662C8.06329 4.93662 6.69801 4.43162 5.33106 4.43162C3.9641 4.43162 2.59882 4.93662 1.5586 5.94662C-0.520162 7.96662 -0.520163 11.2523 1.56027 13.2723Z" fill="#29D305"/>
</g>
<defs>
<clipPath id="clip0">
<rect x="24" y="24" width="24" height="24" transform="rotate(180 24 24)" fill="white"/>
</clipPath>
</defs>
</svg>
