<svg width="24" height="24" viewBox="0 0 24 24" fill="none" xmlns="http://www.w3.org/2000/svg">
<path d="M17.8754 14.5819L14.2946 18.153C13.8712 18.5755 13.8712 19.2591 14.2946 19.6816C14.7181 20.104 15.4032 20.104 15.8266 19.6816L22.4363 13.0883C22.438 13.0866 22.438 13.0866 22.4397 13.0849C24.5201 11.0091 24.5201 7.63265 22.4397 5.55686C21.3995 4.51896 20.0342 4.00002 18.6672 4.00002C17.3003 4.00002 15.935 4.51896 14.8948 5.55686C12.8143 7.63265 12.8143 11.0091 14.8948 13.0849C15.7333 13.9216 16.7835 14.4206 17.8754 14.5819Z" fill="#29D305"/>
<path d="M1.56029 13.0865C2.39879 13.9232 3.44901 14.4205 4.53924 14.5835L0.96016 18.1546C0.536739 18.5771 0.536739 19.2607 0.96016 19.6831C1.38358 20.1056 2.06873 20.1056 2.49215 19.6831L9.10019 13.0898C9.10186 13.0882 9.10186 13.0882 9.10352 13.0865C11.184 11.0107 11.184 7.63424 9.10352 5.55845C8.06331 4.52055 6.69802 4.0016 5.33107 4.0016C3.96412 4.0016 2.59884 4.52055 1.55862 5.55845C-0.520146 7.63424 -0.520147 11.0107 1.56029 13.0865Z" fill="#29D305"/>
</svg>
