<svg width="24" height="24" viewBox="0 0 24 24" fill="none" xmlns="http://www.w3.org/2000/svg">
<path d="M6.75 23.25C6.336 23.25 6 22.914 6 22.5C6 22.086 6.336 21.75 6.75 21.75H8.365L8.865 18.75H3.75C1.682 18.75 0 17.068 0 15V4.5C0 2.432 1.682 0.75 3.75 0.75H20.25C22.318 0.75 24 2.432 24 4.5V15C24 17.068 22.318 18.75 20.25 18.75H15.135L15.635 21.75H17.25C17.664 21.75 18 22.086 18 22.5C18 22.914 17.664 23.25 17.25 23.25H6.75ZM14.115 21.75L13.615 18.75H10.386L9.886 21.75H14.115ZM3.75 2.25C2.509 2.25 1.5 3.259 1.5 4.5V15C1.5 16.241 2.509 17.25 3.75 17.25H20.25C21.491 17.25 22.5 16.241 22.5 15V4.5C22.5 3.259 21.491 2.25 20.25 2.25H3.75Z" fill="white"/>
<path d="M8.25 14.25C7.009 14.25 6 13.241 6 12V7.5C6 6.969 6.19 6.454 6.536 6.047C6.54 6.04 6.545 6.034 6.549 6.028C6.566 6.008 6.584 5.99 6.603 5.972C7.017 5.518 7.622 5.25 8.25 5.25H15.75C16.389 5.25 17 5.525 17.428 6.005C17.433 6.011 17.451 6.031 17.455 6.036C17.803 6.434 18 6.958 18 7.5V12C18 13.241 16.991 14.25 15.75 14.25H8.25ZM7.5 12C7.5 12.414 7.836 12.75 8.25 12.75H15.75C16.164 12.75 16.5 12.414 16.5 12V7.777L12.476 11.08C12.342 11.19 12.173 11.25 12 11.25C11.827 11.25 11.658 11.19 11.524 11.08L7.5 7.777V12ZM12 9.53L15.387 6.75H8.613L12 9.53Z" fill="#29D305"/>
</svg>
