<svg width="24" height="24" fill="none" xmlns="http://www.w3.org/2000/svg"><path fill-rule="evenodd" clip-rule="evenodd" d="M0 14.251a2.252 2.252 0 002.25 2.25V16.5h6a.75.75 0 000-1.5h-6a.75.75 0 01-.75-.75V2.561l7.276 5.598A4.08 4.08 0 0011.25 9c.89 0 1.769-.299 2.474-.841L21 2.561v6.438a.75.75 0 001.5 0V2.25c0-.503-.163-.978-.473-1.377l-.024-.034-.024-.028-.002-.002A2.245 2.245 0 0020.25 0h-18A2.25 2.25 0 00.57.758a.74.74 0 00-.105.127A2.229 2.229 0 000 2.251v12zM11.249 7.5a2.568 2.568 0 01-1.559-.53L2.581 1.5h17.336l-7.109 5.47c-.444.342-.998.53-1.559.53z" fill="#1B314B"/><path d="M18 20.251a.752.752 0 01-.53-1.281l.97-.97h-4.189a.75.75 0 010-1.5h4.189l-.97-.97a.752.752 0 01.53-1.281c.2 0 .389.078.53.22l2.25 2.25a.74.74 0 01.163.245l.003.007v.002l.007.017a.73.73 0 01.001.517l-.006.017a.748.748 0 01-.167.256l-2.25 2.25a.744.744 0 01-.531.221z" fill="#1B314B"/><path fill-rule="evenodd" clip-rule="evenodd" d="M17.25 24.001a6.758 6.758 0 01-6.75-6.75 6.758 6.758 0 016.75-6.75 6.758 6.758 0 016.75 6.75 6.758 6.758 0 01-6.75 6.75zm0-12a5.256 5.256 0 00-5.25 5.25 5.256 5.256 0 005.25 5.25 5.256 5.256 0 005.25-5.25 5.256 5.256 0 00-5.25-5.25z" fill="#1B314B"/></svg>