<svg width="24" height="24" viewBox="0 0 24 24" fill="none" xmlns="http://www.w3.org/2000/svg">
<path fill-rule="evenodd" clip-rule="evenodd" d="M0 14.251C0 15.492 1.009 16.501 2.25 16.501V16.5H8.25C8.664 16.5 9 16.164 9 15.75C9 15.336 8.664 15 8.25 15H2.25C1.836 15 1.5 14.664 1.5 14.25V2.561L8.776 8.159C9.481 8.701 10.359 9 11.25 9C12.14 9 13.019 8.701 13.724 8.159L21 2.561V8.999C21 9.413 21.336 9.749 21.75 9.749C22.164 9.749 22.5 9.413 22.5 8.999V2.25C22.5 1.747 22.337 1.272 22.027 0.873C22.019 0.861 22.011 0.85 22.003 0.839C21.9965 0.830684 21.9875 0.820661 21.9791 0.811297L21.977 0.809C21.547 0.295 20.919 0 20.25 0H2.25C1.61 0 0.998 0.276 0.57 0.758C0.543 0.784 0.518 0.811 0.495 0.841C0.483 0.856 0.473 0.872 0.465 0.885C0.161 1.282 0 1.754 0 2.251V14.251ZM11.249 7.5C10.688 7.5 10.134 7.312 9.69 6.97L2.581 1.5H19.917L12.808 6.97C12.364 7.312 11.81 7.5 11.249 7.5Z" fill="black"/>
<path d="M18 20.251C17.8 20.251 17.611 20.173 17.47 20.031C17.178 19.739 17.178 19.263 17.47 18.97L18.44 18H14.251C13.837 18 13.501 17.664 13.501 17.25C13.501 16.836 13.837 16.5 14.251 16.5H18.44L17.47 15.53C17.178 15.238 17.178 14.762 17.47 14.469C17.612 14.327 17.8 14.249 18 14.249C18.2 14.249 18.389 14.327 18.53 14.469L20.78 16.719C20.85 16.789 20.905 16.871 20.943 16.964L20.9458 16.9713L20.9467 16.9734C20.9488 16.9788 20.9511 16.9844 20.953 16.99C20.984 17.071 21 17.16 21 17.249C21 17.336 20.984 17.423 20.954 17.507C20.952 17.513 20.95 17.518 20.948 17.524C20.906 17.628 20.851 17.71 20.781 17.78L18.531 20.03C18.389 20.173 18.2 20.251 18 20.251Z" fill="black"/>
<path fill-rule="evenodd" clip-rule="evenodd" d="M17.25 24.001C13.528 24.001 10.5 20.973 10.5 17.251C10.5 13.529 13.528 10.501 17.25 10.501C20.972 10.501 24 13.529 24 17.251C24 20.973 20.972 24.001 17.25 24.001ZM17.25 12.001C14.355 12.001 12 14.356 12 17.251C12 20.146 14.355 22.501 17.25 22.501C20.145 22.501 22.5 20.146 22.5 17.251C22.5 14.356 20.145 12.001 17.25 12.001Z" fill="black"/>
</svg>
