<svg width="24" height="25" viewBox="0 0 24 25" fill="none" xmlns="http://www.w3.org/2000/svg">
<path fill-rule="evenodd" clip-rule="evenodd" d="M0 15.2493C0 16.4903 1.009 17.4993 2.25 17.4993V17.4983H8.25C8.664 17.4983 9 17.1623 9 16.7483C9 16.3343 8.664 15.9983 8.25 15.9983H2.25C1.836 15.9983 1.5 15.6623 1.5 15.2483V3.55929L8.776 9.15729C9.481 9.69929 10.359 9.99829 11.25 9.99829C12.14 9.99829 13.019 9.69929 13.724 9.15729L21 3.55929V9.99729C21 10.4113 21.336 10.7473 21.75 10.7473C22.164 10.7473 22.5 10.4113 22.5 9.99729V3.24829C22.5 2.74529 22.337 2.27029 22.027 1.87129C22.019 1.85929 22.011 1.84829 22.003 1.83729C21.9965 1.82898 21.9875 1.81895 21.9791 1.80959L21.977 1.80729C21.547 1.29329 20.919 0.998291 20.25 0.998291H2.25C1.61 0.998291 0.998 1.27429 0.57 1.75629C0.543 1.78229 0.518 1.80929 0.495 1.83929C0.483 1.85429 0.473 1.87029 0.465 1.88329C0.161 2.28029 0 2.75229 0 3.24929V15.2493ZM11.249 8.49829C10.688 8.49829 10.134 8.31029 9.69 7.96829L2.581 2.49829H19.917L12.808 7.96829C12.364 8.31029 11.81 8.49829 11.249 8.49829Z" fill="black"/>
<path d="M18 21.2493C17.8 21.2493 17.611 21.1713 17.47 21.0293C17.178 20.7373 17.178 20.2613 17.47 19.9683L18.44 18.9983H14.251C13.837 18.9983 13.501 18.6623 13.501 18.2483C13.501 17.8343 13.837 17.4983 14.251 17.4983H18.44L17.47 16.5283C17.178 16.2363 17.178 15.7603 17.47 15.4673C17.612 15.3253 17.8 15.2473 18 15.2473C18.2 15.2473 18.389 15.3253 18.53 15.4673L20.78 17.7173C20.85 17.7873 20.905 17.8693 20.943 17.9623L20.9458 17.9696L20.9467 17.9717C20.9488 17.9771 20.9511 17.9827 20.953 17.9883C20.984 18.0693 21 18.1583 21 18.2473C21 18.3343 20.984 18.4213 20.954 18.5053C20.952 18.5113 20.95 18.5163 20.948 18.5223C20.906 18.6263 20.851 18.7083 20.781 18.7783L18.531 21.0283C18.389 21.1713 18.2 21.2493 18 21.2493Z" fill="black"/>
<path fill-rule="evenodd" clip-rule="evenodd" d="M17.25 24.9993C13.528 24.9993 10.5 21.9713 10.5 18.2493C10.5 14.5273 13.528 11.4993 17.25 11.4993C20.972 11.4993 24 14.5273 24 18.2493C24 21.9713 20.972 24.9993 17.25 24.9993ZM17.25 12.9993C14.355 12.9993 12 15.3543 12 18.2493C12 21.1443 14.355 23.4993 17.25 23.4993C20.145 23.4993 22.5 21.1443 22.5 18.2493C22.5 15.3543 20.145 12.9993 17.25 12.9993Z" fill="black"/>
</svg>
