<svg width="24" height="25" viewBox="0 0 24 25" fill="none" xmlns="http://www.w3.org/2000/svg">
<path fill-rule="evenodd" clip-rule="evenodd" d="M12 24.0266C5.383 24.0266 0 18.6374 0 12.0128C0 5.38819 5.383 -0.000999451 12 -0.000999451C18.617 -0.000999451 24 5.38819 24 12.0128C24 18.6374 18.617 24.0266 12 24.0266ZM15.97 17.0486C16.111 17.1907 16.3 17.2688 16.5 17.2688C16.7 17.2688 16.889 17.1907 17.03 17.0496C17.322 16.7562 17.322 16.2797 17.03 15.9874L13.06 12.0128L17.03 8.03823C17.172 7.89707 17.25 7.70785 17.25 7.50762C17.25 7.30739 17.172 7.11817 17.03 6.97701C16.889 6.83485 16.7 6.75676 16.5 6.75676C16.3 6.75676 16.112 6.83485 15.97 6.97701L12 10.9516L8.02999 6.97701C7.88899 6.83485 7.69999 6.75676 7.49999 6.75676C7.29999 6.75676 7.11099 6.83485 6.96999 6.97701C6.82799 7.11817 6.74999 7.30739 6.74999 7.50762C6.74999 7.70785 6.82799 7.89707 6.96999 8.03823L10.94 12.0128L6.96999 15.9874C6.67799 16.2807 6.67799 16.7572 6.96999 17.0496C7.11099 17.1917 7.29999 17.2698 7.49999 17.2698C7.69999 17.2698 7.88799 17.1917 8.02999 17.0496L12 13.075L15.97 17.0486Z" fill="black"/>
</svg>
