<svg width="24" height="24" viewBox="0 0 24 24" fill="none" xmlns="http://www.w3.org/2000/svg">
<g clip-path="url(#clip0)">
<path d="M0 11.999C0 18.616 5.383 23.999 12 23.999C18.617 23.999 24 18.616 24 11.999C24 5.38199 18.617 -0.00100708 12 -0.00100708C5.383 -0.00100708 0 5.38199 0 11.999Z" fill="#29D305"/>
<path d="M16.5 17.249C16.3 17.249 16.111 17.171 15.97 17.029L12 13.06L8.02999 17.03C7.88799 17.172 7.69999 17.25 7.49999 17.25C7.29999 17.25 7.11099 17.172 6.96999 17.03C6.67799 16.738 6.67799 16.262 6.96999 15.969L10.94 11.999L6.96999 8.02899C6.82799 7.88799 6.74999 7.69899 6.74999 7.49899C6.74999 7.29899 6.82799 7.10999 6.96999 6.96899C7.11099 6.82699 7.29999 6.74899 7.49999 6.74899C7.69999 6.74899 7.88899 6.82699 8.02999 6.96899L12 10.939L15.97 6.96899C16.112 6.82699 16.3 6.74899 16.5 6.74899C16.7 6.74899 16.889 6.82699 17.03 6.96899C17.172 7.10999 17.25 7.29899 17.25 7.49899C17.25 7.69899 17.172 7.88799 17.03 8.02899L13.06 11.999L17.03 15.969C17.322 16.261 17.322 16.737 17.03 17.03C16.889 17.171 16.7 17.249 16.5 17.249Z" fill="black"/>
</g>
<defs>
<clipPath id="clip0">
<rect width="24" height="24" fill="white"/>
</clipPath>
</defs>
</svg>
