<svg width="24" height="25" viewBox="0 0 24 25" fill="none" xmlns="http://www.w3.org/2000/svg">
<path d="M12 24.0265C5.38301 24.0265 0 18.6374 0 12.0128C0 5.38818 5.38301 -0.000999451 12 -0.000999451C18.617 -0.000999451 24 5.38818 24 12.0128C24 18.6374 18.617 24.0265 12 24.0265ZM12 1.50072C6.21001 1.50072 1.5 6.21612 1.5 12.0128C1.5 17.8094 6.21001 22.5248 12 22.5248C17.79 22.5248 22.5 17.8094 22.5 12.0128C22.5 6.21612 17.79 1.50072 12 1.50072Z" fill="black"/>
<path d="M16.5 17.2688C16.3 17.2688 16.111 17.1907 15.97 17.0485L12 13.075L8.03 17.0495C7.888 17.1917 7.7 17.2698 7.5 17.2698C7.3 17.2698 7.111 17.1917 6.97 17.0495C6.678 16.7572 6.678 16.2807 6.97 15.9873L10.94 12.0128L6.97 8.03821C6.828 7.89705 6.75 7.70783 6.75 7.5076C6.75 7.30737 6.828 7.11816 6.97 6.97699C7.111 6.83483 7.3 6.75674 7.5 6.75674C7.7 6.75674 7.889 6.83483 8.03 6.97699L12 10.9515L15.97 6.97699C16.112 6.83483 16.3 6.75674 16.5 6.75674C16.7 6.75674 16.889 6.83483 17.03 6.97699C17.172 7.11816 17.25 7.30737 17.25 7.5076C17.25 7.70783 17.172 7.89705 17.03 8.03821L13.06 12.0128L17.03 15.9873C17.322 16.2797 17.322 16.7562 17.03 17.0495C16.889 17.1907 16.7 17.2688 16.5 17.2688Z" fill="black"/>
</svg>
