<svg width="24" height="24" viewBox="0 0 24 24" fill="none" xmlns="http://www.w3.org/2000/svg">
<path d="M12 23.999C5.38301 23.999 0 18.616 0 11.999C0 5.38199 5.38301 -0.00100708 12 -0.00100708C18.617 -0.00100708 24 5.38199 24 11.999C24 18.616 18.617 23.999 12 23.999ZM12 1.49899C6.21001 1.49899 1.5 6.20899 1.5 11.999C1.5 17.789 6.21001 22.499 12 22.499C17.79 22.499 22.5 17.789 22.5 11.999C22.5 6.20899 17.79 1.49899 12 1.49899Z" fill="black"/>
<path d="M16.5 17.249C16.3 17.249 16.111 17.171 15.97 17.029L12 13.06L8.03 17.03C7.888 17.172 7.7 17.25 7.5 17.25C7.3 17.25 7.111 17.172 6.97 17.03C6.678 16.738 6.678 16.262 6.97 15.969L10.94 11.999L6.97 8.02899C6.828 7.88799 6.75 7.69899 6.75 7.49899C6.75 7.29899 6.828 7.10999 6.97 6.96899C7.111 6.82699 7.3 6.74899 7.5 6.74899C7.7 6.74899 7.889 6.82699 8.03 6.96899L12 10.939L15.97 6.96899C16.112 6.82699 16.3 6.74899 16.5 6.74899C16.7 6.74899 16.889 6.82699 17.03 6.96899C17.172 7.10999 17.25 7.29899 17.25 7.49899C17.25 7.69899 17.172 7.88799 17.03 8.02899L13.06 11.999L17.03 15.969C17.322 16.261 17.322 16.737 17.03 17.03C16.889 17.171 16.7 17.249 16.5 17.249Z" fill="black"/>
</svg>
