<svg width="24" height="24" viewBox="0 0 24 24" fill="none" xmlns="http://www.w3.org/2000/svg">
<path d="M12 23.999C5.38301 23.999 0 18.616 0 11.999C0 5.38202 5.38301 -0.000976562 12 -0.000976562C18.617 -0.000976562 24 5.38202 24 11.999C24 18.616 18.617 23.999 12 23.999ZM12 1.49902C6.21001 1.49902 1.5 6.20902 1.5 11.999C1.5 17.789 6.21001 22.499 12 22.499C17.79 22.499 22.5 17.789 22.5 11.999C22.5 6.20902 17.79 1.49902 12 1.49902Z" fill="#29D305"/>
<path d="M16.5 17.249C16.3 17.249 16.111 17.171 15.97 17.029L12 13.06L8.03 17.03C7.888 17.172 7.7 17.25 7.5 17.25C7.3 17.25 7.111 17.172 6.97 17.03C6.678 16.738 6.678 16.262 6.97 15.969L10.94 11.999L6.97 8.02902C6.828 7.88802 6.75 7.69902 6.75 7.49902C6.75 7.29902 6.828 7.11002 6.97 6.96902C7.111 6.82702 7.3 6.74902 7.5 6.74902C7.7 6.74902 7.889 6.82702 8.03 6.96902L12 10.939L15.97 6.96902C16.112 6.82702 16.3 6.74902 16.5 6.74902C16.7 6.74902 16.889 6.82702 17.03 6.96902C17.172 7.11002 17.25 7.29902 17.25 7.49902C17.25 7.69902 17.172 7.88802 17.03 8.02902L13.06 11.999L17.03 15.969C17.322 16.261 17.322 16.737 17.03 17.03C16.889 17.171 16.7 17.249 16.5 17.249Z" fill="black"/>
</svg>
