<svg width="24" height="25" fill="none" xmlns="http://www.w3.org/2000/svg"><path fill-rule="evenodd" clip-rule="evenodd" d="M12 24.24c-6.617 0-12-5.39-12-12.014C0 5.6 5.383.212 12 .212s12 5.39 12 12.014-5.383 12.013-12 12.013zm3.97-6.978a.746.746 0 001.06.001.754.754 0 000-1.063l-3.97-3.974 3.97-3.975a.744.744 0 00.22-.53c0-.2-.078-.39-.22-.531a.744.744 0 00-1.06 0L12 11.165 8.03 7.19a.742.742 0 00-.53-.22c-.2 0-.389.078-.53.22a.744.744 0 00-.22.53c0 .2.078.39.22.531l3.97 3.975L6.97 16.2a.754.754 0 00.53 1.283c.2 0 .388-.078.53-.22L12 13.287l3.97 3.974z" fill="#1B314B"/></svg>