<svg width="24" height="24" viewBox="0 0 24 24" fill="none" xmlns="http://www.w3.org/2000/svg">
<g clip-path="url(#clip0)">
<path d="M17.249 24C17.16 24 17.072 23.984 16.988 23.953C16.696 23.845 16.499 23.562 16.499 23.25V18H14.624C14.359 17.999 14.103 17.905 13.902 17.737C13.671 17.542 13.529 17.27 13.504 16.971C13.478 16.672 13.57 16.38 13.764 16.149L19.68 9.261C19.822 9.095 20.03 9 20.249 9C20.338 9 20.425 9.016 20.509 9.046C20.803 9.155 20.999 9.438 20.999 9.75V15H22.874C23.14 15.001 23.396 15.095 23.597 15.264C24.072 15.664 24.134 16.376 23.735 16.85L17.818 23.738C17.675 23.905 17.468 24 17.249 24ZM17.249 16.5C17.663 16.5 17.999 16.836 17.999 17.25V21.226L22.059 16.499L20.249 16.5C19.835 16.5 19.499 16.164 19.499 15.75V11.774L15.439 16.501L17.249 16.5Z" fill="#29D305"/>
<path d="M12.746 22.5C8.811 22.5 5.24 20.33 3.428 16.836C3.336 16.658 3.318 16.455 3.379 16.264C3.44 16.073 3.571 15.917 3.749 15.825C3.855 15.77 3.975 15.741 4.094 15.741C4.375 15.741 4.63 15.896 4.76 16.146C6.313 19.14 9.373 21 12.746 21C12.975 21 13.208 20.991 13.444 20.974C13.462 20.973 13.481 20.972 13.5 20.972C13.89 20.972 14.219 21.277 14.247 21.667C14.262 21.867 14.197 22.06 14.067 22.212C13.937 22.364 13.754 22.455 13.554 22.47C13.281 22.49 13.011 22.5 12.75 22.5H12.746V22.5Z" fill="black"/>
<path d="M20.967 7.50099C20.709 7.50099 20.473 7.37099 20.334 7.15499C18.945 4.97899 16.685 3.50399 14.134 3.10599C13.726 3.04299 13.445 2.65799 13.508 2.24999C13.566 1.88199 13.878 1.61499 14.25 1.61499C14.287 1.61499 14.325 1.61799 14.363 1.62399C17.34 2.08799 19.977 3.80899 21.598 6.34799C21.82 6.69699 21.718 7.16099 21.369 7.38399C21.25 7.45999 21.11 7.50099 20.967 7.50099Z" fill="black"/>
<path d="M6.749 9.75C5.095 9.75 3.749 8.404 3.749 6.75C3.749 5.096 5.095 3.75 6.749 3.75C8.403 3.75 9.749 5.096 9.749 6.75C9.749 8.404 8.403 9.75 6.749 9.75ZM6.749 5.25C5.922 5.25 5.249 5.923 5.249 6.75C5.249 7.577 5.922 8.25 6.749 8.25C7.576 8.25 8.249 7.577 8.249 6.75C8.249 5.923 7.576 5.25 6.749 5.25Z" fill="black"/>
<path d="M6.749 3C6.335 3 5.999 2.664 5.999 2.25V0.75C5.999 0.336 6.335 0 6.749 0C7.163 0 7.499 0.336 7.499 0.75V2.25C7.499 2.664 7.162 3 6.749 3Z" fill="black"/>
<path d="M11.249 7.5C10.835 7.5 10.499 7.164 10.499 6.75C10.499 6.336 10.835 6 11.249 6H12.749C13.163 6 13.499 6.336 13.499 6.75C13.499 7.164 13.163 7.5 12.749 7.5H11.249Z" fill="black"/>
<path d="M6.749 13.5C6.335 13.5 5.999 13.164 5.999 12.75V11.25C5.999 10.836 6.335 10.5 6.749 10.5C7.163 10.5 7.499 10.836 7.499 11.25V12.75C7.499 13.164 7.162 13.5 6.749 13.5Z" fill="black"/>
<path d="M0.749001 7.5C0.335001 7.5 -0.000999451 7.164 -0.000999451 6.75C-0.000999451 6.336 0.335001 6 0.749001 6H2.249C2.663 6 2.999 6.336 2.999 6.75C2.999 7.164 2.662 7.5 2.249 7.5H0.749001Z" fill="black"/>
<path d="M3.56696 4.31808C3.36696 4.31808 3.17796 4.24008 3.03696 4.09808L1.97596 3.03708C1.83396 2.89508 1.75596 2.70708 1.75596 2.50708C1.75596 2.30708 1.83396 2.11808 1.97596 1.97708C2.11696 1.83508 2.30596 1.75708 2.50596 1.75708C2.70596 1.75708 2.89496 1.83508 3.03596 1.97708L4.09696 3.03808C4.23896 3.18008 4.31696 3.36808 4.31696 3.56808C4.31696 3.76808 4.23896 3.95708 4.09696 4.09808C3.95496 4.24008 3.76696 4.31808 3.56696 4.31808Z" fill="black"/>
<path d="M9.93101 4.31808C9.73101 4.31808 9.54201 4.24008 9.40101 4.09808C9.25901 3.95708 9.18101 3.76808 9.18101 3.56808C9.18101 3.36808 9.25901 3.17908 9.40101 3.03808L10.462 1.97708C10.604 1.83508 10.792 1.75708 10.992 1.75708C11.192 1.75708 11.381 1.83508 11.522 1.97708C11.664 2.11808 11.742 2.30708 11.742 2.50708C11.742 2.70708 11.664 2.89608 11.522 3.03708L10.461 4.09808C10.319 4.24008 10.131 4.31808 9.93101 4.31808Z" fill="black"/>
<path d="M10.992 11.7429C10.792 11.7429 10.603 11.6649 10.462 11.5229L9.40003 10.4619C9.25803 10.3209 9.18003 10.1319 9.18003 9.93189C9.18003 9.73188 9.25803 9.54289 9.40003 9.40189C9.54103 9.25989 9.73003 9.18188 9.93003 9.18188C10.13 9.18188 10.319 9.25989 10.46 9.40189L11.521 10.4629C11.663 10.6039 11.741 10.7929 11.741 10.9929C11.741 11.1929 11.663 11.3819 11.521 11.5229C11.38 11.6649 11.192 11.7429 10.992 11.7429Z" fill="black"/>
<path d="M2.50596 11.7429C2.30596 11.7429 2.11696 11.6649 1.97596 11.5229C1.83396 11.3819 1.75596 11.1929 1.75596 10.9929C1.75596 10.7929 1.83396 10.6039 1.97596 10.4629L3.03696 9.40189C3.17796 9.25989 3.36696 9.18188 3.56696 9.18188C3.76696 9.18188 3.95596 9.25989 4.09696 9.40189C4.23896 9.54289 4.31696 9.73188 4.31696 9.93189C4.31696 10.1319 4.23896 10.3209 4.09696 10.4619L3.03596 11.5229C2.89496 11.6649 2.70596 11.7429 2.50596 11.7429Z" fill="black"/>
</g>
<defs>
<clipPath id="clip0">
<path d="M0 0H24V24H0V0Z" fill="white"/>
</clipPath>
</defs>
</svg>
