<svg width="24" height="24" fill="none" xmlns="http://www.w3.org/2000/svg"><path fill-rule="evenodd" clip-rule="evenodd" d="M2.833 11c.46 0 .834.355.834.794v6.618h3.967v-4.63c0-1.153 1.022-2.15 2.242-2.15h1.408c1.22 0 2.242.997 2.242 2.15v4.63h2.64c.46 0 .834.355.834.794 0 .439-.373.794-.833.794h-3.475c-.46 0-.833-.355-.833-.794v-5.423c0-.292-.292-.562-.575-.562H9.876c-.283 0-.576.27-.576.562v5.423c0 .439-.373.794-.833.794H2.833c-.46 0-.833-.355-.833-.794v-7.412c0-.439.373-.794.833-.794zm7.743-9.263l-.002.002-9.186 9.027a.83.83 0 01-1.146.008.769.769 0 01-.009-1.111l9.19-9.03.003-.003a2.173 2.173 0 013.06 0l7.278 7.082a.769.769 0 01-.003 1.111.83.83 0 01-1.146-.002l-7.279-7.082a.517.517 0 00-.76-.002z" fill="#1B314B"/><path fill-rule="evenodd" clip-rule="evenodd" d="M14 2.818c0-.452.373-.818.833-.818h3.334c.46 0 .833.366.833.818v4.364a.826.826 0 01-.833.818.826.826 0 01-.834-.818V3.636h-1.666v.44a.826.826 0 01-.834.82.826.826 0 01-.833-.82V2.819z" fill="#1B314B"/><path d="M18.857 22c-.355 0-.643-.274-.643-.611v-5.5h-.583a1.274 1.274 0 00-.848.588.508.508 0 01-.042.061.989.989 0 01-.777.371.995.995 0 01-.574-.18.906.906 0 01-.39-.732v-1.33c0-1.685 1.442-3.056 3.214-3.056h2.022c.167-.362.549-.611.978-.611h2.143c.355 0 .643.274.643.611v4.278c0 .337-.288.611-.643.611h-2.143c-.43 0-.81-.25-.978-.611H19.5v5.5c0 .337-.288.611-.643.611zm3.857-6.722v-3.056H21.43v3.056h1.285zm-4.5-2.445c-1.063 0-1.928.822-1.928 1.834v.512c.337-.257.74-.433 1.177-.503a.666.666 0 01.108-.01h2.572v-1.833h-1.929z" fill="#1B314B"/></svg>