<svg width="24" height="24" fill="none" xmlns="http://www.w3.org/2000/svg"><path fill-rule="evenodd" clip-rule="evenodd" d="M21.502 23c1.67 0 2.733-1.789 1.933-3.256l-9.503-17.42c-.834-1.53-3.031-1.53-3.866 0l-9.5 17.42C-.236 21.21.825 23 2.497 23h19.004zM10.11 20.234a.815.815 0 00.44.013l3.302-.826a.827.827 0 00-.402-1.604l-1.561.39 2.5-5.006a.822.822 0 00-.036-.804.832.832 0 00-.703-.392h-2.876l1.985-4.633A.828.828 0 0012 6.219a.828.828 0 00-.76.501l-2.476 5.787a.824.824 0 00.758 1.152h2.793l-1.708 3.417-.284-1.138a.826.826 0 10-1.601.401l.825 3.306c.004.016.01.031.015.047a.84.84 0 00.097.206l.017.024a.843.843 0 00.3.261 1.276 1.276 0 00.133.05z" fill="#1B314B"/></svg>