<svg width="24" height="24" viewBox="0 0 24 24" fill="none" xmlns="http://www.w3.org/2000/svg">
<path fill-rule="evenodd" clip-rule="evenodd" d="M21.0698 19.7605L12.4384 3.9372C12.2489 3.58978 11.75 3.58978 11.5605 3.93722L2.93005 19.7606C2.74832 20.0938 2.98948 20.5 3.36901 20.5H20.6308C21.0104 20.5 21.2515 20.0937 21.0698 19.7605ZM22.3866 19.0422C23.1136 20.375 22.149 22 20.6308 22H3.36901C1.85091 22 0.886277 20.3751 1.61319 19.0423L10.2437 3.21897C11.0017 1.82923 12.9972 1.82918 13.7553 3.21889L22.3866 19.0422Z" fill="#FFA000"/>
<path d="M10.5 19.5215C10.431 19.5215 10.36 19.5105 10.284 19.4874C10.266 19.4814 10.248 19.4754 10.23 19.4684C10.213 19.4634 10.188 19.4544 10.163 19.4414C10.127 19.4234 10.091 19.4003 10.057 19.3753C10.052 19.3713 10.041 19.3633 10.041 19.3633C9.98503 19.3193 9.93503 19.2672 9.89003 19.2041C9.88603 19.1981 9.87003 19.1751 9.86603 19.1691C9.83203 19.114 9.80503 19.056 9.78603 18.9949C9.78103 18.9809 9.77603 18.9669 9.77303 18.9528L9.02303 15.9494C8.92303 15.5479 9.16703 15.1395 9.56903 15.0384C9.62803 15.0243 9.68903 15.0163 9.75003 15.0163C10.095 15.0163 10.394 15.2506 10.478 15.585L10.736 16.6192L12.287 13.5146H9.75003C9.49703 13.5146 9.26303 13.3885 9.12403 13.1772C8.98503 12.966 8.96103 12.7007 9.06103 12.4684L11.311 7.21242C11.43 6.9361 11.701 6.7569 12.001 6.7569C12.103 6.7569 12.202 6.77692 12.296 6.81797C12.676 6.98115 12.853 7.42366 12.69 7.80409L10.887 12.0129H13.5C13.758 12.0129 14.002 12.1491 14.138 12.3683C14.276 12.5926 14.288 12.8649 14.171 13.0991L11.9 17.6463L13.318 17.2919C13.379 17.2769 13.439 17.2699 13.5 17.2699C13.845 17.2699 14.145 17.5032 14.228 17.8386C14.328 18.24 14.084 18.6485 13.683 18.7486L10.683 19.4995C10.622 19.5135 10.561 19.5215 10.5 19.5215Z" fill="black"/>
</svg>
