<svg width="24" height="24" viewBox="0 0 24 24" fill="none" xmlns="http://www.w3.org/2000/svg">
<path d="M15 24C14.173 24 13.5 23.327 13.5 22.5V22.253C12.77 22.415 12.021 22.497 11.267 22.497C10.501 22.497 9.741 22.413 9 22.246V22.5C9 23.327 8.327 24 7.5 24H6C5.173 24 4.5 23.327 4.5 22.5V19.97C3.848 19.395 3.282 18.734 2.816 18H0.75C0.336 18 0 17.664 0 17.25V11.25C0 10.836 0.336 10.5 0.75 10.5H2.07C2.757 8.73197 4 7.20197 5.592 6.17097C5.714 6.09197 5.855 6.04997 6 6.04997C6.255 6.04997 6.491 6.17797 6.63 6.39197C6.855 6.73897 6.756 7.20397 6.409 7.42897C4.945 8.37797 3.846 9.81597 3.315 11.478C3.215 11.79 2.928 12 2.6 12H1.5V16.5H3.24C3.509 16.5 3.758 16.645 3.891 16.878C4.365 17.709 4.981 18.436 5.723 19.04C5.899 19.183 6 19.395 6 19.622V22.5H7.5V21.259C7.5 21.019 7.616 20.791 7.812 20.65C7.941 20.557 8.092 20.509 8.25 20.509C8.331 20.509 8.411 20.522 8.488 20.548C9.379 20.846 10.314 20.997 11.266 20.997C12.208 20.997 13.132 20.849 14.014 20.558C14.091 20.533 14.17 20.52 14.25 20.52C14.409 20.52 14.561 20.569 14.689 20.662C14.884 20.803 15 21.03 15 21.27V22.5H16.5V19.637C16.5 19.408 16.603 19.193 16.783 19.05C18.488 17.695 19.478 15.67 19.5 13.492C19.467 11.023 18.194 8.75297 16.093 7.42797C15.924 7.32097 15.806 7.15497 15.761 6.95897C15.717 6.76397 15.751 6.56297 15.858 6.39297C15.996 6.17397 16.233 6.04297 16.493 6.04297C16.634 6.04297 16.773 6.08297 16.892 6.15797C19.16 7.58797 20.651 9.98597 20.944 12.636C21.853 12.34 22.499 11.481 22.499 10.499C22.499 10.085 22.835 9.74897 23.249 9.74897C23.663 9.74897 24 10.086 24 10.5C24 12.314 22.716 13.845 20.965 14.181C20.767 16.423 19.7 18.517 18 19.989V22.5C18 23.327 17.327 24 16.5 24H15Z" fill="black"/>
<path d="M8.25001 8.25C7.96301 8.25 7.70501 8.09 7.57801 7.833C7.48901 7.653 7.47501 7.45 7.53901 7.26C7.60301 7.07 7.73701 6.917 7.91701 6.828C8.17001 6.703 8.43301 6.592 8.70401 6.495C7.94801 5.792 7.50001 4.794 7.50001 3.75C7.50001 1.682 9.18201 0 11.25 0C13.318 0 15 1.682 15 3.75C15 4.812 14.562 5.794 13.799 6.496C14.069 6.592 14.33 6.703 14.582 6.828C14.761 6.917 14.896 7.07 14.96 7.26C15.024 7.45 15.011 7.653 14.922 7.833C14.795 8.09 14.537 8.25 14.25 8.25C14.135 8.25 14.021 8.223 13.917 8.172C13.098 7.767 12.176 7.552 11.25 7.552C10.324 7.552 9.40201 7.766 8.58301 8.172C8.48001 8.223 8.36501 8.25 8.25001 8.25ZM11.25 1.5C10.009 1.5 9.00001 2.509 9.00001 3.75C9.00001 4.991 10.009 6 11.25 6C12.491 6 13.5 4.991 13.5 3.75C13.5 2.509 12.491 1.5 11.25 1.5Z" fill="black"/>
<circle cx="7.5" cy="11.5" r="1" fill="#29D305"/>
</svg>
