<svg width="24" height="24" fill="none" xmlns="http://www.w3.org/2000/svg"><path d="M15 24c-.827 0-1.5-.673-1.5-1.5v-.247a10.308 10.308 0 01-4.5-.007v.254c0 .827-.673 1.5-1.5 1.5H6c-.827 0-1.5-.673-1.5-1.5v-2.53A9.196 9.196 0 012.816 18H.75a.75.75 0 01-.75-.75v-6a.75.75 0 01.75-.75h1.32a9.114 9.114 0 013.522-4.329.75.75 0 11.817 1.258 7.591 7.591 0 00-3.094 4.049A.748.748 0 012.6 12H1.5v4.5h1.74a.75.75 0 01.651.378 7.687 7.687 0 001.832 2.162.747.747 0 01.277.582V22.5h1.5v-1.241a.752.752 0 01.988-.711 8.742 8.742 0 002.778.449c.942 0 1.866-.148 2.748-.439a.742.742 0 01.675.104.752.752 0 01.311.608v1.23h1.5v-2.863c0-.229.103-.444.283-.587a7.161 7.161 0 002.717-5.558 7.267 7.267 0 00-3.407-6.064.75.75 0 11.799-1.27 8.819 8.819 0 014.052 6.478 2.258 2.258 0 001.555-2.137A.75.75 0 1124 10.5a3.74 3.74 0 01-3.035 3.681A8.714 8.714 0 0118 19.989V22.5c0 .827-.673 1.5-1.5 1.5H15z" fill="#1B314B"/><path d="M8.25 8.25a.745.745 0 01-.672-.417.746.746 0 01.34-1.005c.252-.125.515-.236.786-.333A3.767 3.767 0 017.5 3.75 3.754 3.754 0 0111.25 0 3.754 3.754 0 0115 3.75a3.709 3.709 0 01-1.2 2.746c.27.096.53.207.782.332a.746.746 0 01.34 1.005.745.745 0 01-1.005.339 6.047 6.047 0 00-5.334 0 .754.754 0 01-.333.078zm3-6.75A2.252 2.252 0 009 3.75 2.252 2.252 0 0011.25 6a2.252 2.252 0 002.25-2.25 2.252 2.252 0 00-2.25-2.25z" fill="#1B314B"/><circle cx="7.5" cy="11.5" r="1" fill="#FFB65C"/></svg>