<svg width="25" height="21" fill="none" xmlns="http://www.w3.org/2000/svg"><path d="M20.5 20.61a.747.747 0 01-.586-.282 8.79 8.79 0 00-6.767-3.324h-.197a8.736 8.736 0 00-5.474 1.935 8.87 8.87 0 00-1.39 1.39.747.747 0 01-1.054.118.751.751 0 01-.118-1.054 10.362 10.362 0 012.718-2.39H3.247a2.252 2.252 0 01-2.25-2.25v-12a2.252 2.252 0 012.25-2.25h19.5a2.252 2.252 0 012.25 2.25v12a2.252 2.252 0 01-2.25 2.25h-4.382a10.348 10.348 0 012.72 2.389.749.749 0 01-.586 1.218zM3.247 2.004a.75.75 0 00-.75.75v12c0 .414.336.75.75.75h19.5a.75.75 0 00.75-.75v-12a.75.75 0 00-.75-.75h-19.5z" fill="#1B314B"/></svg>