<svg width="24" height="24" viewBox="0 0 24 24" fill="none" xmlns="http://www.w3.org/2000/svg">
<path fill-rule="evenodd" clip-rule="evenodd" d="M9.41206 16.162C13.14 16.162 16.1622 13.14 16.1623 9.41201C16.1624 5.68408 13.1404 2.66198 9.41244 2.66198C5.6845 2.66198 2.66232 5.68408 2.66221 9.41201C2.66211 13.14 5.68412 16.162 9.41206 16.162ZM18.8243 9.41201C18.8241 14.6101 14.6101 18.824 9.41199 18.824C4.21387 18.824 8.22705e-05 14.6101 0.000227742 9.41201C0.000373214 4.2139 4.2144 0 9.41252 0C14.6106 0 18.8244 4.2139 18.8243 9.41201Z" fill="black"/>
<path fill-rule="evenodd" clip-rule="evenodd" d="M17.2439 17.2438C17.7637 16.724 18.6064 16.724 19.1262 17.2438L23.0588 21.1765C23.5786 21.6963 23.5786 22.539 23.0588 23.0588C22.5391 23.5786 21.6963 23.5786 21.1766 23.0588L17.2439 19.1261C16.7242 18.6063 16.7242 17.7636 17.2439 17.2438Z" fill="black"/>
</svg>
