<svg width="24" height="24" viewBox="0 0 24 24" fill="none" xmlns="http://www.w3.org/2000/svg">
<g clip-path="url(#clip0)">
<path fill-rule="evenodd" clip-rule="evenodd" d="M18.6905 15.8825L18.5503 16.0924L23.4898 21.0347C23.8165 21.3617 24 21.8051 24 22.2674C24 22.729 23.817 23.1717 23.4913 23.4985C23.1612 23.8201 22.7187 24 22.2579 24C21.7972 24 21.3546 23.82 21.0245 23.4985L21.0233 23.4973L16.0864 18.5586L15.8766 18.699C13.7705 20.1078 11.216 20.6824 8.7099 20.3111C6.20383 19.9397 3.92541 18.649 2.31781 16.6899C0.710213 14.7308 -0.111608 12.2434 0.0122031 9.71161C0.136014 7.17982 1.1966 4.78461 2.98767 2.9919C4.77874 1.1992 7.17222 0.137163 9.70255 0.0123871C12.2329 -0.112388 14.7191 0.709015 16.6777 2.31682C18.6363 3.92463 19.9271 6.20388 20.2991 8.71122C20.6712 11.2186 20.0978 13.7747 18.6905 15.8825ZM10.2139 2.47379C8.16223 2.47605 6.19525 3.29253 4.74451 4.74408C3.29377 6.19564 2.47775 8.16372 2.47549 10.2165C2.47549 11.748 2.92936 13.2454 3.7797 14.5187C4.63004 15.792 5.83867 16.7845 7.25274 17.3705C8.66681 17.9566 10.2228 18.1099 11.724 17.8112C13.2251 17.5124 14.604 16.7749 15.6863 15.6921C16.7686 14.6092 17.5057 13.2295 17.8043 11.7275C18.1029 10.2255 17.9496 8.66858 17.3639 7.25372C16.7782 5.83886 15.7863 4.62955 14.5136 3.77873C13.241 2.92791 11.7445 2.47379 10.2139 2.47379Z" fill="black"/>
</g>
<defs>
<clipPath id="clip0">
<path d="M0 0H24V24H0V0Z" fill="white"/>
</clipPath>
</defs>
</svg>
