<svg width="24" height="24" viewBox="0 0 24 24" fill="none" xmlns="http://www.w3.org/2000/svg">
<g clip-path="url(#clip0)">
<path fill-rule="evenodd" clip-rule="evenodd" d="M2.16229 13.0637C0.366542 8.83834 2.33615 3.95724 6.56154 2.1615C10.7869 0.365749 15.668 2.33536 17.4638 6.56075C18.8201 9.7522 18.0284 13.3177 15.739 15.6453C15.7224 15.6593 15.7063 15.674 15.6907 15.6896C15.675 15.7054 15.6601 15.7216 15.646 15.7384C14.9226 16.4508 14.0556 17.0418 13.0645 17.463C8.83913 19.2587 3.95803 17.2891 2.16229 13.0637ZM16.2032 17.2629C15.4577 17.9019 14.6029 18.439 13.6512 18.8435C8.6634 20.9632 2.90156 18.6382 0.781787 13.6504C-1.33798 8.6626 0.987025 2.90077 5.97484 0.780994C10.9627 -1.33878 16.7245 0.986233 18.8443 5.97405C20.3518 9.52137 19.6112 13.4602 17.2635 16.2019L23.7804 22.7197C24.0732 23.0126 24.0732 23.4875 23.7803 23.7804C23.4874 24.0732 23.0125 24.0732 22.7196 23.7803L16.2032 17.2629Z" fill="black"/>
<path fill-rule="evenodd" clip-rule="evenodd" d="M4.25 9C4.66421 9 5 9.33579 5 9.75C5 12.6495 7.35051 15 10.25 15C10.6642 15 11 15.3358 11 15.75C11 16.1642 10.6642 16.5 10.25 16.5C6.52208 16.5 3.5 13.4779 3.5 9.75C3.5 9.33579 3.83579 9 4.25 9Z" fill="#29D305"/>
</g>
<defs>
<clipPath id="clip0">
<rect width="24" height="24" fill="white"/>
</clipPath>
</defs>
</svg>
