<svg width="24" height="24" fill="none" xmlns="http://www.w3.org/2000/svg"><path d="M6.183 23.817a5.962 5.962 0 01-4.244-1.758 5.962 5.962 0 01-1.758-4.244c0-1.603.624-3.11 1.758-4.244l4.243-4.24a.746.746 0 011.06.001l3.182 3.182 6.913-6.913A3.758 3.758 0 0117.766.93l.091-.091c.418-.418.981-.65 1.582-.65.602 0 1.167.234 1.592.658l2.122 2.125c.871.875.872 2.298.003 3.173a3.717 3.717 0 01-2.692 1.138 3.767 3.767 0 01-2.067-.621L8.303 16.756a.744.744 0 01-1.06 0 .752.752 0 010-1.061l2.122-2.122-2.652-2.651L3 14.632a4.473 4.473 0 00-1.318 3.183c0 1.202.468 2.333 1.318 3.184a4.474 4.474 0 003.183 1.319 4.47 4.47 0 003.183-1.319l3.712-3.713-1.061-1.06a.743.743 0 01-.22-.53c0-.2.078-.389.22-.53a.744.744 0 011.06 0l1.591 1.59a.744.744 0 010 1.06l-4.242 4.243a5.958 5.958 0 01-4.243 1.758zm12.86-18.541a2.252 2.252 0 003.039-.177l.02-.02a.748.748 0 00-.012-1.047l-2.12-2.124a.743.743 0 00-.53-.218.748.748 0 00-.531.219l-.064.064a2.26 2.26 0 00-.125 2.983.695.695 0 01.323.32z" fill="#1B314B"/></svg>