<svg width="24" height="24" viewBox="0 0 24 24" fill="none" xmlns="http://www.w3.org/2000/svg">
<mask id="path-2-inside-1" fill="white">
<path fill-rule="evenodd" clip-rule="evenodd" d="M24 12.2308C24 18.7307 18.7307 24 12.2308 24C5.7308 24 0.461533 18.7307 0.461533 12.2308C0.461533 5.73081 5.7308 0.461548 12.2308 0.461548C18.7307 0.461548 24 5.73081 24 12.2308ZM12.2308 22.6154C17.966 22.6154 22.6154 17.966 22.6154 12.2308C22.6154 6.49551 17.966 1.84616 12.2308 1.84616C6.4955 1.84616 1.84615 6.49551 1.84615 12.2308C1.84615 17.966 6.4955 22.6154 12.2308 22.6154Z"/>
</mask>
<path fill-rule="evenodd" clip-rule="evenodd" d="M24 12.2308C24 18.7307 18.7307 24 12.2308 24C5.7308 24 0.461533 18.7307 0.461533 12.2308C0.461533 5.73081 5.7308 0.461548 12.2308 0.461548C18.7307 0.461548 24 5.73081 24 12.2308ZM12.2308 22.6154C17.966 22.6154 22.6154 17.966 22.6154 12.2308C22.6154 6.49551 17.966 1.84616 12.2308 1.84616C6.4955 1.84616 1.84615 6.49551 1.84615 12.2308C1.84615 17.966 6.4955 22.6154 12.2308 22.6154Z" fill="#FFB65C"/>
<path d="M12.2308 27C20.3876 27 27 20.3876 27 12.2308H21C21 17.0739 17.0739 21 12.2308 21V27ZM-2.53847 12.2308C-2.53847 20.3876 4.07394 27 12.2308 27V21C7.38765 21 3.46153 17.0739 3.46153 12.2308H-2.53847ZM12.2308 -2.53845C4.07394 -2.53845 -2.53847 4.07396 -2.53847 12.2308H3.46153C3.46153 7.38767 7.38765 3.46155 12.2308 3.46155V-2.53845ZM27 12.2308C27 4.07396 20.3876 -2.53845 12.2308 -2.53845V3.46155C17.0739 3.46155 21 7.38767 21 12.2308H27ZM19.6154 12.2308C19.6154 16.3092 16.3092 19.6154 12.2308 19.6154V25.6154C19.6229 25.6154 25.6154 19.6229 25.6154 12.2308H19.6154ZM12.2308 4.84616C16.3092 4.84616 19.6154 8.15237 19.6154 12.2308H25.6154C25.6154 4.83866 19.6229 -1.15384 12.2308 -1.15384V4.84616ZM4.84615 12.2308C4.84615 8.15237 8.15235 4.84616 12.2308 4.84616V-1.15384C4.83864 -1.15384 -1.15385 4.83866 -1.15385 12.2308H4.84615ZM12.2308 19.6154C8.15235 19.6154 4.84615 16.3092 4.84615 12.2308H-1.15385C-1.15385 19.6229 4.83864 25.6154 12.2308 25.6154V19.6154Z" fill="#29D305" mask="url(#path-2-inside-1)"/>
<path d="M14.2022 13.3405H15.3444V14.5709H14.2022V16.6154H12.6689V14.5709H8.69983L8.65565 13.6371L12.6184 7.42792H14.2022V13.3405ZM10.2647 13.3405H12.6689V9.50394L12.5553 9.70586L10.2647 13.3405Z" fill="black"/>
</svg>
