<svg width="24" height="24" viewBox="0 0 24 24" fill="none" xmlns="http://www.w3.org/2000/svg">
<g clip-path="url(#clip0)">
<mask id="path-2-inside-1" fill="white">
<path fill-rule="evenodd" clip-rule="evenodd" d="M23.5384 11.7692C23.5384 18.2692 18.2692 23.5385 11.7692 23.5385C5.26925 23.5385 -1.52588e-05 18.2692 -1.52588e-05 11.7692C-1.52588e-05 5.26926 5.26925 0 11.7692 0C18.2692 0 23.5384 5.26926 23.5384 11.7692ZM11.7692 22.1538C17.5045 22.1538 22.1538 17.5045 22.1538 11.7692C22.1538 6.03397 17.5045 1.38462 11.7692 1.38462C6.03395 1.38462 1.3846 6.03397 1.3846 11.7692C1.3846 17.5045 6.03395 22.1538 11.7692 22.1538Z"/>
</mask>
<path fill-rule="evenodd" clip-rule="evenodd" d="M23.5384 11.7692C23.5384 18.2692 18.2692 23.5385 11.7692 23.5385C5.26925 23.5385 -1.52588e-05 18.2692 -1.52588e-05 11.7692C-1.52588e-05 5.26926 5.26925 0 11.7692 0C18.2692 0 23.5384 5.26926 23.5384 11.7692ZM11.7692 22.1538C17.5045 22.1538 22.1538 17.5045 22.1538 11.7692C22.1538 6.03397 17.5045 1.38462 11.7692 1.38462C6.03395 1.38462 1.3846 6.03397 1.3846 11.7692C1.3846 17.5045 6.03395 22.1538 11.7692 22.1538Z" fill="#FFB65C"/>
<path d="M11.7692 26.5385C19.926 26.5385 26.5384 19.9261 26.5384 11.7692H20.5384C20.5384 16.6123 16.6123 20.5385 11.7692 20.5385V26.5385ZM-3.00002 11.7692C-3.00002 19.9261 3.61239 26.5385 11.7692 26.5385V20.5385C6.9261 20.5385 2.99998 16.6123 2.99998 11.7692H-3.00002ZM11.7692 -3C3.61239 -3 -3.00002 3.61241 -3.00002 11.7692H2.99998C2.99998 6.92612 6.9261 3 11.7692 3V-3ZM26.5384 11.7692C26.5384 3.61241 19.926 -3 11.7692 -3V3C16.6123 3 20.5384 6.92612 20.5384 11.7692H26.5384ZM19.1538 11.7692C19.1538 15.8476 15.8476 19.1538 11.7692 19.1538V25.1538C19.1613 25.1538 25.1538 19.1613 25.1538 11.7692H19.1538ZM11.7692 4.38462C15.8476 4.38462 19.1538 7.69082 19.1538 11.7692H25.1538C25.1538 4.37711 19.1613 -1.61538 11.7692 -1.61538V4.38462ZM4.3846 11.7692C4.3846 7.69082 7.69081 4.38462 11.7692 4.38462V-1.61538C4.3771 -1.61538 -1.6154 4.37711 -1.6154 11.7692H4.3846ZM11.7692 19.1538C7.69081 19.1538 4.3846 15.8476 4.3846 11.7692H-1.6154C-1.6154 19.1613 4.3771 25.1538 11.7692 25.1538V19.1538Z" fill="#29D305" mask="url(#path-2-inside-1)"/>
<path d="M8.96399 11.5979L9.46249 6.96631H14.397V8.29143H10.7371L10.4847 10.4873C10.9096 10.2434 11.3892 10.1214 11.9234 10.1214C12.7984 10.1214 13.4778 10.4011 13.9616 10.9606C14.4496 11.5201 14.6936 12.2731 14.6936 13.2196C14.6936 14.1535 14.4243 14.8981 13.8859 15.4534C13.3474 16.0045 12.6091 16.28 11.671 16.28C10.8297 16.28 10.1314 16.0423 9.57607 15.567C9.02499 15.0874 8.72631 14.4564 8.68004 13.6739H10.1629C10.2218 14.1199 10.3817 14.4627 10.6425 14.7025C10.9033 14.9381 11.244 15.0559 11.6647 15.0559C12.1359 15.0559 12.5019 14.8876 12.7627 14.551C13.0277 14.2145 13.1602 13.756 13.1602 13.1754C13.1602 12.6159 13.0151 12.1742 12.7248 11.8503C12.4345 11.5222 12.0349 11.3581 11.5259 11.3581C11.2482 11.3581 11.0127 11.396 10.8192 11.4717C10.6257 11.5432 10.4153 11.6863 10.1882 11.9008L8.96399 11.5979Z" fill="black"/>
</g>
<defs>
<clipPath id="clip0">
<path d="M0 0H24V24H0V0Z" fill="white"/>
</clipPath>
</defs>
</svg>
