<svg width="24" height="24" fill="none" xmlns="http://www.w3.org/2000/svg"><mask id="a" fill="#fff"><path fill-rule="evenodd" clip-rule="evenodd" d="M11.77 22.154c5.735 0 10.384-4.65 10.384-10.385 0-5.735-4.65-10.384-10.385-10.384-5.735 0-10.384 4.649-10.384 10.384 0 5.736 4.649 10.385 10.384 10.385zm0 1.384c6.5 0 11.768-5.269 11.768-11.769S18.27 0 11.77 0 0 5.27 0 11.77s5.27 11.768 11.77 11.768z"/></mask><path fill-rule="evenodd" clip-rule="evenodd" d="M11.77 22.154c5.735 0 10.384-4.65 10.384-10.385 0-5.735-4.65-10.384-10.385-10.384-5.735 0-10.384 4.649-10.384 10.384 0 5.736 4.649 10.385 10.384 10.385zm0 1.384c6.5 0 11.768-5.269 11.768-11.769S18.27 0 11.77 0 0 5.27 0 11.77s5.27 11.768 11.77 11.768z" fill="#1B314B"/><path d="M19.154 11.77a7.385 7.385 0 01-7.385 7.384v6c7.392 0 13.385-5.993 13.385-13.385h-6zm-7.385-7.385a7.385 7.385 0 017.385 7.384h6c0-7.392-5.993-13.384-13.385-13.384v6zm-7.384 7.384a7.385 7.385 0 017.384-7.384v-6c-7.392 0-13.384 5.992-13.384 13.384h6zm7.384 7.385a7.385 7.385 0 01-7.384-7.385h-6c0 7.392 5.992 13.385 13.384 13.385v-6zm8.77-7.385a8.77 8.77 0 01-8.77 8.77v6c8.157 0 14.77-6.613 14.77-14.77h-6zM11.768 3a8.77 8.77 0 018.77 8.77h6C26.538 3.611 19.925-3 11.768-3v6zM3 11.77A8.77 8.77 0 0111.77 3v-6C3.611-3-3 3.612-3 11.77h6zm8.77 8.768A8.77 8.77 0 013 11.77h-6c0 8.157 6.612 14.77 14.77 14.77v-6z" fill="#1B314B" mask="url(#a)"/><path d="M14.731 16.154H8.554V15.1l3.06-3.338c.442-.492.755-.902.94-1.23.19-.333.284-.665.284-.998 0-.437-.124-.79-.372-1.06-.244-.269-.574-.403-.99-.403-.497 0-.882.151-1.155.454-.274.303-.41.717-.41 1.243H8.376a3 3 0 01.379-1.508c.256-.45.62-.8 1.091-1.048.476-.248 1.023-.372 1.641-.372.892 0 1.594.225 2.107.675.518.446.777 1.065.777 1.855 0 .459-.13.94-.392 1.445-.256.501-.679 1.071-1.268 1.71l-2.246 2.405h4.265v1.224z" fill="#1B314B"/></svg>