<svg width="24" height="24" viewBox="0 0 24 24" fill="none" xmlns="http://www.w3.org/2000/svg">
<path d="M8.75536 16.5V15.528L12.4004 12.1395C12.9404 11.6265 13.3139 11.199 13.5209 10.857C13.7369 10.515 13.8449 10.155 13.8449 9.77697C13.8449 9.29097 13.6559 8.89047 13.2779 8.57547C12.9089 8.25147 12.4409 8.08947 11.8739 8.08947C11.4149 8.08947 10.9874 8.17947 10.5914 8.35947C10.1954 8.53947 9.76336 8.83647 9.29536 9.25047L8.52586 8.33247C9.04786 7.86447 9.59236 7.51347 10.1594 7.27947C10.7264 7.04547 11.3069 6.92847 11.9009 6.92847C12.3779 6.92847 12.8144 6.99597 13.2104 7.13097C13.6154 7.26597 13.9574 7.45947 14.2364 7.71147C14.5244 7.95447 14.7494 8.24697 14.9114 8.58897C15.0734 8.92197 15.1544 9.29097 15.1544 9.69597C15.1544 10.236 15.0194 10.7355 14.7494 11.1945C14.4884 11.6535 13.9934 12.2205 13.2644 12.8955L10.6049 15.3525H15.3029V16.5H8.75536Z" fill="black"/>
<mask id="path-4-inside-1" fill="white">
<path fill-rule="evenodd" clip-rule="evenodd" d="M12 24C18.6274 24 24 18.6274 24 12C24 5.37258 18.6274 0 12 0C5.37258 0 0 5.37258 0 12C0 18.6274 5.37258 24 12 24ZM22.5882 12C22.5882 17.8477 17.8477 22.5882 12 22.5882C6.15228 22.5882 1.41176 17.8477 1.41176 12C1.41176 6.15228 6.15228 1.41176 12 1.41176C17.8477 1.41176 22.5882 6.15228 22.5882 12Z"/>
</mask>
<path fill-rule="evenodd" clip-rule="evenodd" d="M12 24C18.6274 24 24 18.6274 24 12C24 5.37258 18.6274 0 12 0C5.37258 0 0 5.37258 0 12C0 18.6274 5.37258 24 12 24ZM22.5882 12C22.5882 17.8477 17.8477 22.5882 12 22.5882C6.15228 22.5882 1.41176 17.8477 1.41176 12C1.41176 6.15228 6.15228 1.41176 12 1.41176C17.8477 1.41176 22.5882 6.15228 22.5882 12Z" fill="#29D305"/>
<path d="M21 12C21 16.9706 16.9706 21 12 21V27C20.2843 27 27 20.2843 27 12H21ZM12 3C16.9706 3 21 7.02944 21 12H27C27 3.71573 20.2843 -3 12 -3V3ZM3 12C3 7.02944 7.02944 3 12 3V-3C3.71573 -3 -3 3.71573 -3 12H3ZM12 21C7.02944 21 3 16.9706 3 12H-3C-3 20.2843 3.71573 27 12 27V21ZM12 25.5882C19.5046 25.5882 25.5882 19.5046 25.5882 12H19.5882C19.5882 16.1909 16.1909 19.5882 12 19.5882V25.5882ZM-1.58824 12C-1.58824 19.5046 4.49542 25.5882 12 25.5882V19.5882C7.80913 19.5882 4.41176 16.1909 4.41176 12H-1.58824ZM12 -1.58824C4.49542 -1.58824 -1.58824 4.49542 -1.58824 12H4.41176C4.41176 7.80913 7.80913 4.41176 12 4.41176V-1.58824ZM25.5882 12C25.5882 4.49542 19.5046 -1.58824 12 -1.58824V4.41176C16.1909 4.41176 19.5882 7.80913 19.5882 12H25.5882Z" fill="#29D305" mask="url(#path-4-inside-1)"/>
</svg>
