<svg width="24" height="24" viewBox="0 0 24 24" fill="none" xmlns="http://www.w3.org/2000/svg">
<mask id="path-2-inside-1" fill="white">
<path fill-rule="evenodd" clip-rule="evenodd" d="M11.7692 22.1538C17.5045 22.1538 22.1538 17.5045 22.1538 11.7692C22.1538 6.03397 17.5045 1.38462 11.7692 1.38462C6.03397 1.38462 1.38462 6.03397 1.38462 11.7692C1.38462 17.5045 6.03397 22.1538 11.7692 22.1538ZM11.7692 23.5385C18.2692 23.5385 23.5385 18.2692 23.5385 11.7692C23.5385 5.26926 18.2692 0 11.7692 0C5.26926 0 0 5.26926 0 11.7692C0 18.2692 5.26926 23.5385 11.7692 23.5385Z"/>
</mask>
<path fill-rule="evenodd" clip-rule="evenodd" d="M11.7692 22.1538C17.5045 22.1538 22.1538 17.5045 22.1538 11.7692C22.1538 6.03397 17.5045 1.38462 11.7692 1.38462C6.03397 1.38462 1.38462 6.03397 1.38462 11.7692C1.38462 17.5045 6.03397 22.1538 11.7692 22.1538ZM11.7692 23.5385C18.2692 23.5385 23.5385 18.2692 23.5385 11.7692C23.5385 5.26926 18.2692 0 11.7692 0C5.26926 0 0 5.26926 0 11.7692C0 18.2692 5.26926 23.5385 11.7692 23.5385Z" fill="#1B314B"/>
<path d="M19.1538 11.7692C19.1538 15.8476 15.8476 19.1538 11.7692 19.1538V25.1538C19.1613 25.1538 25.1538 19.1613 25.1538 11.7692H19.1538ZM11.7692 4.38462C15.8476 4.38462 19.1538 7.69082 19.1538 11.7692H25.1538C25.1538 4.37711 19.1613 -1.61538 11.7692 -1.61538V4.38462ZM4.38462 11.7692C4.38462 7.69082 7.69082 4.38462 11.7692 4.38462V-1.61538C4.37711 -1.61538 -1.61538 4.37711 -1.61538 11.7692H4.38462ZM11.7692 19.1538C7.69082 19.1538 4.38462 15.8476 4.38462 11.7692H-1.61538C-1.61538 19.1613 4.37711 25.1538 11.7692 25.1538V19.1538ZM20.5385 11.7692C20.5385 16.6123 16.6123 20.5385 11.7692 20.5385V26.5385C19.9261 26.5385 26.5385 19.9261 26.5385 11.7692H20.5385ZM11.7692 3C16.6123 3 20.5385 6.92612 20.5385 11.7692H26.5385C26.5385 3.61241 19.9261 -3 11.7692 -3V3ZM3 11.7692C3 6.92612 6.92612 3 11.7692 3V-3C3.61241 -3 -3 3.61241 -3 11.7692H3ZM11.7692 20.5385C6.92612 20.5385 3 16.6123 3 11.7692H-3C-3 19.9261 3.61241 26.5385 11.7692 26.5385V20.5385Z" fill="#29D305" mask="url(#path-2-inside-1)"/>
<path d="M14.7313 16.1539H8.55376V15.1001L11.6142 11.762C12.0559 11.2698 12.3693 10.8597 12.5544 10.5316C12.7437 10.1992 12.8383 9.86689 12.8383 9.53456C12.8383 9.09706 12.7142 8.74369 12.466 8.47446C12.222 8.20523 11.8918 8.07062 11.4753 8.07062C10.9789 8.07062 10.594 8.22206 10.3206 8.52494C10.0471 8.82783 9.91043 9.24219 9.91043 9.76803H8.37708C8.37708 9.20854 8.50328 8.70583 8.75568 8.25992C9.01229 7.8098 9.37617 7.46064 9.84733 7.21244C10.3227 6.96425 10.8696 6.84015 11.488 6.84015C12.3798 6.84015 13.0823 7.06521 13.5955 7.51533C14.113 7.96124 14.3717 8.57963 14.3717 9.3705C14.3717 9.82903 14.2413 10.3107 13.9804 10.8155C13.7238 11.3161 13.3011 11.8861 12.7121 12.5255L10.4657 14.9297H14.7313V16.1539Z" fill="black"/>
</svg>
