<svg width="24" height="24" fill="none" xmlns="http://www.w3.org/2000/svg"><path fill-rule="evenodd" clip-rule="evenodd" d="M23.538 11.77c0 6.5-5.269 11.768-11.769 11.768S0 18.27 0 11.77 5.27 0 11.77 0s11.768 5.27 11.768 11.77zM11.77 22.153c5.736 0 10.385-4.65 10.385-10.385 0-5.735-4.65-10.384-10.385-10.384-5.735 0-10.384 4.649-10.384 10.384 0 5.736 4.649 10.385 10.384 10.385z" fill="#1B314B"/><path d="M8.964 11.598l.499-4.632h4.934v1.325h-3.66l-.252 2.196a2.838 2.838 0 011.438-.366c.875 0 1.555.28 2.039.84.488.56.732 1.312.732 2.259 0 .933-.27 1.678-.808 2.233-.539.552-1.277.827-2.215.827-.841 0-1.54-.238-2.095-.713-.551-.48-.85-1.11-.896-1.893h1.483c.059.446.219.789.48 1.029.26.235.601.353 1.022.353.47 0 .837-.168 1.098-.505.265-.337.397-.795.397-1.376 0-.56-.145-1-.435-1.325-.29-.328-.69-.492-1.2-.492-.277 0-.512.038-.706.114-.193.071-.404.214-.63.429l-1.225-.303z" fill="#1B314B"/></svg>