<svg width="24" height="24" fill="none" xmlns="http://www.w3.org/2000/svg"><mask id="a" fill="#fff"><path fill-rule="evenodd" clip-rule="evenodd" d="M12.23 22.615c5.736 0 10.385-4.649 10.385-10.384S17.965 1.846 12.231 1.846c-5.736 0-10.385 4.65-10.385 10.385 0 5.735 4.65 10.384 10.385 10.384zm0 1.385C18.73 24 24 18.73 24 12.23S18.73.463 12.23.463.462 5.73.462 12.23 5.731 24 12.231 24z"/></mask><path fill-rule="evenodd" clip-rule="evenodd" d="M12.23 22.615c5.736 0 10.385-4.649 10.385-10.384S17.965 1.846 12.231 1.846c-5.736 0-10.385 4.65-10.385 10.385 0 5.735 4.65 10.384 10.385 10.384zm0 1.385C18.73 24 24 18.73 24 12.23S18.73.463 12.23.463.462 5.73.462 12.23 5.731 24 12.231 24z" fill="#1B314B" stroke="#FFB65C" stroke-width="6" mask="url(#a)"/><path d="M10.788 11.321h.934c.471-.004.844-.126 1.117-.366.278-.24.417-.587.417-1.04 0-.438-.116-.777-.347-1.017-.228-.244-.577-.366-1.048-.366-.412 0-.75.12-1.016.36-.265.235-.397.545-.397.927H8.914c0-.47.124-.9.373-1.287a2.527 2.527 0 011.047-.902c.45-.219.953-.328 1.508-.328.917 0 1.637.231 2.158.694.526.458.789 1.098.789 1.918 0 .412-.133.802-.398 1.167-.26.362-.599.636-1.015.82.504.173.887.445 1.148.815.265.37.398.812.398 1.325 0 .824-.285 1.48-.852 1.969-.564.488-1.307.732-2.228.732-.883 0-1.607-.236-2.17-.707-.564-.471-.846-1.098-.846-1.88h1.533c0 .403.135.731.404.984.274.252.64.378 1.098.378.475 0 .85-.126 1.123-.378.274-.253.41-.619.41-1.098 0-.484-.143-.856-.429-1.117-.286-.26-.71-.391-1.274-.391h-.903V11.32z" fill="#1B314B"/></svg>