<svg width="24" height="24" viewBox="0 0 24 24" fill="none" xmlns="http://www.w3.org/2000/svg">
<path d="M13.5574 16.1768H12.1202V9.23416L10 9.95871V8.74123L13.3733 7.5H13.5574V16.1768Z" fill="black"/>
<mask id="path-3-inside-1" fill="white">
<path fill-rule="evenodd" clip-rule="evenodd" d="M23.5385 11.7692C23.5385 18.2692 18.2692 23.5385 11.7692 23.5385C5.26926 23.5385 0 18.2692 0 11.7692C0 5.26926 5.26926 0 11.7692 0C18.2692 0 23.5385 5.26926 23.5385 11.7692ZM11.7692 22.1538C17.5045 22.1538 22.1538 17.5045 22.1538 11.7692C22.1538 6.03397 17.5045 1.38462 11.7692 1.38462C6.03397 1.38462 1.38462 6.03397 1.38462 11.7692C1.38462 17.5045 6.03397 22.1538 11.7692 22.1538Z"/>
</mask>
<path fill-rule="evenodd" clip-rule="evenodd" d="M23.5385 11.7692C23.5385 18.2692 18.2692 23.5385 11.7692 23.5385C5.26926 23.5385 0 18.2692 0 11.7692C0 5.26926 5.26926 0 11.7692 0C18.2692 0 23.5385 5.26926 23.5385 11.7692ZM11.7692 22.1538C17.5045 22.1538 22.1538 17.5045 22.1538 11.7692C22.1538 6.03397 17.5045 1.38462 11.7692 1.38462C6.03397 1.38462 1.38462 6.03397 1.38462 11.7692C1.38462 17.5045 6.03397 22.1538 11.7692 22.1538Z" fill="#FFB65C"/>
<path d="M11.7692 26.5385C19.9261 26.5385 26.5385 19.9261 26.5385 11.7692H20.5385C20.5385 16.6123 16.6123 20.5385 11.7692 20.5385V26.5385ZM-3 11.7692C-3 19.9261 3.61241 26.5385 11.7692 26.5385V20.5385C6.92612 20.5385 3 16.6123 3 11.7692H-3ZM11.7692 -3C3.61241 -3 -3 3.61241 -3 11.7692H3C3 6.92612 6.92612 3 11.7692 3V-3ZM26.5385 11.7692C26.5385 3.61241 19.9261 -3 11.7692 -3V3C16.6123 3 20.5385 6.92612 20.5385 11.7692H26.5385ZM19.1538 11.7692C19.1538 15.8476 15.8476 19.1538 11.7692 19.1538V25.1538C19.1613 25.1538 25.1538 19.1613 25.1538 11.7692H19.1538ZM11.7692 4.38462C15.8476 4.38462 19.1538 7.69082 19.1538 11.7692H25.1538C25.1538 4.37711 19.1613 -1.61538 11.7692 -1.61538V4.38462ZM4.38462 11.7692C4.38462 7.69082 7.69082 4.38462 11.7692 4.38462V-1.61538C4.37711 -1.61538 -1.61538 4.37711 -1.61538 11.7692H4.38462ZM11.7692 19.1538C7.69082 19.1538 4.38462 15.8476 4.38462 11.7692H-1.61538C-1.61538 19.1613 4.37711 25.1538 11.7692 25.1538V19.1538Z" fill="#29D305" mask="url(#path-3-inside-1)"/>
</svg>
