<svg width="24" height="24" fill="none" xmlns="http://www.w3.org/2000/svg"><mask id="a" fill="#fff"><path fill-rule="evenodd" clip-rule="evenodd" d="M24 12.23C24 18.73 18.73 24 12.23 24S.462 18.73.462 12.23 5.731.463 12.231.463 24 5.73 24 12.23zM12.23 22.616c5.736 0 10.385-4.649 10.385-10.384S17.965 1.846 12.231 1.846c-5.736 0-10.385 4.65-10.385 10.385 0 5.735 4.65 10.384 10.385 10.384z"/></mask><path fill-rule="evenodd" clip-rule="evenodd" d="M24 12.23C24 18.73 18.73 24 12.23 24S.462 18.73.462 12.23 5.731.463 12.231.463 24 5.73 24 12.23zM12.23 22.616c5.736 0 10.385-4.649 10.385-10.384S17.965 1.846 12.231 1.846c-5.736 0-10.385 4.65-10.385 10.385 0 5.735 4.65 10.384 10.385 10.384z" fill="#FFB65C" stroke="#FFB65C" stroke-width="6" mask="url(#a)"/><path d="M14.202 13.34h1.143v1.23h-1.143v2.045H12.67v-2.044H8.7l-.043-.934 3.962-6.21h1.584v5.914zm-3.937 0h2.404V9.505l-.114.202-2.29 3.635z" fill="#1B314B"/></svg>