<svg width="24" height="24" fill="none" xmlns="http://www.w3.org/2000/svg"><g clip-path="url(#clip0)"><mask id="a" fill="#fff"><path fill-rule="evenodd" clip-rule="evenodd" d="M23.538 11.77c0 6.5-5.269 11.768-11.769 11.768S0 18.27 0 11.77 5.27 0 11.77 0s11.768 5.27 11.768 11.77zM11.77 22.153c5.736 0 10.385-4.65 10.385-10.385 0-5.735-4.65-10.384-10.385-10.384-5.735 0-10.384 4.649-10.384 10.384 0 5.736 4.649 10.385 10.384 10.385z"/></mask><path fill-rule="evenodd" clip-rule="evenodd" d="M23.538 11.77c0 6.5-5.269 11.768-11.769 11.768S0 18.27 0 11.77 5.27 0 11.77 0s11.768 5.27 11.768 11.77zM11.77 22.153c5.736 0 10.385-4.65 10.385-10.385 0-5.735-4.65-10.384-10.385-10.384-5.735 0-10.384 4.649-10.384 10.384 0 5.736 4.649 10.385 10.384 10.385z" fill="#FFB65C"/><path d="M11.77 26.538c8.156 0 14.768-6.612 14.768-14.769h-6a8.77 8.77 0 01-8.769 8.77v6zM-3 11.77c0 8.157 6.612 14.77 14.77 14.77v-6A8.77 8.77 0 013 11.768h-6zM11.77-3C3.611-3-3 3.612-3 11.77h6A8.77 8.77 0 0111.77 3v-6zm14.768 14.77C26.538 3.611 19.926-3 11.77-3v6a8.77 8.77 0 018.77 8.77h6zm-7.384 0a7.385 7.385 0 01-7.385 7.384v6c7.392 0 13.385-5.993 13.385-13.385h-6zm-7.385-7.385a7.385 7.385 0 017.385 7.384h6c0-7.392-5.993-13.384-13.385-13.384v6zm-7.384 7.384a7.385 7.385 0 017.384-7.384v-6c-7.392 0-13.384 5.992-13.384 13.384h6zm7.384 7.385a7.385 7.385 0 01-7.384-7.385h-6c0 7.392 5.992 13.385 13.384 13.385v-6z" fill="#FFB65C" mask="url(#a)"/><path d="M8.964 11.598l.498-4.632h4.935v1.325h-3.66l-.252 2.196a2.838 2.838 0 011.438-.366c.875 0 1.555.28 2.038.84.489.56.732 1.312.732 2.259 0 .933-.269 1.678-.807 2.233-.539.552-1.277.827-2.215.827-.841 0-1.54-.238-2.095-.713-.551-.48-.85-1.11-.896-1.893h1.483c.059.446.219.789.48 1.029.26.235.6.353 1.022.353.47 0 .837-.168 1.098-.505.265-.337.397-.795.397-1.376 0-.56-.145-1-.435-1.325-.29-.328-.69-.492-1.2-.492-.277 0-.512.038-.706.114-.194.071-.404.214-.631.429l-1.224-.303z" fill="#1B314B"/></g><defs><clipPath id="clip0"><path fill="#fff" d="M0 0h24v24H0z"/></clipPath></defs></svg>