<svg width="24" height="24" viewBox="0 0 24 24" fill="none" xmlns="http://www.w3.org/2000/svg">
<mask id="path-2-inside-1" fill="white">
<path fill-rule="evenodd" clip-rule="evenodd" d="M12.2308 22.6154C17.966 22.6154 22.6154 17.966 22.6154 12.2308C22.6154 6.49551 17.966 1.84616 12.2308 1.84616C6.4955 1.84616 1.84615 6.49551 1.84615 12.2308C1.84615 17.966 6.4955 22.6154 12.2308 22.6154ZM12.2308 24C18.7307 24 24 18.7307 24 12.2308C24 5.73081 18.7307 0.461548 12.2308 0.461548C5.7308 0.461548 0.461533 5.73081 0.461533 12.2308C0.461533 18.7307 5.7308 24 12.2308 24Z"/>
</mask>
<path fill-rule="evenodd" clip-rule="evenodd" d="M12.2308 22.6154C17.966 22.6154 22.6154 17.966 22.6154 12.2308C22.6154 6.49551 17.966 1.84616 12.2308 1.84616C6.4955 1.84616 1.84615 6.49551 1.84615 12.2308C1.84615 17.966 6.4955 22.6154 12.2308 22.6154ZM12.2308 24C18.7307 24 24 18.7307 24 12.2308C24 5.73081 18.7307 0.461548 12.2308 0.461548C5.7308 0.461548 0.461533 5.73081 0.461533 12.2308C0.461533 18.7307 5.7308 24 12.2308 24Z" fill="#1B314B"/>
<path d="M19.6154 12.2308C19.6154 16.3092 16.3092 19.6154 12.2308 19.6154V25.6154C19.6229 25.6154 25.6154 19.6229 25.6154 12.2308H19.6154ZM12.2308 4.84616C16.3092 4.84616 19.6154 8.15237 19.6154 12.2308H25.6154C25.6154 4.83866 19.6229 -1.15384 12.2308 -1.15384V4.84616ZM4.84615 12.2308C4.84615 8.15237 8.15235 4.84616 12.2308 4.84616V-1.15384C4.83864 -1.15384 -1.15385 4.83866 -1.15385 12.2308H4.84615ZM12.2308 19.6154C8.15235 19.6154 4.84615 16.3092 4.84615 12.2308H-1.15385C-1.15385 19.6229 4.83864 25.6154 12.2308 25.6154V19.6154ZM21 12.2308C21 17.0739 17.0739 21 12.2308 21V27C20.3876 27 27 20.3876 27 12.2308H21ZM12.2308 3.46155C17.0739 3.46155 21 7.38767 21 12.2308H27C27 4.07396 20.3876 -2.53845 12.2308 -2.53845V3.46155ZM3.46153 12.2308C3.46153 7.38767 7.38765 3.46155 12.2308 3.46155V-2.53845C4.07394 -2.53845 -2.53847 4.07396 -2.53847 12.2308H3.46153ZM12.2308 21C7.38765 21 3.46153 17.0739 3.46153 12.2308H-2.53847C-2.53847 20.3876 4.07394 27 12.2308 27V21Z" fill="#29D305" mask="url(#path-2-inside-1)"/>
<path d="M10.7884 11.3212H11.7223C12.1935 11.317 12.5658 11.195 12.8392 10.9552C13.1169 10.7155 13.2557 10.3684 13.2557 9.91408C13.2557 9.47658 13.14 9.13794 12.9086 8.89815C12.6815 8.65416 12.3323 8.53217 11.8611 8.53217C11.4489 8.53217 11.1102 8.65206 10.8452 8.89184C10.5802 9.12742 10.4477 9.43661 10.4477 9.81943H8.91433C8.91433 9.34827 9.03843 8.91918 9.28663 8.53217C9.53903 8.14515 9.88819 7.84437 10.3341 7.62982C10.7842 7.41107 11.2869 7.3017 11.8422 7.3017C12.7593 7.3017 13.4786 7.53307 14.0003 7.99581C14.5261 8.45434 14.789 9.09376 14.789 9.91408C14.789 10.3263 14.6565 10.7155 14.3915 11.0814C14.1307 11.4432 13.792 11.7167 13.3756 11.9018C13.8804 12.0742 14.2632 12.3456 14.524 12.7158C14.789 13.086 14.9215 13.5277 14.9215 14.0409C14.9215 14.8654 14.6376 15.5216 14.0697 16.0096C13.506 16.4976 12.7635 16.7416 11.8422 16.7416C10.9588 16.7416 10.2352 16.506 9.67154 16.0349C9.10784 15.5637 8.82599 14.9369 8.82599 14.1545H10.3593C10.3593 14.5583 10.494 14.8864 10.7632 15.1388C11.0366 15.3912 11.4026 15.5174 11.8611 15.5174C12.3365 15.5174 12.7109 15.3912 12.9843 15.1388C13.2578 14.8864 13.3945 14.5204 13.3945 14.0409C13.3945 13.5571 13.2515 13.1848 12.9654 12.924C12.6794 12.6632 12.2545 12.5328 11.6908 12.5328H10.7884V11.3212Z" fill="black"/>
</svg>
