<svg width="24" height="24" viewBox="0 0 24 24" fill="none" xmlns="http://www.w3.org/2000/svg">
<path d="M13.2524 7.04999V16.5H11.9159V8.44049L10.2149 9.15599V7.96799L12.4019 7.04999H13.2524Z" fill="black"/>
<mask id="path-4-inside-1" fill="white">
<path fill-rule="evenodd" clip-rule="evenodd" d="M12 24C18.6274 24 24 18.6274 24 12C24 5.37258 18.6274 0 12 0C5.37258 0 0 5.37258 0 12C0 18.6274 5.37258 24 12 24ZM22.5882 12C22.5882 17.8477 17.8477 22.5882 12 22.5882C6.15228 22.5882 1.41176 17.8477 1.41176 12C1.41176 6.15228 6.15228 1.41176 12 1.41176C17.8477 1.41176 22.5882 6.15228 22.5882 12Z"/>
</mask>
<path fill-rule="evenodd" clip-rule="evenodd" d="M12 24C18.6274 24 24 18.6274 24 12C24 5.37258 18.6274 0 12 0C5.37258 0 0 5.37258 0 12C0 18.6274 5.37258 24 12 24ZM22.5882 12C22.5882 17.8477 17.8477 22.5882 12 22.5882C6.15228 22.5882 1.41176 17.8477 1.41176 12C1.41176 6.15228 6.15228 1.41176 12 1.41176C17.8477 1.41176 22.5882 6.15228 22.5882 12Z" fill="#29D305"/>
<path d="M21 12C21 16.9706 16.9706 21 12 21V27C20.2843 27 27 20.2843 27 12H21ZM12 3C16.9706 3 21 7.02944 21 12H27C27 3.71573 20.2843 -3 12 -3V3ZM3 12C3 7.02944 7.02944 3 12 3V-3C3.71573 -3 -3 3.71573 -3 12H3ZM12 21C7.02944 21 3 16.9706 3 12H-3C-3 20.2843 3.71573 27 12 27V21ZM12 25.5882C19.5046 25.5882 25.5882 19.5046 25.5882 12H19.5882C19.5882 16.1909 16.1909 19.5882 12 19.5882V25.5882ZM-1.58824 12C-1.58824 19.5046 4.49542 25.5882 12 25.5882V19.5882C7.80913 19.5882 4.41176 16.1909 4.41176 12H-1.58824ZM12 -1.58824C4.49542 -1.58824 -1.58824 4.49542 -1.58824 12H4.41176C4.41176 7.80913 7.80913 4.41176 12 4.41176V-1.58824ZM25.5882 12C25.5882 4.49542 19.5046 -1.58824 12 -1.58824V4.41176C16.1909 4.41176 19.5882 7.80913 19.5882 12H25.5882Z" fill="#29D305" mask="url(#path-4-inside-1)"/>
</svg>
