<svg width="21" height="25" fill="none" xmlns="http://www.w3.org/2000/svg"><path d="M10.5 24.002a.74.74 0 01-.219-.033L3.37 21.856c-.708-.262-1.15-.917-1.119-1.636v-.341a3.502 3.502 0 01-1.217-.555C.363 18.836-.004 18.167 0 17.438v-.896c0-.582.238-1.127.69-1.576.397-.396.943-.688 1.56-.841v-1.172a1.57 1.57 0 011.974-1.632.975.975 0 01.065.021l6.212 2.277 6.228-2.279a1.576 1.576 0 01.474-.075c.271 0 .539.072.776.208a1.56 1.56 0 01.785 1.479v1.454c.31.153.577.341.798.561.451.449.689.993.689 1.574v.9c.003.726-.364 1.395-1.035 1.882-.138.1-.289.191-.452.273v.661c.034.694-.4 1.341-1.079 1.591l-6.965 2.12a.723.723 0 01-.22.034zm.75-1.762l5.957-1.812c.019-.008.06-.066.057-.134v-.301a3.522 3.522 0 01-.25.009c-.617 0-1.173-.212-1.547-.583a1.49 1.49 0 01-.459-1.059L15 15.657c-.002-.385.158-.76.451-1.055.376-.379.944-.597 1.559-.598.084 0 .169.003.254.008v-1.093c0-.027.001-.054.004-.081-.007-.04-.017-.053-.033-.062a.066.066 0 00-.033-.009h-.004l-5.947 2.176v7.297h-.001zm-7.5-1.988c-.004.096.034.159.1.184l5.9 1.803v-7.296l-5.932-2.175-.005-.001a.068.068 0 00-.065.05c-.002.008-.003.016-.002.025a.68.68 0 01.004.078v1.137c.408.084.77.272 1.041.544.293.294.454.67.452 1.057l-.006 2.702c0 .39-.163.766-.459 1.059a2.036 2.036 0 01-1.028.531v.302zm12.771-1.899c.071.07.236.146.49.149.506-.002.978-.141 1.322-.391.27-.196.418-.432.417-.665v-.904c0-.219-.135-.399-.247-.511-.33-.329-.887-.525-1.491-.526-.213.005-.409.065-.499.156l-.014.016.008 2.661a.253.253 0 01.014.015zM3.237 15.505c-.603 0-1.16.196-1.489.524-.113.112-.248.293-.248.513v.9c-.001.236.146.473.416.669.343.25.813.388 1.323.391.202 0 .392-.059.483-.149a.183.183 0 00.015-.017l.006-2.66a.165.165 0 00-.015-.017c-.094-.094-.286-.155-.489-.155v-.375l-.002.376zm7.275-5.753a4.88 4.88 0 01-4.875-4.875A4.88 4.88 0 0110.512.002a4.88 4.88 0 014.875 4.875 4.88 4.88 0 01-4.875 4.875zm0-8.25a3.379 3.379 0 00-3.375 3.375 3.379 3.379 0 003.375 3.375 3.379 3.379 0 003.375-3.375 3.379 3.379 0 00-3.375-3.375z" fill="#1B314B"/></svg>