<svg width="24" height="24" viewBox="0 0 24 24" fill="none" xmlns="http://www.w3.org/2000/svg">
<path d="M7.5 12.7483C7.086 12.7483 6.75 12.4127 6.75 11.9991C6.75 11.5856 7.086 11.25 7.5 11.25H16.5C16.914 11.25 17.25 11.5856 17.25 11.9991C17.25 12.4127 16.914 12.7483 16.5 12.7483H7.5Z" fill="black"/>
<path d="M12 24C5.383 24 0 18.617 0 12C0 5.383 5.383 0 12 0C18.617 0 24 5.383 24 12C24 18.617 18.617 24 12 24ZM12 1.5C6.21 1.5 1.5 6.21 1.5 12C1.5 17.79 6.21 22.5 12 22.5C17.79 22.5 22.5 17.79 22.5 12C22.5 6.21 17.79 1.5 12 1.5Z" fill="black"/>
</svg>
