<svg width="24" height="24" fill="none" xmlns="http://www.w3.org/2000/svg"><path d="M12 19.5c-4.135 0-7.5-3.365-7.5-7.5S7.865 4.5 12 4.5s7.5 3.365 7.5 7.5-3.365 7.5-7.5 7.5zM12 6c-3.308 0-6 2.692-6 6s2.692 6 6 6 6-2.692 6-6-2.692-6-6-6zm0-3a.75.75 0 01-.75-.75V.75a.75.75 0 011.5 0v1.5A.75.75 0 0112 3zm6.894 2.856a.743.743 0 01-.53-.22.744.744 0 010-1.06l1.061-1.061a.744.744 0 011.06 0 .744.744 0 010 1.06l-1.061 1.061a.743.743 0 01-.53.22zm2.856 6.894a.75.75 0 010-1.5h1.5a.75.75 0 010 1.5h-1.5zm-1.795 7.955a.743.743 0 01-.53-.22l-1.061-1.061a.752.752 0 01.53-1.281c.2 0 .389.078.53.22l1.061 1.061a.752.752 0 01-.53 1.281zM12 24a.75.75 0 01-.75-.75v-1.5a.75.75 0 011.5 0v1.5A.75.75 0 0112 24zm-7.955-3.295a.743.743 0 01-.53-.22.744.744 0 010-1.06l1.061-1.061a.743.743 0 01.53-.22.752.752 0 01.53 1.281l-1.061 1.061a.744.744 0 01-.53.219zM.75 12.75a.75.75 0 010-1.5h1.5a.75.75 0 010 1.5H.75zm4.356-6.894a.743.743 0 01-.53-.22L3.515 4.575a.743.743 0 01-.22-.53c0-.2.078-.389.22-.53a.743.743 0 01.53-.22c.2 0 .389.078.53.22l1.061 1.061c.142.141.22.33.22.53s-.078.389-.22.53a.743.743 0 01-.53.22z" fill="#1B314B"/></svg>