<svg width="24" height="25" viewBox="0 0 24 25" fill="none" xmlns="http://www.w3.org/2000/svg">
<path d="M17.6386 24.999C17.2166 24.999 16.8741 24.663 16.8741 24.249V20.049C16.8741 19.782 17.0209 19.532 17.2573 19.399C19.2083 18.298 20.6476 16.44 21.2062 14.301C21.7627 12.169 21.4396 9.952 20.2969 8.059C19.3327 6.462 17.8587 5.24 16.1086 4.576V8.899C17.083 9.754 17.6375 10.966 17.6375 12.25C17.6375 14.731 15.5795 16.75 13.0506 16.75C12.861 16.75 12.6704 16.738 12.4757 16.712C10.9325 19.055 8.2476 20.5 5.40574 20.5H3.87677C3.45477 20.5 3.11228 20.164 3.11228 19.75C3.11228 19.336 3.45579 19 3.87677 19H5.40574C7.60849 19 9.64814 17.978 10.9467 16.245C9.42389 15.476 8.46369 13.954 8.46369 12.25C8.46369 10.965 9.0182 9.754 9.99267 8.899V4.427C6.77163 5.401 4.64228 7.897 4.64228 10.761V11.511C4.64228 11.659 4.59845 11.803 4.51384 11.927L2.65869 14.656C2.60976 14.728 2.57408 14.806 2.5537 14.89C2.50375 15.084 2.53433 15.286 2.63932 15.458C2.74431 15.63 2.91148 15.751 3.10922 15.8L4.0633 16.034C4.26105 16.082 4.42822 16.204 4.53321 16.375C4.6382 16.547 4.66878 16.749 4.61883 16.943C4.53423 17.277 4.22945 17.511 3.87779 17.511C3.81561 17.511 3.75343 17.503 3.69329 17.489L2.73819 17.255C2.14393 17.109 1.64243 16.745 1.32746 16.229C1.01249 15.713 0.920751 15.109 1.06957 14.526C1.13379 14.275 1.2398 14.039 1.38556 13.824L3.11228 11.284V10.761C3.11228 7.126 5.9256 3.917 9.99165 2.867V2.5C9.99165 1.673 10.6776 1 11.5206 1H14.5786C15.4215 1 16.1075 1.673 16.1075 2.5V2.988C18.4224 3.715 20.3683 5.236 21.6108 7.295C22.9614 9.533 23.3437 12.154 22.6852 14.674C22.0644 17.05 20.509 19.152 18.401 20.472V24.25C18.403 24.663 18.0606 24.999 17.6386 24.999ZM13.0506 11.5C13.4726 11.5 13.8151 11.836 13.8151 12.25C13.8151 13.286 13.6225 14.291 13.2412 15.244C14.8395 15.147 16.1086 13.841 16.1086 12.25C16.1086 10.596 14.7366 9.25 13.0506 9.25C11.3647 9.25 9.99267 10.596 9.99267 12.25C9.99267 13.401 10.6715 14.445 11.7133 14.943C12.0935 14.092 12.2861 13.188 12.2861 12.25C12.2861 11.836 12.6296 11.5 13.0506 11.5ZM13.0506 7.75C13.5766 7.75 14.0893 7.837 14.5796 8.01V2.5H11.5216V8.01C12.0119 7.837 12.5247 7.75 13.0506 7.75Z" fill="black"/>
<path d="M8.46472 25C8.04272 25 7.70023 24.664 7.70023 24.25V22.896L7.56364 22.918C7.35468 22.953 7.14062 22.971 6.92963 22.971C6.6116 22.971 6.29153 22.931 5.97962 22.852C5.5719 22.748 5.32522 22.338 5.43123 21.938C5.51889 21.607 5.82367 21.376 6.17125 21.376C6.23547 21.376 6.29969 21.384 6.36187 21.4C6.5484 21.447 6.73901 21.472 6.92963 21.472C7.05602 21.472 7.18446 21.461 7.31085 21.44L8.34036 21.273C8.38113 21.266 8.42394 21.263 8.46676 21.263C8.64717 21.263 8.8225 21.326 8.9601 21.441C9.13135 21.584 9.23022 21.793 9.23022 22.013V24.252C9.2292 24.664 8.88671 25 8.46472 25Z" fill="black"/>
</svg>
