<svg width="24" height="24" viewBox="0 0 24 24" fill="none" xmlns="http://www.w3.org/2000/svg">
<path d="M17.575 23.999C17.161 23.999 16.825 23.663 16.825 23.249V19.049C16.825 18.782 16.969 18.532 17.201 18.399C19.115 17.298 20.527 15.44 21.075 13.301C21.621 11.169 21.304 8.952 20.183 7.059C19.237 5.462 17.791 4.24 16.074 3.576V7.899C17.03 8.754 17.574 9.966 17.574 11.25C17.574 13.731 15.555 15.75 13.074 15.75C12.888 15.75 12.701 15.738 12.51 15.712C10.996 18.055 8.36199 19.5 5.57399 19.5H4.07399C3.65999 19.5 3.32399 19.164 3.32399 18.75C3.32399 18.336 3.66099 18 4.07399 18H5.57399C7.73499 18 9.73599 16.978 11.01 15.245C9.51599 14.476 8.57399 12.954 8.57399 11.25C8.57399 9.965 9.11799 8.754 10.074 7.899V3.427C6.91399 4.401 4.82499 6.897 4.82499 9.761V10.511C4.82499 10.659 4.78199 10.803 4.69899 10.927L2.87899 13.656C2.83099 13.728 2.79599 13.806 2.77599 13.89C2.72699 14.084 2.75699 14.286 2.85999 14.458C2.96299 14.63 3.12699 14.751 3.32099 14.8L4.25699 15.034C4.45099 15.082 4.61499 15.204 4.71799 15.375C4.82099 15.547 4.85099 15.749 4.80199 15.943C4.71899 16.277 4.41999 16.511 4.07499 16.511C4.01399 16.511 3.95299 16.503 3.89399 16.489L2.95699 16.255C2.37399 16.109 1.88199 15.745 1.57299 15.229C1.26399 14.713 1.17399 14.109 1.31999 13.526C1.38299 13.275 1.48699 13.039 1.62999 12.824L3.32399 10.284V9.761C3.32399 6.126 6.08399 2.917 10.073 1.867V1.5C10.073 0.673 10.746 0 11.573 0H14.573C15.4 0 16.073 0.673 16.073 1.5V1.988C18.344 2.715 20.253 4.236 21.472 6.295C22.797 8.533 23.172 11.154 22.526 13.674C21.917 16.05 20.391 18.152 18.323 19.472V23.25C18.325 23.663 17.989 23.999 17.575 23.999ZM13.074 10.5C13.488 10.5 13.824 10.836 13.824 11.25C13.824 12.286 13.635 13.291 13.261 14.244C14.829 14.147 16.074 12.841 16.074 11.25C16.074 9.596 14.728 8.25 13.074 8.25C11.42 8.25 10.074 9.596 10.074 11.25C10.074 12.401 10.74 13.445 11.762 13.943C12.135 13.092 12.324 12.188 12.324 11.25C12.324 10.836 12.661 10.5 13.074 10.5ZM13.074 6.75C13.59 6.75 14.093 6.837 14.574 7.01V1.5H11.574V7.01C12.055 6.837 12.558 6.75 13.074 6.75Z" fill="black"/>
<path d="M8.57499 24C8.16099 24 7.82499 23.664 7.82499 23.25V21.896L7.69099 21.918C7.48599 21.953 7.27599 21.971 7.06899 21.971C6.75699 21.971 6.44299 21.931 6.13699 21.852C5.73699 21.748 5.49499 21.338 5.59899 20.938C5.68499 20.607 5.98399 20.376 6.32499 20.376C6.38799 20.376 6.45099 20.384 6.51199 20.4C6.69499 20.447 6.88199 20.472 7.06899 20.472C7.19299 20.472 7.31899 20.461 7.44299 20.44L8.45299 20.273C8.49299 20.266 8.53499 20.263 8.57699 20.263C8.75399 20.263 8.92599 20.326 9.06099 20.441C9.22899 20.584 9.32599 20.793 9.32599 21.013V23.252C9.32499 23.664 8.98899 24 8.57499 24Z" fill="black"/>
</svg>
