<svg width="24" height="24" viewBox="0 0 24 24" fill="none" xmlns="http://www.w3.org/2000/svg">
<g clip-path="url(#clip0)">
<path d="M9.86764 24C10.5767 24 11.2421 23.7244 11.7415 23.225L23.2251 11.7415C23.7256 11.2409 24.0012 10.5755 24.0012 9.86642V2.65005C24.0012 1.1884 22.8128 0 21.3512 0L14.1324 0C13.4246 0 12.7591 0.276783 12.2586 0.777347L0.775038 12.2597C0.27565 12.7591 4.3869e-05 13.4245 4.3869e-05 14.1336C4.3869e-05 14.8426 0.27565 15.5081 0.775038 16.0075L7.99258 23.2262C8.49315 23.7256 9.15978 24 9.86764 24ZM21.3512 1.7667C21.8388 1.7667 22.2345 2.16244 22.2345 2.65005V9.8676C22.2345 10.1043 22.1427 10.3258 21.9766 10.493L10.4931 21.9765C10.3258 22.1438 10.1044 22.2345 9.86764 22.2345C9.6309 22.2345 9.40948 22.1426 9.24341 21.9765L2.02468 14.7578C1.68076 14.4139 1.68076 13.8533 2.02468 13.5082L13.5082 2.02581C13.6755 1.85857 13.8969 1.7667 14.1324 1.7667L21.3512 1.7667Z" fill="black"/>
<path d="M17.8178 7.50845C18.548 7.50845 19.1428 6.91366 19.1428 6.18342C19.1428 5.45319 18.548 4.8584 17.8178 4.8584C17.4597 4.85958 17.1276 4.99738 16.8779 5.24825C16.6282 5.49912 16.4916 5.83126 16.4928 6.18578C16.4928 6.91483 17.0876 7.50845 17.8178 7.50845Z" fill="black"/>
</g>
<defs>
<clipPath id="clip0">
<rect width="24" height="24" fill="white" transform="matrix(1 0 0 -1 0 24)"/>
</clipPath>
</defs>
</svg>
