<svg width="24" height="24" viewBox="0 0 24 24" fill="none" xmlns="http://www.w3.org/2000/svg">
<g clip-path="url(#clip0)">
<path d="M19.507 24.006C19.093 24.006 18.757 23.67 18.757 23.256V22.505C18.757 20.437 17.075 18.755 15.007 18.755H13.507C13.093 18.755 12.757 18.419 12.757 18.005V11.255C12.757 10.841 12.421 10.505 12.007 10.505C11.593 10.505 11.257 10.841 11.257 11.255V20.255C11.257 20.564 11.063 20.846 10.774 20.956C10.688 20.988 10.599 21.005 10.508 21.005C10.293 21.005 10.089 20.913 9.947 20.753L8.012 18.575C7.859 18.403 7.639 18.305 7.408 18.305C7.21 18.305 7.02 18.377 6.872 18.508C6.539 18.803 6.509 19.315 6.805 19.648L9.569 22.758C9.702 22.908 9.769 23.1 9.757 23.3C9.745 23.5 9.656 23.684 9.507 23.817C9.369 23.939 9.193 24.006 9.009 24.006C8.795 24.006 8.59 23.914 8.448 23.754L5.684 20.644C5.275 20.184 5.069 19.591 5.105 18.976C5.141 18.361 5.415 17.796 5.876 17.387C6.298 17.012 6.842 16.805 7.408 16.805C8.068 16.805 8.697 17.087 9.133 17.579L9.758 18.283V11.256C9.758 10.015 10.767 9.00604 12.008 9.00604C13.249 9.00604 14.258 10.015 14.258 11.256V17.256H15.008C17.903 17.256 20.258 19.611 20.258 22.506V23.257C20.257 23.669 19.921 24.006 19.507 24.006Z" fill="black"/>
<path d="M8.04195 11.9128C8.25911 11.7918 8.41933 11.5895 8.48736 11.3504C8.5554 11.1113 8.52569 10.8549 8.40477 10.6378C8.05241 10.0023 7.87015 9.28664 7.87563 8.56007C7.88112 7.8335 8.07416 7.12067 8.43607 6.49062C8.79797 5.86057 9.31646 5.33467 9.94132 4.96387C10.5662 4.59307 11.2762 4.38994 12.0026 4.37416C12.729 4.35837 13.4472 4.53047 14.0876 4.87378C14.728 5.21709 15.2688 5.71997 15.6577 6.3337C16.0467 6.94744 16.2705 7.65122 16.3075 8.37686C16.3446 9.10251 16.1936 9.82542 15.8691 10.4756C15.814 10.5857 15.7812 10.7056 15.7724 10.8284C15.7637 10.9512 15.7792 11.0746 15.8181 11.1914C15.857 11.3082 15.9186 11.4163 15.9992 11.5093C16.0799 11.6024 16.1781 11.6786 16.2882 11.7337C16.3983 11.7888 16.5182 11.8216 16.6411 11.8304C16.7639 11.8392 16.8872 11.8236 17.0041 11.7847C17.1209 11.7458 17.2289 11.6843 17.3219 11.6036C17.415 11.5229 17.4912 11.4248 17.5463 11.3146C18.015 10.3755 18.2331 9.33122 18.1796 8.28301C18.1261 7.2348 17.8027 6.21819 17.2408 5.33166C16.679 4.44514 15.8977 3.71876 14.9726 3.22291C14.0476 2.72706 13.0101 2.47855 11.9608 2.50145C10.9115 2.52435 9.88583 2.8179 8.98329 3.35364C8.08074 3.88938 7.33187 4.64915 6.80923 5.55934C6.28659 6.46954 6.0079 7.4993 6.00017 8.54884C5.99243 9.59839 6.25591 10.6321 6.76508 11.5499C6.88819 11.7654 7.09081 11.924 7.3295 11.9918C7.56819 12.0597 7.82395 12.0313 8.04195 11.9128Z" fill="#29D305"/>
</g>
<defs>
<clipPath id="clip0">
<path d="M0 0H24V24H0V0Z" fill="white"/>
</clipPath>
</defs>
</svg>
