<svg width="24" height="24" viewBox="0 0 24 24" fill="none" xmlns="http://www.w3.org/2000/svg">
<g clip-path="url(#clip0)">
<path fill-rule="evenodd" clip-rule="evenodd" d="M1.51368 0.531283C1.37804 0.124346 0.938188 -0.095578 0.531252 0.0400673C0.124316 0.175713 -0.0956085 0.615562 0.0400368 1.0225C0.596729 2.69257 1.81924 4.71344 3.17217 6.46234C4.12246 7.69076 5.18452 8.84658 6.18719 9.67487C6.12943 9.76147 6.08085 9.85513 6.04252 9.95471C5.90554 10.3079 5.91513 10.6934 6.0683 11.0389C6.18783 11.3072 6.3921 11.5363 6.64535 11.6855L1.87057 13.7017C1.52237 13.8479 1.25163 14.1209 1.10841 14.4718C0.965658 14.8218 0.966808 15.2068 1.11309 15.555C1.23457 15.8449 1.45293 16.0894 1.7292 16.244L6.65006 18.997L5.61198 20.8525C5.42098 21.1939 5.54305 21.626 5.88447 21.817C6.22588 22.008 6.658 21.886 6.849 21.5446L7.88569 19.6915L12.8074 22.4449C13.1364 22.629 13.5177 22.6734 13.8807 22.5722C14.2455 22.4699 14.5476 22.2318 14.7329 21.9023C14.8879 21.6274 14.9468 21.3052 14.8991 20.9937L14.1201 15.8694C14.7994 16.2289 15.6477 15.9802 16.0235 15.3047C16.1703 15.0403 16.2296 14.7292 16.1898 14.4286L15.9508 12.6482C17.0241 12.6326 18.2843 12.3934 19.6017 11.5705C21.4999 10.3849 23.1825 8.10229 24.0741 3.99961C24.1652 3.58045 23.8993 3.1668 23.4801 3.0757C23.061 2.9846 22.6473 3.25055 22.5562 3.66971C21.7257 7.49082 20.2242 9.35033 18.7788 10.2531C17.7466 10.8978 16.6715 11.0998 15.7451 11.1153L15.6241 10.2141L15.7066 10.2602C16.3886 10.6418 17.2541 10.3973 17.6356 9.71527C17.7731 9.46951 17.8338 9.19269 17.8117 8.91287L17.4001 3.6487C17.3628 3.17526 17.0926 2.75446 16.677 2.52193C16.432 2.38491 16.1544 2.32378 15.8733 2.34626C15.6864 2.36085 15.5077 2.41135 15.3408 2.49667L10.6399 4.89954C10.3024 5.07127 10.0527 5.3647 9.93651 5.72524C9.82034 6.08579 9.85114 6.47009 10.0233 6.8068C10.1533 7.06032 10.343 7.2574 10.5957 7.39986L10.6781 7.446L7.68029 8.77479C6.90935 8.12149 5.35498 6.74533 4.40081 5.51189C3.10009 3.83046 1.99256 1.96792 1.51368 0.531283ZM7.42324 10.4976C7.47229 10.4683 7.57002 10.4074 7.68084 10.3242L12.5476 8.167C12.795 8.05751 12.9562 7.82173 12.9687 7.55156C12.9808 7.28221 12.8422 7.03252 12.6064 6.90057L11.2852 6.16146L15.9875 3.75822L16.3995 9.02157L15.0801 8.28338C14.8442 8.15143 14.5576 8.16435 14.3352 8.31605C14.1128 8.46774 13.9962 8.72843 14.0316 8.99617L14.7859 14.6156L13.5489 13.9235C13.3147 13.7925 13.02 13.8063 12.7993 13.9589C12.5785 14.1115 12.4619 14.3819 12.5024 14.6482L13.5013 21.2046L2.42125 15.007L8.53159 12.4268C8.77925 12.3228 8.94866 12.0819 8.96369 11.8131C8.97825 11.5451 8.83584 11.2868 8.60163 11.1558L8.60117 11.1566L7.42324 10.4976Z" fill="black"/>
</g>
<defs>
<clipPath id="clip0">
<path d="M0 0H24V24H0V0Z" fill="white"/>
</clipPath>
</defs>
</svg>
