<svg width="24" height="24" viewBox="0 0 24 24" fill="none" xmlns="http://www.w3.org/2000/svg">
<path d="M8.25 24C7.009 24 6 22.991 6 21.75V11.25C6 10.009 7.009 9 8.25 9H10.5V6C10.5 3.519 8.481 1.5 6 1.5C3.519 1.5 1.5 3.519 1.5 6V9.75C1.5 10.164 1.164 10.5 0.75 10.5C0.336 10.5 0 10.164 0 9.75V6C0 2.692 2.692 0 6 0C9.308 0 12 2.692 12 6V9H21.75C22.991 9 24 10.009 24 11.25V21.75C24 22.991 22.991 24 21.75 24H8.25ZM8.25 10.5C7.836 10.5 7.5 10.836 7.5 11.25V21.75C7.5 22.164 7.836 22.5 8.25 22.5H21.75C22.164 22.5 22.5 22.164 22.5 21.75V11.25C22.5 10.836 22.164 10.5 21.75 10.5H8.25Z" fill="black"/>
<path d="M15 18.75C14.586 18.75 14.25 18.414 14.25 18V15C14.25 14.586 14.586 14.25 15 14.25C15.414 14.25 15.75 14.586 15.75 15V18C15.75 18.414 15.414 18.75 15 18.75Z" fill="black"/>
</svg>
