<svg width="24" height="25" fill="none" xmlns="http://www.w3.org/2000/svg"><path d="M12.001 16.519a.75.75 0 01-.75-.75V5.566L8.031 8.79a.745.745 0 01-1.06 0 .744.744 0 01-.22-.532c0-.2.078-.389.22-.53l4.499-4.505a.74.74 0 01.245-.163l.025-.01a.743.743 0 01.522 0l.02.008c.097.04.179.095.25.166l4.499 4.504c.142.141.22.33.22.53s-.078.39-.22.531a.748.748 0 01-1.06 0l-3.22-3.224v10.202a.75.75 0 01-.75.751z" fill="#1B314B"/><path d="M3.751 21.024a3.756 3.756 0 01-3.75-3.754v-1.502a.75.75 0 111.5 0v1.502a2.253 2.253 0 002.25 2.252h16.5c1.241 0 2.25-1.01 2.25-2.252v-1.502a.75.75 0 111.5 0v1.502a3.756 3.756 0 01-3.75 3.754h-16.5z" fill="#1B314B"/></svg>