<svg width="24" height="24" viewBox="0 0 24 24" fill="none" xmlns="http://www.w3.org/2000/svg">
<path d="M12.001 16.5C11.587 16.5 11.251 16.164 11.251 15.75V5.561L8.03101 8.781C7.89001 8.922 7.70101 9 7.50101 9C7.30101 9 7.11201 8.922 6.97101 8.78C6.82901 8.639 6.75101 8.45 6.75101 8.25C6.75101 8.05 6.82901 7.861 6.97101 7.72L11.47 3.22C11.54 3.15 11.622 3.095 11.715 3.057C11.723 3.054 11.731 3.051 11.74 3.048C11.826 3.016 11.913 3 12.001 3C12.09 3 12.178 3.016 12.262 3.048C12.269 3.05 12.276 3.053 12.282 3.055C12.379 3.095 12.461 3.15 12.532 3.221L17.031 7.72C17.173 7.861 17.251 8.05 17.251 8.25C17.251 8.45 17.173 8.639 17.031 8.78C16.889 8.921 16.701 9 16.501 9C16.301 9 16.112 8.922 15.971 8.78L12.751 5.56V15.75C12.751 16.164 12.415 16.5 12.001 16.5Z" fill="black"/>
<path d="M3.75101 21C1.68301 21 0.00100708 19.318 0.00100708 17.25V15.75C0.00100708 15.336 0.337007 15 0.751007 15C1.16501 15 1.50101 15.336 1.50101 15.75V17.25C1.50101 18.491 2.51001 19.5 3.75101 19.5H20.251C21.492 19.5 22.501 18.491 22.501 17.25V15.75C22.501 15.336 22.837 15 23.251 15C23.665 15 24.001 15.336 24.001 15.75V17.25C24.001 19.318 22.319 21 20.251 21H3.75101Z" fill="black"/>
</svg>
