<svg width="24" height="25" fill="none" xmlns="http://www.w3.org/2000/svg"><path fill-rule="evenodd" clip-rule="evenodd" d="M2.782 19.712a15.919 15.919 0 019.239-2.938c3.425 0 6.601 1.078 9.205 2.914a1.002 1.002 0 01-1.152 1.637 13.92 13.92 0 00-8.053-2.55c-3.013 0-5.8.952-8.083 2.571a1.002 1.002 0 01-1.156-1.634zm9.238-6.943c1.658 0 3-1.345 3-3.003a3.002 3.002 0 00-3-3.004c-1.656 0-3 1.345-3 3.004a3.002 3.002 0 003 3.003zm5-3.003a5.003 5.003 0 01-5 5.005c-2.76 0-5-2.24-5-5.005a5.003 5.003 0 015-5.006c2.762 0 5 2.241 5 5.006z" fill="#1B314B"/></svg>