<svg width="40" height="40" viewBox="0 0 40 40" fill="none" xmlns="http://www.w3.org/2000/svg">
<path fill-rule="evenodd" clip-rule="evenodd" d="M11.0983 2.59835C11.8016 1.89509 12.7554 1.5 13.75 1.5H26.25C27.2446 1.5 28.1984 1.89509 28.9016 2.59835C29.6049 3.30161 30 4.25544 30 5.25V10.25C30 10.9404 29.4404 11.5 28.75 11.5C28.0596 11.5 27.5 10.9404 27.5 10.25V5.25C27.5 4.91848 27.3683 4.60054 27.1339 4.36612C26.8995 4.1317 26.5815 4 26.25 4H13.75C13.4185 4 13.1005 4.1317 12.8661 4.36612C12.6317 4.60054 12.5 4.91848 12.5 5.25V10.25C12.5 10.9404 11.9404 11.5 11.25 11.5C10.5596 11.5 10 10.9404 10 10.25V5.25C10 4.25544 10.3951 3.30161 11.0983 2.59835Z" fill="black"/>
<path fill-rule="evenodd" clip-rule="evenodd" d="M2.91667 13.5C2.68655 13.5 2.5 13.6865 2.5 13.9167V35.5833C2.5 35.8135 2.68655 36 2.91667 36H37.0833C37.3135 36 37.5 35.8135 37.5 35.5833V13.9167C37.5 13.6865 37.3135 13.5 37.0833 13.5H2.91667ZM0 13.9167C0 12.3058 1.30584 11 2.91667 11H37.0833C38.6942 11 40 12.3058 40 13.9167V35.5833C40 37.1942 38.6942 38.5 37.0833 38.5H2.91667C1.30584 38.5 0 37.1942 0 35.5833V13.9167Z" fill="black"/>
<path d="M11.4471 32.8099L11.4471 32.8099C10.5216 31.8911 10.5168 30.3927 11.4376 29.4683L11.4383 29.4676L14.7778 26.1414L14.7779 26.1412C15.0258 25.8947 15.3561 25.759 15.7057 25.759C16.0553 25.759 16.3856 25.8947 16.6334 26.1411C16.6334 26.1412 16.6335 26.1412 16.6335 26.1412L16.7706 26.2774L20.8744 22.3168L19.1856 20.6374C19.1856 20.6373 19.1855 20.6373 19.1855 20.6372C18.4664 19.9236 18.4642 18.7588 19.1789 18.0414L19.1797 18.0406L20.6869 16.5408C20.6869 16.5408 20.6869 16.5408 20.6869 16.5408C21.0349 16.1944 21.4986 16.0034 21.9916 16.0034C22.4829 16.0034 22.9466 16.1935 23.2941 16.5393C23.2941 16.5393 23.2941 16.5394 23.2941 16.5394L27.7085 20.9298C28.0563 21.2752 28.2491 21.736 28.25 22.2259C28.25 22.226 28.25 22.2262 28.25 22.2263L28 22.2267C28.0014 22.6502 27.8368 23.0489 27.5373 23.3492L11.4471 32.8099ZM11.4471 32.8099C11.8951 33.2545 12.4921 33.5 13.1255 33.5C13.7595 33.5 14.3567 33.2546 14.8041 32.8097L14.8042 32.8096L18.1086 29.5177C18.1212 29.5062 18.135 29.4927 18.1382 29.4895L18.1385 29.4892C18.3855 29.2419 18.5217 28.9121 18.5217 28.5634C18.5217 28.2133 18.3843 27.8842 18.1368 27.6372L18.1365 27.6369L17.8789 27.3806M11.4471 32.8099L17.8789 27.3806M17.8789 27.3806L21.9825 23.4202L23.5992 25.0284C23.5992 25.0284 23.5992 25.0284 23.5993 25.0284L17.8789 27.3806ZM16.8538 28.5618L16.6204 28.3309L16.2064 27.9213L16.2061 27.921L15.7058 27.4233L12.5518 30.5655C12.5517 30.5656 12.5515 30.5658 12.5514 30.5659C12.2367 30.882 12.2381 31.3922 12.55 31.7014L12.5503 31.7017C12.7032 31.8538 12.9065 31.9377 13.1255 31.9377C13.3444 31.9377 13.5477 31.8538 13.7006 31.7018L16.8538 28.5618ZM16.8538 28.5618L13.7007 31.7017L16.8538 28.5618ZM20.2892 19.5302L20.2895 19.5306L24.7041 23.9212L24.7044 23.9215C24.7568 23.9737 24.8264 24.0028 24.9039 24.0028C24.9814 24.0028 25.051 23.9737 25.1034 23.9215L25.1035 23.9213L26.6044 22.4257L20.2892 19.5302ZM20.2892 19.5302C20.2372 19.4788 20.2092 19.4117 20.2092 19.3382C20.2092 19.2643 20.2377 19.1952 20.2908 19.1416L20.2892 19.5302Z" fill="black" stroke="black" stroke-width="0.5"/>
<path d="M27 28L28.8125 30.6831" stroke="#29D305" stroke-width="2" stroke-linecap="round" stroke-linejoin="round"/>
<path d="M30 26L33 27" stroke="#29D305" stroke-width="2" stroke-linecap="round" stroke-linejoin="round"/>
<path d="M23.8984 28L23 31.3235" stroke="#29D305" stroke-width="2" stroke-linecap="round" stroke-linejoin="round"/>
</svg>
