<svg width="25" height="25" viewBox="0 0 25 25" fill="none" xmlns="http://www.w3.org/2000/svg">
<path d="M11.842 19.5213C7.50901 19.5213 3.20601 16.4778 0.623012 13.6306C-0.207988 12.7065 -0.207988 11.3159 0.621012 10.3949C3.20501 7.54663 7.51301 4.50515 11.855 4.50515C11.906 4.50515 11.955 4.50515 12.006 4.50615C12.048 4.50515 12.103 4.50515 12.159 4.50515C16.487 4.50515 20.793 7.54663 23.378 10.3929C24.209 11.3169 24.21 12.7075 23.38 13.6296C20.794 16.4788 16.483 19.5223 12.135 19.5223L11.986 19.5213H11.842ZM11.853 6.00587C8.00201 6.00587 4.10001 8.79305 1.73301 11.402C1.42101 11.7484 1.42101 12.274 1.73501 12.6234C4.10101 15.2314 8.00201 18.0196 11.855 18.0196L11.986 18.0186L12.122 18.0196C15.989 18.0196 19.898 15.2314 22.267 12.6214C22.579 12.275 22.579 11.7494 22.265 11.4C19.897 8.79305 15.993 6.00687 12.142 6.00687C12.142 6.00687 11.988 6.00787 11.986 6.00787L11.853 6.00587Z" fill="black"/>
<path d="M11.998 16.5169C10.796 16.5169 9.66602 16.0473 8.81602 15.1964C7.96602 14.3454 7.49803 13.2141 7.49903 12.0107C7.49903 9.52688 9.51802 7.50657 11.999 7.50657C13.201 7.50657 14.331 7.9751 15.181 8.82508C16.031 9.67605 16.499 10.8063 16.499 12.0097C16.499 13.2171 16.03 14.3474 15.18 15.1984C14.33 16.0483 13.201 16.5169 11.999 16.5169H11.998ZM12 9.00829C10.346 9.00829 9.00002 10.3548 9.00002 12.0107C9.00002 12.8126 9.31203 13.5675 9.87803 14.1341C10.445 14.7018 11.198 15.0142 11.999 15.0142C12.801 15.0142 13.554 14.7018 14.12 14.1351C14.686 13.5685 14.999 12.8136 14.999 12.0117C14.999 11.2068 14.687 10.4529 14.12 9.88629C13.554 9.32064 12.801 9.00829 12 9.00829Z" fill="black"/>
</svg>
