<svg width="25" height="25" viewBox="0 0 25 25" fill="none" xmlns="http://www.w3.org/2000/svg">
<path d="M2.78299 21.7749C2.57999 21.7749 2.38299 21.6908 2.24199 21.5446C2.10299 21.3995 2.02899 21.2102 2.03299 21.009C2.03699 20.8088 2.11899 20.6216 2.26399 20.4824L21.014 2.46182C21.154 2.32666 21.339 2.25258 21.533 2.25258C21.736 2.25258 21.933 2.33667 22.074 2.48384C22.213 2.62801 22.287 2.81823 22.283 3.01946C22.279 3.21968 22.197 3.4069 22.053 3.54606L3.30299 21.5667C3.16199 21.7008 2.97699 21.7749 2.78299 21.7749Z" fill="black"/>
<path d="M11.988 20.2732L11.878 20.2742C10.83 20.2742 9.775 20.111 8.741 19.7906C8.346 19.6675 8.125 19.246 8.247 18.8516C8.345 18.5352 8.633 18.323 8.964 18.323C9.039 18.323 9.114 18.334 9.186 18.357C10.074 18.6333 10.986 18.7735 11.895 18.7735L12.144 18.7745C15.997 18.7745 19.9 15.9853 22.269 13.3753C22.581 13.0289 22.581 12.5033 22.267 12.1539C21.376 11.1748 20.38 10.2808 19.308 9.49787C19.146 9.37974 19.04 9.20554 19.009 9.00731C18.978 8.80908 19.026 8.61086 19.144 8.44867C19.285 8.25545 19.511 8.14032 19.75 8.14032C19.909 8.14032 20.062 8.19038 20.192 8.28448C21.345 9.12645 22.417 10.0895 23.379 11.1458C24.211 12.0698 24.211 13.4604 23.382 14.3825C20.796 17.2317 16.487 20.2752 12.145 20.2752L11.988 20.2732Z" fill="black"/>
<path d="M3.778 17.0305C3.612 17.0305 3.449 16.9744 3.318 16.8723C2.355 16.1234 1.449 15.2865 0.624995 14.3834C-0.207005 13.4584 -0.208005 12.0678 0.621995 11.1457C3.20799 8.29748 7.51799 5.255 11.858 5.255L12.095 5.25601C12.941 5.25601 13.782 5.35812 14.595 5.56135C14.996 5.66147 15.241 6.06894 15.142 6.4714C15.059 6.80678 14.759 7.04105 14.414 7.04105C14.353 7.04105 14.292 7.03304 14.232 7.01902C13.538 6.84582 12.822 6.75872 12.103 6.75872H11.874C8.01099 6.75872 4.103 9.54691 1.734 12.1559C1.422 12.5023 1.422 13.0279 1.736 13.3773C2.499 14.2132 3.342 14.9921 4.239 15.6899C4.397 15.8131 4.49799 15.9903 4.52299 16.1895C4.54799 16.3887 4.494 16.585 4.371 16.7431C4.228 16.9243 4.012 17.0305 3.778 17.0305Z" fill="black"/>
<path d="M8.25 13.5155C7.837 13.5155 7.5 13.1791 7.5 12.7646C7.5 11.5632 7.968 10.4329 8.818 9.58096C9.668 8.72898 10.797 8.25945 11.997 8.25945C12.204 8.25945 12.371 8.42664 12.372 8.63387L12.374 9.38473C12.374 9.48485 12.335 9.57996 12.265 9.65104C12.195 9.72212 12.1 9.76116 12 9.76116C11.199 9.76116 10.446 10.0745 9.879 10.6422C9.312 11.2098 9 11.9637 9 12.7646C9 12.9648 8.922 13.153 8.781 13.2952C8.639 13.4374 8.45 13.5155 8.25 13.5155Z" fill="black"/>
<path d="M12.001 17.2697C11.794 17.2697 11.626 17.1025 11.626 16.8943L11.625 16.1434C11.625 16.0443 11.664 15.9482 11.735 15.8781C11.805 15.8071 11.901 15.768 12 15.768C12.802 15.768 13.555 15.4557 14.122 14.888C14.688 14.3204 15 13.5655 15 12.7636C15 12.3491 15.336 12.0127 15.75 12.0127C16.164 12.0127 16.5 12.3491 16.5 12.7636C16.5 13.967 16.033 15.0983 15.183 15.9492C14.333 16.8002 13.203 17.2697 12.001 17.2697Z" fill="black"/>
</svg>
