<svg width="25" height="24" viewBox="0 0 25 24" fill="none" xmlns="http://www.w3.org/2000/svg">
<path d="M2.78275 21.75C2.57975 21.75 2.38275 21.666 2.24175 21.52C2.10275 21.375 2.02875 21.186 2.03275 20.985C2.03675 20.785 2.11875 20.598 2.26375 20.459L21.0138 2.459C21.1538 2.324 21.3388 2.25 21.5328 2.25C21.7358 2.25 21.9328 2.334 22.0738 2.481C22.2128 2.625 22.2868 2.815 22.2828 3.016C22.2788 3.216 22.1968 3.403 22.0528 3.542L3.30275 21.542C3.16175 21.676 2.97675 21.75 2.78275 21.75Z" fill="black"/>
<path d="M11.9878 20.25L11.8778 20.251C10.8298 20.251 9.77476 20.088 8.74076 19.768C8.34576 19.645 8.12476 19.224 8.24676 18.83C8.34476 18.514 8.63276 18.302 8.96376 18.302C9.03876 18.302 9.11376 18.313 9.18576 18.336C10.0738 18.612 10.9858 18.752 11.8948 18.752L12.1438 18.753C15.9968 18.753 19.8998 15.967 22.2688 13.36C22.5808 13.014 22.5808 12.489 22.2668 12.14C21.3758 11.162 20.3798 10.269 19.3078 9.48701C19.1458 9.36901 19.0398 9.19501 19.0088 8.99701C18.9778 8.79901 19.0258 8.60101 19.1438 8.43901C19.2848 8.24601 19.5108 8.13101 19.7498 8.13101C19.9088 8.13101 20.0618 8.18101 20.1918 8.27501C21.3448 9.11601 22.4168 10.078 23.3788 11.133C24.2108 12.056 24.2108 13.445 23.3818 14.366C20.7958 17.212 16.4868 20.252 12.1448 20.252L11.9878 20.25Z" fill="black"/>
<path d="M3.77775 17.011C3.61175 17.011 3.44875 16.955 3.31775 16.853C2.35475 16.105 1.44875 15.269 0.624751 14.367C-0.207249 13.443 -0.208249 12.054 0.621751 11.133C3.20775 8.28799 7.51775 5.24899 11.8578 5.24899L12.0948 5.24999C12.9408 5.24999 13.7818 5.35199 14.5948 5.55499C14.9958 5.65499 15.2408 6.06199 15.1418 6.46399C15.0588 6.79899 14.7588 7.03299 14.4138 7.03299C14.3528 7.03299 14.2918 7.02499 14.2318 7.01099C13.5378 6.83799 12.8218 6.75099 12.1028 6.75099H11.8738C8.01075 6.75099 4.10275 9.53599 1.73375 12.142C1.42175 12.488 1.42175 13.013 1.73575 13.362C2.49875 14.197 3.34175 14.975 4.23875 15.672C4.39675 15.795 4.49775 15.972 4.52275 16.171C4.54775 16.37 4.49375 16.566 4.37075 16.724C4.22775 16.905 4.01175 17.011 3.77775 17.011Z" fill="black"/>
<path d="M8.24976 13.5C7.83676 13.5 7.49976 13.164 7.49976 12.75C7.49976 11.55 7.96776 10.421 8.81776 9.57C9.66776 8.719 10.7968 8.25 11.9968 8.25C12.2038 8.25 12.3708 8.417 12.3718 8.624L12.3738 9.374C12.3738 9.474 12.3348 9.569 12.2648 9.64C12.1948 9.711 12.0998 9.75 11.9998 9.75C11.1988 9.75 10.4458 10.063 9.87876 10.63C9.31176 11.197 8.99976 11.95 8.99976 12.75C8.99976 12.95 8.92176 13.138 8.78076 13.28C8.63876 13.422 8.44976 13.5 8.24976 13.5Z" fill="black"/>
<path d="M12.0008 17.25C11.7938 17.25 11.6258 17.083 11.6258 16.875L11.6248 16.125C11.6248 16.026 11.6638 15.93 11.7348 15.86C11.8048 15.789 11.9008 15.75 11.9998 15.75C12.8018 15.75 13.5548 15.438 14.1218 14.871C14.6878 14.304 14.9998 13.55 14.9998 12.749C14.9998 12.335 15.3358 11.999 15.7498 11.999C16.1638 11.999 16.4998 12.335 16.4998 12.749C16.4998 13.951 16.0328 15.081 15.1828 15.931C14.3328 16.781 13.2028 17.25 12.0008 17.25Z" fill="black"/>
</svg>
