<svg width="24" height="24" viewBox="0 0 24 24" fill="none" xmlns="http://www.w3.org/2000/svg">
<g clip-path="url(#clip0)">
<path d="M11.842 19.499C7.50901 19.499 3.20601 16.459 0.623012 13.615C-0.207988 12.692 -0.207988 11.303 0.621012 10.383C3.20501 7.538 7.51301 4.5 11.855 4.5C11.906 4.5 11.955 4.5 12.006 4.501C12.048 4.5 12.103 4.5 12.159 4.5C16.487 4.5 20.793 7.538 23.378 10.381C24.209 11.304 24.21 12.693 23.38 13.614C20.794 16.46 16.483 19.5 12.135 19.5L11.986 19.499H11.842ZM11.853 5.999C8.00201 5.999 4.10001 8.783 1.73301 11.389C1.42101 11.735 1.42101 12.26 1.73501 12.609C4.10101 15.214 8.00201 17.999 11.855 17.999L11.986 17.998L12.122 17.999C15.989 17.999 19.898 15.214 22.267 12.607C22.579 12.261 22.579 11.736 22.265 11.387C19.897 8.783 15.993 6 12.142 6C12.142 6 11.988 6.001 11.986 6.001L11.853 5.999Z" fill="black"/>
<path d="M11.998 16.498C10.796 16.498 9.66602 16.029 8.81602 15.179C7.96602 14.329 7.49803 13.199 7.49903 11.997C7.49903 9.51599 9.51802 7.49799 11.999 7.49799C13.201 7.49799 14.331 7.96599 15.181 8.81499C16.031 9.66499 16.499 10.794 16.499 11.996C16.499 13.202 16.03 14.331 15.18 15.181C14.33 16.03 13.201 16.498 11.999 16.498H11.998ZM12 8.99799C10.346 8.99799 9.00002 10.343 9.00002 11.997C9.00002 12.798 9.31203 13.552 9.87803 14.118C10.445 14.685 11.198 14.997 11.999 14.997C12.801 14.997 13.554 14.685 14.12 14.119C14.686 13.553 14.999 12.799 14.999 11.998C14.999 11.194 14.687 10.441 14.12 9.87499C13.554 9.30999 12.801 8.99799 12 8.99799Z" fill="black"/>
</g>
<defs>
<clipPath id="clip0">
<path d="M0 0H24V24H0V0Z" fill="white"/>
</clipPath>
</defs>
</svg>
