<svg width="24" height="24" viewBox="0 0 24 24" fill="none" xmlns="http://www.w3.org/2000/svg">
<path fill-rule="evenodd" clip-rule="evenodd" d="M7.52148 21.2117C7.52148 22.198 8.25472 23 9.15655 23H22.2371C23.1389 23 23.8722 22.198 23.8722 21.2117V8.00403C23.8722 7.52476 23.692 7.05819 23.3788 6.72357L21.2321 4.43209C20.9247 4.10462 20.5199 3.92419 20.0897 3.92419H9.15655C8.25472 3.92419 7.52148 4.72617 7.52148 5.71255V21.2117ZM8.61153 5.71255C8.61153 5.38349 8.8557 5.11643 9.15655 5.11643H20.0904C20.2336 5.11643 20.368 5.17684 20.4705 5.28573L22.6172 7.57721C22.7218 7.68849 22.7821 7.84427 22.7821 8.00403V21.2117C22.7821 21.5407 22.538 21.8078 22.2371 21.8078H9.15655C8.8557 21.8078 8.61153 21.5407 8.61153 21.2117V5.71255ZM10.824 10.4808C10.824 10.8094 11.0681 11.0762 11.369 11.0762H20.0894C20.3895 11.0762 20.6344 10.8094 20.6344 10.4808C20.6344 10.1521 20.3902 9.88531 20.0894 9.88531H11.369C11.0681 9.88531 10.824 10.1521 10.824 10.4808ZM11.369 14.653C11.0681 14.653 10.824 14.3862 10.824 14.0575C10.824 13.7289 11.0681 13.4621 11.369 13.4621H20.0894C20.3902 13.4621 20.6344 13.7289 20.6344 14.0575C20.6344 14.3862 20.3902 14.653 20.0894 14.653H11.369ZM10.824 17.6343C10.824 17.9629 11.0681 18.2297 11.369 18.2297H15.7292C16.0293 18.2297 16.2742 17.9629 16.2742 17.6343C16.2742 17.3056 16.0293 17.0388 15.7292 17.0388H11.369C11.0681 17.0388 10.824 17.3056 10.824 17.6343Z" fill="black"/>
<path d="M3.59256 6.20425C3.23403 6.20425 2.94305 5.91326 2.94305 5.55473C2.94305 5.1962 3.2349 4.90521 3.59256 4.90521C3.95023 4.90521 4.53263 4.90521 4.89116 4.90521C5.2497 4.90521 5.54068 5.1962 5.54068 5.55473C5.54068 5.91326 5.2497 6.20425 4.89116 6.20425C4.53263 6.20425 3.59256 6.20425 3.59256 6.20425Z" fill="#29D305"/>
<path d="M3.59256 10.1284C3.23403 10.1284 2.94305 9.83743 2.94305 9.47889C2.94305 9.12036 3.2349 8.82938 3.59256 8.82938C3.95023 8.82938 4.53263 8.82938 4.89116 8.82938C5.2497 8.82938 5.54068 9.12036 5.54068 9.47889C5.54068 9.83743 5.2497 10.1284 4.89116 10.1284C4.53263 10.1284 3.59256 10.1284 3.59256 10.1284Z" fill="#29D305"/>
<path d="M3.59256 14.0526C3.23403 14.0526 2.94305 13.7616 2.94305 13.4031C2.94305 13.0445 3.2349 12.7535 3.59256 12.7535C3.95023 12.7535 4.53263 12.7535 4.89116 12.7535C5.2497 12.7535 5.54068 13.0445 5.54068 13.4031C5.54068 13.7616 5.2497 14.0526 4.89116 14.0526C4.53263 14.0526 3.59256 14.0526 3.59256 14.0526Z" fill="#29D305"/>
<path fill-rule="evenodd" clip-rule="evenodd" d="M1.96208 1.26134C1.78862 1.26134 1.62227 1.32779 1.49961 1.44606C1.37696 1.56433 1.30805 1.72475 1.30805 1.89201V15.7667C1.30805 15.934 1.37696 16.0944 1.49961 16.2127C1.62227 16.331 1.78862 16.3974 1.96208 16.3974H5.72275C6.08396 16.3974 6.37677 16.6798 6.37677 17.0281C6.37677 17.3764 6.08396 17.6588 5.72275 17.6588H1.96208C1.4417 17.6588 0.942641 17.4594 0.57468 17.1046C0.206719 16.7498 0 16.2685 0 15.7667V1.89201C0 1.39022 0.206719 0.908977 0.57468 0.554157C0.942642 0.199336 1.4417 0 1.96208 0H11.231C11.751 0.000107059 12.2498 0.199269 12.6176 0.553728C12.6339 0.569384 12.6493 0.585854 12.6637 0.60307L13.5889 1.70548C13.8162 1.97623 13.7728 2.37335 13.492 2.59247C13.2112 2.81159 12.7994 2.76973 12.5721 2.49898L11.6723 1.42686C11.5521 1.32068 11.3947 1.26141 11.231 1.26134H1.96208Z" fill="black"/>
</svg>
