<svg width="24" height="24" viewBox="0 0 24 24" fill="none" xmlns="http://www.w3.org/2000/svg">
<path fill-rule="evenodd" clip-rule="evenodd" d="M7.56175 21.7117C7.56175 22.698 8.29892 23.5 9.20558 23.5H22.3562C23.2628 23.5 24 22.698 24 21.7117V8.50403C24 8.02476 23.8188 7.55819 23.5039 7.22357L21.3458 4.93209C21.0367 4.60462 20.6298 4.42419 20.1973 4.42419H9.20558C8.29892 4.42419 7.56175 5.22617 7.56175 6.21255V21.7117ZM8.65764 6.21255C8.65764 5.88349 8.90311 5.61643 9.20558 5.61643H20.198C20.3419 5.61643 20.4771 5.67684 20.5801 5.78573L22.7383 8.07721C22.8435 8.18849 22.9041 8.34427 22.9041 8.50403V21.7117C22.9041 22.0407 22.6586 22.3078 22.3562 22.3078H9.20558C8.90311 22.3078 8.65764 22.0407 8.65764 21.7117V6.21255ZM10.8819 10.9808C10.8819 11.3094 11.1274 11.5762 11.4299 11.5762H20.1969C20.4987 11.5762 20.7449 11.3094 20.7449 10.9808C20.7449 10.6521 20.4994 10.3853 20.1969 10.3853H11.4299C11.1274 10.3853 10.8819 10.6521 10.8819 10.9808ZM11.4299 15.153C11.1274 15.153 10.8819 14.8862 10.8819 14.5575C10.8819 14.2289 11.1274 13.9621 11.4299 13.9621H20.1969C20.4994 13.9621 20.7449 14.2289 20.7449 14.5575C20.7449 14.8862 20.4994 15.153 20.1969 15.153H11.4299ZM10.8819 18.1343C10.8819 18.4629 11.1274 18.7297 11.4299 18.7297H15.8134C16.1151 18.7297 16.3613 18.4629 16.3613 18.1343C16.3613 17.8056 16.1151 17.5388 15.8134 17.5388H11.4299C11.1274 17.5388 10.8819 17.8056 10.8819 18.1343Z" fill="black"/>
<path d="M3.6118 6.70425C3.25134 6.70425 2.9588 6.41326 2.9588 6.05473C2.9588 5.6962 3.25221 5.40521 3.6118 5.40521C3.97138 5.40521 4.55689 5.40521 4.91735 5.40521C5.2778 5.40521 5.57034 5.6962 5.57034 6.05473C5.57034 6.41326 5.2778 6.70425 4.91735 6.70425C4.55689 6.70425 3.6118 6.70425 3.6118 6.70425Z" fill="#29D305"/>
<path d="M3.6118 10.6284C3.25134 10.6284 2.9588 10.3374 2.9588 9.97886C2.9588 9.62033 3.25221 9.32935 3.6118 9.32935C3.97138 9.32935 4.55689 9.32935 4.91735 9.32935C5.2778 9.32935 5.57034 9.62033 5.57034 9.97886C5.57034 10.3374 5.2778 10.6284 4.91735 10.6284C4.55689 10.6284 3.6118 10.6284 3.6118 10.6284Z" fill="#29D305"/>
<path d="M3.6118 14.5526C3.25134 14.5526 2.9588 14.2616 2.9588 13.9031C2.9588 13.5445 3.25221 13.2535 3.6118 13.2535C3.97138 13.2535 4.55689 13.2535 4.91735 13.2535C5.2778 13.2535 5.57034 13.5445 5.57034 13.9031C5.57034 14.2616 5.2778 14.5526 4.91735 14.5526C4.55689 14.5526 3.6118 14.5526 3.6118 14.5526Z" fill="#29D305"/>
<path fill-rule="evenodd" clip-rule="evenodd" d="M1.97259 1.76134C1.7982 1.76134 1.63095 1.82779 1.50764 1.94606C1.38433 2.06433 1.31506 2.22475 1.31506 2.39201V16.2667C1.31506 16.434 1.38433 16.5944 1.50764 16.7127C1.63095 16.831 1.7982 16.8974 1.97259 16.8974H5.75339C6.11653 16.8974 6.41092 17.1798 6.41092 17.5281C6.41092 17.8764 6.11653 18.1588 5.75339 18.1588H1.97259C1.44942 18.1588 0.947688 17.9594 0.577757 17.6046C0.207826 17.2498 0 16.7685 0 16.2667V2.39201C0 1.89022 0.207826 1.40898 0.577757 1.05416C0.947689 0.699336 1.44942 0.5 1.97259 0.5H11.2911C11.8139 0.500107 12.3154 0.699269 12.6852 1.05373C12.7015 1.06938 12.717 1.08585 12.7315 1.10307L13.6617 2.20548C13.8901 2.47623 13.8465 2.87335 13.5642 3.09247C13.2819 3.31159 12.8679 3.26973 12.6395 2.99898L11.7348 1.92686C11.6139 1.82068 11.4557 1.76141 11.2911 1.76134H1.97259Z" fill="black"/>
</svg>
