<svg width="24" height="23" fill="none" xmlns="http://www.w3.org/2000/svg"><path d="M9.156 23c-.901 0-1.635-.802-1.635-1.788v-15.5c0-.986.734-1.788 1.635-1.788H20.09c.43 0 .835.18 1.142.508l2.147 2.292c.313.334.493.8.493 1.28v13.208c0 .986-.733 1.788-1.635 1.788H9.157zm0-17.884c-.3 0-.545.267-.545.597v15.499c0 .329.245.596.545.596h13.081c.3 0 .545-.267.545-.596V8.004c0-.16-.06-.316-.165-.427L20.47 5.286a.52.52 0 00-.38-.17H9.156z" fill="#1B314B"/><path d="M11.37 11.076c-.302 0-.546-.267-.546-.595 0-.329.244-.596.545-.596h8.72c.301 0 .546.267.546.596 0 .328-.245.595-.546.595h-8.72zm0 3.577c-.302 0-.546-.267-.546-.595 0-.33.244-.596.545-.596h8.72c.301 0 .546.267.546.596 0 .328-.245.595-.546.595h-8.72zm0 3.577c-.302 0-.546-.267-.546-.596 0-.328.244-.595.545-.595h4.36c.3 0 .545.267.545.595 0 .329-.245.596-.545.596h-4.36zM3.593 6.204a.65.65 0 010-1.299H4.89a.65.65 0 010 1.3H3.593zm0 3.924a.65.65 0 010-1.299H4.89a.65.65 0 010 1.3H3.593zm0 3.925a.65.65 0 010-1.3H4.89a.65.65 0 010 1.3H3.593z" fill="#1B314B"/><path fill-rule="evenodd" clip-rule="evenodd" d="M1.962 1.261a.667.667 0 00-.462.185.62.62 0 00-.192.446v13.875a.62.62 0 00.192.446.666.666 0 00.462.184h3.76c.362 0 .655.283.655.631 0 .348-.293.63-.654.63h-3.76a2 2 0 01-1.388-.553A1.858 1.858 0 010 15.767V1.892C0 1.39.207.909.575.554A2 2 0 011.962 0h9.269a2 2 0 011.387.554.62.62 0 01.046.05l.925 1.101a.615.615 0 01-.097.887.67.67 0 01-.92-.093l-.9-1.072a.667.667 0 00-.441-.166H1.962z" fill="#1B314B"/></svg>