<svg width="23" height="23" fill="none" xmlns="http://www.w3.org/2000/svg"><path fill-rule="evenodd" clip-rule="evenodd" d="M15.79 2.239a.743.743 0 01.65-.849l4.4-.567a1 1 0 011.117.838l.664 4.284a.743.743 0 01-.65.848.79.79 0 01-.883-.65l-.582-3.748-3.833.494a.79.79 0 01-.883-.65z" fill="#1B314B"/><path fill-rule="evenodd" clip-rule="evenodd" d="M20.402 2.323a.75.75 0 01.182 1.058L17.24 7.889a.783.783 0 01-1.081.156.75.75 0 01-.181-1.058L19.32 2.48a.783.783 0 011.081-.156z" fill="#1B314B"/><path d="M6.54 22.61c-.644 0-1.167-.572-1.167-1.277v-11.07c0-.705.523-1.278 1.167-1.278h7.81c.307 0 .596.129.816.363l1.533 1.636c.224.24.353.573.353.915v9.434c0 .705-.524 1.278-1.168 1.278H6.54zm0-12.773c-.214 0-.389.19-.389.425v11.071c0 .235.175.426.39.426h9.343c.215 0 .39-.19.39-.426V11.9a.449.449 0 00-.119-.305l-1.533-1.637a.37.37 0 00-.271-.12H6.54z" fill="#1B314B"/><path d="M8.12 14.094c-.214 0-.388-.191-.388-.426 0-.234.174-.425.389-.425h6.229c.215 0 .39.19.39.425s-.176.426-.39.426H8.12zm0 2.554c-.214 0-.388-.19-.388-.425s.174-.425.389-.425h6.229c.215 0 .39.19.39.425s-.175.425-.39.425H8.12zm0 2.555c-.214 0-.388-.19-.388-.425s.174-.425.389-.425h3.114c.215 0 .39.19.39.425s-.175.425-.39.425H8.121zm-5.554-8.589a.464.464 0 010-.928h.928a.464.464 0 010 .928h-.928zm0 2.803a.464.464 0 010-.928h.928a.464.464 0 010 .928h-.928zm0 2.803a.464.464 0 010-.928h.928a.464.464 0 010 .928h-.928z" fill="#1B314B"/><path fill-rule="evenodd" clip-rule="evenodd" d="M1.402 7.083a.476.476 0 00-.33.132.443.443 0 00-.138.318v9.911c0 .12.05.234.137.319a.476.476 0 00.33.131h2.687a.46.46 0 01.467.451.46.46 0 01-.467.45H1.402c-.372 0-.729-.142-.992-.395a1.328 1.328 0 01-.41-.956v-9.91c0-.36.148-.703.41-.956.263-.254.62-.396.992-.396h6.62a1.429 1.429 0 011.024.43l.66.788a.44.44 0 01-.069.634.479.479 0 01-.657-.067L8.338 7.2a.477.477 0 00-.316-.118h-6.62z" fill="#1B314B"/></svg>