<svg width="24" height="24" viewBox="0 0 24 24" fill="none" xmlns="http://www.w3.org/2000/svg">
<g clip-path="url(#clip0)">
<path d="M12.9011 8.32654H9.65625V9.30001H11.9277V10.3816H9.65625V11.3551H11.9277V12.6531H9.65625V13.6265H12.9011V8.32654Z" fill="black"/>
<path d="M8.14041 12.6531H5.86898V11.3551H8.14041V8.32654H4.89551V9.30001H7.16694V10.3816H4.89551V13.6265H8.14041V12.6531Z" fill="black"/>
<path d="M17.4461 10.3816H15.391V9.30001H17.4461V8.32654H14.4175V11.3551H16.4726L15.9195 11.5102L16.4093 11.7551H16.6542L16.899 11.5102L17.4461 10.3816Z" fill="black"/>
<path d="M2.25879 21.0028C1.01779 21.0028 0.00878906 19.9938 0.00878906 18.7528V2.25281C0.00878906 1.01181 1.01779 0.00280762 2.25879 0.00280762H20.2588C21.4998 0.00280762 22.5088 1.01181 22.5088 2.25281V8.25281C22.5088 8.66681 22.1728 9.00281 21.7588 9.00281C21.3448 9.00281 21.0088 8.66681 21.0088 8.25281V6.00281H1.50879V18.7528C1.50879 19.1668 1.84479 19.5028 2.25879 19.5028H8.25879C8.67279 19.5028 9.00879 19.8388 9.00879 20.2528C9.00879 20.6668 8.67279 21.0028 8.25879 21.0028H2.25879ZM21.0088 4.50281V2.25281C21.0088 1.83881 20.6728 1.50281 20.2588 1.50281H2.25879C1.84479 1.50281 1.50879 1.83881 1.50879 2.25281V4.50281H21.0088Z" fill="black"/>
<path d="M17.2588 24.0029C13.5368 24.0029 10.5088 20.9749 10.5088 17.2529C10.5088 13.5309 13.5368 10.5029 17.2588 10.5029C20.9808 10.5029 24.0088 13.5309 24.0088 17.2529C24.0088 20.9749 20.9808 24.0029 17.2588 24.0029ZM17.2588 12.0029C14.3638 12.0029 12.0088 14.3579 12.0088 17.2529C12.0088 20.1479 14.3638 22.5029 17.2588 22.5029C20.1538 22.5029 22.5088 20.1479 22.5088 17.2529C22.5088 14.3579 20.1538 12.0029 17.2588 12.0029Z" fill="#29D305"/>
<path d="M17.2588 21.0029C16.8448 21.0029 16.5088 20.6669 16.5088 20.2529V18.0029H14.2588C13.8448 18.0029 13.5088 17.6669 13.5088 17.2529C13.5088 16.8389 13.8448 16.5029 14.2588 16.5029H16.5088V14.2529C16.5088 13.8389 16.8448 13.5029 17.2588 13.5029C17.6728 13.5029 18.0088 13.8389 18.0088 14.2529V16.5029H20.2588C20.6728 16.5029 21.0088 16.8389 21.0088 17.2529C21.0088 17.6669 20.6728 18.0029 20.2588 18.0029H18.0088V20.2529C18.0088 20.6669 17.6718 21.0029 17.2588 21.0029Z" fill="#29D305"/>
</g>
<defs>
<clipPath id="clip0">
<path d="M0 0H24V24H0V0Z" fill="white"/>
</clipPath>
</defs>
</svg>
