<svg width="24" height="24" viewBox="0 0 24 24" fill="none" xmlns="http://www.w3.org/2000/svg">
<path fill-rule="evenodd" clip-rule="evenodd" d="M11.8961 22.001H1.55167C1.2712 22.001 1.04384 22.2217 1.04384 22.4939C1.04384 22.7662 1.2712 22.9868 1.55167 22.9868H11.8961C12.1766 22.9868 12.404 22.7662 12.404 22.4939C12.404 22.2217 12.1766 22.001 11.8961 22.001ZM1.55167 20.9879C0.694707 20.9879 0 21.6622 0 22.4939C0 23.3257 0.694704 24 1.55167 24H11.8961C12.7531 24 13.4478 23.3257 13.4478 22.4939C13.4478 21.6622 12.7531 20.9879 11.8961 20.9879H1.55167Z" fill="black"/>
<path fill-rule="evenodd" clip-rule="evenodd" d="M15.0599 8.67789L22.2762 15.9514C22.4861 16.163 22.4861 16.5061 22.2762 16.7177C22.0662 16.9294 21.7258 16.9294 21.5159 16.7177L14.2996 9.44422C14.0896 9.2326 14.0896 8.88951 14.2996 8.67789C14.5095 8.46628 14.8499 8.46628 15.0599 8.67789ZM13.5695 7.94205C14.1827 7.32404 15.1768 7.32404 15.7899 7.94205L23.0062 15.2156C23.5465 15.7601 23.6107 16.6027 23.199 17.2181C23.3091 17.3195 23.3883 17.4586 23.4135 17.6239L23.9917 21.412C24.0646 21.8895 23.6431 22.294 23.1735 22.1972L17.7687 21.0824C17.1412 20.953 17.0139 20.1057 17.5752 19.7948L21.2322 17.7692C21.0706 17.6932 20.9192 17.588 20.7858 17.4536L13.5695 10.1801C12.9564 9.56205 12.9564 8.56006 13.5695 7.94205ZM18.8932 20.2522L22.4679 18.2722L22.8961 21.0778L18.8932 20.2522Z" fill="black"/>
<path d="M11.1458 10.9416L14.5358 8.57368C14.7818 8.40181 15.121 8.46146 15.2933 8.70692C15.4655 8.95237 15.4057 9.29068 15.1597 9.46255L12.5359 11.2953C12.7593 11.4946 12.919 11.766 12.9769 12.0779L13.0067 12.2384L15.7588 10.3161C16.4774 9.81413 16.652 8.82612 16.1488 8.10928C15.6457 7.39244 14.6553 7.21823 13.9367 7.72016L9.32484 10.9416H11.1458Z" fill="black"/>
<path d="M7.5906 13.425V12.3309C7.5906 12.2676 7.59484 12.2054 7.60305 12.1443L5.47959 13.6276C5.0972 13.8947 4.86884 14.2995 4.81469 14.7278H5.88412C5.9218 14.6315 5.98743 14.5449 6.07867 14.4811L7.5906 13.425Z" fill="black"/>
<path fill-rule="evenodd" clip-rule="evenodd" d="M8.63498 15.7697H1.39263C1.20035 15.7697 1.04447 15.9252 1.04447 16.117V18.8456C1.04447 19.0374 1.20035 19.1929 1.39263 19.1929L12.8168 19.1929C13.0345 19.1929 13.1988 18.9959 13.1592 18.7823L11.9498 12.2676C11.9193 12.103 11.7753 11.9836 11.6075 11.9836H8.98313C8.79085 11.9836 8.63498 12.1391 8.63498 12.3309V15.7697ZM7.5906 12.3309C7.5906 11.5636 8.21401 10.9416 8.98313 10.9416H11.6075C12.2788 10.9416 12.8547 11.4194 12.9769 12.0779L14.1862 18.5926C14.3447 19.4467 13.6875 20.2348 12.8168 20.2348L1.39263 20.2349C0.623503 20.2349 0 19.6129 0 18.8456V16.117C0 15.3498 0.623502 14.7278 1.39263 14.7278H7.5905L7.5906 12.3309Z" fill="black"/>
<path fill-rule="evenodd" clip-rule="evenodd" d="M5.47042 20.2348V20.9879H4.48264V20.2348H5.47042ZM8.72455 20.9879V20.2348H9.71234V20.9879H8.72455Z" fill="black"/>
<path fill-rule="evenodd" clip-rule="evenodd" d="M21.6919 0.184509C21.936 0.430522 21.936 0.829386 21.6919 1.0754C19.5484 3.23596 15.8807 4.56826 12.0975 4.78214C8.30483 4.99657 4.25443 4.09552 1.34624 1.61478C1.08276 1.39002 1.04993 0.992531 1.27292 0.726959C1.49591 0.461387 1.89027 0.4283 2.15376 0.653056C4.74557 2.86393 8.44517 3.72675 12.0275 3.52421C15.6193 3.32114 18.9516 2.05566 20.8081 0.184509C21.0521 -0.0615031 21.4479 -0.0615031 21.6919 0.184509ZM22.5323 2.81961C22.7132 3.11592 22.6215 3.50394 22.3276 3.68628C18.9541 5.77871 14.5188 6.74117 10.4638 6.70899C6.43945 6.67705 2.60804 5.66145 0.558058 3.59522C0.313981 3.3492 0.313981 2.95034 0.558058 2.70433C0.802136 2.45831 1.19786 2.45831 1.44194 2.70433C3.14196 4.41782 6.56055 5.41807 10.4737 5.44912C14.3562 5.47994 18.5459 4.55253 21.6724 2.61326C21.9664 2.43092 22.3514 2.52331 22.5323 2.81961Z" fill="#29D305"/>
</svg>
