<svg width="24" height="24" viewBox="0 0 24 24" fill="none" xmlns="http://www.w3.org/2000/svg">
<path fill-rule="evenodd" clip-rule="evenodd" d="M11.8342 21.8777H1.54359C1.26458 21.8777 1.0384 22.0956 1.0384 22.3642C1.0384 22.6329 1.26458 22.8507 1.54359 22.8507H11.8342C12.1132 22.8507 12.3394 22.6329 12.3394 22.3642C12.3394 22.0955 12.1132 21.8777 11.8342 21.8777ZM1.54359 20.8778C0.691088 20.8778 0 21.5433 0 22.3642C0 23.1852 0.691085 23.8506 1.54359 23.8506H11.8342C12.6867 23.8506 13.3778 23.1852 13.3778 22.3642C13.3778 21.5433 12.6867 20.8778 11.8342 20.8778H1.54359Z" fill="black"/>
<path fill-rule="evenodd" clip-rule="evenodd" d="M14.9814 8.72819L22.1601 15.9069C22.369 16.1158 22.369 16.4544 22.1601 16.6633C21.9513 16.8721 21.6126 16.8721 21.4038 16.6633L14.2251 9.48453C14.0162 9.27567 14.0162 8.93705 14.2251 8.72819C14.4339 8.51934 14.7725 8.51934 14.9814 8.72819ZM13.4988 8.00194C14.1088 7.39199 15.0977 7.39199 15.7076 8.00194L22.8864 15.1807C23.4238 15.7181 23.4877 16.5497 23.0781 17.1571C23.1877 17.2572 23.2665 17.3944 23.2916 17.5576L23.8668 21.2964C23.9393 21.7677 23.5199 22.1669 23.0527 22.0713L17.6762 20.9711C17.0519 20.8433 16.9253 20.007 17.4837 19.7002L21.1216 17.701C20.9609 17.626 20.8102 17.5222 20.6775 17.3895L13.4988 10.2108C12.8888 9.60083 12.8888 8.6119 13.4988 8.00194ZM18.7948 20.1516L22.3508 18.1974L22.7769 20.9665L18.7948 20.1516Z" fill="black"/>
<path d="M11.0878 10.9624L14.4601 8.62535C14.7048 8.45572 15.0422 8.51459 15.2136 8.75685C15.385 8.99911 15.3255 9.33301 15.0807 9.50264L12.4706 11.3115C12.6929 11.5082 12.8517 11.776 12.9093 12.0839L12.939 12.2423L15.6767 10.345C16.3915 9.84964 16.5652 8.8745 16.0647 8.167C15.5642 7.4595 14.5789 7.28756 13.8641 7.78295L9.27626 10.9624H11.0878Z" fill="black"/>
<path d="M7.55106 13.4135V12.3336C7.55106 12.2712 7.55528 12.2097 7.56345 12.1495L5.45105 13.6134C5.07064 13.877 4.84348 14.2765 4.78961 14.6992H5.85347C5.89095 14.6042 5.95624 14.5187 6.04701 14.4558L7.55106 13.4135Z" fill="black"/>
<path fill-rule="evenodd" clip-rule="evenodd" d="M8.59 15.7276H1.38538C1.19409 15.7276 1.03903 15.8811 1.03903 16.0704V18.7634C1.03903 18.9527 1.1941 19.1062 1.38538 19.1062L12.7501 19.1062C12.9666 19.1062 13.13 18.9117 13.0906 18.701L11.8876 12.2712C11.8572 12.1087 11.714 11.9908 11.547 11.9908H8.93634C8.74506 11.9908 8.59 12.1443 8.59 12.3336V15.7276ZM7.55106 12.3336C7.55106 11.5763 8.17122 10.9624 8.93634 10.9624H11.547C12.2149 10.9624 12.7877 11.434 12.9093 12.0839L14.1123 18.5137C14.27 19.3567 13.6162 20.1345 12.7501 20.1345L1.38538 20.1346C0.620255 20.1346 0 19.5207 0 18.7634V16.0704C0 15.3131 0.620254 14.6992 1.38538 14.6992H7.55097L7.55106 12.3336Z" fill="black"/>
<path fill-rule="evenodd" clip-rule="evenodd" d="M5.44193 20.1346V20.8778H4.45929V20.1346H5.44193ZM8.67911 20.8778V20.1346H9.66175V20.8778H8.67911Z" fill="black"/>
<path fill-rule="evenodd" clip-rule="evenodd" d="M21.6919 0.308058C21.936 0.552136 21.936 0.947864 21.6919 1.19194C19.5484 3.33551 15.8807 4.65733 12.0975 4.86954C8.30483 5.08228 4.25443 4.18831 1.34624 1.72708C1.08276 1.50409 1.04993 1.10973 1.27292 0.846242C1.49591 0.582759 1.89027 0.549931 2.15376 0.772921C4.74557 2.9664 8.44517 3.82244 12.0275 3.6215C15.6193 3.42003 18.9516 2.16449 20.8081 0.308058C21.0521 0.0639806 21.4479 0.0639806 21.6919 0.308058ZM22.5323 2.92244C22.7132 3.21641 22.6215 3.60138 22.3276 3.78229C18.9541 5.85827 14.5188 6.81316 10.4638 6.78123C6.43945 6.74954 2.60804 5.74193 0.558058 3.69194C0.313981 3.44786 0.313981 3.05214 0.558058 2.80806C0.802136 2.56398 1.19786 2.56398 1.44194 2.80806C3.14196 4.50807 6.56055 5.50046 10.4737 5.53127C14.3562 5.56184 18.5459 4.64173 21.6724 2.71771C21.9664 2.53681 22.3514 2.62847 22.5323 2.92244Z" fill="#29D305"/>
</svg>
