<svg width="24" height="24" viewBox="0 0 24 24" fill="none" xmlns="http://www.w3.org/2000/svg">
<path fill-rule="evenodd" clip-rule="evenodd" d="M6.23171 6.09753C6.63582 6.09753 6.96341 6.42513 6.96341 6.82924C6.96341 9.34297 8.96824 11.2683 11.4024 11.2683C13.8276 11.2683 15.8415 9.2544 15.8415 6.82924C15.8415 6.42513 16.1691 6.09753 16.5732 6.09753C16.9773 6.09753 17.3049 6.42513 17.3049 6.82924C17.3049 10.0626 14.6358 12.7317 11.4024 12.7317C8.17811 12.7317 5.5 10.1692 5.5 6.82924C5.5 6.42513 5.8276 6.09753 6.23171 6.09753Z" fill="black"/>
<path fill-rule="evenodd" clip-rule="evenodd" d="M11.7927 14.4878C6.91868 14.4878 2.96341 18.3651 2.96341 23.2195C2.96341 23.6236 2.63582 23.9512 2.23171 23.9512C1.8276 23.9512 1.5 23.6236 1.5 23.2195C1.5 17.5374 6.1301 13.0244 11.7927 13.0244C17.4602 13.0244 22.0854 17.6398 22.0854 23.2195C22.0854 23.6236 21.7578 23.9512 21.3537 23.9512C20.9495 23.9512 20.622 23.6236 20.622 23.2195C20.622 18.4578 16.6617 14.4878 11.7927 14.4878Z" fill="black"/>
<path fill-rule="evenodd" clip-rule="evenodd" d="M7.51839 14.1716C7.77384 13.8585 8.23477 13.8117 8.5479 14.0672L11.7927 16.7142L15.0375 14.0672C15.3506 13.8117 15.8115 13.8585 16.067 14.1716C16.3224 14.4847 16.2757 14.9457 15.9625 15.2011L12.2552 18.2255C11.986 18.4451 11.5994 18.4451 11.3302 18.2255L7.62284 15.2011C7.3097 14.9457 7.26294 14.4847 7.51839 14.1716Z" fill="black"/>
<path fill-rule="evenodd" clip-rule="evenodd" d="M5.84145 15.0731C6.24556 15.0731 6.57316 15.4007 6.57316 15.8048V23.2195C6.57316 23.6236 6.24556 23.9512 5.84145 23.9512C5.43734 23.9512 5.10974 23.6236 5.10974 23.2195V15.8048C5.10974 15.4007 5.43734 15.0731 5.84145 15.0731Z" fill="black"/>
<path fill-rule="evenodd" clip-rule="evenodd" d="M17.5487 15.0731C17.9528 15.0731 18.2804 15.4007 18.2804 15.8048V23.2195C18.2804 23.6236 17.9528 23.9512 17.5487 23.9512C17.1446 23.9512 16.817 23.6236 16.817 23.2195V15.8048C16.817 15.4007 17.1446 15.0731 17.5487 15.0731Z" fill="black"/>
<path fill-rule="evenodd" clip-rule="evenodd" d="M9.626 0.936369C10.0248 0.871254 10.4009 1.14178 10.466 1.54061L11.2465 6.3211C11.3117 6.71993 11.0411 7.09603 10.6423 7.16115C10.2435 7.22626 9.86736 6.95573 9.80224 6.5569L9.02176 1.77642C8.95664 1.37759 9.22717 1.00148 9.626 0.936369Z" fill="#29D305"/>
<path fill-rule="evenodd" clip-rule="evenodd" d="M13.2463 1.17363C13.2463 1.17363 14.1974 1.22513 14.1244 1.62259L13.2463 6.40307C13.1733 6.80054 12.7919 7.06356 12.3945 6.99056C11.997 6.91756 11.734 6.53617 11.807 6.13871L12.685 1.35822C12.758 0.960758 13.2463 1.17363 13.2463 1.17363Z" fill="#29D305"/>
<path fill-rule="evenodd" clip-rule="evenodd" d="M4.42688 6.4391C4.42688 6.03499 4.75448 5.7074 5.15859 5.7074H18.3293C18.7334 5.7074 19.061 6.03499 19.061 6.4391C19.061 6.84322 18.7334 7.17081 18.3293 7.17081H5.15859C4.75448 7.17081 4.42688 6.84322 4.42688 6.4391Z" fill="#29D305"/>
<path fill-rule="evenodd" clip-rule="evenodd" d="M11.7926 16.9269C12.1967 16.9269 12.5243 17.2545 12.5243 17.6586V23.2196C12.5243 23.6237 12.1967 23.9513 11.7926 23.9513C11.3885 23.9513 11.0609 23.6237 11.0609 23.2196V17.6586C11.0609 17.2545 11.3885 16.9269 11.7926 16.9269Z" fill="black"/>
<path fill-rule="evenodd" clip-rule="evenodd" d="M9.97597 2.23041C9.85206 2.36353 9.70327 2.45808 9.54433 2.5262L9.54005 2.52803C7.96704 3.19035 6.96341 4.67438 6.96341 6.53658C6.96341 6.94069 6.63582 6.82926 6.23171 6.82926C5.8276 6.82926 5.5 6.94069 5.5 6.53658C5.5 4.14518 6.79516 2.14328 8.8698 1.22351C8.89657 1.13838 8.94509 1.00718 9.04409 0.872167C9.2615 0.575709 9.58794 0.434537 9.93383 0.357453C10.2794 0.28043 10.7515 0.243896 11.4024 0.243896C12.0558 0.243896 12.5348 0.280812 12.891 0.355506C13.2464 0.43003 13.5603 0.558447 13.791 0.805615C13.905 0.927687 13.9725 1.05143 14.0159 1.14858C14.0296 1.17908 14.0412 1.20789 14.0504 1.23144C16.1323 2.16408 17.3049 4.17707 17.3049 6.53658C17.3049 6.94069 16.8797 6.82926 16.4756 6.82926C16.0715 6.82926 15.8415 6.94069 15.8415 6.53658C15.8415 4.64839 14.9128 3.18083 13.3624 2.52802C13.3478 2.52186 13.3333 2.51522 13.3191 2.50811C12.9709 2.33401 12.8146 2.07915 12.7291 1.87212C12.7203 1.85073 12.7128 1.83262 12.7066 1.81737C12.6799 1.80887 12.6422 1.79857 12.5907 1.78777C12.3799 1.74357 12.0174 1.70731 11.4024 1.70731C10.7851 1.70731 10.4401 1.74395 10.2522 1.78583C10.2436 1.78773 10.2356 1.78959 10.2282 1.7914C10.2229 1.80787 10.2169 1.82557 10.2102 1.84391C10.1698 1.95449 10.1019 2.09508 9.97597 2.23041ZM12.7621 1.83893L12.7611 1.83836Z" fill="#29D305"/>
</svg>
