<svg width="40" height="40" viewBox="0 0 40 40" fill="none" xmlns="http://www.w3.org/2000/svg">
<g clip-path="url(#clip0)">
<path fill-rule="evenodd" clip-rule="evenodd" d="M3.94167 2.5H36.0755C37.1154 2.50323 38.1117 2.91773 38.847 3.65301C39.5823 4.38829 39.9968 5.38462 40 6.42446L40 6.42833L40 33.5583L40 33.5622C39.9968 34.6056 39.5809 35.6053 38.8431 36.3431C38.1053 37.0809 37.1056 37.4968 36.0622 37.5L36.0583 37.5H3.75C2.75544 37.5 1.80161 37.1049 1.09835 36.4016C0.395089 35.6984 0 34.7446 0 33.75V6.43781C0.00321537 5.39443 0.419129 4.3947 1.15692 3.65692C1.8947 2.91913 2.89443 2.50322 3.93781 2.50001L3.94167 2.5ZM3.94388 5C3.56146 5.00161 3.19513 5.15423 2.92468 5.42468C2.65423 5.69513 2.50161 6.06146 2.5 6.44388V33.75C2.5 34.0815 2.6317 34.3995 2.86612 34.6339C3.10054 34.8683 3.41848 35 3.75 35H36.0562C36.4386 34.9984 36.8049 34.8457 37.0753 34.5753C37.3457 34.3049 37.4984 33.9386 37.5 33.5562V6.43049C37.4984 6.05162 37.3472 5.68871 37.0792 5.42078C36.8113 5.15282 36.4483 5.0016 36.0694 5H3.94388Z" fill="black"/>
<path fill-rule="evenodd" clip-rule="evenodd" d="M0 11.25C0 10.5596 0.559644 10 1.25 10H38.75C39.4404 10 40 10.5596 40 11.25C40 11.9404 39.4404 12.5 38.75 12.5H1.25C0.559644 12.5 0 11.9404 0 11.25Z" fill="black"/>
<path fill-rule="evenodd" clip-rule="evenodd" d="M20 23.75C20 23.0596 20.5596 22.5 21.25 22.5H28.75C29.4404 22.5 30 23.0596 30 23.75C30 24.4404 29.4404 25 28.75 25H21.25C20.5596 25 20 24.4404 20 23.75Z" fill="black"/>
<path fill-rule="evenodd" clip-rule="evenodd" d="M10.3661 17.8661C10.8543 17.378 11.6457 17.378 12.1339 17.8661L17.1339 22.8661C17.622 23.3543 17.622 24.1457 17.1339 24.6339L12.1339 29.6339C11.6457 30.122 10.8543 30.122 10.3661 29.6339C9.87796 29.1457 9.87796 28.3543 10.3661 27.8661L14.4822 23.75L10.3661 19.6339C9.87796 19.1457 9.87796 18.3543 10.3661 17.8661Z" fill="#29D305"/>
</g>
<defs>
<clipPath id="clip0">
<rect width="40" height="40" fill="white"/>
</clipPath>
</defs>
</svg>
