<svg width="125" height="125" viewBox="0 0 125 125" fill="none" xmlns="http://www.w3.org/2000/svg">
<path d="M124.56 53.3172V71.3835H48.8787V53.3172H124.56ZM62.677 106.581C38.1437 106.581 18.2564 86.7788 18.2564 62.3503C18.2564 37.9219 38.1437 18.1196 62.677 18.1196C76.7971 18.1196 89.3669 24.6848 97.4999 34.9091L111.127 22.9753C99.6566 9.00099 82.2156 0.074707 62.677 0.074707C28.1383 0.074707 0.139404 27.954 0.139404 62.345C0.139404 96.736 28.1383 124.615 62.677 124.615C82.2156 124.615 99.6619 115.689 111.127 101.715L97.4999 89.7809C89.3669 100.011 76.7971 106.581 62.677 106.581Z" fill="url(#paint0_linear_1673_781)"/>
<defs>
<linearGradient id="paint0_linear_1673_781" x1="0.478836" y1="68.8609" x2="124.814" y2="55.7366" gradientUnits="userSpaceOnUse">
<stop stop-color="#EE0701"/>
<stop offset="0.0226" stop-color="#F12001"/>
<stop offset="0.0757" stop-color="#F75700"/>
<stop offset="0.1216" stop-color="#FB7F00"/>
<stop offset="0.158" stop-color="#FE9700"/>
<stop offset="0.1802" stop-color="#FFA000"/>
<stop offset="0.3456" stop-color="#FFFF00"/>
<stop offset="0.6208" stop-color="#29D305"/>
<stop offset="0.7832" stop-color="#006DDB"/>
<stop offset="0.9292" stop-color="#B66DFF"/>
</linearGradient>
</defs>
</svg>
