<svg width="400" height="122" viewBox="0 0 400 122" fill="none" xmlns="http://www.w3.org/2000/svg">
<path d="M120.155 51.7325V69.2863H47.0683V51.7325H120.155ZM60.3935 103.486C36.7013 103.486 17.4958 84.245 17.4958 60.5094C17.4958 36.7738 36.7013 17.5331 60.3935 17.5331C74.0296 17.5331 86.1683 23.9121 94.0226 33.8464L107.182 22.2511C96.1053 8.67311 79.2622 0 60.3935 0C27.039 0 0 27.0886 0 60.5042C0 93.9198 27.039 121.008 60.3935 121.008C79.2622 121.008 96.1105 112.335 107.182 98.7573L94.0226 87.162C86.1683 97.1015 74.0296 103.486 60.3935 103.486ZM158.037 1.7284H140.516V119.28H158.037V1.7284ZM294.921 33.4831H277.4V119.285H294.921V33.4831ZM242.859 33.4831L217.545 92.8921L192.231 33.4831H172.751L210.732 119.285H224.363L262.344 33.4831H242.859V33.4831ZM286.155 0.00519148C280.576 0.00519148 276.053 4.53639 276.053 10.1264C276.053 15.7165 280.576 20.2476 286.155 20.2476C291.735 20.2476 296.258 15.7165 296.258 10.1264C296.258 4.53639 291.735 0.00519148 286.155 0.00519148ZM354.17 93.1361C348.875 93.1361 344.585 97.4337 344.585 102.738C344.585 108.043 348.875 112.34 354.17 112.34C359.465 112.34 363.755 108.043 363.755 102.738C363.755 97.4337 359.465 93.1361 354.17 93.1361ZM360.988 33.4831H347.357L308.34 119.285H327.302L354.17 58.7083L381.038 119.285H400L360.988 33.4831Z" fill="url(#paint0_linear_1673_792)"/>
<defs>
<linearGradient id="paint0_linear_1673_792" x1="2.07572" y1="83.4959" x2="391.957" y2="42.5928" gradientUnits="userSpaceOnUse">
<stop stop-color="#EE0701"/>
<stop offset="0.0313" stop-color="#EE0B01"/>
<stop offset="0.0638" stop-color="#F01801"/>
<stop offset="0.0968" stop-color="#F22C01"/>
<stop offset="0.1302" stop-color="#F54901"/>
<stop offset="0.1638" stop-color="#FA6F00"/>
<stop offset="0.1973" stop-color="#FF9C00"/>
<stop offset="0.2" stop-color="#FFA000"/>
<stop offset="0.4" stop-color="#FFFF00"/>
<stop offset="0.4618" stop-color="#FFFF00"/>
<stop offset="0.6" stop-color="#29D305"/>
<stop offset="0.7051" stop-color="#006DDB"/>
<stop offset="0.8" stop-color="#006DDB"/>
<stop offset="0.8114" stop-color="#216DE2"/>
<stop offset="0.8293" stop-color="#4E6DEA"/>
<stop offset="0.8472" stop-color="#746DF2"/>
<stop offset="0.8651" stop-color="#916DF8"/>
<stop offset="0.8827" stop-color="#A56DFC"/>
<stop offset="0.9" stop-color="#B26DFE"/>
<stop offset="0.9168" stop-color="#B66DFF"/>
<stop offset="1" stop-color="#B66DFF"/>
</linearGradient>
</defs>
</svg>
