<svg width="238" height="72" viewBox="0 0 238 72" fill="none" xmlns="http://www.w3.org/2000/svg">
<g clip-path="url(#clip0)">
<path d="M71.6208 30.8048H28.1965V41.1952H71.6208V30.8048Z" fill="black"/>
<path d="M36.1059 61.4532C22.0414 61.4532 10.6237 50.0484 10.6237 36C10.6237 21.9516 22.0414 10.5468 36.1059 10.5468C44.1998 10.5468 51.4013 14.3279 56.0792 20.1993L63.8962 13.3442C57.3102 5.29017 47.3082 0.156494 36.1059 0.156494C16.2864 0.156494 0.221573 16.2031 0.221573 36C0.221573 55.7969 16.2864 71.8435 36.1059 71.8435C47.3082 71.8435 57.3102 66.7098 63.8962 58.6558L56.0792 51.8006C51.4321 57.6721 44.1998 61.4532 36.1059 61.4532Z" fill="black"/>
<path d="M94.1178 1.20168H83.7156V70.8291H94.1178V1.20168Z" fill="black"/>
<path d="M175.427 19.9842H165.025V70.7983H175.427V19.9842Z" fill="black"/>
<path d="M144.497 19.9842L129.479 55.1821L114.43 19.9842H102.858L125.416 70.8291H133.51L156.069 19.9842H144.497Z" fill="black"/>
<path d="M170.226 12.176C173.54 12.176 176.227 9.49226 176.227 6.18164C176.227 2.87101 173.54 0.187225 170.226 0.187225C166.911 0.187225 164.224 2.87101 164.224 6.18164C164.224 9.49226 166.911 12.176 170.226 12.176Z" fill="#29D305"/>
<path d="M210.634 66.7098C213.778 66.7098 216.327 64.1637 216.327 61.0228C216.327 57.882 213.778 55.3358 210.634 55.3358C207.49 55.3358 204.941 57.882 204.941 61.0228C204.941 64.1637 207.49 66.7098 210.634 66.7098Z" fill="#29D305"/>
<path d="M214.666 19.9842H206.572L183.398 70.8291H194.661L210.634 34.9241L226.576 70.8291H237.84L214.666 19.9842Z" fill="black"/>
</g>
<defs>
<clipPath id="clip0">
<rect width="238" height="72" fill="white"/>
</clipPath>
</defs>
</svg>
