<svg width="258" height="120" viewBox="0 0 258 120" fill="none" xmlns="http://www.w3.org/2000/svg">
<g clip-path="url(#clip0)">
<path d="M89.6637 55.7119H53.4648V64.3844H89.6637V55.7119Z" fill="black"/>
<path d="M60.0579 81.2931C48.3337 81.2931 38.8158 71.7738 38.8158 60.048C38.8158 48.3221 48.3337 38.8029 60.0579 38.8029C66.8051 38.8029 72.8083 41.9589 76.7078 46.8596L83.2241 41.1378C77.734 34.4153 69.3963 30.1304 60.0579 30.1304C43.5363 30.1304 30.1445 43.524 30.1445 60.048C30.1445 76.5719 43.5363 89.9656 60.0579 89.9656C69.3963 89.9656 77.734 85.6806 83.2241 78.9582L76.7078 73.2364C72.834 78.1371 66.8051 81.2931 60.0579 81.2931Z" fill="black"/>
<path d="M108.417 31.0029H99.7461V89.119H108.417V31.0029Z" fill="black"/>
<path d="M176.197 46.6802H167.525V89.0934H176.197V46.6802Z" fill="black"/>
<path d="M150.414 46.6802L137.894 76.059L125.349 46.6802H115.703L134.508 89.119H141.255L160.06 46.6802H150.414Z" fill="black"/>
<path d="M171.862 40.163C174.625 40.163 176.865 37.9229 176.865 35.1596C176.865 32.3963 174.625 30.1562 171.862 30.1562C169.099 30.1562 166.859 32.3963 166.859 35.1596C166.859 37.9229 169.099 40.163 171.862 40.163Z" fill="#29D305"/>
<path d="M205.545 85.6806C208.166 85.6806 210.291 83.5554 210.291 80.9338C210.291 78.3122 208.166 76.187 205.545 76.187C202.924 76.187 200.799 78.3122 200.799 80.9338C200.799 83.5554 202.924 85.6806 205.545 85.6806Z" fill="#29D305"/>
<path d="M208.907 46.6802H202.16L182.842 89.119H192.231L205.546 59.1501L218.835 89.119H228.225L208.907 46.6802Z" fill="black"/>
</g>
<rect x="0.5" y="0.5" width="257" height="119" stroke="#29D305" stroke-linecap="round" stroke-linejoin="round" stroke-dasharray="4 8"/>
<defs>
<clipPath id="clip0">
<rect width="198.08" height="60" fill="white" transform="translate(29.9609 30)"/>
</clipPath>
</defs>
</svg>
