<svg width="25" height="25" viewBox="0 0 25 25" fill="none" xmlns="http://www.w3.org/2000/svg">
<path d="M24.7971 10.5757H9.92578V14.161H24.7971V10.5757Z" fill="black"/>
<path d="M12.6329 21.151C7.81631 21.151 3.90613 17.2157 3.90613 12.3682C3.90613 7.52061 7.81631 3.58528 12.6329 3.58528C15.4048 3.58528 17.8711 4.88999 19.4731 6.91599L22.1501 4.55055C19.8947 1.77143 16.4693 0 12.6329 0C5.84541 0 0.34375 5.53703 0.34375 12.3682C0.34375 19.1993 5.84541 24.7363 12.6329 24.7363C16.4693 24.7363 19.8947 22.9649 22.1501 20.1858L19.4731 17.8203C17.8816 19.8463 15.4048 21.151 12.6329 21.151Z" fill="black"/>
</svg>
