<svg width="40" height="40" fill="none" xmlns="http://www.w3.org/2000/svg"><path fill-rule="evenodd" clip-rule="evenodd" d="M16.809 7.875a3.375 3.375 0 1 1 6.75 0 3.375 3.375 0 0 1-6.75 0zm3.375-5.625a5.625 5.625 0 1 0 0 11.25 5.625 5.625 0 0 0 0-11.25zm-.059 11.25a7.875 7.875 0 0 0-7.875 7.875v4.5c0 .621.504 1.125 1.125 1.125h1.232l1.024 10.237a1.125 1.125 0 0 0 1.119 1.013h6.75c.578 0 1.062-.438 1.12-1.013L25.642 27h1.232c.621 0 1.125-.504 1.125-1.125v-4.5a7.875 7.875 0 0 0-7.875-7.875zm-3.977 3.898a5.625 5.625 0 0 1 9.602 3.977v3.375h-1.125c-.578 0-1.062.438-1.12 1.013L22.483 36h-4.714l-1.024-10.237a1.125 1.125 0 0 0-1.119-1.013H14.5v-3.375c0-1.492.593-2.922 1.648-3.977z" fill="#000"/><path fill-rule="evenodd" clip-rule="evenodd" d="M38.835 11.373a3.556 3.556 0 0 0-.265-1.95c-.203-.456-.5-.85-.866-1.152a2.711 2.711 0 0 0-1.238-.583 2.571 2.571 0 0 0-1.34.114 2.833 2.833 0 0 0-1.145.785l-.232.259-.23-.26a2.831 2.831 0 0 0-1.147-.784 2.57 2.57 0 0 0-1.339-.114 2.71 2.71 0 0 0-1.238.583 3.149 3.149 0 0 0-.865 1.15 3.554 3.554 0 0 0-.266 1.951 3.36 3.36 0 0 0 .798 1.752l3.877 4.533a.542.542 0 0 0 .41.196c.155 0 .304-.07.411-.196l3.877-4.534a3.362 3.362 0 0 0 .798-1.75zm-6.812-2.357a1.55 1.55 0 0 0-.807-.069c-.27.05-.526.17-.747.352-.22.181-.399.42-.52.693a2.144 2.144 0 0 0-.162 1.176c.059.401.228.771.484 1.058l.008.01 3.47 4.057 3.47-4.057.009-.01c.256-.287.425-.657.483-1.058.059-.4.003-.812-.16-1.175a1.9 1.9 0 0 0-.521-.694 1.634 1.634 0 0 0-.747-.352 1.55 1.55 0 0 0-.807.069c-.26.094-.497.256-.69.473l-.634.71a.54.54 0 0 1-.403.187.54.54 0 0 1-.402-.187l-.634-.71a1.706 1.706 0 0 0-.69-.473z" fill="#29D305"/><path fill-rule="evenodd" clip-rule="evenodd" d="M30.97 7.297a2.93 2.93 0 0 1 1.526.13c.472.17.9.459 1.254.84a3.2 3.2 0 0 1 1.254-.84 2.931 2.931 0 0 1 1.527-.13c.51.093.993.32 1.407.662.413.34.747.785.974 1.295.3.675.404 1.436.297 2.178a3.768 3.768 0 0 1-.893 1.96l-3.875 4.53a.911.911 0 0 1-.691.328.911.911 0 0 1-.692-.328l-3.874-4.53a3.765 3.765 0 0 1-.893-1.96 3.969 3.969 0 0 1 .298-2.178m2.38-1.957a3.08 3.08 0 0 0-1.407.662l1.407-.662zm-1.407.662c-.413.34-.746.785-.973 1.295l.974-1.295zM31.9 9.391c-.2-.072-.412-.09-.62-.053-.207.038-.405.13-.577.273-.172.142-.315.33-.413.55a1.73 1.73 0 0 0-.129.948c.047.324.183.62.386.846l.002.003.012.013 3.189 3.73 3.192-3.733.011-.013c.203-.227.339-.522.386-.847a1.729 1.729 0 0 0-.129-.947 1.504 1.504 0 0 0-.413-.55 1.265 1.265 0 0 0-.578-.273 1.19 1.19 0 0 0-.62.053 1.33 1.33 0 0 0-.538.37l-.633.71a.91.91 0 0 1-.678.312.91.91 0 0 1-.678-.312l-.634-.71a1.33 1.33 0 0 0-.538-.37z" fill="#29D305"/><path d="M28.589 9.253l2.005-.187.375-1.77-1.406.663-.974 1.294z" fill="#29D305"/></svg>