<svg fill="none" height="40" viewBox="0 0 40 40" width="40" xmlns="http://www.w3.org/2000/svg"><g stroke-linecap="round" stroke-linejoin="round" stroke-width="2.5"><path d="m14.5833 1.25h-11.66663c-.92048 0-1.66667.74619-1.66667 1.66667v11.66663c0 .9205.74619 1.6667 1.66667 1.6667h11.66663c.9205 0 1.6667-.7462 1.6667-1.6667v-11.66663c0-.92048-.7462-1.66667-1.6667-1.66667z" stroke="var(--e-color-icon-stroke-1)"/><path d="m31.25 16.25c4.1421 0 7.5-3.3579 7.5-7.5 0-4.14214-3.3579-7.5-7.5-7.5s-7.5 3.35786-7.5 7.5c0 4.1421 3.3579 7.5 7.5 7.5z" stroke="var(--e-color-icon-positive)"/><g stroke="var(--e-color-icon-stroke-1)"><path d="m31.3098 23.2952c-.1247-.2397-.3128-.4406-.5438-.5809-.231-.1402-.496-.2143-.7662-.2143s-.5352.0741-.7662.2143c-.231.1403-.4191.3412-.5438.5809l-7.2283 13.0116c-.1368.2489-.2094.5279-.2115.8119-.002.284.0667.564.1998.8148.1255.2432.3148.4477.5476.5916s.5004.2217.7741.2251h14.4566c.2737-.0034.5413-.0812.7741-.2251s.4221-.3484.5476-.5916c.1331-.2508.2018-.5308.1998-.8148-.0021-.284-.0747-.563-.2115-.8119z"/><path d="m9.75123 21.7232c-.12166-.1474-.27439-.2661-.44727-.3475-.17288-.0815-.36163-.1237-.55273-.1237-.19111 0-.37986.0422-.55274.1237-.17288.0814-.32561.2001-.44726.3475l-6.18334 7.395c-.20605.2476-.31887.5595-.31887.8817 0 .3221.11282.634.31887.8816l6.18 7.395c.12166.1474.27439.2661.44727.3475.17288.0815.36162.1237.55273.1237s.37986-.0422.55274-.1237c.17287-.0814.3256-.2001.44726-.3475l6.18001-7.395c.206-.2476.3189-.5595.3189-.8816 0-.3222-.1129-.6341-.3189-.8817z"/></g></g></svg>