<svg xmlns="http://www.w3.org/2000/svg" width="40" height="41" fill="none"><g clip-path="url(#a)"><path fill="#000" fill-rule="evenodd" d="M2.917 3a.417.417 0 0 0-.417.417v11.666c0 .23.187.417.417.417h11.666c.23 0 .417-.187.417-.417V3.417A.417.417 0 0 0 14.583 3H2.917zM0 3.417A2.917 2.917 0 0 1 2.917.5h11.666A2.917 2.917 0 0 1 17.5 3.417v11.666A2.917 2.917 0 0 1 14.583 18H2.917A2.917 2.917 0 0 1 0 15.083V3.417zM31.25 3a6.25 6.25 0 1 0 0 12.5 6.25 6.25 0 0 0 0-12.5zM22.5 9.25a8.75 8.75 0 1 1 17.5 0 8.75 8.75 0 0 1-17.5 0zm6.085 12.896A2.727 2.727 0 0 1 32.41 23.2l7.224 13.004a2.96 2.96 0 0 1 .023 2.808 2.758 2.758 0 0 1-2.413 1.487H22.756a2.759 2.759 0 0 1-2.414-1.487 2.961 2.961 0 0 1 .024-2.808l.003-.005 7.221-13c.23-.434.574-.799.995-1.054zM30 24.25a.227.227 0 0 0-.201.122l-.017.03-7.225 13.007v.001a.462.462 0 0 0-.003.437l.007.013a.258.258 0 0 0 .221.14h14.435a.258.258 0 0 0 .222-.14l.007-.013a.462.462 0 0 0-.002-.437l-.001-.001-7.226-13.007a.975.975 0 0 1-.016-.03.227.227 0 0 0-.201-.122zM7.666 20.745a2.547 2.547 0 0 1 3.047.68l6.176 7.394a2.629 2.629 0 0 1 0 3.362l-.002.002-6.175 7.39a2.547 2.547 0 0 1-3.928 0L.607 32.18a2.628 2.628 0 0 1 0-3.362l.002-.003 6.181-7.392c.239-.288.538-.52.876-.68zm1.085 2.257a.047.047 0 0 0-.036.017l-.005.006-6.181 7.393a.128.128 0 0 0 0 .164l6.183 7.399a.046.046 0 0 0 .056.012.046.046 0 0 0 .016-.012l.005-.006 6.178-7.393a.13.13 0 0 0 0-.164l-6.18-7.4a.046.046 0 0 0-.036-.016z" clip-rule="evenodd"/></g><defs><clipPath id="a"><path fill="#fff" d="M0 .5h40v40H0z"/></clipPath></defs></svg>