<svg width="40" height="40" viewBox="0 0 40 40" fill="none" xmlns="http://www.w3.org/2000/svg">
<g clip-path="url(#clip0_15545_144418)">
<path fill-rule="evenodd" clip-rule="evenodd" d="M6.06218 4.07603L5.10913 3.60675C4.49127 4.85944 4.16992 6.23729 4.16992 7.63384C4.16992 9.02318 4.48796 10.394 5.09959 11.6415C5.32521 12.145 5.64689 12.5999 6.04672 12.9805C6.45221 13.3666 6.93009 13.6688 7.45286 13.8697C7.97564 14.0706 8.533 14.1663 9.09291 14.1512C9.65282 14.1362 10.2042 14.0107 10.7154 13.782C11.2266 13.5533 11.6876 13.2258 12.0717 12.8185C12.4558 12.4112 12.7556 11.9321 12.9537 11.4086C13.1519 10.8852 13.2445 10.3278 13.2263 9.76841C13.2082 9.21097 13.0803 8.66257 12.8501 8.15454C12.5314 7.43615 12.014 6.82362 11.3587 6.38907L11.3588 6.38898L11.3466 6.38113C10.5825 5.88932 10.0347 5.6842 9.73888 5.5734C9.65415 5.54167 9.59008 5.51768 9.54751 5.49691C9.22143 5.33781 8.62471 4.94572 6.77144 3.28558L6.06218 4.07603ZM6.51706 5.88677C6.37004 6.4556 6.29492 7.04253 6.29492 7.63384C6.29492 8.7049 6.54137 9.76163 7.01524 10.7224C7.02188 10.7358 7.02824 10.7495 7.03431 10.7632C7.14734 11.0192 7.3099 11.2504 7.51264 11.4434C7.71539 11.6365 7.95433 11.7876 8.21572 11.888C8.47711 11.9885 8.75579 12.0363 9.03574 12.0288C9.3157 12.0212 9.5914 11.9585 9.847 11.8441C10.1026 11.7298 10.3331 11.5661 10.5251 11.3624C10.7172 11.1588 10.8671 10.9192 10.9661 10.6575C11.0652 10.3958 11.1115 10.117 11.1025 9.83737C11.0934 9.55769 11.029 9.28257 10.9131 9.02783L10.9084 9.01739L10.9085 9.01736C10.7548 8.66968 10.5053 8.37294 10.1891 8.16178C9.62244 7.79743 9.44597 7.73577 9.21635 7.65554C9.07281 7.60538 8.90848 7.54797 8.61505 7.40479C8.13825 7.17215 7.56263 6.77654 6.51706 5.88677Z" fill="#EDEDED"/>
<path fill-rule="evenodd" clip-rule="evenodd" d="M8.63752 12.0726C9.19099 11.8778 9.79771 12.1681 9.99267 12.7212L11.3116 16.4623C11.5065 17.0153 11.2159 17.6215 10.6624 17.8163C10.109 18.0111 9.50225 17.7207 9.3073 17.1677L7.98838 13.4266C7.79342 12.8736 8.08405 12.2674 8.63752 12.0726Z" fill="#EDEDED"/>
<path fill-rule="evenodd" clip-rule="evenodd" d="M6.06055 16.8151C6.06055 16.2288 6.53624 15.7535 7.12305 15.7535H26.248C26.8348 15.7535 27.3105 16.2288 27.3105 16.8151V29.5545C27.3105 31.5253 26.527 33.4155 25.1322 34.8092C23.7373 36.2028 21.8456 36.9857 19.873 36.9857H13.498C11.5255 36.9857 9.63374 36.2028 8.23894 34.8092C6.84414 33.4155 6.06055 31.5253 6.06055 29.5545V16.8151ZM19.873 34.8625C21.282 34.8625 22.6333 34.3033 23.6295 33.3078C24.6258 32.3124 25.1855 30.9622 25.1855 29.5545V17.8768H8.18555V29.5545C8.18555 30.9622 8.74526 32.3124 9.74154 33.3078C10.7378 34.3033 12.0891 34.8625 13.498 34.8625H19.873Z" fill="#EDEDED"/>
<path fill-rule="evenodd" clip-rule="evenodd" d="M25.1855 16.8151C25.1855 16.2288 25.6612 15.7535 26.248 15.7535H28.373C30.3456 15.7535 32.2374 16.5365 33.6322 17.9301C35.027 19.3237 35.8105 21.2139 35.8105 23.1848C35.8105 25.1557 35.027 27.0459 33.6322 28.4395C32.2374 29.8331 30.3456 30.6161 28.373 30.6161H26.248C25.6612 30.6161 25.1855 30.1408 25.1855 29.5545V16.8151ZM28.373 28.4928C29.782 28.4928 31.1333 27.9336 32.1296 26.9382C33.1258 25.9427 33.6855 24.5926 33.6855 23.1848C33.6855 21.777 33.1258 20.4269 32.1296 19.4314C31.1333 18.436 29.782 17.8768 28.373 17.8768H27.3105V28.4928H28.373Z" fill="#EDEDED"/>
<path fill-rule="evenodd" clip-rule="evenodd" d="M11.2816 10.3756C11.7802 10.0665 12.4353 10.2196 12.7447 10.7178L16.1844 16.2552C16.4938 16.7533 16.3405 17.4078 15.8419 17.717C15.3433 18.0262 14.6883 17.873 14.3789 17.3748L10.9392 11.8375C10.6297 11.3393 10.7831 10.6848 11.2816 10.3756Z" fill="#EDEDED"/>
<path fill-rule="evenodd" clip-rule="evenodd" d="M24.7086 3.04629C25.0881 3.18014 25.3593 3.51673 25.4092 3.91573L26.2408 10.5657C26.2612 10.7291 26.2433 10.8951 26.1884 11.0505L24.028 17.1682C23.8328 17.7211 23.2259 18.0112 22.6725 17.8161C22.1192 17.621 21.8289 17.0146 22.0241 16.4617L24.1011 10.5803L23.5641 6.28574L20.4467 9.29257L17.6643 17.1683C17.469 17.7212 16.8621 18.0112 16.3087 17.816C15.7554 17.6209 15.4652 17.0145 15.6605 16.4616L18.5264 8.34949C18.5813 8.19407 18.6717 8.05356 18.7904 7.93908L23.617 3.28357C23.9065 3.0043 24.3291 2.91244 24.7086 3.04629Z" fill="#EDEDED"/>
<path fill-rule="evenodd" clip-rule="evenodd" d="M18.6064 8.75494C19.0948 8.42992 19.7544 8.56203 20.0797 9.05001C20.552 9.75852 21.2417 10.2948 22.0451 10.5781C22.8485 10.8615 23.7222 10.8768 24.5351 10.6216C25.0949 10.4458 25.6913 10.7567 25.8672 11.3161C26.0431 11.8754 25.7319 12.4713 25.1721 12.6471C23.9204 13.0401 22.5749 13.0167 21.3377 12.5803C20.1005 12.1439 19.0384 11.3181 18.3111 10.227C17.9858 9.73902 18.118 9.07996 18.6064 8.75494Z" fill="#EDEDED"/>
</g>
<path fill-rule="evenodd" clip-rule="evenodd" d="M28.4814 7.42886C28.679 7.21437 28.9869 7.12516 29.2833 7.19651L34.7744 8.51805C35.5295 8.70043 36.2077 9.11997 36.6984 9.70861C37.189 10.297 37.4642 11.0203 37.4796 11.7617C37.501 12.7052 37.1589 13.6114 36.5187 14.3063C35.8783 15.0015 34.9848 15.4362 34.0099 15.5273C33.2444 15.6001 32.467 15.4223 31.803 15.0227C31.1384 14.6228 30.6261 14.024 30.3488 13.323L28.3369 8.22386C28.2283 7.94859 28.2838 7.64335 28.4814 7.42886ZM31.8906 12.8043C31.8906 12.8043 31.8905 12.8042 31.8906 12.8043C32.0346 13.1684 32.3008 13.4795 32.6461 13.6873C32.9915 13.8951 33.3957 13.9874 33.7936 13.9494L33.7954 13.9492C34.3668 13.8959 34.8902 13.6411 35.2654 13.2339C35.6405 12.8267 35.841 12.2956 35.8284 11.7424L35.8283 11.7406C35.8204 11.3554 35.6774 10.9795 35.4224 10.6736C35.1675 10.3678 34.8156 10.1499 34.4235 10.0551C34.4233 10.0551 34.4236 10.0551 34.4235 10.0551L30.4263 9.09311L31.8906 12.8043Z" fill="#35BB18"/>
<path d="M31.8906 12.8043C31.8905 12.8042 31.8906 12.8043 31.8906 12.8043ZM31.8906 12.8043C32.0346 13.1684 32.3008 13.4795 32.6461 13.6873C32.9915 13.8951 33.3957 13.9874 33.7936 13.9494L33.7954 13.9492C34.3668 13.8959 34.8902 13.6411 35.2654 13.2339C35.6405 12.8267 35.841 12.2956 35.8284 11.7424L35.8283 11.7406C35.8204 11.3554 35.6774 10.9795 35.4224 10.6736C35.1675 10.3678 34.8156 10.1499 34.4235 10.0551M31.8906 12.8043L30.4263 9.09311L34.4235 10.0551M34.4235 10.0551C34.4236 10.0551 34.4233 10.0551 34.4235 10.0551ZM29.2833 7.19651C28.9869 7.12516 28.679 7.21437 28.4814 7.42886C28.2838 7.64335 28.2283 7.94859 28.3369 8.22386L30.3488 13.323C30.6261 14.024 31.1384 14.6228 31.803 15.0227C32.467 15.4223 33.2444 15.6001 34.0099 15.5273C34.9848 15.4362 35.8783 15.0015 36.5187 14.3063C37.1589 13.6114 37.501 12.7052 37.4796 11.7617C37.4642 11.0203 37.189 10.297 36.6984 9.70861C36.2077 9.11997 35.5295 8.70043 34.7744 8.51805L29.2833 7.19651Z" stroke="#35BB18" stroke-width="0.25" stroke-linecap="round" stroke-linejoin="round"/>
<path fill-rule="evenodd" clip-rule="evenodd" d="M28.8127 5.49406C28.7319 5.26701 28.7783 5.00814 28.9335 4.81977L31.1415 2.13973C31.4676 1.74462 31.9087 1.4713 32.3929 1.36473C32.877 1.25821 33.3762 1.32406 33.81 1.55162C34.3574 1.83752 34.7781 2.32771 34.9916 2.92822C35.2052 3.52896 35.1963 4.19782 34.9666 4.80648C34.7853 5.28916 34.4554 5.69906 34.0301 5.97008C33.6044 6.24136 33.108 6.35764 32.6211 6.30015L29.3202 5.9074C29.0882 5.8798 28.8934 5.72111 28.8127 5.49406ZM32.8035 4.97577C33.0062 4.99965 33.2129 4.9512 33.3901 4.83826C33.5674 4.72526 33.7049 4.5543 33.7804 4.35295L33.781 4.35154C33.8942 4.05158 33.8986 3.72193 33.7933 3.42583C33.688 3.12973 33.4805 2.88806 33.2106 2.74719L33.2094 2.74652C33.0285 2.65161 32.8205 2.62414 32.6188 2.66852C32.4172 2.7129 32.2336 2.82652 32.0978 2.99104L30.6716 4.72211L32.8035 4.97577Z" fill="#35BB18" stroke="#35BB18" stroke-width="0.25" stroke-linecap="round" stroke-linejoin="round"/>
<defs>
<clipPath id="clip0_15545_144418">
<rect width="34" height="34" fill="white" transform="translate(3 3)"/>
</clipPath>
</defs>
</svg>
