<svg width="40" height="40" viewBox="0 0 40 40" fill="none" xmlns="http://www.w3.org/2000/svg">
<g clip-path="url(#clip0_15679_144940)">
<mask id="mask0_15679_144940" style="mask-type:luminance" maskUnits="userSpaceOnUse" x="0" y="0" width="40" height="40">
<path d="M0 0.487793H40V39.5122H0V0.487793Z" fill="white"/>
</mask>
<g mask="url(#mask0_15679_144940)">
<path fill-rule="evenodd" clip-rule="evenodd" d="M2.91794 2.92682C2.80735 2.92682 2.70128 2.96968 2.62308 3.04597C2.54488 3.12227 2.50094 3.22575 2.50094 3.33365V14.7151C2.50094 14.9395 2.68794 15.1219 2.91794 15.1219H14.5839C14.8139 15.1219 15.0009 14.9395 15.0009 14.7151V3.33365C15.0009 3.22575 14.957 3.12227 14.8788 3.04597C14.8006 2.96968 14.6945 2.92682 14.5839 2.92682H2.91794ZM0.000944803 3.33365C0.000944803 2.57888 0.308271 1.85503 0.855314 1.32132C1.40236 0.787623 2.14431 0.487793 2.91794 0.487793H14.5839C15.3576 0.487793 16.0995 0.787623 16.6466 1.32132C17.1936 1.85503 17.5009 2.57888 17.5009 3.33365V14.7151C17.5009 15.4699 17.1936 16.1937 16.6466 16.7274C16.0995 17.2611 15.3576 17.561 14.5839 17.561H2.91794C2.14431 17.561 1.40236 17.2611 0.855314 16.7274C0.308271 16.1937 0.000944803 15.4699 0.000944803 14.7151V3.33365ZM31.2509 2.92682C29.5933 2.92682 28.0036 3.56924 26.8315 4.71275C25.6594 5.85627 25.0009 7.4072 25.0009 9.02438C25.0009 10.6416 25.6594 12.1925 26.8315 13.336C28.0036 14.4795 29.5933 15.1219 31.2509 15.1219C32.9085 15.1219 34.4983 14.4795 35.6704 13.336C36.8425 12.1925 37.5009 10.6416 37.5009 9.02438C37.5009 7.4072 36.8425 5.85627 35.6704 4.71275C34.4983 3.56924 32.9085 2.92682 31.2509 2.92682ZM22.5009 9.02438C22.5009 6.76033 23.4228 4.58902 25.0638 2.9881C26.7047 1.38718 28.9303 0.487793 31.2509 0.487793C33.5716 0.487793 35.7972 1.38718 37.4381 2.9881C39.0791 4.58902 40.0009 6.76033 40.0009 9.02438C40.0009 11.2884 39.0791 13.4597 37.4381 15.0607C35.7972 16.6616 33.5716 17.561 31.2509 17.561C28.9303 17.561 26.7047 16.6616 25.0638 15.0607C23.4228 13.4597 22.5009 11.2884 22.5009 9.02438ZM28.5859 21.6058C28.9035 21.4177 29.2571 21.2949 29.6251 21.2449C29.9931 21.1948 30.3676 21.2187 30.7258 21.315C31.084 21.4113 31.4182 21.578 31.708 21.8048C31.9978 22.0316 32.237 22.3139 32.4109 22.6341L39.6349 35.321C39.871 35.74 39.9966 36.2097 40.0006 36.6879C40.0046 37.166 39.8869 37.6377 39.6579 38.0605C39.428 38.4927 39.082 38.8559 38.6571 39.1114C38.2321 39.3669 37.7441 39.5051 37.2449 39.5112H22.7569C22.2577 39.5051 21.7695 39.367 21.3443 39.1115C20.9192 38.856 20.5731 38.4928 20.3429 38.0605C20.1142 37.6376 19.9967 37.1659 20.0009 36.6878C20.0051 36.2096 20.1309 35.74 20.3669 35.321L20.3699 35.3161L27.5909 22.6332C27.8209 22.2097 28.1649 21.8546 28.5859 21.6058ZM30.0009 23.6585C29.9595 23.6586 29.9188 23.6697 29.8834 23.6907C29.848 23.7116 29.8191 23.7417 29.7999 23.7775L29.7829 23.8068L22.5579 36.4966C22.5214 36.5619 22.502 36.636 22.5015 36.7104C22.501 36.7847 22.5193 36.8581 22.5549 36.9239L22.5619 36.9366C22.583 36.9765 22.6145 37.0102 22.6534 37.0342C22.6922 37.0582 22.737 37.0717 22.7829 37.0732H37.2179C37.2641 37.0718 37.309 37.0585 37.3481 37.0345C37.3871 37.0104 37.4189 36.9766 37.4399 36.9366L37.4469 36.9239C37.4827 36.8582 37.5012 36.7849 37.5009 36.7105C37.5005 36.6361 37.4813 36.5629 37.4449 36.4975L37.4439 36.4966L30.2179 23.8068C30.2124 23.7972 30.2071 23.7874 30.2019 23.7775C30.1828 23.7417 30.1539 23.7116 30.1185 23.6907C30.083 23.6697 30.0424 23.6586 30.0009 23.6585ZM7.66694 20.239C8.17829 20.0041 8.75521 19.9418 9.30684 20.0619C9.85848 20.182 10.3535 20.4777 10.7139 20.9024L16.8899 28.1161C17.2826 28.5767 17.4976 29.157 17.4976 29.7561C17.4976 30.3552 17.2826 30.9354 16.8899 31.3961L16.8879 31.398L10.7129 38.6078C10.474 38.8901 10.174 39.1175 9.83447 39.2735C9.49495 39.4296 9.12427 39.5105 8.74895 39.5105C8.37363 39.5105 8.00294 39.4296 7.66342 39.2735C7.32389 39.1175 7.02391 38.8901 6.78494 38.6078L0.607945 31.3951C0.215099 30.9345 0 30.3543 0 29.7551C0 29.1559 0.215099 28.5757 0.607945 28.1151L0.609945 28.1122L6.79094 20.9005C7.02994 20.6195 7.32894 20.3932 7.66694 20.2371V20.239ZM8.75195 22.441C8.74507 22.441 8.73828 22.4425 8.73206 22.4454C8.72584 22.4482 8.72034 22.4524 8.71595 22.4575L8.71095 22.4634L2.52994 29.6761C2.51075 29.6985 2.50023 29.7268 2.50023 29.7561C2.50023 29.7853 2.51075 29.8136 2.52994 29.8361L8.71294 37.0546C8.71955 37.0625 8.72868 37.0679 8.73885 37.07C8.74902 37.0721 8.75963 37.0708 8.76894 37.0663C8.77509 37.0636 8.78056 37.0596 8.78495 37.0546L8.78994 37.0488L14.9679 29.8361C14.9868 29.8135 14.9971 29.7852 14.9971 29.7561C14.9971 29.7269 14.9868 29.6987 14.9679 29.6761L8.78794 22.4566C8.7835 22.4515 8.77797 22.4475 8.77174 22.4448C8.76552 22.4421 8.75876 22.4408 8.75195 22.441Z" fill="#EDEDED"/>
</g>
</g>
<defs>
<clipPath id="clip0_15679_144940">
<rect width="40" height="40" fill="white"/>
</clipPath>
</defs>
</svg>
