<svg fill="none" height="41" width="40" xmlns="http://www.w3.org/2000/svg" xmlns:xlink="http://www.w3.org/1999/xlink"><clipPath id="a"><path d="m0 .5h40v40h-40z"/></clipPath><g clip-path="url(#a)"><path clip-rule="evenodd" d="m2.917 3a.417.417 0 0 0 -.417.417v11.666c0 .23.187.417.417.417h11.666c.23 0 .417-.187.417-.417v-11.666a.417.417 0 0 0 -.417-.417zm-2.917.417a2.917 2.917 0 0 1 2.917-2.917h11.666a2.917 2.917 0 0 1 2.917 2.917v11.666a2.917 2.917 0 0 1 -2.917 2.917h-11.666a2.917 2.917 0 0 1 -2.917-2.917zm31.25-.417a6.25 6.25 0 1 0 0 12.5 6.25 6.25 0 0 0 0-12.5zm-8.75 6.25a8.75 8.75 0 1 1 17.5 0 8.75 8.75 0 0 1 -17.5 0zm6.085 12.896a2.727 2.727 0 0 1 3.825 1.054l7.224 13.004a2.96 2.96 0 0 1 .023 2.808 2.758 2.758 0 0 1 -2.413 1.487h-14.488a2.759 2.759 0 0 1 -2.414-1.487 2.961 2.961 0 0 1 .024-2.808l.003-.005 7.221-13c.23-.434.574-.799.995-1.054zm1.415 2.104a.227.227 0 0 0 -.201.122l-.017.03-7.225 13.007v.001a.462.462 0 0 0 -.003.437l.007.013a.258.258 0 0 0 .221.14h14.435a.258.258 0 0 0 .222-.14l.007-.013a.462.462 0 0 0 -.002-.437l-.001-.001-7.226-13.007a.975.975 0 0 1 -.016-.03.227.227 0 0 0 -.201-.122zm-22.334-3.505a2.547 2.547 0 0 1 3.047.68l6.176 7.394a2.629 2.629 0 0 1 0 3.362l-.002.002-6.175 7.39a2.547 2.547 0 0 1 -3.928 0l-6.177-7.393a2.628 2.628 0 0 1 0-3.362l.002-.003 6.181-7.392c.239-.288.538-.52.876-.68zm1.085 2.257a.047.047 0 0 0 -.036.017l-.005.006-6.181 7.393a.128.128 0 0 0 0 .164l6.183 7.399a.046.046 0 0 0 .056.012.046.046 0 0 0 .016-.012l.005-.006 6.178-7.393a.13.13 0 0 0 0-.164l-6.18-7.4a.046.046 0 0 0 -.036-.016z" fill="var(--e-color-icon-stroke-1)" fill-rule="evenodd"/></g></svg>