<svg fill="none" height="40" width="40" xmlns="http://www.w3.org/2000/svg"><g clip-rule="evenodd" fill="var(--e-color-icon-stroke-1)" fill-rule="evenodd"><path d="m15 27.5c.69 0 1.25.56 1.25 1.25v3.75a1.25 1.25 0 0 0 1.25 1.25h5a1.25 1.25 0 0 0 1.25-1.25v-3.75a1.25 1.25 0 1 1 2.5 0v3.75a3.75 3.75 0 0 1 -3.75 3.75h-5a3.75 3.75 0 0 1 -3.75-3.75v-3.75c0-.69.56-1.25 1.25-1.25zm5-27.5c.69 0 1.25.56 1.25 1.25v2.5a1.25 1.25 0 1 1 -2.5 0v-2.5c0-.69.56-1.25 1.25-1.25zm-18.75 18.75c0-.69.56-1.25 1.25-1.25h2.5a1.25 1.25 0 1 1 0 2.5h-2.5c-.69 0-1.25-.56-1.25-1.25zm4.099-13.366a1.25 1.25 0 0 1 1.767-.035l1.834 1.761a1.25 1.25 0 0 1 -1.732 1.803l-1.834-1.762a1.25 1.25 0 0 1 -.035-1.767zm28.401 13.366c0-.69.56-1.25 1.25-1.25h2.5a1.25 1.25 0 1 1 0 2.5h-2.5c-.69 0-1.25-.56-1.25-1.25zm.9-13.366a1.25 1.25 0 0 1 -.035 1.767l-1.833 1.762a1.25 1.25 0 1 1 -1.732-1.803l1.833-1.761a1.25 1.25 0 0 1 1.768.035z"/><path d="m19.979 6.25h.044a12.705 12.705 0 0 1 12.478 12.478v.005a12.251 12.251 0 0 1 -6.803 11.137 1.25 1.25 0 0 1 -.555.13h-10.284c-.209 0-.406-.051-.58-.142a12.25 12.25 0 0 1 -6.777-11.118v-.006a12.705 12.705 0 0 1 12.478-12.484zm-4.817 21.25h9.678a9.75 9.75 0 0 0 5.161-8.73 10.205 10.205 0 0 0 -10-10.02 10.205 10.205 0 0 0 -10 10.025 9.75 9.75 0 0 0 5.16 8.725zm4.838 6.25c.69 0 1.25.56 1.25 1.25v3.75a1.25 1.25 0 1 1 -2.5 0v-3.75c0-.69.56-1.25 1.25-1.25z"/><path d="m20 21.25c.69 0 1.25.56 1.25 1.25v6.25a1.25 1.25 0 1 1 -2.5 0v-6.25c0-.69.56-1.25 1.25-1.25z"/><path d="m15.366 17.866a1.25 1.25 0 0 1 1.768 0l2.866 2.866 2.866-2.866a1.25 1.25 0 0 1 1.768 1.768l-3.75 3.75a1.25 1.25 0 0 1 -1.768 0l-3.75-3.75a1.25 1.25 0 0 1 0-1.768z"/></g></svg>