<svg width="40" height="40" viewBox="0 0 40 40" fill="none" xmlns="http://www.w3.org/2000/svg">
<g clip-path="url(#clip0)">
<path d="M3.75 17.7267C5.81833 17.7267 7.5 19.4083 7.5 21.4767L7.5 24.5117C7.84833 24.4017 8.21166 24.345 8.57833 24.345C9.83333 24.345 11.0133 25.0117 11.6567 26.085L13.5283 28.8917C14.4917 30.3333 15.0017 32.015 15 33.7517L15 38.75C15 39.44 14.44 40 13.75 40C13.06 40 12.5 39.44 12.5 38.75L12.5 33.75C12.5017 32.5083 12.1367 31.3083 11.4483 30.2783L9.545 27.42C9.32166 27.05 8.96666 26.845 8.57666 26.845C8.38333 26.845 8.195 26.8983 8.02666 26.9983L7.97 27.035C7.54 27.3217 7.37833 27.9 7.6 28.3817L9.82166 32.085C9.99333 32.3717 10.0433 32.7067 9.96166 33.0317C9.88 33.355 9.67833 33.6283 9.39166 33.8C9.19833 33.9167 8.975 33.9783 8.75 33.9783C8.31333 33.9783 7.90167 33.745 7.67667 33.3717L5.42667 29.6217C5.41333 29.6 5.39666 29.5717 5.38333 29.5417C5.11666 29.01 4.985 28.4167 5.005 27.8217C5.00167 27.7883 5 27.7583 5 27.7267L5 21.4767C5 20.7867 4.44 20.2267 3.75 20.2267C3.06 20.2267 2.5 20.7867 2.5 21.4767L2.5 30.095C2.5 31.51 2.98667 32.8967 3.87 34.0017L7.205 37.9433C7.42 38.1983 7.52333 38.5217 7.49666 38.855C7.46833 39.1883 7.31333 39.49 7.05833 39.705C6.83333 39.895 6.54666 40 6.25166 40C5.88333 40 5.535 39.8383 5.29666 39.5583L1.94 35.59C0.684997 34.0217 -2.1682e-06 32.075 -1.9951e-06 30.095L-1.24166e-06 21.4767C-1.06084e-06 19.4083 1.68167 17.7267 3.75 17.7267Z" fill="black"/>
<path d="M36.25 17.7267C38.3183 17.7267 40 19.4083 40 21.4767L40 30.095C40 32.075 39.32 34.0167 38.0833 35.5633L34.705 39.5583C34.4667 39.8383 34.1183 40 33.75 40C33.455 40 33.1683 39.895 32.9433 39.705C32.6883 39.49 32.5333 39.1883 32.505 38.855C32.4767 38.5217 32.58 38.1983 32.7967 37.9433L36.1533 33.975C37.0183 32.8917 37.5 31.51 37.5 30.095L37.5 21.4767C37.5 20.7883 36.94 20.2267 36.25 20.2267C35.56 20.2267 35 20.7883 35 21.4767L35 27.7267C35 27.7583 34.9983 27.79 34.995 27.82C35.0133 28.4167 34.8833 29.01 34.6167 29.5383C34.6033 29.565 34.5883 29.5933 34.5717 29.62L32.3217 33.37C32.0967 33.745 31.6867 33.9767 31.25 33.9767C31.0233 33.9767 30.8017 33.915 30.6067 33.7983C30.0167 33.4433 29.8233 32.675 30.1783 32.0833L32.4 28.38C32.6217 27.9 32.46 27.32 32.0167 27.025L31.9583 26.9883C31.805 26.8967 31.6133 26.8433 31.4183 26.8433C31.33 26.8433 31.24 26.855 31.1517 26.8767C30.8717 26.9467 30.635 27.1217 30.4867 27.37L28.5517 30.2767C27.8633 31.3083 27.4983 32.51 27.5 33.7483L27.5 38.75C27.5 39.44 26.94 40 26.25 40C25.56 40 25 39.44 25 38.75L25 33.75C24.9983 32.015 25.5067 30.3333 26.4717 28.8883L28.375 26.0333C28.84 25.255 29.6167 24.6833 30.5467 24.45C30.8333 24.3783 31.1283 24.3417 31.4217 24.3417C31.7883 24.3417 32.1517 24.3983 32.5 24.51L32.5 21.4767C32.5 19.4083 34.1817 17.7267 36.25 17.7267Z" fill="black"/>
<path fill-rule="evenodd" clip-rule="evenodd" d="M18.0616 6.27321C17.3014 5.99822 16.4925 5.92938 15.7025 6.0732C13.8153 6.42897 12.4636 8.23696 12.0236 9.09647C11.5579 10.139 11.3978 11.3164 11.5636 12.4632C11.7286 13.6042 12.209 14.6639 12.9431 15.4917L18.931 22.4931C19.2031 22.8113 19.5881 23 19.9999 23C20.4116 23 20.7966 22.8113 21.0687 22.4931L27.0567 15.4916C27.7906 14.6638 28.2709 13.6044 28.4361 12.4637C28.6022 11.317 28.4426 10.1397 27.9775 9.09696C27.6262 8.30928 27.1112 7.62252 26.472 7.09563C25.8325 6.56855 25.0875 6.21698 24.2977 6.07321C23.5077 5.92942 22.6988 5.99825 21.9385 6.27321C21.209 6.53703 20.5465 6.98258 19.9999 7.57208C19.4533 6.98254 18.791 6.53706 18.0616 6.27321ZM17.1416 9.30896C16.8317 9.19687 16.5038 9.16923 16.1838 9.22749C15.8636 9.28577 15.5574 9.42898 15.291 9.64865C15.0244 9.86849 14.8048 10.159 14.6534 10.4987C14.4523 10.9489 14.3812 11.4628 14.4536 11.9635C14.526 12.4642 14.7366 12.9212 15.0493 13.2715L15.0536 13.2763L15.071 13.2962L19.9999 19.0594L24.9329 13.2914L24.9502 13.2716C25.263 12.9212 25.4737 12.4641 25.5463 11.9632C25.6189 11.4622 25.5485 10.9494 25.3476 10.4991C25.1961 10.1593 24.9764 9.86865 24.7097 9.64876C24.4431 9.42905 24.1368 9.28582 23.8165 9.22752C23.4964 9.16925 23.1683 9.1969 22.8583 9.30901C22.5482 9.42117 22.2626 9.61562 22.0267 9.87992L21.0474 10.9775C20.7764 11.2813 20.4004 11.46 19.9999 11.46C19.5993 11.46 19.2234 11.2813 18.9524 10.9775L17.9731 9.87994C17.7372 9.6156 17.4517 9.42112 17.1416 9.30896Z" fill="black"/>
<path d="M18.0616 6.27321L18.1466 6.03812V6.03812L18.0616 6.27321ZM15.7025 6.0732L15.6578 5.82723L15.6562 5.82752L15.7025 6.0732ZM19.9999 7.57208L19.8165 7.74205C19.8638 7.79308 19.9303 7.82208 19.9999 7.82208C20.0694 7.82209 20.1359 7.79309 20.1832 7.74207L19.9999 7.57208ZM21.9385 6.27321L22.0235 6.50831V6.50831L21.9385 6.27321ZM24.2977 6.07321L24.3424 5.82725V5.82725L24.2977 6.07321ZM26.472 7.09563L26.631 6.90272V6.90272L26.472 7.09563ZM27.9775 9.09696L27.7492 9.1988L27.7492 9.19881L27.9775 9.09696ZM28.4361 12.4637L28.1887 12.4279L28.4361 12.4637ZM27.0567 15.4916L26.8696 15.3257L26.8667 15.3291L27.0567 15.4916ZM21.0687 22.4931L21.2587 22.6556L21.0687 22.4931ZM18.931 22.4931L18.741 22.6556H18.741L18.931 22.4931ZM12.9431 15.4917L13.1331 15.3292L13.1301 15.3258L12.9431 15.4917ZM11.5636 12.4632L11.8111 12.4274L11.5636 12.4632ZM12.0236 9.09647L11.8007 8.9824L11.7953 8.9945L12.0236 9.09647ZM16.1838 9.22749L16.139 8.98153L16.1838 9.22749ZM17.1416 9.30896L17.2266 9.07387L17.1416 9.30896ZM15.291 9.64865L15.45 9.84154L15.291 9.64865ZM14.6534 10.4987L14.8817 10.6007L14.8818 10.6005L14.6534 10.4987ZM14.4536 11.9635L14.701 11.9277V11.9277L14.4536 11.9635ZM15.0493 13.2715L15.2358 13.105L15.2358 13.105L15.0493 13.2715ZM15.0536 13.2763L15.2421 13.112L15.2401 13.1098L15.0536 13.2763ZM15.071 13.2962L15.261 13.1337L15.2595 13.132L15.071 13.2962ZM19.9999 19.0594L19.8099 19.2218C19.8574 19.2774 19.9268 19.3094 19.9999 19.3094C20.0729 19.3094 20.1424 19.2774 20.1899 19.2218L19.9999 19.0594ZM24.9329 13.2914L24.7448 13.1267L24.7429 13.1289L24.9329 13.2914ZM24.9502 13.2716L24.7637 13.1052L24.7622 13.1069L24.9502 13.2716ZM25.5463 11.9632L25.7937 11.999L25.5463 11.9632ZM25.3476 10.4991L25.1193 10.6009L25.1193 10.6009L25.3476 10.4991ZM24.7097 9.64876L24.8687 9.45585V9.45585L24.7097 9.64876ZM23.8165 9.22752L23.8613 8.98156L23.8165 9.22752ZM22.8583 9.30901L22.7733 9.07391H22.7733L22.8583 9.30901ZM22.0267 9.87992L21.8402 9.71343L21.8401 9.71349L22.0267 9.87992ZM21.0474 10.9775L20.8608 10.8111V10.8111L21.0474 10.9775ZM18.9524 10.9775L18.7658 11.144V11.144L18.9524 10.9775ZM17.9731 9.87994L18.1596 9.7135L18.1596 9.7135L17.9731 9.87994ZM18.1466 6.03812C17.3452 5.74824 16.4915 5.67544 15.6578 5.82724L15.7473 6.31915C16.4934 6.18333 17.2575 6.24821 17.9766 6.50831L18.1466 6.03812ZM20.1832 7.40212C19.6109 6.78478 18.9154 6.31618 18.1466 6.03812L17.9766 6.50831C18.6667 6.75793 19.2958 7.1803 19.8165 7.74205L20.1832 7.40212ZM21.8535 6.03811C21.0847 6.31614 20.389 6.78482 19.8166 7.4021L20.1832 7.74207C20.7041 7.18035 21.3333 6.75791 22.0235 6.50831L21.8535 6.03811ZM24.3424 5.82725C23.5086 5.67548 22.6549 5.74827 21.8535 6.03811L22.0235 6.50831C22.7426 6.24824 23.5068 6.18337 24.2529 6.31917L24.3424 5.82725ZM26.631 6.90272C25.96 6.34965 25.176 5.97898 24.3424 5.82725L24.2529 6.31917C24.999 6.45498 25.705 6.78746 26.3129 7.28854L26.631 6.90272ZM28.2058 8.99513C27.8396 8.174 27.3016 7.45547 26.631 6.90272L26.3129 7.28854C26.9208 7.78957 27.4128 8.44455 27.7492 9.1988L28.2058 8.99513ZM28.6835 12.4996C28.8563 11.307 28.6906 10.0819 28.2058 8.99512L27.7492 9.19881C28.1947 10.1975 28.3482 11.3271 28.1887 12.4279L28.6835 12.4996ZM27.2438 15.6575C28.0117 14.7912 28.5117 13.6859 28.6835 12.4996L28.1887 12.4279C28.0301 13.5229 27.5694 14.5365 26.8697 15.3258L27.2438 15.6575ZM21.2587 22.6556L27.2467 15.6541L26.8667 15.3291L20.8787 22.3306L21.2587 22.6556ZM19.9999 23.25C20.49 23.25 20.9426 23.0251 21.2587 22.6556L20.8787 22.3306C20.6506 22.5974 20.3332 22.75 19.9999 22.75V23.25ZM18.741 22.6556C19.0571 23.0251 19.5097 23.25 19.9999 23.25V22.75C19.6665 22.75 19.3492 22.5974 19.121 22.3306L18.741 22.6556ZM12.7531 15.6542L18.741 22.6556L19.121 22.3306L13.1331 15.3292L12.7531 15.6542ZM11.3162 12.4989C11.4878 13.6856 11.9878 14.7912 12.756 15.6576L13.1301 15.3258C12.4302 14.5365 11.9695 13.5227 11.8111 12.4274L11.3162 12.4989ZM11.7953 8.9945C11.3099 10.081 11.1437 11.3062 11.3162 12.4989L11.8111 12.4274C11.6518 11.3265 11.8058 10.1969 12.2519 9.19845L11.7953 8.9945ZM16.2285 9.47345C16.5047 9.42317 16.7879 9.44686 17.0566 9.54405L17.2266 9.07387C16.8756 8.94689 16.5028 8.91529 16.139 8.98153L16.2285 9.47345ZM15.45 9.84154C15.6849 9.64788 15.9521 9.52377 16.2285 9.47345L16.139 8.98153C15.7751 9.04778 15.43 9.21008 15.132 9.45576L15.45 9.84154ZM14.8818 10.6005C15.0183 10.2943 15.2148 10.0355 15.45 9.84154L15.132 9.45576C14.834 9.70147 14.5914 10.0238 14.4251 10.3969L14.8818 10.6005ZM14.701 11.9277C14.6353 11.4731 14.7001 11.007 14.8817 10.6007L14.4252 10.3967C14.2044 10.8908 14.1271 11.4526 14.2062 11.9993L14.701 11.9277ZM15.2358 13.105C14.9576 12.7933 14.7668 12.3825 14.701 11.9277L14.2062 11.9993C14.2852 12.5459 14.5156 13.0491 14.8628 13.438L15.2358 13.105ZM15.2401 13.1098L15.2358 13.105L14.8628 13.438L14.8671 13.4428L15.2401 13.1098ZM20.1899 18.8969L15.261 13.1337L14.881 13.4587L19.8099 19.2218L20.1899 18.8969ZM25.2989 11.9273C25.2329 12.3823 25.0421 12.7933 24.7637 13.1052L25.1367 13.4381C25.4839 13.049 25.7145 12.5458 25.7937 11.999L25.2989 11.9273ZM25.1193 10.6009C25.3006 11.0073 25.3648 11.4722 25.2989 11.9273L25.7937 11.999C25.8729 11.4521 25.7965 10.8916 25.576 10.3972L25.1193 10.6009ZM24.5507 9.84167C24.786 10.0357 24.9827 10.2946 25.1193 10.6009L25.576 10.3972C25.4095 10.024 25.1668 9.70159 24.8687 9.45585L24.5507 9.84167ZM23.7718 9.47348C24.0483 9.52382 24.3156 9.64796 24.5507 9.84168L24.8687 9.45585C24.5706 9.21014 24.2253 9.04781 23.8613 8.98156L23.7718 9.47348ZM22.9434 9.54411C23.2122 9.44689 23.4955 9.42319 23.7718 9.47348L23.8613 8.98156C23.4973 8.91531 23.1245 8.94692 22.7733 9.07391L22.9434 9.54411ZM22.2132 10.0464C22.4229 9.81146 22.6742 9.64147 22.9434 9.54411L22.7733 9.07391C22.4223 9.20088 22.1023 9.41978 21.8402 9.71343L22.2132 10.0464ZM21.2339 11.144L22.2132 10.0464L21.8401 9.71349L20.8608 10.8111L21.2339 11.144ZM19.9999 11.71C20.4766 11.71 20.9188 11.4971 21.2339 11.144L20.8608 10.8111C20.6339 11.0655 20.3243 11.21 19.9999 11.21V11.71ZM18.7658 11.144C19.0809 11.4971 19.5231 11.71 19.9999 11.71V11.21C19.6755 11.21 19.3659 11.0655 19.1389 10.8111L18.7658 11.144ZM17.7865 10.0464L18.7658 11.144L19.1389 10.8111L18.1596 9.7135L17.7865 10.0464ZM17.0566 9.54405C17.3257 9.6414 17.5769 9.81141 17.7865 10.0464L18.1596 9.7135C17.8976 9.41979 17.5777 9.20084 17.2266 9.07387L17.0566 9.54405ZM15.2595 13.132L15.2421 13.112L14.8651 13.4405L14.8825 13.4605L15.2595 13.132ZM24.7429 13.1289L19.8099 18.8969L20.1899 19.2218L25.1229 13.4539L24.7429 13.1289ZM24.7622 13.1069L24.7448 13.1267L25.1209 13.4561L25.1383 13.4364L24.7622 13.1069ZM12.2461 9.21039C12.4541 8.80405 12.8857 8.15993 13.4935 7.57625C14.1017 6.99217 14.8694 6.48466 15.7489 6.31887L15.6562 5.82752C14.6485 6.01751 13.7967 6.59188 13.1472 7.21562C12.4973 7.83975 12.033 8.52938 11.8011 8.98256L12.2461 9.21039Z" fill="white"/>
<path d="M7.98934 9.13448C8.15704 6.69013 10.5199 2.88612 14.8651 2.74599" stroke="#29D305" stroke-width="2.25" stroke-linecap="round" stroke-linejoin="round"/>
<path d="M32.1516 9.39022C31.9772 6.84801 29.5197 2.89169 25.0006 2.74595" stroke="#29D305" stroke-width="2.25" stroke-linecap="round" stroke-linejoin="round"/>
</g>
<defs>
<clipPath id="clip0">
<rect width="40" height="40" fill="white"/>
</clipPath>
</defs>
</svg>
