<svg fill="none" height="407" width="733" xmlns="http://www.w3.org/2000/svg" xmlns:xlink="http://www.w3.org/1999/xlink"><clipPath id="a"><path d="m0 0h24v24h-24z" transform="translate(181 137)"/></clipPath><path d="m52.16 11.4c0 .8-.15 1.557-.448 2.272a5.664 5.664 0 0 1 -1.2 1.84 5.55 5.55 0 0 1 -1.792 1.216 5.56 5.56 0 0 1 -2.224.448c-.79 0-1.53-.15-2.224-.448a5.74 5.74 0 0 1 -1.808-1.216 6.035 6.035 0 0 1 -1.2-1.84 6.021 6.021 0 0 1 -.432-2.272c0-.8.144-1.552.432-2.256a5.787 5.787 0 0 1 1.2-1.84 5.609 5.609 0 0 1 4.032-1.68c.79 0 1.53.15 2.224.448.693.299 1.29.71 1.792 1.232a5.446 5.446 0 0 1 1.2 1.84c.299.704.448 1.456.448 2.256zm-1.968 0c0-.576-.096-1.11-.288-1.6a3.833 3.833 0 0 0 -.768-1.296 3.538 3.538 0 0 0 -1.168-.848 3.343 3.343 0 0 0 -1.456-.32c-.523 0-1.013.107-1.472.32a3.538 3.538 0 0 0 -1.168.848 4.05 4.05 0 0 0 -.784 1.296 4.353 4.353 0 0 0 -.288 1.6c0 .576.096 1.115.288 1.616.192.49.453.917.784 1.28.33.352.72.635 1.168.848a3.6 3.6 0 0 0 1.472.304 3.49 3.49 0 0 0 1.456-.304 3.867 3.867 0 0 0 1.168-.848c.33-.363.587-.79.768-1.28a4.48 4.48 0 0 0 .288-1.616zm3.897 5.6v-8.016h1.808v1.744c.213-.608.506-1.072.88-1.392.384-.33.826-.496 1.328-.496.15.01.282.027.4.048.117.021.245.059.384.112v1.584a1.955 1.955 0 0 0 -.48-.144 2.773 2.773 0 0 0 -.512-.048 2.06 2.06 0 0 0 -1.168.352c-.352.235-.63.56-.832.976v5.28zm9.154.048c-.501 0-.976-.107-1.424-.32a3.74 3.74 0 0 1 -1.168-.864 4.26 4.26 0 0 1 -.768-1.28 4.666 4.666 0 0 1 -.272-1.6c0-.565.096-1.099.288-1.6a4.05 4.05 0 0 1 .784-1.296 3.664 3.664 0 0 1 1.2-.848c.459-.213.95-.32 1.472-.32.459 0 .891.096 1.296.288.406.181.758.448 1.056.8v-1.024h1.793v8.288c0 1.024-.33 1.813-.992 2.368-.65.555-1.578.832-2.784.832-.576 0-1.141-.07-1.696-.208a6.46 6.46 0 0 1 -1.52-.56l.64-1.344c.459.235.891.405 1.296.512.406.117.806.176 1.2.176.672 0 1.179-.155 1.52-.464.352-.299.528-.736.528-1.312v-1.36c-.277.352-.634.63-1.072.832a3.166 3.166 0 0 1 -1.376.304zm-1.84-4.064c0 .725.23 1.333.688 1.824a2.23 2.23 0 0 0 1.696.736c.384 0 .736-.075 1.056-.224.331-.15.614-.368.848-.656v-3.36a2.469 2.469 0 0 0 -.848-.624c-.33-.16-.682-.24-1.056-.24-.682 0-1.253.24-1.712.72-.448.48-.672 1.088-.672 1.824zm10.758 4.144c-.832 0-1.514-.224-2.048-.672-.522-.459-.784-1.045-.784-1.76s.272-1.285.816-1.712c.555-.427 1.302-.64 2.24-.64.374 0 .736.043 1.088.128.352.075.71.197 1.072.368v-.88c0-.523-.154-.917-.464-1.184-.309-.277-.768-.416-1.376-.416-.33 0-.688.053-1.072.16-.384.096-.805.25-1.264.464l-.64-1.312a8.961 8.961 0 0 1 1.712-.608 6.522 6.522 0 0 1 1.616-.208c1.035 0 1.84.256 2.416.768.576.501.864 1.216.864 2.144v5.232h-1.792v-.816c-.362.33-.736.57-1.12.72a3.46 3.46 0 0 1 -1.264.224zm-1.136-2.464c0 .363.15.656.448.88.299.213.694.32 1.184.32.363 0 .699-.053 1.008-.16.32-.107.614-.272.88-.496v-1.312a3.399 3.399 0 0 0 -.88-.288 4.66 4.66 0 0 0 -.976-.096c-.512 0-.917.107-1.216.32a.954.954 0 0 0 -.448.832zm7.501 2.336v-8.016h1.808v1.312c.299-.47.662-.827 1.088-1.072a2.924 2.924 0 0 1 1.456-.368c.81 0 1.472.272 1.984.816.523.533.784 1.216.784 2.048v5.28h-1.808v-4.768c0-.576-.16-1.04-.48-1.392s-.746-.528-1.28-.528c-.362 0-.693.085-.992.256-.288.16-.538.395-.752.704v5.728zm10.209-9.648a1.12 1.12 0 0 1 -.8-.32 1.066 1.066 0 0 1 -.32-.784c0-.299.112-.56.336-.784s.485-.336.784-.336c.31 0 .576.112.8.336s.336.485.336.784c0 .31-.112.57-.336.784-.214.213-.48.32-.8.32zm.912 1.632v8.016h-1.808v-8.016zm1.727 8.016v-1.328l4.128-5.136-4.096.016v-1.568h6.32v1.328l-4.16 5.152 4.256-.016v1.552zm10.647.128c-.832 0-1.515-.224-2.048-.672-.523-.459-.784-1.045-.784-1.76s.272-1.285.816-1.712c.554-.427 1.301-.64 2.24-.64.373 0 .736.043 1.088.128.352.075.709.197 1.072.368v-.88c0-.523-.155-.917-.464-1.184-.31-.277-.768-.416-1.376-.416-.331 0-.688.053-1.072.16-.384.096-.806.25-1.264.464l-.64-1.312a8.96 8.96 0 0 1 1.712-.608 6.519 6.519 0 0 1 1.616-.208c1.034 0 1.84.256 2.416.768.576.501.864 1.216.864 2.144v5.232h-1.792v-.816c-.363.33-.736.57-1.12.72s-.806.224-1.264.224zm-1.136-2.464c0 .363.149.656.448.88.298.213.693.32 1.184.32.362 0 .698-.053 1.008-.16.32-.107.613-.272.88-.496v-1.312a3.406 3.406 0 0 0 -.88-.288 4.661 4.661 0 0 0 -.976-.096c-.512 0-.918.107-1.216.32a.954.954 0 0 0 -.448.832zm8.258.224v-4.464h-1.616v-1.44h1.616v-2.208l1.808-.384v2.592h2.24v1.44h-2.24v4.064c0 .395.086.677.256.848.171.16.459.24.864.24.182 0 .347-.01.496-.032.16-.032.358-.085.592-.16v1.52a4.058 4.058 0 0 1 -.784.16 5.065 5.065 0 0 1 -.768.064c-.8 0-1.413-.187-1.84-.56-.416-.384-.624-.944-.624-1.68zm6.529-7.536a1.12 1.12 0 0 1 -.8-.32 1.067 1.067 0 0 1 -.32-.784c0-.299.112-.56.336-.784s.486-.336.784-.336c.31 0 .576.112.8.336s.336.485.336.784c0 .31-.112.57-.336.784-.213.213-.48.32-.8.32zm.912 1.632v8.016h-1.808v-8.016zm1.856 4.016c0-.587.101-1.13.303-1.632.214-.512.497-.95.849-1.312a3.963 3.963 0 0 1 2.88-1.2 3.97 3.97 0 0 1 2.88 1.2c.362.363.645.8.848 1.312.202.501.303 1.045.303 1.632s-.106 1.136-.319 1.648a4.004 4.004 0 0 1 -.848 1.328c-.352.363-.779.65-1.28.864a3.932 3.932 0 0 1 -1.584.32 3.963 3.963 0 0 1 -2.88-1.2 4.425 4.425 0 0 1 -.849-1.312 4.45 4.45 0 0 1 -.303-1.648zm4.032 2.592c.65 0 1.184-.245 1.6-.736.426-.49.64-1.104.64-1.84 0-.757-.214-1.381-.64-1.872-.427-.49-.96-.736-1.6-.736-.651 0-1.19.245-1.616.736-.416.49-.624 1.115-.624 1.872 0 .747.208 1.365.624 1.856.426.48.965.72 1.616.72zm5.898 1.408v-8.016h1.808v1.312c.299-.47.661-.827 1.088-1.072a2.925 2.925 0 0 1 1.456-.368c.811 0 1.472.272 1.984.816.523.533.784 1.216.784 2.048v5.28h-1.808v-4.768c0-.576-.16-1.04-.48-1.392s-.747-.528-1.28-.528c-.363 0-.693.085-.992.256-.288.16-.539.395-.752.704v5.728zm12.906 0v-8.016h1.808v1.312c.299-.47.662-.827 1.088-1.072a2.927 2.927 0 0 1 1.456-.368c.811 0 1.472.272 1.984.816.523.533.784 1.216.784 2.048v5.28h-1.808v-4.768c0-.576-.16-1.04-.48-1.392s-.746-.528-1.28-.528c-.362 0-.693.085-.992.256-.288.16-.538.395-.752.704v5.728zm10.995-8.016v4.768c0 .576.16 1.04.48 1.392s.746.528 1.28.528c.362 0 .693-.08.992-.24.298-.17.554-.421.768-.752v-5.696h1.808v8.016h-1.808v-1.328c-.299.47-.667.832-1.104 1.088a2.87 2.87 0 0 1 -1.456.368c-.811 0-1.478-.267-2-.8-.512-.533-.768-1.221-.768-2.064v-5.28zm7.552 8.016v-8.016h1.808v1.28c.299-.459.645-.805 1.04-1.04a2.544 2.544 0 0 1 1.344-.368c.533 0 1.008.144 1.424.432.416.277.725.65.928 1.12.299-.512.672-.896 1.12-1.152.459-.267.971-.4 1.536-.4.768 0 1.397.272 1.888.816s.736 1.243.736 2.096v5.232h-1.808v-4.848c0-.555-.149-.997-.448-1.328-.288-.341-.677-.512-1.168-.512-.331 0-.629.08-.896.24a2.36 2.36 0 0 0 -.72.704 2 2 0 0 1 .016.256 2 2 0 0 1 .016.256v5.232h-1.808v-4.848c0-.555-.149-.997-.448-1.328-.288-.341-.677-.512-1.168-.512-.32 0-.613.08-.88.24-.267.15-.501.373-.704.672v5.776zm21.92-4c0 .565-.096 1.099-.288 1.6a3.91 3.91 0 0 1 -.8 1.296c-.342.363-.742.65-1.2.864-.459.213-.95.32-1.472.32-.47 0-.912-.096-1.328-.288a2.895 2.895 0 0 1 -1.04-.832v1.04h-1.776v-11.44l1.808-.304v4.8c.277-.352.629-.63 1.056-.832a3.304 3.304 0 0 1 1.408-.304c.501 0 .976.107 1.424.32s.832.507 1.152.88c.33.363.586.795.768 1.296.192.49.288 1.019.288 1.584zm-4.176-2.56a2.61 2.61 0 0 0 -1.088.224 2.27 2.27 0 0 0 -.832.672v3.344c.234.277.517.496.848.656.33.15.688.224 1.072.224.682 0 1.248-.24 1.696-.72.458-.49.688-1.104.688-1.84 0-.725-.23-1.333-.688-1.824a2.23 2.23 0 0 0 -1.696-.736zm12.996 5.536a5.295 5.295 0 0 1 -1.504.896 4.663 4.663 0 0 1 -1.68.288 4.044 4.044 0 0 1 -2.896-1.2 4.192 4.192 0 0 1 -.864-1.328 4.206 4.206 0 0 1 -.32-1.632c0-.587.096-1.13.288-1.632.203-.512.475-.95.816-1.312a3.839 3.839 0 0 1 1.248-.88c.48-.213.997-.32 1.552-.32.544 0 1.045.107 1.504.32.469.203.869.485 1.2.848.341.363.608.8.8 1.312.192.501.288 1.05.288 1.648v.448h-5.92c.085.63.352 1.152.8 1.568.459.416.992.624 1.6.624.373 0 .725-.064 1.056-.192.341-.139.624-.325.848-.56zm-3.376-5.648a1.88 1.88 0 0 0 -1.36.544c-.373.363-.613.848-.72 1.456h4.176c-.107-.587-.352-1.067-.736-1.44a1.852 1.852 0 0 0 -1.36-.56zm5.652 6.672v-8.016h1.808v1.744c.213-.608.506-1.072.88-1.392.384-.33.826-.496 1.328-.496.149.01.282.027.4.048.117.021.245.059.384.112v1.584a1.963 1.963 0 0 0 -.48-.144 2.78 2.78 0 0 0 -.512-.048 2.06 2.06 0 0 0 -1.168.352c-.352.235-.63.56-.832.976v5.28z" fill="#000"/><path d="m202.794 13.064c0-1.643.325-3.104.976-4.384a7.808 7.808 0 0 1 2.816-3.072l.608.816c-1.046.64-1.856 1.541-2.432 2.704-.566 1.163-.848 2.475-.848 3.936s.282 2.773.848 3.936c.576 1.163 1.386 2.064 2.432 2.704l-.608.8a7.667 7.667 0 0 1 -2.816-3.072c-.651-1.28-.976-2.736-.976-4.368zm6.038.032c0-.576.096-1.11.288-1.6s.454-.917.784-1.28a3.631 3.631 0 0 1 1.216-.848c.47-.203.971-.304 1.504-.304.544 0 1.046.101 1.504.304.47.203.875.485 1.216.848.342.363.608.79.8 1.28s.288 1.024.288 1.6-.101 1.115-.304 1.616a3.894 3.894 0 0 1 -.8 1.296c-.33.352-.73.635-1.2.848-.469.203-.97.304-1.504.304a3.756 3.756 0 0 1 -1.504-.304 3.891 3.891 0 0 1 -1.2-.864 4.358 4.358 0 0 1 -.8-1.28 4.48 4.48 0 0 1 -.288-1.616zm3.792 3.024c.758 0 1.387-.283 1.888-.848.512-.576.768-1.296.768-2.16s-.256-1.584-.768-2.16c-.501-.576-1.13-.864-1.888-.864-.757 0-1.386.288-1.888.864-.501.576-.752 1.296-.752 2.16s.251 1.584.752 2.16a2.419 2.419 0 0 0 1.888.848zm5.857 4.224v-11.152h1.152v1.12a2.935 2.935 0 0 1 1.088-.896c.438-.213.918-.32 1.44-.32.502 0 .971.107 1.408.32a3.37 3.37 0 0 1 1.152.848c.32.352.571.773.752 1.264.192.49.288 1.013.288 1.568 0 .565-.096 1.093-.288 1.584-.181.49-.437.917-.768 1.28-.33.352-.72.635-1.168.848a3.452 3.452 0 0 1 -1.44.304c-.49 0-.949-.09-1.376-.272a3.09 3.09 0 0 1 -1.072-.816v4.32zm3.392-10.224a2.89 2.89 0 0 0 -1.28.288 2.416 2.416 0 0 0 -.944.784v3.824c.256.341.576.608.96.8.395.192.816.288 1.264.288.779 0 1.43-.283 1.952-.848.523-.576.784-1.29.784-2.144 0-.853-.261-1.563-.784-2.128a2.526 2.526 0 0 0 -1.952-.864zm6.364 5.12v-5.088h-1.616v-.96h1.616v-2.144l1.168-.272v2.416h2.24v.96h-2.24v4.784c0 .416.086.715.256.896.182.181.475.272.88.272.203 0 .384-.016.544-.048s.347-.085.56-.16v1.04a3.419 3.419 0 0 1 -.672.16 5.082 5.082 0 0 1 -.688.048c-.672 0-1.184-.16-1.536-.48-.341-.33-.512-.805-.512-1.424zm5.711-7.968a.86.86 0 0 1 -.608-.24.859.859 0 0 1 -.24-.608c0-.224.08-.416.24-.576a.832.832 0 0 1 .608-.256c.224 0 .416.085.576.256a.76.76 0 0 1 .256.576c0 .235-.08.437-.24.608a.804.804 0 0 1 -.592.24zm.576 1.92v7.808h-1.168v-7.808zm2.043 3.904c0-.576.096-1.11.288-1.6s.453-.917.784-1.28a3.611 3.611 0 0 1 1.216-.848 3.75 3.75 0 0 1 1.504-.304 3.68 3.68 0 0 1 1.504.304c.469.203.874.485 1.216.848.341.363.608.79.8 1.28s.288 1.024.288 1.6-.102 1.115-.304 1.616a3.91 3.91 0 0 1 -.8 1.296 3.766 3.766 0 0 1 -1.2.848c-.47.203-.971.304-1.504.304a3.749 3.749 0 0 1 -1.504-.304 3.868 3.868 0 0 1 -1.2-.864 4.317 4.317 0 0 1 -.8-1.28 4.48 4.48 0 0 1 -.288-1.616zm3.792 3.024c.757 0 1.386-.283 1.888-.848.512-.576.768-1.296.768-2.16s-.256-1.584-.768-2.16c-.502-.576-1.131-.864-1.888-.864-.758 0-1.387.288-1.888.864-.502.576-.752 1.296-.752 2.16s.25 1.584.752 2.16c.501.565 1.13.848 1.888.848zm5.857.88v-7.808h1.168v1.264c.298-.459.656-.805 1.072-1.04a2.814 2.814 0 0 1 1.408-.352c.832 0 1.509.267 2.032.8.533.533.8 1.227.8 2.08v5.056h-1.168v-4.72c0-.683-.192-1.227-.576-1.632-.374-.405-.88-.608-1.52-.608-.427 0-.816.101-1.168.304a2.442 2.442 0 0 0 -.88.896v5.76zm11.244.144c-.832 0-1.515-.219-2.048-.656-.523-.448-.784-1.024-.784-1.728 0-.693.266-1.253.8-1.68.544-.427 1.253-.64 2.128-.64.448 0 .869.053 1.264.16.405.096.778.245 1.12.448v-1.072c0-.64-.171-1.12-.512-1.44-.342-.33-.843-.496-1.504-.496-.363 0-.736.053-1.12.16a6.99 6.99 0 0 0 -1.248.512l-.432-.896a7.829 7.829 0 0 1 1.52-.56c.48-.128.954-.192 1.424-.192.96 0 1.701.24 2.224.72.533.47.8 1.147.8 2.032v5.184h-1.152v-.912c-.342.352-.72.619-1.136.8-.416.17-.864.256-1.344.256zm-1.712-2.416c0 .459.181.827.544 1.104.362.277.832.416 1.408.416.437 0 .837-.075 1.2-.224a3.34 3.34 0 0 0 1.04-.672v-1.504a3.834 3.834 0 0 0 -1.024-.416 4.503 4.503 0 0 0 -1.184-.144c-.598 0-1.078.133-1.44.4-.363.267-.544.613-.544 1.04zm8.886-9.408v11.68h-1.168v-11.44zm6.41 7.744c0 1.643-.331 3.104-.992 4.384a7.696 7.696 0 0 1 -2.8 3.072l-.608-.816c1.045-.64 1.851-1.541 2.416-2.704.576-1.163.864-2.475.864-3.936s-.288-2.773-.864-3.936c-.565-1.163-1.371-2.064-2.416-2.704l.608-.8a7.559 7.559 0 0 1 2.8 3.072c.661 1.28.992 2.736.992 4.368z" fill="#515151"/><rect fill="#fff" height="47" rx="3.5" stroke="#000" width="369" x="40.5" y="27.5"/><path d="m40.096 214 4.4-11.2h2.224l4.336 11.2h-2.064l-1.136-3.136h-4.608l-1.152 3.136zm3.712-4.64h3.488l-1.728-4.768zm13.821 4.64v-1.072a2.813 2.813 0 0 1 -1.072.848c-.426.203-.89.304-1.392.304-.501 0-.976-.107-1.424-.32a3.73 3.73 0 0 1 -1.168-.864 4.473 4.473 0 0 1 -.768-1.296 4.666 4.666 0 0 1 -.272-1.6c0-.565.096-1.099.288-1.6s.454-.933.784-1.296a3.865 3.865 0 0 1 1.2-.864c.459-.213.95-.32 1.472-.32.459 0 .886.096 1.28.288.406.181.758.437 1.056.768v-4.416l1.808-.304v11.744h-1.791zm-4.304-4c0 .725.23 1.333.688 1.824a2.229 2.229 0 0 0 1.696.736c.384 0 .736-.075 1.056-.224.33-.149.614-.368.848-.656v-3.376a2.461 2.461 0 0 0 -.848-.624c-.33-.16-.682-.24-1.056-.24-.682 0-1.253.245-1.712.736-.448.48-.672 1.088-.672 1.824zm14.07 4v-1.072a2.813 2.813 0 0 1 -1.072.848c-.427.203-.89.304-1.392.304-.501 0-.976-.107-1.424-.32a3.73 3.73 0 0 1 -1.168-.864 4.473 4.473 0 0 1 -.768-1.296 4.666 4.666 0 0 1 -.272-1.6c0-.565.096-1.099.288-1.6s.453-.933.784-1.296a3.865 3.865 0 0 1 1.2-.864c.459-.213.95-.32 1.472-.32.458 0 .885.096 1.28.288.405.181.757.437 1.056.768v-4.416l1.808-.304v11.744zm-4.304-4c0 .725.23 1.333.688 1.824a2.229 2.229 0 0 0 1.696.736c.384 0 .736-.075 1.056-.224.33-.149.613-.368.848-.656v-3.376a2.461 2.461 0 0 0 -.848-.624c-.33-.16-.683-.24-1.056-.24-.683 0-1.253.245-1.712.736-.448.48-.672 1.088-.672 1.824zm8.342 4v-8.016h1.807v1.744c.214-.608.507-1.072.88-1.392a1.974 1.974 0 0 1 1.328-.496c.15.011.283.027.4.048.118.021.246.059.385.112v1.584a1.955 1.955 0 0 0 -.48-.144 2.773 2.773 0 0 0 -.513-.048c-.426 0-.816.117-1.167.352-.352.235-.63.56-.832.976v5.28zm12.786-1.024c-.49.405-.992.704-1.504.896a4.665 4.665 0 0 1 -1.68.288 4.05 4.05 0 0 1 -2.896-1.2 4.202 4.202 0 0 1 -.864-1.328 4.201 4.201 0 0 1 -.32-1.632c0-.587.096-1.131.288-1.632.203-.512.475-.949.816-1.312a3.839 3.839 0 0 1 1.248-.88c.48-.213.998-.32 1.552-.32.544 0 1.046.107 1.504.32.47.203.87.485 1.2.848.341.363.608.8.8 1.312.192.501.288 1.051.288 1.648v.448h-5.92c.086.629.352 1.152.8 1.568.459.416.992.624 1.6.624.373 0 .725-.064 1.056-.192.341-.139.624-.325.848-.56zm-3.376-5.648c-.533 0-.987.181-1.36.544s-.613.848-.72 1.456h4.176c-.106-.587-.352-1.067-.736-1.44a1.853 1.853 0 0 0 -1.36-.56zm5.01 5.744.848-1.216c.523.331.982.565 1.376.704.395.139.795.208 1.2.208.48 0 .87-.096 1.168-.288.299-.203.448-.464.448-.784a.685.685 0 0 0 -.272-.576c-.17-.149-.448-.261-.832-.336l-1.424-.24c-.768-.139-1.35-.389-1.744-.752-.384-.373-.576-.859-.576-1.456 0-.747.283-1.344.848-1.792.576-.459 1.328-.688 2.256-.688.555 0 1.088.08 1.6.24a5.78 5.78 0 0 1 1.552.72l-.848 1.184a4.786 4.786 0 0 0 -1.216-.576 3.867 3.867 0 0 0 -1.2-.192c-.416 0-.752.085-1.008.256a.773.773 0 0 0 -.368.688c0 .256.08.448.24.576.17.128.47.229.896.304l1.408.256c.8.149 1.392.411 1.776.784.395.373.592.859.592 1.456 0 .363-.085.704-.256 1.024-.16.32-.39.597-.688.832a3.34 3.34 0 0 1 -1.04.56 4.126 4.126 0 0 1 -1.28.192 6.647 6.647 0 0 1 -1.936-.272 4.617 4.617 0 0 1 -1.52-.816zm7.719 0 .848-1.216c.522.331.981.565 1.376.704.394.139.794.208 1.2.208.48 0 .87-.096 1.168-.288.299-.203.448-.464.448-.784a.685.685 0 0 0 -.272-.576c-.17-.149-.448-.261-.832-.336l-1.424-.24c-.768-.139-1.35-.389-1.744-.752-.384-.373-.576-.859-.576-1.456 0-.747.282-1.344.848-1.792.576-.459 1.328-.688 2.256-.688.555 0 1.088.08 1.6.24.522.149 1.04.389 1.552.72l-.848 1.184a4.788 4.788 0 0 0 -1.216-.576 3.868 3.868 0 0 0 -1.2-.192c-.416 0-.752.085-1.008.256a.773.773 0 0 0 -.368.688c0 .256.08.448.24.576.17.128.47.229.896.304l1.408.256c.8.149 1.392.411 1.776.784.395.373.592.859.592 1.456 0 .363-.085.704-.256 1.024-.16.32-.39.597-.688.832a3.34 3.34 0 0 1 -1.04.56 4.127 4.127 0 0 1 -1.28.192 6.646 6.646 0 0 1 -1.936-.272 4.615 4.615 0 0 1 -1.52-.816z" fill="#000"/><g fill="#fff" stroke="#000"><rect height="47" rx="3.5" width="369" x="40.5" y="224.5"/><rect height="47" rx="3.5" width="267" x="142.5" y="280.5"/><rect height="47" rx="3.5" width="93" x="40.5" y="280.5"/></g><path d="m56.592 310v-.864l6.88-9.296-6.832.032v-1.072h8.384v.864l-6.896 9.296 7.024-.032v1.072zm10.888-9.728a.859.859 0 0 1 -.609-.24.859.859 0 0 1 -.24-.608c0-.224.08-.416.24-.576a.83.83 0 0 1 .609-.256.76.76 0 0 1 .575.256c.171.16.256.352.256.576 0 .235-.08.437-.24.608a.804.804 0 0 1 -.591.24zm.575 1.92v7.808h-1.168v-7.808zm2.395 11.152v-11.152h1.152v1.12a2.927 2.927 0 0 1 1.088-.896c.437-.213.917-.32 1.44-.32.501 0 .97.107 1.408.32a3.37 3.37 0 0 1 1.152.848c.32.352.57.773.752 1.264.192.491.288 1.013.288 1.568a4.31 4.31 0 0 1 -.288 1.584 3.865 3.865 0 0 1 -.768 1.28c-.33.352-.72.635-1.168.848a3.448 3.448 0 0 1 -1.44.304c-.49 0-.95-.091-1.376-.272a3.087 3.087 0 0 1 -1.072-.816v4.32zm3.392-10.224c-.459 0-.885.096-1.28.288a2.41 2.41 0 0 0 -.944.784v3.824c.256.341.576.608.96.8.395.192.816.288 1.264.288.779 0 1.43-.283 1.952-.848.523-.576.784-1.291.784-2.144s-.261-1.563-.784-2.128a2.528 2.528 0 0 0 -1.952-.864zm13.239 5.968c.426 0 .826-.08 1.2-.24.383-.16.709-.389.975-.688l.72.72a3.983 3.983 0 0 1 -1.344.928 3.989 3.989 0 0 1 -1.616.336c-.533 0-1.04-.101-1.52-.304a3.813 3.813 0 0 1 -1.215-.864 4.17 4.17 0 0 1 -1.12-2.88c0-.565.096-1.093.287-1.584a4.17 4.17 0 0 1 .817-1.28 3.797 3.797 0 0 1 1.231-.848c.47-.213.977-.32 1.52-.32.576 0 1.126.107 1.648.32.523.213.977.512 1.36.896l-.752.816a2.959 2.959 0 0 0 -1.008-.704 2.854 2.854 0 0 0 -1.2-.272c-.383 0-.746.08-1.087.24-.331.149-.62.357-.865.624a3.338 3.338 0 0 0 -.575.944 3.243 3.243 0 0 0 -.209 1.168c0 .843.267 1.552.8 2.128.534.576 1.184.864 1.953.864zm3.986-2.992c0-.576.096-1.109.288-1.6a4.09 4.09 0 0 1 .784-1.28 3.62 3.62 0 0 1 1.216-.848c.47-.203.97-.304 1.504-.304.544 0 1.045.101 1.504.304.47.203.874.485 1.216.848.341.363.608.789.8 1.28s.288 1.024.288 1.6a4.27 4.27 0 0 1 -.304 1.616 3.911 3.911 0 0 1 -.8 1.296c-.33.352-.73.635-1.2.848-.47.203-.97.304-1.504.304a3.747 3.747 0 0 1 -1.504-.304 3.865 3.865 0 0 1 -1.2-.864 4.335 4.335 0 0 1 -.8-1.28 4.479 4.479 0 0 1 -.288-1.616zm3.792 3.024c.757 0 1.386-.283 1.888-.848.512-.576.768-1.296.768-2.16s-.256-1.584-.768-2.16c-.502-.576-1.13-.864-1.888-.864s-1.387.288-1.888.864c-.502.576-.752 1.296-.752 2.16s.25 1.584.752 2.16c.501.565 1.13.848 1.888.848zm11.616.88v-1.04a3.056 3.056 0 0 1 -1.088.864 3.39 3.39 0 0 1 -1.408.288c-.501 0-.976-.101-1.424-.304a3.727 3.727 0 0 1 -1.136-.848 4.26 4.26 0 0 1 -.768-1.28 4.495 4.495 0 0 1 -.272-1.568c0-.565.091-1.093.272-1.584.192-.491.454-.912.784-1.264a3.54 3.54 0 0 1 1.168-.848c.448-.213.928-.32 1.44-.32.48 0 .928.096 1.344.288a3.06 3.06 0 0 1 1.088.8v-4.624l1.168-.24v11.68zm-4.944-3.904c0 .853.262 1.568.784 2.144a2.552 2.552 0 0 0 1.952.848c.459 0 .88-.091 1.264-.272s.699-.437.944-.768v-3.872a2.56 2.56 0 0 0 -.976-.768 2.715 2.715 0 0 0 -1.232-.288c-.778 0-1.429.283-1.952.848-.522.565-.784 1.275-.784 2.128zm14.961 3.008a4.935 4.935 0 0 1 -1.392.784c-.48.171-.992.256-1.536.256a3.902 3.902 0 0 1 -1.536-.304 3.996 3.996 0 0 1 -1.232-.864 4.144 4.144 0 0 1 -.816-1.28 4.435 4.435 0 0 1 -.288-1.6c0-.565.09-1.093.272-1.584.192-.501.453-.928.784-1.28a3.53 3.53 0 0 1 1.168-.848c.448-.213.933-.32 1.456-.32.512 0 .986.101 1.424.304a3.651 3.651 0 0 1 1.888 2.08c.181.48.272.997.272 1.552v.352h-6.128c.053.789.346 1.451.88 1.984a2.625 2.625 0 0 0 1.904.784c.405 0 .794-.069 1.168-.208.384-.149.709-.347.976-.592zm-3.136-6.032c-.64 0-1.19.229-1.648.688-.459.459-.742 1.045-.848 1.76h4.944c-.086-.704-.358-1.285-.816-1.744a2.173 2.173 0 0 0 -1.632-.704z" fill="#515151"/><path d="m140 304h337" stroke="#29d305" stroke-linecap="round" stroke-linejoin="round" stroke-width="2"/><circle cx="133" cy="304" fill="#fff" r="7" stroke="#29d305" stroke-width="2"/><circle cx="133" cy="304" fill="#29d305" r="2"/><path d="m41.344 115.5v-11.2h4.096c.8 0 1.547.144 2.24.432a5.297 5.297 0 0 1 2.944 2.976c.288.683.432 1.419.432 2.208s-.144 1.525-.432 2.208a5.298 5.298 0 0 1 -1.168 1.776c-.49.491-1.083.88-1.776 1.168a5.78 5.78 0 0 1 -2.24.432zm4.144-9.536h-2.224v7.872h2.224c.501 0 .97-.101 1.408-.304a3.646 3.646 0 0 0 1.136-.816c.32-.352.57-.768.752-1.248.192-.48.288-.997.288-1.552s-.096-1.072-.288-1.552a3.823 3.823 0 0 0 -.752-1.264 3.523 3.523 0 0 0 -1.136-.832 3.303 3.303 0 0 0 -1.408-.304zm9.783 9.664c-.832 0-1.515-.224-2.048-.672-.523-.459-.784-1.045-.784-1.76s.272-1.285.816-1.712c.554-.427 1.301-.64 2.24-.64.373 0 .736.043 1.088.128.352.075.71.197 1.072.368v-.88c0-.523-.155-.917-.464-1.184-.31-.277-.768-.416-1.376-.416-.33 0-.688.053-1.072.16a7.172 7.172 0 0 0 -1.264.464l-.64-1.312a8.984 8.984 0 0 1 1.712-.608 6.507 6.507 0 0 1 1.616-.208c1.034 0 1.84.256 2.416.768.576.501.864 1.216.864 2.144v5.232h-1.792v-.816a3.613 3.613 0 0 1 -1.12.72 3.466 3.466 0 0 1 -1.264.224zm-1.136-2.464c0 .363.15.656.448.88.298.213.693.32 1.184.32.362 0 .698-.053 1.008-.16a2.68 2.68 0 0 0 .88-.496v-1.312a3.376 3.376 0 0 0 -.88-.288 4.66 4.66 0 0 0 -.976-.096c-.512 0-.918.107-1.216.32a.955.955 0 0 0 -.448.832zm8.258.224v-4.464h-1.616v-1.44h1.616v-2.208l1.808-.384v2.592h2.24v1.44h-2.24v4.064c0 .395.086.677.256.848.17.16.459.24.864.24.182 0 .347-.011.496-.032.16-.032.358-.085.592-.16v1.52a4.046 4.046 0 0 1 -.784.16 5.035 5.035 0 0 1 -.768.064c-.8 0-1.413-.187-1.84-.56-.416-.384-.624-.944-.624-1.68zm12.42 1.088c-.49.405-.992.704-1.504.896a4.666 4.666 0 0 1 -1.68.288 4.049 4.049 0 0 1 -2.896-1.2 4.199 4.199 0 0 1 -.864-1.328 4.2 4.2 0 0 1 -.32-1.632c0-.587.096-1.131.288-1.632.203-.512.474-.949.816-1.312a3.839 3.839 0 0 1 1.248-.88c.48-.213.997-.32 1.552-.32.544 0 1.045.107 1.504.32.47.203.87.485 1.2.848.341.363.608.8.8 1.312.192.501.288 1.051.288 1.648v.448h-5.92c.085.629.352 1.152.8 1.568.459.416.992.624 1.6.624a2.9 2.9 0 0 0 1.056-.192c.341-.139.624-.325.848-.56zm-3.376-5.648c-.534 0-.987.181-1.36.544s-.614.848-.72 1.456h4.176c-.107-.587-.352-1.067-.736-1.44a1.853 1.853 0 0 0 -1.36-.56z" fill="#000"/><path d="m40 129a4 4 0 0 1 4-4h173a4 4 0 0 1 4 4v40a4 4 0 0 1 -4 4h-173a4 4 0 0 1 -4-4z" fill="#fff"/><path d="m62.944 155v-1.04a3.064 3.064 0 0 1 -1.088.864 3.392 3.392 0 0 1 -1.408.288 3.41 3.41 0 0 1 -1.424-.304 3.724 3.724 0 0 1 -1.136-.848 4.26 4.26 0 0 1 -.768-1.28 4.488 4.488 0 0 1 -.272-1.568c0-.565.09-1.093.272-1.584.192-.491.453-.912.784-1.264.33-.363.72-.645 1.168-.848.448-.213.928-.32 1.44-.32.48 0 .928.096 1.344.288.416.181.779.448 1.088.8v-4.624l1.168-.24v11.68zm-4.944-3.904c0 .853.261 1.568.784 2.144.523.565 1.173.848 1.952.848.459 0 .88-.091 1.264-.272a2.46 2.46 0 0 0 .944-.768v-3.872a2.563 2.563 0 0 0 -.976-.768 2.717 2.717 0 0 0 -1.232-.288c-.779 0-1.43.283-1.952.848-.523.565-.784 1.275-.784 2.128zm14.257 3.904v-1.04a3.064 3.064 0 0 1 -1.089.864 3.392 3.392 0 0 1 -1.408.288 3.41 3.41 0 0 1 -1.424-.304 3.724 3.724 0 0 1 -1.135-.848 4.26 4.26 0 0 1 -.768-1.28 4.488 4.488 0 0 1 -.273-1.568c0-.565.091-1.093.273-1.584.191-.491.453-.912.783-1.264.331-.363.72-.645 1.169-.848.447-.213.927-.32 1.44-.32.48 0 .927.096 1.343.288.416.181.78.448 1.088.8v-4.624l1.168-.24v11.68h-1.168zm-4.945-3.904c0 .853.262 1.568.785 2.144.522.565 1.173.848 1.952.848.458 0 .88-.091 1.263-.272a2.46 2.46 0 0 0 .945-.768v-3.872a2.563 2.563 0 0 0 -.977-.768 2.717 2.717 0 0 0 -1.231-.288c-.78 0-1.43.283-1.953.848-.522.565-.784 1.275-.784 2.128zm9.073 2.288a.76.76 0 0 1 .576.256.83.83 0 0 1 .256.608.85.85 0 0 1 -.256.624.76.76 0 0 1 -.576.256.83.83 0 0 1 -.608-.256.88.88 0 0 1 -.24-.624c0-.235.08-.437.24-.608a.83.83 0 0 1 .608-.256zm2.956 1.616v-7.808h1.168v1.216c.298-.448.64-.784 1.024-1.008a2.524 2.524 0 0 1 1.296-.336c.544 0 1.024.139 1.44.416.426.277.746.645.96 1.104.298-.501.666-.88 1.104-1.136.437-.256.938-.384 1.504-.384.778 0 1.413.272 1.904.816.501.533.752 1.227.752 2.08v5.04h-1.168v-4.752c0-.672-.176-1.205-.528-1.6-.342-.405-.806-.608-1.392-.608-.406 0-.774.101-1.104.304-.331.203-.614.512-.848.928a3.874 3.874 0 0 1 .064.688v5.04h-1.168v-4.752c0-.672-.176-1.205-.528-1.6-.352-.405-.822-.608-1.408-.608-.395 0-.752.096-1.072.288s-.598.48-.832.864v5.808h-1.169zm13.515 0v-7.808h1.168v1.216c.299-.448.64-.784 1.024-1.008a2.524 2.524 0 0 1 1.296-.336c.544 0 1.024.139 1.44.416.427.277.747.645.96 1.104.299-.501.667-.88 1.104-1.136.438-.256.939-.384 1.504-.384.779 0 1.414.272 1.904.816.502.533.752 1.227.752 2.08v5.04h-1.168v-4.752c0-.672-.176-1.205-.528-1.6-.341-.405-.805-.608-1.392-.608-.405 0-.773.101-1.104.304-.33.203-.613.512-.848.928.022.107.038.219.048.336s.016.235.016.352v5.04h-1.168v-4.752c0-.672-.176-1.205-.528-1.6-.352-.405-.821-.608-1.408-.608-.394 0-.752.096-1.072.288s-.597.48-.832.864v5.808zm14.076-1.616a.76.76 0 0 1 .576.256.83.83 0 0 1 .256.608.849.849 0 0 1 -.256.624.76.76 0 0 1 -.576.256.83.83 0 0 1 -.608-.256.88.88 0 0 1 -.24-.624c0-.235.08-.437.24-.608a.83.83 0 0 1 .608-.256zm3.632 2.864.512-1.264-3.008-7.792h1.296l2.368 6.416 2.512-6.416h1.296l-3.872 9.408c-.245.629-.539 1.072-.88 1.328-.331.267-.784.4-1.36.4-.107 0-.224-.011-.352-.032a1.902 1.902 0 0 1 -.4-.08v-1.04c.16.032.283.048.368.048.096.011.187.016.272.016.299 0 .544-.08.736-.24.203-.149.373-.4.512-.752zm8.141 0 .512-1.264-3.008-7.792h1.296l2.368 6.416 2.512-6.416h1.296l-3.872 9.408c-.246.629-.539 1.072-.88 1.328-.331.267-.784.4-1.36.4-.107 0-.224-.011-.352-.032a1.89 1.89 0 0 1 -.4-.08v-1.04c.16.032.282.048.368.048.096.011.186.016.272.016.298 0 .544-.08.736-.24.202-.149.373-.4.512-.752zm8.14 0 .512-1.264-3.008-7.792h1.296l2.368 6.416 2.512-6.416h1.296l-3.872 9.408c-.245.629-.538 1.072-.88 1.328-.33.267-.784.4-1.36.4-.106 0-.224-.011-.352-.032a1.902 1.902 0 0 1 -.4-.08v-1.04c.16.032.283.048.368.048.096.011.187.016.272.016.299 0 .544-.08.736-.24.203-.149.374-.4.512-.752zm8.141 0 .512-1.264-3.008-7.792h1.296l2.368 6.416 2.512-6.416h1.296l-3.872 9.408c-.245.629-.539 1.072-.88 1.328-.331.267-.784.4-1.36.4-.107 0-.224-.011-.352-.032a1.902 1.902 0 0 1 -.4-.08v-1.04c.16.032.283.048.368.048.096.011.187.016.272.016.299 0 .544-.08.736-.24.203-.149.373-.4.512-.752z" fill="#676767"/><g clip-path="url(#a)"><path clip-rule="evenodd" d="m181.001 158.75a2.252 2.252 0 0 0 2.25 2.25h19.5a2.252 2.252 0 0 0 2.25-2.25v-16.5a2.252 2.252 0 0 0 -2.25-2.25h-3.75v-2.25a.75.75 0 0 0 -1.5 0v2.25h-9v-2.25a.75.75 0 0 0 -1.5 0v2.25h-3.75a2.252 2.252 0 0 0 -2.25 2.25zm2.25.75a.75.75 0 0 1 -.75-.75v-11.25h21v11.25a.75.75 0 0 1 -.75.75zm20.25-17.25v3.75h-21v-3.75a.75.75 0 0 1 .75-.75h3.75v1.5a.75.75 0 0 0 1.5 0v-1.5h9v1.5a.75.75 0 0 0 1.5 0v-1.5h3.75a.75.75 0 0 1 .75.75zm-18.751 14.25a.75.75 0 0 0 0 1.5h4.5a.75.75 0 0 0 0-1.5z" fill="#000" fill-rule="evenodd"/></g><path d="m44 126h173v-2h-173zm176 3v40h2v-40zm-3 43h-173v2h173zm-176-3v-40h-2v40zm3 3a3 3 0 0 1 -3-3h-2a5 5 0 0 0 5 5zm176-3a3 3 0 0 1 -3 3v2a5 5 0 0 0 5-5zm-3-43a3 3 0 0 1 3 3h2a5 5 0 0 0 -5-5zm-173-2a5 5 0 0 0 -5 5h2a3 3 0 0 1 3-3zm450.344-83v-11.2h8.048v1.632h-6.128v3.2h4.224v1.6h-4.224v4.768zm11.036-8.016v4.768c0 .576.16 1.04.48 1.392s.747.528 1.28.528c.363 0 .693-.08.992-.24.299-.17.555-.421.768-.752v-5.696h1.808v8.016h-1.808v-1.328c-.299.47-.667.832-1.104 1.088a2.87 2.87 0 0 1 -1.456.368c-.811 0-1.477-.267-2-.8-.512-.533-.768-1.221-.768-2.064v-5.28zm9.361-3.728v11.744h-1.808v-11.44zm4.031 0v11.744h-1.808v-11.44zm8.985 11.744h-1.76l-2.16-8.016h1.728l1.408 5.664 1.648-5.664h1.536l1.648 5.68 1.392-5.68h1.696l-2.16 8.016h-1.744l-1.616-5.648zm9.525-9.648a1.12 1.12 0 0 1 -.8-.32 1.064 1.064 0 0 1 -.32-.784c0-.299.112-.56.336-.784s.485-.336.784-.336c.309 0 .576.112.8.336s.336.485.336.784c0 .31-.112.57-.336.784-.214.213-.48.32-.8.32zm.912 1.632v8.016h-1.808v-8.016zm7.951 8.016v-1.072a2.812 2.812 0 0 1 -1.072.848 3.204 3.204 0 0 1 -1.392.304c-.501 0-.976-.107-1.424-.32a3.745 3.745 0 0 1 -1.168-.864 4.481 4.481 0 0 1 -.768-1.296 4.676 4.676 0 0 1 -.272-1.6c0-.565.096-1.099.288-1.6s.453-.933.784-1.296c.341-.363.741-.65 1.2-.864.459-.213.949-.32 1.472-.32.459 0 .885.096 1.28.288.405.181.757.437 1.056.768v-4.416l1.808-.304v11.744zm-4.304-4c0 .725.229 1.333.688 1.824a2.23 2.23 0 0 0 1.696.736c.384 0 .736-.075 1.056-.224.331-.15.613-.368.848-.656v-3.376a2.468 2.468 0 0 0 -.848-.624 2.395 2.395 0 0 0 -1.056-.24c-.683 0-1.253.245-1.712.736-.448.48-.672 1.088-.672 1.824zm9.333 1.888v-4.464h-1.615v-1.44h1.615v-2.208l1.809-.384v2.592h2.24v1.44h-2.24v4.064c0 .395.085.677.256.848.17.16.458.24.864.24.181 0 .346-.01.496-.032.16-.032.357-.085.592-.16v1.52a4.073 4.073 0 0 1 -.784.16 5.086 5.086 0 0 1 -.768.064c-.8 0-1.414-.187-1.84-.56-.416-.384-.625-.944-.625-1.68zm5.634 2.112v-11.44l1.808-.304v5.04c.298-.47.661-.827 1.088-1.072a2.922 2.922 0 0 1 1.456-.368c.81 0 1.472.272 1.984.816.522.533.784 1.216.784 2.048v5.28h-1.808v-4.768c0-.576-.16-1.04-.48-1.392s-.747-.528-1.28-.528c-.363 0-.694.085-.992.256-.288.16-.539.395-.752.704v5.728zm12.906 0v-8.016h1.808v1.312c.298-.47.661-.827 1.088-1.072a2.922 2.922 0 0 1 1.456-.368c.81 0 1.472.272 1.984.816.522.533.784 1.216.784 2.048v5.28h-1.808v-4.768c0-.576-.16-1.04-.48-1.392s-.747-.528-1.28-.528c-.363 0-.694.085-.992.256-.288.16-.539.395-.752.704v5.728zm8.944-4c0-.587.102-1.13.304-1.632.214-.512.496-.95.848-1.312.363-.373.79-.667 1.28-.88a4.048 4.048 0 0 1 1.6-.32 3.967 3.967 0 0 1 3.728 2.512c.203.501.304 1.045.304 1.632a4.23 4.23 0 0 1 -.32 1.648 3.973 3.973 0 0 1 -.848 1.328c-.352.363-.778.65-1.28.864-.49.213-1.018.32-1.584.32a4.048 4.048 0 0 1 -1.6-.32 3.984 3.984 0 0 1 -1.28-.88 4.422 4.422 0 0 1 -.848-1.312 4.45 4.45 0 0 1 -.304-1.648zm4.032 2.592c.651 0 1.184-.245 1.6-.736.427-.49.64-1.104.64-1.84 0-.757-.213-1.381-.64-1.872a2.032 2.032 0 0 0 -1.6-.736c-.65 0-1.189.245-1.616.736-.416.49-.624 1.115-.624 1.872 0 .747.208 1.365.624 1.856.427.48.966.72 1.616.72zm5.899 1.408v-8.016h1.808v1.744c.213-.608.506-1.072.88-1.392.384-.33.826-.496 1.328-.496.149.01.282.027.4.048.117.021.245.059.384.112v1.584a1.963 1.963 0 0 0 -.48-.144 2.78 2.78 0 0 0 -.512-.048 2.06 2.06 0 0 0 -1.168.352c-.352.235-.63.56-.832.976v5.28zm6.281 0v-8.016h1.808v1.28c.299-.459.645-.805 1.04-1.04a2.545 2.545 0 0 1 1.344-.368c.533 0 1.008.144 1.424.432.416.277.725.65.928 1.12.299-.512.672-.896 1.12-1.152.459-.267.971-.4 1.536-.4.768 0 1.397.272 1.888.816s.736 1.243.736 2.096v5.232h-1.808v-4.848c0-.555-.149-.997-.448-1.328-.288-.341-.677-.512-1.168-.512-.331 0-.629.08-.896.24a2.36 2.36 0 0 0 -.72.704 2 2 0 0 1 .016.256 2 2 0 0 1 .016.256v5.232h-1.808v-4.848c0-.555-.149-.997-.448-1.328-.288-.341-.677-.512-1.168-.512-.32 0-.613.08-.88.24-.267.15-.501.373-.704.672v5.776zm16.448.128c-.832 0-1.515-.224-2.048-.672-.523-.459-.784-1.045-.784-1.76s.272-1.285.816-1.712c.554-.427 1.301-.64 2.24-.64.373 0 .736.043 1.088.128.352.075.709.197 1.072.368v-.88c0-.523-.155-.917-.464-1.184-.31-.277-.768-.416-1.376-.416-.331 0-.688.053-1.072.16-.384.096-.806.25-1.264.464l-.64-1.312a8.956 8.956 0 0 1 1.712-.608 6.517 6.517 0 0 1 1.616-.208c1.034 0 1.84.256 2.416.768.576.501.864 1.216.864 2.144v5.232h-1.792v-.816c-.363.33-.736.57-1.12.72s-.806.224-1.264.224zm-1.136-2.464c0 .363.149.656.448.88.298.213.693.32 1.184.32.362 0 .698-.053 1.008-.16.32-.107.613-.272.88-.496v-1.312a3.406 3.406 0 0 0 -.88-.288 4.661 4.661 0 0 0 -.976-.096c-.512 0-.918.107-1.216.32a.954.954 0 0 0 -.448.832zm9.309-9.408v11.744h-1.808v-11.44zm6.713 2.096a1.12 1.12 0 0 1 -.8-.32 1.064 1.064 0 0 1 -.32-.784c0-.299.112-.56.336-.784s.485-.336.784-.336c.309 0 .576.112.8.336s.336.485.336.784c0 .31-.112.57-.336.784-.214.213-.48.32-.8.32zm.912 1.632v8.016h-1.808v-8.016zm2.223 8.016v-8.016h1.808v1.312c.298-.47.661-.827 1.088-1.072a2.922 2.922 0 0 1 1.456-.368c.81 0 1.472.272 1.984.816.522.533.784 1.216.784 2.048v5.28h-1.808v-4.768c0-.576-.16-1.04-.48-1.392s-.747-.528-1.28-.528c-.363 0-.694.085-.992.256-.288.16-.539.395-.752.704v5.728zm9.312 3.392v-11.408h1.776v1.152c.278-.384.63-.683 1.056-.896.438-.213.918-.32 1.44-.32.502 0 .976.107 1.424.32s.832.507 1.152.88c.331.363.587.795.768 1.296.192.49.288 1.019.288 1.584s-.096 1.099-.288 1.6a3.894 3.894 0 0 1 -.8 1.296c-.341.363-.741.65-1.2.864-.458.213-.949.32-1.472.32a3.18 3.18 0 0 1 -1.312-.272 3.017 3.017 0 0 1 -1.024-.768v4.352zm3.728-9.952c-.394 0-.757.075-1.088.224-.32.15-.597.373-.832.672v3.344c.235.277.518.496.848.656.331.15.688.224 1.072.224.683 0 1.248-.24 1.696-.72.459-.49.688-1.104.688-1.84 0-.725-.229-1.333-.688-1.824a2.229 2.229 0 0 0 -1.696-.736zm7.814-1.456v4.768c0 .576.16 1.04.48 1.392s.746.528 1.28.528c.362 0 .693-.08.992-.24.298-.17.554-.421.768-.752v-5.696h1.808v8.016h-1.808v-1.328c-.299.47-.667.832-1.104 1.088a2.87 2.87 0 0 1 -1.456.368c-.811 0-1.478-.267-2-.8-.512-.533-.768-1.221-.768-2.064v-5.28zm8.544 5.904v-4.464h-1.616v-1.44h1.616v-2.208l1.808-.384v2.592h2.24v1.44h-2.24v4.064c0 .395.085.677.256.848.171.16.459.24.864.24.181 0 .347-.01.496-.032.16-.032.357-.085.592-.16v1.52a4.073 4.073 0 0 1 -.784.16 5.065 5.065 0 0 1 -.768.064c-.8 0-1.413-.187-1.84-.56-.416-.384-.624-.944-.624-1.68zm5.825.544h1.824l-1.568 4.224h-1.328zm-170.81 20.568a4.148 4.148 0 0 1 1.152-2.944 3.974 3.974 0 0 1 1.28-.88 4.044 4.044 0 0 1 1.6-.32 3.97 3.97 0 0 1 2.88 1.2c.363.363.645.8.848 1.312.203.501.304 1.045.304 1.632s-.107 1.136-.32 1.648a3.989 3.989 0 0 1 -.848 1.328c-.352.363-.779.65-1.28.864a3.932 3.932 0 0 1 -1.584.32 4.044 4.044 0 0 1 -1.6-.32 3.974 3.974 0 0 1 -1.28-.88 4.402 4.402 0 0 1 -.848-1.312 4.43 4.43 0 0 1 -.304-1.648zm4.032 2.592c.651 0 1.184-.245 1.6-.736.427-.49.64-1.104.64-1.84 0-.757-.213-1.381-.64-1.872-.427-.49-.96-.736-1.6-.736a2.05 2.05 0 0 0 -1.616.736c-.416.49-.624 1.115-.624 1.872 0 .747.208 1.365.624 1.856.427.48.965.72 1.616.72zm5.899 4.8v-11.408h1.776v1.152a2.856 2.856 0 0 1 1.056-.896c.437-.213.917-.32 1.44-.32.501 0 .976.107 1.424.32s.832.507 1.152.88c.33.363.586.795.768 1.296.192.49.288 1.019.288 1.584s-.096 1.099-.288 1.6a3.926 3.926 0 0 1 -.8 1.296c-.342.363-.742.65-1.2.864-.459.213-.95.32-1.472.32-.47 0-.907-.09-1.312-.272a3.007 3.007 0 0 1 -1.024-.768v4.352zm3.728-9.952a2.61 2.61 0 0 0 -1.088.224 2.27 2.27 0 0 0 -.832.672v3.344c.234.277.517.496.848.656.33.15.688.224 1.072.224.682 0 1.248-.24 1.696-.72.458-.49.688-1.104.688-1.84 0-.725-.23-1.333-.688-1.824a2.23 2.23 0 0 0 -1.696-.736zm6.654 4.448v-4.464h-1.616v-1.44h1.616v-2.208l1.808-.384v2.592h2.24v1.44h-2.24v4.064c0 .395.085.677.256.848.171.16.459.24.864.24.181 0 .347-.01.496-.032.16-.032.357-.085.592-.16v1.52a4.073 4.073 0 0 1 -.784.16 5.065 5.065 0 0 1 -.768.064c-.8 0-1.413-.187-1.84-.56-.416-.384-.624-.944-.624-1.68zm6.529-7.536a1.12 1.12 0 0 1 -.8-.32 1.067 1.067 0 0 1 -.32-.784c0-.299.112-.56.336-.784s.485-.336.784-.336c.309 0 .576.112.8.336s.336.485.336.784c0 .31-.112.57-.336.784-.213.213-.48.32-.8.32zm.912 1.632v8.016h-1.808v-8.016zm1.855 4.016c0-.587.102-1.13.304-1.632.214-.512.496-.95.848-1.312.363-.373.79-.667 1.28-.88a4.048 4.048 0 0 1 1.6-.32 3.967 3.967 0 0 1 3.728 2.512c.203.501.304 1.045.304 1.632a4.23 4.23 0 0 1 -.32 1.648 3.973 3.973 0 0 1 -.848 1.328c-.352.363-.778.65-1.28.864-.49.213-1.018.32-1.584.32a4.048 4.048 0 0 1 -1.6-.32 3.984 3.984 0 0 1 -1.28-.88 4.422 4.422 0 0 1 -.848-1.312 4.45 4.45 0 0 1 -.304-1.648zm4.032 2.592c.651 0 1.184-.245 1.6-.736.427-.49.64-1.104.64-1.84 0-.757-.213-1.381-.64-1.872a2.032 2.032 0 0 0 -1.6-.736c-.65 0-1.189.245-1.616.736-.416.49-.624 1.115-.624 1.872 0 .747.208 1.365.624 1.856.427.48.966.72 1.616.72zm5.899 1.408v-8.016h1.808v1.312c.299-.47.661-.827 1.088-1.072a2.925 2.925 0 0 1 1.456-.368c.811 0 1.472.272 1.984.816.523.533.784 1.216.784 2.048v5.28h-1.808v-4.768c0-.576-.16-1.04-.48-1.392s-.747-.528-1.28-.528c-.363 0-.693.085-.992.256-.288.16-.539.395-.752.704v5.728zm11.744.128c-.832 0-1.514-.224-2.048-.672-.522-.459-.784-1.045-.784-1.76s.272-1.285.816-1.712c.555-.427 1.302-.64 2.24-.64a4.6 4.6 0 0 1 1.088.128c.352.075.71.197 1.072.368v-.88c0-.523-.154-.917-.464-1.184-.309-.277-.768-.416-1.376-.416-.33 0-.688.053-1.072.16a7.16 7.16 0 0 0 -1.264.464l-.64-1.312a8.98 8.98 0 0 1 1.712-.608 6.523 6.523 0 0 1 1.616-.208c1.035 0 1.84.256 2.416.768.576.501.864 1.216.864 2.144v5.232h-1.792v-.816c-.362.33-.736.57-1.12.72s-.805.224-1.264.224zm-1.136-2.464c0 .363.15.656.448.88.299.213.694.32 1.184.32a3.07 3.07 0 0 0 1.008-.16c.32-.107.614-.272.88-.496v-1.312a3.394 3.394 0 0 0 -.88-.288 4.655 4.655 0 0 0 -.976-.096c-.512 0-.917.107-1.216.32a.956.956 0 0 0 -.448.832zm9.309-9.408v11.744h-1.808v-11.44zm5.177 3.728h1.728v-1.424c0-.864.235-1.525.704-1.984.48-.47 1.168-.704 2.064-.704.214 0 .427.016.64.048.224.032.411.07.56.112v1.536a9.514 9.514 0 0 0 -.512-.096 2.948 2.948 0 0 0 -.448-.032c-.416 0-.72.096-.912.288-.192.181-.288.47-.288.864v1.392h2.16v1.44h-2.16v6.576h-1.808v-6.576h-1.728zm8.114-1.632a1.12 1.12 0 0 1 -.8-.32 1.067 1.067 0 0 1 -.32-.784c0-.299.112-.56.336-.784s.486-.336.784-.336c.31 0 .576.112.8.336s.336.485.336.784c0 .31-.112.57-.336.784-.213.213-.48.32-.8.32zm.912 1.632v8.016h-1.808v-8.016zm9.12 6.992a5.295 5.295 0 0 1 -1.504.896 4.67 4.67 0 0 1 -1.68.288 4.04 4.04 0 0 1 -2.896-1.2 4.192 4.192 0 0 1 -.864-1.328 4.188 4.188 0 0 1 -.32-1.632c0-.587.096-1.13.288-1.632.202-.512.474-.95.816-1.312a3.839 3.839 0 0 1 1.248-.88c.48-.213.997-.32 1.552-.32.544 0 1.045.107 1.504.32.469.203.869.485 1.2.848.341.363.608.8.8 1.312.192.501.288 1.05.288 1.648v.448h-5.92c.085.63.352 1.152.8 1.568.458.416.992.624 1.6.624.373 0 .725-.064 1.056-.192.341-.139.624-.325.848-.56zm-3.376-5.648c-.534 0-.987.181-1.36.544-.374.363-.614.848-.72 1.456h4.176c-.107-.587-.352-1.067-.736-1.44a1.853 1.853 0 0 0 -1.36-.56zm7.46-5.072v11.744h-1.808v-11.44zm7.951 11.744v-1.072a2.82 2.82 0 0 1 -1.072.848 3.204 3.204 0 0 1 -1.392.304 3.27 3.27 0 0 1 -1.424-.32 3.733 3.733 0 0 1 -1.168-.864 4.481 4.481 0 0 1 -.768-1.296 4.652 4.652 0 0 1 -.272-1.6c0-.565.096-1.099.288-1.6s.453-.933.784-1.296c.341-.363.741-.65 1.2-.864.458-.213.949-.32 1.472-.32.458 0 .885.096 1.28.288.405.181.757.437 1.056.768v-4.416l1.808-.304v11.744zm-4.304-4c0 .725.229 1.333.688 1.824.458.49 1.024.736 1.696.736.384 0 .736-.075 1.056-.224.33-.15.613-.368.848-.656v-3.376a2.477 2.477 0 0 0 -.848-.624 2.395 2.395 0 0 0 -1.056-.24c-.683 0-1.254.245-1.712.736-.448.48-.672 1.088-.672 1.824zm7.621 3.072.848-1.216c.523.33.982.565 1.376.704.395.139.795.208 1.2.208.48 0 .87-.096 1.168-.288.299-.203.448-.464.448-.784a.683.683 0 0 0 -.272-.576c-.17-.15-.448-.261-.832-.336l-1.424-.24c-.768-.139-1.349-.39-1.744-.752-.384-.373-.576-.859-.576-1.456 0-.747.283-1.344.848-1.792.576-.459 1.328-.688 2.256-.688.555 0 1.088.08 1.6.24.523.15 1.04.39 1.552.72l-.848 1.184a4.802 4.802 0 0 0 -1.216-.576 3.861 3.861 0 0 0 -1.2-.192c-.416 0-.752.085-1.008.256a.774.774 0 0 0 -.368.688c0 .256.08.448.24.576.171.128.47.23.896.304l1.408.256c.8.15 1.392.41 1.776.784.395.373.592.859.592 1.456 0 .363-.085.704-.256 1.024-.16.32-.389.597-.688.832a3.333 3.333 0 0 1 -1.04.56 4.122 4.122 0 0 1 -1.28.192c-.693 0-1.338-.09-1.936-.272a4.626 4.626 0 0 1 -1.52-.816zm14.402 1.056c-.832 0-1.514-.224-2.048-.672-.522-.459-.784-1.045-.784-1.76s.272-1.285.816-1.712c.555-.427 1.302-.64 2.24-.64a4.6 4.6 0 0 1 1.088.128c.352.075.71.197 1.072.368v-.88c0-.523-.154-.917-.464-1.184-.309-.277-.768-.416-1.376-.416-.33 0-.688.053-1.072.16a7.16 7.16 0 0 0 -1.264.464l-.64-1.312a8.98 8.98 0 0 1 1.712-.608 6.523 6.523 0 0 1 1.616-.208c1.035 0 1.84.256 2.416.768.576.501.864 1.216.864 2.144v5.232h-1.792v-.816c-.362.33-.736.57-1.12.72s-.805.224-1.264.224zm-1.136-2.464c0 .363.15.656.448.88.299.213.694.32 1.184.32a3.07 3.07 0 0 0 1.008-.16c.32-.107.614-.272.88-.496v-1.312a3.394 3.394 0 0 0 -.88-.288 4.655 4.655 0 0 0 -.976-.096c-.512 0-.917.107-1.216.32a.956.956 0 0 0 -.448.832zm7.501 2.336v-8.016h1.808v1.744c.214-.608.507-1.072.88-1.392.384-.33.827-.496 1.328-.496.15.01.283.027.4.048.118.021.246.059.384.112v1.584a1.937 1.937 0 0 0 -.48-.144 2.765 2.765 0 0 0 -.512-.048c-.426 0-.816.117-1.168.352s-.629.56-.832.976v5.28zm12.787-1.024a5.295 5.295 0 0 1 -1.504.896 4.663 4.663 0 0 1 -1.68.288 4.044 4.044 0 0 1 -2.896-1.2 4.192 4.192 0 0 1 -.864-1.328 4.206 4.206 0 0 1 -.32-1.632c0-.587.096-1.13.288-1.632.203-.512.475-.95.816-1.312a3.839 3.839 0 0 1 1.248-.88c.48-.213.997-.32 1.552-.32.544 0 1.045.107 1.504.32.469.203.869.485 1.2.848.341.363.608.8.8 1.312.192.501.288 1.05.288 1.648v.448h-5.92c.085.63.352 1.152.8 1.568.459.416.992.624 1.6.624.373 0 .725-.064 1.056-.192.341-.139.624-.325.848-.56zm-3.376-5.648a1.88 1.88 0 0 0 -1.36.544c-.373.363-.613.848-.72 1.456h4.176c-.107-.587-.352-1.067-.736-1.44a1.852 1.852 0 0 0 -1.36-.56zm9.246 6.672v-8.016h1.808v1.28c.298-.459.645-.805 1.04-1.04a2.545 2.545 0 0 1 1.344-.368c.533 0 1.008.144 1.424.432.416.277.725.65.928 1.12.298-.512.672-.896 1.12-1.152.458-.267.97-.4 1.536-.4.768 0 1.397.272 1.888.816.49.544.736 1.243.736 2.096v5.232h-1.808v-4.848c0-.555-.15-.997-.448-1.328-.288-.341-.678-.512-1.168-.512-.331 0-.63.08-.896.24a2.36 2.36 0 0 0 -.72.704c.01.085.016.17.016.256.01.085.016.17.016.256v5.232h-1.808v-4.848c0-.555-.15-.997-.448-1.328-.288-.341-.678-.512-1.168-.512-.32 0-.614.08-.88.24a2.09 2.09 0 0 0 -.704.672v5.776zm16.447.128c-.832 0-1.515-.224-2.048-.672-.523-.459-.784-1.045-.784-1.76s.272-1.285.816-1.712c.555-.427 1.301-.64 2.24-.64.373 0 .736.043 1.088.128.352.075.709.197 1.072.368v-.88c0-.523-.155-.917-.464-1.184-.309-.277-.768-.416-1.376-.416-.331 0-.688.053-1.072.16a7.16 7.16 0 0 0 -1.264.464l-.64-1.312a8.956 8.956 0 0 1 1.712-.608 6.523 6.523 0 0 1 1.616-.208c1.035 0 1.84.256 2.416.768.576.501.864 1.216.864 2.144v5.232h-1.792v-.816c-.363.33-.736.57-1.12.72s-.805.224-1.264.224zm-1.136-2.464c0 .363.149.656.448.88.299.213.693.32 1.184.32a3.07 3.07 0 0 0 1.008-.16c.32-.107.613-.272.88-.496v-1.312a3.394 3.394 0 0 0 -.88-.288 4.661 4.661 0 0 0 -.976-.096c-.512 0-.917.107-1.216.32a.954.954 0 0 0 -.448.832zm7.501 2.336v-8.016h1.808v1.744c.213-.608.507-1.072.88-1.392.384-.33.827-.496 1.328-.496.149.01.283.027.4.048s.245.059.384.112v1.584a1.963 1.963 0 0 0 -.48-.144 2.773 2.773 0 0 0 -.512-.048 2.06 2.06 0 0 0 -1.168.352c-.352.235-.629.56-.832.976v5.28zm6.281 0v-11.44l1.808-.304v7.152l3.328-3.424h2.064l-3.664 3.712 3.888 4.304h-2.32l-3.296-3.696v3.696zm15.021-1.024c-.49.405-.992.704-1.504.896a4.663 4.663 0 0 1 -1.68.288 4.048 4.048 0 0 1 -2.896-1.2 4.226 4.226 0 0 1 -.864-1.328 4.206 4.206 0 0 1 -.32-1.632c0-.587.096-1.13.288-1.632.203-.512.475-.95.816-1.312a3.839 3.839 0 0 1 1.248-.88 3.78 3.78 0 0 1 1.552-.32 3.52 3.52 0 0 1 1.504.32c.47.203.87.485 1.2.848.342.363.608.8.8 1.312.192.501.288 1.05.288 1.648v.448h-5.92c.086.63.352 1.152.8 1.568.459.416.992.624 1.6.624.374 0 .726-.064 1.056-.192.342-.139.624-.325.848-.56zm-3.376-5.648c-.533 0-.986.181-1.36.544-.373.363-.613.848-.72 1.456h4.176c-.106-.587-.352-1.067-.736-1.44a1.85 1.85 0 0 0 -1.36-.56zm11.427 6.672v-1.072a2.812 2.812 0 0 1 -1.072.848 3.204 3.204 0 0 1 -1.392.304c-.501 0-.976-.107-1.424-.32a3.745 3.745 0 0 1 -1.168-.864 4.481 4.481 0 0 1 -.768-1.296 4.676 4.676 0 0 1 -.272-1.6c0-.565.096-1.099.288-1.6s.453-.933.784-1.296c.341-.363.741-.65 1.2-.864.459-.213.949-.32 1.472-.32.459 0 .885.096 1.28.288.405.181.757.437 1.056.768v-4.416l1.808-.304v11.744zm-4.304-4c0 .725.229 1.333.688 1.824a2.23 2.23 0 0 0 1.696.736c.384 0 .736-.075 1.056-.224.331-.15.613-.368.848-.656v-3.376a2.468 2.468 0 0 0 -.848-.624 2.395 2.395 0 0 0 -1.056-.24c-.683 0-1.253.245-1.712.736-.448.48-.672 1.088-.672 1.824zm-667.009 335.4c0 .8-.15 1.557-.448 2.272a5.668 5.668 0 0 1 -1.2 1.84 5.555 5.555 0 0 1 -1.792 1.216 5.555 5.555 0 0 1 -2.224.448c-.79 0-1.53-.149-2.224-.448a5.745 5.745 0 0 1 -1.808-1.216 6.037 6.037 0 0 1 -1.2-1.84 6.022 6.022 0 0 1 -.432-2.272c0-.8.144-1.552.432-2.256a5.782 5.782 0 0 1 1.2-1.84 5.609 5.609 0 0 1 4.032-1.68 5.555 5.555 0 0 1 4.016 1.68 5.443 5.443 0 0 1 1.2 1.84c.299.704.448 1.456.448 2.256zm-1.968 0c0-.576-.096-1.109-.288-1.6a3.84 3.84 0 0 0 -.768-1.296 3.537 3.537 0 0 0 -1.168-.848 3.348 3.348 0 0 0 -1.456-.32c-.523 0-1.013.107-1.472.32a3.537 3.537 0 0 0 -1.168.848c-.33.363-.592.795-.784 1.296a4.354 4.354 0 0 0 -.288 1.6c0 .576.096 1.115.288 1.616.192.491.453.917.784 1.28.33.352.72.635 1.168.848.459.203.95.304 1.472.304.523 0 1.008-.101 1.456-.304a3.862 3.862 0 0 0 1.168-.848c.33-.363.587-.789.768-1.28.192-.501.288-1.04.288-1.616zm3.897 5.6v-8.016h1.808v1.312c.298-.469.661-.827 1.088-1.072a2.928 2.928 0 0 1 1.456-.368c.81 0 1.472.272 1.984.816.522.533.784 1.216.784 2.048v5.28h-1.809v-4.768c0-.576-.16-1.04-.48-1.392s-.747-.528-1.28-.528a1.96 1.96 0 0 0 -.992.256 2.24 2.24 0 0 0 -.752.704v5.728h-1.808zm16.208-1.024c-.49.405-.992.704-1.504.896a4.666 4.666 0 0 1 -1.68.288 4.049 4.049 0 0 1 -2.896-1.2 4.199 4.199 0 0 1 -.864-1.328 4.2 4.2 0 0 1 -.32-1.632c0-.587.096-1.131.288-1.632.203-.512.475-.949.816-1.312a3.839 3.839 0 0 1 1.248-.88c.48-.213.998-.32 1.552-.32.544 0 1.046.107 1.504.32.47.203.87.485 1.2.848.342.363.608.8.8 1.312.192.501.288 1.051.288 1.648v.448h-5.92c.086.629.352 1.152.8 1.568.459.416.992.624 1.6.624a2.9 2.9 0 0 0 1.056-.192c.342-.139.624-.325.848-.56zm-3.376-5.648c-.533 0-.986.181-1.36.544-.373.363-.613.848-.72 1.456h4.176c-.106-.587-.352-1.067-.736-1.44a1.853 1.853 0 0 0 -1.36-.56zm13.038 5.232a2.58 2.58 0 0 0 1.072-.224c.341-.149.63-.368.864-.656l1.088 1.088a4.105 4.105 0 0 1 -1.392 1.024 4.27 4.27 0 0 1 -1.744.368 4.049 4.049 0 0 1 -1.6-.32 3.973 3.973 0 0 1 -1.28-.88 4.199 4.199 0 0 1 -.864-1.328 4.393 4.393 0 0 1 -.304-1.632c0-.576.101-1.115.304-1.616.213-.512.501-.949.864-1.312.363-.373.79-.667 1.28-.88a4.049 4.049 0 0 1 1.6-.32c.618 0 1.205.117 1.76.352a4.046 4.046 0 0 1 1.44.992l-1.12 1.168a2.902 2.902 0 0 0 -.928-.704 2.532 2.532 0 0 0 -1.088-.24c-.64 0-1.184.251-1.632.752-.448.491-.672 1.093-.672 1.808 0 .725.224 1.333.672 1.824a2.18 2.18 0 0 0 1.68.736zm3.98-2.56c0-.587.102-1.131.304-1.632.214-.512.496-.949.849-1.312.362-.373.789-.667 1.28-.88a4.05 4.05 0 0 1 1.6-.32 3.975 3.975 0 0 1 2.88 1.2c.362.363.645.8.848 1.312a4.31 4.31 0 0 1 .303 1.632 4.24 4.24 0 0 1 -.32 1.648 3.986 3.986 0 0 1 -.847 1.328 3.862 3.862 0 0 1 -1.28.864c-.491.213-1.02.32-1.584.32a4.05 4.05 0 0 1 -1.6-.32 3.974 3.974 0 0 1 -1.28-.88 4.408 4.408 0 0 1 -.849-1.312 4.435 4.435 0 0 1 -.303-1.648zm4.032 2.592c.651 0 1.185-.245 1.6-.736.427-.491.64-1.104.64-1.84 0-.757-.213-1.381-.64-1.872-.426-.491-.96-.736-1.6-.736-.65 0-1.189.245-1.615.736-.416.491-.625 1.115-.625 1.872 0 .747.209 1.365.624 1.856.427.48.966.72 1.617.72zm7.707-10.336v11.744h-1.808v-11.44zm3.983 3.728v4.768c0 .576.16 1.04.48 1.392s.747.528 1.28.528c.363 0 .694-.08.992-.24.299-.171.555-.421.768-.752v-5.696h1.808v8.016h-1.808v-1.328a3.261 3.261 0 0 1 -1.104 1.088 2.871 2.871 0 0 1 -1.456.368c-.81 0-1.477-.267-2-.8-.512-.533-.768-1.221-.768-2.064v-5.28zm7.553 8.016v-8.016h1.808v1.28c.298-.459.645-.805 1.04-1.04a2.549 2.549 0 0 1 1.344-.368c.533 0 1.008.144 1.424.432.416.277.725.651.928 1.12.298-.512.672-.896 1.12-1.152.458-.267.97-.4 1.536-.4.768 0 1.397.272 1.888.816.49.544.736 1.243.736 2.096v5.232h-1.808v-4.848c0-.555-.15-.997-.448-1.328-.288-.341-.678-.512-1.168-.512-.33 0-.63.08-.896.24a2.37 2.37 0 0 0 -.72.704c.01.085.016.171.016.256.01.085.016.171.016.256v5.232h-1.808v-4.848c0-.555-.15-.997-.448-1.328-.288-.341-.678-.512-1.168-.512-.32 0-.614.08-.88.24a2.092 2.092 0 0 0 -.704.672v5.776zm14.015 0v-8.016h1.808v1.312c.299-.469.662-.827 1.088-1.072a2.928 2.928 0 0 1 1.456-.368c.811 0 1.472.272 1.984.816.523.533.784 1.216.784 2.048v5.28h-1.808v-4.768c0-.576-.16-1.04-.48-1.392s-.746-.528-1.28-.528a1.96 1.96 0 0 0 -.992.256 2.24 2.24 0 0 0 -.752.704v5.728h-1.807zm413.115-104v-11.2h8.048v1.632h-6.128v3.2h4.224v1.6h-4.224v4.768zm11.036-8.016v4.768c0 .576.16 1.04.48 1.392s.747.528 1.28.528c.363 0 .693-.08.992-.24.299-.171.555-.421.768-.752v-5.696h1.808v8.016h-1.808v-1.328a3.266 3.266 0 0 1 -1.104 1.088 2.872 2.872 0 0 1 -1.456.368c-.811 0-1.477-.267-2-.8-.512-.533-.768-1.221-.768-2.064v-5.28zm9.361-3.728v11.744h-1.808v-11.44zm4.031 0v11.744h-1.808v-11.44zm8.985 11.744h-1.76l-2.16-8.016h1.728l1.408 5.664 1.648-5.664h1.536l1.648 5.68 1.392-5.68h1.696l-2.16 8.016h-1.744l-1.616-5.648zm9.525-9.648a1.12 1.12 0 0 1 -.8-.32 1.064 1.064 0 0 1 -.32-.784c0-.299.112-.56.336-.784s.485-.336.784-.336c.309 0 .576.112.8.336s.336.485.336.784c0 .309-.112.571-.336.784-.214.213-.48.32-.8.32zm.912 1.632v8.016h-1.808v-8.016zm7.951 8.016v-1.072a2.812 2.812 0 0 1 -1.072.848 3.2 3.2 0 0 1 -1.392.304c-.501 0-.976-.107-1.424-.32a3.735 3.735 0 0 1 -1.168-.864 4.473 4.473 0 0 1 -.768-1.296 4.676 4.676 0 0 1 -.272-1.6c0-.565.096-1.099.288-1.6s.453-.933.784-1.296a3.858 3.858 0 0 1 1.2-.864c.459-.213.949-.32 1.472-.32.459 0 .885.096 1.28.288.405.181.757.437 1.056.768v-4.416l1.808-.304v11.744zm-4.304-4c0 .725.229 1.333.688 1.824a2.23 2.23 0 0 0 1.696.736c.384 0 .736-.075 1.056-.224.331-.149.613-.368.848-.656v-3.376a2.46 2.46 0 0 0 -.848-.624 2.395 2.395 0 0 0 -1.056-.24c-.683 0-1.253.245-1.712.736-.448.48-.672 1.088-.672 1.824zm9.333 1.888v-4.464h-1.615v-1.44h1.615v-2.208l1.809-.384v2.592h2.24v1.44h-2.24v4.064c0 .395.085.677.256.848.17.16.458.24.864.24.181 0 .346-.011.496-.032.16-.032.357-.085.592-.16v1.52a4.05 4.05 0 0 1 -.784.16 5.047 5.047 0 0 1 -.768.064c-.8 0-1.414-.187-1.84-.56-.416-.384-.625-.944-.625-1.68zm5.634 2.112v-11.44l1.808-.304v5.04c.298-.469.661-.827 1.088-1.072a2.925 2.925 0 0 1 1.456-.368c.81 0 1.472.272 1.984.816.522.533.784 1.216.784 2.048v5.28h-1.808v-4.768c0-.576-.16-1.04-.48-1.392s-.747-.528-1.28-.528c-.363 0-.694.085-.992.256-.288.16-.539.395-.752.704v5.728zm16.698-1.44a2.58 2.58 0 0 0 1.072-.224c.341-.149.629-.368.864-.656l1.088 1.088a4.117 4.117 0 0 1 -1.392 1.024 4.272 4.272 0 0 1 -1.744.368 3.963 3.963 0 0 1 -2.88-1.2 4.188 4.188 0 0 1 -.864-1.328 4.387 4.387 0 0 1 -.304-1.632c0-.576.101-1.115.304-1.616.213-.512.501-.949.864-1.312a3.963 3.963 0 0 1 2.88-1.2c.618 0 1.205.117 1.76.352a4.051 4.051 0 0 1 1.44.992l-1.12 1.168a2.912 2.912 0 0 0 -.928-.704 2.534 2.534 0 0 0 -1.088-.24c-.64 0-1.184.251-1.632.752-.448.491-.672 1.093-.672 1.808 0 .725.224 1.333.672 1.824a2.18 2.18 0 0 0 1.68.736zm3.98-2.56c0-.587.102-1.131.304-1.632.214-.512.496-.949.848-1.312.363-.373.79-.667 1.28-.88a4.053 4.053 0 0 1 1.6-.32 3.972 3.972 0 0 1 2.88 1.2c.363.363.646.8.848 1.312.203.501.304 1.045.304 1.632s-.106 1.136-.32 1.648a3.97 3.97 0 0 1 -.848 1.328 3.855 3.855 0 0 1 -1.28.864 3.93 3.93 0 0 1 -1.584.32 4.053 4.053 0 0 1 -1.6-.32 3.984 3.984 0 0 1 -1.28-.88 4.422 4.422 0 0 1 -.848-1.312 4.449 4.449 0 0 1 -.304-1.648zm4.032 2.592c.651 0 1.184-.245 1.6-.736.427-.491.64-1.104.64-1.84 0-.757-.213-1.381-.64-1.872a2.031 2.031 0 0 0 -1.6-.736 2.05 2.05 0 0 0 -1.616.736c-.416.491-.624 1.115-.624 1.872 0 .747.208 1.365.624 1.856.427.48.966.72 1.616.72zm5.899 1.408v-8.016h1.808v1.28c.299-.459.645-.805 1.04-1.04a2.547 2.547 0 0 1 1.344-.368c.533 0 1.008.144 1.424.432.416.277.725.651.928 1.12.299-.512.672-.896 1.12-1.152.459-.267.971-.4 1.536-.4.768 0 1.397.272 1.888.816s.736 1.243.736 2.096v5.232h-1.808v-4.848c0-.555-.149-.997-.448-1.328-.288-.341-.677-.512-1.168-.512-.331 0-.629.08-.896.24s-.507.395-.72.704a2 2 0 0 1 .016.256 2 2 0 0 1 .016.256v5.232h-1.808v-4.848c0-.555-.149-.997-.448-1.328-.288-.341-.677-.512-1.168-.512-.32 0-.613.08-.88.24a2.092 2.092 0 0 0 -.704.672v5.776zm21.92-4c0 .565-.096 1.099-.288 1.6a3.932 3.932 0 0 1 -.8 1.296 3.881 3.881 0 0 1 -1.2.864c-.459.213-.95.32-1.472.32-.47 0-.912-.096-1.328-.288a2.892 2.892 0 0 1 -1.04-.832v1.04h-1.776v-11.44l1.808-.304v4.8a2.91 2.91 0 0 1 1.056-.832 3.3 3.3 0 0 1 1.408-.304c.501 0 .976.107 1.424.32s.832.507 1.152.88c.33.363.586.795.768 1.296a4.31 4.31 0 0 1 .288 1.584zm-4.176-2.56c-.395 0-.758.075-1.088.224-.32.149-.598.373-.832.672v3.344c.234.277.517.496.848.656.33.149.688.224 1.072.224.682 0 1.248-.24 1.696-.72.458-.491.688-1.104.688-1.84 0-.725-.23-1.333-.688-1.824a2.23 2.23 0 0 0 -1.696-.736zm6.949-3.088a1.12 1.12 0 0 1 -.8-.32 1.064 1.064 0 0 1 -.32-.784c0-.299.112-.56.336-.784s.485-.336.784-.336c.309 0 .576.112.8.336s.336.485.336.784c0 .309-.112.571-.336.784-.214.213-.48.32-.8.32zm.912 1.632v8.016h-1.808v-8.016zm2.223 8.016v-8.016h1.808v1.312c.299-.469.661-.827 1.088-1.072a2.928 2.928 0 0 1 1.456-.368c.811 0 1.472.272 1.984.816.523.533.784 1.216.784 2.048v5.28h-1.808v-4.768c0-.576-.16-1.04-.48-1.392s-.747-.528-1.28-.528a1.96 1.96 0 0 0 -.992.256c-.288.16-.539.395-.752.704v5.728zm16.209-1.024a5.302 5.302 0 0 1 -1.504.896 4.67 4.67 0 0 1 -1.68.288 4.046 4.046 0 0 1 -2.896-1.2 4.188 4.188 0 0 1 -.864-1.328 4.188 4.188 0 0 1 -.32-1.632c0-.587.096-1.131.288-1.632.202-.512.474-.949.816-1.312a3.839 3.839 0 0 1 1.248-.88c.48-.213.997-.32 1.552-.32.544 0 1.045.107 1.504.32.469.203.869.485 1.2.848.341.363.608.8.8 1.312.192.501.287 1.051.287 1.648v.448h-5.919c.085.629.352 1.152.8 1.568.458.416.992.624 1.6.624.373 0 .725-.064 1.056-.192.341-.139.624-.325.848-.56zm-3.376-5.648c-.534 0-.987.181-1.36.544-.374.363-.614.848-.72 1.456h4.176c-.107-.587-.352-1.067-.736-1.44a1.854 1.854 0 0 0 -1.36-.56zm11.426 6.672v-1.072a2.805 2.805 0 0 1 -1.072.848c-.426.203-.89.304-1.392.304-.501 0-.976-.107-1.424-.32a3.735 3.735 0 0 1 -1.168-.864 4.473 4.473 0 0 1 -.768-1.296 4.676 4.676 0 0 1 -.272-1.6c0-.565.096-1.099.288-1.6s.454-.933.784-1.296a3.881 3.881 0 0 1 1.2-.864c.459-.213.95-.32 1.472-.32.459 0 .886.096 1.28.288a3.11 3.11 0 0 1 1.056.768v-4.416l1.808-.304v11.744zm-4.304-4c0 .725.23 1.333.688 1.824a2.23 2.23 0 0 0 1.696.736c.384 0 .736-.075 1.056-.224.331-.149.614-.368.848-.656v-3.376a2.45 2.45 0 0 0 -.848-.624 2.39 2.39 0 0 0 -1.056-.24c-.682 0-1.253.245-1.712.736-.448.48-.672 1.088-.672 1.824zm12.832-5.648a1.12 1.12 0 0 1 -.8-.32 1.064 1.064 0 0 1 -.32-.784c0-.299.112-.56.336-.784s.485-.336.784-.336c.309 0 .576.112.8.336s.336.485.336.784c0 .309-.112.571-.336.784-.214.213-.48.32-.8.32zm.912 1.632v8.016h-1.808v-8.016zm2.223 8.016v-8.016h1.808v1.312c.299-.469.661-.827 1.088-1.072a2.928 2.928 0 0 1 1.456-.368c.811 0 1.472.272 1.984.816.523.533.784 1.216.784 2.048v5.28h-1.808v-4.768c0-.576-.16-1.04-.48-1.392s-.747-.528-1.28-.528a1.96 1.96 0 0 0 -.992.256c-.288.16-.539.395-.752.704v5.728zm9.312 3.392v-11.408h1.776v1.152a2.87 2.87 0 0 1 1.056-.896c.438-.213.918-.32 1.44-.32.502 0 .976.107 1.424.32s.832.507 1.152.88c.331.363.587.795.768 1.296a4.31 4.31 0 0 1 .288 1.584c0 .565-.096 1.099-.288 1.6a3.9 3.9 0 0 1 -.8 1.296 3.858 3.858 0 0 1 -1.2.864 3.45 3.45 0 0 1 -1.472.32c-.469 0-.906-.091-1.312-.272a3.009 3.009 0 0 1 -1.024-.768v4.352zm3.728-9.952c-.394 0-.757.075-1.088.224-.32.149-.597.373-.832.672v3.344c.235.277.518.496.848.656a2.58 2.58 0 0 0 1.072.224c.683 0 1.248-.24 1.696-.72.459-.491.688-1.104.688-1.84 0-.725-.229-1.333-.688-1.824a2.228 2.228 0 0 0 -1.696-.736zm7.814-1.456v4.768c0 .576.16 1.04.48 1.392s.746.528 1.28.528c.362 0 .693-.08.992-.24.298-.171.554-.421.768-.752v-5.696h1.808v8.016h-1.808v-1.328a3.266 3.266 0 0 1 -1.104 1.088 2.872 2.872 0 0 1 -1.456.368c-.811 0-1.478-.267-2-.8-.512-.533-.768-1.221-.768-2.064v-5.28zm8.544 5.904v-4.464h-1.616v-1.44h1.616v-2.208l1.808-.384v2.592h2.24v1.44h-2.24v4.064c0 .395.085.677.256.848.171.16.459.24.864.24.181 0 .347-.011.496-.032.16-.032.357-.085.592-.16v1.52a4.05 4.05 0 0 1 -.784.16 5.027 5.027 0 0 1 -.768.064c-.8 0-1.413-.187-1.84-.56-.416-.384-.624-.944-.624-1.68zm5.825.544h1.824l-1.568 4.224h-1.328zm-188.478 23.128a2.58 2.58 0 0 0 1.072-.224c.341-.149.629-.368.864-.656l1.088 1.088a4.098 4.098 0 0 1 -1.392 1.024 4.272 4.272 0 0 1 -1.744.368 4.05 4.05 0 0 1 -1.6-.32 3.974 3.974 0 0 1 -1.28-.88 4.188 4.188 0 0 1 -.864-1.328 4.387 4.387 0 0 1 -.304-1.632c0-.576.101-1.115.304-1.616.213-.512.501-.949.864-1.312a3.974 3.974 0 0 1 1.28-.88 4.05 4.05 0 0 1 1.6-.32c.619 0 1.205.117 1.76.352a4.051 4.051 0 0 1 1.44.992l-1.12 1.168a2.901 2.901 0 0 0 -.928-.704 2.531 2.531 0 0 0 -1.088-.24c-.64 0-1.184.251-1.632.752-.448.491-.672 1.093-.672 1.808 0 .725.224 1.333.672 1.824a2.18 2.18 0 0 0 1.68.736zm3.981-2.56c0-.587.101-1.131.304-1.632.213-.512.496-.949.848-1.312a3.963 3.963 0 0 1 2.88-1.2 3.976 3.976 0 0 1 2.88 1.2c.362.363.645.8.848 1.312.202.501.304 1.045.304 1.632s-.107 1.136-.32 1.648a4.001 4.001 0 0 1 -.848 1.328 3.865 3.865 0 0 1 -1.28.864 3.937 3.937 0 0 1 -1.584.32 3.963 3.963 0 0 1 -2.88-1.2 4.402 4.402 0 0 1 -.848-1.312 4.429 4.429 0 0 1 -.304-1.648zm4.032 2.592c.65 0 1.184-.245 1.6-.736.426-.491.64-1.104.64-1.84 0-.757-.214-1.381-.64-1.872-.427-.491-.96-.736-1.6-.736-.651 0-1.19.245-1.616.736-.416.491-.624 1.115-.624 1.872 0 .747.208 1.365.624 1.856.426.48.965.72 1.616.72zm5.898 1.408v-8.016h1.808v1.312c.299-.469.661-.827 1.088-1.072a2.928 2.928 0 0 1 1.456-.368c.811 0 1.472.272 1.984.816.523.533.784 1.216.784 2.048v5.28h-1.808v-4.768c0-.576-.16-1.04-.48-1.392s-.747-.528-1.28-.528a1.96 1.96 0 0 0 -.992.256c-.288.16-.539.395-.752.704v5.728zm9.313 0v-8.016h1.808v1.312c.298-.469.661-.827 1.088-1.072a2.925 2.925 0 0 1 1.456-.368c.81 0 1.472.272 1.984.816.522.533.784 1.216.784 2.048v5.28h-1.808v-4.768c0-.576-.16-1.04-.48-1.392s-.747-.528-1.28-.528c-.363 0-.694.085-.992.256-.288.16-.539.395-.752.704v5.728zm16.208-1.024a5.302 5.302 0 0 1 -1.504.896 4.663 4.663 0 0 1 -1.68.288 4.05 4.05 0 0 1 -2.896-1.2 4.188 4.188 0 0 1 -.864-1.328 4.206 4.206 0 0 1 -.32-1.632c0-.587.096-1.131.288-1.632.203-.512.475-.949.816-1.312a3.839 3.839 0 0 1 1.248-.88c.48-.213.997-.32 1.552-.32.544 0 1.045.107 1.504.32.469.203.869.485 1.2.848.341.363.608.8.8 1.312.192.501.288 1.051.288 1.648v.448h-5.92c.085.629.352 1.152.8 1.568.459.416.992.624 1.6.624.373 0 .725-.064 1.056-.192.341-.139.624-.325.848-.56zm-3.376-5.648c-.533 0-.987.181-1.36.544s-.613.848-.72 1.456h4.176c-.107-.587-.352-1.067-.736-1.44a1.853 1.853 0 0 0 -1.36-.56zm9.491 5.232a2.58 2.58 0 0 0 1.072-.224c.341-.149.629-.368.864-.656l1.088 1.088a4.098 4.098 0 0 1 -1.392 1.024 4.272 4.272 0 0 1 -1.744.368 4.05 4.05 0 0 1 -1.6-.32 3.974 3.974 0 0 1 -1.28-.88 4.188 4.188 0 0 1 -.864-1.328 4.387 4.387 0 0 1 -.304-1.632c0-.576.101-1.115.304-1.616.213-.512.501-.949.864-1.312a3.974 3.974 0 0 1 1.28-.88 4.05 4.05 0 0 1 1.6-.32c.619 0 1.205.117 1.76.352a4.051 4.051 0 0 1 1.44.992l-1.12 1.168a2.901 2.901 0 0 0 -.928-.704 2.531 2.531 0 0 0 -1.088-.24c-.64 0-1.184.251-1.632.752-.448.491-.672 1.093-.672 1.808 0 .725.224 1.333.672 1.824a2.18 2.18 0 0 0 1.68.736zm5.731-.672v-4.464h-1.616v-1.44h1.616v-2.208l1.808-.384v2.592h2.24v1.44h-2.24v4.064c0 .395.085.677.256.848.171.16.459.24.864.24.181 0 .347-.011.496-.032.16-.032.357-.085.592-.16v1.52a4.05 4.05 0 0 1 -.784.16 5.027 5.027 0 0 1 -.768.064c-.8 0-1.413-.187-1.84-.56-.416-.384-.624-.944-.624-1.68zm12.42 1.088a5.302 5.302 0 0 1 -1.504.896 4.67 4.67 0 0 1 -1.68.288 4.046 4.046 0 0 1 -2.896-1.2 4.188 4.188 0 0 1 -.864-1.328 4.188 4.188 0 0 1 -.32-1.632c0-.587.096-1.131.288-1.632.202-.512.474-.949.816-1.312a3.839 3.839 0 0 1 1.248-.88c.48-.213.997-.32 1.552-.32.544 0 1.045.107 1.504.32.469.203.869.485 1.2.848.341.363.608.8.8 1.312.192.501.288 1.051.288 1.648v.448h-5.92c.085.629.352 1.152.8 1.568.458.416.992.624 1.6.624.373 0 .725-.064 1.056-.192.341-.139.624-.325.848-.56zm-3.376-5.648c-.534 0-.987.181-1.36.544-.374.363-.614.848-.72 1.456h4.176c-.107-.587-.352-1.067-.736-1.44a1.854 1.854 0 0 0 -1.36-.56zm11.427 6.672v-1.072a2.82 2.82 0 0 1 -1.072.848 3.2 3.2 0 0 1 -1.392.304c-.502 0-.976-.107-1.424-.32a3.724 3.724 0 0 1 -1.168-.864 4.473 4.473 0 0 1 -.768-1.296 4.652 4.652 0 0 1 -.272-1.6c0-.565.096-1.099.288-1.6s.453-.933.784-1.296a3.858 3.858 0 0 1 1.2-.864 3.45 3.45 0 0 1 1.472-.32c.458 0 .885.096 1.28.288.405.181.757.437 1.056.768v-4.416l1.808-.304v11.744zm-4.304-4c0 .725.229 1.333.688 1.824a2.228 2.228 0 0 0 1.696.736c.384 0 .736-.075 1.056-.224.33-.149.613-.368.848-.656v-3.376a2.47 2.47 0 0 0 -.848-.624 2.395 2.395 0 0 0 -1.056-.24c-.683 0-1.254.245-1.712.736-.448.48-.672 1.088-.672 1.824zm11.295-4.016h1.728v-1.424c0-.864.235-1.525.704-1.984.48-.469 1.168-.704 2.064-.704.213 0 .427.016.64.048.224.032.411.069.56.112v1.536a9.12 9.12 0 0 0 -.512-.096 2.997 2.997 0 0 0 -.448-.032c-.416 0-.72.096-.912.288-.192.181-.288.469-.288.864v1.392h2.16v1.44h-2.16v6.576h-1.808v-6.576h-1.728zm8.114-1.632c-.309 0-.576-.107-.8-.32a1.067 1.067 0 0 1 -.32-.784c0-.299.112-.56.336-.784s.485-.336.784-.336c.309 0 .576.112.8.336s.336.485.336.784c0 .309-.112.571-.336.784-.213.213-.48.32-.8.32zm.912 1.632v8.016h-1.808v-8.016zm9.119 6.992c-.49.405-.992.704-1.504.896a4.663 4.663 0 0 1 -1.68.288 4.053 4.053 0 0 1 -1.6-.32 3.936 3.936 0 0 1 -1.296-.88 4.223 4.223 0 0 1 -.864-1.328 4.206 4.206 0 0 1 -.32-1.632c0-.587.096-1.131.288-1.632.203-.512.475-.949.816-1.312a3.839 3.839 0 0 1 1.248-.88c.48-.213.998-.32 1.552-.32.544 0 1.046.107 1.504.32.47.203.87.485 1.2.848.342.363.608.8.8 1.312.192.501.288 1.051.288 1.648v.448h-5.92c.086.629.352 1.152.8 1.568.459.416.992.624 1.6.624.374 0 .726-.064 1.056-.192.342-.139.624-.325.848-.56zm-3.376-5.648a1.88 1.88 0 0 0 -1.36.544c-.373.363-.613.848-.72 1.456h4.176c-.106-.587-.352-1.067-.736-1.44a1.851 1.851 0 0 0 -1.36-.56zm7.46-5.072v11.744h-1.808v-11.44zm7.951 11.744v-1.072a2.805 2.805 0 0 1 -1.072.848c-.426.203-.89.304-1.392.304-.501 0-.976-.107-1.424-.32a3.735 3.735 0 0 1 -1.168-.864 4.473 4.473 0 0 1 -.768-1.296 4.676 4.676 0 0 1 -.272-1.6c0-.565.096-1.099.288-1.6s.454-.933.784-1.296a3.881 3.881 0 0 1 1.2-.864c.459-.213.95-.32 1.472-.32.459 0 .886.096 1.28.288a3.11 3.11 0 0 1 1.056.768v-4.416l1.808-.304v11.744zm-4.304-4c0 .725.23 1.333.688 1.824a2.23 2.23 0 0 0 1.696.736c.384 0 .736-.075 1.056-.224.331-.149.614-.368.848-.656v-3.376a2.45 2.45 0 0 0 -.848-.624 2.39 2.39 0 0 0 -1.056-.24c-.682 0-1.253.245-1.712.736-.448.48-.672 1.088-.672 1.824zm7.622 3.072.848-1.216c.523.331.981.565 1.376.704s.795.208 1.2.208c.48 0 .869-.096 1.168-.288.299-.203.448-.464.448-.784a.686.686 0 0 0 -.272-.576c-.171-.149-.448-.261-.832-.336l-1.424-.24c-.768-.139-1.349-.389-1.744-.752-.384-.373-.576-.859-.576-1.456 0-.747.283-1.344.848-1.792.576-.459 1.328-.688 2.256-.688.555 0 1.088.08 1.6.24.523.149 1.04.389 1.552.72l-.848 1.184a4.781 4.781 0 0 0 -1.216-.576 3.87 3.87 0 0 0 -1.2-.192c-.416 0-.752.085-1.008.256a.773.773 0 0 0 -.368.688c0 .256.08.448.24.576.171.128.469.229.896.304l1.408.256c.8.149 1.392.411 1.776.784.395.373.592.859.592 1.456 0 .363-.085.704-.256 1.024-.16.32-.389.597-.688.832a3.344 3.344 0 0 1 -1.04.56 4.127 4.127 0 0 1 -1.28.192 6.646 6.646 0 0 1 -1.936-.272 4.616 4.616 0 0 1 -1.52-.816zm14.402 1.056c-.832 0-1.515-.224-2.048-.672-.523-.459-.784-1.045-.784-1.76s.272-1.285.816-1.712c.555-.427 1.301-.64 2.24-.64.373 0 .736.043 1.088.128.352.075.709.197 1.072.368v-.88c0-.523-.155-.917-.464-1.184-.309-.277-.768-.416-1.376-.416-.331 0-.688.053-1.072.16a7.184 7.184 0 0 0 -1.264.464l-.64-1.312a8.977 8.977 0 0 1 1.712-.608 6.51 6.51 0 0 1 1.616-.208c1.035 0 1.84.256 2.416.768.576.501.864 1.216.864 2.144v5.232h-1.792v-.816a3.617 3.617 0 0 1 -1.12.72 3.465 3.465 0 0 1 -1.264.224zm-1.136-2.464c0 .363.149.656.448.88.299.213.693.32 1.184.32.363 0 .699-.053 1.008-.16.32-.107.613-.272.88-.496v-1.312a3.371 3.371 0 0 0 -.88-.288 4.661 4.661 0 0 0 -.976-.096c-.512 0-.917.107-1.216.32a.954.954 0 0 0 -.448.832zm7.501 2.336v-8.016h1.808v1.744c.213-.608.507-1.072.88-1.392a1.974 1.974 0 0 1 1.328-.496c.149.011.283.027.4.048s.245.059.384.112v1.584a1.963 1.963 0 0 0 -.48-.144 2.773 2.773 0 0 0 -.512-.048c-.427 0-.816.117-1.168.352s-.629.56-.832.976v5.28zm12.787-1.024a5.302 5.302 0 0 1 -1.504.896 4.67 4.67 0 0 1 -1.68.288 4.046 4.046 0 0 1 -2.896-1.2 4.188 4.188 0 0 1 -.864-1.328 4.188 4.188 0 0 1 -.32-1.632c0-.587.096-1.131.288-1.632.202-.512.474-.949.816-1.312a3.839 3.839 0 0 1 1.248-.88c.48-.213.997-.32 1.552-.32.544 0 1.045.107 1.504.32.469.203.869.485 1.2.848.341.363.608.8.8 1.312.192.501.287 1.051.287 1.648v.448h-5.919c.085.629.352 1.152.8 1.568.458.416.992.624 1.6.624.373 0 .725-.064 1.056-.192.341-.139.624-.325.848-.56zm-3.376-5.648c-.534 0-.987.181-1.36.544-.374.363-.614.848-.72 1.456h4.176c-.107-.587-.352-1.067-.736-1.44a1.854 1.854 0 0 0 -1.36-.56zm12.509 6.72c-.501 0-.976-.107-1.424-.32a3.735 3.735 0 0 1 -1.168-.864 4.26 4.26 0 0 1 -.768-1.28 4.676 4.676 0 0 1 -.272-1.6c0-.565.096-1.099.288-1.6s.453-.933.784-1.296a3.658 3.658 0 0 1 1.2-.848c.459-.213.949-.32 1.472-.32.459 0 .891.096 1.296.288.405.181.757.448 1.056.8v-1.024h1.792v8.288c0 1.024-.331 1.813-.992 2.368-.651.555-1.579.832-2.784.832a6.952 6.952 0 0 1 -1.696-.208 6.47 6.47 0 0 1 -1.52-.56l.64-1.344c.459.235.891.405 1.296.512a4.31 4.31 0 0 0 1.2.176c.672 0 1.179-.155 1.52-.464.352-.299.528-.736.528-1.312v-1.36a2.884 2.884 0 0 1 -1.072.832 3.161 3.161 0 0 1 -1.376.304zm-1.84-4.064c0 .725.229 1.333.688 1.824a2.23 2.23 0 0 0 1.696.736c.384 0 .736-.075 1.056-.224.331-.149.613-.368.848-.656v-3.36a2.46 2.46 0 0 0 -.848-.624 2.395 2.395 0 0 0 -1.056-.24c-.683 0-1.253.24-1.712.72-.448.48-.672 1.088-.672 1.824zm8.326 4.016v-8.016h1.808v1.744c.213-.608.507-1.072.88-1.392a1.974 1.974 0 0 1 1.328-.496c.149.011.283.027.4.048s.245.059.384.112v1.584a1.963 1.963 0 0 0 -.48-.144 2.773 2.773 0 0 0 -.512-.048c-.427 0-.816.117-1.168.352s-.629.56-.832.976v5.28zm5.523-4c0-.587.101-1.131.304-1.632.213-.512.496-.949.848-1.312a3.963 3.963 0 0 1 2.88-1.2 3.976 3.976 0 0 1 2.88 1.2c.362.363.645.8.848 1.312.202.501.304 1.045.304 1.632s-.107 1.136-.32 1.648a4.001 4.001 0 0 1 -.848 1.328 3.865 3.865 0 0 1 -1.28.864 3.937 3.937 0 0 1 -1.584.32 3.963 3.963 0 0 1 -2.88-1.2 4.402 4.402 0 0 1 -.848-1.312 4.429 4.429 0 0 1 -.304-1.648zm4.032 2.592c.65 0 1.184-.245 1.6-.736.426-.491.64-1.104.64-1.84 0-.757-.214-1.381-.64-1.872-.427-.491-.96-.736-1.6-.736-.651 0-1.19.245-1.616.736-.416.491-.624 1.115-.624 1.872 0 .747.208 1.365.624 1.856.426.48.965.72 1.616.72zm7.658-6.608v4.768c0 .576.16 1.04.48 1.392s.747.528 1.28.528c.363 0 .694-.08.992-.24.299-.171.555-.421.768-.752v-5.696h1.808v8.016h-1.808v-1.328a3.249 3.249 0 0 1 -1.104 1.088 2.87 2.87 0 0 1 -1.456.368c-.81 0-1.477-.267-2-.8-.512-.533-.768-1.221-.768-2.064v-5.28zm7.553 11.408v-11.408h1.776v1.152a2.854 2.854 0 0 1 1.056-.896c.437-.213.917-.32 1.44-.32.501 0 .976.107 1.424.32s.832.507 1.152.88c.33.363.586.795.768 1.296a4.31 4.31 0 0 1 .288 1.584c0 .565-.096 1.099-.288 1.6a3.916 3.916 0 0 1 -.8 1.296 3.881 3.881 0 0 1 -1.2.864c-.459.213-.95.32-1.472.32-.47 0-.907-.091-1.312-.272a3 3 0 0 1 -1.024-.768v4.352zm3.728-9.952c-.395 0-.758.075-1.088.224-.32.149-.598.373-.832.672v3.344c.234.277.517.496.848.656.33.149.688.224 1.072.224.682 0 1.248-.24 1.696-.72.458-.491.688-1.104.688-1.84 0-.725-.23-1.333-.688-1.824a2.23 2.23 0 0 0 -1.696-.736zm12.996 5.536a5.302 5.302 0 0 1 -1.504.896 4.663 4.663 0 0 1 -1.68.288 4.05 4.05 0 0 1 -2.896-1.2 4.188 4.188 0 0 1 -.864-1.328 4.206 4.206 0 0 1 -.32-1.632c0-.587.096-1.131.288-1.632.203-.512.475-.949.816-1.312a3.839 3.839 0 0 1 1.248-.88c.48-.213.997-.32 1.552-.32.544 0 1.045.107 1.504.32.469.203.869.485 1.2.848.341.363.608.8.8 1.312.192.501.288 1.051.288 1.648v.448h-5.92c.085.629.352 1.152.8 1.568.459.416.992.624 1.6.624.373 0 .725-.064 1.056-.192.341-.139.624-.325.848-.56zm-3.376-5.648c-.533 0-.987.181-1.36.544s-.613.848-.72 1.456h4.176c-.107-.587-.352-1.067-.736-1.44a1.853 1.853 0 0 0 -1.36-.56zm11.427 6.672v-1.072a2.82 2.82 0 0 1 -1.072.848 3.2 3.2 0 0 1 -1.392.304c-.502 0-.976-.107-1.424-.32a3.724 3.724 0 0 1 -1.168-.864 4.473 4.473 0 0 1 -.768-1.296 4.652 4.652 0 0 1 -.272-1.6c0-.565.096-1.099.288-1.6s.453-.933.784-1.296a3.858 3.858 0 0 1 1.2-.864 3.45 3.45 0 0 1 1.472-.32c.458 0 .885.096 1.28.288.405.181.757.437 1.056.768v-4.416l1.808-.304v11.744zm-4.304-4c0 .725.229 1.333.688 1.824a2.228 2.228 0 0 0 1.696.736c.384 0 .736-.075 1.056-.224.33-.149.613-.368.848-.656v-3.376a2.47 2.47 0 0 0 -.848-.624 2.395 2.395 0 0 0 -1.056-.24c-.683 0-1.254.245-1.712.736-.448.48-.672 1.088-.672 1.824zm-210.296-175v-11.2h1.92v4.72h5.568v-4.72h1.92v11.2h-1.92v-4.8h-5.568v4.8zm14.069.128c-.832 0-1.514-.224-2.048-.672-.522-.459-.784-1.045-.784-1.76s.272-1.285.816-1.712c.555-.427 1.302-.64 2.24-.64.374 0 .736.043 1.088.128.352.075.71.197 1.072.368v-.88c0-.523-.154-.917-.464-1.184-.309-.277-.768-.416-1.376-.416-.33 0-.688.053-1.072.16a7.184 7.184 0 0 0 -1.264.464l-.64-1.312a9 9 0 0 1 1.712-.608 6.51 6.51 0 0 1 1.616-.208c1.035 0 1.84.256 2.416.768.576.501.864 1.216.864 2.144v5.232h-1.792v-.816a3.605 3.605 0 0 1 -1.12.72 3.465 3.465 0 0 1 -1.264.224zm-1.136-2.464c0 .363.15.656.448.88.299.213.694.32 1.184.32.363 0 .699-.053 1.008-.16.32-.107.614-.272.88-.496v-1.312a3.371 3.371 0 0 0 -.88-.288 4.655 4.655 0 0 0 -.976-.096c-.512 0-.917.107-1.216.32a.956.956 0 0 0 -.448.832zm9.309-9.408v11.744h-1.808v-11.44zm1.583 3.728h1.728v-1.424c0-.864.235-1.525.704-1.984.48-.469 1.168-.704 2.064-.704.214 0 .427.016.64.048.224.032.411.069.56.112v1.536a8.954 8.954 0 0 0 -.512-.096 2.987 2.987 0 0 0 -.448-.032c-.416 0-.72.096-.912.288-.192.181-.288.469-.288.864v1.392h2.16v1.44h-2.16v6.576h-1.808v-6.576h-1.728zm13.98 8.016h-1.76l-2.16-8.016h1.728l1.408 5.664 1.648-5.664h1.536l1.648 5.68 1.392-5.68h1.696l-2.16 8.016h-1.744l-1.616-5.648zm9.525-9.648c-.309 0-.576-.107-.8-.32a1.067 1.067 0 0 1 -.32-.784c0-.299.112-.56.336-.784s.485-.336.784-.336c.309 0 .576.112.8.336s.336.485.336.784c0 .309-.112.571-.336.784-.213.213-.48.32-.8.32zm.912 1.632v8.016h-1.808v-8.016zm7.951 8.016v-1.072a2.805 2.805 0 0 1 -1.072.848c-.426.203-.89.304-1.392.304-.501 0-.976-.107-1.424-.32a3.735 3.735 0 0 1 -1.168-.864 4.473 4.473 0 0 1 -.768-1.296 4.676 4.676 0 0 1 -.272-1.6c0-.565.096-1.099.288-1.6s.454-.933.784-1.296a3.881 3.881 0 0 1 1.2-.864c.459-.213.95-.32 1.472-.32.459 0 .886.096 1.28.288a3.11 3.11 0 0 1 1.056.768v-4.416l1.808-.304v11.744zm-4.304-4c0 .725.23 1.333.688 1.824a2.23 2.23 0 0 0 1.696.736c.384 0 .736-.075 1.056-.224.331-.149.614-.368.848-.656v-3.376a2.45 2.45 0 0 0 -.848-.624 2.39 2.39 0 0 0 -1.056-.24c-.682 0-1.253.245-1.712.736-.448.48-.672 1.088-.672 1.824zm9.334 1.888v-4.464h-1.616v-1.44h1.616v-2.208l1.808-.384v2.592h2.24v1.44h-2.24v4.064c0 .395.085.677.256.848.171.16.459.24.864.24.181 0 .347-.011.496-.032.16-.032.357-.085.592-.16v1.52a4.05 4.05 0 0 1 -.784.16 5.027 5.027 0 0 1 -.768.064c-.8 0-1.413-.187-1.84-.56-.416-.384-.624-.944-.624-1.68zm5.633 2.112v-11.44l1.808-.304v5.04c.299-.469.661-.827 1.088-1.072a2.928 2.928 0 0 1 1.456-.368c.811 0 1.472.272 1.984.816.523.533.784 1.216.784 2.048v5.28h-1.808v-4.768c0-.576-.16-1.04-.48-1.392s-.747-.528-1.28-.528a1.96 1.96 0 0 0 -.992.256c-.288.16-.539.395-.752.704v5.728zm18.634 0v-1.072a2.805 2.805 0 0 1 -1.072.848c-.426.203-.89.304-1.392.304-.501 0-.976-.107-1.424-.32a3.735 3.735 0 0 1 -1.168-.864 4.473 4.473 0 0 1 -.768-1.296 4.676 4.676 0 0 1 -.272-1.6c0-.565.096-1.099.288-1.6s.454-.933.784-1.296a3.881 3.881 0 0 1 1.2-.864c.459-.213.95-.32 1.472-.32.459 0 .886.096 1.28.288a3.11 3.11 0 0 1 1.056.768v-4.416l1.808-.304v11.744zm-4.304-4c0 .725.23 1.333.688 1.824a2.23 2.23 0 0 0 1.696.736c.384 0 .736-.075 1.056-.224.331-.149.614-.368.848-.656v-3.376a2.45 2.45 0 0 0 -.848-.624 2.39 2.39 0 0 0 -1.056-.24c-.682 0-1.253.245-1.712.736-.448.48-.672 1.088-.672 1.824zm10.774 4.128c-.832 0-1.515-.224-2.048-.672-.523-.459-.784-1.045-.784-1.76s.272-1.285.816-1.712c.555-.427 1.301-.64 2.24-.64.373 0 .736.043 1.088.128.352.075.709.197 1.072.368v-.88c0-.523-.155-.917-.464-1.184-.309-.277-.768-.416-1.376-.416-.331 0-.688.053-1.072.16a7.184 7.184 0 0 0 -1.264.464l-.64-1.312a8.977 8.977 0 0 1 1.712-.608 6.51 6.51 0 0 1 1.616-.208c1.035 0 1.84.256 2.416.768.576.501.864 1.216.864 2.144v5.232h-1.792v-.816a3.617 3.617 0 0 1 -1.12.72 3.465 3.465 0 0 1 -1.264.224zm-1.136-2.464c0 .363.149.656.448.88.299.213.693.32 1.184.32.363 0 .699-.053 1.008-.16.32-.107.613-.272.88-.496v-1.312a3.371 3.371 0 0 0 -.88-.288 4.661 4.661 0 0 0 -.976-.096c-.512 0-.917.107-1.216.32a.954.954 0 0 0 -.448.832zm8.258.224v-4.464h-1.616v-1.44h1.616v-2.208l1.808-.384v2.592h2.24v1.44h-2.24v4.064c0 .395.086.677.256.848.171.16.459.24.864.24.182 0 .347-.011.496-.032.16-.032.358-.085.592-.16v1.52a4.035 4.035 0 0 1 -.784.16 5.027 5.027 0 0 1 -.768.064c-.8 0-1.413-.187-1.84-.56-.416-.384-.624-.944-.624-1.68zm12.42 1.088a5.302 5.302 0 0 1 -1.504.896 4.663 4.663 0 0 1 -1.68.288 4.05 4.05 0 0 1 -2.896-1.2 4.188 4.188 0 0 1 -.864-1.328 4.206 4.206 0 0 1 -.32-1.632c0-.587.096-1.131.288-1.632.203-.512.475-.949.816-1.312a3.839 3.839 0 0 1 1.248-.88c.48-.213.997-.32 1.552-.32.544 0 1.045.107 1.504.32.469.203.869.485 1.2.848.341.363.608.8.8 1.312.192.501.288 1.051.288 1.648v.448h-5.92c.085.629.352 1.152.8 1.568.459.416.992.624 1.6.624.373 0 .725-.064 1.056-.192.341-.139.624-.325.848-.56zm-3.376-5.648c-.533 0-.987.181-1.36.544s-.613.848-.72 1.456h4.176c-.107-.587-.352-1.067-.736-1.44a1.853 1.853 0 0 0 -1.36-.56zm9.246 10.064v-11.408h1.776v1.152a2.854 2.854 0 0 1 1.056-.896c.437-.213.917-.32 1.44-.32.501 0 .976.107 1.424.32s.832.507 1.152.88c.33.363.586.795.768 1.296a4.31 4.31 0 0 1 .288 1.584c0 .565-.096 1.099-.288 1.6a3.916 3.916 0 0 1 -.8 1.296 3.881 3.881 0 0 1 -1.2.864c-.459.213-.95.32-1.472.32-.47 0-.907-.091-1.312-.272a3 3 0 0 1 -1.024-.768v4.352zm3.728-9.952c-.395 0-.758.075-1.088.224-.32.149-.598.373-.832.672v3.344c.234.277.517.496.848.656.33.149.688.224 1.072.224.682 0 1.248-.24 1.696-.72.458-.491.688-1.104.688-1.84 0-.725-.23-1.333-.688-1.824a2.23 2.23 0 0 0 -1.696-.736zm6.949-3.088c-.309 0-.576-.107-.8-.32a1.067 1.067 0 0 1 -.32-.784c0-.299.112-.56.336-.784s.485-.336.784-.336c.309 0 .576.112.8.336s.336.485.336.784c0 .309-.112.571-.336.784-.213.213-.48.32-.8.32zm.912 1.632v8.016h-1.808v-8.016zm6.015 6.576a2.58 2.58 0 0 0 1.072-.224c.341-.149.629-.368.864-.656l1.088 1.088a4.098 4.098 0 0 1 -1.392 1.024 4.272 4.272 0 0 1 -1.744.368 4.05 4.05 0 0 1 -1.6-.32 3.974 3.974 0 0 1 -1.28-.88 4.188 4.188 0 0 1 -.864-1.328 4.387 4.387 0 0 1 -.304-1.632c0-.576.101-1.115.304-1.616.213-.512.501-.949.864-1.312a3.974 3.974 0 0 1 1.28-.88 4.05 4.05 0 0 1 1.6-.32c.619 0 1.205.117 1.76.352a4.051 4.051 0 0 1 1.44.992l-1.12 1.168a2.901 2.901 0 0 0 -.928-.704 2.531 2.531 0 0 0 -1.088-.24c-.64 0-1.184.251-1.632.752-.448.491-.672 1.093-.672 1.808 0 .725.224 1.333.672 1.824a2.18 2.18 0 0 0 1.68.736zm4.583 1.44v-11.44l1.808-.304v7.152l3.328-3.424h2.064l-3.664 3.712 3.888 4.304h-2.32l-3.296-3.696v3.696zm15.021-1.024a5.302 5.302 0 0 1 -1.504.896 4.663 4.663 0 0 1 -1.68.288 4.05 4.05 0 0 1 -2.896-1.2 4.188 4.188 0 0 1 -.864-1.328 4.206 4.206 0 0 1 -.32-1.632c0-.587.096-1.131.288-1.632.203-.512.475-.949.816-1.312a3.839 3.839 0 0 1 1.248-.88c.48-.213.997-.32 1.552-.32.544 0 1.045.107 1.504.32.469.203.869.485 1.2.848.341.363.608.8.8 1.312.192.501.288 1.051.288 1.648v.448h-5.92c.085.629.352 1.152.8 1.568.459.416.992.624 1.6.624.373 0 .725-.064 1.056-.192.341-.139.624-.325.848-.56zm-3.376-5.648c-.533 0-.987.181-1.36.544s-.613.848-.72 1.456h4.176c-.107-.587-.352-1.067-.736-1.44a1.853 1.853 0 0 0 -1.36-.56zm5.652 6.672v-8.016h1.808v1.744c.213-.608.507-1.072.88-1.392a1.974 1.974 0 0 1 1.328-.496c.149.011.283.027.4.048s.245.059.384.112v1.584a1.963 1.963 0 0 0 -.48-.144 2.773 2.773 0 0 0 -.512-.048c-.427 0-.816.117-1.168.352s-.629.56-.832.976v5.28zm5.13-1.568h1.824l-1.568 4.224h-1.328zm-161.234 14.92c-.309 0-.576-.107-.8-.32a1.067 1.067 0 0 1 -.32-.784c0-.299.112-.56.336-.784s.485-.336.784-.336c.309 0 .576.112.8.336s.336.485.336.784c0 .309-.112.571-.336.784-.213.213-.48.32-.8.32zm.912 1.632v8.016h-1.808v-8.016zm2.223 8.016v-8.016h1.808v1.312c.299-.469.662-.827 1.088-1.072a2.93 2.93 0 0 1 1.456-.368c.811 0 1.472.272 1.984.816.523.533.784 1.216.784 2.048v5.28h-1.808v-4.768c0-.576-.16-1.04-.48-1.392s-.746-.528-1.28-.528c-.362 0-.693.085-.992.256-.288.16-.538.395-.752.704v5.728zm9.313 3.392v-11.408h1.776v1.152a2.854 2.854 0 0 1 1.056-.896c.437-.213.917-.32 1.44-.32.501 0 .976.107 1.424.32s.832.507 1.152.88c.33.363.586.795.768 1.296a4.31 4.31 0 0 1 .288 1.584c0 .565-.096 1.099-.288 1.6a3.916 3.916 0 0 1 -.8 1.296 3.881 3.881 0 0 1 -1.2.864c-.459.213-.95.32-1.472.32-.47 0-.907-.091-1.312-.272a3 3 0 0 1 -1.024-.768v4.352zm3.728-9.952c-.395 0-.758.075-1.088.224-.32.149-.598.373-.832.672v3.344c.234.277.517.496.848.656.33.149.688.224 1.072.224.682 0 1.248-.24 1.696-.72.458-.491.688-1.104.688-1.84 0-.725-.23-1.333-.688-1.824a2.23 2.23 0 0 0 -1.696-.736zm7.813-1.456v4.768c0 .576.16 1.04.48 1.392s.747.528 1.28.528c.363 0 .693-.08.992-.24.299-.171.555-.421.768-.752v-5.696h1.808v8.016h-1.808v-1.328a3.266 3.266 0 0 1 -1.104 1.088 2.872 2.872 0 0 1 -1.456.368c-.811 0-1.477-.267-2-.8-.512-.533-.768-1.221-.768-2.064v-5.28zm8.544 5.904v-4.464h-1.615v-1.44h1.615v-2.208l1.809-.384v2.592h2.24v1.44h-2.24v4.064c0 .395.085.677.256.848.17.16.458.24.864.24.181 0 .346-.011.496-.032.16-.032.357-.085.592-.16v1.52a4.05 4.05 0 0 1 -.784.16 5.047 5.047 0 0 1 -.768.064c-.8 0-1.414-.187-1.84-.56-.416-.384-.625-.944-.625-1.68zm11.035-9.632v11.744h-1.808v-11.44zm9.12 10.72a5.302 5.302 0 0 1 -1.504.896 4.67 4.67 0 0 1 -1.68.288 4.046 4.046 0 0 1 -2.896-1.2 4.188 4.188 0 0 1 -.864-1.328 4.188 4.188 0 0 1 -.32-1.632c0-.587.096-1.131.288-1.632.202-.512.474-.949.816-1.312a3.839 3.839 0 0 1 1.248-.88c.48-.213.997-.32 1.552-.32.544 0 1.045.107 1.504.32.469.203.869.485 1.2.848.341.363.608.8.8 1.312.192.501.287 1.051.287 1.648v.448h-5.919c.085.629.352 1.152.8 1.568.458.416.992.624 1.6.624.373 0 .725-.064 1.056-.192.341-.139.624-.325.848-.56zm-3.376-5.648c-.534 0-.987.181-1.36.544-.374.363-.614.848-.72 1.456h4.176c-.107-.587-.352-1.067-.736-1.44a1.854 1.854 0 0 0 -1.36-.56zm5.651 6.672v-8.016h1.808v1.312c.299-.469.662-.827 1.088-1.072a2.93 2.93 0 0 1 1.456-.368c.811 0 1.472.272 1.984.816.523.533.784 1.216.784 2.048v5.28h-1.808v-4.768c0-.576-.16-1.04-.48-1.392s-.746-.528-1.28-.528c-.362 0-.693.085-.992.256-.288.16-.538.395-.752.704v5.728zm12.577.048c-.501 0-.976-.107-1.424-.32a3.735 3.735 0 0 1 -1.168-.864 4.26 4.26 0 0 1 -.768-1.28 4.676 4.676 0 0 1 -.272-1.6c0-.565.096-1.099.288-1.6s.453-.933.784-1.296a3.658 3.658 0 0 1 1.2-.848c.459-.213.949-.32 1.472-.32.459 0 .891.096 1.296.288.405.181.757.448 1.056.8v-1.024h1.792v8.288c0 1.024-.331 1.813-.992 2.368-.651.555-1.579.832-2.784.832a6.952 6.952 0 0 1 -1.696-.208 6.47 6.47 0 0 1 -1.52-.56l.64-1.344c.459.235.891.405 1.296.512a4.31 4.31 0 0 0 1.2.176c.672 0 1.179-.155 1.52-.464.352-.299.528-.736.528-1.312v-1.36a2.884 2.884 0 0 1 -1.072.832 3.161 3.161 0 0 1 -1.376.304zm-1.84-4.064c0 .725.229 1.333.688 1.824a2.23 2.23 0 0 0 1.696.736c.384 0 .736-.075 1.056-.224.331-.149.613-.368.848-.656v-3.36a2.46 2.46 0 0 0 -.848-.624 2.395 2.395 0 0 0 -1.056-.24c-.683 0-1.253.24-1.712.72-.448.48-.672 1.088-.672 1.824zm9.318 1.904v-4.464h-1.616v-1.44h1.616v-2.208l1.808-.384v2.592h2.24v1.44h-2.24v4.064c0 .395.085.677.256.848.171.16.459.24.864.24.181 0 .347-.011.496-.032.16-.032.357-.085.592-.16v1.52a4.05 4.05 0 0 1 -.784.16 5.027 5.027 0 0 1 -.768.064c-.8 0-1.413-.187-1.84-.56-.416-.384-.624-.944-.624-1.68zm5.633 2.112v-11.44l1.808-.304v5.04c.299-.469.661-.827 1.088-1.072a2.928 2.928 0 0 1 1.456-.368c.811 0 1.472.272 1.984.816.523.533.784 1.216.784 2.048v5.28h-1.808v-4.768c0-.576-.16-1.04-.48-1.392s-.747-.528-1.28-.528a1.96 1.96 0 0 0 -.992.256c-.288.16-.539.395-.752.704v5.728zm12.906 0v-8.016h1.808v1.28c.299-.459.645-.805 1.04-1.04a2.547 2.547 0 0 1 1.344-.368c.533 0 1.008.144 1.424.432.416.277.725.651.928 1.12.299-.512.672-.896 1.12-1.152.459-.267.971-.4 1.536-.4.768 0 1.397.272 1.888.816s.736 1.243.736 2.096v5.232h-1.808v-4.848c0-.555-.149-.997-.448-1.328-.288-.341-.677-.512-1.168-.512-.331 0-.629.08-.896.24s-.507.395-.72.704a2 2 0 0 1 .016.256 2 2 0 0 1 .016.256v5.232h-1.808v-4.848c0-.555-.149-.997-.448-1.328-.288-.341-.677-.512-1.168-.512-.32 0-.613.08-.88.24a2.092 2.092 0 0 0 -.704.672v5.776zm16.448.128c-.832 0-1.515-.224-2.048-.672-.523-.459-.784-1.045-.784-1.76s.272-1.285.816-1.712c.554-.427 1.301-.64 2.24-.64.373 0 .736.043 1.088.128.352.075.709.197 1.072.368v-.88c0-.523-.155-.917-.464-1.184-.31-.277-.768-.416-1.376-.416-.331 0-.688.053-1.072.16a7.155 7.155 0 0 0 -1.264.464l-.64-1.312a8.977 8.977 0 0 1 1.712-.608 6.503 6.503 0 0 1 1.616-.208c1.034 0 1.84.256 2.416.768.576.501.864 1.216.864 2.144v5.232h-1.792v-.816a3.617 3.617 0 0 1 -1.12.72 3.468 3.468 0 0 1 -1.264.224zm-1.136-2.464c0 .363.149.656.448.88.298.213.693.32 1.184.32a3.07 3.07 0 0 0 1.008-.16c.32-.107.613-.272.88-.496v-1.312a3.384 3.384 0 0 0 -.88-.288 4.661 4.661 0 0 0 -.976-.096c-.512 0-.918.107-1.216.32a.954.954 0 0 0 -.448.832zm8.258.224v-4.464h-1.616v-1.44h1.616v-2.208l1.808-.384v2.592h2.24v1.44h-2.24v4.064c0 .395.086.677.256.848.171.16.459.24.864.24.182 0 .347-.011.496-.032.16-.032.358-.085.592-.16v1.52a4.035 4.035 0 0 1 -.784.16 5.027 5.027 0 0 1 -.768.064c-.8 0-1.413-.187-1.84-.56-.416-.384-.624-.944-.624-1.68zm9.316.672a2.58 2.58 0 0 0 1.072-.224c.341-.149.629-.368.864-.656l1.088 1.088a4.098 4.098 0 0 1 -1.392 1.024 4.272 4.272 0 0 1 -1.744.368 4.05 4.05 0 0 1 -1.6-.32 3.974 3.974 0 0 1 -1.28-.88 4.188 4.188 0 0 1 -.864-1.328 4.387 4.387 0 0 1 -.304-1.632c0-.576.101-1.115.304-1.616.213-.512.501-.949.864-1.312a3.974 3.974 0 0 1 1.28-.88 4.05 4.05 0 0 1 1.6-.32c.619 0 1.205.117 1.76.352a4.051 4.051 0 0 1 1.44.992l-1.12 1.168a2.901 2.901 0 0 0 -.928-.704 2.531 2.531 0 0 0 -1.088-.24c-.64 0-1.184.251-1.632.752-.448.491-.672 1.093-.672 1.808 0 .725.224 1.333.672 1.824a2.18 2.18 0 0 0 1.68.736zm4.583 1.44v-11.44l1.808-.304v5.04c.299-.469.661-.827 1.088-1.072a2.928 2.928 0 0 1 1.456-.368c.811 0 1.472.272 1.984.816.523.533.784 1.216.784 2.048v5.28h-1.808v-4.768c0-.576-.16-1.04-.48-1.392s-.747-.528-1.28-.528a1.96 1.96 0 0 0 -.992.256c-.288.16-.539.395-.752.704v5.728zm15.338.128c-.832 0-1.515-.224-2.048-.672-.523-.459-.784-1.045-.784-1.76s.272-1.285.816-1.712c.555-.427 1.301-.64 2.24-.64.373 0 .736.043 1.088.128.352.075.709.197 1.072.368v-.88c0-.523-.155-.917-.464-1.184-.309-.277-.768-.416-1.376-.416-.331 0-.688.053-1.072.16a7.184 7.184 0 0 0 -1.264.464l-.64-1.312a8.977 8.977 0 0 1 1.712-.608 6.51 6.51 0 0 1 1.616-.208c1.035 0 1.84.256 2.416.768.576.501.864 1.216.864 2.144v5.232h-1.792v-.816a3.617 3.617 0 0 1 -1.12.72 3.465 3.465 0 0 1 -1.264.224zm-1.136-2.464c0 .363.149.656.448.88.299.213.693.32 1.184.32.363 0 .699-.053 1.008-.16.32-.107.613-.272.88-.496v-1.312a3.371 3.371 0 0 0 -.88-.288 4.661 4.661 0 0 0 -.976-.096c-.512 0-.917.107-1.216.32a.954.954 0 0 0 -.448.832zm7.501 2.336v-8.016h1.808v1.312c.299-.469.661-.827 1.088-1.072a2.928 2.928 0 0 1 1.456-.368c.811 0 1.472.272 1.984.816.523.533.784 1.216.784 2.048v5.28h-1.808v-4.768c0-.576-.16-1.04-.48-1.392s-.747-.528-1.28-.528a1.96 1.96 0 0 0 -.992.256c-.288.16-.539.395-.752.704v5.728zm8.593-.928.848-1.216c.522.331.981.565 1.376.704.394.139.794.208 1.2.208.48 0 .869-.096 1.168-.288.298-.203.448-.464.448-.784a.686.686 0 0 0 -.272-.576c-.171-.149-.448-.261-.832-.336l-1.424-.24c-.768-.139-1.35-.389-1.744-.752-.384-.373-.576-.859-.576-1.456 0-.747.282-1.344.848-1.792.576-.459 1.328-.688 2.256-.688.554 0 1.088.08 1.6.24a5.79 5.79 0 0 1 1.552.72l-.848 1.184a4.797 4.797 0 0 0 -1.216-.576 3.87 3.87 0 0 0 -1.2-.192c-.416 0-.752.085-1.008.256a.771.771 0 0 0 -.368.688c0 .256.08.448.24.576.17.128.469.229.896.304l1.408.256c.8.149 1.392.411 1.776.784.394.373.592.859.592 1.456 0 .363-.086.704-.256 1.024-.16.32-.39.597-.688.832a3.344 3.344 0 0 1 -1.04.56 4.131 4.131 0 0 1 -1.28.192 6.642 6.642 0 0 1 -1.936-.272 4.606 4.606 0 0 1 -1.52-.816zm11.544.928h-1.76l-2.16-8.016h1.728l1.408 5.664 1.648-5.664h1.536l1.648 5.68 1.392-5.68h1.696l-2.16 8.016h-1.744l-1.616-5.648zm15.368-1.024c-.49.405-.992.704-1.504.896a4.663 4.663 0 0 1 -1.68.288 4.053 4.053 0 0 1 -1.6-.32 3.936 3.936 0 0 1 -1.296-.88 4.223 4.223 0 0 1 -.864-1.328 4.206 4.206 0 0 1 -.32-1.632c0-.587.096-1.131.288-1.632.203-.512.475-.949.816-1.312a3.839 3.839 0 0 1 1.248-.88c.48-.213.998-.32 1.552-.32.544 0 1.046.107 1.504.32.47.203.87.485 1.2.848.342.363.608.8.8 1.312.192.501.288 1.051.288 1.648v.448h-5.92c.086.629.352 1.152.8 1.568.459.416.992.624 1.6.624.374 0 .726-.064 1.056-.192.342-.139.624-.325.848-.56zm-3.376-5.648a1.88 1.88 0 0 0 -1.36.544c-.373.363-.613.848-.72 1.456h4.176c-.106-.587-.352-1.067-.736-1.44a1.851 1.851 0 0 0 -1.36-.56zm5.652 6.672v-8.016h1.808v1.744c.214-.608.507-1.072.88-1.392a1.974 1.974 0 0 1 1.328-.496c.15.011.283.027.4.048.118.021.246.059.384.112v1.584a1.937 1.937 0 0 0 -.48-.144 2.765 2.765 0 0 0 -.512-.048 2.06 2.06 0 0 0 -1.168.352c-.352.235-.629.56-.832.976v5.28z" fill="#000"/><path d="m416 48h61" stroke="#29d305" stroke-linecap="round" stroke-linejoin="round" stroke-width="2"/><circle cx="409" cy="48" fill="#fff" r="7" stroke="#29d305" stroke-width="2"/><circle cx="409" cy="48" fill="#29d305" r="2"/><path d="m8 58v318" stroke="#29d305" stroke-linecap="round" stroke-linejoin="round" stroke-width="2"/><circle cx="8" cy="51" fill="#fff" r="7" stroke="#29d305" stroke-width="2"/><circle cx="8" cy="51" fill="#29d305" r="2"/><circle cx="8" cy="149" fill="#fff" r="7" stroke="#29d305" stroke-width="2"/><circle cx="8" cy="149" fill="#29d305" r="2"/><circle cx="8" cy="248" fill="#fff" r="7" stroke="#29d305" stroke-width="2"/><circle cx="8" cy="248" fill="#29d305" r="2"/><path d="m227.047 149c0 3.863-3.141 7-7.023 7s-7.024-3.137-7.024-7 3.142-7 7.024-7 7.023 3.137 7.023 7z" fill="#fff" stroke="#29d305" stroke-width="2"/><ellipse cx="220.024" cy="149" fill="#29d305" rx="2.006" ry="2"/><path d="m227 149h250" stroke="#29d305" stroke-linecap="round" stroke-linejoin="round" stroke-width="2"/></svg>