<svg width="328" height="356" fill="none" xmlns="http://www.w3.org/2000/svg"><path d="M1.344 27V15.8h8.048v1.632H3.264v3.2h4.224v1.6H3.264V27h-1.92zm12.143.144a4.14 4.14 0 0 1-1.216-.176 4.726 4.726 0 0 1-1.072-.512l-.448.544h-1.28l.992-1.184a4.517 4.517 0 0 1-.736-1.264A4.355 4.355 0 0 1 9.455 23c0-.79.176-1.493.528-2.112a3.938 3.938 0 0 1 1.44-1.488 4.005 4.005 0 0 1 2.064-.544c.438 0 .843.064 1.216.192.384.117.736.288 1.056.512l.464-.576h1.28l-1.024 1.2c.32.363.57.784.752 1.264.181.48.272.997.272 1.552 0 .79-.176 1.499-.528 2.128a3.972 3.972 0 0 1-1.44 1.472 3.92 3.92 0 0 1-2.048.544zm-1.872-2.672l3.088-3.68a1.824 1.824 0 0 0-.576-.288 1.835 1.835 0 0 0-.64-.112c-.437 0-.826.117-1.168.352a2.27 2.27 0 0 0-.8.928c-.192.384-.288.827-.288 1.328 0 .277.032.544.096.8.075.245.17.47.288.672zm1.872 1.136c.438 0 .822-.112 1.152-.336a2.27 2.27 0 0 0 .8-.928c.192-.395.288-.843.288-1.344 0-.288-.032-.555-.096-.8a2.37 2.37 0 0 0-.288-.672l-3.088 3.68c.17.128.357.23.56.304.213.064.438.096.672.096zm9.131 1.472c-.672 0-1.28-.181-1.824-.544a4.168 4.168 0 0 1-1.312-1.472 4.425 4.425 0 0 1-.48-2.064c0-.768.165-1.456.496-2.064.33-.619.779-1.11 1.344-1.472a3.502 3.502 0 0 1 1.904-.544c.459 0 .885.09 1.28.272.405.17.757.427 1.056.768v-4.432l1.808-.32V27h-1.792v-1.056a2.984 2.984 0 0 1-1.072.848 3.392 3.392 0 0 1-1.408.288zm.56-1.52c.384 0 .741-.075 1.072-.224.33-.16.608-.379.832-.656v-3.376a2.381 2.381 0 0 0-.848-.64 2.537 2.537 0 0 0-1.056-.224c-.459 0-.87.112-1.232.336a2.367 2.367 0 0 0-.848.896c-.213.384-.32.827-.32 1.328 0 .48.107.917.32 1.312.213.384.496.688.848.912.363.224.773.336 1.232.336zm8.678 1.6a6.58 6.58 0 0 1-1.92-.272 4.617 4.617 0 0 1-1.52-.816l.848-1.2c.533.33.992.565 1.376.704.394.139.794.208 1.2.208.48 0 .869-.101 1.168-.304.298-.203.448-.464.448-.784a.684.684 0 0 0-.272-.576c-.171-.15-.454-.261-.848-.336l-1.408-.24c-.779-.15-1.36-.405-1.744-.768-.384-.363-.576-.843-.576-1.44 0-.501.128-.933.384-1.296a2.59 2.59 0 0 1 1.088-.864c.469-.213 1.013-.32 1.632-.32.554 0 1.093.08 1.616.24.522.16 1.034.4 1.536.72l-.848 1.2a4.488 4.488 0 0 0-1.216-.576 3.867 3.867 0 0 0-1.2-.192c-.416 0-.752.085-1.008.256a.76.76 0 0 0-.368.672c0 .256.08.453.24.592.17.128.464.224.88.288l1.424.272c.8.139 1.392.395 1.776.768.394.363.592.848.592 1.456 0 .49-.144.933-.432 1.328a3.03 3.03 0 0 1-1.168.944c-.491.224-1.051.336-1.68.336zm8.742 0a4.036 4.036 0 0 1-2.08-.544 4.185 4.185 0 0 1-1.472-1.488c-.363-.63-.544-1.339-.544-2.128 0-.79.17-1.493.512-2.112a3.929 3.929 0 0 1 1.392-1.472 3.669 3.669 0 0 1 1.984-.56c.747 0 1.403.181 1.968.544a3.73 3.73 0 0 1 1.344 1.472c.33.619.496 1.328.496 2.128v.432h-5.92c.064.437.203.827.416 1.168.224.33.507.592.848.784.352.192.73.288 1.136.288a2.9 2.9 0 0 0 1.056-.192c.341-.139.624-.325.848-.56l1.184 1.072a5.29 5.29 0 0 1-1.504.896 4.863 4.863 0 0 1-1.664.272zm-2.304-4.848h4.192a2.543 2.543 0 0 0-.4-1.024 2.11 2.11 0 0 0-.736-.704 1.847 1.847 0 0 0-.96-.256c-.352 0-.677.085-.976.256-.288.16-.528.39-.72.688a2.9 2.9 0 0 0-.4 1.04zM46.042 27V15.528l1.808-.32V27h-1.808zm6.751.16a6.58 6.58 0 0 1-1.92-.272 4.617 4.617 0 0 1-1.52-.816l.848-1.2c.533.33.992.565 1.376.704.395.139.795.208 1.2.208.48 0 .87-.101 1.168-.304.299-.203.448-.464.448-.784a.684.684 0 0 0-.272-.576c-.17-.15-.453-.261-.848-.336l-1.408-.24c-.779-.15-1.36-.405-1.744-.768-.384-.363-.576-.843-.576-1.44 0-.501.128-.933.384-1.296a2.59 2.59 0 0 1 1.088-.864c.47-.213 1.014-.32 1.632-.32.555 0 1.093.08 1.616.24.523.16 1.035.4 1.536.72l-.848 1.2a4.488 4.488 0 0 0-1.216-.576 3.867 3.867 0 0 0-1.2-.192c-.416 0-.752.085-1.008.256a.76.76 0 0 0-.368.672c0 .256.08.453.24.592.17.128.464.224.88.288l1.424.272c.8.139 1.392.395 1.776.768.395.363.592.848.592 1.456 0 .49-.144.933-.432 1.328a3.03 3.03 0 0 1-1.168.944c-.49.224-1.05.336-1.68.336zm8.263-.08c-.672 0-1.28-.181-1.825-.544a4.168 4.168 0 0 1-1.312-1.472A4.425 4.425 0 0 1 57.44 23c0-.768.166-1.456.496-2.064.331-.619.78-1.11 1.344-1.472a3.502 3.502 0 0 1 1.904-.544c.46 0 .886.09 1.28.272.406.17.758.427 1.056.768v-4.432l1.809-.32V27h-1.793v-1.056a2.984 2.984 0 0 1-1.071.848 3.392 3.392 0 0 1-1.408.288zm.56-1.52c.383 0 .74-.075 1.072-.224.33-.16.607-.379.831-.656v-3.376a2.381 2.381 0 0 0-.847-.64 2.537 2.537 0 0 0-1.056-.224c-.46 0-.87.112-1.233.336a2.367 2.367 0 0 0-.848.896c-.213.384-.32.827-.32 1.328 0 .48.107.917.32 1.312.214.384.497.688.849.912.362.224.773.336 1.231.336zm8.39 1.584a3.5 3.5 0 0 1-1.489-.304 2.582 2.582 0 0 1-1.008-.864 2.355 2.355 0 0 1-.352-1.28c0-.48.123-.896.368-1.248.256-.352.613-.624 1.072-.816.459-.192 1.003-.288 1.632-.288.374 0 .742.043 1.104.128.363.075.715.203 1.056.384v-.896c0-.533-.154-.933-.464-1.2-.299-.267-.757-.4-1.376-.4-.33 0-.688.053-1.072.16-.373.096-.794.25-1.264.464l-.64-1.312c1.174-.544 2.283-.816 3.328-.816 1.046 0 1.85.256 2.416.768.576.501.864 1.216.864 2.144V27H72.39v-.832c-.341.33-.71.576-1.104.736-.394.16-.821.24-1.28.24zm-1.153-2.48c0 .373.15.667.448.88.299.213.699.32 1.2.32.363 0 .699-.053 1.008-.16.32-.117.614-.288.88-.512v-1.296a4.11 4.11 0 0 0-.864-.288 4.659 4.659 0 0 0-.976-.096c-.523 0-.939.101-1.248.304a.969.969 0 0 0-.448.848zm10.739 2.496c-.811 0-1.424-.187-1.84-.56-.416-.384-.624-.944-.624-1.68v-4.496h-1.6v-1.44h1.6v-2.208l1.808-.384v2.592h2.224v1.44h-2.224v4.096c0 .395.085.677.256.848.17.16.458.24.864.24.181 0 .346-.01.496-.032.16-.032.357-.085.592-.16v1.52a3.74 3.74 0 0 1-.768.16 5.163 5.163 0 0 1-.784.064zm6.708-.016a4.005 4.005 0 0 1-2.064-.544 3.972 3.972 0 0 1-1.44-1.472c-.352-.63-.528-1.339-.528-2.128 0-.79.176-1.493.528-2.112a3.939 3.939 0 0 1 1.44-1.488c.608-.363 1.296-.544 2.064-.544s1.45.181 2.048.544a3.939 3.939 0 0 1 1.44 1.488c.352.619.528 1.323.528 2.112 0 .79-.176 1.499-.528 2.128a3.972 3.972 0 0 1-1.44 1.472c-.598.363-1.28.544-2.048.544zm0-1.536c.437 0 .821-.112 1.152-.336a2.27 2.27 0 0 0 .8-.928A3.1 3.1 0 0 0 88.54 23c0-.501-.096-.944-.288-1.328a2.27 2.27 0 0 0-.8-.928 1.939 1.939 0 0 0-1.152-.352c-.438 0-.827.117-1.168.352a2.27 2.27 0 0 0-.8.928c-.192.384-.288.827-.288 1.328 0 .501.096.95.288 1.344.192.395.458.704.8.928.341.224.73.336 1.168.336z" fill="#EDEDED"/><rect x=".5" y="36.5" width="59" height="47" rx="3.5" stroke="#EDEDED"/><path d="M20.448 66.112c-.672 0-1.28-.176-1.824-.528a3.928 3.928 0 0 1-1.296-1.44 4.295 4.295 0 0 1-.48-2.032c0-.757.16-1.435.48-2.032a3.844 3.844 0 0 1 1.328-1.44 3.318 3.318 0 0 1 1.856-.544c.48 0 .928.096 1.344.288.416.181.779.448 1.088.8v-4.736l1.168-.24V66h-1.168v-1.04a3.058 3.058 0 0 1-1.088.864 3.392 3.392 0 0 1-1.408.288zm.288-1.024c.459 0 .88-.09 1.264-.272.384-.181.699-.437.944-.768v-3.872a2.568 2.568 0 0 0-.976-.768 2.717 2.717 0 0 0-1.232-.288c-.523 0-.992.128-1.408.384-.405.256-.73.608-.976 1.056-.235.448-.352.96-.352 1.536 0 .565.117 1.077.352 1.536.245.448.57.805.976 1.072.416.256.885.384 1.408.384zm9.024 1.024c-.672 0-1.28-.176-1.824-.528a3.928 3.928 0 0 1-1.296-1.44 4.295 4.295 0 0 1-.48-2.032c0-.757.16-1.435.48-2.032a3.844 3.844 0 0 1 1.328-1.44 3.318 3.318 0 0 1 1.857-.544c.48 0 .928.096 1.344.288.415.181.778.448 1.088.8v-4.736l1.168-.24V66h-1.168v-1.04a3.058 3.058 0 0 1-1.088.864 3.392 3.392 0 0 1-1.409.288zm.288-1.024c.46 0 .88-.09 1.265-.272.384-.181.698-.437.944-.768v-3.872a2.568 2.568 0 0 0-.976-.768 2.717 2.717 0 0 0-1.232-.288c-.523 0-.992.128-1.409.384-.405.256-.73.608-.976 1.056-.234.448-.352.96-.352 1.536 0 .565.118 1.077.352 1.536.246.448.571.805.976 1.072.416.256.886.384 1.409.384z" fill="#A1A1A1"/><rect x="68.5" y="36.5" width="59" height="47" rx="3.5" stroke="#EDEDED"/><path d="M85.2 66v-7.808h1.168v1.216c.299-.448.64-.784 1.024-1.008a2.524 2.524 0 0 1 1.296-.336c.555 0 1.04.139 1.456.416.416.267.73.635.944 1.104.31-.501.677-.88 1.104-1.136.437-.256.939-.384 1.504-.384.523 0 .981.123 1.376.368.405.245.72.587.944 1.024.224.427.336.928.336 1.504V66h-1.168v-4.752c0-.683-.17-1.221-.512-1.616-.341-.395-.81-.592-1.408-.592a2.07 2.07 0 0 0-1.104.304c-.32.203-.603.512-.848.928a3.874 3.874 0 0 1 .064.688V66h-1.168v-4.752c0-.683-.176-1.221-.528-1.616-.341-.395-.81-.592-1.408-.592-.8 0-1.435.384-1.904 1.152V66H85.2zm13.516 0v-7.808h1.168v1.216c.298-.448.64-.784 1.024-1.008a2.524 2.524 0 0 1 1.296-.336c.554 0 1.04.139 1.456.416.416.267.73.635.944 1.104.309-.501.677-.88 1.104-1.136.437-.256.938-.384 1.504-.384.522 0 .981.123 1.376.368.405.245.72.587.944 1.024.224.427.336.928.336 1.504V66H108.7v-4.752c0-.683-.171-1.221-.512-1.616-.342-.395-.811-.592-1.408-.592-.406 0-.774.101-1.104.304-.32.203-.603.512-.848.928a3.37 3.37 0 0 1 .064.688V66h-1.168v-4.752c0-.683-.176-1.221-.528-1.616-.342-.395-.811-.592-1.408-.592-.8 0-1.435.384-1.904 1.152V66h-1.168z" fill="#A1A1A1"/><rect x="136.5" y="36.5" width="79" height="47" rx="3.5" stroke="#EDEDED"/><path d="M155.616 66.144c-.555 0-1.045-.101-1.472-.304a2.507 2.507 0 0 1-1.008-.832 2.244 2.244 0 0 1-.352-1.248c0-.47.123-.875.368-1.216a2.379 2.379 0 0 1 1.024-.816c.437-.192.949-.288 1.536-.288.448 0 .869.048 1.264.144.405.096.779.25 1.12.464v-1.072c0-.64-.171-1.12-.512-1.44-.341-.33-.843-.496-1.504-.496-.363 0-.736.053-1.12.16a7.051 7.051 0 0 0-1.248.512l-.432-.896c1.045-.501 2.027-.752 2.944-.752.971 0 1.717.24 2.24.72.523.47.784 1.147.784 2.032V66h-1.152v-.912c-.341.352-.72.619-1.136.8-.416.17-.864.256-1.344.256zm-1.712-2.416c0 .459.176.827.528 1.104.363.277.837.416 1.424.416.437 0 .837-.075 1.2-.224a3.34 3.34 0 0 0 1.04-.672v-1.504a3.834 3.834 0 0 0-1.024-.416 4.503 4.503 0 0 0-1.184-.144c-.597 0-1.077.133-1.44.4a1.208 1.208 0 0 0-.544 1.04zm2.32-6.88c-.331 0-.635-.08-.912-.24a1.763 1.763 0 0 1-.88-1.536c0-.33.08-.63.24-.896.16-.267.373-.48.64-.64.277-.16.581-.24.912-.24.331 0 .629.08.896.24a1.8 1.8 0 0 1 .656.64c.16.267.24.565.24.896 0 .32-.08.619-.24.896a1.8 1.8 0 0 1-.656.64c-.267.16-.565.24-.896.24zm0-.656c.309 0 .571-.107.784-.32.224-.224.336-.49.336-.8 0-.31-.112-.57-.336-.784a1.04 1.04 0 0 0-.784-.336c-.309 0-.576.112-.8.336-.213.213-.32.475-.32.784 0 .31.107.576.32.8.224.213.491.32.8.32zm7.814 9.952c-.555 0-1.045-.101-1.472-.304a2.507 2.507 0 0 1-1.008-.832 2.244 2.244 0 0 1-.352-1.248c0-.47.123-.875.368-1.216a2.379 2.379 0 0 1 1.024-.816c.437-.192.949-.288 1.536-.288.448 0 .869.048 1.264.144.405.096.779.25 1.12.464v-1.072c0-.64-.171-1.12-.512-1.44-.341-.33-.843-.496-1.504-.496-.363 0-.736.053-1.12.16a7.051 7.051 0 0 0-1.248.512l-.432-.896c1.045-.501 2.027-.752 2.944-.752.971 0 1.717.24 2.24.72.523.47.784 1.147.784 2.032V66h-1.152v-.912c-.341.352-.72.619-1.136.8-.416.17-.864.256-1.344.256zm-1.712-2.416c0 .459.176.827.528 1.104.363.277.837.416 1.424.416.437 0 .837-.075 1.2-.224a3.34 3.34 0 0 0 1.04-.672v-1.504a3.834 3.834 0 0 0-1.024-.416 4.503 4.503 0 0 0-1.184-.144c-.597 0-1.077.133-1.44.4a1.208 1.208 0 0 0-.544 1.04zm2.32-6.88c-.331 0-.635-.08-.912-.24a1.763 1.763 0 0 1-.88-1.536c0-.33.08-.63.24-.896.16-.267.373-.48.64-.64.277-.16.581-.24.912-.24.331 0 .629.08.896.24a1.8 1.8 0 0 1 .656.64c.16.267.24.565.24.896 0 .32-.08.619-.24.896a1.8 1.8 0 0 1-.656.64c-.267.16-.565.24-.896.24zm0-.656c.309 0 .571-.107.784-.32.224-.224.336-.49.336-.8 0-.31-.112-.57-.336-.784a1.04 1.04 0 0 0-.784-.336c-.309 0-.576.112-.8.336-.213.213-.32.475-.32.784 0 .31.107.576.32.8.224.213.491.32.8.32zm7.814 9.952c-.555 0-1.046-.101-1.472-.304a2.507 2.507 0 0 1-1.008-.832 2.244 2.244 0 0 1-.352-1.248c0-.47.122-.875.368-1.216a2.373 2.373 0 0 1 1.024-.816c.437-.192.949-.288 1.536-.288.448 0 .869.048 1.264.144.405.096.778.25 1.12.464v-1.072c0-.64-.171-1.12-.512-1.44-.342-.33-.843-.496-1.504-.496-.363 0-.736.053-1.12.16a6.99 6.99 0 0 0-1.248.512l-.432-.896c1.045-.501 2.026-.752 2.944-.752.97 0 1.717.24 2.24.72.522.47.784 1.147.784 2.032V66h-1.152v-.912c-.342.352-.72.619-1.136.8-.416.17-.864.256-1.344.256zm-1.712-2.416c0 .459.176.827.528 1.104.362.277.837.416 1.424.416.437 0 .837-.075 1.2-.224a3.34 3.34 0 0 0 1.04-.672v-1.504a3.834 3.834 0 0 0-1.024-.416 4.503 4.503 0 0 0-1.184-.144c-.598 0-1.078.133-1.44.4a1.208 1.208 0 0 0-.544 1.04zm2.32-6.88c-.331 0-.635-.08-.912-.24a1.763 1.763 0 0 1-.88-1.536c0-.33.08-.63.24-.896.16-.267.373-.48.64-.64.277-.16.581-.24.912-.24.33 0 .629.08.896.24a1.8 1.8 0 0 1 .656.64c.16.267.24.565.24.896 0 .32-.08.619-.24.896a1.8 1.8 0 0 1-.656.64 1.71 1.71 0 0 1-.896.24zm0-.656c.309 0 .57-.107.784-.32.224-.224.336-.49.336-.8 0-.31-.112-.57-.336-.784a1.042 1.042 0 0 0-.784-.336c-.31 0-.576.112-.8.336-.214.213-.32.475-.32.784 0 .31.106.576.32.8.224.213.49.32.8.32zm7.814 9.952c-.555 0-1.046-.101-1.472-.304a2.507 2.507 0 0 1-1.008-.832 2.244 2.244 0 0 1-.352-1.248c0-.47.122-.875.368-1.216a2.373 2.373 0 0 1 1.024-.816c.437-.192.949-.288 1.536-.288.448 0 .869.048 1.264.144.405.096.778.25 1.12.464v-1.072c0-.64-.171-1.12-.512-1.44-.342-.33-.843-.496-1.504-.496-.363 0-.736.053-1.12.16a6.99 6.99 0 0 0-1.248.512l-.432-.896c1.045-.501 2.026-.752 2.944-.752.97 0 1.717.24 2.24.72.522.47.784 1.147.784 2.032V66h-1.152v-.912c-.342.352-.72.619-1.136.8-.416.17-.864.256-1.344.256zm-1.712-2.416c0 .459.176.827.528 1.104.362.277.837.416 1.424.416.437 0 .837-.075 1.2-.224a3.34 3.34 0 0 0 1.04-.672v-1.504a3.834 3.834 0 0 0-1.024-.416 4.503 4.503 0 0 0-1.184-.144c-.598 0-1.078.133-1.44.4a1.208 1.208 0 0 0-.544 1.04zm2.32-6.88c-.331 0-.635-.08-.912-.24a1.763 1.763 0 0 1-.88-1.536c0-.33.08-.63.24-.896.16-.267.373-.48.64-.64.277-.16.581-.24.912-.24.33 0 .629.08.896.24a1.8 1.8 0 0 1 .656.64c.16.267.24.565.24.896 0 .32-.08.619-.24.896a1.8 1.8 0 0 1-.656.64 1.71 1.71 0 0 1-.896.24zm0-.656c.309 0 .57-.107.784-.32.224-.224.336-.49.336-.8 0-.31-.112-.57-.336-.784a1.042 1.042 0 0 0-.784-.336c-.31 0-.576.112-.8.336-.214.213-.32.475-.32.784 0 .31.106.576.32.8.224.213.49.32.8.32z" fill="#A1A1A1"/><path d="M.096 130l4.4-11.2H6.72l4.336 11.2H8.992l-1.152-3.136H3.248L2.096 130h-2zm3.712-4.64h3.504l-1.76-4.736-1.744 4.736zm11.373 4.72c-.672 0-1.28-.181-1.824-.544a4.165 4.165 0 0 1-1.313-1.472 4.427 4.427 0 0 1-.48-2.064c0-.768.166-1.456.496-2.064a3.894 3.894 0 0 1 1.345-1.472 3.5 3.5 0 0 1 1.904-.544c.458 0 .885.091 1.28.272.405.171.757.427 1.056.768v-4.432l1.808-.32V130H17.66v-1.056a2.984 2.984 0 0 1-1.072.848 3.392 3.392 0 0 1-1.408.288zm.56-1.52a2.58 2.58 0 0 0 1.072-.224c.33-.16.608-.379.832-.656v-3.376a2.381 2.381 0 0 0-.848-.64 2.541 2.541 0 0 0-1.056-.224c-.46 0-.87.112-1.232.336a2.364 2.364 0 0 0-.848.896c-.214.384-.32.827-.32 1.328 0 .48.106.917.32 1.312.213.384.495.688.848.912.362.224.773.336 1.232.336zm5.957 1.44v-8.016h1.808v1.728c.235-.608.539-1.072.912-1.392.373-.32.806-.48 1.296-.48.15.011.283.027.4.048.117.011.245.048.384.112v1.584a1.953 1.953 0 0 0-.48-.144 2.772 2.772 0 0 0-.512-.048c-.437 0-.832.117-1.184.352-.341.235-.613.56-.816.976V130h-1.808zm9.634.16c-.768 0-1.461-.181-2.08-.544a4.18 4.18 0 0 1-1.472-1.488c-.362-.629-.544-1.339-.544-2.128 0-.789.171-1.493.512-2.112a3.929 3.929 0 0 1 1.392-1.472 3.671 3.671 0 0 1 1.984-.56c.747 0 1.403.181 1.968.544a3.73 3.73 0 0 1 1.344 1.472c.331.619.496 1.328.496 2.128v.432h-5.92c.064.437.203.827.416 1.168.224.331.507.592.848.784.352.192.731.288 1.136.288a2.9 2.9 0 0 0 1.056-.192c.342-.139.624-.325.848-.56l1.184 1.072c-.49.405-.992.704-1.504.896a4.87 4.87 0 0 1-1.664.272zm-2.304-4.848h4.192a2.546 2.546 0 0 0-.4-1.024 2.112 2.112 0 0 0-.736-.704 1.845 1.845 0 0 0-.96-.256 1.93 1.93 0 0 0-.976.256c-.288.16-.528.389-.72.688a2.897 2.897 0 0 0-.4 1.04zm10.546 4.848a6.589 6.589 0 0 1-1.92-.272 4.615 4.615 0 0 1-1.52-.816l.848-1.2c.534.331.992.565 1.376.704.395.139.795.208 1.2.208.48 0 .87-.101 1.168-.304.299-.203.448-.464.448-.784a.685.685 0 0 0-.272-.576c-.17-.149-.453-.261-.848-.336l-1.408-.24c-.778-.149-1.36-.405-1.744-.768-.384-.363-.576-.843-.576-1.44 0-.501.128-.933.384-1.296.267-.373.63-.661 1.088-.864.47-.213 1.014-.32 1.632-.32.555 0 1.094.08 1.616.24.523.16 1.035.4 1.536.72l-.848 1.2a4.473 4.473 0 0 0-1.216-.576 3.868 3.868 0 0 0-1.2-.192c-.416 0-.752.085-1.008.256a.759.759 0 0 0-.368.672c0 .256.08.453.24.592.171.128.464.224.88.288l1.424.272c.8.139 1.392.395 1.776.768.395.363.592.848.592 1.456 0 .491-.144.933-.432 1.328a3.03 3.03 0 0 1-1.168.944c-.49.224-1.05.336-1.68.336zm7.657 0a6.59 6.59 0 0 1-1.92-.272 4.617 4.617 0 0 1-1.52-.816l.848-1.2c.533.331.992.565 1.376.704.394.139.794.208 1.2.208.48 0 .869-.101 1.168-.304.298-.203.448-.464.448-.784a.685.685 0 0 0-.272-.576c-.171-.149-.454-.261-.848-.336l-1.408-.24c-.779-.149-1.36-.405-1.744-.768-.384-.363-.576-.843-.576-1.44 0-.501.128-.933.384-1.296.266-.373.629-.661 1.088-.864.469-.213 1.013-.32 1.632-.32.554 0 1.093.08 1.616.24.522.16 1.034.4 1.536.72l-.848 1.2a4.47 4.47 0 0 0-1.216-.576 3.867 3.867 0 0 0-1.2-.192c-.416 0-.752.085-1.008.256a.76.76 0 0 0-.368.672c0 .256.08.453.24.592.17.128.464.224.88.288l1.424.272c.8.139 1.392.395 1.776.768.394.363.592.848.592 1.456 0 .491-.144.933-.432 1.328a3.03 3.03 0 0 1-1.168.944c-.491.224-1.051.336-1.68.336zm8.742 0c-.768 0-1.461-.181-2.08-.544a4.18 4.18 0 0 1-1.472-1.488c-.363-.629-.544-1.339-.544-2.128 0-.789.17-1.493.512-2.112a3.929 3.929 0 0 1 1.392-1.472 3.671 3.671 0 0 1 1.984-.56c.747 0 1.403.181 1.968.544a3.73 3.73 0 0 1 1.344 1.472c.33.619.496 1.328.496 2.128v.432h-5.92c.064.437.203.827.416 1.168.224.331.507.592.848.784.352.192.73.288 1.136.288a2.9 2.9 0 0 0 1.056-.192c.341-.139.624-.325.848-.56l1.184 1.072c-.49.405-.992.704-1.504.896a4.87 4.87 0 0 1-1.664.272zm-2.304-4.848h4.192a2.545 2.545 0 0 0-.4-1.024 2.11 2.11 0 0 0-.736-.704 1.845 1.845 0 0 0-.96-.256 1.93 1.93 0 0 0-.976.256c-.288.16-.528.389-.72.688a2.9 2.9 0 0 0-.4 1.04z" fill="#EDEDED"/><rect x=".5" y="139.5" width="327" height="47" rx="3.5" stroke="#EDEDED"/><path d="M22.56 169.176c-.8 0-1.541-.149-2.224-.448a5.85 5.85 0 0 1-1.808-1.232 5.9 5.9 0 0 1-1.2-1.84 5.9 5.9 0 0 1-.432-2.256c0-.8.144-1.547.432-2.24a5.668 5.668 0 0 1 1.2-1.84 5.729 5.729 0 0 1 1.808-1.248 5.482 5.482 0 0 1 2.224-.448c.853 0 1.659.155 2.416.464a5.08 5.08 0 0 1 1.952 1.376l-.832.832a4.066 4.066 0 0 0-1.568-1.152 4.988 4.988 0 0 0-1.968-.4c-.63 0-1.21.123-1.744.368a4.33 4.33 0 0 0-1.408.992 4.55 4.55 0 0 0-.928 1.472 4.904 4.904 0 0 0-.336 1.824c0 .651.112 1.259.336 1.824.224.565.533 1.061.928 1.488.405.416.875.747 1.408.992a4.277 4.277 0 0 0 1.744.352c.747 0 1.413-.165 2-.496A3.919 3.919 0 0 0 26 166.2a4.318 4.318 0 0 0 .656-1.968H22.88v-1.088h5.024v.496c0 .779-.133 1.504-.4 2.176a5.488 5.488 0 0 1-1.136 1.76 5.287 5.287 0 0 1-1.696 1.184 5.336 5.336 0 0 1-2.112.416zm9.837-.032c-.554 0-1.045-.101-1.472-.304a2.513 2.513 0 0 1-1.008-.832 2.248 2.248 0 0 1-.352-1.248c0-.469.123-.875.368-1.216a2.378 2.378 0 0 1 1.024-.816c.438-.192.95-.288 1.536-.288.448 0 .87.048 1.264.144a3.72 3.72 0 0 1 1.12.464v-1.072c0-.64-.17-1.12-.512-1.44-.341-.331-.842-.496-1.504-.496-.362 0-.736.053-1.12.16-.373.107-.79.277-1.248.512l-.432-.896c1.046-.501 2.027-.752 2.944-.752.97 0 1.718.24 2.24.72.523.469.784 1.147.784 2.032V169h-1.152v-.912c-.341.352-.72.619-1.136.8a3.5 3.5 0 0 1-1.344.256zm-1.712-2.416c0 .459.176.827.528 1.104.363.277.838.416 1.424.416a3.13 3.13 0 0 0 1.2-.224c.374-.149.72-.373 1.04-.672v-1.504a3.82 3.82 0 0 0-1.024-.416 4.501 4.501 0 0 0-1.184-.144c-.597 0-1.077.133-1.44.4a1.209 1.209 0 0 0-.544 1.04zm10.46 2.432c-.672 0-1.184-.16-1.536-.48-.342-.331-.512-.805-.512-1.424v-5.104H37.48v-.96h1.616v-2.144l1.168-.272v2.416h2.24v.96h-2.24v4.8c0 .416.085.715.256.896.181.181.474.272.88.272.202 0 .384-.016.544-.048.16-.032.346-.085.56-.16v1.04a3.411 3.411 0 0 1-.672.16 5.09 5.09 0 0 1-.688.048zm6.434 0a3.75 3.75 0 0 1-1.968-.528 3.966 3.966 0 0 1-1.392-1.456c-.341-.619-.512-1.312-.512-2.08s.16-1.456.48-2.064a3.844 3.844 0 0 1 1.328-1.44 3.392 3.392 0 0 1 1.856-.528c.694 0 1.307.176 1.84.528.544.341.971.811 1.28 1.408.32.587.48 1.253.48 2v.352h-6.128c.043.533.187 1.013.432 1.44.256.416.587.747.992.992.416.235.87.352 1.36.352a3.32 3.32 0 0 0 1.168-.208c.384-.149.71-.347.976-.592l.736.784a4.935 4.935 0 0 1-1.392.784c-.48.171-.992.256-1.536.256zm-2.704-4.64h4.944a2.86 2.86 0 0 0-.432-1.248 2.53 2.53 0 0 0-.864-.88 2.132 2.132 0 0 0-1.152-.32c-.426 0-.816.107-1.168.32a2.528 2.528 0 0 0-.88.864 3.362 3.362 0 0 0-.448 1.264zm10.35 4.624c-.554 0-1.045-.101-1.472-.304a2.513 2.513 0 0 1-1.008-.832 2.248 2.248 0 0 1-.352-1.248c0-.469.123-.875.368-1.216a2.378 2.378 0 0 1 1.024-.816c.438-.192.95-.288 1.536-.288.448 0 .87.048 1.264.144a3.72 3.72 0 0 1 1.12.464v-1.072c0-.64-.17-1.12-.512-1.44-.341-.331-.842-.496-1.504-.496-.362 0-.736.053-1.12.16-.373.107-.789.277-1.248.512l-.432-.896c1.046-.501 2.027-.752 2.944-.752.971 0 1.718.24 2.24.72.523.469.784 1.147.784 2.032V169h-1.152v-.912c-.341.352-.72.619-1.136.8a3.5 3.5 0 0 1-1.344.256zm-1.712-2.416c0 .459.176.827.528 1.104.363.277.838.416 1.424.416a3.13 3.13 0 0 0 1.2-.224c.374-.149.72-.373 1.04-.672v-1.504a3.82 3.82 0 0 0-1.024-.416 4.501 4.501 0 0 0-1.184-.144c-.597 0-1.077.133-1.44.4a1.209 1.209 0 0 0-.544 1.04zm10.966 2.384c-.672 0-1.28-.176-1.824-.528a3.933 3.933 0 0 1-1.296-1.44 4.294 4.294 0 0 1-.48-2.032c0-.757.16-1.435.48-2.032a3.844 3.844 0 0 1 1.328-1.44 3.316 3.316 0 0 1 1.856-.544c.48 0 .928.096 1.344.288.416.181.779.448 1.088.8v-4.736l1.168-.24V169h-1.168v-1.04a3.065 3.065 0 0 1-1.088.864 3.392 3.392 0 0 1-1.408.288zm.288-1.024c.459 0 .88-.091 1.264-.272a2.46 2.46 0 0 0 .944-.768v-3.872a2.563 2.563 0 0 0-.976-.768 2.717 2.717 0 0 0-1.232-.288c-.522 0-.992.128-1.408.384-.405.256-.73.608-.976 1.056-.234.448-.352.96-.352 1.536 0 .565.118 1.077.352 1.536.246.448.57.805.976 1.072.416.256.886.384 1.408.384zm5.777.912v-7.808h1.168v1.6c.202-.544.49-.965.864-1.264a2.036 2.036 0 0 1 1.312-.464c.138 0 .266.011.384.032.117.011.234.037.352.08v1.056a2.32 2.32 0 0 0-.416-.096 2.025 2.025 0 0 0-1.664.368c-.352.277-.63.667-.832 1.168V169h-1.168zm8.66.16a3.75 3.75 0 0 1-1.968-.528 3.966 3.966 0 0 1-1.392-1.456c-.341-.619-.512-1.312-.512-2.08s.16-1.456.48-2.064a3.844 3.844 0 0 1 1.328-1.44 3.392 3.392 0 0 1 1.856-.528c.694 0 1.307.176 1.84.528.544.341.971.811 1.28 1.408.32.587.48 1.253.48 2v.352h-6.128c.043.533.187 1.013.432 1.44.256.416.587.747.992.992.416.235.87.352 1.36.352a3.32 3.32 0 0 0 1.168-.208c.384-.149.71-.347.976-.592l.736.784a4.935 4.935 0 0 1-1.392.784c-.48.171-.992.256-1.536.256zm-2.704-4.64h4.944a2.86 2.86 0 0 0-.432-1.248 2.53 2.53 0 0 0-.864-.88 2.132 2.132 0 0 0-1.152-.32c-.426 0-.816.107-1.168.32a2.528 2.528 0 0 0-.88.864 3.362 3.362 0 0 0-.448 1.264zm10.585 4.64c-.64 0-1.232-.096-1.776-.288a3.951 3.951 0 0 1-1.392-.864l.624-.768c.47.341.901.592 1.296.752.394.149.8.224 1.216.224.565 0 1.034-.133 1.408-.4.373-.267.56-.608.56-1.024 0-.32-.112-.571-.336-.752-.214-.181-.57-.32-1.072-.416l-1.28-.224c-.758-.139-1.318-.373-1.68-.704-.352-.331-.528-.779-.528-1.344 0-.448.117-.843.352-1.184a2.447 2.447 0 0 1 1.008-.8c.426-.203.912-.304 1.456-.304.533 0 1.04.08 1.52.24.48.149.965.395 1.456.736l-.576.816a4.395 4.395 0 0 0-1.216-.624 3.774 3.774 0 0 0-1.232-.208c-.512 0-.923.112-1.232.336-.31.224-.464.528-.464.912 0 .32.096.565.288.736.202.171.554.299 1.056.384l1.312.24c.79.139 1.365.379 1.728.72.362.341.544.8.544 1.376 0 .459-.134.875-.4 1.248-.267.363-.63.651-1.088.864-.459.213-.976.32-1.552.32zm7.234 0c-.64 0-1.232-.096-1.776-.288a3.951 3.951 0 0 1-1.392-.864l.624-.768c.47.341.901.592 1.296.752.395.149.8.224 1.216.224.566 0 1.035-.133 1.408-.4.374-.267.56-.608.56-1.024 0-.32-.112-.571-.336-.752-.213-.181-.57-.32-1.072-.416l-1.28-.224c-.757-.139-1.317-.373-1.68-.704-.352-.331-.528-.779-.528-1.344 0-.448.118-.843.352-1.184a2.448 2.448 0 0 1 1.008-.8c.427-.203.912-.304 1.456-.304.534 0 1.04.08 1.52.24.48.149.966.395 1.456.736l-.576.816a4.393 4.393 0 0 0-1.216-.624 3.774 3.774 0 0 0-1.232-.208c-.512 0-.922.112-1.232.336-.31.224-.464.528-.464.912 0 .32.096.565.288.736.203.171.555.299 1.056.384l1.312.24c.79.139 1.365.379 1.728.72.363.341.544.8.544 1.376 0 .459-.133.875-.4 1.248-.267.363-.63.651-1.088.864-.459.213-.976.32-1.552.32zm8.417 0a3.748 3.748 0 0 1-1.968-.528 3.966 3.966 0 0 1-1.392-1.456c-.342-.619-.512-1.312-.512-2.08s.16-1.456.48-2.064a3.843 3.843 0 0 1 1.328-1.44 3.39 3.39 0 0 1 1.856-.528c.693 0 1.306.176 1.84.528.544.341.97.811 1.28 1.408.32.587.48 1.253.48 2v.352H100c.042.533.186 1.013.432 1.44.256.416.586.747.992.992.416.235.869.352 1.36.352.405 0 .794-.069 1.168-.208.384-.149.709-.347.976-.592l.736.784a4.935 4.935 0 0 1-1.392.784c-.48.171-.992.256-1.536.256zm-2.704-4.64h4.944a2.876 2.876 0 0 0-.432-1.248 2.53 2.53 0 0 0-.864-.88 2.135 2.135 0 0 0-1.152-.32c-.427 0-.816.107-1.168.32a2.523 2.523 0 0 0-.88.864 3.352 3.352 0 0 0-.448 1.264z" fill="#A1A1A1"/><rect x=".5" y="195.5" width="89" height="47" rx="3.5" stroke="#EDEDED"/><path d="M17.424 225v-11.2h4.624c.725 0 1.355.139 1.888.416.533.267.944.651 1.232 1.152.299.491.448 1.072.448 1.744 0 .661-.15 1.243-.448 1.744a2.961 2.961 0 0 1-1.232 1.168c-.533.267-1.163.4-1.888.4h-3.392V225h-1.232zm1.232-5.632h3.248c.779 0 1.387-.203 1.824-.608.437-.405.656-.955.656-1.648s-.219-1.237-.656-1.632c-.437-.395-1.045-.592-1.824-.592h-3.248v4.48zm11.672 5.76c-.726 0-1.376-.176-1.952-.528a3.758 3.758 0 0 1-1.36-1.44c-.33-.608-.496-1.296-.496-2.064s.165-1.456.496-2.064a3.758 3.758 0 0 1 1.36-1.44c.576-.352 1.226-.528 1.952-.528.715 0 1.355.176 1.92.528a3.76 3.76 0 0 1 1.36 1.44c.33.608.496 1.296.496 2.064s-.166 1.456-.496 2.064a3.76 3.76 0 0 1-1.36 1.44c-.565.352-1.205.528-1.92.528zm-.016-1.024c.512 0 .965-.128 1.36-.384.394-.267.704-.629.928-1.088.234-.459.352-.971.352-1.536 0-.576-.117-1.088-.352-1.536a2.607 2.607 0 0 0-.928-1.072 2.37 2.37 0 0 0-1.36-.4c-.512 0-.966.133-1.36.4a2.72 2.72 0 0 0-.944 1.072c-.224.448-.336.96-.336 1.536 0 .565.112 1.077.336 1.536.235.459.55.821.944 1.088.394.256.848.384 1.36.384zm8.257 1.056c-.64 0-1.232-.096-1.776-.288a3.951 3.951 0 0 1-1.392-.864l.624-.768c.47.341.901.592 1.296.752.395.149.8.224 1.216.224.566 0 1.035-.133 1.408-.4s.56-.608.56-1.024c0-.32-.112-.571-.336-.752-.213-.181-.57-.32-1.072-.416l-1.28-.224c-.757-.139-1.317-.373-1.68-.704-.352-.331-.528-.779-.528-1.344 0-.448.117-.843.352-1.184a2.448 2.448 0 0 1 1.008-.8c.427-.203.912-.304 1.456-.304.534 0 1.04.08 1.52.24.48.149.965.395 1.456.736l-.576.816a4.393 4.393 0 0 0-1.216-.624 3.774 3.774 0 0 0-1.232-.208c-.512 0-.922.112-1.232.336-.31.224-.464.528-.464.912 0 .32.096.565.288.736.203.171.555.299 1.056.384l1.312.24c.79.139 1.365.379 1.728.72.363.341.544.8.544 1.376 0 .459-.133.875-.4 1.248-.267.363-.63.651-1.088.864-.459.213-.976.32-1.552.32zm7.638 0c-.672 0-1.184-.16-1.536-.48-.341-.331-.512-.805-.512-1.424v-5.104h-1.616v-.96h1.616v-2.144l1.168-.272v2.416h2.24v.96h-2.24v4.8c0 .416.086.715.256.896.182.181.475.272.88.272.203 0 .384-.016.544-.048.16-.032.347-.085.56-.16v1.04a3.411 3.411 0 0 1-.672.16 5.09 5.09 0 0 1-.688.048zm3.071-.16v-7.808h1.168v1.264c.299-.469.656-.816 1.072-1.04a2.812 2.812 0 0 1 1.408-.352c.566 0 1.056.123 1.472.368.427.235.758.571.992 1.008.245.427.368.928.368 1.504V225H54.59v-4.72c0-.693-.192-1.237-.576-1.632-.373-.405-.88-.608-1.52-.608-.426 0-.816.101-1.168.304a2.448 2.448 0 0 0-.88.896V225h-1.168zm8.828 0v-7.808h1.168v1.6c.203-.544.49-.965.864-1.264a2.036 2.036 0 0 1 1.312-.464c.139 0 .267.011.384.032.118.011.235.037.352.08v1.056a2.32 2.32 0 0 0-.416-.096 2.025 2.025 0 0 0-1.664.368c-.352.277-.63.667-.832 1.168V225h-1.168zm5.222.128a.83.83 0 0 1-.608-.256.859.859 0 0 1-.24-.608c0-.245.08-.448.24-.608a.83.83 0 0 1 .608-.256c.235 0 .432.085.592.256.17.16.256.363.256.608a.83.83 0 0 1-.256.608.778.778 0 0 1-.592.256z" fill="#A1A1A1"/><rect x="98.5" y="195.5" width="229" height="47" rx="3.5" stroke="#EDEDED"/><path d="M115.424 225v-11.2h4.624c.725 0 1.355.139 1.888.416.533.267.944.651 1.232 1.152.299.491.448 1.072.448 1.744 0 .661-.149 1.243-.448 1.744a2.963 2.963 0 0 1-1.232 1.168c-.533.267-1.163.4-1.888.4h-3.392V225h-1.232zm1.232-5.632h3.248c.779 0 1.387-.203 1.824-.608.437-.405.656-.955.656-1.648s-.219-1.237-.656-1.632c-.437-.395-1.045-.592-1.824-.592h-3.248v4.48zm11.672 5.76c-.725 0-1.376-.176-1.952-.528a3.761 3.761 0 0 1-1.36-1.44c-.331-.608-.496-1.296-.496-2.064s.165-1.456.496-2.064a3.761 3.761 0 0 1 1.36-1.44c.576-.352 1.227-.528 1.952-.528.715 0 1.355.176 1.92.528a3.761 3.761 0 0 1 1.36 1.44c.331.608.496 1.296.496 2.064s-.165 1.456-.496 2.064a3.761 3.761 0 0 1-1.36 1.44c-.565.352-1.205.528-1.92.528zm-.016-1.024c.512 0 .965-.128 1.36-.384.395-.267.704-.629.928-1.088a3.32 3.32 0 0 0 .352-1.536c0-.576-.117-1.088-.352-1.536a2.604 2.604 0 0 0-.928-1.072 2.37 2.37 0 0 0-1.36-.4 2.37 2.37 0 0 0-1.36.4 2.721 2.721 0 0 0-.944 1.072c-.224.448-.336.96-.336 1.536 0 .565.112 1.077.336 1.536.235.459.549.821.944 1.088.395.256.848.384 1.36.384zm8.257 1.056c-.64 0-1.232-.096-1.776-.288a3.951 3.951 0 0 1-1.392-.864l.624-.768c.469.341.901.592 1.296.752.395.149.8.224 1.216.224.565 0 1.035-.133 1.408-.4s.56-.608.56-1.024c0-.32-.112-.571-.336-.752-.213-.181-.571-.32-1.072-.416l-1.28-.224c-.757-.139-1.317-.373-1.68-.704-.352-.331-.528-.779-.528-1.344 0-.448.117-.843.352-1.184a2.443 2.443 0 0 1 1.008-.8c.427-.203.912-.304 1.456-.304.533 0 1.04.08 1.52.24.48.149.965.395 1.456.736l-.576.816a4.394 4.394 0 0 0-1.216-.624 3.772 3.772 0 0 0-1.232-.208c-.512 0-.923.112-1.232.336a1.068 1.068 0 0 0-.464.912c0 .32.096.565.288.736.203.171.555.299 1.056.384l1.312.24c.789.139 1.365.379 1.728.72.363.341.544.8.544 1.376 0 .459-.133.875-.4 1.248a2.758 2.758 0 0 1-1.088.864c-.459.213-.976.32-1.552.32zm7.638 0c-.672 0-1.184-.16-1.536-.48-.341-.331-.512-.805-.512-1.424v-5.104h-1.616v-.96h1.616v-2.144l1.168-.272v2.416h2.24v.96h-2.24v4.8c0 .416.086.715.256.896.182.181.475.272.88.272.203 0 .384-.016.544-.048.16-.032.347-.085.56-.16v1.04a3.398 3.398 0 0 1-.672.16 5.082 5.082 0 0 1-.688.048zm5.643 0c-.64 0-1.232-.096-1.776-.288a3.951 3.951 0 0 1-1.392-.864l.624-.768c.47.341.902.592 1.296.752.395.149.8.224 1.216.224.566 0 1.035-.133 1.408-.4.374-.267.56-.608.56-1.024 0-.32-.112-.571-.336-.752-.213-.181-.57-.32-1.072-.416l-1.28-.224c-.757-.139-1.317-.373-1.68-.704-.352-.331-.528-.779-.528-1.344 0-.448.118-.843.352-1.184a2.456 2.456 0 0 1 1.008-.8c.427-.203.912-.304 1.456-.304.534 0 1.04.08 1.52.24.48.149.966.395 1.456.736l-.576.816a4.38 4.38 0 0 0-1.216-.624 3.772 3.772 0 0 0-1.232-.208c-.512 0-.922.112-1.232.336a1.068 1.068 0 0 0-.464.912c0 .32.096.565.288.736.203.171.555.299 1.056.384l1.312.24c.79.139 1.366.379 1.728.72.363.341.544.8.544 1.376 0 .459-.133.875-.4 1.248a2.751 2.751 0 0 1-1.088.864 3.64 3.64 0 0 1-1.552.32zm7.639 0c-.672 0-1.184-.16-1.536-.48-.342-.331-.512-.805-.512-1.424v-5.104h-1.616v-.96h1.616v-2.144l1.168-.272v2.416h2.24v.96h-2.24v4.8c0 .416.085.715.256.896.181.181.474.272.88.272.202 0 .384-.016.544-.048.16-.032.346-.085.56-.16v1.04a3.432 3.432 0 0 1-.672.16 5.094 5.094 0 0 1-.688.048zm6.434 0a3.753 3.753 0 0 1-1.968-.528 3.962 3.962 0 0 1-1.392-1.456c-.341-.619-.512-1.312-.512-2.08s.16-1.456.48-2.064a3.844 3.844 0 0 1 1.328-1.44 3.392 3.392 0 0 1 1.856-.528c.693 0 1.307.176 1.84.528.544.341.971.811 1.28 1.408.32.587.48 1.253.48 2v.352h-6.128c.043.533.187 1.013.432 1.44.256.416.587.747.992.992.416.235.869.352 1.36.352a3.32 3.32 0 0 0 1.168-.208c.384-.149.709-.347.976-.592l.736.784a4.935 4.935 0 0 1-1.392.784c-.48.171-.992.256-1.536.256zm-2.704-4.64h4.944a2.85 2.85 0 0 0-.432-1.248 2.53 2.53 0 0 0-.864-.88 2.13 2.13 0 0 0-1.152-.32c-.427 0-.816.107-1.168.32a2.531 2.531 0 0 0-.88.864 3.37 3.37 0 0 0-.448 1.264zm11.338 4.592c-.672 0-1.28-.176-1.824-.528a3.933 3.933 0 0 1-1.296-1.44 4.294 4.294 0 0 1-.48-2.032c0-.757.16-1.435.48-2.032a3.853 3.853 0 0 1 1.328-1.44 3.318 3.318 0 0 1 1.856-.544c.48 0 .928.096 1.344.288a3.06 3.06 0 0 1 1.088.8v-4.736l1.168-.24V225h-1.168v-1.04a3.056 3.056 0 0 1-1.088.864 3.39 3.39 0 0 1-1.408.288zm.288-1.024c.459 0 .88-.091 1.264-.272.384-.181.699-.437.944-.768v-3.872a2.56 2.56 0 0 0-.976-.768 2.715 2.715 0 0 0-1.232-.288c-.522 0-.992.128-1.408.384-.405.256-.73.608-.976 1.056-.234.448-.352.96-.352 1.536 0 .565.118 1.077.352 1.536.246.448.571.805.976 1.072.416.256.886.384 1.408.384z" fill="#A1A1A1"/><path d="M4.144 299v-9.536H.4V287.8h9.408v1.664H6.064V299h-1.92zm9.235.16c-.768 0-1.461-.181-2.08-.544a4.18 4.18 0 0 1-1.472-1.488c-.362-.629-.544-1.339-.544-2.128 0-.789.17-1.493.512-2.112a3.93 3.93 0 0 1 1.392-1.472 3.671 3.671 0 0 1 1.984-.56c.747 0 1.403.181 1.968.544a3.73 3.73 0 0 1 1.344 1.472c.33.619.496 1.328.496 2.128v.432h-5.92c.064.437.203.827.416 1.168.224.331.507.592.848.784.352.192.73.288 1.136.288a2.9 2.9 0 0 0 1.056-.192c.342-.139.624-.325.848-.56l1.184 1.072c-.49.405-.992.704-1.504.896a4.87 4.87 0 0 1-1.664.272zm-2.304-4.848h4.192a2.546 2.546 0 0 0-.4-1.024 2.112 2.112 0 0 0-.736-.704 1.845 1.845 0 0 0-.96-.256 1.93 1.93 0 0 0-.976.256c-.288.16-.528.389-.72.688a2.897 2.897 0 0 0-.4 1.04zM18.823 299v-11.472l1.808-.32V299h-1.808zm7.76.16c-.769 0-1.462-.181-2.08-.544a4.18 4.18 0 0 1-1.473-1.488c-.362-.629-.544-1.339-.544-2.128 0-.789.171-1.493.512-2.112a3.929 3.929 0 0 1 1.392-1.472 3.671 3.671 0 0 1 1.984-.56c.747 0 1.403.181 1.968.544a3.73 3.73 0 0 1 1.344 1.472c.331.619.496 1.328.496 2.128v.432h-5.92c.064.437.203.827.416 1.168.224.331.507.592.848.784.352.192.731.288 1.136.288a2.9 2.9 0 0 0 1.056-.192c.342-.139.624-.325.848-.56l1.184 1.072c-.49.405-.992.704-1.504.896a4.87 4.87 0 0 1-1.664.272zm-2.305-4.848h4.192a2.546 2.546 0 0 0-.4-1.024 2.112 2.112 0 0 0-.736-.704 1.845 1.845 0 0 0-.96-.256 1.93 1.93 0 0 0-.976.256c-.288.16-.528.389-.72.688a2.897 2.897 0 0 0-.4 1.04zM32.88 299v-6.576h-1.728v-1.44h1.728v-1.376c0-.864.234-1.525.704-1.984.48-.469 1.168-.704 2.064-.704.224 0 .442.011.656.032.213.021.395.059.544.112v1.536a4.085 4.085 0 0 0-.512-.08 2.994 2.994 0 0 0-.448-.032c-.416 0-.72.091-.912.272-.192.181-.288.475-.288.88v1.344h2.16v1.44h-2.16V299H32.88zm8.826.144a4.002 4.002 0 0 1-2.064-.544 3.972 3.972 0 0 1-1.44-1.472c-.352-.629-.528-1.339-.528-2.128 0-.789.176-1.493.528-2.112a3.943 3.943 0 0 1 1.44-1.488c.608-.363 1.296-.544 2.064-.544s1.45.181 2.048.544a3.943 3.943 0 0 1 1.44 1.488c.352.619.528 1.323.528 2.112 0 .789-.176 1.499-.528 2.128a3.972 3.972 0 0 1-1.44 1.472c-.597.363-1.28.544-2.048.544zm0-1.536c.437 0 .821-.112 1.152-.336.341-.224.608-.533.8-.928.192-.405.288-.853.288-1.344 0-.501-.096-.944-.288-1.328a2.268 2.268 0 0 0-.8-.928 1.937 1.937 0 0 0-1.152-.352 2.01 2.01 0 0 0-1.168.352 2.267 2.267 0 0 0-.8.928c-.192.384-.288.827-.288 1.328 0 .501.096.949.288 1.344.192.395.459.704.8.928.341.224.73.336 1.168.336zM47.589 299v-8.016h1.808v1.312c.31-.48.677-.837 1.104-1.072a2.808 2.808 0 0 1 1.424-.368c.554 0 1.04.123 1.456.368.416.235.741.565.976.992.245.427.368.928.368 1.504V299H52.9v-4.768c0-.587-.16-1.051-.48-1.392-.32-.352-.747-.528-1.28-.528a1.96 1.96 0 0 0-.992.256c-.288.16-.539.4-.752.72V299h-1.808zm9.312 0v-8.016h1.808v1.312c.31-.48.678-.837 1.104-1.072a2.808 2.808 0 0 1 1.424-.368c.555 0 1.04.123 1.456.368.416.235.742.565.976.992.246.427.368.928.368 1.504V299h-1.824v-4.768c0-.587-.16-1.051-.48-1.392-.32-.352-.746-.528-1.28-.528a1.96 1.96 0 0 0-.992.256c-.288.16-.538.4-.752.72V299h-1.808zm11.97.128c-.554 0-1.04-.123-1.455-.368a2.721 2.721 0 0 1-.992-1.008c-.235-.427-.352-.923-.352-1.488v-5.28h1.824v4.752c0 .597.154 1.072.464 1.424.32.341.752.512 1.296.512.362 0 .688-.08.976-.24.298-.16.554-.4.768-.72v-5.728h1.808V299H71.4v-1.296c-.31.469-.678.827-1.104 1.072a2.901 2.901 0 0 1-1.424.352zm6.577-.128v-8.016h1.808v1.264c.299-.459.645-.805 1.04-1.04a2.6 2.6 0 0 1 1.328-.352c.555 0 1.035.139 1.44.416.416.277.726.651.928 1.12.32-.501.699-.88 1.136-1.136.448-.267.955-.4 1.52-.4.512 0 .966.123 1.36.368.406.245.715.587.928 1.024.224.437.336.939.336 1.504V299h-1.808v-4.848c0-.565-.144-1.013-.432-1.344-.288-.331-.682-.496-1.184-.496-.32 0-.618.08-.896.24-.266.16-.501.4-.704.72.01.075.016.155.016.24.01.075.016.155.016.24V299h-1.824v-4.848c0-.565-.144-1.013-.432-1.344-.288-.331-.683-.496-1.184-.496-.65 0-1.178.309-1.584.928V299h-1.808zm14.016 0v-8.016h1.808v1.264c.298-.459.645-.805 1.04-1.04a2.6 2.6 0 0 1 1.328-.352c.554 0 1.034.139 1.44.416.416.277.725.651.928 1.12.32-.501.698-.88 1.136-1.136.448-.267.954-.4 1.52-.4.512 0 .965.123 1.36.368.405.245.714.587.928 1.024.224.437.336.939.336 1.504V299H99.48v-4.848c0-.565-.144-1.013-.432-1.344-.288-.331-.683-.496-1.184-.496-.32 0-.619.08-.896.24-.267.16-.502.4-.704.72.01.075.016.155.016.24.01.075.016.155.016.24V299h-1.824v-4.848c0-.565-.144-1.013-.432-1.344-.288-.331-.683-.496-1.184-.496-.65 0-1.179.309-1.584.928V299h-1.808zm17.743.16c-.768 0-1.461-.181-2.08-.544a4.188 4.188 0 0 1-1.472-1.488c-.362-.629-.544-1.339-.544-2.128 0-.789.171-1.493.512-2.112a3.94 3.94 0 0 1 1.392-1.472 3.674 3.674 0 0 1 1.984-.56c.747 0 1.403.181 1.968.544a3.73 3.73 0 0 1 1.344 1.472c.331.619.496 1.328.496 2.128v.432h-5.92a3 3 0 0 0 .416 1.168c.224.331.507.592.848.784.352.192.731.288 1.136.288.374 0 .726-.064 1.056-.192.342-.139.624-.325.848-.56l1.184 1.072c-.49.405-.992.704-1.504.896a4.869 4.869 0 0 1-1.664.272zm-2.304-4.848h4.192a2.54 2.54 0 0 0-.4-1.024 2.108 2.108 0 0 0-.736-.704 1.845 1.845 0 0 0-.96-.256c-.352 0-.677.085-.976.256-.288.16-.528.389-.72.688a2.905 2.905 0 0 0-.4 1.04zm7.748 4.688v-8.016h1.808v1.728c.235-.608.539-1.072.912-1.392.374-.32.806-.48 1.296-.48.15.011.283.027.4.048.118.011.246.048.384.112v1.584a1.937 1.937 0 0 0-.48-.144 2.765 2.765 0 0 0-.512-.048c-.437 0-.832.117-1.184.352a2.47 2.47 0 0 0-.816.976V299h-1.808z" fill="#EDEDED"/><rect x=".5" y="308.5" width="99" height="47" rx="3.5" stroke="#EDEDED"/><path d="M20.304 335.68v-2.896h-2.672v-.96h2.672v-2.896h.992v2.896h2.672v.96h-2.672v2.896h-.992zM32.266 338v-2.992h-6.048v-.912l5.952-7.296h1.232v7.2h1.552v1.008h-1.552V338h-1.136zm-4.704-4h4.704v-5.808L27.562 334zm9.164 4l5.568-10.192h-6.72V326.8h7.968v.896L38.038 338h-1.312z" fill="#EDEDED"/><rect x="108.5" y="308.5" width="219" height="47" rx="3.5" stroke="#EDEDED"/><path d="M126.448 338v-9.952l-1.792.8v-1.056l2.224-.992h.72V338h-1.152zm3.274 0v-.848l4.48-4.896c.352-.384.624-.72.816-1.008a3 3 0 0 0 .416-.832c.086-.256.128-.528.128-.816 0-.565-.224-1.029-.672-1.392-.437-.373-.997-.56-1.68-.56-.522 0-1.008.101-1.456.304-.448.203-.949.555-1.504 1.056l-.672-.8c.587-.533 1.179-.928 1.776-1.184a4.542 4.542 0 0 1 1.872-.4c.672 0 1.27.128 1.792.384.523.245.934.587 1.232 1.024a2.6 2.6 0 0 1 .448 1.504c0 .373-.048.72-.144 1.04a3.896 3.896 0 0 1-.512 1.008 12.91 12.91 0 0 1-1.056 1.28l-3.824 4.144 5.776-.016V338h-7.216zm12.462.176a5.796 5.796 0 0 1-2.16-.4 5.13 5.13 0 0 1-1.76-1.184l.768-.752c.469.469.949.811 1.44 1.024.501.203 1.067.304 1.696.304.544 0 1.024-.096 1.44-.288a2.33 2.33 0 0 0 .992-.8 2.01 2.01 0 0 0 .352-1.168c0-.416-.107-.784-.32-1.104a2.037 2.037 0 0 0-.848-.768 2.76 2.76 0 0 0-1.248-.272h-1.328v-.992h1.28c.608 0 1.099-.187 1.472-.56.384-.373.576-.859.576-1.456 0-.395-.107-.752-.32-1.072a2.17 2.17 0 0 0-.88-.752 2.592 2.592 0 0 0-1.232-.288c-.576 0-1.093.107-1.552.32-.448.203-.907.549-1.376 1.04l-.768-.768a4.996 4.996 0 0 1 1.696-1.2 4.947 4.947 0 0 1 2.016-.416c.683 0 1.291.133 1.824.4.544.267.971.635 1.28 1.104.309.459.464.981.464 1.568 0 .587-.192 1.115-.576 1.584-.384.459-.891.779-1.52.96.757.171 1.365.501 1.824.992.459.491.688 1.061.688 1.712 0 .619-.171 1.173-.512 1.664-.331.491-.795.875-1.392 1.152-.587.277-1.259.416-2.016.416zm11.535-.176v-2.992h-6.048v-.912l5.952-7.296h1.232v7.2h1.552v1.008h-1.552V338h-1.136zm-4.704-4h4.704v-5.808L149.015 334zm12.088 4.176c-1.472 0-2.741-.507-3.808-1.52l.72-.784c.491.459.976.795 1.456 1.008.491.203 1.04.304 1.648.304.544 0 1.024-.112 1.44-.336.416-.224.736-.539.96-.944.235-.405.352-.869.352-1.392 0-.747-.256-1.349-.768-1.808-.501-.459-1.163-.688-1.984-.688-.427 0-.843.053-1.248.16a5.637 5.637 0 0 0-1.264.48l-.8-.256.256-5.6h6.368v1.008h-5.376l-.176 3.872a5.25 5.25 0 0 1 1.232-.448 5.268 5.268 0 0 1 1.248-.144c.736 0 1.376.144 1.92.432a2.99 2.99 0 0 1 1.28 1.184c.309.501.464 1.088.464 1.76 0 .736-.165 1.381-.496 1.936a3.54 3.54 0 0 1-1.376 1.312c-.587.309-1.269.464-2.048.464zm10.021-.016c-.864 0-1.627-.229-2.288-.688-.651-.459-1.163-1.088-1.536-1.888-.373-.811-.56-1.744-.56-2.8 0-1.237.208-2.315.624-3.232.416-.928 1.003-1.648 1.76-2.16.757-.512 1.637-.768 2.64-.768.469 0 .933.064 1.392.192a4.2 4.2 0 0 1 1.232.56l-.576.896a4.728 4.728 0 0 0-1.04-.448 3.885 3.885 0 0 0-1.104-.16c-.768 0-1.435.203-2 .608-.555.395-.987.965-1.296 1.712-.299.747-.459 1.643-.48 2.688a4.509 4.509 0 0 1 1.488-1.248 3.84 3.84 0 0 1 1.792-.448c.725 0 1.371.149 1.936.448a3.336 3.336 0 0 1 1.328 1.248c.32.523.48 1.12.48 1.792 0 .704-.165 1.339-.496 1.904a3.572 3.572 0 0 1-1.36 1.312c-.565.32-1.211.48-1.936.48zm-.112-6.24c-.587 0-1.152.149-1.696.448a4.382 4.382 0 0 0-1.392 1.2c.085.715.267 1.344.544 1.888.288.533.656.949 1.104 1.248.459.299.971.448 1.536.448.512 0 .965-.112 1.36-.336a2.48 2.48 0 0 0 .944-.96c.235-.405.352-.859.352-1.36 0-.501-.117-.944-.352-1.328a2.366 2.366 0 0 0-.976-.912c-.405-.224-.88-.336-1.424-.336zm5.964 6.08l5.568-10.192h-6.72V326.8h7.968v.896L178.288 338h-1.312zm11.952.176c-.768 0-1.451-.139-2.048-.416-.598-.277-1.072-.656-1.424-1.136a2.815 2.815 0 0 1-.512-1.648c0-.459.112-.88.336-1.264a3.08 3.08 0 0 1 .928-1.008 3.815 3.815 0 0 1 1.376-.608c-.651-.181-1.184-.507-1.6-.976-.406-.469-.608-.997-.608-1.584 0-.555.154-1.051.464-1.488a3.21 3.21 0 0 1 1.264-1.04c.544-.256 1.152-.384 1.824-.384.682 0 1.29.128 1.824.384.533.256.954.603 1.264 1.04.309.437.464.933.464 1.488 0 .587-.203 1.115-.608 1.584-.406.469-.939.795-1.6.976.778.181 1.413.539 1.904 1.072.49.523.736 1.125.736 1.808 0 .608-.171 1.157-.512 1.648-.342.48-.816.859-1.424 1.136-.598.277-1.28.416-2.048.416zm0-6.56c.458 0 .869-.091 1.232-.272.373-.181.666-.421.88-.72.213-.309.32-.656.32-1.04s-.107-.731-.32-1.04a2.115 2.115 0 0 0-.88-.72 2.725 2.725 0 0 0-1.232-.272c-.459 0-.875.091-1.248.272a2.124 2.124 0 0 0-.864.72c-.214.309-.32.656-.32 1.04s.106.731.32 1.04c.213.299.501.539.864.72.373.181.789.272 1.248.272zm0 5.632c.544 0 1.029-.101 1.456-.304.426-.203.762-.48 1.008-.832.256-.352.384-.747.384-1.184 0-.437-.128-.832-.384-1.184a2.523 2.523 0 0 0-1.008-.832c-.427-.203-.912-.304-1.456-.304-.544 0-1.03.101-1.456.304-.427.203-.768.48-1.024.832a2.019 2.019 0 0 0-.368 1.184c0 .437.122.832.368 1.184.256.352.597.629 1.024.832.426.203.912.304 1.456.304z" fill="#A1A1A1"/></svg>