<svg width="731" height="467" fill="none" xmlns="http://www.w3.org/2000/svg"><path d="M483.384 436.352l1.04-1.408c.715.587 1.36 1.008 1.936 1.264a4.612 4.612 0 0 0 1.824.368c.736 0 1.339-.165 1.808-.496.469-.341.704-.768.704-1.28 0-.459-.155-.805-.464-1.04-.309-.235-.832-.421-1.568-.56l-2.064-.352c-.96-.171-1.68-.496-2.16-.976-.48-.48-.72-1.104-.72-1.872 0-1.003.373-1.813 1.12-2.432.757-.619 1.76-.928 3.008-.928.832 0 1.627.128 2.384.384a7.305 7.305 0 0 1 2.112 1.072l-.976 1.44a6.238 6.238 0 0 0-1.744-.96 5.286 5.286 0 0 0-1.84-.336c-.672 0-1.211.149-1.616.448-.405.299-.608.677-.608 1.136 0 .395.133.704.4.928.277.224.72.384 1.328.48l1.984.352c1.12.192 1.952.544 2.496 1.056.544.501.816 1.173.816 2.016 0 .512-.112.987-.336 1.424a3.212 3.212 0 0 1-.912 1.104 4.806 4.806 0 0 1-1.424.72 6.171 6.171 0 0 1-1.824.256 6.858 6.858 0 0 1-2.48-.448 8.002 8.002 0 0 1-2.224-1.36zm12.684-6.368v4.768c0 .576.16 1.04.48 1.392.32.352.746.528 1.28.528.362 0 .693-.08.992-.24.298-.171.554-.421.768-.752v-5.696h1.808V438h-1.808v-1.328a3.266 3.266 0 0 1-1.104 1.088 2.872 2.872 0 0 1-1.456.368c-.811 0-1.478-.267-2-.8-.512-.533-.768-1.221-.768-2.064v-5.28h1.808zM511.524 434c0 .565-.096 1.099-.288 1.6a3.916 3.916 0 0 1-.8 1.296 3.858 3.858 0 0 1-1.2.864c-.459.213-.949.32-1.472.32-.469 0-.912-.096-1.328-.288a2.9 2.9 0 0 1-1.04-.832V438h-1.776v-11.44l1.808-.304v4.8a2.91 2.91 0 0 1 1.056-.832 3.303 3.303 0 0 1 1.408-.304c.501 0 .976.107 1.424.32.448.213.832.507 1.152.88.331.363.587.795.768 1.296a4.31 4.31 0 0 1 .288 1.584zm-4.176-2.56c-.395 0-.757.075-1.088.224-.32.149-.597.373-.832.672v3.344c.235.277.517.496.848.656a2.58 2.58 0 0 0 1.072.224c.683 0 1.248-.24 1.696-.72.459-.491.688-1.104.688-1.84 0-.725-.229-1.333-.688-1.824a2.23 2.23 0 0 0-1.696-.736zm6.053 6.56v-8.016h1.808v1.28c.299-.459.646-.805 1.04-1.04a2.552 2.552 0 0 1 1.344-.368 2.44 2.44 0 0 1 1.424.432c.416.277.726.651.928 1.12.299-.512.672-.896 1.12-1.152.459-.267.971-.4 1.536-.4.768 0 1.398.272 1.888.816.491.544.736 1.243.736 2.096V438h-1.808v-4.848c0-.555-.149-.997-.448-1.328-.288-.341-.677-.512-1.168-.512-.33 0-.629.08-.896.24-.266.16-.506.395-.72.704a2 2 0 0 1 .016.256 2 2 0 0 1 .016.256V438h-1.808v-4.848c0-.555-.149-.997-.448-1.328-.288-.341-.677-.512-1.168-.512-.32 0-.613.08-.88.24a2.102 2.102 0 0 0-.704.672V438h-1.808zm14.912-9.648c-.309 0-.576-.107-.8-.32a1.067 1.067 0 0 1-.32-.784c0-.299.112-.56.336-.784.224-.224.485-.336.784-.336.309 0 .576.112.8.336.224.224.336.485.336.784 0 .309-.112.571-.336.784-.213.213-.48.32-.8.32zm.912 1.632V438h-1.808v-8.016h1.808zm3.215 5.904v-4.464h-1.616v-1.44h1.616v-2.208l1.808-.384v2.592h2.24v1.44h-2.24v4.064c0 .395.085.677.256.848.171.16.459.24.864.24.181 0 .347-.011.496-.032.16-.032.357-.085.592-.16v1.52a4.05 4.05 0 0 1-.784.16 5.027 5.027 0 0 1-.768.064c-.8 0-1.413-.187-1.84-.56-.416-.384-.624-.944-.624-1.68zM549.571 434c0 .565-.096 1.099-.288 1.6a3.916 3.916 0 0 1-.8 1.296 3.858 3.858 0 0 1-1.2.864c-.459.213-.949.32-1.472.32-.469 0-.912-.096-1.328-.288a2.9 2.9 0 0 1-1.04-.832V438h-1.776v-11.44l1.808-.304v4.8a2.91 2.91 0 0 1 1.056-.832 3.303 3.303 0 0 1 1.408-.304c.501 0 .976.107 1.424.32.448.213.832.507 1.152.88.331.363.587.795.768 1.296a4.31 4.31 0 0 1 .288 1.584zm-4.176-2.56c-.395 0-.757.075-1.088.224-.32.149-.597.373-.832.672v3.344c.235.277.517.496.848.656a2.58 2.58 0 0 0 1.072.224c.683 0 1.248-.24 1.696-.72.459-.491.688-1.104.688-1.84 0-.725-.229-1.333-.688-1.824a2.23 2.23 0 0 0-1.696-.736zm7.813-1.456v4.768c0 .576.16 1.04.48 1.392.32.352.747.528 1.28.528.363 0 .693-.08.992-.24.299-.171.555-.421.768-.752v-5.696h1.808V438h-1.808v-1.328a3.266 3.266 0 0 1-1.104 1.088 2.872 2.872 0 0 1-1.456.368c-.811 0-1.477-.267-2-.8-.512-.533-.768-1.221-.768-2.064v-5.28h1.808zm8.545 5.904v-4.464h-1.616v-1.44h1.616v-2.208l1.808-.384v2.592h2.24v1.44h-2.24v4.064c0 .395.085.677.256.848.17.16.458.24.864.24.181 0 .346-.011.496-.032.16-.032.357-.085.592-.16v1.52a4.05 4.05 0 0 1-.784.16 5.047 5.047 0 0 1-.768.064c-.8 0-1.414-.187-1.84-.56-.416-.384-.624-.944-.624-1.68zm6.781 0v-4.464h-1.616v-1.44h1.616v-2.208l1.808-.384v2.592h2.24v1.44h-2.24v4.064c0 .395.085.677.256.848.171.16.459.24.864.24.181 0 .347-.011.496-.032.16-.032.357-.085.592-.16v1.52a4.05 4.05 0 0 1-.784.16 5.027 5.027 0 0 1-.768.064c-.8 0-1.413-.187-1.84-.56-.416-.384-.624-.944-.624-1.68zM573.69 434c0-.587.101-1.131.303-1.632a4.17 4.17 0 0 1 .849-1.312 3.963 3.963 0 0 1 2.88-1.2 3.976 3.976 0 0 1 2.88 1.2c.362.363.645.8.848 1.312.202.501.303 1.045.303 1.632s-.106 1.136-.319 1.648a4.001 4.001 0 0 1-.848 1.328 3.865 3.865 0 0 1-1.28.864 3.937 3.937 0 0 1-1.584.32 3.963 3.963 0 0 1-2.88-1.2 4.425 4.425 0 0 1-.849-1.312 4.448 4.448 0 0 1-.303-1.648zm4.032 2.592c.65 0 1.184-.245 1.6-.736.426-.491.64-1.104.64-1.84 0-.757-.214-1.381-.64-1.872-.427-.491-.96-.736-1.6-.736-.651 0-1.19.245-1.616.736-.416.491-.624 1.115-.624 1.872 0 .747.208 1.365.624 1.856.426.48.965.72 1.616.72zM583.62 438v-8.016h1.808v1.312c.299-.469.661-.827 1.088-1.072a2.928 2.928 0 0 1 1.456-.368c.811 0 1.472.272 1.984.816.523.533.784 1.216.784 2.048V438h-1.808v-4.768c0-.576-.16-1.04-.48-1.392-.32-.352-.747-.528-1.28-.528a1.96 1.96 0 0 0-.992.256c-.288.16-.539.395-.752.704V438h-1.808zm13.802-9.648c-.309 0-.576-.107-.8-.32a1.067 1.067 0 0 1-.32-.784c0-.299.112-.56.336-.784.224-.224.486-.336.784-.336.31 0 .576.112.8.336.224.224.336.485.336.784 0 .309-.112.571-.336.784-.213.213-.48.32-.8.32zm.912 1.632V438h-1.808v-8.016h1.808zm1.504 7.088l.848-1.216c.522.331.981.565 1.376.704.394.139.794.208 1.2.208.48 0 .869-.096 1.168-.288.298-.203.448-.464.448-.784a.686.686 0 0 0-.272-.576c-.171-.149-.448-.261-.832-.336l-1.424-.24c-.768-.139-1.35-.389-1.744-.752-.384-.373-.576-.859-.576-1.456 0-.747.282-1.344.848-1.792.576-.459 1.328-.688 2.256-.688.554 0 1.088.08 1.6.24a5.79 5.79 0 0 1 1.552.72l-.848 1.184a4.797 4.797 0 0 0-1.216-.576 3.87 3.87 0 0 0-1.2-.192c-.416 0-.752.085-1.008.256a.771.771 0 0 0-.368.688c0 .256.08.448.24.576.17.128.469.229.896.304l1.408.256c.8.149 1.392.411 1.776.784.394.373.592.859.592 1.456 0 .363-.086.704-.256 1.024-.16.32-.39.597-.688.832a3.344 3.344 0 0 1-1.04.56 4.131 4.131 0 0 1-1.28.192 6.642 6.642 0 0 1-1.936-.272 4.606 4.606 0 0 1-1.52-.816zm18.866-.096a5.302 5.302 0 0 1-1.504.896 4.67 4.67 0 0 1-1.68.288 4.046 4.046 0 0 1-2.896-1.2 4.188 4.188 0 0 1-.864-1.328 4.188 4.188 0 0 1-.32-1.632c0-.587.096-1.131.288-1.632.202-.512.474-.949.816-1.312a3.839 3.839 0 0 1 1.248-.88c.48-.213.997-.32 1.552-.32.544 0 1.045.107 1.504.32.469.203.869.485 1.2.848.341.363.608.8.8 1.312.192.501.287 1.051.287 1.648v.448h-5.919c.085.629.352 1.152.8 1.568.458.416.992.624 1.6.624.373 0 .725-.064 1.056-.192.341-.139.624-.325.848-.56l1.184 1.104zm-3.376-5.648c-.534 0-.987.181-1.36.544-.374.363-.614.848-.72 1.456h4.176c-.107-.587-.352-1.067-.736-1.44a1.854 1.854 0 0 0-1.36-.56zm5.651 6.672v-8.016h1.808v1.312c.299-.469.662-.827 1.088-1.072a2.93 2.93 0 0 1 1.456-.368c.811 0 1.472.272 1.984.816.523.533.784 1.216.784 2.048V438h-1.808v-4.768c0-.576-.16-1.04-.48-1.392-.32-.352-.746-.528-1.28-.528-.362 0-.693.085-.992.256-.288.16-.538.395-.752.704V438h-1.808zm11.745.128c-.832 0-1.515-.224-2.048-.672-.523-.459-.784-1.045-.784-1.76 0-.715.272-1.285.816-1.712.555-.427 1.301-.64 2.24-.64.373 0 .736.043 1.088.128.352.075.709.197 1.072.368v-.88c0-.523-.155-.917-.464-1.184-.309-.277-.768-.416-1.376-.416-.331 0-.688.053-1.072.16a7.184 7.184 0 0 0-1.264.464l-.64-1.312a8.977 8.977 0 0 1 1.712-.608 6.51 6.51 0 0 1 1.616-.208c1.035 0 1.84.256 2.416.768.576.501.864 1.216.864 2.144V438h-1.792v-.816a3.617 3.617 0 0 1-1.12.72 3.465 3.465 0 0 1-1.264.224zm-1.136-2.464c0 .363.149.656.448.88.299.213.693.32 1.184.32.363 0 .699-.053 1.008-.16.32-.107.613-.272.88-.496v-1.312a3.371 3.371 0 0 0-.88-.288 4.661 4.661 0 0 0-.976-.096c-.512 0-.917.107-1.216.32a.954.954 0 0 0-.448.832zM646.993 434c0 .565-.096 1.099-.288 1.6a3.916 3.916 0 0 1-.8 1.296 3.881 3.881 0 0 1-1.2.864c-.459.213-.95.32-1.472.32-.47 0-.912-.096-1.328-.288a2.892 2.892 0 0 1-1.04-.832V438h-1.776v-11.44l1.808-.304v4.8a2.91 2.91 0 0 1 1.056-.832 3.3 3.3 0 0 1 1.408-.304c.501 0 .976.107 1.424.32.448.213.832.507 1.152.88.33.363.586.795.768 1.296a4.31 4.31 0 0 1 .288 1.584zm-4.176-2.56c-.395 0-.758.075-1.088.224-.32.149-.598.373-.832.672v3.344c.234.277.517.496.848.656.33.149.688.224 1.072.224.682 0 1.248-.24 1.696-.72.458-.491.688-1.104.688-1.84 0-.725-.23-1.333-.688-1.824a2.23 2.23 0 0 0-1.696-.736zm7.861-5.184V438h-1.808v-11.44l1.808-.304zm9.119 10.72c-.49.405-.992.704-1.504.896a4.663 4.663 0 0 1-1.68.288 4.053 4.053 0 0 1-1.6-.32 3.936 3.936 0 0 1-1.296-.88 4.223 4.223 0 0 1-.864-1.328 4.206 4.206 0 0 1-.32-1.632c0-.587.096-1.131.288-1.632.203-.512.475-.949.816-1.312a3.839 3.839 0 0 1 1.248-.88c.48-.213.998-.32 1.552-.32.544 0 1.046.107 1.504.32.47.203.87.485 1.2.848.342.363.608.8.8 1.312.192.501.288 1.051.288 1.648v.448h-5.92c.086.629.352 1.152.8 1.568.459.416.992.624 1.6.624.374 0 .726-.064 1.056-.192.342-.139.624-.325.848-.56l1.184 1.104zm-3.376-5.648a1.88 1.88 0 0 0-1.36.544c-.373.363-.613.848-.72 1.456h4.176c-.106-.587-.352-1.067-.736-1.44a1.851 1.851 0 0 0-1.36-.56zM667.848 438v-1.072a2.812 2.812 0 0 1-1.072.848 3.2 3.2 0 0 1-1.392.304c-.501 0-.976-.107-1.424-.32a3.735 3.735 0 0 1-1.168-.864 4.473 4.473 0 0 1-.768-1.296 4.676 4.676 0 0 1-.272-1.6c0-.565.096-1.099.288-1.6.192-.501.453-.933.784-1.296a3.858 3.858 0 0 1 1.2-.864c.459-.213.949-.32 1.472-.32.459 0 .885.096 1.28.288.405.181.757.437 1.056.768v-4.416l1.808-.304V438h-1.792zm-4.304-4c0 .725.229 1.333.688 1.824a2.23 2.23 0 0 0 1.696.736c.384 0 .736-.075 1.056-.224.331-.149.613-.368.848-.656v-3.376a2.46 2.46 0 0 0-.848-.624 2.395 2.395 0 0 0-1.056-.24c-.683 0-1.253.245-1.712.736-.448.48-.672 1.088-.672 1.824zm17.663 4v-1.072a2.805 2.805 0 0 1-1.072.848c-.426.203-.89.304-1.392.304-.501 0-.976-.107-1.424-.32a3.735 3.735 0 0 1-1.168-.864 4.473 4.473 0 0 1-.768-1.296 4.676 4.676 0 0 1-.272-1.6c0-.565.096-1.099.288-1.6.192-.501.454-.933.784-1.296a3.881 3.881 0 0 1 1.2-.864c.459-.213.95-.32 1.472-.32.459 0 .886.096 1.28.288a3.11 3.11 0 0 1 1.056.768v-4.416l1.808-.304V438h-1.792zm-4.304-4c0 .725.23 1.333.688 1.824a2.23 2.23 0 0 0 1.696.736c.384 0 .736-.075 1.056-.224.331-.149.614-.368.848-.656v-3.376a2.45 2.45 0 0 0-.848-.624 2.39 2.39 0 0 0-1.056-.24c-.682 0-1.253.245-1.712.736-.448.48-.672 1.088-.672 1.824zm15.238 2.976a5.302 5.302 0 0 1-1.504.896 4.663 4.663 0 0 1-1.68.288 4.05 4.05 0 0 1-2.896-1.2 4.188 4.188 0 0 1-.864-1.328 4.206 4.206 0 0 1-.32-1.632c0-.587.096-1.131.288-1.632.203-.512.475-.949.816-1.312a3.839 3.839 0 0 1 1.248-.88c.48-.213.997-.32 1.552-.32.544 0 1.045.107 1.504.32.469.203.869.485 1.2.848.341.363.608.8.8 1.312.192.501.288 1.051.288 1.648v.448h-5.92c.085.629.352 1.152.8 1.568.459.416.992.624 1.6.624.373 0 .725-.064 1.056-.192.341-.139.624-.325.848-.56l1.184 1.104zm-3.376-5.648c-.533 0-.987.181-1.36.544-.373.363-.613.848-.72 1.456h4.176c-.107-.587-.352-1.067-.736-1.44a1.853 1.853 0 0 0-1.36-.56zm5.01 5.744l.848-1.216c.523.331.981.565 1.376.704.395.139.795.208 1.2.208.48 0 .869-.096 1.168-.288.299-.203.448-.464.448-.784a.686.686 0 0 0-.272-.576c-.171-.149-.448-.261-.832-.336l-1.424-.24c-.768-.139-1.349-.389-1.744-.752-.384-.373-.576-.859-.576-1.456 0-.747.283-1.344.848-1.792.576-.459 1.328-.688 2.256-.688.555 0 1.088.08 1.6.24.523.149 1.04.389 1.552.72l-.848 1.184a4.781 4.781 0 0 0-1.216-.576 3.87 3.87 0 0 0-1.2-.192c-.416 0-.752.085-1.008.256a.773.773 0 0 0-.368.688c0 .256.08.448.24.576.171.128.469.229.896.304l1.408.256c.8.149 1.392.411 1.776.784.395.373.592.859.592 1.456 0 .363-.085.704-.256 1.024-.16.32-.389.597-.688.832a3.344 3.344 0 0 1-1.04.56 4.127 4.127 0 0 1-1.28.192 6.646 6.646 0 0 1-1.936-.272 4.616 4.616 0 0 1-1.52-.816zm8.376 4.32v-11.408h1.776v1.152a2.87 2.87 0 0 1 1.056-.896c.438-.213.918-.32 1.44-.32.502 0 .976.107 1.424.32.448.213.832.507 1.152.88.331.363.587.795.768 1.296a4.31 4.31 0 0 1 .288 1.584c0 .565-.096 1.099-.288 1.6a3.9 3.9 0 0 1-.8 1.296 3.858 3.858 0 0 1-1.2.864 3.45 3.45 0 0 1-1.472.32c-.469 0-.906-.091-1.312-.272a3.009 3.009 0 0 1-1.024-.768v4.352h-1.808zm3.728-9.952c-.394 0-.757.075-1.088.224-.32.149-.597.373-.832.672v3.344c.235.277.518.496.848.656a2.58 2.58 0 0 0 1.072.224c.683 0 1.248-.24 1.696-.72.459-.491.688-1.104.688-1.84 0-.725-.229-1.333-.688-1.824a2.228 2.228 0 0 0-1.696-.736zm6.95-3.088a1.12 1.12 0 0 1-.8-.32 1.064 1.064 0 0 1-.32-.784c0-.299.112-.56.336-.784.224-.224.485-.336.784-.336.309 0 .576.112.8.336.224.224.336.485.336.784 0 .309-.112.571-.336.784-.214.213-.48.32-.8.32zm.912 1.632V438h-1.808v-8.016h1.808zm3.215 5.904v-4.464h-1.616v-1.44h1.616v-2.208l1.808-.384v2.592h2.24v1.44h-2.24v4.064c0 .395.085.677.256.848.17.16.458.24.864.24.181 0 .346-.011.496-.032.16-.032.357-.085.592-.16v1.52a4.05 4.05 0 0 1-.784.16 5.047 5.047 0 0 1-.768.064c-.8 0-1.414-.187-1.84-.56-.416-.384-.624-.944-.624-1.68zm12.419 1.088c-.49.405-.992.704-1.504.896a4.663 4.663 0 0 1-1.68.288 4.053 4.053 0 0 1-1.6-.32 3.936 3.936 0 0 1-1.296-.88 4.223 4.223 0 0 1-.864-1.328 4.206 4.206 0 0 1-.32-1.632c0-.587.096-1.131.288-1.632.203-.512.475-.949.816-1.312a3.839 3.839 0 0 1 1.248-.88c.48-.213.998-.32 1.552-.32.544 0 1.046.107 1.504.32.47.203.87.485 1.2.848.342.363.608.8.8 1.312.192.501.288 1.051.288 1.648v.448h-5.92c.086.629.352 1.152.8 1.568.459.416.992.624 1.6.624.374 0 .726-.064 1.056-.192.342-.139.624-.325.848-.56l1.184 1.104zm-3.376-5.648a1.88 1.88 0 0 0-1.36.544c-.373.363-.613.848-.72 1.456h4.176c-.106-.587-.352-1.067-.736-1.44a1.851 1.851 0 0 0-1.36-.56zM483.4 460.072l.848-1.216c.523.331.981.565 1.376.704.395.139.795.208 1.2.208.48 0 .869-.096 1.168-.288.299-.203.448-.464.448-.784a.686.686 0 0 0-.272-.576c-.171-.149-.448-.261-.832-.336l-1.424-.24c-.768-.139-1.349-.389-1.744-.752-.384-.373-.576-.859-.576-1.456 0-.747.283-1.344.848-1.792.576-.459 1.328-.688 2.256-.688.555 0 1.088.08 1.6.24.523.149 1.04.389 1.552.72L489 455a4.781 4.781 0 0 0-1.216-.576 3.87 3.87 0 0 0-1.2-.192c-.416 0-.752.085-1.008.256a.773.773 0 0 0-.368.688c0 .256.08.448.24.576.171.128.469.229.896.304l1.408.256c.8.149 1.392.411 1.776.784.395.373.592.859.592 1.456 0 .363-.085.704-.256 1.024-.16.32-.389.597-.688.832a3.344 3.344 0 0 1-1.04.56 4.127 4.127 0 0 1-1.28.192 6.646 6.646 0 0 1-1.936-.272 4.616 4.616 0 0 1-1.52-.816zm9.212-1.184v-4.464h-1.616v-1.44h1.616v-2.208l1.808-.384v2.592h2.24v1.44h-2.24v4.064c0 .395.085.677.256.848.171.16.459.24.864.24.181 0 .347-.011.496-.032.16-.032.357-.085.592-.16v1.52a4.05 4.05 0 0 1-.784.16 5.027 5.027 0 0 1-.768.064c-.8 0-1.413-.187-1.84-.56-.416-.384-.624-.944-.624-1.68zm12.42 1.088a5.302 5.302 0 0 1-1.504.896 4.67 4.67 0 0 1-1.68.288 4.046 4.046 0 0 1-2.896-1.2 4.188 4.188 0 0 1-.864-1.328 4.188 4.188 0 0 1-.32-1.632c0-.587.096-1.131.288-1.632.202-.512.474-.949.816-1.312a3.839 3.839 0 0 1 1.248-.88c.48-.213.997-.32 1.552-.32.544 0 1.045.107 1.504.32.469.203.869.485 1.2.848.341.363.608.8.8 1.312.192.501.288 1.051.288 1.648v.448h-5.92c.085.629.352 1.152.8 1.568.458.416.992.624 1.6.624.373 0 .725-.064 1.056-.192.341-.139.624-.325.848-.56l1.184 1.104zm-3.376-5.648c-.534 0-.987.181-1.36.544-.374.363-.614.848-.72 1.456h4.176c-.107-.587-.352-1.067-.736-1.44a1.854 1.854 0 0 0-1.36-.56zm5.652 10.064v-11.408h1.776v1.152a2.854 2.854 0 0 1 1.056-.896c.437-.213.917-.32 1.44-.32.501 0 .976.107 1.424.32.448.213.832.507 1.152.88.33.363.586.795.768 1.296a4.31 4.31 0 0 1 .288 1.584c0 .565-.096 1.099-.288 1.6a3.932 3.932 0 0 1-.8 1.296 3.881 3.881 0 0 1-1.2.864c-.459.213-.95.32-1.472.32-.47 0-.907-.091-1.312-.272a3 3 0 0 1-1.024-.768v4.352h-1.808zm3.728-9.952c-.395 0-.758.075-1.088.224-.32.149-.598.373-.832.672v3.344c.234.277.517.496.848.656.33.149.688.224 1.072.224.682 0 1.248-.24 1.696-.72.458-.491.688-1.104.688-1.84 0-.725-.23-1.333-.688-1.824a2.23 2.23 0 0 0-1.696-.736zm9.343 6.56v-1.264l4.592-4.8c.394-.427.672-.795.832-1.104.17-.32.256-.656.256-1.008 0-.469-.198-.859-.592-1.168-.384-.32-.87-.48-1.456-.48-.512 0-.992.107-1.44.32-.438.213-.923.565-1.456 1.056l-.992-1.2c.608-.565 1.237-.987 1.888-1.264a5.078 5.078 0 0 1 2.048-.432c1.088 0 1.973.288 2.656.864.693.565 1.04 1.296 1.04 2.192a3.23 3.23 0 0 1-.352 1.488c-.235.459-.651 1.003-1.248 1.632l-3.584 3.696 5.392-.032V461h-7.584zm13.918-9.648c-.309 0-.576-.107-.8-.32a1.067 1.067 0 0 1-.32-.784c0-.299.112-.56.336-.784.224-.224.486-.336.784-.336.31 0 .576.112.8.336.224.224.336.485.336.784 0 .309-.112.571-.336.784-.213.213-.48.32-.8.32zm.912 1.632V461h-1.808v-8.016h1.808zm1.504 7.088l.848-1.216c.522.331.981.565 1.376.704.394.139.794.208 1.2.208.48 0 .869-.096 1.168-.288.298-.203.448-.464.448-.784a.686.686 0 0 0-.272-.576c-.171-.149-.448-.261-.832-.336l-1.424-.24c-.768-.139-1.35-.389-1.744-.752-.384-.373-.576-.859-.576-1.456 0-.747.282-1.344.848-1.792.576-.459 1.328-.688 2.256-.688.554 0 1.088.08 1.6.24a5.79 5.79 0 0 1 1.552.72l-.848 1.184a4.797 4.797 0 0 0-1.216-.576 3.87 3.87 0 0 0-1.2-.192c-.416 0-.752.085-1.008.256a.771.771 0 0 0-.368.688c0 .256.08.448.24.576.17.128.469.229.896.304l1.408.256c.8.149 1.392.411 1.776.784.394.373.592.859.592 1.456 0 .363-.086.704-.256 1.024-.16.32-.39.597-.688.832a3.344 3.344 0 0 1-1.04.56 4.131 4.131 0 0 1-1.28.192 6.642 6.642 0 0 1-1.936-.272 4.606 4.606 0 0 1-1.52-.816zm11.97.928v-8.016h1.808v1.312c.298-.469.661-.827 1.088-1.072a2.925 2.925 0 0 1 1.456-.368c.81 0 1.472.272 1.984.816.522.533.784 1.216.784 2.048V461h-1.808v-4.768c0-.576-.16-1.04-.48-1.392-.32-.352-.747-.528-1.28-.528-.363 0-.694.085-.992.256-.288.16-.539.395-.752.704V461h-1.808zm8.944-4c0-.587.101-1.131.304-1.632.213-.512.496-.949.848-1.312a3.974 3.974 0 0 1 1.28-.88 4.05 4.05 0 0 1 1.6-.32 3.976 3.976 0 0 1 2.88 1.2c.363.363.645.8.848 1.312.203.501.304 1.045.304 1.632s-.107 1.136-.32 1.648a3.986 3.986 0 0 1-.848 1.328 3.865 3.865 0 0 1-1.28.864 3.937 3.937 0 0 1-1.584.32 4.05 4.05 0 0 1-1.6-.32 3.974 3.974 0 0 1-1.28-.88 4.402 4.402 0 0 1-.848-1.312 4.429 4.429 0 0 1-.304-1.648zm4.032 2.592c.651 0 1.184-.245 1.6-.736.427-.491.64-1.104.64-1.84 0-.757-.213-1.381-.64-1.872-.427-.491-.96-.736-1.6-.736-.651 0-1.189.245-1.616.736-.416.491-.624 1.115-.624 1.872 0 .747.208 1.365.624 1.856.427.48.965.72 1.616.72zm6.5-.704v-4.464h-1.616v-1.44h1.616v-2.208l1.808-.384v2.592h2.24v1.44h-2.24v4.064c0 .395.085.677.256.848.171.16.459.24.864.24.181 0 .347-.011.496-.032.16-.032.357-.085.592-.16v1.52a4.05 4.05 0 0 1-.784.16 5.027 5.027 0 0 1-.768.064c-.8 0-1.413-.187-1.84-.56-.416-.384-.624-.944-.624-1.68zm13.019.672a2.58 2.58 0 0 0 1.072-.224c.341-.149.629-.368.864-.656l1.088 1.088a4.117 4.117 0 0 1-1.392 1.024 4.272 4.272 0 0 1-1.744.368 3.963 3.963 0 0 1-2.88-1.2 4.188 4.188 0 0 1-.864-1.328 4.387 4.387 0 0 1-.304-1.632c0-.576.101-1.115.304-1.616.213-.512.501-.949.864-1.312a3.963 3.963 0 0 1 2.88-1.2c.618 0 1.205.117 1.76.352a4.051 4.051 0 0 1 1.44.992l-1.12 1.168a2.912 2.912 0 0 0-.928-.704 2.534 2.534 0 0 0-1.088-.24c-.64 0-1.184.251-1.632.752-.448.491-.672 1.093-.672 1.808 0 .725.224 1.333.672 1.824a2.18 2.18 0 0 0 1.68.736zm3.98-2.56c0-.587.102-1.131.304-1.632.214-.512.496-.949.848-1.312.363-.373.79-.667 1.28-.88a4.053 4.053 0 0 1 1.6-.32 3.972 3.972 0 0 1 2.88 1.2c.363.363.646.8.848 1.312.203.501.304 1.045.304 1.632s-.106 1.136-.32 1.648a3.97 3.97 0 0 1-.848 1.328 3.855 3.855 0 0 1-1.28.864 3.93 3.93 0 0 1-1.584.32 4.053 4.053 0 0 1-1.6-.32 3.984 3.984 0 0 1-1.28-.88 4.422 4.422 0 0 1-.848-1.312 4.449 4.449 0 0 1-.304-1.648zm4.032 2.592c.651 0 1.184-.245 1.6-.736.427-.491.64-1.104.64-1.84 0-.757-.213-1.381-.64-1.872a2.031 2.031 0 0 0-1.6-.736 2.05 2.05 0 0 0-1.616.736c-.416.491-.624 1.115-.624 1.872 0 .747.208 1.365.624 1.856.427.48.966.72 1.616.72zm5.899 1.408v-8.016h1.808v1.28c.298-.459.645-.805 1.04-1.04a2.547 2.547 0 0 1 1.344-.368c.533 0 1.008.144 1.424.432.416.277.725.651.928 1.12.298-.512.672-.896 1.12-1.152.458-.267.97-.4 1.536-.4.768 0 1.397.272 1.888.816.49.544.736 1.243.736 2.096V461h-1.808v-4.848c0-.555-.15-.997-.448-1.328-.288-.341-.678-.512-1.168-.512-.331 0-.63.08-.896.24-.267.16-.507.395-.72.704a2.2 2.2 0 0 1 .016.256 2.2 2.2 0 0 1 .016.256V461h-1.808v-4.848c0-.555-.15-.997-.448-1.328-.288-.341-.678-.512-1.168-.512-.32 0-.614.08-.88.24a2.083 2.083 0 0 0-.704.672V461h-1.808zm14.015 3.392v-11.408h1.776v1.152a2.87 2.87 0 0 1 1.056-.896c.438-.213.918-.32 1.44-.32.502 0 .976.107 1.424.32.448.213.832.507 1.152.88.331.363.587.795.768 1.296a4.31 4.31 0 0 1 .288 1.584c0 .565-.096 1.099-.288 1.6a3.9 3.9 0 0 1-.8 1.296 3.858 3.858 0 0 1-1.2.864 3.45 3.45 0 0 1-1.472.32c-.469 0-.906-.091-1.312-.272a3.009 3.009 0 0 1-1.024-.768v4.352h-1.808zm3.728-9.952c-.394 0-.757.075-1.088.224-.32.149-.597.373-.832.672v3.344c.235.277.518.496.848.656a2.58 2.58 0 0 0 1.072.224c.683 0 1.248-.24 1.696-.72.459-.491.688-1.104.688-1.84 0-.725-.229-1.333-.688-1.824a2.228 2.228 0 0 0-1.696-.736zm7.862-5.184V461h-1.808v-11.44l1.808-.304zm9.119 10.72a5.302 5.302 0 0 1-1.504.896 4.663 4.663 0 0 1-1.68.288 4.05 4.05 0 0 1-2.896-1.2 4.188 4.188 0 0 1-.864-1.328 4.206 4.206 0 0 1-.32-1.632c0-.587.096-1.131.288-1.632.203-.512.475-.949.816-1.312a3.839 3.839 0 0 1 1.248-.88c.48-.213.997-.32 1.552-.32.544 0 1.045.107 1.504.32.469.203.869.485 1.2.848.341.363.608.8.8 1.312.192.501.288 1.051.288 1.648v.448h-5.92c.085.629.352 1.152.8 1.568.459.416.992.624 1.6.624.373 0 .725-.064 1.056-.192.341-.139.624-.325.848-.56l1.184 1.104zm-3.376-5.648c-.533 0-.987.181-1.36.544-.373.363-.613.848-.72 1.456h4.176c-.107-.587-.352-1.067-.736-1.44a1.853 1.853 0 0 0-1.36-.56zm6.409 4.56v-4.464h-1.616v-1.44h1.616v-2.208l1.808-.384v2.592h2.24v1.44h-2.24v4.064c0 .395.086.677.256.848.171.16.459.24.864.24.182 0 .347-.011.496-.032.16-.032.358-.085.592-.16v1.52a4.035 4.035 0 0 1-.784.16 5.027 5.027 0 0 1-.768.064c-.8 0-1.413-.187-1.84-.56-.416-.384-.624-.944-.624-1.68zm12.42 1.088a5.302 5.302 0 0 1-1.504.896 4.663 4.663 0 0 1-1.68.288 4.05 4.05 0 0 1-2.896-1.2 4.188 4.188 0 0 1-.864-1.328 4.206 4.206 0 0 1-.32-1.632c0-.587.096-1.131.288-1.632.203-.512.475-.949.816-1.312a3.839 3.839 0 0 1 1.248-.88c.48-.213.997-.32 1.552-.32.544 0 1.045.107 1.504.32.469.203.869.485 1.2.848.341.363.608.8.8 1.312.192.501.288 1.051.288 1.648v.448h-5.92c.085.629.352 1.152.8 1.568.459.416.992.624 1.6.624.373 0 .725-.064 1.056-.192.341-.139.624-.325.848-.56l1.184 1.104zm-3.376-5.648c-.533 0-.987.181-1.36.544-.373.363-.613.848-.72 1.456h4.176c-.107-.587-.352-1.067-.736-1.44a1.853 1.853 0 0 0-1.36-.56zM483.4 68.464V66.8h9.408v1.664h-3.728V78h-1.92v-9.536h-3.76zM494.339 78V66.56l1.808-.304v5.04c.298-.47.661-.827 1.088-1.072a2.922 2.922 0 0 1 1.456-.368c.81 0 1.472.272 1.984.816.522.533.784 1.216.784 2.048V78h-1.808v-4.768c0-.576-.16-1.04-.48-1.392-.32-.352-.747-.528-1.28-.528-.363 0-.694.085-.992.256-.288.16-.539.395-.752.704V78h-1.808zm16.208-1.024c-.49.405-.992.704-1.504.896a4.663 4.663 0 0 1-1.68.288 4.048 4.048 0 0 1-2.896-1.2 4.226 4.226 0 0 1-.864-1.328 4.206 4.206 0 0 1-.32-1.632c0-.587.096-1.13.288-1.632.203-.512.475-.95.816-1.312a3.839 3.839 0 0 1 1.248-.88 3.78 3.78 0 0 1 1.552-.32 3.52 3.52 0 0 1 1.504.32c.47.203.87.485 1.2.848.342.363.608.8.8 1.312.192.501.288 1.05.288 1.648v.448h-5.92c.086.63.352 1.152.8 1.568.459.416.992.624 1.6.624.374 0 .726-.064 1.056-.192.342-.139.624-.325.848-.56l1.184 1.104zm-3.376-5.648c-.533 0-.986.181-1.36.544-.373.363-.613.848-.72 1.456h4.176c-.106-.587-.352-1.067-.736-1.44a1.85 1.85 0 0 0-1.36-.56zm8.606-1.344h1.728V68.56c0-.864.235-1.525.704-1.984.48-.47 1.168-.704 2.064-.704.213 0 .427.016.64.048.224.032.411.07.56.112v1.536a9.701 9.701 0 0 0-.512-.096 2.958 2.958 0 0 0-.448-.032c-.416 0-.72.096-.912.288-.192.181-.288.47-.288.864v1.392h2.16v1.44h-2.16V78h-1.808v-6.576h-1.728v-1.44zM522.361 74c0-.587.102-1.13.304-1.632.214-.512.496-.95.848-1.312.363-.373.79-.667 1.28-.88a4.048 4.048 0 0 1 1.6-.32 3.967 3.967 0 0 1 3.728 2.512c.203.501.304 1.045.304 1.632a4.23 4.23 0 0 1-.32 1.648 3.973 3.973 0 0 1-.848 1.328c-.352.363-.778.65-1.28.864-.49.213-1.018.32-1.584.32a4.048 4.048 0 0 1-1.6-.32 3.984 3.984 0 0 1-1.28-.88 4.422 4.422 0 0 1-.848-1.312 4.45 4.45 0 0 1-.304-1.648zm4.032 2.592c.651 0 1.184-.245 1.6-.736.427-.49.64-1.104.64-1.84 0-.757-.213-1.381-.64-1.872a2.032 2.032 0 0 0-1.6-.736c-.65 0-1.189.245-1.616.736-.416.49-.624 1.115-.624 1.872 0 .747.208 1.365.624 1.856.427.48.966.72 1.616.72zM532.292 78v-8.016h1.808v1.744c.213-.608.507-1.072.88-1.392.384-.33.827-.496 1.328-.496.149.01.283.027.4.048.117.021.245.059.384.112v1.584a1.963 1.963 0 0 0-.48-.144 2.773 2.773 0 0 0-.512-.048 2.06 2.06 0 0 0-1.168.352c-.352.235-.629.56-.832.976V78h-1.808zm6.281 0v-8.016h1.808v1.28c.299-.459.645-.805 1.04-1.04a2.545 2.545 0 0 1 1.344-.368c.533 0 1.008.144 1.424.432.416.277.725.65.928 1.12.299-.512.672-.896 1.12-1.152.459-.267.971-.4 1.536-.4.768 0 1.397.272 1.888.816.491.544.736 1.243.736 2.096V78h-1.808v-4.848c0-.555-.149-.997-.448-1.328-.288-.341-.677-.512-1.168-.512-.331 0-.629.08-.896.24a2.36 2.36 0 0 0-.72.704 2 2 0 0 1 .016.256 2 2 0 0 1 .016.256V78h-1.808v-4.848c0-.555-.149-.997-.448-1.328-.288-.341-.677-.512-1.168-.512-.32 0-.613.08-.88.24-.267.15-.501.373-.704.672V78h-1.808zm18.506-9.648a1.12 1.12 0 0 1-.8-.32 1.064 1.064 0 0 1-.32-.784c0-.299.112-.56.336-.784.224-.224.485-.336.784-.336.309 0 .576.112.8.336.224.224.336.485.336.784 0 .31-.112.57-.336.784-.214.213-.48.32-.8.32zm.912 1.632V78h-1.808v-8.016h1.808zm1.503 7.088l.848-1.216c.522.33.981.565 1.376.704a3.59 3.59 0 0 0 1.2.208c.48 0 .869-.096 1.168-.288.298-.203.448-.464.448-.784a.685.685 0 0 0-.272-.576c-.171-.15-.448-.261-.832-.336l-1.424-.24c-.768-.139-1.35-.39-1.744-.752-.384-.373-.576-.859-.576-1.456 0-.747.282-1.344.848-1.792.576-.459 1.328-.688 2.256-.688.554 0 1.088.08 1.6.24.522.15 1.04.39 1.552.72L565.094 72a4.818 4.818 0 0 0-1.216-.576 3.87 3.87 0 0 0-1.2-.192c-.416 0-.752.085-1.008.256a.772.772 0 0 0-.368.688c0 .256.08.448.24.576.17.128.469.23.896.304l1.408.256c.8.15 1.392.41 1.776.784.394.373.592.859.592 1.456 0 .363-.086.704-.256 1.024-.16.32-.39.597-.688.832a3.344 3.344 0 0 1-1.04.56 4.131 4.131 0 0 1-1.28.192c-.694 0-1.339-.09-1.936-.272a4.606 4.606 0 0 1-1.52-.816zm11.25 0l.848-1.216c.522.33.981.565 1.376.704a3.59 3.59 0 0 0 1.2.208c.48 0 .869-.096 1.168-.288.298-.203.448-.464.448-.784a.685.685 0 0 0-.272-.576c-.171-.15-.448-.261-.832-.336l-1.424-.24c-.768-.139-1.35-.39-1.744-.752-.384-.373-.576-.859-.576-1.456 0-.747.282-1.344.848-1.792.576-.459 1.328-.688 2.256-.688.554 0 1.088.08 1.6.24.522.15 1.04.39 1.552.72L576.344 72a4.818 4.818 0 0 0-1.216-.576 3.87 3.87 0 0 0-1.2-.192c-.416 0-.752.085-1.008.256a.772.772 0 0 0-.368.688c0 .256.08.448.24.576.17.128.469.23.896.304l1.408.256c.8.15 1.392.41 1.776.784.394.373.592.859.592 1.456 0 .363-.086.704-.256 1.024-.16.32-.39.597-.688.832a3.344 3.344 0 0 1-1.04.56 4.131 4.131 0 0 1-1.28.192c-.694 0-1.339-.09-1.936-.272a4.606 4.606 0 0 1-1.52-.816zm8.376 4.32V69.984h1.776v1.152a2.856 2.856 0 0 1 1.056-.896c.437-.213.917-.32 1.44-.32.501 0 .976.107 1.424.32.448.213.832.507 1.152.88.331.363.587.795.768 1.296.192.49.288 1.019.288 1.584 0 .565-.096 1.099-.288 1.6a3.91 3.91 0 0 1-.8 1.296c-.341.363-.741.65-1.2.864-.459.213-.949.32-1.472.32-.469 0-.907-.09-1.312-.272a3.007 3.007 0 0 1-1.024-.768v4.352h-1.808zm3.728-9.952c-.395 0-.757.075-1.088.224-.32.15-.597.373-.832.672v3.344c.235.277.517.496.848.656.331.15.688.224 1.072.224.683 0 1.248-.24 1.696-.72.459-.49.688-1.104.688-1.84 0-.725-.229-1.333-.688-1.824a2.23 2.23 0 0 0-1.696-.736zm7.861-5.184V78h-1.808V66.56l1.808-.304zm3.12 2.096a1.12 1.12 0 0 1-.8-.32 1.064 1.064 0 0 1-.32-.784c0-.299.112-.56.336-.784.224-.224.485-.336.784-.336.309 0 .576.112.8.336.224.224.336.485.336.784 0 .31-.112.57-.336.784-.214.213-.48.32-.8.32zm.912 1.632V78h-1.808v-8.016h1.808zm3.215 5.904v-4.464h-1.616v-1.44h1.616v-2.208l1.808-.384v2.592h2.24v1.44h-2.24v4.064c0 .395.085.677.256.848.17.16.458.24.864.24.181 0 .346-.01.496-.032.16-.032.357-.085.592-.16v1.52a4.073 4.073 0 0 1-.784.16 5.086 5.086 0 0 1-.768.064c-.8 0-1.414-.187-1.84-.56-.416-.384-.624-.944-.624-1.68zm10.987-5.904v4.768c0 .576.16 1.04.48 1.392.32.352.746.528 1.28.528.362 0 .693-.08.992-.24.298-.17.554-.421.768-.752v-5.696h1.808V78h-1.808v-1.328c-.299.47-.667.832-1.104 1.088a2.87 2.87 0 0 1-1.456.368c-.811 0-1.478-.267-2-.8-.512-.533-.768-1.221-.768-2.064v-5.28h1.808zm7.552 11.408V69.984h1.776v1.152a2.856 2.856 0 0 1 1.056-.896c.437-.213.917-.32 1.44-.32.501 0 .976.107 1.424.32.448.213.832.507 1.152.88.331.363.587.795.768 1.296.192.49.288 1.019.288 1.584 0 .565-.096 1.099-.288 1.6a3.91 3.91 0 0 1-.8 1.296c-.341.363-.741.65-1.2.864-.459.213-.949.32-1.472.32-.469 0-.907-.09-1.312-.272a3.007 3.007 0 0 1-1.024-.768v4.352h-1.808zm3.728-9.952c-.395 0-.757.075-1.088.224-.32.15-.597.373-.832.672v3.344c.235.277.517.496.848.656.331.15.688.224 1.072.224.683 0 1.248-.24 1.696-.72.459-.49.688-1.104.688-1.84 0-.725-.229-1.333-.688-1.824a2.23 2.23 0 0 0-1.696-.736zm10.543-3.088a1.12 1.12 0 0 1-.8-.32 1.067 1.067 0 0 1-.32-.784c0-.299.112-.56.336-.784.224-.224.485-.336.784-.336.309 0 .576.112.8.336.224.224.336.485.336.784 0 .31-.112.57-.336.784-.213.213-.48.32-.8.32zm.912 1.632V78h-1.808v-8.016h1.808zM633.901 78v-8.016h1.808v1.312c.299-.47.662-.827 1.088-1.072a2.928 2.928 0 0 1 1.456-.368c.811 0 1.472.272 1.984.816.523.533.784 1.216.784 2.048V78h-1.808v-4.768c0-.576-.16-1.04-.48-1.392-.32-.352-.746-.528-1.28-.528-.362 0-.693.085-.992.256-.288.16-.538.395-.752.704V78h-1.808zm12.187-.928l.848-1.216c.522.33.981.565 1.376.704a3.59 3.59 0 0 0 1.2.208c.48 0 .869-.096 1.168-.288.298-.203.448-.464.448-.784a.685.685 0 0 0-.272-.576c-.171-.15-.448-.261-.832-.336l-1.424-.24c-.768-.139-1.35-.39-1.744-.752-.384-.373-.576-.859-.576-1.456 0-.747.282-1.344.848-1.792.576-.459 1.328-.688 2.256-.688.554 0 1.088.08 1.6.24.522.15 1.04.39 1.552.72L651.688 72a4.818 4.818 0 0 0-1.216-.576 3.87 3.87 0 0 0-1.2-.192c-.416 0-.752.085-1.008.256a.772.772 0 0 0-.368.688c0 .256.08.448.24.576.17.128.469.23.896.304l1.408.256c.8.15 1.392.41 1.776.784.394.373.592.859.592 1.456 0 .363-.086.704-.256 1.024-.16.32-.39.597-.688.832a3.344 3.344 0 0 1-1.04.56 4.131 4.131 0 0 1-1.28.192c-.694 0-1.339-.09-1.936-.272a4.606 4.606 0 0 1-1.52-.816zm9.211-1.184v-4.464h-1.615v-1.44h1.615v-2.208l1.809-.384v2.592h2.24v1.44h-2.24v4.064c0 .395.085.677.256.848.17.16.458.24.864.24.181 0 .346-.01.496-.032.16-.032.357-.085.592-.16v1.52a4.073 4.073 0 0 1-.784.16 5.086 5.086 0 0 1-.768.064c-.8 0-1.414-.187-1.84-.56-.416-.384-.625-.944-.625-1.68zm12.42 1.088a5.295 5.295 0 0 1-1.504.896 4.663 4.663 0 0 1-1.68.288 4.044 4.044 0 0 1-2.896-1.2 4.192 4.192 0 0 1-.864-1.328 4.206 4.206 0 0 1-.32-1.632c0-.587.096-1.13.288-1.632.203-.512.475-.95.816-1.312a3.839 3.839 0 0 1 1.248-.88c.48-.213.997-.32 1.552-.32.544 0 1.045.107 1.504.32.469.203.869.485 1.2.848.341.363.608.8.8 1.312.192.501.288 1.05.288 1.648v.448h-5.92c.085.63.352 1.152.8 1.568.459.416.992.624 1.6.624.373 0 .725-.064 1.056-.192.341-.139.624-.325.848-.56l1.184 1.104zm-3.376-5.648a1.88 1.88 0 0 0-1.36.544c-.373.363-.613.848-.72 1.456h4.176c-.107-.587-.352-1.067-.736-1.44a1.852 1.852 0 0 0-1.36-.56zm5.652 10.064V69.984h1.776v1.152a2.856 2.856 0 0 1 1.056-.896c.437-.213.917-.32 1.44-.32.501 0 .976.107 1.424.32.448.213.832.507 1.152.88.331.363.587.795.768 1.296.192.49.288 1.019.288 1.584 0 .565-.096 1.099-.288 1.6a3.91 3.91 0 0 1-.8 1.296c-.341.363-.741.65-1.2.864-.459.213-.949.32-1.472.32-.469 0-.907-.09-1.312-.272a3.007 3.007 0 0 1-1.024-.768v4.352h-1.808zm3.728-9.952c-.395 0-.757.075-1.088.224-.32.15-.597.373-.832.672v3.344c.235.277.517.496.848.656.331.15.688.224 1.072.224.683 0 1.248-.24 1.696-.72.459-.49.688-1.104.688-1.84 0-.725-.229-1.333-.688-1.824a2.23 2.23 0 0 0-1.696-.736zm5.333 5.632l.848-1.216c.523.33.982.565 1.376.704.395.139.795.208 1.2.208.48 0 .87-.096 1.168-.288.299-.203.448-.464.448-.784a.683.683 0 0 0-.272-.576c-.17-.15-.448-.261-.832-.336l-1.424-.24c-.768-.139-1.349-.39-1.744-.752-.384-.373-.576-.859-.576-1.456 0-.747.283-1.344.848-1.792.576-.459 1.328-.688 2.256-.688.555 0 1.088.08 1.6.24.523.15 1.04.39 1.552.72L684.656 72a4.802 4.802 0 0 0-1.216-.576 3.861 3.861 0 0 0-1.2-.192c-.416 0-.752.085-1.008.256a.774.774 0 0 0-.368.688c0 .256.08.448.24.576.171.128.47.23.896.304l1.408.256c.8.15 1.392.41 1.776.784.395.373.592.859.592 1.456 0 .363-.085.704-.256 1.024-.16.32-.389.597-.688.832a3.333 3.333 0 0 1-1.04.56 4.122 4.122 0 0 1-1.28.192c-.693 0-1.338-.09-1.936-.272a4.626 4.626 0 0 1-1.52-.816z" fill="#000"/><circle cx="377" cy="444" r="7" fill="#fff" stroke="#29D305" stroke-width="2"/><path d="M384 444h83" stroke="#29D305" stroke-width="2" stroke-linecap="round" stroke-linejoin="round"/><circle cx="377" cy="444" r="2" fill="#29D305"/><circle cx="217" cy="72" r="7" fill="#fff" stroke="#29D305" stroke-width="2"/><path d="M224 72h243" stroke="#29D305" stroke-width="2" stroke-linecap="round" stroke-linejoin="round"/><circle cx="217" cy="72" r="2" fill="#29D305"/><path d="M16 88a1 1 0 0 1 1 1v10a1 1 0 1 1-2 0V89a1 1 0 0 1 1-1zm0-52a1 1 0 0 1 1 1v10a1 1 0 1 1-2 0V37a1 1 0 0 1 1-1zm0 107a1 1 0 0 1 1 1v10a1 1 0 0 1-2 0v-10a1 1 0 0 1 1-1z" fill="#262626"/><g clip-path="url(#clip0_245_1240)"><path d="M16 82.996c-8.27 0-15-6.73-15-15s6.73-15 15-15 15 6.73 15 15-6.73 15-15 15z" stroke="#000" stroke-width="2"/></g><path d="M11.525 74v-1.728l4.968-4.446c.564-.516.966-.966 1.206-1.35.24-.396.36-.804.36-1.224 0-.552-.216-1.008-.648-1.368-.432-.36-.972-.54-1.62-.54-.6 0-1.164.12-1.692.36-.516.24-1.08.636-1.692 1.188l-1.386-1.656c.732-.66 1.506-1.158 2.322-1.494a6.56 6.56 0 0 1 2.52-.504c.672 0 1.29.096 1.854.288.576.18 1.062.438 1.458.774.408.336.72.744.936 1.224.228.48.342 1.002.342 1.566 0 .72-.18 1.386-.54 1.998-.36.612-.984 1.314-1.872 2.106l-3.078 2.736h5.652V74h-9.09z" fill="#262626"/><path d="M48.448 72.256l.752-.896c.672.63 1.301 1.077 1.888 1.344.597.267 1.259.4 1.984.4.864 0 1.579-.213 2.144-.64.565-.437.848-.976.848-1.616 0-.555-.192-.981-.576-1.28-.373-.299-1.013-.528-1.92-.688l-1.808-.304c-1.024-.181-1.776-.49-2.256-.928-.47-.448-.704-1.045-.704-1.792 0-.939.357-1.707 1.072-2.304.715-.597 1.637-.896 2.768-.896.832 0 1.605.117 2.32.352a7.594 7.594 0 0 1 2.112 1.072l-.64.96a7.162 7.162 0 0 0-1.84-.992 5.586 5.586 0 0 0-1.936-.352c-.779 0-1.419.197-1.92.592-.501.384-.752.864-.752 1.44 0 .49.165.875.496 1.152.33.277.87.475 1.616.592l1.792.304c1.184.213 2.048.56 2.592 1.04s.816 1.136.816 1.968c0 .48-.107.928-.32 1.344a3.194 3.194 0 0 1-.896 1.072 4.229 4.229 0 0 1-1.344.704 5.433 5.433 0 0 1-1.696.256c-.875 0-1.69-.155-2.448-.464-.747-.32-1.461-.8-2.144-1.44zm17.325.848a4.927 4.927 0 0 1-1.392.784 4.55 4.55 0 0 1-1.536.256 3.907 3.907 0 0 1-1.536-.304 4.015 4.015 0 0 1-1.232-.864 4.17 4.17 0 0 1-.816-1.28 4.435 4.435 0 0 1-.288-1.6c0-.565.09-1.093.272-1.584a3.86 3.86 0 0 1 .784-1.28c.33-.363.72-.645 1.168-.848.448-.213.933-.32 1.456-.32.512 0 .987.101 1.424.304a3.646 3.646 0 0 1 1.888 2.08c.181.48.272.997.272 1.552v.352h-6.128c.053.79.347 1.45.88 1.984a2.627 2.627 0 0 0 1.904.784c.405 0 .795-.07 1.168-.208.384-.15.71-.347.976-.592l.736.784zm-3.136-6.032c-.64 0-1.19.23-1.648.688-.459.459-.741 1.045-.848 1.76h4.944c-.085-.704-.357-1.285-.816-1.744a2.172 2.172 0 0 0-1.632-.704zm6.762-4.752V74h-1.168V62.56l1.168-.24zm8.843 10.784a4.927 4.927 0 0 1-1.392.784 4.55 4.55 0 0 1-1.536.256 3.907 3.907 0 0 1-1.536-.304 4.014 4.014 0 0 1-1.232-.864 4.167 4.167 0 0 1-.816-1.28 4.435 4.435 0 0 1-.288-1.6c0-.565.09-1.093.272-1.584a3.86 3.86 0 0 1 .784-1.28c.33-.363.72-.645 1.168-.848.448-.213.933-.32 1.456-.32.512 0 .986.101 1.424.304a3.648 3.648 0 0 1 1.888 2.08c.181.48.272.997.272 1.552v.352h-6.128c.053.79.346 1.45.88 1.984a2.627 2.627 0 0 0 1.904.784c.405 0 .794-.07 1.168-.208.384-.15.71-.347.976-.592l.736.784zm-3.136-6.032c-.64 0-1.19.23-1.648.688-.459.459-.742 1.045-.848 1.76h4.944c-.086-.704-.358-1.285-.816-1.744a2.172 2.172 0 0 0-1.632-.704zm9.178 6.016c.426 0 .826-.08 1.2-.24.384-.16.709-.39.976-.688l.72.72a3.987 3.987 0 0 1-1.344.928 3.988 3.988 0 0 1-1.616.336c-.534 0-1.04-.101-1.52-.304a3.823 3.823 0 0 1-1.216-.864 4.17 4.17 0 0 1-1.12-2.88c0-.565.096-1.093.288-1.584a4.17 4.17 0 0 1 .816-1.28 3.797 3.797 0 0 1 1.232-.848 3.63 3.63 0 0 1 1.52-.32 4.32 4.32 0 0 1 1.648.32 4.08 4.08 0 0 1 1.36.896l-.752.816a2.959 2.959 0 0 0-1.008-.704 2.849 2.849 0 0 0-1.2-.272c-.384 0-.747.08-1.088.24-.331.15-.619.357-.864.624a3.342 3.342 0 0 0-.576.944 3.244 3.244 0 0 0-.208 1.168c0 .843.266 1.552.8 2.128.533.576 1.184.864 1.952.864zm5.656-.848v-5.088h-1.615v-.96h1.615v-2.144l1.169-.272v2.416h2.24v.96h-2.24v4.784c0 .416.085.715.256.896.18.181.474.272.88.272.202 0 .383-.016.543-.048.16-.032.347-.085.56-.16v1.04a3.43 3.43 0 0 1-.671.16 5.09 5.09 0 0 1-.689.048c-.671 0-1.183-.16-1.535-.48-.342-.33-.513-.805-.513-1.424zm8.854 5.104V66.192h1.152v1.12a2.922 2.922 0 0 1 1.088-.896c.437-.213.917-.32 1.44-.32.501 0 .97.107 1.408.32a3.37 3.37 0 0 1 1.152.848c.32.352.57.773.752 1.264.192.49.288 1.013.288 1.568 0 .565-.096 1.093-.288 1.584-.182.49-.438.917-.768 1.28a3.87 3.87 0 0 1-1.168.848 3.452 3.452 0 0 1-1.44.304c-.491 0-.95-.09-1.376-.272a3.083 3.083 0 0 1-1.072-.816v4.32h-1.168zm3.392-10.224c-.459 0-.886.096-1.28.288a2.41 2.41 0 0 0-.944.784v3.824c.256.341.576.608.96.8a2.85 2.85 0 0 0 1.264.288c.778 0 1.429-.283 1.952-.848.522-.576.784-1.29.784-2.144 0-.853-.262-1.563-.784-2.128a2.53 2.53 0 0 0-1.952-.864zm5.936 6.88v-7.808h1.168v1.584c.203-.544.491-.965.864-1.264.384-.31.821-.464 1.312-.464.139 0 .267.01.384.032.117.01.235.037.352.08v1.056a2.379 2.379 0 0 0-.416-.096 2.024 2.024 0 0 0-1.664.368c-.352.277-.629.667-.832 1.168V74h-1.168zm4.773-3.904c0-.576.096-1.11.288-1.6.192-.49.453-.917.784-1.28a3.621 3.621 0 0 1 1.216-.848 3.752 3.752 0 0 1 1.504-.304 3.68 3.68 0 0 1 1.504.304c.469.203.875.485 1.216.848.341.363.608.79.8 1.28.192.49.288 1.024.288 1.6 0 .576-.101 1.115-.304 1.616a3.91 3.91 0 0 1-.8 1.296 3.766 3.766 0 0 1-1.2.848 3.752 3.752 0 0 1-1.504.304 3.752 3.752 0 0 1-1.504-.304 3.868 3.868 0 0 1-1.2-.864 4.337 4.337 0 0 1-.8-1.28 4.48 4.48 0 0 1-.288-1.616zm3.792 3.024c.757 0 1.387-.283 1.888-.848.512-.576.768-1.296.768-2.16 0-.864-.256-1.584-.768-2.16-.501-.576-1.131-.864-1.888-.864-.757 0-1.387.288-1.888.864-.501.576-.752 1.296-.752 2.16 0 .864.251 1.584.752 2.16a2.417 2.417 0 0 0 1.888.848zm11.616.88v-1.04a3.05 3.05 0 0 1-1.088.864 3.39 3.39 0 0 1-1.408.288c-.501 0-.976-.101-1.424-.304a3.732 3.732 0 0 1-1.136-.848 4.26 4.26 0 0 1-.768-1.28 4.495 4.495 0 0 1-.272-1.568c0-.565.091-1.093.272-1.584.192-.49.454-.912.784-1.264a3.54 3.54 0 0 1 1.168-.848c.448-.213.928-.32 1.44-.32.48 0 .928.096 1.344.288.416.181.779.448 1.088.8V62.56l1.168-.24V74h-1.168zm-4.944-3.904c0 .853.262 1.568.784 2.144.523.565 1.174.848 1.952.848.459 0 .88-.09 1.264-.272.384-.181.699-.437.944-.768v-3.872a2.566 2.566 0 0 0-.976-.768 2.715 2.715 0 0 0-1.232-.288c-.778 0-1.429.283-1.952.848-.522.565-.784 1.275-.784 2.128zm9.649-3.904v4.704c0 .693.187 1.243.56 1.648.373.405.88.608 1.52.608.427 0 .816-.101 1.168-.304.352-.203.645-.496.88-.88v-5.776h1.168V74h-1.168v-1.264c-.299.459-.656.805-1.072 1.04a2.814 2.814 0 0 1-1.408.352c-.832 0-1.515-.267-2.048-.8-.523-.544-.784-1.243-.784-2.096v-5.04h1.184zm11.26 6.896c.427 0 .827-.08 1.2-.24.384-.16.709-.39.976-.688l.72.72a3.981 3.981 0 0 1-1.344.928 3.99 3.99 0 0 1-1.616.336c-.533 0-1.04-.101-1.52-.304a3.822 3.822 0 0 1-1.216-.864 4.182 4.182 0 0 1-.816-1.28 4.222 4.222 0 0 1-.304-1.6c0-.565.096-1.093.288-1.584.203-.49.475-.917.816-1.28a3.8 3.8 0 0 1 1.232-.848c.469-.213.976-.32 1.52-.32.576 0 1.125.107 1.648.32.523.213.976.512 1.36.896l-.752.816a2.953 2.953 0 0 0-1.008-.704 2.852 2.852 0 0 0-1.2-.272c-.384 0-.747.08-1.088.24-.331.15-.619.357-.864.624a3.324 3.324 0 0 0-.576.944 3.236 3.236 0 0 0-.208 1.168c0 .843.267 1.552.8 2.128.533.576 1.184.864 1.952.864zm5.657-.848v-5.088h-1.616v-.96h1.616v-2.144l1.168-.272v2.416h2.24v.96h-2.24v4.784c0 .416.085.715.256.896.181.181.475.272.88.272.203 0 .384-.016.544-.048.16-.032.347-.085.56-.16v1.04a3.419 3.419 0 0 1-.672.16 5.094 5.094 0 0 1-.688.048c-.672 0-1.184-.16-1.536-.48-.341-.33-.512-.805-.512-1.424z" fill="#000"/><g clip-path="url(#clip1_245_1240)"><path d="M16 31.996c-8.823 0-16-7.177-16-16s7.177-16 16-16 16 7.177 16 16-7.177 16-16 16z" fill="#262626"/><path fill-rule="evenodd" clip-rule="evenodd" d="M8.626 15.075a1 1 0 0 1 1.414 0l4.007 4.002 8.721-8.711a1 1 0 0 1 1.415 0 .998.998 0 0 1 0 1.412l-9.428 9.418a1 1 0 0 1-1.415 0l-4.714-4.709a.998.998 0 0 1 0-1.412z" fill="#fff"/></g><path d="M54.624 21.056c.64 0 1.259-.133 1.856-.4a4.076 4.076 0 0 0 1.504-1.136l.8.816a5.72 5.72 0 0 1-1.904 1.36c-.725.32-1.488.48-2.288.48-.8 0-1.552-.15-2.256-.448a5.968 5.968 0 0 1-1.808-1.232 6.035 6.035 0 0 1-1.2-1.84 5.9 5.9 0 0 1-.432-2.256c0-.8.144-1.552.432-2.256a5.65 5.65 0 0 1 1.216-1.84 5.609 5.609 0 0 1 4.048-1.68c.821 0 1.6.16 2.336.48.736.32 1.365.773 1.888 1.36l-.816.848a4.35 4.35 0 0 0-1.536-1.152 4.467 4.467 0 0 0-1.872-.416c-.63 0-1.216.123-1.76.368a4.224 4.224 0 0 0-1.408.976c-.395.416-.71.912-.944 1.488a4.906 4.906 0 0 0-.336 1.824c0 .65.112 1.264.336 1.84.235.565.55 1.056.944 1.472.395.416.864.747 1.408.992a4.55 4.55 0 0 0 1.792.352zm6.185.944v-7.808h1.168v1.584c.203-.544.491-.965.864-1.264.384-.31.822-.464 1.312-.464.139 0 .267.01.384.032.118.01.235.037.352.08v1.056a2.372 2.372 0 0 0-.416-.096 2.023 2.023 0 0 0-1.664.368c-.352.277-.629.667-.832 1.168V22H60.81zm11.573-.896a4.927 4.927 0 0 1-1.392.784 4.55 4.55 0 0 1-1.536.256 3.907 3.907 0 0 1-1.536-.304 4.014 4.014 0 0 1-1.232-.864 4.167 4.167 0 0 1-.816-1.28 4.435 4.435 0 0 1-.288-1.6c0-.565.091-1.093.272-1.584a3.86 3.86 0 0 1 .784-1.28c.331-.363.72-.645 1.168-.848.448-.213.934-.32 1.456-.32.512 0 .987.101 1.424.304a3.648 3.648 0 0 1 1.888 2.08c.182.48.272.997.272 1.552v.352h-6.128c.054.79.347 1.45.88 1.984a2.627 2.627 0 0 0 1.904.784c.406 0 .795-.07 1.168-.208.384-.15.71-.347.976-.592l.736.784zm-3.136-6.032c-.64 0-1.189.23-1.648.688-.458.459-.741 1.045-.848 1.76h4.944c-.085-.704-.357-1.285-.816-1.744a2.172 2.172 0 0 0-1.632-.704zm7.886 7.072c-.832 0-1.515-.219-2.048-.656-.523-.448-.784-1.024-.784-1.728 0-.693.266-1.253.8-1.68.544-.427 1.253-.64 2.128-.64.448 0 .869.053 1.264.16a3.97 3.97 0 0 1 1.12.448v-1.072c0-.64-.171-1.12-.512-1.44-.342-.33-.843-.496-1.504-.496-.363 0-.736.053-1.12.16-.374.107-.79.277-1.248.512l-.432-.896a7.836 7.836 0 0 1 1.52-.56 5.51 5.51 0 0 1 1.424-.192c.96 0 1.701.24 2.224.72.533.47.8 1.147.8 2.032V22h-1.152v-.912c-.342.352-.72.619-1.136.8-.416.17-.864.256-1.344.256zm-1.712-2.416c0 .459.181.827.544 1.104.362.277.832.416 1.408.416.437 0 .837-.075 1.2-.224.373-.15.72-.373 1.04-.672v-1.504a3.828 3.828 0 0 0-1.024-.416 4.5 4.5 0 0 0-1.184-.144c-.598 0-1.078.133-1.44.4-.363.267-.544.613-.544 1.04zm8.411.512v-5.088h-1.616v-.96h1.616v-2.144L85 11.776v2.416h2.24v.96H85v4.784c0 .416.086.715.256.896.181.181.475.272.88.272.203 0 .384-.016.544-.048.16-.032.347-.085.56-.16v1.04a3.43 3.43 0 0 1-.672.16 5.09 5.09 0 0 1-.688.048c-.672 0-1.184-.16-1.536-.48-.341-.33-.512-.805-.512-1.424zm11.38.864a4.927 4.927 0 0 1-1.392.784 4.55 4.55 0 0 1-1.537.256 3.907 3.907 0 0 1-1.535-.304 4.015 4.015 0 0 1-1.233-.864 4.17 4.17 0 0 1-.816-1.28 4.435 4.435 0 0 1-.287-1.6c0-.565.09-1.093.272-1.584a3.86 3.86 0 0 1 .783-1.28c.331-.363.72-.645 1.169-.848.447-.213.933-.32 1.456-.32.512 0 .986.101 1.424.304a3.646 3.646 0 0 1 1.888 2.08c.18.48.271.997.271 1.552v.352h-6.128c.054.79.347 1.45.88 1.984a2.627 2.627 0 0 0 1.904.784c.406 0 .795-.07 1.169-.208.383-.15.709-.347.976-.592l.736.784zm-3.136-6.032c-.64 0-1.19.23-1.648.688-.46.459-.742 1.045-.849 1.76h4.944c-.085-.704-.357-1.285-.816-1.744a2.172 2.172 0 0 0-1.632-.704zm11.744 7.072c-.832 0-1.515-.219-2.048-.656-.523-.448-.784-1.024-.784-1.728 0-.693.267-1.253.8-1.68.544-.427 1.253-.64 2.128-.64.448 0 .869.053 1.264.16.405.096.779.245 1.12.448v-1.072c0-.64-.171-1.12-.512-1.44-.341-.33-.843-.496-1.504-.496-.363 0-.736.053-1.12.16a7.051 7.051 0 0 0-1.248.512l-.432-.896a7.827 7.827 0 0 1 1.52-.56c.48-.128.955-.192 1.424-.192.96 0 1.701.24 2.224.72.533.47.8 1.147.8 2.032V22h-1.152v-.912c-.341.352-.72.619-1.136.8-.416.17-.864.256-1.344.256zm-1.712-2.416c0 .459.181.827.544 1.104.363.277.832.416 1.408.416.437 0 .837-.075 1.2-.224a3.34 3.34 0 0 0 1.04-.672v-1.504a3.834 3.834 0 0 0-1.024-.416 4.503 4.503 0 0 0-1.184-.144c-.597 0-1.077.133-1.44.4s-.544.613-.544 1.04zm11.286 1.36c.427 0 .827-.08 1.2-.24.384-.16.709-.39.976-.688l.72.72a3.981 3.981 0 0 1-1.344.928 3.99 3.99 0 0 1-1.616.336c-.533 0-1.04-.101-1.52-.304a3.822 3.822 0 0 1-1.216-.864 4.182 4.182 0 0 1-.816-1.28 4.222 4.222 0 0 1-.304-1.6c0-.565.096-1.093.288-1.584.203-.49.475-.917.816-1.28a3.8 3.8 0 0 1 1.232-.848c.469-.213.976-.32 1.52-.32.576 0 1.125.107 1.648.32.523.213.976.512 1.36.896l-.752.816a2.953 2.953 0 0 0-1.008-.704 2.852 2.852 0 0 0-1.2-.272c-.384 0-.747.08-1.088.24-.331.15-.619.357-.864.624a3.324 3.324 0 0 0-.576.944 3.236 3.236 0 0 0-.208 1.168c0 .843.267 1.552.8 2.128.533.576 1.184.864 1.952.864zm7.906 0c.427 0 .827-.08 1.2-.24.384-.16.71-.39.976-.688l.72.72a3.981 3.981 0 0 1-1.344.928 3.986 3.986 0 0 1-1.616.336c-.533 0-1.04-.101-1.52-.304a3.833 3.833 0 0 1-1.216-.864 4.182 4.182 0 0 1-.816-1.28 4.241 4.241 0 0 1-.304-1.6c0-.565.096-1.093.288-1.584.203-.49.475-.917.816-1.28a3.8 3.8 0 0 1 1.232-.848c.47-.213.976-.32 1.52-.32.576 0 1.126.107 1.648.32.523.213.976.512 1.36.896l-.752.816a2.953 2.953 0 0 0-1.008-.704 2.845 2.845 0 0 0-1.2-.272c-.384 0-.746.08-1.088.24a2.65 2.65 0 0 0-.864.624 3.37 3.37 0 0 0-.576.944 3.257 3.257 0 0 0-.208 1.168c0 .843.267 1.552.8 2.128.534.576 1.184.864 1.952.864zm3.987-2.992c0-.576.096-1.11.288-1.6.192-.49.453-.917.784-1.28a3.611 3.611 0 0 1 1.216-.848c.469-.203.97-.304 1.504-.304a3.68 3.68 0 0 1 1.504.304c.469.203.874.485 1.216.848.341.363.608.79.8 1.28.192.49.287 1.024.287 1.6 0 .576-.101 1.115-.303 1.616a3.91 3.91 0 0 1-.8 1.296 3.766 3.766 0 0 1-1.2.848c-.47.203-.971.304-1.504.304a3.749 3.749 0 0 1-1.504-.304 3.868 3.868 0 0 1-1.2-.864 4.317 4.317 0 0 1-.8-1.28 4.48 4.48 0 0 1-.288-1.616zm3.792 3.024c.757 0 1.386-.283 1.888-.848.512-.576.768-1.296.768-2.16 0-.864-.256-1.584-.768-2.16-.502-.576-1.131-.864-1.888-.864-.758 0-1.387.288-1.888.864-.502.576-.752 1.296-.752 2.16 0 .864.25 1.584.752 2.16.501.565 1.13.848 1.888.848zm6.992-6.928v4.704c0 .693.187 1.243.56 1.648.374.405.88.608 1.52.608.427 0 .816-.101 1.168-.304.352-.203.646-.496.88-.88v-5.776h1.168V22h-1.168v-1.264c-.298.459-.656.805-1.072 1.04a2.814 2.814 0 0 1-1.408.352c-.832 0-1.514-.267-2.048-.8-.522-.544-.784-1.243-.784-2.096v-5.04h1.184zM143.763 22v-7.808h1.168v1.264c.298-.459.656-.805 1.072-1.04a2.814 2.814 0 0 1 1.408-.352c.832 0 1.509.267 2.032.8.533.533.8 1.227.8 2.08V22h-1.168v-4.72c0-.683-.192-1.227-.576-1.632-.374-.405-.88-.608-1.52-.608-.427 0-.816.101-1.168.304a2.442 2.442 0 0 0-.88.896V22h-1.168zm9.521-1.76v-5.088h-1.616v-.96h1.616v-2.144l1.168-.272v2.416h2.24v.96h-2.24v4.784c0 .416.086.715.256.896.182.181.475.272.88.272.203 0 .384-.016.544-.048.16-.032.347-.085.56-.16v1.04a3.419 3.419 0 0 1-.672.16 5.082 5.082 0 0 1-.688.048c-.672 0-1.184-.16-1.536-.48-.341-.33-.512-.805-.512-1.424z" fill="#000"/><g clip-path="url(#clip2_245_1240)"><path d="M16 189.996c-8.27 0-15-6.73-15-15s6.73-15 15-15 15 6.73 15 15-6.73 15-15 15z" stroke="#29D305" stroke-width="2"/></g><path d="M20.006 168.4v7.578h1.548v2.07h-1.548V181H17.54v-2.952h-7.11v-1.98l6.732-7.668h2.844zm-6.732 7.578h4.266v-4.842l-4.266 4.842z" fill="#262626"/><path d="M57.912 180.524c.88 0 1.704-.184 2.472-.552a6.23 6.23 0 0 0 2.04-1.584l2.28 2.256c-.8.944-1.824 1.696-3.072 2.256a9.127 9.127 0 0 1-3.816.84 9.356 9.356 0 0 1-3.552-.672 8.978 8.978 0 0 1-2.832-1.824 8.472 8.472 0 0 1-1.896-2.736 8.635 8.635 0 0 1-.672-3.408c0-1.216.232-2.352.696-3.408a8.405 8.405 0 0 1 1.896-2.76 8.978 8.978 0 0 1 2.832-1.824 9.292 9.292 0 0 1 3.528-.672c1.344 0 2.648.288 3.912.864 1.264.56 2.288 1.32 3.072 2.28l-2.352 2.328a5.99 5.99 0 0 0-2.088-1.68c-.8-.4-1.648-.6-2.544-.6-.752 0-1.464.144-2.136.432a5.016 5.016 0 0 0-1.704 1.152 5.136 5.136 0 0 0-1.128 1.728 5.585 5.585 0 0 0-.408 2.16c0 .768.136 1.488.408 2.16A5.521 5.521 0 0 0 54 178.964c.496.48 1.072.864 1.728 1.152.672.272 1.4.408 2.184.408zm7.566-3.264c0-.912.168-1.76.504-2.544.352-.8.824-1.488 1.416-2.064a6.666 6.666 0 0 1 2.136-1.392 6.803 6.803 0 0 1 2.616-.504c.928 0 1.8.168 2.616.504.816.336 1.52.8 2.112 1.392a6.015 6.015 0 0 1 1.416 2.064c.352.784.528 1.632.528 2.544 0 .912-.176 1.768-.528 2.568a6.073 6.073 0 0 1-1.416 2.04 6.589 6.589 0 0 1-2.112 1.368 6.803 6.803 0 0 1-2.616.504c-.928 0-1.8-.168-2.616-.504a6.882 6.882 0 0 1-2.136-1.368 6.568 6.568 0 0 1-1.416-2.04 6.564 6.564 0 0 1-.504-2.568zm6.672 3.624c.96 0 1.776-.352 2.448-1.056.672-.704 1.008-1.56 1.008-2.568 0-1.024-.336-1.888-1.008-2.592-.672-.704-1.488-1.056-2.448-1.056s-1.776.352-2.448 1.056c-.672.704-1.008 1.568-1.008 2.592 0 1.008.336 1.864 1.008 2.568.672.704 1.488 1.056 2.448 1.056zm8.693 2.616v-12.504h3.288v.984c.48-.4 1.008-.704 1.584-.912a5.753 5.753 0 0 1 1.92-.312c1.44 0 2.624.464 3.552 1.392.928.928 1.392 2.12 1.392 3.576v7.776H89.29v-7.296c0-.784-.24-1.416-.72-1.896-.464-.48-1.088-.72-1.872-.72a3.28 3.28 0 0 0-1.488.336 2.825 2.825 0 0 0-1.08.912v8.664h-3.288zm15.462-3.528v-6.216h-2.568v-2.76h2.568v-3.192l3.288-.744v3.936h3.552v2.76h-3.552v5.544c0 .592.128 1.008.384 1.248s.704.36 1.344.36c.304 0 .592-.016.864-.048a5.72 5.72 0 0 0 .888-.24v2.688c-.352.112-.776.2-1.272.264-.496.08-.92.12-1.272.12-1.392 0-2.448-.312-3.168-.936-.704-.64-1.056-1.568-1.056-2.784zm12.428 3.744c-1.344 0-2.44-.352-3.288-1.056-.848-.72-1.272-1.648-1.272-2.784 0-1.184.456-2.112 1.368-2.784.912-.672 2.168-1.008 3.768-1.008a9.935 9.935 0 0 1 3.048.48v-.888c0-.72-.224-1.264-.672-1.632-.448-.368-1.104-.552-1.968-.552a6.4 6.4 0 0 0-1.728.264c-.608.16-1.304.416-2.088.768l-1.2-2.424c.976-.448 1.92-.784 2.832-1.008.928-.224 1.84-.336 2.736-.336 1.68 0 2.984.408 3.912 1.224.944.8 1.416 1.936 1.416 3.408v8.112h-3.24v-.864a5.831 5.831 0 0 1-1.68.816c-.576.176-1.224.264-1.944.264zm-1.416-3.912c0 .48.208.864.624 1.152.416.272.968.408 1.656.408.544 0 1.04-.064 1.488-.192a4.893 4.893 0 0 0 1.272-.6V178.7a5.51 5.51 0 0 0-1.272-.336 7.505 7.505 0 0 0-1.368-.12c-.752 0-1.344.144-1.776.432-.416.272-.624.648-.624 1.128zm16.888 1.056c.56 0 1.08-.112 1.56-.336.496-.224.968-.576 1.416-1.056l1.968 2.04a6.846 6.846 0 0 1-2.304 1.656 6.999 6.999 0 0 1-2.784.576 6.657 6.657 0 0 1-4.68-1.872 6.439 6.439 0 0 1-1.368-2.04 6.564 6.564 0 0 1-.504-2.568c0-.912.168-1.76.504-2.544.336-.8.792-1.488 1.368-2.064a6.453 6.453 0 0 1 2.088-1.392 6.74 6.74 0 0 1 2.592-.504c.992 0 1.944.2 2.856.6a6.521 6.521 0 0 1 2.328 1.632l-2.016 2.136c-.448-.496-.928-.872-1.44-1.128a3.651 3.651 0 0 0-1.656-.384c-.944 0-1.744.352-2.4 1.056-.64.704-.96 1.568-.96 2.592s.328 1.88.984 2.568a3.294 3.294 0 0 0 2.448 1.032zm8.592-.888v-6.216h-2.568v-2.76h2.568v-3.192l3.288-.744v3.936h3.552v2.76h-3.552v5.544c0 .592.128 1.008.384 1.248s.704.36 1.344.36c.304 0 .592-.016.864-.048a5.72 5.72 0 0 0 .888-.24v2.688c-.352.112-.776.2-1.272.264-.496.08-.92.12-1.272.12-1.392 0-2.448-.312-3.168-.936-.704-.64-1.056-1.568-1.056-2.784z" fill="#000"/><g clip-path="url(#clip3_245_1240)"><path d="M16 135.996c-8.823 0-16-7.177-16-16s7.177-16 16-16 16 7.177 16 16-7.177 16-16 16z" fill="#262626"/><path fill-rule="evenodd" clip-rule="evenodd" d="M8.626 119.074a1 1 0 0 1 1.414 0l4.007 4.003 8.721-8.711a1 1 0 0 1 1.415 0 .997.997 0 0 1 0 1.412l-9.428 9.418a1 1 0 0 1-1.415 0l-4.714-4.709a.999.999 0 0 1 0-1.413z" fill="#fff"/></g><path d="M49.424 126v-11.2h4.624c1.077 0 1.941.304 2.592.912.65.608.976 1.408.976 2.4s-.325 1.792-.976 2.4c-.65.608-1.515.912-2.592.912h-3.392V126h-1.232zm4.48-10.112h-3.248v4.48h3.248c.768 0 1.37-.203 1.808-.608.448-.405.672-.955.672-1.648 0-.683-.224-1.221-.672-1.616-.437-.405-1.04-.608-1.808-.608zm7.806 10.256c-.832 0-1.515-.219-2.048-.656-.523-.448-.784-1.024-.784-1.728 0-.693.266-1.253.8-1.68.544-.427 1.253-.64 2.128-.64.448 0 .87.053 1.264.16.405.096.778.245 1.12.448v-1.072c0-.64-.17-1.12-.512-1.44-.342-.331-.843-.496-1.504-.496-.363 0-.736.053-1.12.16-.374.107-.79.277-1.248.512l-.432-.896a7.814 7.814 0 0 1 1.52-.56c.48-.128.954-.192 1.424-.192.96 0 1.701.24 2.224.72.533.469.8 1.147.8 2.032V126H64.19v-.912c-.342.352-.72.619-1.136.8a3.5 3.5 0 0 1-1.344.256zm-1.712-2.416c0 .459.181.827.544 1.104.362.277.832.416 1.408.416a3.13 3.13 0 0 0 1.2-.224c.373-.149.72-.373 1.04-.672v-1.504a3.82 3.82 0 0 0-1.024-.416 4.501 4.501 0 0 0-1.184-.144c-.598 0-1.078.133-1.44.4-.363.267-.544.613-.544 1.04zm9.097 3.52l.512-1.264-3.008-7.792h1.296l2.368 6.416 2.512-6.416h1.296L70.2 127.6c-.245.629-.538 1.072-.88 1.328-.33.267-.784.4-1.36.4-.106 0-.224-.011-.352-.032a1.897 1.897 0 0 1-.4-.08v-1.04c.16.032.283.048.368.048.096.011.187.016.272.016.299 0 .544-.08.736-.24.203-.149.374-.4.512-.752zM75.528 126v-7.808h1.168v1.216c.299-.448.64-.784 1.024-1.008a2.524 2.524 0 0 1 1.296-.336c.544 0 1.024.139 1.44.416.427.277.747.645.96 1.104.299-.501.667-.88 1.104-1.136.438-.256.939-.384 1.504-.384.779 0 1.413.272 1.904.816.502.533.752 1.227.752 2.08V126h-1.168v-4.752c0-.672-.176-1.205-.528-1.6-.341-.405-.805-.608-1.392-.608-.405 0-.773.101-1.104.304-.33.203-.613.512-.848.928a3.874 3.874 0 0 1 .064.688V126h-1.168v-4.752c0-.672-.176-1.205-.528-1.6-.352-.405-.821-.608-1.408-.608-.394 0-.752.096-1.072.288-.32.192-.597.48-.832.864V126h-1.168zm19.964-.896a4.935 4.935 0 0 1-1.392.784c-.48.171-.992.256-1.536.256a3.902 3.902 0 0 1-1.536-.304 4.004 4.004 0 0 1-1.232-.864 4.167 4.167 0 0 1-.816-1.28 4.435 4.435 0 0 1-.288-1.6c0-.565.09-1.093.272-1.584.192-.501.453-.928.784-1.28.33-.363.72-.645 1.168-.848.448-.213.933-.32 1.456-.32.512 0 .986.101 1.424.304a3.642 3.642 0 0 1 1.888 2.08c.181.48.272.997.272 1.552v.352h-6.128c.053.789.346 1.451.88 1.984a2.625 2.625 0 0 0 1.904.784 3.32 3.32 0 0 0 1.168-.208c.384-.149.71-.347.976-.592l.736.784zm-3.136-6.032c-.64 0-1.19.229-1.648.688-.459.459-.742 1.045-.848 1.76h4.944c-.086-.704-.358-1.285-.816-1.744a2.173 2.173 0 0 0-1.632-.704zM97.95 126v-7.808h1.168v1.264c.299-.459.656-.805 1.072-1.04a2.811 2.811 0 0 1 1.408-.352c.832 0 1.509.267 2.032.8.533.533.8 1.227.8 2.08V126h-1.168v-4.72c0-.683-.192-1.227-.576-1.632-.373-.405-.88-.608-1.52-.608-.427 0-.816.101-1.168.304a2.448 2.448 0 0 0-.88.896V126H97.95zm9.522-1.76v-5.088h-1.616v-.96h1.616v-2.144l1.168-.272v2.416h2.24v.96h-2.24v4.784c0 .416.085.715.256.896.181.181.474.272.88.272.202 0 .384-.016.544-.048.16-.032.346-.085.56-.16v1.04a3.432 3.432 0 0 1-.672.16 5.094 5.094 0 0 1-.688.048c-.672 0-1.184-.16-1.536-.48-.342-.331-.512-.805-.512-1.424zM49.344 240v-11.2h8.016v1.632h-6.096v3.12h4.256v1.6h-4.256v3.216h6.16V240h-8.08zm10.026 0v-8.016h1.808v1.28c.299-.459.645-.805 1.04-1.04a2.549 2.549 0 0 1 1.344-.368c.533 0 1.008.144 1.424.432.416.277.725.651.928 1.12.299-.512.672-.896 1.12-1.152.459-.267.97-.4 1.536-.4.768 0 1.397.272 1.888.816.49.544.736 1.243.736 2.096V240h-1.808v-4.848c0-.555-.15-.997-.448-1.328-.288-.341-.677-.512-1.168-.512-.33 0-.63.08-.896.24a2.37 2.37 0 0 0-.72.704c.01.085.016.171.016.256.01.085.016.171.016.256V240h-1.808v-4.848c0-.555-.15-.997-.448-1.328-.288-.341-.677-.512-1.168-.512-.32 0-.613.08-.88.24a2.092 2.092 0 0 0-.704.672V240H59.37zm16.448.128c-.832 0-1.515-.224-2.048-.672-.523-.459-.784-1.045-.784-1.76 0-.715.272-1.285.816-1.712.554-.427 1.301-.64 2.24-.64.373 0 .736.043 1.088.128.352.075.709.197 1.072.368v-.88c0-.523-.155-.917-.464-1.184-.31-.277-.768-.416-1.376-.416-.331 0-.688.053-1.072.16a7.175 7.175 0 0 0-1.264.464l-.64-1.312a8.986 8.986 0 0 1 1.712-.608 6.507 6.507 0 0 1 1.616-.208c1.034 0 1.84.256 2.416.768.576.501.864 1.216.864 2.144V240h-1.792v-.816a3.612 3.612 0 0 1-1.12.72 3.466 3.466 0 0 1-1.264.224zm-1.136-2.464c0 .363.149.656.448.88.298.213.693.32 1.184.32.362 0 .698-.053 1.008-.16.32-.107.613-.272.88-.496v-1.312a3.375 3.375 0 0 0-.88-.288 4.659 4.659 0 0 0-.976-.096c-.512 0-.918.107-1.216.32a.955.955 0 0 0-.448.832zm8.397-7.312c-.31 0-.576-.107-.8-.32a1.066 1.066 0 0 1-.32-.784c0-.299.111-.56.335-.784.225-.224.486-.336.785-.336.309 0 .576.112.8.336.224.224.335.485.335.784 0 .309-.111.571-.335.784-.214.213-.48.32-.8.32zm.912 1.632V240h-1.808v-8.016h1.807zm4.03-3.728V240h-1.807v-11.44l1.808-.304z" fill="#000"/><rect x="48.5" y="250.5" width="304" height="47" rx="3.5" fill="#fff" stroke="#000"/><path d="M65.2 280v-7.808h1.168v1.264c.299-.459.656-.805 1.072-1.04a2.812 2.812 0 0 1 1.408-.352c.832 0 1.51.267 2.032.8.533.533.8 1.227.8 2.08V280h-1.168v-4.72c0-.683-.192-1.227-.576-1.632-.373-.405-.88-.608-1.52-.608-.427 0-.816.101-1.168.304a2.448 2.448 0 0 0-.88.896V280H65.2zm11.244.144c-.832 0-1.514-.219-2.048-.656-.522-.448-.784-1.024-.784-1.728 0-.693.267-1.253.8-1.68.544-.427 1.253-.64 2.128-.64.448 0 .87.053 1.264.16.406.096.779.245 1.12.448v-1.072c0-.64-.17-1.12-.512-1.44-.341-.331-.843-.496-1.504-.496-.362 0-.736.053-1.12.16-.373.107-.79.277-1.248.512l-.432-.896a7.817 7.817 0 0 1 1.52-.56 5.51 5.51 0 0 1 1.424-.192c.96 0 1.701.24 2.224.72.534.469.8 1.147.8 2.032V280h-1.152v-.912c-.341.352-.72.619-1.136.8a3.5 3.5 0 0 1-1.344.256zm-1.712-2.416c0 .459.181.827.544 1.104.363.277.832.416 1.408.416.438 0 .838-.075 1.2-.224.373-.149.72-.373 1.04-.672v-1.504a3.818 3.818 0 0 0-1.024-.416 4.5 4.5 0 0 0-1.184-.144c-.597 0-1.077.133-1.44.4-.362.267-.544.613-.544 1.04zM84.346 280l-3.2-7.808h1.264l2.528 6.352 2.496-6.352h1.248L85.466 280h-1.12zm5.776 0v-7.808h1.168v1.264c.298-.459.656-.805 1.072-1.04a2.812 2.812 0 0 1 1.408-.352c.832 0 1.51.267 2.032.8.533.533.8 1.227.8 2.08V280h-1.168v-4.72c0-.683-.192-1.227-.576-1.632-.374-.405-.88-.608-1.52-.608-.427 0-.816.101-1.168.304a2.447 2.447 0 0 0-.88.896V280h-1.168zm9.388-1.616a.76.76 0 0 1 .576.256.83.83 0 0 1 .256.608.849.849 0 0 1-.256.624.76.76 0 0 1-.576.256.83.83 0 0 1-.608-.256.88.88 0 0 1-.24-.624c0-.235.08-.437.24-.608a.83.83 0 0 1 .608-.256zm2.956 1.616v-7.808h1.168v1.264c.298-.459.656-.805 1.072-1.04a2.811 2.811 0 0 1 1.408-.352c.832 0 1.509.267 2.032.8.533.533.8 1.227.8 2.08V280h-1.168v-4.72c0-.683-.192-1.227-.576-1.632-.374-.405-.88-.608-1.52-.608-.427 0-.816.101-1.168.304a2.442 2.442 0 0 0-.88.896V280h-1.168zm11.244.144c-.832 0-1.515-.219-2.048-.656-.523-.448-.784-1.024-.784-1.728 0-.693.266-1.253.8-1.68.544-.427 1.253-.64 2.128-.64.448 0 .869.053 1.264.16.405.096.778.245 1.12.448v-1.072c0-.64-.171-1.12-.512-1.44-.342-.331-.843-.496-1.504-.496-.363 0-.736.053-1.12.16a6.99 6.99 0 0 0-1.248.512l-.432-.896a7.807 7.807 0 0 1 1.52-.56c.48-.128.954-.192 1.424-.192.96 0 1.701.24 2.224.72.533.469.8 1.147.8 2.032V280h-1.152v-.912a3.56 3.56 0 0 1-1.136.8 3.5 3.5 0 0 1-1.344.256zm-1.712-2.416c0 .459.181.827.544 1.104.362.277.832.416 1.408.416.437 0 .837-.075 1.2-.224a3.33 3.33 0 0 0 1.04-.672v-1.504a3.824 3.824 0 0 0-1.024-.416 4.503 4.503 0 0 0-1.184-.144c-.598 0-1.078.133-1.44.4-.363.267-.544.613-.544 1.04zm9.614 2.272l-3.2-7.808h1.264l2.528 6.352 2.496-6.352h1.248L122.732 280h-1.12zm5.776 0v-7.808h1.168v1.264c.298-.459.656-.805 1.072-1.04a2.811 2.811 0 0 1 1.408-.352c.832 0 1.509.267 2.032.8.533.533.8 1.227.8 2.08V280H132.7v-4.72c0-.683-.192-1.227-.576-1.632-.374-.405-.88-.608-1.52-.608-.427 0-.816.101-1.168.304a2.442 2.442 0 0 0-.88.896V280h-1.168zm15.276-.896a4.935 4.935 0 0 1-1.392.784c-.48.171-.992.256-1.536.256a3.902 3.902 0 0 1-1.536-.304 3.996 3.996 0 0 1-1.232-.864 4.144 4.144 0 0 1-.816-1.28 4.435 4.435 0 0 1-.288-1.6c0-.565.09-1.093.272-1.584.192-.501.453-.928.784-1.28a3.53 3.53 0 0 1 1.168-.848c.448-.213.933-.32 1.456-.32.512 0 .986.101 1.424.304a3.651 3.651 0 0 1 1.888 2.08c.181.48.272.997.272 1.552v.352H137c.053.789.346 1.451.88 1.984a2.625 2.625 0 0 0 1.904.784c.405 0 .794-.069 1.168-.208.384-.149.709-.347.976-.592l.736.784zm-3.136-6.032c-.64 0-1.19.229-1.648.688-.459.459-.742 1.045-.848 1.76h4.944c-.086-.704-.358-1.285-.816-1.744a2.173 2.173 0 0 0-1.632-.704zm4.92 5.92l.624-.768c.459.341.885.592 1.28.752.405.149.816.224 1.232.224.565 0 1.035-.133 1.408-.4s.56-.603.56-1.008c0-.32-.112-.571-.336-.752-.224-.181-.581-.32-1.072-.416l-1.28-.224c-.757-.139-1.317-.373-1.68-.704-.352-.331-.528-.779-.528-1.344 0-.672.261-1.221.784-1.648.533-.427 1.211-.64 2.032-.64.533 0 1.04.08 1.52.24.48.16.965.405 1.456.736l-.576.816a4.394 4.394 0 0 0-1.216-.624 3.772 3.772 0 0 0-1.232-.208c-.512 0-.923.112-1.232.336a1.068 1.068 0 0 0-.464.912c0 .32.096.565.288.736.203.171.555.299 1.056.384l1.312.24c.779.139 1.349.379 1.712.72.373.341.56.8.56 1.376 0 .672-.293 1.243-.88 1.712-.576.469-1.296.704-2.16.704-.64 0-1.232-.096-1.776-.288a3.951 3.951 0 0 1-1.392-.864zm14.513.112a4.935 4.935 0 0 1-1.392.784c-.48.171-.992.256-1.536.256a3.902 3.902 0 0 1-1.536-.304 3.996 3.996 0 0 1-1.232-.864 4.144 4.144 0 0 1-.816-1.28 4.435 4.435 0 0 1-.288-1.6c0-.565.09-1.093.272-1.584.192-.501.453-.928.784-1.28a3.53 3.53 0 0 1 1.168-.848c.448-.213.933-.32 1.456-.32.512 0 .986.101 1.424.304a3.651 3.651 0 0 1 1.888 2.08c.181.48.272.997.272 1.552v.352h-6.128c.053.789.346 1.451.88 1.984a2.625 2.625 0 0 0 1.904.784c.405 0 .794-.069 1.168-.208.384-.149.709-.347.976-.592l.736.784zm-3.136-6.032c-.64 0-1.19.229-1.648.688-.459.459-.742 1.045-.848 1.76h4.944c-.086-.704-.358-1.285-.816-1.744a2.173 2.173 0 0 0-1.632-.704zm5.594 6.928v-7.808h1.168v1.264c.298-.459.656-.805 1.072-1.04a2.811 2.811 0 0 1 1.408-.352c.832 0 1.509.267 2.032.8.533.533.8 1.227.8 2.08V280h-1.168v-4.72c0-.683-.192-1.227-.576-1.632-.374-.405-.88-.608-1.52-.608-.427 0-.816.101-1.168.304a2.442 2.442 0 0 0-.88.896V280h-1.168zm13.276-.816a2.058 2.058 0 0 1-1.568-.688c-.416-.469-.624-1.045-.624-1.728 0-.395.069-.763.208-1.104.139-.341.325-.64.56-.896a2.68 2.68 0 0 1 .816-.608 2.36 2.36 0 0 1 1.008-.224c.299 0 .576.053.832.16.267.107.496.256.688.448l.08-.4h.88l-.592 3.072c-.075.384-.037.683.112.896.149.203.395.304.736.304.523 0 .96-.256 1.312-.768.363-.523.544-1.163.544-1.92 0-.608-.112-1.168-.336-1.68a4.1 4.1 0 0 0-.912-1.344 4.007 4.007 0 0 0-1.392-.896 4.614 4.614 0 0 0-1.728-.32c-.651 0-1.259.133-1.824.4a4.543 4.543 0 0 0-1.472 1.104 5.406 5.406 0 0 0-.976 1.632 5.762 5.762 0 0 0-.352 2.032c0 .704.117 1.36.352 1.968.245.608.576 1.131.992 1.568.427.437.928.779 1.504 1.024a4.935 4.935 0 0 0 1.92.368c.459 0 .907-.059 1.344-.176a4.96 4.96 0 0 0 1.232-.48l.272.656a5.465 5.465 0 0 1-1.376.528 5.997 5.997 0 0 1-1.52.192 5.464 5.464 0 0 1-2.176-.432 5.173 5.173 0 0 1-1.744-1.168 5.555 5.555 0 0 1-1.136-1.776 5.98 5.98 0 0 1-.416-2.24c0-.843.139-1.621.416-2.336a5.791 5.791 0 0 1 1.136-1.872 5.115 5.115 0 0 1 3.856-1.696c.715 0 1.381.128 2 .384a4.756 4.756 0 0 1 1.616 1.024c.448.437.8.96 1.056 1.568.267.597.4 1.243.4 1.936 0 .491-.069.949-.208 1.376a3.737 3.737 0 0 1-.56 1.088 2.564 2.564 0 0 1-.848.704 2.3 2.3 0 0 1-1.072.256c-.331 0-.619-.059-.864-.176a1.307 1.307 0 0 1-.56-.48 2.79 2.79 0 0 1-.8.544 2.088 2.088 0 0 1-.816.176zm-1.328-2.48c0 .512.139.928.416 1.248.288.32.656.48 1.104.48.224 0 .437-.048.64-.144.213-.096.405-.235.576-.416a3.291 3.291 0 0 1-.016-.336c.011-.128.027-.261.048-.4l.32-1.696a1.418 1.418 0 0 0-.576-.544 1.703 1.703 0 0 0-.8-.192c-.469 0-.875.197-1.216.592a2.121 2.121 0 0 0-.496 1.408zm15.594 2.4a4.935 4.935 0 0 1-1.392.784c-.48.171-.992.256-1.536.256a3.902 3.902 0 0 1-1.536-.304 3.996 3.996 0 0 1-1.232-.864 4.144 4.144 0 0 1-.816-1.28 4.435 4.435 0 0 1-.288-1.6c0-.565.09-1.093.272-1.584.192-.501.453-.928.784-1.28a3.53 3.53 0 0 1 1.168-.848c.448-.213.933-.32 1.456-.32.512 0 .986.101 1.424.304a3.651 3.651 0 0 1 1.888 2.08c.181.48.272.997.272 1.552v.352h-6.128c.053.789.346 1.451.88 1.984a2.625 2.625 0 0 0 1.904.784c.405 0 .794-.069 1.168-.208.384-.149.709-.347.976-.592l.736.784zm-3.136-6.032c-.64 0-1.19.229-1.648.688-.459.459-.742 1.045-.848 1.76h4.944c-.086-.704-.358-1.285-.816-1.744a2.173 2.173 0 0 0-1.632-.704zm6.762-4.752V280h-1.168v-11.44l1.168-.24zm4.634 11.68l-3.2-7.808h1.264l2.528 6.352 2.496-6.352h1.248L198.341 280h-1.12zm6.368-9.728a.859.859 0 0 1-.608-.24.859.859 0 0 1-.24-.608c0-.224.08-.416.24-.576a.83.83 0 0 1 .608-.256.76.76 0 0 1 .576.256.76.76 0 0 1 .256.576c0 .235-.08.437-.24.608a.804.804 0 0 1-.592.24zm.576 1.92V280h-1.168v-7.808h1.168zm4.81 7.952c-.832 0-1.514-.219-2.048-.656-.522-.448-.784-1.024-.784-1.728 0-.693.267-1.253.8-1.68.544-.427 1.254-.64 2.128-.64.448 0 .87.053 1.264.16a3.95 3.95 0 0 1 1.12.448v-1.072c0-.64-.17-1.12-.512-1.44-.341-.331-.842-.496-1.504-.496-.362 0-.736.053-1.12.16a7.051 7.051 0 0 0-1.248.512l-.432-.896a7.83 7.83 0 0 1 1.52-.56c.48-.128.955-.192 1.424-.192.96 0 1.702.24 2.224.72.534.469.8 1.147.8 2.032V280h-1.152v-.912a3.55 3.55 0 0 1-1.136.8 3.5 3.5 0 0 1-1.344.256zm-1.712-2.416c0 .459.182.827.544 1.104.363.277.832.416 1.408.416.438 0 .838-.075 1.2-.224.374-.149.72-.373 1.04-.672v-1.504a3.81 3.81 0 0 0-1.024-.416 4.497 4.497 0 0 0-1.184-.144c-.597 0-1.077.133-1.44.4-.362.267-.544.613-.544 1.04zm8.278.656a.76.76 0 0 1 .576.256.83.83 0 0 1 .256.608.849.849 0 0 1-.256.624.76.76 0 0 1-.576.256.83.83 0 0 1-.608-.256.88.88 0 0 1-.24-.624c0-.235.08-.437.24-.608a.83.83 0 0 1 .608-.256zm2.956 1.616v-7.808h1.168v1.264c.299-.459.656-.805 1.072-1.04a2.811 2.811 0 0 1 1.408-.352c.832 0 1.509.267 2.032.8.533.533.8 1.227.8 2.08V280h-1.168v-4.72c0-.683-.192-1.227-.576-1.632-.373-.405-.88-.608-1.52-.608-.427 0-.816.101-1.168.304a2.45 2.45 0 0 0-.88.896V280h-1.168zm8.476-3.904c0-.576.096-1.109.288-1.6.192-.491.453-.917.784-1.28a3.621 3.621 0 0 1 1.216-.848 3.747 3.747 0 0 1 1.504-.304c.544 0 1.045.101 1.504.304.469.203.875.485 1.216.848.341.363.608.789.8 1.28.192.491.288 1.024.288 1.6 0 .576-.101 1.115-.304 1.616a3.916 3.916 0 0 1-.8 1.296 3.761 3.761 0 0 1-1.2.848 3.747 3.747 0 0 1-1.504.304 3.747 3.747 0 0 1-1.504-.304 3.858 3.858 0 0 1-1.2-.864 4.337 4.337 0 0 1-.8-1.28 4.479 4.479 0 0 1-.288-1.616zm3.792 3.024c.757 0 1.387-.283 1.888-.848.512-.576.768-1.296.768-2.16 0-.864-.256-1.584-.768-2.16-.501-.576-1.131-.864-1.888-.864-.757 0-1.387.288-1.888.864-.501.576-.752 1.296-.752 2.16 0 .864.251 1.584.752 2.16a2.418 2.418 0 0 0 1.888.848zM48.4 321.464V319.8h9.408v1.664H54.08V331h-1.92v-9.536H48.4zm16.132 8.512c-.491.405-.992.704-1.504.896a4.665 4.665 0 0 1-1.68.288 4.05 4.05 0 0 1-2.896-1.2 4.202 4.202 0 0 1-.864-1.328 4.201 4.201 0 0 1-.32-1.632c0-.587.096-1.131.288-1.632.202-.512.474-.949.816-1.312a3.839 3.839 0 0 1 1.248-.88c.48-.213.997-.32 1.552-.32.544 0 1.045.107 1.504.32.469.203.869.485 1.2.848.341.363.608.8.8 1.312.192.501.288 1.051.288 1.648v.448h-5.92c.085.629.352 1.152.8 1.568.458.416.992.624 1.6.624.373 0 .725-.064 1.056-.192.341-.139.624-.325.848-.56l1.184 1.104zm-3.376-5.648c-.534 0-.987.181-1.36.544-.374.363-.614.848-.72 1.456h4.176c-.107-.587-.352-1.067-.736-1.44a1.853 1.853 0 0 0-1.36-.56zm7.46-5.072V331h-1.808v-11.44l1.807-.304zm9.119 10.72c-.49.405-.992.704-1.504.896a4.666 4.666 0 0 1-1.68.288 4.049 4.049 0 0 1-2.896-1.2 4.199 4.199 0 0 1-.864-1.328 4.2 4.2 0 0 1-.32-1.632c0-.587.096-1.131.288-1.632.202-.512.474-.949.816-1.312a3.839 3.839 0 0 1 1.248-.88c.48-.213.997-.32 1.552-.32.544 0 1.045.107 1.504.32.47.203.87.485 1.2.848.341.363.608.8.8 1.312.192.501.288 1.051.288 1.648v.448h-5.92c.085.629.352 1.152.8 1.568.458.416.992.624 1.6.624a2.9 2.9 0 0 0 1.056-.192c.341-.139.624-.325.848-.56l1.184 1.104zm-3.376-5.648c-.534 0-.987.181-1.36.544-.374.363-.614.848-.72 1.456h4.176c-.107-.587-.352-1.067-.736-1.44a1.853 1.853 0 0 0-1.36-.56zm5.652 10.064v-11.408h1.776v1.152a2.86 2.86 0 0 1 1.056-.896c.437-.213.917-.32 1.44-.32.501 0 .976.107 1.424.32.448.213.832.507 1.152.88.33.363.586.795.768 1.296a4.31 4.31 0 0 1 .288 1.584c0 .565-.096 1.099-.288 1.6a3.91 3.91 0 0 1-.8 1.296 3.865 3.865 0 0 1-1.2.864c-.459.213-.95.32-1.472.32-.47 0-.907-.091-1.312-.272a3.003 3.003 0 0 1-1.024-.768v4.352H80.01zm3.728-9.952c-.395 0-.758.075-1.088.224a2.27 2.27 0 0 0-.832.672v3.344c.234.277.517.496.848.656.33.149.688.224 1.072.224.682 0 1.248-.24 1.696-.72.458-.491.688-1.104.688-1.84 0-.725-.23-1.333-.688-1.824a2.229 2.229 0 0 0-1.696-.736zm6.053 6.56v-11.44l1.808-.304v5.04c.299-.469.661-.827 1.088-1.072a2.928 2.928 0 0 1 1.456-.368c.81 0 1.472.272 1.984.816.522.533.784 1.216.784 2.048V331h-1.808v-4.768c0-.576-.16-1.04-.48-1.392-.32-.352-.747-.528-1.28-.528a1.96 1.96 0 0 0-.992.256 2.24 2.24 0 0 0-.752.704V331h-1.808zm8.944-4c0-.587.102-1.131.304-1.632.214-.512.496-.949.848-1.312.363-.373.79-.667 1.28-.88a4.053 4.053 0 0 1 1.6-.32 3.972 3.972 0 0 1 2.88 1.2c.363.363.646.8.848 1.312.203.501.304 1.045.304 1.632s-.106 1.136-.32 1.648a3.97 3.97 0 0 1-.848 1.328 3.855 3.855 0 0 1-1.28.864 3.93 3.93 0 0 1-1.584.32 4.053 4.053 0 0 1-1.6-.32 3.978 3.978 0 0 1-1.28-.88 4.408 4.408 0 0 1-.848-1.312 4.435 4.435 0 0 1-.304-1.648zm4.032 2.592c.651 0 1.184-.245 1.6-.736.427-.491.64-1.104.64-1.84 0-.757-.213-1.381-.64-1.872a2.031 2.031 0 0 0-1.6-.736 2.05 2.05 0 0 0-1.616.736c-.416.491-.624 1.115-.624 1.872 0 .747.208 1.365.624 1.856.427.48.966.72 1.616.72zm5.899 1.408v-8.016h1.808v1.312c.299-.469.661-.827 1.088-1.072a2.928 2.928 0 0 1 1.456-.368c.811 0 1.472.272 1.984.816.523.533.784 1.216.784 2.048V331h-1.808v-4.768c0-.576-.16-1.04-.48-1.392-.32-.352-.747-.528-1.28-.528a1.96 1.96 0 0 0-.992.256c-.288.16-.539.395-.752.704V331h-1.808zm16.208-1.024c-.49.405-.992.704-1.504.896a4.663 4.663 0 0 1-1.68.288 4.053 4.053 0 0 1-1.6-.32 3.936 3.936 0 0 1-1.296-.88 4.223 4.223 0 0 1-.864-1.328 4.206 4.206 0 0 1-.32-1.632c0-.587.096-1.131.288-1.632.203-.512.475-.949.816-1.312a3.839 3.839 0 0 1 1.248-.88c.48-.213.998-.32 1.552-.32.544 0 1.046.107 1.504.32.47.203.87.485 1.2.848.342.363.608.8.8 1.312.192.501.288 1.051.288 1.648v.448h-5.92c.086.629.352 1.152.8 1.568.459.416.992.624 1.6.624.374 0 .726-.064 1.056-.192.342-.139.624-.325.848-.56l1.184 1.104zm-3.376-5.648a1.88 1.88 0 0 0-1.36.544c-.373.363-.613.848-.72 1.456h4.176c-.106-.587-.352-1.067-.736-1.44a1.851 1.851 0 0 0-1.36-.56z" fill="#000"/><rect x="118.5" y="341.5" width="234" height="47" rx="3.5" fill="#fff" stroke="#000"/><rect x="48.5" y="341.5" width="61" height="47" rx="3.5" fill="#fff" stroke="#000"/><path d="M68.72 368.68h-.96v-2.912h-2.688v-.992h2.688v-2.848h.96v2.848h2.672v.992H68.72v2.912zm11.572-8.88v7.2h1.552v1.008h-1.552V371h-1.136v-2.992h-6.048v-.912l5.952-7.296h1.232zm-5.84 7.2h4.704v-5.808L74.452 367zm9.118 4l5.568-10.176H82.4V359.8h7.984v.896L84.881 371H83.57zm52.03-11.2V371h-1.152v-9.952l-1.792.8v-1.056l2.224-.992h.72zm2.106 11.2v-.848l4.48-4.896c.523-.576.88-1.051 1.072-1.424.192-.373.288-.773.288-1.2 0-.555-.224-1.019-.672-1.392-.448-.373-1.008-.56-1.68-.56-.522 0-1.013.107-1.472.32-.448.203-.944.549-1.488 1.04l-.672-.8c.576-.533 1.163-.928 1.76-1.184a4.65 4.65 0 0 1 1.888-.4c1.003 0 1.83.277 2.48.832.662.544.992 1.237.992 2.08 0 .277-.026.533-.08.768a3.26 3.26 0 0 1-.272.736 5.411 5.411 0 0 1-.528.8c-.213.288-.49.619-.832.992l-3.824 4.144 5.776-.016V371h-7.216zm16.382-3.072c0 .469-.101.901-.304 1.296a3.015 3.015 0 0 1-.816 1.024 3.699 3.699 0 0 1-1.232.672c-.48.16-1.003.24-1.568.24a5.796 5.796 0 0 1-2.16-.4 5.13 5.13 0 0 1-1.76-1.184l.768-.752c.469.469.949.811 1.44 1.024.501.203 1.067.304 1.696.304.811 0 1.477-.208 2-.624.523-.427.784-.971.784-1.632 0-.608-.229-1.115-.688-1.52-.448-.405-1.024-.608-1.728-.608h-1.328v-.992h1.28c.608 0 1.099-.187 1.472-.56.384-.373.576-.859.576-1.456 0-.587-.235-1.083-.704-1.488-.469-.416-1.045-.624-1.728-.624-.576 0-1.093.107-1.552.32-.448.203-.907.549-1.376 1.04l-.768-.768a5.287 5.287 0 0 1 1.696-1.2 5.023 5.023 0 0 1 2.016-.416c.512 0 .987.08 1.424.24.437.149.811.363 1.12.64.32.267.571.592.752.976.181.373.272.779.272 1.216 0 .587-.192 1.115-.576 1.584-.384.459-.891.779-1.52.96.747.16 1.349.491 1.808.992.469.491.704 1.056.704 1.696zm8.767-8.128v7.2h1.552v1.008h-1.552V371h-1.136v-2.992h-6.048v-.912l5.952-7.296h1.232zm-5.84 7.2h4.704v-5.808L157.015 367zm8.808-1.6l.256-5.6h6.368v1.008h-5.376l-.176 3.872a6.375 6.375 0 0 1 1.232-.448c.394-.096.81-.144 1.248-.144 1.088 0 1.968.315 2.64.944.682.619 1.024 1.424 1.024 2.416 0 1.099-.363 1.995-1.088 2.688-.726.683-1.67 1.024-2.832 1.024a5.506 5.506 0 0 1-2.064-.384 5.404 5.404 0 0 1-1.744-1.136l.72-.784c.49.459.976.795 1.456 1.008.49.203 1.04.304 1.648.304.81 0 1.472-.245 1.984-.736.512-.501.768-1.147.768-1.936 0-.736-.256-1.333-.768-1.792-.512-.459-1.174-.688-1.984-.688-.427 0-.843.053-1.248.16a5.619 5.619 0 0 0-1.264.48l-.8-.256zm13.317 5.728c-.64 0-1.232-.128-1.776-.384a4.173 4.173 0 0 1-1.376-1.104 5.607 5.607 0 0 1-.912-1.696 6.978 6.978 0 0 1-.32-2.16c0-.917.117-1.749.352-2.496.245-.757.586-1.403 1.024-1.936a4.456 4.456 0 0 1 1.584-1.232c.618-.299 1.306-.448 2.064-.448.458 0 .917.069 1.376.208.469.128.885.309 1.248.544l-.576.896a4.652 4.652 0 0 0-1.056-.448 3.833 3.833 0 0 0-1.088-.16c-1.142 0-2.054.443-2.736 1.328-.672.885-1.019 2.096-1.04 3.632a4.509 4.509 0 0 1 1.488-1.248 3.904 3.904 0 0 1 1.792-.448c.544 0 1.045.091 1.504.272.458.171.853.411 1.184.72.33.309.586.677.768 1.104.192.427.288.891.288 1.392 0 .523-.096 1.013-.288 1.472a3.392 3.392 0 0 1-.8 1.152c-.331.32-.731.576-1.2.768-.459.181-.96.272-1.504.272zm-.112-6.208c-.576 0-1.136.149-1.68.448a4.31 4.31 0 0 0-1.408 1.2c.117 1.067.464 1.925 1.04 2.576.576.651 1.29.976 2.144.976.757 0 1.386-.251 1.888-.752.512-.501.768-1.125.768-1.872 0-.747-.262-1.36-.784-1.84-.512-.491-1.168-.736-1.968-.736zm5.948 6.08l5.568-10.176h-6.736V359.8h7.984v.896L186.288 371h-1.312zm11.967.16c-.576 0-1.109-.08-1.6-.24a4.312 4.312 0 0 1-1.264-.656 3.268 3.268 0 0 1-.832-1.008 2.887 2.887 0 0 1-.288-1.28c0-.672.246-1.275.736-1.808.502-.533 1.136-.891 1.904-1.072-.65-.181-1.184-.507-1.6-.976-.405-.469-.608-.997-.608-1.584 0-.416.091-.8.272-1.152.182-.363.427-.672.736-.928.32-.256.699-.459 1.136-.608a4.342 4.342 0 0 1 1.408-.224c.502 0 .971.075 1.408.224.438.149.816.352 1.136.608.32.256.571.565.752.928.182.352.272.736.272 1.152 0 .587-.208 1.115-.624 1.584-.405.469-.933.795-1.584.976.768.181 1.398.539 1.888 1.072.491.523.736 1.125.736 1.808 0 .459-.101.885-.304 1.28a2.86 2.86 0 0 1-.816 1.008 4.053 4.053 0 0 1-1.264.656 5.13 5.13 0 0 1-1.6.24zm0-6.544c.683 0 1.259-.192 1.728-.576.48-.395.72-.88.72-1.456s-.234-1.056-.704-1.44c-.469-.395-1.05-.592-1.744-.592-.682 0-1.258.197-1.728.592-.469.384-.704.864-.704 1.44s.235 1.061.704 1.456c.48.384 1.056.576 1.728.576zm0 5.6c.8 0 1.472-.224 2.016-.672.555-.448.832-.997.832-1.648 0-.64-.277-1.179-.832-1.616-.544-.448-1.216-.672-2.016-.672s-1.477.224-2.032.672c-.544.437-.816.976-.816 1.616 0 .651.272 1.2.816 1.648.555.448 1.232.672 2.032.672zM252 444c0-11.046 8.954-20 20-20h61c11.046 0 20 8.954 20 20s-8.954 20-20 20h-61c-11.046 0-20-8.954-20-20z" fill="#000"/><path d="M276.448 448.144l1.024-1.184c.608.587 1.227 1.029 1.856 1.328.64.288 1.307.432 2 .432.8 0 1.451-.176 1.952-.528.512-.352.768-.8.768-1.344 0-.491-.176-.869-.528-1.136-.352-.277-.933-.485-1.744-.624l-1.872-.304c-1.024-.171-1.792-.496-2.304-.976-.501-.491-.752-1.136-.752-1.936 0-.971.379-1.749 1.136-2.336.758-.587 1.755-.88 2.992-.88.8 0 1.595.133 2.384.4.79.256 1.499.629 2.128 1.12l-.928 1.28a7.144 7.144 0 0 0-1.824-1.024 5.066 5.066 0 0 0-1.84-.352c-.725 0-1.312.155-1.76.464-.448.309-.672.709-.672 1.2 0 .459.155.811.464 1.056.31.235.822.411 1.536.528l1.808.288c1.174.192 2.038.544 2.592 1.056.566.501.848 1.184.848 2.048 0 .512-.106.981-.32 1.408a3.072 3.072 0 0 1-.912 1.088c-.384.299-.853.533-1.408.704-.554.16-1.162.24-1.824.24-.896 0-1.76-.176-2.592-.528a6.892 6.892 0 0 1-2.208-1.488zm12.197-6.288v4.832c0 .64.181 1.147.544 1.52.373.373.864.56 1.472.56.426 0 .81-.091 1.152-.272.341-.192.624-.459.848-.8v-5.84h1.6V450h-1.6v-.816c-.32.32-.688.565-1.104.736-.406.16-.854.24-1.344.24-.928 0-1.691-.299-2.288-.896-.587-.597-.88-1.365-.88-2.304v-5.104h1.6zm15.702 4.064c0 .587-.107 1.141-.32 1.664a4.064 4.064 0 0 1-.88 1.328 4.1 4.1 0 0 1-1.312.896 4.206 4.206 0 0 1-1.632.32 4.11 4.11 0 0 1-1.312-.208 3.98 3.98 0 0 1-1.152-.608V450h-1.584v-11.2l1.6-.352v4.176a3.438 3.438 0 0 1 1.136-.656c.427-.16.875-.24 1.344-.24.576 0 1.115.112 1.616.336.501.213.933.507 1.296.88.373.373.667.816.88 1.328.213.512.32 1.061.32 1.648zm-4.32-2.8c-.459 0-.885.085-1.28.256a2.715 2.715 0 0 0-.992.72v3.68c.256.299.581.533.976.704.405.171.837.256 1.296.256.779 0 1.429-.267 1.952-.8.533-.533.8-1.2.8-2s-.267-1.467-.8-2a2.63 2.63 0 0 0-1.952-.816zm5.847 6.88v-8.144h1.6v.768c.298-.299.64-.528 1.024-.688.384-.16.805-.24 1.264-.24.544 0 1.034.123 1.472.368.437.235.784.565 1.04.992.33-.448.725-.784 1.184-1.008a3.452 3.452 0 0 1 1.568-.352c.896 0 1.626.299 2.192.896.576.587.864 1.349.864 2.288V450h-1.6v-4.848c0-.64-.171-1.141-.512-1.504-.331-.373-.784-.56-1.36-.56-.395 0-.752.091-1.072.272-.32.181-.598.453-.832.816a4.145 4.145 0 0 1 .064.704V450h-1.584v-4.848c0-.64-.171-1.141-.512-1.504-.331-.373-.784-.56-1.36-.56a2.172 2.172 0 0 0-1.84.992V450h-1.6zm14.847-9.456a.938.938 0 0 1-.688-.288.993.993 0 0 1-.288-.704c0-.267.096-.496.288-.688a.913.913 0 0 1 .688-.304c.266 0 .496.101.688.304a.917.917 0 0 1 .304.688.969.969 0 0 1-.304.704.94.94 0 0 1-.688.288zm.8 1.312V450h-1.6v-8.144h1.6zm2.94 6.128V443.2h-1.728v-1.344h1.728v-2.08l1.584-.384v2.464h2.4v1.344h-2.4v4.416c0 .416.091.709.272.88.192.171.501.256.928.256a4.9 4.9 0 0 0 .592-.032c.181-.032.373-.085.576-.16v1.344a4.113 4.113 0 0 1-.752.176 5.027 5.027 0 0 1-.768.064c-.789 0-1.392-.181-1.808-.544-.416-.373-.624-.912-.624-1.616z" fill="#fff"/><rect x="48.5" y="421.5" width="83" height="39" rx="19.5" fill="#fff"/><path d="M73.144 435.8h4.848c1.088 0 1.962.272 2.624.816.672.533 1.008 1.248 1.008 2.144 0 .533-.139 1.013-.416 1.44a2.825 2.825 0 0 1-1.136.976c.608.235 1.088.581 1.44 1.04.362.459.544.992.544 1.6 0 .96-.352 1.733-1.056 2.32-.704.576-1.638.864-2.8.864h-5.056v-11.2zm4.752 1.424h-3.072v3.328h3.072c.63 0 1.13-.149 1.504-.448.373-.299.56-.704.56-1.216s-.187-.917-.56-1.216c-.374-.299-.875-.448-1.504-.448zm.176 8.352c.693 0 1.248-.165 1.664-.496.416-.341.624-.789.624-1.344 0-.544-.208-.987-.624-1.328-.416-.341-.97-.512-1.664-.512h-3.248v3.68h3.248zm8.19 1.568c-.885 0-1.605-.229-2.16-.688-.555-.459-.832-1.056-.832-1.792 0-.768.294-1.371.88-1.808.587-.448 1.392-.672 2.416-.672.395 0 .779.043 1.152.128.373.075.73.181 1.072.32v-.864c0-.576-.17-1.008-.512-1.296-.341-.288-.832-.432-1.472-.432a4.21 4.21 0 0 0-1.168.176 8.165 8.165 0 0 0-1.36.512l-.592-1.2a8.744 8.744 0 0 1 1.728-.624 6.507 6.507 0 0 1 1.616-.208c1.056 0 1.872.256 2.448.768.587.501.88 1.216.88 2.144V447H88.79v-.704a3.812 3.812 0 0 1-1.168.64c-.416.139-.87.208-1.36.208zm-1.456-2.512c0 .395.166.715.496.96.341.245.784.368 1.328.368.427 0 .822-.064 1.184-.192.363-.128.688-.32.976-.576v-1.408a3.606 3.606 0 0 0-.976-.368 4.63 4.63 0 0 0-1.12-.128c-.576 0-1.035.123-1.376.368-.341.245-.512.571-.512.976zm11.284 1.104c.405 0 .79-.08 1.152-.24.362-.171.71-.421 1.04-.752l.96 1.04a4.81 4.81 0 0 1-1.472 1.008 4.425 4.425 0 0 1-1.744.352 4.247 4.247 0 0 1-1.648-.32 4.29 4.29 0 0 1-1.328-.896 4.282 4.282 0 0 1-.896-1.328 4.405 4.405 0 0 1-.32-1.68c0-.587.106-1.136.32-1.648a4.23 4.23 0 0 1 .896-1.344 3.941 3.941 0 0 1 1.328-.896 4.066 4.066 0 0 1 1.648-.336c.608 0 1.2.123 1.776.368a4.508 4.508 0 0 1 1.504.992l-1.008 1.088a3.197 3.197 0 0 0-1.04-.752 2.783 2.783 0 0 0-1.2-.272c-.736 0-1.36.272-1.872.816-.512.544-.768 1.205-.768 1.984 0 .8.256 1.472.768 2.016.522.533 1.157.8 1.904.8zm4.456 1.264v-11.2l1.6-.352v6.992l3.952-3.584h1.872l-4.192 3.824 4.416 4.32h-2.112l-3.936-3.84V447h-1.6z" fill="#000"/><rect x="48.5" y="421.5" width="83" height="39" rx="19.5" stroke="#000"/><defs><clipPath id="clip0_245_1240"><path fill="#fff" transform="translate(0 52)" d="M0 0H32V32H0z"/></clipPath><clipPath id="clip1_245_1240"><path fill="#fff" d="M0 0H32V32H0z"/></clipPath><clipPath id="clip2_245_1240"><path fill="#fff" transform="translate(0 159)" d="M0 0H32V32H0z"/></clipPath><clipPath id="clip3_245_1240"><path fill="#fff" transform="translate(0 104)" d="M0 0H32V32H0z"/></clipPath></defs></svg>