<svg width="41" height="41" fill="none" xmlns="http://www.w3.org/2000/svg"><path fill-rule="evenodd" clip-rule="evenodd" d="M17.066 7a3.75 3.75 0 1 1 7.5 0 3.75 3.75 0 0 1-7.5 0zm3.75-6.25a6.25 6.25 0 1 0 0 12.5 6.25 6.25 0 0 0 0-12.5zm-.066 12.5A8.75 8.75 0 0 0 12 22v5c0 .69.56 1.25 1.25 1.25h1.369l1.137 11.374A1.25 1.25 0 0 0 17 40.75h7.5a1.25 1.25 0 0 0 1.244-1.126L26.88 28.25h1.369c.69 0 1.25-.56 1.25-1.25v-5a8.75 8.75 0 0 0-8.75-8.75zm-4.42 4.33A6.25 6.25 0 0 1 27 22v3.75h-1.25a1.25 1.25 0 0 0-1.244 1.125L23.37 38.25H18.13l-1.137-11.375a1.25 1.25 0 0 0-1.244-1.125H14.5V22a6.25 6.25 0 0 1 1.83-4.42z" fill="var(--e-color-icon-stroke-1)"/><path fill-rule="evenodd" clip-rule="evenodd" d="M39.586 12.123a3.556 3.556 0 0 0-.266-1.95c-.203-.456-.5-.85-.865-1.152a2.711 2.711 0 0 0-1.239-.583 2.571 2.571 0 0 0-1.339.114 2.833 2.833 0 0 0-1.146.785l-.231.26-.231-.26a2.831 2.831 0 0 0-1.146-.785 2.57 2.57 0 0 0-1.34-.114 2.71 2.71 0 0 0-1.238.583 3.149 3.149 0 0 0-.865 1.151 3.554 3.554 0 0 0-.266 1.95 3.36 3.36 0 0 0 .798 1.752l3.877 4.533a.542.542 0 0 0 .41.196c.156 0 .304-.07.412-.196l3.877-4.533a3.362 3.362 0 0 0 .798-1.751zm-6.813-2.357a1.55 1.55 0 0 0-.807-.068c-.27.049-.526.17-.746.35-.22.182-.4.42-.521.695a2.144 2.144 0 0 0-.161 1.175c.058.401.227.771.483 1.059l.009.01 3.47 4.057 3.47-4.058.008-.01c.257-.287.426-.657.484-1.058.058-.4.002-.812-.16-1.175a1.899 1.899 0 0 0-.522-.694 1.634 1.634 0 0 0-.746-.351 1.55 1.55 0 0 0-.807.068c-.26.094-.497.256-.691.473l-.634.71a.54.54 0 0 1-.402.187.54.54 0 0 1-.403-.187l-.633-.71a1.706 1.706 0 0 0-.69-.473z" fill="var(--e-color-icon-positive)"/><path fill-rule="evenodd" clip-rule="evenodd" d="M31.72 8.047a2.93 2.93 0 0 1 1.526.13c.472.17.9.459 1.254.84a3.2 3.2 0 0 1 1.254-.84 2.931 2.931 0 0 1 1.527-.13c.51.093.993.32 1.407.662.413.34.747.785.974 1.295.3.675.404 1.436.297 2.178a3.768 3.768 0 0 1-.893 1.96l-3.875 4.53A.911.911 0 0 1 34.5 19a.911.911 0 0 1-.692-.328l-3.874-4.53a3.765 3.765 0 0 1-.893-1.96 3.97 3.97 0 0 1 .298-2.178m2.38-1.957a3.08 3.08 0 0 0-1.407.662l1.407-.662zm-1.407.662c-.413.34-.746.785-.973 1.295l.974-1.295zm2.338 1.432a1.19 1.19 0 0 0-.62-.053c-.207.038-.405.13-.577.273-.172.142-.315.33-.413.55a1.73 1.73 0 0 0-.129.948c.047.324.183.62.386.846l.002.003.012.013 3.189 3.73 3.192-3.733.011-.013c.203-.227.339-.522.386-.847a1.729 1.729 0 0 0-.129-.947 1.503 1.503 0 0 0-.413-.55 1.264 1.264 0 0 0-.578-.273 1.19 1.19 0 0 0-.62.053 1.33 1.33 0 0 0-.538.37l-.633.71a.91.91 0 0 1-.678.312.91.91 0 0 1-.678-.312l-.634-.71a1.33 1.33 0 0 0-.538-.37z" fill="var(--e-color-icon-positive)"/><path d="M29.339 10.004l2.005-.188.375-1.769-1.407.662-.973 1.295z" fill="var(--e-color-icon-positive)"/></svg>