<svg width="40" height="40" fill="none" xmlns="http://www.w3.org/2000/svg"><g clip-path="url(#clip0_2299_145)" fill-rule="evenodd" clip-rule="evenodd"><path d="M5-.003c.69 0 1.25.56 1.25 1.25v37.5a1.25 1.25 0 1 1-2.5 0v-37.5c0-.69.56-1.25 1.25-1.25zm30 0c.69 0 1.25.56 1.25 1.25v37.5a1.25 1.25 0 1 1-2.5 0v-37.5c0-.69.56-1.25 1.25-1.25z" fill="var(--e-color-icon-stroke-1)"/><path d="M1.25 33.747c0-.69.56-1.25 1.25-1.25h35a1.25 1.25 0 1 1 0 2.5h-35c-.69 0-1.25-.56-1.25-1.25zm0-17.5c0-.69.56-1.25 1.25-1.25h35a1.25 1.25 0 1 1 0 2.5h-35c-.69 0-1.25-.56-1.25-1.25z" fill="var(--e-color-icon-stroke-1)"/><path d="M8.75 4.997c0-.69.56-1.25 1.25-1.25h5c.69 0 1.25.56 1.25 1.25v11.25c0 .69-.56 1.25-1.25 1.25h-5c-.69 0-1.25-.56-1.25-1.25V4.997zm2.5 1.25v8.75h2.5v-8.75h-2.5zM10 22.497c0-.69.56-1.25 1.25-1.25h5c.69 0 1.25.56 1.25 1.25v11.25c0 .69-.56 1.25-1.25 1.25h-5c-.69 0-1.25-.56-1.25-1.25v-11.25zm2.5 1.25v8.75H15v-8.75h-2.5zm7.5-1.25c0-.69.56-1.25 1.25-1.25h5c.69 0 1.25.56 1.25 1.25v11.25c0 .69-.56 1.25-1.25 1.25h-5c-.69 0-1.25-.56-1.25-1.25v-11.25zm2.5 1.25v8.75H25v-8.75h-2.5z" fill="var(--e-color-icon-stroke-1)"/><path d="M13.75 4.997c0-.69.56-1.25 1.25-1.25h5c.69 0 1.25.56 1.25 1.25v11.25c0 .69-.56 1.25-1.25 1.25h-5c-.69 0-1.25-.56-1.25-1.25V4.997zm2.5 1.25v8.75h2.5v-8.75h-2.5z" fill="var(--e-color-icon-stroke-1)"/><path d="M29.33 3.412a1.25 1.25 0 0 1 1.66-.607l4.534 2.105a1.25 1.25 0 0 1 .608 1.66l-4.737 10.204a1.25 1.25 0 0 1-1.66.608L25.2 15.277a1.25 1.25 0 0 1-.608-1.66L29.33 3.411zM31.07 5.6l-3.684 7.936 2.268 1.053 3.684-7.937L31.07 5.6z" fill="var(--e-color-icon-positive)"/></g><defs><clipPath id="clip0_2299_145"><path fill="#fff" d="M0 0H40V40H0z"/></clipPath></defs></svg>