<svg width="40" height="40" fill="none" xmlns="http://www.w3.org/2000/svg"><path fill-rule="evenodd" clip-rule="evenodd" d="M18.546 22.28a3.817 3.817 0 0 1 2.7-1.118h14.937A3.818 3.818 0 0 1 40 24.979v7.469a3.817 3.817 0 0 1-3.817 3.817h-7.026l-4.626 3.47a1.328 1.328 0 0 1-2.124-1.063v-2.407h-1.162a3.817 3.817 0 0 1-3.817-3.817v-7.469c0-1.012.402-1.983 1.118-2.7zm2.7 1.537a1.162 1.162 0 0 0-1.163 1.162v7.469a1.162 1.162 0 0 0 1.162 1.162h2.49c.733 0 1.328.594 1.328 1.327v1.08l2.854-2.142c.23-.172.51-.265.797-.265h7.469a1.162 1.162 0 0 0 1.162-1.162v-7.469a1.162 1.162 0 0 0-1.162-1.162H21.245zm-16.927.252a5.676 5.676 0 1 1 8.027 8.028 5.676 5.676 0 0 1-8.027-8.028zm4.014.993a3.02 3.02 0 1 0 0 6.041 3.02 3.02 0 0 0 0-6.041z" fill="var(--e-color-icon-stroke-1)"/><path fill-rule="evenodd" clip-rule="evenodd" d="M3.278 33.992a8.763 8.763 0 0 1 13.327 4.238 1.328 1.328 0 1 1-2.504.883 6.108 6.108 0 0 0-11.52 0 1.328 1.328 0 1 1-2.505-.883 8.763 8.763 0 0 1 3.202-4.238zM27.655 2.924a5.676 5.676 0 1 1 8.027 8.027 5.676 5.676 0 0 1-8.027-8.027zm4.014.993a3.02 3.02 0 1 0 0 6.041 3.02 3.02 0 0 0 0-6.041z" fill="var(--e-color-icon-stroke-1)"/><path fill-rule="evenodd" clip-rule="evenodd" d="M26.596 12.83a8.764 8.764 0 0 1 13.327 4.239 1.328 1.328 0 0 1-2.504.883 6.108 6.108 0 0 0-11.52 0 1.328 1.328 0 0 1-2.505-.883 8.764 8.764 0 0 1 3.202-4.24z" fill="var(--e-color-icon-stroke-1)"/><path fill-rule="evenodd" clip-rule="evenodd" d="M23.236 28.713c0-.733.595-1.327 1.328-1.327h6.64a1.328 1.328 0 0 1 0 2.655h-6.64a1.328 1.328 0 0 1-1.328-1.328z" fill="var(--e-color-icon-positive)"/><path fill-rule="evenodd" clip-rule="evenodd" d="M3.817 2.656a1.162 1.162 0 0 0-1.161 1.161v7.47a1.162 1.162 0 0 0 1.161 1.161h7.47c.286 0 .566.093.796.266l2.855 2.14v-1.078c0-.733.594-1.328 1.327-1.328h2.49a1.162 1.162 0 0 0 1.162-1.162V3.817a1.162 1.162 0 0 0-1.162-1.161H3.817zM1.118 1.118A3.817 3.817 0 0 1 3.818 0h14.937a3.817 3.817 0 0 1 3.817 3.817v7.47a3.817 3.817 0 0 1-3.817 3.817h-1.162v2.406a1.328 1.328 0 0 1-2.124 1.062l-4.625-3.468H3.817A3.817 3.817 0 0 1 0 11.286V3.817c0-1.012.402-1.983 1.118-2.699z" fill="var(--e-color-icon-stroke-1)"/><path fill-rule="evenodd" clip-rule="evenodd" d="M5.809 7.137c0-.733.594-1.328 1.327-1.328h6.64a1.328 1.328 0 0 1 0 2.656h-6.64A1.328 1.328 0 0 1 5.81 7.137z" fill="var(--e-color-icon-positive)"/></svg>