<svg width="40" height="40" fill="none" xmlns="http://www.w3.org/2000/svg"><g clip-path="url(#clip0_16395_31066)"><path d="M20.017 5.153a1.338 1.338 0 0 1-1.328-1.328V1.328C18.69.602 19.291 0 20.017 0c.727 0 1.329.602 1.329 1.328v2.497c0 .726-.602 1.328-1.329 1.328zm-9.794 9.951H7.549a1.338 1.338 0 0 1-1.328-1.328c0-.726.602-1.328 1.328-1.328h2.673c.726 0 1.329.602 1.329 1.328 0 .726-.603 1.328-1.329 1.328zm22.242 0H29.79a1.338 1.338 0 0 1-1.328-1.328c0-.726.602-1.328 1.328-1.328h2.674c.726 0 1.328.602 1.328 1.328 0 .726-.602 1.328-1.328 1.328zm-20.453-5.86c-.337 0-.673-.125-.939-.39L8.807 6.587a1.336 1.336 0 0 1 0-1.877 1.336 1.336 0 0 1 1.877 0l2.266 2.267a1.336 1.336 0 0 1 0 1.877c-.265.265-.602.39-.938.39zm16.007 0c-.336 0-.673-.125-.939-.39a1.336 1.336 0 0 1 0-1.877l2.267-2.267a1.336 1.336 0 0 1 1.877 0 1.336 1.336 0 0 1 0 1.877l-2.267 2.267c-.265.265-.602.39-.938.39z" fill="var(--e-color-icon-positive)"/><path d="M22.493 23.816h-4.976a1.338 1.338 0 0 1-1.328-1.328v-2.213a7.56 7.56 0 0 1-3.736-6.534c0-4.162 3.4-7.544 7.561-7.544s7.543 3.4 7.543 7.561c0 2.71-1.434 5.17-3.736 6.517v2.195c0 .726-.602 1.328-1.328 1.328v.018zm-3.648-2.656h2.32v-1.682c0-.532.319-1.01.797-1.222a4.88 4.88 0 0 0 2.94-4.48c0-2.71-2.197-4.905-4.888-4.905-1.31 0-2.532.514-3.453 1.434a4.89 4.89 0 0 0-1.434 3.471 4.905 4.905 0 0 0 2.94 4.498c.477.212.796.69.796 1.221v1.682l-.018-.017zm3.65 6.392H17.52a1.338 1.338 0 0 1-1.328-1.328c0-.726.602-1.328 1.328-1.328h4.976c.726 0 1.328.602 1.328 1.328 0 .726-.602 1.328-1.328 1.328zm9.171 6.233a5.69 5.69 0 0 1-5.684-5.684 5.69 5.69 0 0 1 5.684-5.684A5.69 5.69 0 0 1 37.35 28.1a5.69 5.69 0 0 1-5.684 5.684zm0-8.712a3.038 3.038 0 0 0-3.027 3.028 3.038 3.038 0 0 0 3.027 3.028 3.038 3.038 0 0 0 3.028-3.028 3.038 3.038 0 0 0-3.028-3.028z" fill="var(--e-color-icon-stroke-1)"/><path d="M24.654 40c-.141 0-.3-.018-.442-.07a1.329 1.329 0 0 1-.815-1.7 8.731 8.731 0 0 1 5.383-5.384 8.621 8.621 0 0 1 6.693.39c2.108 1.01 3.684 2.798 4.463 4.993a1.336 1.336 0 0 1-.815 1.7 1.336 1.336 0 0 1-1.7-.814 6.08 6.08 0 0 0-7.755-3.754 6.076 6.076 0 0 0-3.754 3.754 1.33 1.33 0 0 1-1.258.885zM8.346 33.785A5.69 5.69 0 0 1 2.662 28.1a5.69 5.69 0 0 1 5.684-5.684A5.69 5.69 0 0 1 14.03 28.1a5.69 5.69 0 0 1-5.684 5.684zm0-8.712a3.038 3.038 0 0 0-3.028 3.028 3.038 3.038 0 0 0 3.028 3.028 3.038 3.038 0 0 0 3.028-3.028 3.038 3.038 0 0 0-3.028-3.028z" fill="var(--e-color-icon-stroke-1)"/><path d="M1.334 40c-.141 0-.3-.018-.443-.07a1.329 1.329 0 0 1-.814-1.7 8.731 8.731 0 0 1 5.383-5.384 8.621 8.621 0 0 1 6.693.39c2.107 1.01 3.683 2.798 4.462 4.993a1.336 1.336 0 0 1-.814 1.7 1.336 1.336 0 0 1-1.7-.814 6.08 6.08 0 0 0-7.756-3.754 6.077 6.077 0 0 0-3.754 3.754A1.33 1.33 0 0 1 1.334 40z" fill="var(--e-color-icon-stroke-1)"/></g><defs><clipPath id="clip0_16395_31066"><path fill="#fff" d="M0 0H40V40H0z"/></clipPath></defs></svg>