<svg width="40" height="40" fill="none" xmlns="http://www.w3.org/2000/svg"><path fill-rule="evenodd" clip-rule="evenodd" d="M19.997 29.486a16.379 16.379 0 0 0-14.966 9.725 1.328 1.328 0 1 1-2.426-1.078 19.034 19.034 0 0 1 34.785 0 1.327 1.327 0 1 1-2.426 1.078 16.379 16.379 0 0 0-14.967-9.725zm8.71-15.523c.733-.002 1.33.591 1.331 1.324a9.973 9.973 0 0 1-1.474 5.245 1.327 1.327 0 1 1-2.262-1.389 7.318 7.318 0 0 0 1.081-3.848 1.328 1.328 0 0 1 1.324-1.332zm-17.417 0a1.328 1.328 0 0 1 1.324 1.332 7.318 7.318 0 0 0 1.082 3.848 1.328 1.328 0 1 1-2.263 1.39 9.973 9.973 0 0 1-1.474-5.246 1.328 1.328 0 0 1 1.331-1.324z" fill="var(--e-color-icon-stroke-1)"/><path fill-rule="evenodd" clip-rule="evenodd" d="M11.117 23.459c1.564.23 3.328.065 4.682-.45.897-.341 1.448-.774 1.7-1.17.199-.311.294-.715-.013-1.371-.306-.651-.674-.835-1.04-.88-.466-.06-1.15.088-1.987.56-1.262.712-2.518 1.962-3.342 3.311zm5.662-6.506c1.35.17 2.454.989 3.11 2.387l.001.002c.655 1.4.58 2.774-.15 3.923-.679 1.065-1.817 1.777-2.996 2.225-2.355.897-5.534.996-7.983.11a1.328 1.328 0 0 1-.797-1.7c.887-2.45 2.997-4.828 5.191-6.065 1.099-.62 2.373-1.04 3.624-.882z" fill="var(--e-color-icon-positive)"/><path fill-rule="evenodd" clip-rule="evenodd" d="M26.877 17.837c2.187 1.24 4.273 3.619 5.157 6.063.25.69-.107 1.45-.797 1.7-2.45.886-5.627.787-7.982-.11-1.18-.448-2.318-1.16-2.996-2.225-.731-1.149-.806-2.523-.151-3.923l.01-.022c.68-1.387 1.79-2.198 3.137-2.367 1.254-.158 2.526.262 3.622.884zm-4.37 2.64c.324-.654.706-.843 1.08-.89.47-.059 1.152.09 1.98.56 1.253.71 2.498 1.96 3.317 3.312-1.565.23-3.33.066-4.685-.45-.897-.341-1.448-.774-1.7-1.17-.197-.31-.293-.71.009-1.362z" fill="var(--e-color-icon-positive)"/><path fill-rule="evenodd" clip-rule="evenodd" d="M3.734 11.292c0-.733.595-1.328 1.328-1.328h29.87a1.328 1.328 0 1 1 0 2.655H5.061a1.328 1.328 0 0 1-1.328-1.327z" fill="var(--e-color-icon-stroke-1)"/><path fill-rule="evenodd" clip-rule="evenodd" d="M14.713 2.694a1.16 1.16 0 0 0-.655.712l-.003.007-2.754 8.297a1.328 1.328 0 0 1-2.52-.837l2.753-8.293A3.816 3.816 0 0 1 13.909.163a3.883 3.883 0 0 1 3.227.462l2.262 1.36a1.195 1.195 0 0 0 1.2 0L22.873.619a3.883 3.883 0 0 1 3.3-.376 3.816 3.816 0 0 1 2.29 2.391l2.752 8.29a1.328 1.328 0 0 1-2.52.837l-2.757-8.304a1.163 1.163 0 0 0-.669-.717 1.228 1.228 0 0 0-.999.137l-.02.012-2.301 1.384a3.85 3.85 0 0 1-3.901 0l-.012-.007-2.29-1.377a1.229 1.229 0 0 0-1.032-.193zm-.46 25.062c.5-.032.974.22 1.228.65l5.659 9.592a1.328 1.328 0 0 1-2.287 1.349l-4.329-7.338-1.583 3.683 2.814 1.876a1.328 1.328 0 0 1-1.473 2.209l-3.734-2.49a1.328 1.328 0 0 1-.483-1.628l3.053-7.103c.198-.459.637-.768 1.136-.8z" fill="var(--e-color-icon-stroke-1)"/><path fill-rule="evenodd" clip-rule="evenodd" d="M25.74 27.756c.5.032.938.341 1.136.8l3.053 7.103c.253.588.05 1.273-.483 1.629l-3.734 2.489a1.328 1.328 0 0 1-1.473-2.21l2.814-1.875-1.583-3.683-4.329 7.338a1.327 1.327 0 1 1-2.287-1.35l5.659-9.59c.254-.431.728-.683 1.227-.651z" fill="var(--e-color-icon-stroke-1)"/></svg>