<svg width="40" height="40" fill="none" xmlns="http://www.w3.org/2000/svg"><path fill-rule="evenodd" clip-rule="evenodd" d="M32.6 22.625a1.1 1.1 0 0 1 .694 1.391l-2.226 6.673c-.038.114-.094.22-.166.316-.845 1.117-2.107 2.759-3.496 4.253-1.343 1.445-2.938 2.904-4.484 3.518l-1.324.623c-.068.032-.139.057-.212.075l-.527.13-.077.02-.318.08c-.224.053-.471.106-.746.106a2.89 2.89 0 0 1-.742-.111c-.09-.023-.19-.051-.299-.08a31.051 31.051 0 0 0-.558-.149 1.106 1.106 0 0 1-.214-.08l-1.245-.619c-1.537-.613-3.155-2.062-4.523-3.504-1.42-1.495-2.71-3.136-3.562-4.263a1.1 1.1 0 0 1-.19-.396l-1.668-6.673a1.1 1.1 0 0 1 2.134-.534l1.614 6.455c.828 1.088 2.002 2.564 3.267 3.897 1.373 1.445 2.72 2.578 3.773 2.986.031.013.062.026.091.04l1.185.589.406.109.078.021c.107.03.189.052.261.07.179.047.2.042.192.042-.002 0 .03.002.232-.046l.284-.071.084-.021c.126-.032.273-.07.444-.11l1.255-.592a1.1 1.1 0 0 1 .07-.03c1.048-.407 2.364-1.534 3.707-2.98 1.252-1.347 2.41-2.839 3.244-3.939l2.17-6.501a1.1 1.1 0 0 1 1.391-.695z" fill="var(--e-color-icon-stroke-1)"/><path fill-rule="evenodd" clip-rule="evenodd" d="M20.017 9.001a28.045 28.045 0 0 1 11.59 2.397l.02.01c.52.242.959.63 1.264 1.116.304.484.463 1.045.46 1.617v9.474a1.1 1.1 0 0 1-2.2 0V14.13a.812.812 0 0 0-.124-.437.776.776 0 0 0-.32-.288 25.844 25.844 0 0 0-10.68-2.204h-.02A25.844 25.844 0 0 0 9.33 13.405a.776.776 0 0 0-.321.288.812.812 0 0 0-.124.437v9.485a1.1 1.1 0 0 1-2.2 0V14.14a3.012 3.012 0 0 1 .46-1.617 2.975 2.975 0 0 1 1.263-1.117l.02-.009a28.045 28.045 0 0 1 11.59-2.397z" fill="var(--e-color-icon-stroke-1)"/><path fill-rule="evenodd" clip-rule="evenodd" d="M19.995 18c-4.343 0-7.545 1.325-9.67 2.67a14.804 14.804 0 0 0-2.376 1.86 10.724 10.724 0 0 0-.764.82 4.57 4.57 0 0 0-.045.057l-.014.018-.005.006-.002.003v.001c-.001 0-.001.001.876.665l-.877-.664a1.1 1.1 0 0 0 .474 1.688l-.362.56v.002l-.016.022-.074.104a10.898 10.898 0 0 1-1.577 1.689c-1.105.952-2.621 1.856-4.438 1.957a1.19 1.19 0 0 0-.659 2.132l2.589 1.987-2.873 4.579a1.19 1.19 0 0 0 .972 1.822c1.926.059 3.41-.004 5.352-.814 1-.417 2.226-1.226 3.319-2.056 1.106-.84 2.178-1.781 2.872-2.526a1.19 1.19 0 1 0-1.742-1.622c-.573.615-1.532 1.464-2.57 2.252-1.05.798-2.082 1.457-2.795 1.755a7.722 7.722 0 0 1-2.22.587l2.276-3.63a1.19 1.19 0 0 0-.283-1.576l-1.43-1.097c1.297-.5 2.369-1.245 3.184-1.947a13.279 13.279 0 0 0 1.536-1.565 11.03 11.03 0 0 0 .549-.72l.01-.015.003-.005-.895-1.848a1.097 1.097 0 0 0 .573-.414l.108-.128c.102-.116.26-.289.48-.5.437-.425 1.108-1 2.022-1.58 1.822-1.154 4.62-2.329 8.492-2.329 3.87 0 6.67 1.175 8.491 2.33.914.578 1.586 1.154 2.023 1.578a8.538 8.538 0 0 1 .587.63l.022.027c.147.193.345.325.562.389a1.19 1.19 0 0 0-.896 1.841l.002.004.003.005.01.014.01.016.021.03.11.155c.095.129.231.307.407.52.352.424.869.99 1.536 1.565.816.702 1.887 1.446 3.183 1.947l-1.429 1.097a1.19 1.19 0 0 0-.283 1.576l2.277 3.63a7.716 7.716 0 0 1-2.22-.587c-.714-.297-1.745-.956-2.796-1.755-1.037-.788-1.997-1.637-2.57-2.252a1.19 1.19 0 1 0-1.742 1.622c.694.745 1.766 1.685 2.872 2.526 1.093.83 2.319 1.639 3.32 2.056 1.942.81 3.426.873 5.352.814a1.19 1.19 0 0 0 .971-1.822l-2.873-4.58 2.589-1.986a1.19 1.19 0 0 0-.659-2.132c-1.816-.101-3.333-1.005-4.438-1.957-.546-.47-.97-.936-1.258-1.282a8.667 8.667 0 0 1-.393-.511l-.015-.022-.001-.001a1.185 1.185 0 0 0-.67-.49 1.1 1.1 0 0 0 .771-1.76l-.876.665.876-.665-.001-.001-.002-.003-.005-.006-.014-.018a5.57 5.57 0 0 0-.205-.246 10.734 10.734 0 0 0-.603-.632 14.804 14.804 0 0 0-2.377-1.858C27.538 19.325 24.337 18 19.993 18zm0 8c-3.267 0-5.686.797-7.308 1.619-.808.41-1.415.823-1.827 1.143a7.708 7.708 0 0 0-.604.52 3.394 3.394 0 0 0-.039.04l-.013.013-.005.005-.002.002v.001l.798.757-.8-.756a1.1 1.1 0 0 0 1.594 1.517l.01-.011c.014-.013.037-.036.072-.067.07-.063.181-.161.338-.283a9.179 9.179 0 0 1 1.473-.919c1.338-.678 3.418-1.381 6.312-1.381 2.895 0 4.975.703 6.313 1.381.672.34 1.16.677 1.473.92a5.516 5.516 0 0 1 .41.349l.01.011a1.1 1.1 0 0 0 1.593-1.517l-.799.756c.8-.756.799-.757.799-.757l-.001-.001-.002-.002-.005-.005-.013-.013-.039-.04a7.677 7.677 0 0 0-.604-.52 11.369 11.369 0 0 0-1.827-1.143C25.68 26.797 23.26 26 19.994 26z" fill="var(--e-color-icon-stroke-1)"/><path fill-rule="evenodd" clip-rule="evenodd" d="M20 5.6a1.3 1.3 0 0 1-1.3-1.3v-3a1.3 1.3 0 1 1 2.6 0v3A1.3 1.3 0 0 1 20 5.6zm-18.165.636a1.3 1.3 0 0 1 1.816-.288l2.427 1.764A1.3 1.3 0 0 1 4.55 9.815L2.123 8.052a1.3 1.3 0 0 1-.288-1.816zM34.6 21.8a1.2 1.2 0 0 1 1.2-1.2h3a1.2 1.2 0 0 1 0 2.4h-3a1.2 1.2 0 0 1-1.2-1.2zm1.747-15.852a1.3 1.3 0 0 1 1.528 2.104l-2.427 1.763a1.3 1.3 0 0 1-1.528-2.103l2.427-1.764zM1.2 20.6a1.2 1.2 0 0 0 0 2.4h3a1.2 1.2 0 0 0 0-2.4h-3z" fill="var(--e-color-icon-positive)"/></svg>