<svg width="40" height="40" fill="none" xmlns="http://www.w3.org/2000/svg"><g clip-path="url(#clip0_16395_31065)" fill-rule="evenodd" clip-rule="evenodd"><path d="M3.82 10.11a1.162 1.162 0 0 0-1.163 1.163V36.18a1.163 1.163 0 0 0 1.162 1.162H36.2a1.162 1.162 0 0 0 1.163-1.162V16.255a1.328 1.328 0 0 1 2.657 0V36.18A3.82 3.82 0 0 1 36.199 40H3.82A3.819 3.819 0 0 1 0 36.18V11.274a3.82 3.82 0 0 1 3.82-3.82h14.944a1.328 1.328 0 1 1 0 2.658H3.819z" fill="var(--e-color-icon-positive)"/><path d="M8.386 13.266h7.888a1.328 1.328 0 1 1 0 2.656H8.469v15.61h23.082V19.99a1.328 1.328 0 0 1 2.657 0v11.64a2.59 2.59 0 0 1-2.557 2.557H8.37a2.59 2.59 0 0 1-2.556-2.556v-15.81a2.59 2.59 0 0 1 2.556-2.556h.017z" fill="var(--e-color-icon-stroke-1)"/><path d="M35.172 2.732a2.175 2.175 0 0 0-2.32.81l-.012.017L22.274 17.45l-.237 3.94 3.795-1.34L36.334 6.155a2.193 2.193 0 0 0-.391-3.038 2.175 2.175 0 0 0-.771-.386zM33.949.045a4.832 4.832 0 0 1 3.634.983l.004.003a4.849 4.849 0 0 1 .869 6.724L27.71 21.971a1.329 1.329 0 0 1-.617.451l-6.061 2.142a1.328 1.328 0 0 1-1.769-1.332l.382-6.343a1.33 1.33 0 0 1 .269-.725L30.719 1.958a4.83 4.83 0 0 1 3.23-1.913zM5.813 23.727c0-.734.594-1.329 1.328-1.329h6.227a1.328 1.328 0 0 1 0 2.657H7.14a1.328 1.328 0 0 1-1.329-1.328z" fill="var(--e-color-icon-stroke-1)"/><path d="M13.367 13.266c.734 0 1.329.594 1.329 1.328V32.86a1.328 1.328 0 0 1-2.657 0V14.594c0-.734.595-1.328 1.329-1.328z" fill="var(--e-color-icon-stroke-1)"/></g><defs><clipPath id="clip0_16395_31065"><path fill="#fff" d="M0 0H40V40H0z"/></clipPath></defs></svg>