<svg width="40" height="40" fill="none" xmlns="http://www.w3.org/2000/svg"><g clip-path="url(#clip0_2299_146)"><path d="M3.135 28.75A3.141 3.141 0 0 1 0 25.647V3.103A3.131 3.131 0 0 1 3.118 0h27.497a3.14 3.14 0 0 1 3.135 3.102V7.5c0 .69-.56 1.25-1.25 1.25h-30v16.885a.63.63 0 0 0 .632.615H18.75a1.25 1.25 0 0 1 0 2.5H3.135zM31.25 6.25V3.113a.628.628 0 0 0-.63-.613H3.12a.622.622 0 0 0-.62.613V6.25h28.75z" fill="var(--e-color-icon-stroke-1)"/><path d="M19.814 40a2.501 2.501 0 0 1-2.4-1.798 2.482 2.482 0 0 1 .208-1.902l7.387-11.668L25 17.5c0-1.378 1.122-2.5 2.5-2.5H30c1.379 0 2.5 1.122 2.5 2.5v7.145l7.007 11.653c.202.372.308.787.307 1.204 0 .666-.26 1.295-.734 1.766a2.48 2.48 0 0 1-1.766.732h-17.5zm17.5-2.5l-3.759-6.25h-9.778l-3.952 6.24 17.489.01zm-5.262-8.75l-1.685-2.805A2.463 2.463 0 0 1 30 24.647V17.5h-2.5v7.145a2.52 2.52 0 0 1-.371 1.312L25.36 28.75h6.692z" fill="var(--e-color-icon-stroke-1)"/><path d="M36.25 16.25c-.69 0-1.25-.56-1.25-1.25v-1.25h-1.25a1.25 1.25 0 0 1 0-2.5H35V10a1.25 1.25 0 0 1 2.5 0v1.25h1.25a1.25 1.25 0 0 1 0 2.5H37.5V15c0 .69-.56 1.25-1.25 1.25zm-17.5 3.5c-.69 0-1.25-.56-1.25-1.25v-1.25h-1.25a1.25 1.25 0 0 1 0-2.5h1.25V13.5a1.25 1.25 0 0 1 2.5 0v1.25h1.25a1.25 1.25 0 0 1 0 2.5H20v1.25c0 .69-.56 1.25-1.25 1.25z" fill="var(--e-color-icon-positive)"/></g><defs><clipPath id="clip0_2299_146"><path fill="#fff" d="M0 0H40V40H0z"/></clipPath></defs></svg>