<svg width="40" height="40" fill="none" xmlns="http://www.w3.org/2000/svg"><path fill-rule="evenodd" clip-rule="evenodd" d="M11.098 3.098A3.75 3.75 0 0 1 13.75 2h12.5A3.75 3.75 0 0 1 30 5.75v5a1.25 1.25 0 1 1-2.5 0v-5a1.25 1.25 0 0 0-1.25-1.25h-12.5a1.25 1.25 0 0 0-1.25 1.25v5a1.25 1.25 0 1 1-2.5 0v-5a3.75 3.75 0 0 1 1.098-2.652z" fill="var(--e-color-icon-stroke-1)"/><path fill-rule="evenodd" clip-rule="evenodd" d="M2.917 13a.417.417 0 0 0-.417.417v21.666c0 .23.187.417.417.417h34.166c.23 0 .417-.187.417-.417V13.417a.417.417 0 0 0-.417-.417H2.917zM0 13.417A2.917 2.917 0 0 1 2.917 10.5h34.166A2.917 2.917 0 0 1 40 13.417v21.666A2.917 2.917 0 0 1 37.083 38H2.917A2.917 2.917 0 0 1 0 35.083V13.417z" fill="var(--e-color-icon-stroke-1)"/><path d="M28.54 19.494l-4.835-4.835c-.88-.879-2.418-.879-3.297 0l-1.758 1.539c-.55.44-.66 1.099-.66 1.648 0 .66.33 1.209.66 1.648l1.648 1.649-4.176 4.066a1.725 1.725 0 0 0-2.417 0l-3.737 3.626c-.44.66-.769 1.429-.769 2.198 0 .77.33 1.538.88 2.088.549.55 1.208.879 1.977.879.77 0 1.429-.33 1.978-.77l3.737-3.735c.22-.22.44-.66.44-1.21 0-.439-.11-.878-.44-1.208l-.11-.11 4.176-4.066 1.648 1.429c.44.55 1.099.769 1.648.769.66 0 1.21-.22 1.649-.66l1.648-1.648c.55-.44.77-1.099.77-1.648 0-.66-.33-1.319-.66-1.649zm-3.407 3.297l-2.417-2.308-2.528-2.527v-.11l1.649-1.758h.22l4.835 4.945v.22l-1.539 1.538c-.11.11-.22.11-.22 0zm-9.34 5.495l-3.297 3.296c-.22.22-.55.22-.88 0-.11-.22-.219-.33-.219-.549 0-.22.11-.33.11-.44l3.297-3.296.989.989z" fill="var(--e-color-icon-stroke-1)"/><path fill-rule="evenodd" clip-rule="evenodd" d="M27.96 26.537c.53-.297 1.178-.146 1.448.336l1.58 2.826c.27.482.059 1.113-.471 1.41-.53.296-1.18.146-1.449-.336l-1.58-2.826c-.27-.482-.058-1.114.472-1.41zm2.475-1.526c.24-.558.846-.834 1.353-.616l2.905 1.249c.508.218.724.847.485 1.405-.24.558-.846.834-1.354.616l-2.905-1.249c-.507-.218-.724-.847-.484-1.405zm-5.22 1.67c.57.208.88.797.692 1.316l-1.175 3.236c-.188.52-.804.772-1.375.565-.571-.207-.881-.796-.693-1.315l1.175-3.237c.188-.519.804-.771 1.375-.564z" fill="var(--e-color-icon-positive)"/></svg>