<svg width="400" height="122" fill="none" xmlns="http://www.w3.org/2000/svg"><path d="M120.155 51.733v17.553H47.068V51.733h73.087zm-59.761 51.753c-23.693 0-42.898-19.241-42.898-42.977 0-23.735 19.205-42.976 42.898-42.976 13.636 0 25.774 6.38 33.629 16.313l13.159-11.595C96.105 8.673 79.262 0 60.394 0 27.039 0 0 27.089 0 60.504c0 33.416 27.039 60.504 60.394 60.504 18.868 0 35.717-8.673 46.788-22.25l-13.16-11.596c-7.854 9.94-19.992 16.324-33.629 16.324zM158.036 1.728h-17.521V119.28h17.521V1.728zm136.884 31.755H277.4v85.802h17.521V33.483zm-52.062 0l-25.314 59.41-25.314-59.41h-19.48l37.981 85.802h13.631l37.981-85.802h-19.485zM286.155.005c-5.579 0-10.102 4.531-10.102 10.121 0 5.59 4.523 10.122 10.102 10.122 5.58 0 10.103-4.532 10.103-10.122S291.735.006 286.155.006zm68.015 93.131c-5.295 0-9.585 4.298-9.585 9.602 0 5.305 4.29 9.602 9.585 9.602 5.295 0 9.585-4.297 9.585-9.602 0-5.304-4.29-9.602-9.585-9.602zm6.818-59.653h-13.631l-39.017 85.802h18.962l26.868-60.577 26.868 60.577H400l-39.012-85.802z" fill="url(#paint0_linear_1673_792)"/><defs><linearGradient id="paint0_linear_1673_792" x1="2.076" y1="83.496" x2="391.957" y2="42.593" gradientUnits="userSpaceOnUse"><stop stop-color="#EE0701"/><stop offset=".031" stop-color="#EE0B01"/><stop offset=".064" stop-color="#F01801"/><stop offset=".097" stop-color="#F22C01"/><stop offset=".13" stop-color="#F54901"/><stop offset=".164" stop-color="#FA6F00"/><stop offset=".197" stop-color="#FF9C00"/><stop offset=".2" stop-color="#FFA000"/><stop offset=".4" stop-color="#FF0"/><stop offset=".462" stop-color="#FF0"/><stop offset=".6" stop-color="#29D305"/><stop offset=".705" stop-color="#006DDB"/><stop offset=".8" stop-color="#006DDB"/><stop offset=".811" stop-color="#216DE2"/><stop offset=".829" stop-color="#4E6DEA"/><stop offset=".847" stop-color="#746DF2"/><stop offset=".865" stop-color="#916DF8"/><stop offset=".883" stop-color="#A56DFC"/><stop offset=".9" stop-color="#B26DFE"/><stop offset=".917" stop-color="#B66DFF"/><stop offset="1" stop-color="#B66DFF"/></linearGradient></defs></svg>