<svg width="148" height="25" fill="none" xmlns="http://www.w3.org/2000/svg"><g clip-path="url(#clip0_4978_37912)"><path d="M24.908 10.713H9.806v3.614h15.102v-3.614z" fill="#000"/><path d="M12.557 21.372c-4.892 0-8.862-3.966-8.862-8.852s3.97-8.852 8.862-8.852a8.862 8.862 0 0 1 6.946 3.357l2.719-2.384A12.452 12.452 0 0 0 12.557.054C5.664.054.077 5.635.077 12.52c0 6.885 5.587 12.466 12.48 12.466 3.896 0 7.374-1.786 9.665-4.587l-2.719-2.384a8.846 8.846 0 0 1-6.946 3.357zM32.732.418h-3.617v24.215h3.617V.418zM61.01 6.95h-3.618v17.672h3.618V6.95zm-10.757 0L45.03 19.191 39.796 6.95h-4.024l7.845 17.683h2.815L54.278 6.95h-4.025z" fill="#000"/><path d="M59.201 4.234a2.086 2.086 0 1 0-2.087-2.084c0 1.151.934 2.084 2.087 2.084zM73.254 23.2a1.979 1.979 0 1 0-1.98-1.977c0 1.092.887 1.977 1.98 1.977z" fill="#29D305"/><path d="M74.656 6.95h-2.815l-8.059 17.683h3.917l5.555-12.487 5.544 12.487h3.918L74.656 6.95z" fill="#000"/></g><g clip-path="url(#clip1_4978_37912)" fill="#000"><path d="M147.433 10.575h-14.871v3.586h14.871v-3.585z"/><path d="M135.271 21.151c-4.817 0-8.727-3.935-8.727-8.783 0-4.847 3.91-8.783 8.727-8.783 2.771 0 5.238 1.305 6.84 3.331l2.677-2.365C142.532 1.77 139.107 0 135.271 0c-6.788 0-12.29 5.537-12.29 12.368s5.502 12.368 12.29 12.368c3.836 0 7.261-1.771 9.517-4.55l-2.677-2.366a8.69 8.69 0 0 1-6.84 3.331z"/></g><defs><clipPath id="clip0_4978_37912"><path fill="#fff" d="M0 0H82.639V25H0z"/></clipPath><clipPath id="clip1_4978_37912"><path fill="#fff" transform="translate(122.639)" d="M0 0H25V25H0z"/></clipPath></defs></svg>