<svg width="72" height="72" fill="none" xmlns="http://www.w3.org/2000/svg"><g clip-path="url(#clip0_2826_330)"><path d="M71.747 30.71v10.407H28.154V30.71h43.593zM36.102 61.39c-14.131 0-25.586-11.406-25.586-25.476 0-14.071 11.455-25.477 25.586-25.477 8.133 0 15.373 3.781 20.058 9.67l7.849-6.873C57.402 5.184 47.356.043 36.102.043 16.208.043.08 16.101.08 35.911c0 19.809 16.128 35.867 36.022 35.867 11.254 0 21.303-5.141 27.907-13.19l-7.849-6.874c-4.685 5.892-11.925 9.677-20.058 9.677z" fill="url(#paint0_linear_2826_330)"/></g><defs><linearGradient id="paint0_linear_2826_330" x1=".276" y1="39.664" x2="71.893" y2="32.104" gradientUnits="userSpaceOnUse"><stop stop-color="#EE0701"/><stop offset=".023" stop-color="#F12001"/><stop offset=".076" stop-color="#F75700"/><stop offset=".122" stop-color="#FB7F00"/><stop offset=".158" stop-color="#FE9700"/><stop offset=".18" stop-color="#FFA000"/><stop offset=".346" stop-color="#FF0"/><stop offset=".621" stop-color="#29D305"/><stop offset=".783" stop-color="#006DDB"/><stop offset=".929" stop-color="#B66DFF"/></linearGradient><clipPath id="clip0_2826_330"><path fill="#fff" d="M0 0H72V72H0z"/></clipPath></defs></svg>