<svg width="41" height="41" viewBox="0 0 41 41" fill="none" xmlns="http://www.w3.org/2000/svg">
<circle cx="20.3589" cy="20.0351" r="19.9966" transform="rotate(-180 20.3589 20.0351)" fill="#29D305"/>
<path fill-rule="evenodd" clip-rule="evenodd" d="M12.6189 1.59436C2.43442 5.86545 -2.35935 17.584 1.91174 27.7685C3.3592 31.22 5.662 34.0523 8.47056 36.1226C18.2556 30.3267 28.895 25.8209 40.1545 22.8395C40.6472 19.3839 40.2412 15.7545 38.7931 12.3015C34.522 2.11704 22.8034 -2.67673 12.6189 1.59436Z" fill="#262626"/>
<path d="M12.1317 27.0933V13.7933H18.7057C19.5671 13.7933 20.3271 13.9516 20.9857 14.2683C21.6571 14.5723 22.1827 14.9966 22.5627 15.5413C22.9427 16.0859 23.1327 16.7129 23.1327 17.4223C23.1327 18.0429 22.9554 18.6066 22.6007 19.1133C22.2461 19.6073 21.7774 20.0063 21.1947 20.3103C21.8914 20.5889 22.4487 21.0006 22.8667 21.5453C23.2974 22.0773 23.5127 22.6853 23.5127 23.3693C23.5127 24.0913 23.3164 24.7373 22.9237 25.3073C22.5437 25.8646 22.0181 26.3016 21.3467 26.6183C20.6754 26.9349 19.8964 27.0933 19.0097 27.0933H12.1317ZM15.3997 19.1323H18.3257C18.7817 19.1323 19.1491 19.0056 19.4277 18.7523C19.7064 18.4989 19.8457 18.1696 19.8457 17.7643C19.8457 17.3463 19.7064 17.0169 19.4277 16.7763C19.1617 16.5229 18.7944 16.3963 18.3257 16.3963H15.3997V19.1323ZM15.3997 24.4903H18.5917C19.0857 24.4903 19.4784 24.3573 19.7697 24.0913C20.0611 23.8253 20.2067 23.4706 20.2067 23.0273C20.2067 22.5839 20.0611 22.2293 19.7697 21.9633C19.4784 21.6973 19.0857 21.5643 18.5917 21.5643H15.3997V24.4903ZM25.6938 27.0933V17.2893H28.7718V27.0933H25.6938ZM27.2328 15.7883C26.7641 15.7883 26.3588 15.6173 26.0168 15.2753C25.6748 14.9333 25.5038 14.5279 25.5038 14.0593C25.5038 13.5779 25.6748 13.1726 26.0168 12.8433C26.3588 12.5013 26.7641 12.3303 27.2328 12.3303C27.7141 12.3303 28.1195 12.5013 28.4488 12.8433C28.7908 13.1726 28.9618 13.5779 28.9618 14.0593C28.9618 14.5279 28.7908 14.9333 28.4488 15.2753C28.1195 15.6173 27.7141 15.7883 27.2328 15.7883Z" fill="white"/>
</svg>
