<svg width="41" height="42" viewBox="0 0 41 42" fill="none" xmlns="http://www.w3.org/2000/svg">
<circle cx="20.7627" cy="21.0327" r="19.9991" transform="rotate(-90 20.7627 21.0327)" fill="#29D305"/>
<path fill-rule="evenodd" clip-rule="evenodd" d="M40.1554 16.1322C30.9884 23.0811 22.8046 31.2594 15.8496 40.4216C12.4682 39.5682 9.26643 37.8189 6.62126 35.1737C-1.18886 27.3636 -1.18886 14.7009 6.62126 6.89079C14.4314 -0.919327 27.0941 -0.919327 34.9042 6.89079C37.5528 9.53937 39.3032 12.746 40.1554 16.1322Z" fill="#262626"/>
<path d="M12.7435 25.021H14.8905C15.5112 25.021 16.0685 24.85 16.5625 24.508C17.0565 24.166 17.4492 23.7036 17.7405 23.121C18.0445 22.5256 18.1965 21.8733 18.1965 21.164C18.1965 20.442 18.0445 19.7896 17.7405 19.207C17.4492 18.6243 17.0565 18.162 16.5625 17.82C16.0685 17.478 15.5112 17.307 14.8905 17.307H12.7435V25.021ZM9.4755 27.814V14.514H14.8905C15.8278 14.514 16.6955 14.685 17.4935 15.027C18.3042 15.369 19.0135 15.844 19.6215 16.452C20.2422 17.06 20.7235 17.7693 21.0655 18.58C21.4075 19.378 21.5785 20.2393 21.5785 21.164C21.5785 22.0886 21.4075 22.9563 21.0655 23.767C20.7235 24.565 20.2422 25.268 19.6215 25.876C19.0135 26.484 18.3042 26.959 17.4935 27.301C16.6955 27.643 15.8278 27.814 14.8905 27.814H9.4755ZM26.3718 27.966C25.7131 27.966 25.1241 27.8393 24.6048 27.586C24.0981 27.3326 23.6991 26.9843 23.4078 26.541C23.1291 26.0976 22.9898 25.5846 22.9898 25.002C22.9898 24.394 23.1418 23.881 23.4458 23.463C23.7498 23.0323 24.1868 22.7093 24.7568 22.494C25.3268 22.266 26.0108 22.152 26.8088 22.152C27.1634 22.152 27.5244 22.19 27.8918 22.266C28.2591 22.3293 28.6581 22.4433 29.0888 22.608V21.81C29.0888 21.3286 28.9304 20.974 28.6138 20.746C28.2971 20.5053 27.8094 20.385 27.1508 20.385C26.7834 20.385 26.3718 20.442 25.9158 20.556C25.4724 20.6573 24.9658 20.8283 24.3958 21.069L23.3318 18.922C24.9151 18.2126 26.4161 17.858 27.8348 17.858C29.1901 17.858 30.2414 18.181 30.9888 18.827C31.7488 19.473 32.1288 20.3786 32.1288 21.544V27.814H29.0888V26.959C28.6581 27.3136 28.2274 27.5733 27.7968 27.738C27.3661 27.89 26.8911 27.966 26.3718 27.966ZM25.8208 24.945C25.8208 25.2616 25.9538 25.5086 26.2198 25.686C26.4858 25.8506 26.8531 25.933 27.3218 25.933C27.6511 25.933 27.9614 25.895 28.2528 25.819C28.5441 25.7303 28.8228 25.6036 29.0888 25.439V24.185C28.8101 24.1216 28.5314 24.071 28.2528 24.033C27.9741 23.995 27.6891 23.976 27.3978 23.976C26.8911 23.976 26.4984 24.0583 26.2198 24.223C25.9538 24.3876 25.8208 24.6283 25.8208 24.945Z" fill="white"/>
</svg>
