<svg width="41" height="41" viewBox="0 0 41 41" fill="none" xmlns="http://www.w3.org/2000/svg">
<circle cx="20.9238" cy="20.032" r="20" transform="rotate(-90 20.9238 20.032)" fill="#29D305"/>
<path fill-rule="evenodd" clip-rule="evenodd" d="M36.8981 7.99585C31.18 17.829 26.7593 28.5097 23.8701 39.8036C20.4352 40.3158 16.822 39.9389 13.3744 38.5285C3.15895 34.3497 -1.73463 22.6808 2.44423 12.4654C6.62309 2.25002 18.2919 -2.64357 28.5073 1.53529C31.9608 2.948 34.806 5.2167 36.8981 7.99585Z" fill="#262626"/>
<path d="M14.2911 24.3244H16.4367C17.057 24.3244 17.614 24.1535 18.1077 23.8117C18.6014 23.4699 18.9938 23.0079 19.285 22.4256C19.5888 21.8306 19.7407 21.1787 19.7407 20.4698C19.7407 19.7482 19.5888 19.0963 19.285 18.514C18.9938 17.9317 18.6014 17.4696 18.1077 17.1278C17.614 16.786 17.057 16.6151 16.4367 16.6151H14.2911V24.3244ZM11.025 27.1157V13.8238H16.4367C17.3735 13.8238 18.2406 13.9947 19.0382 14.3365C19.8483 14.6783 20.5572 15.153 21.1649 15.7607C21.7851 16.3683 22.2662 17.0772 22.608 17.8874C22.9498 18.6849 23.1207 19.5457 23.1207 20.4698C23.1207 21.3939 22.9498 22.261 22.608 23.0712C22.2662 23.8687 21.7851 24.5713 21.1649 25.1789C20.5572 25.7865 19.8483 26.2612 19.0382 26.603C18.2406 26.9448 17.3735 27.1157 16.4367 27.1157H11.025ZM25.1722 27.1157V17.3177H28.2483V19.5393C28.5648 18.7165 28.9383 18.1089 29.3687 17.7165C29.8117 17.324 30.3244 17.1278 30.9067 17.1278C31.1219 17.1405 31.2991 17.1595 31.4384 17.1848C31.5776 17.2101 31.7422 17.2734 31.9321 17.3747V20.0141C31.7422 19.9128 31.5207 19.8368 31.2675 19.7862C31.0143 19.7356 30.7548 19.7102 30.489 19.7102C30.0333 19.7102 29.6092 19.8242 29.2168 20.052C28.8243 20.2672 28.5015 20.5584 28.2483 20.9255V27.1157H25.1722Z" fill="white"/>
</svg>
