<svg width="41" height="42" viewBox="0 0 41 42" fill="none" xmlns="http://www.w3.org/2000/svg">
<circle cx="20.4452" cy="21.0321" r="19.9989" fill="#29D305"/>
<path fill-rule="evenodd" clip-rule="evenodd" d="M15.5336 1.64307C22.4882 10.8048 30.6715 18.9828 39.838 25.9316C38.9859 29.3182 37.2355 32.5252 34.5866 35.174C26.7765 42.9841 14.1139 42.9841 6.30384 35.174C-1.50623 27.364 -1.50623 14.7013 6.30384 6.89127C8.94937 4.24574 12.1517 2.49634 15.5336 1.64307Z" fill="#262626"/>
<path d="M10.3306 26.9402V14.3402H19.8526V16.9322H13.4266V19.3262H17.9626V21.8462H13.4266V24.3482H19.9246V26.9402H10.3306ZM25.3399 26.9942C24.5839 26.9942 23.8939 26.7842 23.2699 26.3642C22.6459 25.9322 22.1479 25.3622 21.7759 24.6542C21.4159 23.9342 21.2359 23.1422 21.2359 22.2782C21.2359 21.4022 21.4279 20.6162 21.8119 19.9202C22.1959 19.2122 22.7119 18.6482 23.3599 18.2282C24.0199 17.8082 24.7519 17.5982 25.5559 17.5982C26.0479 17.5982 26.5039 17.6942 26.9239 17.8862C27.3559 18.0782 27.7279 18.3542 28.0399 18.7142V14.1242L30.9559 13.6742V26.9402H28.0759V25.7342C27.7759 26.1182 27.3799 26.4242 26.8879 26.6522C26.4079 26.8802 25.8919 26.9942 25.3399 26.9942ZM26.3119 24.5822C26.6599 24.5822 26.9779 24.5222 27.2659 24.4022C27.5539 24.2702 27.8119 24.0842 28.0399 23.8442V20.7122C27.8119 20.4722 27.5479 20.2922 27.2479 20.1722C26.9599 20.0522 26.6479 19.9922 26.3119 19.9922C25.8919 19.9922 25.5139 20.0942 25.1779 20.2982C24.8419 20.4902 24.5779 20.7602 24.3859 21.1082C24.1939 21.4562 24.0979 21.8522 24.0979 22.2962C24.0979 22.7282 24.1939 23.1182 24.3859 23.4662C24.5779 23.8142 24.8419 24.0902 25.1779 24.2942C25.5139 24.4862 25.8919 24.5822 26.3119 24.5822Z" fill="white"/>
</svg>
