<svg width="41" height="42" viewBox="0 0 41 42" fill="none" xmlns="http://www.w3.org/2000/svg">
<circle cx="20.8804" cy="21.0327" r="19.9703" transform="rotate(-90 20.8804 21.0327)" fill="#29D305"/>
<circle cx="20.8225" cy="21.0324" r="19.9993" transform="rotate(-90 20.8225 21.0324)" fill="#29D305"/>
<path fill-rule="evenodd" clip-rule="evenodd" d="M31.0485 3.84167C30.2738 9.48224 29.8734 15.2422 29.8734 21.0956C29.8734 26.9087 30.2682 32.6295 31.0325 38.2328C28.0439 40.0107 24.5524 41.0318 20.8225 41.0318C9.77723 41.0318 0.823242 32.0778 0.823242 21.0325C0.823242 9.98719 9.77723 1.0332 20.8225 1.0332C24.5591 1.0332 28.0563 2.05792 31.0485 3.84167Z" fill="#262626"/>
<path d="M11.8451 27.9402V14.6402H21.8961V17.3762H15.1131V19.9032H19.9011V22.5632H15.1131V25.2042H21.9721V27.9402H11.8451ZM25.4225 27.9402V20.5112H23.3895V18.1362H25.4225V16.8442C25.4225 15.6789 25.7581 14.7859 26.4295 14.1652C27.1008 13.5445 28.0698 13.2342 29.3365 13.2342C29.6025 13.2342 29.8875 13.2532 30.1915 13.2912C30.5081 13.3165 30.7678 13.3609 30.9705 13.4242V15.9512C30.6918 15.9005 30.4701 15.8689 30.3055 15.8562C30.1408 15.8435 29.9698 15.8372 29.7925 15.8372C29.3618 15.8372 29.0388 15.9259 28.8235 16.1032C28.6081 16.2679 28.5005 16.5339 28.5005 16.9012V18.1362H30.9705V20.5112H28.5005V27.9402H25.4225Z" fill="white"/>
</svg>
