<svg width="41" height="42" viewBox="0 0 41 42" fill="none" xmlns="http://www.w3.org/2000/svg">
<circle cx="20.1279" cy="21.0381" r="20" transform="rotate(180 20.1279 21.0381)" fill="#29D305"/>
<path fill-rule="evenodd" clip-rule="evenodd" d="M22.8936 1.22621C25.8829 12.4949 30.3995 23.1419 36.2083 32.932C34.1396 35.7315 31.3126 38.0268 27.8695 39.4708C17.6863 43.7413 5.96919 38.9482 1.69865 28.765C-2.57189 18.5818 2.22126 6.8647 12.4045 2.59416C15.8412 1.15289 19.4527 0.743976 22.8936 1.22621Z" fill="#262626"/>
<path d="M10.3544 28.1302C9.39175 28.1302 8.51775 27.9085 7.73241 27.4652C6.95975 27.0092 6.33908 26.4012 5.87041 25.6412C5.41441 24.8685 5.18641 24.0072 5.18641 23.0572C5.18641 22.0945 5.40175 21.2332 5.83241 20.4732C6.26308 19.7132 6.85208 19.1115 7.59941 18.6682C8.34675 18.2122 9.18908 17.9842 10.1264 17.9842C11.0764 17.9842 11.9124 18.2059 12.6344 18.6492C13.3564 19.0925 13.9201 19.7069 14.3254 20.4922C14.7434 21.2649 14.9524 22.1579 14.9524 23.1712V23.8362H8.20741C8.30875 24.2035 8.46708 24.5265 8.68241 24.8052C8.89775 25.0839 9.16375 25.2992 9.48041 25.4512C9.79708 25.6032 10.1391 25.6792 10.5064 25.6792C10.9117 25.6792 11.2791 25.6095 11.6084 25.4702C11.9504 25.3309 12.2291 25.1282 12.4444 24.8622L14.4774 26.5532C13.8441 27.1105 13.2044 27.5159 12.5584 27.7692C11.9124 28.0099 11.1777 28.1302 10.3544 28.1302ZM8.20741 22.0882H12.1024C12.0137 21.7335 11.8744 21.4295 11.6844 21.1762C11.4944 20.9229 11.2664 20.7265 11.0004 20.5872C10.7344 20.4479 10.4367 20.3782 10.1074 20.3782C9.79075 20.3782 9.49941 20.4479 9.23341 20.5872C8.98008 20.7139 8.76475 20.9039 8.58741 21.1572C8.42275 21.4105 8.29608 21.7209 8.20741 22.0882ZM16.9678 27.9402V14.6402H20.2358V27.9402H16.9678ZM26.2758 25.1472H28.4228C29.0435 25.1472 29.6008 24.9762 30.0948 24.6342C30.5888 24.2922 30.9815 23.8299 31.2728 23.2472C31.5768 22.6519 31.7288 21.9995 31.7288 21.2902C31.7288 20.5682 31.5768 19.9159 31.2728 19.3332C30.9815 18.7505 30.5888 18.2882 30.0948 17.9462C29.6008 17.6042 29.0435 17.4332 28.4228 17.4332H26.2758V25.1472ZM23.0078 27.9402V14.6402H28.4228C29.3601 14.6402 30.2278 14.8112 31.0258 15.1532C31.8365 15.4952 32.5458 15.9702 33.1538 16.5782C33.7745 17.1862 34.2558 17.8955 34.5978 18.7062C34.9398 19.5042 35.1108 20.3655 35.1108 21.2902C35.1108 22.2149 34.9398 23.0825 34.5978 23.8932C34.2558 24.6912 33.7745 25.3942 33.1538 26.0022C32.5458 26.6102 31.8365 27.0852 31.0258 27.4272C30.2278 27.7692 29.3601 27.9402 28.4228 27.9402H23.0078Z" fill="white"/>
</svg>
