<svg width="42" height="42" viewBox="0 0 42 42" fill="none" xmlns="http://www.w3.org/2000/svg">
<circle cx="20.9973" cy="21.0346" r="19.9993" transform="rotate(-90 20.9973 21.0346)" fill="#29D305"/>
<path fill-rule="evenodd" clip-rule="evenodd" d="M10.6553 3.91765C11.4235 9.53511 11.8204 15.2708 11.8204 21.0992C11.8204 26.8883 11.4288 32.5858 10.6708 38.1669C13.6858 39.989 17.2207 41.0376 21.0006 41.0376C32.0463 41.0376 41.0006 32.0833 41.0006 21.0376C41.0006 9.9919 32.0463 1.0376 21.0006 1.0376C17.2143 1.0376 13.6737 2.08976 10.6553 3.91765Z" fill="#262626"/>
<path d="M14.7571 28.0775C13.3765 28.0775 12.2111 27.7291 11.2611 27.0325C10.3238 26.3358 9.66514 25.3288 9.28514 24.0115L12.3061 22.9285C12.5341 23.7011 12.8508 24.2775 13.2561 24.6575C13.6615 25.0248 14.1681 25.2085 14.7761 25.2085C15.4475 25.2085 15.9921 24.9678 16.4101 24.4865C16.8281 23.9925 17.0371 23.3591 17.0371 22.5865V14.5875H20.3051V22.6815C20.3051 23.7581 20.0708 24.7018 19.6021 25.5125C19.1461 26.3231 18.5001 26.9565 17.6641 27.4125C16.8408 27.8558 15.8718 28.0775 14.7571 28.0775ZM27.4149 28.0775C26.4396 28.0775 25.5656 27.8558 24.7929 27.4125C24.0203 26.9691 23.4059 26.3675 22.9499 25.6075C22.5066 24.8348 22.2849 23.9671 22.2849 23.0045C22.2849 22.0418 22.5066 21.1805 22.9499 20.4205C23.4059 19.6478 24.0203 19.0398 24.7929 18.5965C25.5656 18.1531 26.4333 17.9315 27.3959 17.9315C28.3713 17.9315 29.2389 18.1531 29.9989 18.5965C30.7716 19.0398 31.3796 19.6478 31.8229 20.4205C32.2789 21.1805 32.5069 22.0418 32.5069 23.0045C32.5069 23.9671 32.2789 24.8348 31.8229 25.6075C31.3796 26.3675 30.7716 26.9691 29.9989 27.4125C29.2389 27.8558 28.3776 28.0775 27.4149 28.0775ZM27.3959 25.5125C27.8139 25.5125 28.1813 25.4048 28.4979 25.1895C28.8146 24.9741 29.0616 24.6765 29.2389 24.2965C29.4163 23.9165 29.5049 23.4858 29.5049 23.0045C29.5049 22.5105 29.4163 22.0798 29.2389 21.7125C29.0616 21.3325 28.8146 21.0348 28.4979 20.8195C28.1813 20.6041 27.8139 20.4965 27.3959 20.4965C26.9906 20.4965 26.6233 20.6041 26.2939 20.8195C25.9773 21.0348 25.7303 21.3325 25.5529 21.7125C25.3756 22.0798 25.2869 22.5105 25.2869 23.0045C25.2869 23.4858 25.3756 23.9165 25.5529 24.2965C25.7303 24.6765 25.9773 24.9741 26.2939 25.1895C26.6233 25.4048 26.9906 25.5125 27.3959 25.5125Z" fill="white"/>
</svg>
