<svg width="41" height="41" viewBox="0 0 41 41" fill="none" xmlns="http://www.w3.org/2000/svg">
<circle cx="20.6025" cy="20.0286" r="20" transform="rotate(-90 20.6025 20.0286)" fill="#29D305"/>
<path fill-rule="evenodd" clip-rule="evenodd" d="M4.5625 31.9782C10.2527 22.173 14.6543 11.5271 17.5355 0.272273C21.0116 -0.270005 24.6752 0.0984974 28.1689 1.52768C38.389 5.70845 43.2849 17.3827 39.1041 27.6027C34.9233 37.8228 23.2491 42.7187 13.029 38.5379C9.53427 37.1083 6.66209 34.8025 4.5625 31.9782Z" fill="#262626"/>
<path d="M9.65958 27.0034V13.7034H12.9276V19.4794L17.8866 13.7034H21.7816L15.9676 19.9544L22.1236 27.0034H17.8486L12.9276 20.9614V27.0034H9.65958ZM25.8194 27.1554C25.1861 27.1554 24.6224 27.0161 24.1284 26.7374C23.6471 26.4461 23.2671 26.0534 22.9884 25.5594C22.7098 25.0528 22.5704 24.4701 22.5704 23.8114V17.1994H25.6484V22.9184C25.6484 23.4631 25.7941 23.9064 26.0854 24.2484C26.3894 24.5778 26.7884 24.7424 27.2824 24.7424C27.6118 24.7424 27.9094 24.6791 28.1754 24.5524C28.4541 24.4131 28.7011 24.2041 28.9164 23.9254V17.1994H31.9944V27.0034H28.9164V25.4074C28.5364 25.9774 28.0804 26.4144 27.5484 26.7184C27.0291 27.0098 26.4528 27.1554 25.8194 27.1554Z" fill="white"/>
</svg>
