<svg width="41" height="42" viewBox="0 0 41 42" fill="none" xmlns="http://www.w3.org/2000/svg">
<circle cx="20.3459" cy="21.0323" r="19.9992" transform="rotate(-90 20.3459 21.0323)" fill="#29D305"/>
<path fill-rule="evenodd" clip-rule="evenodd" d="M0.930664 25.8525C10.0637 18.9141 18.2182 10.7544 25.1508 1.6167C28.5712 2.46015 31.8122 4.21824 34.485 6.89098C42.2951 14.7012 42.2951 27.3639 34.485 35.1741C26.6748 42.9843 14.012 42.9843 6.20185 35.1741C3.53238 32.5046 1.77531 29.2682 0.930664 25.8525Z" fill="#262626"/>
<path d="M9.91398 27.9402V14.6402H13.182V20.4162L18.141 14.6402H22.036L16.222 20.8912L22.378 27.9402H18.103L13.182 21.8982V27.9402H9.91398ZM25.2512 27.9402L21.2802 18.1362H24.6242L26.8472 24.2922L29.0892 18.1362H32.2622L28.2532 27.9402H25.2512Z" fill="white"/>
</svg>
