<svg width="41" height="41" viewBox="0 0 41 41" fill="none" xmlns="http://www.w3.org/2000/svg">
<circle cx="19.9985" cy="20.0371" r="19.9703" transform="rotate(180 19.9985 20.0371)" fill="#29D305"/>
<circle cx="19.9997" cy="20.0324" r="19.9993" transform="rotate(180 19.9997 20.0324)" fill="#29D305"/>
<path fill-rule="evenodd" clip-rule="evenodd" d="M20.0032 0.0332031C8.9579 0.0332041 0.00390528 8.9872 0.00390625 20.0325C0.00390658 23.7867 1.0383 27.2992 2.83762 30.3007C8.42912 29.5397 14.1376 29.1467 19.9379 29.1467C25.78 29.1467 31.5289 29.5454 37.1589 30.3172C38.9643 27.3121 40.0025 23.7935 40.0025 20.0325C40.0025 8.9872 31.0485 0.0332022 20.0032 0.0332031Z" fill="#262626"/>
<path d="M9.59366 27.0667V13.7666H12.8617V24.2737H19.4547V27.0667H9.59366ZM26.0304 27.2567C25.055 27.2567 24.181 27.035 23.4084 26.5917C22.6357 26.1483 22.0214 25.5467 21.5654 24.7867C21.122 24.014 20.9004 23.1463 20.9004 22.1837C20.9004 21.221 21.122 20.3597 21.5654 19.5997C22.0214 18.827 22.6357 18.219 23.4084 17.7756C24.181 17.3323 25.0487 17.1106 26.0114 17.1106C26.9867 17.1106 27.8544 17.3323 28.6144 17.7756C29.387 18.219 29.995 18.827 30.4384 19.5997C30.8944 20.3597 31.1224 21.221 31.1224 22.1837C31.1224 23.1463 30.8944 24.014 30.4384 24.7867C29.995 25.5467 29.387 26.1483 28.6144 26.5917C27.8544 27.035 26.993 27.2567 26.0304 27.2567ZM26.0114 24.6917C26.4294 24.6917 26.7967 24.584 27.1134 24.3687C27.43 24.1533 27.677 23.8557 27.8544 23.4757C28.0317 23.0957 28.1204 22.665 28.1204 22.1837C28.1204 21.6897 28.0317 21.259 27.8544 20.8917C27.677 20.5117 27.43 20.214 27.1134 19.9987C26.7967 19.7833 26.4294 19.6756 26.0114 19.6756C25.606 19.6756 25.2387 19.7833 24.9094 19.9987C24.5927 20.214 24.3457 20.5117 24.1684 20.8917C23.991 21.259 23.9024 21.6897 23.9024 22.1837C23.9024 22.665 23.991 23.0957 24.1684 23.4757C24.3457 23.8557 24.5927 24.1533 24.9094 24.3687C25.2387 24.584 25.606 24.6917 26.0114 24.6917Z" fill="white"/>
</svg>
