<svg width="41" height="41" viewBox="0 0 41 41" fill="none" xmlns="http://www.w3.org/2000/svg">
<circle cx="20.6987" cy="20.0446" r="19.9703" transform="rotate(22.2482 20.6987 20.0446)" fill="#29D305"/>
<circle cx="20.7178" cy="20.0332" r="20" fill="#29D305"/>
<path fill-rule="evenodd" clip-rule="evenodd" d="M8.68849 4.04688C18.5212 9.75458 29.1993 14.1666 40.4892 17.0491C41.0127 20.5009 40.6386 24.1343 39.2207 27.6005C35.0392 37.8224 23.3629 42.719 13.141 38.5375C2.91914 34.356 -1.97755 22.6798 2.20397 12.4579C3.62093 8.99405 5.89852 6.1417 8.68849 4.04688Z" fill="#262626"/>
<path d="M7.78284 27.1062V13.8062H11.8868L15.0978 20.1902L18.2898 13.8062H22.3938V27.1062H19.3158V18.0812L15.0598 26.1562L10.7848 18.0052V27.1062H7.78284ZM24.0674 27.1062L27.7344 22.1092L24.1814 17.3022H27.7344L29.5584 19.9432L31.3824 17.3022H34.8024L31.1924 22.1662L34.9164 27.1062H31.3444L29.4064 24.3132L27.4684 27.1062H24.0674Z" fill="white"/>
</svg>
