<svg width="42" height="41" viewBox="0 0 42 41" fill="none" xmlns="http://www.w3.org/2000/svg">
<circle cx="20.9404" cy="20.0266" r="20" transform="rotate(-180 20.9404 20.0266)" fill="#29D305"/>
<path fill-rule="evenodd" clip-rule="evenodd" d="M1.14903 17.1925C12.3861 14.2041 23.0042 9.6969 32.7699 3.90405C35.6036 5.97767 37.9271 8.82443 39.3841 12.2985C43.6548 22.4823 38.8614 34.2 28.6776 38.4708C18.4939 42.7415 6.77616 37.9481 2.50538 27.7644C1.05256 24.3001 0.64865 20.6583 1.14903 17.1925Z" fill="#262626"/>
<path d="M8.67862 27.4243V14.1243H12.7826L15.9936 20.5083L19.1856 14.1243H23.2896V27.4243H20.2116V18.3993L15.9556 26.4743L11.6806 18.3233V27.4243H8.67862ZM30.6062 27.6143C29.6562 27.6143 28.7948 27.3926 28.0222 26.9493C27.2622 26.4933 26.6542 25.8853 26.1982 25.1253C25.7548 24.3526 25.5332 23.4913 25.5332 22.5413C25.5332 21.5786 25.7548 20.7173 26.1982 19.9573C26.6542 19.1973 27.2622 18.5956 28.0222 18.1523C28.7948 17.6963 29.6562 17.4683 30.6062 17.4683C31.4168 17.4683 32.1768 17.6266 32.8862 17.9433C33.5955 18.2473 34.1972 18.6906 34.6912 19.2733L32.8102 21.1543C32.4935 20.787 32.1705 20.521 31.8412 20.3563C31.5118 20.179 31.1382 20.0903 30.7202 20.0903C30.3148 20.0903 29.9475 20.198 29.6182 20.4133C29.3015 20.6286 29.0482 20.92 28.8582 21.2873C28.6808 21.6546 28.5922 22.0726 28.5922 22.5413C28.5922 23.01 28.6808 23.428 28.8582 23.7953C29.0482 24.1626 29.3015 24.454 29.6182 24.6693C29.9475 24.8846 30.3148 24.9923 30.7202 24.9923C31.1382 24.9923 31.5118 24.91 31.8412 24.7453C32.1705 24.568 32.4935 24.2956 32.8102 23.9283L34.6912 25.8093C34.1972 26.392 33.5955 26.8416 32.8862 27.1583C32.1768 27.4623 31.4168 27.6143 30.6062 27.6143Z" fill="white"/>
</svg>
