<svg width="41" height="41" viewBox="0 0 41 41" fill="none" xmlns="http://www.w3.org/2000/svg">
<circle cx="20.7485" cy="20.0371" r="19.9703" transform="rotate(180 20.7485 20.0371)" fill="#29D305"/>
<circle cx="20.7536" cy="20.0315" r="19.9983" transform="rotate(180 20.7536 20.0315)" fill="#29D305"/>
<path fill-rule="evenodd" clip-rule="evenodd" d="M3.59017 9.76445C9.18158 10.5254 14.89 10.9185 20.6902 10.9185C26.532 10.9185 32.2806 10.5198 37.9103 9.74805C39.7155 12.7529 40.7535 16.2711 40.7535 20.0318C40.7535 31.0765 31.7999 40.0301 20.7552 40.0301C9.71039 40.0301 0.756837 31.0765 0.756836 20.0318C0.756836 16.278 1.79108 12.7657 3.59017 9.76445Z" fill="#262626"/>
<path d="M4.76896 27.0667V13.7666H8.87296L12.084 20.1506L15.276 13.7666H19.38V27.0667H16.302V18.0416L12.046 26.1167L7.77096 17.9656V27.0667H4.76896ZM22.0605 27.0667V17.2626H25.1385V18.8207C25.5058 18.2633 25.9302 17.839 26.4115 17.5476C26.9055 17.2563 27.4502 17.1106 28.0455 17.1106C28.6788 17.1106 29.2362 17.2753 29.7175 17.6046C30.1988 17.934 30.5598 18.3773 30.8005 18.9346C31.1805 18.3393 31.6428 17.8897 32.1875 17.5857C32.7322 17.269 33.3402 17.1106 34.0115 17.1106C34.6195 17.1106 35.1515 17.2563 35.6075 17.5476C36.0762 17.839 36.4372 18.2443 36.6905 18.7637C36.9565 19.283 37.0895 19.8783 37.0895 20.5496V27.0667H34.0115V21.1577C34.0115 20.6636 33.8785 20.271 33.6125 19.9796C33.3465 19.6757 32.9918 19.5237 32.5485 19.5237C32.2698 19.5237 32.0102 19.587 31.7695 19.7136C31.5415 19.8276 31.3262 20.0113 31.1235 20.2647C31.1235 20.3153 31.1235 20.366 31.1235 20.4166C31.1235 20.4547 31.1235 20.499 31.1235 20.5496V27.0667H28.0455V21.1577C28.0455 20.6636 27.9125 20.271 27.6465 19.9796C27.3805 19.6757 27.0258 19.5237 26.5825 19.5237C26.0125 19.5237 25.5312 19.777 25.1385 20.2836V27.0667H22.0605Z" fill="white"/>
</svg>
