<svg width="24" height="24" viewBox="0 0 24 24" fill="none" xmlns="http://www.w3.org/2000/svg">
<path d="M3.75 1.5C3.15326 1.5 2.58097 1.73705 2.15901 2.15901C1.73705 2.58097 1.5 3.15326 1.5 3.75V12H12.75C13.1642 12 13.5 12.3358 13.5 12.75C13.5 13.1642 13.1642 13.5 12.75 13.5H1.62868C1.7395 13.8134 1.91946 14.1014 2.15901 14.341C2.58097 14.7629 3.15326 15 3.75 15H11.25C11.6642 15 12 15.3358 12 15.75C12 16.1642 11.6642 16.5 11.25 16.5H9.63548L9.13548 19.5H11.25C11.6642 19.5 12 19.8358 12 20.25C12 20.6642 11.6642 21 11.25 21H8.2697C8.2573 21.0003 8.24483 21.0003 8.23232 21H6C5.58579 21 5.25 20.6642 5.25 20.25C5.25 19.8358 5.58579 19.5 6 19.5H7.61479L8.11479 16.5H3.75C2.75544 16.5 1.80161 16.1049 1.09835 15.4017C0.395088 14.6984 0 13.7446 0 12.75V3.75C0 2.75544 0.395088 1.80161 1.09835 1.09835C1.80161 0.395088 2.75544 0 3.75 0H20.25C21.2446 0 22.1984 0.395088 22.9017 1.09835C23.6049 1.80161 24 2.75544 24 3.75V9.75C24 10.1642 23.6642 10.5 23.25 10.5C22.8358 10.5 22.5 10.1642 22.5 9.75V3.75C22.5 3.15326 22.2629 2.58097 21.841 2.15901C21.419 1.73705 20.8467 1.5 20.25 1.5H3.75Z" fill="black"/>
<path d="M18.0338 19.9203C18.0338 20.3343 18.3697 20.6703 18.7838 20.6703C19.1978 20.6703 19.5338 20.3343 19.5338 19.9203L19.5337 19C19.5337 18.586 19.1977 18.25 18.7837 18.25C18.3697 18.25 18.0337 18.586 18.0337 19L18.0338 19.9203Z" fill="black"/>
<path fill-rule="evenodd" clip-rule="evenodd" d="M22.5 14.25V15.128C23.3739 15.4369 24 16.2703 24 17.25V21.75C24 22.9926 22.9926 24 21.75 24H15.75C14.5074 24 13.5 22.9926 13.5 21.75V17.25C13.5 16.2703 14.1261 15.4369 15 15.128V14.25C15 13.2554 15.3951 12.3016 16.0983 11.5983C16.8016 10.8951 17.7554 10.5 18.75 10.5C19.7446 10.5 20.6984 10.8951 21.4017 11.5983C22.1049 12.3016 22.5 13.2554 22.5 14.25ZM15 17.25C15 16.8358 15.3358 16.5 15.75 16.5H21.75C22.1642 16.5 22.5 16.8358 22.5 17.25V21.75C22.5 22.1642 22.1642 22.5 21.75 22.5H15.75C15.3358 22.5 15 22.1642 15 21.75V17.25ZM21 14.25V15H16.5V14.25C16.5 13.6533 16.7371 13.081 17.159 12.659C17.581 12.2371 18.1533 12 18.75 12C19.3467 12 19.919 12.2371 20.341 12.659C20.7629 13.081 21 13.6533 21 14.25Z" fill="black"/>
</svg>
