<svg width="24" height="24" viewBox="0 0 24 24" fill="none" xmlns="http://www.w3.org/2000/svg">
<path fill-rule="evenodd" clip-rule="evenodd" d="M15.75 16.5C15.3358 16.5 15 16.8358 15 17.25V21.75C15 22.1642 15.3358 22.5 15.75 22.5H21.75C22.1642 22.5 22.5 22.1642 22.5 21.75V17.25C22.5 16.8358 22.1642 16.5 21.75 16.5H15.75ZM13.5 17.25C13.5 16.0074 14.5074 15 15.75 15H21.75C22.9926 15 24 16.0074 24 17.25V21.75C24 22.9926 22.9926 24 21.75 24H15.75C14.5074 24 13.5 22.9926 13.5 21.75V17.25Z" fill="#29D305"/>
<path fill-rule="evenodd" clip-rule="evenodd" d="M16.0983 11.5983C16.8016 10.8951 17.7554 10.5 18.75 10.5C19.7446 10.5 20.6984 10.8951 21.4017 11.5983C22.1049 12.3016 22.5 13.2554 22.5 14.25V15.75C22.5 16.1642 22.1642 16.5 21.75 16.5H15.75C15.3358 16.5 15 16.1642 15 15.75V14.25C15 13.2554 15.3951 12.3016 16.0983 11.5983ZM18.75 12C18.1533 12 17.581 12.2371 17.159 12.659C16.7371 13.081 16.5 13.6533 16.5 14.25V15H21V14.25C21 13.6533 20.7629 13.081 20.341 12.659C19.919 12.2371 19.3467 12 18.75 12Z" fill="#29D305"/>
<path d="M2.15901 2.15901C2.58097 1.73705 3.15326 1.5 3.75 1.5H20.25C20.8467 1.5 21.419 1.73705 21.841 2.15901C22.2629 2.58097 22.5 3.15326 22.5 3.75V9.75C22.5 10.1642 22.8358 10.5 23.25 10.5C23.6642 10.5 24 10.1642 24 9.75V3.75C24 2.75544 23.6049 1.80161 22.9017 1.09835C22.1984 0.395088 21.2446 0 20.25 0H3.75C2.75544 0 1.80161 0.395088 1.09835 1.09835C0.395088 1.80161 0 2.75544 0 3.75V12.75C0 13.7446 0.395088 14.6984 1.09835 15.4017C1.80161 16.1049 2.75544 16.5 3.75 16.5H8.11479L7.61479 19.5H6C5.58579 19.5 5.25 19.8358 5.25 20.25C5.25 20.6642 5.58579 21 6 21H8.23232C8.24483 21.0003 8.2573 21.0003 8.2697 21H11.25C11.6642 21 12 20.6642 12 20.25C12 19.8358 11.6642 19.5 11.25 19.5H9.13548L9.63548 16.5H11.25C11.6642 16.5 12 16.1642 12 15.75C12 15.3358 11.6642 15 11.25 15H3.75C3.15326 15 2.58097 14.7629 2.15901 14.341C1.91946 14.1014 1.7395 13.8134 1.62868 13.5H12.75C13.1642 13.5 13.5 13.1642 13.5 12.75C13.5 12.3358 13.1642 12 12.75 12H1.5V3.75C1.5 3.15326 1.73705 2.58097 2.15901 2.15901Z" fill="black"/>
<path d="M18.7838 20.6703C18.3697 20.6703 18.0338 20.3343 18.0338 19.9203L18.0337 19C18.0337 18.586 18.3697 18.25 18.7837 18.25C19.1977 18.25 19.5337 18.586 19.5337 19L19.5338 19.9203C19.5338 20.3343 19.1978 20.6703 18.7838 20.6703Z" fill="black"/>
</svg>
