<svg width="24" height="24" fill="none" xmlns="http://www.w3.org/2000/svg"><g clip-path="url(#clip0)"><path fill-rule="evenodd" clip-rule="evenodd" d="M.009 18.753a2.252 2.252 0 002.25 2.25H8.75a.75.75 0 000-1.5H2.259a.75.75 0 01-.75-.75V6.003h19.5V9.25a.75.75 0 001.5 0V2.253a2.252 2.252 0 00-2.25-2.25h-18a2.252 2.252 0 00-2.25 2.25v16.5zm21-16.5v2.25h-19.5v-2.25a.75.75 0 01.75-.75h18a.75.75 0 01.75.75zm-10.5 15a6.758 6.758 0 006.75 6.75 6.758 6.758 0 006.75-6.75 6.758 6.758 0 00-6.75-6.75 6.758 6.758 0 00-6.75 6.75zm1.5 0a5.256 5.256 0 015.25-5.25 5.256 5.256 0 015.25 5.25 5.256 5.256 0 01-5.25 5.25 5.256 5.256 0 01-5.25-5.25zm5.25 3.75a.75.75 0 01-.75-.75v-2.25h-2.25a.75.75 0 010-1.5h2.25v-2.25a.75.75 0 011.5 0v2.25h2.25a.75.75 0 010 1.5h-2.25v2.25a.75.75 0 01-.75.75zm-11.39-8.35H8.14v.973H4.896v-3.244h2.27V9.3h-2.27v-.973H8.14v3.028H5.87v1.298zm3.787-4.326h3.245v1.801a8.035 8.035 0 00-1.57 1.227H9.656v-.973h2.272V9.3H9.656v-.973zm.627 4.326h-.627v.973h.088c.157-.337.338-.663.539-.973zM17 9a7.99 7.99 0 00-2.582.426v-1.1h3.028v.686A8.125 8.125 0 0017 9z" fill="#000"/></g><defs><clipPath id="clip0"><path fill="#fff" d="M0 0h24v24H0z"/></clipPath></defs></svg>