<svg width="24" height="24" fill="none" xmlns="http://www.w3.org/2000/svg"><g clip-path="url(#clip0)"><path d="M2.259 21.003a2.252 2.252 0 01-2.25-2.25v-16.5a2.252 2.252 0 012.25-2.25h18a2.252 2.252 0 012.25 2.25V9.25a.75.75 0 01-1.5 0V6.003h-19.5v12.75c0 .414.336.75.75.75H8.75a.75.75 0 010 1.5H2.259zm18.75-16.5v-2.25a.75.75 0 00-.75-.75h-18a.75.75 0 00-.75.75v2.25h19.5z" fill="#000"/><path d="M17.259 24.003a6.758 6.758 0 01-6.75-6.75 6.758 6.758 0 016.75-6.75 6.758 6.758 0 016.75 6.75 6.758 6.758 0 01-6.75 6.75zm0-12a5.256 5.256 0 00-5.25 5.25 5.256 5.256 0 005.25 5.25 5.256 5.256 0 005.25-5.25 5.256 5.256 0 00-5.25-5.25z" fill="#29D305"/><path d="M17.259 21.003a.75.75 0 01-.75-.75v-2.25h-2.25a.75.75 0 010-1.5h2.25v-2.25a.75.75 0 011.5 0v2.25h2.25a.75.75 0 010 1.5h-2.25v2.25a.75.75 0 01-.75.75zM8.14 12.653H5.87v-1.298H8.14V8.327H4.896V9.3h2.27v1.082h-2.27v3.245H8.14v-.974z" fill="#000"/><path fill-rule="evenodd" clip-rule="evenodd" d="M9.656 8.327h3.245v1.801a8.035 8.035 0 00-1.57 1.227H9.656v-.973h2.272V9.3H9.656v-.973zm.627 4.326h-.627v.973h.088c.157-.337.338-.663.539-.973zM14.418 9.426a7.99 7.99 0 013.028-.414v-.685h-3.029v1.099z" fill="#000"/></g><defs><clipPath id="clip0"><path fill="#fff" d="M0 0h24v24H0z"/></clipPath></defs></svg>