<svg width="24" height="25" viewBox="0 0 24 25" fill="none" xmlns="http://www.w3.org/2000/svg">
<path d="M12 24.0275C5.383 24.0275 0 18.6445 0 12.0275C0 5.41053 5.383 0.0275269 12 0.0275269C18.617 0.0275269 24 5.41053 24 12.0275C24 18.6445 18.617 24.0275 12 24.0275Z" fill="black"/>
<path d="M12 17.2775C11.586 17.2775 11.25 16.9415 11.25 16.5275V12.7775H7.5C7.086 12.7775 6.75 12.4415 6.75 12.0275C6.75 11.6135 7.086 11.2775 7.5 11.2775H11.25V7.52753C11.25 7.11353 11.586 6.77753 12 6.77753C12.414 6.77753 12.75 7.11353 12.75 7.52753V11.2775H16.5C16.914 11.2775 17.25 11.6135 17.25 12.0275C17.25 12.4415 16.914 12.7775 16.5 12.7775H12.75V16.5275C12.75 16.9415 12.414 17.2775 12 17.2775Z" fill="white"/>
</svg>
