<svg width="24" height="24" viewBox="0 0 24 24" fill="none" xmlns="http://www.w3.org/2000/svg">
<path d="M11.25 16.5C11.25 16.914 11.586 17.25 12 17.25C12.414 17.25 12.75 16.914 12.75 16.5V12.75H16.5C16.914 12.75 17.25 12.414 17.25 12C17.25 11.586 16.914 11.25 16.5 11.25H12.75V7.5C12.75 7.086 12.414 6.75 12 6.75C11.586 6.75 11.25 7.086 11.25 7.5V11.25H7.5C7.086 11.25 6.75 11.586 6.75 12C6.75 12.414 7.086 12.75 7.5 12.75H11.25V16.5Z" fill="black"/>
<path fill-rule="evenodd" clip-rule="evenodd" d="M0 12C0 18.617 5.383 24 12 24C18.617 24 24 18.617 24 12C24 5.383 18.617 0 12 0C5.383 0 0 5.383 0 12ZM1.5 12C1.5 6.21 6.21 1.5 12 1.5C17.79 1.5 22.5 6.21 22.5 12C22.5 17.79 17.79 22.5 12 22.5C6.21 22.5 1.5 17.79 1.5 12Z" fill="black"/>
</svg>
