<svg width="25" height="24" viewBox="0 0 25 24" fill="none" xmlns="http://www.w3.org/2000/svg">
<path fill-rule="evenodd" clip-rule="evenodd" d="M0.00201416 11.998C0.00201416 11.5838 0.337801 11.248 0.752014 11.248H9.00201C9.41623 11.248 9.75201 11.5838 9.75201 11.998C9.75201 12.4123 9.41623 12.748 9.00201 12.748H0.752014C0.337801 12.748 0.00201416 12.4123 0.00201416 11.998Z" fill="black"/>
<path fill-rule="evenodd" clip-rule="evenodd" d="M14.252 11.998C14.252 11.5838 14.5878 11.248 15.002 11.248H23.252C23.6662 11.248 24.002 11.5838 24.002 11.998C24.002 12.4123 23.6662 12.748 23.252 12.748H15.002C14.5878 12.748 14.252 12.4123 14.252 11.998Z" fill="black"/>
<path fill-rule="evenodd" clip-rule="evenodd" d="M5.03234 7.71772C5.32524 8.01061 5.32524 8.48548 5.03234 8.77838L1.81267 11.998L5.03234 15.2177C5.32524 15.5106 5.32524 15.9855 5.03234 16.2784C4.73945 16.5713 4.26458 16.5713 3.97168 16.2784L0.221684 12.5284C-0.0712091 12.2355 -0.0712091 11.7606 0.221684 11.4677L3.97168 7.71772C4.26458 7.42482 4.73945 7.42482 5.03234 7.71772Z" fill="black"/>
<path fill-rule="evenodd" clip-rule="evenodd" d="M18.9717 7.71772C19.2646 7.42482 19.7395 7.42482 20.0323 7.71772L23.7823 11.4677C24.0752 11.7606 24.0752 12.2355 23.7823 12.5284L20.0323 16.2784C19.7395 16.5713 19.2646 16.5713 18.9717 16.2784C18.6788 15.9855 18.6788 15.5106 18.9717 15.2177L22.1914 11.998L18.9717 8.77838C18.6788 8.48548 18.6788 8.01061 18.9717 7.71772Z" fill="black"/>
<path fill-rule="evenodd" clip-rule="evenodd" d="M12.002 6.74805C12.4162 6.74805 12.752 7.08383 12.752 7.49805V16.498C12.752 16.9123 12.4162 17.248 12.002 17.248C11.5878 17.248 11.252 16.9123 11.252 16.498V7.49805C11.252 7.08383 11.5878 6.74805 12.002 6.74805Z" fill="black"/>
</svg>
