<svg width="24" height="24" viewBox="0 0 24 24" fill="none" xmlns="http://www.w3.org/2000/svg">
<path fill-rule="evenodd" clip-rule="evenodd" d="M0 18.75C0 19.991 1.01016 21 2.25258 21H9.5086C9.92308 21 10.2595 20.664 10.2595 20.25C10.2595 19.836 9.92308 19.5 9.5086 19.5H2.25258C1.83811 19.5 1.50172 19.164 1.50172 18.75V2.25C1.50172 1.836 1.83811 1.5 2.25258 1.5H12.8938C13.094 1.5 13.2822 1.578 13.4244 1.719L16.2997 4.59099C16.4388 4.73099 16.5189 4.92399 16.5189 5.12099V8.24999C16.5189 8.66399 16.8553 8.99999 17.2698 8.99999C17.6843 8.99999 18.0207 8.66399 18.0207 8.24999V5.11999C18.0207 4.51999 17.7864 3.95499 17.3609 3.53L14.4856 0.657999C14.0601 0.234 13.4955 0 12.8938 0H2.25258C1.01116 0 0 1.009 0 2.25V18.75ZM4.84375 9.5C4.37776 9.5 4 9.83579 4 10.25C4 10.6642 4.37776 11 4.84375 11H12.1562C12.6222 11 13 10.6642 13 10.25C13 9.83579 12.6222 9.5 12.1562 9.5H4.84375ZM4 6.75C4 6.33579 4.37776 6 4.84375 6H12.1562C12.6222 6 13 6.33579 13 6.75C13 7.16421 12.6222 7.5 12.1562 7.5H4.84375C4.37776 7.5 4 7.16421 4 6.75ZM4.75 13C4.33579 13 4 13.3358 4 13.75C4 14.1642 4.33579 14.5 4.75 14.5H8.25C8.66421 14.5 9 14.1642 9 13.75C9 13.3358 8.66421 13 8.25 13H4.75Z" fill="black"/>
<path fill-rule="evenodd" clip-rule="evenodd" d="M14.5016 14.8033H13.395C12.9559 14.8033 12.6 15.1593 12.6 15.5983C12.6 16.8179 13.0845 17.9875 13.9468 18.8498C14.5891 19.4921 15.4018 19.9248 16.2787 20.1038L16.4033 20.1292V23.205C16.4033 23.6441 16.7593 24 17.1983 24C17.6374 24 17.9933 23.6441 17.9933 23.205V20.1292L18.118 20.1038C18.9949 19.9248 19.8076 19.4921 20.4499 18.8498C21.3122 17.9875 21.7967 16.8179 21.7967 15.5983C21.7967 15.1593 21.4407 14.8033 21.0017 14.8033H19.895V11.795C19.895 11.3559 19.5391 11 19.1 11C18.6609 11 18.305 11.3559 18.305 11.795V14.8033H16.0916V11.795C16.0916 11.3559 15.7357 11 15.2966 11C14.8576 11 14.5016 11.3559 14.5016 11.795V14.8033ZM17.2017 18.6067L17.1983 18.6067C16.4005 18.6067 15.6353 18.2897 15.0711 17.7255C14.7508 17.4053 14.5102 17.0202 14.3621 16.6011L14.2886 16.3933H15.2931L15.2964 16.3933L15.2999 16.3933L19.0964 16.3933L19.0997 16.3933L19.1032 16.3933L20.1081 16.3933L20.0346 16.6011C19.8865 17.0202 19.6458 17.4053 19.3255 17.7255C18.7622 18.2889 17.9983 18.6058 17.2017 18.6067Z" fill="#29D305"/>
</svg>
