<svg width="24" height="24" fill="none" xmlns="http://www.w3.org/2000/svg"><path fill-rule="evenodd" clip-rule="evenodd" d="M0 18.75C0 19.991 1.01 21 2.253 21h7.256a.75.75 0 100-1.5H2.253a.75.75 0 01-.751-.75V2.25a.75.75 0 01.75-.75h10.642c.2 0 .388.078.53.219L16.3 4.591c.139.14.219.333.219.53V8.25a.75.75 0 001.502 0V5.12c0-.6-.235-1.165-.66-1.59L14.486.658A2.24 2.24 0 0012.894 0H2.253A2.254 2.254 0 000 2.25v16.5zM4.844 9.5c-.466 0-.844.336-.844.75s.378.75.844.75h7.312c.466 0 .844-.336.844-.75s-.378-.75-.844-.75H4.844zM4 6.75c0-.414.378-.75.844-.75h7.312c.466 0 .844.336.844.75s-.378.75-.844.75H4.844C4.378 7.5 4 7.164 4 6.75zM4.75 13a.75.75 0 000 1.5h3.5a.75.75 0 000-1.5h-3.5z" fill="#000"/><path fill-rule="evenodd" clip-rule="evenodd" d="M14.502 14.803h-1.107a.795.795 0 00-.795.795 4.598 4.598 0 003.679 4.506l.124.025v3.076a.795.795 0 001.59 0v-3.076l.125-.025a4.598 4.598 0 003.679-4.506.795.795 0 00-.795-.795h-1.107v-3.008a.795.795 0 10-1.59 0v3.008h-2.213v-3.008a.795.795 0 10-1.59 0v3.008zm2.7 3.804h-.004a3.008 3.008 0 01-2.836-2.006l-.073-.208H20.108l-.073.208a3.006 3.006 0 01-2.833 2.006z" fill="#29D305"/></svg>