<svg width="24" height="24" viewBox="0 0 24 24" fill="none" xmlns="http://www.w3.org/2000/svg">
<path d="M17.25 10.5C13.5275 10.5 10.5 13.5275 10.5 17.25C10.5 20.9725 13.5275 24 17.25 24C20.9725 24 24 20.9725 24 17.25C24 13.5275 20.9725 10.5 17.25 10.5ZM17.25 22.5C14.355 22.5 12 20.145 12 17.25C12 14.355 14.355 12 17.25 12C20.145 12 22.5 14.355 22.5 17.25C22.5 20.145 20.145 22.5 17.25 22.5Z" fill="#EE0701"/>
<path d="M19.9801 14.5199C19.6876 14.2274 19.2126 14.2274 18.9201 14.5199L17.2001 16.2399L15.4801 14.5199C15.1876 14.2274 14.7126 14.2274 14.4201 14.5199C14.1276 14.8124 14.1276 15.2874 14.4201 15.5799L16.1401 17.2999L14.4201 19.0199C14.1276 19.3124 14.1276 19.7874 14.4201 20.0799C14.5676 20.2274 14.7576 20.2999 14.9501 20.2999C15.1426 20.2999 15.3351 20.2274 15.4801 20.0799L17.2001 18.3599L18.9201 20.0799C19.0676 20.2274 19.2576 20.2999 19.4501 20.2999C19.6426 20.2999 19.8351 20.2274 19.9801 20.0799C20.2726 19.7874 20.2726 19.3124 19.9801 19.0199L18.2601 17.2999L19.9801 15.5799C20.2726 15.2874 20.2726 14.8124 19.9801 14.5199Z" fill="#EE0701"/>
<path d="M18.75 0H2.25C1 0 0 1 0 2.25V17.25C0 18.5 1 19.5 2.25 19.5H3.28V20.4275C2.14 20.67 1.13 21.435 0.625 22.58C0.4575 22.96 0.63 23.4025 1.01 23.5675C1.39 23.735 1.8325 23.5625 1.9975 23.1825C2.2525 22.6025 2.725 22.185 3.2775 21.98V23.2075C3.2775 23.6225 3.6125 23.9575 4.0275 23.9575C4.4425 23.9575 4.7775 23.6225 4.7775 23.2075V21.9575C4.84 21.9775 4.9 22 4.9625 22.0275L6.335 22.6325C6.715 22.8 7.1575 22.6275 7.3225 22.2475C7.4875 21.8675 7.3175 21.425 6.9375 21.26L5.565 20.655C5.3075 20.5425 5.0425 20.4625 4.7775 20.41V19.495H8.2475C8.6725 19.495 8.9975 19.17 8.9975 18.745C8.9975 18.32 8.6725 17.995 8.2475 17.995H4.7775V13.005C4.7775 11.7225 5.24 10.55 6.0075 9.635C6.1325 9.8475 6.2725 10.05 6.4375 10.2425C7.18 11.1125 8.2175 11.6425 9.3575 11.735C9.4925 11.745 9.625 11.75 9.7575 11.75C12.7225 11.75 14.8975 9.035 15.755 4.22C15.8 3.9625 15.78 3.7 15.6925 3.455C15.4175 2.675 14.56 2.265 13.78 2.54C13.7725 2.54 13.7675 2.545 13.7625 2.5475C12.5575 3.0075 11.29 3.2225 10.0375 3.1925C8.8975 3.11 7.7875 3.46 6.9175 4.2025C6.0475 4.945 5.5175 5.9825 5.425 7.1225C5.4 7.435 5.4125 7.7425 5.4525 8.0475C4.875 8.5825 4.39 9.215 4.025 9.9225C3.4475 8.805 2.57 7.87 1.4975 7.2225V2.25C1.4975 1.825 1.8225 1.5 2.2475 1.5H18.7475C19.1725 1.5 19.4975 1.825 19.4975 2.25V8.25C19.4975 8.675 19.8225 9 20.2475 9C20.6725 9 20.9975 8.675 20.9975 8.25V2.25C20.9975 1 19.9975 0 18.7475 0H18.75ZM9.7275 4.6875C9.805 4.6875 9.8825 4.69 9.96 4.6975C11.445 4.725 12.895 4.4875 14.28 3.9625C13.9275 5.94 12.7575 10.52 9.4775 10.2475C8.4325 10.165 7.57 9.5125 7.1625 8.62C7.9875 8.08 8.97 7.7625 10.0275 7.7625C10.4425 7.7625 10.7775 7.4275 10.7775 7.0125C10.7775 6.5975 10.4425 6.2625 10.0275 6.2625C8.92 6.2625 7.875 6.5325 6.9525 7.0075C7.1775 5.675 8.34 4.6875 9.725 4.6875H9.7275ZM3.28 13.01V18H2.25C1.825 18 1.5 17.675 1.5 17.25V9.0775C2.59 10.04 3.28 11.4475 3.28 13.0125V13.01Z" fill="black"/>
</svg>
