<svg width="24" height="24" fill="none" xmlns="http://www.w3.org/2000/svg"><path d="M10.75 17.5a.75.75 0 01-.75-.75V11.5a.75.75 0 011.5 0v5.25a.75.75 0 01-.75.75zM7.75 17.5a.75.75 0 01-.75-.75v-7a.75.75 0 011.5 0v7a.75.75 0 01-.75.75zM13.75 17.5a.75.75 0 01-.75-.75v-3a.75.75 0 011.5 0v3a.75.75 0 01-.75.75zM16.75 17.5a.75.75 0 01-.75-.75v-10a.75.75 0 011.5 0v10a.75.75 0 01-.75.75zM4.5 17.5a.75.75 0 01-.75-.75v-3a.75.75 0 011.5 0v3a.75.75 0 01-.75.75zM19.75 17.5a.75.75 0 01-.75-.75v-5a.75.75 0 011.5 0v5a.75.75 0 01-.75.75z" fill="#000"/><path fill-rule="evenodd" clip-rule="evenodd" d="M.25 5.5A2.75 2.75 0 013 2.75h18a2.75 2.75 0 012.75 2.75v13A2.75 2.75 0 0121 21.25H3A2.75 2.75 0 01.25 18.5v-13zM3 4.25c-.69 0-1.25.56-1.25 1.25v13c0 .69.56 1.25 1.25 1.25h18c.69 0 1.25-.56 1.25-1.25v-13c0-.69-.56-1.25-1.25-1.25H3z" fill="#000"/></svg>