<svg width="24" height="24" viewBox="0 0 24 24" fill="none" xmlns="http://www.w3.org/2000/svg">
<path d="M11.7657 8.5657C12.0781 8.25328 12.0781 7.74675 11.7657 7.43433C11.4533 7.12191 10.9467 7.12191 10.6343 7.43433L6.64335 11.4253C6.49327 11.5706 6.39999 11.7742 6.39999 11.9995C6.39999 12.0914 6.41549 12.1796 6.44401 12.2617C6.48326 12.3751 6.54787 12.4793 6.63431 12.5657L10.6343 16.5657C10.9467 16.8781 11.4533 16.8781 11.7657 16.5657C12.0781 16.2533 12.0781 15.7467 11.7657 15.4343L9.13036 12.799H16.8C17.2418 12.799 17.6 12.4411 17.6 11.9995C17.6 11.558 17.2418 11.2 16.8 11.2H9.13137L11.7657 8.5657Z" fill="black"/>
<path fill-rule="evenodd" clip-rule="evenodd" d="M12 1.6C6.25624 1.6 1.6 6.25624 1.6 12C1.6 17.7438 6.25624 22.4 12 22.4C17.7438 22.4 22.4 17.7438 22.4 12C22.4 6.25624 17.7438 1.6 12 1.6ZM0 12C0 5.37258 5.37258 0 12 0C18.6274 0 24 5.37258 24 12C24 18.6274 18.6274 24 12 24C5.37258 24 0 18.6274 0 12Z" fill="#29D305"/>
</svg>
