<svg width="24" height="24" viewBox="0 0 24 24" fill="none" xmlns="http://www.w3.org/2000/svg">
<g clip-path="url(#clip0)">
<path fill-rule="evenodd" clip-rule="evenodd" d="M17.7148 0.388981C18.2334 0.907622 18.2334 1.7485 17.7148 2.26715L7.98192 12L17.7148 21.7329C18.2334 22.2515 18.2334 23.0924 17.7148 23.611C17.1961 24.1297 16.3553 24.1297 15.8366 23.611L5.66811 13.4425C5.66798 13.4424 5.66785 13.4423 5.66772 13.4421C5.66763 13.442 5.66754 13.4419 5.66744 13.4418C5.47816 13.2527 5.32797 13.028 5.22546 12.7808C5.12283 12.5333 5.07 12.268 5.07 12C5.07 11.732 5.12283 11.4667 5.22546 11.2192C5.32797 10.972 5.47816 10.7473 5.66744 10.5582C5.66754 10.5581 5.66763 10.558 5.66772 10.5579C5.66785 10.5577 5.66798 10.5576 5.66811 10.5575L15.8366 0.388981C16.3553 -0.12966 17.1961 -0.12966 17.7148 0.388981Z" fill="black"/>
</g>
<defs>
<clipPath id="clip0">
<rect width="24" height="24" fill="white"/>
</clipPath>
</defs>
</svg>
