<svg width="24" height="24" viewBox="0 0 24 24" fill="none" xmlns="http://www.w3.org/2000/svg">
<path fill-rule="evenodd" clip-rule="evenodd" d="M0.219366 11.4528C0.148397 11.525 0.0946503 11.6079 0.0581207 11.6962L0.219366 11.4528ZM0.224966 11.4471L10.9477 0.724344C11.2469 0.425219 11.7319 0.425219 12.031 0.724344C12.3301 1.02347 12.3301 1.50845 12.031 1.80757L2.61514 11.2234L23.234 11.2234C23.6571 11.2234 24 11.5663 24 11.9894C24 12.4124 23.6571 12.7553 23.234 12.7553H2.61514L12.031 22.1712C12.3301 22.4703 12.3301 22.9553 12.031 23.2544C11.7319 23.5535 11.2469 23.5535 10.9477 23.2544L0.224344 12.531C0.0747814 12.3814 0 12.1854 0 11.9894C0 11.8855 0.0206699 11.7865 0.0581207 11.6962" fill="black"/>
</svg>
