<svg width="24" height="25" viewBox="0 0 24 25" fill="none" xmlns="http://www.w3.org/2000/svg">
<path fill-rule="evenodd" clip-rule="evenodd" d="M6.39999 12.027C6.39999 11.5855 6.75817 11.2275 7.19999 11.2275H16.8C17.2418 11.2275 17.6 11.5855 17.6 12.027C17.6 12.4686 17.2418 12.8265 16.8 12.8265H7.19999C6.75817 12.8265 6.39999 12.4686 6.39999 12.027Z" fill="black"/>
<path fill-rule="evenodd" clip-rule="evenodd" d="M11.7657 7.46185C12.0781 7.77427 12.0781 8.28081 11.7657 8.59322L8.33136 12.0275L11.7657 15.4619C12.0781 15.7743 12.0781 16.2808 11.7657 16.5932C11.4533 16.9056 10.9467 16.9056 10.6343 16.5932L6.63431 12.5932C6.48428 12.4432 6.39999 12.2397 6.39999 12.0275C6.39999 11.8154 6.48428 11.6119 6.63431 11.4619L10.6343 7.46185C10.9467 7.14943 11.4533 7.14943 11.7657 7.46185Z" fill="black"/>
<path fill-rule="evenodd" clip-rule="evenodd" d="M12 1.62753C6.25624 1.62753 1.6 6.28377 1.6 12.0275C1.6 17.7713 6.25624 22.4275 12 22.4275C17.7438 22.4275 22.4 17.7713 22.4 12.0275C22.4 6.28377 17.7438 1.62753 12 1.62753ZM0 12.0275C0 5.40011 5.37258 0.0275269 12 0.0275269C18.6274 0.0275269 24 5.40011 24 12.0275C24 18.6549 18.6274 24.0275 12 24.0275C5.37258 24.0275 0 18.6549 0 12.0275Z" fill="#29D305"/>
</svg>
