<svg width="24" height="25" viewBox="0 0 24 25" fill="none" xmlns="http://www.w3.org/2000/svg">
<path d="M24 12.0275C24 18.6549 18.6274 24.0275 12 24.0275C5.37259 24.0275 1.43766e-06 18.6549 8.58275e-07 12.0275C2.78888e-07 5.40011 5.37258 0.0275304 12 0.0275298C18.6274 0.0275292 24 5.40011 24 12.0275Z" fill="#29D305"/>
<path fill-rule="evenodd" clip-rule="evenodd" d="M13.3656 7.46188C13.0532 7.14946 12.5467 7.14946 12.2343 7.46188C11.9218 7.7743 11.9218 8.28084 12.2343 8.59325L14.8686 11.2276H7.19996C6.75814 11.2276 6.39996 11.5857 6.39996 12.0276C6.39996 12.4694 6.75814 12.8276 7.19996 12.8276H14.8686L12.2343 15.4619C11.9218 15.7743 11.9218 16.2808 12.2343 16.5933C12.5467 16.9057 13.0532 16.9057 13.3656 16.5933L17.3619 12.597C17.3761 12.583 17.3898 12.5684 17.4029 12.5533C17.4547 12.4941 17.4962 12.4291 17.5276 12.3606C17.574 12.2592 17.6 12.1464 17.6 12.0276C17.6 11.9091 17.5742 11.7967 17.528 11.6955C17.4961 11.6256 17.4537 11.5593 17.4006 11.4991C17.3882 11.485 17.3753 11.4714 17.362 11.4582L13.3656 7.46188Z" fill="black"/>
</svg>
