<svg width="24" height="24" viewBox="0 0 24 24" fill="none" xmlns="http://www.w3.org/2000/svg">
<path fill-rule="evenodd" clip-rule="evenodd" d="M0.388937 5.86902C0.907554 5.35036 1.74844 5.35032 2.2671 5.86893L12 15.6009L21.7329 5.86893C22.2516 5.35032 23.0924 5.35036 23.6111 5.86902C24.1297 6.38769 24.1296 7.22857 23.611 7.74719L13.4425 17.9147C13.4423 17.9149 13.442 17.9152 13.4418 17.9154C13.2526 18.1047 13.028 18.2548 12.7808 18.3574C12.5333 18.46 12.2679 18.5128 12 18.5128C11.7321 18.5128 11.4667 18.46 11.2192 18.3574C10.972 18.2548 10.7474 18.1047 10.5582 17.9154C10.558 17.9152 10.5577 17.9149 10.5575 17.9147L0.389024 7.74719C-0.129641 7.22857 -0.12968 6.38769 0.388937 5.86902Z" fill="black"/>
</svg>
