<svg width="24" height="25" viewBox="0 0 24 25" fill="none" xmlns="http://www.w3.org/2000/svg">
<path fill-rule="evenodd" clip-rule="evenodd" d="M6.39996 12.0276C6.39996 11.5857 6.75814 11.2276 7.19996 11.2276L16.8 11.2276C17.2418 11.2276 17.6 11.5857 17.6 12.0276C17.6 12.4694 17.2418 12.8276 16.8 12.8276L7.19996 12.8276C6.75814 12.8276 6.39996 12.4694 6.39996 12.0276Z" fill="black"/>
<path fill-rule="evenodd" clip-rule="evenodd" d="M12.2343 7.46188C12.5467 7.14946 13.0532 7.14946 13.3656 7.46188L17.3656 11.4619C17.678 11.7743 17.678 12.2808 17.3656 12.5933L13.3656 16.5933C13.0532 16.9057 12.5467 16.9057 12.2343 16.5933C11.9218 16.2808 11.9218 15.7743 12.2343 15.4619L15.6686 12.0276L12.2343 8.59325C11.9218 8.28084 11.9218 7.7743 12.2343 7.46188Z" fill="black"/>
<path fill-rule="evenodd" clip-rule="evenodd" d="M12 22.4275C17.7438 22.4275 22.4 17.7713 22.4 12.0275C22.4 6.28377 17.7438 1.62753 12 1.62753C6.25624 1.62753 1.6 6.28377 1.6 12.0275C1.6 17.7713 6.25624 22.4275 12 22.4275ZM24 12.0275C24 18.6549 18.6274 24.0275 12 24.0275C5.37258 24.0275 1.43766e-06 18.6549 8.58275e-07 12.0275C2.78888e-07 5.40011 5.37258 0.0275304 12 0.0275298C18.6274 0.0275292 24 5.40011 24 12.0275Z" fill="#29D305"/>
</svg>
