<svg width="24" height="25" viewBox="0 0 24 25" fill="none" xmlns="http://www.w3.org/2000/svg">
<path fill-rule="evenodd" clip-rule="evenodd" d="M6.39999 12.0275C6.39999 11.5857 6.75817 11.2275 7.19999 11.2275H16.8C17.2418 11.2275 17.6 11.5857 17.6 12.0275C17.6 12.4694 17.2418 12.8275 16.8 12.8275H7.19999C6.75817 12.8275 6.39999 12.4694 6.39999 12.0275Z" fill="black"/>
<path fill-rule="evenodd" clip-rule="evenodd" d="M12.2343 7.46185C12.5467 7.14943 13.0533 7.14943 13.3657 7.46185L17.3657 11.4619C17.6781 11.7743 17.6781 12.2808 17.3657 12.5932L13.3657 16.5932C13.0533 16.9056 12.5467 16.9056 12.2343 16.5932C11.9219 16.2808 11.9219 15.7743 12.2343 15.4619L15.6686 12.0275L12.2343 8.59322C11.9219 8.2808 11.9219 7.77427 12.2343 7.46185Z" fill="black"/>
<path fill-rule="evenodd" clip-rule="evenodd" d="M12 1.62753C6.25624 1.62753 1.6 6.28377 1.6 12.0275C1.6 17.7713 6.25624 22.4275 12 22.4275C17.7438 22.4275 22.4 17.7713 22.4 12.0275C22.4 6.28377 17.7438 1.62753 12 1.62753ZM0 12.0275C0 5.40011 5.37258 0.0275269 12 0.0275269C18.6274 0.0275269 24 5.40011 24 12.0275C24 18.6549 18.6274 24.0275 12 24.0275C5.37258 24.0275 0 18.6549 0 12.0275Z" fill="black"/>
</svg>
