<svg width="24" height="24" viewBox="0 0 24 24" fill="none" xmlns="http://www.w3.org/2000/svg">
<g clip-path="url(#clip0)">
<path fill-rule="evenodd" clip-rule="evenodd" d="M6.28898 0.388981C6.80762 -0.12966 7.64851 -0.12966 8.16715 0.388981L18.3356 10.5575C18.5252 10.7468 18.6757 10.9717 18.7783 11.2192C18.8809 11.4667 18.9338 11.7321 18.9338 12C18.9338 12.2679 18.8809 12.5333 18.7783 12.7808C18.6757 13.0283 18.5252 13.2532 18.3356 13.4425L8.16715 23.611C7.64851 24.1297 6.80762 24.1297 6.28898 23.611C5.77034 23.0924 5.77034 22.2515 6.28898 21.7329L16.0218 12L6.28898 2.26715C5.77034 1.7485 5.77034 0.907622 6.28898 0.388981Z" fill="black"/>
</g>
<defs>
<clipPath id="clip0">
<rect width="24" height="24" fill="white"/>
</clipPath>
</defs>
</svg>
