<svg width="24" height="24" fill="none" xmlns="http://www.w3.org/2000/svg"><path fill-rule="evenodd" clip-rule="evenodd" d="M0 12C0 5.373 5.373 0 12 0s12 5.373 12 12-5.373 12-12 12S0 18.627 0 12z" fill="#29D305"/><path fill-rule="evenodd" clip-rule="evenodd" d="M6.4 12a.8.8 0 01.8-.8h9.6a.8.8 0 110 1.6H7.2a.8.8 0 01-.8-.8z" fill="#000"/><path fill-rule="evenodd" clip-rule="evenodd" d="M11.766 7.434a.8.8 0 010 1.132L8.33 12l3.435 3.434a.8.8 0 11-1.132 1.132l-4-4a.8.8 0 010-1.132l4-4a.8.8 0 011.132 0z" fill="#000"/></svg>