<svg width="24" height="24" viewBox="0 0 24 24" fill="none" xmlns="http://www.w3.org/2000/svg">
<path d="M12.2343 7.4343C12.5467 7.12189 13.0533 7.12189 13.3657 7.43431L17.3657 11.4343C17.4442 11.5128 17.503 11.6036 17.5421 11.7005C17.5762 11.7849 17.5963 11.8765 17.5995 11.9723C17.6002 11.9908 17.6002 12.0092 17.5995 12.0277C17.5963 12.1235 17.5762 12.215 17.5421 12.2994C17.503 12.3963 17.4442 12.4871 17.3657 12.5657L13.3657 16.5657C13.0533 16.8781 12.5467 16.8781 12.2343 16.5657C11.9219 16.2533 11.9219 15.7467 12.2343 15.4343L14.8686 12.8L7.2 12.8C6.75817 12.8 6.4 12.4418 6.4 12C6.4 11.5582 6.75817 11.2 7.2 11.2L14.8686 11.2L12.2343 8.56568C11.9219 8.25326 11.9219 7.74672 12.2343 7.4343Z" fill="black"/>
<path fill-rule="evenodd" clip-rule="evenodd" d="M12 0C5.37258 1.32796e-06 -1.32796e-06 5.37258 0 12C-5.79387e-07 18.6274 5.37258 24 12 24C18.6274 24 24 18.6274 24 12C24 5.37258 18.6274 5.79387e-07 12 0ZM1.6 12C1.6 6.25624 6.25624 1.6 12 1.6C17.7438 1.6 22.4 6.25624 22.4 12C22.4 17.7438 17.7438 22.4 12 22.4C6.25624 22.4 1.6 17.7438 1.6 12Z" fill="black"/>
</svg>
