<svg width="24" height="24" viewBox="0 0 24 24" fill="none" xmlns="http://www.w3.org/2000/svg">
<path fill-rule="evenodd" clip-rule="evenodd" d="M12 8.39188L2.2671 18.1239C1.74844 18.6425 0.907554 18.6424 0.388937 18.1238C-0.12968 17.6051 -0.129641 16.7642 0.389025 16.2456L10.5575 6.07811L10.5582 6.0774C10.7474 5.88812 10.972 5.73795 11.2192 5.63545C11.4667 5.53282 11.732 5.48 12 5.48C12.268 5.48 12.5333 5.53282 12.7808 5.63545C13.028 5.73795 13.2526 5.88812 13.4418 6.0774L13.4425 6.07811L23.611 16.2456C24.1296 16.7642 24.1297 17.6051 23.6111 18.1238C23.0924 18.6424 22.2516 18.6425 21.7329 18.1239L12 8.39188Z" fill="black"/>
</svg>
