<svg width="24" height="24" viewBox="0 0 24 24" fill="none" xmlns="http://www.w3.org/2000/svg">
<path fill-rule="evenodd" clip-rule="evenodd" d="M0 12C0 11.5858 0.335786 11.25 0.75 11.25H23.25C23.6642 11.25 24 11.5858 24 12C24 12.4142 23.6642 12.75 23.25 12.75H0.75C0.335786 12.75 0 12.4142 0 12Z" fill="black"/>
<path fill-rule="evenodd" clip-rule="evenodd" d="M11.7803 1.21479C12.0732 1.50117 12.0732 1.96549 11.7803 2.25188L1.81066 12L11.7803 21.7481C12.0732 22.0345 12.0732 22.4988 11.7803 22.7852C11.4874 23.0716 11.0126 23.0716 10.7197 22.7852L0.21967 12.5185C-0.0732233 12.2322 -0.0732233 11.7678 0.21967 11.4815L10.7197 1.21479C11.0126 0.928404 11.4874 0.928404 11.7803 1.21479Z" fill="black"/>
</svg>
