<svg width="24" height="24" viewBox="0 0 24 24" fill="none" xmlns="http://www.w3.org/2000/svg">
<path d="M12.75 1.21875C12.75 0.804536 12.4142 0.46875 12 0.46875C11.5858 0.46875 11.25 0.804536 11.25 1.21875V20.9706L2.46783 12.1884C2.17494 11.8955 1.70006 11.8955 1.40717 12.1884C1.11428 12.4813 1.11428 12.9562 1.40717 13.2491L11.4697 23.3116C11.5416 23.3835 11.6245 23.4377 11.7129 23.4743C11.7901 23.5063 11.8738 23.5258 11.9614 23.5303C11.9742 23.5309 11.9871 23.5312 12 23.5312C12.1919 23.5312 12.3839 23.458 12.5303 23.3116L22.5928 13.2491C22.8857 12.9562 22.8857 12.4813 22.5928 12.1884C22.2999 11.8955 21.8251 11.8955 21.5322 12.1884L12.75 20.9706V1.21875Z" fill="black"/>
</svg>
