<svg width="24" height="24" viewBox="0 0 24 24" fill="none" xmlns="http://www.w3.org/2000/svg">
<path fill-rule="evenodd" clip-rule="evenodd" d="M6.40002 12C6.40002 11.5582 6.7582 11.2 7.20002 11.2H16.8C17.2419 11.2 17.6 11.5582 17.6 12C17.6 12.4418 17.2419 12.8 16.8 12.8H7.20002C6.7582 12.8 6.40002 12.4418 6.40002 12Z" fill="black"/>
<path fill-rule="evenodd" clip-rule="evenodd" d="M11.7657 7.43431C12.0781 7.74673 12.0781 8.25326 11.7657 8.56568L8.3314 12L11.7657 15.4343C12.0781 15.7467 12.0781 16.2533 11.7657 16.5657C11.4533 16.8781 10.9468 16.8781 10.6343 16.5657L6.63434 12.5657C6.48431 12.4157 6.40002 12.2122 6.40002 12C6.40002 11.7878 6.48431 11.5843 6.63434 11.4343L10.6343 7.43431C10.9468 7.12189 11.4533 7.12189 11.7657 7.43431Z" fill="black"/>
<path fill-rule="evenodd" clip-rule="evenodd" d="M12 1.6C6.25624 1.6 1.6 6.25624 1.6 12C1.6 17.7438 6.25624 22.4 12 22.4C17.7438 22.4 22.4 17.7438 22.4 12C22.4 6.25624 17.7438 1.6 12 1.6ZM0 12C0 5.37258 5.37258 0 12 0C18.6274 0 24 5.37258 24 12C24 18.6274 18.6274 24 12 24C5.37258 24 0 18.6274 0 12Z" fill="black"/>
</svg>
