<svg width="24" height="24" viewBox="0 0 24 24" fill="none" xmlns="http://www.w3.org/2000/svg">
<path d="M13.3656 7.43436C13.0532 7.12194 12.5467 7.12194 12.2343 7.43436C11.9218 7.74678 11.9218 8.25331 12.2343 8.56573L14.8686 11.2H7.19996C6.75814 11.2 6.39996 11.5582 6.39996 12C6.39996 12.4419 6.75814 12.8 7.19996 12.8H14.8686L12.2343 15.4344C11.9218 15.7468 11.9218 16.2533 12.2343 16.5657C12.5467 16.8781 13.0532 16.8781 13.3656 16.5657L17.3618 12.5696C17.376 12.5555 17.3898 12.5409 17.4029 12.5258C17.4541 12.4672 17.4953 12.403 17.5265 12.3353C17.5737 12.2333 17.6 12.1198 17.6 12C17.6 11.8812 17.574 11.7684 17.5276 11.667C17.4959 11.5977 17.4538 11.5321 17.4013 11.4724C17.3886 11.458 17.3755 11.4441 17.3619 11.4306L13.3656 7.43436Z" fill="black"/>
<path fill-rule="evenodd" clip-rule="evenodd" d="M12 22.4C17.7438 22.4 22.4 17.7438 22.4 12C22.4 6.25624 17.7438 1.6 12 1.6C6.25624 1.6 1.6 6.25624 1.6 12C1.6 17.7438 6.25624 22.4 12 22.4ZM24 12C24 18.6274 18.6274 24 12 24C5.37258 24 1.43766e-06 18.6274 8.58275e-07 12C2.78888e-07 5.37259 5.37258 3.53581e-06 12 2.95642e-06C18.6274 2.37703e-06 24 5.37258 24 12Z" fill="#29D305"/>
</svg>
