<svg width="24" height="24" viewBox="0 0 24 24" fill="none" xmlns="http://www.w3.org/2000/svg">
<path fill-rule="evenodd" clip-rule="evenodd" d="M0 11.9986C0 11.3082 0.544928 10.7486 1.21713 10.7486H22.2829C22.9551 10.7486 23.5 11.3082 23.5 11.9986C23.5 12.6889 22.9551 13.2486 22.2829 13.2486H1.21713C0.544928 13.2486 0 12.6889 0 11.9986Z" fill="black"/>
<path fill-rule="evenodd" clip-rule="evenodd" d="M12.191 1.35495C12.6624 0.881684 13.4266 0.881684 13.8979 1.35495L23.6465 11.1431C24.1178 11.6163 24.1178 12.3837 23.6465 12.8569L13.8979 22.6451C13.4266 23.1183 12.6624 23.1183 12.191 22.6451C11.7197 22.1718 11.7197 21.4045 12.191 20.9312L21.0861 12L12.191 3.06878C11.7197 2.59552 11.7197 1.82821 12.191 1.35495Z" fill="black"/>
</svg>
