<svg width="24" height="24" viewBox="0 0 24 24" fill="none" xmlns="http://www.w3.org/2000/svg">
<path fill-rule="evenodd" clip-rule="evenodd" d="M23.5 12C23.5 12.4142 23.1642 12.75 22.75 12.75L0.75 12.75C0.335787 12.75 -2.54447e-08 12.4142 -1.63918e-08 12C-7.33884e-09 11.5858 0.335787 11.25 0.75 11.25L22.75 11.25C23.1642 11.25 23.5 11.5858 23.5 12Z" fill="black"/>
<path fill-rule="evenodd" clip-rule="evenodd" d="M23.7757 11.4815C24.0748 11.7678 24.0748 12.2322 23.7757 12.5185L13.0523 22.7852C12.7531 23.0716 12.2681 23.0716 11.969 22.7852C11.6699 22.4988 11.6699 22.0345 11.969 21.7481L22.1508 12L11.969 2.25188C11.6699 1.96549 11.6699 1.50117 11.969 1.21479C12.2681 0.928404 12.7531 0.928404 13.0523 1.21479L23.7757 11.4815Z" fill="black"/>
</svg>
