<svg width="24" height="24" viewBox="0 0 24 24" fill="none" xmlns="http://www.w3.org/2000/svg">
<path fill-rule="evenodd" clip-rule="evenodd" d="M6.21829 23.7695C5.92255 23.4671 5.928 22.9821 6.23046 22.6864L17.1597 12L6.23047 1.31362C5.928 1.01788 5.92255 0.532929 6.21829 0.230462C6.51404 -0.0720035 6.99899 -0.0774527 7.30145 0.218291L18.2491 10.9227C18.3923 11.0625 18.5068 11.2295 18.5853 11.4145C18.6638 11.5996 18.7044 11.7986 18.7044 12C18.7044 12.2014 18.6638 12.4004 18.5853 12.5855C18.5069 12.7704 18.3925 12.9372 18.2495 13.0769C18.2494 13.077 18.2493 13.0772 18.2491 13.0773L7.30145 23.7817C6.99899 24.0775 6.51404 24.072 6.21829 23.7695Z" fill="black"/>
</svg>
