<svg width="24" height="24" viewBox="0 0 24 24" fill="none" xmlns="http://www.w3.org/2000/svg">
<path fill-rule="evenodd" clip-rule="evenodd" d="M0 12C0 11.3096 0.556523 10.75 1.24303 10.75H22.757C23.4435 10.75 24 11.3096 24 12C24 12.6904 23.4435 13.25 22.757 13.25H1.24303C0.556523 13.25 0 12.6904 0 12Z" fill="black"/>
<path fill-rule="evenodd" clip-rule="evenodd" d="M12.1618 1.35495C12.6473 1.82821 12.6473 2.59552 12.1618 3.06878L3.00094 12L12.1618 20.9312C12.6473 21.4045 12.6473 22.1718 12.1618 22.6451C11.6764 23.1183 10.8893 23.1183 10.4039 22.6451L0.364074 12.8569C-0.121358 12.3837 -0.121358 11.6163 0.364074 11.1431L10.4039 1.35495C10.8893 0.881684 11.6764 0.881684 12.1618 1.35495Z" fill="black"/>
</svg>
