<svg width="24" height="24" viewBox="0 0 24 24" fill="none" xmlns="http://www.w3.org/2000/svg">
<path fill-rule="evenodd" clip-rule="evenodd" d="M12 0.46875C12.4142 0.46875 12.75 0.804536 12.75 1.21875V22.7812C12.75 23.1955 12.4142 23.5312 12 23.5312C11.5858 23.5312 11.25 23.1955 11.25 22.7812V1.21875C11.25 0.804536 11.5858 0.46875 12 0.46875Z" fill="black"/>
<path fill-rule="evenodd" clip-rule="evenodd" d="M11.4697 0.68842C11.7626 0.395527 12.2374 0.395527 12.5303 0.68842L22.5928 10.7509C22.8857 11.0438 22.8857 11.5187 22.5928 11.8116C22.2999 12.1045 21.8251 12.1045 21.5322 11.8116L12 2.27941L2.46783 11.8116C2.17494 12.1045 1.70006 12.1045 1.40717 11.8116C1.11428 11.5187 1.11428 11.0438 1.40717 10.7509L11.4697 0.68842Z" fill="black"/>
</svg>
