<svg width="24" height="24" viewBox="0 0 24 24" fill="none" xmlns="http://www.w3.org/2000/svg">
<path fill-rule="evenodd" clip-rule="evenodd" d="M12.7403 1.46876e-05C14.4806 -0.00279937 16.1978 0.39879 17.7566 1.17313C19.3158 1.94765 20.6739 3.07392 21.724 4.46316C22.774 5.85239 23.4874 7.46664 23.8078 9.17871C24.1283 10.8908 24.0471 12.6539 23.5707 14.3293C23.0943 16.0046 22.2357 17.5464 21.0624 18.8331C19.8891 20.1198 18.4333 21.1164 16.8095 21.7441C15.1857 22.3719 13.4385 22.6137 11.7054 22.4505C10.1103 22.3003 8.56736 21.8108 7.17926 21.0167L1.07269 23.927C0.786064 24.0636 0.444469 24.005 0.219872 23.7805C-0.00472455 23.5561 -0.063649 23.2145 0.072762 22.9278L2.98109 16.8147C2.05695 15.1985 1.54766 13.3756 1.50206 11.5097C1.45307 9.50537 1.94093 7.5244 2.91506 5.77237C3.88918 4.02033 5.3141 2.56104 7.042 1.54598C8.76957 0.531127 10.737 -0.00266555 12.7403 1.46876e-05ZM12.7404 0.750016L12.7393 1.50001C11.0036 1.49751 9.29876 1.95993 7.80178 2.83933C6.30479 3.71873 5.07015 4.9831 4.22605 6.50128C3.38194 8.01946 2.95916 9.7361 3.00161 11.4731C3.04406 13.21 3.5502 14.9039 4.46745 16.379C4.60234 16.5959 4.61755 16.8665 4.50781 17.0972L2.3353 21.6636L6.89615 19.49C7.12698 19.38 7.39795 19.3951 7.61506 19.5302C8.89602 20.3273 10.3444 20.8157 11.846 20.9571C13.3477 21.0985 14.8616 20.889 16.2686 20.345C17.6756 19.8011 18.9372 18.9376 19.954 17.8224C20.9708 16.7073 21.715 15.3711 22.1279 13.919C22.5409 12.4669 22.6112 10.9386 22.3335 9.45468C22.0557 7.97072 21.4374 6.57163 20.5274 5.36764C19.6173 4.16365 18.4404 3.18766 17.0893 2.51652C15.7382 1.84538 14.25 1.49742 12.7417 1.50001L12.7404 0.750016Z" fill="black"/>
<path d="M14.2354 17.1618C12.9944 17.1618 11.9854 16.1528 11.9854 14.9118V11.1618H11.2354C10.8214 11.1618 10.4854 10.8258 10.4854 10.4118C10.4854 9.99781 10.8214 9.66181 11.2354 9.66181H11.9854C12.8124 9.66181 13.4854 10.3348 13.4854 11.1618V14.9118C13.4854 15.3258 13.8214 15.6618 14.2354 15.6618H14.9854C15.3994 15.6618 15.7354 15.9978 15.7354 16.4118C15.7354 16.8258 15.3994 17.1618 14.9854 17.1618H14.2354Z" fill="black"/>
<path d="M12.3604 8.16181C12.9818 8.16181 13.4854 7.65813 13.4854 7.03681C13.4854 6.41549 12.9818 5.91181 12.3604 5.91181C11.7391 5.91181 11.2354 6.41549 11.2354 7.03681C11.2354 7.65813 11.7391 8.16181 12.3604 8.16181Z" fill="black"/>
</svg>
