<svg width="24" height="24" viewBox="0 0 24 24" fill="none" xmlns="http://www.w3.org/2000/svg">
<path fill-rule="evenodd" clip-rule="evenodd" d="M21.7251 4.46253C19.5976 1.64753 16.2701 -0.00747462 12.7401 2.53817e-05C10.7376 -0.00247462 8.77014 0.530025 7.04264 1.54503C1.73514 4.66503 -0.0748634 11.4725 2.98014 16.815L0.0726367 22.9275C-0.0248633 23.1325 -0.0248633 23.37 0.0726367 23.575C0.250137 23.95 0.697637 24.1075 1.07264 23.9275L7.17764 21.0175C10.1151 22.6975 13.6526 22.965 16.8076 21.745C17.7801 21.3675 18.6976 20.8575 19.5301 20.2275C24.4876 16.48 25.4701 9.42253 21.7226 4.46253H21.7251Z" fill="#29D305"/>
<path d="M14.125 17.125C12.8825 17.125 11.875 16.1175 11.875 14.875V11.125H11.125C10.71 11.125 10.375 10.79 10.375 10.375C10.375 9.96 10.71 9.625 11.125 9.625H11.875C12.7025 9.625 13.375 10.2975 13.375 11.125V14.875C13.375 15.29 13.71 15.625 14.125 15.625H14.875C15.29 15.625 15.625 15.96 15.625 16.375C15.625 16.79 15.29 17.125 14.875 17.125H14.125ZM12.25 8.125C12.8725 8.125 13.375 7.6225 13.375 7C13.375 6.3775 12.8725 5.875 12.25 5.875C11.6275 5.875 11.125 6.3775 11.125 7C11.125 7.6225 11.6275 8.125 12.25 8.125Z" fill="black"/>
</svg>
