<svg width="24" height="24" viewBox="0 0 24 24" fill="none" xmlns="http://www.w3.org/2000/svg">
<path fill-rule="evenodd" clip-rule="evenodd" d="M17.25 12C14.3505 12 12 14.3505 12 17.25C12 20.1495 14.3505 22.5 17.25 22.5C20.1495 22.5 22.5 20.1495 22.5 17.25C22.5 14.3505 20.1495 12 17.25 12ZM10.5 17.25C10.5 13.5221 13.5221 10.5 17.25 10.5C20.9779 10.5 24 13.5221 24 17.25C24 20.9779 20.9779 24 17.25 24C13.5221 24 10.5 20.9779 10.5 17.25Z" fill="black"/>
<path fill-rule="evenodd" clip-rule="evenodd" d="M20.374 14.905C20.7053 15.1535 20.7725 15.6236 20.524 15.955L17.619 19.829C17.4899 20.0007 17.3249 20.1435 17.1362 20.2462C16.9475 20.3488 16.7389 20.4098 16.5247 20.425C16.3104 20.4401 16.0953 20.4091 15.894 20.334C15.6928 20.2589 15.51 20.1415 15.358 19.9897L13.8577 18.4894C13.5648 18.1965 13.5648 17.7216 13.8577 17.4287C14.1506 17.1358 14.6254 17.1358 14.9183 17.4287L16.418 18.9284L16.4192 18.9286L19.324 15.0551C19.5725 14.7237 20.0426 14.6565 20.374 14.905Z" fill="black"/>
<path fill-rule="evenodd" clip-rule="evenodd" d="M6 1.5C4.75736 1.5 3.75 2.50736 3.75 3.75C3.75 4.99264 4.75736 6 6 6C7.24264 6 8.25 4.99264 8.25 3.75C8.25 2.50736 7.24264 1.5 6 1.5ZM2.25 3.75C2.25 1.67893 3.92893 0 6 0C8.07107 0 9.75 1.67893 9.75 3.75C9.75 5.82107 8.07107 7.5 6 7.5C3.92893 7.5 2.25 5.82107 2.25 3.75Z" fill="black"/>
<path fill-rule="evenodd" clip-rule="evenodd" d="M4.45624 7.70345C5.73377 7.36313 7.08793 7.45421 8.30838 7.96255C9.52883 8.47089 10.5472 9.36803 11.2054 10.5146C11.4117 10.8739 11.2876 11.3322 10.9284 11.5385C10.5692 11.7447 10.1108 11.6206 9.90455 11.2614C9.41088 10.4014 8.64702 9.72851 7.73163 9.34724C6.81624 8.96596 5.80057 8.89765 4.84236 9.15291C3.88416 9.40816 3.03708 9.97271 2.43268 10.7588C1.82835 11.5449 1.50049 12.5085 1.5 13.5V15H3C3.38531 15 3.70794 15.292 3.74628 15.6754L4.42874 22.5H7.5712L7.82671 19.9425C7.86789 19.5303 8.2354 19.2296 8.64756 19.2707C9.05972 19.3119 9.36046 19.6794 9.31928 20.0916L8.99628 23.3246C8.95798 23.708 8.63534 24 8.25 24H3.75C3.36469 24 3.04206 23.708 3.00372 23.3246L2.32126 16.5H0.75C0.335786 16.5 0 16.1642 0 15.75V13.5C0.000555813 12.1779 0.437691 10.8927 1.24351 9.84459C2.04932 8.79647 3.17871 8.04378 4.45624 7.70345Z" fill="black"/>
</svg>
