<svg width="24" height="24" viewBox="0 0 24 24" fill="none" xmlns="http://www.w3.org/2000/svg">
<path d="M23.4649 4.19988C23.1524 3.57488 22.7424 3.00738 22.2499 2.51238C21.0224 1.28488 19.3899 0.607382 17.6524 0.607382C15.9149 0.607382 14.2824 1.28238 13.0549 2.51238L12.0049 3.55988L10.9549 2.51238C10.4574 2.01488 9.8899 1.60488 9.2624 1.29238C6.0549 -0.312618 2.1374 0.992382 0.532405 4.20238C-2.6151 10.5024 9.1199 21.1399 11.5049 23.2074C11.6474 23.3299 11.8249 23.3924 12.0024 23.3924C12.1799 23.3924 12.3549 23.3299 12.4974 23.2099C13.9649 21.9549 26.7399 10.7424 23.4674 4.19988H23.4649Z" fill="#EE0701"/>
<path fill-rule="evenodd" clip-rule="evenodd" d="M11.1248 10.3799L10.6948 11.0199C10.4723 11.2874 10.4173 11.6549 10.5473 11.9749C10.6673 12.2124 10.8923 12.3799 11.1548 12.4224L12.4098 12.6224C12.4648 12.6274 12.5048 12.6774 12.4998 12.7324C12.4998 12.7324 12.4998 12.7374 12.4998 12.7399L11.8548 17.1499C11.8323 17.2799 11.9048 17.4099 12.0273 17.4599C12.1498 17.5049 12.2873 17.4649 12.3623 17.3599L15.3723 13.3024L16.8248 11.4224C16.9098 11.3024 16.9673 11.1624 16.9923 11.0174C17.0273 10.8749 17.0273 10.7274 16.9923 10.5874C16.9523 10.4449 16.8773 10.3174 16.7723 10.2149C16.6698 10.1099 16.5348 10.0424 16.3898 10.0199L15.1148 9.81488C15.0698 9.80988 15.0373 9.76738 15.0423 9.72238C15.1348 9.14488 15.7148 5.46738 15.7098 5.20738C15.7048 4.94488 15.2998 4.84488 15.1173 5.09738L12.5048 8.60738L11.1273 10.3849L11.1248 10.3799Z" fill="black"/>
</svg>
