<svg width="24" height="24" viewBox="0 0 24 24" fill="none" xmlns="http://www.w3.org/2000/svg">
<path fill-rule="evenodd" clip-rule="evenodd" d="M11.3748 10.8799L10.9448 11.5199C10.7223 11.7874 10.6673 12.1549 10.7973 12.4749C10.9173 12.7124 11.1423 12.8799 11.4048 12.9224L12.6598 13.1224C12.7148 13.1274 12.7548 13.1774 12.7498 13.2324C12.7498 13.2324 12.7498 13.2374 12.7498 13.2399L12.1048 17.6499C12.0823 17.7799 12.1548 17.9099 12.2773 17.9599C12.3998 18.0049 12.5373 17.9649 12.6123 17.8599L15.6223 13.8024L17.0748 11.9224C17.1598 11.8024 17.2173 11.6624 17.2423 11.5174C17.2773 11.3749 17.2773 11.2274 17.2423 11.0874C17.2023 10.9449 17.1273 10.8174 17.0223 10.7149C16.9198 10.6099 16.7848 10.5424 16.6398 10.5199L15.3648 10.3149C15.3198 10.3099 15.2873 10.2674 15.2923 10.2224C15.3848 9.64488 15.9648 5.96738 15.9598 5.70738C15.9548 5.44488 15.5498 5.34488 15.3673 5.59738L12.7548 9.10738L11.3773 10.8849L11.3748 10.8799Z" fill="#29D305"/>
<path d="M12.0024 23.3949C11.8249 23.3949 11.6474 23.3324 11.5049 23.2099C9.1199 21.1399 -2.6151 10.4999 0.532405 4.20242C2.1374 0.994921 6.0524 -0.312578 9.2599 1.29242C9.8874 1.60742 10.4574 2.01742 10.9524 2.51242L12.0024 3.55992L13.0524 2.51242C14.2799 1.28492 15.9149 0.607422 17.6499 0.607422C19.3874 0.607422 21.0199 1.28492 22.2499 2.51242C22.7449 3.00742 23.1524 3.57492 23.4649 4.19992C26.7399 10.7424 13.9624 21.9549 12.4949 23.2099C12.3524 23.3324 12.1774 23.3924 11.9999 23.3924L12.0024 23.3949ZM6.3599 2.12492C4.5299 2.12492 2.7649 3.13492 1.8924 4.88242C-0.230095 9.12992 7.0274 17.1974 12.0049 21.6249C16.7124 17.4774 24.2724 9.20992 22.1074 4.87992C21.8674 4.39992 21.5524 3.96492 21.1749 3.58492C20.2349 2.64242 18.9824 2.12492 17.6499 2.12492C16.3199 2.12492 15.0674 2.64242 14.1249 3.58492L12.5399 5.16992C12.2424 5.46742 11.7624 5.46742 11.4674 5.16992L9.8799 3.58492C9.4999 3.20492 9.06491 2.89242 8.58241 2.64992C7.86991 2.29242 7.1099 2.12492 6.3624 2.12492H6.3599Z" fill="black"/>
</svg>
