<svg width="24" height="24" fill="none" xmlns="http://www.w3.org/2000/svg"><g clip-path="url(#clip0)"><path fill-rule="evenodd" clip-rule="evenodd" d="M9.428.85a2.571 2.571 0 00-2.57 2.571v.858H.856a.857.857 0 100 1.714H3.43v14.571A2.571 2.571 0 006 23.136h12a2.57 2.57 0 002.572-2.572V5.993h2.57a.857.857 0 000-1.714H17.144V3.42A2.571 2.571 0 0014.57.85H9.428zM7.713 5.993H18.857v14.571a.857.857 0 01-.857.857H6a.857.857 0 01-.857-.857V5.993h2.57zm7.715-1.714V3.42a.857.857 0 00-.857-.857H9.428a.857.857 0 00-.857.857v.858h6.857zM8.572 17.136v-6.857a.857.857 0 011.715 0v6.857a.857.857 0 01-1.715 0zm6.858 0v-6.857a.857.857 0 10-1.715 0v6.857a.857.857 0 001.715 0z" fill="#000"/></g><defs><clipPath id="clip0"><path fill="#fff" d="M0 0h24v24H0z"/></clipPath></defs></svg>