<svg width="24" height="24" viewBox="0 0 24 24" fill="none" xmlns="http://www.w3.org/2000/svg">
<path d="M10.115 19.045H8.9425V17.94L10.405 17.2575C10.7425 17.0875 10.9125 16.6775 10.7425 16.3175C10.5725 15.98 10.1625 15.81 9.8025 15.98L8.9075 16.3975C8.79 15.485 8.33 14.38 7.2425 13.7825L8.0025 12.265C8.1725 11.9275 8.05 11.4925 7.69 11.325C7.3525 11.155 6.9175 11.2775 6.75 11.6375L5.8825 13.375C5.7275 13.36 5.5675 13.35 5.4 13.35C5.2325 13.35 5.0725 13.36 4.9175 13.375L4.0475 11.6375C3.8775 11.3 3.4675 11.155 3.1075 11.325C2.77 11.495 2.625 11.905 2.795 12.265L3.56 13.795C2.4825 14.4 2.02 15.5125 1.8925 16.3875L1.0175 15.98C0.655 15.81 0.245 15.955 0.0775 16.3175C-0.0925 16.68 0.0525 17.09 0.415 17.2575L1.855 17.9275V19.0425H0.7C0.315 19.0425 0 19.355 0 19.7425C0 20.13 0.3125 20.4425 0.7 20.4425H1.85C1.85 20.8925 1.915 21.2825 2.02 21.6325L0.8925 22.76C0.6275 23.05 0.6275 23.5075 0.8925 23.7725C1.0375 23.9175 1.205 23.99 1.4 23.99C1.595 23.99 1.7625 23.9175 1.9075 23.7725L2.765 22.915C3.55 23.72 4.665 23.99 5.3975 23.99C6.6425 23.99 7.48 23.53 8.0275 22.9125L8.8875 23.7725C9.0325 23.9175 9.2 23.99 9.395 23.99C9.59 23.99 9.6375 24.0625 9.9025 23.7725C10.1675 23.4825 10.1675 23.025 9.9025 22.76L8.755 21.6125C8.89 21.19 8.9475 20.7775 8.9475 20.445H10.12C10.505 20.445 10.82 20.1325 10.82 19.745C10.82 19.3575 10.5075 19.045 10.12 19.045H10.115ZM5.395 14.775C5.7575 14.775 7.5175 14.895 7.5175 16.8975V16.9225H3.2725V16.8975C3.2725 16.56 3.3925 14.775 5.395 14.775ZM5.395 22.5675C5.0575 22.5675 3.2725 22.4475 3.2725 20.445V18.3225H7.52V20.445C7.52 20.7825 7.4 22.5675 5.3975 22.5675H5.395Z" fill="black"/>
<path d="M5.9223 10.6C5.5723 10.4 5.4498 9.92748 5.6473 9.57748L6.7198 7.70748H5.7723C5.4723 7.70748 5.2248 7.55748 5.0998 7.30748C4.9498 7.05748 4.9748 6.75998 5.1248 6.53498L9.0148 0.70248C9.2398 0.35248 9.5623 0.12998 9.9623 0.0549805C10.3373 -0.0200195 10.7598 0.0549805 11.0848 0.27998C11.2598 0.40498 11.4098 0.52998 11.5098 0.70498L12.8823 2.77498C13.1323 3.12498 13.0323 3.59748 12.6823 3.82248C12.3323 4.07248 11.8598 3.97248 11.6348 3.62248L10.2623 1.55248L7.1698 6.21498H8.0173C8.2923 6.21498 8.5398 6.36498 8.6648 6.58998C8.7898 6.81498 8.7898 7.11248 8.6648 7.33748L6.9448 10.33C6.8198 10.58 6.5448 10.705 6.2973 10.705C6.1723 10.705 6.0473 10.68 5.9223 10.605V10.6Z" fill="black"/>
<path d="M23.7998 16.7075L21.9798 12.9425H23.0273C23.3023 12.9425 23.5498 12.7925 23.6748 12.5675C23.7998 12.3425 23.7998 12.045 23.6748 11.82L21.3073 7.68001H22.2548C22.5298 7.68001 22.7773 7.53001 22.9273 7.28001C23.0523 7.03001 23.0523 6.73251 22.9023 6.50751L19.0123 0.67251C18.9123 0.49751 18.7623 0.37251 18.5873 0.24751C18.2623 0.0225098 17.8648 -0.0524902 17.4648 0.0225098C17.0648 0.0975098 16.7423 0.32251 16.5173 0.67001L12.6273 6.50501C12.4773 6.73001 12.4523 7.02751 12.6023 7.27751C12.7273 7.52751 12.9773 7.67751 13.2748 7.67751H14.2223L11.8548 11.8175C11.7298 12.0425 11.7298 12.34 11.8548 12.565C11.9798 12.79 12.2298 12.94 12.5023 12.94H13.5498L11.7048 16.755C11.6048 16.93 11.5298 17.205 11.5298 17.4525C11.5298 17.8525 11.6798 18.225 11.9798 18.525C12.2548 18.8 12.7773 18.95 13.0773 18.95H17.0423V22.715C17.0423 23.14 17.3673 23.4625 17.7898 23.4625C18.2123 23.4625 18.5373 23.1375 18.5373 22.715V18.95H22.5023C22.7773 18.95 23.0248 18.875 23.2498 18.75C23.5998 18.55 23.8473 18.2275 23.9473 17.8525C24.0473 17.4525 23.9973 17.055 23.7973 16.705L23.7998 16.7075ZM13.0798 17.4575L15.4723 12.52C15.5973 12.295 15.5723 12.0225 15.4223 11.7975C15.2723 11.5725 15.0473 11.4475 14.7748 11.4475H13.8273L16.1948 7.30751C16.3198 7.08251 16.3198 6.78501 16.1948 6.56001C16.0698 6.33501 15.8198 6.18501 15.5473 6.18501H14.6998L17.7923 1.52251L20.8848 6.18501H20.0373C19.7623 6.18501 19.5148 6.33501 19.3898 6.56001C19.2648 6.78501 19.2648 7.08251 19.3898 7.30751L21.7573 11.4475H20.8098C20.5598 11.4475 20.3123 11.5725 20.1623 11.7975C20.0373 12.0225 20.0123 12.295 20.1123 12.52L22.4798 17.4075L13.0798 17.4575Z" fill="#29D305"/>
</svg>
