<svg width="24" height="25" viewBox="0 0 24 25" fill="none" xmlns="http://www.w3.org/2000/svg">
<path fill-rule="evenodd" clip-rule="evenodd" d="M3 0.998047C3.41421 0.998047 3.75 1.33383 3.75 1.74805V24.248C3.75 24.6623 3.41421 24.9981 3 24.9981C2.58579 24.9981 2.25 24.6623 2.25 24.248V1.74805C2.25 1.33383 2.58579 0.998047 3 0.998047Z" fill="black"/>
<path fill-rule="evenodd" clip-rule="evenodd" d="M21 0.998047C21.4142 0.998047 21.75 1.33383 21.75 1.74805V24.248C21.75 24.6623 21.4142 24.9981 21 24.9981C20.5858 24.9981 20.25 24.6623 20.25 24.248V1.74805C20.25 1.33383 20.5858 0.998047 21 0.998047Z" fill="black"/>
<path fill-rule="evenodd" clip-rule="evenodd" d="M0.75 21.248C0.75 20.8338 1.08579 20.498 1.5 20.498H22.5C22.9142 20.498 23.25 20.8338 23.25 21.248C23.25 21.6623 22.9142 21.998 22.5 21.998H1.5C1.08579 21.998 0.75 21.6623 0.75 21.248Z" fill="black"/>
<path fill-rule="evenodd" clip-rule="evenodd" d="M0.75 10.748C0.75 10.3338 1.08579 9.99805 1.5 9.99805H22.5C22.9142 9.99805 23.25 10.3338 23.25 10.748C23.25 11.1623 22.9142 11.498 22.5 11.498H1.5C1.08579 11.498 0.75 11.1623 0.75 10.748Z" fill="black"/>
<path fill-rule="evenodd" clip-rule="evenodd" d="M5.25 3.99805C5.25 3.58383 5.58579 3.24805 6 3.24805H9C9.41421 3.24805 9.75 3.58383 9.75 3.99805V10.748C9.75 11.1623 9.41421 11.498 9 11.498H6C5.58579 11.498 5.25 11.1623 5.25 10.748V3.99805ZM6.75 4.74805V9.99805H8.25V4.74805H6.75Z" fill="black"/>
<path fill-rule="evenodd" clip-rule="evenodd" d="M6 14.498C6 14.0838 6.33579 13.748 6.75 13.748H9.75C10.1642 13.748 10.5 14.0838 10.5 14.498V21.248C10.5 21.6623 10.1642 21.998 9.75 21.998H6.75C6.33579 21.998 6 21.6623 6 21.248V14.498ZM7.5 15.248V20.498H9V15.248H7.5Z" fill="black"/>
<path fill-rule="evenodd" clip-rule="evenodd" d="M12 14.498C12 14.0838 12.3358 13.748 12.75 13.748H15.75C16.1642 13.748 16.5 14.0838 16.5 14.498V21.248C16.5 21.6623 16.1642 21.998 15.75 21.998H12.75C12.3358 21.998 12 21.6623 12 21.248V14.498ZM13.5 15.248V20.498H15V15.248H13.5Z" fill="black"/>
<path fill-rule="evenodd" clip-rule="evenodd" d="M8.25 3.99805C8.25 3.58383 8.58579 3.24805 9 3.24805H12C12.4142 3.24805 12.75 3.58383 12.75 3.99805V10.748C12.75 11.1623 12.4142 11.498 12 11.498H9C8.58579 11.498 8.25 11.1623 8.25 10.748V3.99805ZM9.75 4.74805V9.99805H11.25V4.74805H9.75Z" fill="black"/>
<path fill-rule="evenodd" clip-rule="evenodd" d="M17.5978 3.04734C17.7722 2.67163 18.2182 2.50845 18.5939 2.68287L21.315 3.94607C21.6907 4.12048 21.8539 4.56644 21.6795 4.94214L18.8373 11.0646C18.6628 11.4403 18.2169 11.6035 17.8412 11.4291L15.1201 10.1659C14.7444 9.99145 14.5812 9.54549 14.7556 9.16979L17.5978 3.04734ZM18.6426 4.35921L16.432 9.12112L17.7925 9.75272L20.0031 4.99081L18.6426 4.35921Z" fill="#29D305"/>
</svg>
