<svg width="24" height="24" viewBox="0 0 24 24" fill="none" xmlns="http://www.w3.org/2000/svg">
<path fill-rule="evenodd" clip-rule="evenodd" d="M3 0C3.41421 0 3.75 0.335786 3.75 0.75V23.25C3.75 23.6642 3.41421 24 3 24C2.58579 24 2.25 23.6642 2.25 23.25V0.75C2.25 0.335786 2.58579 0 3 0Z" fill="black"/>
<path fill-rule="evenodd" clip-rule="evenodd" d="M21 0C21.4142 0 21.75 0.335786 21.75 0.75V23.25C21.75 23.6642 21.4142 24 21 24C20.5858 24 20.25 23.6642 20.25 23.25V0.75C20.25 0.335786 20.5858 0 21 0Z" fill="black"/>
<path fill-rule="evenodd" clip-rule="evenodd" d="M0.75 20.25C0.75 19.8358 1.08579 19.5 1.5 19.5H22.5C22.9142 19.5 23.25 19.8358 23.25 20.25C23.25 20.6642 22.9142 21 22.5 21H1.5C1.08579 21 0.75 20.6642 0.75 20.25Z" fill="black"/>
<path fill-rule="evenodd" clip-rule="evenodd" d="M0.75 9.75C0.75 9.33579 1.08579 9 1.5 9H22.5C22.9142 9 23.25 9.33579 23.25 9.75C23.25 10.1642 22.9142 10.5 22.5 10.5H1.5C1.08579 10.5 0.75 10.1642 0.75 9.75Z" fill="black"/>
<path fill-rule="evenodd" clip-rule="evenodd" d="M5.25 3C5.25 2.58579 5.58579 2.25 6 2.25H9C9.41421 2.25 9.75 2.58579 9.75 3V9.75C9.75 10.1642 9.41421 10.5 9 10.5H6C5.58579 10.5 5.25 10.1642 5.25 9.75V3ZM6.75 3.75V9H8.25V3.75H6.75Z" fill="black"/>
<path fill-rule="evenodd" clip-rule="evenodd" d="M6 13.5C6 13.0858 6.33579 12.75 6.75 12.75H9.75C10.1642 12.75 10.5 13.0858 10.5 13.5V20.25C10.5 20.6642 10.1642 21 9.75 21H6.75C6.33579 21 6 20.6642 6 20.25V13.5ZM7.5 14.25V19.5H9V14.25H7.5Z" fill="black"/>
<path fill-rule="evenodd" clip-rule="evenodd" d="M12 13.5C12 13.0858 12.3358 12.75 12.75 12.75H15.75C16.1642 12.75 16.5 13.0858 16.5 13.5V20.25C16.5 20.6642 16.1642 21 15.75 21H12.75C12.3358 21 12 20.6642 12 20.25V13.5ZM13.5 14.25V19.5H15V14.25H13.5Z" fill="black"/>
<path fill-rule="evenodd" clip-rule="evenodd" d="M8.25 3C8.25 2.58579 8.58579 2.25 9 2.25H12C12.4142 2.25 12.75 2.58579 12.75 3V9.75C12.75 10.1642 12.4142 10.5 12 10.5H9C8.58579 10.5 8.25 10.1642 8.25 9.75V3ZM9.75 3.75V9H11.25V3.75H9.75Z" fill="black"/>
<path fill-rule="evenodd" clip-rule="evenodd" d="M17.5978 2.04929C17.7722 1.67359 18.2182 1.51041 18.5939 1.68482L21.315 2.94802C21.6907 3.12243 21.8539 3.56839 21.6795 3.94409L18.8373 10.0665C18.6628 10.4422 18.2169 10.6054 17.8412 10.431L15.1201 9.16781C14.7444 8.9934 14.5812 8.54744 14.7556 8.17174L17.5978 2.04929ZM18.6426 3.36116L16.432 8.12307L17.7925 8.75467L20.0031 3.99277L18.6426 3.36116Z" fill="#29D305"/>
</svg>
