<svg width="24" height="24" viewBox="0 0 24 24" fill="none" xmlns="http://www.w3.org/2000/svg">
<g clip-path="url(#clip0)">
<path fill-rule="evenodd" clip-rule="evenodd" d="M3 -0.00195312C3.41421 -0.00195312 3.75 0.333833 3.75 0.748047V23.248C3.75 23.6623 3.41421 23.9981 3 23.9981C2.58579 23.9981 2.25 23.6623 2.25 23.248V0.748047C2.25 0.333833 2.58579 -0.00195312 3 -0.00195312Z" fill="black"/>
<path fill-rule="evenodd" clip-rule="evenodd" d="M21 -0.00195312C21.4142 -0.00195312 21.75 0.333833 21.75 0.748047V23.248C21.75 23.6623 21.4142 23.9981 21 23.9981C20.5858 23.9981 20.25 23.6623 20.25 23.248V0.748047C20.25 0.333833 20.5858 -0.00195312 21 -0.00195312Z" fill="black"/>
<path fill-rule="evenodd" clip-rule="evenodd" d="M0.75 20.248C0.75 19.8338 1.08579 19.498 1.5 19.498H22.5C22.9142 19.498 23.25 19.8338 23.25 20.248C23.25 20.6623 22.9142 20.998 22.5 20.998H1.5C1.08579 20.998 0.75 20.6623 0.75 20.248Z" fill="black"/>
<path fill-rule="evenodd" clip-rule="evenodd" d="M0.75 9.74805C0.75 9.33383 1.08579 8.99805 1.5 8.99805H22.5C22.9142 8.99805 23.25 9.33383 23.25 9.74805C23.25 10.1623 22.9142 10.498 22.5 10.498H1.5C1.08579 10.498 0.75 10.1623 0.75 9.74805Z" fill="black"/>
<path fill-rule="evenodd" clip-rule="evenodd" d="M5.25 2.99805C5.25 2.58383 5.58579 2.24805 6 2.24805H9C9.41421 2.24805 9.75 2.58383 9.75 2.99805V9.74805C9.75 10.1623 9.41421 10.498 9 10.498H6C5.58579 10.498 5.25 10.1623 5.25 9.74805V2.99805ZM6.75 3.74805V8.99805H8.25V3.74805H6.75Z" fill="black"/>
<path fill-rule="evenodd" clip-rule="evenodd" d="M6 13.498C6 13.0838 6.33579 12.748 6.75 12.748H9.75C10.1642 12.748 10.5 13.0838 10.5 13.498V20.248C10.5 20.6623 10.1642 20.998 9.75 20.998H6.75C6.33579 20.998 6 20.6623 6 20.248V13.498ZM7.5 14.248V19.498H9V14.248H7.5Z" fill="black"/>
<path fill-rule="evenodd" clip-rule="evenodd" d="M12 13.498C12 13.0838 12.3358 12.748 12.75 12.748H15.75C16.1642 12.748 16.5 13.0838 16.5 13.498V20.248C16.5 20.6623 16.1642 20.998 15.75 20.998H12.75C12.3358 20.998 12 20.6623 12 20.248V13.498ZM13.5 14.248V19.498H15V14.248H13.5Z" fill="black"/>
<path fill-rule="evenodd" clip-rule="evenodd" d="M8.25 2.99805C8.25 2.58383 8.58579 2.24805 9 2.24805H12C12.4142 2.24805 12.75 2.58383 12.75 2.99805V9.74805C12.75 10.1623 12.4142 10.498 12 10.498H9C8.58579 10.498 8.25 10.1623 8.25 9.74805V2.99805ZM9.75 3.74805V8.99805H11.25V3.74805H9.75Z" fill="black"/>
<path fill-rule="evenodd" clip-rule="evenodd" d="M17.5978 2.04734C17.7722 1.67163 18.2182 1.50845 18.5939 1.68287L21.315 2.94607C21.6907 3.12048 21.8539 3.56644 21.6795 3.94214L18.8373 10.0646C18.6628 10.4403 18.2169 10.6035 17.8412 10.4291L15.1201 9.16586C14.7444 8.99145 14.5812 8.54549 14.7556 8.16979L17.5978 2.04734ZM18.6426 3.35921L16.432 8.12112L17.7925 8.75272L20.0031 3.99081L18.6426 3.35921Z" fill="#29D305"/>
</g>
<defs>
<clipPath id="clip0">
<rect width="24" height="24" fill="white"/>
</clipPath>
</defs>
</svg>

