<svg width="24" height="24" viewBox="0 0 24 24" fill="none" xmlns="http://www.w3.org/2000/svg">
<path d="M1 12C1 10.3431 2.23122 9 3.75 9H20.25C21.7688 9 23 10.3431 23 12V21C23 22.6569 21.7688 24 20.25 24H3.75C2.23122 24 1 22.6569 1 21V12Z" fill="black"/>
<path fill-rule="evenodd" clip-rule="evenodd" d="M8 14.25C8.55228 14.25 9 14.6338 9 15.1071V17.3929C9 17.8662 8.55228 18.25 8 18.25C7.44772 18.25 7 17.8662 7 17.3929V15.1071C7 14.6338 7.44772 14.25 8 14.25Z" fill="white"/>
<path fill-rule="evenodd" clip-rule="evenodd" d="M16 14.25C16.5523 14.25 17 14.6338 17 15.1071V17.3929C17 17.8662 16.5523 18.25 16 18.25C15.4477 18.25 15 17.8662 15 17.3929V15.1071C15 14.6338 15.4477 14.25 16 14.25Z" fill="white"/>
<path d="M12.75 5.90549L12.75 11.3846C12.75 11.7245 12.4142 12 12 12C11.5858 12 11.25 11.7245 11.25 11.3846L11.25 5.90549C9.95608 5.57246 9 4.39788 9 3C9 1.34315 10.3431 -1.44847e-07 12 0C13.6569 1.44847e-07 15 1.34315 15 3C15 4.39788 14.0439 5.57246 12.75 5.90549Z" fill="black"/>
</svg>
