<svg width="24" height="24" fill="none" xmlns="http://www.w3.org/2000/svg"><path fill-rule="evenodd" clip-rule="evenodd" d="M11.775 23.963a.72.72 0 00.503-.016l11.25-4.5A.747.747 0 0024 18.75V5.25a.767.767 0 00-.15-.446l-.006-.008a.722.722 0 00-.094-.102l-.017-.014a.732.732 0 00-.062-.051.641.641 0 00-.091-.05.489.489 0 00-.052-.025L12.279.054a.74.74 0 00-.558 0L.47 4.554a.662.662 0 00-.053.026.571.571 0 00-.132.084.685.685 0 00-.172.194A.803.803 0 000 5.25v13.5c0 .309.185.582.471.696l11.25 4.5a.426.426 0 00.054.017zM22.5 18.242l-9.75 3.9V10.258l9.75-3.9v11.884zm-11.25-7.984v11.884L1.5 18.243V6.358l9.75 3.9zm4.918-2.983L12 8.942 2.77 5.25l4.168-1.667 9.23 3.692zM21.23 5.25l-3.043 1.217-9.23-3.692L12 1.558l9.23 3.692zm-3.176 12.278a.744.744 0 00.974.418l1.875-.75a.747.747 0 00.418-.975.744.744 0 00-.974-.418l-1.875.75a.747.747 0 00-.418.975z" fill="#000"/></svg>