<svg width="24" height="24" viewBox="0 0 24 24" fill="none" xmlns="http://www.w3.org/2000/svg">
<path fill-rule="evenodd" clip-rule="evenodd" d="M11.9967 2.01084L5.27554 8.73141C4.91737 9.08955 4.33669 9.08953 3.97855 8.73135C3.62041 8.37318 3.62044 7.7925 3.97861 7.43436L11.0006 0.413035C11.1312 0.282332 11.2868 0.178136 11.4575 0.107352C11.6285 0.0364799 11.8117 0 11.9967 0C12.1818 0 12.365 0.0364799 12.5359 0.107352C12.7066 0.178136 12.8618 0.28184 12.9924 0.412543L20.0149 7.43436C20.373 7.7925 20.3731 8.37318 20.0149 8.73135C19.6568 9.08953 19.0761 9.08955 18.7179 8.73141L11.9967 2.01084Z" fill="black"/>
<path fill-rule="evenodd" clip-rule="evenodd" d="M3.97855 15.2686C4.33669 14.9105 4.91737 14.9104 5.27554 15.2686L11.9967 21.9892L18.7179 15.2686C19.0761 14.9104 19.6568 14.9105 20.0149 15.2686C20.3731 15.6268 20.373 16.2075 20.0149 16.5656L12.9929 23.587C12.9927 23.5871 12.9931 23.5868 12.9929 23.587C12.8622 23.7177 12.7066 23.8219 12.5359 23.8926C12.365 23.9635 12.1818 24 11.9967 24C11.8117 24 11.6285 23.9635 11.4575 23.8926C11.2868 23.8219 11.1317 23.7182 11.0011 23.5875C11.0009 23.5873 11.0012 23.5876 11.0011 23.5875L3.97861 16.5656C3.62044 16.2075 3.62041 15.6268 3.97855 15.2686Z" fill="black"/>
</svg>
