<svg width="24" height="24" fill="none" xmlns="http://www.w3.org/2000/svg"><path fill-rule="evenodd" clip-rule="evenodd" d="M2.746 9.485a.706.706 0 01.704-.646h2.357c.362 0 .666.275.702.636L7.82 22.588h12.798v-8.91L8.942 15.054a.706.706 0 11-.165-1.402l12.464-1.47a.706.706 0 01.788.702v10.41c0 .39-.316.706-.705.706H2.272a.706.706 0 01-.704-.766l1.178-13.75zm3.656 13.103L5.168 10.251h-1.07L3.04 22.588h3.362zM15.694.05a.706.706 0 01.393.918c-.546 1.365-1.847 1.758-3.058 1.934-.486.071-1.014.114-1.536.157l-.42.035c-.67.058-1.333.129-1.976.266-1.496.321-2.383.935-2.944 1.6-.57.676-.85 1.46-1.036 2.203a.706.706 0 11-1.37-.343c.207-.829.554-1.855 1.327-2.771.784-.929 1.96-1.69 3.728-2.069.732-.157 1.469-.234 2.15-.292.154-.014.305-.026.452-.038.515-.042.984-.081 1.421-.145 1.146-.167 1.711-.462 1.951-1.061a.706.706 0 01.918-.393z" fill="#000"/><path fill-rule="evenodd" clip-rule="evenodd" d="M11.306 16.773c0-.39.317-.706.706-.706h1.731a.706.706 0 010 1.412h-1.73a.706.706 0 01-.707-.706z" fill="#29D305"/><path fill-rule="evenodd" clip-rule="evenodd" d="M16.02 16.773c0-.39.316-.706.706-.706h1.731a.706.706 0 010 1.412h-1.731a.706.706 0 01-.706-.706zM11.306 19.523c0-.39.317-.706.706-.706h1.731a.706.706 0 010 1.412h-1.73a.706.706 0 01-.707-.706z" fill="#000"/><path fill-rule="evenodd" clip-rule="evenodd" d="M16.02 19.523c0-.39.316-.706.706-.706h1.731a.706.706 0 010 1.412h-1.731a.706.706 0 01-.706-.706z" fill="#29D305"/></svg>