<svg width="25" height="24" viewBox="0 0 25 24" fill="none" xmlns="http://www.w3.org/2000/svg">
<path d="M1.75101 23.999C1.33701 23.999 1.00101 23.663 1.00101 23.249C1.00101 22.835 1.33701 22.499 1.75101 22.499H2.50101V16.874L2.20101 17.099C2.07001 17.197 1.91501 17.249 1.75101 17.249C1.51601 17.249 1.29201 17.137 1.15101 16.949C0.903007 16.618 0.970007 16.147 1.30101 15.899L7.30101 11.399C7.43201 11.301 7.58701 11.249 7.75101 11.249C7.91501 11.249 8.07001 11.301 8.20101 11.399L14.201 15.899C14.532 16.147 14.599 16.618 14.351 16.949C14.21 17.137 13.986 17.249 13.751 17.249C13.588 17.249 13.433 17.197 13.302 17.099L13.001 16.874V22.499H19.001V20.922C17.269 20.572 16.001 19.048 16.001 17.249C16.001 12.631 18.954 6.66502 19.08 6.41402C19.208 6.15802 19.465 5.99902 19.751 5.99902C20.037 5.99902 20.294 6.15802 20.422 6.41402C20.548 6.66602 23.501 12.631 23.501 17.249C23.501 19.048 22.233 20.572 20.501 20.922V22.499H24.251C24.665 22.499 25.001 22.835 25.001 23.249C25.001 23.663 24.665 23.999 24.251 23.999H1.75101ZM11.501 22.499V15.749L7.75101 12.937L4.00101 15.749V22.499H5.50101V20.249C5.50101 19.008 6.51001 17.999 7.75101 17.999C8.99201 17.999 10.001 19.008 10.001 20.249V22.499H11.501ZM8.50101 22.499V20.249C8.50101 19.835 8.16501 19.499 7.75101 19.499C7.33701 19.499 7.00101 19.835 7.00101 20.249V22.499H8.50101ZM19.751 8.56302C18.882 10.6 17.501 14.3 17.501 17.249C17.501 18.49 18.51 19.499 19.751 19.499C20.992 19.499 22.001 18.49 22.001 17.249C22.001 14.298 20.62 10.599 19.751 8.56302Z" fill="black"/>
<path d="M4.74299 7.49906C3.06999 7.49906 1.58699 6.37306 1.13699 4.76106C0.581994 2.77206 1.74899 0.702057 3.73799 0.147057C4.06999 0.0550566 4.40999 0.00805664 4.74999 0.00805664C5.38799 0.00805664 6.02199 0.175057 6.58399 0.492057C7.14899 0.811057 7.61399 1.26006 7.94399 1.80406C8.35299 1.60406 8.80199 1.49906 9.26099 1.49906C10.927 1.50606 12.267 2.85706 12.261 4.51106C12.254 6.15906 10.909 7.49906 9.26099 7.49906H4.74299ZM4.74799 1.50806C4.54399 1.50806 4.33999 1.53606 4.14099 1.59206C2.94799 1.92406 2.24899 3.16506 2.58099 4.35706C2.85099 5.32406 3.73999 5.99906 4.74299 5.99906C4.74299 5.99906 9.25599 5.99906 9.25799 5.99906C10.085 5.99606 10.755 5.32706 10.758 4.50506C10.76 4.10406 10.605 3.72706 10.323 3.44306C10.042 3.15806 9.66599 3.00106 9.26599 2.99906C8.84699 2.99906 8.45499 3.16906 8.17299 3.46606C8.03099 3.61406 7.83299 3.69906 7.62799 3.69906C7.56699 3.69906 7.50699 3.69206 7.44799 3.67706C7.18599 3.61206 6.97899 3.41006 6.90599 3.15006C6.74499 2.57206 6.36799 2.09206 5.84599 1.79806C5.50899 1.60806 5.12899 1.50806 4.74799 1.50806Z" fill="black"/>
</svg>
