<svg width="24" height="24" viewBox="0 0 24 24" fill="none" xmlns="http://www.w3.org/2000/svg">
<path fill-rule="evenodd" clip-rule="evenodd" d="M13.9898 4.77124C13.9845 4.77117 13.9793 4.77216 13.9745 4.77412C13.9696 4.77612 13.9651 4.77907 13.9615 4.78275C13.9578 4.78645 13.9548 4.79088 13.9528 4.79576C13.9509 4.80063 13.9499 4.80586 13.95 4.81111L13.9501 4.82131L13.95 6.18665L13.9498 6.20346C13.9311 7.03915 14.22 7.85262 14.7616 8.48934C15.2925 9.11347 16.03 9.52514 16.8387 9.64998H17.2C18.062 9.64998 18.8886 9.30756 19.4981 8.69806C20.1076 8.08858 20.45 7.26194 20.45 6.39998V4.82131C20.45 4.80804 20.4447 4.79532 20.4354 4.78595C20.426 4.77659 20.4133 4.77131 20.4 4.77131L13.9898 4.77124ZM14.0043 3.27131C13.8007 3.26933 13.5987 3.30774 13.4099 3.38443C13.2194 3.46182 13.0463 3.57661 12.9008 3.72209C12.7554 3.86753 12.6406 4.04064 12.5632 4.23118C12.4865 4.41989 12.448 4.62193 12.45 4.82557V6.17859C12.4252 7.37883 12.8411 8.54667 13.619 9.46123C14.3989 10.378 15.4883 10.9764 16.6804 11.1428C16.7147 11.1476 16.7494 11.15 16.784 11.15H17.2C18.4598 11.15 19.668 10.6495 20.5588 9.75872C21.4496 8.86792 21.95 7.65974 21.95 6.39998V4.82131C21.95 4.41024 21.7867 4.01599 21.496 3.72529C21.2053 3.4346 20.8111 3.27131 20.4 3.27131H14.0043Z" fill="black"/>
<path fill-rule="evenodd" clip-rule="evenodd" d="M14.8 0.0500488C15.2142 0.0500488 15.55 0.385835 15.55 0.800049V4.00005C15.55 4.41426 15.2142 4.75005 14.8 4.75005C14.3858 4.75005 14.05 4.41426 14.05 4.00005V0.800049C14.05 0.385835 14.3858 0.0500488 14.8 0.0500488Z" fill="black"/>
<path fill-rule="evenodd" clip-rule="evenodd" d="M19.6 0.0500488C20.0142 0.0500488 20.35 0.385835 20.35 0.800049V4.00005C20.35 4.41426 20.0142 4.75005 19.6 4.75005C19.1858 4.75005 18.85 4.41426 18.85 4.00005V0.800049C18.85 0.385835 19.1858 0.0500488 19.6 0.0500488Z" fill="black"/>
<path fill-rule="evenodd" clip-rule="evenodd" d="M17.2 9.65002C17.6142 9.65002 17.95 9.98581 17.95 10.4V16C17.95 18.1085 17.1124 20.1306 15.6215 21.6215C14.1306 23.1124 12.1084 23.95 9.99997 23.95C7.8915 23.95 5.86941 23.1124 4.3785 21.6215C2.88884 20.1319 2.05138 18.1119 2.04998 16.0053C2.0299 14.5261 2.32362 13.0593 2.91179 11.7019C3.07647 11.3218 3.51808 11.1472 3.89815 11.3118C4.27822 11.4765 4.45283 11.9181 4.28815 12.2982C3.78367 13.4625 3.53204 14.7207 3.5499 15.9895L3.55005 16L3.54997 16C3.54997 17.7107 4.22954 19.3512 5.43916 20.5609C6.64877 21.7705 8.28933 22.45 9.99997 22.45C11.7106 22.45 13.3512 21.7705 14.5608 20.5609C15.7704 19.3512 16.45 17.7107 16.45 16V10.4C16.45 9.98581 16.7858 9.65002 17.2 9.65002Z" fill="black"/>
</svg>
