<svg width="24" height="24" viewBox="0 0 24 24" fill="none" xmlns="http://www.w3.org/2000/svg">
<path fill-rule="evenodd" clip-rule="evenodd" d="M17.0727 11.8701C17.0764 11.8739 17.0807 11.8768 17.0855 11.8789C17.0904 11.8809 17.0957 11.882 17.1009 11.882C17.1061 11.882 17.1113 11.8809 17.1162 11.8789C17.121 11.8768 17.1254 11.8738 17.1291 11.8701L17.1362 11.8627L18.1017 10.8974L18.1137 10.8856C18.7179 10.3079 19.0888 9.52845 19.156 8.69524C19.222 7.8785 18.9916 7.06592 18.508 6.4058L18.2525 6.15032C17.643 5.54083 16.8163 5.19841 15.9544 5.19841C15.0924 5.19841 14.2658 5.54082 13.6563 6.15032L12.54 7.2666C12.5306 7.27599 12.5254 7.28871 12.5254 7.30196C12.5254 7.3152 12.5306 7.32793 12.54 7.33731L17.0727 11.8701ZM16.0018 12.9204C16.1444 13.0658 16.3144 13.1815 16.5021 13.2607C16.6915 13.3407 16.8951 13.382 17.1009 13.382C17.3065 13.382 17.5101 13.3407 17.6996 13.2608C17.8873 13.1815 18.0573 13.0658 18.1999 12.9204L19.1566 11.9637C20.0228 11.1325 20.5546 10.0127 20.6512 8.81591C20.748 7.61621 20.4008 6.42273 19.6755 5.46219C19.6546 5.43452 19.6318 5.40832 19.6073 5.3838L19.3132 5.08966C18.4224 4.19886 17.2142 3.69841 15.9544 3.69841C14.6946 3.69841 13.4864 4.19887 12.5957 5.08966L11.4794 6.20594C11.1887 6.49661 11.0254 6.89086 11.0254 7.30196C11.0254 7.71306 11.1887 8.1073 11.4794 8.39797L16.0018 12.9204Z" fill="black"/>
<path fill-rule="evenodd" clip-rule="evenodd" d="M11.1255 10.4488C11.4184 10.7417 11.4184 11.2166 11.1255 11.5094L9.55435 13.0806C9.26146 13.3735 8.78658 13.3735 8.49369 13.0806C8.2008 12.7877 8.2008 12.3129 8.49369 12.02L10.0649 10.4488C10.3578 10.1559 10.8327 10.1559 11.1255 10.4488Z" fill="black"/>
<path fill-rule="evenodd" clip-rule="evenodd" d="M13.9542 13.2774C14.2471 13.5703 14.2471 14.0452 13.9542 14.3381L12.3863 15.9059C12.0934 16.1988 11.6185 16.1988 11.3256 15.9059C11.0327 15.613 11.0327 15.1382 11.3256 14.8453L12.8935 13.2774C13.1864 12.9845 13.6613 12.9845 13.9542 13.2774Z" fill="black"/>
<path fill-rule="evenodd" clip-rule="evenodd" d="M7.49812 12.3663C7.49442 12.3625 7.49005 12.3595 7.48525 12.3575C7.48036 12.3554 7.47514 12.3544 7.46994 12.3544C7.46469 12.3544 7.45949 12.3554 7.45464 12.3575C7.44979 12.3595 7.4454 12.3625 7.44174 12.3663L7.43462 12.3736L6.46914 13.339L6.45711 13.3507C5.85294 13.9284 5.48201 14.7079 5.41476 15.5411C5.34884 16.3578 5.57923 17.1704 6.06281 17.8305L6.31829 18.086C6.92778 18.6955 7.75445 19.0379 8.61641 19.0379C9.47835 19.0379 10.305 18.6955 10.9145 18.086L12.0308 16.9697C12.0402 16.9603 12.0454 16.9476 12.0454 16.9344C12.0454 16.9211 12.0402 16.9084 12.0308 16.899L7.49812 12.3663ZM8.56895 11.3159C8.42639 11.1705 8.25639 11.0548 8.06869 10.9756C7.87927 10.8956 7.67567 10.8544 7.46994 10.8544C7.26425 10.8544 7.06066 10.8956 6.8712 10.9756C6.68355 11.0548 6.5135 11.1705 6.3709 11.3159L5.41417 12.2726C4.54796 13.1038 4.01621 14.2236 3.91962 15.4204C3.82279 16.6201 4.16999 17.8136 4.89528 18.7741C4.91617 18.8018 4.93896 18.828 4.96348 18.8525L5.25763 19.1467C6.14843 20.0375 7.35663 20.5379 8.61641 20.5379C9.8762 20.5379 11.0844 20.0375 11.9751 19.1467L13.0914 18.0304C13.3821 17.7397 13.5454 17.3455 13.5454 16.9344C13.5454 16.5233 13.3821 16.129 13.0914 15.8384L8.56895 11.3159Z" fill="black"/>
<path fill-rule="evenodd" clip-rule="evenodd" d="M21.2877 0C21.009 2.32062 19.767 3.99516 18.647 4.86061L19.5642 6.04754C20.995 4.9419 22.51 2.85251 22.7969 0L21.2877 0Z" fill="black"/>
<path fill-rule="evenodd" clip-rule="evenodd" d="M5.65075 17.3364C3.89131 18.2625 1.8264 20.3424 1.22511 23.5885C1.20003 23.7239 1.17753 23.8611 1.15773 24.0001H2.67558C2.68339 23.9537 2.69153 23.9075 2.70002 23.8617C3.20706 21.1245 4.94216 19.4045 6.34937 18.6638L5.65075 17.3364Z" fill="black"/>
</svg>
