<svg width="24" height="24" viewBox="0 0 24 24" fill="none" xmlns="http://www.w3.org/2000/svg">
<path fill-rule="evenodd" clip-rule="evenodd" d="M15.0727 13.8701C15.0764 13.8739 15.0807 13.8768 15.0855 13.8789C15.0904 13.8809 15.0957 13.882 15.1009 13.882C15.1061 13.882 15.1113 13.8809 15.1162 13.8789C15.121 13.8768 15.1254 13.8738 15.1291 13.8701L15.1362 13.8627L16.1017 12.8974L16.1137 12.8856C16.7179 12.3079 17.0888 11.5284 17.156 10.6952C17.222 9.8785 16.9916 9.06592 16.508 8.4058L16.2525 8.15032C15.643 7.54083 14.8163 7.19841 13.9544 7.19841C13.0924 7.19841 12.2658 7.54082 11.6563 8.15032L10.54 9.2666C10.5306 9.27599 10.5254 9.28871 10.5254 9.30196C10.5254 9.3152 10.5306 9.32793 10.54 9.33731L15.0727 13.8701ZM14.0018 14.9204C14.1444 15.0658 14.3144 15.1815 14.5021 15.2607C14.6915 15.3407 14.8951 15.382 15.1009 15.382C15.3065 15.382 15.5101 15.3407 15.6996 15.2608C15.8873 15.1815 16.0573 15.0658 16.1999 14.9204L17.1566 13.9637C18.0228 13.1325 18.5546 12.0127 18.6512 10.8159C18.748 9.61621 18.4008 8.42273 17.6755 7.46219C17.6546 7.43452 17.6318 7.40832 17.6073 7.3838L17.3132 7.08966C16.4224 6.19886 15.2142 5.69841 13.9544 5.69841C12.6946 5.69841 11.4864 6.19887 10.5957 7.08966L9.47938 8.20594C9.18871 8.49661 9.02538 8.89086 9.02538 9.30196C9.02538 9.71306 9.18871 10.1073 9.47938 10.398L14.0018 14.9204Z" fill="black"/>
<path fill-rule="evenodd" clip-rule="evenodd" d="M9.49812 10.3663C9.49442 10.3625 9.49005 10.3595 9.48525 10.3575C9.48036 10.3554 9.47514 10.3544 9.46994 10.3544C9.46469 10.3544 9.45949 10.3554 9.45464 10.3575C9.44979 10.3595 9.4454 10.3625 9.44174 10.3663L9.43462 10.3736L8.46914 11.339L8.45711 11.3507C7.85294 11.9284 7.48201 12.7079 7.41476 13.5411C7.34884 14.3578 7.57923 15.1704 8.06281 15.8305L8.31829 16.086C8.92778 16.6955 9.75445 17.0379 10.6164 17.0379C11.4784 17.0379 12.305 16.6955 12.9145 16.086L14.0308 14.9697C14.0402 14.9603 14.0454 14.9476 14.0454 14.9344C14.0454 14.9211 14.0402 14.9084 14.0308 14.899L9.49812 10.3663ZM10.569 9.31588C10.4264 9.17052 10.2564 9.05483 10.0687 8.97559C9.87927 8.89561 9.67567 8.85436 9.46994 8.85436C9.26425 8.85436 9.06066 8.89558 8.8712 8.97558C8.68355 9.0548 8.5135 9.17048 8.3709 9.31588L7.41417 10.2726C6.54796 11.1038 6.01621 12.2236 5.91962 13.4204C5.82279 14.6201 6.16999 15.8136 6.89528 16.7741C6.91617 16.8018 6.93896 16.828 6.96348 16.8525L7.25763 17.1467C8.14843 18.0375 9.35663 18.5379 10.6164 18.5379C11.8762 18.5379 13.0844 18.0375 13.9751 17.1467L15.0914 16.0304C15.3821 15.7397 15.5454 15.3455 15.5454 14.9344C15.5454 14.5233 15.3821 14.129 15.0914 13.8384L10.569 9.31588Z" fill="black"/>
<path fill-rule="evenodd" clip-rule="evenodd" d="M20.0989 0C20.085 0.0854183 20.0702 0.170336 20.0546 0.254741C19.4086 3.74408 17.318 6.42018 16.0415 7.40654L16.9587 8.59347C18.5138 7.39178 20.8134 4.39626 21.5295 0.527801C21.5618 0.353492 21.5908 0.17753 21.6164 0L20.0989 0Z" fill="black"/>
<path fill-rule="evenodd" clip-rule="evenodd" d="M7.65079 15.3364C5.88404 16.2663 3.35496 18.8305 2.24457 22.5083C2.09977 22.988 1.97932 23.4856 1.8877 24.0001H3.41448C3.48809 23.6357 3.57763 23.2828 3.68055 22.9419C4.67853 19.6364 6.94949 17.4006 8.34941 16.6638L7.65079 15.3364Z" fill="black"/>
</svg>
