<svg width="24" height="24" viewBox="0 0 24 24" fill="none" xmlns="http://www.w3.org/2000/svg">
<rect x="3" y="19.5" width="6" height="1.5" rx="0.75" fill="black"/>
<path d="M2.25 24C1.009 24 0 22.991 0 21.75V5.25C0 4.009 1.009 3 2.25 3H6V0.75C6 0.336 6.336 0 6.75 0C7.164 0 7.5 0.336 7.5 0.75V3H16.5V0.75C16.5 0.336 16.836 0 17.25 0C17.664 0 18 0.336 18 0.75V3H21.75C22.991 3 24 4.009 24 5.25V21.75C24 22.991 22.991 24 21.75 24H2.25ZM1.5 21.75C1.5 22.164 1.836 22.5 2.25 22.5H21.75C22.164 22.5 22.5 22.164 22.5 21.75V10.5H1.5V21.75ZM22.5 9V5.25C22.5 4.836 22.164 4.5 21.75 4.5H18V6C18 6.414 17.664 6.75 17.25 6.75C16.836 6.75 16.5 6.414 16.5 6V4.5H7.5V6C7.5 6.414 7.164 6.75 6.75 6.75C6.336 6.75 6 6.414 6 6V4.5H2.25C1.836 4.5 1.5 4.836 1.5 5.25V9H22.5Z" fill="black"/>
</svg>
