<svg width="25" height="24" viewBox="0 0 25 24" fill="none" xmlns="http://www.w3.org/2000/svg">
<path fill-rule="evenodd" clip-rule="evenodd" d="M0.00132751 21.75C0.00132751 22.991 1.01033 24 2.25133 24H21.7513C22.9923 24 24.0013 22.991 24.0013 21.75V5.25C24.0013 4.009 22.9923 3 21.7513 3H18.0013V0.75C18.0013 0.336 17.6653 0 17.2513 0C16.8373 0 16.5013 0.336 16.5013 0.75V3H7.50133V0.75C7.50133 0.336 7.16533 0 6.75133 0C6.33733 0 6.00133 0.336 6.00133 0.75V3H2.25133C1.01033 3 0.00132751 4.009 0.00132751 5.25V21.75ZM2.25133 22.5C1.83733 22.5 1.50133 22.164 1.50133 21.75V10.5H22.5013V21.75C22.5013 22.164 22.1653 22.5 21.7513 22.5H2.25133ZM22.5013 5.25V9.00001H1.50133V5.25C1.50133 4.836 1.83733 4.5 2.25133 4.5H6.00133V6C6.00133 6.414 6.33733 6.75 6.75133 6.75C7.16533 6.75 7.50133 6.414 7.50133 6V4.5H16.5013V6C16.5013 6.414 16.8373 6.75 17.2513 6.75C17.6653 6.75 18.0013 6.414 18.0013 6V4.5H21.7513C22.1653 4.5 22.5013 4.836 22.5013 5.25ZM3.75 19.5C3.33579 19.5 3 19.8358 3 20.25C3 20.6642 3.33579 21 3.75 21H8.25C8.66421 21 9 20.6642 9 20.25C9 19.8358 8.66421 19.5 8.25 19.5H3.75Z" fill="black"/>
</svg>
