<svg width="24" height="24" fill="none" xmlns="http://www.w3.org/2000/svg"><g clip-path="url(#clip0)"><path d="M18.035 24a6.295 6.295 0 01-3.411-1.01A50.474 50.474 0 011.004 9.375C-.6 6.85-.253 3.629 1.845 1.53L2.62.758A2.58 2.58 0 014.454 0c.694 0 1.345.269 1.834.758L9.55 4.022a2.595 2.595 0 01-.002 3.665 1.097 1.097 0 000 1.549l5.233 5.23c.193.192.468.306.76.306s.567-.114.773-.32a2.58 2.58 0 011.835-.758 2.58 2.58 0 011.835.757l3.26 3.259a2.596 2.596 0 010 3.667l-.773.774A6.241 6.241 0 0118.035 24zm-2.581-2.259c.798.5 1.683.757 2.583.757 1.267 0 2.464-.5 3.372-1.408l.774-.773a1.098 1.098 0 000-1.549l-3.26-3.257a1.087 1.087 0 00-.774-.319c-.293 0-.568.114-.774.32a2.578 2.578 0 01-1.834.758 2.57 2.57 0 01-1.824-.75l-5.228-5.226a2.596 2.596 0 010-3.667 1.096 1.096 0 000-1.544l-.026-.028-3.236-3.238a1.09 1.09 0 00-.773-.318c-.293 0-.568.114-.775.32l-.774.773a4.752 4.752 0 00-.653 5.948 48.957 48.957 0 0013.202 13.201z" fill="#000"/></g><defs><clipPath id="clip0"><path d="M0 0h24v24H0V0z" fill="#fff"/></clipPath></defs></svg>