<svg width="24" height="24" viewBox="0 0 24 24" fill="none" xmlns="http://www.w3.org/2000/svg">
<path d="M7.53385 4.97907C7.92916 4.66828 8.41754 4.49954 8.92039 4.5H21.75C22.3467 4.5 22.919 4.73705 23.341 5.15901C23.7629 5.58097 24 6.15326 24 6.75V15.6001C24 16.1968 23.7629 16.7691 23.341 17.1911C22.919 17.613 22.3467 17.8501 21.75 17.8501H21.5C21.0858 17.8501 20.75 17.5143 20.75 17.1001C20.75 16.6859 21.0858 16.3501 21.5 16.3501H21.75C21.9489 16.3501 22.1397 16.2711 22.2803 16.1304C22.421 15.9898 22.5 15.799 22.5 15.6001V6.75C22.5 6.55109 22.421 6.36032 22.2803 6.21967C22.1397 6.07902 21.9489 6 21.75 6H9.55859C9.39242 5.99981 8.77304 5.94882 8.6067 6.11516C8.44035 6.28151 8.13408 6.73858 8.13408 6.73858L5.76407 10.3486C5.69852 10.4735 5.59908 10.5773 5.47717 10.6483L1.81975 12.1944C1.72359 12.2618 1.64451 12.3508 1.58897 12.4544C1.53052 12.5635 1.49995 12.6853 1.5 12.809V15.75C1.5 15.9489 1.57902 16.1397 1.71967 16.2803C1.86032 16.421 2.05109 16.5 2.25 16.5H5.38C5.79421 16.5 6.13 16.8358 6.13 17.25C6.13 17.6642 5.79421 18 5.38 18H2.25C1.65326 18 1.08097 17.7629 0.65901 17.341C0.237053 16.919 6.95376e-08 16.3467 6.95376e-08 15.75V12.8096C-9.21783e-05 12.4385 0.0915982 12.0729 0.266906 11.7458C0.407157 11.4037 0.842625 11.0467 1.04283 10.911L4.53625 9.4603L6.76722 6.11516C6.78914 6.07134 6.81047 6.02827 6.83142 5.98595C7.03293 5.57894 7.19995 5.24159 7.53385 4.97907Z" fill="black"/>
<path fill-rule="evenodd" clip-rule="evenodd" d="M7.75 15.8501C6.92157 15.8501 6.25 16.5217 6.25 17.3501C6.25 18.1785 6.92157 18.8501 7.75 18.8501C8.57843 18.8501 9.25 18.1785 9.25 17.3501C9.25 16.5217 8.57843 15.8501 7.75 15.8501ZM4.75 17.3501C4.75 15.6932 6.09315 14.3501 7.75 14.3501C9.40685 14.3501 10.75 15.6932 10.75 17.3501C10.75 19.007 9.40685 20.3501 7.75 20.3501C6.09315 20.3501 4.75 19.007 4.75 17.3501Z" fill="black"/>
<path fill-rule="evenodd" clip-rule="evenodd" d="M18.5 15.8501C17.6716 15.8501 17 16.5217 17 17.3501C17 18.1785 17.6716 18.8501 18.5 18.8501C19.3284 18.8501 20 18.1785 20 17.3501C20 16.5217 19.3284 15.8501 18.5 15.8501ZM15.5 17.3501C15.5 15.6932 16.8431 14.3501 18.5 14.3501C20.1569 14.3501 21.5 15.6932 21.5 17.3501C21.5 19.007 20.1569 20.3501 18.5 20.3501C16.8431 20.3501 15.5 19.007 15.5 17.3501Z" fill="black"/>
<path fill-rule="evenodd" clip-rule="evenodd" d="M9.25 17C9.25 16.5858 9.58579 16.25 10 16.25L16 16.25C16.4142 16.25 16.75 16.5858 16.75 17C16.75 17.4142 16.4142 17.75 16 17.75H10C9.58579 17.75 9.25 17.4142 9.25 17Z" fill="black"/>
<path fill-rule="evenodd" clip-rule="evenodd" d="M13.5 9.25C13.5 8.83579 13.8358 8.5 14.25 8.5H19.25C19.6642 8.5 20 8.83579 20 9.25C20 9.66421 19.6642 10 19.25 10H14.25C13.8358 10 13.5 9.66421 13.5 9.25Z" fill="#29D305"/>
</svg>
