<svg width="24" height="24" viewBox="0 0 24 24" fill="none" xmlns="http://www.w3.org/2000/svg">
<g clip-path="url(#clip0)">
<path fill-rule="evenodd" clip-rule="evenodd" d="M11.0107 0L22.6821 0.310268C23.2897 0.326421 23.7763 0.817864 23.7847 1.42391L24 16.9924L21.969 19.1778C21.7589 19.3828 21.4768 19.5 21.1784 19.5H8.007C7.45199 19.5 7.00315 19.048 7.00702 18.493L7.06618 10.0124C7.52504 9.80705 7.97748 9.5984 8.32923 9.41486L8.27058 17.8438L10.4039 16.3437V1.32091L8.38416 1.51957L8.35461 5.76583C8.02363 5.83887 7.58646 5.93956 7.09373 6.06372L7.12628 1.39771C7.1304 0.819871 7.57119 0.338307 8.14789 0.281583L11.0107 0ZM11.6626 1.27291V16.1045L22.7289 16.1045L22.5277 1.56175L11.6626 1.27291ZM22.2495 17.3596H11.1808L10 18.2449H21.2773L22.2495 17.3596Z" fill="black"/>
<path fill-rule="evenodd" clip-rule="evenodd" d="M8.68395 8.02691V6.27718C7.68749 6.50338 6.35975 6.83329 5.11592 7.23232C4.25491 7.50853 3.47697 7.80447 2.88953 8.10365C2.596 8.25315 2.38112 8.38791 2.23693 8.50105C2.14484 8.57332 2.10597 8.61777 2.09543 8.63012C1.97627 8.88274 1.84911 9.31134 1.73625 9.9146C1.62385 10.5154 1.53941 11.2114 1.47713 11.9326C1.38559 12.9926 1.34524 14.0661 1.32759 14.9035H2.1424L3.3524 11.3701C3.3913 11.2566 3.53357 10.8467 3.9595 10.5629C4.1912 10.4085 4.68973 10.1516 5.17485 9.90309C5.31839 9.82955 5.46905 9.75266 5.62464 9.67326L5.62467 9.67324C6.04844 9.45698 6.50881 9.22204 6.96177 8.98513C7.58416 8.65959 8.15886 8.34772 8.57032 8.09719C8.61116 8.07233 8.649 8.0489 8.68395 8.02691ZM10 8.61411V5.29025C10 4.96114 9.70444 4.71368 9.38166 4.78082C7.45973 5.18064 1.6738 6.49976 0.923625 8.03126C0.120813 9.67022 0.0138229 13.9408 1.65174e-05 15.694C-0.00226849 15.9842 0.232818 16.2171 0.523552 16.2171H1.15054C0.971659 17.3832 0.912791 19.1464 1.33691 20.6944C1.76418 22.2539 2.75318 23.7896 4.7996 23.9966C5.15659 24.0327 5.47667 23.7859 5.51452 23.4454C5.55237 23.1048 5.29366 22.7995 4.93668 22.7634C3.6863 22.6369 2.96542 21.734 2.59466 20.3808C2.2252 19.0323 2.27444 17.4292 2.44181 16.3647C2.44966 16.3147 2.45104 16.2653 2.44654 16.2171H2.70766C2.93277 16.2171 3.13228 16.0742 3.20509 15.8616L4.59771 11.795C4.61644 11.7403 4.642 11.6876 4.69018 11.6555C4.88219 11.5276 5.48458 11.2201 6.21833 10.8457L6.21833 10.8457C7.80286 10.037 10 8.91578 10 8.61411Z" fill="black"/>
<path fill-rule="evenodd" clip-rule="evenodd" d="M17.5393 7.45165L18.2847 2.19995L14 10.0391H16.4606L15.7152 15.2908L19.9999 7.45165L17.5393 7.45165Z" fill="#29D305"/>
</g>
<defs>
<clipPath id="clip0">
<rect width="24" height="24" fill="white"/>
</clipPath>
</defs>
</svg>
