<svg width="24" height="24" viewBox="0 0 24 24" fill="none" xmlns="http://www.w3.org/2000/svg">
<path fill-rule="evenodd" clip-rule="evenodd" d="M11.0107 0L22.6821 0.310268C23.2897 0.326421 23.7763 0.817864 23.7847 1.42391L24 16.9924L21.969 19.1778C21.7589 19.3828 21.4768 19.5 21.1784 19.5H8.007C7.45199 19.5 7.00315 19.048 7.00702 18.493L7.06618 10.0124C7.52504 9.80705 7.97748 9.5984 8.32923 9.41486L8.27058 17.8438L10.4039 16.3437V1.32091L8.38416 1.51957L8.35461 5.76583C8.02363 5.83887 7.58646 5.93956 7.09373 6.06372L7.12628 1.39771C7.1304 0.819871 7.57119 0.338307 8.14789 0.281583L11.0107 0ZM11.6626 1.27291V16.1045L22.7289 16.1045L22.5277 1.56175L11.6626 1.27291ZM22.2495 17.3596H11.1808L10 18.2449H21.2773L22.2495 17.3596Z" fill="black"/>
<path fill-rule="evenodd" clip-rule="evenodd" d="M8.68395 8.02691V6.27718C7.68749 6.50338 6.35975 6.83329 5.11592 7.23232C4.25491 7.50853 3.47697 7.80447 2.88953 8.10365C2.596 8.25315 2.38112 8.38791 2.23693 8.50105C2.14484 8.57332 2.10597 8.61777 2.09543 8.63012C1.97627 8.88274 1.84911 9.31134 1.73625 9.9146C1.62385 10.5154 1.53941 11.2114 1.47713 11.9326C1.38559 12.9926 1.34524 14.0661 1.32759 14.9035H2.1424L3.3524 11.3701C3.3913 11.2566 3.53357 10.8467 3.9595 10.5629C4.1912 10.4085 4.68973 10.1516 5.17485 9.90309C5.31839 9.82955 5.46905 9.75266 5.62464 9.67326L5.62467 9.67324C6.04844 9.45698 6.50881 9.22204 6.96177 8.98513C7.58416 8.65959 8.15886 8.34772 8.57032 8.09719C8.61116 8.07233 8.649 8.0489 8.68395 8.02691ZM10 8.61411V5.29025C10 4.96114 9.70444 4.71368 9.38166 4.78082C7.45973 5.18064 1.6738 6.49976 0.923625 8.03126C0.120813 9.67022 0.0138229 13.9408 1.65174e-05 15.694C-0.00226849 15.9842 0.232818 16.2171 0.523552 16.2171H1.15054C0.971659 17.3832 0.912791 19.1464 1.33691 20.6944C1.76418 22.2539 2.75318 23.7896 4.7996 23.9966C5.15659 24.0327 5.47667 23.7859 5.51452 23.4454C5.55237 23.1048 5.29366 22.7995 4.93668 22.7634C3.6863 22.6369 2.96542 21.734 2.59466 20.3808C2.2252 19.0323 2.27444 17.4292 2.44181 16.3647C2.44966 16.3147 2.45104 16.2653 2.44654 16.2171H2.70766C2.93277 16.2171 3.13228 16.0742 3.20509 15.8616L4.59771 11.795C4.61644 11.7403 4.642 11.6876 4.69018 11.6555C4.88219 11.5276 5.48458 11.2201 6.21833 10.8457L6.21833 10.8457C7.80286 10.037 10 8.91578 10 8.61411Z" fill="black"/>
<path fill-rule="evenodd" clip-rule="evenodd" d="M14.4899 8.20337L14.0776 8.81686C13.9734 8.94234 13.9053 9.09377 13.8805 9.25497C13.8557 9.41617 13.8751 9.58108 13.9368 9.73207C13.9929 9.84463 14.0751 9.94215 14.1766 10.0165C14.2781 10.0909 14.3958 10.1399 14.5201 10.1595L15.7219 10.3506C15.735 10.3518 15.7477 10.3557 15.7592 10.362C15.7707 10.3683 15.7807 10.3769 15.7887 10.3873C15.7968 10.3977 15.8026 10.4096 15.8058 10.4223C15.809 10.435 15.8095 10.4483 15.8074 10.4612L15.1889 14.6853C15.1787 14.7462 15.1895 14.8088 15.2197 14.8628C15.2499 14.9167 15.2975 14.9588 15.3548 14.982C15.4115 15.0035 15.4738 15.0059 15.5319 14.9886C15.5901 14.9713 15.6409 14.9354 15.6767 14.8864L18.5598 11L19.951 9.19901C20.0321 9.08313 20.087 8.95101 20.1119 8.8118C20.1446 8.67629 20.1446 8.53496 20.1119 8.39946C20.0739 8.26403 20.0011 8.14093 19.9007 8.04242C19.802 7.9419 19.6731 7.87654 19.5336 7.85636L18.3117 7.66025C18.3011 7.65901 18.2908 7.65567 18.2815 7.65043C18.2722 7.64519 18.2641 7.63816 18.2575 7.62973C18.251 7.62131 18.2462 7.61166 18.2434 7.60136C18.2406 7.59106 18.2399 7.58031 18.2413 7.56973C18.3318 7.01658 18.8849 3.49655 18.8799 3.24512C18.8749 2.99369 18.4877 2.89814 18.3117 3.13952L15.8098 6.5L14.4899 8.20337Z" fill="#29D305"/>
</svg>
