<svg width="24" height="24" fill="none" xmlns="http://www.w3.org/2000/svg"><g clip-path="url(#clip0)" fill-rule="evenodd" clip-rule="evenodd"><path d="M11.01 0l11.672.31a1.131 1.131 0 011.103 1.114L24 16.992l-2.031 2.186a1.13 1.13 0 01-.79.322H8.006a1 1 0 01-1-1.007l.06-8.48c.458-.206.91-.415 1.262-.598l-.058 8.429 2.133-1.5V1.32l-2.02.199-.03 4.246c-.33.073-.768.174-1.26.298l.032-4.666A1.13 1.13 0 018.148.282L11.01 0zm.653 1.273v14.832h11.066l-.201-14.543-10.865-.29zM22.25 17.36H11.18l-1.18.885h11.277l.973-.885z" fill="#000"/><path d="M8.684 8.027v-1.75c-.997.226-2.324.556-3.568.955-.861.277-1.639.572-2.226.872-.294.15-.509.284-.653.397a.97.97 0 00-.142.13c-.119.252-.246.68-.359 1.284-.112.6-.197 1.296-.259 2.018a46.971 46.971 0 00-.15 2.97h.815l1.21-3.533c.04-.113.182-.523.607-.807.232-.155.73-.411 1.216-.66l.45-.23c.423-.216.884-.451 1.337-.688a30.782 30.782 0 001.722-.958zM10 8.614V5.29a.514.514 0 00-.618-.51C7.46 5.18 1.674 6.5.924 8.032.12 9.671.014 13.941 0 15.694a.52.52 0 00.524.523h.627c-.18 1.166-.238 2.93.186 4.477.427 1.56 1.416 3.096 3.463 3.303.357.036.677-.211.715-.552a.628.628 0 00-.578-.682c-1.25-.126-1.972-1.029-2.342-2.382-.37-1.349-.32-2.952-.153-4.016.008-.05.009-.1.005-.148h.26a.525.525 0 00.498-.355l1.393-4.067a.259.259 0 01.092-.14c.192-.127.795-.435 1.528-.81C7.803 10.038 10 8.916 10 8.616z" fill="#000"/><path d="M17.54 7.452l.745-5.252L14 10.04h2.46l-.745 5.25L20 7.453h-2.46z" fill="#29D305"/></g><defs><clipPath id="clip0"><path fill="#fff" d="M0 0h24v24H0z"/></clipPath></defs></svg>