<svg width="24" height="24" fill="none" xmlns="http://www.w3.org/2000/svg"><path fill-rule="evenodd" clip-rule="evenodd" d="M5.666.587a.751.751 0 00-1.467.329l.42 1.878A4.51 4.51 0 002.8 4.59L.958 4.064A.751.751 0 10.546 5.51l1.756.5a4.507 4.507 0 00.742 3.332l-1.017.936a.751.751 0 101.018 1.106l1.023-.94 2.358 2.255-1.172 1.079a.751.751 0 101.019 1.105l1.242-1.143 1.901 1.819-.5.46c-1.359 1.252-1.419 3.335-.13 4.523l3.08 2.686c1.362 1.255 3.594.938 4.696-.667l.478-.697 4.834.176a.75.75 0 00.739-.411l1.306-2.543a.75.75 0 00-.335-1.007l-2.886-1.544 1.331-1.94c.77-1.12.758-2.569-.03-3.595l-1.344-1.353c-1.073-1.4-3.17-1.52-4.536-.26L16 9.494 13.918 7.47l1.19-1.094A.751.751 0 1014.09 5.27L12.838 6.42 10.7 4.344l.95-.875a.751.751 0 10-1.017-1.106l-1.012.931a4.51 4.51 0 00-3.57-.98L5.667.587zm14.176 17.195l-1.794 2.613 3.452.105.742-1.414-2.4-1.304zM9.052 4.838a3.007 3.007 0 10-4.451 4.036l5.91 5.649 4.371-4.021L9.11 4.893a.762.762 0 01-.056-.055zm6.988 11.645a.751.751 0 10-1.063-1.063l-2.757 2.755a.751.751 0 101.063 1.063l2.757-2.755zm1.098-5.991l-7.203 6.633c-.68.625-.71 1.667-.065 2.261l3.08 2.686c.68.628 1.797.47 2.348-.333l5.467-7.966c.385-.56.38-1.285-.014-1.798l-1.346-1.353c-.536-.7-1.584-.76-2.267-.13z" fill="#000"/></svg>