<svg width="24" height="24" viewBox="0 0 24 24" fill="none" xmlns="http://www.w3.org/2000/svg">
<path fill-rule="evenodd" clip-rule="evenodd" d="M0.938073 6.53704C1.53835 5.93703 2.35234 5.59998 3.20107 5.59998H17.6C18.4487 5.59998 19.2626 5.93712 19.8627 6.53723C20.4629 7.13735 20.8 7.95128 20.8 8.79998H21.6C22.2365 8.79998 22.847 9.05283 23.2971 9.50292C23.7471 9.95301 24 10.5635 24 11.2V12.8C24 13.4365 23.7471 14.0469 23.2971 14.497C22.847 14.9471 22.2365 15.2 21.6 15.2H20.8C20.8 16.0487 20.4629 16.8626 19.8627 17.4627C19.2626 18.0628 18.4487 18.4 17.6 18.4H3.2C2.35131 18.4 1.53737 18.0628 0.937258 17.4627C0.337142 16.8626 0 16.0487 0 15.2V8.79998C0.000377083 7.95125 0.337798 7.13705 0.938073 6.53704ZM3.20107 7.19998C2.77656 7.19998 2.36943 7.36856 2.06919 7.66867C1.76904 7.96869 1.60028 8.3756 1.6 8.79998V15.2C1.6 15.6243 1.76857 16.0313 2.06863 16.3313C2.36869 16.6314 2.77565 16.8 3.2 16.8H17.6C18.0243 16.8 18.4313 16.6314 18.7314 16.3313C19.0314 16.0313 19.2 15.6243 19.2 15.2V14.4C19.2 13.9581 19.5582 13.6 20 13.6H21.6C21.8122 13.6 22.0157 13.5157 22.1657 13.3657C22.3157 13.2156 22.4 13.0121 22.4 12.8V11.2C22.4 10.9878 22.3157 10.7843 22.1657 10.6343C22.0157 10.4843 21.8122 10.4 21.6 10.4H20C19.5582 10.4 19.2 10.0418 19.2 9.59998V8.79998C19.2 8.37563 19.0314 7.96866 18.7314 7.66861C18.4313 7.36855 18.0243 7.19998 17.6 7.19998H3.20107Z" fill="black"/>
<path fill-rule="evenodd" clip-rule="evenodd" d="M5.60106 8.80005C6.04288 8.80005 6.40106 9.15822 6.40106 9.60005V14.4C6.40106 14.8419 6.04288 15.2 5.60106 15.2C5.15923 15.2 4.80106 14.8419 4.80106 14.4V9.60005C4.80106 9.15822 5.15923 8.80005 5.60106 8.80005Z" fill="#29D305"/>
<path fill-rule="evenodd" clip-rule="evenodd" d="M10.401 8.80005C10.8429 8.80005 11.201 9.15822 11.201 9.60005V14.4C11.201 14.8419 10.8429 15.2 10.401 15.2C9.95922 15.2 9.60104 14.8419 9.60104 14.4V9.60005C9.60104 9.15822 9.95922 8.80005 10.401 8.80005Z" fill="#29D305"/>
</svg>
