<svg width="24" height="24" viewBox="0 0 24 24" fill="none" xmlns="http://www.w3.org/2000/svg">
<g clip-path="url(#clip0)">
<path fill-rule="evenodd" clip-rule="evenodd" d="M3.75 5.71997C4.16421 5.71997 4.5 6.05576 4.5 6.46997V17.25C4.5 17.4489 4.57901 17.6396 4.71966 17.7803C4.86032 17.9209 5.05109 18 5.25 18H12.77C13.1842 18 13.52 18.3358 13.52 18.75C13.52 19.1642 13.1842 19.5 12.77 19.5H5.25C4.65326 19.5 4.08096 19.2629 3.659 18.841C3.23704 18.419 3 17.8467 3 17.25V6.46997C3 6.05576 3.33579 5.71997 3.75 5.71997Z" fill="black"/>
<path fill-rule="evenodd" clip-rule="evenodd" d="M10.0361 0.176971C10.3156 -0.0590088 10.7245 -0.0589882 11.004 0.17702L19.884 7.67702C20.2004 7.94429 20.2403 8.41749 19.973 8.73394C19.7057 9.05038 19.2325 9.09025 18.9161 8.82298L10.52 1.73167L1.23389 9.57303C0.917419 9.84027 0.444226 9.80035 0.176987 9.48388C-0.090251 9.1674 -0.0503368 8.69421 0.266138 8.42697L10.0361 0.176971Z" fill="black"/>
<path fill-rule="evenodd" clip-rule="evenodd" d="M17.25 12C16.8358 12 16.5 12.3358 16.5 12.75V21.75C16.5 22.1642 16.8358 22.5 17.25 22.5H21.75C22.1642 22.5 22.5 22.1642 22.5 21.75V12.75C22.5 12.3358 22.1642 12 21.75 12H17.25ZM15 12.75C15 11.5074 16.0074 10.5 17.25 10.5H21.75C22.9926 10.5 24 11.5074 24 12.75V21.75C24 22.9926 22.9926 24 21.75 24H17.25C16.0074 24 15 22.9926 15 21.75V12.75Z" fill="black"/>
<path fill-rule="evenodd" clip-rule="evenodd" d="M15 20.25C15 19.8358 15.3358 19.5 15.75 19.5H23.25C23.6642 19.5 24 19.8358 24 20.25C24 20.6642 23.6642 21 23.25 21H15.75C15.3358 21 15 20.6642 15 20.25Z" fill="black"/>
<path fill-rule="evenodd" clip-rule="evenodd" d="M10.52 6.75C10.9342 6.75 11.27 7.08579 11.27 7.5V10C11.27 10.4142 10.9342 10.75 10.52 10.75C10.1058 10.75 9.77002 10.4142 9.77002 10V7.5C9.77002 7.08579 10.1058 6.75 10.52 6.75Z" fill="black"/>
<path fill-rule="evenodd" clip-rule="evenodd" d="M8.93068 8.32999C9.22339 8.62306 9.22309 9.09793 8.93002 9.39065C8.61507 9.7052 8.4005 10.1061 8.31345 10.5426C8.22641 10.9792 8.27082 11.4317 8.44104 11.843C8.61126 12.2543 8.89963 12.6059 9.26967 12.8532C9.63974 13.1006 10.0749 13.2326 10.52 13.2326C10.9651 13.2326 11.4003 13.1006 11.7704 12.8532C12.1404 12.6059 12.4288 12.2543 12.599 11.843C12.7692 11.4317 12.8136 10.9792 12.7266 10.5426C12.6395 10.1061 12.425 9.7052 12.11 9.39065C11.8169 9.09793 11.8166 8.62306 12.1093 8.32999C12.4021 8.03691 12.8769 8.03661 13.17 8.32933C13.6949 8.85359 14.0525 9.52176 14.1976 10.2493C14.3427 10.9769 14.2687 11.7311 13.985 12.4166C13.7013 13.1021 13.2207 13.688 12.6039 14.1003C11.9871 14.5126 11.2619 14.7326 10.52 14.7326C9.77814 14.7326 9.05292 14.5126 8.43612 14.1003C7.81931 13.688 7.33872 13.1021 7.05504 12.4166C6.77136 11.7311 6.69734 10.9769 6.84241 10.2493C6.98749 9.52176 7.3451 8.85359 7.87002 8.32933C8.16309 8.03661 8.63797 8.03691 8.93068 8.32999Z" fill="black"/>
</g>
<defs>
<clipPath id="clip0">
<rect width="24" height="24" fill="white"/>
</clipPath>
</defs>
</svg>
