<svg width="24" height="24" fill="none" xmlns="http://www.w3.org/2000/svg"><path fill-rule="evenodd" clip-rule="evenodd" d="M.938 6.537c.6-.6 1.414-.937 2.263-.937H17.6a3.2 3.2 0 013.2 3.2h.8a2.4 2.4 0 012.4 2.4v1.6a2.4 2.4 0 01-2.4 2.4h-.8a3.2 3.2 0 01-3.2 3.2H3.2A3.2 3.2 0 010 15.2V8.8c0-.849.338-1.663.938-2.263zm2.263.663A1.601 1.601 0 001.6 8.8v6.4a1.6 1.6 0 001.6 1.6h14.4a1.6 1.6 0 001.6-1.6v-.8a.8.8 0 01.8-.8h1.6a.8.8 0 00.8-.8v-1.6a.8.8 0 00-.8-.8H20a.8.8 0 01-.8-.8v-.8a1.6 1.6 0 00-1.6-1.6H3.201z" fill="#000"/><path fill-rule="evenodd" clip-rule="evenodd" d="M5.601 8.8a.8.8 0 01.8.8v4.8a.8.8 0 11-1.6 0V9.6a.8.8 0 01.8-.8zM10.401 8.8a.8.8 0 01.8.8v4.8a.8.8 0 11-1.6 0V9.6a.8.8 0 01.8-.8z" fill="#000"/></svg>