<svg width="24" height="24" fill="none" xmlns="http://www.w3.org/2000/svg"><g clip-path="url(#clip0)" fill-rule="evenodd" clip-rule="evenodd" fill="#000"><path d="M22.5 19.716v-7.934c0-5.694-4.701-10.31-10.5-10.31-5.781 0-10.5 4.707-10.5 10.418 0 5.832 4.818 10.637 10.722 10.637h7.414c.654 0 1.076 0 1.4-.02.311-.019.431-.052.488-.073.408-.149.73-.464.881-.865.022-.056.055-.173.074-.48.02-.317.021-.731.021-1.373zM12 0C5.373 0 0 5.383 0 11.89 0 18.517 5.472 24 12.222 24h7.414c1.27 0 1.905 0 2.412-.186a2.973 2.973 0 001.763-1.73c.189-.498.189-1.121.189-2.368v-7.934C24 5.275 18.627 0 12 0z"/><path d="M7.55 10.582c.835 0 1.51.66 1.51 1.473 0 .813-.675 1.473-1.51 1.473-.833 0-1.51-.66-1.51-1.473 0-.813.677-1.473 1.51-1.473zM12.081 10.582c.834 0 1.51.66 1.51 1.473 0 .813-.676 1.473-1.51 1.473s-1.51-.66-1.51-1.473c0-.813.676-1.473 1.51-1.473zM16.611 10.582c.834 0 1.51.66 1.51 1.473 0 .813-.675 1.473-1.51 1.473-.834 0-1.51-.66-1.51-1.473 0-.813.676-1.473 1.51-1.473z"/></g><defs><clipPath id="clip0"><path d="M0 0h24v24H0V0z" fill="#fff"/></clipPath></defs></svg>