<svg width="24" height="24" viewBox="0 0 24 24" fill="none" xmlns="http://www.w3.org/2000/svg">
<path fill-rule="evenodd" clip-rule="evenodd" d="M3 -0.0010376C2.40326 -0.0010376 1.83097 0.236015 1.40901 0.657972C0.987053 1.07993 0.75 1.65223 0.75 2.24896V11.249C0.75 12.6362 1.26885 14.0078 2.02428 15.2768C2.78242 16.5504 3.80765 17.769 4.89111 18.8646C7.05663 21.0543 9.5264 22.8239 10.7845 23.638C11.1462 23.8735 11.5684 23.9989 12 23.9989C12.4312 23.9989 12.853 23.8738 13.2144 23.6387C14.4722 22.8248 16.9428 21.0549 19.1089 18.8646C20.1924 17.769 21.2176 16.5504 21.9757 15.2768C22.7312 14.0078 23.25 12.6362 23.25 11.249V2.24896C23.25 1.95349 23.1918 1.66091 23.0787 1.38792C22.9657 1.11494 22.7999 0.866904 22.591 0.657972C22.3821 0.44904 22.134 0.283306 21.861 0.170233C21.5881 0.0571605 21.2955 -0.0010376 21 -0.0010376H3ZM2.46967 1.71863C2.61032 1.57798 2.80109 1.49896 3 1.49896H21C21.0985 1.49896 21.196 1.51836 21.287 1.55605C21.378 1.59374 21.4607 1.64899 21.5303 1.71863C21.6 1.78828 21.6552 1.87096 21.6929 1.96195C21.7306 2.05295 21.75 2.15047 21.75 2.24896V11.249C21.75 12.2683 21.3646 13.371 20.6868 14.5096C20.0117 15.6436 19.0748 16.7659 18.0424 17.8098C15.9767 19.8985 13.6008 21.6021 12.3996 22.3793L12.3972 22.3808C12.2791 22.4579 12.1411 22.4989 12 22.4989C11.8589 22.4989 11.7209 22.4579 11.6028 22.3808L11.6004 22.3793C10.3992 21.6021 8.02327 19.8985 5.95764 17.8098C4.92523 16.7659 3.98826 15.6436 3.31319 14.5096C2.6354 13.371 2.25 12.2683 2.25 11.249V2.24896C2.25 2.05005 2.32902 1.85928 2.46967 1.71863ZM19.3385 5.12282C19.5952 4.7978 19.5399 4.32616 19.2149 4.06938C18.8899 3.81259 18.4183 3.8679 18.1615 4.19292L10.3185 14.1199L10.3184 14.1198L10.3104 14.1304C10.2815 14.1683 10.2439 14.1988 10.2008 14.2194C10.1578 14.2399 10.1104 14.2499 10.0628 14.2485C10.0151 14.247 9.96841 14.2343 9.92665 14.2112C9.88489 14.1881 9.84924 14.1554 9.82265 14.1158L9.81329 14.1022L7.36329 10.6212C7.12489 10.2825 6.65703 10.2011 6.3183 10.4395C5.97957 10.678 5.89824 11.1458 6.13665 11.4845L8.58254 14.9597C8.74153 15.1939 8.95352 15.3873 9.20134 15.5242C9.45189 15.6626 9.73185 15.7392 10.018 15.7478C10.3041 15.7563 10.5881 15.6965 10.8465 15.5733C11.1026 15.4512 11.3262 15.2703 11.499 15.0453L19.3385 5.12282Z" fill="black"/>
</svg>
