<svg width="24" height="24" viewBox="0 0 24 24" fill="none" xmlns="http://www.w3.org/2000/svg">
<g clip-path="url(#clip0)">
<path d="M23.374 0.287034C23.0507 0.0552491 22.6486 -0.0386176 22.2561 0.0260818C21.8635 0.0907811 21.5128 0.308747 21.281 0.632034L7.24601 20.2L2.56101 15.511C2.42174 15.3717 2.25639 15.2612 2.07441 15.1857C1.89242 15.1103 1.69736 15.0715 1.50036 15.0714C1.30336 15.0714 1.10828 15.1101 0.926258 15.1855C0.744236 15.2608 0.578838 15.3713 0.439505 15.5105C0.300173 15.6498 0.189635 15.8151 0.114204 15.9971C0.0387723 16.1791 -7.56019e-05 16.3742 -0.000122029 16.5712C-0.000168455 16.7682 0.0385875 16.9633 0.113933 17.1453C0.189279 17.3273 0.299738 17.4927 0.439005 17.632L6.37401 23.566C6.52982 23.716 6.71575 23.8311 6.91944 23.9037C7.12313 23.9763 7.33994 24.0047 7.55546 23.9871C7.77099 23.9695 7.98031 23.9063 8.16953 23.8016C8.35876 23.697 8.52356 23.5533 8.653 23.38L23.719 2.38003C23.9508 2.05673 24.0447 1.6546 23.98 1.26209C23.9153 0.869577 23.6973 0.518842 23.374 0.287034Z" fill="black"/>
</g>
<defs>
<clipPath id="clip0">
<rect width="24" height="24" fill="white"/>
</clipPath>
</defs>
</svg>
