<svg width="24" height="24" viewBox="0 0 24 24" fill="none" xmlns="http://www.w3.org/2000/svg">
<path d="M12 24C5.383 24 0 18.617 0 12C0 5.383 5.383 0 12 0C18.617 0 24 5.383 24 12C24 18.617 18.617 24 12 24Z" fill="#29D305"/>
<path fill-rule="evenodd" clip-rule="evenodd" d="M6.46966 11.3089C6.76255 11.0163 7.23743 11.0163 7.53032 11.3089L10.5355 14.3106L17.0763 7.7774C17.3692 7.48484 17.844 7.48484 18.1369 7.7774C18.4298 8.06995 18.4298 8.54428 18.1369 8.83684L11.0659 15.8998C10.773 16.1923 10.2981 16.1923 10.0052 15.8998L6.46966 12.3683C6.17677 12.0758 6.17677 11.6014 6.46966 11.3089Z" fill="black"/>
</svg>
