<svg width="24" height="24" fill="none" xmlns="http://www.w3.org/2000/svg"><g clip-path="url(#clip0)" fill="#000"><path d="M12 23.997c-6.617 0-12-5.383-12-12s5.383-12 12-12 12 5.383 12 12-5.383 12-12 12zm0-22.5c-5.79 0-10.5 4.71-10.5 10.5s4.71 10.5 10.5 10.5 10.5-4.71 10.5-10.5-4.71-10.5-10.5-10.5z"/><path fill-rule="evenodd" clip-rule="evenodd" d="M6.53 11.307a.75.75 0 011.061 0l3.005 3.002 6.54-6.534a.75.75 0 011.062 1.06l-7.072 7.063a.75.75 0 01-1.06 0L6.53 12.366a.748.748 0 010-1.06z"/></g><defs><clipPath id="clip0"><path d="M0 0h24v24H0V0z" fill="#fff"/></clipPath></defs></svg>