<svg width="24" height="25" viewBox="0 0 24 25" fill="none" xmlns="http://www.w3.org/2000/svg">
<path fill-rule="evenodd" clip-rule="evenodd" d="M0 12.997C0 19.614 5.383 24.997 12 24.997C18.617 24.997 24 19.614 24 12.997C24 6.37998 18.617 0.996979 12 0.996979C5.383 0.996979 0 6.37998 0 12.997ZM1.5 12.997C1.5 7.20698 6.21 2.49698 12 2.49698C17.79 2.49698 22.5 7.20698 22.5 12.997C22.5 18.787 17.79 23.497 12 23.497C6.21 23.497 1.5 18.787 1.5 12.997ZM7.59099 12.3067C7.2981 12.0141 6.82322 12.0141 6.53033 12.3067C6.23744 12.5993 6.23744 13.0736 6.53033 13.3662L10.0659 16.8976C10.3588 17.1902 10.8336 17.1902 11.1265 16.8976L18.1976 9.83467C18.4905 9.54211 18.4905 9.06778 18.1976 8.77522C17.9047 8.48267 17.4298 8.48267 17.1369 8.77522L10.5962 15.3085L7.59099 12.3067Z" fill="black"/>
</svg>
