<svg width="24" height="24" fill="none" xmlns="http://www.w3.org/2000/svg"><g clip-path="url(#clip0)" fill-rule="evenodd" clip-rule="evenodd" fill="#000"><path d="M19.215 4.07a.75.75 0 01.123 1.053L11.5 15.045a1.8 1.8 0 01-2.916-.085l-2.446-3.476a.75.75 0 011.226-.863l2.45 3.481.01.014a.3.3 0 00.487.014l.008-.01 7.843-9.927a.75.75 0 011.054-.124z"/><path d="M1.409.658A2.25 2.25 0 013-.002h18a2.25 2.25 0 012.25 2.25v9c0 1.388-.519 2.76-1.274 4.029-.758 1.273-1.784 2.492-2.867 3.588-2.166 2.19-4.637 3.96-5.895 4.774a2.227 2.227 0 01-2.43-.001c-1.258-.814-3.727-2.584-5.893-4.774-1.083-1.095-2.109-2.314-2.867-3.587C1.27 14.007.75 12.637.75 11.249v-9c0-.597.237-1.17.659-1.591zM3 1.498a.75.75 0 00-.75.75v9c0 1.02.385 2.123 1.063 3.261.675 1.135 1.612 2.257 2.645 3.3 2.065 2.09 4.441 3.793 5.642 4.57l.003.002a.727.727 0 00.794 0l.003-.002c1.2-.777 3.577-2.48 5.642-4.57 1.033-1.043 1.97-2.165 2.645-3.3.678-1.138 1.063-2.24 1.063-3.26v-9a.75.75 0 00-.75-.75H3z"/></g><defs><clipPath id="clip0"><path fill="#fff" d="M0 0h24v24H0z"/></clipPath></defs></svg>