<svg width="24" height="25" viewBox="0 0 24 25" fill="none" xmlns="http://www.w3.org/2000/svg">
<path d="M12 24.9969C5.383 24.9969 0 19.6139 0 12.9969C0 6.37995 5.383 0.996948 12 0.996948C18.617 0.996948 24 6.37995 24 12.9969C24 19.6139 18.617 24.9969 12 24.9969ZM12 2.49695C6.21 2.49695 1.5 7.20695 1.5 12.9969C1.5 18.7869 6.21 23.4969 12 23.4969C17.79 23.4969 22.5 18.7869 22.5 12.9969C22.5 7.20695 17.79 2.49695 12 2.49695Z" fill="#29D305"/>
<path fill-rule="evenodd" clip-rule="evenodd" d="M6.53033 12.3067C6.82322 12.0141 7.2981 12.0141 7.59099 12.3067L10.5962 15.3085L17.1369 8.77522C17.4298 8.48266 17.9047 8.48266 18.1976 8.77522C18.4905 9.06778 18.4905 9.54211 18.1976 9.83466L11.1265 16.8976C10.8336 17.1902 10.3588 17.1902 10.0659 16.8976L6.53033 13.3661C6.23744 13.0736 6.23744 12.5993 6.53033 12.3067Z" fill="black"/>
</svg>
