<svg width="24" height="24" fill="none" xmlns="http://www.w3.org/2000/svg"><g clip-path="url(#clip0)"><path fill-rule="evenodd" clip-rule="evenodd" d="M4.5 10.511a.75.75 0 01.75-.75h5.25a.75.75 0 010 1.5H5.25a.75.75 0 01-.75-.75zM4.5 14.261a.75.75 0 01.75-.75h3a.75.75 0 010 1.5h-3a.75.75 0 01-.75-.75z" fill="#000"/><path fill-rule="evenodd" clip-rule="evenodd" d="M8.75 1.511a3 3 0 00-3 3 .75.75 0 01-.75.75H2.25a.75.75 0 00-.75.75v12.75a.75.75 0 00.75.75h5.5a.75.75 0 010 1.5h-5.5A2.25 2.25 0 010 18.761V6.011a2.25 2.25 0 012.25-2.25h2.063a4.5 4.5 0 018.874 0h2.563A2.25 2.25 0 0118 6.011v2.25a.75.75 0 01-1.5 0v-2.25a.75.75 0 00-.75-.75H12.5a.75.75 0 01-.75-.75 3 3 0 00-3-3z" fill="#000"/><path fill-rule="evenodd" clip-rule="evenodd" d="M8.75 3.011a1.125 1.125 0 100 2.25 1.125 1.125 0 000-2.25z" fill="#000"/><path fill-rule="evenodd" clip-rule="evenodd" d="M17.25 12.011a5.25 5.25 0 100 10.5 5.25 5.25 0 000-10.5zm-6.75 5.25a6.75 6.75 0 1113.5 0 6.75 6.75 0 01-13.5 0z" fill="#29D305"/><path d="M19.034 15.036a.794.794 0 011.14-.168.864.864 0 01.162 1.182l-3.133 4.313a.807.807 0 01-.593.335h-.002l-.056.002a.793.793 0 01-.575-.247l-2.237-2.31a.851.851 0 01-.24-.597.85.85 0 01.24-.597.793.793 0 011.15 0l1.574 1.625 2.57-3.538z" fill="#000"/></g><defs><clipPath id="clip0"><path fill="#fff" d="M0 0h24v24H0z"/></clipPath></defs></svg>