<svg width="24" height="24" viewBox="0 0 24 24" fill="none" xmlns="http://www.w3.org/2000/svg">
<path d="M12 24C5.383 24 0 18.617 0 12C0 5.383 5.383 0 12 0C18.617 0 24 5.383 24 12C24 18.617 18.617 24 12 24ZM12 1.5C6.21 1.5 1.5 6.21 1.5 12C1.5 17.79 6.21 22.5 12 22.5C17.79 22.5 22.5 17.79 22.5 12C22.5 6.21 17.79 1.5 12 1.5Z" fill="#29D305"/>
<path fill-rule="evenodd" clip-rule="evenodd" d="M6.53033 11.3097C6.82322 11.0172 7.2981 11.0172 7.59099 11.3097L10.5962 14.3115L17.1369 7.77824C17.4298 7.48568 17.9047 7.48568 18.1976 7.77824C18.4905 8.0708 18.4905 8.54513 18.1976 8.83769L11.1265 15.9007C10.8336 16.1932 10.3588 16.1932 10.0659 15.9007L6.53033 12.3692C6.23744 12.0766 6.23744 11.6023 6.53033 11.3097Z" fill="black"/>
</svg>
