<svg width="24" height="24" viewBox="0 0 24 24" fill="none" xmlns="http://www.w3.org/2000/svg">
<path fill-rule="evenodd" clip-rule="evenodd" d="M17.25 12C14.3505 12 12 14.3505 12 17.25C12 20.1495 14.3505 22.5 17.25 22.5C20.1495 22.5 22.5 20.1495 22.5 17.25C22.5 14.3505 20.1495 12 17.25 12ZM10.5 17.25C10.5 13.5221 13.5221 10.5 17.25 10.5C20.9779 10.5 24 13.5221 24 17.25C24 20.9779 20.9779 24 17.25 24C13.5221 24 10.5 20.9779 10.5 17.25Z" fill="#29D305"/>
<path fill-rule="evenodd" clip-rule="evenodd" d="M4.5 10.5C4.5 10.0858 4.83579 9.75 5.25 9.75H10.5C10.9142 9.75 11.25 10.0858 11.25 10.5C11.25 10.9142 10.9142 11.25 10.5 11.25H5.25C4.83579 11.25 4.5 10.9142 4.5 10.5Z" fill="black"/>
<path fill-rule="evenodd" clip-rule="evenodd" d="M4.5 14.25C4.5 13.8358 4.83579 13.5 5.25 13.5H8.25C8.66421 13.5 9 13.8358 9 14.25C9 14.6642 8.66421 15 8.25 15H5.25C4.83579 15 4.5 14.6642 4.5 14.25Z" fill="black"/>
<path fill-rule="evenodd" clip-rule="evenodd" d="M8.75 1.5C7.95435 1.5 7.19129 1.81607 6.62868 2.37868C6.06607 2.94129 5.75 3.70435 5.75 4.5C5.75 4.91421 5.41421 5.25 5 5.25H2.25C2.05109 5.25 1.86032 5.32902 1.71967 5.46967C1.57902 5.61032 1.5 5.80109 1.5 6V18.75C1.5 18.9489 1.57902 19.1397 1.71967 19.2803C1.86032 19.421 2.05109 19.5 2.25 19.5H7.75C8.16421 19.5 8.5 19.8358 8.5 20.25C8.5 20.6642 8.16421 21 7.75 21H2.25C1.65326 21 1.08097 20.7629 0.65901 20.341C0.237053 19.919 0 19.3467 0 18.75V6C0 5.40326 0.237053 4.83097 0.65901 4.40901C1.08097 3.98705 1.65326 3.75 2.25 3.75H4.31292C4.46762 2.83477 4.903 1.98304 5.56802 1.31802C6.41193 0.474106 7.55653 0 8.75 0C9.94347 0 11.0881 0.474106 11.932 1.31802C12.597 1.98304 13.0324 2.83477 13.1871 3.75H15.75C16.3467 3.75 16.919 3.98705 17.341 4.40901C17.7629 4.83097 18 5.40326 18 6V8.25C18 8.66421 17.6642 9 17.25 9C16.8358 9 16.5 8.66421 16.5 8.25V6C16.5 5.80109 16.421 5.61032 16.2803 5.46967C16.1397 5.32902 15.9489 5.25 15.75 5.25H12.5C12.0858 5.25 11.75 4.91421 11.75 4.5C11.75 3.70435 11.4339 2.94129 10.8713 2.37868C10.3087 1.81607 9.54565 1.5 8.75 1.5Z" fill="black"/>
<path fill-rule="evenodd" clip-rule="evenodd" d="M8.75 3C8.45163 3 8.16548 3.11853 7.9545 3.3295C7.74353 3.54048 7.625 3.82663 7.625 4.125C7.625 4.34751 7.69098 4.56501 7.8146 4.75002C7.93821 4.93502 8.11391 5.07922 8.31948 5.16436C8.52505 5.24951 8.75125 5.27179 8.96948 5.22838C9.18771 5.18497 9.38816 5.07783 9.5455 4.9205C9.70283 4.76316 9.80998 4.5627 9.85338 4.34448C9.89679 4.12625 9.87451 3.90005 9.78936 3.69448C9.70422 3.48891 9.56002 3.31321 9.37502 3.1896C9.19001 3.06598 8.97251 3 8.75 3Z" fill="black"/>
<path d="M19.034 15.0255C19.1876 14.814 19.4316 14.689 19.686 14.689C19.8624 14.689 20.0317 14.7472 20.1738 14.857C20.3475 14.9915 20.4612 15.1886 20.4918 15.413C20.5224 15.6363 20.4665 15.8596 20.336 16.0393L17.2032 20.3526C17.0607 20.5479 16.8446 20.67 16.6095 20.6868L16.6078 20.6869C16.5905 20.6879 16.571 20.689 16.5522 20.689C16.3359 20.689 16.1306 20.6018 15.9773 20.4424L13.7399 18.132C13.5854 17.9736 13.5 17.7604 13.5 17.535C13.5 17.3096 13.5852 17.0966 13.7397 16.9381C13.893 16.7787 14.0983 16.6916 14.3145 16.6916C14.5308 16.6916 14.7361 16.7788 14.8895 16.9382L16.4643 18.5634L19.034 15.0255Z" fill="black"/>
</svg>
