<svg width="24" height="24" viewBox="0 0 24 24" fill="none" xmlns="http://www.w3.org/2000/svg">
<path d="M7.59099 11.3097C7.2981 11.0172 6.82322 11.0172 6.53033 11.3097C6.23744 11.6023 6.23744 12.0766 6.53033 12.3692L10.0659 15.9007C10.3588 16.1932 10.8336 16.1932 11.1265 15.9007L18.1976 8.83769C18.4905 8.54513 18.4905 8.0708 18.1976 7.77824C17.9047 7.48569 17.4298 7.48569 17.1369 7.77824L10.5962 14.3115L7.59099 11.3097Z" fill="black"/>
<path fill-rule="evenodd" clip-rule="evenodd" d="M0 12C0 18.617 5.383 24 12 24C18.617 24 24 18.617 24 12C24 5.383 18.617 0 12 0C5.383 0 0 5.383 0 12ZM1.5 12C1.5 6.21 6.21 1.5 12 1.5C17.79 1.5 22.5 6.21 22.5 12C22.5 17.79 17.79 22.5 12 22.5C6.21 22.5 1.5 17.79 1.5 12Z" fill="black"/>
</svg>
