<svg width="24" height="24" viewBox="0 0 24 24" fill="none" xmlns="http://www.w3.org/2000/svg">
<g clip-path="url(#clip0)">
<path fill-rule="evenodd" clip-rule="evenodd" d="M4.5 10.511C4.5 10.0968 4.83579 9.76099 5.25 9.76099H10.5C10.9142 9.76099 11.25 10.0968 11.25 10.511C11.25 10.9252 10.9142 11.261 10.5 11.261H5.25C4.83579 11.261 4.5 10.9252 4.5 10.511Z" fill="black"/>
<path fill-rule="evenodd" clip-rule="evenodd" d="M4.5 14.261C4.5 13.8468 4.83579 13.511 5.25 13.511H8.25C8.66421 13.511 9 13.8468 9 14.261C9 14.6752 8.66421 15.011 8.25 15.011H5.25C4.83579 15.011 4.5 14.6752 4.5 14.261Z" fill="black"/>
<path fill-rule="evenodd" clip-rule="evenodd" d="M8.75 1.51099C7.95435 1.51099 7.19129 1.82706 6.62868 2.38967C6.06607 2.95228 5.75 3.71534 5.75 4.51099C5.75 4.9252 5.41421 5.26099 5 5.26099H2.25C2.05109 5.26099 1.86032 5.34 1.71967 5.48066C1.57902 5.62131 1.5 5.81207 1.5 6.01099V18.761C1.5 18.9599 1.57902 19.1507 1.71967 19.2913C1.86032 19.432 2.05109 19.511 2.25 19.511H7.75C8.16421 19.511 8.5 19.8468 8.5 20.261C8.5 20.6752 8.16421 21.011 7.75 21.011H2.25C1.65326 21.011 1.08097 20.7739 0.65901 20.352C0.237053 19.93 0 19.3577 0 18.761V6.01099C0 5.41425 0.237053 4.84195 0.65901 4.42C1.08097 3.99804 1.65326 3.76099 2.25 3.76099H4.31292C4.46762 2.84576 4.903 1.99402 5.56802 1.32901C6.41193 0.485092 7.55653 0.0109863 8.75 0.0109863C9.94347 0.0109863 11.0881 0.485092 11.932 1.32901C12.597 1.99402 13.0324 2.84576 13.1871 3.76099H15.75C16.3467 3.76099 16.919 3.99804 17.341 4.42C17.7629 4.84195 18 5.41425 18 6.01099V8.26099C18 8.6752 17.6642 9.01099 17.25 9.01099C16.8358 9.01099 16.5 8.6752 16.5 8.26099V6.01099C16.5 5.81207 16.421 5.62131 16.2803 5.48066C16.1397 5.34 15.9489 5.26099 15.75 5.26099H12.5C12.0858 5.26099 11.75 4.9252 11.75 4.51099C11.75 3.71534 11.4339 2.95228 10.8713 2.38967C10.3087 1.82706 9.54565 1.51099 8.75 1.51099Z" fill="black"/>
<path fill-rule="evenodd" clip-rule="evenodd" d="M8.75 3.01099C8.45163 3.01099 8.16548 3.12951 7.9545 3.34049C7.74353 3.55147 7.625 3.83762 7.625 4.13599C7.625 4.35849 7.69098 4.576 7.8146 4.761C7.93821 4.94601 8.11392 5.0902 8.31948 5.17535C8.52505 5.2605 8.75125 5.28278 8.96948 5.23937C9.18771 5.19596 9.38816 5.08881 9.5455 4.93148C9.70283 4.77414 9.80998 4.57369 9.85338 4.35546C9.89679 4.13724 9.87451 3.91104 9.78936 3.70547C9.70422 3.4999 9.56002 3.3242 9.37502 3.20058C9.19001 3.07697 8.97251 3.01099 8.75 3.01099Z" fill="black"/>
<path fill-rule="evenodd" clip-rule="evenodd" d="M17.25 12.011C14.3505 12.011 12 14.3615 12 17.261C12 20.1605 14.3505 22.511 17.25 22.511C20.1495 22.511 22.5 20.1605 22.5 17.261C22.5 14.3615 20.1495 12.011 17.25 12.011ZM10.5 17.261C10.5 13.5331 13.5221 10.511 17.25 10.511C20.9779 10.511 24 13.5331 24 17.261C24 20.9889 20.9779 24.011 17.25 24.011C13.5221 24.011 10.5 20.9889 10.5 17.261Z" fill="#29D305"/>
<path d="M19.034 15.0364C19.1876 14.8249 19.4316 14.7 19.686 14.7C19.8624 14.7 20.0317 14.7582 20.1738 14.8679C20.3475 15.0024 20.4612 15.1995 20.4918 15.424C20.5224 15.6472 20.4665 15.8705 20.336 16.0503L17.2032 20.3635C17.0607 20.5589 16.8446 20.681 16.6095 20.6977L16.6078 20.6978C16.5905 20.6988 16.571 20.7 16.5522 20.7C16.3359 20.7 16.1306 20.6128 15.9773 20.4533L13.7399 18.1429C13.5854 17.9845 13.5 17.7714 13.5 17.5459C13.5 17.3205 13.5852 17.1075 13.7397 16.9491C13.893 16.7897 14.0983 16.7025 14.3145 16.7025C14.5308 16.7025 14.7361 16.7897 14.8895 16.9492L16.4643 18.5744L19.034 15.0364Z" fill="black"/>
</g>
<defs>
<clipPath id="clip0">
<rect width="24" height="24" fill="white"/>
</clipPath>
</defs>
</svg>
