<svg width="24" height="24" viewBox="0 0 24 24" fill="none" xmlns="http://www.w3.org/2000/svg">
<path d="M24 12C24 18.6275 18.6275 24 12 24C5.3725 24 0 18.6275 0 12C0 5.3725 5.3725 0 12 0C18.6275 0 24 5.3725 24 12Z" fill="#29D305"/>
<path d="M16.8599 13.4775C16.8549 13.4175 16.8474 13.355 16.8374 13.295C16.6324 12.0675 15.4649 11.2375 14.2349 11.4425L12.3349 11.765L11.6049 7.47503C12.6249 7.04753 13.9049 6.09503 13.7099 4.93753L13.5849 4.19753C13.5274 3.86003 13.3424 3.57253 13.0674 3.39003C12.4399 2.97503 11.5199 3.19753 10.7074 3.39003C10.3149 3.48503 10.0299 3.53253 9.62736 3.57253C9.35986 3.60003 9.07986 3.62753 8.80736 3.67503C8.23986 3.77253 7.70736 3.94753 7.39736 4.35253C7.19736 4.61503 7.11736 4.94753 7.17486 5.28503L7.29986 6.02503C7.49736 7.18253 9.01986 7.65503 10.1249 7.72253L10.8549 12.0125L8.95486 12.335C8.88986 12.345 8.82736 12.36 8.77486 12.375C8.18986 12.525 7.69986 12.8925 7.39236 13.4125C7.08486 13.9325 6.99986 14.54 7.14986 15.125C8.39736 19.94 10.5649 21.1925 13.1049 20.76C15.6449 20.3275 17.2774 18.43 16.8624 13.4725L16.8599 13.4775ZM8.77736 5.77753L8.68736 5.24253C8.95986 5.15253 11.8524 4.66003 12.1374 4.65503L12.2249 5.17253C12.1549 5.47253 11.2349 6.12253 10.6299 6.22503C10.0149 6.33003 8.91736 6.01253 8.77986 5.78003L8.77736 5.77753ZM12.8524 19.285C11.3924 19.5325 9.68236 18.925 8.59986 14.755C8.54986 14.56 8.57736 14.355 8.68236 14.1825C8.78486 14.0075 8.94986 13.885 9.15486 13.8325L11.1074 13.5L11.2324 14.2375C11.3024 14.645 11.6899 14.92 12.0974 14.85C12.5049 14.78 12.7799 14.3925 12.7099 13.985L12.5849 13.2475L14.4849 12.9225C14.8974 12.8525 15.2899 13.1325 15.3674 13.6025C15.7274 17.8975 14.3149 19.0375 12.8549 19.285H12.8524Z" fill="black"/>
</svg>
