<svg width="24" height="24" viewBox="0 0 24 24" fill="none" xmlns="http://www.w3.org/2000/svg">
<g clip-path="url(#clip0_6791_29751)">
<path fill-rule="evenodd" clip-rule="evenodd" d="M15.0792 19.9146C15.2062 19.6605 15.4659 19.5 15.75 19.5H21.75C22.0341 19.5 22.2938 19.6605 22.4208 19.9146L23.9208 22.9146C24.0371 23.1471 24.0246 23.4232 23.888 23.6443C23.7513 23.8654 23.5099 24 23.25 24H14.25C13.9901 24 13.7487 23.8654 13.612 23.6443C13.4754 23.4232 13.4629 23.1471 13.5792 22.9146L15.0792 19.9146ZM16.2135 21L15.4635 22.5H22.0365L21.2865 21H16.2135Z" fill="black"/>
<path fill-rule="evenodd" clip-rule="evenodd" d="M3.24091 10.8996C3.87787 10.6358 4.56056 10.5 5.25 10.5C5.93944 10.5 6.62213 10.6358 7.25909 10.8996C7.89605 11.1635 8.4748 11.5502 8.96231 12.0377C9.44982 12.5252 9.83653 13.104 10.1004 13.7409C10.3642 14.3779 10.5 15.0606 10.5 15.75V21.75C10.5 22.3467 10.2629 22.919 9.84099 23.341C9.41903 23.7629 8.84674 24 8.25 24H2.25C1.65326 24 1.08097 23.7629 0.65901 23.341C0.237053 22.919 0 22.3467 0 21.75V15.75C0 15.0606 0.135795 14.3779 0.399632 13.7409C0.66347 13.104 1.05018 12.5252 1.53769 12.0377C2.0252 11.5502 2.60395 11.1635 3.24091 10.8996ZM5.25 12C4.75754 12 4.26991 12.097 3.81494 12.2855C3.35997 12.4739 2.94657 12.7501 2.59835 13.0984C2.25013 13.4466 1.97391 13.86 1.78545 14.3149C1.597 14.7699 1.5 15.2575 1.5 15.75V21.75C1.5 21.9489 1.57902 22.1397 1.71967 22.2803C1.86032 22.421 2.05109 22.5 2.25 22.5H8.25C8.44891 22.5 8.63968 22.421 8.78033 22.2803C8.92098 22.1397 9 21.9489 9 21.75V15.75C9 15.2575 8.903 14.7699 8.71455 14.3149C8.52609 13.86 8.24987 13.4466 7.90165 13.0984C7.55343 12.7501 7.14003 12.4739 6.68506 12.2855C6.23009 12.097 5.74246 12 5.25 12Z" fill="black"/>
<path fill-rule="evenodd" clip-rule="evenodd" d="M17.25 1.5C17.0511 1.5 16.8603 1.57902 16.7197 1.71967C16.579 1.86032 16.5 2.05109 16.5 2.25V14.25C16.5 14.8467 16.2629 15.419 15.841 15.841C15.419 16.2629 14.8467 16.5 14.25 16.5C13.6533 16.5 13.081 16.2629 12.659 15.841C12.2371 15.419 12 14.8467 12 14.25V7.5C12 6.70435 11.6839 5.94129 11.1213 5.37868C10.5587 4.81607 9.79565 4.5 9 4.5C8.20435 4.5 7.44129 4.81607 6.87868 5.37868C6.31607 5.94129 6 6.70435 6 7.5V11.25C6 11.6642 5.66421 12 5.25 12C4.83579 12 4.5 11.6642 4.5 11.25V7.5C4.5 6.30653 4.97411 5.16193 5.81802 4.31802C6.66193 3.47411 7.80653 3 9 3C10.1935 3 11.3381 3.47411 12.182 4.31802C13.0259 5.16193 13.5 6.30653 13.5 7.5V14.25C13.5 14.4489 13.579 14.6397 13.7197 14.7803C13.8603 14.921 14.0511 15 14.25 15C14.4489 15 14.6397 14.921 14.7803 14.7803C14.921 14.6397 15 14.4489 15 14.25V2.25C15 1.65326 15.2371 1.08097 15.659 0.65901C16.081 0.237053 16.6533 0 17.25 0C17.8467 0 18.419 0.237053 18.841 0.65901C19.2629 1.08097 19.5 1.65326 19.5 2.25V20.25C19.5 20.6642 19.1642 21 18.75 21C18.3358 21 18 20.6642 18 20.25V2.25C18 2.05109 17.921 1.86032 17.7803 1.71967C17.6397 1.57902 17.4489 1.5 17.25 1.5Z" fill="black"/>
<path fill-rule="evenodd" clip-rule="evenodd" d="M0 20.25C0 19.8358 0.335786 19.5 0.75 19.5H9.75C10.1642 19.5 10.5 19.8358 10.5 20.25C10.5 20.6642 10.1642 21 9.75 21H0.75C0.335786 21 0 20.6642 0 20.25Z" fill="black"/>
<path fill-rule="evenodd" clip-rule="evenodd" d="M5.25 16.125C5.34946 16.125 5.44484 16.0855 5.51517 16.0152C5.58549 15.9448 5.625 15.8495 5.625 15.75C5.625 15.6505 5.58549 15.5552 5.51517 15.4848C5.44484 15.4145 5.34946 15.375 5.25 15.375V14.625C4.95163 14.625 4.66548 14.7435 4.45451 14.9545C4.24353 15.1655 4.125 15.4516 4.125 15.75C4.125 16.0484 4.24353 16.3345 4.45451 16.5455C4.66548 16.7565 4.95163 16.875 5.25 16.875V16.125Z" fill="black"/>
<path fill-rule="evenodd" clip-rule="evenodd" d="M5.25 14.625C5.54837 14.625 5.83452 14.7435 6.04549 14.9545C6.25647 15.1655 6.375 15.4516 6.375 15.75C6.375 16.0484 6.25647 16.3345 6.04549 16.5455C5.83452 16.7565 5.54837 16.875 5.25 16.875V16.125C5.15054 16.125 5.05516 16.0855 4.98483 16.0152C4.91451 15.9448 4.875 15.8495 4.875 15.75C4.875 15.6505 4.91451 15.5552 4.98483 15.4848C5.05516 15.4145 5.15054 15.375 5.25 15.375V14.625Z" fill="black"/>
</g>
<defs>
<clipPath id="clip0_6791_29751">
<rect width="24" height="24" fill="white"/>
</clipPath>
</defs>
</svg>
