<svg width="24" height="24" viewBox="0 0 24 24" fill="none" xmlns="http://www.w3.org/2000/svg">
<path d="M23.25 22.4999H5.67C6.9675 20.1224 10.3325 13.9174 10.64 13.3624C10.7025 13.2474 10.84 13.1649 10.9725 13.1624C11.0525 13.1799 11.155 13.1774 11.255 13.3424C11.7575 14.1649 13.72 17.2674 13.72 17.2674C13.875 17.5149 14.1575 17.6549 14.4525 17.6099C14.7425 17.5724 14.985 17.3674 15.07 17.0874C15.07 17.0874 19.635 3.32991 20.0725 1.93991C20.165 1.64741 20.345 1.49491 20.575 1.49991C20.745 1.50741 20.9625 1.61241 21.025 1.88491C21.2925 3.03741 22.5025 9.36991 22.515 9.43491C22.5925 9.84241 22.9825 10.1124 23.3925 10.0299C23.8 9.95241 24.0675 9.55991 23.9875 9.15241C23.9375 8.88991 22.76 2.72741 22.4875 1.54741C22.2825 0.65991 21.5375 0.0374095 20.6325 0.00240955C19.7225 -0.0375905 18.9375 0.549909 18.6425 1.49241C18.3075 2.55991 15.095 11.9249 14.12 15.0874C13.5325 14.1549 12.8125 13.0124 12.54 12.5599C12.19 11.9874 11.625 11.6624 10.985 11.6624H10.9425C10.27 11.6774 9.6525 12.0524 9.3275 12.6399C8.99 13.2549 4.6325 21.2699 3.9625 22.4999H0.75C0.335 22.4999 0 22.8349 0 23.2499C0 23.6649 0.335 23.9999 0.75 23.9999H23.25C23.665 23.9999 24 23.6649 24 23.2499C24 22.8349 23.665 22.4999 23.25 22.4999Z" fill="black"/>
<path d="M9.91769 8.59255L8.57769 2.51755C8.56519 2.47005 8.54519 2.42505 8.52269 2.38005C8.51269 2.36005 8.50019 2.34255 8.48769 2.32255C8.47269 2.30005 8.46019 2.27755 8.44519 2.25505C8.42769 2.23505 8.41019 2.21505 8.39019 2.19755C8.37519 2.18255 8.36019 2.16505 8.34519 2.15005C8.27019 2.08505 8.18269 2.03755 8.09019 2.00505C8.07019 1.99755 8.04769 1.99505 8.02519 1.99005C8.00019 1.98505 7.97269 1.97755 7.94519 1.97255C7.91769 1.97005 7.89269 1.97255 7.86519 1.97255C7.84269 1.97255 7.82019 1.97005 7.79769 1.97255C7.74769 1.97755 7.70019 1.98505 7.65269 1.99755L1.57769 3.33505C1.17769 3.44755 0.945188 3.86005 1.05769 4.26005C1.17019 4.66005 1.58269 4.89255 1.98269 4.78005L6.22769 3.88005L0.0976879 13.4725C-0.104812 13.8325 0.0226879 14.29 0.382688 14.495C0.742688 14.6975 1.20019 14.57 1.40519 14.21L7.54019 4.60505L8.47269 8.99755C8.52769 9.19755 8.66019 9.35505 8.82769 9.45005C8.99519 9.54505 9.19769 9.57505 9.39769 9.51755C9.79769 9.40505 10.0302 8.99255 9.91769 8.59255Z" fill="black"/>
</svg>
