<svg width="24" height="24" viewBox="0 0 24 24" fill="none" xmlns="http://www.w3.org/2000/svg">
<path d="M24 12C24 18.6275 18.6275 24 12 24C5.3725 24 0 18.6275 0 12C0 5.3725 5.3725 0 12 0C18.6275 0 24 5.3725 24 12Z" fill="#EE0701"/>
<path d="M5.6349 14.7224L11.0299 7.66739L11.2549 9.08239C11.2874 9.28739 11.3999 9.45989 11.5549 9.57239C11.7099 9.68489 11.9074 9.73989 12.1124 9.70739C12.5224 9.64239 12.7999 9.25989 12.7349 8.84989L12.2374 5.70739C12.2299 5.65989 12.2174 5.60989 12.1999 5.56489C12.1924 5.54239 12.1799 5.52489 12.1699 5.50489C12.1574 5.47989 12.1499 5.45739 12.1349 5.43489C12.1199 5.41239 12.1024 5.39239 12.0874 5.36989C12.0749 5.35239 12.0624 5.33489 12.0474 5.31739C11.9799 5.24489 11.8999 5.18489 11.8099 5.14489C11.7899 5.13489 11.7674 5.12989 11.7474 5.12239C11.7224 5.11239 11.6974 5.10239 11.6724 5.09739C11.6474 5.08989 11.6199 5.08989 11.5924 5.08489C11.5699 5.08239 11.5499 5.07739 11.5274 5.07739C11.4774 5.07739 11.4274 5.07739 11.3799 5.08489L8.2374 5.58239C7.8274 5.64739 7.5499 6.02989 7.6149 6.43989C7.6474 6.64489 7.7599 6.81739 7.9149 6.92989C8.0699 7.04239 8.2674 7.09739 8.4724 7.06489L9.7649 6.85989L4.4249 13.8449C4.1824 14.1799 4.2549 14.6499 4.5899 14.8924C4.9249 15.1349 5.3949 15.0624 5.6374 14.7274L5.6349 14.7224Z" fill="black"/>
<path d="M19.6372 13.96L17.7472 7.36996C17.6347 6.98246 17.2597 6.45996 16.5847 6.45996C15.9097 6.45996 15.5647 6.76246 15.2722 7.34246L13.2297 12.54L12.6147 12.05C12.3022 11.8 11.9122 11.685 11.5097 11.7325C11.1097 11.7775 10.7547 11.975 10.5097 12.285C10.4947 12.3025 10.4447 12.3725 10.4297 12.3925L7.74217 16.4325H5.84717C5.43467 16.4325 5.09717 16.7675 5.09717 17.1825C5.09717 17.5975 5.43217 17.9325 5.84717 17.9325H18.5697C18.9822 17.9325 19.3197 17.5975 19.3197 17.1825C19.3197 16.7675 18.9847 16.4325 18.5697 16.4325H9.54467L11.6822 13.2225L12.9172 14.21C13.0797 14.3375 13.2822 14.395 13.4922 14.365C13.6972 14.335 13.8797 14.2225 13.9997 14.0525L16.5022 8.19996L18.3922 14.7875C18.5372 15.1775 19.0872 15.225 19.4322 14.995C19.7772 14.765 19.7747 14.375 19.6397 13.955L19.6372 13.96Z" fill="black"/>
</svg>
