<svg width="24" height="24" fill="none" xmlns="http://www.w3.org/2000/svg"><g clip-path="url(#clip0)" fill="#000"><path d="M12 24C5.383 24 0 18.616 0 12 0 5.383 5.383 0 12 0c6.616 0 12 5.383 12 12 0 6.616-5.384 12-12 12zm0-22.4C6.266 1.6 1.6 6.266 1.6 12S6.266 22.4 12 22.4 22.4 17.734 22.4 12 17.734 1.6 12 1.6z"/><path d="M17 17.8a.792.792 0 01-.566-.234l-5-5a.789.789 0 01-.173-.262l-.01-.027a.786.786 0 01-.05-.277V8a.8.8 0 011.6 0v3.668l4.765 4.766A.794.794 0 0117.8 17 .802.802 0 0117 17.8z"/></g><defs><clipPath id="clip0"><path d="M0 0h24v24H0V0z" fill="#fff"/></clipPath></defs></svg>