<svg width="24" height="24" viewBox="0 0 24 24" fill="none" xmlns="http://www.w3.org/2000/svg">
<path fill-rule="evenodd" clip-rule="evenodd" d="M0 12C0 18.6165 5.38347 24 12 24C18.6165 24 24 18.6165 24 12C24 5.38347 18.6165 0 12 0C5.38347 0 0 5.38347 0 12ZM1.6 12C1.6 6.2656 6.2656 1.6 12 1.6C17.7344 1.6 22.4 6.2656 22.4 12C22.4 17.7344 17.7344 22.4 12 22.4C6.2656 22.4 1.6 17.7344 1.6 12ZM16.4341 17.5658C16.5845 17.7173 16.7861 17.8005 16.9995 17.8005C17.2128 17.8005 17.4144 17.7152 17.5659 17.5648C17.7173 17.4144 17.8005 17.2128 17.8005 16.9994C17.8005 16.7861 17.7173 16.5856 17.5659 16.4341L12.8011 11.6682V7.99995C12.8011 7.55835 12.4427 7.19995 12.0011 7.19995C11.5595 7.19995 11.2011 7.55835 11.2011 7.99995V12C11.2011 12.0938 11.2171 12.1856 11.2512 12.2773C11.2544 12.2858 11.2576 12.2954 11.2608 12.304C11.3013 12.4032 11.36 12.4906 11.4347 12.5653L16.4341 17.5658Z" fill="black"/>
</svg>
