<svg width="24" height="24" viewBox="0 0 24 24" fill="none" xmlns="http://www.w3.org/2000/svg">
<g clip-path="url(#clip0)">
<path fill-rule="evenodd" clip-rule="evenodd" d="M23.6359 2.12198C24.1214 1.63655 24.1214 0.849507 23.6359 0.364074C23.1505 -0.121358 22.3634 -0.121358 21.878 0.364074L12 10.2421L2.12198 0.364074C1.63655 -0.121358 0.849507 -0.121358 0.364074 0.364074C-0.121358 0.849507 -0.121358 1.63655 0.364074 2.12198L10.2421 12L0.364074 21.878C-0.121358 22.3634 -0.121358 23.1505 0.364074 23.6359C0.849507 24.1214 1.63655 24.1214 2.12198 23.6359L12 13.7579L21.878 23.6359C22.3634 24.1214 23.1505 24.1214 23.6359 23.6359C24.1214 23.1505 24.1214 22.3634 23.6359 21.878L13.7579 12L23.6359 2.12198Z" fill="black"/>
</g>
<defs>
<clipPath id="clip0">
<rect width="24" height="24" fill="white"/>
</clipPath>
</defs>
</svg>
