<svg width="24" height="24" viewBox="0 0 24 24" fill="none" xmlns="http://www.w3.org/2000/svg">
<path fill-rule="evenodd" clip-rule="evenodd" d="M8.46967 7.71967C8.76256 7.42678 9.23744 7.42678 9.53033 7.71967C9.82322 8.01256 9.82322 8.48744 9.53033 8.78033L7.06066 11.25L23.25 11.25C23.6642 11.25 24 11.5858 24 12C24 12.4142 23.6642 12.75 23.25 12.75L7.06066 12.75L9.53033 15.2197C9.82322 15.5126 9.82322 15.9874 9.53033 16.2803C9.23744 16.5732 8.76256 16.5732 8.46967 16.2803L4.71967 12.5303C4.57322 12.3839 4.5 12.1919 4.5 12C4.5 11.8983 4.52024 11.8013 4.55691 11.7129C4.59351 11.6245 4.64776 11.5416 4.71967 11.4697L8.46967 7.71967Z" fill="black"/>
<path fill-rule="evenodd" clip-rule="evenodd" d="M0.75 0.75C0.335786 0.75 0 1.08579 0 1.5L0 22.5C0 22.9142 0.335786 23.25 0.75 23.25C1.16421 23.25 1.5 22.9142 1.5 22.5L1.5 1.5C1.5 1.08579 1.16421 0.75 0.75 0.75Z" fill="black"/>
</svg>
