<svg width="24" height="24" viewBox="0 0 24 24" fill="none" xmlns="http://www.w3.org/2000/svg">
<path d="M21.7337 3.55192C22.0888 3.19689 22.0888 2.62129 21.7337 2.26627C21.3787 1.91124 20.8031 1.91124 20.4481 2.26627L12 10.7144L3.55192 2.26627C3.19689 1.91124 2.62129 1.91124 2.26627 2.26627C1.91124 2.62129 1.91124 3.19689 2.26627 3.55192L10.7144 12L2.26627 20.4481C1.91124 20.8031 1.91124 21.3787 2.26627 21.7337C2.62129 22.0888 3.19689 22.0888 3.55192 21.7337L12 13.2856L20.4481 21.7337C20.8031 22.0888 21.3787 22.0888 21.7337 21.7337C22.0888 21.3787 22.0888 20.8031 21.7337 20.4481L13.2856 12L21.7337 3.55192Z" fill="black"/>
</svg>
