<svg width="24" height="24" viewBox="0 0 24 24" fill="none" xmlns="http://www.w3.org/2000/svg">
<path d="M0 1.5C0 1.08579 0.335787 0.75 0.75 0.75C1.16421 0.75 1.5 1.08579 1.5 1.5V22.5C1.5 22.9142 1.16421 23.25 0.75 23.25C0.335787 23.25 0 22.9142 0 22.5V1.5Z" fill="black"/>
<path d="M9.53033 7.71967C9.23744 7.42678 8.76256 7.42678 8.46967 7.71967L4.71967 11.4697C4.64776 11.5416 4.59351 11.6245 4.55691 11.7129C4.52024 11.8013 4.5 11.8983 4.5 12C4.5 12.1919 4.57322 12.3839 4.71967 12.5303L8.46967 16.2803C8.76256 16.5732 9.23744 16.5732 9.53033 16.2803C9.82322 15.9874 9.82322 15.5126 9.53033 15.2197L7.06066 12.75H23.25C23.6642 12.75 24 12.4142 24 12C24 11.5858 23.6642 11.25 23.25 11.25H7.06066L9.53033 8.78033C9.82322 8.48744 9.82322 8.01256 9.53033 7.71967Z" fill="black"/>
</svg>
