<svg width="24" height="24" viewBox="0 0 24 24" fill="none" xmlns="http://www.w3.org/2000/svg">
<path d="M21.6192 4.21924C22.1269 3.71156 22.1269 2.88844 21.6192 2.38076C21.1116 1.87308 20.2884 1.87308 19.7808 2.38076L12 10.1615L4.21924 2.38076C3.71156 1.87308 2.88844 1.87308 2.38076 2.38076C1.87308 2.88844 1.87308 3.71156 2.38076 4.21924L10.1615 12L2.38076 19.7808C1.87308 20.2884 1.87308 21.1116 2.38076 21.6192C2.88844 22.1269 3.71156 22.1269 4.21924 21.6192L12 13.8385L19.7808 21.6192C20.2884 22.1269 21.1116 22.1269 21.6192 21.6192C22.1269 21.1116 22.1269 20.2884 21.6192 19.7808L13.8385 12L21.6192 4.21924Z" fill="black"/>
</svg>
