<svg width="24" height="24" viewBox="0 0 24 24" fill="none" xmlns="http://www.w3.org/2000/svg">
<path fill-rule="evenodd" clip-rule="evenodd" d="M14.2069 4.27906C14.6051 4.39287 14.8357 4.80799 14.7219 5.20626L10.7213 19.2063C10.6075 19.6045 10.1924 19.8351 9.79412 19.7213C9.39585 19.6075 9.16525 19.1924 9.27906 18.7941L13.2797 4.79412C13.3935 4.39585 13.8086 4.16525 14.2069 4.27906Z" fill="black"/>
<path fill-rule="evenodd" clip-rule="evenodd" d="M7.38458 5.21828C7.68066 5.50795 7.68587 5.98279 7.3962 6.27888L1.79923 11.9999L7.3962 17.7209C7.68587 18.017 7.68067 18.4918 7.38458 18.7815C7.0885 19.0711 6.61365 19.0659 6.32399 18.7698L0.213893 12.5244C-0.0712961 12.2329 -0.0712978 11.7669 0.213889 11.4754L6.32398 5.22991C6.61365 4.93382 7.08849 4.92862 7.38458 5.21828Z" fill="black"/>
<path fill-rule="evenodd" clip-rule="evenodd" d="M16.6154 5.21828C16.3193 5.50795 16.3141 5.98279 16.6038 6.27888L22.2008 11.9999L16.6038 17.7209C16.3141 18.017 16.3193 18.4918 16.6154 18.7815C16.9115 19.0711 17.3863 19.0659 17.676 18.7698L23.7861 12.5244C24.0713 12.2329 24.0713 11.7669 23.7861 11.4754L17.676 5.22991C17.3864 4.93382 16.9115 4.92862 16.6154 5.21828Z" fill="black"/>
</svg>
