<svg width="24" height="24" viewBox="0 0 24 24" fill="none" xmlns="http://www.w3.org/2000/svg">
<g id="code_circle">
<path id="Icon" d="M13.5293 6.66042C13.1576 6.5542 12.7701 6.76943 12.6639 7.14115L9.99685 16.4745C9.89063 16.8462 10.1059 17.2337 10.4776 17.3399C10.8493 17.4461 11.2367 17.2309 11.343 16.8591L14.01 7.52581C14.1163 7.15409 13.901 6.76664 13.5293 6.66042Z" fill="black"/>
<path id="Icon_2" d="M8.93284 7.3361C8.65649 7.06575 8.2133 7.07061 7.94295 7.34696L3.86955 11.5106C3.60338 11.7827 3.60338 12.2176 3.86956 12.4897L7.94295 16.6533C8.21331 16.9297 8.6565 16.9345 8.93284 16.6642C9.20919 16.3938 9.21404 15.9506 8.94368 15.6743L5.3492 12.0002L8.94369 8.32599C9.21404 8.04965 9.20918 7.60646 8.93284 7.3361Z" fill="black"/>
<path id="Icon_3" d="M15.0801 7.3361C15.3565 7.06575 15.7996 7.07061 16.07 7.34696L20.1434 11.5106C20.4096 11.7827 20.4096 12.2176 20.1434 12.4897L16.07 16.6533C15.7996 16.9297 15.3565 16.9345 15.0801 16.6642C14.8038 16.3938 14.7989 15.9506 15.0693 15.6743L18.6637 12.0002L15.0693 8.32599C14.7989 8.04965 14.8038 7.60646 15.0801 7.3361Z" fill="black"/>
<path id="Icon_4" fill-rule="evenodd" clip-rule="evenodd" d="M12 22.5C17.799 22.5 22.5 17.799 22.5 12C22.5 6.20101 17.799 1.5 12 1.5C6.20101 1.5 1.5 6.20101 1.5 12C1.5 17.799 6.20101 22.5 12 22.5ZM12 24C18.6274 24 24 18.6274 24 12C24 5.37258 18.6274 0 12 0C5.37258 0 0 5.37258 0 12C0 18.6274 5.37258 24 12 24Z" fill="black"/>
</g>
</svg>
