<svg width="24" height="24" viewBox="0 0 24 24" fill="none" xmlns="http://www.w3.org/2000/svg">
<path fill-rule="evenodd" clip-rule="evenodd" d="M6.33132 23.2955C6.83052 23.7498 7.47778 24 8.15405 24C8.91635 24 9.64764 23.6778 10.1598 23.1164L11.1062 22.0737C11.1332 22.0427 11.1632 22.0137 11.1933 21.9867C11.4153 21.7855 11.7025 21.6755 12.0026 21.6755C12.3457 21.6755 12.6729 21.8205 12.9019 22.0737L13.8463 23.1184C14.3585 23.6778 15.0828 23.999 15.8331 23.999C15.8781 23.999 15.9231 23.998 15.9662 23.996C16.6885 23.964 17.3557 23.6518 17.8449 23.1164C18.3341 22.5811 18.5852 21.8876 18.5532 21.1621L18.4822 19.7612C18.4802 19.7191 18.4802 19.6771 18.4822 19.6361C18.4982 19.3129 18.6392 19.0167 18.8793 18.8005C19.1054 18.5974 19.3835 18.4893 19.6857 18.4893C19.7077 18.4893 19.7297 18.4903 19.7517 18.4913L21.1542 18.5624C21.1983 18.5644 21.2423 18.5654 21.2853 18.5654C22.0536 18.5654 22.7879 18.2402 23.3011 17.6728C23.7863 17.1364 24.0334 16.442 23.9964 15.7185C23.9594 14.995 23.6432 14.3296 23.106 13.8442L22.0636 12.9026C22.0336 12.8766 22.0056 12.8476 21.9776 12.8165C21.7615 12.5774 21.6504 12.2672 21.6674 11.944C21.6834 11.6207 21.8245 11.3235 22.0636 11.1074L23.106 10.1668C23.7113 9.61941 24.0354 8.83789 23.9954 8.02235C23.9594 7.29987 23.6442 6.63342 23.108 6.1471C22.6088 5.6938 21.9646 5.44463 21.2923 5.44463C21.2463 5.44463 21.2013 5.44563 21.1542 5.44763L19.7537 5.51868C19.7347 5.51968 19.7157 5.51968 19.6967 5.51968C19.6776 5.51968 19.6584 5.51877 19.6385 5.51781L19.6356 5.51768C18.9704 5.48366 18.4562 4.91528 18.4892 4.24983L18.5602 2.8489C18.6022 2.03135 18.2781 1.24783 17.6708 0.699466C17.1716 0.248165 16.5254 0 15.8521 0C15.8071 0 15.7621 0.00100067 15.7161 0.003002C14.9928 0.0400267 14.3275 0.355237 13.8443 0.890594L12.8939 1.93329C12.8669 1.96431 12.8379 1.99333 12.8069 2.02135C12.5808 2.22448 12.3027 2.33155 12.0016 2.33155C11.9796 2.33155 11.9576 2.33055 11.9356 2.32955C11.6134 2.31254 11.3173 2.17145 11.1002 1.93029L10.1588 0.890594C9.64664 0.327218 8.91735 0.00400267 8.15705 0.00400267C8.11403 0.00400267 8.07102 0.00500333 8.028 0.00700467C6.5354 0.0770514 5.37794 1.3489 5.44797 2.8429L5.515 4.24983C5.517 4.29186 5.517 4.33489 5.515 4.37692C5.48098 5.01834 4.95077 5.52168 4.30651 5.52168C4.30651 5.52168 4.2645 5.52168 4.24349 5.51968L2.84093 5.44863C2.79691 5.44663 2.75189 5.44563 2.70788 5.44563C1.94757 5.44563 1.21728 5.76985 0.705077 6.33522C0.218883 6.87158 -0.0302162 7.56504 0.00579819 8.28753C0.0408122 9.01101 0.354937 9.67645 0.891151 10.1628L1.93357 11.1094C1.96458 11.1374 1.99359 11.1664 2.0206 11.1965C2.23669 11.4366 2.34673 11.7468 2.33073 12.07C2.31372 12.3933 2.17266 12.6905 1.93357 12.9066L0.891151 13.8472C0.28491 14.3966 -0.0392198 15.1801 0.00379739 15.9977C0.0418126 16.7211 0.358939 17.3856 0.896153 17.8699C1.39435 18.3192 2.03761 18.5664 2.70588 18.5664C2.75389 18.5664 2.80291 18.5644 2.84993 18.5624L4.25149 18.4913C4.2725 18.4893 4.29251 18.4893 4.31352 18.4893C4.33352 18.4893 4.35453 18.4903 4.37554 18.4913C5.04081 18.5264 5.55401 19.0957 5.52 19.7612L5.44797 21.1661C5.41095 21.9746 5.73308 22.7512 6.33132 23.2955ZM4.45157 16.9933C4.40555 16.9903 4.35953 16.9893 4.31352 16.9893C4.26737 16.9893 4.2222 16.9903 4.17609 16.9913L4.17346 16.9913L2.7719 17.0624C2.75091 17.0644 2.72893 17.0644 2.70794 17.0644C2.40982 17.0644 2.12264 16.9543 1.90055 16.7542C1.66046 16.538 1.5194 16.2408 1.5024 15.9186C1.48339 15.5544 1.62745 15.2041 1.89755 14.96L2.93897 14.0193C4.04841 13.0177 4.13545 11.2995 3.13405 10.1898C3.07302 10.1207 3.008 10.0567 2.94097 9.99566L1.89955 9.05003C1.66046 8.83289 1.5204 8.53569 1.5044 8.21348C1.48839 7.89126 1.59943 7.58205 1.81652 7.3429C2.04461 7.09173 2.37074 6.94663 2.70988 6.94663C2.72888 6.94663 2.74889 6.94763 2.7669 6.94863L4.16646 7.01868C4.21348 7.02168 4.2605 7.02268 4.30751 7.02268C5.74909 7.02268 6.93756 5.89493 7.01359 4.45597C7.0186 4.35991 7.0186 4.26384 7.01359 4.17278L6.94657 2.77185C6.91555 2.1054 7.43176 1.53702 8.09703 1.506C8.11603 1.505 8.13504 1.505 8.15405 1.505C8.49418 1.505 8.82032 1.6491 9.04841 1.89927L9.98778 2.93796C10.472 3.47532 11.1362 3.79153 11.8595 3.82955C11.9055 3.83155 11.9516 3.83256 11.9976 3.83256C12.6699 3.83256 13.3141 3.58539 13.8123 3.13609C13.8823 3.07305 13.9494 3.006 14.0084 2.93996L14.9568 1.89927C15.1728 1.65911 15.47 1.51801 15.7941 1.502C15.8171 1.501 15.8401 1.5 15.8621 1.5C16.1612 1.5 16.4384 1.60707 16.6644 1.81221C16.9356 2.05637 17.0806 2.4056 17.0616 2.77085L16.9906 4.17278C16.9155 5.66478 18.068 6.93963 19.5596 7.01468C19.6046 7.01768 19.6506 7.01868 19.6967 7.01868C19.7407 7.01868 19.7857 7.01768 19.8297 7.01568L21.2293 6.94463L21.232 6.9445C21.252 6.94354 21.2712 6.94263 21.2913 6.94263C21.5904 6.94263 21.8775 7.0537 22.1006 7.25584C22.3407 7.47298 22.4808 7.77018 22.4968 8.0934C22.5148 8.45764 22.3707 8.80587 22.1006 9.05003L21.0582 9.99066C19.9488 10.9933 19.8617 12.7115 20.8631 13.8202C20.9251 13.8893 20.9902 13.9543 21.0582 14.0153L22.1006 14.956C22.3407 15.1731 22.4818 15.4693 22.4978 15.7925C22.5138 16.1147 22.4037 16.425 22.1866 16.6651C21.9576 16.9193 21.6334 17.0644 21.2973 17.0644C21.2753 17.0644 21.2523 17.0634 21.2283 17.0624L19.8287 16.9913C19.7797 16.9883 19.7317 16.9873 19.6836 16.9873C19.0154 16.9873 18.3731 17.2355 17.8739 17.6858C17.3367 18.1701 17.0206 18.8356 16.9836 19.558C16.9786 19.6511 16.9786 19.7442 16.9836 19.8362L17.0546 21.2322C17.0846 21.8986 16.5664 22.465 15.9021 22.495L15.8531 22.496C15.509 22.496 15.1829 22.3539 14.9568 22.1067L14.0154 21.065C13.5022 20.4977 12.7689 20.1724 12.0026 20.1724C11.3303 20.1724 10.6861 20.4206 10.1869 20.8709C10.1188 20.933 10.0538 20.998 9.99378 21.065L9.04941 22.1057C8.83232 22.3449 8.5342 22.485 8.21207 22.5C8.19206 22.501 8.17306 22.501 8.15305 22.501C7.84793 22.501 7.56681 22.3929 7.34072 22.1868C7.07362 21.9436 6.93056 21.5974 6.94657 21.2402L7.0186 19.8392C7.09563 18.3472 5.94417 17.0704 4.45157 16.9933Z" fill="black"/>
<path fill-rule="evenodd" clip-rule="evenodd" d="M6.74747 12.004C6.74747 14.9009 9.10341 17.2575 11.9996 17.2575C14.8957 17.2575 17.2517 14.9009 17.2517 12.004C17.2517 9.10706 14.8957 6.75049 11.9996 6.75049C9.10341 6.75049 6.74747 9.10706 6.74747 12.004ZM8.24807 12.004C8.24807 9.93461 9.93074 8.25149 11.9996 8.25149C14.0684 8.25149 15.7511 9.93461 15.7511 12.004C15.7511 14.0734 14.0684 15.7565 11.9996 15.7565C9.93074 15.7565 8.24807 14.0734 8.24807 12.004Z" fill="black"/>
<path fill-rule="evenodd" clip-rule="evenodd" d="M13.3275 9.84334C13.6901 9.64311 14.1464 9.77475 14.3466 10.1374C14.6039 10.6033 14.75 11.139 14.75 11.7066C14.75 13.5015 13.2949 14.9566 11.5 14.9566C11.0858 14.9566 10.75 14.6208 10.75 14.2066C10.75 13.7924 11.0858 13.4566 11.5 13.4566C12.4665 13.4566 13.25 12.6731 13.25 11.7066C13.25 11.399 13.1713 11.112 13.0335 10.8624C12.8332 10.4998 12.9649 10.0436 13.3275 9.84334Z" fill="#29D305"/>
</svg>
