<svg width="24" height="24" viewBox="0 0 24 24" fill="none" xmlns="http://www.w3.org/2000/svg">
<g clip-path="url(#clip0)">
<path fill-rule="evenodd" clip-rule="evenodd" d="M6.33132 23.2972C6.83052 23.7515 7.47778 24.0017 8.15405 24.0017C8.91635 24.0017 9.64764 23.6795 10.1598 23.1181L11.1062 22.0754C11.1332 22.0444 11.1632 22.0154 11.1933 21.9884C11.4153 21.7872 11.7025 21.6772 12.0026 21.6772C12.3457 21.6772 12.6729 21.8223 12.9019 22.0754L13.8463 23.1201C14.3585 23.6795 15.0828 24.0007 15.8331 24.0007C15.8781 24.0007 15.9231 23.9997 15.9662 23.9977C16.6885 23.9657 17.3557 23.6535 17.8449 23.1181C18.3341 22.5828 18.5852 21.8893 18.5532 21.1638L18.4822 19.7629C18.4802 19.7209 18.4802 19.6788 18.4822 19.6378C18.4982 19.3146 18.6392 19.0184 18.8793 18.8022C19.1054 18.5991 19.3835 18.491 19.6857 18.491C19.7077 18.491 19.7297 18.492 19.7517 18.493L21.1542 18.5641C21.1983 18.5661 21.2423 18.5671 21.2853 18.5671C22.0536 18.5671 22.7879 18.2419 23.3011 17.6745C23.7863 17.1381 24.0334 16.4437 23.9964 15.7202C23.9594 14.9967 23.6432 14.3313 23.106 13.8459L22.0636 12.9043C22.0336 12.8783 22.0056 12.8493 21.9776 12.8183C21.7615 12.5791 21.6504 12.2689 21.6674 11.9457C21.6834 11.6225 21.8245 11.3253 22.0636 11.1091L23.106 10.1685C23.7113 9.62112 24.0354 8.8396 23.9954 8.02406C23.9594 7.30158 23.6442 6.63513 23.108 6.14881C22.6088 5.6955 21.9646 5.44634 21.2923 5.44634C21.2463 5.44634 21.2013 5.44734 21.1542 5.44934L19.7537 5.52039C19.7347 5.52139 19.7157 5.52139 19.6967 5.52139C19.6776 5.52139 19.6584 5.52048 19.6385 5.51952L19.6356 5.51939C18.9704 5.48536 18.4562 4.91699 18.4892 4.25154L18.5602 2.85061C18.6022 2.03306 18.2781 1.24954 17.6708 0.701175C17.1716 0.249874 16.5254 0.00170898 15.8521 0.00170898C15.8071 0.00170898 15.7621 0.00270965 15.7161 0.00471099C14.9928 0.0417357 14.3275 0.356946 13.8443 0.892303L12.8939 1.935C12.8669 1.96602 12.8379 1.99504 12.8069 2.02306C12.5808 2.22619 12.3027 2.33326 12.0016 2.33326C11.9796 2.33326 11.9576 2.33226 11.9356 2.33126C11.6134 2.31425 11.3173 2.17316 11.1002 1.932L10.1588 0.892303C9.64664 0.328927 8.91735 0.00571165 8.15705 0.00571165C8.11403 0.00571165 8.07102 0.00671232 8.028 0.00871365C6.5354 0.0787603 5.37794 1.35061 5.44797 2.8446L5.515 4.25154C5.517 4.29357 5.517 4.3366 5.515 4.37863C5.48098 5.02005 4.95077 5.52339 4.30651 5.52339C4.30651 5.52339 4.2645 5.52339 4.24349 5.52139L2.84093 5.45034C2.79691 5.44834 2.75189 5.44734 2.70788 5.44734C1.94757 5.44734 1.21728 5.77156 0.705077 6.33693C0.218883 6.87329 -0.0302162 7.56675 0.00579819 8.28923C0.0408122 9.01272 0.354937 9.67816 0.891151 10.1645L1.93357 11.1111C1.96458 11.1391 1.99359 11.1682 2.0206 11.1982C2.23669 11.4383 2.34673 11.7485 2.33073 12.0718C2.31372 12.395 2.17266 12.6922 1.93357 12.9083L0.891151 13.8489C0.28491 14.3983 -0.0392198 15.1818 0.00379739 15.9994C0.0418126 16.7229 0.358939 17.3873 0.896153 17.8716C1.39435 18.3209 2.03761 18.5681 2.70588 18.5681C2.75389 18.5681 2.80291 18.5661 2.84993 18.5641L4.25149 18.493C4.2725 18.491 4.29251 18.491 4.31352 18.491C4.33352 18.491 4.35453 18.492 4.37554 18.493C5.04081 18.5281 5.55401 19.0974 5.52 19.7629L5.44797 21.1678C5.41095 21.9764 5.73308 22.7529 6.33132 23.2972ZM4.45157 16.995C4.40555 16.992 4.35953 16.991 4.31352 16.991C4.26737 16.991 4.2222 16.992 4.17609 16.993L4.17346 16.993L2.7719 17.0641C2.75091 17.0661 2.72893 17.0661 2.70794 17.0661H2.70788C2.40976 17.0661 2.12264 16.956 1.90055 16.7559C1.66046 16.5397 1.5194 16.2425 1.5024 15.9203C1.48339 15.5561 1.62745 15.2058 1.89755 14.9617L2.93897 14.0211C4.04841 13.0194 4.13545 11.3012 3.13405 10.1915C3.07302 10.1225 3.008 10.0584 2.94097 9.99737L1.89955 9.05174C1.66046 8.8346 1.5204 8.5374 1.5044 8.21518C1.48839 7.89297 1.59943 7.58376 1.81652 7.3446C2.04461 7.09344 2.37074 6.94834 2.70988 6.94834C2.72888 6.94834 2.74889 6.94934 2.7669 6.95034L4.16646 7.02039C4.21348 7.02339 4.2605 7.02439 4.30751 7.02439C5.74909 7.02439 6.93756 5.89664 7.01359 4.45768C7.0186 4.36162 7.0186 4.26555 7.01359 4.17449L6.94657 2.77356C6.91555 2.10711 7.43176 1.53873 8.09703 1.50771C8.11603 1.50671 8.13504 1.50671 8.15405 1.50671C8.49418 1.50671 8.82032 1.65081 9.04841 1.90098L9.98778 2.93967C10.472 3.47703 11.1362 3.79324 11.8595 3.83126C11.9055 3.83326 11.9516 3.83426 11.9976 3.83426C12.6699 3.83426 13.3141 3.5871 13.8123 3.1378C13.8823 3.07476 13.9494 3.00771 14.0084 2.94167L14.9568 1.90098C15.1728 1.66082 15.47 1.51972 15.7941 1.50371C15.8171 1.50271 15.8401 1.50171 15.8621 1.50171C16.1612 1.50171 16.4384 1.60878 16.6644 1.81392C16.9356 2.05808 17.0806 2.40731 17.0616 2.77256L16.9906 4.17449C16.9155 5.66648 18.068 6.94134 19.5596 7.01639C19.6046 7.01939 19.6506 7.02039 19.6967 7.02039C19.7407 7.02039 19.7857 7.01939 19.8297 7.01739L21.2293 6.94634L21.232 6.94621C21.252 6.94525 21.2712 6.94434 21.2913 6.94434C21.5904 6.94434 21.8775 7.05541 22.1006 7.25755C22.3407 7.47469 22.4808 7.77189 22.4968 8.09511C22.5148 8.45935 22.3707 8.80758 22.1006 9.05174L21.0582 9.99237C19.9488 10.995 19.8617 12.7132 20.8631 13.8219C20.9251 13.891 20.9902 13.956 21.0582 14.0171L22.1006 14.9577C22.3407 15.1748 22.4818 15.471 22.4978 15.7942C22.5138 16.1165 22.4037 16.4267 22.1866 16.6668C21.9576 16.921 21.6334 17.0661 21.2973 17.0661C21.2753 17.0661 21.2523 17.0651 21.2283 17.0641L19.8287 16.993C19.7797 16.99 19.7317 16.989 19.6836 16.989C19.0154 16.989 18.3731 17.2372 17.8739 17.6875C17.3367 18.1718 17.0206 18.8373 16.9836 19.5597C16.9786 19.6528 16.9786 19.7459 16.9836 19.8379L17.0546 21.2339C17.0846 21.9003 16.5664 22.4667 15.9021 22.4967L15.8531 22.4977C15.509 22.4977 15.1829 22.3556 14.9568 22.1084L14.0154 21.0668C13.5022 20.4994 12.7689 20.1742 12.0026 20.1742C11.3303 20.1742 10.6861 20.4223 10.1869 20.8726C10.1188 20.9347 10.0538 20.9997 9.99378 21.0668L9.04941 22.1074C8.83232 22.3466 8.5342 22.4867 8.21207 22.5017C8.19206 22.5027 8.17306 22.5027 8.15305 22.5027C7.84793 22.5027 7.56681 22.3946 7.34072 22.1885C7.07362 21.9453 6.93056 21.5991 6.94657 21.2419L7.0186 19.8409C7.09563 18.3489 5.94417 17.0721 4.45157 16.995ZM6.74747 12.0057C6.74747 14.9026 9.10341 17.2592 11.9996 17.2592C14.8957 17.2592 17.2517 14.9026 17.2517 12.0057C17.2517 9.10877 14.8957 6.7522 11.9996 6.7522C9.10341 6.7522 6.74747 9.10877 6.74747 12.0057ZM8.24807 12.0057C8.24807 9.93632 9.93074 8.2532 11.9996 8.2532C14.0684 8.2532 15.7511 9.93632 15.7511 12.0057C15.7511 14.0751 14.0684 15.7582 11.9996 15.7582C9.93074 15.7582 8.24807 14.0751 8.24807 12.0057Z" fill="black"/>
</g>
<defs>
<clipPath id="clip0">
<rect width="24" height="24" fill="white"/>
</clipPath>
</defs>
</svg>

