<svg width="25" height="24" fill="none" xmlns="http://www.w3.org/2000/svg"><g clip-path="url(#clip0)" fill="#000"><path d="M8.175 24.002c-.677 0-1.324-.25-1.823-.705a2.704 2.704 0 01-.883-2.13l.072-1.404a1.211 1.211 0 00-1.145-1.27l-.062-.002c-.02 0-.04 0-.062.002l-1.401.071a2.7 2.7 0 01-1.954-.692 2.694 2.694 0 01-.893-1.873 2.7 2.7 0 01.888-2.15l1.042-.94c.24-.217.38-.514.397-.837a1.208 1.208 0 00-.397-.96l-1.042-.947a2.69 2.69 0 01-.886-1.876A2.709 2.709 0 012.861 5.45l1.403.071a1.21 1.21 0 001.272-1.27l-.067-1.406A2.714 2.714 0 018.178.005c.76 0 1.49.324 2.002.887l.94 1.04a1.2 1.2 0 00.902.401 1.187 1.187 0 00.893-.398l.95-1.043a2.69 2.69 0 012.008-.89A2.707 2.707 0 0118.58 2.85l-.071 1.4a1.211 1.211 0 001.146 1.268l.061.002h.057l1.4-.072.139-.003c.672 0 1.316.25 1.816.703.536.486.851 1.153.887 1.875a2.702 2.702 0 01-.89 2.145l-1.042.94a1.2 1.2 0 00-.396.837 1.2 1.2 0 00.396.958l1.043.942c.537.485.853 1.15.89 1.874a2.69 2.69 0 01-.695 1.954 2.72 2.72 0 01-2.147.89l-1.403-.071-.066-.002c-.302 0-.58.108-.806.311a1.196 1.196 0 00-.397.96l.07 1.402a2.7 2.7 0 01-.707 1.954 2.69 2.69 0 01-2.012.883c-.75 0-1.475-.322-1.987-.88l-.944-1.046a1.214 1.214 0 00-1.796 0l-.947 1.043a2.72 2.72 0 01-2.005.884zm-3.84-7.011a2.713 2.713 0 012.705 2.85l-.073 1.4a1.206 1.206 0 001.207 1.262l.059-.001a1.2 1.2 0 00.837-.395l.944-1.04a2.705 2.705 0 012.009-.893c.767 0 1.5.325 2.013.893l.941 1.041c.226.248.553.39.897.39l.049-.001a1.211 1.211 0 001.152-1.263l-.07-1.396a2.69 2.69 0 01.89-2.15 2.698 2.698 0 011.954-.695l1.4.071.069.002a1.2 1.2 0 00.89-.4c.216-.24.326-.55.31-.872a1.2 1.2 0 00-.397-.836l-1.042-.94a2.715 2.715 0 010-4.025l1.042-.941c.27-.244.414-.593.396-.957a1.2 1.2 0 00-.396-.837 1.203 1.203 0 00-.81-.314l-.061.002-1.4.071a2.95 2.95 0 01-.27 0 2.712 2.712 0 01-2.569-2.843l.071-1.401a1.2 1.2 0 00-.397-.96 1.176 1.176 0 00-.87-.31 1.197 1.197 0 00-.838.398l-.948 1.04a2.704 2.704 0 01-2.149.89 2.692 2.692 0 01-1.872-.891L9.07 1.9a1.213 1.213 0 00-.894-.394h-.057c-.666.032-1.182.6-1.15 1.267l.066 1.4A2.71 2.71 0 014.187 7.02l-1.4-.07a1.21 1.21 0 00-1.262 1.265c.016.322.156.62.395.837l1.042.945a2.715 2.715 0 01-.002 4.024l-1.042.94c-.27.245-.414.595-.395.96a1.205 1.205 0 001.205 1.146c.022 0 .044 0 .065-.003l1.401-.071.14-.002z"/><path d="M12.02 17.26a5.259 5.259 0 01-5.252-5.254 5.259 5.259 0 015.252-5.254 5.259 5.259 0 015.252 5.254 5.259 5.259 0 01-5.252 5.253zm0-9.007a3.756 3.756 0 00-3.751 3.753 3.756 3.756 0 003.751 3.752 3.756 3.756 0 003.752-3.752 3.756 3.756 0 00-3.752-3.753z"/></g><defs><clipPath id="clip0"><path d="M.02 0h24v24h-24V0z" fill="#fff"/></clipPath></defs></svg>