<svg width="24" height="24" viewBox="0 0 24 24" fill="none" xmlns="http://www.w3.org/2000/svg">
<path fill-rule="evenodd" clip-rule="evenodd" d="M0.75 13C1.16421 13 1.5 13.3212 1.5 13.7174V14.913H9.03947C10.1435 14.913 11.2226 15.2662 12.0354 15.9228C12.6514 16.4203 13.0815 17.0678 13.2557 17.7826H19.6974C20.8014 17.7826 21.8805 18.1358 22.6933 18.7924C23.51 19.452 24 20.3753 24 21.3696C24 21.5598 23.921 21.7423 23.7803 21.8768C23.6397 22.0114 23.4489 22.087 23.25 22.087H1.5V23.2826C1.5 23.6788 1.16421 24 0.75 24C0.335786 24 0 23.6788 0 23.2826V13.7174C0 13.3212 0.335786 13 0.75 13ZM1.5 20.6522H22.3378C22.2096 20.376 22.0055 20.1147 21.7256 19.8886C21.2059 19.4689 20.4778 19.2174 19.6974 19.2174H8C7.58579 19.2174 7.25 18.8962 7.25 18.5C7.25 18.1038 7.58579 17.7826 8 17.7826H11.68C11.5517 17.5065 11.3476 17.2451 11.0677 17.019C10.5481 16.5993 9.81992 16.3478 9.03947 16.3478H1.5V20.6522Z" fill="black"/>
<path fill-rule="evenodd" clip-rule="evenodd" d="M18.8251 1.53567C18.7357 1.49863 18.6371 1.49019 18.5427 1.5115C18.4483 1.53282 18.3628 1.58284 18.298 1.65475L18.296 1.65692L17.7091 2.30265C17.5254 2.50736 17.3007 2.6712 17.0496 2.78353C16.7975 2.89633 16.5244 2.95464 16.2481 2.95464C15.9719 2.95464 15.6988 2.89633 15.4466 2.78353C15.1955 2.6712 14.9709 2.50735 14.7872 2.30263L14.2007 1.65743C14.1358 1.5862 14.0503 1.53654 13.9563 1.51558C13.8622 1.4946 13.7639 1.50317 13.6748 1.54014C13.5858 1.57711 13.5103 1.64068 13.4586 1.72222C13.4071 1.80351 13.3819 1.8987 13.3863 1.99486L13.431 2.86778C13.4448 3.14275 13.4009 3.41827 13.302 3.67521C13.2031 3.93215 13.0514 4.16551 12.8567 4.36022C12.6621 4.55493 12.4288 4.70667 12.1718 4.80563C11.9149 4.9046 11.6401 4.94859 11.3651 4.93475L10.4928 4.88991C10.3962 4.88493 10.3003 4.90999 10.2184 4.96168C10.1366 5.01337 10.0728 5.08916 10.0357 5.17867C9.99863 5.26817 9.99018 5.36698 10.0115 5.46149C10.0328 5.55601 10.0829 5.64156 10.1548 5.70642L10.8015 6.29086C11.0066 6.47477 11.1708 6.6998 11.2832 6.95132C11.396 7.20348 11.4543 7.47659 11.4543 7.7528C11.4543 8.02901 11.396 8.30213 11.2832 8.55428C11.1708 8.80579 11.0067 9.03081 10.8015 9.21471L10.7999 9.21615L10.1569 9.79724L10.1562 9.79792C10.0852 9.86271 10.0359 9.94777 10.0148 10.0416C9.99373 10.1358 10.0022 10.2341 10.039 10.3233C10.0758 10.4125 10.1392 10.4881 10.2205 10.5399C10.3014 10.5914 10.396 10.6168 10.4917 10.6128L10.4934 10.6127L11.3605 10.5681C11.6355 10.5543 11.9112 10.5982 12.1681 10.6972C12.425 10.7961 12.6583 10.9479 12.853 11.1426C13.0477 11.3373 13.1993 11.5707 13.2983 11.8276C13.3972 12.0845 13.4411 12.3594 13.4273 12.6343L13.3825 13.5069C13.3775 13.6036 13.4026 13.6997 13.4543 13.7816C13.506 13.8635 13.5818 13.9273 13.6712 13.9643C13.7606 14.0014 13.8592 14.0098 13.9536 13.9885C14.0479 13.9672 14.1334 13.9172 14.1983 13.8453L14.2018 13.8413L14.7918 13.1964C14.9753 12.9921 15.1997 12.8286 15.4504 12.7165C15.7025 12.6037 15.9756 12.5454 16.2519 12.5454C16.5281 12.5454 16.8012 12.6037 17.0534 12.7165C17.3048 12.829 17.5298 12.9931 17.7137 13.1983L17.7151 13.1999L18.2976 13.8448C18.3625 13.9167 18.4483 13.9672 18.5427 13.9885C18.6371 14.0098 18.7357 14.0014 18.8251 13.9643C18.9145 13.9273 18.9903 13.8635 19.042 13.7816C19.0937 13.6997 19.1188 13.6037 19.1138 13.507L19.069 12.6351C19.0552 12.3602 19.0991 12.0845 19.198 11.8276C19.2969 11.5706 19.4486 11.3373 19.6433 11.1426C19.8379 10.9479 20.0712 10.7961 20.3282 10.6972C20.5851 10.5982 20.8599 10.5542 21.1349 10.568L22.0072 10.6129C22.1038 10.6179 22.1997 10.5928 22.2816 10.5411C22.3634 10.4894 22.4272 10.4136 22.4643 10.3241C22.5014 10.2346 22.5098 10.1358 22.4885 10.0413C22.4672 9.94679 22.4171 9.86124 22.3452 9.79638L21.7001 9.21335L21.6984 9.21184C21.4933 9.02795 21.3292 8.80296 21.2168 8.55148C21.104 8.29933 21.0457 8.02622 21.0457 7.75C21.0457 7.47378 21.104 7.20067 21.2168 6.94852C21.3292 6.697 21.4934 6.47196 21.6985 6.28805L21.7001 6.28665L22.3448 5.704C22.4167 5.63914 22.4672 5.55321 22.4885 5.45869C22.5098 5.36418 22.5014 5.26537 22.4643 5.17587C22.4272 5.08637 22.3634 5.01057 22.2816 4.95888C22.1997 4.90719 22.1039 4.88213 22.0073 4.88711L21.1357 4.93191C20.8608 4.94574 20.5851 4.9018 20.3282 4.80283C20.0712 4.70387 19.8379 4.55213 19.6433 4.35742C19.4486 4.16271 19.2969 3.92935 19.198 3.67241C19.0991 3.41547 19.0551 3.14064 19.069 2.86567L19.1138 1.99314C19.1188 1.89637 19.0937 1.80034 19.042 1.71844C18.9903 1.63655 18.9145 1.57271 18.8251 1.53567ZM18.2123 0.0483497C18.6089 -0.0412315 19.0236 -0.0057458 19.3993 0.149924C19.775 0.305592 20.0932 0.573792 20.3103 0.917639C20.5274 1.26145 20.6327 1.66404 20.6118 2.07011L20.5671 2.941C20.5638 3.00657 20.5743 3.07225 20.5979 3.13351C20.6215 3.19481 20.6576 3.25047 20.7041 3.2969C20.7505 3.34333 20.8061 3.3795 20.8673 3.40308C20.9285 3.42662 20.9938 3.43711 21.0592 3.43386L21.9301 3.3891C22.3362 3.36818 22.7389 3.47356 23.0827 3.69073C23.4265 3.90791 23.6946 4.22623 23.8502 4.60193C24.0057 4.97763 24.0412 5.39229 23.9517 5.78895C23.8621 6.18561 23.652 6.54484 23.3501 6.81727L22.7002 7.4046C22.6516 7.44805 22.6127 7.50126 22.5861 7.56078C22.5595 7.62031 22.5457 7.68478 22.5457 7.75C22.5457 7.81522 22.5595 7.87969 22.5861 7.93922C22.6127 7.99874 22.6516 8.05196 22.7002 8.0954L22.703 8.09792L23.3501 8.68274C23.652 8.95516 23.8621 9.31439 23.9517 9.71105C24.0412 10.1077 24.0057 10.5224 23.8502 10.8981C23.6946 11.2738 23.4265 11.5921 23.0827 11.8093C22.7389 12.0264 22.3363 12.1318 21.9302 12.1109L21.0596 12.0662C20.9941 12.0629 20.9285 12.0734 20.8673 12.0969C20.8061 12.1205 20.7505 12.1567 20.7041 12.2031C20.6576 12.2495 20.6215 12.3052 20.5979 12.3665C20.5743 12.4278 20.5638 12.4933 20.5671 12.5589L20.6118 13.4298C20.6327 13.8359 20.5274 14.2385 20.3103 14.5824C20.0932 14.9262 19.775 15.1944 19.3993 15.3501C19.0236 15.5057 18.6089 15.5412 18.2123 15.4517C17.8156 15.3621 17.4565 15.1519 17.1841 14.8499L16.5969 14.1997C16.5535 14.1512 16.5003 14.1123 16.4408 14.0857C16.3814 14.0591 16.317 14.0454 16.2519 14.0454C16.1868 14.0454 16.1224 14.0591 16.0629 14.0857C16.0035 14.1123 15.9503 14.1512 15.9068 14.1997L15.9012 14.2061L15.3102 14.852C15.0381 15.1528 14.6797 15.3623 14.284 15.4517C13.8873 15.5412 13.4727 15.5057 13.097 15.3501C12.7213 15.1944 12.403 14.9262 12.1859 14.5824C11.9689 14.2385 11.8636 13.836 11.8845 13.4299L11.9292 12.559C11.9325 12.4935 11.922 12.4277 11.8984 12.3665C11.8748 12.3052 11.8386 12.2495 11.7922 12.2031C11.7458 12.1567 11.6902 12.1205 11.6289 12.0969C11.5678 12.0734 11.5024 12.0629 11.4369 12.0661L10.5617 12.1111C10.1571 12.1296 9.75669 12.0228 9.41503 11.8053C9.07337 11.5878 8.80712 11.2702 8.65254 10.8958C8.49797 10.5215 8.46258 10.1086 8.55119 9.7134C8.63981 9.31822 8.84812 8.95996 9.14776 8.68747L9.14948 8.68591L9.79983 8.0982C9.84839 8.05475 9.88726 8.00154 9.91388 7.94202C9.94049 7.8825 9.95425 7.81802 9.95425 7.7528C9.95425 7.68758 9.94049 7.6231 9.91388 7.56358C9.88726 7.50406 9.8484 7.45084 9.79984 7.4074L9.79702 7.40488L9.1499 6.82007C8.84799 6.54764 8.63785 6.18841 8.54832 5.79175C8.45879 5.39509 8.49425 4.98043 8.64984 4.60473C8.80544 4.22903 9.07353 3.91071 9.41734 3.69353C9.76111 3.47636 10.1637 3.37098 10.5698 3.39189L11.4404 3.43665C11.5058 3.43989 11.5716 3.42942 11.6327 3.40588C11.6939 3.3823 11.7495 3.34613 11.7959 3.2997C11.8424 3.25327 11.8785 3.19761 11.9021 3.13631C11.9257 3.07511 11.9362 3.00965 11.9329 2.94414L11.8881 2.06753C11.8687 1.66277 11.9746 1.26187 12.1914 0.919537C12.4083 0.577203 12.7255 0.310111 13.0998 0.15475C13.4741 -0.000611693 13.8872 -0.03666 14.2827 0.0515329C14.6783 0.139726 15.0369 0.347854 15.3098 0.647476L15.9031 1.30025C15.9466 1.34883 15.9997 1.3877 16.0592 1.4143C16.1186 1.44089 16.183 1.45464 16.2481 1.45464C16.3132 1.45464 16.3776 1.44089 16.4371 1.4143C16.4965 1.3877 16.5497 1.34885 16.5932 1.30027L16.5973 1.29568L17.1841 0.650157L17.1851 0.648967C17.4574 0.347622 17.8161 0.137813 18.2123 0.0483497Z" fill="black"/>
<path fill-rule="evenodd" clip-rule="evenodd" d="M13.5983 5.09835C14.3016 4.39509 15.2554 4 16.25 4C17.2446 4 18.1984 4.39509 18.9017 5.09835C19.6049 5.80161 20 6.75544 20 7.75C20 8.74456 19.6049 9.69839 18.9017 10.4017C18.1984 11.1049 17.2446 11.5 16.25 11.5C15.2554 11.5 14.3016 11.1049 13.5983 10.4017C12.8951 9.69839 12.5 8.74456 12.5 7.75C12.5 6.75544 12.8951 5.80161 13.5983 5.09835ZM16.25 5.5C15.6533 5.5 15.081 5.73705 14.659 6.15901C14.2371 6.58097 14 7.15326 14 7.75C14 8.34674 14.2371 8.91903 14.659 9.34099C15.081 9.76295 15.6533 10 16.25 10C16.8467 10 17.419 9.76295 17.841 9.34099C18.2629 8.91903 18.5 8.34674 18.5 7.75C18.5 7.15326 18.2629 6.58097 17.841 6.15901C17.419 5.73705 16.8467 5.5 16.25 5.5Z" fill="black"/>
</svg>
