<svg width="24" height="25" viewBox="0 0 24 25" fill="none" xmlns="http://www.w3.org/2000/svg">
<path d="M0 12.0275C0 18.6445 5.383 24.0275 12 24.0275C18.617 24.0275 24 18.6445 24 12.0275C24 5.41053 18.617 0.0275269 12 0.0275269C5.383 0.0275269 0 5.41053 0 12.0275Z" fill="#29D305"/>
<path fill-rule="evenodd" clip-rule="evenodd" d="M11.1871 9.13401C11.2937 9.02729 11.4204 8.94262 11.5598 8.88483C11.6993 8.82696 11.8489 8.79718 12 8.79718C12.1511 8.79718 12.3007 8.82696 12.4402 8.88483C12.5796 8.94262 12.7062 9.02729 12.8129 9.13401L17.05 13.3707C17.3833 13.704 17.3833 14.2443 17.0501 14.5775C16.7168 14.9108 16.1765 14.9108 15.8432 14.5776L12 10.7347L8.15674 14.5776C7.82346 14.9108 7.28314 14.9108 6.9499 14.5775C6.61666 14.2443 6.61669 13.704 6.94996 13.3707L11.1871 9.13401Z" fill="black"/>
</svg>
