<svg width="24" height="24" viewBox="0 0 24 24" fill="none" xmlns="http://www.w3.org/2000/svg">
<path d="M12 24C5.383 24 0 18.617 0 12C0 5.383 5.383 0 12 0C18.617 0 24 5.383 24 12C24 18.617 18.617 24 12 24ZM12 1.5C6.21 1.5 1.5 6.21 1.5 12C1.5 17.79 6.21 22.5 12 22.5C17.79 22.5 22.5 17.79 22.5 12C22.5 6.21 17.79 1.5 12 1.5Z" fill="#29D305"/>
<path fill-rule="evenodd" clip-rule="evenodd" d="M11.1871 9.10648C11.2937 8.99977 11.4204 8.91509 11.5598 8.8573C11.6993 8.79943 11.8489 8.76965 12 8.76965C12.1511 8.76965 12.3007 8.79943 12.4402 8.8573C12.5796 8.91509 12.7063 8.99977 12.8129 9.10648L17.05 13.3432C17.3833 13.6764 17.3833 14.2167 17.0501 14.55C16.7168 14.8833 16.1765 14.8833 15.8433 14.5501L12 10.7072L8.15675 14.5501C7.82348 14.8833 7.28316 14.8833 6.94992 14.55C6.61668 14.2167 6.6167 13.6764 6.94998 13.3432L11.1871 9.10648Z" fill="black"/>
</svg>
