<svg width="24" height="25" viewBox="0 0 24 25" fill="none" xmlns="http://www.w3.org/2000/svg">
<path d="M12 24.0275C5.383 24.0275 0 18.6445 0 12.0275C0 5.41053 5.383 0.0275269 12 0.0275269C18.617 0.0275269 24 5.41053 24 12.0275C24 18.6445 18.617 24.0275 12 24.0275ZM12 1.52753C6.21 1.52753 1.5 6.23753 1.5 12.0275C1.5 17.8175 6.21 22.5275 12 22.5275C17.79 22.5275 22.5 17.8175 22.5 12.0275C22.5 6.23753 17.79 1.52753 12 1.52753Z" fill="#29D305"/>
<path fill-rule="evenodd" clip-rule="evenodd" d="M11.1871 9.13401C11.2937 9.02729 11.4204 8.94262 11.5598 8.88483C11.6993 8.82696 11.8489 8.79718 12 8.79718C12.1511 8.79718 12.3007 8.82696 12.4402 8.88483C12.5796 8.94262 12.7063 9.02729 12.8129 9.13401L17.05 13.3707C17.3833 13.704 17.3833 14.2443 17.0501 14.5775C16.7168 14.9108 16.1765 14.9108 15.8433 14.5776L12 10.7347L8.15675 14.5776C7.82348 14.9108 7.28316 14.9108 6.94992 14.5775C6.61668 14.2443 6.6167 13.704 6.94998 13.3707L11.1871 9.13401Z" fill="black"/>
</svg>
