<svg width="24" height="24" viewBox="0 0 24 24" fill="none" xmlns="http://www.w3.org/2000/svg">
<path fill-rule="evenodd" clip-rule="evenodd" d="M4.5 4.5H1.5V19.5H4.5V4.5ZM1.5 3C0.671573 3 0 3.67157 0 4.5V19.5C0 20.3284 0.671573 21 1.5 21H4.5C5.32843 21 6 20.3284 6 19.5V4.5C6 3.67157 5.32843 3 4.5 3H1.5Z" fill="black"/>
<path fill-rule="evenodd" clip-rule="evenodd" d="M13.5 4.5H10.5V19.5H13.5V4.5ZM10.5 3C9.67157 3 9 3.67157 9 4.5V19.5C9 20.3284 9.67157 21 10.5 21H13.5C14.3284 21 15 20.3284 15 19.5V4.5C15 3.67157 14.3284 3 13.5 3H10.5Z" fill="black"/>
<path fill-rule="evenodd" clip-rule="evenodd" d="M22.5 4.5H19.5V19.5H22.5V4.5ZM19.5 3C18.6716 3 18 3.67157 18 4.5V19.5C18 20.3284 18.6716 21 19.5 21H22.5C23.3284 21 24 20.3284 24 19.5V4.5C24 3.67157 23.3284 3 22.5 3H19.5Z" fill="black"/>
</svg>
