<svg width="24" height="24" viewBox="0 0 24 24" fill="none" xmlns="http://www.w3.org/2000/svg">
<path d="M12 7.50098C9.89995 7.50098 8.19995 5.80098 8.19995 3.70098C8.19995 1.60098 9.89995 0.000976562 12 0.000976562C14.1 0.000976562 15.8 1.70098 15.8 3.80098C15.8 5.90098 14.1 7.50098 12 7.50098ZM12 1.50098C10.8 1.50098 9.79995 2.50098 9.79995 3.70098C9.79995 4.90098 10.8 6.00098 12 6.00098C13.2 6.00098 14.2 5.00098 14.2 3.80098C14.2 2.60098 13.2 1.50098 12 1.50098Z" fill="black"/>
<path d="M13.6 21.001H10.6C10.2 21.001 9.9 20.701 9.9 20.301L9.2 15.001H8.3C7.9 15.001 7.5 14.701 7.5 14.201V12.001C7.5 10.801 8 9.70098 8.8 8.80098C9.7 7.90098 10.8 7.50098 12 7.50098C13.2 7.50098 14.3 8.00098 15.2 8.80098C16.1 9.70098 16.5 10.801 16.5 12.001V14.201C16.5 14.601 16.2 15.001 15.7 15.001H14.9L14.2 20.301C14.3 20.701 14 21.001 13.6 21.001ZM11.3 19.501H13L13.7 14.201C13.7 13.801 14.1 13.501 14.4 13.501H15.1V12.001C15.1 11.201 14.8 10.401 14.2 9.90098C13.1 8.70098 11.1 8.70098 10 9.90098C9.4 10.401 9.1 11.201 9.1 12.001V13.501H9.9C10.3 13.501 10.6 13.801 10.6 14.201L11.3 19.501Z" fill="black"/>
<path d="M4.5 8.76099C2.8 8.76099 1.5 7.46099 1.5 5.76099C1.5 4.06099 2.8 2.76099 4.5 2.76099C6.2 2.76099 7.5 4.06099 7.5 5.76099C7.5 7.46099 6.2 8.76099 4.5 8.76099ZM4.5 4.26099C3.7 4.26099 3 4.96099 3 5.76099C3 6.56099 3.7 7.26099 4.5 7.26099C5.3 7.26099 6 6.56099 6 5.76099C6 4.96099 5.3 4.26099 4.5 4.26099Z" fill="black"/>
<path d="M6 19.501H3C2.6 19.501 2.3 19.1953 2.3 18.8896L1.6 14.9153H0.8C0.3 14.9153 0 14.6095 0 14.2019V13.3867C0 12.6734 0.2 11.96 0.5 11.2467C0.8 10.6353 1.3 10.0238 1.9 9.6162C2.5 9.20858 3.2 8.90287 3.9 8.80096C4.6 8.69906 5.3 8.80096 6 9.00477C6.4 9.10668 6.6 9.6162 6.5 10.0238C6.4 10.4314 5.9 10.6353 5.5 10.5333C5.1 10.3295 4.6 10.3295 4.1 10.4314C3.6 10.5333 3.2 10.7372 2.8 10.941C2.4 11.2467 2.1 11.5524 1.9 12.0619C1.7 12.4695 1.6 12.9791 1.6 13.4886H2.4C2.8 13.4886 3.1 13.7943 3.1 14.1L3.6 17.9724H5.3L5.6 16.3419C5.7 15.9343 6.1 15.6286 6.5 15.7305C6.9 15.8324 7.2 16.24 7.1 16.6476L6.7 18.9915C6.7 19.1953 6.4 19.501 6 19.501Z" fill="black"/>
<path d="M19.5 8.76099C17.8 8.76099 16.5 7.46099 16.5 5.76099C16.5 4.06099 17.8 2.76099 19.5 2.76099C21.2 2.76099 22.5 4.06099 22.5 5.76099C22.5 7.46099 21.2 8.76099 19.5 8.76099ZM19.5 4.26099C18.7 4.26099 18 4.96099 18 5.76099C18 6.56099 18.7 7.26099 19.5 7.26099C20.3 7.26099 21 6.56099 21 5.76099C21 4.96099 20.3 4.26099 19.5 4.26099Z" fill="black"/>
<path d="M20.8999 19.5002H17.8999C17.4999 19.5002 17.1999 19.2002 17.1999 18.9002L16.7999 16.6002C16.6999 16.2002 16.9999 15.8002 17.3999 15.7002C17.7999 15.6002 18.1999 15.9002 18.2999 16.3002L18.5999 17.9002H20.2999L20.8999 14.0002C20.9999 13.6002 21.2999 13.4002 21.5999 13.4002H22.3999C22.3999 12.9002 22.2999 12.5002 22.0999 12.0002C21.8999 11.6002 21.5999 11.2002 21.1999 10.9002C20.7999 10.6002 20.3999 10.4002 19.8999 10.4002C19.3999 10.3002 18.8999 10.4002 18.4999 10.5002C18.0999 10.6002 17.6999 10.4002 17.4999 10.0002C17.3999 9.60022 17.5999 9.20022 17.9999 9.00022C18.6999 8.80022 19.3999 8.70022 20.0999 8.80022C20.7999 8.90022 21.4999 9.20022 22.0999 9.60022C22.6999 10.0002 23.1999 10.6002 23.4999 11.2002C23.7999 11.8002 23.9999 12.5002 23.9999 13.3002V14.1002C23.9999 14.5002 23.6999 14.9002 23.1999 14.9002H22.2999L21.6999 18.8002C21.5999 19.2002 21.2999 19.5002 20.8999 19.5002Z" fill="black"/>
<path d="M12 24.0009C0.3 24.0009 0 21.3009 0 21.0009C0 20.6009 0.3 20.2009 0.8 20.2009C1.2 20.2009 1.5 20.5009 1.5 20.9009C2 21.5009 5.5 22.5009 12 22.5009C18.5 22.5009 22 21.5009 22.5 20.9009C22.5 20.5009 22.9 20.2009 23.2 20.2009C23.6 20.2009 24 20.5009 24 21.0009C24 21.3009 23.7 24.0009 12 24.0009Z" fill="black"/>
</svg>
