<svg width="24" height="24" viewBox="0 0 24 24" fill="none" xmlns="http://www.w3.org/2000/svg">
<g clip-path="url(#clip0_6126_30233)">
<path d="M12.0002 7.5C9.9002 7.5 8.2002 5.8 8.2002 3.7C8.2002 1.6 9.9002 0 12.0002 0C14.1002 0 15.8002 1.7 15.8002 3.8C15.8002 5.9 14.1002 7.5 12.0002 7.5ZM12.0002 1.5C10.8002 1.5 9.8002 2.5 9.8002 3.7C9.8002 4.9 10.8002 6 12.0002 6C13.2002 6 14.2002 5 14.2002 3.8C14.2002 2.6 13.2002 1.5 12.0002 1.5Z" fill="black"/>
<path d="M13.4999 21H10.4999C10.0999 21 9.7999 20.7 9.7999 20.3L9.0999 15H8.1999C7.7999 15 7.3999 14.7 7.3999 14.2V12C7.3999 10.8 7.8999 9.7 8.6999 8.8C9.5999 7.9 10.6999 7.5 11.8999 7.5C13.0999 7.5 14.1999 8 15.0999 8.8C15.9999 9.7 16.3999 10.8 16.3999 12V14.2C16.3999 14.6 16.0999 15 15.5999 15H14.7999L14.0999 20.3C14.1999 20.7 13.8999 21 13.4999 21ZM11.1999 19.5H12.8999L13.5999 14.2C13.5999 13.8 13.9999 13.5 14.2999 13.5H14.9999V12C14.9999 11.2 14.6999 10.4 14.0999 9.9C12.9999 8.7 10.9999 8.7 9.8999 9.9C9.2999 10.4 8.9999 11.2 8.9999 12V13.5H9.7999C10.1999 13.5 10.4999 13.8 10.4999 14.2L11.1999 19.5Z" fill="black"/>
<path d="M4.5 9C2.8 9 1.5 7.7 1.5 6C1.5 4.3 2.8 3 4.5 3C6.2 3 7.5 4.3 7.5 6C7.5 7.7 6.2 9 4.5 9ZM4.5 4.5C3.7 4.5 3 5.2 3 6C3 6.8 3.7 7.5 4.5 7.5C5.3 7.5 6 6.8 6 6C6 5.2 5.3 4.5 4.5 4.5Z" fill="black"/>
<path d="M6 19.4999H3C2.6 19.4999 2.3 19.1999 2.3 18.8999L1.6 14.9999H0.8C0.3 14.9999 0 14.6999 0 14.2999V13.4999C0 12.7999 0.2 12.0999 0.5 11.3999C0.8 10.7999 1.3 10.1999 1.9 9.79992C2.5 9.39992 3.2 9.09992 3.9 8.99992C4.6 8.89992 5.3 8.99992 6 9.19992C6.4 9.29992 6.6 9.79992 6.5 10.1999C6.4 10.5999 5.9 10.7999 5.5 10.6999C5.1 10.4999 4.6 10.4999 4.1 10.5999C3.6 10.6999 3.2 10.8999 2.8 11.0999C2.4 11.3999 2.1 11.6999 1.9 12.1999C1.7 12.5999 1.6 13.0999 1.6 13.5999H2.4C2.8 13.5999 3.1 13.8999 3.1 14.1999L3.6 17.9999H5.3L5.6 16.3999C5.7 15.9999 6.1 15.6999 6.5 15.7999C6.9 15.8999 7.2 16.2999 7.1 16.6999L6.7 18.9999C6.7 19.1999 6.4 19.4999 6 19.4999Z" fill="black"/>
<path d="M19.5 9C17.8 9 16.5 7.7 16.5 6C16.5 4.3 17.8 3 19.5 3C21.2 3 22.5 4.3 22.5 6C22.5 7.7 21.2 9 19.5 9ZM19.5 4.5C18.7 4.5 18 5.2 18 6C18 6.8 18.7 7.5 19.5 7.5C20.3 7.5 21 6.8 21 6C21 5.2 20.3 4.5 19.5 4.5Z" fill="black"/>
<path d="M21.0002 19.5H18.0002C17.6002 19.5 17.3002 19.2 17.3002 18.9L16.9002 16.6C16.8002 16.2 17.1002 15.8 17.5002 15.7C17.9002 15.6 18.3002 15.9 18.4002 16.3L18.7002 17.9H20.4002L21.0002 14C21.1002 13.6 21.4002 13.4 21.7002 13.4H22.5002C22.5002 12.9 22.4002 12.5 22.2002 12C22.0002 11.6 21.7002 11.2 21.3002 10.9C20.9002 10.6 20.5002 10.4 20.0002 10.4C19.5002 10.3 19.0002 10.4 18.6002 10.5C18.2002 10.6 17.8002 10.4 17.6002 9.99997C17.5002 9.59997 17.7002 9.19997 18.1002 8.99997C18.8002 8.79997 19.5002 8.69997 20.2002 8.79997C20.9002 8.89997 21.6002 9.19997 22.2002 9.59997C22.8002 9.99997 23.3002 10.6 23.6002 11.2C23.9002 11.8 24.1002 12.5 24.1002 13.3V14.1C24.1002 14.5 23.8002 14.9 23.3002 14.9H22.4002L21.8002 18.8C21.7002 19.2 21.4002 19.5 21.0002 19.5Z" fill="black"/>
<path d="M12 24C0.3 24 0 21.3 0 21C0 20.6 0.3 20.2 0.8 20.2C1.2 20.2 1.5 20.5 1.5 20.9C2 21.5 5.5 22.5 12 22.5C18.5 22.5 22 21.5 22.5 20.9C22.5 20.5 22.9 20.2 23.2 20.2C23.6 20.2 24 20.5 24 21C24 21.3 23.7 24 12 24Z" fill="black"/>
</g>
<defs>
<clipPath id="clip0_6126_30233">
<rect width="24" height="24" fill="white"/>
</clipPath>
</defs>
</svg>
