<svg width="24" height="24" viewBox="0 0 24 24" fill="none" xmlns="http://www.w3.org/2000/svg">
<g clip-path="url(#clip0_6941_1641)">
<path fill-rule="evenodd" clip-rule="evenodd" d="M10.9492 9.46054C11.2816 9.32061 11.6386 9.24854 11.9993 9.24854C12.36 9.24854 12.717 9.32061 13.0494 9.46054C13.3819 9.60046 13.683 9.8054 13.9351 10.0633C14.1872 10.3213 14.3852 10.627 14.5175 10.9625C14.6477 11.2927 14.7116 11.6453 14.7058 12.0001C14.7116 12.3549 14.6477 12.7074 14.5175 13.0376C14.3852 13.3731 14.1872 13.6789 13.9351 13.9368C13.683 14.1947 13.3819 14.3997 13.0494 14.5396C12.717 14.6795 12.36 14.7516 11.9993 14.7516C11.6386 14.7516 11.2816 14.6795 10.9492 14.5396C10.6168 14.3997 10.3157 14.1947 10.0636 13.9368C9.81146 13.6789 9.61344 13.3731 9.48115 13.0376C9.35095 12.7074 9.28699 12.3549 9.29285 12.0001C9.28699 11.6453 9.35095 11.2927 9.48115 10.9625C9.61344 10.627 9.81146 10.3213 10.0636 10.0633C10.3157 9.8054 10.6168 9.60046 10.9492 9.46054ZM11.9993 10.7485C11.8385 10.7485 11.6793 10.7807 11.5311 10.8431C11.3829 10.9054 11.2487 10.9968 11.1363 11.1118C11.0239 11.2268 10.9356 11.3631 10.8766 11.5127C10.8176 11.6623 10.7891 11.8222 10.7928 11.9829C10.7931 11.9943 10.7931 12.0058 10.7928 12.0172C10.7891 12.1779 10.8176 12.3378 10.8766 12.4874C10.9356 12.637 11.0239 12.7733 11.1363 12.8883C11.2487 13.0033 11.3829 13.0947 11.5311 13.1571C11.6793 13.2194 11.8385 13.2516 11.9993 13.2516C12.1601 13.2516 12.3193 13.2194 12.4675 13.1571C12.6157 13.0947 12.75 13.0033 12.8624 12.8883C12.9748 12.7733 13.063 12.637 13.122 12.4874C13.181 12.3378 13.2095 12.1779 13.2058 12.0172C13.2056 12.0058 13.2056 11.9943 13.2058 11.9829C13.2095 11.8222 13.181 11.6623 13.122 11.5127C13.063 11.3631 12.9748 11.2268 12.8624 11.1118C12.75 10.9968 12.6157 10.9054 12.4675 10.8431C12.3193 10.7807 12.1601 10.7485 11.9993 10.7485Z" fill="black"/>
<path fill-rule="evenodd" clip-rule="evenodd" d="M12.75 0.25V3C12.75 3.41421 12.4142 3.75 12 3.75C11.5858 3.75 11.25 3.41421 11.25 3V0.25H12.75Z" fill="black"/>
<path fill-rule="evenodd" clip-rule="evenodd" d="M0.25 11.25L3 11.25C3.41421 11.25 3.75 11.5858 3.75 12C3.75 12.4142 3.41421 12.75 3 12.75L0.25 12.75L0.25 11.25Z" fill="black"/>
<path fill-rule="evenodd" clip-rule="evenodd" d="M23.75 11.25L21 11.25C20.5858 11.25 20.25 11.5858 20.25 12C20.25 12.4142 20.5858 12.75 21 12.75L23.75 12.75L23.75 11.25Z" fill="black"/>
<path fill-rule="evenodd" clip-rule="evenodd" d="M11.25 23.75L11.25 21C11.25 20.5858 11.5858 20.25 12 20.25C12.4142 20.25 12.75 20.5858 12.75 21L12.75 23.75L11.25 23.75Z" fill="black"/>
<path fill-rule="evenodd" clip-rule="evenodd" d="M16.9929 4.84645C17.2933 4.7537 17.6133 4.74465 17.9184 4.82028C18.2235 4.8959 18.5023 5.05334 18.7246 5.27562C18.9468 5.49791 19.1043 5.77663 19.1799 6.08176C19.2555 6.38688 19.2465 6.70686 19.1537 7.00723C19.1514 7.01487 19.1489 7.02247 19.1463 7.03003L16.3336 15.2022C16.238 15.4642 16.0862 15.702 15.889 15.8992C15.6918 16.0964 15.4539 16.2481 15.192 16.3437L15.1784 16.3485L7.02951 19.1465C7.02212 19.149 7.0147 19.1514 7.00723 19.1537C6.70686 19.2465 6.38688 19.2555 6.08176 19.1799C5.77663 19.1043 5.49791 18.9468 5.27562 18.7246C5.05334 18.5023 4.8959 18.2235 4.82028 17.9184C4.74465 17.6133 4.7537 17.2933 4.84645 16.9929C4.84875 16.9855 4.85117 16.9781 4.85371 16.9707L7.65468 8.813C7.74999 8.54624 7.90338 8.30399 8.10368 8.10368C8.30399 7.90338 8.54626 7.75004 8.81302 7.65474L8.82177 7.65161L16.9707 4.85371C16.9781 4.85117 16.9855 4.84875 16.9929 4.84645ZM17.4428 6.27755L9.31442 9.06847C9.25804 9.08915 9.20682 9.12186 9.16434 9.16434C9.12186 9.20682 9.08915 9.25804 9.06847 9.31442L6.27755 17.4428C6.26734 17.4803 6.26686 17.5198 6.27622 17.5576C6.2862 17.5978 6.30697 17.6346 6.33628 17.6639C6.3656 17.6932 6.40236 17.714 6.44261 17.724C6.48038 17.7333 6.51988 17.7328 6.55734 17.7226L14.6827 14.9327C14.7373 14.912 14.787 14.8799 14.8283 14.8385C14.8697 14.7971 14.9019 14.7474 14.9226 14.6927L17.7227 6.55717C17.7328 6.51976 17.7333 6.48032 17.724 6.44261C17.714 6.40236 17.6932 6.3656 17.6639 6.33628C17.6346 6.30697 17.5978 6.2862 17.5576 6.27622C17.5198 6.26686 17.4803 6.26734 17.4428 6.27755Z" fill="black"/>
<path fill-rule="evenodd" clip-rule="evenodd" d="M3.51472 3.51472C5.76515 1.26428 8.8174 0 12 0C15.1826 0 18.2348 1.26428 20.4853 3.51472C22.7357 5.76515 24 8.8174 24 12C24 13.5759 23.6896 15.1363 23.0866 16.5922C22.4835 18.0481 21.5996 19.371 20.4853 20.4853C19.371 21.5996 18.0481 22.4835 16.5922 23.0866C15.1363 23.6896 13.5759 24 12 24C10.4241 24 8.86371 23.6896 7.4078 23.0866C5.95189 22.4835 4.62902 21.5996 3.51472 20.4853C2.40042 19.371 1.5165 18.0481 0.913446 16.5922C0.310389 15.1363 0 13.5759 0 12C0 8.8174 1.26428 5.76515 3.51472 3.51472ZM12 1.53192C9.22369 1.53192 6.56109 2.6348 4.59795 4.59795C2.6348 6.56109 1.53192 9.22369 1.53192 12C1.53192 13.3747 1.80268 14.7359 2.32875 16.006C2.85482 17.276 3.62589 18.43 4.59795 19.4021C5.57 20.3741 6.72399 21.1452 7.99404 21.6712C9.26408 22.1973 10.6253 22.4681 12 22.4681C13.3747 22.4681 14.7359 22.1973 16.006 21.6712C17.276 21.1452 18.43 20.3741 19.4021 19.4021C20.3741 18.43 21.1452 17.276 21.6712 16.006C22.1973 14.7359 22.4681 13.3747 22.4681 12C22.4681 9.22369 21.3652 6.56109 19.4021 4.59795C17.4389 2.6348 14.7763 1.53192 12 1.53192Z" fill="black"/>
</g>
<defs>
<clipPath id="clip0_6941_1641">
<rect width="24" height="24" fill="white"/>
</clipPath>
</defs>
</svg>
