<svg width="24" height="24" viewBox="0 0 24 24" fill="none" xmlns="http://www.w3.org/2000/svg">
<path d="M14.25 7.5H3.75C3.34 7.5 3 7.16 3 6.75C3 6.34 3.34 6 3.75 6H14.25C14.66 6 15 6.34 15 6.75C15 7.16 14.66 7.5 14.25 7.5Z" fill="black"/>
<path d="M10.25 12H3.75C3.34 12 3 11.66 3 11.25C3 10.84 3.34 10.5 3.75 10.5L10.25 10.5C10.66 10.5 11 10.84 11 11.25C11 11.66 10.66 12 10.25 12Z" fill="black"/>
<path d="M7.5 16.5H3.75C3.34 16.5 3 16.16 3 15.75C3 15.34 3.34 15 3.75 15H7.5C7.91 15 8.25 15.34 8.25 15.75C8.25 16.16 7.91 16.5 7.5 16.5Z" fill="black"/>
<path d="M7.5 21H2.25C1.01 21 0 19.99 0 18.75V2.25C0 1.01 1.01 0 2.25 0H12.88C13.47 0 14.05 0.24 14.47 0.66L17.34 3.53C17.76 3.95 18 4.52 18 5.12V7.5C18 7.91 17.66 8.25 17.25 8.25C16.84 8.25 16.5 7.91 16.5 7.5V5.12C16.5 4.92 16.42 4.73 16.28 4.59L13.41 1.72C13.27 1.58 13.08 1.5 12.88 1.5H2.25C1.84 1.5 1.5 1.84 1.5 2.25V18.75C1.5 19.16 1.84 19.5 2.25 19.5H7.5C7.91 19.5 8.25 19.84 8.25 20.25C8.25 20.66 7.91 21 7.5 21Z" fill="black"/>
<g clip-path="url(#clip0_6785_29586)">
<path fill-rule="evenodd" clip-rule="evenodd" d="M21.134 8.50007C21.5189 8.49727 21.8991 8.57671 22.252 8.73215C22.6047 8.88751 22.9215 9.11492 23.1857 9.39826L23.1877 9.4004C23.4507 9.68468 23.6561 10.0193 23.7946 10.3836C23.933 10.7479 24.0024 11.1364 24 11.5271C23.9975 11.9179 23.9232 12.3054 23.7801 12.6678C23.6376 13.0288 23.429 13.3594 23.1638 13.6393L14.789 22.6584C14.6944 22.7603 14.5732 22.834 14.4391 22.871L10.4497 23.9729C10.1941 24.0435 9.92013 23.9739 9.72927 23.7897C9.53841 23.6056 9.45899 23.3343 9.5204 23.0763L10.5014 18.9551C10.5077 18.8481 10.5369 18.7423 10.5889 18.6454C10.6222 18.5715 10.6674 18.5032 10.7231 18.4433L19.0979 9.42413C19.3577 9.13873 19.6703 8.90808 20.0194 8.74832C20.3701 8.58786 20.7491 8.50288 21.134 8.50007ZM11.6782 20.4888L11.2735 22.1892L12.923 21.7336L11.6782 20.4888ZM14.2958 20.9851L12.2808 18.9701L18.9631 11.7737L20.9781 13.7887L14.2958 20.9851ZM21.9995 12.6888L22.0734 12.6092C22.2039 12.4719 22.3107 12.3051 22.3849 12.1171C22.4592 11.929 22.4987 11.7251 22.5 11.5177C22.5013 11.3103 22.4643 11.1058 22.3924 10.9164C22.3207 10.7276 22.2162 10.5594 22.0877 10.4202C21.9585 10.282 21.8083 10.1758 21.6473 10.1049C21.486 10.0339 21.3155 9.99879 21.1449 10C20.9744 10.0013 20.8041 10.0388 20.6436 10.1123C20.4828 10.1859 20.3334 10.2947 20.2055 10.4356L20.1998 10.4419L19.9844 10.6738L21.9995 12.6888Z" fill="black"/>
</g>
<defs>
<clipPath id="clip0_6785_29586">
<rect width="24" height="24" fill="white"/>
</clipPath>
</defs>
</svg>
