<svg width="24" height="24" fill="none" xmlns="http://www.w3.org/2000/svg"><g clip-path="url(#clip0)" fill="#000"><path d="M11.977 23.977A11.952 11.952 0 01.006 12.475 11.91 11.91 0 013.17 3.863 11.912 11.912 0 0111.497.01l.038-.001c.242 0 .47.122.61.325a.746.746 0 01.071.72 2.971 2.971 0 00-.244 1.188c.001.8.313 1.553.88 2.118a2.978 2.978 0 002.117.876 2.978 2.978 0 001.798-.614.757.757 0 01.788-.078.746.746 0 01.419.673v.025a3 3 0 002.996 2.994c.473-.002.946-.12 1.365-.342a.752.752 0 011.065.436c.329 1.026.518 2.094.562 3.172.13 3.2-.994 6.258-3.165 8.612a11.91 11.91 0 01-8.82 3.862zM10.518 1.603A10.455 10.455 0 004.273 4.88a10.424 10.424 0 00-2.769 7.535 10.456 10.456 0 0010.905 10.053 10.423 10.423 0 007.286-3.37 10.419 10.419 0 002.768-7.535 10.524 10.524 0 00-.275-2c-.394.114-.8.173-1.211.175h-.005c-2.032 0-3.818-1.4-4.341-3.325a4.476 4.476 0 01-4.838-.989 4.47 4.47 0 01-1.275-3.821z"/><path d="M7.473 13.488c-1.654 0-3-1.346-3-3s1.346-3 3-3 3 1.346 3 3-1.346 3-3 3zm0-4.5c-.827 0-1.5.673-1.5 1.5s.673 1.5 1.5 1.5 1.5-.673 1.5-1.5-.673-1.5-1.5-1.5zM14.223 19.488a2.252 2.252 0 01-2.25-2.25 2.252 2.252 0 012.25-2.25 2.252 2.252 0 012.25 2.25 2.252 2.252 0 01-2.25 2.25zm0-3a.75.75 0 100 1.5.75.75 0 000-1.5zM7.1 17.988a1.125 1.125 0 100-2.25 1.125 1.125 0 000 2.25zM13.096 11.239c-.236 0-.463-.073-.656-.212a1.118 1.118 0 01-.453-.733 1.113 1.113 0 01.196-.836 1.116 1.116 0 01.915-.47 1.12 1.12 0 011.11.946 1.122 1.122 0 01-1.112 1.305zM19.097 14.238c-.236 0-.463-.073-.656-.212a1.126 1.126 0 111.768-1.094 1.126 1.126 0 01-1.112 1.306z"/></g><defs><clipPath id="clip0"><path fill="#fff" d="M0 0h24v24H0z"/></clipPath></defs></svg>