<svg width="24" height="24" viewBox="0 0 24 24" fill="none" xmlns="http://www.w3.org/2000/svg">
<path fill-rule="evenodd" clip-rule="evenodd" d="M0.0101368 12.465C0.271137 18.915 5.53014 23.967 11.9811 23.967C12.1451 23.967 12.3101 23.964 12.4741 23.957C15.6731 23.827 18.6311 22.459 20.8011 20.105C22.9721 17.751 24.0961 14.693 23.9661 11.493C23.9221 10.415 23.7331 9.347 23.4041 8.321C23.3371 8.11 23.1801 7.94 22.9721 7.854C22.8811 7.818 22.7861 7.799 22.6891 7.799C22.5681 7.799 22.4471 7.828 22.3391 7.885C21.9201 8.107 21.4471 8.225 20.9741 8.227C19.3231 8.227 17.9791 6.884 17.9781 5.233V5.208C17.9781 4.92 17.8171 4.662 17.5591 4.535C17.4571 4.485 17.3421 4.458 17.2281 4.458C17.0641 4.458 16.9021 4.513 16.7711 4.613C16.2591 5.007 15.6211 5.225 14.9731 5.227C14.1741 5.227 13.4221 4.916 12.8561 4.351C12.2891 3.786 11.9771 3.033 11.9761 2.233C11.9751 1.822 12.0581 1.423 12.2201 1.046C12.3221 0.808 12.2961 0.539 12.1491 0.325C12.0091 0.122 11.7811 0 11.5391 0L11.5201 0.0005L11.5011 0.001C8.30214 0.131 5.34514 1.499 3.17414 3.853C1.00414 6.207 -0.119863 9.266 0.0101368 12.465ZM4.27714 4.87C5.92814 3.079 8.13014 1.928 10.5221 1.593C10.4921 1.805 10.4771 2.019 10.4771 2.235C10.4781 3.436 10.9471 4.565 11.7971 5.414C12.6471 6.261 13.7751 6.728 14.9801 6.728C15.5451 6.726 16.1091 6.615 16.6351 6.403C17.1581 8.329 18.9441 9.728 20.9761 9.728H20.9811C21.3921 9.726 21.7981 9.667 22.1921 9.554C22.3471 10.209 22.4401 10.88 22.4671 11.553C22.5811 14.352 21.5981 17.028 19.6991 19.088C17.7991 21.148 15.2121 22.344 12.4131 22.458C12.2681 22.464 12.1241 22.467 11.9801 22.467C6.33714 22.467 1.73714 18.048 1.50814 12.405C1.39514 9.606 2.37814 6.93 4.27714 4.87ZM4.47714 10.478C4.47714 12.132 5.82314 13.478 7.47714 13.478C9.13114 13.478 10.4771 12.132 10.4771 10.478C10.4771 8.824 9.13114 7.478 7.47714 7.478C5.82314 7.478 4.47714 8.824 4.47714 10.478ZM5.97714 10.478C5.97714 9.651 6.65014 8.978 7.47714 8.978C8.30414 8.978 8.97714 9.651 8.97714 10.478C8.97714 11.305 8.30414 11.978 7.47714 11.978C6.65014 11.978 5.97714 11.305 5.97714 10.478ZM14.2271 19.478C12.9861 19.478 11.9771 18.469 11.9771 17.228C11.9771 15.987 12.9861 14.978 14.2271 14.978C15.4681 14.978 16.4771 15.987 16.4771 17.228C16.4771 18.469 15.4681 19.478 14.2271 19.478ZM14.2271 16.478C13.8131 16.478 13.4771 16.814 13.4771 17.228C13.4771 17.642 13.8131 17.978 14.2271 17.978C14.6411 17.978 14.9771 17.642 14.9771 17.228C14.9771 16.814 14.6411 16.478 14.2271 16.478ZM8.22914 16.853C8.22914 17.4743 7.72546 17.978 7.10414 17.978C6.48282 17.978 5.97914 17.4743 5.97914 16.853C5.97914 16.2317 6.48282 15.728 7.10414 15.728C7.72546 15.728 8.22914 16.2317 8.22914 16.853ZM13.1001 11.229C12.8641 11.229 12.6371 11.156 12.4441 11.017C12.2001 10.841 12.0391 10.581 11.9911 10.284C11.9421 9.98897 12.0121 9.69197 12.1871 9.44797C12.3621 9.20397 12.6211 9.04297 12.9171 8.99397C12.9811 8.98397 13.0421 8.97897 13.1021 8.97897C13.6561 8.97897 14.1231 9.37597 14.2121 9.92397C14.2601 10.22 14.1901 10.518 14.0151 10.762C13.8391 11.006 13.5791 11.167 13.2821 11.215C13.2221 11.224 13.1611 11.229 13.1001 11.229ZM18.4451 14.016C18.6381 14.155 18.8651 14.228 19.1011 14.228C19.1611 14.228 19.2221 14.224 19.2841 14.213C19.8961 14.113 20.3131 13.534 20.2131 12.922C20.1241 12.375 19.6571 11.978 19.1031 11.978C19.0441 11.978 18.9841 11.983 18.9211 11.993C18.3091 12.093 17.8931 12.672 17.9921 13.283C18.0401 13.58 18.2011 13.84 18.4451 14.016Z" fill="black"/>
</svg>
