<svg width="25" height="24" viewBox="0 0 25 24" fill="none" xmlns="http://www.w3.org/2000/svg">
<path fill-rule="evenodd" clip-rule="evenodd" d="M1.00599 12.4749C1.26699 18.9249 6.52599 23.9769 12.977 23.9769C13.141 23.9769 13.306 23.9739 13.47 23.9669C16.669 23.8369 19.627 22.4689 21.797 20.1149C23.968 17.7609 25.092 14.7029 24.962 11.5029C24.918 10.4249 24.729 9.35689 24.4 8.33089C24.333 8.11989 24.176 7.94989 23.968 7.86389C23.877 7.82789 23.782 7.80889 23.685 7.80889C23.564 7.80889 23.443 7.83789 23.335 7.89489C22.916 8.11689 22.443 8.23489 21.97 8.23689C20.319 8.23689 18.975 6.89389 18.974 5.24289V5.21789C18.974 4.92989 18.813 4.67189 18.555 4.54489C18.453 4.49489 18.338 4.46789 18.224 4.46789C18.06 4.46789 17.898 4.52289 17.767 4.62289C17.255 5.01689 16.617 5.23489 15.969 5.23689C15.17 5.23689 14.418 4.92589 13.852 4.36089C13.285 3.79589 12.973 3.04289 12.972 2.24289C12.971 1.83189 13.054 1.43289 13.216 1.05589C13.318 0.817888 13.292 0.548888 13.145 0.334888C13.005 0.131888 12.777 0.0098877 12.535 0.0098877L12.516 0.0103877L12.497 0.0108877C9.29799 0.140888 6.34099 1.50889 4.16999 3.86289C1.99999 6.21689 0.875994 9.27589 1.00599 12.4749ZM5.27299 4.87989C6.92399 3.08889 9.12599 1.93789 11.518 1.60289C11.488 1.81489 11.473 2.02889 11.473 2.24489C11.474 3.44589 11.943 4.57489 12.793 5.42389C13.643 6.27089 14.771 6.73789 15.976 6.73789C16.541 6.73589 17.105 6.62489 17.631 6.41289C18.154 8.33889 19.94 9.73789 21.972 9.73789H21.977C22.388 9.73589 22.794 9.67689 23.188 9.56389C23.343 10.2189 23.436 10.8899 23.463 11.5629C23.577 14.3619 22.594 17.0379 20.695 19.0979C18.795 21.1579 16.208 22.3539 13.409 22.4679C13.264 22.4739 13.12 22.4769 12.976 22.4769C7.33299 22.4769 2.73299 18.0579 2.50399 12.4149C2.39099 9.61589 3.37399 6.93989 5.27299 4.87989ZM5.473 10.4879C5.473 12.1419 6.819 13.4879 8.473 13.4879C10.127 13.4879 11.473 12.1419 11.473 10.4879C11.473 8.83388 10.127 7.48788 8.473 7.48788C6.819 7.48788 5.473 8.83388 5.473 10.4879ZM6.973 10.4879C6.973 9.66088 7.646 8.98788 8.473 8.98788C9.3 8.98788 9.97299 9.66088 9.97299 10.4879C9.97299 11.3149 9.3 11.9879 8.473 11.9879C7.646 11.9879 6.973 11.3149 6.973 10.4879ZM15.223 19.4879C13.982 19.4879 12.973 18.4789 12.973 17.2379C12.973 15.9969 13.982 14.9879 15.223 14.9879C16.464 14.9879 17.473 15.9969 17.473 17.2379C17.473 18.4789 16.464 19.4879 15.223 19.4879ZM15.223 16.4879C14.809 16.4879 14.473 16.8239 14.473 17.2379C14.473 17.6519 14.809 17.9879 15.223 17.9879C15.637 17.9879 15.973 17.6519 15.973 17.2379C15.973 16.8239 15.637 16.4879 15.223 16.4879ZM9.225 16.8629C9.225 17.4842 8.72132 17.9879 8.09999 17.9879C7.47867 17.9879 6.97499 17.4842 6.97499 16.8629C6.97499 16.2416 7.47867 15.7379 8.09999 15.7379C8.72132 15.7379 9.225 16.2416 9.225 16.8629ZM14.096 11.2389C13.86 11.2389 13.633 11.1659 13.44 11.0269C13.196 10.8509 13.035 10.5909 12.987 10.2939C12.938 9.99886 13.008 9.70186 13.183 9.45786C13.358 9.21386 13.617 9.05286 13.913 9.00386C13.977 8.99386 14.038 8.98886 14.098 8.98886C14.652 8.98886 15.119 9.38586 15.208 9.93386C15.256 10.2299 15.186 10.5279 15.011 10.7719C14.835 11.0159 14.575 11.1769 14.278 11.2249C14.218 11.2339 14.157 11.2389 14.096 11.2389ZM19.441 14.0259C19.634 14.1649 19.861 14.2379 20.097 14.2379C20.157 14.2379 20.218 14.2339 20.28 14.2229C20.892 14.1229 21.309 13.5439 21.209 12.9319C21.12 12.3849 20.653 11.9879 20.099 11.9879C20.04 11.9879 19.98 11.9929 19.917 12.0029C19.305 12.1029 18.889 12.6819 18.988 13.2929C19.036 13.5899 19.197 13.8499 19.441 14.0259Z" fill="black"/>
</svg>
