<svg width="24" height="24" viewBox="0 0 24 24" fill="none" xmlns="http://www.w3.org/2000/svg">
<path d="M5.31986 13.6556C5.31986 13.2118 5.65954 12.852 6.07856 12.852C6.49757 12.852 6.83725 13.2118 6.83725 13.6556V23.0957C6.83725 23.5396 6.49757 23.8994 6.07856 23.8994C5.65954 23.8994 5.31986 23.5396 5.31986 23.0957L5.31986 13.6556Z" fill="#29D305"/>
<path d="M17.1068 20.023C17.1068 19.5792 17.4465 19.2194 17.8655 19.2194C18.2845 19.2194 18.6242 19.5792 18.6242 20.023V22.7155C18.6242 23.1594 18.2845 23.5192 17.8655 23.5192C17.4465 23.5192 17.1068 23.1594 17.1068 22.7155L17.1068 20.023Z" fill="#29D305"/>
<path fill-rule="evenodd" clip-rule="evenodd" d="M4.37863 0.453918C3.94472 0.453918 3.52851 0.626835 3.22159 0.934738C2.91465 1.24265 2.74216 1.66034 2.74216 2.09593V22.5342H1.73766C1.314 22.5342 0.970001 22.8788 0.970001 23.3046C0.970001 23.7304 1.314 24 1.73766 24H22.255C22.6787 24 23.0227 23.7304 23.0227 23.3046C23.0227 22.8788 22.6787 22.5342 22.255 22.5342H21.2773L21.2773 9.03512C21.2773 8.59953 21.1048 8.18184 20.7978 7.87393C20.4909 7.56603 20.0747 7.39311 19.6408 7.39311H16.1655C15.7316 7.39311 15.3154 7.56603 15.0085 7.87393C14.7016 8.18184 14.5291 8.59953 14.5291 9.03512L14.5291 22.5342H9.49036V2.09593C9.49036 1.66034 9.31787 1.24265 9.01093 0.934738C8.70401 0.626835 8.2878 0.453918 7.85389 0.453918H4.37863ZM4.27747 1.99477H7.95505V22.5341H4.27747V1.99477ZM19.742 8.93396L19.742 22.5342H16.0644L16.0644 8.93396L19.742 8.93396Z" fill="black"/>
<path fill-rule="evenodd" clip-rule="evenodd" d="M18.2777 6.0408L19.8858 4.52271C20.1056 4.3152 20.1056 3.97813 19.8858 3.77063C19.6668 3.5639 19.3124 3.5639 19.0934 3.77063L18.4433 4.3843L18.4433 0.606097C18.4433 0.311631 18.191 0.0750122 17.8823 0.0750122C17.5736 0.0750122 17.3212 0.311631 17.3212 0.606098V4.3843L16.6712 3.77063C16.4522 3.5639 16.0977 3.5639 15.8788 3.77063C15.659 3.97813 15.659 4.3152 15.8788 4.52271L17.4847 6.03877L17.4873 6.04122C17.5789 6.12692 17.7014 6.18292 17.8363 6.19336L17.8819 6.19507L17.941 6.19224C18.0353 6.18281 18.1195 6.1456 18.1816 6.10899C18.2126 6.09076 18.2372 6.07316 18.2539 6.06031C18.2623 6.0539 18.2685 6.04872 18.2726 6.04528L18.2769 6.04153L18.2777 6.0408Z" fill="black"/>
</svg>
