<svg width="24" height="24" fill="none" xmlns="http://www.w3.org/2000/svg"><path d="M5.32 13.656c0-.444.34-.804.759-.804s.758.36.758.804v9.44c0 .444-.34.803-.758.803-.42 0-.76-.36-.76-.803v-9.44zM17.107 20.023c0-.444.34-.804.759-.804s.758.36.758.804v2.692c0 .444-.34.804-.758.804-.42 0-.76-.36-.76-.803v-2.693z" fill="#29D305"/><path fill-rule="evenodd" clip-rule="evenodd" d="M4.379.454c-.434 0-.85.173-1.157.48-.307.309-.48.726-.48 1.162v20.438H1.738a.769.769 0 00-.768.77c0 .426.344.696.768.696h20.517c.424 0 .768-.27.768-.695a.769.769 0 00-.768-.77h-.978v-13.5c0-.435-.172-.853-.48-1.161a1.634 1.634 0 00-1.156-.48h-3.475c-.434 0-.85.172-1.158.48-.306.308-.479.726-.479 1.161v13.5H9.49V2.094c0-.435-.172-.852-.48-1.16A1.634 1.634 0 007.855.454H4.379zm-.102 1.54h3.678v20.54H4.277V1.994zm15.465 6.94v13.6h-3.678v-13.6h3.678z" fill="#000"/><path fill-rule="evenodd" clip-rule="evenodd" d="M18.278 6.04l1.608-1.517a.511.511 0 000-.752.584.584 0 00-.793 0l-.65.613V.606c0-.294-.252-.531-.56-.531-.31 0-.562.237-.562.531v3.778l-.65-.613a.584.584 0 00-.792 0 .511.511 0 000 .752l1.606 1.516.002.002a.576.576 0 00.35.152l.045.002.059-.003a.601.601 0 00.313-.132.493.493 0 00.019-.015l.004-.003V6.04z" fill="#000"/></svg>