<svg width="24" height="24" fill="none" xmlns="http://www.w3.org/2000/svg"><path fill-rule="evenodd" clip-rule="evenodd" d="M2.25 4.5a.75.75 0 00-.75.75v13.5c0 .414.336.75.75.75h19.5a.75.75 0 00.75-.75V5.25a.75.75 0 00-.75-.75H2.25zM0 5.25A2.25 2.25 0 012.25 3h19.5A2.25 2.25 0 0124 5.25v13.5A2.25 2.25 0 0121.75 21H2.25A2.25 2.25 0 010 18.75V5.25z" fill="#000"/><path fill-rule="evenodd" clip-rule="evenodd" d="M0 8.25a.75.75 0 01.75-.75h22.5a.75.75 0 010 1.5H.75A.75.75 0 010 8.25zM4.5 12.75a.75.75 0 01.75-.75h8.25a.75.75 0 010 1.5H5.25a.75.75 0 01-.75-.75zM4.5 15.75a.75.75 0 01.75-.75h5.25a.75.75 0 010 1.5H5.25a.75.75 0 01-.75-.75z" fill="#000"/></svg>