<svg width="24" height="24" fill="none" xmlns="http://www.w3.org/2000/svg"><path d="M.75 4.18h1.185L7.15 8.09v13.86a.71.71 0 101.42 0V8.09l5.215-3.91h1.185a.71.71 0 100-1.42h-.71v-.71a.71.71 0 10-1.42 0v.71h-1.42v-.71a.71.71 0 10-1.42 0v.71H5.735v-.71a.71.71 0 00-.71-.71c-.39 0-.72.315-.72.71v.71h-1.42v-.71a.71.71 0 00-.71-.71.714.714 0 00-.715.71v.71H.75a.71.71 0 100 1.42zm10.665 0L7.86 6.845 4.305 4.18h7.11z" fill="#000"/><path d="M15.6 9.71l.355-.615a.71.71 0 00-1.23-.71L14.37 9l-.615-.355a.71.71 0 00-.71 1.23l.975.565 1.41 5.26-3.405 5.9a.71.71 0 001.23.71l3.405-5.9L21.92 15l.975.565a.7.7 0 00.355.095.71.71 0 00.355-1.325l-.615-.355.355-.615a.71.71 0 00-1.23-.71l-.355.615-6.16-3.56zm1.095 5.215l-.935-3.48 4.415 2.55-3.48.93z" fill="#29D305"/></svg>