<svg width="24" height="24" viewBox="0 0 24 24" fill="none" xmlns="http://www.w3.org/2000/svg">
<path fill-rule="evenodd" clip-rule="evenodd" d="M1.93501 4.17997H0.750009C0.355009 4.17997 0.0400085 3.85997 0.0400085 3.46997C0.0400085 3.07997 0.355009 2.75997 0.750009 2.75997H1.46001V2.04997C1.46001 1.65497 1.78501 1.33997 2.17501 1.33997C2.56501 1.33997 2.88501 1.65497 2.88501 2.04997V2.75997H4.30501V2.04997C4.30501 1.65497 4.63501 1.33997 5.02501 1.33997C5.41501 1.33997 5.73501 1.65497 5.73501 2.04997V2.75997H10V2.04997C10 1.65997 10.32 1.33997 10.71 1.33997C11.1 1.33997 11.42 1.65497 11.42 2.04997V2.75997H12.84V2.04997C12.84 1.65997 13.16 1.33997 13.55 1.33997C13.94 1.33997 14.26 1.65497 14.26 2.04997V2.75997H14.97C15.36 2.75997 15.68 3.07997 15.68 3.46997C15.68 3.85997 15.365 4.17997 14.97 4.17997H13.785L8.57001 8.08997V21.95C8.57001 22.34 8.25501 22.66 7.86001 22.66C7.47001 22.66 7.15001 22.345 7.15001 21.95V8.08997L1.93501 4.17997ZM7.86001 6.84497L11.415 4.17997H4.30501L7.86001 6.84497ZM15.955 9.09498L15.6 9.70998L21.76 13.27L22.115 12.655C22.31 12.315 22.745 12.2 23.085 12.395C23.425 12.59 23.54 13.025 23.345 13.365L22.99 13.98L23.605 14.335C23.945 14.53 24.06 14.965 23.865 15.305C23.735 15.535 23.495 15.66 23.25 15.66C23.13 15.66 23.005 15.63 22.895 15.565L21.92 15L16.66 16.41L13.255 22.31C13.125 22.54 12.885 22.665 12.64 22.665C12.52 22.665 12.395 22.635 12.285 22.57C11.945 22.375 11.83 21.94 12.025 21.6L15.43 15.7L14.02 10.44L13.045 9.87498C12.705 9.67998 12.59 9.24498 12.785 8.90498C12.98 8.56498 13.415 8.44998 13.755 8.64498L14.37 8.99998L14.725 8.38498C14.92 8.04498 15.355 7.92998 15.695 8.12498C16.035 8.31998 16.15 8.75498 15.955 9.09498ZM15.76 11.445L16.695 14.925L20.175 13.995L15.76 11.445Z" fill="black"/>
</svg>
