<svg width="24" height="24" fill="none" xmlns="http://www.w3.org/2000/svg"><path d="M15.75 4.5a.75.75 0 01-.75-.75V1.5H.75a.75.75 0 010-1.5h15a.75.75 0 01.75.75V3h6.75a.75.75 0 010 1.5h-7.5z" fill="#000"/><path d="M13.5 11.25a.744.744 0 01-.728-.569l-.675-2.698-3.484-2.09a.747.747 0 01-.361-.703.748.748 0 01.469-.637l3.75-1.5a.747.747 0 01.969.992.745.745 0 01-.411.401l-2.346.938 2.453 1.472a.744.744 0 01.342.461l.523 2.093 2.164-1.082a.754.754 0 01.615-.025l2.464.986-.479-2.393a.748.748 0 111.471-.293l.75 3.75a.75.75 0 01-1.014.843l-3.437-1.375-2.699 1.349a.742.742 0 01-.336.08z" fill="#29D305"/><path d="M5.25 18a3.754 3.754 0 01-3.75-3.75 3.754 3.754 0 013.75-3.75A3.754 3.754 0 019 14.25 3.754 3.754 0 015.25 18zm0-6A2.252 2.252 0 003 14.25a2.252 2.252 0 002.25 2.25 2.252 2.252 0 002.25-2.25A2.252 2.252 0 005.25 12z" fill="#000"/><path d="M7.5 24a.75.75 0 01-.75-.75v-.75c0-.392.306-.72.697-.748 3.538-.252 6.619-2.666 8.242-6.456a.762.762 0 00-.351-1.02.749.749 0 00-.998.361l-.02.047a8.58 8.58 0 01-7.322 5.226l-4.698.338a.818.818 0 01-.054.002H.75a.75.75 0 010-1.5h1.469l4.673-.336A7.072 7.072 0 0012.982 14a2.26 2.26 0 012.04-1.296c.33 0 .65.071.951.212.543.254.956.706 1.161 1.271a2.232 2.232 0 01-.077 1.72c-1.725 4.029-5.002 6.726-8.807 7.265v.076A.75.75 0 017.5 24z" fill="#000"/></svg>