<svg width="24" height="25" viewBox="0 0 24 25" fill="none" xmlns="http://www.w3.org/2000/svg">
<path d="M15.4389 23.9834C14.2289 23.9834 13.0189 23.8036 11.8389 23.434C8.77886 22.4751 6.27886 20.3874 4.79886 17.5405C3.30886 14.7036 3.02886 11.4572 3.98886 8.40059C4.94886 5.34395 7.03886 2.84669 9.87886 1.36832C12.7289 -0.110052 15.9689 -0.399733 19.0289 0.559212C19.3389 0.659102 19.5589 0.948783 19.5589 1.27842C19.5589 1.60806 19.3489 1.89774 19.0389 1.99763C14.6389 3.37611 11.6889 7.40168 11.6889 12.0066C11.6889 16.6116 14.6489 20.6271 19.0389 22.0156C19.3489 22.1155 19.5689 22.4052 19.5689 22.7348C19.5689 23.0645 19.3589 23.3541 19.0389 23.454C17.8589 23.8236 16.6489 24.0034 15.4389 24.0034V23.9834ZM15.4289 1.49818C13.7589 1.49818 12.1089 1.89774 10.5789 2.69686C8.08886 3.99543 6.25886 6.18302 5.41886 8.85009C4.57886 11.5271 4.82886 14.364 6.12886 16.8513C7.42886 19.3386 9.61886 21.1665 12.2889 22.0056C13.5989 22.4152 14.9589 22.565 16.2989 22.4551C12.5589 20.3674 10.1789 16.4218 10.1789 11.9966C10.1789 7.58149 12.5589 3.62584 16.2989 1.53813C16.0089 1.51816 15.7089 1.49818 15.4189 1.49818H15.4289Z" fill="black"/>
</svg>
