<svg width="24" height="24" viewBox="0 0 24 24" fill="none" xmlns="http://www.w3.org/2000/svg">
<path fill-rule="evenodd" clip-rule="evenodd" d="M0 5.25C0 8.145 2.355 10.5 5.25 10.5C8.145 10.5 10.5 8.145 10.5 5.25C10.5 2.355 8.145 0 5.25 0C2.355 0 0 2.355 0 5.25ZM1.5 5.25C1.5 3.182 3.182 1.5 5.25 1.5C7.318 1.5 9 3.182 9 5.25C9 7.318 7.318 9 5.25 9C3.182 9 1.5 7.318 1.5 5.25Z" fill="black"/>
<path fill-rule="evenodd" clip-rule="evenodd" d="M0 18.75C0 21.645 2.355 24 5.25 24C8.145 24 10.5 21.645 10.5 18.75C10.5 15.855 8.145 13.5 5.25 13.5C2.355 13.5 0 15.855 0 18.75ZM1.5 18.75C1.5 16.682 3.182 15 5.25 15C7.318 15 9 16.682 9 18.75C9 20.818 7.318 22.5 5.25 22.5C3.182 22.5 1.5 20.818 1.5 18.75Z" fill="black"/>
<path fill-rule="evenodd" clip-rule="evenodd" d="M18.75 10.5C15.855 10.5 13.5 8.145 13.5 5.25C13.5 2.355 15.855 0 18.75 0C21.645 0 24 2.355 24 5.25C24 8.145 21.645 10.5 18.75 10.5ZM18.75 1.5C16.682 1.5 15 3.182 15 5.25C15 7.318 16.682 9 18.75 9C20.818 9 22.5 7.318 22.5 5.25C22.5 3.182 20.818 1.5 18.75 1.5Z" fill="black"/>
<path fill-rule="evenodd" clip-rule="evenodd" d="M13.5 18.75C13.5 21.645 15.855 24 18.75 24C21.645 24 24 21.645 24 18.75C24 15.855 21.645 13.5 18.75 13.5C15.855 13.5 13.5 15.855 13.5 18.75ZM15 18.75C15 16.682 16.682 15 18.75 15C20.818 15 22.5 16.682 22.5 18.75C22.5 20.818 20.818 22.5 18.75 22.5C16.682 22.5 15 20.818 15 18.75Z" fill="black"/>
</svg>
