<svg width="24" height="24" viewBox="0 0 24 24" fill="none" xmlns="http://www.w3.org/2000/svg">
<path d="M5.25 24C2.355 24 0 21.645 0 18.75C0 15.855 2.355 13.5 5.25 13.5C8.145 13.5 10.5 15.855 10.5 18.75C10.5 21.645 8.145 24 5.25 24ZM5.25 15C3.182 15 1.5 16.682 1.5 18.75C1.5 20.818 3.182 22.5 5.25 22.5C7.318 22.5 9 20.818 9 18.75C9 16.682 7.318 15 5.25 15Z" fill="#29D305"/>
<path d="M5.25 10.5C2.355 10.5 0 8.145 0 5.25C0 2.355 2.355 0 5.25 0C8.145 0 10.5 2.355 10.5 5.25C10.5 8.145 8.145 10.5 5.25 10.5ZM5.25 1.5C3.182 1.5 1.5 3.182 1.5 5.25C1.5 7.318 3.182 9 5.25 9C7.318 9 9 7.318 9 5.25C9 3.182 7.318 1.5 5.25 1.5Z" fill="black"/>
<path d="M18.75 10.5C15.855 10.5 13.5 8.145 13.5 5.25C13.5 2.355 15.855 0 18.75 0C21.645 0 24 2.355 24 5.25C24 8.145 21.645 10.5 18.75 10.5ZM18.75 1.5C16.682 1.5 15 3.182 15 5.25C15 7.318 16.682 9 18.75 9C20.818 9 22.5 7.318 22.5 5.25C22.5 3.182 20.818 1.5 18.75 1.5Z" fill="black"/>
<path d="M18.75 24C15.855 24 13.5 21.645 13.5 18.75C13.5 15.855 15.855 13.5 18.75 13.5C21.645 13.5 24 15.855 24 18.75C24 21.645 21.645 24 18.75 24ZM18.75 15C16.682 15 15 16.682 15 18.75C15 20.818 16.682 22.5 18.75 22.5C20.818 22.5 22.5 20.818 22.5 18.75C22.5 16.682 20.818 15 18.75 15Z" fill="black"/>
</svg>
