<svg width="24" height="25" viewBox="0 0 24 25" fill="none" xmlns="http://www.w3.org/2000/svg">
<path fill-rule="evenodd" clip-rule="evenodd" d="M0 5.255C0 8.15001 2.355 10.505 5.25 10.505C8.145 10.505 10.5 8.15001 10.5 5.255C10.5 2.36 8.145 0.00500488 5.25 0.00500488C2.355 0.00500488 0 2.36 0 5.255ZM1.5 5.255C1.5 3.187 3.182 1.505 5.25 1.505C7.318 1.505 9 3.187 9 5.255C9 7.323 7.318 9.005 5.25 9.005C3.182 9.005 1.5 7.323 1.5 5.255Z" fill="black"/>
<path fill-rule="evenodd" clip-rule="evenodd" d="M0 18.755C0 21.65 2.355 24.005 5.25 24.005C8.145 24.005 10.5 21.65 10.5 18.755C10.5 15.86 8.145 13.505 5.25 13.505C2.355 13.505 0 15.86 0 18.755ZM1.5 18.755C1.5 16.687 3.182 15.005 5.25 15.005C7.318 15.005 9 16.687 9 18.755C9 20.823 7.318 22.505 5.25 22.505C3.182 22.505 1.5 20.823 1.5 18.755Z" fill="black"/>
<path fill-rule="evenodd" clip-rule="evenodd" d="M18.75 10.505C15.855 10.505 13.5 8.15001 13.5 5.255C13.5 2.36 15.855 0.00500488 18.75 0.00500488C21.645 0.00500488 24 2.36 24 5.255C24 8.15001 21.645 10.505 18.75 10.505ZM18.75 1.505C16.682 1.505 15 3.187 15 5.255C15 7.323 16.682 9.005 18.75 9.005C20.818 9.005 22.5 7.323 22.5 5.255C22.5 3.187 20.818 1.505 18.75 1.505Z" fill="black"/>
<path fill-rule="evenodd" clip-rule="evenodd" d="M13.5 18.755C13.5 21.65 15.855 24.005 18.75 24.005C21.645 24.005 24 21.65 24 18.755C24 15.86 21.645 13.505 18.75 13.505C15.855 13.505 13.5 15.86 13.5 18.755ZM15 18.755C15 16.687 16.682 15.005 18.75 15.005C20.818 15.005 22.5 16.687 22.5 18.755C22.5 20.823 20.818 22.505 18.75 22.505C16.682 22.505 15 20.823 15 18.755Z" fill="black"/>
</svg>
