<svg width="24" height="24" fill="none" xmlns="http://www.w3.org/2000/svg"><g clip-path="url(#clip0)"><path d="M5.25 10.505A5.256 5.256 0 010 5.255 5.256 5.256 0 015.25.005a5.256 5.256 0 015.25 5.25 5.256 5.256 0 01-5.25 5.25zm0-9a3.754 3.754 0 00-3.75 3.75 3.754 3.754 0 003.75 3.75A3.754 3.754 0 009 5.255a3.754 3.754 0 00-3.75-3.75z" fill="#000"/><path d="M5.25 24.005A5.256 5.256 0 010 18.755a5.256 5.256 0 015.25-5.25 5.256 5.256 0 015.25 5.25 5.256 5.256 0 01-5.25 5.25zm0-9a3.754 3.754 0 00-3.75 3.75 3.754 3.754 0 003.75 3.75A3.754 3.754 0 009 18.755a3.754 3.754 0 00-3.75-3.75z" fill="#29D305"/><path d="M18.75 10.505a5.256 5.256 0 01-5.25-5.25 5.256 5.256 0 015.25-5.25A5.256 5.256 0 0124 5.255a5.256 5.256 0 01-5.25 5.25zm0-9A3.754 3.754 0 0015 5.255a3.754 3.754 0 003.75 3.75 3.754 3.754 0 003.75-3.75 3.754 3.754 0 00-3.75-3.75zM18.75 24.005a5.256 5.256 0 01-5.25-5.25 5.256 5.256 0 015.25-5.25 5.256 5.256 0 015.25 5.25 5.256 5.256 0 01-5.25 5.25zm0-9a3.754 3.754 0 00-3.75 3.75 3.754 3.754 0 003.75 3.75 3.754 3.754 0 003.75-3.75 3.754 3.754 0 00-3.75-3.75z" fill="#000"/></g><defs><clipPath id="clip0"><path d="M0 0h24v24H0V0z" fill="#fff"/></clipPath></defs></svg>