<svg width="24" height="24" viewBox="0 0 24 24" fill="none" xmlns="http://www.w3.org/2000/svg">
<path d="M7.4 10.4175V5.8525C8.3325 5.865 9.25 6.2475 10.0525 6.96C10.6875 7.595 11.1 8.62 11.1 9.6C11.1 10.015 11.435 10.35 11.85 10.35C12.265 10.35 12.6 10.015 12.6 9.6C12.6 8.215 12.0325 6.82 11.08 5.87C9.965 4.8775 8.705 4.365 7.4 4.3525V0.75C7.4 0.335 7.065 0 6.65 0C6.235 0 5.9 0.335 5.9 0.75V1.985C5.555 1.95 5.235 1.95 4.95 1.95C4.2575 1.95 3.5175 2.165 2.865 2.5575C2.3325 2.8775 1.7825 3.3075 1.32 3.7725C0.7325 4.5 0.43 5.0775 0.315 5.655C0.2325 6.06 0.4975 6.4575 0.9025 6.5375C1.3075 6.6175 1.705 6.355 1.785 5.95C1.85 5.62 2.0625 5.235 2.435 4.7725C2.7525 4.4625 3.21 4.1025 3.635 3.8475C4.0575 3.5925 4.525 3.455 4.95 3.455C5.25 3.455 5.575 3.455 5.9 3.5V7.395C5.3 7.46 4.775 7.6025 4.315 7.835C3.7075 8.14 3.055 8.56 2.48 9.0225C1.8375 9.6575 1.39 10.3475 1.155 11.02C0.8475 11.655 0.7 12.405 0.7 13.3075C0.7 13.7225 1.035 14.0575 1.45 14.0575C1.865 14.0575 2.2 13.7225 2.2 13.3075C2.2 12.63 2.3075 12.0675 2.52 11.6425C2.535 11.61 2.55 11.5775 2.5625 11.5425C2.72 11.07 3.045 10.5725 3.48 10.1375C3.9125 9.7975 4.47 9.435 4.985 9.1775C5.245 9.0475 5.55 8.9625 5.9 8.9125V18.045C4.7975 18.1475 3.76 18.475 2.865 19.0125C1.7525 19.68 0.775 20.66 0.1075 21.77C0.0375 21.885 0 22.02 0 22.155V22.555C0 22.72 0 23.1625 0.32 23.4875L0.62 23.7875C0.76 23.9275 0.95 24.0075 1.15 24.0075H10.1C10.515 24.0075 10.85 23.6725 10.85 23.2575C10.85 22.8425 10.515 22.5075 10.1 22.5075H1.55L1.5 22.3725C2.0325 21.5475 2.8025 20.8 3.635 20.3C4.4875 19.79 5.5575 19.5075 6.6475 19.5075C7.155 19.5075 7.8975 19.565 8.5525 19.8475C8.9375 20.0125 9.375 19.835 9.5375 19.4525C9.7 19.0725 9.525 18.63 9.1425 18.4675C8.5525 18.215 7.935 18.0975 7.3975 18.045V11.9575C7.9 12.09 8.3825 12.3575 8.855 12.7725C9.37 13.29 9.6975 14.1 9.6975 14.9075C9.6975 15.3225 10.0325 15.6575 10.4475 15.6575C10.8625 15.6575 11.1975 15.3225 11.1975 14.9075C11.1975 13.6925 10.7175 12.515 9.8775 11.6775C9.09 10.9875 8.265 10.575 7.3975 10.425L7.4 10.4175Z" fill="black"/>
<path d="M24 21.15C24 21.01 23.9625 20.88 23.895 20.7675C23.8825 20.655 23.845 20.5475 23.785 20.4525L23.25 19.6C22.4875 18.5825 21.3575 18 20.15 18H17.4925L16.6 17.35C15.2625 16.345 13.5275 16.045 11.845 16.5275C11.4475 16.64 11.215 17.055 11.33 17.455C11.4425 17.8525 11.8575 18.0875 12.2575 17.97C13.4875 17.6175 14.7425 17.83 15.71 18.555L16.295 18.98L15.235 21.1H15.2175C13.9625 20.9875 13.06 20.7625 12.285 20.3775C11.915 20.195 11.4625 20.3425 11.2775 20.7125C11.0925 21.0825 11.2425 21.5325 11.6125 21.7175C12.5625 22.1925 13.63 22.4625 15.1475 22.5975H15.6975V23.2475C15.6975 23.6625 16.0325 23.9975 16.4475 23.9975C16.8625 23.9975 17.1975 23.6625 17.1975 23.2475V22.4975H18.6975V23.2475C18.6975 23.6625 19.0325 23.9975 19.4475 23.9975C19.8625 23.9975 20.1975 23.6625 20.1975 23.2475V22.4975H20.6375L21.9175 23.7775C22.065 23.925 22.255 23.9975 22.4475 23.9975C22.64 23.9975 22.8325 23.925 22.9775 23.7775C23.27 23.485 23.27 23.01 22.9775 22.7175L22.7525 22.4925C23.4275 22.435 23.9975 21.8325 23.9975 21.1475L24 21.15ZM22.015 20.4475L22.36 21H16.965L17.715 19.5H20.1525C20.8825 19.5 21.5775 19.865 22.0175 20.4475H22.015Z" fill="black"/>
<path d="M18.0377 9.83746C18.6177 9.56246 18.8627 8.86746 18.5877 8.28996C18.3127 7.70996 17.6177 7.46496 17.0402 7.73996C16.4602 8.01496 16.2152 8.70996 16.4902 9.28746C16.7652 9.86496 17.4602 10.1125 18.0377 9.83746Z" fill="black"/>
<path d="M15.2052 3.83746C15.7852 3.56246 16.0302 2.86746 15.7552 2.28996C15.4802 1.70996 14.7852 1.46496 14.2077 1.73996C13.6277 2.01496 13.3827 2.70996 13.6577 3.28746C13.9327 3.86746 14.6277 4.11246 15.2052 3.83746Z" fill="black"/>
</svg>
