<svg width="24" height="24" viewBox="0 0 24 24" fill="none" xmlns="http://www.w3.org/2000/svg">
<g clip-path="url(#clip0_6126_30231)">
<path d="M6.0002 7.5C3.9002 7.5 2.2002 5.8 2.2002 3.7C2.2002 1.6 3.9002 0 6.0002 0C8.10019 0 9.8002 1.7 9.8002 3.8C9.8002 5.9 8.10019 7.5 6.0002 7.5ZM6.0002 1.5C4.8002 1.5 3.8002 2.5 3.8002 3.7C3.8002 4.9 4.8002 6 6.0002 6C7.2002 6 8.2002 5 8.2002 3.8C8.2002 2.6 7.2002 1.5 6.0002 1.5Z" fill="black"/>
<path d="M8.2 24H3.8C3.4 24 3 23.7 3 23.3L2.3 16.5H0.8C0.4 16.5 0 16.2 0 15.7V13.5C0 12.1 0.5 10.8 1.3 9.80005C2.1 8.70005 3.3 8.00005 4.7 7.70005C6 7.30005 7.4 7.50005 8.6 8.10005C9.8 8.70005 10.8 9.70005 11.4 10.9C11.6 11.3 11.4 11.7 11 11.9C10.6 12.1 10.2 11.9 10 11.5C9.6 10.6 8.9 9.90005 8 9.50005C7.1 9.00005 6 8.90005 5 9.10005C4 9.30005 3.1 9.90005 2.5 10.7C1.9 11.5 1.5 12.5 1.5 13.5V15H3C3.4 15 3.7 15.3 3.7 15.7L4.4 22.5H7.5L8 18C8 17.6 8.4 17.3 8.8 17.3C9.2 17.3 9.5 17.7 9.5 18.1L9 23.3C9 23.7 8.6 24 8.2 24Z" fill="black"/>
<path d="M13.3999 24.0001C13.2999 24.0001 13.2999 24.0001 13.1999 24.0001C12.8999 24.0001 12.5999 23.8001 12.2999 23.6001C12.0999 23.4001 11.8999 23.1001 11.7999 22.8001C11.6999 22.5001 11.7999 22.2001 11.8999 21.9001L13.0999 19.0001L10.9999 16.8001C10.7999 16.6001 10.5999 16.4001 10.5999 16.1001C10.4999 15.8001 10.4999 15.5001 10.6999 15.2001C10.7999 14.9001 10.9999 14.7001 11.2999 14.5001C11.5999 14.3001 11.8999 14.3001 12.1999 14.3001H14.6999L15.9999 11.4001C16.1999 11.1001 16.2999 10.9001 16.5999 10.8001C16.7999 10.7001 17.0999 10.6001 17.3999 10.6001C17.6999 10.6001 17.9999 10.7001 18.1999 10.8001C18.3999 10.9001 18.5999 11.2001 18.7999 11.4001L20.0999 14.3001H22.5999C22.8999 14.3001 23.1999 14.4001 23.3999 14.5001C23.6999 14.7001 23.8999 14.9001 23.9999 15.2001C24.0999 15.5001 24.0999 15.8001 24.0999 16.1001C24.0999 16.4001 23.8999 16.7001 23.5999 16.9001L21.2999 19.0001L22.4999 21.8001C22.5999 22.1001 22.6999 22.4001 22.5999 22.7001C22.4999 23.0001 22.3999 23.3001 22.0999 23.5001C21.8999 23.7001 21.5999 23.8001 21.1999 23.9001C20.8999 23.9001 20.5999 23.9001 20.2999 23.7001L17.1999 22.0001L14.0999 23.8001C13.8999 23.9001 13.5999 24.0001 13.3999 24.0001ZM17.1999 20.4001C17.2999 20.4001 17.4999 20.4001 17.5999 20.5001L21.0999 22.5001L19.6999 19.2001C19.5999 18.9001 19.5999 18.6001 19.8999 18.4001L22.4999 15.8001H19.4999C19.1999 15.8001 18.8999 15.6001 18.7999 15.4001L17.2999 12.0001L15.6999 15.3001C15.5999 15.6001 15.2999 15.7001 14.9999 15.7001H11.9999L14.5999 18.3001C14.7999 18.5001 14.8999 18.8001 14.7999 19.1001L13.3999 22.4001L16.9999 20.5001C16.9999 20.5001 17.0999 20.4001 17.1999 20.4001Z" fill="black"/>
<path d="M16.5001 6.8C14.6001 6.8 13.1001 5.3 13.1001 3.4C13.1001 1.5 14.6001 0 16.5001 0C18.4001 0 19.9001 1.5 19.9001 3.4C19.9001 5.3 18.4001 6.8 16.5001 6.8ZM16.5001 1.5C15.5001 1.5 14.6001 2.3 14.6001 3.4C14.6001 4.5 15.4001 5.3 16.5001 5.3C17.6001 5.3 18.4001 4.5 18.4001 3.4C18.4001 2.3 17.5001 1.5 16.5001 1.5Z" fill="black"/>
<path d="M20.4002 9.69991C20.1002 9.69991 19.9002 9.59991 19.7002 9.29991C19.4002 8.79991 19.0002 8.29991 18.5002 7.99991C18.0002 7.69991 17.4002 7.49991 16.8002 7.39991C16.2002 7.29991 15.6002 7.39991 15.1002 7.59991C14.6002 7.79991 14.1002 8.19991 13.7002 8.59991C13.4002 8.89991 13.0002 8.89991 12.6002 8.69991C12.3002 8.39991 12.3002 7.99991 12.5002 7.59991C13.0002 6.99991 13.7002 6.49991 14.5002 6.19991C15.3002 6.09991 16.2002 5.89991 17.0002 5.99991C17.8002 6.09991 18.6002 6.39991 19.3002 6.79991C20.0002 7.29991 20.6002 7.89991 21.0002 8.59991C21.2002 8.99991 21.1002 9.39991 20.7002 9.59991C20.7002 9.69991 20.5002 9.69991 20.4002 9.69991Z" fill="black"/>
</g>
<defs>
<clipPath id="clip0_6126_30231">
<rect width="24" height="24" fill="white"/>
</clipPath>
</defs>
</svg>
