<svg width="24" height="24" viewBox="0 0 24 24" fill="none" xmlns="http://www.w3.org/2000/svg">
<path fill-rule="evenodd" clip-rule="evenodd" d="M6 1.50098C4.75736 1.50098 3.75 2.50834 3.75 3.75098C3.75 4.99362 4.75736 6.00098 6 6.00098C7.24264 6.00098 8.25 4.99362 8.25 3.75098C8.25 2.50834 7.24264 1.50098 6 1.50098ZM2.25 3.75098C2.25 1.67991 3.92893 0.000976562 6 0.000976562C8.07107 0.000976562 9.75 1.67991 9.75 3.75098C9.75 5.82204 8.07107 7.50098 6 7.50098C3.92893 7.50098 2.25 5.82204 2.25 3.75098Z" fill="black"/>
<path fill-rule="evenodd" clip-rule="evenodd" d="M4.68004 7.64744C6.00859 7.34765 7.39959 7.50869 8.6245 8.1041C9.8494 8.69951 10.8353 9.69388 11.4203 10.9238C11.5982 11.2979 11.4392 11.7453 11.0651 11.9232C10.6911 12.1011 10.2436 11.9421 10.0657 11.5681C9.62696 10.6456 8.88746 9.89975 7.96873 9.45316C7.05 9.00658 6.00669 8.88579 5.01023 9.11065C4.01376 9.33551 3.12343 9.89264 2.48551 10.6905C1.84761 11.4883 1.50007 12.4794 1.5 13.5009C1.5 13.5009 1.5 13.501 1.5 13.5009V15.0009H3C3.38531 15.0009 3.70794 15.2929 3.74628 15.6763L4.42874 22.5009H7.57131L8.02573 17.9603C8.06697 17.5481 8.43453 17.2474 8.84668 17.2887C9.25884 17.3299 9.55952 17.6975 9.51827 18.1096L8.99627 23.3256C8.9579 23.709 8.63529 24.0009 8.25 24.0009H3.75C3.36469 24.0009 3.04206 23.709 3.00372 23.3256L2.32126 16.5009H0.75C0.335786 16.5009 0 16.1652 0 15.7509V13.5009C8.11815e-05 12.139 0.463442 10.8175 1.31394 9.75378C2.16445 8.69004 3.3515 7.94724 4.68004 7.64744Z" fill="black"/>
<path fill-rule="evenodd" clip-rule="evenodd" d="M17.2392 12.0038C17.2302 12.0038 17.2212 12.0062 17.2134 12.0109C17.208 12.0142 17.2032 12.0184 17.1994 12.0234L15.6691 15.317C15.5461 15.5816 15.2808 15.7509 14.9889 15.7509H12.0015C12.0021 15.7515 12.0027 15.7521 12.0033 15.7527L14.6033 18.3147C14.8244 18.5325 14.8884 18.8639 14.7646 19.1483L13.3258 22.4526C13.3236 22.459 13.3233 22.4658 13.3248 22.4724C13.3265 22.4797 13.3305 22.4864 13.3361 22.4913C13.3418 22.4963 13.3489 22.4993 13.3563 22.5001C13.3638 22.5008 13.3714 22.4992 13.3779 22.4954L13.3853 22.4912L16.8723 20.5302C17.1003 20.402 17.3787 20.4018 17.6068 20.5298L21.106 22.4924C21.1125 22.4961 21.12 22.4978 21.1275 22.4971C21.135 22.4963 21.1421 22.4933 21.1477 22.4883C21.1534 22.4834 21.1573 22.4767 21.1591 22.4694C21.1606 22.4628 21.1602 22.456 21.158 22.4496L19.7193 19.1453C19.5954 18.8609 19.6595 18.5295 19.8805 18.3117L22.4793 15.7509H19.4889C19.197 15.7509 18.9317 15.5816 18.8087 15.3169L17.2794 12.0241C17.2755 12.0189 17.2706 12.0144 17.265 12.011C17.2572 12.0063 17.2483 12.0038 17.2392 12.0038ZM16.4425 10.7242C16.6842 10.5794 16.9607 10.5032 17.2424 10.5038C17.5241 10.5044 17.8004 10.5817 18.0414 10.7276C18.2824 10.8734 18.4792 11.0821 18.6105 11.3314C18.6163 11.3424 18.6219 11.3536 18.6271 11.365L19.9675 14.2509H22.4768C22.7765 14.2426 23.0719 14.3253 23.324 14.4883C23.5809 14.6544 23.7802 14.8957 23.8948 15.1794C24.0093 15.4631 24.0334 15.7752 23.9638 16.0731C23.8959 16.3638 23.742 16.6272 23.5224 16.829L21.3002 19.0187L22.5427 21.8723C22.6658 22.1689 22.6928 22.4965 22.6201 22.8092C22.5473 23.1219 22.3784 23.404 22.1371 23.6157C21.8958 23.8275 21.5942 23.9583 21.2747 23.9898C20.9571 24.0212 20.6375 23.9527 20.3606 23.7941L17.2404 22.0441L14.1237 23.7969C13.8467 23.9557 13.527 24.0242 13.2091 23.9928C12.8896 23.9613 12.588 23.8305 12.3467 23.6187C12.1054 23.407 11.9365 23.1249 11.8638 22.8122C11.7911 22.4995 11.8182 22.1719 11.9412 21.8754L11.9462 21.8635L13.1837 19.0217L10.9637 16.8341C10.743 16.6341 10.5874 16.3723 10.5175 16.0824C10.4455 15.784 10.4678 15.4706 10.5813 15.1854C10.6949 14.9002 10.894 14.6573 11.1514 14.49C11.404 14.3259 11.7003 14.2426 12.0011 14.2509H14.5104L15.8528 11.3619C15.8585 11.3496 15.8645 11.3375 15.8709 11.3255C16.0032 11.0769 16.2009 10.869 16.4425 10.7242Z" fill="black"/>
<path fill-rule="evenodd" clip-rule="evenodd" d="M16.5 1.50098C15.4645 1.50098 14.625 2.34044 14.625 3.37598C14.625 4.41151 15.4645 5.25098 16.5 5.25098C17.5355 5.25098 18.375 4.41151 18.375 3.37598C18.375 2.34044 17.5355 1.50098 16.5 1.50098ZM13.125 3.37598C13.125 1.51202 14.636 0.000976562 16.5 0.000976562C18.364 0.000976562 19.875 1.51202 19.875 3.37598C19.875 5.23994 18.364 6.75098 16.5 6.75098C14.636 6.75098 13.125 5.23994 13.125 3.37598Z" fill="black"/>
<path fill-rule="evenodd" clip-rule="evenodd" d="M14.5673 6.37218C15.3434 6.06423 16.1817 5.94584 17.0128 6.02683C17.8438 6.10783 18.6435 6.38587 19.3456 6.83788C20.0476 7.28988 20.6317 7.90282 21.0494 8.62582C21.2566 8.98448 21.1338 9.4432 20.7752 9.65041C20.4165 9.85762 19.9578 9.73484 19.7506 9.37618C19.4522 8.85975 19.035 8.42194 18.5336 8.09908C18.0321 7.77621 17.4609 7.57761 16.8673 7.51976C16.2737 7.46191 15.6748 7.54647 15.1205 7.76643C14.5661 7.9864 14.0722 8.33541 13.6798 8.78451C13.4072 9.09641 12.9334 9.12831 12.6215 8.85575C12.3096 8.58319 12.2777 8.10939 12.5502 7.79748C13.0997 7.16875 13.7911 6.68013 14.5673 6.37218Z" fill="black"/>
</svg>
