<svg width="24" height="24" fill="none" xmlns="http://www.w3.org/2000/svg"><g clip-path="url(#clip0)"><path fill-rule="evenodd" clip-rule="evenodd" d="M23.687 10.94a.836.836 0 00-.13-.423l-5.932-8.84c-.26-.363-.49-.629-.859-.668a1.187 1.187 0 00-.998.354l-3.785 3.005h-1.897a1.611 1.611 0 00-1.099.452 2.486 2.486 0 00-.66 1.906v4.027c.001.026-.01.051-.028.07a.1.1 0 01-.07.028H3.514a1.688 1.688 0 00-1.145.59 1.631 1.631 0 00-.373 1.218v2.809c.012.302.059.602.14.894a2.772 2.772 0 00-1.554.979A2.692 2.692 0 000 19.063v1.324c-.003.689.272 1.35.764 1.84.493.49 1.162.768 1.862.773h12.782c.7-.005 1.37-.283 1.862-.773.492-.49.767-1.151.765-1.84v-1.324a2.758 2.758 0 00-.546-1.671 2.835 2.835 0 00-1.452-1.02.08.08 0 01-.07-.081c0-.013.004-.026.01-.037.157-.455.198-.94.12-1.415-.156-1.185-.507-3.593-.808-5.66l-.328-2.257a.116.116 0 010-.088L16 5.95l4.112 5.933a.089.089 0 01.027.064.087.087 0 01-.027.063l-1.997 1.454a.87.87 0 00-.117 1.353.904.904 0 00.456.238l4.514 1.042a.823.823 0 00.729-.177.828.828 0 00.3-.707l-.31-4.273zm-.969.58l.18 3.32a.097.097 0 01-.04.082.099.099 0 01-.09.015l-3.345-.785a.1.1 0 01-.057-.089.1.1 0 01.056-.088l3.296-2.456zm-21.43 7.543a1.47 1.47 0 01.377-1.01c.25-.277.678-.514 1.053-.553H15.5c.373.041.636.279.883.557.248.278.38.637.373 1.006v1.324c.002.174-.042.401-.108.563a1.325 1.325 0 01-.724.723 1.368 1.368 0 01-.516.104H2.626a1.37 1.37 0 01-.954-.395 1.325 1.325 0 01-.394-.94l.01-1.379zm20.98-8.565l-5.701-8.33-2.826 2.27c.259.062.759.562.88 1.237l.877-.644a1 1 0 011.405.223l4.307 6 1.059-.756zM3.626 16.293H14.02c.148.007.475-.033.6-.255a1.237 1.237 0 00.21-1.032c-.28-2.18-1.28-9.056-1.28-9.056a.443.443 0 00-.409-.295H10.5c-.5 0-.864.345-.864.884v4.619a1 1 0 01-1 1H3.555c-.11 0-.31.078-.31.5v2.85c0 .539 0 .603.13.707.07.056.16.084.25.078z" fill="#000"/><path d="M5.25 20.9a1.25 1.25 0 100-2.5 1.25 1.25 0 000 2.5zM12.25 20.9a1.25 1.25 0 100-2.5 1.25 1.25 0 000 2.5z" fill="#29D305"/></g><defs><clipPath id="clip0"><path fill="#fff" d="M0 0h24v24H0z"/></clipPath></defs></svg>