<svg width="24" height="24" viewBox="0 0 24 24" fill="none" xmlns="http://www.w3.org/2000/svg">
<path d="M17.6422 13.3939L17.6421 13.3939C17.6018 13.4446 17.1144 14.0609 16.5887 14.8972C16.0756 15.7135 15.47 16.8259 15.2646 17.8529C15.0203 19.0745 14.7032 20.5393 14.4434 21.7157C14.2767 22.4705 13.5901 22.7168 13.1151 22.4349C11.8069 21.6586 10.422 20.4378 10.1401 18.7178C9.8626 17.0245 9.9983 15.9058 10.1821 15.2323C10.3166 14.7396 10.1754 14.2315 9.95204 13.8708C9.73253 13.5162 9.30477 13.1087 8.69552 13.1087H3.74733C2.20726 13.1087 1.08709 11.75 1.41285 10.3438C1.51002 9.92437 1.60828 9.55183 1.70248 9.26449C1.7608 9.0866 1.75733 8.8999 1.70078 8.73067C1.68579 8.68582 1.67093 8.64148 1.65622 8.59759C1.41717 7.88442 1.21926 7.29396 1.19968 6.66567C1.18033 6.04453 1.33927 5.34638 1.96975 4.49069C2.14444 4.2536 2.182 3.94572 2.07938 3.67813C1.61538 2.46818 2.13869 1.58509 2.63226 1.05215C2.80419 0.866494 3.10375 0.75 3.52221 0.75H19H21.2308C22.346 0.75 23.25 1.65404 23.25 2.76923V11.0894C23.25 12.2046 22.346 13.1087 21.2308 13.1087H18.2356C18.2484 13.1087 18.248 13.1087 18.243 13.1087C18.241 13.1087 18.2384 13.1087 18.2356 13.1087C18.2291 13.1087 18.2216 13.1087 18.219 13.1088C18.1982 13.1092 18.1387 13.1108 18.0651 13.1276C17.9829 13.1464 17.8956 13.1808 17.8119 13.2371C17.7326 13.2904 17.6777 13.3492 17.6422 13.3939Z" stroke="black" stroke-width="1.5"/>
</svg>
