<svg width="24" height="24" viewBox="0 0 24 24" fill="none" xmlns="http://www.w3.org/2000/svg">
<path d="M21.918 0.54254C21.5528 0.148207 21.0153 1.59512e-06 20.4778 1.54813e-06L2.76923 0C1.23982 -1.33705e-07 8.6108e-07 1.23983 7.27376e-07 2.76923L0 11.0894C-1.33705e-07 12.6188 1.23983 13.8587 2.76923 13.8587H5.76442C5.76746 13.8587 5.76902 13.8584 5.77091 13.8608C5.83381 13.9399 7.646 16.23 8 18C8.2458 19.229 8.56411 20.6997 8.82422 21.8774C9.07676 23.0208 10.2607 23.6775 11.2677 23.0799C12.6323 22.27 14.263 20.8954 14.6 18.8391C14.8926 17.0536 14.7571 15.825 14.5414 15.0348C14.4095 14.5516 14.8036 13.8587 15.3045 13.8587L20.2527 13.8587C22.2264 13.8587 23.7633 12.0974 23.3178 10.1745C23.2184 9.74561 23.1144 9.34864 23.0102 9.03084C23.0035 9.01028 23.0037 8.98892 23.0105 8.9684C23.5045 7.49038 24.0805 6.00896 22.6341 4.04581C22.6134 4.01771 22.6084 3.97926 22.6209 3.94667C23.2296 2.35929 22.5095 1.18117 21.918 0.54254Z" fill="black"/>
</svg>
