<svg width="24" height="24" viewBox="0 0 24 24" fill="none" xmlns="http://www.w3.org/2000/svg">
<path d="M20.6836 14.3897H14.9591C14.4748 14.3897 14.1096 15.0095 14.2352 15.485C14.4599 16.336 14.6225 17.7143 14.2979 19.728C13.9987 21.5842 12.8471 22.8655 11.7469 23.6908C10.6912 24.4828 9.37786 23.6531 9.15669 22.3383C8.94196 21.0617 8.61927 19.6027 8.17025 18.6897C7.16832 16.6524 5.96979 14.4738 5.92476 14.392C5.92436 14.3913 5.92431 14.391 5.92411 14.3902L5.92367 14.3886L5.92345 14.387V0H20.6608C21.3646 0 22.0588 0.259605 22.4512 0.853642C23.002 1.68725 23.5883 3.05579 23 4.61729C22.9872 4.65113 22.9925 4.69097 23.0137 4.72009C24.4921 6.75042 24.0032 7.78449 23.5002 9.31178C23.4932 9.33308 23.4929 9.35551 23.4998 9.37686C23.6062 9.70684 23.7124 10.119 23.8139 10.5644C24.2689 12.5609 22.6993 14.3897 20.6836 14.3897Z" fill="black"/>
<path d="M0 11.5143V2.87534C0 1.28733 1.2662 0 2.82814 0H4.67V14.3897H2.82814C1.2662 14.3897 0 13.1023 0 11.5143Z" fill="black"/>
</svg>
