<svg width="24" height="24" viewBox="0 0 24 24" fill="none" xmlns="http://www.w3.org/2000/svg">
<path fill-rule="evenodd" clip-rule="evenodd" d="M6.0766 1.55747V12.8441C6.20315 12.8601 6.36261 12.8964 6.53371 12.9768C6.8401 13.1208 7.07359 13.3539 7.22304 13.6187C7.28581 13.7299 8.52393 15.9263 9.5404 17.9932C10.1018 19.1346 10.4524 20.8021 10.6667 22.0757C10.6989 22.2673 10.7945 22.3796 10.8543 22.4248C11.7687 21.7346 12.5767 20.7751 12.7861 19.4761C13.0787 17.6612 12.919 16.5076 12.7556 15.8888C12.5593 15.1452 12.759 14.4219 13.0814 13.9143C13.4028 13.4081 14.0403 12.8322 14.9591 12.8322H20.6836C21.8135 12.8322 22.532 11.8395 22.3215 10.9159C22.2245 10.4902 22.1301 10.1288 22.0441 9.86207C21.9307 9.51032 21.9399 9.14412 22.0476 8.81727C22.0781 8.72454 22.1069 8.6378 22.1338 8.55637C22.3662 7.85493 22.4679 7.54774 22.4681 7.20391C22.4682 6.93531 22.3948 6.48778 21.7825 5.64683C21.4481 5.18765 21.3706 4.58785 21.5694 4.06016C21.8998 3.18338 21.6057 2.36701 21.1796 1.72208C21.1651 1.70015 21.135 1.66514 21.055 1.62926C20.9678 1.59022 20.8338 1.55747 20.6607 1.55747H6.0766ZM20.6607 0C21.3646 0 22.0588 0.259605 22.4512 0.853642C23.002 1.68725 23.5883 3.05579 23 4.61729C22.9872 4.65113 22.9925 4.69097 23.0137 4.72009C24.4009 6.62512 24.0561 7.65306 23.5927 9.03429C23.5623 9.12514 23.5313 9.21752 23.5002 9.31178C23.4932 9.33308 23.4929 9.35551 23.4998 9.37686C23.6062 9.70684 23.7124 10.119 23.8139 10.5644C24.2689 12.5609 22.6993 14.3897 20.6836 14.3897H14.9591C14.4748 14.3897 14.1096 15.0095 14.2351 15.485C14.4599 16.336 14.6225 17.7143 14.2979 19.728C13.9986 21.5842 12.8471 22.8655 11.7469 23.6908C10.6912 24.4828 9.37782 23.6531 9.15666 22.3383C8.94192 21.0617 8.61923 19.6027 8.17021 18.6897C7.17475 16.6655 5.95538 14.502 5.89437 14.3939C5.89255 14.3907 5.88973 14.3897 5.88607 14.3897H2.82815C1.26621 14.3897 0 13.1023 0 11.5143V2.87534C0 1.28733 1.26621 0 2.82815 0H20.6607ZM4.54468 12.8322H2.82815C2.11226 12.8322 1.53192 12.2422 1.53192 11.5143V2.87534C1.53192 2.1475 2.11226 1.55747 2.82815 1.55747H4.54468V12.8322Z" fill="black"/>
</svg>
