<svg width="24" height="24" viewBox="0 0 24 24" fill="none" xmlns="http://www.w3.org/2000/svg">
<path fill-rule="evenodd" clip-rule="evenodd" d="M5.25 1.5L5.25 12.3587H5.76442C5.73701 12.3587 5.73911 12.3587 5.75046 12.3587C5.75431 12.3587 5.75923 12.3586 5.76442 12.3587C5.77676 12.3587 5.79064 12.3588 5.79548 12.3589C5.83658 12.3597 5.95487 12.3629 6.10169 12.3964C6.26557 12.4338 6.4398 12.5025 6.60671 12.6148C6.76487 12.7212 6.87437 12.8384 6.9449 12.9271C6.99411 12.989 7.50015 13.6292 8.04625 14.498C8.56733 15.327 9.23705 16.5367 9.47087 17.7058C9.71369 18.9199 10.0294 20.379 10.2889 21.5539C10.3218 21.7028 10.4041 21.7746 10.4472 21.7966C10.4593 21.8028 10.4667 21.8046 10.4695 21.8051C10.474 21.804 10.4846 21.8004 10.5021 21.79C11.7538 21.0471 12.893 19.9802 13.1197 18.5965C13.3822 16.9954 13.2463 15.9865 13.0944 15.4298C12.8913 14.6859 13.1083 13.9638 13.4103 13.476C13.7047 13.0005 14.3364 12.3587 15.3045 12.3587L20.2527 12.3587C21.3591 12.3587 22.0626 11.4026 21.8565 10.5131C21.7615 10.1031 21.6691 9.75503 21.5848 9.49814C21.4737 9.1593 21.4829 8.80661 21.5883 8.4919C21.6182 8.4026 21.6463 8.31907 21.6727 8.24066C21.9002 7.56508 21.9999 7.26923 22 6.93807C22.0001 6.67939 21.9283 6.24837 21.3287 5.43846C21.0012 4.9962 20.9254 4.41854 21.12 3.91033C21.4435 3.06591 21.1555 2.27966 20.7383 1.65853C20.7241 1.63741 20.6947 1.6037 20.6163 1.56915C20.531 1.53154 20.3998 1.5 20.2303 1.5L5.25 1.5ZM3.75 1.5L3.75 12.3587H2.76923C2.06825 12.3587 1.5 11.7904 1.5 11.0894L1.5 2.76923C1.5 2.06825 2.06825 1.5 2.76923 1.5L3.75 1.5ZM2.76923 0C1.23983 0 0 1.23983 0 2.76923V11.0894C0 12.6188 1.23983 13.8587 2.76923 13.8587H5.76442C5.76692 13.8586 5.7692 13.8586 5.77091 13.8608C5.83381 13.9399 7.646 16.23 8 18C8.2458 19.229 8.56411 20.6997 8.82422 21.8774C9.07676 23.0208 10.2607 23.6775 11.2677 23.0799C12.6323 22.27 14.263 20.8954 14.6 18.8391C14.8926 17.0536 14.7571 15.825 14.5414 15.0348C14.4095 14.5516 14.8036 13.8587 15.3045 13.8587L20.2527 13.8587C22.2264 13.8587 23.7633 12.0974 23.3178 10.1745C23.2184 9.74561 23.1144 9.34864 23.0102 9.03084C23.0035 9.01028 23.0038 8.98868 23.0106 8.96816C23.041 8.87738 23.0714 8.78841 23.1012 8.70091C23.5549 7.37065 23.8926 6.38064 22.5342 4.54592C22.5135 4.51787 22.5083 4.4795 22.5208 4.44691C23.0969 2.94303 22.5228 1.62499 21.9835 0.82214C21.5992 0.250025 20.9195 0 20.2303 0H2.76923ZM10.4669 21.8055L10.4695 21.8051L10.4669 21.8055Z" fill="black"/>
</svg>
