<svg width="24" height="24" viewBox="0 0 24 24" fill="none" xmlns="http://www.w3.org/2000/svg">
<g clip-path="url(#clip0_6126_30232)">
<path d="M17.2 24C17 24 16.8 23.9 16.7 23.8L11.6 18.5C11 17.9 10.7 17.2 10.6 16.4C10.5 15.6 10.6 14.8 11 14.1C11.3 13.6 11.7 13.1 12.1 12.7C12.6 12.3 13.1 12.1 13.7 12C14.3 11.9 14.9 12 15.5 12.1C16.1 12.3 16.6 12.6 17 13L17.3 13.3L17.6 13C18 12.6 18.5 12.3 19.1 12.1C19.7 11.9 20.3 11.9 20.9 12C21.5 12.1 22.1 12.3 22.5 12.7C23 13.1 23.4 13.5 23.6 14.1C24 14.8 24.1 15.6 23.9 16.4C23.8 17.2 23.4 17.9 22.8 18.5L17.7 23.8C17.7 23.9 17.5 24 17.2 24ZM14.3 13.5C14.2 13.5 14.1 13.5 13.9 13.5C13.5 13.6 13.2 13.7 12.9 13.9C12.6 14.1 12.4 14.4 12.2 14.7C12 15.2 12 15.7 12 16.1C12.1 16.6 12.3 17 12.6 17.3L17.2 22.1L21.8 17.3C22.1 16.9 22.4 16.5 22.4 16C22.4 15.5 22.4 15 22.2 14.6C22 14.3 21.8 14 21.5 13.8C21.2 13.6 20.9 13.4 20.5 13.4C20.1 13.3 19.8 13.4 19.4 13.5C19.1 13.6 18.7 13.8 18.5 14.1L17.8 15C17.5 15.3 17 15.3 16.7 15L15.9 14.2C15.6 13.9 15.3 13.8 15 13.6C14.7 13.5 14.5 13.5 14.3 13.5Z" fill="black"/>
<path d="M0.8 15C0.7 15 0.7 15 0.8 15C0.2 14.9 0 14.6 0 14.2C0.2 12.6 1 11.1 2.3 10C3.5 8.90005 5.1 8.40005 6.8 8.30005C8.4 8.30005 10.1 8.90005 11.3 10C11.6 10.3 11.6 10.7 11.4 11.1C11.1 11.4 10.7 11.4 10.3 11.2C9.3 10.3 8.1 9.80005 6.8 9.90005C5.5 9.90005 4.3 10.4 3.3 11.2C2.3 12 1.7 13.2 1.5 14.5C1.4 14.7 1.1 15 0.8 15Z" fill="black"/>
<path d="M6.8002 8.3C4.5002 8.3 2.7002 6.4 2.7002 4.2C2.7002 2 4.5002 0 6.8002 0C9.1002 0 10.9002 1.9 10.9002 4.1C10.9002 6.3 9.0002 8.3 6.8002 8.3ZM6.8002 1.5C5.4002 1.5 4.2002 2.7 4.2002 4.1C4.2002 5.5 5.4002 6.7 6.8002 6.7C8.2002 6.7 9.4002 5.5 9.4002 4.1C9.4002 2.7 8.2002 1.5 6.8002 1.5Z" fill="black"/>
<path d="M16.5001 6.8C14.6001 6.8 13.1001 5.3 13.1001 3.4C13.1001 1.5 14.6001 0 16.5001 0C18.4001 0 19.9001 1.5 19.9001 3.4C19.9001 5.3 18.4001 6.8 16.5001 6.8ZM16.5001 1.5C15.5001 1.5 14.6001 2.3 14.6001 3.4C14.6001 4.5 15.4001 5.3 16.5001 5.3C17.6001 5.3 18.4001 4.5 18.4001 3.4C18.4001 2.3 17.5001 1.5 16.5001 1.5Z" fill="black"/>
<path d="M20.4002 9.79999C20.1002 9.79999 19.9002 9.69999 19.7002 9.39999C19.4002 8.89999 19.0002 8.39999 18.5002 8.09999C18.0002 7.79999 17.4002 7.59999 16.8002 7.49999C16.2002 7.39999 15.6002 7.49999 15.1002 7.69999C14.6002 7.89999 14.1002 8.29999 13.7002 8.69999C13.4002 8.99999 13.0002 8.99999 12.6002 8.79999C12.3002 8.49999 12.3002 8.09999 12.5002 7.69999C13.0002 7.09999 13.7002 6.59999 14.5002 6.29999C15.3002 6.09999 16.2002 5.89999 17.0002 5.99999C17.8002 6.09999 18.6002 6.39999 19.3002 6.79999C20.0002 7.29999 20.6002 7.89999 21.0002 8.59999C21.2002 8.99999 21.1002 9.39999 20.7002 9.59999C20.7002 9.69999 20.5002 9.79999 20.4002 9.79999Z" fill="black"/>
</g>
<defs>
<clipPath id="clip0_6126_30232">
<rect width="24" height="24" fill="white"/>
</clipPath>
</defs>
</svg>
