<svg width="24" height="24" viewBox="0 0 24 24" fill="none" xmlns="http://www.w3.org/2000/svg">
<path d="M17.2 24.001C17 24.001 16.8 23.901 16.7 23.801L11.6 18.501C11 17.901 10.7 17.201 10.6 16.401C10.5 15.601 10.6 14.801 11 14.101C11.3 13.601 11.7 13.101 12.1 12.701C12.6 12.301 13.1 12.101 13.7 12.001C14.3 11.901 14.9 12.001 15.5 12.101C16.1 12.301 16.6 12.601 17 13.001L17.3 13.301L17.6 13.001C18 12.601 18.5 12.301 19.1 12.101C19.7 11.901 20.3 11.901 20.9 12.001C21.5 12.101 22.1 12.301 22.5 12.701C23 13.101 23.4 13.501 23.6 14.101C24 14.801 24.1 15.601 23.9 16.401C23.8 17.201 23.4 17.901 22.8 18.501L17.7 23.801C17.7 23.901 17.5 24.001 17.2 24.001ZM14.3 13.501C14.2 13.501 14.1 13.501 13.9 13.501C13.5 13.601 13.2 13.701 12.9 13.901C12.6 14.101 12.4 14.401 12.2 14.701C12 15.201 12 15.701 12 16.101C12.1 16.601 12.3 17.001 12.6 17.301L17.2 22.101L21.8 17.301C22.1 16.901 22.4 16.501 22.4 16.001C22.4 15.501 22.4 15.001 22.2 14.601C22 14.301 21.8 14.001 21.5 13.801C21.2 13.601 20.9 13.401 20.5 13.401C20.1 13.301 19.8 13.401 19.4 13.501C19.1 13.601 18.7 13.801 18.5 14.101L17.8 15.001C17.5 15.301 17 15.301 16.7 15.001L15.9 14.201C15.6 13.901 15.3 13.801 15 13.601C14.7 13.501 14.5 13.501 14.3 13.501Z" fill="black"/>
<path d="M0.8 15.001C0.7 15.001 0.7 15.001 0.8 15.001C0.2 14.901 0 14.601 0 14.201C0.2 12.601 1 11.101 2.3 10.001C3.5 8.90103 5.1 8.40103 6.8 8.30103C8.4 8.30103 10.1 8.90103 11.3 10.001C11.6 10.301 11.6 10.701 11.4 11.101C11.1 11.401 10.7 11.401 10.3 11.201C9.3 10.301 8.1 9.80102 6.8 9.90102C5.5 9.90102 4.3 10.401 3.3 11.201C2.3 12.001 1.7 13.201 1.5 14.501C1.4 14.701 1.1 15.001 0.8 15.001Z" fill="black"/>
<path d="M6.8002 8.30098C4.5002 8.30098 2.7002 6.40098 2.7002 4.20098C2.7002 2.00098 4.5002 0.000976562 6.8002 0.000976562C9.1002 0.000976562 10.9002 1.90098 10.9002 4.10098C10.9002 6.30098 9.0002 8.30098 6.8002 8.30098ZM6.8002 1.50098C5.4002 1.50098 4.2002 2.70098 4.2002 4.10098C4.2002 5.50098 5.4002 6.70098 6.8002 6.70098C8.2002 6.70098 9.4002 5.50098 9.4002 4.10098C9.4002 2.70098 8.2002 1.50098 6.8002 1.50098Z" fill="black"/>
<path d="M16.5001 6.80098C14.6001 6.80098 13.1001 5.30098 13.1001 3.40098C13.1001 1.50098 14.6001 0.000976562 16.5001 0.000976562C18.4001 0.000976562 19.9001 1.50098 19.9001 3.40098C19.9001 5.30098 18.4001 6.80098 16.5001 6.80098ZM16.5001 1.50098C15.5001 1.50098 14.6001 2.30098 14.6001 3.40098C14.6001 4.50098 15.4001 5.30098 16.5001 5.30098C17.6001 5.30098 18.4001 4.50098 18.4001 3.40098C18.4001 2.30098 17.5001 1.50098 16.5001 1.50098Z" fill="black"/>
<path d="M20.4002 9.80096C20.1002 9.80096 19.9002 9.70096 19.7002 9.40096C19.4002 8.90096 19.0002 8.40096 18.5002 8.10096C18.0002 7.80096 17.4002 7.60096 16.8002 7.50096C16.2002 7.40096 15.6002 7.50096 15.1002 7.70096C14.6002 7.90096 14.1002 8.30096 13.7002 8.70096C13.4002 9.00096 13.0002 9.00096 12.6002 8.80096C12.3002 8.50096 12.3002 8.10096 12.5002 7.70096C13.0002 7.10096 13.7002 6.60096 14.5002 6.30096C15.3002 6.10096 16.2002 5.90096 17.0002 6.00096C17.8002 6.10096 18.6002 6.40096 19.3002 6.80096C20.0002 7.30096 20.6002 7.90096 21.0002 8.60096C21.2002 9.00096 21.1002 9.40096 20.7002 9.60096C20.7002 9.70096 20.5002 9.80096 20.4002 9.80096Z" fill="black"/>
</svg>
