<svg width="24" height="24" viewBox="0 0 24 24" fill="none" xmlns="http://www.w3.org/2000/svg">
<path d="M11.741 16.453C11.826 16.484 11.913 16.5 12.001 16.5C12.088 16.5 12.174 16.485 12.259 16.453C12.268 16.45 12.277 16.446 12.285 16.443C12.378 16.404 12.461 16.349 12.531 16.279L17.031 11.779C17.173 11.638 17.251 11.449 17.251 11.249C17.251 11.049 17.173 10.86 17.031 10.719C16.89 10.577 16.701 10.499 16.501 10.499C16.301 10.499 16.113 10.577 15.971 10.719L12.751 13.939V3.75C12.751 3.336 12.415 3 12.001 3C11.587 3 11.251 3.336 11.251 3.75V13.94L8.03097 10.72C7.88997 10.578 7.70097 10.5 7.50097 10.5C7.30097 10.5 7.11197 10.578 6.97097 10.72C6.82897 10.861 6.75097 11.05 6.75097 11.25C6.75097 11.45 6.82897 11.639 6.97097 11.78L11.47 16.28C11.54 16.351 11.623 16.406 11.719 16.445C11.726 16.448 11.733 16.45 11.741 16.453Z" fill="black"/>
<path d="M0.000976562 17.25C0.000976562 19.318 1.68297 21 3.75097 21H20.2509C22.3189 21 24.0009 19.318 24.0009 17.25V15.75C24.0009 15.336 23.6649 15 23.2509 15C22.8369 15 22.5009 15.336 22.5009 15.75V17.25C22.5009 18.491 21.4919 19.5 20.2509 19.5H3.75097C2.50997 19.5 1.50097 18.491 1.50097 17.25V15.75C1.50097 15.336 1.16497 15 0.750975 15C0.336976 15 0.000976562 15.336 0.000976562 15.75V17.25Z" fill="black"/>
</svg>
