<svg width="24" height="24" fill="none" xmlns="http://www.w3.org/2000/svg"><g clip-path="url(#clip0)" fill="#000"><path d="M12 16.5a.755.755 0 01-.26-.047l-.022-.008a.732.732 0 01-.249-.165l-4.499-4.5a.743.743 0 01-.22-.53c0-.2.078-.389.22-.53a.743.743 0 01.53-.22c.2 0 .39.078.53.22l3.22 3.22V3.75a.75.75 0 011.5 0v10.189l3.22-3.22a.744.744 0 011.06 0c.142.141.22.33.22.53s-.078.389-.22.53l-4.5 4.5a.763.763 0 01-.246.164l-.026.01A.726.726 0 0112 16.5z"/><path d="M3.75 21A3.754 3.754 0 010 17.25v-1.5a.75.75 0 011.5 0v1.5a2.252 2.252 0 002.25 2.25h16.5a2.252 2.252 0 002.25-2.25v-1.5a.75.75 0 011.5 0v1.5A3.754 3.754 0 0120.25 21H3.75z"/></g><defs><clipPath id="clip0"><path d="M0 0h24v24H0V0z" fill="#fff"/></clipPath></defs></svg>