<svg width="24" height="24" viewBox="0 0 24 24" fill="none" xmlns="http://www.w3.org/2000/svg">
<path d="M9.60017 2.4C9.60017 3.72548 8.52565 4.8 7.20017 4.8C5.87469 4.8 4.80017 3.72548 4.80017 2.4C4.80017 1.07452 5.87469 0 7.20017 0C8.52565 0 9.60017 1.07452 9.60017 2.4Z" fill="black"/>
<path d="M9.60017 11.9999C9.60017 13.3254 8.52565 14.3999 7.20017 14.3999C5.87469 14.3999 4.80017 13.3254 4.80017 11.9999C4.80017 10.6744 5.87469 9.59993 7.20017 9.59993C8.52565 9.59993 9.60017 10.6744 9.60017 11.9999Z" fill="black"/>
<path d="M9.60017 21.6C9.60017 22.9255 8.52565 24 7.20017 24C5.87469 24 4.80017 22.9255 4.80017 21.6C4.80017 20.2746 5.87469 19.2 7.20017 19.2C8.52565 19.2 9.60017 20.2746 9.60017 21.6Z" fill="black"/>
<path d="M19.2005 2.4C19.2005 3.72548 18.126 4.8 16.8005 4.8C15.475 4.8 14.4005 3.72548 14.4005 2.4C14.4005 1.07452 15.475 0 16.8005 0C18.126 0 19.2005 1.07452 19.2005 2.4Z" fill="black"/>
<path d="M19.2005 11.9999C19.2005 13.3254 18.126 14.3999 16.8005 14.3999C15.475 14.3999 14.4005 13.3254 14.4005 11.9999C14.4005 10.6744 15.475 9.59993 16.8005 9.59993C18.126 9.59993 19.2005 10.6744 19.2005 11.9999Z" fill="black"/>
<path d="M19.2005 21.6C19.2005 22.9255 18.126 24 16.8005 24C15.475 24 14.4005 22.9255 14.4005 21.6C14.4005 20.2746 15.475 19.2 16.8005 19.2C18.126 19.2 19.2005 20.2746 19.2005 21.6Z" fill="black"/>
</svg>
