<svg width="24" height="24" viewBox="0 0 24 24" fill="none" xmlns="http://www.w3.org/2000/svg">
<path d="M17.9051 12.0549C17.4501 12.0549 17.0801 12.4249 17.0801 12.8799V15.8949C17.0801 16.3499 17.4501 16.7199 17.9051 16.7199C18.3601 16.7199 18.7301 16.3499 18.7301 15.8949V12.8799C18.7301 12.4249 18.3601 12.0549 17.9051 12.0549Z" fill="black"/>
<path d="M23.7551 11.14L21.8076 8.36745H22.4201C22.7176 8.36745 22.9926 8.20745 23.1401 7.94745C23.2851 7.68745 23.2826 7.36995 23.1276 7.11495L19.2751 0.729953C19.2751 0.729953 19.2626 0.707453 19.2551 0.699953C18.7801 -0.015047 17.8201 -0.215047 17.1201 0.249953C17.0726 0.279953 17.0301 0.317453 16.9901 0.357453L16.7751 0.572453C16.7276 0.619953 16.6851 0.672453 16.6501 0.729953L12.7976 7.11495C12.6451 7.36995 12.6401 7.68745 12.7851 7.94745C12.9326 8.20745 13.2076 8.36745 13.5051 8.36745H14.1176L12.1351 11.19C11.8551 11.655 11.8476 12.2125 12.1101 12.6775C12.4076 13.2025 12.9976 13.5425 13.6126 13.5425H22.3101C22.9251 13.5425 23.5151 13.2025 23.8126 12.6775C24.0776 12.2125 24.0676 11.655 23.7551 11.14ZM13.6826 11.8575L16.3801 8.01745C16.5576 7.76495 16.5801 7.43495 16.4376 7.16245C16.2951 6.88995 16.0126 6.71745 15.7051 6.71745H14.9651L17.9601 1.75245L20.9551 6.71745H20.2151C19.9076 6.71745 19.6251 6.88995 19.4826 7.16245C19.3401 7.43495 19.3626 7.76495 19.5401 8.01745L22.2651 11.89L13.6801 11.8575H13.6826Z" fill="#29D305"/>
<path d="M1.24518 18.6275C2.81768 17.24 4.76018 16.5325 6.75018 16.615C7.74018 16.615 9.11268 17.1675 10.5627 17.7525C12.5302 18.5475 14.8877 19.5 17.3577 19.5C19.4777 19.5 21.6777 18.8 23.7802 16.695C24.0727 16.4025 24.0727 15.9275 23.7802 15.635C23.4877 15.3425 23.0127 15.3425 22.7202 15.635C18.8652 19.4875 14.7527 17.83 11.1227 16.3625C9.46518 15.6925 8.03518 15.115 6.78518 15.115C4.45018 15.02 2.12268 15.855 0.255181 17.5025C-0.0548193 17.7775 -0.0848193 18.25 0.187681 18.56C0.462681 18.87 0.935181 18.9025 1.24518 18.6275Z" fill="black"/>
<path d="M22.7202 20.1351C18.8652 23.9876 14.7527 22.3275 11.1227 20.8625C9.46518 20.1925 8.03518 19.6151 6.78518 19.6151C4.45018 19.5126 2.12268 20.3551 0.255181 22.0026C-0.0548193 22.2776 -0.0848193 22.7501 0.187681 23.0601C0.462681 23.37 0.935181 23.4001 1.24518 23.1276C2.81768 21.7401 4.76018 21.0251 6.75018 21.1151C7.74018 21.1151 9.11268 21.6676 10.5627 22.2526C12.5302 23.0476 14.8877 24.0001 17.3577 24.0001C19.4777 24.0001 21.6777 23.3001 23.7802 21.1951C24.0727 20.9026 24.0727 20.4276 23.7802 20.1351C23.4877 19.8426 23.0127 19.8426 22.7202 20.1351Z" fill="black"/>
<path d="M9.0949 10.02C8.8024 9.7275 8.3274 9.7275 8.0349 10.02L7.1149 10.94V0.75C7.1149 0.335 6.7799 0 6.3649 0C5.9499 0 5.6149 0.335 5.6149 0.75V10.94L4.6949 10.02C4.4024 9.7275 3.9274 9.7275 3.6349 10.02C3.3424 10.3125 3.3424 10.7875 3.6349 11.08L5.8349 13.28C5.8699 13.315 5.9074 13.345 5.9499 13.3725C5.9674 13.385 5.9899 13.3925 6.0074 13.405C6.0299 13.4175 6.0524 13.4325 6.0774 13.4425C6.1024 13.4525 6.1274 13.46 6.1549 13.4675C6.1749 13.4725 6.1974 13.4825 6.2174 13.4875C6.2649 13.4975 6.3149 13.5025 6.3649 13.5025C6.4149 13.5025 6.4624 13.4975 6.5124 13.4875C6.5349 13.4825 6.5549 13.475 6.5749 13.47C6.5999 13.4625 6.6274 13.4575 6.6524 13.445C6.6774 13.435 6.6999 13.42 6.7224 13.4075C6.7424 13.3975 6.7624 13.3875 6.7824 13.375C6.8224 13.3475 6.8624 13.3175 6.8974 13.2825L9.0974 11.0825C9.3899 10.79 9.3899 10.315 9.0974 10.0225L9.0949 10.02Z" fill="black"/>
</svg>
