<svg width="24" height="24" viewBox="0 0 24 24" fill="none" xmlns="http://www.w3.org/2000/svg">
<path d="M21.502 8.9751H15.702L14.052 3.4001H19.502C19.927 3.4001 20.252 3.0751 20.252 2.6501C20.252 2.2251 19.927 1.9001 19.502 1.9001H13.627L13.252 0.625098C13.152 0.300098 12.877 0.100098 12.552 0.100098C12.552 0.100098 12.527 0.100098 12.502 0.100098C12.502 0.100098 12.477 0.100098 12.452 0.100098C12.127 0.100098 11.852 0.325098 11.752 0.625098L11.377 1.9001H5.50195C5.07695 1.9001 4.75195 2.2251 4.75195 2.6501C4.75195 3.0751 5.07695 3.4001 5.50195 3.4001H10.952L9.30195 8.9751H3.50195C3.07695 8.9751 2.75195 9.3001 2.75195 9.7251C2.75195 10.1501 3.07695 10.4751 3.50195 10.4751H8.85195L5.15195 23.0501C5.15195 23.0501 5.15195 23.0501 5.15195 23.0751C5.15195 23.1001 5.15195 23.1251 5.15195 23.1501C5.15195 23.1501 5.15195 23.2001 5.15195 23.2251C5.15195 23.2251 5.15195 23.2751 5.15195 23.3001C5.15195 23.3001 5.15195 23.3501 5.15195 23.3751C5.15195 23.3751 5.15195 23.4251 5.15195 23.4501C5.15195 23.4501 5.15195 23.5001 5.15195 23.5251C5.15195 23.5251 5.15195 23.5751 5.17695 23.6001C5.17695 23.6001 5.17695 23.6501 5.20195 23.6751C5.20195 23.6751 5.22695 23.7251 5.25195 23.7251C5.25195 23.7251 5.27695 23.7751 5.30195 23.7751C5.30195 23.7751 5.30195 23.7751 5.30195 23.8001C5.30195 23.8001 5.35195 23.8251 5.35195 23.8501C5.35195 23.8501 5.40195 23.8751 5.40195 23.9001C5.40195 23.9001 5.45195 23.9001 5.45195 23.9251C5.47695 23.9251 5.50195 23.9251 5.52695 23.9501C5.52695 23.9501 5.52695 23.9501 5.55195 23.9501C5.55195 23.9501 5.57695 23.9501 5.60195 23.9501C5.60195 23.9501 5.62695 23.9501 5.65195 23.9501C5.70195 23.9501 5.72695 23.9501 5.77695 23.9501C5.82695 23.9501 5.87695 23.9501 5.90195 23.9501C5.90195 23.9501 5.92695 23.9501 5.95195 23.9501C5.97695 23.9501 6.00195 23.9501 6.05195 23.9251C6.05195 23.9251 6.07695 23.9251 6.10195 23.9251C6.12695 23.9251 6.15195 23.9001 6.17695 23.8751C6.17695 23.8751 6.20195 23.8751 6.22695 23.8751C6.27695 23.8501 6.30195 23.8251 6.32695 23.7751L12.427 17.5251L18.527 23.7751C18.552 23.8001 18.602 23.8501 18.627 23.8751C18.627 23.8751 18.627 23.8751 18.652 23.8751C18.677 23.8751 18.702 23.9001 18.727 23.9251C18.727 23.9251 18.752 23.9251 18.777 23.9251C18.802 23.9251 18.827 23.9251 18.877 23.9501C18.877 23.9501 18.877 23.9501 18.927 23.9501C18.977 23.9501 19.027 23.9501 19.052 23.9501C19.077 23.9501 19.127 23.9501 19.177 23.9501C19.177 23.9501 19.202 23.9501 19.227 23.9501C19.227 23.9501 19.252 23.9501 19.277 23.9501C19.277 23.9501 19.277 23.9501 19.302 23.9501C19.327 23.9501 19.352 23.9501 19.377 23.9251C19.377 23.9251 19.427 23.9251 19.427 23.9001C19.427 23.9001 19.477 23.8751 19.477 23.8501C19.477 23.8501 19.527 23.8251 19.527 23.8001C19.527 23.8001 19.527 23.8001 19.527 23.7751C19.527 23.7751 19.552 23.7251 19.577 23.7251C19.577 23.7251 19.602 23.6751 19.627 23.6751C19.627 23.6751 19.627 23.6251 19.652 23.6001C19.652 23.6001 19.652 23.5501 19.677 23.5251C19.677 23.5251 19.677 23.4751 19.677 23.4501C19.677 23.4501 19.677 23.4001 19.677 23.3751C19.677 23.3751 19.677 23.3251 19.677 23.3001C19.677 23.3001 19.677 23.2501 19.677 23.2251C19.677 23.2251 19.677 23.1751 19.677 23.1501C19.677 23.1251 19.677 23.1001 19.677 23.0751C19.677 23.0751 19.677 23.0751 19.677 23.0501L15.977 10.4751H21.327C21.752 10.4751 22.077 10.1501 22.077 9.7251C22.077 9.3001 21.752 8.9751 21.327 8.9751H21.502ZM12.502 3.4001L14.152 8.9751H10.852L12.502 3.4001ZM7.42695 20.5751L9.30195 14.2501L11.452 16.4501L7.42695 20.5751ZM17.577 20.5751L13.552 16.4501L15.702 14.2501L17.577 20.5751ZM15.227 12.6251L12.502 15.4001L9.77695 12.6251L10.402 10.5001H14.577L15.202 12.6501L15.227 12.6251Z" fill="black"/>
<path d="M18.3269 6.30005C17.6769 6.30005 17.1519 5.77505 17.1519 5.12505V4.42505H19.4769V5.12505C19.4769 5.77505 18.9519 6.30005 18.3019 6.30005H18.3269Z" fill="#29D305"/>
<path d="M6.67695 6.30005C6.02695 6.30005 5.50195 5.77505 5.50195 5.12505V4.42505H7.82695V5.12505C7.82695 5.77505 7.30195 6.30005 6.65195 6.30005H6.67695Z" fill="#29D305"/>
<path d="M20.3269 13.4001C19.6769 13.4001 19.1519 12.8751 19.1519 12.2251V11.5251H21.4769V12.2251C21.4769 12.8751 20.9519 13.4001 20.3019 13.4001H20.3269Z" fill="#29D305"/>
<path d="M4.67695 13.4001C4.02695 13.4001 3.50195 12.8751 3.50195 12.2251V11.5251H5.82695V12.2251C5.82695 12.8751 5.30195 13.4001 4.65195 13.4001H4.67695Z" fill="#29D305"/>
</svg>
