<svg width="24" height="24" fill="none" xmlns="http://www.w3.org/2000/svg"><path d="M20.54 11.605l1.635 1.615a.72.72 0 00.5.205.71.71 0 00.5-1.215l-9.62-9.495a2.137 2.137 0 00-1.41-.66.679.679 0 00-.29 0 2.116 2.116 0 00-1.395.64L3.67 9.4.825 12.205a.71.71 0 001 1.01L3.46 11.6v8.225a2.14 2.14 0 002.135 2.135h12.81a2.14 2.14 0 002.135-2.135v-8.22zm-2.135 8.935H5.595c-.39 0-.71-.32-.71-.71V10.2l6.595-6.515A.711.711 0 0112 3.46c.195 0 .385.08.54.245l6.575 6.495v9.625c0 .395-.32.715-.71.715z" fill="#000"/><g clip-path="url(#clip0)"><path fill-rule="evenodd" clip-rule="evenodd" d="M12.765 12.015L13.477 7l-4.092 7.485h2.35l-.712 5.015 4.092-7.485h-2.35z" fill="#000"/></g><defs><clipPath id="clip0"><path fill="#fff" d="M6 7h12.5v12.5H6z"/></clipPath></defs></svg>