<svg width="24" height="24" viewBox="0 0 24 24" fill="none" xmlns="http://www.w3.org/2000/svg">
<path fill-rule="evenodd" clip-rule="evenodd" d="M10.7272 3.1255L6.36012 1.6349L6.39269 1.43862H16.7473C17.2823 1.43862 17.7353 1.84449 17.7353 2.35674C17.7353 2.74765 18.0816 3.07317 18.5216 3.07317C18.9612 3.07317 19.308 2.74234 19.308 2.35674C19.308 1.06753 18.1615 0 16.741 0H3.5999C2.82917 0 2.22 0.572564 2.22 1.2632V20.411C2.22597 20.8872 2.50695 21.314 2.9741 21.5346C2.99883 21.546 3.02036 21.5559 3.0471 21.5658L9.51263 23.8906C9.71523 23.962 9.92276 24 10.1289 24C10.4667 24 10.7977 23.9072 11.0809 23.7279C11.5405 23.4402 11.8087 22.9648 11.8087 22.4605V21.105H16.741C18.1615 21.105 19.308 20.0375 19.308 18.7483V17.2164C19.308 16.8255 18.9617 16.5 18.5216 16.5C18.0821 16.5 17.7353 16.8308 17.7353 17.2164V18.7483C17.7353 19.2605 17.2823 19.6664 16.7473 19.6664H11.815V4.56108C11.815 3.9295 11.3781 3.349 10.7272 3.1255ZM3.79896 2.29627L10.2297 4.49474V22.5982L3.79896 20.2868V2.29627Z" fill="black"/>
<path d="M15.7076 9.81685L16.1199 9.20336L17.4398 7.49999L19.9417 4.13952C20.1177 3.89814 20.5049 3.99369 20.5099 4.24512C20.5149 4.49655 19.9618 8.01657 19.8713 8.56972C19.8698 8.5803 19.8706 8.59105 19.8733 8.60135C19.8761 8.61165 19.8809 8.6213 19.8875 8.62972C19.894 8.63814 19.9022 8.64518 19.9115 8.65042C19.9208 8.65566 19.9311 8.65899 19.9417 8.66023L21.1636 8.85635C21.303 8.87653 21.432 8.94189 21.5307 9.04241C21.6311 9.14091 21.7039 9.26402 21.7419 9.39944C21.7745 9.53495 21.7745 9.67628 21.7419 9.81179C21.717 9.95099 21.662 10.0831 21.581 10.199L20.1898 12L17.3067 15.8864C17.2709 15.9354 17.2201 15.9713 17.1619 15.9886C17.1037 16.0058 17.0415 16.0035 16.9848 15.9819C16.9275 15.9587 16.8799 15.9167 16.8497 15.8628C16.8195 15.8088 16.8086 15.7462 16.8189 15.6852L17.4374 11.4612C17.4395 11.4483 17.439 11.435 17.4358 11.4223C17.4325 11.4096 17.4267 11.3977 17.4187 11.3873C17.4107 11.3769 17.4006 11.3683 17.3891 11.362C17.3776 11.3557 17.365 11.3518 17.3519 11.3506L16.1501 11.1595C16.0258 11.1399 15.9081 11.0908 15.8066 11.0165C15.7051 10.9421 15.6229 10.8446 15.5668 10.7321C15.5051 10.5811 15.4857 10.4162 15.5105 10.255C15.5353 10.0938 15.6034 9.94233 15.7076 9.81685Z" fill="black"/>
</svg>
