<svg width="24" height="24" fill="none" xmlns="http://www.w3.org/2000/svg"><path d="M8.25 24c-.414 0-.75-.358-.75-.8V7.6L2 3.2H.75C.336 3.2 0 2.842 0 2.4c0-.442.336-.8.75-.8h.75V.8c0-.442.336-.8.75-.8S3 .358 3 .8v.8h1.5V.8c0-.442.336-.8.75-.8S6 .358 6 .8v.8h4.5V.8c0-.442.336-.8.75-.8s.75.358.75.8v.8h1.5V.8c0-.442.336-.8.75-.8s.75.358.75.8v.8h.75c.414 0 .75.358.75.8 0 .442-.336.8-.75.8H14.5L9 7.6v15.6c0 .442-.336.8-.75.8zm0-17.8l3.75-3H4.5l3.75 3z" fill="#000"/><path d="M17.25 24c-.414 0-.75-.358-.75-.8v-7.668L12.439 11.2H11.25c-.414 0-.75-.358-.75-.8 0-.442.336-.8.75-.8H12v-.8c0-.442.336-.8.75-.8s.75.358.75.8v.8H21v-.8c0-.442.336-.8.75-.8s.75.358.75.8v.8h.75c.414 0 .75.358.75.8 0 .442-.336.8-.75.8h-1.189L18 15.532V23.2c0 .442-.336.8-.75.8zm0-9.932l2.689-2.868H14.56l2.69 2.868z" fill="#000"/></svg>