<svg width="24" height="24" viewBox="0 0 24 24" fill="none" xmlns="http://www.w3.org/2000/svg">
<path fill-rule="evenodd" clip-rule="evenodd" d="M5 0C5.41421 0 5.75 0.335786 5.75 0.75V4.5H10.25V0.75C10.25 0.335786 10.5858 0 11 0C11.4142 0 11.75 0.335786 11.75 0.75V4.5H12.5C13.0967 4.5 13.669 4.73705 14.091 5.15901C14.5129 5.58097 14.75 6.15326 14.75 6.75V9.75C14.75 11.5402 14.0388 13.2571 12.773 14.523C11.6852 15.6108 10.2643 16.289 8.75 16.4582V18.75C8.75 19.3467 8.98705 19.919 9.40901 20.341C9.83097 20.7629 10.4033 21 11 21C11.5967 21 12.169 20.7629 12.591 20.341C13.0129 19.919 13.25 19.3467 13.25 18.75C13.25 17.7554 13.6451 16.8016 14.3483 16.0983C15.0516 15.3951 16.0054 15 17 15C17.9946 15 18.9484 15.3951 19.6516 16.0983C20.3549 16.8016 20.75 17.7554 20.75 18.75V23.25C20.75 23.6642 20.4142 24 20 24C19.5858 24 19.25 23.6642 19.25 23.25V18.75C19.25 18.1533 19.0129 17.581 18.591 17.159C18.169 16.7371 17.5967 16.5 17 16.5C16.4033 16.5 15.831 16.7371 15.409 17.159C14.9871 17.581 14.75 18.1533 14.75 18.75C14.75 19.7446 14.3549 20.6984 13.6517 21.4017C12.9484 22.1049 11.9946 22.5 11 22.5C10.0054 22.5 9.05161 22.1049 8.34835 21.4017C7.64509 20.6984 7.25 19.7446 7.25 18.75V16.4582C5.73574 16.289 4.31485 15.6108 3.22703 14.523C1.96116 13.2571 1.25 11.5402 1.25 9.75V6.75C1.25 6.15326 1.48705 5.58097 1.90901 5.15901C2.33097 4.73705 2.90326 4.5 3.5 4.5H4.25V0.75C4.25 0.335786 4.58579 0 5 0ZM11.7123 13.4623C10.7277 14.4469 9.39239 15 8 15C6.60761 15 5.27226 14.4469 4.28769 13.4623C3.30312 12.4777 2.75 11.1424 2.75 9.75V6.75C2.75 6.55109 2.82902 6.36032 2.96967 6.21967C3.11032 6.07902 3.30109 6 3.5 6H5H11H12.5C12.6989 6 12.8897 6.07902 13.0303 6.21967C13.171 6.36032 13.25 6.55109 13.25 6.75V9.75C13.25 11.1424 12.6969 12.4777 11.7123 13.4623ZM7.5 7.5C7.08579 7.5 6.75 7.83579 6.75 8.25C6.75 8.66421 7.08579 9 7.5 9H10.5C10.9142 9 11.25 8.66421 11.25 8.25C11.25 7.83579 10.9142 7.5 10.5 7.5H7.5Z" fill="black"/>
<path d="M17.9376 5.81685L18.3499 5.20336L19.6698 3.49999L22.1717 0.139516C22.3477 -0.101858 22.7349 -0.00631408 22.7399 0.245116C22.7449 0.496547 22.1918 4.01657 22.1013 4.56972C22.0999 4.5803 22.1006 4.59105 22.1034 4.60135C22.1061 4.61165 22.111 4.6213 22.1175 4.62972C22.1241 4.63814 22.1322 4.64518 22.1415 4.65042C22.1508 4.65566 22.1611 4.65899 22.1717 4.66023L23.3936 4.85635C23.533 4.87653 23.662 4.94189 23.7607 5.04241C23.8611 5.14091 23.9339 5.26402 23.9719 5.39944C24.0046 5.53495 24.0046 5.67628 23.9719 5.81179C23.947 5.95099 23.8921 6.08311 23.811 6.19899L22.4198 7.99998L19.5367 11.8864C19.5009 11.9354 19.4501 11.9713 19.3919 11.9886C19.3338 12.0058 19.2715 12.0035 19.2148 11.9819C19.1575 11.9587 19.1099 11.9167 19.0797 11.8628C19.0495 11.8088 19.0387 11.7462 19.0489 11.6852L19.6674 7.4612C19.6695 7.44826 19.669 7.43502 19.6658 7.4223C19.6626 7.40959 19.6568 7.39767 19.6487 7.38729C19.6407 7.37691 19.6306 7.3683 19.6192 7.36198C19.6077 7.35566 19.595 7.35178 19.5819 7.35057L18.3801 7.15948C18.2558 7.13986 18.1381 7.09083 18.0366 7.01648C17.9352 6.94213 17.8529 6.84462 17.7968 6.73205C17.7351 6.58106 17.7157 6.41615 17.7405 6.25496C17.7653 6.09376 17.8334 5.94233 17.9376 5.81685Z" fill="black"/>
</svg>
