<svg width="24" height="24" fill="none" xmlns="http://www.w3.org/2000/svg"><path d="M19.38 6.454L21.399 1l-6.41 7.405 2.636.571-2.018 5.454 6.411-7.405-2.636-.57z" fill="#29D305"/><path fill-rule="evenodd" clip-rule="evenodd" d="M9.727 3.126L5.36 1.635l.033-.196h10.354c.535 0 .988.405.988.918 0 .39.347.716.787.716.44 0 .786-.33.786-.716 0-1.29-1.146-2.357-2.567-2.357H2.6c-.77 0-1.38.573-1.38 1.263v19.148c.006.476.287.903.754 1.124a.972.972 0 00.073.03l6.466 2.326c.202.071.41.109.616.109.338 0 .669-.093.952-.272.46-.288.728-.763.728-1.268v-1.355h4.932c1.42 0 2.567-1.067 2.567-2.357V15.53c0-.39-.346-.716-.786-.716-.44 0-.787.33-.787.716v3.22c0 .512-.453.917-.988.917h-4.932V4.561c0-.631-.437-1.212-1.088-1.435zM2.8 2.296l6.43 2.199v18.103L2.8 20.287V2.297z" fill="#000"/></svg>