<svg width="24" height="24" viewBox="0 0 24 24" fill="none" xmlns="http://www.w3.org/2000/svg">
<path d="M3.749 22C3.335 22 2.999 21.6621 2.999 21.2458V10.246L1.279 11.9754C1.138 12.1172 0.949 12.1956 0.749 12.1956C0.549 12.1956 0.36 12.1172 0.219 11.9744C-0.073 11.6808 -0.073 11.2021 0.219 10.9075L10.409 0.661669C10.833 0.235305 11.398 0 12 0C12.601 0 13.166 0.235305 13.591 0.661669L15.797 2.87997L20.999 8.11098L23.779 10.9065C24.071 11.2001 24.071 11.6788 23.779 11.9734C23.637 12.1162 23.449 12.1946 23.249 12.1946C23.049 12.1946 22.86 12.1162 22.719 11.9734L20.999 10.2441L19.499 8.73608L12.53 1.72959C12.389 1.58781 12.201 1.50937 12 1.50937C11.799 1.50937 11.611 1.58781 11.469 1.72959L4.499 8.73777V20.4916H6.5C6.5 20.4916 7.5 20.4916 7.5 21.2458C7.5 22 6.5 22 6.5 22H3.749Z" fill="black"/>
<path d="M20.2353 11H9.76471C8.82353 11 8 11.8426 8 12.8056V22.1944C8 23.1574 8.82353 24 9.76471 24H20.2353C21.1765 24 22 23.1574 22 22.1944V12.8056C22 11.8426 21.1765 11 20.2353 11ZM20.4706 21.8333C20.4706 22.1944 20.2353 22.4352 19.8824 22.4352H10C9.64706 22.4352 9.41177 22.1944 9.41177 21.8333V13.0463C9.41177 12.6852 9.64706 12.4444 10 12.4444H19.8824C20.2353 12.4444 20.4706 12.6852 20.4706 13.0463V21.8333Z" fill="black"/>
<path d="M12.8057 17.3626L13.1149 16.9025L14.1049 15.625L15.9812 13.1046C16.1132 12.9236 16.4036 12.9953 16.4074 13.1838C16.4112 13.3724 15.9963 16.0124 15.9284 16.4273C15.9274 16.4352 15.9279 16.4433 15.93 16.451C15.9321 16.4587 15.9357 16.466 15.9406 16.4723C15.9455 16.4786 15.9517 16.4839 15.9586 16.4878C15.9656 16.4917 15.9733 16.4942 15.9812 16.4952L16.8977 16.6423C17.0023 16.6574 17.099 16.7064 17.173 16.7818C17.2483 16.8557 17.3029 16.948 17.3314 17.0496C17.3559 17.1512 17.3559 17.2572 17.3314 17.3588C17.3127 17.4632 17.2715 17.5623 17.2107 17.6492L16.1674 19L14.005 21.9148C13.9782 21.9515 13.94 21.9785 13.8964 21.9914C13.8528 22.0044 13.8062 22.0026 13.7636 21.9864C13.7207 21.9691 13.6849 21.9375 13.6623 21.8971C13.6396 21.8566 13.6315 21.8096 13.6392 21.7639L14.1031 18.5959C14.1047 18.5862 14.1042 18.5763 14.1018 18.5667C14.0994 18.5572 14.0951 18.5483 14.0891 18.5405C14.083 18.5327 14.0755 18.5262 14.0669 18.5215C14.0582 18.5167 14.0487 18.5138 14.0389 18.5129L13.1376 18.3696C13.0444 18.3549 12.9561 18.3181 12.88 18.2624C12.8039 18.2066 12.7422 18.1335 12.7001 18.049C12.6538 17.9358 12.6392 17.8121 12.6578 17.6912C12.6764 17.5703 12.7275 17.4567 12.8057 17.3626Z" fill="#29D305"/>
</svg>
