<svg width="24" height="24" viewBox="0 0 24 24" fill="none" xmlns="http://www.w3.org/2000/svg">
<path fill-rule="evenodd" clip-rule="evenodd" d="M7.5 23.2C7.5 23.6416 7.836 24 8.25 24C8.664 24 9 23.6416 9 23.2V7.6L14.5 3.2H15.75C16.164 3.2 16.5 2.8416 16.5 2.4C16.5 1.9584 16.164 1.6 15.75 1.6H15V0.8C15 0.3584 14.664 0 14.25 0C13.836 0 13.5 0.3584 13.5 0.8V1.6H12V0.8C12 0.3584 11.664 0 11.25 0C10.836 0 10.5 0.3584 10.5 0.8V1.6H6V0.8C6 0.3584 5.664 0 5.25 0C4.836 0 4.5 0.3584 4.5 0.8V1.6H3V0.8C3 0.3584 2.664 0 2.25 0C1.836 0 1.5 0.3584 1.5 0.8V1.6H0.75C0.336 1.6 0 1.9584 0 2.4C0 2.8416 0.336 3.2 0.75 3.2H2L7.5 7.6V23.2ZM12 3.2L8.25 6.19947L4.5 3.2H12ZM16.5 23.2C16.5 23.6416 16.836 24 17.25 24C17.664 24 18 23.6416 18 23.2V15.5317L22.061 11.2H23.25C23.664 11.2 24 10.8416 24 10.4C24 9.9584 23.664 9.6 23.25 9.6H22.5V8.8C22.5 8.3584 22.164 8 21.75 8C21.336 8 21 8.3584 21 8.8V9.6H13.5V8.8C13.5 8.3584 13.164 8 12.75 8C12.336 8 12 8.3584 12 8.8V9.6H11.25C10.836 9.6 10.5 9.9584 10.5 10.4C10.5 10.8416 10.836 11.2 11.25 11.2H12.439L16.5 15.5317V23.2ZM19.939 11.2L17.25 14.0683L14.56 11.2H19.939Z" fill="black"/>
</svg>
