<svg width="24" height="24" viewBox="0 0 24 24" fill="none" xmlns="http://www.w3.org/2000/svg">
<path d="M21.0008 11.5836L22.724 13.2861C22.8716 13.4285 23.0613 13.5023 23.251 13.5023C23.446 13.5023 23.6357 13.4285 23.7833 13.2809C24.0731 12.9857 24.0731 12.5113 23.778 12.2214L13.6389 2.2116C13.2489 1.79518 12.7167 1.55798 12.1528 1.51581C12.1054 1.50527 12.0527 1.5 12 1.5C11.9473 1.5 11.8946 1.50527 11.8472 1.51581C11.2833 1.55271 10.7511 1.79518 10.3769 2.19051L3.22051 9.25904L0.221995 12.2161C-0.073114 12.506 -0.073114 12.9804 0.216725 13.2756C0.364279 13.4232 0.559262 13.497 0.748975 13.497C0.938688 13.497 1.1284 13.4232 1.27596 13.2809L2.99918 11.5783V20.2492C2.99918 21.488 4.01098 22.5 5.24938 22.5H18.7506C19.989 22.5 21.0008 21.488 21.0008 20.2492V11.5836ZM18.7506 21.003H5.24938C4.83834 21.003 4.50107 20.6657 4.50107 20.2545V10.1024L11.4519 3.23419C11.5942 3.08133 11.7945 2.99699 12 2.99699C12.2055 2.99699 12.4058 3.08133 12.5691 3.25527L19.4989 10.1024V20.2492C19.4989 20.6657 19.1617 21.003 18.7506 21.003Z" fill="black"/>
<path d="M9.19621 13.3321L9.58596 12.7697L10.8336 11.2083L13.1983 8.12789C13.3647 7.90663 13.7307 7.99421 13.7354 8.22469C13.7402 8.45517 13.2173 11.6819 13.1318 12.1889C13.1304 12.1986 13.1311 12.2085 13.1338 12.2179C13.1364 12.2273 13.1409 12.2362 13.1471 12.2439C13.1533 12.2516 13.161 12.2581 13.1698 12.2629C13.1786 12.2677 13.1883 12.2707 13.1983 12.2719L14.3533 12.4517C14.4851 12.4701 14.607 12.5301 14.7003 12.6222C14.7952 12.7125 14.864 12.8253 14.8999 12.9495C14.9308 13.0737 14.9308 13.2033 14.8999 13.3275C14.8764 13.4551 14.8245 13.5762 14.7478 13.6824L13.4329 15.3333L10.7077 18.8958C10.6739 18.9408 10.6258 18.9737 10.5709 18.9895C10.5159 19.0053 10.4571 19.0032 10.4035 18.9834C10.3493 18.9622 10.3043 18.9236 10.2758 18.8742C10.2472 18.8247 10.237 18.7673 10.2466 18.7115L10.8313 14.8394C10.8333 14.8276 10.8328 14.8154 10.8297 14.8038C10.8267 14.7921 10.8212 14.7812 10.8136 14.7717C10.806 14.7622 10.7965 14.7543 10.7857 14.7485C10.7748 14.7427 10.7628 14.7391 10.7505 14.738L9.61448 14.5629C9.49704 14.5449 9.38573 14.4999 9.28982 14.4318C9.19391 14.3636 9.11619 14.2742 9.06312 14.171C9.00485 14.0326 8.98645 13.8815 9.00989 13.7337C9.03333 13.5859 9.09773 13.4471 9.19621 13.3321Z" fill="#29D305"/>
</svg>
