<svg width="24" height="24" fill="none" xmlns="http://www.w3.org/2000/svg"><path d="M3.749 22a.752.752 0 01-.75-.754v-11l-1.72 1.73a.744.744 0 01-1.06-.002.76.76 0 010-1.066L10.409.662A2.229 2.229 0 0112 0c.601 0 1.166.235 1.591.662l2.206 2.218 5.202 5.231 2.78 2.795a.76.76 0 010 1.067.742.742 0 01-1.06 0l-1.72-1.729-1.5-1.508L12.53 1.73a.746.746 0 00-1.061 0l-6.97 7.008v11.754H6.5s1 0 1 .754-1 .754-1 .754H3.749z" fill="#000"/><path d="M20.235 11H9.765C8.824 11 8 11.843 8 12.806v9.388C8 23.157 8.824 24 9.765 24h10.47c.942 0 1.765-.843 1.765-1.806v-9.388c0-.963-.823-1.806-1.765-1.806zm.236 10.833c0 .361-.236.602-.589.602H10c-.353 0-.588-.24-.588-.602v-8.787c0-.36.235-.602.588-.602h9.882c.353 0 .589.241.589.602v8.787z" fill="#000"/><path fill-rule="evenodd" clip-rule="evenodd" d="M15.411 16.571l.535-3.771-3.076 5.629h1.766l-.535 3.771 3.077-5.629H15.41z" fill="#29D305"/></svg>