<svg width="24" height="24" fill="none" xmlns="http://www.w3.org/2000/svg"><path fill-rule="evenodd" clip-rule="evenodd" d="M20.54 5.715L21.284.5 17 8.285h2.46l-.745 5.215L23 5.715h-2.46z" fill="#29D305"/><path fill-rule="evenodd" clip-rule="evenodd" d="M5 0a.75.75 0 01.75.75V4.5h4.5V.75a.75.75 0 011.5 0V4.5h.75a2.25 2.25 0 012.25 2.25v3a6.75 6.75 0 01-6 6.708v2.292a2.25 2.25 0 004.5 0 3.75 3.75 0 017.5 0v4.5a.75.75 0 01-1.5 0v-4.5a2.25 2.25 0 00-4.5 0 3.75 3.75 0 01-7.5 0v-2.292a6.75 6.75 0 01-6-6.708v-3A2.25 2.25 0 013.5 4.5h.75V.75A.75.75 0 015 0zm6.712 13.462A5.25 5.25 0 012.75 9.75v-3A.75.75 0 013.5 6h9a.75.75 0 01.75.75v3a5.25 5.25 0 01-1.538 3.712zM7.5 7.5a.75.75 0 000 1.5h3a.75.75 0 000-1.5h-3z" fill="#000"/></svg>