<svg width="24" height="24" viewBox="0 0 24 24" fill="none" xmlns="http://www.w3.org/2000/svg">
<path d="M21.498 8.92505H15.698L14.048 3.35005H19.498C19.923 3.35005 20.248 3.02505 20.248 2.60005C20.248 2.17505 19.923 1.85005 19.498 1.85005H13.623L13.248 0.575049C13.148 0.250049 12.873 0.0500488 12.548 0.0500488C12.548 0.0500488 12.523 0.0500488 12.498 0.0500488C12.498 0.0500488 12.473 0.0500488 12.448 0.0500488C12.123 0.0500488 11.848 0.275049 11.748 0.575049L11.373 1.85005H5.49805C5.07305 1.85005 4.74805 2.17505 4.74805 2.60005C4.74805 3.02505 5.07305 3.35005 5.49805 3.35005H10.948L9.29805 8.92505H3.49805C3.07305 8.92505 2.74805 9.25005 2.74805 9.67505C2.74805 10.1 3.07305 10.425 3.49805 10.425H8.84805L5.14805 23C5.14805 23 5.14805 23 5.14805 23.025C5.14805 23.05 5.14805 23.075 5.14805 23.1C5.14805 23.1 5.14805 23.15 5.14805 23.175C5.14805 23.175 5.14805 23.225 5.14805 23.25C5.14805 23.25 5.14805 23.3001 5.14805 23.3251C5.14805 23.3251 5.14805 23.375 5.14805 23.4C5.14805 23.4 5.14805 23.45 5.14805 23.475C5.14805 23.475 5.14805 23.525 5.17305 23.55C5.17305 23.55 5.17305 23.6 5.19805 23.625C5.19805 23.625 5.22305 23.675 5.24805 23.675C5.24805 23.675 5.27305 23.725 5.29805 23.725C5.29805 23.725 5.29805 23.725 5.29805 23.75C5.29805 23.75 5.34805 23.775 5.34805 23.8C5.34805 23.8 5.39805 23.825 5.39805 23.85C5.39805 23.85 5.44805 23.85 5.44805 23.875C5.47305 23.875 5.49805 23.875 5.52305 23.9C5.52305 23.9 5.52305 23.9 5.54805 23.9C5.54805 23.9 5.57305 23.9 5.59805 23.9C5.59805 23.9 5.62305 23.9 5.64805 23.9C5.69805 23.9 5.72305 23.9 5.77305 23.9C5.82305 23.9 5.87305 23.9 5.89805 23.9C5.89805 23.9 5.92305 23.9 5.94805 23.9C5.97305 23.9 5.99805 23.9 6.04805 23.875C6.04805 23.875 6.07305 23.875 6.09805 23.875C6.12305 23.875 6.14805 23.8501 6.17305 23.8251C6.17305 23.8251 6.19805 23.8251 6.22305 23.8251C6.27305 23.8001 6.29805 23.775 6.32305 23.725L12.423 17.475L18.523 23.725C18.548 23.75 18.598 23.8001 18.623 23.8251C18.623 23.8251 18.623 23.8251 18.648 23.8251C18.673 23.8251 18.698 23.85 18.723 23.875C18.723 23.875 18.748 23.875 18.773 23.875C18.798 23.875 18.823 23.875 18.873 23.9C18.873 23.9 18.873 23.9 18.923 23.9C18.973 23.9 19.023 23.9 19.048 23.9C19.073 23.9 19.123 23.9 19.173 23.9C19.173 23.9 19.198 23.9 19.223 23.9C19.223 23.9 19.248 23.9 19.273 23.9C19.273 23.9 19.273 23.9 19.298 23.9C19.323 23.9 19.348 23.9 19.373 23.875C19.373 23.875 19.423 23.875 19.423 23.85C19.423 23.85 19.473 23.825 19.473 23.8C19.473 23.8 19.523 23.775 19.523 23.75C19.523 23.75 19.523 23.75 19.523 23.725C19.523 23.725 19.548 23.675 19.573 23.675C19.573 23.675 19.598 23.625 19.623 23.625C19.623 23.625 19.623 23.575 19.648 23.55C19.648 23.55 19.648 23.5 19.673 23.475C19.673 23.475 19.673 23.425 19.673 23.4C19.673 23.4 19.673 23.3501 19.673 23.3251C19.673 23.3251 19.673 23.275 19.673 23.25C19.673 23.25 19.673 23.2 19.673 23.175C19.673 23.175 19.673 23.125 19.673 23.1C19.673 23.075 19.673 23.05 19.673 23.025C19.673 23.025 19.673 23.025 19.673 23L15.973 10.425H21.323C21.748 10.425 22.073 10.1 22.073 9.67505C22.073 9.25005 21.748 8.92505 21.323 8.92505H21.498ZM12.498 3.35005L14.148 8.92505H10.848L12.498 3.35005ZM7.42305 20.525L9.29805 14.2L11.448 16.4L7.42305 20.525ZM17.573 20.525L13.548 16.4L15.698 14.2L17.573 20.525ZM15.223 12.575L12.498 15.35L9.77305 12.575L10.398 10.45H14.573L15.198 12.6L15.223 12.575Z" fill="black"/>
<path d="M18.323 6.25C17.673 6.25 17.1479 5.725 17.1479 5.075V4.375H19.4729V5.075C19.4729 5.725 18.9479 6.25 18.2979 6.25H18.323Z" fill="black"/>
<path d="M6.67305 6.25C6.02305 6.25 5.49805 5.725 5.49805 5.075V4.375H7.82305V5.075C7.82305 5.725 7.29805 6.25 6.64805 6.25H6.67305Z" fill="black"/>
<path d="M20.323 13.3501C19.673 13.3501 19.1479 12.8251 19.1479 12.1751V11.4751H21.4729V12.1751C21.4729 12.8251 20.9479 13.3501 20.2979 13.3501H20.323Z" fill="black"/>
<path d="M4.67305 13.3501C4.02305 13.3501 3.49805 12.8251 3.49805 12.1751V11.4751H5.82305V12.1751C5.82305 12.8251 5.29805 13.3501 4.64805 13.3501H4.67305Z" fill="black"/>
</svg>
