<svg width="24" height="24" fill="none" xmlns="http://www.w3.org/2000/svg"><path d="M19.969 24a.75.75 0 01-.69-.455l-1.323-3.089-6.238-3.119-6.236 3.118-1.324 3.089a.747.747 0 01-.984.396.752.752 0 01-.395-.985L6.832 13.5H2.874a1.127 1.127 0 01-.795-1.92l4.08-4.08H2.874c-.301 0-.583-.117-.795-.33a1.114 1.114 0 01-.329-.796c0-.3.117-.582.329-.794L7.439.22l.02-.019a.447.447 0 01.035-.029.635.635 0 01.054-.042l.02-.014a.718.718 0 01.061-.033.438.438 0 01.053-.026l.027-.01a.67.67 0 01.128-.035c.027-.005.053-.007.079-.009A.47.47 0 017.969 0h7.487a.63.63 0 01.075.005h.002c.012 0 .042.003.073.009l.059.014a.908.908 0 01.094.031.522.522 0 01.058.029c.01.004.028.013.046.025l.03.02a1.023 1.023 0 01.089.071L21.36 5.58a1.122 1.122 0 01-.001 1.591 1.132 1.132 0 01-.795.329H17.28l4.08 4.08a1.122 1.122 0 01-.001 1.591 1.13 1.13 0 01-.795.329h-3.958l4.052 9.455A.751.751 0 0119.969 24zm-2.928-5.677l-1.287-3.002-2.358 1.179 3.645 1.823zm-10.644-.001l3.644-1.822-2.358-1.179-1.286 3.001zm5.322-2.661l3.444-1.722-.188-.439H8.464l-.188.439 3.443 1.722zM3.78 12h3.44V8.561L3.78 12zm15.878 0l-3.439-3.439V12h3.439zm-5.542 0l-2.397-3.835L9.323 12h4.793zm-5.397-1.865l2.115-3.385-2.115-3.385v6.77zm6 0v-6.77L12.604 6.75l2.115 3.385zM3.78 6h3.44V2.561L3.78 6zm15.878 0l-3.439-3.439V6h3.439zm-7.939-.665L14.116 1.5H9.323l2.396 3.835z" fill="#000"/></svg>