<svg width="24" height="24" fill="none" xmlns="http://www.w3.org/2000/svg"><path fill-rule="evenodd" clip-rule="evenodd" d="M3.75 15.75A.75.75 0 014.5 15H6a.75.75 0 010 1.5H4.5a.75.75 0 01-.75-.75zM17.25 15.75A.75.75 0 0118 15h1.5a.75.75 0 010 1.5H18a.75.75 0 01-.75-.75z" fill="#000"/><path fill-rule="evenodd" clip-rule="evenodd" d="M5.893 7.642A.75.75 0 016.33 7.5a.75.75 0 000-1.5 2.25 2.25 0 00-2.153 1.606l-1.11 4.765-1.66 1.66a2.25 2.25 0 00-.658 1.59v3.129a2.25 2.25 0 001.5 2.121v.879a2.25 2.25 0 004.5 0V21h10.5v.75a2.25 2.25 0 004.5 0v-.879a2.25 2.25 0 001.5-2.121v-3.13a2.25 2.25 0 00-.659-1.59l-1.66-1.659-1.108-4.765A2.25 2.25 0 0017.67 6a.75.75 0 00-.001 1.5.75.75 0 01.702.486L19.305 12H4.695l.934-4.014a.75.75 0 01.264-.344zM20.25 21h-1.5v.75a.75.75 0 101.5 0V21zM18 19.5h3a.75.75 0 00.75-.75v-3.129a.75.75 0 00-.22-.53L19.94 13.5H4.06l-1.59 1.591a.75.75 0 00-.22.53v3.129a.75.75 0 00.75.75h15zM3.75 21.75V21h1.5v.75a.75.75 0 11-1.5 0z" fill="#000"/><path fill-rule="evenodd" clip-rule="evenodd" d="M11.25.75a.75.75 0 00-1.5 0V3H9a.75.75 0 00-.75.75 3.75 3.75 0 003 3.674V9.75a.75.75 0 001.5 0V7.424a3.75 3.75 0 003-3.674A.75.75 0 0015 3h-.75V.75a.75.75 0 00-1.5 0V3h-1.5V.75zM12 6a2.25 2.25 0 002.121-1.5H9.88A2.25 2.25 0 0012 6z" fill="#29D305"/></svg>