<svg width="24" height="24" fill="none" xmlns="http://www.w3.org/2000/svg"><path fill-rule="evenodd" clip-rule="evenodd" d="M7.5 4.02a.77.77 0 00-.77-.77H4.5c-1.241 0-2.25 1.035-2.25 2.308v9.83L.194 20.005a2.336 2.336 0 00-.194.937c0 1.273 1.009 2.308 2.25 2.308v.001h19.5c.317 0 .624-.068.914-.199 1.134-.517 1.646-1.883 1.143-3.046L21.75 15.39V5.558c0-1.273-1.01-2.308-2.25-2.308h-2.23a.77.77 0 000 1.538h2.23a.76.76 0 01.75.77v9.23H3.75v-9.23a.76.76 0 01.75-.77h2.23a.77.77 0 00.77-.769zM1.561 20.636a.774.774 0 00-.061.305c0 .424.337.77.75.77h19.5a.73.73 0 00.305-.067.778.778 0 00.38-1.014l-1.917-4.305H3.482l-1.921 4.31z" fill="#000"/><path d="M10.5 20.168a.76.76 0 01-.75-.769.76.76 0 01.75-.769h3a.76.76 0 01.75.77.76.76 0 01-.75.768h-3z" fill="#29D305"/><path d="M14.536 7.194c.305.284.303.783-.05 1.003a3.862 3.862 0 01-.747.344 4.244 4.244 0 01-1.528.262 3.678 3.678 0 01-2.634-1.091 3.823 3.823 0 01-.786-1.208A3.82 3.82 0 018.5 5.019c0-.533.087-1.028.262-1.484.184-.466.432-.864.742-1.194.32-.34.699-.606 1.135-.8a3.436 3.436 0 011.412-.291c.495 0 .95.097 1.368.291.427.184.79.442 1.091.771.31.33.553.728.728 1.194.175.456.262.955.262 1.499a.407.407 0 01-.408.407h-4.977c.078.573.32 1.048.728 1.426a2.1 2.1 0 001.455.568c.34 0 .66-.058.96-.175.077-.03.149-.064.218-.1.34-.176.78-.199 1.06.063zm-2.5-4.605a1.71 1.71 0 00-1.237.495c-.29.282-.492.646-.605 1.091a.19.19 0 00.189.233h3.32c.125 0 .22-.113.188-.234a2.294 2.294 0 00-.618-1.076c-.34-.34-.752-.51-1.237-.51z" fill="#000"/></svg>