<svg width="24" height="24" viewBox="0 0 24 24" fill="none" xmlns="http://www.w3.org/2000/svg">
<path fill-rule="evenodd" clip-rule="evenodd" d="M7.40447 9.43592V14.5641H16.596V9.43592H7.40447ZM6.89384 7.89746C6.3298 7.89746 5.87256 8.35666 5.87256 8.9231V15.0769C5.87256 15.6434 6.3298 16.1026 6.89383 16.1026H17.1066C17.6706 16.1026 18.1279 15.6434 18.1279 15.0769V8.9231C18.1279 8.35666 17.6706 7.89746 17.1066 7.89746H6.89384Z" fill="#29D305"/>
<path fill-rule="evenodd" clip-rule="evenodd" d="M5.75928 7.01446C5.75928 7.4393 5.41635 7.78369 4.99332 7.78369L0.908214 7.78369C0.485187 7.78369 0.142256 7.43929 0.142256 7.01446C0.142256 6.58963 0.485187 6.24523 0.908214 6.24523L4.22736 6.24523L4.22736 2.9119C4.22736 2.48706 4.57029 2.14267 4.99332 2.14267C5.41635 2.14267 5.75928 2.48706 5.75928 2.9119L5.75928 7.01446Z" fill="black"/>
<path fill-rule="evenodd" clip-rule="evenodd" d="M5.75928 16.8095C5.75928 16.3847 5.41635 16.0403 4.99332 16.0403L0.908214 16.0403C0.485187 16.0403 0.142256 16.3847 0.142256 16.8095C0.142256 17.2343 0.485187 17.5787 0.908213 17.5787L4.22736 17.5787L4.22736 20.9121C4.22736 21.3369 4.57029 21.6813 4.99332 21.6813C5.41635 21.6813 5.75928 21.3369 5.75928 20.9121L5.75928 16.8095Z" fill="black"/>
<path fill-rule="evenodd" clip-rule="evenodd" d="M18.8319 7.78369C18.4088 7.78369 18.0659 7.4393 18.0659 7.01446L18.0659 2.9119C18.0659 2.48706 18.4088 2.14267 18.8319 2.14267C19.2549 2.14267 19.5978 2.48706 19.5978 2.9119L19.5978 6.24523L22.917 6.24523C23.34 6.24523 23.6829 6.58963 23.6829 7.01446C23.6829 7.4393 23.34 7.78369 22.917 7.78369L18.8319 7.78369Z" fill="black"/>
<path fill-rule="evenodd" clip-rule="evenodd" d="M18.8314 16.0403C18.4084 16.0403 18.0654 16.3847 18.0654 16.8095L18.0654 20.9121C18.0654 21.3369 18.4084 21.6813 18.8314 21.6813C19.2544 21.6813 19.5973 21.3369 19.5973 20.9121L19.5973 17.5787L22.9165 17.5787C23.3395 17.5787 23.6825 17.2343 23.6825 16.8095C23.6825 16.3847 23.3395 16.0403 22.9165 16.0403L18.8314 16.0403Z" fill="black"/>
<path fill-rule="evenodd" clip-rule="evenodd" d="M23.4584 2.54396C23.7575 2.84437 23.7575 3.33142 23.4584 3.63182L20.5698 6.53277C20.2707 6.83317 19.7857 6.83317 19.4866 6.53277C19.1874 6.23237 19.1874 5.74532 19.4866 5.44491L22.3752 2.54396C22.6743 2.24356 23.1593 2.24356 23.4584 2.54396Z" fill="black"/>
<path fill-rule="evenodd" clip-rule="evenodd" d="M4.51356 17.4673C4.81269 17.7677 4.81269 18.2548 4.51356 18.5552L1.62496 21.4561C1.32583 21.7565 0.840853 21.7565 0.541728 21.4561C0.242603 21.1557 0.242603 20.6687 0.541728 20.3683L3.43033 17.4673C3.72946 17.1669 4.21444 17.1669 4.51356 17.4673Z" fill="black"/>
<path fill-rule="evenodd" clip-rule="evenodd" d="M0.541614 2.54396C0.242489 2.84437 0.242489 3.33142 0.541614 3.63182L3.43022 6.53277C3.72934 6.83317 4.21432 6.83317 4.51345 6.53277C4.81257 6.23237 4.81257 5.74532 4.51345 5.44491L1.62484 2.54396C1.32572 2.24356 0.840739 2.24356 0.541614 2.54396Z" fill="black"/>
<path fill-rule="evenodd" clip-rule="evenodd" d="M19.4864 17.4673C19.1873 17.7677 19.1873 18.2548 19.4864 18.5552L22.375 21.4561C22.6742 21.7565 23.1591 21.7565 23.4583 21.4561C23.7574 21.1557 23.7574 20.6687 23.4583 20.3683L20.5697 17.4673C20.2705 17.1669 19.7856 17.1669 19.4864 17.4673Z" fill="black"/>
</svg>
