<svg width="24" height="25" viewBox="0 0 24 25" fill="none" xmlns="http://www.w3.org/2000/svg">
<path d="M12 24.0275C5.383 24.0275 0 18.6445 0 12.0275C0 5.41053 5.383 0.0275269 12 0.0275269C18.617 0.0275269 24 5.41053 24 12.0275C24 18.6445 18.617 24.0275 12 24.0275Z" fill="#29D305"/>
<path fill-rule="evenodd" clip-rule="evenodd" d="M12.8129 15.421C12.7063 15.5278 12.5796 15.6124 12.4402 15.6702C12.3007 15.7281 12.1511 15.7579 12 15.7579C11.8489 15.7579 11.6993 15.7281 11.5598 15.6702C11.4204 15.6124 11.2937 15.5278 11.1871 15.421L6.94997 11.1843C6.6167 10.8511 6.61667 10.3108 6.94991 9.97751C7.28315 9.64424 7.82347 9.64421 8.15674 9.97745L12 13.8203L15.8432 9.97745C16.1765 9.64421 16.7168 9.64424 17.0501 9.97751C17.3833 10.3108 17.3833 10.8511 17.05 11.1843L12.8129 15.421Z" fill="black"/>
</svg>
