<svg width="24" height="24" viewBox="0 0 24 24" fill="none" xmlns="http://www.w3.org/2000/svg">
<path d="M12 24C5.383 24 0 18.617 0 12C0 5.383 5.383 0 12 0C18.617 0 24 5.383 24 12C24 18.617 18.617 24 12 24ZM12 1.5C6.21 1.5 1.5 6.21 1.5 12C1.5 17.79 6.21 22.5 12 22.5C17.79 22.5 22.5 17.79 22.5 12C22.5 6.21 17.79 1.5 12 1.5Z" fill="#29D305"/>
<path fill-rule="evenodd" clip-rule="evenodd" d="M12.8129 15.3935C12.7063 15.5002 12.5796 15.5849 12.4402 15.6427C12.3007 15.7006 12.1511 15.7303 12 15.7303C11.8489 15.7303 11.6993 15.7006 11.5598 15.6427C11.4204 15.5849 11.2937 15.5002 11.1871 15.3935L6.94997 11.1568C6.6167 10.8236 6.61667 10.2833 6.94991 9.94998C7.28315 9.61671 7.82347 9.61669 8.15674 9.94993L12 13.7928L15.8432 9.94993C16.1765 9.61669 16.7168 9.61671 17.0501 9.94998C17.3833 10.2833 17.3833 10.8236 17.05 11.1568L12.8129 15.3935Z" fill="black"/>
</svg>
