<svg width="24" height="24" viewBox="0 0 24 24" fill="none" xmlns="http://www.w3.org/2000/svg">
<path fill-rule="evenodd" clip-rule="evenodd" d="M15.0587 4.75C15.0454 4.75 15.0327 4.75527 15.0233 4.76464C15.014 4.77401 15.0087 4.78672 15.0087 4.8V6.19733L15.0085 6.21394C14.99 7.04817 15.2791 7.86006 15.8205 8.49498C16.357 9.12403 17.104 9.53581 17.9218 9.65374C18.0149 9.65985 18.1083 9.65933 18.2014 9.6522C18.2204 9.65073 18.2396 9.65 18.2587 9.65C19.1207 9.65 19.9473 9.30758 20.5568 8.69809C21.1663 8.0886 21.5087 7.26196 21.5087 6.4V4.80769C21.508 4.79265 21.5017 4.77838 21.491 4.7677C21.4803 4.75701 21.4661 4.75072 21.451 4.75H15.0587ZM13.9627 3.70398C14.2534 3.41329 14.6476 3.25 15.0587 3.25H21.4685C21.8753 3.25532 22.264 3.41935 22.5517 3.70704C22.8394 3.99472 23.0033 4.38338 23.0086 4.7902L23.0088 4.8L23.0087 6.4C23.0087 7.65977 22.5083 8.86794 21.6175 9.75875C20.7333 10.6429 19.5365 11.1425 18.2869 11.1499C18.1199 11.1613 17.9523 11.1606 17.7853 11.1478C17.7704 11.1467 17.7555 11.1451 17.7407 11.143C16.5492 10.9795 15.4596 10.3834 14.6792 9.4683C13.9007 8.55542 13.4843 7.38869 13.5087 6.18937V4.8C13.5087 4.38893 13.672 3.99467 13.9627 3.70398Z" fill="black"/>
<path fill-rule="evenodd" clip-rule="evenodd" d="M15.8586 0.0500488C16.2729 0.0500488 16.6086 0.385835 16.6086 0.800049V4.00005C16.6086 4.41426 16.2729 4.75005 15.8586 4.75005C15.4444 4.75005 15.1086 4.41426 15.1086 4.00005V0.800049C15.1086 0.385835 15.4444 0.0500488 15.8586 0.0500488Z" fill="black"/>
<path fill-rule="evenodd" clip-rule="evenodd" d="M20.6587 0.0500488C21.0729 0.0500488 21.4087 0.385835 21.4087 0.800049V4.00005C21.4087 4.41426 21.0729 4.75005 20.6587 4.75005C20.2445 4.75005 19.9087 4.41426 19.9087 4.00005V0.800049C19.9087 0.385835 20.2445 0.0500488 20.6587 0.0500488Z" fill="black"/>
<path fill-rule="evenodd" clip-rule="evenodd" d="M18.2586 9.65002C18.6728 9.65002 19.0086 9.98581 19.0086 10.4V16C19.0086 18.1144 18.4426 20.0919 17.2795 21.5581C16.1008 23.0441 14.3492 23.95 12.1253 23.95C9.97297 23.95 8.14244 23.293 6.84706 22.0237C5.54978 20.7525 4.86865 18.9449 4.86865 16.8C4.86865 15.5662 5.15893 14.2498 5.69018 13.1401C6.21443 12.0452 7.02618 11.0475 8.13691 10.6267C8.52425 10.4799 8.95723 10.6749 9.10398 11.0623C9.25074 11.4496 9.05571 11.8826 8.66836 12.0294C8.06176 12.2592 7.48152 12.8722 7.04311 13.7879C6.6117 14.689 6.36865 15.7832 6.36865 16.8C6.36865 18.6231 6.94084 20.0155 7.89689 20.9523C8.85482 21.891 10.2776 22.45 12.1253 22.45C13.9014 22.45 15.2164 21.7453 16.1044 20.6259C17.008 19.4868 17.5086 17.8644 17.5086 16V10.4C17.5086 9.98581 17.8444 9.65002 18.2586 9.65002Z" fill="black"/>
<path fill-rule="evenodd" clip-rule="evenodd" d="M9.27698 12.324C8.57978 12.0462 7.83274 11.9151 7.08256 11.9389C7.07461 11.9392 7.06666 11.9393 7.05871 11.9393C5.9375 11.9393 4.81184 12.5601 3.94148 13.5374C3.06967 14.5164 2.55005 15.7484 2.55005 16.8C2.55005 17.2142 2.21426 17.55 1.80005 17.55C1.38584 17.55 1.05005 17.2142 1.05005 16.8C1.05005 15.3023 1.76242 13.7289 2.82128 12.5399C3.87902 11.3521 5.37799 10.4437 7.04659 10.4393C7.99898 10.4106 8.94717 10.5778 9.83236 10.9307C10.7212 11.2849 11.5274 11.8187 12.2006 12.4987C12.8738 13.1786 13.3995 13.9901 13.7449 14.8824C14.0889 15.771 14.2467 16.7207 14.2085 17.6727C14.1831 19.855 13.3207 21.9445 11.7991 23.5094C11.5104 23.8064 11.0355 23.8131 10.7386 23.5244C10.4416 23.2356 10.4349 22.7608 10.7236 22.4638C11.9794 21.1722 12.6902 19.447 12.7087 17.6456C12.7088 17.6377 12.709 17.6298 12.7094 17.622C12.7407 16.8721 12.617 16.1238 12.3461 15.4238C12.0751 14.7239 11.6627 14.0874 11.1347 13.554C10.6066 13.0207 9.97418 12.6019 9.27698 12.324Z" fill="black"/>
</svg>
