<svg width="24" height="24" viewBox="0 0 24 24" fill="none" xmlns="http://www.w3.org/2000/svg">
<path fill-rule="evenodd" clip-rule="evenodd" d="M12.7403 1.46876e-05C14.4806 -0.00279937 16.1978 0.39879 17.7566 1.17313C19.3158 1.94765 20.6739 3.07392 21.724 4.46316C22.774 5.85239 23.4874 7.46664 23.8078 9.17871C24.1283 10.8908 24.0471 12.6539 23.5707 14.3293C23.0943 16.0046 22.2357 17.5464 21.0624 18.8331C19.8891 20.1198 18.4333 21.1164 16.8095 21.7441C15.1857 22.3719 13.4385 22.6137 11.7054 22.4505C10.1103 22.3003 8.56736 21.8108 7.17926 21.0167L1.07269 23.927C0.786064 24.0636 0.444469 24.005 0.219872 23.7805C-0.00472455 23.5561 -0.063649 23.2145 0.072762 22.9278L2.98109 16.8147C2.05695 15.1985 1.54766 13.3756 1.50206 11.5097C1.45307 9.50537 1.94093 7.5244 2.91506 5.77237C3.88918 4.02033 5.3141 2.56104 7.042 1.54598C8.76957 0.531127 10.737 -0.00266555 12.7403 1.46876e-05ZM12.7404 0.750016L12.7393 1.50001C11.0036 1.49751 9.29876 1.95993 7.80178 2.83933C6.30479 3.71873 5.07015 4.9831 4.22605 6.50128C3.38194 8.01946 2.95916 9.7361 3.00161 11.4731C3.04406 13.21 3.5502 14.9039 4.46745 16.379C4.60234 16.5959 4.61755 16.8665 4.50781 17.0972L2.3353 21.6636L6.89615 19.49C7.12698 19.38 7.39795 19.3951 7.61506 19.5302C8.89602 20.3273 10.3444 20.8157 11.846 20.9571C13.3477 21.0985 14.8616 20.889 16.2686 20.345C17.6756 19.8011 18.9372 18.9376 19.954 17.8224C20.9708 16.7073 21.715 15.3711 22.1279 13.919C22.5409 12.4669 22.6112 10.9386 22.3335 9.45468C22.0557 7.97072 21.4374 6.57163 20.5274 5.36764C19.6173 4.16365 18.4404 3.18766 17.0893 2.51652C15.7382 1.84538 14.25 1.49742 12.7417 1.50001L12.7404 0.750016Z" fill="black"/>
<path fill-rule="evenodd" clip-rule="evenodd" d="M13.2728 4.04999C11.7576 4.04999 10.76 4.63945 10.17 5.49404C9.60825 6.30761 9.47299 7.27839 9.47299 7.97971V8.77874H8.10001C7.74103 8.77874 7.45001 9.06975 7.45001 9.42874V12.1309C7.45001 12.4899 7.74103 12.7809 8.10001 12.7809H9.47299V18.2C9.47299 18.559 9.76401 18.85 10.123 18.85H13.4946C13.8536 18.85 14.1446 18.559 14.1446 18.2V12.7809H16.0915C16.4244 12.7809 16.7035 12.5293 16.738 12.1982L17.0192 9.49601C17.0382 9.3129 16.9787 9.1303 16.8555 8.99355C16.7322 8.8568 16.5568 8.77874 16.3727 8.77874H14.1446V8.14522C14.1446 8.11637 14.1427 8.08755 14.1389 8.05896L14.1392 8.05562L14.1406 8.05302L14.1426 8.05165L14.1445 8.05131C14.1553 8.05186 14.1662 8.05213 14.177 8.05213C14.3165 8.05213 14.8186 8.05381 15.2878 8.0555L16.1894 8.05888C16.3622 8.05955 16.5282 7.99137 16.6507 7.8694C16.7731 7.74743 16.8419 7.58172 16.8419 7.40889V4.69999C16.8419 4.341 16.5509 4.04999 16.1919 4.04999H13.2728ZM15.5419 6.75644V5.34999H13.2728C12.1398 5.34999 11.5626 5.76505 11.2397 6.23265C10.8886 6.74127 10.773 7.41035 10.773 7.97971V9.42874C10.773 9.78772 10.482 10.0787 10.123 10.0787H8.75001V11.4809H10.123C10.482 11.4809 10.773 11.7719 10.773 12.1309V17.55H12.8446V12.1309C12.8446 11.7719 13.1356 11.4809 13.4946 11.4809H15.5056L15.6515 10.0787H13.4946C13.1356 10.0787 12.8446 9.78772 12.8446 9.42874V8.18115C12.8282 8.00757 12.8466 7.83227 12.899 7.66561C12.9565 7.48283 13.0535 7.31487 13.1831 7.1737C13.3128 7.03252 13.472 6.92158 13.6494 6.84883C13.821 6.77848 14.0055 6.74554 14.1907 6.75213C14.3495 6.75223 14.8387 6.75388 15.2925 6.75551L15.5419 6.75644Z" fill="black"/>
</svg>
