<svg width="24" height="24" viewBox="0 0 24 24" fill="none" xmlns="http://www.w3.org/2000/svg">
<g clip-path="url(#clip0_6163_29944)">
<path d="M6.81023 8.24999H6.76023C3.34023 8.22999 0.430234 10.76 0.00023435 14.16C-0.0497657 14.57 0.240234 14.95 0.650234 15C0.680234 15 0.710234 15 0.740234 15C1.11023 15 1.44023 14.72 1.48023 14.34C1.81023 11.71 4.05023 9.74999 6.70023 9.74999H6.78023C9.42023 9.74999 11.6602 11.72 11.9902 14.34C12.0402 14.75 12.4202 15.05 12.8302 14.99C13.2402 14.94 13.5302 14.56 13.4802 14.15C13.0502 10.77 10.1802 8.23999 6.80023 8.23999L6.81023 8.24999Z" fill="black"/>
<path d="M6.74988 8.25C9.01988 8.25 10.8699 6.4 10.8699 4.13C10.8699 1.86 9.01988 0 6.74988 0C4.47988 0 2.62988 1.85 2.62988 4.12C2.62988 6.39 4.47988 8.24 6.74988 8.24V8.25ZM6.74988 1.5C8.19988 1.5 9.36988 2.68 9.36988 4.12C9.36988 5.56 8.18988 6.74 6.74988 6.74C5.30988 6.74 4.12988 5.56 4.12988 4.12C4.12988 2.68 5.30988 1.5 6.74988 1.5Z" fill="black"/>
<path d="M13.1098 9.04C13.3198 9.04 13.5298 8.95 13.6798 8.78C14.8298 7.46 16.7798 7.12 18.3198 7.97C18.6798 8.17 19.1398 8.04 19.3398 7.68C19.5398 7.32 19.4098 6.86 19.0498 6.66C18.7698 6.51 18.4898 6.38 18.1998 6.29C19.1998 5.7 19.8898 4.63 19.8898 3.38C19.8898 1.52 18.3798 0 16.5098 0C14.6398 0 13.1298 1.51 13.1298 3.38C13.1298 4.63 13.8198 5.71 14.8298 6.29C13.9698 6.58 13.1798 7.08 12.5498 7.8C12.2798 8.11 12.3098 8.59 12.6198 8.86C12.7598 8.98 12.9398 9.05 13.1098 9.05V9.04ZM16.4998 1.5C17.5298 1.5 18.3798 2.34 18.3798 3.38C18.3798 4.42 17.5398 5.26 16.4998 5.26C15.4598 5.26 14.6198 4.42 14.6198 3.38C14.6198 2.34 15.4598 1.5 16.4998 1.5Z" fill="black"/>
<path d="M23.6001 15.2599C23.4001 15.0899 23.1401 14.9999 22.8801 14.9999H21.0001V9.74988C21.0001 9.43988 20.8001 9.15988 20.5101 9.04988C20.2201 8.93988 19.8801 9.02988 19.6801 9.25988L13.7701 16.1399C13.5801 16.3699 13.4801 16.6599 13.5101 16.9599C13.5301 17.2599 13.6701 17.5299 13.9001 17.7299C14.1001 17.8999 14.3601 17.9999 14.6301 17.9999H16.5101V23.2499C16.5101 23.5599 16.7101 23.8399 17.0001 23.9499C17.0901 23.9799 17.1701 23.9999 17.2601 23.9999C17.4701 23.9999 17.6801 23.9099 17.8301 23.7399L23.7501 16.8499C23.9401 16.6199 24.0401 16.3299 24.0101 16.0299C23.9801 15.7299 23.8401 15.4599 23.6101 15.2599H23.6001ZM18.0001 21.2199V17.2399C18.0001 16.8299 17.6601 16.4899 17.2501 16.4899H15.4401L19.5001 11.7599V15.7399C19.5001 16.1499 19.8401 16.4899 20.2501 16.4899H22.0601L18.0001 21.2199Z" fill="black"/>
</g>
<defs>
<clipPath id="clip0_6163_29944">
<rect width="24" height="24" fill="white"/>
</clipPath>
</defs>
</svg>
