<svg width="24" height="24" viewBox="0 0 24 24" fill="none" xmlns="http://www.w3.org/2000/svg">
<g clip-path="url(#clip0_6163_29944)">
<path d="M13.8698 23.9999C9.35984 23.8399 5.74984 20.2299 5.58984 15.7799V9.74991C5.58984 9.33991 5.92984 8.99991 6.33984 8.99991C6.74984 8.99991 7.08984 9.33991 7.08984 9.74991V15.7499C7.21984 19.3899 10.1998 22.3699 13.8698 22.4999C17.4898 22.3699 20.4598 19.3899 20.5898 15.7199V10.9899C18.3398 10.0599 17.2998 10.3299 15.4098 12.1699C14.5298 13.0199 13.1498 13.0199 12.2798 12.1699C11.9398 11.8399 11.5798 11.5299 11.2098 11.2399C10.8798 10.9899 10.8198 10.5199 11.0698 10.1899C11.3198 9.85991 11.7898 9.79991 12.1198 10.0499C12.5398 10.3699 12.9398 10.7199 13.3198 11.0899C13.6098 11.3699 14.0698 11.3699 14.3598 11.0899C16.8198 8.69991 18.5198 8.39991 21.6498 9.80991C21.9198 9.92991 22.0898 10.1999 22.0898 10.4899V15.7399C21.9298 20.2199 18.3198 23.8299 13.8698 23.9899V23.9999Z" fill="black"/>
<path d="M17.2098 17.2001C16.3198 17.2001 15.3298 16.9301 14.2498 16.2401C13.9998 16.0801 13.6798 16.0801 13.4298 16.2401C9.93984 18.5001 7.36984 16.1901 5.83984 14.8101C5.52984 14.5301 5.50984 14.0601 5.77984 13.7501C6.05984 13.4401 6.52984 13.4201 6.83984 13.6901C8.67984 15.3501 10.2798 16.4901 12.6098 14.9801C13.3498 14.5001 14.3098 14.5001 15.0598 14.9801C17.4298 16.5201 19.0298 15.3501 20.5998 13.9101L20.8398 13.6901C21.1498 13.4101 21.6198 13.4401 21.8998 13.7401C22.1798 14.0501 22.1498 14.5201 21.8498 14.8001L21.6198 15.0101C20.7598 15.8001 19.2398 17.2001 17.2098 17.2001Z" fill="black"/>
<path d="M16.8401 14.2499C16.5601 14.2499 16.3001 14.0999 16.1701 13.8299C15.9801 13.4599 16.1301 13.0099 16.5101 12.8199L18.0101 12.0699C18.3801 11.8799 18.8301 12.0399 19.0201 12.4099C19.2101 12.7799 19.0601 13.2299 18.6801 13.4199L17.1801 14.1699C17.0701 14.2199 16.9601 14.2499 16.8501 14.2499H16.8401Z" fill="black"/>
<path d="M10.8398 14.2499C10.7298 14.2499 10.6098 14.2199 10.5098 14.1699L9.00979 13.4199C8.63979 13.2299 8.48979 12.7799 8.66979 12.4099C8.85979 12.0399 9.30979 11.8899 9.67979 12.0699L11.1798 12.8199C11.5498 13.0099 11.6998 13.4599 11.5198 13.8299C11.3898 14.0899 11.1198 14.2499 10.8498 14.2499H10.8398Z" fill="black"/>
<path d="M21.34 11.2501C20.93 11.2501 20.59 10.9101 20.59 10.5001V6.67007C20.59 4.19007 19.41 2.84007 16.66 2.15007C11.88 0.95007 9.84996 1.68007 8.22996 2.26007C6.90996 2.73007 5.65996 3.18007 3.59996 2.36007C3.45996 2.68007 3.45996 3.03007 3.59996 3.44007C3.98996 4.60007 5.56996 6.02007 7.55996 6.37007C8.77996 6.59007 10.53 6.48007 11.94 4.71007C12.2 4.39007 12.67 4.33007 12.99 4.59007C13.31 4.85007 13.37 5.32007 13.11 5.64007C11.65 7.47007 9.57996 8.25007 7.28996 7.84007C4.94996 7.42007 2.78996 5.76007 2.16996 3.90007C1.80996 2.79007 2.02996 1.72007 2.79996 0.90007C3.01996 0.66007 3.36996 0.59007 3.66996 0.74007C5.51996 1.63007 6.34996 1.33007 7.72996 0.84007C9.44996 0.22007 11.8 -0.61993 17.03 0.69007C20.44 1.54007 22.1 3.50007 22.1 6.67007V10.5001C22.1 10.9101 21.76 11.2501 21.35 11.2501H21.34Z" fill="black"/>
<path d="M13.9998 20.9999C13.9398 20.9999 13.8698 20.9999 13.8098 20.9999C12.8898 21.0499 11.8898 20.7199 11.1198 20.0799C10.7998 19.8199 10.7598 19.3399 11.0198 19.0199C11.2798 18.6999 11.7598 18.6599 12.0798 18.9199C12.5698 19.3199 13.1798 19.5299 13.8198 19.4999C14.5198 19.5299 15.1398 19.3199 15.6298 18.9199C15.9498 18.6599 16.4198 18.6999 16.6898 19.0199C16.9498 19.3399 16.9098 19.8099 16.5898 20.0799C15.8598 20.6799 14.9598 21.0099 14.0198 21.0099L13.9998 20.9999Z" fill="black"/>
</g>
<defs>
<clipPath id="clip0_6163_29944">
<rect width="24" height="24" fill="white"/>
</clipPath>
</defs>
</svg>
