<svg width="24" height="24" viewBox="0 0 24 24" fill="none" xmlns="http://www.w3.org/2000/svg">
<path d="M13.8698 24.0009C9.35984 23.8409 5.74984 20.2309 5.58984 15.7809V9.75089C5.58984 9.34089 5.92984 9.00089 6.33984 9.00089C6.74984 9.00089 7.08984 9.34089 7.08984 9.75089V15.7509C7.21984 19.3909 10.1998 22.3709 13.8698 22.5009C17.4898 22.3709 20.4598 19.3909 20.5898 15.7209V10.9909C18.3398 10.0609 17.2998 10.3309 15.4098 12.1709C14.5298 13.0209 13.1498 13.0209 12.2798 12.1709C11.9398 11.8409 11.5798 11.5309 11.2098 11.2409C10.8798 10.9909 10.8198 10.5209 11.0698 10.1909C11.3198 9.86089 11.7898 9.80089 12.1198 10.0509C12.5398 10.3709 12.9398 10.7209 13.3198 11.0909C13.6098 11.3709 14.0698 11.3709 14.3598 11.0909C16.8198 8.70089 18.5198 8.40089 21.6498 9.81089C21.9198 9.93089 22.0898 10.2009 22.0898 10.4909V15.7409C21.9298 20.2209 18.3198 23.8309 13.8698 23.9909V24.0009Z" fill="black"/>
<path d="M17.2098 17.2011C16.3198 17.2011 15.3298 16.9311 14.2498 16.2411C13.9998 16.0811 13.6798 16.0811 13.4298 16.2411C9.93984 18.5011 7.36984 16.1911 5.83984 14.8111C5.52984 14.5311 5.50984 14.0611 5.77984 13.7511C6.05984 13.4411 6.52984 13.4211 6.83984 13.6911C8.67984 15.3511 10.2798 16.4911 12.6098 14.9811C13.3498 14.5011 14.3098 14.5011 15.0598 14.9811C17.4298 16.5211 19.0298 15.3511 20.5998 13.9111L20.8398 13.6911C21.1498 13.4111 21.6198 13.4411 21.8998 13.7411C22.1798 14.0511 22.1498 14.5211 21.8498 14.8011L21.6198 15.0111C20.7598 15.8011 19.2398 17.2011 17.2098 17.2011Z" fill="black"/>
<path d="M16.8401 14.2509C16.5601 14.2509 16.3001 14.1009 16.1701 13.8309C15.9801 13.4609 16.1301 13.0109 16.5101 12.8209L18.0101 12.0709C18.3801 11.8809 18.8301 12.0409 19.0201 12.4109C19.2101 12.7809 19.0601 13.2309 18.6801 13.4209L17.1801 14.1709C17.0701 14.2209 16.9601 14.2509 16.8501 14.2509H16.8401Z" fill="black"/>
<path d="M10.8398 14.2509C10.7298 14.2509 10.6098 14.2209 10.5098 14.1709L9.00979 13.4209C8.63979 13.2309 8.48979 12.7809 8.66979 12.4109C8.85979 12.0409 9.30979 11.8909 9.67979 12.0709L11.1798 12.8209C11.5498 13.0109 11.6998 13.4609 11.5198 13.8309C11.3898 14.0909 11.1198 14.2509 10.8498 14.2509H10.8398Z" fill="black"/>
<path d="M21.34 11.251C20.93 11.251 20.59 10.911 20.59 10.501V6.67105C20.59 4.19105 19.41 2.84105 16.66 2.15105C11.88 0.951046 9.84996 1.68105 8.22996 2.26105C6.90996 2.73105 5.65996 3.18105 3.59996 2.36105C3.45996 2.68105 3.45996 3.03105 3.59996 3.44105C3.98996 4.60105 5.56996 6.02105 7.55996 6.37105C8.77996 6.59105 10.53 6.48105 11.94 4.71105C12.2 4.39105 12.67 4.33105 12.99 4.59105C13.31 4.85105 13.37 5.32105 13.11 5.64105C11.65 7.47105 9.57996 8.25105 7.28996 7.84105C4.94996 7.42105 2.78996 5.76105 2.16996 3.90105C1.80996 2.79105 2.02996 1.72105 2.79996 0.901046C3.01996 0.661046 3.36996 0.591046 3.66996 0.741046C5.51996 1.63105 6.34996 1.33105 7.72996 0.841046C9.44996 0.221046 11.8 -0.618954 17.03 0.691046C20.44 1.54105 22.1 3.50105 22.1 6.67105V10.501C22.1 10.911 21.76 11.251 21.35 11.251H21.34Z" fill="black"/>
<path d="M13.9998 21.0009C13.9398 21.0009 13.8698 21.0009 13.8098 21.0009C12.8898 21.0509 11.8898 20.7209 11.1198 20.0809C10.7998 19.8209 10.7598 19.3409 11.0198 19.0209C11.2798 18.7009 11.7598 18.6609 12.0798 18.9209C12.5698 19.3209 13.1798 19.5309 13.8198 19.5009C14.5198 19.5309 15.1398 19.3209 15.6298 18.9209C15.9498 18.6609 16.4198 18.7009 16.6898 19.0209C16.9498 19.3409 16.9098 19.8109 16.5898 20.0809C15.8598 20.6809 14.9598 21.0109 14.0198 21.0109L13.9998 21.0009Z" fill="black"/>
</svg>
