<svg width="24" height="24" viewBox="0 0 24 24" fill="none" xmlns="http://www.w3.org/2000/svg">
<path fill-rule="evenodd" clip-rule="evenodd" d="M12 0C5.37279 0 0 5.37279 0 12C0 18.6272 5.37279 24 12 24C18.6272 24 24 18.6272 24 12C24 5.37279 18.6272 0 12 0Z" fill="#29D305"/>
<path fill-rule="evenodd" clip-rule="evenodd" d="M18.3813 14.3281C18.7524 14.5122 18.904 14.9622 18.7199 15.3333C18.099 16.5847 17.1409 17.6379 15.9535 18.3741C14.7662 19.1103 13.3969 19.5002 11.9999 19.4999C11.5856 19.4998 11.2499 19.164 11.25 18.7498C11.2501 18.3356 11.5859 17.9998 12.0001 17.9999C13.1178 18.0001 14.2132 17.6882 15.1631 17.0992C16.1129 16.5103 16.8794 15.6678 17.3761 14.6666C17.5602 14.2955 18.0103 14.144 18.3813 14.3281Z" fill="black"/>
<path d="M7.49112 8.24112C7.72554 8.00669 8.04348 7.875 8.375 7.875C8.70652 7.875 9.02446 8.00669 9.25888 8.24112C9.49331 8.47554 9.625 8.79348 9.625 9.125C9.625 9.45652 9.49331 9.77446 9.25888 10.0089C9.02446 10.2433 8.70652 10.375 8.375 10.375C8.04348 10.375 7.72554 10.2433 7.49112 10.0089C7.2567 9.77446 7.125 9.45652 7.125 9.125C7.125 8.79348 7.2567 8.47554 7.49112 8.24112Z" fill="black"/>
<path d="M14.9911 8.24112C15.2255 8.00669 15.5435 7.875 15.875 7.875C16.2065 7.875 16.5245 8.00669 16.7589 8.24112C16.9933 8.47554 17.125 8.79348 17.125 9.125C17.125 9.45652 16.9933 9.77446 16.7589 10.0089C16.5245 10.2433 16.2065 10.375 15.875 10.375C15.5435 10.375 15.2255 10.2433 14.9911 10.0089C14.7567 9.77446 14.625 9.45652 14.625 9.125C14.625 8.79348 14.7567 8.47554 14.9911 8.24112Z" fill="black"/>
</svg>
