<svg width="24" height="24" fill="none" xmlns="http://www.w3.org/2000/svg"><path fill-rule="evenodd" clip-rule="evenodd" d="M1.5 12C1.5 6.201 6.201 1.5 12 1.5S22.5 6.201 22.5 12 17.799 22.5 12 22.5 1.5 17.799 1.5 12zM12 0C5.373 0 0 5.373 0 12s5.373 12 12 12 12-5.373 12-12S18.627 0 12 0zm6.72 15.333a.75.75 0 00-1.344-.666A6 6 0 0112 18a.75.75 0 000 1.5 7.5 7.5 0 006.72-4.167zM8.25 7.875a1.125 1.125 0 100 2.25 1.125 1.125 0 000-2.25zm6.704.33a1.125 1.125 0 111.591 1.59 1.125 1.125 0 01-1.59-1.59z" fill="#000"/></svg>