<svg width="24" height="24" fill="none" xmlns="http://www.w3.org/2000/svg"><g clip-path="url(#clip0)"><path d="M10.495 24c-.828 0-1.504-.698-1.504-1.555v-9.622C4.048 11.497.37 6.952.003 1.663.001 1.625 0 1.591 0 1.556c0-.414.157-.805.44-1.1A1.47 1.47 0 011.502 0h20.994a1.473 1.473 0 011.13.53c.264.312.396.712.37 1.128l-.001.01c-.37 5.288-4.049 9.832-8.992 11.155v7.03c.001.463-.197.898-.542 1.195l-3.005 2.591c-.27.232-.61.361-.96.361zM1.503 1.555c.348 4.852 3.795 8.916 8.39 9.888a.774.774 0 01.601.762v10.24l3.006-2.593v-7.647c0-.368.253-.689.601-.762 4.605-.972 8.057-5.039 8.395-9.89l-20.993.002z" fill="#000"/></g><defs><clipPath id="clip0"><path d="M0 0h24v24H0V0z" fill="#fff"/></clipPath></defs></svg>