<svg width="24" height="24" fill="none" xmlns="http://www.w3.org/2000/svg"><g clip-path="url(#clip0)"><path d="M8.991 22.445c0 .857.676 1.555 1.504 1.555.35 0 .692-.129.961-.36l3.005-2.592c.345-.297.543-.732.542-1.196v-7.03c4.943-1.322 8.622-5.866 8.992-11.154l.001-.01a1.582 1.582 0 00-.37-1.128 1.473 1.473 0 00-1.13-.53H1.502C1.1 0 .722.163.44.456.156.751 0 1.142 0 1.556c0 .035.002.069.004.107.367 5.289 4.045 9.834 8.988 11.16v9.622z" fill="#000"/></g><defs><clipPath id="clip0"><path d="M0 0h24v24H0V0z" fill="#fff"/></clipPath></defs></svg>