<svg width="25" height="25" viewBox="0 0 25 25" fill="none" xmlns="http://www.w3.org/2000/svg">
<path d="M5.18677 12.4704C6.58522 12.0257 8.05964 11.8942 9.51144 12.0849C10.9632 12.2756 12.3585 12.784 13.6041 13.5757C14.5885 14.2024 15.6886 14.6107 16.8332 14.7742C17.9777 14.9377 19.1427 14.8533 20.2541 14.5263C20.7802 14.3715 21.3177 14.6889 21.4629 15.2155C21.6074 15.7392 21.3157 16.2948 20.7931 16.4486C19.4192 16.8528 17.9788 16.9572 16.5635 16.755C15.1484 16.5529 13.7899 16.0487 12.5745 15.275C11.5659 14.634 10.4369 14.2228 9.26314 14.0686C8.08919 13.9145 6.89685 14.0207 5.76558 14.3805C5.24291 14.5467 4.69872 14.2412 4.54265 13.7175C4.38749 13.1969 4.66781 12.6354 5.18677 12.4704Z" fill="black"/>
<path fill-rule="evenodd" clip-rule="evenodd" d="M1.9744 0.949951C2.54016 0.949951 2.99879 1.40859 2.99879 1.97434V23.9256C2.99879 24.4913 2.54016 24.95 1.9744 24.95C1.40865 24.95 0.950012 24.4913 0.950012 23.9256V1.97434C0.950012 1.40859 1.40865 0.949951 1.9744 0.949951Z" fill="black"/>
<path fill-rule="evenodd" clip-rule="evenodd" d="M4.75035 2.39697C6.16421 1.96199 7.65458 1.83352 9.12203 2.02012C10.5895 2.20673 12.0003 2.70414 13.2604 3.47916C14.2476 4.08656 15.3505 4.4819 16.4988 4.6399C17.647 4.79788 18.8155 4.71516 19.93 4.397C19.9301 4.39697 19.9299 4.39702 19.93 4.397L22.2425 3.73615C22.5582 3.64637 22.8904 3.63101 23.213 3.69128C23.5356 3.75154 23.8399 3.88578 24.1019 4.08346C24.3638 4.28114 24.5764 4.53687 24.7229 4.83056C24.8694 5.12425 24.9458 5.44791 24.9461 5.77612V18.332C24.9461 18.332 24.9461 18.3319 24.9461 18.332C24.9462 18.7931 24.796 19.242 24.5183 19.6101C24.2406 19.9784 23.8505 20.2461 23.407 20.3728L20.4931 21.2059C19.1045 21.6025 17.6483 21.7058 16.2176 21.5091C14.787 21.3123 13.413 20.8199 12.183 20.0632C11.1713 19.4405 10.0382 19.0408 8.85977 18.8909C7.68147 18.7411 6.48477 18.8444 5.3496 19.194C5.34944 19.194 5.34976 19.1939 5.3496 19.194L2.27673 20.1432C1.96594 20.2392 1.62802 20.1818 1.36626 19.9887C1.1045 19.7956 0.950012 19.4897 0.950012 19.1644V4.32244C0.950012 3.87268 1.24338 3.47552 1.67327 3.34331L4.75035 2.39697C4.75031 2.39698 4.75038 2.39696 4.75035 2.39697ZM8.86359 4.05254C7.68509 3.90268 6.48818 4.00586 5.35271 4.3552L2.99879 5.07914V17.7758L4.74524 17.2364C6.15917 16.8008 7.65055 16.6719 9.11821 16.8585C10.5858 17.0451 11.9967 17.5428 13.2566 18.3182C14.2443 18.926 15.3478 19.3214 16.4968 19.4794C17.6457 19.6374 18.815 19.5545 19.9301 19.236L22.844 18.4029C22.8593 18.3985 22.873 18.3892 22.8826 18.3765C22.8922 18.3638 22.8973 18.3483 22.8973 18.3324V5.77804C22.8973 5.76658 22.8947 5.75527 22.8895 5.74501C22.8844 5.73476 22.877 5.72582 22.8678 5.71892C22.8587 5.71201 22.8481 5.70733 22.8368 5.70522C22.8256 5.70313 22.8141 5.70365 22.8031 5.70674C22.803 5.70675 22.8031 5.70672 22.8031 5.70674L20.493 6.36692C19.105 6.76319 17.6495 6.8663 16.2195 6.66956C14.7896 6.47282 13.4163 5.98061 12.187 5.22426C11.1751 4.60185 10.0421 4.2024 8.86359 4.05254Z" fill="black"/>
</svg>
