<svg width="24" height="24" fill="none" xmlns="http://www.w3.org/2000/svg"><path fill-rule="evenodd" clip-rule="evenodd" d="M0 23.25a.75.75 0 001.5 0v-4.988l2.625-.808a8.855 8.855 0 017.25.922 10.362 10.362 0 008.278 1.145l2.987-.854A1.883 1.883 0 0024 16.864V5.136c0-.501-.196-.972-.552-1.325a1.867 1.867 0 00-1.839-.476l-2.369.677a8.87 8.87 0 01-7.079-.974 10.346 10.346 0 00-8.477-1.079L1.5 2.63V.75a.75.75 0 00-1.5 0v22.5zm12.161-6.151a10.349 10.349 0 00-8.477-1.078l-2.184.672V4.199l2.624-.806a8.855 8.855 0 017.25.922 10.372 10.372 0 008.278 1.138l2.368-.677a.373.373 0 01.48.361v11.727a.377.377 0 01-.272.361l-2.987.854a8.874 8.874 0 01-7.08-.98zm-7.786-3.707a8.86 8.86 0 013.724-.321l3.526 1.243a10.366 10.366 0 008.277 1.145.75.75 0 10-.41-1.443 8.864 8.864 0 01-7.08-.979 10.36 10.36 0 00-8.479-1.078.75.75 0 00.442 1.433zm3.724-.321a8.858 8.858 0 013.525 1.243L8.1 13.07z" fill="#000"/></svg>