<svg width="24" height="24" fill="none" xmlns="http://www.w3.org/2000/svg"><g clip-path="url(#clip0)" fill="#000"><path d="M4.187 11.47a9.975 9.975 0 014.324-.385c1.452.19 2.848.699 4.093 1.49a8.162 8.162 0 003.23 1.2c1.144.163 2.309.078 3.42-.249a.973.973 0 011.209.69 1.004 1.004 0 01-.67 1.233 9.976 9.976 0 01-4.23.306 10.081 10.081 0 01-3.989-1.48 8.152 8.152 0 00-3.31-1.206 8.067 8.067 0 00-3.498.311.972.972 0 01-1.223-.663 1.005 1.005 0 01.644-1.247z"/><path fill-rule="evenodd" clip-rule="evenodd" d="M.974-.05C1.54-.05 2 .409 2 .974v21.952a1.024 1.024 0 01-2.049 0V.974C-.05.41.409-.05.974-.05z"/><path fill-rule="evenodd" clip-rule="evenodd" d="M3.75 1.397a10.404 10.404 0 018.51 1.082 8.352 8.352 0 006.67.918l2.313-.66a2.123 2.123 0 012.703 2.04v12.555a2.122 2.122 0 01-1.539 2.04l-2.914.834a10.407 10.407 0 01-8.31-1.143 8.35 8.35 0 00-6.833-.869l-3.073.95a1.024 1.024 0 01-1.327-.98V3.324c0-.45.293-.847.723-.98l3.077-.946zm4.114 1.656a8.355 8.355 0 00-3.511.302l-2.354.724v12.697l1.746-.54a10.402 10.402 0 018.512 1.082 8.355 8.355 0 006.673.918l2.914-.833a.073.073 0 00.053-.07V4.778a.073.073 0 00-.03-.059.074.074 0 00-.064-.012l-2.31.66a10.403 10.403 0 01-8.306-1.143 8.355 8.355 0 00-3.323-1.171z"/></g><defs><clipPath id="clip0"><path fill="#fff" d="M0 0h24v24H0z"/></clipPath></defs></svg>