<svg width="24" height="24" viewBox="0 0 24 24" fill="none" xmlns="http://www.w3.org/2000/svg">
<path fill-rule="evenodd" clip-rule="evenodd" d="M8.09931 13.0708C6.84904 12.9118 5.57924 13.0214 4.37469 13.3922C3.97881 13.5141 3.55909 13.292 3.43721 12.8961C3.31533 12.5002 3.53745 12.0805 3.93333 11.9586C5.3418 11.525 6.82659 11.3969 8.28853 11.5828C9.75048 11.7687 11.1559 12.2643 12.4111 13.0367C13.4586 13.6823 14.6296 14.1031 15.8485 14.2717C17.0674 14.4403 18.3081 14.3532 19.4915 14.0161C19.8899 13.9026 20.3048 14.1336 20.4183 14.532C20.5318 14.9303 20.3008 15.3453 19.9025 15.4587C18.5188 15.8529 17.0682 15.9546 15.643 15.7575C14.2179 15.5604 12.8494 15.0688 11.6246 14.314M8.09931 13.0708C9.34941 13.2297 10.5514 13.6536 11.6246 14.314L8.09931 13.0708Z" fill="#29D305"/>
<path d="M0.75 24C0.336 24 0 23.664 0 23.25V0.75C0 0.336 0.336 0 0.75 0C1.164 0 1.5 0.336 1.5 0.75V2.63L3.684 1.959C4.672 1.655 5.698 1.501 6.731 1.501C8.65 1.501 10.528 2.032 12.161 3.038C13.557 3.897 15.166 4.351 16.812 4.351C17.635 4.351 18.452 4.237 19.24 4.012L21.609 3.335C21.776 3.288 21.948 3.263 22.121 3.263C22.623 3.263 23.094 3.458 23.448 3.811C23.804 4.164 24 4.635 24 5.136V16.864C24 17.697 23.441 18.438 22.64 18.667L19.653 19.521C18.732 19.783 17.779 19.916 16.82 19.916C14.892 19.916 13.009 19.384 11.375 18.376C9.978 17.516 8.372 17.062 6.731 17.062C5.847 17.062 4.97 17.194 4.125 17.454L1.5 18.262V23.25C1.5 23.664 1.164 24 0.75 24ZM6.731 15.562C8.65 15.562 10.527 16.093 12.161 17.099C13.56 17.961 15.171 18.416 16.82 18.416C17.641 18.416 18.455 18.302 19.241 18.079L22.228 17.225C22.388 17.179 22.5 17.031 22.5 16.864V5.137C22.5 5.037 22.461 4.943 22.39 4.872C22.319 4.801 22.225 4.762 22.124 4.762C22.089 4.762 22.054 4.767 22.02 4.776L19.652 5.453C18.73 5.716 17.774 5.85 16.812 5.85C14.887 5.85 13.006 5.319 11.374 4.315C9.977 3.455 8.371 3.001 6.73 3.001C5.846 3.001 4.969 3.133 4.124 3.393L1.5 4.199V16.693L3.684 16.021C4.672 15.717 5.697 15.562 6.731 15.562Z" fill="black"/>
</svg>
