<svg width="24" height="24" viewBox="0 0 24 24" fill="none" xmlns="http://www.w3.org/2000/svg">
<path d="M2.57143 22.5C1.15314 22.5 0 21.3228 0 19.875V4.125C0 2.67717 1.15314 1.5 2.57143 1.5H6.85714C7.66171 1.5 8.43086 1.892 8.91429 2.55L10.7143 5H21.4286C22.8469 5 24 6.17717 24 7.625V19.875C24 21.3228 22.8469 22.5 21.4286 22.5H2.57143ZM2.57143 3.25C2.09829 3.25 1.71429 3.642 1.71429 4.125V19.875C1.71429 20.358 2.09829 20.75 2.57143 20.75H21.4286C21.9017 20.75 22.2857 20.358 22.2857 19.875V7.625C22.2857 7.142 21.9017 6.75 21.4286 6.75H10.2857C10.0171 6.75 9.76114 6.61933 9.6 6.4L7.54286 3.6C7.38171 3.38067 7.12571 3.25 6.85714 3.25H2.57143Z" fill="black"/>
</svg>
