<svg width="24" height="24" viewBox="0 0 24 24" fill="none" xmlns="http://www.w3.org/2000/svg">
<path d="M16.505 0.725C16.23 0.295 15.7275 0 15.165 0H14.865C14.74 0 14.615 0.0325 14.505 0.0925L7.8775 3.7075C7.6375 3.8375 7.4875 4.0875 7.485 4.3575C7.4825 4.63 7.625 4.8825 7.86 5.02L8.505 5.3925L5.19 6.9075C4.8125 7.0975 4.5325 7.4425 4.4225 7.8525C4.33 8.2025 4.3675 8.5675 4.5225 8.875C4.6225 9.1425 4.845 9.3075 4.995 9.42C5.0375 9.4625 5.085 9.5025 5.1375 9.5325L8.5125 11.5575L6.5825 14.83C6.37 15.1875 6.49 15.65 6.85 15.86C6.97 15.9325 7.1025 15.965 7.2325 15.965C7.49 15.965 7.74 15.8325 7.8825 15.595L10.1925 11.68C10.205 11.6575 10.2125 11.635 10.225 11.61C10.235 11.5875 10.2475 11.565 10.255 11.5425C10.2625 11.52 10.265 11.4975 10.2725 11.475C10.2775 11.45 10.2875 11.425 10.29 11.4C10.2925 11.38 10.29 11.36 10.2925 11.34C10.2925 11.3125 10.2975 11.2825 10.295 11.255C10.295 11.2375 10.29 11.2225 10.2875 11.205C10.2825 11.175 10.28 11.1425 10.2725 11.1125C10.27 11.0975 10.2625 11.085 10.2575 11.07C10.2475 11.0375 10.2375 11.005 10.2225 10.975C10.2175 10.9625 10.21 10.9525 10.2025 10.9425C10.185 10.91 10.1675 10.88 10.1475 10.85C10.1425 10.8425 10.135 10.8375 10.13 10.83C10.105 10.7975 10.0775 10.7675 10.0475 10.74C10.0475 10.74 10.045 10.74 10.0425 10.7375C10.0075 10.705 9.97 10.6775 9.9275 10.6525L5.905 8.235L10.455 6.16C10.7125 6.0425 10.88 5.7925 10.895 5.51C10.91 5.2275 10.765 4.9625 10.52 4.8225L9.7725 4.39L15.1225 1.4725L15.215 1.46V6.735L14.4375 6.285C14.08 6.0775 13.6175 6.2 13.4075 6.56C13.2 6.92 13.3225 7.38 13.6825 7.59L15.59 8.695C15.8225 8.83 16.11 8.83 16.3425 8.695C16.575 8.56 16.72 8.3125 16.72 8.0425V1.255C16.72 1.05 16.6375 0.8625 16.5025 0.725H16.505Z" fill="black"/>
<path d="M6.73004 17.2725C6.31504 17.2725 5.97754 17.61 5.97754 18.025V23.245C5.97754 23.66 6.31504 23.9975 6.73004 23.9975C7.14504 23.9975 7.48254 23.66 7.48254 23.245V18.025C7.48254 17.61 7.14504 17.2725 6.73004 17.2725Z" fill="black"/>
<path d="M3.715 16.5201C3.715 16.1051 3.3775 15.7676 2.9625 15.7676H0.7525C0.3375 15.7676 0 16.1051 0 16.5201C0 16.9351 0.3375 17.2726 0.7525 17.2726H2.9625C3.3775 17.2726 3.715 16.9351 3.715 16.5201Z" fill="black"/>
<path d="M2.9425 11.4151C2.6475 11.1201 2.1725 11.1201 1.8775 11.4151C1.5825 11.7101 1.5825 12.1851 1.8775 12.4801L3.485 14.0876C3.6325 14.2351 3.825 14.3076 4.0175 14.3076C4.21 14.3076 4.4025 14.2351 4.55 14.0876C4.845 13.7926 4.845 13.3176 4.55 13.0226L2.9425 11.4151Z" fill="black"/>
<path d="M3.485 18.95L1.8775 20.5575C1.5825 20.8525 1.5825 21.3275 1.8775 21.6225C2.025 21.77 2.2175 21.8425 2.41 21.8425C2.6025 21.8425 2.795 21.77 2.9425 21.6225L4.55 20.015C4.845 19.72 4.845 19.245 4.55 18.95C4.255 18.655 3.7775 18.655 3.485 18.95Z" fill="black"/>
<path fill-rule="evenodd" clip-rule="evenodd" d="M17.25 10.5C13.525 10.505 10.505 13.525 10.5 17.25C10.505 20.975 13.525 23.995 17.25 24C20.975 23.995 23.995 20.975 24 17.25C23.995 13.525 20.975 10.505 17.25 10.5ZM17.25 22.5C14.3525 22.4975 12.0025 20.1475 12 17.25C12.0025 14.3525 14.3525 12.0025 17.25 12C20.1475 12.0025 22.4975 14.3525 22.5 17.25C22.4975 20.1475 20.1475 22.4975 17.25 22.5Z" fill="#EE0701"/>
<path fill-rule="evenodd" clip-rule="evenodd" d="M18.3102 17.25L19.9002 15.66C20.1927 15.3675 20.1927 14.8925 19.9002 14.6C19.6077 14.3075 19.1327 14.3075 18.8402 14.6L17.2502 16.19L15.6602 14.6C15.3677 14.3075 14.8927 14.3075 14.6002 14.6C14.3077 14.8925 14.3077 15.3675 14.6002 15.66L16.1902 17.25L14.6002 18.84C14.3077 19.1325 14.3077 19.6075 14.6002 19.9C14.8927 20.1925 15.3677 20.1925 15.6602 19.9L17.2502 18.31L18.8402 19.9C19.1327 20.1925 19.6077 20.1925 19.9002 19.9C20.1927 19.6075 20.1927 19.1325 19.9002 18.84L18.3102 17.25Z" fill="black"/>
</svg>
