<svg width="24" height="24" fill="none" xmlns="http://www.w3.org/2000/svg"><path d="M10.78 24a.773.773 0 01-.551-.228.771.771 0 01-.213-.702l.779-3.89a.775.775 0 01.213-.397l7.93-7.913a2.958 2.958 0 012.105-.87c.793 0 1.538.307 2.1.863 1.132 1.16 1.141 2.997.037 4.195a.437.437 0 01-.022.022l-7.93 7.913a.773.773 0 01-.399.213l-3.896.777a.713.713 0 01-.154.017zm.993-1.77l2.519-.502 7.756-7.74c.518-.568.524-1.478-.001-2.017l-.022-.022a1.393 1.393 0 00-.982-.393l-.001-.39v.39c-.378 0-.735.147-1.002.414l-7.763 7.747-.504 2.514z" fill="#000"/><path d="M4 10.25c0-.414.378-.75.844-.75h7.312c.466 0 .844.336.844.75s-.378.75-.844.75H4.844C4.378 11 4 10.664 4 10.25zM4 6.75c0-.414.378-.75.844-.75h7.312c.466 0 .844.336.844.75s-.378.75-.844.75H4.844C4.378 7.5 4 7.164 4 6.75zM4 13.75a.75.75 0 01.75-.75h3.5a.75.75 0 010 1.5h-3.5a.75.75 0 01-.75-.75z" fill="#29D305"/><path d="M2.253 21A2.253 2.253 0 010 18.75V2.25A2.254 2.254 0 012.253 0h10.64a2.24 2.24 0 011.593.658L17.36 3.53c.425.425.66.99.66 1.59v3.13a.75.75 0 01-1.502 0V5.121c0-.197-.08-.39-.22-.53l-2.875-2.872a.749.749 0 00-.53-.219H2.253a.75.75 0 00-.751.75v16.5c0 .414.336.75.75.75H7.51a.75.75 0 110 1.5H2.253z" fill="#000"/></svg>