<svg width="24" height="24" fill="none" xmlns="http://www.w3.org/2000/svg"><path d="M8.032 3.73a.603.603 0 01.83-.115.568.568 0 01.118.808L6.698 7.37a.598.598 0 01-.433.228.597.597 0 01-.46-.167l-1.63-1.578a.563.563 0 010-.816.597.597 0 01.418-.169c.158 0 .308.06.42.169l1.147 1.11L8.032 3.73z" fill="#29D305"/><path d="M11.264 24c-.2 0-.39-.078-.53-.22a.744.744 0 01-.206-.677l.75-3.75a.747.747 0 01.206-.384l7.639-7.63a2.849 2.849 0 012.028-.839c.764 0 1.482.296 2.022.832 1.092 1.119 1.1 2.89.037 4.045l-.022.022-7.638 7.63a.745.745 0 01-.385.205l-3.753.75a.685.685 0 01-.148.016zm.957-1.706l2.427-.485 7.471-7.463c.5-.548.505-1.426 0-1.945a1.342 1.342 0 00-.967-.401l-.002-.375V12c-.364 0-.708.142-.965.4l-7.479 7.47-.485 2.424zM2.253 21A2.253 2.253 0 010 18.75V2.25A2.254 2.254 0 012.253 0h10.64a2.24 2.24 0 011.593.658L17.36 3.53c.425.425.66.99.66 1.59v3.13a.75.75 0 01-1.502 0V5.121c0-.197-.08-.39-.22-.53l-2.875-2.872a.749.749 0 00-.53-.219H2.253a.75.75 0 00-.751.75v16.5c0 .414.336.75.75.75H7.51a.75.75 0 110 1.5H2.253z" fill="#000"/><path d="M11.264 24c-.2 0-.39-.078-.53-.22a.744.744 0 01-.206-.677l.75-3.75a.747.747 0 01.206-.384l7.639-7.63a2.849 2.849 0 012.028-.839c.764 0 1.482.296 2.022.832 1.092 1.119 1.1 2.89.037 4.045l-.022.022-7.638 7.63a.745.745 0 01-.385.205l-3.753.75a.685.685 0 01-.148.016zm.957-1.706l2.427-.485 7.471-7.463c.5-.548.505-1.426 0-1.945a1.342 1.342 0 00-.967-.401l-.002-.375V12c-.364 0-.708.142-.965.4l-7.479 7.47-.485 2.424zM2.253 21A2.253 2.253 0 010 18.75V2.25A2.254 2.254 0 012.253 0h10.64a2.24 2.24 0 011.593.658L17.36 3.53c.425.425.66.99.66 1.59v3.13a.75.75 0 01-1.502 0V5.121c0-.197-.08-.39-.22-.53l-2.875-2.872a.749.749 0 00-.53-.219H2.253a.75.75 0 00-.751.75v16.5c0 .414.336.75.75.75H7.51a.75.75 0 110 1.5H2.253z" fill="#000"/><rect x="4.375" y="9.875" width="7.25" height=".75" rx=".375" fill="#29D305" stroke="#000" stroke-width=".75"/><rect x="4.375" y="13.375" width="4.25" height=".75" rx=".375" fill="#29D305" stroke="#000" stroke-width=".75"/></svg>