<svg width="24" height="24" viewBox="0 0 24 24" fill="none" xmlns="http://www.w3.org/2000/svg">
<path d="M8.03192 3.72991C8.14382 3.58541 8.32162 3.5 8.50692 3.5C8.63548 3.5 8.7588 3.53977 8.86232 3.61477C8.98886 3.70669 9.07177 3.84138 9.09405 3.99474C9.11631 4.14731 9.07562 4.29986 8.98048 4.42272L6.69804 7.37009C6.59426 7.50359 6.4368 7.58702 6.2655 7.59848L6.26423 7.59856C6.25162 7.59924 6.23744 7.6 6.22376 7.6C6.06617 7.6 5.91662 7.54042 5.80488 7.43147L4.17475 5.85271C4.0622 5.74443 4 5.59879 4 5.44474C4 5.29071 4.06211 5.14516 4.17462 5.03689C4.28636 4.92797 4.43588 4.86842 4.59344 4.86842C4.75103 4.86842 4.90058 4.928 5.01232 5.03696L6.15972 6.14752L8.03192 3.72991Z" fill="#29D305"/>
<path d="M22.3051 14.5146L22.3046 14.515C22.3048 14.5149 22.3049 14.5147 22.3051 14.5146Z" fill="#29D305" stroke="black" stroke-width="2.5"/>
</svg>
