<svg width="24" height="24" viewBox="0 0 24 24" fill="none" xmlns="http://www.w3.org/2000/svg">
<g id="forward_circle-color">
<path id="Color" fill-rule="evenodd" clip-rule="evenodd" d="M12 1.7561C6.34245 1.7561 1.7561 6.34245 1.7561 12C1.7561 17.6576 6.34245 22.2439 12 22.2439C17.6576 22.2439 22.2439 17.6576 22.2439 12C22.2439 6.34245 17.6576 1.7561 12 1.7561ZM0 12C0 5.37258 5.37258 0 12 0C18.6274 0 24 5.37258 24 12C24 18.6274 18.6274 24 12 24C5.37258 24 0 18.6274 0 12Z" fill="#29D305"/>
<g id="Icon">
<path d="M7.5 8.49591V15.6667C7.5 16.5459 8.553 16.9972 9.18965 16.3908L12.775 12.9762C13.1753 12.595 13.1904 11.9614 12.8087 11.5616L9.22336 7.80543C8.60044 7.15285 7.5 7.59375 7.5 8.49591Z" fill="black"/>
<path d="M12.5 8.49591V15.6667C12.5 16.5459 13.553 16.9972 14.1897 16.3908L17.775 12.9762C18.1753 12.595 18.1904 11.9614 17.8087 11.5616L14.2234 7.80543C13.6004 7.15285 12.5 7.59375 12.5 8.49591Z" fill="black"/>
</g>
</g>
</svg>
