<svg width="24" height="24" viewBox="0 0 24 24" fill="none" xmlns="http://www.w3.org/2000/svg">
<path fill-rule="evenodd" clip-rule="evenodd" d="M6.88699 10.35C6.88699 9.93576 7.23738 9.59998 7.66961 9.59998H17.8436C18.2758 9.59998 18.6262 9.93576 18.6262 10.35C18.6262 10.7642 18.2758 11.1 17.8436 11.1H7.66961C7.23738 11.1 6.88699 10.7642 6.88699 10.35Z" fill="#29D305"/>
<path fill-rule="evenodd" clip-rule="evenodd" d="M6.88699 13.35C6.88699 12.9358 7.23738 12.6 7.66961 12.6H14.7131C15.1453 12.6 15.4957 12.9358 15.4957 13.35C15.4957 13.7642 15.1453 14.1 14.7131 14.1H7.66961C7.23738 14.1 6.88699 13.7642 6.88699 13.35Z" fill="#29D305"/>
<path fill-rule="evenodd" clip-rule="evenodd" d="M21 1.5H12C6.20101 1.5 1.5 6.20101 1.5 12C1.5 17.799 6.20101 22.5 12 22.5C17.799 22.5 22.5 17.799 22.5 12V3C22.5 2.17157 21.8284 1.5 21 1.5ZM12 0C5.37258 0 0 5.37258 0 12C0 18.6274 5.37258 24 12 24C18.6274 24 24 18.6274 24 12V3C24 1.34315 22.6569 0 21 0H12Z" fill="black"/>
</svg>
