<svg width="24" height="24" fill="none" xmlns="http://www.w3.org/2000/svg"><path fill-rule="evenodd" clip-rule="evenodd" d="M22.5 4.284v7.934c0 5.694-4.701 10.31-10.5 10.31-5.781 0-10.5-4.707-10.5-10.418C1.5 6.28 6.318 1.473 12.222 1.473h7.414c.654 0 1.076 0 1.4.02.311.02.431.052.488.073.408.149.73.465.881.865.022.056.055.174.074.48.02.317.021.732.021 1.373zM12 24C5.373 24 0 18.617 0 12.11 0 5.483 5.472 0 12.222 0h7.414c1.27 0 1.905 0 2.412.186.816.298 1.459.93 1.763 1.73C24 2.414 24 3.037 24 4.284v7.934C24 18.725 18.627 24 12 24z" fill="#000"/><path fill-rule="evenodd" clip-rule="evenodd" d="M6.887 10.35c0-.414.35-.75.783-.75h10.174c.432 0 .782.336.782.75s-.35.75-.782.75H7.67c-.433 0-.783-.336-.783-.75zM6.887 13.35c0-.414.35-.75.783-.75h7.043c.432 0 .783.336.783.75s-.35.75-.783.75H7.67c-.433 0-.783-.336-.783-.75z" fill="#29D305"/></svg>