<svg width="24" height="24" fill="none" xmlns="http://www.w3.org/2000/svg"><path fill-rule="evenodd" clip-rule="evenodd" d="M11.13 9.82L11.998 3 7 13.18h2.87L9.002 20 14 9.82h-2.87z" fill="#000"/><path d="M6 5H3.201A3.201 3.201 0 000 8.2v6.4a3.2 3.2 0 003.2 3.2h2.792s.814 0 .814-.8-.814-.8-.814-.8H3.2a1.6 1.6 0 01-1.6-1.6V8.2a1.601 1.601 0 011.601-1.6H6s.806 0 .806-.8S6 5 6 5zM15.364 16.2H17.6a1.6 1.6 0 001.6-1.6v-.8a.8.8 0 01.8-.8h1.6a.8.8 0 00.8-.8v-1.6a.8.8 0 00-.8-.8H20a.8.8 0 01-.8-.8v-.8a1.6 1.6 0 00-1.6-1.6h-2.21s-.89 0-.89-.8.89-.8.89-.8h2.21a3.2 3.2 0 013.2 3.2h.8a2.4 2.4 0 012.4 2.4v1.6a2.4 2.4 0 01-2.4 2.4h-.8a3.2 3.2 0 01-3.2 3.2h-2.236s-.864 0-.864-.8.864-.8.864-.8z" fill="#000"/></svg>