<svg width="24" height="24" viewBox="0 0 24 24" fill="none" xmlns="http://www.w3.org/2000/svg">
<path d="M5 5.5H3.20107C2.35234 5.5 1.53835 5.84233 0.938073 6.45171C0.337798 7.06109 0.000377083 7.88801 0 8.75V15.25C0 16.112 0.337142 16.9386 0.937258 17.5481C1.53737 18.1576 2.35131 18.5 3.2 18.5H4.99161C4.99161 18.5 5.80625 18.5 5.80625 17.6875C5.80625 16.875 4.99161 16.875 4.99161 16.875H3.2C2.77565 16.875 2.36869 16.7038 2.06863 16.399C1.76857 16.0943 1.6 15.681 1.6 15.25V8.75C1.60028 8.31899 1.76904 7.90572 2.06919 7.60101C2.36943 7.29622 2.77656 7.125 3.20107 7.125H5C5 7.125 5.80625 7.125 5.80625 6.3125C5.80625 5.5 5 5.5 5 5.5Z" fill="black"/>
<path d="M15.3636 16.875H17.6C18.0243 16.875 18.4313 16.7038 18.7314 16.399C19.0314 16.0943 19.2 15.681 19.2 15.25V14.4375C19.2 13.9888 19.5582 13.625 20 13.625H21.6C21.8122 13.625 22.0157 13.5394 22.1657 13.387C22.3157 13.2347 22.4 13.028 22.4 12.8125V11.1875C22.4 10.972 22.3157 10.7653 22.1657 10.613C22.0157 10.4606 21.8122 10.375 21.6 10.375H20C19.5582 10.375 19.2 10.0112 19.2 9.5625V8.75C19.2 8.31902 19.0314 7.9057 18.7314 7.60095C18.4313 7.2962 18.0243 7.125 17.6 7.125H15.3897C15.3897 7.125 14.5 7.125 14.5 6.3125C14.5 5.5 15.3897 5.5 15.3897 5.5H17.6C18.4487 5.5 19.2626 5.84241 19.8627 6.4519C20.4629 7.0614 20.8 7.88805 20.8 8.75H21.6C22.2365 8.75 22.847 9.00681 23.2971 9.46393C23.7471 9.92105 24 10.541 24 11.1875V12.8125C24 13.459 23.7471 14.079 23.2971 14.5361C22.847 14.9932 22.2365 15.25 21.6 15.25H20.8C20.8 16.112 20.4629 16.9386 19.8627 17.5481C19.2626 18.1576 18.4487 18.5 17.6 18.5H15.3636C15.3636 18.5 14.5 18.5 14.5 17.6875C14.5 16.875 15.3636 16.875 15.3636 16.875Z" fill="black"/>
<path d="M6.72488 11.8016L7.17158 11.137L8.6015 9.29166L11.3118 5.65114C11.5025 5.38965 11.9219 5.49316 11.9274 5.76554C11.9328 6.03793 11.3336 9.85129 11.2355 10.4505C11.234 10.462 11.2348 10.4736 11.2378 10.4848C11.2408 10.496 11.246 10.5064 11.2531 10.5155C11.2602 10.5247 11.2691 10.5323 11.2792 10.538C11.2892 10.5436 11.3003 10.5472 11.3118 10.5486L12.6356 10.761C12.7866 10.7829 12.9263 10.8537 13.0333 10.9626C13.142 11.0693 13.2209 11.2027 13.2621 11.3494C13.2974 11.4962 13.2974 11.6493 13.2621 11.7961C13.2351 11.9469 13.1756 12.09 13.0877 12.2156L11.5807 14.1666L8.45723 18.3769C8.41851 18.43 8.36341 18.4689 8.30041 18.4876C8.23741 18.5063 8.17 18.5038 8.10858 18.4804C8.04651 18.4553 7.99486 18.4098 7.96218 18.3513C7.92949 18.2929 7.91772 18.225 7.92881 18.159L8.59887 13.583C8.60117 13.5689 8.60057 13.5546 8.59709 13.5408C8.5936 13.5271 8.58732 13.5141 8.57864 13.5029C8.56995 13.4917 8.55904 13.4823 8.54659 13.4755C8.53414 13.4686 8.52041 13.4644 8.50626 13.4631L7.20427 13.2561C7.06967 13.2348 6.94209 13.1817 6.83217 13.1012C6.72225 13.0206 6.63317 12.915 6.57234 12.7931C6.50556 12.6295 6.48447 12.4508 6.51134 12.2762C6.53821 12.1016 6.61201 11.9375 6.72488 11.8016Z" fill="#29D305"/>
</svg>
