<svg width="24" height="24" viewBox="0 0 24 24" fill="none" xmlns="http://www.w3.org/2000/svg">
<path fill-rule="evenodd" clip-rule="evenodd" d="M7.40447 9.43592V14.5641H16.596V9.43592H7.40447ZM6.89384 7.89746C6.3298 7.89746 5.87256 8.35666 5.87256 8.9231V15.0769C5.87256 15.6434 6.3298 16.1026 6.89383 16.1026H17.1066C17.6706 16.1026 18.1279 15.6434 18.1279 15.0769V8.9231C18.1279 8.35666 17.6706 7.89746 17.1066 7.89746H6.89384Z" fill="black"/>
<path fill-rule="evenodd" clip-rule="evenodd" d="M0 2.76923C0 2.3444 0.342931 2 0.765957 2H4.85106C5.27409 2 5.61702 2.3444 5.61702 2.76923C5.61702 3.19407 5.27409 3.53846 4.85106 3.53846H1.53191V6.87179C1.53191 7.29663 1.18898 7.64103 0.765957 7.64103C0.342931 7.64103 0 7.29663 0 6.87179V2.76923Z" fill="black"/>
<path fill-rule="evenodd" clip-rule="evenodd" d="M0 21.2308C0 21.6556 0.342931 22 0.765957 22H4.85106C5.27409 22 5.61702 21.6556 5.61702 21.2308C5.61702 20.8059 5.27409 20.4615 4.85106 20.4615H1.53191V17.1282C1.53191 16.7034 1.18898 16.359 0.765957 16.359C0.342931 16.359 0 16.7034 0 17.1282V21.2308Z" fill="black"/>
<path fill-rule="evenodd" clip-rule="evenodd" d="M23.234 2C23.6571 2 24 2.3444 24 2.76923L24 6.87179C24 7.29663 23.6571 7.64103 23.234 7.64103C22.811 7.64103 22.4681 7.29663 22.4681 6.87179L22.4681 3.53846L19.1489 3.53846C18.7259 3.53846 18.383 3.19406 18.383 2.76923C18.383 2.3444 18.7259 2 19.1489 2L23.234 2Z" fill="black"/>
<path fill-rule="evenodd" clip-rule="evenodd" d="M23.234 22C23.6571 22 24 21.6556 24 21.2308L24 17.1282C24 16.7034 23.6571 16.359 23.234 16.359C22.811 16.359 22.4681 16.7034 22.4681 17.1282L22.4681 20.4615L19.1489 20.4615C18.7259 20.4615 18.383 20.8059 18.383 21.2308C18.383 21.6556 18.7259 22 19.1489 22L23.234 22Z" fill="black"/>
<path fill-rule="evenodd" clip-rule="evenodd" d="M18.6075 7.23973C18.3084 6.93933 18.3084 6.45228 18.6075 6.15187L21.4961 3.25092C21.7953 2.95052 22.2802 2.95052 22.5794 3.25092C22.8785 3.55132 22.8785 4.03837 22.5794 4.33878L19.6908 7.23973C19.3916 7.54013 18.9067 7.54013 18.6075 7.23973Z" fill="black"/>
<path fill-rule="evenodd" clip-rule="evenodd" d="M1.24572 20.573C0.94659 20.2726 0.94659 19.7855 1.24572 19.4851L4.13432 16.5842C4.43345 16.2838 4.91842 16.2838 5.21755 16.5842C5.51667 16.8846 5.51667 17.3716 5.21755 17.672L2.32894 20.573C2.02982 20.8734 1.54484 20.8734 1.24572 20.573Z" fill="black"/>
<path fill-rule="evenodd" clip-rule="evenodd" d="M5.21766 7.23973C5.51679 6.93933 5.51679 6.45228 5.21766 6.15187L2.32906 3.25092C2.02993 2.95052 1.54495 2.95052 1.24583 3.25092C0.946705 3.55132 0.946705 4.03837 1.24583 4.33878L4.13444 7.23973C4.43356 7.54013 4.91854 7.54013 5.21766 7.23973Z" fill="black"/>
<path fill-rule="evenodd" clip-rule="evenodd" d="M22.579 20.573C22.8781 20.2726 22.8781 19.7855 22.579 19.4851L19.6904 16.5842C19.3913 16.2838 18.9063 16.2838 18.6072 16.5842C18.308 16.8846 18.308 17.3716 18.6072 17.672L21.4958 20.573C21.7949 20.8734 22.2799 20.8734 22.579 20.573Z" fill="black"/>
</svg>
