<svg width="24" height="24" viewBox="0 0 24 24" fill="none" xmlns="http://www.w3.org/2000/svg">
<path d="M23.5 12.7389C23.5 11.246 23.1987 9.85271 22.596 8.4594C22.4955 8.26035 22.3558 8.14138 22.1942 8.06131C21.9933 7.96179 21.7924 7.96179 21.5915 8.06131C21.2902 8.16083 21.0893 8.4594 21.0893 8.75797C21.0893 8.85749 21.1197 8.89005 21.1897 9.05653C21.692 10.2508 21.8929 11.4451 21.8929 12.7389C21.8929 15.2269 20.9888 17.5159 19.1808 19.3073C17.3728 21.0987 14.9621 22.1935 12.4509 22.293C9.83929 22.3925 7.42857 21.3973 5.52009 19.6059C3.61161 17.8145 2.5067 15.3264 2.5067 12.7389C2.5067 10.2508 3.41071 7.96179 5.21875 6.17038C6.92634 4.4785 9.23661 3.38376 11.5469 3.18472C13.6563 3.08519 15.7656 3.5828 17.5737 4.77707L14.6607 4.77707C14.2589 4.77707 13.8571 5.17516 13.8571 5.57325C13.8571 5.97134 14.2589 6.36943 14.6607 6.36943L19.4821 6.36943C19.8839 6.36943 20.2857 5.97134 20.2857 5.57325L20.2857 5.37421C20.2857 5.37421 20.2857 5.3742 20.2857 5.27468L20.2857 0.796179C20.2857 0.398089 19.9844 -1.3027e-07 19.4821 -1.36259e-07C18.9799 -1.42249e-07 18.6786 0.398089 18.6786 0.796179L18.6786 3.5828C16.7701 2.28901 14.3594 1.49284 12.0491 1.59236C11.8482 1.59236 11.5469 1.59236 11.2455 1.69188L11.1451 1.69188C11.0446 1.69188 11.0446 1.69188 10.9442 1.69188C8.23214 1.99045 5.92188 3.18471 4.11384 5.07564C2.10491 7.16561 1 9.95223 1 12.8384C1 14.3312 1.30134 15.7245 1.90402 17.1178C1.90402 17.2174 2.00446 17.3169 2.10491 17.4164C2.70759 18.7102 3.51116 19.9045 4.61607 20.8997C9.13616 25.1791 16.2679 24.9801 20.5871 20.6011C22.3951 18.4116 23.5 15.625 23.5 12.7389Z" fill="black"/>
<path d="M16.7984 17.8005C16.5851 17.8005 16.3835 17.7173 16.2331 17.5658L11.2336 12.5653C11.1589 12.4906 11.1003 12.4032 11.0597 12.304C11.0565 12.2954 11.0533 12.2858 11.0501 12.2773C11.016 12.1856 11 12.0938 11 12V7.99995C11 7.55835 11.3584 7.19995 11.8 7.19995C12.2416 7.19995 12.6 7.55835 12.6 7.99995V11.6682L17.3648 16.4341C17.5163 16.5856 17.5995 16.7861 17.5995 16.9994C17.5995 17.2128 17.5163 17.4144 17.3648 17.5648C17.2133 17.7152 17.0117 17.8005 16.7984 17.8005Z" fill="black"/>
</svg>
