<svg width="24" height="24" fill="none" xmlns="http://www.w3.org/2000/svg"><path d="M.75 24a.75.75 0 010-1.5h.75V18c0-.827.673-1.5 1.5-1.5h3c.827 0 1.5.673 1.5 1.5v4.5H9v-12c0-.827.673-1.5 1.5-1.5h3c.827 0 1.5.673 1.5 1.5v12h1.5V15c0-.827.673-1.5 1.5-1.5h3c.827 0 1.5.673 1.5 1.5v7.5h.75a.75.75 0 010 1.5H.75zM21 22.5V15h-3v7.5h3zm-7.5 0v-12h-3v12h3zm-7.5 0V18H3v4.5h3z" fill="#000"/><path fill-rule="evenodd" clip-rule="evenodd" d="M4.5 13a2.252 2.252 0 01-2.25-2.25 2.252 2.252 0 013.012-2.116l4.818-5.218a2.257 2.257 0 01-.327-1.166A2.252 2.252 0 0112.003 0c1.163 0 2.497 1 2.217 2.6l4.18 2.68S19 5 19.5 5a2.252 2.252 0 012.25 2.25A2.252 2.252 0 0119.5 9.5c-1.241 0-2.25-1-2.25-2.25 0-.5.13-.75.13-.75L13.5 3.938s-.605.562-1.497.562c-.253 0-.518-.046-.762-.134L6.423 9.584c.212.35.327.755.327 1.166A2.252 2.252 0 014.5 13zm-.75-2.25a.75.75 0 111.5 0 .75.75 0 01-1.5 0zm15-3.5a.75.75 0 111.5 0 .75.75 0 01-1.5 0zm-7.497-5a.75.75 0 111.5 0 .75.75 0 01-1.5 0z" fill="#000"/></svg>