<svg width="24" height="24" viewBox="0 0 24 24" fill="none" xmlns="http://www.w3.org/2000/svg">
<path fill-rule="evenodd" clip-rule="evenodd" d="M0 23.25C0 23.664 0.336 24 0.75 24H23.25C23.664 24 24 23.664 24 23.25C24 22.836 23.664 22.5 23.25 22.5H22.5V19C22.5 18.173 21.827 17.5 21 17.5H18C17.173 17.5 16.5 18.173 16.5 19V22.5H15V16.5C15 15.673 14.327 15 13.5 15H10.5C9.673 15 9 15.673 9 16.5V22.5H7.5V13C7.5 12.173 6.827 11.5 6 11.5H3C2.173 11.5 1.5 12.173 1.5 13V22.5H0.75C0.336 22.5 0 22.836 0 23.25ZM21 19V22.5H18V19H21ZM13.5 16.5V22.5H10.5V16.5H13.5ZM6 13V22.5H3V13H6Z" fill="black"/>
<path d="M0.75 0C0.55 0 0.361 0.0779993 0.22 0.219999C0.078 0.360999 0 0.55 0 0.75C0 0.95 0.078 1.139 0.22 1.28L7.409 8.469C7.834 8.894 8.399 9.127 9.001 9.127C9.603 9.127 10.168 8.893 10.592 8.469L13.72 5.341C13.862 5.199 14.051 5.121 14.251 5.121C14.451 5.121 14.64 5.199 14.782 5.341L21.441 12H16.5C16.086 12 15.75 12.336 15.75 12.75C15.75 13.164 16.086 13.5 16.5 13.5H23.25C23.339 13.5 23.426 13.484 23.511 13.452C23.522 13.448 23.533 13.444 23.543 13.44C23.719 13.368 23.868 13.219 23.944 13.035C23.947 13.027 23.951 13.018 23.954 13.009C23.984 12.928 24 12.839 24 12.75V6C24 5.586 23.664 5.25 23.25 5.25C22.836 5.25 22.5 5.586 22.5 6V10.939L15.841 4.28C15.416 3.855 14.851 3.622 14.249 3.622C13.648 3.622 13.083 3.855 12.659 4.28L9.53 7.409C9.389 7.55 9.201 7.628 9 7.628C8.8 7.628 8.611 7.55 8.47 7.409L1.28 0.219999C1.139 0.0779993 0.95 0 0.75 0Z" fill="black"/>
</svg>
