<svg width="24" height="24" fill="none" xmlns="http://www.w3.org/2000/svg"><path fill-rule="evenodd" clip-rule="evenodd" d="M.22 13.28c.141.142.33.22.53.22s.389-.078.53-.22l7.19-7.189A.746.746 0 019 5.872c.201 0 .389.078.53.219l3.129 3.129a2.23 2.23 0 001.59.658c.602 0 1.167-.233 1.592-.658L22.5 2.561V7.5a.75.75 0 001.5 0V.75a.751.751 0 00-.052-.276l-.004-.009a.75.75 0 00-.401-.405l-.032-.012A.735.735 0 0023.25 0H16.5a.75.75 0 000 1.5h4.941l-6.659 6.659a.747.747 0 01-1.062 0l-3.128-3.128a2.235 2.235 0 00-1.591-.658c-.602 0-1.167.233-1.592.658L.22 12.22a.743.743 0 00-.22.53c0 .2.078.389.22.53zM0 23.25c0 .414.336.75.75.75h22.5a.75.75 0 000-1.5h-.75V15c0-.827-.673-1.5-1.5-1.5h-3c-.827 0-1.5.673-1.5 1.5v7.5H15v-7c0-.827-.673-1.5-1.5-1.5h-3c-.827 0-1.5.673-1.5 1.5v7H7.5V18c0-.827-.673-1.5-1.5-1.5H3c-.827 0-1.5.673-1.5 1.5v4.5H.75a.75.75 0 00-.75.75zM21 15v7.5h-3V15h3zm-7.5.5v7h-3v-7h3zM6 18v4.5H3V18h3z" fill="#000"/></svg>