<svg width="24" height="24" viewBox="0 0 24 24" fill="none" xmlns="http://www.w3.org/2000/svg">
<path fill-rule="evenodd" clip-rule="evenodd" d="M2.25 10.75C2.25 11.991 3.259 13 4.5 13C5.741 13 6.75 11.991 6.75 10.75C6.75 10.339 6.635 9.934 6.423 9.584L11.241 4.366C11.485 4.454 11.75 4.5 12.003 4.5C12.8945 4.5 13.5 3.938 13.5 3.938L17.38 6.5C17.38 6.5 17.25 6.75 17.25 7.25C17.25 8.5 18.259 9.5 19.5 9.5C20.741 9.5 21.75 8.491 21.75 7.25C21.75 6.009 20.741 5 19.5 5C19 5 18.4 5.28 18.4 5.28L14.22 2.6C14.5 1 13.1662 0 12.003 0C10.762 0 9.753 1.009 9.753 2.25C9.753 2.661 9.868 3.066 10.08 3.416L5.262 8.634C5.018 8.546 4.759 8.5 4.5 8.5C3.259 8.5 2.25 9.509 2.25 10.75ZM4.5 10C4.086 10 3.75 10.336 3.75 10.75C3.75 11.164 4.086 11.5 4.5 11.5C4.914 11.5 5.25 11.164 5.25 10.75C5.25 10.336 4.914 10 4.5 10ZM19.5 6.5C19.086 6.5 18.75 6.836 18.75 7.25C18.75 7.664 19.086 8 19.5 8C19.914 8 20.25 7.664 20.25 7.25C20.25 6.836 19.914 6.5 19.5 6.5ZM12.003 1.5C11.589 1.5 11.253 1.836 11.253 2.25C11.253 2.664 11.589 3 12.003 3C12.417 3 12.753 2.664 12.753 2.25C12.753 1.836 12.417 1.5 12.003 1.5ZM0 23.25C0 23.664 0.336 24 0.75 24H23.25C23.664 24 24 23.664 24 23.25C24 22.836 23.664 22.5 23.25 22.5H22.5V15C22.5 14.173 21.827 13.5 21 13.5H18C17.173 13.5 16.5 14.173 16.5 15V22.5H15V10.5C15 9.673 14.327 9 13.5 9H10.5C9.673 9 9 9.673 9 10.5V22.5H7.5V18C7.5 17.173 6.827 16.5 6 16.5H3C2.173 16.5 1.5 17.173 1.5 18V22.5H0.75C0.336 22.5 0 22.836 0 23.25ZM21 15V22.5H18V15H21ZM13.5 10.5V22.5H10.5V10.5H13.5ZM6 18V22.5H3V18H6Z" fill="black"/>
</svg>
