<svg width="24" height="24" viewBox="0 0 24 24" fill="none" xmlns="http://www.w3.org/2000/svg">
<g clip-path="url(#clip0)">
<path d="M14.249 23C13.835 23 13.499 22.6621 13.499 22.2458V16.2124C13.499 15.7961 13.163 15.4582 12.749 15.4582H11.249C10.835 15.4582 10.499 15.7961 10.499 16.2124V22.2458C10.499 22.6621 10.163 23 9.749 23H3.749C3.335 23 2.999 22.6621 2.999 22.2458V11.246L1.279 12.9754C1.138 13.1172 0.949 13.1956 0.749 13.1956C0.549 13.1956 0.36 13.1172 0.219 12.9744C-0.073 12.6808 -0.073 12.2021 0.219 11.9075L10.409 1.66167C10.833 1.2353 11.398 1 12 1C12.601 1 13.166 1.2353 13.591 1.66167L15.797 3.87997L19.6265 7.73846L20 8.12748C20.292 8.42111 20.292 8.89976 20 9.1944C19.858 9.33719 19.67 9.41563 19.47 9.41563C19.27 9.41563 19.081 9.33719 18.94 9.1944L18.1265 8.36356L12.53 2.72959C12.389 2.58781 12.201 2.50937 12 2.50937C11.799 2.50937 11.611 2.58781 11.469 2.72959L4.499 9.73777V21.4916H8.999V16.2124C8.999 14.9644 10.008 13.9498 11.249 13.9498H12.749C13.99 13.9498 14.999 14.9644 14.999 16.2124V21.4916H16C16 21.4916 17 21.4916 17 22.2458C17 23 16 23 16 23H14.249Z" fill="black"/>
<path d="M17.7541 16.8168L18.1792 16.2034L19.5403 14.5L22.12 11.1395C22.3015 10.8981 22.7007 10.9937 22.7059 11.2451C22.7111 11.4965 22.1407 15.0166 22.0474 15.5697C22.0459 15.5803 22.0467 15.5911 22.0496 15.6014C22.0524 15.6117 22.0574 15.6213 22.0641 15.6297C22.0709 15.6381 22.0793 15.6452 22.0889 15.6504C22.0985 15.6557 22.1091 15.659 22.12 15.6602L23.38 15.8564C23.5238 15.8765 23.6567 15.9419 23.7585 16.0424C23.862 16.1409 23.9371 16.264 23.9763 16.3994C24.01 16.5349 24.01 16.6763 23.9763 16.8118C23.9506 16.951 23.894 17.0831 23.8104 17.199L22.3759 19L19.4029 22.8864C19.3661 22.9354 19.3136 22.9713 19.2537 22.9886C19.1937 23.0058 19.1296 23.0035 19.0711 22.9819C19.012 22.9587 18.9629 22.9167 18.9317 22.8628C18.9006 22.8088 18.8894 22.7462 18.9 22.6852L19.5378 18.4612C19.54 18.4483 19.5394 18.435 19.5361 18.4223C19.5327 18.4096 19.5268 18.3977 19.5185 18.3873C19.5102 18.3769 19.4998 18.3683 19.488 18.362C19.4761 18.3557 19.4631 18.3518 19.4496 18.3506L18.2103 18.1595C18.0822 18.1399 17.9608 18.0908 17.8562 18.0165C17.7516 17.9421 17.6668 17.8446 17.6089 17.7321C17.5453 17.5811 17.5252 17.4162 17.5508 17.255C17.5764 17.0938 17.6466 16.9423 17.7541 16.8168Z" fill="black"/>
</g>
<defs>
<clipPath id="clip0">
<rect width="24" height="24" fill="white"/>
</clipPath>
</defs>
</svg>
