<svg width="24" height="24" fill="none" xmlns="http://www.w3.org/2000/svg"><path d="M14.249 22a.752.752 0 01-.75-.754v-6.034a.752.752 0 00-.75-.754h-1.5a.752.752 0 00-.75.754v6.034a.752.752 0 01-.75.754h-6a.752.752 0 01-.75-.754v-11l-1.72 1.73a.744.744 0 01-1.06-.002.76.76 0 010-1.066L10.409.662A2.229 2.229 0 0112 0c.601 0 1.166.235 1.591.662l2.206 2.218 3.83 3.858.373.39a.76.76 0 010 1.066.742.742 0 01-1.06 0l-.814-.83L12.53 1.73a.746.746 0 00-1.061 0l-6.97 7.008v11.754h4.5v-5.28a2.258 2.258 0 012.25-2.262h1.5a2.258 2.258 0 012.25 2.262v5.28H16s1 0 1 .754S16 22 16 22h-1.751z" fill="#000"/><path fill-rule="evenodd" clip-rule="evenodd" d="M21.105 14.909l.864-6.09L17 17.908h2.854L18.989 24l4.97-9.091h-2.854z" fill="#000"/></svg>