<svg width="24" height="24" fill="none" xmlns="http://www.w3.org/2000/svg"><g clip-path="url(#clip0)"><path d="M8.31 11.204a.747.747 0 01-.53-.22l-.693-.69a5.226 5.226 0 01-1.787.313 5.28 5.28 0 01-1.761-.304A5.27 5.27 0 01.522 7.591a5.299 5.299 0 01-.007-4.573.751.751 0 01.676-.43c.2 0 .39.079.53.22l1.426 1.425c.15.155.338.236.545.238h.039c.232 0 .402-.119.504-.218a.763.763 0 00.23-.54.754.754 0 00-.215-.543L2.81 1.732a.754.754 0 01.206-1.21A5.239 5.239 0 017.06.304a5.263 5.263 0 013.013 2.714 5.326 5.326 0 01.213 4.066l.615.614c.293.293.293.77.003 1.064a.746.746 0 01-1.06.002l-.972-.97a.756.756 0 01-.148-.856 3.794 3.794 0 00-.004-3.272 3.77 3.77 0 00-2.158-1.945 3.783 3.783 0 00-1.816-.178l.574.574c.425.436.653 1.008.646 1.614a2.258 2.258 0 01-.682 1.597 2.251 2.251 0 01-1.583.647h-.025a2.256 2.256 0 01-1.594-.684L1.54 4.75c-.108.741.005 1.5.336 2.191a3.771 3.771 0 002.161 1.943 3.746 3.746 0 002.9-.157.743.743 0 01.853.145L8.839 9.92a.749.749 0 01.002 1.064.744.744 0 01-.531.221zM18.7 24a5.28 5.28 0 01-1.766-.305 5.263 5.263 0 01-3.013-2.715 5.321 5.321 0 01-.213-4.064L12.64 15.85a.755.755 0 01-.001-1.064.746.746 0 011.061-.001l1.423 1.421a.757.757 0 01.148.856 3.793 3.793 0 00.003 3.27 3.769 3.769 0 002.159 1.945 3.782 3.782 0 001.814.178l-.546-.545a2.291 2.291 0 01-.003-3.185 2.245 2.245 0 011.616-.679c.598 0 1.16.23 1.586.65l.551.55a3.792 3.792 0 00-.335-2.186 3.817 3.817 0 00-3.429-2.16c-.567 0-1.116.125-1.632.373a.75.75 0 01-.852-.145l-1.424-1.423a.754.754 0 01.53-1.284c.2 0 .389.078.53.22l1.067 1.066a5.226 5.226 0 011.78-.31 5.324 5.324 0 014.782 3.014 5.29 5.29 0 01.007 4.568.747.747 0 01-1.206.21l-1.425-1.423a.753.753 0 00-.531-.216.754.754 0 00-.546.23.77.77 0 00-.002 1.072l1.418 1.416a.755.755 0 01-.207 1.212 5.223 5.223 0 01-2.277.52z" fill="#29D305"/><path d="M3 24c-.8 0-1.554-.31-2.12-.872a2.982 2.982 0 01-.012-4.218l4.714-4.696c.284-.282.66-.437 1.061-.437.401 0 .778.155 1.061.437l.44.436 6.3-6.081-2.64-2.626a2.238 2.238 0 01-.007-3.165L13.925.661c.424-.423.99-.656 1.592-.656.602 0 1.167.232 1.59.654l6.233 6.198c.425.422.659.983.66 1.58a2.22 2.22 0 01-.653 1.585l-.031.03-2.097 2.09a2.24 2.24 0 01-1.592.656 2.24 2.24 0 01-1.59-.655l-2.528-2.514-6.302 6.081.62.616c.283.283.439.658.439 1.058a1.488 1.488 0 01-.473 1.09l-4.671 4.654A2.988 2.988 0 013 24zm-1.06-4.039A1.487 1.487 0 003 22.501c.402 0 .78-.156 1.062-.437l4.703-4.683L7.6 16.227l-.956-.95-4.702 4.684zM15.52 1.505c-.2 0-.39.078-.531.217l-2.121 2.11a.743.743 0 00-.001 1.05l6.232 6.198c.141.141.33.218.531.218s.39-.077.531-.218l2.12-2.112a.733.733 0 000-1.048L16.049 1.72a.748.748 0 00-.53-.216z" fill="#000"/></g><defs><clipPath id="clip0"><path d="M0 0h24v24H0V0z" fill="#fff"/></clipPath></defs></svg>