<svg width="24" height="24" viewBox="0 0 24 24" fill="none" xmlns="http://www.w3.org/2000/svg">
<path d="M15.1973 11.6604C15.8394 11.6604 16.3745 11.0943 16.3745 10.4151C16.3745 9.73584 15.8394 9.1698 15.1973 9.1698C14.5551 9.1698 14.02 9.73584 14.02 10.4151C14.02 11.0943 14.5551 11.6604 15.1973 11.6604Z" fill="#29D305"/>
<path d="M15.1973 20.0377C15.8394 20.0377 16.3745 19.4716 16.3745 18.7924C16.3745 18.1132 15.8394 17.5471 15.1973 17.5471C14.5551 17.5471 14.02 18.1132 14.02 18.7924C14.02 19.4716 14.5551 20.0377 15.1973 20.0377Z" fill="#29D305"/>
<path fill-rule="evenodd" clip-rule="evenodd" d="M13.699 0.792452L23.7592 11.4339C24.0803 11.7736 24.0803 12.3396 23.7592 12.6792C23.6522 12.7924 23.4381 12.9056 23.2241 12.9056C23.01 12.9056 22.796 12.7924 22.689 12.6792L12.5217 1.92453C12.3077 1.69811 12.0936 1.5849 11.9866 1.5849C11.7726 1.5849 11.5585 1.69811 11.4515 1.81132L4.70903 8.94338V21.283H6.72006C6.72006 21.283 7.65652 21.2443 7.65652 22.15C7.65652 23.0557 6.72006 22.9811 6.72006 22.9811H3.95987C3.53177 22.9811 3.10368 22.6415 3.10368 22.0754V10.6415L1.28428 12.566C1.17726 12.6792 0.963211 12.7924 0.749164 12.7924C0.535117 12.7924 0.32107 12.6792 0.214047 12.566C0.107023 12.4528 0 12.2264 0 12C0 11.7736 0.107023 11.5472 0.214047 11.4339L10.2742 0.792452C10.7023 0.339622 11.3445 0 11.9866 0C12.6288 0 13.2709 0.226415 13.699 0.792452ZM18.408 13.9246H19.9064C20.7626 13.9246 21.5117 14.717 21.5117 15.6227V22.3019C21.5117 23.2076 20.7626 24 19.9064 24H10.3813C9.5251 24 8.77594 23.2076 8.77594 22.3019V15.6227C8.77594 14.717 9.5251 13.9246 10.3813 13.9246H12.0937V15.5095H10.8094C10.4883 15.5095 10.2743 15.7359 10.2743 16.0755V21.9623C10.2743 22.3019 10.4883 22.5283 10.8094 22.5283H19.4783C19.7994 22.5283 20.0134 22.3019 20.0134 21.9623V16.0755C20.0134 15.7359 19.7994 15.5095 19.4783 15.5095H18.408V13.9246Z" fill="black"/>
<path d="M15.1973 15.8491C15.8394 15.8491 16.3745 15.283 16.3745 14.6038C16.3745 13.9246 15.8394 13.3585 15.1973 13.3585C14.5551 13.3585 14.02 13.9246 14.02 14.6038C14.02 15.283 14.5551 15.8491 15.1973 15.8491Z" fill="#29D305"/>
</svg>
