<svg width="24" height="24" fill="none" xmlns="http://www.w3.org/2000/svg"><path d="M23.76 11.434L13.698.792C13.271.226 12.629 0 11.987 0c-.643 0-1.285.34-1.713.792L.214 11.434A.892.892 0 000 12c0 .226.107.453.214.566a.795.795 0 00.535.226.795.795 0 00.535-.226l1.82-1.925v11.434c0 .567.428.906.856.906h2.76s.937.075.937-.831c0-.906-.937-.867-.937-.867H4.71V8.943l6.742-7.132a.795.795 0 01.536-.226c.107 0 .32.113.535.34l10.167 10.754a.795.795 0 00.535.227.795.795 0 00.535-.227.925.925 0 000-1.245z" fill="#000"/><path d="M15.197 11.66c.642 0 1.178-.566 1.178-1.245 0-.68-.536-1.245-1.178-1.245-.642 0-1.177.566-1.177 1.245 0 .68.535 1.245 1.177 1.245zM15.197 20.038c.642 0 1.178-.566 1.178-1.246 0-.679-.536-1.245-1.178-1.245-.642 0-1.177.566-1.177 1.245 0 .68.535 1.246 1.177 1.246z" fill="#29D305"/><path d="M19.906 13.925h-1.498v1.584h1.07c.321 0 .535.227.535.567v5.886c0 .34-.214.566-.535.566H10.81c-.32 0-.535-.226-.535-.566v-5.886c0-.34.214-.567.535-.567h1.285v-1.584H10.38c-.856 0-1.605.792-1.605 1.698v6.679c0 .906.75 1.698 1.605 1.698h9.525c.857 0 1.606-.792 1.606-1.698v-6.68c0-.905-.75-1.697-1.606-1.697z" fill="#000"/><path d="M15.197 15.85c.642 0 1.178-.567 1.178-1.246 0-.68-.536-1.245-1.178-1.245-.642 0-1.177.566-1.177 1.245 0 .679.535 1.245 1.177 1.245z" fill="#29D305"/></svg>