<svg width="24" height="24" viewBox="0 0 24 24" fill="none" xmlns="http://www.w3.org/2000/svg">
<path d="M10.6404 2.36337C10.6404 1.5072 9.89298 0.758057 9.03875 0.758057C8.18452 0.758057 7.43707 1.5072 7.43707 2.36337V14.3497L4.87438 12.3163C4.12693 11.7812 3.16592 11.8882 2.52525 12.5303L2.41847 12.6374C2.09814 13.1725 2.09814 13.9216 2.41847 14.4567L6.36928 20.3429C7.54385 22.1622 9.57264 23.2324 11.7082 23.2324H14.8048C16.2997 23.2324 17.6878 22.6973 18.6488 21.6271C19.7166 20.5569 20.2505 19.1656 20.2505 17.7744V10.3899C20.2505 9.53376 19.503 8.78462 18.6488 8.78462C17.7946 8.78462 17.0471 9.53376 17.0471 10.3899V9.64078C17.0471 8.78462 16.2997 8.03547 15.4455 8.03547C14.5912 8.03547 13.8438 8.78462 13.8438 9.64078C13.8438 8.78462 13.0963 8.03547 12.2421 8.03547C11.3879 8.03547 10.6404 8.78462 10.6404 9.64078V2.36337Z" fill="white" stroke="black" stroke-width="1.5" stroke-linecap="round" stroke-linejoin="round"/>
<path d="M10.6362 8.66162V11.1648" stroke="black" stroke-width="1.5" stroke-linecap="round" stroke-linejoin="round"/>
<path d="M13.8438 8.66162V11.1648" stroke="black" stroke-width="1.5" stroke-linecap="round" stroke-linejoin="round"/>
<path d="M17.0405 9.53271V11.1638" stroke="black" stroke-width="1.5" stroke-linecap="round" stroke-linejoin="round"/>
</svg>
