<svg width="24" height="24" viewBox="0 0 24 24" fill="none" xmlns="http://www.w3.org/2000/svg">
<path d="M5.8 21.8C4.8 21.8 3.8 21.4 3.2 20.8C2.8 20.4 2.5 19.8 2.5 19.2V18.3C2.5 17.7 2.7 17.2 3.2 16.7C3.8 16.1 4.7 15.7 5.7 15.7C6.8 15.7 7.7 16.4 7.7 17.4V20.1C7.7 20.5 7.5 20.9 7.2 21.2C6.9 21.5 6.4 21.8 5.8 21.8ZM5.8 17.3C5.2 17.3 4.6 17.5 4.3 17.8C4.1 17.9 4 18.1 4 18.3V19.2C4 19.4 4.1 19.6 4.2 19.7C4.5 20 5.1 20.2 5.7 20.2C6 20.2 6.1 20.1 6.2 20V17.3C6.2 17.4 6.1 17.3 5.8 17.3Z" fill="black"/>
<path d="M18.2002 21.8C17.6002 21.8 17.1002 21.6 16.7002 21.2C16.4002 20.9 16.2002 20.5 16.2002 20.1V17.4C16.2002 16.5 17.1002 15.7 18.2002 15.7C19.2002 15.7 20.1002 16 20.7002 16.7C21.1002 17.1 21.4002 17.7 21.4002 18.3V19.2C21.4002 19.8 21.2002 20.3 20.7002 20.8C20.2002 21.4 19.3002 21.8 18.2002 21.8ZM17.8002 20.1C17.8002 20.2 18.0002 20.3 18.3002 20.3C18.9002 20.3 19.5002 20.1 19.8002 19.8C19.9002 19.7 20.0002 19.5 20.0002 19.3V18.4C20.0002 18.2 19.9002 18.1 19.8002 17.9C19.5002 17.6 18.9002 17.4 18.3002 17.4C18.0002 17.4 17.8002 17.5 17.8002 17.6V20.1Z" fill="black"/>
<path d="M17.0002 24H7.0002C6.4002 24 5.8002 23.7999 5.4002 23.2999C5.0002 22.8999 4.7002 22.3 4.7002 21.7V21C4.7002 20.6 5.0002 20.2 5.5002 20.2C6.0002 20.2 6.3002 20.5 6.3002 21V21.7999C6.3002 21.9999 6.4002 22.1999 6.5002 22.2999C6.6002 22.3999 6.8002 22.5 7.0002 22.5H17.0002C17.2002 22.5 17.4002 22.3999 17.5002 22.2999C17.6002 22.1999 17.7002 21.9999 17.7002 21.7999V21C17.7002 20.6 18.0002 20.2 18.5002 20.2C19.0002 20.2 19.3002 20.5 19.3002 21V21.7999C19.3002 22.3999 19.1002 22.9999 18.6002 23.4C18.1002 23.8 17.6002 24 17.0002 24Z" fill="black"/>
<path d="M18.5001 17.3C18.1001 17.3 17.7001 17 17.7001 16.5V14.3C17.7001 14.1 17.6001 13.9 17.5001 13.8C17.4001 13.7 17.2001 13.6 17.0001 13.6H7.0001C6.9001 13.6 6.8001 13.6 6.7001 13.7C6.6001 13.7 6.5001 13.8 6.5001 13.9C6.4001 14 6.4001 14.1 6.3001 14.1C6.3001 14.2 6.2001 14.3 6.2001 14.4V16.6C6.2001 17 5.9001 17.4 5.4001 17.4C4.9001 17.4 4.6001 17.1 4.6001 16.6V14.4C4.6001 14.1 4.7001 13.8 4.8001 13.5C4.9001 13.2 5.1001 13 5.3001 12.8C5.5001 12.6 5.8001 12.4 6.0001 12.3C6.4001 12.1 6.7001 12 7.0001 12H17.0001C17.6001 12 18.2001 12.2 18.6001 12.7C19.0001 13.1 19.3001 13.7 19.3001 14.3V16.5C19.2001 16.9 18.9001 17.3 18.5001 17.3Z" fill="black"/>
<path d="M14.0002 17.9999H10.0002C9.6002 17.9999 9.2002 17.6999 9.2002 17.1999V12.6999C9.2002 12.2999 9.5002 11.8999 10.0002 11.8999H14.0002C14.4002 11.8999 14.8002 12.1999 14.8002 12.6999V17.1999C14.8002 17.6999 14.4002 17.9999 14.0002 17.9999ZM10.8002 16.4999H13.3002V13.4999H10.8002V16.4999Z" fill="black"/>
<path d="M17.2 7.50005C16.8 7.50005 16.4 7.20005 16.4 6.70005V3.90005C16.4 3.70005 16.4 3.60005 16.3 3.50005C16.2 3.40005 16.1 3.30005 16 3.20005L12.2 1.60005C12 1.50005 11.8 1.50005 11.6 1.60005L8 3.20005C7.8 3.20005 7.7 3.30005 7.6 3.50005C7.5 3.70005 7.5 3.70005 7.5 3.90005V6.80005C7.5 7.20005 7.2 7.60005 6.7 7.60005C6.2 7.60005 6 7.20005 6 6.80005V3.90005C6 3.50005 6.1 3.00005 6.4 2.70005C6.6 2.30005 7 2.00005 7.4 1.80005L11.2 0.200049C11.8 4.88311e-05 12.4 4.88311e-05 13 0.200049L16.8 1.80005C17.2 2.00005 17.6 2.30005 17.8 2.60005C17.9 3.00005 18 3.50005 18 3.90005V6.70005C18 7.20005 17.7 7.50005 17.2 7.50005Z" fill="black"/>
<path d="M12 4.9001V2.6001C12.6 2.6001 13.1 3.1001 13.1 3.7001C13.1 4.3001 12.6 4.9001 12 4.9001Z" fill="black"/>
<path d="M11.9999 4.89995C11.3999 4.89995 10.8999 4.39995 10.8999 3.79995C10.8999 3.19995 11.3999 2.69995 11.9999 2.69995V4.89995Z" fill="black"/>
<path d="M18.7999 7.5H5.1999C4.7999 7.5 4.3999 7.2 4.3999 6.7C4.3999 6.2 4.7999 6 5.1999 6H18.6999C19.0999 6 19.4999 6.3 19.4999 6.8C19.4999 7.3 19.1999 7.5 18.7999 7.5Z" fill="black"/>
<path d="M9.10021 10.9C8.90021 10.9 8.80021 10.8 8.60021 10.7C8.00021 10.3 7.60021 9.6 7.20021 9C6.90021 8.3 6.80021 7.5 6.80021 6.8C6.70021 6.3 7.10021 6 7.50021 6C7.90021 6 8.20021 6.3 8.30021 6.7C8.30021 7.2 8.40021 7.8 8.60021 8.3C8.80021 8.8 9.20021 9.2 9.60021 9.6C9.90021 9.9 10.0002 10.3 9.70021 10.7C9.50021 10.9 9.30021 10.9 9.10021 10.9Z" fill="black"/>
<path d="M14.8998 10.9C14.6998 10.9 14.4998 10.8 14.2998 10.6C13.9998 10.3 14.0998 9.80005 14.3998 9.50005C14.7998 9.20005 15.1998 8.70005 15.3998 8.20005C15.5998 7.70005 15.6998 7.20005 15.6998 6.60005C15.6998 6.20005 15.9998 5.80005 16.4998 5.80005C16.9998 5.80005 17.2998 6.10005 17.2998 6.60005C17.2998 7.40005 17.0998 8.10005 16.7998 8.80005C16.4998 9.50005 15.9998 10.1 15.3998 10.6C15.1998 10.9 15.0998 10.9 14.8998 10.9Z" fill="black"/>
</svg>
