<svg width="24" height="24" viewBox="0 0 24 24" fill="none" xmlns="http://www.w3.org/2000/svg">
<g clip-path="url(#clip0)">
<path fill-rule="evenodd" clip-rule="evenodd" d="M10.41 0.21934C10.7031 0.512051 10.7034 0.986925 10.4107 1.28C9.9893 1.70189 9.75262 2.27376 9.75262 2.87C9.75262 3.46623 9.9893 4.0381 10.4107 4.45999L9.87999 4.99001L10.4094 4.45874C10.759 4.80715 11.0364 5.22113 11.2256 5.67692C11.4149 6.13273 11.5124 6.62142 11.5124 7.11499C11.5124 7.60856 11.4149 8.09725 11.2256 8.55306C11.0364 9.00885 10.759 9.42283 10.4094 9.77124C10.116 10.0636 9.64114 10.0628 9.34875 9.7694C9.05637 9.476 9.0572 9.00112 9.3506 8.70874C9.56034 8.49973 9.72676 8.25134 9.84033 7.97783C9.9539 7.70432 10.0124 7.41111 10.0124 7.11499C10.0124 6.81887 9.9539 6.52566 9.84033 6.25215C9.72676 5.97864 9.56034 5.73025 9.3506 5.52124L9.87999 4.99001L9.34934 5.51999C8.6471 4.81687 8.25262 3.86376 8.25262 2.87C8.25262 1.87623 8.6471 0.923117 9.34934 0.22C9.64206 -0.0730754 10.1169 -0.0733709 10.41 0.21934Z" fill="black"/>
<path fill-rule="evenodd" clip-rule="evenodd" d="M14.42 0.21934C14.7131 0.512051 14.7134 0.986925 14.4206 1.28C13.9993 1.70187 13.7626 2.27374 13.7626 2.87C13.7626 3.46625 13.9993 4.03812 14.4206 4.45999L13.89 4.98999L14.4194 4.45874C14.769 4.80712 15.0464 5.2211 15.2357 5.67692C15.4249 6.13273 15.5224 6.62142 15.5224 7.11499C15.5224 7.60856 15.4249 8.09725 15.2357 8.55306C15.0464 9.00888 14.769 9.42286 14.4194 9.77124C14.126 10.0636 13.6511 10.0628 13.3587 9.7694C13.0663 9.476 13.0672 9.00112 13.3606 8.70874C13.5703 8.4997 13.7368 8.25131 13.8503 7.97783C13.9639 7.70432 14.0224 7.41111 14.0224 7.11499C14.0224 6.81887 13.9639 6.52566 13.8503 6.25215C13.7368 5.97867 13.5703 5.73028 13.3606 5.52124L13.3593 5.51999C12.6571 4.81686 12.2626 3.86374 12.2626 2.87C12.2626 1.87625 12.6571 0.923131 13.3593 0.22C13.652 -0.0730754 14.1269 -0.0733709 14.42 0.21934Z" fill="black"/>
<path fill-rule="evenodd" clip-rule="evenodd" d="M18.42 0.21934C18.7131 0.512051 18.7134 0.986925 18.4206 1.28C17.9993 1.70187 17.7626 2.27374 17.7626 2.87C17.7626 3.46625 17.9993 4.03812 18.4206 4.45999L17.89 4.99001L18.4194 4.45874C18.769 4.80712 19.0464 5.2211 19.2357 5.67692C19.4249 6.13273 19.5224 6.62142 19.5224 7.11499C19.5224 7.60856 19.4249 8.09725 19.2357 8.55306C19.0464 9.00888 18.769 9.42286 18.4194 9.77124C18.126 10.0636 17.6511 10.0628 17.3587 9.7694C17.0663 9.476 17.0672 9.00112 17.3606 8.70874C17.5703 8.4997 17.7368 8.25131 17.8503 7.97783C17.9639 7.70432 18.0224 7.41111 18.0224 7.11499C18.0224 6.81887 17.9639 6.52566 17.8503 6.25215C17.7368 5.97867 17.5703 5.73028 17.3606 5.52124L17.89 4.99001L17.3593 5.51999C16.6571 4.81686 16.2626 3.86374 16.2626 2.87C16.2626 1.87625 16.6571 0.923131 17.3593 0.22C17.652 -0.0730754 18.1269 -0.0733709 18.42 0.21934Z" fill="black"/>
<path fill-rule="evenodd" clip-rule="evenodd" d="M18.75 12C19.1642 12 19.5 12.3358 19.5 12.75V18.75C19.5 19.1642 19.1642 19.5 18.75 19.5C18.3358 19.5 18 19.1642 18 18.75V12.75C18 12.3358 18.3358 12 18.75 12Z" fill="black"/>
<path fill-rule="evenodd" clip-rule="evenodd" d="M12.75 12C13.1642 12 13.5 12.3358 13.5 12.75V18.75C13.5 19.1642 13.1642 19.5 12.75 19.5C12.3358 19.5 12 19.1642 12 18.75V12.75C12 12.3358 12.3358 12 12.75 12Z" fill="black"/>
<path fill-rule="evenodd" clip-rule="evenodd" d="M15.75 12C16.1642 12 16.5 12.3358 16.5 12.75V18.75C16.5 19.1642 16.1642 19.5 15.75 19.5C15.3358 19.5 15 19.1642 15 18.75V12.75C15 12.3358 15.3358 12 15.75 12Z" fill="black"/>
<path fill-rule="evenodd" clip-rule="evenodd" d="M9.75 12C10.1642 12 10.5 12.3358 10.5 12.75V18.75C10.5 19.1642 10.1642 19.5 9.75 19.5C9.33579 19.5 9 19.1642 9 18.75V12.75C9 12.3358 9.33579 12 9.75 12Z" fill="black"/>
<path fill-rule="evenodd" clip-rule="evenodd" d="M4.50002 10.13C4.35023 10.13 4.20218 10.1 4.06457 10.0419C3.9266 9.98375 3.80179 9.8985 3.69744 9.79133C3.59307 9.68414 3.51119 9.55709 3.4567 9.41765C3.40473 9.28464 3.3787 9.143 3.37993 9.00035C3.37857 8.85634 3.40526 8.71342 3.4585 8.57958C3.51426 8.4394 3.59806 8.3119 3.70498 8.20498C3.81171 8.09825 3.93915 8.01433 4.07958 7.95847C4.21369 7.90512 4.35663 7.87857 4.50036 7.87993C4.643 7.8787 4.78464 7.90473 4.91765 7.9567C5.05693 8.01113 5.18404 8.09295 5.29136 8.19744C5.39853 8.30179 5.48378 8.4266 5.54198 8.56457C5.60014 8.70246 5.63004 8.85054 5.63003 9.00002M4.50029 10.13C4.79987 10.13 5.08719 10.0109 5.29906 9.79906C5.51093 9.58719 5.62995 9.29987 5.63003 9.0003M4.13003 9.00002C4.13003 8.99993 4.13003 8.99984 4.13003 8.99975L4.13003 9.00002Z" fill="black"/>
<path fill-rule="evenodd" clip-rule="evenodd" d="M4.50002 14.5001C4.35023 14.5002 4.20218 14.4701 4.06457 14.4121C3.9266 14.3539 3.80179 14.2686 3.69744 14.1614C3.59307 14.0543 3.51119 13.9272 3.4567 13.7878C3.40473 13.6548 3.3787 13.5131 3.37993 13.3705C3.37857 13.2265 3.40526 13.0835 3.4585 12.9497C3.51426 12.8095 3.59806 12.682 3.70498 12.5751C3.81171 12.4684 3.93915 12.3844 4.07958 12.3286C4.21369 12.2752 4.35663 12.2487 4.50036 12.25C4.643 12.2488 4.78464 12.2748 4.91765 12.3268C5.05693 12.3812 5.18404 12.4631 5.29136 12.5676C5.39853 12.6719 5.48378 12.7967 5.54198 12.9347C5.60014 13.0726 5.63004 13.2207 5.63003 13.3701M4.50029 14.5001C4.79987 14.5001 5.08719 14.381 5.29906 14.1692C5.51093 13.9573 5.62995 13.67 5.63003 13.3704M4.13003 13.3701C4.13003 13.37 4.13003 13.37 4.13003 13.3699L4.13003 13.3701Z" fill="black"/>
<path fill-rule="evenodd" clip-rule="evenodd" d="M3.75 21C4.16421 21 4.5 21.3358 4.5 21.75V23.25C4.5 23.6642 4.16421 24 3.75 24C3.33579 24 3 23.6642 3 23.25V21.75C3 21.3358 3.33579 21 3.75 21Z" fill="black"/>
<path fill-rule="evenodd" clip-rule="evenodd" d="M20.25 21C20.6642 21 21 21.3358 21 21.75V23.25C21 23.6642 20.6642 24 20.25 24C19.8358 24 19.5 23.6642 19.5 23.25V21.75C19.5 21.3358 19.8358 21 20.25 21Z" fill="black"/>
<path fill-rule="evenodd" clip-rule="evenodd" d="M0.659001 5.159C1.08097 4.73703 1.65328 4.5 2.25 4.5H5.25C5.66421 4.5 6 4.83579 6 5.25C6 5.66421 5.66421 6 5.25 6H2.25C2.05107 6 1.8603 6.07902 1.71966 6.21966C1.57902 6.3603 1.5 6.55107 1.5 6.75V20.25C1.5 20.4489 1.57902 20.6397 1.71966 20.7803C1.8603 20.921 2.05107 21 2.25 21H21.75C21.9489 21 22.1397 20.921 22.2803 20.7803C22.421 20.6397 22.5 20.4489 22.5 20.25V6.75C22.5 6.55107 22.421 6.3603 22.2803 6.21966C22.1397 6.07902 21.9489 6 21.75 6C21.3358 6 21 5.66421 21 5.25C21 4.83579 21.3358 4.5 21.75 4.5C22.3467 4.5 22.919 4.73703 23.341 5.159C23.763 5.58097 24 6.15328 24 6.75V20.25C24 20.8467 23.763 21.419 23.341 21.841C22.919 22.263 22.3467 22.5 21.75 22.5H2.25C1.65328 22.5 1.08097 22.263 0.659001 21.841C0.237033 21.419 0 20.8467 0 20.25V6.75C0 6.15328 0.237033 5.58097 0.659001 5.159Z" fill="black"/>
</g>
<defs>
<clipPath id="clip0">
<rect width="24" height="24" fill="white"/>
</clipPath>
</defs>
</svg>
