<svg width="24" height="24" viewBox="0 0 24 24" fill="none" xmlns="http://www.w3.org/2000/svg">
<path fill-rule="evenodd" clip-rule="evenodd" d="M7.75 4.49805C8.16421 4.49805 8.5 4.83383 8.5 5.24805V6.74805C8.5 6.94696 8.57902 7.13772 8.71967 7.27838C8.86032 7.41903 9.05109 7.49805 9.25 7.49805H14.75C15.3467 7.49805 15.919 7.7351 16.341 8.15706C16.7629 8.57901 17 9.15131 17 9.74805V11.248C17 11.6623 16.6642 11.998 16.25 11.998C15.8358 11.998 15.5 11.6623 15.5 11.248V9.74805C15.5 9.54913 15.421 9.35837 15.2803 9.21772C15.1397 9.07706 14.9489 8.99805 14.75 8.99805H9.25C8.65326 8.99805 8.08097 8.76099 7.65901 8.33904C7.23705 7.91708 7 7.34478 7 6.74805V5.24805C7 4.83383 7.33579 4.49805 7.75 4.49805Z" fill="black"/>
<path fill-rule="evenodd" clip-rule="evenodd" d="M16.25 14.998C16.6642 14.998 17 15.3338 17 15.748V18.748C17 19.1623 16.6642 19.498 16.25 19.498C15.8358 19.498 15.5 19.1623 15.5 18.748V15.748C15.5 15.3338 15.8358 14.998 16.25 14.998Z" fill="black"/>
<path fill-rule="evenodd" clip-rule="evenodd" d="M10.4584 12.0015C10.4584 12.0014 10.4587 12.0013 10.4594 12.0012L10.4584 12.0015ZM10.5 12.0148V14.9954C10.502 14.9958 10.504 14.9962 10.5061 14.9965C10.5105 14.9973 10.5142 14.9977 10.5168 14.998H22.4974C22.4978 14.9961 22.4981 14.994 22.4985 14.9919C22.4992 14.9875 22.4997 14.9839 22.5 14.9813V12.0007C22.498 12.0003 22.496 11.9999 22.4939 11.9996C22.4895 11.9988 22.4858 11.9983 22.4832 11.998H10.5026C10.5022 12 10.5019 12.0021 10.5015 12.0042C10.5008 12.0086 10.5003 12.0122 10.5 12.0148ZM22.5 11.248C22.5 10.498 22.5004 10.498 22.5007 10.498L22.5031 10.4981L22.5065 10.4981L22.5142 10.4982L22.5334 10.4986C22.5477 10.4991 22.5653 10.5 22.5857 10.5014C22.6261 10.5043 22.679 10.5097 22.7405 10.52C22.8599 10.5399 23.0306 10.5811 23.2104 10.671C23.3931 10.7623 23.5987 10.9112 23.7569 11.1484C23.9182 11.3904 24 11.6793 24 11.998V14.998H23.25C24 14.998 24 14.9977 24 14.998L24 15.0011L24 15.0045L23.9999 15.0123L23.9994 15.0315C23.9989 15.0458 23.9981 15.0634 23.9966 15.0837C23.9937 15.1242 23.9883 15.177 23.9781 15.2385C23.9582 15.358 23.917 15.5287 23.8271 15.7085C23.7357 15.8912 23.5869 16.0967 23.3496 16.2549C23.1077 16.4162 22.8187 16.498 22.5 16.498H10.5V15.748C10.5 16.498 10.5004 16.498 10.5 16.498L10.4985 16.498L10.4969 16.498L10.4935 16.498L10.4858 16.4979L10.4666 16.4974C10.4523 16.497 10.4347 16.4961 10.4143 16.4947C10.3739 16.4918 10.321 16.4864 10.2595 16.4761C10.1401 16.4562 9.96938 16.415 9.78959 16.3251C9.60687 16.2338 9.40133 16.0849 9.24315 15.8477C9.08184 15.6057 9 15.3168 9 14.998V11.998H9.75C9 11.998 9 11.9984 9 11.998L9 11.9965L9.00001 11.995L9.00003 11.9916L9.00012 11.9838L9.0006 11.9646C9.00108 11.9503 9.00192 11.9327 9.00337 11.9124C9.00626 11.8719 9.01167 11.8191 9.02192 11.7576C9.04183 11.6381 9.08304 11.4674 9.17293 11.2876C9.26429 11.1049 9.41311 10.8994 9.65038 10.7412C9.89235 10.5799 10.1813 10.498 10.5 10.498L22.5007 10.498L22.5 11.248ZM10.5034 15.0397C10.5034 15.0397 10.5033 15.0393 10.5031 15.0386L10.5034 15.0397ZM22.5416 14.9946C22.5416 14.9946 22.5413 14.9948 22.5406 14.9949L22.5416 14.9946Z" fill="black"/>
<path fill-rule="evenodd" clip-rule="evenodd" d="M1.45838 1.50146C1.45837 1.50145 1.4587 1.50134 1.45942 1.50117L1.45838 1.50146ZM1.5 1.51481V4.49543C1.50199 4.49582 1.50403 4.49619 1.50611 4.49653C1.51052 4.49727 1.51416 4.49775 1.51676 4.49805H13.4974C13.4978 4.49606 13.4981 4.49402 13.4985 4.49194C13.4992 4.48752 13.4997 4.48389 13.5 4.48129V1.50066C13.498 1.50028 13.496 1.49991 13.4939 1.49956C13.4895 1.49883 13.4858 1.49835 13.4832 1.49805H1.50261C1.50223 1.50004 1.50186 1.50208 1.50151 1.50416C1.50078 1.50857 1.5003 1.5122 1.5 1.51481ZM13.5 0.748047C13.5 -0.00195312 13.5004 -0.00195301 13.5007 -0.00195277L13.5031 -0.00194693L13.5065 -0.00192666L13.5142 -0.00183272L13.5334 -0.00135368C13.5477 -0.000875771 13.5653 -3.59416e-05 13.5857 0.0014177C13.6261 0.00430673 13.679 0.00972134 13.7405 0.0199702C13.8599 0.0398754 14.0306 0.0810835 14.2104 0.170976C14.3931 0.262338 14.5987 0.411158 14.7569 0.648428C14.9182 0.890393 15 1.17931 15 1.49805V4.49805H14.25C15 4.49805 15 4.49767 15 4.49805L15 4.50114L15 4.50454L14.9999 4.51229L14.9994 4.53146C14.9989 4.54579 14.9981 4.56336 14.9966 4.58371C14.9937 4.62416 14.9883 4.67704 14.9781 4.73853C14.9582 4.85797 14.917 5.02867 14.8271 5.20846C14.7357 5.39118 14.5869 5.59672 14.3496 5.7549C14.1077 5.91621 13.8187 5.99805 13.5 5.99805H1.5V5.24805C1.5 5.99805 1.50037 5.99805 1.5 5.99805L1.4985 5.99805L1.49691 5.99804L1.4935 5.99802L1.48575 5.99793L1.46659 5.99745C1.45225 5.99697 1.43469 5.99613 1.41434 5.99468C1.37389 5.99179 1.32101 5.98637 1.25951 5.97612C1.14008 5.95622 0.969376 5.91501 0.78959 5.82512C0.606867 5.73376 0.40133 5.58494 0.24315 5.34767C0.0818397 5.1057 2.68396e-10 4.81679 2.68396e-10 4.49805V1.49805H0.75C0 1.49805 -2.3815e-07 1.49842 2.68396e-10 1.49805L1.49038e-06 1.49654L6.19915e-06 1.49496L2.64647e-05 1.49155L0.000120402 1.4838L0.000599444 1.46464C0.00107735 1.4503 0.00191718 1.43274 0.00337082 1.41238C0.00625986 1.37194 0.0116745 1.31905 0.0219233 1.25756C0.0418286 1.13813 0.0830366 0.967423 0.17293 0.787637C0.264291 0.604914 0.413111 0.399377 0.650381 0.241197C0.892346 0.0798866 1.18126 -0.00195312 1.5 -0.00195312L13.5007 -0.00195277L13.5 0.748047ZM1.50341 4.53967C1.5034 4.53968 1.50329 4.53934 1.50312 4.53862L1.50341 4.53967ZM13.5416 4.49464C13.5416 4.49465 13.5413 4.49475 13.5406 4.49492L13.5416 4.49464Z" fill="black"/>
<path fill-rule="evenodd" clip-rule="evenodd" d="M10.4584 19.5015C10.4584 19.5014 10.4587 19.5013 10.4594 19.5012L10.4584 19.5015ZM10.5 19.5148V22.4954C10.502 22.4958 10.504 22.4962 10.5061 22.4965C10.5105 22.4973 10.5142 22.4977 10.5168 22.498H22.4974C22.4978 22.4961 22.4981 22.494 22.4985 22.4919C22.4992 22.4875 22.4997 22.4839 22.5 22.4813V19.5007C22.498 19.5003 22.496 19.4999 22.4939 19.4996C22.4895 19.4988 22.4858 19.4983 22.4832 19.498H10.5026C10.5022 19.5 10.5019 19.5021 10.5015 19.5042C10.5008 19.5086 10.5003 19.5122 10.5 19.5148ZM22.5 18.748C22.5 17.998 22.5004 17.998 22.5007 17.998L22.5031 17.9981L22.5065 17.9981L22.5142 17.9982L22.5334 17.9986C22.5477 17.9991 22.5653 18 22.5857 18.0014C22.6261 18.0043 22.679 18.0097 22.7405 18.02C22.8599 18.0399 23.0306 18.0811 23.2104 18.171C23.3931 18.2623 23.5987 18.4112 23.7569 18.6484C23.9182 18.8904 24 19.1793 24 19.498V22.498H23.25C24 22.498 24 22.4977 24 22.498L24 22.5011L24 22.5045L23.9999 22.5123L23.9994 22.5315C23.9989 22.5458 23.9981 22.5634 23.9966 22.5837C23.9937 22.6242 23.9883 22.677 23.9781 22.7385C23.9582 22.858 23.917 23.0287 23.8271 23.2085C23.7357 23.3912 23.5869 23.5967 23.3496 23.7549C23.1077 23.9162 22.8187 23.998 22.5 23.998H10.5V23.248C10.5 23.998 10.5004 23.998 10.5 23.998L10.4985 23.998L10.4969 23.998L10.4935 23.998L10.4858 23.9979L10.4666 23.9974C10.4523 23.997 10.4347 23.9961 10.4143 23.9947C10.3739 23.9918 10.321 23.9864 10.2595 23.9761C10.1401 23.9562 9.96938 23.915 9.78959 23.8251C9.60687 23.7338 9.40133 23.5849 9.24315 23.3477C9.08184 23.1057 9 22.8168 9 22.498V19.498H9.75C9 19.498 9 19.4984 9 19.498L9 19.4965L9.00001 19.495L9.00003 19.4916L9.00012 19.4838L9.0006 19.4646C9.00108 19.4503 9.00192 19.4327 9.00337 19.4124C9.00626 19.3719 9.01167 19.3191 9.02192 19.2576C9.04183 19.1381 9.08304 18.9674 9.17293 18.7876C9.26429 18.6049 9.41311 18.3994 9.65038 18.2412C9.89235 18.0799 10.1813 17.998 10.5 17.998L22.5007 17.998L22.5 18.748ZM10.5034 22.5397C10.5034 22.5397 10.5033 22.5393 10.5031 22.5386L10.5034 22.5397ZM22.5416 22.4946C22.5416 22.4946 22.5413 22.4948 22.5406 22.4949L22.5416 22.4946Z" fill="black"/>
</svg>
