<svg width="24" height="24" viewBox="0 0 24 24" fill="none" xmlns="http://www.w3.org/2000/svg">
<path d="M1 12.7389C1 11.246 1.30134 9.85271 1.90402 8.4594C2.00447 8.26035 2.14417 8.14138 2.30581 8.06131C2.5067 7.96179 2.70759 7.96179 2.90848 8.06131C3.20982 8.16083 3.41072 8.4594 3.41072 8.75797C3.41072 8.85749 3.38028 8.89005 3.31027 9.05653C2.80804 10.2508 2.60714 11.4451 2.60714 12.7389C2.60714 15.2269 3.51116 17.5159 5.3192 19.3073C7.12723 21.0987 9.53795 22.1935 12.0491 22.293C14.6607 22.3925 17.0714 21.3973 18.9799 19.6059C20.8884 17.8145 21.9933 15.3264 21.9933 12.7389C21.9933 10.2508 21.0893 7.96178 19.2813 6.17038C17.5737 4.4785 15.2634 3.38376 12.9531 3.18472C10.8438 3.08519 8.73438 3.5828 6.92634 4.77707L9.83929 4.77707C10.2411 4.77707 10.6429 5.17516 10.6429 5.57325C10.6429 5.97134 10.2411 6.36943 9.83929 6.36943L5.01786 6.36943C4.61607 6.36943 4.21429 5.97134 4.21429 5.57325L4.21429 5.37421C4.21429 5.37421 4.21429 5.37421 4.21429 5.27468L4.21429 0.796179C4.21429 0.398089 4.51563 -1.3027e-07 5.01786 -1.36259e-07C5.52009 -1.42248e-07 5.82143 0.398089 5.82143 0.796179L5.82143 3.5828C7.72991 2.28901 10.1406 1.49284 12.4509 1.59236C12.6518 1.59236 12.9531 1.59236 13.2545 1.69188L13.3549 1.69188C13.4554 1.69188 13.4554 1.69188 13.5558 1.69188C16.2679 1.99045 18.5781 3.18471 20.3862 5.07564C22.3951 7.16561 23.5 9.95223 23.5 12.8384C23.5 14.3312 23.1987 15.7245 22.596 17.1178C22.596 17.2174 22.4955 17.3169 22.3951 17.4164C21.7924 18.7102 20.9888 19.9045 19.8839 20.8997C15.3638 25.1791 8.23215 24.9801 3.91295 20.6011C2.10491 18.4116 1 15.625 1 12.7389Z" fill="black"/>
<path d="M16.7984 17.8005C16.5851 17.8005 16.3835 17.7173 16.2331 17.5658L11.2336 12.5653C11.1589 12.4906 11.1003 12.4032 11.0597 12.304C11.0565 12.2954 11.0533 12.2858 11.0501 12.2773C11.016 12.1856 11 12.0938 11 12V7.99995C11 7.55835 11.3584 7.19995 11.8 7.19995C12.2416 7.19995 12.6 7.55835 12.6 7.99995V11.6682L17.3648 16.4341C17.5163 16.5856 17.5995 16.7861 17.5995 16.9994C17.5995 17.2128 17.5163 17.4144 17.3648 17.5648C17.2133 17.7152 17.0117 17.8005 16.7984 17.8005Z" fill="black"/>
</svg>
