<svg width="24" height="24" viewBox="0 0 24 24" fill="none" xmlns="http://www.w3.org/2000/svg">
<path fill-rule="evenodd" clip-rule="evenodd" d="M11.469 2.72959L4.499 9.73777V21.4916H8.999V16.2124C8.999 14.9644 10.008 13.9498 11.249 13.9498H12.749C13.99 13.9498 14.999 14.9644 14.999 16.2124V21.4916H19.499V9.73608L12.53 2.72959C12.389 2.58781 12.201 2.50937 12 2.50937C11.799 2.50937 11.611 2.58781 11.469 2.72959ZM20.999 11.2441V22.2458C20.999 22.6621 20.663 23 20.249 23H14.249C13.835 23 13.499 22.6621 13.499 22.2458V16.2124C13.499 15.7961 13.163 15.4582 12.749 15.4582H11.249C10.835 15.4582 10.499 15.7961 10.499 16.2124V22.2458C10.499 22.6621 10.163 23 9.749 23H3.749C3.335 23 2.999 22.6621 2.999 22.2458V11.246L1.279 12.9754C1.138 13.1172 0.949 13.1956 0.749 13.1956C0.549 13.1956 0.36 13.1172 0.219 12.9744C-0.073 12.6808 -0.073 12.2021 0.219 11.9075L10.409 1.66167C10.833 1.2353 11.398 1 12 1C12.601 1 13.166 1.2353 13.591 1.66167L15.797 3.87997L20.999 9.11098L23.779 11.9065C24.071 12.2001 24.071 12.6788 23.779 12.9734C23.637 13.1162 23.449 13.1946 23.249 13.1946C23.049 13.1946 22.86 13.1162 22.719 12.9734L20.999 11.2441ZM12 12.5C12.8284 12.5 13.5 11.8284 13.5 11C13.5 10.1716 12.8284 9.5 12 9.5C11.1716 9.5 10.5 10.1716 10.5 11C10.5 11.8284 11.1716 12.5 12 12.5Z" fill="black"/>
</svg>
