<svg width="24" height="24" fill="none" xmlns="http://www.w3.org/2000/svg"><path d="M14.249 23a.752.752 0 01-.75-.754v-6.034a.752.752 0 00-.75-.754h-1.5a.752.752 0 00-.75.754v6.034a.752.752 0 01-.75.754h-6a.752.752 0 01-.75-.754V9.5c0-.416.336-.754.75-.754s.75.338.75.754V21.492h4.5v-5.28a2.258 2.258 0 012.25-2.262h1.5a2.258 2.258 0 012.25 2.262v5.28h4.5V9.5c0-.416.336-.754.75-.754s.75.838.75 1.254v12.246a.752.752 0 01-.75.754h-6z" fill="#000"/><path d="M2.999 11.246V9.5c0-.416.336-.754.75-.754s.75.338.75.754v.238l6.97-7.008a.746.746 0 011.061 0l6.969 7.006V9.5c0-.416.336-.754.75-.754s.75.838.75 1.254v1.244l1.72 1.73a.742.742 0 001.06 0 .76.76 0 000-1.068l-2.78-2.795-5.202-5.231-2.206-2.218A2.232 2.232 0 0012 1c-.602 0-1.167.235-1.591.662L.219 11.908a.76.76 0 000 1.066.744.744 0 001.06.001l1.72-1.729z" fill="#000"/><path d="M13.5 11a1.5 1.5 0 11-3 0 1.5 1.5 0 013 0z" fill="#29D305"/></svg>