<svg width="24" height="24" viewBox="0 0 24 24" fill="none" xmlns="http://www.w3.org/2000/svg">
<path fill-rule="evenodd" clip-rule="evenodd" d="M3.5 1.5C3.08579 1.5 2.75 1.83579 2.75 2.25V8.25C2.75 8.66421 3.08579 9 3.5 9H12.5C12.9142 9 13.25 8.66421 13.25 8.25V2.25C13.25 1.83579 12.9142 1.5 12.5 1.5H3.5ZM1.25 2.25C1.25 1.00736 2.25736 0 3.5 0H12.5C13.7426 0 14.75 1.00736 14.75 2.25V8.25C14.75 9.49264 13.7426 10.5 12.5 10.5H3.5C2.25736 10.5 1.25 9.49264 1.25 8.25V2.25Z" fill="black"/>
<path fill-rule="evenodd" clip-rule="evenodd" d="M1.91621 13.4953C1.92986 13.5217 1.94194 13.5489 1.95237 13.5767L2.6739 15.5008C2.67446 15.5008 2.67504 15.5009 2.67561 15.5008C2.68711 15.5003 2.69862 15.5 2.71012 15.5H21.3209L21.9148 13.6147C21.9272 13.5752 21.9429 13.5369 21.9616 13.5H2.00012C1.97207 13.5 1.94406 13.4985 1.91621 13.4953ZM2.05519 12C1.77769 11.9654 1.49544 12.0111 1.24233 12.1325C0.965844 12.2653 0.738182 12.4817 0.591628 12.751C0.470318 12.9731 0.406738 13.222 0.406738 13.475C0.406738 13.7077 0.460485 13.9369 0.563432 14.1449L1.29788 16.1034C1.30829 16.1312 1.32035 16.1583 1.33398 16.1846C1.46663 16.4411 1.67002 16.6541 1.92004 16.7985C2.16422 16.9395 2.44289 17.0092 2.72444 17H21.3301L21.3347 17C21.6097 16.9984 21.8791 16.9216 22.1137 16.778C22.3483 16.6345 22.5392 16.4296 22.6659 16.1854C22.6858 16.1469 22.7024 16.1068 22.7155 16.0654L23.3271 14.1236C23.4233 13.9213 23.4735 13.6998 23.4735 13.475C23.4735 13.2216 23.4097 12.9722 23.288 12.7498L23.288 12.7498L23.2827 12.7404C23.1533 12.5119 22.9647 12.3226 22.7367 12.1923C22.5109 12.0633 22.2548 11.9969 21.9948 12H2.05519Z" fill="black"/>
<path fill-rule="evenodd" clip-rule="evenodd" d="M5.47971 15.5359C5.87405 15.6627 6.09098 16.0851 5.96422 16.4795L3.71422 23.4795C3.58747 23.8738 3.16504 24.0907 2.7707 23.964C2.37635 23.8372 2.15943 23.4148 2.28618 23.0205L4.53618 16.0205C4.66293 15.6261 5.08537 15.4092 5.47971 15.5359Z" fill="black"/>
<path fill-rule="evenodd" clip-rule="evenodd" d="M18.5207 15.5359C18.915 15.4092 19.3375 15.6261 19.4642 16.0205L21.7142 23.0205C21.841 23.4148 21.6241 23.8372 21.2297 23.964C20.8354 24.0907 20.4129 23.8738 20.2862 23.4795L18.0362 16.4795C17.9094 16.0851 18.1264 15.6627 18.5207 15.5359Z" fill="black"/>
<path fill-rule="evenodd" clip-rule="evenodd" d="M6.68208 9.02233C7.08393 9.12279 7.32825 9.52999 7.22778 9.93183L6.47778 12.9318C6.37732 13.3337 5.97012 13.578 5.56828 13.4775C5.16643 13.3771 4.92211 12.9699 5.02257 12.568L5.77257 9.56803C5.87303 9.16619 6.28023 8.92186 6.68208 9.02233Z" fill="black"/>
<path fill-rule="evenodd" clip-rule="evenodd" d="M9.31828 9.02233C9.72012 8.92186 10.1273 9.16619 10.2278 9.56803L10.9778 12.568C11.0782 12.9699 10.8339 13.3771 10.4321 13.4775C10.0302 13.578 9.62303 13.3337 9.52257 12.9318L8.77257 9.93183C8.67211 9.52999 8.91643 9.12279 9.31828 9.02233Z" fill="black"/>
<path fill-rule="evenodd" clip-rule="evenodd" d="M16.25 8.75C16.25 8.33579 16.5858 8 17 8H21C21.4142 8 21.75 8.33579 21.75 8.75V12.75C21.75 13.1642 21.4142 13.5 21 13.5H17C16.5858 13.5 16.25 13.1642 16.25 12.75V8.75ZM17.75 9.5V12H20.25V9.5H17.75Z" fill="black"/>
<path fill-rule="evenodd" clip-rule="evenodd" d="M20.7208 4.78312C21.1167 4.90494 21.3388 5.32462 21.217 5.72052L20.217 8.97052C20.0952 9.36642 19.6755 9.5886 19.2796 9.46679C18.8837 9.34498 18.6616 8.92529 18.7834 8.52939L19.7834 5.27939C19.9052 4.88349 20.3249 4.66131 20.7208 4.78312Z" fill="black"/>
</svg>
