<svg width="24" height="24" fill="none" xmlns="http://www.w3.org/2000/svg"><path d="M3.749 22h5.04s.711 0 .711-.754-.71-.754-.71-.754H4.499V8.738l-1.5 1.508v11c0 .416.336.754.75.754zM19.499 20.492H16.5s-.75 0-.75.754.75.754.75.754h3.749c.414 0 .75-.338.75-.754V10.244l-1.5-1.508v11.756z" fill="#000"/><path d="M.219 11.974a.744.744 0 001.06.001l1.72-1.729 1.5-1.508 6.97-7.008a.746.746 0 011.061 0l6.969 7.006 1.5 1.508 1.72 1.73a.742.742 0 001.06 0 .76.76 0 000-1.068l-2.78-2.795-5.202-5.231L13.591.662A2.232 2.232 0 0012 0c-.602 0-1.167.235-1.591.662L.219 10.907a.76.76 0 000 1.067z" fill="#000"/><path fill-rule="evenodd" clip-rule="evenodd" d="M10.6 15.7c.1 0 .1.1.1.2v6.3c0 .9.6 1.6 1.6 1.8h.1c.9 0 1.7-.6 1.8-1.6v-6.6c0-.1.1-.2.1-.2h.1c.6.2.9.4 1.2.9.2.3.5.4.7.4.2 0 .5 0 .8-.2l.2-.2c.1-.1.2-.3.2-.5v-1.6c0-1.9-1.5-3.4-3.5-3.4h-3.8c-.1 0-.1 0-.1-.1-.1-.2-.2-.3-.3-.4-.1-.1-.4-.3-.8-.3H6.6c-.3 0-.6.3-.6.6v5c0 .3.3.6.6.6H9c.3 0 .6-.1.8-.3.1-.1.2-.2.2-.3 0-.1.1-.1.1-.1h.5zm2.4 6.5c0 .2-.1.3-.2.4-.1.1-.2.1-.3.1-.2 0-.3-.1-.4-.2-.1-.1-.2-.2-.2-.3v-6.4c0-.1.1-.2.1-.2h.8c.2.1.2.1.2.2v6.4zm-2.7-9.9c0-.1.1-.1.2-.1H14c1.4 0 2.3 1 2.3 2.3v.6c0 .1 0 .1-.1.1H16c-.4-.4-.8-.6-1.4-.7h-4.1c-.1 0-.2-.1-.2-.2v-2zM8.9 15c0 .1-.1.2-.1.2H7.4c-.1 0-.2-.1-.2-.2v-3.5c0-.1.1-.1.2-.1h1.4c.1 0 .2.1.2.1V15h-.1z" fill="#29D305"/></svg>