<svg width="24" height="24" viewBox="0 0 24 24" fill="none" xmlns="http://www.w3.org/2000/svg">
<path d="M8.27295 10.5C6.61895 10.5 5.27295 9.154 5.27295 7.5C5.27295 5.846 6.61895 4.5 8.27295 4.5C9.92695 4.5 11.2729 5.846 11.2729 7.5C11.2729 9.154 9.92695 10.5 8.27295 10.5ZM8.27295 6C7.44595 6 6.77295 6.673 6.77295 7.5C6.77295 8.327 7.44595 9 8.27295 9C9.09995 9 9.77295 8.327 9.77295 7.5C9.77295 6.673 9.09995 6 8.27295 6Z" fill="#29D305"/>
<path d="M18.8132 18.9498C18.5612 18.9498 18.3282 18.8248 18.1882 18.6158L14.2632 12.7278C14.2142 12.6548 14.1322 12.6108 14.0442 12.6108C13.9932 12.6108 13.9432 12.6258 13.9002 12.6538C13.8732 12.6718 13.8502 12.6948 13.8312 12.7218L11.1392 16.5678C11.0212 16.7368 10.8362 16.8508 10.6312 16.8798C10.5942 16.8848 10.5592 16.8878 10.5252 16.8878C10.3542 16.8878 10.1872 16.8288 10.0552 16.7228L8.3872 15.3848C8.3402 15.3478 8.2852 15.3278 8.2262 15.3278C8.2162 15.3278 8.2062 15.3288 8.1962 15.3298C8.1252 15.3378 8.0652 15.3708 8.0212 15.4258L5.8962 18.6158C5.7572 18.8248 5.5232 18.9498 5.2712 18.9498C5.1232 18.9498 4.9792 18.9068 4.8562 18.8248C4.5122 18.5958 4.4182 18.1288 4.6472 17.7848L6.7582 14.6138C6.7862 14.5718 6.8172 14.5288 6.8512 14.4868C7.1442 14.1208 7.5642 13.8898 8.0312 13.8388C8.0972 13.8318 8.1632 13.8278 8.2292 13.8278C8.6302 13.8278 9.0092 13.9618 9.3252 14.2148L10.3692 15.0518L12.6012 11.8628C12.7272 11.6818 12.8852 11.5278 13.0692 11.4048C13.3582 11.2118 13.6942 11.1108 14.0422 11.1108C14.6352 11.1108 15.1842 11.4048 15.5112 11.8968L19.4362 17.7838C19.5472 17.9508 19.5872 18.1508 19.5482 18.3468C19.5082 18.5438 19.3952 18.7128 19.2282 18.8238C19.1052 18.9058 18.9612 18.9498 18.8132 18.9498Z" fill="black"/>
<path d="M3.2 24C1.98658 24 1 22.991 1 21.75V2.25C1 1.009 1.98658 0 3.2 0H17.9107C18.4895 0 19.0341 0.227 19.4477 0.639L22.3361 3.522C22.7575 3.943 23 4.53 23 5.133V21.75C23 22.991 22.0134 24 20.8 24H3.2ZM3.2 1.5C2.7952 1.5 2.46667 1.836 2.46667 2.25V21.75C2.46667 22.164 2.7952 22.5 3.2 22.5H20.8C21.2048 22.5 21.5333 22.164 21.5333 21.75V5.133C21.5333 4.932 21.4522 4.736 21.3114 4.596L18.423 1.713C18.2852 1.576 18.1043 1.5 17.9116 1.5H3.2Z" fill="black"/>
</svg>
