<svg width="24" height="24" fill="none" xmlns="http://www.w3.org/2000/svg"><path fill-rule="evenodd" clip-rule="evenodd" d="M1 21.75C1 22.991 1.987 24 3.2 24h17.6c1.213 0 2.2-1.009 2.2-2.25V5.133c0-.603-.242-1.19-.664-1.611L19.448.639A2.164 2.164 0 0017.91 0H3.2C1.987 0 1 1.009 1 2.25v19.5zm1.467-19.5c0-.414.328-.75.733-.75h14.712a.72.72 0 01.511.213l2.888 2.883c.141.14.222.336.222.537V21.75c0 .414-.328.75-.733.75H3.2a.742.742 0 01-.733-.75V2.25zm5.806 8.25c-1.654 0-3-1.346-3-3s1.346-3 3-3 3 1.346 3 3-1.346 3-3 3zm0-4.5c-.827 0-1.5.673-1.5 1.5S7.446 9 8.273 9s1.5-.673 1.5-1.5S9.1 6 8.273 6zm10.54 12.95a.75.75 0 01-.625-.334l-3.925-5.888a.264.264 0 00-.363-.074.262.262 0 00-.069.068l-2.692 3.846a.75.75 0 01-1.084.155l-1.668-1.338a.257.257 0 00-.161-.057l-.03.002a.255.255 0 00-.175.096l-2.125 3.19a.75.75 0 01-1.249-.831l2.111-3.171a1.746 1.746 0 011.471-.786c.401 0 .78.134 1.096.387l1.044.837 2.232-3.189a1.758 1.758 0 012.91.034l3.925 5.887a.748.748 0 01-.623 1.166z" fill="#000"/></svg>