<svg width="24" height="24" fill="none" xmlns="http://www.w3.org/2000/svg"><path fill-rule="evenodd" clip-rule="evenodd" d="M17.25 12a5.25 5.25 0 100 10.5 5.25 5.25 0 000-10.5zm-6.75 5.25a6.75 6.75 0 1113.5 0 6.75 6.75 0 01-13.5 0z" fill="#29D305"/><path fill-rule="evenodd" clip-rule="evenodd" d="M18 14.25a.75.75 0 00-1.5 0v2.25h-2.25a.75.75 0 000 1.5h2.25v2.25a.75.75 0 001.5 0V18h2.25a.75.75 0 000-1.5H18v-2.25zM2.25 1.5a.75.75 0 00-.75.75v16.5a.75.75 0 00.75.75h6a.75.75 0 010 1.5h-6A2.25 2.25 0 010 18.75V2.25A2.25 2.25 0 012.25 0h10.629a2.25 2.25 0 011.59.658l2.872 2.873c.422.421.659.994.659 1.59V8.25a.75.75 0 01-1.5 0V5.121a.75.75 0 00-.22-.53L13.41 1.72a.75.75 0 00-.53-.219H2.25z" fill="#000"/><path d="M4.455 5.205a1.125 1.125 0 111.59 1.59 1.125 1.125 0 01-1.59-1.59z" fill="#29D305"/><path fill-rule="evenodd" clip-rule="evenodd" d="M9.94 7.332a1.499 1.499 0 011.946.521l1.03 1.65a.75.75 0 01-1.273.794l-1.017-1.63-2 2.85a.75.75 0 01-1.083.155l-1.227-.982L4.95 13.5H8.25a.75.75 0 010 1.5h-4.5a.75.75 0 01-.674-1.078L5.013 9.94a.751.751 0 01.05-.088 1.5 1.5 0 012.186-.338l.608.487 1.54-2.195c.14-.2.327-.364.544-.475z" fill="#000"/></svg>