<svg width="24" height="24" fill="none" xmlns="http://www.w3.org/2000/svg"><path fill-rule="evenodd" clip-rule="evenodd" d="M9 4.02a.77.77 0 00-.77-.77H4.5c-1.241 0-2.25 1.035-2.25 2.308v9.83L.194 20.005a2.336 2.336 0 00-.194.937c0 1.273 1.009 2.308 2.25 2.308v.001h19.5c.317 0 .624-.068.914-.199 1.134-.517 1.646-1.883 1.143-3.046L21.75 15.39V5.558c0-1.273-1.01-2.308-2.25-2.308h-3.73a.77.77 0 000 1.538h3.73a.76.76 0 01.75.77v9.23H3.75v-9.23a.76.76 0 01.75-.77h3.73A.77.77 0 009 4.02zM1.561 20.636a.774.774 0 00-.061.305c0 .424.337.77.75.77h19.5a.73.73 0 00.305-.067.778.778 0 00.38-1.014l-1.917-4.305H3.482l-1.921 4.31z" fill="#000"/><path d="M10.5 20.168a.76.76 0 01-.75-.769.76.76 0 01.75-.769h3a.76.76 0 01.75.77.76.76 0 01-.75.768h-3z" fill="#29D305"/><path fill-rule="evenodd" clip-rule="evenodd" d="M12 3.5c.414 0 .75.32.75.716v3.818c0 .395-.336.716-.75.716s-.75-.32-.75-.716V4.216c0-.395.336-.716.75-.716z" fill="#000"/><path d="M13 1.75a1 1 0 11-2 0 1 1 0 012 0z" fill="#000"/></svg>