<svg width="24" height="24" fill="none" xmlns="http://www.w3.org/2000/svg"><path fill-rule="evenodd" clip-rule="evenodd" d="M1 21.75C1 22.991 1.987 24 3.2 24h17.6c1.213 0 2.2-1.009 2.2-2.25V5.133c0-.603-.242-1.19-.664-1.611L19.448.639A2.164 2.164 0 0017.91 0H3.2C1.987 0 1 1.009 1 2.25v19.5zm1.467-19.5c0-.414.328-.75.733-.75h14.712a.72.72 0 01.511.213l2.888 2.883c.141.14.222.336.222.537V21.75c0 .414-.328.75-.733.75H3.2a.742.742 0 01-.733-.75V2.25zm3.573 6c0 .413.299.748.667.748h10.666c.367 0 .667-.335.667-.749 0-.413-.299-.749-.667-.749H6.707c-.368 0-.667.336-.667.75zm.667 5.248c-.368 0-.667-.335-.667-.749 0-.413.299-.749.667-.749h10.666c.368 0 .667.336.667.75 0 .413-.299.748-.667.748H6.707zM6.04 17.25c0 .414.299.75.667.75h5.333c.367 0 .667-.336.667-.75 0-.413-.3-.749-.667-.749H6.707c-.368 0-.667.336-.667.75z" fill="#000"/></svg>