<svg width="24" height="24" fill="none" xmlns="http://www.w3.org/2000/svg"><path d="M6.707 8.998c-.368 0-.667-.335-.667-.749 0-.413.299-.749.667-.749h10.666c.368 0 .667.336.667.75 0 .413-.3.748-.667.748H6.707z" fill="#000"/><path d="M3.2 24C1.987 24 1 22.991 1 21.75V2.25C1 1.009 1.987 0 3.2 0h14.71c.58 0 1.124.227 1.538.639l2.888 2.883c.422.421.664 1.008.664 1.611V21.75c0 1.241-.987 2.25-2.2 2.25H3.2zm0-22.5a.742.742 0 00-.733.75v19.5c0 .414.328.75.733.75h17.6a.742.742 0 00.733-.75V5.133a.762.762 0 00-.222-.537l-2.888-2.883a.72.72 0 00-.511-.213H3.2z" fill="#000"/><path d="M6.707 13.498c-.368 0-.667-.335-.667-.749 0-.413.299-.749.667-.749h10.666c.368 0 .667.336.667.75 0 .413-.299.748-.667.748H6.707z" fill="#000"/><path d="M6.707 17.998c-.368 0-.667-.335-.667-.749 0-.413.299-.749.667-.749h5.333c.367 0 .667.336.667.75 0 .413-.3.748-.667.748H6.707z" fill="#29D305"/></svg>