<svg width="24" height="24" viewBox="0 0 24 24" fill="none" xmlns="http://www.w3.org/2000/svg">
<path fill-rule="evenodd" clip-rule="evenodd" d="M1 21.75C1 22.991 1.98658 24 3.2 24H20.8C22.0134 24 23 22.991 23 21.75V5.133C23 4.53 22.7575 3.943 22.3361 3.522L19.4477 0.639C19.0341 0.227 18.4895 0 17.9107 0H3.2C1.98658 0 1 1.009 1 2.25V21.75ZM2.46667 2.25C2.46667 1.836 2.7952 1.5 3.2 1.5H17.9116C18.1043 1.5 18.2852 1.576 18.423 1.713L21.3114 4.596C21.4522 4.736 21.5333 4.932 21.5333 5.133V21.75C21.5333 22.164 21.2048 22.5 20.8 22.5H3.2C2.7952 22.5 2.46667 22.164 2.46667 21.75V2.25ZM6.03992 8.24914C6.03992 8.66267 6.33858 8.99828 6.70658 8.99828H17.3733C17.7404 8.99828 18.0399 8.66267 18.0399 8.24914C18.0399 7.83562 17.7413 7.5 17.3733 7.5H6.70658C6.33858 7.5 6.03992 7.83562 6.03992 8.24914ZM6.70658 13.4983C6.33858 13.4983 6.03992 13.1627 6.03992 12.7491C6.03992 12.3356 6.33858 12 6.70658 12H17.3733C17.7413 12 18.0399 12.3356 18.0399 12.7491C18.0399 13.1627 17.7413 13.4983 17.3733 13.4983H6.70658ZM6.03992 17.2491C6.03992 17.6627 6.33858 17.9983 6.70658 17.9983H12.0399C12.407 17.9983 12.7066 17.6627 12.7066 17.2491C12.7066 16.8356 12.407 16.5 12.0399 16.5H6.70658C6.33858 16.5 6.03992 16.8356 6.03992 17.2491Z" fill="black"/>
</svg>
