<svg width="24" height="24" viewBox="0 0 24 24" fill="none" xmlns="http://www.w3.org/2000/svg">
<path d="M18 3C18 -1 6 -1 6 3V6C6 8 9 9 12 9C15 9 18 8 18 6V3ZM12 1.5C14.8 1.5 16.5 2.5 16.5 3C16.5 3.5 14.8 4.5 12 4.5C9.2 4.5 7.5 3.5 7.5 3C7.5 2.5 9.2 1.5 12 1.5ZM12 7.5C9.2 7.5 7.5 6.5 7.5 6V5C8.7 5.6 10.3 6 12 6C13.7 6 15.3 5.7 16.5 5V6C16.5 6.5 14.8 7.5 12 7.5Z" fill="#29D305"/>
<path d="M8.2 13.5H2.2C1 13.5 0 14.5 0 15.7V18.7C0 20 1 21 2.2 21H4.4V22.5H3C2.6 22.5 2.2 22.8 2.2 23.3C2.2 23.8 2.6 24 3 24H7.5C7.9 24 8.3 23.7 8.3 23.2C8.3 22.7 8 22.4 7.5 22.4H6V21H8.2C9.4 21 10.4 20 10.4 18.8V15.8C10.5 14.5 9.5 13.5 8.2 13.5ZM9 18.8C9 19.2 8.7 19.6 8.2 19.6H2.2C1.8 19.6 1.4 19.3 1.4 18.8V15.8C1.4 15.4 1.7 15 2.2 15H8.2C8.7 15 9 15.3 9 15.8V18.8Z" fill="black"/>
<path d="M21.8001 13.5H15.8001C14.6001 13.5 13.6001 14.5 13.6001 15.7V18.7C13.6001 19.9 14.6001 20.9 15.8001 20.9H18.0001V22.4H16.5001C16.1001 22.4 15.7001 22.7 15.7001 23.2C15.7001 23.7 16.0001 24 16.5001 24H21.0001C21.4001 24 21.8001 23.7 21.8001 23.2C21.8001 22.7 21.5001 22.4 21.0001 22.4H19.5001V21H21.7001C22.9001 21 23.9001 20 23.9001 18.8V15.8C24.0001 14.5 23.0001 13.5 21.8001 13.5ZM22.5001 18.8C22.5001 19.2 22.2001 19.6 21.7001 19.6H15.7001C15.3001 19.6 14.9001 19.3 14.9001 18.8V15.8C14.9001 15.4 15.2001 15 15.7001 15H21.7001C22.1001 15 22.5001 15.3 22.5001 15.8V18.8Z" fill="black"/>
<path d="M2.3 12.0001C1.9 12.0001 1.5 11.7001 1.5 11.2001V7.8001C1.5 6.6001 2.5 5.6001 3.7 5.6001C4.1 5.6001 4.5 5.9001 4.5 6.4001C4.5 6.9001 4.2 7.0001 3.8 7.0001C3.3 7.0001 3 7.3001 3 7.8001V11.3001C3 11.7001 2.7 12.0001 2.3 12.0001Z" fill="black"/>
<path d="M21.8 11.9999C21.4 11.9999 21 11.6999 21 11.1999V7.7999C21 7.2999 20.7 6.9999 20.3 6.9999C19.9 6.9999 19.5 6.6999 19.5 6.1999C19.5 5.6999 19.8 5.3999 20.3 5.3999C21.5 5.3999 22.5 6.3999 22.5 7.5999V11.0999C22.5 11.6999 22.2 11.9999 21.8 11.9999Z" fill="black"/>
</svg>
