<svg width="24" height="24" fill="none" xmlns="http://www.w3.org/2000/svg"><path d="M2.25 21.999c-1.241 0-2.25-1.035-2.25-2.308 0-.325.065-.64.194-.937l2.056-4.615V4.308C2.25 3.035 3.259 2 4.5 2h15c1.24 0 2.25 1.035 2.25 2.308v9.832l2.057 4.615c.503 1.163-.01 2.53-1.143 3.046-.29.131-.597.199-.914.199H2.25v-.001zm-.689-2.612a.774.774 0 00-.061.305c0 .424.337.77.75.77h19.5a.73.73 0 00.305-.067.778.778 0 00.38-1.014l-1.917-4.305H3.482l-1.921 4.31zm18.689-5.85v-9.23a.76.76 0 00-.75-.769h-15a.76.76 0 00-.75.77v9.23h16.5z" fill="#000"/><path d="M10.5 18.922a.76.76 0 01-.75-.769.76.76 0 01.75-.77h3a.76.76 0 01.75.77.76.76 0 01-.75.77h-3zM10.23 7.266c-.296 0-.537-.318-.537-.71 0-.392.24-.71.537-.71h7.695c.297 0 .537.318.537.71 0 .392-.24.71-.537.71H10.23z" fill="#000"/><path d="M6.206 7.266c-.368 0-.667-.318-.667-.71 0-.392.299-.71.667-.71h1.898c.368 0 .666.318.666.71 0 .392-.298.71-.666.71H6.206z" fill="#29D305"/><path d="M6.127 10.58c-.324 0-.588-.319-.588-.71 0-.393.264-.71.588-.71h11.748c.324 0 .587.317.587.71 0 .391-.263.71-.587.71H6.127z" fill="#000"/></svg>