<svg width="24" height="25" viewBox="0 0 24 25" fill="none" xmlns="http://www.w3.org/2000/svg">
<path d="M14.4098 13.44C14.4098 13.05 14.5298 12.69 14.7598 12.36C14.9898 12.03 15.3298 11.76 15.7898 11.56C16.2498 11.36 16.7798 11.26 17.3998 11.26C17.8598 11.26 18.2898 11.32 18.6798 11.43C19.0698 11.54 19.3998 11.7 19.6798 11.89C19.9598 12.08 20.1598 12.29 20.3098 12.52C20.4598 12.75 20.5298 12.97 20.5298 13.2C20.5298 13.38 20.4498 13.53 20.2798 13.67C20.1098 13.81 19.9298 13.88 19.7198 13.88C19.5098 13.88 19.3698 13.83 19.2598 13.74C19.1498 13.65 18.9998 13.49 18.8098 13.28C18.6198 13.07 18.4298 12.89 18.2298 12.78C18.0298 12.67 17.7798 12.61 17.4698 12.61C17.1098 12.61 16.8198 12.69 16.6098 12.86C16.3998 13.03 16.2898 13.21 16.2898 13.43C16.2898 13.65 16.3798 13.85 16.5598 14.01C16.7398 14.17 17.0498 14.36 17.4898 14.58C17.9298 14.8 18.2098 14.95 18.3498 15.04C18.7598 15.27 19.1298 15.47 19.4598 15.65C19.7898 15.83 20.0798 16.02 20.3498 16.23C20.6198 16.44 20.8298 16.68 20.9798 16.96C21.1298 17.24 21.2098 17.56 21.2098 17.93C21.2098 18.35 21.0898 18.72 20.8498 19.06C20.6098 19.4 20.2598 19.69 19.8098 19.93C20.4398 20.43 20.7598 21.01 20.7598 21.68C20.7598 22 20.6898 22.3 20.5498 22.58C20.4098 22.86 20.1998 23.11 19.9198 23.33C19.6398 23.55 19.3098 23.71 18.9298 23.83C18.5498 23.95 18.1298 24.01 17.6798 24.01C17.1298 24.01 16.6498 23.94 16.2298 23.8C15.8098 23.66 15.4498 23.47 15.1498 23.23C14.8498 22.99 14.6198 22.73 14.4798 22.46C14.3398 22.19 14.2698 21.94 14.2698 21.7C14.2698 21.48 14.3498 21.28 14.5198 21.11C14.6898 20.94 14.8998 20.85 15.1498 20.85C15.2498 20.85 15.3498 20.87 15.4498 20.91C15.5498 20.95 15.6198 20.99 15.6698 21.05C15.8998 21.33 16.0698 21.57 16.1798 21.78C16.4498 22.37 16.9298 22.66 17.6198 22.66C17.9998 22.66 18.3098 22.56 18.5398 22.37C18.7698 22.18 18.8898 21.95 18.8898 21.7C18.8898 21.52 18.8198 21.36 18.6898 21.21C18.5598 21.06 18.3698 20.9 18.1198 20.74C17.8698 20.58 17.4998 20.35 16.9898 20.06C16.4798 19.77 15.9698 19.46 15.4498 19.15C15.2498 19.03 15.0498 18.89 14.8398 18.76C14.6298 18.63 14.4398 18.47 14.2798 18.31C14.1198 18.15 13.9998 17.96 13.8998 17.74C13.7998 17.52 13.7598 17.27 13.7598 16.98C13.7598 16.18 14.2498 15.53 15.2398 15.04C14.6798 14.59 14.3998 14.06 14.3998 13.46L14.4098 13.44ZM16.1998 15.76C15.6498 16.09 15.3798 16.43 15.3798 16.78C15.3798 16.96 15.4498 17.13 15.5898 17.28C15.7298 17.43 15.9098 17.58 16.1498 17.73C16.3898 17.88 16.7498 18.08 17.2398 18.36C17.3898 18.44 17.5798 18.55 17.8398 18.69C18.0998 18.83 18.3398 18.97 18.5898 19.09C19.1498 18.71 19.4298 18.38 19.4298 18.08C19.4298 17.92 19.3798 17.77 19.2798 17.64C19.1798 17.51 19.0498 17.38 18.8798 17.25C18.7098 17.12 18.4998 16.99 18.2498 16.85C17.9998 16.71 17.6798 16.53 17.2798 16.32L16.5598 15.93C16.3998 15.84 16.2798 15.78 16.2098 15.75L16.1998 15.76Z" fill="black"/>
<path d="M17.04 7.5H6.54004C6.13004 7.5 5.79004 7.16 5.79004 6.75C5.79004 6.34 6.13004 6 6.54004 6H17.04C17.45 6 17.79 6.34 17.79 6.75C17.79 7.16 17.45 7.5 17.04 7.5Z" fill="black"/>
<path d="M10.29 12H6.54004C6.13004 12 5.79004 11.66 5.79004 11.25C5.79004 10.84 6.13004 10.5 6.54004 10.5H10.29C10.7 10.5 11.04 10.84 11.04 11.25C11.04 11.66 10.7 12 10.29 12Z" fill="black"/>
<path d="M10.29 16.5H6.54004C6.13004 16.5 5.79004 16.16 5.79004 15.75C5.79004 15.34 6.13004 15 6.54004 15H10.29C10.7 15 11.04 15.34 11.04 15.75C11.04 16.16 10.7 16.5 10.29 16.5Z" fill="black"/>
<path d="M10.29 21H5.04004C3.80004 21 2.79004 19.99 2.79004 18.75V2.25C2.79004 1.01 3.80004 0 5.04004 0H15.67C16.26 0 16.84 0.24 17.26 0.66L20.13 3.53C20.55 3.95 20.79 4.52 20.79 5.12V7.5C20.79 7.91 20.45 8.25 20.04 8.25C19.63 8.25 19.29 7.91 19.29 7.5V5.12C19.29 4.92 19.21 4.73 19.07 4.59L16.2 1.72C16.06 1.58 15.87 1.5 15.67 1.5H5.04004C4.63004 1.5 4.29004 1.84 4.29004 2.25V18.75C4.29004 19.16 4.63004 19.5 5.04004 19.5H10.29C10.7 19.5 11.04 19.84 11.04 20.25C11.04 20.66 10.7 21 10.29 21Z" fill="black"/>
</svg>
