<svg width="24" height="24" viewBox="0 0 24 24" fill="none" xmlns="http://www.w3.org/2000/svg">
<path fill-rule="evenodd" clip-rule="evenodd" d="M11.5449 1.81084L1.80321 6.35695C1.7887 6.36545 1.77646 6.3774 1.76761 6.39178C1.75763 6.40799 1.75234 6.42666 1.75234 6.4457C1.75234 6.46474 1.75763 6.48341 1.76761 6.49962C1.77635 6.51383 1.7884 6.52566 1.80269 6.53414L11.5439 11.0458C11.6881 11.1072 11.8432 11.1388 12 11.1388C12.1564 11.1388 12.3112 11.1073 12.4552 11.0463L22.1968 6.50016C22.2113 6.49166 22.2236 6.47971 22.2324 6.46534C22.2424 6.44912 22.2477 6.43045 22.2477 6.41141C22.2477 6.39237 22.2424 6.37371 22.2324 6.35749C22.2237 6.34329 22.2116 6.33145 22.1973 6.32297L12.4561 1.81126C12.3119 1.74994 12.1568 1.71831 12 1.71831C11.8436 1.71831 11.6888 1.74979 11.5449 1.81084ZM10.8529 0.24234C11.2149 0.0851437 11.6054 0.00402832 12 0.00402832C12.3947 0.00402832 12.7851 0.0851437 13.1471 0.24234C13.1534 0.245079 13.1597 0.247895 13.166 0.250786L22.9374 4.7765C22.9461 4.78051 22.9546 4.78467 22.9632 4.78896C23.2635 4.94045 23.5159 5.17233 23.6923 5.45879C23.8686 5.74524 23.962 6.07503 23.962 6.41141C23.962 6.7478 23.8686 7.07758 23.6923 7.36404C23.5159 7.65049 23.2635 7.88237 22.9632 8.03386C22.9554 8.03779 22.9475 8.0416 22.9396 8.04528L13.1682 12.6053C13.1612 12.6085 13.1542 12.6117 13.1471 12.6148C12.7851 12.772 12.3947 12.8531 12 12.8531C11.6054 12.8531 11.2149 12.772 10.8529 12.6148C10.8466 12.612 10.8403 12.6092 10.8341 12.6063L1.06264 8.08061C1.05398 8.0766 1.04539 8.07245 1.03687 8.06815C0.736521 7.91666 0.484122 7.68478 0.307775 7.39832C0.131428 7.11187 0.0380554 6.78208 0.0380554 6.4457C0.0380554 6.10931 0.131428 5.77953 0.307775 5.49308C0.484123 5.20662 0.736522 4.97474 1.03687 4.82325C1.04465 4.81932 1.0525 4.81552 1.0604 4.81183L10.8318 0.251828C10.8388 0.248571 10.8458 0.245408 10.8529 0.24234Z" fill="black"/>
<path fill-rule="evenodd" clip-rule="evenodd" d="M23.9214 12.2414C24.1194 12.6713 23.9314 13.1804 23.5015 13.3785L13.0443 18.1957L13.0414 18.197C12.7064 18.3498 12.3425 18.4289 11.9743 18.4289C11.6061 18.4289 11.2421 18.3498 10.9071 18.197L10.9028 18.195L10.9028 18.195L0.497049 13.3778C0.067461 13.179 -0.119573 12.6695 0.0792975 12.2399C0.278168 11.8103 0.787634 11.6233 1.21722 11.8222L11.6186 16.6373C11.6192 16.6376 11.6198 16.6379 11.6204 16.6381C11.7316 16.6885 11.8522 16.7146 11.9743 16.7146C12.0966 16.7146 12.2175 16.6884 12.3288 16.6378C12.3292 16.6377 12.3296 16.6375 12.33 16.6373L22.7842 11.8215C23.2142 11.6234 23.7233 11.8114 23.9214 12.2414Z" fill="black"/>
<path fill-rule="evenodd" clip-rule="evenodd" d="M23.9214 17.8128C24.1194 18.2428 23.9314 18.7519 23.5015 18.9499L13.0443 23.7671L13.0414 23.7684C12.7064 23.9212 12.3425 24.0003 11.9743 24.0003C11.6061 24.0003 11.2421 23.9212 10.9071 23.7684L10.9028 23.7664L10.9028 23.7664L0.497049 18.9493C0.067461 18.7504 -0.119573 18.2409 0.0792975 17.8114C0.278168 17.3818 0.787634 17.1947 1.21722 17.3936L11.6186 22.2087C11.6192 22.209 11.6198 22.2093 11.6204 22.2096C11.7315 22.26 11.8522 22.286 11.9743 22.286C12.0966 22.286 12.2175 22.2598 12.3289 22.2092C12.3292 22.2091 12.3296 22.2089 12.33 22.2087L22.7842 17.3929C23.2142 17.1949 23.7233 17.3829 23.9214 17.8128Z" fill="black"/>
</svg>
