<svg width="24" height="24" viewBox="0 0 24 24" fill="none" xmlns="http://www.w3.org/2000/svg">
<path d="M14.6323 4.2351C14.3198 4.5476 14.3198 5.0551 14.6323 5.3676C14.9448 5.6801 15.4523 5.6801 15.7648 5.3676L18.3998 2.7326V10.4026C18.3998 10.8451 18.7573 11.2026 19.1998 11.2026C19.6423 11.2026 19.9998 10.8451 19.9998 10.4026V2.7326L22.6348 5.3676C22.9473 5.6801 23.4548 5.6801 23.7673 5.3676C24.0798 5.0551 24.0798 4.5476 23.7673 4.2351L19.7698 0.237597C19.7023 0.167597 19.6223 0.112597 19.5323 0.0725974C19.2273 -0.0674026 18.8673 9.73642e-05 18.6298 0.237597L14.6323 4.2326V4.2351Z" fill="#29D305"/>
<path d="M15.75 15H0.75C0.335 15 0 15.335 0 15.75C0 16.165 0.335 16.5 0.75 16.5H1.0725L1.755 23.325C1.7925 23.7075 2.115 24 2.5 24H14C14.385 24 14.7075 23.7075 14.745 23.325L15.4275 16.5H15.75C16.165 16.5 16.5 16.165 16.5 15.75C16.5 15.335 16.165 15 15.75 15ZM13.3225 22.5H3.1775L2.5775 16.5H13.92L13.32 22.5H13.3225Z" fill="black"/>
<path d="M12 3.75C12 1.6825 10.3175 0 8.25 0C6.1825 0 4.5 1.6825 4.5 3.75C4.5 5.8175 6.1825 7.5 8.25 7.5C10.3175 7.5 12 5.8175 12 3.75ZM8.25 6C7.01 6 6 4.99 6 3.75C6 2.51 7.01 1.5 8.25 1.5C9.49 1.5 10.5 2.51 10.5 3.75C10.5 4.99 9.49 6 8.25 6Z" fill="black"/>
<path d="M3 12.75C3 13.165 3.335 13.5 3.75 13.5C4.165 13.5 4.5 13.165 4.5 12.75C4.5 10.6825 6.1825 9 8.25 9C10.3175 9 12 10.6825 12 12.75C12 13.165 12.335 13.5 12.75 13.5C13.165 13.5 13.5 13.165 13.5 12.75C13.5 9.855 11.145 7.5 8.25 7.5C5.355 7.5 3 9.855 3 12.75Z" fill="black"/>
</svg>
