<svg width="24" height="24" viewBox="0 0 24 24" fill="none" xmlns="http://www.w3.org/2000/svg">
<path fill-rule="evenodd" clip-rule="evenodd" d="M12 8.25C9.92893 8.25 8.25 9.92893 8.25 12C8.25 14.0711 9.92893 15.75 12 15.75C14.0711 15.75 15.75 14.0711 15.75 12C15.75 9.92893 14.0711 8.25 12 8.25ZM6.75 12C6.75 9.1005 9.1005 6.75 12 6.75C14.8995 6.75 17.25 9.1005 17.25 12C17.25 14.8995 14.8995 17.25 12 17.25C9.1005 17.25 6.75 14.8995 6.75 12Z" fill="black"/>
<path fill-rule="evenodd" clip-rule="evenodd" d="M12 0C12.4142 0 12.75 0.335786 12.75 0.75V4.5C12.75 4.91421 12.4142 5.25 12 5.25C11.5858 5.25 11.25 4.91421 11.25 4.5V0.75C11.25 0.335786 11.5858 0 12 0Z" fill="black"/>
<path fill-rule="evenodd" clip-rule="evenodd" d="M12 18.75C12.4142 18.75 12.75 19.0858 12.75 19.5V23.25C12.75 23.6642 12.4142 24 12 24C11.5858 24 11.25 23.6642 11.25 23.25V19.5C11.25 19.0858 11.5858 18.75 12 18.75Z" fill="black"/>
<path fill-rule="evenodd" clip-rule="evenodd" d="M18.75 12C18.75 11.5858 19.0858 11.25 19.5 11.25H23.25C23.6642 11.25 24 11.5858 24 12C24 12.4142 23.6642 12.75 23.25 12.75H19.5C19.0858 12.75 18.75 12.4142 18.75 12Z" fill="black"/>
<path fill-rule="evenodd" clip-rule="evenodd" d="M0 12C0 11.5858 0.335786 11.25 0.75 11.25H4.5C4.91421 11.25 5.25 11.5858 5.25 12C5.25 12.4142 4.91421 12.75 4.5 12.75H0.75C0.335786 12.75 0 12.4142 0 12Z" fill="black"/>
<path fill-rule="evenodd" clip-rule="evenodd" d="M20.7803 3.21967C21.0732 3.51256 21.0732 3.98744 20.7803 4.28033L17.7803 7.28033C17.4874 7.57322 17.0126 7.57322 16.7197 7.28033C16.4268 6.98744 16.4268 6.51256 16.7197 6.21967L19.7197 3.21967C20.0126 2.92678 20.4874 2.92678 20.7803 3.21967Z" fill="black"/>
<path fill-rule="evenodd" clip-rule="evenodd" d="M7.28033 16.7197C7.57322 17.0126 7.57322 17.4874 7.28033 17.7803L4.28033 20.7803C3.98744 21.0732 3.51256 21.0732 3.21967 20.7803C2.92678 20.4874 2.92678 20.0126 3.21967 19.7197L6.21967 16.7197C6.51256 16.4268 6.98744 16.4268 7.28033 16.7197Z" fill="black"/>
<path fill-rule="evenodd" clip-rule="evenodd" d="M16.7197 16.7197C17.0126 16.4268 17.4874 16.4268 17.7803 16.7197L20.7803 19.7197C21.0732 20.0126 21.0732 20.4874 20.7803 20.7803C20.4874 21.0732 20.0126 21.0732 19.7197 20.7803L16.7197 17.7803C16.4268 17.4874 16.4268 17.0126 16.7197 16.7197Z" fill="black"/>
<path fill-rule="evenodd" clip-rule="evenodd" d="M3.21967 3.21967C3.51256 2.92678 3.98744 2.92678 4.28033 3.21967L7.28033 6.21967C7.57322 6.51256 7.57322 6.98744 7.28033 7.28033C6.98744 7.57322 6.51256 7.57322 6.21967 7.28033L3.21967 4.28033C2.92678 3.98744 2.92678 3.51256 3.21967 3.21967Z" fill="black"/>
</svg>
