<svg width="24" height="24" viewBox="0 0 24 24" fill="none" xmlns="http://www.w3.org/2000/svg">
<path fill-rule="evenodd" clip-rule="evenodd" d="M11.1317 3.09236C11.6121 2.98238 12.1095 2.96818 12.5954 3.05059C12.6033 3.05192 12.6111 3.05338 12.6189 3.05496C13.5071 3.23487 14.304 3.7208 14.8707 4.42802C15.4358 5.1332 15.7361 6.01379 15.72 6.91709V7.56921C17.0809 8.17976 18.2712 9.12066 19.1808 10.3098C20.1965 11.6377 20.8217 13.2225 20.9864 14.8862C20.9888 14.9107 20.99 14.9354 20.99 14.96V15.0301C20.9874 15.2259 20.9461 15.4191 20.8689 15.5988C20.7916 15.7785 20.6796 15.9413 20.5394 16.0778C20.3991 16.2143 20.2334 16.3219 20.0516 16.3943C19.8717 16.466 19.6795 16.5019 19.4858 16.5H4.49002C4.47372 16.5 4.45743 16.4995 4.44117 16.4984C4.24538 16.4857 4.05398 16.4343 3.87802 16.3474C3.70207 16.2604 3.54507 16.1396 3.41599 15.9918C3.2869 15.844 3.18827 15.6721 3.12578 15.4861C3.06326 15.3 3.03817 15.1035 3.05184 14.9078L3.05345 14.8884C3.21247 13.2321 3.82802 11.6524 4.83159 10.3253C5.73066 9.13628 6.90954 8.19173 8.26001 7.57346V6.78225C8.24379 6.58234 8.24483 6.38138 8.26314 6.18161C8.26486 6.16285 8.26728 6.14417 8.27041 6.12559C8.35218 5.63956 8.52897 5.17442 8.79065 4.75677C9.05234 4.3391 9.39381 3.97713 9.79548 3.69155C10.1972 3.40596 10.6512 3.20234 11.1317 3.09236ZM12.3329 4.52751C12.045 4.48027 11.7508 4.48943 11.4664 4.55454C11.1781 4.62052 10.9057 4.74269 10.6647 4.91406C10.4236 5.08542 10.2188 5.3026 10.0618 5.55318C9.9098 5.79573 9.80555 6.06496 9.75452 6.34641C9.74588 6.45799 9.74667 6.57012 9.75688 6.68161C9.75897 6.70436 9.76001 6.72719 9.76001 6.75004V8.07004C9.76001 8.37915 9.57037 8.6566 9.28237 8.76884C7.99073 9.27226 6.86415 10.1243 6.02803 11.23C5.19832 12.3272 4.68694 13.6317 4.5497 15H19.49V14.998C19.3475 13.625 18.8282 12.3179 17.9893 11.2211C17.1431 10.1148 16.0052 9.2663 14.7033 8.77103C14.4123 8.66033 14.22 8.38137 14.22 8.07004V6.91004L14.2201 6.89511C14.2312 6.34022 14.0472 5.79906 13.7001 5.36597C13.3556 4.93599 12.8721 4.63957 12.3329 4.52751Z" fill="black"/>
<path fill-rule="evenodd" clip-rule="evenodd" d="M11.96 0C12.3742 0 12.71 0.335786 12.71 0.75V3.75C12.71 4.16421 12.3742 4.5 11.96 4.5C11.5458 4.5 11.21 4.16421 11.21 3.75V0.75C11.21 0.335786 11.5458 0 11.96 0Z" fill="black"/>
<path fill-rule="evenodd" clip-rule="evenodd" d="M14.97 15C15.3842 15 15.72 15.3358 15.72 15.75C15.72 16.7445 15.3249 17.6984 14.6216 18.4017C13.9184 19.1049 12.9645 19.5 11.97 19.5C10.9754 19.5 10.0216 19.1049 9.31833 18.4017C8.61508 17.6984 8.21997 16.7446 8.21997 15.75H9.71997C9.71997 16.3467 9.95703 16.919 10.379 17.341C10.801 17.763 11.3732 18 11.97 18C12.5667 18 13.139 17.7629 13.561 17.341C13.9829 16.919 14.22 16.3467 14.22 15.75C14.22 15.3358 14.5558 15 14.97 15Z" fill="black"/>
<path fill-rule="evenodd" clip-rule="evenodd" d="M11.96 21C12.3742 21 12.71 21.3358 12.71 21.75V23.25C12.71 23.6642 12.3742 24 11.96 24C11.5458 24 11.21 23.6642 11.21 23.25V21.75C11.21 21.3358 11.5458 21 11.96 21Z" fill="black"/>
<path fill-rule="evenodd" clip-rule="evenodd" d="M16.794 19.6259C17.1386 19.3962 17.6043 19.4893 17.834 19.8339L19.334 22.0839C19.5638 22.4286 19.4707 22.8942 19.126 23.124C18.7814 23.3538 18.3157 23.2606 18.0859 22.916L16.5859 20.666C16.3562 20.3213 16.4493 19.8557 16.794 19.6259Z" fill="black"/>
<path fill-rule="evenodd" clip-rule="evenodd" d="M7.126 19.6259C7.47065 19.8557 7.56378 20.3213 7.33402 20.666L5.83402 22.916C5.60425 23.2606 5.1386 23.3538 4.79395 23.124C4.44931 22.8942 4.35618 22.4286 4.58594 22.0839L6.08594 19.8339C6.31571 19.4893 6.78136 19.3962 7.126 19.6259Z" fill="black"/>
</svg>
