<svg width="24" height="24" viewBox="0 0 24 24" fill="none" xmlns="http://www.w3.org/2000/svg">
<path fill-rule="evenodd" clip-rule="evenodd" d="M11.1316 3.09236C11.6121 2.98238 12.1095 2.96818 12.5954 3.05059C12.6032 3.05192 12.6111 3.05338 12.6189 3.05496C13.5071 3.23487 14.304 3.7208 14.8707 4.42802C15.4358 5.1332 15.7361 6.01379 15.72 6.91709V7.56921C17.0809 8.17976 18.2712 9.12066 19.1808 10.3098C20.1964 11.6377 20.8217 13.2225 20.9864 14.8862C20.9888 14.9107 20.99 14.9354 20.99 14.96V15.0301C20.9874 15.2259 20.9461 15.4191 20.8688 15.5988C20.7916 15.7785 20.6796 15.9413 20.5393 16.0778C20.3991 16.2143 20.2334 16.3219 20.0516 16.3943C19.8716 16.466 19.6795 16.5019 19.4858 16.5H4.49001C4.47371 16.5 4.45742 16.4995 4.44115 16.4984C4.24536 16.4857 4.05397 16.4343 3.87801 16.3474C3.70206 16.2604 3.54505 16.1396 3.41597 15.9918C3.28688 15.844 3.18825 15.6721 3.12576 15.4861C3.06325 15.3 3.03815 15.1035 3.05183 14.9078L3.05344 14.8884C3.21245 13.2321 3.828 11.6524 4.83157 10.3253C5.73064 9.13628 6.90953 8.19173 8.25999 7.57346V6.78225C8.24378 6.58234 8.24482 6.38138 8.26312 6.18161C8.26484 6.16285 8.26727 6.14417 8.27039 6.12559C8.35217 5.63956 8.52896 5.17442 8.79064 4.75677C9.05233 4.3391 9.39379 3.97713 9.79547 3.69155C10.1971 3.40596 10.6512 3.20234 11.1316 3.09236ZM12.3328 4.52751C12.045 4.48027 11.7507 4.48943 11.4664 4.55454C11.1781 4.62052 10.9057 4.74269 10.6646 4.91406C10.4236 5.08542 10.2188 5.3026 10.0617 5.55318C9.90978 5.79573 9.80553 6.06496 9.7545 6.34641C9.74586 6.45799 9.74665 6.57012 9.75687 6.68161C9.75895 6.70436 9.75999 6.72719 9.75999 6.75004V8.07004C9.75999 8.37915 9.57035 8.6566 9.28235 8.76884C7.99072 9.27226 6.86414 10.1243 6.02802 11.23C5.1983 12.3272 4.68693 13.6317 4.54968 15H19.49V14.998C19.3474 13.625 18.8282 12.3179 17.9893 11.2211C17.1431 10.1148 16.0051 9.2663 14.7033 8.77103C14.4123 8.66033 14.22 8.38137 14.22 8.07004V6.91004L14.2201 6.89511C14.2312 6.34022 14.0472 5.79906 13.7001 5.36597C13.3556 4.93599 12.8721 4.63957 12.3328 4.52751Z" fill="black"/>
<path fill-rule="evenodd" clip-rule="evenodd" d="M11.96 0C12.3742 0 12.71 0.335786 12.71 0.75V3.75C12.71 4.16421 12.3742 4.5 11.96 4.5C11.5458 4.5 11.21 4.16421 11.21 3.75V0.75C11.21 0.335786 11.5458 0 11.96 0Z" fill="black"/>
<path fill-rule="evenodd" clip-rule="evenodd" d="M14.97 15C15.3842 15 15.72 15.3358 15.72 15.75C15.72 16.7445 15.3249 17.6984 14.6217 18.4017C13.9184 19.1049 12.9645 19.5 11.97 19.5C10.9754 19.5 10.0216 19.1049 9.31835 18.4017C8.61509 17.6984 8.21999 16.7446 8.21999 15.75H9.71999C9.71999 16.3467 9.95705 16.919 10.379 17.341C10.801 17.763 11.3733 18 11.97 18C12.5667 18 13.139 17.7629 13.561 17.341C13.9829 16.919 14.22 16.3467 14.22 15.75C14.22 15.3358 14.5558 15 14.97 15Z" fill="black"/>
<path fill-rule="evenodd" clip-rule="evenodd" d="M11.96 21C12.3742 21 12.71 21.3358 12.71 21.75V23.25C12.71 23.6642 12.3742 24 11.96 24C11.5458 24 11.21 23.6642 11.21 23.25V21.75C11.21 21.3358 11.5458 21 11.96 21Z" fill="black"/>
<path fill-rule="evenodd" clip-rule="evenodd" d="M16.794 19.6259C17.1386 19.3962 17.6043 19.4893 17.834 19.8339L19.334 22.0839C19.5638 22.4286 19.4707 22.8942 19.126 23.124C18.7814 23.3538 18.3157 23.2606 18.086 22.916L16.586 20.666C16.3562 20.3213 16.4493 19.8557 16.794 19.6259Z" fill="black"/>
<path fill-rule="evenodd" clip-rule="evenodd" d="M7.12603 19.6259C7.47067 19.8557 7.5638 20.3213 7.33404 20.666L5.83404 22.916C5.60428 23.2606 5.13862 23.3538 4.79398 23.124C4.44933 22.8942 4.3562 22.4286 4.58596 22.0839L6.08596 19.8339C6.31573 19.4893 6.78138 19.3962 7.12603 19.6259Z" fill="black"/>
</svg>
