<svg width="24" height="24" viewBox="0 0 24 24" fill="none" xmlns="http://www.w3.org/2000/svg">
<path fill-rule="evenodd" clip-rule="evenodd" d="M17.9234 22.4425V11.1559C17.7968 11.1399 17.6374 11.1036 17.4663 11.0232C17.1599 10.8792 16.9264 10.6461 16.777 10.3813C16.7142 10.2701 15.4761 8.0737 14.4596 6.00685C13.8982 4.86539 13.5476 3.19788 13.3333 1.92427C13.3011 1.73274 13.2055 1.62043 13.1457 1.57521C12.2313 2.26544 11.4233 3.2249 11.2139 4.52391C10.9213 6.33882 11.081 7.49236 11.2444 8.11115C11.4407 8.85478 11.241 9.57807 10.9186 10.0857C10.5972 10.5919 9.95972 11.1678 9.04094 11.1678H3.31643C2.18648 11.1678 1.46801 12.1605 1.67847 13.0841C1.77546 13.5098 1.8699 13.8712 1.95591 14.1379C2.06933 14.4897 2.06007 14.8559 1.95242 15.1827C1.92188 15.2755 1.89315 15.3622 1.86618 15.4436C1.63382 16.1451 1.53206 16.4523 1.53192 16.7961C1.5318 17.0647 1.60516 17.5122 2.21754 18.3532C2.55192 18.8124 2.62942 19.4121 2.43059 19.9398C2.10024 20.8166 2.39434 21.633 2.82044 22.2779C2.83493 22.2999 2.86496 22.3349 2.94502 22.3707C3.03218 22.4098 3.1662 22.4425 3.33925 22.4425H17.9234ZM3.33925 24C2.63539 24 1.94124 23.7404 1.54877 23.1464C0.998022 22.3128 0.411703 20.9442 1.00005 19.3827C1.0128 19.3489 1.00754 19.309 0.986332 19.2799C-0.400904 17.3749 -0.0560742 16.3469 0.407267 14.9657C0.437743 14.8749 0.468731 14.7825 0.499774 14.6882C0.50679 14.6669 0.50711 14.6445 0.500226 14.6231C0.39382 14.2932 0.287564 13.881 0.186081 13.4356C-0.268853 11.4391 1.30068 9.61034 3.31643 9.61034H9.04094C9.52525 9.61034 9.89044 8.99055 9.76486 8.51499C9.54013 7.66399 9.37751 6.28568 9.70213 4.27201C10.0014 2.41581 11.1529 1.13448 12.2531 0.309205C13.3088 -0.482755 14.6222 0.346927 14.8433 1.66173C15.0581 2.93833 15.3808 4.39731 15.8298 5.31033C16.8252 7.33446 18.0446 9.49802 18.1056 9.60611C18.1075 9.60934 18.1103 9.61034 18.1139 9.61034H21.1718C22.7338 9.61034 24 10.8977 24 12.4857V21.1247C24 22.7127 22.7338 24 21.1718 24H3.33925ZM19.4553 11.1678H21.1718C21.8877 11.1678 22.4681 11.7578 22.4681 12.4857V21.1247C22.4681 21.8525 21.8877 22.4425 21.1718 22.4425H19.4553V11.1678Z" fill="black"/>
</svg>
