<svg width="24" height="24" viewBox="0 0 24 24" fill="none" xmlns="http://www.w3.org/2000/svg">
<path d="M3.31642 9.61034H9.04091C9.52522 9.61034 9.89041 8.99055 9.76483 8.51499C9.54011 7.66399 9.37749 6.28568 9.7021 4.27201C10.0013 2.41581 11.1529 1.13448 12.2531 0.309204C13.3088 -0.482754 14.6221 0.346927 14.8433 1.66173C15.058 2.93833 15.3807 4.39731 15.8297 5.31033C16.833 7.35038 18.0334 9.53207 18.0754 9.60828C18.0756 9.60863 18.0756 9.60876 18.0757 9.60915L18.0759 9.60977C18.0762 9.61081 18.0769 9.61167 18.0779 9.61211C18.0792 9.61268 18.08 9.61395 18.08 9.61536V24H3.33924C2.63538 24 1.94124 23.7404 1.54877 23.1464C0.998019 22.3127 0.411702 20.9442 1.00004 19.3827C1.01279 19.3489 1.00754 19.309 0.986329 19.2799C-0.492148 17.2496 -0.00321865 16.2155 0.499773 14.6882C0.506789 14.6669 0.507109 14.6445 0.500225 14.6231C0.393819 14.2932 0.287564 13.881 0.18608 13.4356C-0.268852 11.4391 1.30068 9.61034 3.31642 9.61034Z" fill="black"/>
<path d="M24 12.4857V21.1247C24 22.7127 22.7338 24 21.1719 24H19.33V9.61034H21.1719C22.7338 9.61034 24 10.8977 24 12.4857Z" fill="#29D305"/>
</svg>
