<svg width="24" height="24" viewBox="0 0 24 24" fill="none" xmlns="http://www.w3.org/2000/svg">
<path d="M2.08198 23.4575C2.44718 23.8518 2.98475 24 3.52221 24L19 24L21.2308 24C22.7602 24 24 22.7602 24 21.2308V12.9106C24 11.3812 22.7602 10.1413 21.2308 10.1413H18.2356C18.2325 10.1413 18.231 10.1416 18.2291 10.1392C18.1662 10.0601 16.354 7.77001 16 6C15.7542 4.77099 15.4359 3.3003 15.1758 2.12258C14.9232 0.9792 13.7393 0.322495 12.7323 0.920103C11.3677 1.73 9.73702 3.10455 9.4 5.16091C9.10736 6.94645 9.24291 8.17502 9.45858 8.96517C9.59047 9.44839 9.19642 10.1413 8.69552 10.1413H3.74733C1.77359 10.1413 0.236748 11.9026 0.682204 13.8255C0.781573 14.2544 0.885615 14.6514 0.989804 14.9692C0.996545 14.9897 0.996309 15.0111 0.989451 15.0316C0.49551 16.5096 -0.0805169 17.991 1.36595 19.9542C1.38665 19.9823 1.39161 20.0207 1.37911 20.0533C0.770365 21.6407 1.49055 22.8188 2.08198 23.4575Z" fill="black"/>
</svg>
