<svg width="24" height="24" viewBox="0 0 24 24" fill="none" xmlns="http://www.w3.org/2000/svg">
<path fill-rule="evenodd" clip-rule="evenodd" d="M18.75 22.5V11.6413H18.2356C18.2583 11.6413 18.2607 11.6413 18.2545 11.6413C18.2506 11.6413 18.2434 11.6413 18.2356 11.6413C18.2232 11.6413 18.2094 11.6411 18.2045 11.641C18.1634 11.6402 18.0451 11.6371 17.8983 11.6036C17.7344 11.5662 17.5602 11.4974 17.3933 11.3852C17.2351 11.2788 17.1256 11.1616 17.0551 11.0729C17.0059 11.011 16.4998 10.3707 15.9538 9.50194C15.4327 8.67295 14.7629 7.46323 14.5291 6.29415C14.2863 5.08005 13.9706 3.62098 13.7111 2.44606C13.6782 2.29717 13.5959 2.22542 13.5528 2.20333C13.5367 2.19507 13.5291 2.19478 13.5291 2.19478L13.5303 2.19482L13.5331 2.19452C13.5331 2.19452 13.5225 2.19539 13.4979 2.21002C12.2462 2.95283 11.107 4.01977 10.8803 5.40349C10.6178 7.00459 10.7537 8.01344 10.9056 8.57017C11.1087 9.31403 10.8917 10.0362 10.5897 10.524C10.2953 10.9995 9.66356 11.6413 8.69552 11.6413H3.74733C2.64093 11.6413 1.93743 12.5974 2.1435 13.4869C2.23847 13.8968 2.33094 14.245 2.41516 14.5018C2.52622 14.8406 2.51715 15.1933 2.41175 15.5081C2.38184 15.5974 2.35371 15.6809 2.3273 15.7593C2.09978 16.4349 2.00014 16.7308 2 17.0619C1.99989 17.3206 2.07172 17.7516 2.67134 18.5615C2.99875 19.0038 3.07464 19.5814 2.87996 20.0896C2.55649 20.9341 2.84446 21.7203 3.26168 22.3414C3.27587 22.3626 3.30527 22.3963 3.38367 22.4308C3.46901 22.4684 3.60023 22.5 3.76969 22.5H18.75ZM3.76969 24C3.08048 24 2.4008 23.75 2.01651 23.1778C1.47723 22.375 0.903126 21.057 1.47921 19.5531C1.4917 19.5205 1.48655 19.4821 1.46578 19.4541C0.107448 17.6193 0.445094 16.6293 0.898782 15.2991C0.928623 15.2116 0.958966 15.1226 0.989362 15.0318C0.996232 15.0113 0.996545 14.9897 0.989804 14.9691C0.885615 14.6513 0.781573 14.2544 0.682204 13.8254C0.236748 11.9026 1.77359 10.1413 3.74733 10.1413H8.69552C9.19642 10.1413 9.59047 9.44837 9.45858 8.96515C9.24291 8.17499 9.10736 6.94643 9.4 5.16088C9.73702 3.10453 11.3677 1.72997 12.7323 0.920081C13.7393 0.322473 14.9232 0.979178 15.1758 2.12256C15.4359 3.30028 15.7542 4.77097 16 5.99998C16.354 7.76999 18.1662 10.0601 18.2291 10.1392C18.2308 10.1414 18.2322 10.1413 18.2347 10.1413L21.2308 10.1413C22.7602 10.1413 24 11.3811 24 12.9105V21.2307C24 22.7602 22.7602 24 21.2308 24H3.76969ZM20.25 11.6413H21.2308C21.9317 11.6413 22.5 12.2096 22.5 12.9105V21.2307C22.5 21.9317 21.9317 22.5 21.2308 22.5H20.25V11.6413Z" fill="black"/>
</svg>
