<svg width="24" height="24" viewBox="0 0 24 24" fill="none" xmlns="http://www.w3.org/2000/svg">
<path d="M18.25 23.25V10.8913H18.2356C18.2484 10.8913 18.248 10.8913 18.243 10.8913C18.241 10.8913 18.2384 10.8913 18.2356 10.8913C18.2291 10.8913 18.2217 10.8913 18.219 10.8912C18.1982 10.8908 18.1388 10.8892 18.0651 10.8724C17.9829 10.8536 17.8956 10.8192 17.8119 10.7629C17.7326 10.7095 17.6776 10.6507 17.6421 10.6061C17.6018 10.5554 17.1144 9.93907 16.5887 9.10283C16.0756 8.2865 15.47 7.17413 15.2646 6.14709C15.0203 4.92553 14.7032 3.46065 14.4434 2.28433C14.2767 1.52948 13.5901 1.28316 13.1151 1.56507C11.8069 2.34142 10.422 3.56217 10.1401 5.28221C9.8626 6.97553 9.9983 8.09424 10.1821 8.76768C10.3166 9.26042 10.1754 9.76852 9.95204 10.1292C9.73253 10.4838 9.30476 10.8913 8.69552 10.8913H3.74733C2.20726 10.8913 1.08709 12.25 1.41285 13.6562C1.51002 14.0756 1.60828 14.4482 1.70248 14.7355C1.76138 14.9152 1.75669 15.1023 1.70055 15.27C1.66894 15.3644 1.6385 15.4542 1.60939 15.5401C1.39279 16.1794 1.2502 16.6002 1.25 17.0616C1.2498 17.5296 1.40683 18.114 2.06856 19.0078C2.24265 19.243 2.28317 19.551 2.17959 19.8214C1.72981 20.9955 2.16084 22.0477 2.63909 22.7597C2.8403 23.0592 3.24 23.25 3.76969 23.25H18.25ZM19.75 23.25H21.2308C22.346 23.25 23.25 22.346 23.25 21.2308V12.9106C23.25 11.7954 22.346 10.8913 21.2308 10.8913H19.75V23.25Z" stroke="black" stroke-width="1.5"/>
</svg>
