<svg width="25" height="25" viewBox="0 0 25 25" fill="none" xmlns="http://www.w3.org/2000/svg">
<path d="M19.6557 0.985107C18.2392 0.985107 16.8808 1.54749 15.8792 2.54854L13.6589 4.76771L13.6573 4.76935C13.1297 5.29935 12.72 5.93467 12.4549 6.63377C12.1898 7.33288 12.0753 8.08003 12.1189 8.82639C12.1479 9.32234 12.5736 9.70091 13.0698 9.67196C13.566 9.64301 13.9448 9.21749 13.9158 8.72154C13.887 8.2279 13.9627 7.73373 14.1381 7.27134C14.3133 6.80929 14.584 6.38937 14.9326 6.03898L14.9333 6.03821L17.152 3.82067C17.816 3.15701 18.7166 2.78416 19.6557 2.78416C20.5947 2.78416 21.4953 3.157 22.1593 3.82067C22.8233 4.48433 23.1964 5.38445 23.1964 6.32301C23.1964 7.26157 22.8233 8.16169 22.1593 8.82535L19.9396 11.044C19.5893 11.3935 19.1691 11.6651 18.7064 11.841C18.2438 12.0169 17.7493 12.0931 17.2551 12.0647C16.7589 12.0362 16.3335 12.4151 16.3049 12.9111C16.2764 13.4071 16.6555 13.8323 17.1518 13.8608C17.899 13.9038 18.6469 13.7885 19.3465 13.5225C20.0461 13.2564 20.6821 12.8452 21.2118 12.3166L23.4321 10.0975C24.4337 9.09642 24.9964 7.73871 24.9964 6.32301C24.9964 4.90731 24.4337 3.54959 23.4321 2.54854C22.4306 1.54749 21.0721 0.985107 19.6557 0.985107Z" fill="black"/>
<path d="M18.812 7.17149C19.1635 7.52278 19.1635 8.09233 18.812 8.44362L8.45046 18.7998C8.09899 19.151 7.52914 19.151 7.17767 18.7998C6.82619 18.4485 6.82619 17.8789 7.17767 17.5276L17.5392 7.17149C17.8907 6.8202 18.4606 6.8202 18.812 7.17149Z" fill="black"/>
<path d="M6.64253 12.4477C7.34214 12.1816 8.09009 12.0664 8.83738 12.1094C9.33362 12.138 9.71272 12.5632 9.68413 13.0592C9.65553 13.5552 9.23008 13.9341 8.73385 13.9055C8.23973 13.877 7.74517 13.9532 7.28258 14.1291C6.82012 14.305 6.40005 14.5765 6.04986 14.9259L3.82972 17.1449C3.16571 17.8085 2.79268 18.7086 2.79268 19.6472C2.79268 20.1119 2.88426 20.5721 3.0622 21.0015C3.24013 21.4308 3.50094 21.8209 3.82972 22.1495C4.15851 22.4782 4.54883 22.7388 4.97841 22.9167C5.40799 23.0945 5.86841 23.1861 6.33338 23.1861C7.27243 23.1861 8.17302 22.8132 8.83703 22.1495L11.0569 19.9309C11.4064 19.5809 11.6784 19.1607 11.8543 18.6985C12.0303 18.2362 12.1066 17.7419 12.0781 17.248C12.0495 16.752 12.4286 16.3268 12.9249 16.2982C13.4211 16.2696 13.8465 16.6485 13.8751 17.1445C13.9182 17.8914 13.8029 18.639 13.5367 19.3382C13.2705 20.0375 12.8595 20.6726 12.3306 21.202L10.1098 23.4217C9.10825 24.4227 7.74982 24.9851 6.33338 24.9851C5.63203 24.9851 4.93754 24.847 4.28958 24.5788C3.64162 24.3105 3.05286 23.9173 2.55693 23.4217C2.061 22.926 1.66761 22.3376 1.39921 21.6899C1.13082 21.0423 0.992676 20.3482 0.992676 19.6472C0.992676 18.2315 1.55536 16.8738 2.55693 15.8727L4.77727 13.6536C5.30696 13.125 5.94292 12.7137 6.64253 12.4477Z" fill="black"/>
</svg>
