<svg width="24" height="24" viewBox="0 0 24 24" fill="none" xmlns="http://www.w3.org/2000/svg">
<path d="M18.663 0C17.2466 0 15.8881 0.562384 14.8866 1.56343L12.6662 3.78261L12.6646 3.78424C12.137 4.31424 11.7273 4.94956 11.4622 5.64867C11.1971 6.34777 11.0826 7.09492 11.1262 7.84128C11.1552 8.33723 11.5809 8.71581 12.0771 8.68685C12.5734 8.6579 12.9521 8.23238 12.9232 7.73643C12.8943 7.24279 12.9701 6.74862 13.1454 6.28623C13.3206 5.82418 13.5913 5.40426 13.9399 5.05387L13.9406 5.0531L16.1594 2.83556C16.8234 2.1719 17.724 1.79906 18.663 1.79906C19.6021 1.79906 20.5027 2.1719 21.1667 2.83556C21.8307 3.49922 22.2037 4.39934 22.2037 5.3379C22.2037 6.27646 21.8307 7.17658 21.1667 7.84024L18.9469 10.0589C18.5966 10.4084 18.1764 10.68 17.7138 10.8559C17.2512 11.0318 16.7566 11.108 16.2624 11.0796C15.7662 11.0511 15.3408 11.43 15.3123 11.926C15.2837 12.422 15.6629 12.8472 16.1591 12.8757C16.9063 12.9187 17.6543 12.8034 18.3538 12.5373C19.0534 12.2713 19.6894 11.8601 20.2191 11.3315L22.4395 9.11236C23.441 8.11131 24 6.7536 24 5.3379C24 3.9222 23.441 2.56449 22.4395 1.56343C21.4379 0.562385 20.0795 0 18.663 0Z" fill="black"/>
<path d="M17.8194 6.18638C18.1708 6.53767 18.1708 7.10722 17.8194 7.45851L7.45778 17.8146C7.10631 18.1659 6.53646 18.1659 6.18499 17.8146C5.83352 17.4634 5.83352 16.8938 6.18499 16.5425L16.5466 6.18638C16.898 5.8351 17.4679 5.8351 17.8194 6.18638Z" fill="black"/>
<path d="M5.64985 11.4626C6.34946 11.1965 7.09742 11.0813 7.84471 11.1243C8.34094 11.1529 8.72004 11.5781 8.69145 12.0741C8.66286 12.5701 8.2374 12.949 7.74117 12.9204C7.24705 12.8919 6.7525 12.9681 6.28991 13.144C5.82745 13.3199 5.40737 13.5914 5.05719 13.9408L2.83705 16.1598C2.17304 16.8234 1.8 17.7235 1.8 18.6621C1.8 19.1268 1.89158 19.587 2.06952 20.0164C2.24746 20.4457 2.50826 20.8358 2.83705 21.1644C3.16583 21.4931 3.55616 21.7537 3.98573 21.9316C4.41531 22.1094 4.87573 22.2009 5.3407 22.2009C6.27975 22.2009 7.18035 21.8281 7.84436 21.1644L10.0642 18.9458C10.4138 18.5958 10.6857 18.1756 10.8617 17.7134C11.0376 17.251 11.1139 16.7567 11.0854 16.2629C11.0568 15.7669 11.4359 15.3417 11.9322 15.3131C12.4284 15.2845 12.8539 15.6634 12.8825 16.1594C12.9255 16.9063 12.8102 17.6539 12.544 18.3531C12.2778 19.0524 11.8669 19.6875 11.338 20.2169L9.11715 22.4366C8.11557 23.4376 6.75714 24 5.3407 24C4.63935 24 3.94487 23.8619 3.2969 23.5937C2.64894 23.3254 2.06019 22.9322 1.56426 22.4366C1.06833 21.9409 0.674932 21.3525 0.406537 20.7048C0.138141 20.0572 0 19.3631 0 18.6621C0 17.2464 0.562679 15.8887 1.56426 14.8876L3.78459 12.6685C4.31429 12.1399 4.95024 11.7286 5.64985 11.4626Z" fill="black"/>
</svg>
