<svg width="24" height="24" viewBox="0 0 24 24" fill="none" xmlns="http://www.w3.org/2000/svg">
<path fill-rule="evenodd" clip-rule="evenodd" d="M2.25 1.49991C1.83579 1.49991 1.5 1.83567 1.5 2.24986V3.74977C1.5 4.16396 1.83579 4.49973 2.25 4.49973H21.75C22.1642 4.49973 22.5 4.16396 22.5 3.74977V2.24986C22.5 1.83567 22.1642 1.49991 21.75 1.49991H2.25ZM0 2.24986C0 1.0073 1.00736 0 2.25 0H21.75C22.9926 0 24 1.0073 24 2.24986V3.74977C24 4.99234 22.9926 5.99963 21.75 5.99963H2.25C1.00736 5.99963 0 4.99234 0 3.74977V2.24986Z" fill="black"/>
<path fill-rule="evenodd" clip-rule="evenodd" d="M2.25 10.5008C1.83579 10.5008 1.5 10.8366 1.5 11.2508V12.7507C1.5 13.1649 1.83579 13.5006 2.25 13.5006H21.75C22.1642 13.5006 22.5 13.1649 22.5 12.7507V11.2508C22.5 10.8366 22.1642 10.5008 21.75 10.5008H2.25ZM0 11.2508C0 10.0082 1.00736 9.00092 2.25 9.00092H21.75C22.9926 9.00092 24 10.0082 24 11.2508V12.7507C24 13.9933 22.9926 15.0005 21.75 15.0005H2.25C1.00736 15.0005 0 13.9933 0 12.7507V11.2508Z" fill="black"/>
<path fill-rule="evenodd" clip-rule="evenodd" d="M2.25 19.5003C1.83579 19.5003 1.5 19.836 1.5 20.2502V21.7501C1.5 22.1643 1.83579 22.5001 2.25 22.5001H21.75C22.1642 22.5001 22.5 22.1643 22.5 21.7501V20.2502C22.5 19.836 22.1642 19.5003 21.75 19.5003H2.25ZM0 20.2502C0 19.0077 1.00736 18.0004 2.25 18.0004H21.75C22.9926 18.0004 24 19.0077 24 20.2502V21.7501C24 22.9927 22.9926 24 21.75 24H2.25C1.00736 24 0 22.9927 0 21.7501V20.2502Z" fill="black"/>
</svg>
