<svg width="24" height="24" viewBox="0 0 24 24" fill="none" xmlns="http://www.w3.org/2000/svg">
<g clip-path="url(#clip0)">
<path fill-rule="evenodd" clip-rule="evenodd" d="M2.25 1.49536C1.83579 1.49536 1.5 1.83115 1.5 2.24536V3.74536C1.5 4.15957 1.83579 4.49536 2.25 4.49536H21.75C22.1642 4.49536 22.5 4.15957 22.5 3.74536V2.24536C22.5 1.83115 22.1642 1.49536 21.75 1.49536H2.25ZM0 2.24536C0 1.00272 1.00736 -0.00463867 2.25 -0.00463867H21.75C22.9926 -0.00463867 24 1.00272 24 2.24536V3.74536C24 4.988 22.9926 5.99536 21.75 5.99536H2.25C1.00736 5.99536 0 4.988 0 3.74536V2.24536Z" fill="#29D305"/>
<path fill-rule="evenodd" clip-rule="evenodd" d="M2.25 10.4968C1.83579 10.4968 1.5 10.8326 1.5 11.2468V12.7468C1.5 13.161 1.83579 13.4968 2.25 13.4968H21.75C22.1642 13.4968 22.5 13.161 22.5 12.7468V11.2468C22.5 10.8326 22.1642 10.4968 21.75 10.4968H2.25ZM0 11.2468C0 10.0042 1.00736 8.99683 2.25 8.99683H21.75C22.9926 8.99683 24 10.0042 24 11.2468V12.7468C24 13.9895 22.9926 14.9968 21.75 14.9968H2.25C1.00736 14.9968 0 13.9895 0 12.7468V11.2468Z" fill="black"/>
<path fill-rule="evenodd" clip-rule="evenodd" d="M2.25 19.4968C1.83579 19.4968 1.5 19.8326 1.5 20.2468V21.7468C1.5 22.161 1.83579 22.4968 2.25 22.4968H21.75C22.1642 22.4968 22.5 22.161 22.5 21.7468V20.2468C22.5 19.8326 22.1642 19.4968 21.75 19.4968H2.25ZM0 20.2468C0 19.0042 1.00736 17.9968 2.25 17.9968H21.75C22.9926 17.9968 24 19.0042 24 20.2468V21.7468C24 22.9895 22.9926 23.9968 21.75 23.9968H2.25C1.00736 23.9968 0 22.9895 0 21.7468V20.2468Z" fill="black"/>
</g>
<defs>
<clipPath id="clip0">
<rect width="24" height="24" fill="white"/>
</clipPath>
</defs>
</svg>
