<svg width="24" height="25" viewBox="0 0 24 25" fill="none" xmlns="http://www.w3.org/2000/svg">
<path fill-rule="evenodd" clip-rule="evenodd" d="M2.25 2.49542C1.83579 2.49542 1.5 2.83121 1.5 3.24542V4.74542C1.5 5.15964 1.83579 5.49542 2.25 5.49542H21.75C22.1642 5.49542 22.5 5.15964 22.5 4.74542V3.24542C22.5 2.83121 22.1642 2.49542 21.75 2.49542H2.25ZM0 3.24542C0 2.00278 1.00736 0.995422 2.25 0.995422H21.75C22.9926 0.995422 24 2.00278 24 3.24542V4.74542C24 5.98806 22.9926 6.99542 21.75 6.99542H2.25C1.00736 6.99542 0 5.98806 0 4.74542V3.24542Z" fill="#29D305"/>
<path fill-rule="evenodd" clip-rule="evenodd" d="M2.25 11.4969C1.83579 11.4969 1.5 11.8327 1.5 12.2469V13.7469C1.5 14.1611 1.83579 14.4969 2.25 14.4969H21.75C22.1642 14.4969 22.5 14.1611 22.5 13.7469V12.2469C22.5 11.8327 22.1642 11.4969 21.75 11.4969H2.25ZM0 12.2469C0 11.0042 1.00736 9.99689 2.25 9.99689H21.75C22.9926 9.99689 24 11.0042 24 12.2469V13.7469C24 14.9895 22.9926 15.9969 21.75 15.9969H2.25C1.00736 15.9969 0 14.9895 0 13.7469V12.2469Z" fill="black"/>
<path fill-rule="evenodd" clip-rule="evenodd" d="M2.25 20.4969C1.83579 20.4969 1.5 20.8327 1.5 21.2469V22.7469C1.5 23.1611 1.83579 23.4969 2.25 23.4969H21.75C22.1642 23.4969 22.5 23.1611 22.5 22.7469V21.2469C22.5 20.8327 22.1642 20.4969 21.75 20.4969H2.25ZM0 21.2469C0 20.0042 1.00736 18.9969 2.25 18.9969H21.75C22.9926 18.9969 24 20.0042 24 21.2469V22.7469C24 23.9895 22.9926 24.9969 21.75 24.9969H2.25C1.00736 24.9969 0 23.9895 0 22.7469V21.2469Z" fill="black"/>
</svg>
