<svg width="24" height="24" viewBox="0 0 24 24" fill="none" xmlns="http://www.w3.org/2000/svg">
<path d="M2.0339 5.0678C3.15719 5.0678 4.0678 4.15719 4.0678 3.0339C4.0678 1.91061 3.15719 1 2.0339 1C0.910607 1 0 1.91061 0 3.0339C0 4.15719 0.910607 5.0678 2.0339 5.0678Z" fill="black"/>
<path d="M4.0678 12.1865C4.0678 13.3097 3.15719 14.2204 2.0339 14.2204C0.910607 14.2204 0 13.3097 0 12.1865C0 11.0632 0.910607 10.1526 2.0339 10.1526C3.15719 10.1526 4.0678 11.0632 4.0678 12.1865Z" fill="black"/>
<path d="M4.0678 21.339C4.0678 22.4623 3.15719 23.3729 2.0339 23.3729C0.910607 23.3729 0 22.4623 0 21.339C0 20.2157 0.910607 19.3051 2.0339 19.3051C3.15719 19.3051 4.0678 20.2157 4.0678 21.339Z" fill="black"/>
<path d="M7.62711 1.91525C7.0093 1.91525 6.50847 2.41609 6.50847 3.0339C6.50847 3.65171 7.0093 4.15254 7.62711 4.15254H22.8814C23.4992 4.15254 24 3.65171 24 3.0339C24 2.41609 23.4992 1.91525 22.8814 1.91525H7.62711Z" fill="black"/>
<path d="M6.50847 12.1864C6.50847 11.5686 7.0093 11.0678 7.62711 11.0678H22.8814C23.4992 11.0678 24 11.5686 24 12.1864C24 12.8042 23.4992 13.3051 22.8814 13.3051H7.62711C7.0093 13.3051 6.50847 12.8042 6.50847 12.1864Z" fill="black"/>
<path d="M7.62711 20.2203C7.0093 20.2203 6.50847 20.7212 6.50847 21.339C6.50847 21.9568 7.0093 22.4576 7.62711 22.4576H22.8814C23.4992 22.4576 24 21.9568 24 21.339C24 20.7212 23.4992 20.2203 22.8814 20.2203H7.62711Z" fill="black"/>
</svg>
