<svg width="24" height="24" viewBox="0 0 24 24" fill="none" xmlns="http://www.w3.org/2000/svg">
<path fill-rule="evenodd" clip-rule="evenodd" d="M2.25 1.5C1.83579 1.5 1.5 1.83579 1.5 2.25V3.75C1.5 4.16421 1.83579 4.5 2.25 4.5H21.75C22.1642 4.5 22.5 4.16421 22.5 3.75V2.25C22.5 1.83579 22.1642 1.5 21.75 1.5H2.25ZM0 2.25C0 1.00736 1.00736 0 2.25 0H21.75C22.9926 0 24 1.00736 24 2.25V3.75C24 4.99264 22.9926 6 21.75 6H2.25C1.00736 6 0 4.99264 0 3.75V2.25Z" fill="#29D305"/>
<path fill-rule="evenodd" clip-rule="evenodd" d="M2.25 10.4969C1.83579 10.4969 1.5 10.8327 1.5 11.2469V12.7469C1.5 13.1611 1.83579 13.4969 2.25 13.4969H21.75C22.1642 13.4969 22.5 13.1611 22.5 12.7469V11.2469C22.5 10.8327 22.1642 10.4969 21.75 10.4969H2.25ZM0 11.2469C0 10.0042 1.00736 8.99689 2.25 8.99689H21.75C22.9926 8.99689 24 10.0042 24 11.2469V12.7469C24 13.9895 22.9926 14.9969 21.75 14.9969H2.25C1.00736 14.9969 0 13.9895 0 12.7469V11.2469Z" fill="black"/>
<path fill-rule="evenodd" clip-rule="evenodd" d="M2.25 19.4969C1.83579 19.4969 1.5 19.8327 1.5 20.2469V21.7469C1.5 22.1611 1.83579 22.4969 2.25 22.4969H21.75C22.1642 22.4969 22.5 22.1611 22.5 21.7469V20.2469C22.5 19.8327 22.1642 19.4969 21.75 19.4969H2.25ZM0 20.2469C0 19.0042 1.00736 17.9969 2.25 17.9969H21.75C22.9926 17.9969 24 19.0042 24 20.2469V21.7469C24 22.9895 22.9926 23.9969 21.75 23.9969H2.25C1.00736 23.9969 0 22.9895 0 21.7469V20.2469Z" fill="black"/>
</svg>
