<svg width="24" height="24" fill="none" xmlns="http://www.w3.org/2000/svg"><g clip-path="url(#clip0)" fill-rule="evenodd" clip-rule="evenodd" fill="#000"><path d="M2.25 1.495a.75.75 0 00-.75.75v1.5c0 .415.336.75.75.75h19.5a.75.75 0 00.75-.75v-1.5a.75.75 0 00-.75-.75H2.25zM0 2.245a2.25 2.25 0 012.25-2.25h19.5A2.25 2.25 0 0124 2.245v1.5a2.25 2.25 0 01-2.25 2.25H2.25A2.25 2.25 0 010 3.745v-1.5zM2.25 10.497a.75.75 0 00-.75.75v1.5c0 .414.336.75.75.75h19.5a.75.75 0 00.75-.75v-1.5a.75.75 0 00-.75-.75H2.25zm-2.25.75a2.25 2.25 0 012.25-2.25h19.5a2.25 2.25 0 012.25 2.25v1.5a2.25 2.25 0 01-2.25 2.25H2.25A2.25 2.25 0 010 12.747v-1.5zM2.25 19.497a.75.75 0 00-.75.75v1.5c0 .414.336.75.75.75h19.5a.75.75 0 00.75-.75v-1.5a.75.75 0 00-.75-.75H2.25zm-2.25.75a2.25 2.25 0 012.25-2.25h19.5a2.25 2.25 0 012.25 2.25v1.5a2.25 2.25 0 01-2.25 2.25H2.25A2.25 2.25 0 010 21.747v-1.5z"/></g><defs><clipPath id="clip0"><path fill="#fff" d="M0 0h24v24H0z"/></clipPath></defs></svg>