<svg width="24" height="24" viewBox="0 0 24 24" fill="none" xmlns="http://www.w3.org/2000/svg">
<path fill-rule="evenodd" clip-rule="evenodd" d="M4 15.998C6.20914 15.998 8 14.2071 8 11.998C8 9.78885 6.20914 7.99799 4 7.99799C1.79086 7.99799 0 9.78885 0 11.998C0 14.2071 1.79086 15.998 4 15.998ZM14 14.998C15.6569 14.998 17 13.6548 17 11.998C17 10.3411 15.6569 8.99799 14 8.99799C12.3431 8.99799 11 10.3411 11 11.998C11 13.6548 12.3431 14.998 14 14.998ZM24 11.998C24 13.1026 23.1046 13.998 22 13.998C20.8954 13.998 20 13.1026 20 11.998C20 10.8934 20.8954 9.99799 22 9.99799C23.1046 9.99799 24 10.8934 24 11.998Z" fill="black"/>
</svg>
