<svg width="24" height="24" viewBox="0 0 24 24" fill="none" xmlns="http://www.w3.org/2000/svg">
<path fill-rule="evenodd" clip-rule="evenodd" d="M13.6774 5.82974L11.2023 7.87774C11.0075 8.03894 10.7445 8.09112 10.5029 8.01652L6.90634 6.90607L8.01679 10.5026C8.09139 10.7443 8.03921 11.0072 7.87799 11.202L5.82903 13.6782L9.5106 13.5772C9.79084 13.5695 10.052 13.7187 10.1876 13.9641L11.9217 17.1018L13.167 13.6212C13.2427 13.4098 13.4091 13.2434 13.6205 13.1677L17.102 11.9221L13.9635 10.1884C13.7181 10.0528 13.5688 9.79163 13.5764 9.51133L13.6774 5.82974ZM13.8025 3.99609C14.035 3.95918 14.2733 3.99125 14.4877 4.08833C14.7022 4.18541 14.8835 4.34324 15.0092 4.54229C15.1349 4.74134 15.1995 4.97288 15.195 5.20826L15.1949 5.21446L15.0884 9.09614L18.3798 10.9144C18.3916 10.9209 18.4032 10.9277 18.4146 10.9349C18.6132 11.059 18.7721 11.2373 18.8726 11.4488C18.9731 11.6603 19.011 11.8961 18.9818 12.1285C18.9526 12.3608 18.8575 12.5799 18.7078 12.76C18.5615 12.9358 18.3691 13.0672 18.1523 13.1395L14.4598 14.4606L13.139 18.1524C13.067 18.3692 12.9359 18.5617 12.7603 18.7081C12.5803 18.8582 12.361 18.9535 12.1284 18.9828C11.8959 19.0121 11.6598 18.9741 11.4482 18.8733C11.2365 18.7725 11.0582 18.6132 10.9344 18.4141C10.9276 18.4032 10.921 18.392 10.9148 18.3807L9.09552 15.0891L5.20753 15.1958C4.97215 15.2003 4.74061 15.1357 4.54156 15.01C4.3425 14.8842 4.18468 14.7029 4.0876 14.4885C3.99052 14.274 3.95845 14.0358 3.99536 13.8032C4.03108 13.5782 4.12992 13.368 4.28018 13.1971L6.464 10.558L5.32754 6.87716C5.32469 6.86791 5.32201 6.8586 5.31952 6.84925C5.26301 6.63746 5.26318 6.41454 5.32003 6.20284C5.37687 5.99114 5.48838 5.79811 5.64338 5.64311C5.79838 5.48812 5.99141 5.3766 6.2031 5.31976C6.4148 5.26292 6.63773 5.26274 6.84952 5.31925C6.85887 5.32175 6.86817 5.32442 6.87742 5.32728L10.5582 6.46374L13.1964 4.2809C13.3673 4.13065 13.5774 4.03181 13.8025 3.99609Z" fill="black"/>
<path fill-rule="evenodd" clip-rule="evenodd" d="M13.3427 13.3427C13.6356 13.0498 14.1105 13.0498 14.4034 13.3427L23.7804 22.7197C24.0733 23.0126 24.0733 23.4875 23.7804 23.7804C23.4875 24.0733 23.0126 24.0733 22.7197 23.7804L13.3427 14.4034C13.0498 14.1105 13.0498 13.6356 13.3427 13.3427Z" fill="black"/>
<path fill-rule="evenodd" clip-rule="evenodd" d="M17.25 2.25C17.25 1.83579 17.5858 1.5 18 1.5H21C21.4142 1.5 21.75 1.83579 21.75 2.25C21.75 2.66421 21.4142 3 21 3H18C17.5858 3 17.25 2.66421 17.25 2.25Z" fill="black"/>
<path fill-rule="evenodd" clip-rule="evenodd" d="M19.5 0C19.9142 0 20.25 0.335786 20.25 0.75V3.75C20.25 4.16421 19.9142 4.5 19.5 4.5C19.0858 4.5 18.75 4.16421 18.75 3.75V0.75C18.75 0.335786 19.0858 0 19.5 0Z" fill="black"/>
<path fill-rule="evenodd" clip-rule="evenodd" d="M1.5 20.25C1.5 19.8358 1.83579 19.5 2.25 19.5H5.25C5.66421 19.5 6 19.8358 6 20.25C6 20.6642 5.66421 21 5.25 21H2.25C1.83579 21 1.5 20.6642 1.5 20.25Z" fill="black"/>
<path fill-rule="evenodd" clip-rule="evenodd" d="M3.75 18C4.16421 18 4.5 18.3358 4.5 18.75V21.75C4.5 22.1642 4.16421 22.5 3.75 22.5C3.33579 22.5 3 22.1642 3 21.75V18.75C3 18.3358 3.33579 18 3.75 18Z" fill="black"/>
<path fill-rule="evenodd" clip-rule="evenodd" d="M9 0C9.41421 0 9.75 0.335786 9.75 0.75V3C9.75 3.41421 9.41421 3.75 9 3.75C8.58579 3.75 8.25 3.41421 8.25 3V0.75C8.25 0.335786 8.58579 0 9 0Z" fill="black"/>
<path fill-rule="evenodd" clip-rule="evenodd" d="M0 9.75C0 9.33579 0.335786 9 0.75 9H3C3.41421 9 3.75 9.33579 3.75 9.75C3.75 10.1642 3.41421 10.5 3 10.5H0.75C0.335786 10.5 0 10.1642 0 9.75Z" fill="black"/>
</svg>
