<svg width="24" height="24" fill="none" xmlns="http://www.w3.org/2000/svg"><path d="M2.4 20.748c-1.324 0-2.4-1.07-2.4-2.386V5.635a2.346 2.346 0 01.531-1.497l.025-.029A2.393 2.393 0 012.4 3.25h19.2a2.4 2.4 0 011.874.895l.02.028c.331.423.506.928.506 1.463v12.727a2.396 2.396 0 01-2.4 2.386H2.4zm-.8-2.386c0 .439.358.795.8.795h19.2c.442 0 .8-.356.8-.795V5.966L14.639 11.9a4.365 4.365 0 01-2.639.892c-.95 0-1.888-.317-2.639-.892L1.6 5.966v12.396zm8.736-7.722a2.747 2.747 0 003.327 0l7.585-5.802H2.751l7.585 5.802z" fill="#000"/></svg>