<svg width="24" height="24" viewBox="0 0 24 24" fill="none" xmlns="http://www.w3.org/2000/svg">
<g clip-path="url(#clip0)">
<path d="M2.25 17.63C1.009 17.63 0 16.621 0 15.38V3.38C0 2.139 1.009 1.13 2.25 1.13H20.25C21.491 1.13 22.5 2.139 22.5 3.38V12.38C22.5 12.794 22.164 13.13 21.75 13.13C21.336 13.13 21 12.794 21 12.38V3.633L13.75 9.176C13.058 9.796 12.171 10.136 11.25 10.136C10.329 10.136 9.442 9.795 8.75 9.176L1.5 3.635V15.38C1.5 15.794 1.836 16.13 2.25 16.13H8.25C8.664 16.13 9 16.466 9 16.88C9 17.294 8.664 17.63 8.25 17.63H2.25ZM9.685 8.00301C9.702 8.017 9.718 8.03 9.734 8.044C10.153 8.425 10.691 8.635 11.25 8.635C11.809 8.635 12.347 8.425 12.766 8.044C12.78 8.031 12.797 8.017 12.814 8.004L19.844 2.63H2.655L9.685 8.00301Z" fill="black"/>
<path d="M17.25 22.88C17.134 22.88 17.017 22.852 16.914 22.801C16.659 22.673 16.5 22.416 16.5 22.13V20.63H12.75C11.509 20.63 10.5 19.621 10.5 18.38V16.88C10.5 15.639 11.509 14.63 12.75 14.63H16.5V13.13C16.5 12.844 16.659 12.587 16.915 12.459C17.019 12.407 17.134 12.38 17.25 12.38C17.411 12.38 17.571 12.433 17.7 12.53L23.701 17.03C23.889 17.171 24.001 17.395 24.001 17.63C24.001 17.865 23.889 18.089 23.701 18.23L17.701 22.73C17.571 22.827 17.411 22.88 17.25 22.88ZM12.75 16.13C12.336 16.13 12 16.466 12 16.88V18.38C12 18.794 12.336 19.13 12.75 19.13H17.25C17.664 19.13 18 19.466 18 19.88V20.63L22 17.63L18 14.63V15.38C18 15.794 17.664 16.13 17.25 16.13H12.75Z" fill="#29D305"/>
</g>
<defs>
<clipPath id="clip0">
<rect width="24" height="24" fill="white"/>
</clipPath>
</defs>
</svg>
