<svg width="27" height="24" fill="none" xmlns="http://www.w3.org/2000/svg"><g clip-path="url(#clip0)"><path d="M2.438 17.63C1.094 17.63 0 16.621 0 15.38v-12c0-1.241 1.094-2.25 2.438-2.25h19.508c1.345 0 2.439 1.009 2.439 2.25v9c0 .414-.365.75-.813.75-.449 0-.813-.336-.813-.75V3.633l-7.857 5.543c-.75.62-1.711.96-2.71.96-.998 0-1.96-.341-2.71-.96L1.627 3.635V15.38c0 .414.364.75.812.75h6.503c.449 0 .813.336.813.75s-.364.75-.813.75H2.438zm8.058-9.627l.053.041a2.556 2.556 0 001.643.591c.606 0 1.19-.21 1.643-.591a.735.735 0 01.052-.04l7.62-5.374H2.876l7.62 5.373z" fill="#000"/><path d="M18.695 22.88a.886.886 0 01-.364-.079.743.743 0 01-.449-.671v-1.5h-4.064c-1.345 0-2.438-1.009-2.438-2.25v-1.5c0-1.241 1.093-2.25 2.438-2.25h4.064v-1.5c0-.286.172-.543.45-.671a.869.869 0 01.85.071l6.504 4.5a.735.735 0 01.325.6.735.735 0 01-.325.6l-6.502 4.5a.869.869 0 01-.49.15zm-4.877-6.75c-.449 0-.813.336-.813.75v1.5c0 .414.364.75.813.75h4.877c.449 0 .813.336.813.75v.75l4.335-3-4.335-3v.75c0 .414-.364.75-.813.75h-4.877z" fill="#29D305"/></g><defs><clipPath id="clip0"><path d="M0 0h26.01v24H0V0z" fill="#fff"/></clipPath></defs></svg>