<svg width="24" height="24" fill="none" xmlns="http://www.w3.org/2000/svg"><path d="M6.75 23.25a.75.75 0 010-1.5h1.615l.5-3H3.75A3.754 3.754 0 010 15V4.5A3.754 3.754 0 013.75.75h16.5A3.754 3.754 0 0124 4.5V15a3.754 3.754 0 01-3.75 3.75h-5.115l.5 3h1.615a.75.75 0 010 1.5H6.75zm7.365-1.5l-.5-3h-3.229l-.5 3h4.229zM3.75 2.25A2.252 2.252 0 001.5 4.5V15a2.252 2.252 0 002.25 2.25h16.5A2.252 2.252 0 0022.5 15V4.5a2.252 2.252 0 00-2.25-2.25H3.75z" fill="#000"/><path fill-rule="evenodd" clip-rule="evenodd" d="M6.857 6.5a.107.107 0 00-.107.107V12.8c0 .06.048.107.107.107h10.286c.059 0 .107-.048.107-.107V6.607a.107.107 0 00-.107-.107H6.857zm-1.607.107C5.25 5.72 5.97 5 6.857 5h10.286c.887 0 1.607.72 1.607 1.607V12.8c0 .888-.72 1.607-1.607 1.607H6.857c-.887 0-1.607-.72-1.607-1.607V6.607z" fill="#29D305"/><path fill-rule="evenodd" clip-rule="evenodd" d="M18.4 6.071a.75.75 0 01-.136 1.052l-4.654 3.58a2.64 2.64 0 01-3.22 0l-4.654-3.58a.75.75 0 11.915-1.189l4.654 3.58a1.14 1.14 0 001.39 0l4.654-3.58a.75.75 0 011.052.137z" fill="#29D305"/></svg>