<svg width="24" height="24" viewBox="0 0 24 24" fill="none" xmlns="http://www.w3.org/2000/svg">
<path d="M6.75 23.25C6.336 23.25 6 22.914 6 22.5C6 22.086 6.336 21.75 6.75 21.75H8.365L8.865 18.75H3.75C1.682 18.75 0 17.068 0 15V4.5C0 2.432 1.682 0.75 3.75 0.75H20.25C22.318 0.75 24 2.432 24 4.5V15C24 17.068 22.318 18.75 20.25 18.75H15.135L15.635 21.75H17.25C17.664 21.75 18 22.086 18 22.5C18 22.914 17.664 23.25 17.25 23.25H6.75ZM14.115 21.75L13.615 18.75H10.386L9.886 21.75H14.115ZM3.75 2.25C2.509 2.25 1.5 3.259 1.5 4.5V15C1.5 16.241 2.509 17.25 3.75 17.25H20.25C21.491 17.25 22.5 16.241 22.5 15V4.5C22.5 3.259 21.491 2.25 20.25 2.25H3.75Z" fill="black"/>
<path fill-rule="evenodd" clip-rule="evenodd" d="M6.85714 6.5C6.79797 6.5 6.75 6.54797 6.75 6.60714V12.8C6.75 12.8592 6.79797 12.9071 6.85714 12.9071H17.1429C17.202 12.9071 17.25 12.8592 17.25 12.8V6.60714C17.25 6.54797 17.202 6.5 17.1429 6.5H6.85714ZM5.25 6.60714C5.25 5.71954 5.96954 5 6.85714 5H17.1429C18.0305 5 18.75 5.71954 18.75 6.60714V12.8C18.75 13.6876 18.0305 14.4071 17.1429 14.4071H6.85714C5.96954 14.4071 5.25 13.6876 5.25 12.8L5.25 6.60714Z" fill="#29D305"/>
<path fill-rule="evenodd" clip-rule="evenodd" d="M18.4008 6.07135C18.6533 6.39967 18.5919 6.87056 18.2635 7.12309L13.6099 10.7025C13.6098 10.7025 13.6098 10.7025 13.6098 10.7025C13.1483 11.0576 12.5823 11.2501 12 11.2501C11.4177 11.2501 10.8517 11.0576 10.3902 10.7025C10.3901 10.7025 10.3901 10.7025 10.3901 10.7025L5.73645 7.12309C5.40812 6.87056 5.34668 6.39967 5.59921 6.07135C5.85175 5.74302 6.32263 5.68158 6.65096 5.93411L11.3047 9.51354L11.3047 9.51358C11.5041 9.66692 11.7485 9.75006 12 9.75006C12.2515 9.75006 12.4959 9.66692 12.6953 9.51358L12.6953 9.51354L17.349 5.93411C17.6773 5.68158 18.1482 5.74302 18.4008 6.07135Z" fill="#29D305"/>
</svg>
