<svg width="24" height="24" fill="none" xmlns="http://www.w3.org/2000/svg"><g clip-path="url(#clip0)"><path d="M22.57 2.565l-6-2.4a2.2 2.2 0 00-1.67 0L8.24 2.8c.27-.075-.09.014 0 0 0 0 .09.01 0-.005L2.05.355A1.49 1.49 0 000 1.755v14.37a2.25 2.25 0 001.41 2.09l6 2.4a2.26 2.26 0 001.67 0l2.87-1.17a.754.754 0 10-.56-1.4l-2.4 1V4.169l.08-.034 5.92-2.39v6.51a.75.75 0 101.5 0v-6.51l5.52 2.21a.76.76 0 01.48.7v4.35a.75.75 0 101.5 0v-4.35a2.24 2.24 0 00-1.42-2.09zM1.96 16.825a.75.75 0 01-.47-.7V1.745l6 2.39v14.88l-5.53-2.19z" fill="#000"/><path d="M18.76 24a1.499 1.499 0 01-1.19-.56c-1.85-2.37-4.06-5.61-4.06-7.6a5.25 5.25 0 1110.5 0c0 2-2.22 5.23-4.07 7.6a1.49 1.49 0 01-1.18.56zm0-11.93a3.76 3.76 0 00-3.75 3.75c0 1.16 1.43 3.72 3.75 6.68 2.31-3 3.75-5.52 3.75-6.68a3.76 3.76 0 00-3.75-3.75z" fill="#000"/><path fill-rule="evenodd" clip-rule="evenodd" d="M18.8 13.3a2.2 2.2 0 100 4.4 2.2 2.2 0 000-4.4zm-.943 2.2a.943.943 0 111.886 0 .943.943 0 01-1.886 0z" fill="#29D305"/></g><defs><clipPath id="clip0"><path fill="#fff" d="M0 0h24v24H0z"/></clipPath></defs></svg>