<svg width="25" height="24" viewBox="0 0 25 24" fill="none" xmlns="http://www.w3.org/2000/svg">
<path d="M22.5701 2.56462L16.5701 0.164619C16.0351 -0.0548731 15.4352 -0.0548731 14.9001 0.164619L8.24012 2.8C8.51013 2.72462 8.15069 2.81422 8.24012 2.8C8.24012 2.8 8.32956 2.80969 8.24012 2.79547L2.05013 0.35462C1.82241 0.262239 1.57538 0.227616 1.33103 0.253834C1.08669 0.280051 0.852632 0.366297 0.649697 0.504886C0.446763 0.643476 0.281256 0.830107 0.167922 1.04815C0.0545875 1.2662 -0.00305657 1.5089 0.000124896 1.75462V16.1246C-0.000410414 16.574 0.133604 17.0132 0.384904 17.3857C0.636204 17.7582 0.993276 18.0469 1.41012 18.2146L7.41012 20.6146C7.94637 20.8278 8.54387 20.8278 9.08012 20.6146L11.9501 19.4446C12.042 19.4079 12.1258 19.3533 12.1967 19.2842C12.2675 19.215 12.3241 19.1326 12.3631 19.0416C12.4021 18.9506 12.4228 18.8528 12.424 18.7538C12.4252 18.6548 12.4069 18.5565 12.3701 18.4646C12.3334 18.3727 12.2788 18.2889 12.2097 18.2181C12.1405 18.1472 12.0581 18.0907 11.9671 18.0517C11.8761 18.0127 11.7783 17.992 11.6793 17.9908C11.5803 17.9895 11.4821 18.0078 11.3901 18.0446L8.99012 19.0446V4.1687L9.07012 4.13462L14.9901 1.74462V8.25462C14.9901 8.45353 15.0691 8.6443 15.2098 8.78495C15.3504 8.9256 15.5412 9.00462 15.7401 9.00462C15.939 9.00462 16.1298 8.9256 16.2705 8.78495C16.4111 8.6443 16.4901 8.45353 16.4901 8.25462V1.74462L22.0101 3.95462C22.1507 4.01032 22.2714 4.10668 22.3569 4.23137C22.4424 4.35607 22.4888 4.50343 22.4901 4.65462V9.00462C22.4901 9.20353 22.5691 9.3943 22.7098 9.53495C22.8504 9.6756 23.0412 9.75462 23.2401 9.75462C23.439 9.75462 23.6298 9.6756 23.7705 9.53495C23.9111 9.3943 23.9901 9.20353 23.9901 9.00462V4.65462C23.9912 4.20382 23.8563 3.76317 23.6029 3.39029C23.3496 3.01741 22.9896 2.72965 22.5701 2.56462ZM1.96013 16.8246C1.82065 16.7685 1.70126 16.6717 1.61745 16.5469C1.53364 16.4221 1.48928 16.275 1.49012 16.1246V1.74462L7.49012 4.13462V19.0146L1.96013 16.8246Z" fill="black"/>
<path d="M18.76 24.0001C18.5321 24.0033 18.3066 23.9545 18.1004 23.8575C17.8942 23.7604 17.7128 23.6177 17.57 23.4401C15.72 21.0701 13.51 17.8301 13.51 15.8401C13.51 15.1507 13.6458 14.468 13.9096 13.831C14.1735 13.194 14.5602 12.6153 15.0477 12.1278C15.5352 11.6403 16.114 11.2536 16.7509 10.9897C17.3879 10.7259 18.0706 10.5901 18.76 10.5901C19.4494 10.5901 20.1321 10.7259 20.7691 10.9897C21.4061 11.2536 21.9848 11.6403 22.4723 12.1278C22.9598 12.6153 23.3465 13.194 23.6104 13.831C23.8742 14.468 24.01 15.1507 24.01 15.8401C24.01 17.8401 21.79 21.0701 19.94 23.4401C19.7988 23.6169 19.6191 23.7592 19.4146 23.8563C19.2102 23.9533 18.9863 24.0025 18.76 24.0001ZM18.76 12.0701C17.7663 12.0727 16.814 12.4687 16.1113 13.1714C15.4086 13.874 15.0126 14.8263 15.01 15.8201C15.01 16.9801 16.44 19.5401 18.76 22.5001C21.07 19.5001 22.51 16.9801 22.51 15.8201C22.5074 14.8263 22.1114 13.874 21.4087 13.1714C20.7061 12.4687 19.7538 12.0727 18.76 12.0701Z" fill="black"/>
<path fill-rule="evenodd" clip-rule="evenodd" d="M18.8 13.3C17.585 13.3 16.6 14.285 16.6 15.5C16.6 16.7151 17.585 17.7 18.8 17.7C20.015 17.7 21 16.7151 21 15.5C21 14.285 20.015 13.3 18.8 13.3ZM17.8571 15.5C17.8571 14.9793 18.2793 14.5572 18.8 14.5572C19.3207 14.5572 19.7429 14.9793 19.7429 15.5C19.7429 16.0208 19.3207 16.4429 18.8 16.4429C18.2793 16.4429 17.8571 16.0208 17.8571 15.5Z" fill="#29D305"/>
</svg>
