<svg width="24" height="24" viewBox="0 0 24 24" fill="none" xmlns="http://www.w3.org/2000/svg">
<path fill-rule="evenodd" clip-rule="evenodd" d="M16.4808 0.000244139H9.01888C9.00614 -8.23629e-05 8.99343 -8.03949e-05 8.98076 0.000244139H2.25C1.65326 0.000244139 1.08097 0.237297 0.65901 0.659254C0.237053 1.08121 0 1.65351 0 2.25024V6.00024C0 6.41446 0.335786 6.75024 0.75 6.75024H7.48603C7.49574 6.75043 7.50543 6.75043 7.5151 6.75024H14.986C14.9957 6.75043 15.0054 6.75043 15.0151 6.75024H23.25C23.6642 6.75024 24 6.41446 24 6.00024V2.25024C24 1.65351 23.7629 1.08121 23.341 0.659254C22.919 0.237297 22.3467 0.000244139 21.75 0.000244139H16.5189C16.5061 -8.23629e-05 16.4934 -8.03949e-05 16.4808 0.000244139ZM15.5059 1.50024H9.5659L8.49448 5.25024H14.4345L15.5059 1.50024ZM15.9945 5.25024H22.5V2.25024C22.5 2.05133 22.421 1.86057 22.2803 1.71991C22.1397 1.57926 21.9489 1.50024 21.75 1.50024H17.0659L15.9945 5.25024ZM6.93445 5.25024L8.00588 1.50024H2.25C2.05109 1.50024 1.86032 1.57926 1.71967 1.71991C1.57902 1.86057 1.5 2.05133 1.5 2.25024V5.25024H6.93445ZM1.5 9.00049C1.5 8.58628 1.16421 8.25049 0.75 8.25049C0.335786 8.25049 0 8.58628 0 9.00049V21.7505C0 22.3472 0.237053 22.9195 0.65901 23.3415C1.08097 23.7634 1.65326 24.0005 2.25 24.0005H21.75C22.3467 24.0005 22.919 23.7634 23.341 23.3415C23.7629 22.9195 24 22.3472 24 21.7505V9.00049C24 8.58628 23.6642 8.25049 23.25 8.25049C22.8358 8.25049 22.5 8.58628 22.5 9.00049V21.7505C22.5 21.9494 22.421 22.1402 22.2803 22.2808C22.1397 22.4215 21.9489 22.5005 21.75 22.5005H2.25C2.05109 22.5005 1.86032 22.4215 1.71967 22.2808C1.57902 22.1402 1.5 21.9494 1.5 21.7505V9.00049Z" fill="black"/>
<path fill-rule="evenodd" clip-rule="evenodd" d="M9.1531 12.011C9.13699 12.003 9.11912 11.9993 9.10115 12.0001C9.08311 12.0009 9.06558 12.0064 9.05023 12.0159C9.03487 12.0254 9.0222 12.0386 9.01341 12.0544C9.00462 12.0702 9.00001 12.0879 9 12.106M9.1531 12.011C9.15303 12.011 9.15317 12.0111 9.1531 12.011V12.011ZM9.03255 10.5017C9.30586 10.4892 9.57785 10.5467 9.8227 10.6688L15.6119 13.5639C15.8786 13.6971 16.1034 13.9022 16.2602 14.1557C16.4171 14.4093 16.5002 14.7017 16.5002 15C16.5002 15.2982 16.4171 15.5906 16.2602 15.8442C16.1034 16.0977 15.8791 16.3026 15.6125 16.4358C15.6123 16.4358 15.6126 16.4357 15.6125 16.4358L9.82346 19.3308C9.57861 19.4529 9.30586 19.5108 9.03255 19.4982C8.75924 19.4857 8.49365 19.4036 8.26098 19.2596C8.02831 19.1157 7.83628 18.9147 7.7031 18.6757C7.56992 18.4367 7.50001 18.1676 7.5 17.894V12.106C7.50001 11.8324 7.56992 11.5633 7.7031 11.3243C7.83628 11.0853 8.02831 10.8842 8.26098 10.7403C8.49365 10.5963 8.75924 10.5142 9.03255 10.5017ZM9.1531 12.011L14.9415 14.9058L9.1531 12.011ZM9 12.106V17.8939C9 17.8939 9 17.8939 9 17.8939C9.00001 17.912 9.00462 17.9298 9.01341 17.9455C9.0222 17.9613 9.03487 17.9746 9.05023 17.9841C9.06558 17.9936 9.08311 17.999 9.10115 17.9998C9.11911 18.0006 9.13698 17.9969 9.15308 17.9889C9.15301 17.9889 9.15316 17.9889 9.15308 17.9889L14.9415 15.0942C14.959 15.0855 14.9742 15.0718 14.9845 15.0552C14.9947 15.0386 15.0002 15.0195 15.0002 15C15.0002 14.9805 14.9947 14.9613 14.9845 14.9447C14.9742 14.9281 14.959 14.9145 14.9415 14.9058" fill="#29D305"/>
</svg>
