<svg width="24" height="24" viewBox="0 0 24 24" fill="none" xmlns="http://www.w3.org/2000/svg">
<path fill-rule="evenodd" clip-rule="evenodd" d="M0.75 8.25018C1.16421 8.25018 1.5 8.58597 1.5 9.00018V21.7502C1.5 21.9491 1.57902 22.1399 1.71967 22.2805C1.86032 22.4212 2.05109 22.5002 2.25 22.5002H21.75C21.9489 22.5002 22.1397 22.4212 22.2803 22.2805C22.421 22.1399 22.5 21.9491 22.5 21.7502V9.00018C22.5 8.58597 22.8358 8.25018 23.25 8.25018C23.6642 8.25018 24 8.58597 24 9.00018V21.7502C24 22.3469 23.7629 22.9192 23.341 23.3412C22.919 23.7631 22.3467 24.0002 21.75 24.0002H2.25C1.65326 24.0002 1.08097 23.7631 0.65901 23.3412C0.237053 22.9192 0 22.3469 0 21.7502V9.00018C0 8.58597 0.335786 8.25018 0.75 8.25018Z" fill="black"/>
<path fill-rule="evenodd" clip-rule="evenodd" d="M2.25 1.50018C2.05109 1.50018 1.86032 1.5792 1.71967 1.71985C1.57902 1.86051 1.5 2.05127 1.5 2.25018V5.25018H22.5V2.25018C22.5 2.05127 22.421 1.86051 22.2803 1.71985C22.1397 1.5792 21.9489 1.50018 21.75 1.50018H2.25ZM0.65901 0.659193C1.08097 0.237236 1.65326 0.000183105 2.25 0.000183105H21.75C22.3467 0.000183105 22.919 0.237236 23.341 0.659193C23.7629 1.08115 24 1.65345 24 2.25018V6.00018C24 6.4144 23.6642 6.75018 23.25 6.75018H0.75C0.335786 6.75018 0 6.4144 0 6.00018V2.25018C0 1.65345 0.237053 1.08115 0.65901 0.659193Z" fill="black"/>
<path fill-rule="evenodd" clip-rule="evenodd" d="M9.20605 0.0290502C9.60433 0.142843 9.83495 0.557958 9.72115 0.956234L8.22115 6.20623C8.10736 6.60451 7.69225 6.83513 7.29397 6.72134C6.89569 6.60754 6.66507 6.19243 6.77887 5.79415L8.27887 0.544152C8.39266 0.145876 8.80777 -0.0847431 9.20605 0.0290502Z" fill="black"/>
<path fill-rule="evenodd" clip-rule="evenodd" d="M16.7061 0.0290502C17.1043 0.142843 17.3349 0.557958 17.2212 0.956234L15.7212 6.20623C15.6074 6.60451 15.1922 6.83513 14.794 6.72134C14.3957 6.60754 14.1651 6.19243 14.2789 5.79415L15.7789 0.544152C15.8927 0.145876 16.3078 -0.0847431 16.7061 0.0290502Z" fill="black"/>
<path fill-rule="evenodd" clip-rule="evenodd" d="M9.1531 12.0113C9.13699 12.0033 9.11912 11.9995 9.10115 12.0004C9.08311 12.0012 9.06558 12.0066 9.05023 12.0161C9.03487 12.0256 9.0222 12.0389 9.01341 12.0546C9.00462 12.0704 9.00001 12.0882 9 12.1062M9.1531 12.0113C9.15303 12.0112 9.15317 12.0113 9.1531 12.0113V12.0113ZM9.03255 10.5019C9.30586 10.4894 9.57785 10.5469 9.8227 10.669L15.6119 13.5642C15.8786 13.6974 16.1034 13.9024 16.2602 14.1559C16.4171 14.4096 16.5002 14.702 16.5002 15.0002C16.5002 15.2985 16.4171 15.5908 16.2602 15.8445C16.1034 16.098 15.8791 16.3028 15.6125 16.436C15.6123 16.4361 15.6126 16.4359 15.6125 16.436L9.82346 19.331C9.57861 19.4531 9.30586 19.511 9.03255 19.4985C8.75924 19.486 8.49365 19.4038 8.26098 19.2599C8.02831 19.1159 7.83628 18.9149 7.7031 18.6759C7.56992 18.4369 7.50001 18.1678 7.5 17.8942V12.1062C7.50001 11.8326 7.56992 11.5635 7.7031 11.3245C7.83628 11.0855 8.02831 10.8845 8.26098 10.7405C8.49365 10.5966 8.75924 10.5144 9.03255 10.5019ZM9.1531 12.0113L14.9415 14.906L9.1531 12.0113ZM9 12.1062V17.8942C9 17.8942 9 17.8942 9 17.8942C9.00001 17.9122 9.00462 17.93 9.01341 17.9458C9.0222 17.9615 9.03487 17.9748 9.05023 17.9843C9.06558 17.9938 9.08311 17.9992 9.10115 18.0001C9.11911 18.0009 9.13698 17.9971 9.15308 17.9891C9.15316 17.9891 9.15301 17.9892 9.15308 17.9891L14.9415 15.0944C14.959 15.0857 14.9742 15.072 14.9845 15.0554C14.9947 15.0388 15.0002 15.0197 15.0002 15.0002C15.0002 14.9807 14.9947 14.9616 14.9845 14.945C14.9742 14.9284 14.959 14.9147 14.9415 14.906" fill="black"/>
</svg>
