<svg width="24" height="24" viewBox="0 0 24 24" fill="none" xmlns="http://www.w3.org/2000/svg">
<path d="M1.21659 3.78C0.544686 3.78 0 4.32468 0 4.99659C0 5.66849 0.544686 6.21318 1.21659 6.21318H22.7834C23.4553 6.21318 24 5.66849 24 4.99659C24 4.32468 23.4553 3.78 22.7834 3.78H1.21659Z" fill="black"/>
<path d="M0 11.9966C0 11.3247 0.544686 10.78 1.21659 10.78H22.7834C23.4553 10.78 24 11.3247 24 11.9966C24 12.6685 23.4553 13.2132 22.7834 13.2132H1.21659C0.544686 13.2132 0 12.6685 0 11.9966Z" fill="black"/>
<path d="M0 18.9966C0 18.3247 0.544686 17.78 1.21659 17.78H22.7834C23.4553 17.78 24 18.3247 24 18.9966C24 19.6685 23.4553 20.2132 22.7834 20.2132H1.21659C0.544686 20.2132 0 19.6685 0 18.9966Z" fill="black"/>
</svg>
