<svg width="24" height="24" viewBox="0 0 24 24" fill="none" xmlns="http://www.w3.org/2000/svg">
<path fill-rule="evenodd" clip-rule="evenodd" d="M2.18103 0.96211C1.01064 1.54731 0 2.49509 0 3.76593V18.8287C0 20.1198 1.01171 21.0683 2.1893 21.6503C3.40735 22.2523 5.03323 22.5944 6.77824 22.5944C7.63523 22.5944 8.38276 22.4876 9.0769 22.3884L9.09395 22.386C9.50571 22.3271 9.79183 21.9456 9.73301 21.5339C9.67418 21.1221 9.29269 20.836 8.88093 20.8948C8.17402 20.9958 7.52091 21.0881 6.77824 21.0881C5.20943 21.0881 3.82277 20.7774 2.85672 20.2999C1.85021 19.8025 1.50627 19.2447 1.50627 18.8287V18.2426C1.72267 18.389 1.95264 18.5208 2.1893 18.6377C3.40735 19.2398 5.03323 19.5818 6.77824 19.5818C7.63521 19.5818 8.38272 19.475 9.07684 19.3759L9.09395 19.3734C9.50571 19.3146 9.79183 18.9331 9.73301 18.5213C9.67418 18.1096 9.29269 17.8234 8.88093 17.8823C8.17402 17.9833 7.52091 18.0755 6.77824 18.0755C5.20943 18.0755 3.82277 17.7649 2.85672 17.2874C1.85021 16.7899 1.50627 16.2321 1.50627 15.8161V15.2301C1.72267 15.3764 1.95264 15.5082 2.1893 15.6252C3.40735 16.2272 5.03323 16.5693 6.77824 16.5693C7.63523 16.5693 8.38275 16.4625 9.0769 16.3633L9.09395 16.3609C9.50571 16.302 9.79183 15.9205 9.73301 15.5088C9.67418 15.097 9.29269 14.8109 8.88093 14.8697C8.17402 14.9707 7.52091 15.063 6.77824 15.063C5.20943 15.063 3.82277 14.7523 2.85672 14.2748C1.85021 13.7774 1.50627 13.2196 1.50627 12.8036V12.2175C1.72267 12.3639 1.95264 12.4957 2.1893 12.6126C3.40735 13.2147 5.03323 13.5567 6.77824 13.5567C7.63522 13.5567 8.38274 13.4499 9.07688 13.3507L9.09395 13.3483C9.50571 13.2895 9.79183 12.908 9.73301 12.4962C9.67418 12.0845 9.29269 11.7984 8.88093 11.8572C8.17402 11.9582 7.52091 12.0504 6.77824 12.0504C5.20943 12.0504 3.82277 11.7398 2.85672 11.2623C1.85021 10.7648 1.50627 10.207 1.50627 9.79103V9.20497C1.72267 9.35135 1.95264 9.48312 2.1893 9.60009C3.40735 10.2021 5.03323 10.5442 6.77824 10.5442C8.52324 10.5442 10.1491 10.2021 11.3672 9.60009C11.6038 9.48312 11.8338 9.35135 12.0502 9.20497V9.79103C12.0502 10.207 12.3874 10.5442 12.8033 10.5442C13.2193 10.5442 13.5565 10.207 13.5565 9.79103V3.76593C13.5565 2.49509 12.5458 1.54731 11.3754 0.96211C10.16 0.354391 8.53359 0.000244141 6.77824 0.000244141C5.02288 0.000244141 3.39647 0.354391 2.18103 0.96211ZM2.85466 2.30936C1.84439 2.8145 1.50627 3.37299 1.50627 3.76593C1.50627 4.15887 1.84439 4.71736 2.85466 5.2225C3.81988 5.70511 5.20602 6.02534 6.77824 6.02534C8.35045 6.02534 9.73659 5.70511 10.7018 5.2225C11.7121 4.71736 12.0502 4.15887 12.0502 3.76593C12.0502 3.37299 11.7121 2.8145 10.7018 2.30936C9.73659 1.82675 8.35045 1.50652 6.77824 1.50652C5.20602 1.50652 3.81988 1.82675 2.85466 2.30936ZM2.85672 8.24975C1.85021 7.75228 1.50627 7.19448 1.50627 6.77848V6.17646C1.72033 6.32178 1.9475 6.45298 2.18103 6.56975C3.39647 7.17747 5.02288 7.53162 6.77824 7.53162C8.53359 7.53162 10.16 7.17747 11.3754 6.56975C11.609 6.45298 11.8361 6.32178 12.0502 6.17646V6.77848C12.0502 7.19448 11.7063 7.75228 10.6998 8.24975C9.7337 8.72723 8.34704 9.03789 6.77824 9.03789C5.20943 9.03789 3.82277 8.72723 2.85672 8.24975Z" fill="black"/>
<path fill-rule="evenodd" clip-rule="evenodd" d="M12.6244 11.4056C11.4541 11.9908 10.4434 12.9386 10.4434 14.2095V20.2346C10.4434 21.5257 11.4551 22.4741 12.6327 23.0562C13.8508 23.6582 15.4766 24.0002 17.2216 24.0002C18.9666 24.0002 20.5925 23.6582 21.8106 23.0562C22.9882 22.4741 23.9999 21.5257 23.9999 20.2346V14.2095C23.9999 12.9386 22.9892 11.9908 21.8188 11.4056C20.6034 10.7979 18.977 10.4438 17.2216 10.4438C15.4663 10.4438 13.8399 10.7979 12.6244 11.4056ZM13.2981 12.7529C12.2878 13.258 11.9497 13.8165 11.9497 14.2095C11.9497 14.6024 12.2878 15.1609 13.2981 15.666C14.2633 16.1486 15.6494 16.4689 17.2216 16.4689C18.7939 16.4689 20.18 16.1486 21.1452 15.666C22.1555 15.1609 22.4936 14.6024 22.4936 14.2095C22.4936 13.8165 22.1555 13.258 21.1452 12.7529C20.18 12.2703 18.7939 11.95 17.2216 11.95C15.6494 11.95 14.2633 12.2703 13.2981 12.7529ZM22.4936 17.222V16.62C22.2795 16.7653 22.0524 16.8965 21.8188 17.0133C20.6034 17.621 18.977 17.9751 17.2216 17.9751C15.4663 17.9751 13.8399 17.621 12.6244 17.0133C12.3909 16.8965 12.1637 16.7653 11.9497 16.62V17.222C11.9497 17.638 12.2936 18.1958 13.3001 18.6933C14.2662 19.1708 15.6528 19.4814 17.2216 19.4814C18.7904 19.4814 20.1771 19.1708 21.1432 18.6933C22.1497 18.1958 22.4936 17.638 22.4936 17.222ZM11.9497 19.6485C12.1661 19.7949 12.396 19.9266 12.6327 20.0436C13.8508 20.6456 15.4766 20.9877 17.2216 20.9877C18.9666 20.9877 20.5925 20.6456 21.8106 20.0436C22.0472 19.9266 22.2772 19.7949 22.4936 19.6485V20.2346C22.4936 20.6506 22.1497 21.2084 21.1432 21.7058C20.1771 22.1833 18.7904 22.494 17.2216 22.494C15.6528 22.494 14.2662 22.1833 13.3001 21.7058C12.2936 21.2084 11.9497 20.6506 11.9497 20.2346V19.6485Z" fill="black"/>
<path fill-rule="evenodd" clip-rule="evenodd" d="M15.3359 13.7038C15.2468 13.3872 14.9559 13.155 14.6108 13.155C14.1949 13.155 13.8577 13.4922 13.8577 13.9082C13.8577 14.3586 14.1288 14.6714 14.3497 14.8486C14.5784 15.0321 14.8625 15.1642 15.1453 15.2609C15.7183 15.457 16.4567 15.5651 17.2217 15.5651C17.9867 15.5651 18.7251 15.457 19.2981 15.2609C19.5809 15.1642 19.865 15.0321 20.0936 14.8486C20.3146 14.6714 20.5857 14.3586 20.5857 13.9082C20.5857 13.4922 20.2485 13.155 19.8326 13.155C19.4874 13.155 19.1965 13.3872 19.1075 13.7038C19.0514 13.7385 18.956 13.786 18.8105 13.8357C18.4296 13.9661 17.8625 14.0588 17.2217 14.0588C16.5808 14.0588 16.0138 13.9661 15.6328 13.8357C15.4874 13.786 15.392 13.7385 15.3359 13.7038ZM19.1627 13.6636C19.1627 13.6636 19.162 13.6644 19.1604 13.6659C19.1618 13.6644 19.1626 13.6636 19.1627 13.6636ZM15.283 13.6659C15.2814 13.6644 15.2806 13.6636 15.2807 13.6636C15.2807 13.6636 15.2815 13.6644 15.283 13.6659Z" fill="black"/>
<path fill-rule="evenodd" clip-rule="evenodd" d="M4.89229 3.26048C4.80324 2.94382 4.51233 2.71167 4.1672 2.71167C3.75125 2.71167 3.41406 3.04886 3.41406 3.46481C3.41406 3.91527 3.68518 4.22799 3.90614 4.40527C4.13475 4.58869 4.41889 4.72083 4.70166 4.81757C5.2747 5.01361 6.01309 5.12171 6.77808 5.12171C7.54306 5.12171 8.28145 5.01361 8.85449 4.81757C9.13727 4.72083 9.4214 4.58869 9.65001 4.40527C9.87097 4.22799 10.1421 3.91527 10.1421 3.46481C10.1421 3.04886 9.8049 2.71167 9.38895 2.71167C9.04382 2.71167 8.75291 2.94382 8.66386 3.26048C8.60779 3.29511 8.51239 3.34262 8.36693 3.39238C7.98599 3.5227 7.41894 3.61543 6.77808 3.61543C6.13721 3.61543 5.57016 3.5227 5.18922 3.39238C5.04377 3.34262 4.94836 3.29511 4.89229 3.26048ZM8.71907 3.22029C8.71912 3.22029 8.7184 3.22103 8.71678 3.2225C8.71821 3.22102 8.71902 3.22028 8.71907 3.22029ZM4.83937 3.22249C4.83775 3.22103 4.83703 3.22029 4.83708 3.22029C4.83713 3.22028 4.83794 3.22102 4.83937 3.22249Z" fill="black"/>
</svg>
