<svg width="24" height="24" fill="none" xmlns="http://www.w3.org/2000/svg"><path fill-rule="evenodd" clip-rule="evenodd" d="M2.181.962C1.011 1.547 0 2.495 0 3.766v15.062c0 1.291 1.012 2.24 2.19 2.822 1.217.602 2.843.944 4.588.944.857 0 1.605-.107 2.299-.206l.017-.002a.753.753 0 10-.213-1.491c-.707.1-1.36.193-2.103.193-1.569 0-2.955-.31-3.921-.788-1.007-.498-1.35-1.056-1.35-1.472v-.586c.216.147.446.278.682.395 1.218.602 2.844.945 4.59.945.856 0 1.604-.107 2.298-.206l.017-.003a.753.753 0 00-.213-1.491c-.707.101-1.36.193-2.103.193-1.569 0-2.955-.31-3.921-.788-1.007-.497-1.35-1.055-1.35-1.471v-.586c.216.146.446.278.682.395 1.218.602 2.844.944 4.59.944.856 0 1.604-.107 2.298-.206l.017-.002a.753.753 0 10-.213-1.492c-.707.101-1.36.194-2.103.194-1.569 0-2.955-.31-3.921-.788-1.007-.498-1.35-1.056-1.35-1.472v-.586c.216.147.446.278.682.395 1.218.602 2.844.944 4.59.944.856 0 1.604-.106 2.298-.205l.017-.003a.753.753 0 00-.213-1.491c-.707.1-1.36.193-2.103.193-1.569 0-2.955-.31-3.921-.788-1.007-.497-1.35-1.055-1.35-1.471v-.586c.216.146.446.278.682.395 1.218.602 2.844.944 4.59.944 1.744 0 3.37-.342 4.588-.944a5.84 5.84 0 00.683-.395v.586a.753.753 0 001.506 0V3.766c0-1.271-1.01-2.219-2.18-2.804C10.16.354 8.533 0 6.777 0 5.023 0 3.396.354 2.181.962zm.674 1.347c-1.01.505-1.349 1.064-1.349 1.457s.338.951 1.349 1.456c.965.483 2.351.803 3.923.803s2.959-.32 3.924-.803c1.01-.505 1.348-1.063 1.348-1.456s-.338-.952-1.348-1.457c-.965-.482-2.352-.803-3.924-.803s-2.958.32-3.923.803zm.002 5.94c-1.007-.497-1.35-1.055-1.35-1.47v-.603c.213.146.44.277.674.394 1.215.607 2.842.961 4.597.961 1.756 0 3.382-.354 4.597-.961.234-.117.461-.248.675-.394v.602c0 .416-.344.974-1.35 1.472-.966.477-2.353.788-3.922.788s-2.955-.311-3.921-.788z" fill="#000"/><path fill-rule="evenodd" clip-rule="evenodd" d="M12.624 11.405c-1.17.586-2.18 1.533-2.18 2.804v6.025c0 1.291 1.011 2.24 2.189 2.822 1.218.602 2.844.944 4.589.944 1.745 0 3.37-.342 4.589-.944 1.177-.582 2.189-1.53 2.189-2.822V14.21c0-1.27-1.01-2.218-2.181-2.804-1.216-.607-2.842-.961-4.597-.961-1.756 0-3.382.354-4.598.961zm.674 1.348c-1.01.505-1.348 1.063-1.348 1.456s.338.952 1.348 1.457c.965.482 2.351.803 3.924.803 1.572 0 2.958-.32 3.923-.803 1.01-.505 1.349-1.064 1.349-1.457s-.338-.951-1.349-1.456c-.965-.483-2.351-.803-3.923-.803-1.573 0-2.959.32-3.924.803zm9.196 4.469v-.602a5.895 5.895 0 01-.675.393c-1.216.608-2.842.962-4.597.962-1.756 0-3.382-.354-4.598-.962a5.894 5.894 0 01-.674-.393v.602c0 .416.344.974 1.35 1.471.966.477 2.353.788 3.922.788 1.568 0 2.955-.31 3.921-.788 1.007-.497 1.35-1.055 1.35-1.471zM11.95 19.648c.216.147.446.278.683.395 1.218.602 2.844.945 4.589.945 1.745 0 3.37-.343 4.589-.945.236-.117.466-.248.683-.395v.586c0 .416-.344.974-1.35 1.472-.967.477-2.354.788-3.922.788-1.57 0-2.956-.31-3.922-.788-1.006-.498-1.35-1.056-1.35-1.472v-.586z" fill="#000"/><path fill-rule="evenodd" clip-rule="evenodd" d="M15.336 13.704a.754.754 0 00-1.478.204c0 .45.27.763.492.94.229.184.513.316.795.413.573.196 1.312.304 2.077.304.765 0 1.503-.108 2.076-.304.283-.097.567-.23.796-.412.22-.178.492-.49.492-.941a.753.753 0 00-1.478-.204 1.512 1.512 0 01-.297.132c-.381.13-.948.223-1.59.223-.64 0-1.207-.093-1.588-.223a1.513 1.513 0 01-.297-.132zm3.827-.04l-.003.002a.014.014 0 01.003-.002zm-3.88.002l-.002-.002.002.002zM4.892 3.26a.753.753 0 00-1.478.204c0 .45.271.764.492.94.229.184.513.316.796.413.573.196 1.311.304 2.076.304.765 0 1.504-.108 2.077-.304.282-.097.566-.229.795-.412.221-.177.492-.49.492-.94a.753.753 0 00-1.478-.205 1.508 1.508 0 01-.297.132c-.38.13-.948.223-1.589.223-.64 0-1.208-.093-1.589-.223a1.508 1.508 0 01-.297-.132zm3.827-.04zm-3.88.002z" fill="#29D305"/></svg>