<svg width="24" height="24" viewBox="0 0 24 24" fill="none" xmlns="http://www.w3.org/2000/svg">
<path fill-rule="evenodd" clip-rule="evenodd" d="M12 19.4595C11.1492 19.4595 10.4595 20.1492 10.4595 21C10.4595 21.8508 11.1492 22.5405 12 22.5405C12.8508 22.5405 13.5405 21.8508 13.5405 21C13.5405 20.1492 12.8508 19.4595 12 19.4595ZM9 21C9 19.3431 10.3431 18 12 18C13.6569 18 15 19.3431 15 21C15 22.6569 13.6569 24 12 24C10.3431 24 9 22.6569 9 21Z" fill="black"/>
<path fill-rule="evenodd" clip-rule="evenodd" d="M12 1.45946C11.1492 1.45946 10.4595 2.14918 10.4595 3C10.4595 3.85082 11.1492 4.54054 12 4.54054C12.8508 4.54054 13.5405 3.85082 13.5405 3C13.5405 2.14918 12.8508 1.45946 12 1.45946ZM9 3C9 1.34315 10.3431 0 12 0C13.6569 0 15 1.34315 15 3C15 4.65685 13.6569 6 12 6C10.3431 6 9 4.65685 9 3Z" fill="black"/>
<path fill-rule="evenodd" clip-rule="evenodd" d="M12 10.4595C11.1492 10.4595 10.4595 11.1492 10.4595 12C10.4595 12.8508 11.1492 13.5405 12 13.5405C12.8508 13.5405 13.5405 12.8508 13.5405 12C13.5405 11.1492 12.8508 10.4595 12 10.4595ZM9 12C9 10.3431 10.3431 9 12 9C13.6569 9 15 10.3431 15 12C15 13.6569 13.6569 15 12 15C10.3431 15 9 13.6569 9 12Z" fill="black"/>
</svg>
