<svg width="24" height="24" fill="none" xmlns="http://www.w3.org/2000/svg"><path fill-rule="evenodd" clip-rule="evenodd" d="M12 1.5C6.201 1.5 1.5 6.201 1.5 12S6.201 22.5 12 22.5 22.5 17.799 22.5 12 17.799 1.5 12 1.5zM0 12C0 5.373 5.373 0 12 0s12 5.373 12 12-5.373 12-12 12S0 18.627 0 12zm8.25-3.75A.75.75 0 019 7.5h6.44l-1.72-1.72a.75.75 0 011.06-1.06l3 3a.748.748 0 010 1.06l-3 3a.75.75 0 11-1.06-1.06L15.44 9H9a.75.75 0 01-.75-.75zM8.56 15l1.72-1.72a.75.75 0 10-1.06-1.06l-3 3a.748.748 0 000 1.06l3 3a.75.75 0 101.06-1.06L8.56 16.5H15a.75.75 0 000-1.5H8.56z" fill="#000"/></svg>