<svg width="24" height="24" fill="none" xmlns="http://www.w3.org/2000/svg"><g clip-path="url(#clip0)"><path d="M12 6.342H8.601c-.8 0-1.5.682-1.5 1.463v1.268h-3c-.8 0-1.5.683-1.5 1.464v2.926c0 .781.7 1.464 1.5 1.464h8.2c.4 0 .7-.293.7-.78V7C13 6.5 12.623 6.342 12 6.342zm-7.899 7.414v-3.122h3v3.122h-3zm7.5 0h-3V7.903h3v5.853z" fill="#29D305"/><path d="M0 5.146V17.39c0 1.171 1 2.147 2.2 2.147h2.4C4.9 20.415 5.7 21 6.7 21s1.8-.585 2.1-1.463h7.8c.3.878 1.1 1.463 2.1 1.463s1.8-.585 2.1-1.463h1.5c1-.098 1.7-.878 1.7-1.756V9.731c.1-1.952-1.4-3.708-3.4-3.805h-4.7v-.78C15.9 3.975 14.9 3 13.7 3H2.2C1 3 0 3.976 0 5.146zm14.3 8.512H1.5V5.146c0-.39.3-.78.8-.78h11.2c.4 0 .8.293.8.78v8.512zm8.2-4.024v.866H19c-.1 0-.1 0-.1-.098V7.39h1.7c1 0 2 1.073 1.9 2.244zm-.2 8.537h-1.4c-.3-.878-1.1-1.464-2.1-1.464s-1.8.586-2.1 1.464h-.9V7.39h1.6v3.11c0 .878.7 1.561 1.6 1.561h3.5v2.183h-1.2c-.4 0-.8.293-.8.78 0 .488.3.78.8.78h1.2v2.172l-.2.195zm-4.3.683c0-.39.3-.78.8-.78s.8.292.8.78c0 .488-.3.78-.8.78s-.8-.39-.8-.78zm-12 0c0-.39.3-.78.8-.78s.8.292.8.78c0 .488-.3.78-.8.78s-.8-.39-.8-.78zM1.5 17.39v-2.17h12.8v2.95H8.9c-.3-.877-1.1-1.463-2.1-1.463s-1.8.586-2.1 1.464H2.2c-.4 0-.7-.39-.7-.78z" fill="#000"/></g><defs><clipPath id="clip0"><path fill="#fff" d="M0 0h24v24H0z"/></clipPath></defs></svg>