<svg width="24" height="24" viewBox="0 0 24 24" fill="none" xmlns="http://www.w3.org/2000/svg">
<path d="M17.25 10.5C13.5275 10.5 10.5 13.5275 10.5 17.25C10.5 20.9725 13.5275 24 17.25 24C20.9725 24 24 20.9725 24 17.25C24 13.5275 20.9725 10.5 17.25 10.5ZM17.25 22.5C14.355 22.5 12 20.145 12 17.25C12 14.355 14.355 12 17.25 12C20.145 12 22.5 14.355 22.5 17.25C22.5 20.145 20.145 22.5 17.25 22.5Z" fill="#29D305"/>
<path d="M17.2799 13.5325C15.8199 13.5325 14.6299 14.72 14.6299 16.1825C14.6299 16.5975 14.9649 16.9325 15.3799 16.9325C15.7949 16.9325 16.1299 16.5975 16.1299 16.1825C16.1299 15.63 16.5699 15.0325 17.2799 15.0325C17.9899 15.0325 18.4299 15.495 18.4299 16.1825C18.4299 16.87 17.9674 17.3325 17.2799 17.3325C16.8649 17.3325 16.5299 17.6675 16.5299 18.0825C16.5299 18.4975 16.8649 18.8325 17.2799 18.8325C18.7899 18.8325 19.9299 17.695 19.9299 16.1825C19.9299 14.67 18.7899 13.5325 17.2799 13.5325Z" fill="#29D305"/>
<path d="M17.2727 19.5449C16.7027 19.5449 16.2402 20.0074 16.2402 20.5774C16.2402 21.1474 16.7027 21.6099 17.2727 21.6099C17.8427 21.6099 18.3052 21.1474 18.3052 20.5774C18.3052 20.0074 17.8427 19.5449 17.2727 19.5449Z" fill="#29D305"/>
<path d="M5.75017 0.55C5.66017 0.225 5.36517 0 5.03017 0H4.93017C4.59267 0 4.29767 0.225 4.21017 0.55L0.072666 16.6C-0.222334 17.78 0.390166 18.945 1.53017 19.3725C1.61267 19.4025 1.70267 19.42 1.79267 19.42H4.18267V23.2525C4.18267 23.665 4.51767 24 4.93017 24C5.34267 24 5.67767 23.665 5.67767 23.2525V19.42H7.66767C8.88267 19.42 9.90767 18.395 9.90767 17.18V16.7825C9.90767 16.7175 9.89767 16.65 9.88017 16.585L5.75017 0.55ZM4.98017 3.3975L7.17267 12.005C6.60517 12.13 6.10267 12.46 5.67767 12.9275V10.505C5.67767 10.0925 5.34267 9.7575 4.93017 9.7575C4.51767 9.7575 4.18267 10.0925 4.18267 10.505V12.9275C3.78017 12.485 3.31017 12.165 2.78017 12.025L4.98017 3.3975ZM1.94767 17.925C1.59017 17.74 1.42017 17.3675 1.51767 16.975L2.41017 13.4775C3.30017 13.725 4.18267 15.4325 4.18267 17.1775V17.925H1.94767ZM8.41517 17.1775C8.41517 17.5625 8.05267 17.925 7.66767 17.925H5.67767V17.1775C5.67767 15.3725 6.62267 13.6075 7.54267 13.4575L8.41517 16.8775V17.175V17.1775Z" fill="black"/>
<path d="M15.225 6.67493L11.335 0.839932C11.11 0.489932 10.7875 0.267432 10.3875 0.192432C10.0125 0.117432 9.58999 0.192432 9.26499 0.417432C9.08999 0.542432 8.93999 0.667432 8.83999 0.842432L7.46749 2.91243C7.21749 3.26243 7.31749 3.73493 7.66749 3.95993C8.01749 4.20993 8.48999 4.10993 8.71499 3.75993L10.0875 1.68993L13.18 6.35243H12.3325C12.0575 6.35243 11.81 6.50243 11.685 6.72743C11.56 6.95243 11.56 7.24993 11.685 7.47493L13.405 10.4674C13.53 10.7174 13.805 10.8424 14.0525 10.8424C14.1775 10.8424 14.3025 10.8174 14.4275 10.7424C14.7775 10.5424 14.9 10.0699 14.7025 9.71993L13.63 7.84993H14.5775C14.8775 7.84993 15.125 7.69993 15.25 7.44993C15.4 7.19993 15.375 6.90243 15.225 6.67743V6.67493Z" fill="black"/>
</svg>
