<svg width="24" height="24" viewBox="0 0 24 24" fill="none" xmlns="http://www.w3.org/2000/svg">
<path d="M11.8173 7.49557C12.2547 7.05819 12.2547 6.34904 11.8173 5.91165C11.3799 5.47427 10.6708 5.47427 10.2334 5.91165C9.79598 6.34904 9.79598 7.05819 10.2334 7.49557C10.6708 7.93296 11.3799 7.93296 11.8173 7.49557Z" fill="black"/>
<path d="M18.75 0H2.25C1 0 0 1 0 2.25V17.25C0 18.5 1 19.5 2.25 19.5H8.25C8.675 19.5 9 19.175 9 18.75C9 18.325 8.675 18 8.25 18H4.03C3.925 15.745 4.4125 12.95 5.4725 12.6175C6.88 12.1775 9.925 15.875 10.5825 17.97L12.0225 17.5375C12.0225 17.5375 12.0225 17.53 12.02 17.5275C11.575 16.1025 10.0775 13.6875 8.34 12.2525C8.585 11.7225 8.9 11.2225 9.285 10.7775C9.46 10.6275 9.485 10.4025 9.46 10.1775C9.435 9.9525 9.31 9.7525 9.11 9.6525C8.685 9.4025 8.31 9.0275 8.06 8.6025C7.66 7.9025 7.535 7.1025 7.735 6.3275C7.935 5.5525 8.41 4.9025 9.11 4.5025C9.81 4.1025 10.61 3.9775 11.385 4.1775C12.16 4.3775 12.81 4.8525 13.21 5.5525C13.61 6.2525 13.735 7.0525 13.535 7.8275C13.335 8.6025 12.86 9.2525 12.16 9.6525C11.985 9.7775 11.835 9.9525 11.81 10.1775C11.785 10.3775 11.835 10.6025 11.985 10.7775C12.505 11.38 12.9 12.0725 13.165 12.8175C13.295 13.185 14.59 12.5625 14.3675 12.015C14.15 11.4775 13.87 10.9625 13.535 10.48C14.21 9.905 14.71 9.13 14.935 8.23C15.0825 7.6675 15.1125 7.085 15.0375 6.52L15.06 6.53C15.16 6.58 15.285 6.605 15.385 6.605L15.36 6.63C15.635 6.63 15.91 6.48 16.035 6.205C16.235 5.83 16.085 5.38 15.71 5.205L14.885 4.78L15.31 3.955C15.51 3.58 15.36 3.13 14.985 2.955C14.61 2.755 14.16 2.905 13.985 3.28L13.6975 3.855C13.15 3.3275 12.4725 2.95 11.71 2.755C10.56 2.455 9.335 2.63 8.31 3.23C7.26 3.83 6.535 4.805 6.235 5.98C5.935 7.13 6.11 8.355 6.71 9.38C6.96 9.805 7.285 10.155 7.635 10.48C7.43 10.785 7.25 11.105 7.0875 11.435C6.3925 11.1025 5.69 10.98 5.0275 11.1875C2.9575 11.835 2.3875 15.305 2.525 18.0025H2.2525C1.8275 18.0025 1.5025 17.6775 1.5025 17.2525V2.25C1.5025 1.825 1.8275 1.5 2.2525 1.5H18.7525C19.1775 1.5 19.5025 1.825 19.5025 2.25V8.25C19.5025 8.675 19.8275 9 20.2525 9C20.6775 9 21.0025 8.675 21.0025 8.25V2.25C21.0025 1 20.0025 0 18.7525 0H18.75Z" fill="black"/>
<path d="M17.25 10.5C13.5275 10.5 10.5 13.5275 10.5 17.25C10.5 20.9725 13.5275 24 17.25 24C20.9725 24 24 20.9725 24 17.25C24 13.5275 20.9725 10.5 17.25 10.5ZM12.125 17.25C12.125 14.425 14.425 12.125 17.25 12.125C18.375 12.125 19.4125 12.4925 20.2575 13.11L13.11 20.2575C12.495 19.4125 12.125 18.375 12.125 17.25ZM17.25 22.375C16.1825 22.375 15.19 22.045 14.3675 21.4825L21.485 14.365C22.0475 15.1875 22.3775 16.18 22.3775 17.2475C22.3775 20.0725 20.0775 22.3725 17.2525 22.3725L17.25 22.375Z" fill="#EE0701"/>
</svg>
