<svg width="16" height="16" viewBox="0 0 16 16" fill="none" xmlns="http://www.w3.org/2000/svg">
<path fill-rule="evenodd" clip-rule="evenodd" d="M10.5 0.75C10.5 0.335786 10.8358 0 11.25 0H15.25C15.6642 0 16 0.335786 16 0.75V4.75C16 5.16421 15.6642 5.5 15.25 5.5C14.8358 5.5 14.5 5.16421 14.5 4.75V1.5H11.25C10.8358 1.5 10.5 1.16421 10.5 0.75Z" fill="black"/>
<path fill-rule="evenodd" clip-rule="evenodd" d="M14.7803 1.21967C15.0732 1.51256 15.0732 1.98744 14.7803 2.28033L10.7803 6.28033C10.4874 6.57322 10.0126 6.57322 9.71967 6.28033C9.42678 5.98744 9.42678 5.51256 9.71967 5.21967L13.7197 1.21967C14.0126 0.926777 14.4874 0.926777 14.7803 1.21967Z" fill="black"/>
<path fill-rule="evenodd" clip-rule="evenodd" d="M2.08333 3C1.92862 3 1.78025 3.06146 1.67085 3.17085C1.56146 3.28025 1.5 3.42862 1.5 3.58333V13.9167C1.5 14.0714 1.56146 14.2197 1.67085 14.3291C1.78025 14.4385 1.92862 14.5 2.08333 14.5H12.4167C12.5714 14.5 12.7198 14.4385 12.8291 14.3291C12.9385 14.2198 13 14.0714 13 13.9167V7.91667C13 7.50245 13.3358 7.16667 13.75 7.16667C14.1642 7.16667 14.5 7.50245 14.5 7.91667V13.9167C14.5 14.4692 14.2805 14.9991 13.8898 15.3898C13.4991 15.7805 12.9692 16 12.4167 16H2.08333C1.5308 16 1.0009 15.7805 0.610194 15.3898C0.219493 14.9991 0 14.4692 0 13.9167V3.58333C0 3.0308 0.219493 2.5009 0.610194 2.11019C1.0009 1.71949 1.5308 1.5 2.08333 1.5H8.08333C8.49755 1.5 8.83333 1.83579 8.83333 2.25C8.83333 2.66421 8.49755 3 8.08333 3H2.08333Z" fill="black"/>
</svg>
