<svg width="24" height="24" viewBox="0 0 24 24" fill="none" xmlns="http://www.w3.org/2000/svg">
<path fill-rule="evenodd" clip-rule="evenodd" d="M4.10536 1.98347C1.83215 1.98347 0 3.78863 0 6.00239V19.9811C0 22.1948 1.83215 24 4.10536 24H17.9112C20.1844 24 22.0165 22.1948 22.0165 19.9811V15.8301C22.0165 15.3563 21.623 14.9613 21.1241 14.9613C20.6253 14.9613 20.2318 15.3563 20.2318 15.8301V19.9811C20.2318 21.2468 19.187 22.2624 17.9112 22.2624H4.10536C2.82953 22.2624 1.78476 21.2468 1.78476 19.9811V6.00239C1.78476 4.73671 2.82953 3.72108 4.10536 3.72108H8.18853C8.68742 3.72108 9.08091 3.32612 9.08091 2.85228C9.08091 2.37843 8.68742 1.98347 8.18853 1.98347H4.10536Z" fill="black"/>
<path d="M12.1691 10.5355C11.8114 10.8932 11.8114 11.4733 12.1691 11.831C12.5267 12.1886 13.1063 12.1886 13.4638 11.831L22.1686 3.12639L22.1687 10.2604C22.1687 10.7665 22.5789 11.1763 23.0844 11.1763C23.5898 11.1763 24 10.7665 24 10.2604L23.9998 0.916059C23.9998 0.662827 23.8979 0.4347 23.7315 0.268305C23.7107 0.247502 23.6889 0.227709 23.6662 0.208996C23.5078 0.0782254 23.3059 0.000186817 23.0842 0.000182524L13.7395 1.76731e-10C13.234 -9.82685e-06 12.8238 0.4098 12.8238 0.915876C12.8238 1.42195 13.234 1.83178 13.7394 1.83179L20.8728 1.83193L12.1691 10.5355Z" fill="black"/>
</svg>
