<svg width="24" height="24" fill="none" xmlns="http://www.w3.org/2000/svg"><path fill-rule="evenodd" clip-rule="evenodd" d="M20.142 2.26l-7.811 7.811a1.13 1.13 0 001.597 1.598l7.813-7.812v6.138a1.13 1.13 0 102.259 0V1.13a1.125 1.125 0 00-.412-.872A1.123 1.123 0 0022.87 0h-8.865a1.13 1.13 0 000 2.26h6.137zM.05 6.209c0-2.296 1.899-4.159 4.243-4.159H8.26c.62 0 1.12.492 1.12 1.098 0 .605-.5 1.098-1.12 1.098H4.293c-1.105 0-2.002.878-2.002 1.963V19.79c0 1.085.897 1.963 2.002 1.963h13.414c1.105 0 2.002-.878 2.002-1.963v-4.033c0-.605.5-1.098 1.12-1.098.62 0 1.121.493 1.121 1.098v4.033c0 2.296-1.899 4.159-4.243 4.159H4.293C1.949 23.95.05 22.087.05 19.791V6.21z" fill="#000"/></svg>