<svg width="24" height="24" viewBox="0 0 24 24" fill="none" xmlns="http://www.w3.org/2000/svg">
<path d="M3.25 24C2.009 24 1 22.991 1 21.75V2.25C1 1.009 2.009 0 3.25 0H20.75C21.991 0 23 1.009 23 2.25V13.629C23 13.946 22.934 14.254 22.804 14.545C22.802 14.55 22.795 14.563 22.793 14.568C22.684 14.807 22.531 15.029 22.342 15.218L14.219 23.34C14.029 23.53 13.808 23.683 13.56 23.796C13.554 23.799 13.534 23.808 13.528 23.81C13.254 23.934 12.946 24 12.629 24H3.25ZM3.25 1.5C2.836 1.5 2.5 1.836 2.5 2.25V21.75C2.5 22.164 2.836 22.5 3.25 22.5H12.5V15.75C12.5 14.509 13.509 13.5 14.75 13.5H21.5V2.25C21.5 1.836 21.164 1.5 20.75 1.5H3.25ZM14.75 15C14.336 15 14 15.336 14 15.75V21.439L20.439 15H14.75Z" fill="black"/>
<rect width="2.00662" height="10.7207" rx="1.00331" transform="matrix(0.707102 0.707111 -0.707102 0.707111 12.5806 3.5)" fill="#EE0701"/>
<rect width="2.00662" height="10.7207" rx="1.00331" transform="matrix(-0.707102 0.707111 -0.707102 -0.707111 14 11.0808)" fill="#EE0701"/>
</svg>
