<svg width="24" height="24" fill="none" xmlns="http://www.w3.org/2000/svg"><path d="M2.25 24A2.252 2.252 0 010 21.75v-18A2.252 2.252 0 012.25 1.5H4.5V.75a.75.75 0 011.5 0v.75h12V.75a.75.75 0 011.5 0v.75h2.25A2.252 2.252 0 0124 3.75v18A2.252 2.252 0 0121.75 24H2.25zm0-21a.75.75 0 00-.75.75v18c0 .414.336.75.75.75h19.5a.75.75 0 00.75-.75v-18a.75.75 0 00-.75-.75H19.5v.75a.75.75 0 01-1.5 0V3H6v.75a.75.75 0 01-1.5 0V3H2.25z" fill="#000"/><path d="M12.875 18.75c-.483 0-.875-.336-.875-.75s.392-.75.875-.75h5.25c.483 0 .875.336.875.75s-.392.75-.875.75h-5.25zM12.875 11.25c-.483 0-.875-.336-.875-.75s.392-.75.875-.75h5.25c.483 0 .875.336.875.75s-.392.75-.875.75h-5.25z" fill="#29D305"/><path d="M8.743 8.28a.7.7 0 01.977-.14.704.704 0 01.139.985L7.174 12.72a.697.697 0 01-.509.278h-.001a.69.69 0 01-.54-.204L4.205 10.87A.7.7 0 014 10.372a.699.699 0 011.191-.498l1.35 1.355L8.743 8.28zM8.743 15.28a.7.7 0 01.977-.14.704.704 0 01.139.985L7.174 19.72a.697.697 0 01-.509.278h-.001a.69.69 0 01-.54-.204L4.205 17.87A.7.7 0 014 17.372a.699.699 0 011.191-.498l1.35 1.355 2.202-2.949z" fill="#000"/></svg>