<svg width="24" height="24" fill="none" xmlns="http://www.w3.org/2000/svg"><path d="M3.25 24A2.252 2.252 0 011 21.75V2.25A2.252 2.252 0 013.25 0h17.5A2.252 2.252 0 0123 2.25v11.379c0 .317-.066.625-.196.916l-.011.023a2.232 2.232 0 01-.451.65l-8.123 8.122a2.24 2.24 0 01-.691.47c-.274.124-.582.19-.899.19H3.25zm0-22.5a.75.75 0 00-.75.75v19.5c0 .414.336.75.75.75h9.25v-6.75a2.252 2.252 0 012.25-2.25h6.75V2.25a.75.75 0 00-.75-.75H3.25zM14.75 15a.75.75 0 00-.75.75v5.689L20.439 15H14.75z" fill="#000"/><path fill-rule="evenodd" clip-rule="evenodd" d="M9.489 11.315l4.027-5.75c.146-.209.21-.469.175-.73a.982.982 0 00-.354-.644.847.847 0 00-.534-.191.88.88 0 00-.715.385l-3.41 4.868-2.151-2.302a.854.854 0 00-.63-.28.853.853 0 00-.629.28A1.01 1.01 0 005 7.645c0 .264.096.51.268.693l2.877 3.08c.17.184.394.282.63.282l.062-.002a.88.88 0 00.652-.383z" fill="#29D305"/></svg>