<svg width="24" height="24" viewBox="0 0 24 24" fill="none" xmlns="http://www.w3.org/2000/svg">
<path d="M3.25 24C2.009 24 1 22.991 1 21.75V2.25C1 1.009 2.009 0 3.25 0H20.75C21.991 0 23 1.009 23 2.25V13.629C23 13.946 22.934 14.254 22.804 14.545C22.802 14.55 22.795 14.563 22.793 14.568C22.684 14.807 22.531 15.029 22.342 15.218L14.219 23.34C14.029 23.53 13.808 23.683 13.56 23.796C13.554 23.799 13.534 23.808 13.528 23.81C13.254 23.934 12.946 24 12.629 24H3.25ZM3.25 1.5C2.836 1.5 2.5 1.836 2.5 2.25V21.75C2.5 22.164 2.836 22.5 3.25 22.5H12.5V15.75C12.5 14.509 13.509 13.5 14.75 13.5H21.5V2.25C21.5 1.836 21.164 1.5 20.75 1.5H3.25ZM14.75 15C14.336 15 14 15.336 14 15.75V21.439L20.439 15H14.75Z" fill="black"/>
<path fill-rule="evenodd" clip-rule="evenodd" d="M9.48854 11.3151L13.5162 5.56438C13.6621 5.35611 13.7253 5.09631 13.6908 4.83498C13.6563 4.57247 13.5286 4.34506 13.3366 4.1909C13.1797 4.06526 12.995 4 12.8034 4C12.5277 4 12.2588 4.1408 12.088 4.38466L8.67799 9.25349L6.52685 6.95135C6.35713 6.76836 6.13228 6.67009 5.89724 6.67009C5.66226 6.67009 5.43783 6.76792 5.26812 6.95083C5.09689 7.13302 5 7.38049 5 7.64461C5 7.90874 5.09637 8.15569 5.26767 8.3379L8.1447 11.4188C8.31442 11.6018 8.53924 11.7 8.77427 11.7C8.79314 11.7 8.81364 11.6988 8.83652 11.6975C9.09118 11.6786 9.32958 11.5412 9.48854 11.3151Z" fill="#29D305"/>
</svg>
