<svg width="24" height="24" fill="none" xmlns="http://www.w3.org/2000/svg"><path fill-rule="evenodd" clip-rule="evenodd" d="M11.73 0c-.287 0-.556.109-.75.32-.192.208-.287.49-.287.799v1.565c-4.064.51-7.244 3.965-7.244 8.102 0 2.783-.311 4.609-.616 5.729-.152.56-.302.943-.412 1.182a3.273 3.273 0 01-.153.297.99.99 0 00-.238.502c-.03.163-.03.333-.03.467v.161l.106.105.024.023c.175.174.466.462.908.462h17.386c.249 0 .495-.06.69-.195a.774.774 0 00.345-.577 1.088 1.088 0 00-.279-1.058 1.914 1.914 0 01-.13-.224 5.69 5.69 0 01-.373-1.049c-.28-1.045-.567-2.846-.567-5.825 0-4.11-3.217-7.54-7.244-8.09V1.12C12.866.417 12.287 0 11.73 0zm2.31 20.535c-.544-.135-1.145.129-1.304.72-.153.44-.51.697-.909.697s-.755-.257-.908-.697c-.159-.591-.76-.855-1.304-.72-.61.15-.884.748-.747 1.29.336 1.325 1.66 2.175 2.96 2.175 1.32 0 2.517-.866 2.95-2.149l.005-.013.004-.013c.137-.541-.136-1.14-.747-1.29zm-8.418-9.75c0-3.336 2.65-6.118 6.109-6.118 3.467 0 6.205 2.789 6.205 6.119 0 3.44.372 5.514.806 6.785H4.788c.38-1.266.834-3.398.834-6.785z" fill="#000"/></svg>