<svg width="24" height="24" viewBox="0 0 24 24" fill="none" xmlns="http://www.w3.org/2000/svg">
<path fill-rule="evenodd" clip-rule="evenodd" d="M12 0C12.4142 0 12.75 0.335786 12.75 0.75V2.28414C14.663 2.4587 16.4642 3.29697 17.8336 4.66637C19.3808 6.21354 20.25 8.31196 20.25 10.5C20.25 13.9756 20.6207 15.9557 20.9649 17.0404C21.1363 17.5807 21.2988 17.8913 21.4 18.0517C21.4505 18.1317 21.4856 18.1742 21.499 18.1895C21.4999 18.1906 21.5008 18.1915 21.5015 18.1923C21.7257 18.3938 21.8085 18.7118 21.7075 18.9988C21.6019 19.2991 21.3183 19.5 21 19.5H3.00001C2.71313 19.5 2.45138 19.3364 2.32575 19.0784C2.20172 18.8238 2.23181 18.5214 2.40278 18.2963C2.40308 18.2959 2.40346 18.2954 2.40392 18.2947C2.40772 18.2893 2.41694 18.276 2.43085 18.254C2.45864 18.2101 2.50528 18.1317 2.56484 18.0137C2.68392 17.7778 2.85518 17.3827 3.03068 16.788C3.38183 15.598 3.75001 13.6087 3.75001 10.5C3.75001 8.31196 4.6192 6.21354 6.16638 4.66637C7.53577 3.29697 9.33701 2.4587 11.25 2.28414V0.75C11.25 0.335786 11.5858 0 12 0ZM4.2052 18H19.7132C19.6538 17.848 19.5941 17.6799 19.5351 17.4941C19.1293 16.2153 18.75 14.0704 18.75 10.5C18.75 8.70979 18.0388 6.9929 16.773 5.72703C15.5071 4.46116 13.7902 3.75 12 3.75C10.2098 3.75 8.49291 4.46116 7.22704 5.72703C5.96117 6.9929 5.25001 8.70979 5.25001 10.5C5.25001 13.7253 4.86819 15.861 4.46934 17.2125C4.38079 17.5126 4.29141 17.774 4.2052 18ZM9.78875 21.0304C10.1862 20.9137 10.603 21.1413 10.7196 21.5387C10.801 21.8159 10.97 22.0593 11.2012 22.2325C11.4325 22.4056 11.7136 22.4992 12.0025 22.4992C12.2914 22.4992 12.5725 22.4056 12.8038 22.2325C13.035 22.0593 13.204 21.8159 13.2854 21.5387C13.402 21.1413 13.8188 20.9137 14.2163 21.0304C14.6137 21.147 14.8413 21.5638 14.7246 21.9613C14.552 22.5494 14.1934 23.0659 13.7027 23.4332C13.212 23.8006 12.6155 23.9992 12.0025 23.9992C11.3895 23.9992 10.793 23.8006 10.3023 23.4332C9.81156 23.0659 9.45304 22.5494 9.28037 21.9613C9.1637 21.5638 9.39131 21.147 9.78875 21.0304Z" fill="black"/>
</svg>
