<svg width="24" height="24" viewBox="0 0 24 24" fill="none" xmlns="http://www.w3.org/2000/svg">
<path fill-rule="evenodd" clip-rule="evenodd" d="M11.7309 0C11.4431 0 11.1742 0.108629 10.98 0.319284C10.7877 0.527887 10.6926 0.809638 10.6926 1.11905V2.68372C6.62941 3.19324 3.44878 6.64923 3.44878 10.7857C3.44878 13.5693 3.13775 15.3948 2.83333 16.5147C2.68114 17.0745 2.53061 17.458 2.42137 17.6969C2.36675 17.8164 2.32241 17.8998 2.29331 17.951C2.28282 17.9695 2.2743 17.9838 2.26798 17.9941C2.12485 18.1501 2.06029 18.3313 2.02999 18.4956C1.99993 18.6587 1.99997 18.8292 2 18.963L2.00001 19.1241L2.10609 19.2287L2.12988 19.2523C2.30525 19.4262 2.59568 19.7143 3.03829 19.7143H20.4235C20.6726 19.7143 20.9191 19.6534 21.1142 19.5188C21.3013 19.3896 21.4399 19.1902 21.4595 18.9417C21.5742 18.5375 21.434 18.1457 21.1803 17.8843C21.1759 17.8784 21.1693 17.8689 21.1605 17.8557C21.1372 17.8202 21.099 17.7572 21.0506 17.6599C20.9539 17.4651 20.8168 17.1335 20.6772 16.6113C20.3975 15.5658 20.1096 13.7646 20.1096 10.7857C20.1096 6.67669 16.8932 3.24685 12.8658 2.69619V1.11905C12.8658 0.416996 12.287 0 11.7309 0ZM14.0402 20.5345C13.496 20.4003 12.8947 20.664 12.7357 21.2552C12.5827 21.6949 12.2266 21.9524 11.8275 21.9524C11.4284 21.9524 11.0723 21.6949 10.9193 21.2552C10.7603 20.664 10.159 20.4003 9.61478 20.5345C9.00431 20.685 8.7311 21.2835 8.86832 21.8247C9.20421 23.1495 10.5276 24 11.8275 24C13.1486 24 14.3452 23.1338 14.7789 21.851L14.7833 21.838L14.7867 21.8247C14.9239 21.2835 14.6507 20.685 14.0402 20.5345ZM5.62193 10.7857C5.62193 7.4487 8.27116 4.66665 11.7309 4.66665C15.1976 4.66665 17.9365 7.45571 17.9365 10.7857C17.9365 14.2255 18.3084 16.3003 18.7424 17.5714H4.78753C5.16804 16.3052 5.62193 14.1728 5.62193 10.7857Z" fill="black"/>
<path fill-rule="evenodd" clip-rule="evenodd" d="M10.7926 2.77196L10.7051 2.78294C6.68995 3.28643 3.54878 6.70157 3.54878 10.7857C3.54878 13.5767 3.23693 15.4111 2.92982 16.5409C2.77629 17.1057 2.62394 17.4944 2.51232 17.7385C2.4565 17.8606 2.41084 17.9466 2.38026 18.0004C2.36924 18.0198 2.36018 18.0351 2.3533 18.0463L2.34823 18.0546L2.34166 18.0618C2.21514 18.1996 2.15645 18.3613 2.12834 18.5138C2.10019 18.6664 2.09997 18.8279 2.1 18.9629L2.10001 19.0823L2.1763 19.1575L2.20024 19.1812C2.37756 19.3571 2.64127 19.6143 3.03829 19.6143H20.4235C20.6575 19.6143 20.8828 19.557 21.0574 19.4365C21.2241 19.3214 21.3429 19.1475 21.3598 18.9339L21.3605 18.924L21.3633 18.9144C21.4669 18.5495 21.3412 18.1936 21.1085 17.954L21.0987 17.9438C21.0945 17.9381 21.0897 17.9296 21.0828 17.9193C21.0809 17.9166 21.079 17.9137 21.077 17.9106L21.1605 17.8557C21.1693 17.8689 21.1759 17.8784 21.1803 17.8843C21.434 18.1457 21.5742 18.5375 21.4595 18.9417C21.4399 19.1902 21.3013 19.3896 21.1142 19.5188C20.9191 19.6534 20.6726 19.7143 20.4235 19.7143H3.03829C2.59568 19.7143 2.30525 19.4262 2.12988 19.2523L2.10609 19.2287L2.00001 19.1241L2 18.963C1.99997 18.8292 1.99993 18.6587 2.02999 18.4956C2.06029 18.3313 2.12485 18.1501 2.26798 17.9941C2.2743 17.9838 2.28282 17.9695 2.29331 17.951C2.32241 17.8998 2.36675 17.8164 2.42137 17.6969C2.53061 17.458 2.68114 17.0745 2.83333 16.5147C3.13775 15.3948 3.44878 13.5693 3.44878 10.7857C3.44878 6.64923 6.62941 3.19324 10.6926 2.68372V1.11905C10.6926 0.809638 10.7877 0.527887 10.98 0.319284C11.1742 0.108629 11.4431 0 11.7309 0C12.287 0 12.8658 0.416996 12.8658 1.11905V2.69619C16.8932 3.24685 20.1096 6.67669 20.1096 10.7857C20.1096 13.7646 20.3975 15.5658 20.6772 16.6113C20.8168 17.1335 20.9539 17.4651 21.0506 17.6599C21.099 17.7572 21.1372 17.8202 21.1605 17.8557L21.077 17.9106C21.0513 17.8716 21.0111 17.805 20.9611 17.7043C20.861 17.5028 20.7217 17.1649 20.5806 16.6371C20.2981 15.5809 20.0096 13.7706 20.0096 10.7857C20.0096 6.73015 16.8336 3.33964 12.8522 2.79527L12.7658 2.78345V1.11905C12.7658 0.482235 12.2423 0.1 11.7309 0.1C11.4687 0.1 11.2273 0.198599 11.0535 0.387067C10.8812 0.573921 10.7926 0.829904 10.7926 1.11905V2.77196ZM12.8302 21.288C12.6647 21.7635 12.2738 22.0524 11.8275 22.0524C11.3812 22.0524 10.9903 21.7635 10.8248 21.288L10.8224 21.2812C10.6802 20.7524 10.1406 20.5078 9.63871 20.6316C9.09026 20.7668 8.83951 21.3042 8.96525 21.8001C9.28804 23.0733 10.5653 23.9 11.8275 23.9C13.1047 23.9 14.2639 23.0621 14.6841 21.819L14.6873 21.8097L14.6897 21.8001C14.8155 21.3042 14.5647 20.7668 14.0163 20.6316C13.5144 20.5078 12.9745 20.7524 12.8323 21.2811L12.8302 21.288ZM14.7833 21.838L14.7789 21.851C14.3452 23.1338 13.1486 24 11.8275 24C10.5276 24 9.20421 23.1495 8.86832 21.8247C8.7311 21.2835 9.00431 20.685 9.61478 20.5345C10.159 20.4003 10.7603 20.664 10.9193 21.2552C11.0723 21.6949 11.4284 21.9524 11.8275 21.9524C12.2266 21.9524 12.5827 21.6949 12.7357 21.2552C12.8947 20.664 13.496 20.4003 14.0402 20.5345C14.6507 20.685 14.9239 21.2835 14.7867 21.8247L14.7833 21.838ZM18.8822 17.6714H4.65306L4.69176 17.5426C5.06937 16.2861 5.52193 14.1634 5.52193 10.7857C5.52193 7.395 8.21441 4.56665 11.7309 4.56665C15.2525 4.56665 18.0365 7.4001 18.0365 10.7857C18.0365 14.2193 18.4078 16.2821 18.837 17.5391L18.8822 17.6714ZM4.78753 17.5714C4.79737 17.5387 4.80726 17.5053 4.81719 17.4714C5.19121 16.194 5.62193 14.0852 5.62193 10.7857C5.62193 7.4487 8.27116 4.66665 11.7309 4.66665C15.1976 4.66665 17.9365 7.45571 17.9365 10.7857C17.9365 14.1367 18.2894 16.1923 18.7089 17.4714C18.7201 17.5053 18.7312 17.5386 18.7424 17.5714H4.78753Z" fill="black"/>
</svg>
