<svg width="24" height="24" viewBox="0 0 24 24" fill="none" xmlns="http://www.w3.org/2000/svg">
<path d="M6.75 0.750002C6.2367 0.749259 5.7386 0.924122 5.3384 1.24555C4.93821 1.56698 4.66001 2.01563 4.55 2.517C4.31549 2.35108 4.03716 2.25819 3.75 2.25C3.35218 2.25 2.97064 2.40804 2.68934 2.68934C2.40804 2.97065 2.25 3.35218 2.25 3.75C2.25 4.14783 2.40804 4.52936 2.68934 4.81066C2.97064 5.09197 3.35218 5.25 3.75 5.25H6.75C7.34674 5.25 7.91903 5.01295 8.34099 4.59099C8.76295 4.16904 9 3.59674 9 3C9 2.40327 8.76295 1.83097 8.34099 1.40901C7.91903 0.987055 7.34674 0.750002 6.75 0.750002Z" stroke="#29D305" stroke-width="1.5" stroke-linecap="round" stroke-linejoin="round"/>
<path d="M15.75 3C16.1642 3 16.5 3.33579 16.5 3.75V4.5C16.5 4.91421 16.1642 5.25 15.75 5.25C15.3358 5.25 15 4.91421 15 4.5V3.75C15 3.33579 15.3358 3 15.75 3Z" fill="black"/>
<path d="M21 3.75C21 3.33579 20.6642 3 20.25 3C19.8358 3 19.5 3.33579 19.5 3.75V4.5C19.5 4.91421 19.8358 5.25 20.25 5.25C20.6642 5.25 21 4.91421 21 4.5V3.75Z" fill="black"/>
<path d="M15.75 6.75C16.1642 6.75 16.5 7.08579 16.5 7.5V8.25C16.5 8.66421 16.1642 9 15.75 9C15.3358 9 15 8.66421 15 8.25V7.5C15 7.08579 15.3358 6.75 15.75 6.75Z" fill="black"/>
<path d="M21 7.5C21 7.08579 20.6642 6.75 20.25 6.75C19.8358 6.75 19.5 7.08579 19.5 7.5V8.25C19.5 8.66421 19.8358 9 20.25 9C20.6642 9 21 8.66421 21 8.25V7.5Z" fill="black"/>
<path d="M15.75 10.5C16.1642 10.5 16.5 10.8358 16.5 11.25V12C16.5 12.4142 16.1642 12.75 15.75 12.75C15.3358 12.75 15 12.4142 15 12V11.25C15 10.8358 15.3358 10.5 15.75 10.5Z" fill="black"/>
<path d="M21 11.25C21 10.8358 20.6642 10.5 20.25 10.5C19.8358 10.5 19.5 10.8358 19.5 11.25V12C19.5 12.4142 19.8358 12.75 20.25 12.75C20.6642 12.75 21 12.4142 21 12V11.25Z" fill="black"/>
<path d="M15.75 14.25C16.1642 14.25 16.5 14.5858 16.5 15V15.75C16.5 16.1642 16.1642 16.5 15.75 16.5C15.3358 16.5 15 16.1642 15 15.75V15C15 14.5858 15.3358 14.25 15.75 14.25Z" fill="black"/>
<path d="M21 15C21 14.5858 20.6642 14.25 20.25 14.25C19.8358 14.25 19.5 14.5858 19.5 15V15.75C19.5 16.1642 19.8358 16.5 20.25 16.5C20.6642 16.5 21 16.1642 21 15.75V15Z" fill="black"/>
<path d="M15.75 18C16.1642 18 16.5 18.3358 16.5 18.75V19.5C16.5 19.9142 16.1642 20.25 15.75 20.25C15.3358 20.25 15 19.9142 15 19.5V18.75C15 18.3358 15.3358 18 15.75 18Z" fill="black"/>
<path d="M21 18.75C21 18.3358 20.6642 18 20.25 18C19.8358 18 19.5 18.3358 19.5 18.75V19.5C19.5 19.9142 19.8358 20.25 20.25 20.25C20.6642 20.25 21 19.9142 21 19.5V18.75Z" fill="black"/>
<path fill-rule="evenodd" clip-rule="evenodd" d="M12.5126 0.512563C12.8408 0.184374 13.2859 0 13.75 0H22.25C22.7141 0 23.1592 0.184374 23.4874 0.512563C23.8156 0.840753 24 1.28587 24 1.75V22.75C24 23.0815 23.8683 23.3995 23.6339 23.6339C23.3995 23.8683 23.0815 24 22.75 24H13.25C12.9185 24 12.6005 23.8683 12.3661 23.6339C12.1317 23.3995 12 23.0815 12 22.75V1.75C12 1.28587 12.1844 0.840752 12.5126 0.512563ZM13.75 1.5C13.6837 1.5 13.6201 1.52634 13.5732 1.57322C13.5263 1.62011 13.5 1.6837 13.5 1.75V22.5H22.5V1.75C22.5 1.68369 22.4737 1.62011 22.4268 1.57322C22.3799 1.52634 22.3163 1.5 22.25 1.5H13.75Z" fill="black"/>
<path d="M3.75 15C4.16421 15 4.5 15.3358 4.5 15.75V16.5C4.5 16.9142 4.16421 17.25 3.75 17.25C3.33579 17.25 3 16.9142 3 16.5V15.75C3 15.3358 3.33579 15 3.75 15Z" fill="black"/>
<path d="M7.5 15.75C7.5 15.3358 7.16421 15 6.75 15C6.33579 15 6 15.3358 6 15.75V16.5C6 16.9142 6.33579 17.25 6.75 17.25C7.16421 17.25 7.5 16.9142 7.5 16.5V15.75Z" fill="black"/>
<path d="M3.75 18.75C4.16421 18.75 4.5 19.0858 4.5 19.5V20.25C4.5 20.6642 4.16421 21 3.75 21C3.33579 21 3 20.6642 3 20.25V19.5C3 19.0858 3.33579 18.75 3.75 18.75Z" fill="black"/>
<path d="M7.5 19.5C7.5 19.0858 7.16421 18.75 6.75 18.75C6.33579 18.75 6 19.0858 6 19.5V20.25C6 20.6642 6.33579 21 6.75 21C7.16421 21 7.5 20.6642 7.5 20.25V19.5Z" fill="black"/>
<path fill-rule="evenodd" clip-rule="evenodd" d="M10.5 10.75C10.5 10.2859 10.3156 9.84075 9.98744 9.51256C9.65925 9.18437 9.21413 9 8.75 9H1.75C1.28587 9 0.840752 9.18437 0.512563 9.51256C0.184374 9.84075 0 10.2859 0 10.75V22.75C0 23.0815 0.131696 23.3995 0.366116 23.6339C0.600538 23.8683 0.918481 24 1.25 24H9.25C9.58152 24 9.89946 23.8683 10.1339 23.6339C10.3683 23.3995 10.5 23.0815 10.5 22.75V10.75ZM1.5 12H9V10.75C9 10.6837 8.97366 10.6201 8.92678 10.5732C8.87989 10.5263 8.8163 10.5 8.75 10.5H1.75C1.6837 10.5 1.62011 10.5263 1.57322 10.5732C1.52634 10.6201 1.5 10.6837 1.5 10.75V12ZM9 13.5H1.5V22.5H9V13.5Z" fill="black"/>
</svg>
