<svg width="24" height="24" viewBox="0 0 24 24" fill="none" xmlns="http://www.w3.org/2000/svg">
<path d="M24 1.5C24 1.08579 23.6642 0.75 23.25 0.75C22.8358 0.75 22.5 1.08579 22.5 1.5V22.5C22.5 22.9142 22.8358 23.25 23.25 23.25C23.6642 23.25 24 22.9142 24 22.5V1.5Z" fill="black"/>
<path d="M14.4697 7.71967C14.7626 7.42678 15.2374 7.42678 15.5303 7.71967L19.2803 11.4697C19.3522 11.5416 19.4065 11.6245 19.4431 11.7129C19.4798 11.8013 19.5 11.8983 19.5 12C19.5 12.1919 19.4268 12.3839 19.2803 12.5303L15.5303 16.2803C15.2374 16.5732 14.7626 16.5732 14.4697 16.2803C14.1768 15.9874 14.1768 15.5126 14.4697 15.2197L16.9393 12.75H0.75C0.335786 12.75 0 12.4142 0 12C0 11.5858 0.335786 11.25 0.75 11.25H16.9393L14.4697 8.78033C14.1768 8.48744 14.1768 8.01256 14.4697 7.71967Z" fill="black"/>
</svg>
