<svg width="24" height="24" viewBox="0 0 24 24" fill="none" xmlns="http://www.w3.org/2000/svg">
<g clip-path="url(#clip0_6126_30229)">
<path d="M12.0001 13.5999C11.4001 13.5999 10.8001 13.3999 10.4001 12.8999L5.10014 7.49992C4.40014 6.89992 4.00014 5.99992 3.80014 5.09992C3.60014 4.19992 3.80014 3.19992 4.20014 2.39992C4.60014 1.79992 5.00014 1.19992 5.60014 0.799924C6.20014 0.399924 6.90014 0.0999238 7.60014 -7.61561e-05C8.30014 -0.100076 9.00014 -7.61598e-05 9.70014 0.199924C10.4001 0.399924 11.0001 0.799924 11.5001 1.29992L12.0001 1.79992L12.5001 1.29992C13.0001 0.799924 13.6001 0.399924 14.3001 0.199924C15.0001 -7.61598e-05 15.7001 -0.100076 16.4001 0.0999238C17.1001 0.199924 17.8001 0.499924 18.3001 0.899924C18.9001 1.29992 19.4001 1.89992 19.7001 2.49992C20.1001 3.29992 20.3001 4.29992 20.1001 5.19992C20.0001 5.99992 19.6001 6.89992 18.9001 7.49992L13.6001 12.8999C13.2001 13.3999 12.6001 13.5999 12.0001 13.5999ZM8.30014 1.49992C8.10014 1.49992 8.00014 1.49992 7.80014 1.49992C7.40014 1.59992 6.90014 1.79992 6.50014 1.99992C6.10014 2.19992 5.80014 2.69992 5.60014 3.09992C5.30014 3.69992 5.20014 4.29992 5.30014 4.89992C5.40014 5.49992 5.70014 5.99992 6.10014 6.49992L11.4001 11.8999C11.7001 12.1999 12.2001 12.1999 12.5001 11.8999L17.8001 6.49992C18.2001 6.09992 18.5001 5.49992 18.6001 4.89992C18.7001 4.29992 18.6001 3.69992 18.3001 3.09992C18.1001 2.69992 17.8001 2.29992 17.4001 1.99992C17.0001 1.69992 16.6001 1.49992 16.1001 1.49992C15.6001 1.39992 15.1001 1.49992 14.7001 1.59992C14.3001 1.69992 13.9001 1.99992 13.5001 2.39992L12.5001 3.39992C12.2001 3.69992 11.7001 3.69992 11.4001 3.39992L10.4001 2.39992C10.1001 1.99992 9.70014 1.79992 9.30014 1.59992C8.90014 1.49992 8.60014 1.49992 8.30014 1.49992Z" fill="black"/>
<path d="M3.8 24C3.6 24 3.4 23.9 3.2 23.7L1.2 21.3C0.4 20.4 0 19.3 0 18.1V12.9C0 12.3 0.2 11.7 0.7 11.3C1.5 10.4 3 10.4 3.9 11.3C4.3 11.7 4.6 12.3 4.6 12.9V16.8C4.6 17.2 4.3 17.6 3.8 17.6C3.3 17.6 3 17.2 3 16.8V12.9C3 12.7 2.9 12.5 2.8 12.4C2.5 12.1 2 12.1 1.7 12.4C1.6 12.5 1.5 12.7 1.5 12.9V18.1C1.5 18.9 1.8 19.8 2.3 20.4L4.3 22.8C4.6 23.1 4.5 23.6 4.2 23.9C4.1 23.9 3.9 24 3.8 24Z" fill="black"/>
<path d="M8.20014 23.9999C7.80014 23.9999 7.40014 23.6999 7.40014 23.1999V20.1999C7.40014 19.4999 7.20014 18.6999 6.80014 18.0999L5.70014 16.2999C5.60014 16.1999 5.60014 16.0999 5.50014 16.0999C5.40014 15.9999 5.30014 15.9999 5.30014 15.9999C5.20014 15.9999 5.10014 15.9999 5.00014 15.9999C4.90014 15.9999 4.80014 16.0999 4.80014 16.0999C4.70014 16.1999 4.60014 16.2999 4.50014 16.4999C4.50014 16.6999 4.50014 16.7999 4.50014 16.9999L5.80014 19.1999C6.00014 19.5999 5.90014 19.9999 5.50014 20.1999C5.10014 20.3999 4.70014 20.2999 4.50014 19.8999L3.10014 17.6999C2.80014 17.1999 2.80014 16.5999 2.90014 16.0999C3.00014 15.5999 3.30014 15.1999 3.80014 14.8999C4.00014 14.6999 4.30014 14.5999 4.60014 14.5999C4.90014 14.4999 5.20014 14.4999 5.50014 14.5999C5.80014 14.6999 6.10014 14.7999 6.30014 14.9999C6.50014 15.1999 6.70014 15.3999 6.90014 15.6999L8.00014 17.3999C8.70014 18.1999 9.00014 19.1999 9.00014 20.2999V23.2999C9.00014 23.6999 8.70014 23.9999 8.20014 23.9999Z" fill="black"/>
<path d="M20.1998 23.9999C19.9998 23.9999 19.8998 23.8999 19.6998 23.7999C19.3998 23.4999 19.2998 23.0999 19.5998 22.6999L21.5998 20.2999C22.0998 19.6999 22.3998 18.7999 22.3998 17.9999V12.7999C22.3998 12.5999 22.2998 12.3999 22.1998 12.2999C21.8998 11.9999 21.3998 11.9999 21.0998 12.2999C20.9998 12.3999 20.8998 12.5999 20.8998 12.7999V16.6999C20.8998 17.0999 20.5998 17.4999 20.0998 17.4999C19.5998 17.4999 19.2998 17.1999 19.2998 16.6999V12.7999C19.2998 12.1999 19.4998 11.5999 19.9998 11.1999C20.7998 10.3999 22.2998 10.3999 23.1998 11.1999C23.5998 11.5999 23.8998 12.1999 23.8998 12.7999V17.9999C23.8998 19.1999 23.4998 20.3999 22.6998 21.2999L20.6998 23.6999C20.6998 23.8999 20.4998 23.9999 20.1998 23.9999Z" fill="black"/>
<path d="M15.8 23.9999C15.4 23.9999 15 23.6999 15 23.1999V20.1999C15 19.1999 15.3 18.0999 15.9 17.2999L17 15.5999C17.1 15.3999 17.3 15.1999 17.6 14.9999C17.8 14.7999 18.1 14.6999 18.4 14.5999C18.7 14.4999 19 14.4999 19.3 14.5999C19.6 14.6999 19.9 14.7999 20.1 14.8999C20.5 15.1999 20.8 15.5999 21 16.0999C21.1 16.5999 21.1 17.0999 20.8 17.5999L19.4 19.9999C19.2 20.3999 18.7 20.4999 18.4 20.2999C18 20.0999 17.9 19.5999 18.1 19.2999L19.5 17.0999C19.5 16.9999 19.6 16.7999 19.5 16.6999C19.5 16.4999 19.4 16.3999 19.2 16.2999C19.1 16.1999 19 16.1999 18.9 16.1999C18.8 16.1999 18.7 16.1999 18.6 16.1999C18.5 16.1999 18.4 16.2999 18.4 16.2999C18.3 16.3999 18.3 16.3999 18.2 16.4999L17 18.2999C16.6 18.8999 16.4 19.5999 16.4 20.3999V23.3999C16.5 23.6999 16.2 23.9999 15.8 23.9999Z" fill="black"/>
</g>
<defs>
<clipPath id="clip0_6126_30229">
<rect width="24" height="24" fill="white"/>
</clipPath>
</defs>
</svg>
