<svg width="24" height="24" viewBox="0 0 24 24" fill="none" xmlns="http://www.w3.org/2000/svg">
<path d="M12.0001 13.6402C11.4001 13.6402 10.8001 13.4402 10.4001 12.9402L5.10014 7.54021C4.40014 6.94021 4.00014 6.04021 3.80014 5.14021C3.60014 4.24021 3.80014 3.24021 4.20014 2.44021C4.60014 1.84021 5.00014 1.24021 5.60014 0.840207C6.20014 0.440207 6.90014 0.140207 7.60014 0.040207C8.30014 -0.059793 9.00014 0.040207 9.70014 0.240207C10.4001 0.440207 11.0001 0.840207 11.5001 1.34021L12.0001 1.84021L12.5001 1.34021C13.0001 0.840207 13.6001 0.440207 14.3001 0.240207C15.0001 0.040207 15.7001 -0.059793 16.4001 0.140207C17.1001 0.240207 17.8001 0.540207 18.3001 0.940207C18.9001 1.34021 19.4001 1.94021 19.7001 2.54021C20.1001 3.34021 20.3001 4.34021 20.1001 5.24021C20.0001 6.04021 19.6001 6.94021 18.9001 7.54021L13.6001 12.9402C13.2001 13.4402 12.6001 13.6402 12.0001 13.6402ZM8.30014 1.54021C8.10014 1.54021 8.00014 1.54021 7.80014 1.54021C7.40014 1.64021 6.90014 1.84021 6.50014 2.04021C6.10014 2.24021 5.80014 2.74021 5.60014 3.14021C5.30014 3.74021 5.20014 4.34021 5.30014 4.94021C5.40014 5.54021 5.70014 6.04021 6.10014 6.54021L11.4001 11.9402C11.7001 12.2402 12.2001 12.2402 12.5001 11.9402L17.8001 6.54021C18.2001 6.14021 18.5001 5.54021 18.6001 4.94021C18.7001 4.34021 18.6001 3.74021 18.3001 3.14021C18.1001 2.74021 17.8001 2.34021 17.4001 2.04021C17.0001 1.74021 16.6001 1.54021 16.1001 1.54021C15.6001 1.44021 15.1001 1.54021 14.7001 1.64021C14.3001 1.74021 13.9001 2.04021 13.5001 2.44021L12.5001 3.44021C12.2001 3.74021 11.7001 3.74021 11.4001 3.44021L10.4001 2.44021C10.1001 2.04021 9.70014 1.84021 9.30014 1.64021C8.90014 1.54021 8.60014 1.54021 8.30014 1.54021Z" fill="black"/>
<path d="M3.8 24.001C3.6 24.001 3.4 23.901 3.2 23.701L1.2 21.301C0.4 20.401 0 19.301 0 18.101V12.901C0 12.301 0.2 11.701 0.7 11.301C1.5 10.401 3 10.401 3.9 11.301C4.3 11.701 4.6 12.301 4.6 12.901V16.801C4.6 17.201 4.3 17.601 3.8 17.601C3.3 17.601 3 17.201 3 16.801V12.901C3 12.701 2.9 12.501 2.8 12.401C2.5 12.101 2 12.101 1.7 12.401C1.6 12.501 1.5 12.701 1.5 12.901V18.101C1.5 18.901 1.8 19.801 2.3 20.401L4.3 22.801C4.6 23.101 4.5 23.601 4.2 23.901C4.1 23.901 3.9 24.001 3.8 24.001Z" fill="black"/>
<path d="M8.20014 24.0009C7.80014 24.0009 7.40014 23.7009 7.40014 23.2009V20.2009C7.40014 19.5009 7.20014 18.7009 6.80014 18.1009L5.70014 16.3009C5.60014 16.2009 5.60014 16.1009 5.50014 16.1009C5.40014 16.0009 5.30014 16.0009 5.30014 16.0009C5.20014 16.0009 5.10014 16.0009 5.00014 16.0009C4.90014 16.0009 4.80014 16.1009 4.80014 16.1009C4.70014 16.2009 4.60014 16.3009 4.50014 16.5009C4.50014 16.7009 4.50014 16.8009 4.50014 17.0009L5.80014 19.2009C6.00014 19.6009 5.90014 20.0009 5.50014 20.2009C5.10014 20.4009 4.70014 20.3009 4.50014 19.9009L3.10014 17.7009C2.80014 17.2009 2.80014 16.6009 2.90014 16.1009C3.00014 15.6009 3.30014 15.2009 3.80014 14.9009C4.00014 14.7009 4.30014 14.6009 4.60014 14.6009C4.90014 14.5009 5.20014 14.5009 5.50014 14.6009C5.80014 14.7009 6.10014 14.8009 6.30014 15.0009C6.50014 15.2009 6.70014 15.4009 6.90014 15.7009L8.00014 17.4009C8.70014 18.2009 9.00014 19.2009 9.00014 20.3009V23.3009C9.00014 23.7009 8.70014 24.0009 8.20014 24.0009Z" fill="black"/>
<path d="M20.1998 24.0008C19.9998 24.0008 19.8998 23.9008 19.6998 23.8008C19.3998 23.5008 19.2998 23.1008 19.5998 22.7008L21.5998 20.3008C22.0998 19.7008 22.3998 18.8008 22.3998 18.0008V12.8008C22.3998 12.6008 22.2998 12.4008 22.1998 12.3008C21.8998 12.0008 21.3998 12.0008 21.0998 12.3008C20.9998 12.4008 20.8998 12.6008 20.8998 12.8008V16.7008C20.8998 17.1008 20.5998 17.5008 20.0998 17.5008C19.5998 17.5008 19.2998 17.2008 19.2998 16.7008V12.8008C19.2998 12.2008 19.4998 11.6008 19.9998 11.2008C20.7998 10.4008 22.2998 10.4008 23.1998 11.2008C23.5998 11.6008 23.8998 12.2008 23.8998 12.8008V18.0008C23.8998 19.2008 23.4998 20.4008 22.6998 21.3008L20.6998 23.7008C20.6998 23.9008 20.4998 24.0008 20.1998 24.0008Z" fill="black"/>
<path d="M15.8 24.0009C15.4 24.0009 15 23.7009 15 23.2009V20.2009C15 19.2009 15.3 18.1009 15.9 17.3009L17 15.6009C17.1 15.4009 17.3 15.2009 17.6 15.0009C17.8 14.8009 18.1 14.7009 18.4 14.6009C18.7 14.5009 19 14.5009 19.3 14.6009C19.6 14.7009 19.9 14.8009 20.1 14.9009C20.5 15.2009 20.8 15.6009 21 16.1009C21.1 16.6009 21.1 17.1009 20.8 17.6009L19.4 20.0009C19.2 20.4009 18.7 20.5009 18.4 20.3009C18 20.1009 17.9 19.6009 18.1 19.3009L19.5 17.1009C19.5 17.0009 19.6 16.8009 19.5 16.7009C19.5 16.5009 19.4 16.4009 19.2 16.3009C19.1 16.2009 19 16.2009 18.9 16.2009C18.8 16.2009 18.7 16.2009 18.6 16.2009C18.5 16.2009 18.4 16.3009 18.4 16.3009C18.3 16.4009 18.3 16.4009 18.2 16.5009L17 18.3009C16.6 18.9009 16.4 19.6009 16.4 20.4009V23.4009C16.5 23.7009 16.2 24.0009 15.8 24.0009Z" fill="black"/>
</svg>
