<svg width="24" height="25" viewBox="0 0 24 25" fill="none" xmlns="http://www.w3.org/2000/svg">
<path fill-rule="evenodd" clip-rule="evenodd" d="M20.1023 2.30945C19.9469 2.3063 19.794 2.34853 19.6623 2.43097L3.48842 12.5415C3.34116 12.6336 3.22787 12.771 3.16566 12.9332C3.10344 13.0953 3.09569 13.2733 3.14357 13.4402C3.19145 13.6072 3.29236 13.754 3.43106 13.8585C3.56975 13.963 3.73869 14.0195 3.91235 14.0195H11.2112C11.4179 14.0195 11.6125 14.1169 11.7364 14.2823L16.2951 20.3678C16.2951 20.3679 16.295 20.3677 16.2951 20.3678C16.3882 20.4917 16.5155 20.5862 16.6612 20.6392C16.807 20.6923 16.9651 20.7018 17.1161 20.6666C17.2672 20.6314 17.4048 20.553 17.5122 20.441C17.6195 20.329 17.6919 20.1882 17.7206 20.0358C17.7206 20.0358 17.7206 20.0359 17.7206 20.0358L20.8708 3.25862L20.871 3.25728C20.9 3.10461 20.8839 2.94681 20.8245 2.80319C20.7652 2.65957 20.6653 2.53637 20.537 2.44867C20.4087 2.36098 20.2577 2.31259 20.1023 2.30945ZM18.9663 1.31813C19.3144 1.10038 19.7184 0.988828 20.1289 0.997137C20.5395 1.00545 20.9387 1.13332 21.2778 1.36509C21.6168 1.59687 21.8809 1.92248 22.0377 2.30206C22.1944 2.68136 22.2371 3.09809 22.1607 3.50128C22.1607 3.50158 22.1606 3.50188 22.1606 3.50218L19.0106 20.2782C18.9348 20.6809 18.7434 21.0532 18.4599 21.3491C18.1764 21.6449 17.813 21.8519 17.414 21.9449C17.0149 22.0379 16.5974 22.0128 16.2124 21.8727C15.8273 21.7326 15.4913 21.4835 15.2453 21.1558L10.8828 15.3321H3.91233C3.45367 15.3321 3.00747 15.1828 2.64116 14.9068C2.27484 14.6307 2.00832 14.243 1.88186 13.8021C1.7554 13.3612 1.77588 12.8912 1.9402 12.4629C2.10451 12.0347 2.40374 11.6716 2.79267 11.4285L18.9663 1.31813C18.9662 1.31819 18.9664 1.31807 18.9663 1.31813Z" fill="black"/>
<path fill-rule="evenodd" clip-rule="evenodd" d="M8.36713 14.6758C8.36713 14.3134 8.66096 14.0195 9.02342 14.0195H11.2111C11.4178 14.0195 11.6125 14.117 11.7364 14.2825L14.6049 18.1144C14.7122 18.2578 14.7563 18.4388 14.7269 18.6155C14.6974 18.7921 14.5971 18.9491 14.4491 19.05L11.6683 20.9452C11.6683 20.9453 11.6684 20.9452 11.6683 20.9452C11.3511 21.1616 10.9806 21.2874 10.5972 21.309C10.2137 21.3306 9.83165 21.2471 9.49207 21.0677C9.15249 20.8882 8.86829 20.6195 8.67007 20.2906C8.47185 19.9616 8.36711 19.5848 8.36713 19.2007C8.36713 19.2007 8.36713 19.2007 8.36713 19.2007V14.6758ZM9.67971 15.3321V19.2007C9.6797 19.346 9.71933 19.4887 9.79433 19.6131C9.86933 19.7376 9.97686 19.8393 10.1053 19.9072C10.2338 19.9751 10.3784 20.0066 10.5235 19.9985C10.6686 19.9903 10.8087 19.9427 10.9288 19.8608L13.143 18.3518L10.8825 15.3321H9.67971Z" fill="black"/>
<path fill-rule="evenodd" clip-rule="evenodd" d="M21.3028 1.38611C21.5915 1.60532 21.6477 2.01703 21.4285 2.30569L11.7329 15.0727C11.5137 15.3614 11.102 15.4177 10.8134 15.1985C10.5247 14.9792 10.4684 14.5675 10.6876 14.2789L20.3832 1.51185C20.6024 1.22319 21.0141 1.1669 21.3028 1.38611Z" fill="black"/>
<path fill-rule="evenodd" clip-rule="evenodd" d="M8.25568 21.9543C8.58471 22.2059 8.64747 22.6767 8.39585 23.0057L7.0958 24.7057C6.84418 25.0347 6.37347 25.0975 6.04444 24.8459C5.71541 24.5942 5.65266 24.1235 5.90428 23.7945L7.20433 22.0945C7.45595 21.7655 7.92665 21.7027 8.25568 21.9543Z" fill="#29D305"/>
<path fill-rule="evenodd" clip-rule="evenodd" d="M6.55573 17.4043C6.88476 17.6559 6.94752 18.1266 6.6959 18.4556L5.39585 20.1556C5.14423 20.4847 4.67352 20.5474 4.34449 20.2958C4.01546 20.0442 3.95271 19.5735 4.20433 19.2445L5.50437 17.5444C5.75599 17.2154 6.2267 17.1527 6.55573 17.4043Z" fill="#29D305"/>
<path fill-rule="evenodd" clip-rule="evenodd" d="M13.5557 21.4043C13.8848 21.6559 13.9475 22.1266 13.6959 22.4556L12.3958 24.1556C12.1442 24.4847 11.6735 24.5474 11.3445 24.2958C11.0155 24.0442 10.9527 23.5735 11.2043 23.2445L12.5044 21.5444C12.756 21.2154 13.2267 21.1527 13.5557 21.4043Z" fill="#29D305"/>
</svg>
