<svg width="24" height="25" viewBox="0 0 24 25" fill="none" xmlns="http://www.w3.org/2000/svg">
<path fill-rule="evenodd" clip-rule="evenodd" d="M20.8099 2.60823C20.794 2.61692 20.7783 2.6261 20.7628 2.63576L2.27953 14.19C2.11124 14.2952 1.98177 14.4523 1.91067 14.6376C1.83958 14.8228 1.83072 15.0262 1.88543 15.217C1.94015 15.4078 2.05547 15.5755 2.21397 15.695C2.37247 15.8144 2.56553 15.879 2.76399 15.879H10.7318L20.8099 2.60823ZM22.1554 3.31666L12.0439 16.6314L16.9148 23.1337C17.0212 23.2754 17.1667 23.3833 17.3332 23.4439C17.4998 23.5045 17.6804 23.5154 17.8531 23.4752C18.0258 23.4349 18.183 23.3454 18.3057 23.2173C18.4283 23.0894 18.5111 22.9285 18.5439 22.7544L22.1439 3.58159L22.1441 3.58006C22.1607 3.4928 22.1644 3.40409 22.1554 3.31666ZM15.7152 24.0343L14.2143 22.0306L11.6276 23.7936C11.265 24.0409 10.8417 24.1847 10.4035 24.2093C9.96527 24.234 9.52862 24.1386 9.14055 23.9335C8.75249 23.7285 8.4277 23.4214 8.20117 23.0455C7.97465 22.6695 7.85496 22.2389 7.85498 21.8V17.379H2.76396C2.23981 17.379 1.7299 17.2084 1.31128 16.8929C0.892665 16.5775 0.588088 16.1344 0.443572 15.6306C0.299057 15.1267 0.322456 14.5895 0.510235 14.1002C0.698014 13.6108 1.03997 13.1959 1.48443 12.918L19.9674 1.36403C20.3652 1.11518 20.8269 0.987704 21.296 0.997198C21.7652 1.0067 22.2215 1.15283 22.609 1.41769C22.9964 1.68256 23.2982 2.05467 23.4774 2.48845C23.6565 2.92191 23.7053 3.39814 23.618 3.85891L23.6178 3.85993L20.0181 23.0314C19.9314 23.4916 19.7127 23.917 19.3888 24.2551C19.0648 24.5932 18.6495 24.8298 18.1935 24.936C17.7374 25.0423 17.2603 25.0136 16.8203 24.8535C16.3803 24.6934 15.9963 24.4087 15.7152 24.0343ZM9.35498 17.379V21.8C9.35497 21.9661 9.40026 22.1291 9.48597 22.2713C9.57168 22.4136 9.69456 22.5297 9.8414 22.6073C9.98823 22.6849 10.1534 22.721 10.3193 22.7117C10.4851 22.7024 10.6452 22.648 10.7824 22.5544L13.3127 20.8298L10.7296 17.379H9.35498Z" fill="black"/>
</svg>
