<svg width="24" height="25" fill="none" xmlns="http://www.w3.org/2000/svg"><path fill-rule="evenodd" clip-rule="evenodd" d="M20.81 2.608a.955.955 0 00-.047.028L2.28 14.19a.914.914 0 00.484 1.689h7.968L20.81 2.609zm1.345.709L12.044 16.63l4.87 6.503a.915.915 0 001.63-.38l3.6-19.172V3.58a.91.91 0 00.011-.263zm-6.44 20.717l-1.5-2.003-2.587 1.763A2.413 2.413 0 017.855 21.8v-4.421H2.764a2.414 2.414 0 01-1.28-4.461L19.967 1.364a2.413 2.413 0 013.651 2.495l-3.6 19.172a2.416 2.416 0 01-3.198 1.823 2.414 2.414 0 01-1.105-.82zm-6.36-6.655V21.8a.913.913 0 001.427.754l2.53-1.724-2.582-3.451H9.354z" fill="#000"/></svg>