<svg width="24" height="24" viewBox="0 0 24 24" fill="none" xmlns="http://www.w3.org/2000/svg">
<path fill-rule="evenodd" clip-rule="evenodd" d="M15.8199 23.0354L14.2746 21.0319L11.6113 22.7948C11.238 23.042 10.8021 23.1858 10.351 23.2104C9.89981 23.235 9.45023 23.1397 9.05069 22.9347C8.65114 22.7296 8.31674 22.4226 8.08351 22.0467C7.85029 21.6708 7.72705 21.2402 7.72707 20.8013V16.3807H2.4854C1.94573 16.3807 1.42073 16.2101 0.989724 15.8947C0.558718 15.5793 0.245127 15.1362 0.0963352 14.6325C-0.052457 14.1287 -0.0283649 13.5915 0.164971 13.1022C0.358307 12.6129 0.71038 12.198 1.16799 11.9202L20.198 0.367288C20.6075 0.118467 21.0829 -0.00899938 21.5659 0.000494197C22.049 0.00999034 22.5188 0.156107 22.9177 0.42095C23.3166 0.685792 23.6273 1.05786 23.8118 1.4916C23.9962 1.92502 24.0465 2.40121 23.9566 2.86193L23.9564 2.86295L20.2501 22.0326C20.1609 22.4927 19.9357 22.9181 19.6022 23.2562C19.2686 23.5942 18.841 23.8308 18.3715 23.937C17.902 24.0433 17.4107 24.0146 16.9577 23.8545C16.5046 23.6944 16.1093 23.4098 15.8199 23.0354ZM21.0654 1.61137C21.049 1.62006 21.0328 1.62924 21.0169 1.6389L1.98662 13.192C1.81336 13.2972 1.68005 13.4543 1.60685 13.6395C1.53365 13.8248 1.52453 14.0282 1.58086 14.2189C1.6372 14.4097 1.75593 14.5774 1.91912 14.6969C2.08231 14.8163 2.28109 14.8809 2.48542 14.8809H10.689L21.0654 1.61137ZM22.4507 2.31973L12.0399 15.6332L17.055 22.1349C17.1645 22.2765 17.3144 22.3845 17.4858 22.4451C17.6573 22.5057 17.8433 22.5165 18.0211 22.4763C18.1989 22.4361 18.3608 22.3465 18.487 22.2185C18.6133 22.0906 18.6985 21.9297 18.7323 21.7556L22.4388 2.58464L22.4391 2.5831C22.4562 2.49586 22.4599 2.40715 22.4507 2.31973ZM9.27146 16.3808V20.8013C9.27145 20.9674 9.31808 21.1304 9.40633 21.2726C9.49457 21.4148 9.62109 21.531 9.77227 21.6086C9.92345 21.6862 10.0936 21.7222 10.2643 21.7129C10.435 21.7036 10.5999 21.6492 10.7411 21.5556L13.3463 19.8312L10.6867 16.3808H9.27146Z" fill="black"/>
<path d="M18.5 12L17 18.5" stroke="#29D305" stroke-width="1.5" stroke-linecap="round"/>
</svg>
