<svg width="24" height="24" viewBox="0 0 24 24" fill="none" xmlns="http://www.w3.org/2000/svg">
<path fill-rule="evenodd" clip-rule="evenodd" d="M20.1024 1.31059C19.947 1.30745 19.7941 1.34961 19.6624 1.43191L3.48849 11.5258C3.34123 11.6177 3.22793 11.755 3.16572 11.9168C3.1035 12.0787 3.09575 12.2564 3.14363 12.4231C3.19151 12.5897 3.29242 12.7363 3.43112 12.8406C3.56981 12.945 3.73875 13.0014 3.91242 13.0014H11.2112C11.4179 13.0014 11.6126 13.0986 11.7365 13.2638L16.2951 19.3392C16.295 19.3391 16.2952 19.3393 16.2951 19.3392C16.3882 19.463 16.5156 19.5573 16.6613 19.6102C16.807 19.6632 16.9651 19.6727 17.1162 19.6375C17.2673 19.6024 17.4049 19.5241 17.5122 19.4123C17.6195 19.3005 17.6919 19.16 17.7207 19.0078C17.7207 19.0079 17.7207 19.0078 17.7207 19.0078L20.8708 2.25819L20.8711 2.25685C20.9001 2.10444 20.8839 1.9469 20.8246 1.80351C20.7653 1.66013 20.6654 1.53713 20.5371 1.44958C20.4088 1.36203 20.2577 1.31373 20.1024 1.31059ZM18.9663 0.320899C19.3144 0.103505 19.7184 -0.00786274 20.1289 0.000431779C20.5395 0.00872854 20.9388 0.136391 21.2778 0.367783C21.6169 0.599175 21.881 0.924254 22.0378 1.30321C22.1944 1.68189 22.2372 2.09793 22.1608 2.50046C22.1607 2.50076 22.1609 2.50016 22.1608 2.50046L19.0107 19.2498C18.9348 19.6518 18.7435 20.0235 18.46 20.3189C18.1765 20.6143 17.8131 20.8209 17.414 20.9138C17.015 21.0066 16.5975 20.9815 16.2124 20.8416C15.8274 20.7018 15.4914 20.4531 15.2454 20.126L10.8828 14.3118H3.91239C3.45373 14.3118 3.00753 14.1628 2.64122 13.8872C2.2749 13.6116 2.00838 13.2245 1.88192 12.7844C1.75547 12.3442 1.77594 11.8749 1.94026 11.4474C2.10457 11.0199 2.4038 10.6574 2.79273 10.4146L18.9663 0.320899C18.9664 0.320842 18.9663 0.320956 18.9663 0.320899Z" fill="black"/>
<path fill-rule="evenodd" clip-rule="evenodd" d="M8.36719 13.6566C8.36719 13.2948 8.66102 13.0014 9.02348 13.0014L11.2112 13.0014C11.4179 13.0014 11.6126 13.0986 11.7365 13.2638L14.6049 17.0895C14.7123 17.2327 14.7563 17.4134 14.7269 17.5898C14.6975 17.7662 14.5972 17.9229 14.4492 18.0236L11.6684 19.9157C11.6683 19.9158 11.6685 19.9157 11.6684 19.9157C11.3511 20.1317 10.9807 20.2573 10.5973 20.2789C10.2138 20.3004 9.83171 20.2171 9.49213 20.038C9.15255 19.8588 8.86835 19.5906 8.67013 19.2621C8.47191 18.9337 8.36717 18.5575 8.36719 18.1741C8.36719 18.1741 8.36719 18.1741 8.36719 18.1741V13.6566ZM9.67977 14.3118V18.1741C9.67976 18.3192 9.71939 18.4616 9.79439 18.5858C9.86939 18.7101 9.97692 18.8116 10.1054 18.8794C10.2339 18.9472 10.3785 18.9787 10.5236 18.9705C10.6687 18.9624 10.8088 18.9149 10.9288 18.8331L13.143 17.3265L10.8828 14.3118L9.67977 14.3118Z" fill="black"/>
<path fill-rule="evenodd" clip-rule="evenodd" d="M21.3029 0.388765C21.5915 0.607617 21.6478 1.01865 21.4286 1.30683L11.733 14.0529C11.5138 14.3411 11.1021 14.3973 10.8134 14.1784C10.5248 13.9596 10.4685 13.5485 10.6877 13.2603L20.3833 0.514297C20.6025 0.226115 21.0142 0.169912 21.3029 0.388765Z" fill="black"/>
<path fill-rule="evenodd" clip-rule="evenodd" d="M8.22697 21.06C8.55768 21.3029 8.62075 21.7572 8.36785 22.0748L7.06117 23.7157C6.80826 24.0333 6.33515 24.0939 6.00444 23.851C5.67373 23.6081 5.61066 23.1538 5.86356 22.8362L7.17024 21.1953C7.42315 20.8777 7.89626 20.8172 8.22697 21.06Z" fill="#29D305"/>
<path fill-rule="evenodd" clip-rule="evenodd" d="M6.51847 16.3755C6.84918 16.6183 6.91226 17.0727 6.65935 17.3903L5.35267 19.0311C5.09977 19.3487 4.62665 19.4093 4.29595 19.1664C3.96524 18.9236 3.90216 18.4692 4.15506 18.1516L5.46175 16.5108C5.71465 16.1932 6.18776 16.1326 6.51847 16.3755Z" fill="#29D305"/>
<path fill-rule="evenodd" clip-rule="evenodd" d="M13.5541 20.4939C13.8848 20.7367 13.9479 21.1911 13.695 21.5087L12.3883 23.1496C12.1354 23.4671 11.6623 23.5277 11.3316 23.2848C11.0009 23.042 10.9378 22.5876 11.1907 22.2701L12.4974 20.6292C12.7503 20.3116 13.2234 20.251 13.5541 20.4939Z" fill="#29D305"/>
</svg>
