<svg width="24" height="24" viewBox="0 0 24 24" fill="none" xmlns="http://www.w3.org/2000/svg">
<path d="M22.2098 10.9425H21.9373C21.2698 10.9425 20.5573 11.31 19.9523 11.9325V9.6875C19.9523 9.2725 19.6173 8.9375 19.2023 8.9375C18.7873 8.9375 18.4523 9.2725 18.4523 9.6875V11.9325C17.8473 11.3125 17.1348 10.9425 16.4673 10.9425H16.1948C15.7798 10.9425 15.4448 11.2775 15.4448 11.6925C15.4448 12.1075 15.7798 12.4425 16.1948 12.4425H16.4673C17.3148 12.4425 18.4523 14.1 18.4523 15.795V21.3575C18.4523 21.7725 18.7873 22.1075 19.2023 22.1075C19.6173 22.1075 19.9523 21.7725 19.9523 21.3575V15.795C19.9523 14.1 21.0898 12.4425 21.9373 12.4425H22.2098C22.6248 12.4425 22.9598 12.1075 22.9598 11.6925C22.9598 11.2775 22.6248 10.9425 22.2098 10.9425Z" fill="black"/>
<path d="M14.715 8.95747C14.5775 8.73747 14.3375 8.60247 14.0775 8.60247H7.84253V7.78247C7.84253 7.36747 7.50753 7.03247 7.09253 7.03247C6.67753 7.03247 6.34253 7.36747 6.34253 7.78247V8.58747C5.79003 8.52747 5.32503 8.27497 5.09753 7.89497C4.88503 7.53997 4.42503 7.42497 4.06753 7.63747C3.71253 7.84997 3.59753 8.31247 3.81003 8.66747C4.34003 9.55247 5.40503 10.1 6.59003 10.1H8.18253L6.51753 12.0725C6.48003 12.115 6.45003 12.1625 6.42503 12.21L2.32253 15.765C2.32253 15.765 2.30753 15.78 2.30003 15.7875C2.29503 15.7925 2.29003 15.795 2.28503 15.8C2.13003 15.955 1.92503 16.0425 1.73003 16.035C1.56503 16.03 1.42253 15.9625 1.30753 15.8325C1.03253 15.5225 0.557527 15.495 0.247527 15.77C-0.0624726 16.045 -0.0899726 16.52 0.185027 16.83C0.572527 17.265 1.10003 17.515 1.67253 17.535L0.610027 19.1875C0.537527 19.3025 0.495027 19.4325 0.490027 19.57L0.422527 21.6775C0.422527 23.2 1.33753 23.995 2.24253 23.995C2.65503 23.995 2.98753 23.66 2.99003 23.2475C2.99003 22.835 2.65503 22.4975 2.24253 22.495C2.17253 22.495 1.92253 22.2975 1.92253 21.7L1.98253 19.8225L2.77503 18.59L3.13253 19.66V21.0825C3.04503 22.5925 4.15503 23.895 5.61503 23.9925C5.63253 23.9925 5.64753 23.9925 5.66503 23.9925H6.02253C6.43753 23.9925 6.77253 23.6575 6.77253 23.2425C6.77253 22.8275 6.43753 22.4925 6.02253 22.4925H5.69503C5.07253 22.4375 4.58753 21.83 4.63253 21.155C4.63253 21.1375 4.63253 21.1225 4.63253 21.105V19.815L7.52753 17.3725L10.8125 15.4C10.975 16.7425 10.6575 17.0225 10.3025 17.335C9.99003 17.6075 9.96003 18.0825 10.2325 18.3925C10.38 18.5625 10.5875 18.6475 10.7975 18.6475C10.9725 18.6475 11.15 18.5875 11.29 18.4625C12.1225 17.7325 12.7125 16.945 12.1 14.0375C12.1 14.035 12.1 14.0325 12.0975 14.03C12.0875 13.9875 12.075 13.945 12.0575 13.9025C12.0525 13.8925 12.0475 13.8825 12.0425 13.8725C12.0275 13.8425 12.0125 13.8125 11.995 13.785C11.9875 13.775 11.98 13.7625 11.9725 13.7525C11.9475 13.7175 11.92 13.685 11.89 13.655C11.8875 13.6525 11.8825 13.65 11.88 13.645C11.8525 13.6175 11.8225 13.595 11.79 13.5725C11.78 13.565 11.7675 13.5575 11.7575 13.5525C11.73 13.535 11.7025 13.52 11.6725 13.5075C11.6625 13.5025 11.65 13.4975 11.64 13.4925C11.635 13.4925 11.6325 13.4875 11.6275 13.4875L8.31253 12.2725L8.34503 12.235H11.94C12.3 12.235 13.565 12.05 14.75 9.68247C14.865 9.44997 14.855 9.17497 14.7175 8.95247L14.715 8.95747ZM6.70753 16.125C6.67253 16.145 6.64003 16.17 6.61003 16.195L4.23003 18.2025L3.68753 16.5775L7.25003 13.49L9.63753 14.365L6.70503 16.125H6.70753ZM11.94 10.74H9.61253L10.15 10.1025H12.7075C12.4025 10.48 12.1075 10.74 11.94 10.74Z" fill="black"/>
<path d="M23.9725 15.2325L19.9625 0.5525C19.8725 0.2275 19.5775 0 19.24 0H19.1475C18.81 0 18.5125 0.225 18.425 0.5525L14.41 15.2475C14.1325 16.36 14.71 17.46 15.785 17.865C15.87 17.8975 15.9575 17.9125 16.0475 17.9125H21.8825C23.03 17.9125 24 16.9425 24 15.795V15.43C24 15.3625 23.99 15.2975 23.9725 15.2325ZM22.5 15.795C22.5 16.1125 22.2 16.4125 21.8825 16.4125H16.205C15.915 16.255 15.7775 15.9475 15.8575 15.6275L19.1925 3.4275L22.5 15.53V15.795Z" fill="#29D305"/>
</svg>
