<svg width="24" height="24" viewBox="0 0 24 24" fill="none" xmlns="http://www.w3.org/2000/svg">
<path d="M9.58406 7.31708H8.74326C8.2789 7.31708 7.90247 7.69352 7.90247 8.15788V15.7251C7.90247 16.1894 8.2789 16.5659 8.74326 16.5659H9.58406C10.0484 16.5659 10.4249 16.1894 10.4249 15.7251V8.15788C10.4249 7.69352 10.0484 7.31708 9.58406 7.31708Z" fill="black"/>
<path d="M14.8523 7.31708H14.0115C13.5471 7.31708 13.1707 7.69352 13.1707 8.15788V15.7251C13.1707 16.1894 13.5471 16.5659 14.0115 16.5659H14.8523C15.3167 16.5659 15.6931 16.1894 15.6931 15.7251V8.15788C15.6931 7.69352 15.3167 7.31708 14.8523 7.31708Z" fill="black"/>
<path fill-rule="evenodd" clip-rule="evenodd" d="M12 1.7561C6.34245 1.7561 1.7561 6.34245 1.7561 12C1.7561 17.6576 6.34245 22.2439 12 22.2439C17.6576 22.2439 22.2439 17.6576 22.2439 12C22.2439 6.34245 17.6576 1.7561 12 1.7561ZM0 12C0 5.37258 5.37258 0 12 0C18.6274 0 24 5.37258 24 12C24 18.6274 18.6274 24 12 24C5.37258 24 0 18.6274 0 12Z" fill="#29D305"/>
</svg>
