<svg width="24" height="25" viewBox="0 0 24 25" fill="none" xmlns="http://www.w3.org/2000/svg">
<path fill-rule="evenodd" clip-rule="evenodd" d="M0 12.0275C0 5.40011 5.37258 0.0275269 12 0.0275269C18.6274 0.0275269 24 5.40011 24 12.0275C24 18.6549 18.6274 24.0275 12 24.0275C5.37258 24.0275 0 18.6549 0 12.0275Z" fill="#29D305"/>
<path d="M9.58406 7.3446H8.74326C8.2789 7.3446 7.90247 7.72104 7.90247 8.1854V15.7526C7.90247 16.2169 8.2789 16.5934 8.74326 16.5934H9.58406C10.0484 16.5934 10.4249 16.2169 10.4249 15.7526V8.1854C10.4249 7.72104 10.0484 7.3446 9.58406 7.3446Z" fill="black"/>
<path d="M14.8523 7.3446H14.0115C13.5471 7.3446 13.1707 7.72104 13.1707 8.1854V15.7526C13.1707 16.2169 13.5471 16.5934 14.0115 16.5934H14.8523C15.3167 16.5934 15.6931 16.2169 15.6931 15.7526V8.1854C15.6931 7.72104 15.3167 7.3446 14.8523 7.3446Z" fill="black"/>
</svg>
