<svg width="24" height="24" viewBox="0 0 24 24" fill="none" xmlns="http://www.w3.org/2000/svg">
<path fill-rule="evenodd" clip-rule="evenodd" d="M0 12C0 5.37258 5.37258 0 12 0C18.6274 0 24 5.37258 24 12C24 18.6274 18.6274 24 12 24C5.37258 24 0 18.6274 0 12Z" fill="#29D305"/>
<path d="M9.6816 7.37H8.8408C8.37644 7.37 8 7.74643 8 8.21079V15.778C8 16.2423 8.37644 16.6188 8.8408 16.6188H9.6816C10.146 16.6188 10.5224 16.2423 10.5224 15.778V8.21079C10.5224 7.74643 10.146 7.37 9.6816 7.37Z" fill="black"/>
<path d="M14.9498 7.37H14.109C13.6447 7.37 13.2682 7.74643 13.2682 8.21079V15.778C13.2682 16.2423 13.6447 16.6188 14.109 16.6188H14.9498C15.4142 16.6188 15.7906 16.2423 15.7906 15.778V8.21079C15.7906 7.74643 15.4142 7.37 14.9498 7.37Z" fill="black"/>
</svg>
