<svg width="24" height="24" fill="none" xmlns="http://www.w3.org/2000/svg"><path fill-rule="evenodd" clip-rule="evenodd" d="M2.25 1.5a.75.75 0 00-.75.75v19.465c0 .217.091.437.22.565.14.141.331.22.53.22h2.243a.75.75 0 010 1.5H2.25a2.25 2.25 0 01-1.591-.659A2.332 2.332 0 010 21.715V2.25A2.25 2.25 0 012.25 0h11.618a2.25 2.25 0 011.592.66l5.87 5.87a2.251 2.251 0 01.66 1.592v4.628a.75.75 0 01-1.5 0V8.122a.752.752 0 00-.22-.53L14.399 1.72a.752.752 0 00-.53-.22H2.25z" fill="#000"/><path fill-rule="evenodd" clip-rule="evenodd" d="M13.74 0a.75.75 0 01.75.75v6a.75.75 0 00.75.75h6a.75.75 0 010 1.5h-6a2.25 2.25 0 01-2.25-2.25v-6a.75.75 0 01.75-.75zM8.24 15a.75.75 0 01.75.75v7.5a.75.75 0 01-1.5 0v-7.5a.75.75 0 01.75-.75z" fill="#000"/><path fill-rule="evenodd" clip-rule="evenodd" d="M7.49 15.75a.75.75 0 01.75-.75h.753a3 3 0 010 6h-.75a.75.75 0 010-1.5h.75a1.5 1.5 0 100-3H8.24a.75.75 0 01-.75-.75zM13.49 15.75a.75.75 0 01.75-.75 3.75 3.75 0 013.75 3.75v1.5A3.75 3.75 0 0114.24 24a.75.75 0 01-.75-.75v-7.5zm1.5.879v5.742a2.25 2.25 0 001.5-2.121v-1.5a2.25 2.25 0 00-1.5-2.121zM21.74 16.5a.75.75 0 00-.75.75v6a.75.75 0 01-1.5 0v-6A2.25 2.25 0 0121.74 15h1.5a.75.75 0 010 1.5h-1.5z" fill="#000"/><path fill-rule="evenodd" clip-rule="evenodd" d="M19.49 20.25a.75.75 0 01.75-.75h2.25a.75.75 0 010 1.5h-2.25a.75.75 0 01-.75-.75z" fill="#000"/></svg>