<svg width="24" height="24" viewBox="0 0 24 24" fill="none" xmlns="http://www.w3.org/2000/svg">
<path fill-rule="evenodd" clip-rule="evenodd" d="M2.25 1.5C2.05109 1.5 1.86032 1.57902 1.71967 1.71967C1.57902 1.86032 1.5 2.05109 1.5 2.25V21.7151C1.5 21.9321 1.59135 22.152 1.71967 22.2803C1.86032 22.421 2.05109 22.5 2.25 22.5H4.49325C4.90747 22.5 5.24325 22.8358 5.24325 23.25C5.24325 23.6642 4.90747 24 4.49325 24H2.25C1.65326 24 1.08097 23.7629 0.65901 23.341C0.224724 22.9067 0 22.2937 0 21.7151V2.25C0 1.65326 0.237053 1.08097 0.65901 0.65901C1.08097 0.237053 1.65326 0 2.25 0H13.8682C14.1639 6.30617e-05 14.4567 0.0583844 14.7298 0.171631C15.0027 0.284818 15.2507 0.450654 15.4596 0.65967C15.4597 0.65978 15.4594 0.659559 15.4596 0.65967L21.3306 6.53067C21.5395 6.7397 21.7053 6.98801 21.8183 7.26109C21.9312 7.53405 21.9893 7.82659 21.9892 8.122C21.9892 8.12211 21.9892 8.12189 21.9892 8.122V12.75C21.9892 13.1642 21.6534 13.5 21.2392 13.5C20.825 13.5 20.4892 13.1642 20.4892 12.75V8.122C20.4893 8.02349 20.4699 7.9256 20.4323 7.83458C20.3946 7.74363 20.3395 7.66097 20.2699 7.59133C20.2698 7.59127 20.27 7.59139 20.2699 7.59133L14.3989 1.72033C14.3293 1.65061 14.2462 1.59496 14.1552 1.55721C14.0642 1.51948 13.9667 1.50004 13.8682 1.5C13.8682 1.5 13.8683 1.5 13.8682 1.5H2.25Z" fill="black"/>
<path fill-rule="evenodd" clip-rule="evenodd" d="M13.7393 0C14.1535 0 14.4893 0.335786 14.4893 0.75V6.75C14.4893 6.94891 14.5683 7.13968 14.7089 7.28033C14.8496 7.42098 15.0403 7.5 15.2393 7.5H21.2393C21.6535 7.5 21.9893 7.83579 21.9893 8.25C21.9893 8.66421 21.6535 9 21.2393 9H15.2393C14.6425 9 14.0702 8.76295 13.6483 8.34099C13.2263 7.91903 12.9893 7.34674 12.9893 6.75V0.75C12.9893 0.335786 13.325 0 13.7393 0Z" fill="black"/>
<path fill-rule="evenodd" clip-rule="evenodd" d="M8.23926 15C8.65347 15 8.98926 15.3358 8.98926 15.75V23.25C8.98926 23.6642 8.65347 24 8.23926 24C7.82504 24 7.48926 23.6642 7.48926 23.25V15.75C7.48926 15.3358 7.82504 15 8.23926 15Z" fill="black"/>
<path fill-rule="evenodd" clip-rule="evenodd" d="M7.48926 15.75C7.48926 15.3358 7.82504 15 8.23926 15H8.99326C9.78891 15 10.552 15.3161 11.1146 15.8787C11.6772 16.4413 11.9933 17.2043 11.9933 18C11.9933 18.7956 11.6772 19.5587 11.1146 20.1213C10.552 20.6839 9.7889 21 8.99326 21H8.24326C7.82904 21 7.49326 20.6642 7.49326 20.25C7.49326 19.8358 7.82904 19.5 8.24326 19.5H8.99326C9.39108 19.5 9.77261 19.342 10.0539 19.0607C10.3352 18.7794 10.4933 18.3978 10.4933 18C10.4933 17.6022 10.3352 17.2206 10.0539 16.9393C9.77261 16.658 9.39108 16.5 8.99326 16.5H8.23926C7.82504 16.5 7.48926 16.1642 7.48926 15.75Z" fill="black"/>
<path fill-rule="evenodd" clip-rule="evenodd" d="M13.4893 15.75C13.4893 15.3358 13.825 15 14.2393 15C15.2338 15 16.1876 15.3951 16.8909 16.0984C17.5942 16.8016 17.9893 17.7554 17.9893 18.75V20.25C17.9893 21.2446 17.5942 22.1984 16.8909 22.9016C16.1876 23.6049 15.2338 24 14.2393 24C14.0403 24 13.8496 23.921 13.7089 23.7803C13.5683 23.6397 13.4893 23.4489 13.4893 23.25V15.75ZM14.9893 16.6287V22.3713C15.3027 22.2605 15.5907 22.0805 15.8302 21.841C16.2522 21.419 16.4893 20.8467 16.4893 20.25V18.75C16.4893 18.1533 16.2522 17.581 15.8302 17.159C15.5907 16.9195 15.3027 16.7395 14.9893 16.6287Z" fill="black"/>
<path fill-rule="evenodd" clip-rule="evenodd" d="M21.7393 16.5C21.5403 16.5 21.3496 16.579 21.2089 16.7197C21.0683 16.8603 20.9893 17.0511 20.9893 17.25V23.25C20.9893 23.6642 20.6535 24 20.2393 24C19.825 24 19.4893 23.6642 19.4893 23.25V17.25C19.4893 16.6533 19.7263 16.081 20.1483 15.659C20.5702 15.2371 21.1425 15 21.7393 15H23.2393C23.6535 15 23.9893 15.3358 23.9893 15.75C23.9893 16.1642 23.6535 16.5 23.2393 16.5H21.7393Z" fill="black"/>
<path fill-rule="evenodd" clip-rule="evenodd" d="M19.4893 20.25C19.4893 19.8358 19.825 19.5 20.2393 19.5H22.4893C22.9035 19.5 23.2393 19.8358 23.2393 20.25C23.2393 20.6642 22.9035 21 22.4893 21H20.2393C19.825 21 19.4893 20.6642 19.4893 20.25Z" fill="black"/>
</svg>
