<svg width="24" height="24" viewBox="0 0 24 24" fill="none" xmlns="http://www.w3.org/2000/svg">
<path fill-rule="evenodd" clip-rule="evenodd" d="M12.477 12.477C13.7429 11.2112 15.4598 10.5 17.25 10.5C19.0402 10.5 20.7571 11.2112 22.023 12.477C23.2888 13.7429 24 15.4598 24 17.25C24 19.0402 23.2888 20.7571 22.023 22.023C20.7571 23.2888 19.0402 24 17.25 24C15.4598 24 13.7429 23.2888 12.477 22.023C11.2112 20.7571 10.5 19.0402 10.5 17.25C10.5 15.4598 11.2112 13.7429 12.477 12.477ZM17.25 12C15.8576 12 14.5223 12.5531 13.5377 13.5377C12.5531 14.5223 12 15.8576 12 17.25C12 18.6424 12.5531 19.9777 13.5377 20.9623C14.5223 21.9469 15.8576 22.5 17.25 22.5C18.6424 22.5 19.9777 21.9469 20.9623 20.9623C21.9469 19.9777 22.5 18.6424 22.5 17.25C22.5 15.8576 21.9469 14.5223 20.9623 13.5377C19.9777 12.5531 18.6424 12 17.25 12Z" fill="black"/>
<path fill-rule="evenodd" clip-rule="evenodd" d="M17.25 13.5C17.6642 13.5 18 13.8358 18 14.25V20.25C18 20.6642 17.6642 21 17.25 21C16.8358 21 16.5 20.6642 16.5 20.25V14.25C16.5 13.8358 16.8358 13.5 17.25 13.5Z" fill="black"/>
<path fill-rule="evenodd" clip-rule="evenodd" d="M13.5 17.25C13.5 16.8358 13.8358 16.5 14.25 16.5H20.25C20.6642 16.5 21 16.8358 21 17.25C21 17.6642 20.6642 18 20.25 18H14.25C13.8358 18 13.5 17.6642 13.5 17.25Z" fill="black"/>
<path fill-rule="evenodd" clip-rule="evenodd" d="M9.85602 11.732C8.94343 11.3432 7.94871 11.1865 6.96079 11.2761C5.97287 11.3657 5.02255 11.6988 4.19481 12.2454C3.36706 12.7921 2.68769 13.5354 2.21742 14.4088C1.74716 15.2822 1.50068 16.2585 1.5 17.2505C1.49972 17.6647 1.1637 18.0003 0.749489 18C0.335276 17.9997 -0.000281931 17.6637 1.77751e-07 17.2495C0.000844597 16.0096 0.308923 14.7893 0.896691 13.6977C1.48446 12.606 2.33359 11.677 3.36817 10.9938C4.40275 10.3105 5.59053 9.89425 6.8253 9.78227C8.06008 9.67028 9.30336 9.86603 10.444 10.352C10.825 10.5144 11.0023 10.9549 10.84 11.336C10.6776 11.717 10.2371 11.8943 9.85602 11.732Z" fill="black"/>
<path fill-rule="evenodd" clip-rule="evenodd" d="M4.05285 1.42785C4.96709 0.513615 6.20707 0 7.5 0C8.79293 0 10.0329 0.513614 10.9471 1.42785C11.8614 2.34209 12.375 3.58207 12.375 4.875C12.375 6.16793 11.8614 7.40791 10.9471 8.32215C10.0329 9.23639 8.79293 9.75 7.5 9.75C6.20707 9.75 4.96709 9.23639 4.05285 8.32215C3.13861 7.40791 2.625 6.16793 2.625 4.875C2.625 3.58207 3.13861 2.34209 4.05285 1.42785ZM7.5 1.5C6.60489 1.5 5.74645 1.85558 5.11351 2.48851C4.48058 3.12145 4.125 3.97989 4.125 4.875C4.125 5.77011 4.48058 6.62855 5.11351 7.26149C5.74645 7.89442 6.60489 8.25 7.5 8.25C8.39511 8.25 9.25355 7.89442 9.88649 7.26149C10.5194 6.62855 10.875 5.77011 10.875 4.875C10.875 3.97989 10.5194 3.12145 9.88649 2.48851C9.25355 1.85558 8.39511 1.5 7.5 1.5Z" fill="black"/>
</svg>
