<svg width="24" height="24" viewBox="0 0 24 24" fill="none" xmlns="http://www.w3.org/2000/svg">
<path fill-rule="evenodd" clip-rule="evenodd" d="M15.75 15.75C15.651 15.75 15.554 15.731 15.462 15.693C15.182 15.576 15 15.304 15 15V12H12C9.93201 12 8.25001 10.318 8.25001 8.25V3.75C8.25001 1.682 9.93201 0 12 0H20.25C22.318 0 24 1.682 24 3.75V8.25C24 10.318 22.318 12 20.25 12H19.811L16.281 15.53C16.139 15.672 15.95 15.75 15.75 15.75ZM12 1.5C10.759 1.5 9.75001 2.509 9.75001 3.75V8.25C9.75001 9.491 10.759 10.5 12 10.5H15.75C16.164 10.5 16.5 10.836 16.5 11.25V13.189L18.97 10.719C19.11 10.579 19.303 10.499 19.5 10.499H20.25C21.491 10.499 22.5 9.49 22.5 8.249V3.749C22.5 2.508 21.491 1.499 20.25 1.499H12V1.5ZM3.483 23.9983C1.563 23.9983 0.001 22.4363 0 20.5173V4.98129C0.001 3.06129 1.563 1.49929 3.483 1.49829H6.00001C6.41401 1.49829 6.75001 1.83429 6.75001 2.24829C6.75001 2.66229 6.41401 2.99829 6.00001 2.99829H3.483C2.39 2.99829 1.5 3.88829 1.5 4.98129V17.9983H12V14.2483C12 13.8343 12.336 13.4983 12.75 13.4983C13.164 13.4983 13.5 13.8343 13.5 14.2483V20.5163C13.5 22.4363 11.938 23.9983 10.018 23.9983H3.483ZM1.5 20.5163C1.5 21.6093 2.39 22.4983 3.483 22.4983H10.018C11.111 22.4983 12 21.6093 12 20.5163V19.4983H1.5V20.5163ZM11.25 5.99998C11.25 6.61998 11.755 7.12498 12.375 7.12498C12.995 7.12498 13.5 6.61998 13.5 5.99998C13.5 5.38898 13.02 4.89598 12.419 4.87798L12.3975 4.87748L12.376 4.87698C12.358 4.87698 12.339 4.87698 12.334 4.87798C11.726 4.89998 11.25 5.39298 11.25 5.99998ZM16.125 7.12498C15.505 7.12498 15 6.61998 15 5.99998C15 5.39298 15.476 4.89998 16.084 4.87798C16.089 4.87698 16.108 4.87698 16.126 4.87698L16.1475 4.87748L16.169 4.87798C16.77 4.89598 17.25 5.38898 17.25 5.99998C17.25 6.61998 16.745 7.12498 16.125 7.12498ZM21 6C21 6.62132 20.4963 7.125 19.875 7.125C19.2537 7.125 18.75 6.62132 18.75 6C18.75 5.37868 19.2537 4.875 19.875 4.875C20.4963 4.875 21 5.37868 21 6Z" fill="black"/>
</svg>
