<svg width="24" height="24" viewBox="0 0 24 24" fill="none" xmlns="http://www.w3.org/2000/svg">
<path fill-rule="evenodd" clip-rule="evenodd" d="M9 11.25C9 12.49 10.009 13.5 11.25 13.5H20.25C21.491 13.5 22.5 12.491 22.5 11.25V2.25C22.5 1.009 21.491 0 20.25 0H11.25C10.009 0 9 1.009 9 2.25V11.25ZM21 11.25C21 11.664 20.664 12 20.25 12H12.65L14.414 9.348L14.416 9.347L15.652 10.336C15.784 10.442 15.951 10.5 16.121 10.5C16.155 10.5 16.19 10.498 16.226 10.493C16.431 10.463 16.616 10.35 16.734 10.181L18.735 7.33L21 10.727V11.25ZM10.5 2.25C10.5 1.836 10.836 1.5 11.25 1.5H20.25C20.664 1.5 21 1.836 21 2.25V8.023L19.984 6.498C19.762 6.165 19.424 5.938 19.031 5.859C18.933 5.839 18.832 5.829 18.733 5.829C18.438 5.829 18.152 5.916 17.904 6.081C17.747 6.186 17.613 6.317 17.507 6.469L15.965 8.665L15.352 8.175C15.087 7.963 14.755 7.847 14.418 7.847C14.362 7.847 14.304 7.851 14.248 7.857C13.85 7.901 13.492 8.099 13.241 8.414C13.215 8.448 13.19 8.481 13.167 8.516L10.906 11.914C10.661 11.788 10.5 11.536 10.5 11.25V2.25ZM4.983 23.9983C3.063 23.9983 1.501 22.4373 1.5 20.5183V4.98129C1.5 3.06029 3.062 1.49829 4.983 1.49829H6.75C7.164 1.49829 7.5 1.83429 7.5 2.24829C7.5 2.66229 7.164 2.99829 6.75 2.99829H4.983C3.89 2.99829 3 3.88829 3 4.98129V17.9983H13.5V15.7483C13.5 15.3343 13.836 14.9983 14.25 14.9983C14.664 14.9983 15 15.3343 15 15.7483V20.5163C15 22.4363 13.438 23.9983 11.518 23.9983H4.983ZM3 20.5163C3 21.6093 3.89 22.4983 4.982 22.4983H11.517C12.61 22.4983 13.5 21.6093 13.5 20.5163V19.4983H3V20.5163ZM13.875 5.25C13.255 5.25 12.75 4.745 12.75 4.125C12.75 3.528 13.218 3.036 13.816 3.004L13.8226 3.00349C13.8359 3.00241 13.8657 3 13.875 3C14.495 3 15 3.505 15 4.125C15 4.745 14.495 5.25 13.875 5.25Z" fill="black"/>
</svg>
