<svg width="24" height="24" fill="none" xmlns="http://www.w3.org/2000/svg"><path d="M3.483 23.998A3.487 3.487 0 010 20.518V4.98a3.489 3.489 0 013.483-3.483H6a.75.75 0 010 1.5H3.483c-1.093 0-1.983.89-1.983 1.983v13.017H12v-3.75a.75.75 0 011.5 0v6.268a3.486 3.486 0 01-3.482 3.482H3.483zM1.5 20.516c0 1.093.89 1.982 1.983 1.982h6.535A1.984 1.984 0 0012 20.516v-1.018H1.5v1.018z" fill="#000"/><path d="M15.75 15.75A.75.75 0 0115 15v-3h-3a3.754 3.754 0 01-3.75-3.75v-4.5A3.754 3.754 0 0112 0h8.25A3.754 3.754 0 0124 3.75v4.5A3.754 3.754 0 0120.25 12h-.439l-3.53 3.53a.747.747 0 01-.531.22zM12 1.5a2.252 2.252 0 00-2.25 2.25v4.5A2.252 2.252 0 0012 10.5h3.75a.75.75 0 01.75.75v1.939l2.47-2.47c.14-.14.333-.22.53-.22h.75a2.252 2.252 0 002.25-2.25v-4.5a2.252 2.252 0 00-2.25-2.25H12V1.5z" fill="#000"/><path d="M12.375 7.125c-.62 0-1.125-.505-1.125-1.125 0-.607.476-1.1 1.084-1.122l.042-.001.043.001A1.117 1.117 0 0113.5 6c0 .62-.505 1.125-1.125 1.125zM16.125 7.125C15.505 7.125 15 6.62 15 6c0-.607.476-1.1 1.084-1.122l.042-.001.043.001A1.117 1.117 0 0117.25 6c0 .62-.505 1.125-1.125 1.125zM19.875 7.125a1.125 1.125 0 100-2.25 1.125 1.125 0 000 2.25z" fill="#29D305"/></svg>