<svg width="24" height="24" viewBox="0 0 24 24" fill="none" xmlns="http://www.w3.org/2000/svg">
<path fill-rule="evenodd" clip-rule="evenodd" d="M15.462 15.693C15.554 15.731 15.651 15.75 15.75 15.75C15.95 15.75 16.139 15.672 16.281 15.53L19.811 12H20.25C22.318 12 24 10.318 24 8.25V3.75C24 1.682 22.318 0 20.25 0H12C9.932 0 8.25 1.682 8.25 3.75V8.25C8.25 10.318 9.932 12 12 12H15V15C15 15.304 15.182 15.576 15.462 15.693ZM9.75 3.75C9.75 2.509 10.759 1.5 12 1.5V1.499H20.25C21.491 1.499 22.5 2.508 22.5 3.749V8.249C22.5 9.49 21.491 10.499 20.25 10.499H19.5C19.303 10.499 19.11 10.579 18.97 10.719L16.5 13.189V11.25C16.5 10.836 16.164 10.5 15.75 10.5H12C10.759 10.5 9.75 9.491 9.75 8.25V3.75Z" fill="black"/>
<path fill-rule="evenodd" clip-rule="evenodd" d="M0 20.5173C0.001 22.4363 1.563 23.9983 3.483 23.9983H10.018C11.938 23.9983 13.5 22.4363 13.5 20.5163V14.2483C13.5 13.8343 13.164 13.4983 12.75 13.4983C12.336 13.4983 12 13.8343 12 14.2483V17.9983H1.5V4.98129C1.5 3.88829 2.39 2.99829 3.483 2.99829H6C6.414 2.99829 6.75 2.66229 6.75 2.24829C6.75 1.83429 6.414 1.49829 6 1.49829H3.483C1.563 1.49929 0.001 3.06129 0 4.98129V20.5173ZM3.483 22.4983C2.39 22.4983 1.5 21.6093 1.5 20.5163V19.4983H12V20.5163C12 21.6093 11.111 22.4983 10.018 22.4983H3.483Z" fill="black"/>
<path d="M12.375 7.12501C11.755 7.12501 11.25 6.62001 11.25 6.00001C11.25 5.39301 11.726 4.90001 12.334 4.87801C12.339 4.87701 12.358 4.87701 12.376 4.87701C12.384 4.87701 12.411 4.87801 12.419 4.87801C13.02 4.89601 13.5 5.38901 13.5 6.00001C13.5 6.62001 12.995 7.12501 12.375 7.12501Z" fill="#29D305"/>
<path d="M16.125 7.12501C15.505 7.12501 15 6.62001 15 6.00001C15 5.39301 15.476 4.90001 16.084 4.87801C16.089 4.87701 16.108 4.87701 16.126 4.87701C16.134 4.87701 16.161 4.87801 16.169 4.87801C16.77 4.89601 17.25 5.38901 17.25 6.00001C17.25 6.62001 16.745 7.12501 16.125 7.12501Z" fill="#29D305"/>
<path d="M19.875 7.125C20.4963 7.125 21 6.62132 21 6C21 5.37868 20.4963 4.875 19.875 4.875C19.2537 4.875 18.75 5.37868 18.75 6C18.75 6.62132 19.2537 7.125 19.875 7.125Z" fill="#29D305"/>
</svg>
