<svg width="24" height="24" fill="none" xmlns="http://www.w3.org/2000/svg"><path d="M13.5 10.5a.75.75 0 01-.75-.75v-9A.75.75 0 0113.5 0c5.376 0 9.75 4.374 9.75 9.75a.75.75 0 01-.75.75h-9zM21.716 9c-.359-3.929-3.537-7.107-7.466-7.466V9h7.466z" fill="#000"/><path d="M10.501 24a9.688 9.688 0 01-6.894-2.855 9.683 9.683 0 01-2.856-6.894 9.687 9.687 0 012.855-6.894A9.684 9.684 0 0110.5 4.5a.753.753 0 01.75.75v8.741l5.401 6.873a.743.743 0 01.155.553.745.745 0 01-.281.5A9.795 9.795 0 0110.501 24zM9.75 6.034a8.216 8.216 0 00-5.083 2.383 8.196 8.196 0 00-2.416 5.834 8.19 8.19 0 002.417 5.833 8.196 8.196 0 005.833 2.416c1.58 0 3.157-.469 4.486-1.327l-5.076-6.46a.756.756 0 01-.16-.463V6.034H9.75z" fill="#000"/><path d="M19.061 20.577a.743.743 0 01-.59-.287l-5.561-7.077a.753.753 0 01-.084-.792A.755.755 0 0113.5 12h9a.75.75 0 01.75.749 9.677 9.677 0 01-3.726 7.667.746.746 0 01-.463.161zm.106-1.829a8.116 8.116 0 002.551-5.248h-6.674l4.123 5.248z" fill="#29D305"/></svg>