<svg width="24" height="24" viewBox="0 0 24 24" fill="none" xmlns="http://www.w3.org/2000/svg">
<path d="M18.0869 10.5C17.8869 10.5 17.6869 10.42 17.5469 10.27L13.1669 5.7C12.6769 5.21 12.3569 4.58 12.2469 3.88C12.1369 3.18 12.2469 2.48 12.5569 1.85C12.7969 1.37 13.1469 0.96 13.5669 0.65C13.9869 0.34 14.4869 0.13 15.0169 0.04C15.5369 -0.04 16.0769 0 16.5769 0.16C17.0769 0.32 17.5369 0.61 17.9169 0.98L18.0969 1.17L18.2869 0.98C18.6569 0.61 19.1169 0.32 19.6269 0.16C20.1269 0 20.6669 -0.04 21.1869 0.04C21.7069 0.12 22.2069 0.33 22.6369 0.65C23.0569 0.96 23.4069 1.38 23.6469 1.85C23.9669 2.48 24.0669 3.18 23.9569 3.88C23.8469 4.58 23.5169 5.21 23.0169 5.71L18.6469 10.27C18.5069 10.42 18.3069 10.5 18.1069 10.5H18.0869ZM15.5369 1.5C15.4369 1.5 15.3369 1.5 15.2469 1.52C14.9569 1.57 14.6869 1.68 14.4469 1.85C14.2169 2.02 14.0169 2.25 13.8869 2.51C13.7169 2.86 13.6569 3.24 13.7169 3.63C13.7769 4.01 13.9569 4.36 14.2369 4.64L18.0869 8.66L21.9269 4.65C22.2169 4.36 22.3869 4.02 22.4569 3.63C22.5169 3.25 22.4569 2.86 22.2869 2.51C22.1569 2.25 21.9669 2.02 21.7269 1.85C21.4969 1.68 21.2169 1.56 20.9269 1.52C20.6469 1.47 20.3469 1.5 20.0669 1.59C19.7869 1.68 19.5369 1.84 19.3269 2.04L18.6069 2.76C18.3269 3.04 17.8269 3.04 17.5469 2.76L16.8269 2.04C16.6169 1.83 16.3669 1.68 16.0869 1.59C15.9069 1.53 15.7069 1.5 15.5169 1.5H15.5369Z" fill="#29D305"/>
<path d="M5.2501 24C5.1901 24 5.1301 24 5.0701 23.98C4.6701 23.88 4.4201 23.47 4.5201 23.07L5.2801 20.02C5.3801 19.62 5.7901 19.37 6.1901 19.47C6.5901 19.57 6.8401 19.98 6.7401 20.38L5.9801 23.43C5.9001 23.77 5.5901 24 5.2501 24Z" fill="black"/>
<path d="M17.2499 23.9999C16.9099 23.9999 16.6099 23.7699 16.5199 23.4299L15.7599 20.3899C15.6599 19.9899 15.8999 19.5799 16.3099 19.4799C16.7099 19.3799 17.1199 19.6199 17.2199 20.0299L17.9799 23.0699C18.0799 23.4699 17.8399 23.8799 17.4299 23.9799C17.3699 23.9999 17.3099 23.9999 17.2499 23.9999Z" fill="black"/>
<path d="M11.09 22.5C9.41 22.5 7.74 22.06 6.27 21.24C4.88 20.46 3.69 19.34 2.82 18H0.75C0.34 18 0 17.66 0 17.25V11.25C0 10.84 0.34 10.5 0.75 10.5H2.07C2.63 9.04002 3.56 7.76002 4.77 6.77002L5.08 4.27002C5.11 4.00002 5.22 3.75002 5.38 3.54002C5.55 3.33002 5.76 3.16002 6.01 3.06002C6.26 2.96002 6.53 2.93002 6.8 2.97002C7.07 3.01002 7.32 3.13002 7.52 3.30002L9.48 4.94002C9.8 5.21002 9.84 5.68002 9.58 6.00002C9.31 6.32002 8.84 6.36002 8.52 6.10002L6.56 4.46002L6.21 7.27002C6.19 7.47002 6.08 7.65002 5.92 7.78002C4.68 8.72002 3.77 10 3.3 11.48C3.2 11.79 2.91 12 2.58 12H1.48V16.5H3.22C3.49 16.5 3.73 16.64 3.87 16.87C4.62 18.15 5.7 19.2 6.99 19.93C8.28 20.65 9.74 21.03 11.22 21C15.78 21 19.48 17.64 19.48 13.5C19.48 13.27 19.47 13.05 19.45 12.82C19.41 12.41 19.71 12.04 20.12 12C20.54 11.96 20.9 12.26 20.94 12.67C20.97 12.94 20.98 13.22 20.98 13.49C20.98 18.45 16.61 22.49 11.23 22.49C11.18 22.49 11.12 22.49 11.07 22.49L11.09 22.5Z" fill="black"/>
<path d="M7.49988 11.6199C6.87988 11.6199 6.37988 11.1199 6.37988 10.4999C6.37988 9.87988 6.87988 9.37988 7.49988 9.37988V11.6299V11.6199Z" fill="black"/>
<path d="M7.5 11.6201V9.37012C8.12 9.37012 8.62 9.87012 8.62 10.4901C8.62 11.1101 8.12 11.6101 7.5 11.6101V11.6201Z" fill="black"/>
</svg>
