<svg width="24" height="24" viewBox="0 0 24 24" fill="none" xmlns="http://www.w3.org/2000/svg">
<g clip-path="url(#clip0_6070_29804)">
<path d="M18.1101 10.5C17.9101 10.5 17.7101 10.42 17.5701 10.27L13.1901 5.7C12.7001 5.21 12.3801 4.58 12.2701 3.88C12.1601 3.18 12.2701 2.48 12.5801 1.85C12.8201 1.37 13.1701 0.96 13.5901 0.65C14.0101 0.34 14.5101 0.13 15.0401 0.04C15.5601 -0.04 16.1001 0 16.6001 0.16C17.1001 0.32 17.5601 0.61 17.9401 0.98L18.1201 1.17L18.3101 0.98C18.6801 0.61 19.1401 0.32 19.6501 0.16C20.1501 0 20.6901 -0.04 21.2101 0.04C21.7301 0.12 22.2301 0.33 22.6601 0.65C23.0801 0.96 23.4301 1.38 23.6701 1.85C23.9901 2.48 24.0901 3.18 23.9801 3.88C23.8701 4.58 23.5401 5.21 23.0401 5.71L18.6701 10.27C18.5301 10.42 18.3301 10.5 18.1301 10.5H18.1101ZM15.5601 1.5C15.4601 1.5 15.3601 1.5 15.2701 1.52C14.9801 1.57 14.7101 1.68 14.4701 1.85C14.2401 2.02 14.0401 2.25 13.9101 2.51C13.7401 2.86 13.6801 3.24 13.7401 3.63C13.8001 4.01 13.9801 4.36 14.2601 4.64L18.1101 8.66L21.9501 4.65C22.2401 4.36 22.4101 4.02 22.4801 3.63C22.5401 3.25 22.4801 2.86 22.3101 2.51C22.1801 2.25 21.9901 2.02 21.7501 1.85C21.5201 1.68 21.2401 1.56 20.9501 1.52C20.6701 1.47 20.3701 1.5 20.0901 1.59C19.8101 1.68 19.5601 1.84 19.3501 2.04L18.6301 2.76C18.3501 3.04 17.8501 3.04 17.5701 2.76L16.8501 2.04C16.6401 1.83 16.3901 1.68 16.1101 1.59C15.9301 1.53 15.7301 1.5 15.5401 1.5H15.5601Z" fill="#29D305"/>
<path d="M5.2501 24C5.1901 24 5.1301 24 5.0701 23.98C4.6701 23.88 4.4201 23.47 4.5201 23.07L5.2801 20.02C5.3801 19.62 5.7901 19.37 6.1901 19.47C6.5901 19.57 6.8401 19.98 6.7401 20.38L5.9801 23.43C5.9001 23.77 5.5901 24 5.2501 24Z" fill="black"/>
<path d="M17.2499 23.9999C16.9099 23.9999 16.6099 23.7699 16.5199 23.4299L15.7599 20.3899C15.6599 19.9899 15.8999 19.5799 16.3099 19.4799C16.7099 19.3799 17.1199 19.6199 17.2199 20.0299L17.9799 23.0699C18.0799 23.4699 17.8399 23.8799 17.4299 23.9799C17.3699 23.9999 17.3099 23.9999 17.2499 23.9999Z" fill="black"/>
<path d="M11.09 22.5C9.41 22.5 7.74 22.06 6.27 21.24C4.88 20.46 3.69 19.34 2.82 18H0.75C0.34 18 0 17.66 0 17.25V11.25C0 10.84 0.34 10.5 0.75 10.5H2.07C2.63 9.04002 3.56 7.76002 4.77 6.77002L5.08 4.27002C5.11 4.00002 5.22 3.75002 5.38 3.54002C5.55 3.33002 5.76 3.16002 6.01 3.06002C6.26 2.96002 6.53 2.93002 6.8 2.97002C7.07 3.01002 7.32 3.13002 7.52 3.30002L9.48 4.94002C9.8 5.21002 9.84 5.68002 9.58 6.00002C9.31 6.32002 8.84 6.36002 8.52 6.10002L6.56 4.46002L6.21 7.27002C6.19 7.47002 6.08 7.65002 5.92 7.78002C4.68 8.72002 3.77 10 3.3 11.48C3.2 11.79 2.91 12 2.58 12H1.48V16.5H3.22C3.49 16.5 3.73 16.64 3.87 16.87C4.62 18.15 5.7 19.2 6.99 19.93C8.28 20.65 9.74 21.03 11.22 21C15.78 21 19.48 17.64 19.48 13.5C19.48 13.27 19.47 13.05 19.45 12.82C19.41 12.41 19.71 12.04 20.12 12C20.54 11.96 20.9 12.26 20.94 12.67C20.97 12.94 20.98 13.22 20.98 13.49C20.98 18.45 16.61 22.49 11.23 22.49C11.18 22.49 11.12 22.49 11.07 22.49L11.09 22.5Z" fill="black"/>
<path d="M7.49988 11.6199C6.87988 11.6199 6.37988 11.1199 6.37988 10.4999C6.37988 9.87988 6.87988 9.37988 7.49988 9.37988V11.6299V11.6199Z" fill="black"/>
<path d="M7.5 11.6201V9.37012C8.12 9.37012 8.62 9.87012 8.62 10.4901C8.62 11.1101 8.12 11.6101 7.5 11.6101V11.6201Z" fill="black"/>
</g>
<defs>
<clipPath id="clip0_6070_29804">
<rect width="24" height="24" fill="white"/>
</clipPath>
</defs>
</svg>
