<svg width="24" height="24" fill="none" xmlns="http://www.w3.org/2000/svg"><g clip-path="url(#clip0)" fill-rule="evenodd" clip-rule="evenodd"><path d="M12 0a8.25 8.25 0 00-8.25 8.25c0 .997.361 2.278.87 3.614.518 1.358 1.222 2.857 1.975 4.321 1.508 2.928 3.24 5.766 4.155 7.145a1.5 1.5 0 002.5 0c.914-1.379 2.647-4.217 4.155-7.145.753-1.463 1.457-2.963 1.975-4.321.509-1.336.87-2.617.87-3.614A8.25 8.25 0 0012 0z" fill="#000"/><path d="M12 5.25a3 3 0 100 6 3 3 0 000-6zm-4.5 3a4.5 4.5 0 119 0 4.5 4.5 0 01-9 0z" fill="#fff"/></g><defs><clipPath id="clip0"><path fill="#fff" d="M0 0h24v24H0z"/></clipPath></defs></svg>