<svg width="24" height="24" viewBox="0 0 24 24" fill="none" xmlns="http://www.w3.org/2000/svg">
<path fill-rule="evenodd" clip-rule="evenodd" d="M12 3.75024C9.51472 3.75024 7.5 5.76496 7.5 8.25024C7.5 10.7355 9.51472 12.7502 12 12.7502C14.4853 12.7502 16.5 10.7355 16.5 8.25024C16.5 5.76496 14.4853 3.75024 12 3.75024ZM9 8.25024C9 6.59339 10.3431 5.25024 12 5.25024C13.6569 5.25024 15 6.59339 15 8.25024C15 9.9071 13.6569 11.2502 12 11.2502C10.3431 11.2502 9 9.9071 9 8.25024Z" fill="black"/>
<path fill-rule="evenodd" clip-rule="evenodd" d="M6.16637 2.41661C7.71354 0.869438 9.81196 0.000244141 12 0.000244141C14.188 0.000244141 16.2865 0.869438 17.8336 2.41661C19.3808 3.96379 20.25 6.06221 20.25 8.25024C20.25 9.24741 19.8887 10.5287 19.3799 11.8642C18.8624 13.2225 18.1584 14.7217 17.4047 16.1856C15.8974 19.1131 14.1644 21.9513 13.25 23.3298C13.1132 23.5361 12.9274 23.7053 12.7093 23.8224C12.4912 23.9394 12.2475 24.0007 12 24.0007C11.7525 24.0007 11.5088 23.9394 11.2907 23.8224C11.0726 23.7053 10.8868 23.5361 10.75 23.3298C9.83557 21.9513 8.10259 19.1131 6.59532 16.1856C5.84165 14.7217 5.13757 13.2225 4.62009 11.8642C4.11129 10.5287 3.75 9.24741 3.75 8.25024C3.75 6.06221 4.61919 3.96379 6.16637 2.41661ZM7.22703 3.47727C8.4929 2.2114 10.2098 1.50024 12 1.50024C13.7902 1.50024 15.5071 2.2114 16.773 3.47727C18.0388 4.74314 18.75 6.46003 18.75 8.25024C18.75 8.95658 18.477 10.0208 17.9782 11.3302C17.488 12.6168 16.811 14.0617 16.0711 15.4989C14.5911 18.3734 12.8866 21.1642 12 22.5007C11.1134 21.1642 9.40891 18.3734 7.92893 15.4989C7.18898 14.0617 6.51199 12.6168 6.02181 11.3302C5.52296 10.0208 5.25 8.95658 5.25 8.25024C5.25 6.46003 5.96116 4.74314 7.22703 3.47727Z" fill="black"/>
<path fill-rule="evenodd" clip-rule="evenodd" d="M12 1.50024C10.2098 1.50024 8.4929 2.2114 7.22703 3.47727C5.96116 4.74314 5.25 6.46003 5.25 8.25024C5.25 8.95658 5.52296 10.0208 6.02181 11.3302C6.51199 12.6168 7.18898 14.0617 7.92893 15.4989C9.40891 18.3734 11.1134 21.1642 12 22.5007C12.8866 21.1642 14.5911 18.3734 16.0711 15.4989C16.811 14.0617 17.488 12.6168 17.9782 11.3302C18.477 10.0208 18.75 8.95658 18.75 8.25024C18.75 6.46003 18.0388 4.74314 16.773 3.47727C15.5071 2.2114 13.7902 1.50024 12 1.50024ZM12 3.75024C9.51472 3.75024 7.5 5.76496 7.5 8.25024C7.5 10.7355 9.51472 12.7502 12 12.7502C14.4853 12.7502 16.5 10.7355 16.5 8.25024C16.5 5.76496 14.4853 3.75024 12 3.75024Z" fill="#29D305"/>
</svg>
