<svg width="24" height="24" viewBox="0 0 24 24" fill="none" xmlns="http://www.w3.org/2000/svg">
<path fill-rule="evenodd" clip-rule="evenodd" d="M7.22703 3.47703C8.4929 2.21116 10.2098 1.5 12 1.5C13.7902 1.5 15.5071 2.21116 16.773 3.47703C18.0388 4.7429 18.75 6.45979 18.75 8.25C18.75 8.95633 18.477 10.0206 17.9782 11.3299C17.488 12.6165 16.811 14.0615 16.0711 15.4987C14.5911 18.3732 12.8866 21.1639 12 22.5004L12.625 22.915L12 22.5004L11.375 22.915L12 22.5004C11.1134 21.1639 9.40891 18.3732 7.92893 15.4987C7.18898 14.0615 6.51199 12.6165 6.02181 11.3299C5.52296 10.0206 5.25 8.95633 5.25 8.25C5.25 6.45979 5.96116 4.7429 7.22703 3.47703ZM6.16637 2.41637C7.71354 0.869194 9.81196 0 12 0C14.188 0 16.2865 0.869194 17.8336 2.41637C19.3808 3.96354 20.25 6.06196 20.25 8.25C20.25 9.24717 19.8887 10.5284 19.3799 11.864C18.8624 13.2222 18.1584 14.7215 17.4047 16.1853C15.8974 19.1128 14.1644 21.9511 13.25 23.3296C13.1132 23.5359 12.9274 23.7051 12.7093 23.8221C12.4912 23.9392 12.2475 24.0004 12 24.0004C11.7525 24.0004 11.5088 23.9392 11.2907 23.8221C11.0726 23.7051 10.8868 23.5359 10.75 23.3296C9.83557 21.9511 8.10259 19.1128 6.59532 16.1853C5.84165 14.7215 5.13757 13.2222 4.62009 11.864C4.11129 10.5284 3.75 9.24717 3.75 8.25C3.75 6.06196 4.61919 3.96354 6.16637 2.41637ZM9 8.25C9 6.59315 10.3431 5.25 12 5.25C13.6569 5.25 15 6.59315 15 8.25C15 9.90685 13.6569 11.25 12 11.25C10.3431 11.25 9 9.90685 9 8.25ZM12 3.75C9.51472 3.75 7.5 5.76472 7.5 8.25C7.5 10.7353 9.51472 12.75 12 12.75C14.4853 12.75 16.5 10.7353 16.5 8.25C16.5 5.76472 14.4853 3.75 12 3.75Z" fill="black"/>
</svg>
