<svg width="70" height="70" viewBox="0 0 70 70" fill="none" xmlns="http://www.w3.org/2000/svg">
<path fill-rule="evenodd" clip-rule="evenodd" d="M22 35C22 28.3726 27.3726 23 34 23C40.6274 23 46 28.3726 46 35C46 41.6274 40.6274 47 34 47C27.3726 47 22 41.6274 22 35Z" fill="#29D305"/>
<g filter="url(#filter0_d_2896_18)">
<path fill-rule="evenodd" clip-rule="evenodd" d="M30.9059 30.3603C31.0858 30.2489 31.2947 30.1933 31.5061 30.2006C31.7021 30.2074 31.8921 30.268 32.0555 30.3752L39.2372 33.9671C39.5554 34.1265 39.8818 34.422 39.8818 34.8613C39.8818 35.3005 39.5557 35.5959 39.2375 35.7553L32.0554 39.3464C31.8921 39.4535 31.7023 39.5139 31.5065 39.5208C31.2953 39.5281 31.0866 39.4727 30.9069 39.3616C30.7271 39.2504 30.5843 39.0884 30.4966 38.8961C30.4154 38.7179 30.3847 38.5212 30.4076 38.3273V31.3957C30.3844 31.2018 30.4148 31.005 30.4958 30.8267C30.5834 30.6341 30.7261 30.4718 30.9059 30.3603Z" fill="black"/>
</g>
<defs>
<filter id="filter0_d_2896_18" x="0.400024" y="0.199997" width="69.4818" height="69.3214" filterUnits="userSpaceOnUse" color-interpolation-filters="sRGB">
<feFlood flood-opacity="0" result="BackgroundImageFix"/>
<feColorMatrix in="SourceAlpha" type="matrix" values="0 0 0 0 0 0 0 0 0 0 0 0 0 0 0 0 0 0 127 0" result="hardAlpha"/>
<feOffset/>
<feGaussianBlur stdDeviation="15"/>
<feColorMatrix type="matrix" values="0 0 0 0 0 0 0 0 0 0 0 0 0 0 0 0 0 0 0.08 0"/>
<feBlend mode="normal" in2="BackgroundImageFix" result="effect1_dropShadow_2896_18"/>
<feBlend mode="normal" in="SourceGraphic" in2="effect1_dropShadow_2896_18" result="shape"/>
</filter>
</defs>
</svg>
