<svg width="24" height="24" viewBox="0 0 24 24" fill="none" xmlns="http://www.w3.org/2000/svg">
<path fill-rule="evenodd" clip-rule="evenodd" d="M8.90593 7.36034C9.08578 7.24889 9.29466 7.19332 9.50611 7.20066C9.70207 7.20746 9.89207 7.26801 10.0555 7.37526L17.2372 10.9671C17.5554 11.1265 17.8818 11.422 17.8818 11.8613C17.8818 12.3005 17.5557 12.5959 17.2375 12.7553L10.0554 16.3464C9.8921 16.4535 9.70228 16.514 9.50651 16.5208C9.29528 16.5282 9.0866 16.4728 8.90685 16.3616C8.7271 16.2504 8.58435 16.0884 8.49663 15.8961C8.41536 15.718 8.38471 15.5212 8.40756 15.3273V8.3957C8.38442 8.20184 8.41479 8.00501 8.49581 7.82672C8.58335 7.6341 8.72608 7.47179 8.90593 7.36034Z" fill="black"/>
<path fill-rule="evenodd" clip-rule="evenodd" d="M12 1.7561C6.34245 1.7561 1.7561 6.34245 1.7561 12C1.7561 17.6576 6.34245 22.2439 12 22.2439C17.6576 22.2439 22.2439 17.6576 22.2439 12C22.2439 6.34245 17.6576 1.7561 12 1.7561ZM0 12C0 5.37258 5.37258 0 12 0C18.6274 0 24 5.37258 24 12C24 18.6274 18.6274 24 12 24C5.37258 24 0 18.6274 0 12Z" fill="#29D305"/>
</svg>
