<svg width="24" height="24" viewBox="0 0 24 24" fill="none" xmlns="http://www.w3.org/2000/svg">
<path fill-rule="evenodd" clip-rule="evenodd" d="M13.243 1.24303C13.243 0.556523 12.6865 0 12 0C11.3135 0 10.757 0.556523 10.757 1.24303V10.757H1.24303C0.556523 10.757 0 11.3135 0 12C0 12.6865 0.556523 13.243 1.24303 13.243H10.757V22.757C10.757 23.4435 11.3135 24 12 24C12.6865 24 13.243 23.4435 13.243 22.757V13.243H22.757C23.4435 13.243 24 12.6865 24 12C24 11.3135 23.4435 10.757 22.757 10.757H13.243V1.24303Z" fill="black"/>
</svg>
