<svg width="24" height="24" viewBox="0 0 24 24" fill="none" xmlns="http://www.w3.org/2000/svg">
<path d="M24 12C24 18.6275 18.6275 24 12 24C5.3725 24 0 18.6275 0 12C0 5.3725 5.3725 0 12 0C18.6275 0 24 5.3725 24 12Z" fill="#EE0701"/>
<path d="M17.6649 6.46998L13.4449 3.98748C13.1149 3.79248 12.6899 3.87748 12.4599 4.18498L7.52493 10.7625C7.38993 10.9425 7.34243 11.175 7.39493 11.3925C7.44743 11.6125 7.59743 11.795 7.79993 11.8925L13.3899 14.585C13.4949 14.635 13.6049 14.66 13.7174 14.66C13.8849 14.66 14.0499 14.605 14.1849 14.4975C14.4099 14.3175 14.5149 14.025 14.4524 13.745L13.9374 11.42L15.8549 11.045C16.1024 10.9975 16.3074 10.83 16.4049 10.5975C16.5024 10.365 16.4774 10.1025 16.3424 9.89248L15.5024 8.60498L17.5524 7.81998C17.8224 7.71748 18.0099 7.46748 18.0349 7.17998C18.0599 6.89248 17.9149 6.61498 17.6649 6.46748V6.46998ZM14.0899 7.53498C13.8774 7.61748 13.7124 7.78998 13.6424 8.00498C13.5724 8.22248 13.6024 8.45998 13.7274 8.64998L14.4674 9.78248L12.8899 10.09C12.6899 10.13 12.5149 10.2475 12.4049 10.4175C12.2924 10.5875 12.2549 10.795 12.2999 10.9925L12.6474 12.5575L9.27993 10.9375L13.2624 5.63248L15.5499 6.97748L14.0899 7.53498Z" fill="black"/>
<path d="M12.15 14.9451L7.54501 12.7076C7.17001 12.5276 6.72001 12.6826 6.53751 13.0551C6.35501 13.4301 6.51251 13.8801 6.88501 14.0626L8.54501 14.8701L8.59751 19.7701C8.60251 20.1826 8.94001 20.5126 9.35001 20.5126H9.36001C9.77501 20.5076 10.1075 20.1651 10.1025 19.7476L10.0575 15.6051L11.4875 16.3001C11.595 16.3501 11.7075 16.3751 11.8175 16.3751C12.0975 16.3751 12.365 16.2201 12.495 15.9501C12.6775 15.5751 12.52 15.1251 12.1475 14.9426L12.15 14.9451Z" fill="black"/>
</svg>
