<svg width="24" height="24" viewBox="0 0 24 24" fill="none" xmlns="http://www.w3.org/2000/svg">
<path d="M6.81493 15.3875C6.46243 15.1525 5.98743 15.2475 5.75243 15.6L0.127433 22.81C-0.105067 23.1575 -0.0125671 23.6275 0.329933 23.865C0.332433 23.865 0.337433 23.87 0.339933 23.8725C0.692433 24.1075 1.16743 24.0125 1.40243 23.66L7.02743 16.45C7.26243 16.0975 7.15493 15.615 6.81493 15.3875Z" fill="#29D305"/>
<path d="M23.81 1.56734L22.43 0.189836C22.2075 -0.0326644 21.86 -0.0626644 21.6025 0.114836L6.89748 10.2373C6.87998 10.2498 6.86498 10.2648 6.84998 10.2773C6.83498 10.2898 6.81998 10.2973 6.80748 10.3123L4.55498 12.5148L4.54748 12.5223C3.95748 13.1148 3.95748 14.0748 4.54748 14.6673L7.92248 18.0348C8.20998 18.3223 8.58998 18.4798 8.99498 18.4773C9.39998 18.4773 9.78248 18.3173 10.0675 18.0323L12.325 15.8223C12.3575 15.7898 12.385 15.7548 12.41 15.7173C12.41 15.7173 12.41 15.7148 12.41 15.7123C12.4375 15.6698 12.4575 15.6273 12.4725 15.5798C12.4725 15.5748 12.4775 15.5698 12.48 15.5648L13.295 13.1148L15.745 12.2973C15.94 12.2323 16.09 12.0798 16.155 11.8848L16.97 9.43484L19.42 8.61734C19.615 8.55234 19.7675 8.39984 19.83 8.20484L20.63 5.80484L22.5575 5.41734C22.7875 5.37234 22.9725 5.20734 23.0475 4.98484L23.965 2.22484C24.0425 1.99234 23.9825 1.73234 23.8075 1.55984L23.81 1.56734ZM9.14998 17.1173C9.03998 17.2273 8.95498 17.2273 8.84498 17.1173L5.46998 13.7498C5.41498 13.6948 5.40748 13.6298 5.40748 13.5973C5.40748 13.5573 5.41748 13.4973 5.47248 13.4448L7.26998 11.6948L10.95 15.3698L9.15248 17.1198L9.14998 17.1173ZM21.935 4.22234L20.0075 4.60984C19.7775 4.65484 19.5925 4.81984 19.5175 5.04234L18.7025 7.49234L16.2525 8.30984C16.0575 8.37484 15.905 8.52734 15.8425 8.72234L15.0275 11.1723L12.5775 11.9898C12.3825 12.0548 12.2325 12.2073 12.1675 12.4023L11.5825 14.1623L8.27998 10.8648L21.8925 1.49234L22.605 2.20484L21.9325 4.22484L21.935 4.22234Z" fill="black"/>
</svg>
