<svg width="24" height="24" viewBox="0 0 24 24" fill="none" xmlns="http://www.w3.org/2000/svg">
<path d="M23.8099 1.56734L22.4299 0.189836C22.2074 -0.0326644 21.8599 -0.0626644 21.6024 0.114836L6.89743 10.2373C6.87993 10.2498 6.86493 10.2648 6.84993 10.2773C6.83493 10.2898 6.81993 10.2973 6.80743 10.3123L4.55493 12.5148L4.54743 12.5223C3.95743 13.1148 3.95743 14.0748 4.54743 14.6673L5.63243 15.7498L0.127433 22.8098C-0.105067 23.1573 -0.0125671 23.6273 0.329933 23.8648C0.332433 23.8648 0.337433 23.8698 0.339933 23.8723C0.692433 24.1073 1.16743 24.0123 1.40243 23.6598L6.72243 16.8398L7.92243 18.0373C8.20993 18.3248 8.58993 18.4823 8.99493 18.4798C9.39993 18.4798 9.78243 18.3198 10.0674 18.0348L12.3249 15.8248C12.3574 15.7923 12.3849 15.7573 12.4099 15.7198C12.4099 15.7198 12.4099 15.7173 12.4099 15.7148C12.4374 15.6723 12.4574 15.6298 12.4724 15.5823C12.4724 15.5773 12.4774 15.5723 12.4799 15.5673L13.2949 13.1173L15.7449 12.2998C15.9399 12.2348 16.0899 12.0823 16.1549 11.8873L16.9699 9.43734L19.4199 8.61984C19.6149 8.55484 19.7674 8.40234 19.8299 8.20734L20.6299 5.80734L22.5574 5.41984C22.7874 5.37484 22.9724 5.20984 23.0474 4.98734L23.9649 2.22734C24.0424 1.99484 23.9824 1.73484 23.8074 1.56234L23.8099 1.56734ZM9.14993 17.1173C9.03993 17.2273 8.95493 17.2273 8.84493 17.1173L5.46993 13.7498C5.41493 13.6948 5.40743 13.6298 5.40743 13.5973C5.40743 13.5573 5.41743 13.4973 5.47243 13.4448L7.26993 11.6948L10.9499 15.3698L9.15243 17.1198L9.14993 17.1173ZM21.9349 4.22234L20.0074 4.60984C19.7774 4.65484 19.5924 4.81984 19.5174 5.04234L18.7024 7.49234L16.2524 8.30984C16.0574 8.37484 15.9049 8.52734 15.8424 8.72234L15.0274 11.1723L12.5774 11.9898C12.3824 12.0548 12.2324 12.2073 12.1674 12.4023L11.5824 14.1623L8.27993 10.8648L21.8924 1.49234L22.6049 2.20484L21.9324 4.22484L21.9349 4.22234Z" fill="black"/>
</svg>
