<svg width="24" height="24" viewBox="0 0 24 24" fill="none" xmlns="http://www.w3.org/2000/svg">
<path fill-rule="evenodd" clip-rule="evenodd" d="M13.13 0H10.88V2.46466C6.47484 2.97651 2.97934 6.47053 2.46522 10.875H0V13.125H2.46521C2.97931 17.5295 6.47482 21.0235 10.88 21.5354V24H13.13V21.5342C17.5305 21.0182 21.0211 17.5262 21.5348 13.125H24V10.875H21.5348C21.021 6.47387 17.5305 2.98181 13.13 2.46583V0ZM19.35 12C19.35 16.0593 16.0593 19.35 12 19.35C7.9407 19.35 4.64999 16.0593 4.64999 12C4.64999 7.94073 7.9407 4.65002 12 4.65002C16.0593 4.65002 19.35 7.94073 19.35 12ZM12 16C14.2091 16 16 14.2091 16 12C16 9.79086 14.2091 8 12 8C9.79086 8 8 9.79086 8 12C8 14.2091 9.79086 16 12 16Z" fill="black"/>
</svg>
