<svg width="25" height="24" viewBox="0 0 25 24" fill="none" xmlns="http://www.w3.org/2000/svg">
<path fill-rule="evenodd" clip-rule="evenodd" d="M14.13 0H11.88V2.46466C7.47482 2.97651 3.97932 6.47053 3.46519 10.875H0.999975V13.125H3.46518C3.66354 14.8244 4.30572 16.3882 5.27273 17.6975L1.1407 21.8133C0.818999 22.1337 0.816763 22.65 1.13567 22.9731L1.88702 23.7359C2.21372 24.0669 2.75154 24.0686 3.1828 23.842L7.27612 19.7077C8.59206 20.6866 10.1673 21.3364 11.88 21.5354V24H14.13V21.5342C18.5304 21.0182 22.021 17.5262 22.5348 13.125H25V10.875H22.5347C22.3312 9.13099 21.6602 7.52972 20.6503 6.19982L24.6565 2.15354C24.9737 1.83625 24.9791 1.32744 24.6687 1.00365L23.9584 0.258094C23.6329 -0.081541 23.0874 -0.0866589 22.7554 0.246806L18.7262 4.29403C17.4123 3.31614 15.8398 2.66632 14.13 2.46583V0ZM17.117 5.91039C15.9424 5.11477 14.5255 4.65002 13 4.65002C8.94068 4.65002 5.64997 7.94073 5.64997 12C5.64997 13.5124 6.10677 14.9182 6.88993 16.0867L7.07067 15.9067L15.762 7.27138L17.117 5.91039ZM8.88011 18.0877C10.0552 18.8845 11.4732 19.35 13 19.35C17.0593 19.35 20.35 16.0593 20.35 12C20.35 10.4471 19.8683 9.0066 19.0463 7.81984L8.88011 18.0877Z" fill="black"/>
</svg>
