<svg width="24" height="24" viewBox="0 0 24 24" fill="none" xmlns="http://www.w3.org/2000/svg">
<path fill-rule="evenodd" clip-rule="evenodd" d="M23.2778 0.722085C23.7074 1.15166 23.7074 1.84814 23.2778 2.27772L2.27781 23.2777C1.84823 23.7073 1.15175 23.7073 0.722176 23.2777C0.2926 22.8481 0.2926 22.1517 0.722176 21.7221L21.7222 0.722085C22.1518 0.292508 22.8482 0.292508 23.2778 0.722085Z" fill="black"/>
<path fill-rule="evenodd" clip-rule="evenodd" d="M10.88 1C10.88 0.447716 11.3277 0 11.88 0H12.13C12.6823 0 13.13 0.447715 13.13 1V2.46583C17.5305 2.9818 21.0211 6.47386 21.5348 10.875H23C23.5523 10.875 24 11.3227 24 11.875V12.125C24 12.6773 23.5523 13.125 23 13.125H21.5348C21.0211 17.5262 17.5305 21.0183 13.13 21.5342V23C13.13 23.5523 12.6823 24 12.13 24H11.88C11.3277 24 10.88 23.5523 10.88 23V21.5354C6.47484 21.0235 2.97934 17.5295 2.46524 13.125H1C0.447716 13.125 0 12.6773 0 12.125V11.875C0 11.3227 0.447715 10.875 1 10.875H2.46525C2.97937 6.47054 6.47485 2.97653 10.88 2.46466V1ZM12 19.35C16.0593 19.35 19.35 16.0593 19.35 12C19.35 7.94073 16.0593 4.65002 12 4.65002C7.94073 4.65002 4.65002 7.94073 4.65002 12C4.65002 16.0593 7.94073 19.35 12 19.35Z" fill="black"/>
</svg>
