<svg width="24" height="24" fill="none" xmlns="http://www.w3.org/2000/svg"><path d="M16 12a4 4 0 11-8 0 4 4 0 018 0z" fill="#29D305"/><path fill-rule="evenodd" clip-rule="evenodd" d="M10.88 1a1 1 0 011-1h.25a1 1 0 011 1v1.466a9.604 9.604 0 018.405 8.409H23a1 1 0 011 1v.25a1 1 0 01-1 1h-1.465a9.604 9.604 0 01-8.405 8.41V23a1 1 0 01-1 1h-.25a1 1 0 01-1-1v-1.465a9.604 9.604 0 01-8.415-8.41H1a1 1 0 01-1-1v-.25a1 1 0 011-1h1.465a9.604 9.604 0 018.415-8.41V1zM12 19.35a7.35 7.35 0 100-14.7 7.35 7.35 0 000 14.7z" fill="#000"/></svg>