<svg width="24" height="24" viewBox="0 0 24 24" fill="none" xmlns="http://www.w3.org/2000/svg">
<g clip-path="url(#clip0)">
<path fill-rule="evenodd" clip-rule="evenodd" d="M6.96983 10.4067L6.14514 11.6337C5.93678 11.8847 5.80051 12.1875 5.75091 12.5099C5.70132 12.8323 5.74024 13.1622 5.86353 13.4641C5.97583 13.6893 6.14029 13.8843 6.34322 14.033C6.54615 14.1817 6.78168 14.2798 7.03017 14.319L9.43386 14.7012C9.45998 14.7036 9.48532 14.7114 9.50831 14.724C9.53129 14.7366 9.55144 14.7539 9.56747 14.7746C9.58351 14.7954 9.59511 14.8192 9.60153 14.8446C9.60796 14.8701 9.60908 14.8966 9.60483 14.9224L8.36779 23.3705C8.34732 23.4924 8.36905 23.6177 8.42939 23.7256C8.48974 23.8335 8.58508 23.9175 8.69968 23.9639C8.81307 24.0071 8.93751 24.0117 9.05382 23.9772C9.17013 23.9427 9.27186 23.8708 9.34334 23.7728L15.1097 16L17.892 12.398C18.0541 12.1663 18.164 11.902 18.2138 11.6236C18.2791 11.3526 18.2791 11.0699 18.2138 10.7989C18.1379 10.5281 17.9922 10.2819 17.7914 10.0848C17.594 9.8838 17.3361 9.75308 17.0572 9.71273L14.6133 9.32049C14.5921 9.31801 14.5716 9.31134 14.5531 9.30086C14.5345 9.29038 14.5181 9.27631 14.505 9.25946C14.4919 9.24262 14.4823 9.22333 14.4767 9.20273C14.4711 9.18213 14.4697 9.16062 14.4725 9.13946C14.6536 8.03317 15.7599 0.993096 15.7498 0.490234C15.7397 -0.0126282 14.9653 -0.203716 14.6133 0.279032L9.60968 7L6.96983 10.4067Z" fill="black"/>
</g>
<defs>
<clipPath id="clip0">
<rect width="24" height="24" fill="white"/>
</clipPath>
</defs>
</svg>
