<svg width="24" height="24" viewBox="0 0 24 24" fill="none" xmlns="http://www.w3.org/2000/svg">
<path fill-rule="evenodd" clip-rule="evenodd" d="M9.60968 7.00012L6.96983 10.4069L6.14514 11.6338C5.93678 11.8848 5.80051 12.1877 5.75091 12.5101C5.70132 12.8325 5.74024 13.1623 5.86353 13.4643C5.97583 13.6894 6.14029 13.8844 6.34322 14.0331C6.54615 14.1818 6.78168 14.2799 7.03017 14.3191L9.43386 14.7013C9.45998 14.7037 9.48532 14.7115 9.50831 14.7241C9.53129 14.7368 9.55144 14.754 9.56747 14.7747C9.58351 14.7955 9.59511 14.8193 9.60153 14.8448C9.60796 14.8702 9.60908 14.8967 9.60483 14.9226L8.36779 23.3706C8.34732 23.4926 8.36905 23.6178 8.42939 23.7257C8.48974 23.8336 8.58508 23.9177 8.69968 23.964C8.81307 24.0072 8.93751 24.0118 9.05382 23.9773C9.17013 23.9428 9.27186 23.871 9.34334 23.7729L15.1097 16.0001L17.892 12.3981C18.0541 12.1664 18.164 11.9021 18.2138 11.6237C18.2791 11.3527 18.2791 11.0701 18.2138 10.799C18.1379 10.5282 17.9922 10.282 17.7914 10.085C17.594 9.88393 17.3361 9.7532 17.0572 9.71285L14.6133 9.32062C14.5921 9.31814 14.5716 9.31146 14.5531 9.30098C14.5345 9.29051 14.5181 9.27643 14.505 9.25959C14.4919 9.24274 14.4823 9.22345 14.4767 9.20285C14.4711 9.18225 14.4697 9.16074 14.4725 9.13959C14.6191 8.24366 15.3726 3.45606 15.6485 1.4006C15.6515 1.37829 15.6544 1.3563 15.6573 1.33464C15.6693 1.24409 15.6804 1.15932 15.6903 1.08094C15.6909 1.07588 15.6916 1.07084 15.6922 1.06583C15.7301 0.765672 15.7512 0.561883 15.7498 0.490356C15.7397 -0.0125062 14.9653 -0.203594 14.6133 0.279154L9.60968 7.00012ZM13.7655 3.92985L10.8042 7.90747L8.18652 11.2856L7.34772 12.5336L7.29922 12.592C7.26447 12.6339 7.24174 12.6844 7.23347 12.7382C7.22901 12.7672 7.22884 12.7965 7.23286 12.8253C7.24229 12.8316 7.25297 12.8357 7.26418 12.8375L7.26571 12.8377L9.64495 13.216C9.85023 13.244 10.0488 13.3096 10.2308 13.4096C10.4342 13.5214 10.6125 13.6739 10.7544 13.8576C10.8963 14.0412 10.9989 14.2522 11.0558 14.4773C11.1111 14.696 11.122 14.9235 11.088 15.1464L10.4026 19.8275L13.9137 15.0947L16.6756 11.5191C16.7062 11.4703 16.7272 11.416 16.7373 11.3592L16.7452 11.3155L16.7556 11.2723C16.7625 11.2435 16.7645 11.2138 16.7614 11.1846L14.3906 10.8041C14.189 10.7744 13.9944 10.708 13.8167 10.6078C13.6247 10.4996 13.4562 10.3544 13.321 10.1805C13.1858 10.0066 13.0864 9.80755 13.0289 9.59488C12.9713 9.38227 12.9566 9.16029 12.9856 8.94187L12.9886 8.91956L12.9922 8.89735C13.0815 8.35176 13.4024 6.32121 13.6998 4.36338C13.7219 4.21815 13.7438 4.07343 13.7655 3.92985Z" fill="black"/>
</svg>
