<svg width="24" height="24" viewBox="0 0 24 24" fill="none" xmlns="http://www.w3.org/2000/svg">
<path d="M21.7173 23.2538L2.28269 23.2338C1.88888 23.2415 1.50003 23.145 1.15537 22.9543C0.81071 22.7636 0.522437 22.4853 0.319636 22.1476C0.116836 21.8098 0.00668422 21.4245 0.000294734 21.0306C-0.00609476 20.6367 0.0915043 20.248 0.283244 19.9038L10.0305 1.92384C10.2226 1.56883 10.507 1.27233 10.8537 1.06571C11.2004 0.859081 11.5964 0.75 12 0.75C12.4036 0.75 12.7996 0.859081 13.1463 1.06571C13.493 1.27233 13.7774 1.56883 13.9695 1.92384L23.7168 19.9238C23.9085 20.268 24.0061 20.6567 23.9997 21.0506C23.9933 21.4445 23.8832 21.8298 23.6804 22.1676C23.4776 22.5053 23.1893 22.7836 22.8446 22.9743C22.5 23.165 22.1111 23.2615 21.7173 23.2538ZM12.03 2.23384C11.8955 2.23554 11.7639 2.27244 11.6481 2.34086C11.5323 2.40929 11.4365 2.50685 11.3702 2.62384L1.63287 20.6238C1.5689 20.7367 1.53528 20.8641 1.53528 20.9938C1.53528 21.1235 1.5689 21.251 1.63287 21.3638C1.70083 21.4757 1.79615 21.5683 1.90985 21.6331C2.02355 21.6978 2.15187 21.7325 2.28269 21.7338H21.7773C21.9081 21.7325 22.0364 21.6978 22.1501 21.6331C22.2638 21.5683 22.3592 21.4757 22.4271 21.3638C22.4884 21.2501 22.5204 21.123 22.5204 20.9938C22.5204 20.8647 22.4884 20.7375 22.4271 20.6238L12.6798 2.62384C12.6143 2.50829 12.5201 2.41165 12.4062 2.34331C12.2923 2.27498 12.1627 2.23726 12.03 2.23384Z" fill="black"/>
<path d="M15.5576 16.5253L8.51455 10.8908C8.45545 10.8377 8.38583 10.7977 8.31022 10.7733C8.23461 10.7489 8.15472 10.7407 8.07573 10.7492C7.99675 10.7578 7.92045 10.7829 7.8518 10.8229C7.78315 10.8628 7.7237 10.9168 7.6773 10.9813C7.62865 11.0383 7.5926 11.105 7.57151 11.1769C7.55041 11.2488 7.54475 11.3243 7.5549 11.3986C7.56505 11.4728 7.59078 11.5441 7.63039 11.6077C7.67001 11.6713 7.72263 11.7258 7.78479 11.7677L9.04066 12.7746C9.05103 12.7852 9.05684 12.7994 9.05684 12.8142C9.05684 12.829 9.05103 12.8433 9.04066 12.8538L8.57678 13.544C8.45958 13.6852 8.38293 13.8555 8.35504 14.0369C8.32714 14.2182 8.34903 14.4037 8.41838 14.5736C8.48155 14.7002 8.57406 14.8099 8.6882 14.8936C8.80235 14.9772 8.93483 15.0324 9.07461 15.0544L10.4267 15.2694C10.4413 15.2708 10.4556 15.2751 10.4685 15.2822C10.4815 15.2894 10.4928 15.299 10.5018 15.3107C10.5108 15.3224 10.5174 15.3358 10.521 15.3501C10.5246 15.3644 10.5252 15.3793 10.5228 15.3939L9.827 20.1458C9.81549 20.2144 9.82771 20.2849 9.86165 20.3455C9.8956 20.4062 9.94923 20.4535 10.0137 20.4796C10.0775 20.5039 10.1475 20.5065 10.2129 20.4871C10.2783 20.4677 10.3355 20.4273 10.3757 20.3721L13.3797 16.3329C13.3912 16.3222 13.4063 16.3162 13.4221 16.3162C13.4378 16.3162 13.453 16.3222 13.4645 16.3329L14.8279 17.3682C14.8807 17.4176 14.9434 17.4553 15.0118 17.4788C15.0802 17.5023 15.1528 17.5112 15.2249 17.5048C15.297 17.4984 15.3669 17.4769 15.43 17.4416C15.4932 17.4064 15.5483 17.3582 15.5916 17.3003C15.644 17.2492 15.685 17.1875 15.7119 17.1194C15.7388 17.0514 15.7511 16.9784 15.7479 16.9052C15.7447 16.8321 15.7261 16.7604 15.6933 16.695C15.6605 16.6295 15.6143 16.5717 15.5576 16.5253Z" fill="#FFA000"/>
<path d="M13.9793 7.27575C13.9849 7.55861 13.3627 11.5186 13.2608 12.1409C13.2593 12.1528 13.2601 12.1649 13.2632 12.1764C13.2663 12.188 13.2717 12.1989 13.2791 12.2084C13.2865 12.2178 13.2957 12.2258 13.3061 12.2316C13.3166 12.2375 13.3281 12.2413 13.34 12.2427L14.7147 12.4633C14.8716 12.486 15.0166 12.5595 15.1277 12.6726C15.2406 12.7834 15.3225 12.9219 15.3653 13.0743C15.402 13.2267 15.402 13.3857 15.3653 13.5382C15.3372 13.6948 15.2755 13.8434 15.1843 13.9738L14.7769 14.5395C14.7642 14.553 14.7489 14.5638 14.7319 14.5712C14.7149 14.5785 14.6965 14.5823 14.6779 14.5823C14.6594 14.5823 14.641 14.5785 14.624 14.5712C14.607 14.5638 14.5916 14.553 14.5789 14.5395L12.4462 12.8141L10.4097 11.1848C10.3937 11.168 10.3849 11.1457 10.3849 11.1226C10.3849 11.0994 10.3937 11.0772 10.4097 11.0604L13.34 7.15695C13.538 6.88541 13.9736 6.9929 13.9793 7.27575Z" fill="#FFA000"/>
</svg>
