<svg width="24" height="24" viewBox="0 0 24 24" fill="none" xmlns="http://www.w3.org/2000/svg">
<path d="M15.3131 13.3636L12.9098 13.3828L14.4739 7.5L11.1931 12.1564L14.0352 15.0307L15.3131 13.3636Z" fill="#FFA000"/>
<path d="M15.2644 18.424C15.4491 18.2406 15.4501 17.9421 15.2665 17.7575L8.49189 10.9447C8.31298 10.7648 8.02281 10.7617 7.84017 10.9378C7.65326 11.1181 7.65043 11.4165 7.83388 11.6003L9.99284 13.7628L9.1572 15.0527L11.1931 15.2L9.76683 20.6863L12.8124 16.6179L14.5976 18.4211C14.7808 18.6062 15.0795 18.6075 15.2644 18.424Z" fill="#FFA000"/>
<path d="M21.7173 23.2538L2.28269 23.2338C1.88888 23.2415 1.50003 23.145 1.15537 22.9543C0.81071 22.7636 0.522437 22.4853 0.319636 22.1476C0.116836 21.8098 0.00668422 21.4245 0.000294734 21.0306C-0.00609476 20.6367 0.0915043 20.248 0.283244 19.9038L10.0305 1.92384C10.2226 1.56883 10.507 1.27233 10.8537 1.06571C11.2004 0.859081 11.5964 0.75 12 0.75C12.4036 0.75 12.7996 0.859081 13.1463 1.06571C13.493 1.27233 13.7774 1.56883 13.9695 1.92384L23.7168 19.9238C23.9085 20.268 24.0061 20.6567 23.9997 21.0506C23.9933 21.4445 23.8832 21.8298 23.6804 22.1676C23.4776 22.5053 23.1893 22.7836 22.8446 22.9743C22.5 23.165 22.1111 23.2615 21.7173 23.2538ZM12.03 2.23384C11.8955 2.23554 11.7639 2.27244 11.6481 2.34086C11.5323 2.40929 11.4365 2.50685 11.3702 2.62384L1.63287 20.6238C1.5689 20.7367 1.53528 20.8641 1.53528 20.9938C1.53528 21.1235 1.5689 21.251 1.63287 21.3638C1.70083 21.4757 1.79615 21.5683 1.90985 21.6331C2.02355 21.6978 2.15187 21.7325 2.28269 21.7338H21.7773C21.9081 21.7325 22.0364 21.6978 22.1501 21.6331C22.2638 21.5683 22.3592 21.4757 22.4271 21.3638C22.4884 21.2501 22.5204 21.123 22.5204 20.9938C22.5204 20.8647 22.4884 20.7375 22.4271 20.6238L12.6798 2.62384C12.6143 2.50829 12.5201 2.41165 12.4062 2.34331C12.2923 2.27498 12.1627 2.23726 12.03 2.23384Z" fill="black"/>
</svg>
