<svg width="24" height="24" viewBox="0 0 24 24" fill="none" xmlns="http://www.w3.org/2000/svg">
<path d="M13.76 4.17496H14.945C15.34 4.17496 15.655 3.85496 15.655 3.46496C15.655 3.07496 15.34 2.74996 14.945 2.74996H14.235V2.03996C14.235 1.64496 13.915 1.32996 13.525 1.32996C13.135 1.32996 12.815 1.64996 12.815 2.03996V2.74996H11.39V2.03996C11.39 1.64496 11.07 1.32996 10.68 1.32996C10.29 1.32996 9.97001 1.64996 9.97001 2.03996V2.74996H5.7V2.03996C5.7 1.64496 5.38 1.32996 4.99 1.32996C4.6 1.32996 4.27 1.64496 4.27 2.03996V2.74996H2.85V2.03996C2.85 1.64496 2.53 1.32996 2.14 1.32996C1.75 1.32996 1.425 1.64496 1.425 2.03996V2.74996H0.715005C0.320005 2.74996 0.00500488 3.06996 0.00500488 3.45996C0.00500488 3.84996 0.325005 4.16996 0.715005 4.16996H1.9L7.12 8.08496V21.96C7.12 22.355 7.44 22.67 7.83 22.67C8.22501 22.67 8.54 22.35 8.54 21.96V8.08496L13.76 4.17496ZM11.385 4.17496L7.83 6.84496L4.27 4.17496H11.385Z" fill="black"/>
<path d="M23.285 13.01C23.275 13.015 23.27 13.01 23.26 13.01C18.925 13.01 14.89 11.07 12.18 7.68503C11.935 7.38003 11.485 7.33003 11.18 7.57503C10.875 7.82003 10.825 8.27003 11.07 8.57503C14.05 12.3 18.49 14.435 23.26 14.435C23.66 14.445 24 14.125 24 13.72C23.995 13.325 23.68 13.01 23.285 13.01Z" fill="#29D305"/>
</svg>
