<svg width="24" height="24" fill="none" xmlns="http://www.w3.org/2000/svg"><path fill-rule="evenodd" clip-rule="evenodd" d="M1.155 22.954c.345.191.734.287 1.128.28l19.434.02a2.238 2.238 0 002-3.33l-9.747-18a2.24 2.24 0 00-3.94 0L.284 19.904a2.24 2.24 0 00.872 3.05zM11.648 2.341a.77.77 0 01.382-.107.77.77 0 01.65.39l9.747 18a.78.78 0 010 .74.77.77 0 01-.65.37H2.283a.77.77 0 01-.65-.37.75.75 0 010-.74l9.737-18a.77.77 0 01.278-.283zm3.972 11.323l-2.403.019L14.78 7.8l-3.28 4.657 2.841 2.874 1.278-1.667zm.002 5.01a.4.4 0 00.002-.566L8.754 11.2a.4.4 0 00-.561-.006l-.093.09a.4.4 0 00-.005.57l2.205 2.209-.836 1.29 2.036.147-1.426 5.486 3.045-4.068 1.836 1.854a.4.4 0 00.566.002l.1-.1z" fill="#000"/></svg>