<svg width="24" height="24" viewBox="0 0 24 24" fill="none" xmlns="http://www.w3.org/2000/svg">
<path d="M21.7173 23.2538L2.28269 23.2338C1.88888 23.2415 1.50003 23.145 1.15537 22.9543C0.81071 22.7636 0.522437 22.4853 0.319636 22.1476C0.116836 21.8098 0.00668422 21.4245 0.000294734 21.0306C-0.00609476 20.6367 0.0915043 20.248 0.283244 19.9038L10.0305 1.92384C10.2226 1.56883 10.507 1.27233 10.8537 1.06571C11.2004 0.859081 11.5964 0.75 12 0.75C12.4036 0.75 12.7996 0.859081 13.1463 1.06571C13.493 1.27233 13.7774 1.56883 13.9695 1.92384L23.7168 19.9238C23.9085 20.268 24.0061 20.6567 23.9997 21.0506C23.9933 21.4445 23.8832 21.8298 23.6804 22.1676C23.4776 22.5053 23.1893 22.7836 22.8446 22.9743C22.5 23.165 22.1111 23.2615 21.7173 23.2538ZM12.03 2.23384C11.8955 2.23554 11.7639 2.27244 11.6481 2.34086C11.5323 2.40929 11.4365 2.50685 11.3702 2.62384L1.63287 20.6238C1.5689 20.7367 1.53528 20.8641 1.53528 20.9938C1.53528 21.1235 1.5689 21.251 1.63287 21.3638C1.70083 21.4757 1.79615 21.5683 1.90985 21.6331C2.02355 21.6978 2.15187 21.7325 2.28269 21.7338H21.7773C21.9081 21.7325 22.0364 21.6978 22.1501 21.6331C22.2638 21.5683 22.3592 21.4757 22.4271 21.3638C22.4884 21.2501 22.5204 21.123 22.5204 20.9938C22.5204 20.8647 22.4884 20.7375 22.4271 20.6238L12.6798 2.62384C12.6143 2.50829 12.5201 2.41165 12.4062 2.34331C12.2923 2.27498 12.1627 2.23726 12.03 2.23384Z" fill="black"/>
<path d="M15.5576 16.7753L8.51455 11.1408C8.45545 11.0877 8.38583 11.0477 8.31022 11.0233C8.23461 10.9989 8.15472 10.9907 8.07573 10.9992C7.99675 11.0078 7.92045 11.0329 7.8518 11.0729C7.78315 11.1128 7.7237 11.1668 7.6773 11.2313C7.62865 11.2883 7.5926 11.355 7.57151 11.4269C7.55041 11.4988 7.54475 11.5743 7.5549 11.6486C7.56505 11.7228 7.59078 11.7941 7.63039 11.8577C7.67001 11.9213 7.72263 11.9758 7.78479 12.0177L9.04066 13.0246C9.05103 13.0352 9.05684 13.0494 9.05684 13.0642C9.05684 13.079 9.05103 13.0933 9.04066 13.1038L8.57678 13.794C8.45958 13.9352 8.38293 14.1055 8.35504 14.2869C8.32714 14.4682 8.34903 14.6537 8.41838 14.8236C8.48155 14.9502 8.57406 15.0599 8.6882 15.1436C8.80235 15.2272 8.93483 15.2824 9.07461 15.3044L10.4267 15.5194C10.4413 15.5208 10.4556 15.5251 10.4685 15.5322C10.4815 15.5394 10.4928 15.549 10.5018 15.5607C10.5108 15.5724 10.5174 15.5858 10.521 15.6001C10.5246 15.6144 10.5252 15.6293 10.5228 15.6439L9.827 20.3958C9.81549 20.4644 9.82771 20.5349 9.86165 20.5955C9.8956 20.6562 9.94923 20.7035 10.0137 20.7296C10.0775 20.7539 10.1475 20.7565 10.2129 20.7371C10.2783 20.7177 10.3355 20.6773 10.3757 20.6221L13.3797 16.5829C13.3912 16.5722 13.4063 16.5662 13.4221 16.5662C13.4378 16.5662 13.453 16.5722 13.4645 16.5829L14.8279 17.6182C14.8807 17.6676 14.9434 17.7053 15.0118 17.7288C15.0802 17.7523 15.1528 17.7612 15.2249 17.7548C15.297 17.7484 15.3669 17.7269 15.43 17.6916C15.4932 17.6564 15.5483 17.6082 15.5916 17.5503C15.644 17.4992 15.685 17.4375 15.7119 17.3694C15.7388 17.3014 15.7511 17.2284 15.7479 17.1552C15.7447 17.0821 15.7261 17.0104 15.6933 16.945C15.6605 16.8795 15.6143 16.8217 15.5576 16.7753Z" fill="#29D305"/>
<path d="M13.9793 7.52575C13.9849 7.80861 13.3627 11.7686 13.2608 12.3909C13.2593 12.4028 13.2601 12.4149 13.2632 12.4264C13.2663 12.438 13.2717 12.4489 13.2791 12.4584C13.2865 12.4678 13.2957 12.4758 13.3061 12.4816C13.3166 12.4875 13.3281 12.4913 13.34 12.4927L14.7147 12.7133C14.8716 12.736 15.0166 12.8095 15.1277 12.9226C15.2406 13.0334 15.3225 13.1719 15.3653 13.3243C15.402 13.4767 15.402 13.6357 15.3653 13.7882C15.3372 13.9448 15.2755 14.0934 15.1843 14.2238L14.7769 14.7895C14.7642 14.803 14.7489 14.8138 14.7319 14.8212C14.7149 14.8285 14.6965 14.8323 14.6779 14.8323C14.6594 14.8323 14.641 14.8285 14.624 14.8212C14.607 14.8138 14.5916 14.803 14.5789 14.7895L12.4462 13.0641L10.4097 11.4348C10.3937 11.418 10.3849 11.3957 10.3849 11.3726C10.3849 11.3494 10.3937 11.3272 10.4097 11.3104L13.34 7.40695C13.538 7.13541 13.9736 7.2429 13.9793 7.52575Z" fill="#29D305"/>
</svg>
