<svg width="24" height="24" fill="none" xmlns="http://www.w3.org/2000/svg"><path fill-rule="evenodd" clip-rule="evenodd" d="M9.464 19.975c1.69 0 2.983-1.295 2.983-2.987 0-1.693-1.292-2.988-2.983-2.988-1.69 0-2.983 1.295-2.983 2.988 0 1.692 1.392 2.987 2.983 2.987zm0-4.481c.796 0 1.492.697 1.492 1.494 0 .796-.696 1.493-1.492 1.493-.795 0-1.492-.697-1.492-1.493 0-.797.697-1.494 1.492-1.494z" fill="#000"/><path fill-rule="evenodd" clip-rule="evenodd" d="M19.11 0H4.79C3.796 0 3 .797 3 1.793v20.415C3 23.203 3.796 24 4.79 24H19c.994 0 2-.797 2-1.793V1.793C20.9.797 20.105 0 19.11 0zm.39 21.5c0 .1 0 1-1.048 1H5.5c-1 0-1-.9-1-1l-.008-9.54H19.5v9.54zm0-10.885H4.492L4.5 1.5h15v9.115zm0-9.115h-15v1c0-.1 0-1 1-1h13c.1 0 1 0 1 1v-1z" fill="#000"/><path d="M10.552 4h3.103v5h-3.103v-.918h2.172V6.857h-2.172V5.94h2.172v-1.02h-2.172V4zM9.103 8.082H6.931V6.857h2.172V4H6v.918h2.172v1.02H6V9h3.103v-.918zM16.035 5.939H18V9h-2.897v-.918h1.966V6.857h-1.966V4H18v.918h-1.965v1.02z" fill="#000"/><path d="M10.552 4h3.103v5h-3.103v-.918h2.172V6.857h-2.172V5.94h2.172v-1.02h-2.172V4zM9.103 8.082H6.931V6.857h2.172V4H6v.918h2.172v1.02H6V9h3.103v-.918zM16.035 5.939H18V9h-2.897v-.918h1.966V6.857h-1.966V4H18v.918h-1.965v1.02z" fill="#000"/><rect x="15.13" y="17.78" width="2.19" height="2.19" rx="1.095" fill="#29D305"/><rect x="15.13" y="14" width="2.19" height="2.19" rx="1.095" fill="#29D305"/></svg>