<svg width="24" height="24" viewBox="0 0 24 24" fill="none" xmlns="http://www.w3.org/2000/svg">
<path fill-rule="evenodd" clip-rule="evenodd" d="M14.945 4.17496H13.76L8.54 8.08496V21.96C8.54 22.35 8.22501 22.67 7.83 22.67C7.44 22.67 7.12 22.355 7.12 21.96V8.08496L1.9 4.16996H0.715005C0.325005 4.16996 0.00500488 3.84996 0.00500488 3.45996C0.00500488 3.06996 0.320005 2.74996 0.715005 2.74996H1.425V2.03996C1.425 1.64496 1.75 1.32996 2.14 1.32996C2.53 1.32996 2.85 1.64496 2.85 2.03996V2.74996H4.27V2.03996C4.27 1.64496 4.6 1.32996 4.99 1.32996C5.38 1.32996 5.7 1.64496 5.7 2.03996V2.74996H9.97001V2.03996C9.97001 1.64996 10.29 1.32996 10.68 1.32996C11.07 1.32996 11.39 1.64496 11.39 2.03996V2.74996H12.815V2.03996C12.815 1.64996 13.135 1.32996 13.525 1.32996C13.915 1.32996 14.235 1.64496 14.235 2.03996V2.74996H14.945C15.34 2.74996 15.655 3.07496 15.655 3.46496C15.655 3.85496 15.34 4.17496 14.945 4.17496ZM7.83 6.84496L11.385 4.17496H4.27L7.83 6.84496ZM23.2692 13.0112C23.2741 13.0123 23.2785 13.0133 23.285 13.01C23.68 13.01 23.995 13.325 24 13.72C24 14.125 23.66 14.445 23.26 14.435C18.49 14.435 14.05 12.3 11.07 8.57503C10.825 8.27003 10.875 7.82003 11.18 7.57503C11.485 7.33003 11.935 7.38003 12.18 7.68503C14.89 11.07 18.925 13.01 23.26 13.01C23.2635 13.01 23.2664 13.0107 23.2692 13.0112Z" fill="black"/>
</svg>
