<svg width="24" height="24" fill="none" xmlns="http://www.w3.org/2000/svg"><path d="M15.313 13.364l-2.403.019L14.474 7.5l-3.28 4.656 2.841 2.875 1.278-1.667zM15.264 18.424a.471.471 0 00.003-.666l-6.775-6.813a.464.464 0 10-.658.655l2.159 2.163-.836 1.29 2.036.147-1.426 5.486 3.045-4.068 1.786 1.803a.471.471 0 00.666.003z" fill="#FFA000"/><path d="M21.717 23.254l-19.434-.02a2.238 2.238 0 01-2-3.33l9.748-17.98a2.24 2.24 0 013.938 0l9.748 18a2.241 2.241 0 01-2 3.33zM12.03 2.234a.77.77 0 00-.66.39l-9.737 18a.75.75 0 000 .74.77.77 0 00.65.37h19.494a.77.77 0 00.65-.37.78.78 0 000-.74l-9.747-18a.77.77 0 00-.65-.39z" fill="#000"/></svg>