<svg width="24" height="24" viewBox="0 0 24 24" fill="none" xmlns="http://www.w3.org/2000/svg">
<path fill-rule="evenodd" clip-rule="evenodd" d="M4.79006 0H19.1105C20.105 0 20.9006 0.796681 21 1.79253V22.2075C21 23.2033 19.9945 24 19 24H4.79006C3.79558 24 3 23.2033 3 22.2075V1.79253C3 0.796681 3.79558 0 4.79006 0ZM18.4521 22.5C19.5 22.5 19.5 21.5996 19.5 21.5V11.9598H4.49171L4.5 21.5C4.5 21.5996 4.5 22.5 5.5 22.5H18.4521ZM4.49171 10.6154H19.5V2.5C19.5 1.5 18.5994 1.5 18.5 1.5H12H5.5C4.5 1.5 4.5 2.40042 4.5 2.5V1.5L4.49171 10.6154ZM12.4475 16.9876C12.4475 18.6805 11.1547 19.9751 9.46409 19.9751C7.87293 19.9751 6.48066 18.6805 6.48066 16.9876C6.48066 15.2946 7.77348 14 9.46409 14C11.1547 14 12.4475 15.2946 12.4475 16.9876ZM10.9558 16.9876C10.9558 16.1909 10.2597 15.4938 9.46409 15.4938C8.66851 15.4938 7.97238 16.1909 7.97238 16.9876C7.97238 17.7842 8.66851 18.4813 9.46409 18.4813C10.2597 18.4813 10.9558 17.7842 10.9558 16.9876ZM16.2265 16.1909C16.8232 16.1909 17.3205 15.6929 17.3205 15.0954C17.3205 14.4979 16.8232 14 16.2265 14C15.6298 14 15.1326 14.4979 15.1326 15.0954C15.1326 15.6929 15.6298 16.1909 16.2265 16.1909ZM16.2265 19.9752C16.8307 19.9752 17.3205 19.4847 17.3205 18.8797C17.3205 18.2747 16.8307 17.7843 16.2265 17.7843C15.6224 17.7843 15.1326 18.2747 15.1326 18.8797C15.1326 19.4847 15.6224 19.9752 16.2265 19.9752ZM13.6552 4H10.5518V4.91837H12.7242V5.93878H10.5518V6.85714H12.7242V8.08163H10.5518V9H13.6552V4ZM9.10345 8.08163H6.93104V6.85714H9.10345V4H6V4.91837H8.17242V5.93878H6V9H9.10345V8.08163ZM18 5.93878H16.0345V4.91837H18V4H15.1034V6.85714H17.069V8.08163H15.1034V9H18V5.93878Z" fill="black"/>
</svg>
