<svg width="24" height="24" fill="none" xmlns="http://www.w3.org/2000/svg"><path d="M17.2 10.5c-3.7 0-6.6 2.7-6.8 6.3H6.3c-3.3 0-4.8-3.1-4.8-6 0-1.7.5-3.3 1.3-4.4.9-1.3 2.3-1.9 3.9-1.9h1.5c.3 1.7 1.9 3 3.7 3h1.5c1 0 1.8-.6 2.1-1.5H18c.4 0 .8-.3.8-.8s-.4-.7-.8-.7h-2.2V3H18c.4 0 .8-.3.8-.8s-.4-.7-.8-.7h-2.4C15.3.7 14.5 0 13.5 0H12c-1.8 0-3.3 1.3-3.7 3H6.8c-2.1 0-3.9.9-5.1 2.5C.6 7 0 8.8 0 10.9c0 3.7 2.2 7.5 6.3 7.5h4.2c.6 3.2 3.4 5.6 6.7 5.6 3.8 0 6.8-3.1 6.8-6.8 0-3.7-3-6.7-6.8-6.7zM12 1.6h1.5c.4 0 .8.3.8.8v3c-.1.3-.4.6-.8.6H12c-1.2 0-2.2-1-2.2-2.2 0-1.2 1-2.2 2.2-2.2zm5.2 20.8c-2.8 0-5.2-2.4-5.2-5.2 0-2.8 2.3-5.2 5.2-5.2 2.9 0 5.2 2.4 5.2 5.2 0 2.8-2.4 5.2-5.2 5.2z" fill="#000"/><path d="M17.199 18.8c-.6 0-1.1.5-1.1 1.1 0 .6.5 1.1 1.1 1.1.6 0 1.1-.5 1.1-1.1 0-.6-.5-1.1-1.1-1.1zM17.201 18c.5 0 .8-.3.8-.8v-3c0-.5-.3-.8-.8-.8s-.8.4-.8.8v3c0 .5.4.8.8.8z" fill="#29D305"/></svg>