<svg width="24" height="24" viewBox="0 0 24 24" fill="none" xmlns="http://www.w3.org/2000/svg">
<g clip-path="url(#clip0)">
<path fill-rule="evenodd" clip-rule="evenodd" d="M6.97984 10.4067L6.15515 11.6337C5.94678 11.8847 5.81052 12.1875 5.76092 12.5099C5.71133 12.8323 5.75025 13.1622 5.87354 13.4641C5.98584 13.6893 6.1503 13.8843 6.35323 14.033C6.55616 14.1817 6.79169 14.2798 7.04018 14.319L9.44387 14.7012C9.46999 14.7036 9.49533 14.7114 9.51832 14.724C9.5413 14.7366 9.56144 14.7539 9.57748 14.7746C9.59352 14.7954 9.60512 14.8192 9.61154 14.8446C9.61797 14.8701 9.61909 14.8966 9.61484 14.9224L8.3778 23.3705C8.35733 23.4924 8.37906 23.6177 8.4394 23.7256C8.49975 23.8335 8.59509 23.9175 8.70969 23.9639C8.82308 24.0071 8.94752 24.0117 9.06383 23.9772C9.18014 23.9427 9.28187 23.8708 9.35335 23.7728L15.1197 16L17.902 12.398C18.0642 12.1663 18.174 11.902 18.2238 11.6236C18.2892 11.3526 18.2892 11.0699 18.2238 10.7989C18.1479 10.5281 18.0022 10.2819 17.8014 10.0848C17.604 9.8838 17.3461 9.75308 17.0673 9.71273L14.6233 9.32049C14.6021 9.31801 14.5817 9.31134 14.5631 9.30086C14.5445 9.29038 14.5281 9.27631 14.515 9.25946C14.5019 9.24262 14.4923 9.22333 14.4867 9.20273C14.4812 9.18213 14.4797 9.16062 14.4825 9.13946C14.6636 8.03317 15.7699 0.993096 15.7598 0.490234C15.7498 -0.0126282 14.9754 -0.203716 14.6233 0.279032L9.61969 7L6.97984 10.4067Z" fill="#29D305"/>
</g>
<defs>
<clipPath id="clip0">
<rect width="24" height="24" fill="white"/>
</clipPath>
</defs>
</svg>
