<svg width="24" height="24" viewBox="0 0 24 24" fill="none" xmlns="http://www.w3.org/2000/svg">
<path d="M21.9975 19.5837L14.1717 13.323C14.1061 13.2641 14.0287 13.2196 13.9447 13.1925C13.8607 13.1654 13.7719 13.1563 13.6842 13.1658C13.5964 13.1752 13.5116 13.2031 13.4353 13.2475C13.3591 13.292 13.293 13.352 13.2415 13.4236C13.1874 13.487 13.1473 13.561 13.1239 13.6409C13.1005 13.7208 13.0942 13.8047 13.1054 13.8872C13.1167 13.9697 13.1453 14.0489 13.1893 14.1196C13.2334 14.1903 13.2918 14.2508 13.3609 14.2973L14.7563 15.4162C14.7678 15.428 14.7743 15.4438 14.7743 15.4602C14.7743 15.4767 14.7678 15.4925 14.7563 15.5042L14.2409 16.2711C14.1107 16.4279 14.0255 16.6172 13.9945 16.8187C13.9635 17.0202 13.9878 17.2263 14.0649 17.4151C14.1351 17.5558 14.2379 17.6777 14.3647 17.7706C14.4915 17.8636 14.6387 17.9248 14.794 17.9494L16.2963 18.1882C16.3127 18.1897 16.3285 18.1946 16.3429 18.2025C16.3572 18.2104 16.3698 18.2211 16.3798 18.2341C16.3899 18.2471 16.3971 18.262 16.4011 18.2779C16.4051 18.2938 16.4058 18.3103 16.4032 18.3265L15.63 23.6065C15.6172 23.6827 15.6308 23.761 15.6685 23.8284C15.7063 23.8959 15.7658 23.9484 15.8375 23.9774C15.9083 24.0044 15.9861 24.0073 16.0588 23.9857C16.1315 23.9641 16.1951 23.9192 16.2398 23.858L19.5775 19.3699C19.5903 19.358 19.6071 19.3514 19.6246 19.3514C19.6421 19.3514 19.659 19.358 19.6718 19.3699L21.1866 20.5202C21.2454 20.5751 21.315 20.617 21.391 20.6431C21.467 20.6693 21.5477 20.6791 21.6278 20.672C21.7078 20.6649 21.7855 20.641 21.8557 20.6018C21.9259 20.5627 21.9871 20.5092 22.0352 20.4448C22.0934 20.388 22.139 20.3195 22.1689 20.2438C22.1988 20.1682 22.2125 20.0871 22.2089 20.0058C22.2053 19.9245 22.1847 19.8449 22.1482 19.7722C22.1118 19.6994 22.0605 19.6352 21.9975 19.5837Z" fill="#FFA000"/>
<path d="M20.2438 9.3064C20.2501 9.62068 19.5586 14.0207 19.4455 14.7121C19.4437 14.7254 19.4446 14.7388 19.4481 14.7517C19.4516 14.7646 19.4576 14.7766 19.4658 14.7871C19.474 14.7977 19.4842 14.8065 19.4958 14.813C19.5074 14.8196 19.5202 14.8237 19.5335 14.8253L21.0609 15.0704C21.2352 15.0957 21.3964 15.1774 21.5198 15.303C21.6453 15.4261 21.7363 15.58 21.7838 15.7493C21.8246 15.9187 21.8246 16.0953 21.7838 16.2647C21.7526 16.4387 21.684 16.6039 21.5827 16.7487L21.1301 17.3773C21.116 17.3923 21.0989 17.4043 21.08 17.4125C21.0611 17.4207 21.0407 17.4249 21.0201 17.4249C20.9995 17.4249 20.9791 17.4207 20.9601 17.4125C20.9412 17.4043 20.9242 17.3923 20.9101 17.3773L18.5403 15.4602L16.2775 13.6499C16.2598 13.6312 16.2499 13.6064 16.2499 13.5807C16.2499 13.555 16.2598 13.5302 16.2775 13.5116L19.5335 9.17439C19.7535 8.87268 20.2375 8.99211 20.2438 9.3064Z" fill="#FFA000"/>
<path d="M21.4023 2.27966L16.069 0.146328C15.5934 -0.0487761 15.0601 -0.0487761 14.5846 0.146328L8.66455 2.48889C8.90455 2.42189 8.58505 2.50153 8.66455 2.48889C8.66455 2.48889 8.74405 2.4975 8.66455 2.48486L3.16233 0.315218C2.95991 0.233102 2.74033 0.202325 2.52314 0.22563C2.30595 0.248935 2.09789 0.325597 1.91751 0.448788C1.73712 0.571979 1.59 0.737873 1.48926 0.931693C1.38852 1.12551 1.33728 1.34124 1.34011 1.55966V14.333C1.33963 14.7324 1.45876 15.1228 1.68213 15.4539C1.90551 15.785 2.22291 16.0417 2.59344 16.1908L7.92677 18.3241C8.40344 18.5136 8.93455 18.5136 9.41122 18.3241L11.9623 17.2841C12.044 17.2514 12.1185 17.203 12.1815 17.1415C12.2445 17.08 12.2947 17.0068 12.3294 16.9259C12.3641 16.845 12.3825 16.7581 12.3835 16.6701C12.3846 16.5821 12.3683 16.4947 12.3357 16.413C12.303 16.3313 12.2545 16.2568 12.1931 16.1938C12.1316 16.1308 12.0583 16.0806 11.9774 16.0459C11.8965 16.0112 11.8096 15.9929 11.7216 15.9918C11.6336 15.9907 11.5463 16.007 11.4646 16.0397L9.33122 16.9286V3.70551L9.40233 3.67522L14.6646 1.55077V7.33744C14.6646 7.51425 14.7348 7.68382 14.8598 7.80884C14.9848 7.93387 15.1544 8.00411 15.3312 8.00411C15.508 8.00411 15.6776 7.93387 15.8026 7.80884C15.9276 7.68382 15.9979 7.51425 15.9979 7.33744V1.55077L20.9046 3.51522C21.0295 3.56473 21.1368 3.65038 21.2128 3.76122C21.2888 3.87206 21.3301 4.00305 21.3312 4.13744V8.00411C21.3312 8.18092 21.4015 8.35049 21.5265 8.47551C21.6515 8.60054 21.8211 8.67077 21.9979 8.67077C22.1747 8.67077 22.3443 8.60054 22.4693 8.47551C22.5943 8.35049 22.6646 8.18092 22.6646 8.00411V4.13744C22.6655 3.73673 22.5456 3.34504 22.3204 3.01359C22.0952 2.68214 21.7752 2.42635 21.4023 2.27966ZM3.08233 14.9552C2.95835 14.9053 2.85222 14.8193 2.77773 14.7084C2.70323 14.5974 2.6638 14.4666 2.66455 14.333V1.55077L7.99789 3.67522V16.9019L3.08233 14.9552Z" fill="black"/>
</svg>
