<svg width="24" height="24" viewBox="0 0 24 24" fill="none" xmlns="http://www.w3.org/2000/svg">
<path d="M18.9461 16.9339L6.42481 6.91693C6.31973 6.82255 6.19596 6.75136 6.06154 6.708C5.92713 6.66463 5.78508 6.65007 5.64467 6.66525C5.50425 6.68043 5.3686 6.72502 5.24656 6.7961C5.12451 6.86719 5.01881 6.96319 4.93634 7.07784C4.84985 7.17917 4.78575 7.29764 4.74825 7.42548C4.71075 7.55331 4.70069 7.68763 4.71873 7.81962C4.73677 7.95162 4.78251 8.07831 4.85294 8.19139C4.92338 8.30448 5.01691 8.4014 5.12742 8.4758L7.36013 10.266C7.37856 10.2848 7.38888 10.3101 7.38888 10.3364C7.38888 10.3627 7.37856 10.388 7.36013 10.4068L6.53544 11.6338C6.32708 11.8847 6.19081 12.1876 6.14122 12.51C6.09162 12.8324 6.13054 13.1622 6.25383 13.4642C6.36613 13.6893 6.53059 13.8844 6.73352 14.0331C6.93645 14.1818 7.17198 14.2798 7.42047 14.3191L9.82416 14.7012C9.85028 14.7036 9.87562 14.7114 9.89861 14.724C9.9216 14.7367 9.94174 14.7539 9.95777 14.7747C9.97381 14.7954 9.98541 14.8193 9.99183 14.8447C9.99826 14.8701 9.99938 14.8966 9.99513 14.9225L8.75809 23.3706C8.73762 23.4925 8.75935 23.6177 8.81969 23.7256C8.88004 23.8335 8.97538 23.9176 9.08998 23.964C9.20337 24.0071 9.32781 24.0118 9.44412 23.9772C9.56043 23.9427 9.66216 23.8709 9.73364 23.7729L15.074 16.592C15.0945 16.5729 15.1215 16.5623 15.1495 16.5623C15.1775 16.5623 15.2044 16.5729 15.2249 16.592L17.6487 18.4325C17.7427 18.5203 17.8541 18.5873 17.9757 18.6291C18.0973 18.671 18.2264 18.6867 18.3545 18.6753C18.4826 18.6639 18.6069 18.6257 18.7192 18.563C18.8315 18.5004 18.9294 18.4148 19.0064 18.3118C19.0995 18.2208 19.1724 18.1113 19.2203 17.9902C19.2682 17.8692 19.29 17.7394 19.2843 17.6094C19.2786 17.4793 19.2455 17.352 19.1873 17.2356C19.129 17.1192 19.0468 17.0164 18.9461 16.9339Z" fill="#FFA000"/>
<path d="M16.1401 0.490234C16.1502 0.993096 15.0439 8.03317 14.8629 9.13946C14.86 9.16062 14.8615 9.18213 14.867 9.20273C14.8726 9.22333 14.8822 9.24262 14.8953 9.25946C14.9084 9.27631 14.9248 9.29038 14.9434 9.30086C14.962 9.31134 14.9825 9.31801 15.0037 9.32049L17.4476 9.71273C17.7264 9.75308 17.9843 9.8838 18.1817 10.0848C18.3825 10.2819 18.5282 10.5281 18.6041 10.7989C18.6695 11.0699 18.6695 11.3526 18.6041 11.6236C18.5543 11.902 18.4445 12.1663 18.2823 12.398L17.5582 13.4037C17.5356 13.4278 17.5084 13.447 17.4781 13.4601C17.4478 13.4732 17.4152 13.4799 17.3822 13.4799C17.3492 13.4799 17.3166 13.4732 17.2863 13.4601C17.256 13.447 17.2288 13.4278 17.2062 13.4037L13.4146 10.3363L9.794 7.43979C9.76571 7.4099 9.74994 7.37031 9.74994 7.32916C9.74994 7.28801 9.76571 7.24842 9.794 7.21853L15.0037 0.279032C15.3557 -0.203716 16.1301 -0.0126282 16.1401 0.490234Z" fill="#FFA000"/>
</svg>
