<svg width="24" height="24" fill="none" xmlns="http://www.w3.org/2000/svg"><g clip-path="url(#clip0)"><path d="M20.062 2.28L14.73.146a1.955 1.955 0 00-1.484 0L7.325 2.49c.24-.067-.08.013 0 0 0 0 .08.009 0-.004L1.822.315A1.324 1.324 0 000 1.56v12.773a2 2 0 001.253 1.858l5.334 2.133a2.01 2.01 0 001.484 0l2.551-1.04a.67.67 0 10-.497-1.244l-2.134.889V3.706l.071-.03 5.263-2.125v5.786a.667.667 0 101.333 0V1.551l4.907 1.964a.676.676 0 01.426.622v3.867a.667.667 0 001.334 0V4.137a1.992 1.992 0 00-1.263-1.857zM1.742 14.955a.667.667 0 01-.417-.622V1.551l5.333 2.124v13.227l-4.916-1.947z" fill="#000"/><path d="M20.789 14.48l-3.18.025 2.07-7.648-4.34 6.054 3.759 3.737 1.69-2.168zM20.906 20.881a.357.357 0 00.002-.51l-9.324-9.214a.357.357 0 00-.497-.005l-.366.347a.357.357 0 00-.005.514l3.034 2.986-1.105 1.677 2.693.192L13.451 24l4.03-5.289 2.55 2.533a.357.357 0 00.502.002l.373-.365z" fill="#FFA000"/></g><defs><clipPath id="clip0"><path fill="#fff" d="M0 0h24v24H0z"/></clipPath></defs></svg>