<svg width="24" height="24" fill="none" xmlns="http://www.w3.org/2000/svg"><path d="M15.62 13.664l-2.403.019L14.78 7.8l-3.28 4.657 2.841 2.874 1.278-1.667zM15.622 18.674a.4.4 0 00.002-.566L8.754 11.2a.4.4 0 00-.561-.006l-.093.09a.4.4 0 00-.005.57l2.205 2.209-.836 1.29 2.036.147-1.426 5.486 3.045-4.068 1.836 1.854a.4.4 0 00.566.002l.1-.1z" fill="#29D305"/><path d="M21.717 23.254l-19.434-.02a2.238 2.238 0 01-2-3.33l9.748-17.98a2.24 2.24 0 013.938 0l9.748 18a2.241 2.241 0 01-2 3.33zM12.03 2.234a.77.77 0 00-.66.39l-9.737 18a.75.75 0 000 .74.77.77 0 00.65.37h19.494a.77.77 0 00.65-.37.78.78 0 000-.74l-9.747-18a.77.77 0 00-.65-.39z" fill="#000"/></svg>