<svg width="24" height="24" fill="none" xmlns="http://www.w3.org/2000/svg"><path d="M13.76 4.175h1.185a.71.71 0 00.71-.71.714.714 0 00-.71-.715h-.71v-.71a.71.71 0 10-1.42 0v.71H11.39v-.71a.71.71 0 10-1.42 0v.71H5.7v-.71a.71.71 0 00-.71-.71c-.39 0-.72.315-.72.71v.71H2.85v-.71a.71.71 0 00-.71-.71.714.714 0 00-.715.71v.71h-.71a.71.71 0 100 1.42H1.9l5.22 3.915V21.96a.71.71 0 101.42 0V8.085l5.22-3.91zm-2.375 0L7.83 6.845l-3.56-2.67h7.115z" fill="#000"/><path d="M23.285 13.01c-.01.005-.015 0-.025 0a14.12 14.12 0 01-11.08-5.325.714.714 0 00-1-.11.714.714 0 00-.11 1 15.53 15.53 0 0012.19 5.86c.4.01.74-.31.74-.715a.714.714 0 00-.715-.71z" fill="#000"/></svg>