<svg width="24" height="24" fill="none" xmlns="http://www.w3.org/2000/svg"><path d="M12 10.5c-.9 0-1.8.6-2.1 1.5H8.3c.4-1.7 1.9-3 3.7-3 .5 0 1 .1 1.5.2L16 5.5c.1-.2.3-.3.6-.3.1 0 .3 0 .4.1.1.1.3.3.3.5.1.2 0 .4-.1.6l-2.5 3.7c.5.5.9 1.2 1 1.9h-1.6c-.3-.9-1.2-1.5-2.1-1.5zM16.2 17.2H7.8c-.4 0-.7-.3-.7-.7v-.1c0-.4.3-.7.7-.7h8.4c.4 0 .7.3.7.7v.1c0 .4-.3.7-.7.7z" fill="#000"/><path fill-rule="evenodd" clip-rule="evenodd" d="M19.11 0H4.79C3.796 0 3 .797 3 1.793v20.415C3 23.203 3.796 24 4.79 24H19c.994 0 2-.797 2-1.793V1.793C20.9.797 20.105 0 19.11 0zm.39 21.5c0 .1 0 1-1.048 1H5.5c-1 0-1-.9-1-1l-.008-8.156H19.5V21.5zm0-9.5H4.492L4.5 4.297h15V12zm0-9.012h-15V2.5c0-.1 0-1 1-1h13c.1 0 1 0 1 1v.488z" fill="#000"/></svg>