<svg width="25" height="24" viewBox="0 0 25 24" fill="none" xmlns="http://www.w3.org/2000/svg">
<path d="M9.7999 24H0.799902C0.499902 24 0.299902 23.8 0.0999023 23.6C-9.76548e-05 23.3 -9.76548e-05 23 0.0999023 22.8L7.6999 12.1L0.0999023 1.2C-9.76548e-05 1 -9.76548e-05 0.7 0.0999023 0.4C0.199902 0.1 0.499902 0 0.799902 0H9.7999C9.9999 0 10.2999 0.1 10.3999 0.3L18.9999 11.6C19.1999 11.9 19.1999 12.2 18.9999 12.5L10.3999 23.7C10.1999 23.9 9.9999 24 9.7999 24ZM2.1999 22.5H9.3999L17.3999 12.1L9.3999 1.6H2.1999L9.2999 11.8C9.4999 12.1 9.4999 12.4 9.2999 12.7L2.1999 22.5Z" fill="black"/>
<path d="M15.3998 24C15.1998 24 15.0998 24 14.9998 23.9C14.6998 23.7 14.5998 23.2 14.7998 22.8L22.3998 12.1L14.7998 1.2C14.5998 0.899999 14.5998 0.399999 14.9998 0.199999C15.3998 -9.0152e-07 15.7998 0.0999991 15.9998 0.399999L23.8998 11.8C24.0998 12.1 24.0998 12.4 23.8998 12.7L15.9998 23.7C15.7998 23.9 15.5998 24 15.3998 24Z" fill="#29D305"/>
</svg>
