<svg width="24" height="24" viewBox="0 0 24 24" fill="none" xmlns="http://www.w3.org/2000/svg">
<path fill-rule="evenodd" clip-rule="evenodd" d="M6 6C6 9.308 8.692 12 12 12C15.308 12 18 9.308 18 6C18 2.692 15.308 0 12 0C8.692 0 6 2.692 6 6ZM7.5 6C7.5 3.519 9.519 1.5 12 1.5C14.481 1.5 16.5 3.519 16.5 6C16.5 8.481 14.481 10.5 12 10.5C9.519 10.5 7.5 8.481 7.5 6ZM21 23.25C21 23.664 21.336 24 21.75 24C22.164 24 22.5 23.664 22.5 23.25C22.5 17.46 17.79 12.75 12 12.75C6.21 12.75 1.5 17.46 1.5 23.25C1.5 23.664 1.836 24 2.25 24C2.664 24 3 23.664 3 23.25C3 18.287 7.037 14.25 12 14.25C16.963 14.25 21 18.287 21 23.25Z" fill="black"/>
</svg>
