<svg width="24" height="24" viewBox="0 0 24 24" fill="none" xmlns="http://www.w3.org/2000/svg">
<path d="M17.25 10.5C13.5275 10.5 10.5 13.5275 10.5 17.25C10.5 20.9725 13.5275 24 17.25 24C20.9725 24 24 20.9725 24 17.25C24 13.5275 20.9725 10.5 17.25 10.5ZM12.125 17.25C12.125 14.425 14.425 12.125 17.25 12.125C18.375 12.125 19.4125 12.4925 20.2575 13.11L13.11 20.2575C12.495 19.4125 12.125 18.375 12.125 17.25ZM17.25 22.375C16.1825 22.375 15.19 22.045 14.3675 21.4825L21.485 14.365C22.0475 15.1875 22.3775 16.18 22.3775 17.2475C22.3775 20.0725 20.0775 22.3725 17.2525 22.3725L17.25 22.375Z" fill="#EE0701"/>
<path d="M18.75 0H2.25C1 0 0 1 0 2.25V17.25C0 18.5 1 19.5 2.25 19.5H8.25C8.675 19.5 9 19.175 9 18.75C9 18.325 8.675 18 8.25 18H2.25C1.825 18 1.5 17.675 1.5 17.25V13.92C1.5225 13.8975 1.5475 13.875 1.57 13.8475L5.0825 9.23C5.2025 9.065 5.3625 8.9625 5.545 8.9375C5.745 8.9125 5.95 8.9725 6.135 9.105C6.19 9.145 6.2525 9.1775 6.315 9.2L7.24 10.125C7.3925 10.2775 7.6 10.3575 7.8225 10.3425C8.04 10.3275 8.24 10.2175 8.37 10.045L11.68 5.63C11.8 5.4625 11.96 5.3625 12.145 5.3375C12.34 5.3125 12.5475 5.37 12.735 5.505C12.75 5.515 12.765 5.525 12.78 5.535C12.8175 5.585 12.855 5.6325 12.8925 5.675L15.57 9.245C15.82 9.5775 16.29 9.645 16.62 9.395C16.95 9.1475 17.0175 8.6775 16.77 8.345L14.07 4.745C14.05 4.7175 13.995 4.6475 13.97 4.6225C13.885 4.51 13.7375 4.3125 13.495 4.21C13.0225 3.9075 12.4775 3.7825 11.945 3.8525C11.3475 3.9325 10.82 4.255 10.47 4.745L7.69 8.4525L7.3 8.0625C7.18 7.9425 7.0325 7.8525 6.88 7.8C5.8425 7.145 4.565 7.3725 3.875 8.34L1.5 11.4625V2.25C1.5 1.825 1.825 1.5 2.25 1.5H18.75C19.175 1.5 19.5 1.825 19.5 2.25V8.25C19.5 8.675 19.825 9 20.25 9C20.675 9 21 8.675 21 8.25V2.25C21 1 20 0 18.75 0Z" fill="black"/>
<path d="M6.22228 5.83007C6.94992 5.83007 7.53978 5.2402 7.53978 4.51257C7.53978 3.78493 6.94992 3.19507 6.22228 3.19507C5.49465 3.19507 4.90479 3.78493 4.90479 4.51257C4.90479 5.2402 5.49465 5.83007 6.22228 5.83007Z" fill="black"/>
</svg>
