<svg width="24" height="25" fill="none" xmlns="http://www.w3.org/2000/svg"><path d="M12 15.017a.75.75 0 01-.75-.75v-1.008a2.254 2.254 0 011.5-2.124 2.256 2.256 0 00.841-3.716A2.23 2.23 0 0012 6.759c-.601 0-1.166.234-1.591.66-.425.424-.659.99-.659 1.591 0 .414-.336.751-.75.751a.751.751 0 01-.75-.75c0-1.004.391-1.946 1.099-2.655A3.723 3.723 0 0112 5.257a3.757 3.757 0 013.75 3.754 3.76 3.76 0 01-2.5 3.54.752.752 0 00-.5.707v1.008a.75.75 0 01-.75.751z" fill="#000"/><path d="M12 18.771a1.126 1.126 0 10-.001-2.25A1.126 1.126 0 0012 18.77z" fill="#29D305"/><path d="M12 24.027c-6.617 0-12-5.389-12-12.013C0 5.389 5.383 0 12 0s12 5.39 12 12.014-5.383 12.014-12 12.014zm0-22.525c-5.79 0-10.5 4.715-10.5 10.512 0 5.796 4.71 10.512 10.5 10.512s10.5-4.716 10.5-10.512c0-5.797-4.71-10.512-10.5-10.512z" fill="#000"/></svg>