<svg width="24" height="24" viewBox="0 0 24 24" fill="none" xmlns="http://www.w3.org/2000/svg">
<path fill-rule="evenodd" clip-rule="evenodd" d="M4.53921 14.5835C3.44898 14.4205 2.39876 13.9232 1.56026 13.0865C-0.520177 11.0107 -0.520177 7.63424 1.55859 5.55845C2.59881 4.52055 3.96409 4.00161 5.33104 4.00161C6.69799 4.00161 8.06328 4.52055 9.10349 5.55845C11.1839 7.63424 11.1839 11.0107 9.10349 13.0865L9.10016 13.0898L2.49211 19.6831C2.0687 20.1056 1.38355 20.1056 0.960129 19.6831C0.536709 19.2607 0.536709 18.5771 0.960129 18.1546L4.53921 14.5835ZM14.2946 18.153L17.8754 14.5819C16.7835 14.4206 15.7333 13.9216 14.8948 13.085C12.8143 11.0092 12.8143 7.63268 14.8948 5.55689C15.935 4.519 17.3003 4.00005 18.6672 4.00005C20.0342 4.00005 21.3995 4.519 22.4397 5.55689C24.5201 7.63268 24.5201 11.0092 22.4397 13.085L22.4363 13.0883L15.8266 19.6816C15.4032 20.1041 14.7181 20.1041 14.2946 19.6816C13.8712 19.2591 13.8712 18.5755 14.2946 18.153Z" fill="#29D305"/>
</svg>
