<svg width="24" height="24" fill="none" xmlns="http://www.w3.org/2000/svg"><g clip-path="url(#clip0)" fill="#29D305"><path d="M17.875 14.582l-3.58 3.571a1.079 1.079 0 000 1.529 1.084 1.084 0 001.532 0l6.61-6.594.003-.003A5.32 5.32 0 0018.667 4a5.32 5.32 0 00-.792 10.582zM1.56 13.086a5.314 5.314 0 002.98 1.498l-3.58 3.57a1.078 1.078 0 000 1.53 1.084 1.084 0 001.532 0L9.1 13.09l.003-.004a5.32 5.32 0 00-3.772-9.084 5.322 5.322 0 00-3.77 9.085z"/></g><defs><clipPath id="clip0"><path d="M24 24H0V0h24v24z" fill="#fff"/></clipPath></defs></svg>