<svg width="24" height="24" viewBox="0 0 24 24" fill="none" xmlns="http://www.w3.org/2000/svg">
<path d="M13.9262 20.9567H20.0085C21.07 20.9567 22.0678 20.5598 22.8214 19.8371C23.5751 19.1145 23.989 18.1577 23.989 17.1399C23.989 16.4681 23.8086 15.8066 23.4583 15.2264L22.0784 12.9363C21.8661 12.5801 21.3778 12.4478 20.9957 12.6615C20.6242 12.8651 20.4862 13.3333 20.7091 13.6997L22.089 15.9898C22.3013 16.3358 22.4074 16.743 22.4074 17.1399C22.4074 17.7506 22.1633 18.3307 21.7069 18.7582C21.261 19.1959 20.656 19.43 20.0191 19.43H13.905L15.7414 17.6692C16.0492 17.374 16.0492 16.8855 15.7414 16.5903C15.4335 16.2951 14.924 16.2951 14.6162 16.5903L11.4318 19.6437C11.2832 19.7862 11.1982 19.9796 11.1982 20.1832L11.1983 20.1883L11.1982 20.1933C11.1982 20.4345 11.3188 20.652 11.5046 20.7925L14.6162 23.7761C14.7754 23.9287 14.9771 24 15.1788 24C15.3805 24 15.5821 23.9287 15.7414 23.7761C16.0492 23.4809 16.0492 22.9923 15.7414 22.6972L13.9262 20.9567Z" fill="#29D305"/>
<path d="M18.4419 9.78458C18.5495 9.83548 18.6679 9.86263 18.7884 9.86263C18.9158 9.86263 19.0538 9.83209 19.1812 9.76085C19.4017 9.64336 19.5374 9.43771 19.5719 9.21436L20.7205 5.1094C20.8372 4.70228 20.5825 4.28498 20.1579 4.17302C19.7227 4.07124 19.2981 4.30533 19.1813 4.71246L18.5166 7.09911L15.4448 1.91352C14.914 1.02802 14.0648 0.396978 13.0352 0.132347C12.0056 -0.132284 10.9335 3.13669e-05 10.0206 0.508937C9.41556 0.844815 8.90605 1.33336 8.55577 1.91352L7.4306 3.77611C7.20769 4.13235 7.34568 4.60054 7.7172 4.81428C8.08871 5.02802 8.57699 4.90588 8.7999 4.53947L9.92507 2.67688C10.1374 2.32064 10.4452 2.03565 10.8061 1.83209C11.3581 1.52675 12.0056 1.44532 12.6212 1.60817C13.2369 1.77102 13.7464 2.14761 14.0648 2.67688L17.1428 7.86511L14.6488 7.22645C14.2136 7.11449 13.789 7.35877 13.6723 7.76589C13.5555 8.17302 13.8103 8.59032 14.2348 8.70228L18.4419 9.78458Z" fill="#29D305"/>
<path d="M5.66285 13.0992C5.75839 13.4452 6.07683 13.6691 6.42712 13.6691L6.44835 13.6793C6.51204 13.6793 6.58634 13.6691 6.65003 13.6488C7.07462 13.5368 7.32937 13.1195 7.21261 12.7124L6.04499 8.53937C5.99191 8.33581 5.85392 8.17296 5.67347 8.07118C5.49302 7.96939 5.27011 7.93886 5.06843 7.98975L0.716371 9.10934C0.291781 9.2213 0.037026 9.63861 0.153788 10.0457C0.270551 10.4529 0.705757 10.6971 1.13035 10.5852L3.64338 9.94164L0.535929 15.2266C-0.568007 17.0484 0.0901084 19.3894 1.99015 20.4378C2.59519 20.7736 3.28515 20.9467 3.97512 20.9467H7.23385C7.66906 20.9467 8.02996 20.6006 8.02996 20.1833C8.02996 19.766 7.66906 19.4199 7.23385 19.4199H3.98573C3.57175 19.4199 3.15778 19.3182 2.79688 19.1146C1.66109 18.4836 1.26835 17.079 1.92646 15.9797L5.00482 10.7365L5.66285 13.0992Z" fill="#29D305"/>
</svg>
