<svg width="24" height="24" viewBox="0 0 24 24" fill="none" xmlns="http://www.w3.org/2000/svg">
<path d="M17.2847 19.1025C17.7097 19.1025 18.0347 18.7775 18.0347 18.3525V15C18.0347 14.575 17.7097 14.25 17.2847 14.25C16.8597 14.25 16.5347 14.575 16.5347 15V18.3525C16.5347 18.7775 16.8597 19.1025 17.2847 19.1025Z" fill="#EE0701"/>
<path d="M23.7299 20.3499L19.5049 11.8999C19.2799 11.4249 18.8799 11.0249 18.3799 10.7749C17.1549 10.1499 15.6299 10.6499 15.0049 11.8999L10.7799 20.3499C10.6049 20.6999 10.5049 21.0749 10.5049 21.4749C10.5049 22.8749 11.6299 23.9999 13.0299 23.9999H21.4799C21.8549 23.9999 22.2549 23.8999 22.6049 23.7249C23.8549 23.1249 24.3549 21.5999 23.7299 20.3499ZM21.9299 22.3999C21.8049 22.4499 21.6299 22.4999 21.4799 22.4999H13.0299C12.4549 22.4999 12.0049 22.0249 12.0049 21.4749C12.0049 21.3249 12.0299 21.1749 12.1049 21.0249L16.3299 12.5749C16.5049 12.1999 16.8499 11.9999 17.2549 11.9999C17.6599 11.9999 17.9924 12.2774 18.1549 12.5749L22.3799 21.0249C22.6299 21.5249 22.4299 22.1499 21.9299 22.3999Z" fill="#EE0701"/>
<path d="M17.2851 21.4523C17.7559 21.4523 18.1376 21.0706 18.1376 20.5998C18.1376 20.129 17.7559 19.7473 17.2851 19.7473C16.8143 19.7473 16.4326 20.129 16.4326 20.5998C16.4326 21.0706 16.8143 21.4523 17.2851 21.4523Z" fill="#EE0701"/>
<path d="M18.75 0H2.25C1 0 0 1 0 2.25V17.25C0 18.5 1 19.5 2.25 19.5H8.25C8.675 19.5 9 19.175 9 18.75C9 18.325 8.675 18 8.25 18H4.3275C4.6475 15.42 5.585 14.12 6.1425 13.5575C6.63 14.56 7.42 15.19 8.26 15.19C9.3525 15.19 10.4075 14.1175 10.685 12.74C11.8375 13.24 13.07 12.99 13.99 12.0725C14.025 12.0375 14.0575 12 14.085 11.9575C14.67 11.0775 14.3125 9.735 13.215 8.645C14.3175 7.53 14.665 6.1975 14.03 5.2525C13.25 4.3425 11.975 4.0475 10.8125 4.49H10.675C10.675 4.49 10.6675 4.475 10.6625 4.4675C10.25 3.0425 9.2925 2.09 8.26 2.09C7.2275 2.09 6.2375 3.075 5.8375 4.5425C4.685 4.045 3.45 4.29 2.53 5.21C2.495 5.245 2.4625 5.2825 2.435 5.325C1.85 6.205 2.2075 7.5475 3.305 8.6375C2.2025 9.7525 1.855 11.085 2.49 12.03C3.0275 12.6575 3.8 12.9925 4.6075 12.995C3.8875 13.9075 3.07 15.4675 2.7925 18H2.2525C1.8275 18 1.5025 17.675 1.5025 17.25V2.25C1.5025 1.825 1.8275 1.5 2.2525 1.5H18.7525C19.1775 1.5 19.5025 1.825 19.5025 2.25V8.25C19.5025 8.675 19.8275 9 20.2525 9C20.6775 9 21.0025 8.675 21.0025 8.25V2.25C21.0025 1 20.0025 0 18.7525 0H18.75ZM3.685 11.125C3.58 10.97 3.7125 10.38 4.33 9.7325C4.8125 9.4075 4.8125 8.8575 4.8125 8.64C4.8125 8.2625 4.65 7.8675 4.3925 7.61C3.775 6.99 3.605 6.41 3.6675 6.2C4.015 5.885 4.555 5.61 5.225 5.91C5.635 6.115 6.0875 6.1175 6.4975 5.91C6.8425 5.7375 7.2425 5.37 7.305 4.8725C7.5475 4.0475 8.02 3.59 8.2625 3.59C8.505 3.59 9.0025 4.07 9.24 4.9375C9.2525 4.985 9.27 5.0325 9.2925 5.075C9.4175 5.325 9.605 5.7 10.0275 5.91C10.1325 5.9625 10.2475 5.99 10.3625 5.99H10.9625C11.0675 5.99 11.17 5.9675 11.2675 5.925C11.86 5.6625 12.5125 5.7825 12.84 6.155C12.945 6.31 12.8125 6.9 12.195 7.5475C11.7125 7.8725 11.7125 8.4225 11.7125 8.64C11.7125 9.0175 11.875 9.4125 12.1325 9.67C12.75 10.29 12.92 10.87 12.8575 11.08C12.51 11.395 11.97 11.67 11.3 11.37C10.89 11.165 10.4375 11.1625 10.0275 11.37C9.6725 11.5475 9.26 11.9325 9.2175 12.45C9.055 13.2525 8.5075 13.69 8.2625 13.69C8.0175 13.69 7.5225 13.21 7.2875 12.3425C7.275 12.295 7.2575 12.2475 7.235 12.205C7.11 11.955 6.9225 11.58 6.5 11.37C6.395 11.3175 6.28 11.29 6.165 11.29H5.565C5.46 11.29 5.3575 11.3125 5.26 11.355C4.6675 11.6175 4.015 11.4975 3.6875 11.125H3.685Z" fill="black"/>
<path d="M8.25977 10.6899C9.47977 10.6899 10.5098 9.65994 10.5098 8.43994C10.5098 7.21994 9.47977 6.18994 8.25977 6.18994C7.03977 6.18994 6.00977 7.21994 6.00977 8.43994C6.00977 9.65994 7.03977 10.6899 8.25977 10.6899ZM8.25977 7.68994C8.64477 7.68994 9.00977 8.05494 9.00977 8.43994C9.00977 8.82494 8.64477 9.18994 8.25977 9.18994C7.87477 9.18994 7.50977 8.82494 7.50977 8.43994C7.50977 8.05494 7.87477 7.68994 8.25977 7.68994Z" fill="black"/>
</svg>
