<svg width="24" height="24" viewBox="0 0 24 24" fill="none" xmlns="http://www.w3.org/2000/svg">
<path d="M18.75 0H2.25C1.025 0 0 1 0 2.25V17.25C0 18.5 1 19.5 2.25 19.5H8.25C8.675 19.5 9 19.175 9 18.75C9 18.325 8.675 18 8.25 18H2.25C1.825 18 1.5 17.675 1.5 17.25V13.925H5.9375V15.425C5.9375 15.85 6.2625 16.175 6.6875 16.175C7.1125 16.175 7.4375 15.85 7.4375 15.425V13.925H7.8125C10.8375 13.925 13.3625 11.45 13.4125 8.4V7.175H14.9375C15.3625 7.175 15.6875 6.85 15.6875 6.425C15.6875 6 15.3625 5.675 14.9375 5.675H13.4075C13.3575 4.4275 12.5725 3.36 11.4125 2.9C10.2375 2.425 8.8625 2.7 7.9375 3.575L7.9125 3.6L1.5 10.3925V2.25C1.5 1.825 1.825 1.5 2.25 1.5H18.75C19.175 1.5 19.5 1.825 19.5 2.25V8.25C19.5 8.675 19.825 9 20.25 9C20.675 9 21 8.675 21 8.25V2.25C21 1 20 0 18.75 0ZM8.97 4.67C9.295 4.3725 9.7425 4.2 10.1875 4.2C10.4125 4.2 10.6375 4.25 10.8625 4.325C11.4875 4.55 11.9125 5.15 11.9125 5.825V8.4C11.8875 10.65 9.9875 12.475 7.7375 12.425H1.6375L8.97 4.67Z" fill="black"/>
<path d="M9.92492 7.71508C10.5149 7.71508 10.9924 7.23758 10.9924 6.64758C10.9924 6.05758 10.5149 5.58008 9.92492 5.58008C9.33492 5.58008 8.85742 6.05758 8.85742 6.64758C8.85742 7.23758 9.33492 7.71508 9.92492 7.71508Z" fill="black"/>
<path d="M17.2847 19.1025C17.7097 19.1025 18.0347 18.7775 18.0347 18.3525V15C18.0347 14.575 17.7097 14.25 17.2847 14.25C16.8597 14.25 16.5347 14.575 16.5347 15V18.3525C16.5347 18.7775 16.8597 19.1025 17.2847 19.1025Z" fill="#EE0701"/>
<path d="M23.7299 20.3499L19.5049 11.8999C19.2799 11.4249 18.8799 11.0249 18.3799 10.7749C17.1549 10.1499 15.6299 10.6499 15.0049 11.8999L10.7799 20.3499C10.6049 20.6999 10.5049 21.0749 10.5049 21.4749C10.5049 22.8749 11.6299 23.9999 13.0299 23.9999H21.4799C21.8549 23.9999 22.2549 23.8999 22.6049 23.7249C23.8549 23.1249 24.3549 21.5999 23.7299 20.3499ZM21.9299 22.3999C21.8049 22.4499 21.6299 22.4999 21.4799 22.4999H13.0299C12.4549 22.4999 12.0049 22.0249 12.0049 21.4749C12.0049 21.3249 12.0299 21.1749 12.1049 21.0249L16.3299 12.5749C16.5049 12.1999 16.8499 11.9999 17.2549 11.9999C17.6599 11.9999 17.9924 12.2774 18.1549 12.5749L22.3799 21.0249C22.6299 21.5249 22.4299 22.1499 21.9299 22.3999Z" fill="#EE0701"/>
<path d="M17.2851 21.4523C17.7559 21.4523 18.1376 21.0706 18.1376 20.5998C18.1376 20.129 17.7559 19.7473 17.2851 19.7473C16.8143 19.7473 16.4326 20.129 16.4326 20.5998C16.4326 21.0706 16.8143 21.4523 17.2851 21.4523Z" fill="#EE0701"/>
</svg>
