<svg width="24" height="24" fill="none" xmlns="http://www.w3.org/2000/svg"><path d="M11.193 23.25c1.48 0 2.926-.29 4.296-.862a.803.803 0 00-.616-1.485 9.518 9.518 0 01-3.682.74 9.538 9.538 0 01-6.633-2.669 9.564 9.564 0 01-2.952-6.735 9.566 9.566 0 012.653-6.86 9.493 9.493 0 016.93-2.963c2.484 0 4.838.945 6.628 2.664a9.59 9.59 0 012.935 6.252 9.608 9.608 0 01-1.563 5.991v-2.915a.803.803 0 00-.802-.804.803.803 0 00-.801.804v4.823c0 .444.359.804.802.804h.254a.397.397 0 00.102 0h4.454a.803.803 0 000-1.608H20.38a11.241 11.241 0 001.998-6.649 11.27 11.27 0 00-.05-.816l-.008-.081c-.006-.07-.012-.14-.02-.211l-.006-.049a11.31 11.31 0 00-3.376-6.748A11.171 11.171 0 0011.152.75c-1.48 0-2.927.288-4.296.858a.792.792 0 00-.278.192A11.099 11.099 0 003.1 4.268c-4.267 4.471-4.11 11.59.35 15.868a11.134 11.134 0 007.74 3.114h.003v.001z" fill="#000"/></svg>