<svg width="24" height="24" viewBox="0 0 24 24" fill="none" xmlns="http://www.w3.org/2000/svg">
<path d="M15.97 17.03C16.111 17.172 16.3 17.25 16.5 17.25C16.7 17.25 16.889 17.172 17.03 17.031C17.322 16.738 17.322 16.262 17.03 15.97L13.06 12L17.03 8.03C17.172 7.889 17.25 7.7 17.25 7.5C17.25 7.3 17.172 7.111 17.03 6.97C16.889 6.828 16.7 6.75 16.5 6.75C16.3 6.75 16.112 6.828 15.97 6.97L12 10.94L8.03 6.97C7.889 6.828 7.7 6.75 7.5 6.75C7.3 6.75 7.111 6.828 6.97 6.97C6.828 7.111 6.75 7.3 6.75 7.5C6.75 7.7 6.828 7.889 6.97 8.03L10.94 12L6.97 15.97C6.678 16.263 6.678 16.739 6.97 17.031C7.111 17.173 7.3 17.251 7.5 17.251C7.7 17.251 7.888 17.173 8.03 17.031L12 13.061L15.97 17.03Z" fill="black"/>
<path fill-rule="evenodd" clip-rule="evenodd" d="M0 12C0 18.617 5.38301 24 12 24C18.617 24 24 18.617 24 12C24 5.383 18.617 0 12 0C5.38301 0 0 5.383 0 12ZM1.5 12C1.5 6.21 6.21001 1.5 12 1.5C17.79 1.5 22.5 6.21 22.5 12C22.5 17.79 17.79 22.5 12 22.5C6.21001 22.5 1.5 17.79 1.5 12Z" fill="black"/>
</svg>
