<svg width="24" height="24" fill="none" xmlns="http://www.w3.org/2000/svg"><g clip-path="url(#clip0)"><path d="M12 23.999c-6.617 0-12-5.383-12-12s5.383-12 12-12 12 5.383 12 12-5.383 12-12 12zm0-22.5c-5.79 0-10.5 4.71-10.5 10.5s4.71 10.5 10.5 10.5 10.5-4.71 10.5-10.5-4.71-10.5-10.5-10.5z" fill="#29D305"/><path d="M16.5 17.249a.743.743 0 01-.53-.22L12 13.06l-3.97 3.97a.744.744 0 01-1.06 0 .752.752 0 010-1.061l3.97-3.97-3.97-3.97a.743.743 0 01-.22-.53c0-.2.078-.389.22-.53a.743.743 0 01.53-.22c.2 0 .389.078.53.22l3.97 3.97 3.97-3.97a.744.744 0 011.06 0c.142.141.22.33.22.53s-.078.389-.22.53l-3.97 3.97 3.97 3.97a.752.752 0 010 1.061.746.746 0 01-.53.219z" fill="#000"/></g><defs><clipPath id="clip0"><path d="M0 0h24v24H0V0z" fill="#fff"/></clipPath></defs></svg>