<svg width="24" height="24" viewBox="0 0 24 24" fill="none" xmlns="http://www.w3.org/2000/svg">
<path d="M0 12C0 18.617 5.383 24 12 24C18.617 24 24 18.617 24 12C24 5.383 18.617 0 12 0C5.383 0 0 5.383 0 12Z" fill="black"/>
<path d="M16.5 17.25C16.3 17.25 16.111 17.172 15.97 17.03L12 13.061L8.03 17.031C7.888 17.173 7.7 17.251 7.5 17.251C7.3 17.251 7.111 17.173 6.97 17.031C6.678 16.739 6.678 16.263 6.97 15.97L10.94 12L6.97 8.03C6.828 7.889 6.75 7.7 6.75 7.5C6.75 7.3 6.828 7.111 6.97 6.97C7.111 6.828 7.3 6.75 7.5 6.75C7.7 6.75 7.889 6.828 8.03 6.97L12 10.94L15.97 6.97C16.112 6.828 16.3 6.75 16.5 6.75C16.7 6.75 16.889 6.828 17.03 6.97C17.172 7.111 17.25 7.3 17.25 7.5C17.25 7.7 17.172 7.889 17.03 8.03L13.06 12L17.03 15.97C17.322 16.262 17.322 16.738 17.03 17.031C16.889 17.172 16.7 17.25 16.5 17.25Z" fill="white"/>
</svg>
