<svg width="24" height="25" viewBox="0 0 24 25" fill="none" xmlns="http://www.w3.org/2000/svg">
<path d="M0 12.0265C0 18.6435 5.38301 24.0265 12 24.0265C18.617 24.0265 24 18.6435 24 12.0265C24 5.40952 18.617 0.0265198 12 0.0265198C5.38301 0.0265198 0 5.40952 0 12.0265Z" fill="#29D305"/>
<path d="M16.5 17.2765C16.3 17.2765 16.111 17.1985 15.97 17.0565L12 13.0875L8.03 17.0575C7.888 17.1995 7.7 17.2775 7.5 17.2775C7.3 17.2775 7.111 17.1995 6.97 17.0575C6.678 16.7655 6.678 16.2895 6.97 15.9965L10.94 12.0265L6.97 8.05652C6.828 7.91552 6.75 7.72652 6.75 7.52652C6.75 7.32652 6.828 7.13752 6.97 6.99652C7.111 6.85452 7.3 6.77652 7.5 6.77652C7.7 6.77652 7.889 6.85452 8.03 6.99652L12 10.9665L15.97 6.99652C16.112 6.85452 16.3 6.77652 16.5 6.77652C16.7 6.77652 16.889 6.85452 17.03 6.99652C17.172 7.13752 17.25 7.32652 17.25 7.52652C17.25 7.72652 17.172 7.91552 17.03 8.05652L13.06 12.0265L17.03 15.9965C17.322 16.2885 17.322 16.7645 17.03 17.0575C16.889 17.1985 16.7 17.2765 16.5 17.2765Z" fill="black"/>
</svg>
