<svg width="24" height="24" viewBox="0 0 24 24" fill="none" xmlns="http://www.w3.org/2000/svg">
<g clip-path="url(#clip0)">
<path d="M13.3012 23.4783C9.19514 23.4783 5.46888 21.2139 3.5781 17.568C3.4821 17.3823 3.46332 17.1705 3.52697 16.9712C3.59062 16.7718 3.72732 16.6091 3.91305 16.5131C4.02366 16.4557 4.14888 16.4254 4.27305 16.4254C4.56627 16.4254 4.83236 16.5872 4.96801 16.848C6.58853 19.9722 9.78158 21.9131 13.3012 21.9131C13.5402 21.9131 13.7833 21.9037 14.0296 21.8859C14.0484 21.8849 14.0682 21.8839 14.088 21.8839C14.495 21.8839 14.8383 22.2021 14.8675 22.6091C14.8831 22.8178 14.8153 23.0192 14.6797 23.1778C14.544 23.3364 14.3531 23.4313 14.1444 23.447C13.8595 23.4678 13.5778 23.4783 13.3054 23.4783H13.3012Z" fill="black"/>
<path d="M21.8797 7.82709C21.6105 7.82709 21.3642 7.69144 21.2192 7.46605C19.7698 5.19544 17.4115 3.65631 14.7496 3.24101C14.3238 3.17527 14.0306 2.77353 14.0964 2.34779C14.1569 1.96379 14.4825 1.68518 14.8706 1.68518C14.9092 1.68518 14.9489 1.68831 14.9885 1.69457C18.095 2.17875 20.8466 3.97457 22.5381 6.62396C22.7698 6.98814 22.6633 7.47231 22.2992 7.70501C22.175 7.78431 22.0289 7.82709 21.8797 7.82709Z" fill="black"/>
<path d="M7.0435 10.174C5.31758 10.174 3.91306 8.76943 3.91306 7.04352C3.91306 5.31761 5.31758 3.91309 7.0435 3.91309C8.76941 3.91309 10.1739 5.31761 10.1739 7.04352C10.1739 8.76943 8.76941 10.174 7.0435 10.174ZM7.0435 5.4783C6.18054 5.4783 5.47828 6.18056 5.47828 7.04352C5.47828 7.90648 6.18054 8.60874 7.0435 8.60874C7.90645 8.60874 8.60871 7.90648 8.60871 7.04352C8.60871 6.18056 7.90645 5.4783 7.0435 5.4783Z" fill="black"/>
<path d="M7.0435 3.13043C6.6115 3.13043 6.26089 2.77983 6.26089 2.34783V0.782609C6.26089 0.350609 6.6115 0 7.0435 0C7.4755 0 7.8261 0.350609 7.8261 0.782609V2.34783C7.8261 2.77983 7.47445 3.13043 7.0435 3.13043Z" fill="black"/>
<path d="M11.7392 7.82608C11.3072 7.82608 10.9565 7.47547 10.9565 7.04347C10.9565 6.61147 11.3072 6.26086 11.7392 6.26086H13.3044C13.7364 6.26086 14.087 6.61147 14.087 7.04347C14.087 7.47547 13.7364 7.82608 13.3044 7.82608H11.7392Z" fill="black"/>
<path d="M7.0435 14.087C6.6115 14.087 6.26089 13.7364 6.26089 13.3044V11.7392C6.26089 11.3072 6.6115 10.9565 7.0435 10.9565C7.4755 10.9565 7.8261 11.3072 7.8261 11.7392V13.3044C7.8261 13.7364 7.47445 14.087 7.0435 14.087Z" fill="black"/>
<path d="M0.782624 7.82608C0.350624 7.82608 1.52588e-05 7.47547 1.52588e-05 7.04347C1.52588e-05 6.61147 0.350624 6.26086 0.782624 6.26086H2.34784C2.77984 6.26086 3.13045 6.61147 3.13045 7.04347C3.13045 7.47547 2.7788 7.82608 2.34784 7.82608H0.782624Z" fill="black"/>
<path d="M3.72311 4.50584C3.51441 4.50584 3.31719 4.42445 3.17006 4.27628L2.06293 3.16915C1.91476 3.02097 1.83337 2.8248 1.83337 2.6161C1.83337 2.40741 1.91476 2.21019 2.06293 2.06306C2.21006 1.91489 2.40728 1.8335 2.61598 1.8335C2.82467 1.8335 3.02189 1.91489 3.16902 2.06306L4.27615 3.17019C4.42432 3.31837 4.50571 3.51454 4.50571 3.72324C4.50571 3.93193 4.42432 4.12915 4.27615 4.27628C4.12798 4.42445 3.9318 4.50584 3.72311 4.50584Z" fill="black"/>
<path d="M10.3639 4.50584C10.1552 4.50584 9.95794 4.42445 9.81081 4.27628C9.66264 4.12915 9.58125 3.93193 9.58125 3.72324C9.58125 3.51454 9.66264 3.31732 9.81081 3.17019L10.9179 2.06306C11.0661 1.91489 11.2623 1.8335 11.471 1.8335C11.6797 1.8335 11.8769 1.91489 12.024 2.06306C12.1722 2.21019 12.2536 2.40741 12.2536 2.6161C12.2536 2.8248 12.1722 3.02202 12.024 3.16915L10.9169 4.27628C10.7687 4.42445 10.5725 4.50584 10.3639 4.50584Z" fill="black"/>
<path d="M11.471 12.2534C11.2623 12.2534 11.0651 12.172 10.918 12.0238L9.80979 10.9167C9.66161 10.7696 9.58022 10.5724 9.58022 10.3637C9.58022 10.155 9.66161 9.95775 9.80979 9.81062C9.95692 9.66245 10.1541 9.58105 10.3628 9.58105C10.5715 9.58105 10.7687 9.66245 10.9159 9.81062L12.023 10.9178C12.1712 11.0649 12.2526 11.2621 12.2526 11.4708C12.2526 11.6795 12.1712 11.8767 12.023 12.0238C11.8759 12.172 11.6797 12.2534 11.471 12.2534Z" fill="black"/>
<path d="M2.61598 12.2534C2.40728 12.2534 2.21006 12.172 2.06293 12.0238C1.91476 11.8767 1.83337 11.6795 1.83337 11.4708C1.83337 11.2621 1.91476 11.0649 2.06293 10.9178L3.17006 9.81062C3.31719 9.66245 3.51441 9.58105 3.72311 9.58105C3.9318 9.58105 4.12902 9.66245 4.27615 9.81062C4.42432 9.95775 4.50571 10.155 4.50571 10.3637C4.50571 10.5724 4.42432 10.7696 4.27615 10.9167L3.16902 12.0238C3.02189 12.172 2.82467 12.2534 2.61598 12.2534Z" fill="black"/>
<path d="M17.2319 17.0978L17.6925 16.4125L19.1669 14.5097L21.9616 10.7558C22.1583 10.4862 22.5908 10.5929 22.5964 10.8738C22.602 11.1547 21.9841 15.0868 21.883 15.7047C21.8814 15.7165 21.8822 15.7285 21.8853 15.74C21.8885 15.7515 21.8938 15.7623 21.9012 15.7717C21.9085 15.7811 21.9176 15.789 21.928 15.7948C21.9384 15.8007 21.9498 15.8044 21.9616 15.8058L23.3267 16.0249C23.4824 16.0474 23.6265 16.1204 23.7367 16.2327C23.8489 16.3427 23.9302 16.4802 23.9726 16.6315C24.0091 16.7829 24.0091 16.9408 23.9726 17.0921C23.9448 17.2476 23.8834 17.3952 23.7929 17.5247L22.2389 19.5365L19.0182 23.8779C18.9783 23.9326 18.9214 23.9727 18.8565 23.992C18.7915 24.0113 18.722 24.0087 18.6587 23.9846C18.5947 23.9587 18.5414 23.9117 18.5077 23.8515C18.474 23.7912 18.4619 23.7213 18.4733 23.6532L19.1642 18.9346C19.1666 18.9202 19.166 18.9054 19.1624 18.8912C19.1588 18.877 19.1523 18.8637 19.1434 18.8521C19.1344 18.8405 19.1232 18.8309 19.1103 18.8238C19.0975 18.8168 19.0833 18.8124 19.0687 18.8111L17.7262 18.5976C17.5874 18.5757 17.4559 18.5209 17.3425 18.4379C17.2292 18.3548 17.1373 18.2459 17.0746 18.1201C17.0057 17.9515 16.984 17.7673 17.0117 17.5872C17.0394 17.4071 17.1155 17.238 17.2319 17.0978Z" fill="black"/>
</g>
<defs>
<clipPath id="clip0">
<rect width="24" height="24" fill="white"/>
</clipPath>
</defs>
</svg>
