<svg width="24" height="24" fill="none" xmlns="http://www.w3.org/2000/svg"><g clip-path="url(#clip0)" fill="#000"><path d="M12.746 22.5c-3.935 0-7.506-2.17-9.318-5.664a.746.746 0 01.666-1.095c.281 0 .536.155.666.405A8.966 8.966 0 0012.746 21a9.725 9.725 0 00.754-.028.752.752 0 01.567 1.24.743.743 0 01-.513.258c-.273.02-.543.03-.804.03h-.004zM20.967 7.501a.75.75 0 01-.633-.346 9.004 9.004 0 00-6.2-4.049.752.752 0 01-.626-.856.748.748 0 01.855-.626 10.505 10.505 0 017.235 4.724.751.751 0 01-.631 1.153zM6.749 9.75c-1.654 0-3-1.346-3-3s1.346-3 3-3 3 1.346 3 3-1.346 3-3 3zm0-4.5c-.827 0-1.5.673-1.5 1.5s.673 1.5 1.5 1.5 1.5-.673 1.5-1.5-.673-1.5-1.5-1.5zM6.749 3a.75.75 0 01-.75-.75V.75a.75.75 0 011.5 0v1.5a.75.75 0 01-.75.75zM11.249 7.5a.75.75 0 010-1.5h1.5a.75.75 0 010 1.5h-1.5zM6.749 13.5a.75.75 0 01-.75-.75v-1.5a.75.75 0 011.5 0v1.5a.75.75 0 01-.75.75zM.749 7.5a.75.75 0 010-1.5h1.5a.75.75 0 010 1.5h-1.5zM3.567 4.318a.743.743 0 01-.53-.22l-1.061-1.06a.744.744 0 010-1.06.743.743 0 01.53-.22c.2 0 .389.077.53.22l1.061 1.06a.744.744 0 010 1.06.744.744 0 01-.53.22zM9.931 4.318a.743.743 0 01-.53-.22.743.743 0 01-.22-.53c0-.2.078-.389.22-.53l1.061-1.06a.744.744 0 011.06 0c.142.14.22.33.22.53s-.078.388-.22.53l-1.061 1.06a.744.744 0 01-.53.22zM10.992 11.743a.743.743 0 01-.53-.22L9.4 10.462a.743.743 0 01-.22-.53c0-.2.078-.39.22-.53a.743.743 0 01.53-.22c.2 0 .39.078.53.22l1.061 1.06c.142.142.22.33.22.53s-.078.39-.22.53a.74.74 0 01-.529.22zM2.506 11.743a.743.743 0 01-.53-.22.743.743 0 01-.22-.53c0-.2.078-.39.22-.53l1.061-1.061a.743.743 0 01.53-.22c.2 0 .389.078.53.22.142.14.22.33.22.53s-.078.389-.22.53l-1.061 1.06a.743.743 0 01-.53.22z"/><path fill-rule="evenodd" clip-rule="evenodd" d="M19.13 14.827l.869-6.127L15 17.846h2.87l-.869 6.127L22 14.827h-2.87z"/></g><defs><clipPath id="clip0"><path d="M0 0h24v24H0V0z" fill="#fff"/></clipPath></defs></svg>