<svg width="24" height="24" fill="none" xmlns="http://www.w3.org/2000/svg"><g clip-path="url(#clip0)"><path d="M.75 12.739c0-1.493.301-2.886.904-4.28.1-.199.2-.398.402-.398.2-.1.402-.1.602 0 .302.1.503.398.503.697 0 .1 0 .199-.1.299-.503 1.194-.704 2.388-.704 3.682 0 2.488.904 4.777 2.712 6.568 1.808 1.792 4.219 2.887 6.73 2.986 2.612.1 5.022-.896 6.93-2.687 1.91-1.792 3.014-4.28 3.014-6.867 0-2.488-.904-4.777-2.712-6.569-1.707-1.691-4.018-2.786-6.328-2.985-2.11-.1-4.219.398-6.027 1.592H9.59c.402 0 .804.398.804.796s-.402.796-.804.796H4.768c-.402 0-.804-.398-.804-.796v-.199V.796c0-.398.302-.796.804-.796s.803.398.803.796v2.787c1.909-1.294 4.32-2.09 6.63-1.99.2 0 .502 0 .803.099H13.306c2.712.298 5.022 1.493 6.83 3.384a11.196 11.196 0 013.114 7.762c0 1.493-.301 2.887-.904 4.28 0 .1-.1.199-.2.298-.604 1.294-1.407 2.488-2.512 3.484-4.52 4.28-11.652 4.08-15.971-.299C1.855 18.411.75 15.625.75 12.74z" fill="#000"/></g><defs><clipPath id="clip0"><path fill="#fff" d="M0 0h24v24H0z"/></clipPath></defs></svg>