<svg width="24" height="24" viewBox="0 0 24 24" fill="none" xmlns="http://www.w3.org/2000/svg">
<path fill-rule="evenodd" clip-rule="evenodd" d="M7.8 11.5556C7.65798 11.5556 7.54286 11.6716 7.54286 11.8148V22.1852C7.54286 22.3284 7.65798 22.4444 7.8 22.4444H22.2C22.342 22.4444 22.4571 22.3284 22.4571 22.1852V11.8148C22.4571 11.6716 22.342 11.5556 22.2 11.5556H7.8ZM6 11.8148C6 10.8125 6.80589 10 7.8 10H22.2C23.1941 10 24 10.8125 24 11.8148V22.1852C24 23.1875 23.1941 24 22.2 24H7.8C6.80589 24 6 23.1875 6 22.1852V11.8148Z" fill="black"/>
<path fill-rule="evenodd" clip-rule="evenodd" d="M8.55859 7.69295C8.90042 7.92689 9.36717 7.83942 9.6011 7.49758L12.0188 3.9648C12.2409 3.64018 12.1745 3.19906 11.8666 2.95422L8.50332 0.279537C8.17913 0.0217189 7.70731 0.0755292 7.4495 0.399725C7.19168 0.723921 7.24549 1.19574 7.56968 1.45355L10.3866 3.69374L8.36322 6.65044C8.12929 6.99227 8.21676 7.45902 8.55859 7.69295Z" fill="black"/>
<path fill-rule="evenodd" clip-rule="evenodd" d="M0.506303 10.4212C0.898001 10.5559 1.32473 10.3476 1.45944 9.95586C1.85096 8.81735 2.47101 7.78425 3.27474 6.92632C4.1174 6.0566 5.12594 5.39072 6.23038 4.97154C7.33644 4.55175 8.51428 4.38859 9.68401 4.49223C10.0966 4.52879 10.4607 4.22395 10.4973 3.81135C10.5338 3.39876 10.229 3.03464 9.8164 2.99809C8.4197 2.87433 7.0147 3.06946 5.69812 3.56915C4.38168 4.0688 3.18638 4.86046 2.19271 5.88744L2.18467 5.89575C1.23123 6.91205 0.500715 8.13118 0.0409708 9.46806C-0.0937323 9.85976 0.114604 10.2865 0.506303 10.4212Z" fill="black"/>
</svg>
