<svg width="24" height="24" viewBox="0 0 24 24" fill="none" xmlns="http://www.w3.org/2000/svg">
<g clip-path="url(#clip0)">
<path fill-rule="evenodd" clip-rule="evenodd" d="M8.35285 19.2913C8.35285 21.3031 6.72227 22.9341 4.71085 22.9341C2.69943 22.9341 1.06885 21.3031 1.06885 19.2913C1.06885 17.2794 2.69943 15.6485 4.71085 15.6485C6.72227 15.6485 8.35285 17.2794 8.35285 19.2913Z" fill="black"/>
<path fill-rule="evenodd" clip-rule="evenodd" d="M6.89561 9.72231C5.09776 9.30731 3.21949 9.40599 1.47501 10.0071C0.894159 10.2073 0.261071 9.89854 0.0609652 9.31757C-0.139141 8.7366 0.16951 8.10338 0.750357 7.90323C2.88906 7.16627 5.19177 7.04529 7.3959 7.55407C9.60003 8.06285 11.6168 9.18093 13.2164 10.7808C14.8159 12.3806 15.9337 14.3979 16.4424 16.6025C16.9511 18.8071 16.8301 21.1103 16.0933 23.2494C15.8932 23.8304 15.2601 24.1391 14.6793 23.939C14.0984 23.7388 13.7898 23.1056 13.9899 22.5246C14.5909 20.7798 14.6895 18.9011 14.2746 17.1029C13.8597 15.3047 12.9479 13.6592 11.6432 12.3543C10.3385 11.0493 8.69347 10.1373 6.89561 9.72231Z" fill="black"/>
<path fill-rule="evenodd" clip-rule="evenodd" d="M9.63984 2.94914C6.94523 2.13778 4.09174 2.00613 1.33389 2.56591C0.731812 2.68812 0.144683 2.29901 0.0225003 1.6968C-0.0996827 1.0946 0.289348 0.507342 0.891426 0.385133C4.00912 -0.247694 7.23494 -0.0988575 10.2811 0.818365C13.3274 1.73559 16.0992 3.39268 18.3495 5.64182C20.5998 7.89097 22.2586 10.6622 23.1778 13.7084C24.097 16.7546 24.2482 19.981 23.6177 23.0998C23.496 23.7021 22.9091 24.0917 22.307 23.9699C21.7048 23.8481 21.3153 23.2611 21.4371 22.6588C21.9948 19.9 21.8611 17.046 21.0479 14.3514C20.2348 11.6568 18.7675 9.20541 16.777 7.21587C14.7864 5.22632 12.3344 3.7605 9.63984 2.94914Z" fill="black"/>
</g>
<defs>
<clipPath id="clip0">
<rect width="24" height="24" fill="white"/>
</clipPath>
</defs>
</svg>
