<svg width="24" height="24" fill="none" xmlns="http://www.w3.org/2000/svg"><g clip-path="url(#clip0)" fill-rule="evenodd" clip-rule="evenodd" fill="#000"><path d="M8.353 19.291a3.642 3.642 0 11-7.285.001 3.642 3.642 0 017.285 0z"/><path d="M6.896 9.722a9.843 9.843 0 00-5.421.285A1.112 1.112 0 11.75 7.903a12.067 12.067 0 0115.692 8.7 12.074 12.074 0 01-.349 6.646 1.112 1.112 0 11-2.103-.724A9.849 9.849 0 006.896 9.722z"/><path d="M9.64 2.95a17.047 17.047 0 00-8.306-.384A1.112 1.112 0 11.89.386a19.27 19.27 0 0122.287 13.322c.919 3.047 1.07 6.273.44 9.392a1.112 1.112 0 11-2.18-.441A17.056 17.056 0 009.64 2.949z"/></g><defs><clipPath id="clip0"><path fill="#fff" d="M0 0h24v24H0z"/></clipPath></defs></svg>