<svg width="24" height="24" viewBox="0 0 24 24" fill="none" xmlns="http://www.w3.org/2000/svg">
<path fill-rule="evenodd" clip-rule="evenodd" d="M2.69713 14.7596C2.99002 14.4667 3.4649 14.4667 3.75779 14.7596L6.20824 17.2101C6.50114 17.503 6.50114 17.9778 6.20824 18.2707C5.91535 18.5636 5.44048 18.5636 5.14758 18.2707L2.69713 15.8203C2.40424 15.5274 2.40424 15.0525 2.69713 14.7596Z" fill="black"/>
<path fill-rule="evenodd" clip-rule="evenodd" d="M5.12471 12.2458C5.41531 11.9506 5.89016 11.9469 6.18534 12.2375L7.9879 14.0567C8.28308 14.3473 8.28679 14.8221 7.9962 15.1173C7.70561 15.4125 7.23075 15.4162 6.93558 15.1256L5.13302 13.3064C4.83784 13.0158 4.83412 12.541 5.12471 12.2458Z" fill="black"/>
<path fill-rule="evenodd" clip-rule="evenodd" d="M7.60346 9.76654C7.89635 9.47365 8.37123 9.47365 8.66412 9.76654L11.1146 12.217C11.4075 12.5099 11.4075 12.9848 11.1146 13.2777C10.8217 13.5706 10.3468 13.5706 10.0539 13.2777L7.60346 10.8272C7.31057 10.5343 7.31057 10.0594 7.60346 9.76654Z" fill="black"/>
<path fill-rule="evenodd" clip-rule="evenodd" d="M10.0783 7.29169C10.3712 6.9988 10.8461 6.9988 11.139 7.29169L12.8541 9.0068C13.147 9.2997 13.147 9.77457 12.8541 10.0675C12.5612 10.3604 12.0863 10.3604 11.7934 10.0675L10.0783 8.35235C9.78542 8.05946 9.78542 7.58458 10.0783 7.29169Z" fill="black"/>
<path fill-rule="evenodd" clip-rule="evenodd" d="M12.5524 4.81611C12.8453 4.52321 13.3202 4.52321 13.6131 4.81611L16.0635 7.26656C16.3564 7.55945 16.3564 8.03433 16.0635 8.32722C15.7707 8.62011 15.2958 8.62011 15.0029 8.32722L12.5524 5.87677C12.2595 5.58387 12.2595 5.109 12.5524 4.81611Z" fill="black"/>
<path fill-rule="evenodd" clip-rule="evenodd" d="M14.9897 2.65717C15.2826 2.36428 15.7575 2.36428 16.0503 2.65717L17.7231 4.32991C18.016 4.6228 18.016 5.09768 17.7231 5.39057C17.4302 5.68346 16.9553 5.68346 16.6624 5.39057L14.9897 3.71783C14.6968 3.42494 14.6968 2.95006 14.9897 2.65717Z" fill="black"/>
<path fill-rule="evenodd" clip-rule="evenodd" d="M16.7626 0.51185C17.446 -0.171568 18.554 -0.171566 19.2374 0.511851L23.4801 4.75449C24.1635 5.43791 24.1635 6.54595 23.4801 7.22937L7.23365 23.4758C6.55023 24.1592 5.44219 24.1592 4.75877 23.4758L0.516132 19.2332C-0.167285 18.5497 -0.167285 17.4417 0.516132 16.7583L16.7626 0.51185ZM18.1768 1.57251C18.0791 1.47488 17.9209 1.47488 17.8232 1.57251L1.57679 17.8189C1.47916 17.9166 1.47916 18.0749 1.57679 18.1725L5.81943 22.4151C5.91706 22.5128 6.07536 22.5128 6.17299 22.4151L22.4194 6.16871C22.517 6.07107 22.517 5.91278 22.4194 5.81515L18.1768 1.57251Z" fill="black"/>
</svg>
