<svg width="24" height="24" viewBox="0 0 24 24" fill="none" xmlns="http://www.w3.org/2000/svg">
<path fill-rule="evenodd" clip-rule="evenodd" d="M16.2032 17.2628C15.4578 17.9018 14.603 18.4389 13.6513 18.8434C8.66346 20.9631 2.90162 18.6381 0.781848 13.6503C-1.33792 8.66248 0.987086 2.90064 5.9749 0.780872C10.9627 -1.3389 16.7246 0.986111 18.8443 5.97393C20.3519 9.52124 19.6113 13.4601 17.2636 16.2018L23.7804 22.7196C24.0733 23.0125 24.0733 23.4874 23.7803 23.7803C23.4874 24.0731 23.0126 24.0731 22.7197 23.7802L16.2032 17.2628ZM2.16235 13.0636C0.366603 8.83821 2.33622 3.95712 6.5616 2.16137C10.787 0.365627 15.6681 2.33524 17.4638 6.56063C18.8202 9.75208 18.0284 13.3176 15.7391 15.6452C15.7225 15.6592 15.7064 15.6739 15.6908 15.6895C15.675 15.7053 15.6601 15.7215 15.6461 15.7383C14.9227 16.4507 14.0557 17.0416 13.0646 17.4629C8.83919 19.2586 3.9581 17.289 2.16235 13.0636Z" fill="black"/>
<path fill-rule="evenodd" clip-rule="evenodd" d="M4.25 9C4.66421 9 5 9.33579 5 9.75C5 12.6495 7.35051 15 10.25 15C10.6642 15 11 15.3358 11 15.75C11 16.1642 10.6642 16.5 10.25 16.5C6.52208 16.5 3.5 13.4779 3.5 9.75C3.5 9.33579 3.83579 9 4.25 9Z" fill="#29D305"/>
</svg>
