<svg width="24" height="24" viewBox="0 0 24 24" fill="none" xmlns="http://www.w3.org/2000/svg">
<path d="M5 9.75C5 9.33579 4.66421 9 4.25 9C3.83579 9 3.5 9.33579 3.5 9.75C3.5 13.4779 6.52208 16.5 10.25 16.5C10.6642 16.5 11 16.1642 11 15.75C11 15.3358 10.6642 15 10.25 15C7.3505 15 5 12.6495 5 9.75Z" fill="black"/>
<path fill-rule="evenodd" clip-rule="evenodd" d="M13.6537 18.8468C14.6054 18.4423 15.4602 17.9052 16.2057 17.2662L22.7221 23.7836C23.015 24.0765 23.4899 24.0765 23.7828 23.7837C24.0757 23.4908 24.0757 23.0159 23.7829 22.723L17.266 16.2052C19.6137 13.4635 20.3543 9.52466 18.8468 5.97734C16.727 0.989529 10.9652 -1.33548 5.97734 0.78429C0.989528 2.90406 -1.33548 8.6659 0.78429 13.6537C2.90406 18.6415 8.6659 20.9665 13.6537 18.8468ZM6.56404 2.16479C2.33866 3.96054 0.369045 8.84163 2.16479 13.067C3.96054 17.2924 8.84163 19.262 13.067 17.4663C14.0581 17.0451 14.9251 16.4541 15.6485 15.7417C15.6626 15.7249 15.6775 15.7087 15.6932 15.6929C15.7088 15.6773 15.7249 15.6626 15.7415 15.6486C18.0309 13.321 18.8226 9.7555 17.4663 6.56404C15.6705 2.33866 10.7894 0.369045 6.56404 2.16479Z" fill="black"/>
</svg>
