<svg width="25" height="25" viewBox="0 0 25 25" fill="none" xmlns="http://www.w3.org/2000/svg">
<path fill-rule="evenodd" clip-rule="evenodd" d="M17.2032 18.2629C16.4577 18.9019 15.6029 19.439 14.6512 19.8434C9.6634 21.9632 3.90157 19.6382 1.7818 14.6504C-0.337976 9.66257 1.98703 3.90073 6.97485 1.78096C11.9627 -0.338808 17.7245 1.9862 19.8443 6.97402C21.3518 10.5213 20.6113 14.4601 18.2635 17.2019L24.7804 23.7197C25.0732 24.0126 25.0732 24.4875 24.7803 24.7803C24.4874 25.0732 24.0125 25.0732 23.7196 24.7803L17.2032 18.2629ZM3.1623 14.0637C1.36655 9.8383 3.33616 4.95721 7.56155 3.16146C11.7869 1.36572 16.668 3.33533 18.4638 7.56072C19.8201 10.7522 19.0284 14.3177 16.739 16.6453C16.7224 16.6592 16.7063 16.674 16.6907 16.6896C16.675 16.7054 16.6601 16.7216 16.646 16.7384C15.9226 17.4508 15.0556 18.0417 14.0645 18.4629C9.83914 20.2587 4.95804 18.2891 3.1623 14.0637Z" fill="black"/>
<path fill-rule="evenodd" clip-rule="evenodd" d="M5.25 10C5.66421 10 6 10.3358 6 10.75C6 13.6495 8.35051 16 11.25 16C11.6642 16 12 16.3358 12 16.75C12 17.1642 11.6642 17.5 11.25 17.5C7.52208 17.5 4.5 14.4779 4.5 10.75C4.5 10.3358 4.83579 10 5.25 10Z" fill="#29D305"/>
</svg>
