<svg width="24" height="24" viewBox="0 0 24 24" fill="none" xmlns="http://www.w3.org/2000/svg">
<path fill-rule="evenodd" clip-rule="evenodd" d="M16.2034 17.2638C15.4581 17.9028 14.6034 18.4398 13.6518 18.8442C8.66471 20.9637 2.90366 18.639 0.784182 13.6518C-1.3353 8.66471 0.989391 2.90366 5.97652 0.784182C10.9637 -1.3353 16.7247 0.989393 18.8442 5.97652C20.3515 9.52335 19.611 13.4616 17.2636 16.203L23.7796 22.7199C24.0724 23.0128 24.0724 23.4876 23.7795 23.7804C23.4866 24.0732 23.0118 24.0732 22.719 23.7803L16.2034 17.2638ZM2.16449 13.0652C0.368994 8.84041 2.33833 3.95999 6.56314 2.16449C10.7879 0.368994 15.6684 2.33834 17.4639 6.56314C18.82 9.75416 18.0284 13.3192 15.7393 15.6465C15.7228 15.6604 15.7066 15.6752 15.691 15.6908C15.6753 15.7065 15.6604 15.7228 15.6464 15.7395C14.9231 16.4518 14.0562 17.0427 13.0652 17.4639C8.84041 19.2594 3.95999 17.29 2.16449 13.0652Z" fill="black"/>
<path fill-rule="evenodd" clip-rule="evenodd" d="M4.25185 9.0022C4.66601 9.0022 5.00175 9.33794 5.00175 9.75209C5.00175 12.6512 7.35193 15.0014 10.251 15.0014C10.6652 15.0014 11.0009 15.3371 11.0009 15.7513C11.0009 16.1654 10.6652 16.5012 10.251 16.5012C6.52361 16.5012 3.50195 13.4795 3.50195 9.75209C3.50195 9.33794 3.83769 9.0022 4.25185 9.0022Z" fill="#29D305"/>
</svg>
