<svg width="24" height="24" fill="none" xmlns="http://www.w3.org/2000/svg"><path fill-rule="evenodd" clip-rule="evenodd" d="M6.02.79c5.023-2.135 10.825.207 12.96 5.23a9.88 9.88 0 01-1.364 10.023l6.057 6.058a1.113 1.113 0 01-1.573 1.573l-6.057-6.057a9.896 9.896 0 01-2.293 1.363C8.727 21.114 2.925 18.773.79 13.75-1.345 8.727.997 2.925 6.02.79zm10.912 6.1a7.657 7.657 0 10-14.094 5.99 7.657 7.657 0 0014.093-5.99z" fill="#000"/><path fill-rule="evenodd" clip-rule="evenodd" d="M5 8a1 1 0 00-1 1 7 7 0 007 7 1 1 0 100-2 5 5 0 01-5-5 1 1 0 00-1-1z" fill="#000"/></svg>