<svg width="24" height="24" fill="none" xmlns="http://www.w3.org/2000/svg"><g clip-path="url(#clip0)" fill-rule="evenodd" clip-rule="evenodd"><path d="M2.162 13.064A8.313 8.313 0 1117.464 6.56a8.313 8.313 0 01-15.302 6.503zm14.041 4.199a9.807 9.807 0 01-2.552 1.58c-4.988 2.12-10.75-.205-12.87-5.193C-1.337 8.663.988 2.9 5.976.781c4.988-2.12 10.75.205 12.87 5.193a9.813 9.813 0 01-1.581 10.228l6.516 6.518a.75.75 0 01-1.06 1.06l-6.517-6.517z" fill="#000"/><path d="M4.25 9a.75.75 0 01.75.75C5 12.65 7.35 15 10.25 15a.75.75 0 010 1.5A6.75 6.75 0 013.5 9.75.75.75 0 014.25 9z" fill="#29D305"/></g><defs><clipPath id="clip0"><path fill="#fff" d="M0 0h24v24H0z"/></clipPath></defs></svg>