<svg width="24" height="24" viewBox="0 0 24 24" fill="none" xmlns="http://www.w3.org/2000/svg">
<g clip-path="url(#clip0)">
<path fill-rule="evenodd" clip-rule="evenodd" d="M2.16479 13.067C0.369045 8.84163 2.33866 3.96054 6.56404 2.16479C10.7894 0.369045 15.6705 2.33866 17.4663 6.56404C18.8226 9.7555 18.0309 13.321 15.7415 15.6486C15.7249 15.6626 15.7088 15.6773 15.6932 15.6929C15.6775 15.7087 15.6626 15.7249 15.6485 15.7417C14.9251 16.4541 14.0581 17.0451 13.067 17.4663C8.84163 19.262 3.96054 17.2924 2.16479 13.067ZM16.2057 17.2662C15.4602 17.9052 14.6054 18.4423 13.6537 18.8468C8.6659 20.9665 2.90406 18.6415 0.78429 13.6537C-1.33548 8.6659 0.989528 2.90406 5.97734 0.78429C10.9652 -1.33548 16.727 0.989529 18.8468 5.97734C20.3543 9.52466 19.6137 13.4635 17.266 16.2052L23.7829 22.723C24.0757 23.0159 24.0757 23.4908 23.7828 23.7837C23.4899 24.0765 23.015 24.0765 22.7221 23.7836L16.2057 17.2662Z" fill="black"/>
<path fill-rule="evenodd" clip-rule="evenodd" d="M4.25 9C4.66421 9 5 9.33579 5 9.75C5 12.6495 7.35051 15 10.25 15C10.6642 15 11 15.3358 11 15.75C11 16.1642 10.6642 16.5 10.25 16.5C6.52208 16.5 3.5 13.4779 3.5 9.75C3.5 9.33579 3.83579 9 4.25 9Z" fill="black"/>
</g>
<defs>
<clipPath id="clip0">
<rect width="24" height="24" fill="white"/>
</clipPath>
</defs>
</svg>
