<svg width="24" height="24" viewBox="0 0 24 24" fill="none" xmlns="http://www.w3.org/2000/svg">
<path fill-rule="evenodd" clip-rule="evenodd" d="M18.9797 6.01949C16.8449 0.996506 11.0425 -1.3449 6.01949 0.78982C0.996505 2.92454 -1.3449 8.727 0.78982 13.75C2.92454 18.773 8.727 21.1144 13.75 18.9797C14.5922 18.6217 15.3594 18.1604 16.043 17.6166L22.0996 23.674C22.5341 24.1086 23.2387 24.1087 23.6732 23.6741C24.1078 23.2396 24.1079 22.5351 23.6734 22.1005L17.6162 16.0425C19.7982 13.2979 20.448 9.47461 18.9797 6.01949ZM6.88996 2.83802C10.7817 1.18405 15.2775 2.99816 16.9315 6.88996C18.1782 9.82362 17.4546 13.1013 15.3541 15.246C15.3351 15.2626 15.3164 15.28 15.2984 15.2981C15.2801 15.3164 15.2625 15.3352 15.2457 15.3545C14.5821 16.0052 13.7878 16.5455 12.8795 16.9315C8.98773 18.5854 4.492 16.7713 2.83802 12.8795C1.18405 8.98773 2.99816 4.492 6.88996 2.83802ZM4 9C4 8.44771 4.44772 8 5 8C5.55228 8 6 8.44771 6 9C6 11.7614 8.23858 14 11 14C11.5523 14 12 14.4477 12 15C12 15.5523 11.5523 16 11 16C7.13401 16 4 12.866 4 9Z" fill="black"/>
</svg>
