<svg width="24" height="24" fill="none" xmlns="http://www.w3.org/2000/svg"><g clip-path="url(#clip0)" fill-rule="evenodd" clip-rule="evenodd" fill="#000"><path d="M2.165 13.067a8.313 8.313 0 1115.301-6.503 8.313 8.313 0 01-15.301 6.503zm14.04 4.2a9.81 9.81 0 01-2.551 1.58c-4.988 2.12-10.75-.206-12.87-5.193C-1.336 8.666.99 2.904 5.977.784c4.988-2.12 10.75.206 12.87 5.193a9.813 9.813 0 01-1.581 10.228l6.517 6.518a.75.75 0 01-1.06 1.06l-6.517-6.517z"/><path d="M4.25 9a.75.75 0 01.75.75C5 12.65 7.35 15 10.25 15a.75.75 0 010 1.5A6.75 6.75 0 013.5 9.75.75.75 0 014.25 9z"/></g><defs><clipPath id="clip0"><path fill="#fff" d="M0 0h24v24H0z"/></clipPath></defs></svg>