<svg width="24" height="24" viewBox="0 0 24 24" fill="none" xmlns="http://www.w3.org/2000/svg">
<path d="M4.99931 9.74866C4.99931 9.3345 4.66357 8.99876 4.24941 8.99876C3.83526 8.99876 3.49952 9.3345 3.49952 9.74866C3.49952 13.4761 6.52118 16.4977 10.2486 16.4977C10.6627 16.4977 10.9985 16.162 10.9985 15.7478C10.9985 15.3337 10.6627 14.9979 10.2486 14.9979C7.34949 14.9979 4.99931 12.6478 4.99931 9.74866Z" fill="black"/>
<path fill-rule="evenodd" clip-rule="evenodd" d="M13.6518 18.8442C14.6034 18.4398 15.4581 17.9028 16.2034 17.2638L22.719 23.7803C23.0118 24.0732 23.4866 24.0732 23.7795 23.7804C24.0724 23.4876 24.0724 23.0128 23.7796 22.7199L17.2636 16.203C19.611 13.4616 20.3515 9.52335 18.8442 5.97652C16.7247 0.989393 10.9637 -1.3353 5.97652 0.784182C0.989391 2.90366 -1.3353 8.66471 0.784182 13.6518C2.90366 18.639 8.66471 20.9637 13.6518 18.8442ZM6.56314 2.16449C2.33833 3.95999 0.368994 8.84041 2.16449 13.0652C3.95999 17.29 8.84041 19.2594 13.0652 17.4639C14.0562 17.0427 14.9231 16.4518 15.6464 15.7395C15.6604 15.7228 15.6753 15.7065 15.691 15.6908C15.7066 15.6752 15.7228 15.6604 15.7393 15.6465C18.0284 13.3192 18.82 9.75416 17.4639 6.56314C15.6684 2.33834 10.7879 0.368994 6.56314 2.16449Z" fill="black"/>
</svg>
