<svg width="24" height="24" viewBox="0 0 24 24" fill="none" xmlns="http://www.w3.org/2000/svg">
<g clip-path="url(#clip0_4490:19675)">
<path d="M22.5718 9.60784C22.3073 9.55727 22.0909 9.37777 21.9908 9.12914C20.9938 6.62669 18.9666 4.67196 16.4301 3.76402C16.0243 3.61947 15.8118 3.1698 15.9563 2.76399C16.0879 2.3982 16.46 2.18571 16.8412 2.25862C16.8792 2.26588 16.9175 2.2764 16.9553 2.29C19.9155 3.34909 22.2808 5.62984 23.4445 8.54981C23.6036 8.95102 23.4081 9.40658 23.0067 9.56672C22.8698 9.62129 22.7183 9.63587 22.5718 9.60784Z" fill="black"/>
<path d="M2.20474 16.1187C2.47084 16.1596 2.69363 16.331 2.80276 16.5758C3.89045 19.0403 5.98757 20.9197 8.55551 21.7345C8.96633 21.8642 9.19512 22.3058 9.06548 22.7166C8.94733 23.087 8.58323 23.3129 8.19956 23.2539C8.1614 23.2481 8.12268 23.2389 8.08444 23.2267C5.08759 22.2763 2.64063 20.0834 1.3712 17.2078C1.19755 16.8127 1.37629 16.3503 1.77159 16.1756C1.90637 16.1161 2.05726 16.096 2.20474 16.1187Z" fill="black"/>
<path d="M7.04352 10.174C5.31761 10.174 3.91309 8.76943 3.91309 7.04352C3.91309 5.31761 5.31761 3.91309 7.04352 3.91309C8.76943 3.91309 10.174 5.31761 10.174 7.04352C10.174 8.76943 8.76943 10.174 7.04352 10.174ZM7.04352 5.4783C6.18056 5.4783 5.4783 6.18056 5.4783 7.04352C5.4783 7.90648 6.18056 8.60874 7.04352 8.60874C7.90648 8.60874 8.60874 7.90648 8.60874 7.04352C8.60874 6.18056 7.90648 5.4783 7.04352 5.4783Z" fill="black"/>
<path d="M7.04347 3.13043C6.61147 3.13043 6.26086 2.77983 6.26086 2.34783V0.782609C6.26086 0.350609 6.61147 0 7.04347 0C7.47547 0 7.82608 0.350609 7.82608 0.782609V2.34783C7.82608 2.77983 7.47443 3.13043 7.04347 3.13043Z" fill="black"/>
<path d="M11.7392 7.82608C11.3072 7.82608 10.9565 7.47547 10.9565 7.04347C10.9565 6.61147 11.3072 6.26086 11.7392 6.26086H13.3044C13.7364 6.26086 14.087 6.61147 14.087 7.04347C14.087 7.47547 13.7364 7.82608 13.3044 7.82608H11.7392Z" fill="black"/>
<path d="M7.04347 14.087C6.61147 14.087 6.26086 13.7364 6.26086 13.3044V11.7392C6.26086 11.3072 6.61147 10.9565 7.04347 10.9565C7.47547 10.9565 7.82608 11.3072 7.82608 11.7392V13.3044C7.82608 13.7364 7.47443 14.087 7.04347 14.087Z" fill="black"/>
<path d="M0.782609 7.82608C0.350609 7.82608 0 7.47547 0 7.04347C0 6.61147 0.350609 6.26086 0.782609 6.26086H2.34783C2.77983 6.26086 3.13043 6.61147 3.13043 7.04347C3.13043 7.47547 2.77878 7.82608 2.34783 7.82608H0.782609Z" fill="black"/>
<path d="M3.72311 4.50584C3.51442 4.50584 3.3172 4.42445 3.17007 4.27628L2.06294 3.16915C1.91477 3.02097 1.83337 2.8248 1.83337 2.6161C1.83337 2.40741 1.91477 2.21019 2.06294 2.06306C2.21007 1.91489 2.40729 1.8335 2.61598 1.8335C2.82468 1.8335 3.0219 1.91489 3.16903 2.06306L4.27616 3.17019C4.42433 3.31837 4.50572 3.51454 4.50572 3.72324C4.50572 3.93193 4.42433 4.12915 4.27616 4.27628C4.12798 4.42445 3.93181 4.50584 3.72311 4.50584Z" fill="black"/>
<path d="M10.3638 4.50584C10.1552 4.50584 9.95793 4.42445 9.8108 4.27628C9.66263 4.12915 9.58124 3.93193 9.58124 3.72324C9.58124 3.51454 9.66263 3.31732 9.8108 3.17019L10.9179 2.06306C11.0661 1.91489 11.2623 1.8335 11.471 1.8335C11.6797 1.8335 11.8769 1.91489 12.024 2.06306C12.1722 2.21019 12.2536 2.40741 12.2536 2.6161C12.2536 2.8248 12.1722 3.02202 12.024 3.16915L10.9169 4.27628C10.7687 4.42445 10.5725 4.50584 10.3638 4.50584Z" fill="black"/>
<path d="M11.471 12.2534C11.2623 12.2534 11.0651 12.172 10.9179 12.0238L9.80976 10.9167C9.66159 10.7696 9.5802 10.5724 9.5802 10.3637C9.5802 10.155 9.66159 9.95775 9.80976 9.81062C9.9569 9.66245 10.1541 9.58105 10.3628 9.58105C10.5715 9.58105 10.7687 9.66245 10.9159 9.81062L12.023 10.9178C12.1712 11.0649 12.2525 11.2621 12.2525 11.4708C12.2525 11.6795 12.1712 11.8767 12.023 12.0238C11.8759 12.172 11.6797 12.2534 11.471 12.2534Z" fill="black"/>
<path d="M2.61598 12.2534C2.40729 12.2534 2.21007 12.172 2.06294 12.0238C1.91477 11.8767 1.83337 11.6795 1.83337 11.4708C1.83337 11.2621 1.91477 11.0649 2.06294 10.9178L3.17007 9.81062C3.3172 9.66245 3.51442 9.58105 3.72311 9.58105C3.93181 9.58105 4.12903 9.66245 4.27616 9.81062C4.42433 9.95775 4.50572 10.155 4.50572 10.3637C4.50572 10.5724 4.42433 10.7696 4.27616 10.9167L3.16903 12.0238C3.0219 12.172 2.82468 12.2534 2.61598 12.2534Z" fill="black"/>
<path fill-rule="evenodd" clip-rule="evenodd" d="M18.6122 12.6122C18.6122 12.2741 18.3381 12 18 12C17.6619 12 17.3878 12.2741 17.3878 12.6122V14.1621L16.3192 13.4497C16.0379 13.2621 15.6577 13.3382 15.4702 13.6195C15.2826 13.9009 15.3586 14.281 15.64 14.4685L17.3878 15.6337V17.3878H15.6338L14.4686 15.6399C14.281 15.3586 13.9009 15.2826 13.6196 15.4701C13.3382 15.6577 13.2622 16.0378 13.4498 16.3191L14.1622 17.3878H12.6122C12.2741 17.3878 12 17.6619 12 18C12 18.3381 12.2741 18.6122 12.6122 18.6122H14.1621L13.4498 19.6807C13.2622 19.9621 13.3382 20.3422 13.6196 20.5298C13.9009 20.7173 14.281 20.6413 14.4686 20.36L15.6338 18.6122H17.3878V20.3662L15.64 21.5314C15.3586 21.719 15.2826 22.0991 15.4702 22.3804C15.6577 22.6618 16.0379 22.7378 16.3192 22.5502L17.3878 21.8379V23.3878C17.3878 23.7259 17.6619 24 18 24C18.3381 24 18.6122 23.7259 18.6122 23.3878V21.8379L19.6808 22.5502C19.9621 22.7378 20.3423 22.6618 20.5298 22.3804C20.7174 22.0991 20.6414 21.719 20.36 21.5314L18.6122 20.3662V18.6122H20.3663L21.5314 20.36C21.719 20.6413 22.0991 20.7173 22.3804 20.5298C22.6618 20.3422 22.7378 19.9621 22.5502 19.6807L21.8379 18.6122H23.3878C23.7259 18.6122 24 18.3381 24 18C24 17.6619 23.7259 17.3878 23.3878 17.3878H21.8378L22.5502 16.3191C22.7378 16.0378 22.6618 15.6577 22.3804 15.4701C22.0991 15.2826 21.719 15.3586 21.5314 15.6399L20.3662 17.3878H18.6122V15.6337L20.36 14.4685C20.6414 14.281 20.7174 13.9009 20.5298 13.6195C20.3423 13.3382 19.9621 13.2621 19.6808 13.4497L18.6122 14.1621V12.6122Z" fill="black"/>
</g>
<defs>
<clipPath id="clip0_4490:19675">
<rect width="24" height="24" fill="white"/>
</clipPath>
</defs>
</svg>
