<svg width="24" height="24" viewBox="0 0 24 24" fill="none" xmlns="http://www.w3.org/2000/svg">
<g clip-path="url(#clip0_4907_19484)">
<path fill-rule="evenodd" clip-rule="evenodd" d="M3.75098 1.49701C3.15424 1.49701 2.58194 1.73406 2.15999 2.15602C1.73803 2.57798 1.50098 3.15027 1.50098 3.74701C1.50098 4.16122 1.16519 4.49701 0.750977 4.49701C0.336763 4.49701 0.000976562 4.16122 0.000976562 3.74701C0.000976562 2.75245 0.396065 1.79862 1.09933 1.09536C1.80259 0.392097 2.75641 -0.00299072 3.75098 -0.00299072C4.16519 -0.00299072 4.50098 0.332796 4.50098 0.747009C4.50098 1.16122 4.16519 1.49701 3.75098 1.49701Z" fill="black"/>
<path fill-rule="evenodd" clip-rule="evenodd" d="M0.750977 16.497C1.16519 16.497 1.50098 16.8328 1.50098 17.247C1.50098 17.8437 1.73803 18.416 2.15999 18.838C2.58194 19.26 3.15424 19.497 3.75098 19.497C4.16519 19.497 4.50098 19.8328 4.50098 20.247C4.50098 20.6612 4.16519 20.997 3.75098 20.997C2.75641 20.997 1.80259 20.6019 1.09933 19.8987C0.396065 19.1954 0.000976562 18.2416 0.000976562 17.247C0.000976562 16.8328 0.336763 16.497 0.750977 16.497Z" fill="black"/>
<path fill-rule="evenodd" clip-rule="evenodd" d="M16.501 0.747009C16.501 0.332796 16.8368 -0.00299072 17.251 -0.00299072C18.2455 -0.00299072 19.1994 0.392097 19.9026 1.09536C20.6059 1.79862 21.001 2.75245 21.001 3.74701C21.001 4.16122 20.6652 4.49701 20.251 4.49701C19.8368 4.49701 19.501 4.16122 19.501 3.74701C19.501 3.15027 19.2639 2.57798 18.842 2.15602C18.42 1.73406 17.8477 1.49701 17.251 1.49701C16.8368 1.49701 16.501 1.16122 16.501 0.747009Z" fill="black"/>
<path fill-rule="evenodd" clip-rule="evenodd" d="M20.251 7.49701C20.6652 7.49701 21.001 7.8328 21.001 8.24701V12.747C21.001 13.1612 20.6652 13.497 20.251 13.497C19.8368 13.497 19.501 13.1612 19.501 12.747V8.24701C19.501 7.8328 19.8368 7.49701 20.251 7.49701Z" fill="black"/>
<path fill-rule="evenodd" clip-rule="evenodd" d="M0.750977 7.49701C1.16519 7.49701 1.50098 7.8328 1.50098 8.24701V12.747C1.50098 13.1612 1.16519 13.497 0.750977 13.497C0.336763 13.497 0.000976562 13.1612 0.000976562 12.747V8.24701C0.000976562 7.8328 0.336763 7.49701 0.750977 7.49701Z" fill="black"/>
<path fill-rule="evenodd" clip-rule="evenodd" d="M7.50098 0.747009C7.50098 0.332796 7.83676 -0.00299072 8.25098 -0.00299072H12.751C13.1652 -0.00299072 13.501 0.332796 13.501 0.747009C13.501 1.16122 13.1652 1.49701 12.751 1.49701H8.25098C7.83676 1.49701 7.50098 1.16122 7.50098 0.747009Z" fill="black"/>
<path fill-rule="evenodd" clip-rule="evenodd" d="M7.50098 20.247C7.50098 19.8328 7.83676 19.497 8.25098 19.497H12.751C13.1652 19.497 13.501 19.8328 13.501 20.247C13.501 20.6612 13.1652 20.997 12.751 20.997H8.25098C7.83676 20.997 7.50098 20.6612 7.50098 20.247Z" fill="black"/>
<path fill-rule="evenodd" clip-rule="evenodd" d="M14.2346 14.2317C14.4426 14.0237 14.7529 13.9565 15.0283 14.0597L23.5143 17.2417C23.8011 17.3493 23.9937 17.6205 24.0008 17.9267C24.0078 18.233 23.8279 18.5127 23.5464 18.6334L20.1091 20.1062L18.6363 23.5424C18.5157 23.824 18.2359 24.0039 17.9297 23.9968C17.6234 23.9897 17.3523 23.7971 17.2447 23.5103L14.0627 15.0253C13.9595 14.75 14.0267 14.4396 14.2346 14.2317ZM16.0466 16.0435L17.9934 21.2349L18.8486 19.2395C18.9245 19.0625 19.0656 18.9215 19.2426 18.8456L21.2385 17.9904L16.0466 16.0435Z" fill="black"/>
</g>
<defs>
<clipPath id="clip0_4907_19484">
<rect width="24" height="24" fill="white"/>
</clipPath>
</defs>
</svg>
