<svg width="24" height="24" viewBox="0 0 24 24" fill="none" xmlns="http://www.w3.org/2000/svg">
<g clip-path="url(#clip0_4907_19484)">
<path fill-rule="evenodd" clip-rule="evenodd" d="M3.75098 1.49695C3.15424 1.49695 2.58194 1.734 2.15999 2.15596C1.73803 2.57791 1.50098 3.15021 1.50098 3.74695C1.50098 4.16116 1.16519 4.49695 0.750977 4.49695C0.336763 4.49695 0.000976562 4.16116 0.000976562 3.74695C0.000976562 2.75239 0.396065 1.79856 1.09933 1.0953C1.80259 0.392036 2.75641 -0.00305176 3.75098 -0.00305176C4.16519 -0.00305176 4.50098 0.332735 4.50098 0.746948C4.50098 1.16116 4.16519 1.49695 3.75098 1.49695Z" fill="black"/>
<path fill-rule="evenodd" clip-rule="evenodd" d="M0.750977 16.4969C1.16519 16.4969 1.50098 16.8327 1.50098 17.2469C1.50098 17.8437 1.73803 18.416 2.15999 18.8379C2.58194 19.2599 3.15424 19.4969 3.75098 19.4969C4.16519 19.4969 4.50098 19.8327 4.50098 20.2469C4.50098 20.6612 4.16519 20.9969 3.75098 20.9969C2.75641 20.9969 1.80259 20.6019 1.09933 19.8986C0.396065 19.1953 0.000976562 18.2415 0.000976562 17.2469C0.000976562 16.8327 0.336763 16.4969 0.750977 16.4969Z" fill="black"/>
<path fill-rule="evenodd" clip-rule="evenodd" d="M16.501 0.746948C16.501 0.332735 16.8368 -0.00305176 17.251 -0.00305176C18.2455 -0.00305176 19.1994 0.392036 19.9026 1.0953C20.6059 1.79856 21.001 2.75239 21.001 3.74695C21.001 4.16116 20.6652 4.49695 20.251 4.49695C19.8368 4.49695 19.501 4.16116 19.501 3.74695C19.501 3.15021 19.2639 2.57791 18.842 2.15596C18.42 1.734 17.8477 1.49695 17.251 1.49695C16.8368 1.49695 16.501 1.16116 16.501 0.746948Z" fill="black"/>
<path fill-rule="evenodd" clip-rule="evenodd" d="M20.251 7.49695C20.6652 7.49695 21.001 7.83273 21.001 8.24695V12.7469C21.001 13.1612 20.6652 13.4969 20.251 13.4969C19.8368 13.4969 19.501 13.1612 19.501 12.7469V8.24695C19.501 7.83273 19.8368 7.49695 20.251 7.49695Z" fill="black"/>
<path fill-rule="evenodd" clip-rule="evenodd" d="M0.750977 7.49695C1.16519 7.49695 1.50098 7.83273 1.50098 8.24695V12.7469C1.50098 13.1612 1.16519 13.4969 0.750977 13.4969C0.336763 13.4969 0.000976562 13.1612 0.000976562 12.7469V8.24695C0.000976562 7.83273 0.336763 7.49695 0.750977 7.49695Z" fill="black"/>
<path fill-rule="evenodd" clip-rule="evenodd" d="M7.50098 0.746948C7.50098 0.332735 7.83676 -0.00305176 8.25098 -0.00305176H12.751C13.1652 -0.00305176 13.501 0.332735 13.501 0.746948C13.501 1.16116 13.1652 1.49695 12.751 1.49695H8.25098C7.83676 1.49695 7.50098 1.16116 7.50098 0.746948Z" fill="black"/>
<path fill-rule="evenodd" clip-rule="evenodd" d="M7.50098 20.2469C7.50098 19.8327 7.83676 19.4969 8.25098 19.4969H12.751C13.1652 19.4969 13.501 19.8327 13.501 20.2469C13.501 20.6612 13.1652 20.9969 12.751 20.9969H8.25098C7.83676 20.9969 7.50098 20.6612 7.50098 20.2469Z" fill="black"/>
<path fill-rule="evenodd" clip-rule="evenodd" d="M14.2346 14.2317C14.4426 14.0237 14.7529 13.9565 15.0283 14.0597L23.5143 17.2417C23.8011 17.3493 23.9937 17.6205 24.0008 17.9267C24.0078 18.233 23.8279 18.5127 23.5464 18.6334L20.1091 20.1062L18.6363 23.5424C18.5157 23.824 18.2359 24.0039 17.9297 23.9968C17.6234 23.9897 17.3523 23.7971 17.2447 23.5103L14.0627 15.0253C13.9595 14.75 14.0267 14.4396 14.2346 14.2317ZM16.0466 16.0435L17.9934 21.2349L18.8486 19.2395C18.9245 19.0625 19.0656 18.9215 19.2426 18.8456L21.2385 17.9904L16.0466 16.0435Z" fill="black"/>
</g>
<defs>
<clipPath id="clip0_4907_19484">
<rect width="24" height="24" fill="white"/>
</clipPath>
</defs>
</svg>
