<svg width="24" height="24" viewBox="0 0 24 24" fill="none" xmlns="http://www.w3.org/2000/svg">
<path fill-rule="evenodd" clip-rule="evenodd" d="M3.75098 1.49707C3.15424 1.49707 2.58194 1.73412 2.15999 2.15608C1.73803 2.57804 1.50098 3.15033 1.50098 3.74707C1.50098 4.16128 1.16519 4.49707 0.750977 4.49707C0.336763 4.49707 0.000976562 4.16128 0.000976562 3.74707C0.000976562 2.75251 0.396065 1.79868 1.09933 1.09542C1.80259 0.392159 2.75641 -0.00292969 3.75098 -0.00292969C4.16519 -0.00292969 4.50098 0.332857 4.50098 0.74707C4.50098 1.16128 4.16519 1.49707 3.75098 1.49707Z" fill="black"/>
<path fill-rule="evenodd" clip-rule="evenodd" d="M0.750977 16.4971C1.16519 16.4971 1.50098 16.8329 1.50098 17.2471C1.50098 17.8438 1.73803 18.4161 2.15999 18.8381C2.58194 19.26 3.15424 19.4971 3.75098 19.4971C4.16519 19.4971 4.50098 19.8329 4.50098 20.2471C4.50098 20.6613 4.16519 20.9971 3.75098 20.9971C2.75641 20.9971 1.80259 20.602 1.09933 19.8987C0.396065 19.1955 0.000976562 18.2416 0.000976562 17.2471C0.000976562 16.8329 0.336763 16.4971 0.750977 16.4971Z" fill="black"/>
<path fill-rule="evenodd" clip-rule="evenodd" d="M16.501 0.74707C16.501 0.332857 16.8368 -0.00292969 17.251 -0.00292969C18.2455 -0.00292969 19.1994 0.392158 19.9026 1.09542C20.6059 1.79868 21.001 2.75251 21.001 3.74707C21.001 4.16128 20.6652 4.49707 20.251 4.49707C19.8368 4.49707 19.501 4.16128 19.501 3.74707C19.501 3.15033 19.2639 2.57804 18.842 2.15608C18.42 1.73412 17.8477 1.49707 17.251 1.49707C16.8368 1.49707 16.501 1.16128 16.501 0.74707Z" fill="black"/>
<path fill-rule="evenodd" clip-rule="evenodd" d="M20.251 7.49707C20.6652 7.49707 21.001 7.83286 21.001 8.24707V12.7471C21.001 13.1613 20.6652 13.4971 20.251 13.4971C19.8368 13.4971 19.501 13.1613 19.501 12.7471V8.24707C19.501 7.83286 19.8368 7.49707 20.251 7.49707Z" fill="black"/>
<path fill-rule="evenodd" clip-rule="evenodd" d="M0.750977 7.49707C1.16519 7.49707 1.50098 7.83286 1.50098 8.24707V12.7471C1.50098 13.1613 1.16519 13.4971 0.750977 13.4971C0.336763 13.4971 0.000976562 13.1613 0.000976562 12.7471V8.24707C0.000976562 7.83286 0.336763 7.49707 0.750977 7.49707Z" fill="black"/>
<path fill-rule="evenodd" clip-rule="evenodd" d="M7.50098 0.74707C7.50098 0.332857 7.83676 -0.00292969 8.25098 -0.00292969H12.751C13.1652 -0.00292969 13.501 0.332857 13.501 0.74707C13.501 1.16128 13.1652 1.49707 12.751 1.49707H8.25098C7.83676 1.49707 7.50098 1.16128 7.50098 0.74707Z" fill="black"/>
<path fill-rule="evenodd" clip-rule="evenodd" d="M7.50098 20.2471C7.50098 19.8329 7.83676 19.4971 8.25098 19.4971H12.751C13.1652 19.4971 13.501 19.8329 13.501 20.2471C13.501 20.6613 13.1652 20.9971 12.751 20.9971H8.25098C7.83676 20.9971 7.50098 20.6613 7.50098 20.2471Z" fill="black"/>
<path fill-rule="evenodd" clip-rule="evenodd" d="M14.2347 14.2317C14.4427 14.0237 14.753 13.9565 15.0284 14.0597L23.5144 17.2417C23.8012 17.3493 23.9938 17.6205 24.0008 17.9267C24.0079 18.233 23.828 18.5127 23.5464 18.6334L20.1092 20.1062L18.6364 23.5424C18.5157 23.824 18.236 24.0039 17.9297 23.9968C17.6235 23.9897 17.3523 23.7971 17.2448 23.5103L14.0628 15.0253C13.9595 14.75 14.0267 14.4396 14.2347 14.2317ZM16.0466 16.0435L17.9935 21.2349L18.8487 19.2395C18.9246 19.0625 19.0656 18.9215 19.2426 18.8456L21.2386 17.9904L16.0466 16.0435Z" fill="black"/>
</svg>
