<svg width="24" height="24" viewBox="0 0 24 24" fill="none" xmlns="http://www.w3.org/2000/svg">
<path fill-rule="evenodd" clip-rule="evenodd" d="M1.5 2.25C1.5 1.83579 1.83579 1.5 2.25 1.5H21.75C22.1642 1.5 22.5 1.83579 22.5 2.25V21.75C22.5 22.1642 22.1642 22.5 21.75 22.5H2.25C1.83579 22.5 1.5 22.1642 1.5 21.75V2.25ZM2.25 0C1.00736 0 0 1.00736 0 2.25V21.75C0 22.9926 1.00736 24 2.25 24H21.75C22.9926 24 24 22.9926 24 21.75V2.25C24 1.00736 22.9926 0 21.75 0H2.25ZM16.5 5.26465C16.5 4.85043 16.1642 4.51465 15.75 4.51465C15.3358 4.51465 15 4.85043 15 5.26465V10.6099C14.6753 10.6938 14.3651 10.8319 14.0833 11.0202C13.5899 11.3499 13.2054 11.8184 12.9784 12.3666C12.7513 12.9148 12.6919 13.518 12.8076 14.0999C12.9234 14.6819 13.2091 15.2164 13.6287 15.636C14.0083 16.0156 14.4821 16.2857 15 16.4194V18.7646C15 19.1789 15.3358 19.5146 15.75 19.5146C16.1642 19.5146 16.5 19.1789 16.5 18.7646V16.4194C16.6351 16.3845 16.7681 16.3401 16.8981 16.2863C17.4462 16.0592 17.9148 15.6747 18.2444 15.1814C18.5741 14.688 18.75 14.108 18.75 13.5147C18.75 12.719 18.4339 11.9559 17.8713 11.3933C17.4892 11.0112 17.0145 10.7428 16.5 10.6099V5.26465ZM15.75 12.0147C15.4533 12.0146 15.1633 12.1026 14.9166 12.2674C14.67 12.4323 14.4777 12.6665 14.3642 12.9406C14.2507 13.2147 14.2209 13.5163 14.2788 13.8073C14.3367 14.0983 14.4796 14.3655 14.6893 14.5753C14.8991 14.7851 15.1664 14.9279 15.4574 14.9858C15.7483 15.0437 16.0499 15.014 16.324 14.9005C16.5981 14.7869 16.8324 14.5947 16.9972 14.348C17.162 14.1013 17.25 13.8113 17.25 13.5147C17.25 13.1168 17.092 12.7353 16.8107 12.454C16.5294 12.1727 16.1478 12.0146 15.75 12.0147ZM9 10.4194C9.51452 10.2865 9.98917 10.0181 10.3713 9.63597C10.9339 9.07336 11.25 8.3103 11.25 7.51465C11.25 6.92131 11.0741 6.34129 10.7444 5.84794C10.4148 5.35459 9.94623 4.97007 9.39805 4.74301C8.84987 4.51595 8.24667 4.45654 7.66473 4.57229C7.08279 4.68805 6.54824 4.97377 6.12868 5.39333C5.70912 5.81289 5.4234 6.34744 5.30765 6.92938C5.19189 7.51132 5.2513 8.11452 5.47836 8.6627C5.70543 9.21088 6.08994 9.67941 6.58329 10.0091C6.86513 10.1974 7.17526 10.3355 7.5 10.4194V18.7646C7.5 19.1789 7.83579 19.5146 8.25 19.5146C8.66421 19.5146 9 19.1789 9 18.7646V10.4194ZM8.24861 9.01465C7.95242 9.01438 7.66293 8.92642 7.41665 8.76185C7.16997 8.59703 6.97771 8.36276 6.86418 8.08867C6.75065 7.81459 6.72095 7.51299 6.77882 7.22201C6.8367 6.93104 6.97956 6.66377 7.18934 6.45399C7.39912 6.24421 7.66639 6.10135 7.95737 6.04347C8.24834 5.98559 8.54994 6.0153 8.82403 6.12883C9.09812 6.24236 9.33238 6.43462 9.49721 6.68129C9.66203 6.92797 9.75 7.21798 9.75 7.51465C9.75 7.91247 9.59197 8.29401 9.31066 8.57531C9.02936 8.85662 8.64783 9.01465 8.25 9.01465C8.24954 9.01465 8.24907 9.01465 8.24861 9.01465Z" fill="black"/>
</svg>
