<svg width="24" height="24" viewBox="0 0 24 24" fill="none" xmlns="http://www.w3.org/2000/svg">
<path fill-rule="evenodd" clip-rule="evenodd" d="M12.9777 3.50302C12.9777 2.13633 14.6563 1.48165 15.5816 2.48743L23.4725 11.0645C24.0006 11.6385 24.0006 12.5216 23.4725 13.0957L15.5816 21.6727C14.6563 22.6785 12.9777 22.0238 12.9777 20.6571V16.7253C8.72178 16.1545 5.43831 17.195 2.94012 20.1C2.43794 20.6839 1.67811 20.7686 1.11143 20.559C0.524768 20.3419 -0.0197016 19.7281 0.170385 18.88C0.801528 16.0641 2.00063 13.1777 4.04946 10.9853C6.1178 8.77203 9.01766 7.30575 12.9369 7.309C12.9521 7.30901 12.965 7.30309 12.9734 7.29502C12.9758 7.29267 12.9777 7.28987 12.9777 7.28987V3.50302ZM22.3686 12.0801L14.4777 3.50302V7.29024C14.4777 8.16142 13.7518 8.80967 12.9357 8.809C9.43702 8.8061 6.93303 10.0966 5.1454 12.0095C3.34996 13.9307 2.24367 16.5187 1.64568 19.1566C1.67502 19.1648 1.70827 19.1662 1.73714 19.1601C1.7653 19.1541 1.78527 19.1424 1.80283 19.1219C4.69927 15.7539 8.53394 14.6106 13.1998 15.2417C13.9487 15.343 14.4777 15.9872 14.4777 16.7151L14.4777 20.6571L22.3686 12.0801Z" fill="black"/>
</svg>
