<svg width="24" height="24" viewBox="0 0 24 24" fill="none" xmlns="http://www.w3.org/2000/svg">
<path fill-rule="evenodd" clip-rule="evenodd" d="M8.75 1.5C8.33579 1.5 8 1.83579 8 2.25V8.75C8 9.16421 8.33579 9.5 8.75 9.5H15.25C15.6642 9.5 16 9.16421 16 8.75V2.25C16 1.83579 15.6642 1.5 15.25 1.5H8.75ZM6.5 2.25C6.5 1.00736 7.50736 0 8.75 0H15.25C16.4926 0 17.5 1.00736 17.5 2.25V8.75C17.5 9.99264 16.4926 11 15.25 11H8.75C7.50736 11 6.5 9.99264 6.5 8.75V2.25ZM11.4697 3.46967C11.7626 3.17678 12.2374 3.17678 12.5303 3.46967L14.5303 5.46967C14.8232 5.76256 14.8232 6.23744 14.5303 6.53033C14.2374 6.82322 13.7626 6.82322 13.4697 6.53033L12 5.06066L10.5303 6.53033C10.2374 6.82322 9.76256 6.82322 9.46967 6.53033C9.17678 6.23744 9.17678 5.76256 9.46967 5.46967L11.4697 3.46967ZM2.25 14.5C1.83579 14.5 1.5 14.8358 1.5 15.25V21.75C1.5 22.1642 1.83579 22.5 2.25 22.5H8.75C9.16421 22.5 9.5 22.1642 9.5 21.75V15.25C9.5 14.8358 9.16421 14.5 8.75 14.5H2.25ZM0 15.25C0 14.0074 1.00736 13 2.25 13H8.75C9.99264 13 11 14.0074 11 15.25V21.75C11 22.9926 9.99264 24 8.75 24H2.25C1.00736 24 0 22.9926 0 21.75V15.25ZM15.25 14.5C14.8358 14.5 14.5 14.8358 14.5 15.25V21.75C14.5 22.1642 14.8358 22.5 15.25 22.5H21.75C22.1642 22.5 22.5 22.1642 22.5 21.75V15.25C22.5 14.8358 22.1642 14.5 21.75 14.5H15.25ZM13 15.25C13 14.0074 14.0074 13 15.25 13H21.75C22.9926 13 24 14.0074 24 15.25V21.75C24 22.9926 22.9926 24 21.75 24H15.25C14.0074 24 13 22.9926 13 21.75V15.25ZM6.53033 15.9697C6.82322 16.2626 6.82322 16.7374 6.53033 17.0303L5.06066 18.5L6.53033 19.9697C6.82322 20.2626 6.82322 20.7374 6.53033 21.0303C6.23744 21.3232 5.76256 21.3232 5.46967 21.0303L3.46967 19.0303C3.17678 18.7374 3.17678 18.2626 3.46967 17.9697L5.46967 15.9697C5.76256 15.6768 6.23744 15.6768 6.53033 15.9697ZM17.4697 15.9697C17.7626 15.6768 18.2374 15.6768 18.5303 15.9697L20.5303 17.9697C20.8232 18.2626 20.8232 18.7374 20.5303 19.0303L18.5303 21.0303C18.2374 21.3232 17.7626 21.3232 17.4697 21.0303C17.1768 20.7374 17.1768 20.2626 17.4697 19.9697L18.9393 18.5L17.4697 17.0303C17.1768 16.7374 17.1768 16.2626 17.4697 15.9697Z" fill="black"/>
</svg>
