<svg width="24" height="24" viewBox="0 0 24 24" fill="none" xmlns="http://www.w3.org/2000/svg">
<path d="M6 20.5L4 18.5L6 16.5" stroke="black" stroke-width="1.5" stroke-linecap="round" stroke-linejoin="round"/>
<path d="M18 20.5L20 18.5L18 16.5" stroke="black" stroke-width="1.5" stroke-linecap="round" stroke-linejoin="round"/>
<path d="M14 6L12 4L10 6" stroke="black" stroke-width="1.5" stroke-linecap="round" stroke-linejoin="round"/>
<path d="M8.75 13.75H2.25C1.42157 13.75 0.75 14.4216 0.75 15.25V21.75C0.75 22.5784 1.42157 23.25 2.25 23.25H8.75C9.57843 23.25 10.25 22.5784 10.25 21.75V15.25C10.25 14.4216 9.57843 13.75 8.75 13.75Z" stroke="black" stroke-width="1.5" stroke-linecap="round" stroke-linejoin="round"/>
<path d="M21.75 13.75H15.25C14.4216 13.75 13.75 14.4216 13.75 15.25V21.75C13.75 22.5784 14.4216 23.25 15.25 23.25H21.75C22.5784 23.25 23.25 22.5784 23.25 21.75V15.25C23.25 14.4216 22.5784 13.75 21.75 13.75Z" stroke="black" stroke-width="1.5" stroke-linecap="round" stroke-linejoin="round"/>
<path d="M15.25 0.75H8.75C7.92157 0.75 7.25 1.42157 7.25 2.25V8.75C7.25 9.57843 7.92157 10.25 8.75 10.25H15.25C16.0784 10.25 16.75 9.57843 16.75 8.75V2.25C16.75 1.42157 16.0784 0.75 15.25 0.75Z" stroke="black" stroke-width="1.5" stroke-linecap="round" stroke-linejoin="round"/>
</svg>
