<svg width="24" height="24" fill="none" xmlns="http://www.w3.org/2000/svg"><g clip-path="url(#clip0)"><path fill-rule="evenodd" clip-rule="evenodd" d="M19.022 1.747a.762.762 0 011.077 0l2.154 2.157a.762.762 0 010 1.075l-.009.008a2.285 2.285 0 11-3.231-3.231l.01-.01zM19.561 0c-.604 0-1.183.239-1.611.664a3.807 3.807 0 00-.527 4.836l-7.02 7.019-3.23-3.232a.762.762 0 00-1.078 0l-4.31 4.307a6.096 6.096 0 008.621 8.62l4.309-4.309a.762.762 0 000-1.077l-1.616-1.615a.762.762 0 10-1.077 1.077l1.077 1.077-3.77 3.77a4.572 4.572 0 01-6.466-6.466l3.77-3.768 2.694 2.693-2.155 2.155a.762.762 0 101.077 1.077L18.5 6.577a3.808 3.808 0 004.836-.527 2.285 2.285 0 00-.005-3.222L21.177.669A2.286 2.286 0 0019.56 0z" fill="#000"/></g><defs><clipPath id="clip0"><path fill="#fff" d="M0 0h24v24H0z"/></clipPath></defs></svg>