<svg width="24" height="24" fill="none" xmlns="http://www.w3.org/2000/svg"><g clip-path="url(#clip0)" fill="#000"><path d="M21.017 23.62H.752a.75.75 0 010-1.502h20.266a.75.75 0 010 1.501z"/><path d="M9.758 23.62H.751A.76.76 0 010 22.868V8.206a1.241 1.241 0 011.251-1.22h8.007a1.24 1.24 0 011.25 1.21V22.87a.76.76 0 01-.75.75zm-8.257-1.502h7.507V8.507H1.5v13.611z"/><path d="M7.506 8.507H3.003a.76.76 0 01-.751-.751V5.504a1.461 1.461 0 011.551-1.401h3.003a1.431 1.431 0 011.5 1.311v2.322a.76.76 0 01-.8.77zM3.753 6.985h3.003v-1.38H3.753v1.38z"/><path d="M5.254 5.604a.76.76 0 01-.75-.75V1.25a.75.75 0 011.501 0v3.603a.76.76 0 01-.75.75zM6.756 11.369H3.753a.75.75 0 110-1.501h3.003a.75.75 0 110 1.501zM6.756 14.252H3.753a.75.75 0 010-1.502h3.003a.75.75 0 010 1.502zM6.756 17.134H3.753a.75.75 0 010-1.501h3.003a.75.75 0 010 1.5zM6.756 20.016H3.753a.75.75 0 010-1.501h3.003a.75.75 0 010 1.501zM18.746 12.09a.76.76 0 01-.751-.73 5.084 5.084 0 00-5.094-4.855.75.75 0 010-1.501 6.585 6.585 0 016.565 6.335.739.739 0 01-.73.77l.01-.02zM23.25 10.939a.751.751 0 01-.741-.71 8.788 8.788 0 00-8.627-8.218.74.74 0 01-.711-.78.75.75 0 01.78-.731 10.259 10.259 0 0110.069 9.648.74.74 0 01-.71.79h-.06zM18.015 23.62h-5.254a.76.76 0 01-.751-.751v-7.927a1.491 1.491 0 011.501-1.431h3.753a1.491 1.491 0 011.502 1.471v7.927a.76.76 0 01-.751.71zm-4.504-1.502h3.753v-7.146h-3.753v7.146z"/></g><defs><clipPath id="clip0"><path fill="#fff" transform="translate(0 .5)" d="M0 0h24v23.119H0z"/></clipPath></defs></svg>