<svg width="24" height="24" fill="none" xmlns="http://www.w3.org/2000/svg"><path d="M16.5 24a.75.75 0 01-.75-.75V21h-3v2.25a.75.75 0 01-1.5 0V21H6.313c-.401 0-.777-.156-1.06-.439a1.489 1.489 0 01-.352-1.563l3.214-9A1.5 1.5 0 019.527 9h9.114c.602 0 1.143.357 1.379.911l1.707 3.983c.021.039.039.08.053.123l2.098 4.893A1.502 1.502 0 0122.5 21h-5.25v2.25a.75.75 0 01-.75.75zM6.314 19.502L13.5 19.5V15H7.922l-1.608 4.502zM22.5 19.5L20.57 15H15v4.5h7.5zm-2.573-6l-1.286-3H15v3h4.927zm-6.427 0v-3H9.529l-1.071 3H13.5z" fill="#000"/><path d="M4.9 12.001a.75.75 0 01-.557-.248 5.215 5.215 0 01-1.342-3.788 5.213 5.213 0 011.73-3.627 5.236 5.236 0 013.51-1.346c1.488 0 2.911.632 3.904 1.734.249.276.468.579.652.901.1.174.125.376.073.569a.749.749 0 01-1.375.176 3.758 3.758 0 00-5.762-.92 3.724 3.724 0 00-1.235 2.591c-.052 1 .288 1.961.958 2.705a.752.752 0 01-.556 1.253z" fill="#000"/><path d="M8.25 2.25a.75.75 0 01-.75-.75V.75a.75.75 0 011.5 0v.75a.75.75 0 01-.75.75zM13.5 4.5a.743.743 0 01-.53-.22.743.743 0 01-.22-.53c0-.2.078-.389.22-.53l.75-.75a.744.744 0 011.06 0c.142.141.22.33.22.53s-.078.389-.22.53l-.75.75a.744.744 0 01-.53.22zM3 4.5a.743.743 0 01-.53-.22l-.75-.75A.743.743 0 011.5 3c0-.2.078-.389.22-.53a.743.743 0 01.53-.22c.2 0 .389.078.53.22l.75.75c.142.141.22.33.22.53s-.078.389-.22.53A.744.744 0 013 4.5zM.75 9a.75.75 0 010-1.5h.75a.75.75 0 010 1.5H.75zM2.25 14.25a.752.752 0 01-.53-1.281l.75-.75A.744.744 0 013 12a.752.752 0 01.53 1.281l-.75.75a.748.748 0 01-.53.219z" fill="#29D305"/></svg>