<svg width="24" height="24" viewBox="0 0 24 24" fill="none" xmlns="http://www.w3.org/2000/svg">
<path fill-rule="evenodd" clip-rule="evenodd" d="M7.5 1.5C7.5 1.914 7.836 2.25 8.25 2.25C8.663 2.25 9 1.914 9 1.5V0.75C9 0.336 8.663 0 8.25 0C7.836 0 7.5 0.336 7.5 0.75V1.5ZM4.90002 12.0009C4.68802 12.0009 4.48502 11.9109 4.34302 11.7529C3.40402 10.7109 2.92802 9.36594 3.00102 7.96494C3.07402 6.56394 3.68902 5.27594 4.73102 4.33794C5.69502 3.46994 6.94102 2.99194 8.24102 2.99194C9.72902 2.99194 11.152 3.62394 12.145 4.72594C12.394 5.00194 12.613 5.30494 12.797 5.62694C12.897 5.80094 12.922 6.00294 12.87 6.19594C12.818 6.38894 12.693 6.55094 12.519 6.64994C12.406 6.71494 12.277 6.74894 12.146 6.74894C11.878 6.74894 11.628 6.60494 11.495 6.37194C11.364 6.14294 11.207 5.92594 11.029 5.72894C10.32 4.94194 9.30402 4.48994 8.24002 4.48994C7.31202 4.48994 6.42102 4.83094 5.73302 5.45194C4.98902 6.12194 4.55002 7.04194 4.49802 8.04294C4.44602 9.04294 4.78602 10.0039 5.45602 10.7479C5.73202 11.0549 5.70802 11.5299 5.40102 11.8069C5.26402 11.9319 5.08502 12.0009 4.90002 12.0009ZM16.5 24C16.086 24 15.75 23.664 15.75 23.25V21H12.75V23.25C12.75 23.664 12.414 24 12 24C11.586 24 11.25 23.664 11.25 23.25V21H6.31303C5.91203 21 5.53603 20.844 5.25303 20.561C4.97003 20.278 4.81403 19.902 4.81403 19.501C4.81403 19.329 4.84303 19.159 4.90103 18.998L8.11503 9.998C8.32503 9.402 8.89303 9 9.52703 9H18.641C19.243 9 19.784 9.357 20.02 9.911L21.727 13.894C21.748 13.933 21.766 13.974 21.78 14.017L23.878 18.91C24.203 19.671 23.849 20.554 23.089 20.879C22.901 20.959 22.703 21 22.5 21H17.25V23.25C17.25 23.664 16.913 24 16.5 24ZM6.31403 19.502L13.5 19.5V15H7.92203L6.31403 19.502ZM22.5 19.5L20.57 15H15V19.5H22.5ZM19.927 13.5L18.641 10.5H15V13.5H19.927ZM13.5 13.5V10.5H9.52903L8.45803 13.5H13.5ZM13.5 4.5C13.3 4.5 13.111 4.422 12.97 4.28C12.828 4.139 12.75 3.95 12.75 3.75C12.75 3.55 12.828 3.361 12.97 3.22L13.72 2.47C13.862 2.328 14.05 2.25 14.25 2.25C14.45 2.25 14.639 2.328 14.78 2.47C14.922 2.611 15 2.8 15 3C15 3.2 14.922 3.389 14.78 3.53L14.03 4.28C13.888 4.422 13.7 4.5 13.5 4.5ZM2.47 4.28C2.611 4.422 2.8 4.5 3 4.5C3.2 4.5 3.388 4.422 3.53 4.28C3.672 4.139 3.75 3.95 3.75 3.75C3.75 3.55 3.672 3.361 3.53 3.22L2.78 2.47C2.639 2.328 2.45 2.25 2.25 2.25C2.05 2.25 1.861 2.328 1.72 2.47C1.578 2.611 1.5 2.8 1.5 3C1.5 3.2 1.578 3.389 1.72 3.53L2.47 4.28ZM0.75 9C0.336 9 0 8.664 0 8.25C0 7.836 0.336 7.5 0.75 7.5H1.5C1.914 7.5 2.25 7.836 2.25 8.25C2.25 8.664 1.913 9 1.5 9H0.75ZM1.71998 14.03C1.86098 14.172 2.04998 14.25 2.24998 14.25C2.44998 14.25 2.63798 14.172 2.77998 14.031L3.52998 13.281C3.82198 12.988 3.82198 12.512 3.52998 12.22C3.38898 12.078 3.19998 12 2.99998 12C2.79898 12 2.61098 12.078 2.46998 12.219L1.71998 12.969C1.42798 13.262 1.42798 13.738 1.71998 14.03Z" fill="black"/>
</svg>
