<svg width="24" height="24" viewBox="0 0 24 24" fill="none" xmlns="http://www.w3.org/2000/svg">
<path d="M16.5 24C16.086 24 15.75 23.664 15.75 23.25V21H12.75V23.25C12.75 23.664 12.414 24 12 24C11.586 24 11.25 23.664 11.25 23.25V21H6.313C5.912 21 5.536 20.844 5.253 20.561C4.97 20.278 4.814 19.902 4.814 19.501C4.814 19.329 4.843 19.159 4.901 18.998L8.115 9.998C8.325 9.402 8.893 9 9.527 9H18.641C19.243 9 19.784 9.357 20.02 9.911L21.727 13.894C21.748 13.933 21.766 13.974 21.78 14.017L23.878 18.91C24.203 19.671 23.849 20.554 23.089 20.879C22.901 20.959 22.703 21 22.5 21H17.25V23.25C17.25 23.664 16.913 24 16.5 24ZM6.314 19.502L13.5 19.5V15H7.922L6.314 19.502ZM22.5 19.5L20.57 15H15V19.5H22.5ZM19.927 13.5L18.641 10.5H15V13.5H19.927ZM13.5 13.5V10.5H9.529L8.458 13.5H13.5Z" fill="black"/>
<path d="M4.9 12.0009C4.688 12.0009 4.485 11.9109 4.343 11.7529C3.404 10.7109 2.928 9.36594 3.001 7.96494C3.074 6.56394 3.689 5.27594 4.731 4.33794C5.695 3.46994 6.941 2.99194 8.241 2.99194C9.729 2.99194 11.152 3.62394 12.145 4.72594C12.394 5.00194 12.613 5.30494 12.797 5.62694C12.897 5.80094 12.922 6.00294 12.87 6.19594C12.818 6.38894 12.693 6.55094 12.519 6.64994C12.406 6.71494 12.277 6.74894 12.146 6.74894C11.878 6.74894 11.628 6.60494 11.495 6.37194C11.364 6.14294 11.207 5.92594 11.029 5.72894C10.32 4.94194 9.304 4.48994 8.24 4.48994C7.312 4.48994 6.421 4.83094 5.733 5.45194C4.989 6.12194 4.55 7.04194 4.498 8.04294C4.446 9.04294 4.786 10.0039 5.456 10.7479C5.732 11.0549 5.708 11.5299 5.401 11.8069C5.264 11.9319 5.085 12.0009 4.9 12.0009Z" fill="black"/>
<path d="M8.25 2.25C7.836 2.25 7.5 1.914 7.5 1.5V0.75C7.5 0.336 7.836 0 8.25 0C8.663 0 9 0.336 9 0.75V1.5C9 1.914 8.663 2.25 8.25 2.25Z" fill="#29D305"/>
<path d="M13.5 4.5C13.3 4.5 13.111 4.422 12.97 4.28C12.828 4.139 12.75 3.95 12.75 3.75C12.75 3.55 12.828 3.361 12.97 3.22L13.72 2.47C13.862 2.328 14.05 2.25 14.25 2.25C14.45 2.25 14.639 2.328 14.78 2.47C14.922 2.611 15 2.8 15 3C15 3.2 14.922 3.389 14.78 3.53L14.03 4.28C13.888 4.422 13.7 4.5 13.5 4.5Z" fill="#29D305"/>
<path d="M3 4.5C2.8 4.5 2.611 4.422 2.47 4.28L1.72 3.53C1.578 3.389 1.5 3.2 1.5 3C1.5 2.8 1.578 2.611 1.72 2.47C1.861 2.328 2.05 2.25 2.25 2.25C2.45 2.25 2.639 2.328 2.78 2.47L3.53 3.22C3.672 3.361 3.75 3.55 3.75 3.75C3.75 3.95 3.672 4.139 3.53 4.28C3.388 4.422 3.2 4.5 3 4.5Z" fill="#29D305"/>
<path d="M0.75 9C0.336 9 0 8.664 0 8.25C0 7.836 0.336 7.5 0.75 7.5H1.5C1.914 7.5 2.25 7.836 2.25 8.25C2.25 8.664 1.913 9 1.5 9H0.75Z" fill="#29D305"/>
<path d="M2.25001 14.25C2.05001 14.25 1.86101 14.172 1.72001 14.03C1.42801 13.738 1.42801 13.262 1.72001 12.969L2.47001 12.219C2.61101 12.078 2.79901 12 3.00001 12C3.20001 12 3.38901 12.078 3.53001 12.22C3.82201 12.512 3.82201 12.988 3.53001 13.281L2.78001 14.031C2.63801 14.172 2.45001 14.25 2.25001 14.25Z" fill="#29D305"/>
</svg>
