<svg width="24" height="24" viewBox="0 0 24 24" fill="none" xmlns="http://www.w3.org/2000/svg">
<path fill-rule="evenodd" clip-rule="evenodd" d="M11.6004 23.9209C11.7237 23.9719 11.8588 24 12.0005 24C12.2816 24 12.5369 23.8893 12.725 23.709C12.7311 23.7033 12.7371 23.6974 12.743 23.6914L17.5032 18.9313C17.9123 18.5221 17.9123 17.8588 17.5032 17.4497C17.094 17.0406 16.4307 17.0406 16.0216 17.4497L13.0481 20.4232L13.0481 1.04762C13.0481 0.469036 12.5791 0 12.0005 0C11.4219 0 10.9529 0.469036 10.9529 1.04762L10.9529 20.4232L7.97935 17.4497C7.57023 17.0406 6.90691 17.0406 6.49779 17.4497C6.08867 17.8588 6.08867 18.5221 6.49779 18.9313L11.2597 23.6932C11.3604 23.7938 11.4765 23.8698 11.6004 23.9209Z" fill="black"/>
</svg>
