<svg width="24" height="24" viewBox="0 0 24 24" fill="none" xmlns="http://www.w3.org/2000/svg">
<path d="M17.0333 23.465V17.6776L15.8066 18.2019V17.2423L17.429 16.5399H18.1117V23.465H17.0333Z" fill="black"/>
<path d="M20.2385 23.554C20.0472 23.554 19.8823 23.4848 19.7438 23.3463C19.6119 23.2012 19.5459 23.033 19.5459 22.8417C19.5459 22.6373 19.6119 22.4658 19.7438 22.3273C19.8823 22.1888 20.0472 22.1196 20.2385 22.1196C20.4297 22.1196 20.5913 22.1888 20.7232 22.3273C20.8617 22.4658 20.931 22.6373 20.931 22.8417C20.931 23.033 20.8617 23.2012 20.7232 23.3463C20.5913 23.4848 20.4297 23.554 20.2385 23.554Z" fill="black"/>
<path fill-rule="evenodd" clip-rule="evenodd" d="M9.73679 18.9798L5.44414 23.2724C5.18072 23.5358 4.75364 23.5358 4.49022 23.2724L0.197564 18.9798C-0.0658547 18.7164 -0.0658547 18.2893 0.197564 18.0258C0.460983 17.7624 0.888068 17.7624 1.15149 18.0258L4.29265 21.167V1.08346C4.29265 0.710931 4.59465 0.408936 4.96718 0.408936C5.33971 0.408936 5.6417 0.710931 5.6417 1.08346V21.167L8.78287 18.0258C9.04629 17.7624 9.47337 17.7624 9.73679 18.0258C10.0002 18.2893 10.0002 18.7164 9.73679 18.9798Z" fill="black"/>
<path d="M15.2773 7.55909C14.7629 7.55909 14.2847 7.47005 13.8428 7.29198C13.4009 7.10731 13.025 6.85009 12.715 6.52032L13.4372 5.82781C13.7142 6.11801 13.9912 6.32246 14.2682 6.44118C14.5452 6.5533 14.875 6.60936 15.2575 6.60936C15.5609 6.60936 15.8247 6.56319 16.049 6.47086C16.2798 6.37193 16.4579 6.23672 16.5832 6.06524C16.7085 5.89376 16.7712 5.69261 16.7712 5.46177C16.7712 5.25731 16.7184 5.07594 16.6129 4.91765C16.5073 4.75936 16.3622 4.63735 16.1776 4.55161C15.9929 4.45927 15.7786 4.41311 15.5345 4.41311H14.6837V3.50295H15.4455C15.7819 3.50295 16.049 3.41061 16.2468 3.22594C16.4513 3.04127 16.5535 2.79065 16.5535 2.47407C16.5535 2.26962 16.4942 2.08494 16.3754 1.92006C16.2633 1.74858 16.1083 1.61667 15.9105 1.52434C15.7126 1.42541 15.4884 1.37594 15.2377 1.37594C14.8882 1.37594 14.5815 1.4386 14.3177 1.56391C14.0605 1.68263 13.7934 1.89368 13.5164 2.19707L12.7843 1.51445C13.1008 1.1583 13.4735 0.887887 13.9022 0.703217C14.3375 0.511952 14.7926 0.416319 15.2674 0.416319C15.7291 0.416319 16.138 0.498761 16.4942 0.663645C16.8503 0.828529 17.1273 1.05937 17.3252 1.35616C17.5296 1.64635 17.6319 1.97942 17.6319 2.35535C17.6319 2.72469 17.5098 3.05446 17.2658 3.34466C17.0284 3.62826 16.7151 3.82612 16.326 3.93824C16.7876 4.03717 17.157 4.23173 17.434 4.52193C17.7176 4.80553 17.8594 5.14189 17.8594 5.53102C17.8594 5.92015 17.7473 6.2697 17.523 6.57968C17.2988 6.88307 16.9921 7.1238 16.603 7.30187C16.2204 7.47335 15.7786 7.55909 15.2773 7.55909Z" fill="black"/>
<path d="M20.1024 7.45027V1.66284L18.8756 2.18717V1.22755L20.4981 0.525142H21.1807V7.45027H20.1024Z" fill="black"/>
<path d="M23.3075 7.53931C23.1162 7.53931 22.9513 7.47006 22.8128 7.33155C22.6809 7.18645 22.615 7.01827 22.615 6.82701C22.615 6.62255 22.6809 6.45107 22.8128 6.31257C22.9513 6.17407 23.1162 6.10482 23.3075 6.10482C23.4988 6.10482 23.6603 6.17407 23.7922 6.31257C23.9307 6.45107 24 6.62255 24 6.82701C24 7.01827 23.9307 7.18645 23.7922 7.33155C23.6603 7.47006 23.4988 7.53931 23.3075 7.53931Z" fill="black"/>
</svg>
