<svg width="24" height="24" viewBox="0 0 24 24" fill="none" xmlns="http://www.w3.org/2000/svg">
<path fill-rule="evenodd" clip-rule="evenodd" d="M17.4488 0.306841C17.8579 -0.10228 18.5212 -0.10228 18.9303 0.306841L23.6922 5.06875C24.1013 5.47787 24.1013 6.14118 23.6922 6.5503C23.2831 6.95942 22.6198 6.95942 22.2107 6.5503L18.1895 2.52918L14.1684 6.5503C13.7593 6.95942 13.096 6.95942 12.6868 6.5503C12.2777 6.14118 12.2777 5.47787 12.6868 5.06875L17.4488 0.306841Z" fill="black"/>
<path fill-rule="evenodd" clip-rule="evenodd" d="M18.1895 0C18.7681 0 19.2371 0.469035 19.2371 1.04762V22.9524C19.2371 23.531 18.7681 24 18.1895 24C17.6109 24 17.1419 23.531 17.1419 22.9524V1.04762C17.1419 0.469035 17.6109 0 18.1895 0Z" fill="black"/>
<path fill-rule="evenodd" clip-rule="evenodd" d="M6.55027 23.6932C6.14115 24.1023 5.47784 24.1023 5.06872 23.6932L0.306811 18.9313C-0.10231 18.5221 -0.10231 17.8588 0.306811 17.4497C0.715933 17.0406 1.37925 17.0406 1.78837 17.4497L5.8095 21.4708L9.83062 17.4497C10.2397 17.0406 10.9031 17.0406 11.3122 17.4497C11.7213 17.8588 11.7213 18.5221 11.3122 18.9313L6.55027 23.6932Z" fill="black"/>
<path fill-rule="evenodd" clip-rule="evenodd" d="M5.8095 24C5.23091 24 4.76188 23.531 4.76188 22.9524L4.76188 1.04762C4.76188 0.469036 5.23092 -1.42167e-07 5.8095 -9.15858e-08C6.38808 -4.10043e-08 6.85712 0.469036 6.85712 1.04762L6.85712 22.9524C6.85712 23.531 6.38808 24 5.8095 24Z" fill="black"/>
</svg>
