<svg width="24" height="24" viewBox="0 0 24 24" fill="none" xmlns="http://www.w3.org/2000/svg">
<path d="M13.0682 23.4238V22.6913L15.729 19.9099C15.8897 19.743 16.0134 19.5916 16.0999 19.4556C16.1926 19.3196 16.2575 19.1898 16.2946 19.0662C16.3379 18.9364 16.3595 18.8035 16.3595 18.6675C16.3595 18.3956 16.2482 18.17 16.0257 17.9907C15.8032 17.8115 15.522 17.7219 15.182 17.7219C14.8853 17.7219 14.6072 17.7806 14.3476 17.898C14.088 18.0154 13.8037 18.2194 13.4946 18.5099L12.9198 17.8146C13.2783 17.487 13.6461 17.2428 14.0231 17.0821C14.4001 16.9152 14.7926 16.8318 15.2006 16.8318C15.6271 16.8318 16.001 16.9091 16.3224 17.0636C16.6438 17.2119 16.8941 17.419 17.0734 17.6848C17.2526 17.9505 17.3423 18.2596 17.3423 18.6119C17.3423 18.8221 17.3145 19.0198 17.2588 19.2053C17.2032 19.3907 17.1074 19.5792 16.9714 19.7708C16.8416 19.9624 16.6593 20.1819 16.4244 20.4291L14.3569 22.5615L17.4628 22.5522V23.4238H13.0682Z" fill="black"/>
<path d="M20.7773 23.5257C20.2951 23.5257 19.847 23.4423 19.4329 23.2754C19.0188 23.1023 18.6665 22.8613 18.376 22.5522L19.0528 21.9032C19.3124 22.1752 19.572 22.3668 19.8316 22.4781C20.0912 22.5831 20.4002 22.6357 20.7587 22.6357C21.043 22.6357 21.2903 22.5924 21.5004 22.5059C21.7168 22.4132 21.8836 22.2865 22.0011 22.1258C22.1185 21.9651 22.1772 21.7765 22.1772 21.5602C22.1772 21.3686 22.1278 21.1986 22.0289 21.0503C21.93 20.9019 21.794 20.7876 21.621 20.7072C21.4479 20.6207 21.247 20.5774 21.0183 20.5774H20.221V19.7245H20.9349C21.2501 19.7245 21.5004 19.6379 21.6859 19.4649C21.8775 19.2918 21.9733 19.0569 21.9733 18.7602C21.9733 18.5686 21.9176 18.3956 21.8064 18.2411C21.7013 18.0803 21.5561 17.9567 21.3706 17.8702C21.1852 17.7775 20.975 17.7311 20.7402 17.7311C20.4126 17.7311 20.1252 17.7898 19.8779 17.9073C19.6369 18.0185 19.3866 18.2163 19.127 18.5006L18.4409 17.8609C18.7376 17.5272 19.0868 17.2737 19.4885 17.1007C19.8965 16.9214 20.323 16.8318 20.768 16.8318C21.2007 16.8318 21.5839 16.9091 21.9176 17.0636C22.2514 17.2181 22.511 17.4344 22.6964 17.7126C22.888 17.9845 22.9838 18.2967 22.9838 18.649C22.9838 18.9951 22.8695 19.3042 22.6408 19.5761C22.4183 19.8419 22.1247 20.0273 21.76 20.1324C22.1927 20.2251 22.5388 20.4075 22.7984 20.6794C23.0642 20.9452 23.1971 21.2604 23.1971 21.6251C23.1971 21.9898 23.092 22.3174 22.8819 22.6079C22.6717 22.8922 22.3843 23.1178 22.0196 23.2847C21.6611 23.4454 21.247 23.5257 20.7773 23.5257Z" fill="black"/>
<path fill-rule="evenodd" clip-rule="evenodd" d="M9.12495 19.2705L5.10204 23.2934C4.85518 23.5403 4.45493 23.5403 4.20806 23.2934L0.18515 19.2705C-0.0617165 19.0236 -0.0617165 18.6234 0.18515 18.3765C0.432016 18.1296 0.832264 18.1296 1.07913 18.3765L4.02291 21.3203V1.16309C4.02291 0.813965 4.30593 0.530946 4.65505 0.530946C5.00417 0.530946 5.28719 0.813965 5.28719 1.16309V21.3203L8.23097 18.3765C8.47784 18.1296 8.87809 18.1296 9.12495 18.3765C9.37182 18.6234 9.37182 19.0236 9.12495 19.2705Z" fill="black"/>
<path d="M14.9321 7.15635C14.4067 7.15635 13.9432 7.01728 13.5414 6.73913C13.1458 6.45481 12.8337 6.06232 12.605 5.56167C12.3825 5.05483 12.2712 4.47383 12.2712 3.81865C12.2712 3.15111 12.3825 2.56701 12.605 2.06636C12.8337 1.5657 13.1458 1.1763 13.5414 0.898163C13.9432 0.613841 14.4067 0.47168 14.9321 0.47168C15.4575 0.47168 15.918 0.613841 16.3135 0.898163C16.7153 1.1763 17.0274 1.5657 17.2499 2.06636C17.4725 2.56701 17.5837 3.15111 17.5837 3.81865C17.5837 4.47383 17.4725 5.05483 17.2499 5.56167C17.0274 6.06232 16.7153 6.45481 16.3135 6.73913C15.918 7.01728 15.4575 7.15635 14.9321 7.15635ZM14.9321 6.25702C15.2659 6.25702 15.5533 6.15813 15.7943 5.96034C16.0416 5.75637 16.2332 5.47204 16.3692 5.10737C16.5051 4.7427 16.5731 4.31312 16.5731 3.81865C16.5731 3.31799 16.5051 2.88533 16.3692 2.52065C16.2332 2.15598 16.0416 1.87475 15.7943 1.67696C15.5533 1.47299 15.2659 1.371 14.9321 1.371C14.5983 1.371 14.3078 1.47299 14.0606 1.67696C13.8195 1.87475 13.6279 2.15598 13.4858 2.52065C13.3498 2.88533 13.2818 3.31799 13.2818 3.81865C13.2818 4.31312 13.3498 4.7427 13.4858 5.10737C13.6279 5.47204 13.8195 5.75637 14.0606 5.96034C14.3078 6.15813 14.5983 6.25702 14.9321 6.25702Z" fill="black"/>
<path d="M21.348 7.15635C20.8226 7.15635 20.359 7.01728 19.9573 6.73913C19.5617 6.45481 19.2496 6.06232 19.0209 5.56167C18.7984 5.05483 18.6871 4.47383 18.6871 3.81865C18.6871 3.15111 18.7984 2.56701 19.0209 2.06636C19.2496 1.5657 19.5617 1.1763 19.9573 0.898163C20.359 0.613841 20.8226 0.47168 21.348 0.47168C21.8734 0.47168 22.3338 0.613841 22.7294 0.898163C23.1312 1.1763 23.4433 1.5657 23.6658 2.06636C23.8883 2.56701 23.9996 3.15111 23.9996 3.81865C23.9996 4.47383 23.8883 5.05483 23.6658 5.56167C23.4433 6.06232 23.1312 6.45481 22.7294 6.73913C22.3338 7.01728 21.8734 7.15635 21.348 7.15635ZM21.348 6.25702C21.6818 6.25702 21.9692 6.15813 22.2102 5.96034C22.4575 5.75637 22.6491 5.47204 22.7851 5.10737C22.921 4.7427 22.989 4.31312 22.989 3.81865C22.989 3.31799 22.921 2.88533 22.7851 2.52065C22.6491 2.15598 22.4575 1.87475 22.2102 1.67696C21.9692 1.47299 21.6818 1.371 21.348 1.371C21.0142 1.371 20.7237 1.47299 20.4765 1.67696C20.2354 1.87475 20.0438 2.15598 19.9017 2.52065C19.7657 2.88533 19.6977 3.31799 19.6977 3.81865C19.6977 4.31312 19.7657 4.7427 19.9017 5.10737C20.0438 5.47204 20.2354 5.75637 20.4765 5.96034C20.7237 6.15813 21.0142 6.25702 21.348 6.25702Z" fill="black"/>
</svg>
