<svg width="24" height="24" viewBox="0 0 24 24" fill="none" xmlns="http://www.w3.org/2000/svg">
<path fill-rule="evenodd" clip-rule="evenodd" d="M11.5995 23.9205C11.723 23.9717 11.8584 24 12.0005 24C12.2827 24 12.5389 23.8884 12.7273 23.7069C12.7325 23.7018 12.7377 23.6967 12.7429 23.6916L17.5032 18.9313C17.9123 18.5221 17.9123 17.8588 17.5032 17.4497C17.094 17.0406 16.4307 17.0406 16.0216 17.4497L13.0481 20.4232L13.0481 1.04762C13.0481 0.469036 12.5791 0 12.0005 0C11.4219 0 10.9529 0.469036 10.9529 1.04762L10.9529 20.4232L7.97935 17.4497C7.57023 17.0406 6.90691 17.0406 6.49779 17.4497C6.08867 17.8588 6.08867 18.5221 6.49779 18.9313L11.2597 23.6932C11.3601 23.7936 11.4759 23.8694 11.5995 23.9205Z" fill="black"/>
</svg>
