<svg width="24" height="24" fill="none" xmlns="http://www.w3.org/2000/svg"><path fill-rule="evenodd" clip-rule="evenodd" d="M17.788.08c-.123.05-.239.126-.34.227l-4.761 4.762a1.048 1.048 0 001.481 1.481l2.974-2.973v19.375a1.048 1.048 0 102.095 0V3.577l2.974 2.973a1.048 1.048 0 101.481-1.481L18.93.307A1.044 1.044 0 0018.19 0l-.402.08zM5.068 23.692L.307 18.93a1.048 1.048 0 011.481-1.481l2.974 2.973V1.048a1.048 1.048 0 112.095 0v19.375l2.974-2.973a1.048 1.048 0 011.481 1.481L6.55 23.693a1.045 1.045 0 01-1.479.002" fill="#000"/></svg>