<svg width="24" height="24" viewBox="0 0 24 24" fill="none" xmlns="http://www.w3.org/2000/svg">
<path fill-rule="evenodd" clip-rule="evenodd" d="M12.5652 18.8507L8.12882 23.287C7.85658 23.5593 7.4152 23.5593 7.14296 23.287L2.70662 18.8507C2.43438 18.5785 2.43438 18.1371 2.70662 17.8648C2.97886 17.5926 3.42024 17.5926 3.69247 17.8648L6.93879 21.1112V1.13973C6.93879 0.754731 7.25089 0.442627 7.63589 0.442627C8.02089 0.442627 8.333 0.754731 8.333 1.13973V21.1112L11.5793 17.8648C11.8515 17.5926 12.2929 17.5926 12.5652 17.8648C12.8374 18.1371 12.8374 18.5785 12.5652 18.8507Z" fill="black"/>
<path d="M18.5297 0.511894C19.1159 0.511894 19.6305 0.661848 20.0736 0.961758C20.5166 1.25485 20.8642 1.66382 21.1164 2.18866C21.3686 2.7135 21.4947 3.32014 21.4947 4.00857C21.4947 4.78561 21.355 5.46722 21.0755 6.05341C20.7961 6.63278 20.4076 7.08264 19.91 7.403C19.4124 7.72336 18.8296 7.88354 18.1616 7.88354C17.8208 7.88354 17.4766 7.82901 17.129 7.71995C16.7882 7.61089 16.4985 7.46094 16.2599 7.27008L16.8734 6.45215C17.0779 6.59529 17.2926 6.70434 17.5175 6.77932C17.7493 6.84748 17.9947 6.88156 18.2537 6.88156C18.6967 6.88156 19.075 6.7691 19.3886 6.54417C19.7021 6.31923 19.9441 5.99206 20.1145 5.56264C20.2849 5.13323 20.3735 4.62202 20.3803 4.02902C20.1349 4.36301 19.8384 4.62202 19.4908 4.80605C19.1432 4.99009 18.7819 5.08211 18.407 5.08211C17.9367 5.08211 17.5209 4.98668 17.1597 4.79583C16.7984 4.60498 16.5156 4.34597 16.3111 4.01879C16.1066 3.6848 16.0043 3.3031 16.0043 2.87368C16.0043 2.417 16.1134 2.01144 16.3315 1.657C16.5496 1.30256 16.8495 1.0231 17.2312 0.818619C17.6198 0.614135 18.0526 0.511894 18.5297 0.511894ZM18.5808 4.1926C18.9148 4.1926 19.2318 4.11763 19.5317 3.96767C19.8384 3.8109 20.1042 3.5996 20.3292 3.33377C20.2678 2.95888 20.1554 2.63171 19.9918 2.35225C19.835 2.07279 19.6373 1.85808 19.3988 1.70812C19.1602 1.55135 18.8842 1.47297 18.5706 1.47297C18.2912 1.47297 18.039 1.53431 17.814 1.657C17.5959 1.77288 17.4221 1.93646 17.2926 2.14776C17.1699 2.35225 17.1086 2.5874 17.1086 2.85323C17.1086 3.11225 17.1699 3.34399 17.2926 3.54848C17.4221 3.75296 17.5959 3.91314 17.814 4.02902C18.039 4.13807 18.2946 4.1926 18.5808 4.1926Z" fill="black"/>
<path d="M18.5448 23.4973C18.0194 23.4973 17.5558 23.3582 17.154 23.0801C16.7585 22.7958 16.4463 22.4033 16.2176 21.9026C15.9951 21.3958 15.8839 20.8148 15.8839 20.1596C15.8839 19.4921 15.9951 18.908 16.2176 18.4073C16.4463 17.9067 16.7585 17.5173 17.154 17.2391C17.5558 16.9548 18.0194 16.8126 18.5448 16.8126C19.0701 16.8126 19.5306 16.9548 19.9262 17.2391C20.3279 17.5173 20.6401 17.9067 20.8626 18.4073C21.0851 18.908 21.1964 19.4921 21.1964 20.1596C21.1964 20.8148 21.0851 21.3958 20.8626 21.9026C20.6401 22.4033 20.3279 22.7958 19.9262 23.0801C19.5306 23.3582 19.0701 23.4973 18.5448 23.4973ZM18.5448 22.598C18.8785 22.598 19.1659 22.4991 19.407 22.3013C19.6542 22.0973 19.8458 21.813 19.9818 21.4483C20.1178 21.0836 20.1858 20.6541 20.1858 20.1596C20.1858 19.6589 20.1178 19.2263 19.9818 18.8616C19.8458 18.4969 19.6542 18.2157 19.407 18.0179C19.1659 17.8139 18.8785 17.712 18.5448 17.712C18.211 17.712 17.9205 17.8139 17.6732 18.0179C17.4322 18.2157 17.2406 18.4969 17.0984 18.8616C16.9624 19.2263 16.8944 19.6589 16.8944 20.1596C16.8944 20.6541 16.9624 21.0836 17.0984 21.4483C17.2406 21.813 17.4322 22.0973 17.6732 22.3013C17.9205 22.4991 18.211 22.598 18.5448 22.598Z" fill="black"/>
</svg>
