<svg width="24" height="24" viewBox="0 0 24 24" fill="none" xmlns="http://www.w3.org/2000/svg">
<path d="M15.4004 23.4726L18.2506 16.398H19.6913L22.5 23.4726H21.163L20.4168 21.4917H17.4422L16.696 23.4726H15.4004ZM17.805 20.5417H20.0747L18.9347 17.5502L17.805 20.5417Z" fill="black"/>
<path fill-rule="evenodd" clip-rule="evenodd" d="M11.7006 18.8881L7.20349 23.2733C6.92753 23.5424 6.4801 23.5424 6.20413 23.2733L1.70698 18.8881C1.43101 18.619 1.43101 18.1827 1.70698 17.9136C1.98294 17.6445 2.43038 17.6445 2.70634 17.9136L5.99715 21.1225V1.21156C5.99715 0.830994 6.31353 0.522484 6.70381 0.522484C7.09409 0.522484 7.41047 0.830994 7.41047 1.21156V21.1225L10.7013 17.9136C10.9772 17.6445 11.4247 17.6445 11.7006 17.9136C11.9766 18.1827 11.9766 18.619 11.7006 18.8881Z" fill="black"/>
<path d="M15.4004 10.7294L18.2506 3.65483H19.6913L22.5 10.7294H21.163L20.4168 8.74849H17.4422L16.696 10.7294H15.4004ZM17.805 7.79848H20.0747L18.9347 4.80697L17.805 7.79848ZM18.9658 2.87663C18.7377 2.87663 18.5305 2.82273 18.3439 2.71493C18.1573 2.60713 18.0088 2.46564 17.8982 2.29046C17.7877 2.10854 17.7324 1.90978 17.7324 1.69418C17.7324 1.47183 17.7877 1.27307 17.8982 1.09789C18.0088 0.922715 18.1573 0.781225 18.3439 0.673422C18.5305 0.56562 18.7377 0.511719 18.9658 0.511719C19.1938 0.511719 19.4011 0.56562 19.5876 0.673422C19.7742 0.781225 19.9227 0.922715 20.0333 1.09789C20.1438 1.27307 20.1991 1.47183 20.1991 1.69418C20.1991 1.90978 20.1438 2.10854 20.0333 2.29046C19.9227 2.46564 19.7742 2.60713 19.5876 2.71493C19.4011 2.82273 19.1938 2.87663 18.9658 2.87663ZM18.9658 2.3511C19.1523 2.3511 19.3112 2.28709 19.4425 2.15907C19.5738 2.03106 19.6394 1.87609 19.6394 1.69418C19.6394 1.51226 19.5738 1.35729 19.4425 1.22928C19.3112 1.09453 19.1523 1.02715 18.9658 1.02715C18.7792 1.02715 18.6203 1.09453 18.489 1.22928C18.3577 1.35729 18.2921 1.51226 18.2921 1.69418C18.2921 1.87609 18.3577 2.03106 18.489 2.15907C18.6203 2.28709 18.7792 2.3511 18.9658 2.3511Z" fill="black"/>
</svg>
