<svg width="24" height="24" viewBox="0 0 24 24" fill="none" xmlns="http://www.w3.org/2000/svg">
<path fill-rule="evenodd" clip-rule="evenodd" d="M11.5956 0.0807175C11.4778 0.129862 11.3672 0.201449 11.2703 0.295476C11.2659 0.299745 11.2615 0.304051 11.2572 0.308396L6.49684 5.06875C6.08772 5.47787 6.08772 6.14118 6.49684 6.5503C6.90596 6.95942 7.56928 6.95942 7.9784 6.5503L10.9519 3.5768V22.9524C10.9519 23.531 11.4209 24 11.9995 24C12.5781 24 13.0471 23.531 13.0471 22.9524V3.57679L16.0207 6.5503C16.4298 6.95942 17.0931 6.95942 17.5022 6.5503C17.9113 6.14118 17.9113 5.47787 17.5022 5.06875L12.7403 0.306841C12.5357 0.102279 12.2676 -1.19109e-06 11.9995 0C11.8563 0 11.7199 0.0287208 11.5956 0.0807175Z" fill="black"/>
</svg>
