<svg width="24" height="24" viewBox="0 0 24 24" fill="none" xmlns="http://www.w3.org/2000/svg">
<path d="M15.2773 23.476C14.7629 23.476 14.2847 23.3869 13.8428 23.2089C13.4009 23.0242 13.025 22.767 12.715 22.4372L13.4372 21.7447C13.7142 22.0349 13.9912 22.2393 14.2682 22.3581C14.5452 22.4702 14.875 22.5262 15.2575 22.5262C15.5609 22.5262 15.8247 22.4801 16.049 22.3877C16.2798 22.2888 16.4579 22.1536 16.5832 21.9821C16.7085 21.8106 16.7712 21.6095 16.7712 21.3786C16.7712 21.1742 16.7184 20.9928 16.6129 20.8345C16.5073 20.6762 16.3622 20.5542 16.1776 20.4685C15.9929 20.3762 15.7786 20.33 15.5345 20.33H14.6837V19.4198H15.4455C15.7819 19.4198 16.049 19.3275 16.2468 19.1428C16.4513 18.9581 16.5535 18.7075 16.5535 18.3909C16.5535 18.1865 16.4942 18.0018 16.3754 17.8369C16.2633 17.6655 16.1083 17.5336 15.9105 17.4412C15.7126 17.3423 15.4884 17.2928 15.2377 17.2928C14.8882 17.2928 14.5815 17.3555 14.3177 17.4808C14.0605 17.5995 13.7934 17.8106 13.5164 18.1139L12.7843 17.4313C13.1008 17.0752 13.4735 16.8048 13.9022 16.6201C14.3375 16.4288 14.7926 16.3332 15.2674 16.3332C15.7291 16.3332 16.138 16.4156 16.4942 16.5805C16.8503 16.7454 17.1273 16.9762 17.3252 17.273C17.5296 17.5632 17.6319 17.8963 17.6319 18.2722C17.6319 18.6416 17.5098 18.9713 17.2658 19.2615C17.0284 19.5451 16.7151 19.743 16.326 19.8551C16.7876 19.954 17.157 20.1486 17.434 20.4388C17.7176 20.7224 17.8594 21.0588 17.8594 21.4479C17.8594 21.837 17.7473 22.1866 17.523 22.4966C17.2988 22.7999 16.9921 23.0407 16.603 23.2188C16.2204 23.3902 15.7786 23.476 15.2773 23.476Z" fill="black"/>
<path d="M20.1024 23.3671V17.5797L18.8756 18.1041V17.1444L20.4981 16.442H21.1807V23.3671H20.1024Z" fill="black"/>
<path d="M23.3075 23.4562C23.1162 23.4562 22.9513 23.3869 22.8128 23.2484C22.6809 23.1033 22.615 22.9352 22.615 22.7439C22.615 22.5394 22.6809 22.3679 22.8128 22.2294C22.9513 22.0909 23.1162 22.0217 23.3075 22.0217C23.4988 22.0217 23.6603 22.0909 23.7922 22.2294C23.9307 22.3679 24 22.5394 24 22.7439C24 22.9352 23.9307 23.1033 23.7922 23.2484C23.6603 23.3869 23.4988 23.4562 23.3075 23.4562Z" fill="black"/>
<path fill-rule="evenodd" clip-rule="evenodd" d="M9.73679 18.8234L5.44414 23.2773C5.18072 23.5408 4.75364 23.5408 4.49022 23.2773L0.197564 18.9847C-0.0658547 18.7213 -0.0658547 18.2942 0.197564 18.0308C0.460983 17.7674 0.888068 17.7674 1.15149 18.0308L4.29265 21.1719V1.19406C4.29265 0.821526 4.59465 0.519531 4.96718 0.519531C5.33971 0.519531 5.6417 0.821526 5.6417 1.19406V21.1719L8.78287 18.0308C9.04629 17.7674 9.47337 17.6061 9.73679 17.8695C10.0002 18.1329 10.0002 18.56 9.73679 18.8234Z" fill="black"/>
<path d="M17.0333 7.44572V1.65829L15.8066 2.18262V1.223L17.429 0.520592H18.1117V7.44572H17.0333Z" fill="black"/>
<path d="M20.2385 7.53476C20.0472 7.53476 19.8823 7.46551 19.7438 7.327C19.6119 7.18191 19.5459 7.01372 19.5459 6.82246C19.5459 6.618 19.6119 6.44652 19.7438 6.30802C19.8823 6.16952 20.0472 6.10027 20.2385 6.10027C20.4297 6.10027 20.5913 6.16952 20.7232 6.30802C20.8617 6.44652 20.931 6.618 20.931 6.82246C20.931 7.01372 20.8617 7.18191 20.7232 7.327C20.5913 7.46551 20.4297 7.53476 20.2385 7.53476Z" fill="black"/>
</svg>
