<svg width="24" height="24" viewBox="0 0 24 24" fill="none" xmlns="http://www.w3.org/2000/svg">
<path d="M19.4497 16.1048C20.035 16.1048 20.5488 16.2545 20.9911 16.5539C21.4335 16.8466 21.7806 17.2549 22.0324 17.779C22.2842 18.303 22.4101 18.9087 22.4101 19.5961C22.4101 20.3719 22.2706 21.0525 21.9916 21.6378C21.7126 22.2163 21.3246 22.6655 20.8278 22.9853C20.331 23.3052 19.7491 23.4651 19.0822 23.4651C18.7419 23.4651 18.3982 23.4107 18.0511 23.3018C17.7108 23.1929 17.4216 23.0432 17.1834 22.8526L17.7959 22.0359C18 22.1788 18.2144 22.2877 18.439 22.3626C18.6704 22.4307 18.9154 22.4647 19.174 22.4647C19.6164 22.4647 19.9941 22.3524 20.3072 22.1278C20.6202 21.9032 20.8618 21.5765 21.032 21.1478C21.2021 20.719 21.2906 20.2086 21.2974 19.6165C21.0524 19.95 20.7564 20.2086 20.4093 20.3923C20.0622 20.5761 19.7015 20.668 19.3272 20.668C18.8576 20.668 18.4424 20.5727 18.0817 20.3821C17.721 20.1916 17.4386 19.933 17.2344 19.6063C17.0302 19.2728 16.9281 18.8917 16.9281 18.4629C16.9281 18.0069 17.037 17.602 17.2548 17.2481C17.4726 16.8942 17.7721 16.6152 18.1532 16.411C18.5411 16.2068 18.9733 16.1048 19.4497 16.1048ZM19.5007 19.7798C19.8342 19.7798 20.1506 19.705 20.4501 19.5552C20.7564 19.3987 21.0218 19.1877 21.2464 18.9223C21.1851 18.548 21.0728 18.2213 20.9095 17.9423C20.7529 17.6633 20.5556 17.4489 20.3174 17.2992C20.0792 17.1426 19.8036 17.0644 19.4905 17.0644C19.2115 17.0644 18.9596 17.1256 18.7351 17.2481C18.5173 17.3638 18.3437 17.5271 18.2144 17.7381C18.0919 17.9423 18.0307 18.1771 18.0307 18.4425C18.0307 18.7011 18.0919 18.9325 18.2144 19.1367C18.3437 19.3409 18.5173 19.5008 18.7351 19.6165C18.9596 19.7254 19.2149 19.7798 19.5007 19.7798Z" fill="black"/>
<path fill-rule="evenodd" clip-rule="evenodd" d="M11.6381 18.8394L7.20858 23.2689C6.93676 23.5408 6.49606 23.5408 6.22424 23.2689L1.79469 18.8394C1.52287 18.5676 1.52287 18.1268 1.79469 17.855C2.0665 17.5832 2.50721 17.5832 2.77903 17.855L6.02037 21.0964V1.24481C6.02037 0.860402 6.332 0.548776 6.71641 0.548776C7.10082 0.548776 7.41245 0.860402 7.41245 1.24481V21.0964L10.6538 17.855C10.9256 17.5832 11.3663 17.5832 11.6381 17.855C11.91 18.1268 11.91 18.5676 11.6381 18.8394Z" fill="black"/>
<path d="M19.507 7.22226C18.9816 7.22226 18.5181 7.08319 18.1163 6.80505C17.7207 6.52073 17.4086 6.12824 17.1799 5.62759C16.9574 5.12075 16.8461 4.53974 16.8461 3.88457C16.8461 3.21703 16.9574 2.63293 17.1799 2.13228C17.4086 1.63162 17.7207 1.24222 18.1163 0.964081C18.5181 0.679759 18.9816 0.537598 19.507 0.537598C20.0324 0.537598 20.4929 0.679759 20.8884 0.964081C21.2902 1.24222 21.6023 1.63162 21.8248 2.13228C22.0474 2.63293 22.1586 3.21703 22.1586 3.88457C22.1586 4.53974 22.0474 5.12075 21.8248 5.62759C21.6023 6.12824 21.2902 6.52073 20.8884 6.80505C20.4929 7.08319 20.0324 7.22226 19.507 7.22226ZM19.507 6.32294C19.8408 6.32294 20.1282 6.22404 20.3692 6.02625C20.6165 5.82228 20.8081 5.53796 20.9441 5.17329C21.08 4.80861 21.148 4.37904 21.148 3.88457C21.148 3.38391 21.08 2.95125 20.9441 2.58657C20.8081 2.2219 20.6165 1.94067 20.3692 1.74288C20.1282 1.53891 19.8408 1.43692 19.507 1.43692C19.1732 1.43692 18.8827 1.53891 18.6355 1.74288C18.3944 1.94067 18.2028 2.2219 18.0607 2.58657C17.9247 2.95125 17.8567 3.38391 17.8567 3.88457C17.8567 4.37904 17.9247 4.80861 18.0607 5.17329C18.2028 5.53796 18.3944 5.82228 18.6355 6.02625C18.8827 6.22404 19.1732 6.32294 19.507 6.32294Z" fill="black"/>
</svg>
