<svg width="24" height="24" viewBox="0 0 24 24" fill="none" xmlns="http://www.w3.org/2000/svg">
<path d="M14.9325 23.3775C14.4071 23.3775 13.9435 23.2384 13.5418 22.9603C13.1462 22.676 12.8341 22.2835 12.6054 21.7828C12.3829 21.276 12.2716 20.695 12.2716 20.0398C12.2716 19.3723 12.3829 18.7882 12.6054 18.2875C12.8341 17.7869 13.1462 17.3975 13.5418 17.1193C13.9435 16.835 14.4071 16.6928 14.9325 16.6928C15.4579 16.6928 15.9184 16.835 16.3139 17.1193C16.7157 17.3975 17.0278 17.7869 17.2503 18.2875C17.4729 18.7882 17.5841 19.3723 17.5841 20.0398C17.5841 20.695 17.4729 21.276 17.2503 21.7828C17.0278 22.2835 16.7157 22.676 16.3139 22.9603C15.9184 23.2384 15.4579 23.3775 14.9325 23.3775ZM14.9325 22.4782C15.2663 22.4782 15.5537 22.3793 15.7947 22.1815C16.042 21.9775 16.2336 21.6932 16.3696 21.3285C16.5055 20.9638 16.5735 20.5343 16.5735 20.0398C16.5735 19.5391 16.5055 19.1065 16.3696 18.7418C16.2336 18.3771 16.042 18.0959 15.7947 17.8981C15.5537 17.6941 15.2663 17.5922 14.9325 17.5922C14.5987 17.5922 14.3082 17.6941 14.061 17.8981C13.8199 18.0959 13.6283 18.3771 13.4862 18.7418C13.3502 19.1065 13.2822 19.5391 13.2822 20.0398C13.2822 20.5343 13.3502 20.9638 13.4862 21.3285C13.6283 21.6932 13.8199 21.9775 14.061 22.1815C14.3082 22.3793 14.5987 22.4782 14.9325 22.4782Z" fill="black"/>
<path d="M21.3484 23.3775C20.823 23.3775 20.3594 23.2384 19.9577 22.9603C19.5621 22.676 19.25 22.2835 19.0213 21.7828C18.7988 21.276 18.6875 20.695 18.6875 20.0398C18.6875 19.3723 18.7988 18.7882 19.0213 18.2875C19.25 17.7869 19.5621 17.3975 19.9577 17.1193C20.3594 16.835 20.823 16.6928 21.3484 16.6928C21.8738 16.6928 22.3342 16.835 22.7298 17.1193C23.1316 17.3975 23.4437 17.7869 23.6662 18.2875C23.8887 18.7882 24 19.3723 24 20.0398C24 20.695 23.8887 21.276 23.6662 21.7828C23.4437 22.2835 23.1316 22.676 22.7298 22.9603C22.3342 23.2384 21.8738 23.3775 21.3484 23.3775ZM21.3484 22.4782C21.6822 22.4782 21.9696 22.3793 22.2106 22.1815C22.4579 21.9775 22.6495 21.6932 22.7854 21.3285C22.9214 20.9638 22.9894 20.5343 22.9894 20.0398C22.9894 19.5391 22.9214 19.1065 22.7854 18.7418C22.6495 18.3771 22.4579 18.0959 22.2106 17.8981C21.9696 17.6941 21.6822 17.5922 21.3484 17.5922C21.0146 17.5922 20.7241 17.6941 20.4769 17.8981C20.2358 18.0959 20.0442 18.3771 19.9021 18.7418C19.7661 19.1065 19.6981 19.5391 19.6981 20.0398C19.6981 20.5343 19.7661 20.9638 19.9021 21.3285C20.0442 21.6932 20.2358 21.9775 20.4769 22.1815C20.7241 22.3793 21.0146 22.4782 21.3484 22.4782Z" fill="black"/>
<path fill-rule="evenodd" clip-rule="evenodd" d="M9.12495 19.2787L5.10204 23.3016C4.85518 23.5485 4.45493 23.5485 4.20806 23.3016L0.18515 19.2787C-0.0617165 19.0319 -0.0617165 18.6316 0.18515 18.3847C0.432016 18.1379 0.832264 18.1379 1.07913 18.3847L4.02291 21.3285V1.15362C4.02291 0.804503 4.30593 0.521484 4.65505 0.521484C5.00417 0.521484 5.28719 0.804503 5.28719 1.15362V21.3285L8.23097 18.3847C8.47784 18.1379 8.87809 18.1379 9.12495 18.3847C9.37182 18.6316 9.37182 19.0319 9.12495 19.2787Z" fill="black"/>
<path d="M13.0686 7.11344V6.381L15.7294 3.59958C15.8901 3.4327 16.0138 3.28127 16.1003 3.14528C16.193 3.0093 16.2579 2.87951 16.295 2.75589C16.3383 2.62609 16.3599 2.4932 16.3599 2.35722C16.3599 2.08526 16.2486 1.85965 16.0261 1.68041C15.8036 1.50116 15.5224 1.41154 15.1824 1.41154C14.8857 1.41154 14.6076 1.47026 14.348 1.58769C14.0884 1.70513 13.8041 1.9091 13.495 2.1996L12.9202 1.50425C13.2787 1.17666 13.6465 0.932515 14.0235 0.771812C14.4005 0.604927 14.793 0.521484 15.201 0.521484C15.6275 0.521484 16.0014 0.598746 16.3228 0.753269C16.6442 0.901611 16.8945 1.10867 17.0738 1.37445C17.253 1.64023 17.3427 1.94928 17.3427 2.30159C17.3427 2.51174 17.3148 2.70953 17.2592 2.89496C17.2036 3.08039 17.1078 3.2689 16.9718 3.46051C16.842 3.65212 16.6597 3.87154 16.4248 4.11878L14.3573 6.2512L17.4632 6.24193V7.11344H13.0686Z" fill="black"/>
<path d="M20.7777 7.21542C20.2955 7.21542 19.8474 7.13198 19.4333 6.96509C19.0192 6.79203 18.6669 6.55097 18.3764 6.24193L19.0532 5.59293C19.3128 5.86489 19.5724 6.0565 19.832 6.16776C20.0916 6.27283 20.4006 6.32537 20.7591 6.32537C21.0434 6.32537 21.2907 6.2821 21.5008 6.19557C21.7172 6.10286 21.884 5.97615 22.0015 5.81544C22.1189 5.65474 22.1776 5.46622 22.1776 5.24989C22.1776 5.05828 22.1282 4.8883 22.0293 4.73996C21.9304 4.59162 21.7944 4.47727 21.6213 4.39692C21.4483 4.31039 21.2474 4.26712 21.0187 4.26712H20.2214V3.41415H20.9353C21.2505 3.41415 21.5008 3.32762 21.6862 3.15456C21.8779 2.98149 21.9737 2.74662 21.9737 2.44993C21.9737 2.25832 21.918 2.08526 21.8068 1.93073C21.7017 1.77003 21.5565 1.64641 21.371 1.55988C21.1856 1.46717 20.9754 1.42081 20.7406 1.42081C20.413 1.42081 20.1256 1.47953 19.8783 1.59696C19.6373 1.70822 19.3869 1.90601 19.1273 2.19033L18.4413 1.55061C18.738 1.21684 19.0872 0.96342 19.4889 0.790354C19.8969 0.611108 20.3234 0.521484 20.7684 0.521484C21.201 0.521484 21.5843 0.598746 21.918 0.753269C22.2518 0.907792 22.5114 1.12412 22.6968 1.40227C22.8884 1.67423 22.9842 1.98636 22.9842 2.33867C22.9842 2.68481 22.8699 2.99385 22.6412 3.26581C22.4187 3.53159 22.1251 3.71702 21.7604 3.8221C22.1931 3.91481 22.5392 4.09715 22.7988 4.36911C23.0646 4.63489 23.1975 4.95011 23.1975 5.31479C23.1975 5.67946 23.0924 6.00705 22.8823 6.29755C22.6721 6.58188 22.3847 6.80748 22.02 6.97437C21.6615 7.13507 21.2474 7.21542 20.7777 7.21542Z" fill="black"/>
</svg>
