<svg width="25" height="24" viewBox="0 0 25 24" fill="none" xmlns="http://www.w3.org/2000/svg">
<path fill-rule="evenodd" clip-rule="evenodd" d="M5.06875 0.306841C5.47787 -0.10228 6.14118 -0.10228 6.5503 0.306841L11.3122 5.06875C11.7213 5.47787 11.7213 6.14118 11.3122 6.5503C10.9031 6.95942 10.2398 6.95942 9.83065 6.5503L5.80952 2.52918L1.7884 6.5503C1.37928 6.95942 0.715961 6.95942 0.306841 6.5503C-0.10228 6.14118 -0.10228 5.47787 0.306841 5.06875L5.06875 0.306841Z" fill="black"/>
<path fill-rule="evenodd" clip-rule="evenodd" d="M5.80543 0C6.38402 0 6.85305 0.469035 6.85305 1.04762V22.9524C6.85305 23.531 6.38402 24 5.80543 24C5.22685 24 4.75781 23.531 4.75781 22.9524V1.04762C4.75781 0.469035 5.22685 0 5.80543 0Z" fill="black"/>
<path fill-rule="evenodd" clip-rule="evenodd" d="M19.1656 23.6932C18.7565 24.1023 18.0932 24.1023 17.6841 23.6932L12.9222 18.9313C12.513 18.5221 12.513 17.8588 12.9222 17.4497C13.3313 17.0406 13.9946 17.0406 14.4037 17.4497L18.4249 21.4708L22.446 17.4497C22.8551 17.0406 23.5184 17.0406 23.9275 17.4497C24.3367 17.8588 24.3367 18.5221 23.9275 18.9313L19.1656 23.6932Z" fill="black"/>
<path fill-rule="evenodd" clip-rule="evenodd" d="M18.4289 24C17.8504 24 17.3813 23.531 17.3813 22.9524L17.3813 1.04762C17.3813 0.469036 17.8504 -1.42167e-07 18.4289 -9.15858e-08C19.0075 -4.10043e-08 19.4766 0.469036 19.4766 1.04762L19.4766 22.9524C19.4766 23.531 19.0075 24 18.4289 24Z" fill="black"/>
</svg>
