<svg width="24" height="24" viewBox="0 0 24 24" fill="none" xmlns="http://www.w3.org/2000/svg">
<path d="M15.6041 23.4687L18.625 16.292H20.1518L23.1287 23.4687H21.7117L20.9208 21.4592H17.7681L16.9772 23.4687H15.6041ZM18.1526 20.4955H20.5583L19.35 17.4607L18.1526 20.4955ZM19.3829 15.5025C19.1412 15.5025 18.9216 15.4478 18.7238 15.3385C18.5261 15.2291 18.3687 15.0856 18.2515 14.9079C18.1343 14.7233 18.0757 14.5217 18.0757 14.303C18.0757 14.0774 18.1343 13.8758 18.2515 13.6981C18.3687 13.5204 18.5261 13.3768 18.7238 13.2675C18.9216 13.1581 19.1412 13.1034 19.3829 13.1034C19.6246 13.1034 19.8443 13.1581 20.042 13.2675C20.2397 13.3768 20.3972 13.5204 20.5143 13.6981C20.6315 13.8758 20.6901 14.0774 20.6901 14.303C20.6901 14.5217 20.6315 14.7233 20.5143 14.9079C20.3972 15.0856 20.2397 15.2291 20.042 15.3385C19.8443 15.4478 19.6246 15.5025 19.3829 15.5025ZM19.3829 14.9694C19.5806 14.9694 19.7491 14.9045 19.8882 14.7746C20.0274 14.6447 20.0969 14.4875 20.0969 14.303C20.0969 14.1184 20.0274 13.9612 19.8882 13.8314C19.7491 13.6947 19.5806 13.6263 19.3829 13.6263C19.1852 13.6263 19.0168 13.6947 18.8776 13.8314C18.7385 13.9612 18.6689 14.1184 18.6689 14.303C18.6689 14.4875 18.7385 14.6447 18.8776 14.7746C19.0168 14.9045 19.1852 14.9694 19.3829 14.9694Z" fill="black"/>
<path fill-rule="evenodd" clip-rule="evenodd" d="M11.6829 18.8256L6.91651 23.2742C6.62402 23.5472 6.14981 23.5472 5.85732 23.2742L1.09095 18.8256C0.79846 18.5526 0.79846 18.11 1.09095 17.837C1.38344 17.564 1.85765 17.564 2.15014 17.837L5.63795 21.0923V1.22125C5.63795 0.835184 5.97327 0.522217 6.38691 0.522217C6.80055 0.522217 7.13588 0.835184 7.13588 1.22125V21.0923L10.6237 17.837C10.9162 17.564 11.3904 17.564 11.6829 17.837C11.9754 18.11 11.9754 18.5526 11.6829 18.8256Z" fill="black"/>
<path d="M15.6041 7.70191L18.625 0.525188H20.1518L23.1287 7.70191H21.7117L20.9208 5.69243H17.7681L16.9772 7.70191H15.6041ZM18.1526 4.7287H20.5583L19.35 1.69397L18.1526 4.7287Z" fill="black"/>
</svg>
