<svg width="24" height="24" fill="none" xmlns="http://www.w3.org/2000/svg"><path d="M5.594 23.5a1.621 1.621 0 01-1.445-.88 1.645 1.645 0 01-.161-1.033l1.079-6.278-4.572-4.441A1.626 1.626 0 010 9.718c-.006-.437.156-.85.457-1.164.25-.259.583-.429.937-.481l6.321-.92 2.831-5.734a1.626 1.626 0 012.172-.754c.327.16.595.429.755.759l2.815 5.722 6.319.919c.888.129 1.505.961 1.376 1.852-.05.357-.221.69-.477.94l-4.573 4.444 1.079 6.278a1.636 1.636 0 01-1.605 1.913c-.26 0-.52-.064-.751-.187l-5.65-2.964-5.66 2.973a1.62 1.62 0 01-.752.186z" fill="#000"/></svg>