<svg width="24" height="24" fill="none" xmlns="http://www.w3.org/2000/svg"><g clip-path="url(#clip0)"><path d="M5.594 23.5a1.621 1.621 0 01-1.445-.88 1.645 1.645 0 01-.161-1.033l1.079-6.278-4.572-4.441A1.626 1.626 0 010 9.718c-.006-.437.156-.85.457-1.164.25-.259.583-.429.937-.481l6.321-.92 2.831-5.734a1.626 1.626 0 012.172-.754c.327.16.595.429.755.759l2.815 5.722 6.319.919c.888.129 1.505.961 1.376 1.852-.05.357-.221.69-.477.94l-4.573 4.444 1.079 6.278a1.636 1.636 0 01-1.605 1.913c-.26 0-.52-.064-.751-.187l-5.65-2.964-5.66 2.973a1.62 1.62 0 01-.752.186zM8.983 8.264a.818.818 0 01-.612.447l-6.744.98 4.881 4.743c.194.188.281.46.236.726l-1.152 6.705 6.038-3.171a.813.813 0 01.752-.002l6.027 3.163-1.152-6.705a.819.819 0 01.236-.726l4.881-4.742-6.742-.981a.812.812 0 01-.612-.447l-3.01-6.117-3.027 6.127z" fill="#000"/></g><defs><clipPath id="clip0"><path fill="#fff" d="M0 0h24v24H0z"/></clipPath></defs></svg>