<svg width="24" height="25" viewBox="0 0 24 25" fill="none" xmlns="http://www.w3.org/2000/svg">
<mask id="path-1-inside-1_1466_41" fill="white">
<path fill-rule="evenodd" clip-rule="evenodd" d="M12 24.0275C18.6274 24.0275 24 18.6549 24 12.0275C24 5.40011 18.6274 0.0275269 12 0.0275269C5.37258 0.0275269 0 5.40011 0 12.0275C0 18.6549 5.37258 24.0275 12 24.0275ZM22.5882 12.0275C22.5882 17.8752 17.8477 22.6158 12 22.6158C6.15228 22.6158 1.41176 17.8752 1.41176 12.0275C1.41176 6.17981 6.15228 1.43929 12 1.43929C17.8477 1.43929 22.5882 6.17981 22.5882 12.0275Z"/>
</mask>
<path fill-rule="evenodd" clip-rule="evenodd" d="M12 24.0275C18.6274 24.0275 24 18.6549 24 12.0275C24 5.40011 18.6274 0.0275269 12 0.0275269C5.37258 0.0275269 0 5.40011 0 12.0275C0 18.6549 5.37258 24.0275 12 24.0275ZM22.5882 12.0275C22.5882 17.8752 17.8477 22.6158 12 22.6158C6.15228 22.6158 1.41176 17.8752 1.41176 12.0275C1.41176 6.17981 6.15228 1.43929 12 1.43929C17.8477 1.43929 22.5882 6.17981 22.5882 12.0275Z" fill="#29D305"/>
<path d="M21 12.0275C21 16.9981 16.9706 21.0275 12 21.0275V27.0275C20.2843 27.0275 27 20.3118 27 12.0275H21ZM12 3.02753C16.9706 3.02753 21 7.05696 21 12.0275H27C27 3.74325 20.2843 -2.97247 12 -2.97247V3.02753ZM3 12.0275C3 7.05696 7.02944 3.02753 12 3.02753V-2.97247C3.71573 -2.97247 -3 3.74325 -3 12.0275H3ZM12 21.0275C7.02944 21.0275 3 16.9981 3 12.0275H-3C-3 20.3118 3.71573 27.0275 12 27.0275V21.0275ZM12 25.6158C19.5046 25.6158 25.5882 19.5321 25.5882 12.0275H19.5882C19.5882 16.2184 16.1909 19.6158 12 19.6158V25.6158ZM-1.58824 12.0275C-1.58824 19.5321 4.49542 25.6158 12 25.6158V19.6158C7.80913 19.6158 4.41176 16.2184 4.41176 12.0275H-1.58824ZM12 -1.56071C4.49542 -1.56071 -1.58824 4.52295 -1.58824 12.0275H4.41176C4.41176 7.83666 7.80913 4.43929 12 4.43929V-1.56071ZM25.5882 12.0275C25.5882 4.52295 19.5046 -1.56071 12 -1.56071V4.43929C16.1909 4.43929 19.5882 7.83666 19.5882 12.0275H25.5882Z" fill="#29D305" mask="url(#path-1-inside-1_1466_41)"/>
<path d="M8.878 12.0955L9.102 7.02753H15.066V8.34353H10.404L10.278 11.1855C10.6047 11.0175 10.936 10.8962 11.272 10.8215C11.608 10.7375 11.958 10.6955 12.322 10.6955C13.2927 10.6955 14.0767 10.9709 14.674 11.5215C15.2807 12.0629 15.584 12.7769 15.584 13.6635C15.584 14.1582 15.4907 14.6109 15.304 15.0215C15.1267 15.4229 14.8747 15.7682 14.548 16.0575C14.2307 16.3469 13.8433 16.5755 13.386 16.7435C12.9287 16.9022 12.4247 16.9815 11.874 16.9815C11.2207 16.9815 10.6 16.8695 10.012 16.6455C9.43333 16.4215 8.906 16.0902 8.43 15.6515L9.354 14.6015C9.774 14.9749 10.1893 15.2455 10.6 15.4135C11.0107 15.5722 11.454 15.6515 11.93 15.6515C12.546 15.6515 13.0453 15.4742 13.428 15.1195C13.82 14.7649 14.016 14.3029 14.016 13.7335C14.016 13.2015 13.8153 12.7629 13.414 12.4175C13.0127 12.0722 12.504 11.8995 11.888 11.8995C11.5613 11.8995 11.2393 11.9415 10.922 12.0255C10.614 12.1095 10.2873 12.2402 9.942 12.4175L8.878 12.0955Z" fill="black"/>
</svg>
