<svg width="24" height="24" viewBox="0 0 24 24" fill="none" xmlns="http://www.w3.org/2000/svg">
<path fill-rule="evenodd" clip-rule="evenodd" d="M12 24C18.6274 24 24 18.6274 24 12C24 5.37258 18.6274 0 12 0C5.37258 0 0 5.37258 0 12C0 18.6274 5.37258 24 12 24ZM22.5882 12C22.5882 17.8477 17.8477 22.5882 12 22.5882C6.15228 22.5882 1.41176 17.8477 1.41176 12C1.41176 6.15228 6.15228 1.41176 12 1.41176C17.8477 1.41176 22.5882 6.15228 22.5882 12Z" fill="#29D305"/>
<path d="M12.0414 16.9134C11.332 16.9134 10.702 16.7921 10.1514 16.5494C9.61003 16.3068 9.1807 15.9708 8.86337 15.5414C8.55537 15.1028 8.40137 14.6081 8.40137 14.0574C8.40137 13.6841 8.49003 13.3388 8.66737 13.0214C8.8447 12.6948 9.09203 12.4148 9.40937 12.1814C9.7267 11.9388 10.0907 11.7661 10.5014 11.6634C9.9787 11.4861 9.55403 11.2014 9.22737 10.8094C8.9007 10.4174 8.73737 9.97875 8.73737 9.49342C8.73737 8.98009 8.88203 8.52275 9.17137 8.12142C9.4607 7.71075 9.8527 7.38875 10.3474 7.15542C10.8514 6.92209 11.416 6.80542 12.0414 6.80542C12.676 6.80542 13.2407 6.92209 13.7354 7.15542C14.2394 7.38875 14.6314 7.71075 14.9114 8.12142C15.2007 8.52275 15.3454 8.98009 15.3454 9.49342C15.3454 9.97875 15.182 10.4174 14.8554 10.8094C14.5287 11.2014 14.104 11.4861 13.5814 11.6634C14.1974 11.8221 14.7014 12.1208 15.0934 12.5594C15.4854 12.9981 15.6814 13.4974 15.6814 14.0574C15.6814 14.6081 15.5274 15.1028 15.2194 15.5414C14.9114 15.9708 14.482 16.3068 13.9314 16.5494C13.3807 16.7921 12.7507 16.9134 12.0414 16.9134ZM12.0414 11.1034C12.3867 11.1034 12.6947 11.0381 12.9654 10.9074C13.236 10.7674 13.4507 10.5854 13.6094 10.3614C13.768 10.1281 13.8474 9.86675 13.8474 9.57742C13.8474 9.28809 13.768 9.03142 13.6094 8.80742C13.4507 8.57409 13.236 8.39209 12.9654 8.26142C12.6947 8.13075 12.3867 8.06542 12.0414 8.06542C11.696 8.06542 11.388 8.13075 11.1174 8.26142C10.8467 8.39209 10.632 8.57409 10.4734 8.80742C10.3147 9.03142 10.2354 9.28809 10.2354 9.57742C10.2354 9.86675 10.3147 10.1281 10.4734 10.3614C10.632 10.5854 10.8467 10.7674 11.1174 10.9074C11.388 11.0381 11.696 11.1034 12.0414 11.1034ZM12.0414 15.6534C12.452 15.6534 12.8114 15.5834 13.1194 15.4434C13.4367 15.2941 13.684 15.0888 13.8614 14.8274C14.048 14.5661 14.1414 14.2814 14.1414 13.9734C14.1414 13.6468 14.048 13.3574 13.8614 13.1054C13.684 12.8441 13.4367 12.6434 13.1194 12.5034C12.8114 12.3541 12.452 12.2794 12.0414 12.2794C11.64 12.2794 11.2807 12.3541 10.9634 12.5034C10.646 12.6434 10.394 12.8394 10.2074 13.0914C10.03 13.3434 9.94137 13.6328 9.94137 13.9594C9.94137 14.2861 10.03 14.5801 10.2074 14.8414C10.394 15.0934 10.646 15.2941 10.9634 15.4434C11.2807 15.5834 11.64 15.6534 12.0414 15.6534Z" fill="black"/>
</svg>
