<svg width="24" height="24" fill="none" xmlns="http://www.w3.org/2000/svg"><mask id="a" fill="#fff"><path fill-rule="evenodd" clip-rule="evenodd" d="M12 24c6.627 0 12-5.373 12-12S18.627 0 12 0 0 5.373 0 12s5.373 12 12 12zm10.588-12c0 5.848-4.74 10.588-10.588 10.588-5.848 0-10.588-4.74-10.588-10.588C1.412 6.152 6.152 1.412 12 1.412c5.848 0 10.588 4.74 10.588 10.588z"/></mask><path fill-rule="evenodd" clip-rule="evenodd" d="M12 24c6.627 0 12-5.373 12-12S18.627 0 12 0 0 5.373 0 12s5.373 12 12 12zm10.588-12c0 5.848-4.74 10.588-10.588 10.588-5.848 0-10.588-4.74-10.588-10.588C1.412 6.152 6.152 1.412 12 1.412c5.848 0 10.588 4.74 10.588 10.588z" fill="#29D305"/><path d="M21 12a9 9 0 01-9 9v6c8.284 0 15-6.716 15-15h-6zm-9-9a9 9 0 019 9h6c0-8.284-6.716-15-15-15v6zm-9 9a9 9 0 019-9v-6C3.716-3-3 3.716-3 12h6zm9 9a9 9 0 01-9-9h-6c0 8.284 6.716 15 15 15v-6zm0 4.588c7.505 0 13.588-6.083 13.588-13.588h-6A7.588 7.588 0 0112 19.588v6zM-1.588 12c0 7.505 6.083 13.588 13.588 13.588v-6A7.588 7.588 0 014.412 12h-6zM12-1.588C4.495-1.588-1.588 4.495-1.588 12h6A7.588 7.588 0 0112 4.412v-6zM25.588 12c0-7.505-6.083-13.588-13.588-13.588v6A7.588 7.588 0 0119.588 12h6z" fill="#29D305" mask="url(#a)"/><path d="M8.878 12.068L9.102 7h5.964v1.316h-4.662l-.126 2.842a4.13 4.13 0 01.994-.364 4.314 4.314 0 011.05-.126c.97 0 1.755.275 2.352.826.607.541.91 1.255.91 2.142 0 .495-.093.947-.28 1.358-.177.401-.43.747-.756 1.036-.317.29-.705.518-1.162.686a4.586 4.586 0 01-1.512.238 5.186 5.186 0 01-1.862-.336 4.966 4.966 0 01-1.582-.994l.924-1.05c.42.373.835.644 1.246.812.41.159.854.238 1.33.238.616 0 1.115-.177 1.498-.532.392-.355.588-.817.588-1.386 0-.532-.2-.97-.602-1.316-.401-.345-.91-.518-1.526-.518a3.76 3.76 0 00-.966.126 5.104 5.104 0 00-.98.392l-1.064-.322z" fill="#000"/></svg>