<svg width="24" height="24" viewBox="0 0 24 24" fill="none" xmlns="http://www.w3.org/2000/svg">
<path fill-rule="evenodd" clip-rule="evenodd" d="M12 24C18.6274 24 24 18.6274 24 12C24 5.37258 18.6274 0 12 0C5.37258 0 0 5.37258 0 12C0 18.6274 5.37258 24 12 24ZM22.5882 12C22.5882 17.8477 17.8477 22.5882 12 22.5882C6.15228 22.5882 1.41176 17.8477 1.41176 12C1.41176 6.15228 6.15228 1.41176 12 1.41176C17.8477 1.41176 22.5882 6.15228 22.5882 12Z" fill="#29D305"/>
<path d="M8.79407 16.926V15.82L12.8121 11.62C13.1574 11.2467 13.4001 10.9247 13.5401 10.654C13.6894 10.374 13.7641 10.08 13.7641 9.772C13.7641 9.36133 13.5914 9.02067 13.2461 8.75C12.9101 8.47 12.4854 8.33 11.9721 8.33C11.5241 8.33 11.1041 8.42333 10.7121 8.61C10.3294 8.79667 9.90474 9.10467 9.43807 9.534L8.57007 8.484C9.10207 7.98933 9.65274 7.62067 10.2221 7.378C10.8007 7.126 11.3981 7 12.0141 7C12.9661 7 13.7407 7.252 14.3381 7.756C14.9447 8.25067 15.2481 8.89 15.2481 9.674C15.2481 10.1407 15.1454 10.5747 14.9401 10.976C14.7347 11.3773 14.3707 11.8533 13.8481 12.404L10.7121 15.638L15.4301 15.61V16.926H8.79407Z" fill="black"/>
</svg>
