<svg width="24" height="25" viewBox="0 0 24 25" fill="none" xmlns="http://www.w3.org/2000/svg">
<mask id="path-1-inside-1_1466_39" fill="white">
<path fill-rule="evenodd" clip-rule="evenodd" d="M12 24.0275C18.6274 24.0275 24 18.6549 24 12.0275C24 5.40011 18.6274 0.0275269 12 0.0275269C5.37258 0.0275269 0 5.40011 0 12.0275C0 18.6549 5.37258 24.0275 12 24.0275ZM22.5882 12.0275C22.5882 17.8752 17.8477 22.6158 12 22.6158C6.15228 22.6158 1.41176 17.8752 1.41176 12.0275C1.41176 6.17981 6.15228 1.43929 12 1.43929C17.8477 1.43929 22.5882 6.17981 22.5882 12.0275Z"/>
</mask>
<path fill-rule="evenodd" clip-rule="evenodd" d="M12 24.0275C18.6274 24.0275 24 18.6549 24 12.0275C24 5.40011 18.6274 0.0275269 12 0.0275269C5.37258 0.0275269 0 5.40011 0 12.0275C0 18.6549 5.37258 24.0275 12 24.0275ZM22.5882 12.0275C22.5882 17.8752 17.8477 22.6158 12 22.6158C6.15228 22.6158 1.41176 17.8752 1.41176 12.0275C1.41176 6.17981 6.15228 1.43929 12 1.43929C17.8477 1.43929 22.5882 6.17981 22.5882 12.0275Z" fill="#29D305"/>
<path d="M21 12.0275C21 16.9981 16.9706 21.0275 12 21.0275V27.0275C20.2843 27.0275 27 20.3118 27 12.0275H21ZM12 3.02753C16.9706 3.02753 21 7.05696 21 12.0275H27C27 3.74325 20.2843 -2.97247 12 -2.97247V3.02753ZM3 12.0275C3 7.05696 7.02944 3.02753 12 3.02753V-2.97247C3.71573 -2.97247 -3 3.74325 -3 12.0275H3ZM12 21.0275C7.02944 21.0275 3 16.9981 3 12.0275H-3C-3 20.3118 3.71573 27.0275 12 27.0275V21.0275ZM12 25.6158C19.5046 25.6158 25.5882 19.5321 25.5882 12.0275H19.5882C19.5882 16.2184 16.1909 19.6158 12 19.6158V25.6158ZM-1.58824 12.0275C-1.58824 19.5321 4.49542 25.6158 12 25.6158V19.6158C7.80913 19.6158 4.41176 16.2184 4.41176 12.0275H-1.58824ZM12 -1.56071C4.49542 -1.56071 -1.58824 4.52295 -1.58824 12.0275H4.41176C4.41176 7.83666 7.80913 4.43929 12 4.43929V-1.56071ZM25.5882 12.0275C25.5882 4.52295 19.5046 -1.56071 12 -1.56071V4.43929C16.1909 4.43929 19.5882 7.83666 19.5882 12.0275H25.5882Z" fill="#29D305" mask="url(#path-1-inside-1_1466_39)"/>
<path d="M15.64 14.2515C15.64 14.6622 15.5467 15.0449 15.36 15.3995C15.1827 15.7542 14.9307 16.0575 14.604 16.3095C14.2867 16.5615 13.904 16.7622 13.456 16.9115C13.008 17.0515 12.518 17.1215 11.986 17.1215C11.2673 17.1215 10.5907 16.9955 9.956 16.7435C9.33067 16.4822 8.79867 16.1182 8.36 15.6515L9.396 14.6855C9.788 15.0869 10.18 15.3715 10.572 15.5395C10.964 15.6982 11.4307 15.7775 11.972 15.7775C12.5973 15.7775 13.106 15.6282 13.498 15.3295C13.8993 15.0215 14.1 14.6295 14.1 14.1535C14.1 13.7242 13.9367 13.3742 13.61 13.1035C13.2833 12.8235 12.868 12.6835 12.364 12.6835H11.146V11.4095H12.238C12.7047 11.4095 13.078 11.2789 13.358 11.0175C13.6473 10.7469 13.792 10.3875 13.792 9.93953C13.792 9.50086 13.6147 9.13219 13.26 8.83353C12.9053 8.53486 12.462 8.38553 11.93 8.38553C11.4447 8.38553 11.0153 8.47419 10.642 8.65153C10.278 8.81953 9.89533 9.11819 9.494 9.54753L8.458 8.58153C8.91533 8.08686 9.44733 7.70419 10.054 7.43353C10.67 7.16286 11.314 7.02753 11.986 7.02753C12.4713 7.02753 12.9193 7.09753 13.33 7.23753C13.7407 7.37753 14.0907 7.56886 14.38 7.81153C14.6787 8.05419 14.912 8.34353 15.08 8.67953C15.248 9.01553 15.332 9.37953 15.332 9.77153C15.332 10.3035 15.1547 10.7749 14.8 11.1855C14.4453 11.5869 13.988 11.8622 13.428 12.0115C14.0907 12.1422 14.6227 12.4129 15.024 12.8235C15.4347 13.2249 15.64 13.7009 15.64 14.2515Z" fill="black"/>
</svg>
