<svg width="24" height="24" viewBox="0 0 24 24" fill="none" xmlns="http://www.w3.org/2000/svg">
<path fill-rule="evenodd" clip-rule="evenodd" d="M12 24C18.6274 24 24 18.6274 24 12C24 5.37258 18.6274 0 12 0C5.37258 0 0 5.37258 0 12C0 18.6274 5.37258 24 12 24ZM22.5882 12C22.5882 17.8477 17.8477 22.5882 12 22.5882C6.15228 22.5882 1.41176 17.8477 1.41176 12C1.41176 6.15228 6.15228 1.41176 12 1.41176C17.8477 1.41176 22.5882 6.15228 22.5882 12Z" fill="#29D305"/>
<path d="M12.0663 16.8994C11.2637 16.8994 10.559 16.6988 9.95235 16.2974C9.34568 15.8961 8.86968 15.3361 8.52435 14.6174C8.17901 13.8988 8.00635 13.0634 8.00635 12.1114C8.00635 11.0474 8.19768 10.1188 8.58035 9.32542C8.96301 8.53209 9.49501 7.91609 10.1763 7.47742C10.867 7.02942 11.665 6.80542 12.5703 6.80542C13.0463 6.80542 13.5177 6.88009 13.9843 7.02942C14.451 7.17875 14.8477 7.38409 15.1743 7.64542L14.3343 8.77942C14.0543 8.57409 13.7603 8.42475 13.4523 8.33142C13.1443 8.22875 12.8083 8.17742 12.4443 8.17742C11.8377 8.17742 11.315 8.33142 10.8763 8.63942C10.447 8.94742 10.1157 9.39542 9.88235 9.98342C9.65835 10.5621 9.54168 11.2668 9.53235 12.0974C9.86835 11.6401 10.2743 11.2854 10.7503 11.0334C11.2263 10.7814 11.721 10.6554 12.2343 10.6554C12.8783 10.6554 13.4477 10.7861 13.9423 11.0474C14.437 11.2994 14.8243 11.6541 15.1043 12.1114C15.3843 12.5594 15.5243 13.0774 15.5243 13.6654C15.5243 14.2814 15.375 14.8368 15.0763 15.3314C14.7777 15.8168 14.367 16.1994 13.8443 16.4794C13.3217 16.7594 12.729 16.8994 12.0663 16.8994ZM11.9963 11.8594C11.539 11.8594 11.1003 11.9668 10.6803 12.1814C10.2697 12.3868 9.91035 12.6714 9.60235 13.0354C9.68635 13.5488 9.83568 13.9968 10.0503 14.3794C10.2743 14.7621 10.5543 15.0608 10.8903 15.2754C11.2263 15.4808 11.5997 15.5834 12.0103 15.5834C12.393 15.5834 12.7337 15.5041 13.0323 15.3454C13.331 15.1774 13.569 14.9534 13.7463 14.6734C13.9237 14.3841 14.0123 14.0574 14.0123 13.6934C14.0123 13.3388 13.9237 13.0261 13.7463 12.7554C13.5783 12.4754 13.345 12.2561 13.0463 12.0974C12.7477 11.9388 12.3977 11.8594 11.9963 11.8594Z" fill="black"/>
</svg>
