<svg width="24" height="24" viewBox="0 0 24 24" fill="none" xmlns="http://www.w3.org/2000/svg">
<path fill-rule="evenodd" clip-rule="evenodd" d="M12 24C18.6274 24 24 18.6274 24 12C24 5.37258 18.6274 0 12 0C5.37258 0 0 5.37258 0 12C0 18.6274 5.37258 24 12 24ZM22.5882 12C22.5882 17.8477 17.8477 22.5882 12 22.5882C6.15228 22.5882 1.41176 17.8477 1.41176 12C1.41176 6.15228 6.15228 1.41176 12 1.41176C17.8477 1.41176 22.5882 6.15228 22.5882 12Z" fill="#29D305"/>
<path d="M7.25114 16.7594V8.56942L5.51514 9.31142V7.95342L7.81114 6.95942H8.77714V16.7594H7.25114Z" fill="black"/>
<path d="M14.5003 16.8994C13.707 16.8994 13.007 16.6894 12.4003 16.2694C11.803 15.8401 11.3316 15.2474 10.9863 14.4914C10.6503 13.7261 10.4823 12.8488 10.4823 11.8594C10.4823 10.8514 10.6503 9.96942 10.9863 9.21342C11.3316 8.45742 11.803 7.86942 12.4003 7.44942C13.007 7.02009 13.707 6.80542 14.5003 6.80542C15.2936 6.80542 15.989 7.02009 16.5863 7.44942C17.193 7.86942 17.6643 8.45742 18.0003 9.21342C18.3363 9.96942 18.5043 10.8514 18.5043 11.8594C18.5043 12.8488 18.3363 13.7261 18.0003 14.4914C17.6643 15.2474 17.193 15.8401 16.5863 16.2694C15.989 16.6894 15.2936 16.8994 14.5003 16.8994ZM14.5003 15.5414C15.0043 15.5414 15.4383 15.3921 15.8023 15.0934C16.1756 14.7854 16.465 14.3561 16.6703 13.8054C16.8756 13.2548 16.9783 12.6061 16.9783 11.8594C16.9783 11.1034 16.8756 10.4501 16.6703 9.89942C16.465 9.34875 16.1756 8.92409 15.8023 8.62542C15.4383 8.31742 15.0043 8.16342 14.5003 8.16342C13.9963 8.16342 13.5576 8.31742 13.1843 8.62542C12.8203 8.92409 12.531 9.34875 12.3163 9.89942C12.111 10.4501 12.0083 11.1034 12.0083 11.8594C12.0083 12.6061 12.111 13.2548 12.3163 13.8054C12.531 14.3561 12.8203 14.7854 13.1843 15.0934C13.5576 15.3921 13.9963 15.5414 14.5003 15.5414Z" fill="black"/>
</svg>
