<svg width="24" height="24" viewBox="0 0 24 24" fill="none" xmlns="http://www.w3.org/2000/svg">
<path fill-rule="evenodd" clip-rule="evenodd" d="M12 24C18.6274 24 24 18.6274 24 12C24 5.37258 18.6274 0 12 0C5.37258 0 0 5.37258 0 12C0 18.6274 5.37258 24 12 24ZM22.5882 12C22.5882 17.8477 17.8477 22.5882 12 22.5882C6.15228 22.5882 1.41176 17.8477 1.41176 12C1.41176 6.15228 6.15228 1.41176 12 1.41176C17.8477 1.41176 22.5882 6.15228 22.5882 12Z" fill="#29D305"/>
<path d="M11.7334 6.80542C12.5361 6.80542 13.2407 7.01075 13.8474 7.42142C14.4541 7.82275 14.9301 8.38275 15.2754 9.10142C15.6207 9.82009 15.7934 10.6508 15.7934 11.5934C15.7934 12.6574 15.6021 13.5908 15.2194 14.3934C14.8367 15.1868 14.3047 15.8028 13.6234 16.2414C12.9421 16.6801 12.1441 16.8994 11.2294 16.8994C10.7627 16.8994 10.2914 16.8248 9.81539 16.6754C9.34872 16.5261 8.95206 16.3208 8.62539 16.0594L9.46539 14.9394C9.74539 15.1354 10.0394 15.2848 10.3474 15.3874C10.6647 15.4808 11.0007 15.5274 11.3554 15.5274C11.9621 15.5274 12.4801 15.3734 12.9094 15.0654C13.3387 14.7574 13.6701 14.3094 13.9034 13.7214C14.1367 13.1334 14.2581 12.4334 14.2674 11.6214C13.9314 12.0788 13.5254 12.4334 13.0494 12.6854C12.5734 12.9374 12.0787 13.0634 11.5654 13.0634C10.9214 13.0634 10.3521 12.9328 9.85739 12.6714C9.36272 12.4101 8.97539 12.0554 8.69539 11.6074C8.41539 11.1501 8.27539 10.6274 8.27539 10.0394C8.27539 9.41409 8.42472 8.85875 8.72339 8.37342C9.02206 7.88809 9.43272 7.50542 9.95539 7.22542C10.4874 6.94542 11.0801 6.80542 11.7334 6.80542ZM11.8034 11.8454C12.2607 11.8454 12.6947 11.7428 13.1054 11.5374C13.5254 11.3228 13.8894 11.0334 14.1974 10.6694C14.1134 10.1561 13.9594 9.70809 13.7354 9.32542C13.5207 8.94275 13.2501 8.64875 12.9234 8.44342C12.5967 8.22875 12.2187 8.12142 11.7894 8.12142C11.4067 8.12142 11.0614 8.20542 10.7534 8.37342C10.4547 8.53209 10.2167 8.75609 10.0394 9.04542C9.87139 9.32542 9.78739 9.64742 9.78739 10.0114C9.78739 10.3661 9.87139 10.6834 10.0394 10.9634C10.2167 11.2434 10.4547 11.4628 10.7534 11.6214C11.0614 11.7708 11.4114 11.8454 11.8034 11.8454Z" fill="black"/>
</svg>
