<svg width="24" height="24" viewBox="0 0 24 24" fill="none" xmlns="http://www.w3.org/2000/svg">
<mask id="path-1-inside-1" fill="white">
<path fill-rule="evenodd" clip-rule="evenodd" d="M12 24C18.6274 24 24 18.6274 24 12C24 5.37258 18.6274 0 12 0C5.37258 0 0 5.37258 0 12C0 18.6274 5.37258 24 12 24ZM22.5882 12C22.5882 17.8477 17.8477 22.5882 12 22.5882C6.15228 22.5882 1.41176 17.8477 1.41176 12C1.41176 6.15228 6.15228 1.41176 12 1.41176C17.8477 1.41176 22.5882 6.15228 22.5882 12Z"/>
</mask>
<path fill-rule="evenodd" clip-rule="evenodd" d="M12 24C18.6274 24 24 18.6274 24 12C24 5.37258 18.6274 0 12 0C5.37258 0 0 5.37258 0 12C0 18.6274 5.37258 24 12 24ZM22.5882 12C22.5882 17.8477 17.8477 22.5882 12 22.5882C6.15228 22.5882 1.41176 17.8477 1.41176 12C1.41176 6.15228 6.15228 1.41176 12 1.41176C17.8477 1.41176 22.5882 6.15228 22.5882 12Z" fill="#29D305"/>
<path d="M21 12C21 16.9706 16.9706 21 12 21V27C20.2843 27 27 20.2843 27 12H21ZM12 3C16.9706 3 21 7.02944 21 12H27C27 3.71573 20.2843 -3 12 -3V3ZM3 12C3 7.02944 7.02944 3 12 3V-3C3.71573 -3 -3 3.71573 -3 12H3ZM12 21C7.02944 21 3 16.9706 3 12H-3C-3 20.2843 3.71573 27 12 27V21ZM12 25.5882C19.5046 25.5882 25.5882 19.5046 25.5882 12H19.5882C19.5882 16.1909 16.1909 19.5882 12 19.5882V25.5882ZM-1.58824 12C-1.58824 19.5046 4.49542 25.5882 12 25.5882V19.5882C7.80913 19.5882 4.41176 16.1909 4.41176 12H-1.58824ZM12 -1.58824C4.49542 -1.58824 -1.58824 4.49542 -1.58824 12H4.41176C4.41176 7.80913 7.80913 4.41176 12 4.41176V-1.58824ZM25.5882 12C25.5882 4.49542 19.5046 -1.58824 12 -1.58824V4.41176C16.1909 4.41176 19.5882 7.80913 19.5882 12H25.5882Z" fill="#29D305" mask="url(#path-1-inside-1)"/>
<path d="M8.878 12.068L9.102 7H15.066V8.316H10.404L10.278 11.158C10.6047 10.99 10.936 10.8687 11.272 10.794C11.608 10.71 11.958 10.668 12.322 10.668C13.2927 10.668 14.0767 10.9433 14.674 11.494C15.2807 12.0353 15.584 12.7493 15.584 13.636C15.584 14.1307 15.4907 14.5833 15.304 14.994C15.1267 15.3953 14.8747 15.7407 14.548 16.03C14.2307 16.3193 13.8433 16.548 13.386 16.716C12.9287 16.8747 12.4247 16.954 11.874 16.954C11.2207 16.954 10.6 16.842 10.012 16.618C9.43333 16.394 8.906 16.0627 8.43 15.624L9.354 14.574C9.774 14.9473 10.1893 15.218 10.6 15.386C11.0107 15.5447 11.454 15.624 11.93 15.624C12.546 15.624 13.0453 15.4467 13.428 15.092C13.82 14.7373 14.016 14.2753 14.016 13.706C14.016 13.174 13.8153 12.7353 13.414 12.39C13.0127 12.0447 12.504 11.872 11.888 11.872C11.5613 11.872 11.2393 11.914 10.922 11.998C10.614 12.082 10.2873 12.2127 9.942 12.39L8.878 12.068Z" fill="black"/>
</svg>
