<svg width="24" height="24" viewBox="0 0 24 24" fill="none" xmlns="http://www.w3.org/2000/svg">
<mask id="path-1-inside-1" fill="white">
<path fill-rule="evenodd" clip-rule="evenodd" d="M12 24C18.6274 24 24 18.6274 24 12C24 5.37258 18.6274 0 12 0C5.37258 0 0 5.37258 0 12C0 18.6274 5.37258 24 12 24ZM22.5882 12C22.5882 17.8477 17.8477 22.5882 12 22.5882C6.15228 22.5882 1.41176 17.8477 1.41176 12C1.41176 6.15228 6.15228 1.41176 12 1.41176C17.8477 1.41176 22.5882 6.15228 22.5882 12Z"/>
</mask>
<path fill-rule="evenodd" clip-rule="evenodd" d="M12 24C18.6274 24 24 18.6274 24 12C24 5.37258 18.6274 0 12 0C5.37258 0 0 5.37258 0 12C0 18.6274 5.37258 24 12 24ZM22.5882 12C22.5882 17.8477 17.8477 22.5882 12 22.5882C6.15228 22.5882 1.41176 17.8477 1.41176 12C1.41176 6.15228 6.15228 1.41176 12 1.41176C17.8477 1.41176 22.5882 6.15228 22.5882 12Z" fill="#29D305"/>
<path d="M21 12C21 16.9706 16.9706 21 12 21V27C20.2843 27 27 20.2843 27 12H21ZM12 3C16.9706 3 21 7.02944 21 12H27C27 3.71573 20.2843 -3 12 -3V3ZM3 12C3 7.02944 7.02944 3 12 3V-3C3.71573 -3 -3 3.71573 -3 12H3ZM12 21C7.02944 21 3 16.9706 3 12H-3C-3 20.2843 3.71573 27 12 27V21ZM12 25.5882C19.5046 25.5882 25.5882 19.5046 25.5882 12H19.5882C19.5882 16.1909 16.1909 19.5882 12 19.5882V25.5882ZM-1.58824 12C-1.58824 19.5046 4.49542 25.5882 12 25.5882V19.5882C7.80913 19.5882 4.41176 16.1909 4.41176 12H-1.58824ZM12 -1.58824C4.49542 -1.58824 -1.58824 4.49542 -1.58824 12H4.41176C4.41176 7.80913 7.80913 4.41176 12 4.41176V-1.58824ZM25.5882 12C25.5882 4.49542 19.5046 -1.58824 12 -1.58824V4.41176C16.1909 4.41176 19.5882 7.80913 19.5882 12H25.5882Z" fill="#29D305" mask="url(#path-1-inside-1)"/>
<path d="M8.79401 16.926V15.82L12.812 11.62C13.1573 11.2467 13.4 10.9247 13.54 10.654C13.6893 10.374 13.764 10.08 13.764 9.772C13.764 9.36133 13.5913 9.02067 13.246 8.75C12.91 8.47 12.4853 8.33 11.972 8.33C11.524 8.33 11.104 8.42333 10.712 8.61C10.3293 8.79667 9.90467 9.10467 9.43801 9.534L8.57001 8.484C9.10201 7.98933 9.65267 7.62067 10.222 7.378C10.8007 7.126 11.398 7 12.014 7C12.966 7 13.7407 7.252 14.338 7.756C14.9447 8.25067 15.248 8.89 15.248 9.674C15.248 10.1407 15.1453 10.5747 14.94 10.976C14.7347 11.3773 14.3707 11.8533 13.848 12.404L10.712 15.638L15.43 15.61V16.926H8.79401Z" fill="black"/>
</svg>
