<svg width="24" height="24" fill="none" xmlns="http://www.w3.org/2000/svg"><mask id="a" fill="#fff"><path fill-rule="evenodd" clip-rule="evenodd" d="M12 24c6.627 0 12-5.373 12-12S18.627 0 12 0 0 5.373 0 12s5.373 12 12 12zm10.588-12c0 5.848-4.74 10.588-10.588 10.588-5.848 0-10.588-4.74-10.588-10.588C1.412 6.152 6.152 1.412 12 1.412c5.848 0 10.588 4.74 10.588 10.588z"/></mask><path fill-rule="evenodd" clip-rule="evenodd" d="M12 24c6.627 0 12-5.373 12-12S18.627 0 12 0 0 5.373 0 12s5.373 12 12 12zm10.588-12c0 5.848-4.74 10.588-10.588 10.588-5.848 0-10.588-4.74-10.588-10.588C1.412 6.152 6.152 1.412 12 1.412c5.848 0 10.588 4.74 10.588 10.588z" fill="#29D305"/><path d="M21 12a9 9 0 01-9 9v6c8.284 0 15-6.716 15-15h-6zm-9-9a9 9 0 019 9h6c0-8.284-6.716-15-15-15v6zm-9 9a9 9 0 019-9v-6C3.716-3-3 3.716-3 12h6zm9 9a9 9 0 01-9-9h-6c0 8.284 6.716 15 15 15v-6zm0 4.588c7.505 0 13.588-6.083 13.588-13.588h-6A7.588 7.588 0 0112 19.588v6zM-1.588 12c0 7.505 6.083 13.588 13.588 13.588v-6A7.588 7.588 0 014.412 12h-6zM12-1.588C4.495-1.588-1.588 4.495-1.588 12h6A7.588 7.588 0 0112 4.412v-6zM25.588 12c0-7.505-6.083-13.588-13.588-13.588v6A7.588 7.588 0 0119.588 12h6z" fill="#29D305" mask="url(#a)"/><path d="M15.64 14.224c0 .41-.093.793-.28 1.148-.177.355-.43.658-.756.91-.317.252-.7.453-1.148.602-.448.14-.938.21-1.47.21a5.45 5.45 0 01-2.03-.378 4.585 4.585 0 01-1.596-1.092l1.036-.966c.392.401.784.686 1.176.854.392.159.859.238 1.4.238.625 0 1.134-.15 1.526-.448.401-.308.602-.7.602-1.176a1.3 1.3 0 00-.49-1.05c-.327-.28-.742-.42-1.246-.42h-1.218v-1.274h1.092c.467 0 .84-.13 1.12-.392.29-.27.434-.63.434-1.078 0-.439-.177-.807-.532-1.106-.355-.299-.798-.448-1.33-.448-.485 0-.915.089-1.288.266-.364.168-.747.467-1.148.896l-1.036-.966A4.752 4.752 0 0111.986 7c.485 0 .933.07 1.344.21.41.14.76.331 1.05.574.299.243.532.532.7.868.168.336.252.7.252 1.092a2.1 2.1 0 01-.532 1.414 2.716 2.716 0 01-1.372.826c.663.13 1.195.401 1.596.812.41.401.616.877.616 1.428z" fill="#000"/></svg>