<svg width="24" height="24" viewBox="0 0 24 24" fill="none" xmlns="http://www.w3.org/2000/svg">
<path fill-rule="evenodd" clip-rule="evenodd" d="M12 24C18.6274 24 24 18.6274 24 12C24 5.37258 18.6274 0 12 0C5.37258 0 0 5.37258 0 12C0 18.6274 5.37258 24 12 24ZM22.5882 12C22.5882 17.8477 17.8477 22.5882 12 22.5882C6.15228 22.5882 1.41176 17.8477 1.41176 12C1.41176 6.15228 6.15228 1.41176 12 1.41176C17.8477 1.41176 22.5882 6.15228 22.5882 12Z" fill="#29D305"/>
<path d="M8.87805 12.068L9.10205 7H15.0661V8.316H10.4041L10.2781 11.158C10.6047 10.99 10.9361 10.8687 11.2721 10.794C11.6081 10.71 11.9581 10.668 12.3221 10.668C13.2927 10.668 14.0767 10.9433 14.6741 11.494C15.2807 12.0353 15.5841 12.7493 15.5841 13.636C15.5841 14.1307 15.4907 14.5833 15.3041 14.994C15.1267 15.3953 14.8747 15.7407 14.5481 16.03C14.2307 16.3193 13.8434 16.548 13.3861 16.716C12.9287 16.8747 12.4247 16.954 11.8741 16.954C11.2207 16.954 10.6001 16.842 10.0121 16.618C9.43339 16.394 8.90605 16.0627 8.43005 15.624L9.35405 14.574C9.77405 14.9473 10.1894 15.218 10.6001 15.386C11.0107 15.5447 11.4541 15.624 11.9301 15.624C12.5461 15.624 13.0454 15.4467 13.4281 15.092C13.8201 14.7373 14.0161 14.2753 14.0161 13.706C14.0161 13.174 13.8154 12.7353 13.4141 12.39C13.0127 12.0447 12.5041 11.872 11.8881 11.872C11.5614 11.872 11.2394 11.914 10.9221 11.998C10.6141 12.082 10.2874 12.2127 9.94205 12.39L8.87805 12.068Z" fill="black"/>
</svg>
