<svg width="24" height="25" viewBox="0 0 24 25" fill="none" xmlns="http://www.w3.org/2000/svg">
<mask id="path-1-inside-1_1466_13" fill="white">
<path fill-rule="evenodd" clip-rule="evenodd" d="M12 24.0275C18.6274 24.0275 24 18.6549 24 12.0275C24 5.40011 18.6274 0.0275269 12 0.0275269C5.37258 0.0275269 0 5.40011 0 12.0275C0 18.6549 5.37258 24.0275 12 24.0275ZM22.5882 12.0275C22.5882 17.8752 17.8477 22.6158 12 22.6158C6.15228 22.6158 1.41176 17.8752 1.41176 12.0275C1.41176 6.17981 6.15228 1.43929 12 1.43929C17.8477 1.43929 22.5882 6.17981 22.5882 12.0275Z"/>
</mask>
<path fill-rule="evenodd" clip-rule="evenodd" d="M12 24.0275C18.6274 24.0275 24 18.6549 24 12.0275C24 5.40011 18.6274 0.0275269 12 0.0275269C5.37258 0.0275269 0 5.40011 0 12.0275C0 18.6549 5.37258 24.0275 12 24.0275ZM22.5882 12.0275C22.5882 17.8752 17.8477 22.6158 12 22.6158C6.15228 22.6158 1.41176 17.8752 1.41176 12.0275C1.41176 6.17981 6.15228 1.43929 12 1.43929C17.8477 1.43929 22.5882 6.17981 22.5882 12.0275Z" fill="#29D305"/>
<path d="M21 12.0275C21 16.9981 16.9706 21.0275 12 21.0275V27.0275C20.2843 27.0275 27 20.3118 27 12.0275H21ZM12 3.02753C16.9706 3.02753 21 7.05696 21 12.0275H27C27 3.74325 20.2843 -2.97247 12 -2.97247V3.02753ZM3 12.0275C3 7.05696 7.02944 3.02753 12 3.02753V-2.97247C3.71573 -2.97247 -3 3.74325 -3 12.0275H3ZM12 21.0275C7.02944 21.0275 3 16.9981 3 12.0275H-3C-3 20.3118 3.71573 27.0275 12 27.0275V21.0275ZM12 25.6158C19.5046 25.6158 25.5882 19.5321 25.5882 12.0275H19.5882C19.5882 16.2184 16.1909 19.6158 12 19.6158V25.6158ZM-1.58824 12.0275C-1.58824 19.5321 4.49542 25.6158 12 25.6158V19.6158C7.80913 19.6158 4.41176 16.2184 4.41176 12.0275H-1.58824ZM12 -1.56071C4.49542 -1.56071 -1.58824 4.52295 -1.58824 12.0275H4.41176C4.41176 7.83666 7.80913 4.43929 12 4.43929V-1.56071ZM25.5882 12.0275C25.5882 4.52295 19.5046 -1.56071 12 -1.56071V4.43929C16.1909 4.43929 19.5882 7.83666 19.5882 12.0275H25.5882Z" fill="#29D305" mask="url(#path-1-inside-1_1466_13)"/>
<path d="M13.362 7.12753V16.9275H11.836V8.72353L10.1 9.47953V8.12153L12.396 7.12753H13.362Z" fill="black"/>
</svg>
