<svg width="24" height="24" viewBox="0 0 24 24" fill="none" xmlns="http://www.w3.org/2000/svg">
<mask id="path-1-inside-1" fill="white">
<path fill-rule="evenodd" clip-rule="evenodd" d="M12 24C18.6274 24 24 18.6274 24 12C24 5.37258 18.6274 0 12 0C5.37258 0 0 5.37258 0 12C0 18.6274 5.37258 24 12 24ZM22.5882 12C22.5882 17.8477 17.8477 22.5882 12 22.5882C6.15228 22.5882 1.41176 17.8477 1.41176 12C1.41176 6.15228 6.15228 1.41176 12 1.41176C17.8477 1.41176 22.5882 6.15228 22.5882 12Z"/>
</mask>
<path fill-rule="evenodd" clip-rule="evenodd" d="M12 24C18.6274 24 24 18.6274 24 12C24 5.37258 18.6274 0 12 0C5.37258 0 0 5.37258 0 12C0 18.6274 5.37258 24 12 24ZM22.5882 12C22.5882 17.8477 17.8477 22.5882 12 22.5882C6.15228 22.5882 1.41176 17.8477 1.41176 12C1.41176 6.15228 6.15228 1.41176 12 1.41176C17.8477 1.41176 22.5882 6.15228 22.5882 12Z" fill="#29D305"/>
<path d="M21 12C21 16.9706 16.9706 21 12 21V27C20.2843 27 27 20.2843 27 12H21ZM12 3C16.9706 3 21 7.02944 21 12H27C27 3.71573 20.2843 -3 12 -3V3ZM3 12C3 7.02944 7.02944 3 12 3V-3C3.71573 -3 -3 3.71573 -3 12H3ZM12 21C7.02944 21 3 16.9706 3 12H-3C-3 20.2843 3.71573 27 12 27V21ZM12 25.5882C19.5046 25.5882 25.5882 19.5046 25.5882 12H19.5882C19.5882 16.1909 16.1909 19.5882 12 19.5882V25.5882ZM-1.58824 12C-1.58824 19.5046 4.49542 25.5882 12 25.5882V19.5882C7.80913 19.5882 4.41176 16.1909 4.41176 12H-1.58824ZM12 -1.58824C4.49542 -1.58824 -1.58824 4.49542 -1.58824 12H4.41176C4.41176 7.80913 7.80913 4.41176 12 4.41176V-1.58824ZM25.5882 12C25.5882 4.49542 19.5046 -1.58824 12 -1.58824V4.41176C16.1909 4.41176 19.5882 7.80913 19.5882 12H25.5882Z" fill="#29D305" mask="url(#path-1-inside-1)"/>
<path d="M15.64 14.224C15.64 14.6347 15.5467 15.0173 15.36 15.372C15.1827 15.7267 14.9307 16.03 14.604 16.282C14.2867 16.534 13.904 16.7347 13.456 16.884C13.008 17.024 12.518 17.094 11.986 17.094C11.2673 17.094 10.5907 16.968 9.956 16.716C9.33067 16.4547 8.79867 16.0907 8.36 15.624L9.396 14.658C9.788 15.0593 10.18 15.344 10.572 15.512C10.964 15.6707 11.4307 15.75 11.972 15.75C12.5973 15.75 13.106 15.6007 13.498 15.302C13.8993 14.994 14.1 14.602 14.1 14.126C14.1 13.6967 13.9367 13.3467 13.61 13.076C13.2833 12.796 12.868 12.656 12.364 12.656H11.146V11.382H12.238C12.7047 11.382 13.078 11.2513 13.358 10.99C13.6473 10.7193 13.792 10.36 13.792 9.912C13.792 9.47333 13.6147 9.10467 13.26 8.806C12.9053 8.50733 12.462 8.358 11.93 8.358C11.4447 8.358 11.0153 8.44667 10.642 8.624C10.278 8.792 9.89533 9.09067 9.494 9.52L8.458 8.554C8.91533 8.05933 9.44733 7.67667 10.054 7.406C10.67 7.13533 11.314 7 11.986 7C12.4713 7 12.9193 7.07 13.33 7.21C13.7407 7.35 14.0907 7.54133 14.38 7.784C14.6787 8.02667 14.912 8.316 15.08 8.652C15.248 8.988 15.332 9.352 15.332 9.744C15.332 10.276 15.1547 10.7473 14.8 11.158C14.4453 11.5593 13.988 11.8347 13.428 11.984C14.0907 12.1147 14.6227 12.3853 15.024 12.796C15.4347 13.1973 15.64 13.6733 15.64 14.224Z" fill="black"/>
</svg>
