<svg width="24" height="24" viewBox="0 0 24 24" fill="none" xmlns="http://www.w3.org/2000/svg">
<g id="stop_circle-color">
<path id="Icon" d="M15.6199 7.5L8.38015 7.5C7.89405 7.5 7.5 7.86631 7.5 8.31818V15.6818C7.5 16.1337 7.89405 16.5 8.38015 16.5H15.6199C16.1059 16.5 16.5 16.1337 16.5 15.6818V8.31818C16.5 7.86631 16.1059 7.5 15.6199 7.5Z" fill="black"/>
<path id="Color" fill-rule="evenodd" clip-rule="evenodd" d="M12 1.7561C6.34245 1.7561 1.7561 6.34245 1.7561 12C1.7561 17.6576 6.34245 22.2439 12 22.2439C17.6576 22.2439 22.2439 17.6576 22.2439 12C22.2439 6.34245 17.6576 1.7561 12 1.7561ZM0 12C0 5.37258 5.37258 0 12 0C18.6274 0 24 5.37258 24 12C24 18.6274 18.6274 24 12 24C5.37258 24 0 18.6274 0 12Z" fill="#29D305"/>
</g>
</svg>
