<svg width="24" height="24" viewBox="0 0 24 24" fill="none" xmlns="http://www.w3.org/2000/svg">
<path fill-rule="evenodd" clip-rule="evenodd" d="M6 19.5C6.41421 19.5 6.75 19.8358 6.75 20.25V21C6.75 21.4142 6.41421 21.75 6 21.75C5.58579 21.75 5.25 21.4142 5.25 21V20.25C5.25 19.8358 5.58579 19.5 6 19.5Z" fill="black"/>
<path fill-rule="evenodd" clip-rule="evenodd" d="M9 18C9.41421 18 9.75 18.3358 9.75 18.75V21C9.75 21.4142 9.41421 21.75 9 21.75C8.58579 21.75 8.25 21.4142 8.25 21V18.75C8.25 18.3358 8.58579 18 9 18Z" fill="black"/>
<path fill-rule="evenodd" clip-rule="evenodd" d="M12 19.5C12.4142 19.5 12.75 19.8358 12.75 20.25V21C12.75 21.4142 12.4142 21.75 12 21.75C11.5858 21.75 11.25 21.4142 11.25 21V20.25C11.25 19.8358 11.5858 19.5 12 19.5Z" fill="black"/>
<path fill-rule="evenodd" clip-rule="evenodd" d="M18 19.5C18.4142 19.5 18.75 19.8358 18.75 20.25V21C18.75 21.4142 18.4142 21.75 18 21.75C17.5858 21.75 17.25 21.4142 17.25 21V20.25C17.25 19.8358 17.5858 19.5 18 19.5Z" fill="black"/>
<path fill-rule="evenodd" clip-rule="evenodd" d="M15 18C15.4142 18 15.75 18.3358 15.75 18.75V21C15.75 21.4142 15.4142 21.75 15 21.75C14.5858 21.75 14.25 21.4142 14.25 21V18.75C14.25 18.3358 14.5858 18 15 18Z" fill="black"/>
<path fill-rule="evenodd" clip-rule="evenodd" d="M3.75 23.25C3.75 22.8358 4.08579 22.5 4.5 22.5H19.5C19.9142 22.5 20.25 22.8358 20.25 23.25C20.25 23.6642 19.9142 24 19.5 24H4.5C4.08579 24 3.75 23.6642 3.75 23.25Z" fill="black"/>
<path fill-rule="evenodd" clip-rule="evenodd" d="M5.25 3.75C5.25 3.33579 5.58579 3 6 3H18C18.4142 3 18.75 3.33579 18.75 3.75V14.75C18.75 15.2141 18.5656 15.6592 18.2374 15.9874C17.9093 16.3156 17.4641 16.5 17 16.5H7C6.53584 16.5 6.09073 16.3156 5.76256 15.9874C5.43438 15.6592 5.25 15.2141 5.25 14.75V3.75ZM6.75 4.5V14.75C6.75 14.8163 6.77633 14.8799 6.82322 14.9268C6.87013 14.9737 6.93372 15 7 15H17C17.0663 15 17.1299 14.9737 17.1768 14.9268C17.2237 14.8799 17.25 14.8163 17.25 14.75V4.5H6.75Z" fill="black"/>
<path fill-rule="evenodd" clip-rule="evenodd" d="M3.75 3.75C3.75 3.33579 4.08579 3 4.5 3H19.5C19.9142 3 20.25 3.33579 20.25 3.75C20.25 4.16421 19.9142 4.5 19.5 4.5H4.5C4.08579 4.5 3.75 4.16421 3.75 3.75Z" fill="black"/>
<path fill-rule="evenodd" clip-rule="evenodd" d="M2.25 6.75C2.25 6.33579 2.58579 6 3 6H6C6.41421 6 6.75 6.33579 6.75 6.75C6.75 7.16421 6.41421 7.5 6 7.5H3C2.58579 7.5 2.25 7.16421 2.25 6.75Z" fill="black"/>
<path fill-rule="evenodd" clip-rule="evenodd" d="M17.25 6.75C17.25 6.33579 17.5858 6 18 6H21C21.4142 6 21.75 6.33579 21.75 6.75C21.75 7.16421 21.4142 7.5 21 7.5H18C17.5858 7.5 17.25 7.16421 17.25 6.75Z" fill="black"/>
<path fill-rule="evenodd" clip-rule="evenodd" d="M12 1.5C11.4032 1.5 10.8309 1.73704 10.409 2.15899C9.98705 2.58094 9.75 3.15325 9.75 3.75C9.75 4.16421 9.41421 4.5 9 4.5C8.58579 4.5 8.25 4.16421 8.25 3.75C8.25 2.75545 8.64507 1.8016 9.34834 1.09833C10.0516 0.395062 11.0054 0 12 0C12.9945 0 13.9484 0.395062 14.6516 1.09833C15.3549 1.8016 15.75 2.75544 15.75 3.75C15.75 4.16421 15.4142 4.5 15 4.5C14.5858 4.5 14.25 4.16421 14.25 3.75C14.25 3.15326 14.0129 2.58095 13.591 2.15899C13.169 1.73704 12.5967 1.5 12 1.5Z" fill="black"/>
</svg>
