<svg width="24" height="25" viewBox="0 0 24 25" fill="none" xmlns="http://www.w3.org/2000/svg">
<path d="M7.5 12.7758C7.086 12.7758 6.75 12.4402 6.75 12.0267C6.75 11.6131 7.086 11.2775 7.5 11.2775H16.5C16.914 11.2775 17.25 11.6131 17.25 12.0267C17.25 12.4402 16.914 12.7758 16.5 12.7758H7.5Z" fill="black"/>
<path d="M12 24.0275C5.383 24.0275 0 18.6445 0 12.0275C0 5.41053 5.383 0.0275269 12 0.0275269C18.617 0.0275269 24 5.41053 24 12.0275C24 18.6445 18.617 24.0275 12 24.0275ZM12 1.52753C6.21 1.52753 1.5 6.23753 1.5 12.0275C1.5 17.8175 6.21 22.5275 12 22.5275C17.79 22.5275 22.5 17.8175 22.5 12.0275C22.5 6.23753 17.79 1.52753 12 1.52753Z" fill="black"/>
</svg>
