<svg width="24" height="24" viewBox="0 0 24 24" fill="none" xmlns="http://www.w3.org/2000/svg">
<path fill-rule="evenodd" clip-rule="evenodd" d="M16.8741 23.249C16.8741 23.663 17.2166 23.999 17.6386 23.999C18.0606 23.999 18.403 23.663 18.401 23.25V19.472C20.509 18.152 22.0644 16.05 22.6852 13.674C23.3437 11.154 22.9614 8.533 21.6108 6.295C20.3683 4.236 18.4224 2.715 16.1075 1.988V1.5C16.1075 0.673 15.4215 0 14.5786 0H11.5206C10.6776 0 9.99165 0.673 9.99165 1.5V1.867C5.9256 2.917 3.11228 6.126 3.11228 9.761V10.284L1.38556 12.824C1.2398 13.039 1.13379 13.275 1.06957 13.526C0.920751 14.109 1.01249 14.713 1.32746 15.229C1.64243 15.745 2.14393 16.109 2.73819 16.255L3.69329 16.489C3.75343 16.503 3.81561 16.511 3.87779 16.511C4.22945 16.511 4.53423 16.277 4.61883 15.943C4.66878 15.749 4.6382 15.547 4.53321 15.375C4.42822 15.204 4.26105 15.082 4.0633 15.034L3.10922 14.8C2.91148 14.751 2.74431 14.63 2.63932 14.458C2.53433 14.286 2.50375 14.084 2.5537 13.89C2.57408 13.806 2.60976 13.728 2.65869 13.656L4.51384 10.927C4.59845 10.803 4.64228 10.659 4.64228 10.511V9.761C4.64228 6.897 6.77163 4.401 9.99267 3.427V7.899C9.0182 8.754 8.46369 9.965 8.46369 11.25C8.46369 12.954 9.42389 14.476 10.9467 15.245C9.64814 16.978 7.60849 18 5.40574 18H3.87677C3.45579 18 3.11228 18.336 3.11228 18.75C3.11228 19.164 3.45477 19.5 3.87677 19.5H5.40574C8.2476 19.5 10.9325 18.055 12.4757 15.712C12.6704 15.738 12.861 15.75 13.0506 15.75C15.5795 15.75 17.6375 13.731 17.6375 11.25C17.6375 9.966 17.083 8.754 16.1086 7.899V3.576C17.8587 4.24 19.3327 5.462 20.2969 7.059C21.4396 8.952 21.7627 11.169 21.2062 13.301C20.6476 15.44 19.2083 17.298 17.2573 18.399C17.0209 18.532 16.8741 18.782 16.8741 19.049V23.249ZM13.8151 11.25C13.8151 10.836 13.4726 10.5 13.0506 10.5C12.6296 10.5 12.2861 10.836 12.2861 11.25C12.2861 12.188 12.0935 13.092 11.7133 13.943C10.6715 13.445 9.99267 12.401 9.99267 11.25C9.99267 9.596 11.3647 8.25 13.0506 8.25C14.7366 8.25 16.1086 9.596 16.1086 11.25C16.1086 12.841 14.8395 14.147 13.2412 14.244C13.6225 13.291 13.8151 12.286 13.8151 11.25ZM14.5796 7.01C14.0893 6.837 13.5766 6.75 13.0506 6.75C12.5247 6.75 12.0119 6.837 11.5216 7.01V1.5H14.5796V7.01ZM7.70022 23.25C7.70022 23.664 8.04271 24 8.46471 24C8.88671 24 9.2292 23.664 9.23022 23.252V21.013C9.23022 20.793 9.13134 20.584 8.9601 20.441C8.82249 20.326 8.64717 20.263 8.46675 20.263C8.42394 20.263 8.38113 20.266 8.34035 20.273L7.31084 20.44C7.18445 20.461 7.05601 20.472 6.92962 20.472C6.73901 20.472 6.54839 20.447 6.36186 20.4C6.29968 20.384 6.23546 20.376 6.17125 20.376C5.82366 20.376 5.51888 20.607 5.43122 20.938C5.32521 21.338 5.57189 21.748 5.97962 21.852C6.29153 21.931 6.61159 21.971 6.92962 21.971C7.14062 21.971 7.35467 21.953 7.56363 21.918L7.70022 21.896V23.25Z" fill="black"/>
</svg>
