<svg width="24" height="24" fill="none" xmlns="http://www.w3.org/2000/svg"><path d="M17.639 23.999a.758.758 0 01-.765-.75v-4.2a.75.75 0 01.383-.65c1.951-1.101 3.39-2.959 3.95-5.098a8.051 8.051 0 00-.91-6.242 8.337 8.337 0 00-4.188-3.483v4.323a4.448 4.448 0 011.528 3.351c0 2.481-2.058 4.5-4.586 4.5-.19 0-.38-.012-.575-.038-1.544 2.343-4.228 3.788-7.07 3.788h-1.53a.758.758 0 01-.764-.75c0-.414.344-.75.765-.75h1.529a6.898 6.898 0 005.54-2.755c-1.522-.769-2.482-2.291-2.482-3.995 0-1.285.554-2.496 1.529-3.351V3.427c-3.221.974-5.35 3.47-5.35 6.334v.75a.735.735 0 01-.13.416L2.66 13.656a.732.732 0 00-.02.802.76.76 0 00.47.342l.954.234c.198.048.365.17.47.341a.732.732 0 01.086.568.76.76 0 01-.926.546l-.955-.234a2.275 2.275 0 01-1.41-1.026 2.198 2.198 0 01-.258-1.703c.064-.251.17-.487.316-.702l1.726-2.54v-.523c0-3.635 2.814-6.844 6.88-7.894V1.5c0-.827.686-1.5 1.529-1.5h3.058c.842 0 1.529.673 1.529 1.5v.488a9.841 9.841 0 015.503 4.307 9.516 9.516 0 011.074 7.379c-.62 2.376-2.176 4.478-4.284 5.798v3.778a.754.754 0 01-.762.749zM13.05 10.5c.422 0 .764.336.764.75a8.014 8.014 0 01-.574 2.994c1.598-.097 2.868-1.403 2.868-2.994 0-1.654-1.372-3-3.058-3-1.686 0-3.058 1.346-3.058 3a3 3 0 001.72 2.693c.38-.851.573-1.755.573-2.693 0-.414.344-.75.765-.75zm0-3.75c.526 0 1.038.087 1.529.26V1.5h-3.058v5.51a4.575 4.575 0 011.529-.26z" fill="#000"/><path d="M8.465 24a.758.758 0 01-.765-.75v-1.354l-.136.022a3.856 3.856 0 01-1.584-.066.75.75 0 01-.549-.914.763.763 0 01.93-.538 2.325 2.325 0 00.95.04l1.03-.167a.77.77 0 01.62.168c.17.143.27.352.27.572v2.239a.759.759 0 01-.766.748z" fill="#000"/></svg>