<svg width="24" height="24" viewBox="0 0 24 24" fill="none" xmlns="http://www.w3.org/2000/svg">
<path d="M0.75 19.499H4.917C4.92287 19.4994 4.92923 19.4998 4.93552 19.5003C4.94744 19.5011 4.95915 19.502 4.967 19.502C4.981 19.502 4.996 19.501 5.012 19.499H5.25C5.664 19.499 6 19.163 6 18.749V14.249C6 13.835 5.664 13.498 5.25 13.498C4.836 13.498 4.5 13.834 4.5 14.248V16.969C3.494 15.451 2.971 13.655 3.011 11.811C3.063 9.407 4.049 7.16701 5.786 5.504C7.47 3.892 9.682 3.004 12.014 3.004C13.204 3.004 14.365 3.23601 15.465 3.69301C15.557 3.73201 15.654 3.751 15.753 3.751C16.057 3.751 16.329 3.57 16.446 3.289C16.523 3.104 16.523 2.9 16.447 2.715C16.37 2.53 16.226 2.386 16.041 2.309C14.757 1.776 13.402 1.505 12.014 1.505C9.293 1.505 6.713 2.541 4.749 4.421C2.723 6.36 1.573 8.974 1.512 11.779C1.463 14.005 2.125 16.186 3.387 17.999H0.75C0.336 17.999 0 18.335 0 18.749C0 19.163 0.336 19.499 0.75 19.499Z" fill="black"/>
<path d="M7.95699 21.693C9.24499 22.229 10.603 22.501 11.995 22.501C14.72 22.501 17.303 21.462 19.269 19.576C21.293 17.633 22.439 15.018 22.497 12.214C22.542 9.98899 21.878 7.80999 20.615 5.99899H23.25C23.664 5.99899 24 5.66299 24 5.24899C24 4.83499 23.664 4.49899 23.25 4.49899H18.75C18.336 4.49899 18 4.83499 18 5.24899V9.74899C18 10.162 18.335 10.499 18.749 10.499C19.163 10.499 19.499 10.163 19.499 9.74899V7.02499C20.508 8.54299 21.034 10.338 20.996 12.183C20.947 14.587 19.964 16.828 18.229 18.493C16.545 20.11 14.331 21.001 11.995 21.001C10.802 21.001 9.63799 20.767 8.53299 20.307C8.44099 20.269 8.34499 20.25 8.24599 20.25C7.94199 20.25 7.66999 20.431 7.55299 20.712C7.47599 20.897 7.47599 21.101 7.55199 21.286C7.62799 21.472 7.77199 21.616 7.95699 21.693Z" fill="black"/>
</svg>
