<svg width="24" height="24" fill="none" xmlns="http://www.w3.org/2000/svg"><g clip-path="url(#clip0)" fill="#000"><path fill-rule="evenodd" clip-rule="evenodd" d="M7.762 23.282c.408.513 1.021.718 1.634.718.612 0 1.225-.308 1.634-.718l11.847-11.795C23.592 10.667 24 9.744 24 8.718V2.256C24 1.026 22.979 0 21.753 0H15.32c-1.021 0-2.042.41-2.757 1.128L.715 12.923C.205 13.333 0 13.95 0 14.564c0 .616.306 1.23.715 1.641l7.047 7.077zm5.923-21.026c.409-.512 1.021-.718 1.634-.718l6.434-.102c.51 0 .817.41.817.82v6.36c0 .615-.306 1.23-.715 1.64L10.008 22.154a.799.799 0 01-1.123 0l-7.047-7.077a.785.785 0 01-.204-.513c0-.205.102-.41.204-.513L13.685 2.256z"/><ellipse cx="17.798" cy="6.128" rx="1.353" ry="1.359"/></g><defs><clipPath id="clip0"><path fill="#fff" d="M0 0h24v24H0z"/></clipPath></defs></svg>