<svg width="24" height="24" viewBox="0 0 24 24" fill="none" xmlns="http://www.w3.org/2000/svg">
<path d="M17.7979 7.48717C18.5452 7.48717 19.1511 6.87874 19.1511 6.1282C19.1511 5.37766 18.5452 4.76923 17.7979 4.76923C17.0505 4.76923 16.4447 5.37766 16.4447 6.1282C16.4447 6.87874 17.0505 7.48717 17.7979 7.48717Z" fill="black"/>
<path fill-rule="evenodd" clip-rule="evenodd" d="M9.39575 24C8.78298 24 8.17021 23.7949 7.7617 23.2821L0.714894 16.2051C0.306383 15.7949 0 15.1795 0 14.5641C0 13.9487 0.204255 13.3333 0.714894 12.9231L12.5617 1.12821C13.2766 0.410256 14.2979 0 15.3191 0H21.7532C22.9787 0 24 1.02564 24 2.25641V8.71795C24 9.74359 23.5915 10.6667 22.8766 11.4872L11.0298 23.2821C10.6213 23.6923 10.0085 24 9.39575 24ZM15.3191 1.53846C14.7064 1.53846 14.0936 1.74359 13.6851 2.25641L1.8383 14.0513C1.73617 14.1538 1.63404 14.359 1.63404 14.5641C1.63404 14.7692 1.73617 14.9744 1.8383 15.0769L8.88511 22.1538C9.19149 22.4615 9.70213 22.4615 10.0085 22.1538L21.8553 10.2564C22.2638 9.84615 22.5702 9.23077 22.5702 8.61539V2.25641C22.5702 1.84615 22.2638 1.4359 21.7532 1.4359L15.3191 1.53846Z" fill="black"/>
</svg>
