<svg width="24" height="24" viewBox="0 0 24 24" fill="none" xmlns="http://www.w3.org/2000/svg">
<g clip-path="url(#clip0)">
<path fill-rule="evenodd" clip-rule="evenodd" d="M7.7617 23.2821C8.17021 23.7949 8.78298 24 9.39575 24C10.0085 24 10.6213 23.6923 11.0298 23.2821L22.8766 11.4872C23.5915 10.6667 24 9.74359 24 8.71795V2.25641C24 1.02564 22.9787 0 21.7532 0H15.3191C14.2979 0 13.2766 0.410256 12.5617 1.12821L0.714894 12.9231C0.204255 13.3333 0 13.9487 0 14.5641C0 15.1795 0.306383 15.7949 0.714894 16.2051L7.7617 23.2821ZM13.6851 2.25641C14.0936 1.74359 14.7064 1.53846 15.3191 1.53846L21.7532 1.4359C22.2638 1.4359 22.5702 1.84615 22.5702 2.25641V8.61539C22.5702 9.23077 22.2638 9.84615 21.8553 10.2564L10.0085 22.1538C9.70213 22.4615 9.19149 22.4615 8.88511 22.1538L1.8383 15.0769C1.73617 14.9744 1.63404 14.7692 1.63404 14.5641C1.63404 14.359 1.73617 14.1538 1.8383 14.0513L13.6851 2.25641Z" fill="black"/>
<ellipse cx="17.7979" cy="6.1282" rx="1.35319" ry="1.35897" fill="black"/>
</g>
<defs>
<clipPath id="clip0">
<rect width="24" height="24" fill="white"/>
</clipPath>
</defs>
</svg>
