<svg width="24" height="24" viewBox="0 0 24 24" fill="none" xmlns="http://www.w3.org/2000/svg">
<g clip-path="url(#clip0)">
<path fill-rule="evenodd" clip-rule="evenodd" d="M13.0606 1.49902C12.9621 1.49898 12.8646 1.51834 12.7736 1.556C12.6826 1.59363 12.6 1.6488 12.5303 1.71835C12.5303 1.71841 12.5304 1.7183 12.5303 1.71835L2.03031 12.2184C1.96062 12.288 1.90516 12.3709 1.86744 12.4619C1.82972 12.5529 1.8103 12.6505 1.8103 12.749C1.8103 12.8476 1.82972 12.9451 1.86744 13.0361C1.90516 13.1272 1.96045 13.2099 2.03014 13.2795L7.40923 18.6576C7.40924 18.6576 7.40922 18.6576 7.40923 18.6576C7.54988 18.7982 7.74062 18.8772 7.93948 18.8772C8.13835 18.8772 8.32909 18.7982 8.46973 18.6576C8.76267 18.3648 9.23754 18.3648 9.53039 18.6578C9.82324 18.9507 9.82317 19.4256 9.53023 19.7184C9.1083 20.1402 8.5361 20.3772 7.93948 20.3772C7.34286 20.3772 6.77067 20.1402 6.34873 19.7184L0.969822 14.3405C0.760737 14.1316 0.594875 13.8835 0.481712 13.6104C0.368549 13.3373 0.310303 13.0446 0.310303 12.749C0.310303 12.4534 0.368549 12.1607 0.481712 11.8877C0.594875 11.6146 0.760737 11.3665 0.969822 11.1575L11.4697 0.657693C11.6787 0.448793 11.927 0.282949 12.2001 0.169962C12.473 0.057018 12.7656 -0.00106575 13.061 -0.00097646H18.439C19.0357 -0.00097646 19.608 0.236076 20.03 0.658033C20.4519 1.07999 20.689 1.65229 20.689 2.24902V7.62802C20.6889 8.22434 20.452 8.79638 20.0305 9.21818C19.7377 9.51117 19.2628 9.51132 18.9698 9.21852C18.6768 8.92572 18.6767 8.45085 18.9695 8.15786C19.11 8.0173 19.1889 7.82674 19.189 7.62802C19.189 7.62797 19.189 7.62808 19.189 7.62802V2.24902C19.189 2.05011 19.11 1.85934 18.9693 1.71869C18.8287 1.57804 18.6379 1.49902 18.439 1.49902L13.0606 1.49902Z" fill="black"/>
<path fill-rule="evenodd" clip-rule="evenodd" d="M16.939 11.999C14.0395 11.999 11.689 14.3495 11.689 17.249C11.689 20.1485 14.0395 22.499 16.939 22.499C19.8385 22.499 22.189 20.1485 22.189 17.249C22.189 14.3495 19.8385 11.999 16.939 11.999ZM10.189 17.249C10.189 13.5211 13.2111 10.499 16.939 10.499C20.6669 10.499 23.689 13.5211 23.689 17.249C23.689 20.9769 20.6669 23.999 16.939 23.999C13.2111 23.999 10.189 20.9769 10.189 17.249Z" fill="black"/>
<path fill-rule="evenodd" clip-rule="evenodd" d="M16.939 14.249C17.3532 14.249 17.689 14.5848 17.689 14.999V19.499C17.689 19.9132 17.3532 20.249 16.939 20.249C16.5248 20.249 16.189 19.9132 16.189 19.499V14.999C16.189 14.5848 16.5248 14.249 16.939 14.249Z" fill="black"/>
<path fill-rule="evenodd" clip-rule="evenodd" d="M13.939 17.249C13.939 16.8348 14.2748 16.499 14.689 16.499H19.189C19.6032 16.499 19.939 16.8348 19.939 17.249C19.939 17.6632 19.6032 17.999 19.189 17.999H14.689C14.2748 17.999 13.939 17.6632 13.939 17.249Z" fill="black"/>
<path d="M17.5 4.44995C17.5 5.14031 16.9404 5.69995 16.25 5.69995C15.5596 5.69995 15 5.14031 15 4.44995C15 3.7596 15.5596 3.19995 16.25 3.19995C16.9404 3.19995 17.5 3.7596 17.5 4.44995Z" fill="black"/>
</g>
<defs>
<clipPath id="clip0">
<rect width="24" height="24" fill="white"/>
</clipPath>
</defs>
</svg>
