<svg width="24" height="24" viewBox="0 0 24 24" fill="none" xmlns="http://www.w3.org/2000/svg">
<path fill-rule="evenodd" clip-rule="evenodd" d="M2.99999 1.45005C2.14395 1.45005 1.44999 2.14401 1.44999 3.00005C1.44999 3.85609 2.14395 4.55005 2.99999 4.55005C3.85603 4.55005 4.54999 3.85609 4.54999 3.00005C4.54999 2.14401 3.85603 1.45005 2.99999 1.45005ZM0.0499878 3.00005C0.0499878 1.37081 1.37075 0.0500488 2.99999 0.0500488C4.62923 0.0500488 5.94999 1.37081 5.94999 3.00005C5.94999 4.62929 4.62923 5.95005 2.99999 5.95005C1.37075 5.95005 0.0499878 4.62929 0.0499878 3.00005Z" fill="black"/>
<path fill-rule="evenodd" clip-rule="evenodd" d="M4.2553 3.91011C4.48224 3.59713 4.91993 3.52738 5.23291 3.75432L7.16091 5.15232C7.47389 5.37926 7.54364 5.81696 7.3167 6.12994C7.08976 6.44292 6.65206 6.51266 6.33908 6.28572L4.41108 4.88772C4.0981 4.66078 4.02836 4.22309 4.2553 3.91011Z" fill="black"/>
<path fill-rule="evenodd" clip-rule="evenodd" d="M2.99999 19.45C2.14395 19.45 1.44999 20.144 1.44999 21C1.44999 21.8561 2.14395 22.55 2.99999 22.55C3.85603 22.55 4.54999 21.8561 4.54999 21C4.54999 20.144 3.85603 19.45 2.99999 19.45ZM0.0499878 21C0.0499878 19.3708 1.37075 18.05 2.99999 18.05C4.62923 18.05 5.94999 19.3708 5.94999 21C5.94999 22.6293 4.62923 23.95 2.99999 23.95C1.37075 23.95 0.0499878 22.6293 0.0499878 21Z" fill="black"/>
<path fill-rule="evenodd" clip-rule="evenodd" d="M7.31656 17.8689C7.54361 18.1818 7.47401 18.6195 7.16111 18.8466L5.23311 20.2456C4.9202 20.4726 4.48249 20.403 4.25544 20.0901C4.02839 19.7772 4.09799 19.3395 4.41089 19.1124L6.33889 17.7134C6.65179 17.4864 7.08951 17.556 7.31656 17.8689Z" fill="black"/>
<path fill-rule="evenodd" clip-rule="evenodd" d="M21 1.45005C20.1439 1.45005 19.45 2.14401 19.45 3.00005C19.45 3.85609 20.1439 4.55005 21 4.55005C21.856 4.55005 22.55 3.85609 22.55 3.00005C22.55 2.14401 21.856 1.45005 21 1.45005ZM18.05 3.00005C18.05 1.37081 19.3707 0.0500488 21 0.0500488C22.6292 0.0500488 23.95 1.37081 23.95 3.00005C23.95 4.62929 22.6292 5.95005 21 5.95005C19.3707 5.95005 18.05 4.62929 18.05 3.00005Z" fill="black"/>
<path fill-rule="evenodd" clip-rule="evenodd" d="M19.7447 3.91011C19.9716 4.22309 19.9019 4.66078 19.5889 4.88772L17.6609 6.28572C17.3479 6.51266 16.9102 6.44292 16.6833 6.12994C16.4563 5.81696 16.5261 5.37926 16.8391 5.15232L18.7671 3.75432C19.08 3.52738 19.5177 3.59713 19.7447 3.91011Z" fill="black"/>
<path fill-rule="evenodd" clip-rule="evenodd" d="M21 19.45C20.1439 19.45 19.45 20.144 19.45 21C19.45 21.8561 20.1439 22.55 21 22.55C21.856 22.55 22.55 21.8561 22.55 21C22.55 20.144 21.856 19.45 21 19.45ZM18.05 21C18.05 19.3708 19.3707 18.05 21 18.05C22.6292 18.05 23.95 19.3708 23.95 21C23.95 22.6293 22.6292 23.95 21 23.95C19.3707 23.95 18.05 22.6293 18.05 21Z" fill="black"/>
<path fill-rule="evenodd" clip-rule="evenodd" d="M16.6834 17.8689C16.9105 17.556 17.3482 17.4864 17.6611 17.7134L19.5891 19.1124C19.902 19.3395 19.9716 19.7772 19.7445 20.0901C19.5175 20.403 19.0798 20.4726 18.7669 20.2456L16.8389 18.8466C16.526 18.6195 16.4564 18.1818 16.6834 17.8689Z" fill="black"/>
<path fill-rule="evenodd" clip-rule="evenodd" d="M12 5.95005C10.9368 5.95005 10.075 6.8119 10.075 7.87505C10.075 8.9382 10.9368 9.80005 12 9.80005C13.0631 9.80005 13.925 8.9382 13.925 7.87505C13.925 6.8119 13.0631 5.95005 12 5.95005ZM8.67499 7.87505C8.67499 6.0387 10.1636 4.55005 12 4.55005C13.8363 4.55005 15.325 6.0387 15.325 7.87505C15.325 9.7114 13.8363 11.2 12 11.2C10.1636 11.2 8.67499 9.7114 8.67499 7.87505Z" fill="black"/>
<path d="M12 11.95C10.9921 11.95 10.0256 12.3504 9.31295 13.063C8.76756 13.6084 8.40507 14.3025 8.26497 15.05C8.26497 15.05 8.19188 16 7.49998 16C6.80807 16 6.84727 15.05 6.84727 15.05C6.99949 13.9294 7.51431 12.8818 8.323 12.0731C9.29819 11.0979 10.6208 10.55 12 10.55C13.3791 10.55 14.7017 11.0979 15.6769 12.0731C16.4856 12.8818 17.0004 13.9294 17.1526 15.05C17.1526 15.05 17.265 16 16.5 16C15.7349 16 15.7349 15.05 15.7349 15.05C15.5948 14.3025 15.2324 13.6084 14.687 13.063C13.9743 12.3504 13.0078 11.95 12 11.95Z" fill="black"/>
</svg>
