<svg width="24" height="24" viewBox="0 0 24 24" fill="none" xmlns="http://www.w3.org/2000/svg">
<path fill-rule="evenodd" clip-rule="evenodd" d="M2.25 0C1.00736 0 0 1.00736 0 2.25V8.25C0 9.49264 1.00736 10.5 2.25 10.5H8.25C9.49264 10.5 10.5 9.49264 10.5 8.25V2.25C10.5 1.00736 9.49264 0 8.25 0H2.25ZM1.5 2.25C1.5 1.83579 1.83579 1.5 2.25 1.5H8.25C8.66421 1.5 9 1.83579 9 2.25V8.25C9 8.66421 8.66421 9 8.25 9H2.25C1.83579 9 1.5 8.66421 1.5 8.25V2.25Z" fill="#29D305"/>
<path fill-rule="evenodd" clip-rule="evenodd" d="M2.25 13.5C1.00736 13.5 0 14.5074 0 15.75V21.75C0 22.9926 1.00736 24 2.25 24H8.25C9.49264 24 10.5 22.9926 10.5 21.75V15.75C10.5 14.5074 9.49264 13.5 8.25 13.5H2.25ZM1.5 15.75C1.5 15.3358 1.83579 15 2.25 15H8.25C8.66421 15 9 15.3358 9 15.75V21.75C9 22.1642 8.66421 22.5 8.25 22.5H2.25C1.83579 22.5 1.5 22.1642 1.5 21.75V15.75Z" fill="black"/>
<path fill-rule="evenodd" clip-rule="evenodd" d="M13.5 2.25C13.5 1.00736 14.5074 0 15.75 0H21.75C22.9926 0 24 1.00736 24 2.25V8.25C24 9.49264 22.9926 10.5 21.75 10.5H15.75C14.5074 10.5 13.5 9.49264 13.5 8.25V2.25ZM15.75 1.5C15.3358 1.5 15 1.83579 15 2.25V8.25C15 8.66421 15.3358 9 15.75 9H21.75C22.1642 9 22.5 8.66421 22.5 8.25V2.25C22.5 1.83579 22.1642 1.5 21.75 1.5H15.75Z" fill="black"/>
<path fill-rule="evenodd" clip-rule="evenodd" d="M15.75 13.5C14.5074 13.5 13.5 14.5074 13.5 15.75V21.75C13.5 22.9926 14.5074 24 15.75 24H21.75C22.9926 24 24 22.9926 24 21.75V15.75C24 14.5074 22.9926 13.5 21.75 13.5H15.75ZM15 15.75C15 15.3358 15.3358 15 15.75 15H21.75C22.1642 15 22.5 15.3358 22.5 15.75V21.75C22.5 22.1642 22.1642 22.5 21.75 22.5H15.75C15.3358 22.5 15 22.1642 15 21.75V15.75Z" fill="black"/>
</svg>
