<svg width="24" height="24" fill="none" xmlns="http://www.w3.org/2000/svg"><path fill-rule="evenodd" clip-rule="evenodd" d="M2.25 1.5a.75.75 0 00-.75.75v6c0 .414.336.75.75.75h6A.75.75 0 009 8.25v-6a.75.75 0 00-.75-.75h-6zM0 2.25A2.25 2.25 0 012.25 0h6a2.25 2.25 0 012.25 2.25v6a2.25 2.25 0 01-2.25 2.25h-6A2.25 2.25 0 010 8.25v-6zM2.25 15a.75.75 0 00-.75.75v6c0 .414.336.75.75.75h6a.75.75 0 00.75-.75v-6a.75.75 0 00-.75-.75h-6zM0 15.75a2.25 2.25 0 012.25-2.25h6a2.25 2.25 0 012.25 2.25v6A2.25 2.25 0 018.25 24h-6A2.25 2.25 0 010 21.75v-6zM15.75 1.5a.75.75 0 00-.75.75v6c0 .414.336.75.75.75h6a.75.75 0 00.75-.75v-6a.75.75 0 00-.75-.75h-6zm-2.25.75A2.25 2.25 0 0115.75 0h6A2.25 2.25 0 0124 2.25v6a2.25 2.25 0 01-2.25 2.25h-6a2.25 2.25 0 01-2.25-2.25v-6zM15.75 15a.75.75 0 00-.75.75v6c0 .414.336.75.75.75h6a.75.75 0 00.75-.75v-6a.75.75 0 00-.75-.75h-6zm-2.25.75a2.25 2.25 0 012.25-2.25h6A2.25 2.25 0 0124 15.75v6A2.25 2.25 0 0121.75 24h-6a2.25 2.25 0 01-2.25-2.25v-6z" fill="#000"/></svg>