<svg width="24" height="24" fill="none" xmlns="http://www.w3.org/2000/svg"><g clip-path="url(#clip0)" fill-rule="evenodd" clip-rule="evenodd"><path d="M12.002 10.676a.74.74 0 00-.74.74v8.882a.74.74 0 01-1.294.492l-1.91-2.15a.797.797 0 10-1.191 1.058l2.727 3.07a.74.74 0 11-1.106.983L5.76 20.68a2.277 2.277 0 113.404-3.025l.617.695v-6.935a2.22 2.22 0 014.441 0v5.922h.74a5.18 5.18 0 015.182 5.18v.742a.74.74 0 11-1.48 0v-.741a3.701 3.701 0 00-3.702-3.701h-1.48a.74.74 0 01-.74-.74v-6.662a.74.74 0 00-.74-.74z" fill="#000"/><path d="M7.241 1.537a8.142 8.142 0 019.646 13.118.74.74 0 11-.888-1.184 6.662 6.662 0 10-7.994 0 .74.74 0 01-.888 1.184A8.142 8.142 0 017.24 1.537z" fill="#29D305"/></g><defs><clipPath id="clip0"><path fill="#fff" d="M0 0h24v24H0z"/></clipPath></defs></svg>