<svg width="24" height="24" viewBox="0 0 24 24" fill="none" xmlns="http://www.w3.org/2000/svg">
<path fill-rule="evenodd" clip-rule="evenodd" d="M0 12C0 11.5858 0.335786 11.25 0.75 11.25H3.5C3.91421 11.25 4.25 11.5858 4.25 12C4.25 12.4142 3.91421 12.75 3.5 12.75H0.75C0.335786 12.75 0 12.4142 0 12Z" fill="black"/>
<path fill-rule="evenodd" clip-rule="evenodd" d="M19.75 12C19.75 11.5858 20.0858 11.25 20.5 11.25H23.25C23.6642 11.25 24 11.5858 24 12C24 12.4142 23.6642 12.75 23.25 12.75H20.5C20.0858 12.75 19.75 12.4142 19.75 12Z" fill="black"/>
<path fill-rule="evenodd" clip-rule="evenodd" d="M9 16.5C11.4853 16.5 13.5 14.4853 13.5 12C13.5 9.51472 11.4853 7.5 9 7.5C6.51472 7.5 4.5 9.51472 4.5 12C4.5 14.4853 6.51472 16.5 9 16.5ZM9 18C12.3137 18 15 15.3137 15 12C15 8.68629 12.3137 6 9 6C5.68629 6 3 8.68629 3 12C3 15.3137 5.68629 18 9 18Z" fill="black"/>
<path fill-rule="evenodd" clip-rule="evenodd" d="M15 16.5C17.4853 16.5 19.5 14.4853 19.5 12C19.5 9.51472 17.4853 7.5 15 7.5C12.5147 7.5 10.5 9.51472 10.5 12C10.5 14.4853 12.5147 16.5 15 16.5ZM15 18C18.3137 18 21 15.3137 21 12C21 8.68629 18.3137 6 15 6C11.6863 6 9 8.68629 9 12C9 15.3137 11.6863 18 15 18Z" fill="black"/>
</svg>
