<svg width="24" height="24" viewBox="0 0 24 24" fill="none" xmlns="http://www.w3.org/2000/svg">
<path fill-rule="evenodd" clip-rule="evenodd" d="M6.4524 1.67442C6.29827 1.67442 6.17333 1.79936 6.17333 1.95349V3.90698H8.68527C9.14765 3.90698 9.52248 4.28181 9.52248 4.74419V19.2558C9.52248 19.7182 9.14765 20.093 8.68527 20.093H6.17333V22.0465C6.17333 22.2006 6.29827 22.3256 6.4524 22.3256H17.6152C17.7693 22.3256 17.8943 22.2006 17.8943 22.0465V20.093H15.3826C14.9203 20.093 14.5454 19.7182 14.5454 19.2558V4.74419C14.5454 4.28181 14.9203 3.90698 15.3826 3.90698H17.8943V1.95349C17.8943 1.79936 17.7693 1.67442 17.6152 1.67442H6.4524ZM19.5687 20.093H22.0803C22.5427 20.093 22.9175 19.7182 22.9175 19.2558V4.74419C22.9175 4.28181 22.5427 3.90698 22.0803 3.90698H19.5687V1.95349C19.5687 0.874607 18.6941 0 17.6152 0H6.4524C5.37351 0 4.49891 0.874606 4.49891 1.95349V3.90698H1.9876C1.52522 3.90698 1.15039 4.28181 1.15039 4.74419V19.2558C1.15039 19.7182 1.52522 20.093 1.9876 20.093H4.49891V22.0465C4.49891 23.1254 5.37351 24 6.4524 24H17.6152C18.6941 24 19.5687 23.1254 19.5687 22.0465V20.093ZM16.2198 18.4186V5.5814H21.2431V18.4186H16.2198ZM2.82481 18.4186V5.5814H7.84807V18.4186H2.82481Z" fill="black"/>
<path d="M1.15215 13.4156L9.52323 8.48438V10.5844L1.15215 15.5156V13.4156Z" fill="#29D305"/>
<path d="M14.5462 10.482L22.9173 5.55078V7.65078L14.5462 12.582V10.482Z" fill="#29D305"/>
<path d="M14.5462 15.9977L22.9173 11.0664V13.1664L14.5462 18.0977V15.9977Z" fill="#29D305"/>
</svg>
