<svg width="24" height="24" fill="none" xmlns="http://www.w3.org/2000/svg"><path d="M19.815 9.755c.445-.275.705-.775.67-1.3l-.345-5.29c-.03-.475-.295-.9-.71-1.14a1.425 1.425 0 00-1.345-.045L13.33 4.33a1.421 1.421 0 00-.075 2.51l.08.045-3.93 1.68c-.5.215-.83.685-.86 1.225-.03.53.23 1.025.68 1.3l-4.82 1.96c-.5.205-.85.685-.885 1.22-.035.54.24 1.06.71 1.33l4.905 2.83-1.07 1.85a.717.717 0 00.26.975.7.7 0 00.355.095.703.703 0 00.615-.355l1.07-1.85 4.905 2.83a1.426 1.426 0 001.505-.05c.45-.3.69-.845.615-1.375l-.715-5.16a1.425 1.425 0 002.1-1.415l-.51-4.24.08.045c.46.265 1.02.255 1.47-.025zm-2.07-1.965a.722.722 0 00-.75.02.717.717 0 00-.315.68l.68 5.655-1.235-.71a.72.72 0 00-.755.025.72.72 0 00-.31.69l.91 6.6-5.52-3.185h-.005L4.94 14.37l6.175-2.51a.71.71 0 00.085-1.275l-1.235-.71 5.24-2.235a.712.712 0 00.075-1.27l-1.315-.76 4.755-2.35.345 5.29-1.32-.76z" fill="#000"/></svg>