<svg width="24" height="24" viewBox="0 0 24 24" fill="none" xmlns="http://www.w3.org/2000/svg">
<path d="M21.2067 9.35117C21.7311 9.02656 22.0375 8.43636 21.9963 7.81664L21.5897 1.5723C21.5544 1.01161 21.2421 0.509935 20.753 0.226638C20.2639 -0.0566594 19.6747 -0.0743656 19.168 0.17352L13.5643 2.94747C13.0104 3.22487 12.651 3.77966 12.6333 4.39937C12.6157 5.01908 12.9397 5.59748 13.4759 5.91029L13.5702 5.96341L8.93883 7.94649C8.34959 8.20027 7.9607 8.75507 7.92534 9.39248C7.88999 10.0181 8.19639 10.6024 8.7267 10.927L3.04647 13.2406C2.45723 13.4826 2.04476 14.0492 2.00352 14.6807C1.96227 15.3181 2.28635 15.9319 2.84023 16.2506L8.62064 19.5912L7.35967 21.7749C7.12987 22.1763 7.2654 22.6897 7.66608 22.9258C7.79571 23.0026 7.94302 23.038 8.08443 23.038C8.37316 23.038 8.65599 22.8904 8.8092 22.6189L10.0702 20.4352L15.8506 23.7757C16.1098 23.9233 16.3986 24 16.6873 24C17.0173 24 17.3413 23.9056 17.6242 23.7167C18.1545 23.3626 18.4373 22.7193 18.3489 22.0936L17.5063 16.0028C18.0543 16.3038 18.7143 16.2742 19.2387 15.9319C19.769 15.5778 20.0577 14.964 19.9811 14.3325L19.3801 9.32756L19.4744 9.38068C20.0165 9.69349 20.6764 9.68168 21.2067 9.35117ZM18.7673 7.03167C18.4903 6.87232 18.1486 6.88412 17.8834 7.05528C17.6183 7.23234 17.4769 7.53925 17.5122 7.85796L18.3136 14.5331L16.8582 13.6951C16.5812 13.5357 16.2336 13.5475 15.9684 13.7246C15.7033 13.9016 15.5618 14.2203 15.6031 14.5391L16.6755 22.3297L10.1703 18.5701C10.1703 18.5701 10.1703 18.5701 10.1644 18.5701L3.67695 14.7987L10.954 11.8359C11.2486 11.712 11.4549 11.4346 11.4725 11.1159C11.4961 10.7972 11.3311 10.4903 11.0542 10.3309L9.59877 9.49282L15.774 6.85461C16.0686 6.73067 16.263 6.44737 16.2807 6.13457C16.2984 5.81586 16.1393 5.51485 15.8624 5.3555L14.3127 4.45839L19.9163 1.68444L20.3229 7.92878L18.7673 7.03167Z" fill="black"/>
</svg>
