<svg width="24" height="24" viewBox="0 0 24 24" fill="none" xmlns="http://www.w3.org/2000/svg">
<path fill-rule="evenodd" clip-rule="evenodd" d="M23.3867 3.99988C23.8117 4.09988 24.0617 4.49988 23.9867 4.89988C23.0867 8.89988 21.4117 11.0999 19.5367 12.2499C17.6617 13.3999 15.9117 13.3749 14.6367 13.2249V11.7499C15.7117 11.8749 17.2617 11.8499 18.7117 10.9749C20.1617 10.0999 21.6367 8.29988 22.4867 4.57488C22.5867 4.17488 22.9867 3.89988 23.4117 3.99988H23.3867Z" fill="#FFA000"/>
<path d="M0.525184 1.04994C0.925184 0.924939 1.35018 1.12494 1.50018 1.52494C1.97518 2.92494 3.07518 4.72494 4.37518 6.37494C5.67518 8.02494 8.10018 9.92494 8.10018 9.92494C8.10018 9.92494 8.30018 10.2249 8.10018 10.5749C7.90018 10.9499 7.30018 11.1999 7.25018 11.1749C5.97518 10.4499 4.42518 8.92494 3.15018 7.27494C1.80018 5.57494 0.600184 3.62494 0.0501836 1.99994C-0.0748164 1.59994 0.125184 1.17494 0.525184 1.04994Z" fill="#FFA000"/>
<path d="M5.8249 22.2499C5.4999 22.0749 5.3999 21.6249 5.5749 21.2999L6.5999 19.4999L1.6999 16.8249C1.4249 16.6749 1.1999 16.4499 1.0749 16.1499C0.924902 15.8249 0.924902 15.4249 1.0749 15.0999C1.2249 14.7499 1.4999 14.4999 1.8249 14.3499L6.5749 12.3999C6.3249 12.2499 6.1249 12.0249 5.9999 11.7749C5.8499 11.4499 5.8499 11.0499 5.9749 10.7249C6.0999 10.3749 6.3749 10.0999 6.7249 9.94989L10.5999 8.27489L10.5249 8.22489C10.2749 8.09989 10.0749 7.89989 9.9499 7.64989C9.7749 7.32489 9.7499 6.94989 9.8749 6.59989C9.9999 6.24989 10.2499 5.97489 10.5749 5.79989L15.2499 3.47489C15.6749 3.27489 16.1749 3.27489 16.5749 3.49989C16.9999 3.72489 17.2499 4.12489 17.2999 4.59989L17.6999 9.72489C17.6999 9.99989 17.6499 10.2749 17.5249 10.4999C17.1499 11.1749 16.2749 11.3999 15.5999 11.0249L15.5249 10.9749L16.0999 15.0749C16.1499 15.3749 16.0999 15.6749 15.9249 15.9249C15.5499 16.5749 14.6999 16.8249 14.0249 16.4749L14.7999 21.4499C14.8499 21.7499 14.7999 22.0749 14.6249 22.3249C14.2249 22.9999 13.3749 23.2249 12.6999 22.8499L7.7999 20.1749L6.7749 21.9749C6.5749 22.2999 6.1499 22.4249 5.8249 22.2499ZM8.5749 11.8499C8.7999 11.9749 8.9499 12.2249 8.9249 12.4999C8.9249 12.7749 8.7499 12.9999 8.4999 13.0999L2.4249 15.5999L13.4749 21.6249L12.4749 15.2499C12.4249 14.9999 12.5499 14.7249 12.7749 14.5749C12.9999 14.4249 13.2749 14.4249 13.5249 14.5749L14.7499 15.2499L13.9999 9.77489C13.9999 9.52489 14.0749 9.24989 14.2999 9.12489C14.5249 8.97489 14.7999 8.97489 15.0499 9.12489L16.3749 9.84989L15.9749 4.72489L11.2999 7.04989L12.6249 7.77489C12.9499 7.94989 13.0749 8.37489 12.8999 8.69989C12.8249 8.82489 12.6999 8.94989 12.5749 8.99989L7.3999 11.2249L8.5749 11.8499Z" fill="black"/>
</svg>
