<svg width="24" height="24" fill="none" xmlns="http://www.w3.org/2000/svg"><g clip-path="url(#clip0)"><path fill-rule="evenodd" clip-rule="evenodd" d="M1.508 1.517a.778.778 0 00-.979-.478.751.751 0 00-.49.955c.555 1.624 1.773 3.59 3.121 5.29.947 1.194 2.005 2.318 3.004 3.124a1.378 1.378 0 00-.145.272c-.136.343-.126.718.026 1.054.12.26.323.483.575.629l-4.757 1.96a1.384 1.384 0 00-.759.749c-.142.34-.14.715.005 1.053.12.282.338.52.614.67l4.902 2.677-1.034 1.804a.68.68 0 00.271.938c.34.186.77.067.96-.265l1.034-1.802 4.902 2.678c.328.179.708.222 1.07.123.363-.1.664-.33.849-.65.154-.268.213-.581.165-.884l-.776-4.983c.677.35 1.522.108 1.896-.55.146-.256.206-.559.166-.851l-.238-1.731a7.027 7.027 0 003.637-1.048c1.89-1.153 3.567-3.373 4.455-7.362a.755.755 0 00-.592-.898.774.774 0 00-.92.577c-.827 3.716-2.323 5.524-3.763 6.402-1.028.627-2.1.823-3.022.838l-.12-.876.082.045c.679.37 1.541.133 1.921-.53.137-.24.198-.508.176-.78l-.41-5.12a1.375 1.375 0 00-.72-1.095 1.433 1.433 0 00-1.332-.024L10.6 5.764a1.373 1.373 0 00-.7.803c-.116.35-.085.724.086 1.052.13.246.319.438.57.576l.082.045-2.986 1.292C6.883 8.897 5.335 7.56 4.384 6.36 3.088 4.725 1.985 2.914 1.508 1.517zm5.887 9.69c.049-.028.146-.087.257-.168L12.5 8.94a.683.683 0 00.059-1.231l-1.317-.719 4.684-2.337.41 5.118-1.313-.718a.718.718 0 00-.742.032.681.681 0 00-.303.662l.751 5.464-1.232-.673a.726.726 0 00-.747.034.686.686 0 00-.295.67l.995 6.376-11.038-6.027 6.087-2.509a.694.694 0 00.43-.596.691.691 0 00-.36-.64v.001l-1.174-.64z" fill="#000"/></g><defs><clipPath id="clip0"><path d="M0 0h24v24H0V0z" fill="#fff"/></clipPath></defs></svg>