<svg width="24" height="24" viewBox="0 0 24 24" fill="none" xmlns="http://www.w3.org/2000/svg">
<path fill-rule="evenodd" clip-rule="evenodd" d="M23.3904 3.99065C23.808 4.07924 24.0729 4.48146 23.9822 4.88904C23.0939 8.87834 21.4178 11.0979 19.5269 12.2508C17.6511 13.3943 15.8918 13.3785 14.6264 13.2259L14.6264 11.751C15.7116 11.8819 17.2522 11.8567 18.7071 10.9697C20.1469 10.0919 21.6428 8.28377 22.4701 4.56825C22.5608 4.16067 22.9729 3.90207 23.3904 3.99065Z" fill="#29D305"/>
<path d="M0.529252 1.03896C0.934634 0.907063 1.3728 1.12091 1.50793 1.5166C1.98498 2.91354 3.08827 4.72461 4.38403 6.35957C5.68898 8.00615 8.12088 9.91429 8.11307 9.90611C8.10527 9.89793 8.32059 10.2015 8.11307 10.5661C7.90555 10.9307 7.36158 11.2265 7.36158 11.2265C6.05982 10.5206 4.49864 8.97274 3.16008 7.28377C1.81232 5.58319 0.594479 3.61817 0.0399143 1.99424C-0.0952128 1.59855 0.123871 1.17086 0.529252 1.03896Z" fill="#29D305"/>
<path d="M5.86201 22.2141C5.5219 22.0284 5.40029 21.6082 5.59057 21.2762L6.62468 19.472L1.72262 16.7951C1.44741 16.6448 1.22988 16.407 1.10886 16.1251C0.963143 15.7865 0.961997 15.4121 1.1042 15.0718C1.24687 14.7307 1.51658 14.4652 1.86345 14.323L6.61998 12.3626C6.36771 12.2174 6.16421 11.9947 6.04514 11.7338C5.89256 11.3978 5.883 11.0231 6.01946 10.6796C6.15509 10.3357 6.41961 10.0642 6.76467 9.91574L10.6374 8.2402L10.5552 8.19534C10.3035 8.05681 10.1145 7.86519 9.98506 7.61867C9.81352 7.29126 9.78284 6.91758 9.89857 6.567C10.0143 6.21642 10.263 5.9311 10.5993 5.76411L15.2823 3.42764C15.4485 3.34468 15.6265 3.29557 15.8126 3.28139C16.0927 3.25953 16.3693 3.31897 16.6133 3.45221C17.0273 3.67831 17.2965 4.08749 17.3336 4.54784L17.7436 9.66654C17.7657 9.93863 17.7052 10.2078 17.5683 10.4468C17.1882 11.1099 16.326 11.3477 15.6466 10.9767L15.5644 10.9318L16.128 15.0299C16.1676 15.3221 16.1085 15.6247 15.9623 15.8817C15.588 16.5386 14.7428 16.7804 14.0662 16.4309L14.8422 21.4136C14.8898 21.7164 14.831 22.0297 14.6767 22.2971C14.492 22.6174 14.1911 22.8489 13.8277 22.9484C13.466 23.0468 13.0863 23.0037 12.7585 22.8247L7.85559 20.1473L6.82286 21.9492C6.63258 22.2812 6.20212 22.3999 5.86201 22.2141ZM8.56879 11.8475C8.8021 11.9749 8.94398 12.2261 8.92947 12.4866C8.9145 12.748 8.74573 12.9822 8.49902 13.0833L2.41203 15.5923C2.41203 15.5923 13.4489 21.6182 13.4497 21.6186L12.4547 15.2434C12.4143 14.9845 12.5305 14.7215 12.7504 14.5731C12.9703 14.4247 13.2638 14.4113 13.4971 14.5387L14.7294 15.2116L13.978 9.74754C13.9428 9.4872 14.059 9.23372 14.2805 9.08621C14.502 8.9387 14.7875 8.92614 15.0225 9.05445L16.3369 9.77224L15.9264 4.65434L11.2422 6.99116L12.5582 7.70985C12.7932 7.83815 12.9313 8.08095 12.9192 8.34285C12.9067 8.60556 12.7462 8.83481 12.4996 8.94128L7.33604 11.1753L8.56833 11.8483L8.56879 11.8475Z" fill="black"/>
</svg>
