<svg width="24" height="24" fill="none" xmlns="http://www.w3.org/2000/svg"><g clip-path="url(#clip0)"><path fill-rule="evenodd" clip-rule="evenodd" d="M23.39 3.99c.418.09.683.491.592.899-.888 3.99-2.564 6.209-4.455 7.362-1.876 1.143-3.635 1.128-4.9.975V11.75c1.085.13 2.625.106 4.08-.781 1.44-.878 2.936-2.686 3.763-6.402a.774.774 0 01.92-.577z" fill="#29D305"/><path d="M.53 1.039a.778.778 0 01.978.478c.477 1.397 1.58 3.208 2.876 4.843 1.305 1.646 3.737 3.554 3.73 3.546-.009-.008.207.295 0 .66-.208.365-.752.66-.752.66-1.302-.705-2.863-2.253-4.202-3.942C1.812 5.584.594 3.618.04 1.994a.751.751 0 01.49-.955z" fill="#29D305"/><path d="M5.862 22.214a.68.68 0 01-.271-.938l1.034-1.804-4.902-2.677a1.396 1.396 0 01-.614-.67 1.338 1.338 0 01-.005-1.053c.143-.341.413-.607.76-.749l4.756-1.96a1.404 1.404 0 01-.575-.63 1.336 1.336 0 01-.026-1.053c.136-.344.4-.616.746-.764l3.872-1.676-.082-.045a1.376 1.376 0 01-.57-.576A1.342 1.342 0 019.9 6.567c.115-.35.364-.636.7-.803l4.683-2.336a1.433 1.433 0 011.331.025c.414.225.684.635.72 1.095l.41 5.119c.023.272-.038.54-.175.78-.38.663-1.242.9-1.921.53l-.083-.045.564 4.098c.04.292-.02.595-.166.852a1.433 1.433 0 01-1.896.549l.776 4.983c.048.302-.011.616-.165.883a1.434 1.434 0 01-1.918.528l-4.903-2.678-1.033 1.802a.716.716 0 01-.961.265zm2.707-10.366a.691.691 0 01.36.639.693.693 0 01-.43.596l-6.087 2.51 11.038 6.026-.995-6.376a.686.686 0 01.295-.67.726.726 0 01.747-.034l1.232.673-.751-5.464a.681.681 0 01.303-.662.718.718 0 01.742-.031l1.314.717-.41-5.118-4.685 2.337 1.316.719A.683.683 0 0112.5 8.94l-5.164 2.234 1.232.673z" fill="#000"/></g><defs><clipPath id="clip0"><path d="M0 0h24v24H0V0z" fill="#fff"/></clipPath></defs></svg>