<svg width="24" height="24" viewBox="0 0 24 24" fill="none" xmlns="http://www.w3.org/2000/svg">
<g id="undo">
<path id="Icon" fill-rule="evenodd" clip-rule="evenodd" d="M6.47121 0.166396C6.79354 0.426542 6.84395 0.898733 6.5838 1.22106L4.36469 3.97061H12.0001C17.5025 3.97061 21.9547 8.45897 21.9547 13.9853C21.9547 19.5117 17.5025 24 12.0001 24C8.48477 24 5.39735 22.1665 3.62768 19.4047C3.40421 19.0559 3.50578 18.592 3.85454 18.3685C4.2033 18.1451 4.66719 18.2466 4.89066 18.5954C6.3978 20.9476 9.02008 22.5 12.0001 22.5C16.6648 22.5 20.4547 18.6925 20.4547 13.9853C20.4547 9.27816 16.6648 5.47061 12.0001 5.47061H4.41482L6.57221 8.01499C6.8401 8.33092 6.80114 8.80419 6.48521 9.07207C6.16928 9.33995 5.69601 9.301 5.42812 8.98507L1.82227 4.73241L5.41654 0.278988C5.67669 -0.0433415 6.14888 -0.093751 6.47121 0.166396Z" fill="black"/>
</g>
</svg>
