<svg width="24" height="24" fill="none" xmlns="http://www.w3.org/2000/svg"><g clip-path="url(#clip0)" fill="#000"><path d="M8.25 24A2.252 2.252 0 016 21.75v-10.5A2.252 2.252 0 018.25 9h2.25V6c0-2.481-2.02-4.5-4.5-4.5A4.505 4.505 0 001.5 6v3.75a.75.75 0 01-1.5 0V6C0 2.692 2.69 0 6 0c3.307 0 6 2.692 6 6v3h9.75A2.252 2.252 0 0124 11.25v10.5A2.252 2.252 0 0121.75 24H8.25zm0-13.5a.75.75 0 00-.75.75v10.5c0 .414.335.75.75.75h13.5a.75.75 0 00.75-.75v-10.5a.75.75 0 00-.75-.75H8.25z"/><path d="M15 18.75a.75.75 0 01-.75-.75v-3a.75.75 0 011.5 0v3a.75.75 0 01-.75.75z"/></g><defs><clipPath id="clip0"><path d="M0 0h24v24H0V0z" fill="#fff"/></clipPath></defs></svg>