<svg width="24" height="24" fill="none" xmlns="http://www.w3.org/2000/svg"><g clip-path="url(#clip0)" fill="#000"><path d="M12 16.5a.75.75 0 01-.75-.75V5.561l-3.22 3.22a.746.746 0 01-1.06-.001.743.743 0 01-.22-.53c0-.2.078-.389.22-.53l4.5-4.5a.74.74 0 01.244-.163l.025-.009a.743.743 0 01.522 0l.02.007c.097.04.18.095.25.166l4.5 4.499c.141.141.22.33.22.53s-.079.389-.22.53a.749.749 0 01-1.06 0l-3.22-3.22v10.19a.75.75 0 01-.75.75z"/><path d="M3.75 21A3.754 3.754 0 010 17.25v-1.5a.75.75 0 011.5 0v1.5a2.252 2.252 0 002.25 2.25h16.5a2.252 2.252 0 002.25-2.25v-1.5a.75.75 0 011.5 0v1.5A3.754 3.754 0 0120.25 21H3.75z"/></g><defs><clipPath id="clip0"><path d="M0 0h24v24H0V0z" fill="#fff"/></clipPath></defs></svg>