<svg width="24" height="24" viewBox="0 0 24 24" fill="none" xmlns="http://www.w3.org/2000/svg">
<path d="M11.251 15.75C11.251 16.164 11.587 16.5 12.001 16.5C12.415 16.5 12.751 16.164 12.751 15.75V5.56L15.971 8.78C16.112 8.922 16.301 9 16.501 9C16.701 9 16.889 8.921 17.031 8.78C17.173 8.639 17.251 8.45 17.251 8.25C17.251 8.05 17.173 7.861 17.031 7.72L12.532 3.221C12.461 3.15 12.379 3.095 12.282 3.055C12.2797 3.05423 12.2772 3.05331 12.2747 3.05236C12.2706 3.05084 12.2663 3.04923 12.262 3.048C12.178 3.016 12.09 3 12.001 3C11.913 3 11.826 3.016 11.74 3.048C11.731 3.051 11.723 3.054 11.715 3.057C11.622 3.095 11.54 3.15 11.47 3.22L6.97101 7.72C6.82901 7.861 6.75101 8.05 6.75101 8.25C6.75101 8.45 6.82901 8.639 6.97101 8.78C7.11201 8.922 7.30101 9 7.50101 9C7.70101 9 7.89001 8.922 8.03101 8.781L11.251 5.561V15.75Z" fill="black"/>
<path d="M0.00100708 17.25C0.00100708 19.318 1.68301 21 3.75101 21H20.251C22.319 21 24.001 19.318 24.001 17.25V15.75C24.001 15.336 23.665 15 23.251 15C22.837 15 22.501 15.336 22.501 15.75V17.25C22.501 18.491 21.492 19.5 20.251 19.5H3.75101C2.51001 19.5 1.50101 18.491 1.50101 17.25V15.75C1.50101 15.336 1.16501 15 0.751007 15C0.337007 15 0.00100708 15.336 0.00100708 15.75V17.25Z" fill="black"/>
</svg>
