<svg width="24" height="24" viewBox="0 0 24 24" fill="none" xmlns="http://www.w3.org/2000/svg">
<path fill-rule="evenodd" clip-rule="evenodd" d="M4.125 7.875C4.125 6.01104 5.63604 4.5 7.5 4.5C9.36396 4.5 10.875 6.01104 10.875 7.875C10.875 9.73896 9.36396 11.25 7.5 11.25C5.63604 11.25 4.125 9.73896 4.125 7.875ZM7.5 3C4.80761 3 2.625 5.18261 2.625 7.875C2.625 10.5674 4.80761 12.75 7.5 12.75C5.51088 12.75 3.60322 13.5402 2.1967 14.9467C0.790176 16.3532 0 18.2609 0 20.25C0 20.6642 0.335786 21 0.75 21C1.16421 21 1.5 20.6642 1.5 20.25C1.5 18.6587 2.13214 17.1326 3.25736 16.0074C4.38258 14.8821 5.9087 14.25 7.5 14.25C9.0913 14.25 10.6174 14.8821 11.7426 16.0074C12.8679 17.1326 13.5 18.6587 13.5 20.25C13.5 20.6642 13.8358 21 14.25 21C14.6642 21 15 20.6642 15 20.25C15 18.2609 14.2098 16.3532 12.8033 14.9467C11.3968 13.5402 9.48912 12.75 7.5 12.75C10.1924 12.75 12.375 10.5674 12.375 7.875C12.375 5.18261 10.1924 3 7.5 3ZM17.727 7.5C16.2773 7.5 15.102 8.67525 15.102 10.125C15.102 11.5747 16.2773 12.75 17.727 12.75C19.1768 12.75 20.352 11.5747 20.352 10.125C20.352 8.67525 19.1768 7.5 17.727 7.5ZM13.602 10.125C13.602 7.84683 15.4488 6 17.727 6C20.0052 6 21.852 7.84683 21.852 10.125C21.852 12.0013 20.5993 13.5849 18.8847 14.0853C19.7553 14.2492 20.5828 14.5958 21.3119 15.1038C22.1413 15.6817 22.8187 16.4513 23.2867 17.3472C23.7547 18.2431 23.9994 19.2388 24 20.2496C24.0002 20.6638 23.6646 20.9998 23.2504 21C22.8362 21.0002 22.5002 20.6646 22.5 20.2504C22.4996 19.4812 22.3134 18.7235 21.9572 18.0417C21.6011 17.3599 21.0855 16.7742 20.4544 16.3345C19.8233 15.8947 19.0953 15.6139 18.3324 15.516C17.5694 15.418 16.7941 15.5057 16.0724 15.7717C15.6837 15.915 15.2525 15.716 15.1093 15.3274C14.966 14.9387 15.165 14.5075 15.5536 14.3643C15.8841 14.2425 16.2231 14.1491 16.5669 14.0846C14.8535 13.5835 13.602 12.0004 13.602 10.125Z" fill="black"/>
</svg>
