<svg width="24" height="24" fill="none" xmlns="http://www.w3.org/2000/svg"><path fill-rule="evenodd" clip-rule="evenodd" d="M7.5 4.5a3.375 3.375 0 100 6.75 3.375 3.375 0 000-6.75zM2.625 7.875a4.875 4.875 0 119.75 0 4.875 4.875 0 01-9.75 0z" fill="#000"/><path fill-rule="evenodd" clip-rule="evenodd" d="M7.5 14.25a6 6 0 00-6 6 .75.75 0 01-1.5 0 7.5 7.5 0 1115 0 .75.75 0 01-1.5 0 6 6 0 00-6-6zM17.727 7.5a2.625 2.625 0 100 5.25 2.625 2.625 0 000-5.25zm-4.125 2.625a4.125 4.125 0 118.25 0 4.125 4.125 0 01-8.25 0z" fill="#000"/><path fill-rule="evenodd" clip-rule="evenodd" d="M18.332 15.516a4.776 4.776 0 00-2.26.256.75.75 0 11-.518-1.408A6.275 6.275 0 0124 20.25a.75.75 0 01-1.5 0 4.775 4.775 0 00-4.168-4.734z" fill="#000"/></svg>