<svg width="24" height="24" viewBox="0 0 24 24" fill="none" xmlns="http://www.w3.org/2000/svg">
<path d="M2.78238 20.3005C2.57941 20.3005 2.38244 20.223 2.24146 20.0883C2.10247 19.9545 2.02848 19.7802 2.03248 19.5947C2.03648 19.4102 2.11847 19.2377 2.26345 19.1094L21.011 2.50282C21.151 2.37827 21.336 2.31 21.5299 2.31C21.7329 2.31 21.9299 2.3875 22.0709 2.52312C22.2098 2.65597 22.2838 2.83126 22.2798 3.0167C22.2758 3.20122 22.1938 3.37374 22.0499 3.50198L3.30232 20.1086C3.16134 20.2322 2.97636 20.3005 2.78238 20.3005Z" fill="black"/>
<path d="M11.9862 18.9166L11.8762 18.9175C10.8283 18.9175 9.77348 18.7672 8.73962 18.4719C8.34467 18.3584 8.1237 17.97 8.24568 17.6065C8.34367 17.315 8.63163 17.1194 8.96259 17.1194C9.03758 17.1194 9.11257 17.1296 9.18456 17.1508C10.0724 17.4054 10.9843 17.5346 11.8932 17.5346L12.1422 17.5355C15.9947 17.5355 19.8972 14.9652 22.2659 12.56C22.5778 12.2407 22.5778 11.7564 22.2639 11.4344C21.373 10.5321 20.3771 9.70823 19.3052 8.98677C19.1433 8.8779 19.0373 8.71737 19.0063 8.5347C18.9753 8.35203 19.0233 8.16935 19.1413 8.01989C19.2822 7.84183 19.5082 7.73573 19.7472 7.73573C19.9062 7.73573 20.0591 7.78186 20.1891 7.86859C21.342 8.64449 22.4138 9.53202 23.3757 10.5054C24.2076 11.3569 24.2076 12.6384 23.3787 13.4881C20.793 16.1138 16.4846 18.9185 12.1432 18.9185L11.9862 18.9166Z" fill="black"/>
<path d="M3.31732 15.7826C3.4483 15.8767 3.61128 15.9284 3.77726 15.9284C4.01123 15.9284 4.2272 15.8306 4.37018 15.6636C4.49316 15.5178 4.54716 15.337 4.52216 15.1534C4.49716 14.9698 4.39618 14.8065 4.2382 14.693C3.34131 14.05 2.49842 13.3322 1.73552 12.5618C1.42157 12.2399 1.42157 11.7555 1.73352 11.4363C4.10221 9.03201 8.0097 6.4626 11.8722 6.4626H12.1012C12.8201 6.4626 13.536 6.54286 14.2299 6.70247C14.2899 6.71539 14.3509 6.72277 14.4119 6.72277C14.7568 6.72277 15.0568 6.50688 15.1398 6.19782C15.2388 5.82693 14.9938 5.45144 14.5928 5.35918C13.78 5.17189 12.9391 5.07779 12.0932 5.07779L11.8562 5.07687C7.51677 5.07687 3.20733 7.88062 0.62167 10.5054C-0.208222 11.3551 -0.207222 12.6366 0.624669 13.489C1.44856 14.3212 2.35444 15.0925 3.31732 15.7826Z" fill="black"/>
<path d="M8.24868 12.6891C7.83573 12.6891 7.49878 12.3791 7.49878 11.9972C7.49878 10.8901 7.96672 9.84848 8.81661 9.06336C9.6665 8.27823 10.7953 7.84554 11.9952 7.84554C12.2022 7.84554 12.3691 7.99961 12.3701 8.19059L12.3721 8.88253C12.3721 8.97479 12.3331 9.06244 12.2632 9.12794C12.1932 9.19345 12.0982 9.22943 11.9982 9.22943C11.1973 9.22943 10.4444 9.5182 9.87747 10.0413C9.31054 10.5644 8.99858 11.2591 8.99858 11.9972C8.99858 12.1817 8.92059 12.3552 8.77961 12.4862C8.63763 12.6172 8.44865 12.6891 8.24868 12.6891Z" fill="black"/>
<path d="M11.6242 15.8029C11.6242 15.9948 11.7922 16.1489 11.9992 16.1489C13.201 16.1489 14.3309 15.7162 15.1808 14.932C16.0307 14.1478 16.4976 13.1053 16.4976 11.9963C16.4976 11.6143 16.1616 11.3044 15.7477 11.3044C15.3338 11.3044 14.9978 11.6143 14.9978 11.9963C14.9978 12.7353 14.6858 13.4309 14.1199 13.954C13.553 14.4771 12.8001 14.765 11.9982 14.765C11.8992 14.765 11.8032 14.801 11.7332 14.8665C11.6622 14.9311 11.6232 15.0196 11.6232 15.111L11.6242 15.8029Z" fill="black"/>
</svg>
