<svg width="24" height="24" viewBox="0 0 24 24" fill="none" xmlns="http://www.w3.org/2000/svg">
<path fill-rule="evenodd" clip-rule="evenodd" d="M8.8156 14.9327C9.66552 15.7169 10.7954 16.1496 11.9973 16.1496C13.1992 16.1496 14.3291 15.7178 15.179 14.9345C16.0289 14.1503 16.4978 13.1086 16.4978 11.996C16.4978 10.887 16.0299 9.84533 15.18 9.06111C14.3301 8.2778 13.2002 7.84602 11.9983 7.84602C9.51754 7.84602 7.49873 9.70786 7.49873 11.9969C7.49774 13.1059 7.96569 14.1484 8.8156 14.9327ZM8.99959 11.9969C8.99959 10.4709 10.3455 9.22995 11.9993 9.22995C12.8002 9.22995 13.5531 9.5178 14.1191 10.0391C14.686 10.5613 14.998 11.256 14.998 11.9978C14.998 12.7368 14.685 13.4325 14.1191 13.9547C13.5531 14.4769 12.8002 14.7647 11.9983 14.7647C11.1974 14.7647 10.4444 14.4769 9.8775 13.9538C9.31156 13.4316 8.99959 12.7359 8.99959 11.9969Z" fill="black"/>
<path fill-rule="evenodd" clip-rule="evenodd" d="M0.623439 13.4897C3.20618 16.1136 7.50876 18.9184 11.8413 18.9184H11.9853L12.1343 18.9193C16.4819 18.9193 20.7924 16.1145 23.3782 13.4888C24.2081 12.639 24.2071 11.3575 23.3762 10.5059C20.7914 7.88294 16.4859 5.08002 12.1583 5.08002C12.1023 5.08002 12.0473 5.08002 12.0053 5.08094C11.9543 5.08002 11.9053 5.08002 11.8543 5.08002C7.51276 5.08002 3.20518 7.88294 0.621439 10.5078C-0.207479 11.3566 -0.207479 12.6381 0.623439 13.4897ZM1.73333 11.4359C4.10009 9.0316 8.00171 6.46302 11.8523 6.46302L11.9853 6.46487L12.1413 6.46395C15.9919 6.46395 19.8955 9.0316 22.2633 11.4341C22.5773 11.7561 22.5773 12.2405 22.2653 12.5597C19.8965 14.965 15.9879 17.5345 12.1213 17.5345L11.9853 17.5335L11.8543 17.5345C8.00171 17.5345 4.10109 14.965 1.73533 12.5615C1.42136 12.2395 1.42136 11.7552 1.73333 11.4359Z" fill="black"/>
</svg>
