<svg width="27" height="24" fill="none" xmlns="http://www.w3.org/2000/svg"><g clip-path="url(#clip0)" fill="#000"><path d="M3.016 21.75a.854.854 0 01-.586-.23.715.715 0 01-.227-.535.72.72 0 01.25-.526l20.32-18a.844.844 0 01.563-.209.85.85 0 01.587.231.713.713 0 01-.023 1.061l-20.32 18a.853.853 0 01-.564.208zM12.992 20.25l-.12.001c-1.135 0-2.278-.163-3.4-.483-.427-.123-.667-.544-.534-.938.106-.316.418-.528.777-.528.08 0 .162.011.24.034.963.276 1.951.416 2.936.416l.27.001c4.176 0 8.406-2.786 10.973-5.393a.859.859 0 00-.002-1.22 20.967 20.967 0 00-3.207-2.653.738.738 0 01-.324-.49.702.702 0 01.146-.558.86.86 0 011.136-.164 22.619 22.619 0 013.454 2.858c.902.923.902 2.312.003 3.233-2.802 2.846-7.472 5.886-12.178 5.886l-.17-.002zM4.094 17.011a.86.86 0 01-.498-.158 22.836 22.836 0 01-2.919-2.486c-.902-.924-.903-2.313-.003-3.234C3.476 8.288 8.147 5.249 12.85 5.249l.257.001c.917 0 1.828.102 2.71.305.434.1.7.507.592.909-.09.335-.415.569-.789.569a.94.94 0 01-.197-.022 10.305 10.305 0 00-2.307-.26h-.249c-4.186 0-8.422 2.785-10.989 5.391a.858.858 0 00.002 1.22c.827.835 1.74 1.613 2.713 2.31.171.123.28.3.308.499a.702.702 0 01-.165.553.842.842 0 01-.643.287z"/><path d="M8.94 13.5c-.447 0-.812-.336-.812-.75 0-1.2.507-2.329 1.428-3.18.922-.851 2.145-1.32 3.446-1.32.224 0 .405.167.406.374l.002.75c0 .1-.042.195-.118.266a.42.42 0 01-.287.11c-.868 0-1.684.313-2.299.88-.614.567-.952 1.32-.952 2.12a.72.72 0 01-.238.53.845.845 0 01-.575.22zM13.006 17.25c-.224 0-.406-.167-.406-.375l-.002-.75c0-.099.043-.195.12-.265a.421.421 0 01.287-.11c.87 0 1.685-.312 2.3-.879.613-.567.951-1.321.951-2.122 0-.414.364-.75.813-.75.449 0 .813.336.813.75 0 1.202-.506 2.332-1.428 3.182-.92.85-2.145 1.319-3.448 1.319z"/></g><defs><clipPath id="clip0"><path d="M0 0h26.01v24H0V0z" fill="#fff"/></clipPath></defs></svg>