<svg width="27" height="24" fill="none" xmlns="http://www.w3.org/2000/svg"><g clip-path="url(#clip0)" fill="#000"><path d="M12.844 19.499c-4.696 0-9.36-3.04-12.158-5.884-.901-.923-.901-2.312-.003-3.232C3.483 7.538 8.153 4.5 12.858 4.5l.164.001.166-.001c4.69 0 9.357 3.038 12.159 5.881.9.923.901 2.312.002 3.233-2.803 2.846-7.475 5.886-12.187 5.886L13 19.499h-.156zm.012-13.5c-4.173 0-8.402 2.784-10.967 5.39a.859.859 0 00.002 1.22c2.564 2.605 6.792 5.39 10.967 5.39l.142-.001.148.001c4.19 0 8.427-2.785 10.994-5.392a.858.858 0 00-.002-1.22C21.574 8.783 17.343 6 13.17 6l-.17.001-.144-.002z"/><path d="M13.013 16.498c-1.302 0-2.527-.469-3.448-1.319-.921-.85-1.429-1.98-1.428-3.182 0-2.481 2.189-4.499 4.877-4.499 1.303 0 2.528.468 3.449 1.317.921.85 1.428 1.979 1.428 3.181 0 1.206-.508 2.335-1.43 3.185-.92.849-2.144 1.317-3.447 1.317zm.002-7.5c-1.792 0-3.25 1.345-3.25 2.999 0 .801.337 1.555.95 2.121a3.37 3.37 0 002.3.879c.869 0 1.685-.312 2.298-.878.614-.566.953-1.32.953-2.121 0-.804-.338-1.557-.953-2.123a3.374 3.374 0 00-2.298-.877z"/></g><defs><clipPath id="clip0"><path d="M.01 0h26.01v24H.01V0z" fill="#fff"/></clipPath></defs></svg>