<svg width="24" height="24" viewBox="0 0 24 24" fill="none" xmlns="http://www.w3.org/2000/svg">
<path fill-rule="evenodd" clip-rule="evenodd" d="M22.2352 20.5147L12.4949 2.95388C12.281 2.56831 11.718 2.56831 11.5042 2.9539L1.7648 20.5147C1.55973 20.8845 1.83187 21.3353 2.26015 21.3353H21.7398C22.1681 21.3353 22.4403 20.8844 22.2352 20.5147ZM23.7212 19.7175C24.5416 21.1966 23.453 23 21.7398 23H2.26015C0.547004 23 -0.541563 21.1967 0.278751 19.7176L10.0181 2.15679C10.8735 0.614445 13.1254 0.614394 13.9809 2.1567L23.7212 19.7175ZM11.9824 19.8435C11.3702 19.8435 10.8716 19.3531 10.8716 18.7511C10.8716 18.1491 11.3702 17.6587 11.9824 17.6587C12.5946 17.6587 13.0932 18.1491 13.0932 18.7511C13.0932 19.3531 12.5946 19.8435 11.9824 19.8435ZM11.2418 15.4737C11.2418 15.8757 11.5736 16.202 11.9824 16.202C12.3901 16.202 12.7229 15.8747 12.7229 15.4737V8.19092C12.7229 7.78891 12.3901 7.46265 11.9824 7.46265C11.5736 7.46265 11.2418 7.78891 11.2418 8.19092V15.4737Z" fill="black"/>
</svg>
