<svg width="24" height="24" fill="none" xmlns="http://www.w3.org/2000/svg"><path d="M10.307 20.25a.846.846 0 01-.304-.06.434.434 0 01-.076-.03.839.839 0 01-.12-.073l-.018-.013a.856.856 0 01-.17-.177l-.027-.039a.838.838 0 01-.09-.193c-.006-.016-.012-.031-.015-.047l-.846-3.333a.834.834 0 01.82-1.035c.39 0 .727.26.822.63l.29 1.148 1.751-3.445H9.461a.847.847 0 01-.706-.374.819.819 0 01-.071-.787l2.539-5.833a.849.849 0 011.111-.438.83.83 0 01.445 1.094l-2.035 4.671h2.949c.291 0 .566.152.72.395.155.249.17.55.037.81l-2.563 5.047 1.6-.393a.842.842 0 011.027.607.833.833 0 01-.615 1.01l-3.385.833a.94.94 0 01-.207.024z" fill="#000"/><path d="M21.717 23.254l-19.434-.02a2.238 2.238 0 01-2-3.33l9.748-17.98a2.24 2.24 0 013.938 0l9.748 18a2.241 2.241 0 01-2 3.33zM12.03 2.234a.77.77 0 00-.66.39l-9.737 18a.75.75 0 000 .74.77.77 0 00.65.37h19.494a.77.77 0 00.65-.37.78.78 0 000-.74l-9.747-18a.77.77 0 00-.65-.39z" fill="#FFA000"/></svg>