<svg width="24" height="24" fill="none" xmlns="http://www.w3.org/2000/svg"><path fill-rule="evenodd" clip-rule="evenodd" d="M22.235 20.515l-9.74-17.561a.569.569 0 00-.99 0l-9.74 17.56c-.205.37.067.821.495.821h19.48c.428 0 .7-.45.495-.82zm1.486-.797c.82 1.479-.268 3.282-1.981 3.282H2.26C.547 23-.542 21.197.28 19.718l9.74-17.561c.854-1.543 3.106-1.543 3.962 0l9.74 17.56z" fill="#000"/><path d="M11.982 19.843c-.612 0-1.11-.49-1.11-1.092 0-.602.498-1.092 1.11-1.092.613 0 1.111.49 1.111 1.092 0 .602-.498 1.092-1.11 1.092zM11.982 16.202a.735.735 0 01-.74-.728V8.19c0-.402.332-.728.74-.728s.74.326.74.728v7.283a.736.736 0 01-.74.728z" fill="#000"/></svg>