<svg width="24" height="24" viewBox="0 0 24 24" fill="none" xmlns="http://www.w3.org/2000/svg">
<path fill-rule="evenodd" clip-rule="evenodd" d="M11.9518 9.23999C9.27323 9.23999 7.10181 11.4114 7.10181 14.09C7.10181 16.7686 9.27323 18.94 11.9518 18.94C14.6304 18.94 16.8018 16.7686 16.8018 14.09C16.8018 11.4114 14.6304 9.23999 11.9518 9.23999ZM5.60181 14.09C5.60181 10.583 8.4448 7.73999 11.9518 7.73999C15.4588 7.73999 18.3018 10.583 18.3018 14.09C18.3018 17.597 15.4588 20.44 11.9518 20.44C8.4448 20.44 5.60181 17.597 5.60181 14.09Z" fill="black"/>
<path fill-rule="evenodd" clip-rule="evenodd" d="M11.2018 11.03C11.2018 10.6158 11.5376 10.28 11.9518 10.28C12.9623 10.28 13.9314 10.6814 14.6459 11.3959C15.3604 12.1104 15.7618 13.0795 15.7618 14.09C15.7618 14.5042 15.4261 14.84 15.0118 14.84C14.5976 14.84 14.2618 14.5042 14.2618 14.09C14.2618 13.4774 14.0185 12.8898 13.5852 12.4566C13.152 12.0234 12.5645 11.78 11.9518 11.78C11.5376 11.78 11.2018 11.4442 11.2018 11.03Z" fill="black"/>
<path d="M6.48181 4.125C6.48181 4.74632 5.97813 5.25 5.35681 5.25C4.73549 5.25 4.23181 4.74632 4.23181 4.125C4.23181 3.50368 4.73549 3 5.35681 3C5.97813 3 6.48181 3.50368 6.48181 4.125Z" fill="black"/>
<path d="M10.7318 4.125C10.7318 4.74632 10.2281 5.25 9.60681 5.25C8.98549 5.25 8.48181 4.74632 8.48181 4.125C8.48181 3.50368 8.98549 3 9.60681 3C10.2281 3 10.7318 3.50368 10.7318 4.125Z" fill="black"/>
<path fill-rule="evenodd" clip-rule="evenodd" d="M19.25 1.5H4.75C3.36929 1.5 2.25 2.61929 2.25 4V20C2.25 21.3807 3.36929 22.5 4.75 22.5H19.25C20.6307 22.5 21.75 21.3807 21.75 20V4C21.75 2.61929 20.6307 1.5 19.25 1.5ZM4.75 0C2.54086 0 0.75 1.79086 0.75 4V20C0.75 22.2091 2.54086 24 4.75 24H19.25C21.4591 24 23.25 22.2091 23.25 20V4C23.25 1.79086 21.4591 0 19.25 0H4.75Z" fill="black"/>
</svg>
