<svg width="24" height="25" viewBox="0 0 24 25" fill="none" xmlns="http://www.w3.org/2000/svg">
<path fill-rule="evenodd" clip-rule="evenodd" d="M11.91 0C12.3242 0 12.66 0.335786 12.66 0.75V2.75C12.66 3.16421 12.3242 3.5 11.91 3.5C11.4958 3.5 11.16 3.16421 11.16 2.75V0.75C11.16 0.335786 11.4958 0 11.91 0Z" fill="black"/>
<path fill-rule="evenodd" clip-rule="evenodd" d="M13.04 16.88C13.04 16.5805 12.9211 16.293 12.7091 16.081C12.4971 15.869 12.2096 15.75 11.91 15.75C11.6866 15.75 11.4681 15.8162 11.2822 15.9404C11.0963 16.0647 10.9515 16.2412 10.866 16.4476C10.7805 16.6542 10.7582 16.8814 10.8017 17.1004C10.8454 17.3197 10.953 17.521 11.111 17.679C11.269 17.8371 11.4704 17.9447 11.6896 17.9883C11.9087 18.0319 12.1359 18.0096 12.3425 17.924C12.549 17.8385 12.7254 17.6936 12.8496 17.5078C12.9738 17.3219 13.04 17.1034 13.04 16.88ZM11.91 16.88L11.91 16.88L11.91 16.88Z" fill="black"/>
<path fill-rule="evenodd" clip-rule="evenodd" d="M5.25 5.75C5.25 5.33579 5.58579 5 6 5H18C18.4142 5 18.75 5.33579 18.75 5.75V21.7C18.75 21.7344 18.7476 21.7687 18.7429 21.8028C18.6512 22.4653 18.304 23.0656 17.7753 23.4753C17.259 23.8755 16.6097 24.0628 15.9607 24H8.03749C7.38954 24.0598 6.74236 23.8715 6.22716 23.4722C5.7002 23.0638 5.35256 22.4666 5.25764 21.8068C5.25255 21.7714 5.25 21.7357 5.25 21.7V5.75ZM6.75 6.5V21.6392C6.79836 21.8956 6.93894 22.1261 7.14601 22.2866C7.3654 22.4566 7.64227 22.5348 7.91818 22.5045C7.94535 22.5015 7.97267 22.5 8 22.5H16C16.0287 22.5 16.0573 22.5016 16.0858 22.5049C16.3609 22.5366 16.6375 22.4594 16.8564 22.2897C17.0635 22.1293 17.2033 21.8982 17.25 21.6414V6.5H6.75Z" fill="black"/>
<path fill-rule="evenodd" clip-rule="evenodd" d="M7.00302 3.76561C6.77169 3.91957 6.75 4.04686 6.75 4.07999V5.75C6.75 6.16421 6.41421 6.5 6 6.5C5.58579 6.5 5.25 6.16421 5.25 5.75V4.07999C5.25 3.38311 5.67831 2.84541 6.17198 2.51687C6.6726 2.1837 7.32129 2 8 2H16C16.6827 2 17.3321 2.1832 17.8328 2.51754C18.3276 2.848 18.75 3.3862 18.75 4.07999V5.75C18.75 6.16421 18.4142 6.5 18 6.5C17.5858 6.5 17.25 6.16421 17.25 5.75V4.07999C17.25 4.04377 17.2274 3.91698 16.9997 3.76495C16.7779 3.61679 16.4273 3.5 16 3.5H8C7.57871 3.5 7.2274 3.61629 7.00302 3.76561Z" fill="black"/>
<path fill-rule="evenodd" clip-rule="evenodd" d="M9 20.25C9 19.8358 9.33579 19.5 9.75 19.5H14.25C14.6642 19.5 15 19.8358 15 20.25V23.25C15 23.6642 14.6642 24 14.25 24H9.75C9.33579 24 9 23.6642 9 23.25V20.25ZM10.5 21V22.5H13.5V21H10.5Z" fill="black"/>
</svg>
