<svg width="24" height="24" viewBox="0 0 24 24" fill="none" xmlns="http://www.w3.org/2000/svg">
<path fill-rule="evenodd" clip-rule="evenodd" d="M13.04 16.8716C13.04 16.5723 12.9211 16.2849 12.7091 16.073C12.4971 15.8611 12.2096 15.7422 11.91 15.7422C11.6866 15.7422 11.4681 15.8083 11.2822 15.9325C11.0963 16.0567 10.9515 16.2332 10.866 16.4394C10.7805 16.6459 10.7582 16.873 10.8017 17.092C10.8454 17.3111 10.953 17.5124 11.111 17.6702C11.269 17.8282 11.4704 17.9358 11.6896 17.9794C11.9087 18.0229 12.1359 18.0006 12.3425 17.9151C12.549 17.8296 12.7254 17.6848 12.8496 17.4991C12.9738 17.3133 13.04 17.0949 13.04 16.8716ZM11.91 16.8716L11.91 16.8716L11.91 16.8716Z" fill="black"/>
<path fill-rule="evenodd" clip-rule="evenodd" d="M12.66 0.749628C12.66 0.33562 12.3242 0 11.91 0C11.4958 0 11.16 0.33562 11.16 0.749628V1.99902H8C7.32129 1.99902 6.6726 2.18263 6.17198 2.51564C5.67831 2.84402 5.25 3.38145 5.25 4.07798V21.6893C5.25 21.725 5.25255 21.7607 5.25764 21.796C5.35256 22.4556 5.7002 23.0525 6.22716 23.4606C6.74236 23.8597 7.38954 24.0479 8.03749 23.9881H15.9607C16.6097 24.0509 17.259 23.8637 17.7753 23.4638C18.304 23.0542 18.6512 22.4542 18.7429 21.792C18.7476 21.758 18.75 21.7236 18.75 21.6893V4.07798C18.75 3.38454 18.3276 2.8466 17.8328 2.5163C17.3321 2.18213 16.6827 1.99902 16 1.99902H12.66V0.749628ZM7.00302 3.76376C6.77169 3.91764 6.75 4.04487 6.75 4.07798V4.99756H17.25V4.07798C17.25 4.04178 17.2274 3.91505 16.9997 3.7631C16.7779 3.61502 16.4273 3.49828 16 3.49828H8C7.57871 3.49828 7.2274 3.61452 7.00302 3.76376ZM6.75 6.49682V21.6285C6.79836 21.8848 6.93894 22.1152 7.14601 22.2756C7.3654 22.4456 7.64227 22.5236 7.91818 22.4934C7.94535 22.4904 7.97267 22.4889 8 22.4889H16C16.0287 22.4889 16.0573 22.4905 16.0858 22.4938C16.3609 22.5255 16.6375 22.4483 16.8564 22.2787C17.0635 22.1183 17.2033 21.8874 17.25 21.6307V6.49682H6.75Z" fill="black"/>
<path fill-rule="evenodd" clip-rule="evenodd" d="M9 20.24C9 19.826 9.33579 19.4904 9.75 19.4904H14.25C14.6642 19.4904 15 19.826 15 20.24V23.2385C15 23.6525 14.6642 23.9881 14.25 23.9881H9.75C9.33579 23.9881 9 23.6525 9 23.2385V20.24ZM10.5 20.9896V22.4889H13.5V20.9896H10.5Z" fill="black"/>
</svg>
