<svg width="24" height="24" viewBox="0 0 24 24" fill="none" xmlns="http://www.w3.org/2000/svg">
<path fill-rule="evenodd" clip-rule="evenodd" d="M12 0C8.8174 0 5.76516 1.26428 3.51472 3.51472C2.66302 4.36642 1.95257 5.33296 1.39845 6.37794C1.38992 6.39284 1.38189 6.40806 1.37437 6.42358C0.479798 8.12827 0 10.0394 0 12C0 13.9606 0.479801 15.8717 1.37438 17.5764C1.38189 17.5919 1.38992 17.6072 1.39844 17.622C1.95257 18.667 2.66302 19.6336 3.51472 20.4853C5.21283 22.1834 7.36746 23.32 9.69015 23.7756C9.72219 23.784 9.75475 23.7903 9.78759 23.7943C10.5121 23.9302 11.2524 24 12 24C12.7474 24 13.4877 23.9303 14.2121 23.7944C14.2453 23.7903 14.2782 23.784 14.3106 23.7755C16.633 23.3198 18.7873 22.1832 20.4853 20.4853C21.3406 19.63 22.0534 18.6589 22.6085 17.6089C22.6119 17.6026 22.6153 17.5963 22.6185 17.5899C23.5177 15.8818 24 13.9658 24 12C24 10.0342 23.5177 8.11817 22.6185 6.41008C22.6153 6.4037 22.6119 6.39737 22.6085 6.39109C22.0534 5.34106 21.3405 4.36999 20.4853 3.51472C18.2348 1.26428 15.1826 0 12 0ZM20.6169 6C20.2647 5.49424 19.8664 5.01715 19.4246 4.57538C18.3453 3.49601 17.0551 2.67591 15.6509 2.15515C16.1601 3.24562 16.579 4.55323 16.8886 6H20.6169ZM15.3523 6C14.9335 4.17289 14.3382 2.65624 13.6459 1.62976C13.1049 1.54389 12.5547 1.5 12 1.5C11.4454 1.5 10.8952 1.54388 10.3543 1.62973C9.66199 2.65621 9.0667 4.17287 8.6479 6H15.3523ZM8.35599 7.5H15.6442C15.8339 8.67023 15.9545 9.93264 15.9896 11.25H8.01062C8.04566 9.93264 8.16628 8.67023 8.35599 7.5ZM7.1116 6C7.42117 4.5532 7.84007 3.24556 8.34932 2.15507C6.94504 2.67583 5.6548 3.49596 4.57538 4.57538C4.13361 5.01715 3.73526 5.49424 3.3831 6H7.1116ZM2.51316 7.5H6.83769C6.65523 8.69365 6.54306 9.95596 6.51016 11.25H1.5268C1.62044 9.94157 1.95788 8.67069 2.51316 7.5ZM17.1625 7.5H21.4868C22.0421 8.67069 22.3796 9.94157 22.4732 11.25H17.49C17.4571 9.95596 17.3449 8.69365 17.1625 7.5ZM4.57538 19.4246C4.13361 18.9828 3.73526 18.5058 3.3831 18H7.09828C7.40528 19.4396 7.82207 20.7409 8.32894 21.8373C6.93256 21.3162 5.64958 20.4988 4.57538 19.4246ZM2.51316 16.5H6.82604C6.64596 15.3099 6.53676 14.0493 6.50779 12.75H1.5268C1.62044 14.0584 1.95788 15.3293 2.51316 16.5ZM10.3208 22.3649C9.63402 21.3069 9.04646 19.8024 8.63436 18H15.3658C14.9537 19.8024 14.3662 21.3069 13.6794 22.3649C13.1276 22.4543 12.5662 22.5 12 22.5C11.4339 22.5 10.8725 22.4543 10.3208 22.3649ZM8.34399 16.5H15.6562C15.8438 15.332 15.9612 14.0714 15.992 12.75H8.00815C8.03898 14.0714 8.15639 15.332 8.34399 16.5ZM15.6713 21.8373C16.1781 20.7408 16.5949 19.4395 16.9019 18H20.6169C20.2647 18.5058 19.8664 18.9828 19.4246 19.4246C18.3505 20.4988 17.0676 21.3161 15.6713 21.8373ZM17.1741 16.5H21.4868C22.0421 15.3293 22.3796 14.0584 22.4732 12.75H17.4924C17.4634 14.0493 17.3542 15.3099 17.1741 16.5Z" fill="black"/>
</svg>
