<svg width="24" height="25" viewBox="0 0 24 25" fill="none" xmlns="http://www.w3.org/2000/svg">
<path d="M23.19 5.42992C22.9343 5.20528 22.6329 5.03886 22.3065 4.94217C21.9802 4.84548 21.6368 4.82083 21.3 4.86992C18.0679 5.37304 15.037 6.75703 12.54 8.86992C12.3777 8.96785 12.1891 9.01325 12 8.99992C11.8163 8.99851 11.6378 8.939 11.49 8.82992C8.98599 6.70982 5.94337 5.32523 2.69999 4.82992C2.36632 4.78179 2.02618 4.80696 1.70323 4.90367C1.38028 5.00038 1.08228 5.16631 0.82999 5.38992C0.566803 5.61399 0.356049 5.89314 0.212627 6.20763C0.0692044 6.52212 -0.00338489 6.86428 -9.53037e-06 7.20992V18.4299C0.00230028 19.0005 0.211241 19.5509 0.588136 19.9793C0.965032 20.4076 1.48436 20.685 2.04999 20.7599C5.1868 21.1532 8.14078 22.453 10.55 24.4999C10.9642 24.8234 11.4745 24.9993 12 24.9999C12.5286 24.9993 13.042 24.8234 13.46 24.4999C15.8771 22.4408 18.8476 21.1399 22 20.7599C22.5565 20.674 23.064 20.392 23.4308 19.9647C23.7975 19.5374 23.9994 18.993 24 18.4299V7.20992C24.0007 6.87246 23.9287 6.53881 23.7889 6.23166C23.6492 5.9245 23.4449 5.65106 23.19 5.42992ZM2.18999 19.2699C1.98583 19.2433 1.79828 19.1434 1.66218 18.9889C1.52608 18.8344 1.45068 18.6358 1.44999 18.4299V7.20992C1.45259 6.98264 1.54403 6.7654 1.70475 6.60468C1.86547 6.44395 2.08271 6.35251 2.30999 6.34992H2.42999C5.41835 6.79486 8.22528 8.05816 10.54 9.99992C10.7552 10.1631 10.9948 10.2913 11.25 10.3799V23.1499C8.67364 21.0312 5.54962 19.6859 2.23999 19.2699H2.18999ZM22.45 18.4299C22.4496 18.6343 22.3756 18.8317 22.2416 18.986C22.1075 19.1403 21.9223 19.2411 21.72 19.2699C18.4149 19.6914 15.2956 21.0362 12.72 23.1499V10.4099C12.9967 10.3148 13.2566 10.1764 13.49 9.99992C15.7697 8.06614 18.5372 6.79651 21.49 6.32992C21.6141 6.30943 21.7411 6.31641 21.8622 6.35036C21.9833 6.3843 22.0955 6.44439 22.1908 6.52639C22.2862 6.60839 22.3624 6.7103 22.4141 6.82494C22.4657 6.93959 22.4917 7.06417 22.49 7.18992L22.45 18.4299Z" fill="black"/>
<path d="M3.81 2.47994C6.2835 3.10054 8.58437 4.2732 10.54 5.90994C10.9585 6.24088 11.4764 6.42091 12.01 6.42091C12.5435 6.42091 13.0615 6.24088 13.48 5.90994C15.4396 4.28355 17.7396 3.11818 20.21 2.49994C20.402 2.45046 20.5666 2.32694 20.6678 2.15641C20.769 1.98587 20.7986 1.7822 20.75 1.58994C20.7298 1.49101 20.6902 1.39709 20.6333 1.31366C20.5764 1.23024 20.5035 1.15898 20.4188 1.10405C20.334 1.04912 20.2392 1.01163 20.1399 0.993751C20.0405 0.975876 19.9385 0.977982 19.84 0.999944C17.1627 1.67757 14.6694 2.94133 12.54 4.69994C12.388 4.81671 12.2017 4.88002 12.01 4.88002C11.8183 4.88002 11.632 4.81671 11.48 4.69994C9.34993 2.93663 6.85221 1.67239 4.17 0.999944C3.97652 0.954417 3.7729 0.986497 3.6028 1.08931C3.43269 1.19212 3.30963 1.35748 3.26 1.54994C3.23307 1.64716 3.22604 1.7488 3.23931 1.84879C3.25258 1.94879 3.28588 2.04508 3.33723 2.1319C3.38858 2.21872 3.45691 2.2943 3.53815 2.3541C3.61938 2.4139 3.71184 2.4567 3.81 2.47994Z" fill="#29D305"/>
</svg>
