<svg width="24" height="24" fill="none" xmlns="http://www.w3.org/2000/svg"><g clip-path="url(#clip0)"><path d="M23.19 4.43a2.35 2.35 0 00-1.89-.56 17.8 17.8 0 00-8.76 4A.92.92 0 0112 8a.87.87 0 01-.51-.17 17.75 17.75 0 00-8.79-4 2.32 2.32 0 00-1.87.56A2.36 2.36 0 000 6.21v11.22a2.36 2.36 0 002.05 2.33 16.25 16.25 0 018.5 3.74c.414.323.925.5 1.45.5a2.39 2.39 0 001.46-.5A16.15 16.15 0 0122 19.76a2.36 2.36 0 002-2.33V6.21a2.35 2.35 0 00-.81-1.78zm-21 13.84a.85.85 0 01-.74-.84V6.21a.87.87 0 01.86-.86h.12A16.37 16.37 0 0110.54 9c.215.163.455.291.71.38v12.77a17.65 17.65 0 00-9.01-3.88h-.05zm20.26-.84a.85.85 0 01-.73.84 17.72 17.72 0 00-9 3.88V9.41a2.77 2.77 0 00.77-.41 16.3 16.3 0 018-3.67.86.86 0 011 .86l-.04 11.24z" fill="#000"/><path d="M3.81 1.48a16.89 16.89 0 016.73 3.43 2.37 2.37 0 002.94 0 17 17 0 016.73-3.41.75.75 0 00.54-.91.76.76 0 00-.91-.59 18.65 18.65 0 00-7.3 3.7.87.87 0 01-1.06 0A18.53 18.53 0 004.17 0a.76.76 0 00-.91.55.75.75 0 00.55.93z" fill="#29D305"/></g><defs><clipPath id="clip0"><path d="M0 0h24v24H0V0z" fill="#fff"/></clipPath></defs></svg>