<svg width="24" height="24" viewBox="0 0 24 24" fill="none" xmlns="http://www.w3.org/2000/svg">
<path d="M23.1901 4.44648C22.9344 4.22203 22.633 4.05575 22.3067 3.95914C21.9803 3.86254 21.6369 3.8379 21.3001 3.88695C18.0681 4.38965 15.0371 5.77248 12.5401 7.88359C12.3778 7.98144 12.1892 8.02681 12.0001 8.01348C11.8164 8.01208 11.6379 7.95262 11.4901 7.84363C8.98611 5.72531 5.94349 4.34189 2.70011 3.84699C2.36645 3.7989 2.0263 3.82405 1.70335 3.92068C1.3804 4.01731 1.08241 4.1831 0.830113 4.40652C0.566925 4.6304 0.356171 4.90931 0.212749 5.22354C0.0693265 5.53777 -0.00326282 5.87964 0.00011254 6.22499V17.4356C0.00242235 18.0057 0.211363 18.5556 0.588258 18.9836C0.965154 19.4116 1.48448 19.6887 2.05011 19.7636C5.18693 20.1566 8.1409 21.4552 10.5501 23.5005C10.9643 23.8236 11.4746 23.9995 12.0001 24C12.5287 23.9994 13.0421 23.8237 13.4601 23.5005C15.8772 21.4431 18.8477 20.1433 22.0001 19.7636C22.5566 19.6778 23.0641 19.396 23.4309 18.969C23.7976 18.5421 23.9995 17.9982 24.0001 17.4356V6.22499C24.0008 5.88781 23.9288 5.55444 23.7891 5.24755C23.6493 4.94065 23.445 4.66744 23.1901 4.44648ZM2.19011 18.2749C1.98595 18.2482 1.7984 18.1485 1.6623 17.9941C1.5262 17.8398 1.4508 17.6413 1.45011 17.4356V6.22499C1.45271 5.9979 1.54415 5.78084 1.70487 5.62026C1.86559 5.45967 2.08283 5.3683 2.31011 5.36571H2.43011C5.41848 5.81028 8.22541 7.07251 10.5401 9.01264C10.7553 9.17569 10.9949 9.30383 11.2501 9.39232V22.1516C8.67376 20.0346 5.54975 18.6905 2.24011 18.2749H2.19011ZM22.4501 17.4356C22.4498 17.6398 22.3758 17.837 22.2417 17.9912C22.1076 18.1453 21.9225 18.246 21.7201 18.2749C18.415 18.696 15.2957 20.0396 12.7201 22.1516V9.4223C12.9968 9.32724 13.2567 9.18897 13.4901 9.01264C15.7698 7.08049 18.5374 5.81193 21.4901 5.34573C21.6142 5.32526 21.7412 5.33223 21.8623 5.36615C21.9834 5.40007 22.0956 5.46011 22.1909 5.54204C22.2863 5.62397 22.3625 5.72579 22.4142 5.84034C22.4659 5.95488 22.4918 6.07936 22.4901 6.205L22.4501 17.4356Z" fill="black"/>
<path d="M3.81012 1.49895C6.28363 2.11903 8.58449 3.2907 10.5401 4.92607C10.9586 5.25672 11.4766 5.4366 12.0101 5.4366C12.5437 5.4366 13.0616 5.25672 13.4801 4.92607C15.4397 3.30103 17.7397 2.13665 20.2101 1.51893C20.4021 1.46949 20.5668 1.34608 20.668 1.17568C20.7692 1.00529 20.7987 0.801792 20.7501 0.609695C20.73 0.510845 20.6903 0.417002 20.6334 0.333645C20.5765 0.250289 20.5036 0.17909 20.4189 0.124209C20.3342 0.0693271 20.2394 0.0318624 20.14 0.0140028C20.0406 -0.00385681 19.9387 -0.00175321 19.8401 0.0201907C17.1629 0.69725 14.6695 1.95995 12.5401 3.71708C12.3881 3.83375 12.2018 3.897 12.0101 3.897C11.8184 3.897 11.6321 3.83375 11.4801 3.71708C9.35005 1.95525 6.85234 0.692075 4.17012 0.0201907C3.97664 -0.025298 3.77303 0.00675542 3.60292 0.10948C3.43281 0.212205 3.30975 0.377426 3.26012 0.569729C3.23319 0.666859 3.22616 0.768417 3.23943 0.868327C3.2527 0.968237 3.28601 1.06445 3.33735 1.1512C3.3887 1.23795 3.45704 1.31346 3.53827 1.37321C3.6195 1.43296 3.71196 1.47573 3.81012 1.49895Z" fill="#29D305"/>
</svg>
