<svg width="24" height="24" fill="none" xmlns="http://www.w3.org/2000/svg"><g clip-path="url(#clip0)"><path fill-rule="evenodd" clip-rule="evenodd" d="M22.374 1.111a.633.633 0 00.024-.89.622.622 0 00-.884-.024c-1.905 1.821-5.27 2.998-8.866 3.106C9.06 3.41 5.386 2.449 2.854.17a.622.622 0 00-.883.05.633.633 0 00.05.89c2.841 2.557 6.866 3.566 10.663 3.452 3.788-.113 7.49-1.348 9.69-3.45z" fill="#29D305"/><path d="M5.25 21.9a1.25 1.25 0 100-2.5 1.25 1.25 0 000 2.5zM12.25 21.9a1.25 1.25 0 100-2.5 1.25 1.25 0 000 2.5z" fill="#000"/><path fill-rule="evenodd" clip-rule="evenodd" d="M23.557 11.518c.08.127.125.272.13.422l.31 4.273a.813.813 0 01-.3.707.814.814 0 01-.73.177l-4.513-1.042a.904.904 0 01-.457-.238.88.88 0 01-.203-.954.886.886 0 01.32-.399l1.998-1.454a.09.09 0 00.027-.063.087.087 0 00-.027-.064L16 6.95l-1.039.884a.116.116 0 000 .088l.328 2.257c.301 2.067.652 4.475.808 5.66a2.901 2.901 0 01-.13 1.452c0 .013.002.026.008.038a.079.079 0 00.062.043 2.835 2.835 0 011.452 1.02c.36.485.551 1.07.546 1.671v1.324a2.581 2.581 0 01-.765 1.84 2.669 2.669 0 01-1.862.773H2.626a2.668 2.668 0 01-1.862-.773A2.581 2.581 0 010 21.387v-1.324a2.692 2.692 0 01.583-1.722 2.771 2.771 0 011.554-.98 3.87 3.87 0 01-.14-.893v-2.81a1.615 1.615 0 01.373-1.217 1.662 1.662 0 011.145-.59h4.713a.1.1 0 00.071-.028.098.098 0 00.03-.07V7.726a2.486 2.486 0 01.658-1.906c.093-.09.196-.167.306-.231 1.614.236 3.202.206 4.709-.002.249.207.532.602.62 1.088l.876-.644a1 1 0 011.405.223l4.307 6 1.059-.756-4.636-6.772c.376-.126.742-.261 1.097-.403l4.827 7.194zm-.66 4.321l-.179-3.32-3.295 2.456a.1.1 0 00-.057.088.097.097 0 00.057.089l3.345.786a.101.101 0 00.09-.016.097.097 0 00.04-.083zM1.666 19.054c-.25.278-.384.638-.377 1.01l-.01 1.378c0 .352.142.69.394.94.253.25.596.393.954.395h12.782a1.368 1.368 0 00.95-.395c.125-.124.223-.27.29-.432.066-.162.11-.389.108-.563v-1.324a1.468 1.468 0 00-.373-1.006c-.247-.278-.51-.515-.883-.557H2.718c-.375.04-.803.276-1.053.554zm12.355-1.76H3.625a.363.363 0 01-.25-.08c-.13-.103-.13-.167-.13-.707V13.66c0-.423.2-.501.31-.501h5.081a1 1 0 001-1V7.539c0-.539.364-.884.864-.884h2.642a.455.455 0 01.409.295s.998 6.876 1.278 9.056a1.227 1.227 0 01-.21 1.032c-.124.222-.451.262-.599.255z" fill="#000"/></g><defs><clipPath id="clip0"><path fill="#fff" d="M0 0h24v24H0z"/></clipPath></defs></svg>