<svg width="24" height="24" viewBox="0 0 24 24" fill="none" xmlns="http://www.w3.org/2000/svg">
<path fill-rule="evenodd" clip-rule="evenodd" d="M12 14.4197C7.2646 14.4197 3.4218 18.3448 3.4218 23.2592C3.4218 23.6683 3.10352 23.9999 2.7109 23.9999C2.31828 23.9999 2 23.6683 2 23.2592C2 17.5069 6.49844 12.9382 12 12.9382C17.5064 12.9382 22 17.6106 22 23.2592C22 23.6683 21.6817 23.9999 21.2891 23.9999C20.8965 23.9999 20.5782 23.6683 20.5782 23.2592C20.5782 18.4387 16.7306 14.4197 12 14.4197Z" fill="black"/>
<path fill-rule="evenodd" clip-rule="evenodd" d="M6.50366 5.3208C6.92245 5.3208 7.26195 5.67455 7.26195 6.11092C7.26195 8.82533 9.33961 10.9043 11.8623 10.9043C14.3755 10.9043 16.4626 8.72969 16.4626 6.11092C16.4626 5.67455 16.8021 5.3208 17.2209 5.3208C17.6397 5.3208 17.9792 5.67455 17.9792 6.11092C17.9792 9.60243 15.2131 12.4846 11.8623 12.4846C8.52078 12.4846 5.74536 9.71749 5.74536 6.11092C5.74536 5.67455 6.08486 5.3208 6.50366 5.3208Z" fill="black"/>
<path fill-rule="evenodd" clip-rule="evenodd" d="M10.0212 0.747627C10.4346 0.677314 10.8243 0.969441 10.8918 1.40011L11.7007 6.56224C11.7681 6.99291 11.4878 7.39904 11.0745 7.46935C10.6611 7.53966 10.2714 7.24754 10.2039 6.81687L9.39503 1.65474C9.32755 1.22407 9.60791 0.817941 10.0212 0.747627Z" fill="black"/>
<path fill-rule="evenodd" clip-rule="evenodd" d="M13.7732 1.00404C13.7732 1.00404 14.7588 1.05965 14.6831 1.48885L13.7732 6.65097C13.6975 7.08017 13.3023 7.36419 12.8904 7.28536C12.4785 7.20653 12.2059 6.79469 12.2816 6.3655L13.1915 1.20337C13.2672 0.77418 13.7732 1.00404 13.7732 1.00404Z" fill="black"/>
<path fill-rule="evenodd" clip-rule="evenodd" d="M4 6.6899C4 6.25353 4.35817 5.89978 4.8 5.89978H19.2C19.6418 5.89978 20 6.25353 20 6.6899C20 7.12627 19.6418 7.48002 19.2 7.48002H4.8C4.35817 7.48002 4 7.12627 4 6.6899Z" fill="black"/>
<path fill-rule="evenodd" clip-rule="evenodd" d="M10.384 2.1451C10.2556 2.28885 10.1014 2.39095 9.93664 2.4645L9.9322 2.46649C8.30204 3.18168 7.26195 4.78419 7.26195 6.79505C7.26195 7.23142 6.92245 7.11109 6.50366 7.11109C6.08486 7.11109 5.74536 7.23142 5.74536 6.79505C5.74536 4.21273 7.08758 2.05102 9.23761 1.05782C9.26535 0.965893 9.31562 0.824215 9.41823 0.678427C9.64353 0.358302 9.98183 0.20586 10.3403 0.122622C10.6985 0.0394498 11.1877 0 11.8623 0C12.5393 0 13.0357 0.039863 13.4049 0.12052C13.7733 0.200994 14.0986 0.339662 14.3376 0.606562C14.4557 0.738379 14.5257 0.871996 14.5707 0.976907C14.5849 1.00984 14.5969 1.04095 14.6064 1.06639C16.764 2.07348 17.9792 4.24717 17.9792 6.79505C17.9792 7.23142 17.5386 7.11109 17.1198 7.11109C16.701 7.11109 16.4626 7.23142 16.4626 6.79505C16.4626 4.75612 15.5002 3.17139 13.8934 2.46647C13.8783 2.45982 13.8633 2.45265 13.8486 2.44497C13.4877 2.25698 13.3257 1.98176 13.2371 1.75821C13.228 1.73511 13.2203 1.71555 13.2138 1.69909C13.1861 1.68991 13.147 1.67878 13.0937 1.66713C12.8752 1.61939 12.4996 1.58024 11.8623 1.58024C11.2225 1.58024 10.8649 1.61981 10.6702 1.66503C10.6613 1.66708 10.6531 1.66909 10.6454 1.67105C10.6399 1.68883 10.6336 1.70795 10.6267 1.72775C10.5849 1.84715 10.5145 1.99897 10.384 2.1451ZM13.2714 1.72237L13.2703 1.72176L13.2714 1.72237Z" fill="black"/>
</svg>
