<svg width="24" height="24" fill="none" xmlns="http://www.w3.org/2000/svg"><path fill-rule="evenodd" clip-rule="evenodd" d="M6.597 5.926c.393 0 .711.332.711.74 0 2.545 1.948 4.495 4.313 4.495 2.356 0 4.313-2.04 4.313-4.494 0-.41.318-.741.71-.741.393 0 .712.332.712.74 0 3.274-2.594 5.976-5.735 5.976-3.133 0-5.735-2.594-5.735-5.975 0-.41.319-.741.711-.741zM12 14.42c-4.735 0-8.578 3.925-8.578 8.84 0 .408-.318.74-.711.74-.393 0-.711-.332-.711-.74 0-5.753 4.498-10.322 10-10.322 5.506 0 10 4.673 10 10.321 0 .41-.318.74-.71.74-.393 0-.712-.33-.712-.74 0-4.82-3.847-8.84-8.578-8.84z" fill="#000"/><path fill-rule="evenodd" clip-rule="evenodd" d="M7.847 14.1a.692.692 0 011-.106L12 16.674l3.152-2.68a.692.692 0 011 .106.762.762 0 01-.1 1.042l-3.603 3.062a.689.689 0 01-.898 0l-3.602-3.062a.762.762 0 01-.102-1.042zM6.218 15.012c.393 0 .71.332.71.74v7.507c0 .41-.317.74-.71.74-.393 0-.71-.33-.71-.74v-7.506c0-.41.317-.74.71-.74zM17.592 15.012c.393 0 .711.332.711.74v7.507c0 .41-.318.74-.71.74-.393 0-.712-.33-.712-.74v-7.506c0-.41.319-.74.711-.74z" fill="#000"/><path fill-rule="evenodd" clip-rule="evenodd" d="M9.895.701a.715.715 0 01.816.612l.758 4.84c.064.403-.2.784-.587.85a.715.715 0 01-.816-.612l-.758-4.84c-.063-.403.2-.784.587-.85zM13.412.941s.924.052.853.455l-.853 4.84a.714.714 0 01-.827.594c-.387-.074-.642-.46-.571-.862l.853-4.84c.07-.402.545-.187.545-.187z" fill="#29D305"/><path fill-rule="evenodd" clip-rule="evenodd" d="M4.844 6.272c0-.41.318-.741.71-.741h12.797c.392 0 .71.332.71.74 0 .41-.318.741-.71.741H5.555c-.393 0-.711-.331-.711-.74z" fill="#29D305"/><path fill-rule="evenodd" clip-rule="evenodd" d="M12 16.889c.393 0 .71.332.71.74v5.63c0 .41-.317.741-.71.741-.393 0-.711-.332-.711-.74v-5.63c0-.41.318-.741.71-.741z" fill="#000"/><path fill-rule="evenodd" clip-rule="evenodd" d="M10.235 2.011a1.22 1.22 0 01-.42.3l-.004.001c-1.528.67-2.503 2.173-2.503 4.058 0 .41-.318.297-.71.297-.393 0-.712.112-.712-.297 0-2.42 1.259-4.447 3.274-5.378.026-.086.073-.22.17-.356.21-.3.528-.443.864-.521C10.53.037 10.988 0 11.621 0c.635 0 1.1.037 1.446.113.345.075.65.205.874.456a1.254 1.254 0 01.252.43c2.023.945 3.162 2.983 3.162 5.371 0 .41-.413.297-.805.297-.393 0-.616.112-.616-.297 0-1.911-.903-3.397-2.409-4.058a1.186 1.186 0 01-.615-.664l-.022-.055a1.118 1.118 0 00-.113-.03c-.205-.045-.557-.082-1.154-.082-.6 0-.935.038-1.118.08a1.114 1.114 0 00-.023.006 1.151 1.151 0 01-.245.444zm2.707-.396h-.001z" fill="#29D305"/></svg>