<svg width="24" height="24" viewBox="0 0 24 24" fill="none" xmlns="http://www.w3.org/2000/svg">
<g clip-path="url(#clip0)">
<path fill-rule="evenodd" clip-rule="evenodd" d="M22.3738 1.11133C22.6244 0.871891 22.635 0.473167 22.3975 0.220758C22.1601 -0.0316514 21.7645 -0.0421632 21.5139 0.197279C19.6085 2.01845 16.2437 3.19498 12.6478 3.30257C9.06131 3.40987 5.38594 2.44908 2.85377 0.170144C2.59635 -0.0615328 2.20125 -0.0389327 1.97128 0.220622C1.74132 0.480177 1.76358 0.878399 2.021 1.11008C4.86226 3.66719 8.8873 4.67551 12.6843 4.56191C16.4719 4.44859 20.1736 3.21419 22.3738 1.11133Z" fill="#29D305"/>
<path d="M5.25 21.8999C5.94036 21.8999 6.5 21.3403 6.5 20.6499C6.5 19.9595 5.94036 19.3999 5.25 19.3999C4.55964 19.3999 4 19.9595 4 20.6499C4 21.3403 4.55964 21.8999 5.25 21.8999Z" fill="black"/>
<path d="M12.25 21.8999C12.9404 21.8999 13.5 21.3403 13.5 20.6499C13.5 19.9595 12.9404 19.3999 12.25 19.3999C11.5596 19.3999 11 19.9595 11 20.6499C11 21.3403 11.5596 21.8999 12.25 21.8999Z" fill="black"/>
<path fill-rule="evenodd" clip-rule="evenodd" d="M23.5569 11.5175C23.6374 11.6445 23.6822 11.7902 23.6867 11.9398L23.9963 16.2127C24.0082 16.3456 23.9872 16.4794 23.935 16.6026C23.8828 16.7257 23.801 16.8346 23.6967 16.9199C23.5987 17.0051 23.4813 17.0657 23.3543 17.0965C23.2273 17.1273 23.0947 17.1274 22.9677 17.0967L18.4541 16.0555C18.2814 16.0216 18.1226 15.9386 17.9975 15.8168C17.8724 15.6949 17.7864 15.5396 17.7502 15.3701C17.7141 15.2006 17.7293 15.0244 17.7941 14.8634C17.8588 14.7023 17.9703 14.5635 18.1145 14.4642L20.1117 13.0105C20.1205 13.0022 20.1274 12.9923 20.1322 12.9814C20.137 12.9704 20.1394 12.9586 20.1394 12.9466C20.1394 12.9347 20.137 12.9229 20.1322 12.9119C20.1274 12.901 20.1205 12.8911 20.1117 12.8828L16 6.94995L14.9615 7.83398C14.9498 7.86234 14.9498 7.89404 14.9615 7.92239C15.0513 8.54639 15.1661 9.33403 15.2892 10.1786L15.2892 10.1787C15.5904 12.2458 15.9414 14.654 16.0974 15.8394C16.1752 16.3135 16.134 16.799 15.9775 17.2539C15.9708 17.2651 15.967 17.2779 15.9666 17.291C15.9661 17.3041 15.969 17.3171 15.975 17.3288C15.9809 17.3405 15.9898 17.3506 16.0007 17.3581C16.0116 17.3656 16.0242 17.3703 16.0374 17.3717C16.6204 17.5493 17.1296 17.907 17.4894 18.3919C17.8493 18.8768 18.0404 19.4629 18.0346 20.0631V21.3873C18.0373 22.0759 17.7624 22.7376 17.2702 23.2273C16.7779 23.717 16.1084 23.9949 15.4083 24.0001H2.62631C1.92621 23.9949 1.25672 23.717 0.764478 23.2273C0.272232 22.7376 -0.00266019 22.0759 1.68389e-06 21.3873V20.0631C-0.0119967 19.4403 0.193658 18.8322 0.582608 18.3406C0.971557 17.8489 1.52024 17.5035 2.137 17.3619C2.05557 17.0702 2.00866 16.7703 1.99719 16.4681V13.6588C1.97381 13.4417 1.99473 13.2221 2.05872 13.0131C2.12271 12.804 2.2285 12.6096 2.36987 12.4412C2.51124 12.2729 2.68535 12.134 2.882 12.0328C3.07865 11.9315 3.29387 11.8698 3.51506 11.8514H8.22843C8.25492 11.8514 8.28032 11.8411 8.29904 11.8227C8.31777 11.8042 8.32829 11.7793 8.32829 11.7532V7.72594C8.2994 7.38083 8.34301 7.03356 8.45639 6.70573C8.56977 6.37791 8.75051 6.07653 8.98736 5.82035C9.07996 5.73063 9.18254 5.6531 9.29253 5.58882C10.9066 5.82474 12.4948 5.79519 14.002 5.58747C14.2507 5.79426 14.5342 6.18932 14.6219 6.67492L15.4984 6.03095C15.947 5.70139 16.5783 5.80151 16.9029 6.25368L21.2102 12.2542L22.2687 11.4978L17.6332 4.72615C18.0094 4.59959 18.3754 4.46472 18.7299 4.32349L23.5569 11.5175ZM22.8978 15.8394L22.7181 12.5194L19.4227 14.975C19.4058 14.9831 19.3916 14.9956 19.3816 15.0113C19.3716 15.0269 19.3664 15.045 19.3664 15.0634C19.3664 15.0819 19.3716 15.1 19.3816 15.1156C19.3916 15.1312 19.4058 15.1438 19.4227 15.1518L22.768 15.9376C22.7833 15.9424 22.7996 15.9434 22.8154 15.9407C22.8313 15.9379 22.8462 15.9315 22.8589 15.9218C22.8717 15.9122 22.8819 15.8996 22.8886 15.8853C22.8954 15.8709 22.8985 15.8552 22.8978 15.8394ZM1.66514 19.0538C1.41557 19.332 1.28108 19.6922 1.28819 20.0631L1.2782 21.4415C1.27819 21.7941 1.41991 22.1324 1.67244 22.3826C1.92498 22.6329 2.26785 22.7748 2.62631 22.7774H15.4083C15.5854 22.7761 15.7604 22.7405 15.9235 22.6727C16.0865 22.6048 16.2344 22.5061 16.3587 22.382C16.4829 22.258 16.5811 22.1111 16.6477 21.9497C16.7142 21.7883 16.7578 21.5614 16.7564 21.3873V20.0631C16.7638 19.6937 16.6307 19.3348 16.3832 19.0569C16.1357 18.7789 15.8733 18.5416 15.5 18.5001H2.71798C2.34289 18.5393 1.9147 18.7756 1.66514 19.0538ZM14.0203 17.2931H3.6249C3.5346 17.2988 3.44545 17.2707 3.37526 17.2146C3.24544 17.1107 3.24544 17.047 3.24544 16.5073V13.6588C3.24544 13.2364 3.44516 13.1578 3.555 13.1578H8.63645C9.18874 13.1578 9.63645 12.7101 9.63645 12.1578V7.53931C9.63645 7.00008 10 6.65527 10.5 6.65527H13.1415C13.232 6.65811 13.3195 6.68776 13.3926 6.74034C13.4656 6.79292 13.5208 6.86598 13.5509 6.94995C13.5509 6.94995 14.5495 13.8258 14.8291 16.0064C14.8727 16.183 14.8764 16.3667 14.8402 16.5449C14.804 16.723 14.7286 16.8912 14.6194 17.0378C14.4947 17.2597 14.168 17.3005 14.0203 17.2931Z" fill="black"/>
</g>
<defs>
<clipPath id="clip0">
<rect width="24" height="24" fill="white"/>
</clipPath>
</defs>
</svg>
