<svg width="24" height="24" viewBox="0 0 24 24" fill="none" xmlns="http://www.w3.org/2000/svg">
<path fill-rule="evenodd" clip-rule="evenodd" d="M12 14.4197C7.2646 14.4197 3.4218 18.3448 3.4218 23.2592C3.4218 23.6683 3.10352 23.9999 2.7109 23.9999C2.31828 23.9999 2 23.6683 2 23.2592C2 17.5069 6.49844 12.9382 12 12.9382C17.5064 12.9382 22 17.6106 22 23.2592C22 23.6683 21.6817 23.9999 21.2891 23.9999C20.8965 23.9999 20.5782 23.6683 20.5782 23.2592C20.5782 18.4387 16.7306 14.4197 12 14.4197Z" fill="black"/>
<path fill-rule="evenodd" clip-rule="evenodd" d="M6.50364 5.3208C6.92243 5.3208 7.26193 5.67455 7.26193 6.11092C7.26193 8.82533 9.3396 10.9043 11.8622 10.9043C14.3755 10.9043 16.4626 8.72969 16.4626 6.11092C16.4626 5.67455 16.8021 5.3208 17.2209 5.3208C17.6397 5.3208 17.9792 5.67455 17.9792 6.11092C17.9792 9.60243 15.2131 12.4846 11.8622 12.4846C8.52076 12.4846 5.74534 9.71749 5.74534 6.11092C5.74534 5.67455 6.08484 5.3208 6.50364 5.3208Z" fill="black"/>
<path fill-rule="evenodd" clip-rule="evenodd" d="M10.0212 0.747749C10.4346 0.677436 10.8243 0.969563 10.8918 1.40023L11.7007 6.56236C11.7681 6.99303 11.4878 7.39916 11.0745 7.46947C10.6611 7.53978 10.2714 7.24766 10.2039 6.81699L9.39505 1.65486C9.32756 1.22419 9.60792 0.818063 10.0212 0.747749Z" fill="#29D305"/>
<path fill-rule="evenodd" clip-rule="evenodd" d="M13.7731 1.00392C13.7731 1.00392 14.7587 1.05953 14.6831 1.48872L13.7731 6.65085C13.6975 7.08004 13.3022 7.36407 12.8903 7.28524C12.4784 7.20641 12.2058 6.79457 12.2815 6.36538L13.1914 1.20325C13.2671 0.774058 13.7731 1.00392 13.7731 1.00392Z" fill="#29D305"/>
<path fill-rule="evenodd" clip-rule="evenodd" d="M4 6.68978C4 6.25341 4.35817 5.89966 4.8 5.89966H19.2C19.6418 5.89966 20 6.25341 20 6.68978C20 7.12615 19.6418 7.4799 19.2 7.4799H4.8C4.35817 7.4799 4 7.12615 4 6.68978Z" fill="#29D305"/>
<path fill-rule="evenodd" clip-rule="evenodd" d="M10.3839 2.1451C10.2555 2.28885 10.1013 2.39095 9.93662 2.4645L9.93218 2.46649C8.30202 3.18168 7.26193 4.78419 7.26193 6.79505C7.26193 7.23142 6.92243 7.11109 6.50364 7.11109C6.08484 7.11109 5.74534 7.23142 5.74534 6.79505C5.74534 4.21273 7.08756 2.05102 9.23759 1.05782C9.26533 0.965893 9.31561 0.824215 9.41821 0.678427C9.64351 0.358302 9.98181 0.20586 10.3403 0.122622C10.6984 0.0394498 11.1876 0 11.8622 0C12.5393 0 13.0357 0.039863 13.4049 0.12052C13.7732 0.200994 14.0985 0.339662 14.3376 0.606562C14.4557 0.738379 14.5257 0.871996 14.5707 0.976907C14.5848 1.00984 14.5969 1.04095 14.6064 1.06639C16.764 2.07348 17.9792 4.24717 17.9792 6.79505C17.9792 7.23142 17.5385 7.11109 17.1198 7.11109C16.701 7.11109 16.4626 7.23142 16.4626 6.79505C16.4626 4.75612 15.5002 3.17139 13.8934 2.46647C13.8782 2.45982 13.8633 2.45265 13.8486 2.44497C13.4877 2.25698 13.3257 1.98176 13.2371 1.75821C13.228 1.73511 13.2202 1.71555 13.2138 1.69909C13.1861 1.68991 13.147 1.67878 13.0937 1.66713C12.8752 1.61939 12.4996 1.58024 11.8622 1.58024C11.2225 1.58024 10.8649 1.61981 10.6702 1.66503C10.6613 1.66708 10.6531 1.66909 10.6453 1.67105C10.6398 1.68883 10.6336 1.70795 10.6267 1.72775C10.5849 1.84715 10.5145 1.99897 10.3839 2.1451ZM13.2713 1.72237L13.2703 1.72176L13.2713 1.72237Z" fill="#29D305"/>
</svg>
