<svg width="24" height="24" viewBox="0 0 24 24" fill="none" xmlns="http://www.w3.org/2000/svg">
<path fill-rule="evenodd" clip-rule="evenodd" d="M15.4845 0.281205C17.0678 0.0737944 18.6755 0.378006 20.0769 1.15016C20.2804 1.26232 20.4197 1.46473 20.4527 1.69638C20.4857 1.92803 20.4086 2.16184 20.2446 2.32732L16.7116 5.89269C16.6432 5.96167 16.5887 6.04374 16.5517 6.13389C16.5147 6.22404 16.4957 6.32067 16.4957 6.41825C16.4957 6.51583 16.5147 6.61246 16.5517 6.70261C16.5887 6.79276 16.643 6.87467 16.7114 6.94365L17.4966 7.73604C17.6346 7.87529 17.8218 7.95351 18.017 7.95351C18.2122 7.95351 18.3994 7.87529 18.5374 7.73604L22.0215 4.22394C22.1888 4.05534 22.4261 3.97807 22.6595 4.01625C22.8929 4.05443 23.0939 4.2034 23.1998 4.41669C23.9109 5.84873 24.157 7.4704 23.9033 9.05159C23.6496 10.6327 22.909 12.093 21.7865 13.2254C20.6823 14.34 19.263 15.0817 17.7238 15.3486C16.3583 15.5854 14.9581 15.438 13.6753 14.9277L5.35801 23.3212C5.14907 23.5321 4.90078 23.6997 4.62773 23.8139C4.35459 23.9281 4.06182 23.9869 3.76615 23.9869C3.47048 23.9869 3.17771 23.9281 2.90457 23.8139C2.63142 23.6997 2.38327 23.5322 2.17428 23.3212L1.10409 22.2402C0.895004 22.0294 0.728995 21.7789 0.615811 21.5034C0.502605 21.2279 0.444336 20.9325 0.444336 20.6341C0.444336 20.3358 0.502605 20.0404 0.615811 19.7649C0.728994 19.4893 0.894871 19.239 1.10396 19.0282L9.42822 10.6335C8.9104 9.30634 8.77066 7.85542 9.03051 6.44618C9.3226 4.86214 10.1045 3.41222 11.2641 2.3046C12.4236 1.19698 13.9011 0.488615 15.4845 0.281205ZM20.7456 12.1749C21.6494 11.2631 22.2459 10.0872 22.4501 8.81412C22.5979 7.89335 22.5351 6.95553 22.2724 6.07076L19.5782 8.78665C19.1641 9.2044 18.6025 9.43908 18.017 9.43908C17.4315 9.43908 16.8699 9.2044 16.4558 8.78665L15.6708 7.99444C15.4657 7.78753 15.3028 7.54171 15.1918 7.27133C15.0807 7.00088 15.0236 6.711 15.0236 6.41825C15.0236 6.1255 15.0807 5.83562 15.1918 5.56517C15.3028 5.29479 15.4655 5.04914 15.6706 4.84223L18.4464 2.04105C17.561 1.73173 16.6122 1.63151 15.674 1.75441C14.3992 1.9214 13.2096 2.49172 12.276 3.38349C11.3425 4.27525 10.7129 5.44261 10.4778 6.71795C10.2426 7.9933 10.4139 9.31104 10.9671 10.482C11.1013 10.7661 11.0436 11.1046 10.823 11.3271L2.14454 20.079C2.07227 20.1519 2.0148 20.2385 1.97568 20.3338C1.93656 20.429 1.91643 20.5311 1.91643 20.6341C1.91643 20.7372 1.93656 20.8393 1.97568 20.9345C2.0148 21.0297 2.07214 21.1163 2.14441 21.1891L3.21562 22.2711C3.2879 22.3441 3.37372 22.402 3.46818 22.4415C3.56264 22.481 3.66389 22.5014 3.76615 22.5014C3.8684 22.5014 3.96965 22.481 4.06411 22.4415C4.15857 22.402 4.24439 22.3441 4.31667 22.2711L12.9885 13.5199C13.209 13.2974 13.5445 13.2393 13.826 13.3748C14.9607 13.9213 16.2354 14.0993 17.4746 13.8845C18.7137 13.6696 19.8566 13.0722 20.7456 12.1749Z" fill="black"/>
<path fill-rule="evenodd" clip-rule="evenodd" d="M7.68208 3.23776C7.84206 3.55084 7.72284 3.93486 7.41608 4.10039C7.41323 4.10193 7.41036 4.10345 7.40747 4.10496C7.36991 4.1245 7.33252 4.14534 7.29538 4.16744C6.72265 4.50815 6.20717 5.14873 5.95646 5.99856C5.67815 6.94197 5.81318 7.8444 6.18583 8.45441C6.20771 8.49023 6.23041 8.52505 6.2539 8.5588C6.25572 8.56142 6.25752 8.56404 6.2593 8.56668C6.45509 8.85697 6.38416 9.2531 6.09843 9.45558C5.81011 9.65989 5.41225 9.58964 5.20979 9.29868C5.20797 9.29607 5.20616 9.29345 5.20435 9.29084C5.17212 9.24424 5.141 9.19673 5.11102 9.14837C4.51434 8.18623 4.36341 6.88636 4.73369 5.6312C5.06877 4.49535 5.7789 3.56852 6.66356 3.04877C6.71321 3.01961 6.76341 2.99172 6.81412 2.96515C6.817 2.96364 6.81988 2.96214 6.82276 2.96064C7.13588 2.7977 7.52062 2.92177 7.68208 3.23776Z" fill="#29D305"/>
<path fill-rule="evenodd" clip-rule="evenodd" d="M14.4335 18.1514C14.2283 18.4359 14.2877 18.8332 14.5651 19.0442C14.568 19.0464 14.5709 19.0486 14.5738 19.0507C14.6165 19.0821 14.66 19.1125 14.7042 19.142C15.5636 19.7158 16.7115 19.9451 17.8763 19.7359C19.1596 19.5054 20.2467 18.7805 20.829 17.8041C20.8573 17.7568 20.8843 17.7088 20.9101 17.6604C20.9118 17.6572 20.9135 17.6541 20.9151 17.6509C21.0745 17.3394 20.9574 16.9552 20.6502 16.7886C20.3398 16.6203 19.9531 16.7377 19.7863 17.0509C19.7846 17.054 19.783 17.0572 19.7813 17.0603C19.7598 17.1002 19.7367 17.1398 19.7122 17.179C19.3355 17.7804 18.6026 18.2977 17.6527 18.4683C16.7952 18.6224 16.0029 18.4494 15.4449 18.0923C15.4066 18.0678 15.3695 18.0424 15.3335 18.0163C15.3305 18.0141 15.3276 18.012 15.3246 18.0098C15.0398 17.8006 14.6408 17.864 14.4335 18.1514Z" fill="#29D305"/>
<path fill-rule="evenodd" clip-rule="evenodd" d="M4.97444 1.90651C3.97155 2.47402 3.08734 3.5641 2.66538 4.99444C2.19846 6.57717 2.43163 8.11798 3.10328 9.1629C3.12701 9.19982 3.15128 9.23612 3.1761 9.27178C3.17792 9.27439 3.17971 9.27702 3.18149 9.27965C3.37729 9.56994 3.30636 9.96608 3.02062 10.1686C2.7323 10.3729 2.33444 10.3026 2.13199 10.0117C2.13017 10.009 2.12835 10.0064 2.12654 10.0038C2.09551 9.95903 2.06518 9.91365 2.03556 9.86769C1.13211 8.46598 0.883321 6.5229 1.4426 4.62708C1.94944 2.90903 3.03068 1.52897 4.3533 0.781887C4.40158 0.754616 4.45018 0.728189 4.49909 0.702619C4.50197 0.701113 4.50485 0.699611 4.50773 0.698112C4.82086 0.535169 5.20559 0.659241 5.36706 0.975234C5.52703 1.28831 5.40782 1.67233 5.10106 1.83786C5.0982 1.8394 5.09533 1.84092 5.09245 1.84243C5.05294 1.86298 5.0136 1.88435 4.97444 1.90651Z" fill="#29D305"/>
<path fill-rule="evenodd" clip-rule="evenodd" d="M13.4681 21.2542C13.263 21.5387 13.3224 21.936 13.5997 22.147C13.6026 22.1492 13.6055 22.1514 13.6085 22.1535C13.6499 22.1839 13.6918 22.2138 13.7343 22.243C14.9911 23.1092 16.7063 23.4696 18.4634 23.154C20.3984 22.8065 22.0108 21.7049 22.8445 20.2552C22.8711 20.209 22.897 20.1624 22.922 20.1154C22.9236 20.1123 22.9253 20.1091 22.9269 20.1059C23.0864 19.7944 22.9692 19.4102 22.662 19.2436C22.3517 19.0753 21.9649 19.1928 21.7981 19.506C21.7965 19.5091 21.7948 19.5122 21.7931 19.5154C21.7703 19.5579 21.7465 19.6002 21.7217 19.6423C21.0936 20.7074 19.84 21.599 18.2398 21.8864C16.7918 22.1465 15.4366 21.8433 14.4847 21.2009C14.4451 21.1742 14.4063 21.1469 14.3681 21.119C14.3652 21.1169 14.3622 21.1147 14.3593 21.1126C14.0745 20.9034 13.6755 20.9668 13.4681 21.2542Z" fill="#29D305"/>
</svg>
