<svg width="25" height="25" viewBox="0 0 25 25" fill="none" xmlns="http://www.w3.org/2000/svg">
<path fill-rule="evenodd" clip-rule="evenodd" d="M16.323 0.0662448C17.9363 -0.143181 19.5745 0.163986 21.0024 0.943647C21.2099 1.05689 21.3518 1.26127 21.3854 1.49517C21.419 1.72907 21.3405 1.96515 21.1734 2.13224L17.5734 5.73224C17.5037 5.80189 17.4482 5.88476 17.4105 5.97579C17.3728 6.06682 17.3533 6.16438 17.3533 6.26291C17.3533 6.36144 17.3728 6.45901 17.4105 6.55004C17.4482 6.64106 17.5035 6.72376 17.5732 6.79341L18.3733 7.5935C18.5139 7.73411 18.7047 7.81309 18.9035 7.81309C19.1024 7.81309 19.2931 7.73411 19.4338 7.5935L22.984 4.04728C23.1544 3.87704 23.3963 3.79903 23.634 3.83758C23.8718 3.87612 24.0766 4.02654 24.1845 4.2419C24.9091 5.68786 25.16 7.32528 24.9014 8.92183C24.6429 10.5183 23.8882 11.9928 22.7444 13.1362C21.6194 14.2616 20.1731 15.0106 18.6048 15.28C17.2134 15.5191 15.7866 15.3703 14.4795 14.8551L6.00457 23.33C6.0045 23.3301 6.00464 23.33 6.00457 23.33C5.79166 23.543 5.53867 23.7123 5.26044 23.8276C4.98212 23.9429 4.6838 24.0023 4.38252 24.0023C4.08125 24.0023 3.78293 23.9429 3.50461 23.8276C3.22629 23.7122 2.97343 23.5431 2.76048 23.33L1.67001 22.2386C1.66996 22.2385 1.67005 22.2386 1.67001 22.2386C1.45695 22.0257 1.2878 21.7728 1.17247 21.4946C1.05712 21.2164 0.997742 20.9181 0.997742 20.6169C0.997742 20.3157 1.05712 20.0174 1.17247 19.7392C1.2878 19.461 1.45682 19.2082 1.66987 18.9954C1.66992 18.9954 1.66983 18.9954 1.66987 18.9954L10.1519 10.5191C9.62429 9.17906 9.4819 7.71404 9.74668 6.29112C10.0443 4.69168 10.8411 3.22768 12.0226 2.1093C13.2041 0.990917 14.7096 0.27567 16.323 0.0662448ZM21.6838 12.0755C22.6048 11.1548 23.2125 9.96755 23.4207 8.68206C23.5713 7.75234 23.5073 6.80542 23.2396 5.91204L20.4943 8.65432C20.0723 9.07613 19.5001 9.31309 18.9035 9.31309C18.3069 9.31309 17.7347 9.07613 17.3128 8.65432L16.5129 7.85441C16.5128 7.85436 16.5129 7.85447 16.5129 7.85441C16.3039 7.6455 16.1379 7.39728 16.0248 7.12428C15.9116 6.85121 15.8533 6.55851 15.8533 6.26291C15.8533 5.96732 15.9116 5.67462 16.0248 5.40154C16.1379 5.12854 16.3037 4.8805 16.5127 4.67158C16.5128 4.67153 16.5126 4.67164 16.5127 4.67158L19.3411 1.84319C18.4389 1.53086 17.4721 1.42967 16.5161 1.55376C15.2171 1.72238 14.005 2.29824 13.0537 3.19867C12.1025 4.0991 11.461 5.27779 11.2214 6.56553C10.9817 7.85326 11.1563 9.18381 11.72 10.3661C11.8568 10.653 11.7979 10.9948 11.5732 11.2194L2.73017 20.0564C2.65653 20.13 2.59798 20.2175 2.55812 20.3136C2.51826 20.4098 2.49774 20.5128 2.49774 20.6169C2.49774 20.721 2.51826 20.8241 2.55812 20.9202C2.59798 21.0164 2.6564 21.1037 2.73004 21.1773L3.82157 22.2698C3.89521 22.3435 3.98266 22.402 4.07891 22.4419C4.17516 22.4817 4.27833 22.5023 4.38252 22.5023C4.48672 22.5023 4.58989 22.4817 4.68614 22.4419C4.78239 22.402 4.86984 22.3435 4.94348 22.2698L13.7797 13.4336C14.0044 13.2089 14.3463 13.1502 14.633 13.287C15.7893 13.8388 17.0882 14.0186 18.3508 13.8017C19.6135 13.5848 20.778 12.9815 21.6838 12.0755Z" fill="black"/>
</svg>
