<svg width="25" height="24" viewBox="0 0 25 24" fill="none" xmlns="http://www.w3.org/2000/svg">
<path fill-rule="evenodd" clip-rule="evenodd" d="M15.3252 0.0640475C16.9386 -0.145378 18.5768 0.161789 20.0047 0.94145C20.2121 1.0547 20.354 1.25907 20.3876 1.49297C20.4213 1.72688 20.3427 1.96295 20.1756 2.13005L16.5756 5.73005C16.5059 5.7997 16.4505 5.88256 16.4127 5.97359C16.375 6.06462 16.3556 6.16218 16.3556 6.26072C16.3556 6.35925 16.375 6.45681 16.4127 6.54784C16.4505 6.63887 16.5057 6.72157 16.5754 6.79122L17.3755 7.5913C17.5162 7.73191 17.7069 7.8109 17.9058 7.8109C18.1047 7.8109 18.2954 7.73191 18.436 7.5913L21.9863 4.04509C22.1567 3.87485 22.3985 3.79683 22.6363 3.83538C22.8741 3.87393 23.0789 4.02434 23.1868 4.23971C23.9114 5.68566 24.1622 7.32309 23.9037 8.91964C23.6452 10.5161 22.8905 11.9906 21.7467 13.134C20.6217 14.2594 19.1754 15.0084 17.6071 15.2778C16.2157 15.5169 14.7889 15.3681 13.4818 14.8529L5.00682 23.3278C4.79392 23.5408 4.54093 23.7101 4.2627 23.8254C3.98438 23.9407 3.68606 24.0001 3.38478 24.0001C3.08351 24.0001 2.78519 23.9407 2.50687 23.8254C2.22855 23.71 1.97569 23.5409 1.76274 23.3278L0.672265 22.2364C0.459211 22.0235 0.290055 21.7706 0.174726 21.4924C0.0593737 21.2142 0 20.9159 0 20.6147C0 20.3135 0.0593737 20.0152 0.174726 19.737C0.290054 19.4588 0.459076 19.206 0.672133 18.9932L9.15419 10.5169C8.62655 9.17686 8.48416 7.71185 8.74894 6.28892C9.04656 4.68948 9.84333 3.22549 11.0248 2.1071C12.2064 0.98872 13.7119 0.273473 15.3252 0.0640475ZM20.6861 12.0733C21.6071 11.1526 22.2148 9.96536 22.423 8.67986C22.5735 7.75015 22.5096 6.80322 22.2419 5.90985L19.4965 8.65213C19.0746 9.07393 18.5024 9.31089 17.9058 9.31089C17.3092 9.31089 16.737 9.07393 16.315 8.65213L15.5151 7.85222C15.3061 7.6433 15.1401 7.39509 15.027 7.12209C14.9138 6.84901 14.8556 6.55631 14.8556 6.26072C14.8556 5.96512 14.9138 5.67242 15.027 5.39934C15.1401 5.12634 15.3059 4.8783 15.515 4.66939L18.3433 1.84099C17.4412 1.52867 16.4743 1.42747 15.5183 1.55157C14.2194 1.72018 13.0073 2.29604 12.056 3.19647C11.1047 4.0969 10.4632 5.27559 10.2236 6.56333C9.984 7.85106 10.1586 9.18161 10.7223 10.3639C10.859 10.6508 10.8002 10.9926 10.5754 11.2172L1.73243 20.0542C1.65879 20.1278 1.60024 20.2153 1.56038 20.3114C1.52052 20.4076 1.5 20.5106 1.5 20.6147C1.5 20.7188 1.52052 20.8219 1.56038 20.918C1.60024 21.0142 1.65866 21.1015 1.7323 21.1751L2.82382 22.2676C2.89747 22.3413 2.98492 22.3998 3.08117 22.4397C3.17742 22.4796 3.28059 22.5001 3.38478 22.5001C3.48898 22.5001 3.59215 22.4796 3.6884 22.4397C3.78465 22.3998 3.87209 22.3413 3.94574 22.2676L12.782 13.4314C13.0066 13.2067 13.3485 13.148 13.6353 13.2848C14.7915 13.8366 16.0904 14.0164 17.3531 13.7995C18.6157 13.5826 19.7803 12.9793 20.6861 12.0733Z" fill="black"/>
</svg>
