<svg width="24" height="24" viewBox="0 0 24 24" fill="none" xmlns="http://www.w3.org/2000/svg">
<path fill-rule="evenodd" clip-rule="evenodd" d="M9.812 1.49899C8.1678 1.49899 6.56053 1.98657 5.19345 2.90005C3.82636 3.81353 2.76086 5.1119 2.1317 6.63096C1.50253 8.15001 1.33796 9.82153 1.6588 11.4341C1.97963 13.0467 2.77146 14.5279 3.93414 15.6905C5.09683 16.8531 6.57815 17.6447 8.19077 17.9654C9.8034 18.286 11.4749 18.1213 12.9939 17.4919C14.5129 16.8626 15.8111 15.797 16.7244 14.4298C17.6378 13.0626 18.1252 11.4553 18.125 9.81108C18.1248 7.60649 17.2488 5.49228 15.6899 3.93349C14.1309 2.3747 12.0166 1.49899 9.812 1.49899ZM4.36007 1.65286C5.97384 0.574543 7.87112 -0.00100708 9.812 -0.00100708C12.4144 -0.00100708 14.9102 1.03271 16.7505 2.87277C18.5907 4.71283 19.6247 7.20853 19.625 9.81091C19.6252 11.7518 19.0499 13.6491 17.9717 15.263C16.8936 16.8769 15.3611 18.1348 13.568 18.8777C11.7749 19.6206 9.80185 19.8151 7.89824 19.4366C5.99463 19.0581 4.24602 18.1235 2.87354 16.7512C1.50106 15.3789 0.566355 13.6304 0.187631 11.7268C-0.191094 9.82325 0.00317293 7.85013 0.745864 6.05697C1.48855 4.26382 2.74631 2.73117 4.36007 1.65286Z" fill="black"/>
<path fill-rule="evenodd" clip-rule="evenodd" d="M4.5 9.74899C4.5 9.33478 4.83578 8.99899 5.25 8.99899H14.25C14.6642 8.99899 15 9.33478 15 9.74899C15 10.1632 14.6642 10.499 14.25 10.499H5.25C4.83578 10.499 4.5 10.1632 4.5 9.74899Z" fill="black"/>
<path fill-rule="evenodd" clip-rule="evenodd" d="M15.6907 15.6886C15.9836 15.3958 16.4585 15.3958 16.7514 15.6887L23.7804 22.7187C24.0732 23.0116 24.0732 23.4865 23.7803 23.7794C23.4874 24.0722 23.0125 24.0722 22.7196 23.7793L15.6906 16.7493C15.3978 16.4564 15.3978 15.9815 15.6907 15.6886Z" fill="black"/>
</svg>
