<svg width="24" height="24" fill="none" xmlns="http://www.w3.org/2000/svg"><g clip-path="url(#clip0)" fill-rule="evenodd" clip-rule="evenodd" fill="#000"><path d="M9.812 1.499a8.313 8.313 0 100 16.626 8.313 8.313 0 000-16.626zm-5.452.154A9.813 9.813 0 1115.264 17.97 9.813 9.813 0 014.36 1.653z"/><path d="M4.5 9.749a.75.75 0 01.75-.75h9a.75.75 0 010 1.5h-9a.75.75 0 01-.75-.75zM15.69 15.689a.75.75 0 011.061 0l7.03 7.03a.75.75 0 01-1.061 1.06l-7.03-7.03a.75.75 0 010-1.06z"/></g><defs><clipPath id="clip0"><path fill="#fff" d="M0 0h24v24H0z"/></clipPath></defs></svg>