<svg width="24" height="24" fill="none" xmlns="http://www.w3.org/2000/svg"><g clip-path="url(#clip0)" fill-rule="evenodd" clip-rule="evenodd" fill="#000"><path d="M9.813 1.499a8.313 8.313 0 10-.002 16.626A8.313 8.313 0 009.813 1.5zm-5.452.153a9.813 9.813 0 1110.902 16.32A9.813 9.813 0 014.361 1.652z"/><path d="M4.5 9.749a.75.75 0 01.75-.75h9a.75.75 0 010 1.5h-9a.75.75 0 01-.75-.75z"/><path d="M9.75 4.499a.75.75 0 01.75.75v9a.75.75 0 01-1.5 0v-9a.75.75 0 01.75-.75zM15.69 15.689a.75.75 0 011.061 0l7.03 7.03a.75.75 0 01-1.061 1.06l-7.03-7.03a.75.75 0 010-1.06z"/></g><defs><clipPath id="clip0"><path fill="#fff" d="M0 0h24v24H0z"/></clipPath></defs></svg>