<svg width="24" height="24" viewBox="0 0 24 24" fill="none" xmlns="http://www.w3.org/2000/svg">
<path fill-rule="evenodd" clip-rule="evenodd" d="M9.81294 1.49899C8.16871 1.49881 6.56135 1.98623 5.19414 2.8996C3.82694 3.81298 2.7613 5.11128 2.13199 6.63032C1.50269 8.14936 1.33799 9.8209 1.65872 11.4336C1.97944 13.0462 2.7712 14.5275 3.93385 15.6902C5.0965 16.8528 6.57782 17.6446 8.19047 17.9653C9.80312 18.286 11.4747 18.1213 12.9937 17.492C14.5127 16.8627 15.811 15.7971 16.7244 14.4299C17.6378 13.0627 18.1252 11.4553 18.125 9.81108C18.1248 7.60665 17.249 5.49258 15.6902 3.93381C14.1314 2.37505 12.0174 1.49924 9.81294 1.49899ZM4.36089 1.65233C5.9748 0.574147 7.87219 -0.00122118 9.81311 -0.00100702C12.4153 -0.000719905 14.9108 1.03312 16.7509 2.87315C18.5909 4.71318 19.6247 7.20872 19.625 9.81091C19.6252 11.7518 19.0499 13.6492 17.9717 15.2631C16.8935 16.877 15.3609 18.135 13.5678 18.8778C11.7747 19.6207 9.80151 19.8151 7.89787 19.4365C5.99424 19.0579 4.24563 18.1233 2.87319 16.7508C1.50075 15.3784 0.566131 13.6298 0.187529 11.7261C-0.191073 9.82251 0.00334823 7.84936 0.746205 6.05622C1.48906 4.26308 2.74699 2.73051 4.36089 1.65233Z" fill="black"/>
<path fill-rule="evenodd" clip-rule="evenodd" d="M4.50003 9.74899C4.50003 9.33478 4.83581 8.99899 5.25003 8.99899H14.25C14.6642 8.99899 15 9.33478 15 9.74899C15 10.1632 14.6642 10.499 14.25 10.499H5.25003C4.83581 10.499 4.50003 10.1632 4.50003 9.74899Z" fill="black"/>
<path fill-rule="evenodd" clip-rule="evenodd" d="M9.75003 4.49899C10.1642 4.49899 10.5 4.83478 10.5 5.24899V14.249C10.5 14.6632 10.1642 14.999 9.75003 14.999C9.33581 14.999 9.00003 14.6632 9.00003 14.249V5.24899C9.00003 4.83478 9.33581 4.49899 9.75003 4.49899Z" fill="black"/>
<path fill-rule="evenodd" clip-rule="evenodd" d="M15.6907 15.6886C15.9837 15.3958 16.4585 15.3958 16.7514 15.6887L23.7804 22.7187C24.0733 23.0116 24.0732 23.4865 23.7803 23.7794C23.4874 24.0722 23.0125 24.0722 22.7197 23.7793L15.6907 16.7493C15.3978 16.4564 15.3978 15.9815 15.6907 15.6886Z" fill="black"/>
</svg>
