<svg width="16" height="17" viewBox="0 0 16 17" fill="none" xmlns="http://www.w3.org/2000/svg">
<g clip-path="url(#clip0)">
<path fill-rule="evenodd" clip-rule="evenodd" d="M8 1.5C4.13401 1.5 1 4.63401 1 8.5C1 12.366 4.13401 15.5 8 15.5C11.866 15.5 15 12.366 15 8.5C15 4.63401 11.866 1.5 8 1.5ZM0 8.5C0 4.08172 3.58172 0.5 8 0.5C12.4183 0.5 16 4.08172 16 8.5C16 12.9183 12.4183 16.5 8 16.5C3.58172 16.5 0 12.9183 0 8.5Z" fill="black"/>
<path fill-rule="evenodd" clip-rule="evenodd" d="M12.2542 10.0522C12.5016 10.1749 12.6026 10.475 12.4799 10.7223C12.066 11.5566 11.4272 12.2588 10.6357 12.7495C9.84415 13.2403 8.93126 13.5003 7.9999 13.5001C7.72376 13.5001 7.49995 13.2762 7.5 13C7.50005 12.7239 7.72395 12.5001 8.0001 12.5001C8.74518 12.5003 9.47549 12.2923 10.1087 11.8997C10.742 11.507 11.253 10.9453 11.5841 10.2779C11.7068 10.0305 12.0069 9.92948 12.2542 10.0522Z" fill="black"/>
<path fill-rule="evenodd" clip-rule="evenodd" d="M5.5 5.75C5.30109 5.75 5.11032 5.82902 4.96967 5.96967C4.82902 6.11032 4.75 6.30109 4.75 6.5C4.75 6.64834 4.79399 6.79334 4.8764 6.91668C4.95881 7.04001 5.07594 7.13614 5.21299 7.19291C5.35003 7.24968 5.50083 7.26453 5.64632 7.23559C5.7918 7.20665 5.92544 7.13522 6.03033 7.03033C6.13522 6.92544 6.20665 6.7918 6.23559 6.64632C6.26453 6.50083 6.24968 6.35003 6.19291 6.21299C6.13614 6.07594 6.04001 5.95881 5.91668 5.8764C5.79334 5.79399 5.64834 5.75 5.5 5.75Z" fill="black"/>
<path fill-rule="evenodd" clip-rule="evenodd" d="M10.5 5.75C10.3011 5.75 10.1103 5.82902 9.96967 5.96967C9.82902 6.11032 9.75 6.30109 9.75 6.5C9.75 6.64834 9.79399 6.79334 9.8764 6.91668C9.95881 7.04001 10.0759 7.13614 10.213 7.19291C10.35 7.24968 10.5008 7.26453 10.6463 7.23559C10.7918 7.20665 10.9254 7.13522 11.0303 7.03033C11.1352 6.92544 11.2067 6.7918 11.2356 6.64632C11.2645 6.50083 11.2497 6.35003 11.1929 6.21299C11.1361 6.07594 11.04 5.95881 10.9167 5.8764C10.7933 5.79399 10.6483 5.75 10.5 5.75Z" fill="black"/>
</g>
<defs>
<clipPath id="clip0">
<rect width="16" height="16" fill="white" transform="translate(0 0.5)"/>
</clipPath>
</defs>
</svg>
