<svg width="32" height="32" viewBox="0 0 32 32" fill="none" xmlns="http://www.w3.org/2000/svg">
<g clip-path="url(#clip0)">
<path fill-rule="evenodd" clip-rule="evenodd" d="M16 2.00006C8.26801 2.00006 2 8.26807 2 16.0001C2 23.732 8.26801 30.0001 16 30.0001C23.732 30.0001 30 23.732 30 16.0001C30 8.26807 23.732 2.00006 16 2.00006ZM0 16.0001C0 7.16351 7.16344 6.10352e-05 16 6.10352e-05C24.8366 6.10352e-05 32 7.16351 32 16.0001C32 24.8366 24.8366 32.0001 16 32.0001C7.16344 32.0001 0 24.8366 0 16.0001Z" fill="black"/>
<path fill-rule="evenodd" clip-rule="evenodd" d="M11 10.5001C10.6022 10.5001 10.2206 10.6581 9.93934 10.9394C9.65804 11.2207 9.5 11.6022 9.5 12.0001C9.5 12.2967 9.58797 12.5867 9.7528 12.8334C9.91762 13.0801 10.1519 13.2723 10.426 13.3859C10.7001 13.4994 11.0017 13.5291 11.2926 13.4712C11.5836 13.4134 11.8509 13.2705 12.0607 13.0607C12.2704 12.8509 12.4133 12.5837 12.4712 12.2927C12.5291 12.0017 12.4994 11.7001 12.3858 11.426C12.2723 11.1519 12.08 10.9177 11.8334 10.7529C11.5867 10.588 11.2967 10.5001 11 10.5001Z" fill="black"/>
<path fill-rule="evenodd" clip-rule="evenodd" d="M21 10.5001C20.6022 10.5001 20.2206 10.6581 19.9393 10.9394C19.658 11.2207 19.5 11.6022 19.5 12.0001C19.5 12.2967 19.588 12.5867 19.7528 12.8334C19.9176 13.0801 20.1519 13.2723 20.426 13.3859C20.7001 13.4994 21.0017 13.5291 21.2926 13.4712C21.5836 13.4134 21.8509 13.2705 22.0607 13.0607C22.2704 12.8509 22.4133 12.5837 22.4712 12.2927C22.5291 12.0017 22.4994 11.7001 22.3858 11.426C22.2723 11.1519 22.08 10.9177 21.8334 10.7529C21.5867 10.588 21.2967 10.5001 21 10.5001Z" fill="black"/>
</g>
<defs>
<clipPath id="clip0">
<rect width="32" height="32" fill="white"/>
</clipPath>
</defs>
</svg>
