<svg width="32" height="32" viewBox="0 0 32 32" fill="none" xmlns="http://www.w3.org/2000/svg">
<g clip-path="url(#clip0)">
<path fill-rule="evenodd" clip-rule="evenodd" d="M2.58575 9.20368C3.09405 9.41967 3.33102 10.0068 3.11503 10.5151C2.21041 12.644 1.84738 14.9638 2.05837 17.2673C2.26936 19.5708 3.04781 21.7861 4.32413 23.7152C5.60045 25.6443 7.33487 27.2271 9.37235 28.3221C11.4098 29.4171 13.6869 29.9903 16 29.9903C18.3131 29.9903 20.5902 29.4171 22.6277 28.3221C24.6651 27.2271 26.3996 25.6443 27.6759 23.7152C28.9522 21.7861 29.7306 19.5708 29.9416 17.2673C30.1526 14.9638 29.7896 12.644 28.885 10.5151C28.669 10.0068 28.906 9.41967 29.4143 9.20368C29.9226 8.98769 30.5097 9.22466 30.7257 9.73295C31.7595 12.166 32.1744 14.8172 31.9333 17.4497C31.6922 20.0823 30.8025 22.614 29.3439 24.8187C27.8852 27.0234 25.903 28.8323 23.5745 30.0838C21.2459 31.3353 18.6436 31.9903 16 31.9903C13.3565 31.9903 10.7541 31.3353 8.42554 30.0838C6.09699 28.8323 4.11479 27.0234 2.65615 24.8187C1.1975 22.614 0.307841 20.0823 0.0667065 17.4497C-0.174428 14.8172 0.24047 12.166 1.27432 9.73295C1.4903 9.22466 2.07746 8.98769 2.58575 9.20368Z" fill="black"/>
<path fill-rule="evenodd" clip-rule="evenodd" d="M15.9998 2.00012C12.2957 2.00012 8.74262 3.46831 6.11899 6.08303C5.7278 6.47289 5.09464 6.47181 4.70478 6.08062C4.31492 5.68944 4.31599 5.05627 4.70718 4.66641C7.70569 1.67809 11.7664 0.00012207 15.9998 0.00012207C20.2331 0.00012207 24.2938 1.67809 27.2923 4.66641C27.6835 5.05627 27.6846 5.68944 27.2947 6.08062C26.9049 6.47181 26.2717 6.47289 25.8805 6.08303C23.2569 3.46831 19.7038 2.00012 15.9998 2.00012Z" fill="black"/>
<path fill-rule="evenodd" clip-rule="evenodd" d="M7.48689 19.104C7.98176 18.8588 8.58171 19.0612 8.82692 19.556C9.48895 20.8921 10.5111 22.0166 11.7781 22.8028C13.045 23.589 14.5065 24.0056 15.9976 24.0056C17.4886 24.0056 18.9501 23.589 20.217 22.8028C21.484 22.0166 22.5062 20.8921 23.1682 19.556C23.4134 19.0612 24.0133 18.8588 24.5082 19.104C25.0031 19.3492 25.2055 19.9492 24.9603 20.444C24.1328 22.114 22.8552 23.5196 21.2716 24.5022C19.6879 25.4849 17.8613 26.0056 15.9976 26.0056C14.1338 26.0056 12.3072 25.4849 10.7235 24.5022C9.13992 23.5196 7.86234 22.114 7.03486 20.444C6.78965 19.9492 6.99203 19.3492 7.48689 19.104Z" fill="black"/>
<path fill-rule="evenodd" clip-rule="evenodd" d="M9.61503 4.12619C10.0773 3.92814 10.575 3.82602 11.0779 3.82602C11.5808 3.82602 12.0785 3.92814 12.5407 4.12619C13.0027 4.32409 13.4196 4.61365 13.7664 4.97735C14.4674 5.71072 14.8586 6.68617 14.8586 7.70069C14.8586 8.71539 14.4672 9.691 13.766 10.4244L13.7623 10.4283L8.75303 15.6108C8.58313 15.7889 8.37898 15.9309 8.15281 16.0281C7.92487 16.1261 7.67935 16.1767 7.43122 16.1767C7.18309 16.1767 6.93757 16.1261 6.70963 16.0281C6.48349 15.9309 6.27936 15.7889 6.10948 15.6109L1.0938 10.4232C0.390675 9.6907 -0.00195312 8.71469 -0.00195312 7.69935C-0.00195312 6.68465 0.390186 5.70923 1.09248 4.9769C1.43902 4.61347 1.85569 4.3241 2.31728 4.1263C2.77946 3.92824 3.27706 3.82612 3.77989 3.82612C4.28272 3.82612 4.78031 3.92824 5.24249 4.1263C5.70343 4.32382 6.11957 4.61265 6.46582 4.97536L7.42855 5.97086L8.39133 4.97531C8.73771 4.61257 9.15397 4.32372 9.61503 4.12619ZM13.0432 5.66803L12.3193 6.35785C12.1591 6.18979 11.9665 6.05599 11.7531 5.96458C11.5398 5.87316 11.31 5.82602 11.0779 5.82602C10.8457 5.82602 10.616 5.87316 10.4026 5.96458C10.1893 6.05599 9.99666 6.18979 9.83652 6.35785L9.83142 6.36321L8.1474 8.10453C7.95899 8.29935 7.69957 8.40935 7.42855 8.40935C7.15753 8.40935 6.89812 8.29935 6.70971 8.10453L5.02045 6.35776C4.86044 6.18977 4.66799 6.056 4.45473 5.96462C4.24148 5.87324 4.01189 5.82612 3.77989 5.82612C3.54788 5.82612 3.31829 5.87324 3.10504 5.96462C2.89179 6.056 2.69932 6.18975 2.5393 6.35774L2.53664 6.36052C2.19104 6.72056 1.99805 7.20029 1.99805 7.69935C1.99805 8.19788 2.19062 8.67711 2.53552 9.03701C2.53589 9.0374 2.53626 9.0378 2.53664 9.03819L7.4312 14.1006L12.3204 9.04228C12.321 9.04172 12.3215 9.04115 12.3221 9.04058C12.6664 8.67952 12.8586 8.1997 12.8586 7.70069C12.8586 7.20089 12.6658 6.72034 12.3204 6.35909L13.0432 5.66803Z" fill="#29D305"/>
<path fill-rule="evenodd" clip-rule="evenodd" d="M19.4606 4.12619C19.9229 3.92814 20.4206 3.82602 20.9235 3.82602C21.4264 3.82602 21.9241 3.92814 22.3863 4.12619C22.8474 4.32371 23.2636 4.61256 23.61 4.9753L24.5728 5.97086L25.5356 4.97534C25.8818 4.61264 26.2979 4.32381 26.7589 4.1263C27.2211 3.92824 27.7186 3.82612 28.2215 3.82612C28.7243 3.82612 29.2219 3.92824 29.6841 4.1263C30.1456 4.32406 30.5622 4.61335 30.9087 4.97668C31.6119 5.70916 32.0046 6.68523 32.0046 7.70069C32.0046 8.71688 31.6113 9.69365 30.9071 10.4263L30.9052 10.4283L25.8959 15.6108C25.7261 15.7889 25.5219 15.9309 25.2957 16.0281C25.0678 16.1261 24.8223 16.1767 24.5741 16.1767C24.326 16.1767 24.0805 16.1261 23.8525 16.0281C23.6264 15.9309 23.4223 15.7889 23.2524 15.6109L18.2349 10.4213C17.5347 9.68808 17.144 8.7132 17.144 7.69935C17.144 6.68568 17.5346 5.71098 18.2346 4.97779C18.5814 4.61388 18.9985 4.32417 19.4606 4.12619ZM20.9235 5.82602C20.6913 5.82602 20.4616 5.87316 20.2482 5.96458C20.0348 6.05599 19.8422 6.18979 19.6821 6.35785C19.3372 6.71902 19.144 7.19997 19.144 7.69935C19.144 8.1978 19.3358 8.67712 19.6794 9.03805L24.5741 14.1006L29.4652 9.0404C29.4654 9.0401 29.4649 9.0407 29.4652 9.0404C29.8107 8.68038 30.0046 8.19975 30.0046 7.70069C30.0046 7.2012 29.8113 6.7211 29.4652 6.36097L29.4621 6.35774C29.302 6.18975 29.1096 6.056 28.8963 5.96462C28.6831 5.87324 28.4535 5.82612 28.2215 5.82612C27.9895 5.82612 27.7599 5.87324 27.5466 5.96462C27.3334 6.056 27.1409 6.18975 26.9809 6.35774L26.9757 6.36321L25.2917 8.10453C25.1032 8.29935 24.8438 8.40935 24.5728 8.40935C24.3018 8.40935 24.0424 8.29935 23.854 8.10453L22.1648 6.35787C22.0047 6.18981 21.8121 6.05599 21.5987 5.96458C21.3853 5.87316 21.1556 5.82602 20.9235 5.82602Z" fill="#29D305"/>
</g>
<defs>
<clipPath id="clip0">
<rect width="32" height="32" fill="white"/>
</clipPath>
</defs>
</svg>
