<svg width="32" height="32" viewBox="0 0 32 32" fill="none" xmlns="http://www.w3.org/2000/svg">
<g clip-path="url(#clip0)">
<path fill-rule="evenodd" clip-rule="evenodd" d="M21.6376 3.18234C18.8791 1.97079 15.8032 1.68233 12.8675 2.35989C9.93191 3.03745 7.29354 4.64481 5.34508 6.94274C3.39663 9.24068 2.24226 12.1063 2.05378 15.1133C1.86529 18.1202 2.65278 21.1075 4.29902 23.6308C5.94527 26.1541 8.36227 28.0783 11.1903 29.1172C14.0183 30.156 17.1062 30.2539 19.9944 29.3963C22.8826 28.5387 25.4166 26.7714 27.2194 24.3575C29.0222 21.9436 29.9973 19.0121 29.9997 15.9993C29.9997 15.8129 29.996 15.628 29.9885 15.4446C29.9662 14.8928 30.3954 14.4273 30.9472 14.4049C31.499 14.3825 31.9645 14.8118 31.9869 15.3636C31.9954 15.5746 31.9997 15.7868 31.9997 16.0001V16.0009C31.997 19.4445 30.8824 22.7952 28.8218 25.5543C26.7613 28.3134 23.8649 30.3333 20.5637 31.3136C17.2626 32.2938 13.7331 32.1819 10.5007 30.9945C7.26826 29.8071 4.50564 27.6077 2.62399 24.7236C0.742346 21.8396 -0.157741 18.425 0.0576929 14.9881C0.273127 11.5513 1.59256 8.27582 3.81963 5.64929C6.04671 3.02277 9.06235 1.18557 12.4178 0.41112C15.7732 -0.363325 19.2889 -0.0336138 22.4418 1.35118C22.9475 1.57328 23.1774 2.16324 22.9553 2.6689C22.7332 3.17456 22.1432 3.40444 21.6376 3.18234Z" fill="black"/>
<path fill-rule="evenodd" clip-rule="evenodd" d="M10.7235 19.4979C12.3072 18.5152 14.1338 17.9945 15.9976 17.9945C17.8613 17.9945 19.6879 18.5152 21.2716 19.4979C22.8552 20.4805 24.1328 21.8861 24.9603 23.5561C25.2055 24.0509 25.0031 24.6509 24.5082 24.8961C24.0133 25.1413 23.4134 24.9389 23.1682 24.4441C22.5062 23.108 21.484 21.9835 20.217 21.1973C18.9501 20.4111 17.4886 19.9945 15.9976 19.9945C14.5065 19.9945 13.045 20.4111 11.7781 21.1973C10.5111 21.9835 9.48895 23.108 8.82692 24.4441C8.58171 24.9389 7.98176 25.1413 7.48689 24.8961C6.99203 24.6509 6.78965 24.0509 7.03486 23.5561C7.86234 21.8861 9.13992 20.4805 10.7235 19.4979Z" fill="black"/>
<path fill-rule="evenodd" clip-rule="evenodd" d="M19.5191 11.7337C20.1946 11.2559 21.0016 10.9994 21.8289 10.9994C22.6563 10.9994 23.4633 11.2559 24.1387 11.7337C24.8142 12.2114 25.3249 12.8869 25.6005 13.667C25.7845 14.1877 25.5115 14.759 24.9907 14.943C24.47 15.1269 23.8987 14.8539 23.7147 14.3332C23.5769 13.9431 23.3216 13.6054 22.9838 13.3665C22.6461 13.1277 22.2426 12.9994 21.8289 12.9994C21.4153 12.9994 21.0118 13.1277 20.674 13.3665C20.3363 13.6054 20.081 13.9431 19.9432 14.3332C19.7592 14.8539 19.1879 15.1269 18.6672 14.943C18.1464 14.759 17.8734 14.1877 18.0574 13.667C18.333 12.8869 18.8437 12.2114 19.5191 11.7337Z" fill="black"/>
<path fill-rule="evenodd" clip-rule="evenodd" d="M7.86192 11.7337C8.53738 11.2559 9.34437 10.9994 10.1717 10.9994C10.9991 10.9994 11.806 11.2559 12.4815 11.7337C13.157 12.2114 13.6677 12.8869 13.9433 13.667C14.1272 14.1877 13.8542 14.759 13.3335 14.943C12.8127 15.1269 12.2415 14.8539 12.0575 14.3332C11.9197 13.9431 11.6643 13.6054 11.3266 13.3665C10.9889 13.1277 10.5854 12.9994 10.1717 12.9994C9.75804 12.9994 9.35455 13.1277 9.01682 13.3665C8.67908 13.6054 8.42373 13.9431 8.28593 14.3332C8.10196 14.8539 7.53068 15.1269 7.00994 14.943C6.4892 14.759 6.21619 14.1877 6.40016 13.667C6.67575 12.8869 7.18646 12.2114 7.86192 11.7337Z" fill="black"/>
<path fill-rule="evenodd" clip-rule="evenodd" d="M28.8489 0.472067L27.9996 1.00006L27.1504 0.472067C27.3329 0.178541 27.654 6.10352e-05 27.9996 6.10352e-05C28.3452 6.10352e-05 28.6664 0.178541 28.8489 0.472067ZM31.9995 7.64036C31.9929 6.98034 31.742 6.19165 31.4608 5.48055C31.1615 4.72369 30.769 3.91355 30.3861 3.18008C30.0015 2.44358 29.6182 1.76835 29.3317 1.27814C29.1882 1.03263 29.0684 0.832537 28.984 0.693219C28.9419 0.623539 28.9085 0.569 28.8855 0.531516L28.8589 0.488301L28.8518 0.476723L28.8489 0.472067C28.8488 0.47196 28.8489 0.472067 27.9996 1.00006C27.1504 0.472067 27.1504 0.47196 27.1504 0.472067L27.1475 0.476723L27.1403 0.488301L27.1137 0.531516C27.0907 0.569 27.0574 0.623539 27.0152 0.693219C26.9309 0.832537 26.8111 1.03263 26.6675 1.27814C26.381 1.76835 25.9977 2.44358 25.6132 3.18008C25.2302 3.91355 24.8377 4.72369 24.5384 5.48055C24.2573 6.19165 24.0063 6.98034 23.9997 7.64036C23.951 8.73548 24.3345 9.8063 25.0683 10.6216C25.8074 11.4428 26.8415 11.9378 27.9447 11.9986C27.9813 12.0006 28.018 12.0006 28.0546 11.9986C29.1577 11.9378 30.1919 11.4428 30.9309 10.6216C31.6647 9.8063 32.0482 8.73548 31.9995 7.64036ZM27.9996 2.97556C27.8063 3.31933 27.596 3.70364 27.3861 4.10571C27.019 4.80874 26.6615 5.55019 26.3983 6.21595C26.1207 6.91798 25.9996 7.41137 25.9996 7.66673C25.9996 7.68346 25.9992 7.70019 25.9984 7.7169C25.9695 8.29218 26.1696 8.8555 26.5549 9.28365C26.9279 9.69813 27.4452 9.95327 27.9996 9.99785C28.5541 9.95327 29.0713 9.69813 29.4443 9.28365C29.8297 8.8555 30.0298 8.29218 30.0009 7.7169C30 7.70019 29.9996 7.68346 29.9996 7.66673C29.9996 7.41137 29.8785 6.91798 29.6009 6.21595C29.3377 5.55019 28.9802 4.80874 28.6132 4.10571C28.4032 3.70364 28.1929 3.31933 27.9996 2.97556Z" fill="#FF0000"/>
</g>
<defs>
<clipPath id="clip0">
<rect width="32" height="32" fill="white"/>
</clipPath>
</defs>
</svg>
