<svg width="266" height="244" fill="none" xmlns="http://www.w3.org/2000/svg">
  <path
    d="M254.125 122c0 67.379-54.23 122-121.125 122-66.895 0-121.125-54.621-121.125-122C11.875 54.621 66.105 0 133 0c66.895 0 121.125 54.621 121.125 122Z"
    fill="#333"
  />
  <path
    d="M195.444 72.466c-24.895-38.265-48.405-36.223-62.442-36.223l-48.67 74.365 21.353 40.713 71.766 8.682c3.164 0 23.018 14.786 47.083 14.786 7.819 0 14.979-1.675 20.002-5.062 7.809-5.266 11.966-11.247 18.497-32.178 0 0 2.969-12.559 2.969-26.912s-8.313-17.629-15.544-17.629c-9.285-.238-20.384 6.692-30.475 4.49-14.84-3.239-20.209-18.377-24.539-25.032Z"
    fill="#1F1F1F"
  />
  <path
    d="M142.814 143.527c-.366-.023-.398-.673-.038-.743 24.605-4.804 43.186-26.664 43.186-52.903 0-29.76-24.021-52.917-53.503-52.917-29.483 0-53.264 23.157-53.264 52.916 0 26.043 18.302 47.77 42.631 52.793.36.074.319.73-.048.749-9.673.504-16.529 1.673-22.364 2.729a.1.1 0 0 0-.073.058l-2.904 6.449a.1.1 0 0 0 .048.131l32.504 15.51a.1.1 0 0 0 .064.008l31.969-6.574a.09.09 0 0 0 .048-.025l10.569-10.102a.1.1 0 0 0 .019-.12l-2.917-5.356a.1.1 0 0 0-.08-.052c-2.407-.204-5.194-.522-8.282-.874-5.143-.588-11.119-1.27-17.565-1.677Z"
    fill="#C4C4C4"
  />
  <path
    d="M79.098 87.13c1.046-19.01 9.416-51.134 54.667-51.134 19.096.828 48.826 7.586 53.623 51.134-18.31 0-47.083-1.584-53.623-35.38a14.495 14.495 0 0 1-.018-.163c-.229-1.744-1.661-1.59-2.301-.168-5.698 20.056-21.483 35.711-52.348 35.711Z"
    fill="#1F1F1F"
  />
  <path
    fill-rule="evenodd"
    clip-rule="evenodd"
    d="M165.478 100.696c-.868.77-2.19.684-2.953-.193-1.642-1.886-4.556-4.057-7.871-4.586-3.114-.498-6.951.387-10.859 5.292a2.08 2.08 0 0 1-2.942.322 2.125 2.125 0 0 1-.32-2.97c4.737-5.944 10.012-7.578 14.776-6.817 4.563.73 8.293 3.596 10.36 5.972a2.126 2.126 0 0 1-.191 2.98Zm-40.031 1.416a2.078 2.078 0 0 1-2.953-.193c-1.642-1.886-4.556-4.057-7.871-4.586-3.114-.498-6.952.387-10.86 5.292a2.08 2.08 0 0 1-2.942.322 2.126 2.126 0 0 1-.319-2.97c4.737-5.944 10.012-7.578 14.775-6.817 4.564.73 8.294 3.596 10.361 5.972a2.126 2.126 0 0 1-.191 2.98Z"
    fill="#1F1F1F"
  />
  <path
    fill-rule="evenodd"
    clip-rule="evenodd"
    d="M77.016 118.114a2.378 2.378 0 0 1-2.616-2.121c-.476-4.408-4.66-14.779-17.931-18.305a2.397 2.397 0 0 1-1.69-2.925 2.37 2.37 0 0 1 2.897-1.707c15.533 4.127 20.795 16.44 21.441 22.417a2.39 2.39 0 0 1-2.1 2.641Zm10.758-9.812a2.378 2.378 0 0 1-2.616-2.121c-.476-4.407-4.66-14.778-17.931-18.304a2.397 2.397 0 0 1-1.691-2.926 2.37 2.37 0 0 1 2.898-1.706c15.533 4.126 20.795 16.44 21.441 22.417.142 1.315-.799 2.497-2.101 2.64Z"
    fill="#35BB18"
  />
  <path
    d="M98.25 146.13c0 3.189 12.024 12.744 31.004 12.744 18.981 0 40.282-7.369 38.223-12.831 27.226 2.186 39.779 16.074 42.248 73.924.566 13.243-10.283 24.033-23.537 24.033H81.968c-12.693 0-23.425-9.864-23.78-22.552-.888-31.782 3.07-71.395 40.063-75.318Z"
    fill="#EDEDED"
  />
  <path
    d="M31.072 145.065c.878 2.285 4.238 8.85 8.467 14.211 4.229 5.36 12.779 12.557 15.355 19.388 2.577 6.832 6.847 12.297 8.995 13.269 2.149.972 17.056-1.901 18.711-3.573 1.656-1.671-5.969-25.49 3.676-49.142 4.967-12.181.747-14.34-1.184-14.539-4.504-.464-5.451 4.288-6.857 10.105-1.396 5.771-3.12 7.138-5.635 2.119l-7.194-15.364c-1.884-2.89-10.702-18.966-26.86-12.511-10.706 4.277-13.575 14.759-12.388 21.922.783 4.718 4.037 11.829 4.914 14.115Z"
    fill="#F4F4F4"
  />
  <path
    fill-rule="evenodd"
    clip-rule="evenodd"
    d="m65.665 121.388 7.201 15.379c.623 1.243 1.182 2.058 1.678 2.509.49.443.86.49 1.172.342.358-.17.744-.637 1.136-1.486.385-.835.749-1.981 1.096-3.416l.17-.711c.63-2.616 1.208-5.024 2.124-6.767.502-.957 1.119-1.739 1.923-2.248.809-.512 1.78-.731 2.961-.609 1.05.108 2.706.752 3.426 2.977.709 2.191.488 5.861-2.003 11.971-4.799 11.768-5.304 23.585-4.812 32.682.219 4.031.632 7.523.954 10.243l.12 1.009c.165 1.416.29 2.588.322 3.46.016.435.01.809-.032 1.107-.039.283-.116.562-.294.742-.254.256-.72.502-1.29.739-.583.242-1.32.491-2.158.738-1.676.492-3.771.98-5.878 1.384-2.108.404-4.234.726-5.972.886-.868.08-1.645.12-2.276.109-.618-.012-1.14-.072-1.467-.22-.586-.265-1.286-.819-2.037-1.583-.756-.77-1.581-1.77-2.417-2.951-1.672-2.361-3.396-5.458-4.694-8.898-1.267-3.359-4.014-6.831-7.001-10.153a214.66 214.66 0 0 0-3.311-3.572c-1.878-1.995-3.658-3.886-4.999-5.585-4.247-5.384-7.622-11.975-8.51-14.289a86.968 86.968 0 0 0-.767-1.876l-.258-.622a151.38 151.38 0 0 1-1.468-3.646c-1.021-2.655-2.04-5.637-2.437-8.029-1.205-7.265 1.703-17.912 12.574-22.255 8.2-3.276 14.552-.828 19.073 2.794 3.985 3.193 6.56 7.31 7.747 9.206.154.247.285.456.393.621l.011.018Zm6.935 15.515c2.515 5.019 4.24 3.652 5.635-2.119l.168-.701c1.32-5.492 2.367-9.849 6.69-9.404 1.93.199 6.15 2.358 1.183 14.539-6.96 17.067-4.927 34.22-3.878 43.077.405 3.417.663 5.6.202 6.065-1.655 1.672-16.562 4.545-18.71 3.573-2.15-.972-6.419-6.437-8.995-13.269-1.765-4.677-6.329-9.525-10.389-13.838-1.87-1.986-3.633-3.86-4.967-5.55-4.229-5.361-7.589-11.926-8.467-14.211a83.64 83.64 0 0 0-.77-1.887c-1.307-3.141-3.517-8.451-4.144-12.228-1.187-7.163 1.682-17.645 12.388-21.922 15.221-6.08 23.93 7.834 26.463 11.882.156.25.288.461.397.629l7.194 15.364Z"
    fill="#F4F4F4"
  />
  <path
    d="M97.558 233.114c6.444-10.652-7.947-48.306-9.758-51.771-1.81-3.465-3.074-4.518-5.15-4.565-2.076-.046-4.123.625-12.865 2.801S55.2 183.05 55.75 188.594c1.901 19.163-.058 38.914 10.498 49.281 10.556 10.366 24.866 5.891 31.31-4.761Z"
    fill="#EDEDED"
  />
  <path
    fill-rule="evenodd"
    clip-rule="evenodd"
    d="M15.223 134.803a2.394 2.394 0 0 1 1.85 2.825c-.878 4.344-.027 15.509 11.547 22.953a2.409 2.409 0 0 1 .726 3.307 2.36 2.36 0 0 1-3.276.732c-13.545-8.712-14.837-22.058-13.646-27.949a2.373 2.373 0 0 1 2.8-1.868Zm-11.618 6.282a2.397 2.397 0 0 1 1.744 2.894c-1.038 4.308-.603 15.497 10.686 23.373a2.41 2.41 0 0 1 .603 3.332 2.358 2.358 0 0 1-3.3.608C.125 162.074-.67 148.689.738 142.846a2.372 2.372 0 0 1 2.867-1.761Z"
    fill="#35BB18"
  />
</svg>
