<svg width="243" height="127" viewBox="0 0 243 127" fill="none" xmlns="http://www.w3.org/2000/svg">
<path d="M27.9668 11.5656V3.42144H30.9452C31.5269 3.42144 32.0699 3.52615 32.574 3.73557C33.0782 3.94499 33.5087 4.23197 33.8655 4.59652C34.23 4.96106 34.5131 5.39542 34.7148 5.89958C34.9242 6.39598 35.0289 6.93116 35.0289 7.50513C35.0289 8.0791 34.9242 8.61428 34.7148 9.11068C34.5131 9.60709 34.23 10.0376 33.8655 10.4021C33.5087 10.7589 33.0782 11.042 32.574 11.2514C32.0699 11.4608 31.5269 11.5656 30.9452 11.5656H27.9668ZM30.9801 4.63142H29.3629V10.3556H30.9801C31.3447 10.3556 31.6859 10.2819 32.004 10.1345C32.322 9.98715 32.5973 9.78936 32.83 9.54116C33.0627 9.2852 33.245 8.98271 33.3768 8.63367C33.5164 8.28464 33.5862 7.90846 33.5862 7.50513C33.5862 7.1018 33.5164 6.72562 33.3768 6.37659C33.245 6.0198 33.0627 5.71342 32.83 5.45747C32.5973 5.20151 32.322 4.99984 32.004 4.85247C31.6859 4.7051 31.3447 4.63142 30.9801 4.63142Z" fill="black"/>
<path d="M45.1315 7.4935C45.1315 8.07522 45.0229 8.62592 44.8057 9.14559C44.5963 9.65751 44.3054 10.1035 43.9331 10.4836C43.5686 10.8559 43.1342 11.1506 42.6301 11.3678C42.1259 11.5849 41.5868 11.6935 41.0129 11.6935C40.4389 11.6935 39.8998 11.5849 39.3957 11.3678C38.8915 11.1506 38.4533 10.8559 38.081 10.4836C37.7164 10.1035 37.4256 9.65751 37.2084 9.14559C36.999 8.62592 36.8943 8.07522 36.8943 7.4935C36.8943 6.91177 36.999 6.36495 37.2084 5.85304C37.4256 5.33336 37.7164 4.88738 38.081 4.51508C38.4533 4.13502 38.8915 3.8364 39.3957 3.61922C39.8998 3.40205 40.4389 3.29346 41.0129 3.29346C41.5868 3.29346 42.1259 3.40205 42.6301 3.61922C43.1342 3.8364 43.5686 4.13502 43.9331 4.51508C44.3054 4.88738 44.5963 5.33336 44.8057 5.85304C45.0229 6.36495 45.1315 6.91177 45.1315 7.4935ZM43.7004 7.4935C43.7004 7.07466 43.6306 6.68684 43.491 6.33005C43.3591 5.9655 43.173 5.65137 42.9325 5.38766C42.6921 5.12395 42.409 4.9184 42.0832 4.77103C41.7575 4.61591 41.4046 4.53834 41.0245 4.53834C40.6444 4.53834 40.2877 4.61591 39.9541 4.77103C39.6284 4.9184 39.3453 5.12395 39.1048 5.38766C38.8644 5.65137 38.6743 5.9655 38.5347 6.33005C38.3951 6.68684 38.3253 7.07466 38.3253 7.4935C38.3253 7.91234 38.3951 8.30403 38.5347 8.66858C38.6743 9.02537 38.8644 9.33562 39.1048 9.59933C39.3453 9.85529 39.6284 10.0608 39.9541 10.216C40.2877 10.3633 40.6444 10.437 41.0245 10.437C41.4046 10.437 41.7575 10.3633 42.0832 10.216C42.409 10.0608 42.6921 9.85529 42.9325 9.59933C43.173 9.33562 43.3591 9.02537 43.491 8.66858C43.6306 8.30403 43.7004 7.91234 43.7004 7.4935Z" fill="black"/>
<path d="M163.814 11.5657V3.42157H166.792C167.374 3.42157 167.917 3.52628 168.421 3.7357C168.925 3.94512 169.356 4.2321 169.713 4.59665C170.077 4.96119 170.36 5.39555 170.562 5.89971C170.771 6.39611 170.876 6.93129 170.876 7.50526C170.876 8.07923 170.771 8.61441 170.562 9.11082C170.36 9.60722 170.077 10.0377 169.713 10.4022C169.356 10.759 168.925 11.0421 168.421 11.2516C167.917 11.461 167.374 11.5657 166.792 11.5657H163.814ZM166.827 4.63155H165.21V10.3557H166.827C167.192 10.3557 167.533 10.282 167.851 10.1346C168.169 9.98728 168.444 9.78949 168.677 9.54129C168.91 9.28533 169.092 8.98284 169.224 8.6338C169.364 8.28477 169.433 7.90859 169.433 7.50526C169.433 7.10193 169.364 6.72575 169.224 6.37672C169.092 6.01993 168.91 5.71355 168.677 5.4576C168.444 5.20164 168.169 4.99997 167.851 4.85261C167.533 4.70524 167.192 4.63155 166.827 4.63155Z" fill="black"/>
<path d="M180.979 7.49363C180.979 8.07535 180.87 8.62605 180.653 9.14572C180.443 9.65764 180.153 10.1036 179.78 10.4837C179.416 10.856 178.981 11.1507 178.477 11.3679C177.973 11.5851 177.434 11.6937 176.86 11.6937C176.286 11.6937 175.747 11.5851 175.243 11.3679C174.739 11.1507 174.3 10.856 173.928 10.4837C173.564 10.1036 173.273 9.65764 173.056 9.14572C172.846 8.62605 172.741 8.07535 172.741 7.49363C172.741 6.9119 172.846 6.36508 173.056 5.85317C173.273 5.3335 173.564 4.88751 173.928 4.51521C174.3 4.13515 174.739 3.83653 175.243 3.61935C175.747 3.40218 176.286 3.29359 176.86 3.29359C177.434 3.29359 177.973 3.40218 178.477 3.61935C178.981 3.83653 179.416 4.13515 179.78 4.51521C180.153 4.88751 180.443 5.3335 180.653 5.85317C180.87 6.36508 180.979 6.9119 180.979 7.49363ZM179.548 7.49363C179.548 7.07479 179.478 6.68697 179.338 6.33018C179.206 5.96563 179.02 5.6515 178.78 5.38779C178.539 5.12408 178.256 4.91853 177.93 4.77116C177.605 4.61604 177.252 4.53847 176.872 4.53847C176.492 4.53847 176.135 4.61604 175.801 4.77116C175.476 4.91853 175.192 5.12408 174.952 5.38779C174.712 5.6515 174.522 5.96563 174.382 6.33018C174.242 6.68697 174.172 7.07479 174.172 7.49363C174.172 7.91247 174.242 8.30416 174.382 8.66871C174.522 9.0255 174.712 9.33575 174.952 9.59946C175.192 9.85542 175.476 10.061 175.801 10.2161C176.135 10.3635 176.492 10.4371 176.872 10.4371C177.252 10.4371 177.605 10.3635 177.93 10.2161C178.256 10.061 178.539 9.85542 178.78 9.59946C179.02 9.33575 179.206 9.0255 179.338 8.66871C179.478 8.30416 179.548 7.91247 179.548 7.49363Z" fill="black"/>
<path d="M183.209 3.42157H184.57L188.817 9.33187L188.793 3.42157H190.108V11.5657H188.863L184.5 5.4925L184.524 11.5657H183.209V3.42157Z" fill="black"/>
<path d="M193.108 2.83984H194.435L193.295 5.91134H192.329L193.108 2.83984Z" fill="black"/>
<path d="M195.861 4.63155V3.42157H202.703V4.63155H199.992V11.5657H198.596V4.63155H195.861Z" fill="black"/>
<g clip-path="url(#clip0)">
<path d="M6.29756 12.5936C2.82498 12.5936 0 9.76867 0 6.29609C0 2.82351 2.82498 -0.00146484 6.29756 -0.00146484C9.77013 -0.00146484 12.5951 2.82351 12.5951 6.29609C12.5951 9.76867 9.77013 12.5936 6.29756 12.5936ZM6.29756 0.78573C3.25899 0.78573 0.787195 3.25752 0.787195 6.29609C0.787195 9.33466 3.25899 11.8065 6.29756 11.8065C9.33613 11.8065 11.8079 9.33466 11.8079 6.29609C11.8079 3.25752 9.33613 0.78573 6.29756 0.78573Z" fill="#21AC04"/>
<path fill-rule="evenodd" clip-rule="evenodd" d="M3.42724 5.93392C3.58095 5.78038 3.83016 5.78038 3.98387 5.93392L5.56099 7.50923L8.99355 4.08061C9.14726 3.92707 9.39647 3.92707 9.55018 4.08061C9.70389 4.23414 9.70389 4.48307 9.55018 4.6366L5.83931 8.34322C5.6856 8.49675 5.43639 8.49675 5.28268 8.34322L3.42724 6.48991C3.27353 6.33638 3.27353 6.08745 3.42724 5.93392Z" fill="#21AC04"/>
</g>
<g clip-path="url(#clip1)">
<path d="M142.145 12.5946C138.673 12.5946 135.848 9.76965 135.848 6.29707C135.848 2.82449 138.673 -0.000488281 142.145 -0.000488281C145.618 -0.000488281 148.443 2.82449 148.443 6.29707C148.443 9.76965 145.618 12.5946 142.145 12.5946ZM142.145 0.786706C139.107 0.786706 136.635 3.2585 136.635 6.29707C136.635 9.33564 139.107 11.8074 142.145 11.8074C145.184 11.8074 147.656 9.33564 147.656 6.29707C147.656 3.2585 145.184 0.786706 142.145 0.786706Z" fill="#EE0701"/>
<path d="M144.507 9.05235C144.402 9.05235 144.303 9.01142 144.229 8.9369L142.145 6.85398L140.062 8.93742C139.987 9.01194 139.889 9.05288 139.784 9.05288C139.679 9.05288 139.58 9.01194 139.506 8.93742C139.352 8.78418 139.352 8.53438 139.506 8.38061L141.589 6.29717L139.506 4.21373C139.431 4.13974 139.39 4.04055 139.39 3.93559C139.39 3.83063 139.431 3.73144 139.506 3.65745C139.58 3.58293 139.679 3.54199 139.784 3.54199C139.889 3.54199 139.988 3.58293 140.062 3.65745L142.145 5.74089L144.229 3.65745C144.303 3.58293 144.402 3.54199 144.507 3.54199C144.612 3.54199 144.711 3.58293 144.785 3.65745C144.86 3.73144 144.901 3.83063 144.901 3.93559C144.901 4.04055 144.86 4.13974 144.785 4.21373L142.702 6.29717L144.785 8.38061C144.938 8.53385 144.938 8.78366 144.785 8.93742C144.711 9.01142 144.612 9.05235 144.507 9.05235Z" fill="#EE0701"/>
</g>
<g clip-path="url(#clip2)">
<circle cx="81.9417" cy="50.1625" r="19.1527" fill="#29D305"/>
<path d="M81.8317 113.711C80.8016 114.948 79.539 115.929 78.2525 116.871C73.2564 120.535 67.7119 123.043 61.7318 124.61C58.7332 125.393 55.671 125.907 52.5814 126.147C49.4131 126.402 46.2288 126.388 43.0629 126.105C37.5273 125.605 32.1496 124.355 26.9325 122.456C23.537 121.221 20.1894 119.874 17.1363 117.894C13.0771 115.258 9.72326 111.908 6.99937 107.92C6.96654 107.871 6.94081 107.818 6.91064 107.768C7.86356 106.585 8.85818 105.431 10.1119 104.544C10.6345 104.174 11.0825 103.807 10.9876 103.087L11.1021 103.759C12.0351 103.126 13.0499 102.622 14.1187 102.263L14.3122 102.196L18.6464 101.363L20.767 100.92L21.4883 100.678C22.4226 100.323 23.3808 100.012 24.2867 99.5923C25.3142 99.1159 26.2955 98.5392 27.2972 98.0059L26.7515 98.8045C26.6797 99.3714 26.5741 99.9375 26.5439 100.507C26.4632 102.273 27.1535 103.719 28.4285 104.913C29.3987 105.801 30.4741 106.567 31.6306 107.193C34.2205 108.636 36.829 110.047 39.4385 111.452C39.7508 111.621 40.127 111.67 40.4739 111.774C41.0063 111.794 41.1047 111.344 41.2414 111.006C41.8979 109.379 42.5474 107.749 43.1481 106.1C43.6379 104.757 44.1072 103.389 44.0504 101.935C44.0265 101.336 43.7967 100.745 43.6609 100.15C43.6464 100.093 43.629 100.037 43.6086 99.9819C43.2297 99.0946 42.4995 98.5303 41.7249 98.0423C41.3266 97.7912 41.1713 97.4629 41.0799 97.0548C41.0471 96.9111 41.0267 96.7647 41.0009 96.6191L44.455 96.9075C44.8002 96.9785 45.1427 97.0601 45.4896 97.1169C45.6843 97.138 45.8802 97.1474 46.0761 97.1453C46.415 97.3006 46.7468 97.4771 47.0955 97.6084C50.7484 98.973 54.0312 100.995 57.1366 103.302C59.0425 104.722 60.8631 106.248 62.7024 107.75C64.9081 109.551 67.0952 111.374 69.285 113.195C69.7544 113.584 70.1998 114.002 70.6558 114.407C70.659 114.285 70.6246 114.165 70.5573 114.063C69.6408 112.347 68.7171 110.634 67.8068 108.917C67.3375 108.024 67.215 107.103 67.7048 106.166C68.175 106.739 68.6453 107.311 69.1386 107.914L69.3853 107.764C69.5298 107.695 69.6677 107.612 69.7969 107.517C71.0994 106.381 72.0603 104.965 73.0062 103.541C73.3841 102.971 73.3992 102.38 72.9902 101.806C73.3584 102.109 73.8109 102.351 74.0833 102.723C76.2571 105.702 78.4099 108.695 80.5417 111.704C81.0039 112.352 81.405 113.041 81.8317 113.711Z" fill="#262626"/>
<path d="M81.8319 113.712C81.4051 113.041 81.0067 112.349 80.5462 111.702C78.4074 108.699 76.2546 105.705 74.0879 102.721C73.8155 102.348 73.363 102.106 72.9948 101.804C72.9057 101.688 72.8248 101.566 72.7526 101.439C72.3373 100.593 71.9389 99.7398 71.5166 98.8978C70.171 96.1934 68.555 93.6321 66.6935 91.2532C65.7175 90.0181 64.8497 88.7041 63.911 87.438C63.6945 87.1631 63.4364 86.9236 63.1462 86.7282C62.51 86.2792 61.849 85.8657 61.1995 85.4354C60.5501 85.0051 59.953 84.5393 59.284 84.1746C57.9078 83.4258 56.3711 83.3149 54.8477 83.1818C54.7282 83.1388 54.6045 83.1091 54.4786 83.0931C53.9196 83.0824 53.3603 83.0824 52.8007 83.0931C52.6748 83.1086 52.5509 83.1384 52.4316 83.1818C51.5577 83.3158 50.7121 83.5314 49.9597 84.022C49.6936 84.2563 49.5622 84.5198 49.7823 84.856L49.871 85.0131C49.8869 85.0968 49.9169 85.1772 49.9597 85.2509C50.4034 85.7664 50.9251 86.0352 51.6358 85.8515C52.1149 85.7282 52.6277 85.5596 53.1006 85.6155C54.2195 85.7495 55.3303 85.9793 56.4341 86.2189C57.5813 86.4682 58.5555 87.0565 59.378 87.894L58.5795 88.3261L57.9406 88.7875C57.2466 89.0184 56.6109 89.3971 56.0774 89.8975C55.6542 90.3411 55.1786 90.743 54.8193 91.2283C54.2798 91.9612 54.176 92.7802 54.5886 93.6364C54.6427 93.7482 54.5779 93.9416 54.5203 94.08C54.3259 94.5396 54.0766 94.977 53.9116 95.4464C53.7129 96.0213 53.6525 96.6184 53.9506 97.1943C54.7696 98.3876 56.0526 98.8472 57.3222 99.3299H58.2095L58.6904 99.0637L59.4765 98.5119C59.6956 98.7594 59.9121 99.014 60.1393 99.258C60.7825 99.9483 61.4569 100.611 62.0691 101.328C63.0983 102.533 64.2074 103.617 65.5924 104.433C66.3643 104.889 67.0022 105.574 67.6996 106.156C67.2098 107.093 67.3323 108.014 67.8017 108.907C68.7075 110.628 69.6312 112.341 70.5522 114.053C70.6195 114.155 70.6539 114.275 70.6506 114.397C70.1946 113.993 69.7492 113.575 69.2798 113.185C67.0901 111.365 64.903 109.541 62.6972 107.74C60.8633 106.248 59.0426 104.722 57.1368 103.302C54.0314 100.995 50.7485 98.9732 47.0966 97.6069C46.7479 97.4755 46.416 97.299 46.0771 97.1437C45.9795 96.7504 45.8822 96.357 45.7852 95.9636C45.4894 94.9285 45.1955 93.8934 44.9032 92.8582C44.8127 91.7983 44.722 90.7386 44.6309 89.6792C44.8802 89.413 45.1535 89.1584 45.3744 88.8673C45.834 88.2605 46.3415 87.6722 46.6937 87.0041C47.4648 85.5428 47.77 83.9386 47.9182 82.3016L48.0069 80.9583C47.9838 80.6096 47.9678 80.2591 47.9368 79.9113C47.8791 79.2583 47.8126 78.6062 47.7496 77.9532C48.2482 77.7837 48.7619 77.6453 49.2446 77.4368C50.7485 76.7917 51.3341 75.5309 51.4583 73.9978C51.5471 72.823 51.2569 71.7139 50.6873 70.6892C49.9118 69.2962 48.832 68.2661 47.2199 67.9067C47.4062 65.0675 46.8366 62.4492 44.9831 60.2026C45.5155 60.3206 46.0478 60.4174 46.5731 60.5575C48.0143 60.9421 49.4031 61.5014 50.7086 62.2229C52.342 63.143 53.4085 64.5901 54.2071 66.2316C54.9674 67.7967 55.6373 69.4053 56.3551 70.9899C57.4402 73.3855 58.7729 75.6117 60.5829 77.5441C62.4515 79.5387 64.6359 81.0932 67.0368 82.3691C69.2851 83.5642 71.6595 84.4444 74.0755 85.2305C76.218 85.9202 78.1933 87.0488 79.8755 88.5444C82.7928 91.1361 84.5496 94.3861 85.3703 98.172C85.7242 99.7714 85.8677 101.41 85.7971 103.047C85.6285 106.634 84.601 109.94 82.484 112.874C82.2746 113.163 82.0484 113.434 81.8319 113.712Z" fill="white"/>
<path d="M44.9813 60.2022C46.8348 62.4488 47.4044 65.068 47.2181 67.9063C46.5194 67.768 45.7948 67.8575 45.1508 68.1618L45.0106 67.9187C45.0106 67.5479 44.8056 67.3074 44.4658 67.2852C44.1668 67.2852 43.8589 67.2506 43.5715 67.3101C43.3213 67.3624 43.095 67.5266 42.8617 67.6419C42.0835 67.4086 42.0835 67.4086 42.0631 66.728C42.7436 65.8825 44.3984 65.7254 45.2351 66.4273C45.3407 66.516 45.44 66.61 45.5421 66.7023C45.3708 66.091 45.1721 65.5001 44.8695 64.9686C43.8297 63.1426 42.3657 61.9377 40.1582 61.841C38.0287 61.7478 35.9313 61.4089 33.8586 60.9298C32.6076 60.6423 31.3441 60.4036 30.1818 59.8234C30.075 59.7858 29.9656 59.7561 29.8544 59.7347C30.4258 60.5545 30.0754 61.1543 29.5803 61.7381C29.1606 62.2341 28.7125 62.7141 28.3674 63.2624C27.2787 64.9837 26.2211 66.7227 25.1732 68.4715C24.4439 69.6844 23.7953 70.9487 23.0225 72.1323C22.2533 73.2902 21.3802 74.3771 20.5639 75.4968C19.6767 75.6539 19.1754 76.4054 18.4469 76.8082C18.454 76.8419 18.462 76.8765 18.4691 76.9102L18.7814 76.9723L18.2029 77.6076C18.1444 77.6156 18.0619 77.6005 18.0326 77.6333C17.3574 78.3928 16.6822 79.1523 16.022 79.9242C15.8038 80.1789 15.6263 80.4673 15.401 80.7778C15.4088 79.9739 15.6029 79.1828 15.9679 78.4665C16.2802 77.8232 16.4728 77.1187 16.6884 76.432C16.998 75.448 17.2899 74.4703 17.9811 73.6522C18.5946 72.9181 19.1703 72.1532 19.7059 71.3604C20.6535 69.9745 21.539 68.5469 22.4911 67.1637C23.0323 66.3767 23.6818 65.6651 24.2319 64.8834C25.4918 63.0929 26.1705 61.0682 26.5219 58.9237C26.5281 58.8882 26.4917 58.8465 26.4473 58.7391C26.3657 58.8332 26.2805 58.8891 26.2628 58.961C26.2158 59.1606 26.2113 59.3691 26.1652 59.5687C25.6266 61.8827 24.6569 63.9811 23.1671 65.8523C22.2888 66.9569 21.5097 68.1406 20.7006 69.2984C19.8577 70.5051 19.0574 71.7419 18.1905 72.93C17.5641 73.7871 16.896 74.5971 16.6245 75.6627C16.3406 76.7754 16.03 77.8809 15.4711 78.9048C15.3477 79.1293 15.3105 79.4079 15.2652 79.6678C15.0558 80.8505 14.826 82.0315 14.6707 83.2222C14.5886 83.8085 14.5967 84.404 14.6947 84.9878C14.7736 85.4907 14.7677 86.0033 14.677 86.5042C14.6015 87.0126 14.4596 87.5272 14.4889 88.0311C14.5589 89.2174 14.6867 90.4019 14.8438 91.5802C14.9706 92.5278 14.873 93.4558 14.7763 94.3937C14.7149 94.9594 14.7021 95.5293 14.7382 96.0972C14.779 96.6952 14.9431 97.2844 14.9928 97.8824C15.0815 98.932 14.7719 99.9186 14.4472 100.899C14.3008 101.343 14.2245 101.806 14.1162 102.26C13.0474 102.62 12.0325 103.123 11.0995 103.756C11.0995 103.479 11.1093 103.203 11.0995 102.927C11.0836 102.527 11.0516 102.129 11.0259 101.729C11.0463 101.515 11.0676 101.301 11.088 101.088C11.1022 101.242 11.1155 101.395 11.1359 101.62C11.2477 100.733 11.3551 99.9186 11.4509 99.1032C11.6076 97.7765 11.7596 96.4498 11.9069 95.123C11.9442 94.7867 11.9584 94.4487 12.0019 94.1133C12.0791 93.5233 12.2334 92.9359 12.2441 92.3459C12.2955 89.3292 12.2805 86.3187 12.3568 83.3074C12.3834 82.287 12.5688 81.2667 12.7543 80.2552C12.9184 79.3608 13.213 78.4913 13.3984 77.6005C13.7019 76.1427 14.0328 74.6983 14.6849 73.347C15.1002 72.4855 15.5234 71.6257 15.9005 70.7473C16.3707 69.6507 16.7877 68.5336 17.2447 67.429C17.7486 66.2028 18.2712 64.9846 18.7734 63.7575C19.375 62.2891 20.1247 60.912 21.1957 59.7258C21.4308 59.4649 21.6473 59.1872 21.8726 58.9175L21.799 58.8421C21.6944 58.9072 21.5971 58.9833 21.5089 59.0692C21.0102 59.669 20.4867 60.251 20.0351 60.8845C18.84 62.5597 18.2278 64.5223 17.4106 66.3856C16.4426 68.5833 15.6609 70.8591 14.5714 73.0089C14.1452 73.8492 13.8203 74.737 13.6034 75.6539C13.0391 78.0592 12.347 80.4406 12.0888 82.9134C12.1208 81.9454 12.19 80.9801 12.2663 80.0165C12.3745 78.6989 12.5378 77.384 12.5928 76.0647C12.6682 74.2662 12.6815 72.4642 12.6868 70.6639C12.6922 69.4945 12.811 68.3446 13.1393 67.2214C13.512 65.9481 13.9379 64.6909 14.5856 63.5268C14.8473 63.0574 15.141 62.6058 15.4205 62.1471C14.1393 63.0672 13.9476 64.588 13.3603 65.8913C13.5191 64.769 13.7915 63.6945 14.5572 62.8134C14.5927 62.7726 14.5572 62.6733 14.5572 62.6005C15.243 62.0016 15.8881 61.3521 16.6245 60.8144C17.7709 59.9628 19.0328 59.2789 20.3723 58.7835C20.6036 58.6934 20.8162 58.5614 20.9996 58.394C22.1849 57.3373 23.5522 56.5804 24.9532 55.8502C26.8786 54.8467 28.9672 54.6675 31.054 54.4253C31.2165 54.4694 31.382 54.502 31.5491 54.5229C32.7495 54.5885 33.9536 54.6054 35.1496 54.7199C35.902 54.7917 36.6473 54.9798 37.3855 55.1635C38.523 55.4421 39.6773 55.6834 40.6923 56.3214C40.7997 56.3879 40.9505 56.3852 41.0818 56.4145C42.1297 57.0214 42.9229 57.906 43.7019 58.8101C44.1136 59.2839 44.5528 59.7373 44.9813 60.2022ZM43.6904 60.22L43.7179 60.0514C43.5989 60.0086 43.4778 59.9722 43.355 59.9423C42.3186 59.74 41.2779 59.5643 40.2496 59.3389C39.0021 59.0665 37.7723 58.7072 36.5231 58.4739C35.5471 58.2964 34.5853 58.1243 33.7451 57.552C33.5712 57.4435 33.3894 57.3483 33.2012 57.2672C32.6156 56.9877 32.0335 56.7011 31.4408 56.4394C30.923 56.1985 30.3922 55.9864 29.8509 55.8041C29.5581 55.7154 29.2245 55.7455 28.9086 55.7225L28.8944 55.8804C29.0106 55.9026 29.1269 55.9221 29.2422 55.9478C29.6548 56.0366 30.0913 56.0738 30.4737 56.2371C31.3104 56.592 32.1205 57.0134 32.9377 57.4154C33.6226 57.7525 34.2801 58.1607 34.9917 58.4268C35.5311 58.6282 36.1451 58.6371 36.7112 58.7658C38.6303 59.197 40.5432 59.653 42.4633 60.0789C42.8563 60.1676 43.276 60.1756 43.6886 60.22H43.6904ZM44.126 59.7213C43.7094 59.1553 43.1462 58.7138 42.497 58.4446C41.246 57.9335 39.9594 57.5076 38.6818 57.0525C36.5896 56.3045 34.4868 55.5929 32.3139 55.1094C32.2172 55.0881 32.116 55.0828 32.0167 55.0703C32.0504 55.1768 32.0965 55.2132 32.148 55.2265C32.9137 55.427 33.6936 55.5814 34.4451 55.8289C36.3764 56.4571 38.3008 57.1078 40.2185 57.7809C41.0645 58.0778 41.8938 58.4202 42.7028 58.8066C43.2068 59.0497 43.6504 59.4126 44.1242 59.7213H44.126ZM44.7817 60.3478L44.7187 60.417C44.9032 60.5944 45.0884 60.7719 45.2741 60.9493L45.3114 60.9041L44.7817 60.3478Z" fill="#262626"/>
<path d="M11.088 101.095C11.0676 101.307 11.0463 101.521 11.0259 101.735C11.0129 102.186 10.9999 102.638 10.9869 103.091C11.0818 103.81 10.632 104.178 10.1112 104.548C8.86102 105.435 7.86641 106.58 6.91704 107.768C6.40952 106.969 5.87539 106.195 5.39805 105.384C3.90916 102.832 2.71495 100.119 1.83836 97.2971C1.15332 95.1349 0.656094 92.9177 0.352203 90.6701C0.0726496 88.6829 -0.0389479 86.6756 0.0185941 84.6696C0.10732 82.0078 0.489729 79.394 1.26786 76.8422C2.04598 74.2904 3.17635 71.9197 4.79826 69.7974C7.05722 66.8401 9.95058 64.7613 13.4863 63.5865C13.5446 63.5732 13.604 63.5655 13.6638 63.5635C13.3807 63.9397 13.0888 64.3079 12.8182 64.6921C11.8511 66.0664 11.3099 67.6395 10.947 69.2437C10.4132 71.5117 10.4455 73.8762 11.041 76.1288C11.2265 76.8245 11.4394 77.5289 11.49 78.2396C11.5556 79.165 11.49 80.1029 11.4483 81.031C11.3232 84.1062 11.3675 87.1779 11.5095 90.2513C11.6383 92.7475 11.5953 95.2496 11.3808 97.7398C11.2753 98.8578 11.183 99.9766 11.088 101.095Z" fill="white"/>
<path d="M11.0877 101.094C11.1853 99.9765 11.2775 98.8577 11.3805 97.7397C11.595 95.2495 11.638 92.7474 11.5091 90.2513C11.3672 87.1778 11.3228 84.1061 11.4479 81.0309C11.486 80.101 11.5553 79.1676 11.4896 78.2396C11.439 77.5297 11.2234 76.8244 11.0406 76.1288C10.4452 73.8762 10.4129 71.5117 10.9466 69.2436C11.3121 67.6395 11.8507 66.0664 12.8178 64.692C13.084 64.3078 13.3803 63.9396 13.6634 63.5634L14.5595 62.6007C14.5595 62.6735 14.5941 62.7728 14.5595 62.8137C13.7938 63.6947 13.5214 64.7656 13.3626 65.8916C13.95 64.5882 14.1416 63.0674 15.4228 62.1473C15.1433 62.606 14.8497 63.0577 14.5879 63.527C13.9375 64.6911 13.5143 65.9483 13.1417 67.2216C12.8134 68.3448 12.698 69.4947 12.6892 70.6641C12.6821 72.4644 12.6705 74.2664 12.5951 76.0649C12.5401 77.3842 12.3769 78.6992 12.2686 80.0167C12.1888 80.9803 12.1196 81.9456 12.0912 82.9136C12.3494 80.4408 13.0414 78.0594 13.6057 75.6541C13.8226 74.7372 14.1475 73.8494 14.5737 73.0092C15.665 70.8593 16.4467 68.5835 17.4129 66.3858C18.2301 64.5278 18.8423 62.5643 20.0375 60.8848C20.4891 60.2513 21.0134 59.6692 21.5112 59.0694C21.5995 58.9835 21.6968 58.9074 21.8013 58.8423L21.875 58.9177C21.6496 59.1839 21.4313 59.4651 21.198 59.726C20.1271 60.9123 19.3773 62.2893 18.7758 63.7577C18.2736 64.9848 17.751 66.203 17.247 67.4292C16.7936 68.5338 16.3731 69.6473 15.9028 70.7475C15.5257 71.6259 15.1043 72.4857 14.6873 73.3472C14.0351 74.6985 13.7042 76.143 13.4008 77.6007C13.2153 78.488 12.9207 79.361 12.7566 80.2554C12.5712 81.2642 12.3857 82.2872 12.3591 83.3076C12.2828 86.3189 12.2979 89.333 12.2464 92.3461C12.2358 92.9361 12.0814 93.5235 12.0042 94.1135C11.9607 94.4489 11.9465 94.7869 11.9093 95.1232C11.7602 96.45 11.6082 97.7767 11.4532 99.1035C11.3574 99.9189 11.25 100.732 11.1382 101.621C11.1125 101.401 11.0992 101.248 11.0877 101.094Z" fill="black"/>
<path d="M41.0815 56.4119C40.9502 56.3827 40.7994 56.3853 40.692 56.3188C39.677 55.6808 38.5227 55.4395 37.3852 55.1609C36.647 54.9834 35.9017 54.7918 35.1493 54.7173C33.9533 54.6028 32.7493 54.586 31.5488 54.5203C31.3817 54.4994 31.2162 54.4668 31.0537 54.4227C31.1424 54.3899 31.2312 54.3269 31.3199 54.3286C33.4307 54.3712 35.5388 54.444 37.6017 54.9684C38.8288 55.2842 40.039 55.6436 41.0815 56.4119Z" fill="#070707"/>
<path d="M40.4752 111.772C40.1283 111.668 39.7521 111.619 39.4398 111.45C36.8277 110.047 34.2191 108.636 31.6319 107.191C30.4754 106.565 29.4 105.799 28.4298 104.911C27.1548 103.717 26.4645 102.271 26.5452 100.505C26.5718 99.9354 26.681 99.3693 26.7528 98.8024C27.3482 98.7527 27.9302 98.7358 28.2612 99.3809C28.2665 99.3906 28.3135 99.3809 28.4173 99.3746C28.9311 95.5914 28.2931 92.0104 26.4512 88.6157C26.7777 88.6157 27.0616 88.6264 27.3109 88.724C29.1786 89.4506 31.0578 90.1525 32.9007 90.9421C34.7817 91.7549 36.7416 92.2597 38.7371 92.651C39.4983 92.8 40.2072 92.627 40.744 91.9997C40.797 91.9487 40.8543 91.9024 40.9153 91.8613C40.9153 91.9199 40.9153 91.9793 40.9091 92.0388C40.7902 93.5657 40.7494 95.0918 41.0093 96.6117C41.0351 96.7572 41.0555 96.9036 41.0883 97.0474C41.177 97.4555 41.335 97.7838 41.7333 98.0349C42.5079 98.5229 43.2417 99.0872 43.617 99.9744C43.6374 100.03 43.6548 100.086 43.6693 100.143C43.6835 100.258 43.6906 100.376 43.7155 100.491C43.8104 100.934 44.0074 101.378 43.9923 101.822C43.9568 102.87 43.6755 103.884 43.2958 104.86C42.7138 106.355 42.1042 107.84 41.5 109.327C41.1611 110.147 40.8115 110.959 40.4752 111.772Z" fill="#FED7CB"/>
<path d="M49.9621 84.0282C50.7145 83.5376 51.5591 83.3184 52.434 83.188H54.85C56.3743 83.3211 57.911 83.432 59.2863 84.1808C59.9553 84.5455 60.5639 85.0193 61.2019 85.4416C61.8398 85.864 62.5124 86.2854 63.1485 86.7344C63.4388 86.9298 63.6968 87.1693 63.9133 87.4442C64.8521 88.7067 65.7234 90.0172 66.6958 91.2594C68.5574 93.6383 70.1733 96.1996 71.5189 98.904C71.9413 99.746 72.3396 100.6 72.7549 101.445C72.8261 101.571 72.9059 101.691 72.9936 101.806C73.4026 102.38 73.3875 102.971 73.0095 103.541C72.0637 104.965 71.1028 106.38 69.8003 107.518C69.671 107.612 69.5332 107.695 69.3886 107.764C68.5351 106.611 67.5893 105.539 66.4704 104.632C65.9443 104.205 65.3507 103.847 64.8813 103.366C63.436 101.883 62.0332 100.369 60.6305 98.8508C59.5754 97.715 58.6386 96.4747 57.8347 95.1491C57.604 94.7667 57.2483 94.4535 56.92 94.1403C56.825 94.0516 56.6245 94.0702 56.4763 94.0401C56.4515 94.1873 56.416 94.3329 56.4054 94.4837C56.3983 94.5848 56.4444 94.6904 56.4329 94.7898C56.4009 95.048 56.4879 95.2192 56.699 95.3887C57.1514 95.7303 57.4785 96.2115 57.6298 96.7577C57.6759 96.9352 57.6537 97.1384 57.6626 97.3291L57.5056 97.3903C57.0548 96.8784 56.6041 96.3656 56.1747 95.8758C55.9972 96.102 55.8056 96.3602 55.5598 96.685C55.8588 96.9192 56.172 97.2076 56.5251 97.4321C57.0859 97.787 57.5898 98.2608 58.3529 98.2137C58.7743 98.188 58.9074 98.5899 58.7078 99.0717L58.2269 99.3379H57.3396C56.07 98.8552 54.787 98.3956 53.9681 97.2023C53.8651 96.6832 54.1455 96.2263 54.2076 95.7427C54.3203 94.9264 54.7027 94.2557 55.2058 93.6585C55.4605 93.358 55.6467 93.0056 55.7514 92.6258C55.9768 91.8494 56.2394 91.0846 56.4817 90.3127C56.4989 90.2086 56.5057 90.1031 56.5021 89.9977L54.8456 91.7722L54.7888 91.7172L56.0851 89.9045C56.6186 89.4042 57.2543 89.0255 57.9483 88.7946L58.5871 88.3332L59.3857 87.9011C59.4105 87.8301 59.4744 87.7077 59.454 87.6962C58.7797 87.225 58.1417 86.6723 57.408 86.3218C56.1099 85.7007 54.6708 85.5499 53.2618 85.3343C52.9443 85.2862 52.6197 85.3258 52.3231 85.4487C51.9424 85.6173 51.6133 85.8178 51.159 85.7078C50.7579 85.6102 50.3658 85.5632 50.1333 85.1595C50.0916 85.0885 49.9656 85.0654 49.8778 85.0202L49.7891 84.8631C49.8458 84.581 49.9035 84.3059 49.9621 84.0282Z" fill="#FED7CB"/>
<path d="M14.1167 102.267C14.2249 101.812 14.3012 101.347 14.4476 100.906C14.7724 99.9224 15.0811 98.9358 14.9933 97.8888C14.9436 97.2908 14.7795 96.7017 14.7387 96.1037C14.7026 95.5358 14.7153 94.9658 14.7768 94.4001C14.8735 93.4623 14.9711 92.5369 14.8443 91.5866C14.6872 90.4083 14.5594 89.2239 14.4893 88.0376C14.4601 87.5336 14.602 87.019 14.6774 86.5106C14.7681 86.0097 14.7741 85.4972 14.6952 84.9943C14.5972 84.4104 14.5891 83.815 14.6712 83.2286C14.8265 82.0379 15.0563 80.857 15.2657 79.6743C15.3109 79.4143 15.3482 79.1357 15.4715 78.9112C16.0296 77.89 16.3402 76.7818 16.625 75.6692C16.8965 74.6045 17.5646 73.7935 18.191 72.9364C19.0578 71.7484 19.8582 70.5116 20.7011 69.3049C21.5102 68.147 22.2892 66.9634 23.1676 65.8588C24.6547 63.9875 25.6271 61.8892 26.1657 59.5752C26.2118 59.3756 26.2163 59.1671 26.2633 58.9674C26.281 58.8956 26.3662 58.8397 26.4478 58.7456C26.4922 58.853 26.5286 58.8947 26.5224 58.9302C26.1675 61.0747 25.4923 63.1003 24.2323 64.8899C23.6822 65.6716 23.0328 66.3831 22.4915 67.1701C21.5395 68.5534 20.654 69.981 19.7064 71.3669C19.1696 72.1585 18.5927 72.9222 17.9781 73.6551C17.2869 74.4732 16.995 75.4509 16.6853 76.4349C16.4697 77.1216 16.2772 77.8261 15.9649 78.4694C15.602 79.1862 15.4101 79.9773 15.4041 80.7807C15.6268 80.4702 15.8043 80.1818 16.0252 79.9272C16.6853 79.1552 17.3605 78.3957 18.0357 77.6362C18.065 77.6034 18.1475 77.6185 18.2061 77.6105C17.8512 78.3203 17.5362 79.0568 17.7154 79.8535C18.1591 81.8152 19.1146 83.4025 21.0994 84.1691C21.2423 84.3173 21.3816 84.469 21.5289 84.6128C22.8535 85.8984 24.1853 87.1707 25.2394 88.7084C26.6253 90.7295 27.7441 92.843 27.9402 95.3433C28.0156 96.3051 27.9757 97.2323 27.2987 98.0051C26.297 98.5374 25.3157 99.115 24.2882 99.5915C23.3823 100.011 22.425 100.32 21.4898 100.677C21.0888 99.2526 20.9743 97.7336 20.1465 96.4453C20.1918 97.0788 20.2947 97.6954 20.3878 98.3138C20.5183 99.1816 20.6416 100.05 20.7685 100.919L18.6479 101.362C18.5592 100.622 18.3924 99.8816 18.3951 99.1443C18.4004 97.5543 18.5379 95.9644 18.5379 94.3744C18.5379 92.8732 18.4492 91.371 18.3605 89.8716C18.3223 89.2256 18.183 88.5859 18.0943 87.9923C17.7882 88.0136 17.5114 88.1121 17.3046 88.0314C16.8933 87.8777 16.5084 87.6609 16.1636 87.389C15.7351 87.0341 15.3757 86.5993 14.9569 86.1681C14.9117 86.531 14.8336 86.8779 14.8336 87.2222C14.8336 87.8096 14.8726 88.3987 14.9223 88.9852C14.9782 89.703 15.0918 90.4172 15.1193 91.135C15.1539 92.0453 15.1663 92.961 15.1193 93.8695C15.0687 94.7941 14.9161 95.7106 15.1592 96.6325C15.478 97.8062 15.4159 99.0508 14.9818 100.187C14.7351 100.849 14.5381 101.527 14.3163 102.198L14.1167 102.267Z" fill="black"/>
<path d="M27.2955 98.0061C27.9725 97.2288 28.0124 96.3016 27.937 95.3443C27.7409 92.844 26.622 90.7305 25.2361 88.7093C24.1821 87.1717 22.8503 85.8994 21.5256 84.6137C21.3783 84.4709 21.239 84.3192 21.0962 84.1701C21.5647 84.1994 22.0331 84.226 22.5016 84.2588C23.0491 84.297 23.4297 84.0361 23.7145 83.5969C24.0215 83.124 24.0996 82.6139 23.9186 82.0132C25.1962 83.0539 26.4127 84.0486 27.6362 85.0352C27.7497 85.1106 27.876 85.1647 28.0088 85.1949C28.149 85.2375 28.3176 85.2233 28.4374 85.2952C29.0443 85.6563 29.6112 86.0937 30.2438 86.4016C32.5019 87.4885 34.76 88.5798 37.0598 89.5726C38.4093 90.1556 39.8458 90.5424 41.3372 90.5486C42.0542 90.5486 42.7702 90.4324 43.4871 90.3712L41.7924 90.8148H41.0418C40.9939 91.1901 40.9531 91.5326 40.9078 91.8742C40.8468 91.9152 40.7895 91.9615 40.7366 92.0126C40.2042 92.6399 39.4944 92.8111 38.7296 92.6639C36.7341 92.2726 34.7742 91.7677 32.8932 90.955C31.0539 90.1609 29.1747 89.4591 27.3035 88.7368C27.0541 88.6392 26.7711 88.6304 26.4437 88.6286C28.2857 92.0277 28.9236 95.6042 28.4099 99.3875C28.3061 99.3928 28.259 99.4035 28.2537 99.3937C27.9237 98.7487 27.3416 98.7655 26.7454 98.8152L27.2955 98.0061Z" fill="#FFC6B4"/>
<path d="M14.3105 102.199C14.5306 101.528 14.7293 100.85 14.976 100.188C15.4101 99.0516 15.4722 97.807 15.1534 96.6333C14.9103 95.7114 15.0647 94.7949 15.1135 93.8704C15.1641 92.9618 15.1517 92.0461 15.1135 91.1358C15.086 90.418 14.9724 89.7038 14.9165 88.986C14.8704 88.3995 14.8331 87.8104 14.8278 87.223C14.8278 86.877 14.9059 86.5318 14.9511 86.1689C15.3699 86.6002 15.7293 87.0367 16.1578 87.3898C16.5026 87.6617 16.8875 87.8785 17.2988 88.0322C17.5056 88.1129 17.7824 88.0144 18.0885 87.9931C18.1772 88.5867 18.3183 89.2264 18.3547 89.8724C18.4434 91.3718 18.5321 92.874 18.5321 94.3752C18.5321 95.9652 18.3946 97.5551 18.3893 99.1451C18.3893 99.886 18.5525 100.627 18.6421 101.363L14.3105 102.199Z" fill="#262626"/>
<path d="M40.9076 91.868C40.9511 91.5264 40.9964 91.1839 41.0416 90.8086H41.7922C42.093 91.0641 42.4311 91.215 42.8365 91.1724C43.4763 91.1049 43.9341 91.4137 44.2881 91.9035C44.509 92.2096 44.6989 92.5379 44.903 92.8573C45.1987 93.893 45.4927 94.9281 45.7849 95.9627C45.3555 96.2031 44.9234 96.4383 44.5002 96.6894C44.4576 96.7142 44.4691 96.8304 44.4558 96.905L41.0017 96.6166C40.7417 95.0967 40.7825 93.5706 40.9014 92.0437C40.9059 91.986 40.9059 91.9265 40.9076 91.868Z" fill="#262626"/>
<path d="M58.7002 99.0678C58.9008 98.586 58.7677 98.1805 58.3453 98.2098C57.5805 98.2568 57.0783 97.7857 56.5176 97.4281C56.1627 97.2036 55.8513 96.9153 55.5522 96.6811C55.798 96.3563 55.9959 96.0981 56.1671 95.8719C56.5992 96.3616 57.0499 96.8745 57.498 97.3864L57.6551 97.3252C57.6462 97.1344 57.6684 96.9357 57.6222 96.7538C57.4714 96.2078 57.1449 95.7266 56.6933 95.3848C56.4821 95.2153 56.3951 95.0441 56.4271 94.7859C56.4386 94.6865 56.3925 94.5809 56.3996 94.4798C56.4102 94.3325 56.4457 94.187 56.4706 94.0361C56.6232 94.0663 56.8255 94.0459 56.9142 94.1364C57.2425 94.4496 57.5983 94.7628 57.8289 95.1452C58.6328 96.4708 59.5696 97.711 60.6247 98.8468C62.0337 100.368 63.4364 101.882 64.8827 103.363C65.352 103.844 65.9474 104.201 66.4717 104.629C67.5906 105.536 68.5364 106.606 69.3899 107.761L69.1433 107.916C68.65 107.313 68.1797 106.741 67.7095 106.168C67.0121 105.586 66.3786 104.901 65.6022 104.445C64.2172 103.626 63.1081 102.541 62.0789 101.339C61.4667 100.622 60.7924 99.9595 60.1491 99.2692C59.922 99.0252 59.7055 98.7705 59.4863 98.523L58.7002 99.0678Z" fill="#FFC6B4"/>
<path d="M40.4746 111.773C40.8144 110.959 41.1605 110.147 41.4923 109.331C42.0965 107.844 42.7061 106.359 43.2881 104.864C43.6679 103.888 43.9491 102.874 43.9846 101.826C43.9997 101.382 43.8072 100.938 43.7078 100.495C43.683 100.38 43.6759 100.262 43.6617 100.147C43.7974 100.741 44.0272 101.332 44.0512 101.931C44.1079 103.385 43.6386 104.754 43.1488 106.097C42.5481 107.745 41.8987 109.38 41.2421 111.003C41.1054 111.342 41.0034 111.792 40.4746 111.773Z" fill="#FC807E"/>
<path d="M20.765 100.92C20.6382 100.051 20.5148 99.1826 20.3844 98.3149C20.2957 97.6938 20.1883 97.0798 20.1431 96.4463C20.9709 97.7346 21.0853 99.2536 21.4864 100.679L20.765 100.92Z" fill="#252625"/>
<path d="M44.4561 96.9057C44.4694 96.8311 44.4561 96.7149 44.5004 96.6901C44.9236 96.439 45.3557 96.2038 45.7852 95.9634C45.8816 96.3573 45.9789 96.7507 46.0771 97.1435C45.8812 97.1456 45.6854 97.1361 45.4906 97.1151C45.1437 97.0583 44.8039 96.9766 44.4561 96.9057Z" fill="#010201"/>
<path d="M10.9844 103.091C10.998 102.639 11.011 102.187 11.0234 101.735C11.0491 102.134 11.0811 102.533 11.0971 102.934C11.1086 103.209 11.0971 103.485 11.0971 103.762L10.9844 103.091Z" fill="#010101"/>
<path d="M43.4874 90.3648C42.7705 90.4278 42.0545 90.5423 41.3375 90.5423C39.8461 90.537 38.4096 90.1501 37.0601 89.5663C34.7603 88.5734 32.5022 87.4848 30.2441 86.3979C29.6115 86.0936 29.0446 85.6526 28.4377 85.2915C28.3179 85.2196 28.1493 85.2338 28.0091 85.1912C27.8763 85.161 27.75 85.1069 27.6365 85.0315C26.413 84.0484 25.1956 83.0503 23.9189 82.0077C24.0963 82.6084 24.0218 83.1186 23.7148 83.5915C23.43 84.0307 23.0494 84.2915 22.5019 84.2534C22.0334 84.2205 21.565 84.1939 21.0965 84.1647C19.1117 83.3989 18.1552 81.8108 17.7125 79.849C17.535 79.0505 17.8465 78.3123 18.2031 77.606L18.7816 76.9708C19.1632 76.8714 19.5447 76.7738 19.9244 76.6717L32.0994 73.4093C32.4348 73.3206 32.7719 73.2372 33.1189 73.1484C33.1437 73.2727 33.165 73.3436 33.1712 73.4146C33.2847 74.9785 33.9855 76.4416 35.1329 77.5102C35.8543 78.1969 36.7052 78.6636 37.706 78.7719C39.5382 78.9697 41.8823 77.7196 42.1689 75.4278C42.2381 74.875 42.2443 74.3152 42.2798 73.758C42.7767 75.395 43.6355 76.8545 44.498 78.3141C45.0498 79.2492 44.9886 79.4152 43.9656 79.8064L43.0917 80.1383C43.1014 80.1702 43.1112 80.2022 43.1218 80.2332C43.7571 80.2084 44.3959 80.1729 44.9851 79.8783C45.4154 79.6627 45.5671 79.3167 45.4482 78.8446C45.3853 78.6337 45.2958 78.4315 45.182 78.2431C44.8014 77.5608 44.411 76.8838 44.0242 76.2024C44.1475 76.3053 44.277 76.4002 44.3915 76.5112C45.0126 77.1198 45.7224 77.5892 46.5821 77.7773C46.9637 77.8607 47.3567 77.8953 47.7444 77.9547C47.8074 78.6077 47.874 79.2599 47.9317 79.9129C47.9627 80.2607 47.9787 80.6112 48.0018 80.9599L47.913 82.3032C47.7649 83.9384 47.4596 85.5426 46.6886 87.0057C46.3337 87.6729 45.8289 88.2611 45.3693 88.8689C45.1483 89.1599 44.875 89.411 44.6257 89.6807L43.4874 90.3648ZM41.5354 83.2667L42.0411 83.2907H43.9523L44.2806 83.2703C44.82 83.21 45.3125 83.0307 45.6958 82.6386C45.7792 82.5498 45.7579 82.3644 45.7845 82.2233C45.655 82.2393 45.4819 82.2056 45.4039 82.2775C44.9123 82.7211 44.3143 82.8391 43.6888 82.8533C43.0633 82.8675 42.4262 82.848 41.7954 82.8435C41.5292 82.8231 41.263 82.7938 41.003 82.7876C40.8726 82.7876 40.6712 82.7441 40.7484 83.005L41.5354 83.2667ZM18.7115 79.4515L18.4622 79.5908L18.4951 79.7443H19.7727L20.2296 79.8756C19.4994 80.4666 19.3495 81.1932 19.8747 81.7149C19.9136 81.5236 19.9412 81.3301 19.9573 81.1355C19.9785 80.3139 21.0681 79.8659 21.6226 80.4186C21.872 80.6671 22.1435 80.8942 22.4105 81.124C22.517 81.2127 22.6412 81.2882 22.8089 81.4062C22.6084 79.7417 20.3689 78.7249 18.7098 79.4471L18.7115 79.4515Z" fill="#FED7CB"/>
<path d="M42.2857 73.7565C42.2502 74.3137 42.244 74.8735 42.1748 75.4263C41.8882 77.7181 39.544 78.9682 37.7118 78.7704C36.7075 78.6612 35.8566 78.1954 35.1388 77.5087C33.9912 76.4414 33.2895 74.9796 33.1744 73.4166C33.1682 73.3439 33.1469 73.2729 33.1221 73.1505C32.7751 73.2392 32.438 73.3217 32.1026 73.4113L19.9241 76.6738C19.5443 76.7758 19.1628 76.8734 18.7813 76.9728L18.469 76.9107C18.4619 76.877 18.4539 76.8423 18.4468 76.8086C19.1752 76.4058 19.6747 75.6552 20.5638 75.4973C20.6919 75.4907 20.8194 75.475 20.9453 75.4502C24.8404 74.3988 28.7443 73.3359 32.6429 72.2996C33.0662 72.1869 33.264 72.0157 33.3581 71.5738C33.7564 69.7718 35.5407 68.7346 37.1316 68.6245C38.4518 68.5358 39.5272 69.14 40.434 70.0513C40.662 70.2811 40.8723 70.376 41.1686 70.2287L41.4605 70.2065C41.8713 70.1826 42.2857 70.1773 42.692 70.1231C42.8477 70.0843 42.9871 69.9974 43.0904 69.8747C43.44 69.5029 43.7381 69.0762 44.1205 68.7426C44.4124 68.4888 44.8028 68.3486 45.1489 68.1587C45.7928 67.8544 46.5175 67.7649 47.2162 67.9032C48.8283 68.2625 49.9081 69.2927 50.6836 70.6857C51.2532 71.7158 51.5469 72.8231 51.4582 73.9978C51.3375 75.5265 50.7484 76.7918 49.248 77.4386C48.7653 77.6471 48.2516 77.7855 47.753 77.955C47.3652 77.8991 46.9722 77.8662 46.5907 77.7775C45.7291 77.5894 45.0238 77.1201 44.4 76.5114C44.2856 76.4005 44.156 76.3056 44.0327 76.2026L42.5368 72.8364C42.5847 72.1434 42.6326 71.4496 42.6832 70.7069L41.7285 70.8462L41.4162 70.8578H41.0959L41.5173 71.4026C41.921 72.1311 42.1818 72.9301 42.2857 73.7565ZM47.1558 72.2925L49.4778 70.9208C48.925 69.9687 48.162 69.3388 47.2188 68.9085L46.0743 68.7044C45.8872 68.6391 45.6869 68.6211 45.4912 68.652C45.2955 68.683 45.1105 68.762 44.9528 68.8819C44.3317 69.3255 43.9573 69.9546 43.7585 70.6883C43.3752 72.1079 43.6441 73.4495 44.3521 74.6916C45.03 75.8806 45.9758 76.7847 47.383 77.0721C47.5521 77.0694 47.7213 77.0765 47.8896 77.0934C48.6597 77.215 49.177 76.8379 49.61 76.2594C50.3393 75.2834 50.4263 74.1744 50.2763 73.0254C50.2222 72.6146 50.0785 72.2153 49.9605 71.7495L47.0645 73.516C47.0952 73.1102 47.1257 72.703 47.1558 72.2943V72.2925ZM41.2547 74.7271C41.2618 73.4003 40.8034 72.113 39.9593 71.0894C39.2956 70.2669 38.4625 69.6697 37.4049 69.4506C36.5948 69.2856 35.7767 69.2731 35.2151 69.9918C34.8477 70.4484 34.5639 70.9662 34.3766 71.5215C33.9277 72.9588 34.2471 74.3358 34.9826 75.6028C35.6809 76.8033 36.6684 77.7216 38.0792 77.978C39.3045 78.2007 39.7942 78.041 40.5085 77.0908C41.0284 76.3872 41.2245 75.5816 41.2547 74.7271Z" fill="#29D205"/>
<path d="M56.0851 89.9043L54.7791 91.7116L54.8359 91.7667L56.4924 89.9921C56.496 90.0975 56.4892 90.2031 56.472 90.3071C56.2297 91.079 55.9671 91.8438 55.7418 92.6202C55.637 93 55.4508 93.3524 55.1961 93.653C54.693 94.2501 54.3088 94.9209 54.1979 95.7371C54.1314 96.2225 53.8554 96.6776 53.9584 97.1967C53.6603 96.6209 53.7206 96.0237 53.9193 95.4488C54.0817 94.9794 54.3337 94.542 54.528 94.0824C54.5857 93.9475 54.6504 93.7541 54.5963 93.6388C54.1837 92.7826 54.2875 91.9636 54.827 91.2308C55.1846 90.749 55.6619 90.3479 56.0851 89.9043Z" fill="#FFC6B4"/>
<path d="M43.4871 90.365L44.6308 89.6782C44.7225 90.7376 44.8133 91.7973 44.9032 92.8573C44.6991 92.5379 44.5093 92.2096 44.2883 91.9035C43.9334 91.4137 43.4765 91.1049 42.8368 91.1724C42.4313 91.215 42.0933 91.0641 41.7925 90.8086L43.4871 90.365Z" fill="#010100"/>
<path d="M49.877 85.019C49.9657 85.0643 50.0899 85.0874 50.1316 85.1583C50.3641 85.562 50.7527 85.6091 51.1573 85.7067C51.6133 85.8167 51.9407 85.6179 52.3214 85.4476C52.618 85.3247 52.9426 85.2851 53.2601 85.3331C54.669 85.5487 56.1082 85.7022 57.4062 86.3207C58.14 86.6711 58.7779 87.2239 59.4523 87.695C59.4691 87.7066 59.4088 87.829 59.3839 87.9C58.5615 87.0624 57.5872 86.4742 56.44 86.2248C55.3363 85.9853 54.2219 85.7555 53.1066 85.6215C52.6337 85.5656 52.1208 85.7342 51.6417 85.8575C50.9319 86.0412 50.4084 85.7688 49.9657 85.2568C49.9225 85.1833 49.8924 85.1029 49.877 85.019Z" fill="#FFAEAE"/>
<path d="M54.8501 83.1877H52.4341C52.5534 83.1443 52.6772 83.1145 52.8032 83.0989C53.3622 83.0901 53.9214 83.0901 54.481 83.0989C54.6069 83.1149 54.7307 83.1447 54.8501 83.1877Z" fill="#CCB9A1"/>
<path d="M47.918 82.3033C47.947 81.8561 47.9765 81.4083 48.0067 80.96L47.918 82.3033Z" fill="#B4BA8D"/>
<path d="M49.9625 84.0283C49.9039 84.306 49.8462 84.5846 49.785 84.8624C49.565 84.5261 49.6963 84.2626 49.9625 84.0283Z" fill="#C78B74"/>
<path d="M58.5856 88.332L57.9468 88.7934L58.5856 88.332Z" fill="#DC9888"/>
<path d="M41.1659 70.2322C40.8695 70.3759 40.6592 70.281 40.4312 70.0548C39.5235 69.1435 38.4491 68.5402 37.1288 68.628C35.538 68.7345 33.7572 69.7753 33.3553 71.5773C33.2577 72.0209 33.0634 72.1904 32.6402 72.3031C28.7362 73.3394 24.8412 74.4023 20.9426 75.4537C20.8167 75.4785 20.6892 75.4942 20.561 75.5008C21.3809 74.381 22.2468 73.2941 23.0072 72.1345C23.78 70.9509 24.4268 69.6865 25.1579 68.4737C26.2067 66.7275 27.2643 64.9858 28.3521 63.2646C28.6972 62.7189 29.1453 62.2362 29.5649 61.7402C30.06 61.1555 30.4105 60.5566 29.8391 59.7368C29.9503 59.7583 30.0597 59.7879 30.1665 59.8255C31.3288 60.4058 32.5923 60.6445 33.8433 60.932C35.9195 61.4111 38.0134 61.75 40.1429 61.8432C42.3504 61.9399 43.8143 63.1448 44.8542 64.9708C45.1568 65.5031 45.3555 66.0931 45.5268 66.7045C45.4247 66.6157 45.3253 66.5181 45.2198 66.4294C44.3831 65.7276 42.7283 65.8846 42.0478 66.7302C41.8295 66.9769 41.9121 67.2315 42.0673 67.4533C42.2607 67.731 42.5411 67.7718 42.849 67.6441C43.0859 67.5287 43.3121 67.3646 43.5588 67.3122C43.8463 67.2528 44.1542 67.2909 44.4532 67.2874L44.9979 67.9209L45.1381 68.164C44.7921 68.3539 44.4017 68.4941 44.1098 68.7478C43.7274 69.0797 43.4293 69.5082 43.0797 69.88C42.9763 70.0026 42.8369 70.0896 42.6813 70.1284C42.2749 70.1825 41.8606 70.1878 41.4498 70.2118L41.2368 69.7859L41.1055 69.8338C41.133 69.9651 41.1508 70.0982 41.1659 70.2322ZM35.1609 66.7852H35.9177C36.2407 66.8837 36.5619 66.9866 36.8857 67.0798C37.2921 67.1978 37.6843 67.0301 37.7996 66.6956C37.9149 66.3611 37.7109 65.9627 37.3152 65.827C35.2399 65.1172 33.4174 65.693 32.2578 67.5616C32.1895 67.6725 32.1078 67.8144 32.1247 67.9289C32.1522 68.117 32.2063 68.3725 32.3394 68.455C32.4725 68.5375 32.7245 68.4905 32.9064 68.4391C33.0164 68.408 33.1087 68.2714 33.1832 68.164C33.673 67.4569 34.3109 66.9698 35.1636 66.7852H35.1609Z" fill="#FED7CB"/>
<path d="M43.6883 60.2202C43.2757 60.1758 42.856 60.1678 42.4541 60.0791C40.5341 59.6523 38.6212 59.1972 36.702 58.7659C36.1315 58.6373 35.522 58.6284 34.9825 58.427C34.2727 58.1608 33.6135 57.7527 32.9285 57.4155C32.1113 57.0136 31.3013 56.5948 30.4646 56.2373C30.0822 56.074 29.6456 56.0394 29.2331 55.948C29.1177 55.9223 29.0015 55.9028 28.8853 55.8806L28.8995 55.7227C29.2153 55.7457 29.5489 55.712 29.8417 55.8043C30.383 55.9866 30.9138 56.1987 31.4317 56.4396C32.0244 56.7013 32.6064 56.9879 33.192 57.2674C33.3802 57.3484 33.5621 57.4437 33.7359 57.5522C34.5761 58.1245 35.537 58.2921 36.5139 58.474C37.7676 58.7074 38.9982 59.0667 40.2404 59.3391C41.2714 59.5645 42.3122 59.7402 43.3458 59.9424C43.4686 59.9723 43.5898 60.0088 43.7087 60.0516L43.6883 60.2202Z" fill="#010101"/>
<path d="M44.1238 59.7214C43.6518 59.4126 43.2064 59.0498 42.7042 58.8075C41.8952 58.4212 41.0659 58.0788 40.2199 57.7819C38.3034 57.1075 36.3789 56.4569 34.4465 55.8299C33.695 55.5859 32.9151 55.428 32.1494 55.2274C32.0979 55.2141 32.0518 55.1778 32.0181 55.0713C32.1174 55.0837 32.2186 55.089 32.3153 55.1103C34.4882 55.5939 36.591 56.3055 38.6832 57.0534C39.9564 57.5086 41.2429 57.9345 42.4984 58.4455C43.1461 58.7151 43.7081 59.1562 44.1238 59.7214Z" fill="#010101"/>
<path d="M42.8564 67.6419C42.5485 67.7697 42.2682 67.7306 42.0747 67.4511C41.9195 67.2293 41.837 66.9747 42.0552 66.728C42.0783 67.4086 42.0783 67.4086 42.8564 67.6419Z" fill="#090808"/>
<path d="M45.0086 67.9192L44.4639 67.2856C44.8037 67.3078 45.0095 67.5456 45.0086 67.9192Z" fill="#050606"/>
<path d="M44.7801 60.3481L45.3124 60.9027L45.2752 60.9479C45.09 60.7705 44.9049 60.593 44.7197 60.4156L44.7801 60.3481Z" fill="#020303"/>
<path d="M42.5331 72.8398L44.029 76.206C44.4159 76.8848 44.8063 77.5618 45.1869 78.2467C45.3007 78.4352 45.3902 78.6373 45.4531 78.8483C45.572 79.3203 45.4203 79.6663 44.9899 79.8819C44.4044 80.1756 43.7655 80.2111 43.1267 80.2368C43.116 80.2058 43.1063 80.1738 43.0965 80.1419L43.9705 79.8101C44.9926 79.4188 45.0538 79.2529 44.5028 78.3177C43.6413 76.8582 42.7824 75.3986 42.2847 73.7616C42.1793 72.9362 41.9173 72.1385 41.5128 71.4113L41.4116 70.8665L41.7239 70.855C41.9937 71.5157 42.2634 72.1773 42.5331 72.8398Z" fill="#FAB39D"/>
<path d="M18.7095 79.447C20.3686 78.7256 22.6081 79.7416 22.8095 81.399C22.6418 81.2809 22.5176 81.2082 22.4111 81.1168C22.1449 80.887 21.8725 80.6599 21.6232 80.4114C21.0687 79.8587 19.9791 80.3067 19.9578 81.1283C19.9417 81.3229 19.9142 81.5164 19.8753 81.7077C19.343 81.186 19.4974 80.4593 20.2302 79.8684L19.7733 79.7371L19.9419 79.6333C19.532 79.6333 19.1957 79.6413 18.8612 79.6244C18.8071 79.6253 18.7592 79.51 18.7095 79.447Z" fill="#262525"/>
<path d="M41.7932 82.8419C42.4241 82.8463 43.0558 82.8658 43.6866 82.8516C44.3175 82.8374 44.9102 82.7221 45.4017 82.2758C45.4798 82.2039 45.6528 82.2377 45.7824 82.2217C45.7557 82.3628 45.777 82.5517 45.6936 82.6369C45.3103 83.0291 44.8179 83.2083 44.2785 83.2687L43.2137 83.156C43.2137 83.1861 43.2137 83.2154 43.2066 83.2447L43.9466 83.2882H42.039L42.7772 83.2447C42.7772 83.2154 42.7772 83.1853 42.7772 83.156L41.535 83.2651L40.748 83.0034C40.9024 82.975 41.0559 82.9439 41.2103 82.9208C41.4028 82.8951 41.598 82.8676 41.7932 82.8419ZM43.8339 82.9865V82.951H42.2431V82.9865H43.8339Z" fill="#252525"/>
<path d="M18.7098 79.4473C18.7595 79.5103 18.8065 79.6247 18.8588 79.6247C19.1933 79.6416 19.5296 79.6336 19.9395 79.6336L19.7709 79.7374H18.4933L18.4604 79.5839L18.7098 79.4473Z" fill="#040404"/>
<path d="M41.7931 82.8419C41.5979 82.8676 41.4027 82.8907 41.2084 82.9208C41.054 82.9439 40.9005 82.975 40.7461 83.0034C40.6689 82.7425 40.8703 82.7824 41.0008 82.786C41.2652 82.7922 41.5287 82.8215 41.7931 82.8419Z" fill="#020202"/>
<path d="M41.5332 83.2654L42.7754 83.1562C42.7754 83.1864 42.7754 83.2166 42.7754 83.245L42.0372 83.2884L41.5332 83.2654Z" fill="#070808"/>
<path d="M43.9501 83.2889L43.2065 83.2499C43.2065 83.2197 43.2119 83.1904 43.2136 83.1611L44.2784 83.2738L43.9501 83.2889Z" fill="#070808"/>
<path d="M41.255 74.7269C41.2284 75.5814 41.0323 76.387 40.5088 77.0862C39.799 78.0391 39.3048 78.1988 38.0795 77.9734C36.6652 77.717 35.6839 76.7987 34.983 75.5982C34.2474 74.3321 33.928 72.9551 34.377 71.5168C34.5642 70.9616 34.8481 70.4437 35.2154 69.9872C35.7771 69.2703 36.5951 69.2774 37.4052 69.446C38.4628 69.6625 39.2959 70.2623 39.9596 71.0847C40.8047 72.1096 41.2631 73.3986 41.255 74.7269ZM35.8959 73.845C35.896 73.978 35.9226 74.1096 35.9742 74.2321C36.0258 74.3546 36.1013 74.4656 36.1963 74.5586C36.2913 74.6516 36.404 74.7247 36.5276 74.7736C36.6512 74.8225 36.7834 74.8462 36.9163 74.8433C37.0492 74.8405 37.1802 74.8112 37.3017 74.7571C37.4231 74.7029 37.5325 74.6251 37.6235 74.5282C37.7145 74.4312 37.7852 74.3171 37.8315 74.1925C37.8778 74.0679 37.8988 73.9352 37.8932 73.8024C37.871 73.2639 37.4034 72.7989 36.8923 72.8051C36.6238 72.8153 36.3697 72.9294 36.1837 73.1235C35.9978 73.3175 35.8946 73.5763 35.8959 73.845Z" fill="#FED7CB"/>
<path d="M47.3832 77.0755C45.976 76.788 45.0302 75.8839 44.3523 74.695C43.6425 73.4528 43.3763 72.1121 43.7587 70.6916C43.9575 69.9579 44.3337 69.3324 44.953 68.8852C45.1107 68.7653 45.2957 68.6863 45.4914 68.6554C45.6871 68.6244 45.8874 68.6424 46.0745 68.7077L46.9618 73.8742C47.1561 74.8449 47.3566 75.8138 47.5367 76.7871C47.5544 76.8696 47.4373 76.9779 47.3832 77.0755ZM44.9157 72.885C45.0121 73.1911 45.1243 73.492 45.252 73.7864C45.3514 73.9931 45.5075 74.2061 45.8003 74.1138C46.0931 74.0215 46.2963 73.8689 46.2954 73.5282C46.3114 73.0839 46.1689 72.6484 45.8935 72.2994C45.8467 72.234 45.7843 72.1813 45.7121 72.1459C45.6399 72.1105 45.56 72.0936 45.4797 72.0967C45.3993 72.0998 45.321 72.1227 45.2517 72.1635C45.1824 72.2043 45.1242 72.2617 45.0825 72.3304C44.992 72.4671 44.9814 72.6578 44.9157 72.885Z" fill="#FED7CB"/>
<path d="M47.3828 77.0754C47.4369 76.9778 47.5514 76.8696 47.5354 76.7853C47.3579 75.8093 47.1548 74.8431 46.9604 73.8724L47.0643 73.5175L49.9603 71.751C50.0783 72.2168 50.2265 72.6161 50.2761 73.0269C50.4261 74.1759 50.3391 75.2858 49.6098 76.2609C49.1768 76.8394 48.6596 77.2165 47.8894 77.0949C47.7211 77.0786 47.5519 77.0721 47.3828 77.0754Z" fill="#E9E9E9"/>
<path d="M47.2188 68.9102C48.1619 69.3405 48.925 69.9704 49.4777 70.9225L47.1558 72.2942L47.2188 68.9102Z" fill="#E9E9E9"/>
<path d="M47.219 68.9103L47.156 72.2943C47.1258 72.7036 47.0962 73.1121 47.0672 73.5196L46.9634 73.8745L46.0762 68.708L47.219 68.9103Z" fill="#272726"/>
<path d="M42.5334 72.8396C42.2637 72.1765 41.9942 71.5137 41.7251 70.8512L42.6798 70.7119C42.6292 71.4492 42.5857 72.1466 42.5334 72.8396Z" fill="#F5C8C5"/>
<path d="M41.4126 70.8628L41.5137 71.4076L41.0923 70.8628H41.4126Z" fill="#C2B399"/>
<path d="M41.1661 70.2322C41.1484 70.0983 41.1306 69.9661 41.1138 69.8321L41.2451 69.7842L41.458 70.2101L41.1661 70.2322Z" fill="#FAB39D"/>
<path d="M35.1636 66.7852C34.3109 66.9697 33.673 67.4595 33.1823 68.1658C33.1078 68.2731 33.0155 68.4098 32.9055 68.4408C32.728 68.4923 32.4707 68.5437 32.3385 68.4568C32.2063 68.3698 32.1513 68.1187 32.1238 67.9306C32.107 67.8162 32.1886 67.6742 32.2569 67.5633C33.4201 65.6947 35.2425 65.1171 37.3143 65.8287C37.71 65.9645 37.9123 66.3682 37.7987 66.6973C37.6852 67.0265 37.2912 67.1995 36.8849 67.0815C36.561 66.9928 36.2398 66.8854 35.9169 66.787C35.927 66.7764 35.9352 66.7641 35.9408 66.7506C35.944 66.7381 35.944 66.7249 35.9408 66.7124C35.6516 66.7027 35.3632 66.6947 35.074 66.6867L35.1636 66.7852Z" fill="#262626"/>
<path d="M35.1639 66.785L35.0752 66.6865C35.3644 66.6945 35.6528 66.7025 35.942 66.7123C35.9452 66.7248 35.9452 66.7379 35.942 66.7504C35.9364 66.7639 35.9283 66.7762 35.9181 66.7868L35.1639 66.785Z" fill="#010101"/>
<path d="M43.0381 82.9935C43.6595 82.9935 44.1632 82.9824 44.1632 82.9687C44.1632 82.955 43.6595 82.9438 43.0381 82.9438C42.4168 82.9438 41.9131 82.955 41.9131 82.9687C41.9131 82.9824 42.4168 82.9935 43.0381 82.9935Z" fill="#070808"/>
<path d="M35.896 73.8451C35.8947 73.5764 35.9979 73.3176 36.1838 73.1236C36.3697 72.9295 36.6238 72.8154 36.8924 72.8052C37.4035 72.799 37.8684 73.264 37.8932 73.8025C37.8988 73.9353 37.8779 74.068 37.8316 74.1926C37.7853 74.3172 37.7145 74.4313 37.6236 74.5283C37.5326 74.6252 37.4232 74.703 37.3017 74.7572C37.1803 74.8113 37.0493 74.8406 36.9164 74.8434C36.7834 74.8463 36.6513 74.8226 36.5277 74.7737C36.404 74.7248 36.2914 74.6517 36.1964 74.5587C36.1013 74.4657 36.0258 74.3547 35.9743 74.2322C35.9227 74.1097 35.8961 73.9781 35.896 73.8451Z" fill="#010101"/>
<path d="M44.916 72.8848C44.9808 72.6577 44.9923 72.4669 45.0828 72.3303C45.1245 72.2615 45.1826 72.2042 45.2519 72.1634C45.3212 72.1226 45.3996 72.0996 45.4799 72.0965C45.5603 72.0935 45.6402 72.1104 45.7124 72.1457C45.7846 72.1811 45.8469 72.2338 45.8938 72.2992C46.1692 72.6482 46.3117 73.0837 46.2957 73.5281C46.2957 73.8688 46.0819 74.0249 45.8006 74.1137C45.5193 74.2024 45.3517 73.993 45.2523 73.7863C45.1246 73.4918 45.0123 73.1909 44.916 72.8848Z" fill="#010101"/>
<path d="M62.1079 70.4022C63.166 68.5868 64.2251 66.7678 65.2852 64.9454C65.727 64.1889 66.1582 63.4159 66.6197 62.6655C66.8164 62.3463 66.8073 62.1163 66.5728 61.8001C64.6171 59.2179 63.3658 56.1719 62.9416 52.9606C62.1321 46.7579 63.7783 41.2421 68.0722 36.6748C72.6974 31.7551 78.4817 29.7642 85.1692 30.575C93.5633 31.5932 100.573 38.5099 101.945 46.8275C103.61 56.9636 97.3186 66.5883 87.6702 69.1647C81.9298 70.6987 76.5435 69.794 71.5597 66.5671C71.1451 66.2978 70.8607 66.2646 70.4158 66.493C67.6924 67.8546 64.9599 69.1707 62.2289 70.5035L62.1079 70.4022ZM75.1591 44.3888C75.4969 44.3122 75.8294 44.2142 76.1547 44.0953C76.6086 43.8941 77.0413 43.6173 77.5043 43.4236C78.9643 42.8185 80.4577 42.4599 82.0615 42.7837C83.2189 43.0182 84.0677 43.7186 84.216 44.7141C84.4308 46.177 83.9815 47.3827 82.8164 48.3283C81.7755 49.1709 80.5787 49.6702 79.3047 50.003C78.8856 50.1119 78.7419 50.3056 78.7495 50.7397C78.7722 52.0741 78.7495 53.4099 78.7616 54.7458C78.7737 54.8807 78.7975 55.0143 78.8327 55.1451H84.0299C84.0299 54.3312 84.0874 53.5733 84.0132 52.829C83.9391 52.0847 84.1827 51.7049 84.8817 51.4266C86.2518 50.9033 87.4889 50.0828 88.5038 49.0242C90.4405 46.9682 91.076 42.4796 88.1241 40.3299C87.2358 39.6731 86.2311 39.1906 85.1631 38.9078C81.9132 38.1045 78.7222 38.6551 75.5918 39.6642C75.4193 39.7202 75.1818 39.9501 75.1788 40.1029C75.1455 41.4811 75.1591 42.8624 75.1591 44.3888ZM84.34 61.0589V57.2011H78.3985V61.0589H84.34Z" fill="#3B3B3B"/>
</g>
<path d="M217.676 111.283C216.646 112.464 215.384 113.402 214.097 114.301C209.101 117.803 203.557 120.198 197.576 121.696C194.578 122.444 191.516 122.935 188.426 123.165C185.258 123.408 182.074 123.395 178.908 123.124C173.372 122.647 167.994 121.452 162.777 119.638C159.382 118.458 156.034 117.171 152.981 115.279C148.922 112.76 145.568 109.56 142.844 105.749C142.811 105.703 142.786 105.652 142.755 105.604C143.708 104.474 144.703 103.371 145.957 102.524C146.479 102.17 146.927 101.819 146.832 101.132L146.947 101.773C147.88 101.168 148.895 100.688 149.963 100.344L150.157 100.28L154.491 99.4846L156.612 99.0607L157.333 98.8301C158.267 98.491 159.226 98.1934 160.131 97.7925C161.159 97.3372 162.14 96.7862 163.142 96.2767L162.596 97.0397C162.524 97.5814 162.419 98.1222 162.389 98.6665C162.308 100.353 162.998 101.735 164.273 102.876C165.243 103.725 166.319 104.457 167.475 105.055C170.065 106.434 172.674 107.781 175.283 109.124C175.596 109.285 175.972 109.332 176.319 109.432C176.851 109.451 176.949 109.021 177.086 108.698C177.743 107.143 178.392 105.586 178.993 104.011C179.483 102.727 179.952 101.42 179.895 100.031C179.871 99.4583 179.641 98.8937 179.506 98.3257C179.491 98.2712 179.474 98.2174 179.453 98.1646C179.074 97.3169 178.344 96.7777 177.57 96.3114C177.171 96.0715 177.016 95.7579 176.925 95.3679C176.892 95.2306 176.871 95.0907 176.846 94.9517L180.3 95.2272C180.645 95.295 180.987 95.373 181.334 95.4272C181.529 95.4474 181.725 95.4564 181.921 95.4544C182.26 95.6027 182.592 95.7714 182.94 95.8969C186.593 97.2007 189.876 99.1327 192.981 101.337C194.887 102.693 196.708 104.151 198.547 105.587C200.753 107.308 202.94 109.05 205.13 110.789C205.599 111.161 206.044 111.561 206.501 111.947C206.504 111.831 206.469 111.716 206.402 111.618C205.486 109.979 204.562 108.343 203.652 106.701C203.182 105.849 203.06 104.969 203.55 104.073C204.02 104.621 204.49 105.168 204.983 105.743L205.23 105.6C205.375 105.534 205.512 105.455 205.642 105.365C206.944 104.279 207.905 102.926 208.851 101.565C209.229 101.021 209.244 100.456 208.835 99.9076C209.203 100.197 209.656 100.428 209.928 100.784C212.102 103.63 214.255 106.49 216.386 109.365C216.849 109.984 217.25 110.642 217.676 111.283Z" fill="#29D305"/>
<path opacity="0.5" d="M217.677 111.282C217.25 110.641 216.851 109.98 216.391 109.362C214.252 106.493 212.099 103.632 209.933 100.781C209.66 100.425 209.208 100.194 208.839 99.9045C208.75 99.7938 208.67 99.6774 208.597 99.5561C208.182 98.7482 207.784 97.9326 207.361 97.1281C206.016 94.5441 204.4 92.0969 202.538 89.824C201.562 88.6439 200.694 87.3884 199.756 86.1787C199.539 85.916 199.281 85.6872 198.991 85.5005C198.355 85.0715 197.694 84.6764 197.044 84.2653C196.395 83.8541 195.798 83.4091 195.129 83.0606C193.753 82.3451 192.216 82.2392 190.692 82.112C190.573 82.071 190.449 82.0425 190.323 82.0272C189.764 82.0171 189.205 82.0171 188.645 82.0272C188.519 82.0421 188.396 82.0706 188.276 82.112C187.402 82.24 186.557 82.446 185.804 82.9148C185.538 83.1386 185.407 83.3904 185.627 83.7117L185.716 83.8618C185.732 83.9417 185.762 84.0186 185.804 84.089C186.248 84.5815 186.77 84.8384 187.48 84.6629C187.96 84.545 188.472 84.384 188.945 84.4374C190.064 84.5654 191.175 84.785 192.279 85.0139C193.426 85.2521 194.4 85.8141 195.223 86.6144L194.424 87.0272L193.785 87.4681C193.091 87.6887 192.456 88.0505 191.922 88.5286C191.499 88.9525 191.023 89.3365 190.664 89.8002C190.125 90.5005 190.021 91.2829 190.433 92.101C190.487 92.2078 190.423 92.3926 190.365 92.5249C190.171 92.964 189.921 93.382 189.756 93.8304C189.558 94.3797 189.497 94.9503 189.795 95.5005C190.614 96.6407 191.897 97.0798 193.167 97.541H194.054L194.535 97.2867L195.321 96.7594C195.54 96.9959 195.757 97.2392 195.984 97.4723C196.627 98.1319 197.302 98.7651 197.914 99.4501C198.943 100.601 200.052 101.637 201.437 102.417C202.209 102.853 202.847 103.507 203.544 104.064C203.055 104.958 203.177 105.838 203.646 106.692C204.552 108.336 205.476 109.972 206.397 111.608C206.464 111.706 206.499 111.821 206.495 111.937C206.039 111.551 205.594 111.152 205.125 110.779C202.935 109.04 200.748 107.298 198.542 105.577C196.708 104.151 194.887 102.693 192.982 101.336C189.876 99.1322 186.593 97.2002 182.941 95.8947C182.593 95.7692 182.261 95.6005 181.922 95.4521C181.824 95.0763 181.727 94.7005 181.63 94.3246C181.334 93.3356 181.04 92.3466 180.748 91.3575C180.657 90.3448 180.567 89.3323 180.476 88.3201C180.725 88.0657 180.998 87.8224 181.219 87.5444C181.679 86.9645 182.186 86.4025 182.538 85.7641C183.309 84.3679 183.615 82.8351 183.763 81.2711L183.852 79.9876C183.829 79.6544 183.813 79.3195 183.782 78.9872C183.724 78.3633 183.657 77.7402 183.594 77.1162C184.093 76.9543 184.607 76.8221 185.089 76.6229C186.593 76.0066 187.179 74.8019 187.303 73.337C187.392 72.2146 187.102 71.1549 186.532 70.1758C185.757 68.8448 184.677 67.8606 183.065 67.5172C183.251 64.8044 182.681 62.3027 180.828 60.1562C181.36 60.269 181.893 60.3614 182.418 60.4953C183.859 60.8628 185.248 61.3971 186.553 62.0866C188.187 62.9657 189.253 64.3484 190.052 65.9167C190.812 67.4121 191.482 68.9491 192.2 70.4631C193.285 72.7521 194.618 74.879 196.428 76.7254C198.296 78.6312 200.481 80.1164 202.882 81.3355C205.13 82.4774 207.504 83.3184 209.92 84.0695C212.063 84.7285 214.038 85.8069 215.72 87.2358C218.638 89.7121 220.394 92.8173 221.215 96.4347C221.569 97.9628 221.712 99.5286 221.642 101.092C221.473 104.52 220.446 107.678 218.329 110.482C218.119 110.758 217.893 111.017 217.677 111.282Z" fill="#29D305"/>
<path d="M180.826 60.1564C182.679 62.3029 183.249 64.8054 183.062 67.5174C182.364 67.3852 181.639 67.4708 180.995 67.7615L180.855 67.5292C180.855 67.1749 180.65 66.9451 180.31 66.9239C180.011 66.9239 179.703 66.8909 179.416 66.9477C179.165 66.9977 178.939 67.1545 178.706 67.2647C177.928 67.0418 177.928 67.0418 177.907 66.3916C178.588 65.5837 180.243 65.4336 181.079 66.1042C181.185 66.1889 181.284 66.2788 181.386 66.367C181.215 65.7829 181.016 65.2183 180.714 64.7105C179.674 62.9658 178.21 61.8146 176.002 61.7222C173.873 61.6332 171.775 61.3093 169.703 60.8515C168.452 60.5769 167.188 60.3488 166.026 59.7944C165.919 59.7585 165.81 59.7301 165.699 59.7096C166.27 60.4929 165.92 61.066 165.424 61.6238C165.005 62.0977 164.557 62.5564 164.212 63.0803C163.123 64.7249 162.065 66.3865 161.017 68.0574C160.288 69.2162 159.64 70.4243 158.867 71.5552C158.098 72.6615 157.224 73.7 156.408 74.7698C155.521 74.9199 155.02 75.6379 154.291 76.0228C154.298 76.055 154.306 76.0881 154.313 76.1203L154.626 76.1796L154.047 76.7866C153.989 76.7942 153.906 76.7798 153.877 76.8112C153.202 77.5369 152.526 78.2625 151.866 79.0001C151.648 79.2434 151.471 79.5189 151.245 79.8156C151.253 79.0475 151.447 78.2916 151.812 77.6072C152.124 76.9926 152.317 76.3195 152.533 75.6634C152.842 74.7232 153.134 73.789 153.825 73.0074C154.439 72.3059 155.015 71.5751 155.55 70.8176C156.498 69.4935 157.383 68.1294 158.335 66.8078C158.877 66.0559 159.526 65.376 160.076 64.6291C161.336 62.9183 162.015 60.9838 162.366 58.9348C162.372 58.9009 162.336 58.861 162.292 58.7585C162.21 58.8483 162.125 58.9017 162.107 58.9704C162.06 59.1611 162.056 59.3604 162.009 59.5511C161.471 61.762 160.501 63.7669 159.011 65.5548C158.133 66.6103 157.354 67.7412 156.545 68.8475C155.702 70.0004 154.902 71.1822 154.035 72.3173C153.408 73.1362 152.74 73.9102 152.469 74.9284C152.185 75.9914 151.874 77.0477 151.315 78.026C151.192 78.2405 151.155 78.5067 151.109 78.7551C150.9 79.8851 150.67 81.0135 150.515 82.1511C150.433 82.7114 150.441 83.2803 150.539 83.8382C150.618 84.3186 150.612 84.8084 150.521 85.287C150.446 85.7727 150.304 86.2644 150.333 86.7459C150.403 87.8794 150.531 89.0111 150.688 90.1369C150.815 91.0423 150.717 91.929 150.621 92.8251C150.559 93.3656 150.546 93.9102 150.582 94.4528C150.623 95.0242 150.787 95.5871 150.837 96.1584C150.926 97.1613 150.616 98.104 150.291 99.0408C150.145 99.4647 150.069 99.9072 149.96 100.341C148.892 100.685 147.877 101.165 146.944 101.771C146.944 101.506 146.954 101.242 146.944 100.979C146.928 100.596 146.896 100.216 146.87 99.8334C146.891 99.6291 146.912 99.4248 146.932 99.2214C146.946 99.368 146.96 99.5147 146.98 99.73C147.092 98.8823 147.199 98.104 147.295 97.3249C147.452 96.0573 147.604 94.7896 147.751 93.522C147.788 93.2007 147.803 92.8777 147.846 92.5572C147.923 91.9935 148.078 91.4323 148.088 90.8685C148.14 87.9862 148.125 85.1098 148.201 82.2325C148.228 81.2576 148.413 80.2827 148.598 79.3163C148.763 78.4618 149.057 77.631 149.243 76.7798C149.546 75.387 149.877 74.0069 150.529 72.7157C150.944 71.8926 151.368 71.0711 151.745 70.2318C152.215 69.184 152.632 68.1167 153.089 67.0613C153.593 65.8897 154.115 64.7257 154.618 63.5533C155.219 62.1503 155.969 60.8346 157.04 59.7011C157.275 59.4519 157.492 59.1866 157.717 58.9289L157.643 58.8568C157.539 58.919 157.441 58.9918 157.353 59.0738C156.854 59.6469 156.331 60.203 155.879 60.8083C154.684 62.4088 154.072 64.2841 153.255 66.0643C152.287 68.1642 151.505 70.3387 150.416 72.3927C149.989 73.1956 149.664 74.0439 149.448 74.9199C148.883 77.2181 148.191 79.4935 147.933 81.8561C147.965 80.9312 148.034 80.0089 148.111 79.0882C148.219 77.8293 148.382 76.573 148.437 75.3124C148.512 73.594 148.526 71.8722 148.531 70.1522C148.536 69.0348 148.655 67.9362 148.984 66.8629C149.356 65.6464 149.782 64.4451 150.43 63.3329C150.692 62.8844 150.985 62.4529 151.265 62.0146C149.984 62.8938 149.792 64.3468 149.204 65.5921C149.363 64.5197 149.636 63.4931 150.401 62.6513C150.437 62.6123 150.401 62.5174 150.401 62.4478C151.087 61.8756 151.732 61.2551 152.469 60.7413C153.615 59.9276 154.877 59.2742 156.217 58.8008C156.448 58.7148 156.66 58.5886 156.844 58.4287C158.029 57.419 159.396 56.6959 160.797 55.9982C162.723 55.0394 164.811 54.8682 166.898 54.6367C167.061 54.6789 167.226 54.71 167.393 54.73C168.594 54.7927 169.798 54.8088 170.994 54.9182C171.746 54.9868 172.492 55.1666 173.23 55.342C174.367 55.6082 175.522 55.8388 176.537 56.4484C176.644 56.5119 176.795 56.5094 176.926 56.5374C177.974 57.1172 178.767 57.9624 179.546 58.8263C179.958 59.279 180.397 59.7122 180.826 60.1564ZM179.535 60.1733L179.562 60.0123C179.443 59.9714 179.322 59.9366 179.199 59.908C178.163 59.7147 177.122 59.5469 176.094 59.3315C174.846 59.0713 173.617 58.7279 172.367 58.505C171.391 58.3354 170.43 58.171 169.589 57.6242C169.415 57.5205 169.234 57.4295 169.045 57.352C168.46 57.085 167.878 56.8112 167.285 56.5611C166.767 56.3309 166.236 56.1283 165.695 55.9541C165.402 55.8693 165.069 55.8982 164.753 55.8761L164.739 56.027C164.855 56.0482 164.971 56.0669 165.086 56.0914C165.499 56.1762 165.936 56.2118 166.318 56.3678C167.155 56.7069 167.965 57.1096 168.782 57.4936C169.467 57.8158 170.124 58.2057 170.836 58.4601C171.375 58.6525 171.989 58.661 172.555 58.7839C174.475 59.1959 176.387 59.6316 178.307 60.0386C178.701 60.1233 179.12 60.131 179.533 60.1733H179.535ZM179.97 59.6969C179.554 59.1561 178.99 58.7343 178.341 58.477C177.09 57.9887 175.804 57.5818 174.526 57.1469C172.434 56.4322 170.331 55.7524 168.158 55.2903C168.061 55.27 167.96 55.2649 167.861 55.253C167.895 55.3548 167.941 55.3895 167.992 55.4022C168.758 55.5938 169.538 55.7413 170.289 55.9779C172.221 56.5781 174.145 57.1997 176.063 57.8429C176.909 58.1266 177.738 58.4537 178.547 58.8229C179.051 59.0552 179.495 59.4019 179.968 59.6969H179.97ZM180.626 60.2954L180.563 60.3615C180.747 60.5311 180.933 60.7006 181.118 60.8702L181.156 60.827L180.626 60.2954Z" fill="#262626"/>
<path opacity="0.5" d="M146.932 99.2268C146.911 99.4303 146.89 99.6346 146.87 99.8389C146.857 100.27 146.844 100.702 146.831 101.134C146.926 101.822 146.476 102.173 145.955 102.526C144.705 103.374 143.71 104.468 142.761 105.603C142.253 104.84 141.719 104.101 141.242 103.325C139.753 100.886 138.559 98.2944 137.682 95.5985C136.997 93.5326 136.5 91.4142 136.196 89.2667C135.916 87.3679 135.805 85.45 135.862 83.5334C135.951 80.9901 136.333 78.4927 137.112 76.0545C137.89 73.6164 139.02 71.3513 140.642 69.3234C142.901 66.4979 145.794 64.5116 149.33 63.3892C149.388 63.3765 149.448 63.3691 149.508 63.3672C149.224 63.7266 148.933 64.0784 148.662 64.4455C147.695 65.7587 147.154 67.2617 146.791 68.7945C146.257 70.9615 146.289 73.2207 146.885 75.373C147.07 76.0376 147.283 76.7107 147.334 77.3897C147.399 78.2739 147.334 79.17 147.292 80.0568C147.167 82.995 147.211 85.9299 147.353 88.8665C147.482 91.2515 147.439 93.6421 147.225 96.0215C147.119 97.0897 147.027 98.1587 146.932 99.2268Z" fill="#29D305"/>
<path d="M146.932 99.2274C147.03 98.1593 147.122 97.0903 147.225 96.0221C147.439 93.6427 147.482 91.2521 147.353 88.8671C147.211 85.9305 147.167 82.9956 147.292 80.0573C147.33 79.1689 147.399 78.2771 147.334 77.3903C147.283 76.7121 147.068 76.0382 146.885 75.3736C146.289 73.2213 146.257 70.9621 146.791 68.7951C147.156 67.2623 147.695 65.7593 148.662 64.4461C148.928 64.079 149.225 63.7272 149.508 63.3678L150.404 62.448C150.404 62.5175 150.438 62.6124 150.404 62.6514C149.638 63.4933 149.366 64.5165 149.207 65.5923C149.794 64.3469 149.986 62.8939 151.267 62.0148C150.988 62.4531 150.694 62.8846 150.432 63.333C149.782 64.4453 149.359 65.6465 148.986 66.863C148.658 67.9363 148.542 69.035 148.533 70.1523C148.526 71.8724 148.515 73.5941 148.439 75.3125C148.384 76.5731 148.221 77.8295 148.113 79.0884C148.033 80.009 147.964 80.9314 147.935 81.8563C148.194 79.4936 148.886 77.2183 149.45 74.92C149.667 74.044 149.992 73.1957 150.418 72.3929C151.509 70.3388 152.291 68.1643 153.257 66.0645C154.074 64.2893 154.687 62.4132 155.882 60.8084C156.333 60.2032 156.858 59.647 157.355 59.074C157.444 58.9919 157.541 58.9191 157.646 58.8569L157.719 58.929C157.494 59.1833 157.276 59.4521 157.042 59.7013C155.971 60.8347 155.222 62.1504 154.62 63.5534C154.118 64.7259 153.595 65.8898 153.091 67.0614C152.638 68.1169 152.217 69.1808 151.747 70.232C151.37 71.0712 150.949 71.8927 150.532 72.7159C149.879 74.007 149.548 75.3871 149.245 76.78C149.06 77.6277 148.765 78.4619 148.601 79.3164C148.415 80.2803 148.23 81.2578 148.203 82.2327C148.127 85.1099 148.142 87.9897 148.091 90.8686C148.08 91.4324 147.926 91.9936 147.848 92.5574C147.805 92.8778 147.791 93.2008 147.754 93.5221C147.604 94.7898 147.452 96.0574 147.297 97.3251C147.202 98.1042 147.094 98.8815 146.982 99.7301C146.957 99.5207 146.943 99.3741 146.932 99.2274Z" fill="black"/>
<path d="M176.926 56.535C176.794 56.507 176.644 56.5095 176.536 56.446C175.521 55.8364 174.367 55.6058 173.229 55.3397C172.491 55.1701 171.746 54.987 170.994 54.9158C169.798 54.8064 168.594 54.7903 167.393 54.7276C167.226 54.7076 167.06 54.6765 166.898 54.6343C166.987 54.603 167.075 54.5428 167.164 54.5445C169.275 54.5852 171.383 54.6547 173.446 55.1557C174.673 55.4575 175.883 55.8008 176.926 56.535Z" fill="#070707"/>
<path d="M176.318 109.43C175.972 109.33 175.595 109.283 175.283 109.122C172.671 107.781 170.062 106.433 167.475 105.053C166.319 104.455 165.243 103.723 164.273 102.874C162.998 101.733 162.308 100.351 162.388 98.6645C162.415 98.1202 162.524 97.5794 162.596 97.0377C163.191 96.9902 163.773 96.9741 164.104 97.5904C164.11 97.5997 164.157 97.5904 164.261 97.5845C164.774 93.9697 164.136 90.5482 162.294 87.3047C162.621 87.3047 162.905 87.3149 163.154 87.4081C165.022 88.1024 166.901 88.773 168.744 89.5275C170.625 90.304 172.585 90.7864 174.58 91.1602C175.342 91.3027 176.051 91.1373 176.587 90.538C176.64 90.4892 176.698 90.4449 176.759 90.4057C176.759 90.4617 176.759 90.5185 176.752 90.5753C176.633 92.0343 176.593 93.4924 176.853 94.9446C176.878 95.0836 176.899 95.2235 176.932 95.3608C177.02 95.7508 177.178 96.0644 177.577 96.3044C178.351 96.7706 179.085 97.3098 179.46 98.1575C179.481 98.2103 179.498 98.2641 179.513 98.3186C179.527 98.4288 179.534 98.5416 179.559 98.6509C179.654 99.0748 179.851 99.4987 179.836 99.9225C179.8 100.924 179.519 101.893 179.139 102.825C178.557 104.254 177.947 105.673 177.343 107.094C177.004 107.877 176.655 108.653 176.318 109.43Z" fill="#FED7CB"/>
<path d="M185.806 82.9205C186.558 82.4517 187.403 82.2423 188.278 82.1177H190.694C192.218 82.2448 193.755 82.3508 195.13 83.0663C195.799 83.4147 196.408 83.8674 197.046 84.271C197.684 84.6745 198.356 85.0772 198.992 85.5061C199.283 85.6929 199.541 85.9217 199.757 86.1843C200.696 87.3907 201.567 88.6428 202.54 89.8296C204.401 92.1026 206.017 94.5498 207.363 97.1338C207.785 97.9383 208.183 98.7538 208.599 99.5617C208.67 99.6818 208.75 99.7971 208.837 99.9068C209.246 100.455 209.231 101.02 208.853 101.564C207.907 102.925 206.947 104.277 205.644 105.364C205.515 105.454 205.377 105.533 205.232 105.599C204.379 104.497 203.433 103.473 202.314 102.607C201.788 102.198 201.194 101.857 200.725 101.397C199.28 99.9797 197.877 98.5334 196.474 97.0829C195.419 95.9977 194.482 94.8127 193.678 93.5461C193.448 93.1808 193.092 92.8815 192.764 92.5822C192.669 92.4975 192.468 92.5153 192.32 92.4865C192.295 92.6272 192.26 92.7662 192.249 92.9103C192.242 93.007 192.288 93.1079 192.277 93.2028C192.245 93.4495 192.332 93.6131 192.543 93.775C192.995 94.1014 193.322 94.5612 193.474 95.0831C193.52 95.2526 193.497 95.4468 193.506 95.629L193.349 95.6875C192.899 95.1984 192.448 94.7084 192.018 94.2404C191.841 94.4566 191.649 94.7033 191.404 95.0136C191.703 95.2374 192.016 95.5129 192.369 95.7274C192.93 96.0665 193.434 96.5192 194.197 96.4743C194.618 96.4497 194.751 96.8337 194.552 97.294L194.071 97.5483H193.183C191.914 97.0872 190.631 96.648 189.812 95.5078C189.709 95.0119 189.989 94.5753 190.051 94.1133C190.164 93.3334 190.546 92.6925 191.05 92.1219C191.304 91.8348 191.49 91.498 191.595 91.1351C191.821 90.3934 192.083 89.6626 192.325 88.9251C192.343 88.8257 192.349 88.7248 192.346 88.6241L190.689 90.3196L190.633 90.2671L191.929 88.5351C192.462 88.057 193.098 87.6952 193.792 87.4746L194.431 87.0338L195.229 86.6209C195.254 86.5531 195.318 86.4361 195.298 86.4251C194.623 85.9749 193.985 85.4468 193.252 85.1119C191.954 84.5185 190.515 84.3744 189.106 84.1684C188.788 84.1225 188.463 84.1603 188.167 84.2777C187.786 84.4388 187.457 84.6304 187.003 84.5253C186.602 84.432 186.21 84.3871 185.977 84.0014C185.935 83.9335 185.809 83.9115 185.722 83.8683L185.633 83.7182C185.69 83.4486 185.747 83.1858 185.806 82.9205Z" fill="#FED7CB"/>
<path d="M149.961 100.347C150.07 99.9129 150.146 99.4687 150.292 99.0465C150.617 98.1072 150.926 97.1645 150.838 96.1642C150.788 95.5928 150.624 95.0299 150.583 94.4585C150.547 93.9159 150.56 93.3713 150.622 92.8308C150.718 91.9347 150.816 91.0506 150.689 90.1426C150.532 89.0168 150.404 87.8851 150.334 86.7516C150.305 86.2701 150.447 85.7784 150.522 85.2927C150.613 84.8141 150.619 84.3243 150.54 83.8439C150.442 83.286 150.434 82.7171 150.516 82.1569C150.671 81.0192 150.901 79.8908 151.11 78.7608C151.156 78.5124 151.193 78.2462 151.316 78.0317C151.874 77.056 152.185 75.9971 152.47 74.9341C152.741 73.9168 153.409 73.1419 154.036 72.323C154.903 71.1879 155.703 70.0061 156.546 68.8532C157.355 67.7469 158.134 66.616 159.012 65.5605C160.499 63.7726 161.472 61.7677 162.01 59.5568C162.057 59.3661 162.061 59.1668 162.108 58.9761C162.126 58.9074 162.211 58.854 162.293 58.7642C162.337 58.8667 162.373 58.9066 162.367 58.9405C162.012 60.9895 161.337 62.9249 160.077 64.6348C159.527 65.3817 158.877 66.0616 158.336 66.8135C157.384 68.1351 156.499 69.4992 155.551 70.8233C155.014 71.5797 154.437 72.3094 153.823 73.0097C153.132 73.7913 152.84 74.7255 152.53 75.6657C152.314 76.3218 152.122 76.9949 151.81 77.6095C151.447 78.2944 151.255 79.0503 151.249 79.8179C151.472 79.5212 151.649 79.2457 151.87 79.0024C152.53 78.2649 153.205 77.5392 153.88 76.8135C153.91 76.7821 153.992 76.7966 154.051 76.7889C153.696 77.4671 153.381 78.1708 153.56 78.932C154.004 80.8064 154.959 82.323 156.944 83.0555C157.087 83.197 157.226 83.342 157.374 83.4793C158.698 84.7077 160.03 85.9234 161.084 87.3925C162.47 89.3237 163.589 91.343 163.785 93.732C163.86 94.6509 163.82 95.5368 163.143 96.2752C162.142 96.7839 161.16 97.3357 160.133 97.791C159.227 98.192 158.27 98.487 157.335 98.8286C156.934 97.4671 156.819 96.0158 155.991 94.7849C156.036 95.3902 156.139 95.9794 156.233 96.5702C156.363 97.3993 156.486 98.2293 156.613 99.0592L154.493 99.4831C154.404 98.7761 154.237 98.0682 154.24 97.3637C154.245 95.8446 154.383 94.3254 154.383 92.8062C154.383 91.3718 154.294 89.9366 154.205 88.5039C154.167 87.8868 154.028 87.2755 153.939 86.7084C153.633 86.7287 153.356 86.8228 153.149 86.7457C152.738 86.5988 152.353 86.3918 152.008 86.1319C151.58 85.7928 151.22 85.3774 150.802 84.9654C150.756 85.3122 150.678 85.6436 150.678 85.9726C150.678 86.5338 150.717 87.0967 150.767 87.657C150.823 88.3429 150.937 89.0253 150.964 89.7111C150.999 90.5809 151.011 91.4558 150.964 92.3239C150.913 93.2072 150.761 94.0829 151.004 94.9637C151.323 96.0852 151.261 97.2743 150.827 98.3598C150.58 98.9922 150.383 99.6408 150.161 100.282L149.961 100.347Z" fill="black"/>
<path d="M163.14 96.2767C163.817 95.5341 163.857 94.6482 163.781 93.7335C163.585 91.3445 162.466 89.3252 161.08 87.394C160.026 85.9249 158.695 84.7092 157.37 83.4808C157.223 83.3443 157.083 83.1994 156.94 83.057C157.409 83.0849 157.877 83.1104 158.346 83.1417C158.893 83.1782 159.274 82.929 159.559 82.5093C159.866 82.0575 159.944 81.57 159.763 80.9961C161.04 81.9905 162.257 82.9408 163.48 83.8835C163.594 83.9556 163.72 84.0073 163.853 84.0361C163.993 84.0768 164.162 84.0632 164.282 84.1319C164.889 84.4769 165.455 84.8949 166.088 85.189C168.346 86.2275 170.604 87.2703 172.904 88.2189C174.254 88.7759 175.69 89.1455 177.181 89.1514C177.898 89.1514 178.614 89.0403 179.331 88.9819L177.637 89.4057H176.886C176.838 89.7643 176.797 90.0916 176.752 90.4179C176.691 90.4571 176.634 90.5014 176.581 90.5502C176.048 91.1495 175.339 91.3132 174.574 91.1724C172.578 90.7986 170.618 90.3162 168.737 89.5397C166.898 88.7809 165.019 88.1104 163.148 87.4203C162.898 87.3271 162.615 87.3186 162.288 87.3169C164.13 90.5646 164.768 93.9819 164.254 97.5966C164.15 97.6017 164.103 97.6119 164.098 97.6026C163.768 96.9863 163.186 97.0024 162.59 97.0498L163.14 96.2767Z" fill="#FFC6B4"/>
<path d="M150.154 100.283C150.374 99.6416 150.573 98.9931 150.82 98.3607C151.254 97.2752 151.316 96.086 150.997 94.9646C150.754 94.0838 150.908 93.2081 150.957 92.3247C151.008 91.4566 150.995 90.5818 150.957 89.712C150.93 89.0262 150.816 88.3437 150.76 87.6579C150.714 87.0975 150.677 86.5346 150.672 85.9734C150.672 85.6428 150.75 85.313 150.795 84.9663C151.214 85.3783 151.573 85.7954 152.002 86.1328C152.346 86.3926 152.731 86.5997 153.143 86.7466C153.349 86.8237 153.626 86.7296 153.932 86.7093C154.021 87.2764 154.162 87.8876 154.198 88.5048C154.287 89.9375 154.376 91.3727 154.376 92.8071C154.376 94.3263 154.238 95.8454 154.233 97.3646C154.233 98.0725 154.396 98.7803 154.486 99.4839L150.154 100.283Z" fill="#262626"/>
<path d="M176.751 90.4111C176.795 90.0848 176.84 89.7575 176.885 89.3989H177.636C177.937 89.6431 178.275 89.7872 178.68 89.7465C179.32 89.6821 179.778 89.9771 180.132 90.445C180.353 90.7375 180.543 91.0512 180.747 91.3564C181.042 92.346 181.336 93.335 181.629 94.3235C181.199 94.5532 180.767 94.7779 180.344 95.0178C180.301 95.0415 180.313 95.1526 180.3 95.2238L176.845 94.9483C176.585 93.4961 176.626 92.038 176.745 90.579C176.75 90.5239 176.75 90.4671 176.751 90.4111Z" fill="#262626"/>
<path d="M194.544 97.291C194.745 96.8306 194.611 96.4432 194.189 96.4712C193.424 96.5161 192.922 96.066 192.361 95.7243C192.006 95.5099 191.695 95.2343 191.396 95.0105C191.642 94.7003 191.84 94.4536 192.011 94.2374C192.443 94.7053 192.894 95.1953 193.342 95.6845L193.499 95.626C193.49 95.4437 193.512 95.2538 193.466 95.08C193.315 94.5583 192.989 94.0986 192.537 93.772C192.326 93.6101 192.239 93.4464 192.271 93.1997C192.282 93.1048 192.236 93.0039 192.243 92.9073C192.254 92.7665 192.289 92.6275 192.314 92.4834C192.467 92.5122 192.669 92.4927 192.758 92.5792C193.086 92.8784 193.442 93.1777 193.673 93.5431C194.477 94.8096 195.413 95.9946 196.468 97.0799C197.877 98.5338 199.28 99.98 200.726 101.395C201.196 101.854 201.791 102.196 202.315 102.605C203.434 103.471 204.38 104.493 205.234 105.597L204.987 105.745C204.494 105.169 204.023 104.622 203.553 104.075C202.856 103.519 202.222 102.864 201.446 102.428C200.061 101.646 198.952 100.61 197.923 99.4612C197.31 98.7762 196.636 98.143 195.993 97.4834C195.766 97.2503 195.549 97.007 195.33 96.7705L194.544 97.291Z" fill="#FFC6B4"/>
<path d="M176.319 109.429C176.659 108.652 177.005 107.876 177.337 107.096C177.941 105.675 178.55 104.256 179.132 102.828C179.512 101.895 179.793 100.926 179.829 99.9252C179.844 99.5013 179.651 99.0775 179.552 98.6536C179.527 98.5442 179.52 98.4315 179.506 98.3213C179.642 98.8893 179.871 99.4539 179.895 100.026C179.952 101.416 179.483 102.723 178.993 104.006C178.392 105.581 177.743 107.143 177.086 108.693C176.95 109.018 176.848 109.448 176.319 109.429Z" fill="#FC807E"/>
<path d="M156.609 99.0605C156.482 98.2305 156.359 97.4006 156.228 96.5715C156.139 95.9781 156.032 95.3914 155.987 94.7861C156.815 96.0171 156.929 97.4684 157.33 98.8299L156.609 99.0605Z" fill="#252625"/>
<path d="M180.299 95.2255C180.313 95.1543 180.299 95.0432 180.344 95.0195C180.767 94.7796 181.199 94.5549 181.628 94.3252C181.725 94.7016 181.822 95.0774 181.92 95.4527C181.724 95.4548 181.529 95.4457 181.334 95.4256C180.987 95.3713 180.647 95.2933 180.299 95.2255Z" fill="#010201"/>
<path d="M146.828 101.135C146.841 100.703 146.854 100.272 146.867 99.8398C146.892 100.221 146.924 100.603 146.94 100.985C146.952 101.249 146.94 101.512 146.94 101.777L146.828 101.135Z" fill="#010101"/>
<path d="M179.332 88.976C178.615 89.0362 177.899 89.1456 177.182 89.1456C175.69 89.1405 174.254 88.7709 172.904 88.213C170.605 87.2644 168.346 86.2242 166.088 85.1857C165.456 84.895 164.889 84.4736 164.282 84.1286C164.162 84.0599 163.994 84.0735 163.853 84.0328C163.72 84.004 163.594 83.9523 163.481 83.8802C162.257 82.9409 161.04 81.9872 159.763 80.9911C159.941 81.565 159.866 82.0525 159.559 82.5043C159.274 82.924 158.894 83.1732 158.346 83.1367C157.878 83.1054 157.409 83.0799 156.941 83.052C154.956 82.3204 153.999 80.8029 153.557 78.9285C153.379 78.1656 153.691 77.4602 154.047 76.7854L154.626 76.1785C155.007 76.0835 155.389 75.9903 155.769 75.8928L167.944 72.7756C168.279 72.6908 168.616 72.6111 168.963 72.5264C168.988 72.6451 169.009 72.7129 169.015 72.7807C169.129 74.2749 169.83 75.6729 170.977 76.6939C171.699 77.35 172.549 77.7959 173.55 77.8994C175.382 78.0884 177.727 76.8939 178.013 74.7042C178.082 74.1761 178.089 73.6412 178.124 73.1088C178.621 74.6729 179.48 76.0674 180.342 77.4619C180.894 78.3555 180.833 78.514 179.81 78.8878L178.936 79.2049C178.946 79.2354 178.955 79.2659 178.966 79.2956C179.601 79.2719 180.24 79.238 180.829 78.9565C181.26 78.7505 181.411 78.4199 181.292 77.9689C181.23 77.7673 181.14 77.5742 181.026 77.3941C180.646 76.7422 180.255 76.0954 179.868 75.4443C179.992 75.5426 180.121 75.6334 180.236 75.7393C180.857 76.3209 181.567 76.7693 182.426 76.9491C182.808 77.0287 183.201 77.0618 183.589 77.1186C183.652 77.7425 183.718 78.3656 183.776 78.9896C183.807 79.3219 183.823 79.6568 183.846 79.9899L183.757 81.2734C183.609 82.8358 183.304 84.3685 182.533 85.7664C182.178 86.404 181.673 86.966 181.213 87.5467C180.993 87.8248 180.719 88.0647 180.47 88.3224L179.332 88.976ZM177.38 82.1941L177.885 82.2169H179.797L180.125 82.1974C180.664 82.1398 181.157 81.9685 181.54 81.5938C181.623 81.5091 181.602 81.3319 181.629 81.1971C181.499 81.2124 181.326 81.1801 181.248 81.2488C180.757 81.6727 180.159 81.7854 179.533 81.799C178.908 81.8126 178.27 81.7939 177.64 81.7897C177.373 81.7702 177.107 81.7422 176.847 81.7363C176.717 81.7363 176.515 81.6947 176.593 81.944L177.38 82.1941ZM154.556 78.5487L154.306 78.6818L154.339 78.8285H155.617L156.074 78.954C155.344 79.5186 155.194 80.2129 155.719 80.7113C155.758 80.5285 155.785 80.3437 155.801 80.1578C155.823 79.3728 156.912 78.9446 157.467 79.4728C157.716 79.7102 157.988 79.9272 158.255 80.1467C158.361 80.2315 158.485 80.3036 158.653 80.4163C158.453 78.826 156.213 77.8544 154.554 78.5445L154.556 78.5487Z" fill="#FED7CB"/>
<path d="M178.129 73.1067C178.093 73.6391 178.087 74.174 178.018 74.7022C177.731 76.8919 175.387 78.0864 173.555 77.8973C172.551 77.7931 171.7 77.348 170.982 76.6918C169.834 75.6721 169.133 74.2754 169.018 72.782C169.011 72.7125 168.99 72.6447 168.965 72.5277C168.618 72.6125 168.281 72.6913 167.946 72.777L155.767 75.8941C155.388 75.9916 155.006 76.0849 154.625 76.1798L154.312 76.1205C154.305 76.0882 154.297 76.0552 154.29 76.023C155.018 75.6381 155.518 74.9209 156.407 74.77C156.535 74.7637 156.663 74.7487 156.789 74.7251C160.684 73.7205 164.588 72.7049 168.486 71.7147C168.909 71.6071 169.107 71.4435 169.201 71.0213C169.6 69.2995 171.384 68.3085 172.975 68.2034C174.295 68.1186 175.37 68.6959 176.277 69.5665C176.505 69.7861 176.716 69.8768 177.012 69.7361L177.304 69.7149C177.715 69.692 178.129 69.6869 178.535 69.6352C178.691 69.5981 178.83 69.515 178.934 69.3978C179.283 69.0426 179.581 68.6349 179.964 68.3161C180.256 68.0737 180.646 67.9397 180.992 67.7583C181.636 67.4675 182.361 67.382 183.059 67.5142C184.672 67.8575 185.751 68.8417 186.527 70.1727C187.096 71.1569 187.39 72.2149 187.301 73.3373C187.181 74.798 186.592 76.0069 185.091 76.6249C184.609 76.8241 184.095 76.9563 183.596 77.1183C183.208 77.0649 182.815 77.0335 182.434 76.9487C181.572 76.769 180.867 76.3205 180.243 75.739C180.129 75.633 179.999 75.5423 179.876 75.444L178.38 72.2276C178.428 71.5655 178.476 70.9026 178.526 70.193L177.572 70.3261L177.259 70.3371H176.939L177.361 70.8577C177.764 71.5538 178.025 72.3171 178.129 73.1067ZM182.999 71.7079L185.321 70.3973C184.768 69.4877 184.005 68.8858 183.062 68.4746L181.918 68.2797C181.73 68.2172 181.53 68.2 181.334 68.2296C181.139 68.2592 180.954 68.3347 180.796 68.4492C180.175 68.8731 179.801 69.4741 179.602 70.1752C179.218 71.5316 179.487 72.8134 180.195 74.0003C180.873 75.1362 181.819 76.0001 183.226 76.2748C183.395 76.2721 183.565 76.2789 183.733 76.2951C184.503 76.4112 185.02 76.0509 185.453 75.4982C186.183 74.5657 186.27 73.506 186.12 72.4082C186.065 72.0157 185.922 71.6342 185.804 71.1891L182.908 72.877C182.938 72.4893 182.969 72.1002 182.999 71.7096V71.7079ZM177.098 74.0342C177.105 72.7665 176.647 71.5365 175.803 70.5584C175.139 69.7725 174.306 69.202 173.248 68.9926C172.438 68.8349 171.62 68.8231 171.058 69.5097C170.691 69.946 170.407 70.4407 170.22 70.9713C169.771 72.3446 170.09 73.6603 170.826 74.8709C171.524 76.0179 172.512 76.8953 173.922 77.1403C175.148 77.3531 175.638 77.2005 176.352 76.2926C176.872 75.6203 177.068 74.8505 177.098 74.0342Z" fill="#29D205"/>
<path d="M191.929 88.5352L190.623 90.262L190.68 90.3146L192.337 88.6191C192.34 88.7198 192.333 88.8206 192.316 88.92C192.074 89.6576 191.811 90.3883 191.586 91.1301C191.481 91.493 191.295 91.8297 191.04 92.1169C190.537 92.6874 190.153 93.3283 190.042 94.1082C189.976 94.5719 189.7 95.0068 189.803 95.5028C189.504 94.9526 189.565 94.3821 189.764 93.8327C189.926 93.3843 190.178 92.9663 190.372 92.5272C190.43 92.3983 190.495 92.2135 190.441 92.1033C190.028 91.2852 190.132 90.5028 190.671 89.8025C191.029 89.3422 191.506 88.959 191.929 88.5352Z" fill="#FFC6B4"/>
<path d="M179.33 88.9755L180.474 88.3193C180.565 89.3315 180.656 90.344 180.746 91.3568C180.542 91.0516 180.352 90.738 180.131 90.4455C179.776 89.9775 179.319 89.6825 178.68 89.7469C178.274 89.7876 177.936 89.6435 177.635 89.3994L179.33 88.9755Z" fill="#010100"/>
<path d="M185.721 83.8682C185.809 83.9114 185.934 83.9334 185.975 84.0013C186.208 84.387 186.596 84.4319 187.001 84.5252C187.457 84.6303 187.784 84.4404 188.165 84.2776C188.462 84.1602 188.786 84.1224 189.104 84.1683C190.513 84.3743 191.952 84.5209 193.25 85.1118C193.984 85.4467 194.622 85.9748 195.296 86.425C195.313 86.436 195.253 86.553 195.228 86.6208C194.405 85.8205 193.431 85.2585 192.284 85.0203C191.18 84.7914 190.066 84.5718 188.95 84.4438C188.477 84.3904 187.965 84.5514 187.485 84.6693C186.776 84.8448 186.252 84.5845 185.809 84.0954C185.766 84.0251 185.736 83.9483 185.721 83.8682Z" fill="#FFAEAE"/>
<path d="M190.695 82.118H188.279C188.398 82.0765 188.522 82.0481 188.648 82.0332C189.207 82.0247 189.766 82.0247 190.326 82.0332C190.452 82.0485 190.575 82.0769 190.695 82.118Z" fill="#CCB9A1"/>
<path d="M183.761 81.2727C183.79 80.8455 183.82 80.4177 183.85 79.9893L183.761 81.2727Z" fill="#B4BA8D"/>
<path d="M185.806 82.9204C185.747 83.1858 185.69 83.452 185.628 83.7173C185.408 83.396 185.54 83.1442 185.806 82.9204Z" fill="#C78B74"/>
<path d="M194.429 87.0337L193.79 87.4745L194.429 87.0337Z" fill="#DC9888"/>
<path d="M177.01 69.7389C176.713 69.8763 176.503 69.7855 176.275 69.5694C175.367 68.6987 174.293 68.1223 172.973 68.2062C171.382 68.3079 169.601 69.3023 169.199 71.0241C169.101 71.448 168.907 71.6099 168.484 71.7176C164.58 72.7077 160.685 73.7233 156.786 74.7279C156.66 74.7515 156.533 74.7665 156.405 74.7728C157.225 73.703 158.091 72.6645 158.851 71.5565C159.624 70.4256 160.271 69.2176 161.002 68.0587C162.05 66.3903 163.108 64.7262 164.196 63.0816C164.541 62.5602 164.989 62.099 165.409 61.6251C165.904 61.0665 166.254 60.4943 165.683 59.7109C165.794 59.7315 165.903 59.7598 166.01 59.7957C167.173 60.3501 168.436 60.5782 169.687 60.8529C171.763 61.3106 173.857 61.6345 175.987 61.7235C178.194 61.8159 179.658 62.9671 180.698 64.7118C181.001 65.2204 181.199 65.7842 181.371 66.3683C181.268 66.2835 181.169 66.1903 181.064 66.1055C180.227 65.4349 178.572 65.585 177.892 66.3929C177.673 66.6285 177.756 66.8718 177.911 67.0838C178.104 67.3491 178.385 67.3881 178.693 67.266C178.93 67.1558 179.156 66.999 179.403 66.949C179.69 66.8922 179.998 66.9286 180.297 66.9253L180.842 67.5305L180.982 67.7628C180.636 67.9442 180.245 68.0782 179.954 68.3206C179.571 68.6377 179.273 69.0472 178.923 69.4024C178.82 69.5196 178.681 69.6026 178.525 69.6397C178.119 69.6914 177.704 69.6965 177.294 69.7194L177.081 69.3125L176.949 69.3583C176.977 69.4837 176.995 69.6109 177.01 69.7389ZM171.005 66.4454H171.761C172.084 66.5395 172.406 66.6379 172.729 66.7269C173.136 66.8396 173.528 66.6794 173.643 66.3598C173.759 66.0402 173.555 65.6596 173.159 65.5299C171.084 64.8517 169.261 65.4019 168.102 67.1872C168.033 67.2932 167.952 67.4288 167.968 67.5382C167.996 67.7179 168.05 67.962 168.183 68.0409C168.316 68.1197 168.568 68.0748 168.75 68.0256C168.86 67.996 168.952 67.8654 169.027 67.7628C169.517 67.0872 170.155 66.6218 171.007 66.4454H171.005Z" fill="#FED7CB"/>
<path d="M179.533 60.1732C179.12 60.1308 178.701 60.1232 178.299 60.0384C176.379 59.6306 174.466 59.1957 172.547 58.7837C171.976 58.6608 171.367 58.6523 170.827 58.4599C170.117 58.2056 169.458 57.8156 168.773 57.4935C167.956 57.1094 167.146 56.7093 166.309 56.3677C165.927 56.2117 165.49 56.1786 165.078 56.0913C164.962 56.0667 164.846 56.0481 164.73 56.0269L164.744 55.876C165.06 55.898 165.394 55.8658 165.686 55.954C166.228 56.1281 166.759 56.3308 167.276 56.561C167.869 56.811 168.451 57.0849 169.037 57.3519C169.225 57.4294 169.407 57.5203 169.581 57.624C170.421 58.1708 171.382 58.331 172.359 58.5048C173.612 58.7278 174.843 59.0711 176.085 59.3314C177.116 59.5467 178.157 59.7146 179.191 59.9079C179.313 59.9364 179.434 59.9712 179.553 60.0121L179.533 60.1732Z" fill="#010101"/>
<path d="M179.969 59.6965C179.497 59.4014 179.051 59.0547 178.549 58.8233C177.74 58.4541 176.911 58.127 176.065 57.8433C174.148 57.199 172.224 56.5773 170.291 55.9782C169.54 55.7451 168.76 55.5942 167.994 55.4026C167.943 55.3899 167.897 55.3551 167.863 55.2534C167.962 55.2653 168.063 55.2704 168.16 55.2907C170.333 55.7527 172.436 56.4326 174.528 57.1473C175.801 57.5822 177.088 57.9891 178.343 58.4774C178.991 58.735 179.553 59.1564 179.969 59.6965Z" fill="#010101"/>
<path d="M178.7 67.2643C178.392 67.3864 178.112 67.3491 177.918 67.082C177.763 66.8701 177.681 66.6268 177.899 66.3911C177.922 67.0413 177.922 67.0413 178.7 67.2643Z" fill="#090808"/>
<path d="M180.853 67.5296L180.309 66.9243C180.648 66.9455 180.854 67.1727 180.853 67.5296Z" fill="#050606"/>
<path d="M180.624 60.2959L181.156 60.8257L181.119 60.869C180.934 60.6994 180.749 60.5299 180.563 60.3603L180.624 60.2959Z" fill="#020303"/>
<path d="M178.377 72.2304L179.873 75.4467C180.26 76.0953 180.651 76.7421 181.031 77.3965C181.145 77.5766 181.234 77.7698 181.297 77.9713C181.416 78.4223 181.265 78.7529 180.834 78.9589C180.249 79.2395 179.61 79.2735 178.971 79.298C178.96 79.2684 178.951 79.2379 178.941 79.2073L179.815 78.8903C180.837 78.5164 180.898 78.3579 180.347 77.4644C179.486 76.0698 178.627 74.6753 178.129 73.1112C178.024 72.3225 177.762 71.5603 177.357 70.8655L177.256 70.345L177.568 70.334C177.838 70.9653 178.108 71.5974 178.377 72.2304Z" fill="#FAB39D"/>
<path d="M154.553 78.5444C156.212 77.8552 158.452 78.8259 158.653 80.4094C158.486 80.2967 158.361 80.2272 158.255 80.1399C157.989 79.9203 157.716 79.7033 157.467 79.4659C156.912 78.9378 155.823 79.3659 155.802 80.1509C155.785 80.3368 155.758 80.5216 155.719 80.7045C155.187 80.206 155.341 79.5117 156.074 78.9471L155.617 78.8216L155.786 78.7224C155.376 78.7224 155.039 78.7301 154.705 78.7139C154.651 78.7148 154.603 78.6046 154.553 78.5444Z" fill="#262525"/>
<path d="M177.637 81.7869C178.268 81.7911 178.9 81.8098 179.531 81.7962C180.162 81.7827 180.754 81.6725 181.246 81.246C181.324 81.1774 181.497 81.2096 181.627 81.1943C181.6 81.3291 181.621 81.5097 181.538 81.5911C181.155 81.9658 180.662 82.137 180.123 82.1947L179.058 82.087C179.058 82.1158 179.058 82.1438 179.051 82.1718L179.791 82.2133H177.883L178.621 82.1718C178.621 82.1438 178.621 82.115 178.621 82.087L177.379 82.1913L176.592 81.9412C176.747 81.9141 176.9 81.8844 177.055 81.8624C177.247 81.8378 177.442 81.8115 177.637 81.7869ZM179.678 81.9251V81.8912H178.087V81.9251H179.678Z" fill="#252525"/>
<path d="M154.554 78.5435C154.604 78.6036 154.651 78.713 154.703 78.713C155.038 78.7291 155.374 78.7215 155.784 78.7215L155.615 78.8207H154.338L154.305 78.674L154.554 78.5435Z" fill="#040404"/>
<path d="M177.637 81.7869C177.442 81.8115 177.246 81.8336 177.052 81.8624C176.898 81.8844 176.744 81.9141 176.59 81.9412C176.513 81.692 176.714 81.7301 176.845 81.7335C177.109 81.7395 177.372 81.7674 177.637 81.7869Z" fill="#020202"/>
<path d="M177.378 82.1917L178.62 82.0874C178.62 82.1162 178.62 82.145 178.62 82.1722L177.882 82.2137L177.378 82.1917Z" fill="#070808"/>
<path d="M179.794 82.2149L179.05 82.1775C179.05 82.1487 179.056 82.1207 179.057 82.0928L180.122 82.2004L179.794 82.2149Z" fill="#070808"/>
<path d="M177.099 74.034C177.073 74.8503 176.877 75.6201 176.353 76.2881C175.643 77.1986 175.149 77.3512 173.924 77.1359C172.509 76.8909 171.528 76.0134 170.827 74.8664C170.092 73.6567 169.772 72.341 170.221 70.9668C170.408 70.4363 170.692 69.9415 171.06 69.5053C171.621 68.8203 172.439 68.8271 173.249 68.9882C174.307 69.195 175.14 69.7681 175.804 70.554C176.649 71.5332 177.107 72.7648 177.099 74.034ZM171.74 73.1913C171.74 73.3183 171.767 73.4441 171.818 73.5611C171.87 73.6782 171.946 73.7843 172.041 73.8731C172.136 73.962 172.248 74.0318 172.372 74.0785C172.495 74.1252 172.628 74.1479 172.761 74.1452C172.893 74.1425 173.024 74.1144 173.146 74.0627C173.267 74.011 173.377 73.9367 173.468 73.844C173.559 73.7514 173.629 73.6424 173.676 73.5233C173.722 73.4042 173.743 73.2775 173.737 73.1506C173.715 72.636 173.248 72.1918 172.737 72.1977C172.468 72.2074 172.214 72.3165 172.028 72.5019C171.842 72.6873 171.739 72.9345 171.74 73.1913Z" fill="#FED7CB"/>
<path d="M183.228 76.278C181.821 76.0033 180.875 75.1394 180.197 74.0035C179.487 72.8166 179.221 71.5357 179.603 70.1784C179.802 69.4773 180.178 68.8797 180.798 68.4524C180.955 68.3379 181.14 68.2624 181.336 68.2328C181.532 68.2032 181.732 68.2204 181.919 68.2829L182.806 73.2193C183.001 74.1467 183.201 75.0725 183.381 76.0024C183.399 76.0813 183.282 76.1847 183.228 76.278ZM180.76 72.2741C180.857 72.5666 180.969 72.8541 181.097 73.1354C181.196 73.3329 181.352 73.5364 181.645 73.4482C181.938 73.36 182.141 73.2142 182.14 72.8887C182.156 72.4641 182.014 72.048 181.738 71.7145C181.691 71.6521 181.629 71.6017 181.557 71.5679C181.485 71.5341 181.405 71.518 181.324 71.5209C181.244 71.5239 181.166 71.5458 181.096 71.5848C181.027 71.6237 180.969 71.6785 180.927 71.7442C180.837 71.8748 180.826 72.057 180.76 72.2741Z" fill="#FED7CB"/>
<path d="M183.226 76.2778C183.28 76.1845 183.395 76.0811 183.379 76.0005C183.201 75.068 182.998 74.1448 182.804 73.2174L182.908 72.8783L185.804 71.1904C185.922 71.6355 186.07 72.017 186.119 72.4095C186.269 73.5073 186.182 74.5679 185.453 75.4995C185.02 76.0523 184.503 76.4125 183.733 76.2964C183.564 76.2808 183.395 76.2746 183.226 76.2778Z" fill="#E9E9E9"/>
<path d="M183.063 68.4766C184.006 68.8877 184.769 69.4896 185.321 70.3993L183 71.7099L183.063 68.4766Z" fill="#E9E9E9"/>
<path d="M183.062 68.476L182.999 71.7093C182.969 72.1004 182.939 72.4906 182.91 72.88L182.807 73.2191L181.919 68.2827L183.062 68.476Z" fill="#272726"/>
<path d="M178.377 72.2306C178.107 71.5971 177.838 70.9638 177.569 70.3309L178.524 70.1978C178.473 70.9022 178.429 71.5686 178.377 72.2306Z" fill="#F5C8C5"/>
<path d="M177.257 70.3423L177.358 70.8628L176.937 70.3423H177.257Z" fill="#C2B399"/>
<path d="M177.01 69.7391C176.992 69.6111 176.974 69.4848 176.958 69.3568L177.089 69.311L177.302 69.718L177.01 69.7391Z" fill="#FAB39D"/>
<path d="M171.008 66.4458C170.155 66.6221 169.517 67.0901 169.027 67.7649C168.952 67.8674 168.86 67.998 168.75 68.0277C168.572 68.0768 168.315 68.126 168.183 68.0429C168.051 67.9599 167.996 67.7199 167.968 67.5402C167.951 67.4309 168.033 67.2952 168.101 67.1893C169.264 65.4039 171.087 64.852 173.159 65.5319C173.554 65.6616 173.757 66.0473 173.643 66.3619C173.529 66.6764 173.135 66.8417 172.729 66.7289C172.405 66.6442 172.084 66.5416 171.761 66.4475C171.771 66.4374 171.779 66.4256 171.785 66.4127C171.788 66.4008 171.788 66.3882 171.785 66.3763C171.496 66.3669 171.207 66.3593 170.918 66.3517L171.008 66.4458Z" fill="#262626"/>
<path d="M171.007 66.4457L170.918 66.3516C171.208 66.3592 171.496 66.3668 171.785 66.3761C171.788 66.3881 171.788 66.4006 171.785 66.4126C171.78 66.4255 171.772 66.4373 171.761 66.4474L171.007 66.4457Z" fill="#010101"/>
<path d="M178.882 81.9322C179.503 81.9322 180.007 81.9216 180.007 81.9085C180.007 81.8954 179.503 81.8848 178.882 81.8848C178.261 81.8848 177.757 81.8954 177.757 81.9085C177.757 81.9216 178.261 81.9322 178.882 81.9322Z" fill="#070808"/>
<path d="M171.74 73.1919C171.738 72.9351 171.842 72.6879 172.028 72.5025C172.213 72.317 172.468 72.208 172.736 72.1983C173.247 72.1924 173.712 72.6366 173.737 73.1512C173.743 73.2781 173.722 73.4048 173.675 73.5239C173.629 73.6429 173.558 73.752 173.467 73.8446C173.376 73.9372 173.267 74.0116 173.145 74.0633C173.024 74.115 172.893 74.143 172.76 74.1457C172.627 74.1484 172.495 74.1258 172.371 74.0791C172.248 74.0323 172.135 73.9625 172.04 73.8737C171.945 73.7849 171.87 73.6788 171.818 73.5617C171.766 73.4446 171.74 73.3189 171.74 73.1919Z" fill="#010101"/>
<path d="M180.76 72.274C180.825 72.057 180.836 71.8747 180.927 71.7442C180.968 71.6785 181.026 71.6237 181.096 71.5847C181.165 71.5457 181.243 71.5238 181.324 71.5208C181.404 71.5179 181.484 71.5341 181.556 71.5679C181.628 71.6016 181.691 71.652 181.738 71.7145C182.013 72.0479 182.155 72.4641 182.139 72.8886C182.139 73.2141 181.926 73.3633 181.644 73.4481C181.363 73.5329 181.195 73.3328 181.096 73.1353C180.968 72.854 180.856 72.5665 180.76 72.274Z" fill="#010101"/>
<path d="M197.952 69.9019C199.01 68.1673 200.069 66.4294 201.129 64.6881C201.269 64.4585 201.409 64.2273 201.548 63.9957C201.848 63.4983 202.149 62.999 202.463 62.5098C202.66 62.2048 202.651 61.9851 202.417 61.683C200.461 59.2157 199.21 56.3053 198.785 53.2371C197.976 47.3107 199.622 42.0405 203.916 37.6766C208.541 32.9759 214.325 31.0737 221.013 31.8485C229.407 32.8213 236.417 39.43 237.789 47.3772C239.453 57.0618 233.162 66.2579 223.514 68.7195C217.774 70.1852 212.387 69.3208 207.403 66.2376C206.989 65.9804 206.704 65.9486 206.26 66.1668C204.241 67.1312 202.217 68.0717 200.193 69.0125C199.486 69.3409 198.779 69.6693 198.073 69.9988L197.952 69.9019ZM211.003 45.0471C211.341 44.9738 211.673 44.8802 211.998 44.7666C212.21 44.6769 212.417 44.5714 212.625 44.4657C212.863 44.3448 213.101 44.2235 213.348 44.1248C214.808 43.5467 216.301 43.2041 217.905 43.5134C219.063 43.7375 219.911 44.4067 220.06 45.3578C220.275 46.7556 219.825 47.9076 218.66 48.8111C217.619 49.6162 216.422 50.0932 215.148 50.4112C214.729 50.5153 214.586 50.7003 214.593 51.1151C214.606 51.8368 214.604 52.5588 214.603 53.2811C214.601 53.8349 214.6 54.3888 214.605 54.9427C214.617 55.0717 214.641 55.1993 214.676 55.3243H219.874C219.874 55.084 219.879 54.8488 219.885 54.6174C219.897 54.1003 219.908 53.6027 219.857 53.1113C219.783 52.4002 220.026 52.0373 220.725 51.7714C222.096 51.2714 223.333 50.4875 224.348 49.476C226.284 47.5116 226.92 43.2229 223.968 41.1689C223.08 40.5413 222.075 40.0803 221.007 39.8101C217.757 39.0426 214.566 39.5687 211.436 40.5329C211.263 40.5863 211.026 40.806 211.023 40.952C210.997 41.9675 210.999 42.9846 211.001 44.0658C211.002 44.3867 211.003 44.7132 211.003 45.0471ZM220.184 60.9747V57.2887H214.242V60.9747H220.184Z" fill="#29D305"/>
<path d="M197.952 69.9019C199.01 68.1673 200.069 66.4294 201.129 64.6881C201.269 64.4585 201.409 64.2273 201.548 63.9957C201.848 63.4983 202.149 62.999 202.463 62.5098C202.66 62.2048 202.651 61.9851 202.417 61.683C200.461 59.2157 199.21 56.3053 198.785 53.2371C197.976 47.3107 199.622 42.0405 203.916 37.6766C208.541 32.9759 214.325 31.0737 221.013 31.8485C229.407 32.8213 236.417 39.43 237.789 47.3772C239.453 57.0618 233.162 66.2579 223.514 68.7195C217.774 70.1852 212.387 69.3208 207.403 66.2376C206.989 65.9804 206.704 65.9486 206.26 66.1668C204.241 67.1312 202.217 68.0717 200.193 69.0125C199.486 69.3409 198.779 69.6693 198.073 69.9988L197.952 69.9019ZM211.003 45.0471C211.341 44.9738 211.673 44.8802 211.998 44.7666C212.21 44.6769 212.417 44.5714 212.625 44.4657C212.863 44.3448 213.101 44.2235 213.348 44.1248C214.808 43.5467 216.301 43.2041 217.905 43.5134C219.063 43.7375 219.911 44.4067 220.06 45.3578C220.275 46.7556 219.825 47.9076 218.66 48.8111C217.619 49.6162 216.422 50.0932 215.148 50.4112C214.729 50.5153 214.586 50.7003 214.593 51.1151C214.606 51.8368 214.604 52.5588 214.603 53.2811C214.601 53.8349 214.6 54.3888 214.605 54.9427C214.617 55.0717 214.641 55.1993 214.676 55.3243H219.874C219.874 55.084 219.879 54.8488 219.885 54.6174C219.897 54.1003 219.908 53.6027 219.857 53.1113C219.783 52.4002 220.026 52.0373 220.725 51.7714C222.096 51.2714 223.333 50.4875 224.348 49.476C226.284 47.5116 226.92 43.2229 223.968 41.1689C223.08 40.5413 222.075 40.0803 221.007 39.8101C217.757 39.0426 214.566 39.5687 211.436 40.5329C211.263 40.5863 211.026 40.806 211.023 40.952C210.997 41.9675 210.999 42.9846 211.001 44.0658C211.002 44.3867 211.003 44.7132 211.003 45.0471ZM220.184 60.9747V57.2887H214.242V60.9747H220.184Z" stroke="#29D305"/>
<path d="M241 33.6821L137.557 117.041" stroke="#EE0701" stroke-width="3" stroke-linecap="round" stroke-linejoin="round"/>
<defs>
<clipPath id="clip0">
<rect width="12.5951" height="12.5951" fill="white"/>
</clipPath>
<clipPath id="clip1">
<rect width="12.5951" height="12.5951" fill="white" transform="translate(135.848)"/>
</clipPath>
<clipPath id="clip2">
<rect width="114.19" height="99.1956" fill="white" transform="translate(0 27.1167)"/>
</clipPath>
</defs>
</svg>
