<svg width="732" height="248" viewBox="0 0 732 248" fill="none" xmlns="http://www.w3.org/2000/svg">
<rect y="0.497559" width="732" height="247.502" fill="white"/>
<path d="M410.91 100.196H409.91V101.196H410.91V100.196ZM410.91 61.6963V60.6963H409.91V61.6963H410.91ZM440.5 61.6963H441.5V60.6963H440.5V61.6963ZM440.5 68.6263V69.6263H441.5V68.6263H440.5ZM418.885 68.6263V67.6263H417.885V68.6263H418.885ZM418.885 77.4263H417.885V78.4263H418.885V77.4263ZM433.13 77.4263H434.13V76.4263H433.13V77.4263ZM433.13 84.1363V85.1363H434.13V84.1363H433.13ZM418.885 84.1363V83.1363H417.885V84.1363H418.885ZM418.885 93.2663H417.885V94.2663H418.885V93.2663ZM440.72 93.2663H441.72V92.2663H440.72V93.2663ZM440.72 100.196V101.196H441.72V100.196H440.72ZM411.91 100.196V61.6963H409.91V100.196H411.91ZM410.91 62.6963H440.5V60.6963H410.91V62.6963ZM439.5 61.6963V68.6263H441.5V61.6963H439.5ZM440.5 67.6263H418.885V69.6263H440.5V67.6263ZM417.885 68.6263V77.4263H419.885V68.6263H417.885ZM418.885 78.4263H433.13V76.4263H418.885V78.4263ZM432.13 77.4263V84.1363H434.13V77.4263H432.13ZM433.13 83.1363H418.885V85.1363H433.13V83.1363ZM417.885 84.1363V93.2663H419.885V84.1363H417.885ZM418.885 94.2663H440.72V92.2663H418.885V94.2663ZM439.72 93.2663V100.196H441.72V93.2663H439.72ZM440.72 99.1963H410.91V101.196H440.72V99.1963ZM451.359 61.6963V60.6963H450.359V61.6963H451.359ZM458.949 61.6963L459.742 61.0871L459.442 60.6963H458.949V61.6963ZM478.089 86.6113L477.296 87.2205L479.089 89.5545V86.6113H478.089ZM478.089 61.6963V60.6963H477.089V61.6963H478.089ZM485.569 61.6963H486.569V60.6963H485.569V61.6963ZM485.569 100.196V101.196H486.569V100.196H485.569ZM478.529 100.196L477.734 100.803L478.034 101.196H478.529V100.196ZM458.894 74.4563L459.689 73.8498L457.894 71.4966V74.4563H458.894ZM458.894 100.196V101.196H459.894V100.196H458.894ZM451.359 100.196H450.359V101.196H451.359V100.196ZM451.359 62.6963H458.949V60.6963H451.359V62.6963ZM458.156 62.3055L477.296 87.2205L478.882 86.0021L459.742 61.0871L458.156 62.3055ZM479.089 86.6113V61.6963H477.089V86.6113H479.089ZM478.089 62.6963H485.569V60.6963H478.089V62.6963ZM484.569 61.6963V100.196H486.569V61.6963H484.569ZM485.569 99.1963H478.529V101.196H485.569V99.1963ZM479.324 99.5898L459.689 73.8498L458.099 75.0628L477.734 100.803L479.324 99.5898ZM457.894 74.4563V100.196H459.894V74.4563H457.894ZM458.894 99.1963H451.359V101.196H458.894V99.1963ZM452.359 100.196V61.6963H450.359V100.196H452.359ZM497.555 100.196H496.555V101.196H497.555V100.196ZM497.555 61.6963V60.6963H496.555V61.6963H497.555ZM527.145 61.6963H528.145V60.6963H527.145V61.6963ZM527.145 68.6263V69.6263H528.145V68.6263H527.145ZM505.53 68.6263V67.6263H504.53V68.6263H505.53ZM505.53 77.4263H504.53V78.4263H505.53V77.4263ZM519.775 77.4263H520.775V76.4263H519.775V77.4263ZM519.775 84.1363V85.1363H520.775V84.1363H519.775ZM505.53 84.1363V83.1363H504.53V84.1363H505.53ZM505.53 93.2663H504.53V94.2663H505.53V93.2663ZM527.365 93.2663H528.365V92.2663H527.365V93.2663ZM527.365 100.196V101.196H528.365V100.196H527.365ZM498.555 100.196V61.6963H496.555V100.196H498.555ZM497.555 62.6963H527.145V60.6963H497.555V62.6963ZM526.145 61.6963V68.6263H528.145V61.6963H526.145ZM527.145 67.6263H505.53V69.6263H527.145V67.6263ZM504.53 68.6263V77.4263H506.53V68.6263H504.53ZM505.53 78.4263H519.775V76.4263H505.53V78.4263ZM518.775 77.4263V84.1363H520.775V77.4263H518.775ZM519.775 83.1363H505.53V85.1363H519.775V83.1363ZM504.53 84.1363V93.2663H506.53V84.1363H504.53ZM505.53 94.2663H527.365V92.2663H505.53V94.2663ZM526.365 93.2663V100.196H528.365V93.2663H526.365ZM527.365 99.1963H497.555V101.196H527.365V99.1963ZM538.005 100.196H537.005V101.196H538.005V100.196ZM538.005 61.6963V60.6963H537.005V61.6963H538.005ZM562.15 62.5763L561.808 63.5161L561.815 63.5185L562.15 62.5763ZM566.385 65.0513L565.713 65.7923L565.719 65.7981L565.726 65.8039L566.385 65.0513ZM569.135 68.7913L570.046 68.3809L569.135 68.7913ZM568.035 80.1213L567.227 79.5312L567.22 79.5415L568.035 80.1213ZM562.59 84.3563L562.216 83.4288L561.18 83.8466L561.709 84.8302L562.59 84.3563ZM571.115 100.196V101.196H572.788L571.995 99.7224L571.115 100.196ZM562.205 100.196L561.314 100.651L561.593 101.196H562.205V100.196ZM554.67 85.4563L555.56 85.0011L555.281 84.4563H554.67V85.4563ZM545.98 85.4563V84.4563H544.98V85.4563H545.98ZM545.98 100.196V101.196H546.98V100.196H545.98ZM545.98 68.5713V67.5713H544.98V68.5713H545.98ZM545.98 78.9113H544.98V79.9113H545.98V78.9113ZM560.39 77.4813L559.735 76.7256L559.728 76.7311L559.722 76.7367L560.39 77.4813ZM560.39 70.0013L559.722 70.7459L559.728 70.7515L559.735 70.757L560.39 70.0013ZM539.005 100.196V61.6963H537.005V100.196H539.005ZM538.005 62.6963H556.815V60.6963H538.005V62.6963ZM556.815 62.6963C558.657 62.6963 560.317 62.9741 561.808 63.5161L562.491 61.6365C560.755 61.0051 558.859 60.6963 556.815 60.6963V62.6963ZM561.815 63.5185C563.353 64.0657 564.647 64.8265 565.713 65.7923L567.056 64.3103C565.775 63.1494 564.246 62.2603 562.485 61.6341L561.815 63.5185ZM565.726 65.8039C566.788 66.733 567.62 67.8617 568.223 69.2017L570.046 68.3809C569.329 66.7876 568.328 65.423 567.043 64.2987L565.726 65.8039ZM568.223 69.2017C568.819 70.5276 569.125 71.9993 569.125 73.6313H571.125C571.125 71.7433 570.77 69.9884 570.046 68.3809L568.223 69.2017ZM569.125 73.6313C569.125 75.8448 568.492 77.8004 567.227 79.5313L568.842 80.7113C570.364 78.6289 571.125 76.2578 571.125 73.6313H569.125ZM567.22 79.5415C565.979 81.285 564.321 82.58 562.216 83.4288L562.964 85.2837C565.405 84.2992 567.377 82.7709 568.849 80.701L567.22 79.5415ZM561.709 84.8302L570.234 100.67L571.995 99.7224L563.47 83.8824L561.709 84.8302ZM571.115 99.1963H562.205V101.196H571.115V99.1963ZM563.095 99.7411L555.56 85.0011L553.779 85.9115L561.314 100.651L563.095 99.7411ZM554.67 84.4563H545.98V86.4563H554.67V84.4563ZM544.98 85.4563V100.196H546.98V85.4563H544.98ZM545.98 99.1963H538.005V101.196H545.98V99.1963ZM556.1 67.5713H545.98V69.5713H556.1V67.5713ZM544.98 68.5713V78.9113H546.98V68.5713H544.98ZM545.98 79.9113H556.1V77.9113H545.98V79.9113ZM556.1 79.9113C558.077 79.9113 559.767 79.3829 561.057 78.2259L559.722 76.7367C558.886 77.4863 557.716 77.9113 556.1 77.9113V79.9113ZM561.044 78.237C562.378 77.0815 563.04 75.5522 563.04 73.7413H561.04C561.04 75.0104 560.601 75.9744 559.735 76.7256L561.044 78.237ZM563.04 73.7413C563.04 71.9304 562.378 70.401 561.044 69.2456L559.735 70.757C560.601 71.5082 561.04 72.4722 561.04 73.7413H563.04ZM561.057 69.2567C559.767 68.0997 558.077 67.5713 556.1 67.5713V69.5713C557.716 69.5713 558.886 69.9963 559.722 70.7459L561.057 69.2567ZM617.074 88.9213L616.146 88.5475L616.143 88.5548L617.074 88.9213ZM613.059 95.1913L612.344 94.4917L612.344 94.4918L613.059 95.1913ZM606.954 99.3163L607.337 100.24L607.349 100.235L606.954 99.3163ZM591.224 99.2613L590.843 100.186L591.224 99.2613ZM584.734 95.0813L584.027 95.7884L584.034 95.7956L584.041 95.8027L584.734 95.0813ZM580.444 88.7563L579.528 89.1586L580.444 88.7563ZM580.389 73.1363L579.473 72.734L579.468 72.7457L580.389 73.1363ZM584.679 66.8663L585.378 67.5806L585.379 67.5805L584.679 66.8663ZM591.169 62.6313L591.549 63.556L591.169 62.6313ZM608.164 63.0163L608.577 62.1059V62.1059L608.164 63.0163ZM615.149 68.2963L615.826 69.0319L616.52 68.3925L615.922 67.6624L615.149 68.2963ZM609.594 73.4113L608.828 74.0549L609.502 74.8555L610.271 74.1469L609.594 73.4113ZM604.864 69.7263L604.416 70.6207L604.428 70.6263L604.439 70.6315L604.864 69.7263ZM594.304 69.3963L594.695 70.3167L594.706 70.3119L594.304 69.3963ZM590.454 72.0363L589.735 71.3409L589.735 71.3413L590.454 72.0363ZM587.924 75.9963L586.997 75.6211L586.992 75.6327L587.924 75.9963ZM587.979 85.9513L587.052 86.3265L587.979 85.9513ZM590.564 89.9663L589.845 90.6617L589.851 90.6676L589.857 90.6734L590.564 89.9663ZM594.469 92.6063L594.067 93.5219L594.08 93.5278L594.093 93.5332L594.469 92.6063ZM606.349 91.2863L605.744 90.4898L605.737 90.4953L606.349 91.2863ZM610.034 85.5113L611.014 85.7103L611.257 84.5113H610.034V85.5113ZM598.649 85.5113H597.649V86.5113H598.649V85.5113ZM598.649 78.5813V77.5813H597.649V78.5813H598.649ZM618.559 78.5813H619.559V77.5813H618.559V78.5813ZM617.559 81.0013C617.559 83.7051 617.085 86.2173 616.146 88.5475L618.001 89.2951C619.042 86.7119 619.559 83.9442 619.559 81.0013H617.559ZM616.143 88.5548C615.236 90.8575 613.969 92.8324 612.344 94.4917L613.773 95.8909C615.595 94.0301 617.005 91.8251 618.004 89.2878L616.143 88.5548ZM612.344 94.4918C610.755 96.1152 608.831 97.4188 606.558 98.3979L607.349 100.235C609.843 99.1605 611.989 97.714 613.773 95.8908L612.344 94.4918ZM606.57 98.3928C604.316 99.329 601.881 99.8013 599.254 99.8013V101.801C602.127 101.801 604.825 101.284 607.337 100.24L606.57 98.3928ZM599.254 99.8013C596.516 99.8013 593.97 99.3106 591.604 98.3366L590.843 100.186C593.464 101.265 596.271 101.801 599.254 101.801V99.8013ZM591.604 98.3366C589.22 97.3547 587.164 96.028 585.426 94.3599L584.041 95.8027C585.97 97.6545 588.241 99.1146 590.843 100.186L591.604 98.3366ZM585.441 94.3742C583.735 92.6688 582.375 90.665 581.359 88.354L579.528 89.1586C580.639 91.6876 582.139 93.9004 584.027 95.7884L585.441 94.3742ZM581.359 88.354C580.355 86.0676 579.849 83.6021 579.849 80.9463H577.849C577.849 83.8638 578.406 86.6049 579.528 89.1586L581.359 88.354ZM579.849 80.9463C579.849 78.2856 580.338 75.816 581.309 73.5268L579.468 72.7457C578.386 75.2966 577.849 78.0336 577.849 80.9463H579.849ZM581.304 73.5386C582.319 71.2294 583.678 69.2468 585.378 67.5806L583.979 66.1519C582.086 68.0057 580.585 70.2032 579.473 72.734L581.304 73.5386ZM585.379 67.5805C587.115 65.8784 589.169 64.5362 591.549 63.556L590.788 61.7066C588.182 62.7797 585.909 64.2609 583.979 66.1521L585.379 67.5805ZM591.549 63.556C593.916 62.5814 596.445 62.0913 599.144 62.0913V60.0913C596.196 60.0913 593.408 60.6279 590.788 61.7066L591.549 63.556ZM599.144 62.0913C602.195 62.0913 605.06 62.7041 607.75 63.9267L608.577 62.1059C605.62 60.7618 602.472 60.0913 599.144 60.0913V62.0913ZM607.75 63.9267C610.444 65.1513 612.646 66.8205 614.375 68.9302L615.922 67.6624C613.985 65.2988 611.53 63.448 608.577 62.1059L607.75 63.9267ZM614.471 67.5606L608.916 72.6756L610.271 74.1469L615.826 69.0319L614.471 67.5606ZM610.359 72.7677C608.915 71.0505 607.224 69.7297 605.289 68.8211L604.439 70.6315C606.096 71.4095 607.559 72.5454 608.828 74.0549L610.359 72.7677ZM605.311 68.8319C603.406 67.8794 601.345 67.4063 599.144 67.4063V69.4063C601.049 69.4063 602.801 69.8132 604.416 70.6207L605.311 68.8319ZM599.144 67.4063C597.289 67.4063 595.538 67.7623 593.902 68.4806L594.706 70.3119C596.076 69.7103 597.552 69.4063 599.144 69.4063V67.4063ZM593.913 68.476C592.324 69.1512 590.929 70.1073 589.735 71.3409L591.172 72.7317C592.179 71.6919 593.35 70.888 594.695 70.3166L593.913 68.476ZM589.735 71.3413C588.575 72.5412 587.664 73.9724 586.997 75.6211L588.851 76.3715C589.43 74.9402 590.206 73.7314 591.173 72.7313L589.735 71.3413ZM586.992 75.6327C586.355 77.2644 586.044 79.0393 586.044 80.9463H588.044C588.044 79.2599 588.319 77.7349 588.855 76.3598L586.992 75.6327ZM586.044 80.9463C586.044 82.861 586.376 84.6579 587.052 86.3265L588.906 85.5761C588.334 84.1647 588.044 82.6249 588.044 80.9463H586.044ZM587.052 86.3265C587.721 87.9795 588.651 89.4281 589.845 90.6617L591.282 89.2709C590.276 88.2312 589.483 87.003 588.906 85.5761L587.052 86.3265ZM589.857 90.6734C591.049 91.8661 592.456 92.8148 594.067 93.5219L594.871 91.6906C593.475 91.0778 592.278 90.2665 591.271 89.2592L589.857 90.6734ZM594.093 93.5332C595.757 94.2066 597.517 94.5413 599.364 94.5413V92.5413C597.764 92.5413 596.26 92.2526 594.844 91.6793L594.093 93.5332ZM599.364 94.5413C602.274 94.5413 604.824 93.7303 606.961 92.0772L605.737 90.4953C603.987 91.8489 601.88 92.5413 599.364 92.5413V94.5413ZM606.953 92.0827C609.119 90.4386 610.487 88.3049 611.014 85.7103L609.054 85.3122C608.627 87.411 607.539 89.1273 605.744 90.4898L606.953 92.0827ZM610.034 84.5113H598.649V86.5113H610.034V84.5113ZM599.649 85.5113V78.5813H597.649V85.5113H599.649ZM598.649 79.5813H618.559V77.5813H598.649V79.5813ZM617.559 78.5813V81.0013H619.559V78.5813H617.559ZM637.122 100.196H636.122V101.196H637.122V100.196ZM637.122 85.4563H638.122V85.1553L637.956 84.9043L637.122 85.4563ZM621.392 61.6963V60.6963H619.531L620.558 62.2483L621.392 61.6963ZM630.577 61.6963L631.418 61.1544L631.122 60.6963H630.577V61.6963ZM641.357 78.4163L640.517 78.9582L641.355 80.2584L642.196 78.9601L641.357 78.4163ZM652.192 61.6963V60.6963H651.649L651.353 61.1525L652.192 61.6963ZM660.882 61.6963L661.716 62.2488L662.745 60.6963H660.882V61.6963ZM645.097 85.5113L644.264 84.9588L644.097 85.21V85.5113H645.097ZM645.097 100.196V101.196H646.097V100.196H645.097ZM638.122 100.196V85.4563H636.122V100.196H638.122ZM637.956 84.9043L622.226 61.1443L620.558 62.2483L636.288 86.0083L637.956 84.9043ZM621.392 62.6963H630.577V60.6963H621.392V62.6963ZM629.737 62.2382L640.517 78.9582L642.198 77.8744L631.418 61.1544L629.737 62.2382ZM642.196 78.9601L653.031 62.2401L651.353 61.1525L640.518 77.8725L642.196 78.9601ZM652.192 62.6963H660.882V60.6963H652.192V62.6963ZM660.049 61.1438L644.264 84.9588L645.931 86.0638L661.716 62.2488L660.049 61.1438ZM644.097 85.5113V100.196H646.097V85.5113H644.097ZM645.097 99.1963H637.122V101.196H645.097V99.1963Z" fill="black"/>
<path d="M31.4845 100.196H30.4845V101.196H31.4845V100.196ZM31.4845 61.6963V60.6963H30.4845V61.6963H31.4845ZM61.0745 61.6963H62.0745V60.6963H61.0745V61.6963ZM61.0745 68.6263V69.6263H62.0745V68.6263H61.0745ZM39.4595 68.6263V67.6263H38.4595V68.6263H39.4595ZM39.4595 77.4263H38.4595V78.4263H39.4595V77.4263ZM53.7045 77.4263H54.7045V76.4263H53.7045V77.4263ZM53.7045 84.1363V85.1363H54.7045V84.1363H53.7045ZM39.4595 84.1363V83.1363H38.4595V84.1363H39.4595ZM39.4595 93.2663H38.4595V94.2663H39.4595V93.2663ZM61.2945 93.2663H62.2945V92.2663H61.2945V93.2663ZM61.2945 100.196V101.196H62.2945V100.196H61.2945ZM32.4845 100.196V61.6963H30.4845V100.196H32.4845ZM31.4845 62.6963H61.0745V60.6963H31.4845V62.6963ZM60.0745 61.6963V68.6263H62.0745V61.6963H60.0745ZM61.0745 67.6263H39.4595V69.6263H61.0745V67.6263ZM38.4595 68.6263V77.4263H40.4595V68.6263H38.4595ZM39.4595 78.4263H53.7045V76.4263H39.4595V78.4263ZM52.7045 77.4263V84.1363H54.7045V77.4263H52.7045ZM53.7045 83.1363H39.4595V85.1363H53.7045V83.1363ZM38.4595 84.1363V93.2663H40.4595V84.1363H38.4595ZM39.4595 94.2663H61.2945V92.2663H39.4595V94.2663ZM60.2945 93.2663V100.196H62.2945V93.2663H60.2945ZM61.2945 99.1963H31.4845V101.196H61.2945V99.1963ZM71.9338 61.6963V60.6963H70.9338V61.6963H71.9338ZM79.5238 61.6963L80.3168 61.0871L80.0165 60.6963H79.5238V61.6963ZM98.6637 86.6113L97.8707 87.2205L99.6637 89.5545V86.6113H98.6637ZM98.6637 61.6963V60.6963H97.6637V61.6963H98.6637ZM106.144 61.6963H107.144V60.6963H106.144V61.6963ZM106.144 100.196V101.196H107.144V100.196H106.144ZM99.1038 100.196L98.3087 100.803L98.6088 101.196H99.1038V100.196ZM79.4688 74.4563L80.2638 73.8498L78.4688 71.4966V74.4563H79.4688ZM79.4688 100.196V101.196H80.4688V100.196H79.4688ZM71.9338 100.196H70.9338V101.196H71.9338V100.196ZM71.9338 62.6963H79.5238V60.6963H71.9338V62.6963ZM78.7307 62.3055L97.8707 87.2205L99.4568 86.0021L80.3168 61.0871L78.7307 62.3055ZM99.6637 86.6113V61.6963H97.6637V86.6113H99.6637ZM98.6637 62.6963H106.144V60.6963H98.6637V62.6963ZM105.144 61.6963V100.196H107.144V61.6963H105.144ZM106.144 99.1963H99.1038V101.196H106.144V99.1963ZM99.8988 99.5898L80.2638 73.8498L78.6737 75.0628L98.3087 100.803L99.8988 99.5898ZM78.4688 74.4563V100.196H80.4688V74.4563H78.4688ZM79.4688 99.1963H71.9338V101.196H79.4688V99.1963ZM72.9338 100.196V61.6963H70.9338V100.196H72.9338ZM118.13 100.196H117.13V101.196H118.13V100.196ZM118.13 61.6963V60.6963H117.13V61.6963H118.13ZM147.72 61.6963H148.72V60.6963H147.72V61.6963ZM147.72 68.6263V69.6263H148.72V68.6263H147.72ZM126.105 68.6263V67.6263H125.105V68.6263H126.105ZM126.105 77.4263H125.105V78.4263H126.105V77.4263ZM140.35 77.4263H141.35V76.4263H140.35V77.4263ZM140.35 84.1363V85.1363H141.35V84.1363H140.35ZM126.105 84.1363V83.1363H125.105V84.1363H126.105ZM126.105 93.2663H125.105V94.2663H126.105V93.2663ZM147.94 93.2663H148.94V92.2663H147.94V93.2663ZM147.94 100.196V101.196H148.94V100.196H147.94ZM119.13 100.196V61.6963H117.13V100.196H119.13ZM118.13 62.6963H147.72V60.6963H118.13V62.6963ZM146.72 61.6963V68.6263H148.72V61.6963H146.72ZM147.72 67.6263H126.105V69.6263H147.72V67.6263ZM125.105 68.6263V77.4263H127.105V68.6263H125.105ZM126.105 78.4263H140.35V76.4263H126.105V78.4263ZM139.35 77.4263V84.1363H141.35V77.4263H139.35ZM140.35 83.1363H126.105V85.1363H140.35V83.1363ZM125.105 84.1363V93.2663H127.105V84.1363H125.105ZM126.105 94.2663H147.94V92.2663H126.105V94.2663ZM146.94 93.2663V100.196H148.94V93.2663H146.94ZM147.94 99.1963H118.13V101.196H147.94V99.1963ZM158.579 100.196H157.579V101.196H158.579V100.196ZM158.579 61.6963V60.6963H157.579V61.6963H158.579ZM182.724 62.5763L182.383 63.5161L182.389 63.5185L182.724 62.5763ZM186.959 65.0513L186.288 65.7923L186.294 65.7981L186.301 65.8039L186.959 65.0513ZM189.709 68.7913L190.621 68.3809L189.709 68.7913ZM188.609 80.1213L187.802 79.5312L187.794 79.5415L188.609 80.1213ZM183.164 84.3563L182.79 83.4288L181.754 83.8466L182.284 84.8302L183.164 84.3563ZM191.689 100.196V101.196H193.363L192.57 99.7224L191.689 100.196ZM182.779 100.196L181.889 100.651L182.167 101.196H182.779V100.196ZM175.244 85.4563L176.135 85.0011L175.856 84.4563H175.244V85.4563ZM166.554 85.4563V84.4563H165.554V85.4563H166.554ZM166.554 100.196V101.196H167.554V100.196H166.554ZM166.554 68.5713V67.5713H165.554V68.5713H166.554ZM166.554 78.9113H165.554V79.9113H166.554V78.9113ZM180.964 77.4813L180.309 76.7256L180.303 76.7311L180.297 76.7367L180.964 77.4813ZM180.964 70.0013L180.297 70.7459L180.303 70.7515L180.309 70.757L180.964 70.0013ZM159.579 100.196V61.6963H157.579V100.196H159.579ZM158.579 62.6963H177.389V60.6963H158.579V62.6963ZM177.389 62.6963C179.231 62.6963 180.892 62.9741 182.383 63.5161L183.066 61.6365C181.33 61.0051 179.434 60.6963 177.389 60.6963V62.6963ZM182.389 63.5185C183.928 64.0657 185.222 64.8265 186.288 65.7923L187.631 64.3103C186.35 63.1494 184.82 62.2603 183.059 61.6341L182.389 63.5185ZM186.301 65.8039C187.363 66.733 188.194 67.8617 188.797 69.2017L190.621 68.3809C189.904 66.7876 188.903 65.423 187.618 64.2987L186.301 65.8039ZM188.797 69.2017C189.394 70.5276 189.699 71.9993 189.699 73.6313H191.699C191.699 71.7433 191.345 69.9884 190.621 68.3809L188.797 69.2017ZM189.699 73.6313C189.699 75.8448 189.067 77.8004 187.802 79.5313L189.417 80.7113C190.938 78.6289 191.699 76.2578 191.699 73.6313H189.699ZM187.794 79.5415C186.554 81.285 184.895 82.58 182.79 83.4288L183.538 85.2837C185.98 84.2992 187.951 82.7709 189.424 80.701L187.794 79.5415ZM182.284 84.8302L190.809 100.67L192.57 99.7224L184.045 83.8824L182.284 84.8302ZM191.689 99.1963H182.779V101.196H191.689V99.1963ZM183.67 99.7411L176.135 85.0011L174.354 85.9115L181.889 100.651L183.67 99.7411ZM175.244 84.4563H166.554V86.4563H175.244V84.4563ZM165.554 85.4563V100.196H167.554V85.4563H165.554ZM166.554 99.1963H158.579V101.196H166.554V99.1963ZM176.674 67.5713H166.554V69.5713H176.674V67.5713ZM165.554 68.5713V78.9113H167.554V68.5713H165.554ZM166.554 79.9113H176.674V77.9113H166.554V79.9113ZM176.674 79.9113C178.651 79.9113 180.341 79.3829 181.632 78.2259L180.297 76.7367C179.461 77.4863 178.29 77.9113 176.674 77.9113V79.9113ZM181.619 78.237C182.952 77.0815 183.614 75.5522 183.614 73.7413H181.614C181.614 75.0104 181.176 75.9744 180.309 76.7256L181.619 78.237ZM183.614 73.7413C183.614 71.9304 182.952 70.401 181.619 69.2456L180.309 70.757C181.176 71.5082 181.614 72.4722 181.614 73.7413H183.614ZM181.632 69.2567C180.341 68.0997 178.651 67.5713 176.674 67.5713V69.5713C178.29 69.5713 179.461 69.9963 180.297 70.7459L181.632 69.2567ZM237.648 88.9213L236.721 88.5475L236.718 88.5548L237.648 88.9213ZM233.633 95.1913L232.919 94.4917L232.919 94.4918L233.633 95.1913ZM227.528 99.3163L227.912 100.24L227.924 100.235L227.528 99.3163ZM211.798 99.2613L211.418 100.186L211.798 99.2613ZM205.308 95.0813L204.601 95.7884L204.608 95.7956L204.616 95.8027L205.308 95.0813ZM201.018 88.7563L200.103 89.1586L201.018 88.7563ZM200.963 73.1363L200.048 72.734L200.043 72.7457L200.963 73.1363ZM205.253 66.8663L205.953 67.5806L205.953 67.5805L205.253 66.8663ZM211.743 62.6313L212.124 63.556L211.743 62.6313ZM228.738 63.0163L229.152 62.1059V62.1059L228.738 63.0163ZM235.723 68.2963L236.401 69.0319L237.095 68.3925L236.497 67.6624L235.723 68.2963ZM230.168 73.4113L229.403 74.0549L230.076 74.8555L230.846 74.1469L230.168 73.4113ZM225.438 69.7263L224.991 70.6207L225.002 70.6263L225.013 70.6315L225.438 69.7263ZM214.878 69.3963L215.27 70.3167L215.28 70.3119L214.878 69.3963ZM211.028 72.0363L210.31 71.3409L210.309 71.3413L211.028 72.0363ZM208.498 75.9963L207.571 75.6211L207.567 75.6327L208.498 75.9963ZM208.553 85.9513L207.626 86.3265L208.553 85.9513ZM211.138 89.9663L210.42 90.6617L210.425 90.6676L210.431 90.6734L211.138 89.9663ZM215.043 92.6063L214.641 93.5219L214.655 93.5278L214.668 93.5332L215.043 92.6063ZM226.923 91.2863L226.319 90.4898L226.311 90.4953L226.923 91.2863ZM230.608 85.5113L231.588 85.7103L231.832 84.5113H230.608V85.5113ZM219.223 85.5113H218.223V86.5113H219.223V85.5113ZM219.223 78.5813V77.5813H218.223V78.5813H219.223ZM239.133 78.5813H240.133V77.5813H239.133V78.5813ZM238.133 81.0013C238.133 83.7051 237.66 86.2173 236.721 88.5475L238.576 89.2951C239.617 86.7119 240.133 83.9442 240.133 81.0013H238.133ZM236.718 88.5548C235.811 90.8575 234.544 92.8324 232.919 94.4917L234.348 95.8909C236.17 94.0301 237.579 91.8251 238.579 89.2878L236.718 88.5548ZM232.919 94.4918C231.33 96.1152 229.406 97.4188 227.133 98.3979L227.924 100.235C230.418 99.1605 232.564 97.714 234.348 95.8908L232.919 94.4918ZM227.145 98.3928C224.891 99.329 222.455 99.8013 219.828 99.8013V101.801C222.701 101.801 225.399 101.284 227.912 100.24L227.145 98.3928ZM219.828 99.8013C217.091 99.8013 214.544 99.3106 212.179 98.3366L211.418 100.186C214.039 101.265 216.846 101.801 219.828 101.801V99.8013ZM212.179 98.3366C209.794 97.3547 207.739 96.028 206.001 94.3599L204.616 95.8027C206.545 97.6545 208.816 99.1146 211.418 100.186L212.179 98.3366ZM206.015 94.3742C204.31 92.6688 202.949 90.665 201.934 88.354L200.103 89.1586C201.214 91.6876 202.713 93.9004 204.601 95.7884L206.015 94.3742ZM201.934 88.354C200.929 86.0676 200.423 83.6021 200.423 80.9463H198.423C198.423 83.8638 198.981 86.6049 200.103 89.1586L201.934 88.354ZM200.423 80.9463C200.423 78.2856 200.913 75.816 201.884 73.5268L200.043 72.7457C198.961 75.2966 198.423 78.0336 198.423 80.9463H200.423ZM201.879 73.5386C202.894 71.2294 204.252 69.2468 205.953 67.5806L204.554 66.1519C202.661 68.0057 201.16 70.2032 200.048 72.734L201.879 73.5386ZM205.953 67.5805C207.69 65.8784 209.744 64.5362 212.124 63.556L211.363 61.7066C208.756 62.7797 206.483 64.2609 204.553 66.1521L205.953 67.5805ZM212.124 63.556C214.491 62.5814 217.019 62.0913 219.718 62.0913V60.0913C216.771 60.0913 213.982 60.6279 211.363 61.7066L212.124 63.556ZM219.718 62.0913C222.77 62.0913 225.635 62.7041 228.325 63.9267L229.152 62.1059C226.195 60.7618 223.047 60.0913 219.718 60.0913V62.0913ZM228.325 63.9267C231.019 65.1513 233.221 66.8205 234.95 68.9302L236.497 67.6624C234.559 65.2988 232.105 63.448 229.152 62.1059L228.325 63.9267ZM235.046 67.5606L229.491 72.6756L230.846 74.1469L236.401 69.0319L235.046 67.5606ZM230.934 72.7677C229.49 71.0505 227.799 69.7297 225.863 68.8211L225.013 70.6315C226.671 71.4095 228.134 72.5454 229.403 74.0549L230.934 72.7677ZM225.886 68.8319C223.981 67.8794 221.92 67.4063 219.718 67.4063V69.4063C221.623 69.4063 223.376 69.8132 224.991 70.6207L225.886 68.8319ZM219.718 67.4063C217.864 67.4063 216.113 67.7623 214.476 68.4806L215.28 70.3119C216.651 69.7103 218.126 69.4063 219.718 69.4063V67.4063ZM214.487 68.476C212.898 69.1512 211.503 70.1073 210.31 71.3409L211.747 72.7317C212.753 71.6919 213.925 70.888 215.27 70.3166L214.487 68.476ZM210.309 71.3413C209.149 72.5412 208.239 73.9724 207.571 75.6211L209.425 76.3715C210.005 74.9402 210.781 73.7314 211.747 72.7313L210.309 71.3413ZM207.567 75.6327C206.93 77.2644 206.618 79.0393 206.618 80.9463H208.618C208.618 79.2599 208.893 77.7349 209.43 76.3598L207.567 75.6327ZM206.618 80.9463C206.618 82.861 206.951 84.6579 207.626 86.3265L209.48 85.5761C208.909 84.1647 208.618 82.6249 208.618 80.9463H206.618ZM207.626 86.3265C208.296 87.9795 209.226 89.4281 210.42 90.6617L211.857 89.2709C210.851 88.2312 210.058 87.003 209.48 85.5761L207.626 86.3265ZM210.431 90.6734C211.624 91.8661 213.031 92.8148 214.641 93.5219L215.445 91.6906C214.049 91.0778 212.853 90.2665 211.845 89.2592L210.431 90.6734ZM214.668 93.5332C216.332 94.2066 218.091 94.5413 219.938 94.5413V92.5413C218.339 92.5413 216.835 92.2526 215.419 91.6793L214.668 93.5332ZM219.938 94.5413C222.849 94.5413 225.398 93.7303 227.535 92.0772L226.311 90.4953C224.562 91.8489 222.455 92.5413 219.938 92.5413V94.5413ZM227.528 92.0827C229.693 90.4386 231.061 88.3049 231.588 85.7103L229.628 85.3122C229.202 87.411 228.113 89.1273 226.319 90.4898L227.528 92.0827ZM230.608 84.5113H219.223V86.5113H230.608V84.5113ZM220.223 85.5113V78.5813H218.223V85.5113H220.223ZM219.223 79.5813H239.133V77.5813H219.223V79.5813ZM238.133 78.5813V81.0013H240.133V78.5813H238.133ZM257.697 100.196H256.697V101.196H257.697V100.196ZM257.697 85.4563H258.697V85.1553L258.531 84.9043L257.697 85.4563ZM241.967 61.6963V60.6963H240.106L241.133 62.2483L241.967 61.6963ZM251.152 61.6963L251.992 61.1544L251.697 60.6963H251.152V61.6963ZM261.932 78.4163L261.091 78.9582L261.93 80.2584L262.771 78.9601L261.932 78.4163ZM272.767 61.6963V60.6963H272.223L271.928 61.1525L272.767 61.6963ZM281.457 61.6963L282.29 62.2488L283.319 60.6963H281.457V61.6963ZM265.672 85.5113L264.838 84.9588L264.672 85.21V85.5113H265.672ZM265.672 100.196V101.196H266.672V100.196H265.672ZM258.697 100.196V85.4563H256.697V100.196H258.697ZM258.531 84.9043L242.801 61.1443L241.133 62.2483L256.863 86.0083L258.531 84.9043ZM241.967 62.6963H251.152V60.6963H241.967V62.6963ZM250.311 62.2382L261.091 78.9582L262.772 77.8744L251.992 61.1544L250.311 62.2382ZM262.771 78.9601L273.606 62.2401L271.928 61.1525L261.093 77.8725L262.771 78.9601ZM272.767 62.6963H281.457V60.6963H272.767V62.6963ZM280.623 61.1438L264.838 84.9588L266.505 86.0638L282.29 62.2488L280.623 61.1438ZM264.672 85.5113V100.196H266.672V85.5113H264.672ZM265.672 99.1963H257.697V101.196H265.672V99.1963Z" fill="black"/>
<path d="M69.159 165.809L70.0746 166.211L70.0768 166.206L69.159 165.809ZM64.814 172.134L65.5138 172.848L65.514 172.848L64.814 172.134ZM58.379 176.314L58.7598 177.239L58.379 176.314ZM42.374 176.314L41.9933 177.239L42.374 176.314ZM35.884 172.134L35.1769 172.841L35.1842 172.848L35.1915 172.855L35.884 172.134ZM31.594 165.809L30.6763 166.206L30.6785 166.211L31.594 165.809ZM31.594 150.244L32.5096 150.646L32.5118 150.641L31.594 150.244ZM35.884 143.919L36.5838 144.633L36.584 144.633L35.884 143.919ZM42.374 139.684L41.9933 138.759L42.374 139.684ZM58.379 139.684L58.7598 138.759H58.7598L58.379 139.684ZM64.814 143.919L64.1069 144.626L64.1142 144.633L64.1215 144.64L64.814 143.919ZM69.159 150.244L68.2413 150.641L68.2435 150.646L69.159 150.244ZM61.624 153.049L60.6971 153.424L60.7003 153.432L61.624 153.049ZM59.039 149.089L58.3088 149.772L58.3202 149.784L58.3319 149.796L59.039 149.089ZM55.189 146.449L54.7871 147.365L54.7965 147.369L54.806 147.373L55.189 146.449ZM45.509 146.449L45.9002 147.369L45.911 147.365L45.509 146.449ZM41.659 149.089L40.9404 148.394L40.9401 148.394L41.659 149.089ZM39.129 153.049L40.0528 153.432L40.056 153.424L39.129 153.049ZM39.129 162.949L40.056 162.574L39.129 162.949ZM41.659 166.964L40.9288 167.647L40.9402 167.659L40.9519 167.671L41.659 166.964ZM45.509 169.604L45.0987 170.516L45.1123 170.522L45.126 170.528L45.509 169.604ZM55.189 169.604L55.5721 170.528L55.5816 170.524L55.591 170.52L55.189 169.604ZM59.039 166.964L58.3204 166.269L58.3201 166.269L59.039 166.964ZM61.624 162.949L60.6971 162.574L61.624 162.949ZM69.754 157.999C69.754 160.616 69.2489 163.084 68.2413 165.412L70.0768 166.206C71.1959 163.621 71.754 160.882 71.754 157.999H69.754ZM68.2435 165.407C67.2299 167.714 65.8536 169.715 64.1141 171.42L65.514 172.848C67.4411 170.96 68.9615 168.745 70.0746 166.211L68.2435 165.407ZM64.1143 171.42C62.4159 173.083 60.3814 174.408 57.9983 175.389L58.7598 177.239C61.3633 176.167 63.6189 174.705 65.5138 172.848L64.1143 171.42ZM57.9983 175.389C55.633 176.363 53.0865 176.854 50.349 176.854V178.854C53.3316 178.854 56.1385 178.318 58.7598 177.239L57.9983 175.389ZM50.349 176.854C47.6501 176.854 45.1217 176.364 42.7548 175.389L41.9933 177.239C44.6131 178.317 47.4013 178.854 50.349 178.854V176.854ZM42.7548 175.389C40.3701 174.407 38.3142 173.081 36.5766 171.413L35.1915 172.855C37.1205 174.707 39.3914 176.167 41.9933 177.239L42.7548 175.389ZM36.5912 171.427C34.8858 169.722 33.525 167.718 32.5096 165.407L30.6785 166.211C31.7898 168.74 33.289 170.953 35.1769 172.841L36.5912 171.427ZM32.5118 165.412C31.5042 163.084 30.999 160.616 30.999 157.999H28.999C28.999 160.882 29.5572 163.621 30.6763 166.206L32.5118 165.412ZM30.999 157.999C30.999 155.382 31.5042 152.934 32.5096 150.646L30.6785 149.842C29.5572 152.394 28.999 155.116 28.999 157.999H30.999ZM32.5118 150.641C33.527 148.296 34.8855 146.297 36.5838 144.633L35.1843 143.205C33.2893 145.061 31.7877 147.279 30.6763 149.847L32.5118 150.641ZM36.584 144.633C38.3208 142.931 40.3743 141.589 42.7548 140.609L41.9933 138.759C39.3871 139.832 37.1139 141.314 35.1841 143.205L36.584 144.633ZM42.7548 140.609C45.1217 139.634 47.6501 139.144 50.349 139.144V137.144C47.4013 137.144 44.6131 137.681 41.9933 138.759L42.7548 140.609ZM50.349 139.144C53.0865 139.144 55.633 139.635 57.9983 140.609L58.7598 138.759C56.1385 137.68 53.3316 137.144 50.349 137.144V139.144ZM57.9983 140.609C60.3771 141.588 62.4093 142.928 64.1069 144.626L65.5212 143.212C63.6255 141.316 61.3676 139.833 58.7598 138.759L57.9983 140.609ZM64.1215 144.64C65.8539 146.304 67.2279 148.3 68.2413 150.641L70.0768 149.847C68.9635 147.275 67.4408 145.055 65.5066 143.198L64.1215 144.64ZM68.2435 150.646C69.2489 152.934 69.754 155.382 69.754 157.999H71.754C71.754 155.116 71.1959 152.394 70.0746 149.842L68.2435 150.646ZM63.559 157.999C63.559 156.085 63.2265 154.303 62.5478 152.666L60.7003 153.432C61.2683 154.802 61.559 156.32 61.559 157.999H63.559ZM62.551 152.674C61.8808 151.018 60.9473 149.583 59.7461 148.382L58.3319 149.796C59.3308 150.795 60.1206 152 60.6971 153.424L62.551 152.674ZM59.7693 148.406C58.6042 147.16 57.2008 146.201 55.5721 145.525L54.806 147.373C56.1839 147.944 57.3472 148.744 58.3088 149.772L59.7693 148.406ZM55.591 145.533C53.9547 144.815 52.2038 144.459 50.349 144.459V146.459C51.941 146.459 53.4167 146.763 54.7871 147.365L55.591 145.533ZM50.349 144.459C48.4943 144.459 46.7434 144.815 45.1071 145.533L45.911 147.365C47.2814 146.763 48.7571 146.459 50.349 146.459V144.459ZM45.1179 145.529C43.5291 146.204 42.1342 147.16 40.9404 148.394L42.3776 149.784C43.3839 148.745 44.5557 147.941 45.9002 147.369L45.1179 145.529ZM40.9401 148.394C39.7801 149.594 38.8694 151.025 38.2021 152.674L40.056 153.424C40.6353 151.993 41.4113 150.784 42.378 149.784L40.9401 148.394ZM38.2053 152.666C37.5266 154.303 37.194 156.085 37.194 157.999H39.194C39.194 156.32 39.4848 154.802 40.0528 153.432L38.2053 152.666ZM37.194 157.999C37.194 159.88 37.5277 161.658 38.2021 163.324L40.056 162.574C39.4837 161.16 39.194 159.638 39.194 157.999H37.194ZM38.2021 163.324C38.8684 164.97 39.776 166.415 40.9288 167.647L42.3893 166.281C41.4154 165.24 40.6364 164.008 40.056 162.574L38.2021 163.324ZM40.9519 167.671C42.1405 168.86 43.5253 169.808 45.0987 170.516L45.9194 168.692C44.5594 168.08 43.3776 167.268 42.3661 166.257L40.9519 167.671ZM45.126 170.528C46.7578 171.204 48.5021 171.539 50.349 171.539V169.539C48.7493 169.539 47.2669 169.25 45.8921 168.68L45.126 170.528ZM50.349 171.539C52.196 171.539 53.9403 171.204 55.5721 170.528L54.806 168.68C53.4312 169.25 51.9488 169.539 50.349 169.539V171.539ZM55.591 170.52C57.2046 169.811 58.5979 168.859 59.758 167.659L58.3201 166.269C57.3535 167.269 56.1802 168.077 54.7871 168.688L55.591 170.52ZM59.7576 167.659C60.9515 166.426 61.8819 164.977 62.551 163.324L60.6971 162.574C60.1195 164.001 59.3266 165.229 58.3204 166.269L59.7576 167.659ZM62.551 163.324C63.2254 161.658 63.559 159.88 63.559 157.999H61.559C61.559 159.638 61.2694 161.16 60.6971 162.574L62.551 163.324ZM81.2253 177.249H80.2253V178.249H81.2253V177.249ZM81.2253 138.749V137.749H80.2253V138.749H81.2253ZM110.98 138.749H111.98V137.749H110.98V138.749ZM110.98 145.679V146.679H111.98V145.679H110.98ZM89.2003 145.679V144.679H88.2003V145.679H89.2003ZM89.2003 154.754H88.2003V155.754H89.2003V154.754ZM103.665 154.754H104.665V153.754H103.665V154.754ZM103.665 161.464V162.464H104.665V161.464H103.665ZM89.2003 161.464V160.464H88.2003V161.464H89.2003ZM89.2003 177.249V178.249H90.2003V177.249H89.2003ZM82.2253 177.249V138.749H80.2253V177.249H82.2253ZM81.2253 139.749H110.98V137.749H81.2253V139.749ZM109.98 138.749V145.679H111.98V138.749H109.98ZM110.98 144.679H89.2003V146.679H110.98V144.679ZM88.2003 145.679V154.754H90.2003V145.679H88.2003ZM89.2003 155.754H103.665V153.754H89.2003V155.754ZM102.665 154.754V161.464H104.665V154.754H102.665ZM103.665 160.464H89.2003V162.464H103.665V160.464ZM88.2003 161.464V177.249H90.2003V161.464H88.2003ZM89.2003 176.249H81.2253V178.249H89.2003V176.249ZM121.352 177.249H120.352V178.249H121.352V177.249ZM121.352 138.749V137.749H120.352V138.749H121.352ZM151.107 138.749H152.107V137.749H151.107V138.749ZM151.107 145.679V146.679H152.107V145.679H151.107ZM129.327 145.679V144.679H128.327V145.679H129.327ZM129.327 154.754H128.327V155.754H129.327V154.754ZM143.792 154.754H144.792V153.754H143.792V154.754ZM143.792 161.464V162.464H144.792V161.464H143.792ZM129.327 161.464V160.464H128.327V161.464H129.327ZM129.327 177.249V178.249H130.327V177.249H129.327ZM122.352 177.249V138.749H120.352V177.249H122.352ZM121.352 139.749H151.107V137.749H121.352V139.749ZM150.107 138.749V145.679H152.107V138.749H150.107ZM151.107 144.679H129.327V146.679H151.107V144.679ZM128.327 145.679V154.754H130.327V145.679H128.327ZM129.327 155.754H143.792V153.754H129.327V155.754ZM142.792 154.754V161.464H144.792V154.754H142.792ZM143.792 160.464H129.327V162.464H143.792V160.464ZM128.327 161.464V177.249H130.327V161.464H128.327ZM129.327 176.249H121.352V178.249H129.327V176.249ZM160.661 170.154L159.953 170.861H159.954L160.661 170.154ZM160.661 176.479L159.954 175.772H159.953L160.661 176.479ZM154.336 176.479L153.629 177.186L154.336 176.479ZM154.336 170.154L153.629 169.447L154.336 170.154ZM157.471 169.834C158.453 169.834 159.261 170.169 159.953 170.861L161.368 169.447C160.3 168.379 158.982 167.834 157.471 167.834V169.834ZM159.954 170.861C160.646 171.553 160.981 172.362 160.981 173.344H162.981C162.981 171.833 162.436 170.515 161.368 169.447L159.954 170.861ZM160.981 173.344C160.981 174.28 160.652 175.073 159.954 175.772L161.368 177.186C162.429 176.125 162.981 174.828 162.981 173.344H160.981ZM159.953 175.772C159.261 176.464 158.453 176.799 157.471 176.799V178.799C158.982 178.799 160.3 178.254 161.368 177.186L159.953 175.772ZM157.471 176.799C156.534 176.799 155.741 176.47 155.043 175.772L153.629 177.186C154.69 178.248 155.987 178.799 157.471 178.799V176.799ZM155.043 175.772C154.344 175.073 154.016 174.28 154.016 173.344H152.016C152.016 174.828 152.567 176.125 153.629 177.186L155.043 175.772ZM154.016 173.344C154.016 172.362 154.351 171.553 155.043 170.861L153.629 169.447C152.561 170.515 152.016 171.833 152.016 173.344H154.016ZM155.043 170.861C155.741 170.163 156.534 169.834 157.471 169.834V167.834C155.987 167.834 154.69 168.385 153.629 169.447L155.043 170.861Z" fill="black"/>
<path d="M450.4 157.999C450.4 160.749 449.868 163.352 448.805 165.809C447.741 168.229 446.293 170.337 444.46 172.134C442.626 173.894 440.445 175.287 437.915 176.314C435.385 177.341 432.69 177.854 429.83 177.854C426.97 177.854 424.275 177.341 421.745 176.314C419.215 175.287 417.033 173.894 415.2 172.134C413.366 170.337 411.918 168.229 410.855 165.809C409.791 163.352 409.26 160.749 409.26 157.999C409.26 155.249 409.791 152.664 410.855 150.244C411.918 147.787 413.366 145.679 415.2 143.919C417.033 142.122 419.215 140.711 421.745 139.684C424.275 138.657 426.97 138.144 429.83 138.144C432.69 138.144 435.385 138.657 437.915 139.684C440.445 140.711 442.626 142.122 444.46 143.919C446.293 145.679 447.741 147.787 448.805 150.244C449.868 152.664 450.4 155.249 450.4 157.999ZM440.665 157.999C440.665 156.422 440.39 154.956 439.84 153.599C439.29 152.206 438.52 151.014 437.53 150.024C436.576 149.034 435.44 148.264 434.12 147.714C432.8 147.127 431.37 146.834 429.83 146.834C428.29 146.834 426.86 147.127 425.54 147.714C424.22 148.264 423.065 149.034 422.075 150.024C421.121 151.014 420.37 152.206 419.82 153.599C419.27 154.956 418.995 156.422 418.995 157.999C418.995 159.576 419.27 161.061 419.82 162.454C420.37 163.811 421.121 164.984 422.075 165.974C423.065 166.964 424.22 167.752 425.54 168.339C426.86 168.889 428.29 169.164 429.83 169.164C431.37 169.164 432.8 168.889 434.12 168.339C435.44 167.752 436.576 166.964 437.53 165.974C438.52 164.984 439.29 163.811 439.84 162.454C440.39 161.061 440.665 159.576 440.665 157.999ZM460.43 138.749H469.34L486.83 161.079V138.749H495.74V177.249H487.38L469.34 154.039V177.249H460.43V138.749Z" fill="black"/>
<path d="M511.014 167.624C512.408 167.624 513.599 168.137 514.589 169.164C515.616 170.154 516.129 171.346 516.129 172.739C516.129 174.132 515.616 175.342 514.589 176.369C513.599 177.359 512.408 177.854 511.014 177.854C509.621 177.854 508.411 177.359 507.384 176.369C506.394 175.342 505.899 174.132 505.899 172.739C505.899 171.346 506.394 170.154 507.384 169.164C508.411 168.137 509.621 167.624 511.014 167.624Z" fill="#29D305"/>
</svg>
