<svg width="238" height="72" viewBox="0 0 238 72" fill="none" xmlns="http://www.w3.org/2000/svg">
<path d="M71.6235 30.8052H28.1992V41.1955H71.6235V30.8052Z" fill="black"/>
<path d="M36.1069 61.4534C22.0425 61.4534 10.6248 50.0487 10.6248 36.0002C10.6248 21.9518 22.0425 10.547 36.1069 10.547C44.2009 10.547 51.4024 14.3281 56.0803 20.1996L63.8973 13.3444C57.3113 5.29041 47.3093 0.156738 36.1069 0.156738C16.2875 0.156738 0.222656 16.2033 0.222656 36.0002C0.222656 55.7972 16.2875 71.8437 36.1069 71.8437C47.3093 71.8437 57.3113 66.7101 63.8973 58.656L56.0803 51.8009C51.4332 57.6723 44.2009 61.4534 36.1069 61.4534Z" fill="black"/>
<path d="M94.117 1.20215H83.7148V70.8295H94.117V1.20215Z" fill="black"/>
<path d="M175.429 19.9844H165.027V70.7985H175.429V19.9844Z" fill="black"/>
<path d="M144.499 19.9844L129.48 55.1823L114.431 19.9844H102.859L125.418 70.8293H133.512L156.07 19.9844H144.499Z" fill="black"/>
<path d="M170.228 12.1763C173.542 12.1763 176.229 9.49253 176.229 6.18191C176.229 2.87129 173.542 0.1875 170.228 0.1875C166.913 0.1875 164.227 2.87129 164.227 6.18191C164.227 9.49253 166.913 12.1763 170.228 12.1763Z" fill="black"/>
<path d="M210.635 66.7099C213.779 66.7099 216.328 64.1638 216.328 61.0229C216.328 57.8821 213.779 55.3359 210.635 55.3359C207.49 55.3359 204.941 57.8821 204.941 61.0229C204.941 64.1638 207.49 66.7099 210.635 66.7099Z" fill="black"/>
<path d="M214.666 19.9844H206.572L183.398 70.8293H194.662L210.635 34.9243L226.577 70.8293H237.84L214.666 19.9844Z" fill="black"/>
</svg>
