<svg width="72" height="72" viewBox="0 0 72 72" fill="none" xmlns="http://www.w3.org/2000/svg">
<path d="M71.4037 30.4575H28.5742V40.7831H71.4037V30.4575Z" fill="black"/>
<path d="M36.3771 60.915C22.5053 60.915 11.244 49.5813 11.244 35.6203C11.244 21.6593 22.5053 10.3256 36.3771 10.3256C44.3602 10.3256 51.463 14.0832 56.0768 19.918L63.7867 13.1056C57.291 5.10171 47.4259 0 36.3771 0C16.8291 0 0.984375 15.9467 0.984375 35.6203C0.984375 55.294 16.8291 71.2406 36.3771 71.2406C47.4259 71.2406 57.291 66.1389 63.7867 58.135L56.0768 51.3226C51.4934 57.1575 44.3602 60.915 36.3771 60.915Z" fill="black"/>
</svg>
