<svg width="40" height="40" viewBox="0 0 40 40" fill="none" xmlns="http://www.w3.org/2000/svg">
<path fill-rule="evenodd" clip-rule="evenodd" d="M0 7.25C0 6.42311 0.663023 6 1.4809 6H23.1761C23.994 6 24.657 6.5 24.657 7.25C24.657 7.97088 23.994 8.5 23.1761 8.5H1.4809C0.663023 8.5 0 8.07689 0 7.25Z" fill="black"/>
<path fill-rule="evenodd" clip-rule="evenodd" d="M0.0351562 20C0.0351562 19.2105 0.698179 18.75 1.51606 18.75H23.0091C23.827 18.75 24.49 19.25 24.49 20C24.49 20.75 23.827 21.25 23.0091 21.25H1.51606C0.698179 21.25 0.0351562 20.7895 0.0351562 20Z" fill="black"/>
<path fill-rule="evenodd" clip-rule="evenodd" d="M0 33C0 32.192 0.663023 31.75 1.4809 31.75H23.0066C23.8245 31.75 24.4875 32.25 24.4875 33C24.4875 33.75 23.8245 34.25 23.0066 34.25H1.4809C0.663023 34.25 0 33.808 0 33Z" fill="black"/>
<path fill-rule="evenodd" clip-rule="evenodd" d="M30.4845 6.16679C29.9782 5.66252 29.9892 4.8306 30.5046 4.33986C30.9879 3.87973 31.7423 3.88681 32.2168 4.35944L35.0477 7.17881L37.8785 4.35944C38.3531 3.88681 39.1075 3.87973 39.5907 4.33986C40.1061 4.8306 40.1172 5.66253 39.6108 6.16679L36.0886 9.67473C36.0886 9.67481 36.0885 9.67489 36.0884 9.67497C36.0883 9.67506 36.0882 9.67514 36.0881 9.67523C35.9491 9.81379 35.7855 9.92225 35.6074 9.99578L35.4279 9.53363L35.6074 9.99578C35.4292 10.0694 35.2391 10.1069 35.0477 10.1069C34.8563 10.1069 34.6661 10.0694 34.4879 9.99578L34.6674 9.53363L34.4879 9.99578C34.3099 9.92227 34.1464 9.81386 34.0073 9.67536C34.0073 9.67534 34.0073 9.67532 34.0073 9.67531C34.0072 9.67524 34.0072 9.67517 34.0071 9.67511L30.4845 6.16679ZM35.1985 8.94329L35.0736 8.62173L35.1985 8.94329L35.2404 9.0509L35.1985 8.94329ZM31.8568 4.7031L31.8564 4.70266L31.3315 5.26288L31.8564 4.70266C31.8565 4.70281 31.8567 4.70295 31.8568 4.7031Z" fill="black"/>
<path fill-rule="evenodd" clip-rule="evenodd" d="M30.4845 19.2737C29.9782 18.7695 29.9892 17.9375 30.5046 17.4468C30.9879 16.9867 31.7423 16.9937 32.2168 17.4664L35.0477 20.2857L37.8785 17.4664C38.3531 16.9937 39.1075 16.9867 39.5907 17.4468C40.1061 17.9375 40.1172 18.7695 39.6108 19.2737L36.0886 22.7817C36.0886 22.7817 36.0885 22.7818 36.0884 22.7819C36.0883 22.782 36.0882 22.7821 36.0881 22.7822C35.9491 22.9207 35.7855 23.0292 35.6074 23.1027L35.4279 22.6406L35.6074 23.1027C35.4292 23.1763 35.2391 23.2139 35.0477 23.2139C34.8563 23.2139 34.6661 23.1763 34.4879 23.1027L34.6674 22.6406L34.4879 23.1027C34.3099 23.0292 34.1464 22.9208 34.0073 22.7823C34.0073 22.7823 34.0073 22.7823 34.0073 22.7822C34.0072 22.7822 34.0072 22.7821 34.0071 22.782L30.4845 19.2737ZM35.1985 22.0502L35.0736 21.7287L35.1985 22.0502L35.2404 22.1578L35.1985 22.0502ZM31.8568 17.81L31.8564 17.8096L31.3315 18.3698L31.8564 17.8096C31.8565 17.8097 31.8567 17.8099 31.8568 17.81Z" fill="black"/>
<path fill-rule="evenodd" clip-rule="evenodd" d="M30.4845 32.3807C29.9782 31.8764 29.9892 31.0445 30.5046 30.5537C30.9879 30.0936 31.7423 30.1007 32.2168 30.5733L35.0477 33.3927L37.8785 30.5733C38.3531 30.1007 39.1075 30.0936 39.5907 30.5537C40.1061 31.0445 40.1172 31.8764 39.6108 32.3807L36.0886 35.8886C36.0886 35.8887 36.0885 35.8888 36.0884 35.8888C36.0883 35.8889 36.0882 35.889 36.0881 35.8891C35.9491 36.0277 35.7855 36.1361 35.6074 36.2097L35.4279 35.7475L35.6074 36.2097C35.4292 36.2833 35.2391 36.3208 35.0477 36.3208C34.8563 36.3208 34.6661 36.2833 34.4879 36.2097L34.6674 35.7475L34.4879 36.2097C34.3099 36.1361 34.1464 36.0277 34.0073 35.8892C34.0073 35.8892 34.0073 35.8892 34.0073 35.8892C34.0072 35.8891 34.0072 35.889 34.0071 35.889L30.4845 32.3807ZM35.1985 35.1572L35.0736 34.8356L35.1985 35.1572L35.2404 35.2648L35.1985 35.1572ZM31.8568 30.917L31.8564 30.9165L31.3315 31.4767L31.8564 30.9165C31.8565 30.9167 31.8567 30.9168 31.8568 30.917Z" fill="#29D305"/>
</svg>
