<svg width="40" height="40" viewBox="0 0 40 40" fill="none" xmlns="http://www.w3.org/2000/svg">
<path fill-rule="evenodd" clip-rule="evenodd" d="M14.584 18C14.584 17.3096 15.1436 16.75 15.834 16.75H22.5007C23.191 16.75 23.7507 17.3096 23.7507 18C23.7507 18.6904 23.191 19.25 22.5007 19.25H15.834C15.1436 19.25 14.584 18.6904 14.584 18Z" fill="black"/>
<path fill-rule="evenodd" clip-rule="evenodd" d="M14.584 23C14.584 22.3096 15.1436 21.75 15.834 21.75H30.834C31.5243 21.75 32.084 22.3096 32.084 23C32.084 23.6904 31.5243 24.25 30.834 24.25H15.834C15.1436 24.25 14.584 23.6904 14.584 23Z" fill="black"/>
<path fill-rule="evenodd" clip-rule="evenodd" d="M36.6667 10.5H3.33333C2.8731 10.5 2.5 10.8731 2.5 11.3333V29.6667C2.5 30.1269 2.8731 30.5 3.33333 30.5H36.6667C37.1269 30.5 37.5 30.1269 37.5 29.6667V11.3333C37.5 10.8731 37.1269 10.5 36.6667 10.5ZM3.33333 8C1.49238 8 0 9.49238 0 11.3333V29.6667C0 31.5076 1.49238 33 3.33333 33H36.6667C38.5076 33 40 31.5076 40 29.6667V11.3333C40 9.49238 38.5076 8 36.6667 8H3.33333Z" fill="black"/>
<path fill-rule="evenodd" clip-rule="evenodd" d="M8.75 15.9165C9.44036 15.9165 10 16.4761 10 17.1665L10 21.3332C10 22.0235 9.44036 22.5832 8.75 22.5832C8.05964 22.5832 7.5 22.0235 7.5 21.3332L7.5 17.1665C7.5 16.4761 8.05964 15.9165 8.75 15.9165Z" fill="#29D305"/>
<path d="M10 24.4346C10 25.1249 9.44036 25.6846 8.75 25.6846C8.05964 25.6846 7.5 25.1249 7.5 24.4346C7.5 23.7442 8.05964 23.1846 8.75 23.1846C9.44036 23.1846 10 23.7442 10 24.4346Z" fill="#29D305"/>
</svg>
