<svg width="40" height="40" viewBox="0 0 40 40" fill="none" xmlns="http://www.w3.org/2000/svg">
<path fill-rule="evenodd" clip-rule="evenodd" d="M3.39925 5.44186C3.16669 5.44186 2.93326 5.53677 2.75329 5.72254L1.8659 4.87653L2.75329 5.72254C2.57172 5.90996 2.46152 6.17415 2.46152 6.4593V19.8895C2.46152 20.1747 2.57172 20.4389 2.75329 20.6263C2.93326 20.8121 3.16669 20.907 3.39925 20.907H17.8756C18.5553 20.907 19.1063 21.4536 19.1063 22.1279C19.1063 22.8022 18.5553 23.3488 17.8756 23.3488H3.39925C2.48157 23.3488 1.61187 22.9721 0.978502 22.3183C0.346731 21.6662 0 20.7917 0 19.8895V6.4593C0 5.55715 0.346731 4.68266 0.978502 4.03053C1.61187 3.37674 2.48157 3 3.39925 3H34.1392C35.0569 3 35.9266 3.37675 36.56 4.03053C37.1917 4.68265 37.5385 5.55714 37.5385 6.4593V15.4128C37.5385 16.0871 36.9874 16.6337 36.3077 16.6337C35.628 16.6337 35.0769 16.0871 35.0769 15.4128V6.4593C35.0769 6.17415 34.9667 5.90997 34.7852 5.72254C34.6052 5.53677 34.3718 5.44186 34.1392 5.44186H3.39925Z" fill="black"/>
<path fill-rule="evenodd" clip-rule="evenodd" d="M30.1547 20.9067C28.6942 20.9067 27.2664 21.3363 26.052 22.1413C24.8377 22.9462 23.8912 24.0903 23.3322 25.4289C22.7733 26.7675 22.6271 28.2404 22.912 29.6614C23.197 31.0825 23.9003 32.3877 24.933 33.4123C25.9658 34.4368 27.2816 35.1344 28.714 35.4171C30.1465 35.6998 31.6313 35.5547 32.9806 35.0002C34.33 34.4458 35.4833 33.5068 36.2947 32.3022C37.1062 31.0975 37.5393 29.6811 37.5393 28.2323C37.5393 27.558 38.0903 27.0114 38.77 27.0114C39.4498 27.0114 40.0008 27.558 40.0008 28.2323C40.0008 30.1641 39.4233 32.0525 38.3414 33.6588C37.2595 35.265 35.7218 36.5169 33.9226 37.2562C32.1235 37.9955 30.1438 38.1889 28.2338 37.812C26.3239 37.4352 24.5695 36.5049 23.1925 35.1389C21.8155 33.7729 20.8777 32.0325 20.4978 30.1378C20.1179 28.2431 20.3129 26.2792 21.0581 24.4944C21.8033 22.7097 23.0653 21.1842 24.6845 20.111C26.3037 19.0377 28.2073 18.4648 30.1547 18.4648C30.8344 18.4648 31.3855 19.0115 31.3855 19.6858C31.3855 20.3601 30.8344 20.9067 30.1547 20.9067Z" fill="black"/>
<path fill-rule="evenodd" clip-rule="evenodd" d="M37.9124 21.1876C38.436 21.6175 38.5092 22.3871 38.0758 22.9066L31.5481 30.7311C31.5479 30.7313 31.5478 30.7316 31.5476 30.7318C31.3637 30.9523 31.1329 31.1423 30.8606 31.2776C30.5868 31.4137 30.2822 31.4887 29.9669 31.4887C29.6515 31.4887 29.347 31.4137 29.0732 31.2776C28.801 31.1423 28.5702 30.9524 28.3864 30.7321C28.3863 30.732 28.3863 30.7319 28.3862 30.7319C28.386 30.7316 28.3858 30.7314 28.3856 30.7311L26.3336 28.2729C25.9001 27.7536 25.9731 26.9839 26.4966 26.5539C27.0201 26.1238 27.796 26.1962 28.2295 26.7155L29.9668 28.7967L36.1795 21.3498C36.6129 20.8303 37.3887 20.7577 37.9124 21.1876ZM29.6507 29.1756C29.6509 29.1754 29.6511 29.1751 29.6512 29.1749L29.6507 29.1756Z" fill="#29D305"/>
<path d="M25.2675 11.2933C25.5166 11.1914 25.7835 11.1392 26.0529 11.1397C26.458 11.14 26.854 11.2593 27.1909 11.4826C27.5282 11.7062 27.7911 12.024 27.9464 12.3958C28.1017 12.7676 28.1423 13.1768 28.0631 13.5715C27.984 13.9662 27.7886 14.3288 27.5017 14.6134C27.2149 14.898 26.8494 15.0918 26.4515 15.1703C26.0535 15.2488 25.6411 15.2085 25.2663 15.0545C24.8915 14.9005 24.5711 14.6397 24.3457 14.3051C24.1206 13.9709 24.0003 13.5781 24 13.1762C23.9995 12.9089 24.0521 12.6441 24.1549 12.397C24.2579 12.1494 24.4092 11.9244 24.6002 11.735C24.7911 11.5456 25.0179 11.3955 25.2675 11.2933Z" fill="black"/>
<path d="M17.2675 11.2933C17.5166 11.1914 17.7835 11.1392 18.0529 11.1397C18.458 11.14 18.854 11.2593 19.1909 11.4826C19.5282 11.7062 19.7911 12.024 19.9464 12.3958C20.1017 12.7676 20.1423 13.1768 20.0631 13.5715C19.984 13.9662 19.7886 14.3288 19.5017 14.6134C19.2149 14.898 18.8494 15.0918 18.4515 15.1703C18.0535 15.2488 17.6411 15.2085 17.2663 15.0545C16.8915 14.9005 16.5711 14.6397 16.3457 14.3051C16.1206 13.9709 16.0003 13.5781 16 13.1762C15.9995 12.9089 16.0521 12.6441 16.1549 12.397C16.2579 12.1494 16.4092 11.9244 16.6002 11.735C16.7911 11.5456 17.0179 11.3955 17.2675 11.2933Z" fill="black"/>
<path d="M9.26746 11.2933C9.51655 11.1914 9.78347 11.1392 10.0529 11.1397C10.458 11.14 10.854 11.2593 11.1909 11.4826C11.5282 11.7062 11.7911 12.024 11.9464 12.3958C12.1017 12.7676 12.1423 13.1768 12.0631 13.5715C11.984 13.9662 11.7886 14.3288 11.5017 14.6134C11.2149 14.898 10.8494 15.0918 10.4515 15.1703C10.0535 15.2488 9.6411 15.2085 9.26628 15.0545C8.89147 14.9005 8.5711 14.6397 8.3457 14.3051C8.12062 13.9709 8.00033 13.5781 8 13.1762C7.9995 12.9089 8.05214 12.6441 8.15493 12.397C8.25793 12.1494 8.40924 11.9244 8.60016 11.735C8.79108 11.5456 9.01786 11.3955 9.26746 11.2933Z" fill="black"/>
</svg>
