<svg width="40" height="40" viewBox="0 0 40 40" fill="none" xmlns="http://www.w3.org/2000/svg">
<path fill-rule="evenodd" clip-rule="evenodd" d="M35.0877 16.4649C35.5734 16.8691 35.6395 17.5904 35.2353 18.0761L30.8538 23.3412C30.6834 23.5506 30.4678 23.7142 30.2276 23.8232C29.9833 23.934 29.7177 23.9866 29.452 23.9791C29.1864 23.9716 28.9238 23.9039 28.6858 23.7788C28.4526 23.6563 28.2472 23.4808 28.0896 23.262L26.7253 21.4231C26.3489 20.9157 26.455 20.1991 26.9625 19.8226C27.4699 19.4462 28.1865 19.5523 28.5629 20.0598L29.5267 21.3588L33.4765 16.6125C33.8807 16.1268 34.6021 16.0607 35.0877 16.4649ZM29.0758 21.901C29.0782 21.898 29.0805 21.8951 29.083 21.8922L29.0758 21.901Z" fill="#29D305"/>
<path fill-rule="evenodd" clip-rule="evenodd" d="M0 15.3043C0 12.9271 1.92712 11 4.30435 11H13.6957C16.0729 11 18 12.9271 18 15.3043V24.6957C18 27.0729 16.0729 29 13.6957 29H4.30435C1.92712 29 0 27.0729 0 24.6957V15.3043ZM4.30435 13.3478C3.22379 13.3478 2.34783 14.2238 2.34783 15.3043V24.6957C2.34783 25.7762 3.22379 26.6522 4.30435 26.6522H13.6957C14.7762 26.6522 15.6522 25.7762 15.6522 24.6957V15.3043C15.6522 14.2238 14.7762 13.3478 13.6957 13.3478H4.30435Z" fill="black"/>
<path fill-rule="evenodd" clip-rule="evenodd" d="M22 15.3043C22 12.9271 23.9271 11 26.3043 11H35.6957C38.0729 11 40 12.9271 40 15.3043V24.6957C40 27.0729 38.0729 29 35.6957 29H26.3043C23.9271 29 22 27.0729 22 24.6957V15.3043ZM26.3043 13.3478C25.2238 13.3478 24.3478 14.2238 24.3478 15.3043V24.6957C24.3478 25.7762 25.2238 26.6522 26.3043 26.6522H35.6957C36.7762 26.6522 37.6522 25.7762 37.6522 24.6957V15.3043C37.6522 14.2238 36.7762 13.3478 35.6957 13.3478H26.3043Z" fill="black"/>
</svg>
