<svg width="40" height="40" viewBox="0 0 40 40" fill="none" xmlns="http://www.w3.org/2000/svg">
<path fill-rule="evenodd" clip-rule="evenodd" d="M28.2821 26.3579C28.7703 25.841 29.5617 25.841 30.0499 26.3579L34.2166 30.7696C34.7047 31.2865 34.7047 32.1245 34.2166 32.6414C33.7284 33.1583 32.937 33.1583 32.4488 32.6414L28.2821 28.2296C27.794 27.7128 27.794 26.8747 28.2821 26.3579Z" fill="#29D305"/>
<path fill-rule="evenodd" clip-rule="evenodd" d="M34.2166 26.3579C34.7047 26.8747 34.7047 27.7128 34.2166 28.2296L30.0499 32.6414C29.5617 33.1583 28.7703 33.1583 28.2821 32.6414C27.794 32.1245 27.794 31.2865 28.2821 30.7696L32.4488 26.3579C32.937 25.841 33.7284 25.841 34.2166 26.3579Z" fill="#29D305"/>
<path fill-rule="evenodd" clip-rule="evenodd" d="M32.9167 24.6471H7.08333C4.55203 24.6471 2.5 26.8198 2.5 29.5C2.5 32.1802 4.55203 34.3529 7.08333 34.3529H32.9167C35.448 34.3529 37.5 32.1802 37.5 29.5C37.5 26.8198 35.448 24.6471 32.9167 24.6471ZM7.08333 22C3.17132 22 0 25.3579 0 29.5C0 33.6421 3.17132 37 7.08333 37H32.9167C36.8287 37 40 33.6421 40 29.5C40 25.3579 36.8287 22 32.9167 22H7.08333Z" fill="black"/>
<path fill-rule="evenodd" clip-rule="evenodd" d="M28.2821 7.35787C28.7703 6.841 29.5617 6.841 30.0499 7.35787L34.2166 11.7696C34.7047 12.2865 34.7047 13.1245 34.2166 13.6414C33.7284 14.1583 32.937 14.1583 32.4488 13.6414L28.2821 9.22962C27.794 8.71275 27.794 7.87474 28.2821 7.35787Z" fill="black"/>
<path fill-rule="evenodd" clip-rule="evenodd" d="M34.2166 7.35787C34.7047 7.87474 34.7047 8.71275 34.2166 9.22962L30.0499 13.6414C29.5617 14.1583 28.7703 14.1583 28.2821 13.6414C27.794 13.1245 27.794 12.2865 28.2821 11.7696L32.4488 7.35787C32.937 6.841 33.7284 6.841 34.2166 7.35787Z" fill="black"/>
<path fill-rule="evenodd" clip-rule="evenodd" d="M32.9167 5.64706H7.08333C4.55203 5.64706 2.5 7.81979 2.5 10.5C2.5 13.1802 4.55203 15.3529 7.08333 15.3529H32.9167C35.448 15.3529 37.5 13.1802 37.5 10.5C37.5 7.81979 35.448 5.64706 32.9167 5.64706ZM7.08333 3C3.17132 3 0 6.35786 0 10.5C0 14.6421 3.17132 18 7.08333 18H32.9167C36.8287 18 40 14.6421 40 10.5C40 6.35786 36.8287 3 32.9167 3H7.08333Z" fill="black"/>
</svg>
