<svg width="40" height="40" viewBox="0 0 40 40" fill="none" xmlns="http://www.w3.org/2000/svg">
<path fill-rule="evenodd" clip-rule="evenodd" d="M28.4495 18.408C23.4733 18.408 19.3474 22.6414 19.3474 27.9794C19.3474 33.3174 23.4733 37.5508 28.4495 37.5508C33.4256 37.5508 37.5515 33.3174 37.5515 27.9794C37.5515 22.6414 33.4256 18.408 28.4495 18.408ZM16.8984 27.9794C16.8984 21.3926 22.0193 15.959 28.4495 15.959C34.8796 15.959 40.0005 21.3926 40.0005 27.9794C40.0005 34.5662 34.8796 39.9998 28.4495 39.9998C22.0193 39.9998 16.8984 34.5662 16.8984 27.9794Z" fill="#29D305"/>
<path fill-rule="evenodd" clip-rule="evenodd" d="M28.4491 22.5308C29.1254 22.5308 29.6736 23.079 29.6736 23.7553V33.143C29.6736 33.8193 29.1254 34.3675 28.4491 34.3675C27.7728 34.3675 27.2246 33.8193 27.2246 33.143V23.7553C27.2246 23.079 27.7728 22.5308 28.4491 22.5308Z" fill="black"/>
<path fill-rule="evenodd" clip-rule="evenodd" d="M29.429 23.0201C29.8347 23.5612 29.7251 24.3287 29.1841 24.7344L25.429 27.5508C24.888 27.9565 24.1205 27.8469 23.7147 27.3059C23.3089 26.7648 23.4186 25.9973 23.9596 25.5916L27.7147 22.7752C28.2557 22.3695 29.0232 22.4791 29.429 23.0201Z" fill="black"/>
<path fill-rule="evenodd" clip-rule="evenodd" d="M27.4696 23.0201C27.8753 22.4791 28.6429 22.3695 29.1839 22.7752L32.939 25.5916C33.48 25.9973 33.5896 26.7648 33.1839 27.3059C32.7781 27.8469 32.0106 27.9565 31.4696 27.5508L27.7145 24.7344C27.1735 24.3287 27.0638 23.5612 27.4696 23.0201Z" fill="black"/>
<path fill-rule="evenodd" clip-rule="evenodd" d="M3.78479 2.44898C3.42545 2.44898 3.08396 2.59005 2.83462 2.83618C2.58583 3.08179 2.44898 3.41153 2.44898 3.75196V31.5542C2.44898 31.8946 2.58583 32.2243 2.83462 32.4699C3.08396 32.7161 3.42545 32.8571 3.78479 32.8571H14.026C14.7022 32.8571 15.2505 33.4054 15.2505 34.0816C15.2505 34.7579 14.7022 35.3061 14.026 35.3061H3.78479C2.78606 35.3061 1.82511 34.9146 1.11414 34.2128C0.402644 33.5104 0 32.5544 0 31.5542V3.75196C0 2.75174 0.402644 1.79573 1.11414 1.09336C1.82511 0.391508 2.78606 0 3.78479 0H21.927C22.9251 0.000210392 23.8856 0.391376 24.5963 1.09251L29.4987 5.93205C30.2095 6.63417 30.612 7.58976 30.6122 8.58928V13.8619C30.6122 14.5381 30.064 15.0863 29.3878 15.0863C28.7115 15.0863 28.1633 14.5381 28.1633 13.8619V8.58981C28.1633 8.58972 28.1633 8.5899 28.1633 8.58981C28.1631 8.2497 28.0264 7.92005 27.7779 7.6746L22.8764 2.83589C22.6272 2.59005 22.286 2.44912 21.927 2.44898C21.927 2.44898 21.9271 2.44898 21.927 2.44898H3.78479Z" fill="black"/>
<path fill-rule="evenodd" clip-rule="evenodd" d="M17.1029 11.5765C17.4808 11.3687 17.906 11.2601 18.3405 11.2653C18.775 11.2706 19.1973 11.3894 19.5699 11.6059C19.942 11.822 20.2504 12.127 20.4744 12.4873C20.4802 12.4967 20.486 12.5063 20.4916 12.5159L21.9963 15.0899C22.3376 15.6737 22.141 16.4237 21.5572 16.765C20.9734 17.1063 20.2234 16.9096 19.8821 16.3258L18.3894 13.7724C18.3715 13.7461 18.3529 13.7312 18.3398 13.7235C18.3259 13.7155 18.3162 13.7142 18.3109 13.7141C18.3055 13.7141 18.2963 13.7151 18.2831 13.7224C18.2692 13.73 18.2486 13.746 18.2289 13.7762L18.2273 13.7786L14.6231 19.2715C14.43 19.5657 14.1197 19.7627 13.7713 19.8121C13.4229 19.8615 13.0701 19.7586 12.8028 19.5297L10.5826 17.6281L10.5824 17.6279C10.5668 17.6146 10.554 17.6092 10.5464 17.607C10.539 17.6049 10.5329 17.6047 10.527 17.6057C10.521 17.6067 10.5105 17.6097 10.4969 17.619C10.4905 17.6234 10.4833 17.6292 10.4758 17.6368L7.82144 23.4692H14.0282C14.7045 23.4692 15.2527 24.0174 15.2527 24.6937C15.2527 25.37 14.7045 25.9182 14.0282 25.9182H5.91883C5.5024 25.9182 5.11452 25.7066 4.88916 25.3564C4.66379 25.0062 4.63184 24.5655 4.80433 24.1865L8.29497 16.5165C8.31709 16.4679 8.34236 16.4208 8.37062 16.3755C8.56195 16.0689 8.81469 15.802 9.11675 15.596C9.41911 15.3897 9.76318 15.2497 10.1276 15.1895C10.4922 15.1292 10.8644 15.1509 11.2192 15.2523C11.5736 15.3535 11.8988 15.5309 12.1757 15.7681C12.1758 15.7682 12.1759 15.7683 12.176 15.7684L13.339 16.7645L16.1781 12.4376C16.1784 12.4371 16.1788 12.4366 16.1791 12.4361C16.411 12.0812 16.7261 11.7837 17.1029 11.5765Z" fill="black"/>
</svg>
