<svg width="40" height="40" viewBox="0 0 40 40" fill="none" xmlns="http://www.w3.org/2000/svg">
<path fill-rule="evenodd" clip-rule="evenodd" d="M4.5 19.5C4.5 18.8096 5.18879 18.25 6.03846 18.25H10.9615C11.8112 18.25 12.5 18.8096 12.5 19.5C12.5 20.1904 11.8112 20.75 10.9615 20.75H6.03846C5.18879 20.75 4.5 20.1904 4.5 19.5Z" fill="black"/>
<path fill-rule="evenodd" clip-rule="evenodd" d="M20 19.5C20 18.8096 20.6888 18.25 21.5385 18.25H26.4615C27.3112 18.25 28 18.8096 28 19.5C28 20.1904 27.3112 20.75 26.4615 20.75H21.5385C20.6888 20.75 20 20.1904 20 19.5Z" fill="black"/>
<path fill-rule="evenodd" clip-rule="evenodd" d="M32 19.5C32 18.8096 32.6888 18.25 33.5385 18.25H38.4615C39.3112 18.25 40 18.8096 40 19.5C40 20.1904 39.3112 20.75 38.4615 20.75H33.5385C32.6888 20.75 32 20.1904 32 19.5Z" fill="black"/>
<rect x="1.25" y="15.25" width="14.5" height="8.5" rx="4.25" stroke="#29D305" stroke-width="2.5" stroke-linecap="square" stroke-linejoin="round"/>
</svg>
