<svg width="40" height="40" viewBox="0 0 40 40" fill="none" xmlns="http://www.w3.org/2000/svg">
<path fill-rule="evenodd" clip-rule="evenodd" d="M9.66208 12.5295C8.86096 12.5295 8.21153 13.1309 8.21153 13.8728C8.21153 14.6147 8.86096 15.2161 9.66208 15.2161C10.4632 15.2161 11.1126 14.6147 11.1126 13.8728C11.1126 13.1309 10.4632 12.5295 9.66208 12.5295ZM5.75 13.8728C5.75 11.872 7.5015 10.25 9.66208 10.25C11.8227 10.25 13.5742 11.872 13.5742 13.8728C13.5742 15.8736 11.8227 17.4956 9.66208 17.4956C7.5015 17.4956 5.75 15.8736 5.75 13.8728Z" fill="#29D305"/>
<path fill-rule="evenodd" clip-rule="evenodd" d="M5.33398 1.28322C5.33398 0.574517 5.93094 0 6.66732 0H18.8967C19.9568 0.000217832 20.9737 0.405451 21.7236 1.12667L39.6101 18.3409C40.1308 18.8421 40.1308 19.6546 39.6101 20.1557C39.0894 20.6568 38.2452 20.6568 37.7245 20.1557L19.8386 2.942C19.8385 2.9419 19.8387 2.94209 19.8386 2.942C19.5887 2.70184 19.2498 2.56659 18.8967 2.56644C18.8966 2.56644 18.8967 2.56644 18.8967 2.56644H6.66732C5.93094 2.56644 5.33398 1.99192 5.33398 1.28322Z" fill="black"/>
<path fill-rule="evenodd" clip-rule="evenodd" d="M1.17157 6.26035C1.92172 5.5384 2.93913 5.13281 4 5.13281H14.896C15.9565 5.13371 16.9744 5.53989 17.7238 6.26205L35.0565 22.9416C35.8064 23.6635 36.2279 24.6427 36.2279 25.6635C36.2279 26.6843 35.8066 27.6633 35.0567 28.3852L24.1627 38.8715C23.7912 39.2293 23.3501 39.513 22.8647 39.7067C22.3792 39.9003 21.8588 39.9999 21.3333 39.9999C20.8078 39.9999 20.2875 39.9003 19.802 39.7067C19.3165 39.513 18.8755 39.2293 18.504 38.8715L1.17097 22.1899C0.799593 21.8323 0.504757 21.4074 0.30389 20.9402C0.103102 20.4732 -0.000158445 19.9727 1.82485e-07 19.4672V8.98247C1.82485e-07 7.96148 0.421428 6.9823 1.17157 6.26035ZM14.8953 7.69925H4C3.64638 7.69925 3.30724 7.83445 3.05719 8.0751C2.80714 8.31575 2.66667 8.64214 2.66667 8.98247V19.4672C2.66659 19.6358 2.70101 19.8033 2.76796 19.959C2.83486 20.1146 2.93293 20.256 3.05659 20.3752C3.05669 20.3753 3.05649 20.3751 3.05659 20.3752L20.3899 37.0571C20.5137 37.1763 20.6611 37.2712 20.8229 37.3357C20.9847 37.4003 21.1582 37.4335 21.3333 37.4335C21.5085 37.4335 21.682 37.4003 21.8438 37.3357C22.0056 37.2712 22.1526 37.1766 22.2764 37.0574L33.1708 26.5707C33.4208 26.3301 33.5612 26.0037 33.5612 25.6635C33.5612 25.3232 33.4208 24.9969 33.1708 24.7562L15.8377 8.07628C15.588 7.83567 15.2486 7.69968 14.8953 7.69925Z" fill="black"/>
</svg>
