<svg width="40" height="40" viewBox="0 0 40 40" fill="none" xmlns="http://www.w3.org/2000/svg">
<path fill-rule="evenodd" clip-rule="evenodd" d="M5 4.5C3.61929 4.5 2.5 5.61929 2.5 7C2.5 8.38071 3.61929 9.5 5 9.5C6.38071 9.5 7.5 8.38071 7.5 7C7.5 5.61929 6.38071 4.5 5 4.5ZM0 7C0 4.23858 2.23858 2 5 2C7.76142 2 10 4.23858 10 7C10 9.76142 7.76142 12 5 12C2.23858 12 0 9.76142 0 7Z" fill="#29D305"/>
<path fill-rule="evenodd" clip-rule="evenodd" d="M5 17.5C3.61929 17.5 2.5 18.6193 2.5 20C2.5 21.3807 3.61929 22.5 5 22.5C6.38071 22.5 7.5 21.3807 7.5 20C7.5 18.6193 6.38071 17.5 5 17.5ZM0 20C0 17.2386 2.23858 15 5 15C7.76142 15 10 17.2386 10 20C10 22.7614 7.76142 25 5 25C2.23858 25 0 22.7614 0 20Z" fill="#29D305"/>
<path fill-rule="evenodd" clip-rule="evenodd" d="M5 30.5C3.61929 30.5 2.5 31.6193 2.5 33C2.5 34.3807 3.61929 35.5 5 35.5C6.38071 35.5 7.5 34.3807 7.5 33C7.5 31.6193 6.38071 30.5 5 30.5ZM0 33C0 30.2386 2.23858 28 5 28C7.76142 28 10 30.2386 10 33C10 35.7614 7.76142 38 5 38C2.23858 38 0 35.7614 0 33Z" fill="#29D305"/>
<path fill-rule="evenodd" clip-rule="evenodd" d="M14 7.25C14 6.55964 14.5291 6 15.1818 6H38.8182C39.4709 6 40 6.55964 40 7.25C40 7.94036 39.4709 8.5 38.8182 8.5H15.1818C14.5291 8.5 14 7.94036 14 7.25Z" fill="black"/>
<path fill-rule="evenodd" clip-rule="evenodd" d="M14 20.25C14 19.5596 14.5291 19 15.1818 19H38.8182C39.4709 19 40 19.5596 40 20.25C40 20.9404 39.4709 21.5 38.8182 21.5H15.1818C14.5291 21.5 14 20.9404 14 20.25Z" fill="black"/>
<path fill-rule="evenodd" clip-rule="evenodd" d="M14 33.25C14 32.5596 14.5291 32 15.1818 32H38.8182C39.4709 32 40 32.5596 40 33.25C40 33.9404 39.4709 34.5 38.8182 34.5H15.1818C14.5291 34.5 14 33.9404 14 33.25Z" fill="black"/>
</svg>
