<svg width="40" height="40" viewBox="0 0 40 40" fill="none" xmlns="http://www.w3.org/2000/svg">
<path fill-rule="evenodd" clip-rule="evenodd" d="M26.3515 6.35147C26.8201 5.88284 27.5799 5.88284 28.0485 6.35147L33.6485 11.9515C34.1172 12.4201 34.1172 13.1799 33.6485 13.6485C33.1799 14.1172 32.4201 14.1172 31.9515 13.6485L26.3515 8.04853C25.8828 7.5799 25.8828 6.8201 26.3515 6.35147Z" fill="#29D305"/>
<path fill-rule="evenodd" clip-rule="evenodd" d="M33.6485 6.35147C34.1172 6.8201 34.1172 7.5799 33.6485 8.04853L28.0485 13.6485C27.5799 14.1172 26.8201 14.1172 26.3515 13.6485C25.8828 13.1799 25.8828 12.4201 26.3515 11.9515L31.9515 6.35147C32.4201 5.88284 33.1799 5.88284 33.6485 6.35147Z" fill="#29D305"/>
<path fill-rule="evenodd" clip-rule="evenodd" d="M2.99567 3.04703C2.69825 3.49286 2.47423 4.17962 2.47423 5V35C2.47423 35.8204 2.69825 36.5071 2.99567 36.953C3.29811 37.4063 3.58395 37.5 3.73883 37.5H36.2612C36.4161 37.5 36.7019 37.4063 37.0043 36.953C37.3018 36.5071 37.5258 35.8204 37.5258 35V5C37.5258 4.17962 37.3018 3.49286 37.0043 3.04703C36.7019 2.59369 36.4161 2.5 36.2612 2.5H3.73883C3.58395 2.5 3.29811 2.59369 2.99567 3.04703ZM0.94403 1.64967C1.54704 0.745777 2.51206 0 3.73883 0H36.2612C37.4879 0 38.453 0.745777 39.056 1.64967C39.664 2.56107 40 3.74931 40 5V35C40 36.2507 39.664 37.4389 39.056 38.3503C38.453 39.2542 37.4879 40 36.2612 40H3.73883C2.51206 40 1.54704 39.2542 0.94403 38.3503C0.336008 37.4389 0 36.2507 0 35V5C0 3.74931 0.336008 2.56107 0.94403 1.64967Z" fill="black"/>
<path fill-rule="evenodd" clip-rule="evenodd" d="M6 29.5C6 27.0147 8.08934 25 10.6667 25H29.3333C31.9107 25 34 27.0147 34 29.5C34 31.9853 31.9107 34 29.3333 34H10.6667C8.08934 34 6 31.9853 6 29.5ZM10.6667 27.4545C9.49515 27.4545 8.54545 28.3703 8.54545 29.5C8.54545 30.6297 9.49515 31.5455 10.6667 31.5455H29.3333C30.5048 31.5455 31.4545 30.6297 31.4545 29.5C31.4545 28.3703 30.5048 27.4545 29.3333 27.4545H10.6667Z" fill="black"/>
</svg>
