<svg width="40" height="41" viewBox="0 0 40 41" fill="none" xmlns="http://www.w3.org/2000/svg">
<path fill-rule="evenodd" clip-rule="evenodd" d="M36 10.5H4C3.17157 10.5 2.5 11.1716 2.5 12V29C2.5 29.8284 3.17157 30.5 4 30.5H36C36.8284 30.5 37.5 29.8284 37.5 29V12C37.5 11.1716 36.8284 10.5 36 10.5ZM4 8C1.79086 8 0 9.79086 0 12V29C0 31.2091 1.79086 33 4 33H36C38.2091 33 40 31.2091 40 29V12C40 9.79086 38.2091 8 36 8H4Z" fill="black"/>
<path fill-rule="evenodd" clip-rule="evenodd" d="M28.3265 15.866C27.8783 16.3403 27.8934 17.0939 28.3603 17.5493L31.386 20.5L28.3603 23.4507C27.8934 23.9061 27.8783 24.6597 28.3265 25.134C28.7747 25.6083 29.5165 25.6236 29.9834 25.1683L33.8897 21.3588C34.1199 21.1343 34.25 20.8242 34.25 20.5C34.25 20.1758 34.1199 19.8657 33.8897 19.6412L29.9834 15.8317C29.5165 15.3764 28.7747 15.3917 28.3265 15.866Z" fill="#29D305"/>
<path fill-rule="evenodd" clip-rule="evenodd" d="M9.5 18.7069C8.5097 18.7069 7.7069 19.5097 7.7069 20.5C7.7069 21.4903 8.5097 22.2931 9.5 22.2931C10.4903 22.2931 11.2931 21.4903 11.2931 20.5C11.2931 19.5097 10.4903 18.7069 9.5 18.7069ZM5.5 20.5C5.5 18.2909 7.29086 16.5 9.5 16.5C11.7091 16.5 13.5 18.2909 13.5 20.5C13.5 22.7091 11.7091 24.5 9.5 24.5C7.29086 24.5 5.5 22.7091 5.5 20.5Z" fill="black"/>
<path fill-rule="evenodd" clip-rule="evenodd" d="M20.5 18.7069C19.5097 18.7069 18.7069 19.5097 18.7069 20.5C18.7069 21.4903 19.5097 22.2931 20.5 22.2931C21.4903 22.2931 22.2931 21.4903 22.2931 20.5C22.2931 19.5097 21.4903 18.7069 20.5 18.7069ZM16.5 20.5C16.5 18.2909 18.2909 16.5 20.5 16.5C22.7091 16.5 24.5 18.2909 24.5 20.5C24.5 22.7091 22.7091 24.5 20.5 24.5C18.2909 24.5 16.5 22.7091 16.5 20.5Z" fill="black"/>
</svg>
