<svg width="40" height="40" viewBox="0 0 40 40" fill="none" xmlns="http://www.w3.org/2000/svg">
<g clip-path="url(#clip0)">
<path d="M37.6169 4.27437L27.6169 0.274365C26.7252 -0.0914551 25.7253 -0.0914551 24.8335 0.274365L13.7335 4.66667C14.1835 4.54103 13.5845 4.69036 13.7335 4.66667C13.7335 4.66667 13.8826 4.68281 13.7335 4.65912L3.41688 0.591033C3.03735 0.437066 2.62562 0.379359 2.21839 0.423056C1.81116 0.466752 1.42105 0.610495 1.08283 0.841477C0.744604 1.07246 0.468761 1.38351 0.27987 1.74692C0.0909792 2.11034 -0.00509428 2.51483 0.00020816 2.92437V26.8744C-0.000684023 27.6233 0.222674 28.3553 0.641506 28.9761C1.06034 29.5969 1.65546 30.0781 2.35021 30.3577L12.3502 34.3577C13.244 34.7131 14.2398 34.7131 15.1335 34.3577L19.9169 32.4077C20.0701 32.3464 20.2097 32.2556 20.3278 32.1403C20.4459 32.0251 20.5402 31.8877 20.6052 31.736C20.6702 31.5843 20.7046 31.4214 20.7067 31.2564C20.7087 31.0914 20.6782 30.9276 20.6169 30.7744C20.5556 30.6212 20.4647 30.4815 20.3495 30.3634C20.2342 30.2453 20.0969 30.1511 19.9452 30.0861C19.7935 30.0211 19.6305 29.9866 19.4655 29.9846C19.3005 29.9826 19.1368 30.0131 18.9835 30.0744L14.9835 31.741V6.94783L15.1169 6.89103L24.9835 2.9077V13.7577C24.9835 14.0892 25.1152 14.4072 25.3497 14.6416C25.5841 14.876 25.902 15.0077 26.2335 15.0077C26.5651 15.0077 26.883 14.876 27.1174 14.6416C27.3518 14.4072 27.4835 14.0892 27.4835 13.7577V2.9077L36.6835 6.59103C36.9178 6.68386 37.1191 6.84446 37.2616 7.05228C37.4041 7.26011 37.4814 7.50571 37.4835 7.7577V15.0077C37.4835 15.3392 37.6152 15.6572 37.8497 15.8916C38.0841 16.126 38.402 16.2577 38.7335 16.2577C39.0651 16.2577 39.383 16.126 39.6174 15.8916C39.8518 15.6572 39.9835 15.3392 39.9835 15.0077V7.7577C39.9854 7.00636 39.7605 6.27195 39.3382 5.65048C38.916 5.02901 38.3161 4.54941 37.6169 4.27437ZM3.26688 28.041C3.03441 27.9475 2.83543 27.7862 2.69575 27.5782C2.55606 27.3702 2.48213 27.1249 2.48354 26.8744V2.9077L12.4835 6.89103V31.691L3.26688 28.041Z" fill="black"/>
<path d="M31.2676 39.9999C30.8878 40.0052 30.5118 39.9239 30.1682 39.7622C29.8245 39.6005 29.5222 39.3626 29.2842 39.0666C26.2009 35.1166 22.5176 29.7166 22.5176 26.3999C22.5176 25.2508 22.7439 24.113 23.1836 23.0514C23.6234 21.9898 24.2679 21.0252 25.0804 20.2127C25.8929 19.4002 26.8575 18.7557 27.9191 18.316C28.9807 17.8762 30.1185 17.6499 31.2676 17.6499C32.4166 17.6499 33.5545 17.8762 34.6161 18.316C35.6777 18.7557 36.6423 19.4002 37.4548 20.2127C38.2673 21.0252 38.9118 21.9898 39.3515 23.0514C39.7913 24.113 40.0176 25.2508 40.0176 26.3999C40.0176 29.7332 36.3176 35.1166 33.2343 39.0666C32.9988 39.3613 32.6994 39.5985 32.3586 39.7602C32.0179 39.9219 31.6447 40.0039 31.2676 39.9999ZM31.2676 20.1166C29.6113 20.121 28.0242 20.7809 26.853 21.952C25.6819 23.1232 25.022 24.7103 25.0176 26.3666C25.0176 28.2999 27.4009 32.5666 31.2676 37.4999C35.1176 32.4999 37.5176 28.2999 37.5176 26.3666C37.5132 24.7103 36.8533 23.1232 35.6821 21.952C34.511 20.7809 32.9238 20.121 31.2676 20.1166Z" fill="black"/>
<path fill-rule="evenodd" clip-rule="evenodd" d="M31.4 22C28.9699 22 27 23.9699 27 26.4C27 28.83 28.9699 30.8 31.4 30.8C33.83 30.8 35.8 28.83 35.8 26.4C35.8 23.9699 33.83 22 31.4 22ZM29.5143 26.4C29.5143 25.3585 30.3585 24.5143 31.4 24.5143C32.4414 24.5143 33.2857 25.3585 33.2857 26.4C33.2857 27.4414 32.4414 28.2857 31.4 28.2857C30.3585 28.2857 29.5143 27.4414 29.5143 26.4Z" fill="#29D305"/>
</g>
<defs>
<clipPath id="clip0">
<rect width="40" height="40" fill="white"/>
</clipPath>
</defs>
</svg>
