<svg width="40" height="40" viewBox="0 0 40 40" fill="none" xmlns="http://www.w3.org/2000/svg">
<path d="M0 13C0 10.2386 2.23858 8 5 8H35C37.7614 8 40 10.2386 40 13C40 15.7614 37.7614 18 35 18H5C2.23858 18 0 15.7614 0 13Z" fill="white"/>
<path fill-rule="evenodd" clip-rule="evenodd" d="M35 10.5H5C3.61929 10.5 2.5 11.6193 2.5 13C2.5 14.3807 3.61929 15.5 5 15.5H35C36.3807 15.5 37.5 14.3807 37.5 13C37.5 11.6193 36.3807 10.5 35 10.5ZM5 8C2.23858 8 0 10.2386 0 13C0 15.7614 2.23858 18 5 18H35C37.7614 18 40 15.7614 40 13C40 10.2386 37.7614 8 35 8H5Z" fill="black"/>
<path d="M0 28C0 25.2386 2.23858 23 5 23H35C37.7614 23 40 25.2386 40 28C40 30.7614 37.7614 33 35 33H5C2.23858 33 0 30.7614 0 28Z" fill="white"/>
<path fill-rule="evenodd" clip-rule="evenodd" d="M35 25.5H5C3.61929 25.5 2.5 26.6193 2.5 28C2.5 29.3807 3.61929 30.5 5 30.5H35C36.3807 30.5 37.5 29.3807 37.5 28C37.5 26.6193 36.3807 25.5 35 25.5ZM5 23C2.23858 23 0 25.2386 0 28C0 30.7614 2.23858 33 5 33H35C37.7614 33 40 30.7614 40 28C40 25.2386 37.7614 23 35 23H5Z" fill="black"/>
<path fill-rule="evenodd" clip-rule="evenodd" d="M3.75 13C3.75 12.3096 4.30964 11.75 5 11.75H14.1667C14.857 11.75 15.4167 12.3096 15.4167 13C15.4167 13.6904 14.857 14.25 14.1667 14.25H5C4.30964 14.25 3.75 13.6904 3.75 13Z" fill="#29D305"/>
<path fill-rule="evenodd" clip-rule="evenodd" d="M3.75 28C3.75 27.3096 4.30964 26.75 5 26.75H25C25.6904 26.75 26.25 27.3096 26.25 28C26.25 28.6904 25.6904 29.25 25 29.25H5C4.30964 29.25 3.75 28.6904 3.75 28Z" fill="#29D305"/>
</svg>
