<svg width="40" height="40" viewBox="0 0 40 40" fill="none" xmlns="http://www.w3.org/2000/svg">
<path fill-rule="evenodd" clip-rule="evenodd" d="M9 26.3C12.4794 26.3 15.3 23.4794 15.3 20C15.3 16.5206 12.4794 13.7 9 13.7C5.52061 13.7 2.7 16.5206 2.7 20C2.7 23.4794 5.52061 26.3 9 26.3ZM9 29C13.9706 29 18 24.9706 18 20C18 15.0294 13.9706 11 9 11C4.02944 11 0 15.0294 0 20C0 24.9706 4.02944 29 9 29Z" fill="black"/>
<path d="M11.6667 19.3333C11.6667 21.1743 10.1743 22.6667 8.33333 22.6667C6.49238 22.6667 5 21.1743 5 19.3333C5 17.4924 6.49238 16 8.33333 16C10.1743 16 11.6667 17.4924 11.6667 19.3333Z" fill="white"/>
<path fill-rule="evenodd" clip-rule="evenodd" d="M9 21C9.55228 21 10 20.5523 10 20C10 19.4477 9.55228 19 9 19C8.44772 19 8 19.4477 8 20C8 20.5523 8.44772 21 9 21ZM9 24C11.2091 24 13 22.2091 13 20C13 17.7909 11.2091 16 9 16C6.79086 16 5 17.7909 5 20C5 22.2091 6.79086 24 9 24Z" fill="#29D305"/>
<path fill-rule="evenodd" clip-rule="evenodd" d="M31 26.3C34.4794 26.3 37.3 23.4794 37.3 20C37.3 16.5206 34.4794 13.7 31 13.7C27.5206 13.7 24.7 16.5206 24.7 20C24.7 23.4794 27.5206 26.3 31 26.3ZM31 29C35.9706 29 40 24.9706 40 20C40 15.0294 35.9706 11 31 11C26.0294 11 22 15.0294 22 20C22 24.9706 26.0294 29 31 29Z" fill="black"/>
</svg>
