<svg width="40" height="40" viewBox="0 0 40 40" fill="none" xmlns="http://www.w3.org/2000/svg">
<path fill-rule="evenodd" clip-rule="evenodd" d="M26.25 14.1665C22.1079 14.1665 18.75 17.5244 18.75 21.6665C18.75 25.8086 22.1079 29.1665 26.25 29.1665C30.3921 29.1665 33.75 25.8086 33.75 21.6665C33.75 17.5244 30.3921 14.1665 26.25 14.1665ZM16.25 21.6665C16.25 16.1437 20.7272 11.6665 26.25 11.6665C31.7728 11.6665 36.25 16.1437 36.25 21.6665C36.25 27.1894 31.7728 31.6665 26.25 31.6665C20.7272 31.6665 16.25 27.1894 16.25 21.6665Z" fill="black"/>
<path fill-rule="evenodd" clip-rule="evenodd" d="M31.5537 26.9695C32.042 26.4814 32.8334 26.4815 33.3215 26.9697L39.6332 33.2831C40.1213 33.7713 40.1211 34.5628 39.6329 35.0508C39.1447 35.5389 38.3533 35.5388 37.8652 35.0506L31.5535 28.7373C31.0654 28.2491 31.0655 27.4576 31.5537 26.9695Z" fill="black"/>
<path fill-rule="evenodd" clip-rule="evenodd" d="M30 4.1665C31.3132 4.16629 32.6137 4.42478 33.827 4.92722C35.0404 5.42969 36.1429 6.16629 37.0716 7.09495C38.0002 8.02361 38.7368 9.12612 39.2393 10.3395C39.7418 11.5529 40.0003 12.8534 40 14.1667C39.9999 14.8571 39.4401 15.4166 38.7498 15.4165C38.0594 15.4164 37.4999 14.8566 37.5 14.1663C37.5002 13.1813 37.3063 12.206 36.9295 11.296C36.5527 10.386 36.0002 9.55917 35.3038 8.86272C34.6073 8.16626 33.7805 7.61384 32.8705 7.23701C31.9605 6.86018 30.9852 6.66632 30.0002 6.6665L10 6.6665C8.01088 6.6665 6.10322 7.45668 4.6967 8.8632C3.29018 10.2697 2.5 12.1774 2.5 14.1665C2.5 16.1556 3.29018 18.0633 4.6967 19.4698C6.10322 20.8763 8.01088 21.6665 10 21.6665H12.5C13.1904 21.6665 13.75 22.2262 13.75 22.9165C13.75 23.6069 13.1904 24.1665 12.5 24.1665H10C7.34784 24.1665 4.8043 23.1129 2.92893 21.2376C1.05357 19.3622 0 16.8187 0 14.1665C0 11.5143 1.05357 8.9708 2.92893 7.09544C4.8043 5.22007 7.34784 4.1665 10 4.1665H30C29.9999 4.1665 30.0001 4.1665 30 4.1665Z" fill="black"/>
<path fill-rule="evenodd" clip-rule="evenodd" d="M22.1 20.5C22.4314 20.5 22.7 20.7686 22.7 21.1C22.7 23.4196 24.5804 25.3 26.9 25.3C27.2314 25.3 27.5 25.5686 27.5 25.9C27.5 26.2314 27.2314 26.5 26.9 26.5C23.9177 26.5 21.5 24.0823 21.5 21.1C21.5 20.7686 21.7686 20.5 22.1 20.5Z" fill="#29D305" stroke="#29D305" stroke-linecap="round" stroke-linejoin="round"/>
</svg>
