<svg width="40" height="40" viewBox="0 0 40 40" fill="none" xmlns="http://www.w3.org/2000/svg">
<path fill-rule="evenodd" clip-rule="evenodd" d="M9.37142 1.01328e-05L9.375 0L30.6288 5.0664e-06C33.1119 0.00761599 35.4911 0.997375 37.2468 2.75316C39.0026 4.50895 39.9924 6.88813 40 9.37118L38.75 9.37501L40 9.37858C39.9929 11.8619 39.0033 14.2414 37.2473 15.9973C35.4914 17.7533 33.1119 18.7429 30.6286 18.75L30.625 17.5V18.75H9.375L9.37168 18.75C6.88818 18.7434 4.50829 17.7539 2.75219 15.9978C0.996085 14.2417 0.00659635 11.8618 0 9.37833L1.25 9.37501L6.95388e-07 9.37143C0.0071016 6.88816 0.996726 4.50863 2.75267 2.75268C4.50862 0.996735 6.88815 0.00711103 9.37142 1.01328e-05ZM2.5 9.37514C2.50575 11.1966 3.23188 12.942 4.51995 14.2301C5.80844 15.5185 7.55447 16.2447 9.3766 16.25H30.623C32.4452 16.2444 34.1911 15.518 35.4796 14.2296C36.7675 12.9416 37.4938 11.1966 37.5 9.37524C37.4935 7.55388 36.7671 5.80891 35.4791 4.52093C34.1907 3.23254 32.445 2.50607 30.623 2.50001H9.37687C7.55478 2.50566 5.80889 3.23199 4.52044 4.52045C3.2324 5.80849 2.50612 7.55367 2.5 9.37514Z" fill="black"/>
<path fill-rule="evenodd" clip-rule="evenodd" d="M9.37142 21.25L9.375 21.25L30.6288 21.25C33.1119 21.2576 35.4911 22.2474 37.2468 24.0032C39.0026 25.759 39.9924 28.1381 40 30.6212L38.75 30.625L40 30.6286C39.9929 33.1119 39.0033 35.4914 37.2473 37.2473C35.4914 39.0033 33.1119 39.9929 30.6286 40L30.625 38.75V40H9.375L9.37168 40C6.88818 39.9934 4.50829 39.0039 2.75219 37.2478C0.996085 35.4917 0.00659635 33.1118 0 30.6283L1.25 30.625L6.95388e-07 30.6214C0.0071016 28.1382 0.996726 25.7586 2.75267 24.0027C4.50862 22.2467 6.88815 21.2571 9.37142 21.25ZM2.5 30.6251C2.50575 32.4466 3.23188 34.192 4.51995 35.4801C5.80844 36.7685 7.55447 37.4947 9.3766 37.5H30.623C32.4452 37.4944 34.1911 36.768 35.4796 35.4796C36.7675 34.1916 37.4938 32.4466 37.5 30.6252C37.4935 28.8039 36.7671 27.0589 35.4791 25.7709C34.1907 24.4825 32.445 23.7561 30.623 23.75H9.37687C7.55478 23.7557 5.80889 24.482 4.52044 25.7704C3.2324 27.0585 2.50612 28.8037 2.5 30.6251Z" fill="black"/>
<path fill-rule="evenodd" clip-rule="evenodd" d="M9.375 7.5C8.33947 7.5 7.5 8.33947 7.5 9.375C7.5 10.4105 8.33947 11.25 9.375 11.25C10.4105 11.25 11.25 10.4105 11.25 9.375C11.25 8.33947 10.4105 7.5 9.375 7.5ZM5 9.375C5 6.95875 6.95875 5 9.375 5C11.7912 5 13.75 6.95875 13.75 9.375C13.75 11.7912 11.7912 13.75 9.375 13.75C6.95875 13.75 5 11.7912 5 9.375Z" fill="#29D305"/>
<path fill-rule="evenodd" clip-rule="evenodd" d="M30.625 28.75C29.5895 28.75 28.75 29.5895 28.75 30.625C28.75 31.6605 29.5895 32.5 30.625 32.5C31.6605 32.5 32.5 31.6605 32.5 30.625C32.5 29.5895 31.6605 28.75 30.625 28.75ZM26.25 30.625C26.25 28.2088 28.2088 26.25 30.625 26.25C33.0412 26.25 35 28.2088 35 30.625C35 33.0412 33.0412 35 30.625 35C28.2088 35 26.25 33.0412 26.25 30.625Z" fill="black"/>
</svg>
