<svg width="40" height="40" viewBox="0 0 40 40" fill="none" xmlns="http://www.w3.org/2000/svg">
<path fill-rule="evenodd" clip-rule="evenodd" d="M9 17.75C9 17.0596 9.54721 16.5 10.2222 16.5L29.7778 16.5C30.4528 16.5 31 17.0596 31 17.75C31 18.4404 30.4528 19 29.7778 19L10.2222 19C9.54721 19 9 18.4404 9 17.75Z" fill="#29D305"/>
<path fill-rule="evenodd" clip-rule="evenodd" d="M24.8992 27.9837H36.0297C38.2146 27.9837 40 26.1874 40 23.9537V11.03C40 8.79633 38.2146 7 36.0297 7H3.97032C1.78537 7 0 8.79633 0 11.03L2.06305e-05 23.9537C2.06305e-05 26.1874 1.78539 27.9837 3.97034 27.9837H14.5818L19.9469 33L24.8992 27.9837ZM36.0297 25.3359C36.7957 25.3359 37.4026 24.7091 37.4026 23.9537V11.03C37.4026 10.2746 36.7957 9.6478 36.0297 9.6478H3.97032C3.20428 9.6478 2.5974 10.2746 2.5974 11.03L2.59742 23.9537C2.59742 24.7091 3.2043 25.3359 3.97034 25.3359H15.799L19.8824 29.3344L23.8555 25.3359H36.0297Z" fill="black"/>
</svg>
