<svg width="40" height="40" viewBox="0 0 40 40" fill="none" xmlns="http://www.w3.org/2000/svg">
<path fill-rule="evenodd" clip-rule="evenodd" d="M0 11C0 7.13401 2.98477 4 6.66666 4H33.3333C37.0152 4 40 7.13401 40 11C40 14.866 37.0152 18 33.3333 18H6.66666C2.98477 18 0 14.866 0 11ZM6.66666 6.47059C4.28426 6.47059 2.35294 8.49848 2.35294 11C2.35294 13.5015 4.28426 15.5294 6.66666 15.5294H33.3333C35.7157 15.5294 37.647 13.5015 37.647 11C37.647 8.49847 35.7157 6.47059 33.3333 6.47059H6.66666Z" fill="black"/>
<path fill-rule="evenodd" clip-rule="evenodd" d="M0 29C0 25.134 2.98477 22 6.66666 22H33.3333C37.0152 22 40 25.134 40 29C40 32.866 37.0152 36 33.3333 36H6.66666C2.98477 36 0 32.866 0 29ZM6.66666 24.4706C4.28426 24.4706 2.35294 26.4985 2.35294 29C2.35294 31.5015 4.28426 33.5294 6.66666 33.5294H33.3333C35.7157 33.5294 37.647 31.5015 37.647 29C37.647 26.4985 35.7157 24.4706 33.3333 24.4706H6.66666Z" fill="#29D305"/>
</svg>
