<svg width="40" height="40" viewBox="0 0 40 40" fill="none" xmlns="http://www.w3.org/2000/svg">
<path fill-rule="evenodd" clip-rule="evenodd" d="M9.58732 32.5C8.84011 32.5 8.23438 33.1057 8.23438 33.8529C8.23438 34.6002 8.84011 35.2059 9.58732 35.2059C10.3345 35.2059 10.9403 34.6002 10.9403 33.8529C10.9403 33.1057 10.3345 32.5 9.58732 32.5ZM6.23438 33.8529C6.23438 32.0012 7.73554 30.5 9.58732 30.5C11.4391 30.5 12.9403 32.0012 12.9403 33.8529C12.9403 35.7047 11.4391 37.2059 9.58732 37.2059C7.73554 37.2059 6.23438 35.7047 6.23438 33.8529Z" fill="black"/>
<path fill-rule="evenodd" clip-rule="evenodd" d="M19.9994 32.5C19.2522 32.5 18.6465 33.1057 18.6465 33.8529C18.6465 34.6002 19.2522 35.2059 19.9994 35.2059C20.7466 35.2059 21.3524 34.6002 21.3524 33.8529C21.3524 33.1057 20.7466 32.5 19.9994 32.5ZM16.6465 33.8529C16.6465 32.0012 18.1476 30.5 19.9994 30.5C21.8512 30.5 23.3524 32.0012 23.3524 33.8529C23.3524 35.7047 21.8512 37.2059 19.9994 37.2059C18.1476 37.2059 16.6465 35.7047 16.6465 33.8529Z" fill="black"/>
<path fill-rule="evenodd" clip-rule="evenodd" d="M30.4115 32.5C29.6643 32.5 29.0586 33.1057 29.0586 33.8529C29.0586 34.6002 29.6643 35.2059 30.4115 35.2059C31.1587 35.2059 31.7645 34.6002 31.7645 33.8529C31.7645 33.1057 31.1587 32.5 30.4115 32.5ZM27.0586 33.8529C27.0586 32.0012 28.5598 30.5 30.4115 30.5C32.2633 30.5 33.7645 32.0012 33.7645 33.8529C33.7645 35.7047 32.2633 37.2059 30.4115 37.2059C28.5598 37.2059 27.0586 35.7047 27.0586 33.8529Z" fill="#29D305"/>
<path fill-rule="evenodd" clip-rule="evenodd" d="M36 6H4C3.17157 6 2.5 6.67157 2.5 7.5V21.5C2.5 22.3284 3.17157 23 4 23H36C36.8284 23 37.5 22.3284 37.5 21.5V7.5C37.5 6.67157 36.8284 6 36 6ZM4 3.5C1.79086 3.5 0 5.29086 0 7.5V21.5C0 23.7091 1.79086 25.5 4 25.5H36C38.2091 25.5 40 23.7091 40 21.5V7.5C40 5.29086 38.2091 3.5 36 3.5H4Z" fill="black"/>
</svg>
