<svg width="40" height="40" viewBox="0 0 40 40" fill="none" xmlns="http://www.w3.org/2000/svg">
<path fill-rule="evenodd" clip-rule="evenodd" d="M38.7756 34.8447C39.4519 34.8447 40.0001 35.393 40.0001 36.0692C40.0001 37.1118 39.5859 38.1116 38.8488 38.8488C38.1116 39.5859 37.1118 40.0001 36.0692 40.0001C35.393 40.0001 34.8447 39.4519 34.8447 38.7756C34.8447 38.0993 35.393 37.5511 36.0692 37.5511C36.4622 37.5511 36.8392 37.395 37.1171 37.1171C37.395 36.8392 37.5511 36.4622 37.5511 36.0692C37.5511 35.393 38.0993 34.8447 38.7756 34.8447Z" fill="#29D305"/>
<path fill-rule="evenodd" clip-rule="evenodd" d="M26.5969 22.6655C27.2732 22.6655 27.8214 23.2138 27.8214 23.89C27.8214 24.9326 27.4072 25.9324 26.6701 26.6696C25.9329 27.4067 24.933 27.8209 23.8905 27.8209C23.2142 27.8209 22.666 27.2727 22.666 26.5964C22.666 25.9201 23.2142 25.3719 23.8905 25.3719C24.2835 25.3719 24.6605 25.2158 24.9384 24.9379C25.2163 24.66 25.3724 24.283 25.3724 23.89C25.3724 23.2138 25.9206 22.6655 26.5969 22.6655Z" fill="black"/>
<path fill-rule="evenodd" clip-rule="evenodd" d="M38.7753 24.019C39.4515 24.019 39.9998 24.5673 39.9998 25.2435V30.6563C39.9998 31.3326 39.4515 31.8808 38.7753 31.8808C38.099 31.8808 37.5508 31.3326 37.5508 30.6563V25.2435C37.5508 24.5673 38.099 24.019 38.7753 24.019Z" fill="#29D305"/>
<path fill-rule="evenodd" clip-rule="evenodd" d="M38.7753 14.5469C39.4515 14.5469 39.9998 15.0951 39.9998 15.7714V19.8309C39.9998 20.5072 39.4515 21.0554 38.7753 21.0554C38.099 21.0554 37.5508 20.5072 37.5508 19.8309V15.7714C37.5508 15.0951 38.099 14.5469 38.7753 14.5469Z" fill="#29D305"/>
<path fill-rule="evenodd" clip-rule="evenodd" d="M34.8447 7.65223C34.8447 6.97596 35.393 6.42773 36.0692 6.42773C37.1118 6.42773 38.1116 6.84188 38.8488 7.57906C39.5859 8.31624 40.0001 9.31607 40.0001 10.3586C40.0001 11.0349 39.4519 11.5831 38.7756 11.5831C38.0993 11.5831 37.5511 11.0349 37.5511 10.3586C37.5511 9.96559 37.395 9.58867 37.1171 9.31076C36.8392 9.03285 36.4622 8.87672 36.0692 8.87672C35.393 8.87672 34.8447 8.3285 34.8447 7.65223Z" fill="#29D305"/>
<path fill-rule="evenodd" clip-rule="evenodd" d="M25.3721 7.65223C25.3721 6.97596 25.9203 6.42773 26.5966 6.42773H30.6561C31.3324 6.42773 31.8806 6.97596 31.8806 7.65223C31.8806 8.3285 31.3324 8.87672 30.6561 8.87672H26.5966C25.9203 8.87672 25.3721 8.3285 25.3721 7.65223Z" fill="#29D305"/>
<path fill-rule="evenodd" clip-rule="evenodd" d="M24.0195 38.7753C24.0195 38.099 24.5678 37.5508 25.244 37.5508H30.6568C31.3331 37.5508 31.8813 38.099 31.8813 38.7753C31.8813 39.4515 31.3331 39.9998 30.6568 39.9998H25.244C24.5678 39.9998 24.0195 39.4515 24.0195 38.7753Z" fill="#29D305"/>
<path fill-rule="evenodd" clip-rule="evenodd" d="M14.5469 38.7753C14.5469 38.099 15.0951 37.5508 15.7714 37.5508H19.8309C20.5072 37.5508 21.0554 38.099 21.0554 38.7753C21.0554 39.4515 20.5072 39.9998 19.8309 39.9998H15.7714C15.0951 39.9998 14.5469 39.4515 14.5469 38.7753Z" fill="#29D305"/>
<path fill-rule="evenodd" clip-rule="evenodd" d="M7.65223 34.8447C8.3285 34.8447 8.87672 35.393 8.87672 36.0692C8.87672 36.4622 9.03285 36.8392 9.31076 37.1171C9.58867 37.395 9.96559 37.5511 10.3586 37.5511C11.0349 37.5511 11.5831 38.0993 11.5831 38.7756C11.5831 39.4519 11.0349 40.0001 10.3586 40.0001C9.31607 40.0001 8.31624 39.5859 7.57906 38.8488C6.84188 38.1116 6.42773 37.1118 6.42773 36.0692C6.42773 35.393 6.97596 34.8447 7.65223 34.8447Z" fill="#29D305"/>
<path fill-rule="evenodd" clip-rule="evenodd" d="M7.65223 25.3726C8.3285 25.3726 8.87672 25.9208 8.87672 26.5971V30.6566C8.87672 31.3329 8.3285 31.8811 7.65223 31.8811C6.97596 31.8811 6.42773 31.3329 6.42773 30.6566V26.5971C6.42773 25.9208 6.97596 25.3726 7.65223 25.3726Z" fill="#29D305"/>
<path fill-rule="evenodd" clip-rule="evenodd" d="M26.5966 14.5469C27.2728 14.5469 27.8211 15.0951 27.8211 15.7714V18.4777C27.8211 19.154 27.2728 19.7022 26.5966 19.7022C25.9203 19.7022 25.3721 19.154 25.3721 18.4777V15.7714C25.3721 15.0951 25.9203 14.5469 26.5966 14.5469Z" fill="black"/>
<path fill-rule="evenodd" clip-rule="evenodd" d="M26.5966 6.42773C27.2728 6.42773 27.8211 6.97596 27.8211 7.65223V10.3586C27.8211 11.0349 27.2728 11.5831 26.5966 11.5831C25.9203 11.5831 25.3721 11.0349 25.3721 10.3586V7.65223C25.3721 6.97596 25.9203 6.42773 26.5966 6.42773Z" fill="black"/>
<path fill-rule="evenodd" clip-rule="evenodd" d="M14.5469 26.5971C14.5469 25.9208 15.0951 25.3726 15.7714 25.3726H18.4777C19.154 25.3726 19.7022 25.9208 19.7022 26.5971C19.7022 27.2733 19.154 27.8215 18.4777 27.8215H15.7714C15.0951 27.8215 14.5469 27.2733 14.5469 26.5971Z" fill="black"/>
<path fill-rule="evenodd" clip-rule="evenodd" d="M6.42773 26.5971C6.42773 25.9208 6.97596 25.3726 7.65223 25.3726H10.3586C11.0349 25.3726 11.5831 25.9208 11.5831 26.5971C11.5831 27.2733 11.0349 27.8215 10.3586 27.8215H7.65223C6.97596 27.8215 6.42773 27.2733 6.42773 26.5971Z" fill="black"/>
<path fill-rule="evenodd" clip-rule="evenodd" d="M1.03423 1.03423C1.69643 0.372022 2.59457 0 3.53107 0H24.2902C25.2267 0 26.1249 0.372023 26.7871 1.03423C27.4493 1.69643 27.8213 2.59457 27.8213 3.53107V10.4508C27.8213 11.1271 27.2731 11.6753 26.5968 11.6753C25.9205 11.6753 25.3723 11.1271 25.3723 10.4508V3.53107C25.3723 3.24408 25.2583 2.96885 25.0554 2.76592C24.8524 2.56299 24.5772 2.44899 24.2902 2.44899H3.53107C3.24408 2.44899 2.96885 2.56299 2.76592 2.76592C2.56299 2.96885 2.44899 3.24408 2.44899 3.53107V24.2902C2.44899 24.5772 2.56299 24.8524 2.76592 25.0554C2.96885 25.2583 3.24408 25.3723 3.53107 25.3723H10.4508C11.1271 25.3723 11.6753 25.9205 11.6753 26.5968C11.6753 27.2731 11.1271 27.8213 10.4508 27.8213H3.53107C2.59457 27.8213 1.69643 27.4493 1.03423 26.7871C0.372023 26.1249 0 25.2267 0 24.2902V3.53107C0 2.59457 0.372022 1.69643 1.03423 1.03423Z" fill="black"/>
</svg>
