<svg width="40" height="40" viewBox="0 0 40 40" fill="none" xmlns="http://www.w3.org/2000/svg">
<path fill-rule="evenodd" clip-rule="evenodd" d="M4 2.66667C3.26362 2.66667 2.66667 3.26362 2.66667 4V36C2.66667 36.7364 3.26362 37.3333 4 37.3333H36C36.7364 37.3333 37.3333 36.7364 37.3333 36V4C37.3333 3.26362 36.7364 2.66667 36 2.66667H4ZM0 4C0 1.79086 1.79086 0 4 0H36C38.2091 0 40 1.79086 40 4V36C40 38.2091 38.2091 40 36 40H4C1.79086 40 0 38.2091 0 36V4Z" fill="black"/>
<path fill-rule="evenodd" clip-rule="evenodd" d="M0 12.9998C0 12.2635 0.596954 11.6665 1.33333 11.6665H38.6667C39.403 11.6665 40 12.2635 40 12.9998C40 13.7362 39.403 14.3332 38.6667 14.3332H1.33333C0.596954 14.3332 0 13.7362 0 12.9998Z" fill="black"/>
<path d="M7.39026 5.16994C7.66348 5.05719 7.95625 4.99945 8.25181 5C8.69619 5.00036 9.13053 5.1323 9.50003 5.3792C9.87005 5.62643 10.1584 5.97783 10.3287 6.38897C10.499 6.8001 10.5436 7.2525 10.4568 7.68895C10.37 8.1254 10.1557 8.52632 9.84099 8.84099C9.52633 9.15565 9.12542 9.36995 8.68896 9.45677C8.2525 9.54358 7.8001 9.49902 7.38896 9.32873C6.97783 9.15843 6.62643 8.87004 6.3792 8.50003C6.1323 8.13053 6.00036 7.69619 6 7.25182C5.99945 6.95626 6.05719 6.66348 6.16994 6.39026C6.28291 6.11648 6.44889 5.86773 6.65831 5.65831C6.86773 5.44889 7.11647 5.28292 7.39026 5.16994Z" fill="#29D305"/>
<path fill-rule="evenodd" clip-rule="evenodd" d="M13.5 7.25C13.5 6.55964 14.0596 6 14.75 6H19.25C19.9404 6 20.5 6.55964 20.5 7.25C20.5 7.94036 19.9404 8.5 19.25 8.5H14.75C14.0596 8.5 13.5 7.94036 13.5 7.25Z" fill="black"/>
<path fill-rule="evenodd" clip-rule="evenodd" d="M23 7.25C23 6.55964 23.5596 6 24.25 6H28.75C29.4404 6 30 6.55964 30 7.25C30 7.94036 29.4404 8.5 28.75 8.5H24.25C23.5596 8.5 23 7.94036 23 7.25Z" fill="black"/>
</svg>
