<svg width="40" height="40" viewBox="0 0 40 40" fill="none" xmlns="http://www.w3.org/2000/svg">
<path fill-rule="evenodd" clip-rule="evenodd" d="M0 15.5C0 13.0147 2.01015 11 4.4898 11H35.5102C37.9899 11 40 13.0147 40 15.5V24.5C40 26.9853 37.9899 29 35.5102 29H4.4898C2.01015 29 0 26.9853 0 24.5V15.5ZM4.4898 13.4545C3.36268 13.4545 2.44898 14.3703 2.44898 15.5V24.5C2.44898 25.6297 3.36268 26.5455 4.4898 26.5455H35.5102C36.6373 26.5455 37.551 25.6297 37.551 24.5V15.5C37.551 14.3703 36.6373 13.4545 35.5102 13.4545H4.4898Z" fill="black"/>
<path fill-rule="evenodd" clip-rule="evenodd" d="M6.8418 15.9904C6.8418 15.5475 7.2169 15.1885 7.67961 15.1885H9.35519H11.0308C11.4935 15.1885 11.8686 15.5475 11.8686 15.9904C11.8686 16.4333 11.4935 16.7924 11.0308 16.7924H10.193V23.208H11.0308C11.4935 23.208 11.8686 23.567 11.8686 24.0099C11.8686 24.4529 11.4935 24.8119 11.0308 24.8119H7.67961C7.2169 24.8119 6.8418 24.4529 6.8418 24.0099C6.8418 23.567 7.2169 23.208 7.67961 23.208H8.51739V16.7924H7.67961C7.2169 16.7924 6.8418 16.4333 6.8418 15.9904Z" fill="#29D305"/>
</svg>
