<svg width="40" height="40" viewBox="0 0 40 40" fill="none" xmlns="http://www.w3.org/2000/svg">
<path fill-rule="evenodd" clip-rule="evenodd" d="M36.0297 29.0721H24.9014L19.9469 34L14.5796 29.0721H3.97031C1.77827 29.0721 0 27.3044 0 25.1222V10.9498C0 8.7677 1.77827 7 3.97032 7H36.0297C38.2217 7 40 8.7677 40 10.9498V25.1222C40 27.3044 38.2217 29.0721 36.0297 29.0721ZM19.8824 30.4114L15.8012 26.4871H3.97031C3.21138 26.4871 2.5974 25.8753 2.5974 25.1222V10.9498C2.5974 10.1967 3.21138 9.58499 3.97032 9.58499H36.0297C36.7886 9.58499 37.4026 10.1967 37.4026 10.9498V25.1222C37.4026 25.8753 36.7886 26.4871 36.0297 26.4871H23.8533L19.8824 30.4114Z" fill="black"/>
<path fill-rule="evenodd" clip-rule="evenodd" d="M28.3295 12.3295C28.7688 11.8902 29.4812 11.8902 29.9205 12.3295L33.6705 16.0795C34.1098 16.5188 34.1098 17.2312 33.6705 17.6705C33.2312 18.1098 32.5188 18.1098 32.0795 17.6705L28.3295 13.9205C27.8902 13.4812 27.8902 12.7688 28.3295 12.3295Z" fill="#29D305"/>
<path fill-rule="evenodd" clip-rule="evenodd" d="M33.6705 12.3295C34.1098 12.7688 34.1098 13.4812 33.6705 13.9205L29.9205 17.6705C29.4812 18.1098 28.7688 18.1098 28.3295 17.6705C27.8902 17.2312 27.8902 16.5188 28.3295 16.0795L32.0795 12.3295C32.5188 11.8902 33.2312 11.8902 33.6705 12.3295Z" fill="#29D305"/>
<path fill-rule="evenodd" clip-rule="evenodd" d="M5.71484 22.0483C5.71484 21.3744 6.26307 20.8281 6.93933 20.8281L26.5312 20.8281C27.2074 20.8281 27.7557 21.3744 27.7557 22.0483C27.7557 22.7221 27.2074 23.2684 26.5312 23.2684L6.93933 23.2684C6.26307 23.2684 5.71484 22.7221 5.71484 22.0483Z" fill="black"/>
<path fill-rule="evenodd" clip-rule="evenodd" d="M5.71484 17.1679C5.71484 16.494 6.26307 15.9478 6.93933 15.9478L15.9189 15.9478C16.5952 15.9478 17.1434 16.494 17.1434 17.1679C17.1434 17.8418 16.5952 18.3881 15.9189 18.3881L6.93933 18.3881C6.26307 18.3881 5.71484 17.8418 5.71484 17.1679Z" fill="black"/>
</svg>
