<svg width="44" height="40" viewBox="0 0 44 40" fill="none" xmlns="http://www.w3.org/2000/svg">
<path fill-rule="evenodd" clip-rule="evenodd" d="M37.5 30C37.5 30.5523 37.0523 31 36.5 31L7.5 31C6.94771 31 6.5 30.5523 6.5 30L6.5 28.5L22 28.5L37.5 28.5L37.5 30Z" fill="black"/>
<path fill-rule="evenodd" clip-rule="evenodd" d="M6.5 28.5L6.5 20.5L9 20.5L9 24.5L9 28.5L6.5 28.5Z" fill="black"/>
<path fill-rule="evenodd" clip-rule="evenodd" d="M35 28.5L35 20.5L37.5 20.5L37.5 24.5L37.5 28.5L35 28.5Z" fill="black"/>
<path fill-rule="evenodd" clip-rule="evenodd" d="M20.75 28.5L20.75 20.5L23.25 20.5L23.25 24.5L23.25 28.5L20.75 28.5Z" fill="black"/>
<path d="M19.6667 14.5C19.6667 13.2113 20.7113 12.1667 22 12.1667C23.2887 12.1667 24.3333 13.2113 24.3333 14.5C24.3333 15.7887 23.2887 16.8333 22 16.8333C20.7113 16.8333 19.6667 15.7887 19.6667 14.5ZM22 7.5C18.134 7.5 15 10.634 15 14.5C15 18.366 18.134 21.5 22 21.5C25.866 21.5 29 18.366 29 14.5C29 10.634 25.866 7.5 22 7.5Z" fill="black" stroke="white" stroke-width="2" stroke-linecap="round" stroke-linejoin="round"/>
<path d="M5.66667 14.5C5.66667 13.2113 6.71134 12.1667 8 12.1667C9.28866 12.1667 10.3333 13.2113 10.3333 14.5C10.3333 15.7887 9.28866 16.8333 8 16.8333C6.71133 16.8333 5.66667 15.7887 5.66667 14.5ZM8 7.5C4.13401 7.5 1 10.634 0.999999 14.5C0.999998 18.366 4.134 21.5 8 21.5C11.866 21.5 15 18.366 15 14.5C15 10.634 11.866 7.5 8 7.5Z" fill="#29D305" stroke="white" stroke-width="2" stroke-linecap="round" stroke-linejoin="round"/>
<path d="M33.6667 14.5C33.6667 13.2113 34.7113 12.1667 36 12.1667C37.2887 12.1667 38.3333 13.2113 38.3333 14.5C38.3333 15.7887 37.2887 16.8333 36 16.8333C34.7113 16.8333 33.6667 15.7887 33.6667 14.5ZM36 7.5C32.134 7.5 29 10.634 29 14.5C29 18.366 32.134 21.5 36 21.5C39.866 21.5 43 18.366 43 14.5C43 10.634 39.866 7.5 36 7.5Z" fill="black" stroke="white" stroke-width="2" stroke-linecap="round" stroke-linejoin="round"/>
</svg>
