<svg width="41" height="41" fill="none" xmlns="http://www.w3.org/2000/svg"><circle cx="20.359" cy="20.035" r="19.997" transform="rotate(-180 20.359 20.035)" fill="#29D305"/><path fill-rule="evenodd" clip-rule="evenodd" d="M12.619 1.594C2.434 5.865-2.36 17.584 1.912 27.77a19.904 19.904 0 0 0 6.559 8.354A124.87 124.87 0 0 1 40.155 22.84a19.904 19.904 0 0 0-1.362-10.538C34.522 2.117 22.803-2.677 12.62 1.594z" fill="#262626"/><path d="M12.132 27.093v-13.3h6.574c.861 0 1.621.159 2.28.475.671.304 1.197.729 1.577 1.273.38.545.57 1.172.57 1.881 0 .62-.178 1.185-.532 1.691a3.938 3.938 0 0 1-1.406 1.197c.696.279 1.254.69 1.672 1.235.43.532.646 1.14.646 1.824 0 .722-.197 1.368-.59 1.938-.38.558-.905.995-1.576 1.311-.672.317-1.45.475-2.337.475h-6.878zm3.268-7.96h2.926c.456 0 .823-.127 1.102-.38.278-.254.418-.583.418-.989 0-.418-.14-.747-.418-.988-.266-.253-.634-.38-1.102-.38H15.4v2.736zm0 5.357h3.192c.494 0 .886-.133 1.178-.399.291-.266.437-.62.437-1.064 0-.443-.146-.798-.437-1.064-.292-.266-.684-.399-1.178-.399H15.4v2.926zm10.294 2.603V17.29h3.078v9.804h-3.078zm1.539-11.305c-.469 0-.874-.17-1.216-.513a1.662 1.662 0 0 1-.513-1.216c0-.481.17-.886.513-1.216a1.662 1.662 0 0 1 1.216-.513c.481 0 .886.171 1.216.513.342.33.513.735.513 1.216 0 .469-.171.874-.513 1.216-.33.342-.735.513-1.216.513z" fill="#fff"/></svg>