<svg width="41" height="42" fill="none" xmlns="http://www.w3.org/2000/svg"><circle cx="20.763" cy="21.033" r="19.999" transform="rotate(-90 20.763 21.033)" fill="#29D305"/><path fill-rule="evenodd" clip-rule="evenodd" d="M40.155 16.132a126.366 126.366 0 0 0-24.305 24.29 19.906 19.906 0 0 1-9.229-5.248c-7.81-7.81-7.81-20.473 0-28.283 7.81-7.81 20.473-7.81 28.283 0a19.906 19.906 0 0 1 5.251 9.241z" fill="#262626"/><path d="M12.743 25.021h2.147c.621 0 1.178-.171 1.672-.513a3.614 3.614 0 0 0 1.178-1.387 4.24 4.24 0 0 0 .457-1.957c0-.722-.152-1.374-.456-1.957a3.614 3.614 0 0 0-1.178-1.387 2.868 2.868 0 0 0-1.672-.513h-2.148v7.714zm-3.268 2.793v-13.3h5.415c.938 0 1.805.171 2.604.513.81.342 1.52.817 2.128 1.425a6.465 6.465 0 0 1 1.444 2.128 6.49 6.49 0 0 1 .512 2.584c0 .925-.17 1.792-.512 2.603a6.52 6.52 0 0 1-1.444 2.109 6.612 6.612 0 0 1-2.128 1.425 6.538 6.538 0 0 1-2.604.513H9.476zm16.897.152c-.659 0-1.248-.127-1.767-.38a3.008 3.008 0 0 1-1.197-1.045c-.279-.443-.418-.956-.418-1.539 0-.608.152-1.121.456-1.539.304-.43.74-.754 1.31-.969.57-.228 1.255-.342 2.053-.342.354 0 .715.038 1.083.114.367.063.766.177 1.197.342v-.798c0-.481-.159-.836-.475-1.064-.317-.24-.805-.361-1.463-.361-.368 0-.78.057-1.235.171-.444.101-.95.272-1.52.513l-1.064-2.147c1.583-.71 3.084-1.064 4.503-1.064 1.355 0 2.406.323 3.154.969.76.646 1.14 1.552 1.14 2.717v6.27h-3.04v-.855c-.43.355-.862.614-1.292.779-.43.152-.906.228-1.425.228zm-.551-3.021c0 .317.133.564.399.741.266.165.633.247 1.102.247.33 0 .64-.038.93-.114.292-.089.57-.215.837-.38v-1.254a9.642 9.642 0 0 0-.836-.152 6.322 6.322 0 0 0-.855-.057c-.507 0-.9.082-1.178.247a.798.798 0 0 0-.4.722z" fill="#fff"/></svg>