<svg width="41" height="42" fill="none" xmlns="http://www.w3.org/2000/svg"><circle cx="20.88" cy="21.033" r="19.97" transform="rotate(-90 20.88 21.033)" fill="#29D305"/><circle cx="20.823" cy="21.032" r="19.999" transform="rotate(-90 20.823 21.032)" fill="#29D305"/><path fill-rule="evenodd" clip-rule="evenodd" d="M31.049 3.842c-.775 5.64-1.176 11.4-1.176 17.254 0 5.813.395 11.534 1.16 17.137a19.906 19.906 0 0 1-10.21 2.799c-11.046 0-20-8.954-20-20 0-11.045 8.954-19.999 20-19.999 3.736 0 7.233 1.025 10.226 2.809z" fill="#262626"/><path d="M11.845 27.94v-13.3h10.051v2.736h-6.783v2.527h4.788v2.66h-4.788v2.641h6.86v2.736H11.844zm13.577 0v-7.429H23.39v-2.375h2.032v-1.292c0-1.165.336-2.058 1.008-2.679.67-.62 1.64-.93 2.907-.93.265 0 .55.018.855.056.316.025.576.07.779.133v2.527c-.28-.05-.5-.082-.666-.095a6.677 6.677 0 0 0-.512-.019c-.431 0-.754.089-.97.266-.215.165-.323.43-.323.798v1.235h2.47v2.375H28.5v7.43h-3.078z" fill="#fff"/></svg>