<svg width="42" height="42" fill="none" xmlns="http://www.w3.org/2000/svg"><circle cx="20.997" cy="21.035" r="19.999" transform="rotate(-90 20.997 21.035)" fill="#29D305"/><path fill-rule="evenodd" clip-rule="evenodd" d="M10.655 3.918a126.761 126.761 0 0 1 1.165 17.181c0 5.79-.391 11.487-1.15 17.068A19.907 19.907 0 0 0 21 41.037c11.046 0 20-8.954 20-20 0-11.045-8.954-20-20-20a19.907 19.907 0 0 0-10.345 2.88z" fill="#262626"/><path d="M14.757 28.078c-1.38 0-2.546-.349-3.496-1.046-.937-.696-1.596-1.703-1.976-3.02l3.021-1.084c.228.773.545 1.35.95 1.73.405.367.912.55 1.52.55.671 0 1.216-.24 1.634-.721.418-.494.627-1.128.627-1.9v-8h3.268v8.095c0 1.076-.234 2.02-.703 2.83a4.826 4.826 0 0 1-1.938 1.9c-.823.444-1.792.666-2.907.666zm12.658 0c-.975 0-1.85-.222-2.622-.665a5.038 5.038 0 0 1-1.843-1.805c-.443-.773-.665-1.64-.665-2.604 0-.962.222-1.824.665-2.584a4.992 4.992 0 0 1 1.843-1.824c.773-.443 1.64-.665 2.603-.665.975 0 1.843.222 2.603.665a4.849 4.849 0 0 1 1.824 1.825c.456.76.684 1.62.684 2.584 0 .962-.228 1.83-.684 2.603a4.891 4.891 0 0 1-1.824 1.805c-.76.443-1.621.665-2.584.665zm-.02-2.566c.419 0 .786-.107 1.103-.323.317-.215.564-.512.74-.892.178-.38.267-.811.267-1.293 0-.494-.089-.924-.266-1.292a2.151 2.151 0 0 0-.741-.892 1.912 1.912 0 0 0-1.102-.323 1.97 1.97 0 0 0-1.102.323 2.153 2.153 0 0 0-.741.892c-.177.368-.266.799-.266 1.293 0 .48.089.912.266 1.292.177.38.424.677.74.892.33.216.698.323 1.103.323z" fill="#fff"/></svg>