<svg width="41" height="41" fill="none" xmlns="http://www.w3.org/2000/svg"><circle cx="20.602" cy="20.029" r="20" transform="rotate(-90 20.602 20.029)" fill="#29D305"/><path fill-rule="evenodd" clip-rule="evenodd" d="M4.563 31.978A124.822 124.822 0 0 0 17.535.272a19.9 19.9 0 0 1 10.633 1.256c10.22 4.18 15.116 15.855 10.935 26.075-4.18 10.22-15.855 15.116-26.075 10.935a19.9 19.9 0 0 1-8.466-6.56z" fill="#262626"/><path d="M9.66 27.003v-13.3h3.268v5.776l4.959-5.776h3.895l-5.814 6.251 6.156 7.05h-4.275l-4.921-6.043v6.042H9.66zm16.16.152c-.634 0-1.198-.139-1.692-.418a3.18 3.18 0 0 1-1.14-1.178c-.278-.506-.418-1.089-.418-1.748V17.2h3.078v5.72c0 .544.146.987.437 1.33.304.329.703.493 1.197.493.33 0 .627-.063.893-.19.28-.139.526-.348.741-.627V17.2h3.078v9.804h-3.078v-1.596c-.38.57-.836 1.007-1.368 1.311a3.472 3.472 0 0 1-1.729.437z" fill="#fff"/></svg>