<svg width="41" height="41" fill="none" xmlns="http://www.w3.org/2000/svg"><circle cx="19.998" cy="20.037" r="19.97" transform="rotate(180 19.998 20.037)" fill="#29D305"/><circle cx="20" cy="20.032" r="19.999" transform="rotate(180 20 20.032)" fill="#29D305"/><path fill-rule="evenodd" clip-rule="evenodd" d="M20.003.033c-11.045 0-20 8.954-20 20 0 3.754 1.035 7.266 2.835 10.268 5.591-.761 11.3-1.154 17.1-1.154 5.842 0 11.59.398 17.22 1.17a19.906 19.906 0 0 0 2.844-10.285C40.002 8.987 31.048.034 20.003.034z" fill="#262626"/><path d="M9.594 27.067v-13.3h3.268v10.507h6.593v2.793H9.594zm16.436.19c-.975 0-1.849-.222-2.622-.665a5.038 5.038 0 0 1-1.843-1.805c-.443-.773-.665-1.64-.665-2.603 0-.963.222-1.824.665-2.584a4.992 4.992 0 0 1 1.843-1.824c.773-.444 1.64-.665 2.603-.665.976 0 1.843.221 2.603.665a4.851 4.851 0 0 1 1.824 1.824c.456.76.684 1.621.684 2.584 0 .962-.228 1.83-.684 2.603a4.893 4.893 0 0 1-1.824 1.805c-.76.443-1.621.665-2.584.665zm-.019-2.565c.418 0 .786-.108 1.102-.323.317-.216.564-.513.741-.893.178-.38.266-.811.266-1.292 0-.494-.088-.925-.266-1.292a2.153 2.153 0 0 0-.74-.893 1.912 1.912 0 0 0-1.103-.323 1.97 1.97 0 0 0-1.102.323 2.151 2.151 0 0 0-.74.893c-.178.367-.267.798-.267 1.292 0 .481.089.912.266 1.292.178.38.425.677.741.893.33.215.697.323 1.102.323z" fill="#fff"/></svg>