<svg width="42" height="41" fill="none" xmlns="http://www.w3.org/2000/svg"><circle cx="20.94" cy="20.027" r="20" transform="rotate(-180 20.94 20.027)" fill="#29D305"/><path fill-rule="evenodd" clip-rule="evenodd" d="M1.149 17.192a124.865 124.865 0 0 0 31.62-13.288 19.903 19.903 0 0 1 6.615 8.395c4.27 10.183-.523 21.901-10.706 26.172-10.184 4.27-21.902-.523-26.173-10.707A19.902 19.902 0 0 1 1.15 17.192z" fill="#262626"/><path d="M8.679 27.424v-13.3h4.104l3.21 6.384 3.193-6.384h4.104v13.3h-3.078V18.4l-4.256 8.075-4.275-8.15v9.1H8.679zm21.927.19c-.95 0-1.811-.221-2.584-.665a5.24 5.24 0 0 1-1.824-1.824c-.443-.772-.665-1.634-.665-2.584 0-.962.222-1.824.665-2.584a5.083 5.083 0 0 1 1.824-1.805c.773-.456 1.634-.684 2.584-.684.81 0 1.57.159 2.28.475.71.304 1.311.748 1.805 1.33l-1.88 1.881c-.318-.367-.64-.633-.97-.798a2.327 2.327 0 0 0-1.12-.266 1.97 1.97 0 0 0-1.103.323c-.316.216-.57.507-.76.874a2.848 2.848 0 0 0-.266 1.254c0 .469.089.887.266 1.254.19.368.444.659.76.874.33.216.697.323 1.102.323.418 0 .792-.082 1.121-.247.33-.177.652-.45.97-.817l1.88 1.881a5.014 5.014 0 0 1-1.805 1.35c-.71.303-1.47.455-2.28.455z" fill="#fff"/></svg>