<svg width="41" height="41" fill="none" xmlns="http://www.w3.org/2000/svg"><circle cx="20.748" cy="20.037" r="19.97" transform="rotate(180 20.748 20.037)" fill="#29D305"/><circle cx="20.754" cy="20.032" r="19.998" transform="rotate(180 20.754 20.032)" fill="#29D305"/><path fill-rule="evenodd" clip-rule="evenodd" d="M3.59 9.764c5.592.761 11.3 1.155 17.1 1.155 5.842 0 11.59-.4 17.22-1.171a19.905 19.905 0 0 1 2.844 10.284c0 11.044-8.954 19.998-19.999 19.998C9.71 40.03.757 31.076.757 20.032c0-3.754 1.034-7.266 2.833-10.268z" fill="#262626"/><path d="M4.769 27.067v-13.3h4.104l3.211 6.384 3.192-6.384h4.104v13.3h-3.078v-9.025l-4.256 8.075-4.275-8.151v9.1H4.769zm17.291 0v-9.804h3.079v1.558c.367-.558.791-.982 1.273-1.273a3.158 3.158 0 0 1 1.634-.437c.633 0 1.19.164 1.672.494.48.329.842.772 1.082 1.33.38-.596.843-1.045 1.387-1.35a3.562 3.562 0 0 1 1.825-.474c.608 0 1.14.145 1.596.437.468.291.83.696 1.083 1.216.265.519.398 1.114.398 1.786v6.517h-3.078v-5.91c0-.493-.133-.886-.399-1.177-.266-.304-.62-.456-1.064-.456-.278 0-.538.063-.779.19a1.978 1.978 0 0 0-.645.55V27.068h-3.078v-5.91c0-.493-.133-.886-.4-1.177-.265-.304-.62-.456-1.064-.456-.57 0-1.05.253-1.444.76v6.783H22.06z" fill="#fff"/></svg>