<svg width="40" height="40" fill="none" xmlns="http://www.w3.org/2000/svg"><path d="M34.142 34.142c-7.81 7.81-20.474 7.81-28.284 0-7.81-7.81-7.81-20.474 0-28.284 7.81-7.81 20.473-7.81 28.284 0 7.81 7.81 7.81 20.473 0 28.284z" fill="#262626"/><path d="M.57 15.247c4.44 3.387 8.705 7.11 12.763 11.168A126.974 126.974 0 0 1 24.701 39.44c-6.544 1.58-13.733-.188-18.844-5.299C.732 29.016-1.031 21.804.57 15.247z" fill="#29D305"/><path d="M9.478 26V13.4h6.12c.864 0 1.632.174 2.304.522a3.75 3.75 0 0 1 1.566 1.422c.384.6.576 1.29.576 2.07 0 .804-.216 1.518-.648 2.142a3.924 3.924 0 0 1-1.692 1.386L20.35 26h-3.456l-2.286-4.626h-2.034V26H9.478zm3.096-7.056h2.736c.48 0 .864-.138 1.152-.414.3-.276.45-.636.45-1.08 0-.456-.15-.816-.45-1.08-.288-.276-.672-.414-1.152-.414h-2.736v2.988zM26.89 26.18c-.912 0-1.74-.21-2.484-.63a5.067 5.067 0 0 1-1.764-1.728c-.432-.732-.648-1.548-.648-2.448 0-.912.204-1.728.612-2.448.408-.72.966-1.29 1.674-1.71.708-.432 1.506-.648 2.394-.648.9 0 1.692.21 2.376.63a4.335 4.335 0 0 1 1.602 1.746c.396.732.594 1.578.594 2.538v.63h-6.39c.096.348.246.654.45.918.204.264.456.468.756.612.3.144.624.216.972.216.384 0 .732-.066 1.044-.198.324-.132.588-.324.792-.576l1.926 1.602c-.6.528-1.206.912-1.818 1.152-.612.228-1.308.342-2.088.342zm-2.034-5.724h3.69a2.387 2.387 0 0 0-.396-.864 1.916 1.916 0 0 0-.648-.558 1.795 1.795 0 0 0-.846-.198c-.3 0-.576.066-.828.198-.24.12-.444.3-.612.54-.156.24-.276.534-.36.882z" fill="#fff"/></svg>