<svg width="40" height="40" viewBox="0 0 40 40" fill="none" xmlns="http://www.w3.org/2000/svg">
<g clip-path="url(#clip0)">
<path fill-rule="evenodd" clip-rule="evenodd" d="M5 -0.00341797C5.69036 -0.00341797 6.25 0.556226 6.25 1.24658V38.7466C6.25 39.4369 5.69036 39.9966 5 39.9966C4.30964 39.9966 3.75 39.4369 3.75 38.7466V1.24658C3.75 0.556226 4.30964 -0.00341797 5 -0.00341797Z" fill="black"/>
<path fill-rule="evenodd" clip-rule="evenodd" d="M35 -0.00341797C35.6904 -0.00341797 36.25 0.556226 36.25 1.24658V38.7466C36.25 39.4369 35.6904 39.9966 35 39.9966C34.3096 39.9966 33.75 39.4369 33.75 38.7466V1.24658C33.75 0.556226 34.3096 -0.00341797 35 -0.00341797Z" fill="black"/>
<path fill-rule="evenodd" clip-rule="evenodd" d="M1.25 33.7466C1.25 33.0562 1.80964 32.4966 2.5 32.4966H37.5C38.1904 32.4966 38.75 33.0562 38.75 33.7466C38.75 34.4369 38.1904 34.9966 37.5 34.9966H2.5C1.80964 34.9966 1.25 34.4369 1.25 33.7466Z" fill="black"/>
<path fill-rule="evenodd" clip-rule="evenodd" d="M1.25 16.2466C1.25 15.5562 1.80964 14.9966 2.5 14.9966H37.5C38.1904 14.9966 38.75 15.5562 38.75 16.2466C38.75 16.9369 38.1904 17.4966 37.5 17.4966H2.5C1.80964 17.4966 1.25 16.9369 1.25 16.2466Z" fill="black"/>
<path fill-rule="evenodd" clip-rule="evenodd" d="M8.75 4.99658C8.75 4.30623 9.30964 3.74658 10 3.74658H15C15.6904 3.74658 16.25 4.30623 16.25 4.99658V16.2466C16.25 16.9369 15.6904 17.4966 15 17.4966H10C9.30964 17.4966 8.75 16.9369 8.75 16.2466V4.99658ZM11.25 6.24658V14.9966H13.75V6.24658H11.25Z" fill="black"/>
<path fill-rule="evenodd" clip-rule="evenodd" d="M10 22.4966C10 21.8062 10.5596 21.2466 11.25 21.2466H16.25C16.9404 21.2466 17.5 21.8062 17.5 22.4966V33.7466C17.5 34.4369 16.9404 34.9966 16.25 34.9966H11.25C10.5596 34.9966 10 34.4369 10 33.7466V22.4966ZM12.5 23.7466V32.4966H15V23.7466H12.5Z" fill="black"/>
<path fill-rule="evenodd" clip-rule="evenodd" d="M20 22.4966C20 21.8062 20.5596 21.2466 21.25 21.2466H26.25C26.9404 21.2466 27.5 21.8062 27.5 22.4966V33.7466C27.5 34.4369 26.9404 34.9966 26.25 34.9966H21.25C20.5596 34.9966 20 34.4369 20 33.7466V22.4966ZM22.5 23.7466V32.4966H25V23.7466H22.5Z" fill="black"/>
<path fill-rule="evenodd" clip-rule="evenodd" d="M13.75 4.99658C13.75 4.30623 14.3096 3.74658 15 3.74658H20C20.6904 3.74658 21.25 4.30623 21.25 4.99658V16.2466C21.25 16.9369 20.6904 17.4966 20 17.4966H15C14.3096 17.4966 13.75 16.9369 13.75 16.2466V4.99658ZM16.25 6.24658V14.9966H18.75V6.24658H16.25Z" fill="black"/>
<path fill-rule="evenodd" clip-rule="evenodd" d="M29.3291 3.41235C29.6198 2.78618 30.3631 2.51421 30.9893 2.8049L35.5244 4.91024C36.1506 5.20092 36.4225 5.94418 36.1319 6.57036L31.3948 16.7744C31.1042 17.4006 30.3609 17.6726 29.7347 17.3819L25.1996 15.2766C24.5734 14.9859 24.3014 14.2426 24.5921 13.6164L29.3291 3.41235ZM31.0704 5.59881L27.386 13.5353L29.6536 14.588L33.3379 6.65147L31.0704 5.59881Z" fill="#29D305"/>
</g>
<defs>
<clipPath id="clip0">
<rect width="40" height="40" fill="white"/>
</clipPath>
</defs>
</svg>
