<svg width="303" height="162" viewBox="0 0 303 162" fill="none" xmlns="http://www.w3.org/2000/svg">
<rect x="87" y="15.875" width="102" height="102" rx="4" transform="rotate(45 87 15.875)" fill="white" stroke="black" stroke-width="2.5" stroke-linejoin="round"/>
<rect x="228.125" y="15.875" width="102" height="102" rx="4" transform="rotate(45 228.125 15.875)" fill="white" stroke="black" stroke-width="2.5" stroke-linejoin="round"/>
<path d="M239.454 9.81938L246.381 2.88739L249.043 5.55125C249.558 6.0662 249.95 6.63726 250.221 7.26444C250.491 7.89162 250.633 8.5221 250.646 9.15588C250.666 9.79627 250.554 10.4234 250.31 11.0374C250.072 11.658 249.709 12.2126 249.221 12.7011C248.74 13.183 248.192 13.5395 247.578 13.7706C246.971 14.0083 246.348 14.1172 245.708 14.0974C245.081 14.0776 244.455 13.9324 243.828 13.6617C243.201 13.391 242.63 12.9982 242.116 12.4832L239.454 9.81938ZM247.757 6.81881L246.539 5.60076L242.165 9.97782L243.382 11.1959C243.686 11.4996 244.026 11.7273 244.402 11.8792C244.784 12.0376 245.17 12.1201 245.56 12.1267C245.955 12.1267 246.341 12.0508 246.717 11.899C247.094 11.7471 247.433 11.5194 247.737 11.2157C248.047 10.9054 248.281 10.5588 248.439 10.1759C248.598 9.79297 248.677 9.40346 248.677 9.00734C248.677 8.61123 248.598 8.22172 248.439 7.83881C248.288 7.4625 248.06 7.1225 247.757 6.81881ZM251.936 21.0223C251.362 20.9629 250.847 20.8242 250.392 20.6064C249.943 20.3951 249.514 20.0848 249.105 19.6755C248.716 19.286 248.419 18.8503 248.215 18.3683C248.017 17.893 247.911 17.411 247.898 16.9225C247.891 16.4406 247.977 15.9652 248.155 15.4965C248.347 15.0278 248.63 14.6052 249.006 14.2289C249.376 13.8592 249.788 13.5786 250.243 13.3872C250.712 13.1957 251.183 13.1 251.658 13.1C252.14 13.0934 252.612 13.1825 253.074 13.3674C253.542 13.5588 253.961 13.8394 254.33 14.2091C254.693 14.5722 254.957 14.9815 255.122 15.4371C255.3 15.8926 255.379 16.3547 255.36 16.8235C255.346 17.2988 255.231 17.7708 255.013 18.2396C254.809 18.7083 254.509 19.1407 254.113 19.5368L253.756 19.8934L249.917 16.051C249.686 16.467 249.603 16.906 249.669 17.3681C249.735 17.8303 249.946 18.2396 250.303 18.5961C250.527 18.8205 250.774 18.9955 251.045 19.1209C251.315 19.2464 251.586 19.3124 251.856 19.319L251.936 21.0223ZM253.182 15.2984C252.872 14.9881 252.51 14.8165 252.094 14.7835C251.685 14.7439 251.279 14.8396 250.877 15.0707L253.4 17.5959C253.618 17.2064 253.707 16.8004 253.667 16.3778C253.641 15.9553 253.479 15.5955 253.182 15.2984ZM261.049 16.9714L253.825 24.2005L252.469 22.8438L259.397 15.9118L261.049 16.9714ZM261.328 20.1615C261.117 19.9502 261.011 19.6928 261.011 19.3891C261.011 19.0854 261.117 18.8279 261.328 18.6167C261.539 18.4054 261.796 18.2998 262.1 18.2998C262.403 18.2998 262.66 18.4054 262.872 18.6167C263.083 18.8279 263.188 19.0854 263.188 19.3891C263.188 19.6928 263.083 19.9502 262.872 20.1615C262.66 20.3728 262.403 20.4784 262.1 20.4784C261.796 20.4784 261.539 20.3728 261.328 20.1615ZM261.397 21.4588L256.241 26.6182L254.885 25.2615L260.041 20.1021L261.397 21.4588ZM258.984 29.3626L261.923 21.985L263.397 23.4605L261.379 28.3129L266.218 26.2828L267.663 27.7287L260.29 30.6698L258.984 29.3626ZM268.113 37.2111C267.539 37.1517 267.025 37.013 266.57 36.7952C266.121 36.5839 265.692 36.2736 265.283 35.8643C264.894 35.4748 264.597 35.0391 264.392 34.5571C264.195 34.0818 264.089 33.5999 264.076 33.1113C264.069 32.6294 264.155 32.154 264.333 31.6853C264.524 31.2166 264.808 30.7941 265.184 30.4177C265.554 30.048 265.966 29.7675 266.421 29.576C266.89 29.3846 267.361 29.2888 267.836 29.2888C268.318 29.2822 268.79 29.3713 269.251 29.5562C269.72 29.7477 270.139 30.0282 270.508 30.3979C270.871 30.761 271.135 31.1704 271.3 31.6259C271.478 32.0814 271.557 32.5436 271.537 33.0123C271.524 33.4876 271.409 33.9597 271.191 34.4284C270.987 34.8971 270.686 35.3296 270.291 35.7257L269.934 36.0822L266.095 32.2399C265.864 32.6558 265.781 33.0948 265.847 33.557C265.913 34.0191 266.124 34.4284 266.481 34.7849C266.705 35.0094 266.952 35.1843 267.223 35.3098C267.493 35.4352 267.764 35.5012 268.034 35.5078L268.113 37.2111ZM269.36 31.4873C269.05 31.177 268.687 31.0053 268.272 30.9723C267.863 30.9327 267.457 31.0284 267.055 31.2595L269.578 33.7847C269.796 33.3952 269.885 32.9892 269.845 32.5667C269.819 32.1441 269.657 31.7843 269.36 31.4873ZM268.647 39.0326L273.803 33.8732L275.159 35.2299L274.595 35.7944C274.984 35.735 275.35 35.7647 275.693 35.8835C276.05 36.0023 276.369 36.2037 276.653 36.4876C276.779 36.6262 276.874 36.7483 276.94 36.854C277.019 36.9596 277.072 37.0652 277.098 37.1709L275.911 38.3592C275.858 38.214 275.782 38.072 275.683 37.9334C275.591 37.7881 275.482 37.6528 275.357 37.5274C275.093 37.2633 274.783 37.085 274.427 36.9926C274.077 36.9068 273.714 36.9266 273.338 37.052L270.003 40.3893L268.647 39.0326Z" fill="black"/>
<line x1="87.5" y1="28.5" x2="87.5" y2="147.5" stroke="#29D305" stroke-width="3" stroke-linecap="round" stroke-dasharray="8 10"/>
<line x1="228.625" y1="28.5" x2="228.625" y2="147.5" stroke="#29D305" stroke-width="3" stroke-linecap="round" stroke-dasharray="8 10"/>
<path d="M9.81606 74.5809L2.88641 67.6513L5.54937 64.9883C6.06415 64.4735 6.63502 64.0809 7.26199 63.8103C7.88895 63.5397 8.51922 63.3978 9.15279 63.3846C9.79296 63.3648 10.4199 63.477 11.0337 63.7212C11.6541 63.9588 12.2084 64.3217 12.6968 64.8101C13.1786 65.2919 13.535 65.8397 13.766 66.4534C14.0035 67.0606 14.1124 67.6843 14.0926 68.3244C14.0728 68.9514 13.9276 69.5784 13.6571 70.2053C13.3865 70.8323 12.9938 71.4032 12.479 71.918L9.81606 74.5809ZM6.81651 66.2752L5.59887 67.4929L9.97445 71.8685L11.1921 70.6508C11.4957 70.3472 11.7234 70.0074 11.8752 69.6312C12.0335 69.2484 12.116 68.8623 12.1226 68.4729C12.1226 68.077 12.0467 67.6909 11.895 67.3147C11.7432 66.9385 11.5155 66.5986 11.2119 66.295C10.9017 65.9849 10.5552 65.7506 10.1724 65.5922C9.78966 65.4338 9.40028 65.3546 9.0043 65.3546C8.60832 65.3546 8.21894 65.4338 7.83616 65.5922C7.45998 65.744 7.12009 65.9717 6.81651 66.2752ZM11.9373 60.9168C11.7261 61.128 11.4688 61.2336 11.1652 61.2336C10.8616 61.2336 10.6042 61.128 10.393 60.9168C10.1818 60.7056 10.0762 60.4483 10.0762 60.1447C10.0762 59.8411 10.1818 59.5837 10.393 59.3725C10.6042 59.1613 10.8616 59.0557 11.1652 59.0557C11.4688 59.0557 11.7261 59.1613 11.9373 59.3725C12.1485 59.5837 12.2541 59.8411 12.2541 60.1447C12.2541 60.4483 12.1485 60.7056 11.9373 60.9168ZM13.2342 60.8475L18.3918 66.0052L17.0356 67.3614L11.8779 62.2038L13.2342 60.8475ZM18.4031 64.7663L18.1754 63.1923C18.677 63.0867 19.1126 62.9481 19.4821 62.7765C19.8451 62.5984 20.1619 62.374 20.4325 62.1034C20.7361 61.7998 20.9275 61.5094 21.0067 61.2322C21.0925 60.9484 21.0529 60.7241 20.8879 60.5591C20.7559 60.4271 20.5975 60.3743 20.4127 60.4007C20.2345 60.4205 20.0167 60.5261 19.7593 60.7175L18.6209 61.5589C18.0335 61.9879 17.4791 62.2123 16.9578 62.2321C16.443 62.2453 15.9777 62.044 15.5619 61.6282C15.067 61.1332 14.8657 60.5426 14.9581 59.8562C15.0505 59.1698 15.4233 58.5 16.0767 57.8466C16.4529 57.4704 16.8753 57.1602 17.3438 56.916C17.8058 56.6653 18.3041 56.4838 18.8387 56.3716L19.0565 57.8961C18.6077 58.0149 18.215 58.1634 17.8784 58.3416C17.5352 58.5132 17.2317 58.731 16.9677 58.9949C16.7235 59.2391 16.5717 59.4833 16.5123 59.7275C16.4595 59.9651 16.509 60.1598 16.6608 60.3116C16.7994 60.4502 16.9611 60.5063 17.1459 60.4799C17.3306 60.4403 17.5649 60.3116 17.8487 60.0938L18.9872 59.2523C19.5613 58.8234 20.1124 58.6023 20.6404 58.5891C21.175 58.5693 21.6402 58.7574 22.0362 59.1533C22.2804 59.3975 22.4487 59.6846 22.5411 60.0146C22.6335 60.3314 22.6566 60.6647 22.6104 61.0144C22.5642 61.3642 22.4454 61.7206 22.254 62.0836C22.0626 62.4466 21.8052 62.7897 21.4818 63.1131C21.0133 63.5817 20.515 63.9612 19.987 64.2516C19.4524 64.5354 18.9245 64.707 18.4031 64.7663ZM25.7989 56.4201C26.0299 56.1892 26.1982 55.9285 26.3038 55.6381C26.416 55.3411 26.4655 55.0012 26.4523 54.6184L28.1055 54.6481C28.1319 55.2025 28.0428 55.747 27.8382 56.2816C27.6271 56.8095 27.3235 57.2715 26.9275 57.6675C26.5513 58.0437 26.1256 58.3307 25.6505 58.5287C25.1819 58.7201 24.7067 58.8191 24.2249 58.8257C23.7497 58.8257 23.2812 58.7333 22.8192 58.5485C22.3506 58.3571 21.9282 58.0734 21.5521 57.6972C21.1759 57.321 20.8954 56.9019 20.7106 56.4399C20.5192 55.9714 20.4235 55.4995 20.4235 55.0243C20.4235 54.5359 20.5192 54.0575 20.7106 53.5889C20.9086 53.1137 21.1957 52.688 21.5719 52.3119C21.981 51.9027 22.4562 51.5925 22.9974 51.3813C23.532 51.1635 24.0764 51.0678 24.6308 51.0942L24.6803 52.8068C24.2909 52.787 23.9378 52.8299 23.6211 52.9355C23.3043 53.0411 23.0238 53.216 22.7796 53.4602C22.3902 53.8496 22.2054 54.3248 22.2252 54.8857C22.2516 55.4401 22.476 55.9285 22.8984 56.3508C23.3208 56.7732 23.8091 56.991 24.3635 57.0042C24.9245 57.0108 25.403 56.8161 25.7989 56.4201ZM26.6275 52.6218C26.2513 52.2456 25.9708 51.8265 25.786 51.3645C25.6012 50.8893 25.5121 50.4109 25.5187 49.9291C25.5253 49.4341 25.6276 48.949 25.8256 48.4739C26.0236 47.9987 26.314 47.5697 26.6968 47.1869C27.0796 46.8042 27.5085 46.5138 27.9837 46.3158C28.4589 46.1178 28.9407 46.0188 29.429 46.0188C29.9174 46.0056 30.3959 46.0947 30.8645 46.2861C31.333 46.4643 31.7554 46.7415 32.1316 47.1176C32.5078 47.4938 32.7883 47.9195 32.9731 48.3947C33.1579 48.8566 33.2436 49.3318 33.2304 49.8202C33.2238 50.302 33.1216 50.7804 32.9236 51.2556C32.7256 51.7308 32.4352 52.1598 32.0524 52.5426C31.6696 52.9253 31.2406 53.2157 30.7655 53.4137C30.2903 53.6117 29.8085 53.7173 29.3201 53.7305C28.8384 53.7371 28.3632 53.6513 27.8946 53.4731C27.426 53.2817 27.0037 52.9979 26.6275 52.6218ZM30.8744 51.3645C31.2703 50.9685 31.4617 50.4868 31.4485 49.9192C31.4353 49.3516 31.2208 48.8599 30.8051 48.4442C30.3827 48.0218 29.8877 47.804 29.3201 47.7908C28.7526 47.7776 28.2708 47.969 27.8748 48.365C27.4788 48.761 27.2874 49.2427 27.3006 49.8103C27.3138 50.3779 27.5316 50.8728 27.954 51.2952C28.3698 51.711 28.8615 51.9255 29.429 51.9387C29.9966 51.9519 30.4784 51.7605 30.8744 51.3645ZM37.0287 47.3683L29.6536 44.4281L31.1286 42.9531L35.9793 44.9726L33.9499 40.1318L35.3953 38.6864L38.3354 46.0616L37.0287 47.3683ZM44.8745 38.2355C44.8151 38.8097 44.6765 39.3245 44.4587 39.7799C44.2475 40.2286 43.9373 40.6576 43.5282 41.0668C43.1388 41.4562 42.7032 41.7532 42.2214 41.9578C41.7463 42.1557 41.2645 42.2613 40.7761 42.2745C40.2943 42.2811 39.8192 42.1953 39.3506 42.0172C38.882 41.8258 38.4596 41.542 38.0834 41.1658C37.7139 40.7962 37.4334 40.3837 37.242 39.9284C37.0506 39.4598 36.9549 38.9879 36.9549 38.5127C36.9483 38.031 37.0374 37.5591 37.2222 37.0971C37.4136 36.6285 37.6941 36.2094 38.0636 35.8399C38.4266 35.4769 38.8358 35.2129 39.2912 35.0479C39.7466 34.8697 40.2085 34.7905 40.6771 34.8103C41.1523 34.8235 41.6242 34.939 42.0927 35.1568C42.5613 35.3614 42.9936 35.6617 43.3896 36.0577L43.746 36.414L39.9049 40.255C40.3207 40.486 40.7596 40.5685 41.2216 40.5025C41.6836 40.4365 42.0927 40.2253 42.4491 39.869C42.6735 39.6446 42.8484 39.3971 42.9738 39.1265C43.0992 38.8559 43.1652 38.5853 43.1718 38.3147L44.8745 38.2355ZM39.1526 36.9882C38.8424 37.2984 38.6708 37.6614 38.6378 38.0772C38.5982 38.4863 38.6939 38.8922 38.9249 39.2948L41.4493 36.7704C41.0599 36.5526 40.654 36.4635 40.2316 36.5031C39.8093 36.5295 39.4496 36.6912 39.1526 36.9882ZM46.6954 37.7016L41.5377 32.544L42.894 31.1877L43.4582 31.752C43.3988 31.3626 43.4285 30.9963 43.5473 30.6531C43.6661 30.2968 43.8674 29.9767 44.1512 29.6929C44.2898 29.5675 44.4119 29.4718 44.5175 29.4058C44.6231 29.3266 44.7287 29.2738 44.8343 29.2474L46.0222 30.4354C45.877 30.4882 45.7351 30.5641 45.5965 30.663C45.4513 30.7554 45.3161 30.8643 45.1907 30.9897C44.9267 31.2537 44.7485 31.5639 44.6561 31.9203C44.5703 32.2701 44.5901 32.633 44.7155 33.0092L48.0516 36.3454L46.6954 37.7016Z" fill="black"/>
<path d="M97.4537 9.81937L104.381 2.88738L107.043 5.55125C107.558 6.06619 107.95 6.63726 108.221 7.26444C108.491 7.89162 108.633 8.5221 108.646 9.15588C108.666 9.79626 108.554 10.4234 108.31 11.0374C108.072 11.658 107.709 12.2126 107.221 12.7011C106.74 13.183 106.192 13.5395 105.578 13.7706C104.971 14.0083 104.348 14.1172 103.708 14.0974C103.081 14.0776 102.455 13.9323 101.828 13.6617C101.201 13.391 100.63 12.9982 100.116 12.4832L97.4537 9.81937ZM105.757 6.81881L104.539 5.60076L100.165 9.97781L101.382 11.1959C101.686 11.4995 102.026 11.7273 102.402 11.8792C102.784 12.0376 103.17 12.1201 103.56 12.1267C103.955 12.1267 104.341 12.0508 104.717 11.899C105.094 11.7471 105.433 11.5194 105.737 11.2157C106.047 10.9054 106.281 10.5588 106.439 10.1759C106.598 9.79296 106.677 9.40345 106.677 9.00734C106.677 8.61122 106.598 8.22171 106.439 7.8388C106.288 7.46249 106.06 7.1225 105.757 6.81881ZM109.936 21.0223C109.362 20.9628 108.847 20.8242 108.392 20.6063C107.943 20.3951 107.514 20.0848 107.105 19.6755C106.716 19.286 106.419 18.8502 106.215 18.3683C106.017 17.893 105.911 17.411 105.898 16.9225C105.891 16.4405 105.977 15.9652 106.155 15.4965C106.347 15.0277 106.63 14.6052 107.006 14.2289C107.376 13.8592 107.788 13.5786 108.243 13.3872C108.712 13.1957 109.183 13.1 109.658 13.1C110.14 13.0934 110.612 13.1825 111.074 13.3674C111.542 13.5588 111.961 13.8394 112.33 14.2091C112.693 14.5722 112.957 14.9815 113.122 15.4371C113.3 15.8926 113.379 16.3547 113.36 16.8235C113.346 17.2988 113.231 17.7708 113.013 18.2396C112.809 18.7083 112.509 19.1407 112.113 19.5368L111.756 19.8933L107.917 16.051C107.686 16.467 107.603 16.906 107.669 17.3681C107.735 17.8302 107.946 18.2396 108.303 18.5961C108.527 18.8205 108.774 18.9955 109.045 19.1209C109.315 19.2464 109.586 19.3124 109.856 19.319L109.936 21.0223ZM111.182 15.2984C110.872 14.9881 110.51 14.8165 110.094 14.7835C109.685 14.7439 109.279 14.8396 108.877 15.0707L111.4 17.5959C111.618 17.2064 111.707 16.8004 111.667 16.3778C111.641 15.9553 111.479 15.5955 111.182 15.2984ZM115.076 17.1345L116.224 18.2832L116.718 17.7881C117.292 17.2137 117.903 16.9397 118.549 16.9661C119.196 16.9925 119.836 17.3226 120.469 17.9564C120.608 18.095 120.74 18.2469 120.865 18.4119C120.997 18.5704 121.102 18.7156 121.182 18.8477L120.044 19.9865C119.945 19.8346 119.852 19.7026 119.766 19.5904C119.687 19.4847 119.595 19.3791 119.489 19.2735C119.232 19.016 118.981 18.8774 118.737 18.8576C118.5 18.8444 118.269 18.95 118.045 19.1745L117.579 19.6399L118.985 21.0461L117.847 22.1849L116.441 20.7787L112.423 24.7993L111.068 23.4426L115.086 19.422L113.938 18.2733L115.076 17.1345ZM120.98 21.8152C120.769 21.6039 120.664 21.3464 120.664 21.0428C120.664 20.7391 120.769 20.4816 120.98 20.2703C121.191 20.0591 121.449 19.9535 121.752 19.9534C122.056 19.9534 122.313 20.0591 122.524 20.2703C122.735 20.4816 122.841 20.7391 122.841 21.0428C122.841 21.3464 122.735 21.6039 122.524 21.8152C122.313 22.0264 122.056 22.1321 121.752 22.1321C121.449 22.1321 121.191 22.0264 120.98 21.8152ZM121.05 23.1125L115.894 28.2718L114.538 26.9151L119.694 21.7558L121.05 23.1125ZM116.954 29.3328L122.11 24.1735L123.466 25.5301L123.06 25.9362C123.423 25.9692 123.766 26.0616 124.089 26.2134C124.419 26.3719 124.726 26.593 125.009 26.8769C125.603 27.4711 125.9 28.1511 125.9 28.9169C125.9 29.6827 125.6 30.366 125 30.9668L121.793 34.1753L120.437 32.8186L123.446 29.8082C123.769 29.4847 123.931 29.1249 123.931 28.7288C123.937 28.3392 123.779 27.9827 123.456 27.6592C123.231 27.4348 122.981 27.2763 122.704 27.1839C122.44 27.0915 122.166 27.0684 121.882 27.1146L118.31 30.6895L116.954 29.3328ZM128.085 39.1839C127.511 39.1245 126.996 38.9858 126.541 38.768C126.093 38.5567 125.664 38.2464 125.255 37.8371C124.865 37.4476 124.568 37.0119 124.364 36.5299C124.166 36.0546 124.06 35.5727 124.047 35.0841C124.041 34.6022 124.126 34.1269 124.305 33.6581C124.496 33.1894 124.78 32.7669 125.156 32.3906C125.525 32.0209 125.937 31.7403 126.393 31.5488C126.861 31.3574 127.333 31.2616 127.808 31.2616C128.289 31.255 128.761 31.3442 129.223 31.529C129.691 31.7205 130.11 32.001 130.48 32.3708C130.843 32.7339 131.107 33.1432 131.271 33.5987C131.45 34.0542 131.529 34.5164 131.509 34.9851C131.496 35.4604 131.38 35.9325 131.163 36.4012C130.958 36.8699 130.658 37.3024 130.262 37.6985L129.906 38.055L126.066 34.2127C125.835 34.6286 125.753 35.0676 125.819 35.5298C125.885 35.9919 126.096 36.4012 126.452 36.7577C126.676 36.9822 126.924 37.1571 127.194 37.2826C127.465 37.408 127.735 37.474 128.006 37.4806L128.085 39.1839ZM129.332 33.4601C129.022 33.1498 128.659 32.9781 128.243 32.9451C127.834 32.9055 127.428 33.0012 127.026 33.2323L129.55 35.7575C129.767 35.368 129.856 34.962 129.817 34.5395C129.79 34.117 129.629 33.7572 129.332 33.4601Z" fill="black"/>
<path d="M157.816 69.1669L150.886 62.2372L153.549 59.5743C154.064 59.0595 154.635 58.6668 155.262 58.3962C155.889 58.1256 156.519 57.9837 157.153 57.9705C157.793 57.9507 158.42 58.0629 159.034 58.3071C159.654 58.5447 160.208 58.9077 160.697 59.3961C161.179 59.8778 161.535 60.4256 161.766 61.0394C162.004 61.6465 162.112 62.2702 162.093 62.9104C162.073 63.5373 161.928 64.1643 161.657 64.7913C161.386 65.4183 160.994 65.9891 160.479 66.5039L157.816 69.1669ZM154.817 60.8612L153.599 62.0788L157.974 66.4544L159.192 65.2368C159.496 64.9332 159.723 64.5933 159.875 64.2171C160.034 63.8343 160.116 63.4483 160.123 63.0589C160.123 62.6629 160.047 62.2768 159.895 61.9006C159.743 61.5245 159.515 61.1846 159.212 60.881C158.902 60.5708 158.555 60.3365 158.172 60.1781C157.79 60.0197 157.4 59.9405 157.004 59.9405C156.608 59.9405 156.219 60.0197 155.836 60.1781C155.46 60.3299 155.12 60.5576 154.817 60.8612ZM169.015 56.6808C168.956 57.255 168.817 57.7698 168.599 58.2251C168.388 58.6739 168.078 59.1029 167.669 59.5121C167.279 59.9014 166.844 60.1984 166.362 60.403C165.887 60.601 165.405 60.7066 164.917 60.7198C164.435 60.7264 163.96 60.6406 163.491 60.4624C163.023 60.271 162.6 59.9872 162.224 59.6111C161.855 59.2415 161.574 58.829 161.383 58.3736C161.191 57.9051 161.096 57.4332 161.096 56.958C161.089 56.4762 161.178 56.0043 161.363 55.5424C161.554 55.0738 161.835 54.6547 162.204 54.2851C162.567 53.9222 162.976 53.6582 163.432 53.4932C163.887 53.315 164.349 53.2358 164.818 53.2556C165.293 53.2688 165.765 53.3843 166.233 53.6021C166.702 53.8067 167.134 54.1069 167.53 54.5029L167.887 54.8593L164.046 58.7003C164.461 58.9313 164.9 59.0138 165.362 58.9478C165.824 58.8818 166.233 58.6706 166.59 58.3142C166.814 58.0898 166.989 57.8424 167.114 57.5718C167.24 57.3012 167.306 57.0306 167.312 56.76L169.015 56.6808ZM163.293 55.4335C162.983 55.7437 162.811 56.1066 162.778 56.5224C162.739 56.9316 162.835 57.3375 163.066 57.7401L165.59 55.2157C165.201 54.9979 164.795 54.9088 164.372 54.9484C163.95 54.9748 163.59 55.1365 163.293 55.4335ZM172.326 54.6573L164.95 51.7171L166.426 50.2421L171.276 52.2616L169.247 47.4208L170.692 45.9754L173.632 53.3506L172.326 54.6573ZM180.171 45.5245C180.112 46.0987 179.973 46.6135 179.756 47.0689C179.544 47.5176 179.234 47.9466 178.825 48.3558C178.436 48.7452 178 49.0422 177.518 49.2468C177.043 49.4447 176.561 49.5503 176.073 49.5635C175.591 49.5701 175.116 49.4843 174.648 49.3062C174.179 49.1148 173.757 48.831 173.38 48.4548C173.011 48.0852 172.73 47.6727 172.539 47.2174C172.348 46.7488 172.252 46.2769 172.252 45.8017C172.245 45.32 172.334 44.8481 172.519 44.3861C172.711 43.9175 172.991 43.4984 173.361 43.1289C173.724 42.7659 174.133 42.5019 174.588 42.3369C175.043 42.1587 175.505 42.0795 175.974 42.0993C176.449 42.1125 176.921 42.228 177.39 42.4458C177.858 42.6504 178.291 42.9507 178.687 43.3467L179.043 43.703L175.202 47.544C175.618 47.775 176.057 47.8575 176.519 47.7915C176.98 47.7255 177.39 47.5143 177.746 47.158C177.97 46.9336 178.145 46.6861 178.271 46.4155C178.396 46.1449 178.462 45.8743 178.469 45.6037L180.171 45.5245ZM174.45 44.2772C174.139 44.5874 173.968 44.9504 173.935 45.3662C173.895 45.7753 173.991 46.1812 174.222 46.5838L176.746 44.0594C176.357 43.8416 175.951 43.7525 175.529 43.7921C175.106 43.8185 174.747 43.9802 174.45 44.2772ZM176.122 36.4077L183.349 43.6344L181.992 44.9906L175.063 38.0609L176.122 36.4077ZM181.598 40.2374C181.222 39.8613 180.941 39.4422 180.756 38.9802C180.571 38.505 180.482 38.0266 180.489 37.5448C180.496 37.0498 180.598 36.5647 180.796 36.0896C180.994 35.6144 181.284 35.1854 181.667 34.8026C182.05 34.4198 182.479 34.1295 182.954 33.9315C183.429 33.7335 183.911 33.6345 184.399 33.6345C184.888 33.6213 185.366 33.7104 185.835 33.9018C186.303 34.08 186.726 34.3571 187.102 34.7333C187.478 35.1095 187.759 35.5352 187.943 36.0104C188.128 36.4723 188.214 36.9475 188.201 37.4359C188.194 37.9177 188.092 38.3961 187.894 38.8713C187.696 39.3465 187.405 39.7755 187.023 40.1582C186.64 40.541 186.211 40.8314 185.736 41.0294C185.261 41.2274 184.779 41.333 184.29 41.3462C183.809 41.3528 183.333 41.267 182.865 41.0888C182.396 40.8974 181.974 40.6136 181.598 40.2374ZM185.845 38.9802C186.241 38.5842 186.432 38.1024 186.419 37.5349C186.406 36.9673 186.191 36.4756 185.775 36.0599C185.353 35.6375 184.858 35.4197 184.29 35.4065C183.723 35.3933 183.241 35.5847 182.845 35.9807C182.449 36.3766 182.258 36.8584 182.271 37.426C182.284 37.9936 182.502 38.4885 182.924 38.9109C183.34 39.3267 183.832 39.5412 184.399 39.5544C184.967 39.5676 185.449 39.3762 185.845 38.9802ZM192.578 38.5425L185.352 31.3159L186.688 29.9795L187.114 30.4052C187.153 30.0356 187.259 29.6858 187.431 29.3558C187.596 29.0192 187.813 28.7156 188.084 28.4451C188.447 28.0821 188.856 27.8115 189.312 27.6333C189.774 27.4485 190.242 27.3561 190.717 27.3561C191.192 27.3561 191.658 27.4518 192.113 27.6432C192.575 27.828 192.991 28.1052 193.36 28.4748C193.73 28.8443 194.007 29.2601 194.192 29.7221C194.377 30.1841 194.469 30.6526 194.469 31.1278C194.469 31.603 194.373 32.0749 194.182 32.5434C193.991 32.9988 193.71 33.4113 193.341 33.7809C193.09 34.0317 192.809 34.2462 192.499 34.4243C192.189 34.5893 191.866 34.7081 191.529 34.7807L193.935 37.1863L192.578 38.5425ZM189.024 29.8211C188.78 30.0653 188.595 30.3359 188.47 30.6328C188.338 30.9232 188.275 31.2235 188.282 31.5337L190.311 33.5631C190.602 33.5631 190.895 33.5004 191.192 33.375C191.496 33.243 191.77 33.0549 192.014 32.8107C192.436 32.3884 192.651 31.8901 192.658 31.3159C192.658 30.7351 192.446 30.2336 192.024 29.8112C191.602 29.3888 191.1 29.1842 190.519 29.1974C189.938 29.1974 189.44 29.4053 189.024 29.8211Z" fill="black"/>
<path d="M56.2134 17.8583C55.6846 17.8461 55.2658 18.2649 55.278 18.7937C55.2902 19.3225 55.7287 19.7611 56.2575 19.7732L57.7759 19.8082L52.2103 25.3738C51.845 25.7391 51.859 26.3453 52.2415 26.7278C52.624 27.1103 53.2303 27.1243 53.5956 26.759L59.1611 21.1935L59.1961 22.7118C59.2082 23.2406 59.6468 23.6791 60.1756 23.6913C60.7044 23.7035 61.1232 23.2847 61.111 22.7559L61.0228 18.926C61.0106 18.3972 60.5721 17.9587 60.0433 17.9465L56.2134 17.8583Z" fill="black"/>
<path d="M142.112 45.2144C142.125 44.6856 141.706 44.2668 141.177 44.279C140.648 44.2912 140.21 44.7297 140.197 45.2585L140.162 46.7768L134.597 41.2113C134.232 40.846 133.625 40.8599 133.243 41.2425C132.86 41.625 132.846 42.2312 133.212 42.5965L138.777 48.1621L137.259 48.197C136.73 48.2092 136.292 48.6478 136.279 49.1766C136.267 49.7054 136.686 50.1242 137.215 50.112L141.045 50.0238C141.573 50.0116 142.012 49.5731 142.024 49.0443L142.112 45.2144Z" fill="black"/>
<path d="M202.213 15.8583C201.685 15.8461 201.266 16.2649 201.278 16.7937C201.29 17.3225 201.729 17.7611 202.258 17.7732L203.776 17.8082L198.21 23.3738C197.845 23.7391 197.859 24.3453 198.241 24.7278C198.624 25.1103 199.23 25.1243 199.596 24.759L205.161 19.1935L205.196 20.7118C205.208 21.2406 205.647 21.6791 206.176 21.6913C206.704 21.7035 207.123 21.2847 207.111 20.7559L207.023 16.926C207.011 16.3972 206.572 15.9587 206.043 15.9465L202.213 15.8583Z" fill="black"/>
<path d="M287.112 48.2144C287.125 47.6856 286.706 47.2668 286.177 47.279C285.648 47.2912 285.21 47.7297 285.197 48.2585L285.162 49.7768L279.597 44.2113C279.232 43.846 278.625 43.8599 278.243 44.2425C277.86 44.625 277.846 45.2312 278.212 45.5965L283.777 51.1621L282.259 51.197C281.73 51.2092 281.292 51.6478 281.279 52.1766C281.267 52.7054 281.686 53.1242 282.215 53.112L286.045 53.0238C286.573 53.0116 287.012 52.5731 287.024 52.0443L287.112 48.2144Z" fill="black"/>
</svg>
