<svg width="323" height="194" viewBox="0 0 323 194" fill="none" xmlns="http://www.w3.org/2000/svg">
<g filter="url(#filter0_d)">
<path d="M30 56C30 51.5817 33.5817 48 38 48H285C289.418 48 293 51.5817 293 56V156C293 160.418 289.418 164 285 164H38C33.5817 164 30 160.418 30 156V56Z" fill="white"/>
<rect x="135" y="56" width="150" height="0.001" fill="white"/>
<g clip-path="url(#clip0)">
<path fill-rule="evenodd" clip-rule="evenodd" d="M276.757 65.4156C277.081 65.092 277.081 64.5673 276.757 64.2437C276.434 63.9201 275.909 63.9201 275.585 64.2437L269 70.829L262.415 64.2437C262.091 63.9201 261.566 63.9201 261.243 64.2437C260.919 64.5673 260.919 65.092 261.243 65.4156L267.828 72.001L261.243 78.5863C260.919 78.9099 260.919 79.4346 261.243 79.7583C261.566 80.0819 262.091 80.0819 262.415 79.7583L269 73.1729L275.585 79.7583C275.909 80.0819 276.434 80.0819 276.757 79.7583C277.081 79.4346 277.081 78.9099 276.757 78.5863L270.172 72.001L276.757 65.4156Z" fill="black"/>
</g>
<path d="M74.4223 118.001L79.0623 106.801H81.0303L85.6063 118.001H83.7823L82.4862 114.721H77.4783L76.1663 118.001H74.4223ZM78.0383 113.329H81.9423L79.9903 108.417L78.0383 113.329ZM88.169 106.449V118.001H86.569V106.801L88.169 106.449ZM91.6534 106.449V118.001H90.0534V106.801L91.6534 106.449Z" fill="black"/>
<path d="M78 97.001H89V95.001H78V97.001ZM89 127.001H78V129.001H89V127.001ZM78 127.001C69.7157 127.001 63 120.285 63 112.001H61C61 121.39 68.6112 129.001 78 129.001V127.001ZM104 112.001C104 120.285 97.2843 127.001 89 127.001V129.001C98.3888 129.001 106 121.39 106 112.001H104ZM89 97.001C97.2843 97.001 104 103.717 104 112.001H106C106 102.612 98.3888 95.001 89 95.001V97.001ZM78 95.001C68.6112 95.001 61 102.612 61 112.001H63C63 103.717 69.7157 97.001 78 97.001V95.001Z" fill="black"/>
<path d="M135.855 113.217C135.855 113.974 135.743 114.662 135.519 115.281C135.295 115.889 134.975 116.406 134.559 116.833C134.153 117.26 133.652 117.59 133.055 117.825C132.468 118.06 131.812 118.177 131.087 118.177C129.636 118.177 128.479 117.729 127.615 116.833C126.761 115.937 126.335 114.732 126.335 113.217V106.801H128.015V113.217C128.015 114.252 128.292 115.078 128.847 115.697C129.412 116.316 130.159 116.625 131.087 116.625C132.025 116.625 132.772 116.316 133.327 115.697C133.892 115.078 134.175 114.252 134.175 113.217V106.801H135.855V113.217ZM137.725 118.001V109.857H139.325V110.673C139.645 110.353 140.008 110.113 140.413 109.953C140.829 109.782 141.283 109.697 141.773 109.697C142.701 109.697 143.464 109.996 144.061 110.593C144.659 111.18 144.957 111.942 144.957 112.881V118.001H143.357V113.153C143.357 112.513 143.171 112.012 142.797 111.649C142.435 111.276 141.949 111.089 141.341 111.089C140.915 111.089 140.525 111.18 140.173 111.361C139.832 111.542 139.549 111.804 139.325 112.145V118.001H137.725ZM146.803 118.001V109.857H148.403V110.897C148.649 110.502 148.963 110.204 149.347 110.001C149.731 109.788 150.163 109.681 150.643 109.681C150.814 109.681 150.963 109.692 151.091 109.713C151.219 109.734 151.342 109.766 151.459 109.809V111.249C151.31 111.196 151.155 111.153 150.995 111.121C150.835 111.089 150.675 111.073 150.515 111.073C150.046 111.073 149.625 111.201 149.251 111.457C148.889 111.702 148.606 112.07 148.403 112.561V118.001H146.803ZM159.297 117.073C158.828 117.436 158.337 117.708 157.825 117.889C157.313 118.06 156.753 118.145 156.145 118.145C155.548 118.145 154.988 118.038 154.465 117.825C153.942 117.601 153.489 117.302 153.105 116.929C152.721 116.556 152.417 116.113 152.193 115.601C151.98 115.078 151.873 114.518 151.873 113.921C151.873 113.334 151.98 112.785 152.193 112.273C152.406 111.761 152.694 111.318 153.057 110.945C153.42 110.572 153.852 110.278 154.353 110.065C154.854 109.841 155.388 109.729 155.953 109.729C156.508 109.729 157.025 109.841 157.505 110.065C157.996 110.278 158.412 110.577 158.753 110.961C159.105 111.334 159.382 111.782 159.585 112.305C159.788 112.828 159.889 113.388 159.889 113.985V114.449H153.457C153.564 115.121 153.873 115.681 154.385 116.129C154.897 116.566 155.505 116.785 156.209 116.785C156.604 116.785 156.982 116.721 157.345 116.593C157.708 116.465 158.017 116.289 158.273 116.065L159.297 117.073ZM155.921 111.073C155.313 111.073 154.78 111.276 154.321 111.681C153.873 112.086 153.59 112.609 153.473 113.249H158.305C158.188 112.63 157.905 112.113 157.457 111.697C157.02 111.281 156.508 111.073 155.921 111.073ZM163.895 118.145C163.01 118.145 162.29 117.916 161.735 117.457C161.18 116.998 160.903 116.401 160.903 115.665C160.903 114.897 161.196 114.294 161.783 113.857C162.37 113.409 163.175 113.185 164.199 113.185C164.594 113.185 164.978 113.228 165.351 113.313C165.724 113.388 166.082 113.494 166.423 113.633V112.769C166.423 112.193 166.252 111.761 165.911 111.473C165.57 111.185 165.079 111.041 164.439 111.041C164.066 111.041 163.676 111.1 163.271 111.217C162.866 111.324 162.412 111.494 161.911 111.729L161.319 110.529C161.927 110.241 162.503 110.033 163.047 109.905C163.591 109.766 164.13 109.697 164.663 109.697C165.719 109.697 166.535 109.953 167.111 110.465C167.698 110.966 167.991 111.681 167.991 112.609V118.001H166.423V117.297C166.06 117.585 165.671 117.798 165.255 117.937C164.839 118.076 164.386 118.145 163.895 118.145ZM162.439 115.633C162.439 116.028 162.604 116.348 162.935 116.593C163.276 116.838 163.719 116.961 164.263 116.961C164.69 116.961 165.084 116.897 165.447 116.769C165.81 116.641 166.135 116.449 166.423 116.193V114.785C166.114 114.614 165.788 114.492 165.447 114.417C165.106 114.332 164.732 114.289 164.327 114.289C163.751 114.289 163.292 114.412 162.951 114.657C162.61 114.902 162.439 115.228 162.439 115.633ZM176.075 118.001V117.233C175.733 117.521 175.349 117.745 174.923 117.905C174.496 118.054 174.048 118.129 173.579 118.129C173.003 118.129 172.464 118.022 171.963 117.809C171.461 117.585 171.024 117.286 170.651 116.913C170.288 116.54 170 116.097 169.787 115.585C169.573 115.062 169.467 114.508 169.467 113.921C169.467 113.334 169.573 112.785 169.787 112.273C170 111.761 170.288 111.318 170.651 110.945C171.024 110.572 171.467 110.278 171.979 110.065C172.491 109.841 173.035 109.729 173.611 109.729C174.059 109.729 174.491 109.798 174.907 109.937C175.323 110.076 175.707 110.273 176.059 110.529V106.801L177.659 106.449V118.001H176.075ZM171.035 113.905C171.035 114.705 171.301 115.377 171.835 115.921C172.368 116.465 173.024 116.737 173.803 116.737C174.261 116.737 174.683 116.652 175.067 116.481C175.461 116.31 175.792 116.07 176.059 115.761V112.065C175.792 111.766 175.461 111.532 175.067 111.361C174.672 111.19 174.251 111.105 173.803 111.105C173.024 111.105 172.368 111.372 171.835 111.905C171.301 112.438 171.035 113.105 171.035 113.905Z" fill="black"/>
<path d="M212.449 118.001V106.801H217.537C218.646 106.801 219.542 107.11 220.225 107.729C220.918 108.337 221.265 109.132 221.265 110.113C221.265 110.849 221.057 111.489 220.641 112.033C220.225 112.566 219.665 112.95 218.961 113.185L221.457 118.001H219.601L217.281 113.409H214.129V118.001H212.449ZM217.393 108.273H214.129V112.017H217.393C218.043 112.017 218.566 111.846 218.961 111.505C219.366 111.153 219.569 110.7 219.569 110.145C219.569 109.58 219.366 109.126 218.961 108.785C218.566 108.444 218.043 108.273 217.393 108.273ZM229.375 117.073C228.906 117.436 228.415 117.708 227.903 117.889C227.391 118.06 226.831 118.145 226.223 118.145C225.626 118.145 225.066 118.038 224.543 117.825C224.02 117.601 223.567 117.302 223.183 116.929C222.799 116.556 222.495 116.113 222.271 115.601C222.058 115.078 221.951 114.518 221.951 113.921C221.951 113.334 222.058 112.785 222.271 112.273C222.484 111.761 222.772 111.318 223.135 110.945C223.498 110.572 223.93 110.278 224.431 110.065C224.932 109.841 225.466 109.729 226.031 109.729C226.586 109.729 227.103 109.841 227.583 110.065C228.074 110.278 228.49 110.577 228.831 110.961C229.183 111.334 229.46 111.782 229.663 112.305C229.866 112.828 229.967 113.388 229.967 113.985V114.449H223.535C223.642 115.121 223.951 115.681 224.463 116.129C224.975 116.566 225.583 116.785 226.287 116.785C226.682 116.785 227.06 116.721 227.423 116.593C227.786 116.465 228.095 116.289 228.351 116.065L229.375 117.073ZM225.999 111.073C225.391 111.073 224.858 111.276 224.399 111.681C223.951 112.086 223.668 112.609 223.551 113.249H228.383C228.266 112.63 227.983 112.113 227.535 111.697C227.098 111.281 226.586 111.073 225.999 111.073ZM233.973 118.145C233.088 118.145 232.368 117.916 231.813 117.457C231.258 116.998 230.981 116.401 230.981 115.665C230.981 114.897 231.274 114.294 231.861 113.857C232.448 113.409 233.253 113.185 234.277 113.185C234.672 113.185 235.056 113.228 235.429 113.313C235.802 113.388 236.16 113.494 236.501 113.633V112.769C236.501 112.193 236.33 111.761 235.989 111.473C235.648 111.185 235.157 111.041 234.517 111.041C234.144 111.041 233.754 111.1 233.349 111.217C232.944 111.324 232.49 111.494 231.989 111.729L231.397 110.529C232.005 110.241 232.581 110.033 233.125 109.905C233.669 109.766 234.208 109.697 234.741 109.697C235.797 109.697 236.613 109.953 237.189 110.465C237.776 110.966 238.069 111.681 238.069 112.609V118.001H236.501V117.297C236.138 117.585 235.749 117.798 235.333 117.937C234.917 118.076 234.464 118.145 233.973 118.145ZM232.517 115.633C232.517 116.028 232.682 116.348 233.013 116.593C233.354 116.838 233.797 116.961 234.341 116.961C234.768 116.961 235.162 116.897 235.525 116.769C235.888 116.641 236.213 116.449 236.501 116.193V114.785C236.192 114.614 235.866 114.492 235.525 114.417C235.184 114.332 234.81 114.289 234.405 114.289C233.829 114.289 233.37 114.412 233.029 114.657C232.688 114.902 232.517 115.228 232.517 115.633ZM246.153 118.001V117.233C245.811 117.521 245.427 117.745 245.001 117.905C244.574 118.054 244.126 118.129 243.657 118.129C243.081 118.129 242.542 118.022 242.041 117.809C241.539 117.585 241.102 117.286 240.729 116.913C240.366 116.54 240.078 116.097 239.865 115.585C239.651 115.062 239.545 114.508 239.545 113.921C239.545 113.334 239.651 112.785 239.865 112.273C240.078 111.761 240.366 111.318 240.729 110.945C241.102 110.572 241.545 110.278 242.057 110.065C242.569 109.841 243.113 109.729 243.689 109.729C244.137 109.729 244.569 109.798 244.985 109.937C245.401 110.076 245.785 110.273 246.137 110.529V106.801L247.737 106.449V118.001H246.153ZM241.113 113.905C241.113 114.705 241.379 115.377 241.913 115.921C242.446 116.465 243.102 116.737 243.881 116.737C244.339 116.737 244.761 116.652 245.145 116.481C245.539 116.31 245.87 116.07 246.137 115.761V112.065C245.87 111.766 245.539 111.532 245.145 111.361C244.75 111.19 244.329 111.105 243.881 111.105C243.102 111.105 242.446 111.372 241.913 111.905C241.379 112.438 241.113 113.105 241.113 113.905Z" fill="black"/>
</g>
<circle cx="50" cy="20" r="20" fill="#29D305"/>
<path fill-rule="evenodd" clip-rule="evenodd" d="M39.5 10.25C39.5 9.83579 39.8358 9.5 40.25 9.5H59.75C60.1642 9.5 60.5 9.83579 60.5 10.25V29.75C60.5 30.1642 60.1642 30.5 59.75 30.5H40.25C39.8358 30.5 39.5 30.1642 39.5 29.75V10.25ZM40.25 8C39.0074 8 38 9.00736 38 10.25V29.75C38 30.9926 39.0074 32 40.25 32H59.75C60.9926 32 62 30.9926 62 29.75V10.25C62 9.00736 60.9926 8 59.75 8H40.25ZM54.5 13.2646C54.5 12.8504 54.1642 12.5146 53.75 12.5146C53.3358 12.5146 53 12.8504 53 13.2646V18.6099C52.6753 18.6938 52.3651 18.8319 52.0833 19.0202C51.5899 19.3499 51.2054 19.8184 50.9784 20.3666C50.7513 20.9148 50.6919 21.518 50.8076 22.0999C50.9234 22.6819 51.2091 23.2164 51.6287 23.636C52.0083 24.0156 52.4821 24.2857 53 24.4194V26.7646C53 27.1789 53.3358 27.5146 53.75 27.5146C54.1642 27.5146 54.5 27.1789 54.5 26.7646V24.4194C54.6351 24.3845 54.7681 24.3401 54.8981 24.2863C55.4462 24.0592 55.9148 23.6747 56.2444 23.1814C56.5741 22.688 56.75 22.108 56.75 21.5147C56.75 20.719 56.4339 19.9559 55.8713 19.3933C55.4892 19.0112 55.0145 18.7428 54.5 18.6099V13.2646ZM53.75 20.0147C53.4533 20.0146 53.1633 20.1026 52.9166 20.2674C52.67 20.4323 52.4777 20.6665 52.3642 20.9406C52.2507 21.2147 52.2209 21.5163 52.2788 21.8073C52.3367 22.0983 52.4796 22.3655 52.6893 22.5753C52.8991 22.7851 53.1664 22.9279 53.4574 22.9858C53.7483 23.0437 54.0499 23.014 54.324 22.9005C54.5981 22.7869 54.8324 22.5947 54.9972 22.348C55.162 22.1013 55.25 21.8113 55.25 21.5147C55.25 21.1168 55.092 20.7353 54.8107 20.454C54.5294 20.1727 54.1478 20.0146 53.75 20.0147ZM47 18.4194C47.5145 18.2865 47.9892 18.0181 48.3713 17.636C48.9339 17.0734 49.25 16.3103 49.25 15.5146C49.25 14.9213 49.0741 14.3413 48.7444 13.8479C48.4148 13.3546 47.9462 12.9701 47.3981 12.743C46.8499 12.5159 46.2467 12.4565 45.6647 12.5723C45.0828 12.688 44.5482 12.9738 44.1287 13.3933C43.7091 13.8129 43.4234 14.3474 43.3076 14.9294C43.1919 15.5113 43.2513 16.1145 43.4784 16.6627C43.7054 17.2109 44.0899 17.6794 44.5833 18.0091C44.8651 18.1974 45.1753 18.3355 45.5 18.4194V26.7646C45.5 27.1789 45.8358 27.5146 46.25 27.5146C46.6642 27.5146 47 27.1789 47 26.7646V18.4194ZM46.2486 17.0146C45.9524 17.0144 45.6629 16.9264 45.4166 16.7619C45.17 16.597 44.9777 16.3628 44.8642 16.0887C44.7507 15.8146 44.7209 15.513 44.7788 15.222C44.8367 14.931 44.9796 14.6638 45.1893 14.454C45.3991 14.2442 45.6664 14.1013 45.9574 14.0435C46.2483 13.9856 46.5499 14.0153 46.824 14.1288C47.0981 14.2424 47.3324 14.4346 47.4972 14.6813C47.662 14.928 47.75 15.218 47.75 15.5146C47.75 15.9125 47.592 16.294 47.3107 16.5753C47.0294 16.8566 46.6478 17.0147 46.25 17.0146C46.2495 17.0146 46.2491 17.0146 46.2486 17.0146Z" fill="black"/>
<defs>
<filter id="filter0_d" x="0" y="18" width="323" height="176" filterUnits="userSpaceOnUse" color-interpolation-filters="sRGB">
<feFlood flood-opacity="0" result="BackgroundImageFix"/>
<feColorMatrix in="SourceAlpha" type="matrix" values="0 0 0 0 0 0 0 0 0 0 0 0 0 0 0 0 0 0 127 0" result="hardAlpha"/>
<feOffset/>
<feGaussianBlur stdDeviation="15"/>
<feColorMatrix type="matrix" values="0 0 0 0 0 0 0 0 0 0 0 0 0 0 0 0 0 0 0.08 0"/>
<feBlend mode="normal" in2="BackgroundImageFix" result="effect1_dropShadow"/>
<feBlend mode="normal" in="SourceGraphic" in2="effect1_dropShadow" result="shape"/>
</filter>
<clipPath id="clip0">
<rect width="16" height="16" fill="white" transform="translate(261 64.001)"/>
</clipPath>
</defs>
</svg>
