<svg width="24" height="24" viewBox="0 0 24 24" fill="none" xmlns="http://www.w3.org/2000/svg">
<path d="M4.96889 14.9449C4.96889 16.3123 3.85185 17.4293 2.48444 17.4293C1.11704 17.4293 0 16.3123 0 14.9449C0 13.5775 1.11704 12.4604 2.48444 12.4604H4.96889V14.9449Z" fill="#E01E5A"/>
<path d="M6.2207 14.9449C6.2207 13.5775 7.33774 12.4604 8.70515 12.4604C10.0726 12.4604 11.1896 13.5775 11.1896 14.9449V21.1656C11.1896 22.533 10.0726 23.6501 8.70515 23.6501C7.33774 23.6501 6.2207 22.533 6.2207 21.1656V14.9449Z" fill="#E01E5A"/>
<path d="M8.70515 4.96888C7.33774 4.96888 6.2207 3.85185 6.2207 2.48444C6.2207 1.11704 7.33774 0 8.70515 0C10.0726 0 11.1896 1.11704 11.1896 2.48444V4.96888H8.70515Z" fill="#36C5F0"/>
<path d="M8.70518 6.22095C10.0726 6.22095 11.1896 7.33798 11.1896 8.70539C11.1896 10.0728 10.0726 11.1898 8.70518 11.1898H2.48444C1.11704 11.1898 0 10.0728 0 8.70539C0 7.33798 1.11704 6.22095 2.48444 6.22095H8.70518Z" fill="#36C5F0"/>
<path d="M18.6816 8.70539C18.6816 7.33798 19.7987 6.22095 21.1661 6.22095C22.5335 6.22095 23.6505 7.33798 23.6505 8.70539C23.6505 10.0728 22.5335 11.1898 21.1661 11.1898H18.6816V8.70539Z" fill="#2EB67D"/>
<path d="M17.4298 8.70519C17.4298 10.0726 16.3128 11.1896 14.9454 11.1896C13.578 11.1896 12.4609 10.0726 12.4609 8.70519V2.48445C12.4609 1.11704 13.578 0 14.9454 0C16.3128 0 17.4298 1.11704 17.4298 2.48445V8.70519Z" fill="#2EB67D"/>
<path d="M14.9454 18.6814C16.3128 18.6814 17.4298 19.7984 17.4298 21.1658C17.4298 22.5332 16.3128 23.6503 14.9454 23.6503C13.578 23.6503 12.4609 22.5332 12.4609 21.1658V18.6814H14.9454Z" fill="#ECB22E"/>
<path d="M14.9454 17.4293C13.578 17.4293 12.4609 16.3123 12.4609 14.9449C12.4609 13.5775 13.578 12.4604 14.9454 12.4604H21.1661C22.5335 12.4604 23.6506 13.5775 23.6506 14.9449C23.6506 16.3123 22.5335 17.4293 21.1661 17.4293H14.9454Z" fill="#ECB22E"/>
</svg>
