<svg width="41" height="40" fill="none" xmlns="http://www.w3.org/2000/svg"><path fill-rule="evenodd" clip-rule="evenodd" d="M8.613 7.615c-3.324 3.159-5.19 7.416-5.197 11.854-.006 4.439 1.848 8.702 5.163 11.87l.013.013c3.581 3.515 9.658 6.02 15.341 6.143 2.822.062 5.472-.465 7.647-1.674 1.901-1.057 3.499-2.665 4.552-4.982-.238.012-.506.03-.81.05l-.077.005c-.564.037-1.216.079-1.887.085-1.305.013-2.89-.1-4.219-.785-1.444-.745-2.404-2.07-2.569-4.057v-.001c-.092-1.121.362-2.047 1.04-2.785.647-.705 1.527-1.272 2.408-1.758a46.956 46.956 0 0 1 2.19-1.106c.218-.104.432-.208.643-.311.96-.47 1.872-.938 2.67-1.46 1.603-1.045 2.524-2.148 2.561-3.617.04-1.577-.916-3.966-4.248-7.585C27.5.636 15.678.994 8.613 7.614zM35.852 5.88c-7.517-8.164-21.161-7.5-29.128-.03l-.006.006C2.9 9.482.758 14.37.75 19.466c-.008 5.091 2.118 9.982 5.92 13.619 4.094 4.014 10.85 6.77 17.201 6.91 3.198.07 6.368-.523 9.069-2.023 2.721-1.513 4.889-3.908 6.11-7.299.102-.283.18-.683.037-1.115a1.65 1.65 0 0 0-.825-.936c-.538-.281-1.199-.299-1.607-.298-.447 0-.971.035-1.48.068l-.117.008c-.566.038-1.146.074-1.727.08-1.201.011-2.205-.114-2.906-.476-.585-.302-1.094-.834-1.196-2.06-.026-.312.074-.605.4-.962.358-.388.933-.789 1.741-1.234a42.962 42.962 0 0 1 2.015-1.016l.699-.34c.975-.476 2.013-1.005 2.96-1.623 1.888-1.232 3.638-2.968 3.704-5.611.064-2.535-1.446-5.53-4.896-9.278z" fill="var(--e-color-icon-stroke-1)"/><path fill-rule="evenodd" clip-rule="evenodd" d="M12.2 20.898c-.757 0-1.37.575-1.37 1.284 0 .709.613 1.283 1.37 1.283.755 0 1.368-.574 1.368-1.283s-.613-1.284-1.369-1.284zm-4.036 1.284c0-2.09 1.807-3.783 4.035-3.783 2.229 0 4.035 1.693 4.035 3.783s-1.806 3.783-4.035 3.783c-2.228 0-4.035-1.694-4.035-3.783zm10.719 6.775c-.756 0-1.369.574-1.369 1.283s.613 1.283 1.369 1.283 1.369-.574 1.369-1.283-.613-1.283-1.37-1.283zm-4.035 1.283c0-2.09 1.806-3.783 4.035-3.783 2.228 0 4.035 1.694 4.035 3.783 0 2.09-1.807 3.783-4.035 3.783-2.229 0-4.035-1.694-4.035-3.783zm10.5-21.67c-.756 0-1.37.575-1.37 1.284 0 .708.614 1.283 1.37 1.283.756 0 1.368-.575 1.368-1.283 0-.71-.612-1.284-1.368-1.284zm-4.035 1.284c0-2.09 1.806-3.784 4.035-3.784 2.228 0 4.035 1.694 4.035 3.784s-1.807 3.783-4.035 3.783c-2.229 0-4.035-1.694-4.035-3.783z" fill="var(--e-color-icon-stroke-1)"/><path fill-rule="evenodd" clip-rule="evenodd" d="M13.889 11.257c-.756 0-1.37.574-1.37 1.283s.614 1.283 1.37 1.283c.756 0 1.368-.574 1.368-1.283s-.612-1.283-1.368-1.283zM9.854 12.54c0-2.09 1.806-3.783 4.035-3.783 2.228 0 4.035 1.694 4.035 3.783 0 2.09-1.807 3.783-4.035 3.783-2.229 0-4.035-1.694-4.035-3.783z" fill="var(--e-color-icon-positive)"/></svg>