<svg width="40" height="40" fill="none" xmlns="http://www.w3.org/2000/svg"><g clip-path="url(#clip0_15562_15063)"><path d="M26.25 17.5A1.25 1.25 0 0 1 25 16.25v-2.68a1.25 1.25 0 0 1 2.5 0v2.68a1.25 1.25 0 0 1-1.25 1.25zm-9.82 10h-2.68a1.25 1.25 0 0 1 0-2.5h2.68a1.25 1.25 0 0 1 0 2.5zm22.32 0h-2.68a1.25 1.25 0 0 1 0-2.5h2.68a1.25 1.25 0 0 1 0 2.5zm-20.54-5.89a1.21 1.21 0 0 1-.88-.37L15.06 19a1.25 1.25 0 0 1 1.76-1.77l2.28 2.27a1.25 1.25 0 0 1 0 1.77 1.29 1.29 0 0 1-.89.34zm16.08 0a1.26 1.26 0 0 1-.89-2.14l2.28-2.27a1.26 1.26 0 0 1 1.76 1.8l-2.27 2.27a1.24 1.24 0 0 1-.88.34z" fill="var(--e-color-icon-positive)"/><path d="M28.75 40h-5a1.25 1.25 0 0 1 0-2.5h5a1.25 1.25 0 1 1 0 2.5zm0-3.75h-5A1.25 1.25 0 0 1 22.5 35v-2.26a7.48 7.48 0 0 1-3.72-5.87A7.48 7.48 0 0 1 22.15 20a7.531 7.531 0 0 1 3.79-1.22 7.381 7.381 0 0 1 3.88.9 7.471 7.471 0 0 1 3.93 6.6A7.54 7.54 0 0 1 30 32.74V35a1.25 1.25 0 0 1-1.25 1.25zM25 33.75h2.5V32a1.22 1.22 0 0 1 .75-1.14 5 5 0 0 0 1.462-8.192 5.001 5.001 0 0 0-6.202-.578 5 5 0 0 0 .74 8.77A1.23 1.23 0 0 1 25 32v1.75zm-21.87-5A3.14 3.14 0 0 1 0 25.64V3.1A3.11 3.11 0 0 1 .93.9a3.21 3.21 0 0 1 2.2-.9h27.49a3 3 0 0 1 2.2.9 3.15 3.15 0 0 1 .93 2.2V11.23a1.25 1.25 0 0 1-2.5 0V8.75H2.5v16.88a.63.63 0 0 0 .19.44.602.602 0 0 0 .44.18h5.62a1.25 1.25 0 1 1 0 2.5H3.13zM2.5 6.25h28.75V3.11a.63.63 0 0 0-.63-.61H3.12a.61.61 0 0 0-.62.61v3.14z" fill="var(--e-color-icon-stroke-1)"/></g><defs><clipPath id="clip0_15562_15063"><path fill="#fff" d="M0 0H40V40H0z"/></clipPath></defs></svg>