<svg width="40" height="41" fill="none" xmlns="http://www.w3.org/2000/svg"><g clip-path="url(#clip0_222_1581)" fill-rule="evenodd" clip-rule="evenodd"><path d="M2.917 2.75a.417.417 0 0 0-.417.417v11.667c0 .23.187.416.417.416h11.666c.23 0 .417-.186.417-.416V3.167a.417.417 0 0 0-.417-.417H2.917zM0 3.167A2.917 2.917 0 0 1 2.917.25h11.666A2.917 2.917 0 0 1 17.5 3.167v11.667a2.917 2.917 0 0 1-2.917 2.916H2.917A2.917 2.917 0 0 1 0 14.834V3.167z" fill="var(--e-color-icon-stroke-1)"/><path d="M31.25 2.75a6.25 6.25 0 1 0 0 12.5 6.25 6.25 0 0 0 0-12.5zM22.5 9A8.75 8.75 0 1 1 40 9a8.75 8.75 0 0 1-17.5 0z" fill="var(--e-color-icon-positive)"/><path d="M28.585 21.896a2.727 2.727 0 0 1 3.825 1.055l7.224 13.004a2.96 2.96 0 0 1 .023 2.808 2.759 2.759 0 0 1-2.413 1.487H22.756a2.758 2.758 0 0 1-2.414-1.487 2.962 2.962 0 0 1 .024-2.808l.003-.005 7.221-13c.23-.434.574-.799.995-1.054zM30 24a.227.227 0 0 0-.201.122l-.017.03-7.225 13.007v.002a.462.462 0 0 0-.003.436l.007.014a.258.258 0 0 0 .221.14h14.435a.258.258 0 0 0 .222-.14l.007-.014a.462.462 0 0 0-.002-.436l-.001-.002-7.226-13.007a.975.975 0 0 1-.016-.03A.227.227 0 0 0 30 24zM7.667 20.495a2.547 2.547 0 0 1 3.047.68l6.176 7.394a2.628 2.628 0 0 1 0 3.363l-.002.002-6.175 7.389-.003.003a2.544 2.544 0 0 1-3.922 0l-.003-.003L.608 31.93a2.628 2.628 0 0 1 0-3.362l.002-.002 6.181-7.393c.239-.288.537-.52.876-.679zm1.085 2.257a.046.046 0 0 0-.036.017l-.005.006-6.181 7.393a.128.128 0 0 0 0 .164l6.183 7.4c.004.004.01.009.016.012a.047.047 0 0 0 .056-.013l.005-.006 6.178-7.393a.13.13 0 0 0 0-.163l-6.18-7.4a.046.046 0 0 0-.036-.017z" fill="var(--e-color-icon-stroke-1)"/></g><defs><clipPath id="clip0_222_1581"><path fill="#fff" transform="translate(0 .25)" d="M0 0H40V40H0z"/></clipPath></defs></svg>