<svg width="40" height="40" fill="none" xmlns="http://www.w3.org/2000/svg"><path fill-rule="evenodd" clip-rule="evenodd" d="M3.342 32.797l.001-.001h-.001z" fill="var(--e-color-icon-positive)"/><path d="M8.868 32.032c-.33-.096-2.74-1.253-4.126-1.327-.67-.035-1.468-.012-2.111.254-.34.14-.705.377-.948.774-.252.41-.3.873-.22 1.318.133.732.665 1.234 1.062 1.53.425.319.9.552 1.21.697.185.086.41.182.634.277l.135.057c.278.118.562.24.831.37.272.132.509.26.695.386.197.132.3.254.3.254.242.203-.017.463-.177.567-.464.209-.737.169-1.73 0-.992-.169-2.141-.497-2.616-.71a1 1 0 0 0-1.371.301.974.974 0 0 0 .305 1.355c1.206.509 2.673.86 3.255.97.9.196 1.941.245 2.945-.207.854-.384 1.032-.582 1.269-1.367.236-.788.311-1.217-.237-2.013-.226-.328-.542-.582-.827-.773a7.723 7.723 0 0 0-.939-.526c-.316-.152-.637-.29-.919-.41l-.149-.063a18.17 18.17 0 0 1-.556-.242 4.996 4.996 0 0 1-.858-.486c-.178-.133-.565-.263-.382-.575.182-.312 1.686-.222 2.482 0 1.13.315 1.925.733 2.18.807.56 0 1.052.143 1.207-.377.155-.52.182-.688-.344-.841z" fill="var(--e-color-icon-positive)"/><path fill-rule="evenodd" clip-rule="evenodd" d="M37.193 2.774l.798-.791A6.92 6.92 0 0 0 33.136 0a6.92 6.92 0 0 0-4.856 1.983L10.65 19.342l-.006.006a6.796 6.796 0 0 0-1.642 2.656l-.001.004-2.67 8.106a2.577 2.577 0 0 0 .674 2.546 2.671 2.671 0 0 0 2.586.663l8.144-2.698.012-.004a6.904 6.904 0 0 0 2.616-1.622l17.63-17.42a6.753 6.753 0 0 0 2.008-4.797 6.753 6.753 0 0 0-2.007-4.797l-.801.79zm-4.057-.539a4.644 4.644 0 0 0-3.257 1.33l-1.67 1.644 6.517 6.439 1.666-1.646V10a4.532 4.532 0 0 0 1.346-3.218 4.532 4.532 0 0 0-1.345-3.217 4.644 4.644 0 0 0-3.257-1.33zm-.01 10.993l-6.52-6.441-14.355 14.135c-.06.06-.12.123-.177.187l6.535 6.456c.052-.047.103-.095.153-.145l14.364-14.192zM8.5 30.753l2.488-7.556 5.538 5.471-7.595 2.515a.38.38 0 0 1-.423-.267.368.368 0 0 1-.008-.163z" fill="var(--e-color-icon-stroke-1)"/></svg>