<svg width="40" height="40" fill="none" xmlns="http://www.w3.org/2000/svg"><g clip-path="url(#clip0_10277_89783)" fill-rule="evenodd" clip-rule="evenodd"><path d="M8.75 2.493c-.69 0-1.25.56-1.25 1.25v27.5c0 .69.56 1.25 1.25 1.25h27.5c.69 0 1.25-.56 1.25-1.25v-27.5c0-.69-.56-1.25-1.25-1.25H8.75zM5 3.743a3.75 3.75 0 0 1 3.75-3.75h27.5A3.75 3.75 0 0 1 40 3.743v27.5a3.75 3.75 0 0 1-3.75 3.75H8.75A3.75 3.75 0 0 1 5 31.243v-27.5z" fill="var(--e-color-icon-stroke-1)"/><path d="M1.25 4.993c.69 0 1.25.56 1.25 1.25v30a1.25 1.25 0 0 0 1.25 1.25h30a1.25 1.25 0 0 1 0 2.5h-30A3.75 3.75 0 0 1 0 36.243v-30c0-.69.56-1.25 1.25-1.25zm13.12 5h.005a1.875 1.875 0 0 1 1.875 1.875 1.874 1.874 0 1 1-1.88-1.875z" fill="var(--e-color-icon-stroke-1)"/><path d="M25.113 14.993a2.498 2.498 0 0 1 3.226.828l.003.005 6.45 9.726a1.25 1.25 0 0 1-1.042 1.941H13.787a1.25 1.25 0 0 1-1.04-1.944l4.243-6.357a2.502 2.502 0 0 1 3.64-.567l1.022.817 2.56-3.657c.231-.333.54-.605.901-.792zm1.15 2.221l5.159 7.78H16.124l2.946-4.415 2.061 1.647a1.25 1.25 0 0 0 1.805-.26l3.325-4.75.002-.002z" fill="var(--e-color-icon-positive)"/></g><defs><clipPath id="clip0_10277_89783"><path fill="#fff" d="M0 0H40V40H0z"/></clipPath></defs></svg>