<svg width="40" height="40" fill="none" xmlns="http://www.w3.org/2000/svg"><path fill-rule="evenodd" clip-rule="evenodd" d="M4 4.286c-.736 0-1.333.586-1.333 1.31v28.809c0 .723.597 1.31 1.333 1.31h32c.736 0 1.333-.587 1.333-1.31V5.595c0-.723-.597-1.31-1.333-1.31H4zm-4 1.31c0-2.17 1.79-3.93 4-3.93h32c2.21 0 4 1.76 4 3.93v28.809c0 2.17-1.79 3.928-4 3.928H4c-2.21 0-4-1.759-4-3.928V5.595z" fill="var(--e-color-icon-stroke-1)"/><path fill-rule="evenodd" clip-rule="evenodd" d="M7.384 10.715a.36.36 0 0 0-.06.215v9.818c0 .108.034.18.06.215h8.3a.36.36 0 0 0 .06-.215l-.06-9.818a.361.361 0 0 0-.062-.215H7.384zM5 11.287C5 9.941 5.997 8.5 7.637 8.5h7.913c1.64 0 2.637 1.441 2.637 2.787v9.004c0 1.346-.997 2.787-2.637 2.787H7.637C5.997 23.078 5 21.637 5 20.29v-9.004z" fill="var(--e-color-icon-stroke-1)"/><path fill-rule="evenodd" clip-rule="evenodd" d="M5 30.285c0-.67.59-1.214 1.319-1.214h10.55c.728 0 1.318.543 1.318 1.214 0 .671-.59 1.215-1.318 1.215H6.319C5.59 31.5 5 30.956 5 30.285z" fill="var(--e-color-icon-positive)"/><path fill-rule="evenodd" clip-rule="evenodd" d="M24.287 10.627a.542.542 0 0 0-.08.303v17.525c0 .15.046.253.08.302h8.077a.541.541 0 0 0 .08-.302V10.93a.541.541 0 0 0-.08-.303h-8.077zm-2.473.896c0-1.401.946-3.023 2.638-3.023h7.912c1.692 0 2.638 1.622 2.638 3.024v16.629c0 1.401-.946 3.023-2.638 3.023h-7.912c-1.692 0-2.638-1.622-2.638-3.023v-16.63z" fill="var(--e-color-icon-stroke-1)"/><path fill-rule="evenodd" clip-rule="evenodd" d="M21.814 19.433c0-.67.59-1.215 1.32-1.215h10.549c.728 0 1.319.544 1.319 1.215s-.59 1.215-1.32 1.215H23.134c-.728 0-1.319-.544-1.319-1.215z" fill="var(--e-color-icon-stroke-1)"/></svg>