<svg width="40" height="41" fill="none" xmlns="http://www.w3.org/2000/svg"><path fill-rule="evenodd" clip-rule="evenodd" d="M14.75 18.463c0-1.17.948-2.117 2.118-2.117h21.014c1.17 0 2.117.948 2.117 2.117v3.574c0 1.17-.948 2.118-2.117 2.118H16.868a2.118 2.118 0 0 1-2.118-2.118v-3.574zm2.353.235v3.104h20.543v-3.104H17.103z" fill="var(--e-color-icon-stroke-1)"/><path fill-rule="evenodd" clip-rule="evenodd" d="M0 20.25C0 9.198 9.003.25 20.097.25c5.924 0 11.25 2.555 14.93 6.622.807.892.66 2.224-.19 2.967l-2.694 2.353c-.924.806-2.26.635-3.019-.185a12.266 12.266 0 0 0-9.027-3.947c-6.772 0-12.26 5.468-12.26 12.19 0 6.722 5.488 12.19 12.26 12.19 3.571 0 6.792-1.521 9.026-3.941.758-.822 2.096-.997 3.022-.188l2.691 2.35c.85.743.998 2.076.19 2.968a20.076 20.076 0 0 1-14.929 6.621C9.003 40.25 0 31.302 0 20.25zM20.097 2.603c-9.806 0-17.744 7.906-17.744 17.647s7.938 17.647 17.744 17.647c5.13 0 9.75-2.166 12.992-5.637l-2.346-2.05a14.61 14.61 0 0 1-10.646 4.584c-8.06 0-14.612-6.51-14.612-14.544 0-8.033 6.552-14.543 14.612-14.543 4.198 0 7.978 1.768 10.644 4.585L33.09 8.24a17.721 17.721 0 0 0-12.992-5.638z" fill="var(--e-color-icon-stroke-1)"/></svg>