<svg width="40" height="40" fill="none" xmlns="http://www.w3.org/2000/svg"><g clip-path="url(#clip0_15562_15064)" fill-rule="evenodd" clip-rule="evenodd"><path d="M21.428 29.524c0-.79.64-1.429 1.428-1.429h12.381a1.429 1.429 0 0 1 0 2.857h-12.38c-.79 0-1.43-.64-1.43-1.428zm0-7.62c0-.788.64-1.428 1.428-1.428h15.238a1.429 1.429 0 1 1 0 2.857H22.856c-.789 0-1.428-.64-1.428-1.428zm0-7.618c0-.79.64-1.429 1.428-1.429H36.19a1.429 1.429 0 1 1 0 2.857H22.856c-.789 0-1.428-.64-1.428-1.428zm0-7.62c0-.788.64-1.428 1.428-1.428h9.524a1.429 1.429 0 1 1 0 2.857h-9.524c-.789 0-1.428-.64-1.428-1.428z" fill="var(--e-color-icon-positive)"/><path d="M20 37.143c9.468 0 17.143-7.675 17.143-17.143S29.468 2.857 20 2.857 2.857 10.532 2.857 20 10.532 37.143 20 37.143zM20 40c11.046 0 20-8.954 20-20S31.046 0 20 0 0 8.954 0 20s8.954 20 20 20z" fill="var(--e-color-icon-stroke-1)"/></g><defs><clipPath id="clip0_15562_15064"><path fill="#fff" d="M0 0H40V40H0z"/></clipPath></defs></svg>