<svg width="40" height="41" fill="none" xmlns="http://www.w3.org/2000/svg"><g clip-path="url(#clip0_5844_27810)" fill-rule="evenodd" clip-rule="evenodd"><path d="M15 27.75c.69 0 1.25.56 1.25 1.25v3.75A1.25 1.25 0 0 0 17.5 34h5a1.25 1.25 0 0 0 1.25-1.25V29a1.25 1.25 0 0 1 2.5 0v3.75a3.75 3.75 0 0 1-3.75 3.75h-5a3.75 3.75 0 0 1-3.75-3.75V29c0-.69.56-1.25 1.25-1.25z" fill="var(--e-color-icon-stroke-1)"/><path d="M20 .25c.69 0 1.25.56 1.25 1.25V4a1.25 1.25 0 1 1-2.5 0V1.5c0-.69.56-1.25 1.25-1.25zM1.25 19c0-.69.56-1.25 1.25-1.25H5a1.25 1.25 0 0 1 0 2.5H2.5c-.69 0-1.25-.56-1.25-1.25zM5.349 5.634A1.25 1.25 0 0 1 7.116 5.6L8.95 7.36a1.25 1.25 0 0 1-1.732 1.802L5.384 7.402a1.25 1.25 0 0 1-.035-1.768zM33.75 19c0-.69.56-1.25 1.25-1.25h2.5a1.25 1.25 0 0 1 0 2.5H35c-.69 0-1.25-.56-1.25-1.25zm.9-13.366a1.25 1.25 0 0 1-.035 1.768l-1.833 1.761a1.25 1.25 0 1 1-1.732-1.802l1.833-1.762a1.25 1.25 0 0 1 1.768.035z" fill="var(--e-color-icon-positive)"/><path d="M19.979 6.5h.044a12.705 12.705 0 0 1 12.478 12.478v.005a12.25 12.25 0 0 1-6.803 11.137 1.25 1.25 0 0 1-.555.13H14.859c-.209 0-.406-.051-.58-.142a12.25 12.25 0 0 1-6.778-11.117v-.006A12.705 12.705 0 0 1 19.98 6.5zm-4.817 21.25h9.678a9.75 9.75 0 0 0 5.161-8.73 10.205 10.205 0 0 0-10-10.02 10.205 10.205 0 0 0-10 10.026 9.75 9.75 0 0 0 5.16 8.724zM20 34c.69 0 1.25.56 1.25 1.25V39a1.25 1.25 0 1 1-2.5 0v-3.75c0-.69.56-1.25 1.25-1.25z" fill="var(--e-color-icon-stroke-1)"/><path d="M20 21.5c.69 0 1.25.56 1.25 1.25V29a1.25 1.25 0 1 1-2.5 0v-6.25c0-.69.56-1.25 1.25-1.25z" fill="var(--e-color-icon-stroke-1)"/><path d="M15.366 18.116a1.25 1.25 0 0 1 1.768 0L20 20.983l2.866-2.867a1.25 1.25 0 1 1 1.768 1.768l-3.75 3.75a1.25 1.25 0 0 1-1.768 0l-3.75-3.75a1.25 1.25 0 0 1 0-1.768z" fill="var(--e-color-icon-stroke-1)"/></g><defs><clipPath id="clip0_5844_27810"><path fill="#fff" transform="translate(0 .25)" d="M0 0H40V40H0z"/></clipPath></defs></svg>