<svg width="40" height="40" fill="none" xmlns="http://www.w3.org/2000/svg"><g clip-path="url(#clip0_15852_151403)"><path fill-rule="evenodd" clip-rule="evenodd" d="M19.998 0c.733 0 1.328.594 1.328 1.328v7.469a1.328 1.328 0 0 1-2.656 0v-7.47C18.67.595 19.264 0 19.998 0zM5.856 5.858a1.328 1.328 0 0 1 1.878 0l5.28 5.281a1.328 1.328 0 1 1-1.877 1.878L5.856 7.736a1.328 1.328 0 0 1 0-1.878zM0 20c0-.733.594-1.328 1.328-1.328h7.469a1.328 1.328 0 0 1 0 2.656h-7.47A1.328 1.328 0 0 1 0 20zm13.015 6.983c.518.519.518 1.36 0 1.878l-5.282 5.281a1.328 1.328 0 0 1-1.877-1.878l5.281-5.28a1.328 1.328 0 0 1 1.878 0zm6.983 2.892c.733 0 1.328.595 1.328 1.328v7.47a1.328 1.328 0 0 1-2.656 0v-7.47c0-.733.594-1.328 1.328-1.328zm6.985-2.892a1.328 1.328 0 0 1 1.877 0l5.282 5.281a1.328 1.328 0 0 1-1.878 1.878l-5.281-5.281a1.328 1.328 0 0 1 0-1.878zM29.875 20c0-.733.595-1.328 1.328-1.328h7.469a1.328 1.328 0 0 1 0 2.656h-7.47A1.328 1.328 0 0 1 29.876 20zm4.267-14.142c.518.518.518 1.359 0 1.878l-5.282 5.28a1.328 1.328 0 0 1-1.877-1.877l5.281-5.281a1.328 1.328 0 0 1 1.878 0z" fill="var(--e-color-icon-stroke-1)"/><path d="M26.372 23.718c-5.573 0-10.091-4.518-10.091-10.091 0-1.695.418-3.293 1.156-4.695l-3.346 1.266a12.76 12.76 0 0 0-.466 3.429c0 7.04 5.707 12.746 12.747 12.746 1.293 0 2.541-.192 3.718-.55l1.098-3.326a10.046 10.046 0 0 1-4.816 1.22z" fill="var(--e-color-icon-positive)"/><path fill-rule="evenodd" clip-rule="evenodd" d="M11.139 11.14A12.531 12.531 0 1 1 28.861 28.86 12.531 12.531 0 0 1 11.139 11.14zm8.86-1.015A9.876 9.876 0 1 0 20 29.876a9.876 9.876 0 0 0 0-19.751z" fill="var(--e-color-icon-stroke-1)"/></g><defs><clipPath id="clip0_15852_151403"><path fill="#fff" d="M0 0H40V40H0z"/></clipPath></defs></svg>