<svg width="40" height="41" fill="none" xmlns="http://www.w3.org/2000/svg"><g clip-path="url(#clip0_222_1593)" fill-rule="evenodd" clip-rule="evenodd"><path d="M21.25.25a18.75 18.75 0 1 1-9.274 35.028l-10.189 4.85a1.25 1.25 0 0 1-1.666-1.665l4.851-10.188A18.725 18.725 0 0 1 21.25.25zm0 1.25l-.002 1.25A16.225 16.225 0 0 0 7.45 27.548c.225.362.25.813.067 1.198l-3.624 7.612 7.611-3.625a1.25 1.25 0 0 1 1.198.067 16.25 16.25 0 1 0 8.55-30.05L21.25 1.5z" fill="var(--e-color-icon-stroke-1)"/><path d="M16.215 14h.045c.112 0 .224.008.334.023 1.352.14 2.335.924 2.952 1.876.655 1.013.933 2.25.933 3.313l-.002.068a5.891 5.891 0 0 1-3.419 5.03 1.25 1.25 0 1 1-1.046-2.27 3.391 3.391 0 0 0 1.966-2.862 4.043 4.043 0 0 0-.085-.785 2.5 2.5 0 1 1-1.992-4.367 1.252 1.252 0 0 1 .314-.025zm8.436.026a2.5 2.5 0 1 0 1.992 4.367c.054.26.083.527.085.785a3.392 3.392 0 0 1-1.966 2.862 1.25 1.25 0 0 0 1.046 2.27 5.892 5.892 0 0 0 3.42-5.098c0-1.063-.277-2.3-.932-3.313-.616-.952-1.6-1.736-2.952-1.876a2.507 2.507 0 0 0-.439-.023c-.087 0-.172.01-.254.026z" fill="var(--e-color-icon-positive)"/></g><defs><clipPath id="clip0_222_1593"><path fill="#fff" transform="translate(0 .25)" d="M0 0H40V40H0z"/></clipPath></defs></svg>