<svg width="41" height="41" fill="none" xmlns="http://www.w3.org/2000/svg"><path fill-rule="evenodd" clip-rule="evenodd" d="M10.25 7c-2.582 0-5.015 1.171-6.778 3.182C1.713 12.187.75 14.873.75 17.643V33.18c0 .73.594 1.321 1.326 1.321.73 0 1.325-.59 1.325-1.321v-6.393H17.1v6.384c0 .731.594 1.322 1.325 1.322.732 0 1.326-.59 1.326-1.322V17.643c0-2.77-.963-5.456-2.722-7.46C15.265 8.17 12.832 7 10.25 7zm-4.782 4.922c1.302-1.486 3.027-2.279 4.782-2.279s3.48.793 4.782 2.279c1.308 1.49 2.067 3.546 2.067 5.721v6.5H3.4v-6.5c0-2.175.76-4.23 2.067-5.721zM28.25 17c-1.848 0-3.626.72-4.94 2.011a6.847 6.847 0 0 0-2.06 4.887v9.262a1.34 1.34 0 1 0 2.677 0v-3.019h8.646v3.015a1.34 1.34 0 1 0 2.677 0v-9.258a6.847 6.847 0 0 0-2.06-4.887 7.054 7.054 0 0 0-4.94-2.01zm-3.066 3.924a4.378 4.378 0 0 1 3.066-1.244c1.155 0 2.257.45 3.066 1.244a4.167 4.167 0 0 1 1.257 2.974v3.564h-8.646v-3.564c0-1.11.45-2.18 1.257-2.974z" fill="var(--e-color-icon-stroke-1)"/><path d="M39 30.25c.545 0 1.01.201 1.398.602.401.387.602.853.602 1.398 0 .545-.2 1.018-.602 1.42-.387.387-.853.58-1.398.58a1.978 1.978 0 0 1-1.42-.58 1.977 1.977 0 0 1-.58-1.42c0-.545.194-1.01.58-1.398.402-.401.875-.602 1.42-.602z" fill="var(--e-color-icon-positive)"/></svg>