<svg width="40" height="40" viewBox="0 0 40 40" fill="none" xmlns="http://www.w3.org/2000/svg">
<g clip-path="url(#clip0)">
<path d="M18.8111 31.0766C18.4178 31.0766 18.0161 31.0566 17.6161 31.0183C17.1528 30.9716 16.7561 30.6766 16.5811 30.2466C16.4044 29.8149 16.4811 29.3266 16.7794 28.9716C17.8511 27.6899 17.8544 26.1983 17.8594 24.4733C17.8628 22.6899 17.8678 20.6699 19.3128 18.9916C20.2894 17.8016 21.6894 17.0583 23.2444 16.9066C23.4278 16.8883 23.6094 16.8799 23.7894 16.8799C23.8928 16.8799 23.9994 16.8833 24.1044 16.8883L31.2111 2.57659C31.3294 2.34826 31.4594 2.13826 31.6028 1.94159C32.3378 0.941589 33.4178 0.288255 34.6444 0.0999219C34.8794 0.0632552 35.1194 0.0449219 35.3561 0.0449219C36.3461 0.0449219 37.2944 0.358255 38.0994 0.948255C40.1644 2.46492 40.6094 5.37992 39.0928 7.44326L29.2211 20.5166C30.0261 22.4949 29.6928 24.7799 28.3294 26.4383C28.2761 26.5049 28.2178 26.5716 28.1594 26.6366C25.8828 29.4516 22.4694 31.0766 18.8111 31.0766ZM23.8194 19.3766C23.7094 19.3766 23.5978 19.3816 23.4861 19.3933C22.5961 19.4799 21.7928 19.9083 21.2261 20.5999C20.3661 21.5999 20.3628 22.8699 20.3594 24.4783C20.3561 25.7416 20.3528 27.1383 19.8678 28.5199C22.3644 28.2449 24.6528 27.0016 26.2561 25.0199C26.3294 24.9366 26.3644 24.8966 26.3978 24.8549C27.1894 23.8916 27.3744 22.5583 26.8878 21.4116C26.6711 21.2283 26.5261 20.9783 26.4744 20.6999C26.3144 20.4899 26.1361 20.3016 25.9394 20.1399C25.6394 19.8933 25.3028 19.7033 24.9344 19.5733C24.8844 19.5799 24.8328 19.5833 24.7811 19.5833C24.5894 19.5833 24.3994 19.5383 24.2278 19.4533C24.1928 19.4366 24.1578 19.4166 24.1244 19.3949C24.0161 19.3833 23.9144 19.3766 23.8194 19.3766ZM26.5594 17.5649C26.9028 17.7466 27.2261 17.9633 27.5261 18.2083C27.5894 18.2599 27.6511 18.3133 27.7111 18.3683L37.0861 5.95159C37.4178 5.49992 37.5561 4.93659 37.4694 4.36992C37.3828 3.80326 37.0811 3.30326 36.6178 2.96492C36.2478 2.69326 35.8094 2.54992 35.3511 2.54992C34.6678 2.54992 34.0194 2.87659 33.6178 3.42492C33.5511 3.51492 33.4928 3.60992 33.4428 3.70659L26.5594 17.5649Z" fill="black"/>
<path d="M6.24658 39.9551C2.79992 39.9551 -0.00341797 37.1517 -0.00341797 33.7051V13.7051C-0.00341797 10.2584 2.79992 7.45508 6.24658 7.45508H22.4966C23.1866 7.45508 23.7466 8.01508 23.7466 8.70508C23.7466 9.39508 23.1866 9.95508 22.4966 9.95508H6.24658C4.17825 9.95508 2.49658 11.6367 2.49658 13.7051V33.7051C2.49658 35.7734 4.17825 37.4551 6.24658 37.4551H26.2466C28.3149 37.4551 29.9966 35.7734 29.9966 33.7051V31.2051C29.9966 30.5151 30.5566 29.9551 31.2466 29.9551C31.9366 29.9551 32.4966 30.5151 32.4966 31.2051V33.7051C32.4966 37.1517 29.6933 39.9551 26.2466 39.9551H6.24658Z" fill="#29D305"/>
</g>
<defs>
<clipPath id="clip0">
<rect width="40" height="40" fill="white"/>
</clipPath>
</defs>
</svg>
