<svg width="40" height="40" viewBox="0 0 40 40" fill="none" xmlns="http://www.w3.org/2000/svg">
<path fill-rule="evenodd" clip-rule="evenodd" d="M0 10.5C0 9.67157 0.596954 9 1.33333 9H38.6667C39.403 9 40 9.67157 40 10.5C40 11.3284 39.403 12 38.6667 12H1.33333C0.596954 12 0 11.3284 0 10.5Z" fill="black"/>
<path fill-rule="evenodd" clip-rule="evenodd" d="M4 3.71429C3.26362 3.71429 2.66667 4.3219 2.66667 5.07143V34.9286C2.66667 35.6781 3.26362 36.2857 4 36.2857H36C36.7364 36.2857 37.3333 35.6781 37.3333 34.9286V5.07143C37.3333 4.3219 36.7364 3.71429 36 3.71429H4ZM0 5.07143C0 2.82284 1.79086 1 4 1H36C38.2091 1 40 2.82284 40 5.07143V34.9286C40 37.1772 38.2091 39 36 39H4C1.79086 39 0 37.1772 0 34.9286V5.07143Z" fill="black"/>
<path fill-rule="evenodd" clip-rule="evenodd" d="M19 29.5C19 28.6716 19.6156 28 20.375 28H28.625C29.3844 28 30 28.6716 30 29.5C30 30.3284 29.3844 31 28.625 31H20.375C19.6156 31 19 30.3284 19 29.5Z" fill="black"/>
<path fill-rule="evenodd" clip-rule="evenodd" d="M11.3905 17.4101C11.9112 16.8633 12.7554 16.8633 13.2761 17.4101L18.6095 23.0101C19.1302 23.5568 19.1302 24.4432 18.6095 24.9899L13.2761 30.5899C12.7554 31.1367 11.9112 31.1367 11.3905 30.5899C10.8698 30.0432 10.8698 29.1568 11.3905 28.6101L15.781 24L11.3905 19.3899C10.8698 18.8432 10.8698 17.9568 11.3905 17.4101Z" fill="#29D305"/>
</svg>
