<svg width="40" height="40" viewBox="0 0 40 40" fill="none" xmlns="http://www.w3.org/2000/svg">
<path fill-rule="evenodd" clip-rule="evenodd" d="M1.2666 11.2549C1.2666 10.5645 1.82625 10.0049 2.5166 10.0049H37.5166C38.207 10.0049 38.7666 10.5645 38.7666 11.2549C38.7666 11.9452 38.207 12.5049 37.5166 12.5049H2.5166C1.82625 12.5049 1.2666 11.9452 1.2666 11.2549Z" fill="black"/>
<path fill-rule="evenodd" clip-rule="evenodd" d="M5.01636 5.00488C4.326 5.00488 3.76636 5.56453 3.76636 6.25488V33.7549C3.76636 34.4452 4.326 35.0049 5.01636 35.0049H35.0164C35.7067 35.0049 36.2664 34.4452 36.2664 33.7549V6.25488C36.2664 5.56453 35.7067 5.00488 35.0164 5.00488H5.01636ZM1.26636 6.25488C1.26636 4.18381 2.94529 2.50488 5.01636 2.50488H35.0164C37.0874 2.50488 38.7664 4.18381 38.7664 6.25488V33.7549C38.7664 35.826 37.0874 37.5049 35.0164 37.5049H5.01636C2.94529 37.5049 1.26636 35.826 1.26636 33.7549V6.25488Z" fill="black"/>
<path fill-rule="evenodd" clip-rule="evenodd" d="M18.7664 28.7549C18.7664 28.0645 19.326 27.5049 20.0164 27.5049H27.5164C28.2067 27.5049 28.7664 28.0645 28.7664 28.7549C28.7664 29.4452 28.2067 30.0049 27.5164 30.0049H20.0164C19.326 30.0049 18.7664 29.4452 18.7664 28.7549Z" fill="black"/>
<path fill-rule="evenodd" clip-rule="evenodd" d="M11.6325 17.871C12.1206 17.3828 12.9121 17.3828 13.4002 17.871L18.4002 22.871C18.8884 23.3592 18.8884 24.1506 18.4002 24.6388L13.4002 29.6388C12.9121 30.1269 12.1206 30.1269 11.6325 29.6388C11.1443 29.1506 11.1443 28.3592 11.6325 27.871L15.7486 23.7549L11.6325 19.6388C11.1443 19.1506 11.1443 18.3592 11.6325 17.871Z" fill="#29D305"/>
</svg>
