<svg width="40" height="40" viewBox="0 0 40 40" fill="none" xmlns="http://www.w3.org/2000/svg">
<path d="M20.3672 38.1532C19.2872 38.1532 18.3338 37.4649 17.9938 36.4415L16.0738 30.6865L9.42385 24.0332L3.66718 22.1132C3.03551 21.9032 2.52218 21.4599 2.22385 20.8615C1.92385 20.2649 1.87551 19.5865 2.08551 18.9549C2.20718 18.5865 2.41718 18.2482 2.69218 17.9732L3.07718 17.5882C5.20718 15.4582 8.02385 14.2849 11.0088 14.2849C12.2222 14.2849 13.4272 14.4815 14.5905 14.8699L15.9505 15.3232L25.5622 5.71153C27.7605 3.51153 30.6739 2.11153 33.7655 1.7682L37.3622 1.3682C37.4089 1.3632 37.4555 1.35986 37.5022 1.35986C37.8355 1.35986 38.1489 1.48986 38.3855 1.72653C38.6555 1.99653 38.7855 2.3682 38.7439 2.7482L38.3439 6.34486C38.0005 9.43653 36.6005 12.3499 34.4005 14.5499L24.7872 24.1615L25.2388 25.5215C26.5955 29.5899 25.5539 33.9999 22.5222 37.0332L22.1322 37.4215C21.8589 37.6949 21.5222 37.9032 21.1555 38.0249C20.8988 38.1099 20.6339 38.1532 20.3672 38.1532ZM20.3655 35.6532L20.7538 35.2649C23.1105 32.9065 23.9205 29.4765 22.8655 26.3132L22.8105 26.1465L18.5972 30.3499L20.3655 35.6532ZM17.1672 28.2432L32.6305 12.7815C34.4305 10.9815 35.5772 8.5982 35.8572 6.06986L36.0839 4.02653L34.0405 4.2532C31.5105 4.53486 29.1272 5.67986 27.3272 7.47986L11.8672 22.9415L17.1672 28.2432ZM11.0122 16.7865C8.69218 16.7865 6.50218 17.6982 4.84552 19.3565L4.45885 19.7432L9.76218 21.5115L13.9722 17.2999L13.8005 17.2432C12.8938 16.9399 11.9555 16.7865 11.0122 16.7865Z" fill="black"/>
<path d="M3.03387 38.3332C2.70053 38.3332 2.38553 38.2032 2.15053 37.9665C1.83053 37.6482 1.70887 37.1799 1.83053 36.7449C2.1922 35.4599 4.07387 28.9715 5.6872 27.3632C6.5422 26.5065 7.6822 25.9899 8.89387 25.9099C8.9072 25.9099 8.9622 25.9082 8.97553 25.9082C9.6322 25.9082 10.1805 26.4215 10.2222 27.0765C10.2672 27.7632 9.74553 28.3599 9.0572 28.4049C8.45053 28.4432 7.8822 28.7015 7.45387 29.1315C6.90053 29.6832 5.8872 32.1132 4.89887 35.2165C8.00053 34.2282 10.4305 33.2165 10.9839 32.6632C11.4505 32.1982 11.7172 31.5549 11.7155 30.8965C11.7155 30.2065 12.2755 29.6465 12.9639 29.6449C13.6539 29.6449 14.2139 30.2049 14.2155 30.8932C14.2172 32.2115 13.6822 33.5015 12.7489 34.4315C11.1422 36.0382 4.65553 37.9232 3.37053 38.2849C3.26053 38.3182 3.1472 38.3332 3.03387 38.3332Z" fill="black"/>
</svg>
