<svg width="40" height="40" viewBox="0 0 40 40" fill="none" xmlns="http://www.w3.org/2000/svg">
<path fill-rule="evenodd" clip-rule="evenodd" d="M16.6277 14.8411C16.1508 14.6872 15.6442 14.6488 15.1496 14.7291C14.655 14.8093 14.1865 15.0059 13.7828 15.3027C13.3793 15.5993 13.052 15.9874 12.8278 16.4351C12.532 17.0291 12.4305 17.7011 12.5376 18.356C12.6448 19.0112 12.9555 19.6161 13.4255 20.085L13.4452 20.1051L19.9992 26.9432L26.5484 20.1054L26.5679 20.0855C27.0378 19.6163 27.3483 19.0112 27.4556 18.3559C27.5627 17.701 27.4614 17.0289 27.1659 16.4347C26.9417 15.9872 26.6145 15.5992 26.2112 15.3027C25.8074 15.0059 25.3389 14.8093 24.8443 14.7291C24.3497 14.6488 23.8431 14.6872 23.3662 14.8411C22.8895 14.9949 22.4561 15.2598 22.1017 15.6139C22.1016 15.614 22.1018 15.6138 22.1017 15.6139L20.8834 16.8322C20.3959 17.3197 19.6058 17.3205 19.1174 16.834L17.8925 15.6141C17.5381 15.2599 17.1046 14.995 16.6277 14.8411ZM28.2845 15.8767L29.4035 15.3197C29.933 16.3835 30.1146 17.5869 29.9228 18.7596C29.7317 19.9274 29.1798 21.006 28.3448 21.8441L20.9022 29.6147C20.6665 29.8608 20.3405 30 19.9997 30C19.6589 30.0001 19.3328 29.861 19.097 29.615L11.6495 21.8445C10.8138 21.0066 10.2615 19.9278 10.0704 18.7597C9.87849 17.5867 10.0605 16.383 10.5907 15.3191L11.7095 15.8767L10.5916 15.3173C10.993 14.5151 11.5793 13.8196 12.3021 13.2883C13.025 12.757 13.8637 12.405 14.7492 12.2613C15.6347 12.1177 16.5417 12.1864 17.3954 12.4619C18.2488 12.7373 19.0246 13.2114 19.659 13.8451C19.6593 13.8454 19.6588 13.8449 19.659 13.8451L19.9977 14.1824L20.3339 13.8461C20.9684 13.212 21.7448 12.7374 22.5985 12.4619C23.4523 12.1864 24.3592 12.1177 25.2447 12.2613C26.1303 12.405 26.969 12.757 27.6918 13.2883C28.4146 13.8196 29.0009 14.5151 29.4023 15.3173L28.2845 15.8767Z" fill="black"/>
<path fill-rule="evenodd" clip-rule="evenodd" d="M20 2.5C10.335 2.5 2.5 10.335 2.5 20C2.5 29.665 10.335 37.5 20 37.5C29.665 37.5 37.5 29.665 37.5 20C37.5 10.335 29.665 2.5 20 2.5ZM0 20C0 8.9543 8.9543 0 20 0C31.0457 0 40 8.9543 40 20C40 31.0457 31.0457 40 20 40C8.9543 40 0 31.0457 0 20Z" fill="#29D305"/>
</svg>
