<svg width="40" height="40" viewBox="0 0 40 40" fill="none" xmlns="http://www.w3.org/2000/svg">
<g clip-path="url(#clip0)">
<path fill-rule="evenodd" clip-rule="evenodd" d="M27.8437 0.0594465C30.0513 -0.171654 32.2769 0.274448 34.2249 1.33848C34.5737 1.52898 34.8123 1.87269 34.8689 2.26605C34.9254 2.65941 34.7933 3.05643 34.5123 3.33748L29.3042 8.54723V10.6958H31.4528L36.6625 5.48765L36.6646 5.48557C36.9457 5.2048 37.3427 5.07287 37.7359 5.1295C38.1292 5.18613 38.4727 5.42472 38.6632 5.7734C39.7272 7.72139 40.1733 9.94704 39.9422 12.1546C39.7111 14.3622 38.8138 16.4472 37.3694 18.1326C35.925 19.818 34.0019 21.024 31.8558 21.5904C29.9734 22.0871 27.9976 22.0712 26.1315 21.5515L9.28229 38.4073C8.26259 39.427 6.87941 40 5.43734 40C3.99527 40 2.61226 39.4271 1.59256 38.4074C0.572861 37.3877 0 36.0047 0 34.5627C0 33.1206 0.572861 31.7376 1.59256 30.7179L18.4468 13.8702C17.9271 12.0041 17.9112 10.0283 18.4079 8.14592C18.9743 5.99974 20.1803 4.0767 21.8657 2.6323C23.5511 1.18791 25.6361 0.290547 27.8437 0.0594465ZM31.4033 2.87885C30.3412 2.55975 29.2208 2.45208 28.1064 2.56874C26.4081 2.74653 24.8041 3.43687 23.5075 4.54805C22.2109 5.65922 21.2831 7.13862 20.8474 8.78968C20.4117 10.4407 20.4887 12.1853 21.0682 13.7915C21.2342 14.2516 21.1193 14.7661 20.7734 15.1118L3.3766 32.5019C2.83005 33.0485 2.52301 33.7897 2.52301 34.5627C2.52301 35.3356 2.83005 36.0769 3.3766 36.6234C3.92314 37.1699 4.66441 37.477 5.43734 37.477C6.21027 37.477 6.95154 37.1699 7.49808 36.6234L24.8899 19.2249C25.2356 18.879 25.7501 18.7641 26.2101 18.9301C27.8164 19.5096 29.5609 19.5866 31.212 19.1509C32.8631 18.7152 34.3425 17.7874 35.4536 16.4908C36.5648 15.1942 37.2551 13.5902 37.4329 11.8919C37.5496 10.7775 37.4419 9.65712 37.1228 8.59502L32.8671 12.8495C32.6305 13.086 32.3097 13.2188 31.9752 13.2188H28.0427C27.346 13.2188 26.7812 12.654 26.7812 11.9573V8.02481C26.7812 7.6903 26.914 7.36949 27.1505 7.13292L31.4033 2.87885Z" fill="black"/>
<path d="M6.5 33.5L15 25" stroke="#29D305" stroke-width="2.5" stroke-linecap="round" stroke-linejoin="round"/>
</g>
<defs>
<clipPath id="clip0">
<rect width="40" height="40" fill="white"/>
</clipPath>
</defs>
</svg>
