<svg width="40" height="40" viewBox="0 0 40 40" fill="none" xmlns="http://www.w3.org/2000/svg">
<path fill-rule="evenodd" clip-rule="evenodd" d="M8.75 20C6.67893 20 5 21.6789 5 23.75C5 25.8211 6.67893 27.5 8.75 27.5C10.8211 27.5 12.5 25.8211 12.5 23.75C12.5 21.6789 10.8211 20 8.75 20ZM2.5 23.75C2.5 20.2982 5.29822 17.5 8.75 17.5C12.2018 17.5 15 20.2982 15 23.75C15 27.2018 12.2018 30 8.75 30C5.29822 30 2.5 27.2018 2.5 23.75Z" fill="black"/>
<path fill-rule="evenodd" clip-rule="evenodd" d="M8.75 32.5C7.0924 32.5 5.50269 33.1585 4.33058 34.3306C3.4576 35.2036 2.86954 36.3082 2.62625 37.5H14.8737C14.6305 36.3082 14.0424 35.2036 13.1694 34.3306C11.9973 33.1585 10.4076 32.5 8.75 32.5ZM2.56282 32.5628C4.20376 30.9219 6.42936 30 8.75 30C11.0706 30 13.2962 30.9219 14.9372 32.5628C16.5781 34.2038 17.5 36.4294 17.5 38.75C17.5 39.0815 17.3683 39.3995 17.1339 39.6339C16.8995 39.8683 16.5815 40 16.25 40H1.25C0.918479 40 0.600537 39.8683 0.366117 39.6339C0.131696 39.3995 0 39.0815 0 38.75C0 36.4294 0.921872 34.2038 2.56282 32.5628Z" fill="black"/>
<path fill-rule="evenodd" clip-rule="evenodd" d="M34.9588 20.1669C35.5571 19.8225 36.3213 20.0283 36.6657 20.6266C37.1436 21.4569 37.4243 22.386 37.486 23.342C37.5478 24.2981 37.3889 25.2555 37.0216 26.1404C36.6544 27.0252 36.0887 27.8138 35.3681 28.4452C34.6476 29.0766 33.7915 29.5339 32.8661 29.7818C31.9407 30.0297 30.9707 30.0615 30.031 29.8748C29.0913 29.6881 28.2072 29.2879 27.4468 28.7051C26.6864 28.1222 26.0702 27.3724 25.6458 26.5135C25.2214 25.6546 25.0001 24.7096 24.999 23.7516C24.9983 23.0612 25.5573 22.501 26.2476 22.5002C26.938 22.4994 27.4983 23.0585 27.499 23.7488C27.4997 24.3236 27.6324 24.8906 27.8871 25.406C28.1418 25.9213 28.5115 26.3712 28.9677 26.7209C29.4239 27.0706 29.9544 27.3107 30.5182 27.4227C31.082 27.5348 31.664 27.5157 32.2193 27.3669C32.7745 27.2182 33.2882 26.9438 33.7205 26.565C34.1528 26.1862 34.4922 25.713 34.7126 25.1821C34.9329 24.6512 35.0283 24.0767 34.9912 23.5031C34.9542 22.9294 34.7858 22.372 34.499 21.8738C34.1546 21.2755 34.3604 20.5113 34.9588 20.1669Z" fill="black"/>
<path fill-rule="evenodd" clip-rule="evenodd" d="M31.25 32.5C29.5924 32.5 28.0027 33.1585 26.8306 34.3306C25.9576 35.2036 25.3695 36.3082 25.1263 37.5H37.3737C37.1305 36.3082 36.5424 35.2036 35.6694 34.3306C34.4973 33.1585 32.9076 32.5 31.25 32.5ZM25.0628 32.5628C26.7038 30.9219 28.9294 30 31.25 30C33.5706 30 35.7962 30.9219 37.4372 32.5628C39.0781 34.2038 40 36.4294 40 38.75C40 39.0815 39.8683 39.3995 39.6339 39.6339C39.3995 39.8683 39.0815 40 38.75 40H23.75C23.4185 40 23.1005 39.8683 22.8661 39.6339C22.6317 39.3995 22.5 39.0815 22.5 38.75C22.5 36.4294 23.4219 34.2038 25.0628 32.5628Z" fill="black"/>
<path fill-rule="evenodd" clip-rule="evenodd" d="M10 1.25C10 0.559644 10.5596 0 11.25 0H37.5C38.1904 0 38.75 0.559644 38.75 1.25V16.25C38.75 16.9404 38.1904 17.5 37.5 17.5H28.0178L20.8839 24.6339C20.5264 24.9914 19.9887 25.0983 19.5216 24.9049C19.0546 24.7114 18.75 24.2556 18.75 23.75V17.5H11.25C10.5596 17.5 10 16.9404 10 16.25V1.25ZM12.5 2.5V15H20C20.6904 15 21.25 15.5596 21.25 16.25V20.7322L26.6161 15.3661C26.8505 15.1317 27.1685 15 27.5 15H36.25V2.5H12.5Z" fill="black"/>
<path fill-rule="evenodd" clip-rule="evenodd" d="M28.5202 4.04583C29.0472 3.59987 29.8359 3.66557 30.2819 4.19256L33.4552 7.94256C33.8496 8.40863 33.8496 9.09142 33.4552 9.55749L30.2819 13.3075C29.8359 13.8345 29.0472 13.9002 28.5202 13.4542C27.9932 13.0083 27.9275 12.2196 28.3735 11.6926L30.8635 8.75003L28.3735 5.80749C27.9275 5.2805 27.9932 4.49178 28.5202 4.04583Z" fill="#29D305"/>
<path fill-rule="evenodd" clip-rule="evenodd" d="M20.2308 4.04583C20.7578 4.49178 20.8235 5.2805 20.3775 5.80749L17.8875 8.75003L20.3775 11.6926C20.8235 12.2196 20.7578 13.0083 20.2308 13.4542C19.7038 13.9002 18.9151 13.8345 18.4691 13.3075L15.2958 9.55749C14.9014 9.09142 14.9014 8.40863 15.2958 7.94256L18.4691 4.19256C18.9151 3.66557 19.7038 3.59987 20.2308 4.04583Z" fill="#29D305"/>
<path fill-rule="evenodd" clip-rule="evenodd" d="M25.2057 3.7672C25.8867 3.8807 26.3467 4.52473 26.2332 5.20569L24.9832 12.7057C24.8697 13.3867 24.2257 13.8467 23.5447 13.7332C22.8637 13.6197 22.4037 12.9757 22.5172 12.2947L23.7672 4.7947C23.8807 4.11373 24.5247 3.65371 25.2057 3.7672Z" fill="#29D305"/>
</svg>
