<svg width="322" height="570" fill="none" xmlns="http://www.w3.org/2000/svg"><g clip-path="url(#clip0_1507_58737)"><path transform="translate(1 1)" fill="#fff" d="M0 0H320V64H0z"/><rect x="281" y="23" width="24" height="2.5" rx="1.25" fill="#000"/><rect x="281" y="32" width="24" height="2.5" rx="1.25" fill="#000"/><rect x="281" y="41" width="24" height="2.5" rx="1.25" fill="#000"/><path d="M130.258 27.8h4.976c1.056 0 1.909.272 2.56.816.651.544.976 1.253.976 2.128 0 .555-.165 1.05-.496 1.488-.32.437-.752.768-1.296.992.661.203 1.189.539 1.584 1.008a2.48 2.48 0 0 1 .592 1.648c0 .928-.341 1.68-1.024 2.256-.683.576-1.573.864-2.672.864h-5.2V27.8zm4.784 1.568h-2.864v3.136h2.864c.544 0 .981-.139 1.312-.416.331-.288.496-.672.496-1.152 0-.48-.165-.859-.496-1.136-.331-.288-.768-.432-1.312-.432zm.192 8.064c.597 0 1.077-.155 1.44-.464.363-.32.544-.741.544-1.264s-.181-.939-.544-1.248c-.363-.31-.843-.464-1.44-.464h-3.056v3.44h3.056zm6.837-8.08a1.12 1.12 0 0 1-.8-.32 1.064 1.064 0 0 1-.32-.784c0-.299.112-.56.336-.784.224-.224.485-.336.784-.336.309 0 .576.112.8.336.224.224.336.485.336.784 0 .31-.112.57-.336.784-.214.213-.48.32-.8.32zm.912 1.632V39h-1.808v-8.016h1.808zm4.031-3.728V39h-1.808V27.56l1.808-.304zM154.965 39v-1.072a2.805 2.805 0 0 1-1.072.848c-.426.203-.89.304-1.392.304-.501 0-.976-.107-1.424-.32a3.745 3.745 0 0 1-1.168-.864 4.481 4.481 0 0 1-.768-1.296 4.676 4.676 0 0 1-.272-1.6c0-.565.096-1.099.288-1.6.192-.501.454-.933.784-1.296.342-.363.742-.65 1.2-.864.459-.213.95-.32 1.472-.32.459 0 .886.096 1.28.288.406.181.758.437 1.056.768V27.56l1.808-.304V39h-1.792zm-4.304-4c0 .725.23 1.333.688 1.824a2.23 2.23 0 0 0 1.696.736c.384 0 .736-.075 1.056-.224.331-.15.614-.368.848-.656v-3.376a2.459 2.459 0 0 0-.848-.624 2.39 2.39 0 0 0-1.056-.24 2.25 2.25 0 0 0-1.712.736c-.448.48-.672 1.088-.672 1.824zm15.238 2.976a5.295 5.295 0 0 1-1.504.896 4.67 4.67 0 0 1-1.68.288 4.04 4.04 0 0 1-2.896-1.2 4.192 4.192 0 0 1-.864-1.328 4.188 4.188 0 0 1-.32-1.632c0-.587.096-1.13.288-1.632.202-.512.474-.95.816-1.312a3.839 3.839 0 0 1 1.248-.88c.48-.213.997-.32 1.552-.32.544 0 1.045.107 1.504.32.469.203.869.485 1.2.848.341.363.608.8.8 1.312.192.501.288 1.05.288 1.648v.448h-5.92c.085.63.352 1.152.8 1.568.458.416.992.624 1.6.624.373 0 .725-.064 1.056-.192.341-.139.624-.325.848-.56l1.184 1.104zm-3.376-5.648c-.534 0-.987.181-1.36.544-.374.363-.614.848-.72 1.456h4.176c-.107-.587-.352-1.067-.736-1.44a1.853 1.853 0 0 0-1.36-.56zm5.01 5.744l.848-1.216c.522.33.981.565 1.376.704a3.59 3.59 0 0 0 1.2.208c.48 0 .869-.096 1.168-.288.298-.203.448-.464.448-.784a.685.685 0 0 0-.272-.576c-.171-.15-.448-.261-.832-.336l-1.424-.24c-.768-.139-1.35-.39-1.744-.752-.384-.373-.576-.859-.576-1.456 0-.747.282-1.344.848-1.792.576-.459 1.328-.688 2.256-.688.554 0 1.088.08 1.6.24.522.15 1.04.39 1.552.72L173.133 33a4.818 4.818 0 0 0-1.216-.576 3.87 3.87 0 0 0-1.2-.192c-.416 0-.752.085-1.008.256a.772.772 0 0 0-.368.688c0 .256.08.448.24.576.17.128.469.23.896.304l1.408.256c.8.15 1.392.41 1.776.784.394.373.592.859.592 1.456 0 .363-.086.704-.256 1.024-.16.32-.39.597-.688.832a3.344 3.344 0 0 1-1.04.56 4.131 4.131 0 0 1-1.28.192c-.694 0-1.339-.09-1.936-.272a4.606 4.606 0 0 1-1.52-.816zm8.102 1.008l1.024-1.248a3.888 3.888 0 0 1-.768-1.28 4.449 4.449 0 0 1-.272-1.552c0-.587.102-1.13.304-1.632.214-.512.496-.95.848-1.312.363-.373.79-.667 1.28-.88a4.048 4.048 0 0 1 1.6-.32c.427 0 .827.059 1.2.176.374.117.72.277 1.04.48l.496-.608h1.28l-1.04 1.248c.331.363.587.79.768 1.28.192.49.288 1.013.288 1.568a4.23 4.23 0 0 1-.32 1.648 3.973 3.973 0 0 1-.848 1.328c-.352.363-.778.65-1.28.864-.49.213-1.018.32-1.584.32-.426 0-.832-.059-1.216-.176a4.063 4.063 0 0 1-1.04-.496l-.496.592h-1.264zm1.776-4.064c0 .277.032.544.096.8.064.245.155.47.272.672l3.072-3.712a2.083 2.083 0 0 0-1.2-.368c-.65 0-1.189.245-1.616.736-.416.49-.624 1.115-.624 1.872zm2.24 2.576c.651 0 1.184-.245 1.6-.736.427-.49.64-1.104.64-1.84 0-.288-.037-.56-.112-.816a2.624 2.624 0 0 0-.272-.688l-3.072 3.712a2.113 2.113 0 0 0 1.216.368zM185.55 39V27.56l1.808-.304v7.152l3.328-3.424h2.064l-3.664 3.712L192.974 39h-2.32l-3.296-3.696V39h-1.808zM42.786 30.999H27.32v3.729h15.466v-3.729z" fill="#000"/><path d="M30.137 41.997c-5.01 0-9.076-4.093-9.076-9.134 0-5.042 4.066-9.134 9.076-9.134 2.882 0 5.447 1.357 7.114 3.464l2.784-2.46C37.689 21.843 34.127 20 30.137 20c-7.06 0-12.781 5.759-12.781 12.863 0 7.104 5.722 12.863 12.78 12.863 3.99 0 7.553-1.843 9.899-4.733l-2.784-2.46a9.035 9.035 0 0 1-7.114 3.464z" fill="#000"/><path stroke="#F4F4F4" stroke-width="2" d="M1 64L321 64"/><path d="M17 505c0-13.255 10.745-24 24-24h240c13.255 0 24 10.745 24 24s-10.745 24-24 24H41c-13.255 0-24-10.745-24-24z" fill="#000"/><path fill-rule="evenodd" clip-rule="evenodd" d="M135.019 493.79c5.023-2.135 10.826.207 12.961 5.229a9.88 9.88 0 0 1-1.364 10.023l6.057 6.058a1.112 1.112 0 1 1-1.573 1.574l-6.057-6.057a9.936 9.936 0 0 1-2.293 1.363c-5.023 2.134-10.825-.207-12.96-5.23-2.135-5.023.207-10.825 5.229-12.96zm10.912 6.1a7.657 7.657 0 1 0-1.685 8.464l.052-.056.056-.052a7.658 7.658 0 0 0 1.577-8.356z" fill="#fff"/><path d="M134 501a1 1 0 0 0-1 1 7 7 0 0 0 7 7 1 1 0 0 0 0-2 5 5 0 0 1-5-5 1 1 0 0 0-1-1z" fill="#29D305"/><path d="M161.412 508.912l1.152-1.332c.684.66 1.38 1.158 2.088 1.494.72.324 1.47.486 2.25.486.9 0 1.632-.198 2.196-.594.576-.396.864-.9.864-1.512 0-.552-.198-.978-.594-1.278-.396-.312-1.05-.546-1.962-.702l-2.106-.342c-1.152-.192-2.016-.558-2.592-1.098-.564-.552-.846-1.278-.846-2.178 0-1.092.426-1.968 1.278-2.628.852-.66 1.974-.99 3.366-.99.9 0 1.794.15 2.682.45a7.744 7.744 0 0 1 2.394 1.26l-1.044 1.44c-.684-.516-1.368-.9-2.052-1.152a5.709 5.709 0 0 0-2.07-.396c-.816 0-1.476.174-1.98.522-.504.348-.756.798-.756 1.35 0 .516.174.912.522 1.188.348.264.924.462 1.728.594l2.034.324c1.32.216 2.292.612 2.916 1.188.636.564.954 1.332.954 2.304 0 .576-.12 1.104-.36 1.584s-.582.888-1.026 1.224c-.432.336-.96.6-1.584.792-.624.18-1.308.27-2.052.27a7.411 7.411 0 0 1-2.916-.594 7.754 7.754 0 0 1-2.484-1.674zm11.97 2.088l1.062-1.278a4.783 4.783 0 0 1-.972-1.476 4.943 4.943 0 0 1-.342-1.836c0-.66.12-1.278.36-1.854a4.62 4.62 0 0 1 1.026-1.512 4.638 4.638 0 0 1 1.512-1.008 4.702 4.702 0 0 1 1.872-.378 4.838 4.838 0 0 1 2.61.756l.486-.576h1.404l-1.062 1.26c.408.432.726.93.954 1.494.24.564.36 1.17.36 1.818 0 .672-.126 1.302-.378 1.89a4.638 4.638 0 0 1-1.008 1.512c-.42.42-.924.756-1.512 1.008-.576.24-1.194.36-1.854.36-.48 0-.948-.066-1.404-.198a5.124 5.124 0 0 1-1.242-.576l-.486.594h-1.386zm1.512-4.59c0 .372.054.732.162 1.08.12.348.282.654.486.918l3.906-4.716a2.708 2.708 0 0 0-.738-.324 2.546 2.546 0 0 0-.81-.126c-.828 0-1.536.306-2.124.918-.588.612-.882 1.362-.882 2.25zm3.006 3.186c.828 0 1.53-.306 2.106-.918.588-.624.882-1.38.882-2.268 0-.372-.06-.726-.18-1.062a2.883 2.883 0 0 0-.468-.918l-3.924 4.698c.228.156.474.276.738.36.276.072.558.108.846.108zm6.455 1.404v-12.6l1.8-.396v7.866l4.446-4.032h2.106l-4.716 4.302 4.968 4.86h-2.376l-4.428-4.32V511h-1.8zM17 272a4 4 0 0 1 4-4h224a4 4 0 0 1 4 4v40a4 4 0 0 1-4 4H21a4 4 0 0 1-4-4v-40z" fill="#fff"/><path d="M34.246 297v-9.8h3.248c.719 0 1.377.126 1.974.378a4.624 4.624 0 0 1 1.554 1.036c.43.429.765.947 1.008 1.554a5.08 5.08 0 0 1 .364 1.932 5.19 5.19 0 0 1-.364 1.946 4.58 4.58 0 0 1-.994 1.554c-.43.429-.947.77-1.554 1.022a5.132 5.132 0 0 1-1.988.378h-3.248zm3.318-8.834h-2.24v7.868h2.24c.523 0 1.013-.098 1.47-.294a3.832 3.832 0 0 0 1.19-.826c.336-.355.597-.77.784-1.246a4.146 4.146 0 0 0 .294-1.568c0-.56-.098-1.078-.294-1.554a3.632 3.632 0 0 0-.784-1.246 3.538 3.538 0 0 0-1.19-.826 3.552 3.552 0 0 0-1.47-.308zM44.236 297v-6.832h1.022v1.386c.177-.476.429-.845.755-1.106a1.778 1.778 0 0 1 1.148-.406c.122 0 .234.009.337.028.102.009.205.033.308.07v.924a2.142 2.142 0 0 0-.364-.084 1.768 1.768 0 0 0-1.456.322c-.308.243-.551.583-.728 1.022V297h-1.023zm5.44-8.512a.752.752 0 0 1-.533-.21.751.751 0 0 1-.21-.532c0-.196.07-.364.21-.504a.728.728 0 0 1 .532-.224c.196 0 .364.075.504.224.15.14.224.308.224.504 0 .205-.07.383-.21.532a.704.704 0 0 1-.518.21zm.503 1.68V297h-1.022v-6.832h1.022zm1.438 0h1.526v-1.498c0-.672.177-1.19.532-1.554.354-.364.858-.546 1.512-.546.186 0 .354.014.504.042.158.019.298.047.42.084v.924a4.363 4.363 0 0 0-.42-.084 1.809 1.809 0 0 0-.406-.042c-.392 0-.677.098-.854.294-.178.196-.266.495-.266.896v1.484h1.946v.84h-1.946V297h-1.022v-5.992h-1.526v-.84zm6.788 5.292v-4.452h-1.414v-.84h1.414v-1.876l1.022-.238v2.114h1.96v.84h-1.96v4.186c0 .364.075.625.224.784.159.159.415.238.77.238.177 0 .336-.014.476-.042.14-.028.303-.075.49-.14v.91a3.029 3.029 0 0 1-.588.14 4.454 4.454 0 0 1-.602.042c-.588 0-1.036-.14-1.344-.42-.299-.289-.448-.705-.448-1.246zm3.958.658l.546-.672c.401.299.774.518 1.12.658a3.09 3.09 0 0 0 1.078.196c.494 0 .905-.117 1.232-.35.326-.233.49-.527.49-.882 0-.28-.098-.499-.294-.658-.196-.159-.509-.28-.938-.364l-1.12-.196c-.663-.121-1.153-.327-1.47-.616-.308-.289-.462-.681-.462-1.176 0-.588.228-1.069.686-1.442.466-.373 1.059-.56 1.778-.56.466 0 .91.07 1.33.21.42.14.844.355 1.274.644l-.504.714a3.845 3.845 0 0 0-1.064-.546 3.319 3.319 0 0 0-1.078-.182c-.448 0-.808.098-1.078.294a.934.934 0 0 0-.406.798c0 .28.084.495.252.644.177.149.485.261.924.336l1.148.21c.681.121 1.18.331 1.498.63.326.299.49.7.49 1.204 0 .588-.257 1.087-.77 1.498-.504.411-1.134.616-1.89.616-.56 0-1.078-.084-1.554-.252a3.44 3.44 0 0 1-1.218-.756zm6.988.882v-6.832h1.022v1.064c.261-.392.56-.686.896-.882a2.209 2.209 0 0 1 1.134-.294c.476 0 .896.121 1.26.364.373.243.653.565.84.966.261-.439.583-.77.966-.994a2.556 2.556 0 0 1 1.316-.336c.681 0 1.236.238 1.666.714.438.467.658 1.073.658 1.82V297h-1.022v-4.158c0-.588-.154-1.055-.462-1.4-.299-.355-.705-.532-1.218-.532-.355 0-.677.089-.966.266-.29.177-.537.448-.742.812a3.412 3.412 0 0 1 .056.602V297h-1.022v-4.158c0-.588-.154-1.055-.462-1.4-.308-.355-.719-.532-1.232-.532-.346 0-.658.084-.938.252-.28.168-.523.42-.728.756V297H69.35zm17.468-.784a4.303 4.303 0 0 1-1.218.686 3.99 3.99 0 0 1-1.344.224c-.476 0-.924-.089-1.344-.266a3.525 3.525 0 0 1-1.078-.756 3.647 3.647 0 0 1-.714-1.12 3.88 3.88 0 0 1-.252-1.4c0-.495.08-.957.238-1.386.168-.439.397-.812.686-1.12.29-.317.63-.565 1.022-.742a2.92 2.92 0 0 1 1.274-.28c.448 0 .863.089 1.246.266a3.198 3.198 0 0 1 1.652 1.82c.159.42.238.873.238 1.358v.308h-5.362c.047.691.303 1.269.77 1.736a2.3 2.3 0 0 0 1.666.686 2.92 2.92 0 0 0 1.022-.182 2.68 2.68 0 0 0 .854-.518l.644.686zm-2.744-5.278c-.56 0-1.04.201-1.442.602-.401.401-.649.915-.742 1.54h4.326c-.075-.616-.313-1.125-.714-1.526a1.9 1.9 0 0 0-1.428-.616zM88.97 297v-6.832h1.022v1.386c.177-.476.43-.845.756-1.106a1.778 1.778 0 0 1 1.148-.406c.121 0 .233.009.336.028.103.009.205.033.308.07v.924a2.142 2.142 0 0 0-.364-.084 1.768 1.768 0 0 0-1.456.322c-.308.243-.55.583-.728 1.022V297H88.97zm4.922 0v-10.01l1.022-.21v6.454l3.248-3.066h1.232l-3.472 3.248L99.548 297h-1.344l-3.29-3.262V297h-1.022zm7.367-8.512a.753.753 0 0 1-.532-.21.751.751 0 0 1-.21-.532c0-.196.07-.364.21-.504a.73.73 0 0 1 .532-.224c.196 0 .364.075.504.224.15.14.224.308.224.504 0 .205-.07.383-.21.532a.703.703 0 0 1-.518.21zm.504 1.68V297h-1.022v-6.832h1.022zm2.096 6.832v-6.832h1.022v1.106c.261-.401.574-.705.938-.91a2.465 2.465 0 0 1 1.232-.308c.728 0 1.32.233 1.778.7.466.467.7 1.073.7 1.82V297h-1.022v-4.13c0-.597-.168-1.073-.504-1.428-.327-.355-.77-.532-1.33-.532-.374 0-.714.089-1.022.266a2.139 2.139 0 0 0-.77.784V297h-1.022zm10.566.084c-.438 0-.854-.089-1.246-.266a3.276 3.276 0 0 1-.994-.742 3.728 3.728 0 0 1-.672-1.12 3.941 3.941 0 0 1-.238-1.372c0-.485.08-.943.238-1.372.168-.429.397-.798.686-1.106.29-.317.63-.565 1.022-.742.392-.187.812-.28 1.26-.28.43 0 .826.084 1.19.252.364.159.682.397.952.714v-.882h1.008v7.182c0 .84-.252 1.489-.756 1.946-.494.457-1.204.686-2.128.686-.457 0-.919-.065-1.386-.196a5.28 5.28 0 0 1-1.274-.518l.434-.784c.42.215.803.373 1.148.476.346.103.691.154 1.036.154.616 0 1.088-.149 1.414-.448.327-.299.49-.733.49-1.302v-1.288a2.66 2.66 0 0 1-.952.756 2.967 2.967 0 0 1-1.232.252zm-2.142-3.5c0 .747.229 1.372.686 1.876a2.231 2.231 0 0 0 1.708.742c.402 0 .77-.079 1.106-.238.336-.168.612-.397.826-.686v-3.374a2.25 2.25 0 0 0-.854-.672 2.377 2.377 0 0 0-1.078-.252c-.681 0-1.25.247-1.708.742-.457.495-.686 1.115-.686 1.862zm7.617 2.38h1.092l-1.134 3.234h-.798l.84-3.234zm6.175 1.036v-6.832h1.022v1.106c.262-.401.574-.705.938-.91a2.468 2.468 0 0 1 1.232-.308c.728 0 1.321.233 1.778.7.467.467.7 1.073.7 1.82V297h-1.022v-4.13c0-.597-.168-1.073-.504-1.428-.326-.355-.77-.532-1.33-.532-.373 0-.714.089-1.022.266a2.147 2.147 0 0 0-.77.784V297h-1.022zm13.367-.784a4.303 4.303 0 0 1-1.218.686 3.99 3.99 0 0 1-1.344.224c-.476 0-.924-.089-1.344-.266a3.521 3.521 0 0 1-1.078-.756 3.636 3.636 0 0 1-.714-1.12 3.88 3.88 0 0 1-.252-1.4c0-.495.079-.957.238-1.386a3.38 3.38 0 0 1 .686-1.12c.289-.317.63-.565 1.022-.742.392-.187.817-.28 1.274-.28.448 0 .863.089 1.246.266.383.177.714.42.994.728.28.299.499.663.658 1.092.159.42.238.873.238 1.358v.308h-5.362c.047.691.303 1.269.77 1.736a2.3 2.3 0 0 0 1.666.686 2.92 2.92 0 0 0 1.022-.182c.336-.131.621-.303.854-.518l.644.686zm-2.744-5.278c-.56 0-1.041.201-1.442.602-.401.401-.649.915-.742 1.54h4.326c-.075-.616-.313-1.125-.714-1.526a1.9 1.9 0 0 0-1.428-.616zm5.502 4.522v-4.452h-1.414v-.84h1.414v-1.876l1.022-.238v2.114h1.96v.84h-1.96v4.186c0 .364.075.625.224.784.159.159.415.238.77.238.177 0 .336-.014.476-.042.14-.028.303-.075.49-.14v.91a3.04 3.04 0 0 1-.588.14 4.45 4.45 0 0 1-.602.042c-.588 0-1.036-.14-1.344-.42-.299-.289-.448-.705-.448-1.246zm5.428 0v-4.452h-1.414v-.84h1.414v-1.876l1.022-.238v2.114h1.96v.84h-1.96v4.186c0 .364.074.625.224.784.158.159.415.238.77.238.177 0 .336-.014.476-.042.14-.028.303-.075.49-.14v.91a3.04 3.04 0 0 1-.588.14 4.461 4.461 0 0 1-.602.042c-.588 0-1.036-.14-1.344-.42-.299-.289-.448-.705-.448-1.246zm3.957.658l.546-.672c.402.299.775.518 1.12.658a3.09 3.09 0 0 0 1.078.196c.495 0 .906-.117 1.232-.35.327-.233.49-.527.49-.882 0-.28-.098-.499-.294-.658-.196-.159-.508-.28-.938-.364l-1.12-.196c-.662-.121-1.152-.327-1.47-.616-.308-.289-.462-.681-.462-1.176 0-.588.229-1.069.686-1.442.467-.373 1.06-.56 1.778-.56.467 0 .91.07 1.33.21.42.14.845.355 1.274.644l-.504.714a3.831 3.831 0 0 0-1.064-.546 3.316 3.316 0 0 0-1.078-.182c-.448 0-.807.098-1.078.294a.936.936 0 0 0-.406.798c0 .28.084.495.252.644.178.149.486.261.924.336l1.148.21c.682.121 1.181.331 1.498.63.327.299.49.7.49 1.204 0 .588-.256 1.087-.77 1.498-.504.411-1.134.616-1.89.616-.56 0-1.078-.084-1.554-.252a3.44 3.44 0 0 1-1.218-.756zm7.664-.658v-4.452h-1.414v-.84h1.414v-1.876l1.022-.238v2.114h1.96v.84h-1.96v4.186c0 .364.074.625.224.784.158.159.415.238.77.238.177 0 .336-.014.476-.042.14-.028.303-.075.49-.14v.91a3.04 3.04 0 0 1-.588.14 4.461 4.461 0 0 1-.602.042c-.588 0-1.036-.14-1.344-.42-.299-.289-.448-.705-.448-1.246zm6.593 1.666c-.728 0-1.326-.191-1.792-.574-.458-.392-.686-.896-.686-1.512 0-.607.233-1.097.7-1.47.476-.373 1.096-.56 1.862-.56.392 0 .76.047 1.106.14.354.084.681.215.98.392v-.938c0-.56-.15-.98-.448-1.26-.299-.289-.738-.434-1.316-.434-.318 0-.644.047-.98.14a6.132 6.132 0 0 0-1.092.448l-.378-.784c.466-.224.91-.387 1.33-.49.42-.112.835-.168 1.246-.168.84 0 1.488.21 1.946.63.466.411.7 1.003.7 1.778V297h-1.008v-.798c-.299.308-.63.541-.994.7a3.074 3.074 0 0 1-1.176.224zm-1.498-2.114c0 .401.158.723.476.966.317.243.728.364 1.232.364a2.73 2.73 0 0 0 1.05-.196 2.94 2.94 0 0 0 .91-.588v-1.316a3.371 3.371 0 0 0-.896-.364 3.942 3.942 0 0 0-1.036-.126c-.523 0-.943.117-1.26.35-.318.233-.476.537-.476.91zm6.095 1.106l.546-.672c.401.299.775.518 1.12.658a3.09 3.09 0 0 0 1.078.196c.495 0 .905-.117 1.232-.35.327-.233.49-.527.49-.882 0-.28-.098-.499-.294-.658-.196-.159-.509-.28-.938-.364l-1.12-.196c-.663-.121-1.153-.327-1.47-.616-.308-.289-.462-.681-.462-1.176 0-.588.229-1.069.686-1.442.467-.373 1.059-.56 1.778-.56.467 0 .91.07 1.33.21.42.14.845.355 1.274.644l-.504.714a3.845 3.845 0 0 0-1.064-.546 3.32 3.32 0 0 0-1.078-.182c-.448 0-.807.098-1.078.294a.933.933 0 0 0-.406.798c0 .28.084.495.252.644.177.149.485.261.924.336l1.148.21c.681.121 1.181.331 1.498.63.327.299.49.7.49 1.204 0 .588-.257 1.087-.77 1.498-.504.411-1.134.616-1.89.616-.56 0-1.078-.084-1.554-.252a3.44 3.44 0 0 1-1.218-.756zm7.506-7.63a.751.751 0 0 1-.532-.21.72.72 0 0 1-.21-.532c0-.196.07-.364.21-.504a.728.728 0 0 1 .532-.224c.196 0 .364.075.504.224.149.14.224.308.224.504a.72.72 0 0 1-.728.742zm-1.218 11.494c-.112 0-.224-.009-.336-.028-.103-.019-.201-.037-.294-.056v-.882a2.207 2.207 0 0 0 .504.056c.289 0 .499-.07.63-.21.131-.14.196-.369.196-.686v-8.008h1.022v8.064c0 .551-.149.98-.448 1.288-.289.308-.714.462-1.274.462zm3.509-6.398c0-.504.084-.971.252-1.4.168-.429.397-.803.686-1.12a3.169 3.169 0 0 1 1.064-.742 3.29 3.29 0 0 1 1.316-.266c.476 0 .915.089 1.316.266.411.177.765.425 1.064.742.299.317.532.691.7 1.12.168.429.252.896.252 1.4 0 .504-.089.975-.266 1.414a3.404 3.404 0 0 1-.7 1.134 3.287 3.287 0 0 1-1.05.742 3.29 3.29 0 0 1-1.316.266 3.29 3.29 0 0 1-1.316-.266 3.41 3.41 0 0 1-1.05-.756 3.795 3.795 0 0 1-.7-1.12 3.921 3.921 0 0 1-.252-1.414zm3.318 2.646c.663 0 1.213-.247 1.652-.742.448-.504.672-1.134.672-1.89s-.224-1.386-.672-1.89a2.098 2.098 0 0 0-1.652-.756c-.663 0-1.213.252-1.652.756-.439.504-.658 1.134-.658 1.89s.219 1.386.658 1.89c.439.495.989.742 1.652.742zm5.125.77v-6.832h1.022v1.106c.261-.401.574-.705.938-.91a2.468 2.468 0 0 1 1.232-.308c.728 0 1.321.233 1.778.7.467.467.7 1.073.7 1.82V297h-1.022v-4.13c0-.597-.168-1.073-.504-1.428-.327-.355-.77-.532-1.33-.532-.373 0-.714.089-1.022.266a2.139 2.139 0 0 0-.77.784V297h-1.022zm8.215-1.414c.196 0 .364.075.504.224a.728.728 0 0 1 .224.532.743.743 0 0 1-.224.546.668.668 0 0 1-.504.224.726.726 0 0 1-.532-.224.768.768 0 0 1-.21-.546c0-.205.07-.383.21-.532a.726.726 0 0 1 .532-.224zm3.076 0c.196 0 .364.075.504.224a.728.728 0 0 1 .224.532.743.743 0 0 1-.224.546.668.668 0 0 1-.504.224.726.726 0 0 1-.532-.224.768.768 0 0 1-.21-.546c0-.205.07-.383.21-.532a.726.726 0 0 1 .532-.224zm3.076 0c.196 0 .364.075.504.224a.728.728 0 0 1 .224.532.743.743 0 0 1-.224.546.668.668 0 0 1-.504.224.728.728 0 0 1-.532-.224.768.768 0 0 1-.21-.546c0-.205.07-.383.21-.532a.728.728 0 0 1 .532-.224z" fill="#515151"/><path d="M21 269h224v-2H21v2zm227 3v40h2v-40h-2zm-3 43H21v2h224v-2zm-227-3v-40h-2v40h2zm3 3a3 3 0 0 1-3-3h-2a5 5 0 0 0 5 5v-2zm227-3a3 3 0 0 1-3 3v2a5 5 0 0 0 5-5h-2zm-3-43a3 3 0 0 1 3 3h2a5 5 0 0 0-5-5v2zm-224-2a5 5 0 0 0-5 5h2a3 3 0 0 1 3-3v-2zm257.995 41c-1.105 0-2.006-.93-2.006-2.074v-12.829c-6.59-1.768-11.495-7.828-11.984-14.879-.002-.051-.005-.097-.005-.143a2.1 2.1 0 0 1 .587-1.467 1.959 1.959 0 0 1 1.417-.608h27.992a1.96 1.96 0 0 1 1.505.707c.353.416.529.949.495 1.504 0 .004 0 .009-.002.014-.493 7.049-5.398 13.108-11.989 14.872v9.373a2.092 2.092 0 0 1-.723 1.594l-4.006 3.455c-.36.31-.814.481-1.281.481zm-11.99-29.926c.464 6.469 5.06 11.887 11.187 13.183.465.098.801.525.801 1.016v13.653l4.008-3.456v-10.197c0-.491.337-.918.802-1.016 6.14-1.296 10.742-6.718 11.193-13.186l-27.991.003zM19.2 180v-22.4h5.504v8.608h9.216V157.6h5.504V180H33.92v-8.768h-9.216V180H19.2zm29.25 0l-7.233-16.928h5.632l4.192 10.368 4.192-10.368h5.504L53.505 180H48.45zm19.245.288c-1.791 0-3.263-.491-4.415-1.472-1.153-.981-1.729-2.24-1.729-3.776 0-1.6.608-2.848 1.825-3.744 1.237-.896 2.954-1.344 5.152-1.344.66 0 1.311.043 1.951.128.64.085 1.27.203 1.889.352v-.832c0-.853-.278-1.483-.832-1.888-.534-.427-1.334-.64-2.4-.64-.662 0-1.408.107-2.24.32-.832.213-1.793.555-2.88 1.024l-1.857-3.808a21.202 21.202 0 0 1 4-1.376c1.323-.32 2.624-.48 3.904-.48 2.347 0 4.171.565 5.472 1.696 1.302 1.109 1.953 2.677 1.953 4.704V180h-5.12v-1.024A7.244 7.244 0 0 1 70.192 180c-.747.192-1.58.288-2.496.288zm-1.215-5.344c0 .533.234.949.703 1.248.47.299 1.12.448 1.952.448.62 0 1.195-.064 1.728-.192a4.956 4.956 0 0 0 1.505-.608v-2.176c-.491-.128-.992-.224-1.504-.288a12.632 12.632 0 0 0-1.569-.096c-.895 0-1.589.149-2.08.448-.49.277-.736.683-.736 1.216zm19.027 3.168l2.464-3.488c1.066.64 2.037 1.109 2.912 1.408a8.551 8.551 0 0 0 2.592.416c.853 0 1.525-.117 2.016-.352.512-.256.768-.587.768-.992 0-.32-.139-.576-.416-.768-.278-.213-.715-.363-1.312-.448l-3.36-.512c-1.664-.256-2.944-.811-3.84-1.664-.896-.875-1.344-2.005-1.344-3.392 0-1.707.65-3.051 1.952-4.032 1.301-.981 3.082-1.472 5.344-1.472 1.216 0 2.432.181 3.648.544 1.237.341 2.378.843 3.424 1.504l-2.464 3.328c-.918-.533-1.792-.917-2.624-1.152a8.448 8.448 0 0 0-2.496-.384c-.662 0-1.195.117-1.6.352-.406.213-.608.501-.608.864 0 .341.15.619.448.832.298.192.81.341 1.536.448l3.36.512c1.664.235 2.944.789 3.84 1.664.917.853 1.376 1.941 1.376 3.264a4.67 4.67 0 0 1-.576 2.272 5.654 5.654 0 0 1-1.6 1.824c-.662.512-1.462.917-2.4 1.216-.939.277-1.952.416-3.04.416-1.6 0-3.094-.181-4.48-.544-1.366-.384-2.539-.939-3.52-1.664zm33.269-.352c-1.066.896-2.165 1.547-3.296 1.952-1.109.405-2.368.608-3.776.608a9.727 9.727 0 0 1-3.616-.672 9.106 9.106 0 0 1-2.944-1.856 9.236 9.236 0 0 1-1.952-2.784 8.638 8.638 0 0 1-.704-3.456c0-1.216.224-2.357.672-3.424a8.959 8.959 0 0 1 1.888-2.816 8.624 8.624 0 0 1 2.784-1.856 9.071 9.071 0 0 1 3.488-.672c1.238 0 2.379.235 3.424.704a8.12 8.12 0 0 1 2.688 1.92c.768.811 1.366 1.792 1.792 2.944.427 1.131.64 2.357.64 3.68v1.28H107.8c.342.789.875 1.44 1.6 1.952.726.491 1.579.736 2.56.736a5.5 5.5 0 0 0 1.92-.32 4.408 4.408 0 0 0 1.472-.96l3.424 3.04zm-7.552-10.752c-.853 0-1.589.235-2.208.704-.618.469-1.056 1.131-1.312 1.984h7.072c-.277-.811-.736-1.461-1.376-1.952-.618-.491-1.344-.736-2.176-.736zM122.288 180v-16.928h5.184v1.696a5.883 5.883 0 0 1 1.952-1.536c.746-.363 1.578-.544 2.496-.544.49.021.885.064 1.184.128.298.043.554.139.768.288v4.512a5.648 5.648 0 0 0-1.152-.352 5.375 5.375 0 0 0-1.312-.16c-.811 0-1.568.192-2.273.576a4.688 4.688 0 0 0-1.663 1.568V180h-5.184zm32.478 0v-1.248a8.128 8.128 0 0 1-2.144 1.088 7.54 7.54 0 0 1-2.4.384 8.67 8.67 0 0 1-3.392-.672 8.704 8.704 0 0 1-2.752-1.856 8.978 8.978 0 0 1-1.824-2.752 8.753 8.753 0 0 1-.672-3.424c0-1.216.224-2.347.672-3.392a8.653 8.653 0 0 1 1.888-2.752 8.603 8.603 0 0 1 2.784-1.856 8.987 8.987 0 0 1 3.456-.672c.789 0 1.547.096 2.272.288a8.59 8.59 0 0 1 2.048.832V157.6l5.184-1.12V180h-5.12zm-8.096-8.48c0 1.216.427 2.24 1.28 3.072.875.811 1.931 1.216 3.168 1.216.725 0 1.387-.107 1.984-.32a4.889 4.889 0 0 0 1.6-1.024v-5.92a5.006 5.006 0 0 0-1.6-.96 5.541 5.541 0 0 0-1.984-.352c-1.259 0-2.315.416-3.168 1.248-.853.811-1.28 1.824-1.28 3.04zm21.486-8.448v9.728c0 .917.277 1.664.832 2.24.576.555 1.323.832 2.24.832.661 0 1.248-.117 1.76-.352a3.456 3.456 0 0 0 1.28-.992v-11.456h5.184V180h-5.184v-1.152a7.09 7.09 0 0 1-2.112 1.088 7.642 7.642 0 0 1-2.432.384c-1.984 0-3.605-.64-4.864-1.92-1.259-1.28-1.888-2.912-1.888-4.896v-10.432h5.184zm36.277 14.688c-1.067.896-2.166 1.547-3.296 1.952-1.11.405-2.368.608-3.776.608a9.723 9.723 0 0 1-3.616-.672 9.095 9.095 0 0 1-2.944-1.856 9.201 9.201 0 0 1-1.952-2.784 8.621 8.621 0 0 1-.704-3.456c0-1.216.224-2.357.672-3.424a8.925 8.925 0 0 1 1.888-2.816 8.603 8.603 0 0 1 2.784-1.856 9.068 9.068 0 0 1 3.488-.672c1.237 0 2.378.235 3.424.704a8.14 8.14 0 0 1 2.688 1.92c.768.811 1.365 1.792 1.792 2.944.426 1.131.64 2.357.64 3.68v1.28h-12.064c.341.789.874 1.44 1.6 1.952.725.491 1.578.736 2.56.736a5.5 5.5 0 0 0 1.92-.32 4.418 4.418 0 0 0 1.472-.96l3.424 3.04zm-7.552-10.752c-.854 0-1.59.235-2.208.704-.619.469-1.056 1.131-1.312 1.984h7.072c-.278-.811-.736-1.461-1.376-1.952-.619-.491-1.344-.736-2.176-.736zm12.838 7.84v-7.456h-3.424v-4.32h3.424v-4.352l5.184-1.12v5.472h4.736v4.32h-4.736v6.432c0 .747.16 1.28.48 1.6.341.299.928.448 1.76.448.405 0 .789-.021 1.152-.064.362-.064.757-.16 1.184-.288v4.192c-.47.149-1.067.267-1.792.352-.726.107-1.334.16-1.824.16-2.027 0-3.563-.448-4.608-1.344-1.024-.917-1.536-2.261-1.536-4.032zm14.656 0v-7.456h-3.424v-4.32h3.424v-4.352l5.184-1.12v5.472h4.736v4.32h-4.736v6.432c0 .747.16 1.28.48 1.6.341.299.928.448 1.76.448.405 0 .789-.021 1.152-.064.363-.064.757-.16 1.184-.288v4.192c-.469.149-1.067.267-1.792.352-.725.107-1.333.16-1.824.16-2.027 0-3.563-.448-4.608-1.344-1.024-.917-1.536-2.261-1.536-4.032zm27.464 2.912c-1.067.896-2.166 1.547-3.296 1.952-1.11.405-2.368.608-3.776.608a9.723 9.723 0 0 1-3.616-.672 9.095 9.095 0 0 1-2.944-1.856 9.201 9.201 0 0 1-1.952-2.784 8.621 8.621 0 0 1-.704-3.456c0-1.216.224-2.357.672-3.424a8.925 8.925 0 0 1 1.888-2.816 8.603 8.603 0 0 1 2.784-1.856 9.068 9.068 0 0 1 3.488-.672c1.237 0 2.378.235 3.424.704a8.14 8.14 0 0 1 2.688 1.92c.768.811 1.365 1.792 1.792 2.944.426 1.131.64 2.357.64 3.68v1.28h-12.064c.341.789.874 1.44 1.6 1.952.725.491 1.578.736 2.56.736a5.5 5.5 0 0 0 1.92-.32 4.418 4.418 0 0 0 1.472-.96l3.424 3.04zm-7.552-10.752c-.854 0-1.59.235-2.208.704-.619.469-1.056 1.131-1.312 1.984h7.072c-.278-.811-.736-1.461-1.376-1.952-.619-.491-1.344-.736-2.176-.736zM255.35 180v-16.928h5.184v1.696a5.893 5.893 0 0 1 1.952-1.536c.747-.363 1.579-.544 2.496-.544.491.021.885.064 1.184.128.299.043.555.139.768.288v4.512a5.61 5.61 0 0 0-1.152-.352 5.375 5.375 0 0 0-1.312-.16 4.67 4.67 0 0 0-2.272.576 4.69 4.69 0 0 0-1.664 1.568V180h-5.184zm24.597-10.752l-.8.544c-.619.405-1.056.853-1.312 1.344-.235.469-.342 1.099-.32 1.888h-4.32c-.086-1.472.042-2.624.384-3.456.341-.832 1.013-1.621 2.016-2.368l1.728-1.28c.533-.405.928-.789 1.184-1.152.277-.363.416-.715.416-1.056 0-.619-.278-1.131-.832-1.536-.555-.427-1.259-.64-2.112-.64-.918 0-1.76.245-2.528.736a4.083 4.083 0 0 0-1.6 1.952l-4.192-1.568c.597-1.643 1.664-2.955 3.2-3.936 1.557-.981 3.328-1.472 5.312-1.472 1.109 0 2.144.16 3.104.48.96.299 1.781.725 2.464 1.28a5.92 5.92 0 0 1 1.632 1.952 5.02 5.02 0 0 1 .608 2.432c0 1.173-.299 2.187-.896 3.04-.576.832-1.622 1.771-3.136 2.816zm-4.576 5.152c.81 0 1.504.299 2.08.896.597.576.896 1.269.896 2.08 0 .811-.299 1.515-.896 2.112a2.836 2.836 0 0 1-2.08.864c-.811 0-1.515-.288-2.112-.864-.576-.597-.864-1.301-.864-2.112 0-.811.288-1.504.864-2.08.597-.597 1.301-.896 2.112-.896z" fill="#000"/><rect x="17.5" y="220.5" width="23" height="23" rx="11.5" fill="#29D305" stroke="#000"/><circle cx="29" cy="232" r="7" fill="#000"/><path d="M49.448 236.256l.752-.896c.672.629 1.301 1.077 1.888 1.344.597.267 1.259.4 1.984.4.864 0 1.579-.213 2.144-.64.565-.437.848-.976.848-1.616 0-.555-.192-.981-.576-1.28-.373-.299-1.013-.528-1.92-.688l-1.808-.304c-1.024-.181-1.776-.491-2.256-.928-.47-.448-.704-1.045-.704-1.792 0-.939.357-1.707 1.072-2.304.715-.597 1.637-.896 2.768-.896.832 0 1.605.117 2.32.352a7.586 7.586 0 0 1 2.112 1.072l-.64.96a7.162 7.162 0 0 0-1.84-.992 5.58 5.58 0 0 0-1.936-.352c-.779 0-1.419.197-1.92.592-.501.384-.752.864-.752 1.44 0 .491.165.875.496 1.152.33.277.87.475 1.616.592l1.792.304c1.184.213 2.048.56 2.592 1.04s.816 1.136.816 1.968c0 .48-.107.928-.32 1.344a3.197 3.197 0 0 1-.896 1.072 4.229 4.229 0 0 1-1.344.704 5.424 5.424 0 0 1-1.696.256c-.875 0-1.69-.155-2.448-.464-.747-.32-1.461-.8-2.144-1.44zm11.414-.016v-5.088h-1.616v-.96h1.616v-2.144l1.168-.272v2.416h2.24v.96h-2.24v4.784c0 .416.086.715.256.896.182.181.475.272.88.272.203 0 .384-.016.544-.048.16-.032.347-.085.56-.16v1.04a3.411 3.411 0 0 1-.672.16 5.09 5.09 0 0 1-.688.048c-.672 0-1.184-.16-1.536-.48-.341-.331-.512-.805-.512-1.424zm7.535 1.904c-.832 0-1.514-.219-2.048-.656-.522-.448-.784-1.024-.784-1.728 0-.693.267-1.253.8-1.68.544-.427 1.254-.64 2.128-.64.448 0 .87.053 1.264.16.406.096.779.245 1.12.448v-1.072c0-.64-.17-1.12-.512-1.44-.341-.331-.842-.496-1.504-.496-.362 0-.736.053-1.12.16-.373.107-.79.277-1.248.512l-.432-.896a7.814 7.814 0 0 1 1.52-.56c.48-.128.955-.192 1.424-.192.96 0 1.702.24 2.224.72.534.469.8 1.147.8 2.032V238h-1.152v-.912c-.341.352-.72.619-1.136.8a3.5 3.5 0 0 1-1.344.256zm-1.712-2.416c0 .459.182.827.544 1.104.363.277.832.416 1.408.416a3.13 3.13 0 0 0 1.2-.224c.374-.149.72-.373 1.04-.672v-1.504a3.82 3.82 0 0 0-1.024-.416 4.501 4.501 0 0 0-1.184-.144c-.597 0-1.077.133-1.44.4-.362.267-.544.613-.544 1.04zM74.403 238v-7.808h1.168v1.264c.299-.459.656-.805 1.072-1.04a2.812 2.812 0 0 1 1.408-.352c.832 0 1.51.267 2.032.8.534.533.8 1.227.8 2.08V238h-1.168v-4.72c0-.683-.192-1.227-.576-1.632-.373-.405-.88-.608-1.52-.608-.427 0-.816.101-1.168.304a2.448 2.448 0 0 0-.88.896V238h-1.168zm14.572 0v-1.04a3.065 3.065 0 0 1-1.088.864 3.392 3.392 0 0 1-1.408.288 3.41 3.41 0 0 1-1.424-.304 3.722 3.722 0 0 1-1.136-.848 4.26 4.26 0 0 1-.768-1.28 4.485 4.485 0 0 1-.272-1.568c0-.565.09-1.093.272-1.584.192-.491.454-.912.784-1.264.33-.363.72-.645 1.168-.848.448-.213.928-.32 1.44-.32.48 0 .928.096 1.344.288.416.181.779.448 1.088.8v-4.624l1.168-.24V238h-1.168zm-4.944-3.904c0 .853.262 1.568.784 2.144.523.565 1.174.848 1.952.848.459 0 .88-.091 1.264-.272a2.46 2.46 0 0 0 .944-.768v-3.872a2.563 2.563 0 0 0-.976-.768 2.717 2.717 0 0 0-1.232-.288c-.778 0-1.43.283-1.952.848s-.784 1.275-.784 2.128zm10.929 4.048c-.832 0-1.515-.219-2.048-.656-.523-.448-.784-1.024-.784-1.728 0-.693.266-1.253.8-1.68.544-.427 1.253-.64 2.128-.64.448 0 .87.053 1.264.16.405.096.778.245 1.12.448v-1.072c0-.64-.17-1.12-.512-1.44-.342-.331-.843-.496-1.504-.496-.363 0-.736.053-1.12.16-.374.107-.79.277-1.248.512l-.432-.896a7.814 7.814 0 0 1 1.52-.56c.48-.128.954-.192 1.424-.192.96 0 1.701.24 2.224.72.533.469.8 1.147.8 2.032V238H97.44v-.912c-.342.352-.72.619-1.136.8a3.5 3.5 0 0 1-1.344.256zm-1.712-2.416c0 .459.181.827.544 1.104.362.277.832.416 1.408.416a3.13 3.13 0 0 0 1.2-.224c.373-.149.72-.373 1.04-.672v-1.504a3.82 3.82 0 0 0-1.024-.416 4.501 4.501 0 0 0-1.184-.144c-.598 0-1.078.133-1.44.4-.363.267-.544.613-.544 1.04zm7.718 2.272v-7.808h1.168v1.584c.202-.544.49-.965.864-1.264a2.035 2.035 0 0 1 1.312-.464c.138 0 .266.011.384.032.117.011.234.037.352.08v1.056a2.326 2.326 0 0 0-.416-.096 2.023 2.023 0 0 0-1.664.368c-.352.277-.63.667-.832 1.168V238h-1.168zm10.869 0v-1.04a3.073 3.073 0 0 1-1.088.864 3.393 3.393 0 0 1-1.408.288c-.502 0-.976-.101-1.424-.304a3.715 3.715 0 0 1-1.136-.848 4.26 4.26 0 0 1-.768-1.28 4.472 4.472 0 0 1-.272-1.568c0-.565.09-1.093.272-1.584.192-.491.453-.912.784-1.264a3.53 3.53 0 0 1 1.168-.848c.448-.213.928-.32 1.44-.32.48 0 .928.096 1.344.288.416.181.778.448 1.088.8v-4.624l1.168-.24V238h-1.168zm-4.944-3.904c0 .853.261 1.568.784 2.144.522.565 1.173.848 1.952.848.458 0 .88-.091 1.264-.272.384-.181.698-.437.944-.768v-3.872a2.568 2.568 0 0 0-.976-.768 2.718 2.718 0 0 0-1.232-.288c-.779 0-1.43.283-1.952.848-.523.565-.784 1.275-.784 2.128zm7.76 2.896l.624-.768c.459.341.885.592 1.28.752.405.149.816.224 1.232.224.565 0 1.035-.133 1.408-.4s.56-.603.56-1.008c0-.32-.112-.571-.336-.752-.224-.181-.581-.32-1.072-.416l-1.28-.224c-.757-.139-1.317-.373-1.68-.704-.352-.331-.528-.779-.528-1.344 0-.672.261-1.221.784-1.648.533-.427 1.211-.64 2.032-.64.533 0 1.04.08 1.52.24.48.16.965.405 1.456.736l-.576.816a4.394 4.394 0 0 0-1.216-.624 3.772 3.772 0 0 0-1.232-.208c-.512 0-.923.112-1.232.336a1.068 1.068 0 0 0-.464.912c0 .32.096.565.288.736.203.171.555.299 1.056.384l1.312.24c.779.139 1.349.379 1.712.72.373.341.56.8.56 1.376 0 .672-.293 1.243-.88 1.712-.576.469-1.296.704-2.16.704-.64 0-1.232-.096-1.776-.288a3.951 3.951 0 0 1-1.392-.864zm7.777 1.088l.96-1.168a4.055 4.055 0 0 1-.752-1.264 4.427 4.427 0 0 1-.272-1.552c0-.576.096-1.109.288-1.6.192-.491.453-.917.784-1.28a3.611 3.611 0 0 1 1.216-.848c.469-.203.97-.304 1.504-.304.426 0 .826.064 1.2.192.373.117.714.293 1.024.528l.544-.672h.976l-.96 1.168c.32.363.57.784.752 1.264.181.48.272.997.272 1.552 0 .576-.102 1.115-.304 1.616a3.916 3.916 0 0 1-.8 1.296 3.761 3.761 0 0 1-1.2.848 3.75 3.75 0 0 1-1.504.304 3.61 3.61 0 0 1-2.224-.736l-.528.656h-.976zm1.088-3.968c0 .373.048.725.144 1.056.106.331.25.624.432.88l3.6-4.432a2.048 2.048 0 0 0-.704-.384 2.353 2.353 0 0 0-.832-.144c-.758 0-1.387.288-1.888.864-.502.576-.752 1.296-.752 2.16zm2.64 3.008a2.42 2.42 0 0 0 1.888-.848c.512-.576.768-1.296.768-2.16a3.442 3.442 0 0 0-.592-1.952l-3.6 4.432c.202.171.432.304.688.4.266.085.549.128.848.128zm5.857.88v-11.44l1.168-.24v7.376l3.712-3.504h1.408l-3.968 3.712 4.144 4.096h-1.536l-3.76-3.728V238h-1.168z" fill="#000"/><rect x="163.5" y="220.5" width="23" height="23" rx="11.5" fill="#fff"/><rect x="163.5" y="220.5" width="23" height="23" rx="11.5" stroke="#000"/><path d="M195.144 238l4.432-11.2h1.472l4.368 11.2h-1.328l-1.328-3.52h-4.992L196.44 238h-1.296zm3.008-4.496h4.24l-2.128-5.6-2.112 5.6zM212.163 238v-1.04a3.073 3.073 0 0 1-1.088.864 3.393 3.393 0 0 1-1.408.288c-.502 0-.976-.101-1.424-.304a3.715 3.715 0 0 1-1.136-.848 4.26 4.26 0 0 1-.768-1.28 4.472 4.472 0 0 1-.272-1.568c0-.565.09-1.093.272-1.584.192-.491.453-.912.784-1.264a3.53 3.53 0 0 1 1.168-.848c.448-.213.928-.32 1.44-.32.48 0 .928.096 1.344.288.416.181.778.448 1.088.8v-4.624l1.168-.24V238h-1.168zm-4.944-3.904c0 .853.261 1.568.784 2.144.522.565 1.173.848 1.952.848.458 0 .88-.091 1.264-.272.384-.181.698-.437.944-.768v-3.872a2.568 2.568 0 0 0-.976-.768 2.718 2.718 0 0 0-1.232-.288c-.779 0-1.43.283-1.952.848-.523.565-.784 1.275-.784 2.128zm8.512 3.904v-7.808h1.168v1.584c.203-.544.491-.965.864-1.264a2.037 2.037 0 0 1 1.312-.464c.139 0 .267.011.384.032.118.011.235.037.352.08v1.056a2.306 2.306 0 0 0-.416-.096 2.025 2.025 0 0 0-1.664.368c-.352.277-.629.667-.832 1.168V238h-1.168zm11.573-.896a4.935 4.935 0 0 1-1.392.784c-.48.171-.992.256-1.536.256a3.902 3.902 0 0 1-1.536-.304 4.008 4.008 0 0 1-1.232-.864 4.182 4.182 0 0 1-.816-1.28 4.435 4.435 0 0 1-.288-1.6c0-.565.091-1.093.272-1.584.192-.501.454-.928.784-1.28a3.54 3.54 0 0 1 1.168-.848 3.35 3.35 0 0 1 1.456-.32c.512 0 .987.101 1.424.304.438.203.816.48 1.136.832.32.341.571.757.752 1.248.182.48.272.997.272 1.552v.352h-6.128c.054.789.347 1.451.88 1.984a2.626 2.626 0 0 0 1.904.784c.406 0 .795-.069 1.168-.208.384-.149.71-.347.976-.592l.736.784zm-3.136-6.032c-.64 0-1.189.229-1.648.688-.458.459-.741 1.045-.848 1.76h4.944c-.085-.704-.357-1.285-.816-1.744a2.173 2.173 0 0 0-1.632-.704zm4.921 5.92l.624-.768c.458.341.885.592 1.28.752.405.149.816.224 1.232.224.565 0 1.034-.133 1.408-.4.373-.267.56-.603.56-1.008 0-.32-.112-.571-.336-.752-.224-.181-.582-.32-1.072-.416l-1.28-.224c-.758-.139-1.318-.373-1.68-.704-.352-.331-.528-.779-.528-1.344 0-.672.261-1.221.784-1.648.533-.427 1.21-.64 2.032-.64.533 0 1.04.08 1.52.24.48.16.965.405 1.456.736l-.576.816a4.408 4.408 0 0 0-1.216-.624 3.777 3.777 0 0 0-1.232-.208c-.512 0-.923.112-1.232.336-.31.224-.464.528-.464.912 0 .32.096.565.288.736.202.171.554.299 1.056.384l1.312.24c.778.139 1.349.379 1.712.72.373.341.56.8.56 1.376 0 .672-.294 1.243-.88 1.712-.576.469-1.296.704-2.16.704-.64 0-1.232-.096-1.776-.288a3.951 3.951 0 0 1-1.392-.864zm7.359 0l.624-.768c.459.341.885.592 1.28.752.405.149.816.224 1.232.224.565 0 1.035-.133 1.408-.4s.56-.603.56-1.008c0-.32-.112-.571-.336-.752-.224-.181-.581-.32-1.072-.416l-1.28-.224c-.757-.139-1.317-.373-1.68-.704-.352-.331-.528-.779-.528-1.344 0-.672.261-1.221.784-1.648.533-.427 1.211-.64 2.032-.64.533 0 1.04.08 1.52.24.48.16.965.405 1.456.736l-.576.816a4.394 4.394 0 0 0-1.216-.624 3.772 3.772 0 0 0-1.232-.208c-.512 0-.923.112-1.232.336a1.068 1.068 0 0 0-.464.912c0 .32.096.565.288.736.203.171.555.299 1.056.384l1.312.24c.779.139 1.349.379 1.712.72.373.341.56.8.56 1.376 0 .672-.293 1.243-.88 1.712-.576.469-1.296.704-2.16.704-.64 0-1.232-.096-1.776-.288a3.951 3.951 0 0 1-1.392-.864zm14.513.112a4.935 4.935 0 0 1-1.392.784c-.48.171-.992.256-1.536.256a3.902 3.902 0 0 1-1.536-.304 3.996 3.996 0 0 1-1.232-.864 4.144 4.144 0 0 1-.816-1.28 4.435 4.435 0 0 1-.288-1.6c0-.565.09-1.093.272-1.584.192-.501.453-.928.784-1.28a3.53 3.53 0 0 1 1.168-.848c.448-.213.933-.32 1.456-.32.512 0 .986.101 1.424.304a3.651 3.651 0 0 1 1.888 2.08c.181.48.272.997.272 1.552v.352h-6.128c.053.789.346 1.451.88 1.984a2.625 2.625 0 0 0 1.904.784c.405 0 .794-.069 1.168-.208.384-.149.709-.347.976-.592l.736.784zm-3.136-6.032c-.64 0-1.19.229-1.648.688-.459.459-.742 1.045-.848 1.76h4.944c-.086-.704-.358-1.285-.816-1.744a2.173 2.173 0 0 0-1.632-.704zm4.92 5.92l.624-.768c.459.341.885.592 1.28.752.405.149.816.224 1.232.224.565 0 1.035-.133 1.408-.4s.56-.603.56-1.008c0-.32-.112-.571-.336-.752-.224-.181-.581-.32-1.072-.416l-1.28-.224c-.757-.139-1.317-.373-1.68-.704-.352-.331-.528-.779-.528-1.344 0-.672.261-1.221.784-1.648.533-.427 1.211-.64 2.032-.64.533 0 1.04.08 1.52.24.48.16.965.405 1.456.736l-.576.816a4.394 4.394 0 0 0-1.216-.624 3.772 3.772 0 0 0-1.232-.208c-.512 0-.923.112-1.232.336a1.068 1.068 0 0 0-.464.912c0 .32.096.565.288.736.203.171.555.299 1.056.384l1.312.24c.779.139 1.349.379 1.712.72.373.341.56.8.56 1.376 0 .672-.293 1.243-.88 1.712-.576.469-1.296.704-2.16.704-.64 0-1.232-.096-1.776-.288a3.951 3.951 0 0 1-1.392-.864zm7.776 1.088l.96-1.168a4.074 4.074 0 0 1-.752-1.264 4.45 4.45 0 0 1-.272-1.552c0-.576.096-1.109.288-1.6.192-.491.454-.917.784-1.28a3.631 3.631 0 0 1 1.216-.848 3.75 3.75 0 0 1 1.504-.304c.427 0 .827.064 1.2.192a3.31 3.31 0 0 1 1.024.528l.544-.672h.976l-.96 1.168c.32.363.571.784.752 1.264.182.48.272.997.272 1.552 0 .576-.101 1.115-.304 1.616a3.9 3.9 0 0 1-.8 1.296 3.74 3.74 0 0 1-1.2.848c-.469.203-.97.304-1.504.304a3.77 3.77 0 0 1-1.2-.192 3.636 3.636 0 0 1-1.024-.544l-.528.656h-.976zm1.088-3.968c0 .373.048.725.144 1.056.107.331.251.624.432.88l3.6-4.432a2.03 2.03 0 0 0-.704-.384 2.35 2.35 0 0 0-.832-.144c-.757 0-1.386.288-1.888.864-.501.576-.752 1.296-.752 2.16zm2.64 3.008c.758 0 1.387-.283 1.888-.848.512-.576.768-1.296.768-2.16a3.443 3.443 0 0 0-.592-1.952l-3.6 4.432c.203.171.432.304.688.4.267.085.55.128.848.128zm5.857.88v-11.44l1.168-.24v7.376l3.712-3.504h1.408l-3.968 3.712L276.57 238h-1.536l-3.76-3.728V238h-1.168z" fill="#000"/><path fill-rule="evenodd" clip-rule="evenodd" d="M321 1H1v568h320V1zM161 385c55.228 0 100-44.772 100-100s-44.772-100-100-100S61 229.772 61 285s44.772 100 100 100z" fill="#000" fill-opacity=".25"/><path d="M1 410a4 4 0 0 1 4-4h312a4 4 0 0 1 4 4v155.01a4 4 0 0 1-4 4H5a4 4 0 0 1-4-4V410z" fill="#fff"/><path d="M1 410a4 4 0 0 1 4-4h312a4 4 0 0 1 4 4H1z" fill="#29D305"/><path d="M304.748 427.415a.83.83 0 0 0-1.172-1.172l-6.586 6.585-6.585-6.585a.828.828 0 1 0-1.172 1.172l6.585 6.585-6.585 6.585a.828.828 0 1 0 1.172 1.172l6.585-6.585 6.586 6.585a.828.828 0 1 0 1.172-1.172L298.162 434l6.586-6.585zm-279.46 12.443v-2.048h9.856v2.048h-3.76v9.152h-2.32v-9.152h-3.776zm12.101-.176c-.34 0-.634-.123-.88-.368a1.203 1.203 0 0 1-.367-.88 1.2 1.2 0 0 1 .367-.88c.246-.246.54-.368.88-.368.342 0 .635.122.88.368a1.2 1.2 0 0 1 .369.88c0 .341-.123.634-.368.88a1.202 1.202 0 0 1-.88.368zm1.104.992v8.336h-2.192v-8.336h2.192zm2.85 5.984v-4.144h-1.711v-1.84h1.712v-2.128l2.192-.496v2.624h2.368v1.84h-2.368v3.696c0 .394.085.672.256.832.17.16.47.24.896.24.202 0 .394-.011.576-.032.181-.032.378-.086.592-.16v1.792a4.997 4.997 0 0 1-.848.176c-.33.053-.614.08-.848.08-.928 0-1.632-.208-2.112-.624-.47-.427-.704-1.046-.704-1.856zm7.838-9.328v11.68h-2.192v-11.2l2.192-.48zm9.186 10.64c-.512.416-1.04.72-1.584.912a5.264 5.264 0 0 1-1.792.288 4.587 4.587 0 0 1-3.2-1.248 4.385 4.385 0 0 1-.944-1.36 4.378 4.378 0 0 1-.336-1.712c0-.598.107-1.158.32-1.68a4.24 4.24 0 0 1 .912-1.376 4.159 4.159 0 0 1 1.36-.928 4.335 4.335 0 0 1 1.696-.336c.587 0 1.13.117 1.632.352.512.224.95.533 1.312.928.374.394.662.869.864 1.424.214.544.32 1.136.32 1.776v.576H52.72c.15.522.438.944.864 1.264.427.32.928.48 1.504.48a2.96 2.96 0 0 0 1.024-.176c.32-.118.592-.283.816-.496l1.44 1.312zm-3.616-5.632c-.501 0-.933.154-1.296.464-.362.298-.613.704-.752 1.216h4.08a2.343 2.343 0 0 0-.768-1.2 1.852 1.852 0 0 0-1.264-.48zM26.232 477.01v-9.8h1.078v4.382h5.628v-4.382h1.078v9.8h-1.078v-4.452H27.31v4.452h-1.078zm15.7-.784a4.327 4.327 0 0 1-1.218.686 3.99 3.99 0 0 1-1.344.224c-.476 0-.924-.089-1.344-.266a3.526 3.526 0 0 1-1.078-.756 3.662 3.662 0 0 1-.714-1.12 3.885 3.885 0 0 1-.252-1.4c0-.495.08-.957.238-1.386.168-.439.397-.812.686-1.12.29-.318.63-.565 1.022-.742a2.92 2.92 0 0 1 1.274-.28c.448 0 .864.088 1.246.266.383.177.714.42.994.728.28.298.5.662.658 1.092.159.42.238.872.238 1.358v.308h-5.362c.047.69.304 1.269.77 1.736a2.3 2.3 0 0 0 1.666.686c.355 0 .696-.061 1.022-.182.336-.131.62-.304.854-.518l.644.686zm-2.744-5.278c-.56 0-1.04.2-1.442.602-.401.401-.648.914-.742 1.54h4.326c-.074-.616-.312-1.125-.714-1.526a1.9 1.9 0 0 0-1.428-.616zm4.895 6.062v-6.832h1.022v1.386c.178-.476.43-.845.756-1.106a1.778 1.778 0 0 1 1.148-.406c.121 0 .233.009.336.028.103.009.206.032.308.07v.924a1.966 1.966 0 0 0-.364-.084 1.768 1.768 0 0 0-1.456.322c-.308.242-.55.583-.728 1.022v4.676h-1.022zm10.127-.784a4.327 4.327 0 0 1-1.218.686 3.99 3.99 0 0 1-1.344.224c-.476 0-.924-.089-1.344-.266a3.525 3.525 0 0 1-1.078-.756 3.659 3.659 0 0 1-.714-1.12 3.885 3.885 0 0 1-.252-1.4c0-.495.079-.957.238-1.386.168-.439.396-.812.686-1.12a3.08 3.08 0 0 1 1.022-.742 2.92 2.92 0 0 1 1.274-.28c.448 0 .863.088 1.246.266a3.18 3.18 0 0 1 1.652 1.82c.158.42.238.872.238 1.358v.308h-5.362c.046.69.303 1.269.77 1.736a2.3 2.3 0 0 0 1.666.686 2.92 2.92 0 0 0 1.022-.182c.336-.131.62-.304.854-.518l.644.686zm-2.744-5.278c-.56 0-1.041.2-1.442.602-.402.401-.65.914-.742 1.54h4.326c-.075-.616-.313-1.125-.714-1.526a1.9 1.9 0 0 0-1.428-.616zm8.68-2.45a.752.752 0 0 1-.532-.21.753.753 0 0 1-.21-.532c0-.196.07-.364.21-.504a.724.724 0 0 1 .532-.224c.196 0 .364.074.504.224.15.14.224.308.224.504 0 .205-.07.382-.21.532a.704.704 0 0 1-.518.21zm.504 1.68v6.832h-1.022v-6.832h1.022zm1.437 5.95l.546-.672c.402.298.775.518 1.12.658.355.13.714.196 1.078.196.495 0 .906-.117 1.232-.35.327-.234.49-.528.49-.882 0-.28-.098-.5-.294-.658-.196-.159-.508-.28-.938-.364l-1.12-.196c-.662-.122-1.152-.327-1.47-.616-.308-.29-.462-.682-.462-1.176 0-.588.229-1.069.686-1.442.467-.374 1.06-.56 1.778-.56.467 0 .91.07 1.33.21.42.14.845.354 1.274.644l-.504.714a3.845 3.845 0 0 0-1.064-.546 3.292 3.292 0 0 0-1.078-.182c-.448 0-.807.098-1.078.294a.934.934 0 0 0-.406.798c0 .28.084.494.252.644.178.149.486.261.924.336l1.148.21c.682.121 1.181.331 1.498.63.327.298.49.7.49 1.204 0 .588-.256 1.087-.77 1.498-.504.41-1.134.616-1.89.616-.56 0-1.078-.084-1.554-.252a3.468 3.468 0 0 1-1.218-.756zm11.068-.658v-4.452h-1.414v-.84h1.414v-1.876l1.022-.238v2.114h1.96v.84h-1.96v4.186c0 .364.075.625.224.784.159.158.415.238.77.238.177 0 .336-.014.476-.042.14-.028.303-.075.49-.14v.91a3.029 3.029 0 0 1-.588.14 4.454 4.454 0 0 1-.602.042c-.588 0-1.036-.14-1.344-.42-.299-.29-.448-.705-.448-1.246zm4.479 1.54V467l1.022-.21v4.494a2.71 2.71 0 0 1 .938-.91 2.457 2.457 0 0 1 1.232-.308c.728 0 1.32.233 1.778.7.467.466.7 1.073.7 1.82v4.424h-1.022v-4.13c0-.598-.168-1.074-.504-1.428-.327-.355-.77-.532-1.33-.532-.373 0-.714.088-1.022.266a2.134 2.134 0 0 0-.77.784v5.04h-1.022zm13.367-.784a4.327 4.327 0 0 1-1.218.686 3.99 3.99 0 0 1-1.344.224c-.476 0-.924-.089-1.344-.266a3.525 3.525 0 0 1-1.078-.756 3.659 3.659 0 0 1-.714-1.12 3.885 3.885 0 0 1-.252-1.4c0-.495.079-.957.238-1.386.168-.439.396-.812.686-1.12a3.08 3.08 0 0 1 1.022-.742 2.92 2.92 0 0 1 1.274-.28c.448 0 .863.088 1.246.266a3.18 3.18 0 0 1 1.652 1.82c.158.42.238.872.238 1.358v.308h-5.362c.046.69.303 1.269.77 1.736a2.3 2.3 0 0 0 1.666.686 2.92 2.92 0 0 0 1.022-.182c.336-.131.62-.304.854-.518l.644.686zm-2.744-5.278c-.56 0-1.041.2-1.442.602-.402.401-.65.914-.742 1.54h4.326c-.075-.616-.313-1.125-.714-1.526a1.9 1.9 0 0 0-1.428-.616zm8.974 4.522v-4.452h-1.414v-.84h1.414v-1.876l1.022-.238v2.114h1.96v.84h-1.96v4.186c0 .364.075.625.224.784.159.158.415.238.77.238.177 0 .336-.014.476-.042.14-.028.303-.075.49-.14v.91a3.031 3.031 0 0 1-.588.14 4.453 4.453 0 0 1-.602.042c-.588 0-1.036-.14-1.344-.42-.299-.29-.448-.705-.448-1.246zm9.957.756a4.327 4.327 0 0 1-1.218.686 3.99 3.99 0 0 1-1.344.224c-.476 0-.924-.089-1.344-.266a3.521 3.521 0 0 1-1.078-.756 3.648 3.648 0 0 1-.714-1.12 3.885 3.885 0 0 1-.252-1.4c0-.495.079-.957.238-1.386a3.38 3.38 0 0 1 .686-1.12c.289-.318.63-.565 1.022-.742.392-.187.817-.28 1.274-.28.448 0 .863.088 1.246.266a3.184 3.184 0 0 1 1.652 1.82c.159.42.238.872.238 1.358v.308h-5.362c.047.69.303 1.269.77 1.736a2.3 2.3 0 0 0 1.666.686 2.92 2.92 0 0 0 1.022-.182c.336-.131.621-.304.854-.518l.644.686zm-2.744-5.278c-.56 0-1.041.2-1.442.602-.401.401-.649.914-.742 1.54h4.326c-.075-.616-.313-1.125-.714-1.526a1.9 1.9 0 0 0-1.428-.616zm3.59 6.062l2.604-3.514-2.478-3.318h1.218l1.89 2.59 1.862-2.59h1.162l-2.45 3.29 2.646 3.542h-1.218l-2.044-2.786-2.03 2.786h-1.162zm8.365-1.54v-4.452h-1.414v-.84h1.414v-1.876l1.022-.238v2.114h1.96v.84h-1.96v4.186c0 .364.075.625.224.784.159.158.415.238.77.238.177 0 .336-.014.476-.042.14-.028.303-.075.49-.14v.91a3.04 3.04 0 0 1-.588.14 4.45 4.45 0 0 1-.602.042c-.588 0-1.036-.14-1.344-.42-.299-.29-.448-.705-.448-1.246zm8.559 0v-4.452h-1.414v-.84h1.414v-1.876l1.022-.238v2.114h1.96v.84h-1.96v4.186c0 .364.074.625.224.784.158.158.415.238.77.238.177 0 .336-.014.476-.042.14-.028.303-.075.49-.14v.91a3.04 3.04 0 0 1-.588.14 4.461 4.461 0 0 1-.602.042c-.588 0-1.036-.14-1.344-.42-.299-.29-.448-.705-.448-1.246zm4.479 1.54V467l1.022-.21v4.494c.261-.402.574-.705.938-.91a2.455 2.455 0 0 1 1.232-.308c.728 0 1.32.233 1.778.7.466.466.7 1.073.7 1.82v4.424h-1.022v-4.13c0-.598-.168-1.074-.504-1.428-.327-.355-.77-.532-1.33-.532-.374 0-.714.088-1.022.266a2.131 2.131 0 0 0-.77.784v5.04h-1.022zm9.838.126c-.728 0-1.325-.192-1.792-.574-.457-.392-.686-.896-.686-1.512 0-.607.234-1.097.7-1.47.476-.374 1.097-.56 1.862-.56.392 0 .761.046 1.106.14.355.084.682.214.98.392v-.938c0-.56-.149-.98-.448-1.26-.298-.29-.737-.434-1.316-.434a3.63 3.63 0 0 0-.98.14c-.326.093-.69.242-1.092.448l-.378-.784c.467-.224.91-.388 1.33-.49.42-.112.836-.168 1.246-.168.84 0 1.489.21 1.946.63.467.41.7 1.003.7 1.778v4.536h-1.008v-.798c-.298.308-.63.541-.994.7a3.074 3.074 0 0 1-1.176.224zm-1.498-2.114c0 .401.159.723.476.966.318.242.728.364 1.232.364.383 0 .733-.066 1.05-.196.327-.131.63-.327.91-.588v-1.316a3.325 3.325 0 0 0-.896-.364 3.936 3.936 0 0 0-1.036-.126c-.522 0-.942.116-1.26.35-.317.233-.476.536-.476.91zm7.36.448v-4.452h-1.414v-.84h1.414v-1.876l1.022-.238v2.114h1.96v.84h-1.96v4.186c0 .364.075.625.224.784.159.158.416.238.77.238.178 0 .336-.014.476-.042.14-.028.304-.075.49-.14v.91a3.005 3.005 0 0 1-.588.14 4.45 4.45 0 0 1-.602.042c-.588 0-1.036-.14-1.344-.42-.298-.29-.448-.705-.448-1.246zm9.973 1.54h-1.008l-1.876-6.832h.994l1.428 5.46 1.638-5.46h.91l1.638 5.46 1.414-5.46h.966l-1.862 6.832h-.994l-1.624-5.516-1.624 5.516zm8.067-8.512a.753.753 0 0 1-.532-.21.753.753 0 0 1-.21-.532c0-.196.07-.364.21-.504a.726.726 0 0 1 .532-.224c.196 0 .364.074.504.224.15.14.224.308.224.504 0 .205-.07.382-.21.532a.703.703 0 0 1-.518.21zm.504 1.68v6.832h-1.022v-6.832h1.022zm3.118-3.388v10.22h-1.022V467l1.022-.21zm3.117 0v10.22h-1.022V467l1.022-.21zm10.389 10.22v-.91a2.698 2.698 0 0 1-.952.756 2.97 2.97 0 0 1-1.232.252c-.439 0-.854-.089-1.246-.266a3.264 3.264 0 0 1-.994-.742 3.74 3.74 0 0 1-.672-1.12 3.923 3.923 0 0 1-.238-1.372c0-.495.079-.957.238-1.386a3.39 3.39 0 0 1 .686-1.106c.289-.318.63-.565 1.022-.742.392-.187.812-.28 1.26-.28.42 0 .812.084 1.176.252.364.158.681.392.952.7V467l1.022-.21v10.22h-1.022zm-4.326-3.416c0 .746.228 1.372.686 1.876a2.232 2.232 0 0 0 1.708.742c.401 0 .77-.08 1.106-.238.336-.159.611-.383.826-.672v-3.388a2.238 2.238 0 0 0-.854-.672 2.38 2.38 0 0 0-1.078-.252c-.682 0-1.251.247-1.708.742-.458.494-.686 1.115-.686 1.862zm13.09 2.632a4.327 4.327 0 0 1-1.218.686 3.99 3.99 0 0 1-1.344.224c-.476 0-.924-.089-1.344-.266a3.521 3.521 0 0 1-1.078-.756 3.648 3.648 0 0 1-.714-1.12 3.885 3.885 0 0 1-.252-1.4c0-.495.079-.957.238-1.386a3.38 3.38 0 0 1 .686-1.12c.289-.318.63-.565 1.022-.742.392-.187.817-.28 1.274-.28.448 0 .863.088 1.246.266a3.184 3.184 0 0 1 1.652 1.82c.159.42.238.872.238 1.358v.308h-5.362c.047.69.303 1.269.77 1.736a2.3 2.3 0 0 0 1.666.686 2.92 2.92 0 0 0 1.022-.182c.336-.131.621-.304.854-.518l.644.686zm-2.744-5.278c-.56 0-1.041.2-1.442.602-.401.401-.649.914-.742 1.54h4.326c-.075-.616-.313-1.125-.714-1.526a1.9 1.9 0 0 0-1.428-.616zm4.305 5.18l.546-.672a5.23 5.23 0 0 0 1.12.658c.355.13.714.196 1.078.196.495 0 .906-.117 1.232-.35.327-.234.49-.528.49-.882 0-.28-.098-.5-.294-.658-.196-.159-.508-.28-.938-.364l-1.12-.196c-.662-.122-1.152-.327-1.47-.616-.308-.29-.462-.682-.462-1.176 0-.588.229-1.069.686-1.442.467-.374 1.06-.56 1.778-.56.467 0 .91.07 1.33.21.42.14.845.354 1.274.644l-.504.714a3.831 3.831 0 0 0-1.064-.546 3.29 3.29 0 0 0-1.078-.182c-.448 0-.807.098-1.078.294a.936.936 0 0 0-.406.798c0 .28.084.494.252.644.178.149.486.261.924.336l1.148.21c.682.121 1.181.331 1.498.63.327.298.49.7.49 1.204 0 .588-.256 1.087-.77 1.498-.504.41-1.134.616-1.89.616-.56 0-1.078-.084-1.554-.252a3.468 3.468 0 0 1-1.218-.756zm10.179.084c.373 0 .723-.07 1.05-.21.336-.14.62-.341.854-.602l.63.63a3.501 3.501 0 0 1-1.176.812c-.448.196-.92.294-1.414.294a3.39 3.39 0 0 1-1.33-.266 3.345 3.345 0 0 1-1.064-.756 3.648 3.648 0 0 1-.98-2.52c0-.495.084-.957.252-1.386.177-.43.415-.803.714-1.12a3.303 3.303 0 0 1 1.078-.742c.41-.187.854-.28 1.33-.28.504 0 .984.093 1.442.28.457.186.854.448 1.19.784l-.658.714a2.582 2.582 0 0 0-.882-.616 2.492 2.492 0 0 0-1.05-.238c-.336 0-.654.07-.952.21-.29.13-.542.312-.756.546a2.878 2.878 0 0 0-.504.826 2.822 2.822 0 0 0-.182 1.022c0 .737.233 1.358.7 1.862.466.504 1.036.756 1.708.756zm4.001.798v-6.832h1.022v1.386c.177-.476.429-.845.756-1.106a1.777 1.777 0 0 1 1.148-.406c.121 0 .233.009.336.028.102.009.205.032.308.07v.924a1.98 1.98 0 0 0-.364-.084 1.767 1.767 0 0 0-1.456.322c-.308.242-.551.583-.728 1.022v4.676h-1.022zm5.44-8.512a.75.75 0 0 1-.532-.21.753.753 0 0 1-.21-.532c0-.196.07-.364.21-.504a.723.723 0 0 1 .532-.224c.196 0 .364.074.504.224.149.14.224.308.224.504 0 .205-.07.382-.21.532a.704.704 0 0 1-.518.21zm.504 1.68v6.832h-1.022v-6.832h1.022zm8.465 3.416c0 .494-.084.956-.252 1.386a3.404 3.404 0 0 1-.672 1.12c-.29.308-.63.555-1.022.742a3.026 3.026 0 0 1-1.26.266c-.43 0-.831-.084-1.204-.252a2.932 2.932 0 0 1-.952-.742v.896h-1.008V467l1.022-.21v4.326c.261-.318.578-.565.952-.742a2.74 2.74 0 0 1 1.246-.28c.438 0 .849.093 1.232.28.392.177.728.424 1.008.742.28.308.499.676.658 1.106.168.429.252.886.252 1.372zm-3.402-2.604c-.402 0-.775.084-1.12.252a2.096 2.096 0 0 0-.826.686v3.346c.224.298.504.532.84.7.345.168.714.252 1.106.252.681 0 1.25-.248 1.708-.742.457-.504.686-1.13.686-1.876 0-.747-.229-1.368-.686-1.862a2.213 2.213 0 0 0-1.708-.756zm10.85 5.236a4.327 4.327 0 0 1-1.218.686 3.99 3.99 0 0 1-1.344.224c-.476 0-.924-.089-1.344-.266a3.521 3.521 0 0 1-1.078-.756 3.648 3.648 0 0 1-.714-1.12 3.885 3.885 0 0 1-.252-1.4c0-.495.079-.957.238-1.386.168-.439.396-.812.686-1.12.289-.318.63-.565 1.022-.742.392-.187.816-.28 1.274-.28.448 0 .863.088 1.246.266a3.184 3.184 0 0 1 1.652 1.82c.158.42.238.872.238 1.358v.308h-5.362c.046.69.303 1.269.77 1.736a2.299 2.299 0 0 0 1.666.686c.354 0 .695-.061 1.022-.182.336-.131.62-.304.854-.518l.644.686zm-2.744-5.278c-.56 0-1.041.2-1.442.602-.402.401-.649.914-.742 1.54h4.326c-.075-.616-.313-1.125-.714-1.526a1.9 1.9 0 0 0-1.428-.616zm10.388 6.062h-1.008l-1.876-6.832h.994l1.428 5.46 1.638-5.46h.91l1.638 5.46 1.414-5.46h.966l-1.862 6.832h-.994l-1.624-5.516-1.624 5.516zm7.55 0V467l1.022-.21v4.494c.261-.402.574-.705.938-.91a2.455 2.455 0 0 1 1.232-.308c.728 0 1.32.233 1.778.7.466.466.7 1.073.7 1.82v4.424h-1.022v-4.13c0-.598-.168-1.074-.504-1.428-.327-.355-.77-.532-1.33-.532-.374 0-.714.088-1.022.266a2.131 2.131 0 0 0-.77.784v5.04h-1.022zm9.838.126c-.728 0-1.325-.192-1.792-.574-.457-.392-.686-.896-.686-1.512 0-.607.233-1.097.7-1.47.476-.374 1.097-.56 1.862-.56.392 0 .761.046 1.106.14.355.084.681.214.98.392v-.938c0-.56-.149-.98-.448-1.26-.299-.29-.737-.434-1.316-.434a3.63 3.63 0 0 0-.98.14 6.058 6.058 0 0 0-1.092.448l-.378-.784c.467-.224.91-.388 1.33-.49.42-.112.835-.168 1.246-.168.84 0 1.489.21 1.946.63.467.41.7 1.003.7 1.778v4.536h-1.008v-.798c-.299.308-.63.541-.994.7a3.074 3.074 0 0 1-1.176.224zm-1.498-2.114c0 .401.159.723.476.966.317.242.728.364 1.232.364.383 0 .733-.066 1.05-.196.327-.131.63-.327.91-.588v-1.316a3.325 3.325 0 0 0-.896-.364 3.936 3.936 0 0 0-1.036-.126c-.523 0-.943.116-1.26.35-.317.233-.476.536-.476.91zm7.36.448v-4.452h-1.414v-.84h1.414v-1.876l1.022-.238v2.114h1.96v.84h-1.96v4.186c0 .364.075.625.224.784.159.158.416.238.77.238.178 0 .336-.014.476-.042.14-.028.304-.075.49-.14v.91a3.005 3.005 0 0 1-.588.14 4.45 4.45 0 0 1-.602.042c-.588 0-1.036-.14-1.344-.42-.298-.29-.448-.705-.448-1.246zm8.265-6.972a.75.75 0 0 1-.532-.21.753.753 0 0 1-.21-.532c0-.196.07-.364.21-.504a.723.723 0 0 1 .532-.224c.196 0 .364.074.504.224.149.14.224.308.224.504 0 .205-.07.382-.21.532a.704.704 0 0 1-.518.21zm.504 1.68v6.832h-1.022v-6.832h1.022zm1.437 5.95l.546-.672c.401.298.775.518 1.12.658.355.13.714.196 1.078.196.495 0 .905-.117 1.232-.35.327-.234.49-.528.49-.882 0-.28-.098-.5-.294-.658-.196-.159-.509-.28-.938-.364l-1.12-.196c-.663-.122-1.153-.327-1.47-.616-.308-.29-.462-.682-.462-1.176 0-.588.229-1.069.686-1.442.467-.374 1.059-.56 1.778-.56.467 0 .91.07 1.33.21.42.14.845.354 1.274.644l-.504.714a3.845 3.845 0 0 0-1.064-.546 3.294 3.294 0 0 0-1.078-.182c-.448 0-.807.098-1.078.294a.933.933 0 0 0-.406.798c0 .28.084.494.252.644.177.149.485.261.924.336l1.148.21c.681.121 1.181.331 1.498.63.327.298.49.7.49 1.204 0 .588-.257 1.087-.77 1.498-.504.41-1.134.616-1.89.616-.56 0-1.078-.084-1.554-.252a3.468 3.468 0 0 1-1.218-.756zM26.05 499.01v-6.832h1.022v1.106a2.71 2.71 0 0 1 .938-.91 2.457 2.457 0 0 1 1.232-.308c.728 0 1.32.233 1.778.7.467.466.7 1.073.7 1.82v4.424h-1.022v-4.13c0-.598-.168-1.074-.504-1.428-.327-.355-.77-.532-1.33-.532-.373 0-.714.088-1.022.266a2.134 2.134 0 0 0-.77.784v5.04H26.05zm13.367-.784a4.327 4.327 0 0 1-1.218.686 3.99 3.99 0 0 1-1.344.224c-.476 0-.924-.089-1.344-.266a3.525 3.525 0 0 1-1.078-.756 3.659 3.659 0 0 1-.714-1.12 3.885 3.885 0 0 1-.252-1.4c0-.495.079-.957.238-1.386.168-.439.396-.812.686-1.12a3.08 3.08 0 0 1 1.022-.742 2.92 2.92 0 0 1 1.274-.28c.448 0 .863.088 1.246.266a3.18 3.18 0 0 1 1.652 1.82c.158.42.238.872.238 1.358v.308H34.46c.046.69.303 1.269.77 1.736a2.3 2.3 0 0 0 1.666.686 2.92 2.92 0 0 0 1.022-.182c.336-.131.62-.304.854-.518l.644.686zm-2.744-5.278c-.56 0-1.041.2-1.442.602-.402.401-.65.914-.742 1.54h4.326c-.075-.616-.313-1.125-.714-1.526a1.9 1.9 0 0 0-1.428-.616zm6.984 6.062h-1.008l-1.876-6.832h.994l1.428 5.46 1.638-5.46h.91l1.638 5.46 1.414-5.46h.966l-1.862 6.832h-.994l-1.624-5.516-1.624 5.516zm7.547-1.414c.196 0 .364.074.504.224.15.149.224.326.224.532a.745.745 0 0 1-.224.546.668.668 0 0 1-.504.224.728.728 0 0 1-.532-.224.771.771 0 0 1-.21-.546.75.75 0 0 1 .21-.532.724.724 0 0 1 .532-.224zm5.196-7.434v-.952h7.84v.952h-3.374v8.848h-1.078v-8.848H56.4zm8.697 8.848v-6.832h1.022v1.386c.177-.476.43-.845.756-1.106a1.778 1.778 0 0 1 1.148-.406c.121 0 .233.009.336.028.103.009.205.032.308.07v.924a1.968 1.968 0 0 0-.364-.084 1.768 1.768 0 0 0-1.456.322c-.308.242-.55.583-.728 1.022v4.676h-1.022zm6.403 1.092l.448-1.106-2.632-6.818h1.133l2.073 5.614 2.197-5.614h1.135l-3.388 8.232c-.215.55-.472.938-.77 1.162-.29.233-.686.35-1.19.35-.094 0-.197-.01-.308-.028a1.726 1.726 0 0 1-.35-.07v-.91c.14.028.247.042.322.042.084.009.163.014.237.014.262 0 .477-.07.645-.21.177-.131.326-.35.447-.658zm9.708-2.632v-4.452h-1.414v-.84h1.414v-1.876l1.022-.238v2.114h1.96v.84h-1.96v4.186c0 .364.074.625.224.784.158.158.415.238.77.238.177 0 .336-.014.476-.042.14-.028.303-.075.49-.14v.91a3.029 3.029 0 0 1-.588.14 4.453 4.453 0 0 1-.602.042c-.588 0-1.036-.14-1.344-.42-.299-.29-.448-.705-.448-1.246zm4.007-1.876c0-.504.084-.971.252-1.4.168-.43.396-.803.686-1.12a3.153 3.153 0 0 1 1.064-.742c.41-.178.849-.266 1.316-.266.476 0 .914.088 1.316.266.41.177.765.424 1.064.742.298.317.532.69.7 1.12.168.429.252.896.252 1.4 0 .504-.089.975-.266 1.414a3.43 3.43 0 0 1-.7 1.134c-.29.308-.64.555-1.05.742a3.29 3.29 0 0 1-1.316.266 3.29 3.29 0 0 1-1.316-.266 3.401 3.401 0 0 1-1.05-.756 3.806 3.806 0 0 1-.7-1.12 3.921 3.921 0 0 1-.252-1.414zm3.318 2.646c.662 0 1.213-.248 1.652-.742.448-.504.672-1.134.672-1.89s-.224-1.386-.672-1.89a2.098 2.098 0 0 0-1.652-.756c-.663 0-1.214.252-1.652.756-.439.504-.658 1.134-.658 1.89s.219 1.386.658 1.89c.438.494.989.742 1.652.742zm8.392.77V489l1.022-.21v6.454l3.248-3.066h1.232l-3.472 3.248 3.626 3.584h-1.344l-3.29-3.262v3.262h-1.022zm12.054-.784a4.327 4.327 0 0 1-1.218.686 3.99 3.99 0 0 1-1.344.224c-.476 0-.924-.089-1.344-.266a3.521 3.521 0 0 1-1.078-.756 3.648 3.648 0 0 1-.714-1.12 3.885 3.885 0 0 1-.252-1.4c0-.495.079-.957.238-1.386a3.38 3.38 0 0 1 .686-1.12c.289-.318.63-.565 1.022-.742.392-.187.817-.28 1.274-.28.448 0 .863.088 1.246.266a3.184 3.184 0 0 1 1.652 1.82c.159.42.238.872.238 1.358v.308h-5.362c.047.69.303 1.269.77 1.736a2.3 2.3 0 0 0 1.666.686 2.92 2.92 0 0 0 1.022-.182c.336-.131.621-.304.854-.518l.644.686zm-2.744-5.278c-.56 0-1.041.2-1.442.602-.401.401-.649.914-.742 1.54h4.326c-.075-.616-.313-1.125-.714-1.526a1.9 1.9 0 0 0-1.428-.616zm10.551 5.278a4.327 4.327 0 0 1-1.218.686 3.99 3.99 0 0 1-1.344.224c-.476 0-.924-.089-1.344-.266a3.521 3.521 0 0 1-1.078-.756 3.648 3.648 0 0 1-.714-1.12 3.885 3.885 0 0 1-.252-1.4c0-.495.079-.957.238-1.386.168-.439.396-.812.686-1.12.289-.318.63-.565 1.022-.742.392-.187.816-.28 1.274-.28.448 0 .863.088 1.246.266a3.184 3.184 0 0 1 1.652 1.82c.158.42.238.872.238 1.358v.308h-5.362c.046.69.303 1.269.77 1.736a2.299 2.299 0 0 0 1.666.686c.354 0 .695-.061 1.022-.182.336-.131.62-.304.854-.518l.644.686zm-2.744-5.278c-.56 0-1.041.2-1.442.602-.402.401-.649.914-.742 1.54h4.326c-.075-.616-.313-1.125-.714-1.526a1.9 1.9 0 0 0-1.428-.616zm4.895 8.988v-9.758h1.008v.98c.261-.346.578-.607.952-.784.382-.187.802-.28 1.26-.28.438 0 .849.093 1.232.28.392.177.728.424 1.008.742.28.308.499.676.658 1.106.168.429.252.886.252 1.372 0 .494-.084.956-.252 1.386a3.404 3.404 0 0 1-.672 1.12c-.29.308-.63.555-1.022.742a3.026 3.026 0 0 1-1.26.266c-.43 0-.831-.08-1.204-.238a2.698 2.698 0 0 1-.938-.714v3.78h-1.022zm2.968-8.946c-.402 0-.775.084-1.12.252a2.096 2.096 0 0 0-.826.686v3.346c.224.298.504.532.84.7.345.168.714.252 1.106.252.681 0 1.25-.248 1.708-.742.457-.504.686-1.13.686-1.876 0-.747-.229-1.368-.686-1.862a2.213 2.213 0 0 0-1.708-.756zm8.979-2.492a.753.753 0 0 1-.532-.21.753.753 0 0 1-.21-.532c0-.196.07-.364.21-.504a.726.726 0 0 1 .532-.224c.196 0 .364.074.504.224.15.14.224.308.224.504 0 .205-.07.382-.21.532a.703.703 0 0 1-.518.21zm.504 1.68v6.832h-1.022v-6.832h1.022zm2.908 5.292v-4.452h-1.414v-.84h1.414v-1.876l1.022-.238v2.114h1.96v.84h-1.96v4.186c0 .364.074.625.224.784.158.158.415.238.77.238.177 0 .336-.014.476-.042.14-.028.303-.075.49-.14v.91a3.04 3.04 0 0 1-.588.14 4.461 4.461 0 0 1-.602.042c-.588 0-1.036-.14-1.344-.42-.299-.29-.448-.705-.448-1.246zm7.088.658l.546-.672a5.23 5.23 0 0 0 1.12.658c.355.13.714.196 1.078.196.495 0 .906-.117 1.232-.35.327-.234.49-.528.49-.882 0-.28-.098-.5-.294-.658-.196-.159-.508-.28-.938-.364l-1.12-.196c-.662-.122-1.152-.327-1.47-.616-.308-.29-.462-.682-.462-1.176 0-.588.229-1.069.686-1.442.467-.374 1.06-.56 1.778-.56.467 0 .91.07 1.33.21.42.14.845.354 1.274.644l-.504.714a3.831 3.831 0 0 0-1.064-.546 3.29 3.29 0 0 0-1.078-.182c-.448 0-.807.098-1.078.294a.936.936 0 0 0-.406.798c0 .28.084.494.252.644.178.149.486.261.924.336l1.148.21c.682.121 1.181.331 1.498.63.327.298.49.7.49 1.204 0 .588-.256 1.087-.77 1.498-.504.41-1.134.616-1.89.616-.56 0-1.078-.084-1.554-.252a3.468 3.468 0 0 1-1.218-.756zm6.988.882V489l1.022-.21v4.494c.262-.402.574-.705.938-.91a2.457 2.457 0 0 1 1.232-.308c.728 0 1.321.233 1.778.7.467.466.7 1.073.7 1.82v4.424h-1.022v-4.13c0-.598-.168-1.074-.504-1.428-.326-.355-.77-.532-1.33-.532-.373 0-.714.088-1.022.266a2.139 2.139 0 0 0-.77.784v5.04h-1.022zm7.417-3.416c0-.504.084-.971.252-1.4.168-.43.397-.803.686-1.12a3.154 3.154 0 0 1 1.064-.742 3.272 3.272 0 0 1 1.316-.266c.476 0 .915.088 1.316.266.411.177.765.424 1.064.742.299.317.532.69.7 1.12.168.429.252.896.252 1.4 0 .504-.089.975-.266 1.414a3.424 3.424 0 0 1-.7 1.134 3.287 3.287 0 0 1-1.05.742 3.29 3.29 0 0 1-1.316.266 3.29 3.29 0 0 1-1.316-.266 3.41 3.41 0 0 1-1.05-.756 3.808 3.808 0 0 1-.7-1.12 3.921 3.921 0 0 1-.252-1.414zm3.318 2.646c.663 0 1.213-.248 1.652-.742.448-.504.672-1.134.672-1.89s-.224-1.386-.672-1.89a2.098 2.098 0 0 0-1.652-.756c-.663 0-1.213.252-1.652.756-.439.504-.658 1.134-.658 1.89s.219 1.386.658 1.89c.439.494.989.742 1.652.742zm5.125.77v-6.832h1.022v1.386c.177-.476.429-.845.756-1.106a1.777 1.777 0 0 1 1.148-.406c.121 0 .233.009.336.028.102.009.205.032.308.07v.924a1.98 1.98 0 0 0-.364-.084 1.767 1.767 0 0 0-1.456.322c-.308.242-.551.583-.728 1.022v4.676h-1.022zm5.761-1.54v-4.452h-1.414v-.84h1.414v-1.876l1.022-.238v2.114h1.96v.84h-1.96v4.186c0 .364.075.625.224.784.159.158.415.238.77.238.177 0 .336-.014.476-.042.14-.028.303-.075.49-.14v.91a3.04 3.04 0 0 1-.588.14 4.45 4.45 0 0 1-.602.042c-.588 0-1.036-.14-1.344-.42-.299-.29-.448-.705-.448-1.246zm14.116-1.876c0 .494-.084.956-.252 1.386a3.37 3.37 0 0 1-.672 1.12c-.289.308-.63.555-1.022.742a3.026 3.026 0 0 1-1.26.266c-.429 0-.83-.084-1.204-.252a2.942 2.942 0 0 1-.952-.742v.896h-1.008V489l1.022-.21v4.326a2.74 2.74 0 0 1 .952-.742c.374-.187.789-.28 1.246-.28.439 0 .85.093 1.232.28.392.177.728.424 1.008.742.28.308.5.676.658 1.106.168.429.252.886.252 1.372zm-3.402-2.604a2.53 2.53 0 0 0-1.12.252 2.103 2.103 0 0 0-.826.686v3.346c.224.298.504.532.84.7.346.168.714.252 1.106.252.682 0 1.251-.248 1.708-.742.458-.504.686-1.13.686-1.876 0-.747-.228-1.368-.686-1.862a2.21 2.21 0 0 0-1.708-.756zm6.189-.812v4.116c0 .606.163 1.087.49 1.442.326.354.77.532 1.33.532.373 0 .714-.089 1.022-.266.308-.178.564-.434.77-.77v-5.054h1.022v6.832h-1.022v-1.106a2.735 2.735 0 0 1-.938.91 2.468 2.468 0 0 1-1.232.308c-.728 0-1.326-.234-1.792-.7-.458-.476-.686-1.088-.686-1.834v-4.41h1.036zm7.542 5.292v-4.452h-1.414v-.84h1.414v-1.876l1.022-.238v2.114h1.96v.84h-1.96v4.186c0 .364.075.625.224.784.159.158.416.238.77.238.178 0 .336-.014.476-.042.14-.028.304-.075.49-.14v.91a3.005 3.005 0 0 1-.588.14 4.45 4.45 0 0 1-.602.042c-.588 0-1.036-.14-1.344-.42-.298-.29-.448-.705-.448-1.246zm12.773 1.54v-.91a2.698 2.698 0 0 1-.952.756 2.97 2.97 0 0 1-1.232.252c-.439 0-.854-.089-1.246-.266a3.264 3.264 0 0 1-.994-.742 3.74 3.74 0 0 1-.672-1.12 3.923 3.923 0 0 1-.238-1.372c0-.495.079-.957.238-1.386a3.39 3.39 0 0 1 .686-1.106c.289-.318.63-.565 1.022-.742.392-.187.812-.28 1.26-.28.42 0 .812.084 1.176.252.364.158.681.392.952.7V489l1.022-.21v10.22h-1.022zm-4.326-3.416c0 .746.228 1.372.686 1.876a2.232 2.232 0 0 0 1.708.742c.401 0 .77-.08 1.106-.238.336-.159.611-.383.826-.672v-3.388a2.238 2.238 0 0 0-.854-.672 2.38 2.38 0 0 0-1.078-.252c-.682 0-1.251.247-1.708.742-.458.494-.686 1.115-.686 1.862zm13.09 2.632a4.327 4.327 0 0 1-1.218.686 3.99 3.99 0 0 1-1.344.224c-.476 0-.924-.089-1.344-.266a3.533 3.533 0 0 1-1.078-.756 3.685 3.685 0 0 1-.714-1.12 3.885 3.885 0 0 1-.252-1.4c0-.495.08-.957.238-1.386a3.38 3.38 0 0 1 .686-1.12c.29-.318.63-.565 1.022-.742.392-.187.817-.28 1.274-.28.448 0 .864.088 1.246.266.383.177.714.42.994.728.28.298.5.662.658 1.092.159.42.238.872.238 1.358v.308h-5.362c.047.69.304 1.269.77 1.736a2.3 2.3 0 0 0 1.666.686c.355 0 .696-.061 1.022-.182.336-.131.621-.304.854-.518l.644.686zm-2.744-5.278c-.56 0-1.04.2-1.442.602-.401.401-.648.914-.742 1.54h4.326c-.074-.616-.312-1.125-.714-1.526a1.9 1.9 0 0 0-1.428-.616zm4.306 5.18l.546-.672c.401.298.774.518 1.12.658.354.13.714.196 1.078.196.494 0 .905-.117 1.232-.35.326-.234.49-.528.49-.882 0-.28-.098-.5-.294-.658-.196-.159-.509-.28-.938-.364l-1.12-.196c-.663-.122-1.153-.327-1.47-.616-.308-.29-.462-.682-.462-1.176 0-.588.228-1.069.686-1.442.466-.374 1.059-.56 1.778-.56.466 0 .91.07 1.33.21.42.14.844.354 1.274.644l-.504.714a3.859 3.859 0 0 0-1.064-.546 3.294 3.294 0 0 0-1.078-.182c-.448 0-.808.098-1.078.294a.933.933 0 0 0-.406.798c0 .28.084.494.252.644.177.149.485.261.924.336l1.148.21c.681.121 1.18.331 1.498.63.326.298.49.7.49 1.204 0 .588-.257 1.087-.77 1.498-.504.41-1.134.616-1.89.616-.56 0-1.078-.084-1.554-.252a3.468 3.468 0 0 1-1.218-.756zm10.178.084c.373 0 .723-.07 1.05-.21a2.33 2.33 0 0 0 .854-.602l.63.63a3.501 3.501 0 0 1-1.176.812 3.489 3.489 0 0 1-1.414.294 3.39 3.39 0 0 1-1.33-.266 3.356 3.356 0 0 1-1.064-.756 3.648 3.648 0 0 1-.98-2.52c0-.495.084-.957.252-1.386.177-.43.415-.803.714-1.12a3.303 3.303 0 0 1 1.078-.742c.411-.187.854-.28 1.33-.28.504 0 .985.093 1.442.28.457.186.854.448 1.19.784l-.658.714a2.582 2.582 0 0 0-.882-.616 2.485 2.485 0 0 0-1.05-.238c-.336 0-.653.07-.952.21-.289.13-.541.312-.756.546a2.923 2.923 0 0 0-.504.826 2.843 2.843 0 0 0-.182 1.022c0 .737.233 1.358.7 1.862.467.504 1.036.756 1.708.756zm4.001.798v-6.832h1.022v1.386c.177-.476.429-.845.756-1.106a1.779 1.779 0 0 1 1.148-.406c.121 0 .233.009.336.028.103.009.205.032.308.07v.924a1.96 1.96 0 0 0-.364-.084 1.767 1.767 0 0 0-1.456.322c-.308.242-.551.583-.728 1.022v4.676h-1.022zm5.44-8.512a.751.751 0 0 1-.532-.21.753.753 0 0 1-.21-.532c0-.196.07-.364.21-.504a.724.724 0 0 1 .532-.224c.196 0 .364.074.504.224.149.14.224.308.224.504 0 .205-.07.382-.21.532a.704.704 0 0 1-.518.21zm.504 1.68v6.832h-1.022v-6.832h1.022zm2.095 9.758v-9.758h1.008v.98c.261-.346.579-.607.952-.784.383-.187.803-.28 1.26-.28.439 0 .849.093 1.232.28.392.177.728.424 1.008.742.28.308.499.676.658 1.106.168.429.252.886.252 1.372 0 .494-.084.956-.252 1.386a3.404 3.404 0 0 1-.672 1.12c-.289.308-.63.555-1.022.742a3.026 3.026 0 0 1-1.26.266c-.429 0-.831-.08-1.204-.238a2.698 2.698 0 0 1-.938-.714v3.78h-1.022zm2.968-8.946c-.401 0-.775.084-1.12.252a2.103 2.103 0 0 0-.826.686v3.346c.224.298.504.532.84.7.345.168.714.252 1.106.252.681 0 1.251-.248 1.708-.742.457-.504.686-1.13.686-1.876 0-.747-.229-1.368-.686-1.862a2.212 2.212 0 0 0-1.708-.756zm5.569 4.48v-4.452h-1.414v-.84h1.414v-1.876l1.022-.238v2.114h1.96v.84h-1.96v4.186c0 .364.074.625.224.784.158.158.415.238.77.238.177 0 .336-.014.476-.042.14-.028.303-.075.49-.14v.91a3.04 3.04 0 0 1-.588.14 4.461 4.461 0 0 1-.602.042c-.588 0-1.036-.14-1.344-.42-.299-.29-.448-.705-.448-1.246zm4.997-6.972a.75.75 0 0 1-.532-.21.753.753 0 0 1-.21-.532c0-.196.07-.364.21-.504a.723.723 0 0 1 .532-.224c.196 0 .364.074.504.224.149.14.224.308.224.504 0 .205-.07.382-.21.532a.704.704 0 0 1-.518.21zm.504 1.68v6.832h-1.022v-6.832h1.022zm4.055 6.832l-2.8-6.832h1.106l2.212 5.558 2.184-5.558h1.092l-2.814 6.832h-.98zm10.49-.784a4.327 4.327 0 0 1-1.218.686 3.99 3.99 0 0 1-1.344.224c-.476 0-.924-.089-1.344-.266a3.533 3.533 0 0 1-1.078-.756 3.685 3.685 0 0 1-.714-1.12 3.885 3.885 0 0 1-.252-1.4c0-.495.08-.957.238-1.386a3.38 3.38 0 0 1 .686-1.12c.29-.318.63-.565 1.022-.742.392-.187.817-.28 1.274-.28.448 0 .864.088 1.246.266.383.177.714.42.994.728.28.298.5.662.658 1.092.159.42.238.872.238 1.358v.308h-5.362c.047.69.304 1.269.77 1.736a2.3 2.3 0 0 0 1.666.686c.355 0 .696-.061 1.022-.182.336-.131.621-.304.854-.518l.644.686zm-2.744-5.278c-.56 0-1.04.2-1.442.602-.401.401-.648.914-.742 1.54h4.326c-.074-.616-.312-1.125-.714-1.526a1.9 1.9 0 0 0-1.428-.616zm5.03 4.648c.196 0 .364.074.504.224a.726.726 0 0 1 .224.532.746.746 0 0 1-.224.546.668.668 0 0 1-.504.224.728.728 0 0 1-.532-.224.771.771 0 0 1-.21-.546.75.75 0 0 1 .21-.532.724.724 0 0 1 .532-.224zM80.687 524.431a1.067 1.067 0 0 0-1.508-1.509l-5.321 5.322a1.06 1.06 0 0 0-.266 1.115c.052.151.138.29.254.405l5.333 5.333a1.066 1.066 0 1 0 1.508-1.508l-3.513-3.514H87.4a1.066 1.066 0 1 0 0-2.132H77.175l3.513-3.512z" fill="#000"/><path fill-rule="evenodd" clip-rule="evenodd" d="M81 515.143c-7.658 0-13.867 6.208-13.867 13.867 0 7.658 6.209 13.866 13.867 13.866 7.658 0 13.867-6.208 13.867-13.866 0-7.659-6.209-13.867-13.867-13.867zM65 529.01c0-8.837 7.163-16 16-16s16 7.163 16 16c0 8.836-7.163 16-16 16s-16-7.164-16-16z" fill="#29D305"/><circle cx="125" cy="529.01" r="3.5" stroke="#000"/><circle cx="149" cy="529.01" r="4" fill="#29D305"/><circle cx="173" cy="529.01" r="3.5" stroke="#000"/><circle cx="197" cy="529.01" r="3.5" stroke="#000"/><path d="M242.821 522.922a1.068 1.068 0 0 0-1.509 0 1.068 1.068 0 0 0 0 1.509l3.513 3.512H234.6a1.067 1.067 0 0 0 0 2.134h10.225l-3.513 3.512a1.067 1.067 0 0 0 1.509 1.508l5.328-5.328.055-.058a1.078 1.078 0 0 0 .166-1.145 1.05 1.05 0 0 0-.168-.26l-.053-.055-5.328-5.329z" fill="#000"/><path fill-rule="evenodd" clip-rule="evenodd" d="M241 542.876c7.658 0 13.867-6.208 13.867-13.866 0-7.659-6.209-13.867-13.867-13.867-7.658 0-13.867 6.208-13.867 13.867 0 7.658 6.209 13.866 13.867 13.866zm16-13.866c0 8.836-7.163 16-16 16s-16-7.164-16-16c0-8.837 7.163-16 16-16s16 7.163 16 16z" fill="#29D305"/></g><rect x=".5" y=".5" width="321" height="569" rx="8.5" stroke="#E9E9E9"/><defs><clipPath id="clip0_1507_58737"><rect x="1" y="1" width="320" height="568" rx="8" fill="#fff"/></clipPath></defs></svg>