<svg width="770" height="1026" fill="none" xmlns="http://www.w3.org/2000/svg"><g clip-path="url(#clip0_1507_58748)"><path transform="translate(1 1)" fill="#fff" d="M0 0H768V64H0z"/><path fill-rule="evenodd" clip-rule="evenodd" d="M649.307 29.113a2.688 2.688 0 1 1 5.376 0 2.688 2.688 0 0 1-5.376 0zM651.995 25a4.113 4.113 0 1 0 0 8.226 4.113 4.113 0 0 0 0-8.226zm-3.962 11.325a5.604 5.604 0 0 1 9.565 3.962.713.713 0 0 0 1.425 0 7.028 7.028 0 1 0-14.056 0 .712.712 0 1 0 1.425 0c0-1.486.59-2.91 1.641-3.962z" fill="#000"/><path d="M679.423 33.1c0 .7-.136 1.363-.406 1.988a5.046 5.046 0 0 1-1.078 1.61 5.118 5.118 0 0 1-1.624 1.064 5.143 5.143 0 0 1-2.002.392c-.71 0-1.377-.13-2.002-.392a5.096 5.096 0 0 1-1.624-1.064 5.341 5.341 0 0 1-1.078-1.61 5.091 5.091 0 0 1-.392-1.988c0-.7.13-1.358.392-1.974a5.12 5.12 0 0 1 1.078-1.61 4.98 4.98 0 0 1 1.624-1.078 5.136 5.136 0 0 1 2.002-.392c.709 0 1.376.13 2.002.392.625.261 1.166.62 1.624 1.078.457.448.816.985 1.078 1.61.27.616.406 1.274.406 1.974zm-1.498 0a3.76 3.76 0 0 0-.28-1.456 3.54 3.54 0 0 0-.77-1.176 3.313 3.313 0 0 0-1.148-.784 3.574 3.574 0 0 0-1.414-.28 3.57 3.57 0 0 0-1.414.28 3.48 3.48 0 0 0-1.148.784c-.318.327-.57.719-.756 1.176-.187.448-.28.933-.28 1.456 0 .523.093 1.013.28 1.47.186.448.438.835.756 1.162.326.327.709.588 1.148.784.438.187.91.28 1.414.28.504 0 .975-.093 1.414-.28.448-.196.83-.457 1.148-.784.326-.327.583-.714.77-1.162.186-.457.28-.947.28-1.47zm4.291-5.208V38h-1.4v-9.8l1.4-.308zm3.903 10.234c-.775 0-1.405-.2-1.89-.602-.485-.401-.728-.924-.728-1.568 0-.672.257-1.2.77-1.582.513-.392 1.218-.588 2.114-.588.345 0 .681.037 1.008.112.327.065.639.159.938.28v-.756c0-.504-.149-.882-.448-1.134-.299-.252-.728-.378-1.288-.378-.327 0-.667.051-1.022.154a7.144 7.144 0 0 0-1.19.448l-.518-1.05a7.65 7.65 0 0 1 1.512-.546 5.707 5.707 0 0 1 1.414-.182c.924 0 1.638.224 2.142.672.513.439.77 1.064.77 1.876V38h-1.372v-.616a3.324 3.324 0 0 1-1.022.56 3.745 3.745 0 0 1-1.19.182zm-1.274-2.198a1 1 0 0 0 .434.84c.299.215.686.322 1.162.322.373 0 .719-.056 1.036-.168.317-.112.602-.28.854-.504v-1.232a3.155 3.155 0 0 0-.854-.322 4.035 4.035 0 0 0-.98-.112c-.504 0-.905.107-1.204.322-.299.215-.448.5-.448.854zm9.565-7.728h1.442l5.46 7.266V28.2h1.386V38h-1.288l-5.614-7.504V38h-1.386v-9.8zm9.805 6.23a3.593 3.593 0 0 1 1.078-2.618 3.608 3.608 0 0 1 1.176-.784 3.657 3.657 0 0 1 1.456-.294c.513 0 .994.098 1.442.294.457.187.849.448 1.176.784.336.327.597.719.784 1.176.196.448.294.929.294 1.442 0 .523-.098 1.013-.294 1.47-.187.448-.448.84-.784 1.176a3.714 3.714 0 0 1-1.176.784c-.448.187-.929.28-1.442.28-.513 0-.999-.093-1.456-.28a3.928 3.928 0 0 1-1.176-.784 3.8 3.8 0 0 1-.798-1.176 3.846 3.846 0 0 1-.28-1.47zm3.71 2.478c.644 0 1.19-.238 1.638-.714.457-.485.686-1.073.686-1.764 0-.69-.229-1.274-.686-1.75a2.164 2.164 0 0 0-1.638-.714c-.644 0-1.195.238-1.652.714-.457.476-.686 1.06-.686 1.75s.224 1.279.672 1.764a2.224 2.224 0 0 0 1.666.714zm5.02 1.092v-7.126h1.4v.91c.215-.345.49-.607.826-.784.336-.187.714-.28 1.134-.28.149 0 .28.01.392.028.112.019.219.047.322.084v1.26a2.9 2.9 0 0 0-.406-.112 2.137 2.137 0 0 0-.42-.042 1.91 1.91 0 0 0-1.106.336c-.317.215-.565.537-.742.966V38h-1.4zm5.195 0v-7.126h1.4v.672c.262-.261.56-.462.896-.602.336-.14.705-.21 1.106-.21.476 0 .906.107 1.288.322.383.205.686.495.91.868a2.83 2.83 0 0 1 1.036-.882 3.026 3.026 0 0 1 1.372-.308c.784 0 1.424.261 1.918.784.504.513.756 1.18.756 2.002V38h-1.4v-4.242c0-.56-.149-.999-.448-1.316-.289-.327-.686-.49-1.19-.49-.345 0-.658.08-.938.238-.28.159-.522.397-.728.714.019.093.033.196.042.308.01.103.014.205.014.308V38h-1.386v-4.242c0-.56-.149-.999-.448-1.316-.289-.327-.686-.49-1.19-.49-.336 0-.639.075-.91.224-.27.14-.504.355-.7.644V38h-1.4zm14.545.126c-.774 0-1.404-.2-1.89-.602-.485-.401-.728-.924-.728-1.568 0-.672.257-1.2.77-1.582.514-.392 1.218-.588 2.114-.588.346 0 .682.037 1.008.112.327.065.64.159.938.28v-.756c0-.504-.149-.882-.448-1.134-.298-.252-.728-.378-1.288-.378-.326 0-.667.051-1.022.154a7.177 7.177 0 0 0-1.19.448l-.518-1.05a7.65 7.65 0 0 1 1.512-.546 5.713 5.713 0 0 1 1.414-.182c.924 0 1.638.224 2.142.672.514.439.77 1.064.77 1.876V38h-1.372v-.616a3.324 3.324 0 0 1-1.022.56 3.74 3.74 0 0 1-1.19.182zm-1.274-2.198a1 1 0 0 0 .434.84c.299.215.686.322 1.162.322.374 0 .719-.056 1.036-.168.318-.112.602-.28.854-.504v-1.232a3.142 3.142 0 0 0-.854-.322 4.03 4.03 0 0 0-.98-.112c-.504 0-.905.107-1.204.322-.298.215-.448.5-.448.854zM737.883 38v-7.126h1.4v.714c.28-.28.597-.49.952-.63.364-.15.76-.224 1.19-.224.812 0 1.479.261 2.002.784.522.513.784 1.18.784 2.002V38h-1.4v-4.242c0-.56-.164-.999-.49-1.316-.318-.327-.742-.49-1.274-.49-.374 0-.714.08-1.022.238a2.003 2.003 0 0 0-.742.686V38h-1.4zM46.507 31.085H30.386v3.758h16.12v-3.758z" fill="#000"/><path d="M33.322 42.17c-5.222 0-9.46-4.125-9.46-9.206 0-5.08 4.239-9.206 9.46-9.206a9.553 9.553 0 0 1 7.415 3.491l2.902-2.48C41.194 21.858 37.48 20 33.322 20 25.964 20 20 25.804 20 32.964S25.964 45.93 33.322 45.93c4.159 0 7.872-1.857 10.317-4.77l-2.902-2.48c-1.725 2.124-4.41 3.491-7.415 3.491z" fill="#000"/><path stroke="#F4F4F4" stroke-width="2" d="M1 64L769 64"/><g clip-path="url(#clip1_1507_58748)"><path d="M80.176 36.5v-9.8h1.68v8.344h5.222V36.5h-6.902zm18.33-4.9c0 .7-.13 1.363-.392 1.988a4.956 4.956 0 0 1-1.05 1.61 4.856 4.856 0 0 1-1.568 1.064 4.867 4.867 0 0 1-1.946.392c-.69 0-1.339-.13-1.946-.392a5.021 5.021 0 0 1-1.582-1.064 5.277 5.277 0 0 1-1.05-1.61 5.268 5.268 0 0 1-.378-1.988c0-.7.126-1.358.378-1.974a5.062 5.062 0 0 1 1.05-1.61 4.907 4.907 0 0 1 3.528-1.47c.691 0 1.34.13 1.946.392a4.75 4.75 0 0 1 1.568 1.078c.448.448.798.985 1.05 1.61.262.616.392 1.274.392 1.974zm-1.722 0c0-.504-.084-.97-.252-1.4a3.355 3.355 0 0 0-.672-1.134 3.095 3.095 0 0 0-1.022-.742 2.925 2.925 0 0 0-1.274-.28c-.457 0-.886.093-1.288.28a3.095 3.095 0 0 0-1.022.742c-.289.317-.518.695-.686 1.134-.168.43-.252.896-.252 1.4 0 .504.084.975.252 1.414.168.43.397.803.686 1.12.29.308.63.555 1.022.742.402.177.831.266 1.288.266.458 0 .882-.089 1.274-.266a3.384 3.384 0 0 0 1.022-.742c.29-.317.514-.69.672-1.12a3.92 3.92 0 0 0 .252-1.414zm12.456.7c0 .663-.098 1.265-.294 1.806a3.896 3.896 0 0 1-.826 1.358 3.63 3.63 0 0 1-1.302.868 4.561 4.561 0 0 1-1.708.308c-1.251 0-2.249-.387-2.996-1.162-.747-.784-1.12-1.843-1.12-3.178v-5.6h1.68v5.6c0 .859.224 1.545.672 2.058.448.513 1.041.77 1.778.77.737 0 1.325-.257 1.764-.77.448-.513.672-1.2.672-2.058v-5.6h1.68v5.6zm5.665 4.2l-3.808-9.8h1.806l3.01 8.106 3.038-8.106h1.736l-3.836 9.8h-1.946zm7.846 0v-9.8h4.354c.961 0 1.745.275 2.352.826.616.55.924 1.265.924 2.142 0 .635-.177 1.19-.532 1.666a2.834 2.834 0 0 1-1.4 1.022l2.058 4.144h-1.862l-1.89-3.92h-2.324v3.92h-1.68zm4.214-8.386h-2.534v3.122h2.534c.513 0 .929-.14 1.246-.42.317-.29.476-.667.476-1.134 0-.467-.159-.845-.476-1.134-.317-.29-.733-.434-1.246-.434zm5.992 8.386v-9.8h7.014v1.428h-5.334v2.73h3.724v1.4h-3.724v2.814h5.39V36.5h-7.07z" fill="#262626"/><path fill-rule="evenodd" clip-rule="evenodd" d="M149.13 29.957a.443.443 0 0 1 .626 0L153 33.2l3.244-3.244a.443.443 0 1 1 .626.626l-3.389 3.389a.676.676 0 0 1-.741.148.676.676 0 0 1-.221-.148l-3.389-3.39a.443.443 0 0 1 0-.625z" fill="#000"/></g><path d="M181 22v20" stroke="#E9E9E9"/><path d="M206.344 26.8h4.976c1.056 0 1.909.272 2.56.816.651.544.976 1.253.976 2.128 0 .555-.165 1.05-.496 1.488-.32.437-.752.768-1.296.992.661.203 1.189.539 1.584 1.008a2.48 2.48 0 0 1 .592 1.648c0 .928-.341 1.68-1.024 2.256-.683.576-1.573.864-2.672.864h-5.2V26.8zm4.784 1.568h-2.864v3.136h2.864c.544 0 .981-.139 1.312-.416.331-.288.496-.672.496-1.152 0-.48-.165-.859-.496-1.136-.331-.288-.768-.432-1.312-.432zm.192 8.064c.597 0 1.077-.155 1.44-.464.363-.32.544-.741.544-1.264s-.181-.939-.544-1.248c-.363-.31-.843-.464-1.44-.464h-3.056v3.44h3.056zm6.837-8.08a1.12 1.12 0 0 1-.8-.32 1.064 1.064 0 0 1-.32-.784c0-.299.112-.56.336-.784.224-.224.485-.336.784-.336.309 0 .576.112.8.336.224.224.336.485.336.784 0 .31-.112.57-.336.784-.214.213-.48.32-.8.32zm.912 1.632V38h-1.808v-8.016h1.808zm4.031-3.728V38h-1.808V26.56l1.808-.304zM231.051 38v-1.072a2.812 2.812 0 0 1-1.072.848 3.204 3.204 0 0 1-1.392.304c-.501 0-.976-.107-1.424-.32a3.745 3.745 0 0 1-1.168-.864 4.481 4.481 0 0 1-.768-1.296 4.676 4.676 0 0 1-.272-1.6c0-.565.096-1.099.288-1.6.192-.501.453-.933.784-1.296.341-.363.741-.65 1.2-.864.459-.213.949-.32 1.472-.32.459 0 .885.096 1.28.288.405.181.757.437 1.056.768V26.56l1.808-.304V38h-1.792zm-4.304-4c0 .725.229 1.333.688 1.824a2.23 2.23 0 0 0 1.696.736c.384 0 .736-.075 1.056-.224.331-.15.613-.368.848-.656v-3.376a2.468 2.468 0 0 0-.848-.624 2.395 2.395 0 0 0-1.056-.24c-.683 0-1.253.245-1.712.736-.448.48-.672 1.088-.672 1.824zm15.238 2.976a5.295 5.295 0 0 1-1.504.896 4.67 4.67 0 0 1-1.68.288 4.04 4.04 0 0 1-2.896-1.2 4.192 4.192 0 0 1-.864-1.328 4.188 4.188 0 0 1-.32-1.632c0-.587.096-1.13.288-1.632.202-.512.474-.95.816-1.312a3.839 3.839 0 0 1 1.248-.88c.48-.213.997-.32 1.552-.32.544 0 1.045.107 1.504.32.469.203.869.485 1.2.848.341.363.608.8.8 1.312.192.501.288 1.05.288 1.648v.448h-5.92c.085.63.352 1.152.8 1.568.458.416.992.624 1.6.624.373 0 .725-.064 1.056-.192.341-.139.624-.325.848-.56l1.184 1.104zm-3.376-5.648c-.534 0-.987.181-1.36.544-.374.363-.614.848-.72 1.456h4.176c-.107-.587-.352-1.067-.736-1.44a1.853 1.853 0 0 0-1.36-.56zm5.01 5.744l.848-1.216c.522.33.981.565 1.376.704a3.59 3.59 0 0 0 1.2.208c.48 0 .869-.096 1.168-.288.298-.203.448-.464.448-.784a.685.685 0 0 0-.272-.576c-.171-.15-.448-.261-.832-.336l-1.424-.24c-.768-.139-1.35-.39-1.744-.752-.384-.373-.576-.859-.576-1.456 0-.747.282-1.344.848-1.792.576-.459 1.328-.688 2.256-.688.554 0 1.088.08 1.6.24.522.15 1.04.39 1.552.72L249.219 32a4.818 4.818 0 0 0-1.216-.576 3.87 3.87 0 0 0-1.2-.192c-.416 0-.752.085-1.008.256a.772.772 0 0 0-.368.688c0 .256.08.448.24.576.17.128.469.23.896.304l1.408.256c.8.15 1.392.41 1.776.784.394.373.592.859.592 1.456 0 .363-.086.704-.256 1.024-.16.32-.39.597-.688.832a3.344 3.344 0 0 1-1.04.56 4.131 4.131 0 0 1-1.28.192c-.694 0-1.339-.09-1.936-.272a4.606 4.606 0 0 1-1.52-.816zm8.102 1.008l1.024-1.248a3.855 3.855 0 0 1-.768-1.28 4.449 4.449 0 0 1-.272-1.552 4.148 4.148 0 0 1 1.152-2.944 3.974 3.974 0 0 1 1.28-.88 4.044 4.044 0 0 1 1.6-.32c.427 0 .827.059 1.2.176.373.117.72.277 1.04.48l.496-.608h1.28l-1.04 1.248c.331.363.587.79.768 1.28.192.49.288 1.013.288 1.568 0 .587-.107 1.136-.32 1.648a3.989 3.989 0 0 1-.848 1.328c-.352.363-.779.65-1.28.864a3.932 3.932 0 0 1-1.584.32c-.427 0-.832-.059-1.216-.176a4.063 4.063 0 0 1-1.04-.496l-.496.592h-1.264zm1.776-4.064c0 .277.032.544.096.8.064.245.155.47.272.672l3.072-3.712a2.098 2.098 0 0 0-1.2-.368 2.05 2.05 0 0 0-1.616.736c-.416.49-.624 1.115-.624 1.872zm2.24 2.576c.651 0 1.184-.245 1.6-.736.427-.49.64-1.104.64-1.84 0-.288-.037-.56-.112-.816a2.659 2.659 0 0 0-.272-.688l-3.072 3.712a2.098 2.098 0 0 0 1.216.368zM261.636 38V26.56l1.808-.304v7.152l3.328-3.424h2.064l-3.664 3.712L269.06 38h-2.32l-3.296-3.696V38h-1.808z" fill="#262626"/><g clip-path="url(#clip2_1507_58748)"><path transform="translate(1 65)" fill="#fff" d="M0 0H64V960H0z"/><circle cx="33" cy="105" r="24" stroke="#000"/><path fill-rule="evenodd" clip-rule="evenodd" d="M37.203 110.263a9.823 9.823 0 0 1-2.552 1.581c-4.988 2.12-10.75-.205-12.87-5.193-2.119-4.988.206-10.75 5.194-12.87 4.988-2.12 10.75.206 12.87 5.193a9.812 9.812 0 0 1-1.581 10.228l6.516 6.518a.75.75 0 0 1-1.06 1.061l-6.517-6.518zm-14.04-4.199a8.313 8.313 0 1 1 15.3-6.503 8.313 8.313 0 0 1-15.3 6.503z" fill="#000"/><path fill-rule="evenodd" clip-rule="evenodd" d="M25.25 102a.75.75 0 0 1 .75.75 5.25 5.25 0 0 0 5.25 5.25.75.75 0 0 1 0 1.5 6.75 6.75 0 0 1-6.75-6.75.75.75 0 0 1 .75-.75z" fill="#29D305"/><path d="M32.251 180.75a.75.75 0 0 0 1.5 0v-10.19l3.22 3.22a.749.749 0 1 0 1.06-1.06l-4.499-4.499a.754.754 0 0 0-.257-.169l-.013-.004a.731.731 0 0 0-.522 0l-.025.009a.74.74 0 0 0-.245.163l-4.499 4.5a.743.743 0 0 0-.22.53c0 .2.078.389.22.53a.746.746 0 0 0 1.06.001l3.22-3.22v10.189z" fill="#000"/><path d="M21.001 182.25a3.754 3.754 0 0 0 3.75 3.75h16.5a3.754 3.754 0 0 0 3.75-3.75v-1.5a.75.75 0 0 0-1.5 0v1.5a2.252 2.252 0 0 1-2.25 2.25h-16.5a2.252 2.252 0 0 1-2.25-2.25v-1.5a.75.75 0 0 0-1.5 0v1.5z" fill="#000"/><path fill="#fff" d="M1 783H65V855H1z"/><path d="M45 970.5a.75.75 0 0 0-1.5 0v21a.75.75 0 0 0 1.5 0v-21zm-9.53 6.22a.75.75 0 0 1 1.06 0l3.75 3.75a.742.742 0 0 1 .22.53.746.746 0 0 1-.22.53l-3.75 3.75a.75.75 0 1 1-1.06-1.06l2.47-2.47H21.75a.75.75 0 0 1 0-1.5h16.19l-2.47-2.47a.75.75 0 0 1 0-1.06z" fill="#000"/><path stroke="#F4F4F4" stroke-width="2" d="M65 65L65 1025"/></g><path d="M137 548c0-13.255 10.745-24 24-24h120c13.255 0 24 10.745 24 24s-10.745 24-24 24H161c-13.255 0-24-10.745-24-24z" fill="#000"/><path fill-rule="evenodd" clip-rule="evenodd" d="M195.019 536.79c5.023-2.135 10.826.207 12.961 5.229a9.88 9.88 0 0 1-1.364 10.023l6.057 6.058a1.112 1.112 0 1 1-1.573 1.574l-6.057-6.057a9.936 9.936 0 0 1-2.293 1.363c-5.023 2.134-10.825-.207-12.96-5.23-2.135-5.023.207-10.825 5.229-12.96zm10.912 6.1a7.657 7.657 0 1 0-1.685 8.464l.052-.056.056-.052a7.658 7.658 0 0 0 1.577-8.356z" fill="#fff"/><path d="M194 544a1 1 0 0 0-1 1 7 7 0 0 0 7 7 1 1 0 0 0 0-2 5 5 0 0 1-5-5 1 1 0 0 0-1-1z" fill="#29D305"/><path d="M221.412 551.912l1.152-1.332c.684.66 1.38 1.158 2.088 1.494.72.324 1.47.486 2.25.486.9 0 1.632-.198 2.196-.594.576-.396.864-.9.864-1.512 0-.552-.198-.978-.594-1.278-.396-.312-1.05-.546-1.962-.702l-2.106-.342c-1.152-.192-2.016-.558-2.592-1.098-.564-.552-.846-1.278-.846-2.178 0-1.092.426-1.968 1.278-2.628.852-.66 1.974-.99 3.366-.99.9 0 1.794.15 2.682.45a7.744 7.744 0 0 1 2.394 1.26l-1.044 1.44c-.684-.516-1.368-.9-2.052-1.152a5.709 5.709 0 0 0-2.07-.396c-.816 0-1.476.174-1.98.522-.504.348-.756.798-.756 1.35 0 .516.174.912.522 1.188.348.264.924.462 1.728.594l2.034.324c1.32.216 2.292.612 2.916 1.188.636.564.954 1.332.954 2.304 0 .576-.12 1.104-.36 1.584s-.582.888-1.026 1.224c-.432.336-.96.6-1.584.792-.624.18-1.308.27-2.052.27a7.411 7.411 0 0 1-2.916-.594 7.754 7.754 0 0 1-2.484-1.674zm11.97 2.088l1.062-1.278a4.783 4.783 0 0 1-.972-1.476 4.943 4.943 0 0 1-.342-1.836c0-.66.12-1.278.36-1.854a4.62 4.62 0 0 1 1.026-1.512 4.638 4.638 0 0 1 1.512-1.008 4.702 4.702 0 0 1 1.872-.378 4.838 4.838 0 0 1 2.61.756l.486-.576h1.404l-1.062 1.26c.408.432.726.93.954 1.494.24.564.36 1.17.36 1.818 0 .672-.126 1.302-.378 1.89a4.638 4.638 0 0 1-1.008 1.512c-.42.42-.924.756-1.512 1.008-.576.24-1.194.36-1.854.36-.48 0-.948-.066-1.404-.198a5.124 5.124 0 0 1-1.242-.576l-.486.594h-1.386zm1.512-4.59c0 .372.054.732.162 1.08.12.348.282.654.486.918l3.906-4.716a2.708 2.708 0 0 0-.738-.324 2.546 2.546 0 0 0-.81-.126c-.828 0-1.536.306-2.124.918-.588.612-.882 1.362-.882 2.25zm3.006 3.186c.828 0 1.53-.306 2.106-.918.588-.624.882-1.38.882-2.268 0-.372-.06-.726-.18-1.062a2.883 2.883 0 0 0-.468-.918l-3.924 4.698c.228.156.474.276.738.36.276.072.558.108.846.108zm6.455 1.404v-12.6l1.8-.396v7.866l4.446-4.032h2.106l-4.716 4.302 4.968 4.86h-2.376l-4.428-4.32V554h-1.8zM137 440a4 4 0 0 1 4-4h488a4 4 0 0 1 4 4v40a4 4 0 0 1-4 4H141a4 4 0 0 1-4-4v-40z" fill="#fff"/><path d="M154.246 465v-9.8h3.248c.719 0 1.377.126 1.974.378a4.618 4.618 0 0 1 1.554 1.036c.429.429.765.947 1.008 1.554.243.597.364 1.241.364 1.932 0 .691-.121 1.339-.364 1.946a4.58 4.58 0 0 1-.994 1.554c-.429.429-.947.77-1.554 1.022a5.132 5.132 0 0 1-1.988.378h-3.248zm3.318-8.834h-2.24v7.868h2.24a3.69 3.69 0 0 0 1.47-.294 3.835 3.835 0 0 0 1.19-.826c.336-.355.597-.77.784-1.246a4.146 4.146 0 0 0 .294-1.568c0-.56-.098-1.078-.294-1.554a3.636 3.636 0 0 0-.784-1.246 3.541 3.541 0 0 0-1.19-.826 3.55 3.55 0 0 0-1.47-.308zm6.672 8.834v-6.832h1.022v1.386c.177-.476.429-.845.756-1.106a1.777 1.777 0 0 1 1.148-.406c.121 0 .233.009.336.028.102.009.205.033.308.07v.924a2.157 2.157 0 0 0-.364-.084 1.767 1.767 0 0 0-1.456.322c-.308.243-.551.583-.728 1.022V465h-1.022zm5.439-8.512a.753.753 0 0 1-.532-.21.751.751 0 0 1-.21-.532c0-.196.07-.364.21-.504a.73.73 0 0 1 .532-.224c.196 0 .364.075.504.224.15.14.224.308.224.504 0 .205-.07.383-.21.532a.703.703 0 0 1-.518.21zm.504 1.68V465h-1.022v-6.832h1.022zm1.438 0h1.526v-1.498c0-.672.177-1.19.532-1.554.354-.364.858-.546 1.512-.546.186 0 .354.014.504.042.158.019.298.047.42.084v.924a4.45 4.45 0 0 0-.42-.084 1.815 1.815 0 0 0-.406-.042c-.392 0-.677.098-.854.294-.178.196-.266.495-.266.896v1.484h1.946v.84h-1.946V465h-1.022v-5.992h-1.526v-.84zm6.788 5.292v-4.452h-1.414v-.84h1.414v-1.876l1.022-.238v2.114h1.96v.84h-1.96v4.186c0 .364.075.625.224.784.159.159.415.238.77.238.177 0 .336-.014.476-.042.14-.028.303-.075.49-.14v.91a3.04 3.04 0 0 1-.588.14 4.45 4.45 0 0 1-.602.042c-.588 0-1.036-.14-1.344-.42-.299-.289-.448-.705-.448-1.246zm3.958.658l.546-.672c.401.299.774.518 1.12.658.354.131.714.196 1.078.196.494 0 .905-.117 1.232-.35.326-.233.49-.527.49-.882 0-.28-.098-.499-.294-.658-.196-.159-.509-.28-.938-.364l-1.12-.196c-.663-.121-1.153-.327-1.47-.616-.308-.289-.462-.681-.462-1.176 0-.588.228-1.069.686-1.442.466-.373 1.059-.56 1.778-.56.466 0 .91.07 1.33.21.42.14.844.355 1.274.644l-.504.714a3.859 3.859 0 0 0-1.064-.546 3.32 3.32 0 0 0-1.078-.182c-.448 0-.808.098-1.078.294a.933.933 0 0 0-.406.798c0 .28.084.495.252.644.177.149.485.261.924.336l1.148.21c.681.121 1.18.331 1.498.63.326.299.49.7.49 1.204 0 .588-.257 1.087-.77 1.498-.504.411-1.134.616-1.89.616-.56 0-1.078-.084-1.554-.252a3.44 3.44 0 0 1-1.218-.756zm6.988.882v-6.832h1.022v1.064c.261-.392.56-.686.896-.882a2.209 2.209 0 0 1 1.134-.294c.476 0 .896.121 1.26.364.373.243.653.565.84.966.261-.439.583-.77.966-.994a2.554 2.554 0 0 1 1.316-.336c.681 0 1.236.238 1.666.714.438.467.658 1.073.658 1.82V465h-1.022v-4.158c0-.588-.154-1.055-.462-1.4-.299-.355-.705-.532-1.218-.532-.355 0-.677.089-.966.266-.29.177-.537.448-.742.812a3.15 3.15 0 0 1 .056.602V465h-1.022v-4.158c0-.588-.154-1.055-.462-1.4-.308-.355-.719-.532-1.232-.532-.346 0-.658.084-.938.252-.28.168-.523.42-.728.756V465h-1.022zm17.468-.784a4.303 4.303 0 0 1-1.218.686 3.99 3.99 0 0 1-1.344.224c-.476 0-.924-.089-1.344-.266a3.521 3.521 0 0 1-1.078-.756 3.636 3.636 0 0 1-.714-1.12 3.88 3.88 0 0 1-.252-1.4c0-.495.079-.957.238-1.386a3.38 3.38 0 0 1 .686-1.12c.289-.317.63-.565 1.022-.742.392-.187.817-.28 1.274-.28.448 0 .863.089 1.246.266.383.177.714.42.994.728.28.299.499.663.658 1.092.159.42.238.873.238 1.358v.308h-5.362c.047.691.303 1.269.77 1.736a2.3 2.3 0 0 0 1.666.686 2.92 2.92 0 0 0 1.022-.182c.336-.131.621-.303.854-.518l.644.686zm-2.744-5.278c-.56 0-1.041.201-1.442.602-.401.401-.649.915-.742 1.54h4.326c-.075-.616-.313-1.125-.714-1.526a1.9 1.9 0 0 0-1.428-.616zM208.97 465v-6.832h1.022v1.386c.177-.476.429-.845.756-1.106a1.779 1.779 0 0 1 1.148-.406c.121 0 .233.009.336.028.103.009.205.033.308.07v.924a2.135 2.135 0 0 0-.364-.084 1.767 1.767 0 0 0-1.456.322c-.308.243-.551.583-.728 1.022V465h-1.022zm4.922 0v-10.01l1.022-.21v6.454l3.248-3.066h1.232l-3.472 3.248 3.626 3.584h-1.344l-3.29-3.262V465h-1.022zm7.367-8.512a.753.753 0 0 1-.532-.21.751.751 0 0 1-.21-.532c0-.196.07-.364.21-.504a.73.73 0 0 1 .532-.224c.196 0 .364.075.504.224.15.14.224.308.224.504 0 .205-.07.383-.21.532a.703.703 0 0 1-.518.21zm.504 1.68V465h-1.022v-6.832h1.022zm2.096 6.832v-6.832h1.022v1.106c.261-.401.574-.705.938-.91a2.465 2.465 0 0 1 1.232-.308c.728 0 1.32.233 1.778.7.466.467.7 1.073.7 1.82V465h-1.022v-4.13c0-.597-.168-1.073-.504-1.428-.327-.355-.77-.532-1.33-.532-.374 0-.714.089-1.022.266a2.139 2.139 0 0 0-.77.784V465h-1.022zm10.566.084c-.438 0-.854-.089-1.246-.266a3.276 3.276 0 0 1-.994-.742 3.728 3.728 0 0 1-.672-1.12 3.941 3.941 0 0 1-.238-1.372c0-.485.08-.943.238-1.372.168-.429.397-.798.686-1.106.29-.317.63-.565 1.022-.742.392-.187.812-.28 1.26-.28.43 0 .826.084 1.19.252.364.159.682.397.952.714v-.882h1.008v7.182c0 .84-.252 1.489-.756 1.946-.494.457-1.204.686-2.128.686-.457 0-.919-.065-1.386-.196a5.28 5.28 0 0 1-1.274-.518l.434-.784c.42.215.803.373 1.148.476.346.103.691.154 1.036.154.616 0 1.088-.149 1.414-.448.327-.299.49-.733.49-1.302v-1.288a2.66 2.66 0 0 1-.952.756 2.967 2.967 0 0 1-1.232.252zm-2.142-3.5c0 .747.229 1.372.686 1.876a2.231 2.231 0 0 0 1.708.742c.402 0 .77-.079 1.106-.238.336-.168.612-.397.826-.686v-3.374a2.25 2.25 0 0 0-.854-.672 2.377 2.377 0 0 0-1.078-.252c-.681 0-1.25.247-1.708.742-.457.495-.686 1.115-.686 1.862zm7.617 2.38h1.092l-1.134 3.234h-.798l.84-3.234zm6.175 1.036v-6.832h1.022v1.106c.262-.401.574-.705.938-.91a2.468 2.468 0 0 1 1.232-.308c.728 0 1.321.233 1.778.7.467.467.7 1.073.7 1.82V465h-1.022v-4.13c0-.597-.168-1.073-.504-1.428-.326-.355-.77-.532-1.33-.532-.373 0-.714.089-1.022.266a2.147 2.147 0 0 0-.77.784V465h-1.022zm13.367-.784a4.303 4.303 0 0 1-1.218.686 3.99 3.99 0 0 1-1.344.224c-.476 0-.924-.089-1.344-.266a3.521 3.521 0 0 1-1.078-.756 3.636 3.636 0 0 1-.714-1.12 3.88 3.88 0 0 1-.252-1.4c0-.495.079-.957.238-1.386a3.38 3.38 0 0 1 .686-1.12c.289-.317.63-.565 1.022-.742.392-.187.817-.28 1.274-.28.448 0 .863.089 1.246.266.383.177.714.42.994.728.28.299.499.663.658 1.092.159.42.238.873.238 1.358v.308h-5.362c.047.691.303 1.269.77 1.736a2.3 2.3 0 0 0 1.666.686 2.92 2.92 0 0 0 1.022-.182c.336-.131.621-.303.854-.518l.644.686zm-2.744-5.278c-.56 0-1.041.201-1.442.602-.401.401-.649.915-.742 1.54h4.326c-.075-.616-.313-1.125-.714-1.526a1.9 1.9 0 0 0-1.428-.616zm5.502 4.522v-4.452h-1.414v-.84h1.414v-1.876l1.022-.238v2.114h1.96v.84h-1.96v4.186c0 .364.075.625.224.784.159.159.415.238.77.238.177 0 .336-.014.476-.042.14-.028.303-.075.49-.14v.91a3.04 3.04 0 0 1-.588.14 4.45 4.45 0 0 1-.602.042c-.588 0-1.036-.14-1.344-.42-.299-.289-.448-.705-.448-1.246zm5.428 0v-4.452h-1.414v-.84h1.414v-1.876l1.022-.238v2.114h1.96v.84h-1.96v4.186c0 .364.074.625.224.784.158.159.415.238.77.238.177 0 .336-.014.476-.042.14-.028.303-.075.49-.14v.91a3.04 3.04 0 0 1-.588.14 4.461 4.461 0 0 1-.602.042c-.588 0-1.036-.14-1.344-.42-.299-.289-.448-.705-.448-1.246zm3.957.658l.546-.672c.402.299.775.518 1.12.658a3.09 3.09 0 0 0 1.078.196c.495 0 .906-.117 1.232-.35.327-.233.49-.527.49-.882 0-.28-.098-.499-.294-.658-.196-.159-.508-.28-.938-.364l-1.12-.196c-.662-.121-1.152-.327-1.47-.616-.308-.289-.462-.681-.462-1.176 0-.588.229-1.069.686-1.442.467-.373 1.06-.56 1.778-.56.467 0 .91.07 1.33.21.42.14.845.355 1.274.644l-.504.714a3.831 3.831 0 0 0-1.064-.546 3.316 3.316 0 0 0-1.078-.182c-.448 0-.807.098-1.078.294a.936.936 0 0 0-.406.798c0 .28.084.495.252.644.178.149.486.261.924.336l1.148.21c.682.121 1.181.331 1.498.63.327.299.49.7.49 1.204 0 .588-.256 1.087-.77 1.498-.504.411-1.134.616-1.89.616-.56 0-1.078-.084-1.554-.252a3.44 3.44 0 0 1-1.218-.756zm7.664-.658v-4.452h-1.414v-.84h1.414v-1.876l1.022-.238v2.114h1.96v.84h-1.96v4.186c0 .364.074.625.224.784.158.159.415.238.77.238.177 0 .336-.014.476-.042.14-.028.303-.075.49-.14v.91a3.04 3.04 0 0 1-.588.14 4.461 4.461 0 0 1-.602.042c-.588 0-1.036-.14-1.344-.42-.299-.289-.448-.705-.448-1.246zm6.593 1.666c-.728 0-1.326-.191-1.792-.574-.458-.392-.686-.896-.686-1.512 0-.607.233-1.097.7-1.47.476-.373 1.096-.56 1.862-.56.392 0 .76.047 1.106.14.354.084.681.215.98.392v-.938c0-.56-.15-.98-.448-1.26-.299-.289-.738-.434-1.316-.434-.318 0-.644.047-.98.14a6.132 6.132 0 0 0-1.092.448l-.378-.784c.466-.224.91-.387 1.33-.49.42-.112.835-.168 1.246-.168.84 0 1.488.21 1.946.63.466.411.7 1.003.7 1.778V465h-1.008v-.798c-.299.308-.63.541-.994.7a3.074 3.074 0 0 1-1.176.224zm-1.498-2.114c0 .401.158.723.476.966.317.243.728.364 1.232.364a2.73 2.73 0 0 0 1.05-.196 2.94 2.94 0 0 0 .91-.588v-1.316a3.371 3.371 0 0 0-.896-.364 3.942 3.942 0 0 0-1.036-.126c-.523 0-.943.117-1.26.35-.318.233-.476.537-.476.91zm6.095 1.106l.546-.672c.401.299.775.518 1.12.658a3.09 3.09 0 0 0 1.078.196c.495 0 .905-.117 1.232-.35.327-.233.49-.527.49-.882 0-.28-.098-.499-.294-.658-.196-.159-.509-.28-.938-.364l-1.12-.196c-.663-.121-1.153-.327-1.47-.616-.308-.289-.462-.681-.462-1.176 0-.588.229-1.069.686-1.442.467-.373 1.059-.56 1.778-.56.467 0 .91.07 1.33.21.42.14.845.355 1.274.644l-.504.714a3.845 3.845 0 0 0-1.064-.546 3.32 3.32 0 0 0-1.078-.182c-.448 0-.807.098-1.078.294a.933.933 0 0 0-.406.798c0 .28.084.495.252.644.177.149.485.261.924.336l1.148.21c.681.121 1.181.331 1.498.63.327.299.49.7.49 1.204 0 .588-.257 1.087-.77 1.498-.504.411-1.134.616-1.89.616-.56 0-1.078-.084-1.554-.252a3.44 3.44 0 0 1-1.218-.756zm7.506-7.63a.751.751 0 0 1-.532-.21.72.72 0 0 1-.21-.532c0-.196.07-.364.21-.504a.728.728 0 0 1 .532-.224c.196 0 .364.075.504.224.149.14.224.308.224.504a.72.72 0 0 1-.728.742zm-1.218 11.494c-.112 0-.224-.009-.336-.028-.103-.019-.201-.037-.294-.056v-.882a2.207 2.207 0 0 0 .504.056c.289 0 .499-.07.63-.21.131-.14.196-.369.196-.686v-8.008h1.022v8.064c0 .551-.149.98-.448 1.288-.289.308-.714.462-1.274.462zm3.509-6.398c0-.504.084-.971.252-1.4.168-.429.397-.803.686-1.12a3.169 3.169 0 0 1 1.064-.742 3.29 3.29 0 0 1 1.316-.266c.476 0 .915.089 1.316.266.411.177.765.425 1.064.742.299.317.532.691.7 1.12.168.429.252.896.252 1.4 0 .504-.089.975-.266 1.414a3.404 3.404 0 0 1-.7 1.134 3.287 3.287 0 0 1-1.05.742 3.29 3.29 0 0 1-1.316.266 3.29 3.29 0 0 1-1.316-.266 3.41 3.41 0 0 1-1.05-.756 3.795 3.795 0 0 1-.7-1.12 3.921 3.921 0 0 1-.252-1.414zm3.318 2.646c.663 0 1.213-.247 1.652-.742.448-.504.672-1.134.672-1.89s-.224-1.386-.672-1.89a2.098 2.098 0 0 0-1.652-.756c-.663 0-1.213.252-1.652.756-.439.504-.658 1.134-.658 1.89s.219 1.386.658 1.89c.439.495.989.742 1.652.742zm5.125.77v-6.832h1.022v1.106c.261-.401.574-.705.938-.91a2.468 2.468 0 0 1 1.232-.308c.728 0 1.321.233 1.778.7.467.467.7 1.073.7 1.82V465h-1.022v-4.13c0-.597-.168-1.073-.504-1.428-.327-.355-.77-.532-1.33-.532-.373 0-.714.089-1.022.266a2.139 2.139 0 0 0-.77.784V465h-1.022zm7.893-1.036h1.092l-1.134 3.234h-.798l.84-3.234zm8.289 1.162c-.728 0-1.325-.191-1.792-.574-.457-.392-.686-.896-.686-1.512 0-.607.234-1.097.7-1.47.476-.373 1.097-.56 1.862-.56.392 0 .761.047 1.106.14.355.084.682.215.98.392v-.938c0-.56-.149-.98-.448-1.26-.298-.289-.737-.434-1.316-.434a3.67 3.67 0 0 0-.98.14c-.326.093-.69.243-1.092.448l-.378-.784c.467-.224.91-.387 1.33-.49.42-.112.836-.168 1.246-.168.84 0 1.489.21 1.946.63.467.411.7 1.003.7 1.778V465h-1.008v-.798c-.298.308-.63.541-.994.7a3.074 3.074 0 0 1-1.176.224zm-1.498-2.114c0 .401.159.723.476.966.318.243.728.364 1.232.364.383 0 .733-.065 1.05-.196.327-.131.63-.327.91-.588v-1.316a3.358 3.358 0 0 0-.896-.364 3.936 3.936 0 0 0-1.036-.126c-.522 0-.942.117-1.26.35-.317.233-.476.537-.476.91zm6.753 1.988v-6.832h1.022v1.386c.178-.476.43-.845.756-1.106a1.779 1.779 0 0 1 1.148-.406c.122 0 .234.009.336.028.103.009.206.033.308.07v.924a2.135 2.135 0 0 0-.364-.084 1.77 1.77 0 0 0-1.456.322c-.308.243-.55.583-.728 1.022V465h-1.022zm11.292-3.416c0 .495-.084.957-.252 1.386a3.36 3.36 0 0 1-.672 1.12c-.289.308-.63.555-1.022.742a3.026 3.026 0 0 1-1.26.266c-.429 0-.83-.084-1.204-.252a2.929 2.929 0 0 1-.952-.742V465h-1.008v-10.01l1.022-.21v4.326c.262-.317.579-.565.952-.742.374-.187.789-.28 1.246-.28.439 0 .85.093 1.232.28.392.177.728.425 1.008.742.28.308.5.677.658 1.106.168.429.252.887.252 1.372zm-3.402-2.604a2.53 2.53 0 0 0-1.12.252 2.112 2.112 0 0 0-.826.686v3.346c.224.299.504.532.84.7.346.168.714.252 1.106.252.682 0 1.251-.247 1.708-.742.458-.504.686-1.129.686-1.876 0-.747-.228-1.367-.686-1.862a2.21 2.21 0 0 0-1.708-.756zm10.85 5.236a4.303 4.303 0 0 1-1.218.686 3.99 3.99 0 0 1-1.344.224c-.476 0-.924-.089-1.344-.266a3.521 3.521 0 0 1-1.078-.756 3.636 3.636 0 0 1-.714-1.12 3.88 3.88 0 0 1-.252-1.4c0-.495.079-.957.238-1.386a3.38 3.38 0 0 1 .686-1.12c.289-.317.63-.565 1.022-.742.392-.187.817-.28 1.274-.28.448 0 .863.089 1.246.266.383.177.714.42.994.728.28.299.499.663.658 1.092.159.42.238.873.238 1.358v.308H343.9c.047.691.303 1.269.77 1.736a2.3 2.3 0 0 0 1.666.686 2.92 2.92 0 0 0 1.022-.182c.336-.131.621-.303.854-.518l.644.686zm-2.744-5.278c-.56 0-1.041.201-1.442.602-.401.401-.649.915-.742 1.54h4.326c-.075-.616-.313-1.125-.714-1.526a1.9 1.9 0 0 0-1.428-.616zm5.413-2.45a.751.751 0 0 1-.532-.21.751.751 0 0 1-.21-.532c0-.196.07-.364.21-.504a.728.728 0 0 1 .532-.224c.196 0 .364.075.504.224.149.14.224.308.224.504 0 .205-.07.383-.21.532a.704.704 0 0 1-.518.21zm.504 1.68V465h-1.022v-6.832h1.022zM359.15 465v-.91a2.66 2.66 0 0 1-.952.756 2.967 2.967 0 0 1-1.232.252c-.438 0-.854-.089-1.246-.266a3.276 3.276 0 0 1-.994-.742 3.728 3.728 0 0 1-.672-1.12 3.941 3.941 0 0 1-.238-1.372c0-.495.08-.957.238-1.386.168-.429.397-.798.686-1.106.29-.317.63-.565 1.022-.742.392-.187.812-.28 1.26-.28.42 0 .812.084 1.176.252.364.159.682.392.952.7v-4.046l1.022-.21V465h-1.022zm-4.326-3.416c0 .747.229 1.372.686 1.876a2.231 2.231 0 0 0 1.708.742c.402 0 .77-.079 1.106-.238.336-.159.612-.383.826-.672v-3.388a2.25 2.25 0 0 0-.854-.672 2.377 2.377 0 0 0-1.078-.252c-.681 0-1.25.247-1.708.742-.457.495-.686 1.115-.686 1.862zm6.791 2.534l.546-.672c.401.299.774.518 1.12.658.354.131.714.196 1.078.196.494 0 .905-.117 1.232-.35.326-.233.49-.527.49-.882 0-.28-.098-.499-.294-.658-.196-.159-.509-.28-.938-.364l-1.12-.196c-.663-.121-1.153-.327-1.47-.616-.308-.289-.462-.681-.462-1.176 0-.588.228-1.069.686-1.442.466-.373 1.059-.56 1.778-.56.466 0 .91.07 1.33.21.42.14.844.355 1.274.644l-.504.714a3.859 3.859 0 0 0-1.064-.546 3.32 3.32 0 0 0-1.078-.182c-.448 0-.808.098-1.078.294a.933.933 0 0 0-.406.798c0 .28.084.495.252.644.177.149.485.261.924.336l1.148.21c.681.121 1.18.331 1.498.63.326.299.49.7.49 1.204 0 .588-.257 1.087-.77 1.498-.504.411-1.134.616-1.89.616-.56 0-1.078-.084-1.554-.252a3.44 3.44 0 0 1-1.218-.756zm6.748-2.534c0-.504.084-.971.252-1.4.168-.429.397-.803.686-1.12a3.169 3.169 0 0 1 1.064-.742 3.29 3.29 0 0 1 1.316-.266c.476 0 .915.089 1.316.266.411.177.765.425 1.064.742.299.317.532.691.7 1.12.168.429.252.896.252 1.4 0 .504-.089.975-.266 1.414a3.404 3.404 0 0 1-.7 1.134 3.287 3.287 0 0 1-1.05.742 3.29 3.29 0 0 1-1.316.266 3.29 3.29 0 0 1-1.316-.266 3.41 3.41 0 0 1-1.05-.756 3.795 3.795 0 0 1-.7-1.12 3.921 3.921 0 0 1-.252-1.414zm3.318 2.646c.663 0 1.213-.247 1.652-.742.448-.504.672-1.134.672-1.89s-.224-1.386-.672-1.89a2.098 2.098 0 0 0-1.652-.756c-.663 0-1.213.252-1.652.756-.439.504-.658 1.134-.658 1.89s.219 1.386.658 1.89c.439.495.989.742 1.652.742zm5.125.77v-6.832h1.022v1.386c.177-.476.429-.845.756-1.106a1.779 1.779 0 0 1 1.148-.406c.121 0 .233.009.336.028.103.009.205.033.308.07v.924a2.135 2.135 0 0 0-.364-.084 1.767 1.767 0 0 0-1.456.322c-.308.243-.551.583-.728 1.022V465h-1.022zm9.51 0v-.91a2.66 2.66 0 0 1-.952.756 2.967 2.967 0 0 1-1.232.252c-.438 0-.854-.089-1.246-.266a3.276 3.276 0 0 1-.994-.742 3.728 3.728 0 0 1-.672-1.12 3.941 3.941 0 0 1-.238-1.372c0-.495.08-.957.238-1.386.168-.429.397-.798.686-1.106.29-.317.63-.565 1.022-.742.392-.187.812-.28 1.26-.28.42 0 .812.084 1.176.252.364.159.682.392.952.7v-4.046l1.022-.21V465h-1.022zm-4.326-3.416c0 .747.229 1.372.686 1.876a2.231 2.231 0 0 0 1.708.742c.402 0 .77-.079 1.106-.238.336-.159.612-.383.826-.672v-3.388a2.25 2.25 0 0 0-.854-.672 2.377 2.377 0 0 0-1.078-.252c-.681 0-1.25.247-1.708.742-.457.495-.686 1.115-.686 1.862zm7.449 3.416v-6.832h1.022v1.386c.177-.476.429-.845.756-1.106a1.777 1.777 0 0 1 1.148-.406c.121 0 .233.009.336.028.102.009.205.033.308.07v.924a2.157 2.157 0 0 0-.364-.084 1.767 1.767 0 0 0-1.456.322c-.308.243-.551.583-.728 1.022V465h-1.022zm10.126-.784a4.303 4.303 0 0 1-1.218.686 3.99 3.99 0 0 1-1.344.224c-.476 0-.924-.089-1.344-.266a3.521 3.521 0 0 1-1.078-.756 3.636 3.636 0 0 1-.714-1.12 3.88 3.88 0 0 1-.252-1.4c0-.495.079-.957.238-1.386a3.38 3.38 0 0 1 .686-1.12c.289-.317.63-.565 1.022-.742.392-.187.817-.28 1.274-.28.448 0 .863.089 1.246.266.383.177.714.42.994.728.28.299.499.663.658 1.092.159.42.238.873.238 1.358v.308h-5.362c.047.691.303 1.269.77 1.736a2.3 2.3 0 0 0 1.666.686 2.92 2.92 0 0 0 1.022-.182c.336-.131.621-.303.854-.518l.644.686zm-2.744-5.278c-.56 0-1.041.201-1.442.602-.401.401-.649.915-.742 1.54h4.326c-.075-.616-.313-1.125-.714-1.526a1.9 1.9 0 0 0-1.428-.616zm5.03 4.648c.196 0 .364.075.504.224a.728.728 0 0 1 .224.532.743.743 0 0 1-.224.546.668.668 0 0 1-.504.224.726.726 0 0 1-.532-.224.768.768 0 0 1-.21-.546c0-.205.07-.383.21-.532a.726.726 0 0 1 .532-.224zm3.076 0c.196 0 .364.075.504.224a.728.728 0 0 1 .224.532.743.743 0 0 1-.224.546.668.668 0 0 1-.504.224.726.726 0 0 1-.532-.224.768.768 0 0 1-.21-.546c0-.205.07-.383.21-.532a.726.726 0 0 1 .532-.224zm3.076 0c.196 0 .364.075.504.224a.728.728 0 0 1 .224.532.743.743 0 0 1-.224.546.668.668 0 0 1-.504.224.728.728 0 0 1-.532-.224.768.768 0 0 1-.21-.546c0-.205.07-.383.21-.532a.728.728 0 0 1 .532-.224z" fill="#515151"/><path d="M141 437h488v-2H141v2zm491 3v40h2v-40h-2zm-3 43H141v2h488v-2zm-491-3v-40h-2v40h2zm3 3a3 3 0 0 1-3-3h-2a5 5 0 0 0 5 5v-2zm491-3a3 3 0 0 1-3 3v2a5 5 0 0 0 5-5h-2zm-3-43a3 3 0 0 1 3 3h2a5 5 0 0 0-5-5v2zm-488-2a5 5 0 0 0-5 5h2a3 3 0 0 1 3-3v-2zm529.995 41c-1.105 0-2.006-.93-2.006-2.074v-12.829c-6.59-1.768-11.495-7.828-11.984-14.879-.002-.051-.005-.097-.005-.143a2.1 2.1 0 0 1 .587-1.467 1.959 1.959 0 0 1 1.417-.608h27.992a1.96 1.96 0 0 1 1.505.707c.353.416.529.949.495 1.504 0 .004 0 .009-.002.014-.493 7.049-5.398 13.108-11.989 14.872v9.373a2.092 2.092 0 0 1-.723 1.594l-4.006 3.455c-.36.31-.814.481-1.281.481zm-11.99-29.926c.464 6.469 5.06 11.887 11.187 13.183.465.098.801.525.801 1.016v13.653l4.008-3.456v-10.197c0-.491.337-.918.802-1.016 6.14-1.296 10.742-6.718 11.193-13.186l-27.991.003zM139.775 355v-30.8h7.568v11.836h12.672V324.2h7.568V355h-7.568v-12.056h-12.672V355h-7.568zm40.218 0l-9.944-23.276h7.744l5.764 14.256 5.764-14.256h7.568L186.945 355h-6.952zm26.463.396c-2.464 0-4.488-.675-6.072-2.024-1.584-1.349-2.376-3.08-2.376-5.192 0-2.2.836-3.916 2.508-5.148 1.702-1.232 4.063-1.848 7.084-1.848.91 0 1.804.059 2.684.176.88.117 1.746.279 2.596.484V340.7c0-1.173-.381-2.039-1.144-2.596-.733-.587-1.833-.88-3.3-.88-.909 0-1.936.147-3.08.44-1.144.293-2.464.763-3.96 1.408l-2.552-5.236c1.878-.851 3.711-1.481 5.5-1.892 1.819-.44 3.608-.66 5.368-.66 3.227 0 5.735.777 7.524 2.332 1.79 1.525 2.684 3.681 2.684 6.468V355h-7.04v-1.408a9.953 9.953 0 0 1-2.992 1.408c-1.026.264-2.17.396-3.432.396zm-1.672-7.348c0 .733.323 1.305.968 1.716.646.411 1.54.616 2.684.616.851 0 1.643-.088 2.376-.264a6.809 6.809 0 0 0 2.068-.836v-2.992a16.068 16.068 0 0 0-2.068-.396 17.36 17.36 0 0 0-2.156-.132c-1.232 0-2.185.205-2.86.616-.674.381-1.012.939-1.012 1.672zm26.163 4.356l3.388-4.796c1.466.88 2.801 1.525 4.004 1.936 1.202.381 2.39.572 3.564.572 1.173 0 2.097-.161 2.772-.484.704-.352 1.056-.807 1.056-1.364 0-.44-.191-.792-.572-1.056-.382-.293-.983-.499-1.804-.616l-4.62-.704c-2.288-.352-4.048-1.115-5.28-2.288-1.232-1.203-1.848-2.757-1.848-4.664 0-2.347.894-4.195 2.684-5.544 1.789-1.349 4.238-2.024 7.348-2.024 1.672 0 3.344.249 5.016.748a17.423 17.423 0 0 1 4.708 2.068l-3.388 4.576c-1.262-.733-2.464-1.261-3.608-1.584a11.616 11.616 0 0 0-3.432-.528c-.91 0-1.643.161-2.2.484-.558.293-.836.689-.836 1.188 0 .469.205.851.616 1.144.41.264 1.114.469 2.112.616l4.62.704c2.288.323 4.048 1.085 5.28 2.288 1.261 1.173 1.892 2.669 1.892 4.488a6.421 6.421 0 0 1-.792 3.124c-.528.968-1.262 1.804-2.2 2.508-.91.704-2.01 1.261-3.3 1.672-1.291.381-2.684.572-4.18.572-2.2 0-4.254-.249-6.16-.748-1.878-.528-3.491-1.291-4.84-2.288zm45.745-.484c-1.466 1.232-2.977 2.127-4.532 2.684-1.525.557-3.256.836-5.192.836-1.76 0-3.417-.308-4.972-.924-1.554-.616-2.904-1.467-4.048-2.552a12.696 12.696 0 0 1-2.684-3.828 11.875 11.875 0 0 1-.968-4.752c0-1.672.308-3.241.924-4.708.646-1.496 1.511-2.787 2.596-3.872a11.85 11.85 0 0 1 3.828-2.552c1.496-.616 3.095-.924 4.796-.924 1.702 0 3.271.323 4.708.968a11.173 11.173 0 0 1 3.696 2.64c1.056 1.115 1.878 2.464 2.464 4.048.587 1.555.88 3.241.88 5.06v1.76H261.6a6.306 6.306 0 0 0 2.2 2.684c.998.675 2.171 1.012 3.52 1.012.968 0 1.848-.147 2.64-.44a6.058 6.058 0 0 0 2.024-1.32l4.708 4.18zm-10.384-14.784c-1.173 0-2.185.323-3.036.968-.85.645-1.452 1.555-1.804 2.728h9.724c-.381-1.115-1.012-2.009-1.892-2.684-.85-.675-1.848-1.012-2.992-1.012zM281.52 355v-23.276h7.128v2.332a8.11 8.11 0 0 1 2.684-2.112c1.027-.499 2.171-.748 3.432-.748.675.029 1.218.088 1.628.176a2.41 2.41 0 0 1 1.056.396v6.204a7.718 7.718 0 0 0-1.584-.484 7.39 7.39 0 0 0-1.804-.22 6.424 6.424 0 0 0-3.124.792 6.457 6.457 0 0 0-2.288 2.156V355h-7.128zm44.658 0v-1.716a11.175 11.175 0 0 1-2.948 1.496 10.366 10.366 0 0 1-3.3.528c-1.642 0-3.197-.308-4.664-.924a11.977 11.977 0 0 1-3.784-2.552 12.345 12.345 0 0 1-2.508-3.784c-.616-1.467-.924-3.036-.924-4.708 0-1.672.308-3.227.924-4.664.646-1.467 1.511-2.728 2.596-3.784a11.85 11.85 0 0 1 3.828-2.552 12.358 12.358 0 0 1 4.752-.924c1.086 0 2.127.132 3.124.396.998.264 1.936.645 2.816 1.144V324.2l7.128-1.54V355h-7.04zm-11.132-11.66c0 1.672.587 3.08 1.76 4.224 1.203 1.115 2.655 1.672 4.356 1.672.998 0 1.907-.147 2.728-.44a6.71 6.71 0 0 0 2.2-1.408v-8.14a6.88 6.88 0 0 0-2.2-1.32 7.617 7.617 0 0 0-2.728-.484c-1.73 0-3.182.572-4.356 1.716-1.173 1.115-1.76 2.508-1.76 4.18zm29.544-11.616V345.1c0 1.261.381 2.288 1.144 3.08.792.763 1.818 1.144 3.08 1.144.909 0 1.716-.161 2.42-.484a4.76 4.76 0 0 0 1.76-1.364v-15.752h7.128V355h-7.128v-1.584a9.742 9.742 0 0 1-2.904 1.496 10.508 10.508 0 0 1-3.345.528c-2.727 0-4.957-.88-6.687-2.64-1.731-1.76-2.596-4.004-2.596-6.732v-14.344h7.128zm49.88 20.196c-1.467 1.232-2.978 2.127-4.532 2.684-1.526.557-3.256.836-5.192.836-1.76 0-3.418-.308-4.972-.924-1.555-.616-2.904-1.467-4.048-2.552a12.661 12.661 0 0 1-2.684-3.828 11.858 11.858 0 0 1-.968-4.752c0-1.672.308-3.241.924-4.708.645-1.496 1.51-2.787 2.596-3.872a11.83 11.83 0 0 1 3.828-2.552c1.496-.616 3.094-.924 4.796-.924 1.701 0 3.27.323 4.708.968a11.193 11.193 0 0 1 3.696 2.64c1.056 1.115 1.877 2.464 2.464 4.048.586 1.555.88 3.241.88 5.06v1.76h-16.588a6.292 6.292 0 0 0 2.2 2.684c.997.675 2.17 1.012 3.52 1.012.968 0 1.848-.147 2.64-.44a6.068 6.068 0 0 0 2.024-1.32l4.708 4.18zm-10.384-14.784c-1.174 0-2.186.323-3.036.968-.851.645-1.452 1.555-1.804 2.728h9.724c-.382-1.115-1.012-2.009-1.892-2.684-.851-.675-1.848-1.012-2.992-1.012zm17.652 10.78v-10.252h-4.708v-5.94h4.708v-5.984l7.128-1.54v7.524h6.512v5.94h-6.512v8.844c0 1.027.22 1.76.66 2.2.47.411 1.276.616 2.42.616.558 0 1.086-.029 1.584-.088.499-.088 1.042-.22 1.628-.396v5.764c-.645.205-1.466.367-2.464.484-.997.147-1.833.22-2.508.22-2.786 0-4.898-.616-6.336-1.848-1.408-1.261-2.112-3.109-2.112-5.544zm20.153 0v-10.252h-4.708v-5.94h4.708v-5.984l7.128-1.54v7.524h6.512v5.94h-6.512v8.844c0 1.027.22 1.76.66 2.2.469.411 1.276.616 2.42.616.557 0 1.085-.029 1.584-.088.498-.088 1.041-.22 1.628-.396v5.764c-.646.205-1.467.367-2.464.484-.998.147-1.834.22-2.508.22-2.787 0-4.899-.616-6.336-1.848-1.408-1.261-2.112-3.109-2.112-5.544zm37.762 4.004c-1.466 1.232-2.977 2.127-4.532 2.684-1.525.557-3.256.836-5.192.836-1.76 0-3.417-.308-4.972-.924-1.554-.616-2.904-1.467-4.048-2.552a12.696 12.696 0 0 1-2.684-3.828 11.875 11.875 0 0 1-.968-4.752c0-1.672.308-3.241.924-4.708.646-1.496 1.511-2.787 2.596-3.872a11.85 11.85 0 0 1 3.828-2.552c1.496-.616 3.095-.924 4.796-.924 1.702 0 3.271.323 4.708.968a11.173 11.173 0 0 1 3.696 2.64c1.056 1.115 1.878 2.464 2.464 4.048.587 1.555.88 3.241.88 5.06v1.76h-16.588a6.306 6.306 0 0 0 2.2 2.684c.998.675 2.171 1.012 3.52 1.012.968 0 1.848-.147 2.64-.44a6.058 6.058 0 0 0 2.024-1.32l4.708 4.18zm-10.384-14.784c-1.173 0-2.185.323-3.036.968-.85.645-1.452 1.555-1.804 2.728h9.724c-.381-1.115-1.012-2.009-1.892-2.684-.85-.675-1.848-1.012-2.992-1.012zM464.481 355v-23.276h7.128v2.332a8.11 8.11 0 0 1 2.684-2.112c1.027-.499 2.171-.748 3.432-.748.675.029 1.218.088 1.628.176a2.41 2.41 0 0 1 1.056.396v6.204a7.718 7.718 0 0 0-1.584-.484 7.39 7.39 0 0 0-1.804-.22 6.424 6.424 0 0 0-3.124.792 6.457 6.457 0 0 0-2.288 2.156V355h-7.128zm33.82-14.784l-1.1.748c-.85.557-1.452 1.173-1.804 1.848-.322.645-.469 1.511-.44 2.596h-5.94c-.117-2.024.059-3.608.528-4.752.47-1.144 1.394-2.229 2.772-3.256l2.376-1.76c.734-.557 1.276-1.085 1.628-1.584.382-.499.572-.983.572-1.452 0-.851-.381-1.555-1.144-2.112-.762-.587-1.73-.88-2.904-.88-1.261 0-2.42.337-3.476 1.012-1.026.675-1.76 1.569-2.2 2.684l-5.764-2.156c.822-2.259 2.288-4.063 4.4-5.412 2.142-1.349 4.576-2.024 7.304-2.024 1.526 0 2.948.22 4.268.66 1.32.411 2.45.997 3.388 1.76.968.763 1.716 1.657 2.244 2.684a6.89 6.89 0 0 1 .836 3.344c0 1.613-.41 3.007-1.232 4.18-.792 1.144-2.229 2.435-4.312 3.872zm-6.292 7.084c1.115 0 2.068.411 2.86 1.232.822.792 1.232 1.745 1.232 2.86 0 1.115-.41 2.083-1.232 2.904-.792.792-1.745 1.188-2.86 1.188-1.114 0-2.082-.396-2.904-1.188-.792-.821-1.188-1.789-1.188-2.904s.396-2.068 1.188-2.86c.822-.821 1.79-1.232 2.904-1.232z" fill="#000"/><rect x="137.5" y="401.5" width="15" height="15" rx="7.5" fill="#29D305" stroke="#000"/><circle cx="145" cy="409" r="4.5" fill="#000"/><path d="M161.392 412.474l.658-.784c.588.551 1.139.943 1.652 1.176.523.233 1.101.35 1.736.35.756 0 1.381-.187 1.876-.56.495-.383.742-.854.742-1.414 0-.485-.168-.859-.504-1.12-.327-.261-.887-.462-1.68-.602l-1.582-.266c-.896-.159-1.554-.429-1.974-.812-.411-.392-.616-.915-.616-1.568 0-.821.313-1.493.938-2.016.625-.523 1.433-.784 2.422-.784.728 0 1.405.103 2.03.308a6.664 6.664 0 0 1 1.848.938l-.56.84a6.273 6.273 0 0 0-1.61-.868 4.898 4.898 0 0 0-1.694-.308c-.681 0-1.241.173-1.68.518-.439.336-.658.756-.658 1.26 0 .429.145.765.434 1.008.289.243.761.415 1.414.518l1.568.266c1.036.187 1.792.49 2.268.91.476.42.714.994.714 1.722 0 .42-.093.812-.28 1.176a2.795 2.795 0 0 1-.784.938 3.708 3.708 0 0 1-1.176.616 4.763 4.763 0 0 1-1.484.224 5.606 5.606 0 0 1-2.142-.406c-.653-.28-1.279-.7-1.876-1.26zm9.988-.014v-4.452h-1.414v-.84h1.414v-1.876l1.022-.238v2.114h1.96v.84h-1.96v4.186c0 .364.074.625.224.784.158.159.415.238.77.238.177 0 .336-.014.476-.042.14-.028.303-.075.49-.14v.91a3.04 3.04 0 0 1-.588.14 4.461 4.461 0 0 1-.602.042c-.588 0-1.036-.14-1.344-.42-.299-.289-.448-.705-.448-1.246zm6.593 1.666c-.728 0-1.326-.191-1.792-.574-.458-.392-.686-.896-.686-1.512 0-.607.233-1.097.7-1.47.476-.373 1.096-.56 1.862-.56.392 0 .76.047 1.106.14.354.084.681.215.98.392v-.938c0-.56-.15-.98-.448-1.26-.299-.289-.738-.434-1.316-.434-.318 0-.644.047-.98.14a6.132 6.132 0 0 0-1.092.448l-.378-.784c.466-.224.91-.387 1.33-.49.42-.112.835-.168 1.246-.168.84 0 1.488.21 1.946.63.466.411.7 1.003.7 1.778V414h-1.008v-.798c-.299.308-.63.541-.994.7a3.074 3.074 0 0 1-1.176.224zm-1.498-2.114c0 .401.158.723.476.966.317.243.728.364 1.232.364a2.73 2.73 0 0 0 1.05-.196 2.94 2.94 0 0 0 .91-.588v-1.316a3.371 3.371 0 0 0-.896-.364 3.942 3.942 0 0 0-1.036-.126c-.523 0-.943.117-1.26.35-.318.233-.476.537-.476.91zm6.753 1.988v-6.832h1.022v1.106c.261-.401.574-.705.938-.91a2.465 2.465 0 0 1 1.232-.308c.728 0 1.32.233 1.778.7.466.467.7 1.073.7 1.82V414h-1.022v-4.13c0-.597-.168-1.073-.504-1.428-.327-.355-.77-.532-1.33-.532-.374 0-.714.089-1.022.266a2.139 2.139 0 0 0-.77.784V414h-1.022zm12.75 0v-.91a2.66 2.66 0 0 1-.952.756 2.967 2.967 0 0 1-1.232.252c-.438 0-.854-.089-1.246-.266a3.276 3.276 0 0 1-.994-.742 3.728 3.728 0 0 1-.672-1.12 3.941 3.941 0 0 1-.238-1.372c0-.495.08-.957.238-1.386.168-.429.397-.798.686-1.106.29-.317.63-.565 1.022-.742.392-.187.812-.28 1.26-.28.42 0 .812.084 1.176.252.364.159.682.392.952.7v-4.046l1.022-.21V414h-1.022zm-4.326-3.416c0 .747.229 1.372.686 1.876a2.231 2.231 0 0 0 1.708.742c.402 0 .77-.079 1.106-.238.336-.159.612-.383.826-.672v-3.388a2.25 2.25 0 0 0-.854-.672 2.377 2.377 0 0 0-1.078-.252c-.681 0-1.25.247-1.708.742-.457.495-.686 1.115-.686 1.862zm9.563 3.542c-.728 0-1.326-.191-1.792-.574-.458-.392-.686-.896-.686-1.512 0-.607.233-1.097.7-1.47.476-.373 1.096-.56 1.862-.56.392 0 .76.047 1.106.14.354.084.681.215.98.392v-.938c0-.56-.15-.98-.448-1.26-.299-.289-.738-.434-1.316-.434-.318 0-.644.047-.98.14a6.132 6.132 0 0 0-1.092.448l-.378-.784c.466-.224.91-.387 1.33-.49.42-.112.835-.168 1.246-.168.84 0 1.488.21 1.946.63.466.411.7 1.003.7 1.778V414h-1.008v-.798c-.299.308-.63.541-.994.7a3.074 3.074 0 0 1-1.176.224zm-1.498-2.114c0 .401.158.723.476.966.317.243.728.364 1.232.364a2.73 2.73 0 0 0 1.05-.196 2.94 2.94 0 0 0 .91-.588v-1.316a3.371 3.371 0 0 0-.896-.364 3.942 3.942 0 0 0-1.036-.126c-.523 0-.943.117-1.26.35-.318.233-.476.537-.476.91zM206.47 414v-6.832h1.022v1.386c.177-.476.429-.845.756-1.106a1.779 1.779 0 0 1 1.148-.406c.121 0 .233.009.336.028.103.009.205.033.308.07v.924a2.135 2.135 0 0 0-.364-.084 1.767 1.767 0 0 0-1.456.322c-.308.243-.551.583-.728 1.022V414h-1.022zm9.51 0v-.91a2.66 2.66 0 0 1-.952.756 2.967 2.967 0 0 1-1.232.252c-.438 0-.854-.089-1.246-.266a3.276 3.276 0 0 1-.994-.742 3.728 3.728 0 0 1-.672-1.12 3.941 3.941 0 0 1-.238-1.372c0-.495.08-.957.238-1.386.168-.429.397-.798.686-1.106.29-.317.63-.565 1.022-.742.392-.187.812-.28 1.26-.28.42 0 .812.084 1.176.252.364.159.682.392.952.7v-4.046l1.022-.21V414h-1.022zm-4.326-3.416c0 .747.229 1.372.686 1.876a2.231 2.231 0 0 0 1.708.742c.402 0 .77-.079 1.106-.238.336-.159.612-.383.826-.672v-3.388a2.25 2.25 0 0 0-.854-.672 2.377 2.377 0 0 0-1.078-.252c-.681 0-1.25.247-1.708.742-.457.495-.686 1.115-.686 1.862zm6.791 2.534l.546-.672c.401.299.774.518 1.12.658.354.131.714.196 1.078.196.494 0 .905-.117 1.232-.35.326-.233.49-.527.49-.882 0-.28-.098-.499-.294-.658-.196-.159-.509-.28-.938-.364l-1.12-.196c-.663-.121-1.153-.327-1.47-.616-.308-.289-.462-.681-.462-1.176 0-.588.228-1.069.686-1.442.466-.373 1.059-.56 1.778-.56.466 0 .91.07 1.33.21.42.14.844.355 1.274.644l-.504.714a3.859 3.859 0 0 0-1.064-.546 3.32 3.32 0 0 0-1.078-.182c-.448 0-.808.098-1.078.294a.933.933 0 0 0-.406.798c0 .28.084.495.252.644.177.149.485.261.924.336l1.148.21c.681.121 1.18.331 1.498.63.326.299.49.7.49 1.204 0 .588-.257 1.087-.77 1.498-.504.411-1.134.616-1.89.616-.56 0-1.078-.084-1.554-.252a3.44 3.44 0 0 1-1.218-.756zm6.804.952l.84-1.022a3.553 3.553 0 0 1-.658-1.106 3.9 3.9 0 0 1-.238-1.358c0-.504.084-.971.252-1.4.168-.429.397-.803.686-1.12a3.179 3.179 0 0 1 1.064-.742c.411-.177.85-.266 1.316-.266.374 0 .724.056 1.05.168.327.103.626.257.896.462l.476-.588h.854l-.84 1.022c.28.317.5.686.658 1.106.159.42.238.873.238 1.358 0 .504-.088.975-.266 1.414a3.404 3.404 0 0 1-.7 1.134 3.287 3.287 0 0 1-1.05.742c-.41.177-.849.266-1.316.266-.364 0-.714-.056-1.05-.168a3.2 3.2 0 0 1-.896-.476l-.462.574h-.854zm.952-3.472c0 .327.042.635.126.924.094.289.22.546.378.77l3.15-3.878a1.796 1.796 0 0 0-.616-.336 2.054 2.054 0 0 0-.728-.126 2.1 2.1 0 0 0-1.652.756c-.438.504-.658 1.134-.658 1.89zm2.31 2.632c.663 0 1.214-.247 1.652-.742.448-.504.672-1.134.672-1.89a3.029 3.029 0 0 0-.518-1.708l-3.15 3.878c.178.149.378.266.602.35.234.075.481.112.742.112zm5.125.77v-10.01l1.022-.21v6.454l3.248-3.066h1.232l-3.472 3.248 3.626 3.584h-1.344l-3.29-3.262V414h-1.022z" fill="#000"/><rect x="264.5" y="401.5" width="15" height="15" rx="7.5" fill="#fff" stroke="#000"/><path d="M288.126 414l3.878-9.8h1.288l3.822 9.8h-1.162l-1.162-3.08h-4.368L289.26 414h-1.134zm2.632-3.934h3.71l-1.862-4.9-1.848 4.9zM303.017 414v-.91a2.66 2.66 0 0 1-.952.756 2.967 2.967 0 0 1-1.232.252c-.438 0-.854-.089-1.246-.266a3.276 3.276 0 0 1-.994-.742 3.728 3.728 0 0 1-.672-1.12 3.941 3.941 0 0 1-.238-1.372c0-.495.08-.957.238-1.386.168-.429.397-.798.686-1.106.29-.317.63-.565 1.022-.742.392-.187.812-.28 1.26-.28.42 0 .812.084 1.176.252.364.159.682.392.952.7v-4.046l1.022-.21V414h-1.022zm-4.326-3.416c0 .747.229 1.372.686 1.876a2.231 2.231 0 0 0 1.708.742c.402 0 .77-.079 1.106-.238.336-.159.612-.383.826-.672v-3.388a2.25 2.25 0 0 0-.854-.672 2.377 2.377 0 0 0-1.078-.252c-.681 0-1.25.247-1.708.742-.457.495-.686 1.115-.686 1.862zM306.14 414v-6.832h1.022v1.386c.177-.476.429-.845.756-1.106a1.779 1.779 0 0 1 1.148-.406c.121 0 .233.009.336.028.103.009.205.033.308.07v.924a2.135 2.135 0 0 0-.364-.084 1.767 1.767 0 0 0-1.456.322c-.308.243-.551.583-.728 1.022V414h-1.022zm10.126-.784a4.303 4.303 0 0 1-1.218.686 3.99 3.99 0 0 1-1.344.224c-.476 0-.924-.089-1.344-.266a3.533 3.533 0 0 1-1.078-.756 3.673 3.673 0 0 1-.714-1.12 3.88 3.88 0 0 1-.252-1.4c0-.495.08-.957.238-1.386a3.38 3.38 0 0 1 .686-1.12c.29-.317.63-.565 1.022-.742.392-.187.817-.28 1.274-.28.448 0 .864.089 1.246.266a3.187 3.187 0 0 1 1.652 1.82c.159.42.238.873.238 1.358v.308h-5.362c.047.691.304 1.269.77 1.736a2.3 2.3 0 0 0 1.666.686c.355 0 .696-.061 1.022-.182.336-.131.621-.303.854-.518l.644.686zm-2.744-5.278c-.56 0-1.04.201-1.442.602-.401.401-.648.915-.742 1.54h4.326c-.074-.616-.312-1.125-.714-1.526a1.9 1.9 0 0 0-1.428-.616zm4.306 5.18l.546-.672c.401.299.774.518 1.12.658.354.131.714.196 1.078.196.494 0 .905-.117 1.232-.35.326-.233.49-.527.49-.882 0-.28-.098-.499-.294-.658-.196-.159-.509-.28-.938-.364l-1.12-.196c-.663-.121-1.153-.327-1.47-.616-.308-.289-.462-.681-.462-1.176 0-.588.228-1.069.686-1.442.466-.373 1.059-.56 1.778-.56.466 0 .91.07 1.33.21.42.14.844.355 1.274.644l-.504.714a3.859 3.859 0 0 0-1.064-.546 3.32 3.32 0 0 0-1.078-.182c-.448 0-.808.098-1.078.294a.933.933 0 0 0-.406.798c0 .28.084.495.252.644.177.149.485.261.924.336l1.148.21c.681.121 1.18.331 1.498.63.326.299.49.7.49 1.204 0 .588-.257 1.087-.77 1.498-.504.411-1.134.616-1.89.616-.56 0-1.078-.084-1.554-.252a3.44 3.44 0 0 1-1.218-.756zm6.439 0l.546-.672c.401.299.775.518 1.12.658a3.09 3.09 0 0 0 1.078.196c.495 0 .905-.117 1.232-.35.327-.233.49-.527.49-.882 0-.28-.098-.499-.294-.658-.196-.159-.509-.28-.938-.364l-1.12-.196c-.663-.121-1.153-.327-1.47-.616-.308-.289-.462-.681-.462-1.176 0-.588.229-1.069.686-1.442.467-.373 1.059-.56 1.778-.56.467 0 .91.07 1.33.21.42.14.845.355 1.274.644l-.504.714a3.845 3.845 0 0 0-1.064-.546 3.32 3.32 0 0 0-1.078-.182c-.448 0-.807.098-1.078.294a.933.933 0 0 0-.406.798c0 .28.084.495.252.644.177.149.485.261.924.336l1.148.21c.681.121 1.181.331 1.498.63.327.299.49.7.49 1.204 0 .588-.257 1.087-.77 1.498-.504.411-1.134.616-1.89.616-.56 0-1.078-.084-1.554-.252a3.44 3.44 0 0 1-1.218-.756zm12.698.098a4.303 4.303 0 0 1-1.218.686 3.99 3.99 0 0 1-1.344.224c-.476 0-.924-.089-1.344-.266a3.533 3.533 0 0 1-1.078-.756 3.673 3.673 0 0 1-.714-1.12 3.88 3.88 0 0 1-.252-1.4c0-.495.08-.957.238-1.386a3.38 3.38 0 0 1 .686-1.12c.29-.317.63-.565 1.022-.742.392-.187.817-.28 1.274-.28.448 0 .864.089 1.246.266a3.187 3.187 0 0 1 1.652 1.82c.159.42.238.873.238 1.358v.308h-5.362c.047.691.304 1.269.77 1.736a2.3 2.3 0 0 0 1.666.686c.355 0 .696-.061 1.022-.182.336-.131.621-.303.854-.518l.644.686zm-2.744-5.278c-.56 0-1.04.201-1.442.602-.401.401-.648.915-.742 1.54h4.326c-.074-.616-.312-1.125-.714-1.526a1.9 1.9 0 0 0-1.428-.616zm4.306 5.18l.546-.672c.401.299.774.518 1.12.658.354.131.714.196 1.078.196.494 0 .905-.117 1.232-.35.326-.233.49-.527.49-.882 0-.28-.098-.499-.294-.658-.196-.159-.509-.28-.938-.364l-1.12-.196c-.663-.121-1.153-.327-1.47-.616-.308-.289-.462-.681-.462-1.176 0-.588.228-1.069.686-1.442.466-.373 1.059-.56 1.778-.56.466 0 .91.07 1.33.21.42.14.844.355 1.274.644l-.504.714a3.859 3.859 0 0 0-1.064-.546 3.32 3.32 0 0 0-1.078-.182c-.448 0-.808.098-1.078.294a.933.933 0 0 0-.406.798c0 .28.084.495.252.644.177.149.485.261.924.336l1.148.21c.681.121 1.18.331 1.498.63.326.299.49.7.49 1.204 0 .588-.257 1.087-.77 1.498-.504.411-1.134.616-1.89.616-.56 0-1.078-.084-1.554-.252a3.44 3.44 0 0 1-1.218-.756zm6.804.952l.84-1.022a3.553 3.553 0 0 1-.658-1.106 3.9 3.9 0 0 1-.238-1.358c0-.504.084-.971.252-1.4.168-.429.397-.803.686-1.12a3.179 3.179 0 0 1 1.064-.742c.411-.177.85-.266 1.316-.266.374 0 .724.056 1.05.168.327.103.626.257.896.462l.476-.588h.854l-.84 1.022c.28.317.5.686.658 1.106.159.42.238.873.238 1.358 0 .504-.088.975-.266 1.414a3.404 3.404 0 0 1-.7 1.134 3.287 3.287 0 0 1-1.05.742c-.41.177-.849.266-1.316.266-.364 0-.714-.056-1.05-.168a3.2 3.2 0 0 1-.896-.476l-.462.574h-.854zm.952-3.472c0 .327.042.635.126.924.094.289.22.546.378.77l3.15-3.878a1.796 1.796 0 0 0-.616-.336 2.054 2.054 0 0 0-.728-.126 2.1 2.1 0 0 0-1.652.756c-.438.504-.658 1.134-.658 1.89zm2.31 2.632c.663 0 1.214-.247 1.652-.742.448-.504.672-1.134.672-1.89a3.029 3.029 0 0 0-.518-1.708l-3.15 3.878c.178.149.378.266.602.35.234.075.481.112.742.112zm5.125.77v-10.01l1.022-.21v6.454l3.248-3.066h1.232l-3.472 3.248 3.626 3.584h-1.344l-3.29-3.262V414h-1.022z" fill="#000"/><path fill-rule="evenodd" clip-rule="evenodd" d="M769 1H1v1024h768V1zM385 713c110.457 0 200-89.543 200-200s-89.543-200-200-200-200 89.543-200 200 89.543 200 200 200z" fill="#000" fill-opacity=".25"/><path d="M1 848a4 4 0 0 1 4-4h760a4 4 0 0 1 4 4v173.01a4 4 0 0 1-4 4H5a4 4 0 0 1-4-4V848z" fill="#fff"/><path d="M1 848a4 4 0 0 1 4-4h760a4 4 0 0 1 4 4H1z" fill="#29D305"/><path d="M744.748 873.415a.83.83 0 0 0-1.172-1.172l-6.586 6.585-6.585-6.585a.828.828 0 1 0-1.172 1.172l6.585 6.585-6.585 6.585a.828.828 0 1 0 1.172 1.172l6.585-6.585 6.586 6.585a.828.828 0 1 0 1.172-1.172L738.162 880l6.586-6.585zM33.432 889.282v-3.072h14.784v3.072h-5.64v13.728h-3.48v-13.728h-5.664zm18.152-.264c-.512 0-.952-.184-1.32-.552a1.801 1.801 0 0 1-.552-1.32c0-.512.184-.952.552-1.32a1.801 1.801 0 0 1 1.32-.552c.512 0 .952.184 1.32.552.368.368.552.808.552 1.32s-.184.952-.552 1.32a1.801 1.801 0 0 1-1.32.552zm1.656 1.488v12.504h-3.288v-12.504h3.288zm4.276 8.976v-6.216h-2.568v-2.76h2.568v-3.192l3.288-.744v3.936h3.552v2.76h-3.552v5.544c0 .592.128 1.008.384 1.248s.704.36 1.344.36c.304 0 .592-.016.864-.048a5.72 5.72 0 0 0 .888-.24v2.688c-.352.112-.776.2-1.272.264-.496.08-.92.12-1.272.12-1.392 0-2.448-.312-3.168-.936-.704-.64-1.056-1.568-1.056-2.784zm11.756-13.992v17.52h-3.288v-16.8l3.288-.72zm13.779 15.96c-.768.624-1.56 1.08-2.376 1.368-.8.288-1.696.432-2.688.432a7.046 7.046 0 0 1-2.664-.504 6.882 6.882 0 0 1-2.136-1.368 6.568 6.568 0 0 1-1.416-2.04 6.564 6.564 0 0 1-.504-2.568c0-.896.16-1.736.48-2.52.336-.8.792-1.488 1.368-2.064a6.246 6.246 0 0 1 2.04-1.392 6.503 6.503 0 0 1 2.544-.504c.88 0 1.696.176 2.448.528.768.336 1.424.8 1.968 1.392.56.592.992 1.304 1.296 2.136.32.816.48 1.704.48 2.664v.864h-9.312a3.51 3.51 0 0 0 1.296 1.896c.64.48 1.392.72 2.256.72.544 0 1.056-.088 1.536-.264.48-.176.888-.424 1.224-.744l2.16 1.968zm-5.424-8.448c-.752 0-1.4.232-1.944.696-.544.448-.92 1.056-1.128 1.824h6.12a3.518 3.518 0 0 0-1.152-1.8 2.778 2.778 0 0 0-1.896-.72zM34.408 937.01v-11.2h1.232v5.008h6.432v-5.008h1.232v11.2h-1.232v-5.088H35.64v5.088h-1.232zm17.943-.896a4.935 4.935 0 0 1-1.392.784c-.48.17-.992.256-1.536.256a3.92 3.92 0 0 1-1.536-.304 4.039 4.039 0 0 1-1.232-.864 4.182 4.182 0 0 1-.816-1.28 4.439 4.439 0 0 1-.288-1.6c0-.566.09-1.094.272-1.584.192-.502.453-.928.784-1.28.33-.363.72-.646 1.168-.848.448-.214.934-.32 1.456-.32.512 0 .987.101 1.424.304.438.202.816.48 1.136.832.32.341.57.757.752 1.248.181.48.272.997.272 1.552v.352h-6.128c.053.789.347 1.45.88 1.984a2.63 2.63 0 0 0 1.904.784c.406 0 .795-.07 1.168-.208.384-.15.71-.347.976-.592l.736.784zm-3.136-6.032c-.64 0-1.19.229-1.648.688-.459.458-.741 1.045-.848 1.76h4.944c-.085-.704-.357-1.286-.816-1.744a2.17 2.17 0 0 0-1.632-.704zm5.594 6.928v-7.808h1.168v1.584c.203-.544.491-.966.864-1.264a2.03 2.03 0 0 1 1.312-.464c.139 0 .267.01.384.032.118.01.235.037.352.08v1.056a2.32 2.32 0 0 0-.416-.096 2.019 2.019 0 0 0-1.664.368c-.352.277-.629.666-.832 1.168v5.344H54.81zm11.573-.896a4.935 4.935 0 0 1-1.392.784c-.48.17-.992.256-1.536.256a3.92 3.92 0 0 1-1.536-.304 4.038 4.038 0 0 1-1.232-.864 4.179 4.179 0 0 1-.816-1.28 4.439 4.439 0 0 1-.288-1.6c0-.566.091-1.094.272-1.584.192-.502.454-.928.784-1.28.331-.363.72-.646 1.168-.848.448-.214.934-.32 1.456-.32.512 0 .987.101 1.424.304.438.202.816.48 1.136.832.32.341.571.757.752 1.248.182.48.272.997.272 1.552v.352h-6.128c.054.789.347 1.45.88 1.984a2.63 2.63 0 0 0 1.904.784c.406 0 .795-.07 1.168-.208.384-.15.71-.347.976-.592l.736.784zm-3.136-6.032c-.64 0-1.189.229-1.648.688-.458.458-.741 1.045-.848 1.76h4.944c-.085-.704-.357-1.286-.816-1.744a2.17 2.17 0 0 0-1.632-.704zm9.921-2.8a.859.859 0 0 1-.608-.24.86.86 0 0 1-.24-.608c0-.224.08-.416.24-.576a.83.83 0 0 1 .608-.256.76.76 0 0 1 .576.256c.17.16.256.352.256.576a.86.86 0 0 1-.24.608.804.804 0 0 1-.592.24zm.576 1.92v7.808h-1.168v-7.808h1.168zm1.642 6.8l.624-.768c.46.341.886.592 1.28.752.406.149.817.224 1.233.224.565 0 1.034-.134 1.407-.4.374-.267.56-.603.56-1.008 0-.32-.112-.571-.336-.752-.224-.182-.58-.32-1.072-.416l-1.28-.224c-.757-.139-1.317-.374-1.68-.704-.352-.331-.527-.779-.527-1.344 0-.672.26-1.222.784-1.648.533-.427 1.21-.64 2.031-.64.534 0 1.04.08 1.52.24.48.16.966.405 1.456.736l-.576.816a4.394 4.394 0 0 0-1.215-.624 3.774 3.774 0 0 0-1.232-.208c-.512 0-.923.112-1.233.336-.309.224-.464.528-.464.912 0 .32.096.565.288.736.203.17.555.298 1.056.384l1.313.24c.778.138 1.349.378 1.712.72.373.341.56.8.56 1.376 0 .672-.294 1.242-.88 1.712-.576.469-1.296.704-2.16.704-.64 0-1.233-.096-1.776-.288a3.951 3.951 0 0 1-1.393-.864zm12.65-.752v-5.088h-1.617v-.96h1.616v-2.144l1.168-.272v2.416h2.24v.96h-2.24v4.784c0 .416.086.714.256.896.182.181.475.272.88.272.203 0 .384-.016.544-.048.16-.032.347-.086.56-.16v1.04a3.483 3.483 0 0 1-.672.16 5.09 5.09 0 0 1-.688.048c-.672 0-1.184-.16-1.536-.48-.341-.331-.512-.806-.512-1.424zm5.118 1.76v-11.44l1.168-.24v5.136c.299-.459.656-.806 1.072-1.04a2.812 2.812 0 0 1 1.408-.352c.832 0 1.51.266 2.032.8.534.533.8 1.226.8 2.08v5.056h-1.168v-4.72c0-.683-.192-1.227-.576-1.632-.373-.406-.88-.608-1.52-.608-.427 0-.816.101-1.168.304a2.44 2.44 0 0 0-.88.896v5.76h-1.168zm15.276-.896a4.935 4.935 0 0 1-1.392.784c-.48.17-.992.256-1.536.256a3.92 3.92 0 0 1-1.536-.304 4.042 4.042 0 0 1-1.232-.864 4.194 4.194 0 0 1-.816-1.28 4.439 4.439 0 0 1-.288-1.6c0-.566.091-1.094.272-1.584.192-.502.454-.928.784-1.28.331-.363.72-.646 1.168-.848.448-.214.934-.32 1.456-.32.512 0 .987.101 1.424.304a3.5 3.5 0 0 1 1.136.832c.32.341.571.757.752 1.248.182.48.272.997.272 1.552v.352h-6.128c.054.789.347 1.45.88 1.984a2.63 2.63 0 0 0 1.904.784c.406 0 .795-.07 1.168-.208.384-.15.71-.347.976-.592l.736.784zm-3.136-6.032c-.64 0-1.189.229-1.648.688-.458.458-.741 1.045-.848 1.76h4.944c-.085-.704-.357-1.286-.816-1.744a2.17 2.17 0 0 0-1.632-.704zm10.257 5.168v-5.088h-1.616v-.96h1.616v-2.144l1.168-.272v2.416h2.24v.96h-2.24v4.784c0 .416.085.714.256.896.181.181.475.272.88.272.203 0 .384-.016.544-.048.16-.032.347-.086.56-.16v1.04a3.47 3.47 0 0 1-.672.16 5.094 5.094 0 0 1-.688.048c-.672 0-1.184-.16-1.536-.48-.341-.331-.512-.806-.512-1.424zm11.379.864a4.935 4.935 0 0 1-1.392.784c-.48.17-.992.256-1.536.256a3.92 3.92 0 0 1-1.536-.304 4.042 4.042 0 0 1-1.232-.864 4.194 4.194 0 0 1-.816-1.28 4.439 4.439 0 0 1-.288-1.6c0-.566.091-1.094.272-1.584.192-.502.454-.928.784-1.28.331-.363.72-.646 1.168-.848.448-.214.934-.32 1.456-.32.512 0 .987.101 1.424.304a3.5 3.5 0 0 1 1.136.832c.32.341.571.757.752 1.248.182.48.272.997.272 1.552v.352h-6.128c.054.789.347 1.45.88 1.984a2.63 2.63 0 0 0 1.904.784c.406 0 .795-.07 1.168-.208.384-.15.71-.347.976-.592l.736.784zm-3.136-6.032c-.64 0-1.189.229-1.648.688-.458.458-.741 1.045-.848 1.76h4.944c-.085-.704-.357-1.286-.816-1.744a2.17 2.17 0 0 0-1.632-.704zm4.103 6.928l2.976-4.016-2.832-3.792h1.392l2.16 2.96 2.128-2.96h1.328l-2.8 3.76 3.024 4.048h-1.392l-2.336-3.184-2.32 3.184h-1.328zm9.56-1.76v-5.088h-1.616v-.96h1.616v-2.144l1.168-.272v2.416h2.24v.96h-2.24v4.784c0 .416.085.714.256.896.181.181.475.272.88.272.203 0 .384-.016.544-.048.16-.032.347-.086.56-.16v1.04a3.47 3.47 0 0 1-.672.16 5.094 5.094 0 0 1-.688.048c-.672 0-1.184-.16-1.536-.48-.341-.331-.512-.806-.512-1.424zm9.781 0v-5.088h-1.616v-.96h1.616v-2.144l1.168-.272v2.416h2.24v.96h-2.24v4.784c0 .416.086.714.256.896.182.181.475.272.88.272.203 0 .384-.016.544-.048.16-.032.347-.086.56-.16v1.04a3.47 3.47 0 0 1-.672.16 5.082 5.082 0 0 1-.688.048c-.672 0-1.184-.16-1.536-.48-.341-.331-.512-.806-.512-1.424zm5.119 1.76v-11.44l1.168-.24v5.136c.299-.459.656-.806 1.072-1.04a2.814 2.814 0 0 1 1.408-.352c.832 0 1.51.266 2.032.8.534.533.8 1.226.8 2.08v5.056h-1.168v-4.72c0-.683-.192-1.227-.576-1.632-.373-.406-.88-.608-1.52-.608-.426 0-.816.101-1.168.304a2.442 2.442 0 0 0-.88.896v5.76h-1.168zm11.244.144c-.832 0-1.514-.219-2.048-.656-.522-.448-.784-1.024-.784-1.728 0-.694.267-1.254.8-1.68.544-.427 1.254-.64 2.128-.64.448 0 .87.053 1.264.16a3.95 3.95 0 0 1 1.12.448v-1.072c0-.64-.17-1.12-.512-1.44-.341-.331-.842-.496-1.504-.496-.362 0-.736.053-1.12.16a6.976 6.976 0 0 0-1.248.512l-.432-.896a7.83 7.83 0 0 1 1.52-.56c.48-.128.955-.192 1.424-.192.96 0 1.702.24 2.224.72.534.469.8 1.146.8 2.032v5.184h-1.152v-.912c-.341.352-.72.618-1.136.8-.416.17-.864.256-1.344.256zm-1.712-2.416c0 .458.182.826.544 1.104.363.277.832.416 1.408.416.438 0 .838-.075 1.2-.224.374-.15.72-.374 1.04-.672v-1.504a3.81 3.81 0 0 0-1.024-.416 4.497 4.497 0 0 0-1.184-.144c-.597 0-1.077.133-1.44.4-.362.266-.544.613-.544 1.04zm8.412.512v-5.088h-1.616v-.96h1.616v-2.144l1.168-.272v2.416h2.24v.96h-2.24v4.784c0 .416.085.714.256.896.181.181.475.272.88.272.203 0 .384-.016.544-.048.16-.032.347-.086.56-.16v1.04a3.47 3.47 0 0 1-.672.16 5.094 5.094 0 0 1-.688.048c-.672 0-1.184-.16-1.536-.48-.341-.331-.512-.806-.512-1.424zm11.397 1.76h-1.152l-2.144-7.808h1.136l1.632 6.24 1.872-6.24h1.04l1.872 6.24 1.616-6.24h1.104l-2.128 7.808h-1.136l-1.856-6.304-1.856 6.304zm9.22-9.728a.859.859 0 0 1-.608-.24.86.86 0 0 1-.24-.608c0-.224.08-.416.24-.576a.83.83 0 0 1 .608-.256.76.76 0 0 1 .576.256.76.76 0 0 1 .256.576.86.86 0 0 1-.24.608.804.804 0 0 1-.592.24zm.576 1.92v7.808h-1.168v-7.808h1.168zm3.563-3.872v11.68h-1.168v-11.44l1.168-.24zm3.562 0v11.68h-1.168v-11.44l1.168-.24zm11.873 11.68v-1.04a3.064 3.064 0 0 1-1.088.864 3.393 3.393 0 0 1-1.408.288c-.501 0-.976-.102-1.424-.304a3.743 3.743 0 0 1-1.136-.848 4.273 4.273 0 0 1-.768-1.28 4.499 4.499 0 0 1-.272-1.568c0-.566.091-1.094.272-1.584.192-.491.453-.912.784-1.264.331-.363.72-.646 1.168-.848.448-.214.928-.32 1.44-.32.48 0 .928.096 1.344.288a3.06 3.06 0 0 1 1.088.8v-4.624l1.168-.24v11.68h-1.168zm-4.944-3.904c0 .853.261 1.568.784 2.144a2.55 2.55 0 0 0 1.952.848c.459 0 .88-.091 1.264-.272.384-.182.699-.438.944-.768v-3.872a2.56 2.56 0 0 0-.976-.768 2.718 2.718 0 0 0-1.232-.288c-.779 0-1.429.282-1.952.848-.523.565-.784 1.274-.784 2.128zm14.96 3.008a4.935 4.935 0 0 1-1.392.784c-.48.17-.992.256-1.536.256a3.92 3.92 0 0 1-1.536-.304 4.042 4.042 0 0 1-1.232-.864 4.194 4.194 0 0 1-.816-1.28 4.439 4.439 0 0 1-.288-1.6c0-.566.091-1.094.272-1.584.192-.502.454-.928.784-1.28.331-.363.72-.646 1.168-.848.448-.214.934-.32 1.456-.32.512 0 .987.101 1.424.304a3.5 3.5 0 0 1 1.136.832c.32.341.571.757.752 1.248.182.48.272.997.272 1.552v.352h-6.128c.054.789.347 1.45.88 1.984a2.63 2.63 0 0 0 1.904.784c.406 0 .795-.07 1.168-.208.384-.15.71-.347.976-.592l.736.784zm-3.136-6.032c-.64 0-1.189.229-1.648.688-.458.458-.741 1.045-.848 1.76h4.944c-.085-.704-.357-1.286-.816-1.744a2.17 2.17 0 0 0-1.632-.704zm4.921 5.92l.624-.768c.458.341.885.592 1.28.752.405.149.816.224 1.232.224.565 0 1.034-.134 1.408-.4.373-.267.56-.603.56-1.008 0-.32-.112-.571-.336-.752-.224-.182-.582-.32-1.072-.416l-1.28-.224c-.758-.139-1.318-.374-1.68-.704-.352-.331-.528-.779-.528-1.344 0-.672.261-1.222.784-1.648.533-.427 1.21-.64 2.032-.64.533 0 1.04.08 1.52.24.48.16.965.405 1.456.736l-.576.816a4.408 4.408 0 0 0-1.216-.624 3.777 3.777 0 0 0-1.232-.208c-.512 0-.923.112-1.232.336-.31.224-.464.528-.464.912 0 .32.096.565.288.736.202.17.554.298 1.056.384l1.312.24c.778.138 1.349.378 1.712.72.373.341.56.8.56 1.376 0 .672-.294 1.242-.88 1.712-.576.469-1.296.704-2.16.704-.64 0-1.232-.096-1.776-.288a3.951 3.951 0 0 1-1.392-.864zm11.632.096c.427 0 .827-.08 1.2-.24.384-.16.71-.39.976-.688l.72.72a3.991 3.991 0 0 1-1.344.928 3.986 3.986 0 0 1-1.616.336 3.88 3.88 0 0 1-1.52-.304 3.855 3.855 0 0 1-1.216-.864 4.194 4.194 0 0 1-.816-1.28 4.245 4.245 0 0 1-.304-1.6c0-.566.096-1.094.288-1.584a4.17 4.17 0 0 1 .816-1.28 3.785 3.785 0 0 1 1.232-.848c.47-.214.976-.32 1.52-.32.576 0 1.126.106 1.648.32.523.213.976.512 1.36.896l-.752.816a2.94 2.94 0 0 0-1.008-.704 2.834 2.834 0 0 0-1.2-.272c-.384 0-.746.08-1.088.24-.33.149-.618.357-.864.624a3.356 3.356 0 0 0-.576.944 3.254 3.254 0 0 0-.208 1.168c0 .842.267 1.552.8 2.128.534.576 1.184.864 1.952.864zm4.573.912v-7.808h1.168v1.584c.203-.544.491-.966.864-1.264a2.03 2.03 0 0 1 1.312-.464c.139 0 .267.01.384.032.117.01.235.037.352.08v1.056a2.326 2.326 0 0 0-.416-.096 2.02 2.02 0 0 0-1.664.368c-.352.277-.629.666-.832 1.168v5.344h-1.168zm6.217-9.728a.859.859 0 0 1-.608-.24.86.86 0 0 1-.24-.608c0-.224.08-.416.24-.576a.83.83 0 0 1 .608-.256.76.76 0 0 1 .576.256.76.76 0 0 1 .256.576.86.86 0 0 1-.24.608.804.804 0 0 1-.592.24zm.576 1.92v7.808h-1.168v-7.808h1.168zm9.674 3.904a4.31 4.31 0 0 1-.288 1.584c-.181.49-.437.917-.768 1.28a3.87 3.87 0 0 1-1.168.848 3.463 3.463 0 0 1-1.44.304c-.49 0-.949-.096-1.376-.288a3.364 3.364 0 0 1-1.088-.848v1.024h-1.152v-11.44l1.168-.24v4.944a3.132 3.132 0 0 1 1.088-.848c.427-.214.902-.32 1.424-.32.502 0 .971.106 1.408.32.448.202.832.485 1.152.848.32.352.571.773.752 1.264a4.26 4.26 0 0 1 .288 1.568zm-3.888-2.976a2.89 2.89 0 0 0-1.28.288 2.407 2.407 0 0 0-.944.784v3.824c.256.341.576.608.96.8.395.192.816.288 1.264.288.779 0 1.43-.283 1.952-.848.523-.576.784-1.291.784-2.144 0-.854-.261-1.563-.784-2.128a2.526 2.526 0 0 0-1.952-.864zm12.4 5.984a4.935 4.935 0 0 1-1.392.784c-.48.17-.992.256-1.536.256a3.92 3.92 0 0 1-1.536-.304 4.042 4.042 0 0 1-1.232-.864 4.194 4.194 0 0 1-.816-1.28 4.439 4.439 0 0 1-.288-1.6c0-.566.091-1.094.272-1.584.192-.502.453-.928.784-1.28.331-.363.72-.646 1.168-.848.448-.214.933-.32 1.456-.32.512 0 .987.101 1.424.304.437.202.816.48 1.136.832.32.341.571.757.752 1.248.181.48.272.997.272 1.552v.352h-6.128c.053.789.347 1.45.88 1.984a2.629 2.629 0 0 0 1.904.784c.405 0 .795-.07 1.168-.208.384-.15.709-.347.976-.592l.736.784zm-3.136-6.032c-.64 0-1.189.229-1.648.688-.459.458-.741 1.045-.848 1.76h4.944c-.085-.704-.357-1.286-.816-1.744a2.17 2.17 0 0 0-1.632-.704zm11.873 6.928h-1.152l-2.144-7.808h1.136l1.632 6.24 1.872-6.24h1.04l1.872 6.24 1.616-6.24h1.104l-2.128 7.808h-1.136l-1.856-6.304-1.856 6.304zm8.628 0v-11.44l1.168-.24v5.136c.298-.459.656-.806 1.072-1.04a2.811 2.811 0 0 1 1.408-.352c.832 0 1.509.266 2.032.8.533.533.8 1.226.8 2.08v5.056h-1.168v-4.72c0-.683-.192-1.227-.576-1.632-.374-.406-.88-.608-1.52-.608-.427 0-.816.101-1.168.304a2.435 2.435 0 0 0-.88.896v5.76h-1.168zm11.244.144c-.832 0-1.515-.219-2.048-.656-.523-.448-.784-1.024-.784-1.728 0-.694.266-1.254.8-1.68.544-.427 1.253-.64 2.128-.64.448 0 .869.053 1.264.16.405.096.778.245 1.12.448v-1.072c0-.64-.171-1.12-.512-1.44-.342-.331-.843-.496-1.504-.496-.363 0-.736.053-1.12.16-.374.106-.79.277-1.248.512l-.432-.896a7.807 7.807 0 0 1 1.52-.56c.48-.128.954-.192 1.424-.192.96 0 1.701.24 2.224.72.533.469.8 1.146.8 2.032v5.184h-1.152v-.912c-.342.352-.72.618-1.136.8-.416.17-.864.256-1.344.256zm-1.712-2.416c0 .458.181.826.544 1.104.362.277.832.416 1.408.416.437 0 .837-.075 1.2-.224.373-.15.72-.374 1.04-.672v-1.504a3.824 3.824 0 0 0-1.024-.416 4.503 4.503 0 0 0-1.184-.144c-.598 0-1.078.133-1.44.4-.363.266-.544.613-.544 1.04zm8.411.512v-5.088h-1.616v-.96h1.616v-2.144l1.168-.272v2.416h2.24v.96h-2.24v4.784c0 .416.086.714.256.896.182.181.475.272.88.272.203 0 .384-.016.544-.048.16-.032.347-.086.56-.16v1.04a3.47 3.47 0 0 1-.672.16 5.082 5.082 0 0 1-.688.048c-.672 0-1.184-.16-1.536-.48-.341-.331-.512-.806-.512-1.424zm9.446-7.968a.857.857 0 0 1-.608-.24.86.86 0 0 1-.24-.608c0-.224.08-.416.24-.576a.828.828 0 0 1 .608-.256.76.76 0 0 1 .576.256c.17.16.256.352.256.576a.86.86 0 0 1-.24.608.805.805 0 0 1-.592.24zm.576 1.92v7.808h-1.168v-7.808h1.168zm1.642 6.8l.624-.768c.459.341.885.592 1.28.752.405.149.816.224 1.232.224.565 0 1.035-.134 1.408-.4.373-.267.56-.603.56-1.008 0-.32-.112-.571-.336-.752-.224-.182-.581-.32-1.072-.416l-1.28-.224c-.757-.139-1.317-.374-1.68-.704-.352-.331-.528-.779-.528-1.344 0-.672.261-1.222.784-1.648.533-.427 1.211-.64 2.032-.64.533 0 1.04.08 1.52.24.48.16.965.405 1.456.736l-.576.816a4.394 4.394 0 0 0-1.216-.624 3.772 3.772 0 0 0-1.232-.208c-.512 0-.923.112-1.232.336a1.068 1.068 0 0 0-.464.912c0 .32.096.565.288.736.203.17.555.298 1.056.384l1.312.24c.779.138 1.349.378 1.712.72.373.341.56.8.56 1.376 0 .672-.293 1.242-.88 1.712-.576.469-1.296.704-2.16.704-.64 0-1.232-.096-1.776-.288a3.951 3.951 0 0 1-1.392-.864zm11.721 1.008v-7.808h1.168v1.264c.298-.459.656-.806 1.072-1.04a2.811 2.811 0 0 1 1.408-.352c.832 0 1.509.266 2.032.8.533.533.8 1.226.8 2.08v5.056h-1.168v-4.72c0-.683-.192-1.227-.576-1.632-.374-.406-.88-.608-1.52-.608-.427 0-.816.101-1.168.304a2.435 2.435 0 0 0-.88.896v5.76h-1.168zm15.276-.896a4.935 4.935 0 0 1-1.392.784c-.48.17-.992.256-1.536.256a3.92 3.92 0 0 1-1.536-.304 4.042 4.042 0 0 1-1.232-.864 4.194 4.194 0 0 1-.816-1.28 4.439 4.439 0 0 1-.288-1.6c0-.566.091-1.094.272-1.584.192-.502.453-.928.784-1.28.331-.363.72-.646 1.168-.848.448-.214.933-.32 1.456-.32.512 0 .987.101 1.424.304.437.202.816.48 1.136.832.32.341.571.757.752 1.248.181.48.272.997.272 1.552v.352h-6.128c.053.789.347 1.45.88 1.984a2.629 2.629 0 0 0 1.904.784c.405 0 .795-.07 1.168-.208.384-.15.709-.347.976-.592l.736.784zm-3.136-6.032c-.64 0-1.189.229-1.648.688-.459.458-.741 1.045-.848 1.76h4.944c-.085-.704-.357-1.286-.816-1.744a2.17 2.17 0 0 0-1.632-.704zm7.982 6.928h-1.152l-2.144-7.808h1.136l1.632 6.24 1.872-6.24h1.04l1.872 6.24 1.616-6.24h1.104l-2.128 7.808h-1.136l-1.856-6.304-1.856 6.304zm8.625-1.616a.76.76 0 0 1 .576.256c.171.17.256.373.256.608a.849.849 0 0 1-.256.624.764.764 0 0 1-.576.256.835.835 0 0 1-.608-.256.88.88 0 0 1-.24-.624c0-.235.08-.438.24-.608a.83.83 0 0 1 .608-.256zm5.938-8.496v-1.088h8.96v1.088h-3.856v10.112h-1.232v-10.112h-3.872zm9.94 10.112v-7.808h1.168v1.584c.202-.544.49-.966.864-1.264a2.03 2.03 0 0 1 1.312-.464c.138 0 .266.01.384.032.117.01.234.037.352.08v1.056a2.326 2.326 0 0 0-.416-.096 2.017 2.017 0 0 0-1.664.368c-.352.277-.63.666-.832 1.168v5.344h-1.168zm7.317 1.248l.512-1.264-3.008-7.792h1.296l2.368 6.416 2.512-6.416h1.296l-3.872 9.408c-.245.629-.539 1.072-.88 1.328-.331.266-.784.4-1.36.4-.107 0-.224-.011-.352-.032a1.967 1.967 0 0 1-.4-.08v-1.04c.16.032.283.048.368.048.096.01.187.016.272.016.299 0 .544-.08.736-.24.203-.15.373-.4.512-.752zm11.095-3.008v-5.088h-1.616v-.96h1.616v-2.144l1.168-.272v2.416h2.24v.96h-2.24v4.784c0 .416.085.714.256.896.181.181.475.272.88.272.203 0 .384-.016.544-.048.16-.032.347-.086.56-.16v1.04a3.47 3.47 0 0 1-.672.16 5.094 5.094 0 0 1-.688.048c-.672 0-1.184-.16-1.536-.48-.341-.331-.512-.806-.512-1.424zm4.58-2.144c0-.576.096-1.11.288-1.6.192-.491.453-.918.784-1.28a3.597 3.597 0 0 1 1.216-.848c.469-.203.97-.304 1.504-.304.544 0 1.045.101 1.504.304.469.202.874.485 1.216.848.341.362.608.789.8 1.28a4.35 4.35 0 0 1 .287 1.6c0 .576-.101 1.114-.303 1.616a3.916 3.916 0 0 1-.8 1.296 3.777 3.777 0 0 1-1.2.848c-.47.202-.971.304-1.504.304a3.76 3.76 0 0 1-1.504-.304 3.89 3.89 0 0 1-1.2-.864 4.33 4.33 0 0 1-.8-1.28 4.483 4.483 0 0 1-.288-1.616zm3.792 3.024a2.42 2.42 0 0 0 1.888-.848c.512-.576.768-1.296.768-2.16 0-.864-.256-1.584-.768-2.16-.502-.576-1.131-.864-1.888-.864-.758 0-1.387.288-1.888.864-.502.576-.752 1.296-.752 2.16 0 .864.25 1.584.752 2.16.501.565 1.13.848 1.888.848zm9.591.88v-11.44l1.168-.24v7.376l3.712-3.504h1.408l-3.968 3.712 4.144 4.096h-1.536l-3.76-3.728v3.728h-1.168zm13.776-.896a4.935 4.935 0 0 1-1.392.784c-.48.17-.992.256-1.536.256a3.92 3.92 0 0 1-1.536-.304 4.042 4.042 0 0 1-1.232-.864 4.194 4.194 0 0 1-.816-1.28 4.439 4.439 0 0 1-.288-1.6c0-.566.091-1.094.272-1.584.192-.502.453-.928.784-1.28.331-.363.72-.646 1.168-.848.448-.214.933-.32 1.456-.32.512 0 .987.101 1.424.304.437.202.816.48 1.136.832.32.341.571.757.752 1.248.181.48.272.997.272 1.552v.352h-6.128c.053.789.347 1.45.88 1.984a2.629 2.629 0 0 0 1.904.784c.405 0 .795-.07 1.168-.208.384-.15.709-.347.976-.592l.736.784zm-3.136-6.032c-.64 0-1.189.229-1.648.688-.459.458-.741 1.045-.848 1.76h4.944c-.085-.704-.357-1.286-.816-1.744a2.17 2.17 0 0 0-1.632-.704zm12.058 6.032a4.935 4.935 0 0 1-1.392.784c-.48.17-.992.256-1.536.256a3.92 3.92 0 0 1-1.536-.304 4.03 4.03 0 0 1-1.232-.864 4.156 4.156 0 0 1-.816-1.28 4.439 4.439 0 0 1-.288-1.6c0-.566.09-1.094.272-1.584.192-.502.453-.928.784-1.28.33-.363.72-.646 1.168-.848.448-.214.933-.32 1.456-.32.512 0 .986.101 1.424.304a3.651 3.651 0 0 1 1.888 2.08c.181.48.272.997.272 1.552v.352h-6.128c.053.789.346 1.45.88 1.984a2.629 2.629 0 0 0 1.904.784c.405 0 .794-.07 1.168-.208.384-.15.709-.347.976-.592l.736.784zm-3.136-6.032c-.64 0-1.19.229-1.648.688-.459.458-.742 1.045-.848 1.76h4.944c-.086-.704-.358-1.286-.816-1.744a2.17 2.17 0 0 0-1.632-.704zm5.594 10.272v-11.152h1.152v1.12a2.917 2.917 0 0 1 1.088-.896c.437-.214.917-.32 1.44-.32.501 0 .971.106 1.408.32.448.202.832.485 1.152.848.32.352.571.773.752 1.264a4.26 4.26 0 0 1 .288 1.568 4.31 4.31 0 0 1-.288 1.584c-.181.49-.437.917-.768 1.28-.331.352-.72.634-1.168.848a3.463 3.463 0 0 1-1.44.304c-.491 0-.949-.091-1.376-.272a3.09 3.09 0 0 1-1.072-.816v4.32h-1.168zm3.392-10.224c-.459 0-.885.096-1.28.288a2.4 2.4 0 0 0-.944.784v3.824c.256.341.576.608.96.8.395.192.816.288 1.264.288a2.55 2.55 0 0 0 1.952-.848c.523-.576.784-1.291.784-2.144 0-.854-.261-1.563-.784-2.128a2.528 2.528 0 0 0-1.952-.864zm10.263-2.848a.857.857 0 0 1-.608-.24.86.86 0 0 1-.24-.608c0-.224.08-.416.24-.576a.828.828 0 0 1 .608-.256.76.76 0 0 1 .576.256c.17.16.256.352.256.576a.86.86 0 0 1-.24.608.805.805 0 0 1-.592.24zm.576 1.92v7.808h-1.168v-7.808h1.168zm3.322 6.048v-5.088h-1.616v-.96h1.616v-2.144l1.168-.272v2.416h2.24v.96h-2.24v4.784c0 .416.085.714.256.896.181.181.475.272.88.272.203 0 .384-.016.544-.048.16-.032.347-.086.56-.16v1.04a3.47 3.47 0 0 1-.672.16 5.094 5.094 0 0 1-.688.048c-.672 0-1.184-.16-1.536-.48-.341-.331-.512-.806-.512-1.424zm8.101.752l.624-.768c.459.341.886.592 1.28.752a3.55 3.55 0 0 0 1.232.224c.566 0 1.035-.134 1.408-.4.374-.267.56-.603.56-1.008 0-.32-.112-.571-.336-.752-.224-.182-.581-.32-1.072-.416l-1.28-.224c-.757-.139-1.317-.374-1.68-.704-.352-.331-.528-.779-.528-1.344 0-.672.262-1.222.784-1.648.534-.427 1.211-.64 2.032-.64.534 0 1.04.08 1.52.24.48.16.966.405 1.456.736l-.576.816a4.38 4.38 0 0 0-1.216-.624 3.772 3.772 0 0 0-1.232-.208c-.512 0-.922.112-1.232.336a1.068 1.068 0 0 0-.464.912c0 .32.096.565.288.736.203.17.555.298 1.056.384l1.312.24c.779.138 1.35.378 1.712.72.374.341.56.8.56 1.376 0 .672-.293 1.242-.88 1.712-.576.469-1.296.704-2.16.704-.64 0-1.232-.096-1.776-.288a3.951 3.951 0 0 1-1.392-.864zm7.987 1.008v-11.44l1.168-.24v5.136c.298-.459.656-.806 1.072-1.04a2.811 2.811 0 0 1 1.408-.352c.832 0 1.509.266 2.032.8.533.533.8 1.226.8 2.08v5.056h-1.168v-4.72c0-.683-.192-1.227-.576-1.632-.374-.406-.88-.608-1.52-.608-.427 0-.816.101-1.168.304a2.435 2.435 0 0 0-.88.896v5.76h-1.168zm8.476-3.904c0-.576.096-1.11.288-1.6.192-.491.453-.918.784-1.28a3.597 3.597 0 0 1 1.216-.848c.469-.203.97-.304 1.504-.304.544 0 1.045.101 1.504.304.469.202.874.485 1.216.848.341.362.608.789.8 1.28a4.35 4.35 0 0 1 .288 1.6c0 .576-.102 1.114-.304 1.616a3.916 3.916 0 0 1-.8 1.296 3.777 3.777 0 0 1-1.2.848c-.47.202-.971.304-1.504.304a3.76 3.76 0 0 1-1.504-.304 3.89 3.89 0 0 1-1.2-.864 4.33 4.33 0 0 1-.8-1.28 4.483 4.483 0 0 1-.288-1.616zm3.792 3.024a2.42 2.42 0 0 0 1.888-.848c.512-.576.768-1.296.768-2.16 0-.864-.256-1.584-.768-2.16-.502-.576-1.131-.864-1.888-.864-.758 0-1.387.288-1.888.864-.502.576-.752 1.296-.752 2.16 0 .864.25 1.584.752 2.16.501.565 1.13.848 1.888.848zm5.857.88v-7.808h1.168v1.584c.202-.544.49-.966.864-1.264a2.03 2.03 0 0 1 1.312-.464c.138 0 .266.01.384.032.117.01.234.037.352.08v1.056a2.326 2.326 0 0 0-.416-.096 2.017 2.017 0 0 0-1.664.368c-.352.277-.63.666-.832 1.168v5.344h-1.168zm6.584-1.76v-5.088h-1.616v-.96h1.616v-2.144l1.168-.272v2.416h2.24v.96h-2.24v4.784c0 .416.085.714.256.896.181.181.475.272.88.272.203 0 .384-.016.544-.048.16-.032.347-.086.56-.16v1.04a3.47 3.47 0 0 1-.672.16 5.094 5.094 0 0 1-.688.048c-.672 0-1.184-.16-1.536-.48-.341-.331-.512-.806-.512-1.424zm16.133-2.144a4.31 4.31 0 0 1-.288 1.584c-.181.49-.437.917-.768 1.28-.331.352-.72.634-1.168.848a3.463 3.463 0 0 1-1.44.304c-.491 0-.949-.096-1.376-.288a3.353 3.353 0 0 1-1.088-.848v1.024h-1.152v-11.44l1.168-.24v4.944a3.123 3.123 0 0 1 1.088-.848 3.13 3.13 0 0 1 1.424-.32c.501 0 .971.106 1.408.32.448.202.832.485 1.152.848.32.352.571.773.752 1.264a4.26 4.26 0 0 1 .288 1.568zm-3.888-2.976c-.459 0-.885.096-1.28.288a2.4 2.4 0 0 0-.944.784v3.824c.256.341.576.608.96.8.395.192.816.288 1.264.288a2.55 2.55 0 0 0 1.952-.848c.523-.576.784-1.291.784-2.144 0-.854-.261-1.563-.784-2.128a2.528 2.528 0 0 0-1.952-.864zm7.072-.928v4.704c0 .693.187 1.242.56 1.648.374.405.88.608 1.52.608.427 0 .816-.102 1.168-.304a2.48 2.48 0 0 0 .88-.88v-5.776h1.168v7.808h-1.168v-1.264c-.298.458-.656.805-1.072 1.04a2.821 2.821 0 0 1-1.408.352c-.832 0-1.514-.267-2.048-.8-.522-.544-.784-1.243-.784-2.096v-5.04h1.184zm8.62 6.048v-5.088h-1.616v-.96h1.616v-2.144l1.168-.272v2.416h2.24v.96h-2.24v4.784c0 .416.086.714.256.896.182.181.475.272.88.272.203 0 .384-.016.544-.048.16-.032.347-.086.56-.16v1.04a3.47 3.47 0 0 1-.672.16 5.082 5.082 0 0 1-.688.048c-.672 0-1.184-.16-1.536-.48-.341-.331-.512-.806-.512-1.424zm14.598 1.76v-1.04a3.073 3.073 0 0 1-1.088.864 3.393 3.393 0 0 1-1.408.288c-.502 0-.976-.102-1.424-.304a3.731 3.731 0 0 1-1.136-.848 4.273 4.273 0 0 1-.768-1.28 4.476 4.476 0 0 1-.272-1.568c0-.566.09-1.094.272-1.584.192-.491.453-.912.784-1.264.33-.363.72-.646 1.168-.848.448-.214.928-.32 1.44-.32.48 0 .928.096 1.344.288.416.181.778.448 1.088.8v-4.624l1.168-.24v11.68h-1.168zm-4.944-3.904c0 .853.261 1.568.784 2.144.522.565 1.173.848 1.952.848.458 0 .88-.091 1.264-.272.384-.182.698-.438.944-.768v-3.872a2.568 2.568 0 0 0-.976-.768 2.718 2.718 0 0 0-1.232-.288c-.779 0-1.43.282-1.952.848-.523.565-.784 1.274-.784 2.128zm14.96 3.008a4.935 4.935 0 0 1-1.392.784c-.48.17-.992.256-1.536.256a3.92 3.92 0 0 1-1.536-.304 4.042 4.042 0 0 1-1.232-.864 4.194 4.194 0 0 1-.816-1.28 4.439 4.439 0 0 1-.288-1.6c0-.566.091-1.094.272-1.584.192-.502.453-.928.784-1.28.331-.363.72-.646 1.168-.848.448-.214.933-.32 1.456-.32.512 0 .987.101 1.424.304.437.202.816.48 1.136.832.32.341.571.757.752 1.248.181.48.272.997.272 1.552v.352h-6.128c.053.789.347 1.45.88 1.984a2.629 2.629 0 0 0 1.904.784c.405 0 .795-.07 1.168-.208.384-.15.709-.347.976-.592l.736.784zm-3.136-6.032c-.64 0-1.189.229-1.648.688-.459.458-.741 1.045-.848 1.76h4.944c-.085-.704-.357-1.286-.816-1.744a2.17 2.17 0 0 0-1.632-.704zm4.921 5.92l.624-.768c.458.341.885.592 1.279.752.406.149.817.224 1.233.224.565 0 1.034-.134 1.408-.4.373-.267.56-.603.56-1.008 0-.32-.112-.571-.336-.752-.224-.182-.582-.32-1.072-.416l-1.28-.224c-.758-.139-1.318-.374-1.68-.704-.352-.331-.528-.779-.528-1.344 0-.672.261-1.222.784-1.648.533-.427 1.21-.64 2.032-.64.533 0 1.04.08 1.52.24.48.16.965.405 1.456.736l-.576.816a4.408 4.408 0 0 0-1.216-.624 3.777 3.777 0 0 0-1.232-.208c-.512 0-.923.112-1.232.336-.31.224-.464.528-.464.912 0 .32.096.565.288.736.202.17.554.298 1.056.384l1.312.24c.778.138 1.349.378 1.712.72.373.341.56.8.56 1.376 0 .672-.294 1.242-.88 1.712-.576.469-1.296.704-2.16.704-.64 0-1.232-.096-1.776-.288a3.951 3.951 0 0 1-1.392-.864zm11.632.096c.427 0 .827-.08 1.2-.24.384-.16.709-.39.976-.688l.72.72a3.991 3.991 0 0 1-1.344.928 3.99 3.99 0 0 1-1.616.336 3.88 3.88 0 0 1-1.52-.304 3.844 3.844 0 0 1-1.216-.864 4.194 4.194 0 0 1-.816-1.28 4.226 4.226 0 0 1-.304-1.6c0-.566.096-1.094.288-1.584a4.17 4.17 0 0 1 .816-1.28 3.785 3.785 0 0 1 1.232-.848c.469-.214.976-.32 1.52-.32.576 0 1.125.106 1.648.32.523.213.976.512 1.36.896l-.752.816a2.94 2.94 0 0 0-1.008-.704 2.841 2.841 0 0 0-1.2-.272c-.384 0-.747.08-1.088.24a2.62 2.62 0 0 0-.864.624 3.31 3.31 0 0 0-.576.944 3.233 3.233 0 0 0-.208 1.168c0 .842.267 1.552.8 2.128.533.576 1.184.864 1.952.864zm4.573.912v-7.808h1.168v1.584c.202-.544.49-.966.864-1.264a2.03 2.03 0 0 1 1.312-.464c.138 0 .266.01.384.032.117.01.234.037.352.08v1.056a2.326 2.326 0 0 0-.416-.096 2.017 2.017 0 0 0-1.664.368c-.352.277-.63.666-.832 1.168v5.344h-1.168zm6.217-9.728a.857.857 0 0 1-.608-.24.86.86 0 0 1-.24-.608c0-.224.08-.416.24-.576a.828.828 0 0 1 .608-.256.76.76 0 0 1 .576.256c.17.16.256.352.256.576a.86.86 0 0 1-.24.608.805.805 0 0 1-.592.24zm.576 1.92v7.808h-1.168v-7.808h1.168zm2.394 11.152v-11.152h1.152v1.12a2.917 2.917 0 0 1 1.088-.896c.437-.214.917-.32 1.44-.32.501 0 .971.106 1.408.32.448.202.832.485 1.152.848.32.352.571.773.752 1.264a4.26 4.26 0 0 1 .288 1.568 4.31 4.31 0 0 1-.288 1.584c-.181.49-.437.917-.768 1.28-.331.352-.72.634-1.168.848a3.463 3.463 0 0 1-1.44.304c-.491 0-.949-.091-1.376-.272a3.09 3.09 0 0 1-1.072-.816v4.32h-1.168zm3.392-10.224c-.459 0-.885.096-1.28.288a2.4 2.4 0 0 0-.944.784v3.824c.256.341.576.608.96.8.395.192.816.288 1.264.288a2.55 2.55 0 0 0 1.952-.848c.523-.576.784-1.291.784-2.144 0-.854-.261-1.563-.784-2.128a2.528 2.528 0 0 0-1.952-.864zm6.364 5.12v-5.088h-1.616v-.96h1.616v-2.144l1.168-.272v2.416h2.24v.96h-2.24v4.784c0 .416.086.714.256.896.182.181.475.272.88.272.203 0 .384-.016.544-.048.16-.032.347-.086.56-.16v1.04a3.47 3.47 0 0 1-.672.16 5.082 5.082 0 0 1-.688.048c-.672 0-1.184-.16-1.536-.48-.341-.331-.512-.806-.512-1.424zm5.711-7.968a.859.859 0 0 1-.608-.24.86.86 0 0 1-.24-.608c0-.224.08-.416.24-.576a.83.83 0 0 1 .608-.256.76.76 0 0 1 .576.256.76.76 0 0 1 .256.576.86.86 0 0 1-.24.608.804.804 0 0 1-.592.24zm.576 1.92v7.808h-1.168v-7.808h1.168zm4.635 7.808l-3.2-7.808h1.264l2.528 6.352 2.496-6.352h1.248l-3.216 7.808h-1.12zm11.989-.896a4.935 4.935 0 0 1-1.392.784c-.48.17-.992.256-1.536.256a3.92 3.92 0 0 1-1.536-.304 4.042 4.042 0 0 1-1.232-.864 4.194 4.194 0 0 1-.816-1.28 4.439 4.439 0 0 1-.288-1.6c0-.566.091-1.094.272-1.584.192-.502.453-.928.784-1.28.331-.363.72-.646 1.168-.848.448-.214.933-.32 1.456-.32.512 0 .987.101 1.424.304.437.202.816.48 1.136.832.32.341.571.757.752 1.248.181.48.272.997.272 1.552v.352h-6.128c.053.789.347 1.45.88 1.984a2.629 2.629 0 0 0 1.904.784c.405 0 .795-.07 1.168-.208.384-.15.709-.347.976-.592l.736.784zm-3.136-6.032c-.64 0-1.189.229-1.648.688-.459.458-.741 1.045-.848 1.76h4.944c-.085-.704-.357-1.286-.816-1.744a2.17 2.17 0 0 0-1.632-.704zm5.748 5.312a.76.76 0 0 1 .576.256c.171.17.256.373.256.608a.849.849 0 0 1-.256.624.764.764 0 0 1-.576.256.833.833 0 0 1-.608-.256.88.88 0 0 1-.24-.624c0-.235.08-.438.24-.608a.83.83 0 0 1 .608-.256zm-296.995 37.037a1.066 1.066 0 1 0-1.508-1.509l-5.321 5.322a1.061 1.061 0 0 0-.012 1.52l5.333 5.333a1.065 1.065 0 1 0 1.508-1.508l-3.513-3.514H311.4a1.067 1.067 0 1 0 0-2.132h-10.225l3.512-3.512z" fill="#000"/><path fill-rule="evenodd" clip-rule="evenodd" d="M305 963.143c-7.658 0-13.867 6.208-13.867 13.867 0 7.658 6.209 13.866 13.867 13.866 7.658 0 13.867-6.208 13.867-13.866 0-7.659-6.209-13.867-13.867-13.867zm-16 13.867c0-8.837 7.163-16 16-16s16 7.163 16 16c0 8.836-7.163 16-16 16s-16-7.164-16-16z" fill="#29D305"/><circle cx="349" cy="977.01" r="3.5" stroke="#000"/><circle cx="373" cy="977.01" r="4" fill="#29D305"/><circle cx="397" cy="977.01" r="3.5" stroke="#000"/><circle cx="421" cy="977.01" r="3.5" stroke="#000"/><path d="M466.821 970.922a1.068 1.068 0 0 0-1.509 0 1.068 1.068 0 0 0 0 1.509l3.513 3.512H458.6a1.067 1.067 0 0 0 0 2.134h10.225l-3.513 3.512a1.067 1.067 0 0 0 1.509 1.508l5.328-5.328.055-.058a1.078 1.078 0 0 0 .166-1.145 1.05 1.05 0 0 0-.168-.26l-.053-.055-5.328-5.329z" fill="#000"/><path fill-rule="evenodd" clip-rule="evenodd" d="M465 990.876c7.658 0 13.867-6.208 13.867-13.866 0-7.659-6.209-13.867-13.867-13.867-7.658 0-13.867 6.208-13.867 13.867 0 7.658 6.209 13.866 13.867 13.866zm16-13.866c0 8.836-7.163 16-16 16s-16-7.164-16-16c0-8.837 7.163-16 16-16s16 7.163 16 16z" fill="#29D305"/></g><rect x=".5" y=".5" width="769" height="1025" rx="8.5" stroke="#E9E9E9"/><defs><clipPath id="clip0_1507_58748"><rect x="1" y="1" width="768" height="1024" rx="8" fill="#fff"/></clipPath><clipPath id="clip1_1507_58748"><path fill="#fff" transform="translate(79 23.5)" d="M0 0H78V17H0z"/></clipPath><clipPath id="clip2_1507_58748"><path fill="#fff" transform="translate(1 65)" d="M0 0H64V960H0z"/></clipPath></defs></svg>