<svg width="40" height="40" viewBox="0 0 40 40" fill="none" xmlns="http://www.w3.org/2000/svg">
<path fill-rule="evenodd" clip-rule="evenodd" d="M0.0351562 20C0.0351562 19.2105 0.698179 18.75 1.51606 18.75H23.0091C23.827 18.75 24.49 19.25 24.49 20C24.49 20.75 23.827 21.25 23.0091 21.25H1.51606C0.698179 21.25 0.0351562 20.7895 0.0351562 20Z" fill="var(--e-color-icon-stroke-1)"/>
<path fill-rule="evenodd" clip-rule="evenodd" d="M30.4845 19.2737C29.9782 18.7695 29.9892 17.9375 30.5046 17.4468C30.9879 16.9867 31.7423 16.9937 32.2168 17.4664L35.0477 20.2857L37.8785 17.4664C38.3531 16.9937 39.1075 16.9867 39.5907 17.4468C40.1061 17.9375 40.1172 18.7695 39.6108 19.2737L36.0886 22.7817C36.0886 22.7817 36.0885 22.7818 36.0884 22.7819C36.0883 22.782 36.0882 22.7821 36.0881 22.7822C35.9491 22.9207 35.7855 23.0292 35.6074 23.1027L35.4279 22.6406L35.6074 23.1027C35.4292 23.1763 35.2391 23.2139 35.0477 23.2139C34.8563 23.2139 34.6661 23.1763 34.4879 23.1027L34.6674 22.6406L34.4879 23.1027C34.3099 23.0292 34.1464 22.9208 34.0073 22.7823C34.0073 22.7823 34.0073 22.7823 34.0073 22.7822C34.0072 22.7822 34.0072 22.7821 34.0071 22.782L30.4845 19.2737ZM35.1985 22.0502L35.0736 21.7287L35.1985 22.0502L35.2404 22.1578L35.1985 22.0502ZM31.8568 17.81L31.8564 17.8096L31.3315 18.3698L31.8564 17.8096C31.8565 17.8097 31.8567 17.8099 31.8568 17.81Z" fill="var(--e-color-icon-positive)"/>
</svg>
