<svg width="40" height="40" viewBox="0 0 40 40" fill="none" xmlns="http://www.w3.org/2000/svg">
<path fill-rule="evenodd" clip-rule="evenodd" d="M10 3.75C10 2.75544 10.3951 1.80161 11.0983 1.09835C11.8016 0.395088 12.7554 0 13.75 0H36.25C37.2446 0 38.1984 0.395088 38.9016 1.09835C39.6049 1.80161 40 2.75544 40 3.75V21.25C40 22.2446 39.6049 23.1984 38.9016 23.9016C38.1984 24.6049 37.2446 25 36.25 25H28.75C28.0596 25 27.5 24.4404 27.5 23.75C27.5 23.0596 28.0596 22.5 28.75 22.5H36.25C36.5815 22.5 36.8995 22.3683 37.1339 22.1339C37.3683 21.8995 37.5 21.5815 37.5 21.25V10H12.5V18.75C12.5 19.4404 11.9404 20 11.25 20C10.5596 20 10 19.4404 10 18.75V3.75ZM12.8661 2.86612C13.1005 2.6317 13.4185 2.5 13.75 2.5H36.25C36.5815 2.5 36.8995 2.6317 37.1339 2.86612C37.3683 3.10054 37.5 3.41848 37.5 3.75V7.5H12.5V3.75C12.5 3.41848 12.6317 3.10054 12.8661 2.86612Z" fill="var(--e-color-icon-stroke-1)"/>
<path fill-rule="evenodd" clip-rule="evenodd" d="M2.43063 35.0057L2.43237 35.0052L2.43063 35.0057ZM2.5 35.0279V37.4956C2.50332 37.4963 2.50672 37.4969 2.51019 37.4975C2.51754 37.4987 2.5236 37.4995 2.52793 37.5H14.9956C14.9963 37.4967 14.9969 37.4933 14.9975 37.4898C14.9987 37.4825 14.9995 37.4764 15 37.4721V35.0044C14.9967 35.0037 14.9933 35.0031 14.9898 35.0025C14.9825 35.0013 14.9764 35.0005 14.9721 35H2.50435C2.50371 35.0033 2.5031 35.0067 2.50252 35.0102C2.5013 35.0175 2.5005 35.0236 2.5 35.0279ZM15 33.75C15 32.5 15.0012 32.5 15.0012 32.5L15.0051 32.5L15.0108 32.5L15.0237 32.5002L15.0557 32.501C15.0796 32.5018 15.1089 32.5032 15.1428 32.5056C15.2102 32.5104 15.2983 32.5195 15.4008 32.5365C15.5999 32.5697 15.8844 32.6384 16.184 32.7882C16.4886 32.9405 16.8311 33.1885 17.0947 33.584C17.3636 33.9872 17.5 34.4688 17.5 35V37.5H16.25C17.5 37.5 17.5 37.5 17.5 37.5L17.5 37.5051L17.5 37.5108L17.4998 37.5237L17.499 37.5557C17.4982 37.5796 17.4968 37.6089 17.4944 37.6428C17.4896 37.7102 17.4805 37.7983 17.4635 37.9008C17.4303 38.0999 17.3616 38.3844 17.2118 38.684C17.0595 38.9886 16.8115 39.3311 16.416 39.5948C16.0128 39.8636 15.5312 40 15 40H2.5V38.75C2.5 40 2.5 40 2.5 40L2.49749 40L2.49485 40L2.48917 40L2.47626 39.9998L2.44432 39.999C2.42042 39.9982 2.39115 39.9968 2.35723 39.9944C2.28982 39.9896 2.20168 39.9805 2.09919 39.9635C1.90014 39.9303 1.61563 39.8616 1.31598 39.7118C1.01145 39.5595 0.668883 39.3115 0.40525 38.916C0.136399 38.5128 0 38.0312 0 37.5V35H1.25C0 35 0 35 0 35L2.48353e-06 34.9975L1.03315e-05 34.9949L4.41074e-05 34.9892L0.000200669 34.9763L0.000999073 34.9443C0.00179559 34.9204 0.00319531 34.8911 0.00561804 34.8572C0.0104331 34.7898 0.0194574 34.7017 0.0365388 34.5992C0.0697143 34.4001 0.138394 34.1156 0.288216 33.816C0.440485 33.5114 0.688518 33.1689 1.08397 32.9052C1.48724 32.6364 1.96877 32.5 2.5 32.5L15.0012 32.5L15 33.75ZM2.50568 37.5694L2.5052 37.5676L2.50568 37.5694ZM15.0694 37.4943L15.0676 37.4948L15.0694 37.4943Z" fill="var(--e-color-icon-positive)"/>
<path d="M24.9037 15.768C24.8441 15.6252 24.7569 15.4913 24.642 15.3743C24.6366 15.3688 24.6312 15.3634 24.6257 15.358C24.4002 15.1366 24.091 15 23.75 15H16.25C15.5596 15 15 15.5596 15 16.25C15 16.9404 15.5596 17.5 16.25 17.5H20.7322L10.9911 27.2411C10.503 27.7293 10.503 28.5207 10.9911 29.0089C11.4793 29.497 12.2707 29.497 12.7589 29.0089L22.5 19.2678V23.75C22.5 24.4404 23.0596 25 23.75 25C24.4404 25 25 24.4404 25 23.75V16.25C25 16.0792 24.9657 15.9163 24.9037 15.768Z" fill="var(--e-color-icon-stroke-1)"/>
</svg>
