<svg width="40" height="40" viewBox="0 0 40 40" fill="none" xmlns="http://www.w3.org/2000/svg">
<path fill-rule="evenodd" clip-rule="evenodd" d="M3.73883 3.47826C3.03842 3.47826 2.47423 4.04545 2.47423 4.74066V10.9945C2.47423 11.6897 3.03842 12.2569 3.73883 12.2569H36.2612C36.9616 12.2569 37.5258 11.6897 37.5258 10.9945V4.74066C37.5258 4.04545 36.9616 3.47826 36.2612 3.47826H3.73883ZM0 4.74066C0 2.67276 1.67592 1 3.73883 1H36.2612C38.3241 1 40 2.67276 40 4.74066V10.9945C40 13.0624 38.3241 14.7351 36.2612 14.7351H3.73883C1.67592 14.7351 0 13.0624 0 10.9945V4.74066Z" fill="var(--e-color-icon-stroke-1)"/>
<path fill-rule="evenodd" clip-rule="evenodd" d="M36.2612 36.5217C36.9616 36.5217 37.5258 35.9546 37.5258 35.2593L37.5258 20.2502C37.5258 19.555 36.9616 18.9878 36.2612 18.9878L3.73884 18.9878C3.03843 18.9878 2.47423 19.555 2.47423 20.2502L2.47423 35.2593C2.47423 35.9546 3.03843 36.5217 3.73884 36.5217L36.2612 36.5217ZM40 35.2593C40 37.3272 38.3241 39 36.2612 39L3.73884 39C1.67593 39 7.77564e-06 37.3272 7.95644e-06 35.2593L9.26868e-06 20.2502C9.44948e-06 18.1823 1.67593 16.5095 3.73884 16.5095L36.2612 16.5095C38.3241 16.5095 40 18.1823 40 20.2502L40 35.2593Z" fill="var(--e-color-icon-stroke-1)"/>
<path fill-rule="evenodd" clip-rule="evenodd" d="M0 27.7552C0 27.0709 0.553874 26.5161 1.23711 26.5161H38.7629C39.4461 26.5161 40 27.0709 40 27.7552C40 28.4396 39.4461 28.9944 38.7629 28.9944H1.23711C0.553874 28.9944 0 28.4396 0 27.7552Z" fill="var(--e-color-icon-stroke-1)"/>
<path d="M20.4389 6.00115C20.6818 5.90094 20.942 5.84961 21.2047 5.8501C21.5997 5.85042 21.9858 5.9677 22.3143 6.18716C22.6432 6.40693 22.8995 6.71928 23.0509 7.08473C23.2023 7.45019 23.2419 7.85232 23.1647 8.24028C23.0875 8.62823 22.897 8.9846 22.6173 9.26431C22.3376 9.54401 21.9813 9.7345 21.5933 9.81167C21.2053 9.88884 20.8032 9.84923 20.4378 9.69786C20.0723 9.54648 19.76 9.29014 19.5402 8.96124C19.3207 8.63279 19.2034 8.24671 19.2031 7.85171C19.2026 7.58899 19.254 7.32875 19.3542 7.08588C19.4546 6.84252 19.6021 6.62141 19.7883 6.43526C19.9744 6.24911 20.1955 6.10158 20.4389 6.00115Z" fill="var(--e-color-icon-positive)"/>
<path d="M13.3373 6.00115C13.5802 5.90094 13.8405 5.84961 14.1032 5.8501C14.4982 5.85042 14.8843 5.9677 15.2127 6.18716C15.5416 6.40693 15.7979 6.71928 15.9493 7.08473C16.1007 7.45019 16.1403 7.85232 16.0631 8.24028C15.986 8.62823 15.7955 8.9846 15.5158 9.26431C15.2361 9.54401 14.8797 9.7345 14.4917 9.81167C14.1038 9.88884 13.7016 9.84923 13.3362 9.69786C12.9707 9.54648 12.6584 9.29014 12.4386 8.96124C12.2192 8.63279 12.1019 8.24671 12.1016 7.85171C12.1011 7.58899 12.1524 7.32875 12.2526 7.08588C12.353 6.84252 12.5006 6.62141 12.6867 6.43526C12.8729 6.24911 13.094 6.10158 13.3373 6.00115Z" fill="var(--e-color-icon-positive)"/>
<path d="M6.23579 6.00115C6.47865 5.90094 6.73889 5.84961 7.00161 5.8501C7.39661 5.85042 7.78269 5.9677 8.11114 6.18716C8.44004 6.40693 8.69638 6.71928 8.84776 7.08473C8.99913 7.45019 9.03874 7.85232 8.96157 8.24028C8.8844 8.62823 8.69392 8.9846 8.41421 9.26431C8.13451 9.54401 7.77815 9.7345 7.39018 9.81167C7.00222 9.88884 6.60008 9.84923 6.23463 9.69786C5.86918 9.54648 5.55683 9.29014 5.33706 8.96124C5.1176 8.63279 5.00032 8.24671 5 7.85171C4.99951 7.58899 5.05084 7.32875 5.15106 7.08588C5.25148 6.84252 5.39901 6.62141 5.58516 6.43526C5.77131 6.24911 5.99242 6.10158 6.23579 6.00115Z" fill="var(--e-color-icon-positive)"/>
</svg>
