<svg width="40" height="40" viewBox="0 0 40 40" fill="none" xmlns="http://www.w3.org/2000/svg">
<path fill-rule="evenodd" clip-rule="evenodd" d="M3.68627 8.4C2.94989 8.4 2.35294 9.00889 2.35294 9.76V30.24C2.35294 30.9911 2.94989 31.6 3.68627 31.6H36.3137C37.0501 31.6 37.6471 30.9911 37.6471 30.24V9.76C37.6471 9.00889 37.0501 8.4 36.3137 8.4H3.68627ZM0 9.76C0 7.68341 1.6504 6 3.68627 6H36.3137C38.3496 6 40 7.68341 40 9.76V30.24C40 32.3166 38.3496 34 36.3137 34H3.68627C1.6504 34 0 32.3166 0 30.24V9.76Z" fill="var(--e-color-icon-stroke-1)"/>
<path fill-rule="evenodd" clip-rule="evenodd" d="M6.27344 22.25C6.27344 21.5596 6.80016 21 7.44991 21H13.7244C14.3742 21 14.9009 21.5596 14.9009 22.25C14.9009 22.9404 14.3742 23.5 13.7244 23.5H7.44991C6.80016 23.5 6.27344 22.9404 6.27344 22.25Z" fill="var(--e-color-icon-stroke-1)"/>
<path fill-rule="evenodd" clip-rule="evenodd" d="M6.27344 27.25C6.27344 26.5596 6.81709 26 7.48772 26H22.0592C22.7298 26 23.2734 26.5596 23.2734 27.25C23.2734 27.9404 22.7298 28.5 22.0592 28.5H7.48772C6.81709 28.5 6.27344 27.9404 6.27344 27.25Z" fill="var(--e-color-icon-stroke-1)"/>
<path fill-rule="evenodd" clip-rule="evenodd" d="M27.4603 13.381C27.4165 13.381 27.381 13.4165 27.381 13.4603V18.5397C27.381 18.5835 27.4165 18.619 27.4603 18.619H32.5397C32.5835 18.619 32.619 18.5835 32.619 18.5397V13.4603C32.619 13.4165 32.5835 13.381 32.5397 13.381H27.4603ZM25 13.4603C25 12.1015 26.1015 11 27.4603 11H32.5397C33.8985 11 35 12.1015 35 13.4603V18.5397C35 19.8985 33.8985 21 32.5397 21H27.4603C26.1015 21 25 19.8985 25 18.5397V13.4603Z" fill="var(--e-color-icon-positive)"/>
</svg>
