<svg width="40" height="40" viewBox="0 0 40 40" fill="none" xmlns="http://www.w3.org/2000/svg">
<path fill-rule="evenodd" clip-rule="evenodd" d="M36.2612 37.563C36.9616 37.563 37.5258 37.0052 37.5258 36.3216L37.5258 14.6784C37.5258 13.9948 36.9616 13.437 36.2612 13.437L3.73884 13.437C3.03843 13.437 2.47423 13.9948 2.47423 14.6784L2.47423 36.3216C2.47423 37.0052 3.03843 37.563 3.73884 37.563L36.2612 37.563ZM40 36.3216C40 38.3551 38.3241 40 36.2612 40L3.73884 40C1.67593 40 7.77564e-06 38.3551 7.95644e-06 36.3216L9.88069e-06 14.6784C1.00615e-05 12.6449 1.67593 11 3.73884 11L36.2612 11C38.3241 11 40 12.6449 40 14.6784L40 36.3216Z" fill="var(--e-color-icon-stroke-1)"/>
<path fill-rule="evenodd" clip-rule="evenodd" d="M0 29.9097C0 29.2367 0.553874 28.6912 1.23711 28.6912H38.7629C39.4461 28.6912 40 29.2367 40 29.9097C40 30.5827 39.4461 31.1282 38.7629 31.1282H1.23711C0.553874 31.1282 0 30.5827 0 29.9097Z" fill="var(--e-color-icon-stroke-1)"/>
<path fill-rule="evenodd" clip-rule="evenodd" d="M0 21.0596C0 20.3866 0.553874 19.8411 1.23711 19.8411H38.7629C39.4461 19.8411 40 20.3866 40 21.0596C40 21.7326 39.4461 22.2781 38.7629 22.2781H1.23711C0.553874 22.2781 0 21.7326 0 21.0596Z" fill="var(--e-color-icon-stroke-1)"/>
<circle cx="4.5" cy="4.5" r="3.4" stroke="var(--e-color-icon-positive)" stroke-width="2.2"/>
</svg>
