<svg width="40" height="40" viewBox="0 0 40 40" fill="none" xmlns="http://www.w3.org/2000/svg">
<path fill-rule="evenodd" clip-rule="evenodd" d="M3.73883 7.99278C3.02172 7.99278 2.47423 8.55977 2.47423 9.21777V36.3008C2.47423 36.9588 3.02172 37.5258 3.73883 37.5258H36.2612C36.9783 37.5258 37.5258 36.9588 37.5258 36.3008V9.21777C37.5258 8.55977 36.9783 7.99278 36.2612 7.99278H3.73883ZM0 9.21777C0 7.1562 1.69262 5.51855 3.73883 5.51855H36.2612C38.3074 5.51855 40 7.1562 40 9.21777V36.3008C40 38.3624 38.3074 40.0001 36.2612 40.0001H3.73883C1.69262 40.0001 0 38.3624 0 36.3008V9.21777Z" fill="var(--e-color-icon-stroke-1)"/>
<path fill-rule="evenodd" clip-rule="evenodd" d="M0 16.6893C0 16.006 0.553874 15.4521 1.23711 15.4521H38.7629C39.4461 15.4521 40 16.006 40 16.6893C40 17.3725 39.4461 17.9264 38.7629 17.9264H1.23711C0.553874 17.9264 0 17.3725 0 16.6893Z" fill="var(--e-color-icon-stroke-1)"/>
<path fill-rule="evenodd" clip-rule="evenodd" d="M11.1707 0C11.8539 0 12.4078 0.553875 12.4078 1.23711V10.0667C12.4078 10.7499 11.8539 11.3038 11.1707 11.3038C10.4875 11.3038 9.93359 10.7499 9.93359 10.0667V1.23711C9.93359 0.553875 10.4875 0 11.1707 0Z" fill="var(--e-color-icon-stroke-1)"/>
<path fill-rule="evenodd" clip-rule="evenodd" d="M28.8289 0C29.5121 0 30.066 0.553875 30.066 1.23711V10.0667C30.066 10.7499 29.5121 11.3038 28.8289 11.3038C28.1457 11.3038 27.5918 10.7499 27.5918 10.0667V1.23711C27.5918 0.553875 28.1457 0 28.8289 0Z" fill="var(--e-color-icon-stroke-1)"/>
<path d="M29.9992 32.6527C29.3596 32.6527 28.7757 32.5368 28.2473 32.3051C27.719 32.0641 27.2694 31.735 26.8986 31.3179C26.5279 30.8915 26.2359 30.377 26.0227 29.7745C25.8188 29.172 25.7168 28.5093 25.7168 27.7863C25.7168 27.0076 25.828 26.2985 26.0505 25.659C26.2822 25.0194 26.602 24.4771 27.0099 24.0322C27.427 23.578 27.9275 23.2258 28.5115 22.9755C29.0955 22.7252 29.7397 22.6001 30.4441 22.6001C30.9818 22.6001 31.524 22.6974 32.0709 22.8921C32.6178 23.0867 33.0627 23.3416 33.4057 23.6568L32.1682 25.1862C31.8994 24.9545 31.6121 24.7877 31.3062 24.6857C31.0096 24.5745 30.6666 24.5188 30.2773 24.5188C29.4894 24.5188 28.8869 24.8108 28.4698 25.3948C28.0527 25.9695 27.8441 26.7898 27.8441 27.8558C28.15 27.4201 28.5208 27.0818 28.9564 26.8408C29.3921 26.5998 29.8509 26.4793 30.3329 26.4793C30.8056 26.4793 31.2413 26.5535 31.6399 26.7018C32.0477 26.8501 32.3953 27.054 32.6827 27.3135C32.97 27.5638 33.1925 27.8743 33.3501 28.2451C33.5169 28.6066 33.6003 29.0005 33.6003 29.4269C33.6003 29.8904 33.5076 30.3214 33.3223 30.72C33.1461 31.1093 32.8959 31.4476 32.5714 31.735C32.2563 32.0223 31.8762 32.2494 31.4313 32.4163C30.9957 32.5739 30.5183 32.6527 29.9992 32.6527ZM29.9714 28.1478C29.5728 28.1478 29.2021 28.2219 28.8591 28.3702C28.5254 28.5185 28.2288 28.7271 27.9692 28.9959C28.1083 29.5521 28.3446 29.997 28.6783 30.3307C29.0213 30.6551 29.4245 30.8173 29.888 30.8173C30.3422 30.8173 30.7222 30.6922 31.0281 30.4419C31.3433 30.1824 31.5008 29.858 31.5008 29.4686C31.5008 29.0793 31.3572 28.7642 31.0698 28.5232C30.7917 28.2729 30.4256 28.1478 29.9714 28.1478Z" fill="var(--e-color-icon-stroke-1)"/>
<path d="M6.44433 32.6001V31.053L10.8807 26.932C11.0506 26.782 11.1854 26.6367 11.2854 26.496C11.3853 26.346 11.4602 26.196 11.5102 26.0459C11.5601 25.8959 11.5851 25.7459 11.5851 25.5959C11.5851 25.2771 11.4352 25.0145 11.1355 24.8083C10.8457 24.5926 10.481 24.4848 10.0414 24.4848C9.57176 24.4848 9.13212 24.5785 8.72246 24.7661C8.3128 24.9442 7.86816 25.2536 7.38855 25.6943L6.09961 24.2175C6.69912 23.6831 7.3336 23.2799 8.00305 23.008C8.68249 22.7361 9.38691 22.6001 10.1163 22.6001C10.8657 22.6001 11.5152 22.722 12.0647 22.9658C12.6243 23.2002 13.0589 23.5331 13.3687 23.9644C13.6784 24.3863 13.8333 24.8833 13.8333 25.4552C13.8333 25.7647 13.7833 26.0647 13.6834 26.3554C13.5935 26.6367 13.4486 26.9133 13.2488 27.1852C13.0489 27.4571 12.7891 27.7384 12.4694 28.0291L9.44187 30.7717L13.9831 30.7576V32.6001H6.44433Z" fill="var(--e-color-icon-stroke-1)"/>
<path d="M18.1004 29.0001C17.4376 29.0001 16.9004 28.4628 16.9004 27.8001C16.9004 27.1374 17.4376 26.6001 18.1004 26.6001H21.5004C22.1631 26.6001 22.7004 27.1374 22.7004 27.8001C22.7004 28.4628 22.1631 29.0001 21.5004 29.0001H18.1004Z" fill="var(--e-color-icon-positive)"/>
</svg>
