<svg width="40" height="40" viewBox="0 0 40 40" fill="none" xmlns="http://www.w3.org/2000/svg">
<g clip-path="url(#clip0_10056_90447)">
<path d="M1.25 40C0.56 40 0 39.44 0 38.75C0 38.06 0.56 37.5 1.25 37.5H2.5V32.0833C2.5 30.935 3.435 30 4.58333 30H9.16833C10.3167 30 11.2517 30.935 11.2517 32.0833V37.5H15V17.0833C15 15.935 15.935 15 17.0833 15H21.6683C22.8167 15 23.7517 15.935 23.7517 17.0833V37.5H27.5017V24.5833C27.5017 23.4367 28.435 22.5017 29.5817 22.5H34.1683C35.3167 22.5 36.2517 23.435 36.2517 24.5833V37.5H37.5C38.19 37.5 38.75 38.06 38.75 38.75C38.75 39.44 38.19 40 37.5 40H1.25ZM33.7517 37.5V25H30.0017V37.5H33.7517ZM21.2517 37.5V17.5H17.5V37.5H21.2517ZM8.75167 37.5V32.5H5V37.5H8.75167Z" fill="var(--e-color-icon-stroke-1)"/>
<path d="M3.75 21.2517C1.68167 21.2517 0 19.57 0 17.5017C0 15.4333 1.68167 13.7517 3.75 13.7517C3.97333 13.7517 4.19833 13.7717 4.42167 13.8133L10.0633 8.17667C10.0217 7.95167 10 7.72667 10 7.5C10 5.43167 11.6817 3.75 13.75 3.75C15.8183 3.75 17.5 5.43167 17.5 7.5C17.5 7.515 17.5 7.53167 17.5 7.54667L23.2017 9.07167C23.9 8.09167 25.0283 7.5 26.2517 7.5C26.8583 7.5 27.4483 7.645 27.9817 7.925L32.5517 4.35167C32.5183 4.15 32.5017 3.95 32.5017 3.75C32.5017 1.68167 34.185 0 36.2517 0C38.3183 0 40.0017 1.68167 40.0017 3.75C40.0017 5.81833 38.32 7.5 36.2517 7.5C35.3317 7.5 34.4583 7.165 33.7783 6.56667L29.6917 9.76167C29.895 10.23 30.0017 10.7367 30.0017 11.25C30.0017 13.3183 28.32 15 26.2517 15C24.26 15 22.625 13.4383 22.5083 11.4767L16.625 9.90333C15.9167 10.755 14.8717 11.2517 13.75 11.2517C12.8767 11.2517 12.04 10.9467 11.375 10.4L6.64667 15.1233C7.195 15.79 7.5 16.6267 7.5 17.5017C7.5 19.57 5.81833 21.2517 3.75 21.2517ZM3.75 16.2517C3.06 16.2517 2.5 16.8117 2.5 17.5017C2.5 18.1917 3.06 18.7517 3.75 18.7517C4.44 18.7517 5 18.1917 5 17.5017C5 16.8117 4.44 16.2517 3.75 16.2517ZM26.2517 10C25.5633 10 25.0017 10.56 25.0017 11.25C25.0017 11.94 25.5617 12.5 26.2517 12.5C26.9417 12.5 27.5017 11.94 27.5017 11.25C27.5017 10.56 26.9417 10 26.2517 10ZM13.75 6.25167C13.06 6.25167 12.5 6.81167 12.5 7.50167C12.5 8.19167 13.06 8.75167 13.75 8.75167C14.44 8.75167 15 8.19167 15 7.50167C15 6.81167 14.44 6.25167 13.75 6.25167ZM36.2517 2.5C35.5633 2.5 35.0017 3.06 35.0017 3.75C35.0017 4.44 35.5633 5 36.2517 5C36.94 5 37.5017 4.44 37.5017 3.75C37.5017 3.06 36.9417 2.5 36.2517 2.5Z" fill="var(--e-color-icon-positive)"/>
</g>
<defs>
<clipPath id="clip0_10056_90447">
<rect width="40" height="40" fill="white"/>
</clipPath>
</defs>
</svg>
