<svg width="40" height="40" viewBox="0 0 40 40" fill="none" xmlns="http://www.w3.org/2000/svg">
<path fill-rule="evenodd" clip-rule="evenodd" d="M2.5 8.5V31.5H37.5V8.5H2.5ZM2 6C0.895431 6 0 6.89543 0 8V32C0 33.1046 0.895431 34 2 34H38C39.1046 34 40 33.1046 40 32V8C40 6.89543 39.1046 6 38 6H2Z" fill="var(--e-color-icon-positive)"/>
<path fill-rule="evenodd" clip-rule="evenodd" d="M26 13.5H14C10.4101 13.5 7.5 16.4101 7.5 20C7.5 23.5899 10.4101 26.5 14 26.5H26C29.5899 26.5 32.5 23.5899 32.5 20C32.5 16.4101 29.5899 13.5 26 13.5ZM14 11C9.02944 11 5 15.0294 5 20C5 24.9706 9.02944 29 14 29H26C30.9706 29 35 24.9706 35 20C35 15.0294 30.9706 11 26 11H14Z" fill="var(--e-color-icon-stroke-1)"/>
</svg>
