<svg width="40" height="40" viewBox="0 0 40 40" fill="none" xmlns="http://www.w3.org/2000/svg">
<path fill-rule="evenodd" clip-rule="evenodd" d="M36 10H4C3.17157 10 2.5 10.6716 2.5 11.5V28.5C2.5 29.3284 3.17157 30 4 30H36C36.8284 30 37.5 29.3284 37.5 28.5V11.5C37.5 10.6716 36.8284 10 36 10ZM4 7.5C1.79086 7.5 0 9.29086 0 11.5V28.5C0 30.7091 1.79086 32.5 4 32.5H36C38.2091 32.5 40 30.7091 40 28.5V11.5C40 9.29086 38.2091 7.5 36 7.5H4Z" fill="var(--e-color-icon-stroke-1)"/>
<path fill-rule="evenodd" clip-rule="evenodd" d="M28.3265 15.366C27.8783 15.8403 27.8934 16.5939 28.3603 17.0493L31.386 20L28.3603 22.9507C27.8934 23.4061 27.8783 24.1597 28.3265 24.634C28.7747 25.1083 29.5165 25.1236 29.9834 24.6683L33.8897 20.8588C34.1199 20.6343 34.25 20.3242 34.25 20C34.25 19.6758 34.1199 19.3657 33.8897 19.1412L29.9834 15.3317C29.5165 14.8764 28.7747 14.8917 28.3265 15.366Z" fill="var(--e-color-icon-positive)"/>
<path fill-rule="evenodd" clip-rule="evenodd" d="M9.5 18.2069C8.5097 18.2069 7.7069 19.0097 7.7069 20C7.7069 20.9903 8.5097 21.7931 9.5 21.7931C10.4903 21.7931 11.2931 20.9903 11.2931 20C11.2931 19.0097 10.4903 18.2069 9.5 18.2069ZM5.5 20C5.5 17.7909 7.29086 16 9.5 16C11.7091 16 13.5 17.7909 13.5 20C13.5 22.2091 11.7091 24 9.5 24C7.29086 24 5.5 22.2091 5.5 20Z" fill="var(--e-color-icon-stroke-1)"/>
<path fill-rule="evenodd" clip-rule="evenodd" d="M20.5 18.2069C19.5097 18.2069 18.7069 19.0097 18.7069 20C18.7069 20.9903 19.5097 21.7931 20.5 21.7931C21.4903 21.7931 22.2931 20.9903 22.2931 20C22.2931 19.0097 21.4903 18.2069 20.5 18.2069ZM16.5 20C16.5 17.7909 18.2909 16 20.5 16C22.7091 16 24.5 17.7909 24.5 20C24.5 22.2091 22.7091 24 20.5 24C18.2909 24 16.5 22.2091 16.5 20Z" fill="var(--e-color-icon-stroke-1)"/>
</svg>
