<svg width="40" height="40" viewBox="0 0 40 40" fill="none" xmlns="http://www.w3.org/2000/svg">
<path fill-rule="evenodd" clip-rule="evenodd" d="M33.9222 16.293C34.399 16.7201 34.4434 17.4574 34.0214 17.9399L28.4164 24.3485C28.4162 24.3487 28.4161 24.3489 28.4159 24.3491C28.2452 24.5444 28.0348 24.708 27.7925 24.8229C27.5494 24.9381 27.2828 25 27.0094 25C26.736 25 26.4695 24.9381 26.2264 24.8229C25.984 24.708 25.7735 24.5442 25.6028 24.3488C25.6027 24.3487 25.6026 24.3486 25.6025 24.3485L23.8406 22.3352C23.4185 21.8528 23.4627 21.1155 23.9393 20.6883C24.416 20.2611 25.1446 20.3059 25.5668 20.7882L27.0093 22.4367L32.2948 16.3935C32.7168 15.911 33.4454 15.866 33.9222 16.293Z" fill="var(--e-color-icon-positive)"/>
<path fill-rule="evenodd" clip-rule="evenodd" d="M0 20.5C0 15.2533 4.20304 11 9.38776 11H30.6122C35.797 11 40 15.2533 40 20.5C40 25.7467 35.797 30 30.6122 30H9.38776C4.20304 30 0 25.7467 0 20.5ZM9.38776 13.4783C5.55558 13.4783 2.44898 16.622 2.44898 20.5C2.44898 24.378 5.55558 27.5217 9.38776 27.5217H30.6122C34.4444 27.5217 37.551 24.378 37.551 20.5C37.551 16.622 34.4444 13.4783 30.6122 13.4783H9.38776Z" fill="var(--e-color-icon-stroke-1)"/>
<path fill-rule="evenodd" clip-rule="evenodd" d="M18 20.5C18 15.2533 22.0454 11 27.0357 11H30.9643C35.9546 11 40 15.2533 40 20.5C40 25.7467 35.9546 30 30.9643 30H27.0357C22.0454 30 18 25.7467 18 20.5ZM27.0357 13.4783C23.3472 13.4783 20.3571 16.622 20.3571 20.5C20.3571 24.378 23.3472 27.5217 27.0357 27.5217H30.9643C34.6528 27.5217 37.6429 24.378 37.6429 20.5C37.6429 16.622 34.6528 13.4783 30.9643 13.4783H27.0357Z" fill="var(--e-color-icon-stroke-1)"/>
</svg>
