<svg width="40" height="40" viewBox="0 0 40 40" fill="none" xmlns="http://www.w3.org/2000/svg">
<path fill-rule="evenodd" clip-rule="evenodd" d="M37.5 12C37.5 13.933 35.933 15.5 34 15.5C32.067 15.5 30.5 13.933 30.5 12C30.5 10.067 32.067 8.5 34 8.5C35.933 8.5 37.5 10.067 37.5 12ZM40 12C40 15.3137 37.3137 18 34 18C31.027 18 28.559 15.8377 28.083 13H1.25C0.559644 13 0 12.4404 0 11.75C0 11.0596 0.559644 10.5 1.25 10.5H28.189C28.8551 7.91216 31.2042 6 34 6C37.3137 6 40 8.68629 40 12Z" fill="var(--e-color-icon-stroke-1)"/>
<path fill-rule="evenodd" clip-rule="evenodd" d="M1.25 26.75C0.559644 26.75 0 27.3096 0 28C0 28.6904 0.559644 29.25 1.25 29.25H7.25C7.94036 29.25 8.5 28.6904 8.5 28C8.5 27.3096 7.94036 26.75 7.25 26.75H1.25ZM17 26.75C16.3096 26.75 15.75 27.3096 15.75 28C15.75 28.6904 16.3096 29.25 17 29.25H38.75C39.4404 29.25 40 28.6904 40 28C40 27.3096 39.4404 26.75 38.75 26.75H17Z" fill="var(--e-color-icon-stroke-1)"/>
<path fill-rule="evenodd" clip-rule="evenodd" d="M12 31.5C13.933 31.5 15.5 29.933 15.5 28C15.5 26.067 13.933 24.5 12 24.5C10.067 24.5 8.5 26.067 8.5 28C8.5 29.933 10.067 31.5 12 31.5ZM12 34C15.3137 34 18 31.3137 18 28C18 24.6863 15.3137 22 12 22C8.68629 22 6 24.6863 6 28C6 31.3137 8.68629 34 12 34Z" fill="var(--e-color-icon-positive)"/>
</svg>
