<svg width="40" height="40" viewBox="0 0 40 40" fill="none" xmlns="http://www.w3.org/2000/svg">
<path fill-rule="evenodd" clip-rule="evenodd" d="M19.5602 7.48671C20.4949 6.6001 21.9563 6.62015 22.8669 7.53205L32.4334 17.1132C33.3772 18.0585 33.3731 19.6013 32.4243 20.5414L27.5029 25.4172C26.7202 26.1926 25.6832 26.4332 24.8845 26.5349C24.4665 26.5881 24.0488 26.61 23.6805 26.6255C23.5903 26.6292 23.5042 26.6326 23.4216 26.6359C23.1486 26.6465 22.9129 26.6558 22.6885 26.6735C22.2374 26.7091 21.5056 26.9507 20.5805 27.9323C18.9615 29.65 15.9543 32.5277 12.7058 35.6362C11.7414 36.559 10.7558 37.5022 9.77894 38.4414C7.58932 40.5465 4.12795 40.5208 1.98294 38.3532L1.62771 37.9942C-0.572715 35.7705 -0.537641 32.1546 1.7055 29.9749L12.354 19.6281C12.3877 19.5954 12.423 19.5645 12.4599 19.5356C12.5869 19.436 12.8737 19.0698 13.0913 18.4082C13.2968 17.7835 13.387 17.0499 13.2802 16.3516C13.1069 15.2179 13.1627 13.5552 14.3599 12.4196L19.5602 7.48671ZM21.1853 9.61307L16.1711 14.3695C15.9353 14.5931 15.7688 15.1141 15.8955 15.9432C16.0756 17.1207 15.9205 18.2853 15.6025 19.2519C15.3059 20.1535 14.8126 21.0444 14.1451 21.5976L3.53972 31.9026C2.36474 33.0443 2.34636 34.9384 3.49897 36.1032L3.8542 36.4622C4.97596 37.5958 6.79737 37.6167 7.95486 36.5039C8.95681 35.5406 9.9599 34.5807 10.9352 33.6473C14.169 30.5527 17.0972 27.7506 18.6642 26.0879C19.9339 24.7408 21.2422 24.1053 22.4822 24.0074C22.7639 23.9851 23.07 23.9732 23.3522 23.9622C23.4271 23.9593 23.5003 23.9565 23.5709 23.9535C23.9273 23.9386 24.2521 23.92 24.5536 23.8816C25.1938 23.8001 25.5036 23.6529 25.6503 23.5076L30.3799 18.8217L21.1853 9.61307Z" fill="var(--e-color-icon-stroke-1)"/>
<path fill-rule="evenodd" clip-rule="evenodd" d="M36.4965 4.20078C36.9777 4.75654 36.922 5.60129 36.372 6.08758L32.1379 9.83154C31.5879 10.3178 30.752 10.2615 30.2708 9.70575C29.7895 9.14999 29.8453 8.30524 30.3952 7.81896L34.6294 4.075C35.1794 3.58871 36.0153 3.64502 36.4965 4.20078Z" fill="var(--e-color-icon-positive)"/>
<path fill-rule="evenodd" clip-rule="evenodd" d="M29.21 0.141457C29.8637 0.471714 30.1286 1.27489 29.8018 1.9354L27.6847 6.21421C27.3579 6.87473 26.5631 7.14245 25.9095 6.8122C25.2558 6.48194 24.9909 5.67876 25.3177 5.01825L27.4348 0.739439C27.7616 0.0789267 28.5564 -0.188799 29.21 0.141457Z" fill="var(--e-color-icon-positive)"/>
<path fill-rule="evenodd" clip-rule="evenodd" d="M39.9158 11.565C40.1724 12.2565 39.8257 13.0272 39.1414 13.2865L34.9073 14.8911C34.223 15.1504 33.4603 14.8 33.2037 14.1086C32.9472 13.4171 33.2938 12.6464 33.9781 12.3871L38.2123 10.7825C38.8965 10.5232 39.6592 10.8736 39.9158 11.565Z" fill="var(--e-color-icon-positive)"/>
</svg>
