<svg width="40" height="40" viewBox="0 0 40 40" fill="none" xmlns="http://www.w3.org/2000/svg">
<path fill-rule="evenodd" clip-rule="evenodd" d="M35.5 29.25C35.5 30.3546 34.6046 31.25 33.5 31.25L6.5 31.25C5.39543 31.25 4.5 30.3546 4.5 29.25L4.5 28.75L20 28.75L35.5 28.75L35.5 29.25Z" fill="var(--e-color-icon-stroke-1)"/>
<path d="M4.5 22.5L4.5 28.75L7 28.75L7 24.75L7 22.5C6.01042 22.7954 5.54708 22.82 4.5 22.5Z" fill="var(--e-color-icon-stroke-1)"/>
<path fill-rule="evenodd" clip-rule="evenodd" d="M33 28.75L33 19.75L35.5 19.75L35.5 24.75L35.5 28.75L33 28.75Z" fill="var(--e-color-icon-stroke-1)"/>
<path fill-rule="evenodd" clip-rule="evenodd" d="M18.75 28.75L18.75 18.75L21.25 18.75L21.25 24.75L21.25 28.75L18.75 28.75Z" fill="var(--e-color-icon-stroke-1)"/>
<path fill-rule="evenodd" clip-rule="evenodd" d="M20 11.4167C18.1591 11.4167 16.6667 12.9091 16.6667 14.75C16.6667 16.5909 18.159 18.0833 20 18.0833C21.8409 18.0833 23.3333 16.591 23.3333 14.75C23.3333 12.9091 21.8409 11.4167 20 11.4167ZM14 14.75C14 11.4363 16.6863 8.75 20 8.75C23.3137 8.75 26 11.4363 26 14.75C26 18.0637 23.3137 20.75 20 20.75C16.6863 20.75 14 18.0637 14 14.75Z" fill="var(--e-color-icon-stroke-1)"/>
<path fill-rule="evenodd" clip-rule="evenodd" d="M6 11.4167C4.15905 11.4167 2.66667 12.9091 2.66667 14.75C2.66667 16.5909 4.15905 18.0833 6 18.0833C7.84095 18.0833 9.33333 16.591 9.33333 14.75C9.33333 12.9091 7.84095 11.4167 6 11.4167ZM-1.04907e-06 14.75C-4.69686e-07 11.4363 2.68629 8.75 6 8.75C9.31371 8.75 12 11.4363 12 14.75C12 18.0637 9.31371 20.75 6 20.75C2.68629 20.75 -1.62846e-06 18.0637 -1.04907e-06 14.75Z" fill="var(--e-color-icon-positive)"/>
<path fill-rule="evenodd" clip-rule="evenodd" d="M34 11.4167C32.1591 11.4167 30.6667 12.9091 30.6667 14.75C30.6667 16.5909 32.159 18.0833 34 18.0833C35.8409 18.0833 37.3333 16.591 37.3333 14.75C37.3333 12.9091 35.8409 11.4167 34 11.4167ZM28 14.75C28 11.4363 30.6863 8.75 34 8.75C37.3137 8.75 40 11.4363 40 14.75C40 18.0637 37.3137 20.75 34 20.75C30.6863 20.75 28 18.0637 28 14.75Z" fill="var(--e-color-icon-stroke-1)"/>
</svg>
