<svg width="40" height="40" viewBox="0 0 40 40" fill="none" xmlns="http://www.w3.org/2000/svg">
<path fill-rule="evenodd" clip-rule="evenodd" d="M3.91753 5.4878C2.90237 5.4878 2.47423 6.13907 2.47423 6.49477V33.5052C2.47423 33.8609 2.90237 34.5122 3.91753 34.5122H36.0825C37.0976 34.5122 37.5258 33.8609 37.5258 33.5052V6.49477C37.5258 6.13907 37.0976 5.4878 36.0825 5.4878H3.91753ZM0 6.49477C0 4.36424 1.97198 3 3.91753 3H36.0825C38.028 3 40 4.36424 40 6.49477V33.5052C40 35.6358 38.028 37 36.0825 37H3.91753C1.97198 37 0 35.6358 0 33.5052V6.49477Z" fill="var(--e-color-icon-stroke-1)"/>
<path fill-rule="evenodd" clip-rule="evenodd" d="M0 12.2439C0 11.5569 0.553874 11 1.23711 11H38.7629C39.4461 11 40 11.5569 40 12.2439C40 12.9309 39.4461 13.4878 38.7629 13.4878H1.23711C0.553874 13.4878 0 12.9309 0 12.2439Z" fill="var(--e-color-icon-stroke-1)"/>
<path fill-rule="evenodd" clip-rule="evenodd" d="M13.7371 11.9512C14.4204 11.9512 14.9742 12.5081 14.9742 13.1951L14.9742 34.7561C14.9742 35.443 14.4204 36 13.7371 36C13.0539 36 12.5 35.443 12.5 34.7561L12.5 13.1951C12.5 12.5081 13.0539 11.9512 13.7371 11.9512Z" fill="var(--e-color-icon-stroke-1)"/>
<path d="M17.5 8.25L5.5 8.25" stroke="var(--e-color-icon-positive)" stroke-width="2.5" stroke-linecap="round" stroke-linejoin="round"/>
</svg>
