<svg width="40" height="40" viewBox="0 0 40 40" fill="none" xmlns="http://www.w3.org/2000/svg">
<path d="M13.9017 1.09836L1.09836 1.09834L6.09248 2.5H11.25C11.5815 2.5 11.8995 2.63171 12.1339 2.86612C12.3683 3.10053 12.5 3.41849 12.5 3.75V4.29835L15 5L13.9017 1.09836Z" fill="var(--e-color-icon-stroke-1)"/>
<path fill-rule="evenodd" clip-rule="evenodd" d="M3.75 0C2.75546 0 1.80162 0.395076 1.09836 1.09834C0.395092 1.8016 0 2.75546 0 3.75V30.9167C0 31.607 0.559644 32.1667 1.25 32.1667C1.94036 32.1667 2.5 31.607 2.5 30.9167V3.75C2.5 3.41848 2.63172 3.10051 2.86612 2.86611C3.10053 2.6317 3.41848 2.5 3.75 2.5H6.09248L1.09836 1.09834L13.9017 1.09836L15 5L12.5 4.29835V6.25C12.5 6.94036 13.0596 7.5 13.75 7.5H28.75C29.0815 7.5 29.3996 7.63173 29.6339 7.86612C29.8683 8.10047 30 8.4184 30 8.75V11.25C30 11.9404 30.5596 12.5 31.25 12.5C31.9404 12.5 32.5 11.9404 32.5 11.25V8.75C32.5 7.75553 32.105 6.80166 31.4017 6.09835C30.6984 5.39507 29.7445 5 28.75 5H15V3.75C15 2.75544 14.6049 1.8016 13.9017 1.09836C13.1984 0.395082 12.2445 0 11.25 0H3.75Z" fill="var(--e-color-icon-stroke-1)"/>
<path fill-rule="evenodd" clip-rule="evenodd" d="M8.75 12.5C8.41849 12.5 8.10053 12.6317 7.86612 12.8661C7.6317 13.1005 7.5 13.4185 7.5 13.75V33.75C7.5 34.4404 6.94036 35 6.25 35C5.55964 35 5 34.4404 5 33.75V13.75C5 12.7554 5.3951 11.8016 6.09835 11.0984C6.8016 10.3951 7.75544 10 8.75 10H33.75C34.7445 10 35.6984 10.3951 36.4017 11.0984C37.105 11.8017 37.5 12.7555 37.5 13.75V16.25C37.5 16.9404 36.9404 17.5 36.25 17.5C35.5596 17.5 35 16.9404 35 16.25V13.75C35 13.4184 34.8683 13.1005 34.6339 12.8661C34.3996 12.6317 34.0815 12.5 33.75 12.5H8.75Z" fill="var(--e-color-icon-stroke-1)"/>
<path fill-rule="evenodd" clip-rule="evenodd" d="M10 18.75C10 16.679 11.6789 15 13.75 15H36.25C38.321 15 40 16.679 40 18.75V36.25C40 38.321 38.321 40 36.25 40H13.75C11.6789 40 10 38.321 10 36.25V18.75ZM13.75 17.5C13.0597 17.5 12.5 18.0597 12.5 18.75V36.25C12.5 36.9403 13.0597 37.5 13.75 37.5H36.25C36.9403 37.5 37.5 36.9403 37.5 36.25V18.75C37.5 18.0597 36.9403 17.5 36.25 17.5H13.75Z" fill="var(--e-color-icon-stroke-1)"/>
<path fill-rule="evenodd" clip-rule="evenodd" d="M18.75 24.375C19.0952 24.375 19.375 24.0952 19.375 23.75C19.375 23.4048 19.0952 23.125 18.75 23.125V21.875C17.7145 21.875 16.875 22.7145 16.875 23.75C16.875 24.7855 17.7145 25.625 18.75 25.625V24.375Z" fill="var(--e-color-icon-stroke-1)"/>
<path fill-rule="evenodd" clip-rule="evenodd" d="M18.75 21.875C19.7855 21.875 20.625 22.7145 20.625 23.75C20.625 24.7855 19.7855 25.625 18.75 25.625V24.375C18.4048 24.375 18.125 24.0952 18.125 23.75C18.125 23.4048 18.4048 23.125 18.75 23.125V21.875Z" fill="var(--e-color-icon-stroke-1)"/>
<path fill-rule="evenodd" clip-rule="evenodd" d="M26.314 24.4006C26.6152 24.2445 26.9499 24.1643 27.2891 24.1671C27.6283 24.1698 27.9617 24.2554 28.2603 24.4164C28.5589 24.5774 28.8137 24.8089 29.0024 25.0908L29.0049 25.0945L34.3799 33.2001C34.592 33.5199 34.611 33.9304 34.4296 34.2684C34.2481 34.6065 33.8955 34.8175 33.5118 34.8175H16.8757C16.4914 34.8175 16.1384 34.6059 15.9571 34.2671C15.7759 33.9283 15.7959 33.5172 16.0092 33.1976L19.5451 27.8993C19.7052 27.6593 19.9136 27.4548 20.1567 27.2995C20.3999 27.1441 20.6728 27.0409 20.958 26.9965C21.2432 26.9521 21.5345 26.9675 21.8134 27.0416C22.0924 27.1157 22.3529 27.247 22.5784 27.4271L23.4298 28.1078L25.5627 25.0607C25.7558 24.7829 26.0137 24.5564 26.314 24.4006ZM27.2723 26.2514L31.5711 32.7341H18.8232L21.2782 29.0554L22.996 30.4283C23.2208 30.608 23.5099 30.6867 23.7947 30.6457C24.0796 30.6048 24.3348 30.4478 24.4999 30.212L27.2707 26.2537L27.2723 26.2514Z" fill="var(--e-color-icon-positive)"/>
</svg>
