<svg width="40" height="40" viewBox="0 0 40 40" fill="none" xmlns="http://www.w3.org/2000/svg">
<path d="M21.25 1.5C21.25 0.809644 20.6904 0.25 20 0.25C19.3096 0.25 18.75 0.809644 18.75 1.5V7C18.75 7.69036 19.3096 8.25 20 8.25C20.6904 8.25 21.25 7.69036 21.25 7V1.5Z" fill="var(--e-color-icon-positive)"/>
<path d="M30.8888 5.68582C31.2676 5.10865 31.1067 4.33371 30.5296 3.95494C29.9524 3.57617 29.1775 3.73701 28.7987 4.31418L25.8456 8.81418C25.4668 9.39135 25.6276 10.1663 26.2048 10.5451C26.782 10.9238 27.5569 10.763 27.9357 10.1858L30.8888 5.68582Z" fill="var(--e-color-icon-positive)"/>
<path d="M36.4941 13.0679C37.1024 12.7415 37.3309 11.9837 37.0045 11.3754C36.6781 10.7671 35.9204 10.5386 35.312 10.865L30.8634 13.2522C30.2551 13.5786 30.0266 14.3363 30.353 14.9447C30.6795 15.553 31.4372 15.7815 32.0455 15.455L36.4941 13.0679Z" fill="var(--e-color-icon-positive)"/>
<path d="M28.332 29.6676C27.9764 29.6676 27.6404 29.5289 27.3897 29.2764L19.0573 20.9422C18.9329 20.8178 18.8351 20.672 18.7675 20.5067C18.7622 20.4924 18.7569 20.4764 18.7515 20.4622C18.6946 20.3093 18.668 20.1564 18.668 20V13.3333C18.668 12.5973 19.2653 12 20.0013 12C20.7373 12 21.3346 12.5973 21.3346 13.3333V19.4471L29.276 27.3902C29.5284 27.6427 29.6671 27.9769 29.6671 28.3324C29.6671 28.688 29.5284 29.024 29.276 29.2747C29.0235 29.5253 28.6875 29.6676 28.332 29.6676Z" fill="var(--e-color-icon-stroke-1)"/>
<path d="M20 40C8.97244 40 0 31.0276 0 20C0 8.97244 8.97244 0 20 0C31.0276 0 40 8.97244 40 20C40 31.0276 31.0276 40 20 40ZM20 2.66667C10.4427 2.66667 2.66667 10.4427 2.66667 20C2.66667 29.5573 10.4427 37.3333 20 37.3333C29.5573 37.3333 37.3333 29.5573 37.3333 20C37.3333 10.4427 29.5573 2.66667 20 2.66667Z" fill="var(--e-color-icon-stroke-1)"/>
</svg>
