<svg width="24" height="24" viewBox="0 0 24 24" fill="none" xmlns="http://www.w3.org/2000/svg">
<g clip-path="url(#clip0)">
<path fill-rule="evenodd" clip-rule="evenodd" d="M16.8474 12.1017C16.8474 11.5962 16.4376 11.1865 15.9322 11.1865C15.4267 11.1865 15.0169 11.5962 15.0169 12.1017V14.8475H14.1017C13.5962 14.8475 13.1864 15.2573 13.1864 15.7627C13.1864 16.9764 13.6686 18.1404 14.5268 18.9986C15.166 19.6378 15.9748 20.0684 16.8475 20.2466V23.0848C16.8475 23.5903 17.2572 24 17.7627 24C18.2682 24 18.678 23.5903 18.678 23.0848V20.2466C19.5506 20.0684 20.3594 19.6378 20.9986 18.9986C21.8568 18.1404 22.339 16.9764 22.339 15.7627C22.339 15.2573 21.9292 14.8475 21.4237 14.8475H20.5084V12.1017C20.5084 11.5962 20.0987 11.1865 19.5932 11.1865C19.0877 11.1865 18.6779 11.5962 18.6779 12.1017V14.8475H16.8474V12.1017ZM19.5932 16.678L19.5941 16.678H20.3514C20.2162 17.0605 19.9966 17.4119 19.7043 17.7043C19.1893 18.2192 18.4909 18.5085 17.7627 18.5085C17.0345 18.5085 16.3361 18.2192 15.8212 17.7043C15.5288 17.4119 15.3092 17.0605 15.174 16.678H15.9312L15.9322 16.678L15.9331 16.678H19.5922L19.5932 16.678Z" fill="#29D305"/>
<path d="M2.25258 21C1.01016 21 0 19.991 0 18.75V2.25C0 1.009 1.01116 0 2.25258 0H12.8938C13.4955 0 14.0601 0.234 14.4856 0.657999L17.3609 3.53C17.7864 3.95499 18.0207 4.51999 18.0207 5.11999V8.24999C18.0207 8.66399 17.6843 8.99999 17.2698 8.99999C16.8553 8.99999 16.5189 8.66399 16.5189 8.24999V5.12099C16.5189 4.92399 16.4388 4.73099 16.2997 4.59099L13.4244 1.719C13.2822 1.578 13.094 1.5 12.8938 1.5H2.25258C1.83811 1.5 1.50172 1.836 1.50172 2.25V18.75C1.50172 19.164 1.83811 19.5 2.25258 19.5H7.5086C7.92308 19.5 8.25947 19.836 8.25947 20.25C8.25947 20.664 7.92308 21 7.5086 21H2.25258Z" fill="black"/>
<path d="M4 10.25C4 9.83579 4.37776 9.5 4.84375 9.5H12.1562C12.6222 9.5 13 9.83579 13 10.25C13 10.6642 12.6222 11 12.1562 11H4.84375C4.37776 11 4 10.6642 4 10.25Z" fill="black"/>
<path d="M4 6.75C4 6.33579 4.37776 6 4.84375 6H12.1562C12.6222 6 13 6.33579 13 6.75C13 7.16421 12.6222 7.5 12.1562 7.5H4.84375C4.37776 7.5 4 7.16421 4 6.75Z" fill="black"/>
<path d="M4 13.75C4 13.3358 4.33579 13 4.75 13H8.25C8.66421 13 9 13.3358 9 13.75C9 14.1642 8.66421 14.5 8.25 14.5H4.75C4.33579 14.5 4 14.1642 4 13.75Z" fill="black"/>
</g>
<defs>
<clipPath id="clip0">
<path d="M0 0H24V24H0V0Z" fill="white"/>
</clipPath>
</defs>
</svg>
