<svg width="24" height="24" viewBox="0 0 24 24" fill="none" xmlns="http://www.w3.org/2000/svg">
<g clip-path="url(#clip0)">
<path fill-rule="evenodd" clip-rule="evenodd" d="M6.51386 23.7695C6.21812 23.4671 6.22357 22.9821 6.52603 22.6864L17.4553 12L6.52604 1.31362C6.22357 1.01788 6.21812 0.532929 6.51386 0.230462C6.80961 -0.0720035 7.29456 -0.0774527 7.59702 0.218291L18.5447 10.9227C18.6879 11.0625 18.8024 11.2295 18.8809 11.4145C18.9594 11.5996 19 11.7986 19 12C19 12.2014 18.9594 12.4004 18.8809 12.5855C18.8025 12.7704 18.6881 12.9372 18.5451 13.0769C18.545 13.077 18.5448 13.0772 18.5447 13.0773L7.59702 23.7817C7.29456 24.0775 6.80961 24.072 6.51386 23.7695Z" fill="black"/>
</g>
<defs>
<clipPath id="clip0">
<rect width="24" height="24" fill="white"/>
</clipPath>
</defs>
</svg>
