<svg width="24" height="24" viewBox="0 0 24 24" fill="none" xmlns="http://www.w3.org/2000/svg">
<g clip-path="url(#clip0)">
<path fill-rule="evenodd" clip-rule="evenodd" d="M24.0622 0.128676C24.0267 0.0777022 23.9863 0.0291546 23.9409 -0.0162808C23.5651 -0.392079 22.9764 -0.425208 22.563 -0.115668L2.49245 -0.115668C1.90961 -0.115669 1.43713 0.356817 1.43713 0.939657C1.43713 1.5225 1.90961 1.99498 2.49245 1.99498H20.4372L0.559082 21.8731C0.146952 22.2852 0.146952 22.9534 0.559082 23.3655C0.971213 23.7777 1.63941 23.7777 2.05154 23.3655L22.3315 3.08556V21.834C22.3315 22.4169 22.804 22.8894 23.3868 22.8894C23.9697 22.8894 24.4422 22.4169 24.4422 21.834V0.939657C24.4422 0.613701 24.2944 0.322259 24.0622 0.128676Z" fill="black"/>
</g>
<defs>
<clipPath id="clip0">
<path d="M0 0H24V24H0V0Z" fill="white"/>
</clipPath>
</defs>
</svg>
