<svg width="24" height="24" viewBox="0 0 24 24" fill="none" xmlns="http://www.w3.org/2000/svg">
<path fill-rule="evenodd" clip-rule="evenodd" d="M23.5243 18.0061C23.2282 18.2957 22.7533 18.2904 22.4637 17.9942L12 7.29266L1.53626 17.9942C1.24667 18.2904 0.77183 18.2957 0.475664 18.0061C0.179499 17.7165 0.174164 17.2417 0.463747 16.9455L10.9452 6.22592C11.082 6.08573 11.2455 5.97359 11.4267 5.89675C11.6079 5.81991 11.8028 5.78012 12 5.78012C12.1972 5.78012 12.3921 5.81991 12.5733 5.89675C12.7543 5.97352 12.9177 6.08553 13.0545 6.22554C13.0546 6.22566 13.0547 6.22579 13.0549 6.22592L23.5363 16.9455C23.8258 17.2417 23.8205 17.7165 23.5243 18.0061Z" fill="black"/>
</svg>
