<svg width="24" height="24" viewBox="0 0 24 24" fill="none" xmlns="http://www.w3.org/2000/svg">
<path fill-rule="evenodd" clip-rule="evenodd" d="M17.4861 0.230463C17.7819 0.53293 17.7764 1.01788 17.474 1.31362L6.54472 12L17.474 22.6864C17.7764 22.9821 17.7819 23.4671 17.4861 23.7695C17.1904 24.072 16.7054 24.0775 16.403 23.7817L5.45528 13.0773C5.31211 12.9375 5.19758 12.7705 5.11912 12.5855C5.04063 12.4004 5 12.2014 5 12C5 11.7986 5.04063 11.5996 5.11912 11.4145C5.19751 11.2296 5.3119 11.0628 5.45489 10.9231C5.45502 10.923 5.45515 10.9228 5.45528 10.9227L16.403 0.218293C16.7054 -0.0774523 17.1904 -0.0720035 17.4861 0.230463Z" fill="black"/>
</svg>
