<svg width="24" height="25" viewBox="0 0 24 25" fill="none" xmlns="http://www.w3.org/2000/svg">
<g clip-path="url(#clip0)">
<path fill-rule="evenodd" clip-rule="evenodd" d="M12.594 23.7765C12.0027 24.3678 11.044 24.3678 10.4527 23.7765L0.443489 13.7673C0.296045 13.6198 0.184314 13.4478 0.109952 13.2636C0.0387871 13.0874 0 12.8955 0 12.6966C0 12.4874 0.0428871 12.2861 0.121104 12.1028C0.125433 12.0926 0.131426 12.0833 0.138835 12.0751L0.136863 12.0772L0.14602 12.0642C0.153607 12.0532 0.163884 12.0381 0.176199 12.0198C0.200774 11.9834 0.232995 11.9351 0.266119 11.8854C0.304464 11.8279 0.344427 11.768 0.376025 11.7213C0.391836 11.6979 0.4058 11.6774 0.416531 11.662C0.42186 11.6544 0.427087 11.6471 0.431127 11.6416C0.433512 11.6383 0.440339 11.629 0.447697 11.6217L0.449253 11.6202L10.4527 1.61672C11.044 1.0254 12.0027 1.0254 12.594 1.61672C13.1854 2.20803 13.1854 3.16675 12.594 3.75807L5.1697 11.1824L22.4858 11.1824C23.3221 11.1824 24 11.8603 24 12.6966C24 13.5328 23.3221 14.2108 22.4858 14.2108L5.16967 14.2108L12.594 21.6351C13.1854 22.2264 13.1854 23.1852 12.594 23.7765Z" fill="black"/>
</g>
<defs>
<clipPath id="clip0">
<rect width="24" height="24" fill="white" transform="matrix(1 0 0 -1 0 24.7)"/>
</clipPath>
</defs>
</svg>
