<svg width="24" height="24" viewBox="0 0 24 24" fill="none" xmlns="http://www.w3.org/2000/svg">
<path fill-rule="evenodd" clip-rule="evenodd" d="M0.475662 5.9939C0.771828 5.70432 1.24667 5.70965 1.53626 6.00582L12 16.7074L22.4637 6.00582C22.7533 5.70965 23.2282 5.70432 23.5243 5.9939C23.8205 6.28348 23.8258 6.75833 23.5363 7.05449L13.0549 17.7741C12.918 17.9143 12.7545 18.0264 12.5733 18.1033C12.3921 18.1801 12.1972 18.2199 12 18.2199C11.8028 18.2199 11.6079 18.1801 11.4267 18.1033C11.2457 18.0265 11.0823 17.9145 10.9455 17.7745C10.9454 17.7744 10.9453 17.7742 10.9452 17.7741L0.463745 7.05449C0.174161 6.75833 0.179497 6.28348 0.475662 5.9939Z" fill="black"/>
</svg>
