<svg width="24" height="24" viewBox="0 0 24 24" fill="none" xmlns="http://www.w3.org/2000/svg">
<g clip-path="url(#clip0)">
<path fill-rule="evenodd" clip-rule="evenodd" d="M4.5 10.511C4.5 10.0968 4.83579 9.76099 5.25 9.76099H10.5C10.9142 9.76099 11.25 10.0968 11.25 10.511C11.25 10.9252 10.9142 11.261 10.5 11.261H5.25C4.83579 11.261 4.5 10.9252 4.5 10.511Z" fill="black"/>
<path fill-rule="evenodd" clip-rule="evenodd" d="M4.5 14.261C4.5 13.8468 4.83579 13.511 5.25 13.511H8.25C8.66421 13.511 9 13.8468 9 14.261C9 14.6752 8.66421 15.011 8.25 15.011H5.25C4.83579 15.011 4.5 14.6752 4.5 14.261Z" fill="black"/>
<path fill-rule="evenodd" clip-rule="evenodd" d="M4.5 18.011C4.5 17.5968 4.83579 17.261 5.25 17.261H8.25C8.66421 17.261 9 17.5968 9 18.011C9 18.4252 8.66421 18.761 8.25 18.761H5.25C4.83579 18.761 4.5 18.4252 4.5 18.011Z" fill="black"/>
<path fill-rule="evenodd" clip-rule="evenodd" d="M9.75 1.51099C8.95435 1.51099 8.19129 1.82706 7.62868 2.38967C7.06607 2.95228 6.75 3.71534 6.75 4.51099C6.75 4.9252 6.41421 5.26099 6 5.26099H2.25C2.05109 5.26099 1.86032 5.34 1.71967 5.48066C1.57902 5.62131 1.5 5.81207 1.5 6.01099V21.761C1.5 21.9599 1.57902 22.1507 1.71967 22.2913C1.86032 22.432 2.05109 22.511 2.25 22.511H9.75C10.1642 22.511 10.5 22.8468 10.5 23.261C10.5 23.6752 10.1642 24.011 9.75 24.011H2.25C1.65326 24.011 1.08097 23.7739 0.65901 23.352C0.237053 22.93 0 22.3577 0 21.761V6.01099C0 5.41425 0.237053 4.84195 0.65901 4.42C1.08097 3.99804 1.65326 3.76099 2.25 3.76099H5.31292C5.46762 2.84576 5.903 1.99402 6.56802 1.32901C7.41193 0.485092 8.55653 0.0109863 9.75 0.0109863C10.9435 0.0109863 12.0881 0.485092 12.932 1.32901C13.597 1.99402 14.0324 2.84576 14.1871 3.76099H17.25C17.8467 3.76099 18.419 3.99804 18.841 4.42C19.2629 4.84195 19.5 5.41425 19.5 6.01099V8.26099C19.5 8.6752 19.1642 9.01099 18.75 9.01099C18.3358 9.01099 18 8.6752 18 8.26099V6.01099C18 5.81207 17.921 5.62131 17.7803 5.48066C17.6397 5.34 17.4489 5.26099 17.25 5.26099H13.5C13.0858 5.26099 12.75 4.9252 12.75 4.51099C12.75 3.71534 12.4339 2.95228 11.8713 2.38967C11.3087 1.82706 10.5456 1.51099 9.75 1.51099Z" fill="black"/>
<path fill-rule="evenodd" clip-rule="evenodd" d="M9.75 3.01099C9.45163 3.01099 9.16548 3.12951 8.9545 3.34049C8.74353 3.55147 8.625 3.83762 8.625 4.13599C8.625 4.35849 8.69098 4.576 8.8146 4.761C8.93821 4.94601 9.11392 5.0902 9.31948 5.17535C9.52505 5.2605 9.75125 5.28278 9.96948 5.23937C10.1877 5.19596 10.3882 5.08881 10.5455 4.93148C10.7028 4.77414 10.81 4.57369 10.8534 4.35546C10.8968 4.13724 10.8745 3.91104 10.7894 3.70547C10.7042 3.4999 10.56 3.3242 10.375 3.20058C10.19 3.07697 9.97251 3.01099 9.75 3.01099Z" fill="black"/>
<path fill-rule="evenodd" clip-rule="evenodd" d="M17.25 12.011C14.3505 12.011 12 14.3615 12 17.261C12 20.1605 14.3505 22.511 17.25 22.511C20.1495 22.511 22.5 20.1605 22.5 17.261C22.5 14.3615 20.1495 12.011 17.25 12.011ZM10.5 17.261C10.5 13.5331 13.5221 10.511 17.25 10.511C20.9779 10.511 24 13.5331 24 17.261C24 20.9889 20.9779 24.011 17.25 24.011C13.5221 24.011 10.5 20.9889 10.5 17.261Z" fill="#29D305"/>
<path d="M19.034 15.0365C19.1876 14.825 19.4316 14.7 19.686 14.7C19.8624 14.7 20.0317 14.7582 20.1738 14.868C20.3475 15.0025 20.4612 15.1996 20.4918 15.424C20.5224 15.6473 20.4665 15.8705 20.336 16.0503L17.2032 20.3636C17.0607 20.5589 16.8446 20.681 16.6095 20.6978L16.6078 20.6979C16.5905 20.6989 16.571 20.7 16.5522 20.7C16.3359 20.7 16.1306 20.6128 15.9773 20.4534L13.7399 18.143C13.5854 17.9846 13.5 17.7714 13.5 17.546C13.5 17.3206 13.5852 17.1076 13.7397 16.9491C13.893 16.7897 14.0983 16.7026 14.3145 16.7026C14.5308 16.7026 14.7361 16.7898 14.8895 16.9492L16.4643 18.5744L19.034 15.0365Z" fill="black"/>
</g>
<defs>
<clipPath id="clip0">
<path d="M0 0H24V24H0V0Z" fill="white"/>
</clipPath>
</defs>
</svg>
