<svg width="24" height="24" viewBox="0 0 24 24" fill="none" xmlns="http://www.w3.org/2000/svg">
<g clip-path="url(#clip0)">
<path fill-rule="evenodd" clip-rule="evenodd" d="M23.6801 0.134551C24.0194 0.372094 24.1019 0.839744 23.8644 1.17908L8.77358 22.7364C8.77338 22.7367 8.77319 22.7369 8.77299 22.7372C8.50605 23.1205 8.15191 23.4349 7.73971 23.6546C7.3272 23.8745 6.86835 23.9932 6.40098 24.0009C5.93361 24.0086 5.47109 23.9052 5.05154 23.6991C4.63225 23.4931 4.26787 23.1905 3.98839 22.8162C3.98822 22.8159 3.98856 22.8164 3.98839 22.8162L0.150011 17.699C-0.0985377 17.3676 -0.0314098 16.8975 0.299946 16.649C0.631301 16.4004 1.10141 16.4676 1.34995 16.7989L5.19009 21.9184C5.32749 22.1026 5.50668 22.2514 5.7129 22.3527C5.91912 22.454 6.14646 22.5049 6.37619 22.5011C6.60591 22.4973 6.83145 22.439 7.03421 22.3309C7.23697 22.2228 7.41114 22.0681 7.54238 21.8796L7.54357 21.8779L22.6356 0.318856C22.8731 -0.0204762 23.3408 -0.102992 23.6801 0.134551Z" fill="black"/>
</g>
<defs>
<clipPath id="clip0">
<rect width="24" height="24" fill="white"/>
</clipPath>
</defs>
</svg>
