<svg width="24" height="24" viewBox="0 0 24 24" fill="none" xmlns="http://www.w3.org/2000/svg">
<path d="M0 12C0 18.617 5.383 24 12 24C18.617 24 24 18.617 24 12C24 5.383 18.617 0 12 0C5.383 0 0 5.383 0 12Z" fill="#29D305"/>
<path fill-rule="evenodd" clip-rule="evenodd" d="M7.36603 14.6735C7.84033 15.1217 8.59394 15.1066 9.04927 14.6397L12 11.614L14.9507 14.6397C15.4061 15.1066 16.1597 15.1217 16.634 14.6735C17.1083 14.2253 17.1236 13.4835 16.6683 13.0166L12.8588 9.11031C12.6343 8.88012 12.3242 8.75 12 8.75C11.6758 8.75 11.3657 8.88012 11.1412 9.11031L7.33168 13.0166C6.87636 13.4835 6.89174 14.2253 7.36603 14.6735Z" fill="black"/>
</svg>
