<svg width="24" height="24" viewBox="0 0 24 24" fill="none" xmlns="http://www.w3.org/2000/svg">
<path d="M5.40002 12.9148C5.40002 12.4761 5.75571 12.1204 6.19447 12.1204C6.63323 12.1204 6.98891 12.4761 6.98891 12.9148V21.9523C6.98891 22.3911 6.63323 22.7468 6.19447 22.7468C5.75571 22.7468 5.40002 22.3911 5.40002 21.9523L5.40002 12.9148Z" fill="#29D305"/>
<path d="M17.0519 19.822C17.0519 19.3832 17.4076 19.0276 17.8463 19.0276C18.2851 19.0276 18.6408 19.3832 18.6408 19.822V22.4837C18.6408 22.9224 18.2851 23.2781 17.8463 23.2781C17.4076 23.2781 17.0519 22.9224 17.0519 22.4837L17.0519 19.822Z" fill="#29D305"/>
<path fill-rule="evenodd" clip-rule="evenodd" d="M3.25497 0.854291C3.5771 0.531128 4.01401 0.349579 4.46958 0.349579H7.90501C8.36058 0.349579 8.79748 0.531128 9.11962 0.854291C9.44176 1.17745 9.62273 1.61576 9.62273 2.07278V22.1768H14.4037L14.4037 8.93246C14.4037 8.47543 14.5847 8.03713 14.9068 7.71397C15.229 7.39081 15.6659 7.20926 16.1214 7.20926H19.5569C20.0124 7.20926 20.4493 7.39081 20.7715 7.71397C21.0936 8.03713 21.2746 8.47543 21.2746 8.93246L21.2746 22.1768H22.1411C22.6155 22.1768 23 22.5626 23 23.0384C23 23.5143 22.6155 23.9 22.1411 23.9H1.85886C1.38452 23.9 1 23.5143 1 23.0384C1 22.5626 1.38452 22.1768 1.85886 22.1768H2.75186V2.07278C2.75186 1.61576 2.93283 1.17745 3.25497 0.854291ZM19.5569 22.1768L19.5569 8.93246L16.1214 8.93246L16.1214 22.1768H19.5569ZM7.90501 2.07278H4.46958V22.1767H7.90501V2.07278Z" fill="black"/>
<path fill-rule="evenodd" clip-rule="evenodd" d="M17.1889 0.6C17.1889 0.263283 17.4763 1.49012e-08 17.8185 0C18.1607 -1.49012e-08 18.4481 0.263283 18.4481 0.6L18.4481 4.16097L18.9643 3.67373C19.2096 3.44209 19.6052 3.44209 19.8506 3.67373C20.0992 3.90846 20.0992 4.29154 19.8506 4.52627L18.263 6.02497L18.2602 6.02762M17.1889 0.6V4.16097V0.6ZM17.3741 6.02504L17.3768 6.02762C17.4801 6.12423 17.6178 6.1868 17.7688 6.19814M17.7688 6.19814C17.7852 6.19937 17.8018 6.2 17.8185 6.2L17.7688 6.19814ZM17.8185 6.2C17.8399 6.2 17.8611 6.19897 17.882 6.19696L17.8185 6.2Z" fill="black"/>
<path d="M17.8185 0C17.4763 1.49012e-08 17.1889 0.263283 17.1889 0.6V4.16097L16.6728 3.67373C16.4274 3.44209 16.0318 3.44209 15.7865 3.67373C15.5378 3.90846 15.5378 4.29154 15.7865 4.52627L17.3741 6.02504L17.3768 6.02762C17.4801 6.12423 17.6178 6.1868 17.7688 6.19814L17.8185 6.2L17.882 6.19696C18.0991 6.17609 18.2602 6.02762 18.2602 6.02762L18.263 6.02497L19.8506 4.52627C20.0992 4.29154 20.0992 3.90846 19.8506 3.67373C19.6052 3.44209 19.2096 3.44209 18.9643 3.67373L18.4481 4.16097L18.4481 0.6C18.4481 0.263283 18.1607 -1.49012e-08 17.8185 0Z" fill="black"/>
</svg>
