<svg width="24" height="24" viewBox="0 0 24 24" fill="none" xmlns="http://www.w3.org/2000/svg">
<path d="M18.1606 6.45423L20.1785 1.00002L13.7675 8.40501L16.4041 8.97624L14.3862 14.4305L20.7972 7.02546L18.1606 6.45423Z" fill="#29D305"/>
<path d="M0.805452 21.5458C0.830235 21.5572 0.855019 21.5686 0.885998 21.58L7.29864 23.8859C7.50929 23.96 7.72615 24 7.943 24C8.29616 24 8.64312 23.903 8.94052 23.7146C9.42379 23.4121 9.7088 22.9099 9.7088 22.3734V21.1291H14.5C15.956 21.1291 17.1456 20.0333 17.1456 18.692V15.5C17.1456 15.0491 16.7491 14.6895 16.2658 14.6895C15.7825 14.6895 15.386 15.0548 15.386 15.5V18.692C15.386 19.1372 14.9895 19.5025 14.5062 19.5025H9.71499V4.62307C9.71499 3.94958 9.25031 3.33888 8.56877 3.10488L4.23792 1.62663H14.5062C14.9895 1.62663 15.386 1.99191 15.386 2.4371C15.386 2.88799 15.7825 3.24756 16.2658 3.24756C16.7491 3.24756 17.1456 2.88228 17.1456 2.4371C17.1456 1.09584 15.956 0 14.5 0H1.4684C0.656753 0 0 0.604994 0 1.35268V20.3415C0.00619579 20.8552 0.309789 21.3118 0.805452 21.5458ZM1.7658 2.517L7.943 4.62878V22.3677L1.7658 20.1474V2.517Z" fill="black"/>
</svg>
