<svg width="24" height="24" viewBox="0 0 24 24" fill="none" xmlns="http://www.w3.org/2000/svg">
<g clip-path="url(#clip0)">
<path d="M3.749 22H8.78968C8.78968 22 9.5 22 9.5 21.2458C9.5 20.4916 8.78968 20.4916 8.78968 20.4916H7.75H4.499V8.73777L2.999 10.246V21.2458C2.999 21.6621 3.335 22 3.749 22Z" fill="black"/>
<path d="M19.499 20.4916H17H16.5C16.5 20.4916 15.75 20.4916 15.75 21.2458C15.75 22 16.5 22 16.5 22H20.249C20.663 22 20.999 21.6621 20.999 21.2458V10.2441L19.499 8.73608V20.4916Z" fill="black"/>
<path d="M0.219 11.9744C0.36 12.1172 0.549 12.1956 0.749 12.1956C0.949 12.1956 1.138 12.1172 1.279 11.9754L2.999 10.246L4.499 8.73777L11.469 1.72959C11.611 1.58781 11.799 1.50937 12 1.50937C12.201 1.50937 12.389 1.58781 12.53 1.72959L19.499 8.73608L20.999 10.2441L22.719 11.9734C22.86 12.1162 23.049 12.1946 23.249 12.1946C23.449 12.1946 23.637 12.1162 23.779 11.9734C24.071 11.6788 24.071 11.2001 23.779 10.9065L20.999 8.11098L15.797 2.87997L13.591 0.661669C13.166 0.235305 12.601 0 12 0C11.398 0 10.833 0.235305 10.409 0.661669L0.219 10.9075C-0.073 11.2021 -0.073 11.6808 0.219 11.9744Z" fill="black"/>
<path d="M11.4728 15.3408V22.1025C11.4728 22.6905 11.8745 23.1805 12.5774 23.2785C13.18 23.2785 13.682 22.8865 13.7825 22.2005V22.1025V15.5368" fill="white"/>
<path fill-rule="evenodd" clip-rule="evenodd" d="M11.4728 14.6058C11.8888 14.6058 12.226 14.9349 12.226 15.3408V22.1025C12.226 22.3017 12.3281 22.4815 12.6277 22.5414C12.8137 22.5255 12.975 22.4168 13.0293 22.1409V15.5368C13.0293 15.1309 13.3665 14.8018 13.7825 14.8018C14.1984 14.8018 14.5356 15.1309 14.5356 15.5368V22.2005C14.5356 22.2353 14.5331 22.27 14.528 22.3045C14.3762 23.3415 13.566 24.0134 12.5774 24.0134C12.5418 24.0134 12.5062 24.011 12.4709 24.006C11.4082 23.8579 10.7197 23.0673 10.7197 22.1025V15.3408C10.7197 14.9349 11.0569 14.6058 11.4728 14.6058Z" fill="#29D305"/>
<path d="M9.86612 15.0468V11.5189H14.0837C15.7908 11.5189 16.9958 12.7929 16.9958 14.3608V15.9287C16.9958 16.0267 16.8954 16.1247 16.795 16.2227C16.6946 16.3207 16.3933 16.3207 16.2929 16.1247C15.8912 15.5368 15.3891 15.1448 14.6862 15.0468H9.86612Z" fill="white"/>
<path fill-rule="evenodd" clip-rule="evenodd" d="M9.11298 11.519C9.11298 11.1131 9.45017 10.7841 9.86611 10.7841H14.0837C16.2238 10.7841 17.749 12.4039 17.749 14.3609V15.9288C17.749 16.2177 17.6057 16.4256 17.5356 16.5168C17.4645 16.6093 17.3799 16.6916 17.3362 16.7341C17.3331 16.7371 17.3302 16.7399 17.3275 16.7425C17.0514 17.012 16.6785 17.0412 16.4505 17.0134C16.1974 16.9825 15.8508 16.8501 15.6489 16.5073C15.3456 16.0723 15.0286 15.8506 14.6273 15.7818H9.86611C9.45017 15.7818 9.11298 15.4528 9.11298 15.0469V11.519ZM10.6193 14.3119H14.6862C14.7218 14.3119 14.7574 14.3144 14.7927 14.3193C15.3771 14.4008 15.8519 14.6332 16.2427 14.9587V14.3609C16.2427 13.1821 15.3578 12.254 14.0837 12.254H10.6193V14.3119Z" fill="#29D305"/>
<path d="M9.66528 11.225V15.2428C9.66528 15.5368 9.46444 15.7328 9.16319 15.7328H6.75314V10.735H9.16319C9.46444 10.735 9.7657 11.029 9.66528 11.225Z" fill="white"/>
<path fill-rule="evenodd" clip-rule="evenodd" d="M6 10.735C6 10.3291 6.33719 10 6.75314 10H9.16318C9.54891 10 9.88288 10.1774 10.0974 10.3868C10.2476 10.5333 10.5231 10.8987 10.4184 11.3403V15.2428C10.4184 15.5568 10.3079 15.8756 10.0597 16.1177C9.81163 16.3598 9.48496 16.4677 9.16318 16.4677H6.75314C6.33719 16.4677 6 16.1387 6 15.7328V10.735ZM7.50628 11.4699V14.9978H8.91213V11.4699H7.50628Z" fill="#29D305"/>
</g>
<defs>
<clipPath id="clip0">
<path d="M0 0H24V24H0V0Z" fill="white"/>
</clipPath>
</defs>
</svg>
