<svg width="25" height="24" viewBox="0 0 25 24" fill="none" xmlns="http://www.w3.org/2000/svg">
<g clip-path="url(#clip0)">
<path d="M4.02063 15.998C6.22977 15.998 8.02063 14.2071 8.02063 11.998C8.02063 9.78885 6.22977 7.99799 4.02063 7.99799C1.81149 7.99799 0.0206299 9.78885 0.0206299 11.998C0.0206299 14.2071 1.81149 15.998 4.02063 15.998Z" fill="black"/>
<path d="M14.0206 14.998C15.6775 14.998 17.0206 13.6548 17.0206 11.998C17.0206 10.3411 15.6775 8.99799 14.0206 8.99799C12.3638 8.99799 11.0206 10.3411 11.0206 11.998C11.0206 13.6548 12.3638 14.998 14.0206 14.998Z" fill="black"/>
<path d="M22.0206 13.998C23.1252 13.998 24.0206 13.1026 24.0206 11.998C24.0206 10.8934 23.1252 9.99799 22.0206 9.99799C20.9161 9.99799 20.0206 10.8934 20.0206 11.998C20.0206 13.1026 20.9161 13.998 22.0206 13.998Z" fill="black"/>
</g>
<defs>
<clipPath id="clip0">
<path d="M0.0206299 0H24.0206V24H0.0206299V0Z" fill="white"/>
</clipPath>
</defs>
</svg>
