<svg width="24" height="24" viewBox="0 0 24 24" fill="none" xmlns="http://www.w3.org/2000/svg">
<path fill-rule="evenodd" clip-rule="evenodd" d="M16.875 0C16.2537 0 15.75 0.50368 15.75 1.125C15.75 1.74632 16.2537 2.25 16.875 2.25H20.159L14.5795 7.8295C14.1402 8.26884 14.1402 8.98116 14.5795 9.4205C15.0188 9.85984 15.7312 9.85984 16.1705 9.4205L21.75 3.84099V7.125C21.75 7.74632 22.2537 8.25 22.875 8.25C23.4963 8.25 24 7.74632 24 7.125V1.125C24 0.50368 23.4963 0 22.875 0H16.875Z" fill="black"/>
<path fill-rule="evenodd" clip-rule="evenodd" d="M3.125 4.5C2.89294 4.5 2.67038 4.59219 2.50628 4.75628C2.34219 4.92038 2.25 5.14294 2.25 5.375V20.875C2.25 21.1071 2.34219 21.3296 2.50628 21.4937C2.67038 21.6578 2.89293 21.75 3.125 21.75H18.625C18.8571 21.75 19.0796 21.6578 19.2437 21.4937C19.4078 21.3296 19.5 21.1071 19.5 20.875V11.875C19.5 11.2537 20.0037 10.75 20.625 10.75C21.2463 10.75 21.75 11.2537 21.75 11.875V20.875C21.75 21.7038 21.4208 22.4987 20.8347 23.0847C20.2487 23.6708 19.4538 24 18.625 24H3.125C2.2962 24 1.50134 23.6708 0.915291 23.0847C0.32924 22.4987 0 21.7038 0 20.875V5.375C0 4.5462 0.32924 3.75134 0.915291 3.16529C1.50134 2.57924 2.2962 2.25 3.125 2.25H12.125C12.7463 2.25 13.25 2.75368 13.25 3.375C13.25 3.99632 12.7463 4.5 12.125 4.5H3.125Z" fill="black"/>
</svg>
