<svg width="24" height="24" viewBox="0 0 24 24" fill="none" xmlns="http://www.w3.org/2000/svg">
<g clip-path="url(#clip0)">
<path d="M21.0175 23.6193H0.750626C0.551547 23.6193 0.360623 23.5402 0.219853 23.3994C0.0790835 23.2587 0 23.0677 0 22.8687C0 22.6696 0.0790835 22.4787 0.219853 22.3379C0.360623 22.1971 0.551547 22.118 0.750626 22.118H21.0175C21.2166 22.118 21.4075 22.1971 21.5483 22.3379C21.6891 22.4787 21.7681 22.6696 21.7681 22.8687C21.7681 23.0677 21.6891 23.2587 21.5483 23.3994C21.4075 23.5402 21.2166 23.6193 21.0175 23.6193Z" fill="black"/>
<path d="M9.75813 23.6193H0.750626C0.552353 23.6167 0.362931 23.5367 0.22272 23.3965C0.0825079 23.2563 0.00259212 23.0669 0 22.8686L0 8.20641C0.00527036 7.87901 0.139719 7.56696 0.374052 7.33825C0.608385 7.10954 0.92361 6.98271 1.25104 6.98539H9.25772C9.58345 6.98267 9.89719 7.10813 10.1312 7.33469C10.3653 7.56125 10.5009 7.87075 10.5088 8.1964V22.8686C10.5062 23.0669 10.4262 23.2563 10.286 23.3965C10.1458 23.5367 9.9564 23.6167 9.75813 23.6193ZM1.50125 22.118H9.00751V8.50666H1.50125V22.118Z" fill="black"/>
<path d="M7.50627 8.50662H3.00252C2.80425 8.50402 2.61482 8.42411 2.47461 8.2839C2.3344 8.14368 2.25448 7.95426 2.25189 7.75599V5.50411C2.25952 5.30951 2.30597 5.11839 2.38851 4.942C2.47105 4.7656 2.58803 4.60748 2.73256 4.47694C2.87708 4.3464 3.04625 4.24607 3.23011 4.18184C3.41397 4.11762 3.60881 4.09079 3.80318 4.10295H6.80569C7.17726 4.08346 7.54181 4.20945 7.82206 4.4542C8.10231 4.69896 8.27623 5.04323 8.30694 5.41404V7.73597C8.30845 7.84016 8.28855 7.94355 8.24845 8.03972C8.20836 8.1359 8.14893 8.22281 8.07386 8.29507C7.99879 8.36733 7.90967 8.42339 7.81203 8.45978C7.7144 8.49617 7.61032 8.51211 7.50627 8.50662ZM3.75314 6.98535H6.75564V5.6042H3.75314V6.98535Z" fill="black"/>
<path d="M5.25435 5.60425C5.05608 5.60166 4.86665 5.52175 4.72644 5.38153C4.58623 5.24132 4.50632 5.0519 4.50372 4.85363V1.25063C4.50372 1.05155 4.58281 0.860623 4.72358 0.719853C4.86435 0.579084 5.05527 0.5 5.25435 0.5C5.45343 0.5 5.64435 0.579084 5.78512 0.719853C5.92589 0.860623 6.00497 1.05155 6.00497 1.25063V4.85363C6.00238 5.0519 5.92247 5.24132 5.78225 5.38153C5.64204 5.52175 5.45262 5.60166 5.25435 5.60425Z" fill="black"/>
<path d="M6.75563 11.369H3.75313C3.55405 11.369 3.36313 11.29 3.22236 11.1492C3.08159 11.0084 3.0025 10.8175 3.0025 10.6184C3.0025 10.4193 3.08159 10.2284 3.22236 10.0877C3.36313 9.94688 3.55405 9.8678 3.75313 9.8678H6.75563C6.95471 9.8678 7.14563 9.94688 7.2864 10.0877C7.42717 10.2284 7.50626 10.4193 7.50626 10.6184C7.50626 10.8175 7.42717 11.0084 7.2864 11.1492C7.14563 11.29 6.95471 11.369 6.75563 11.369Z" fill="black"/>
<path d="M6.75563 14.2515H3.75313C3.55405 14.2515 3.36313 14.1724 3.22236 14.0316C3.08159 13.8909 3.0025 13.6999 3.0025 13.5009C3.0025 13.3018 3.08159 13.1109 3.22236 12.9701C3.36313 12.8293 3.55405 12.7502 3.75313 12.7502H6.75563C6.95471 12.7502 7.14563 12.8293 7.2864 12.9701C7.42717 13.1109 7.50626 13.3018 7.50626 13.5009C7.50626 13.6999 7.42717 13.8909 7.2864 14.0316C7.14563 14.1724 6.95471 14.2515 6.75563 14.2515Z" fill="black"/>
<path d="M6.75563 17.1338H3.75313C3.55405 17.1338 3.36313 17.0547 3.22236 16.914C3.08159 16.7732 3.0025 16.5823 3.0025 16.3832C3.0025 16.1841 3.08159 15.9932 3.22236 15.8524C3.36313 15.7117 3.55405 15.6326 3.75313 15.6326H6.75563C6.95471 15.6326 7.14563 15.7117 7.2864 15.8524C7.42717 15.9932 7.50626 16.1841 7.50626 16.3832C7.50626 16.5823 7.42717 16.7732 7.2864 16.914C7.14563 17.0547 6.95471 17.1338 6.75563 17.1338Z" fill="black"/>
<path d="M6.75563 20.0163H3.75313C3.55405 20.0163 3.36313 19.9372 3.22236 19.7964C3.08159 19.6556 3.0025 19.4647 3.0025 19.2656C3.0025 19.0666 3.08159 18.8756 3.22236 18.7349C3.36313 18.5941 3.55405 18.515 3.75313 18.515H6.75563C6.95471 18.515 7.14563 18.5941 7.2864 18.7349C7.42717 18.8756 7.50626 19.0666 7.50626 19.2656C7.50626 19.4647 7.42717 19.6556 7.2864 19.7964C7.14563 19.9372 6.95471 20.0163 6.75563 20.0163Z" fill="black"/>
<path d="M18.7456 12.0897C18.5507 12.0873 18.3642 12.0101 18.2245 11.8742C18.0849 11.7382 18.0027 11.5538 17.995 11.3591C17.9357 10.0492 17.3725 8.81293 16.4233 7.90842C15.474 7.00391 14.212 6.50111 12.9008 6.50504C12.7017 6.50504 12.5108 6.42595 12.37 6.28518C12.2292 6.14441 12.1501 5.95349 12.1501 5.75441C12.1501 5.55533 12.2292 5.36441 12.37 5.22364C12.5108 5.08287 12.7017 5.00378 12.9008 5.00378C14.6014 5.00773 16.2346 5.6694 17.4583 6.85028C18.6821 8.03115 19.4016 9.63967 19.4662 11.3391C19.4703 11.438 19.4544 11.5367 19.4196 11.6294C19.3848 11.7221 19.3318 11.8069 19.2637 11.8787C19.1956 11.9505 19.1138 12.008 19.0231 12.0477C18.9324 12.0874 18.8346 12.1085 18.7356 12.1097L18.7456 12.0897Z" fill="#29D305"/>
<path d="M23.2494 10.9387C23.0588 10.9364 22.8762 10.8617 22.7386 10.7298C22.6011 10.5978 22.5189 10.4184 22.5088 10.2281C22.3657 8.02522 21.3988 5.95686 19.8003 4.43438C18.2018 2.9119 16.0888 2.04685 13.8816 2.01126C13.7834 2.00742 13.687 1.9841 13.5979 1.94263C13.5088 1.90117 13.4289 1.8424 13.3628 1.76975C13.2967 1.6971 13.2456 1.61201 13.2127 1.51945C13.1798 1.42689 13.1656 1.32871 13.171 1.23061C13.1735 1.13115 13.1959 1.0332 13.2366 0.942448C13.2774 0.851695 13.3358 0.76995 13.4084 0.701968C13.4811 0.633985 13.5665 0.581121 13.6598 0.546449C13.753 0.511776 13.8522 0.495988 13.9516 0.500001C16.5368 0.543367 19.0103 1.56135 20.8772 3.35025C22.744 5.13915 23.8665 7.56702 24.02 10.148C24.0268 10.2469 24.0136 10.3462 23.9813 10.4399C23.949 10.5337 23.8982 10.62 23.832 10.6937C23.7657 10.7674 23.6853 10.8271 23.5955 10.8692C23.5058 10.9113 23.4085 10.9349 23.3094 10.9387H23.2494Z" fill="#29D305"/>
<path d="M18.015 23.6192H12.7606C12.5624 23.6166 12.3729 23.5367 12.2327 23.3965C12.0925 23.2563 12.0126 23.0669 12.01 22.8686V14.942C12.0256 14.5552 12.1909 14.1897 12.4711 13.9226C12.7512 13.6556 13.1242 13.5079 13.5113 13.5108H17.2644C17.6582 13.5081 18.037 13.6613 18.3183 13.9369C18.5995 14.2126 18.7604 14.5882 18.7656 14.982V22.9086C18.753 23.0998 18.6687 23.2793 18.5296 23.411C18.3904 23.5427 18.2066 23.6171 18.015 23.6192ZM13.5113 22.118H17.2644V14.972H13.5113V22.118Z" fill="black"/>
</g>
<defs>
<clipPath id="clip0">
<rect width="24" height="23.1193" fill="white" transform="translate(0 0.5)"/>
</clipPath>
</defs>
</svg>
