<svg width="24" height="24" viewBox="0 0 24 24" fill="none" xmlns="http://www.w3.org/2000/svg">
<path fill-rule="evenodd" clip-rule="evenodd" d="M18.25 23.9989C17.5596 23.9989 17 23.4393 17 22.7489L17 1.24999C17 0.559633 17.5596 -1.16137e-05 18.25 -1.15534e-05C18.9404 -1.1493e-05 19.5 0.559633 19.5 1.24999L19.5 22.7489C19.5 23.4393 18.9404 23.9989 18.25 23.9989Z" fill="black"/>
<path fill-rule="evenodd" clip-rule="evenodd" d="M23.6339 6.63388C23.1457 7.12204 22.3543 7.12204 21.8661 6.63388L18.25 3.01777L14.6339 6.63388C14.1457 7.12204 13.3543 7.12204 12.8661 6.63388C12.378 6.14573 12.378 5.35427 12.8661 4.86612L17.3661 0.366116C17.8543 -0.122039 18.6457 -0.122039 19.1339 0.366116L23.6339 4.86612C24.122 5.35427 24.122 6.14573 23.6339 6.63388Z" fill="black"/>
<path fill-rule="evenodd" clip-rule="evenodd" d="M5.75 2.18557e-07C6.44036 3.39263e-07 7 0.559644 7 1.25L7 22.7489C7 23.4393 6.44035 23.9989 5.75 23.9989C5.05964 23.9989 4.5 23.4393 4.5 22.7489L4.5 1.25C4.5 0.559644 5.05964 9.78513e-08 5.75 2.18557e-07Z" fill="black"/>
<path fill-rule="evenodd" clip-rule="evenodd" d="M0.366116 17.365C0.854272 16.8769 1.64573 16.8769 2.13388 17.365L5.75 20.9811L9.36612 17.365C9.85427 16.8769 10.6457 16.8769 11.1339 17.365C11.622 17.8532 11.622 18.6446 11.1339 19.1328L6.63388 23.6328C6.14573 24.1209 5.35427 24.1209 4.86612 23.6328L0.366116 19.1328C-0.122039 18.6446 -0.122039 17.8532 0.366116 17.365Z" fill="black"/>
</svg>
