<svg width="24" height="24" viewBox="0 0 24 24" fill="none" xmlns="http://www.w3.org/2000/svg">
<path fill-rule="evenodd" clip-rule="evenodd" d="M7.5 4.5C5.63604 4.5 4.125 6.01104 4.125 7.875C4.125 9.73896 5.63604 11.25 7.5 11.25C9.36396 11.25 10.875 9.73896 10.875 7.875C10.875 6.01104 9.36396 4.5 7.5 4.5ZM2.625 7.875C2.625 5.18261 4.80761 3 7.5 3C10.1924 3 12.375 5.18261 12.375 7.875C12.375 10.5674 10.1924 12.75 7.5 12.75C4.80761 12.75 2.625 10.5674 2.625 7.875Z" fill="black"/>
<path fill-rule="evenodd" clip-rule="evenodd" d="M7.5 14.25C5.9087 14.25 4.38258 14.8821 3.25736 16.0074C2.13214 17.1326 1.5 18.6587 1.5 20.25C1.5 20.6642 1.16421 21 0.75 21C0.335786 21 0 20.6642 0 20.25C0 18.2609 0.790176 16.3532 2.1967 14.9467C3.60322 13.5402 5.51088 12.75 7.5 12.75C9.48912 12.75 11.3968 13.5402 12.8033 14.9467C14.2098 16.3532 15 18.2609 15 20.25C15 20.6642 14.6642 21 14.25 21C13.8358 21 13.5 20.6642 13.5 20.25C13.5 18.6587 12.8679 17.1326 11.7426 16.0074C10.6174 14.8821 9.0913 14.25 7.5 14.25Z" fill="black"/>
<path fill-rule="evenodd" clip-rule="evenodd" d="M17.727 7.5C16.2772 7.5 15.102 8.67525 15.102 10.125C15.102 11.5747 16.2772 12.75 17.727 12.75C19.1767 12.75 20.352 11.5747 20.352 10.125C20.352 8.67525 19.1767 7.5 17.727 7.5ZM13.602 10.125C13.602 7.84683 15.4488 6 17.727 6C20.0052 6 21.852 7.84683 21.852 10.125C21.852 12.4032 20.0052 14.25 17.727 14.25C15.4488 14.25 13.602 12.4032 13.602 10.125Z" fill="black"/>
<path fill-rule="evenodd" clip-rule="evenodd" d="M18.3324 15.516C17.5694 15.418 16.7941 15.5057 16.0724 15.7717C15.6837 15.915 15.2525 15.716 15.1093 15.3274C14.966 14.9387 15.165 14.5075 15.5536 14.3643C16.5021 14.0147 17.5209 13.8994 18.5234 14.0282C19.526 14.1569 20.4826 14.5259 21.3119 15.1038C22.1413 15.6817 22.8187 16.4513 23.2868 17.3472C23.7548 18.2431 23.9995 19.2388 24 20.2496C24.0002 20.6638 23.6646 20.9998 23.2504 21C22.8362 21.0002 22.5002 20.6646 22.5 20.2504C22.4996 19.4812 22.3134 18.7235 21.9572 18.0417C21.6011 17.3599 21.0855 16.7742 20.4544 16.3345C19.8233 15.8947 19.0953 15.6139 18.3324 15.516Z" fill="black"/>
</svg>
