<svg width="24" height="24" viewBox="0 0 24 24" fill="none" xmlns="http://www.w3.org/2000/svg">
<g clip-path="url(#clip0)">
<path d="M21.214 12.606C22.2465 11.574 22.9277 10.2431 23.1611 8.80207C23.3944 7.36104 23.168 5.88313 22.514 4.57803L18.964 8.12403C18.6827 8.40524 18.3013 8.56321 17.9035 8.56321C17.5058 8.56321 17.1243 8.40524 16.843 8.12403L16.043 7.32403C15.9036 7.18473 15.7931 7.01933 15.7176 6.83728C15.6422 6.65523 15.6033 6.4601 15.6033 6.26303C15.6033 6.06597 15.6422 5.87084 15.7176 5.68879C15.7931 5.50674 15.9036 5.34133 16.043 5.20203L19.643 1.60203C18.3543 0.898344 16.8757 0.621107 15.4195 0.810126C13.9634 0.999145 12.6046 1.6447 11.5382 2.6541C10.4718 3.66351 9.75265 4.98486 9.48403 6.42844C9.2154 7.87203 9.4111 9.3636 10.043 10.689L1.20002 19.526C1.05664 19.6692 0.942899 19.8393 0.865293 20.0265C0.787687 20.2137 0.747742 20.4144 0.747742 20.617C0.747742 20.8197 0.787687 21.0203 0.865293 21.2076C0.942899 21.3948 1.05664 21.5648 1.20002 21.708L2.29102 22.8C2.43432 22.9434 2.60448 23.0572 2.79176 23.1348C2.97905 23.2125 3.17979 23.2524 3.38252 23.2524C3.58526 23.2524 3.786 23.2125 3.97329 23.1348C4.16057 23.0572 4.33073 22.9434 4.47402 22.8L13.31 13.964C14.6062 14.5826 16.0623 14.7842 17.4778 14.541C18.8933 14.2978 20.1986 13.6218 21.214 12.606V12.606Z" stroke="black" stroke-width="1.5" stroke-linecap="round" stroke-linejoin="round"/>
</g>
<defs>
<clipPath id="clip0">
<rect width="24" height="24" fill="white"/>
</clipPath>
</defs>
</svg>
