<svg width="24" height="24" viewBox="0 0 24 24" fill="none" xmlns="http://www.w3.org/2000/svg">
<path d="M14.55 13.3001C14.55 12.9001 14.65 12.5001 14.85 12.2001C15.05 11.9001 15.45 11.6001 15.85 11.4001C16.25 11.2001 16.85 11.1001 17.45 11.1001C17.95 11.1001 18.35 11.2001 18.75 11.3001C19.15 11.4001 19.45 11.6001 19.75 11.8001C20.05 12.0001 20.25 12.2001 20.35 12.4001C20.45 12.6001 20.55 12.9001 20.55 13.1001C20.55 13.3001 20.45 13.4001 20.35 13.6001C20.25 13.8001 20.05 13.8001 19.75 13.8001C19.55 13.8001 19.35 13.8001 19.25 13.7001C19.15 13.6001 18.95 13.5001 18.75 13.2001C18.55 13.0001 18.35 12.8001 18.15 12.7001C17.95 12.6001 17.75 12.5001 17.35 12.5001C16.95 12.5001 16.75 12.6001 16.45 12.7001C16.25 12.9001 16.15 13.1001 16.15 13.3001C16.15 13.5001 16.25 13.7001 16.45 13.9001C16.65 14.1001 16.95 14.3001 17.35 14.5001C17.75 14.7001 18.05 14.9001 18.25 15.0001C18.65 15.2001 19.05 15.4001 19.35 15.6001C19.65 15.8001 19.95 16.0001 20.25 16.2001C20.55 16.4001 20.75 16.7001 20.85 16.9001C21.05 17.2001 21.05 17.5001 21.05 17.9001C21.05 18.3001 20.95 18.7001 20.65 19.0001C20.35 19.3001 20.05 19.6001 19.65 19.9001C20.25 20.4001 20.55 21.0001 20.55 21.7001C20.55 22.0001 20.45 22.3001 20.35 22.6001C20.25 22.9001 19.95 23.1001 19.75 23.3001C19.45 23.5001 19.15 23.7001 18.75 23.8001C18.35 23.9001 17.95 24.0001 17.45 24.0001C16.95 24.0001 16.45 23.9001 16.05 23.8001C15.65 23.7001 15.25 23.5001 14.95 23.2001C14.65 23.0001 14.45 22.7001 14.25 22.4001C14.05 22.1001 14.05 21.9001 14.05 21.6001C14.05 21.4001 14.15 21.2001 14.35 21.0001C14.75 20.8001 14.95 20.8001 15.25 20.8001C15.35 20.8001 15.45 20.8001 15.55 20.9001C15.65 20.9001 15.75 21.0001 15.75 21.0001C15.95 21.3001 16.15 21.5001 16.25 21.7001C16.55 22.3001 17.05 22.6001 17.65 22.6001C18.05 22.6001 18.35 22.5001 18.55 22.3001C18.75 22.1001 18.85 21.9001 18.85 21.6001C18.85 21.4001 18.75 21.3001 18.65 21.1001C18.55 20.9001 18.35 20.8001 18.05 20.6001C17.85 20.4001 17.45 20.2001 16.95 19.9001C16.45 19.6001 15.95 19.3001 15.45 19.0001C15.25 18.9001 15.05 18.7001 14.85 18.6001C14.65 18.5001 14.45 18.3001 14.25 18.1001C14.05 17.9001 13.95 17.7001 13.85 17.5001C13.75 17.3001 13.75 17.0001 13.75 16.7001C13.75 15.9001 14.25 15.2001 15.25 14.8001C14.75 14.5001 14.55 14.0001 14.55 13.3001ZM16.35 15.7001C15.85 16.0001 15.55 16.4001 15.55 16.7001C15.55 16.9001 15.65 17.0001 15.75 17.2001C15.85 17.4001 16.05 17.5001 16.35 17.6001C16.65 17.7001 16.95 18.0001 17.45 18.2001C17.55 18.3001 17.75 18.4001 18.05 18.5001C18.35 18.6001 18.55 18.8001 18.75 18.9001C19.35 18.5001 19.55 18.2001 19.55 17.9001C19.55 17.7001 19.55 17.6001 19.45 17.5001C19.35 17.4001 19.25 17.2001 19.05 17.1001C18.85 17.0001 18.65 16.8001 18.45 16.7001C18.25 16.6001 17.85 16.4001 17.45 16.2001C17.15 16.0001 16.85 15.9001 16.75 15.8001C16.45 15.8001 16.35 15.7001 16.35 15.7001Z" fill="black"/>
<path d="M17.1496 7.40005H6.64961C6.24961 7.40005 5.84961 7.10005 5.84961 6.60005C5.84961 6.10005 6.14961 5.80005 6.64961 5.80005H17.1496C17.5496 5.80005 17.9496 6.10005 17.9496 6.60005C17.9496 7.10005 17.5496 7.40005 17.1496 7.40005Z" fill="black"/>
<path d="M10.3495 11.9H6.54951C6.14951 11.9 5.74951 11.6 5.74951 11.1C5.74951 10.6 6.04951 10.3 6.54951 10.3H10.3495C10.7495 10.3 11.1495 10.6 11.1495 11.1C11.1495 11.6 10.8495 11.9 10.3495 11.9Z" fill="black"/>
<path d="M10.3495 16.4H6.54951C6.14951 16.4 5.74951 16.1 5.74951 15.6C5.74951 15.1 6.04951 14.8 6.54951 14.8H10.3495C10.7495 14.8 11.1495 15.1 11.1495 15.6C11.1495 16.1 10.8495 16.4 10.3495 16.4Z" fill="black"/>
<path d="M10.3502 20.9H5.1502C3.9502 20.9 2.9502 19.9 2.9502 18.7V2.2C2.9502 1 3.9502 0 5.1502 0H15.7502C16.3502 0 16.9502 0.2 17.3502 0.7L20.2502 3.6C20.6502 4 20.9502 4.6 20.9502 5.2V7.6C20.9502 8 20.6502 8.4 20.1502 8.4C19.6502 8.4 19.3502 8.1 19.3502 7.6V5.2C19.3502 5 19.2502 4.8 19.1502 4.7L16.2502 1.8C16.1502 1.7 15.9502 1.6 15.7502 1.6H5.1502C4.7502 1.6 4.3502 1.9 4.3502 2.4V18.9C4.3502 19.3 4.6502 19.7 5.1502 19.7H10.3502C10.7502 19.7 11.1502 20 11.1502 20.5C11.1502 21 10.8502 20.9 10.3502 20.9Z" fill="black"/>
</svg>
