<svg width="24" height="24" viewBox="0 0 24 24" fill="none" xmlns="http://www.w3.org/2000/svg">
<path d="M14.5502 13.3001C14.5502 12.9001 14.6502 12.5001 14.8502 12.2001C15.0502 11.9001 15.4502 11.6001 15.8502 11.4001C16.2502 11.2001 16.8502 11.1001 17.4502 11.1001C17.9502 11.1001 18.3502 11.2001 18.7502 11.3001C19.1502 11.4001 19.4502 11.6001 19.7502 11.8001C20.0502 12.0001 20.2502 12.2001 20.3502 12.4001C20.4502 12.6001 20.5502 12.9001 20.5502 13.1001C20.5502 13.3001 20.4502 13.4001 20.3502 13.6001C20.1502 13.7001 20.0502 13.8001 19.7502 13.8001C19.5502 13.8001 19.3502 13.8001 19.2502 13.7001C19.1502 13.6001 18.9502 13.5001 18.7502 13.2001C18.5502 12.9001 18.3502 12.8001 18.1502 12.7001C17.9502 12.6001 17.7502 12.5001 17.3502 12.5001C16.9502 12.5001 16.7502 12.6001 16.4502 12.7001C16.2502 12.9001 16.1502 13.1001 16.1502 13.3001C16.1502 13.5001 16.2502 13.7001 16.4502 13.9001C16.6502 14.1001 16.9502 14.3001 17.3502 14.5001C17.7502 14.7001 18.0502 14.9001 18.2502 15.0001C18.6502 15.2001 19.0502 15.4001 19.3502 15.6001C19.6502 15.8001 19.9502 16.0001 20.2502 16.2001C20.5502 16.4001 20.7502 16.7001 20.8502 16.9001C20.9502 17.1001 21.0502 17.5001 21.0502 17.9001C21.0502 18.3001 20.9502 18.7001 20.6502 19.0001C20.4502 19.3001 20.0502 19.6001 19.6502 19.9001C20.2502 20.4001 20.5502 21.0001 20.5502 21.7001C20.5502 22.0001 20.4502 22.3001 20.3502 22.6001C20.2502 22.9001 19.9502 23.1001 19.7502 23.3001C19.4502 23.5001 19.1502 23.7001 18.7502 23.8001C18.3502 23.9001 17.9502 24.0001 17.4502 24.0001C16.9502 24.0001 16.4502 23.9001 16.0502 23.8001C15.6502 23.7001 15.2502 23.5001 14.9502 23.2001C14.6502 23.0001 14.4502 22.7001 14.2502 22.4001C14.0502 22.1001 14.0502 21.9001 14.0502 21.6001C14.0502 21.4001 14.1502 21.2001 14.3502 21.0001C14.5502 20.8001 14.7502 20.7001 14.9502 20.7001C15.0502 20.7001 15.1502 20.7001 15.2502 20.8001C15.3502 20.8001 15.4502 20.9001 15.4502 20.9001C15.6502 21.2001 15.8502 21.4001 15.9502 21.6001C16.2502 22.2001 16.7502 22.5001 17.3502 22.5001C17.7502 22.5001 18.0502 22.4001 18.2502 22.2001C18.4502 22.0001 18.5502 21.8001 18.5502 21.5001C18.5502 21.3001 18.4502 21.2001 18.3502 21.0001C18.2502 20.8001 18.0502 20.7001 17.7502 20.5001C17.5502 20.3001 17.1502 20.1001 16.6502 19.8001C16.1502 19.5001 15.6502 19.2001 15.1502 18.9001C14.9502 18.8001 14.7502 18.6001 14.5502 18.5001C14.3502 18.4001 14.1502 18.2001 13.9502 18.0001C13.7502 17.8001 13.6502 17.6001 13.5502 17.4001C13.4502 17.2001 13.4502 16.9001 13.4502 16.6001C13.4502 15.8001 13.9502 15.1001 14.9502 14.7001C14.7502 14.5001 14.5502 13.9001 14.5502 13.3001ZM16.3502 15.7001C15.8502 16.0001 15.5502 16.4001 15.5502 16.7001C15.5502 16.9001 15.6502 17.0001 15.7502 17.2001C15.8502 17.4001 16.0502 17.5001 16.3502 17.6001C16.6502 17.7001 16.9502 18.0001 17.4502 18.2001C17.5502 18.3001 17.7502 18.4001 18.0502 18.5001C18.3502 18.6001 18.5502 18.8001 18.7502 18.9001C19.3502 18.5001 19.5502 18.2001 19.5502 17.9001C19.5502 17.7001 19.5502 17.6001 19.4502 17.5001C19.3502 17.4001 19.2502 17.2001 19.0502 17.1001C18.8502 17.0001 18.6502 16.8001 18.4502 16.7001C18.2502 16.6001 17.8502 16.4001 17.4502 16.2001C17.1502 16.0001 16.8502 15.9001 16.7502 15.8001C16.4502 15.8001 16.3502 15.7001 16.3502 15.7001Z" fill="#29D305"/>
<path d="M17.1496 7.5H6.64961C6.24961 7.5 5.84961 7.2 5.84961 6.7C5.84961 6.2 6.24961 6 6.64961 6H17.1496C17.5496 6 17.9496 6.3 17.9496 6.8C17.9496 7.3 17.5496 7.5 17.1496 7.5Z" fill="black"/>
<path d="M10.3495 11.9999H6.54951C6.14951 11.9999 5.74951 11.6999 5.74951 11.1999C5.74951 10.6999 6.04951 10.3999 6.54951 10.3999H10.3495C10.7495 10.3999 11.1495 10.6999 11.1495 11.1999C11.1495 11.6999 10.8495 11.9999 10.3495 11.9999Z" fill="black"/>
<path d="M10.3495 16.5H6.54951C6.14951 16.5 5.74951 16.2 5.74951 15.8C5.74951 15.4 6.04951 15 6.54951 15H10.3495C10.7495 15 11.1495 15.3 11.1495 15.8C11.1495 16.2 10.8495 16.5 10.3495 16.5Z" fill="black"/>
<path d="M10.3502 21H5.1502C3.9502 21 2.9502 20 2.9502 18.8V2.2C2.9502 1 3.9502 0 5.1502 0H15.7502C16.3502 0 16.9502 0.2 17.3502 0.7L20.2502 3.6C20.6502 4 20.9502 4.6 20.9502 5.2V7.6C20.9502 8 20.6502 8.4 20.1502 8.4C19.6502 8.4 19.3502 8.1 19.3502 7.6V5.1C19.3502 4.9 19.2502 4.7 19.1502 4.6L16.2502 1.7C16.1502 1.6 15.9502 1.5 15.7502 1.5H5.1502C4.7502 1.5 4.3502 1.8 4.3502 2.3V18.8C4.3502 19.2 4.6502 19.6 5.1502 19.6H10.3502C10.7502 19.6 11.1502 19.9 11.1502 20.4C11.1502 20.9 10.8502 21 10.3502 21Z" fill="black"/>
</svg>
