<svg width="40" height="40" viewBox="0 0 40 40" fill="none" xmlns="http://www.w3.org/2000/svg">
<path fill-rule="evenodd" clip-rule="evenodd" d="M21.4277 29.5238C21.4277 28.7348 22.0673 28.0952 22.8563 28.0952L35.2373 28.0952C36.0262 28.0952 36.6658 28.7348 36.6658 29.5238C36.6658 30.3128 36.0262 30.9524 35.2373 30.9524L22.8563 30.9524C22.0673 30.9524 21.4277 30.3128 21.4277 29.5238Z" fill="#29D305"/>
<path fill-rule="evenodd" clip-rule="evenodd" d="M21.4277 21.9046C21.4277 21.1157 22.0673 20.4761 22.8563 20.4761L38.0944 20.4761C38.8834 20.4761 39.523 21.1157 39.523 21.9046C39.523 22.6936 38.8834 23.3332 38.0944 23.3332L22.8563 23.3332C22.0673 23.3332 21.4277 22.6936 21.4277 21.9046Z" fill="#29D305"/>
<path fill-rule="evenodd" clip-rule="evenodd" d="M21.4277 14.2857C21.4277 13.4968 22.0673 12.8572 22.8563 12.8572L36.1896 12.8572C36.9786 12.8572 37.6182 13.4968 37.6182 14.2858C37.6182 15.0747 36.9786 15.7143 36.1896 15.7143L22.8563 15.7143C22.0673 15.7143 21.4277 15.0747 21.4277 14.2857Z" fill="#29D305"/>
<path fill-rule="evenodd" clip-rule="evenodd" d="M21.4277 6.66661C21.4277 5.87763 22.0673 5.23804 22.8563 5.23804L32.3801 5.23804C33.1691 5.23804 33.8087 5.87763 33.8087 6.66661C33.8087 7.45559 33.1691 8.09518 32.3801 8.09518L22.8563 8.09518C22.0673 8.09518 21.4277 7.45559 21.4277 6.66661Z" fill="#29D305"/>
<path fill-rule="evenodd" clip-rule="evenodd" d="M20 37.1429C29.4677 37.1429 37.1429 29.4677 37.1429 20C37.1429 10.5323 29.4677 2.85714 20 2.85714C10.5323 2.85714 2.85714 10.5323 2.85714 20C2.85714 29.4677 10.5323 37.1429 20 37.1429ZM20 40C31.0457 40 40 31.0457 40 20C40 8.95431 31.0457 0 20 0C8.95431 0 0 8.95431 0 20C0 31.0457 8.95431 40 20 40Z" fill="black"/>
</svg>
