<svg width="731" height="186" viewBox="0 0 731 186" fill="none" xmlns="http://www.w3.org/2000/svg">
<path fill-rule="evenodd" clip-rule="evenodd" d="M47.0008 186L47.0008 -3.7823e-08L47.8633 0L47.8633 186L47.0008 186Z" fill="#F4F4F4"/>
<path fill-rule="evenodd" clip-rule="evenodd" d="M423.048 186L423.048 -3.7823e-08L423.91 0L423.91 186L423.048 186Z" fill="#F4F4F4"/>
<path fill-rule="evenodd" clip-rule="evenodd" d="M23.5008 186L23.5008 -3.7823e-08L24.3633 0L24.3633 186L23.5008 186Z" fill="#F4F4F4"/>
<path fill-rule="evenodd" clip-rule="evenodd" d="M0.000793457 22.1435L730.051 22.1435V23.0103L0.000793457 23.0103V22.1435Z" fill="#F4F4F4"/>
<path fill-rule="evenodd" clip-rule="evenodd" d="M0.000793457 93.0004L730.051 93.0004V93.8672L0.000793457 93.8672V93.0004Z" fill="#F4F4F4"/>
<path fill-rule="evenodd" clip-rule="evenodd" d="M0.000793457 45.7622L730.051 45.7622V46.6289L0.000793457 46.6289V45.7622Z" fill="#F4F4F4"/>
<path fill-rule="evenodd" clip-rule="evenodd" d="M0.000793457 116.62L730.051 116.62V117.486L0.000793457 117.486V116.62Z" fill="#F4F4F4"/>
<path fill-rule="evenodd" clip-rule="evenodd" d="M0.000793457 69.3813L730.051 69.3813V70.248L0.000793457 70.248V69.3813Z" fill="#F4F4F4"/>
<path fill-rule="evenodd" clip-rule="evenodd" d="M0.000793457 140.239L730.051 140.239V141.105L0.000793457 141.105V140.239Z" fill="#F4F4F4"/>
<path fill-rule="evenodd" clip-rule="evenodd" d="M0.000793457 163.857L730.051 163.857V164.724L0.000793457 164.724V163.857Z" fill="#F4F4F4"/>
<path fill-rule="evenodd" clip-rule="evenodd" d="M399.548 186L399.548 -3.77003e-08L400.41 0L400.41 186L399.548 186Z" fill="#F4F4F4"/>
<path fill-rule="evenodd" clip-rule="evenodd" d="M94.0125 186L94.0125 -3.7823e-08L94.875 0L94.875 186L94.0125 186Z" fill="#F4F4F4"/>
<path fill-rule="evenodd" clip-rule="evenodd" d="M470.052 186L470.052 -3.77003e-08L470.914 0L470.914 186L470.052 186Z" fill="#F4F4F4"/>
<path fill-rule="evenodd" clip-rule="evenodd" d="M70.5086 186L70.5086 -3.77003e-08L71.3711 0L71.3711 186L70.5086 186Z" fill="#F4F4F4"/>
<path fill-rule="evenodd" clip-rule="evenodd" d="M446.548 186L446.548 -3.7823e-08L447.41 0L447.41 186L446.548 186Z" fill="#F4F4F4"/>
<path fill-rule="evenodd" clip-rule="evenodd" d="M141.016 186L141.016 -3.77003e-08L141.879 0L141.879 186L141.016 186Z" fill="#F4F4F4"/>
<path fill-rule="evenodd" clip-rule="evenodd" d="M517.055 186L517.055 -3.7823e-08L517.918 0L517.918 186L517.055 186Z" fill="#F4F4F4"/>
<path fill-rule="evenodd" clip-rule="evenodd" d="M117.509 186L117.509 -3.7823e-08L118.371 0L118.371 186L117.509 186Z" fill="#F4F4F4"/>
<path fill-rule="evenodd" clip-rule="evenodd" d="M493.552 186L493.552 -3.77003e-08L494.414 0L494.414 186L493.552 186Z" fill="#F4F4F4"/>
<path fill-rule="evenodd" clip-rule="evenodd" d="M188.016 186L188.016 -3.7823e-08L188.879 0L188.879 186L188.016 186Z" fill="#F4F4F4"/>
<path fill-rule="evenodd" clip-rule="evenodd" d="M564.063 186L564.063 -3.77003e-08L564.926 0L564.926 186L564.063 186Z" fill="#F4F4F4"/>
<path fill-rule="evenodd" clip-rule="evenodd" d="M164.516 186L164.516 -3.77003e-08L165.379 0L165.379 186L164.516 186Z" fill="#F4F4F4"/>
<path fill-rule="evenodd" clip-rule="evenodd" d="M540.559 186L540.559 -3.7823e-08L541.422 0L541.422 186L540.559 186Z" fill="#F4F4F4"/>
<path fill-rule="evenodd" clip-rule="evenodd" d="M235.024 186L235.024 -3.77003e-08L235.887 0L235.887 186L235.024 186Z" fill="#F4F4F4"/>
<path fill-rule="evenodd" clip-rule="evenodd" d="M611.067 186L611.067 -3.7823e-08L611.93 0L611.93 186L611.067 186Z" fill="#F4F4F4"/>
<path fill-rule="evenodd" clip-rule="evenodd" d="M211.52 186L211.52 -3.7823e-08L212.383 0L212.383 186L211.52 186Z" fill="#F4F4F4"/>
<path fill-rule="evenodd" clip-rule="evenodd" d="M587.563 186L587.563 -3.7823e-08L588.426 0L588.426 186L587.563 186Z" fill="#F4F4F4"/>
<path fill-rule="evenodd" clip-rule="evenodd" d="M282.028 186L282.028 -3.7823e-08L282.891 0L282.891 186L282.028 186Z" fill="#F4F4F4"/>
<path fill-rule="evenodd" clip-rule="evenodd" d="M658.071 186L658.071 -3.7823e-08L658.934 0L658.934 186L658.071 186Z" fill="#F4F4F4"/>
<path fill-rule="evenodd" clip-rule="evenodd" d="M258.528 186L258.528 -3.77003e-08L259.391 0L259.391 186L258.528 186Z" fill="#F4F4F4"/>
<path fill-rule="evenodd" clip-rule="evenodd" d="M634.571 186L634.571 -3.77003e-08L635.434 0L635.434 186L634.571 186Z" fill="#F4F4F4"/>
<path fill-rule="evenodd" clip-rule="evenodd" d="M329.04 186L329.04 -3.77003e-08L329.902 0L329.902 186L329.04 186Z" fill="#F4F4F4"/>
<path fill-rule="evenodd" clip-rule="evenodd" d="M705.079 186L705.079 -3.77003e-08L705.941 0L705.941 186L705.079 186Z" fill="#F4F4F4"/>
<path fill-rule="evenodd" clip-rule="evenodd" d="M305.532 186L305.532 -3.77003e-08L306.395 0L306.395 186L305.532 186Z" fill="#F4F4F4"/>
<path fill-rule="evenodd" clip-rule="evenodd" d="M681.575 186L681.575 -3.7823e-08L682.438 0L682.437 186L681.575 186Z" fill="#F4F4F4"/>
<path fill-rule="evenodd" clip-rule="evenodd" d="M376.04 186L376.04 -3.77003e-08L376.902 0L376.902 186L376.04 186Z" fill="#F4F4F4"/>
<path fill-rule="evenodd" clip-rule="evenodd" d="M352.54 186L352.54 -3.7823e-08L353.402 0L353.402 186L352.54 186Z" fill="#F4F4F4"/>
<path fill-rule="evenodd" clip-rule="evenodd" d="M728.579 186L728.579 -3.77003e-08L729.441 0L729.441 186L728.579 186Z" fill="#F4F4F4"/>
<path d="M683.047 0H730.052V186H683.047V0Z" fill="#F4F4F4"/>
<path d="M0 0H47.0052V186H0V0Z" fill="#F4F4F4"/>
<path fill-rule="evenodd" clip-rule="evenodd" d="M46.1406 72.8484C46.1406 70.4549 48.0714 68.5146 50.453 68.5146H90.5584C92.9401 68.5146 94.8708 70.4549 94.8708 72.8484V113.152C94.8708 115.546 92.9401 117.486 90.5584 117.486H50.453C48.0714 117.486 46.1406 115.546 46.1406 113.152V72.8484ZM50.453 70.2482C49.024 70.2482 47.8656 71.4123 47.8656 72.8484V113.152C47.8656 114.589 49.024 115.753 50.453 115.753H90.5584C91.9874 115.753 93.1459 114.589 93.1459 113.152V72.8484C93.1459 71.4123 91.9874 70.2482 90.5584 70.2482H50.453Z" fill="#29D305"/>
<path fill-rule="evenodd" clip-rule="evenodd" d="M116.648 72.8484C116.648 70.4549 118.579 68.5146 120.961 68.5146H161.066C163.448 68.5146 165.379 70.4549 165.379 72.8484V113.152C165.379 115.546 163.448 117.486 161.066 117.486H120.961C118.579 117.486 116.648 115.546 116.648 113.152V72.8484ZM120.961 70.2482C119.532 70.2482 118.373 71.4123 118.373 72.8484V113.152C118.373 114.589 119.532 115.753 120.961 115.753H161.066C162.495 115.753 163.654 114.589 163.654 113.152V72.8484C163.654 71.4123 162.495 70.2482 161.066 70.2482H120.961Z" fill="#29D305"/>
<path fill-rule="evenodd" clip-rule="evenodd" d="M210.66 72.8484C210.66 70.4549 212.591 68.5146 214.973 68.5146H255.078C257.46 68.5146 259.39 70.4549 259.39 72.8484V113.152C259.39 115.546 257.46 117.486 255.078 117.486H214.973C212.591 117.486 210.66 115.546 210.66 113.152V72.8484ZM214.973 70.2482C213.544 70.2482 212.385 71.4123 212.385 72.8484V113.152C212.385 114.589 213.544 115.753 214.973 115.753H255.078C256.507 115.753 257.665 114.589 257.665 113.152V72.8484C257.665 71.4123 256.507 70.2482 255.078 70.2482H214.973Z" fill="#29D305"/>
<path fill-rule="evenodd" clip-rule="evenodd" d="M328.176 72.8484C328.176 70.4549 330.107 68.5146 332.488 68.5146H372.594C374.975 68.5146 376.906 70.4549 376.906 72.8484V113.152C376.906 115.546 374.975 117.486 372.594 117.486H332.488C330.107 117.486 328.176 115.546 328.176 113.152V72.8484ZM332.488 70.2482C331.059 70.2482 329.901 71.4123 329.901 72.8484V113.152C329.901 114.589 331.059 115.753 332.488 115.753H372.594C374.023 115.753 375.181 114.589 375.181 113.152V72.8484C375.181 71.4123 374.023 70.2482 372.594 70.2482H332.488Z" fill="#29D305"/>
<path fill-rule="evenodd" clip-rule="evenodd" d="M470.656 72.8484C470.656 70.4549 472.587 68.5146 474.969 68.5146H515.074C517.456 68.5146 519.386 70.4549 519.386 72.8484V113.152C519.386 115.546 517.456 117.486 515.074 117.486H474.969C472.587 117.486 470.656 115.546 470.656 113.152V72.8484ZM474.969 70.2482C473.54 70.2482 472.381 71.4123 472.381 72.8484V113.152C472.381 114.589 473.54 115.753 474.969 115.753H515.074C516.503 115.753 517.661 114.589 517.661 113.152V72.8484C517.661 71.4123 516.503 70.2482 515.074 70.2482H474.969Z" fill="#29D305"/>
<path fill-rule="evenodd" clip-rule="evenodd" d="M633.707 72.8484C633.707 70.4549 635.638 68.5146 638.019 68.5146H678.125C680.507 68.5146 682.437 70.4549 682.437 72.8484V113.152C682.437 115.546 680.507 117.486 678.125 117.486H638.019C635.638 117.486 633.707 115.546 633.707 113.152V72.8484ZM638.019 70.2482C636.59 70.2482 635.432 71.4123 635.432 72.8484V113.152C635.432 114.589 636.59 115.753 638.019 115.753H678.125C679.554 115.753 680.712 114.589 680.712 113.152V72.8484C680.712 71.4123 679.554 70.2482 678.125 70.2482H638.019Z" fill="#29D305"/>
<path fill-rule="evenodd" clip-rule="evenodd" d="M96.3445 134.333C96.8209 134.333 97.207 134.722 97.207 135.2L97.207 145.276C97.207 145.755 96.8209 146.143 96.3446 146.143C95.8682 146.143 95.4821 145.755 95.4821 145.276L95.4821 135.2C95.4821 134.722 95.8682 134.333 96.3445 134.333Z" fill="black"/>
<path fill-rule="evenodd" clip-rule="evenodd" d="M116.903 134.333C117.379 134.333 117.766 134.722 117.766 135.2L117.766 145.276C117.766 145.755 117.379 146.143 116.903 146.143C116.427 146.143 116.041 145.755 116.041 145.276L116.041 135.2C116.041 134.722 116.427 134.333 116.903 134.333Z" fill="black"/>
<path fill-rule="evenodd" clip-rule="evenodd" d="M117.516 139.629C117.516 140.108 117.129 140.496 116.653 140.496H97.8133C97.337 140.496 96.9508 140.108 96.9508 139.629C96.9508 139.15 97.337 138.762 97.8133 138.762H116.653C117.129 138.762 117.516 139.15 117.516 139.629Z" fill="black"/>
<path d="M98.7325 168.637C98.2575 168.637 97.8188 168.577 97.4163 168.455C97.0219 168.334 96.6798 168.168 96.39 167.958C96.1082 167.739 95.8869 167.48 95.7259 167.181C95.5649 166.874 95.4844 166.542 95.4844 166.186C95.4844 165.717 95.6373 165.296 95.9432 164.924C96.2491 164.544 96.6476 164.265 97.1386 164.087C96.7361 163.909 96.4101 163.65 96.1606 163.31C95.9191 162.962 95.7983 162.582 95.7983 162.169C95.7983 161.846 95.8708 161.547 96.0157 161.272C96.1686 160.988 96.3739 160.746 96.6315 160.543C96.8971 160.341 97.207 160.183 97.5612 160.07C97.9235 159.949 98.3139 159.888 98.7325 159.888C99.143 159.888 99.5294 159.949 99.8917 160.07C100.254 160.183 100.564 160.341 100.821 160.543C101.087 160.746 101.292 160.988 101.437 161.272C101.59 161.547 101.667 161.846 101.667 162.169C101.667 162.582 101.542 162.962 101.292 163.31C101.051 163.65 100.729 163.909 100.326 164.087C100.817 164.265 101.216 164.544 101.522 164.924C101.828 165.296 101.981 165.717 101.981 166.186C101.981 166.542 101.9 166.874 101.739 167.181C101.578 167.48 101.353 167.739 101.063 167.958C100.781 168.168 100.439 168.334 100.037 168.455C99.6421 168.577 99.2074 168.637 98.7325 168.637ZM98.7325 163.613C99.2235 163.613 99.6381 163.48 99.9762 163.213C100.322 162.946 100.495 162.623 100.495 162.242C100.495 161.854 100.326 161.526 99.9883 161.259C99.6502 160.992 99.2316 160.859 98.7325 160.859C98.2334 160.859 97.8148 160.992 97.4767 161.259C97.1467 161.526 96.9816 161.854 96.9816 162.242C96.9816 162.623 97.1507 162.946 97.4888 163.213C97.8269 163.48 98.2414 163.613 98.7325 163.613ZM98.7325 167.654C99.3121 167.654 99.7991 167.509 100.194 167.217C100.588 166.918 100.785 166.55 100.785 166.113C100.785 165.676 100.588 165.312 100.194 165.021C99.7991 164.73 99.3121 164.584 98.7325 164.584C98.1529 164.584 97.6659 164.73 97.2714 165.021C96.877 165.312 96.6798 165.676 96.6798 166.113C96.6798 166.55 96.877 166.918 97.2714 167.217C97.6659 167.509 98.1529 167.654 98.7325 167.654Z" fill="black"/>
<path d="M105.724 171.028V162.339H106.92V162.934C107.169 162.707 107.455 162.538 107.777 162.424C108.099 162.303 108.441 162.242 108.803 162.242C109.238 162.242 109.645 162.327 110.023 162.497C110.401 162.659 110.727 162.881 111.001 163.165C111.283 163.448 111.504 163.783 111.665 164.172C111.826 164.56 111.907 164.977 111.907 165.422C111.907 165.866 111.826 166.287 111.665 166.684C111.504 167.072 111.283 167.408 111.001 167.691C110.727 167.974 110.397 168.2 110.011 168.37C109.625 168.532 109.214 168.613 108.779 168.613C108.441 168.613 108.111 168.56 107.789 168.455C107.475 168.35 107.189 168.2 106.932 168.006V171.028H105.724ZM108.646 163.298C108.3 163.298 107.978 163.363 107.681 163.492C107.383 163.622 107.133 163.804 106.932 164.038V166.829C107.125 167.056 107.371 167.234 107.668 167.363C107.974 167.493 108.3 167.557 108.646 167.557C109.234 167.557 109.725 167.355 110.12 166.95C110.522 166.546 110.723 166.04 110.723 165.434C110.723 164.827 110.522 164.321 110.12 163.917C109.717 163.504 109.226 163.298 108.646 163.298Z" fill="black"/>
<path d="M111.805 168.516L114.195 165.349L111.901 162.339H113.314L114.896 164.463L116.478 162.339H117.842L115.572 165.337L117.999 168.516H116.574L114.884 166.235L113.169 168.516H111.805Z" fill="black"/>
<path fill-rule="evenodd" clip-rule="evenodd" d="M166.852 134.333C167.329 134.333 167.715 134.722 167.715 135.2L167.715 145.276C167.715 145.755 167.329 146.143 166.852 146.143C166.376 146.143 165.99 145.755 165.99 145.276L165.99 135.2C165.99 134.722 166.376 134.333 166.852 134.333Z" fill="black"/>
<path fill-rule="evenodd" clip-rule="evenodd" d="M209.454 134.333C209.93 134.333 210.316 134.722 210.316 135.2L210.316 145.276C210.316 145.755 209.93 146.143 209.454 146.143C208.978 146.143 208.591 145.755 208.591 145.276L208.591 135.2C208.591 134.722 208.978 134.333 209.454 134.333Z" fill="black"/>
<path fill-rule="evenodd" clip-rule="evenodd" d="M210.055 139.629C210.055 140.108 209.669 140.496 209.192 140.496L168.319 140.496C167.842 140.496 167.456 140.108 167.456 139.629C167.456 139.15 167.842 138.762 168.319 138.762L209.192 138.762C209.669 138.762 210.055 139.15 210.055 139.629Z" fill="black"/>
<path d="M176.154 160.022V168.516H174.959V161.272L173.438 161.915V160.847L175.394 160.022H176.154Z" fill="black"/>
<path d="M180.966 168.638C180.442 168.638 179.959 168.537 179.517 168.334C179.082 168.132 178.708 167.853 178.394 167.497C178.088 167.133 177.846 166.7 177.669 166.199C177.5 165.689 177.416 165.131 177.416 164.524C177.416 163.828 177.512 163.193 177.705 162.619C177.899 162.045 178.168 161.559 178.514 161.163C178.869 160.758 179.291 160.447 179.782 160.229C180.281 160.01 180.833 159.901 181.436 159.901C181.839 159.901 182.237 159.962 182.632 160.083C183.026 160.204 183.368 160.366 183.658 160.568L183.018 161.466C182.769 161.296 182.503 161.171 182.221 161.09C181.948 161.009 181.662 160.969 181.364 160.969C180.535 160.969 179.875 161.264 179.384 161.855C178.901 162.445 178.643 163.27 178.611 164.33C178.909 163.982 179.275 163.711 179.71 163.517C180.144 163.315 180.599 163.214 181.074 163.214C181.501 163.214 181.891 163.282 182.245 163.42C182.608 163.549 182.918 163.731 183.175 163.966C183.441 164.192 183.646 164.468 183.791 164.791C183.936 165.115 184.008 165.467 184.008 165.847C184.008 166.251 183.932 166.623 183.779 166.963C183.626 167.303 183.413 167.598 183.139 167.849C182.873 168.092 182.551 168.286 182.173 168.431C181.803 168.569 181.4 168.638 180.966 168.638ZM180.869 164.184C180.458 164.184 180.06 164.285 179.674 164.488C179.287 164.682 178.953 164.961 178.671 165.325C178.776 166.005 179.034 166.555 179.444 166.975C179.855 167.396 180.35 167.606 180.929 167.606C181.469 167.606 181.915 167.44 182.27 167.109C182.632 166.777 182.813 166.369 182.813 165.883C182.813 165.382 182.632 164.973 182.27 164.658C181.907 164.342 181.44 164.184 180.869 164.184Z" fill="black"/>
<path d="M187.68 171.028V162.34H188.875V162.935C189.125 162.708 189.41 162.538 189.732 162.425C190.054 162.304 190.397 162.243 190.759 162.243C191.193 162.243 191.6 162.328 191.978 162.498C192.357 162.659 192.683 162.882 192.956 163.165C193.238 163.448 193.46 163.784 193.621 164.172C193.782 164.561 193.862 164.977 193.862 165.422C193.862 165.867 193.782 166.288 193.621 166.684C193.46 167.072 193.238 167.408 192.956 167.691C192.683 167.974 192.353 168.201 191.966 168.371C191.58 168.533 191.169 168.613 190.735 168.613C190.397 168.613 190.067 168.561 189.745 168.456C189.431 168.351 189.145 168.201 188.887 168.007V171.028H187.68ZM190.602 163.299C190.256 163.299 189.934 163.363 189.636 163.493C189.338 163.622 189.088 163.804 188.887 164.039V166.83C189.08 167.056 189.326 167.234 189.624 167.364C189.93 167.493 190.256 167.558 190.602 167.558C191.189 167.558 191.681 167.356 192.075 166.951C192.477 166.547 192.679 166.041 192.679 165.434C192.679 164.828 192.477 164.322 192.075 163.917C191.672 163.505 191.181 163.299 190.602 163.299Z" fill="black"/>
<path d="M193.76 168.516L196.151 165.349L193.857 162.34H195.269L196.851 164.463L198.433 162.34H199.797L197.527 165.337L199.954 168.516H198.529L196.839 166.235L195.124 168.516H193.76Z" fill="black"/>
<path fill-rule="evenodd" clip-rule="evenodd" d="M260.864 134.333C261.34 134.333 261.727 134.722 261.727 135.2L261.727 145.276C261.727 145.755 261.34 146.143 260.864 146.143C260.388 146.143 260.002 145.755 260.002 145.276L260.002 135.2C260.002 134.722 260.388 134.333 260.864 134.333Z" fill="black"/>
<path fill-rule="evenodd" clip-rule="evenodd" d="M326.966 134.333C327.442 134.333 327.828 134.722 327.828 135.2L327.828 145.276C327.828 145.755 327.442 146.143 326.966 146.143C326.489 146.143 326.103 145.755 326.103 145.276L326.103 135.2C326.103 134.722 326.489 134.333 326.966 134.333Z" fill="black"/>
<path fill-rule="evenodd" clip-rule="evenodd" d="M327.574 139.629C327.574 140.108 327.188 140.496 326.712 140.496H262.336C261.859 140.496 261.473 140.108 261.473 139.629C261.473 139.15 261.859 138.762 262.336 138.762H326.712C327.188 138.762 327.574 139.15 327.574 139.629Z" fill="black"/>
<path d="M266.862 168.516V167.642L270.122 164.597C270.605 164.135 270.939 163.751 271.124 163.444C271.317 163.136 271.414 162.813 271.414 162.473C271.414 162.036 271.245 161.676 270.907 161.393C270.577 161.102 270.158 160.956 269.651 160.956C269.24 160.956 268.858 161.037 268.504 161.199C268.149 161.361 267.763 161.628 267.345 162L266.656 161.175C267.123 160.754 267.61 160.438 268.117 160.228C268.624 160.018 269.144 159.913 269.675 159.913C270.102 159.913 270.492 159.973 270.846 160.095C271.208 160.216 271.514 160.39 271.764 160.616C272.021 160.835 272.223 161.098 272.368 161.405C272.512 161.704 272.585 162.036 272.585 162.4C272.585 162.886 272.464 163.335 272.223 163.747C271.989 164.16 271.547 164.669 270.894 165.276L268.516 167.485H272.718V168.516H266.862Z" fill="black"/>
<path d="M279.227 160.022V165.337H280.253V166.368H279.227V168.516H278.032V166.368H273.238V165.397L277.887 160.022H279.227ZM274.663 165.337H278.032V161.442L274.663 165.337Z" fill="black"/>
<path d="M283.883 171.028V162.34H285.079V162.934C285.328 162.708 285.614 162.538 285.936 162.424C286.258 162.303 286.6 162.242 286.962 162.242C287.397 162.242 287.803 162.327 288.182 162.497C288.56 162.659 288.886 162.882 289.16 163.165C289.442 163.448 289.663 163.784 289.824 164.172C289.985 164.56 290.065 164.977 290.065 165.422C290.065 165.867 289.985 166.287 289.824 166.684C289.663 167.072 289.442 167.408 289.16 167.691C288.886 167.974 288.556 168.201 288.17 168.37C287.783 168.532 287.373 168.613 286.938 168.613C286.6 168.613 286.27 168.56 285.948 168.455C285.634 168.35 285.348 168.201 285.091 168.006V171.028H283.883ZM286.805 163.298C286.459 163.298 286.137 163.363 285.839 163.492C285.541 163.622 285.292 163.804 285.091 164.038V166.829C285.284 167.056 285.529 167.234 285.827 167.363C286.133 167.493 286.459 167.557 286.805 167.557C287.393 167.557 287.884 167.355 288.278 166.951C288.681 166.546 288.882 166.041 288.882 165.434C288.882 164.827 288.681 164.321 288.278 163.917C287.876 163.504 287.385 163.298 286.805 163.298Z" fill="black"/>
<path d="M289.963 168.516L292.354 165.349L290.06 162.34H291.473L293.055 164.463L294.636 162.34H296.001L293.731 165.337L296.158 168.516H294.733L293.042 166.235L291.328 168.516H289.963Z" fill="black"/>
<path fill-rule="evenodd" clip-rule="evenodd" d="M378.376 134.333C378.852 134.333 379.238 134.722 379.238 135.2L379.238 145.276C379.238 145.755 378.852 146.143 378.376 146.143C377.899 146.143 377.513 145.755 377.513 145.276L377.513 135.2C377.513 134.722 377.899 134.333 378.376 134.333Z" fill="black"/>
<path fill-rule="evenodd" clip-rule="evenodd" d="M467.977 134.333C468.454 134.333 468.84 134.722 468.84 135.2L468.84 145.276C468.84 145.755 468.454 146.143 467.977 146.143C467.501 146.143 467.115 145.755 467.115 145.276L467.115 135.2C467.115 134.722 467.501 134.333 467.977 134.333Z" fill="black"/>
<path fill-rule="evenodd" clip-rule="evenodd" d="M468.586 139.629C468.586 140.108 468.2 140.496 467.723 140.496L379.845 140.496C379.368 140.496 378.982 140.108 378.982 139.629C378.982 139.15 379.368 138.762 379.845 138.762L467.723 138.762C468.2 138.762 468.586 139.15 468.586 139.629Z" fill="black"/>
<path d="M413.575 166.174C413.575 166.53 413.495 166.862 413.334 167.169C413.173 167.468 412.952 167.727 412.67 167.946C412.388 168.164 412.05 168.334 411.656 168.455C411.261 168.577 410.834 168.637 410.376 168.637C409.748 168.637 409.156 168.532 408.601 168.322C408.053 168.103 407.578 167.792 407.176 167.387L407.985 166.623C408.339 166.971 408.701 167.221 409.072 167.375C409.45 167.521 409.881 167.594 410.364 167.594C410.951 167.594 411.43 167.456 411.8 167.181C412.171 166.906 412.356 166.55 412.356 166.113C412.356 165.717 412.179 165.393 411.825 165.142C411.478 164.892 411.016 164.766 410.436 164.766H409.699V163.783H410.339C410.83 163.783 411.241 163.642 411.571 163.359C411.901 163.076 412.066 162.724 412.066 162.303C412.066 161.915 411.897 161.591 411.559 161.332C411.229 161.073 410.818 160.944 410.327 160.944C409.893 160.944 409.502 161.021 409.156 161.174C408.81 161.328 408.452 161.591 408.081 161.963L407.272 161.187C407.683 160.774 408.154 160.454 408.685 160.228C409.216 160.001 409.772 159.888 410.351 159.888C410.77 159.888 411.156 159.949 411.511 160.07C411.873 160.183 412.183 160.341 412.44 160.543C412.698 160.746 412.899 160.992 413.044 161.284C413.189 161.567 413.261 161.878 413.261 162.218C413.261 162.647 413.137 163.035 412.887 163.383C412.646 163.723 412.312 163.994 411.885 164.196C412.392 164.35 412.799 164.604 413.104 164.96C413.418 165.308 413.575 165.713 413.575 166.174Z" fill="black"/>
<path d="M414.444 168.516V167.642L417.704 164.596C418.187 164.135 418.522 163.751 418.707 163.444C418.9 163.136 418.996 162.813 418.996 162.473C418.996 162.036 418.827 161.676 418.489 161.393C418.159 161.102 417.741 160.956 417.234 160.956C416.823 160.956 416.441 161.037 416.086 161.199C415.732 161.361 415.346 161.627 414.927 162L414.239 161.174C414.706 160.754 415.193 160.438 415.7 160.228C416.207 160.018 416.726 159.912 417.258 159.912C417.684 159.912 418.075 159.973 418.429 160.094C418.791 160.216 419.097 160.39 419.347 160.616C419.604 160.835 419.805 161.098 419.95 161.405C420.095 161.704 420.168 162.036 420.168 162.4C420.168 162.885 420.047 163.334 419.805 163.747C419.572 164.16 419.129 164.669 418.477 165.276L416.099 167.484H420.301V168.516H414.444Z" fill="black"/>
<path d="M423.931 171.028V162.339H425.126V162.934C425.376 162.707 425.662 162.538 425.984 162.424C426.306 162.303 426.648 162.242 427.01 162.242C427.445 162.242 427.851 162.327 428.23 162.497C428.608 162.659 428.934 162.881 429.208 163.165C429.489 163.448 429.711 163.783 429.872 164.172C430.033 164.56 430.113 164.977 430.113 165.422C430.113 165.866 430.033 166.287 429.872 166.684C429.711 167.072 429.489 167.408 429.208 167.691C428.934 167.974 428.604 168.2 428.218 168.37C427.831 168.532 427.421 168.613 426.986 168.613C426.648 168.613 426.318 168.56 425.996 168.455C425.682 168.35 425.396 168.2 425.139 168.006V171.028H423.931ZM426.853 163.298C426.507 163.298 426.185 163.363 425.887 163.492C425.589 163.622 425.34 163.804 425.139 164.038V166.829C425.332 167.056 425.577 167.234 425.875 167.363C426.181 167.493 426.507 167.557 426.853 167.557C427.441 167.557 427.932 167.355 428.326 166.95C428.729 166.546 428.93 166.04 428.93 165.434C428.93 164.827 428.729 164.321 428.326 163.917C427.924 163.504 427.433 163.298 426.853 163.298Z" fill="black"/>
<path d="M430.011 168.516L432.402 165.349L430.108 162.339H431.521L433.102 164.463L434.684 162.339H436.049L433.779 165.337L436.206 168.516H434.781L433.09 166.235L431.376 168.516H430.011Z" fill="black"/>
<path fill-rule="evenodd" clip-rule="evenodd" d="M519.384 134.333C519.86 134.333 520.246 134.722 520.246 135.2L520.246 145.276C520.246 145.755 519.86 146.143 519.384 146.143C518.907 146.143 518.521 145.755 518.521 145.276L518.521 135.2C518.521 134.722 518.907 134.333 519.384 134.333Z" fill="black"/>
<path fill-rule="evenodd" clip-rule="evenodd" d="M632.489 134.333C632.965 134.333 633.352 134.722 633.352 135.2L633.352 145.276C633.352 145.755 632.965 146.143 632.489 146.143C632.013 146.143 631.627 145.755 631.627 145.276L631.627 135.2C631.627 134.722 632.013 134.333 632.489 134.333Z" fill="black"/>
<path fill-rule="evenodd" clip-rule="evenodd" d="M633.094 139.629C633.094 140.108 632.708 140.496 632.231 140.496H520.85C520.374 140.496 519.987 140.108 519.987 139.629C519.987 139.15 520.374 138.762 520.85 138.762H632.231C632.708 138.762 633.094 139.15 633.094 139.629Z" fill="black"/>
<path d="M567.177 160.022V165.337H568.203V166.369H567.177V168.516H565.981V166.369H561.188V165.398L565.836 160.022H567.177ZM562.612 165.337H565.981V161.442L562.612 165.337Z" fill="black"/>
<path d="M572.642 168.638C572.119 168.638 571.636 168.533 571.193 168.322C570.758 168.104 570.384 167.805 570.07 167.424C569.764 167.044 569.523 166.587 569.345 166.053C569.176 165.511 569.092 164.916 569.092 164.269C569.092 163.622 569.176 163.032 569.345 162.498C569.523 161.956 569.764 161.495 570.07 161.114C570.384 160.734 570.758 160.439 571.193 160.229C571.636 160.01 572.119 159.901 572.642 159.901C573.165 159.901 573.644 160.01 574.079 160.229C574.522 160.439 574.9 160.734 575.214 161.114C575.528 161.495 575.769 161.956 575.938 162.498C576.115 163.032 576.204 163.622 576.204 164.269C576.204 164.916 576.115 165.511 575.938 166.053C575.769 166.587 575.528 167.044 575.214 167.424C574.9 167.805 574.522 168.104 574.079 168.322C573.644 168.533 573.165 168.638 572.642 168.638ZM572.642 167.57C573.366 167.57 573.942 167.275 574.369 166.684C574.803 166.085 575.021 165.281 575.021 164.269C575.021 163.258 574.803 162.453 574.369 161.855C573.942 161.256 573.366 160.957 572.642 160.957C571.917 160.957 571.338 161.256 570.903 161.855C570.476 162.453 570.263 163.258 570.263 164.269C570.263 165.281 570.476 166.085 570.903 166.684C571.338 167.275 571.917 167.57 572.642 167.57Z" fill="black"/>
<path d="M579.934 171.028V162.34H581.129V162.935C581.379 162.708 581.664 162.538 581.986 162.425C582.308 162.304 582.65 162.243 583.013 162.243C583.447 162.243 583.854 162.328 584.232 162.498C584.611 162.659 584.937 162.882 585.21 163.165C585.492 163.448 585.713 163.784 585.874 164.172C586.035 164.561 586.116 164.977 586.116 165.422C586.116 165.867 586.035 166.288 585.874 166.684C585.713 167.072 585.492 167.408 585.21 167.691C584.937 167.974 584.607 168.201 584.22 168.371C583.834 168.533 583.423 168.613 582.989 168.613C582.65 168.613 582.32 168.561 581.998 168.456C581.684 168.351 581.399 168.201 581.141 168.007V171.028H579.934ZM582.856 163.299C582.51 163.299 582.188 163.363 581.89 163.493C581.592 163.622 581.342 163.804 581.141 164.039V166.83C581.334 167.056 581.58 167.234 581.878 167.364C582.184 167.493 582.51 167.558 582.856 167.558C583.443 167.558 583.934 167.356 584.329 166.951C584.731 166.547 584.933 166.041 584.933 165.434C584.933 164.828 584.731 164.322 584.329 163.917C583.926 163.505 583.435 163.299 582.856 163.299Z" fill="black"/>
<path d="M586.014 168.516L588.405 165.349L586.11 162.34H587.523L589.105 164.463L590.687 162.34H592.051L589.781 165.337L592.208 168.516H590.783L589.093 166.235L587.378 168.516H586.014Z" fill="black"/>
</svg>
