<svg width="40" height="40" viewBox="0 0 40 40" fill="none" xmlns="http://www.w3.org/2000/svg">
<path d="M13.75 33.75L11.25 31.25" stroke="#29D305" stroke-width="2.5" stroke-linecap="round" stroke-linejoin="round"/>
<path d="M18.75 28.75L16.25 26.25" stroke="#29D305" stroke-width="2.5" stroke-linecap="round" stroke-linejoin="round"/>
<path d="M23.75 23.75L21.25 21.25" stroke="#29D305" stroke-width="2.5" stroke-linecap="round" stroke-linejoin="round"/>
<path d="M28.75 18.75L26.25 16.25" stroke="#29D305" stroke-width="2.5" stroke-linecap="round" stroke-linejoin="round"/>
<path d="M33.75 13.75L31.25 11.25" stroke="#29D305" stroke-width="2.5" stroke-linecap="round" stroke-linejoin="round"/>
<path d="M28.9899 6.00988C25.933 3.00867 21.8147 1.33596 17.5308 1.35564C13.2469 1.37532 9.14416 3.08581 6.11498 6.11498C3.08581 9.14416 1.37532 13.2469 1.35564 17.5308C1.33596 21.8147 3.00867 25.933 6.00988 28.9899L2.49988 32.4999L8.74988 38.7499L38.7499 8.74987L32.4999 2.49988L28.9899 6.00988Z" stroke="black" stroke-width="2.5" stroke-linecap="round" stroke-linejoin="round"/>
<path d="M11.3134 23.6867C9.70748 22.0387 8.81538 19.8245 8.83026 17.5235C8.84514 15.2225 9.76581 13.02 11.3929 11.3929C13.02 9.76581 15.2225 8.84514 17.5235 8.83026C19.8245 8.81538 22.0387 9.70748 23.6867 11.3134L11.3134 23.6867Z" stroke="black" stroke-width="2.5" stroke-linecap="round" stroke-linejoin="round"/>
</svg>
