<svg width="40" height="40" viewBox="0 0 40 40" fill="none" xmlns="http://www.w3.org/2000/svg">
<path fill-rule="evenodd" clip-rule="evenodd" d="M15 27.5C15.6904 27.5 16.25 28.0596 16.25 28.75V32.5C16.25 32.8315 16.3817 33.1495 16.6161 33.3839C16.8505 33.6183 17.1685 33.75 17.5 33.75H22.5C22.8315 33.75 23.1495 33.6183 23.3839 33.3839C23.6183 33.1495 23.75 32.8315 23.75 32.5V28.75C23.75 28.0596 24.3096 27.5 25 27.5C25.6904 27.5 26.25 28.0596 26.25 28.75V32.5C26.25 33.4946 25.8549 34.4484 25.1517 35.1516C24.4484 35.8549 23.4946 36.25 22.5 36.25H17.5C16.5054 36.25 15.5516 35.8549 14.8483 35.1516C14.1451 34.4484 13.75 33.4946 13.75 32.5V28.75C13.75 28.0596 14.3096 27.5 15 27.5Z" fill="black"/>
<path fill-rule="evenodd" clip-rule="evenodd" d="M20 0C20.6904 0 21.25 0.559644 21.25 1.25V3.75C21.25 4.44036 20.6904 5 20 5C19.3096 5 18.75 4.44036 18.75 3.75V1.25C18.75 0.559644 19.3096 0 20 0Z" fill="#29D305"/>
<path fill-rule="evenodd" clip-rule="evenodd" d="M1.25 18.75C1.25 18.0596 1.80964 17.5 2.5 17.5H5C5.69036 17.5 6.25 18.0596 6.25 18.75C6.25 19.4404 5.69036 20 5 20H2.5C1.80964 20 1.25 19.4404 1.25 18.75Z" fill="#29D305"/>
<path fill-rule="evenodd" clip-rule="evenodd" d="M5.34868 5.38391C5.82701 4.88612 6.6183 4.87035 7.11609 5.34868L8.94943 7.11034C9.44721 7.58867 9.46299 8.37997 8.98466 8.87776C8.50633 9.37555 7.71503 9.39132 7.21724 8.91299L5.38391 7.15133C4.88612 6.673 4.87035 5.8817 5.34868 5.38391Z" fill="#29D305"/>
<path fill-rule="evenodd" clip-rule="evenodd" d="M33.75 18.75C33.75 18.0596 34.3096 17.5 35 17.5H37.5C38.1904 17.5 38.75 18.0596 38.75 18.75C38.75 19.4404 38.1904 20 37.5 20H35C34.3096 20 33.75 19.4404 33.75 18.75Z" fill="#29D305"/>
<path fill-rule="evenodd" clip-rule="evenodd" d="M34.6507 5.38391C35.129 5.8817 35.1132 6.673 34.6154 7.15133L32.7821 8.91299C32.2843 9.39132 31.493 9.37555 31.0147 8.87776C30.5364 8.37997 30.5521 7.58867 31.0499 7.11034L32.8833 5.34868C33.3811 4.87035 34.1724 4.88612 34.6507 5.38391Z" fill="#29D305"/>
<path fill-rule="evenodd" clip-rule="evenodd" d="M19.9787 6.2502C19.9935 6.24993 20.0083 6.24993 20.0231 6.2502C23.3141 6.30858 26.454 7.64193 28.7815 9.96941C31.109 12.2969 32.4423 15.4368 32.5007 18.7278L32.5008 18.7333C32.5316 21.0419 31.9094 23.3123 30.7059 25.2827C29.5023 27.253 27.7664 28.8431 25.6983 29.8697C25.5256 29.9554 25.3354 30 25.1426 30H14.8592C14.65 30 14.4529 29.9486 14.2796 29.8578C12.2232 28.8314 10.4967 27.2471 9.2979 25.2858C8.09442 23.3169 7.47155 21.0481 7.501 18.7407L7.50107 18.7352H7.50108C7.55757 15.4429 8.89009 12.3011 11.2178 9.97207C13.5454 7.64301 16.6864 6.30864 19.9787 6.2502ZM15.1618 27.5H24.84C26.3746 26.6816 27.664 25.4666 28.5724 23.9795C29.5299 22.412 30.0251 20.6059 30.001 18.7693C29.9534 16.1269 28.8825 13.606 27.0137 11.7372C25.1495 9.87291 22.6363 8.8027 20.0009 8.75022C17.3645 8.80275 14.8505 9.87378 12.986 11.7393C11.1171 13.6094 10.0468 16.1319 10.0008 18.7753C9.97784 20.6109 10.4736 22.4157 11.431 23.982C12.3393 25.468 13.6281 26.6821 15.1618 27.5Z" fill="black"/>
<path fill-rule="evenodd" clip-rule="evenodd" d="M20 33.75C20.6904 33.75 21.25 34.3096 21.25 35V38.75C21.25 39.4404 20.6904 40 20 40C19.3096 40 18.75 39.4404 18.75 38.75V35C18.75 34.3096 19.3096 33.75 20 33.75Z" fill="black"/>
<path fill-rule="evenodd" clip-rule="evenodd" d="M20 21.25C20.6904 21.25 21.25 21.8096 21.25 22.5V28.75C21.25 29.4404 20.6904 30 20 30C19.3096 30 18.75 29.4404 18.75 28.75V22.5C18.75 21.8096 19.3096 21.25 20 21.25Z" fill="black"/>
<path fill-rule="evenodd" clip-rule="evenodd" d="M15.3661 17.8661C15.8543 17.378 16.6457 17.378 17.1339 17.8661L20 20.7322L22.8661 17.8661C23.3543 17.378 24.1457 17.378 24.6339 17.8661C25.122 18.3543 25.122 19.1457 24.6339 19.6339L20.8839 23.3839C20.3957 23.872 19.6043 23.872 19.1161 23.3839L15.3661 19.6339C14.878 19.1457 14.878 18.3543 15.3661 17.8661Z" fill="black"/>
</svg>
