<svg width="16" height="16" viewBox="0 0 16 16" fill="none" xmlns="http://www.w3.org/2000/svg">
<path d="M8.09895 13.3332C8.09895 14.7246 6.9881 15.8498 5.62448 15.8498C4.26085 15.8498 3.15 14.7246 3.15 13.3332C3.15 11.9417 4.26085 10.8165 5.62448 10.8165H8.09895V13.3332Z" fill="black" stroke="#29D305" stroke-width="0.3"/>
<path d="M3.15 7.99967C3.15 6.60825 4.26085 5.48301 5.62448 5.48301H8.09895V10.5163H5.62448C4.26085 10.5163 3.15 9.39109 3.15 7.99967Z" fill="black" stroke="#29D305" stroke-width="0.3"/>
<path d="M3.15098 2.66667C3.15098 1.27525 4.26183 0.15 5.62545 0.15H8.09993V5.18333H5.62545C4.26183 5.18333 3.15098 4.05809 3.15098 2.66667Z" fill="black" stroke="#29D305" stroke-width="0.3"/>
<path d="M8.39902 0.15H10.8735C12.2371 0.15 13.348 1.27525 13.348 2.66667C13.348 4.05809 12.2371 5.18333 10.8735 5.18333H8.39902V0.15Z" fill="black" stroke="#29D305" stroke-width="0.3"/>
<path d="M13.348 7.99967C13.348 9.39109 12.2371 10.5163 10.8735 10.5163C9.50988 10.5163 8.39902 9.39109 8.39902 7.99967C8.39902 6.60825 9.50988 5.48301 10.8735 5.48301C12.2371 5.48301 13.348 6.60825 13.348 7.99967Z" fill="black" stroke="#29D305" stroke-width="0.3"/>
</svg>
