<svg width="16" height="16" viewBox="0 0 16 16" fill="none" xmlns="http://www.w3.org/2000/svg">
<path d="M5.62448 15.9998C7.07319 15.9998 8.24895 14.8052 8.24895 13.3332V10.6665H5.62448C4.17576 10.6665 3 11.8612 3 13.3332C3 14.8052 4.17576 15.9998 5.62448 15.9998Z" fill="#0ACF83"/>
<path d="M3 7.99967C3 6.52767 4.17576 5.33301 5.62448 5.33301H8.24895V10.6663H5.62448C4.17576 10.6663 3 9.47167 3 7.99967Z" fill="#A259FF"/>
<path d="M3.00098 2.66667C3.00098 1.19467 4.17674 0 5.62545 0H8.24993V5.33333H5.62545C4.17674 5.33333 3.00098 4.13867 3.00098 2.66667Z" fill="#F24E1E"/>
<path d="M8.24902 0H10.8735C12.3222 0 13.498 1.19467 13.498 2.66667C13.498 4.13867 12.3222 5.33333 10.8735 5.33333H8.24902V0Z" fill="#FF7262"/>
<path d="M13.498 7.99967C13.498 9.47167 12.3222 10.6663 10.8735 10.6663C9.42479 10.6663 8.24902 9.47167 8.24902 7.99967C8.24902 6.52767 9.42479 5.33301 10.8735 5.33301C12.3222 5.33301 13.498 6.52767 13.498 7.99967Z" fill="#1ABCFE"/>
</svg>
