<svg width="16" height="16" viewBox="0 0 16 16" fill="none" xmlns="http://www.w3.org/2000/svg">
<path fill-rule="evenodd" clip-rule="evenodd" d="M7.99985 4.2414e-06C6.09875 -0.00197725 4.2591 0.690383 2.81057 1.95301C1.36204 3.21564 0.399315 4.96599 0.0949262 6.89041C-0.209463 8.81483 0.164378 10.7875 1.14945 12.4549C2.13453 14.1224 3.66645 15.3756 5.47069 15.9899C5.87339 16.0655 6.01581 15.8086 6.01581 15.5921C6.01581 15.3755 6.01581 14.882 6.01581 14.197C3.78131 14.6956 3.30985 13.0941 3.30985 13.0941C3.16161 12.5978 2.84669 12.1713 2.42096 11.8905C1.69905 11.3868 2.4799 11.3868 2.4799 11.3868C2.73296 11.4235 2.97457 11.5187 3.18643 11.6653C3.39829 11.8119 3.57485 12.006 3.70273 12.2329C3.81139 12.435 3.95789 12.613 4.13382 12.7569C4.30975 12.9007 4.51164 13.0075 4.72792 13.0712C4.9442 13.1348 5.1706 13.154 5.39414 13.1277C5.61768 13.1014 5.83395 13.0301 6.03054 12.9179C6.06136 12.5035 6.23553 12.1142 6.52164 11.82C4.74386 11.6135 2.87769 10.9084 2.87769 7.791C2.86548 6.97664 3.15912 6.18865 3.69782 5.59018C3.4579 4.88211 3.48594 4.10747 3.7764 3.41958C3.7764 3.41958 4.4492 3.19799 5.97652 4.26063C7.28804 3.89135 8.67237 3.89135 9.98389 4.26063C11.5112 3.19799 12.1791 3.41958 12.1791 3.41958C12.4736 4.10019 12.5086 4.86927 12.2773 5.57508C12.816 6.17354 13.1097 6.96153 13.0975 7.77589C13.0975 10.9286 11.2264 11.6185 9.44368 11.8049C9.63483 12.0019 9.78244 12.2388 9.87649 12.4995C9.97054 12.7602 10.0088 13.0385 9.9888 13.3157C9.9888 14.4136 9.9888 15.3 9.9888 15.5669C9.9888 15.8338 10.1312 16.0403 10.5388 15.9597C12.3225 15.3291 13.8315 14.0724 14.7992 12.4114C15.7669 10.7505 16.131 8.79228 15.8272 6.88272C15.5234 4.97315 14.5713 3.23514 13.139 1.97572C11.7067 0.716297 9.88648 0.0165175 7.99985 4.2414e-06Z" fill="#231E1B"/>
</svg>
