<svg width="40" height="40" viewBox="0 0 40 40" fill="none" xmlns="http://www.w3.org/2000/svg">
<g clip-path="url(#clip0)">
<path d="M18.8101 31.0768C18.4168 31.0768 18.0151 31.0568 17.6151 31.0185C17.1518 30.9718 16.7551 30.6768 16.5801 30.2468C16.4035 29.8152 16.4801 29.3268 16.7785 28.9718C17.8501 27.6902 17.8535 26.1985 17.8585 24.4735C17.8618 22.6902 17.8668 20.6702 19.3118 18.9918C20.2885 17.8018 21.6885 17.0585 23.2435 16.9068C23.4268 16.8885 23.6084 16.8802 23.7884 16.8802C23.8918 16.8802 23.9984 16.8835 24.1034 16.8885L31.2101 2.57683C31.3284 2.3485 31.4584 2.1385 31.6018 1.94183C32.3368 0.941833 33.4168 0.288499 34.6434 0.100166C34.8784 0.0634994 35.1184 0.045166 35.3551 0.045166C36.3451 0.045166 37.2934 0.358499 38.0984 0.948499C40.1634 2.46517 40.6084 5.38017 39.0918 7.4435L29.2201 20.5168C30.0251 22.4952 29.6918 24.7802 28.3284 26.4385C28.2751 26.5052 28.2168 26.5718 28.1585 26.6368C25.8818 29.4518 22.4685 31.0768 18.8101 31.0768ZM23.8185 19.3768C23.7085 19.3768 23.5968 19.3818 23.4851 19.3935C22.5951 19.4802 21.7918 19.9085 21.2251 20.6002C20.3651 21.6002 20.3618 22.8702 20.3585 24.4785C20.3551 25.7418 20.3518 27.1385 19.8668 28.5202C22.3635 28.2452 24.6518 27.0018 26.2551 25.0202C26.3285 24.9368 26.3635 24.8968 26.3968 24.8552C27.1885 23.8918 27.3734 22.5585 26.8868 21.4118C26.6701 21.2285 26.5251 20.9785 26.4734 20.7002C26.3134 20.4902 26.1351 20.3018 25.9384 20.1402C25.6384 19.8935 25.3018 19.7035 24.9334 19.5735C24.8834 19.5802 24.8318 19.5835 24.7801 19.5835C24.5885 19.5835 24.3985 19.5385 24.2268 19.4535C24.1918 19.4368 24.1568 19.4168 24.1234 19.3952C24.0151 19.3835 23.9135 19.3768 23.8185 19.3768ZM26.5585 17.5652C26.9018 17.7468 27.2251 17.9635 27.5251 18.2085C27.5884 18.2602 27.6501 18.3135 27.7101 18.3685L37.0851 5.95183C37.4168 5.50017 37.5551 4.93683 37.4685 4.37017C37.3818 3.8035 37.0801 3.3035 36.6168 2.96517C36.2468 2.6935 35.8084 2.55017 35.3501 2.55017C34.6668 2.55017 34.0184 2.87683 33.6168 3.42517C33.5501 3.51517 33.4918 3.61017 33.4418 3.70683L26.5585 17.5652Z" fill="black"/>
<path d="M6.24609 39.9553C2.79943 39.9553 -0.00390625 37.152 -0.00390625 33.7053V13.7053C-0.00390625 10.2587 2.79943 7.45532 6.24609 7.45532H22.4961C23.1861 7.45532 23.7461 8.01532 23.7461 8.70532C23.7461 9.39532 23.1861 9.95532 22.4961 9.95532H6.24609C4.17776 9.95532 2.49609 11.637 2.49609 13.7053V33.7053C2.49609 35.7737 4.17776 37.4553 6.24609 37.4553H26.2461C28.3144 37.4553 29.9961 35.7737 29.9961 33.7053V31.2053C29.9961 30.5153 30.5561 29.9553 31.2461 29.9553C31.9361 29.9553 32.4961 30.5153 32.4961 31.2053V33.7053C32.4961 37.152 29.6928 39.9553 26.2461 39.9553H6.24609Z" fill="#29D305"/>
</g>
<defs>
<clipPath id="clip0">
<rect width="40" height="40" fill="white"/>
</clipPath>
</defs>
</svg>
