<svg width="40" height="40" fill="none" xmlns="http://www.w3.org/2000/svg"><path d="M38.477 27.654c-4.227 10.204-15.926 15.05-26.13 10.823C2.14 34.252-2.706 22.551 1.521 12.348 5.75 2.14 17.45-2.706 27.654 1.521 37.858 5.75 42.704 17.45 38.477 27.654z" fill="#262626"/><path d="M.23 23.044a126.997 126.997 0 0 1 16.065 5.433 126.977 126.977 0 0 1 15.487 7.684c-5.441 3.963-12.759 5.082-19.437 2.316C5.649 35.704 1.26 29.714.23 23.044z" fill="#29D305"/><path d="M10.264 26l4.914-12.6h3.527L23.549 26H20.2l-1.044-3.006h-4.608L13.484 26h-3.221zm5.13-5.4h2.934l-1.459-4.176-1.476 4.176zM25.72 26v-9.288h2.916V26H25.72zm1.458-10.71c-.444 0-.828-.162-1.152-.486a1.574 1.574 0 0 1-.486-1.152c0-.456.162-.84.486-1.152a1.574 1.574 0 0 1 1.152-.486c.456 0 .84.162 1.152.486.324.312.486.696.486 1.152 0 .444-.162.828-.486 1.152a1.536 1.536 0 0 1-1.152.486z" fill="#fff"/></svg>