<svg width="41" height="41" fill="none" xmlns="http://www.w3.org/2000/svg"><circle cx="20.924" cy="20.032" r="20" transform="rotate(-90 20.924 20.032)" fill="#29D305"/><path fill-rule="evenodd" clip-rule="evenodd" d="M36.898 7.996A124.765 124.765 0 0 0 23.87 39.804a19.891 19.891 0 0 1-10.496-1.276C3.16 34.35-1.735 22.681 2.444 12.466 6.624 2.25 18.292-2.644 28.507 1.535a19.891 19.891 0 0 1 8.391 6.46z" fill="#262626"/><path d="M14.291 24.324h2.146c.62 0 1.177-.17 1.67-.512a3.612 3.612 0 0 0 1.178-1.386 4.238 4.238 0 0 0 .456-1.956c0-.722-.152-1.374-.456-1.956a3.613 3.613 0 0 0-1.177-1.386 2.867 2.867 0 0 0-1.671-.513H14.29v7.71zm-3.266 2.792V13.824h5.412c.936 0 1.804.17 2.601.512a6.61 6.61 0 0 1 2.127 1.425 6.463 6.463 0 0 1 1.443 2.126c.342.798.513 1.659.513 2.583 0 .924-.171 1.791-.513 2.601a6.517 6.517 0 0 1-1.443 2.108 6.61 6.61 0 0 1-2.127 1.424 6.535 6.535 0 0 1-2.601.513h-5.412zm14.147 0v-9.798h3.076v2.221c.317-.823.69-1.43 1.12-1.823a2.25 2.25 0 0 1 1.539-.588c.215.012.392.032.531.057.14.025.304.088.494.19v2.64a2.41 2.41 0 0 0-.665-.229 3.963 3.963 0 0 0-.778-.076c-.456 0-.88.114-1.272.342a2.79 2.79 0 0 0-.969.873v6.19h-3.076z" fill="#fff"/></svg>