<svg width="41" height="42" fill="none" xmlns="http://www.w3.org/2000/svg"><circle cx="20.128" cy="21.038" r="20" transform="rotate(180 20.128 21.038)" fill="#29D305"/><path fill-rule="evenodd" clip-rule="evenodd" d="M22.894 1.226a124.856 124.856 0 0 0 13.314 31.706 19.902 19.902 0 0 1-8.338 6.539c-10.184 4.27-21.9-.523-26.171-10.706-4.27-10.183.522-21.9 10.706-26.17a19.901 19.901 0 0 1 10.489-1.369z" fill="#262626"/><path d="M10.354 28.13c-.962 0-1.836-.221-2.622-.665a5.349 5.349 0 0 1-1.862-1.824c-.456-.772-.684-1.634-.684-2.584 0-.962.216-1.824.646-2.584A4.833 4.833 0 0 1 7.6 18.668c.748-.456 1.59-.684 2.527-.684.95 0 1.786.222 2.508.665a4.575 4.575 0 0 1 1.691 1.843c.418.773.627 1.666.627 2.68v.664H8.207c.102.367.26.69.475.97.216.278.482.493.798.645a2.34 2.34 0 0 0 1.026.228c.406 0 .773-.07 1.102-.209.342-.14.621-.342.836-.608l2.033 1.691c-.633.557-1.273.963-1.919 1.216-.646.24-1.38.361-2.204.361zm-2.147-6.042h3.895a2.52 2.52 0 0 0-.418-.912 2.022 2.022 0 0 0-.684-.589 1.895 1.895 0 0 0-.893-.209c-.316 0-.608.07-.874.21a1.73 1.73 0 0 0-.646.57 2.983 2.983 0 0 0-.38.93zm8.76 5.852v-13.3h3.269v13.3h-3.268zm9.309-2.793h2.147c.62 0 1.178-.17 1.672-.513a3.614 3.614 0 0 0 1.178-1.387 4.24 4.24 0 0 0 .456-1.957c0-.722-.152-1.374-.456-1.957a3.614 3.614 0 0 0-1.178-1.387 2.868 2.868 0 0 0-1.672-.513h-2.147v7.714zm-3.268 2.793v-13.3h5.415c.937 0 1.805.171 2.603.513.81.342 1.52.817 2.128 1.425a6.465 6.465 0 0 1 1.444 2.128 6.49 6.49 0 0 1 .513 2.584c0 .925-.171 1.793-.513 2.603a6.52 6.52 0 0 1-1.444 2.11 6.612 6.612 0 0 1-2.128 1.424 6.538 6.538 0 0 1-2.603.513h-5.415z" fill="#fff"/></svg>