<svg width="41" height="42" fill="none" xmlns="http://www.w3.org/2000/svg"><circle cx="20.346" cy="21.032" r="19.999" transform="rotate(-90 20.346 21.032)" fill="#29D305"/><path fill-rule="evenodd" clip-rule="evenodd" d="M.93 25.852A126.369 126.369 0 0 0 25.15 1.617a19.906 19.906 0 0 1 9.335 5.274c7.81 7.81 7.81 20.473 0 28.283-7.81 7.81-20.473 7.81-28.283 0A19.906 19.906 0 0 1 .93 25.852z" fill="#262626"/><path d="M9.914 27.94v-13.3h3.268v5.776l4.959-5.776h3.895l-5.814 6.251 6.156 7.05h-4.275l-4.921-6.043v6.042H9.914zm15.337 0l-3.97-9.804h3.343l2.223 6.156 2.242-6.156h3.173l-4.009 9.804h-3.002z" fill="#fff"/></svg>