<svg width="41" height="41" fill="none" xmlns="http://www.w3.org/2000/svg"><circle cx="20.699" cy="20.045" r="19.97" transform="rotate(22.248 20.699 20.045)" fill="#29D305"/><circle cx="20.718" cy="20.033" r="20" fill="#29D305"/><path fill-rule="evenodd" clip-rule="evenodd" d="M8.688 4.047A124.84 124.84 0 0 0 40.49 17.049c.524 3.452.15 7.085-1.268 10.552-4.182 10.221-15.858 15.118-26.08 10.937C2.919 34.355-1.978 22.68 2.204 12.458a19.904 19.904 0 0 1 6.484-8.411z" fill="#262626"/><path d="M7.783 27.106v-13.3h4.104l3.21 6.384 3.193-6.384h4.104v13.3h-3.078v-9.025l-4.256 8.075-4.275-8.15v9.1H7.783zm16.284 0l3.667-4.997-3.553-4.807h3.553l1.824 2.641 1.824-2.64h3.42l-3.61 4.863 3.724 4.94h-3.572l-1.938-2.793-1.938 2.793h-3.4z" fill="#fff"/></svg>