<svg width="48" height="48" fill="none" xmlns="http://www.w3.org/2000/svg"><path d="M43.616 20.098c2.154 10.834-4.88 21.363-15.714 23.518-10.834 2.154-21.363-4.88-23.518-15.714C2.23 17.068 9.264 6.539 20.098 4.384c10.834-2.155 21.363 4.88 23.518 15.714z" fill="#262626"/><path d="M9.253 37.514a127 127 0 0 1 16.377-4.407 126.955 126.955 0 0 1 17.145-2.215C40.453 37.21 34.99 42.206 27.9 43.616c-7.108 1.414-14.084-1.128-18.647-6.102z" fill="#29D305"/><path d="M17.932 30.198a6.685 6.685 0 0 1-2.556-.486 6.681 6.681 0 0 1-2.088-1.386 6.74 6.74 0 0 1-1.386-2.07 6.685 6.685 0 0 1-.486-2.556c0-.912.162-1.758.486-2.538a6.467 6.467 0 0 1 1.386-2.07c.6-.6 1.296-1.062 2.088-1.386a6.476 6.476 0 0 1 2.556-.504c.912 0 1.764.168 2.556.504a6.098 6.098 0 0 1 2.07 1.386 6.098 6.098 0 0 1 1.386 2.07c.336.78.504 1.626.504 2.538 0 .912-.168 1.764-.504 2.556a6.34 6.34 0 0 1-1.386 2.07 6.467 6.467 0 0 1-2.07 1.386 6.685 6.685 0 0 1-2.556.486zm0-2.754c.468 0 .906-.09 1.314-.27a3.284 3.284 0 0 0 1.062-.792c.3-.348.534-.744.702-1.188a4.29 4.29 0 0 0 .252-1.494c0-.54-.084-1.032-.252-1.476a3.665 3.665 0 0 0-.702-1.188 2.974 2.974 0 0 0-1.062-.792 3.047 3.047 0 0 0-1.314-.288c-.468 0-.906.096-1.314.288-.408.18-.762.444-1.062.792-.3.336-.534.732-.702 1.188a4.141 4.141 0 0 0-.252 1.476c0 .54.084 1.038.252 1.494.168.444.402.84.702 1.188.3.336.654.6 1.062.792.408.18.846.27 1.314.27zM27.401 30v-9.288h2.916v1.512c.36-.54.786-.948 1.278-1.224a3.28 3.28 0 0 1 1.656-.432c.6 0 1.128.138 1.584.414.468.264.834.636 1.098 1.116.264.468.396 1.014.396 1.638V30h-2.916v-5.418c0-.528-.144-.948-.432-1.26-.276-.312-.648-.468-1.116-.468-.312 0-.6.066-.864.198-.252.12-.48.312-.684.576V30H27.4z" fill="#fff"/></svg>