<svg width="40" height="41" fill="none" xmlns="http://www.w3.org/2000/svg"><circle cx="19.999" cy="20.045" r="19.999" fill="#29D305"/><path fill-rule="evenodd" clip-rule="evenodd" d="M15.087.656a126.363 126.363 0 0 0 24.305 24.288 19.905 19.905 0 0 1-5.252 9.243c-7.81 7.81-20.472 7.81-28.282 0-7.81-7.81-7.81-20.473 0-28.283a19.906 19.906 0 0 1 9.23-5.248z" fill="#262626"/><path d="M14.104 26.244a8.332 8.332 0 0 1-2.844-.486 10.13 10.13 0 0 1-2.61-1.422l1.584-2.286c.876.612 1.62 1.044 2.232 1.296.612.252 1.23.378 1.854.378.444 0 .822-.054 1.134-.162.324-.12.57-.276.738-.468.18-.204.27-.438.27-.702 0-.372-.126-.654-.378-.846-.24-.204-.666-.36-1.278-.468l-2.682-.468c-.996-.168-1.764-.552-2.304-1.152-.528-.6-.792-1.344-.792-2.232 0-.816.198-1.518.594-2.106.396-.6.966-1.062 1.71-1.386.756-.324 1.656-.486 2.7-.486.972 0 1.914.15 2.826.45.912.288 1.692.69 2.34 1.206l-1.566 2.25c-.612-.468-1.224-.816-1.836-1.044a5.472 5.472 0 0 0-1.926-.342c-.408 0-.756.054-1.044.162-.288.096-.51.234-.666.414a.954.954 0 0 0-.216.612c0 .324.108.576.324.756.228.168.594.3 1.098.396l2.52.432c1.176.192 2.07.594 2.682 1.206.612.612.918 1.398.918 2.358 0 .816-.222 1.536-.666 2.16-.432.624-1.05 1.11-1.854 1.458-.804.348-1.758.522-2.862.522zm7.138 3.564v-13.05h2.88v1.296c.312-.42.708-.75 1.188-.99a3.526 3.526 0 0 1 1.566-.36c.768 0 1.458.216 2.07.648a4.4 4.4 0 0 1 1.476 1.692c.372.708.558 1.5.558 2.376 0 .864-.192 1.65-.576 2.358a4.524 4.524 0 0 1-1.566 1.692c-.648.42-1.374.63-2.178.63-.504 0-.972-.09-1.404-.27a3.308 3.308 0 0 1-1.098-.81v4.788h-2.916zm4.662-6.102c.432 0 .81-.096 1.134-.288.336-.204.6-.48.792-.828.192-.348.288-.744.288-1.188 0-.444-.096-.834-.288-1.17a2.057 2.057 0 0 0-.792-.81 2.142 2.142 0 0 0-1.134-.306 2.307 2.307 0 0 0-1.746.756v3.096c.228.228.492.408.792.54.3.132.618.198.954.198z" fill="#fff"/></svg>