<svg width="41" height="41" fill="none" xmlns="http://www.w3.org/2000/svg"><path d="M20.012.568c11.042 0 19.993 8.954 19.993 19.999 0 11.045-8.951 20-19.993 20-11.043 0-19.994-8.955-19.994-20s8.951-20 19.994-20z" fill="#29D305"/><path d="M17.125 40.356A124.826 124.826 0 0 0 3.868 8.766a19.905 19.905 0 0 1 8.41-6.634c10.186-4.27 21.907.523 26.178 10.706 4.272 10.182-.523 21.899-10.708 26.169a19.912 19.912 0 0 1-10.623 1.349z" fill="#262626"/><path d="M20.704 21.785c0 .87-.135 1.662-.404 2.373a5.091 5.091 0 0 1-2.962 2.999c-.7.27-1.484.404-2.355.404-.87 0-1.662-.134-2.373-.404a4.941 4.941 0 0 1-1.785-1.16 5.224 5.224 0 0 1-1.14-1.82c-.27-.712-.405-1.509-.405-2.392V14.5h3.164v7.285c0 .883.233 1.594.7 2.134.465.54 1.085.81 1.857.81.773 0 1.386-.27 1.84-.81.466-.54.7-1.251.7-2.134V14.5h3.163v7.285zm1.66 4.617l1.307-1.986c.674.355 1.239.607 1.692.754.454.135.908.202 1.362.202.417 0 .748-.067.993-.202.245-.147.368-.337.368-.57a.524.524 0 0 0-.22-.442c-.136-.11-.356-.19-.663-.239l-1.821-.331c-.92-.172-1.62-.49-2.098-.957-.465-.466-.698-1.067-.698-1.803 0-.968.349-1.729 1.048-2.28.711-.553 1.686-.829 2.925-.829.662 0 1.319.092 1.968.276.65.184 1.282.454 1.895.81L29.061 20.7a6.806 6.806 0 0 0-1.398-.607 4.512 4.512 0 0 0-1.325-.203c-.355 0-.637.061-.846.184-.196.11-.294.27-.294.478 0 .197.067.344.202.442.147.098.405.178.773.24l1.784.33c.932.172 1.644.497 2.134.975.49.466.73 1.055.718 1.766 0 .466-.105.902-.313 1.306a3.076 3.076 0 0 1-.846 1.03 4.537 4.537 0 0 1-1.306.681c-.503.16-1.043.24-1.62.24a9.474 9.474 0 0 1-2.41-.295c-.747-.196-1.397-.484-1.95-.864z" fill="#fff"/></svg>