<svg width="537" height="158" viewBox="0 0 537 158" fill="none" xmlns="http://www.w3.org/2000/svg">
<rect x="1" y="34" width="40" height="40" fill="#DB6D00"/>
<rect x="65" y="74" width="16" height="16" fill="#006DDB"/>
<rect x="41.5" y="0.5" width="23" height="157" fill="#D3D3D3" stroke="#D3D3D3"/>
<rect x="81.5" y="0.5" width="23" height="157" fill="#D3D3D3" stroke="#D3D3D3"/>
<rect x="121.5" y="0.5" width="23" height="157" fill="#D3D3D3" stroke="#D3D3D3"/>
<rect x="161.5" y="0.5" width="23" height="157" fill="#D3D3D3" stroke="#D3D3D3"/>
<rect x="201.5" y="0.5" width="23" height="157" fill="#D3D3D3" stroke="#D3D3D3"/>
<rect x="241.5" y="0.5" width="23" height="157" fill="#D3D3D3" stroke="#D3D3D3"/>
<rect x="281.5" y="0.5" width="23" height="157" fill="#D3D3D3" stroke="#D3D3D3"/>
<rect x="321.5" y="0.5" width="23" height="157" fill="#D3D3D3" stroke="#D3D3D3"/>
<rect x="361.5" y="0.5" width="23" height="157" fill="#D3D3D3" stroke="#D3D3D3"/>
<rect x="401.5" y="0.5" width="23" height="157" fill="#D3D3D3" stroke="#D3D3D3"/>
<rect x="441.5" y="0.5" width="23" height="157" fill="#D3D3D3" stroke="#D3D3D3"/>
<rect x="481.5" y="0.5" width="23" height="157" fill="#D3D3D3" stroke="#D3D3D3"/>
<rect x="0.5" y="0.5" width="536" height="157" stroke="#D3D3D3"/>
<path d="M21.4885 57.3L18.0025 50.314V58H16.4485V48.2H18.6325L21.5025 54.136L24.3585 48.2H26.5425V58H24.9605V50.356L21.4885 57.3Z" fill="black"/>
<path d="M77.9017 82.198C77.9017 82.898 77.7804 83.5513 77.5377 84.158C77.3044 84.7647 76.9777 85.292 76.5577 85.74C76.1377 86.1787 75.6337 86.524 75.0457 86.776C74.467 87.028 73.837 87.154 73.1557 87.154C72.4464 87.154 71.7837 87.0233 71.1677 86.762C70.5517 86.5007 70.015 86.146 69.5577 85.698C69.1097 85.2407 68.755 84.704 68.4937 84.088C68.2324 83.4627 68.1017 82.8 68.1017 82.1C68.1017 81.4 68.2324 80.742 68.4937 80.126C68.755 79.5007 69.1097 78.964 69.5577 78.516C70.0057 78.0587 70.5377 77.6993 71.1537 77.438C71.7697 77.1767 72.4277 77.046 73.1277 77.046C73.9024 77.046 74.6397 77.1953 75.3397 77.494C76.0397 77.7927 76.623 78.222 77.0897 78.782L75.9137 79.86C75.5777 79.4307 75.1624 79.104 74.6677 78.88C74.1824 78.656 73.669 78.544 73.1277 78.544C72.661 78.544 72.2224 78.6373 71.8117 78.824C71.4104 79.0013 71.0604 79.2487 70.7617 79.566C70.4724 79.8833 70.2437 80.2613 70.0757 80.7C69.9077 81.1387 69.8237 81.6053 69.8237 82.1C69.8237 82.604 69.9077 83.0753 70.0757 83.514C70.253 83.9433 70.4864 84.3213 70.7757 84.648C71.0744 84.9653 71.429 85.2173 71.8397 85.404C72.2504 85.5813 72.6937 85.67 73.1697 85.67C73.9537 85.67 74.621 85.4273 75.1717 84.942C75.7224 84.4473 76.049 83.8267 76.1517 83.08H73.2257V81.652H77.9017V82.198Z" fill="white"/>
</svg>
