<svg width="409" height="158" viewBox="0 0 409 158" fill="none" xmlns="http://www.w3.org/2000/svg">
<rect x="25.5" y="0.5" width="23" height="157" fill="#D3D3D3" stroke="#D3D3D3"/>
<rect x="73.5" y="0.5" width="23" height="157" fill="#D3D3D3" stroke="#D3D3D3"/>
<rect x="121.5" y="0.5" width="23" height="157" fill="#D3D3D3" stroke="#D3D3D3"/>
<rect x="169.5" y="0.5" width="23" height="157" fill="#D3D3D3" stroke="#D3D3D3"/>
<rect x="217.5" y="0.5" width="23" height="157" fill="#D3D3D3" stroke="#D3D3D3"/>
<rect x="265.5" y="0.5" width="23" height="157" fill="#D3D3D3" stroke="#D3D3D3"/>
<rect x="313.5" y="0.5" width="23" height="157" fill="#D3D3D3" stroke="#D3D3D3"/>
<rect x="361.5" y="0.5" width="23" height="157" fill="#D3D3D3" stroke="#D3D3D3"/>
<rect x="1" y="33" width="24" height="24" fill="#DB6D00"/>
<rect x="49" y="57" width="24" height="23.9955" fill="#006DDB"/>
<rect x="0.5" y="0.5" width="408" height="157" stroke="#D3D3D3"/>
<path d="M65.9017 68.698C65.9017 69.398 65.7804 70.0513 65.5377 70.658C65.3044 71.2647 64.9777 71.792 64.5577 72.24C64.1377 72.6787 63.6337 73.024 63.0457 73.276C62.467 73.528 61.837 73.654 61.1557 73.654C60.4464 73.654 59.7837 73.5233 59.1677 73.262C58.5517 73.0007 58.015 72.646 57.5577 72.198C57.1097 71.7407 56.755 71.204 56.4937 70.588C56.2324 69.9627 56.1017 69.3 56.1017 68.6C56.1017 67.9 56.2324 67.242 56.4937 66.626C56.755 66.0007 57.1097 65.464 57.5577 65.016C58.0057 64.5587 58.5377 64.1993 59.1537 63.938C59.7697 63.6767 60.4277 63.546 61.1277 63.546C61.9024 63.546 62.6397 63.6953 63.3397 63.994C64.0397 64.2927 64.623 64.722 65.0897 65.282L63.9137 66.36C63.5777 65.9307 63.1624 65.604 62.6677 65.38C62.1824 65.156 61.669 65.044 61.1277 65.044C60.661 65.044 60.2224 65.1373 59.8117 65.324C59.4104 65.5013 59.0604 65.7487 58.7617 66.066C58.4724 66.3833 58.2437 66.7613 58.0757 67.2C57.9077 67.6387 57.8237 68.1053 57.8237 68.6C57.8237 69.104 57.9077 69.5753 58.0757 70.014C58.253 70.4433 58.4864 70.8213 58.7757 71.148C59.0744 71.4653 59.429 71.7173 59.8397 71.904C60.2504 72.0813 60.6937 72.17 61.1697 72.17C61.9537 72.17 62.621 71.9273 63.1717 71.442C63.7224 70.9473 64.049 70.3267 64.1517 69.58H61.2257V68.152H65.9017V68.698Z" fill="white"/>
<path d="M12.9885 49.3L9.50246 42.314V50H7.94846V40.2H10.1325L13.0025 46.136L15.8585 40.2H18.0425V50H16.4605V42.356L12.9885 49.3Z" fill="black"/>
</svg>
