<svg width="257" height="158" viewBox="0 0 257 158" fill="none" xmlns="http://www.w3.org/2000/svg">
<rect x="17.5" y="0.5" width="23" height="157" fill="#D3D3D3" stroke="#D3D3D3"/>
<rect x="57.5" y="0.5" width="23" height="157" fill="#D3D3D3" stroke="#D3D3D3"/>
<rect x="97.5" y="0.5" width="23" height="157" fill="#D3D3D3" stroke="#D3D3D3"/>
<rect x="137.5" y="0.5" width="23" height="157" fill="#D3D3D3" stroke="#D3D3D3"/>
<rect x="177.5" y="0.5" width="23" height="157" fill="#D3D3D3" stroke="#D3D3D3"/>
<rect x="217.5" y="0.5" width="23" height="157" fill="#D3D3D3" stroke="#D3D3D3"/>
<rect x="1" y="32" width="16" height="16" fill="#DB6D00"/>
<rect x="41" y="48" width="16" height="16" fill="#006DDB"/>
<rect x="0.5" y="0.5" width="256" height="157" stroke="#D3D3D3"/>
<path d="M53.9017 56.198C53.9017 56.898 53.7804 57.5513 53.5377 58.158C53.3044 58.7647 52.9777 59.292 52.5577 59.74C52.1377 60.1787 51.6337 60.524 51.0457 60.776C50.467 61.028 49.837 61.154 49.1557 61.154C48.4464 61.154 47.7837 61.0233 47.1677 60.762C46.5517 60.5007 46.015 60.146 45.5577 59.698C45.1097 59.2407 44.755 58.704 44.4937 58.088C44.2324 57.4627 44.1017 56.8 44.1017 56.1C44.1017 55.4 44.2324 54.742 44.4937 54.126C44.755 53.5007 45.1097 52.964 45.5577 52.516C46.0057 52.0587 46.5377 51.6993 47.1537 51.438C47.7697 51.1767 48.4277 51.046 49.1277 51.046C49.9024 51.046 50.6397 51.1953 51.3397 51.494C52.0397 51.7927 52.623 52.222 53.0897 52.782L51.9137 53.86C51.5777 53.4307 51.1624 53.104 50.6677 52.88C50.1824 52.656 49.669 52.544 49.1277 52.544C48.661 52.544 48.2224 52.6373 47.8117 52.824C47.4104 53.0013 47.0604 53.2487 46.7617 53.566C46.4724 53.8833 46.2437 54.2613 46.0757 54.7C45.9077 55.1387 45.8237 55.6053 45.8237 56.1C45.8237 56.604 45.9077 57.0753 46.0757 57.514C46.253 57.9433 46.4864 58.3213 46.7757 58.648C47.0744 58.9653 47.429 59.2173 47.8397 59.404C48.2504 59.5813 48.6937 59.67 49.1697 59.67C49.9537 59.67 50.621 59.4273 51.1717 58.942C51.7224 58.4473 52.049 57.8267 52.1517 57.08H49.2257V55.652H53.9017V56.198Z" fill="white"/>
<path d="M8.98846 44.3L5.50246 37.314V45H3.94846V35.2H6.13246L9.00246 41.136L11.8585 35.2H14.0425V45H12.4605V37.356L8.98846 44.3Z" fill="black"/>
</svg>
