<svg width="409" height="180" viewBox="0 0 409 180" fill="none" xmlns="http://www.w3.org/2000/svg">
<rect x="47.5" y="0.5" width="23" height="179" fill="#D3D3D3" stroke="#D3D3D3"/>
<rect x="92.5" y="0.5" width="23" height="179" fill="#D3D3D3" stroke="#D3D3D3"/>
<rect x="137.5" y="0.5" width="23" height="179" fill="#D3D3D3" stroke="#D3D3D3"/>
<rect x="182.5" y="0.5" width="23" height="179" fill="#D3D3D3" stroke="#D3D3D3"/>
<rect x="227.5" y="0.5" width="23" height="179" fill="#D3D3D3" stroke="#D3D3D3"/>
<rect x="272.5" y="0.5" width="23" height="179" fill="#D3D3D3" stroke="#D3D3D3"/>
<rect x="317.5" y="0.5" width="23" height="179" fill="#D3D3D3" stroke="#D3D3D3"/>
<rect x="362.5" y="0.5" width="23" height="179" fill="#D3D3D3" stroke="#D3D3D3"/>
<rect x="71" y="80" width="21" height="21" fill="#006DDB"/>
<rect x="0.5" y="0.5" width="408" height="179" stroke="#D3D3D3"/>
<path d="M86.4017 90.198C86.4017 90.898 86.2804 91.5513 86.0377 92.158C85.8044 92.7647 85.4777 93.292 85.0577 93.74C84.6377 94.1787 84.1337 94.524 83.5457 94.776C82.967 95.028 82.337 95.154 81.6557 95.154C80.9464 95.154 80.2837 95.0233 79.6677 94.762C79.0517 94.5007 78.515 94.146 78.0577 93.698C77.6097 93.2407 77.255 92.704 76.9937 92.088C76.7324 91.4627 76.6017 90.8 76.6017 90.1C76.6017 89.4 76.7324 88.742 76.9937 88.126C77.255 87.5007 77.6097 86.964 78.0577 86.516C78.5057 86.0587 79.0377 85.6993 79.6537 85.438C80.2697 85.1767 80.9277 85.046 81.6277 85.046C82.4024 85.046 83.1397 85.1953 83.8397 85.494C84.5397 85.7927 85.123 86.222 85.5897 86.782L84.4137 87.86C84.0777 87.4307 83.6624 87.104 83.1677 86.88C82.6824 86.656 82.169 86.544 81.6277 86.544C81.161 86.544 80.7224 86.6373 80.3117 86.824C79.9104 87.0013 79.5604 87.2487 79.2617 87.566C78.9724 87.8833 78.7437 88.2613 78.5757 88.7C78.4077 89.1387 78.3237 89.6053 78.3237 90.1C78.3237 90.604 78.4077 91.0753 78.5757 91.514C78.753 91.9433 78.9864 92.3213 79.2757 92.648C79.5744 92.9653 79.929 93.2173 80.3397 93.404C80.7504 93.5813 81.1937 93.67 81.6697 93.67C82.4537 93.67 83.121 93.4273 83.6717 92.942C84.2224 92.4473 84.549 91.8267 84.6517 91.08H81.7257V89.652H86.4017V90.198Z" fill="white"/>
<rect x="385" y="34" width="24" height="24" fill="#DB6D00"/>
<rect x="1" y="34" width="46" height="46" fill="#DB6D00"/>
<path d="M23.9885 60.8L20.5025 53.814V61.5H18.9485V51.7H21.1325L24.0025 57.636L26.8585 51.7H29.0425V61.5H27.4605V53.856L23.9885 60.8Z" fill="black"/>
<path d="M396.988 49.8L393.502 42.814V50.5H391.948V40.7H394.132L397.002 46.636L399.858 40.7H402.042V50.5H400.46V42.856L396.988 49.8Z" fill="black"/>
</svg>
