<?xml version="1.0" standalone="no"?>
<!DOCTYPE svg PUBLIC "-//W3C//DTD SVG 20010904//EN"
 "http://www.w3.org/TR/2001/REC-SVG-20010904/DTD/svg10.dtd">
<svg version="1.0" xmlns="http://www.w3.org/2000/svg"
 width="700.000000pt" height="700.000000pt" viewBox="0 0 700.000000 700.000000"
 preserveAspectRatio="xMidYMid meet">
<metadata>
Created by potrace 1.11, written by Peter Selinger 2001-2013
</metadata>
<g transform="translate(0.000000,700.000000) scale(0.100000,-0.100000)"
fill="#000000" stroke="none">
<path d="M3407 6123 c-2 -1 -40 -4 -86 -8 -46 -3 -111 -9 -145 -14 -34 -6 -79
-12 -101 -16 -179 -26 -507 -134 -680 -223 -27 -14 -52 -26 -55 -27 -10 -1
-196 -114 -263 -159 -306 -206 -614 -542 -797 -871 -141 -253 -259 -586 -295
-830 -3 -23 -7 -50 -9 -62 -3 -12 -8 -53 -12 -90 -4 -37 -8 -81 -10 -98 -5
-37 -4 -359 0 -400 2 -16 6 -61 10 -98 4 -37 9 -78 12 -90 2 -12 7 -40 10 -62
37 -260 195 -680 342 -903 20 -32 42 -68 49 -82 33 -65 210 -278 333 -400 334
-335 724 -561 1167 -675 140 -37 243 -55 413 -74 76 -9 465 -7 510 2 14 3 51
8 83 12 32 3 64 8 70 10 7 2 29 7 50 10 164 23 462 123 654 218 305 151 560
346 800 613 65 71 73 87 49 101 -11 6 -95 80 -170 148 -6 6 -67 60 -136 120
-69 60 -145 128 -168 150 -64 59 -67 59 -97 22 -243 -290 -573 -503 -935 -601
-99 -27 -104 -28 -260 -49 -131 -18 -371 -14 -486 7 -11 2 -39 7 -64 12 -25 4
-47 8 -50 9 -3 1 -23 5 -45 10 -110 22 -359 124 -485 197 -39 23 -172 110
-180 118 -3 3 -32 27 -65 55 -315 259 -553 652 -630 1038 -3 15 -7 37 -10 50
-27 133 -35 323 -22 492 7 94 10 117 28 200 6 28 13 61 15 75 9 51 58 198 95
287 231 549 728 963 1301 1083 144 30 161 32 343 36 205 5 350 -11 530 -60
226 -62 475 -191 665 -346 68 -55 243 -230 267 -267 l15 -22 30 27 c17 15 36
32 42 37 6 6 67 60 136 120 69 60 127 112 130 115 3 3 32 29 66 58 33 28 82
72 109 96 48 44 48 45 32 70 -25 38 -252 265 -333 333 -240 202 -548 373 -854
473 -65 22 -230 65 -280 74 -19 3 -44 8 -55 10 -11 2 -42 7 -68 10 -27 4 -58
9 -69 11 -61 12 -432 27 -441 18z"/>
<path d="M2964 3898 c-4 -6 -7 -522 -5 -705 l1 -43 1560 0 1560 0 1 28 c4 167
0 715 -5 720 -10 9 -3107 9 -3112 0z"/>
</g>
</svg>
