<svg width="40" height="40" viewBox="0 0 40 40" fill="none" xmlns="http://www.w3.org/2000/svg">
<path fill-rule="evenodd" clip-rule="evenodd" d="M0 19.9966C0 19.3062 0.559644 18.7466 1.25 18.7466H11.25C11.9404 18.7466 12.5 19.3062 12.5 19.9966C12.5 20.6869 11.9404 21.2466 11.25 21.2466H1.25C0.559644 21.2466 0 20.6869 0 19.9966Z" fill="#29D305"/>
<path fill-rule="evenodd" clip-rule="evenodd" d="M5.36612 14.1127C5.85427 13.6245 6.64573 13.6245 7.13388 14.1127L12.1339 19.1127C12.622 19.6009 12.622 20.3923 12.1339 20.8805L7.13388 25.8805C6.64573 26.3686 5.85427 26.3686 5.36612 25.8805C4.87796 25.3923 4.87796 24.6009 5.36612 24.1127L9.48223 19.9966L5.36612 15.8805C4.87796 15.3923 4.87796 14.6009 5.36612 14.1127Z" fill="#29D305"/>
<path fill-rule="evenodd" clip-rule="evenodd" d="M16.25 1.24658C16.9404 1.24658 17.5 1.80623 17.5 2.49658V37.4966C17.5 38.1869 16.9404 38.7466 16.25 38.7466C15.5596 38.7466 15 38.1869 15 37.4966V2.49658C15 1.80623 15.5596 1.24658 16.25 1.24658Z" fill="black"/>
<path fill-rule="evenodd" clip-rule="evenodd" d="M20 4.99658C20 4.30623 20.5596 3.74658 21.25 3.74658H38.75C39.4404 3.74658 40 4.30623 40 4.99658C40 5.68694 39.4404 6.24658 38.75 6.24658H21.25C20.5596 6.24658 20 5.68694 20 4.99658Z" fill="black"/>
<path fill-rule="evenodd" clip-rule="evenodd" d="M20 12.4966C20 11.8062 20.5596 11.2466 21.25 11.2466H33.75C34.4404 11.2466 35 11.8062 35 12.4966C35 13.1869 34.4404 13.7466 33.75 13.7466H21.25C20.5596 13.7466 20 13.1869 20 12.4966Z" fill="black"/>
<path fill-rule="evenodd" clip-rule="evenodd" d="M20 19.9966C20 19.3062 20.5596 18.7466 21.25 18.7466H38.75C39.4404 18.7466 40 19.3062 40 19.9966C40 20.6869 39.4404 21.2466 38.75 21.2466H21.25C20.5596 21.2466 20 20.6869 20 19.9966Z" fill="black"/>
<path fill-rule="evenodd" clip-rule="evenodd" d="M20 27.4966C20 26.8062 20.5596 26.2466 21.25 26.2466H33.75C34.4404 26.2466 35 26.8062 35 27.4966C35 28.1869 34.4404 28.7466 33.75 28.7466H21.25C20.5596 28.7466 20 28.1869 20 27.4966Z" fill="black"/>
<path fill-rule="evenodd" clip-rule="evenodd" d="M20 34.9966C20 34.3062 20.5596 33.7466 21.25 33.7466H38.75C39.4404 33.7466 40 34.3062 40 34.9966C40 35.6869 39.4404 36.2466 38.75 36.2466H21.25C20.5596 36.2466 20 35.6869 20 34.9966Z" fill="black"/>
</svg>
