<svg width="40" height="40" viewBox="0 0 40 40" fill="none" xmlns="http://www.w3.org/2000/svg">
<g clip-path="url(#clip0)">
<path fill-rule="evenodd" clip-rule="evenodd" d="M21.2323 2.91853e-05C24.1327 -0.00509205 26.9947 0.663831 29.5929 1.95412C32.1916 3.24472 34.4554 5.12171 36.2058 7.43718C37.9562 9.75264 39.1454 12.4433 39.6796 15.2972C40.2138 18.151 40.0786 21.09 39.2844 23.8826C38.4903 26.6752 37.0589 29.2451 35.1033 31.3897C33.1476 33.5343 30.721 35.195 28.0146 36.241C25.3083 37.287 22.3963 37.6897 19.5079 37.4173C16.8493 37.1666 14.2777 36.3503 11.9643 35.026L1.78615 39.8785C1.30875 40.1061 0.739882 40.0082 0.365934 39.634C-0.00801486 39.2598 -0.105989 38.6905 0.121338 38.2127L4.96828 28.0246C3.42818 25.3309 2.57938 22.2927 2.50338 19.1829C2.42174 15.8421 3.23488 12.5404 4.85842 9.62026C6.48197 6.70014 8.85676 4.26807 11.7363 2.57642C14.6153 0.885132 17.894 -0.00441822 21.2323 2.91853e-05ZM21.2326 1.25003L21.2308 2.50003C18.3376 2.49585 15.496 3.26666 13.0008 4.73244C10.5057 6.19823 8.44798 8.3056 7.0412 10.8358C5.63442 13.3661 4.92984 16.227 5.00058 19.1217C5.07133 22.0165 5.91482 24.8395 7.44352 27.2979C7.66845 27.6596 7.6938 28.1111 7.5108 28.4957L3.89009 36.1063L11.493 32.4815C11.8773 32.2983 12.3284 32.3236 12.6898 32.5486C14.8248 33.8776 17.2391 34.6923 19.7423 34.9283C22.2455 35.1644 24.7693 34.8154 27.1147 33.9089C29.4602 33.0023 31.5633 31.563 33.2582 29.7044C34.9531 27.8457 36.1936 25.6185 36.8819 23.1983C37.5701 20.778 37.6874 18.2309 37.2244 15.7575C36.7614 13.2842 35.7307 10.9523 34.2137 8.94555C32.6967 6.93881 30.7348 5.31209 28.4825 4.19357C26.2303 3.07505 23.7492 2.49531 21.2349 2.50003L21.2326 1.25003Z" fill="black"/>
<path fill-rule="evenodd" clip-rule="evenodd" d="M20.2083 24.066C20.5166 23.86 20.8792 23.75 21.25 23.75C21.7473 23.75 22.2242 23.9475 22.5758 24.2992C22.9275 24.6508 23.125 25.1277 23.125 25.625C23.125 25.9958 23.015 26.3584 22.809 26.6667C22.603 26.975 22.3101 27.2154 21.9675 27.3573C21.6249 27.4992 21.2479 27.5363 20.8842 27.464C20.5205 27.3916 20.1864 27.2131 19.9242 26.9508C19.6619 26.6886 19.4834 26.3545 19.411 25.9908C19.3387 25.6271 19.3758 25.2501 19.5177 24.9075C19.6596 24.5649 19.9 24.272 20.2083 24.066ZM21.4892 26.2024C21.5268 26.1868 21.563 26.1675 21.5972 26.1447C21.6658 26.0988 21.7243 26.0401 21.7697 25.9722C21.7923 25.9384 21.8117 25.9022 21.8274 25.8642C21.859 25.788 21.875 25.7067 21.875 25.625C21.875 25.5843 21.871 25.5434 21.863 25.5031C21.8389 25.3818 21.7794 25.2705 21.6919 25.1831C21.6045 25.0956 21.4932 25.0361 21.3719 25.012C21.3316 25.004 21.2907 25 21.25 25C21.1683 25 21.087 25.016 21.0108 25.0476C20.9728 25.0633 20.9366 25.0827 20.9028 25.1053C20.8349 25.1507 20.7762 25.2092 20.7303 25.2778C20.7075 25.312 20.6882 25.3482 20.6726 25.3858C20.6413 25.4613 20.625 25.5425 20.625 25.625C20.625 25.6662 20.6291 25.7071 20.637 25.7469C20.6609 25.8673 20.72 25.9789 20.8081 26.0669C20.8961 26.155 21.0077 26.2141 21.1281 26.238C21.1679 26.2459 21.2088 26.25 21.25 26.25C21.3325 26.25 21.4137 26.2337 21.4892 26.2024Z" fill="#29D305"/>
<path fill-rule="evenodd" clip-rule="evenodd" d="M21.9816 12.5721C21.2542 12.4274 20.5002 12.5016 19.8149 12.7855C19.1297 13.0693 18.544 13.5499 18.132 14.1666C17.7199 14.7833 17.5 15.5083 17.5 16.25C17.5 16.9404 16.9404 17.5 16.25 17.5C15.5596 17.5 15 16.9404 15 16.25C15 15.0139 15.3666 13.8055 16.0533 12.7777C16.7401 11.7499 17.7162 10.9488 18.8582 10.4758C20.0003 10.0027 21.2569 9.87894 22.4693 10.1201C23.6817 10.3613 24.7953 10.9565 25.6694 11.8306C26.5435 12.7047 27.1387 13.8183 27.3799 15.0307C27.6211 16.2431 27.4973 17.4997 27.0242 18.6418C26.5512 19.7838 25.7501 20.7599 24.7223 21.4467C23.6945 22.1334 22.4861 22.5 21.25 22.5C20.5596 22.5 20 21.9404 20 21.25C20 20.5596 20.5596 20 21.25 20C21.9917 20 22.7167 19.7801 23.3334 19.368C23.9501 18.956 24.4307 18.3703 24.7145 17.6851C24.9984 16.9998 25.0726 16.2458 24.9279 15.5184C24.7832 14.791 24.4261 14.1228 23.9017 13.5984C23.3772 13.0739 22.709 12.7168 21.9816 12.5721Z" fill="#29D305"/>
</g>
<defs>
<clipPath id="clip0">
<rect width="40" height="40" fill="white"/>
</clipPath>
</defs>
</svg>
