<svg width="32" height="32" viewBox="0 0 32 32" fill="none" xmlns="http://www.w3.org/2000/svg">
<g clip-path="url(#clip0)">
<path fill-rule="evenodd" clip-rule="evenodd" d="M2.58575 9.20368C3.09405 9.41967 3.33102 10.0068 3.11503 10.5151C2.21041 12.644 1.84738 14.9638 2.05837 17.2673C2.26936 19.5708 3.04781 21.7861 4.32413 23.7152C5.60045 25.6443 7.33487 27.2271 9.37235 28.3221C11.4098 29.4171 13.6869 29.9903 16 29.9903C18.3131 29.9903 20.5902 29.4171 22.6277 28.3221C24.6651 27.2271 26.3996 25.6443 27.6759 23.7152C28.9522 21.7861 29.7306 19.5708 29.9416 17.2673C30.1526 14.9638 29.7896 12.644 28.885 10.5151C28.669 10.0068 28.906 9.41967 29.4143 9.20368C29.9226 8.98769 30.5097 9.22466 30.7257 9.73295C31.7595 12.166 32.1744 14.8172 31.9333 17.4497C31.6922 20.0823 30.8025 22.614 29.3439 24.8187C27.8852 27.0234 25.903 28.8323 23.5745 30.0838C21.2459 31.3353 18.6436 31.9903 16 31.9903C13.3565 31.9903 10.7541 31.3353 8.42554 30.0838C6.09699 28.8323 4.11479 27.0234 2.65615 24.8187C1.1975 22.614 0.307841 20.0823 0.0667065 17.4497C-0.174428 14.8172 0.24047 12.166 1.27432 9.73295C1.4903 9.22466 2.07746 8.98769 2.58575 9.20368Z" fill="black"/>
<path fill-rule="evenodd" clip-rule="evenodd" d="M16.0007 2C12.2967 2 8.74359 3.46819 6.11997 6.08291C5.72878 6.47277 5.09561 6.47169 4.70575 6.0805C4.31589 5.68931 4.31697 5.05615 4.70816 4.66629C7.70666 1.67797 11.7674 0 16.0007 0C20.2341 0 24.2948 1.67797 27.2933 4.66629C27.6845 5.05615 27.6856 5.68931 27.2957 6.0805C26.9058 6.47169 26.2727 6.47277 25.8815 6.08291C23.2579 3.46819 19.7048 2 16.0007 2Z" fill="black"/>
<path fill-rule="evenodd" clip-rule="evenodd" d="M7.48592 19.1039C7.98078 18.8587 8.58073 19.0611 8.82594 19.556C9.48797 20.892 10.5101 22.0166 11.7771 22.8028C13.0441 23.589 14.5055 24.0055 15.9966 24.0055C17.4877 24.0055 18.9491 23.589 20.2161 22.8028C21.483 22.0166 22.5052 20.892 23.1672 19.556C23.4124 19.0611 24.0124 18.8587 24.5072 19.1039C25.0021 19.3492 25.2045 19.9491 24.9593 20.444C24.1318 22.1139 22.8542 23.5195 21.2706 24.5022C19.687 25.4848 17.8603 26.0055 15.9966 26.0055C14.1328 26.0055 12.3062 25.4848 10.7226 24.5022C9.13894 23.5195 7.86136 22.1139 7.03388 20.444C6.78867 19.9491 6.99105 19.3492 7.48592 19.1039Z" fill="black"/>
<path fill-rule="evenodd" clip-rule="evenodd" d="M9.61698 4.1261C10.0793 3.92805 10.5769 3.82593 11.0798 3.82593C11.5828 3.82593 12.0804 3.92805 12.5427 4.1261C13.0046 4.324 13.4216 4.61356 13.7683 4.97726C14.4693 5.71063 14.8605 6.68607 14.8605 7.70059C14.8605 8.7153 14.4692 9.69091 13.768 10.4243L13.7642 10.4283L8.75498 15.6107C8.58509 15.7888 8.38093 15.9308 8.15477 16.028C7.92682 16.126 7.6813 16.1766 7.43317 16.1766C7.18505 16.1766 6.93952 16.126 6.71158 16.028C6.48545 15.9308 6.28131 15.7889 6.11143 15.6108L1.09575 10.4231C0.392628 9.69061 0 8.7146 0 7.69926C0 6.68456 0.392139 5.70914 1.09443 4.97681C1.44098 4.61338 1.85764 4.32401 2.31923 4.12621C2.78142 3.92815 3.27901 3.82603 3.78184 3.82603C4.28467 3.82603 4.78226 3.92815 5.24445 4.12621C5.70538 4.32373 6.12152 4.61256 6.46778 4.97526L7.43051 5.97077L8.39328 4.97522C8.73966 4.61248 9.15592 4.32363 9.61698 4.1261ZM13.0452 5.66794L12.3212 6.35776C12.1611 6.1897 11.9685 6.0559 11.7551 5.96448C11.5417 5.87307 11.312 5.82593 11.0798 5.82593C10.8477 5.82593 10.618 5.87307 10.4046 5.96448C10.1912 6.0559 9.99861 6.1897 9.83848 6.35776L9.83337 6.36312L8.14935 8.10443C7.96094 8.29926 7.70153 8.40926 7.43051 8.40926C7.15949 8.40926 6.90007 8.29926 6.71167 8.10443L5.02241 6.35766C4.86239 6.18967 4.66994 6.05591 4.45669 5.96453C4.24344 5.87315 4.01385 5.82603 3.78184 5.82603C3.54983 5.82603 3.32025 5.87315 3.10699 5.96453C2.89374 6.05591 2.70127 6.18965 2.54125 6.35764L2.5386 6.36043C2.19299 6.72047 2 7.20019 2 7.69926C2 8.19779 2.19257 8.67702 2.53747 9.03692C2.53784 9.03731 2.53822 9.0377 2.53859 9.03809L7.43316 14.1005L12.3224 9.04219C12.3229 9.04162 12.3235 9.04106 12.324 9.04049C12.6684 8.67943 12.8605 8.19961 12.8605 7.70059C12.8605 7.20079 12.6678 6.72025 12.3224 6.359L13.0452 5.66794Z" fill="#29D305"/>
<path fill-rule="evenodd" clip-rule="evenodd" d="M19.4611 4.1261C19.9234 3.92805 20.4211 3.82593 20.924 3.82593C21.4269 3.82593 21.9246 3.92805 22.3868 4.1261C22.8479 4.32362 23.2641 4.61247 23.6105 4.97521L24.5733 5.97077L25.536 4.97524C25.8823 4.61255 26.2984 4.32372 26.7594 4.12621C27.2215 3.92815 27.7191 3.82603 28.222 3.82603C28.7248 3.82603 29.2224 3.92815 29.6846 4.12621C30.1461 4.32397 30.5627 4.61326 30.9092 4.97659C31.6124 5.70907 32.0051 6.68514 32.0051 7.70059C32.0051 8.71679 31.6118 9.69356 30.9076 10.4262L30.9057 10.4282L25.8964 15.6107C25.7265 15.7888 25.5224 15.9308 25.2962 16.028C25.0683 16.126 24.8228 16.1766 24.5746 16.1766C24.3265 16.1766 24.081 16.126 23.853 16.028C23.6269 15.9308 23.4228 15.7889 23.2529 15.6108L18.2354 10.4212C17.5352 9.68798 17.1445 8.71311 17.1445 7.69926C17.1445 6.68559 17.5351 5.71089 18.235 4.9777C18.5819 4.61379 18.999 4.32408 19.4611 4.1261ZM20.924 5.82593C20.6918 5.82593 20.4621 5.87307 20.2487 5.96448C20.0353 6.0559 19.8427 6.1897 19.6826 6.35776C19.3377 6.71892 19.1445 7.19988 19.1445 7.69926C19.1445 8.19771 19.3363 8.67702 19.6799 9.03796L24.5746 14.1005L29.4656 9.04031C29.4659 9.04001 29.4654 9.04061 29.4656 9.04031C29.8112 8.68029 30.0051 8.19966 30.0051 7.70059C30.0051 7.20111 29.8118 6.721 29.4656 6.36088L29.4626 6.35764C29.3025 6.18965 29.1101 6.05591 28.8968 5.96453C28.6836 5.87315 28.454 5.82603 28.222 5.82603C27.99 5.82603 27.7604 5.87315 27.5471 5.96453C27.3339 6.05591 27.1414 6.18965 26.9814 6.35764L26.9762 6.36312L25.2921 8.10443C25.1037 8.29926 24.8443 8.40926 24.5733 8.40926C24.3023 8.40926 24.0429 8.29926 23.8545 8.10443L22.1653 6.35778C22.0052 6.18972 21.8126 6.0559 21.5992 5.96448C21.3858 5.87306 21.1561 5.82593 20.924 5.82593Z" fill="#29D305"/>
</g>
<defs>
<clipPath id="clip0">
<rect width="32" height="32" fill="white"/>
</clipPath>
</defs>
</svg>
