<svg width="32" height="32" viewBox="0 0 32 32" fill="none" xmlns="http://www.w3.org/2000/svg">
<path fill-rule="evenodd" clip-rule="evenodd" d="M16 2C8.26801 2 2 8.26801 2 16C2 23.732 8.26801 30 16 30C23.732 30 30 23.732 30 16C30 8.26801 23.732 2 16 2ZM0 16C0 7.16344 7.16344 0 16 0C24.8366 0 32 7.16344 32 16C32 24.8366 24.8366 32 16 32C7.16344 32 0 24.8366 0 16Z" fill="black"/>
<path fill-rule="evenodd" clip-rule="evenodd" d="M11 10.5C10.6022 10.5 10.2206 10.658 9.93934 10.9393C9.65804 11.2206 9.5 11.6022 9.5 12C9.5 12.2967 9.58797 12.5867 9.7528 12.8334C9.91762 13.08 10.1519 13.2723 10.426 13.3858C10.7001 13.4994 11.0017 13.5291 11.2926 13.4712C11.5836 13.4133 11.8509 13.2704 12.0607 13.0607C12.2704 12.8509 12.4133 12.5836 12.4712 12.2926C12.5291 12.0017 12.4994 11.7001 12.3858 11.426C12.2723 11.1519 12.08 10.9176 11.8334 10.7528C11.5867 10.588 11.2967 10.5 11 10.5Z" fill="black"/>
<path fill-rule="evenodd" clip-rule="evenodd" d="M21 10.5C20.6022 10.5 20.2206 10.658 19.9393 10.9393C19.658 11.2206 19.5 11.6022 19.5 12C19.5 12.2967 19.588 12.5867 19.7528 12.8334C19.9176 13.08 20.1519 13.2723 20.426 13.3858C20.7001 13.4994 21.0017 13.5291 21.2926 13.4712C21.5836 13.4133 21.8509 13.2704 22.0607 13.0607C22.2704 12.8509 22.4133 12.5836 22.4712 12.2926C22.5291 12.0017 22.4994 11.7001 22.3858 11.426C22.2723 11.1519 22.08 10.9176 21.8334 10.7528C21.5867 10.588 21.2967 10.5 21 10.5Z" fill="black"/>
</svg>
