<svg width="739" height="202" viewBox="0 0 739 202" fill="none" xmlns="http://www.w3.org/2000/svg">
<rect width="735" height="202" fill="white"/>
<circle cx="78.5" cy="100.5" r="22.5" stroke="black" stroke-width="2"/>
<circle cx="23.5" cy="100.5" r="22.5" stroke="black" stroke-width="2"/>
<circle cx="141.5" cy="100.5" r="22.5" stroke="black" stroke-width="2"/>
<circle cx="212.5" cy="100.5" r="22.5" stroke="black" stroke-width="2"/>
<circle cx="291.5" cy="100.5" r="22.5" stroke="black" stroke-width="2"/>
<g clip-path="url(#clip0)">
<rect opacity="0.24" x="102" y="93" width="16" height="16" fill="#B90202"/>
<path d="M107.822 98V105H106.732V99.14L105.492 99.68V98.71L107.132 98H107.822ZM111.94 105.09C111.513 105.09 111.12 105.007 110.76 104.84C110.407 104.673 110.1 104.44 109.84 104.14C109.587 103.84 109.39 103.48 109.25 103.06C109.11 102.64 109.04 102.18 109.04 101.68C109.04 101.113 109.117 100.597 109.27 100.13C109.43 99.6633 109.65 99.2667 109.93 98.94C110.217 98.6133 110.56 98.36 110.96 98.18C111.367 97.9933 111.813 97.9 112.3 97.9C112.633 97.9 112.967 97.9533 113.3 98.06C113.64 98.1667 113.927 98.3133 114.16 98.5L113.56 99.31C113.36 99.1633 113.147 99.0567 112.92 98.99C112.7 98.9167 112.463 98.88 112.21 98.88C111.563 98.88 111.057 99.1267 110.69 99.62C110.323 100.107 110.137 100.787 110.13 101.66C110.377 101.333 110.667 101.083 111 100.91C111.34 100.73 111.693 100.64 112.06 100.64C112.4 100.64 112.713 100.693 113 100.8C113.287 100.907 113.533 101.057 113.74 101.25C113.947 101.437 114.107 101.663 114.22 101.93C114.34 102.19 114.4 102.477 114.4 102.79C114.4 103.123 114.337 103.43 114.21 103.71C114.09 103.99 113.92 104.233 113.7 104.44C113.487 104.64 113.227 104.8 112.92 104.92C112.62 105.033 112.293 105.09 111.94 105.09ZM111.89 101.51C111.557 101.51 111.24 101.583 110.94 101.73C110.647 101.877 110.393 102.083 110.18 102.35C110.267 102.89 110.463 103.327 110.77 103.66C111.083 103.987 111.46 104.15 111.9 104.15C112.307 104.15 112.647 104.023 112.92 103.77C113.193 103.517 113.33 103.2 113.33 102.82C113.33 102.44 113.193 102.127 112.92 101.88C112.653 101.633 112.31 101.51 111.89 101.51Z" fill="black"/>
</g>
<g clip-path="url(#clip1)">
<rect opacity="0.32" x="47" y="97" width="8" height="8" fill="#B90202"/>
<path d="M50.9945 105.121C51.4125 105.121 51.7975 105.066 52.1495 104.956C52.5015 104.846 52.8058 104.692 53.0625 104.494C53.3118 104.296 53.5062 104.058 53.6455 103.779C53.7848 103.5 53.8545 103.2 53.8545 102.877C53.8545 102.437 53.7005 102.045 53.3925 101.7C53.0772 101.355 52.6775 101.121 52.1935 100.996C52.6115 100.857 52.9525 100.633 53.2165 100.325C53.4732 100.017 53.6015 99.6687 53.6015 99.28C53.6015 98.9793 53.5355 98.7007 53.4035 98.444C53.2715 98.1873 53.0918 97.9673 52.8645 97.784C52.6298 97.5933 52.3548 97.4467 52.0395 97.344C51.7168 97.234 51.3722 97.179 51.0055 97.179C50.6388 97.179 50.2942 97.234 49.9715 97.344C49.6488 97.4467 49.3738 97.5933 49.1465 97.784C48.9118 97.9673 48.7285 98.1873 48.5965 98.444C48.4645 98.7007 48.3985 98.9793 48.3985 99.28C48.3985 99.6687 48.5305 100.017 48.7945 100.325C49.0512 100.633 49.3848 100.857 49.7955 100.996C49.3115 101.121 48.9155 101.355 48.6075 101.7C48.2922 102.045 48.1345 102.437 48.1345 102.877C48.1345 103.2 48.2078 103.5 48.3545 103.779C48.4938 104.058 48.6882 104.296 48.9375 104.494C49.1868 104.692 49.4875 104.846 49.8395 104.956C50.1915 105.066 50.5765 105.121 50.9945 105.121ZM50.9945 100.545C50.5985 100.545 50.2648 100.431 49.9935 100.204C49.7148 99.9767 49.5755 99.6943 49.5755 99.357C49.5755 99.0197 49.7148 98.7373 49.9935 98.51C50.2648 98.2753 50.5985 98.158 50.9945 98.158C51.3978 98.158 51.7388 98.2753 52.0175 98.51C52.2888 98.7373 52.4245 99.0197 52.4245 99.357C52.4245 99.6943 52.2852 99.9767 52.0065 100.204C51.7278 100.431 51.3905 100.545 50.9945 100.545ZM50.9945 104.12C50.5252 104.12 50.1328 103.992 49.8175 103.735C49.5022 103.478 49.3445 103.163 49.3445 102.789C49.3445 102.415 49.5022 102.103 49.8175 101.854C50.1328 101.605 50.5252 101.48 50.9945 101.48C51.4712 101.48 51.8672 101.605 52.1825 101.854C52.4978 102.103 52.6555 102.415 52.6555 102.789C52.6555 103.163 52.4978 103.478 52.1825 103.735C51.8672 103.992 51.4712 104.12 50.9945 104.12Z" fill="black"/>
</g>
<g clip-path="url(#clip2)">
<rect opacity="0.16" x="165" y="89" width="24" height="24" fill="#B90202"/>
<path d="M171.455 105V104.21L174.325 101.21C174.572 100.943 174.745 100.713 174.845 100.52C174.952 100.32 175.005 100.11 175.005 99.89C175.005 99.5967 174.882 99.3533 174.635 99.16C174.395 98.96 174.092 98.86 173.725 98.86C173.405 98.86 173.105 98.9267 172.825 99.06C172.552 99.1933 172.249 99.4133 171.915 99.72L171.295 98.97C171.675 98.6167 172.069 98.3533 172.475 98.18C172.889 98 173.315 97.91 173.755 97.91C174.435 97.91 174.989 98.09 175.415 98.45C175.849 98.8033 176.065 99.26 176.065 99.82C176.065 100.153 175.992 100.463 175.845 100.75C175.699 101.037 175.439 101.377 175.065 101.77L172.825 104.08L176.195 104.06V105H171.455ZM181.791 98V102.33H182.691V103.27H181.791V105H180.701V103.27H176.941V102.38L180.551 98H181.791ZM178.111 102.33H180.701V99.17L178.111 102.33Z" fill="black"/>
</g>
<g clip-path="url(#clip3)">
<rect opacity="0.08" x="236" y="85" width="32" height="32" fill="#B90202"/>
<path d="M251.676 103.05C251.676 103.343 251.609 103.617 251.476 103.87C251.349 104.123 251.169 104.34 250.936 104.52C250.709 104.7 250.436 104.843 250.116 104.95C249.796 105.05 249.446 105.1 249.066 105.1C248.552 105.1 248.069 105.01 247.616 104.83C247.169 104.643 246.789 104.383 246.476 104.05L247.216 103.36C247.496 103.647 247.776 103.85 248.056 103.97C248.336 104.083 248.669 104.14 249.056 104.14C249.502 104.14 249.866 104.033 250.146 103.82C250.432 103.6 250.576 103.32 250.576 102.98C250.576 102.673 250.459 102.423 250.226 102.23C249.992 102.03 249.696 101.93 249.336 101.93H248.466V101.02H249.246C249.579 101.02 249.846 100.927 250.046 100.74C250.252 100.547 250.356 100.29 250.356 99.97C250.356 99.6567 250.229 99.3933 249.976 99.18C249.722 98.9667 249.406 98.86 249.026 98.86C248.679 98.86 248.372 98.9233 248.106 99.05C247.846 99.17 247.572 99.3833 247.286 99.69L246.546 99C246.872 98.6467 247.252 98.3733 247.686 98.18C248.126 97.9867 248.586 97.89 249.066 97.89C249.412 97.89 249.732 97.94 250.026 98.04C250.319 98.14 250.569 98.2767 250.776 98.45C250.989 98.6233 251.156 98.83 251.276 99.07C251.396 99.31 251.456 99.57 251.456 99.85C251.456 100.23 251.329 100.567 251.076 100.86C250.822 101.147 250.496 101.343 250.096 101.45C250.569 101.543 250.949 101.737 251.236 102.03C251.529 102.317 251.676 102.657 251.676 103.05ZM252.661 105V104.21L255.531 101.21C255.778 100.943 255.951 100.713 256.051 100.52C256.158 100.32 256.211 100.11 256.211 99.89C256.211 99.5967 256.088 99.3533 255.841 99.16C255.601 98.96 255.298 98.86 254.931 98.86C254.611 98.86 254.311 98.9267 254.031 99.06C253.758 99.1933 253.455 99.4133 253.121 99.72L252.501 98.97C252.881 98.6167 253.275 98.3533 253.681 98.18C254.095 98 254.521 97.91 254.961 97.91C255.641 97.91 256.195 98.09 256.621 98.45C257.055 98.8033 257.271 99.26 257.271 99.82C257.271 100.153 257.198 100.463 257.051 100.75C256.905 101.037 256.645 101.377 256.271 101.77L254.031 104.08L257.401 104.06V105H252.661Z" fill="black"/>
</g>
<g clip-path="url(#clip4)">
<rect opacity="0.4" x="315" y="81" width="40" height="40" fill="#006DDB"/>
<path d="M333.624 98V102.33H334.524V103.27H333.624V105H332.534V103.27H328.774V102.38L332.384 98H333.624ZM329.944 102.33H332.534V99.17L329.944 102.33ZM338.258 105.1C337.831 105.1 337.441 105.013 337.088 104.84C336.734 104.66 336.431 104.413 336.178 104.1C335.931 103.787 335.738 103.407 335.598 102.96C335.464 102.513 335.398 102.023 335.398 101.49C335.398 100.963 335.468 100.477 335.608 100.03C335.748 99.5833 335.941 99.2033 336.188 98.89C336.441 98.5767 336.744 98.3333 337.098 98.16C337.451 97.98 337.838 97.89 338.258 97.89C338.684 97.89 339.074 97.98 339.428 98.16C339.781 98.3333 340.081 98.5767 340.328 98.89C340.581 99.2033 340.774 99.5833 340.908 100.03C341.048 100.477 341.118 100.963 341.118 101.49C341.118 102.023 341.048 102.513 340.908 102.96C340.774 103.407 340.581 103.787 340.328 104.1C340.081 104.413 339.781 104.66 339.428 104.84C339.074 105.013 338.684 105.1 338.258 105.1ZM338.258 104.13C338.798 104.13 339.228 103.893 339.548 103.42C339.868 102.947 340.028 102.303 340.028 101.49C340.028 100.69 339.868 100.053 339.548 99.58C339.228 99.1 338.798 98.86 338.258 98.86C337.718 98.86 337.288 99.1 336.968 99.58C336.648 100.06 336.488 100.697 336.488 101.49C336.488 102.297 336.648 102.94 336.968 103.42C337.288 103.893 337.718 104.13 338.258 104.13Z" fill="black"/>
</g>
<g clip-path="url(#clip5)">
<rect opacity="0.32" x="424" y="77" width="48" height="48" fill="#006DDB"/>
<path d="M446.902 98V102.33H447.802V103.27H446.902V105H445.812V103.27H442.052V102.38L445.662 98H446.902ZM443.222 102.33H445.812V99.17L443.222 102.33ZM451.228 105.11C450.848 105.11 450.498 105.06 450.178 104.96C449.858 104.86 449.581 104.72 449.348 104.54C449.121 104.36 448.944 104.143 448.818 103.89C448.691 103.637 448.628 103.363 448.628 103.07C448.628 102.67 448.768 102.313 449.048 102C449.334 101.687 449.698 101.473 450.138 101.36C449.758 101.233 449.448 101.03 449.208 100.75C448.974 100.47 448.858 100.153 448.858 99.8C448.858 99.5267 448.918 99.2733 449.038 99.04C449.158 98.8067 449.321 98.6067 449.528 98.44C449.741 98.2667 449.991 98.1333 450.278 98.04C450.571 97.94 450.884 97.89 451.218 97.89C451.551 97.89 451.864 97.94 452.158 98.04C452.451 98.1333 452.701 98.2667 452.908 98.44C453.121 98.6067 453.288 98.8067 453.408 99.04C453.528 99.2733 453.588 99.5267 453.588 99.8C453.588 100.153 453.468 100.47 453.228 100.75C452.994 101.03 452.691 101.233 452.318 101.36C452.758 101.473 453.118 101.687 453.398 102C453.684 102.313 453.828 102.67 453.828 103.07C453.828 103.363 453.761 103.637 453.628 103.89C453.501 104.143 453.324 104.36 453.098 104.54C452.871 104.72 452.598 104.86 452.278 104.96C451.958 105.06 451.608 105.11 451.228 105.11ZM451.228 100.95C451.588 100.95 451.891 100.847 452.138 100.64C452.391 100.433 452.518 100.177 452.518 99.87C452.518 99.5633 452.391 99.3067 452.138 99.1C451.891 98.8867 451.588 98.78 451.228 98.78C450.861 98.78 450.551 98.8867 450.298 99.1C450.051 99.3067 449.928 99.5633 449.928 99.87C449.928 100.177 450.054 100.433 450.308 100.64C450.561 100.847 450.868 100.95 451.228 100.95ZM451.228 104.2C451.654 104.2 452.011 104.083 452.298 103.85C452.584 103.617 452.728 103.33 452.728 102.99C452.728 102.65 452.584 102.367 452.298 102.14C452.011 101.913 451.654 101.8 451.228 101.8C450.794 101.8 450.434 101.913 450.148 102.14C449.861 102.367 449.718 102.65 449.718 102.99C449.718 103.33 449.861 103.617 450.148 103.85C450.434 104.083 450.794 104.2 451.228 104.2Z" fill="black"/>
</g>
<g clip-path="url(#clip6)">
<rect opacity="0.24" x="555" y="73" width="56" height="56" fill="#006DDB"/>
<path d="M577.537 101.62L577.697 98H581.957V98.94H578.627L578.537 100.97C578.77 100.85 579.007 100.763 579.247 100.71C579.487 100.65 579.737 100.62 579.997 100.62C580.69 100.62 581.25 100.817 581.677 101.21C582.11 101.597 582.327 102.107 582.327 102.74C582.327 103.093 582.26 103.417 582.127 103.71C582 103.997 581.82 104.243 581.587 104.45C581.36 104.657 581.084 104.82 580.757 104.94C580.43 105.053 580.07 105.11 579.677 105.11C579.21 105.11 578.767 105.03 578.347 104.87C577.934 104.71 577.557 104.473 577.217 104.16L577.877 103.41C578.177 103.677 578.474 103.87 578.767 103.99C579.06 104.103 579.377 104.16 579.717 104.16C580.157 104.16 580.514 104.033 580.787 103.78C581.067 103.527 581.207 103.197 581.207 102.79C581.207 102.41 581.064 102.097 580.777 101.85C580.49 101.603 580.127 101.48 579.687 101.48C579.454 101.48 579.224 101.51 578.997 101.57C578.777 101.63 578.544 101.723 578.297 101.85L577.537 101.62ZM586.185 105.09C585.758 105.09 585.365 105.007 585.005 104.84C584.652 104.673 584.345 104.44 584.085 104.14C583.832 103.84 583.635 103.48 583.495 103.06C583.355 102.64 583.285 102.18 583.285 101.68C583.285 101.113 583.362 100.597 583.515 100.13C583.675 99.6633 583.895 99.2667 584.175 98.94C584.462 98.6133 584.805 98.36 585.205 98.18C585.612 97.9933 586.058 97.9 586.545 97.9C586.878 97.9 587.212 97.9533 587.545 98.06C587.885 98.1667 588.172 98.3133 588.405 98.5L587.805 99.31C587.605 99.1633 587.392 99.0567 587.165 98.99C586.945 98.9167 586.708 98.88 586.455 98.88C585.808 98.88 585.302 99.1267 584.935 99.62C584.568 100.107 584.382 100.787 584.375 101.66C584.622 101.333 584.912 101.083 585.245 100.91C585.585 100.73 585.938 100.64 586.305 100.64C586.645 100.64 586.958 100.693 587.245 100.8C587.532 100.907 587.778 101.057 587.985 101.25C588.192 101.437 588.352 101.663 588.465 101.93C588.585 102.19 588.645 102.477 588.645 102.79C588.645 103.123 588.582 103.43 588.455 103.71C588.335 103.99 588.165 104.233 587.945 104.44C587.732 104.64 587.472 104.8 587.165 104.92C586.865 105.033 586.538 105.09 586.185 105.09ZM586.135 101.51C585.802 101.51 585.485 101.583 585.185 101.73C584.892 101.877 584.638 102.083 584.425 102.35C584.512 102.89 584.708 103.327 585.015 103.66C585.328 103.987 585.705 104.15 586.145 104.15C586.552 104.15 586.892 104.023 587.165 103.77C587.438 103.517 587.575 103.2 587.575 102.82C587.575 102.44 587.438 102.127 587.165 101.88C586.898 101.633 586.555 101.51 586.135 101.51Z" fill="black"/>
</g>
<rect x="356" y="67" width="67" height="67" stroke="black" stroke-width="2" stroke-linejoin="round"/>
<path d="M673 38.2361L686.867 80.9139L687.091 81.6049H687.818H732.692L696.388 107.981L695.8 108.408L696.025 109.099L709.892 151.777L673.588 125.401L673 124.974L672.412 125.401L636.108 151.777L649.975 109.099L650.2 108.408L649.612 107.981L613.308 81.6049H658.182H658.909L659.133 80.9139L673 38.2361Z" stroke="black" stroke-width="2"/>
<path d="M472.75 54.1676L553 100.5L472.75 146.832L472.75 54.1676Z" stroke="black" stroke-width="2"/>
<defs>
<clipPath id="clip0">
<rect width="16" height="16" fill="white" transform="translate(102 93)"/>
</clipPath>
<clipPath id="clip1">
<rect width="8" height="8" fill="white" transform="translate(47 97)"/>
</clipPath>
<clipPath id="clip2">
<rect width="24" height="24" fill="white" transform="translate(165 89)"/>
</clipPath>
<clipPath id="clip3">
<rect width="32" height="32" fill="white" transform="translate(236 85)"/>
</clipPath>
<clipPath id="clip4">
<rect width="40" height="40" fill="white" transform="translate(315 81)"/>
</clipPath>
<clipPath id="clip5">
<rect width="48" height="48" fill="white" transform="translate(424 77)"/>
</clipPath>
<clipPath id="clip6">
<rect width="56" height="56" fill="white" transform="translate(555 73)"/>
</clipPath>
</defs>
</svg>
