<svg width="40" height="40" viewBox="0 0 40 40" fill="none" xmlns="http://www.w3.org/2000/svg">
<g clip-path="url(#clip0)">
<path d="M21.25 1.25003C18.1313 1.24553 15.0683 2.07572 12.3787 3.65443C9.68915 5.23315 7.47107 7.50287 5.95466 10.228C4.43825 12.9532 3.67877 16.0346 3.75503 19.1523C3.83129 22.27 4.74051 25.3106 6.38833 27.9584L1.25 38.75L12.0417 33.6117C14.3429 35.0425 16.945 35.9193 19.6428 36.1731C22.3406 36.4269 25.0606 36.0507 27.5882 35.0742C30.1159 34.0977 32.3823 32.5475 34.2088 30.5458C36.0353 28.5442 37.3721 26.1457 38.1137 23.5394C38.8553 20.9331 38.9815 18.1902 38.4824 15.5268C37.9833 12.8634 36.8725 10.3523 35.2376 8.19134C33.6027 6.03038 31.4882 4.27861 29.0609 3.07406C26.6336 1.86952 23.9598 1.24511 21.25 1.25003V1.25003Z" stroke="black" stroke-width="2.5" stroke-linecap="round" stroke-linejoin="round"/>
<path d="M25.0098 17.5C25.3413 17.5 25.6592 17.3683 25.8937 17.1339C26.1281 16.8995 26.2598 16.5815 26.2598 16.25C26.2598 15.9185 26.1281 15.6005 25.8937 15.3661C25.6592 15.1317 25.3413 15 25.0098 15C24.6782 15 24.3603 15.1317 24.1259 15.3661C23.8915 15.6005 23.7598 15.9185 23.7598 16.25C23.7598 16.5815 23.8915 16.8995 24.1259 17.1339C24.3603 17.3683 24.6782 17.5 25.0098 17.5Z" stroke="#29D305" stroke-width="2.5" stroke-linecap="round" stroke-linejoin="round"/>
<path d="M25.2843 22.925C26.0513 22.5718 26.7074 22.0161 27.182 21.3178C27.6565 20.6194 27.9316 19.8048 27.9776 18.9617C27.9776 17.22 27.0493 15 24.9043 15" stroke="#29D305" stroke-width="2.5" stroke-linecap="round" stroke-linejoin="round"/>
<path d="M16.2598 17.5C16.5913 17.5 16.9092 17.3683 17.1437 17.1339C17.3781 16.8995 17.5098 16.5815 17.5098 16.25C17.5098 15.9185 17.3781 15.6005 17.1437 15.3661C16.9092 15.1317 16.5913 15 16.2598 15C15.9282 15 15.6103 15.1317 15.3759 15.3661C15.1415 15.6005 15.0098 15.9185 15.0098 16.25C15.0098 16.5815 15.1415 16.8995 15.3759 17.1339C15.6103 17.3683 15.9282 17.5 16.2598 17.5Z" stroke="#29D305" stroke-width="2.5" stroke-linecap="round" stroke-linejoin="round"/>
<path d="M16.5343 22.925C17.3013 22.5718 17.9574 22.0161 18.432 21.3178C18.9065 20.6194 19.1816 19.8048 19.2276 18.9617C19.2276 17.22 18.2993 15 16.1543 15" stroke="#29D305" stroke-width="2.5" stroke-linecap="round" stroke-linejoin="round"/>
</g>
<defs>
<clipPath id="clip0">
<rect width="40" height="40" fill="white"/>
</clipPath>
</defs>
</svg>
