<svg width="41" height="40" viewBox="0 0 41 40" fill="none" xmlns="http://www.w3.org/2000/svg">
<path fill-rule="evenodd" clip-rule="evenodd" d="M10.25 6.75C7.66848 6.75 5.23534 7.92092 3.47182 9.93189C1.71322 11.9373 0.75 14.6233 0.75 17.3929V32.9286C0.75 33.6593 1.3444 34.25 2.07558 34.25C2.80677 34.25 3.40116 33.6593 3.40116 32.9286V26.5355H17.0988V32.9203C17.0988 33.651 17.6932 34.2417 18.4244 34.2417C19.1556 34.2417 19.75 33.651 19.75 32.9203V17.3929C19.75 14.6233 18.7868 11.9373 17.0282 9.93189C15.2647 7.92092 12.8315 6.75 10.25 6.75ZM5.46781 11.6713C6.77021 10.1862 8.49542 9.39286 10.25 9.39286C12.0046 9.39286 13.7298 10.1862 15.0322 11.6713C16.3396 13.1622 17.0988 15.2181 17.0988 17.3929V23.8927H3.40116V17.3929C3.40116 15.2181 4.16038 13.1622 5.46781 11.6713ZM28.25 16.75C26.4017 16.75 24.6241 17.4705 23.3094 18.7611C21.9939 20.0526 21.25 21.8097 21.25 23.6474V32.9103C21.25 33.65 21.8491 34.25 22.5887 34.25C23.3283 34.25 23.9274 33.65 23.9274 32.9103V29.8909H32.5726V32.9053C32.5726 33.645 33.1717 34.2451 33.9113 34.2451C34.6509 34.2451 35.25 33.645 35.25 32.9053V23.6474C35.25 21.8097 34.5061 20.0526 33.1906 18.7611C31.8759 17.4705 30.0983 16.75 28.25 16.75ZM25.1843 20.674C25.9931 19.88 27.0954 19.4295 28.25 19.4295C29.4046 19.4295 30.5069 19.88 31.3157 20.674C32.1235 21.467 32.5726 22.5372 32.5726 23.6474V27.2114H23.9274V23.6474C23.9274 22.5372 24.3765 21.467 25.1843 20.674Z" fill="black"/>
<path d="M39 30C39.5448 30 40.0108 30.2007 40.3979 30.6022C40.7993 30.9892 41 31.4552 41 32C41 32.5448 40.7993 33.0179 40.3979 33.4194C40.0108 33.8065 39.5448 34 39 34C38.4552 34 37.9821 33.8065 37.5806 33.4194C37.1935 33.0179 37 32.5448 37 32C37 31.4552 37.1935 30.9892 37.5806 30.6022C37.9821 30.2007 38.4552 30 39 30Z" fill="#29D305"/>
</svg>
