<svg width="726" height="407" viewBox="0 0 726 407" fill="none" xmlns="http://www.w3.org/2000/svg">
<path d="M46.672 15.432C47.248 15.432 47.792 15.3093 48.304 15.064C48.8267 14.808 49.28 14.4453 49.664 13.976L50.928 15.192C50.4053 15.8 49.76 16.28 48.992 16.632C48.2347 16.984 47.44 17.16 46.608 17.16C45.7973 17.16 45.0347 17.0107 44.32 16.712C43.616 16.4133 43.0027 16.008 42.48 15.496C41.968 14.9733 41.5627 14.36 41.264 13.656C40.9653 12.952 40.816 12.2 40.816 11.4C40.816 10.5893 40.9653 9.832 41.264 9.128C41.5627 8.424 41.968 7.816 42.48 7.304C43.0027 6.78133 43.616 6.37067 44.32 6.072C45.0347 5.77333 45.7973 5.624 46.608 5.624C47.4613 5.624 48.272 5.8 49.04 6.152C49.8187 6.504 50.464 6.98933 50.976 7.608L49.68 8.888C49.2853 8.39733 48.8213 8.01867 48.288 7.752C47.7547 7.47467 47.1947 7.336 46.608 7.336C46.064 7.336 45.5573 7.44267 45.088 7.656C44.6187 7.85867 44.2133 8.14133 43.872 8.504C43.5413 8.86667 43.2747 9.29867 43.072 9.8C42.88 10.2907 42.784 10.824 42.784 11.4C42.784 11.9653 42.88 12.4987 43.072 13C43.2747 13.4907 43.5467 13.9173 43.888 14.28C44.24 14.632 44.656 14.9147 45.136 15.128C45.616 15.3307 46.128 15.432 46.672 15.432ZM52.0801 13C52.0801 12.4133 52.1815 11.8693 52.3841 11.368C52.5975 10.856 52.8801 10.4187 53.2321 10.056C53.5948 9.68267 54.0215 9.38933 54.5121 9.176C55.0135 8.96267 55.5468 8.856 56.1121 8.856C56.6881 8.856 57.2215 8.96267 57.7121 9.176C58.2028 9.38933 58.6295 9.68267 58.9921 10.056C59.3548 10.4187 59.6375 10.856 59.8401 11.368C60.0428 11.8693 60.1441 12.4133 60.1441 13C60.1441 13.5867 60.0375 14.136 59.8241 14.648C59.6215 15.16 59.3388 15.6027 58.9761 15.976C58.6241 16.3387 58.1975 16.6267 57.6961 16.84C57.2055 17.0533 56.6775 17.16 56.1121 17.16C55.5468 17.16 55.0135 17.0533 54.5121 16.84C54.0215 16.6267 53.5948 16.3333 53.2321 15.96C52.8801 15.5867 52.5975 15.1493 52.3841 14.648C52.1815 14.136 52.0801 13.5867 52.0801 13ZM56.1121 15.592C56.7628 15.592 57.2961 15.3467 57.7121 14.856C58.1388 14.3653 58.3521 13.752 58.3521 13.016C58.3521 12.2587 58.1388 11.6347 57.7121 11.144C57.2855 10.6533 56.7521 10.408 56.1121 10.408C55.4615 10.408 54.9228 10.6533 54.4961 11.144C54.0801 11.6347 53.8721 12.2587 53.8721 13.016C53.8721 13.7627 54.0801 14.3813 54.4961 14.872C54.9228 15.352 55.4615 15.592 56.1121 15.592ZM62.0106 17V8.984H63.8186V10.264C64.1173 9.80533 64.464 9.45867 64.8586 9.224C65.264 8.97867 65.712 8.856 66.2026 8.856C66.736 8.856 67.2106 9 67.6266 9.288C68.0426 9.56533 68.352 9.93867 68.5546 10.408C68.8533 9.896 69.2266 9.512 69.6746 9.256C70.1333 8.98933 70.6453 8.856 71.2106 8.856C71.9786 8.856 72.608 9.128 73.0986 9.672C73.5893 10.216 73.8346 10.9147 73.8346 11.768V17H72.0266V12.152C72.0266 11.5973 71.8773 11.1547 71.5786 10.824C71.2906 10.4827 70.9013 10.312 70.4106 10.312C70.08 10.312 69.7813 10.392 69.5146 10.552C69.248 10.712 69.008 10.9467 68.7946 11.256C68.8053 11.3413 68.8106 11.4267 68.8106 11.512C68.8213 11.5973 68.8266 11.6827 68.8266 11.768V17H67.0186V12.152C67.0186 11.5973 66.8693 11.1547 66.5706 10.824C66.2826 10.4827 65.8933 10.312 65.4026 10.312C65.0826 10.312 64.7893 10.392 64.5226 10.552C64.256 10.7013 64.0213 10.9253 63.8186 11.224V17H62.0106ZM76.0263 20.392V8.984H77.8023V10.136C78.0796 9.752 78.4316 9.45333 78.8583 9.24C79.2956 9.02667 79.7756 8.92 80.2983 8.92C80.7996 8.92 81.2743 9.02667 81.7223 9.24C82.1703 9.45333 82.5543 9.74667 82.8743 10.12C83.2049 10.4827 83.4609 10.9147 83.6423 11.416C83.8343 11.9067 83.9303 12.4347 83.9303 13C83.9303 13.5653 83.8343 14.0987 83.6423 14.6C83.4502 15.1013 83.1836 15.5333 82.8423 15.896C82.5009 16.2587 82.1009 16.5467 81.6423 16.76C81.1836 16.9733 80.6929 17.08 80.1703 17.08C79.7009 17.08 79.2636 16.9893 78.8583 16.808C78.4636 16.6267 78.1223 16.3707 77.8343 16.04V20.392H76.0263ZM79.7543 10.44C79.3596 10.44 78.9969 10.5147 78.6663 10.664C78.3463 10.8133 78.0689 11.0373 77.8343 11.336V14.68C78.0689 14.9573 78.3516 15.176 78.6823 15.336C79.0129 15.4853 79.3703 15.56 79.7543 15.56C80.4369 15.56 81.0023 15.32 81.4503 14.84C81.9089 14.3493 82.1383 13.736 82.1383 13C82.1383 12.2747 81.9089 11.6667 81.4503 11.176C80.9916 10.6853 80.4263 10.44 79.7543 10.44ZM88.3176 17.128C87.4856 17.128 86.803 16.904 86.2696 16.456C85.747 15.9973 85.4856 15.4107 85.4856 14.696C85.4856 13.9813 85.7576 13.4107 86.3016 12.984C86.8563 12.5573 87.603 12.344 88.5416 12.344C88.915 12.344 89.2776 12.3867 89.6296 12.472C89.9816 12.5467 90.339 12.6693 90.7016 12.84V11.96C90.7016 11.4373 90.547 11.0427 90.2376 10.776C89.9283 10.4987 89.4696 10.36 88.8616 10.36C88.531 10.36 88.1736 10.4133 87.7896 10.52C87.4056 10.616 86.9843 10.7707 86.5256 10.984L85.8856 9.672C86.483 9.39467 87.0536 9.192 87.5976 9.064C88.1416 8.92533 88.6803 8.856 89.2136 8.856C90.2483 8.856 91.0536 9.112 91.6296 9.624C92.2056 10.1253 92.4936 10.84 92.4936 11.768V17H90.7016V16.184C90.339 16.5147 89.9656 16.7547 89.5816 16.904C89.1976 17.0533 88.7763 17.128 88.3176 17.128ZM87.1816 14.664C87.1816 15.0267 87.331 15.32 87.6296 15.544C87.9283 15.7573 88.323 15.864 88.8136 15.864C89.1763 15.864 89.5123 15.8107 89.8216 15.704C90.1416 15.5973 90.435 15.432 90.7016 15.208V13.896C90.4136 13.7573 90.1203 13.6613 89.8216 13.608C89.523 13.544 89.1976 13.512 88.8456 13.512C88.3336 13.512 87.9283 13.6187 87.6296 13.832C87.331 14.0347 87.1816 14.312 87.1816 14.664ZM94.6825 17V8.984H96.4905V10.296C96.7892 9.82667 97.1518 9.46933 97.5785 9.224C98.0158 8.97867 98.5012 8.856 99.0345 8.856C99.8452 8.856 100.507 9.128 101.019 9.672C101.541 10.2053 101.803 10.888 101.803 11.72V17H99.9945V12.232C99.9945 11.656 99.8345 11.192 99.5145 10.84C99.1945 10.488 98.7678 10.312 98.2345 10.312C97.8718 10.312 97.5412 10.3973 97.2425 10.568C96.9545 10.728 96.7038 10.9627 96.4905 11.272V17H94.6825ZM105.551 17.896L105.887 17.048L102.863 8.984H104.879L106.911 14.936L109.151 8.984H111.119L107.311 18.312C107.012 19.08 106.644 19.624 106.207 19.944C105.78 20.264 105.199 20.424 104.463 20.424C104.324 20.424 104.175 20.4133 104.015 20.392C103.865 20.3813 103.711 20.3547 103.551 20.312V18.76C103.764 18.7813 103.913 18.7973 103.999 18.808C104.095 18.8187 104.18 18.824 104.255 18.824C104.575 18.824 104.836 18.7493 105.039 18.6C105.252 18.4507 105.423 18.216 105.551 17.896ZM116.026 17V8.984H117.834V10.296C118.133 9.82667 118.496 9.46933 118.922 9.224C119.36 8.97867 119.845 8.856 120.378 8.856C121.189 8.856 121.85 9.128 122.362 9.672C122.885 10.2053 123.146 10.888 123.146 11.72V17H121.338V12.232C121.338 11.656 121.178 11.192 120.858 10.84C120.538 10.488 120.112 10.312 119.578 10.312C119.216 10.312 118.885 10.3973 118.586 10.568C118.298 10.728 118.048 10.9627 117.834 11.272V17H116.026ZM127.771 17.128C126.939 17.128 126.256 16.904 125.723 16.456C125.2 15.9973 124.939 15.4107 124.939 14.696C124.939 13.9813 125.211 13.4107 125.755 12.984C126.309 12.5573 127.056 12.344 127.995 12.344C128.368 12.344 128.731 12.3867 129.083 12.472C129.435 12.5467 129.792 12.6693 130.155 12.84V11.96C130.155 11.4373 130 11.0427 129.691 10.776C129.381 10.4987 128.923 10.36 128.315 10.36C127.984 10.36 127.627 10.4133 127.243 10.52C126.859 10.616 126.437 10.7707 125.979 10.984L125.339 9.672C125.936 9.39467 126.507 9.192 127.051 9.064C127.595 8.92533 128.133 8.856 128.667 8.856C129.701 8.856 130.507 9.112 131.083 9.624C131.659 10.1253 131.947 10.84 131.947 11.768V17H130.155V16.184C129.792 16.5147 129.419 16.7547 129.035 16.904C128.651 17.0533 128.229 17.128 127.771 17.128ZM126.635 14.664C126.635 15.0267 126.784 15.32 127.083 15.544C127.381 15.7573 127.776 15.864 128.267 15.864C128.629 15.864 128.965 15.8107 129.275 15.704C129.595 15.5973 129.888 15.432 130.155 15.208V13.896C129.867 13.7573 129.573 13.6613 129.275 13.608C128.976 13.544 128.651 13.512 128.299 13.512C127.787 13.512 127.381 13.6187 127.083 13.832C126.784 14.0347 126.635 14.312 126.635 14.664ZM134.136 17V8.984H135.944V10.264C136.242 9.80533 136.589 9.45867 136.984 9.224C137.389 8.97867 137.837 8.856 138.328 8.856C138.861 8.856 139.336 9 139.752 9.288C140.168 9.56533 140.477 9.93867 140.68 10.408C140.978 9.896 141.352 9.512 141.8 9.256C142.258 8.98933 142.77 8.856 143.336 8.856C144.104 8.856 144.733 9.128 145.224 9.672C145.714 10.216 145.96 10.9147 145.96 11.768V17H144.152V12.152C144.152 11.5973 144.002 11.1547 143.704 10.824C143.416 10.4827 143.026 10.312 142.536 10.312C142.205 10.312 141.906 10.392 141.64 10.552C141.373 10.712 141.133 10.9467 140.92 11.256C140.93 11.3413 140.936 11.4267 140.936 11.512C140.946 11.5973 140.952 11.6827 140.952 11.768V17H139.144V12.152C139.144 11.5973 138.994 11.1547 138.696 10.824C138.408 10.4827 138.018 10.312 137.528 10.312C137.208 10.312 136.914 10.392 136.648 10.552C136.381 10.7013 136.146 10.9253 135.944 11.224V17H134.136ZM155.047 15.976C154.557 16.3813 154.055 16.68 153.543 16.872C153.042 17.064 152.482 17.16 151.863 17.16C151.298 17.16 150.765 17.0533 150.263 16.84C149.762 16.6267 149.33 16.3333 148.967 15.96C148.605 15.5867 148.317 15.144 148.103 14.632C147.89 14.12 147.783 13.576 147.783 13C147.783 12.4133 147.879 11.8693 148.071 11.368C148.274 10.856 148.546 10.4187 148.887 10.056C149.239 9.68267 149.655 9.38933 150.135 9.176C150.615 8.96267 151.133 8.856 151.687 8.856C152.231 8.856 152.733 8.96267 153.191 9.176C153.661 9.37867 154.061 9.66133 154.391 10.024C154.733 10.3867 154.999 10.824 155.191 11.336C155.383 11.8373 155.479 12.3867 155.479 12.984V13.432H149.559C149.645 14.0613 149.911 14.584 150.359 15C150.818 15.416 151.351 15.624 151.959 15.624C152.333 15.624 152.685 15.56 153.015 15.432C153.357 15.2933 153.639 15.1067 153.863 14.872L155.047 15.976ZM151.671 10.328C151.138 10.328 150.685 10.5093 150.311 10.872C149.938 11.2347 149.698 11.72 149.591 12.328H153.767C153.661 11.7413 153.415 11.2613 153.031 10.888C152.658 10.5147 152.205 10.328 151.671 10.328Z" fill="black"/>
<rect x="40.5" y="27.5" width="369" height="47" rx="3.5" fill="white" stroke="black"/>
<path d="M52.16 110.4C52.16 111.2 52.0107 111.957 51.712 112.672C51.424 113.376 51.024 113.989 50.512 114.512C50.0107 115.024 49.4133 115.429 48.72 115.728C48.0267 116.027 47.2853 116.176 46.496 116.176C45.7067 116.176 44.9653 116.027 44.272 115.728C43.5787 115.429 42.976 115.024 42.464 114.512C41.9627 113.989 41.5627 113.376 41.264 112.672C40.976 111.957 40.832 111.2 40.832 110.4C40.832 109.6 40.976 108.848 41.264 108.144C41.5627 107.429 41.9627 106.816 42.464 106.304C42.976 105.781 43.5787 105.371 44.272 105.072C44.9653 104.773 45.7067 104.624 46.496 104.624C47.2853 104.624 48.0267 104.773 48.72 105.072C49.4133 105.371 50.0107 105.781 50.512 106.304C51.024 106.816 51.424 107.429 51.712 108.144C52.0107 108.848 52.16 109.6 52.16 110.4ZM50.192 110.4C50.192 109.824 50.096 109.291 49.904 108.8C49.7227 108.299 49.4667 107.867 49.136 107.504C48.8053 107.141 48.416 106.859 47.968 106.656C47.52 106.443 47.0347 106.336 46.512 106.336C45.9893 106.336 45.4987 106.443 45.04 106.656C44.592 106.859 44.2027 107.141 43.872 107.504C43.5413 107.867 43.28 108.299 43.088 108.8C42.896 109.291 42.8 109.824 42.8 110.4C42.8 110.976 42.896 111.515 43.088 112.016C43.28 112.507 43.5413 112.933 43.872 113.296C44.2027 113.648 44.592 113.931 45.04 114.144C45.4987 114.347 45.9893 114.448 46.512 114.448C47.0347 114.448 47.52 114.347 47.968 114.144C48.416 113.931 48.8053 113.648 49.136 113.296C49.4667 112.933 49.7227 112.507 49.904 112.016C50.096 111.515 50.192 110.976 50.192 110.4ZM54.0888 116V107.984H55.8968V109.728C56.1101 109.12 56.4034 108.656 56.7768 108.336C57.1608 108.005 57.6034 107.84 58.1048 107.84C58.2541 107.851 58.3874 107.867 58.5048 107.888C58.6221 107.909 58.7501 107.947 58.8888 108V109.584C58.7501 109.52 58.5901 109.472 58.4088 109.44C58.2381 109.408 58.0674 109.392 57.8968 109.392C57.4701 109.392 57.0808 109.509 56.7288 109.744C56.3768 109.979 56.0994 110.304 55.8968 110.72V116H54.0888ZM63.2434 116.048C62.742 116.048 62.2674 115.941 61.8194 115.728C61.3714 115.515 60.982 115.227 60.6514 114.864C60.3314 114.501 60.0754 114.075 59.8834 113.584C59.702 113.083 59.6114 112.549 59.6114 111.984C59.6114 111.419 59.7074 110.885 59.8994 110.384C60.0914 109.883 60.3527 109.451 60.6834 109.088C61.0247 108.725 61.4247 108.443 61.8834 108.24C62.342 108.027 62.8327 107.92 63.3554 107.92C63.814 107.92 64.246 108.016 64.6514 108.208C65.0567 108.389 65.4087 108.656 65.7074 109.008V107.984H67.4994V116.272C67.4994 117.296 67.1687 118.085 66.5074 118.64C65.8567 119.195 64.9287 119.472 63.7234 119.472C63.1474 119.472 62.582 119.403 62.0274 119.264C61.4834 119.136 60.9767 118.949 60.5074 118.704L61.1474 117.36C61.606 117.595 62.038 117.765 62.4434 117.872C62.8487 117.989 63.2487 118.048 63.6434 118.048C64.3154 118.048 64.822 117.893 65.1634 117.584C65.5154 117.285 65.6914 116.848 65.6914 116.272V114.912C65.414 115.264 65.0567 115.541 64.6194 115.744C64.1927 115.947 63.734 116.048 63.2434 116.048ZM61.4034 111.984C61.4034 112.709 61.6327 113.317 62.0914 113.808C62.55 114.299 63.1154 114.544 63.7874 114.544C64.1714 114.544 64.5234 114.469 64.8434 114.32C65.174 114.171 65.4567 113.952 65.6914 113.664V110.304C65.4567 110.037 65.174 109.829 64.8434 109.68C64.5127 109.52 64.1607 109.44 63.7874 109.44C63.1047 109.44 62.534 109.68 62.0754 110.16C61.6274 110.64 61.4034 111.248 61.4034 111.984ZM72.1614 116.128C71.3294 116.128 70.6467 115.904 70.1134 115.456C69.5907 114.997 69.3294 114.411 69.3294 113.696C69.3294 112.981 69.6014 112.411 70.1454 111.984C70.7 111.557 71.4467 111.344 72.3854 111.344C72.7587 111.344 73.1214 111.387 73.4734 111.472C73.8254 111.547 74.1827 111.669 74.5454 111.84V110.96C74.5454 110.437 74.3907 110.043 74.0814 109.776C73.772 109.499 73.3134 109.36 72.7054 109.36C72.3747 109.36 72.0174 109.413 71.6334 109.52C71.2494 109.616 70.828 109.771 70.3694 109.984L69.7294 108.672C70.3267 108.395 70.8974 108.192 71.4414 108.064C71.9854 107.925 72.524 107.856 73.0574 107.856C74.092 107.856 74.8974 108.112 75.4734 108.624C76.0494 109.125 76.3374 109.84 76.3374 110.768V116H74.5454V115.184C74.1827 115.515 73.8094 115.755 73.4254 115.904C73.0414 116.053 72.62 116.128 72.1614 116.128ZM71.0254 113.664C71.0254 114.027 71.1747 114.32 71.4734 114.544C71.772 114.757 72.1667 114.864 72.6574 114.864C73.02 114.864 73.356 114.811 73.6654 114.704C73.9854 114.597 74.2787 114.432 74.5454 114.208V112.896C74.2574 112.757 73.964 112.661 73.6654 112.608C73.3667 112.544 73.0414 112.512 72.6894 112.512C72.1774 112.512 71.772 112.619 71.4734 112.832C71.1747 113.035 71.0254 113.312 71.0254 113.664ZM78.5263 116V107.984H80.3343V109.296C80.6329 108.827 80.9956 108.469 81.4223 108.224C81.8596 107.979 82.3449 107.856 82.8783 107.856C83.6889 107.856 84.3503 108.128 84.8623 108.672C85.3849 109.205 85.6463 109.888 85.6463 110.72V116H83.8383V111.232C83.8383 110.656 83.6783 110.192 83.3583 109.84C83.0383 109.488 82.6116 109.312 82.0783 109.312C81.7156 109.312 81.3849 109.397 81.0863 109.568C80.7983 109.728 80.5476 109.963 80.3343 110.272V116H78.5263ZM88.7348 106.352C88.4254 106.352 88.1588 106.245 87.9348 106.032C87.7214 105.819 87.6148 105.557 87.6148 105.248C87.6148 104.949 87.7268 104.688 87.9508 104.464C88.1748 104.24 88.4361 104.128 88.7348 104.128C89.0441 104.128 89.3108 104.24 89.5348 104.464C89.7588 104.688 89.8708 104.949 89.8708 105.248C89.8708 105.557 89.7588 105.819 89.5348 106.032C89.3214 106.245 89.0548 106.352 88.7348 106.352ZM89.6468 107.984V116H87.8388V107.984H89.6468ZM91.374 116V114.672L95.502 109.536L91.406 109.552V107.984H97.726V109.312L93.566 114.464L97.822 114.448V116H91.374ZM102.021 116.128C101.189 116.128 100.506 115.904 99.9728 115.456C99.4501 114.997 99.1888 114.411 99.1888 113.696C99.1888 112.981 99.4608 112.411 100.005 111.984C100.559 111.557 101.306 111.344 102.245 111.344C102.618 111.344 102.981 111.387 103.333 111.472C103.685 111.547 104.042 111.669 104.405 111.84V110.96C104.405 110.437 104.25 110.043 103.941 109.776C103.631 109.499 103.173 109.36 102.565 109.36C102.234 109.36 101.877 109.413 101.493 109.52C101.109 109.616 100.687 109.771 100.229 109.984L99.5888 108.672C100.186 108.395 100.757 108.192 101.301 108.064C101.845 107.925 102.383 107.856 102.917 107.856C103.951 107.856 104.757 108.112 105.333 108.624C105.909 109.125 106.197 109.84 106.197 110.768V116H104.405V115.184C104.042 115.515 103.669 115.755 103.285 115.904C102.901 116.053 102.479 116.128 102.021 116.128ZM100.885 113.664C100.885 114.027 101.034 114.32 101.333 114.544C101.631 114.757 102.026 114.864 102.517 114.864C102.879 114.864 103.215 114.811 103.525 114.704C103.845 114.597 104.138 114.432 104.405 114.208V112.896C104.117 112.757 103.823 112.661 103.525 112.608C103.226 112.544 102.901 112.512 102.549 112.512C102.037 112.512 101.631 112.619 101.333 112.832C101.034 113.035 100.885 113.312 100.885 113.664ZM109.143 113.888V109.424H107.527V107.984H109.143V105.776L110.951 105.392V107.984H113.191V109.424H110.951V113.488C110.951 113.883 111.037 114.165 111.207 114.336C111.378 114.496 111.666 114.576 112.071 114.576C112.253 114.576 112.418 114.565 112.567 114.544C112.727 114.512 112.925 114.459 113.159 114.384V115.904C112.925 115.979 112.663 116.032 112.375 116.064C112.098 116.107 111.842 116.128 111.607 116.128C110.807 116.128 110.194 115.941 109.767 115.568C109.351 115.184 109.143 114.624 109.143 113.888ZM115.672 106.352C115.363 106.352 115.096 106.245 114.872 106.032C114.659 105.819 114.552 105.557 114.552 105.248C114.552 104.949 114.664 104.688 114.888 104.464C115.112 104.24 115.374 104.128 115.672 104.128C115.982 104.128 116.248 104.24 116.472 104.464C116.696 104.688 116.808 104.949 116.808 105.248C116.808 105.557 116.696 105.819 116.472 106.032C116.259 106.245 115.992 106.352 115.672 106.352ZM116.584 107.984V116H114.776V107.984H116.584ZM118.44 112C118.44 111.413 118.541 110.869 118.743 110.368C118.957 109.856 119.24 109.419 119.592 109.056C119.954 108.683 120.381 108.389 120.872 108.176C121.373 107.963 121.906 107.856 122.472 107.856C123.048 107.856 123.581 107.963 124.072 108.176C124.562 108.389 124.989 108.683 125.352 109.056C125.714 109.419 125.997 109.856 126.2 110.368C126.402 110.869 126.503 111.413 126.503 112C126.503 112.587 126.397 113.136 126.184 113.648C125.981 114.16 125.698 114.603 125.336 114.976C124.984 115.339 124.557 115.627 124.056 115.84C123.565 116.053 123.037 116.16 122.472 116.16C121.906 116.16 121.373 116.053 120.872 115.84C120.381 115.627 119.954 115.333 119.592 114.96C119.24 114.587 118.957 114.149 118.743 113.648C118.541 113.136 118.44 112.587 118.44 112ZM122.472 114.592C123.122 114.592 123.656 114.347 124.072 113.856C124.498 113.365 124.712 112.752 124.712 112.016C124.712 111.259 124.498 110.635 124.072 110.144C123.645 109.653 123.112 109.408 122.472 109.408C121.821 109.408 121.282 109.653 120.856 110.144C120.44 110.635 120.232 111.259 120.232 112.016C120.232 112.763 120.44 113.381 120.856 113.872C121.282 114.352 121.821 114.592 122.472 114.592ZM128.37 116V107.984H130.178V109.296C130.477 108.827 130.839 108.469 131.266 108.224C131.703 107.979 132.189 107.856 132.722 107.856C133.533 107.856 134.194 108.128 134.706 108.672C135.229 109.205 135.49 109.888 135.49 110.72V116H133.682V111.232C133.682 110.656 133.522 110.192 133.202 109.84C132.882 109.488 132.455 109.312 131.922 109.312C131.559 109.312 131.229 109.397 130.93 109.568C130.642 109.728 130.391 109.963 130.178 110.272V116H128.37ZM141.276 116V107.984H143.084V109.296C143.383 108.827 143.746 108.469 144.172 108.224C144.61 107.979 145.095 107.856 145.628 107.856C146.439 107.856 147.1 108.128 147.612 108.672C148.135 109.205 148.396 109.888 148.396 110.72V116H146.588V111.232C146.588 110.656 146.428 110.192 146.108 109.84C145.788 109.488 145.362 109.312 144.828 109.312C144.466 109.312 144.135 109.397 143.836 109.568C143.548 109.728 143.298 109.963 143.084 110.272V116H141.276ZM152.271 107.984V112.752C152.271 113.328 152.431 113.792 152.751 114.144C153.071 114.496 153.497 114.672 154.031 114.672C154.393 114.672 154.724 114.592 155.023 114.432C155.321 114.261 155.577 114.011 155.791 113.68V107.984H157.599V116H155.791V114.672C155.492 115.141 155.124 115.504 154.687 115.76C154.26 116.005 153.775 116.128 153.231 116.128C152.42 116.128 151.753 115.861 151.231 115.328C150.719 114.795 150.463 114.107 150.463 113.264V107.984H152.271ZM159.823 116V107.984H161.631V109.264C161.93 108.805 162.276 108.459 162.671 108.224C163.076 107.979 163.524 107.856 164.015 107.856C164.548 107.856 165.023 108 165.439 108.288C165.855 108.565 166.164 108.939 166.367 109.408C166.666 108.896 167.039 108.512 167.487 108.256C167.946 107.989 168.458 107.856 169.023 107.856C169.791 107.856 170.42 108.128 170.911 108.672C171.402 109.216 171.647 109.915 171.647 110.768V116H169.839V111.152C169.839 110.597 169.69 110.155 169.391 109.824C169.103 109.483 168.714 109.312 168.223 109.312C167.892 109.312 167.594 109.392 167.327 109.552C167.06 109.712 166.82 109.947 166.607 110.256C166.618 110.341 166.623 110.427 166.623 110.512C166.634 110.597 166.639 110.683 166.639 110.768V116H164.831V111.152C164.831 110.597 164.682 110.155 164.383 109.824C164.095 109.483 163.706 109.312 163.215 109.312C162.895 109.312 162.602 109.392 162.335 109.552C162.068 109.701 161.834 109.925 161.631 110.224V116H159.823ZM181.743 112C181.743 112.565 181.647 113.099 181.455 113.6C181.263 114.101 180.996 114.533 180.655 114.896C180.313 115.259 179.913 115.547 179.455 115.76C178.996 115.973 178.505 116.08 177.983 116.08C177.513 116.08 177.071 115.984 176.655 115.792C176.249 115.6 175.903 115.323 175.615 114.96V116H173.839V104.56L175.647 104.256V109.056C175.924 108.704 176.276 108.427 176.703 108.224C177.14 108.021 177.609 107.92 178.111 107.92C178.612 107.92 179.087 108.027 179.535 108.24C179.983 108.453 180.367 108.747 180.687 109.12C181.017 109.483 181.273 109.915 181.455 110.416C181.647 110.907 181.743 111.435 181.743 112ZM177.567 109.44C177.172 109.44 176.809 109.515 176.479 109.664C176.159 109.813 175.881 110.037 175.647 110.336V113.68C175.881 113.957 176.164 114.176 176.495 114.336C176.825 114.485 177.183 114.56 177.567 114.56C178.249 114.56 178.815 114.32 179.263 113.84C179.721 113.349 179.951 112.736 179.951 112C179.951 111.275 179.721 110.667 179.263 110.176C178.804 109.685 178.239 109.44 177.567 109.44ZM190.563 114.976C190.072 115.381 189.571 115.68 189.059 115.872C188.558 116.064 187.998 116.16 187.379 116.16C186.814 116.16 186.28 116.053 185.779 115.84C185.278 115.627 184.846 115.333 184.483 114.96C184.12 114.587 183.832 114.144 183.619 113.632C183.406 113.12 183.299 112.576 183.299 112C183.299 111.413 183.395 110.869 183.587 110.368C183.79 109.856 184.062 109.419 184.403 109.056C184.755 108.683 185.171 108.389 185.651 108.176C186.131 107.963 186.648 107.856 187.203 107.856C187.747 107.856 188.248 107.963 188.707 108.176C189.176 108.379 189.576 108.661 189.907 109.024C190.248 109.387 190.515 109.824 190.707 110.336C190.899 110.837 190.995 111.387 190.995 111.984V112.432H185.075C185.16 113.061 185.427 113.584 185.875 114C186.334 114.416 186.867 114.624 187.475 114.624C187.848 114.624 188.2 114.56 188.531 114.432C188.872 114.293 189.155 114.107 189.379 113.872L190.563 114.976ZM187.187 109.328C186.654 109.328 186.2 109.509 185.827 109.872C185.454 110.235 185.214 110.72 185.107 111.328H189.283C189.176 110.741 188.931 110.261 188.547 109.888C188.174 109.515 187.72 109.328 187.187 109.328ZM192.839 116V107.984H194.647V109.728C194.86 109.12 195.153 108.656 195.527 108.336C195.911 108.005 196.353 107.84 196.855 107.84C197.004 107.851 197.137 107.867 197.255 107.888C197.372 107.909 197.5 107.947 197.639 108V109.584C197.5 109.52 197.34 109.472 197.159 109.44C196.988 109.408 196.817 109.392 196.647 109.392C196.22 109.392 195.831 109.509 195.479 109.744C195.127 109.979 194.849 110.304 194.647 110.72V116H192.839Z" fill="black"/>
<path d="M202.794 112.064C202.794 110.421 203.119 108.96 203.77 107.68C204.431 106.4 205.37 105.376 206.586 104.608L207.194 105.424C206.148 106.064 205.338 106.965 204.762 108.128C204.196 109.291 203.914 110.603 203.914 112.064C203.914 113.525 204.196 114.837 204.762 116C205.338 117.163 206.148 118.064 207.194 118.704L206.586 119.504C205.37 118.747 204.431 117.723 203.77 116.432C203.119 115.152 202.794 113.696 202.794 112.064ZM208.832 112.096C208.832 111.52 208.928 110.987 209.12 110.496C209.312 110.005 209.574 109.579 209.904 109.216C210.246 108.853 210.651 108.571 211.12 108.368C211.59 108.165 212.091 108.064 212.624 108.064C213.168 108.064 213.67 108.165 214.128 108.368C214.598 108.571 215.003 108.853 215.344 109.216C215.686 109.579 215.952 110.005 216.144 110.496C216.336 110.987 216.432 111.52 216.432 112.096C216.432 112.672 216.331 113.211 216.128 113.712C215.936 114.213 215.67 114.645 215.328 115.008C214.998 115.36 214.598 115.643 214.128 115.856C213.659 116.059 213.158 116.16 212.624 116.16C212.091 116.16 211.59 116.059 211.12 115.856C210.662 115.643 210.262 115.355 209.92 114.992C209.59 114.629 209.323 114.203 209.12 113.712C208.928 113.211 208.832 112.672 208.832 112.096ZM212.624 115.12C213.382 115.12 214.011 114.837 214.512 114.272C215.024 113.696 215.28 112.976 215.28 112.112C215.28 111.248 215.024 110.528 214.512 109.952C214.011 109.376 213.382 109.088 212.624 109.088C211.867 109.088 211.238 109.376 210.736 109.952C210.235 110.528 209.984 111.248 209.984 112.112C209.984 112.976 210.235 113.696 210.736 114.272C211.238 114.837 211.867 115.12 212.624 115.12ZM218.481 119.344V108.192H219.633V109.312C219.932 108.917 220.295 108.619 220.721 108.416C221.159 108.203 221.639 108.096 222.161 108.096C222.663 108.096 223.132 108.203 223.569 108.416C224.017 108.619 224.401 108.901 224.721 109.264C225.041 109.616 225.292 110.037 225.473 110.528C225.665 111.019 225.761 111.541 225.761 112.096C225.761 112.661 225.665 113.189 225.473 113.68C225.292 114.171 225.036 114.597 224.705 114.96C224.375 115.312 223.985 115.595 223.537 115.808C223.089 116.011 222.609 116.112 222.097 116.112C221.607 116.112 221.148 116.021 220.721 115.84C220.305 115.648 219.948 115.376 219.649 115.024V119.344H218.481ZM221.873 109.12C221.415 109.12 220.988 109.216 220.593 109.408C220.209 109.589 219.895 109.851 219.649 110.192V114.016C219.905 114.357 220.225 114.624 220.609 114.816C221.004 115.008 221.425 115.104 221.873 115.104C222.652 115.104 223.303 114.821 223.825 114.256C224.348 113.68 224.609 112.965 224.609 112.112C224.609 111.259 224.348 110.549 223.825 109.984C223.303 109.408 222.652 109.12 221.873 109.12ZM228.237 114.24V109.152H226.621V108.192H228.237V106.048L229.405 105.776V108.192H231.645V109.152H229.405V113.936C229.405 114.352 229.491 114.651 229.661 114.832C229.843 115.013 230.136 115.104 230.541 115.104C230.744 115.104 230.925 115.088 231.085 115.056C231.245 115.024 231.432 114.971 231.645 114.896V115.936C231.432 116.011 231.208 116.064 230.973 116.096C230.739 116.128 230.509 116.144 230.285 116.144C229.613 116.144 229.101 115.984 228.749 115.664C228.408 115.333 228.237 114.859 228.237 114.24ZM233.948 106.272C233.714 106.272 233.511 106.192 233.34 106.032C233.18 105.861 233.1 105.659 233.1 105.424C233.1 105.2 233.18 105.008 233.34 104.848C233.511 104.677 233.714 104.592 233.948 104.592C234.172 104.592 234.364 104.677 234.524 104.848C234.695 105.008 234.78 105.2 234.78 105.424C234.78 105.659 234.7 105.861 234.54 106.032C234.38 106.192 234.183 106.272 233.948 106.272ZM234.524 108.192V116H233.356V108.192H234.524ZM236.567 112.096C236.567 111.52 236.663 110.987 236.855 110.496C237.047 110.005 237.308 109.579 237.639 109.216C237.98 108.853 238.385 108.571 238.855 108.368C239.324 108.165 239.825 108.064 240.359 108.064C240.903 108.064 241.404 108.165 241.863 108.368C242.332 108.571 242.737 108.853 243.079 109.216C243.42 109.579 243.687 110.005 243.879 110.496C244.071 110.987 244.167 111.52 244.167 112.096C244.167 112.672 244.065 113.211 243.863 113.712C243.671 114.213 243.404 114.645 243.063 115.008C242.732 115.36 242.332 115.643 241.863 115.856C241.393 116.059 240.892 116.16 240.359 116.16C239.825 116.16 239.324 116.059 238.855 115.856C238.396 115.643 237.996 115.355 237.655 114.992C237.324 114.629 237.057 114.203 236.855 113.712C236.663 113.211 236.567 112.672 236.567 112.096ZM240.359 115.12C241.116 115.12 241.745 114.837 242.247 114.272C242.759 113.696 243.015 112.976 243.015 112.112C243.015 111.248 242.759 110.528 242.247 109.952C241.745 109.376 241.116 109.088 240.359 109.088C239.601 109.088 238.972 109.376 238.471 109.952C237.969 110.528 237.719 111.248 237.719 112.112C237.719 112.976 237.969 113.696 238.471 114.272C238.972 114.837 239.601 115.12 240.359 115.12ZM246.216 116V108.192H247.384V109.456C247.682 108.997 248.04 108.651 248.456 108.416C248.872 108.181 249.341 108.064 249.864 108.064C250.696 108.064 251.373 108.331 251.896 108.864C252.429 109.397 252.696 110.091 252.696 110.944V116H251.528V111.28C251.528 110.597 251.336 110.053 250.952 109.648C250.578 109.243 250.072 109.04 249.432 109.04C249.005 109.04 248.616 109.141 248.264 109.344C247.912 109.547 247.618 109.845 247.384 110.24V116H246.216ZM257.46 116.144C256.628 116.144 255.945 115.925 255.412 115.488C254.889 115.04 254.628 114.464 254.628 113.76C254.628 113.067 254.894 112.507 255.428 112.08C255.972 111.653 256.681 111.44 257.556 111.44C258.004 111.44 258.425 111.493 258.82 111.6C259.225 111.696 259.598 111.845 259.94 112.048V110.976C259.94 110.336 259.769 109.856 259.428 109.536C259.086 109.205 258.585 109.04 257.924 109.04C257.561 109.04 257.188 109.093 256.804 109.2C256.43 109.307 256.014 109.477 255.556 109.712L255.124 108.816C255.657 108.56 256.164 108.373 256.644 108.256C257.124 108.128 257.598 108.064 258.068 108.064C259.028 108.064 259.769 108.304 260.292 108.784C260.825 109.253 261.092 109.931 261.092 110.816V116H259.94V115.088C259.598 115.44 259.22 115.707 258.804 115.888C258.388 116.059 257.94 116.144 257.46 116.144ZM255.748 113.728C255.748 114.187 255.929 114.555 256.292 114.832C256.654 115.109 257.124 115.248 257.7 115.248C258.137 115.248 258.537 115.173 258.9 115.024C259.273 114.875 259.62 114.651 259.94 114.352V112.848C259.609 112.656 259.268 112.517 258.916 112.432C258.564 112.336 258.169 112.288 257.732 112.288C257.134 112.288 256.654 112.421 256.292 112.688C255.929 112.955 255.748 113.301 255.748 113.728ZM264.634 104.32V116H263.466V104.56L264.634 104.32ZM271.044 112.064C271.044 113.707 270.713 115.168 270.052 116.448C269.401 117.728 268.468 118.752 267.252 119.52L266.644 118.704C267.689 118.064 268.495 117.163 269.06 116C269.636 114.837 269.924 113.525 269.924 112.064C269.924 110.603 269.636 109.291 269.06 108.128C268.495 106.965 267.689 106.064 266.644 105.424L267.252 104.624C268.468 105.381 269.401 106.405 270.052 107.696C270.713 108.976 271.044 110.432 271.044 112.064Z" fill="#515151"/>
<rect x="40.5" y="126.5" width="369" height="47" rx="3.5" fill="white" stroke="black"/>
<path d="M40.096 215L44.496 203.8H46.72L51.056 215H48.992L47.856 211.864H43.248L42.096 215H40.096ZM43.808 210.36H47.296L45.568 205.592L43.808 210.36ZM57.6293 215V213.928C57.3519 214.291 56.9946 214.573 56.5573 214.776C56.1306 214.979 55.6666 215.08 55.1653 215.08C54.6639 215.08 54.1893 214.973 53.7413 214.76C53.2933 214.547 52.9039 214.259 52.5733 213.896C52.2533 213.523 51.9973 213.091 51.8053 212.6C51.6239 212.099 51.5333 211.565 51.5333 211C51.5333 210.435 51.6293 209.901 51.8213 209.4C52.0133 208.899 52.2746 208.467 52.6053 208.104C52.9466 207.741 53.3466 207.453 53.8053 207.24C54.2639 207.027 54.7546 206.92 55.2773 206.92C55.7359 206.92 56.1626 207.016 56.5573 207.208C56.9626 207.389 57.3146 207.645 57.6133 207.976V203.56L59.4213 203.256V215H57.6293ZM53.3253 211C53.3253 211.725 53.5546 212.333 54.0133 212.824C54.4719 213.315 55.0373 213.56 55.7093 213.56C56.0933 213.56 56.4453 213.485 56.7653 213.336C57.0959 213.187 57.3786 212.968 57.6133 212.68V209.304C57.3786 209.037 57.0959 208.829 56.7653 208.68C56.4346 208.52 56.0826 208.44 55.7093 208.44C55.0266 208.44 54.4559 208.685 53.9973 209.176C53.5493 209.656 53.3253 210.264 53.3253 211ZM67.3949 215V213.928C67.1175 214.291 66.7602 214.573 66.3229 214.776C65.8962 214.979 65.4322 215.08 64.9309 215.08C64.4295 215.08 63.9549 214.973 63.5069 214.76C63.0589 214.547 62.6695 214.259 62.3389 213.896C62.0189 213.523 61.7629 213.091 61.5709 212.6C61.3895 212.099 61.2989 211.565 61.2989 211C61.2989 210.435 61.3949 209.901 61.5869 209.4C61.7789 208.899 62.0402 208.467 62.3709 208.104C62.7122 207.741 63.1122 207.453 63.5709 207.24C64.0295 207.027 64.5202 206.92 65.0429 206.92C65.5015 206.92 65.9282 207.016 66.3229 207.208C66.7282 207.389 67.0802 207.645 67.3789 207.976V203.56L69.1869 203.256V215H67.3949ZM63.0909 211C63.0909 211.725 63.3202 212.333 63.7789 212.824C64.2375 213.315 64.8029 213.56 65.4749 213.56C65.8589 213.56 66.2109 213.485 66.5309 213.336C66.8615 213.187 67.1442 212.968 67.3789 212.68V209.304C67.1442 209.037 66.8615 208.829 66.5309 208.68C66.2002 208.52 65.8482 208.44 65.4749 208.44C64.7922 208.44 64.2215 208.685 63.7629 209.176C63.3149 209.656 63.0909 210.264 63.0909 211ZM71.4325 215V206.984H73.2405V208.728C73.4538 208.12 73.7472 207.656 74.1205 207.336C74.5045 207.005 74.9472 206.84 75.4485 206.84C75.5978 206.851 75.7312 206.867 75.8485 206.888C75.9658 206.909 76.0938 206.947 76.2325 207V208.584C76.0938 208.52 75.9338 208.472 75.7525 208.44C75.5818 208.408 75.4112 208.392 75.2405 208.392C74.8138 208.392 74.4245 208.509 74.0725 208.744C73.7205 208.979 73.4432 209.304 73.2405 209.72V215H71.4325ZM84.2191 213.976C83.7285 214.381 83.2271 214.68 82.7151 214.872C82.2138 215.064 81.6538 215.16 81.0351 215.16C80.4698 215.16 79.9365 215.053 79.4351 214.84C78.9338 214.627 78.5018 214.333 78.1391 213.96C77.7765 213.587 77.4885 213.144 77.2751 212.632C77.0618 212.12 76.9551 211.576 76.9551 211C76.9551 210.413 77.0511 209.869 77.2431 209.368C77.4458 208.856 77.7178 208.419 78.0591 208.056C78.4111 207.683 78.8271 207.389 79.3071 207.176C79.7871 206.963 80.3045 206.856 80.8591 206.856C81.4031 206.856 81.9045 206.963 82.3631 207.176C82.8325 207.379 83.2325 207.661 83.5631 208.024C83.9045 208.387 84.1711 208.824 84.3631 209.336C84.5551 209.837 84.6511 210.387 84.6511 210.984V211.432H78.7311C78.8165 212.061 79.0831 212.584 79.5311 213C79.9898 213.416 80.5231 213.624 81.1311 213.624C81.5045 213.624 81.8565 213.56 82.1871 213.432C82.5285 213.293 82.8111 213.107 83.0351 212.872L84.2191 213.976ZM80.8431 208.328C80.3098 208.328 79.8565 208.509 79.4831 208.872C79.1098 209.235 78.8698 209.72 78.7631 210.328H82.9391C82.8325 209.741 82.5871 209.261 82.2031 208.888C81.8298 208.515 81.3765 208.328 80.8431 208.328ZM85.8531 214.072L86.7011 212.856C87.2238 213.187 87.6825 213.421 88.0771 213.56C88.4718 213.699 88.8718 213.768 89.2771 213.768C89.7571 213.768 90.1465 213.672 90.4451 213.48C90.7438 213.277 90.8931 213.016 90.8931 212.696C90.8931 212.451 90.8025 212.259 90.6211 212.12C90.4505 211.971 90.1731 211.859 89.7891 211.784L88.3651 211.544C87.5971 211.405 87.0158 211.155 86.6211 210.792C86.2371 210.419 86.0451 209.933 86.0451 209.336C86.0451 208.589 86.3278 207.992 86.8931 207.544C87.4691 207.085 88.2211 206.856 89.1491 206.856C89.7038 206.856 90.2371 206.936 90.7491 207.096C91.2718 207.245 91.7891 207.485 92.3011 207.816L91.4531 209C91.0371 208.733 90.6318 208.541 90.2371 208.424C89.8425 208.296 89.4425 208.232 89.0371 208.232C88.6211 208.232 88.2851 208.317 88.0291 208.488C87.7838 208.648 87.6611 208.877 87.6611 209.176C87.6611 209.432 87.7411 209.624 87.9011 209.752C88.0718 209.88 88.3705 209.981 88.7971 210.056L90.2051 210.312C91.0051 210.461 91.5971 210.723 91.9811 211.096C92.3758 211.469 92.5731 211.955 92.5731 212.552C92.5731 212.915 92.4878 213.256 92.3171 213.576C92.1571 213.896 91.9278 214.173 91.6291 214.408C91.3411 214.643 90.9945 214.829 90.5891 214.968C90.1945 215.096 89.7678 215.16 89.3091 215.16C88.6158 215.16 87.9705 215.069 87.3731 214.888C86.7865 214.696 86.2798 214.424 85.8531 214.072ZM93.5719 214.072L94.4199 212.856C94.9425 213.187 95.4012 213.421 95.7959 213.56C96.1905 213.699 96.5905 213.768 96.9959 213.768C97.4759 213.768 97.8652 213.672 98.1639 213.48C98.4625 213.277 98.6119 213.016 98.6119 212.696C98.6119 212.451 98.5212 212.259 98.3399 212.12C98.1692 211.971 97.8919 211.859 97.5079 211.784L96.0839 211.544C95.3159 211.405 94.7345 211.155 94.3399 210.792C93.9559 210.419 93.7639 209.933 93.7639 209.336C93.7639 208.589 94.0465 207.992 94.6119 207.544C95.1879 207.085 95.9399 206.856 96.8679 206.856C97.4225 206.856 97.9559 206.936 98.4679 207.096C98.9905 207.245 99.5079 207.485 100.02 207.816L99.1719 209C98.7559 208.733 98.3505 208.541 97.9559 208.424C97.5612 208.296 97.1612 208.232 96.7559 208.232C96.3399 208.232 96.0039 208.317 95.7479 208.488C95.5025 208.648 95.3799 208.877 95.3799 209.176C95.3799 209.432 95.4599 209.624 95.6199 209.752C95.7905 209.88 96.0892 209.981 96.5159 210.056L97.9239 210.312C98.7239 210.461 99.3159 210.723 99.6999 211.096C100.095 211.469 100.292 211.955 100.292 212.552C100.292 212.915 100.207 213.256 100.036 213.576C99.8759 213.896 99.6465 214.173 99.3479 214.408C99.0599 214.643 98.7132 214.829 98.3079 214.968C97.9132 215.096 97.4865 215.16 97.0279 215.16C96.3345 215.16 95.6892 215.069 95.0919 214.888C94.5052 214.696 93.9985 214.424 93.5719 214.072Z" fill="black"/>
<rect x="40.5" y="225.5" width="369" height="47" rx="3.5" fill="white" stroke="black"/>
<rect x="172.5" y="281.5" width="237" height="47" rx="3.5" fill="white" stroke="black"/>
<rect x="40.5" y="281.5" width="123" height="47" rx="3.5" fill="white" stroke="black"/>
<path d="M56.592 311V310.136L63.472 300.84L56.64 300.872V299.8H65.024V300.664L58.128 309.96L65.152 309.928V311H56.592ZM67.4795 301.272C67.2448 301.272 67.0422 301.192 66.8715 301.032C66.7115 300.861 66.6315 300.659 66.6315 300.424C66.6315 300.2 66.7115 300.008 66.8715 299.848C67.0422 299.677 67.2448 299.592 67.4795 299.592C67.7035 299.592 67.8955 299.677 68.0555 299.848C68.2262 300.008 68.3115 300.2 68.3115 300.424C68.3115 300.659 68.2315 300.861 68.0715 301.032C67.9115 301.192 67.7142 301.272 67.4795 301.272ZM68.0555 303.192V311H66.8875V303.192H68.0555ZM70.45 314.344V303.192H71.602V304.312C71.9007 303.917 72.2633 303.619 72.69 303.416C73.1273 303.203 73.6073 303.096 74.13 303.096C74.6313 303.096 75.1007 303.203 75.538 303.416C75.986 303.619 76.37 303.901 76.69 304.264C77.01 304.616 77.2607 305.037 77.442 305.528C77.634 306.019 77.73 306.541 77.73 307.096C77.73 307.661 77.634 308.189 77.442 308.68C77.2607 309.171 77.0047 309.597 76.674 309.96C76.3433 310.312 75.954 310.595 75.506 310.808C75.058 311.011 74.578 311.112 74.066 311.112C73.5753 311.112 73.1167 311.021 72.69 310.84C72.274 310.648 71.9167 310.376 71.618 310.024V314.344H70.45ZM73.842 304.12C73.3833 304.12 72.9567 304.216 72.562 304.408C72.178 304.589 71.8633 304.851 71.618 305.192V309.016C71.874 309.357 72.194 309.624 72.578 309.816C72.9727 310.008 73.394 310.104 73.842 310.104C74.6207 310.104 75.2713 309.821 75.794 309.256C76.3167 308.68 76.578 307.965 76.578 307.112C76.578 306.259 76.3167 305.549 75.794 304.984C75.2713 304.408 74.6207 304.12 73.842 304.12ZM87.0805 310.088C87.5072 310.088 87.9072 310.008 88.2805 309.848C88.6645 309.688 88.9898 309.459 89.2565 309.16L89.9765 309.88C89.6032 310.275 89.1552 310.584 88.6325 310.808C88.1205 311.032 87.5818 311.144 87.0165 311.144C86.4832 311.144 85.9765 311.043 85.4965 310.84C85.0272 310.627 84.6218 310.339 84.2805 309.976C83.9392 309.613 83.6672 309.187 83.4645 308.696C83.2618 308.195 83.1605 307.661 83.1605 307.096C83.1605 306.531 83.2565 306.003 83.4485 305.512C83.6512 305.021 83.9232 304.595 84.2645 304.232C84.6165 303.869 85.0272 303.587 85.4965 303.384C85.9658 303.171 86.4725 303.064 87.0165 303.064C87.5925 303.064 88.1418 303.171 88.6645 303.384C89.1872 303.597 89.6405 303.896 90.0245 304.28L89.2725 305.096C88.9952 304.797 88.6592 304.563 88.2645 304.392C87.8698 304.211 87.4698 304.12 87.0645 304.12C86.6805 304.12 86.3178 304.2 85.9765 304.36C85.6458 304.509 85.3578 304.717 85.1125 304.984C84.8778 305.251 84.6858 305.565 84.5365 305.928C84.3978 306.291 84.3285 306.68 84.3285 307.096C84.3285 307.939 84.5952 308.648 85.1285 309.224C85.6618 309.8 86.3125 310.088 87.0805 310.088ZM91.0668 307.096C91.0668 306.52 91.1628 305.987 91.3548 305.496C91.5468 305.005 91.8081 304.579 92.1388 304.216C92.4801 303.853 92.8854 303.571 93.3548 303.368C93.8241 303.165 94.3254 303.064 94.8588 303.064C95.4028 303.064 95.9041 303.165 96.3628 303.368C96.8321 303.571 97.2374 303.853 97.5788 304.216C97.9201 304.579 98.1868 305.005 98.3788 305.496C98.5708 305.987 98.6667 306.52 98.6667 307.096C98.6667 307.672 98.5654 308.211 98.3628 308.712C98.1708 309.213 97.9041 309.645 97.5628 310.008C97.2321 310.36 96.8321 310.643 96.3628 310.856C95.8934 311.059 95.3921 311.16 94.8588 311.16C94.3254 311.16 93.8241 311.059 93.3548 310.856C92.8961 310.643 92.4961 310.355 92.1548 309.992C91.8241 309.629 91.5574 309.203 91.3548 308.712C91.1628 308.211 91.0668 307.672 91.0668 307.096ZM94.8588 310.12C95.6161 310.12 96.2454 309.837 96.7468 309.272C97.2588 308.696 97.5148 307.976 97.5148 307.112C97.5148 306.248 97.2588 305.528 96.7468 304.952C96.2454 304.376 95.6161 304.088 94.8588 304.088C94.1014 304.088 93.4721 304.376 92.9708 304.952C92.4694 305.528 92.2188 306.248 92.2188 307.112C92.2188 307.976 92.4694 308.696 92.9708 309.272C93.4721 309.837 94.1014 310.12 94.8588 310.12ZM106.475 311V309.96C106.177 310.333 105.814 310.621 105.387 310.824C104.961 311.016 104.491 311.112 103.979 311.112C103.478 311.112 103.003 311.011 102.555 310.808C102.118 310.595 101.739 310.312 101.419 309.96C101.099 309.597 100.843 309.171 100.651 308.68C100.47 308.189 100.379 307.667 100.379 307.112C100.379 306.547 100.47 306.019 100.651 305.528C100.843 305.037 101.105 304.616 101.435 304.264C101.766 303.901 102.155 303.619 102.603 303.416C103.051 303.203 103.531 303.096 104.043 303.096C104.523 303.096 104.971 303.192 105.387 303.384C105.803 303.565 106.166 303.832 106.475 304.184V299.56L107.643 299.32V311H106.475ZM101.531 307.096C101.531 307.949 101.793 308.664 102.315 309.24C102.838 309.805 103.489 310.088 104.267 310.088C104.726 310.088 105.147 309.997 105.531 309.816C105.915 309.635 106.23 309.379 106.475 309.048V305.176C106.219 304.845 105.894 304.589 105.499 304.408C105.115 304.216 104.705 304.12 104.267 304.12C103.489 304.12 102.838 304.403 102.315 304.968C101.793 305.533 101.531 306.243 101.531 307.096ZM116.492 310.104C116.044 310.456 115.58 310.717 115.1 310.888C114.62 311.059 114.108 311.144 113.564 311.144C113.02 311.144 112.508 311.043 112.028 310.84C111.558 310.627 111.148 310.339 110.796 309.976C110.454 309.613 110.182 309.187 109.98 308.696C109.788 308.195 109.692 307.661 109.692 307.096C109.692 306.531 109.782 306.003 109.964 305.512C110.156 305.011 110.417 304.584 110.748 304.232C111.078 303.869 111.468 303.587 111.916 303.384C112.364 303.171 112.849 303.064 113.372 303.064C113.884 303.064 114.358 303.165 114.796 303.368C115.233 303.571 115.612 303.848 115.932 304.2C116.252 304.541 116.502 304.957 116.684 305.448C116.865 305.928 116.956 306.445 116.956 307V307.352H110.828C110.881 308.141 111.174 308.803 111.708 309.336C112.241 309.859 112.876 310.12 113.612 310.12C114.017 310.12 114.406 310.051 114.78 309.912C115.164 309.763 115.489 309.565 115.756 309.32L116.492 310.104ZM113.356 304.072C112.716 304.072 112.166 304.301 111.708 304.76C111.249 305.219 110.966 305.805 110.86 306.52H115.804C115.718 305.816 115.446 305.235 114.988 304.776C114.54 304.307 113.996 304.072 113.356 304.072Z" fill="#515151"/>
<path d="M505.363 109.4C505.363 110.2 505.214 110.957 504.915 111.672C504.627 112.376 504.227 112.989 503.715 113.512C503.214 114.024 502.616 114.429 501.923 114.728C501.23 115.027 500.488 115.176 499.699 115.176C498.91 115.176 498.168 115.027 497.475 114.728C496.782 114.429 496.179 114.024 495.667 113.512C495.166 112.989 494.766 112.376 494.467 111.672C494.179 110.957 494.035 110.2 494.035 109.4C494.035 108.6 494.179 107.848 494.467 107.144C494.766 106.429 495.166 105.816 495.667 105.304C496.179 104.781 496.782 104.371 497.475 104.072C498.168 103.773 498.91 103.624 499.699 103.624C500.488 103.624 501.23 103.773 501.923 104.072C502.616 104.371 503.214 104.781 503.715 105.304C504.227 105.816 504.627 106.429 504.915 107.144C505.214 107.848 505.363 108.6 505.363 109.4ZM503.395 109.4C503.395 108.824 503.299 108.291 503.107 107.8C502.926 107.299 502.67 106.867 502.339 106.504C502.008 106.141 501.619 105.859 501.171 105.656C500.723 105.443 500.238 105.336 499.715 105.336C499.192 105.336 498.702 105.443 498.243 105.656C497.795 105.859 497.406 106.141 497.075 106.504C496.744 106.867 496.483 107.299 496.291 107.8C496.099 108.291 496.003 108.824 496.003 109.4C496.003 109.976 496.099 110.515 496.291 111.016C496.483 111.507 496.744 111.933 497.075 112.296C497.406 112.648 497.795 112.931 498.243 113.144C498.702 113.347 499.192 113.448 499.715 113.448C500.238 113.448 500.723 113.347 501.171 113.144C501.619 112.931 502.008 112.648 502.339 112.296C502.67 111.933 502.926 111.507 503.107 111.016C503.299 110.515 503.395 109.976 503.395 109.4ZM507.292 118.392V106.984H509.068V108.136C509.345 107.752 509.697 107.453 510.124 107.24C510.561 107.027 511.041 106.92 511.564 106.92C512.065 106.92 512.54 107.027 512.988 107.24C513.436 107.453 513.82 107.747 514.14 108.12C514.471 108.483 514.727 108.915 514.908 109.416C515.1 109.907 515.196 110.435 515.196 111C515.196 111.565 515.1 112.099 514.908 112.6C514.716 113.101 514.449 113.533 514.108 113.896C513.767 114.259 513.367 114.547 512.908 114.76C512.449 114.973 511.959 115.08 511.436 115.08C510.967 115.08 510.529 114.989 510.124 114.808C509.729 114.627 509.388 114.371 509.1 114.04V118.392H507.292ZM511.02 108.44C510.625 108.44 510.263 108.515 509.932 108.664C509.612 108.813 509.335 109.037 509.1 109.336V112.68C509.335 112.957 509.617 113.176 509.948 113.336C510.279 113.485 510.636 113.56 511.02 113.56C511.703 113.56 512.268 113.32 512.716 112.84C513.175 112.349 513.404 111.736 513.404 111C513.404 110.275 513.175 109.667 512.716 109.176C512.257 108.685 511.692 108.44 511.02 108.44ZM517.674 112.888V108.424H516.059V106.984H517.674V104.776L519.483 104.392V106.984H521.723V108.424H519.483V112.488C519.483 112.883 519.568 113.165 519.739 113.336C519.909 113.496 520.197 113.576 520.603 113.576C520.784 113.576 520.949 113.565 521.099 113.544C521.259 113.512 521.456 113.459 521.691 113.384V114.904C521.456 114.979 521.195 115.032 520.907 115.064C520.629 115.107 520.373 115.128 520.139 115.128C519.339 115.128 518.725 114.941 518.299 114.568C517.883 114.184 517.674 113.624 517.674 112.888ZM524.204 105.352C523.894 105.352 523.628 105.245 523.404 105.032C523.19 104.819 523.084 104.557 523.084 104.248C523.084 103.949 523.196 103.688 523.42 103.464C523.644 103.24 523.905 103.128 524.204 103.128C524.513 103.128 524.78 103.24 525.004 103.464C525.228 103.688 525.34 103.949 525.34 104.248C525.34 104.557 525.228 104.819 525.004 105.032C524.79 105.245 524.524 105.352 524.204 105.352ZM525.116 106.984V115H523.308V106.984H525.116ZM526.971 111C526.971 110.413 527.072 109.869 527.275 109.368C527.488 108.856 527.771 108.419 528.123 108.056C528.485 107.683 528.912 107.389 529.403 107.176C529.904 106.963 530.437 106.856 531.003 106.856C531.579 106.856 532.112 106.963 532.603 107.176C533.093 107.389 533.52 107.683 533.883 108.056C534.245 108.419 534.528 108.856 534.731 109.368C534.933 109.869 535.035 110.413 535.035 111C535.035 111.587 534.928 112.136 534.715 112.648C534.512 113.16 534.229 113.603 533.867 113.976C533.515 114.339 533.088 114.627 532.587 114.84C532.096 115.053 531.568 115.16 531.003 115.16C530.437 115.16 529.904 115.053 529.403 114.84C528.912 114.627 528.485 114.333 528.123 113.96C527.771 113.587 527.488 113.149 527.275 112.648C527.072 112.136 526.971 111.587 526.971 111ZM531.003 113.592C531.653 113.592 532.187 113.347 532.603 112.856C533.029 112.365 533.243 111.752 533.243 111.016C533.243 110.259 533.029 109.635 532.603 109.144C532.176 108.653 531.643 108.408 531.003 108.408C530.352 108.408 529.813 108.653 529.387 109.144C528.971 109.635 528.763 110.259 528.763 111.016C528.763 111.763 528.971 112.381 529.387 112.872C529.813 113.352 530.352 113.592 531.003 113.592ZM536.901 115V106.984H538.709V108.296C539.008 107.827 539.371 107.469 539.797 107.224C540.235 106.979 540.72 106.856 541.253 106.856C542.064 106.856 542.725 107.128 543.237 107.672C543.76 108.205 544.021 108.888 544.021 109.72V115H542.213V110.232C542.213 109.656 542.053 109.192 541.733 108.84C541.413 108.488 540.987 108.312 540.453 108.312C540.091 108.312 539.76 108.397 539.461 108.568C539.173 108.728 538.923 108.963 538.709 109.272V115H536.901ZM548.646 115.128C547.814 115.128 547.131 114.904 546.598 114.456C546.075 113.997 545.814 113.411 545.814 112.696C545.814 111.981 546.086 111.411 546.63 110.984C547.184 110.557 547.931 110.344 548.87 110.344C549.243 110.344 549.606 110.387 549.958 110.472C550.31 110.547 550.667 110.669 551.03 110.84V109.96C551.03 109.437 550.875 109.043 550.566 108.776C550.256 108.499 549.798 108.36 549.19 108.36C548.859 108.36 548.502 108.413 548.118 108.52C547.734 108.616 547.312 108.771 546.854 108.984L546.214 107.672C546.811 107.395 547.382 107.192 547.926 107.064C548.47 106.925 549.008 106.856 549.542 106.856C550.576 106.856 551.382 107.112 551.958 107.624C552.534 108.125 552.822 108.84 552.822 109.768V115H551.03V114.184C550.667 114.515 550.294 114.755 549.91 114.904C549.526 115.053 549.104 115.128 548.646 115.128ZM547.51 112.664C547.51 113.027 547.659 113.32 547.958 113.544C548.256 113.757 548.651 113.864 549.142 113.864C549.504 113.864 549.84 113.811 550.15 113.704C550.47 113.597 550.763 113.432 551.03 113.208V111.896C550.742 111.757 550.448 111.661 550.15 111.608C549.851 111.544 549.526 111.512 549.174 111.512C548.662 111.512 548.256 111.619 547.958 111.832C547.659 112.035 547.51 112.312 547.51 112.664ZM556.819 103.256V115H555.011V103.56L556.819 103.256ZM561.996 106.984H563.724V105.56C563.724 104.696 563.958 104.035 564.428 103.576C564.908 103.107 565.596 102.872 566.492 102.872C566.705 102.872 566.918 102.888 567.132 102.92C567.356 102.952 567.542 102.989 567.692 103.032V104.568C567.489 104.525 567.318 104.493 567.18 104.472C567.041 104.451 566.892 104.44 566.732 104.44C566.316 104.44 566.012 104.536 565.82 104.728C565.628 104.909 565.532 105.197 565.532 105.592V106.984H567.692V108.424H565.532V115H563.724V108.424H561.996V106.984ZM570.11 105.352C569.8 105.352 569.534 105.245 569.31 105.032C569.096 104.819 568.99 104.557 568.99 104.248C568.99 103.949 569.102 103.688 569.326 103.464C569.55 103.24 569.811 103.128 570.11 103.128C570.419 103.128 570.686 103.24 570.91 103.464C571.134 103.688 571.246 103.949 571.246 104.248C571.246 104.557 571.134 104.819 570.91 105.032C570.696 105.245 570.43 105.352 570.11 105.352ZM571.022 106.984V115H569.214V106.984H571.022ZM580.141 113.976C579.65 114.381 579.149 114.68 578.637 114.872C578.136 115.064 577.576 115.16 576.957 115.16C576.392 115.16 575.858 115.053 575.357 114.84C574.856 114.627 574.424 114.333 574.061 113.96C573.698 113.587 573.41 113.144 573.197 112.632C572.984 112.12 572.877 111.576 572.877 111C572.877 110.413 572.973 109.869 573.165 109.368C573.368 108.856 573.64 108.419 573.981 108.056C574.333 107.683 574.749 107.389 575.229 107.176C575.709 106.963 576.226 106.856 576.781 106.856C577.325 106.856 577.826 106.963 578.285 107.176C578.754 107.379 579.154 107.661 579.485 108.024C579.826 108.387 580.093 108.824 580.285 109.336C580.477 109.837 580.573 110.387 580.573 110.984V111.432H574.653C574.738 112.061 575.005 112.584 575.453 113C575.912 113.416 576.445 113.624 577.053 113.624C577.426 113.624 577.778 113.56 578.109 113.432C578.45 113.293 578.733 113.107 578.957 112.872L580.141 113.976ZM576.765 108.328C576.232 108.328 575.778 108.509 575.405 108.872C575.032 109.235 574.792 109.72 574.685 110.328H578.861C578.754 109.741 578.509 109.261 578.125 108.888C577.752 108.515 577.298 108.328 576.765 108.328ZM584.225 103.256V115H582.417V103.56L584.225 103.256ZM592.176 115V113.928C591.899 114.291 591.541 114.573 591.104 114.776C590.677 114.979 590.213 115.08 589.712 115.08C589.211 115.08 588.736 114.973 588.288 114.76C587.84 114.547 587.451 114.259 587.12 113.896C586.8 113.523 586.544 113.091 586.352 112.6C586.171 112.099 586.08 111.565 586.08 111C586.08 110.435 586.176 109.901 586.368 109.4C586.56 108.899 586.821 108.467 587.152 108.104C587.493 107.741 587.893 107.453 588.352 107.24C588.811 107.027 589.301 106.92 589.824 106.92C590.283 106.92 590.709 107.016 591.104 107.208C591.509 107.389 591.861 107.645 592.16 107.976V103.56L593.968 103.256V115H592.176ZM587.872 111C587.872 111.725 588.101 112.333 588.56 112.824C589.019 113.315 589.584 113.56 590.256 113.56C590.64 113.56 590.992 113.485 591.312 113.336C591.643 113.187 591.925 112.968 592.16 112.68V109.304C591.925 109.037 591.643 108.829 591.312 108.68C590.981 108.52 590.629 108.44 590.256 108.44C589.573 108.44 589.003 108.685 588.544 109.176C588.096 109.656 587.872 110.264 587.872 111ZM595.494 114.072L596.342 112.856C596.864 113.187 597.323 113.421 597.718 113.56C598.112 113.699 598.512 113.768 598.918 113.768C599.398 113.768 599.787 113.672 600.086 113.48C600.384 113.277 600.534 113.016 600.534 112.696C600.534 112.451 600.443 112.259 600.262 112.12C600.091 111.971 599.814 111.859 599.43 111.784L598.006 111.544C597.238 111.405 596.656 111.155 596.262 110.792C595.878 110.419 595.686 109.933 595.686 109.336C595.686 108.589 595.968 107.992 596.534 107.544C597.11 107.085 597.862 106.856 598.79 106.856C599.344 106.856 599.878 106.936 600.39 107.096C600.912 107.245 601.43 107.485 601.942 107.816L601.094 109C600.678 108.733 600.272 108.541 599.878 108.424C599.483 108.296 599.083 108.232 598.678 108.232C598.262 108.232 597.926 108.317 597.67 108.488C597.424 108.648 597.302 108.877 597.302 109.176C597.302 109.432 597.382 109.624 597.542 109.752C597.712 109.88 598.011 109.981 598.438 110.056L599.846 110.312C600.646 110.461 601.238 110.723 601.622 111.096C602.016 111.469 602.214 111.955 602.214 112.552C602.214 112.915 602.128 113.256 601.958 113.576C601.798 113.896 601.568 114.173 601.27 114.408C600.982 114.643 600.635 114.829 600.23 114.968C599.835 115.096 599.408 115.16 598.95 115.16C598.256 115.16 597.611 115.069 597.014 114.888C596.427 114.696 595.92 114.424 595.494 114.072ZM609.896 115.128C609.064 115.128 608.381 114.904 607.848 114.456C607.325 113.997 607.064 113.411 607.064 112.696C607.064 111.981 607.336 111.411 607.88 110.984C608.434 110.557 609.181 110.344 610.12 110.344C610.493 110.344 610.856 110.387 611.208 110.472C611.56 110.547 611.917 110.669 612.28 110.84V109.96C612.28 109.437 612.125 109.043 611.816 108.776C611.506 108.499 611.048 108.36 610.44 108.36C610.109 108.36 609.752 108.413 609.368 108.52C608.984 108.616 608.562 108.771 608.104 108.984L607.464 107.672C608.061 107.395 608.632 107.192 609.176 107.064C609.72 106.925 610.258 106.856 610.792 106.856C611.826 106.856 612.632 107.112 613.208 107.624C613.784 108.125 614.072 108.84 614.072 109.768V115H612.28V114.184C611.917 114.515 611.544 114.755 611.16 114.904C610.776 115.053 610.354 115.128 609.896 115.128ZM608.76 112.664C608.76 113.027 608.909 113.32 609.208 113.544C609.506 113.757 609.901 113.864 610.392 113.864C610.754 113.864 611.09 113.811 611.4 113.704C611.72 113.597 612.013 113.432 612.28 113.208V111.896C611.992 111.757 611.698 111.661 611.4 111.608C611.101 111.544 610.776 111.512 610.424 111.512C609.912 111.512 609.506 111.619 609.208 111.832C608.909 112.035 608.76 112.312 608.76 112.664ZM616.261 115V106.984H618.069V108.728C618.282 108.12 618.575 107.656 618.949 107.336C619.333 107.005 619.775 106.84 620.277 106.84C620.426 106.851 620.559 106.867 620.677 106.888C620.794 106.909 620.922 106.947 621.061 107V108.584C620.922 108.52 620.762 108.472 620.581 108.44C620.41 108.408 620.239 108.392 620.069 108.392C619.642 108.392 619.253 108.509 618.901 108.744C618.549 108.979 618.271 109.304 618.069 109.72V115H616.261ZM629.047 113.976C628.557 114.381 628.055 114.68 627.543 114.872C627.042 115.064 626.482 115.16 625.863 115.16C625.298 115.16 624.765 115.053 624.263 114.84C623.762 114.627 623.33 114.333 622.967 113.96C622.605 113.587 622.317 113.144 622.103 112.632C621.89 112.12 621.783 111.576 621.783 111C621.783 110.413 621.879 109.869 622.071 109.368C622.274 108.856 622.546 108.419 622.887 108.056C623.239 107.683 623.655 107.389 624.135 107.176C624.615 106.963 625.133 106.856 625.687 106.856C626.231 106.856 626.733 106.963 627.191 107.176C627.661 107.379 628.061 107.661 628.391 108.024C628.733 108.387 628.999 108.824 629.191 109.336C629.383 109.837 629.479 110.387 629.479 110.984V111.432H623.559C623.645 112.061 623.911 112.584 624.359 113C624.818 113.416 625.351 113.624 625.959 113.624C626.333 113.624 626.685 113.56 627.015 113.432C627.357 113.293 627.639 113.107 627.863 112.872L629.047 113.976ZM625.671 108.328C625.138 108.328 624.685 108.509 624.311 108.872C623.938 109.235 623.698 109.72 623.591 110.328H627.767C627.661 109.741 627.415 109.261 627.031 108.888C626.658 108.515 626.205 108.328 625.671 108.328ZM634.917 115V106.984H636.725V108.264C637.024 107.805 637.37 107.459 637.765 107.224C638.17 106.979 638.618 106.856 639.109 106.856C639.642 106.856 640.117 107 640.533 107.288C640.949 107.565 641.258 107.939 641.461 108.408C641.76 107.896 642.133 107.512 642.581 107.256C643.04 106.989 643.552 106.856 644.117 106.856C644.885 106.856 645.514 107.128 646.005 107.672C646.496 108.216 646.741 108.915 646.741 109.768V115H644.933V110.152C644.933 109.597 644.784 109.155 644.485 108.824C644.197 108.483 643.808 108.312 643.317 108.312C642.986 108.312 642.688 108.392 642.421 108.552C642.154 108.712 641.914 108.947 641.701 109.256C641.712 109.341 641.717 109.427 641.717 109.512C641.728 109.597 641.733 109.683 641.733 109.768V115H639.925V110.152C639.925 109.597 639.776 109.155 639.477 108.824C639.189 108.483 638.8 108.312 638.309 108.312C637.989 108.312 637.696 108.392 637.429 108.552C637.162 108.701 636.928 108.925 636.725 109.224V115H634.917ZM651.365 115.128C650.533 115.128 649.85 114.904 649.317 114.456C648.794 113.997 648.533 113.411 648.533 112.696C648.533 111.981 648.805 111.411 649.349 110.984C649.903 110.557 650.65 110.344 651.589 110.344C651.962 110.344 652.325 110.387 652.677 110.472C653.029 110.547 653.386 110.669 653.749 110.84V109.96C653.749 109.437 653.594 109.043 653.285 108.776C652.975 108.499 652.517 108.36 651.909 108.36C651.578 108.36 651.221 108.413 650.837 108.52C650.453 108.616 650.031 108.771 649.573 108.984L648.933 107.672C649.53 107.395 650.101 107.192 650.645 107.064C651.189 106.925 651.727 106.856 652.261 106.856C653.295 106.856 654.101 107.112 654.677 107.624C655.253 108.125 655.541 108.84 655.541 109.768V115H653.749V114.184C653.386 114.515 653.013 114.755 652.629 114.904C652.245 115.053 651.823 115.128 651.365 115.128ZM650.229 112.664C650.229 113.027 650.378 113.32 650.677 113.544C650.975 113.757 651.37 113.864 651.861 113.864C652.223 113.864 652.559 113.811 652.869 113.704C653.189 113.597 653.482 113.432 653.749 113.208V111.896C653.461 111.757 653.167 111.661 652.869 111.608C652.57 111.544 652.245 111.512 651.893 111.512C651.381 111.512 650.975 111.619 650.677 111.832C650.378 112.035 650.229 112.312 650.229 112.664ZM657.729 115V106.984H659.537V108.728C659.751 108.12 660.044 107.656 660.417 107.336C660.801 107.005 661.244 106.84 661.745 106.84C661.895 106.851 662.028 106.867 662.145 106.888C662.263 106.909 662.391 106.947 662.529 107V108.584C662.391 108.52 662.231 108.472 662.049 108.44C661.879 108.408 661.708 108.392 661.537 108.392C661.111 108.392 660.721 108.509 660.369 108.744C660.017 108.979 659.74 109.304 659.537 109.72V115H657.729ZM664.011 115V103.56L665.819 103.256V110.408L669.147 106.984H671.211L667.547 110.696L671.435 115H669.115L665.819 111.304V115H664.011ZM679.032 113.976C678.541 114.381 678.04 114.68 677.528 114.872C677.026 115.064 676.466 115.16 675.848 115.16C675.282 115.16 674.749 115.053 674.248 114.84C673.746 114.627 673.314 114.333 672.952 113.96C672.589 113.587 672.301 113.144 672.088 112.632C671.874 112.12 671.768 111.576 671.768 111C671.768 110.413 671.864 109.869 672.056 109.368C672.258 108.856 672.53 108.419 672.872 108.056C673.224 107.683 673.64 107.389 674.12 107.176C674.6 106.963 675.117 106.856 675.672 106.856C676.216 106.856 676.717 106.963 677.176 107.176C677.645 107.379 678.045 107.661 678.376 108.024C678.717 108.387 678.984 108.824 679.176 109.336C679.368 109.837 679.464 110.387 679.464 110.984V111.432H673.544C673.629 112.061 673.896 112.584 674.344 113C674.802 113.416 675.336 113.624 675.944 113.624C676.317 113.624 676.669 113.56 677 113.432C677.341 113.293 677.624 113.107 677.848 112.872L679.032 113.976ZM675.656 108.328C675.122 108.328 674.669 108.509 674.296 108.872C673.922 109.235 673.682 109.72 673.576 110.328H677.752C677.645 109.741 677.4 109.261 677.016 108.888C676.642 108.515 676.189 108.328 675.656 108.328ZM687.082 115V113.928C686.805 114.291 686.448 114.573 686.01 114.776C685.584 114.979 685.12 115.08 684.618 115.08C684.117 115.08 683.642 114.973 683.194 114.76C682.746 114.547 682.357 114.259 682.026 113.896C681.706 113.523 681.45 113.091 681.258 112.6C681.077 112.099 680.986 111.565 680.986 111C680.986 110.435 681.082 109.901 681.274 109.4C681.466 108.899 681.728 108.467 682.058 108.104C682.4 107.741 682.8 107.453 683.258 107.24C683.717 107.027 684.208 106.92 684.73 106.92C685.189 106.92 685.616 107.016 686.01 107.208C686.416 107.389 686.768 107.645 687.066 107.976V103.56L688.874 103.256V115H687.082ZM682.778 111C682.778 111.725 683.008 112.333 683.466 112.824C683.925 113.315 684.49 113.56 685.162 113.56C685.546 113.56 685.898 113.485 686.218 113.336C686.549 113.187 686.832 112.968 687.066 112.68V109.304C686.832 109.037 686.549 108.829 686.218 108.68C685.888 108.52 685.536 108.44 685.162 108.44C684.48 108.44 683.909 108.685 683.45 109.176C683.002 109.656 682.778 110.264 682.778 111Z" fill="black"/>
<path d="M12.16 395.4C12.16 396.2 12.0107 396.957 11.712 397.672C11.424 398.376 11.024 398.989 10.512 399.512C10.0107 400.024 9.41333 400.429 8.72 400.728C8.02667 401.027 7.28533 401.176 6.496 401.176C5.70667 401.176 4.96533 401.027 4.272 400.728C3.57867 400.429 2.976 400.024 2.464 399.512C1.96267 398.989 1.56267 398.376 1.264 397.672C0.976 396.957 0.832 396.2 0.832 395.4C0.832 394.6 0.976 393.848 1.264 393.144C1.56267 392.429 1.96267 391.816 2.464 391.304C2.976 390.781 3.57867 390.371 4.272 390.072C4.96533 389.773 5.70667 389.624 6.496 389.624C7.28533 389.624 8.02667 389.773 8.72 390.072C9.41333 390.371 10.0107 390.781 10.512 391.304C11.024 391.816 11.424 392.429 11.712 393.144C12.0107 393.848 12.16 394.6 12.16 395.4ZM10.192 395.4C10.192 394.824 10.096 394.291 9.904 393.8C9.72267 393.299 9.46667 392.867 9.136 392.504C8.80533 392.141 8.416 391.859 7.968 391.656C7.52 391.443 7.03467 391.336 6.512 391.336C5.98933 391.336 5.49867 391.443 5.04 391.656C4.592 391.859 4.20267 392.141 3.872 392.504C3.54133 392.867 3.28 393.299 3.088 393.8C2.896 394.291 2.8 394.824 2.8 395.4C2.8 395.976 2.896 396.515 3.088 397.016C3.28 397.507 3.54133 397.933 3.872 398.296C4.20267 398.648 4.592 398.931 5.04 399.144C5.49867 399.347 5.98933 399.448 6.512 399.448C7.03467 399.448 7.52 399.347 7.968 399.144C8.416 398.931 8.80533 398.648 9.136 398.296C9.46667 397.933 9.72267 397.507 9.904 397.016C10.096 396.515 10.192 395.976 10.192 395.4ZM14.0888 401V392.984H15.8968V394.296C16.1954 393.827 16.5581 393.469 16.9848 393.224C17.4221 392.979 17.9074 392.856 18.4408 392.856C19.2514 392.856 19.9128 393.128 20.4248 393.672C20.9474 394.205 21.2088 394.888 21.2088 395.72V401H19.4008V396.232C19.4008 395.656 19.2408 395.192 18.9208 394.84C18.6008 394.488 18.1741 394.312 17.6408 394.312C17.2781 394.312 16.9474 394.397 16.6488 394.568C16.3608 394.728 16.1101 394.963 15.8968 395.272V401H14.0888ZM30.2973 399.976C29.8066 400.381 29.3053 400.68 28.7933 400.872C28.2919 401.064 27.7319 401.16 27.1133 401.16C26.5479 401.16 26.0146 401.053 25.5133 400.84C25.0119 400.627 24.5799 400.333 24.2173 399.96C23.8546 399.587 23.5666 399.144 23.3533 398.632C23.1399 398.12 23.0333 397.576 23.0333 397C23.0333 396.413 23.1293 395.869 23.3213 395.368C23.5239 394.856 23.7959 394.419 24.1373 394.056C24.4893 393.683 24.9053 393.389 25.3853 393.176C25.8653 392.963 26.3826 392.856 26.9373 392.856C27.4813 392.856 27.9826 392.963 28.4413 393.176C28.9106 393.379 29.3106 393.661 29.6413 394.024C29.9826 394.387 30.2493 394.824 30.4413 395.336C30.6333 395.837 30.7292 396.387 30.7292 396.984V397.432H24.8093C24.8946 398.061 25.1613 398.584 25.6093 399C26.0679 399.416 26.6013 399.624 27.2093 399.624C27.5826 399.624 27.9346 399.56 28.2653 399.432C28.6066 399.293 28.8893 399.107 29.1133 398.872L30.2973 399.976ZM26.9213 394.328C26.3879 394.328 25.9346 394.509 25.5613 394.872C25.1879 395.235 24.9479 395.72 24.8413 396.328H29.0173C28.9106 395.741 28.6653 395.261 28.2813 394.888C27.9079 394.515 27.4546 394.328 26.9213 394.328ZM39.9589 399.56C40.3429 399.56 40.7002 399.485 41.0309 399.336C41.3722 399.187 41.6602 398.968 41.8949 398.68L42.9829 399.768C42.6095 400.195 42.1455 400.536 41.5909 400.792C41.0362 401.037 40.4549 401.16 39.8469 401.16C39.2815 401.16 38.7482 401.053 38.2469 400.84C37.7562 400.627 37.3295 400.333 36.9669 399.96C36.6042 399.587 36.3162 399.144 36.1029 398.632C35.9002 398.12 35.7989 397.576 35.7989 397C35.7989 396.424 35.9002 395.885 36.1029 395.384C36.3162 394.872 36.6042 394.435 36.9669 394.072C37.3295 393.699 37.7562 393.405 38.2469 393.192C38.7482 392.979 39.2815 392.872 39.8469 392.872C40.4655 392.872 41.0522 392.989 41.6069 393.224C42.1722 393.459 42.6522 393.789 43.0469 394.216L41.9269 395.384C41.6495 395.075 41.3402 394.84 40.9989 394.68C40.6575 394.52 40.2949 394.44 39.9109 394.44C39.2709 394.44 38.7269 394.691 38.2789 395.192C37.8309 395.683 37.6069 396.285 37.6069 397C37.6069 397.725 37.8309 398.333 38.2789 398.824C38.7269 399.315 39.2869 399.56 39.9589 399.56ZM43.9395 397C43.9395 396.413 44.0408 395.869 44.2435 395.368C44.4568 394.856 44.7395 394.419 45.0915 394.056C45.4542 393.683 45.8808 393.389 46.3715 393.176C46.8728 392.963 47.4062 392.856 47.9715 392.856C48.5475 392.856 49.0808 392.963 49.5715 393.176C50.0622 393.389 50.4888 393.683 50.8515 394.056C51.2142 394.419 51.4968 394.856 51.6995 395.368C51.9022 395.869 52.0035 396.413 52.0035 397C52.0035 397.587 51.8968 398.136 51.6835 398.648C51.4808 399.16 51.1982 399.603 50.8355 399.976C50.4835 400.339 50.0568 400.627 49.5555 400.84C49.0648 401.053 48.5368 401.16 47.9715 401.16C47.4062 401.16 46.8728 401.053 46.3715 400.84C45.8808 400.627 45.4542 400.333 45.0915 399.96C44.7395 399.587 44.4568 399.149 44.2435 398.648C44.0408 398.136 43.9395 397.587 43.9395 397ZM47.9715 399.592C48.6222 399.592 49.1555 399.347 49.5715 398.856C49.9982 398.365 50.2115 397.752 50.2115 397.016C50.2115 396.259 49.9982 395.635 49.5715 395.144C49.1448 394.653 48.6115 394.408 47.9715 394.408C47.3208 394.408 46.7822 394.653 46.3555 395.144C45.9395 395.635 45.7315 396.259 45.7315 397.016C45.7315 397.763 45.9395 398.381 46.3555 398.872C46.7822 399.352 47.3208 399.592 47.9715 399.592ZM55.678 389.256V401H53.87V389.56L55.678 389.256ZM59.6613 392.984V397.752C59.6613 398.328 59.8213 398.792 60.1413 399.144C60.4613 399.496 60.8879 399.672 61.4213 399.672C61.7839 399.672 62.1146 399.592 62.4133 399.432C62.7119 399.261 62.9679 399.011 63.1813 398.68V392.984H64.9893V401H63.1813V399.672C62.8826 400.141 62.5146 400.504 62.0773 400.76C61.6506 401.005 61.1653 401.128 60.6213 401.128C59.8106 401.128 59.1439 400.861 58.6213 400.328C58.1093 399.795 57.8533 399.107 57.8533 398.264V392.984H59.6613ZM67.2138 401V392.984H69.0218V394.264C69.3204 393.805 69.6671 393.459 70.0618 393.224C70.4671 392.979 70.9151 392.856 71.4058 392.856C71.9391 392.856 72.4138 393 72.8298 393.288C73.2458 393.565 73.5551 393.939 73.7578 394.408C74.0564 393.896 74.4298 393.512 74.8778 393.256C75.3364 392.989 75.8484 392.856 76.4138 392.856C77.1818 392.856 77.8111 393.128 78.3018 393.672C78.7924 394.216 79.0378 394.915 79.0378 395.768V401H77.2298V396.152C77.2298 395.597 77.0804 395.155 76.7818 394.824C76.4938 394.483 76.1044 394.312 75.6138 394.312C75.2831 394.312 74.9844 394.392 74.7178 394.552C74.4511 394.712 74.2111 394.947 73.9978 395.256C74.0084 395.341 74.0138 395.427 74.0138 395.512C74.0244 395.597 74.0298 395.683 74.0298 395.768V401H72.2218V396.152C72.2218 395.597 72.0724 395.155 71.7738 394.824C71.4858 394.483 71.0964 394.312 70.6058 394.312C70.2858 394.312 69.9924 394.392 69.7258 394.552C69.4591 394.701 69.2244 394.925 69.0218 395.224V401H67.2138ZM81.2294 401V392.984H83.0374V394.296C83.336 393.827 83.6987 393.469 84.1254 393.224C84.5627 392.979 85.048 392.856 85.5814 392.856C86.392 392.856 87.0534 393.128 87.5654 393.672C88.088 394.205 88.3494 394.888 88.3494 395.72V401H86.5414V396.232C86.5414 395.656 86.3814 395.192 86.0614 394.84C85.7414 394.488 85.3147 394.312 84.7814 394.312C84.4187 394.312 84.088 394.397 83.7894 394.568C83.5014 394.728 83.2507 394.963 83.0374 395.272V401H81.2294Z" fill="black"/>
<path d="M494.344 297V285.8H496.264V295.336H502.232V297H494.344ZM510.719 295.976C510.228 296.381 509.727 296.68 509.215 296.872C508.714 297.064 508.154 297.16 507.535 297.16C506.97 297.16 506.436 297.053 505.935 296.84C505.434 296.627 505.002 296.333 504.639 295.96C504.276 295.587 503.988 295.144 503.775 294.632C503.562 294.12 503.455 293.576 503.455 293C503.455 292.413 503.551 291.869 503.743 291.368C503.946 290.856 504.218 290.419 504.559 290.056C504.911 289.683 505.327 289.389 505.807 289.176C506.287 288.963 506.804 288.856 507.359 288.856C507.903 288.856 508.404 288.963 508.863 289.176C509.332 289.379 509.732 289.661 510.063 290.024C510.404 290.387 510.671 290.824 510.863 291.336C511.055 291.837 511.151 292.387 511.151 292.984V293.432H505.231C505.316 294.061 505.583 294.584 506.031 295C506.49 295.416 507.023 295.624 507.631 295.624C508.004 295.624 508.356 295.56 508.687 295.432C509.028 295.293 509.311 295.107 509.535 294.872L510.719 295.976ZM507.343 290.328C506.81 290.328 506.356 290.509 505.983 290.872C505.61 291.235 505.37 291.72 505.263 292.328H509.439C509.332 291.741 509.087 291.261 508.703 290.888C508.33 290.515 507.876 290.328 507.343 290.328ZM512.995 297V288.984H514.803V290.296C515.102 289.827 515.464 289.469 515.891 289.224C516.328 288.979 516.814 288.856 517.347 288.856C518.158 288.856 518.819 289.128 519.331 289.672C519.854 290.205 520.115 290.888 520.115 291.72V297H518.307V292.232C518.307 291.656 518.147 291.192 517.827 290.84C517.507 290.488 517.08 290.312 516.547 290.312C516.184 290.312 515.854 290.397 515.555 290.568C515.267 290.728 515.016 290.963 514.803 291.272V297H512.995ZM525.572 297.048C525.07 297.048 524.596 296.941 524.148 296.728C523.7 296.515 523.31 296.227 522.98 295.864C522.66 295.501 522.404 295.075 522.212 294.584C522.03 294.083 521.94 293.549 521.94 292.984C521.94 292.419 522.036 291.885 522.228 291.384C522.42 290.883 522.681 290.451 523.012 290.088C523.353 289.725 523.753 289.443 524.212 289.24C524.67 289.027 525.161 288.92 525.684 288.92C526.142 288.92 526.574 289.016 526.98 289.208C527.385 289.389 527.737 289.656 528.036 290.008V288.984H529.828V297.272C529.828 298.296 529.497 299.085 528.836 299.64C528.185 300.195 527.257 300.472 526.052 300.472C525.476 300.472 524.91 300.403 524.356 300.264C523.812 300.136 523.305 299.949 522.836 299.704L523.476 298.36C523.934 298.595 524.366 298.765 524.772 298.872C525.177 298.989 525.577 299.048 525.972 299.048C526.644 299.048 527.15 298.893 527.492 298.584C527.844 298.285 528.02 297.848 528.02 297.272V295.912C527.742 296.264 527.385 296.541 526.948 296.744C526.521 296.947 526.062 297.048 525.572 297.048ZM523.732 292.984C523.732 293.709 523.961 294.317 524.42 294.808C524.878 295.299 525.444 295.544 526.116 295.544C526.5 295.544 526.852 295.469 527.172 295.32C527.502 295.171 527.785 294.952 528.02 294.664V291.304C527.785 291.037 527.502 290.829 527.172 290.68C526.841 290.52 526.489 290.44 526.116 290.44C525.433 290.44 524.862 290.68 524.404 291.16C523.956 291.64 523.732 292.248 523.732 292.984ZM533.049 294.888V290.424H531.434V288.984H533.049V286.776L534.858 286.392V288.984H537.098V290.424H534.858V294.488C534.858 294.883 534.943 295.165 535.114 295.336C535.284 295.496 535.572 295.576 535.978 295.576C536.159 295.576 536.324 295.565 536.474 295.544C536.634 295.512 536.831 295.459 537.066 295.384V296.904C536.831 296.979 536.57 297.032 536.282 297.064C536.004 297.107 535.748 297.128 535.514 297.128C534.714 297.128 534.1 296.941 533.674 296.568C533.258 296.184 533.049 295.624 533.049 294.888ZM538.683 297V285.56L540.491 285.256V290.296C540.789 289.827 541.152 289.469 541.579 289.224C542.016 288.979 542.501 288.856 543.035 288.856C543.845 288.856 544.507 289.128 545.019 289.672C545.541 290.205 545.803 290.888 545.803 291.72V297H543.995V292.232C543.995 291.656 543.835 291.192 543.515 290.84C543.195 290.488 542.768 290.312 542.235 290.312C541.872 290.312 541.541 290.397 541.243 290.568C540.955 290.728 540.704 290.963 540.491 291.272V297H538.683ZM551.221 293C551.221 292.413 551.322 291.869 551.525 291.368C551.738 290.856 552.021 290.419 552.373 290.056C552.735 289.683 553.162 289.389 553.653 289.176C554.154 288.963 554.687 288.856 555.253 288.856C555.829 288.856 556.362 288.963 556.853 289.176C557.343 289.389 557.77 289.683 558.133 290.056C558.495 290.419 558.778 290.856 558.981 291.368C559.183 291.869 559.285 292.413 559.285 293C559.285 293.587 559.178 294.136 558.965 294.648C558.762 295.16 558.479 295.603 558.117 295.976C557.765 296.339 557.338 296.627 556.837 296.84C556.346 297.053 555.818 297.16 555.253 297.16C554.687 297.16 554.154 297.053 553.653 296.84C553.162 296.627 552.735 296.333 552.373 295.96C552.021 295.587 551.738 295.149 551.525 294.648C551.322 294.136 551.221 293.587 551.221 293ZM555.253 295.592C555.903 295.592 556.437 295.347 556.853 294.856C557.279 294.365 557.493 293.752 557.493 293.016C557.493 292.259 557.279 291.635 556.853 291.144C556.426 290.653 555.893 290.408 555.253 290.408C554.602 290.408 554.063 290.653 553.637 291.144C553.221 291.635 553.013 292.259 553.013 293.016C553.013 293.763 553.221 294.381 553.637 294.872C554.063 295.352 554.602 295.592 555.253 295.592ZM560.121 288.984H561.849V287.56C561.849 286.696 562.083 286.035 562.553 285.576C563.033 285.107 563.721 284.872 564.617 284.872C564.83 284.872 565.043 284.888 565.257 284.92C565.481 284.952 565.667 284.989 565.817 285.032V286.568C565.614 286.525 565.443 286.493 565.305 286.472C565.166 286.451 565.017 286.44 564.857 286.44C564.441 286.44 564.137 286.536 563.945 286.728C563.753 286.909 563.657 287.197 563.657 287.592V288.984H565.817V290.424H563.657V297H561.849V290.424H560.121V288.984ZM571.924 294.888V290.424H570.309V288.984H571.924V286.776L573.733 286.392V288.984H575.973V290.424H573.733V294.488C573.733 294.883 573.818 295.165 573.989 295.336C574.159 295.496 574.447 295.576 574.853 295.576C575.034 295.576 575.199 295.565 575.349 295.544C575.509 295.512 575.706 295.459 575.941 295.384V296.904C575.706 296.979 575.445 297.032 575.157 297.064C574.879 297.107 574.623 297.128 574.389 297.128C573.589 297.128 572.975 296.941 572.549 296.568C572.133 296.184 571.924 295.624 571.924 294.888ZM577.558 297V285.56L579.366 285.256V290.296C579.664 289.827 580.027 289.469 580.454 289.224C580.891 288.979 581.376 288.856 581.91 288.856C582.72 288.856 583.382 289.128 583.894 289.672C584.416 290.205 584.678 290.888 584.678 291.72V297H582.87V292.232C582.87 291.656 582.71 291.192 582.39 290.84C582.07 290.488 581.643 290.312 581.11 290.312C580.747 290.312 580.416 290.397 580.118 290.568C579.83 290.728 579.579 290.963 579.366 291.272V297H577.558ZM593.766 295.976C593.275 296.381 592.774 296.68 592.262 296.872C591.761 297.064 591.201 297.16 590.582 297.16C590.017 297.16 589.483 297.053 588.982 296.84C588.481 296.627 588.049 296.333 587.686 295.96C587.323 295.587 587.035 295.144 586.822 294.632C586.609 294.12 586.502 293.576 586.502 293C586.502 292.413 586.598 291.869 586.79 291.368C586.993 290.856 587.265 290.419 587.606 290.056C587.958 289.683 588.374 289.389 588.854 289.176C589.334 288.963 589.851 288.856 590.406 288.856C590.95 288.856 591.451 288.963 591.91 289.176C592.379 289.379 592.779 289.661 593.11 290.024C593.451 290.387 593.718 290.824 593.91 291.336C594.102 291.837 594.198 292.387 594.198 292.984V293.432H588.278C588.363 294.061 588.63 294.584 589.078 295C589.537 295.416 590.07 295.624 590.678 295.624C591.051 295.624 591.403 295.56 591.734 295.432C592.075 295.293 592.358 295.107 592.582 294.872L593.766 295.976ZM590.39 290.328C589.857 290.328 589.403 290.509 589.03 290.872C588.657 291.235 588.417 291.72 588.31 292.328H592.486C592.379 291.741 592.134 291.261 591.75 290.888C591.377 290.515 590.923 290.328 590.39 290.328ZM600.532 287.352C600.222 287.352 599.956 287.245 599.732 287.032C599.518 286.819 599.412 286.557 599.412 286.248C599.412 285.949 599.524 285.688 599.748 285.464C599.972 285.24 600.233 285.128 600.532 285.128C600.841 285.128 601.108 285.24 601.332 285.464C601.556 285.688 601.668 285.949 601.668 286.248C601.668 286.557 601.556 286.819 601.332 287.032C601.118 287.245 600.852 287.352 600.532 287.352ZM601.444 288.984V297H599.636V288.984H601.444ZM603.667 297V288.984H605.475V290.296C605.774 289.827 606.136 289.469 606.563 289.224C607 288.979 607.486 288.856 608.019 288.856C608.83 288.856 609.491 289.128 610.003 289.672C610.526 290.205 610.787 290.888 610.787 291.72V297H608.979V292.232C608.979 291.656 608.819 291.192 608.499 290.84C608.179 290.488 607.752 290.312 607.219 290.312C606.856 290.312 606.526 290.397 606.227 290.568C605.939 290.728 605.688 290.963 605.475 291.272V297H603.667ZM612.979 300.392V288.984H614.755V290.136C615.033 289.752 615.385 289.453 615.811 289.24C616.249 289.027 616.729 288.92 617.251 288.92C617.753 288.92 618.227 289.027 618.675 289.24C619.123 289.453 619.507 289.747 619.827 290.12C620.158 290.483 620.414 290.915 620.595 291.416C620.787 291.907 620.883 292.435 620.883 293C620.883 293.565 620.787 294.099 620.595 294.6C620.403 295.101 620.137 295.533 619.795 295.896C619.454 296.259 619.054 296.547 618.595 296.76C618.137 296.973 617.646 297.08 617.123 297.08C616.654 297.08 616.217 296.989 615.811 296.808C615.417 296.627 615.075 296.371 614.787 296.04V300.392H612.979ZM616.707 290.44C616.313 290.44 615.95 290.515 615.619 290.664C615.299 290.813 615.022 291.037 614.787 291.336V294.68C615.022 294.957 615.305 295.176 615.635 295.336C615.966 295.485 616.323 295.56 616.707 295.56C617.39 295.56 617.955 295.32 618.403 294.84C618.862 294.349 619.091 293.736 619.091 293C619.091 292.275 618.862 291.667 618.403 291.176C617.945 290.685 617.379 290.44 616.707 290.44ZM624.521 288.984V293.752C624.521 294.328 624.681 294.792 625.001 295.144C625.321 295.496 625.747 295.672 626.281 295.672C626.643 295.672 626.974 295.592 627.273 295.432C627.571 295.261 627.827 295.011 628.041 294.68V288.984H629.849V297H628.041V295.672C627.742 296.141 627.374 296.504 626.937 296.76C626.51 297.005 626.025 297.128 625.481 297.128C624.67 297.128 624.003 296.861 623.481 296.328C622.969 295.795 622.713 295.107 622.713 294.264V288.984H624.521ZM633.065 294.888V290.424H631.449V288.984H633.065V286.776L634.873 286.392V288.984H637.113V290.424H634.873V294.488C634.873 294.883 634.958 295.165 635.129 295.336C635.3 295.496 635.588 295.576 635.993 295.576C636.174 295.576 636.34 295.565 636.489 295.544C636.649 295.512 636.846 295.459 637.081 295.384V296.904C636.846 296.979 636.585 297.032 636.297 297.064C636.02 297.107 635.764 297.128 635.529 297.128C634.729 297.128 634.116 296.941 633.689 296.568C633.273 296.184 633.065 295.624 633.065 294.888ZM641.652 288.984H643.38V287.56C643.38 286.696 643.615 286.035 644.084 285.576C644.564 285.107 645.252 284.872 646.148 284.872C646.361 284.872 646.575 284.888 646.788 284.92C647.012 284.952 647.199 284.989 647.348 285.032V286.568C647.145 286.525 646.975 286.493 646.836 286.472C646.697 286.451 646.548 286.44 646.388 286.44C645.972 286.44 645.668 286.536 645.476 286.728C645.284 286.909 645.188 287.197 645.188 287.592V288.984H647.348V290.424H645.188V297H643.38V290.424H641.652V288.984ZM649.766 287.352C649.457 287.352 649.19 287.245 648.966 287.032C648.753 286.819 648.646 286.557 648.646 286.248C648.646 285.949 648.758 285.688 648.982 285.464C649.206 285.24 649.467 285.128 649.766 285.128C650.075 285.128 650.342 285.24 650.566 285.464C650.79 285.688 650.902 285.949 650.902 286.248C650.902 286.557 650.79 286.819 650.566 287.032C650.353 287.245 650.086 287.352 649.766 287.352ZM650.678 288.984V297H648.87V288.984H650.678ZM659.797 295.976C659.307 296.381 658.805 296.68 658.293 296.872C657.792 297.064 657.232 297.16 656.613 297.16C656.048 297.16 655.515 297.053 655.013 296.84C654.512 296.627 654.08 296.333 653.717 295.96C653.355 295.587 653.067 295.144 652.853 294.632C652.64 294.12 652.533 293.576 652.533 293C652.533 292.413 652.629 291.869 652.821 291.368C653.024 290.856 653.296 290.419 653.637 290.056C653.989 289.683 654.405 289.389 654.885 289.176C655.365 288.963 655.883 288.856 656.437 288.856C656.981 288.856 657.483 288.963 657.941 289.176C658.411 289.379 658.811 289.661 659.141 290.024C659.483 290.387 659.749 290.824 659.941 291.336C660.133 291.837 660.229 292.387 660.229 292.984V293.432H654.309C654.395 294.061 654.661 294.584 655.109 295C655.568 295.416 656.101 295.624 656.709 295.624C657.083 295.624 657.435 295.56 657.765 295.432C658.107 295.293 658.389 295.107 658.613 294.872L659.797 295.976ZM656.421 290.328C655.888 290.328 655.435 290.509 655.061 290.872C654.688 291.235 654.448 291.72 654.341 292.328H658.517C658.411 291.741 658.165 291.261 657.781 290.888C657.408 290.515 656.955 290.328 656.421 290.328ZM663.881 285.256V297H662.073V285.56L663.881 285.256ZM671.832 297V295.928C671.555 296.291 671.198 296.573 670.76 296.776C670.334 296.979 669.87 297.08 669.368 297.08C668.867 297.08 668.392 296.973 667.944 296.76C667.496 296.547 667.107 296.259 666.776 295.896C666.456 295.523 666.2 295.091 666.008 294.6C665.827 294.099 665.736 293.565 665.736 293C665.736 292.435 665.832 291.901 666.024 291.4C666.216 290.899 666.478 290.467 666.808 290.104C667.15 289.741 667.55 289.453 668.008 289.24C668.467 289.027 668.958 288.92 669.48 288.92C669.939 288.92 670.366 289.016 670.76 289.208C671.166 289.389 671.518 289.645 671.816 289.976V285.56L673.624 285.256V297H671.832ZM667.528 293C667.528 293.725 667.758 294.333 668.216 294.824C668.675 295.315 669.24 295.56 669.912 295.56C670.296 295.56 670.648 295.485 670.968 295.336C671.299 295.187 671.582 294.968 671.816 294.68V291.304C671.582 291.037 671.299 290.829 670.968 290.68C670.638 290.52 670.286 290.44 669.912 290.44C669.23 290.44 668.659 290.685 668.2 291.176C667.752 291.656 667.528 292.264 667.528 293ZM679.464 297V288.984H681.272V290.264C681.57 289.805 681.917 289.459 682.312 289.224C682.717 288.979 683.165 288.856 683.656 288.856C684.189 288.856 684.664 289 685.08 289.288C685.496 289.565 685.805 289.939 686.008 290.408C686.306 289.896 686.68 289.512 687.128 289.256C687.586 288.989 688.098 288.856 688.664 288.856C689.432 288.856 690.061 289.128 690.552 289.672C691.042 290.216 691.288 290.915 691.288 291.768V297H689.48V292.152C689.48 291.597 689.33 291.155 689.032 290.824C688.744 290.483 688.354 290.312 687.864 290.312C687.533 290.312 687.234 290.392 686.968 290.552C686.701 290.712 686.461 290.947 686.248 291.256C686.258 291.341 686.264 291.427 686.264 291.512C686.274 291.597 686.28 291.683 686.28 291.768V297H684.472V292.152C684.472 291.597 684.322 291.155 684.024 290.824C683.736 290.483 683.346 290.312 682.856 290.312C682.536 290.312 682.242 290.392 681.976 290.552C681.709 290.701 681.474 290.925 681.272 291.224V297H679.464ZM695.911 297.128C695.079 297.128 694.397 296.904 693.863 296.456C693.341 295.997 693.079 295.411 693.079 294.696C693.079 293.981 693.351 293.411 693.895 292.984C694.45 292.557 695.197 292.344 696.135 292.344C696.509 292.344 696.871 292.387 697.223 292.472C697.575 292.547 697.933 292.669 698.295 292.84V291.96C698.295 291.437 698.141 291.043 697.831 290.776C697.522 290.499 697.063 290.36 696.455 290.36C696.125 290.36 695.767 290.413 695.383 290.52C694.999 290.616 694.578 290.771 694.119 290.984L693.479 289.672C694.077 289.395 694.647 289.192 695.191 289.064C695.735 288.925 696.274 288.856 696.807 288.856C697.842 288.856 698.647 289.112 699.223 289.624C699.799 290.125 700.087 290.84 700.087 291.768V297H698.295V296.184C697.933 296.515 697.559 296.755 697.175 296.904C696.791 297.053 696.37 297.128 695.911 297.128ZM694.775 294.664C694.775 295.027 694.925 295.32 695.223 295.544C695.522 295.757 695.917 295.864 696.407 295.864C696.77 295.864 697.106 295.811 697.415 295.704C697.735 295.597 698.029 295.432 698.295 295.208V293.896C698.007 293.757 697.714 293.661 697.415 293.608C697.117 293.544 696.791 293.512 696.439 293.512C695.927 293.512 695.522 293.619 695.223 293.832C694.925 294.035 694.775 294.312 694.775 294.664ZM703.034 294.888V290.424H701.418V288.984H703.034V286.776L704.842 286.392V288.984H707.082V290.424H704.842V294.488C704.842 294.883 704.927 295.165 705.098 295.336C705.269 295.496 705.557 295.576 705.962 295.576C706.143 295.576 706.309 295.565 706.458 295.544C706.618 295.512 706.815 295.459 707.05 295.384V296.904C706.815 296.979 706.554 297.032 706.266 297.064C705.989 297.107 705.733 297.128 705.498 297.128C704.698 297.128 704.085 296.941 703.658 296.568C703.242 296.184 703.034 295.624 703.034 294.888ZM712.35 295.56C712.734 295.56 713.091 295.485 713.422 295.336C713.763 295.187 714.051 294.968 714.286 294.68L715.374 295.768C715 296.195 714.536 296.536 713.982 296.792C713.427 297.037 712.846 297.16 712.238 297.16C711.672 297.16 711.139 297.053 710.638 296.84C710.147 296.627 709.72 296.333 709.358 295.96C708.995 295.587 708.707 295.144 708.493 294.632C708.291 294.12 708.19 293.576 708.19 293C708.19 292.424 708.291 291.885 708.493 291.384C708.707 290.872 708.995 290.435 709.358 290.072C709.72 289.699 710.147 289.405 710.638 289.192C711.139 288.979 711.672 288.872 712.238 288.872C712.856 288.872 713.443 288.989 713.998 289.224C714.563 289.459 715.043 289.789 715.438 290.216L714.318 291.384C714.04 291.075 713.731 290.84 713.39 290.68C713.048 290.52 712.686 290.44 712.302 290.44C711.662 290.44 711.118 290.691 710.67 291.192C710.222 291.683 709.998 292.285 709.998 293C709.998 293.725 710.222 294.333 710.67 294.824C711.118 295.315 711.678 295.56 712.35 295.56ZM716.933 297V285.56L718.741 285.256V290.296C719.039 289.827 719.402 289.469 719.829 289.224C720.266 288.979 720.751 288.856 721.285 288.856C722.095 288.856 722.757 289.128 723.269 289.672C723.791 290.205 724.053 290.888 724.053 291.72V297H722.245V292.232C722.245 291.656 722.085 291.192 721.765 290.84C721.445 290.488 721.018 290.312 720.485 290.312C720.122 290.312 719.791 290.397 719.493 290.568C719.205 290.728 718.954 290.963 718.741 291.272V297H716.933ZM495.112 317.888V313.424H493.496V311.984H495.112V309.776L496.92 309.392V311.984H499.16V313.424H496.92V317.488C496.92 317.883 497.005 318.165 497.176 318.336C497.347 318.496 497.635 318.576 498.04 318.576C498.221 318.576 498.387 318.565 498.536 318.544C498.696 318.512 498.893 318.459 499.128 318.384V319.904C498.893 319.979 498.632 320.032 498.344 320.064C498.067 320.107 497.811 320.128 497.576 320.128C496.776 320.128 496.163 319.941 495.736 319.568C495.32 319.184 495.112 318.624 495.112 317.888ZM500.745 320V308.56L502.553 308.256V313.296C502.852 312.827 503.214 312.469 503.641 312.224C504.078 311.979 504.564 311.856 505.097 311.856C505.908 311.856 506.569 312.128 507.081 312.672C507.604 313.205 507.865 313.888 507.865 314.72V320H506.057V315.232C506.057 314.656 505.897 314.192 505.577 313.84C505.257 313.488 504.83 313.312 504.297 313.312C503.934 313.312 503.604 313.397 503.305 313.568C503.017 313.728 502.766 313.963 502.553 314.272V320H500.745ZM516.954 318.976C516.463 319.381 515.962 319.68 515.45 319.872C514.948 320.064 514.388 320.16 513.77 320.16C513.204 320.16 512.671 320.053 512.17 319.84C511.668 319.627 511.236 319.333 510.874 318.96C510.511 318.587 510.223 318.144 510.01 317.632C509.796 317.12 509.69 316.576 509.69 316C509.69 315.413 509.786 314.869 509.978 314.368C510.18 313.856 510.452 313.419 510.794 313.056C511.146 312.683 511.562 312.389 512.042 312.176C512.522 311.963 513.039 311.856 513.594 311.856C514.138 311.856 514.639 311.963 515.098 312.176C515.567 312.379 515.967 312.661 516.298 313.024C516.639 313.387 516.906 313.824 517.098 314.336C517.29 314.837 517.385 315.387 517.385 315.984V316.432H511.466C511.551 317.061 511.818 317.584 512.266 318C512.724 318.416 513.258 318.624 513.866 318.624C514.239 318.624 514.591 318.56 514.922 318.432C515.263 318.293 515.546 318.107 515.77 317.872L516.954 318.976ZM513.578 313.328C513.044 313.328 512.591 313.509 512.218 313.872C511.844 314.235 511.604 314.72 511.498 315.328H515.674C515.567 314.741 515.322 314.261 514.938 313.888C514.564 313.515 514.111 313.328 513.578 313.328ZM525.255 320.128C524.423 320.128 523.74 319.904 523.207 319.456C522.684 318.997 522.423 318.411 522.423 317.696C522.423 316.981 522.695 316.411 523.239 315.984C523.794 315.557 524.54 315.344 525.479 315.344C525.852 315.344 526.215 315.387 526.567 315.472C526.919 315.547 527.276 315.669 527.639 315.84V314.96C527.639 314.437 527.484 314.043 527.175 313.776C526.866 313.499 526.407 313.36 525.799 313.36C525.468 313.36 525.111 313.413 524.727 313.52C524.343 313.616 523.922 313.771 523.463 313.984L522.823 312.672C523.42 312.395 523.991 312.192 524.535 312.064C525.079 311.925 525.618 311.856 526.151 311.856C527.186 311.856 527.991 312.112 528.567 312.624C529.143 313.125 529.431 313.84 529.431 314.768V320H527.639V319.184C527.276 319.515 526.903 319.755 526.519 319.904C526.135 320.053 525.714 320.128 525.255 320.128ZM524.119 317.664C524.119 318.027 524.268 318.32 524.567 318.544C524.866 318.757 525.26 318.864 525.751 318.864C526.114 318.864 526.45 318.811 526.759 318.704C527.079 318.597 527.372 318.432 527.639 318.208V316.896C527.351 316.757 527.058 316.661 526.759 316.608C526.46 316.544 526.135 316.512 525.783 316.512C525.271 316.512 524.866 316.619 524.567 316.832C524.268 317.035 524.119 317.312 524.119 317.664ZM531.62 320V311.984H533.428V313.296C533.727 312.827 534.089 312.469 534.516 312.224C534.953 311.979 535.439 311.856 535.972 311.856C536.783 311.856 537.444 312.128 537.956 312.672C538.479 313.205 538.74 313.888 538.74 314.72V320H536.932V315.232C536.932 314.656 536.772 314.192 536.452 313.84C536.132 313.488 535.705 313.312 535.172 313.312C534.809 313.312 534.479 313.397 534.18 313.568C533.892 313.728 533.641 313.963 533.428 314.272V320H531.62ZM540.213 319.072L541.061 317.856C541.583 318.187 542.042 318.421 542.437 318.56C542.831 318.699 543.231 318.768 543.637 318.768C544.117 318.768 544.506 318.672 544.805 318.48C545.103 318.277 545.253 318.016 545.253 317.696C545.253 317.451 545.162 317.259 544.981 317.12C544.81 316.971 544.533 316.859 544.149 316.784L542.725 316.544C541.957 316.405 541.375 316.155 540.981 315.792C540.597 315.419 540.405 314.933 540.405 314.336C540.405 313.589 540.687 312.992 541.253 312.544C541.829 312.085 542.581 311.856 543.509 311.856C544.063 311.856 544.597 311.936 545.109 312.096C545.631 312.245 546.149 312.485 546.661 312.816L545.813 314C545.397 313.733 544.991 313.541 544.597 313.424C544.202 313.296 543.802 313.232 543.397 313.232C542.981 313.232 542.645 313.317 542.389 313.488C542.143 313.648 542.021 313.877 542.021 314.176C542.021 314.432 542.101 314.624 542.261 314.752C542.431 314.88 542.73 314.981 543.157 315.056L544.565 315.312C545.365 315.461 545.957 315.723 546.341 316.096C546.735 316.469 546.933 316.955 546.933 317.552C546.933 317.915 546.847 318.256 546.677 318.576C546.517 318.896 546.287 319.173 545.989 319.408C545.701 319.643 545.354 319.829 544.949 319.968C544.554 320.096 544.127 320.16 543.669 320.16C542.975 320.16 542.33 320.069 541.733 319.888C541.146 319.696 540.639 319.424 540.213 319.072ZM551.757 320H549.997L547.837 311.984H549.565L550.973 317.648L552.621 311.984H554.157L555.805 317.664L557.197 311.984H558.893L556.733 320H554.989L553.373 314.352L551.757 320ZM567.125 318.976C566.635 319.381 566.133 319.68 565.621 319.872C565.12 320.064 564.56 320.16 563.941 320.16C563.376 320.16 562.843 320.053 562.341 319.84C561.84 319.627 561.408 319.333 561.045 318.96C560.683 318.587 560.395 318.144 560.181 317.632C559.968 317.12 559.861 316.576 559.861 316C559.861 315.413 559.957 314.869 560.149 314.368C560.352 313.856 560.624 313.419 560.965 313.056C561.317 312.683 561.733 312.389 562.213 312.176C562.693 311.963 563.211 311.856 563.765 311.856C564.309 311.856 564.811 311.963 565.269 312.176C565.739 312.379 566.139 312.661 566.469 313.024C566.811 313.387 567.077 313.824 567.269 314.336C567.461 314.837 567.557 315.387 567.557 315.984V316.432H561.637C561.723 317.061 561.989 317.584 562.437 318C562.896 318.416 563.429 318.624 564.037 318.624C564.411 318.624 564.763 318.56 565.093 318.432C565.435 318.293 565.717 318.107 565.941 317.872L567.125 318.976ZM563.749 313.328C563.216 313.328 562.763 313.509 562.389 313.872C562.016 314.235 561.776 314.72 561.669 315.328H565.845C565.739 314.741 565.493 314.261 565.109 313.888C564.736 313.515 564.283 313.328 563.749 313.328ZM569.401 320V311.984H571.209V313.728C571.423 313.12 571.716 312.656 572.089 312.336C572.473 312.005 572.916 311.84 573.417 311.84C573.567 311.851 573.7 311.867 573.817 311.888C573.935 311.909 574.063 311.947 574.201 312V313.584C574.063 313.52 573.903 313.472 573.721 313.44C573.551 313.408 573.38 313.392 573.209 313.392C572.783 313.392 572.393 313.509 572.041 313.744C571.689 313.979 571.412 314.304 571.209 314.72V320H569.401Z" fill="black"/>
<path d="M308 110L477 110" stroke="#29D305" stroke-width="2" stroke-linecap="round" stroke-linejoin="round"/>
<circle cx="301" cy="110" r="7" fill="white" stroke="#29D305" stroke-width="2"/>
<circle cx="301" cy="110" r="2" fill="#29D305"/>
<path d="M8 58L8.00001 376" stroke="#29D305" stroke-width="2" stroke-linecap="round" stroke-linejoin="round"/>
<circle cx="8" cy="50" r="7" fill="white" stroke="#29D305" stroke-width="2"/>
<circle cx="8" cy="50" r="2" fill="#29D305"/>
<circle cx="8" cy="150" r="7" fill="white" stroke="#29D305" stroke-width="2"/>
<circle cx="8" cy="150" r="2" fill="#29D305"/>
<circle cx="8" cy="249" r="7" fill="white" stroke="#29D305" stroke-width="2"/>
<circle cx="8" cy="249" r="2" fill="#29D305"/>
<circle cx="147" cy="304" r="7" fill="white" stroke="#29D305" stroke-width="2"/>
<circle cx="147" cy="304" r="2" fill="#29D305"/>
<path d="M154 304L477 304" stroke="#29D305" stroke-width="2" stroke-linecap="round" stroke-linejoin="round"/>
</svg>
