<svg width="781" height="429" viewBox="0 0 781 429" fill="none" xmlns="http://www.w3.org/2000/svg">
<rect x="0.5" y="0.5" width="780" height="428" rx="7.5" stroke="#D3D3D3"/>
<g clip-path="url(#clip0)">
<path d="M391 135.992C373.355 135.992 359 121.637 359 103.992C359 86.3466 373.355 71.9919 391 71.9919C408.645 71.9919 423 86.3466 423 103.992C423 121.637 408.645 135.992 391 135.992Z" fill="#29D305"/>
<path fill-rule="evenodd" clip-rule="evenodd" d="M376.254 102.149C377.035 101.369 378.301 101.369 379.082 102.149L387.096 110.154L404.538 92.7317C405.319 91.9515 406.586 91.9515 407.367 92.7317C408.148 93.5118 408.148 94.7767 407.367 95.5568L388.511 114.391C387.73 115.172 386.463 115.172 385.682 114.391L376.254 104.974C375.473 104.194 375.473 102.929 376.254 102.149Z" fill="black"/>
</g>
<path d="M301.128 183.728C301.128 184.864 300.952 185.904 300.6 186.848C300.248 187.776 299.744 188.568 299.088 189.224C298.448 189.864 297.664 190.36 296.736 190.712C295.824 191.064 294.808 191.24 293.688 191.24C292.552 191.24 291.52 191.064 290.592 190.712C289.68 190.36 288.904 189.864 288.264 189.224C287.624 188.568 287.128 187.776 286.776 186.848C286.424 185.92 286.248 184.88 286.248 183.728V174.2H289.728V183.728C289.728 185.024 290.088 186.064 290.808 186.848C291.544 187.632 292.512 188.024 293.712 188.024C294.912 188.024 295.864 187.632 296.568 186.848C297.288 186.064 297.648 185.024 297.648 183.728V174.2H301.128V183.728ZM303.687 196.016V178.496H306.927V179.528C307.423 179.128 307.975 178.832 308.583 178.64C309.191 178.432 309.823 178.328 310.479 178.328C311.359 178.328 312.183 178.496 312.951 178.832C313.735 179.168 314.415 179.624 314.991 180.2C315.567 180.776 316.015 181.456 316.335 182.24C316.671 183.024 316.839 183.864 316.839 184.76C316.839 185.656 316.671 186.496 316.335 187.28C315.999 188.064 315.543 188.744 314.967 189.32C314.391 189.896 313.703 190.352 312.903 190.688C312.119 191.008 311.279 191.168 310.383 191.168C309.775 191.168 309.175 191.088 308.583 190.928C308.007 190.752 307.471 190.504 306.975 190.184V196.016H303.687ZM309.951 181.136C309.359 181.136 308.807 181.24 308.295 181.448C307.783 181.64 307.343 181.928 306.975 182.312V187.232C307.327 187.584 307.759 187.864 308.271 188.072C308.799 188.28 309.359 188.384 309.951 188.384C310.975 188.384 311.839 188.04 312.543 187.352C313.247 186.648 313.599 185.784 313.599 184.76C313.599 183.736 313.239 182.88 312.519 182.192C311.815 181.488 310.959 181.136 309.951 181.136ZM322.139 173.48V191H318.851V174.2L322.139 173.48ZM324.134 184.76C324.134 183.848 324.302 183 324.638 182.216C324.99 181.416 325.462 180.728 326.054 180.152C326.662 179.56 327.374 179.096 328.19 178.76C329.006 178.424 329.878 178.256 330.806 178.256C331.734 178.256 332.606 178.424 333.422 178.76C334.238 179.096 334.942 179.56 335.534 180.152C336.142 180.728 336.614 181.416 336.95 182.216C337.302 183 337.478 183.848 337.478 184.76C337.478 185.672 337.302 186.528 336.95 187.328C336.614 188.112 336.142 188.792 335.534 189.368C334.942 189.944 334.238 190.4 333.422 190.736C332.606 191.072 331.734 191.24 330.806 191.24C329.878 191.24 329.006 191.072 328.19 190.736C327.374 190.4 326.662 189.944 326.054 189.368C325.462 188.792 324.99 188.112 324.638 187.328C324.302 186.528 324.134 185.672 324.134 184.76ZM330.806 188.384C331.766 188.384 332.582 188.032 333.254 187.328C333.926 186.624 334.262 185.768 334.262 184.76C334.262 183.736 333.926 182.872 333.254 182.168C332.582 181.464 331.766 181.112 330.806 181.112C329.846 181.112 329.03 181.464 328.358 182.168C327.686 182.872 327.35 183.736 327.35 184.76C327.35 185.768 327.686 186.624 328.358 187.328C329.03 188.032 329.846 188.384 330.806 188.384ZM343.576 191.216C342.232 191.216 341.136 190.864 340.288 190.16C339.44 189.44 339.016 188.512 339.016 187.376C339.016 186.192 339.472 185.264 340.384 184.592C341.296 183.92 342.552 183.584 344.152 183.584C344.664 183.584 345.176 183.624 345.688 183.704C346.2 183.784 346.704 183.904 347.2 184.064V183.176C347.2 182.456 346.976 181.912 346.528 181.544C346.08 181.176 345.424 180.992 344.56 180.992C344.032 180.992 343.456 181.08 342.832 181.256C342.224 181.416 341.528 181.672 340.744 182.024L339.544 179.6C340.52 179.152 341.464 178.816 342.376 178.592C343.304 178.368 344.216 178.256 345.112 178.256C346.792 178.256 348.096 178.664 349.024 179.48C349.968 180.28 350.44 181.416 350.44 182.888V191H347.2V190.136C346.672 190.504 346.112 190.776 345.52 190.952C344.944 191.128 344.296 191.216 343.576 191.216ZM342.16 187.304C342.16 187.784 342.368 188.168 342.784 188.456C343.2 188.728 343.752 188.864 344.44 188.864C344.984 188.864 345.48 188.8 345.928 188.672C346.392 188.528 346.816 188.328 347.2 188.072V186.2C346.8 186.04 346.376 185.928 345.928 185.864C345.496 185.784 345.04 185.744 344.56 185.744C343.808 185.744 343.216 185.888 342.784 186.176C342.368 186.448 342.16 186.824 342.16 187.304ZM362.265 191V189.968C361.769 190.368 361.217 190.672 360.609 190.88C360.001 191.072 359.369 191.168 358.713 191.168C357.833 191.168 357.001 191 356.217 190.664C355.449 190.328 354.777 189.872 354.201 189.296C353.625 188.72 353.169 188.04 352.833 187.256C352.513 186.472 352.353 185.632 352.353 184.736C352.353 183.84 352.521 183 352.857 182.216C353.193 181.432 353.649 180.752 354.225 180.176C354.801 179.6 355.481 179.152 356.265 178.832C357.065 178.496 357.913 178.328 358.809 178.328C359.417 178.328 360.009 178.416 360.585 178.592C361.177 178.752 361.721 178.992 362.217 179.312V174.2L365.505 173.48V191H362.265ZM355.593 184.736C355.593 185.744 355.945 186.6 356.649 187.304C357.353 188.008 358.217 188.36 359.241 188.36C359.849 188.36 360.401 188.256 360.897 188.048C361.409 187.84 361.849 187.544 362.217 187.16V182.288C361.865 181.92 361.425 181.632 360.897 181.424C360.385 181.216 359.833 181.112 359.241 181.112C358.201 181.112 357.329 181.464 356.625 182.168C355.937 182.856 355.593 183.712 355.593 184.736ZM371.865 189.512L373.497 187.328C374.233 187.808 374.929 188.168 375.585 188.408C376.241 188.632 376.897 188.744 377.553 188.744C378.289 188.744 378.873 188.624 379.305 188.384C379.753 188.144 379.977 187.824 379.977 187.424C379.977 187.104 379.849 186.848 379.593 186.656C379.353 186.464 378.961 186.328 378.417 186.248L376.017 185.888C374.785 185.696 373.841 185.296 373.185 184.688C372.545 184.08 372.225 183.272 372.225 182.264C372.225 181.064 372.697 180.104 373.641 179.384C374.585 178.664 375.849 178.304 377.433 178.304C378.345 178.304 379.233 178.44 380.097 178.712C380.961 178.968 381.785 179.352 382.569 179.864L380.985 181.976C380.297 181.576 379.641 181.28 379.017 181.088C378.393 180.88 377.761 180.776 377.121 180.776C376.529 180.776 376.049 180.888 375.681 181.112C375.329 181.336 375.153 181.632 375.153 182C375.153 182.336 375.281 182.6 375.537 182.792C375.809 182.968 376.249 183.096 376.857 183.176L379.257 183.536C380.473 183.712 381.409 184.112 382.065 184.736C382.737 185.36 383.073 186.152 383.073 187.112C383.073 187.704 382.929 188.256 382.641 188.768C382.369 189.264 381.993 189.696 381.513 190.064C381.033 190.432 380.457 190.72 379.785 190.928C379.113 191.136 378.385 191.24 377.601 191.24C376.465 191.24 375.401 191.096 374.409 190.808C373.417 190.504 372.569 190.072 371.865 189.512ZM387.902 178.496V185.768C387.902 186.568 388.134 187.208 388.598 187.688C389.078 188.168 389.71 188.408 390.494 188.408C391.054 188.408 391.55 188.304 391.982 188.096C392.43 187.872 392.798 187.56 393.086 187.16V178.496H396.374V191H393.086V189.992C392.606 190.392 392.07 190.704 391.478 190.928C390.886 191.136 390.246 191.24 389.558 191.24C388.118 191.24 386.934 190.776 386.006 189.848C385.078 188.904 384.614 187.704 384.614 186.248V178.496H387.902ZM405.057 188.36C405.617 188.36 406.137 188.248 406.617 188.024C407.113 187.8 407.585 187.448 408.033 186.968L410.001 189.008C409.361 189.712 408.593 190.264 407.697 190.664C406.801 191.048 405.873 191.24 404.913 191.24C404.001 191.24 403.137 191.072 402.321 190.736C401.521 190.4 400.825 189.944 400.233 189.368C399.657 188.792 399.201 188.112 398.865 187.328C398.529 186.528 398.361 185.672 398.361 184.76C398.361 183.848 398.529 183 398.865 182.216C399.201 181.416 399.657 180.728 400.233 180.152C400.825 179.56 401.521 179.096 402.321 178.76C403.137 178.424 404.001 178.256 404.913 178.256C405.905 178.256 406.857 178.456 407.769 178.856C408.681 179.24 409.457 179.784 410.097 180.488L408.081 182.624C407.633 182.128 407.153 181.752 406.641 181.496C406.129 181.24 405.577 181.112 404.985 181.112C404.041 181.112 403.241 181.464 402.585 182.168C401.945 182.872 401.625 183.736 401.625 184.76C401.625 185.784 401.953 186.64 402.609 187.328C403.281 188.016 404.097 188.36 405.057 188.36ZM417.361 188.36C417.921 188.36 418.441 188.248 418.921 188.024C419.417 187.8 419.889 187.448 420.337 186.968L422.305 189.008C421.665 189.712 420.897 190.264 420.001 190.664C419.105 191.048 418.177 191.24 417.217 191.24C416.305 191.24 415.441 191.072 414.625 190.736C413.825 190.4 413.129 189.944 412.537 189.368C411.961 188.792 411.505 188.112 411.169 187.328C410.833 186.528 410.665 185.672 410.665 184.76C410.665 183.848 410.833 183 411.169 182.216C411.505 181.416 411.961 180.728 412.537 180.152C413.129 179.56 413.825 179.096 414.625 178.76C415.441 178.424 416.305 178.256 417.217 178.256C418.209 178.256 419.161 178.456 420.073 178.856C420.985 179.24 421.761 179.784 422.401 180.488L420.385 182.624C419.937 182.128 419.457 181.752 418.945 181.496C418.433 181.24 417.881 181.112 417.289 181.112C416.345 181.112 415.545 181.464 414.889 182.168C414.249 182.872 413.929 183.736 413.929 184.76C413.929 185.784 414.257 186.64 414.913 187.328C415.585 188.016 416.401 188.36 417.361 188.36ZM434.754 189.44C433.986 190.064 433.194 190.52 432.378 190.808C431.578 191.096 430.682 191.24 429.69 191.24C428.746 191.24 427.858 191.072 427.026 190.736C426.21 190.4 425.498 189.944 424.89 189.368C424.298 188.792 423.826 188.112 423.474 187.328C423.138 186.528 422.97 185.672 422.97 184.76C422.97 183.864 423.13 183.024 423.45 182.24C423.786 181.44 424.242 180.752 424.818 180.176C425.394 179.584 426.074 179.12 426.858 178.784C427.658 178.448 428.506 178.28 429.402 178.28C430.282 178.28 431.098 178.456 431.85 178.808C432.618 179.144 433.274 179.608 433.818 180.2C434.378 180.792 434.81 181.504 435.114 182.336C435.434 183.152 435.594 184.04 435.594 185V185.864H426.282C426.506 186.648 426.938 187.28 427.578 187.76C428.218 188.24 428.97 188.48 429.834 188.48C430.378 188.48 430.89 188.392 431.37 188.216C431.85 188.04 432.258 187.792 432.594 187.472L434.754 189.44ZM429.33 180.992C428.578 180.992 427.93 181.224 427.386 181.688C426.842 182.136 426.466 182.744 426.258 183.512H432.378C432.17 182.776 431.786 182.176 431.226 181.712C430.682 181.232 430.05 180.992 429.33 180.992ZM436.67 189.512L438.302 187.328C439.038 187.808 439.734 188.168 440.39 188.408C441.046 188.632 441.702 188.744 442.358 188.744C443.094 188.744 443.678 188.624 444.11 188.384C444.558 188.144 444.782 187.824 444.782 187.424C444.782 187.104 444.654 186.848 444.398 186.656C444.158 186.464 443.766 186.328 443.222 186.248L440.822 185.888C439.59 185.696 438.646 185.296 437.99 184.688C437.35 184.08 437.03 183.272 437.03 182.264C437.03 181.064 437.502 180.104 438.446 179.384C439.39 178.664 440.654 178.304 442.238 178.304C443.15 178.304 444.038 178.44 444.902 178.712C445.766 178.968 446.59 179.352 447.374 179.864L445.79 181.976C445.102 181.576 444.446 181.28 443.822 181.088C443.198 180.88 442.566 180.776 441.926 180.776C441.334 180.776 440.854 180.888 440.486 181.112C440.134 181.336 439.958 181.632 439.958 182C439.958 182.336 440.086 182.6 440.342 182.792C440.614 182.968 441.054 183.096 441.662 183.176L444.062 183.536C445.278 183.712 446.214 184.112 446.87 184.736C447.542 185.36 447.878 186.152 447.878 187.112C447.878 187.704 447.734 188.256 447.446 188.768C447.174 189.264 446.798 189.696 446.318 190.064C445.838 190.432 445.262 190.72 444.59 190.928C443.918 191.136 443.19 191.24 442.406 191.24C441.27 191.24 440.206 191.096 439.214 190.808C438.222 190.504 437.374 190.072 436.67 189.512ZM448.506 189.512L450.138 187.328C450.874 187.808 451.57 188.168 452.226 188.408C452.882 188.632 453.538 188.744 454.194 188.744C454.93 188.744 455.514 188.624 455.946 188.384C456.394 188.144 456.618 187.824 456.618 187.424C456.618 187.104 456.49 186.848 456.234 186.656C455.994 186.464 455.602 186.328 455.058 186.248L452.658 185.888C451.426 185.696 450.482 185.296 449.826 184.688C449.186 184.08 448.866 183.272 448.866 182.264C448.866 181.064 449.338 180.104 450.282 179.384C451.226 178.664 452.49 178.304 454.074 178.304C454.986 178.304 455.874 178.44 456.738 178.712C457.602 178.968 458.426 179.352 459.21 179.864L457.626 181.976C456.938 181.576 456.282 181.28 455.658 181.088C455.034 180.88 454.402 180.776 453.762 180.776C453.17 180.776 452.69 180.888 452.322 181.112C451.97 181.336 451.794 181.632 451.794 182C451.794 182.336 451.922 182.6 452.178 182.792C452.45 182.968 452.89 183.096 453.498 183.176L455.898 183.536C457.114 183.712 458.05 184.112 458.706 184.736C459.378 185.36 459.714 186.152 459.714 187.112C459.714 187.704 459.57 188.256 459.282 188.768C459.01 189.264 458.634 189.696 458.154 190.064C457.674 190.432 457.098 190.72 456.426 190.928C455.754 191.136 455.026 191.24 454.242 191.24C453.106 191.24 452.042 191.096 451.05 190.808C450.058 190.504 449.21 190.072 448.506 189.512ZM460.252 178.496H463.036V177.296C463.036 175.904 463.444 174.832 464.26 174.08C465.076 173.328 466.252 172.952 467.788 172.952C468.124 172.952 468.468 172.976 468.82 173.024C469.172 173.056 469.476 173.104 469.732 173.168V175.928C469.428 175.864 469.156 175.816 468.916 175.784C468.692 175.752 468.452 175.736 468.196 175.736C467.572 175.736 467.1 175.872 466.78 176.144C466.476 176.416 466.324 176.824 466.324 177.368V178.496H469.732V181.256H466.324V191H463.036V181.256H460.252V178.496ZM474.644 178.496V185.768C474.644 186.568 474.876 187.208 475.34 187.688C475.82 188.168 476.452 188.408 477.236 188.408C477.796 188.408 478.292 188.304 478.724 188.096C479.172 187.872 479.54 187.56 479.828 187.16V178.496H483.116V191H479.828V189.992C479.348 190.392 478.812 190.704 478.22 190.928C477.628 191.136 476.988 191.24 476.3 191.24C474.86 191.24 473.676 190.776 472.748 189.848C471.82 188.904 471.356 187.704 471.356 186.248V178.496H474.644ZM488.967 173.48V191H485.679V174.2L488.967 173.48ZM491.874 185.96L491.466 173.312H494.802L494.394 185.96H491.874ZM493.122 191.24C492.594 191.24 492.138 191.048 491.754 190.664C491.37 190.28 491.178 189.824 491.178 189.296C491.178 188.752 491.37 188.288 491.754 187.904C492.138 187.52 492.594 187.328 493.122 187.328C493.666 187.328 494.13 187.52 494.514 187.904C494.898 188.288 495.09 188.752 495.09 189.296C495.09 189.824 494.898 190.28 494.514 190.664C494.13 191.048 493.666 191.24 493.122 191.24Z" fill="black"/>
<path d="M311 333C311 319.745 321.745 309 335 309H448C461.255 309 472 319.745 472 333V333C472 346.255 461.255 357 448 357H335C321.745 357 311 346.255 311 333V333Z" fill="black"/>
<path d="M344.385 326.4H346.239L353.259 335.742V326.4H355.041V339H353.385L346.167 329.352V339H344.385V326.4ZM365.344 337.956C364.816 338.364 364.264 338.67 363.688 338.874C363.112 339.066 362.482 339.162 361.798 339.162C361.126 339.162 360.496 339.042 359.908 338.802C359.32 338.55 358.81 338.214 358.378 337.794C357.946 337.374 357.604 336.876 357.352 336.3C357.112 335.712 356.992 335.082 356.992 334.41C356.992 333.75 357.112 333.132 357.352 332.556C357.592 331.98 357.916 331.482 358.324 331.062C358.732 330.642 359.218 330.312 359.782 330.072C360.346 329.82 360.946 329.694 361.582 329.694C362.206 329.694 362.788 329.82 363.328 330.072C363.88 330.312 364.348 330.648 364.732 331.08C365.128 331.5 365.44 332.004 365.668 332.592C365.896 333.18 366.01 333.81 366.01 334.482V335.004H358.774C358.894 335.76 359.242 336.39 359.818 336.894C360.394 337.386 361.078 337.632 361.87 337.632C362.314 337.632 362.74 337.56 363.148 337.416C363.556 337.272 363.904 337.074 364.192 336.822L365.344 337.956ZM361.546 331.206C360.862 331.206 360.262 331.434 359.746 331.89C359.242 332.346 358.924 332.934 358.792 333.654H364.228C364.096 332.958 363.778 332.376 363.274 331.908C362.782 331.44 362.206 331.206 361.546 331.206ZM371.004 339H369.258L366.702 329.838H368.448L370.212 336.57L372.318 329.838H373.866L375.954 336.57L377.736 329.838H379.428L376.854 339H375.126L373.074 332.286L371.004 339ZM386.24 329.838V335.274C386.24 335.994 386.444 336.564 386.852 336.984C387.272 337.404 387.824 337.614 388.508 337.614C388.988 337.614 389.42 337.512 389.804 337.308C390.188 337.092 390.506 336.792 390.758 336.408V329.838H392.558V339H390.758V338.082C390.398 338.442 389.984 338.718 389.516 338.91C389.06 339.09 388.556 339.18 388.004 339.18C386.96 339.18 386.102 338.844 385.43 338.172C384.77 337.5 384.44 336.636 384.44 335.58V329.838H386.24ZM394.689 342.726V329.838H396.471V330.72C396.843 330.384 397.269 330.132 397.749 329.964C398.229 329.784 398.739 329.694 399.279 329.694C399.927 329.694 400.533 329.82 401.097 330.072C401.661 330.312 402.147 330.642 402.555 331.062C402.975 331.482 403.305 331.98 403.545 332.556C403.785 333.132 403.905 333.75 403.905 334.41C403.905 335.07 403.785 335.694 403.545 336.282C403.305 336.858 402.975 337.356 402.555 337.776C402.147 338.196 401.655 338.532 401.079 338.784C400.503 339.024 399.891 339.144 399.243 339.144C398.739 339.144 398.247 339.066 397.767 338.91C397.299 338.754 396.873 338.532 396.489 338.244V342.726H394.689ZM399.045 331.26C398.529 331.26 398.049 331.356 397.605 331.548C397.161 331.74 396.789 332.01 396.489 332.358V336.498C396.777 336.834 397.143 337.098 397.587 337.29C398.043 337.482 398.529 337.578 399.045 337.578C399.921 337.578 400.653 337.278 401.241 336.678C401.841 336.078 402.141 335.328 402.141 334.428C402.141 333.528 401.841 332.778 401.241 332.178C400.641 331.566 399.909 331.26 399.045 331.26ZM407.423 326.004V339H405.623V326.4L407.423 326.004ZM409.128 334.41C409.128 333.75 409.248 333.132 409.488 332.556C409.74 331.968 410.082 331.464 410.514 331.044C410.946 330.612 411.45 330.276 412.026 330.036C412.614 329.784 413.238 329.658 413.898 329.658C414.558 329.658 415.176 329.784 415.752 330.036C416.34 330.276 416.844 330.612 417.264 331.044C417.696 331.464 418.032 331.968 418.272 332.556C418.524 333.132 418.65 333.75 418.65 334.41C418.65 335.082 418.524 335.712 418.272 336.3C418.032 336.876 417.696 337.38 417.264 337.812C416.844 338.232 416.34 338.568 415.752 338.82C415.176 339.06 414.558 339.18 413.898 339.18C413.238 339.18 412.614 339.06 412.026 338.82C411.45 338.568 410.946 338.232 410.514 337.812C410.082 337.38 409.74 336.876 409.488 336.3C409.248 335.712 409.128 335.082 409.128 334.41ZM413.898 337.596C414.726 337.596 415.428 337.29 416.004 336.678C416.592 336.054 416.886 335.298 416.886 334.41C416.886 333.522 416.592 332.772 416.004 332.16C415.428 331.548 414.726 331.242 413.898 331.242C413.07 331.242 412.362 331.548 411.774 332.16C411.186 332.772 410.892 333.522 410.892 334.41C410.892 335.298 411.18 336.054 411.756 336.678C412.344 337.29 413.058 337.596 413.898 337.596ZM423.339 339.162C422.343 339.162 421.533 338.904 420.909 338.388C420.285 337.872 419.973 337.2 419.973 336.372C419.973 335.508 420.303 334.83 420.963 334.338C421.623 333.834 422.529 333.582 423.681 333.582C424.125 333.582 424.557 333.63 424.977 333.726C425.397 333.81 425.799 333.93 426.183 334.086V333.114C426.183 332.466 425.991 331.98 425.607 331.656C425.223 331.332 424.671 331.17 423.951 331.17C423.531 331.17 423.093 331.236 422.637 331.368C422.181 331.488 421.671 331.68 421.107 331.944L420.441 330.594C421.125 330.27 421.773 330.036 422.385 329.892C422.997 329.736 423.603 329.658 424.203 329.658C425.391 329.658 426.309 329.946 426.957 330.522C427.617 331.086 427.947 331.89 427.947 332.934V339H426.183V338.208C425.775 338.532 425.337 338.772 424.869 338.928C424.401 339.084 423.891 339.162 423.339 339.162ZM421.701 336.336C421.701 336.78 421.887 337.14 422.259 337.416C422.643 337.692 423.141 337.83 423.753 337.83C424.233 337.83 424.677 337.758 425.085 337.614C425.493 337.47 425.859 337.254 426.183 336.966V335.382C425.835 335.19 425.469 335.052 425.085 334.968C424.701 334.872 424.281 334.824 423.825 334.824C423.177 334.824 422.661 334.962 422.277 335.238C421.893 335.514 421.701 335.88 421.701 336.336ZM437.041 339V338.136C436.657 338.46 436.225 338.712 435.745 338.892C435.265 339.06 434.761 339.144 434.233 339.144C433.585 339.144 432.979 339.024 432.415 338.784C431.851 338.532 431.359 338.196 430.939 337.776C430.531 337.356 430.207 336.858 429.967 336.282C429.727 335.694 429.607 335.07 429.607 334.41C429.607 333.75 429.727 333.132 429.967 332.556C430.207 331.98 430.531 331.482 430.939 331.062C431.359 330.642 431.857 330.312 432.433 330.072C433.009 329.82 433.621 329.694 434.269 329.694C434.773 329.694 435.259 329.772 435.727 329.928C436.195 330.084 436.627 330.306 437.023 330.594V326.4L438.823 326.004V339H437.041ZM431.371 334.392C431.371 335.292 431.671 336.048 432.271 336.66C432.871 337.272 433.609 337.578 434.485 337.578C435.001 337.578 435.475 337.482 435.907 337.29C436.351 337.098 436.723 336.828 437.023 336.48V332.322C436.723 331.986 436.351 331.722 435.907 331.53C435.463 331.338 434.989 331.242 434.485 331.242C433.609 331.242 432.871 331.542 432.271 332.142C431.671 332.742 431.371 333.492 431.371 334.392Z" fill="white"/>
<path d="M284 242.25C283.586 242.25 283.25 241.914 283.25 241.5V237.75H279.5C279.086 237.75 278.75 237.414 278.75 237C278.75 236.586 279.086 236.25 279.5 236.25H283.25V232.5C283.25 232.086 283.586 231.75 284 231.75C284.414 231.75 284.75 232.086 284.75 232.5V236.25H288.5C288.914 236.25 289.25 236.586 289.25 237C289.25 237.414 288.914 237.75 288.5 237.75H284.75V241.5C284.75 241.914 284.414 242.25 284 242.25Z" fill="black"/>
<path d="M284 249C277.383 249 272 243.617 272 237C272 230.383 277.383 225 284 225C290.617 225 296 230.383 296 237C296 243.617 290.617 249 284 249ZM284 226.5C278.21 226.5 273.5 231.21 273.5 237C273.5 242.79 278.21 247.5 284 247.5C289.79 247.5 294.5 242.79 294.5 237C294.5 231.21 289.79 226.5 284 226.5Z" fill="black"/>
<path d="M304.305 243L308.945 231.8H310.913L315.489 243H313.665L312.369 239.72H307.361L306.049 243H304.305ZM307.921 238.328H311.825L309.873 233.416L307.921 238.328ZM322.254 243V242.232C321.913 242.52 321.529 242.744 321.102 242.904C320.676 243.053 320.228 243.128 319.758 243.128C319.182 243.128 318.644 243.021 318.142 242.808C317.641 242.584 317.204 242.285 316.83 241.912C316.468 241.539 316.18 241.096 315.966 240.584C315.753 240.061 315.646 239.507 315.646 238.92C315.646 238.333 315.753 237.784 315.966 237.272C316.18 236.76 316.468 236.317 316.83 235.944C317.204 235.571 317.646 235.277 318.158 235.064C318.67 234.84 319.214 234.728 319.79 234.728C320.238 234.728 320.67 234.797 321.086 234.936C321.502 235.075 321.886 235.272 322.238 235.528V231.8L323.838 231.448V243H322.254ZM317.214 238.904C317.214 239.704 317.481 240.376 318.014 240.92C318.548 241.464 319.204 241.736 319.982 241.736C320.441 241.736 320.862 241.651 321.246 241.48C321.641 241.309 321.972 241.069 322.238 240.76V237.064C321.972 236.765 321.641 236.531 321.246 236.36C320.852 236.189 320.43 236.104 319.982 236.104C319.204 236.104 318.548 236.371 318.014 236.904C317.481 237.437 317.214 238.104 317.214 238.904ZM331.973 243V242.232C331.632 242.52 331.248 242.744 330.821 242.904C330.394 243.053 329.946 243.128 329.477 243.128C328.901 243.128 328.362 243.021 327.861 242.808C327.36 242.584 326.922 242.285 326.549 241.912C326.186 241.539 325.898 241.096 325.685 240.584C325.472 240.061 325.365 239.507 325.365 238.92C325.365 238.333 325.472 237.784 325.685 237.272C325.898 236.76 326.186 236.317 326.549 235.944C326.922 235.571 327.365 235.277 327.877 235.064C328.389 234.84 328.933 234.728 329.509 234.728C329.957 234.728 330.389 234.797 330.805 234.936C331.221 235.075 331.605 235.272 331.957 235.528V231.8L333.557 231.448V243H331.973ZM326.933 238.904C326.933 239.704 327.2 240.376 327.733 240.92C328.266 241.464 328.922 241.736 329.701 241.736C330.16 241.736 330.581 241.651 330.965 241.48C331.36 241.309 331.69 241.069 331.957 240.76V237.064C331.69 236.765 331.36 236.531 330.965 236.36C330.57 236.189 330.149 236.104 329.701 236.104C328.922 236.104 328.266 236.371 327.733 236.904C327.2 237.437 326.933 238.104 326.933 238.904ZM338.796 243V234.856H340.396V235.624C340.694 235.325 341.036 235.096 341.42 234.936C341.804 234.776 342.225 234.696 342.684 234.696C343.228 234.696 343.718 234.819 344.156 235.064C344.593 235.299 344.94 235.629 345.196 236.056C345.526 235.608 345.921 235.272 346.38 235.048C346.849 234.813 347.372 234.696 347.948 234.696C348.844 234.696 349.574 234.995 350.14 235.592C350.716 236.179 351.004 236.941 351.004 237.88V243H349.404V238.152C349.404 237.512 349.233 237.011 348.892 236.648C348.561 236.275 348.108 236.088 347.532 236.088C347.137 236.088 346.78 236.179 346.46 236.36C346.14 236.541 345.862 236.813 345.628 237.176C345.649 237.283 345.665 237.4 345.676 237.528C345.686 237.645 345.692 237.763 345.692 237.88V243H344.108V238.152C344.108 237.512 343.937 237.011 343.596 236.648C343.265 236.275 342.812 236.088 342.236 236.088C341.852 236.088 341.505 236.173 341.196 236.344C340.886 236.504 340.62 236.749 340.396 237.08V243H338.796ZM352.474 238.92C352.474 238.333 352.581 237.784 352.794 237.272C353.018 236.749 353.322 236.301 353.706 235.928C354.09 235.544 354.538 235.245 355.05 235.032C355.573 234.808 356.128 234.696 356.714 234.696C357.301 234.696 357.85 234.808 358.362 235.032C358.885 235.245 359.333 235.544 359.706 235.928C360.09 236.301 360.389 236.749 360.602 237.272C360.826 237.784 360.938 238.333 360.938 238.92C360.938 239.517 360.826 240.077 360.602 240.6C360.389 241.112 360.09 241.56 359.706 241.944C359.333 242.317 358.885 242.616 358.362 242.84C357.85 243.053 357.301 243.16 356.714 243.16C356.128 243.16 355.573 243.053 355.05 242.84C354.538 242.616 354.09 242.317 353.706 241.944C353.322 241.56 353.018 241.112 352.794 240.6C352.581 240.077 352.474 239.517 352.474 238.92ZM356.714 241.752C357.45 241.752 358.074 241.48 358.586 240.936C359.109 240.381 359.37 239.709 359.37 238.92C359.37 238.131 359.109 237.464 358.586 236.92C358.074 236.376 357.45 236.104 356.714 236.104C355.978 236.104 355.349 236.376 354.826 236.92C354.304 237.464 354.042 238.131 354.042 238.92C354.042 239.709 354.298 240.381 354.81 240.936C355.333 241.48 355.968 241.752 356.714 241.752ZM362.452 243V234.856H364.052V235.896C364.297 235.501 364.612 235.203 364.996 235C365.38 234.787 365.812 234.68 366.292 234.68C366.462 234.68 366.612 234.691 366.74 234.712C366.868 234.733 366.99 234.765 367.108 234.808V236.248C366.958 236.195 366.804 236.152 366.644 236.12C366.484 236.088 366.324 236.072 366.164 236.072C365.694 236.072 365.273 236.2 364.9 236.456C364.537 236.701 364.254 237.069 364.052 237.56V243H362.452ZM374.945 242.072C374.476 242.435 373.985 242.707 373.473 242.888C372.961 243.059 372.401 243.144 371.793 243.144C371.196 243.144 370.636 243.037 370.113 242.824C369.591 242.6 369.137 242.301 368.753 241.928C368.369 241.555 368.065 241.112 367.841 240.6C367.628 240.077 367.521 239.517 367.521 238.92C367.521 238.333 367.628 237.784 367.841 237.272C368.055 236.76 368.343 236.317 368.705 235.944C369.068 235.571 369.5 235.277 370.001 235.064C370.503 234.84 371.036 234.728 371.601 234.728C372.156 234.728 372.673 234.84 373.153 235.064C373.644 235.277 374.06 235.576 374.401 235.96C374.753 236.333 375.031 236.781 375.233 237.304C375.436 237.827 375.537 238.387 375.537 238.984V239.448H369.105C369.212 240.12 369.521 240.68 370.033 241.128C370.545 241.565 371.153 241.784 371.857 241.784C372.252 241.784 372.631 241.72 372.993 241.592C373.356 241.464 373.665 241.288 373.921 241.064L374.945 242.072ZM371.569 236.072C370.961 236.072 370.428 236.275 369.969 236.68C369.521 237.085 369.239 237.608 369.121 238.248H373.953C373.836 237.629 373.553 237.112 373.105 236.696C372.668 236.28 372.156 236.072 371.569 236.072ZM381.205 233.544C380.938 233.544 380.709 233.448 380.517 233.256C380.325 233.053 380.229 232.819 380.229 232.552C380.229 232.285 380.325 232.056 380.517 231.864C380.709 231.661 380.938 231.56 381.205 231.56C381.472 231.56 381.701 231.661 381.893 231.864C382.096 232.056 382.197 232.285 382.197 232.552C382.197 232.819 382.096 233.053 381.893 233.256C381.701 233.448 381.472 233.544 381.205 233.544ZM382.005 234.856V243H380.405V234.856H382.005ZM383.889 243V234.856H385.489V235.672C385.809 235.352 386.172 235.112 386.577 234.952C386.993 234.781 387.447 234.696 387.937 234.696C388.865 234.696 389.628 234.995 390.225 235.592C390.823 236.179 391.121 236.941 391.121 237.88V243H389.521V238.152C389.521 237.512 389.335 237.011 388.961 236.648C388.599 236.275 388.113 236.088 387.505 236.088C387.079 236.088 386.689 236.179 386.337 236.36C385.996 236.541 385.713 236.803 385.489 237.144V243H383.889ZM397.367 240.984V236.2H395.639V234.856H397.367V232.776L398.951 232.392V234.856H401.351V236.2H398.951V240.616C398.951 241.032 399.042 241.325 399.223 241.496C399.415 241.667 399.725 241.752 400.151 241.752C400.375 241.752 400.573 241.741 400.743 241.72C400.925 241.688 401.117 241.635 401.319 241.56V242.904C401.106 242.979 400.855 243.037 400.567 243.08C400.29 243.123 400.034 243.144 399.799 243.144C399.01 243.144 398.407 242.963 397.991 242.6C397.575 242.227 397.367 241.688 397.367 240.984ZM402.53 243V231.8L404.13 231.448V235.672C404.45 235.352 404.813 235.112 405.218 234.952C405.634 234.781 406.087 234.696 406.578 234.696C407.506 234.696 408.269 234.995 408.866 235.592C409.463 236.179 409.762 236.941 409.762 237.88V243H408.162V238.152C408.162 237.512 407.975 237.011 407.602 236.648C407.239 236.275 406.754 236.088 406.146 236.088C405.719 236.088 405.33 236.179 404.978 236.36C404.637 236.541 404.354 236.803 404.13 237.144V243H402.53ZM418.664 242.072C418.195 242.435 417.704 242.707 417.192 242.888C416.68 243.059 416.12 243.144 415.512 243.144C414.915 243.144 414.355 243.037 413.832 242.824C413.309 242.6 412.856 242.301 412.472 241.928C412.088 241.555 411.784 241.112 411.56 240.6C411.347 240.077 411.24 239.517 411.24 238.92C411.24 238.333 411.347 237.784 411.56 237.272C411.773 236.76 412.061 236.317 412.424 235.944C412.787 235.571 413.219 235.277 413.72 235.064C414.221 234.84 414.755 234.728 415.32 234.728C415.875 234.728 416.392 234.84 416.872 235.064C417.363 235.277 417.779 235.576 418.12 235.96C418.472 236.333 418.749 236.781 418.952 237.304C419.155 237.827 419.256 238.387 419.256 238.984V239.448H412.824C412.931 240.12 413.24 240.68 413.752 241.128C414.264 241.565 414.872 241.784 415.576 241.784C415.971 241.784 416.349 241.72 416.712 241.592C417.075 241.464 417.384 241.288 417.64 241.064L418.664 242.072ZM415.288 236.072C414.68 236.072 414.147 236.275 413.688 236.68C413.24 237.085 412.957 237.608 412.84 238.248H417.672C417.555 237.629 417.272 237.112 416.824 236.696C416.387 236.28 415.875 236.072 415.288 236.072ZM423.356 241.944L424.22 240.888C424.646 241.219 425.078 241.475 425.516 241.656C425.964 241.827 426.417 241.912 426.876 241.912C427.452 241.912 427.921 241.8 428.284 241.576C428.646 241.352 428.828 241.059 428.828 240.696C428.828 240.408 428.721 240.179 428.508 240.008C428.294 239.837 427.964 239.72 427.516 239.656L426.044 239.448C425.244 239.331 424.636 239.085 424.22 238.712C423.814 238.328 423.612 237.821 423.612 237.192C423.612 236.456 423.905 235.864 424.492 235.416C425.078 234.957 425.846 234.728 426.796 234.728C427.393 234.728 427.958 234.813 428.492 234.984C429.036 235.155 429.564 235.416 430.076 235.768L429.26 236.824C428.812 236.525 428.374 236.312 427.948 236.184C427.532 236.045 427.11 235.976 426.684 235.976C426.193 235.976 425.798 236.077 425.5 236.28C425.201 236.483 425.052 236.749 425.052 237.08C425.052 237.379 425.153 237.608 425.356 237.768C425.569 237.917 425.916 238.029 426.396 238.104L427.868 238.312C428.668 238.429 429.276 238.68 429.692 239.064C430.118 239.448 430.332 239.955 430.332 240.584C430.332 240.947 430.241 241.288 430.06 241.608C429.889 241.917 429.649 242.184 429.34 242.408C429.041 242.632 428.684 242.813 428.268 242.952C427.852 243.08 427.404 243.144 426.924 243.144C426.22 243.144 425.558 243.043 424.94 242.84C424.332 242.637 423.804 242.339 423.356 241.944ZM434.215 243.144C433.33 243.144 432.61 242.915 432.055 242.456C431.501 241.997 431.223 241.4 431.223 240.664C431.223 239.896 431.517 239.293 432.103 238.856C432.69 238.408 433.495 238.184 434.519 238.184C434.914 238.184 435.298 238.227 435.671 238.312C436.045 238.387 436.402 238.493 436.743 238.632V237.768C436.743 237.192 436.573 236.76 436.231 236.472C435.89 236.184 435.399 236.04 434.759 236.04C434.386 236.04 433.997 236.099 433.591 236.216C433.186 236.323 432.733 236.493 432.231 236.728L431.639 235.528C432.247 235.24 432.823 235.032 433.367 234.904C433.911 234.765 434.45 234.696 434.983 234.696C436.039 234.696 436.855 234.952 437.431 235.464C438.018 235.965 438.311 236.68 438.311 237.608V243H436.743V242.296C436.381 242.584 435.991 242.797 435.575 242.936C435.159 243.075 434.706 243.144 434.215 243.144ZM432.759 240.632C432.759 241.027 432.925 241.347 433.255 241.592C433.597 241.837 434.039 241.96 434.583 241.96C435.01 241.96 435.405 241.896 435.767 241.768C436.13 241.64 436.455 241.448 436.743 241.192V239.784C436.434 239.613 436.109 239.491 435.767 239.416C435.426 239.331 435.053 239.288 434.647 239.288C434.071 239.288 433.613 239.411 433.271 239.656C432.93 239.901 432.759 240.227 432.759 240.632ZM440.155 243V234.856H441.755V235.624C442.054 235.325 442.395 235.096 442.779 234.936C443.163 234.776 443.584 234.696 444.043 234.696C444.587 234.696 445.078 234.819 445.515 235.064C445.952 235.299 446.299 235.629 446.555 236.056C446.886 235.608 447.28 235.272 447.739 235.048C448.208 234.813 448.731 234.696 449.307 234.696C450.203 234.696 450.934 234.995 451.499 235.592C452.075 236.179 452.363 236.941 452.363 237.88V243H450.763V238.152C450.763 237.512 450.592 237.011 450.251 236.648C449.92 236.275 449.467 236.088 448.891 236.088C448.496 236.088 448.139 236.179 447.819 236.36C447.499 236.541 447.222 236.813 446.987 237.176C447.008 237.283 447.024 237.4 447.035 237.528C447.046 237.645 447.051 237.763 447.051 237.88V243H445.467V238.152C445.467 237.512 445.296 237.011 444.955 236.648C444.624 236.275 444.171 236.088 443.595 236.088C443.211 236.088 442.864 236.173 442.555 236.344C442.246 236.504 441.979 236.749 441.755 237.08V243H440.155ZM461.258 242.072C460.788 242.435 460.298 242.707 459.786 242.888C459.274 243.059 458.714 243.144 458.106 243.144C457.508 243.144 456.948 243.037 456.426 242.824C455.903 242.6 455.45 242.301 455.066 241.928C454.682 241.555 454.378 241.112 454.154 240.6C453.94 240.077 453.834 239.517 453.834 238.92C453.834 238.333 453.94 237.784 454.154 237.272C454.367 236.76 454.655 236.317 455.018 235.944C455.38 235.571 455.812 235.277 456.314 235.064C456.815 234.84 457.348 234.728 457.914 234.728C458.468 234.728 458.986 234.84 459.466 235.064C459.956 235.277 460.372 235.576 460.714 235.96C461.066 236.333 461.343 236.781 461.546 237.304C461.748 237.827 461.85 238.387 461.85 238.984V239.448H455.418C455.524 240.12 455.834 240.68 456.346 241.128C456.858 241.565 457.466 241.784 458.17 241.784C458.564 241.784 458.943 241.72 459.306 241.592C459.668 241.464 459.978 241.288 460.234 241.064L461.258 242.072ZM457.882 236.072C457.274 236.072 456.74 236.275 456.282 236.68C455.834 237.085 455.551 237.608 455.434 238.248H460.266C460.148 237.629 459.866 237.112 459.418 236.696C458.98 236.28 458.468 236.072 457.882 236.072ZM466.045 234.856H467.933V233.624C467.933 232.781 468.168 232.136 468.637 231.688C469.117 231.229 469.805 231 470.701 231C470.915 231 471.117 231.016 471.309 231.048C471.501 231.069 471.683 231.101 471.853 231.144V232.536C471.661 232.483 471.491 232.445 471.341 232.424C471.192 232.403 471.027 232.392 470.845 232.392C470.408 232.392 470.077 232.499 469.853 232.712C469.64 232.915 469.533 233.229 469.533 233.656V234.856H471.853V236.2H469.533V243H467.933V236.2H466.045V234.856ZM472.365 238.92C472.365 238.333 472.472 237.784 472.685 237.272C472.909 236.749 473.213 236.301 473.597 235.928C473.981 235.544 474.429 235.245 474.941 235.032C475.464 234.808 476.018 234.696 476.605 234.696C477.192 234.696 477.741 234.808 478.253 235.032C478.776 235.245 479.224 235.544 479.597 235.928C479.981 236.301 480.28 236.749 480.493 237.272C480.717 237.784 480.829 238.333 480.829 238.92C480.829 239.517 480.717 240.077 480.493 240.6C480.28 241.112 479.981 241.56 479.597 241.944C479.224 242.317 478.776 242.616 478.253 242.84C477.741 243.053 477.192 243.16 476.605 243.16C476.018 243.16 475.464 243.053 474.941 242.84C474.429 242.616 473.981 242.317 473.597 241.944C473.213 241.56 472.909 241.112 472.685 240.6C472.472 240.077 472.365 239.517 472.365 238.92ZM476.605 241.752C477.341 241.752 477.965 241.48 478.477 240.936C479 240.381 479.261 239.709 479.261 238.92C479.261 238.131 479 237.464 478.477 236.92C477.965 236.376 477.341 236.104 476.605 236.104C475.869 236.104 475.24 236.376 474.717 236.92C474.194 237.464 473.933 238.131 473.933 238.92C473.933 239.709 474.189 240.381 474.701 240.936C475.224 241.48 475.858 241.752 476.605 241.752ZM483.942 231.448V243H482.342V231.8L483.942 231.448ZM492.067 243V242.232C491.725 242.52 491.341 242.744 490.915 242.904C490.488 243.053 490.04 243.128 489.571 243.128C488.995 243.128 488.456 243.021 487.955 242.808C487.453 242.584 487.016 242.285 486.643 241.912C486.28 241.539 485.992 241.096 485.779 240.584C485.565 240.061 485.459 239.507 485.459 238.92C485.459 238.333 485.565 237.784 485.779 237.272C485.992 236.76 486.28 236.317 486.643 235.944C487.016 235.571 487.459 235.277 487.971 235.064C488.483 234.84 489.027 234.728 489.603 234.728C490.051 234.728 490.483 234.797 490.899 234.936C491.315 235.075 491.699 235.272 492.051 235.528V231.8L493.651 231.448V243H492.067ZM487.027 238.904C487.027 239.704 487.293 240.376 487.827 240.92C488.36 241.464 489.016 241.736 489.795 241.736C490.253 241.736 490.675 241.651 491.059 241.48C491.453 241.309 491.784 241.069 492.051 240.76V237.064C491.784 236.765 491.453 236.531 491.059 236.36C490.664 236.189 490.243 236.104 489.795 236.104C489.016 236.104 488.36 236.371 487.827 236.904C487.293 237.437 487.027 238.104 487.027 238.904ZM502.602 242.072C502.132 242.435 501.642 242.707 501.13 242.888C500.618 243.059 500.058 243.144 499.45 243.144C498.852 243.144 498.292 243.037 497.77 242.824C497.247 242.6 496.794 242.301 496.41 241.928C496.026 241.555 495.722 241.112 495.498 240.6C495.284 240.077 495.178 239.517 495.178 238.92C495.178 238.333 495.284 237.784 495.498 237.272C495.711 236.76 495.999 236.317 496.362 235.944C496.724 235.571 497.156 235.277 497.658 235.064C498.159 234.84 498.692 234.728 499.258 234.728C499.812 234.728 500.33 234.84 500.81 235.064C501.3 235.277 501.716 235.576 502.058 235.96C502.41 236.333 502.687 236.781 502.89 237.304C503.092 237.827 503.194 238.387 503.194 238.984V239.448H496.762C496.868 240.12 497.178 240.68 497.69 241.128C498.202 241.565 498.81 241.784 499.514 241.784C499.908 241.784 500.287 241.72 500.65 241.592C501.012 241.464 501.322 241.288 501.578 241.064L502.602 242.072ZM499.226 236.072C498.618 236.072 498.084 236.275 497.626 236.68C497.178 237.085 496.895 237.608 496.778 238.248H501.61C501.492 237.629 501.21 237.112 500.762 236.696C500.324 236.28 499.812 236.072 499.226 236.072ZM504.717 243V234.856H506.317V235.896C506.563 235.501 506.877 235.203 507.261 235C507.645 234.787 508.077 234.68 508.557 234.68C508.728 234.68 508.877 234.691 509.005 234.712C509.133 234.733 509.256 234.765 509.373 234.808V236.248C509.224 236.195 509.069 236.152 508.909 236.12C508.749 236.088 508.589 236.072 508.429 236.072C507.96 236.072 507.539 236.2 507.165 236.456C506.803 236.701 506.52 237.069 506.317 237.56V243H504.717Z" fill="black"/>
<defs>
<clipPath id="clip0">
<rect width="64" height="64" fill="white" transform="translate(359 72)"/>
</clipPath>
</defs>
</svg>
