<svg width="40" height="40" fill="none" xmlns="http://www.w3.org/2000/svg"><g clip-path="url(#clip0_9605_69835)" fill-rule="evenodd" clip-rule="evenodd"><path d="M21.25 0a18.75 18.75 0 1 1-9.276 35.028l-10.187 4.85a1.25 1.25 0 0 1-1.666-1.665l4.851-10.188A18.725 18.725 0 0 1 21.25 0zm0 1.25l-.002 1.25A16.225 16.225 0 0 0 7.45 27.298c.225.362.25.813.067 1.198l-3.624 7.61 7.61-3.623a1.25 1.25 0 0 1 1.197.067A16.25 16.25 0 1 0 21.252 2.5l-.002-1.25z" fill="var(--e-color-icon-stroke-1)"/><path d="M12.5 13.875c0-.621.56-1.125 1.25-1.125h15c.69 0 1.25.504 1.25 1.125S29.44 15 28.75 15h-15c-.69 0-1.25-.504-1.25-1.125z" fill="var(--e-color-icon-positive)"/><path d="M12.5 18.875c0-.621.56-1.125 1.25-1.125h15c.69 0 1.25.504 1.25 1.125S29.44 20 28.75 20h-15c-.69 0-1.25-.504-1.25-1.125zm0 5c0-.621.56-1.125 1.25-1.125h10c.69 0 1.25.504 1.25 1.125S24.44 25 23.75 25h-10c-.69 0-1.25-.504-1.25-1.125z" fill="var(--e-color-icon-stroke-1)"/></g><defs><clipPath id="clip0_9605_69835"><path fill="#fff" d="M0 0H40V40H0z"/></clipPath></defs></svg>