<svg width="40" height="40" fill="none" xmlns="http://www.w3.org/2000/svg"><g clip-path="url(#clip0_9605_69815)"><path d="M19.963 39.962A19.92 19.92 0 0 1 .01 20.792 19.851 19.851 0 0 1 5.284 6.438 19.853 19.853 0 0 1 19.163.018l.063-.001c.403 0 .783.203 1.017.541.245.357.288.805.118 1.202a4.951 4.951 0 0 0-.407 1.978 4.96 4.96 0 0 0 1.467 3.53 4.963 4.963 0 0 0 3.528 1.46 4.963 4.963 0 0 0 2.997-1.023c.218-.167.488-.258.762-.258a1.243 1.243 0 0 1 1.25 1.25v.041a5 5 0 0 0 4.993 4.99 4.928 4.928 0 0 0 2.275-.57 1.253 1.253 0 0 1 1.775.727c.548 1.71.863 3.49.937 5.287a19.843 19.843 0 0 1-5.275 14.353 19.85 19.85 0 0 1-13.879 6.42c-.273.012-.548.017-.821.017zM17.53 2.672A17.426 17.426 0 0 0 7.123 8.133a17.373 17.373 0 0 0-4.615 12.559 17.427 17.427 0 0 0 18.175 16.755 17.37 17.37 0 0 0 12.143-5.617 17.364 17.364 0 0 0 4.613-12.558 17.57 17.57 0 0 0-.458-3.332 7.436 7.436 0 0 1-2.018.29h-.009c-3.386 0-6.363-2.332-7.235-5.542a7.466 7.466 0 0 1-2.758.542 7.46 7.46 0 0 1-5.305-2.19 7.45 7.45 0 0 1-2.2-5.298c0-.36.025-.717.075-1.07z" fill="var(--e-color-icon-stroke-1)"/><path d="M12.455 22.48c-2.757 0-5-2.244-5-5 0-2.757 2.243-5 5-5s5 2.243 5 5c0 2.756-2.243 5-5 5zm0-7.5a2.503 2.503 0 0 0-2.5 2.5c0 1.378 1.122 2.5 2.5 2.5s2.5-1.122 2.5-2.5c0-1.379-1.122-2.5-2.5-2.5z" fill="var(--e-color-icon-positive)"/><path d="M23.705 32.48a3.753 3.753 0 0 1-3.75-3.75 3.753 3.753 0 0 1 3.75-3.75 3.754 3.754 0 0 1 3.75 3.75 3.753 3.753 0 0 1-3.75 3.75zm0-5a1.25 1.25 0 1 0 .001 2.5 1.25 1.25 0 0 0 0-2.5zm-11.871 2.5a1.875 1.875 0 1 0 0-3.75 1.875 1.875 0 0 0 0 3.75zm9.993-11.249a1.86 1.86 0 0 1-1.093-.353 1.863 1.863 0 0 1-.755-1.222 1.855 1.855 0 0 1 .326-1.393 1.861 1.861 0 0 1 1.525-.782c.924 0 1.702.662 1.85 1.575a1.87 1.87 0 0 1-1.853 2.175zm10 4.999a1.86 1.86 0 0 1-1.093-.354 1.877 1.877 0 0 1 1.097-3.397c.923 0 1.702.662 1.85 1.574a1.876 1.876 0 0 1-1.853 2.177z" fill="var(--e-color-icon-stroke-1)"/></g><defs><clipPath id="clip0_9605_69815"><path fill="#fff" d="M0 0h40v40H0z"/></clipPath></defs></svg>