<svg fill="none" height="40" width="40" xmlns="http://www.w3.org/2000/svg"><g clip-rule="evenodd" fill-rule="evenodd"><path d="m1.118 3.608a3.817 3.817 0 0 1 2.7-1.118h27.385a1.328 1.328 0 0 1 0 2.656h-27.386a1.162 1.162 0 0 0 -1.161 1.161v27.386a1.162 1.162 0 0 0 1.161 1.162h29.876a1.162 1.162 0 0 0 1.161-1.162v-14.938a1.328 1.328 0 0 1 2.656 0v14.938a3.817 3.817 0 0 1 -3.817 3.817h-29.876a3.817 3.817 0 0 1 -3.817-3.817v-27.386c0-1.012.402-1.983 1.118-2.699z" fill="var(--e-color-icon-stroke-1)"/><path d="m0 11.287c0-.734.594-1.328 1.328-1.328h21.161a1.328 1.328 0 1 1 0 2.655h-21.161a1.328 1.328 0 0 1 -1.328-1.328zm36.029-3.652a1.303 1.303 0 0 0 -.922.382l-9.215 9.215-.465 2.32 2.321-.463 9.214-9.214a1.31 1.31 0 0 0 -.434-2.14 1.303 1.303 0 0 0 -.5-.1zm-1.517-2.354a3.958 3.958 0 0 1 4.33.87 3.964 3.964 0 0 1 0 5.6l-9.5 9.5a1.327 1.327 0 0 1 -.679.363l-4.669.933a1.328 1.328 0 0 1 -1.562-1.563l.934-4.667c.052-.257.178-.493.364-.678l9.498-9.498c.367-.368.804-.66 1.285-.86z" fill="var(--e-color-icon-stroke-1)"/><path d="m7.469 21.245c0-.733.594-1.328 1.328-1.328h7.468a1.328 1.328 0 1 1 0 2.656h-7.468a1.328 1.328 0 0 1 -1.328-1.328z" fill="var(--e-color-icon-positive)"/><path d="m7.469 28.714c0-.733.594-1.328 1.328-1.328h16.182a1.328 1.328 0 1 1 0 2.656h-16.182a1.328 1.328 0 0 1 -1.328-1.328z" fill="var(--e-color-icon-stroke-1)"/></g></svg>