<svg width="40" height="40" fill="none" xmlns="http://www.w3.org/2000/svg"><g clip-path="url(#clip0_9630_69449)"><path fill-rule="evenodd" clip-rule="evenodd" d="M1.098 3.598A3.75 3.75 0 0 1 3.75 2.5h7.5A3.75 3.75 0 0 1 15 6.25V7.5h16.25A3.75 3.75 0 0 1 35 11.25V15h1.25a3.751 3.751 0 0 1 3.628 4.701l-3.664 14.99-.006.024a3.75 3.75 0 0 1-3.624 2.785H4.078c-.13 0-.255-.02-.373-.057A4.083 4.083 0 0 1 0 33.433V6.25a3.75 3.75 0 0 1 1.098-2.652zM7.83 35h24.754a1.251 1.251 0 0 0 1.205-.918l3.663-14.986.007-.024A1.25 1.25 0 0 0 36.25 17.5H13.13a1.254 1.254 0 0 0-1.196.879l-3.91 16.063-.012.044a3.97 3.97 0 0 1-.183.514zM32.5 15v-3.75A1.25 1.25 0 0 0 31.25 10h-17.5c-.69 0-1.25-.56-1.25-1.25v-2.5A1.25 1.25 0 0 0 11.25 5h-7.5A1.25 1.25 0 0 0 2.5 6.25v27.157a1.583 1.583 0 0 0 3.102.419l3.912-16.07A3.75 3.75 0 0 1 13.132 15" fill="var(--e-color-icon-stroke-1)"/><path d="M36.25 7.5c-.69 0-1.25-.56-1.25-1.25V5h-1.25a1.25 1.25 0 0 1 0-2.5H35V1.25a1.25 1.25 0 0 1 2.5 0V2.5h1.25a1.25 1.25 0 0 1 0 2.5H37.5v1.25c0 .69-.56 1.25-1.25 1.25z" fill="var(--e-color-icon-positive)"/></g><defs><clipPath id="clip0_9630_69449"><path fill="#fff" d="M0 0h40v40H0z"/></clipPath></defs></svg>