<svg width="40" height="40" fill="none" xmlns="http://www.w3.org/2000/svg"><g clip-path="url(#clip0_9605_69798)"><path d="M17.493 40c-1.38 0-2.506-1.163-2.506-2.592V21.37C6.747 19.161.617 11.586.006 2.772A2.629 2.629 0 0 1 .733.76 2.45 2.45 0 0 1 2.505 0h34.99a2.455 2.455 0 0 1 1.882.883c.44.52.661 1.187.618 1.88 0 .006 0 .013-.002.018-.616 8.812-6.748 16.385-14.987 18.59v11.716a2.614 2.614 0 0 1-.903 1.993l-5.008 4.319a2.456 2.456 0 0 1-1.602.601zM2.507 2.592c.58 8.087 6.324 14.86 13.982 16.48.582.122 1.002.656 1.002 1.27v17.066l5.01-4.32V20.34c0-.613.421-1.147 1.002-1.27 7.676-1.62 13.429-8.397 13.992-16.482l-34.988.003z" fill="var(--e-color-icon-stroke-1)"/></g><path fill-rule="evenodd" clip-rule="evenodd" d="M6.941 5.548a1.25 1.25 0 0 1 1.677.56c.844 1.686 1.605 3.192 2.82 4.5 1.184 1.276 2.855 2.413 5.572 3.19a1.25 1.25 0 1 1-.687 2.404c-3.115-.89-5.195-2.253-6.718-3.893-1.476-1.59-2.378-3.393-3.193-5.024l-.03-.06a1.25 1.25 0 0 1 .56-1.676z" fill="var(--e-color-icon-positive)"/><defs><clipPath id="clip0_9605_69798"><path fill="#fff" d="M0 0H40V40H0z"/></clipPath></defs></svg>