<svg fill="none" height="40" width="40" xmlns="http://www.w3.org/2000/svg" xmlns:xlink="http://www.w3.org/1999/xlink"><clipPath id="a"><path d="m0 0h40v40h-40z"/></clipPath><mask id="b" fill="#fff"><path clip-rule="evenodd" d="m0 31.25a3.756 3.756 0 0 0 3.754 3.75h8.76a1.251 1.251 0 1 0 0-2.5h-8.76c-.69 0-1.251-.56-1.251-1.25v-27.5c0-.69.56-1.25 1.251-1.25h17.736c.333 0 .647.13.884.365l4.792 4.787c.232.233.366.555.366.883v5.215a1.251 1.251 0 0 0 2.502 0v-5.217c0-1-.39-1.941-1.1-2.65l-4.791-4.786a3.734 3.734 0 0 0 -2.653-1.097h-17.736a3.757 3.757 0 0 0 -3.754 3.75zm17.889 8.383a1.24 1.24 0 0 0 1.13.34l6.256-1.25c.244-.048.468-.166.641-.341l12.731-12.717a.73.73 0 0 0 .035-.037c1.774-1.925 1.76-4.876-.06-6.741a4.757 4.757 0 0 0 -3.37-1.387c-1.278 0-2.48.497-3.38 1.398l-12.732 12.717a1.245 1.245 0 0 0 -.342.64l-1.251 6.25c-.084.41.045.833.342 1.128zm6.524-3.285-4.045.809.81-4.04 12.464-12.45a2.258 2.258 0 0 1 1.608-.667v-.625l.002.625a2.236 2.236 0 0 1 1.585.641l.013.013.014.014c.842.865.834 2.329.001 3.242zm-17.746-19.515a1 1 0 0 1 1-1h11.333a1 1 0 0 1 1 1v.5a1 1 0 0 1 -1 1h-11.333a1 1 0 0 1 -1-1zm1 4.834a1 1 0 0 0 -1 1v.5a1 1 0 0 0 1 1h6.333a1 1 0 0 0 1-1v-.5a1 1 0 0 0 -1-1z" fill="#fff" fill-rule="evenodd"/></mask><g clip-path="url(#a)"><path d="m13.386 6.216c.186-.24.483-.383.792-.383.214 0 .42.067.592.192.21.153.349.377.386.633a.937.937 0 0 1 -.19.713l-3.803 4.912a.997.997 0 0 1 -.721.381h-.002c-.021.001-.045.003-.068.003a.995.995 0 0 1 -.698-.281l-2.717-2.632a.939.939 0 0 1 0-1.36.995.995 0 0 1 .698-.28c.263 0 .512.1.698.28l1.912 1.852 3.12-4.03z" fill="var(--e-color-icon-positive)"/><path clip-rule="evenodd" d="m0 31.25a3.756 3.756 0 0 0 3.754 3.75h8.76a1.251 1.251 0 1 0 0-2.5h-8.76c-.69 0-1.251-.56-1.251-1.25v-27.5c0-.69.56-1.25 1.251-1.25h17.736c.333 0 .647.13.884.365l4.792 4.787c.232.233.366.555.366.883v5.215a1.251 1.251 0 0 0 2.502 0v-5.217c0-1-.39-1.941-1.1-2.65l-4.791-4.786a3.734 3.734 0 0 0 -2.653-1.097h-17.736a3.757 3.757 0 0 0 -3.754 3.75zm17.889 8.383a1.24 1.24 0 0 0 1.13.34l6.256-1.25c.244-.048.468-.166.641-.341l12.731-12.717a.73.73 0 0 0 .035-.037c1.774-1.925 1.76-4.876-.06-6.741a4.757 4.757 0 0 0 -3.37-1.387c-1.278 0-2.48.497-3.38 1.398l-12.732 12.717a1.245 1.245 0 0 0 -.342.64l-1.251 6.25c-.084.41.045.833.342 1.128zm6.524-3.285-4.045.809.81-4.04 12.464-12.45a2.258 2.258 0 0 1 1.608-.667v-.625l.002.625a2.236 2.236 0 0 1 1.585.641l.013.013.014.014c.842.865.834 2.329.001 3.242zm-17.746-19.515a1 1 0 0 1 1-1h11.333a1 1 0 0 1 1 1v.5a1 1 0 0 1 -1 1h-11.333a1 1 0 0 1 -1-1zm1 4.834a1 1 0 0 0 -1 1v.5a1 1 0 0 0 1 1h6.333a1 1 0 0 0 1-1v-.5a1 1 0 0 0 -1-1z" fill="var(--e-color-icon-positive)" fill-rule="evenodd"/><path d="m22.374 2.865 1.767-1.769-.006-.006zm4.792 4.787 1.773-1.763-.006-.006zm1.769-1.769-1.767 1.77zm-4.792-4.786 1.766-1.77-.002-.001-1.764 1.77zm-6.254 38.536 1.773-1.762-.006-.006-.006-.006zm1.13.34-.489-2.451-.023.004-.024.006.537 2.441zm6.256-1.25-.486-2.452h-.004zm.641-.341-1.767-1.77-.008.01zm12.731-12.717 1.767 1.769zm.035-.037-1.838-1.694-.085.093-.076.1 2 1.501zm-.06-6.741 1.79-1.746-.014-.015-.016-.015zm-6.75.011 1.766 1.77.002-.002-1.769-1.768zm-12.732 12.717 1.767 1.769zm-.342.64 2.451.49.001-.002zm-1.251 6.25 2.45.498v-.007zm2.821-1.348-2.451-.491-.737 3.677 3.678-.735zm4.045-.809.49 2.452.741-.148.536-.535zm-3.236-3.231-1.766-1.77-.536.536-.149.743 2.451.49zm12.465-12.45 1.766 1.768.004-.003zm1.608-.667v2.5h2.5v-2.5zm0-.625 2.5-.007-5 .007zm.002.625-2.5.007.006 2.493h2.494zm1.577.632 1.998-1.503-.108-.143-.127-.127zm.008.01-1.819 1.714 1.82-1.715zm.013.012-1.785 1.75.005.006.005.005 1.775-1.76zm.014.014 1.79-1.744-.008-.008-.008-.009zm.001 3.242 1.767 1.769.041-.042.04-.043zm-33.11 8.59a1.256 1.256 0 0 1 -1.255-1.25h-5a6.256 6.256 0 0 0 6.254 6.25v-5zm8.76 0h-8.76v5h8.76zm-1.25 1.25c0-.694.562-1.25 1.25-1.25v5a3.751 3.751 0 0 0 3.75-3.75zm1.25 1.25a1.249 1.249 0 0 1 -1.25-1.25h5a3.751 3.751 0 0 0 -3.75-3.75zm-8.76 0h8.76v-5h-8.76zm-3.753-3.75a3.751 3.751 0 0 0 3.752 3.75v-5c.688 0 1.249.556 1.249 1.25h-5zm0-27.5v27.5h5v-27.5h-5zm3.752-3.75a3.751 3.751 0 0 0 -3.751 3.75h5c0 .693-.561 1.25-1.249 1.25zm17.736 0h-17.736v5h17.736zm2.645 1.09a3.748 3.748 0 0 0 -2.645-1.09v5c-.33 0-.648-.134-.877-.36l3.521-3.55zm4.798 4.793-4.793-4.787-3.534 3.538 4.794 4.786 3.534-3.537zm1.099 2.652c0-.994-.399-1.947-1.093-2.646l-3.546 3.525a1.238 1.238 0 0 1 -.361-.879zm0 5.215v-5.215h-5v5.215zm-1.249-1.25c.687 0 1.248.557 1.248 1.25h-5a3.751 3.751 0 0 0 3.752 3.75zm-1.249 1.25c0-.693.562-1.25 1.249-1.25v5a3.751 3.751 0 0 0 3.751-3.75zm0-5.217v5.217h5v-5.217zm-.366-.88c.24.24.366.545.366.88h5a6.222 6.222 0 0 0 -1.832-4.418l-3.534 3.537zm-4.792-4.788 4.792 4.787 3.534-3.537-4.793-4.787zm-.886-.365c.34 0 .647.127.888.368l3.53-3.542a6.233 6.233 0 0 0 -4.418-1.826zm-17.736 0h17.736v-5h-17.736v5zm-1.254 1.25c0-.684.563-1.25 1.254-1.25v-5a6.257 6.257 0 0 0 -6.254 6.25zm0 27.5v-27.5h-5v27.5zm16.273 6.25c.326 0 .65.131.889.37l-3.546 3.526a3.74 3.74 0 0 0 2.657 1.104zm-.29.032c.1-.022.198-.032.29-.032v5c.255 0 .517-.026.784-.085zm6.302-1.26-6.255 1.25.98 4.903 6.255-1.25zm-.644.35c.186-.189.415-.305.648-.35l.973 4.904a3.741 3.741 0 0 0 1.93-1.034zm12.74-12.726-12.732 12.717 3.534 3.537 12.731-12.716zm-.198.231a2.458 2.458 0 0 1 .121-.148l.042-.047.028-.03.007-.006 3.533 3.538.042-.042.049-.052.05-.055c.013-.015.066-.075.127-.156zm.15-3.495c.87.893.904 2.333.01 3.302l3.678 3.388c2.654-2.88 2.658-7.343-.109-10.18l-3.58 3.49zm-1.581-.632c.614 0 1.177.233 1.61.662l3.52-3.55a7.257 7.257 0 0 0 -5.13-2.112zm-1.612.666c.43-.431.995-.666 1.612-.666v-5a7.248 7.248 0 0 0 -5.15 2.131zm-12.733 12.717 12.731-12.717-3.533-3.538-12.732 12.717zm.343-.641a1.256 1.256 0 0 1 -.343.64l-3.534-3.537a3.745 3.745 0 0 0 -1.027 1.921zm-1.252 6.253 1.251-6.25-4.902-.982-1.252 6.25zm-.348-1.137c.3.298.431.728.346 1.145l-4.9-.997a3.74 3.74 0 0 0 1.03 3.4l3.524-3.547zm1.208 1.75 4.045-.81-.98-4.902-4.045.808.98 4.903zm-2.132-6.983-.81 4.04 4.903.982.81-4.04zm13.149-13.728-12.465 12.451 3.533 3.537 12.464-12.45-3.533-3.537zm3.375-1.397c-1.269 0-2.479.5-3.378 1.401l3.54 3.531a.236.236 0 0 1 -.162.068zm-2.5 1.875v.625h5v-.625zm5.002.618-.002-.625-5 .014.002.625zm.84-1.134a4.735 4.735 0 0 0 -3.34-1.359v5a.185.185 0 0 1 -.069-.015.36.36 0 0 1 -.117-.08zm.064.067a2.378 2.378 0 0 1 .171.204l-3.997 3.004c.068.09.128.157.138.167l.05.055zm-.022-.023a.29.29 0 0 1 .022.023l-3.638 3.43.047.049 3.57-3.502zm.004.004-.014-.014-3.549 3.522.014.014 3.55-3.522zm.075 6.687c1.668-1.83 1.764-4.799-.059-6.67l-3.581 3.489a.326.326 0 0 1 -.07-.107c-.01-.025-.01-.038-.01-.039l.001-.005a.12.12 0 0 1 .024-.036zm-12.534 12.523 12.454-12.437-3.533-3.54-12.454 12.44 3.534 3.537zm-18.511-24.784a3.5 3.5 0 0 0 -3.5 3.5h5a1.5 1.5 0 0 1 -1.5 1.5zm11.333 0h-11.334v5h11.333v-5zm3.5 3.5a3.5 3.5 0 0 0 -3.5-3.5v5a1.5 1.5 0 0 1 -1.5-1.5zm0 .5v-.5h-5v.5zm-3.5 3.5a3.5 3.5 0 0 0 3.5-3.5h-5a1.5 1.5 0 0 1 1.5-1.5zm-11.333 0h11.332v-5h-11.333v5zm-3.5-3.5a3.5 3.5 0 0 0 3.5 3.5v-5a1.5 1.5 0 0 1 1.5 1.5zm0-.5v.5h5v-.5zm5 5.834a1.5 1.5 0 0 1 -1.5 1.5v-5a3.5 3.5 0 0 0 -3.5 3.5zm0 .5v-.5h-5v.5zm-1.5-1.5a1.5 1.5 0 0 1 1.5 1.5h-5a3.5 3.5 0 0 0 3.5 3.5zm6.333 0h-6.334v5h6.333v-5zm-1.5 1.5a1.5 1.5 0 0 1 1.5-1.5v5a3.5 3.5 0 0 0 3.5-3.5zm0-.5v.5h5v-.5zm1.5 1.5a1.5 1.5 0 0 1 -1.5-1.5h5a3.5 3.5 0 0 0 -3.5-3.5zm-6.333 0h6.332v-5h-6.333v5z" fill="var(--e-color-icon-stroke-1)" mask="url(#b)"/></g></svg>