<svg width="40" height="40" fill="none" xmlns="http://www.w3.org/2000/svg"><g clip-path="url(#clip0_10056_90447)"><path d="M1.25 40a1.25 1.25 0 0 1 0-2.5H2.5v-5.417C2.5 30.935 3.435 30 4.583 30h4.585c1.149 0 2.084.935 2.084 2.083V37.5H15V17.083c0-1.148.935-2.083 2.083-2.083h4.585c1.149 0 2.084.935 2.084 2.083V37.5h3.75V24.583c0-1.146.933-2.081 2.08-2.083h4.586c1.149 0 2.084.935 2.084 2.083V37.5H37.5a1.25 1.25 0 0 1 0 2.5H1.25zm32.502-2.5V25h-3.75v12.5h3.75zm-12.5 0v-20H17.5v20h3.752zm-12.5 0v-5H5v5h3.752z" fill="var(--e-color-icon-stroke-1)"/><path d="M3.75 21.252A3.754 3.754 0 0 1 0 17.502a3.753 3.753 0 0 1 4.422-3.689l5.641-5.636A3.754 3.754 0 0 1 13.75 3.75 3.754 3.754 0 0 1 17.5 7.5v.047l5.702 1.525a3.738 3.738 0 0 1 4.78-1.147l4.57-3.573A3.755 3.755 0 0 1 36.252 0a3.755 3.755 0 0 1 3.75 3.75 3.754 3.754 0 0 1-3.75 3.75c-.92 0-1.794-.335-2.474-.933l-4.086 3.195c.203.468.31.975.31 1.488a3.754 3.754 0 0 1-3.75 3.75 3.755 3.755 0 0 1-3.744-3.523l-5.883-1.574a3.737 3.737 0 0 1-5.25.497l-4.728 4.723c.548.667.853 1.504.853 2.379a3.754 3.754 0 0 1-3.75 3.75zm0-5a1.25 1.25 0 1 0 0 2.5 1.25 1.25 0 0 0 0-2.5zM26.252 10a1.25 1.25 0 1 0 0 2.5 1.25 1.25 0 0 0 0-2.5zM13.75 6.252a1.25 1.25 0 1 0 0 2.5 1.25 1.25 0 0 0 0-2.5zM36.252 2.5c-.689 0-1.25.56-1.25 1.25S35.563 5 36.252 5a1.25 1.25 0 0 0 0-2.5z" fill="var(--e-color-icon-positive)"/></g><defs><clipPath id="clip0_10056_90447"><path fill="#fff" d="M0 0H40V40H0z"/></clipPath></defs></svg>