<svg fill="none" height="40" width="40" xmlns="http://www.w3.org/2000/svg" xmlns:xlink="http://www.w3.org/1999/xlink"><clipPath id="a"><path d="m0 0h40v40h-40z" transform="matrix(-1 -0 0 -1 40 40)"/></clipPath><g clip-path="url(#a)" clip-rule="evenodd" fill-rule="evenodd"><path d="m23.75 37.505c.69 0 1.25-.56 1.25-1.25v-2.5c0-.69-.56-1.25-1.25-1.25h-20c-.69 0-1.25.56-1.25 1.25v2.5c0 .69.56 1.25 1.25 1.25zm3.75-1.25a3.75 3.75 0 0 1 -3.75 3.75h-20a3.75 3.75 0 0 1 -3.75-3.75v-2.5a3.75 3.75 0 0 1 3.75-3.75h20a3.75 3.75 0 0 1 3.75 3.75zm-3.75-13.75c.69 0 1.25-.56 1.25-1.25v-2.5c0-.69-.56-1.25-1.25-1.25h-20c-.69 0-1.25.56-1.25 1.25v2.5c0 .69.56 1.25 1.25 1.25zm3.75-1.25a3.75 3.75 0 0 1 -3.75 3.75h-20a3.75 3.75 0 0 1 -3.75-3.75v-2.5a3.75 3.75 0 0 1 3.75-3.75h20a3.75 3.75 0 0 1 3.75 3.75zm-3.75-13.75c.69 0 1.25-.56 1.25-1.25v-2.5c0-.69-.56-1.25-1.25-1.25h-20c-.69 0-1.25.56-1.25 1.25v2.5c0 .69.56 1.25 1.25 1.25zm3.75-1.25a3.75 3.75 0 0 1 -3.75 3.75h-20a3.75 3.75 0 0 1 -3.75-3.75v-2.5a3.75 3.75 0 0 1 3.75-3.75h20a3.75 3.75 0 0 1 3.75 3.75zm8.75 31.25c.69 0 1.25-.56 1.25-1.25v-2.5c0-.69-.56-1.25-1.25-1.25h-2.5c-.69 0-1.25.56-1.25 1.25v2.5c0 .69.56 1.25 1.25 1.25zm3.75-1.25a3.75 3.75 0 0 1 -3.75 3.75h-2.5a3.75 3.75 0 0 1 -3.75-3.75v-2.5a3.75 3.75 0 0 1 3.75-3.75h2.5a3.75 3.75 0 0 1 3.75 3.75zm-3.75-13.75c.69 0 1.25-.56 1.25-1.25v-2.5c0-.69-.56-1.25-1.25-1.25h-2.5c-.69 0-1.25.56-1.25 1.25v2.5c0 .69.56 1.25 1.25 1.25zm3.75-1.25a3.75 3.75 0 0 1 -3.75 3.75h-2.5a3.75 3.75 0 0 1 -3.75-3.75v-2.5a3.75 3.75 0 0 1 3.75-3.75h2.5a3.75 3.75 0 0 1 3.75 3.75z" fill="var(--e-color-icon-stroke-1)"/><path d="m36.25 7.505c.69 0 1.25-.56 1.25-1.25v-2.5c0-.69-.56-1.25-1.25-1.25h-2.5c-.69 0-1.25.56-1.25 1.25v2.5c0 .69.56 1.25 1.25 1.25zm3.75-1.25a3.75 3.75 0 0 1 -3.75 3.75h-2.5a3.75 3.75 0 0 1 -3.75-3.75v-2.5a3.75 3.75 0 0 1 3.75-3.75h2.5a3.75 3.75 0 0 1 3.75 3.75z" fill="var(--e-color-icon-positive)"/></g></svg>