<svg width="40" height="40" fill="none" xmlns="http://www.w3.org/2000/svg"><g clip-path="url(#clip0_11770_109599)" fill-rule="evenodd" clip-rule="evenodd"><path d="M16.423 13.753c.463-.02.923.072 1.342.268l.004.002 6.628 3.131a3.113 3.113 0 0 1 0 5.692l-6.635 3.133a2.875 2.875 0 0 1-2.648-.111 2.69 2.69 0 0 1-1.364-2.317v-7.105a2.688 2.688 0 0 1 1.366-2.314c.4-.23.847-.36 1.307-.38zm.28 2.532a.37.37 0 0 0-.342.015l-.015.009a.188.188 0 0 0-.096.159v7.064a.19.19 0 0 0 .097.16l.011.007a.375.375 0 0 0 .345.016h.002l6.64-3.137.034-.016a.614.614 0 0 0-.035-1.14l-6.64-3.137z" fill="var(--e-color-icon-positive)"/><path d="M8.798 6.25a.048.048 0 0 0-.048.048v27.404c0 .026.022.048.048.048h22.404a.048.048 0 0 0 .048-.048V6.298a.048.048 0 0 0-.048-.048H8.798zm-2.548.048A2.548 2.548 0 0 1 8.798 3.75h22.404a2.548 2.548 0 0 1 2.548 2.548v27.404a2.548 2.548 0 0 1-2.548 2.548H8.798a2.548 2.548 0 0 1-2.548-2.548V6.298zM4.473 8.742A1.25 1.25 0 0 1 3.232 10a.737.737 0 0 0-.732.742v18.516a.736.736 0 0 0 .732.742 1.25 1.25 0 0 1-.017 2.5A3.238 3.238 0 0 1 0 29.246V10.754A3.237 3.237 0 0 1 3.215 7.5a1.25 1.25 0 0 1 1.258 1.242zm31.054 0A1.25 1.25 0 0 1 36.786 7.5 3.237 3.237 0 0 1 40 10.754v18.492a3.238 3.238 0 0 1-3.215 3.254 1.25 1.25 0 0 1-.017-2.5.736.736 0 0 0 .732-.742V10.742a.738.738 0 0 0-.732-.742 1.25 1.25 0 0 1-1.242-1.258z" fill="var(--e-color-icon-stroke-1)"/></g><defs><clipPath id="clip0_11770_109599"><path fill="#fff" d="M0 0H40V40H0z"/></clipPath></defs></svg>