<svg fill="none" height="40" width="40" xmlns="http://www.w3.org/2000/svg" xmlns:xlink="http://www.w3.org/1999/xlink"><clipPath id="a"><path d="m0 0h40v40h-40z"/></clipPath><g clip-path="url(#a)"><g clip-rule="evenodd" fill-rule="evenodd"><path d="m3.75 2.5a1.25 1.25 0 0 0 -1.25 1.25v15a1.25 1.25 0 0 0 1.25 1.25h11.25a1.25 1.25 0 1 1 0 2.5h-11.25a3.75 3.75 0 0 1 -3.75-3.75v-15a3.75 3.75 0 0 1 3.75-3.75h30a3.75 3.75 0 0 1 3.75 3.75v10a1.25 1.25 0 1 1 -2.5 0v-10a1.25 1.25 0 0 0 -1.25-1.25z" fill="var(--e-color-icon-stroke-1)"/><path d="m28.75 20a8.75 8.75 0 1 0 8.75 8.75 1.25 1.25 0 1 1 2.5 0 11.25 11.25 0 1 1 -11.25-11.25 1.25 1.25 0 1 1 0 2.5z" fill="var(--e-color-icon-stroke-1)"/><path d="m39.634 20.364a1.25 1.25 0 0 1 0 1.768l-9.116 9.116a2.498 2.498 0 0 1 -3.536 0l-2.866-2.864a1.25 1.25 0 1 1 1.768-1.768l2.866 2.864 9.116-9.116a1.25 1.25 0 0 1 1.768 0z" fill="var(--e-color-icon-positive)"/></g><path d="m26.236 9.151a1.998 1.998 0 0 1 1.875.186 2 2 0 1 1 -1.875-.186zm-9 0a1.998 1.998 0 0 1 1.875.186 2 2 0 1 1 -1.875-.186zm-9 0a1.998 1.998 0 0 1 1.875.186 2 2 0 1 1 -1.875-.186z" fill="var(--e-color-icon-stroke-1)"/></g></svg>