<svg width="40" height="40" viewBox="0 0 40 40" fill="none" xmlns="http://www.w3.org/2000/svg">
<path fill-rule="evenodd" clip-rule="evenodd" d="M2.91667 2.5C2.68655 2.5 2.5 2.68655 2.5 2.91667V37.0833C2.5 37.3134 2.68655 37.5 2.91667 37.5H37.0833C37.3134 37.5 37.5 37.3134 37.5 37.0833V2.91667C37.5 2.68655 37.3134 2.5 37.0833 2.5H2.91667ZM0 2.91667C0 1.30584 1.30584 0 2.91667 0H37.0833C38.6942 0 40 1.30584 40 2.91667V37.0833C40 38.6942 38.6942 40 37.0833 40H2.91667C1.30584 40 0 38.6942 0 37.0833V2.91667Z" fill="black"/>
<path fill-rule="evenodd" clip-rule="evenodd" d="M10.88 10.88V29.12H29.12V10.88H10.88ZM8 10.2222C8 8.99492 8.99492 8 10.2222 8H29.7778C31.0051 8 32 8.99492 32 10.2222V29.7778C32 31.0051 31.0051 32 29.7778 32H10.2222C8.99492 32 8 31.0051 8 29.7778V10.2222Z" fill="#29D305"/>
</svg>
