<svg width="40" height="40" viewBox="0 0 40 40" fill="none" xmlns="http://www.w3.org/2000/svg">
<path fill-rule="evenodd" clip-rule="evenodd" d="M0.286699 14.167C-0.496492 12.7832 0.41729 11 1.90956 11H5.94377C6.58768 11 7.18808 11.3541 7.54013 11.9414L11.6898 18.8645C12.1034 19.5545 12.1034 20.4455 11.6898 21.1355L7.54013 28.0586C7.18808 28.6459 6.58768 29 5.94377 29H1.90956C0.417295 29 -0.496494 27.2168 0.286698 25.833L3.58818 20L0.286699 14.167ZM2.07219 13.1758L5.31769 18.91C5.69594 19.5782 5.69594 20.4218 5.31769 21.09L2.07219 26.8242H5.89462L9.98503 20L5.89462 13.1758H2.07219Z" fill="black"/>
<path fill-rule="evenodd" clip-rule="evenodd" d="M14.2867 14.167C13.5035 12.7832 14.4173 11 15.9096 11H19.9438C20.5877 11 21.1881 11.3541 21.5401 11.9414L25.6898 18.8645C26.1034 19.5545 26.1034 20.4455 25.6898 21.1355L21.5401 28.0586C21.1881 28.6459 20.5877 29 19.9438 29H15.9096C14.4173 29 13.5035 27.2168 14.2867 25.833L17.5882 20L14.2867 14.167ZM16.0722 13.1758L19.3177 18.91C19.6959 19.5782 19.6959 20.4218 19.3177 21.09L16.0722 26.8242H19.8946L23.985 20L19.8946 13.1758H16.0722Z" fill="black"/>
<path fill-rule="evenodd" clip-rule="evenodd" d="M28.2867 14.167C27.5035 12.7832 28.4173 11 29.9096 11H33.9438C34.5877 11 35.1881 11.3541 35.5401 11.9414L39.6898 18.8645C40.1034 19.5545 40.1034 20.4455 39.6898 21.1355L35.5401 28.0586C35.1881 28.6459 34.5877 29 33.9438 29H29.9096C28.4173 29 27.5035 27.2168 28.2867 25.833L31.5882 20L28.2867 14.167ZM30.0722 13.1758L33.3177 18.91C33.6959 19.5782 33.6959 20.4218 33.3177 21.09L30.0722 26.8242H33.8946L37.985 20L33.8946 13.1758H30.0722Z" fill="#29D305"/>
</svg>
