<svg width="40" height="40" viewBox="0 0 40 40" fill="none" xmlns="http://www.w3.org/2000/svg">
<path fill-rule="evenodd" clip-rule="evenodd" d="M3.68627 8.4C2.94989 8.4 2.35294 9.00889 2.35294 9.76V30.24C2.35294 30.9911 2.94989 31.6 3.68627 31.6H36.3137C37.0501 31.6 37.6471 30.9911 37.6471 30.24V9.76C37.6471 9.00889 37.0501 8.4 36.3137 8.4H3.68627ZM0 9.76C0 7.68341 1.6504 6 3.68627 6H36.3137C38.3496 6 40 7.68341 40 9.76V30.24C40 32.3166 38.3496 34 36.3137 34H3.68627C1.6504 34 0 32.3166 0 30.24V9.76Z" fill="black"/>
<path fill-rule="evenodd" clip-rule="evenodd" d="M6.27441 22.25C6.27441 21.5596 6.80114 21 7.45088 21H13.7254C14.3751 21 14.9019 21.5596 14.9019 22.25C14.9019 22.9404 14.3751 23.5 13.7254 23.5H7.45088C6.80114 23.5 6.27441 22.9404 6.27441 22.25Z" fill="black"/>
<path fill-rule="evenodd" clip-rule="evenodd" d="M6.27441 27.25C6.27441 26.5596 6.81807 26 7.4887 26H22.0601C22.7308 26 23.2744 26.5596 23.2744 27.25C23.2744 27.9404 22.7308 28.5 22.0601 28.5H7.4887C6.81807 28.5 6.27441 27.9404 6.27441 27.25Z" fill="black"/>
<path fill-rule="evenodd" clip-rule="evenodd" d="M27.4603 13.381C27.4165 13.381 27.381 13.4165 27.381 13.4603V18.5397C27.381 18.5835 27.4165 18.619 27.4603 18.619H32.5397C32.5835 18.619 32.619 18.5835 32.619 18.5397V13.4603C32.619 13.4165 32.5835 13.381 32.5397 13.381H27.4603ZM25 13.4603C25 12.1015 26.1015 11 27.4603 11H32.5397C33.8985 11 35 12.1015 35 13.4603V18.5397C35 19.8985 33.8985 21 32.5397 21H27.4603C26.1015 21 25 19.8985 25 18.5397V13.4603Z" fill="#29D305"/>
</svg>
