<svg width="40" height="40" viewBox="0 0 40 40" fill="none" xmlns="http://www.w3.org/2000/svg">
<g clip-path="url(#clip0)">
<path fill-rule="evenodd" clip-rule="evenodd" d="M18.75 7.41162C18.75 6.72127 19.3096 6.16162 20 6.16162C22.7195 6.16162 25.3779 6.96804 27.6391 8.47891C29.9003 9.98978 31.6626 12.1372 32.7033 14.6497C33.744 17.1622 34.0163 19.9269 33.4858 22.5941C32.9553 25.2614 31.6457 27.7114 29.7227 29.6343C27.7997 31.5573 25.3497 32.8669 22.6825 33.3974C20.0153 33.928 17.2506 33.6557 14.7381 32.615C12.2256 31.5743 10.0782 29.8119 8.56729 27.5507C7.05642 25.2895 6.25 22.6311 6.25 19.9116C6.25 19.2213 6.80964 18.6616 7.5 18.6616C8.19036 18.6616 8.75 19.2213 8.75 19.9116C8.75 22.1367 9.4098 24.3117 10.646 26.1618C11.8821 28.0118 13.6391 29.4538 15.6948 30.3053C17.7505 31.1568 20.0125 31.3795 22.1948 30.9455C24.3771 30.5114 26.3816 29.4399 27.955 27.8666C29.5283 26.2932 30.5998 24.2887 31.0338 22.1064C31.4679 19.9241 31.2451 17.6621 30.3936 15.6064C29.5422 13.5508 28.1002 11.7938 26.2502 10.5576C24.4001 9.32142 22.225 8.66162 20 8.66162C19.3096 8.66162 18.75 8.10198 18.75 7.41162Z" fill="black"/>
<path fill-rule="evenodd" clip-rule="evenodd" d="M38.5236 22.988C39.1956 23.1459 39.6124 23.8187 39.4546 24.4907C39.04 26.2556 38.3906 27.9569 37.5239 29.5491C37.1939 30.1555 36.4348 30.3795 35.8284 30.0494C35.2221 29.7194 34.9981 28.9603 35.3281 28.3539C36.088 26.9579 36.6573 25.4663 37.0208 23.919C37.1787 23.2469 37.8515 22.8301 38.5236 22.988Z" fill="black"/>
<path fill-rule="evenodd" clip-rule="evenodd" d="M33.9287 32.5227C34.4048 33.0226 34.3855 33.8138 33.8856 34.2899C32.5778 35.5356 31.1183 36.6116 29.5416 37.4926C28.939 37.8294 28.1774 37.6138 27.8407 37.0112C27.5039 36.4085 27.7195 35.647 28.3221 35.3102C29.7156 34.5316 31.0055 33.5805 32.1614 32.4796C32.6613 32.0035 33.4526 32.0228 33.9287 32.5227Z" fill="black"/>
<path fill-rule="evenodd" clip-rule="evenodd" d="M20.4093 1.13489C20.4702 0.447226 21.077 -0.0608493 21.7647 7.04285e-05C23.5737 0.160328 25.352 0.568555 27.0498 1.21328C27.6952 1.45837 28.0197 2.18024 27.7746 2.82563C27.5295 3.47101 26.8077 3.79552 26.1623 3.55044C24.6787 2.98707 23.1248 2.63035 21.5441 2.49032C20.8564 2.4294 20.3483 1.82255 20.4093 1.13489Z" fill="#29D305"/>
<path fill-rule="evenodd" clip-rule="evenodd" d="M30.4891 4.34716C30.9096 3.79961 31.6943 3.69658 32.2418 4.11704C33.6849 5.22514 34.9636 6.5321 36.04 7.99896C36.4484 8.55555 36.3283 9.33784 35.7717 9.74625C35.2151 10.1547 34.4328 10.0345 34.0244 9.47796C33.0877 8.20149 31.975 7.06416 30.7192 6.09988C30.1717 5.67942 30.0687 4.8947 30.4891 4.34716Z" fill="#29D305"/>
<path fill-rule="evenodd" clip-rule="evenodd" d="M37.2395 12.492C37.8883 12.2562 38.6054 12.5911 38.8412 13.24C39.4638 14.9534 39.8331 16.7485 39.9376 18.5685C39.9772 19.2578 39.4506 19.8486 38.7613 19.8881C38.0721 19.9277 37.4813 19.401 37.4417 18.7118C37.3512 17.1344 37.0311 15.5787 36.4915 14.0937C36.2557 13.4449 36.5906 12.7278 37.2395 12.492Z" fill="black"/>
<path fill-rule="evenodd" clip-rule="evenodd" d="M17.4747 1.28692C17.6127 1.96333 17.1763 2.62358 16.4999 2.76162C11.9513 3.68989 7.95787 6.38704 5.39796 10.2597C2.83805 14.1324 1.92141 18.8634 2.84968 23.4119C3.77795 27.9604 6.4751 31.9539 10.3478 34.5138C12.2653 35.7814 14.4138 36.6588 16.6704 37.096C18.9271 37.5333 21.2478 37.5217 23.5 37.0621C24.1764 36.9241 24.8366 37.3605 24.9747 38.0369C25.1127 38.7133 24.6763 39.3736 23.9999 39.5116C21.426 40.0369 18.7739 40.0501 16.1949 39.5504C13.6159 39.0507 11.1606 38.048 8.96919 36.5994C4.54339 33.6738 1.46102 29.11 0.400168 23.9118C-0.660685 18.7136 0.38688 13.3069 3.31241 8.88114C6.23794 4.45534 10.8018 1.37296 16 0.312112C16.6764 0.174069 17.3366 0.610504 17.4747 1.28692Z" fill="black"/>
</g>
<defs>
<clipPath id="clip0">
<rect width="40" height="40" fill="white"/>
</clipPath>
</defs>
</svg>
