<svg width="40" height="40" viewBox="0 0 40 40" fill="none" xmlns="http://www.w3.org/2000/svg">
<path fill-rule="evenodd" clip-rule="evenodd" d="M3.73883 7.99278C3.02172 7.99278 2.47423 8.55977 2.47423 9.21777V36.3008C2.47423 36.9588 3.02172 37.5258 3.73883 37.5258H36.2612C36.9783 37.5258 37.5258 36.9588 37.5258 36.3008V9.21777C37.5258 8.55977 36.9783 7.99278 36.2612 7.99278H3.73883ZM0 9.21777C0 7.1562 1.69262 5.51855 3.73883 5.51855H36.2612C38.3074 5.51855 40 7.1562 40 9.21777V36.3008C40 38.3624 38.3074 40.0001 36.2612 40.0001H3.73883C1.69262 40.0001 0 38.3624 0 36.3008V9.21777Z" fill="black"/>
<path fill-rule="evenodd" clip-rule="evenodd" d="M0 16.6893C0 16.006 0.553874 15.4521 1.23711 15.4521H38.7629C39.4461 15.4521 40 16.006 40 16.6893C40 17.3725 39.4461 17.9264 38.7629 17.9264H1.23711C0.553874 17.9264 0 17.3725 0 16.6893Z" fill="black"/>
<path fill-rule="evenodd" clip-rule="evenodd" d="M11.1707 0C11.8539 0 12.4078 0.553875 12.4078 1.23711V10.0667C12.4078 10.7499 11.8539 11.3038 11.1707 11.3038C10.4875 11.3038 9.93359 10.7499 9.93359 10.0667V1.23711C9.93359 0.553875 10.4875 0 11.1707 0Z" fill="black"/>
<path fill-rule="evenodd" clip-rule="evenodd" d="M28.8289 0C29.5121 0 30.066 0.553875 30.066 1.23711V10.0667C30.066 10.7499 29.5121 11.3038 28.8289 11.3038C28.1457 11.3038 27.5918 10.7499 27.5918 10.0667V1.23711C27.5918 0.553875 28.1457 0 28.8289 0Z" fill="black"/>
<path d="M20.0741 32.5957C19.4656 32.5957 18.9101 32.4855 18.4074 32.265C17.9048 32.0358 17.4771 31.7227 17.1243 31.3259C16.7716 30.9202 16.4938 30.4308 16.291 29.8576C16.097 29.2844 16 28.6539 16 27.9661C16 27.2253 16.1058 26.5507 16.3175 25.9423C16.5379 25.3338 16.8422 24.8179 17.2302 24.3947C17.627 23.9626 18.1032 23.6275 18.6587 23.3894C19.2143 23.1513 19.8272 23.0322 20.4974 23.0322C21.0088 23.0322 21.5247 23.1248 22.045 23.31C22.5653 23.4952 22.9885 23.7377 23.3148 24.0375L22.1376 25.4925C21.8818 25.2721 21.6085 25.1134 21.3175 25.0164C21.0353 24.9105 20.709 24.8576 20.3386 24.8576C19.5891 24.8576 19.0159 25.1354 18.619 25.691C18.2222 26.2377 18.0238 27.0181 18.0238 28.0322C18.3148 27.6178 18.6675 27.2959 19.082 27.0666C19.4965 26.8373 19.933 26.7227 20.3915 26.7227C20.8413 26.7227 21.2557 26.7932 21.6349 26.9343C22.0229 27.0754 22.3536 27.2694 22.627 27.5164C22.9004 27.7544 23.112 28.0499 23.2619 28.4026C23.4206 28.7465 23.5 29.1213 23.5 29.5269C23.5 29.9679 23.4118 30.3779 23.2354 30.7571C23.0679 31.1275 22.8298 31.4493 22.5212 31.7227C22.2213 31.9961 21.8598 32.2121 21.4365 32.3709C21.022 32.5208 20.5679 32.5957 20.0741 32.5957ZM20.0476 28.31C19.6684 28.31 19.3157 28.3806 18.9894 28.5216C18.672 28.6627 18.3898 28.8612 18.1429 29.1169C18.2751 29.646 18.5 30.0693 18.8175 30.3867C19.1437 30.6954 19.5273 30.8497 19.9683 30.8497C20.4004 30.8497 20.7619 30.7306 21.0529 30.4925C21.3527 30.2456 21.5026 29.937 21.5026 29.5666C21.5026 29.1962 21.366 28.8964 21.0926 28.6671C20.828 28.4291 20.4797 28.31 20.0476 28.31Z" fill="#29D305"/>
</svg>
