<svg width="40" height="40" viewBox="0 0 40 40" fill="none" xmlns="http://www.w3.org/2000/svg">
<path fill-rule="evenodd" clip-rule="evenodd" d="M34 30.6667C32.1591 30.6667 30.6667 32.1591 30.6667 34C30.6667 35.8409 32.159 37.3333 34 37.3333C35.8409 37.3333 37.3333 35.841 37.3333 34C37.3333 32.1591 35.8409 30.6667 34 30.6667ZM28 34C28 30.6863 30.6863 28 34 28C37.3137 28 40 30.6863 40 34C40 37.3137 37.3137 40 34 40C30.6863 40 28 37.3137 28 34Z" fill="black"/>
<path fill-rule="evenodd" clip-rule="evenodd" d="M0 21.25C0 20.5596 0.552735 20 1.23457 20H38.7654C39.4473 20 40 20.5596 40 21.25C40 21.9404 39.4473 22.5 38.7654 22.5H1.23457C0.552735 22.5 0 21.9404 0 21.25Z" fill="#29D305"/>
<path fill-rule="evenodd" clip-rule="evenodd" d="M6 0C4.41575 0 2.89205 0.617614 1.7652 1.72384C0.637619 2.83079 0 4.33689 0 5.91209V13.8516C0 14.4857 0.513546 15 1.14747 15C1.78138 15 2.29493 14.4857 2.29493 13.8516V11.2637H9.70507V13.8474C9.70507 14.4814 10.2186 14.9958 10.8525 14.9958C11.4865 14.9958 12 14.4814 12 13.8474V5.91209C12 4.33689 11.3624 2.83079 10.2348 1.72384C9.10795 0.617614 7.58424 0 6 0ZM3.37228 3.3634C4.0655 2.68287 5.01032 2.2967 6 2.2967C6.98968 2.2967 7.9345 2.68287 8.62772 3.3634C9.32018 4.04319 9.70507 4.96043 9.70507 5.91209V8.96695H2.29493V5.91209C2.29493 4.96043 2.67982 4.04319 3.37228 3.3634Z" fill="black"/>
</svg>
