<svg width="40" height="40" viewBox="0 0 40 40" fill="none" xmlns="http://www.w3.org/2000/svg">
<path fill-rule="evenodd" clip-rule="evenodd" d="M3.73883 3.47826C3.03842 3.47826 2.47423 4.04545 2.47423 4.74066V10.9945C2.47423 11.6897 3.03842 12.2569 3.73883 12.2569H36.2612C36.9616 12.2569 37.5258 11.6897 37.5258 10.9945V4.74066C37.5258 4.04545 36.9616 3.47826 36.2612 3.47826H3.73883ZM0 4.74066C0 2.67276 1.67592 1 3.73883 1H36.2612C38.3241 1 40 2.67276 40 4.74066V10.9945C40 13.0624 38.3241 14.7351 36.2612 14.7351H3.73883C1.67592 14.7351 0 13.0624 0 10.9945V4.74066Z" fill="black"/>
<path fill-rule="evenodd" clip-rule="evenodd" d="M28.1311 5.96622C28.6138 5.4819 29.3971 5.48123 29.8807 5.96473L31.5084 7.59229L33.1361 5.96473C33.6196 5.48123 34.4029 5.4819 34.8856 5.96622C35.3683 6.45054 35.3676 7.23512 34.8841 7.71861L32.3824 10.2201C31.8994 10.7031 31.1173 10.7031 30.6343 10.2201L28.1326 7.71861C27.6491 7.23512 27.6484 6.45054 28.1311 5.96622Z" fill="#29D305"/>
<path fill-rule="evenodd" clip-rule="evenodd" d="M36.2612 36.5217C36.9616 36.5217 37.5258 35.9546 37.5258 35.2593L37.5258 20.2502C37.5258 19.555 36.9616 18.9878 36.2612 18.9878L3.73884 18.9878C3.03843 18.9878 2.47423 19.555 2.47423 20.2502L2.47423 35.2593C2.47423 35.9546 3.03843 36.5217 3.73884 36.5217L36.2612 36.5217ZM40 35.2593C40 37.3272 38.3241 39 36.2612 39L3.73884 39C1.67593 39 7.77564e-06 37.3272 7.95644e-06 35.2593L9.26868e-06 20.2502C9.44948e-06 18.1823 1.67593 16.5095 3.73884 16.5095L36.2612 16.5095C38.3241 16.5095 40 18.1823 40 20.2502L40 35.2593Z" fill="black"/>
<path fill-rule="evenodd" clip-rule="evenodd" d="M0 27.7552C0 27.0709 0.553874 26.5161 1.23711 26.5161H38.7629C39.4461 26.5161 40 27.0709 40 27.7552C40 28.4396 39.4461 28.9944 38.7629 28.9944H1.23711C0.553874 28.9944 0 28.4396 0 27.7552Z" fill="black"/>
</svg>
