<svg width="40" height="40" viewBox="0 0 40 40" fill="none" xmlns="http://www.w3.org/2000/svg">
<path fill-rule="evenodd" clip-rule="evenodd" d="M1.31134e-07 28.5C5.87108e-08 27.6716 0.548223 27 1.22449 27L38.7755 27C39.4518 27 40 27.6716 40 28.5C40 29.3284 39.4518 30 38.7755 30L1.22449 30C0.548223 30 2.03558e-07 29.3284 1.31134e-07 28.5Z" fill="#29D305"/>
<path fill-rule="evenodd" clip-rule="evenodd" d="M34.1764 12.3514C33.7358 12.8067 33.7507 13.5302 34.2097 13.9673L37.1841 16.8L34.2097 19.6327C33.7507 20.0698 33.7358 20.7933 34.1764 21.2486C34.6171 21.7039 35.3464 21.7187 35.8053 21.2816L39.6455 17.6244C39.8718 17.4089 39.9997 17.1112 39.9997 16.8C39.9997 16.4888 39.8718 16.1911 39.6455 15.9756L35.8053 12.3184C35.3464 11.8813 34.6171 11.8961 34.1764 12.3514Z" fill="black"/>
<path fill-rule="evenodd" clip-rule="evenodd" d="M0 13.9615C0 12.3259 1.30994 11 2.92582 11H25.4965C27.1124 11 28.4223 12.3259 28.4223 13.9615V19.0385C28.4223 20.6741 27.1124 22 25.4965 22H2.92582C1.30994 22 0 20.6741 0 19.0385V13.9615ZM2.92582 13.5385C2.69498 13.5385 2.50785 13.7279 2.50785 13.9615V19.0385C2.50785 19.2721 2.69498 19.4615 2.92582 19.4615H25.4965C25.7273 19.4615 25.9144 19.2721 25.9144 19.0385V13.9615C25.9144 13.7279 25.7273 13.5385 25.4965 13.5385H2.92582Z" fill="black"/>
</svg>
