<svg width="40" height="40" viewBox="0 0 40 40" fill="none" xmlns="http://www.w3.org/2000/svg">
<path fill-rule="evenodd" clip-rule="evenodd" d="M33.9212 16.293C34.398 16.7201 34.4425 17.4574 34.0205 17.9399L28.4154 24.3485C28.4153 24.3487 28.4151 24.3489 28.4149 24.3491C28.2442 24.5444 28.0338 24.708 27.7915 24.8229C27.5484 24.9381 27.2819 25 27.0085 25C26.7351 25 26.4685 24.9381 26.2254 24.8229C25.983 24.708 25.7726 24.5442 25.6018 24.3488C25.6017 24.3487 25.6016 24.3486 25.6015 24.3485L23.8396 22.3352C23.4175 21.8528 23.4617 21.1155 23.9384 20.6883C24.415 20.2611 25.1437 20.3059 25.5658 20.7882L27.0084 22.4367L32.2938 16.3935C32.7158 15.911 33.4445 15.866 33.9212 16.293Z" fill="#29D305"/>
<path fill-rule="evenodd" clip-rule="evenodd" d="M0 20.5C0 15.2533 4.20304 11 9.38776 11H30.6122C35.797 11 40 15.2533 40 20.5C40 25.7467 35.797 30 30.6122 30H9.38776C4.20304 30 0 25.7467 0 20.5ZM9.38776 13.4783C5.55558 13.4783 2.44898 16.622 2.44898 20.5C2.44898 24.378 5.55558 27.5217 9.38776 27.5217H30.6122C34.4444 27.5217 37.551 24.378 37.551 20.5C37.551 16.622 34.4444 13.4783 30.6122 13.4783H9.38776Z" fill="black"/>
<path fill-rule="evenodd" clip-rule="evenodd" d="M18 20.5C18 15.2533 22.0454 11 27.0357 11H30.9643C35.9546 11 40 15.2533 40 20.5C40 25.7467 35.9546 30 30.9643 30H27.0357C22.0454 30 18 25.7467 18 20.5ZM27.0357 13.4783C23.3472 13.4783 20.3571 16.622 20.3571 20.5C20.3571 24.378 23.3472 27.5217 27.0357 27.5217H30.9643C34.6528 27.5217 37.6429 24.378 37.6429 20.5C37.6429 16.622 34.6528 13.4783 30.9643 13.4783H27.0357Z" fill="black"/>
</svg>
