<svg width="40" height="40" viewBox="0 0 40 40" fill="none" xmlns="http://www.w3.org/2000/svg">
<path fill-rule="evenodd" clip-rule="evenodd" d="M3.91753 5.4878C2.90237 5.4878 2.47423 6.13907 2.47423 6.49477V33.5052C2.47423 33.8609 2.90237 34.5122 3.91753 34.5122H36.0825C37.0976 34.5122 37.5258 33.8609 37.5258 33.5052V6.49477C37.5258 6.13907 37.0976 5.4878 36.0825 5.4878H3.91753ZM0 6.49477C0 4.36424 1.97198 3 3.91753 3H36.0825C38.028 3 40 4.36424 40 6.49477V33.5052C40 35.6358 38.028 37 36.0825 37H3.91753C1.97198 37 0 35.6358 0 33.5052V6.49477Z" fill="black"/>
<path fill-rule="evenodd" clip-rule="evenodd" d="M0 14.1951C0 13.5081 0.553874 12.9512 1.23711 12.9512H38.7629C39.4461 12.9512 40 13.5081 40 14.1951C40 14.8821 39.4461 15.439 38.7629 15.439H1.23711C0.553874 15.439 0 14.8821 0 14.1951Z" fill="black"/>
<path fill-rule="evenodd" clip-rule="evenodd" d="M4.69141 9.21949C4.69141 8.5325 5.24528 7.97559 5.92852 7.97559H21.877C22.5602 7.97559 23.1141 8.5325 23.1141 9.21949C23.1141 9.90648 22.5602 10.4634 21.877 10.4634H5.92852C5.24528 10.4634 4.69141 9.90648 4.69141 9.21949Z" fill="#29D305"/>
<path fill-rule="evenodd" clip-rule="evenodd" d="M11.5574 12.9512C12.2407 12.9512 12.7945 13.5081 12.7945 14.1951L12.7945 35.7561C12.7945 36.443 12.2407 37 11.5574 37C10.8742 37 10.3203 36.443 10.3203 35.7561L10.3203 14.1951C10.3203 13.5081 10.8742 12.9512 11.5574 12.9512Z" fill="black"/>
</svg>
