<svg width="40" height="40" viewBox="0 0 40 40" fill="none" xmlns="http://www.w3.org/2000/svg">
<path fill-rule="evenodd" clip-rule="evenodd" d="M20.4921 5.12498C18.7318 5.12498 17.3047 6.55207 17.3047 8.31246C17.3047 10.0729 18.7318 11.4999 20.4921 11.4999C22.2525 11.4999 23.6796 10.0729 23.6796 8.31246C23.6796 6.55207 22.2525 5.12498 20.4921 5.12498ZM15.1797 8.31246C15.1797 5.37847 17.5582 3 20.4921 3C23.4261 3 25.8046 5.37847 25.8046 8.31246C25.8046 11.2465 23.4261 13.6249 20.4921 13.6249C17.5582 13.6249 15.1797 11.2465 15.1797 8.31246Z" fill="black"/>
<path fill-rule="evenodd" clip-rule="evenodd" d="M15.1784 15.8036C16.5732 14.4088 18.4649 13.6252 20.4374 13.6252C22.41 13.6252 24.3017 14.4088 25.6965 15.8036C27.0913 17.1984 27.8749 19.0902 27.8749 21.0627V25.3127C27.8749 25.8995 27.3992 26.3751 26.8124 26.3751H25.649L24.6821 36.0433C24.6278 36.5864 24.1708 37.0001 23.6249 37.0001H17.25C16.7041 37.0001 16.2471 36.5864 16.1927 36.0433L15.2259 26.3751H14.0625C13.4757 26.3751 13 25.8995 13 25.3127V21.0627C13 19.0902 13.7836 17.1984 15.1784 15.8036ZM20.4374 15.7502C19.0285 15.7502 17.6772 16.3099 16.681 17.3062C15.6847 18.3025 15.125 19.6537 15.125 21.0627V24.2502H16.1875C16.7333 24.2502 17.1904 24.6638 17.2447 25.2069L18.2115 34.8751H22.6634L23.6302 25.2069C23.6845 24.6638 24.1416 24.2502 24.6874 24.2502H25.7499V21.0627C25.7499 19.6537 25.1902 18.3025 24.1939 17.3062C23.1976 16.3099 21.8464 15.7502 20.4374 15.7502Z" fill="black"/>
<path fill-rule="evenodd" clip-rule="evenodd" d="M31.6317 5.19286C31.0951 4.99875 30.5241 4.95015 29.9665 5.05167C29.409 5.15316 28.8831 5.40137 28.4318 5.77347C27.9809 6.1453 27.6175 6.62997 27.3696 7.18575C27.0408 7.92162 26.9278 8.75272 27.0449 9.56223C27.1614 10.3676 27.5005 11.1157 28.0186 11.7L32.2454 16.6422C32.4375 16.8668 32.7093 17 32.9999 17C33.2906 17 33.5623 16.8668 33.7544 16.6422L37.9812 11.7C38.4992 11.1157 38.8383 10.3678 38.9549 9.56262C39.0722 8.75321 38.9595 7.92214 38.6312 7.18609C38.3832 6.63008 38.0196 6.14531 37.5684 5.77338C37.1171 5.40133 36.5912 5.15316 36.0336 5.05168C35.476 4.95018 34.905 4.99877 34.3684 5.19285C33.8534 5.37908 33.3858 5.69359 32.9999 6.10971C32.6141 5.69356 32.1466 5.3791 31.6317 5.19286ZM30.9823 7.33574C30.7636 7.25662 30.5321 7.2371 30.3062 7.27823C30.0802 7.31937 29.8641 7.42046 29.676 7.57552C29.4878 7.7307 29.3328 7.9358 29.2259 8.17556C29.0839 8.49333 29.0338 8.8561 29.0849 9.20951C29.136 9.56299 29.2847 9.88554 29.5054 10.1328L29.5084 10.1362L29.5207 10.1503L32.9999 14.2184L36.482 10.1469L36.4943 10.1329C36.7151 9.88552 36.8638 9.56288 36.915 9.2093C36.9662 8.85564 36.9166 8.4937 36.7748 8.17581C36.6678 7.93598 36.5128 7.73081 36.3245 7.5756C36.1363 7.42051 35.9201 7.3194 35.694 7.27825C35.4681 7.23712 35.2365 7.25664 35.0177 7.33577C34.7987 7.41495 34.5971 7.5522 34.4306 7.73877L33.7393 8.51355C33.548 8.72798 33.2827 8.85412 32.9999 8.85412C32.7172 8.85412 32.4518 8.72798 32.2605 8.51355L31.5692 7.73878C31.4027 7.55219 31.2012 7.41491 30.9823 7.33574Z" fill="#29D305"/>
</svg>
