<svg width="40" height="40" viewBox="0 0 40 40" fill="none" xmlns="http://www.w3.org/2000/svg">
<path fill-rule="evenodd" clip-rule="evenodd" d="M20.4921 5.12498C18.7318 5.12498 17.3047 6.55207 17.3047 8.31246C17.3047 10.0729 18.7318 11.4999 20.4921 11.4999C22.2525 11.4999 23.6796 10.0729 23.6796 8.31246C23.6796 6.55207 22.2525 5.12498 20.4921 5.12498ZM15.1797 8.31246C15.1797 5.37847 17.5582 3 20.4921 3C23.4261 3 25.8046 5.37847 25.8046 8.31246C25.8046 11.2465 23.4261 13.6249 20.4921 13.6249C17.5582 13.6249 15.1797 11.2465 15.1797 8.31246Z" fill="black"/>
<path fill-rule="evenodd" clip-rule="evenodd" d="M15.1784 15.8036C16.5732 14.4088 18.4649 13.6252 20.4374 13.6252C22.41 13.6252 24.3017 14.4088 25.6965 15.8036C27.0913 17.1984 27.8749 19.0902 27.8749 21.0627V25.3127C27.8749 25.8995 27.3992 26.3751 26.8124 26.3751H25.649L24.6821 36.0433C24.6278 36.5864 24.1708 37.0001 23.6249 37.0001H17.25C16.7041 37.0001 16.2471 36.5864 16.1927 36.0433L15.2259 26.3751H14.0625C13.4757 26.3751 13 25.8995 13 25.3127V21.0627C13 19.0902 13.7836 17.1984 15.1784 15.8036ZM20.4374 15.7502C19.0285 15.7502 17.6772 16.3099 16.681 17.3062C15.6847 18.3025 15.125 19.6537 15.125 21.0627V24.2502H16.1875C16.7333 24.2502 17.1904 24.6638 17.2447 25.2069L18.2115 34.8751H22.6634L23.6302 25.2069C23.6845 24.6638 24.1416 24.2502 24.6874 24.2502H25.7499V21.0627C25.7499 19.6537 25.1902 18.3025 24.1939 17.3062C23.1976 16.3099 21.8464 15.7502 20.4374 15.7502Z" fill="black"/>
</svg>
