<svg width="40" height="40" viewBox="0 0 40 40" fill="none" xmlns="http://www.w3.org/2000/svg">
<g clip-path="url(#clip0)">
<path fill-rule="evenodd" clip-rule="evenodd" d="M9.72434 6.68592C10.1827 6.45672 10.6882 6.3374 11.2007 6.3374H28.8069C29.3193 6.3374 29.8248 6.45672 30.2832 6.68592C30.7416 6.91511 31.1403 7.24788 31.4478 7.65787L36.341 14.1886C36.3411 14.1886 36.341 14.1885 36.341 14.1886C36.7866 14.7831 37.0187 15.5108 36.9996 16.2536C36.9804 16.9955 36.7118 17.7093 36.2372 18.2798C36.2366 18.2805 36.236 18.2813 36.2354 18.282L22.5332 34.8632C22.2234 35.2331 21.8361 35.5307 21.3989 35.7348C20.9616 35.939 20.4849 36.0448 20.0023 36.0448C19.5197 36.0448 19.043 35.939 18.6057 35.7348C18.1684 35.5307 17.7812 35.2331 17.4714 34.8631L17.4668 34.8576L3.76919 18.282C3.76866 18.2814 3.76814 18.2807 3.76761 18.2801C3.29283 17.7096 3.02415 16.9957 3.00501 16.2536C2.98584 15.5108 3.21786 14.7832 3.66355 14.1886L8.55962 7.65802C8.86711 7.24803 9.26596 6.91511 9.72434 6.68592ZM11.2007 8.53818C11.0298 8.53818 10.8614 8.57795 10.7086 8.65435C10.5558 8.73072 10.423 8.84158 10.3205 8.97817M10.3205 8.97817L5.42456 15.5085C5.42454 15.5085 5.42459 15.5085 5.42456 15.5085C5.27605 15.7067 5.19866 15.9493 5.20505 16.1969C5.21144 16.4445 5.30119 16.6827 5.45977 16.873L5.46273 16.8765L19.1587 33.4502C19.1593 33.4509 19.16 33.4517 19.1606 33.4525C19.2636 33.5747 19.3919 33.6731 19.5368 33.7407C19.6825 33.8088 19.8414 33.844 20.0023 33.844C20.1632 33.844 20.3221 33.8088 20.4678 33.7407C20.6127 33.6731 20.741 33.5747 20.844 33.4525C20.8446 33.4517 20.8453 33.4509 20.8459 33.4502L34.5419 16.8765L34.5448 16.873C34.7034 16.6827 34.7931 16.4445 34.7995 16.1969C34.8059 15.9492 34.7286 15.7067 34.58 15.5085L29.6872 8.97833C29.6871 8.97829 29.6872 8.97837 29.6872 8.97833C29.5847 8.84172 29.4517 8.73072 29.299 8.65435C29.1462 8.57795 28.9777 8.53818 28.8069 8.53818H11.2007" fill="black"/>
<path fill-rule="evenodd" clip-rule="evenodd" d="M9.8179 6.64734C10.3897 6.44155 11.0201 6.73827 11.2259 7.31009L21.0384 34.5747C21.2442 35.1466 20.9475 35.777 20.3757 35.9827C19.8039 36.1885 19.1735 35.8918 18.9677 35.32L9.15516 8.05535C8.94936 7.48353 9.24608 6.85314 9.8179 6.64734Z" fill="black"/>
<path fill-rule="evenodd" clip-rule="evenodd" d="M30.1867 6.64733C30.7585 6.8531 31.0552 7.48347 30.8495 8.0553L21.0384 35.32C20.8327 35.8918 20.2023 36.1885 19.6304 35.9828C19.0586 35.777 18.7619 35.1466 18.9676 34.5748L28.7787 7.31014C28.9845 6.73831 29.6148 6.44156 30.1867 6.64733Z" fill="black"/>
<path fill-rule="evenodd" clip-rule="evenodd" d="M3 16.2408C3 15.633 3.49266 15.1404 4.10039 15.1404H35.8986C36.5064 15.1404 36.999 15.633 36.999 16.2408C36.999 16.8485 36.5064 17.3412 35.8986 17.3412H4.10039C3.49266 17.3412 3 16.8485 3 16.2408Z" fill="black"/>
<path fill-rule="evenodd" clip-rule="evenodd" d="M20.0036 6.3374C20.3499 6.3374 20.6761 6.50047 20.8839 6.77756L27.4862 15.5807C27.8508 16.0668 27.7523 16.7566 27.2661 17.1212C26.7799 17.4858 26.0902 17.3873 25.7256 16.9011L20.0036 9.27177L14.2815 16.9011C13.9169 17.3873 13.2272 17.4858 12.741 17.1212C12.2548 16.7566 12.1563 16.0668 12.5209 15.5807L19.1232 6.77756C19.3311 6.50047 19.6572 6.3374 20.0036 6.3374Z" fill="black"/>
</g>
<path fill-rule="evenodd" clip-rule="evenodd" d="M37.6336 32.2692C37.1453 32.7572 36.3538 32.7569 35.8658 32.2686L32.7322 29.1335C32.2442 28.6452 32.2445 27.8538 32.7328 27.3658C33.2211 26.8778 34.0126 26.878 34.5006 27.3664L37.6342 30.5014C38.1222 30.9897 38.1219 31.7812 37.6336 32.2692Z" fill="#29D305"/>
<path fill-rule="evenodd" clip-rule="evenodd" d="M7.2664 27.3658C7.75472 27.8538 7.75498 28.6453 7.26699 29.1336L4.13416 32.2689C3.64617 32.7572 2.85471 32.7575 2.36639 32.2695C1.87808 31.7815 1.87782 30.99 2.36581 30.5017L5.49864 27.3664C5.98663 26.8781 6.77809 26.8778 7.2664 27.3658Z" fill="#29D305"/>
<path fill-rule="evenodd" clip-rule="evenodd" d="M20.25 4.5C19.5596 4.5 19 4.00771 19 3.40044L19 1.09966C19 0.492389 19.5596 9.91576e-05 20.25 9.91275e-05C20.9404 9.90973e-05 21.5 0.492389 21.5 1.09966L21.5 3.40044C21.5 4.00771 20.9404 4.5 20.25 4.5Z" fill="#29D305"/>
<path fill-rule="evenodd" clip-rule="evenodd" d="M1.36641 2.36589C1.85472 1.87789 2.64618 1.87815 3.13417 2.36647L5.63417 4.86812C6.12217 5.35643 6.12191 6.14789 5.63359 6.63588C5.14528 7.12388 4.35382 7.12362 3.86583 6.6353L1.36583 4.13365C0.877831 3.64534 0.878091 2.85388 1.36641 2.36589Z" fill="#29D305"/>
<path fill-rule="evenodd" clip-rule="evenodd" d="M34.3664 6.63417C33.8781 6.14618 33.8778 5.35472 34.3658 4.86641L36.8658 2.36476C37.3538 1.87644 38.1453 1.87618 38.6336 2.36418C39.1219 2.85217 39.1222 3.64363 38.6342 4.13194L36.1342 6.63359C35.6462 7.12191 34.8547 7.12217 34.3664 6.63417Z" fill="#29D305"/>
<defs>
<clipPath id="clip0">
<rect width="34" height="34" fill="white" transform="translate(3 4)"/>
</clipPath>
</defs>
</svg>
