<svg width="40" height="40" viewBox="0 0 40 40" fill="none" xmlns="http://www.w3.org/2000/svg">
<path fill-rule="evenodd" clip-rule="evenodd" d="M11.0983 3.09835C11.8016 2.39509 12.7554 2 13.75 2H26.25C27.2446 2 28.1984 2.39509 28.9016 3.09835C29.6049 3.80161 30 4.75544 30 5.75V10.75C30 11.4404 29.4404 12 28.75 12C28.0596 12 27.5 11.4404 27.5 10.75V5.75C27.5 5.41848 27.3683 5.10054 27.1339 4.86612C26.8995 4.6317 26.5815 4.5 26.25 4.5H13.75C13.4185 4.5 13.1005 4.6317 12.8661 4.86612C12.6317 5.10054 12.5 5.41848 12.5 5.75V10.75C12.5 11.4404 11.9404 12 11.25 12C10.5596 12 10 11.4404 10 10.75V5.75C10 4.75544 10.3951 3.80161 11.0983 3.09835Z" fill="black"/>
<path fill-rule="evenodd" clip-rule="evenodd" d="M2.91667 13C2.68655 13 2.5 13.1865 2.5 13.4167V35.0833C2.5 35.3135 2.68655 35.5 2.91667 35.5H37.0833C37.3134 35.5 37.5 35.3135 37.5 35.0833V13.4167C37.5 13.1865 37.3134 13 37.0833 13H2.91667ZM0 13.4167C0 11.8058 1.30584 10.5 2.91667 10.5H37.0833C38.6942 10.5 40 11.8058 40 13.4167V35.0833C40 36.6942 38.6942 38 37.0833 38H2.91667C1.30584 38 0 36.6942 0 35.0833V13.4167Z" fill="black"/>
<path d="M28.5399 19.4945L23.7047 14.6593C22.8256 13.7802 21.2871 13.7802 20.408 14.6593L18.6498 16.1978C18.1003 16.6374 17.9904 17.2967 17.9904 17.8462C17.9904 18.5055 18.3201 19.0549 18.6498 19.4945L20.2981 21.1429L16.1223 25.2088C15.463 24.5495 14.3641 24.5495 13.7047 25.2088L9.96845 28.8352C9.52889 29.4945 9.19922 30.2637 9.19922 31.033C9.19922 31.8022 9.52889 32.5714 10.0783 33.1209C10.6278 33.6703 11.2871 34 12.0564 34C12.8256 34 13.4849 33.6703 14.0344 33.2308L17.7706 29.4945C17.9904 29.2747 18.2102 28.8352 18.2102 28.2857C18.2102 27.8462 18.1003 27.4066 17.7706 27.0769L17.6608 26.967L21.8366 22.9011L23.4849 24.3297C23.9245 24.8791 24.5838 25.0989 25.1333 25.0989C25.7926 25.0989 26.3421 24.8791 26.7816 24.4396L28.43 22.7912C28.9794 22.3516 29.1992 21.6923 29.1992 21.1429C29.1992 20.4835 28.8696 19.8242 28.5399 19.4945ZM25.1333 22.7912L22.7157 20.4835L20.1882 17.956V17.8462L21.8366 16.0879C21.8366 16.0879 21.8366 16.0879 21.9465 16.0879C21.9465 16.0879 21.9465 16.0879 22.0564 16.0879L26.8915 21.033C26.8915 21.033 26.8915 21.033 26.8915 21.1429C26.8915 21.1429 26.8915 21.1429 26.8915 21.2527L25.3531 22.7912C25.2432 22.9011 25.1333 22.9011 25.1333 22.7912ZM15.7926 28.2857L12.4959 31.5824C12.2761 31.8022 11.9465 31.8022 11.6168 31.5824C11.5069 31.3626 11.397 31.2527 11.397 31.033C11.397 30.8132 11.5069 30.7033 11.5069 30.5934L14.8036 27.2967L15.7926 28.2857Z" fill="black"/>
</svg>
