<svg width="778" height="198" viewBox="0 0 778 198" fill="none" xmlns="http://www.w3.org/2000/svg">
<path d="M43.1646 189.544H45.1106C45.6986 189.544 46.2306 189.395 46.7066 189.096C47.1826 188.788 47.5606 188.373 47.8406 187.85C48.1206 187.327 48.2606 186.744 48.2606 186.1C48.2606 185.447 48.1206 184.863 47.8406 184.35C47.5606 183.827 47.1826 183.417 46.7066 183.118C46.2306 182.81 45.6986 182.656 45.1106 182.656H43.1646V189.544ZM41.4846 191V181.2H45.0686C45.7779 181.2 46.4313 181.326 47.0286 181.578C47.6259 181.83 48.1439 182.18 48.5826 182.628C49.0306 183.067 49.3759 183.585 49.6186 184.182C49.8613 184.77 49.9826 185.409 49.9826 186.1C49.9826 186.791 49.8613 187.435 49.6186 188.032C49.3759 188.62 49.0306 189.138 48.5826 189.586C48.1439 190.025 47.6259 190.37 47.0286 190.622C46.4313 190.874 45.7779 191 45.0686 191H41.4846ZM57.1832 191.154C56.4926 191.154 55.8439 191.028 55.2372 190.776C54.6399 190.515 54.1126 190.155 53.6552 189.698C53.2072 189.231 52.8572 188.695 52.6052 188.088C52.3532 187.472 52.2272 186.809 52.2272 186.1C52.2272 185.391 52.3532 184.733 52.6052 184.126C52.8572 183.51 53.2072 182.973 53.6552 182.516C54.1126 182.049 54.6399 181.69 55.2372 181.438C55.8439 181.177 56.4926 181.046 57.1832 181.046C57.8739 181.046 58.5179 181.177 59.1152 181.438C59.7219 181.69 60.2492 182.049 60.6972 182.516C61.1546 182.973 61.5092 183.51 61.7612 184.126C62.0132 184.733 62.1392 185.391 62.1392 186.1C62.1392 186.809 62.0132 187.472 61.7612 188.088C61.5092 188.695 61.1546 189.231 60.6972 189.698C60.2492 190.155 59.7219 190.515 59.1152 190.776C58.5179 191.028 57.8739 191.154 57.1832 191.154ZM57.1832 189.642C57.6406 189.642 58.0652 189.553 58.4572 189.376C58.8492 189.199 59.1899 188.951 59.4792 188.634C59.7779 188.307 60.0066 187.929 60.1652 187.5C60.3332 187.071 60.4172 186.604 60.4172 186.1C60.4172 185.596 60.3332 185.129 60.1652 184.7C60.0066 184.271 59.7779 183.897 59.4792 183.58C59.1899 183.253 58.8492 183.001 58.4572 182.824C58.0652 182.647 57.6406 182.558 57.1832 182.558C56.7259 182.558 56.3012 182.647 55.9092 182.824C55.5172 183.001 55.1719 183.253 54.8732 183.58C54.5746 183.897 54.3412 184.271 54.1732 184.7C54.0146 185.129 53.9352 185.596 53.9352 186.1C53.9352 186.604 54.0146 187.071 54.1732 187.5C54.3412 187.929 54.5746 188.307 54.8732 188.634C55.1719 188.951 55.5172 189.199 55.9092 189.376C56.3012 189.553 56.7259 189.642 57.1832 189.642Z" fill="var(--e-color-text-1)"/>
<path d="M7.59099 185.31C7.2981 185.017 6.82322 185.017 6.53033 185.31C6.23744 185.602 6.23744 186.077 6.53033 186.369L10.0659 189.901C10.3588 190.193 10.8336 190.193 11.1265 189.901L18.1976 182.838C18.4905 182.545 18.4905 182.071 18.1976 181.778C17.9047 181.486 17.4298 181.486 17.1369 181.778L10.5962 188.311L7.59099 185.31Z" fill="var(--e-color-brand-accent)"/>
<path fill-rule="evenodd" clip-rule="evenodd" d="M0 186C0 192.617 5.383 198 12 198C18.617 198 24 192.617 24 186C24 179.383 18.617 174 12 174C5.383 174 0 179.383 0 186ZM1.5 186C1.5 180.21 6.21 175.5 12 175.5C17.79 175.5 22.5 180.21 22.5 186C22.5 191.79 17.79 196.5 12 196.5C6.21 196.5 1.5 191.79 1.5 186Z" fill="var(--e-color-brand-accent)"/>
<g opacity="0.8" clip-path="url(#clip0_18782_33786)">
<rect y="13.5" width="199" height="139" rx="8" fill="var(--e-color-data-1-10)"/>
<path d="M28.452 53.654C27.6867 53.654 26.9633 53.5233 26.282 53.262C25.61 52.9913 24.9613 52.5947 24.336 52.072L25.246 50.84C25.8807 51.3533 26.4453 51.722 26.94 51.946C27.444 52.1607 27.9807 52.268 28.55 52.268C28.9793 52.268 29.3573 52.2027 29.684 52.072C30.02 51.932 30.2767 51.7453 30.454 51.512C30.6407 51.2787 30.734 51.008 30.734 50.7C30.734 50.2987 30.5987 49.9953 30.328 49.79C30.0667 49.5753 29.6093 49.412 28.956 49.3L27.15 48.992C26.3007 48.8427 25.666 48.558 25.246 48.138C24.8353 47.7087 24.63 47.1627 24.63 46.5C24.63 45.912 24.7793 45.3987 25.078 44.96C25.3767 44.512 25.792 44.1667 26.324 43.924C26.8653 43.672 27.5047 43.546 28.242 43.546C28.9793 43.546 29.6793 43.6533 30.342 43.868C31.0047 44.0827 31.616 44.3953 32.176 44.806L31.322 46.066C30.8273 45.6927 30.3187 45.4127 29.796 45.226C29.2733 45.03 28.7367 44.932 28.186 44.932C27.794 44.932 27.4487 44.9927 27.15 45.114C26.8607 45.2353 26.632 45.4033 26.464 45.618C26.3053 45.8327 26.226 46.0707 26.226 46.332C26.226 46.6867 26.3427 46.962 26.576 47.158C26.8187 47.3447 27.206 47.4847 27.738 47.578L29.488 47.872C30.4773 48.0493 31.2053 48.3573 31.672 48.796C32.148 49.2347 32.386 49.8273 32.386 50.574C32.386 51.1713 32.218 51.7033 31.882 52.17C31.5553 52.6367 31.098 53.0007 30.51 53.262C29.922 53.5233 29.236 53.654 28.452 53.654ZM36.713 53.64C36.0037 53.64 35.467 53.4767 35.103 53.15C34.739 52.814 34.557 52.324 34.557 51.68V47.746H33.157V46.486H34.557V44.554L36.139 44.218V46.486H38.085V47.746H36.139V51.33C36.139 51.6753 36.2137 51.9227 36.363 52.072C36.5123 52.212 36.7643 52.282 37.119 52.282C37.2777 52.282 37.4223 52.2727 37.553 52.254C37.693 52.226 37.8657 52.1793 38.071 52.114V53.444C37.875 53.5093 37.651 53.556 37.399 53.584C37.1563 53.6213 36.9277 53.64 36.713 53.64ZM39.4859 53.5V46.486H41.0679V47.998C41.2732 47.466 41.5392 47.06 41.8659 46.78C42.1925 46.5 42.5705 46.36 42.9999 46.36C43.1305 46.3693 43.2472 46.3833 43.3499 46.402C43.4525 46.4113 43.5645 46.444 43.6859 46.5V47.886C43.5645 47.83 43.4245 47.788 43.2659 47.76C43.1165 47.732 42.9672 47.718 42.8179 47.718C42.4352 47.718 42.0899 47.8207 41.7819 48.026C41.4832 48.2313 41.2452 48.516 41.0679 48.88V53.5H39.4859ZM47.8598 53.626C47.4865 53.626 47.1318 53.5747 46.7958 53.472C46.4598 53.36 46.1472 53.2107 45.8578 53.024L45.4658 53.5H44.3458L45.2138 52.464C44.9432 52.1373 44.7285 51.7687 44.5698 51.358C44.4112 50.938 44.3318 50.4853 44.3318 50C44.3318 49.3093 44.4858 48.6933 44.7938 48.152C45.1018 47.6013 45.5218 47.1673 46.0538 46.85C46.5952 46.5327 47.1972 46.374 47.8598 46.374C48.2425 46.374 48.5972 46.43 48.9238 46.542C49.2598 46.6447 49.5678 46.794 49.8478 46.99L50.2538 46.486H51.3738L50.4778 47.536C50.7578 47.8533 50.9772 48.222 51.1358 48.642C51.2945 49.062 51.3738 49.5147 51.3738 50C51.3738 50.6907 51.2198 51.3113 50.9118 51.862C50.6038 52.4033 50.1838 52.8327 49.6518 53.15C49.1198 53.4673 48.5225 53.626 47.8598 53.626ZM46.2218 51.288L48.9238 48.068C48.7745 47.956 48.6065 47.872 48.4198 47.816C48.2425 47.7507 48.0558 47.718 47.8598 47.718C47.4772 47.718 47.1365 47.8207 46.8378 48.026C46.5392 48.222 46.3058 48.4927 46.1378 48.838C45.9698 49.174 45.8858 49.5613 45.8858 50C45.8858 50.2427 45.9138 50.476 45.9698 50.7C46.0352 50.9147 46.1192 51.1107 46.2218 51.288ZM47.8598 52.282C48.2425 52.282 48.5785 52.184 48.8678 51.988C49.1665 51.792 49.3998 51.5213 49.5678 51.176C49.7358 50.8307 49.8198 50.4387 49.8198 50C49.8198 49.748 49.7918 49.5147 49.7358 49.3C49.6798 49.0853 49.5958 48.8893 49.4838 48.712L46.7818 51.932C46.9312 52.044 47.0945 52.1327 47.2718 52.198C47.4585 52.254 47.6545 52.282 47.8598 52.282ZM53.0073 53.5V46.486H54.5893V47.592C54.8507 47.1907 55.154 46.8873 55.4993 46.682C55.854 46.4767 56.2413 46.374 56.6613 46.374C57.1467 46.374 57.5667 46.4953 57.9213 46.738C58.2853 46.9807 58.556 47.3073 58.7333 47.718C59.0133 47.2793 59.3447 46.948 59.7273 46.724C60.1193 46.4907 60.5627 46.374 61.0573 46.374C61.5053 46.374 61.902 46.4813 62.2473 46.696C62.602 46.9107 62.8727 47.2093 63.0593 47.592C63.2553 47.9747 63.3533 48.4133 63.3533 48.908V53.5H61.7713V49.258C61.7713 48.7633 61.6453 48.3713 61.3933 48.082C61.1413 47.7927 60.796 47.648 60.3573 47.648C60.0773 47.648 59.816 47.718 59.5733 47.858C59.34 47.998 59.1347 48.208 58.9573 48.488C58.9667 48.5533 58.9713 48.6233 58.9713 48.698C58.9807 48.7633 58.9853 48.8333 58.9853 48.908V53.5H57.3893V49.258C57.3893 48.7633 57.2633 48.3713 57.0113 48.082C56.7593 47.7927 56.414 47.648 55.9753 47.648C55.406 47.648 54.944 47.9187 54.5893 48.46V53.5H53.0073ZM67.651 53.64C67.0537 53.64 66.4937 53.5607 65.971 53.402C65.4577 53.234 65.0143 52.996 64.641 52.688L65.383 51.638C65.8497 51.9273 66.251 52.1327 66.587 52.254C66.9323 52.3753 67.2823 52.436 67.637 52.436C68.057 52.436 68.3977 52.3473 68.659 52.17C68.9203 51.9927 69.051 51.764 69.051 51.484C69.051 51.2693 68.9717 51.1013 68.813 50.98C68.6637 50.8493 68.4163 50.7513 68.071 50.686L66.839 50.476C66.1577 50.3453 65.649 50.1213 65.313 49.804C64.977 49.4867 64.809 49.0667 64.809 48.544C64.809 48.1053 64.921 47.7273 65.145 47.41C65.3783 47.0833 65.6957 46.8313 66.097 46.654C66.5077 46.4673 66.9837 46.374 67.525 46.374C68.0103 46.374 68.4817 46.444 68.939 46.584C69.3963 46.724 69.8443 46.934 70.283 47.214L69.541 48.264C69.1863 48.0307 68.8317 47.8627 68.477 47.76C68.1317 47.648 67.7817 47.592 67.427 47.592C67.063 47.592 66.769 47.6667 66.545 47.816C66.3303 47.956 66.223 48.152 66.223 48.404C66.223 48.628 66.293 48.8007 66.433 48.922C66.5823 49.034 66.839 49.118 67.203 49.174L68.449 49.412C69.149 49.5333 69.667 49.7573 70.003 50.084C70.3483 50.4013 70.521 50.826 70.521 51.358C70.521 51.7873 70.395 52.1747 70.143 52.52C69.891 52.8653 69.5503 53.1407 69.121 53.346C68.6917 53.542 68.2017 53.64 67.651 53.64ZM74.8575 53.64C74.1482 53.64 73.6115 53.4767 73.2475 53.15C72.8835 52.814 72.7015 52.324 72.7015 51.68V47.746H71.3015V46.486H72.7015V44.554L74.2835 44.218V46.486H76.2295V47.746H74.2835V51.33C74.2835 51.6753 74.3582 51.9227 74.5075 52.072C74.6568 52.212 74.9088 52.282 75.2635 52.282C75.4222 52.282 75.5668 52.2727 75.6975 52.254C75.8375 52.226 76.0102 52.1793 76.2155 52.114V53.444C76.0195 53.5093 75.7955 53.556 75.5435 53.584C75.3008 53.6213 75.0722 53.64 74.8575 53.64ZM80.727 53.626C80.3537 53.626 79.999 53.5747 79.663 53.472C79.327 53.36 79.0143 53.2107 78.725 53.024L78.333 53.5H77.213L78.081 52.464C77.8103 52.1373 77.5957 51.7687 77.437 51.358C77.2783 50.938 77.199 50.4853 77.199 50C77.199 49.3093 77.353 48.6933 77.661 48.152C77.969 47.6013 78.389 47.1673 78.921 46.85C79.4623 46.5327 80.0643 46.374 80.727 46.374C81.1097 46.374 81.4643 46.43 81.791 46.542C82.127 46.6447 82.435 46.794 82.715 46.99L83.121 46.486H84.241L83.345 47.536C83.625 47.8533 83.8443 48.222 84.003 48.642C84.1617 49.062 84.241 49.5147 84.241 50C84.241 50.6907 84.087 51.3113 83.779 51.862C83.471 52.4033 83.051 52.8327 82.519 53.15C81.987 53.4673 81.3897 53.626 80.727 53.626ZM79.089 51.288L81.791 48.068C81.6417 47.956 81.4737 47.872 81.287 47.816C81.1097 47.7507 80.923 47.718 80.727 47.718C80.3443 47.718 80.0037 47.8207 79.705 48.026C79.4063 48.222 79.173 48.4927 79.005 48.838C78.837 49.174 78.753 49.5613 78.753 50C78.753 50.2427 78.781 50.476 78.837 50.7C78.9023 50.9147 78.9863 51.1107 79.089 51.288ZM80.727 52.282C81.1097 52.282 81.4457 52.184 81.735 51.988C82.0337 51.792 82.267 51.5213 82.435 51.176C82.603 50.8307 82.687 50.4387 82.687 50C82.687 49.748 82.659 49.5147 82.603 49.3C82.547 49.0853 82.463 48.8893 82.351 48.712L79.649 51.932C79.7983 52.044 79.9617 52.1327 80.139 52.198C80.3257 52.254 80.5217 52.282 80.727 52.282ZM88.5704 53.64C87.8611 53.64 87.3244 53.4767 86.9604 53.15C86.5964 52.814 86.4144 52.324 86.4144 51.68V47.746H85.0144V46.486H86.4144V44.554L87.9964 44.218V46.486H89.9424V47.746H87.9964V51.33C87.9964 51.6753 88.0711 51.9227 88.2204 52.072C88.3697 52.212 88.6217 52.282 88.9764 52.282C89.1351 52.282 89.2797 52.2727 89.4104 52.254C89.5504 52.226 89.7231 52.1793 89.9284 52.114V53.444C89.7324 53.5093 89.5084 53.556 89.2564 53.584C89.0137 53.6213 88.7851 53.64 88.5704 53.64ZM94.504 53.64C93.7947 53.64 93.258 53.4767 92.894 53.15C92.53 52.814 92.348 52.324 92.348 51.68V47.746H90.948V46.486H92.348V44.554L93.93 44.218V46.486H95.876V47.746H93.93V51.33C93.93 51.6753 94.0047 51.9227 94.154 52.072C94.3033 52.212 94.5553 52.282 94.91 52.282C95.0687 52.282 95.2133 52.2727 95.344 52.254C95.484 52.226 95.6567 52.1793 95.862 52.114V53.444C95.666 53.5093 95.442 53.556 95.19 53.584C94.9473 53.6213 94.7187 53.64 94.504 53.64ZM100.43 53.64C99.7575 53.64 99.1508 53.4813 98.6095 53.164C98.0682 52.8373 97.6388 52.4033 97.3215 51.862C97.0042 51.3113 96.8455 50.6907 96.8455 50C96.8455 49.3093 96.9948 48.6933 97.2935 48.152C97.5922 47.6107 97.9982 47.1813 98.5115 46.864C99.0342 46.5373 99.6128 46.374 100.248 46.374C100.901 46.374 101.475 46.5327 101.97 46.85C102.474 47.1673 102.866 47.5967 103.146 48.138C103.435 48.6793 103.579 49.3 103.579 50V50.378H98.3995C98.4555 50.7607 98.5768 51.1013 98.7635 51.4C98.9595 51.6893 99.2068 51.918 99.5055 52.086C99.8135 52.254 100.145 52.338 100.5 52.338C100.826 52.338 101.134 52.282 101.424 52.17C101.722 52.0487 101.97 51.8853 102.166 51.68L103.202 52.618C102.772 52.9727 102.334 53.234 101.886 53.402C101.447 53.5607 100.962 53.64 100.43 53.64ZM98.4135 49.398H102.082C102.026 49.062 101.909 48.7633 101.732 48.502C101.564 48.2407 101.349 48.0353 101.088 47.886C100.836 47.7367 100.556 47.662 100.248 47.662C99.9395 47.662 99.6548 47.7367 99.3935 47.886C99.1415 48.026 98.9315 48.2267 98.7635 48.488C98.5955 48.7493 98.4788 49.0527 98.4135 49.398Z" fill="var(--e-color-data-1-10--contrast)"/>
<path d="M25.246 83.5V73.7H26.366L32.106 81.82L32.078 73.7H33.1V83.5H32.12L26.24 75.198L26.268 83.5H25.246ZM38.4796 83.64C37.8449 83.64 37.2709 83.486 36.7576 83.178C36.2443 82.8607 35.8383 82.436 35.5396 81.904C35.2409 81.3627 35.0916 80.756 35.0916 80.084C35.0916 79.412 35.2316 78.81 35.5116 78.278C35.8009 77.746 36.1883 77.326 36.6736 77.018C37.1589 76.71 37.7003 76.556 38.2976 76.556C38.9043 76.556 39.4409 76.71 39.9076 77.018C40.3836 77.3167 40.7569 77.7273 41.0276 78.25C41.3076 78.7633 41.4476 79.3467 41.4476 80V80.308H36.0856C36.1229 80.7747 36.2489 81.1947 36.4636 81.568C36.6876 81.932 36.9769 82.2213 37.3316 82.436C37.6956 82.6413 38.0923 82.744 38.5216 82.744C38.8763 82.744 39.2169 82.6833 39.5436 82.562C39.8796 82.4313 40.1643 82.2587 40.3976 82.044L41.0416 82.73C40.6496 83.038 40.2436 83.2667 39.8236 83.416C39.4036 83.5653 38.9556 83.64 38.4796 83.64ZM36.1136 79.58H40.4396C40.3929 79.1693 40.2669 78.8053 40.0616 78.488C39.8656 78.1613 39.6136 77.9047 39.3056 77.718C39.0069 77.5313 38.6709 77.438 38.2976 77.438C37.9243 77.438 37.5836 77.5313 37.2756 77.718C36.9676 77.8953 36.7109 78.1473 36.5056 78.474C36.3096 78.7913 36.1789 79.16 36.1136 79.58ZM45.5915 83.64C45.0035 83.64 44.5555 83.5 44.2475 83.22C43.9488 82.9307 43.7995 82.5153 43.7995 81.974V77.508H42.3855V76.668H43.7995V74.792L44.8215 74.554V76.668H46.7815V77.508H44.8215V81.708C44.8215 82.072 44.8962 82.3333 45.0455 82.492C45.2042 82.6507 45.4608 82.73 45.8155 82.73C45.9928 82.73 46.1515 82.716 46.2915 82.688C46.4315 82.66 46.5948 82.6133 46.7815 82.548V83.458C46.5948 83.5233 46.3988 83.57 46.1935 83.598C45.9882 83.626 45.7875 83.64 45.5915 83.64ZM51.0192 83.64C50.4312 83.64 49.9832 83.5 49.6752 83.22C49.3766 82.9307 49.2272 82.5153 49.2272 81.974V77.508H47.8132V76.668H49.2272V74.792L50.2492 74.554V76.668H52.2092V77.508H50.2492V81.708C50.2492 82.072 50.3239 82.3333 50.4732 82.492C50.6319 82.6507 50.8886 82.73 51.2432 82.73C51.4206 82.73 51.5792 82.716 51.7192 82.688C51.8592 82.66 52.0226 82.6133 52.2092 82.548V83.458C52.0226 83.5233 51.8266 83.57 51.6212 83.598C51.4159 83.626 51.2152 83.64 51.0192 83.64ZM53.7063 83.5V73.392L54.7283 73.182V83.5H53.7063ZM59.9034 83.64C59.2688 83.64 58.6948 83.486 58.1814 83.178C57.6681 82.8607 57.2621 82.436 56.9634 81.904C56.6648 81.3627 56.5154 80.756 56.5154 80.084C56.5154 79.412 56.6554 78.81 56.9354 78.278C57.2248 77.746 57.6121 77.326 58.0974 77.018C58.5828 76.71 59.1241 76.556 59.7214 76.556C60.3281 76.556 60.8648 76.71 61.3314 77.018C61.8074 77.3167 62.1808 77.7273 62.4514 78.25C62.7314 78.7633 62.8714 79.3467 62.8714 80V80.308H57.5094C57.5468 80.7747 57.6728 81.1947 57.8874 81.568C58.1114 81.932 58.4008 82.2213 58.7554 82.436C59.1194 82.6413 59.5161 82.744 59.9454 82.744C60.3001 82.744 60.6408 82.6833 60.9674 82.562C61.3034 82.4313 61.5881 82.2587 61.8214 82.044L62.4654 82.73C62.0734 83.038 61.6674 83.2667 61.2474 83.416C60.8274 83.5653 60.3794 83.64 59.9034 83.64ZM57.5374 79.58H61.8634C61.8168 79.1693 61.6908 78.8053 61.4854 78.488C61.2894 78.1613 61.0374 77.9047 60.7294 77.718C60.4308 77.5313 60.0948 77.438 59.7214 77.438C59.3481 77.438 59.0074 77.5313 58.6994 77.718C58.3914 77.8953 58.1348 78.1473 57.9294 78.474C57.7334 78.7913 57.6028 79.16 57.5374 79.58ZM64.6024 83.5V76.668H65.6244V83.5H64.6024ZM65.1204 74.974C64.9151 74.974 64.7377 74.904 64.5884 74.764C64.4484 74.6147 64.3784 74.442 64.3784 74.246C64.3784 74.05 64.4484 73.882 64.5884 73.742C64.7377 73.5927 64.9151 73.518 65.1204 73.518C65.3257 73.518 65.4984 73.5927 65.6384 73.742C65.7877 73.882 65.8624 74.05 65.8624 74.246C65.8624 74.442 65.7877 74.6147 65.6384 74.764C65.4984 74.904 65.3257 74.974 65.1204 74.974ZM70.7999 83.64C70.1653 83.64 69.5913 83.486 69.0779 83.178C68.5646 82.8607 68.1586 82.436 67.8599 81.904C67.5613 81.3627 67.4119 80.756 67.4119 80.084C67.4119 79.412 67.5519 78.81 67.8319 78.278C68.1213 77.746 68.5086 77.326 68.9939 77.018C69.4793 76.71 70.0206 76.556 70.6179 76.556C71.2246 76.556 71.7613 76.71 72.2279 77.018C72.7039 77.3167 73.0773 77.7273 73.3479 78.25C73.6279 78.7633 73.7679 79.3467 73.7679 80V80.308H68.4059C68.4433 80.7747 68.5693 81.1947 68.7839 81.568C69.0079 81.932 69.2973 82.2213 69.6519 82.436C70.0159 82.6413 70.4126 82.744 70.8419 82.744C71.1966 82.744 71.5373 82.6833 71.8639 82.562C72.1999 82.4313 72.4846 82.2587 72.7179 82.044L73.3619 82.73C72.9699 83.038 72.5639 83.2667 72.1439 83.416C71.7239 83.5653 71.2759 83.64 70.7999 83.64ZM68.4339 79.58H72.7599C72.7133 79.1693 72.5873 78.8053 72.3819 78.488C72.1859 78.1613 71.9339 77.9047 71.6259 77.718C71.3273 77.5313 70.9913 77.438 70.6179 77.438C70.2446 77.438 69.9039 77.5313 69.5959 77.718C69.2879 77.8953 69.0313 78.1473 68.8259 78.474C68.6299 78.7913 68.4993 79.16 68.4339 79.58Z" fill="var(--e-color-data-1-10--contrast)"/>
<path d="M142.488 83.5V81.078H137.21V79.832L142.306 73.7H143.972V79.762H145.274V81.078H143.972V83.5H142.488ZM138.876 79.762H142.488V75.38L138.876 79.762ZM149.526 83.654C148.2 83.654 147.052 83.2107 146.082 82.324L147.006 81.274C147.426 81.6473 147.836 81.918 148.238 82.086C148.648 82.254 149.096 82.338 149.582 82.338C150.002 82.338 150.366 82.2587 150.674 82.1C150.991 81.9413 151.234 81.7173 151.402 81.428C151.579 81.1293 151.668 80.7933 151.668 80.42C151.668 79.8693 151.467 79.426 151.066 79.09C150.674 78.7447 150.165 78.572 149.54 78.572C149.213 78.572 148.891 78.614 148.574 78.698C148.256 78.782 147.93 78.9127 147.594 79.09L146.53 78.768L146.754 73.7H152.704V75.016H148.056L147.916 77.858C148.261 77.69 148.597 77.5687 148.924 77.494C149.26 77.4193 149.61 77.382 149.974 77.382C150.627 77.382 151.196 77.508 151.682 77.76C152.167 78.0027 152.545 78.348 152.816 78.796C153.086 79.2347 153.222 79.748 153.222 80.336C153.222 80.9987 153.068 81.5773 152.76 82.072C152.452 82.5667 152.018 82.954 151.458 83.234C150.907 83.514 150.263 83.654 149.526 83.654ZM157.592 83.654C156.267 83.654 155.119 83.2107 154.148 82.324L155.072 81.274C155.492 81.6473 155.903 81.918 156.304 82.086C156.715 82.254 157.163 82.338 157.648 82.338C158.068 82.338 158.432 82.2587 158.74 82.1C159.058 81.9413 159.3 81.7173 159.468 81.428C159.646 81.1293 159.734 80.7933 159.734 80.42C159.734 79.8693 159.534 79.426 159.132 79.09C158.74 78.7447 158.232 78.572 157.606 78.572C157.28 78.572 156.958 78.614 156.64 78.698C156.323 78.782 155.996 78.9127 155.66 79.09L154.596 78.768L154.82 73.7H160.77V75.016H156.122L155.982 77.858C156.328 77.69 156.664 77.5687 156.99 77.494C157.326 77.4193 157.676 77.382 158.04 77.382C158.694 77.382 159.263 77.508 159.748 77.76C160.234 78.0027 160.612 78.348 160.882 78.796C161.153 79.2347 161.288 79.748 161.288 80.336C161.288 80.9987 161.134 81.5773 160.826 82.072C160.518 82.5667 160.084 82.954 159.524 83.234C158.974 83.514 158.33 83.654 157.592 83.654ZM162.91 83.5V73.434L164.492 73.168V79.468L167.404 76.486H169.224L165.99 79.734L169.392 83.5H167.376L164.492 80.266V83.5H162.91ZM170.484 83.5V76.486H172.066V77.998C172.271 77.466 172.537 77.06 172.864 76.78C173.191 76.5 173.569 76.36 173.998 76.36C174.129 76.3693 174.245 76.3833 174.348 76.402C174.451 76.4113 174.563 76.444 174.684 76.5V77.886C174.563 77.83 174.423 77.788 174.264 77.76C174.115 77.732 173.965 77.718 173.816 77.718C173.433 77.718 173.088 77.8207 172.78 78.026C172.481 78.2313 172.243 78.516 172.066 78.88V83.5H170.484Z" fill="var(--e-color-data-1-10--contrast)"/>
<rect width="151" height="1" transform="translate(24 97.5)" fill="var(--e-color-border-3)"/>
<path d="M28.41 122.654C27.6447 122.654 26.9353 122.519 26.282 122.248C25.6287 121.968 24.9987 121.548 24.392 120.988L25.05 120.204C25.638 120.755 26.1887 121.147 26.702 121.38C27.2247 121.613 27.8033 121.73 28.438 121.73C28.942 121.73 29.39 121.646 29.782 121.478C30.1833 121.301 30.496 121.063 30.72 120.764C30.944 120.465 31.056 120.125 31.056 119.742C31.056 119.247 30.8927 118.874 30.566 118.622C30.2393 118.361 29.6747 118.16 28.872 118.02L27.29 117.754C26.394 117.595 25.736 117.325 25.316 116.942C24.9053 116.55 24.7 116.027 24.7 115.374C24.7 114.823 24.84 114.338 25.12 113.918C25.4093 113.489 25.806 113.153 26.31 112.91C26.814 112.667 27.3973 112.546 28.06 112.546C28.788 112.546 29.4647 112.649 30.09 112.854C30.7153 113.05 31.3313 113.363 31.938 113.792L31.378 114.632C30.874 114.249 30.342 113.96 29.782 113.764C29.222 113.559 28.6527 113.456 28.074 113.456C27.6167 113.456 27.2107 113.535 26.856 113.694C26.5107 113.853 26.2353 114.067 26.03 114.338C25.834 114.609 25.736 114.917 25.736 115.262C25.736 115.691 25.8807 116.027 26.17 116.27C26.4593 116.513 26.9307 116.685 27.584 116.788L29.152 117.054C30.1973 117.241 30.9533 117.544 31.42 117.964C31.896 118.375 32.134 118.949 32.134 119.686C32.134 120.255 31.9707 120.764 31.644 121.212C31.3267 121.66 30.888 122.015 30.328 122.276C29.768 122.528 29.1287 122.654 28.41 122.654ZM36.1716 122.64C35.5836 122.64 35.1356 122.5 34.8276 122.22C34.5289 121.931 34.3796 121.515 34.3796 120.974V116.508H32.9656V115.668H34.3796V113.792L35.4016 113.554V115.668H37.3616V116.508H35.4016V120.708C35.4016 121.072 35.4762 121.333 35.6256 121.492C35.7842 121.651 36.0409 121.73 36.3956 121.73C36.5729 121.73 36.7316 121.716 36.8716 121.688C37.0116 121.66 37.1749 121.613 37.3616 121.548V122.458C37.1749 122.523 36.9789 122.57 36.7736 122.598C36.5682 122.626 36.3676 122.64 36.1716 122.64ZM41.7319 122.612C41.3585 122.612 41.0039 122.556 40.6679 122.444C40.3412 122.332 40.0425 122.173 39.7719 121.968L39.3239 122.5H38.4699L39.2819 121.52C39.0112 121.203 38.7965 120.839 38.6379 120.428C38.4885 120.017 38.4139 119.569 38.4139 119.084C38.4139 118.412 38.5585 117.81 38.8479 117.278C39.1372 116.746 39.5339 116.326 40.0379 116.018C40.5419 115.71 41.1112 115.556 41.7459 115.556C42.1192 115.556 42.4692 115.612 42.7959 115.724C43.1319 115.836 43.4352 115.999 43.7059 116.214L44.1539 115.668H45.0079L44.1819 116.662C44.4525 116.97 44.6625 117.329 44.8119 117.74C44.9705 118.151 45.0499 118.599 45.0499 119.084C45.0499 119.756 44.9052 120.358 44.6159 120.89C44.3265 121.422 43.9299 121.842 43.4259 122.15C42.9312 122.458 42.3665 122.612 41.7319 122.612ZM39.9259 120.764L43.1039 116.928C42.9172 116.779 42.7072 116.662 42.4739 116.578C42.2405 116.494 41.9932 116.452 41.7319 116.452C41.2839 116.452 40.8872 116.569 40.5419 116.802C40.1965 117.026 39.9212 117.339 39.7159 117.74C39.5199 118.132 39.4219 118.58 39.4219 119.084C39.4219 119.401 39.4639 119.705 39.5479 119.994C39.6412 120.283 39.7672 120.54 39.9259 120.764ZM41.7319 121.716C42.1799 121.716 42.5765 121.604 42.9219 121.38C43.2672 121.147 43.5379 120.829 43.7339 120.428C43.9392 120.027 44.0419 119.579 44.0419 119.084C44.0419 118.757 43.9999 118.454 43.9159 118.174C43.8319 117.894 43.7105 117.642 43.5519 117.418L40.3739 121.24C40.5605 121.389 40.7659 121.506 40.9899 121.59C41.2232 121.674 41.4705 121.716 41.7319 121.716ZM49.0231 122.64C48.4351 122.64 47.9871 122.5 47.6791 122.22C47.3805 121.931 47.2311 121.515 47.2311 120.974V116.508H45.8171V115.668H47.2311V113.792L48.2531 113.554V115.668H50.2131V116.508H48.2531V120.708C48.2531 121.072 48.3278 121.333 48.4771 121.492C48.6358 121.651 48.8925 121.73 49.2471 121.73C49.4245 121.73 49.5831 121.716 49.7231 121.688C49.8631 121.66 50.0265 121.613 50.2131 121.548V122.458C50.0265 122.523 49.8305 122.57 49.6251 122.598C49.4198 122.626 49.2191 122.64 49.0231 122.64ZM54.4509 122.64C53.8629 122.64 53.4149 122.5 53.1069 122.22C52.8082 121.931 52.6589 121.515 52.6589 120.974V116.508H51.2449V115.668H52.6589V113.792L53.6809 113.554V115.668H55.6409V116.508H53.6809V120.708C53.6809 121.072 53.7555 121.333 53.9049 121.492C54.0635 121.651 54.3202 121.73 54.6749 121.73C54.8522 121.73 55.0109 121.716 55.1509 121.688C55.2909 121.66 55.4542 121.613 55.6409 121.548V122.458C55.4542 122.523 55.2582 122.57 55.0529 122.598C54.8475 122.626 54.6469 122.64 54.4509 122.64ZM60.0812 122.64C59.4465 122.64 58.8725 122.486 58.3592 122.178C57.8458 121.861 57.4398 121.436 57.1412 120.904C56.8425 120.363 56.6932 119.756 56.6932 119.084C56.6932 118.412 56.8332 117.81 57.1132 117.278C57.4025 116.746 57.7898 116.326 58.2752 116.018C58.7605 115.71 59.3018 115.556 59.8992 115.556C60.5058 115.556 61.0425 115.71 61.5092 116.018C61.9852 116.317 62.3585 116.727 62.6292 117.25C62.9092 117.763 63.0492 118.347 63.0492 119V119.308H57.6872C57.7245 119.775 57.8505 120.195 58.0652 120.568C58.2892 120.932 58.5785 121.221 58.9332 121.436C59.2972 121.641 59.6938 121.744 60.1232 121.744C60.4778 121.744 60.8185 121.683 61.1452 121.562C61.4812 121.431 61.7658 121.259 61.9992 121.044L62.6432 121.73C62.2512 122.038 61.8452 122.267 61.4252 122.416C61.0052 122.565 60.5572 122.64 60.0812 122.64ZM57.7152 118.58H62.0412C61.9945 118.169 61.8685 117.805 61.6632 117.488C61.4672 117.161 61.2152 116.905 60.9072 116.718C60.6085 116.531 60.2725 116.438 59.8992 116.438C59.5258 116.438 59.1852 116.531 58.8772 116.718C58.5692 116.895 58.3125 117.147 58.1072 117.474C57.9112 117.791 57.7805 118.16 57.7152 118.58Z" fill="var(--e-color-data-1-10--contrast)"/>
<path d="M139.034 119.196V117.852H143.92V119.196H139.034ZM150.555 122.5V120.078H145.277V118.832L150.373 112.7H152.039V118.762H153.341V120.078H152.039V122.5H150.555ZM146.943 118.762H150.555V114.38L146.943 118.762ZM157.592 122.654C156.267 122.654 155.119 122.211 154.148 121.324L155.072 120.274C155.492 120.647 155.903 120.918 156.304 121.086C156.715 121.254 157.163 121.338 157.648 121.338C158.068 121.338 158.432 121.259 158.74 121.1C159.058 120.941 159.3 120.717 159.468 120.428C159.646 120.129 159.734 119.793 159.734 119.42C159.734 118.869 159.534 118.426 159.132 118.09C158.74 117.745 158.232 117.572 157.606 117.572C157.28 117.572 156.958 117.614 156.64 117.698C156.323 117.782 155.996 117.913 155.66 118.09L154.596 117.768L154.82 112.7H160.77V114.016H156.122L155.982 116.858C156.328 116.69 156.664 116.569 156.99 116.494C157.326 116.419 157.676 116.382 158.04 116.382C158.694 116.382 159.263 116.508 159.748 116.76C160.234 117.003 160.612 117.348 160.882 117.796C161.153 118.235 161.288 118.748 161.288 119.336C161.288 119.999 161.134 120.577 160.826 121.072C160.518 121.567 160.084 121.954 159.524 122.234C158.974 122.514 158.33 122.654 157.592 122.654ZM162.91 122.5V112.434L164.492 112.168V118.468L167.404 115.486H169.224L165.99 118.734L169.392 122.5H167.376L164.492 119.266V122.5H162.91ZM170.484 122.5V115.486H172.066V116.998C172.271 116.466 172.537 116.06 172.864 115.78C173.191 115.5 173.569 115.36 173.998 115.36C174.129 115.369 174.245 115.383 174.348 115.402C174.451 115.411 174.563 115.444 174.684 115.5V116.886C174.563 116.83 174.423 116.788 174.264 116.76C174.115 116.732 173.965 116.718 173.816 116.718C173.433 116.718 173.088 116.821 172.78 117.026C172.481 117.231 172.243 117.516 172.066 117.88V122.5H170.484Z" fill="var(--e-color-data-1-10--contrast)"/>
<path d="M365 83C365 124.421 331.421 158 290 158C248.579 158 215 124.421 215 83C215 41.5786 248.579 8 290 8C331.421 8 365 41.5786 365 83Z" fill="var(--e-color-data-1-30)"/>
<path fill-rule="evenodd" clip-rule="evenodd" d="M306.513 118.952C307.558 118.952 308.405 119.799 308.405 120.844V138.316C308.405 138.371 308.405 138.426 308.405 138.483C308.406 140.114 308.408 142.475 307.496 144.422C306.991 145.501 306.197 146.488 304.994 147.184C303.811 147.869 302.365 148.195 300.667 148.195H229.449C228.404 148.195 227.557 147.348 227.557 146.303C227.557 145.258 228.404 144.411 229.449 144.411H300.667C301.892 144.411 302.638 144.175 303.099 143.909C303.54 143.653 303.843 143.299 304.069 142.817C304.586 141.712 304.621 140.176 304.621 138.316V120.844C304.621 119.799 305.468 118.952 306.513 118.952Z" fill="var(--e-color-static-black)"/>
<path d="M313.355 48.9447C313.037 48.5176 312.539 48.262 312.006 48.2525C311.474 48.2429 310.967 48.4805 310.634 48.8959L284.428 81.5596H242.523C241.573 81.5596 240.803 82.3298 240.803 83.2798V120.156C240.803 121.106 241.573 121.876 242.523 121.876H336.789C337.739 121.876 338.509 121.106 338.509 120.156V83.2798C338.509 82.9095 338.39 82.5491 338.168 82.2521L313.355 48.9447Z" fill="var(--e-color-static-white)"/>
<path d="M270.728 44.812C270.204 44.812 269.709 45.0508 269.382 45.4608L239.8 82.6167C239.389 83.1335 239.31 83.8402 239.596 84.4351C239.883 85.0301 240.485 85.4083 241.146 85.4083H283.464C283.995 85.4083 284.495 85.1638 284.821 84.7455L312.355 49.4113L337.451 84.6854C338.002 85.4595 339.076 85.6405 339.85 85.0898C340.624 84.5391 340.805 83.4651 340.254 82.6909L313.819 45.535C313.496 45.0814 312.974 44.812 312.417 44.812H270.728Z" fill="var(--e-color-static-black)"/>
<path d="M299.606 89.6681L300.919 87.8037L305.122 82.6272L313.089 72.4147C313.649 71.6812 314.882 71.9715 314.898 72.7356C314.914 73.4997 313.153 84.1971 312.865 85.8781C312.86 85.9102 312.863 85.9429 312.871 85.9742C312.88 86.0055 312.896 86.0348 312.916 86.0604C312.937 86.086 312.963 86.1074 312.993 86.1233C313.023 86.1392 313.055 86.1494 313.089 86.1531L316.98 86.7491C317.424 86.8104 317.835 87.0091 318.149 87.3146C318.469 87.6139 318.7 87.988 318.821 88.3996C318.925 88.8114 318.925 89.2409 318.821 89.6527C318.742 90.0757 318.567 90.4772 318.309 90.8294L313.879 96.3026L304.698 108.113C304.585 108.262 304.423 108.371 304.237 108.424C304.052 108.476 303.854 108.469 303.674 108.404C303.491 108.333 303.339 108.205 303.243 108.042C303.147 107.878 303.112 107.687 303.145 107.502L305.115 94.6652C305.121 94.6259 305.12 94.5857 305.109 94.547C305.099 94.5084 305.081 94.4722 305.055 94.4406C305.03 94.4091 304.998 94.3829 304.961 94.3637C304.924 94.3445 304.884 94.3327 304.842 94.329L301.015 93.7483C300.62 93.6887 300.245 93.5397 299.922 93.3138C299.599 93.0878 299.337 92.7915 299.158 92.4494C298.962 91.9905 298.9 91.4894 298.979 90.9995C299.058 90.5096 299.275 90.0494 299.606 89.6681Z" fill="var(--e-color-brand-accent)"/>
</g>
<path d="M448.165 189.544H450.111C450.699 189.544 451.231 189.395 451.707 189.096C452.183 188.788 452.561 188.373 452.841 187.85C453.121 187.327 453.261 186.744 453.261 186.1C453.261 185.447 453.121 184.863 452.841 184.35C452.561 183.827 452.183 183.417 451.707 183.118C451.231 182.81 450.699 182.656 450.111 182.656H448.165V189.544ZM446.485 191V181.2H450.069C450.778 181.2 451.431 181.326 452.029 181.578C452.626 181.83 453.144 182.18 453.583 182.628C454.031 183.067 454.376 183.585 454.619 184.182C454.861 184.77 454.983 185.409 454.983 186.1C454.983 186.791 454.861 187.435 454.619 188.032C454.376 188.62 454.031 189.138 453.583 189.586C453.144 190.025 452.626 190.37 452.029 190.622C451.431 190.874 450.778 191 450.069 191H446.485ZM462.183 191.154C461.493 191.154 460.844 191.028 460.237 190.776C459.64 190.515 459.113 190.155 458.655 189.698C458.207 189.231 457.857 188.695 457.605 188.088C457.353 187.472 457.227 186.809 457.227 186.1C457.227 185.391 457.353 184.733 457.605 184.126C457.857 183.51 458.207 182.973 458.655 182.516C459.113 182.049 459.64 181.69 460.237 181.438C460.844 181.177 461.493 181.046 462.183 181.046C462.874 181.046 463.518 181.177 464.115 181.438C464.722 181.69 465.249 182.049 465.697 182.516C466.155 182.973 466.509 183.51 466.761 184.126C467.013 184.733 467.139 185.391 467.139 186.1C467.139 186.809 467.013 187.472 466.761 188.088C466.509 188.695 466.155 189.231 465.697 189.698C465.249 190.155 464.722 190.515 464.115 190.776C463.518 191.028 462.874 191.154 462.183 191.154ZM462.183 189.642C462.641 189.642 463.065 189.553 463.457 189.376C463.849 189.199 464.19 188.951 464.479 188.634C464.778 188.307 465.007 187.929 465.165 187.5C465.333 187.071 465.417 186.604 465.417 186.1C465.417 185.596 465.333 185.129 465.165 184.7C465.007 184.271 464.778 183.897 464.479 183.58C464.19 183.253 463.849 183.001 463.457 182.824C463.065 182.647 462.641 182.558 462.183 182.558C461.726 182.558 461.301 182.647 460.909 182.824C460.517 183.001 460.172 183.253 459.873 183.58C459.575 183.897 459.341 184.271 459.173 184.7C459.015 185.129 458.935 185.596 458.935 186.1C458.935 186.604 459.015 187.071 459.173 187.5C459.341 187.929 459.575 188.307 459.873 188.634C460.172 188.951 460.517 189.199 460.909 189.376C461.301 189.553 461.726 189.642 462.183 189.642ZM469.837 191V181.2H471.475L476.585 188.326L476.557 181.2H478.139V191H476.641L471.391 183.678L471.419 191H469.837ZM480.685 184.196L481.623 180.5H483.219L481.861 184.196H480.685ZM488.556 191V182.656H485.28V181.2H493.512V182.656H490.236V191H488.556Z" fill="var(--e-color-text-1)"/>
<path d="M420.97 191.03C421.111 191.172 421.3 191.25 421.5 191.25C421.7 191.25 421.889 191.172 422.03 191.031C422.322 190.738 422.322 190.262 422.03 189.97L418.06 186L422.03 182.03C422.172 181.889 422.25 181.7 422.25 181.5C422.25 181.3 422.172 181.111 422.03 180.97C421.889 180.828 421.7 180.75 421.5 180.75C421.3 180.75 421.112 180.828 420.97 180.97L417 184.94L413.03 180.97C412.889 180.828 412.7 180.75 412.5 180.75C412.3 180.75 412.111 180.828 411.97 180.97C411.828 181.111 411.75 181.3 411.75 181.5C411.75 181.7 411.828 181.889 411.97 182.03L415.94 186L411.97 189.97C411.678 190.263 411.678 190.739 411.97 191.031C412.111 191.173 412.3 191.251 412.5 191.251C412.7 191.251 412.888 191.173 413.03 191.031L417 187.061L420.97 191.03Z" fill="var(--e-color-signal-danger)"/>
<path fill-rule="evenodd" clip-rule="evenodd" d="M405 186C405 192.617 410.383 198 417 198C423.617 198 429 192.617 429 186C429 179.383 423.617 174 417 174C410.383 174 405 179.383 405 186ZM406.5 186C406.5 180.21 411.21 175.5 417 175.5C422.79 175.5 427.5 180.21 427.5 186C427.5 191.79 422.79 196.5 417 196.5C411.21 196.5 406.5 191.79 406.5 186Z" fill="var(--e-color-signal-danger)"/>
<g clip-path="url(#clip1_18782_33786)">
<rect x="405" y="13.5" width="199" height="139" rx="8" fill="var(--e-color-brand-accent)"/>
<path d="M433.452 53.654C432.687 53.654 431.963 53.5233 431.282 53.262C430.61 52.9913 429.961 52.5947 429.336 52.072L430.246 50.84C430.881 51.3533 431.445 51.722 431.94 51.946C432.444 52.1607 432.981 52.268 433.55 52.268C433.979 52.268 434.357 52.2027 434.684 52.072C435.02 51.932 435.277 51.7453 435.454 51.512C435.641 51.2787 435.734 51.008 435.734 50.7C435.734 50.2987 435.599 49.9953 435.328 49.79C435.067 49.5753 434.609 49.412 433.956 49.3L432.15 48.992C431.301 48.8427 430.666 48.558 430.246 48.138C429.835 47.7087 429.63 47.1627 429.63 46.5C429.63 45.912 429.779 45.3987 430.078 44.96C430.377 44.512 430.792 44.1667 431.324 43.924C431.865 43.672 432.505 43.546 433.242 43.546C433.979 43.546 434.679 43.6533 435.342 43.868C436.005 44.0827 436.616 44.3953 437.176 44.806L436.322 46.066C435.827 45.6927 435.319 45.4127 434.796 45.226C434.273 45.03 433.737 44.932 433.186 44.932C432.794 44.932 432.449 44.9927 432.15 45.114C431.861 45.2353 431.632 45.4033 431.464 45.618C431.305 45.8327 431.226 46.0707 431.226 46.332C431.226 46.6867 431.343 46.962 431.576 47.158C431.819 47.3447 432.206 47.4847 432.738 47.578L434.488 47.872C435.477 48.0493 436.205 48.3573 436.672 48.796C437.148 49.2347 437.386 49.8273 437.386 50.574C437.386 51.1713 437.218 51.7033 436.882 52.17C436.555 52.6367 436.098 53.0007 435.51 53.262C434.922 53.5233 434.236 53.654 433.452 53.654ZM441.713 53.64C441.004 53.64 440.467 53.4767 440.103 53.15C439.739 52.814 439.557 52.324 439.557 51.68V47.746H438.157V46.486H439.557V44.554L441.139 44.218V46.486H443.085V47.746H441.139V51.33C441.139 51.6753 441.214 51.9227 441.363 52.072C441.512 52.212 441.764 52.282 442.119 52.282C442.278 52.282 442.422 52.2727 442.553 52.254C442.693 52.226 442.866 52.1793 443.071 52.114V53.444C442.875 53.5093 442.651 53.556 442.399 53.584C442.156 53.6213 441.928 53.64 441.713 53.64ZM444.486 53.5V46.486H446.068V47.998C446.273 47.466 446.539 47.06 446.866 46.78C447.193 46.5 447.571 46.36 448 46.36C448.131 46.3693 448.247 46.3833 448.35 46.402C448.453 46.4113 448.565 46.444 448.686 46.5V47.886C448.565 47.83 448.425 47.788 448.266 47.76C448.117 47.732 447.967 47.718 447.818 47.718C447.435 47.718 447.09 47.8207 446.782 48.026C446.483 48.2313 446.245 48.516 446.068 48.88V53.5H444.486ZM452.86 53.626C452.486 53.626 452.132 53.5747 451.796 53.472C451.46 53.36 451.147 53.2107 450.858 53.024L450.466 53.5H449.346L450.214 52.464C449.943 52.1373 449.728 51.7687 449.57 51.358C449.411 50.938 449.332 50.4853 449.332 50C449.332 49.3093 449.486 48.6933 449.794 48.152C450.102 47.6013 450.522 47.1673 451.054 46.85C451.595 46.5327 452.197 46.374 452.86 46.374C453.242 46.374 453.597 46.43 453.924 46.542C454.26 46.6447 454.568 46.794 454.848 46.99L455.254 46.486H456.374L455.478 47.536C455.758 47.8533 455.977 48.222 456.136 48.642C456.294 49.062 456.374 49.5147 456.374 50C456.374 50.6907 456.22 51.3113 455.912 51.862C455.604 52.4033 455.184 52.8327 454.652 53.15C454.12 53.4673 453.522 53.626 452.86 53.626ZM451.222 51.288L453.924 48.068C453.774 47.956 453.606 47.872 453.42 47.816C453.242 47.7507 453.056 47.718 452.86 47.718C452.477 47.718 452.136 47.8207 451.838 48.026C451.539 48.222 451.306 48.4927 451.138 48.838C450.97 49.174 450.886 49.5613 450.886 50C450.886 50.2427 450.914 50.476 450.97 50.7C451.035 50.9147 451.119 51.1107 451.222 51.288ZM452.86 52.282C453.242 52.282 453.578 52.184 453.868 51.988C454.166 51.792 454.4 51.5213 454.568 51.176C454.736 50.8307 454.82 50.4387 454.82 50C454.82 49.748 454.792 49.5147 454.736 49.3C454.68 49.0853 454.596 48.8893 454.484 48.712L451.782 51.932C451.931 52.044 452.094 52.1327 452.272 52.198C452.458 52.254 452.654 52.282 452.86 52.282ZM458.007 53.5V46.486H459.589V47.592C459.851 47.1907 460.154 46.8873 460.499 46.682C460.854 46.4767 461.241 46.374 461.661 46.374C462.147 46.374 462.567 46.4953 462.921 46.738C463.285 46.9807 463.556 47.3073 463.733 47.718C464.013 47.2793 464.345 46.948 464.727 46.724C465.119 46.4907 465.563 46.374 466.057 46.374C466.505 46.374 466.902 46.4813 467.247 46.696C467.602 46.9107 467.873 47.2093 468.059 47.592C468.255 47.9747 468.353 48.4133 468.353 48.908V53.5H466.771V49.258C466.771 48.7633 466.645 48.3713 466.393 48.082C466.141 47.7927 465.796 47.648 465.357 47.648C465.077 47.648 464.816 47.718 464.573 47.858C464.34 47.998 464.135 48.208 463.957 48.488C463.967 48.5533 463.971 48.6233 463.971 48.698C463.981 48.7633 463.985 48.8333 463.985 48.908V53.5H462.389V49.258C462.389 48.7633 462.263 48.3713 462.011 48.082C461.759 47.7927 461.414 47.648 460.975 47.648C460.406 47.648 459.944 47.9187 459.589 48.46V53.5H458.007ZM472.651 53.64C472.054 53.64 471.494 53.5607 470.971 53.402C470.458 53.234 470.014 52.996 469.641 52.688L470.383 51.638C470.85 51.9273 471.251 52.1327 471.587 52.254C471.932 52.3753 472.282 52.436 472.637 52.436C473.057 52.436 473.398 52.3473 473.659 52.17C473.92 51.9927 474.051 51.764 474.051 51.484C474.051 51.2693 473.972 51.1013 473.813 50.98C473.664 50.8493 473.416 50.7513 473.071 50.686L471.839 50.476C471.158 50.3453 470.649 50.1213 470.313 49.804C469.977 49.4867 469.809 49.0667 469.809 48.544C469.809 48.1053 469.921 47.7273 470.145 47.41C470.378 47.0833 470.696 46.8313 471.097 46.654C471.508 46.4673 471.984 46.374 472.525 46.374C473.01 46.374 473.482 46.444 473.939 46.584C474.396 46.724 474.844 46.934 475.283 47.214L474.541 48.264C474.186 48.0307 473.832 47.8627 473.477 47.76C473.132 47.648 472.782 47.592 472.427 47.592C472.063 47.592 471.769 47.6667 471.545 47.816C471.33 47.956 471.223 48.152 471.223 48.404C471.223 48.628 471.293 48.8007 471.433 48.922C471.582 49.034 471.839 49.118 472.203 49.174L473.449 49.412C474.149 49.5333 474.667 49.7573 475.003 50.084C475.348 50.4013 475.521 50.826 475.521 51.358C475.521 51.7873 475.395 52.1747 475.143 52.52C474.891 52.8653 474.55 53.1407 474.121 53.346C473.692 53.542 473.202 53.64 472.651 53.64ZM479.858 53.64C479.148 53.64 478.612 53.4767 478.248 53.15C477.884 52.814 477.702 52.324 477.702 51.68V47.746H476.302V46.486H477.702V44.554L479.284 44.218V46.486H481.23V47.746H479.284V51.33C479.284 51.6753 479.358 51.9227 479.508 52.072C479.657 52.212 479.909 52.282 480.264 52.282C480.422 52.282 480.567 52.2727 480.698 52.254C480.838 52.226 481.01 52.1793 481.216 52.114V53.444C481.02 53.5093 480.796 53.556 480.544 53.584C480.301 53.6213 480.072 53.64 479.858 53.64ZM485.727 53.626C485.354 53.626 484.999 53.5747 484.663 53.472C484.327 53.36 484.014 53.2107 483.725 53.024L483.333 53.5H482.213L483.081 52.464C482.81 52.1373 482.596 51.7687 482.437 51.358C482.278 50.938 482.199 50.4853 482.199 50C482.199 49.3093 482.353 48.6933 482.661 48.152C482.969 47.6013 483.389 47.1673 483.921 46.85C484.462 46.5327 485.064 46.374 485.727 46.374C486.11 46.374 486.464 46.43 486.791 46.542C487.127 46.6447 487.435 46.794 487.715 46.99L488.121 46.486H489.241L488.345 47.536C488.625 47.8533 488.844 48.222 489.003 48.642C489.162 49.062 489.241 49.5147 489.241 50C489.241 50.6907 489.087 51.3113 488.779 51.862C488.471 52.4033 488.051 52.8327 487.519 53.15C486.987 53.4673 486.39 53.626 485.727 53.626ZM484.089 51.288L486.791 48.068C486.642 47.956 486.474 47.872 486.287 47.816C486.11 47.7507 485.923 47.718 485.727 47.718C485.344 47.718 485.004 47.8207 484.705 48.026C484.406 48.222 484.173 48.4927 484.005 48.838C483.837 49.174 483.753 49.5613 483.753 50C483.753 50.2427 483.781 50.476 483.837 50.7C483.902 50.9147 483.986 51.1107 484.089 51.288ZM485.727 52.282C486.11 52.282 486.446 52.184 486.735 51.988C487.034 51.792 487.267 51.5213 487.435 51.176C487.603 50.8307 487.687 50.4387 487.687 50C487.687 49.748 487.659 49.5147 487.603 49.3C487.547 49.0853 487.463 48.8893 487.351 48.712L484.649 51.932C484.798 52.044 484.962 52.1327 485.139 52.198C485.326 52.254 485.522 52.282 485.727 52.282ZM493.57 53.64C492.861 53.64 492.324 53.4767 491.96 53.15C491.596 52.814 491.414 52.324 491.414 51.68V47.746H490.014V46.486H491.414V44.554L492.996 44.218V46.486H494.942V47.746H492.996V51.33C492.996 51.6753 493.071 51.9227 493.22 52.072C493.37 52.212 493.622 52.282 493.976 52.282C494.135 52.282 494.28 52.2727 494.41 52.254C494.55 52.226 494.723 52.1793 494.928 52.114V53.444C494.732 53.5093 494.508 53.556 494.256 53.584C494.014 53.6213 493.785 53.64 493.57 53.64ZM499.504 53.64C498.795 53.64 498.258 53.4767 497.894 53.15C497.53 52.814 497.348 52.324 497.348 51.68V47.746H495.948V46.486H497.348V44.554L498.93 44.218V46.486H500.876V47.746H498.93V51.33C498.93 51.6753 499.005 51.9227 499.154 52.072C499.303 52.212 499.555 52.282 499.91 52.282C500.069 52.282 500.213 52.2727 500.344 52.254C500.484 52.226 500.657 52.1793 500.862 52.114V53.444C500.666 53.5093 500.442 53.556 500.19 53.584C499.947 53.6213 499.719 53.64 499.504 53.64ZM505.43 53.64C504.758 53.64 504.151 53.4813 503.61 53.164C503.068 52.8373 502.639 52.4033 502.322 51.862C502.004 51.3113 501.846 50.6907 501.846 50C501.846 49.3093 501.995 48.6933 502.294 48.152C502.592 47.6107 502.998 47.1813 503.512 46.864C504.034 46.5373 504.613 46.374 505.248 46.374C505.901 46.374 506.475 46.5327 506.97 46.85C507.474 47.1673 507.866 47.5967 508.146 48.138C508.435 48.6793 508.579 49.3 508.579 50V50.378H503.4C503.456 50.7607 503.577 51.1013 503.764 51.4C503.96 51.6893 504.207 51.918 504.506 52.086C504.814 52.254 505.145 52.338 505.5 52.338C505.826 52.338 506.134 52.282 506.424 52.17C506.722 52.0487 506.97 51.8853 507.166 51.68L508.202 52.618C507.772 52.9727 507.334 53.234 506.886 53.402C506.447 53.5607 505.962 53.64 505.43 53.64ZM503.414 49.398H507.082C507.026 49.062 506.909 48.7633 506.732 48.502C506.564 48.2407 506.349 48.0353 506.088 47.886C505.836 47.7367 505.556 47.662 505.248 47.662C504.94 47.662 504.655 47.7367 504.394 47.886C504.142 48.026 503.932 48.2267 503.764 48.488C503.596 48.7493 503.479 49.0527 503.414 49.398Z" fill="var(--e-color-brand-accent--contrast)"/>
<path d="M430.246 83.5V73.7H431.366L437.106 81.82L437.078 73.7H438.1V83.5H437.12L431.24 75.198L431.268 83.5H430.246ZM443.48 83.64C442.845 83.64 442.271 83.486 441.758 83.178C441.244 82.8607 440.838 82.436 440.54 81.904C440.241 81.3627 440.092 80.756 440.092 80.084C440.092 79.412 440.232 78.81 440.512 78.278C440.801 77.746 441.188 77.326 441.674 77.018C442.159 76.71 442.7 76.556 443.298 76.556C443.904 76.556 444.441 76.71 444.908 77.018C445.384 77.3167 445.757 77.7273 446.028 78.25C446.308 78.7633 446.448 79.3467 446.448 80V80.308H441.086C441.123 80.7747 441.249 81.1947 441.464 81.568C441.688 81.932 441.977 82.2213 442.332 82.436C442.696 82.6413 443.092 82.744 443.522 82.744C443.876 82.744 444.217 82.6833 444.544 82.562C444.88 82.4313 445.164 82.2587 445.398 82.044L446.042 82.73C445.65 83.038 445.244 83.2667 444.824 83.416C444.404 83.5653 443.956 83.64 443.48 83.64ZM441.114 79.58H445.44C445.393 79.1693 445.267 78.8053 445.062 78.488C444.866 78.1613 444.614 77.9047 444.306 77.718C444.007 77.5313 443.671 77.438 443.298 77.438C442.924 77.438 442.584 77.5313 442.276 77.718C441.968 77.8953 441.711 78.1473 441.506 78.474C441.31 78.7913 441.179 79.16 441.114 79.58ZM450.592 83.64C450.004 83.64 449.556 83.5 449.248 83.22C448.949 82.9307 448.8 82.5153 448.8 81.974V77.508H447.386V76.668H448.8V74.792L449.822 74.554V76.668H451.782V77.508H449.822V81.708C449.822 82.072 449.896 82.3333 450.046 82.492C450.204 82.6507 450.461 82.73 450.816 82.73C450.993 82.73 451.152 82.716 451.292 82.688C451.432 82.66 451.595 82.6133 451.782 82.548V83.458C451.595 83.5233 451.399 83.57 451.194 83.598C450.988 83.626 450.788 83.64 450.592 83.64ZM456.019 83.64C455.431 83.64 454.983 83.5 454.675 83.22C454.377 82.9307 454.227 82.5153 454.227 81.974V77.508H452.813V76.668H454.227V74.792L455.249 74.554V76.668H457.209V77.508H455.249V81.708C455.249 82.072 455.324 82.3333 455.473 82.492C455.632 82.6507 455.889 82.73 456.243 82.73C456.421 82.73 456.579 82.716 456.719 82.688C456.859 82.66 457.023 82.6133 457.209 82.548V83.458C457.023 83.5233 456.827 83.57 456.621 83.598C456.416 83.626 456.215 83.64 456.019 83.64ZM458.706 83.5V73.392L459.728 73.182V83.5H458.706ZM464.903 83.64C464.269 83.64 463.695 83.486 463.181 83.178C462.668 82.8607 462.262 82.436 461.963 81.904C461.665 81.3627 461.515 80.756 461.515 80.084C461.515 79.412 461.655 78.81 461.935 78.278C462.225 77.746 462.612 77.326 463.097 77.018C463.583 76.71 464.124 76.556 464.721 76.556C465.328 76.556 465.865 76.71 466.331 77.018C466.807 77.3167 467.181 77.7273 467.451 78.25C467.731 78.7633 467.871 79.3467 467.871 80V80.308H462.509C462.547 80.7747 462.673 81.1947 462.887 81.568C463.111 81.932 463.401 82.2213 463.755 82.436C464.119 82.6413 464.516 82.744 464.945 82.744C465.3 82.744 465.641 82.6833 465.967 82.562C466.303 82.4313 466.588 82.2587 466.821 82.044L467.465 82.73C467.073 83.038 466.667 83.2667 466.247 83.416C465.827 83.5653 465.379 83.64 464.903 83.64ZM462.537 79.58H466.863C466.817 79.1693 466.691 78.8053 466.485 78.488C466.289 78.1613 466.037 77.9047 465.729 77.718C465.431 77.5313 465.095 77.438 464.721 77.438C464.348 77.438 464.007 77.5313 463.699 77.718C463.391 77.8953 463.135 78.1473 462.929 78.474C462.733 78.7913 462.603 79.16 462.537 79.58ZM469.602 83.5V76.668H470.624V83.5H469.602ZM470.12 74.974C469.915 74.974 469.738 74.904 469.588 74.764C469.448 74.6147 469.378 74.442 469.378 74.246C469.378 74.05 469.448 73.882 469.588 73.742C469.738 73.5927 469.915 73.518 470.12 73.518C470.326 73.518 470.498 73.5927 470.638 73.742C470.788 73.882 470.862 74.05 470.862 74.246C470.862 74.442 470.788 74.6147 470.638 74.764C470.498 74.904 470.326 74.974 470.12 74.974ZM475.8 83.64C475.165 83.64 474.591 83.486 474.078 83.178C473.565 82.8607 473.159 82.436 472.86 81.904C472.561 81.3627 472.412 80.756 472.412 80.084C472.412 79.412 472.552 78.81 472.832 78.278C473.121 77.746 473.509 77.326 473.994 77.018C474.479 76.71 475.021 76.556 475.618 76.556C476.225 76.556 476.761 76.71 477.228 77.018C477.704 77.3167 478.077 77.7273 478.348 78.25C478.628 78.7633 478.768 79.3467 478.768 80V80.308H473.406C473.443 80.7747 473.569 81.1947 473.784 81.568C474.008 81.932 474.297 82.2213 474.652 82.436C475.016 82.6413 475.413 82.744 475.842 82.744C476.197 82.744 476.537 82.6833 476.864 82.562C477.2 82.4313 477.485 82.2587 477.718 82.044L478.362 82.73C477.97 83.038 477.564 83.2667 477.144 83.416C476.724 83.5653 476.276 83.64 475.8 83.64ZM473.434 79.58H477.76C477.713 79.1693 477.587 78.8053 477.382 78.488C477.186 78.1613 476.934 77.9047 476.626 77.718C476.327 77.5313 475.991 77.438 475.618 77.438C475.245 77.438 474.904 77.5313 474.596 77.718C474.288 77.8953 474.031 78.1473 473.826 78.474C473.63 78.7913 473.499 79.16 473.434 79.58Z" fill="var(--e-color-brand-accent--contrast)"/>
<path d="M547.488 83.5V81.078H542.21V79.832L547.306 73.7H548.972V79.762H550.274V81.078H548.972V83.5H547.488ZM543.876 79.762H547.488V75.38L543.876 79.762ZM554.526 83.654C553.2 83.654 552.052 83.2107 551.082 82.324L552.006 81.274C552.426 81.6473 552.836 81.918 553.238 82.086C553.648 82.254 554.096 82.338 554.582 82.338C555.002 82.338 555.366 82.2587 555.674 82.1C555.991 81.9413 556.234 81.7173 556.402 81.428C556.579 81.1293 556.668 80.7933 556.668 80.42C556.668 79.8693 556.467 79.426 556.066 79.09C555.674 78.7447 555.165 78.572 554.54 78.572C554.213 78.572 553.891 78.614 553.574 78.698C553.256 78.782 552.93 78.9127 552.594 79.09L551.53 78.768L551.754 73.7H557.704V75.016H553.056L552.916 77.858C553.261 77.69 553.597 77.5687 553.924 77.494C554.26 77.4193 554.61 77.382 554.974 77.382C555.627 77.382 556.196 77.508 556.682 77.76C557.167 78.0027 557.545 78.348 557.816 78.796C558.086 79.2347 558.222 79.748 558.222 80.336C558.222 80.9987 558.068 81.5773 557.76 82.072C557.452 82.5667 557.018 82.954 556.458 83.234C555.907 83.514 555.263 83.654 554.526 83.654ZM562.592 83.654C561.267 83.654 560.119 83.2107 559.148 82.324L560.072 81.274C560.492 81.6473 560.903 81.918 561.304 82.086C561.715 82.254 562.163 82.338 562.648 82.338C563.068 82.338 563.432 82.2587 563.74 82.1C564.058 81.9413 564.3 81.7173 564.468 81.428C564.646 81.1293 564.734 80.7933 564.734 80.42C564.734 79.8693 564.534 79.426 564.132 79.09C563.74 78.7447 563.232 78.572 562.606 78.572C562.28 78.572 561.958 78.614 561.64 78.698C561.323 78.782 560.996 78.9127 560.66 79.09L559.596 78.768L559.82 73.7H565.77V75.016H561.122L560.982 77.858C561.328 77.69 561.664 77.5687 561.99 77.494C562.326 77.4193 562.676 77.382 563.04 77.382C563.694 77.382 564.263 77.508 564.748 77.76C565.234 78.0027 565.612 78.348 565.882 78.796C566.153 79.2347 566.288 79.748 566.288 80.336C566.288 80.9987 566.134 81.5773 565.826 82.072C565.518 82.5667 565.084 82.954 564.524 83.234C563.974 83.514 563.33 83.654 562.592 83.654ZM567.91 83.5V73.434L569.492 73.168V79.468L572.404 76.486H574.224L570.99 79.734L574.392 83.5H572.376L569.492 80.266V83.5H567.91ZM575.484 83.5V76.486H577.066V77.998C577.271 77.466 577.537 77.06 577.864 76.78C578.191 76.5 578.569 76.36 578.998 76.36C579.129 76.3693 579.245 76.3833 579.348 76.402C579.451 76.4113 579.563 76.444 579.684 76.5V77.886C579.563 77.83 579.423 77.788 579.264 77.76C579.115 77.732 578.965 77.718 578.816 77.718C578.433 77.718 578.088 77.8207 577.78 78.026C577.481 78.2313 577.243 78.516 577.066 78.88V83.5H575.484Z" fill="var(--e-color-brand-accent--contrast)"/>
<rect width="151" height="1" transform="translate(429 97.5)" fill="var(--e-color-border-3)"/>
<path d="M433.41 122.654C432.645 122.654 431.935 122.519 431.282 122.248C430.629 121.968 429.999 121.548 429.392 120.988L430.05 120.204C430.638 120.755 431.189 121.147 431.702 121.38C432.225 121.613 432.803 121.73 433.438 121.73C433.942 121.73 434.39 121.646 434.782 121.478C435.183 121.301 435.496 121.063 435.72 120.764C435.944 120.465 436.056 120.125 436.056 119.742C436.056 119.247 435.893 118.874 435.566 118.622C435.239 118.361 434.675 118.16 433.872 118.02L432.29 117.754C431.394 117.595 430.736 117.325 430.316 116.942C429.905 116.55 429.7 116.027 429.7 115.374C429.7 114.823 429.84 114.338 430.12 113.918C430.409 113.489 430.806 113.153 431.31 112.91C431.814 112.667 432.397 112.546 433.06 112.546C433.788 112.546 434.465 112.649 435.09 112.854C435.715 113.05 436.331 113.363 436.938 113.792L436.378 114.632C435.874 114.249 435.342 113.96 434.782 113.764C434.222 113.559 433.653 113.456 433.074 113.456C432.617 113.456 432.211 113.535 431.856 113.694C431.511 113.853 431.235 114.067 431.03 114.338C430.834 114.609 430.736 114.917 430.736 115.262C430.736 115.691 430.881 116.027 431.17 116.27C431.459 116.513 431.931 116.685 432.584 116.788L434.152 117.054C435.197 117.241 435.953 117.544 436.42 117.964C436.896 118.375 437.134 118.949 437.134 119.686C437.134 120.255 436.971 120.764 436.644 121.212C436.327 121.66 435.888 122.015 435.328 122.276C434.768 122.528 434.129 122.654 433.41 122.654ZM441.172 122.64C440.584 122.64 440.136 122.5 439.828 122.22C439.529 121.931 439.38 121.515 439.38 120.974V116.508H437.966V115.668H439.38V113.792L440.402 113.554V115.668H442.362V116.508H440.402V120.708C440.402 121.072 440.476 121.333 440.626 121.492C440.784 121.651 441.041 121.73 441.396 121.73C441.573 121.73 441.732 121.716 441.872 121.688C442.012 121.66 442.175 121.613 442.362 121.548V122.458C442.175 122.523 441.979 122.57 441.774 122.598C441.568 122.626 441.368 122.64 441.172 122.64ZM446.732 122.612C446.359 122.612 446.004 122.556 445.668 122.444C445.341 122.332 445.043 122.173 444.772 121.968L444.324 122.5H443.47L444.282 121.52C444.011 121.203 443.797 120.839 443.638 120.428C443.489 120.017 443.414 119.569 443.414 119.084C443.414 118.412 443.559 117.81 443.848 117.278C444.137 116.746 444.534 116.326 445.038 116.018C445.542 115.71 446.111 115.556 446.746 115.556C447.119 115.556 447.469 115.612 447.796 115.724C448.132 115.836 448.435 115.999 448.706 116.214L449.154 115.668H450.008L449.182 116.662C449.453 116.97 449.663 117.329 449.812 117.74C449.971 118.151 450.05 118.599 450.05 119.084C450.05 119.756 449.905 120.358 449.616 120.89C449.327 121.422 448.93 121.842 448.426 122.15C447.931 122.458 447.367 122.612 446.732 122.612ZM444.926 120.764L448.104 116.928C447.917 116.779 447.707 116.662 447.474 116.578C447.241 116.494 446.993 116.452 446.732 116.452C446.284 116.452 445.887 116.569 445.542 116.802C445.197 117.026 444.921 117.339 444.716 117.74C444.52 118.132 444.422 118.58 444.422 119.084C444.422 119.401 444.464 119.705 444.548 119.994C444.641 120.283 444.767 120.54 444.926 120.764ZM446.732 121.716C447.18 121.716 447.577 121.604 447.922 121.38C448.267 121.147 448.538 120.829 448.734 120.428C448.939 120.027 449.042 119.579 449.042 119.084C449.042 118.757 449 118.454 448.916 118.174C448.832 117.894 448.711 117.642 448.552 117.418L445.374 121.24C445.561 121.389 445.766 121.506 445.99 121.59C446.223 121.674 446.471 121.716 446.732 121.716ZM454.023 122.64C453.435 122.64 452.987 122.5 452.679 122.22C452.38 121.931 452.231 121.515 452.231 120.974V116.508H450.817V115.668H452.231V113.792L453.253 113.554V115.668H455.213V116.508H453.253V120.708C453.253 121.072 453.328 121.333 453.477 121.492C453.636 121.651 453.892 121.73 454.247 121.73C454.424 121.73 454.583 121.716 454.723 121.688C454.863 121.66 455.026 121.613 455.213 121.548V122.458C455.026 122.523 454.83 122.57 454.625 122.598C454.42 122.626 454.219 122.64 454.023 122.64ZM459.451 122.64C458.863 122.64 458.415 122.5 458.107 122.22C457.808 121.931 457.659 121.515 457.659 120.974V116.508H456.245V115.668H457.659V113.792L458.681 113.554V115.668H460.641V116.508H458.681V120.708C458.681 121.072 458.756 121.333 458.905 121.492C459.064 121.651 459.32 121.73 459.675 121.73C459.852 121.73 460.011 121.716 460.151 121.688C460.291 121.66 460.454 121.613 460.641 121.548V122.458C460.454 122.523 460.258 122.57 460.053 122.598C459.848 122.626 459.647 122.64 459.451 122.64ZM465.081 122.64C464.447 122.64 463.873 122.486 463.359 122.178C462.846 121.861 462.44 121.436 462.141 120.904C461.843 120.363 461.693 119.756 461.693 119.084C461.693 118.412 461.833 117.81 462.113 117.278C462.403 116.746 462.79 116.326 463.275 116.018C463.761 115.71 464.302 115.556 464.899 115.556C465.506 115.556 466.043 115.71 466.509 116.018C466.985 116.317 467.359 116.727 467.629 117.25C467.909 117.763 468.049 118.347 468.049 119V119.308H462.687C462.725 119.775 462.851 120.195 463.065 120.568C463.289 120.932 463.579 121.221 463.933 121.436C464.297 121.641 464.694 121.744 465.123 121.744C465.478 121.744 465.819 121.683 466.145 121.562C466.481 121.431 466.766 121.259 466.999 121.044L467.643 121.73C467.251 122.038 466.845 122.267 466.425 122.416C466.005 122.565 465.557 122.64 465.081 122.64ZM462.715 118.58H467.041C466.995 118.169 466.869 117.805 466.663 117.488C466.467 117.161 466.215 116.905 465.907 116.718C465.609 116.531 465.273 116.438 464.899 116.438C464.526 116.438 464.185 116.531 463.877 116.718C463.569 116.895 463.313 117.147 463.107 117.474C462.911 117.791 462.781 118.16 462.715 118.58Z" fill="var(--e-color-brand-accent--contrast)"/>
<path d="M544.034 119.196V117.852H548.92V119.196H544.034ZM555.555 122.5V120.078H550.277V118.832L555.373 112.7H557.039V118.762H558.341V120.078H557.039V122.5H555.555ZM551.943 118.762H555.555V114.38L551.943 118.762ZM562.592 122.654C561.267 122.654 560.119 122.211 559.148 121.324L560.072 120.274C560.492 120.647 560.903 120.918 561.304 121.086C561.715 121.254 562.163 121.338 562.648 121.338C563.068 121.338 563.432 121.259 563.74 121.1C564.058 120.941 564.3 120.717 564.468 120.428C564.646 120.129 564.734 119.793 564.734 119.42C564.734 118.869 564.534 118.426 564.132 118.09C563.74 117.745 563.232 117.572 562.606 117.572C562.28 117.572 561.958 117.614 561.64 117.698C561.323 117.782 560.996 117.913 560.66 118.09L559.596 117.768L559.82 112.7H565.77V114.016H561.122L560.982 116.858C561.328 116.69 561.664 116.569 561.99 116.494C562.326 116.419 562.676 116.382 563.04 116.382C563.694 116.382 564.263 116.508 564.748 116.76C565.234 117.003 565.612 117.348 565.882 117.796C566.153 118.235 566.288 118.748 566.288 119.336C566.288 119.999 566.134 120.577 565.826 121.072C565.518 121.567 565.084 121.954 564.524 122.234C563.974 122.514 563.33 122.654 562.592 122.654ZM567.91 122.5V112.434L569.492 112.168V118.468L572.404 115.486H574.224L570.99 118.734L574.392 122.5H572.376L569.492 119.266V122.5H567.91ZM575.484 122.5V115.486H577.066V116.998C577.271 116.466 577.537 116.06 577.864 115.78C578.191 115.5 578.569 115.36 578.998 115.36C579.129 115.369 579.245 115.383 579.348 115.402C579.451 115.411 579.563 115.444 579.684 115.5V116.886C579.563 116.83 579.423 116.788 579.264 116.76C579.115 116.732 578.965 116.718 578.816 116.718C578.433 116.718 578.088 116.821 577.78 117.026C577.481 117.231 577.243 117.516 577.066 117.88V122.5H575.484Z" fill="var(--e-color-brand-accent--contrast)"/>
<path d="M770 83C770 124.421 736.421 158 695 158C653.579 158 620 124.421 620 83C620 41.5786 653.579 8 695 8C736.421 8 770 41.5786 770 83Z" fill="var(--e-color-brand-accent)"/>
<path fill-rule="evenodd" clip-rule="evenodd" d="M711.513 118.952C712.558 118.952 713.405 119.799 713.405 120.844V138.316C713.405 138.371 713.405 138.426 713.405 138.483C713.406 140.114 713.408 142.475 712.496 144.422C711.991 145.501 711.197 146.488 709.994 147.184C708.811 147.869 707.365 148.195 705.667 148.195H634.449C633.404 148.195 632.557 147.348 632.557 146.303C632.557 145.258 633.404 144.411 634.449 144.411H705.667C706.892 144.411 707.638 144.175 708.099 143.909C708.54 143.653 708.843 143.299 709.069 142.817C709.586 141.712 709.621 140.176 709.621 138.316V120.844C709.621 119.799 710.468 118.952 711.513 118.952Z" fill="var(--e-color-static-black)"/>
<path d="M718.355 48.9447C718.037 48.5176 717.539 48.262 717.006 48.2525C716.474 48.2429 715.967 48.4805 715.634 48.8959L689.428 81.5596H647.523C646.573 81.5596 645.803 82.3298 645.803 83.2798V120.156C645.803 121.106 646.573 121.876 647.523 121.876H741.789C742.739 121.876 743.509 121.106 743.509 120.156V83.2798C743.509 82.9095 743.39 82.5491 743.168 82.2521L718.355 48.9447Z" fill="var(--e-color-static-white)"/>
<path d="M675.728 44.812C675.204 44.812 674.709 45.0508 674.382 45.4608L644.8 82.6167C644.389 83.1335 644.31 83.8402 644.596 84.4351C644.883 85.0301 645.485 85.4083 646.146 85.4083H688.464C688.995 85.4083 689.495 85.1638 689.821 84.7455L717.355 49.4113L742.451 84.6854C743.002 85.4595 744.076 85.6405 744.85 85.0898C745.624 84.5391 745.805 83.4651 745.254 82.6909L718.819 45.535C718.496 45.0814 717.974 44.812 717.417 44.812H675.728Z" fill="var(--e-color-static-black)"/>
<path d="M704.606 89.6681L705.919 87.8037L710.122 82.6272L718.089 72.4147C718.649 71.6812 719.882 71.9715 719.898 72.7356C719.914 73.4997 718.153 84.1971 717.865 85.8781C717.86 85.9102 717.863 85.9429 717.871 85.9742C717.88 86.0055 717.896 86.0348 717.916 86.0604C717.937 86.086 717.963 86.1074 717.993 86.1233C718.023 86.1392 718.055 86.1494 718.089 86.1531L721.98 86.7491C722.424 86.8104 722.835 87.0091 723.149 87.3146C723.469 87.6139 723.7 87.988 723.821 88.3996C723.925 88.8114 723.925 89.2409 723.821 89.6527C723.742 90.0757 723.567 90.4772 723.309 90.8294L718.879 96.3026L709.698 108.113C709.585 108.262 709.423 108.371 709.237 108.424C709.052 108.476 708.854 108.469 708.674 108.404C708.491 108.333 708.339 108.205 708.243 108.042C708.147 107.878 708.112 107.687 708.145 107.502L710.115 94.6652C710.121 94.6259 710.12 94.5857 710.109 94.547C710.099 94.5084 710.081 94.4722 710.055 94.4406C710.03 94.4091 709.998 94.3829 709.961 94.3637C709.924 94.3445 709.884 94.3327 709.842 94.329L706.015 93.7483C705.62 93.6887 705.245 93.5397 704.922 93.3138C704.599 93.0878 704.337 92.7915 704.158 92.4494C703.962 91.9905 703.9 91.4894 703.979 90.9995C704.058 90.5096 704.275 90.0494 704.606 89.6681Z" fill="var(--e-color-brand-accent)"/>
</g>
<path d="M585 2L424 163" stroke="var(--e-color-signal-danger)" stroke-width="3" stroke-linecap="round" stroke-linejoin="round"/>
<path d="M776 2L615 163" stroke="var(--e-color-signal-danger)" stroke-width="3" stroke-linecap="round" stroke-linejoin="round"/>
<defs>
<clipPath id="clip0_18782_33786">
<rect width="365" height="150" fill="white" transform="translate(0 8)"/>
</clipPath>
<clipPath id="clip1_18782_33786">
<rect width="365" height="150" fill="white" transform="translate(405 8)"/>
</clipPath>
</defs>
</svg>
