<svg fill="none" viewBox="0 0 778 198" xmlns="http://www.w3.org/2000/svg">
<path d="m43.165 189.54h1.946c0.588 0 1.12-0.149 1.596-0.448 0.476-0.308 0.854-0.723 1.134-1.246s0.42-1.106 0.42-1.75c0-0.653-0.14-1.237-0.42-1.75-0.28-0.523-0.658-0.933-1.134-1.232-0.476-0.308-1.008-0.462-1.596-0.462h-1.946v6.888zm-1.68 1.456v-9.8h3.584c0.7093 0 1.3627 0.126 1.96 0.378s1.1153 0.602 1.554 1.05c0.448 0.439 0.7933 0.957 1.036 1.554 0.2427 0.588 0.364 1.227 0.364 1.918s-0.1213 1.335-0.364 1.932c-0.2427 0.588-0.588 1.106-1.036 1.554-0.4387 0.439-0.9567 0.784-1.554 1.036s-1.2507 0.378-1.96 0.378h-3.584zm15.699 0.154c-0.6906 0-1.3393-0.126-1.946-0.378-0.5973-0.261-1.1246-0.621-1.582-1.078-0.448-0.467-0.798-1.003-1.05-1.61-0.252-0.616-0.378-1.279-0.378-1.988s0.126-1.367 0.378-1.974c0.252-0.616 0.602-1.153 1.05-1.61 0.4574-0.467 0.9847-0.826 1.582-1.078 0.6067-0.261 1.2554-0.392 1.946-0.392 0.6907 0 1.3347 0.131 1.932 0.392 0.6067 0.252 1.134 0.611 1.582 1.078 0.4574 0.457 0.812 0.994 1.064 1.61 0.252 0.607 0.378 1.265 0.378 1.974s-0.126 1.372-0.378 1.988c-0.252 0.607-0.6066 1.143-1.064 1.61-0.448 0.457-0.9753 0.817-1.582 1.078-0.5973 0.252-1.2413 0.378-1.932 0.378zm0-1.512c0.4574 0 0.882-0.089 1.274-0.266s0.7327-0.425 1.022-0.742c0.2987-0.327 0.5274-0.705 0.686-1.134 0.168-0.429 0.252-0.896 0.252-1.4s-0.084-0.971-0.252-1.4c-0.1586-0.429-0.3873-0.803-0.686-1.12-0.2893-0.327-0.63-0.579-1.022-0.756s-0.8166-0.266-1.274-0.266c-0.4573 0-0.882 0.089-1.274 0.266s-0.7373 0.429-1.036 0.756c-0.2986 0.317-0.532 0.691-0.7 1.12-0.1586 0.429-0.238 0.896-0.238 1.4s0.0794 0.971 0.238 1.4c0.168 0.429 0.4014 0.807 0.7 1.134 0.2987 0.317 0.644 0.565 1.036 0.742s0.8167 0.266 1.274 0.266z" fill="var(--e-color-text-1)"/>
<path d="m7.591 185.31c-0.29289-0.293-0.76777-0.293-1.0607 0-0.29289 0.292-0.29289 0.767 0 1.059l3.5356 3.532c0.2929 0.292 0.7677 0.292 1.0606 0l7.0711-7.063c0.2929-0.293 0.2929-0.767 0-1.06-0.2929-0.292-0.7678-0.292-1.0607 0l-6.5407 6.533-3.0052-3.001z" fill="var(--e-color-brand-accent)"/>
<path d="m0 186c0 6.617 5.383 12 12 12s12-5.383 12-12-5.383-12-12-12-12 5.383-12 12zm1.5 0c0-5.79 4.71-10.5 10.5-10.5s10.5 4.71 10.5 10.5-4.71 10.5-10.5 10.5-10.5-4.71-10.5-10.5z" clip-rule="evenodd" fill="var(--e-color-brand-accent)" fill-rule="evenodd"/>
<g clip-path="url(#b)" opacity=".8">
<rect y="13.5" width="199" height="139" rx="8" fill="var(--e-color-data-1-10)"/>
<path d="m28.452 53.654c-0.7653 0-1.4887-0.1307-2.17-0.392-0.672-0.2707-1.3207-0.6673-1.946-1.19l0.91-1.232c0.6347 0.5133 1.1993 0.882 1.694 1.106 0.504 0.2147 1.0407 0.322 1.61 0.322 0.4293 0 0.8073-0.0653 1.134-0.196 0.336-0.14 0.5927-0.3267 0.77-0.56 0.1867-0.2333 0.28-0.504 0.28-0.812 0-0.4013-0.1353-0.7047-0.406-0.91-0.2613-0.2147-0.7187-0.378-1.372-0.49l-1.806-0.308c-0.8493-0.1493-1.484-0.434-1.904-0.854-0.4107-0.4293-0.616-0.9753-0.616-1.638 0-0.588 0.1493-1.1013 0.448-1.54 0.2987-0.448 0.714-0.7933 1.246-1.036 0.5413-0.252 1.1807-0.378 1.918-0.378s1.4373 0.1073 2.1 0.322 1.274 0.5273 1.834 0.938l-0.854 1.26c-0.4947-0.3733-1.0033-0.6533-1.526-0.84-0.5227-0.196-1.0593-0.294-1.61-0.294-0.392 0-0.7373 0.0607-1.036 0.182-0.2893 0.1213-0.518 0.2893-0.686 0.504-0.1587 0.2147-0.238 0.4527-0.238 0.714 0 0.3547 0.1167 0.63 0.35 0.826 0.2427 0.1867 0.63 0.3267 1.162 0.42l1.75 0.294c0.9893 0.1773 1.7173 0.4853 2.184 0.924 0.476 0.4387 0.714 1.0313 0.714 1.778 0 0.5973-0.168 1.1293-0.504 1.596-0.3267 0.4667-0.784 0.8307-1.372 1.092s-1.274 0.392-2.058 0.392zm8.261-0.014c-0.7093 0-1.246-0.1633-1.61-0.49-0.364-0.336-0.546-0.826-0.546-1.47v-3.934h-1.4v-1.26h1.4v-1.932l1.582-0.336v2.268h1.946v1.26h-1.946v3.584c0 0.3453 0.0747 0.5927 0.224 0.742 0.1493 0.14 0.4013 0.21 0.756 0.21 0.1587 0 0.3033-0.0093 0.434-0.028 0.14-0.028 0.3127-0.0747 0.518-0.14v1.33c-0.196 0.0653-0.42 0.112-0.672 0.14-0.2427 0.0373-0.4713 0.056-0.686 0.056zm2.7729-0.14v-7.014h1.582v1.512c0.2053-0.532 0.4713-0.938 0.798-1.218 0.3266-0.28 0.7046-0.42 1.134-0.42 0.1306 0.0093 0.2473 0.0233 0.35 0.042 0.1026 0.0093 0.2146 0.042 0.336 0.098v1.386c-0.1214-0.056-0.2614-0.098-0.42-0.126-0.1494-0.028-0.2987-0.042-0.448-0.042-0.3827 0-0.728 0.1027-1.036 0.308-0.2987 0.2053-0.5367 0.49-0.714 0.854v4.62h-1.582zm8.3739 0.126c-0.3733 0-0.728-0.0513-1.064-0.154-0.336-0.112-0.6486-0.2613-0.938-0.448l-0.392 0.476h-1.12l0.868-1.036c-0.2706-0.3267-0.4853-0.6953-0.644-1.106-0.1586-0.42-0.238-0.8727-0.238-1.358 0-0.6907 0.154-1.3067 0.462-1.848 0.308-0.5507 0.728-0.9847 1.26-1.302 0.5414-0.3173 1.1434-0.476 1.806-0.476 0.3827 0 0.7374 0.056 1.064 0.168 0.336 0.1027 0.644 0.252 0.924 0.448l0.406-0.504h1.12l-0.896 1.05c0.28 0.3173 0.4994 0.686 0.658 1.106 0.1587 0.42 0.238 0.8727 0.238 1.358 0 0.6907-0.154 1.3113-0.462 1.862-0.308 0.5413-0.728 0.9707-1.26 1.288s-1.1293 0.476-1.792 0.476zm-1.638-2.338 2.702-3.22c-0.1493-0.112-0.3173-0.196-0.504-0.252-0.1773-0.0653-0.364-0.098-0.56-0.098-0.3826 0-0.7233 0.1027-1.022 0.308-0.2986 0.196-0.532 0.4667-0.7 0.812-0.168 0.336-0.252 0.7233-0.252 1.162 0 0.2427 0.028 0.476 0.084 0.7 0.0654 0.2147 0.1494 0.4107 0.252 0.588zm1.638 0.994c0.3827 0 0.7187-0.098 1.008-0.294 0.2987-0.196 0.532-0.4667 0.7-0.812s0.252-0.7373 0.252-1.176c0-0.252-0.028-0.4853-0.084-0.7s-0.14-0.4107-0.252-0.588l-2.702 3.22c0.1494 0.112 0.3127 0.2007 0.49 0.266 0.1867 0.056 0.3827 0.084 0.588 0.084zm5.1475 1.218v-7.014h1.582v1.106c0.2614-0.4013 0.5647-0.7047 0.91-0.91 0.3547-0.2053 0.742-0.308 1.162-0.308 0.4854 0 0.9054 0.1213 1.26 0.364 0.364 0.2427 0.6347 0.5693 0.812 0.98 0.28-0.4387 0.6114-0.77 0.994-0.994 0.392-0.2333 0.8354-0.35 1.33-0.35 0.448 0 0.8447 0.1073 1.19 0.322 0.3547 0.2147 0.6254 0.5133 0.812 0.896 0.196 0.3827 0.294 0.8213 0.294 1.316v4.592h-1.582v-4.242c0-0.4947-0.126-0.8867-0.378-1.176s-0.5973-0.434-1.036-0.434c-0.28 0-0.5413 0.07-0.784 0.21-0.2333 0.14-0.4386 0.35-0.616 0.63 0.0094 0.0653 0.014 0.1353 0.014 0.21 0.0094 0.0653 0.014 0.1353 0.014 0.21v4.592h-1.596v-4.242c0-0.4947-0.126-0.8867-0.378-1.176s-0.5973-0.434-1.036-0.434c-0.5693 0-1.0313 0.2707-1.386 0.812v5.04h-1.582zm14.644 0.14c-0.5973 0-1.1573-0.0793-1.68-0.238-0.5133-0.168-0.9567-0.406-1.33-0.714l0.742-1.05c0.4667 0.2893 0.868 0.4947 1.204 0.616 0.3453 0.1213 0.6953 0.182 1.05 0.182 0.42 0 0.7607-0.0887 1.022-0.266s0.392-0.406 0.392-0.686c0-0.2147-0.0793-0.3827-0.238-0.504-0.1493-0.1307-0.3967-0.2287-0.742-0.294l-1.232-0.21c-0.6813-0.1307-1.19-0.3547-1.526-0.672s-0.504-0.7373-0.504-1.26c0-0.4387 0.112-0.8167 0.336-1.134 0.2333-0.3267 0.5507-0.5787 0.952-0.756 0.4107-0.1867 0.8867-0.28 1.428-0.28 0.4853 0 0.9567 0.07 1.414 0.21s0.9053 0.35 1.344 0.63l-0.742 1.05c-0.3547-0.2333-0.7093-0.4013-1.064-0.504-0.3453-0.112-0.6953-0.168-1.05-0.168-0.364 0-0.658 0.0747-0.882 0.224-0.2147 0.14-0.322 0.336-0.322 0.588 0 0.224 0.07 0.3967 0.21 0.518 0.1493 0.112 0.406 0.196 0.77 0.252l1.246 0.238c0.7 0.1213 1.218 0.3453 1.554 0.672 0.3453 0.3173 0.518 0.742 0.518 1.274 0 0.4293-0.126 0.8167-0.378 1.162s-0.5927 0.6207-1.022 0.826c-0.4293 0.196-0.9193 0.294-1.47 0.294zm7.2065 0c-0.7093 0-1.246-0.1633-1.61-0.49-0.364-0.336-0.546-0.826-0.546-1.47v-3.934h-1.4v-1.26h1.4v-1.932l1.582-0.336v2.268h1.946v1.26h-1.946v3.584c0 0.3453 0.0747 0.5927 0.224 0.742 0.1493 0.14 0.4013 0.21 0.756 0.21 0.1587 0 0.3033-0.0093 0.434-0.028 0.14-0.028 0.3127-0.0747 0.518-0.14v1.33c-0.196 0.0653-0.42 0.112-0.672 0.14-0.2427 0.0373-0.4713 0.056-0.686 0.056zm5.8695-0.014c-0.3733 0-0.728-0.0513-1.064-0.154-0.336-0.112-0.6487-0.2613-0.938-0.448l-0.392 0.476h-1.12l0.868-1.036c-0.2707-0.3267-0.4853-0.6953-0.644-1.106-0.1587-0.42-0.238-0.8727-0.238-1.358 0-0.6907 0.154-1.3067 0.462-1.848 0.308-0.5507 0.728-0.9847 1.26-1.302 0.5413-0.3173 1.1433-0.476 1.806-0.476 0.3827 0 0.7373 0.056 1.064 0.168 0.336 0.1027 0.644 0.252 0.924 0.448l0.406-0.504h1.12l-0.896 1.05c0.28 0.3173 0.4993 0.686 0.658 1.106s0.238 0.8727 0.238 1.358c0 0.6907-0.154 1.3113-0.462 1.862-0.308 0.5413-0.728 0.9707-1.26 1.288s-1.1293 0.476-1.792 0.476zm-1.638-2.338 2.702-3.22c-0.1493-0.112-0.3173-0.196-0.504-0.252-0.1773-0.0653-0.364-0.098-0.56-0.098-0.3827 0-0.7233 0.1027-1.022 0.308-0.2987 0.196-0.532 0.4667-0.7 0.812-0.168 0.336-0.252 0.7233-0.252 1.162 0 0.2427 0.028 0.476 0.084 0.7 0.0653 0.2147 0.1493 0.4107 0.252 0.588zm1.638 0.994c0.3827 0 0.7187-0.098 1.008-0.294 0.2987-0.196 0.532-0.4667 0.7-0.812s0.252-0.7373 0.252-1.176c0-0.252-0.028-0.4853-0.084-0.7s-0.14-0.4107-0.252-0.588l-2.702 3.22c0.1493 0.112 0.3127 0.2007 0.49 0.266 0.1867 0.056 0.3827 0.084 0.588 0.084zm7.8434 1.358c-0.7093 0-1.246-0.1633-1.61-0.49-0.364-0.336-0.546-0.826-0.546-1.47v-3.934h-1.4v-1.26h1.4v-1.932l1.582-0.336v2.268h1.946v1.26h-1.946v3.584c0 0.3453 0.0747 0.5927 0.224 0.742 0.1493 0.14 0.4013 0.21 0.756 0.21 0.1587 0 0.3033-0.0093 0.434-0.028 0.14-0.028 0.3127-0.0747 0.518-0.14v1.33c-0.196 0.0653-0.42 0.112-0.672 0.14-0.2427 0.0373-0.4713 0.056-0.686 0.056zm5.9336 0c-0.7093 0-1.246-0.1633-1.61-0.49-0.364-0.336-0.546-0.826-0.546-1.47v-3.934h-1.4v-1.26h1.4v-1.932l1.582-0.336v2.268h1.946v1.26h-1.946v3.584c0 0.3453 0.0747 0.5927 0.224 0.742 0.1493 0.14 0.4013 0.21 0.756 0.21 0.1587 0 0.3033-0.0093 0.434-0.028 0.14-0.028 0.3127-0.0747 0.518-0.14v1.33c-0.196 0.0653-0.42 0.112-0.672 0.14-0.2427 0.0373-0.4713 0.056-0.686 0.056zm5.926 0c-0.6725 0-1.2792-0.1587-1.8205-0.476-0.5413-0.3267-0.9707-0.7607-1.288-1.302-0.3173-0.5507-0.476-1.1713-0.476-1.862s0.1493-1.3067 0.448-1.848 0.7047-0.9707 1.218-1.288c0.5227-0.3267 1.1013-0.49 1.7365-0.49 0.653 0 1.227 0.1587 1.722 0.476 0.504 0.3173 0.896 0.7467 1.176 1.288 0.289 0.5413 0.433 1.162 0.433 1.862v0.378h-5.1795c0.056 0.3827 0.1773 0.7233 0.364 1.022 0.196 0.2893 0.4433 0.518 0.742 0.686 0.308 0.168 0.6395 0.252 0.9945 0.252 0.326 0 0.634-0.056 0.924-0.168 0.298-0.1213 0.546-0.2847 0.742-0.49l1.036 0.938c-0.43 0.3547-0.868 0.616-1.316 0.784-0.439 0.1587-0.924 0.238-1.456 0.238zm-2.0165-4.242h3.6685c-0.056-0.336-0.173-0.6347-0.35-0.896-0.168-0.2613-0.383-0.4667-0.644-0.616-0.252-0.1493-0.532-0.224-0.84-0.224-0.3085 0-0.5932 0.0747-0.8545 0.224-0.252 0.14-0.462 0.3407-0.63 0.602s-0.2847 0.5647-0.35 0.91z" fill="var(--e-color-data-1-10--contrast)"/>
<path d="m25.246 83.5v-9.8h1.12l5.74 8.12-0.028-8.12h1.022v9.8h-0.98l-5.88-8.302 0.028 8.302h-1.022zm13.234 0.14c-0.6347 0-1.2087-0.154-1.722-0.462-0.5133-0.3173-0.9193-0.742-1.218-1.274-0.2987-0.5413-0.448-1.148-0.448-1.82s0.14-1.274 0.42-1.806c0.2893-0.532 0.6767-0.952 1.162-1.26s1.0267-0.462 1.624-0.462c0.6067 0 1.1433 0.154 1.61 0.462 0.476 0.2987 0.8493 0.7093 1.12 1.232 0.28 0.5133 0.42 1.0967 0.42 1.75v0.308h-5.362c0.0373 0.4667 0.1633 0.8867 0.378 1.26 0.224 0.364 0.5133 0.6533 0.868 0.868 0.364 0.2053 0.7607 0.308 1.19 0.308 0.3547 0 0.6953-0.0607 1.022-0.182 0.336-0.1307 0.6207-0.3033 0.854-0.518l0.644 0.686c-0.392 0.308-0.798 0.5367-1.218 0.686s-0.868 0.224-1.344 0.224zm-2.366-4.06h4.326c-0.0467-0.4107-0.1727-0.7747-0.378-1.092-0.196-0.3267-0.448-0.5833-0.756-0.77-0.2987-0.1867-0.6347-0.28-1.008-0.28s-0.714 0.0933-1.022 0.28c-0.308 0.1773-0.5647 0.4293-0.77 0.756-0.196 0.3173-0.3267 0.686-0.392 1.106zm9.4779 4.06c-0.588 0-1.036-0.14-1.344-0.42-0.2987-0.2893-0.448-0.7047-0.448-1.246v-4.466h-1.414v-0.84h1.414v-1.876l1.022-0.238v2.114h1.96v0.84h-1.96v4.2c0 0.364 0.0747 0.6253 0.224 0.784 0.1587 0.1587 0.4153 0.238 0.77 0.238 0.1773 0 0.336-0.014 0.476-0.042s0.3033-0.0747 0.49-0.14v0.91c-0.1867 0.0653-0.3827 0.112-0.588 0.14s-0.406 0.042-0.602 0.042zm5.4277 0c-0.588 0-1.036-0.14-1.344-0.42-0.2986-0.2893-0.448-0.7047-0.448-1.246v-4.466h-1.414v-0.84h1.414v-1.876l1.022-0.238v2.114h1.96v0.84h-1.96v4.2c0 0.364 0.0747 0.6253 0.224 0.784 0.1587 0.1587 0.4154 0.238 0.77 0.238 0.1774 0 0.336-0.014 0.476-0.042s0.3034-0.0747 0.49-0.14v0.91c-0.1866 0.0653-0.3826 0.112-0.588 0.14-0.2053 0.028-0.406 0.042-0.602 0.042zm2.6871-0.14v-10.108l1.022-0.21v10.318h-1.022zm6.1971 0.14c-0.6346 0-1.2086-0.154-1.722-0.462-0.5133-0.3173-0.9193-0.742-1.218-1.274-0.2986-0.5413-0.448-1.148-0.448-1.82s0.14-1.274 0.42-1.806c0.2894-0.532 0.6767-0.952 1.162-1.26 0.4854-0.308 1.0267-0.462 1.624-0.462 0.6067 0 1.1434 0.154 1.61 0.462 0.476 0.2987 0.8494 0.7093 1.12 1.232 0.28 0.5133 0.42 1.0967 0.42 1.75v0.308h-5.362c0.0374 0.4667 0.1634 0.8867 0.378 1.26 0.224 0.364 0.5134 0.6533 0.868 0.868 0.364 0.2053 0.7607 0.308 1.19 0.308 0.3547 0 0.6954-0.0607 1.022-0.182 0.336-0.1307 0.6207-0.3033 0.854-0.518l0.644 0.686c-0.392 0.308-0.798 0.5367-1.218 0.686s-0.868 0.224-1.344 0.224zm-2.366-4.06h4.326c-0.0466-0.4107-0.1726-0.7747-0.378-1.092-0.196-0.3267-0.448-0.5833-0.756-0.77-0.2986-0.1867-0.6346-0.28-1.008-0.28-0.3733 0-0.714 0.0933-1.022 0.28-0.308 0.1773-0.5646 0.4293-0.77 0.756-0.196 0.3173-0.3266 0.686-0.392 1.106zm7.065 3.92v-6.832h1.022v6.832h-1.022zm0.518-8.526c-0.2053 0-0.3827-0.07-0.532-0.21-0.14-0.1493-0.21-0.322-0.21-0.518s0.07-0.364 0.21-0.504c0.1493-0.1493 0.3267-0.224 0.532-0.224s0.378 0.0747 0.518 0.224c0.1493 0.14 0.224 0.308 0.224 0.504s-0.0747 0.3687-0.224 0.518c-0.14 0.14-0.3127 0.21-0.518 0.21zm5.6795 8.666c-0.6346 0-1.2086-0.154-1.722-0.462-0.5133-0.3173-0.9193-0.742-1.218-1.274-0.2986-0.5413-0.448-1.148-0.448-1.82s0.14-1.274 0.42-1.806c0.2894-0.532 0.6767-0.952 1.162-1.26 0.4854-0.308 1.0267-0.462 1.624-0.462 0.6067 0 1.1434 0.154 1.61 0.462 0.476 0.2987 0.8494 0.7093 1.12 1.232 0.28 0.5133 0.42 1.0967 0.42 1.75v0.308h-5.362c0.0374 0.4667 0.1634 0.8867 0.378 1.26 0.224 0.364 0.5134 0.6533 0.868 0.868 0.364 0.2053 0.7607 0.308 1.19 0.308 0.3547 0 0.6954-0.0607 1.022-0.182 0.336-0.1307 0.6207-0.3033 0.854-0.518l0.644 0.686c-0.392 0.308-0.798 0.5367-1.218 0.686s-0.868 0.224-1.344 0.224zm-2.366-4.06h4.326c-0.0466-0.4107-0.1726-0.7747-0.378-1.092-0.196-0.3267-0.448-0.5833-0.756-0.77-0.2986-0.1867-0.6346-0.28-1.008-0.28-0.3733 0-0.714 0.0933-1.022 0.28-0.308 0.1773-0.5646 0.4293-0.77 0.756-0.196 0.3173-0.3266 0.686-0.392 1.106z" fill="var(--e-color-data-1-10--contrast)"/>
<path d="m142.49 83.5v-2.422h-5.278v-1.246l5.096-6.132h1.666v6.062h1.302v1.316h-1.302v2.422h-1.484zm-3.612-3.738h3.612v-4.382l-3.612 4.382zm10.65 3.892c-1.326 0-2.474-0.4433-3.444-1.33l0.924-1.05c0.42 0.3733 0.83 0.644 1.232 0.812 0.41 0.168 0.858 0.252 1.344 0.252 0.42 0 0.784-0.0793 1.092-0.238 0.317-0.1587 0.56-0.3827 0.728-0.672 0.177-0.2987 0.266-0.6347 0.266-1.008 0-0.5507-0.201-0.994-0.602-1.33-0.392-0.3453-0.901-0.518-1.526-0.518-0.327 0-0.649 0.042-0.966 0.126-0.318 0.084-0.644 0.2147-0.98 0.392l-1.064-0.322 0.224-5.068h5.95v1.316h-4.648l-0.14 2.842c0.345-0.168 0.681-0.2893 1.008-0.364 0.336-0.0747 0.686-0.112 1.05-0.112 0.653 0 1.222 0.126 1.708 0.378 0.485 0.2427 0.863 0.588 1.134 1.036 0.27 0.4387 0.406 0.952 0.406 1.54 0 0.6627-0.154 1.2413-0.462 1.736s-0.742 0.882-1.302 1.162c-0.551 0.28-1.195 0.42-1.932 0.42zm8.066 0c-1.325 0-2.473-0.4433-3.444-1.33l0.924-1.05c0.42 0.3733 0.831 0.644 1.232 0.812 0.411 0.168 0.859 0.252 1.344 0.252 0.42 0 0.784-0.0793 1.092-0.238 0.318-0.1587 0.56-0.3827 0.728-0.672 0.178-0.2987 0.266-0.6347 0.266-1.008 0-0.5507-0.2-0.994-0.602-1.33-0.392-0.3453-0.9-0.518-1.526-0.518-0.326 0-0.648 0.042-0.966 0.126-0.317 0.084-0.644 0.2147-0.98 0.392l-1.064-0.322 0.224-5.068h5.95v1.316h-4.648l-0.14 2.842c0.346-0.168 0.682-0.2893 1.008-0.364 0.336-0.0747 0.686-0.112 1.05-0.112 0.654 0 1.223 0.126 1.708 0.378 0.486 0.2427 0.864 0.588 1.134 1.036 0.271 0.4387 0.406 0.952 0.406 1.54 0 0.6627-0.154 1.2413-0.462 1.736s-0.742 0.882-1.302 1.162c-0.55 0.28-1.194 0.42-1.932 0.42zm5.318-0.154v-10.066l1.582-0.266v6.3l2.912-2.982h1.82l-3.234 3.248 3.402 3.766h-2.016l-2.884-3.234v3.234h-1.582zm7.574 0v-7.014h1.582v1.512c0.205-0.532 0.471-0.938 0.798-1.218s0.705-0.42 1.134-0.42c0.131 0.0093 0.247 0.0233 0.35 0.042 0.103 0.0093 0.215 0.042 0.336 0.098v1.386c-0.121-0.056-0.261-0.098-0.42-0.126-0.149-0.028-0.299-0.042-0.448-0.042-0.383 0-0.728 0.1027-1.036 0.308-0.299 0.2053-0.537 0.49-0.714 0.854v4.62h-1.582z" fill="var(--e-color-data-1-10--contrast)"/>
<rect transform="translate(24 97.5)" width="151" height="1" fill="var(--e-color-border-3)"/>
<path d="m28.41 122.65c-0.7653 0-1.4747-0.135-2.128-0.406-0.6533-0.28-1.2833-0.7-1.89-1.26l0.658-0.784c0.588 0.551 1.1387 0.943 1.652 1.176 0.5227 0.233 1.1013 0.35 1.736 0.35 0.504 0 0.952-0.084 1.344-0.252 0.4013-0.177 0.714-0.415 0.938-0.714s0.336-0.639 0.336-1.022c0-0.495-0.1633-0.868-0.49-1.12-0.3267-0.261-0.8913-0.462-1.694-0.602l-1.582-0.266c-0.896-0.159-1.554-0.429-1.974-0.812-0.4107-0.392-0.616-0.915-0.616-1.568 0-0.551 0.14-1.036 0.42-1.456 0.2893-0.429 0.686-0.765 1.19-1.008s1.0873-0.364 1.75-0.364c0.728 0 1.4047 0.103 2.03 0.308 0.6253 0.196 1.2413 0.509 1.848 0.938l-0.56 0.84c-0.504-0.383-1.036-0.672-1.596-0.868-0.56-0.205-1.1293-0.308-1.708-0.308-0.4573 0-0.8633 0.079-1.218 0.238-0.3453 0.159-0.6207 0.373-0.826 0.644-0.196 0.271-0.294 0.579-0.294 0.924 0 0.429 0.1447 0.765 0.434 1.008s0.7607 0.415 1.414 0.518l1.568 0.266c1.0453 0.187 1.8013 0.49 2.268 0.91 0.476 0.411 0.714 0.985 0.714 1.722 0 0.569-0.1633 1.078-0.49 1.526-0.3173 0.448-0.756 0.803-1.316 1.064-0.56 0.252-1.1993 0.378-1.918 0.378zm7.7616-0.014c-0.588 0-1.036-0.14-1.344-0.42-0.2987-0.289-0.448-0.705-0.448-1.246v-4.466h-1.414v-0.84h1.414v-1.876l1.022-0.238v2.114h1.96v0.84h-1.96v4.2c0 0.364 0.0746 0.625 0.224 0.784 0.1586 0.159 0.4153 0.238 0.77 0.238 0.1773 0 0.336-0.014 0.476-0.042s0.3033-0.075 0.49-0.14v0.91c-0.1867 0.065-0.3827 0.112-0.588 0.14-0.2054 0.028-0.406 0.042-0.602 0.042zm5.5603-0.028c-0.3734 0-0.728-0.056-1.064-0.168-0.3267-0.112-0.6254-0.271-0.896-0.476l-0.448 0.532h-0.854l0.812-0.98c-0.2707-0.317-0.4854-0.681-0.644-1.092-0.1494-0.411-0.224-0.859-0.224-1.344 0-0.672 0.1446-1.274 0.434-1.806 0.2893-0.532 0.686-0.952 1.19-1.26s1.0733-0.462 1.708-0.462c0.3733 0 0.7233 0.056 1.05 0.168 0.336 0.112 0.6393 0.275 0.91 0.49l0.448-0.546h0.854l-0.826 0.994c0.2706 0.308 0.4806 0.667 0.63 1.078 0.1586 0.411 0.238 0.859 0.238 1.344 0 0.672-0.1447 1.274-0.434 1.806-0.2894 0.532-0.686 0.952-1.19 1.26-0.4947 0.308-1.0594 0.462-1.694 0.462zm-1.806-1.848 3.178-3.836c-0.1867-0.149-0.3967-0.266-0.63-0.35-0.2334-0.084-0.4807-0.126-0.742-0.126-0.448 0-0.8447 0.117-1.19 0.35-0.3454 0.224-0.6207 0.537-0.826 0.938-0.196 0.392-0.294 0.84-0.294 1.344 0 0.317 0.042 0.621 0.126 0.91 0.0933 0.289 0.2193 0.546 0.378 0.77zm1.806 0.952c0.448 0 0.8446-0.112 1.19-0.336 0.3453-0.233 0.616-0.551 0.812-0.952 0.2053-0.401 0.308-0.849 0.308-1.344 0-0.327-0.042-0.63-0.126-0.91s-0.2054-0.532-0.364-0.756l-3.178 3.822c0.1866 0.149 0.392 0.266 0.616 0.35 0.2333 0.084 0.4806 0.126 0.742 0.126zm7.2912 0.924c-0.588 0-1.036-0.14-1.344-0.42-0.2986-0.289-0.448-0.705-0.448-1.246v-4.466h-1.414v-0.84h1.414v-1.876l1.022-0.238v2.114h1.96v0.84h-1.96v4.2c0 0.364 0.0747 0.625 0.224 0.784 0.1587 0.159 0.4154 0.238 0.77 0.238 0.1774 0 0.336-0.014 0.476-0.042s0.3034-0.075 0.49-0.14v0.91c-0.1866 0.065-0.3826 0.112-0.588 0.14-0.2053 0.028-0.406 0.042-0.602 0.042zm5.4278 0c-0.588 0-1.036-0.14-1.344-0.42-0.2987-0.289-0.448-0.705-0.448-1.246v-4.466h-1.414v-0.84h1.414v-1.876l1.022-0.238v2.114h1.96v0.84h-1.96v4.2c0 0.364 0.0746 0.625 0.224 0.784 0.1586 0.159 0.4153 0.238 0.77 0.238 0.1773 0 0.336-0.014 0.476-0.042s0.3033-0.075 0.49-0.14v0.91c-0.1867 0.065-0.3827 0.112-0.588 0.14-0.2054 0.028-0.406 0.042-0.602 0.042zm5.6303 0c-0.6347 0-1.2087-0.154-1.722-0.462-0.5134-0.317-0.9194-0.742-1.218-1.274-0.2987-0.541-0.448-1.148-0.448-1.82s0.14-1.274 0.42-1.806c0.2893-0.532 0.6766-0.952 1.162-1.26 0.4853-0.308 1.0266-0.462 1.624-0.462 0.6066 0 1.1433 0.154 1.61 0.462 0.476 0.299 0.8493 0.709 1.12 1.232 0.28 0.513 0.42 1.097 0.42 1.75v0.308h-5.362c0.0373 0.467 0.1633 0.887 0.378 1.26 0.224 0.364 0.5133 0.653 0.868 0.868 0.364 0.205 0.7606 0.308 1.19 0.308 0.3546 0 0.6953-0.061 1.022-0.182 0.336-0.131 0.6206-0.303 0.854-0.518l0.644 0.686c-0.392 0.308-0.798 0.537-1.218 0.686s-0.868 0.224-1.344 0.224zm-2.366-4.06h4.326c-0.0467-0.411-0.1727-0.775-0.378-1.092-0.196-0.327-0.448-0.583-0.756-0.77-0.2987-0.187-0.6347-0.28-1.008-0.28-0.3734 0-0.714 0.093-1.022 0.28-0.308 0.177-0.5647 0.429-0.77 0.756-0.196 0.317-0.3267 0.686-0.392 1.106z" fill="var(--e-color-data-1-10--contrast)"/>
<path d="m139.03 119.2v-1.344h4.886v1.344h-4.886zm11.521 3.304v-2.422h-5.278v-1.246l5.096-6.132h1.666v6.062h1.302v1.316h-1.302v2.422h-1.484zm-3.612-3.738h3.612v-4.382l-3.612 4.382zm10.649 3.892c-1.325 0-2.473-0.443-3.444-1.33l0.924-1.05c0.42 0.373 0.831 0.644 1.232 0.812 0.411 0.168 0.859 0.252 1.344 0.252 0.42 0 0.784-0.079 1.092-0.238 0.318-0.159 0.56-0.383 0.728-0.672 0.178-0.299 0.266-0.635 0.266-1.008 0-0.551-0.2-0.994-0.602-1.33-0.392-0.345-0.9-0.518-1.526-0.518-0.326 0-0.648 0.042-0.966 0.126-0.317 0.084-0.644 0.215-0.98 0.392l-1.064-0.322 0.224-5.068h5.95v1.316h-4.648l-0.14 2.842c0.346-0.168 0.682-0.289 1.008-0.364 0.336-0.075 0.686-0.112 1.05-0.112 0.654 0 1.223 0.126 1.708 0.378 0.486 0.243 0.864 0.588 1.134 1.036 0.271 0.439 0.406 0.952 0.406 1.54 0 0.663-0.154 1.241-0.462 1.736s-0.742 0.882-1.302 1.162c-0.55 0.28-1.194 0.42-1.932 0.42zm5.318-0.154v-10.066l1.582-0.266v6.3l2.912-2.982h1.82l-3.234 3.248 3.402 3.766h-2.016l-2.884-3.234v3.234h-1.582zm7.574 0v-7.014h1.582v1.512c0.205-0.532 0.471-0.938 0.798-1.218s0.705-0.42 1.134-0.42c0.131 9e-3 0.247 0.023 0.35 0.042 0.103 9e-3 0.215 0.042 0.336 0.098v1.386c-0.121-0.056-0.261-0.098-0.42-0.126-0.149-0.028-0.299-0.042-0.448-0.042-0.383 0-0.728 0.103-1.036 0.308-0.299 0.205-0.537 0.49-0.714 0.854v4.62h-1.582z" fill="var(--e-color-data-1-10--contrast)"/>
<path d="m365 83c0 41.421-33.579 75-75 75s-75-33.579-75-75c0-41.421 33.579-75 75-75s75 33.579 75 75z" fill="var(--e-color-data-1-30)"/>
<path d="m306.51 118.95c1.045 0 1.892 0.847 1.892 1.892v17.472 0.167c1e-3 1.631 3e-3 3.992-0.909 5.939-0.505 1.079-1.299 2.066-2.502 2.762-1.183 0.685-2.629 1.011-4.327 1.011h-71.218c-1.045 0-1.892-0.847-1.892-1.892s0.847-1.892 1.892-1.892h71.218c1.225 0 1.971-0.236 2.432-0.502 0.441-0.256 0.744-0.61 0.97-1.092 0.517-1.105 0.552-2.641 0.552-4.501v-17.472c0-1.045 0.847-1.892 1.892-1.892z" clip-rule="evenodd" fill="var(--e-color-static-black)" fill-rule="evenodd"/>
<path d="m313.36 48.945c-0.318-0.4271-0.816-0.6827-1.349-0.6922-0.532-0.0096-1.039 0.228-1.372 0.6434l-26.206 32.664h-41.905c-0.95 0-1.72 0.7702-1.72 1.7202v36.876c0 0.95 0.77 1.72 1.72 1.72h94.266c0.95 0 1.72-0.77 1.72-1.72v-36.876c0-0.3703-0.119-0.7307-0.341-1.0277l-24.813-33.307z" fill="var(--e-color-static-white)"/>
<path d="m270.73 44.812c-0.524 0-1.019 0.2388-1.346 0.6488l-29.582 37.156c-0.411 0.5168-0.49 1.2235-0.204 1.8184 0.287 0.595 0.889 0.9732 1.55 0.9732h42.318c0.531 0 1.031-0.2445 1.357-0.6628l27.534-35.334 25.096 35.274c0.551 0.7741 1.625 0.9551 2.399 0.4044s0.955-1.6247 0.404-2.3989l-26.435-37.156c-0.323-0.4536-0.845-0.723-1.402-0.723h-41.689z" fill="var(--e-color-static-black)"/>
<path d="m299.61 89.668 1.313-1.8644 4.203-5.1765 7.967-10.212c0.56-0.7335 1.793-0.4432 1.809 0.3209s-1.745 11.462-2.033 13.142c-5e-3 0.0321-2e-3 0.0648 6e-3 0.0961 9e-3 0.0313 0.025 0.0606 0.045 0.0862 0.021 0.0256 0.047 0.047 0.077 0.0629s0.062 0.0261 0.096 0.0298l3.891 0.596c0.444 0.0613 0.855 0.26 1.169 0.5655 0.32 0.2993 0.551 0.6734 0.672 1.085 0.104 0.4118 0.104 0.8413 0 1.2531-0.079 0.423-0.254 0.8245-0.512 1.1767l-4.43 5.4732-9.181 11.81c-0.113 0.149-0.275 0.258-0.461 0.311-0.185 0.052-0.383 0.045-0.563-0.02-0.183-0.071-0.335-0.199-0.431-0.362-0.096-0.164-0.131-0.355-0.098-0.54l1.97-12.837c6e-3 -0.0393 5e-3 -0.0795-6e-3 -0.1182-0.01-0.0386-0.028-0.0748-0.054-0.1064-0.025-0.0315-0.057-0.0577-0.094-0.0769s-0.077-0.031-0.119-0.0347l-3.827-0.5807c-0.395-0.0596-0.77-0.2086-1.093-0.4345-0.323-0.226-0.585-0.5223-0.764-0.8644-0.196-0.4589-0.258-0.96-0.179-1.4499s0.296-0.9501 0.627-1.3314z" fill="var(--e-color-brand-accent)"/>
</g>
<path d="m448.16 189.54h1.946c0.588 0 1.12-0.149 1.596-0.448 0.476-0.308 0.854-0.723 1.134-1.246s0.42-1.106 0.42-1.75c0-0.653-0.14-1.237-0.42-1.75-0.28-0.523-0.658-0.933-1.134-1.232-0.476-0.308-1.008-0.462-1.596-0.462h-1.946v6.888zm-1.68 1.456v-9.8h3.584c0.709 0 1.362 0.126 1.96 0.378 0.597 0.252 1.115 0.602 1.554 1.05 0.448 0.439 0.793 0.957 1.036 1.554 0.242 0.588 0.364 1.227 0.364 1.918s-0.122 1.335-0.364 1.932c-0.243 0.588-0.588 1.106-1.036 1.554-0.439 0.439-0.957 0.784-1.554 1.036-0.598 0.252-1.251 0.378-1.96 0.378h-3.584zm15.698 0.154c-0.69 0-1.339-0.126-1.946-0.378-0.597-0.261-1.124-0.621-1.582-1.078-0.448-0.467-0.798-1.003-1.05-1.61-0.252-0.616-0.378-1.279-0.378-1.988s0.126-1.367 0.378-1.974c0.252-0.616 0.602-1.153 1.05-1.61 0.458-0.467 0.985-0.826 1.582-1.078 0.607-0.261 1.256-0.392 1.946-0.392 0.691 0 1.335 0.131 1.932 0.392 0.607 0.252 1.134 0.611 1.582 1.078 0.458 0.457 0.812 0.994 1.064 1.61 0.252 0.607 0.378 1.265 0.378 1.974s-0.126 1.372-0.378 1.988c-0.252 0.607-0.606 1.143-1.064 1.61-0.448 0.457-0.975 0.817-1.582 1.078-0.597 0.252-1.241 0.378-1.932 0.378zm0-1.512c0.458 0 0.882-0.089 1.274-0.266s0.733-0.425 1.022-0.742c0.299-0.327 0.528-0.705 0.686-1.134 0.168-0.429 0.252-0.896 0.252-1.4s-0.084-0.971-0.252-1.4c-0.158-0.429-0.387-0.803-0.686-1.12-0.289-0.327-0.63-0.579-1.022-0.756s-0.816-0.266-1.274-0.266c-0.457 0-0.882 0.089-1.274 0.266s-0.737 0.429-1.036 0.756c-0.298 0.317-0.532 0.691-0.7 1.12-0.158 0.429-0.238 0.896-0.238 1.4s0.08 0.971 0.238 1.4c0.168 0.429 0.402 0.807 0.7 1.134 0.299 0.317 0.644 0.565 1.036 0.742s0.817 0.266 1.274 0.266zm7.654 1.358v-9.8h1.638l5.11 7.126-0.028-7.126h1.582v9.8h-1.498l-5.25-7.322 0.028 7.322h-1.582zm10.848-6.804 0.938-3.696h1.596l-1.358 3.696h-1.176zm7.871 6.804v-8.344h-3.276v-1.456h8.232v1.456h-3.276v8.344h-1.68z" fill="var(--e-color-text-1)"/>
<path d="m420.97 191.03c0.141 0.142 0.33 0.22 0.53 0.22s0.389-0.078 0.53-0.219c0.292-0.293 0.292-0.769 0-1.061l-3.97-3.97 3.97-3.97c0.142-0.141 0.22-0.33 0.22-0.53s-0.078-0.389-0.22-0.53c-0.141-0.142-0.33-0.22-0.53-0.22s-0.388 0.078-0.53 0.22l-3.97 3.97-3.97-3.97c-0.141-0.142-0.33-0.22-0.53-0.22s-0.389 0.078-0.53 0.22c-0.142 0.141-0.22 0.33-0.22 0.53s0.078 0.389 0.22 0.53l3.97 3.97-3.97 3.97c-0.292 0.293-0.292 0.769 0 1.061 0.141 0.142 0.33 0.22 0.53 0.22s0.388-0.078 0.53-0.22l3.97-3.97 3.97 3.969z" fill="var(--e-color-signal-danger)"/>
<path d="m405 186c0 6.617 5.383 12 12 12s12-5.383 12-12-5.383-12-12-12-12 5.383-12 12zm1.5 0c0-5.79 4.71-10.5 10.5-10.5s10.5 4.71 10.5 10.5-4.71 10.5-10.5 10.5-10.5-4.71-10.5-10.5z" clip-rule="evenodd" fill="var(--e-color-signal-danger)" fill-rule="evenodd"/>
<g clip-path="url(#a)">
<rect x="405" y="13.5" width="199" height="139" rx="8" fill="var(--e-color-brand-accent)"/>
<path d="m433.45 53.654c-0.765 0-1.489-0.1307-2.17-0.392-0.672-0.2707-1.321-0.6673-1.946-1.19l0.91-1.232c0.635 0.5133 1.199 0.882 1.694 1.106 0.504 0.2147 1.041 0.322 1.61 0.322 0.429 0 0.807-0.0653 1.134-0.196 0.336-0.14 0.593-0.3267 0.77-0.56 0.187-0.2333 0.28-0.504 0.28-0.812 0-0.4013-0.135-0.7047-0.406-0.91-0.261-0.2147-0.719-0.378-1.372-0.49l-1.806-0.308c-0.849-0.1493-1.484-0.434-1.904-0.854-0.411-0.4293-0.616-0.9753-0.616-1.638 0-0.588 0.149-1.1013 0.448-1.54 0.299-0.448 0.714-0.7933 1.246-1.036 0.541-0.252 1.181-0.378 1.918-0.378s1.437 0.1073 2.1 0.322 1.274 0.5273 1.834 0.938l-0.854 1.26c-0.495-0.3733-1.003-0.6533-1.526-0.84-0.523-0.196-1.059-0.294-1.61-0.294-0.392 0-0.737 0.0607-1.036 0.182-0.289 0.1213-0.518 0.2893-0.686 0.504-0.159 0.2147-0.238 0.4527-0.238 0.714 0 0.3547 0.117 0.63 0.35 0.826 0.243 0.1867 0.63 0.3267 1.162 0.42l1.75 0.294c0.989 0.1773 1.717 0.4853 2.184 0.924 0.476 0.4387 0.714 1.0313 0.714 1.778 0 0.5973-0.168 1.1293-0.504 1.596-0.327 0.4667-0.784 0.8307-1.372 1.092s-1.274 0.392-2.058 0.392zm8.261-0.014c-0.709 0-1.246-0.1633-1.61-0.49-0.364-0.336-0.546-0.826-0.546-1.47v-3.934h-1.4v-1.26h1.4v-1.932l1.582-0.336v2.268h1.946v1.26h-1.946v3.584c0 0.3453 0.075 0.5927 0.224 0.742 0.149 0.14 0.401 0.21 0.756 0.21 0.159 0 0.303-0.0093 0.434-0.028 0.14-0.028 0.313-0.0747 0.518-0.14v1.33c-0.196 0.0653-0.42 0.112-0.672 0.14-0.243 0.0373-0.471 0.056-0.686 0.056zm2.773-0.14v-7.014h1.582v1.512c0.205-0.532 0.471-0.938 0.798-1.218s0.705-0.42 1.134-0.42c0.131 0.0093 0.247 0.0233 0.35 0.042 0.103 0.0093 0.215 0.042 0.336 0.098v1.386c-0.121-0.056-0.261-0.098-0.42-0.126-0.149-0.028-0.299-0.042-0.448-0.042-0.383 0-0.728 0.1027-1.036 0.308-0.299 0.2053-0.537 0.49-0.714 0.854v4.62h-1.582zm8.374 0.126c-0.374 0-0.728-0.0513-1.064-0.154-0.336-0.112-0.649-0.2613-0.938-0.448l-0.392 0.476h-1.12l0.868-1.036c-0.271-0.3267-0.486-0.6953-0.644-1.106-0.159-0.42-0.238-0.8727-0.238-1.358 0-0.6907 0.154-1.3067 0.462-1.848 0.308-0.5507 0.728-0.9847 1.26-1.302 0.541-0.3173 1.143-0.476 1.806-0.476 0.382 0 0.737 0.056 1.064 0.168 0.336 0.1027 0.644 0.252 0.924 0.448l0.406-0.504h1.12l-0.896 1.05c0.28 0.3173 0.499 0.686 0.658 1.106 0.158 0.42 0.238 0.8727 0.238 1.358 0 0.6907-0.154 1.3113-0.462 1.862-0.308 0.5413-0.728 0.9707-1.26 1.288s-1.13 0.476-1.792 0.476zm-1.638-2.338 2.702-3.22c-0.15-0.112-0.318-0.196-0.504-0.252-0.178-0.0653-0.364-0.098-0.56-0.098-0.383 0-0.724 0.1027-1.022 0.308-0.299 0.196-0.532 0.4667-0.7 0.812-0.168 0.336-0.252 0.7233-0.252 1.162 0 0.2427 0.028 0.476 0.084 0.7 0.065 0.2147 0.149 0.4107 0.252 0.588zm1.638 0.994c0.382 0 0.718-0.098 1.008-0.294 0.298-0.196 0.532-0.4667 0.7-0.812s0.252-0.7373 0.252-1.176c0-0.252-0.028-0.4853-0.084-0.7s-0.14-0.4107-0.252-0.588l-2.702 3.22c0.149 0.112 0.312 0.2007 0.49 0.266 0.186 0.056 0.382 0.084 0.588 0.084zm5.147 1.218v-7.014h1.582v1.106c0.262-0.4013 0.565-0.7047 0.91-0.91 0.355-0.2053 0.742-0.308 1.162-0.308 0.486 0 0.906 0.1213 1.26 0.364 0.364 0.2427 0.635 0.5693 0.812 0.98 0.28-0.4387 0.612-0.77 0.994-0.994 0.392-0.2333 0.836-0.35 1.33-0.35 0.448 0 0.845 0.1073 1.19 0.322 0.355 0.2147 0.626 0.5133 0.812 0.896 0.196 0.3827 0.294 0.8213 0.294 1.316v4.592h-1.582v-4.242c0-0.4947-0.126-0.8867-0.378-1.176s-0.597-0.434-1.036-0.434c-0.28 0-0.541 0.07-0.784 0.21-0.233 0.14-0.438 0.35-0.616 0.63 0.01 0.0653 0.014 0.1353 0.014 0.21 0.01 0.0653 0.014 0.1353 0.014 0.21v4.592h-1.596v-4.242c0-0.4947-0.126-0.8867-0.378-1.176s-0.597-0.434-1.036-0.434c-0.569 0-1.031 0.2707-1.386 0.812v5.04h-1.582zm14.644 0.14c-0.597 0-1.157-0.0793-1.68-0.238-0.513-0.168-0.957-0.406-1.33-0.714l0.742-1.05c0.467 0.2893 0.868 0.4947 1.204 0.616 0.345 0.1213 0.695 0.182 1.05 0.182 0.42 0 0.761-0.0887 1.022-0.266s0.392-0.406 0.392-0.686c0-0.2147-0.079-0.3827-0.238-0.504-0.149-0.1307-0.397-0.2287-0.742-0.294l-1.232-0.21c-0.681-0.1307-1.19-0.3547-1.526-0.672s-0.504-0.7373-0.504-1.26c0-0.4387 0.112-0.8167 0.336-1.134 0.233-0.3267 0.551-0.5787 0.952-0.756 0.411-0.1867 0.887-0.28 1.428-0.28 0.485 0 0.957 0.07 1.414 0.21s0.905 0.35 1.344 0.63l-0.742 1.05c-0.355-0.2333-0.709-0.4013-1.064-0.504-0.345-0.112-0.695-0.168-1.05-0.168-0.364 0-0.658 0.0747-0.882 0.224-0.215 0.14-0.322 0.336-0.322 0.588 0 0.224 0.07 0.3967 0.21 0.518 0.149 0.112 0.406 0.196 0.77 0.252l1.246 0.238c0.7 0.1213 1.218 0.3453 1.554 0.672 0.345 0.3173 0.518 0.742 0.518 1.274 0 0.4293-0.126 0.8167-0.378 1.162s-0.593 0.6207-1.022 0.826c-0.429 0.196-0.919 0.294-1.47 0.294zm7.207 0c-0.71 0-1.246-0.1633-1.61-0.49-0.364-0.336-0.546-0.826-0.546-1.47v-3.934h-1.4v-1.26h1.4v-1.932l1.582-0.336v2.268h1.946v1.26h-1.946v3.584c0 0.3453 0.074 0.5927 0.224 0.742 0.149 0.14 0.401 0.21 0.756 0.21 0.158 0 0.303-0.0093 0.434-0.028 0.14-0.028 0.312-0.0747 0.518-0.14v1.33c-0.196 0.0653-0.42 0.112-0.672 0.14-0.243 0.0373-0.472 0.056-0.686 0.056zm5.869-0.014c-0.373 0-0.728-0.0513-1.064-0.154-0.336-0.112-0.649-0.2613-0.938-0.448l-0.392 0.476h-1.12l0.868-1.036c-0.271-0.3267-0.485-0.6953-0.644-1.106-0.159-0.42-0.238-0.8727-0.238-1.358 0-0.6907 0.154-1.3067 0.462-1.848 0.308-0.5507 0.728-0.9847 1.26-1.302 0.541-0.3173 1.143-0.476 1.806-0.476 0.383 0 0.737 0.056 1.064 0.168 0.336 0.1027 0.644 0.252 0.924 0.448l0.406-0.504h1.12l-0.896 1.05c0.28 0.3173 0.499 0.686 0.658 1.106s0.238 0.8727 0.238 1.358c0 0.6907-0.154 1.3113-0.462 1.862-0.308 0.5413-0.728 0.9707-1.26 1.288s-1.129 0.476-1.792 0.476zm-1.638-2.338 2.702-3.22c-0.149-0.112-0.317-0.196-0.504-0.252-0.177-0.0653-0.364-0.098-0.56-0.098-0.383 0-0.723 0.1027-1.022 0.308-0.299 0.196-0.532 0.4667-0.7 0.812-0.168 0.336-0.252 0.7233-0.252 1.162 0 0.2427 0.028 0.476 0.084 0.7 0.065 0.2147 0.149 0.4107 0.252 0.588zm1.638 0.994c0.383 0 0.719-0.098 1.008-0.294 0.299-0.196 0.532-0.4667 0.7-0.812s0.252-0.7373 0.252-1.176c0-0.252-0.028-0.4853-0.084-0.7s-0.14-0.4107-0.252-0.588l-2.702 3.22c0.149 0.112 0.313 0.2007 0.49 0.266 0.187 0.056 0.383 0.084 0.588 0.084zm7.843 1.358c-0.709 0-1.246-0.1633-1.61-0.49-0.364-0.336-0.546-0.826-0.546-1.47v-3.934h-1.4v-1.26h1.4v-1.932l1.582-0.336v2.268h1.946v1.26h-1.946v3.584c0 0.3453 0.075 0.5927 0.224 0.742 0.15 0.14 0.402 0.21 0.756 0.21 0.159 0 0.304-0.0093 0.434-0.028 0.14-0.028 0.313-0.0747 0.518-0.14v1.33c-0.196 0.0653-0.42 0.112-0.672 0.14-0.242 0.0373-0.471 0.056-0.686 0.056zm5.934 0c-0.709 0-1.246-0.1633-1.61-0.49-0.364-0.336-0.546-0.826-0.546-1.47v-3.934h-1.4v-1.26h1.4v-1.932l1.582-0.336v2.268h1.946v1.26h-1.946v3.584c0 0.3453 0.075 0.5927 0.224 0.742 0.149 0.14 0.401 0.21 0.756 0.21 0.159 0 0.303-0.0093 0.434-0.028 0.14-0.028 0.313-0.0747 0.518-0.14v1.33c-0.196 0.0653-0.42 0.112-0.672 0.14-0.243 0.0373-0.471 0.056-0.686 0.056zm5.926 0c-0.672 0-1.279-0.1587-1.82-0.476-0.542-0.3267-0.971-0.7607-1.288-1.302-0.318-0.5507-0.476-1.1713-0.476-1.862s0.149-1.3067 0.448-1.848c0.298-0.5413 0.704-0.9707 1.218-1.288 0.522-0.3267 1.101-0.49 1.736-0.49 0.653 0 1.227 0.1587 1.722 0.476 0.504 0.3173 0.896 0.7467 1.176 1.288 0.289 0.5413 0.433 1.162 0.433 1.862v0.378h-5.179c0.056 0.3827 0.177 0.7233 0.364 1.022 0.196 0.2893 0.443 0.518 0.742 0.686 0.308 0.168 0.639 0.252 0.994 0.252 0.326 0 0.634-0.056 0.924-0.168 0.298-0.1213 0.546-0.2847 0.742-0.49l1.036 0.938c-0.43 0.3547-0.868 0.616-1.316 0.784-0.439 0.1587-0.924 0.238-1.456 0.238zm-2.016-4.242h3.668c-0.056-0.336-0.173-0.6347-0.35-0.896-0.168-0.2613-0.383-0.4667-0.644-0.616-0.252-0.1493-0.532-0.224-0.84-0.224s-0.593 0.0747-0.854 0.224c-0.252 0.14-0.462 0.3407-0.63 0.602s-0.285 0.5647-0.35 0.91z" fill="var(--e-color-brand-accent--contrast)"/>
<path d="m430.25 83.5v-9.8h1.12l5.74 8.12-0.028-8.12h1.022v9.8h-0.98l-5.88-8.302 0.028 8.302h-1.022zm13.234 0.14c-0.635 0-1.209-0.154-1.722-0.462-0.514-0.3173-0.92-0.742-1.218-1.274-0.299-0.5413-0.448-1.148-0.448-1.82s0.14-1.274 0.42-1.806c0.289-0.532 0.676-0.952 1.162-1.26 0.485-0.308 1.026-0.462 1.624-0.462 0.606 0 1.143 0.154 1.61 0.462 0.476 0.2987 0.849 0.7093 1.12 1.232 0.28 0.5133 0.42 1.0967 0.42 1.75v0.308h-5.362c0.037 0.4667 0.163 0.8867 0.378 1.26 0.224 0.364 0.513 0.6533 0.868 0.868 0.364 0.2053 0.76 0.308 1.19 0.308 0.354 0 0.695-0.0607 1.022-0.182 0.336-0.1307 0.62-0.3033 0.854-0.518l0.644 0.686c-0.392 0.308-0.798 0.5367-1.218 0.686s-0.868 0.224-1.344 0.224zm-2.366-4.06h4.326c-0.047-0.4107-0.173-0.7747-0.378-1.092-0.196-0.3267-0.448-0.5833-0.756-0.77-0.299-0.1867-0.635-0.28-1.008-0.28-0.374 0-0.714 0.0933-1.022 0.28-0.308 0.1773-0.565 0.4293-0.77 0.756-0.196 0.3173-0.327 0.686-0.392 1.106zm9.478 4.06c-0.588 0-1.036-0.14-1.344-0.42-0.299-0.2893-0.448-0.7047-0.448-1.246v-4.466h-1.414v-0.84h1.414v-1.876l1.022-0.238v2.114h1.96v0.84h-1.96v4.2c0 0.364 0.074 0.6253 0.224 0.784 0.158 0.1587 0.415 0.238 0.77 0.238 0.177 0 0.336-0.014 0.476-0.042s0.303-0.0747 0.49-0.14v0.91c-0.187 0.0653-0.383 0.112-0.588 0.14-0.206 0.028-0.406 0.042-0.602 0.042zm5.427 0c-0.588 0-1.036-0.14-1.344-0.42-0.298-0.2893-0.448-0.7047-0.448-1.246v-4.466h-1.414v-0.84h1.414v-1.876l1.022-0.238v2.114h1.96v0.84h-1.96v4.2c0 0.364 0.075 0.6253 0.224 0.784 0.159 0.1587 0.416 0.238 0.77 0.238 0.178 0 0.336-0.014 0.476-0.042s0.304-0.0747 0.49-0.14v0.91c-0.186 0.0653-0.382 0.112-0.588 0.14-0.205 0.028-0.406 0.042-0.602 0.042zm2.687-0.14v-10.108l1.022-0.21v10.318h-1.022zm6.197 0.14c-0.634 0-1.208-0.154-1.722-0.462-0.513-0.3173-0.919-0.742-1.218-1.274-0.298-0.5413-0.448-1.148-0.448-1.82s0.14-1.274 0.42-1.806c0.29-0.532 0.677-0.952 1.162-1.26 0.486-0.308 1.027-0.462 1.624-0.462 0.607 0 1.144 0.154 1.61 0.462 0.476 0.2987 0.85 0.7093 1.12 1.232 0.28 0.5133 0.42 1.0967 0.42 1.75v0.308h-5.362c0.038 0.4667 0.164 0.8867 0.378 1.26 0.224 0.364 0.514 0.6533 0.868 0.868 0.364 0.2053 0.761 0.308 1.19 0.308 0.355 0 0.696-0.0607 1.022-0.182 0.336-0.1307 0.621-0.3033 0.854-0.518l0.644 0.686c-0.392 0.308-0.798 0.5367-1.218 0.686s-0.868 0.224-1.344 0.224zm-2.366-4.06h4.326c-0.046-0.4107-0.172-0.7747-0.378-1.092-0.196-0.3267-0.448-0.5833-0.756-0.77-0.298-0.1867-0.634-0.28-1.008-0.28-0.373 0-0.714 0.0933-1.022 0.28-0.308 0.1773-0.564 0.4293-0.77 0.756-0.196 0.3173-0.326 0.686-0.392 1.106zm7.065 3.92v-6.832h1.022v6.832h-1.022zm0.518-8.526c-0.205 0-0.382-0.07-0.532-0.21-0.14-0.1493-0.21-0.322-0.21-0.518s0.07-0.364 0.21-0.504c0.15-0.1493 0.327-0.224 0.532-0.224 0.206 0 0.378 0.0747 0.518 0.224 0.15 0.14 0.224 0.308 0.224 0.504s-0.074 0.3687-0.224 0.518c-0.14 0.14-0.312 0.21-0.518 0.21zm5.68 8.666c-0.635 0-1.209-0.154-1.722-0.462-0.513-0.3173-0.919-0.742-1.218-1.274-0.299-0.5413-0.448-1.148-0.448-1.82s0.14-1.274 0.42-1.806c0.289-0.532 0.677-0.952 1.162-1.26s1.027-0.462 1.624-0.462c0.607 0 1.143 0.154 1.61 0.462 0.476 0.2987 0.849 0.7093 1.12 1.232 0.28 0.5133 0.42 1.0967 0.42 1.75v0.308h-5.362c0.037 0.4667 0.163 0.8867 0.378 1.26 0.224 0.364 0.513 0.6533 0.868 0.868 0.364 0.2053 0.761 0.308 1.19 0.308 0.355 0 0.695-0.0607 1.022-0.182 0.336-0.1307 0.621-0.3033 0.854-0.518l0.644 0.686c-0.392 0.308-0.798 0.5367-1.218 0.686s-0.868 0.224-1.344 0.224zm-2.366-4.06h4.326c-0.047-0.4107-0.173-0.7747-0.378-1.092-0.196-0.3267-0.448-0.5833-0.756-0.77-0.299-0.1867-0.635-0.28-1.008-0.28s-0.714 0.0933-1.022 0.28c-0.308 0.1773-0.565 0.4293-0.77 0.756-0.196 0.3173-0.327 0.686-0.392 1.106z" fill="var(--e-color-brand-accent--contrast)"/>
<path d="m547.49 83.5v-2.422h-5.278v-1.246l5.096-6.132h1.666v6.062h1.302v1.316h-1.302v2.422h-1.484zm-3.612-3.738h3.612v-4.382l-3.612 4.382zm10.65 3.892c-1.326 0-2.474-0.4433-3.444-1.33l0.924-1.05c0.42 0.3733 0.83 0.644 1.232 0.812 0.41 0.168 0.858 0.252 1.344 0.252 0.42 0 0.784-0.0793 1.092-0.238 0.317-0.1587 0.56-0.3827 0.728-0.672 0.177-0.2987 0.266-0.6347 0.266-1.008 0-0.5507-0.201-0.994-0.602-1.33-0.392-0.3453-0.901-0.518-1.526-0.518-0.327 0-0.649 0.042-0.966 0.126-0.318 0.084-0.644 0.2147-0.98 0.392l-1.064-0.322 0.224-5.068h5.95v1.316h-4.648l-0.14 2.842c0.345-0.168 0.681-0.2893 1.008-0.364 0.336-0.0747 0.686-0.112 1.05-0.112 0.653 0 1.222 0.126 1.708 0.378 0.485 0.2427 0.863 0.588 1.134 1.036 0.27 0.4387 0.406 0.952 0.406 1.54 0 0.6627-0.154 1.2413-0.462 1.736s-0.742 0.882-1.302 1.162c-0.551 0.28-1.195 0.42-1.932 0.42zm8.066 0c-1.325 0-2.473-0.4433-3.444-1.33l0.924-1.05c0.42 0.3733 0.831 0.644 1.232 0.812 0.411 0.168 0.859 0.252 1.344 0.252 0.42 0 0.784-0.0793 1.092-0.238 0.318-0.1587 0.56-0.3827 0.728-0.672 0.178-0.2987 0.266-0.6347 0.266-1.008 0-0.5507-0.2-0.994-0.602-1.33-0.392-0.3453-0.9-0.518-1.526-0.518-0.326 0-0.648 0.042-0.966 0.126-0.317 0.084-0.644 0.2147-0.98 0.392l-1.064-0.322 0.224-5.068h5.95v1.316h-4.648l-0.14 2.842c0.346-0.168 0.682-0.2893 1.008-0.364 0.336-0.0747 0.686-0.112 1.05-0.112 0.654 0 1.223 0.126 1.708 0.378 0.486 0.2427 0.864 0.588 1.134 1.036 0.271 0.4387 0.406 0.952 0.406 1.54 0 0.6627-0.154 1.2413-0.462 1.736s-0.742 0.882-1.302 1.162c-0.55 0.28-1.194 0.42-1.932 0.42zm5.318-0.154v-10.066l1.582-0.266v6.3l2.912-2.982h1.82l-3.234 3.248 3.402 3.766h-2.016l-2.884-3.234v3.234h-1.582zm7.574 0v-7.014h1.582v1.512c0.205-0.532 0.471-0.938 0.798-1.218s0.705-0.42 1.134-0.42c0.131 0.0093 0.247 0.0233 0.35 0.042 0.103 0.0093 0.215 0.042 0.336 0.098v1.386c-0.121-0.056-0.261-0.098-0.42-0.126-0.149-0.028-0.299-0.042-0.448-0.042-0.383 0-0.728 0.1027-1.036 0.308-0.299 0.2053-0.537 0.49-0.714 0.854v4.62h-1.582z" fill="var(--e-color-brand-accent--contrast)"/>
<rect transform="translate(429 97.5)" width="151" height="1" fill="var(--e-color-border-3)"/>
<path d="m433.41 122.65c-0.765 0-1.475-0.135-2.128-0.406-0.653-0.28-1.283-0.7-1.89-1.26l0.658-0.784c0.588 0.551 1.139 0.943 1.652 1.176 0.523 0.233 1.101 0.35 1.736 0.35 0.504 0 0.952-0.084 1.344-0.252 0.401-0.177 0.714-0.415 0.938-0.714s0.336-0.639 0.336-1.022c0-0.495-0.163-0.868-0.49-1.12-0.327-0.261-0.891-0.462-1.694-0.602l-1.582-0.266c-0.896-0.159-1.554-0.429-1.974-0.812-0.411-0.392-0.616-0.915-0.616-1.568 0-0.551 0.14-1.036 0.42-1.456 0.289-0.429 0.686-0.765 1.19-1.008s1.087-0.364 1.75-0.364c0.728 0 1.405 0.103 2.03 0.308 0.625 0.196 1.241 0.509 1.848 0.938l-0.56 0.84c-0.504-0.383-1.036-0.672-1.596-0.868-0.56-0.205-1.129-0.308-1.708-0.308-0.457 0-0.863 0.079-1.218 0.238-0.345 0.159-0.621 0.373-0.826 0.644-0.196 0.271-0.294 0.579-0.294 0.924 0 0.429 0.145 0.765 0.434 1.008s0.761 0.415 1.414 0.518l1.568 0.266c1.045 0.187 1.801 0.49 2.268 0.91 0.476 0.411 0.714 0.985 0.714 1.722 0 0.569-0.163 1.078-0.49 1.526-0.317 0.448-0.756 0.803-1.316 1.064-0.56 0.252-1.199 0.378-1.918 0.378zm7.762-0.014c-0.588 0-1.036-0.14-1.344-0.42-0.299-0.289-0.448-0.705-0.448-1.246v-4.466h-1.414v-0.84h1.414v-1.876l1.022-0.238v2.114h1.96v0.84h-1.96v4.2c0 0.364 0.074 0.625 0.224 0.784 0.158 0.159 0.415 0.238 0.77 0.238 0.177 0 0.336-0.014 0.476-0.042s0.303-0.075 0.49-0.14v0.91c-0.187 0.065-0.383 0.112-0.588 0.14-0.206 0.028-0.406 0.042-0.602 0.042zm5.56-0.028c-0.373 0-0.728-0.056-1.064-0.168-0.327-0.112-0.625-0.271-0.896-0.476l-0.448 0.532h-0.854l0.812-0.98c-0.271-0.317-0.485-0.681-0.644-1.092-0.149-0.411-0.224-0.859-0.224-1.344 0-0.672 0.145-1.274 0.434-1.806s0.686-0.952 1.19-1.26 1.073-0.462 1.708-0.462c0.373 0 0.723 0.056 1.05 0.168 0.336 0.112 0.639 0.275 0.91 0.49l0.448-0.546h0.854l-0.826 0.994c0.271 0.308 0.481 0.667 0.63 1.078 0.159 0.411 0.238 0.859 0.238 1.344 0 0.672-0.145 1.274-0.434 1.806s-0.686 0.952-1.19 1.26c-0.495 0.308-1.059 0.462-1.694 0.462zm-1.806-1.848 3.178-3.836c-0.187-0.149-0.397-0.266-0.63-0.35s-0.481-0.126-0.742-0.126c-0.448 0-0.845 0.117-1.19 0.35-0.345 0.224-0.621 0.537-0.826 0.938-0.196 0.392-0.294 0.84-0.294 1.344 0 0.317 0.042 0.621 0.126 0.91 0.093 0.289 0.219 0.546 0.378 0.77zm1.806 0.952c0.448 0 0.845-0.112 1.19-0.336 0.345-0.233 0.616-0.551 0.812-0.952 0.205-0.401 0.308-0.849 0.308-1.344 0-0.327-0.042-0.63-0.126-0.91s-0.205-0.532-0.364-0.756l-3.178 3.822c0.187 0.149 0.392 0.266 0.616 0.35 0.233 0.084 0.481 0.126 0.742 0.126zm7.291 0.924c-0.588 0-1.036-0.14-1.344-0.42-0.299-0.289-0.448-0.705-0.448-1.246v-4.466h-1.414v-0.84h1.414v-1.876l1.022-0.238v2.114h1.96v0.84h-1.96v4.2c0 0.364 0.075 0.625 0.224 0.784 0.159 0.159 0.415 0.238 0.77 0.238 0.177 0 0.336-0.014 0.476-0.042s0.303-0.075 0.49-0.14v0.91c-0.187 0.065-0.383 0.112-0.588 0.14s-0.406 0.042-0.602 0.042zm5.428 0c-0.588 0-1.036-0.14-1.344-0.42-0.299-0.289-0.448-0.705-0.448-1.246v-4.466h-1.414v-0.84h1.414v-1.876l1.022-0.238v2.114h1.96v0.84h-1.96v4.2c0 0.364 0.075 0.625 0.224 0.784 0.159 0.159 0.415 0.238 0.77 0.238 0.177 0 0.336-0.014 0.476-0.042s0.303-0.075 0.49-0.14v0.91c-0.187 0.065-0.383 0.112-0.588 0.14s-0.406 0.042-0.602 0.042zm5.63 0c-0.634 0-1.208-0.154-1.722-0.462-0.513-0.317-0.919-0.742-1.218-1.274-0.298-0.541-0.448-1.148-0.448-1.82s0.14-1.274 0.42-1.806c0.29-0.532 0.677-0.952 1.162-1.26 0.486-0.308 1.027-0.462 1.624-0.462 0.607 0 1.144 0.154 1.61 0.462 0.476 0.299 0.85 0.709 1.12 1.232 0.28 0.513 0.42 1.097 0.42 1.75v0.308h-5.362c0.038 0.467 0.164 0.887 0.378 1.26 0.224 0.364 0.514 0.653 0.868 0.868 0.364 0.205 0.761 0.308 1.19 0.308 0.355 0 0.696-0.061 1.022-0.182 0.336-0.131 0.621-0.303 0.854-0.518l0.644 0.686c-0.392 0.308-0.798 0.537-1.218 0.686s-0.868 0.224-1.344 0.224zm-2.366-4.06h4.326c-0.046-0.411-0.172-0.775-0.378-1.092-0.196-0.327-0.448-0.583-0.756-0.77-0.298-0.187-0.634-0.28-1.008-0.28-0.373 0-0.714 0.093-1.022 0.28-0.308 0.177-0.564 0.429-0.77 0.756-0.196 0.317-0.326 0.686-0.392 1.106z" fill="var(--e-color-brand-accent--contrast)"/>
<path d="m544.03 119.2v-1.344h4.886v1.344h-4.886zm11.521 3.304v-2.422h-5.278v-1.246l5.096-6.132h1.666v6.062h1.302v1.316h-1.302v2.422h-1.484zm-3.612-3.738h3.612v-4.382l-3.612 4.382zm10.649 3.892c-1.325 0-2.473-0.443-3.444-1.33l0.924-1.05c0.42 0.373 0.831 0.644 1.232 0.812 0.411 0.168 0.859 0.252 1.344 0.252 0.42 0 0.784-0.079 1.092-0.238 0.318-0.159 0.56-0.383 0.728-0.672 0.178-0.299 0.266-0.635 0.266-1.008 0-0.551-0.2-0.994-0.602-1.33-0.392-0.345-0.9-0.518-1.526-0.518-0.326 0-0.648 0.042-0.966 0.126-0.317 0.084-0.644 0.215-0.98 0.392l-1.064-0.322 0.224-5.068h5.95v1.316h-4.648l-0.14 2.842c0.346-0.168 0.682-0.289 1.008-0.364 0.336-0.075 0.686-0.112 1.05-0.112 0.654 0 1.223 0.126 1.708 0.378 0.486 0.243 0.864 0.588 1.134 1.036 0.271 0.439 0.406 0.952 0.406 1.54 0 0.663-0.154 1.241-0.462 1.736s-0.742 0.882-1.302 1.162c-0.55 0.28-1.194 0.42-1.932 0.42zm5.318-0.154v-10.066l1.582-0.266v6.3l2.912-2.982h1.82l-3.234 3.248 3.402 3.766h-2.016l-2.884-3.234v3.234h-1.582zm7.574 0v-7.014h1.582v1.512c0.205-0.532 0.471-0.938 0.798-1.218s0.705-0.42 1.134-0.42c0.131 9e-3 0.247 0.023 0.35 0.042 0.103 9e-3 0.215 0.042 0.336 0.098v1.386c-0.121-0.056-0.261-0.098-0.42-0.126-0.149-0.028-0.299-0.042-0.448-0.042-0.383 0-0.728 0.103-1.036 0.308-0.299 0.205-0.537 0.49-0.714 0.854v4.62h-1.582z" fill="var(--e-color-brand-accent--contrast)"/>
<path d="m770 83c0 41.421-33.579 75-75 75s-75-33.579-75-75c0-41.421 33.579-75 75-75s75 33.579 75 75z" fill="var(--e-color-brand-accent)"/>
<path d="m711.51 118.95c1.045 0 1.892 0.847 1.892 1.892v17.472 0.167c1e-3 1.631 3e-3 3.992-0.909 5.939-0.505 1.079-1.299 2.066-2.502 2.762-1.183 0.685-2.629 1.011-4.327 1.011h-71.218c-1.045 0-1.892-0.847-1.892-1.892s0.847-1.892 1.892-1.892h71.218c1.225 0 1.971-0.236 2.432-0.502 0.441-0.256 0.744-0.61 0.97-1.092 0.517-1.105 0.552-2.641 0.552-4.501v-17.472c0-1.045 0.847-1.892 1.892-1.892z" clip-rule="evenodd" fill="var(--e-color-static-black)" fill-rule="evenodd"/>
<path d="m718.36 48.945c-0.318-0.4271-0.816-0.6827-1.349-0.6922-0.532-0.0096-1.039 0.228-1.372 0.6434l-26.206 32.664h-41.905c-0.95 0-1.72 0.7702-1.72 1.7202v36.876c0 0.95 0.77 1.72 1.72 1.72h94.266c0.95 0 1.72-0.77 1.72-1.72v-36.876c0-0.3703-0.119-0.7307-0.341-1.0277l-24.813-33.307z" fill="var(--e-color-static-white)"/>
<path d="m675.73 44.812c-0.524 0-1.019 0.2388-1.346 0.6488l-29.582 37.156c-0.411 0.5168-0.49 1.2235-0.204 1.8184 0.287 0.595 0.889 0.9732 1.55 0.9732h42.318c0.531 0 1.031-0.2445 1.357-0.6628l27.534-35.334 25.096 35.274c0.551 0.7741 1.625 0.9551 2.399 0.4044s0.955-1.6247 0.404-2.3989l-26.435-37.156c-0.323-0.4536-0.845-0.723-1.402-0.723h-41.689z" fill="var(--e-color-static-black)"/>
<path d="m704.61 89.668 1.313-1.8644 4.203-5.1765 7.967-10.212c0.56-0.7335 1.793-0.4432 1.809 0.3209s-1.745 11.462-2.033 13.142c-5e-3 0.0321-2e-3 0.0648 6e-3 0.0961 9e-3 0.0313 0.025 0.0606 0.045 0.0862 0.021 0.0256 0.047 0.047 0.077 0.0629s0.062 0.0261 0.096 0.0298l3.891 0.596c0.444 0.0613 0.855 0.26 1.169 0.5655 0.32 0.2993 0.551 0.6734 0.672 1.085 0.104 0.4118 0.104 0.8413 0 1.2531-0.079 0.423-0.254 0.8245-0.512 1.1767l-4.43 5.4732-9.181 11.81c-0.113 0.149-0.275 0.258-0.461 0.311-0.185 0.052-0.383 0.045-0.563-0.02-0.183-0.071-0.335-0.199-0.431-0.362-0.096-0.164-0.131-0.355-0.098-0.54l1.97-12.837c6e-3 -0.0393 5e-3 -0.0795-6e-3 -0.1182-0.01-0.0386-0.028-0.0748-0.054-0.1064-0.025-0.0315-0.057-0.0577-0.094-0.0769s-0.077-0.031-0.119-0.0347l-3.827-0.5807c-0.395-0.0596-0.77-0.2086-1.093-0.4345-0.323-0.226-0.585-0.5223-0.764-0.8644-0.196-0.4589-0.258-0.96-0.179-1.4499s0.296-0.9501 0.627-1.3314z" fill="var(--e-color-brand-accent)"/>
</g>
<path d="m585 2-161 161" stroke="var(--e-color-signal-danger)" stroke-linecap="round" stroke-linejoin="round" stroke-width="3"/>
<path d="m776 2-161 161" stroke="var(--e-color-signal-danger)" stroke-linecap="round" stroke-linejoin="round" stroke-width="3"/>
<defs>
<clipPath id="b">
<rect transform="translate(0 8)" width="365" height="150" fill="#fff"/>
</clipPath>
<clipPath id="a">
<rect transform="translate(405 8)" width="365" height="150" fill="#fff"/>
</clipPath>
</defs>
</svg>
