<svg width="133" height="133" viewBox="0 0 133 133" fill="none" xmlns="http://www.w3.org/2000/svg">
<path d="M102.399 60.8805H58.975V71.3496H102.399V60.8805Z" fill="black"/>
<path d="M66.8843 91.7611C52.8199 91.7611 41.4021 80.2699 41.4021 66.115C41.4021 51.9602 52.8199 40.469 66.8843 40.469C74.9783 40.469 82.1797 44.2788 86.8576 50.1947L94.6746 43.2876C88.0886 35.1726 78.0866 30 66.8843 30C47.0648 30 31 46.1681 31 66.115C31 86.0619 47.0648 102.23 66.8843 102.23C78.0866 102.23 88.0886 97.0575 94.6746 88.9425L86.8576 82.0354C82.2105 87.9513 74.9783 91.7611 66.8843 91.7611Z" fill="black"/>
</svg>
