<svg width="300" height="132" viewBox="0 0 300 132" fill="none" xmlns="http://www.w3.org/2000/svg">
<path d="M101.621 60.8048H58.1965V71.1952H101.621V60.8048Z" fill="black"/>
<path d="M66.1059 91.4532C52.0414 91.4532 40.6237 80.0484 40.6237 66C40.6237 51.9516 52.0414 40.5468 66.1059 40.5468C74.1998 40.5468 81.4013 44.3279 86.0792 50.1994L93.8962 43.3442C87.3102 35.2902 77.3082 30.1565 66.1059 30.1565C46.2864 30.1565 30.2216 46.2031 30.2216 66C30.2216 85.7969 46.2864 101.843 66.1059 101.843C77.3082 101.843 87.3102 96.7098 93.8962 88.6558L86.0792 81.8007C81.4321 87.6721 74.1998 91.4532 66.1059 91.4532Z" fill="black"/>
<path d="M124.118 31.2017H113.716V100.829H124.118V31.2017Z" fill="black"/>
<path d="M205.427 49.9842H195.025V100.798H205.427V49.9842Z" fill="black"/>
<path d="M174.497 49.9842L159.479 85.1821L144.43 49.9842H132.858L155.416 100.829H163.51L186.069 49.9842H174.497Z" fill="black"/>
<path d="M200.226 42.1761C203.54 42.1761 206.227 39.4923 206.227 36.1816C206.227 32.871 203.54 30.1872 200.226 30.1872C196.911 30.1872 194.224 32.871 194.224 36.1816C194.224 39.4923 196.911 42.1761 200.226 42.1761Z" fill="black"/>
<path d="M240.634 96.7098C243.778 96.7098 246.327 94.1637 246.327 91.0228C246.327 87.882 243.778 85.3358 240.634 85.3358C237.49 85.3358 234.941 87.882 234.941 91.0228C234.941 94.1637 237.49 96.7098 240.634 96.7098Z" fill="black"/>
<path d="M244.666 49.9842H236.572L213.398 100.829H224.661L240.634 64.9241L256.576 100.829H267.84L244.666 49.9842Z" fill="black"/>
</svg>
