<svg width="83" height="25" viewBox="0 0 83 25" fill="none" xmlns="http://www.w3.org/2000/svg">
<g clip-path="url(#clip0)">
<path d="M24.8669 10.6963H9.78906V14.304H24.8669V10.6963Z" fill="black"/>
<path d="M12.538 21.3378C7.65446 21.3378 3.68998 17.3778 3.68998 12.4999C3.68998 7.62194 7.65446 3.66194 12.538 3.66194C15.3483 3.66194 17.8489 4.97483 19.4731 7.01354L22.1874 4.63326C19.9006 1.83673 16.4277 0.0541992 12.538 0.0541992C5.65619 0.0541992 0.078125 5.62594 0.078125 12.4999C0.078125 19.3738 5.65619 24.9455 12.538 24.9455C16.4277 24.9455 19.9006 23.163 22.1874 20.3665L19.4731 17.9862C17.8596 20.0249 15.3483 21.3378 12.538 21.3378Z" fill="black"/>
<path d="M32.6782 0.41748H29.0664V24.5937H32.6782V0.41748Z" fill="black"/>
<path d="M60.9126 6.93896H57.3008V24.5828H60.9126V6.93896Z" fill="black"/>
<path d="M50.1728 6.93896L44.9582 19.1605L39.7329 6.93896H35.7148L43.5478 24.5934H46.3579L54.1909 6.93896H50.1728Z" fill="black"/>
<path d="M59.1075 4.22774C60.2582 4.22774 61.1911 3.29585 61.1911 2.14633C61.1911 0.996812 60.2582 0.0649414 59.1075 0.0649414C57.9564 0.0649414 57.0234 0.996812 57.0234 2.14633C57.0234 3.29585 57.9564 4.22774 59.1075 4.22774Z" fill="#29D305"/>
<path d="M73.1372 23.1632C74.2289 23.1632 75.114 22.2791 75.114 21.1885C75.114 20.098 74.2289 19.2139 73.1372 19.2139C72.0452 19.2139 71.1602 20.098 71.1602 21.1885C71.1602 22.2791 72.0452 23.1632 73.1372 23.1632Z" fill="#29D305"/>
<path d="M74.5366 6.93896H71.7262L63.6797 24.5934H67.5905L73.1366 12.1264L78.6721 24.5934H82.5832L74.5366 6.93896Z" fill="black"/>
</g>
<defs>
<clipPath id="clip0">
<rect width="82.6389" height="25" fill="white"/>
</clipPath>
</defs>
</svg>
