<svg width="120" height="120" viewBox="0 0 120 120" fill="none" xmlns="http://www.w3.org/2000/svg">
<path d="M89.5057 55.3813H53.8145V63.986H89.5057V55.3813Z" fill="black"/>
<path d="M60.3162 80.7625C48.7564 80.7625 39.372 71.3177 39.372 59.6836C39.372 48.0495 48.7564 38.6047 60.3162 38.6047C66.9688 38.6047 72.8878 41.736 76.7326 46.5984L83.1576 40.9213C77.7444 34.2514 69.5236 30 60.3162 30C44.0262 30 30.8223 43.2889 30.8223 59.6836C30.8223 76.0783 44.0262 89.3672 60.3162 89.3672C69.5236 89.3672 77.7444 85.1158 83.1576 78.4459L76.7326 72.7688C72.9131 77.6312 66.9688 80.7625 60.3162 80.7625Z" fill="black"/>
<rect x="0.5" y="0.5" width="119" height="119" stroke="#29D305" stroke-linecap="round" stroke-linejoin="round" stroke-dasharray="4 8"/>
</svg>
