<svg width="32" height="32" viewBox="0 0 32 32" fill="none" xmlns="http://www.w3.org/2000/svg">
<path d="M7 9C9.20914 9 11 7.20914 11 5C11 2.79086 9.20914 1 7 1C4.79086 1 3 2.79086 3 5C3 7.20914 4.79086 9 7 9Z" stroke="black" stroke-width="2" stroke-linecap="round" stroke-linejoin="round"/>
<path d="M10 31L11 21H13V17C13 15.4087 12.3679 13.8826 11.2426 12.7574C10.1174 11.6321 8.5913 11 7 11C5.4087 11 3.88258 11.6321 2.75736 12.7574C1.63214 13.8826 1 15.4087 1 17V21H3L4 31H10Z" stroke="black" stroke-width="2" stroke-linecap="round" stroke-linejoin="round"/>
<path d="M23.0001 15L16.1814 7.88662C15.5826 7.28814 15.1874 6.51628 15.0519 5.68054C14.9165 4.8448 15.0476 3.98763 15.4268 3.23062C15.7124 2.65884 16.1299 2.16314 16.6448 1.78438C17.1597 1.40563 17.7572 1.15466 18.3881 1.05218C19.019 0.949698 19.6653 0.998629 20.2736 1.19494C20.8819 1.39125 21.4348 1.72933 21.8868 2.18129L23.0001 3.29462L24.1134 2.18129C24.5655 1.72933 25.1186 1.39127 25.727 1.19496C26.3353 0.998659 26.9817 0.949729 27.6127 1.05221C28.2437 1.15468 28.8413 1.40563 29.3563 1.78438C29.8713 2.16312 30.2889 2.65882 30.5748 3.23062V3.23062C30.9533 3.98786 31.084 4.84501 30.9484 5.68066C30.8127 6.51631 30.4175 7.28808 29.8188 7.88662L23.0001 15Z" stroke="black" stroke-width="2" stroke-linecap="round" stroke-linejoin="round"/>
</svg>
