<svg width="40" height="40" viewBox="0 0 40 40" fill="none" xmlns="http://www.w3.org/2000/svg">
<g clip-path="url(#clip0)">
<path fill-rule="evenodd" clip-rule="evenodd" d="M6.06218 4.07609L5.10913 3.60681C4.49127 4.8595 4.16992 6.23735 4.16992 7.6339C4.16992 9.02324 4.48796 10.3941 5.09959 11.6416C5.32521 12.1451 5.64689 12.5999 6.04672 12.9806C6.45221 13.3667 6.93009 13.6688 7.45286 13.8698C7.97564 14.0707 8.533 14.1663 9.09291 14.1513C9.65282 14.1362 10.2042 14.0107 10.7154 13.782C11.2266 13.5533 11.6876 13.2259 12.0717 12.8186C12.4558 12.4113 12.7556 11.9321 12.9537 11.4087C13.1519 10.8852 13.2445 10.3278 13.2263 9.76847C13.2082 9.21103 13.0803 8.66263 12.8501 8.1546C12.5314 7.43621 12.014 6.82368 11.3587 6.38913L11.3588 6.38904L11.3466 6.38119C10.5825 5.88939 10.0347 5.68426 9.73888 5.57346C9.65415 5.54174 9.59009 5.51774 9.54751 5.49697C9.22143 5.33787 8.62471 4.94578 6.77144 3.28564L6.06218 4.07609ZM6.51706 5.88683C6.37004 6.45566 6.29492 7.04259 6.29492 7.6339C6.29492 8.70496 6.54137 9.76169 7.01524 10.7224C7.02188 10.7359 7.02824 10.7495 7.03431 10.7633C7.14734 11.0193 7.3099 11.2505 7.51264 11.4435C7.71539 11.6365 7.95433 11.7876 8.21572 11.8881C8.47711 11.9885 8.75579 12.0364 9.03574 12.0288C9.3157 12.0213 9.5914 11.9586 9.847 11.8442C10.1026 11.7298 10.3331 11.5661 10.5251 11.3625C10.7172 11.1588 10.8671 10.9193 10.9661 10.6575C11.0652 10.3958 11.1115 10.1171 11.1025 9.83743C11.0934 9.55775 11.029 9.28263 10.9131 9.02789L10.9084 9.01745L10.9085 9.01743C10.7548 8.66974 10.5053 8.373 10.1891 8.16184C9.62244 7.79749 9.44597 7.73583 9.21635 7.6556C9.0728 7.60544 8.90848 7.54803 8.61505 7.40486C8.13825 7.17221 7.56263 6.7766 6.51706 5.88683Z" fill="black"/>
<path fill-rule="evenodd" clip-rule="evenodd" d="M8.63752 12.0728C9.19099 11.878 9.79771 12.1684 9.99267 12.7214L11.3116 16.4625C11.5065 17.0155 11.2159 17.6217 10.6624 17.8165C10.109 18.0113 9.50225 17.7209 9.3073 17.1679L7.98838 13.4268C7.79342 12.8738 8.08405 12.2676 8.63752 12.0728Z" fill="black"/>
<path fill-rule="evenodd" clip-rule="evenodd" d="M6.0625 16.8153C6.0625 16.229 6.5382 15.7537 7.125 15.7537H26.25C26.8368 15.7537 27.3125 16.229 27.3125 16.8153V29.5546C27.3125 31.5255 26.5289 33.4156 25.1341 34.8093C23.7393 36.2029 21.8475 36.9858 19.875 36.9858H13.5C11.5275 36.9858 9.63569 36.2029 8.24089 34.8093C6.84609 33.4156 6.0625 31.5255 6.0625 29.5546V16.8153ZM19.875 34.8626C21.284 34.8626 22.6352 34.3034 23.6315 33.3079C24.6278 32.3125 25.1875 30.9624 25.1875 29.5546V17.8769H8.1875V29.5546C8.1875 30.9624 8.74721 32.3125 9.7435 33.3079C10.7398 34.3034 12.091 34.8626 13.5 34.8626H19.875Z" fill="black"/>
<path fill-rule="evenodd" clip-rule="evenodd" d="M25.1875 16.8153C25.1875 16.229 25.6632 15.7537 26.25 15.7537H28.375C30.3475 15.7537 32.2393 16.5366 33.6341 17.9302C35.0289 19.3239 35.8125 21.214 35.8125 23.1849C35.8125 25.1558 35.0289 27.046 33.6341 28.4396C32.2393 29.8333 30.3475 30.6162 28.375 30.6162H26.25C25.6632 30.6162 25.1875 30.1409 25.1875 29.5546V16.8153ZM28.375 28.493C29.784 28.493 31.1352 27.9337 32.1315 26.9383C33.1278 25.9428 33.6875 24.5927 33.6875 23.1849C33.6875 21.7771 33.1278 20.427 32.1315 19.4316C31.1352 18.4361 29.784 17.8769 28.375 17.8769H27.3125V28.493H28.375Z" fill="black"/>
<path fill-rule="evenodd" clip-rule="evenodd" d="M11.2797 10.3758C11.7783 10.0666 12.4333 10.2198 12.7427 10.718L16.1824 16.2553C16.4919 16.7535 16.3385 17.408 15.84 17.7172C15.3414 18.0264 14.6863 17.8732 14.3769 17.375L10.9372 11.8376C10.6278 11.3395 10.7811 10.685 11.2797 10.3758Z" fill="black"/>
<path fill-rule="evenodd" clip-rule="evenodd" d="M24.7086 3.04641C25.0881 3.18026 25.3593 3.51685 25.4092 3.91585L26.2408 10.5658C26.2612 10.7293 26.2433 10.8953 26.1884 11.0506L24.028 17.1683C23.8328 17.7212 23.2259 18.0113 22.6725 17.8162C22.1192 17.6211 21.8289 17.0148 22.0241 16.4619L24.1011 10.5804L23.5641 6.28586L20.4467 9.29269L17.6643 17.1685C17.469 17.7213 16.8621 18.0113 16.3087 17.8162C15.7554 17.621 15.4652 17.0146 15.6605 16.4617L18.5264 8.34961C18.5813 8.19419 18.6717 8.05368 18.7904 7.9392L23.617 3.28369C23.9065 3.00442 24.3291 2.91256 24.7086 3.04641Z" fill="black"/>
<path fill-rule="evenodd" clip-rule="evenodd" d="M18.6064 8.75506C19.0948 8.43004 19.7544 8.56215 20.0797 9.05013C20.552 9.75864 21.2417 10.2949 22.0451 10.5783C22.8485 10.8617 23.7222 10.8769 24.5351 10.6217C25.0949 10.4459 25.6913 10.7568 25.8672 11.3162C26.0431 11.8755 25.7319 12.4715 25.1721 12.6472C23.9204 13.0402 22.5749 13.0168 21.3377 12.5804C20.1005 12.144 19.0384 11.3182 18.3111 10.2271C17.9858 9.73914 18.118 9.08008 18.6064 8.75506Z" fill="black"/>
</g>
<path fill-rule="evenodd" clip-rule="evenodd" d="M28.4814 7.42874C28.679 7.21425 28.9869 7.12504 29.2833 7.19639L34.7744 8.51792C35.5295 8.7003 36.2077 9.11985 36.6984 9.70849C37.189 10.2969 37.4642 11.0202 37.4796 11.7616C37.501 12.7051 37.1589 13.6113 36.5187 14.3062C35.8783 15.0014 34.9848 15.4361 34.0099 15.5272C33.2444 15.5999 32.467 15.4222 31.803 15.0226C31.1384 14.6227 30.6261 14.0239 30.3488 13.3229L28.3369 8.22374C28.2283 7.94847 28.2838 7.64323 28.4814 7.42874ZM31.8906 12.8041C31.8906 12.8042 31.8905 12.8041 31.8906 12.8041C32.0346 13.1683 32.3008 13.4794 32.6461 13.6872C32.9915 13.895 33.3957 13.9873 33.7936 13.9493L33.7954 13.9491C34.3668 13.8958 34.8902 13.641 35.2654 13.2338C35.6405 12.8265 35.841 12.2954 35.8284 11.7423L35.8283 11.7405C35.8204 11.3553 35.6774 10.9793 35.4224 10.6735C35.1675 10.3677 34.8156 10.1498 34.4235 10.055C34.4233 10.055 34.4236 10.055 34.4235 10.055L30.4263 9.09299L31.8906 12.8041Z" fill="#29D305"/>
<path d="M31.8906 12.8041C31.8905 12.8041 31.8906 12.8042 31.8906 12.8041ZM31.8906 12.8041C32.0346 13.1683 32.3008 13.4794 32.6461 13.6872C32.9915 13.895 33.3957 13.9873 33.7936 13.9493L33.7954 13.9491C34.3668 13.8958 34.8902 13.641 35.2654 13.2338C35.6405 12.8265 35.841 12.2954 35.8284 11.7423L35.8283 11.7405C35.8204 11.3553 35.6774 10.9793 35.4224 10.6735C35.1675 10.3677 34.8156 10.1498 34.4235 10.055M31.8906 12.8041L30.4263 9.09299L34.4235 10.055M34.4235 10.055C34.4236 10.055 34.4233 10.055 34.4235 10.055ZM29.2833 7.19639C28.9869 7.12504 28.679 7.21425 28.4814 7.42874C28.2838 7.64323 28.2283 7.94847 28.3369 8.22374L30.3488 13.3229C30.6261 14.0239 31.1384 14.6227 31.803 15.0226C32.467 15.4222 33.2444 15.5999 34.0099 15.5272C34.9848 15.4361 35.8783 15.0014 36.5187 14.3062C37.1589 13.6113 37.501 12.7051 37.4796 11.7616C37.4642 11.0202 37.189 10.2969 36.6984 9.70849C36.2077 9.11985 35.5295 8.7003 34.7744 8.51792L29.2833 7.19639Z" stroke="#29D305" stroke-width="0.25" stroke-linecap="round" stroke-linejoin="round"/>
<path fill-rule="evenodd" clip-rule="evenodd" d="M28.8127 5.49406C28.7319 5.26701 28.7783 5.00814 28.9335 4.81977L31.1415 2.13973C31.4676 1.74462 31.9087 1.4713 32.3929 1.36473C32.877 1.25821 33.3762 1.32406 33.81 1.55162C34.3574 1.83752 34.7781 2.32771 34.9916 2.92822C35.2052 3.52896 35.1963 4.19782 34.9666 4.80648C34.7853 5.28916 34.4554 5.69906 34.0301 5.97008C33.6044 6.24136 33.108 6.35764 32.6211 6.30015L29.3202 5.9074C29.0882 5.8798 28.8934 5.72111 28.8127 5.49406ZM32.8035 4.97577C33.0062 4.99965 33.2129 4.9512 33.3901 4.83826C33.5674 4.72526 33.7049 4.5543 33.7804 4.35295L33.781 4.35154C33.8942 4.05158 33.8986 3.72193 33.7933 3.42583C33.688 3.12973 33.4805 2.88806 33.2106 2.74719L33.2094 2.74652C33.0285 2.65161 32.8205 2.62414 32.6188 2.66852C32.4172 2.7129 32.2336 2.82652 32.0978 2.99104L30.6716 4.72211L32.8035 4.97577Z" fill="#29D305" stroke="#29D305" stroke-width="0.25" stroke-linecap="round" stroke-linejoin="round"/>
<defs>
<clipPath id="clip0">
<rect width="34" height="34" fill="white" transform="translate(3 3)"/>
</clipPath>
</defs>
</svg>
