<svg width="32" height="32" viewBox="0 0 32 32" fill="none" xmlns="http://www.w3.org/2000/svg">
<g clip-path="url(#clip0)">
<path d="M2.88154 1.01343C6.34821 4.12143 5.51487 2.86676 7.31354 4.02543C7.77268 4.33015 8.13496 4.75998 8.35754 5.26409C8.52113 5.62404 8.61195 6.01277 8.62479 6.40793C8.63764 6.8031 8.57224 7.1969 8.43236 7.56671C8.29249 7.93651 8.08089 8.27502 7.80975 8.56277C7.5386 8.85052 7.21325 9.08183 6.8524 9.24341C6.49155 9.40499 6.10232 9.49364 5.70709 9.50428C5.31186 9.51492 4.91842 9.44732 4.5494 9.30539C4.18038 9.16345 3.84306 8.94997 3.55683 8.67723C3.2706 8.40448 3.0411 8.07784 2.88154 7.71609C2.36779 6.67361 2.10059 5.52696 2.10059 4.36476C2.10059 3.20256 2.36779 2.05591 2.88154 1.01343V1.01343Z" stroke="black" stroke-width="2" stroke-linecap="round" stroke-linejoin="round"/>
<path d="M5.6377 9.48926L6.87903 13.0133" stroke="black" stroke-width="2" stroke-linecap="round" stroke-linejoin="round"/>
<path d="M15.8809 31.0134H9.88086C8.28956 31.0134 6.76344 30.3813 5.63822 29.2561C4.513 28.1308 3.88086 26.6047 3.88086 25.0134V13.0134H21.8809V25.0134C21.8809 26.6047 21.2487 28.1308 20.1235 29.2561C18.9983 30.3813 17.4722 31.0134 15.8809 31.0134V31.0134Z" stroke="black" stroke-width="2" stroke-linecap="round" stroke-linejoin="round"/>
<path d="M23.8809 25.0134H21.8809V13.0134H23.8809C25.4722 13.0134 26.9983 13.6456 28.1235 14.7708C29.2487 15.896 29.8809 17.4221 29.8809 19.0134C29.8809 20.6047 29.2487 22.1308 28.1235 23.2561C26.9983 24.3813 25.4722 25.0134 23.8809 25.0134V25.0134Z" stroke="black" stroke-width="2" stroke-linecap="round" stroke-linejoin="round"/>
<path d="M8.32031 7.79736L11.5576 13.0134" stroke="black" stroke-width="2" stroke-linecap="round" stroke-linejoin="round"/>
<path d="M12.8584 13.0132L15.5557 5.37191L20.0984 0.986572L20.8811 7.25057L18.8477 13.0132" stroke="black" stroke-width="2" stroke-linecap="round" stroke-linejoin="round"/>
<path d="M20.5675 8.13342C19.596 8.43872 18.5516 8.4205 17.5913 8.08149C16.6311 7.74248 15.8067 7.101 15.2422 6.25342" stroke="black" stroke-width="2" stroke-linecap="round" stroke-linejoin="round"/>
</g>
<defs>
<clipPath id="clip0">
<rect width="32" height="32" fill="white"/>
</clipPath>
</defs>
</svg>
