<svg width="40" height="40" viewBox="0 0 40 40" fill="none" xmlns="http://www.w3.org/2000/svg">
<path fill-rule="evenodd" clip-rule="evenodd" d="M15.1999 24.6064C15.8626 24.6064 16.3998 25.1491 16.3998 25.8186V29.4549C16.3998 29.7764 16.5262 30.0847 16.7513 30.312C16.9763 30.5393 17.2815 30.6671 17.5997 30.6671H22.3994C22.7176 30.6671 23.0228 30.5393 23.2478 30.312C23.4729 30.0847 23.5993 29.7764 23.5993 29.4549V25.8186C23.5993 25.1491 24.1365 24.6064 24.7992 24.6064C25.4619 24.6064 25.9991 25.1491 25.9991 25.8186V29.4549C25.9991 30.4194 25.6198 31.3443 24.9448 32.0262C24.2697 32.7082 23.3541 33.0913 22.3994 33.0913H17.5997C16.645 33.0913 15.7294 32.7082 15.0543 32.0262C14.3793 31.3443 14 30.4194 14 29.4549V25.8186C14 25.1491 14.5372 24.6064 15.1999 24.6064Z" fill="black"/>
<path fill-rule="evenodd" clip-rule="evenodd" d="M19.9787 4.00019C19.9928 3.99994 20.007 3.99994 20.0212 4.00019C23.1804 4.05681 26.1945 5.34975 28.4287 7.6067C30.6629 9.86365 31.9428 12.9084 31.9989 16.0997L31.9989 16.105C32.0286 18.3437 31.4313 20.5453 30.276 22.4559C29.1206 24.3666 27.4543 25.9085 25.4691 26.9039C25.3033 26.9871 25.1207 27.0303 24.9356 27.0303H15.0643C14.8635 27.0303 14.6742 26.9805 14.5079 26.8924C12.5339 25.8972 10.8767 24.3609 9.72585 22.459C8.5706 20.5497 7.97269 18.3497 8.00096 16.1122L8.00103 16.1069H8.00104C8.05527 12.9143 9.33438 9.86775 11.5688 7.60928C13.8032 5.3508 16.8183 4.05686 19.9787 4.00019ZM15.3547 24.6061H24.6452C26.1183 23.8125 27.356 22.6343 28.228 21.1922C29.1471 19.6722 29.6225 17.9209 29.5994 16.1399C29.5536 13.5776 28.5257 11.1331 26.7318 9.3209C24.9422 7.51313 22.5297 6.47535 20 6.42446C17.4692 6.47539 15.0559 7.51397 13.2662 9.32297C11.4721 11.1364 10.4448 13.5824 10.4005 16.1458C10.3785 17.9257 10.8544 19.6758 11.7735 21.1947C12.6454 22.6356 13.8825 23.8129 15.3547 24.6061Z" fill="black"/>
<path fill-rule="evenodd" clip-rule="evenodd" d="M19.9987 30.6665C20.6614 30.6665 21.1986 31.2092 21.1986 31.8786V35.515C21.1986 36.1844 20.6614 36.7271 19.9987 36.7271C19.336 36.7271 18.7988 36.1844 18.7988 35.515V31.8786C18.7988 31.2092 19.336 30.6665 19.9987 30.6665Z" fill="black"/>
<path fill-rule="evenodd" clip-rule="evenodd" d="M19.9987 18.5454C20.6614 18.5454 21.1986 19.0881 21.1986 19.7575V25.8181C21.1986 26.4876 20.6614 27.0303 19.9987 27.0303C19.336 27.0303 18.7988 26.4876 18.7988 25.8181V19.7575C18.7988 19.0881 19.336 18.5454 19.9987 18.5454Z" fill="black"/>
<path fill-rule="evenodd" clip-rule="evenodd" d="M15.5507 15.2642C16.0193 14.7908 16.779 14.7908 17.2476 15.2642L19.9989 18.0435L22.7501 15.2642C23.2187 14.7908 23.9785 14.7908 24.447 15.2642C24.9156 15.7376 24.9156 16.505 24.447 16.9784L20.8473 20.6148C20.3787 21.0881 19.619 21.0881 19.1504 20.6148L15.5507 16.9784C15.0821 16.505 15.0821 15.7376 15.5507 15.2642Z" fill="black"/>
<path fill-rule="evenodd" clip-rule="evenodd" d="M19.9747 2.38564e-06C20.513 2.38564e-06 20.9493 0.45229 20.9493 1.01022V2.14979C20.9493 2.70771 20.513 3.16 19.9747 3.16C19.4364 3.16 19 2.70771 19 2.14979V1.01022C19 0.45229 19.4364 2.38564e-06 19.9747 2.38564e-06Z" fill="#29D305"/>
<path fill-rule="evenodd" clip-rule="evenodd" d="M2 13.2554C2 12.7167 2.43638 12.28 2.97469 12.28L5.5 12.28C6.0383 12.28 6.47469 12.7167 6.47469 13.2554C6.47469 13.794 6.0383 14.2307 5.5 14.2307H2.97469C2.43638 14.2307 2 13.794 2 13.2554Z" fill="#29D305"/>
<path fill-rule="evenodd" clip-rule="evenodd" d="M7.68984 3.22606C8.06282 2.83766 8.67982 2.82535 9.06796 3.19857L10.7315 4.60513C11.1196 4.97835 11.1319 5.59577 10.759 5.98418C10.386 6.37258 9.76898 6.38489 9.38083 6.01167L7.71732 4.60511C7.32917 4.23189 7.31687 3.61447 7.68984 3.22606Z" fill="#29D305"/>
<path fill-rule="evenodd" clip-rule="evenodd" d="M32.9746 13.2807C32.9746 12.728 33.5343 12.28 34.2246 12.28H36.5C37.1904 12.28 37.75 12.728 37.75 13.2807C37.75 13.8334 37.1904 14.2814 36.5 14.2814H34.2246C33.5343 14.2814 32.9746 13.8334 32.9746 13.2807Z" fill="#29D305"/>
<path fill-rule="evenodd" clip-rule="evenodd" d="M32.1131 3.3474C32.486 3.73582 32.4737 4.35326 32.0856 4.72649L30.6246 6.13307C30.2365 6.5063 29.6195 6.494 29.2465 6.10558C28.8735 5.71717 28.8858 5.09973 29.274 4.7265L30.735 3.31991C31.1231 2.94668 31.7401 2.95899 32.1131 3.3474Z" fill="#29D305"/>
</svg>
