<svg width="32" height="32" viewBox="0 0 32 32" fill="none" xmlns="http://www.w3.org/2000/svg">
<path d="M25.6496 4.3C25.4633 4.05161 25.2217 3.85 24.944 3.71115C24.6663 3.57229 24.3601 3.5 24.0496 3.5H8.04957C7.73907 3.5 7.43285 3.57229 7.15514 3.71115C6.87743 3.85 6.63586 4.05161 6.44956 4.3L2.00023 10.2347C1.73021 10.5949 1.58964 11.0357 1.60125 11.4858C1.61287 11.9358 1.77599 12.3688 2.06423 12.7147L14.5149 27.7813C14.7026 28.0055 14.9372 28.1858 15.2021 28.3094C15.467 28.4331 15.7559 28.4972 16.0482 28.4972C16.3406 28.4972 16.6294 28.4331 16.8943 28.3094C17.1593 28.1858 17.3938 28.0055 17.5816 27.7813L30.0322 12.7147C30.3205 12.3688 30.4836 11.9358 30.4952 11.4858C30.5068 11.0357 30.3663 10.5949 30.0962 10.2347L25.6496 4.3Z" stroke="black" stroke-width="2" stroke-linecap="round" stroke-linejoin="round"/>
<path d="M7.13184 3.72266L16.0492 28.5" stroke="black" stroke-width="2" stroke-linecap="round" stroke-linejoin="round"/>
<path d="M24.9658 3.72266L16.0498 28.5" stroke="black" stroke-width="2" stroke-linecap="round" stroke-linejoin="round"/>
<path d="M1.59766 11.5H30.495" stroke="black" stroke-width="2" stroke-linecap="round" stroke-linejoin="round"/>
<path d="M10.0498 11.5L16.0498 3.5L22.0498 11.5" stroke="black" stroke-width="2" stroke-linecap="round" stroke-linejoin="round"/>
</svg>
