<svg width="44" height="40" viewBox="0 0 44 40" fill="none" xmlns="http://www.w3.org/2000/svg">
<path d="M21 20L31.5 10.9067L31.5 29.0933L21 20Z" fill="#29D305"/>
<path fill-rule="evenodd" clip-rule="evenodd" d="M3.66677 19.6296C3.46221 19.8342 3.46221 20.1658 3.66677 20.3704L12.0006 28.7042C12.2052 28.9088 12.5368 28.9088 12.7414 28.7042L21.0752 20.3704C21.2798 20.1658 21.2798 19.8342 21.0752 19.6296L12.7414 11.2958C12.5368 11.0912 12.2052 11.0912 12.0006 11.2958L3.66677 19.6296ZM3.01858 21.0186C2.45603 20.456 2.45603 19.544 3.01858 18.9814L11.3524 10.6476C11.915 10.085 12.827 10.085 13.3896 10.6476L21.7234 18.9814C22.286 19.544 22.286 20.456 21.7234 21.0186L13.3896 29.3524C12.827 29.915 11.915 29.915 11.3524 29.3524L3.01858 21.0186Z" fill="black" stroke="black" stroke-width="1.5" stroke-linecap="round" stroke-linejoin="round"/>
<path fill-rule="evenodd" clip-rule="evenodd" d="M22.9246 19.6296C22.72 19.8342 22.72 20.1658 22.9246 20.3704L31.2584 28.7042C31.463 28.9088 31.7947 28.9088 31.9992 28.7042L40.3331 20.3704C40.5376 20.1658 40.5376 19.8342 40.3331 19.6296L31.9992 11.2958C31.7946 11.0912 31.463 11.0912 31.2584 11.2958L22.9246 19.6296ZM22.2764 21.0186C21.7138 20.456 21.7138 19.544 22.2764 18.9814L30.6102 10.6476C31.1728 10.085 32.0849 10.085 32.6474 10.6476L40.9812 18.9814C41.5438 19.544 41.5438 20.456 40.9812 21.0186L32.6474 29.3524C32.0849 29.915 31.1728 29.915 30.6102 29.3524L22.2764 21.0186Z" fill="black" stroke="black" stroke-width="1.5" stroke-linecap="round" stroke-linejoin="round"/>
</svg>
