<svg width="782" height="648" viewBox="0 0 782 648" fill="none" xmlns="http://www.w3.org/2000/svg">
<path d="M1 8C1 3.58172 4.58172 0 9 0H774C778.418 0 782 3.58172 782 8V640C782 644.418 778.418 648 774 648H9.00001C4.58174 648 1 644.418 1 640V8Z" fill="#262626"/>
<path d="M126.232 90.5C126.232 92 125.942 93.42 125.362 94.76C124.782 96.08 123.992 97.23 122.992 98.21C122.012 99.17 120.842 99.93 119.482 100.49C118.122 101.05 116.662 101.33 115.102 101.33C113.562 101.33 112.112 101.05 110.752 100.49C109.392 99.93 108.212 99.17 107.212 98.21C106.232 97.23 105.452 96.08 104.872 94.76C104.292 93.42 104.002 92 104.002 90.5C104.002 89 104.292 87.59 104.872 86.27C105.452 84.93 106.232 83.78 107.212 82.82C108.212 81.84 109.392 81.07 110.752 80.51C112.112 79.95 113.562 79.67 115.102 79.67C116.662 79.67 118.122 79.95 119.482 80.51C120.842 81.07 122.012 81.84 122.992 82.82C123.992 83.78 124.782 84.93 125.362 86.27C125.942 87.59 126.232 89 126.232 90.5ZM121.762 90.5C121.762 89.52 121.592 88.62 121.252 87.8C120.912 86.96 120.442 86.24 119.842 85.64C119.262 85.02 118.562 84.54 117.742 84.2C116.922 83.84 116.042 83.66 115.102 83.66C114.162 83.66 113.282 83.84 112.462 84.2C111.662 84.54 110.962 85.02 110.362 85.64C109.782 86.24 109.322 86.96 108.982 87.8C108.642 88.62 108.472 89.52 108.472 90.5C108.472 91.46 108.642 92.36 108.982 93.2C109.322 94.04 109.782 94.77 110.362 95.39C110.962 95.99 111.662 96.47 112.462 96.83C113.282 97.17 114.162 97.34 115.102 97.34C116.042 97.34 116.922 97.17 117.742 96.83C118.562 96.47 119.262 95.99 119.842 95.39C120.442 94.77 120.912 94.04 121.252 93.2C121.592 92.36 121.762 91.46 121.762 90.5ZM128.946 101V80L133.056 79.1V86.6C133.656 86.1 134.316 85.72 135.036 85.46C135.776 85.2 136.576 85.07 137.436 85.07C139.236 85.07 140.716 85.65 141.876 86.81C143.036 87.97 143.616 89.46 143.616 91.28V101H139.506V91.88C139.506 90.9 139.206 90.11 138.606 89.51C138.026 88.91 137.246 88.61 136.266 88.61C135.586 88.61 134.966 88.75 134.406 89.03C133.866 89.29 133.416 89.67 133.056 90.17V101H128.946ZM152.765 101V85.37H156.875V86.6C157.475 86.1 158.135 85.72 158.855 85.46C159.595 85.2 160.395 85.07 161.255 85.07C163.055 85.07 164.535 85.65 165.695 86.81C166.855 87.97 167.435 89.46 167.435 91.28V101H163.325V91.88C163.325 90.9 163.025 90.11 162.425 89.51C161.845 88.91 161.065 88.61 160.085 88.61C159.405 88.61 158.785 88.75 158.225 89.03C157.685 89.29 157.235 89.67 156.875 90.17V101H152.765ZM169.828 93.2C169.828 92.06 170.038 91 170.458 90.02C170.898 89.02 171.488 88.16 172.228 87.44C172.988 86.7 173.878 86.12 174.898 85.7C175.918 85.28 177.008 85.07 178.168 85.07C179.328 85.07 180.418 85.28 181.438 85.7C182.458 86.12 183.338 86.7 184.078 87.44C184.838 88.16 185.428 89.02 185.848 90.02C186.288 91 186.508 92.06 186.508 93.2C186.508 94.34 186.288 95.41 185.848 96.41C185.428 97.39 184.838 98.24 184.078 98.96C183.338 99.68 182.458 100.25 181.438 100.67C180.418 101.09 179.328 101.3 178.168 101.3C177.008 101.3 175.918 101.09 174.898 100.67C173.878 100.25 172.988 99.68 172.228 98.96C171.488 98.24 170.898 97.39 170.458 96.41C170.038 95.41 169.828 94.34 169.828 93.2ZM178.168 97.73C179.368 97.73 180.388 97.29 181.228 96.41C182.068 95.53 182.488 94.46 182.488 93.2C182.488 91.92 182.068 90.84 181.228 89.96C180.388 89.08 179.368 88.64 178.168 88.64C176.968 88.64 175.948 89.08 175.108 89.96C174.268 90.84 173.848 91.92 173.848 93.2C173.848 94.46 174.268 95.53 175.108 96.41C175.948 97.29 176.968 97.73 178.168 97.73ZM189.454 94.7L188.944 78.89H193.114L192.604 94.7H189.454ZM191.014 101.3C190.354 101.3 189.784 101.06 189.304 100.58C188.824 100.1 188.584 99.53 188.584 98.87C188.584 98.19 188.824 97.61 189.304 97.13C189.784 96.65 190.354 96.41 191.014 96.41C191.694 96.41 192.274 96.65 192.754 97.13C193.234 97.61 193.474 98.19 193.474 98.87C193.474 99.53 193.234 100.1 192.754 100.58C192.274 101.06 191.694 101.3 191.014 101.3ZM210.676 101H206.116L201.466 80H205.936L208.786 94.25L212.896 80H216.976L221.056 94.19L223.906 80H228.226L223.576 101H219.016L214.846 86.33L210.676 101ZM243.181 99.05C242.221 99.83 241.231 100.4 240.211 100.76C239.211 101.12 238.091 101.3 236.851 101.3C235.671 101.3 234.561 101.09 233.521 100.67C232.501 100.25 231.611 99.68 230.851 98.96C230.111 98.24 229.521 97.39 229.081 96.41C228.661 95.41 228.451 94.34 228.451 93.2C228.451 92.08 228.651 91.03 229.051 90.05C229.471 89.05 230.041 88.19 230.761 87.47C231.481 86.73 232.331 86.15 233.311 85.73C234.311 85.31 235.371 85.1 236.491 85.1C237.591 85.1 238.611 85.32 239.551 85.76C240.511 86.18 241.331 86.76 242.011 87.5C242.711 88.24 243.251 89.13 243.631 90.17C244.031 91.19 244.231 92.3 244.231 93.5V94.58H232.591C232.871 95.56 233.411 96.35 234.211 96.95C235.011 97.55 235.951 97.85 237.031 97.85C237.711 97.85 238.351 97.74 238.951 97.52C239.551 97.3 240.061 96.99 240.481 96.59L243.181 99.05ZM236.401 88.49C235.461 88.49 234.651 88.78 233.971 89.36C233.291 89.92 232.821 90.68 232.561 91.64H240.211C239.951 90.72 239.471 89.97 238.771 89.39C238.091 88.79 237.301 88.49 236.401 88.49ZM259.714 101H255.754L251.464 85.37H255.364L257.944 95.48L261.064 85.37H264.514L267.604 95.48L270.184 85.37H274.024L269.704 101H265.774L262.744 91.01L259.714 101ZM289.675 99.05C288.715 99.83 287.725 100.4 286.705 100.76C285.705 101.12 284.585 101.3 283.345 101.3C282.165 101.3 281.055 101.09 280.015 100.67C278.995 100.25 278.105 99.68 277.345 98.96C276.605 98.24 276.015 97.39 275.575 96.41C275.155 95.41 274.945 94.34 274.945 93.2C274.945 92.08 275.145 91.03 275.545 90.05C275.965 89.05 276.535 88.19 277.255 87.47C277.975 86.73 278.825 86.15 279.805 85.73C280.805 85.31 281.865 85.1 282.985 85.1C284.085 85.1 285.105 85.32 286.045 85.76C287.005 86.18 287.825 86.76 288.505 87.5C289.205 88.24 289.745 89.13 290.125 90.17C290.525 91.19 290.725 92.3 290.725 93.5V94.58H279.085C279.365 95.56 279.905 96.35 280.705 96.95C281.505 97.55 282.445 97.85 283.525 97.85C284.205 97.85 284.845 97.74 285.445 97.52C286.045 97.3 286.555 96.99 286.975 96.59L289.675 99.05ZM282.895 88.49C281.955 88.49 281.145 88.78 280.465 89.36C279.785 89.92 279.315 90.68 279.055 91.64H286.705C286.445 90.72 285.965 89.97 285.265 89.39C284.585 88.79 283.795 88.49 282.895 88.49ZM293.243 101V85.37H297.353V87.08C297.853 86.4 298.453 85.89 299.153 85.55C299.873 85.19 300.663 85.01 301.523 85.01C301.923 85.03 302.253 85.07 302.513 85.13C302.793 85.17 303.033 85.25 303.233 85.37V88.97C302.933 88.83 302.603 88.73 302.243 88.67C301.883 88.59 301.513 88.55 301.133 88.55C300.333 88.55 299.593 88.75 298.913 89.15C298.253 89.55 297.733 90.13 297.353 90.89V101H293.243ZM318.708 99.05C317.748 99.83 316.758 100.4 315.738 100.76C314.738 101.12 313.618 101.3 312.378 101.3C311.198 101.3 310.088 101.09 309.048 100.67C308.028 100.25 307.138 99.68 306.378 98.96C305.638 98.24 305.048 97.39 304.608 96.41C304.188 95.41 303.978 94.34 303.978 93.2C303.978 92.08 304.178 91.03 304.578 90.05C304.998 89.05 305.568 88.19 306.288 87.47C307.008 86.73 307.858 86.15 308.838 85.73C309.838 85.31 310.898 85.1 312.018 85.1C313.118 85.1 314.138 85.32 315.078 85.76C316.038 86.18 316.858 86.76 317.538 87.5C318.238 88.24 318.778 89.13 319.158 90.17C319.558 91.19 319.758 92.3 319.758 93.5V94.58H308.118C308.398 95.56 308.938 96.35 309.738 96.95C310.538 97.55 311.478 97.85 312.558 97.85C313.238 97.85 313.878 97.74 314.478 97.52C315.078 97.3 315.588 96.99 316.008 96.59L318.708 99.05ZM311.928 88.49C310.988 88.49 310.178 88.78 309.498 89.36C308.818 89.92 308.348 90.68 308.088 91.64H315.738C315.478 90.72 314.998 89.97 314.298 89.39C313.618 88.79 312.828 88.49 311.928 88.49ZM332.301 85.37V94.46C332.301 95.46 332.591 96.26 333.171 96.86C333.771 97.46 334.561 97.76 335.541 97.76C336.241 97.76 336.861 97.63 337.401 97.37C337.961 97.09 338.421 96.7 338.781 96.2V85.37H342.891V101H338.781V99.74C338.181 100.24 337.511 100.63 336.771 100.91C336.031 101.17 335.231 101.3 334.371 101.3C332.571 101.3 331.091 100.72 329.931 99.56C328.771 98.38 328.191 96.88 328.191 95.06V85.37H332.301ZM346.095 101V85.37H350.205V86.6C350.805 86.1 351.465 85.72 352.185 85.46C352.925 85.2 353.725 85.07 354.585 85.07C356.385 85.07 357.865 85.65 359.025 86.81C360.185 87.97 360.765 89.46 360.765 91.28V101H356.655V91.88C356.655 90.9 356.355 90.11 355.755 89.51C355.175 88.91 354.395 88.61 353.415 88.61C352.735 88.61 352.115 88.75 351.555 89.03C351.015 89.29 350.565 89.67 350.205 90.17V101H346.095ZM368.828 101.27C367.148 101.27 365.778 100.83 364.718 99.95C363.658 99.05 363.128 97.89 363.128 96.47C363.128 94.99 363.698 93.83 364.838 92.99C365.978 92.15 367.548 91.73 369.548 91.73C370.188 91.73 370.828 91.78 371.468 91.88C372.108 91.98 372.738 92.13 373.358 92.33V91.22C373.358 90.32 373.078 89.64 372.518 89.18C371.958 88.72 371.138 88.49 370.058 88.49C369.398 88.49 368.678 88.6 367.898 88.82C367.138 89.02 366.268 89.34 365.288 89.78L363.788 86.75C365.008 86.19 366.188 85.77 367.328 85.49C368.488 85.21 369.628 85.07 370.748 85.07C372.848 85.07 374.478 85.58 375.638 86.6C376.818 87.6 377.408 89.02 377.408 90.86V101H373.358V99.92C372.698 100.38 371.998 100.72 371.258 100.94C370.538 101.16 369.728 101.27 368.828 101.27ZM367.058 96.38C367.058 96.98 367.318 97.46 367.838 97.82C368.358 98.16 369.048 98.33 369.908 98.33C370.588 98.33 371.208 98.25 371.768 98.09C372.348 97.91 372.878 97.66 373.358 97.34V95C372.858 94.8 372.328 94.66 371.768 94.58C371.228 94.48 370.658 94.43 370.058 94.43C369.118 94.43 368.378 94.61 367.838 94.97C367.318 95.31 367.058 95.78 367.058 96.38ZM396.958 93.2C396.958 94.32 396.748 95.37 396.328 96.35C395.908 97.33 395.338 98.18 394.618 98.9C393.898 99.62 393.038 100.19 392.038 100.61C391.058 101.01 390.008 101.21 388.888 101.21C388.108 101.21 387.348 101.1 386.608 100.88C385.868 100.66 385.188 100.35 384.568 99.95V101H380.518V80L384.628 79.1V86.6C385.248 86.14 385.928 85.79 386.668 85.55C387.428 85.29 388.208 85.16 389.008 85.16C390.108 85.16 391.138 85.37 392.098 85.79C393.078 86.21 393.928 86.78 394.648 87.5C395.368 88.22 395.928 89.07 396.328 90.05C396.748 91.03 396.958 92.08 396.958 93.2ZM388.348 88.67C387.608 88.67 386.918 88.8 386.278 89.06C385.638 89.3 385.088 89.66 384.628 90.14V96.29C385.068 96.73 385.608 97.08 386.248 97.34C386.908 97.6 387.608 97.73 388.348 97.73C389.628 97.73 390.708 97.3 391.588 96.44C392.468 95.56 392.908 94.48 392.908 93.2C392.908 91.92 392.458 90.85 391.558 89.99C390.678 89.11 389.608 88.67 388.348 88.67ZM403.584 79.1V101H399.474V80L403.584 79.1ZM420.808 99.05C419.848 99.83 418.858 100.4 417.838 100.76C416.838 101.12 415.718 101.3 414.478 101.3C413.298 101.3 412.188 101.09 411.148 100.67C410.128 100.25 409.238 99.68 408.478 98.96C407.738 98.24 407.148 97.39 406.708 96.41C406.288 95.41 406.078 94.34 406.078 93.2C406.078 92.08 406.278 91.03 406.678 90.05C407.098 89.05 407.668 88.19 408.388 87.47C409.108 86.73 409.958 86.15 410.938 85.73C411.938 85.31 412.998 85.1 414.118 85.1C415.218 85.1 416.238 85.32 417.178 85.76C418.138 86.18 418.958 86.76 419.638 87.5C420.338 88.24 420.878 89.13 421.258 90.17C421.658 91.19 421.858 92.3 421.858 93.5V94.58H410.218C410.498 95.56 411.038 96.35 411.838 96.95C412.638 97.55 413.578 97.85 414.658 97.85C415.338 97.85 415.978 97.74 416.578 97.52C417.178 97.3 417.688 96.99 418.108 96.59L420.808 99.05ZM414.028 88.49C413.088 88.49 412.278 88.78 411.598 89.36C410.918 89.92 410.448 90.68 410.188 91.64H417.838C417.578 90.72 417.098 89.97 416.398 89.39C415.718 88.79 414.928 88.49 414.028 88.49ZM432.541 96.59V88.82H429.331V85.37H432.541V81.38L436.651 80.45V85.37H441.091V88.82H436.651V95.75C436.651 96.49 436.811 97.01 437.131 97.31C437.451 97.61 438.011 97.76 438.811 97.76C439.191 97.76 439.551 97.74 439.891 97.7C440.231 97.64 440.601 97.54 441.001 97.4V100.76C440.561 100.9 440.031 101.01 439.411 101.09C438.791 101.19 438.261 101.24 437.821 101.24C436.081 101.24 434.761 100.85 433.861 100.07C432.981 99.27 432.541 98.11 432.541 96.59ZM442.259 93.2C442.259 92.06 442.469 91 442.889 90.02C443.329 89.02 443.919 88.16 444.659 87.44C445.419 86.7 446.309 86.12 447.329 85.7C448.349 85.28 449.439 85.07 450.599 85.07C451.759 85.07 452.849 85.28 453.869 85.7C454.889 86.12 455.769 86.7 456.509 87.44C457.269 88.16 457.859 89.02 458.279 90.02C458.719 91 458.939 92.06 458.939 93.2C458.939 94.34 458.719 95.41 458.279 96.41C457.859 97.39 457.269 98.24 456.509 98.96C455.769 99.68 454.889 100.25 453.869 100.67C452.849 101.09 451.759 101.3 450.599 101.3C449.439 101.3 448.349 101.09 447.329 100.67C446.309 100.25 445.419 99.68 444.659 98.96C443.919 98.24 443.329 97.39 442.889 96.41C442.469 95.41 442.259 94.34 442.259 93.2ZM450.599 97.73C451.799 97.73 452.819 97.29 453.659 96.41C454.499 95.53 454.919 94.46 454.919 93.2C454.919 91.92 454.499 90.84 453.659 89.96C452.819 89.08 451.799 88.64 450.599 88.64C449.399 88.64 448.379 89.08 447.539 89.96C446.699 90.84 446.279 91.92 446.279 93.2C446.279 94.46 446.699 95.53 447.539 96.41C448.379 97.29 449.399 97.73 450.599 97.73ZM475.151 97.7C475.851 97.7 476.501 97.56 477.101 97.28C477.721 97 478.311 96.56 478.871 95.96L481.331 98.51C480.531 99.39 479.571 100.08 478.451 100.58C477.331 101.06 476.171 101.3 474.971 101.3C473.831 101.3 472.751 101.09 471.731 100.67C470.731 100.25 469.861 99.68 469.121 98.96C468.401 98.24 467.831 97.39 467.411 96.41C466.991 95.41 466.781 94.34 466.781 93.2C466.781 92.06 466.991 91 467.411 90.02C467.831 89.02 468.401 88.16 469.121 87.44C469.861 86.7 470.731 86.12 471.731 85.7C472.751 85.28 473.831 85.07 474.971 85.07C476.211 85.07 477.401 85.32 478.541 85.82C479.681 86.3 480.651 86.98 481.451 87.86L478.931 90.53C478.371 89.91 477.771 89.44 477.131 89.12C476.491 88.8 475.801 88.64 475.061 88.64C473.881 88.64 472.881 89.08 472.061 89.96C471.261 90.84 470.861 91.92 470.861 93.2C470.861 94.48 471.271 95.55 472.091 96.41C472.931 97.27 473.951 97.7 475.151 97.7ZM482.162 93.2C482.162 92.06 482.372 91 482.792 90.02C483.232 89.02 483.822 88.16 484.562 87.44C485.322 86.7 486.212 86.12 487.232 85.7C488.252 85.28 489.342 85.07 490.502 85.07C491.662 85.07 492.752 85.28 493.772 85.7C494.792 86.12 495.672 86.7 496.412 87.44C497.172 88.16 497.762 89.02 498.182 90.02C498.622 91 498.842 92.06 498.842 93.2C498.842 94.34 498.622 95.41 498.182 96.41C497.762 97.39 497.172 98.24 496.412 98.96C495.672 99.68 494.792 100.25 493.772 100.67C492.752 101.09 491.662 101.3 490.502 101.3C489.342 101.3 488.252 101.09 487.232 100.67C486.212 100.25 485.322 99.68 484.562 98.96C483.822 98.24 483.232 97.39 482.792 96.41C482.372 95.41 482.162 94.34 482.162 93.2ZM490.502 97.73C491.702 97.73 492.722 97.29 493.562 96.41C494.402 95.53 494.822 94.46 494.822 93.2C494.822 91.92 494.402 90.84 493.562 89.96C492.722 89.08 491.702 88.64 490.502 88.64C489.302 88.64 488.282 89.08 487.442 89.96C486.602 90.84 486.182 91.92 486.182 93.2C486.182 94.46 486.602 95.53 487.442 96.41C488.282 97.29 489.302 97.73 490.502 97.73ZM501.368 101V85.37H505.478V86.6C506.078 86.1 506.738 85.72 507.458 85.46C508.198 85.2 508.998 85.07 509.858 85.07C511.658 85.07 513.138 85.65 514.298 86.81C515.458 87.97 516.038 89.46 516.038 91.28V101H511.928V91.88C511.928 90.9 511.628 90.11 511.028 89.51C510.448 88.91 509.668 88.61 508.688 88.61C508.008 88.61 507.388 88.75 506.828 89.03C506.288 89.29 505.838 89.67 505.478 90.17V101H501.368ZM519.151 101V85.37H523.261V86.6C523.861 86.1 524.521 85.72 525.241 85.46C525.981 85.2 526.781 85.07 527.641 85.07C529.441 85.07 530.921 85.65 532.081 86.81C533.241 87.97 533.821 89.46 533.821 91.28V101H529.711V91.88C529.711 90.9 529.411 90.11 528.811 89.51C528.231 88.91 527.451 88.61 526.471 88.61C525.791 88.61 525.171 88.75 524.611 89.03C524.071 89.29 523.621 89.67 523.261 90.17V101H519.151ZM550.944 99.05C549.984 99.83 548.994 100.4 547.974 100.76C546.974 101.12 545.854 101.3 544.614 101.3C543.434 101.3 542.324 101.09 541.284 100.67C540.264 100.25 539.374 99.68 538.614 98.96C537.874 98.24 537.284 97.39 536.844 96.41C536.424 95.41 536.214 94.34 536.214 93.2C536.214 92.08 536.414 91.03 536.814 90.05C537.234 89.05 537.804 88.19 538.524 87.47C539.244 86.73 540.094 86.15 541.074 85.73C542.074 85.31 543.134 85.1 544.254 85.1C545.354 85.1 546.374 85.32 547.314 85.76C548.274 86.18 549.094 86.76 549.774 87.5C550.474 88.24 551.014 89.13 551.394 90.17C551.794 91.19 551.994 92.3 551.994 93.5V94.58H540.354C540.634 95.56 541.174 96.35 541.974 96.95C542.774 97.55 543.714 97.85 544.794 97.85C545.474 97.85 546.114 97.74 546.714 97.52C547.314 97.3 547.824 96.99 548.244 96.59L550.944 99.05ZM544.164 88.49C543.224 88.49 542.414 88.78 541.734 89.36C541.054 89.92 540.584 90.68 540.324 91.64H547.974C547.714 90.72 547.234 89.97 546.534 89.39C545.854 88.79 545.064 88.49 544.164 88.49ZM562.28 97.7C562.98 97.7 563.63 97.56 564.23 97.28C564.85 97 565.44 96.56 566 95.96L568.46 98.51C567.66 99.39 566.7 100.08 565.58 100.58C564.46 101.06 563.3 101.3 562.1 101.3C560.96 101.3 559.88 101.09 558.86 100.67C557.86 100.25 556.99 99.68 556.25 98.96C555.53 98.24 554.96 97.39 554.54 96.41C554.12 95.41 553.91 94.34 553.91 93.2C553.91 92.06 554.12 91 554.54 90.02C554.96 89.02 555.53 88.16 556.25 87.44C556.99 86.7 557.86 86.12 558.86 85.7C559.88 85.28 560.96 85.07 562.1 85.07C563.34 85.07 564.53 85.32 565.67 85.82C566.81 86.3 567.78 86.98 568.58 87.86L566.06 90.53C565.5 89.91 564.9 89.44 564.26 89.12C563.62 88.8 562.93 88.64 562.19 88.64C561.01 88.64 560.01 89.08 559.19 89.96C558.39 90.84 557.99 91.92 557.99 93.2C557.99 94.48 558.4 95.55 559.22 96.41C560.06 97.27 561.08 97.7 562.28 97.7ZM573.02 96.59V88.82H569.81V85.37H573.02V81.38L577.13 80.45V85.37H581.57V88.82H577.13V95.75C577.13 96.49 577.29 97.01 577.61 97.31C577.93 97.61 578.49 97.76 579.29 97.76C579.67 97.76 580.03 97.74 580.37 97.7C580.71 97.64 581.08 97.54 581.48 97.4V100.76C581.04 100.9 580.51 101.01 579.89 101.09C579.27 101.19 578.74 101.24 578.3 101.24C576.56 101.24 575.24 100.85 574.34 100.07C573.46 99.27 573.02 98.11 573.02 96.59ZM593.87 101.72L594.11 101.15L588.02 85.37H592.55L596.42 96.02L600.86 85.37H605.3L598.1 102.23C597.3 104.11 596.37 105.45 595.31 106.25C594.25 107.05 592.87 107.45 591.17 107.45C590.81 107.45 590.46 107.43 590.12 107.39C589.8 107.37 589.54 107.33 589.34 107.27V103.73C589.54 103.77 589.75 103.8 589.97 103.82C590.19 103.84 590.46 103.85 590.78 103.85C591.52 103.85 592.14 103.67 592.64 103.31C593.16 102.95 593.57 102.42 593.87 101.72ZM605.619 93.2C605.619 92.06 605.829 91 606.249 90.02C606.689 89.02 607.279 88.16 608.019 87.44C608.779 86.7 609.669 86.12 610.689 85.7C611.709 85.28 612.799 85.07 613.959 85.07C615.119 85.07 616.209 85.28 617.229 85.7C618.249 86.12 619.129 86.7 619.869 87.44C620.629 88.16 621.219 89.02 621.639 90.02C622.079 91 622.299 92.06 622.299 93.2C622.299 94.34 622.079 95.41 621.639 96.41C621.219 97.39 620.629 98.24 619.869 98.96C619.129 99.68 618.249 100.25 617.229 100.67C616.209 101.09 615.119 101.3 613.959 101.3C612.799 101.3 611.709 101.09 610.689 100.67C609.669 100.25 608.779 99.68 608.019 98.96C607.279 98.24 606.689 97.39 606.249 96.41C605.829 95.41 605.619 94.34 605.619 93.2ZM613.959 97.73C615.159 97.73 616.179 97.29 617.019 96.41C617.859 95.53 618.279 94.46 618.279 93.2C618.279 91.92 617.859 90.84 617.019 89.96C616.179 89.08 615.159 88.64 613.959 88.64C612.759 88.64 611.739 89.08 610.899 89.96C610.059 90.84 609.639 91.92 609.639 93.2C609.639 94.46 610.059 95.53 610.899 96.41C611.739 97.29 612.759 97.73 613.959 97.73ZM628.815 85.37V94.46C628.815 95.46 629.105 96.26 629.685 96.86C630.285 97.46 631.075 97.76 632.055 97.76C632.755 97.76 633.375 97.63 633.915 97.37C634.475 97.09 634.935 96.7 635.295 96.2V85.37H639.405V101H635.295V99.74C634.695 100.24 634.025 100.63 633.285 100.91C632.545 101.17 631.745 101.3 630.885 101.3C629.085 101.3 627.605 100.72 626.445 99.56C625.285 98.38 624.705 96.88 624.705 95.06V85.37H628.815ZM650.773 96.59V88.82H647.563V85.37H650.773V81.38L654.883 80.45V85.37H659.323V88.82H654.883V95.75C654.883 96.49 655.043 97.01 655.363 97.31C655.683 97.61 656.243 97.76 657.043 97.76C657.423 97.76 657.783 97.74 658.123 97.7C658.463 97.64 658.833 97.54 659.233 97.4V100.76C658.793 100.9 658.263 101.01 657.643 101.09C657.023 101.19 656.493 101.24 656.053 101.24C654.313 101.24 652.993 100.85 652.093 100.07C651.213 99.27 650.773 98.11 650.773 96.59ZM660.492 93.2C660.492 92.06 660.702 91 661.122 90.02C661.562 89.02 662.152 88.16 662.892 87.44C663.652 86.7 664.542 86.12 665.562 85.7C666.582 85.28 667.672 85.07 668.832 85.07C669.992 85.07 671.082 85.28 672.102 85.7C673.122 86.12 674.002 86.7 674.742 87.44C675.502 88.16 676.092 89.02 676.512 90.02C676.952 91 677.172 92.06 677.172 93.2C677.172 94.34 676.952 95.41 676.512 96.41C676.092 97.39 675.502 98.24 674.742 98.96C674.002 99.68 673.122 100.25 672.102 100.67C671.082 101.09 669.992 101.3 668.832 101.3C667.672 101.3 666.582 101.09 665.562 100.67C664.542 100.25 663.652 99.68 662.892 98.96C662.152 98.24 661.562 97.39 661.122 96.41C660.702 95.41 660.492 94.34 660.492 93.2ZM668.832 97.73C670.032 97.73 671.052 97.29 671.892 96.41C672.732 95.53 673.152 94.46 673.152 93.2C673.152 91.92 672.732 90.84 671.892 89.96C671.052 89.08 670.032 88.64 668.832 88.64C667.632 88.64 666.612 89.08 665.772 89.96C664.932 90.84 664.512 91.92 664.512 93.2C664.512 94.46 664.932 95.53 665.772 96.41C666.612 97.29 667.632 97.73 668.832 97.73ZM191.809 132.59V124.82H188.599V121.37H191.809V117.38L195.919 116.45V121.37H200.359V124.82H195.919V131.75C195.919 132.49 196.079 133.01 196.399 133.31C196.719 133.61 197.279 133.76 198.079 133.76C198.459 133.76 198.819 133.74 199.159 133.7C199.499 133.64 199.869 133.54 200.269 133.4V136.76C199.829 136.9 199.299 137.01 198.679 137.09C198.059 137.19 197.529 137.24 197.089 137.24C195.349 137.24 194.029 136.85 193.129 136.07C192.249 135.27 191.809 134.11 191.809 132.59ZM202.393 137V116L206.503 115.1V122.6C207.103 122.1 207.763 121.72 208.483 121.46C209.223 121.2 210.023 121.07 210.883 121.07C212.683 121.07 214.163 121.65 215.323 122.81C216.483 123.97 217.063 125.46 217.063 127.28V137H212.953V127.88C212.953 126.9 212.653 126.11 212.053 125.51C211.473 124.91 210.693 124.61 209.713 124.61C209.033 124.61 208.413 124.75 207.853 125.03C207.313 125.29 206.863 125.67 206.503 126.17V137H202.393ZM234.187 135.05C233.227 135.83 232.237 136.4 231.217 136.76C230.217 137.12 229.097 137.3 227.857 137.3C226.677 137.3 225.567 137.09 224.527 136.67C223.507 136.25 222.617 135.68 221.857 134.96C221.117 134.24 220.527 133.39 220.087 132.41C219.667 131.41 219.457 130.34 219.457 129.2C219.457 128.08 219.657 127.03 220.057 126.05C220.477 125.05 221.047 124.19 221.767 123.47C222.487 122.73 223.337 122.15 224.317 121.73C225.317 121.31 226.377 121.1 227.497 121.1C228.597 121.1 229.617 121.32 230.557 121.76C231.517 122.18 232.337 122.76 233.017 123.5C233.717 124.24 234.257 125.13 234.637 126.17C235.037 127.19 235.237 128.3 235.237 129.5V130.58H223.597C223.877 131.56 224.417 132.35 225.217 132.95C226.017 133.55 226.957 133.85 228.037 133.85C228.717 133.85 229.357 133.74 229.957 133.52C230.557 133.3 231.067 132.99 231.487 132.59L234.187 135.05ZM227.407 124.49C226.467 124.49 225.657 124.78 224.977 125.36C224.297 125.92 223.827 126.68 223.567 127.64H231.217C230.957 126.72 230.477 125.97 229.777 125.39C229.097 124.79 228.307 124.49 227.407 124.49ZM243.79 143.27V121.37H247.84V122.66C248.46 122.16 249.15 121.79 249.91 121.55C250.67 121.29 251.46 121.16 252.28 121.16C253.38 121.16 254.41 121.37 255.37 121.79C256.35 122.21 257.2 122.78 257.92 123.5C258.64 124.22 259.2 125.07 259.6 126.05C260.02 127.03 260.23 128.08 260.23 129.2C260.23 130.32 260.02 131.37 259.6 132.35C259.18 133.33 258.61 134.18 257.89 134.9C257.17 135.62 256.31 136.19 255.31 136.61C254.33 137.01 253.28 137.21 252.16 137.21C251.4 137.21 250.65 137.11 249.91 136.91C249.19 136.69 248.52 136.38 247.9 135.98V143.27H243.79ZM251.62 124.67C250.88 124.67 250.19 124.8 249.55 125.06C248.91 125.3 248.36 125.66 247.9 126.14V132.29C248.34 132.73 248.88 133.08 249.52 133.34C250.18 133.6 250.88 133.73 251.62 133.73C252.9 133.73 253.98 133.3 254.86 132.44C255.74 131.56 256.18 130.48 256.18 129.2C256.18 127.92 255.73 126.85 254.83 125.99C253.95 125.11 252.88 124.67 251.62 124.67ZM267.841 137.27C266.161 137.27 264.791 136.83 263.731 135.95C262.671 135.05 262.141 133.89 262.141 132.47C262.141 130.99 262.711 129.83 263.851 128.99C264.991 128.15 266.561 127.73 268.561 127.73C269.201 127.73 269.841 127.78 270.481 127.88C271.121 127.98 271.751 128.13 272.371 128.33V127.22C272.371 126.32 272.091 125.64 271.531 125.18C270.971 124.72 270.151 124.49 269.071 124.49C268.411 124.49 267.691 124.6 266.911 124.82C266.151 125.02 265.281 125.34 264.301 125.78L262.801 122.75C264.021 122.19 265.201 121.77 266.341 121.49C267.501 121.21 268.641 121.07 269.761 121.07C271.861 121.07 273.491 121.58 274.651 122.6C275.831 123.6 276.421 125.02 276.421 126.86V137H272.371V135.92C271.711 136.38 271.011 136.72 270.271 136.94C269.551 137.16 268.741 137.27 267.841 137.27ZM266.071 132.38C266.071 132.98 266.331 133.46 266.851 133.82C267.371 134.16 268.061 134.33 268.921 134.33C269.601 134.33 270.221 134.25 270.781 134.09C271.361 133.91 271.891 133.66 272.371 133.34V131C271.871 130.8 271.341 130.66 270.781 130.58C270.241 130.48 269.671 130.43 269.071 130.43C268.131 130.43 267.391 130.61 266.851 130.97C266.331 131.31 266.071 131.78 266.071 132.38ZM286.732 137.09C285.632 137.09 284.592 136.88 283.612 136.46C282.652 136.04 281.812 135.47 281.092 134.75C280.392 134.03 279.832 133.19 279.412 132.23C279.012 131.25 278.812 130.2 278.812 129.08C278.812 127.98 279.022 126.95 279.442 125.99C279.862 125.01 280.432 124.16 281.152 123.44C281.872 122.72 282.722 122.16 283.702 121.76C284.682 121.34 285.732 121.13 286.852 121.13C287.632 121.13 288.372 121.24 289.072 121.46C289.792 121.68 290.462 121.99 291.082 122.39V121.37H295.132V137C295.132 139.06 294.462 140.65 293.122 141.77C291.802 142.89 289.892 143.45 287.392 143.45C286.192 143.45 285.032 143.33 283.912 143.09C282.812 142.85 281.802 142.5 280.882 142.04L282.322 138.83C283.182 139.25 284.022 139.56 284.842 139.76C285.662 139.98 286.482 140.09 287.302 140.09C288.522 140.09 289.442 139.82 290.062 139.28C290.702 138.76 291.022 137.99 291.022 136.97V135.68C290.402 136.14 289.722 136.49 288.982 136.73C288.262 136.97 287.512 137.09 286.732 137.09ZM282.862 129.08C282.862 130.34 283.292 131.41 284.152 132.29C285.032 133.17 286.102 133.61 287.362 133.61C288.102 133.61 288.782 133.49 289.402 133.25C290.022 132.99 290.562 132.64 291.022 132.2V126.05C290.582 125.61 290.042 125.27 289.402 125.03C288.762 124.77 288.092 124.64 287.392 124.64C286.132 124.64 285.062 125.07 284.182 125.93C283.302 126.79 282.862 127.84 282.862 129.08ZM312.38 135.05C311.42 135.83 310.43 136.4 309.41 136.76C308.41 137.12 307.29 137.3 306.05 137.3C304.87 137.3 303.76 137.09 302.72 136.67C301.7 136.25 300.81 135.68 300.05 134.96C299.31 134.24 298.72 133.39 298.28 132.41C297.86 131.41 297.65 130.34 297.65 129.2C297.65 128.08 297.85 127.03 298.25 126.05C298.67 125.05 299.24 124.19 299.96 123.47C300.68 122.73 301.53 122.15 302.51 121.73C303.51 121.31 304.57 121.1 305.69 121.1C306.79 121.1 307.81 121.32 308.75 121.76C309.71 122.18 310.53 122.76 311.21 123.5C311.91 124.24 312.45 125.13 312.83 126.17C313.23 127.19 313.43 128.3 313.43 129.5V130.58H301.79C302.07 131.56 302.61 132.35 303.41 132.95C304.21 133.55 305.15 133.85 306.23 133.85C306.91 133.85 307.55 133.74 308.15 133.52C308.75 133.3 309.26 132.99 309.68 132.59L312.38 135.05ZM305.6 124.49C304.66 124.49 303.85 124.78 303.17 125.36C302.49 125.92 302.02 126.68 301.76 127.64H309.41C309.15 126.72 308.67 125.97 307.97 125.39C307.29 124.79 306.5 124.49 305.6 124.49ZM326.213 137.72L326.453 137.15L320.363 121.37H324.893L328.763 132.02L333.203 121.37H337.643L330.443 138.23C329.643 140.11 328.713 141.45 327.653 142.25C326.593 143.05 325.213 143.45 323.513 143.45C323.153 143.45 322.803 143.43 322.463 143.39C322.143 143.37 321.883 143.33 321.683 143.27V139.73C321.883 139.77 322.093 139.8 322.313 139.82C322.533 139.84 322.803 139.85 323.123 139.85C323.863 139.85 324.483 139.67 324.983 139.31C325.503 138.95 325.913 138.42 326.213 137.72ZM337.963 129.2C337.963 128.06 338.173 127 338.593 126.02C339.033 125.02 339.623 124.16 340.363 123.44C341.123 122.7 342.013 122.12 343.033 121.7C344.053 121.28 345.143 121.07 346.303 121.07C347.463 121.07 348.553 121.28 349.573 121.7C350.593 122.12 351.473 122.7 352.212 123.44C352.973 124.16 353.563 125.02 353.983 126.02C354.423 127 354.643 128.06 354.643 129.2C354.643 130.34 354.423 131.41 353.983 132.41C353.563 133.39 352.973 134.24 352.212 134.96C351.473 135.68 350.593 136.25 349.573 136.67C348.553 137.09 347.463 137.3 346.303 137.3C345.143 137.3 344.053 137.09 343.033 136.67C342.013 136.25 341.123 135.68 340.363 134.96C339.623 134.24 339.033 133.39 338.593 132.41C338.173 131.41 337.963 130.34 337.963 129.2ZM346.303 133.73C347.503 133.73 348.523 133.29 349.363 132.41C350.203 131.53 350.623 130.46 350.623 129.2C350.623 127.92 350.203 126.84 349.363 125.96C348.523 125.08 347.503 124.64 346.303 124.64C345.103 124.64 344.083 125.08 343.243 125.96C342.403 126.84 341.983 127.92 341.983 129.2C341.983 130.46 342.403 131.53 343.243 132.41C344.083 133.29 345.103 133.73 346.303 133.73ZM361.159 121.37V130.46C361.159 131.46 361.449 132.26 362.029 132.86C362.629 133.46 363.419 133.76 364.399 133.76C365.099 133.76 365.719 133.63 366.259 133.37C366.819 133.09 367.279 132.7 367.639 132.2V121.37H371.749V137H367.639V135.74C367.039 136.24 366.369 136.63 365.629 136.91C364.889 137.17 364.089 137.3 363.229 137.3C361.429 137.3 359.949 136.72 358.789 135.56C357.629 134.38 357.049 132.88 357.049 131.06V121.37H361.159ZM385.937 137.27C384.257 137.27 382.887 136.83 381.827 135.95C380.767 135.05 380.237 133.89 380.237 132.47C380.237 130.99 380.807 129.83 381.947 128.99C383.087 128.15 384.657 127.73 386.657 127.73C387.297 127.73 387.937 127.78 388.577 127.88C389.217 127.98 389.847 128.13 390.467 128.33V127.22C390.467 126.32 390.187 125.64 389.627 125.18C389.067 124.72 388.247 124.49 387.167 124.49C386.507 124.49 385.787 124.6 385.007 124.82C384.247 125.02 383.377 125.34 382.397 125.78L380.897 122.75C382.117 122.19 383.297 121.77 384.437 121.49C385.597 121.21 386.737 121.07 387.857 121.07C389.957 121.07 391.587 121.58 392.747 122.6C393.927 123.6 394.517 125.02 394.517 126.86V137H390.467V135.92C389.807 136.38 389.107 136.72 388.367 136.94C387.647 137.16 386.837 137.27 385.937 137.27ZM384.167 132.38C384.167 132.98 384.427 133.46 384.947 133.82C385.467 134.16 386.157 134.33 387.017 134.33C387.697 134.33 388.317 134.25 388.877 134.09C389.457 133.91 389.987 133.66 390.467 133.34V131C389.967 130.8 389.437 130.66 388.877 130.58C388.337 130.48 387.767 130.43 387.167 130.43C386.227 130.43 385.487 130.61 384.947 130.97C384.427 131.31 384.167 131.78 384.167 132.38ZM397.628 137V121.37H401.738V123.08C402.238 122.4 402.838 121.89 403.538 121.55C404.258 121.19 405.048 121.01 405.908 121.01C406.308 121.03 406.638 121.07 406.898 121.13C407.178 121.17 407.418 121.25 407.618 121.37V124.97C407.318 124.83 406.988 124.73 406.628 124.67C406.268 124.59 405.898 124.55 405.518 124.55C404.718 124.55 403.978 124.75 403.298 125.15C402.638 125.55 402.118 126.13 401.738 126.89V137H397.628ZM423.093 135.05C422.133 135.83 421.143 136.4 420.123 136.76C419.123 137.12 418.003 137.3 416.763 137.3C415.583 137.3 414.473 137.09 413.433 136.67C412.413 136.25 411.523 135.68 410.763 134.96C410.023 134.24 409.433 133.39 408.993 132.41C408.573 131.41 408.363 130.34 408.363 129.2C408.363 128.08 408.563 127.03 408.963 126.05C409.383 125.05 409.953 124.19 410.673 123.47C411.393 122.73 412.243 122.15 413.223 121.73C414.223 121.31 415.283 121.1 416.403 121.1C417.503 121.1 418.523 121.32 419.463 121.76C420.423 122.18 421.243 122.76 421.923 123.5C422.623 124.24 423.163 125.13 423.543 126.17C423.943 127.19 424.143 128.3 424.143 129.5V130.58H412.503C412.783 131.56 413.323 132.35 414.123 132.95C414.923 133.55 415.863 133.85 416.943 133.85C417.623 133.85 418.263 133.74 418.863 133.52C419.463 133.3 419.973 132.99 420.393 132.59L423.093 135.05ZM416.313 124.49C415.373 124.49 414.563 124.78 413.883 125.36C413.203 125.92 412.733 126.68 412.473 127.64H420.123C419.863 126.72 419.383 125.97 418.683 125.39C418.003 124.79 417.213 124.49 416.313 124.49ZM436.806 115.1V137H432.696V116L436.806 115.1ZM439.3 129.2C439.3 128.06 439.51 127 439.93 126.02C440.37 125.02 440.96 124.16 441.7 123.44C442.46 122.7 443.35 122.12 444.37 121.7C445.39 121.28 446.48 121.07 447.64 121.07C448.8 121.07 449.89 121.28 450.91 121.7C451.93 122.12 452.81 122.7 453.55 123.44C454.31 124.16 454.9 125.02 455.32 126.02C455.76 127 455.98 128.06 455.98 129.2C455.98 130.34 455.76 131.41 455.32 132.41C454.9 133.39 454.31 134.24 453.55 134.96C452.81 135.68 451.93 136.25 450.91 136.67C449.89 137.09 448.8 137.3 447.64 137.3C446.48 137.3 445.39 137.09 444.37 136.67C443.35 136.25 442.46 135.68 441.7 134.96C440.96 134.24 440.37 133.39 439.93 132.41C439.51 131.41 439.3 130.34 439.3 129.2ZM447.64 133.73C448.84 133.73 449.86 133.29 450.7 132.41C451.54 131.53 451.96 130.46 451.96 129.2C451.96 127.92 451.54 126.84 450.7 125.96C449.86 125.08 448.84 124.64 447.64 124.64C446.44 124.64 445.42 125.08 444.58 125.96C443.74 126.84 443.32 127.92 443.32 129.2C443.32 130.46 443.74 131.53 444.58 132.41C445.42 133.29 446.44 133.73 447.64 133.73ZM457.904 129.2C457.904 128.06 458.114 127 458.534 126.02C458.974 125.02 459.564 124.16 460.304 123.44C461.064 122.7 461.954 122.12 462.974 121.7C463.994 121.28 465.084 121.07 466.244 121.07C467.404 121.07 468.494 121.28 469.514 121.7C470.534 122.12 471.414 122.7 472.154 123.44C472.914 124.16 473.504 125.02 473.924 126.02C474.364 127 474.584 128.06 474.584 129.2C474.584 130.34 474.364 131.41 473.924 132.41C473.504 133.39 472.914 134.24 472.154 134.96C471.414 135.68 470.534 136.25 469.514 136.67C468.494 137.09 467.404 137.3 466.244 137.3C465.084 137.3 463.994 137.09 462.974 136.67C461.954 136.25 461.064 135.68 460.304 134.96C459.564 134.24 458.974 133.39 458.534 132.41C458.114 131.41 457.904 130.34 457.904 129.2ZM466.244 133.73C467.444 133.73 468.464 133.29 469.304 132.41C470.144 131.53 470.564 130.46 470.564 129.2C470.564 127.92 470.144 126.84 469.304 125.96C468.464 125.08 467.444 124.64 466.244 124.64C465.044 124.64 464.024 125.08 463.184 125.96C462.344 126.84 461.924 127.92 461.924 129.2C461.924 130.46 462.344 131.53 463.184 132.41C464.024 133.29 465.044 133.73 466.244 133.73ZM477.11 137V116L481.22 115.1V127.97L487.97 121.37H492.62L485.3 128.54L493.07 137H487.82L481.22 129.86V137H477.11ZM496.201 119.51C495.561 119.51 495.011 119.28 494.551 118.82C494.091 118.36 493.861 117.81 493.861 117.17C493.861 116.53 494.091 115.98 494.551 115.52C495.011 115.06 495.561 114.83 496.201 114.83C496.841 114.83 497.391 115.06 497.851 115.52C498.311 115.98 498.541 116.53 498.541 117.17C498.541 117.81 498.311 118.36 497.851 118.82C497.391 119.28 496.841 119.51 496.201 119.51ZM498.271 121.37V137H494.161V121.37H498.271ZM501.485 137V121.37H505.595V122.6C506.195 122.1 506.855 121.72 507.575 121.46C508.315 121.2 509.115 121.07 509.975 121.07C511.775 121.07 513.255 121.65 514.415 122.81C515.575 123.97 516.155 125.46 516.155 127.28V137H512.045V127.88C512.045 126.9 511.745 126.11 511.145 125.51C510.565 124.91 509.785 124.61 508.805 124.61C508.125 124.61 507.505 124.75 506.945 125.03C506.405 125.29 505.955 125.67 505.595 126.17V137H501.485ZM526.468 137.09C525.368 137.09 524.328 136.88 523.348 136.46C522.388 136.04 521.548 135.47 520.828 134.75C520.128 134.03 519.568 133.19 519.148 132.23C518.748 131.25 518.548 130.2 518.548 129.08C518.548 127.98 518.758 126.95 519.178 125.99C519.598 125.01 520.168 124.16 520.888 123.44C521.608 122.72 522.458 122.16 523.438 121.76C524.418 121.34 525.468 121.13 526.588 121.13C527.368 121.13 528.108 121.24 528.808 121.46C529.528 121.68 530.198 121.99 530.818 122.39V121.37H534.868V137C534.868 139.06 534.198 140.65 532.858 141.77C531.538 142.89 529.628 143.45 527.128 143.45C525.928 143.45 524.768 143.33 523.648 143.09C522.548 142.85 521.538 142.5 520.618 142.04L522.058 138.83C522.918 139.25 523.758 139.56 524.578 139.76C525.398 139.98 526.218 140.09 527.038 140.09C528.258 140.09 529.178 139.82 529.798 139.28C530.438 138.76 530.758 137.99 530.758 136.97V135.68C530.138 136.14 529.458 136.49 528.718 136.73C527.998 136.97 527.248 137.09 526.468 137.09ZM522.598 129.08C522.598 130.34 523.028 131.41 523.888 132.29C524.768 133.17 525.838 133.61 527.098 133.61C527.838 133.61 528.518 133.49 529.138 133.25C529.758 132.99 530.298 132.64 530.758 132.2V126.05C530.318 125.61 529.778 125.27 529.138 125.03C528.498 124.77 527.828 124.64 527.128 124.64C525.868 124.64 524.798 125.07 523.918 125.93C523.038 126.79 522.598 127.84 522.598 129.08ZM543.061 121.37H546.541V119.87C546.541 118.13 547.051 116.79 548.071 115.85C549.091 114.91 550.561 114.44 552.481 114.44C552.901 114.44 553.331 114.47 553.771 114.53C554.211 114.57 554.591 114.63 554.911 114.71V118.16C554.531 118.08 554.191 118.02 553.891 117.98C553.611 117.94 553.311 117.92 552.991 117.92C552.211 117.92 551.621 118.09 551.221 118.43C550.841 118.77 550.651 119.28 550.651 119.96V121.37H554.911V124.82H550.651V137H546.541V124.82H543.061V121.37ZM555.902 129.2C555.902 128.06 556.112 127 556.532 126.02C556.972 125.02 557.562 124.16 558.302 123.44C559.062 122.7 559.952 122.12 560.972 121.7C561.992 121.28 563.082 121.07 564.242 121.07C565.402 121.07 566.492 121.28 567.512 121.7C568.532 122.12 569.412 122.7 570.152 123.44C570.912 124.16 571.502 125.02 571.922 126.02C572.362 127 572.582 128.06 572.582 129.2C572.582 130.34 572.362 131.41 571.922 132.41C571.502 133.39 570.912 134.24 570.152 134.96C569.412 135.68 568.532 136.25 567.512 136.67C566.492 137.09 565.402 137.3 564.242 137.3C563.082 137.3 561.992 137.09 560.972 136.67C559.952 136.25 559.062 135.68 558.302 134.96C557.562 134.24 556.972 133.39 556.532 132.41C556.112 131.41 555.902 130.34 555.902 129.2ZM564.242 133.73C565.442 133.73 566.462 133.29 567.302 132.41C568.142 131.53 568.562 130.46 568.562 129.2C568.562 127.92 568.142 126.84 567.302 125.96C566.462 125.08 565.442 124.64 564.242 124.64C563.042 124.64 562.022 125.08 561.182 125.96C560.342 126.84 559.922 127.92 559.922 129.2C559.922 130.46 560.342 131.53 561.182 132.41C562.022 133.29 563.042 133.73 564.242 133.73ZM575.108 137V121.37H579.218V123.08C579.718 122.4 580.318 121.89 581.018 121.55C581.738 121.19 582.528 121.01 583.388 121.01C583.788 121.03 584.118 121.07 584.378 121.13C584.658 121.17 584.898 121.25 585.098 121.37V124.97C584.798 124.83 584.468 124.73 584.108 124.67C583.748 124.59 583.378 124.55 582.998 124.55C582.198 124.55 581.458 124.75 580.778 125.15C580.118 125.55 579.598 126.13 579.218 126.89V137H575.108Z" fill="white"/>
<path d="M589.305 132.41C589.985 132.41 590.565 132.65 591.045 133.13C591.525 133.61 591.765 134.19 591.765 134.87C591.765 135.53 591.525 136.1 591.045 136.58C590.565 137.06 589.985 137.3 589.305 137.3C588.645 137.3 588.075 137.06 587.595 136.58C587.115 136.1 586.875 135.53 586.875 134.87C586.875 134.19 587.115 133.61 587.595 133.13C588.075 132.65 588.645 132.41 589.305 132.41Z" fill="#29D305"/>
<path d="M175.971 207V193H181.751C183.098 193 184.178 193.38 184.991 194.14C185.805 194.9 186.211 195.9 186.211 197.14C186.211 198.38 185.805 199.38 184.991 200.14C184.178 200.9 183.098 201.28 181.751 201.28H177.511V207H175.971ZM181.571 194.36H177.511V199.96H181.571C182.531 199.96 183.285 199.707 183.831 199.2C184.391 198.693 184.671 198.007 184.671 197.14C184.671 196.287 184.391 195.613 183.831 195.12C183.285 194.613 182.531 194.36 181.571 194.36ZM191.329 207.18C190.289 207.18 189.435 206.907 188.769 206.36C188.115 205.8 187.789 205.08 187.789 204.2C187.789 203.333 188.122 202.633 188.789 202.1C189.469 201.567 190.355 201.3 191.449 201.3C192.009 201.3 192.535 201.367 193.029 201.5C193.535 201.62 194.002 201.807 194.429 202.06V200.72C194.429 199.92 194.215 199.32 193.789 198.92C193.362 198.507 192.735 198.3 191.909 198.3C191.455 198.3 190.989 198.367 190.509 198.5C190.042 198.633 189.522 198.847 188.949 199.14L188.409 198.02C189.075 197.7 189.709 197.467 190.309 197.32C190.909 197.16 191.502 197.08 192.089 197.08C193.289 197.08 194.215 197.38 194.869 197.98C195.535 198.567 195.869 199.413 195.869 200.52V207H194.429V205.86C194.002 206.3 193.529 206.633 193.009 206.86C192.489 207.073 191.929 207.18 191.329 207.18ZM189.189 204.16C189.189 204.733 189.415 205.193 189.869 205.54C190.322 205.887 190.909 206.06 191.629 206.06C192.175 206.06 192.675 205.967 193.129 205.78C193.595 205.593 194.029 205.313 194.429 204.94V203.06C194.015 202.82 193.589 202.647 193.149 202.54C192.709 202.42 192.215 202.36 191.669 202.36C190.922 202.36 190.322 202.527 189.869 202.86C189.415 203.193 189.189 203.627 189.189 204.16ZM202.896 207.12C202.269 207.12 201.676 206.993 201.116 206.74C200.569 206.473 200.096 206.12 199.696 205.68C199.296 205.227 198.976 204.693 198.736 204.08C198.509 203.467 198.396 202.813 198.396 202.12C198.396 201.427 198.509 200.773 198.736 200.16C198.976 199.547 199.303 199.02 199.716 198.58C200.129 198.127 200.616 197.773 201.176 197.52C201.736 197.253 202.336 197.12 202.976 197.12C203.589 197.12 204.156 197.24 204.676 197.48C205.196 197.707 205.649 198.047 206.036 198.5V197.24H207.476V207.5C207.476 208.7 207.116 209.627 206.396 210.28C205.689 210.933 204.676 211.26 203.356 211.26C202.703 211.26 202.043 211.167 201.376 210.98C200.723 210.807 200.116 210.56 199.556 210.24L200.176 209.12C200.776 209.427 201.323 209.653 201.816 209.8C202.309 209.947 202.803 210.02 203.296 210.02C204.176 210.02 204.849 209.807 205.316 209.38C205.783 208.953 206.016 208.333 206.016 207.52V205.68C205.643 206.147 205.189 206.507 204.656 206.76C204.123 207 203.536 207.12 202.896 207.12ZM199.836 202.12C199.836 203.187 200.163 204.08 200.816 204.8C201.469 205.507 202.283 205.86 203.256 205.86C203.829 205.86 204.356 205.747 204.836 205.52C205.316 205.28 205.709 204.953 206.016 204.54V199.72C205.696 199.307 205.289 198.987 204.796 198.76C204.316 198.52 203.803 198.4 203.256 198.4C202.283 198.4 201.469 198.753 200.816 199.46C200.163 200.167 199.836 201.053 199.836 202.12ZM218.537 205.88C217.977 206.32 217.397 206.647 216.797 206.86C216.197 207.073 215.557 207.18 214.877 207.18C214.197 207.18 213.557 207.053 212.957 206.8C212.37 206.533 211.857 206.173 211.417 205.72C210.99 205.267 210.65 204.733 210.397 204.12C210.157 203.493 210.037 202.827 210.037 202.12C210.037 201.413 210.15 200.753 210.377 200.14C210.617 199.513 210.943 198.98 211.357 198.54C211.77 198.087 212.257 197.733 212.817 197.48C213.377 197.213 213.983 197.08 214.637 197.08C215.277 197.08 215.87 197.207 216.417 197.46C216.963 197.713 217.437 198.06 217.837 198.5C218.237 198.927 218.55 199.447 218.777 200.06C219.003 200.66 219.117 201.307 219.117 202V202.44H211.457C211.523 203.427 211.89 204.253 212.557 204.92C213.223 205.573 214.017 205.9 214.937 205.9C215.443 205.9 215.93 205.813 216.397 205.64C216.877 205.453 217.283 205.207 217.617 204.9L218.537 205.88ZM214.617 198.34C213.817 198.34 213.13 198.627 212.557 199.2C211.983 199.773 211.63 200.507 211.497 201.4H217.677C217.57 200.52 217.23 199.793 216.657 199.22C216.097 198.633 215.417 198.34 214.617 198.34ZM233.457 207V205.7C233.084 206.167 232.631 206.527 232.097 206.78C231.564 207.02 230.977 207.14 230.337 207.14C229.711 207.14 229.117 207.013 228.557 206.76C228.011 206.493 227.537 206.14 227.137 205.7C226.737 205.247 226.417 204.713 226.177 204.1C225.951 203.487 225.837 202.833 225.837 202.14C225.837 201.433 225.951 200.773 226.177 200.16C226.417 199.547 226.744 199.02 227.157 198.58C227.571 198.127 228.057 197.773 228.617 197.52C229.177 197.253 229.777 197.12 230.417 197.12C231.017 197.12 231.577 197.24 232.097 197.48C232.617 197.707 233.071 198.04 233.457 198.48V192.7L234.917 192.4V207H233.457ZM227.277 202.12C227.277 203.187 227.604 204.08 228.257 204.8C228.911 205.507 229.724 205.86 230.697 205.86C231.271 205.86 231.797 205.747 232.277 205.52C232.757 205.293 233.151 204.973 233.457 204.56V199.72C233.137 199.307 232.731 198.987 232.237 198.76C231.757 198.52 231.244 198.4 230.697 198.4C229.724 198.4 228.911 198.753 228.257 199.46C227.604 200.167 227.277 201.053 227.277 202.12ZM237.478 202.12C237.478 201.4 237.598 200.733 237.838 200.12C238.078 199.507 238.405 198.973 238.818 198.52C239.245 198.067 239.751 197.713 240.338 197.46C240.925 197.207 241.551 197.08 242.218 197.08C242.898 197.08 243.525 197.207 244.098 197.46C244.685 197.713 245.191 198.067 245.618 198.52C246.045 198.973 246.378 199.507 246.618 200.12C246.858 200.733 246.978 201.4 246.978 202.12C246.978 202.84 246.851 203.513 246.598 204.14C246.358 204.767 246.025 205.307 245.598 205.76C245.185 206.2 244.685 206.553 244.098 206.82C243.511 207.073 242.885 207.2 242.218 207.2C241.551 207.2 240.925 207.073 240.338 206.82C239.765 206.553 239.265 206.193 238.838 205.74C238.425 205.287 238.091 204.753 237.838 204.14C237.598 203.513 237.478 202.84 237.478 202.12ZM242.218 205.9C243.165 205.9 243.951 205.547 244.578 204.84C245.218 204.12 245.538 203.22 245.538 202.14C245.538 201.06 245.218 200.16 244.578 199.44C243.951 198.72 243.165 198.36 242.218 198.36C241.271 198.36 240.485 198.72 239.858 199.44C239.231 200.16 238.918 201.06 238.918 202.14C238.918 203.22 239.231 204.12 239.858 204.84C240.485 205.547 241.271 205.9 242.218 205.9ZM257.619 205.88C257.059 206.32 256.479 206.647 255.879 206.86C255.279 207.073 254.639 207.18 253.959 207.18C253.279 207.18 252.639 207.053 252.039 206.8C251.452 206.533 250.939 206.173 250.499 205.72C250.072 205.267 249.732 204.733 249.479 204.12C249.239 203.493 249.119 202.827 249.119 202.12C249.119 201.413 249.232 200.753 249.459 200.14C249.699 199.513 250.025 198.98 250.439 198.54C250.852 198.087 251.339 197.733 251.899 197.48C252.459 197.213 253.065 197.08 253.719 197.08C254.359 197.08 254.952 197.207 255.499 197.46C256.045 197.713 256.519 198.06 256.919 198.5C257.319 198.927 257.632 199.447 257.859 200.06C258.085 200.66 258.199 201.307 258.199 202V202.44H250.539C250.605 203.427 250.972 204.253 251.639 204.92C252.305 205.573 253.099 205.9 254.019 205.9C254.525 205.9 255.012 205.813 255.479 205.64C255.959 205.453 256.365 205.207 256.699 204.9L257.619 205.88ZM253.699 198.34C252.899 198.34 252.212 198.627 251.639 199.2C251.065 199.773 250.712 200.507 250.579 201.4H256.759C256.652 200.52 256.312 199.793 255.739 199.22C255.179 198.633 254.499 198.34 253.699 198.34ZM259.849 205.74L260.629 204.78C261.202 205.207 261.736 205.52 262.229 205.72C262.736 205.907 263.249 206 263.769 206C264.476 206 265.062 205.833 265.529 205.5C265.996 205.167 266.229 204.747 266.229 204.24C266.229 203.84 266.089 203.527 265.809 203.3C265.529 203.073 265.082 202.9 264.469 202.78L262.869 202.5C261.922 202.327 261.222 202.033 260.769 201.62C260.329 201.207 260.109 200.647 260.109 199.94C260.109 199.1 260.436 198.413 261.089 197.88C261.756 197.347 262.602 197.08 263.629 197.08C264.296 197.08 264.929 197.18 265.529 197.38C266.129 197.58 266.736 197.887 267.349 198.3L266.629 199.32C266.122 198.96 265.616 198.7 265.109 198.54C264.602 198.367 264.089 198.28 263.569 198.28C262.929 198.28 262.416 198.42 262.029 198.7C261.642 198.98 261.449 199.36 261.449 199.84C261.449 200.24 261.569 200.547 261.809 200.76C262.062 200.973 262.502 201.133 263.129 201.24L264.769 201.54C265.742 201.713 266.456 202.013 266.909 202.44C267.376 202.867 267.609 203.44 267.609 204.16C267.609 205 267.242 205.713 266.509 206.3C265.789 206.887 264.889 207.18 263.809 207.18C263.009 207.18 262.269 207.06 261.589 206.82C260.909 206.567 260.329 206.207 259.849 205.74ZM274.5 207V197.24H275.96V198.82C276.333 198.247 276.78 197.813 277.3 197.52C277.82 197.227 278.407 197.08 279.06 197.08C280.1 197.08 280.947 197.413 281.6 198.08C282.267 198.747 282.6 199.613 282.6 200.68V207H281.14V201.1C281.14 200.247 280.9 199.567 280.42 199.06C279.953 198.553 279.32 198.3 278.52 198.3C277.987 198.3 277.5 198.427 277.06 198.68C276.62 198.933 276.253 199.307 275.96 199.8V207H274.5ZM285.095 202.12C285.095 201.4 285.215 200.733 285.455 200.12C285.695 199.507 286.022 198.973 286.435 198.52C286.862 198.067 287.368 197.713 287.955 197.46C288.542 197.207 289.168 197.08 289.835 197.08C290.515 197.08 291.142 197.207 291.715 197.46C292.302 197.713 292.808 198.067 293.235 198.52C293.662 198.973 293.995 199.507 294.235 200.12C294.475 200.733 294.595 201.4 294.595 202.12C294.595 202.84 294.468 203.513 294.215 204.14C293.975 204.767 293.642 205.307 293.215 205.76C292.802 206.2 292.302 206.553 291.715 206.82C291.128 207.073 290.502 207.2 289.835 207.2C289.168 207.2 288.542 207.073 287.955 206.82C287.382 206.553 286.882 206.193 286.455 205.74C286.042 205.287 285.708 204.753 285.455 204.14C285.215 203.513 285.095 202.84 285.095 202.12ZM289.835 205.9C290.782 205.9 291.568 205.547 292.195 204.84C292.835 204.12 293.155 203.22 293.155 202.14C293.155 201.06 292.835 200.16 292.195 199.44C291.568 198.72 290.782 198.36 289.835 198.36C288.888 198.36 288.102 198.72 287.475 199.44C286.848 200.16 286.535 201.06 286.535 202.14C286.535 203.22 286.848 204.12 287.475 204.84C288.102 205.547 288.888 205.9 289.835 205.9ZM297.691 204.8V198.44H295.671V197.24H297.691V194.56L299.151 194.22V197.24H301.951V198.44H299.151V204.42C299.151 204.94 299.258 205.313 299.471 205.54C299.698 205.767 300.065 205.88 300.571 205.88C300.825 205.88 301.051 205.86 301.251 205.82C301.451 205.78 301.685 205.713 301.951 205.62V206.92C301.685 207.013 301.405 207.08 301.111 207.12C300.818 207.16 300.531 207.18 300.251 207.18C299.411 207.18 298.771 206.98 298.331 206.58C297.905 206.167 297.691 205.573 297.691 204.8ZM316.818 205.88C316.258 206.32 315.678 206.647 315.078 206.86C314.478 207.073 313.838 207.18 313.158 207.18C312.478 207.18 311.838 207.053 311.238 206.8C310.651 206.533 310.138 206.173 309.698 205.72C309.271 205.267 308.931 204.733 308.678 204.12C308.438 203.493 308.318 202.827 308.318 202.12C308.318 201.413 308.431 200.753 308.658 200.14C308.898 199.513 309.224 198.98 309.638 198.54C310.051 198.087 310.538 197.733 311.098 197.48C311.658 197.213 312.264 197.08 312.918 197.08C313.558 197.08 314.151 197.207 314.698 197.46C315.244 197.713 315.718 198.06 316.118 198.5C316.518 198.927 316.831 199.447 317.058 200.06C317.284 200.66 317.398 201.307 317.398 202V202.44H309.738C309.804 203.427 310.171 204.253 310.838 204.92C311.504 205.573 312.298 205.9 313.218 205.9C313.724 205.9 314.211 205.813 314.678 205.64C315.158 205.453 315.564 205.207 315.898 204.9L316.818 205.88ZM312.898 198.34C312.098 198.34 311.411 198.627 310.838 199.2C310.264 199.773 309.911 200.507 309.778 201.4H315.958C315.851 200.52 315.511 199.793 314.938 199.22C314.378 198.633 313.698 198.34 312.898 198.34ZM318.026 207L321.746 201.98L318.206 197.24H319.946L322.646 200.94L325.306 197.24H326.966L323.466 201.94L327.246 207H325.506L322.586 203.02L319.686 207H318.026ZM329.752 194.84C329.458 194.84 329.205 194.74 328.992 194.54C328.792 194.327 328.692 194.073 328.692 193.78C328.692 193.5 328.792 193.26 328.992 193.06C329.205 192.847 329.458 192.74 329.752 192.74C330.032 192.74 330.272 192.847 330.472 193.06C330.685 193.26 330.792 193.5 330.792 193.78C330.792 194.073 330.692 194.327 330.492 194.54C330.292 194.74 330.045 194.84 329.752 194.84ZM330.472 197.24V207H329.012V197.24H330.472ZM332.525 205.74L333.305 204.78C333.878 205.207 334.412 205.52 334.905 205.72C335.412 205.907 335.925 206 336.445 206C337.152 206 337.738 205.833 338.205 205.5C338.672 205.167 338.905 204.747 338.905 204.24C338.905 203.84 338.765 203.527 338.485 203.3C338.205 203.073 337.758 202.9 337.145 202.78L335.545 202.5C334.598 202.327 333.898 202.033 333.445 201.62C333.005 201.207 332.785 200.647 332.785 199.94C332.785 199.1 333.112 198.413 333.765 197.88C334.432 197.347 335.278 197.08 336.305 197.08C336.972 197.08 337.605 197.18 338.205 197.38C338.805 197.58 339.412 197.887 340.025 198.3L339.305 199.32C338.798 198.96 338.292 198.7 337.785 198.54C337.278 198.367 336.765 198.28 336.245 198.28C335.605 198.28 335.092 198.42 334.705 198.7C334.318 198.98 334.125 199.36 334.125 199.84C334.125 200.24 334.245 200.547 334.485 200.76C334.738 200.973 335.178 201.133 335.805 201.24L337.445 201.54C338.418 201.713 339.132 202.013 339.585 202.44C340.052 202.867 340.285 203.44 340.285 204.16C340.285 205 339.918 205.713 339.185 206.3C338.465 206.887 337.565 207.18 336.485 207.18C335.685 207.18 334.945 207.06 334.265 206.82C333.585 206.567 333.005 206.207 332.525 205.74ZM343.473 204.8V198.44H341.453V197.24H343.473V194.56L344.933 194.22V197.24H347.733V198.44H344.933V204.42C344.933 204.94 345.039 205.313 345.253 205.54C345.479 205.767 345.846 205.88 346.353 205.88C346.606 205.88 346.833 205.86 347.033 205.82C347.233 205.78 347.466 205.713 347.733 205.62V206.92C347.466 207.013 347.186 207.08 346.893 207.12C346.599 207.16 346.313 207.18 346.033 207.18C345.193 207.18 344.553 206.98 344.113 206.58C343.686 206.167 343.473 205.573 343.473 204.8ZM350.111 205.52H351.671L350.051 210.14H348.911L350.111 205.52ZM358.934 211.18V197.24H360.374V198.64C360.747 198.147 361.2 197.773 361.734 197.52C362.28 197.253 362.88 197.12 363.534 197.12C364.16 197.12 364.747 197.253 365.294 197.52C365.854 197.773 366.334 198.127 366.734 198.58C367.134 199.02 367.447 199.547 367.674 200.16C367.914 200.773 368.034 201.427 368.034 202.12C368.034 202.827 367.914 203.487 367.674 204.1C367.447 204.713 367.127 205.247 366.714 205.7C366.3 206.14 365.814 206.493 365.254 206.76C364.694 207.013 364.094 207.14 363.454 207.14C362.84 207.14 362.267 207.027 361.734 206.8C361.214 206.56 360.767 206.22 360.394 205.78V211.18H358.934ZM363.174 198.4C362.6 198.4 362.067 198.52 361.574 198.76C361.094 198.987 360.7 199.313 360.394 199.74V204.52C360.714 204.947 361.114 205.28 361.594 205.52C362.087 205.76 362.614 205.88 363.174 205.88C364.147 205.88 364.96 205.527 365.614 204.82C366.267 204.1 366.594 203.207 366.594 202.14C366.594 201.073 366.267 200.187 365.614 199.48C364.96 198.76 364.147 198.4 363.174 198.4ZM372.054 192.4V207H370.594V192.7L372.054 192.4ZM383.107 205.88C382.547 206.32 381.967 206.647 381.367 206.86C380.767 207.073 380.127 207.18 379.447 207.18C378.767 207.18 378.127 207.053 377.527 206.8C376.94 206.533 376.427 206.173 375.987 205.72C375.56 205.267 375.22 204.733 374.967 204.12C374.727 203.493 374.607 202.827 374.607 202.12C374.607 201.413 374.72 200.753 374.947 200.14C375.187 199.513 375.514 198.98 375.927 198.54C376.34 198.087 376.827 197.733 377.387 197.48C377.947 197.213 378.554 197.08 379.207 197.08C379.847 197.08 380.44 197.207 380.987 197.46C381.534 197.713 382.007 198.06 382.407 198.5C382.807 198.927 383.12 199.447 383.347 200.06C383.574 200.66 383.687 201.307 383.687 202V202.44H376.027C376.094 203.427 376.46 204.253 377.127 204.92C377.794 205.573 378.587 205.9 379.507 205.9C380.014 205.9 380.5 205.813 380.967 205.64C381.447 205.453 381.854 205.207 382.187 204.9L383.107 205.88ZM379.187 198.34C378.387 198.34 377.7 198.627 377.127 199.2C376.554 199.773 376.2 200.507 376.067 201.4H382.247C382.14 200.52 381.8 199.793 381.227 199.22C380.667 198.633 379.987 198.34 379.187 198.34ZM389.043 207.18C388.003 207.18 387.15 206.907 386.483 206.36C385.83 205.8 385.503 205.08 385.503 204.2C385.503 203.333 385.837 202.633 386.503 202.1C387.183 201.567 388.07 201.3 389.163 201.3C389.723 201.3 390.25 201.367 390.743 201.5C391.25 201.62 391.717 201.807 392.143 202.06V200.72C392.143 199.92 391.93 199.32 391.503 198.92C391.077 198.507 390.45 198.3 389.623 198.3C389.17 198.3 388.703 198.367 388.223 198.5C387.757 198.633 387.237 198.847 386.663 199.14L386.123 198.02C386.79 197.7 387.423 197.467 388.023 197.32C388.623 197.16 389.217 197.08 389.803 197.08C391.003 197.08 391.93 197.38 392.583 197.98C393.25 198.567 393.583 199.413 393.583 200.52V207H392.143V205.86C391.717 206.3 391.243 206.633 390.723 206.86C390.203 207.073 389.643 207.18 389.043 207.18ZM386.903 204.16C386.903 204.733 387.13 205.193 387.583 205.54C388.037 205.887 388.623 206.06 389.343 206.06C389.89 206.06 390.39 205.967 390.843 205.78C391.31 205.593 391.743 205.313 392.143 204.94V203.06C391.73 202.82 391.303 202.647 390.863 202.54C390.423 202.42 389.93 202.36 389.383 202.36C388.637 202.36 388.037 202.527 387.583 202.86C387.13 203.193 386.903 203.627 386.903 204.16ZM395.611 205.74L396.391 204.78C396.964 205.207 397.497 205.52 397.991 205.72C398.497 205.907 399.011 206 399.531 206C400.237 206 400.824 205.833 401.291 205.5C401.757 205.167 401.991 204.747 401.991 204.24C401.991 203.84 401.851 203.527 401.571 203.3C401.291 203.073 400.844 202.9 400.231 202.78L398.631 202.5C397.684 202.327 396.984 202.033 396.531 201.62C396.091 201.207 395.871 200.647 395.871 199.94C395.871 199.1 396.197 198.413 396.851 197.88C397.517 197.347 398.364 197.08 399.391 197.08C400.057 197.08 400.691 197.18 401.291 197.38C401.891 197.58 402.497 197.887 403.111 198.3L402.391 199.32C401.884 198.96 401.377 198.7 400.871 198.54C400.364 198.367 399.851 198.28 399.331 198.28C398.691 198.28 398.177 198.42 397.791 198.7C397.404 198.98 397.211 199.36 397.211 199.84C397.211 200.24 397.331 200.547 397.571 200.76C397.824 200.973 398.264 201.133 398.891 201.24L400.531 201.54C401.504 201.713 402.217 202.013 402.671 202.44C403.137 202.867 403.371 203.44 403.371 204.16C403.371 205 403.004 205.713 402.271 206.3C401.551 206.887 400.651 207.18 399.571 207.18C398.771 207.18 398.031 207.06 397.351 206.82C396.671 206.567 396.091 206.207 395.611 205.74ZM413.751 205.88C413.191 206.32 412.611 206.647 412.011 206.86C411.411 207.073 410.771 207.18 410.091 207.18C409.411 207.18 408.771 207.053 408.171 206.8C407.585 206.533 407.071 206.173 406.631 205.72C406.205 205.267 405.865 204.733 405.611 204.12C405.371 203.493 405.251 202.827 405.251 202.12C405.251 201.413 405.365 200.753 405.591 200.14C405.831 199.513 406.158 198.98 406.571 198.54C406.985 198.087 407.471 197.733 408.031 197.48C408.591 197.213 409.198 197.08 409.851 197.08C410.491 197.08 411.085 197.207 411.631 197.46C412.178 197.713 412.651 198.06 413.051 198.5C413.451 198.927 413.765 199.447 413.991 200.06C414.218 200.66 414.331 201.307 414.331 202V202.44H406.671C406.738 203.427 407.105 204.253 407.771 204.92C408.438 205.573 409.231 205.9 410.151 205.9C410.658 205.9 411.145 205.813 411.611 205.64C412.091 205.453 412.498 205.207 412.831 204.9L413.751 205.88ZM409.831 198.34C409.031 198.34 408.345 198.627 407.771 199.2C407.198 199.773 406.845 200.507 406.711 201.4H412.891C412.785 200.52 412.445 199.793 411.871 199.22C411.311 198.633 410.631 198.34 409.831 198.34ZM422.652 204.8V198.44H420.632V197.24H422.652V194.56L424.112 194.22V197.24H426.912V198.44H424.112V204.42C424.112 204.94 424.219 205.313 424.432 205.54C424.659 205.767 425.026 205.88 425.532 205.88C425.786 205.88 426.012 205.86 426.212 205.82C426.412 205.78 426.646 205.713 426.912 205.62V206.92C426.646 207.013 426.366 207.08 426.072 207.12C425.779 207.16 425.492 207.18 425.212 207.18C424.372 207.18 423.732 206.98 423.292 206.58C422.866 206.167 422.652 205.573 422.652 204.8ZM429.051 207V197.24H430.511V199.22C430.764 198.54 431.124 198.013 431.591 197.64C432.071 197.253 432.617 197.06 433.231 197.06C433.404 197.06 433.564 197.073 433.711 197.1C433.857 197.113 434.004 197.147 434.151 197.2V198.52C433.991 198.467 433.817 198.427 433.631 198.4C433.457 198.36 433.291 198.34 433.131 198.34C432.531 198.34 432.004 198.513 431.551 198.86C431.111 199.207 430.764 199.693 430.511 200.32V207H429.051ZM438.197 208.56L438.837 206.98L435.077 197.24H436.697L439.657 205.26L442.797 197.24H444.417L439.577 209C439.271 209.787 438.904 210.34 438.477 210.66C438.064 210.993 437.497 211.16 436.777 211.16C436.644 211.16 436.497 211.147 436.337 211.12C436.177 211.107 436.011 211.073 435.837 211.02V209.72C436.037 209.76 436.191 209.78 436.297 209.78C436.417 209.793 436.531 209.8 436.637 209.8C437.011 209.8 437.317 209.7 437.557 209.5C437.811 209.313 438.024 209 438.197 208.56ZM453.926 207.18C452.886 207.18 452.033 206.907 451.366 206.36C450.713 205.8 450.386 205.08 450.386 204.2C450.386 203.333 450.72 202.633 451.386 202.1C452.066 201.567 452.953 201.3 454.046 201.3C454.606 201.3 455.133 201.367 455.626 201.5C456.133 201.62 456.6 201.807 457.026 202.06V200.72C457.026 199.92 456.813 199.32 456.386 198.92C455.96 198.507 455.333 198.3 454.506 198.3C454.053 198.3 453.586 198.367 453.106 198.5C452.64 198.633 452.12 198.847 451.546 199.14L451.006 198.02C451.673 197.7 452.306 197.467 452.906 197.32C453.506 197.16 454.1 197.08 454.686 197.08C455.886 197.08 456.813 197.38 457.466 197.98C458.133 198.567 458.466 199.413 458.466 200.52V207H457.026V205.86C456.6 206.3 456.126 206.633 455.606 206.86C455.086 207.073 454.526 207.18 453.926 207.18ZM451.786 204.16C451.786 204.733 452.013 205.193 452.466 205.54C452.92 205.887 453.506 206.06 454.226 206.06C454.773 206.06 455.273 205.967 455.726 205.78C456.193 205.593 456.626 205.313 457.026 204.94V203.06C456.613 202.82 456.186 202.647 455.746 202.54C455.306 202.42 454.813 202.36 454.266 202.36C453.52 202.36 452.92 202.527 452.466 202.86C452.013 203.193 451.786 203.627 451.786 204.16ZM465.494 207.12C464.867 207.12 464.274 206.993 463.714 206.74C463.167 206.473 462.694 206.12 462.294 205.68C461.894 205.227 461.574 204.693 461.334 204.08C461.107 203.467 460.994 202.813 460.994 202.12C460.994 201.427 461.107 200.773 461.334 200.16C461.574 199.547 461.9 199.02 462.314 198.58C462.727 198.127 463.214 197.773 463.774 197.52C464.334 197.253 464.934 197.12 465.574 197.12C466.187 197.12 466.754 197.24 467.274 197.48C467.794 197.707 468.247 198.047 468.634 198.5V197.24H470.074V207.5C470.074 208.7 469.714 209.627 468.994 210.28C468.287 210.933 467.274 211.26 465.954 211.26C465.3 211.26 464.64 211.167 463.974 210.98C463.32 210.807 462.714 210.56 462.154 210.24L462.774 209.12C463.374 209.427 463.92 209.653 464.414 209.8C464.907 209.947 465.4 210.02 465.894 210.02C466.774 210.02 467.447 209.807 467.914 209.38C468.38 208.953 468.614 208.333 468.614 207.52V205.68C468.24 206.147 467.787 206.507 467.254 206.76C466.72 207 466.134 207.12 465.494 207.12ZM462.434 202.12C462.434 203.187 462.76 204.08 463.414 204.8C464.067 205.507 464.88 205.86 465.854 205.86C466.427 205.86 466.954 205.747 467.434 205.52C467.914 205.28 468.307 204.953 468.614 204.54V199.72C468.294 199.307 467.887 198.987 467.394 198.76C466.914 198.52 466.4 198.4 465.854 198.4C464.88 198.4 464.067 198.753 463.414 199.46C462.76 200.167 462.434 201.053 462.434 202.12ZM476.094 207.18C475.054 207.18 474.201 206.907 473.534 206.36C472.881 205.8 472.554 205.08 472.554 204.2C472.554 203.333 472.888 202.633 473.554 202.1C474.234 201.567 475.121 201.3 476.214 201.3C476.774 201.3 477.301 201.367 477.794 201.5C478.301 201.62 478.768 201.807 479.194 202.06V200.72C479.194 199.92 478.981 199.32 478.554 198.92C478.128 198.507 477.501 198.3 476.674 198.3C476.221 198.3 475.754 198.367 475.274 198.5C474.808 198.633 474.288 198.847 473.714 199.14L473.174 198.02C473.841 197.7 474.474 197.467 475.074 197.32C475.674 197.16 476.268 197.08 476.854 197.08C478.054 197.08 478.981 197.38 479.634 197.98C480.301 198.567 480.634 199.413 480.634 200.52V207H479.194V205.86C478.768 206.3 478.294 206.633 477.774 206.86C477.254 207.073 476.694 207.18 476.094 207.18ZM473.954 204.16C473.954 204.733 474.181 205.193 474.634 205.54C475.088 205.887 475.674 206.06 476.394 206.06C476.941 206.06 477.441 205.967 477.894 205.78C478.361 205.593 478.794 205.313 479.194 204.94V203.06C478.781 202.82 478.354 202.647 477.914 202.54C477.474 202.42 476.981 202.36 476.434 202.36C475.688 202.36 475.088 202.527 474.634 202.86C474.181 203.193 473.954 203.627 473.954 204.16ZM484.342 194.84C484.048 194.84 483.795 194.74 483.582 194.54C483.382 194.327 483.282 194.073 483.282 193.78C483.282 193.5 483.382 193.26 483.582 193.06C483.795 192.847 484.048 192.74 484.342 192.74C484.622 192.74 484.862 192.847 485.062 193.06C485.275 193.26 485.382 193.5 485.382 193.78C485.382 194.073 485.282 194.327 485.082 194.54C484.882 194.74 484.635 194.84 484.342 194.84ZM485.062 197.24V207H483.602V197.24H485.062ZM488.055 207V197.24H489.515V198.82C489.888 198.247 490.335 197.813 490.855 197.52C491.375 197.227 491.961 197.08 492.615 197.08C493.655 197.08 494.501 197.413 495.155 198.08C495.821 198.747 496.155 199.613 496.155 200.68V207H494.695V201.1C494.695 200.247 494.455 199.567 493.975 199.06C493.508 198.553 492.875 198.3 492.075 198.3C491.541 198.3 491.055 198.427 490.615 198.68C490.175 198.933 489.808 199.307 489.515 199.8V207H488.055ZM504.498 194.84C504.204 194.84 503.951 194.74 503.738 194.54C503.538 194.327 503.438 194.073 503.438 193.78C503.438 193.5 503.538 193.26 503.738 193.06C503.951 192.847 504.204 192.74 504.498 192.74C504.778 192.74 505.018 192.847 505.218 193.06C505.431 193.26 505.538 193.5 505.538 193.78C505.538 194.073 505.438 194.327 505.238 194.54C505.038 194.74 504.791 194.84 504.498 194.84ZM505.218 197.24V207H503.758V197.24H505.218ZM508.211 207V197.24H509.671V198.82C510.044 198.247 510.491 197.813 511.011 197.52C511.531 197.227 512.118 197.08 512.771 197.08C513.811 197.08 514.658 197.413 515.311 198.08C515.978 198.747 516.311 199.613 516.311 200.68V207H514.851V201.1C514.851 200.247 514.611 199.567 514.131 199.06C513.664 198.553 513.031 198.3 512.231 198.3C511.698 198.3 511.211 198.427 510.771 198.68C510.331 198.933 509.964 199.307 509.671 199.8V207H508.211ZM525.074 204.8V198.44H523.054V197.24H525.074V194.56L526.534 194.22V197.24H529.334V198.44H526.534V204.42C526.534 204.94 526.641 205.313 526.854 205.54C527.081 205.767 527.447 205.88 527.954 205.88C528.207 205.88 528.434 205.86 528.634 205.82C528.834 205.78 529.067 205.713 529.334 205.62V206.92C529.067 207.013 528.787 207.08 528.494 207.12C528.201 207.16 527.914 207.18 527.634 207.18C526.794 207.18 526.154 206.98 525.714 206.58C525.287 206.167 525.074 205.573 525.074 204.8ZM531.473 207V192.7L532.933 192.4V198.82C533.306 198.247 533.753 197.813 534.273 197.52C534.793 197.227 535.379 197.08 536.033 197.08C537.073 197.08 537.919 197.413 538.573 198.08C539.239 198.747 539.573 199.613 539.573 200.68V207H538.113V201.1C538.113 200.247 537.873 199.567 537.393 199.06C536.926 198.553 536.293 198.3 535.493 198.3C534.959 198.3 534.473 198.427 534.033 198.68C533.593 198.933 533.226 199.307 532.933 199.8V207H531.473ZM550.568 205.88C550.008 206.32 549.428 206.647 548.828 206.86C548.228 207.073 547.588 207.18 546.908 207.18C546.228 207.18 545.588 207.053 544.988 206.8C544.401 206.533 543.888 206.173 543.448 205.72C543.021 205.267 542.681 204.733 542.428 204.12C542.188 203.493 542.068 202.827 542.068 202.12C542.068 201.413 542.181 200.753 542.408 200.14C542.648 199.513 542.974 198.98 543.388 198.54C543.801 198.087 544.288 197.733 544.848 197.48C545.408 197.213 546.014 197.08 546.668 197.08C547.308 197.08 547.901 197.207 548.448 197.46C548.994 197.713 549.468 198.06 549.868 198.5C550.268 198.927 550.581 199.447 550.808 200.06C551.034 200.66 551.148 201.307 551.148 202V202.44H543.488C543.554 203.427 543.921 204.253 544.588 204.92C545.254 205.573 546.048 205.9 546.968 205.9C547.474 205.9 547.961 205.813 548.428 205.64C548.908 205.453 549.314 205.207 549.648 204.9L550.568 205.88ZM546.648 198.34C545.848 198.34 545.161 198.627 544.588 199.2C544.014 199.773 543.661 200.507 543.528 201.4H549.708C549.601 200.52 549.261 199.793 548.688 199.22C548.128 198.633 547.448 198.34 546.648 198.34ZM558.309 207V197.24H559.769V198.76C560.142 198.2 560.569 197.78 561.049 197.5C561.529 197.22 562.069 197.08 562.669 197.08C563.349 197.08 563.949 197.253 564.469 197.6C565.002 197.947 565.402 198.407 565.669 198.98C566.042 198.353 566.502 197.88 567.049 197.56C567.595 197.24 568.222 197.08 568.929 197.08C569.902 197.08 570.695 197.42 571.309 198.1C571.935 198.767 572.249 199.633 572.249 200.7V207H570.789V201.06C570.789 200.22 570.569 199.553 570.129 199.06C569.702 198.553 569.122 198.3 568.389 198.3C567.882 198.3 567.422 198.427 567.009 198.68C566.595 198.933 566.242 199.32 565.949 199.84C565.975 199.973 565.995 200.113 566.009 200.26C566.022 200.407 566.029 200.553 566.029 200.7V207H564.569V201.06C564.569 200.22 564.349 199.553 563.909 199.06C563.469 198.553 562.882 198.3 562.149 198.3C561.655 198.3 561.209 198.42 560.809 198.66C560.409 198.9 560.062 199.26 559.769 199.74V207H558.309ZM583.263 205.88C582.703 206.32 582.123 206.647 581.523 206.86C580.923 207.073 580.283 207.18 579.603 207.18C578.923 207.18 578.283 207.053 577.683 206.8C577.096 206.533 576.583 206.173 576.143 205.72C575.716 205.267 575.376 204.733 575.123 204.12C574.883 203.493 574.763 202.827 574.763 202.12C574.763 201.413 574.876 200.753 575.103 200.14C575.343 199.513 575.67 198.98 576.083 198.54C576.496 198.087 576.983 197.733 577.543 197.48C578.103 197.213 578.71 197.08 579.363 197.08C580.003 197.08 580.596 197.207 581.143 197.46C581.69 197.713 582.163 198.06 582.563 198.5C582.963 198.927 583.276 199.447 583.503 200.06C583.73 200.66 583.843 201.307 583.843 202V202.44H576.183C576.25 203.427 576.616 204.253 577.283 204.92C577.95 205.573 578.743 205.9 579.663 205.9C580.17 205.9 580.656 205.813 581.123 205.64C581.603 205.453 582.01 205.207 582.343 204.9L583.263 205.88ZM579.343 198.34C578.543 198.34 577.856 198.627 577.283 199.2C576.71 199.773 576.356 200.507 576.223 201.4H582.403C582.296 200.52 581.956 199.793 581.383 199.22C580.823 198.633 580.143 198.34 579.343 198.34ZM586.336 207V197.24H587.796V198.82C588.169 198.247 588.616 197.813 589.136 197.52C589.656 197.227 590.243 197.08 590.896 197.08C591.936 197.08 592.783 197.413 593.436 198.08C594.103 198.747 594.436 199.613 594.436 200.68V207H592.976V201.1C592.976 200.247 592.736 199.567 592.256 199.06C591.789 198.553 591.156 198.3 590.356 198.3C589.823 198.3 589.336 198.427 588.896 198.68C588.456 198.933 588.089 199.307 587.796 199.8V207H586.336ZM598.693 197.24V203.12C598.693 203.987 598.927 204.673 599.393 205.18C599.86 205.687 600.493 205.94 601.293 205.94C601.827 205.94 602.313 205.813 602.753 205.56C603.193 205.307 603.56 204.94 603.853 204.46V197.24H605.313V207H603.853V205.42C603.48 205.993 603.033 206.427 602.513 206.72C601.993 207.013 601.407 207.16 600.753 207.16C599.713 207.16 598.86 206.827 598.193 206.16C597.54 205.48 597.213 204.607 597.213 203.54V197.24H598.693Z" fill="white"/>
<path d="M310 574.75C310 574.06 310.56 573.5 311.25 573.5H469.75C470.44 573.5 471 574.06 471 574.75V574.75C471 575.44 470.44 576 469.75 576H311.25C310.56 576 310 575.44 310 574.75V574.75Z" fill="white"/>
<path d="M311.134 556.4H317.056C318.316 556.4 319.342 556.724 320.134 557.372C320.926 558.008 321.322 558.836 321.322 559.856C321.322 560.408 321.184 560.912 320.908 561.368C320.632 561.824 320.254 562.202 319.774 562.502C320.374 562.79 320.854 563.186 321.214 563.69C321.574 564.182 321.754 564.734 321.754 565.346C321.754 566.438 321.346 567.32 320.53 567.992C319.726 568.664 318.664 569 317.344 569H311.134V556.4ZM316.894 558.56H313.744V561.548H316.894C317.446 561.548 317.89 561.416 318.226 561.152C318.562 560.876 318.73 560.51 318.73 560.054C318.73 559.598 318.562 559.238 318.226 558.974C317.89 558.698 317.446 558.56 316.894 558.56ZM317.146 566.84C317.746 566.84 318.226 566.696 318.586 566.408C318.946 566.108 319.126 565.706 319.126 565.202C319.126 564.722 318.946 564.332 318.586 564.032C318.226 563.732 317.746 563.582 317.146 563.582H313.744V566.84H317.146ZM326.387 569.162C325.379 569.162 324.557 568.898 323.921 568.37C323.285 567.83 322.967 567.134 322.967 566.282C322.967 565.394 323.309 564.698 323.993 564.194C324.677 563.69 325.619 563.438 326.819 563.438C327.203 563.438 327.587 563.468 327.971 563.528C328.355 563.588 328.733 563.678 329.105 563.798V563.132C329.105 562.592 328.937 562.184 328.601 561.908C328.265 561.632 327.773 561.494 327.125 561.494C326.729 561.494 326.297 561.56 325.829 561.692C325.373 561.812 324.851 562.004 324.263 562.268L323.363 560.45C324.095 560.114 324.803 559.862 325.487 559.694C326.183 559.526 326.867 559.442 327.539 559.442C328.799 559.442 329.777 559.748 330.473 560.36C331.181 560.96 331.535 561.812 331.535 562.916V569H329.105V568.352C328.709 568.628 328.289 568.832 327.845 568.964C327.413 569.096 326.927 569.162 326.387 569.162ZM325.325 566.228C325.325 566.588 325.481 566.876 325.793 567.092C326.105 567.296 326.519 567.398 327.035 567.398C327.443 567.398 327.815 567.35 328.151 567.254C328.499 567.146 328.817 566.996 329.105 566.804V565.4C328.805 565.28 328.487 565.196 328.151 565.148C327.827 565.088 327.485 565.058 327.125 565.058C326.561 565.058 326.117 565.166 325.793 565.382C325.481 565.586 325.325 565.868 325.325 566.228ZM337.992 567.02C338.412 567.02 338.802 566.936 339.162 566.768C339.534 566.6 339.888 566.336 340.224 565.976L341.7 567.506C341.22 568.034 340.644 568.448 339.972 568.748C339.3 569.036 338.604 569.18 337.884 569.18C337.2 569.18 336.552 569.054 335.94 568.802C335.34 568.55 334.818 568.208 334.374 567.776C333.942 567.344 333.6 566.834 333.348 566.246C333.096 565.646 332.97 565.004 332.97 564.32C332.97 563.636 333.096 563 333.348 562.412C333.6 561.812 333.942 561.296 334.374 560.864C334.818 560.42 335.34 560.072 335.94 559.82C336.552 559.568 337.2 559.442 337.884 559.442C338.628 559.442 339.342 559.592 340.026 559.892C340.71 560.18 341.292 560.588 341.772 561.116L340.26 562.718C339.924 562.346 339.564 562.064 339.18 561.872C338.796 561.68 338.382 561.584 337.938 561.584C337.23 561.584 336.63 561.848 336.138 562.376C335.658 562.904 335.418 563.552 335.418 564.32C335.418 565.088 335.664 565.73 336.156 566.246C336.66 566.762 337.272 567.02 337.992 567.02ZM342.982 569V556.4L345.448 555.86V563.582L349.498 559.622H352.288L347.896 563.924L352.558 569H349.408L345.448 564.716V569H342.982ZM358.111 566.354V561.692H356.185V559.622H358.111V557.228L360.577 556.67V559.622H363.241V561.692H360.577V565.85C360.577 566.294 360.673 566.606 360.865 566.786C361.057 566.966 361.393 567.056 361.873 567.056C362.101 567.056 362.317 567.044 362.521 567.02C362.725 566.984 362.947 566.924 363.187 566.84V568.856C362.923 568.94 362.605 569.006 362.233 569.054C361.861 569.114 361.543 569.144 361.279 569.144C360.235 569.144 359.443 568.91 358.903 568.442C358.375 567.962 358.111 567.266 358.111 566.354ZM363.942 564.32C363.942 563.636 364.068 563 364.32 562.412C364.584 561.812 364.938 561.296 365.382 560.864C365.838 560.42 366.372 560.072 366.984 559.82C367.596 559.568 368.25 559.442 368.946 559.442C369.642 559.442 370.296 559.568 370.908 559.82C371.52 560.072 372.048 560.42 372.492 560.864C372.948 561.296 373.302 561.812 373.554 562.412C373.818 563 373.95 563.636 373.95 564.32C373.95 565.004 373.818 565.646 373.554 566.246C373.302 566.834 372.948 567.344 372.492 567.776C372.048 568.208 371.52 568.55 370.908 568.802C370.296 569.054 369.642 569.18 368.946 569.18C368.25 569.18 367.596 569.054 366.984 568.802C366.372 568.55 365.838 568.208 365.382 567.776C364.938 567.344 364.584 566.834 364.32 566.246C364.068 565.646 363.942 565.004 363.942 564.32ZM368.946 567.038C369.666 567.038 370.278 566.774 370.782 566.246C371.286 565.718 371.538 565.076 371.538 564.32C371.538 563.552 371.286 562.904 370.782 562.376C370.278 561.848 369.666 561.584 368.946 561.584C368.226 561.584 367.614 561.848 367.11 562.376C366.606 562.904 366.354 563.552 366.354 564.32C366.354 565.076 366.606 565.718 367.11 566.246C367.614 566.774 368.226 567.038 368.946 567.038ZM379.087 569V556.4L381.553 555.86V560.36C381.913 560.06 382.309 559.832 382.741 559.676C383.185 559.52 383.665 559.442 384.181 559.442C385.261 559.442 386.149 559.79 386.845 560.486C387.541 561.182 387.889 562.076 387.889 563.168V569H385.423V563.528C385.423 562.94 385.243 562.466 384.883 562.106C384.535 561.746 384.067 561.566 383.479 561.566C383.071 561.566 382.699 561.65 382.363 561.818C382.039 561.974 381.769 562.202 381.553 562.502V569H379.087ZM389.325 564.32C389.325 563.636 389.451 563 389.703 562.412C389.967 561.812 390.321 561.296 390.765 560.864C391.221 560.42 391.755 560.072 392.367 559.82C392.979 559.568 393.633 559.442 394.329 559.442C395.025 559.442 395.679 559.568 396.291 559.82C396.903 560.072 397.431 560.42 397.875 560.864C398.331 561.296 398.685 561.812 398.937 562.412C399.201 563 399.333 563.636 399.333 564.32C399.333 565.004 399.201 565.646 398.937 566.246C398.685 566.834 398.331 567.344 397.875 567.776C397.431 568.208 396.903 568.55 396.291 568.802C395.679 569.054 395.025 569.18 394.329 569.18C393.633 569.18 392.979 569.054 392.367 568.802C391.755 568.55 391.221 568.208 390.765 567.776C390.321 567.344 389.967 566.834 389.703 566.246C389.451 565.646 389.325 565.004 389.325 564.32ZM394.329 567.038C395.049 567.038 395.661 566.774 396.165 566.246C396.669 565.718 396.921 565.076 396.921 564.32C396.921 563.552 396.669 562.904 396.165 562.376C395.661 561.848 395.049 561.584 394.329 561.584C393.609 561.584 392.997 561.848 392.493 562.376C391.989 562.904 391.737 563.552 391.737 564.32C391.737 565.076 391.989 565.718 392.493 566.246C392.997 566.774 393.609 567.038 394.329 567.038ZM400.849 569V559.622H403.315V560.324C403.651 560.036 404.023 559.82 404.431 559.676C404.839 559.52 405.283 559.442 405.763 559.442C406.363 559.442 406.903 559.568 407.383 559.82C407.875 560.06 408.277 560.402 408.589 560.846C408.961 560.39 409.411 560.042 409.939 559.802C410.467 559.562 411.049 559.442 411.685 559.442C412.729 559.442 413.587 559.79 414.259 560.486C414.931 561.182 415.267 562.076 415.267 563.168V569H412.801V563.528C412.801 562.94 412.639 562.466 412.315 562.106C412.003 561.746 411.577 561.566 411.037 561.566C410.665 561.566 410.323 561.65 410.011 561.818C409.711 561.974 409.453 562.202 409.237 562.502C409.249 562.61 409.261 562.718 409.273 562.826C409.285 562.934 409.291 563.048 409.291 563.168V569H406.825V563.528C406.825 562.94 406.663 562.466 406.339 562.106C406.027 561.746 405.601 561.566 405.061 561.566C404.689 561.566 404.359 561.638 404.071 561.782C403.783 561.926 403.531 562.136 403.315 562.412V569H400.849ZM425.567 567.83C424.991 568.298 424.397 568.64 423.785 568.856C423.185 569.072 422.513 569.18 421.769 569.18C421.061 569.18 420.395 569.054 419.771 568.802C419.159 568.55 418.625 568.208 418.169 567.776C417.725 567.344 417.371 566.834 417.107 566.246C416.855 565.646 416.729 565.004 416.729 564.32C416.729 563.648 416.849 563.018 417.089 562.43C417.341 561.83 417.683 561.314 418.115 560.882C418.547 560.438 419.057 560.09 419.645 559.838C420.245 559.586 420.881 559.46 421.553 559.46C422.213 559.46 422.825 559.592 423.389 559.856C423.965 560.108 424.457 560.456 424.865 560.9C425.285 561.344 425.609 561.878 425.837 562.502C426.077 563.114 426.197 563.78 426.197 564.5V565.148H419.213C419.381 565.736 419.705 566.21 420.185 566.57C420.665 566.93 421.229 567.11 421.877 567.11C422.285 567.11 422.669 567.044 423.029 566.912C423.389 566.78 423.695 566.594 423.947 566.354L425.567 567.83ZM421.499 561.494C420.935 561.494 420.449 561.668 420.041 562.016C419.633 562.352 419.351 562.808 419.195 563.384H423.785C423.629 562.832 423.341 562.382 422.921 562.034C422.513 561.674 422.039 561.494 421.499 561.494ZM427.708 572.762V559.622H430.138V560.396C430.51 560.096 430.924 559.874 431.38 559.73C431.836 559.574 432.31 559.496 432.802 559.496C433.462 559.496 434.08 559.622 434.656 559.874C435.244 560.126 435.754 560.468 436.186 560.9C436.618 561.332 436.954 561.842 437.194 562.43C437.446 563.018 437.572 563.648 437.572 564.32C437.572 564.992 437.446 565.622 437.194 566.21C436.942 566.798 436.6 567.308 436.168 567.74C435.736 568.172 435.22 568.514 434.62 568.766C434.032 569.006 433.402 569.126 432.73 569.126C432.274 569.126 431.824 569.066 431.38 568.946C430.948 568.814 430.546 568.628 430.174 568.388V572.762H427.708ZM432.406 561.602C431.962 561.602 431.548 561.68 431.164 561.836C430.78 561.98 430.45 562.196 430.174 562.484V566.174C430.438 566.438 430.762 566.648 431.146 566.804C431.542 566.96 431.962 567.038 432.406 567.038C433.174 567.038 433.822 566.78 434.35 566.264C434.878 565.736 435.142 565.088 435.142 564.32C435.142 563.552 434.872 562.91 434.332 562.394C433.804 561.866 433.162 561.602 432.406 561.602ZM442.139 569.162C441.131 569.162 440.309 568.898 439.673 568.37C439.037 567.83 438.719 567.134 438.719 566.282C438.719 565.394 439.061 564.698 439.745 564.194C440.429 563.69 441.371 563.438 442.571 563.438C442.955 563.438 443.339 563.468 443.723 563.528C444.107 563.588 444.485 563.678 444.857 563.798V563.132C444.857 562.592 444.689 562.184 444.353 561.908C444.017 561.632 443.525 561.494 442.877 561.494C442.481 561.494 442.049 561.56 441.581 561.692C441.125 561.812 440.603 562.004 440.015 562.268L439.115 560.45C439.847 560.114 440.555 559.862 441.239 559.694C441.935 559.526 442.619 559.442 443.291 559.442C444.551 559.442 445.529 559.748 446.225 560.36C446.933 560.96 447.287 561.812 447.287 562.916V569H444.857V568.352C444.461 568.628 444.041 568.832 443.597 568.964C443.165 569.096 442.679 569.162 442.139 569.162ZM441.077 566.228C441.077 566.588 441.233 566.876 441.545 567.092C441.857 567.296 442.271 567.398 442.787 567.398C443.195 567.398 443.567 567.35 443.903 567.254C444.251 567.146 444.569 566.996 444.857 566.804V565.4C444.557 565.28 444.239 565.196 443.903 565.148C443.579 565.088 443.237 565.058 442.877 565.058C442.313 565.058 441.869 565.166 441.545 565.382C441.233 565.586 441.077 565.868 441.077 566.228ZM453.474 569.054C452.814 569.054 452.19 568.928 451.602 568.676C451.026 568.424 450.522 568.082 450.09 567.65C449.67 567.218 449.334 566.714 449.082 566.138C448.842 565.55 448.722 564.92 448.722 564.248C448.722 563.588 448.848 562.97 449.1 562.394C449.352 561.806 449.694 561.296 450.126 560.864C450.558 560.432 451.068 560.096 451.656 559.856C452.244 559.604 452.874 559.478 453.546 559.478C454.014 559.478 454.458 559.544 454.878 559.676C455.31 559.808 455.712 559.994 456.084 560.234V559.622H458.514V569C458.514 570.236 458.112 571.19 457.308 571.862C456.516 572.534 455.37 572.87 453.87 572.87C453.15 572.87 452.454 572.798 451.782 572.654C451.122 572.51 450.516 572.3 449.964 572.024L450.828 570.098C451.344 570.35 451.848 570.536 452.34 570.656C452.832 570.788 453.324 570.854 453.816 570.854C454.548 570.854 455.1 570.692 455.472 570.368C455.856 570.056 456.048 569.594 456.048 568.982V568.208C455.676 568.484 455.268 568.694 454.824 568.838C454.392 568.982 453.942 569.054 453.474 569.054ZM451.152 564.248C451.152 565.004 451.41 565.646 451.926 566.174C452.454 566.702 453.096 566.966 453.852 566.966C454.296 566.966 454.704 566.894 455.076 566.75C455.448 566.594 455.772 566.384 456.048 566.12V562.43C455.784 562.166 455.46 561.962 455.076 561.818C454.692 561.662 454.29 561.584 453.87 561.584C453.114 561.584 452.472 561.842 451.944 562.358C451.416 562.874 451.152 563.504 451.152 564.248ZM468.862 567.83C468.286 568.298 467.692 568.64 467.08 568.856C466.48 569.072 465.808 569.18 465.064 569.18C464.356 569.18 463.69 569.054 463.066 568.802C462.454 568.55 461.92 568.208 461.464 567.776C461.02 567.344 460.666 566.834 460.402 566.246C460.15 565.646 460.024 565.004 460.024 564.32C460.024 563.648 460.144 563.018 460.384 562.43C460.636 561.83 460.978 561.314 461.41 560.882C461.842 560.438 462.352 560.09 462.94 559.838C463.54 559.586 464.176 559.46 464.848 559.46C465.508 559.46 466.12 559.592 466.684 559.856C467.26 560.108 467.752 560.456 468.16 560.9C468.58 561.344 468.904 561.878 469.132 562.502C469.372 563.114 469.492 563.78 469.492 564.5V565.148H462.508C462.676 565.736 463 566.21 463.48 566.57C463.96 566.93 464.524 567.11 465.172 567.11C465.58 567.11 465.964 567.044 466.324 566.912C466.684 566.78 466.99 566.594 467.242 566.354L468.862 567.83ZM464.794 561.494C464.23 561.494 463.744 561.668 463.336 562.016C462.928 562.352 462.646 562.808 462.49 563.384H467.08C466.924 562.832 466.636 562.382 466.216 562.034C465.808 561.674 465.334 561.494 464.794 561.494Z" fill="white"/>
<path d="M361.464 347.297C362.386 346.723 363.598 347.006 364.172 347.928C364.746 348.851 364.463 350.063 363.541 350.637L350.956 358.463L348.879 355.123L361.464 347.297Z" fill="white"/>
<path d="M371.889 364.077C372.812 363.503 374.024 363.786 374.598 364.708C375.171 365.63 374.889 366.843 373.966 367.416L361.382 375.242L359.305 371.902L371.889 364.077Z" fill="white"/>
<path d="M312 391.837C298.5 397.837 297.226 406.54 285 408.337C271.436 410.331 265.203 398.288 251.5 397.837C229.049 397.098 221.096 425.381 199 421.337" stroke="white" stroke-width="3"/>
<rect x="305.306" y="392.639" width="6.74398" height="5.11509" rx="0.5" transform="rotate(-31.9736 305.306 392.639)" fill="white" stroke="white"/>
<path fill-rule="evenodd" clip-rule="evenodd" d="M339.719 349.768C341.162 348.871 342.902 348.583 344.557 348.969C346.211 349.355 347.645 350.382 348.542 351.825L364.194 376.994C365.091 378.437 365.379 380.177 364.993 381.832C364.607 383.487 363.58 384.921 362.137 385.818L349.552 393.644C344.772 396.616 339.006 397.568 333.524 396.29C328.041 395.012 323.291 391.608 320.318 386.828C317.345 382.047 316.393 376.281 317.672 370.799C318.95 365.317 322.354 360.567 327.134 357.594L339.719 349.768ZM343.891 351.826C342.994 351.616 342.05 351.772 341.268 352.259L328.683 360.084C324.563 362.646 321.63 366.74 320.528 371.465C319.426 376.19 320.247 381.159 322.809 385.279C325.371 389.399 329.465 392.332 334.189 393.434C338.914 394.535 343.883 393.715 348.003 391.153L360.588 383.327C361.37 382.841 361.927 382.063 362.136 381.166C362.346 380.269 362.19 379.326 361.703 378.543L346.052 353.374C345.565 352.592 344.788 352.035 343.891 351.826Z" fill="white"/>
<path d="M317.815 375.02C318.503 374.592 319.407 374.803 319.835 375.491C320.262 376.179 320.052 377.083 319.364 377.511L312.932 381.51C312.149 381.997 311.592 382.774 311.383 383.671C311.174 384.568 311.33 385.512 311.816 386.294L317.033 394.684C317.52 395.466 318.297 396.023 319.194 396.232C320.091 396.442 321.035 396.286 321.817 395.799L328.249 391.799C328.937 391.372 329.841 391.583 330.269 392.27C330.697 392.958 330.486 393.862 329.798 394.29L323.366 398.29C321.923 399.187 320.183 399.475 318.528 399.089C316.874 398.703 315.44 397.676 314.543 396.233L309.326 387.843C308.428 386.4 308.141 384.66 308.527 383.005C308.913 381.351 309.94 379.917 311.383 379.02L317.815 375.02Z" fill="white"/>
<path fill-rule="evenodd" clip-rule="evenodd" d="M436.603 348.969C438.258 348.583 439.998 348.871 441.441 349.768L454.026 357.594C458.806 360.567 462.21 365.317 463.488 370.799C464.767 376.281 463.815 382.047 460.842 386.828C457.869 391.608 453.119 395.012 447.637 396.29C442.154 397.568 436.389 396.616 431.608 393.644L419.023 385.818C417.58 384.921 416.553 383.487 416.167 381.832C415.782 380.177 416.069 378.437 416.966 376.994L432.618 351.825C433.515 350.382 434.949 349.355 436.603 348.969ZM439.892 352.259C439.11 351.772 438.167 351.616 437.269 351.826C436.372 352.035 435.595 352.592 435.109 353.374L419.457 378.543C418.97 379.326 418.815 380.269 419.024 381.166C419.233 382.063 419.79 382.841 420.572 383.327L433.157 391.153C437.277 393.715 442.246 394.535 446.971 393.434C451.695 392.332 455.789 389.399 458.351 385.279C460.913 381.159 461.734 376.19 460.632 371.465C459.53 366.74 456.597 362.646 452.477 360.084L439.892 352.259Z" fill="white"/>
<path d="M463.347 375.02C462.66 374.592 461.755 374.803 461.328 375.491C460.9 376.179 461.111 377.083 461.799 377.511L468.231 381.511C469.013 381.997 469.57 382.775 469.779 383.672C469.988 384.569 469.833 385.512 469.346 386.295L464.129 394.684C463.642 395.467 462.865 396.024 461.968 396.233C461.071 396.442 460.127 396.286 459.345 395.8L452.913 391.8C452.225 391.372 451.321 391.583 450.893 392.271C450.466 392.958 450.676 393.863 451.364 394.29L457.796 398.29C459.239 399.188 460.979 399.475 462.634 399.089C464.289 398.703 465.722 397.676 466.62 396.233L471.837 387.843C472.734 386.401 473.021 384.66 472.636 383.006C472.25 381.351 471.223 379.917 469.78 379.02L463.347 375.02Z" fill="white"/>
<path d="M439.339 363.588C439.757 362.894 439.533 361.993 438.84 361.575C438.146 361.157 437.245 361.38 436.827 362.074L429.176 374.765C428.757 375.459 428.981 376.36 429.674 376.778C430.368 377.197 431.269 376.973 431.687 376.28L439.339 363.588Z" fill="white"/>
<path d="M469.16 391.837C482.66 397.837 483.934 406.54 496.16 408.337C509.724 410.331 515.957 398.288 529.66 397.837C552.111 397.098 560.064 425.381 582.16 421.337" stroke="white" stroke-width="3"/>
<rect x="-0.688985" y="0.159057" width="6.53415" height="5.11509" rx="0.5" transform="matrix(-0.848042 -0.529928 -0.529928 0.848042 475.354 392.142)" fill="white" stroke="white"/>
<path fill-rule="evenodd" clip-rule="evenodd" d="M351.62 299.161C352.515 298.513 354.019 299.064 354.98 300.391L363.67 312.395C364.631 313.722 364.685 315.323 363.79 315.97C362.896 316.618 361.391 316.068 360.431 314.74L351.74 302.737C350.779 301.41 350.725 299.809 351.62 299.161Z" fill="#29D305"/>
<path fill-rule="evenodd" clip-rule="evenodd" d="M429.642 299.157C428.747 298.509 427.243 299.06 426.282 300.387L417.591 312.391C416.63 313.718 416.577 315.319 417.472 315.967C418.366 316.614 419.87 316.064 420.831 314.737L429.522 302.733C430.483 301.406 430.536 299.805 429.642 299.157Z" fill="#29D305"/>
<path fill-rule="evenodd" clip-rule="evenodd" d="M390.633 287C391.737 287 392.633 288.328 392.633 289.967L392.633 304.786C392.633 306.424 391.737 307.753 390.633 307.753C389.528 307.753 388.633 306.424 388.633 304.786V289.967C388.633 288.328 389.528 287 390.633 287Z" fill="#29D305"/>
</svg>
