<svg width="238" height="72" viewBox="0 0 238 72" fill="none" xmlns="http://www.w3.org/2000/svg">
<path d="M71.6235 30.8047H28.1992V41.195H71.6235V30.8047Z" fill="black"/>
<path d="M36.1069 61.453C22.0425 61.453 10.6248 50.0482 10.6248 35.9998C10.6248 21.9513 22.0425 10.5466 36.1069 10.5466C44.2009 10.5466 51.4024 14.3277 56.0803 20.1991L63.8973 13.344C57.3113 5.28993 47.3093 0.15625 36.1069 0.15625C16.2875 0.15625 0.222656 16.2028 0.222656 35.9998C0.222656 55.7967 16.2875 71.8433 36.1069 71.8433C47.3093 71.8433 57.3113 66.7096 63.8973 58.6556L56.0803 51.8004C51.4332 57.6719 44.2009 61.453 36.1069 61.453Z" fill="black"/>
<path d="M94.117 1.20166H83.7148V70.829H94.117V1.20166Z" fill="black"/>
<path d="M175.43 19.9839H165.027V70.798H175.43V19.9839Z" fill="black"/>
<path d="M144.499 19.9839L129.48 55.1818L114.431 19.9839H102.859L125.418 70.8288H133.512L156.07 19.9839H144.499Z" fill="black"/>
<path d="M170.228 12.1758C173.542 12.1758 176.229 9.49204 176.229 6.18142C176.229 2.8708 173.542 0.187012 170.228 0.187012C166.913 0.187012 164.227 2.8708 164.227 6.18142C164.227 9.49204 166.913 12.1758 170.228 12.1758Z" fill="black"/>
<path d="M210.635 66.7095C213.779 66.7095 216.328 64.1633 216.328 61.0225C216.328 57.8816 213.779 55.3354 210.635 55.3354C207.49 55.3354 204.941 57.8816 204.941 61.0225C204.941 64.1633 207.49 66.7095 210.635 66.7095Z" fill="black"/>
<path d="M214.666 19.9839H206.572L183.398 70.8288H194.662L210.635 34.9238L226.577 70.8288H237.84L214.666 19.9839Z" fill="black"/>
</svg>
