<svg width="32" height="32" fill="none" xmlns="http://www.w3.org/2000/svg"><path fill="url(#paint0_linear)" d="M0 0H32V32H0z"/><path fill-rule="evenodd" clip-rule="evenodd" d="M4 16c0 6.617 5.383 12 12 12s12-5.383 12-12S22.617 4 16 4 4 9.383 4 16zm1.5 0c0-5.79 4.71-10.5 10.5-10.5S26.5 10.21 26.5 16 21.79 26.5 16 26.5 5.5 21.79 5.5 16zm10.125-3.75a1.125 1.125 0 1 0 0-2.25 1.125 1.125 0 0 0 0 2.25zm1.875 9A2.252 2.252 0 0 1 15.25 19v-3.75h-.75a.75.75 0 0 1 0-1.5h.75c.827 0 1.5.673 1.5 1.5V19c0 .414.336.75.75.75h.75a.75.75 0 0 1 0 1.5h-.75z" fill="#000"/><defs><linearGradient id="paint0_linear" y1="-5.5" x2="38.414" y2="28.822" gradientUnits="userSpaceOnUse"><stop stop-color="#29D305" stop-opacity=".2"/><stop offset=".464" stop-color="#A9D5A9" stop-opacity=".33"/><stop offset=".911" stop-color="#B9E6FF" stop-opacity=".59"/></linearGradient></defs></svg>