<svg width="32" height="32" fill="none" xmlns="http://www.w3.org/2000/svg"><path fill="url(#paint0_linear)" d="M0 0H32V32H0z"/><path fill-rule="evenodd" clip-rule="evenodd" d="M0 16c0 8.823 7.177 16 16 16s16-7.177 16-16S24.823 0 16 0 0 7.177 0 16zm2 0C2 8.28 8.28 2 16 2s14 6.28 14 14-6.28 14-14 14S2 23.72 2 16zm13.5-5a1.5 1.5 0 1 0 0-3 1.5 1.5 0 0 0 0 3zM18 23c-1.655 0-3-1.345-3-3v-5h-1a1 1 0 0 1 0-2h1c1.103 0 2 .897 2 2v5a1 1 0 0 0 1 1h1a1 1 0 0 1 0 2h-1z" fill="#000"/><defs><linearGradient id="paint0_linear" y1="-5.5" x2="38.414" y2="28.822" gradientUnits="userSpaceOnUse"><stop stop-color="#29D305" stop-opacity=".2"/><stop offset=".464" stop-color="#A9D5A9" stop-opacity=".33"/><stop offset=".911" stop-color="#B9E6FF" stop-opacity=".59"/></linearGradient></defs></svg>