<svg width="32" height="32" fill="none" xmlns="http://www.w3.org/2000/svg"><path fill="url(#paint0_linear)" d="M0 0H32V32H0z"/><path fill-rule="evenodd" clip-rule="evenodd" d="M8 16c0 4.411 3.589 8 8 8s8-3.589 8-8-3.589-8-8-8-8 3.589-8 8zm1 0c0-3.86 3.14-7 7-7s7 3.14 7 7-3.14 7-7 7-7-3.14-7-7zm6.75-2.5a.75.75 0 1 0 0-1.5.75.75 0 0 0 0 1.5zm1.25 6c-.827 0-1.5-.673-1.5-1.5v-2.5H15a.5.5 0 0 1 0-1h.5c.551 0 1 .449 1 1V18a.5.5 0 0 0 .5.5h.5a.5.5 0 0 1 0 1H17z" fill="#000"/><defs><linearGradient id="paint0_linear" y1="-5.5" x2="38.414" y2="28.822" gradientUnits="userSpaceOnUse"><stop stop-color="#29D305" stop-opacity=".2"/><stop offset=".464" stop-color="#A9D5A9" stop-opacity=".33"/><stop offset=".911" stop-color="#B9E6FF" stop-opacity=".59"/></linearGradient></defs></svg>