<svg width="734" height="307" fill="none" xmlns="http://www.w3.org/2000/svg"><path stroke="#D3D3D3" d="M40.5 5.5H733.5V233.5H40.5z"/><path stroke="#D3D3D3" d="M40 176.5L734 176.5"/><path d="M1.833 181v-.583l3.08-3.366c.36-.396.605-.722.737-.979a1.78 1.78 0 0 0 .198-.825c0-.381-.154-.7-.462-.957-.308-.257-.693-.385-1.155-.385-.36 0-.697.073-1.012.22-.308.139-.649.378-1.023.715l-.462-.55c.396-.367.8-.638 1.21-.814.418-.183.85-.275 1.298-.275.69 0 1.258.191 1.705.572.455.374.682.851.682 1.43 0 .191-.018.367-.055.528-.037.161-.099.33-.187.506a3.691 3.691 0 0 1-.363.55 8.89 8.89 0 0 1-.572.682l-2.629 2.849 3.971-.011V181H1.833zm9.269 0v-7.865l.803-.165v5.071l2.552-2.409h.968l-2.728 2.552L15.546 181H14.49l-2.585-2.563V181h-.803zm7.738 0h-.858l-1.661-7.7h.858l1.309 6.369 1.903-6.369h.825l1.903 6.347 1.32-6.347h.825l-1.661 7.7h-.858l-1.947-6.534L18.84 181zm7.916 0v-7.865l.803-.165v3.531c.205-.315.45-.554.737-.715.286-.161.608-.242.968-.242.572 0 1.037.183 1.397.55.366.367.55.843.55 1.43V181h-.803v-3.245c0-.469-.132-.843-.396-1.122-.257-.279-.605-.418-1.045-.418-.294 0-.561.07-.803.209a1.682 1.682 0 0 0-.605.616V181h-.803z" fill="#000"/><path stroke="#D3D3D3" d="M40 233.5L734 233.5"/><path d="M28.368 238.11c-.44 0-.847-.095-1.22-.286a2.943 2.943 0 0 1-.947-.814 4.003 4.003 0 0 1-.616-1.254 5.593 5.593 0 0 1-.22-1.606c0-.579.074-1.111.22-1.595.147-.491.352-.909.616-1.254.272-.352.59-.623.957-.814.367-.198.77-.297 1.21-.297.44 0 .844.099 1.21.297.374.191.693.462.957.814.264.345.47.763.616 1.254.147.484.22 1.016.22 1.595s-.073 1.115-.22 1.606a4.006 4.006 0 0 1-.616 1.254 2.906 2.906 0 0 1-.957.814c-.366.191-.77.286-1.21.286zm0-.715c.668 0 1.2-.293 1.595-.88.404-.594.605-1.382.605-2.365 0-.983-.201-1.767-.605-2.354-.403-.594-.935-.891-1.595-.891-.66 0-1.191.297-1.595.891-.403.587-.605 1.371-.605 2.354 0 .983.202 1.771.605 2.365.404.587.935.88 1.595.88z" fill="#000"/><path stroke="#D3D3D3" d="M40 119.5L734 119.5"/><path d="M5.878 116.3v4.95h1.067v.693H5.878V124h-.781v-2.057H.939v-.627L5.03 116.3h.847zm-4.015 4.95h3.234v-3.993l-3.234 3.993zm9.239 2.75v-7.865l.803-.165v5.071l2.552-2.409h.968l-2.728 2.552L15.546 124H14.49l-2.585-2.563V124h-.803zm7.738 0h-.858l-1.661-7.7h.858l1.309 6.369 1.903-6.369h.825l1.903 6.347 1.32-6.347h.825l-1.661 7.7h-.858l-1.947-6.534L18.84 124zm7.916 0v-7.865l.803-.165v3.531c.205-.315.45-.554.737-.715.286-.161.608-.242.968-.242.572 0 1.037.183 1.397.55.366.367.55.843.55 1.43V124h-.803v-3.245c0-.469-.132-.843-.396-1.122-.257-.279-.605-.418-1.045-.418-.294 0-.561.07-.803.209a1.682 1.682 0 0 0-.605.616V124h-.803z" fill="#000"/><path stroke="#D3D3D3" d="M40 62.5L734 62.5"/><path d="M4.14 67.088c-.44 0-.847-.088-1.221-.264a2.867 2.867 0 0 1-.946-.759 3.858 3.858 0 0 1-.627-1.166 4.813 4.813 0 0 1-.22-1.485c0-.63.08-1.203.242-1.716.168-.52.403-.964.704-1.331.3-.367.663-.649 1.089-.847a3.222 3.222 0 0 1 1.419-.308c.315 0 .63.048.946.143.322.088.609.213.858.374l-.396.616a3.177 3.177 0 0 0-.726-.308 2.64 2.64 0 0 0-.748-.11c-.785 0-1.412.304-1.881.913-.462.609-.7 1.441-.715 2.497a3.094 3.094 0 0 1 1.023-.858 2.689 2.689 0 0 1 1.232-.308c.374 0 .718.062 1.034.187a2.4 2.4 0 0 1 .814.495c.227.213.403.466.528.759.132.293.198.612.198.957 0 .36-.066.697-.198 1.012a2.329 2.329 0 0 1-.55.792 2.57 2.57 0 0 1-.825.528c-.316.125-.66.187-1.034.187zm-.077-4.268c-.396 0-.781.103-1.155.308a2.968 2.968 0 0 0-.968.825c.08.733.319 1.324.715 1.771a1.89 1.89 0 0 0 1.474.671c.52 0 .953-.172 1.298-.517.352-.345.528-.774.528-1.287 0-.513-.18-.935-.54-1.265-.351-.337-.802-.506-1.352-.506zM11.102 67v-7.865l.803-.165v5.071l2.552-2.409h.968l-2.728 2.552L15.546 67H14.49l-2.585-2.563V67h-.803zm7.738 0h-.858l-1.661-7.7h.858l1.309 6.369L20.39 59.3h.825l1.903 6.347 1.32-6.347h.825L23.603 67h-.858l-1.947-6.534L18.84 67zm7.916 0v-7.865l.803-.165v3.531c.205-.315.45-.554.737-.715.286-.161.608-.242.968-.242.572 0 1.037.183 1.397.55.366.367.55.843.55 1.43V67h-.803v-3.245c0-.47-.132-.843-.396-1.122-.257-.279-.605-.418-1.045-.418-.294 0-.561.07-.803.209-.242.14-.444.345-.605.616V67h-.803z" fill="#000"/><path stroke="#D3D3D3" d="M40 5.5L734 5.5"/><path d="M3.93 10.11a3.53 3.53 0 0 1-1.1-.165c-.33-.11-.62-.26-.87-.451a2.243 2.243 0 0 1-.571-.693 1.985 1.985 0 0 1-.198-.88c0-.462.168-.876.506-1.243a2.556 2.556 0 0 1 1.309-.737 2.234 2.234 0 0 1-1.1-.671 1.623 1.623 0 0 1-.418-1.089c0-.286.062-.55.187-.792.124-.25.293-.462.506-.638.22-.176.48-.315.78-.418.301-.103.624-.154.969-.154.344 0 .667.051.968.154.3.103.56.242.78.418.22.176.393.389.518.638.124.242.187.506.187.792a1.6 1.6 0 0 1-.43 1.089 2.169 2.169 0 0 1-1.088.671c.528.125.96.37 1.298.737.337.36.506.774.506 1.243 0 .315-.07.609-.21.88a1.97 1.97 0 0 1-.56.693c-.242.19-.532.341-.87.451a3.53 3.53 0 0 1-1.1.165zm0-4.499c.469 0 .865-.132 1.188-.396.33-.271.495-.605.495-1.001 0-.396-.162-.726-.484-.99-.323-.271-.723-.407-1.2-.407-.469 0-.865.136-1.187.407-.323.264-.484.594-.484.99s.16.73.484 1.001c.33.264.726.396 1.188.396zm0 3.85c.55 0 1.012-.154 1.386-.462.38-.308.572-.686.572-1.133 0-.44-.191-.81-.572-1.111-.374-.308-.836-.462-1.386-.462-.55 0-1.016.154-1.397.462-.374.3-.561.671-.561 1.111 0 .447.187.825.56 1.133.382.308.848.462 1.398.462zm7.172.539V2.135l.803-.165v5.071l2.552-2.409h.968l-2.728 2.552L15.546 10H14.49l-2.585-2.563V10h-.803zm7.738 0h-.858L16.32 2.3h.858l1.309 6.369L20.39 2.3h.825l1.903 6.347 1.32-6.347h.825L23.603 10h-.858l-1.947-6.534L18.84 10zm7.916 0V2.135l.803-.165v3.531c.205-.315.45-.554.737-.715.286-.161.608-.242.968-.242.572 0 1.037.183 1.397.55.366.367.55.843.55 1.43V10h-.803V6.755c0-.47-.132-.843-.396-1.122-.257-.279-.605-.418-1.045-.418-.294 0-.561.07-.803.209-.242.14-.444.345-.605.616V10h-.803z" fill="#000"/><path d="M92 121a4 4 0 0 1 4-4h8a4 4 0 0 1 4 4v112H92V121z" fill="#490192"/><path d="M95.606 249.304c0 1.176-.327 2.114-.98 2.814-.654.691-1.53 1.036-2.632 1.036-.83 0-1.554-.219-2.17-.658-.607-.448-1.046-1.064-1.316-1.848l.98-.392c.233.625.56 1.101.98 1.428.42.327.933.49 1.54.49.756 0 1.363-.261 1.82-.784.466-.523.7-1.223.7-2.1v-6.09h1.078v6.104zm4.208 3.822c-.728 0-1.325-.191-1.792-.574-.457-.392-.686-.896-.686-1.512 0-.607.234-1.097.7-1.47.476-.373 1.097-.56 1.862-.56.392 0 .761.047 1.106.14.355.084.682.215.98.392v-.938c0-.56-.149-.98-.448-1.26-.298-.289-.737-.434-1.316-.434-.317 0-.644.047-.98.14a6.15 6.15 0 0 0-1.092.448l-.378-.784a6.88 6.88 0 0 1 1.33-.49 4.82 4.82 0 0 1 1.246-.168c.84 0 1.489.21 1.946.63.467.411.7 1.003.7 1.778V253h-1.008v-.798c-.298.308-.63.541-.994.7a3.074 3.074 0 0 1-1.176.224zm-1.498-2.114c0 .401.16.723.476.966.318.243.728.364 1.232.364.383 0 .733-.065 1.05-.196.327-.131.63-.327.91-.588v-1.316a3.358 3.358 0 0 0-.896-.364 3.936 3.936 0 0 0-1.036-.126c-.522 0-.942.117-1.26.35-.317.233-.476.537-.476.91zM105.07 253v-6.832h1.022v1.106c.261-.401.574-.705.938-.91a2.465 2.465 0 0 1 1.232-.308c.728 0 1.32.233 1.778.7.466.467.7 1.073.7 1.82V253h-1.022v-4.13c0-.597-.168-1.073-.504-1.428-.327-.355-.77-.532-1.33-.532-.374 0-.714.089-1.022.266a2.139 2.139 0 0 0-.77.784V253h-1.022z" fill="#000"/><path d="M72 104a4 4 0 0 1 4-4h8a4 4 0 0 1 4 4v129H72V104z" fill="#006DDB"/><path d="M112 141a4 4 0 0 1 4-4h8a4 4 0 0 1 4 4v92h-16v-92z" fill="#21AC04"/><path d="M207 133a4 4 0 0 1 4-4h8a4 4 0 0 1 4 4v100h-16V133z" fill="#490192"/><path d="M204.495 253v-9.8h6.692v.938h-5.614v3.514h3.836v.938h-3.836V253h-1.078zm12.993-.784a4.303 4.303 0 0 1-1.218.686 3.99 3.99 0 0 1-1.344.224c-.476 0-.924-.089-1.344-.266a3.521 3.521 0 0 1-1.078-.756 3.636 3.636 0 0 1-.714-1.12 3.88 3.88 0 0 1-.252-1.4c0-.495.079-.957.238-1.386a3.38 3.38 0 0 1 .686-1.12c.289-.317.63-.565 1.022-.742.392-.187.817-.28 1.274-.28.448 0 .863.089 1.246.266.383.177.714.42.994.728.28.299.499.663.658 1.092.159.42.238.873.238 1.358v.308h-5.362c.047.691.303 1.269.77 1.736a2.3 2.3 0 0 0 1.666.686 2.92 2.92 0 0 0 1.022-.182c.336-.131.621-.303.854-.518l.644.686zm-2.744-5.278c-.56 0-1.041.201-1.442.602-.401.401-.649.915-.742 1.54h4.326c-.075-.616-.313-1.125-.714-1.526a1.9 1.9 0 0 0-1.428-.616zm11.265 2.646c0 .495-.084.957-.252 1.386a3.394 3.394 0 0 1-.672 1.12c-.289.308-.63.555-1.022.742a3.026 3.026 0 0 1-1.26.266 2.9 2.9 0 0 1-1.204-.252 2.929 2.929 0 0 1-.952-.742V253h-1.008v-10.01l1.022-.21v4.326c.261-.317.579-.565.952-.742.373-.187.789-.28 1.246-.28.439 0 .849.093 1.232.28.392.177.728.425 1.008.742.28.308.499.677.658 1.106.168.429.252.887.252 1.372zm-3.402-2.604c-.401 0-.775.084-1.12.252a2.112 2.112 0 0 0-.826.686v3.346c.224.299.504.532.84.7.345.168.714.252 1.106.252a2.23 2.23 0 0 0 1.708-.742c.457-.504.686-1.129.686-1.876 0-.747-.229-1.367-.686-1.862a2.212 2.212 0 0 0-1.708-.756z" fill="#000"/><path d="M187 104a4 4 0 0 1 4-4h8a4 4 0 0 1 4 4v129h-16V104z" fill="#006DDB"/><path d="M227 152a4 4 0 0 1 4-4h8a4 4 0 0 1 4 4v81h-16v-81z" fill="#21AC04"/><path d="M322 141a4 4 0 0 1 4-4h8a4 4 0 0 1 4 4v92h-16v-92z" fill="#490192"/><path d="M324.414 252.3l-3.766-7.854V253h-1.008v-9.8h1.498l3.276 6.972 3.276-6.972h1.498v9.8h-1.022v-8.526l-3.752 7.826zm9.065.826c-.728 0-1.325-.191-1.792-.574-.457-.392-.686-.896-.686-1.512 0-.607.234-1.097.7-1.47.476-.373 1.097-.56 1.862-.56.392 0 .761.047 1.106.14.355.084.682.215.98.392v-.938c0-.56-.149-.98-.448-1.26-.298-.289-.737-.434-1.316-.434a3.67 3.67 0 0 0-.98.14c-.326.093-.69.243-1.092.448l-.378-.784c.467-.224.91-.387 1.33-.49.42-.112.836-.168 1.246-.168.84 0 1.489.21 1.946.63.467.411.7 1.003.7 1.778V253h-1.008v-.798c-.298.308-.63.541-.994.7a3.074 3.074 0 0 1-1.176.224zm-1.498-2.114c0 .401.159.723.476.966.318.243.728.364 1.232.364.383 0 .733-.065 1.05-.196.327-.131.63-.327.91-.588v-1.316a3.358 3.358 0 0 0-.896-.364 3.936 3.936 0 0 0-1.036-.126c-.522 0-.942.117-1.26.35-.317.233-.476.537-.476.91zm6.754 1.988v-6.832h1.022v1.386c.177-.476.429-.845.756-1.106a1.777 1.777 0 0 1 1.148-.406c.121 0 .233.009.336.028.102.009.205.033.308.07v.924a2.157 2.157 0 0 0-.364-.084 1.767 1.767 0 0 0-1.456.322c-.308.243-.551.583-.728 1.022V253h-1.022z" fill="#000"/><path d="M302 104a4 4 0 0 1 4-4h8a4 4 0 0 1 4 4v129h-16V104z" fill="#006DDB"/><path d="M342 159a4 4 0 0 1 4-4h8a4 4 0 0 1 4 4v74h-16v-74z" fill="#21AC04"/><path d="M437 152a4 4 0 0 1 4-4h8a4 4 0 0 1 4 4v81h-16v-81z" fill="#490192"/><path d="M434.463 253l3.878-9.8h1.288l3.822 9.8h-1.162l-1.162-3.08h-4.368l-1.162 3.08h-1.134zm2.632-3.934h3.71l-1.862-4.9-1.848 4.9zm7.534 6.86v-9.758h1.008v.98c.261-.345.579-.607.952-.784.383-.187.803-.28 1.26-.28.439 0 .849.093 1.232.28.392.177.728.425 1.008.742.28.308.499.677.658 1.106.168.429.252.887.252 1.372 0 .495-.084.957-.252 1.386a3.394 3.394 0 0 1-.672 1.12c-.289.308-.63.555-1.022.742a3.026 3.026 0 0 1-1.26.266 3.04 3.04 0 0 1-1.204-.238 2.698 2.698 0 0 1-.938-.714v3.78h-1.022zm2.968-8.946c-.401 0-.775.084-1.12.252a2.112 2.112 0 0 0-.826.686v3.346c.224.299.504.532.84.7.345.168.714.252 1.106.252a2.23 2.23 0 0 0 1.708-.742c.457-.504.686-1.129.686-1.876 0-.747-.229-1.367-.686-1.862a2.212 2.212 0 0 0-1.708-.756zm5.194 6.02v-6.832h1.022v1.386c.178-.476.43-.845.756-1.106a1.779 1.779 0 0 1 1.148-.406c.122 0 .234.009.336.028.103.009.206.033.308.07v.924a2.135 2.135 0 0 0-.364-.084 1.77 1.77 0 0 0-1.456.322c-.308.243-.55.583-.728 1.022V253h-1.022z" fill="#000"/><path d="M417 104a4 4 0 0 1 4-4h8a4 4 0 0 1 4 4v129h-16V104z" fill="#006DDB"/><path d="M457 125a4 4 0 0 1 4-4h8a4 4 0 0 1 4 4v108h-16V125z" fill="#21AC04"/><path d="M667 100a4 4 0 0 1 4-4h8a4 4 0 0 1 4 4v133h-16V100z" fill="#490192"/><path d="M670.428 249.304c0 1.176-.327 2.114-.98 2.814-.653.691-1.531 1.036-2.632 1.036-.831 0-1.554-.219-2.17-.658-.607-.448-1.045-1.064-1.316-1.848l.98-.392c.233.625.56 1.101.98 1.428.42.327.933.49 1.54.49.756 0 1.363-.261 1.82-.784.467-.523.7-1.223.7-2.1v-6.09h1.078v6.104zm3.089-3.136v4.116c0 .607.163 1.087.49 1.442.326.355.77.532 1.33.532.373 0 .714-.089 1.022-.266.308-.177.564-.434.77-.77v-5.054h1.022V253h-1.022v-1.106c-.262.401-.574.705-.938.91a2.468 2.468 0 0 1-1.232.308c-.728 0-1.326-.233-1.792-.7-.458-.476-.686-1.087-.686-1.834v-4.41h1.036zm6.73 6.832v-6.832h1.022v1.106c.262-.401.574-.705.938-.91a2.468 2.468 0 0 1 1.232-.308c.728 0 1.321.233 1.778.7.467.467.7 1.073.7 1.82V253h-1.022v-4.13c0-.597-.168-1.073-.504-1.428-.326-.355-.77-.532-1.33-.532-.373 0-.714.089-1.022.266a2.147 2.147 0 0 0-.77.784V253h-1.022z" fill="#000"/><path d="M647 104a4 4 0 0 1 4-4h8a4 4 0 0 1 4 4v129h-16V104z" fill="#006DDB"/><path d="M687 132a4 4 0 0 1 4-4h8a4 4 0 0 1 4 4v101h-16V132z" fill="#21AC04"/><path d="M552 96a4 4 0 0 1 4-4h8a4 4 0 0 1 4 4v137h-16V96z" fill="#490192"/><path d="M553.457 252.3l-3.766-7.854V253h-1.008v-9.8h1.498l3.276 6.972 3.276-6.972h1.498v9.8h-1.022v-8.526l-3.752 7.826zm9.065.826c-.728 0-1.325-.191-1.792-.574-.457-.392-.686-.896-.686-1.512 0-.607.234-1.097.7-1.47.476-.373 1.097-.56 1.862-.56.392 0 .761.047 1.106.14.355.084.682.215.98.392v-.938c0-.56-.149-.98-.448-1.26-.298-.289-.737-.434-1.316-.434a3.67 3.67 0 0 0-.98.14c-.326.093-.69.243-1.092.448l-.378-.784c.467-.224.91-.387 1.33-.49.42-.112.836-.168 1.246-.168.84 0 1.489.21 1.946.63.467.411.7 1.003.7 1.778V253h-1.008v-.798c-.298.308-.63.541-.994.7a3.074 3.074 0 0 1-1.176.224zm-1.498-2.114c0 .401.159.723.476.966.318.243.728.364 1.232.364.383 0 .733-.065 1.05-.196.327-.131.63-.327.91-.588v-1.316a3.358 3.358 0 0 0-.896-.364 3.936 3.936 0 0 0-1.036-.126c-.522 0-.942.117-1.26.35-.317.233-.476.537-.476.91zm7.961 3.08l.448-1.106-2.632-6.818h1.134l2.072 5.614 2.198-5.614h1.134l-3.388 8.232c-.215.551-.472.938-.77 1.162-.29.233-.686.35-1.19.35-.094 0-.196-.009-.308-.028a1.656 1.656 0 0 1-.35-.07v-.91c.14.028.247.042.322.042.084.009.163.014.238.014.261 0 .476-.07.644-.21.177-.131.326-.35.448-.658z" fill="#000"/><path d="M532 104a4 4 0 0 1 4-4h8a4 4 0 0 1 4 4v129h-16V104z" fill="#006DDB"/><path d="M572 121a4 4 0 0 1 4-4h8a4 4 0 0 1 4 4v112h-16V121z" fill="#21AC04"/><circle cx="279" cy="291" r="4" fill="#006DDB"/><path d="M291.816 296v-1.264l4.592-4.8c.395-.427.672-.795.832-1.104.171-.32.256-.656.256-1.008 0-.469-.197-.859-.592-1.168-.384-.32-.869-.48-1.456-.48-.512 0-.992.107-1.44.32-.437.213-.923.565-1.456 1.056l-.992-1.2c.608-.565 1.237-.987 1.888-1.264a5.078 5.078 0 0 1 2.048-.432c1.088 0 1.973.288 2.656.864.693.565 1.04 1.296 1.04 2.192 0 .533-.117 1.029-.352 1.488-.235.459-.651 1.003-1.248 1.632l-3.584 3.696 5.392-.032V296h-7.584zm13.701.16a4.195 4.195 0 0 1-1.872-.416 4.46 4.46 0 0 1-1.456-1.184c-.395-.501-.704-1.109-.928-1.824a8.211 8.211 0 0 1-.32-2.352c0-.843.112-1.621.336-2.336.224-.715.533-1.323.928-1.824a4.277 4.277 0 0 1 1.456-1.168 4.028 4.028 0 0 1 1.856-.432c.683 0 1.307.144 1.872.432a4.13 4.13 0 0 1 1.44 1.168c.405.501.715 1.109.928 1.824.224.715.336 1.493.336 2.336 0 .853-.112 1.637-.336 2.352-.213.715-.523 1.323-.928 1.824a4.302 4.302 0 0 1-1.44 1.184 4.195 4.195 0 0 1-1.872.416zm0-1.552c.864 0 1.552-.379 2.064-1.136.512-.757.768-1.787.768-3.088 0-1.28-.256-2.299-.768-3.056-.512-.768-1.2-1.152-2.064-1.152-.864 0-1.552.384-2.064 1.152-.512.768-.768 1.787-.768 3.056 0 1.291.256 2.32.768 3.088.512.757 1.2 1.136 2.064 1.136zm9.647-9.808V296h-1.744v-9.376l-1.984.864v-1.552l2.624-1.136h1.104zm2.877 11.2l5.2-9.648h-6.416V284.8h8.336v1.312L320.089 296h-2.048z" fill="#000"/><circle cx="346" cy="291" r="4" fill="#490192"/><path d="M358.816 296v-1.264l4.592-4.8c.395-.427.672-.795.832-1.104.171-.32.256-.656.256-1.008 0-.469-.197-.859-.592-1.168-.384-.32-.869-.48-1.456-.48-.512 0-.992.107-1.44.32-.437.213-.923.565-1.456 1.056l-.992-1.2c.608-.565 1.237-.987 1.888-1.264a5.078 5.078 0 0 1 2.048-.432c1.088 0 1.973.288 2.656.864.693.565 1.04 1.296 1.04 2.192 0 .533-.117 1.029-.352 1.488-.235.459-.651 1.003-1.248 1.632l-3.584 3.696 5.392-.032V296h-7.584zm13.701.16a4.195 4.195 0 0 1-1.872-.416 4.46 4.46 0 0 1-1.456-1.184c-.395-.501-.704-1.109-.928-1.824a8.211 8.211 0 0 1-.32-2.352c0-.843.112-1.621.336-2.336.224-.715.533-1.323.928-1.824a4.277 4.277 0 0 1 1.456-1.168 4.028 4.028 0 0 1 1.856-.432c.683 0 1.307.144 1.872.432a4.13 4.13 0 0 1 1.44 1.168c.405.501.715 1.109.928 1.824.224.715.336 1.493.336 2.336 0 .853-.112 1.637-.336 2.352-.213.715-.523 1.323-.928 1.824a4.302 4.302 0 0 1-1.44 1.184 4.195 4.195 0 0 1-1.872.416zm0-1.552c.864 0 1.552-.379 2.064-1.136.512-.757.768-1.787.768-3.088 0-1.28-.256-2.299-.768-3.056-.512-.768-1.2-1.152-2.064-1.152-.864 0-1.552.384-2.064 1.152-.512.768-.768 1.787-.768 3.056 0 1.291.256 2.32.768 3.088.512.757 1.2 1.136 2.064 1.136zm9.647-9.808V296h-1.744v-9.376l-1.984.864v-1.552l2.624-1.136h1.104zm6.157 11.376c-.608 0-1.168-.08-1.68-.24a4.217 4.217 0 0 1-1.329-.672 3.066 3.066 0 0 1-.847-1.04 2.889 2.889 0 0 1-.304-1.312c0-.64.224-1.211.672-1.712.458-.501 1.04-.843 1.744-1.024-.608-.203-1.104-.528-1.488-.976a2.308 2.308 0 0 1-.56-1.52c0-.437.096-.843.288-1.216.192-.373.453-.693.784-.96a3.69 3.69 0 0 1 1.2-.64c.469-.16.97-.24 1.504-.24.533 0 1.034.08 1.504.24.469.149.869.363 1.2.64.341.267.608.587.8.96.192.373.288.779.288 1.216 0 .565-.192 1.072-.576 1.52a3.186 3.186 0 0 1-1.456.976c.704.181 1.28.523 1.728 1.024.458.501.688 1.072.688 1.712 0 .469-.107.907-.32 1.312a3.072 3.072 0 0 1-.849 1.04 3.996 3.996 0 0 1-1.311.672c-.512.16-1.072.24-1.68.24zm0-6.656c.576 0 1.061-.165 1.456-.496.405-.331.608-.741.608-1.232s-.203-.901-.608-1.232c-.395-.341-.88-.512-1.456-.512-.587 0-1.083.171-1.488.512-.395.331-.592.741-.592 1.232s.202.901.608 1.232c.405.331.896.496 1.472.496zm0 5.2c.682 0 1.253-.187 1.712-.56.458-.373.688-.832.688-1.376 0-.544-.23-.997-.688-1.36-.459-.363-1.03-.544-1.712-.544-.694 0-1.27.181-1.728.544-.459.363-.688.816-.688 1.36 0 .544.229 1.003.688 1.376.458.373 1.034.56 1.728.56z" fill="#000"/><circle cx="414" cy="291" r="4" fill="#21AC04"/><path d="M426.816 296v-1.264l4.592-4.8c.395-.427.672-.795.832-1.104.171-.32.256-.656.256-1.008 0-.469-.197-.859-.592-1.168-.384-.32-.869-.48-1.456-.48-.512 0-.992.107-1.44.32-.437.213-.923.565-1.456 1.056l-.992-1.2c.608-.565 1.237-.987 1.888-1.264a5.078 5.078 0 0 1 2.048-.432c1.088 0 1.973.288 2.656.864.693.565 1.04 1.296 1.04 2.192 0 .533-.117 1.029-.352 1.488-.235.459-.651 1.003-1.248 1.632l-3.584 3.696 5.392-.032V296h-7.584zm13.701.16a4.195 4.195 0 0 1-1.872-.416 4.46 4.46 0 0 1-1.456-1.184c-.395-.501-.704-1.109-.928-1.824a8.211 8.211 0 0 1-.32-2.352c0-.843.112-1.621.336-2.336.224-.715.533-1.323.928-1.824a4.277 4.277 0 0 1 1.456-1.168 4.028 4.028 0 0 1 1.856-.432c.683 0 1.307.144 1.872.432a4.13 4.13 0 0 1 1.44 1.168c.405.501.715 1.109.928 1.824.224.715.336 1.493.336 2.336 0 .853-.112 1.637-.336 2.352-.213.715-.523 1.323-.928 1.824a4.302 4.302 0 0 1-1.44 1.184 4.195 4.195 0 0 1-1.872.416zm0-1.552c.864 0 1.552-.379 2.064-1.136.512-.757.768-1.787.768-3.088 0-1.28-.256-2.299-.768-3.056-.512-.768-1.2-1.152-2.064-1.152-.864 0-1.552.384-2.064 1.152-.512.768-.768 1.787-.768 3.056 0 1.291.256 2.32.768 3.088.512.757 1.2 1.136 2.064 1.136zm9.647-9.808V296h-1.744v-9.376l-1.984.864v-1.552l2.624-1.136h1.104zm5.805-.16c.682 0 1.306.133 1.872.4.576.267 1.066.64 1.471 1.12a5.02 5.02 0 0 1 .961 1.728c.224.672.336 1.408.336 2.208 0 .907-.128 1.733-.384 2.48-.246.747-.598 1.381-1.056 1.904a4.754 4.754 0 0 1-1.648 1.232c-.64.288-1.35.432-2.128.432a5.363 5.363 0 0 1-1.616-.256 4.193 4.193 0 0 1-1.36-.704l.96-1.296c.32.235.656.411 1.008.528.362.107.746.16 1.151.16 1.035 0 1.846-.389 2.433-1.168.586-.789.885-1.883.896-3.28a4.242 4.242 0 0 1-1.408 1.216 3.601 3.601 0 0 1-1.68.416 4.27 4.27 0 0 1-1.504-.256 3.626 3.626 0 0 1-1.184-.704 3.452 3.452 0 0 1-.784-1.088 3.513 3.513 0 0 1-.272-1.392c0-.533.096-1.024.288-1.472.202-.448.474-.832.816-1.152a3.71 3.71 0 0 1 1.248-.768 4.303 4.303 0 0 1 1.584-.288zm.08 5.728c.533 0 1.034-.117 1.504-.352.48-.235.89-.565 1.232-.992-.139-.864-.459-1.557-.96-2.08-.491-.533-1.088-.8-1.792-.8-.651 0-1.195.203-1.632.608a1.984 1.984 0 0 0-.656 1.52c0 .608.213 1.109.64 1.504.437.395.992.592 1.664.592z" fill="#000"/></svg>