<svg width="274" height="122" fill="none" xmlns="http://www.w3.org/2000/svg"><rect width="93" height="82" rx="8" fill="#fff"/><rect x="165" width="93" height="82" rx="8" fill="#262626"/><path d="M16.102 20a4 4 0 0 1 4-4h9.014a4 4 0 0 1 4 4v46H16.102V20z" fill="#006DDB"/><path d="M38.121 28a4 4 0 0 1 4-4h9.014a4 4 0 0 1 4 4v38H38.121V28z" fill="#490192"/><path d="M60.14 32a4 4 0 0 1 4-4h9.015a4 4 0 0 1 4 4v34H60.141V32z" fill="#21AC04"/><path d="M181.27 20a4 4 0 0 1 4-4h9.014a4 4 0 0 1 4 4v46H181.27V20z" fill="#006DDB"/><path d="M203.289 28a4 4 0 0 1 4-4h9.014a4 4 0 0 1 4 4v38h-17.014V28z" fill="#490192"/><path d="M225.309 32a4 4 0 0 1 4-4h9.014a4 4 0 0 1 4 4v34h-17.014V32z" fill="#21AC04"/><path d="M41.801 117v-14h5.12c1 0 1.933.18 2.8.54.867.36 1.607.853 2.22 1.48a6.585 6.585 0 0 1 1.46 2.24c.36.853.54 1.773.54 2.76 0 .987-.18 1.907-.54 2.76a6.638 6.638 0 0 1-1.46 2.22 6.775 6.775 0 0 1-2.22 1.46c-.867.36-1.8.54-2.8.54h-5.12zm5.18-11.92h-2.78v9.84h2.78a4.14 4.14 0 0 0 1.76-.38 4.533 4.533 0 0 0 1.42-1.02c.4-.44.713-.96.94-1.56.24-.6.36-1.247.36-1.94 0-.693-.12-1.34-.36-1.94a4.788 4.788 0 0 0-.94-1.58c-.4-.44-.873-.787-1.42-1.04a4.14 4.14 0 0 0-1.76-.38zM70.965 110c0 1-.187 1.947-.56 2.84-.36.88-.86 1.647-1.5 2.3a6.932 6.932 0 0 1-2.24 1.52 6.957 6.957 0 0 1-2.78.56 6.957 6.957 0 0 1-2.78-.56 7.17 7.17 0 0 1-2.26-1.52 7.54 7.54 0 0 1-1.5-2.3 7.525 7.525 0 0 1-.54-2.84c0-1 .18-1.94.54-2.82a7.238 7.238 0 0 1 1.5-2.3 7.012 7.012 0 0 1 5.04-2.1c.986 0 1.913.187 2.78.56a6.784 6.784 0 0 1 2.24 1.54c.64.64 1.14 1.407 1.5 2.3.373.88.56 1.82.56 2.82zm-2.46 0c0-.72-.12-1.387-.36-2a4.784 4.784 0 0 0-.96-1.62 4.421 4.421 0 0 0-1.46-1.06 4.174 4.174 0 0 0-1.82-.4c-.654 0-1.267.133-1.84.4a4.422 4.422 0 0 0-1.46 1.06c-.413.453-.74.993-.98 1.62a5.44 5.44 0 0 0-.36 2c0 .72.12 1.393.36 2.02.24.613.566 1.147.98 1.6.413.44.9.793 1.46 1.06.573.253 1.187.38 1.84.38s1.26-.127 1.82-.38a4.84 4.84 0 0 0 1.46-1.06 4.83 4.83 0 0 0 .96-1.6c.24-.627.36-1.3.36-2.02z" fill="#000"/><g clip-path="url(#clip0_10056_90435)"><path fill-rule="evenodd" clip-rule="evenodd" d="M.086 109.997c0 6.617 5.387 12 12.01 12s12.01-5.383 12.01-12-5.387-12-12.01-12-12.01 5.383-12.01 12zm1.501 0c0-5.79 4.714-10.5 10.51-10.5 5.794 0 10.508 4.71 10.508 10.5s-4.714 10.5-10.509 10.5-10.509-4.71-10.509-10.5zm6.096-.69a.75.75 0 0 0-1.061 1.059l3.538 3.532a.753.753 0 0 0 1.062 0l7.077-7.063a.749.749 0 0 0 0-1.06.753.753 0 0 0-1.062 0l-6.546 6.533-3.008-3.001z" fill="#29D305"/></g><path d="M206.715 117v-14h5.12c1 0 1.933.18 2.8.54.867.36 1.607.853 2.22 1.48a6.585 6.585 0 0 1 1.46 2.24c.36.853.54 1.773.54 2.76 0 .987-.18 1.907-.54 2.76a6.638 6.638 0 0 1-1.46 2.22 6.769 6.769 0 0 1-2.22 1.46c-.867.36-1.8.54-2.8.54h-5.12zm5.18-11.92h-2.78v9.84h2.78a4.14 4.14 0 0 0 1.76-.38 4.53 4.53 0 0 0 1.42-1.02c.4-.44.713-.96.94-1.56.24-.6.36-1.247.36-1.94 0-.693-.12-1.34-.36-1.94a4.793 4.793 0 0 0-.94-1.58c-.4-.44-.873-.787-1.42-1.04a4.14 4.14 0 0 0-1.76-.38zm23.984 4.92c0 1-.187 1.947-.56 2.84-.36.88-.86 1.647-1.5 2.3a6.933 6.933 0 0 1-2.24 1.52 6.957 6.957 0 0 1-2.78.56 6.957 6.957 0 0 1-2.78-.56 7.165 7.165 0 0 1-2.26-1.52 7.525 7.525 0 0 1-1.5-2.3 7.525 7.525 0 0 1-.54-2.84c0-1 .18-1.94.54-2.82a7.224 7.224 0 0 1 1.5-2.3 7.007 7.007 0 0 1 5.04-2.1c.987 0 1.913.187 2.78.56a6.785 6.785 0 0 1 2.24 1.54c.64.64 1.14 1.407 1.5 2.3.373.88.56 1.82.56 2.82zm-2.46 0c0-.72-.12-1.387-.36-2a4.797 4.797 0 0 0-.96-1.62 4.418 4.418 0 0 0-1.46-1.06 4.175 4.175 0 0 0-1.82-.4c-.653 0-1.267.133-1.84.4a4.418 4.418 0 0 0-1.46 1.06 5.06 5.06 0 0 0-.98 1.62 5.44 5.44 0 0 0-.36 2c0 .72.12 1.393.36 2.02a5.12 5.12 0 0 0 .98 1.6c.413.44.9.793 1.46 1.06.573.253 1.187.38 1.84.38a4.37 4.37 0 0 0 1.82-.38 4.836 4.836 0 0 0 1.46-1.06c.413-.453.733-.987.96-1.6.24-.627.36-1.3.36-2.02zm5.951-7h2.34l7.3 10.16-.04-10.16h2.26v14h-2.14l-7.5-10.44.04 10.44h-2.26v-14zm16.675-1h2.28l-1.96 5.28h-1.66l1.34-5.28zm4.389 3.08V103h11.76v2.08h-4.66V117h-2.4v-11.92h-4.7z" fill="#000"/><g clip-path="url(#clip1_10056_90435)"><path fill-rule="evenodd" clip-rule="evenodd" d="M165 109.999c0 6.617 5.388 12 12.01 12 6.623 0 12.01-5.383 12.01-12s-5.387-12-12.01-12c-6.622 0-12.01 5.383-12.01 12zm1.501 0c0-5.79 4.714-10.5 10.509-10.5s10.509 4.71 10.509 10.5-4.714 10.5-10.509 10.5-10.509-4.71-10.509-10.5zm14.482 5.03a.747.747 0 0 0 1.061.001.75.75 0 0 0 0-1.061l-3.973-3.97 3.973-3.97a.744.744 0 0 0 0-1.06.748.748 0 0 0-1.061 0l-3.973 3.97-3.973-3.97a.745.745 0 0 0-.531-.22c-.2 0-.389.078-.53.22a.743.743 0 0 0-.22.53c0 .2.078.389.22.53l3.973 3.97-3.973 3.97a.752.752 0 0 0 .53 1.281c.2 0 .389-.078.531-.22l3.973-3.97 3.973 3.969z" fill="#EE0701"/></g><defs><clipPath id="clip0_10056_90435"><path fill="#fff" transform="translate(.086 98)" d="M0 0H24.02V24H0z"/></clipPath><clipPath id="clip1_10056_90435"><path fill="#fff" transform="translate(165 98)" d="M0 0H24.02V24H0z"/></clipPath></defs></svg>