<svg fill="none" height="252" viewBox="0 0 880 252" width="880" xmlns="http://www.w3.org/2000/svg"><circle cx="100" cy="100" fill="#21ac04" r="100"/><circle cx="236" cy="100" fill="#490192" r="100"/><circle cx="372" cy="100" fill="#006ddb" r="100"/><circle cx="508" cy="100" fill="#b66dff" r="100"/><circle cx="644" cy="100" fill="#db6d00" r="100"/><g fill="#000"><path d="m594.333 242.283c0 .975-.168 1.832-.505 2.571-.338.733-.821 1.298-1.45 1.695-.624.392-1.344.588-2.16.588-.806 0-1.527-.196-2.16-.588-.629-.397-1.117-.959-1.463-1.689-.342-.729-.515-1.57-.519-2.522v-.561c0-.97.17-1.827.512-2.57.347-.743.832-1.31 1.456-1.702.629-.397 1.349-.595 2.16-.595.812 0 1.529.196 2.154.588.629.387 1.114.948 1.456 1.682.342.729.515 1.579.519 2.549zm-1.729-.519c0-1.103-.21-1.949-.629-2.536-.415-.588-1.005-.882-1.771-.882-.747 0-1.333.294-1.756.882-.42.583-.634 1.41-.643 2.481v.574c0 1.094.212 1.939.636 2.536.428.597 1.021.896 1.777.896.766 0 1.354-.292 1.764-.875.415-.583.622-1.436.622-2.557zm7.909 1.401h-1.927v3.835h-1.73v-9.953h3.5c1.148 0 2.035.257 2.659.772.625.515.937 1.26.937 2.236 0 .665-.162 1.223-.486 1.674-.319.447-.765.791-1.339 1.033l2.235 4.149v.089h-1.853zm-1.927-1.388h1.777c.583 0 1.039-.145 1.367-.437.328-.296.492-.7.492-1.21 0-.533-.152-.946-.458-1.237-.301-.292-.752-.442-1.353-.452h-1.825zm13.378 2.906h-3.856l-.806 2.317h-1.798l3.759-9.953h1.552l3.767 9.953h-1.805zm-3.37-1.395h2.884l-1.442-4.129zm15.818 3.712h-1.729l-4.437-7.062v7.062h-1.729v-9.953h1.729l4.45 7.089v-7.089h1.716zm10.473-1.292c-.36.469-.859.825-1.497 1.066-.638.242-1.363.363-2.174.363-.834 0-1.572-.189-2.215-.568-.642-.378-1.139-.918-1.49-1.62-.346-.706-.526-1.529-.54-2.468v-.779c0-1.504.36-2.677 1.08-3.52.72-.848 1.725-1.272 3.015-1.272 1.107 0 1.987.274 2.638.82.652.547 1.044 1.336 1.176 2.366h-1.695c-.192-1.199-.887-1.798-2.085-1.798-.775 0-1.365.28-1.771.841-.401.556-.608 1.374-.622 2.454v.765c0 1.076.226 1.912.677 2.509.456.593 1.087.889 1.894.889.884 0 1.513-.201 1.886-.602v-1.948h-2.05v-1.312h3.773zm8.518-3.151h-4.088v3.062h4.778v1.381h-6.508v-9.953h6.46v1.394h-4.73v2.748h4.088zm9.427-5.51 2.871 7.629 2.864-7.629h2.236v9.953h-1.723v-3.281l.171-4.389-2.94 7.67h-1.237l-2.933-7.663.171 4.382v3.281h-1.722v-9.953zm16.516 7.636h-3.856l-.806 2.317h-1.798l3.76-9.953h1.551l3.767 9.953h-1.805zm-3.37-1.395h2.884l-1.442-4.129zm15.818 3.712h-1.729l-4.437-7.062v7.062h-1.729v-9.953h1.729l4.45 7.089v-7.089h1.716zm10.473-1.292c-.36.469-.859.825-1.497 1.066-.638.242-1.363.363-2.174.363-.834 0-1.572-.189-2.215-.568-.642-.378-1.139-.918-1.49-1.62-.346-.706-.526-1.529-.54-2.468v-.779c0-1.504.36-2.677 1.08-3.52.72-.848 1.725-1.272 3.015-1.272 1.107 0 1.987.274 2.638.82.652.547 1.044 1.336 1.176 2.366h-1.695c-.192-1.199-.887-1.798-2.085-1.798-.775 0-1.365.28-1.771.841-.401.556-.608 1.374-.622 2.454v.765c0 1.076.226 1.912.677 2.509.456.593 1.087.889 1.894.889.884 0 1.513-.201 1.886-.602v-1.948h-2.05v-1.312h3.773zm10.644-3.425c0 .975-.169 1.832-.506 2.571-.337.733-.82 1.298-1.449 1.695-.625.392-1.345.588-2.16.588-.807 0-1.527-.196-2.161-.588-.629-.397-1.116-.959-1.463-1.689-.341-.729-.515-1.57-.519-2.522v-.561c0-.97.171-1.827.513-2.57.346-.743.831-1.31 1.456-1.702.629-.397 1.349-.595 2.16-.595s1.529.196 2.153.588c.629.387 1.114.948 1.456 1.682.342.729.515 1.579.52 2.549zm-1.73-.519c0-1.103-.209-1.949-.629-2.536-.414-.588-1.005-.882-1.77-.882-.748 0-1.333.294-1.757.882-.419.583-.633 1.41-.643 2.481v.574c0 1.094.212 1.939.636 2.536.429.597 1.021.896 1.778.896.765 0 1.353-.292 1.763-.875.415-.583.622-1.436.622-2.557z"/><path d="m738.208 243.165h-1.928v3.835h-1.73v-9.953h3.5c1.149 0 2.035.257 2.66.772.624.515.936 1.26.936 2.236 0 .665-.162 1.223-.485 1.674-.319.447-.766.791-1.34 1.033l2.235 4.149v.089h-1.852zm-1.928-1.388h1.777c.584 0 1.039-.145 1.367-.437.329-.296.493-.7.493-1.21 0-.533-.153-.946-.458-1.237-.301-.292-.752-.442-1.354-.452h-1.825zm13.624.78h-4.088v3.062h4.779v1.381h-6.508v-9.953h6.46v1.394h-4.731v2.748h4.088zm2.899 4.443v-9.953h2.939c.88 0 1.659.196 2.338.588.684.392 1.212.948 1.586 1.668s.561 1.545.561 2.474v.499c0 .944-.19 1.773-.568 2.489-.374.715-.909 1.267-1.606 1.654-.693.387-1.488.581-2.386.581zm1.729-8.559v7.178h1.128c.907 0 1.602-.282 2.085-.848.488-.569.736-1.385.745-2.447v-.553c0-1.081-.234-1.905-.704-2.475-.469-.57-1.151-.855-2.044-.855zm19.285 0h-3.104v8.559h-1.716v-8.559h-3.076v-1.394h7.896zm9.864 3.842c0 .975-.168 1.832-.506 2.571-.337.733-.82 1.298-1.449 1.695-.624.392-1.344.588-2.16.588-.807 0-1.527-.196-2.16-.588-.629-.397-1.117-.959-1.463-1.689-.342-.729-.515-1.57-.52-2.522v-.561c0-.97.171-1.827.513-2.57.346-.743.832-1.31 1.456-1.702.629-.397 1.349-.595 2.16-.595.812 0 1.529.196 2.154.588.629.387 1.114.948 1.456 1.682.342.729.515 1.579.519 2.549zm-1.729-.519c0-1.103-.21-1.949-.629-2.536-.415-.588-1.005-.882-1.771-.882-.747 0-1.333.294-1.756.882-.42.583-.634 1.41-.643 2.481v.574c0 1.094.212 1.939.636 2.536.428.597 1.021.896 1.777.896.766 0 1.354-.292 1.764-.875.414-.583.622-1.436.622-2.557zm6.494-4.717 2.871 7.629 2.864-7.629h2.236v9.953h-1.723v-3.281l.171-4.389-2.939 7.67h-1.238l-2.932-7.663.171 4.382v3.281h-1.723v-9.953zm16.516 7.636h-3.856l-.806 2.317h-1.798l3.76-9.953h1.551l3.767 9.953h-1.805zm-3.37-1.395h2.885l-1.443-4.129zm14.294-4.847h-3.104v8.559h-1.715v-8.559h-3.077v-1.394h7.896zm9.864 3.842c0 .975-.168 1.832-.505 2.571-.338.733-.821 1.298-1.45 1.695-.624.392-1.344.588-2.16.588-.806 0-1.527-.196-2.16-.588-.629-.397-1.117-.959-1.463-1.689-.342-.729-.515-1.57-.519-2.522v-.561c0-.97.17-1.827.512-2.57.347-.743.832-1.31 1.456-1.702.629-.397 1.349-.595 2.16-.595.812 0 1.529.196 2.154.588.629.387 1.114.948 1.456 1.682.342.729.515 1.579.519 2.549zm-1.729-.519c0-1.103-.21-1.949-.629-2.536-.415-.588-1.005-.882-1.771-.882-.747 0-1.333.294-1.756.882-.42.583-.634 1.41-.643 2.481v.574c0 1.094.212 1.939.636 2.536.428.597 1.021.896 1.777.896.766 0 1.354-.292 1.764-.875.415-.583.622-1.436.622-2.557z"/><path d="m59.5166 245.708c-.36.469-.859.825-1.4971 1.066-.638.242-1.3626.363-2.1738.363-.834 0-1.5723-.189-2.2148-.568-.6426-.378-1.1394-.918-1.4903-1.62-.3463-.706-.5263-1.529-.54-2.468v-.779c0-1.504.36-2.677 1.0801-3.52.72-.848 1.7249-1.272 3.0146-1.272 1.1074 0 1.987.274 2.6387.82.6517.547 1.0436 1.336 1.1758 2.366h-1.6953c-.1915-1.199-.8864-1.798-2.085-1.798-.7747 0-1.3649.28-1.7705.841-.4011.556-.6084 1.374-.6221 2.454v.765c0 1.076.2256 1.912.6768 2.509.4557.593 1.0869.889 1.8935.889.8841 0 1.513-.201 1.8867-.602v-1.948h-2.0507v-1.312h3.7734zm6.3576-2.543h-1.9277v3.835h-1.7295v-9.953h3.5c1.1484 0 2.0348.257 2.6592.772.6243.515.9365 1.26.9365 2.236 0 .665-.1618 1.223-.4854 1.674-.319.447-.7656.791-1.3398 1.033l2.2354 4.149v.089h-1.8526zm-1.9277-1.388h1.7773c.5834 0 1.0391-.145 1.3672-.437.3281-.296.4922-.7.4922-1.21 0-.533-.1527-.946-.458-1.237-.3008-.292-.752-.442-1.3535-.452h-1.8252zm13.6242.78h-4.0879v3.062h4.7783v1.381h-6.5078v-9.953h6.46v1.394h-4.7305v2.748h4.0879zm8.716 0h-4.0879v3.062h4.7783v1.381h-6.5078v-9.953h6.46v1.394h-4.7305v2.748h4.0879zm10.7942 4.443h-1.7295l-4.4366-7.062v7.062h-1.7294v-9.953h1.7294l4.4502 7.089v-7.089h1.7159zm12.7011-2.317h-3.855l-.807 2.317h-1.798l3.76-9.953h1.552l3.767 9.953h-1.805zm-3.37-1.395h2.885l-1.442-4.129zm9.653.014v3.698h-1.73v-9.953h3.808c1.112 0 1.994.289 2.645.868.657.579.985 1.344.985 2.297 0 .975-.321 1.734-.964 2.276-.638.543-1.534.814-2.687.814zm0-1.388h2.078c.615 0 1.085-.143 1.408-.431.324-.291.486-.711.486-1.257 0-.538-.165-.967-.493-1.286-.328-.323-.779-.489-1.353-.499h-2.126zm9.755 1.388v3.698h-1.73v-9.953h3.808c1.112 0 1.994.289 2.646.868.656.579.984 1.344.984 2.297 0 .975-.321 1.734-.964 2.276-.638.543-1.533.814-2.686.814zm0-1.388h2.078c.615 0 1.085-.143 1.408-.431.324-.291.486-.711.486-1.257 0-.538-.164-.967-.493-1.286-.328-.323-.779-.489-1.353-.499h-2.126zm9.755 3.705h4.519v1.381h-6.248v-9.953h1.729zm12.462-3.062h-4.088v3.062h4.779v1.381h-6.508v-9.953h6.46v1.394h-4.731v2.748h4.088z"/><path d="m329.811 247v-9.953h3.411c1.126 0 1.983.225 2.571.677.587.451.881 1.123.881 2.016 0 .456-.123.866-.369 1.231-.246.364-.606.647-1.08.847.538.146.953.422 1.244.828.297.401.445.884.445 1.449 0 .934-.301 1.652-.903 2.153-.597.501-1.453.752-2.57.752zm1.73-4.491v3.11h1.921c.542 0 .966-.134 1.271-.403s.458-.643.458-1.121c0-1.035-.529-1.563-1.586-1.586zm0-1.272h1.695c.538 0 .957-.12 1.258-.362.305-.246.458-.592.458-1.039 0-.492-.142-.848-.424-1.066-.278-.219-.713-.329-1.306-.329h-1.681zm9.632 4.382h4.518v1.381h-6.248v-9.953h1.73zm13.761-8.572v6.651c0 1.058-.34 1.896-1.019 2.516-.674.615-1.575.923-2.7.923-1.139 0-2.044-.303-2.714-.909-.67-.611-1.005-1.457-1.005-2.537v-6.644h1.723v6.658c0 .665.168 1.174.506 1.524.337.351.834.527 1.49.527 1.331 0 1.996-.702 1.996-2.106v-6.603zm8.47 5.51h-4.088v3.062h4.778v1.381h-6.508v-9.953h6.46v1.394h-4.73v2.748h4.088zm7.184 4.443v-9.953h3.412c1.125 0 1.982.225 2.57.677.588.451.882 1.123.882 2.016 0 .456-.123.866-.369 1.231-.246.364-.607.647-1.08.847.537.146.952.422 1.244.828.296.401.444.884.444 1.449 0 .934-.301 1.652-.902 2.153-.597.501-1.454.752-2.571.752zm1.73-4.491v3.11h1.921c.542 0 .966-.134 1.271-.403.306-.269.458-.643.458-1.121 0-1.035-.528-1.563-1.586-1.586zm0-1.272h1.695c.538 0 .957-.12 1.258-.362.305-.246.458-.592.458-1.039 0-.492-.141-.848-.424-1.066-.278-.219-.713-.329-1.305-.329h-1.682zm13.72 1.32h-4.088v3.062h4.778v1.381h-6.507v-9.953h6.459v1.394h-4.73v2.748h4.088zm6.556.608h-1.928v3.835h-1.729v-9.953h3.5c1.148 0 2.034.257 2.659.772.624.515.936 1.26.936 2.236 0 .665-.162 1.223-.485 1.674-.319.447-.766.791-1.34 1.033l2.235 4.149v.089h-1.852zm-1.928-1.388h1.777c.584 0 1.039-.145 1.368-.437.328-.296.492-.7.492-1.21 0-.533-.153-.946-.458-1.237-.301-.292-.752-.442-1.354-.452h-1.825zm11.464 1.388h-1.928v3.835h-1.729v-9.953h3.5c1.148 0 2.035.257 2.659.772s.937 1.26.937 2.236c0 .665-.162 1.223-.486 1.674-.319.447-.765.791-1.34 1.033l2.236 4.149v.089h-1.853zm-1.928-1.388h1.778c.583 0 1.039-.145 1.367-.437.328-.296.492-.7.492-1.21 0-.533-.153-.946-.458-1.237-.301-.292-.752-.442-1.353-.452h-1.826zm10.726-.013 2.29-4.717h1.914l-3.336 6.289v3.664h-1.736v-3.664l-3.343-6.289h1.921z"/><path d="m188.944 244.833 2.529-7.786h1.9l-3.582 9.953h-1.674l-3.569-9.953h1.894zm8.183 2.167h-1.723v-9.953h1.723zm10.869-4.717c0 .975-.169 1.832-.506 2.571-.337.733-.82 1.298-1.449 1.695-.625.392-1.345.588-2.16.588-.807 0-1.527-.196-2.16-.588-.629-.397-1.117-.959-1.463-1.689-.342-.729-.515-1.57-.52-2.522v-.561c0-.97.171-1.827.513-2.57.346-.743.831-1.31 1.456-1.702.629-.397 1.349-.595 2.16-.595s1.529.196 2.153.588c.629.387 1.115.948 1.456 1.682.342.729.515 1.579.52 2.549zm-1.73-.519c0-1.103-.209-1.949-.629-2.536-.414-.588-1.004-.882-1.77-.882-.747 0-1.333.294-1.757.882-.419.583-.633 1.41-.642 2.481v.574c0 1.094.211 1.939.635 2.536.429.597 1.021.896 1.778.896.765 0 1.353-.292 1.763-.875.415-.583.622-1.436.622-2.557zm5.982 3.855h4.519v1.381h-6.248v-9.953h1.729zm12.462-3.062h-4.088v3.062h4.779v1.381h-6.508v-9.953h6.46v1.394h-4.731v2.748h4.088zm10.227-4.116h-3.104v8.559h-1.715v-8.559h-3.077v-1.394h7.896zm13.617 7.267c-.36.469-.859.825-1.497 1.066-.638.242-1.362.363-2.173.363-.834 0-1.573-.189-2.215-.568-.643-.378-1.14-.918-1.49-1.62-.347-.706-.527-1.529-.541-2.468v-.779c0-1.504.36-2.677 1.081-3.52.72-.848 1.724-1.272 3.014-1.272 1.108 0 1.987.274 2.639.82.652.547 1.043 1.336 1.176 2.366h-1.696c-.191-1.199-.886-1.798-2.085-1.798-.774 0-1.365.28-1.77.841-.401.556-.609 1.374-.622 2.454v.765c0 1.076.225 1.912.677 2.509.455.593 1.086.889 1.893.889.884 0 1.513-.201 1.887-.602v-1.948h-2.051v-1.312h3.773zm6.358-2.543h-1.928v3.835h-1.729v-9.953h3.5c1.148 0 2.035.257 2.659.772s.937 1.26.937 2.236c0 .665-.162 1.223-.486 1.674-.319.447-.765.791-1.34 1.033l2.236 4.149v.089h-1.853zm-1.928-1.388h1.778c.583 0 1.039-.145 1.367-.437.328-.296.492-.7.492-1.21 0-.533-.153-.946-.458-1.237-.301-.292-.752-.442-1.353-.452h-1.826zm13.378 2.906h-3.855l-.807 2.317h-1.797l3.759-9.953h1.552l3.767 9.953h-1.805zm-3.37-1.395h2.885l-1.442-4.129zm9.653.014v3.698h-1.73v-9.953h3.808c1.112 0 1.994.289 2.646.868.656.579.984 1.344.984 2.297 0 .975-.321 1.734-.964 2.276-.638.543-1.533.814-2.686.814zm0-1.388h2.078c.615 0 1.085-.143 1.408-.431.324-.291.486-.711.486-1.257 0-.538-.164-.967-.493-1.286-.328-.323-.779-.489-1.353-.499h-2.126zm13.843.643h-4.088v3.062h4.778v1.381h-6.507v-9.953h6.459v1.394h-4.73v2.748h4.088z"/><path d="m460.482 243.302v3.698h-1.729v-9.953h3.808c1.112 0 1.993.289 2.645.868.656.579.984 1.344.984 2.297 0 .975-.321 1.734-.963 2.276-.638.543-1.534.814-2.687.814zm0-1.388h2.079c.615 0 1.084-.143 1.408-.431.323-.291.485-.711.485-1.257 0-.538-.164-.967-.492-1.286-.328-.323-.779-.489-1.354-.499h-2.126zm15.306-4.867v6.651c0 1.058-.339 1.896-1.018 2.516-.675.615-1.575.923-2.7.923-1.14 0-2.044-.303-2.714-.909-.67-.611-1.005-1.457-1.005-2.537v-6.644h1.722v6.658c0 .665.169 1.174.506 1.524.338.351.834.527 1.491.527 1.33 0 1.996-.702 1.996-2.106v-6.603zm6.31 6.118h-1.928v3.835h-1.729v-9.953h3.5c1.148 0 2.035.257 2.659.772s.937 1.26.937 2.236c0 .665-.162 1.223-.486 1.674-.319.447-.765.791-1.34 1.033l2.236 4.149v.089h-1.853zm-1.928-1.388h1.778c.583 0 1.039-.145 1.367-.437.328-.296.492-.7.492-1.21 0-.533-.153-.946-.458-1.237-.301-.292-.752-.442-1.353-.452h-1.826zm9.537 1.525v3.698h-1.73v-9.953h3.808c1.112 0 1.994.289 2.645.868.657.579.985 1.344.985 2.297 0 .975-.322 1.734-.964 2.276-.638.543-1.534.814-2.687.814zm0-1.388h2.078c.615 0 1.084-.143 1.408-.431.324-.291.485-.711.485-1.257 0-.538-.164-.967-.492-1.286-.328-.323-.779-.489-1.353-.499h-2.126zm9.755 3.705h4.518v1.381h-6.248v-9.953h1.73zm12.462-3.062h-4.088v3.062h4.778v1.381h-6.508v-9.953h6.46v1.394h-4.73v2.748h4.088zm8.914.745v3.698h-1.729v-9.953h3.807c1.112 0 1.994.289 2.646.868.656.579.984 1.344.984 2.297 0 .975-.321 1.734-.964 2.276-.638.543-1.533.814-2.686.814zm0-1.388h2.078c.616 0 1.085-.143 1.409-.431.323-.291.485-.711.485-1.257 0-.538-.164-.967-.492-1.286-.328-.323-.78-.489-1.354-.499h-2.126zm9.755 3.705h4.519v1.381h-6.248v-9.953h1.729zm13.761-8.572v6.651c0 1.058-.339 1.896-1.018 2.516-.675.615-1.575.923-2.7.923-1.14 0-2.044-.303-2.714-.909-.67-.611-1.005-1.457-1.005-2.537v-6.644h1.722v6.658c0 .665.169 1.174.506 1.524.338.351.834.527 1.491.527 1.33 0 1.996-.702 1.996-2.106v-6.603zm4.895 0 2.871 7.629 2.864-7.629h2.236v9.953h-1.723v-3.281l.171-4.389-2.939 7.67h-1.238l-2.932-7.663.17 4.382v3.281h-1.722v-9.953z"/></g><circle cx="780" cy="100" fill="#b90202" r="100"/></svg>