<svg width="1162" height="579" fill="none" xmlns="http://www.w3.org/2000/svg"><path d="M505.502 150v-11.2h7.648v1.072h-6.416v4.016h4.384v1.072h-4.384V150h-1.232zm8.049-3.904c0-.576.096-1.109.288-1.6.192-.491.453-.917.784-1.28a3.621 3.621 0 0 1 1.216-.848 3.747 3.747 0 0 1 1.504-.304c.544 0 1.045.101 1.504.304.469.203.875.485 1.216.848.341.363.608.789.8 1.28.192.491.288 1.024.288 1.6 0 .576-.101 1.115-.304 1.616a3.916 3.916 0 0 1-.8 1.296 3.761 3.761 0 0 1-1.2.848 3.747 3.747 0 0 1-1.504.304 3.747 3.747 0 0 1-1.504-.304 3.858 3.858 0 0 1-1.2-.864 4.337 4.337 0 0 1-.8-1.28 4.479 4.479 0 0 1-.288-1.616zm3.792 3.024c.757 0 1.387-.283 1.888-.848.512-.576.768-1.296.768-2.16 0-.864-.256-1.584-.768-2.16-.501-.576-1.131-.864-1.888-.864-.757 0-1.387.288-1.888.864-.501.576-.752 1.296-.752 2.16 0 .864.251 1.584.752 2.16a2.418 2.418 0 0 0 1.888.848zm5.857.88v-7.808h1.168v1.584c.202-.544.49-.965.864-1.264a2.035 2.035 0 0 1 1.312-.464c.138 0 .266.011.384.032.117.011.234.037.352.08v1.056a2.326 2.326 0 0 0-.416-.096 2.023 2.023 0 0 0-1.664.368c-.352.277-.63.667-.832 1.168V150H523.2zm12.905-3.904a4.31 4.31 0 0 1-.288 1.584 3.888 3.888 0 0 1-.768 1.28c-.331.352-.72.635-1.168.848a3.448 3.448 0 0 1-1.44.304 3.31 3.31 0 0 1-1.376-.288 3.34 3.34 0 0 1-1.088-.848V150h-1.152v-11.44l1.168-.24v4.944a3.125 3.125 0 0 1 1.088-.848 3.14 3.14 0 0 1 1.424-.32c.501 0 .97.107 1.408.32a3.37 3.37 0 0 1 1.152.848c.32.352.57.773.752 1.264.192.491.288 1.013.288 1.568zm-3.888-2.976c-.459 0-.886.096-1.28.288a2.408 2.408 0 0 0-.944.784v3.824c.256.341.576.608.96.8a2.85 2.85 0 0 0 1.264.288c.778 0 1.429-.283 1.952-.848.522-.576.784-1.291.784-2.144 0-.853-.262-1.563-.784-2.128a2.53 2.53 0 0 0-1.952-.864zm5.936 6.88v-7.808h1.168v1.584c.203-.544.491-.965.864-1.264a2.035 2.035 0 0 1 1.312-.464c.139 0 .267.011.384.032.117.011.235.037.352.08v1.056a2.326 2.326 0 0 0-.416-.096 2.025 2.025 0 0 0-1.664.368c-.352.277-.629.667-.832 1.168V150h-1.168zm6.636-7.808v4.704c0 .693.187 1.243.56 1.648.373.405.88.608 1.52.608.427 0 .816-.101 1.168-.304.352-.203.645-.496.88-.88v-5.776h1.168V150h-1.168v-1.264c-.299.459-.656.805-1.072 1.04a2.811 2.811 0 0 1-1.408.352c-.832 0-1.515-.267-2.048-.8-.523-.544-.784-1.243-.784-2.096v-5.04h1.184zm7.692 7.808v-11.44l1.168-.24v7.376l3.712-3.504h1.408l-3.968 3.712 4.144 4.096h-1.536l-3.76-3.728V150h-1.168zm14.542-11.2V150h-1.744v-9.376l-1.984.864v-1.552l2.624-1.136h1.104zm6.589 11.344a4.433 4.433 0 0 1-1.888-.4 4.43 4.43 0 0 1-1.472-1.12 5.176 5.176 0 0 1-.944-1.728 6.946 6.946 0 0 1-.336-2.208c0-.907.122-1.733.368-2.48.256-.747.608-1.381 1.056-1.904a4.76 4.76 0 0 1 1.648-1.216 5.07 5.07 0 0 1 2.144-.448c.533 0 1.066.085 1.6.256.544.171 1.002.405 1.376.704l-.96 1.296a3.303 3.303 0 0 0-1.024-.512 3.581 3.581 0 0 0-1.136-.176c-1.035 0-1.846.395-2.432 1.184-.587.779-.886 1.867-.896 3.264a4.104 4.104 0 0 1 1.392-1.2 3.578 3.578 0 0 1 1.696-.432c.544 0 1.045.085 1.504.256.458.171.853.411 1.184.72.33.299.586.661.768 1.088.192.416.288.875.288 1.376 0 .533-.102 1.024-.304 1.472a3.452 3.452 0 0 1-.816 1.168c-.342.32-.758.576-1.248.768a4.41 4.41 0 0 1-1.568.272zm-.08-5.728a3.41 3.41 0 0 0-1.52.352c-.47.235-.875.565-1.216.992.138.864.453 1.563.944 2.096.501.523 1.104.784 1.808.784.65 0 1.194-.203 1.632-.608.437-.405.656-.912.656-1.52s-.219-1.109-.656-1.504c-.427-.395-.976-.592-1.648-.592zm9.726 5.76c-.608 0-1.168-.08-1.68-.24a4.201 4.201 0 0 1-1.328-.672 3.058 3.058 0 0 1-.848-1.04 2.889 2.889 0 0 1-.304-1.312c0-.64.224-1.211.672-1.712.458-.501 1.04-.843 1.744-1.024-.608-.203-1.104-.528-1.488-.976a2.308 2.308 0 0 1-.56-1.52c0-.437.096-.843.288-1.216.192-.373.453-.693.784-.96a3.69 3.69 0 0 1 1.2-.64c.469-.16.97-.24 1.504-.24.533 0 1.034.08 1.504.24.469.149.869.363 1.2.64.341.267.608.587.8.96.192.373.288.779.288 1.216 0 .565-.192 1.072-.576 1.52a3.186 3.186 0 0 1-1.456.976c.704.181 1.28.523 1.728 1.024.458.501.688 1.072.688 1.712 0 .469-.107.907-.32 1.312a3.081 3.081 0 0 1-.848 1.04c-.363.288-.8.512-1.312.672-.512.16-1.072.24-1.68.24zm0-6.656c.576 0 1.061-.165 1.456-.496.405-.331.608-.741.608-1.232s-.203-.901-.608-1.232c-.395-.341-.88-.512-1.456-.512-.587 0-1.083.171-1.488.512-.395.331-.592.741-.592 1.232s.202.901.608 1.232c.405.331.896.496 1.472.496zm0 5.2c.682 0 1.253-.187 1.712-.56.458-.373.688-.832.688-1.376 0-.544-.23-.997-.688-1.36-.459-.363-1.03-.544-1.712-.544-.694 0-1.27.181-1.728.544-.459.363-.688.816-.688 1.36 0 .544.229 1.003.688 1.376.458.373 1.034.56 1.728.56zm6.038-.288h1.824l-1.568 4.224h-1.328l1.072-4.224zm11.396-1.552c0 .469-.107.907-.32 1.312a3.003 3.003 0 0 1-.864 1.04 4.26 4.26 0 0 1-1.312.688c-.512.16-1.072.24-1.68.24a6.225 6.225 0 0 1-2.32-.432 5.244 5.244 0 0 1-1.824-1.248l1.184-1.104c.448.459.896.784 1.344.976.448.181.981.272 1.6.272.714 0 1.296-.171 1.744-.512.458-.352.688-.8.688-1.344 0-.491-.187-.891-.56-1.2-.374-.32-.848-.48-1.424-.48h-1.392v-1.456h1.248c.533 0 .96-.149 1.28-.448.33-.309.496-.72.496-1.232 0-.501-.203-.923-.608-1.264-.406-.341-.912-.512-1.52-.512-.555 0-1.046.101-1.472.304-.416.192-.854.533-1.312 1.024l-1.184-1.104a5.436 5.436 0 0 1 4.032-1.776c.554 0 1.066.08 1.536.24.469.16.869.379 1.2.656.341.277.608.608.8.992.192.384.288.8.288 1.248 0 .608-.203 1.147-.608 1.616-.406.459-.928.773-1.568.944.757.149 1.365.459 1.824.928.469.459.704 1.003.704 1.632zm5.261-8.24c.682 0 1.306.133 1.872.4.576.267 1.066.64 1.472 1.12.416.48.736 1.056.96 1.728.224.672.336 1.408.336 2.208 0 .907-.128 1.733-.384 2.48-.246.747-.598 1.381-1.056 1.904a4.754 4.754 0 0 1-1.648 1.232c-.64.288-1.35.432-2.128.432a5.363 5.363 0 0 1-1.616-.256 4.193 4.193 0 0 1-1.36-.704l.96-1.296c.32.235.656.411 1.008.528.362.107.746.16 1.152.16 1.034 0 1.845-.389 2.432-1.168.586-.789.885-1.883.896-3.28a4.242 4.242 0 0 1-1.408 1.216 3.601 3.601 0 0 1-1.68.416 4.27 4.27 0 0 1-1.504-.256 3.626 3.626 0 0 1-1.184-.704 3.452 3.452 0 0 1-.784-1.088 3.513 3.513 0 0 1-.272-1.392c0-.533.096-1.024.288-1.472.202-.448.474-.832.816-1.152a3.71 3.71 0 0 1 1.248-.768 4.303 4.303 0 0 1 1.584-.288zm.08 5.728c.533 0 1.034-.117 1.504-.352.48-.235.89-.565 1.232-.992-.139-.864-.459-1.557-.96-2.08-.491-.533-1.088-.8-1.792-.8-.651 0-1.195.203-1.632.608a1.984 1.984 0 0 0-.656 1.52c0 .608.213 1.109.64 1.504.437.395.992.592 1.664.592zM616.104 150v-11.44l1.808-.304v7.152l3.328-3.424h2.064l-3.664 3.712 3.888 4.304h-2.32l-3.296-3.696V150h-1.808zm12.576 0h-2l-2.448-11.2h1.952l1.664 8.208 2.4-8.208h1.824l2.4 8.208 1.664-8.208h1.888l-2.448 11.2h-2l-2.448-8.496L628.68 150zm11.049 0v-11.44l1.808-.304v5.04c.299-.469.662-.827 1.088-1.072a2.93 2.93 0 0 1 1.456-.368c.811 0 1.472.272 1.984.816.523.533.784 1.216.784 2.048V150h-1.808v-4.768c0-.576-.16-1.04-.48-1.392-.32-.352-.746-.528-1.28-.528-.362 0-.693.085-.992.256-.288.16-.538.395-.752.704V150h-1.808zM1023.99 27v-9.8h1.47v8.498h5.65V27h-7.12zm10.69.126c-.78 0-1.41-.2-1.89-.602-.49-.401-.73-.924-.73-1.568 0-.672.26-1.2.77-1.582.51-.392 1.22-.588 2.12-.588.34 0 .68.037 1 .112.33.065.64.159.94.28v-.756c0-.504-.15-.882-.45-1.134-.3-.252-.72-.378-1.28-.378-.33 0-.67.051-1.03.154-.35.093-.75.243-1.19.448l-.51-1.05a7.502 7.502 0 0 1 1.51-.546c.47-.121.94-.182 1.41-.182.93 0 1.64.224 2.14.672.52.439.77 1.064.77 1.876V27h-1.37v-.616c-.32.252-.66.439-1.02.56-.36.121-.76.182-1.19.182zm-1.27-2.198c0 .345.14.625.43.84.3.215.69.322 1.16.322.37 0 .72-.056 1.04-.168.31-.112.6-.28.85-.504v-1.232c-.27-.15-.55-.257-.85-.322a4.07 4.07 0 0 0-.98-.112c-.51 0-.91.107-1.21.322-.3.215-.44.5-.44.854zm5.79 1.148l.76-.924c.37.29.75.513 1.13.672.4.15.79.224 1.19.224.51 0 .92-.098 1.24-.294.31-.196.47-.453.47-.77a.722.722 0 0 0-.28-.602c-.18-.15-.47-.252-.87-.308l-1.28-.182c-.7-.103-1.24-.317-1.6-.644-.35-.336-.53-.78-.53-1.33 0-.644.26-1.162.77-1.554.51-.401 1.18-.602 2.01-.602.53 0 1.02.075 1.49.224.47.15.94.378 1.38.686l-.71.924a4.216 4.216 0 0 0-1.15-.56 3.439 3.439 0 0 0-1.1-.182c-.43 0-.78.089-1.04.266-.26.177-.39.41-.39.7 0 .261.09.462.26.602.19.13.49.229.91.294l1.29.182c.7.103 1.23.322 1.6.658.37.336.56.78.56 1.33 0 .317-.08.616-.24.896-.15.27-.36.504-.63.7-.26.196-.57.355-.94.476a3.92 3.92 0 0 1-1.17.168c-.62 0-1.2-.089-1.74-.266a4.077 4.077 0 0 1-1.39-.784zm7.97-.84V21.05h-1.51v-1.176h1.51v-1.82l1.39-.336v2.156h2.1v1.176h-2.1v3.864c0 .364.08.62.24.77.16.15.43.224.81.224.19 0 .37-.01.52-.028.15-.028.32-.075.5-.14v1.176c-.19.065-.41.117-.66.154-.24.037-.46.056-.67.056-.69 0-1.22-.159-1.58-.476-.37-.327-.55-.798-.55-1.414zm7.45 1.764v-7.126h1.4v.714c.28-.28.59-.49.95-.63.36-.15.76-.224 1.19-.224.81 0 1.48.261 2 .784.52.513.78 1.18.78 2.002V27h-1.4v-4.242c0-.56-.16-.999-.49-1.316-.31-.327-.74-.49-1.27-.49-.37 0-.71.08-1.02.238-.3.159-.55.387-.74.686V27h-1.4zm14.11-.812a4.61 4.61 0 0 1-1.29.714c-.44.15-.93.224-1.47.224-.52 0-1.01-.093-1.47-.28a4.021 4.021 0 0 1-1.19-.784c-.33-.327-.6-.714-.79-1.162a3.79 3.79 0 0 1-.28-1.47c0-.513.09-.994.28-1.442.18-.448.44-.835.75-1.162.32-.327.7-.583 1.14-.77.44-.196.9-.294 1.4-.294.48 0 .93.098 1.35.294.43.187.8.448 1.1.784.3.327.55.719.72 1.176.18.457.27.947.27 1.47v.406h-5.63c.1.588.37 1.078.81 1.47.45.383.98.574 1.6.574.35 0 .68-.056.99-.168.32-.112.59-.266.82-.462l.89.882zm-2.95-5.25c-.53 0-1 .177-1.4.532-.39.355-.64.812-.74 1.372h4.22c-.1-.541-.35-.994-.74-1.358a1.88 1.88 0 0 0-1.34-.546zM1076.07 27v-.672c-.3.252-.63.448-1.01.588-.37.13-.76.196-1.17.196-.51 0-.98-.093-1.42-.28a3.664 3.664 0 0 1-1.14-.784 3.7 3.7 0 0 1-1.04-2.618 3.7 3.7 0 0 1 1.04-2.604c.32-.327.71-.583 1.16-.77a3.52 3.52 0 0 1 1.43-.294c.39 0 .77.06 1.13.182.36.121.7.294 1.01.518V17.2l1.4-.308V27h-1.39zm-4.41-3.584c0 .7.23 1.288.7 1.764a2.32 2.32 0 0 0 1.72.714c.4 0 .77-.075 1.11-.224.34-.15.63-.36.87-.63v-3.234a2.567 2.567 0 0 0-.87-.616c-.35-.15-.71-.224-1.11-.224-.68 0-1.25.233-1.72.7-.47.467-.7 1.05-.7 1.75zm9.79-3.542h1.65v-1.078c0-.737.21-1.302.62-1.694.42-.401 1.02-.602 1.81-.602.18 0 .36.014.53.042.17.019.33.047.47.084v1.218c-.16-.047-.31-.08-.44-.098a3.147 3.147 0 0 0-.44-.028c-.38 0-.67.093-.87.28-.18.177-.28.453-.28.826v1.05h2.03v1.176h-2.03V27h-1.4v-5.95h-1.65v-1.176zm5.53 3.556c0-.513.1-.994.28-1.442.2-.457.46-.85.8-1.176.34-.336.73-.597 1.18-.784.45-.196.94-.294 1.45-.294.52 0 1 .098 1.44.294.46.187.85.448 1.18.784.34.327.6.719.78 1.176.2.448.3.929.3 1.442 0 .523-.1 1.013-.3 1.47-.18.448-.44.84-.78 1.176-.33.327-.72.588-1.18.784-.44.187-.92.28-1.44.28-.51 0-1-.093-1.45-.28a3.973 3.973 0 0 1-1.18-.784c-.34-.336-.6-.728-.8-1.176a3.983 3.983 0 0 1-.28-1.47zm3.71 2.478c.65 0 1.19-.238 1.64-.714.46-.485.69-1.073.69-1.764 0-.69-.23-1.274-.69-1.75-.45-.476-.99-.714-1.64-.714-.64 0-1.19.238-1.65.714-.46.476-.69 1.06-.69 1.75s.23 1.279.68 1.764c.45.476 1.01.714 1.66.714zm5.02 1.092v-7.126h1.4v.91c.22-.345.49-.607.83-.784.33-.187.71-.28 1.13-.28.15 0 .28.01.39.028.12.019.22.047.33.084v1.26a2.916 2.916 0 0 0-.41-.112 2.137 2.137 0 0 0-.42-.042c-.41 0-.78.112-1.11.336-.31.215-.56.537-.74.966V27h-1.4zm12.37-3.57c0 .513-.1.999-.28 1.456-.19.448-.45.835-.77 1.162-.32.327-.7.588-1.15.784-.45.187-.93.28-1.43.28-.4 0-.78-.06-1.15-.182-.36-.121-.7-.299-1.01-.532V27h-1.38v-9.8l1.4-.308v3.654c.29-.252.62-.443.99-.574.38-.14.77-.21 1.18-.21.5 0 .97.098 1.41.294.44.187.82.443 1.14.77.32.327.58.714.77 1.162.18.448.28.929.28 1.442zm-3.78-2.45c-.41 0-.78.075-1.12.224-.35.15-.64.36-.87.63v3.22c.22.261.51.467.85.616.36.15.73.224 1.14.224.68 0 1.25-.233 1.7-.7.47-.467.7-1.05.7-1.75s-.23-1.283-.7-1.75a2.276 2.276 0 0 0-1.7-.714zm5.11 6.02v-7.126h1.4v.91c.22-.345.49-.607.83-.784.33-.187.71-.28 1.13-.28.15 0 .28.01.39.028.12.019.22.047.33.084v1.26a2.916 2.916 0 0 0-.41-.112 2.137 2.137 0 0 0-.42-.042c-.41 0-.78.112-1.11.336-.31.215-.56.537-.74.966V27h-1.4zm6.49-7.126v4.228c0 .56.16 1.003.47 1.33.33.327.76.49 1.29.49.37 0 .71-.08 1.01-.238.3-.168.55-.401.74-.7v-5.11h1.4V27h-1.4v-.714c-.28.28-.6.495-.96.644-.36.14-.75.21-1.18.21-.81 0-1.48-.261-2-.784s-.77-1.195-.77-2.016v-4.466h1.4zm6.57 7.126v-9.8l1.4-.308v6.118l3.46-3.136h1.63l-3.66 3.346 3.86 3.78h-1.85l-3.44-3.36V27h-1.4z" fill="#000"/><g clip-path="url(#clip0_15_31517)" fill="#000"><path d="M1144.83 24.969c.05.02.11.031.17.031.06 0 .12-.01.17-.031.01-.002.01-.005.02-.007a.448.448 0 0 0 .16-.11l3-3c.1-.093.15-.22.15-.353 0-.133-.05-.259-.15-.353a.486.486 0 0 0-.35-.147c-.13 0-.26.052-.35.147l-2.15 2.147V16.5c0-.276-.22-.5-.5-.5s-.5.224-.5.5v6.793l-2.15-2.146A.486.486 0 0 0 1142 21c-.13 0-.26.052-.35.147-.1.094-.15.22-.15.353 0 .133.05.26.15.353l3 3c.04.048.1.084.16.11l.02.006z"/><path d="M1137 25.5c0 1.379 1.12 2.5 2.5 2.5h11c1.38 0 2.5-1.121 2.5-2.5v-1c0-.276-.22-.5-.5-.5s-.5.224-.5.5v1a1.5 1.5 0 0 1-1.5 1.5h-11a1.5 1.5 0 0 1-1.5-1.5v-1c0-.276-.22-.5-.5-.5s-.5.224-.5.5v1z"/></g><rect x=".5" y="8.5" width="123" height="31" rx="3.5" fill="#fff"/><path d="M16.076 29v-.91a2.676 2.676 0 0 1-.952.756 2.968 2.968 0 0 1-1.232.252c-.438 0-.854-.089-1.246-.266a3.263 3.263 0 0 1-.994-.742 3.729 3.729 0 0 1-.672-1.12 3.926 3.926 0 0 1-.238-1.372c0-.495.08-.957.238-1.386a3.41 3.41 0 0 1 .686-1.106c.29-.317.63-.565 1.022-.742.392-.187.812-.28 1.26-.28.42 0 .812.084 1.176.252.364.159.681.392.952.7V18.99l1.022-.21V29h-1.022zm-4.326-3.416c0 .747.229 1.372.686 1.876a2.231 2.231 0 0 0 1.708.742c.402 0 .77-.08 1.106-.238.336-.159.611-.383.826-.672v-3.388a2.247 2.247 0 0 0-.854-.672 2.378 2.378 0 0 0-1.078-.252 2.23 2.23 0 0 0-1.708.742c-.457.495-.686 1.115-.686 1.862zM24.225 29v-.91a2.676 2.676 0 0 1-.952.756 2.968 2.968 0 0 1-1.232.252 2.99 2.99 0 0 1-1.246-.266 3.264 3.264 0 0 1-.994-.742 3.729 3.729 0 0 1-.672-1.12 3.928 3.928 0 0 1-.238-1.372c0-.495.079-.957.238-1.386a3.41 3.41 0 0 1 .686-1.106c.289-.317.63-.565 1.022-.742.392-.187.812-.28 1.26-.28.42 0 .812.084 1.176.252.364.159.681.392.952.7V18.99l1.022-.21V29h-1.022zm-4.326-3.416c0 .747.228 1.372.686 1.876a2.231 2.231 0 0 0 1.708.742c.401 0 .77-.08 1.106-.238.336-.159.611-.383.826-.672v-3.388a2.246 2.246 0 0 0-.854-.672 2.378 2.378 0 0 0-1.078-.252 2.23 2.23 0 0 0-1.708.742c-.458.495-.686 1.115-.686 1.862zm7.938 2.002c.196 0 .364.075.504.224.15.15.224.327.224.532a.743.743 0 0 1-.224.546.667.667 0 0 1-.504.224.727.727 0 0 1-.532-.224.77.77 0 0 1-.21-.546c0-.205.07-.383.21-.532a.726.726 0 0 1 .532-.224zM30.423 29v-6.832h1.022v1.064c.262-.392.56-.686.896-.882a2.209 2.209 0 0 1 1.134-.294c.476 0 .896.121 1.26.364.374.243.654.565.84.966.262-.439.584-.77.966-.994a2.557 2.557 0 0 1 1.316-.336c.682 0 1.237.238 1.666.714.439.467.658 1.073.658 1.82V29H39.16v-4.158c0-.588-.154-1.055-.462-1.4-.298-.355-.704-.532-1.218-.532-.354 0-.676.089-.966.266-.29.177-.536.448-.742.812a3.375 3.375 0 0 1 .056.602V29h-1.022v-4.158c0-.588-.154-1.055-.462-1.4-.308-.355-.718-.532-1.232-.532-.345 0-.658.084-.938.252-.28.168-.522.42-.728.756V29h-1.022zm11.826 0v-6.832h1.022v1.064c.262-.392.56-.686.896-.882a2.209 2.209 0 0 1 1.134-.294c.476 0 .896.121 1.26.364.374.243.654.565.84.966.262-.439.584-.77.966-.994a2.556 2.556 0 0 1 1.316-.336c.682 0 1.237.238 1.666.714.44.467.658 1.073.658 1.82V29h-1.022v-4.158c0-.588-.154-1.055-.462-1.4-.298-.355-.704-.532-1.218-.532-.354 0-.676.089-.966.266-.289.177-.536.448-.742.812a3.41 3.41 0 0 1 .056.602V29h-1.022v-4.158c0-.588-.154-1.055-.462-1.4-.308-.355-.718-.532-1.232-.532-.345 0-.658.084-.938.252-.28.168-.522.42-.728.756V29H42.25zm12.317-1.414c.196 0 .364.075.504.224.149.15.224.327.224.532a.743.743 0 0 1-.224.546.667.667 0 0 1-.504.224.727.727 0 0 1-.532-.224.77.77 0 0 1-.21-.546c0-.205.07-.383.21-.532a.726.726 0 0 1 .532-.224zm4.536 1.54c-.728 0-1.326-.191-1.792-.574-.458-.392-.686-.896-.686-1.512 0-.607.233-1.097.7-1.47.476-.373 1.096-.56 1.862-.56.392 0 .76.047 1.106.14.354.084.681.215.98.392v-.938c0-.56-.15-.98-.448-1.26-.299-.29-.738-.434-1.316-.434-.318 0-.644.047-.98.14-.327.093-.691.243-1.092.448l-.378-.784c.466-.224.91-.387 1.33-.49a4.82 4.82 0 0 1 1.246-.168c.84 0 1.488.21 1.946.63.466.41.7 1.003.7 1.778V29h-1.008v-.798c-.299.308-.63.541-.994.7-.364.15-.756.224-1.176.224zm-1.498-2.114c0 .401.158.723.476.966.317.243.728.364 1.232.364.382 0 .732-.065 1.05-.196.326-.13.63-.327.91-.588v-1.316a3.349 3.349 0 0 0-.896-.364 3.938 3.938 0 0 0-1.036-.126c-.523 0-.943.117-1.26.35-.318.233-.476.537-.476.91zm1.904-6.02a1.55 1.55 0 0 1-1.12-.448 1.55 1.55 0 0 1-.448-1.12c0-.43.149-.793.448-1.092a1.55 1.55 0 0 1 1.12-.448c.429 0 .798.15 1.106.448.308.299.462.663.462 1.092 0 .439-.154.812-.462 1.12a1.533 1.533 0 0 1-1.106.448zm0-.56c.27 0 .499-.093.686-.28.186-.196.28-.439.28-.728a.91.91 0 0 0-.294-.686.916.916 0 0 0-.672-.28.95.95 0 0 0-.7.28.933.933 0 0 0-.28.686c0 .29.093.532.28.728a.95.95 0 0 0 .7.28zm6.963 8.694c-.728 0-1.326-.191-1.792-.574-.457-.392-.686-.896-.686-1.512 0-.607.233-1.097.7-1.47.476-.373 1.097-.56 1.862-.56.392 0 .76.047 1.106.14.355.084.681.215.98.392v-.938c0-.56-.15-.98-.448-1.26-.299-.29-.737-.434-1.316-.434-.317 0-.644.047-.98.14-.327.093-.69.243-1.092.448l-.378-.784c.466-.224.91-.387 1.33-.49.42-.112.835-.168 1.246-.168.84 0 1.489.21 1.946.63.466.41.7 1.003.7 1.778V29H68.64v-.798c-.299.308-.63.541-.994.7-.364.15-.756.224-1.176.224zm-1.498-2.114c0 .401.159.723.476.966.317.243.728.364 1.232.364.383 0 .733-.065 1.05-.196.327-.13.63-.327.91-.588v-1.316a3.349 3.349 0 0 0-.896-.364 3.938 3.938 0 0 0-1.036-.126c-.523 0-.943.117-1.26.35-.317.233-.476.537-.476.91zm1.904-6.02a1.55 1.55 0 0 1-1.12-.448 1.55 1.55 0 0 1-.448-1.12c0-.43.15-.793.448-1.092a1.55 1.55 0 0 1 1.12-.448c.43 0 .798.15 1.106.448.308.299.462.663.462 1.092 0 .439-.154.812-.462 1.12a1.533 1.533 0 0 1-1.106.448zm0-.56c.27 0 .5-.093.686-.28.186-.196.28-.439.28-.728a.91.91 0 0 0-.294-.686.916.916 0 0 0-.672-.28.95.95 0 0 0-.7.28.933.933 0 0 0-.28.686c0 .29.093.532.28.728a.95.95 0 0 0 .7.28zm6.963 8.694c-.728 0-1.325-.191-1.792-.574-.457-.392-.686-.896-.686-1.512 0-.607.233-1.097.7-1.47.476-.373 1.097-.56 1.862-.56.392 0 .76.047 1.106.14.355.084.681.215.98.392v-.938c0-.56-.15-.98-.448-1.26-.299-.29-.737-.434-1.316-.434-.317 0-.644.047-.98.14-.327.093-.69.243-1.092.448l-.378-.784c.467-.224.91-.387 1.33-.49a4.82 4.82 0 0 1 1.246-.168c.84 0 1.489.21 1.946.63.467.41.7 1.003.7 1.778V29H76.01v-.798c-.299.308-.63.541-.994.7-.364.15-.756.224-1.176.224zm-1.498-2.114c0 .401.159.723.476.966.317.243.728.364 1.232.364.383 0 .733-.065 1.05-.196.327-.13.63-.327.91-.588v-1.316a3.35 3.35 0 0 0-.896-.364 3.939 3.939 0 0 0-1.036-.126c-.523 0-.943.117-1.26.35-.317.233-.476.537-.476.91zm1.904-6.02a1.55 1.55 0 0 1-1.12-.448 1.55 1.55 0 0 1-.448-1.12c0-.43.15-.793.448-1.092a1.55 1.55 0 0 1 1.12-.448c.43 0 .798.15 1.106.448.308.299.462.663.462 1.092 0 .439-.154.812-.462 1.12a1.533 1.533 0 0 1-1.106.448zm0-.56c.27 0 .5-.093.686-.28.187-.196.28-.439.28-.728a.91.91 0 0 0-.294-.686.916.916 0 0 0-.672-.28.95.95 0 0 0-.7.28.933.933 0 0 0-.28.686c0 .29.093.532.28.728a.95.95 0 0 0 .7.28zm6.963 8.694c-.728 0-1.325-.191-1.792-.574-.457-.392-.686-.896-.686-1.512 0-.607.233-1.097.7-1.47.476-.373 1.097-.56 1.862-.56.392 0 .76.047 1.106.14.355.084.681.215.98.392v-.938c0-.56-.15-.98-.448-1.26-.299-.29-.737-.434-1.316-.434-.317 0-.644.047-.98.14-.327.093-.69.243-1.092.448l-.378-.784c.467-.224.91-.387 1.33-.49a4.82 4.82 0 0 1 1.246-.168c.84 0 1.489.21 1.946.63.467.41.7 1.003.7 1.778V29H83.38v-.798c-.299.308-.63.541-.994.7-.364.15-.756.224-1.176.224zm-1.498-2.114c0 .401.159.723.476.966.317.243.728.364 1.232.364.383 0 .733-.065 1.05-.196.327-.13.63-.327.91-.588v-1.316a3.349 3.349 0 0 0-.896-.364 3.938 3.938 0 0 0-1.036-.126c-.523 0-.943.117-1.26.35-.317.233-.476.537-.476.91zm1.904-6.02a1.55 1.55 0 0 1-1.12-.448 1.55 1.55 0 0 1-.448-1.12c0-.43.15-.793.448-1.092a1.55 1.55 0 0 1 1.12-.448c.43 0 .798.15 1.106.448.308.299.462.663.462 1.092 0 .439-.154.812-.462 1.12a1.533 1.533 0 0 1-1.106.448zm0-.56c.27 0 .5-.093.686-.28.187-.196.28-.439.28-.728a.91.91 0 0 0-.294-.686.916.916 0 0 0-.672-.28.95.95 0 0 0-.7.28.933.933 0 0 0-.28.686c0 .29.093.532.28.728a.95.95 0 0 0 .7.28z" fill="#676767"/><g clip-path="url(#clip1_15_31517)"><path fill-rule="evenodd" clip-rule="evenodd" d="M96.001 30.5c0 .827.673 1.5 1.5 1.5h13c.827 0 1.5-.673 1.5-1.5v-11c0-.827-.673-1.5-1.5-1.5h-2.5v-1.5a.5.5 0 0 0-1 0V18h-6v-1.5a.5.5 0 0 0-1 0V18h-2.5c-.827 0-1.5.673-1.5 1.5v11zm1.5.5a.5.5 0 0 1-.5-.5V23h14v7.5a.5.5 0 0 1-.5.5h-13zm13.5-11.5V22h-14v-2.5a.5.5 0 0 1 .5-.5h2.5v1a.5.5 0 0 0 1 0v-1h6v1a.5.5 0 0 0 1 0v-1h2.5a.5.5 0 0 1 .5.5zm-12.5 9.5a.5.5 0 1 0 0 1h2.999a.5.5 0 0 0 0-1h-3z" fill="#000"/></g><rect x=".5" y="8.5" width="123" height="31" rx="3.5" stroke="#000"/><path transform="translate(7)" fill="#fff" d="M0 0H45V12H0z"/><path d="M10.84 10V3h5.03v1.02h-3.83v2h2.64v1h-2.64V10h-1.2zm5.73 0V4.99h1.13v1.09c.133-.38.316-.67.55-.87.24-.207.516-.31.83-.31.093.007.176.017.25.03.073.013.153.037.24.07v.99a1.22 1.22 0 0 0-.3-.09 1.732 1.732 0 0 0-.32-.03c-.267 0-.51.073-.73.22-.22.147-.394.35-.52.61V10h-1.13zm5.279.08c-.52 0-.947-.14-1.28-.42a1.398 1.398 0 0 1-.49-1.1c0-.447.17-.803.51-1.07.347-.267.813-.4 1.4-.4.233 0 .46.027.68.08.22.047.443.123.67.23v-.55c0-.327-.097-.573-.29-.74-.193-.173-.48-.26-.86-.26-.207 0-.43.033-.67.1-.24.06-.503.157-.79.29l-.4-.82a5.6 5.6 0 0 1 1.07-.38c.34-.087.677-.13 1.01-.13.647 0 1.15.16 1.51.48.36.313.54.76.54 1.34V10h-1.12v-.51c-.227.207-.46.357-.7.45-.24.093-.503.14-.79.14zm-.71-1.54c0 .227.093.41.28.55.187.133.433.2.74.2.227 0 .437-.033.63-.1.2-.067.383-.17.55-.31v-.82a2.125 2.125 0 0 0-.55-.18c-.187-.04-.39-.06-.61-.06-.32 0-.573.067-.76.2a.596.596 0 0 0-.28.52zM31.653 10v-.67a1.757 1.757 0 0 1-.67.53c-.267.127-.557.19-.87.19-.313 0-.61-.067-.89-.2a2.339 2.339 0 0 1-.73-.54c-.2-.233-.36-.503-.48-.81a2.918 2.918 0 0 1-.17-1c0-.353.06-.687.18-1 .12-.313.283-.583.49-.81.213-.227.463-.407.75-.54.287-.133.593-.2.92-.2.287 0 .553.06.8.18.253.113.473.273.66.48V2.85l1.13-.19V10h-1.12zm-2.69-2.5c0 .453.143.833.43 1.14.287.307.64.46 1.06.46.24 0 .46-.047.66-.14a1.44 1.44 0 0 0 .53-.41V6.44a1.542 1.542 0 0 0-.53-.39c-.207-.1-.427-.15-.66-.15-.427 0-.783.153-1.07.46-.28.3-.42.68-.42 1.14zm6.734 2.58c-.52 0-.947-.14-1.28-.42a1.398 1.398 0 0 1-.49-1.1c0-.447.17-.803.51-1.07.346-.267.813-.4 1.4-.4.233 0 .46.027.68.08.22.047.443.123.67.23v-.55c0-.327-.097-.573-.29-.74-.194-.173-.48-.26-.86-.26-.207 0-.43.033-.67.1-.24.06-.504.157-.79.29l-.4-.82a5.6 5.6 0 0 1 1.07-.38c.34-.087.676-.13 1.01-.13.646 0 1.15.16 1.51.48.36.313.54.76.54 1.34V10h-1.12v-.51c-.227.207-.46.357-.7.45-.24.093-.504.14-.79.14zm-.71-1.54c0 .227.093.41.28.55.186.133.433.2.74.2.226 0 .436-.033.63-.1.2-.067.383-.17.55-.31v-.82a2.126 2.126 0 0 0-.55-.18c-.187-.04-.39-.06-.61-.06-.32 0-.574.067-.76.2a.596.596 0 0 0-.28.52zm5.161.14V5.89h-1.01v-.9h1.01V3.61l1.13-.24v1.62h1.4v.9h-1.4v2.54c0 .247.053.423.16.53.107.1.287.15.54.15.114 0 .217-.007.31-.02.1-.02.224-.053.37-.1v.95c-.147.047-.31.08-.49.1-.173.027-.333.04-.48.04-.5 0-.883-.117-1.15-.35-.26-.24-.39-.59-.39-1.05zM43.37 7.5a2.595 2.595 0 0 1 .72-1.84 2.484 2.484 0 0 1 1.8-.75 2.48 2.48 0 0 1 2.33 1.57c.127.313.19.653.19 1.02s-.066.71-.2 1.03c-.126.32-.303.597-.53.83a2.42 2.42 0 0 1-.8.54c-.306.133-.636.2-.99.2a2.484 2.484 0 0 1-1.8-.75 2.755 2.755 0 0 1-.53-.82 2.772 2.772 0 0 1-.19-1.03zm2.52 1.62c.407 0 .74-.153 1-.46.267-.307.4-.69.4-1.15 0-.473-.133-.863-.4-1.17a1.27 1.27 0 0 0-1-.46c-.406 0-.743.153-1.01.46-.26.307-.39.697-.39 1.17 0 .467.13.853.39 1.16.267.3.604.45 1.01.45z" fill="#000"/><rect x="140.5" y="8.5" width="123" height="31" rx="3.5" fill="#fff"/><path d="M156.076 29v-.91a2.668 2.668 0 0 1-.952.756 2.967 2.967 0 0 1-1.232.252c-.438 0-.854-.089-1.246-.266a3.271 3.271 0 0 1-.994-.742 3.729 3.729 0 0 1-.672-1.12 3.942 3.942 0 0 1-.238-1.372c0-.495.08-.957.238-1.386.168-.43.397-.798.686-1.106a3.1 3.1 0 0 1 1.022-.742c.392-.187.812-.28 1.26-.28.42 0 .812.084 1.176.252.364.159.682.392.952.7V18.99l1.022-.21V29h-1.022zm-4.326-3.416c0 .747.229 1.372.686 1.876a2.232 2.232 0 0 0 1.708.742c.402 0 .77-.08 1.106-.238.336-.159.612-.383.826-.672v-3.388a2.242 2.242 0 0 0-.854-.672 2.377 2.377 0 0 0-1.078-.252c-.681 0-1.25.247-1.708.742-.457.495-.686 1.115-.686 1.862zM164.225 29v-.91a2.685 2.685 0 0 1-.952.756 2.97 2.97 0 0 1-1.232.252c-.439 0-.854-.089-1.246-.266a3.259 3.259 0 0 1-.994-.742 3.729 3.729 0 0 1-.672-1.12 3.919 3.919 0 0 1-.238-1.372c0-.495.079-.957.238-1.386.168-.43.396-.798.686-1.106a3.09 3.09 0 0 1 1.022-.742c.392-.187.812-.28 1.26-.28.42 0 .812.084 1.176.252.364.159.681.392.952.7V18.99l1.022-.21V29h-1.022zm-4.326-3.416c0 .747.228 1.372.686 1.876a2.23 2.23 0 0 0 1.708.742c.401 0 .77-.08 1.106-.238a2.16 2.16 0 0 0 .826-.672v-3.388a2.25 2.25 0 0 0-.854-.672 2.38 2.38 0 0 0-1.078-.252 2.23 2.23 0 0 0-1.708.742c-.458.495-.686 1.115-.686 1.862zm7.938 2.002c.196 0 .364.075.504.224.149.15.224.327.224.532a.744.744 0 0 1-.224.546.667.667 0 0 1-.504.224.727.727 0 0 1-.532-.224.77.77 0 0 1-.21-.546c0-.205.07-.383.21-.532a.727.727 0 0 1 .532-.224zM170.423 29v-6.832h1.022v1.064c.262-.392.56-.686.896-.882a2.209 2.209 0 0 1 1.134-.294c.476 0 .896.121 1.26.364.374.243.654.565.84.966.262-.439.584-.77.966-.994a2.559 2.559 0 0 1 1.316-.336c.682 0 1.237.238 1.666.714.439.467.658 1.073.658 1.82V29h-1.022v-4.158c0-.588-.154-1.055-.462-1.4-.298-.355-.704-.532-1.218-.532-.354 0-.676.089-.966.266-.289.177-.536.448-.742.812a3.172 3.172 0 0 1 .056.602V29h-1.022v-4.158c0-.588-.154-1.055-.462-1.4-.308-.355-.718-.532-1.232-.532-.345 0-.658.084-.938.252-.28.168-.522.42-.728.756V29h-1.022zm11.826 0v-6.832h1.022v1.064c.262-.392.56-.686.896-.882a2.209 2.209 0 0 1 1.134-.294c.476 0 .896.121 1.26.364.374.243.654.565.84.966.262-.439.584-.77.966-.994a2.559 2.559 0 0 1 1.316-.336c.682 0 1.237.238 1.666.714.439.467.658 1.073.658 1.82V29h-1.022v-4.158c0-.588-.154-1.055-.462-1.4-.298-.355-.704-.532-1.218-.532-.354 0-.676.089-.966.266-.289.177-.536.448-.742.812a3.172 3.172 0 0 1 .056.602V29h-1.022v-4.158c0-.588-.154-1.055-.462-1.4-.308-.355-.718-.532-1.232-.532-.345 0-.658.084-.938.252-.28.168-.522.42-.728.756V29h-1.022zm12.317-1.414c.196 0 .364.075.504.224.149.15.224.327.224.532a.744.744 0 0 1-.224.546.667.667 0 0 1-.504.224.725.725 0 0 1-.532-.224.77.77 0 0 1-.21-.546c0-.205.07-.383.21-.532a.725.725 0 0 1 .532-.224zm4.536 1.54c-.728 0-1.326-.191-1.792-.574-.458-.392-.686-.896-.686-1.512 0-.607.233-1.097.7-1.47.476-.373 1.096-.56 1.862-.56.392 0 .76.047 1.106.14.354.084.681.215.98.392v-.938c0-.56-.15-.98-.448-1.26-.299-.29-.738-.434-1.316-.434-.318 0-.644.047-.98.14a6.125 6.125 0 0 0-1.092.448l-.378-.784c.466-.224.91-.387 1.33-.49.42-.112.835-.168 1.246-.168.84 0 1.488.21 1.946.63.466.41.7 1.003.7 1.778V29h-1.008v-.798c-.299.308-.63.541-.994.7-.364.15-.756.224-1.176.224zm-1.498-2.114c0 .401.158.723.476.966.317.243.728.364 1.232.364.382 0 .732-.065 1.05-.196.326-.13.63-.327.91-.588v-1.316a3.358 3.358 0 0 0-.896-.364 3.942 3.942 0 0 0-1.036-.126c-.523 0-.943.117-1.26.35-.318.233-.476.537-.476.91zm1.904-6.02a1.55 1.55 0 0 1-1.12-.448 1.548 1.548 0 0 1-.448-1.12c0-.43.149-.793.448-1.092a1.549 1.549 0 0 1 1.12-.448c.429 0 .798.15 1.106.448.308.299.462.663.462 1.092 0 .439-.154.812-.462 1.12a1.534 1.534 0 0 1-1.106.448zm0-.56c.27 0 .499-.093.686-.28.186-.196.28-.439.28-.728a.91.91 0 0 0-.294-.686.917.917 0 0 0-.672-.28.949.949 0 0 0-.7.28.931.931 0 0 0-.28.686c0 .29.093.532.28.728.186.187.42.28.7.28zm6.963 8.694c-.728 0-1.326-.191-1.792-.574-.458-.392-.686-.896-.686-1.512 0-.607.233-1.097.7-1.47.476-.373 1.096-.56 1.862-.56.392 0 .76.047 1.106.14.354.084.681.215.98.392v-.938c0-.56-.15-.98-.448-1.26-.299-.29-.738-.434-1.316-.434-.318 0-.644.047-.98.14a6.125 6.125 0 0 0-1.092.448l-.378-.784c.466-.224.91-.387 1.33-.49.42-.112.835-.168 1.246-.168.84 0 1.488.21 1.946.63.466.41.7 1.003.7 1.778V29h-1.008v-.798c-.299.308-.63.541-.994.7-.364.15-.756.224-1.176.224zm-1.498-2.114c0 .401.158.723.476.966.317.243.728.364 1.232.364.382 0 .732-.065 1.05-.196.326-.13.63-.327.91-.588v-1.316a3.358 3.358 0 0 0-.896-.364 3.942 3.942 0 0 0-1.036-.126c-.523 0-.943.117-1.26.35-.318.233-.476.537-.476.91zm1.904-6.02a1.55 1.55 0 0 1-1.12-.448 1.548 1.548 0 0 1-.448-1.12c0-.43.149-.793.448-1.092a1.549 1.549 0 0 1 1.12-.448c.429 0 .798.15 1.106.448.308.299.462.663.462 1.092 0 .439-.154.812-.462 1.12a1.534 1.534 0 0 1-1.106.448zm0-.56c.27 0 .499-.093.686-.28.186-.196.28-.439.28-.728a.91.91 0 0 0-.294-.686.917.917 0 0 0-.672-.28.949.949 0 0 0-.7.28.931.931 0 0 0-.28.686c0 .29.093.532.28.728.186.187.42.28.7.28zm6.963 8.694c-.728 0-1.325-.191-1.792-.574-.457-.392-.686-.896-.686-1.512 0-.607.233-1.097.7-1.47.476-.373 1.097-.56 1.862-.56.392 0 .761.047 1.106.14.355.084.681.215.98.392v-.938c0-.56-.149-.98-.448-1.26-.299-.29-.737-.434-1.316-.434-.317 0-.644.047-.98.14a6.125 6.125 0 0 0-1.092.448l-.378-.784a6.86 6.86 0 0 1 1.33-.49c.42-.112.835-.168 1.246-.168.84 0 1.489.21 1.946.63.467.41.7 1.003.7 1.778V29h-1.008v-.798c-.299.308-.63.541-.994.7-.364.15-.756.224-1.176.224zm-1.498-2.114c0 .401.159.723.476.966.317.243.728.364 1.232.364.383 0 .733-.065 1.05-.196.327-.13.63-.327.91-.588v-1.316a3.345 3.345 0 0 0-.896-.364 3.936 3.936 0 0 0-1.036-.126c-.523 0-.943.117-1.26.35-.317.233-.476.537-.476.91zm1.904-6.02a1.55 1.55 0 0 1-1.12-.448 1.548 1.548 0 0 1-.448-1.12c0-.43.149-.793.448-1.092a1.549 1.549 0 0 1 1.12-.448c.429 0 .798.15 1.106.448.308.299.462.663.462 1.092 0 .439-.154.812-.462 1.12a1.534 1.534 0 0 1-1.106.448zm0-.56a.933.933 0 0 0 .686-.28c.187-.196.28-.439.28-.728a.91.91 0 0 0-.294-.686.917.917 0 0 0-.672-.28.95.95 0 0 0-.7.28.931.931 0 0 0-.28.686c0 .29.093.532.28.728a.95.95 0 0 0 .7.28zm6.963 8.694c-.728 0-1.325-.191-1.792-.574-.457-.392-.686-.896-.686-1.512 0-.607.233-1.097.7-1.47.476-.373 1.097-.56 1.862-.56.392 0 .761.047 1.106.14.355.084.681.215.98.392v-.938c0-.56-.149-.98-.448-1.26-.299-.29-.737-.434-1.316-.434-.317 0-.644.047-.98.14a6.125 6.125 0 0 0-1.092.448l-.378-.784a6.86 6.86 0 0 1 1.33-.49c.42-.112.835-.168 1.246-.168.84 0 1.489.21 1.946.63.467.41.7 1.003.7 1.778V29h-1.008v-.798c-.299.308-.63.541-.994.7-.364.15-.756.224-1.176.224zm-1.498-2.114c0 .401.159.723.476.966.317.243.728.364 1.232.364.383 0 .733-.065 1.05-.196.327-.13.63-.327.91-.588v-1.316a3.345 3.345 0 0 0-.896-.364 3.936 3.936 0 0 0-1.036-.126c-.523 0-.943.117-1.26.35-.317.233-.476.537-.476.91zm1.904-6.02a1.55 1.55 0 0 1-1.12-.448 1.548 1.548 0 0 1-.448-1.12c0-.43.149-.793.448-1.092a1.549 1.549 0 0 1 1.12-.448c.429 0 .798.15 1.106.448.308.299.462.663.462 1.092 0 .439-.154.812-.462 1.12a1.534 1.534 0 0 1-1.106.448zm0-.56a.933.933 0 0 0 .686-.28c.187-.196.28-.439.28-.728a.91.91 0 0 0-.294-.686.917.917 0 0 0-.672-.28.95.95 0 0 0-.7.28.931.931 0 0 0-.28.686c0 .29.093.532.28.728a.95.95 0 0 0 .7.28z" fill="#676767"/><g clip-path="url(#clip2_15_31517)"><path fill-rule="evenodd" clip-rule="evenodd" d="M236.001 30.5c0 .827.673 1.5 1.5 1.5h13c.827 0 1.5-.673 1.5-1.5v-11c0-.827-.673-1.5-1.5-1.5h-2.5v-1.5a.5.5 0 0 0-1 0V18h-6v-1.5a.5.5 0 0 0-1 0V18h-2.5c-.827 0-1.5.673-1.5 1.5v11zm1.5.5a.5.5 0 0 1-.5-.5V23h14v7.5a.5.5 0 0 1-.5.5h-13zm13.5-11.5V22h-14v-2.5a.5.5 0 0 1 .5-.5h2.5v1a.5.5 0 0 0 1 0v-1h6v1a.5.5 0 0 0 1 0v-1h2.5a.5.5 0 0 1 .5.5zM238.5 29a.5.5 0 0 0 0 1h3a.5.5 0 0 0 0-1h-3z" fill="#000"/></g><rect x="140.5" y="8.5" width="123" height="31" rx="3.5" stroke="#000"/><path transform="translate(147)" fill="#fff" d="M0 0H42V12H0z"/><path d="M150.25 4.04V3h5.88v1.04h-2.33V10h-1.2V4.04h-2.35zm7.397-.07a.699.699 0 0 1-.5-.2.664.664 0 0 1-.2-.49c0-.187.07-.35.21-.49.14-.14.303-.21.49-.21.193 0 .36.07.5.21.14.14.21.303.21.49a.65.65 0 0 1-.21.49.68.68 0 0 1-.5.2zm.57 1.02V10h-1.13V4.99h1.13zm2.519-2.33V10h-1.13V2.85l1.13-.19zm7.216 7.34v-.67a1.758 1.758 0 0 1-.67.53c-.267.127-.557.19-.87.19-.313 0-.61-.067-.89-.2a2.342 2.342 0 0 1-.73-.54c-.2-.233-.36-.503-.48-.81a2.925 2.925 0 0 1-.17-1c0-.353.06-.687.18-1 .12-.313.283-.583.49-.81.213-.227.463-.407.75-.54.287-.133.593-.2.92-.2.287 0 .553.06.8.18.253.113.473.273.66.48V2.85l1.13-.19V10h-1.12zm-2.69-2.5c0 .453.143.833.43 1.14.287.307.64.46 1.06.46.24 0 .46-.047.66-.14.207-.093.383-.23.53-.41V6.44a1.543 1.543 0 0 0-.53-.39c-.207-.1-.427-.15-.66-.15-.427 0-.783.153-1.07.46-.28.3-.42.68-.42 1.14zm6.733 2.58c-.52 0-.946-.14-1.28-.42a1.4 1.4 0 0 1-.49-1.1c0-.447.17-.803.51-1.07.347-.267.814-.4 1.4-.4.234 0 .46.027.68.08.22.047.444.123.67.23v-.55c0-.327-.096-.573-.29-.74-.193-.173-.48-.26-.86-.26-.206 0-.43.033-.67.1-.24.06-.503.157-.79.29l-.4-.82c.374-.173.73-.3 1.07-.38.34-.087.677-.13 1.01-.13.647 0 1.15.16 1.51.48.36.313.54.76.54 1.34V10h-1.12v-.51c-.226.207-.46.357-.7.45-.24.093-.503.14-.79.14zm-.71-1.54c0 .227.094.41.28.55.187.133.434.2.74.2.227 0 .437-.033.63-.1.2-.067.384-.17.55-.31v-.82a2.121 2.121 0 0 0-.55-.18c-.186-.04-.39-.06-.61-.06-.32 0-.573.067-.76.2a.598.598 0 0 0-.28.52zm5.162.14V5.89h-1.01v-.9h1.01V3.61l1.13-.24v1.62h1.4v.9h-1.4v2.54c0 .247.053.423.16.53.107.1.287.15.54.15.113 0 .217-.007.31-.02.1-.02.223-.053.37-.1v.95a2.55 2.55 0 0 1-.49.1c-.173.027-.333.04-.48.04-.5 0-.883-.117-1.15-.35-.26-.24-.39-.59-.39-1.05zm3.222-1.18c0-.367.064-.707.19-1.02.134-.32.31-.593.53-.82.227-.233.494-.417.8-.55a2.53 2.53 0 0 1 1-.2 2.478 2.478 0 0 1 2.33 1.57c.127.313.19.653.19 1.02s-.066.71-.2 1.03c-.126.32-.303.597-.53.83-.22.227-.486.407-.8.54-.306.133-.636.2-.99.2-.353 0-.686-.067-1-.2a2.494 2.494 0 0 1-.8-.55 2.769 2.769 0 0 1-.53-.82 2.786 2.786 0 0 1-.19-1.03zm2.52 1.62c.407 0 .74-.153 1-.46.267-.307.4-.69.4-1.15 0-.473-.133-.863-.4-1.17a1.27 1.27 0 0 0-1-.46c-.406 0-.743.153-1.01.46-.26.307-.39.697-.39 1.17 0 .467.13.853.39 1.16.267.3.604.45 1.01.45z" fill="#000"/><rect x="421.5" y=".5" width="310" height="39" rx="19.5" fill="#fff"/><rect x="422" y="1" width="103" height="38" rx="19" fill="#fff"/><path d="M461.963 25v-9.8h3.248c.718 0 1.376.126 1.974.378a4.642 4.642 0 0 1 1.554 1.036c.429.43.765.947 1.008 1.554.242.597.364 1.241.364 1.932 0 .69-.122 1.34-.364 1.946a4.588 4.588 0 0 1-.994 1.554c-.43.43-.948.77-1.554 1.022a5.135 5.135 0 0 1-1.988.378h-3.248zm3.318-8.834h-2.24v7.868h2.24c.522 0 1.012-.098 1.47-.294.457-.205.854-.48 1.19-.826.336-.355.597-.77.784-1.246a4.148 4.148 0 0 0 .294-1.568c0-.56-.098-1.078-.294-1.554a3.636 3.636 0 0 0-.784-1.246 3.546 3.546 0 0 0-1.19-.826 3.552 3.552 0 0 0-1.47-.308zm8.649 8.96c-.728 0-1.326-.191-1.792-.574-.458-.392-.686-.896-.686-1.512 0-.607.233-1.097.7-1.47.476-.373 1.096-.56 1.862-.56.392 0 .76.047 1.106.14.354.084.681.215.98.392v-.938c0-.56-.15-.98-.448-1.26-.299-.29-.738-.434-1.316-.434-.318 0-.644.047-.98.14a6.132 6.132 0 0 0-1.092.448l-.378-.784c.466-.224.91-.387 1.33-.49.42-.112.835-.168 1.246-.168.84 0 1.488.21 1.946.63.466.41.7 1.003.7 1.778V25H476.1v-.798c-.299.308-.63.541-.994.7-.364.15-.756.224-1.176.224zm-1.498-2.114c0 .401.158.723.476.966.317.243.728.364 1.232.364.382 0 .732-.065 1.05-.196.326-.13.63-.327.91-.588v-1.316a3.361 3.361 0 0 0-.896-.364 3.942 3.942 0 0 0-1.036-.126c-.523 0-.943.117-1.26.35-.318.233-.476.537-.476.91zm9.595 2.072c-.439 0-.854-.089-1.246-.266a3.259 3.259 0 0 1-.994-.742 3.728 3.728 0 0 1-.672-1.12 3.919 3.919 0 0 1-.238-1.372c0-.485.079-.943.238-1.372.168-.43.396-.798.686-1.106.289-.317.63-.565 1.022-.742.392-.187.812-.28 1.26-.28.429 0 .826.084 1.19.252.364.159.681.397.952.714v-.882h1.008v7.182c0 .84-.252 1.489-.756 1.946-.495.457-1.204.686-2.128.686-.458 0-.92-.065-1.386-.196a5.276 5.276 0 0 1-1.274-.518l.434-.784c.42.215.802.373 1.148.476.345.103.69.154 1.036.154.616 0 1.087-.15 1.414-.448.326-.299.49-.733.49-1.302v-1.288a2.683 2.683 0 0 1-.952.756 2.97 2.97 0 0 1-1.232.252zm-2.142-3.5c0 .747.228 1.372.686 1.876a2.23 2.23 0 0 0 1.708.742c.401 0 .77-.08 1.106-.238.336-.168.611-.397.826-.686v-3.374a2.251 2.251 0 0 0-.854-.672 2.38 2.38 0 0 0-1.078-.252 2.23 2.23 0 0 0-1.708.742c-.458.495-.686 1.115-.686 1.862z" fill="#000"/><rect x="525" y="1" width="103" height="38" rx="19" fill="#000"/><path d="M560.328 24.3l-3.486-6.986V25h-1.554v-9.8h2.184l2.87 5.936 2.856-5.936h2.184V25H563.8v-7.644l-3.472 6.944zm9.211.812c-.728 0-1.326-.196-1.792-.588-.458-.401-.686-.915-.686-1.54s.238-1.125.714-1.498c.485-.373 1.138-.56 1.96-.56.326 0 .644.037.952.112.308.065.62.173.938.322v-.77c0-.457-.136-.803-.406-1.036-.271-.243-.672-.364-1.204-.364-.29 0-.602.047-.938.14-.336.084-.705.22-1.106.406l-.56-1.148a7.823 7.823 0 0 1 1.498-.532 5.707 5.707 0 0 1 1.414-.182c.905 0 1.61.224 2.114.672.504.439.756 1.064.756 1.876V25h-1.568v-.714c-.318.29-.644.5-.98.63-.336.13-.705.196-1.106.196zm-.994-2.156c0 .317.13.574.392.77.261.187.606.28 1.036.28.317 0 .611-.047.882-.14.28-.093.536-.238.77-.434v-1.148a2.982 2.982 0 0 0-.77-.252 4.081 4.081 0 0 0-.854-.084c-.448 0-.803.093-1.064.28a.834.834 0 0 0-.392.728zm1.61-6.062c-.458 0-.85-.159-1.176-.476a1.557 1.557 0 0 1-.49-1.162c0-.457.158-.84.476-1.148a1.643 1.643 0 0 1 1.19-.476c.457 0 .849.159 1.176.476.326.308.49.69.49 1.148 0 .457-.164.845-.49 1.162a1.629 1.629 0 0 1-1.176.476zm0-.714a.849.849 0 0 0 .644-.266.895.895 0 0 0 .266-.658.878.878 0 0 0-.266-.644.878.878 0 0 0-.644-.266.892.892 0 0 0-.658.266.872.872 0 0 0-.252.644c0 .261.084.48.252.658a.892.892 0 0 0 .658.266zm4.953 8.82v-7.014h1.582v1.148c.261-.41.579-.723.952-.938a2.559 2.559 0 0 1 1.274-.322c.709 0 1.288.238 1.736.714.457.467.686 1.064.686 1.792V25h-1.582v-4.172c0-.504-.14-.91-.42-1.218-.28-.308-.653-.462-1.12-.462-.317 0-.607.075-.868.224a1.96 1.96 0 0 0-.658.616V25h-1.582zm14.182-.896a4.623 4.623 0 0 1-1.316.784 4.077 4.077 0 0 1-1.47.252 3.541 3.541 0 0 1-2.534-1.05 3.69 3.69 0 0 1-.756-1.162 3.688 3.688 0 0 1-.28-1.428c0-.513.084-.99.252-1.428.178-.448.416-.83.714-1.148a3.359 3.359 0 0 1 1.092-.77c.42-.187.873-.28 1.358-.28.476 0 .915.093 1.316.28.411.177.761.425 1.05.742.299.317.532.7.7 1.148a4 4 0 0 1 .252 1.442v.392h-5.18c.075.55.308 1.008.7 1.372a2.02 2.02 0 0 0 1.4.546c.327 0 .635-.056.924-.168a2.1 2.1 0 0 0 .742-.49l1.036.966zm-2.954-4.942c-.466 0-.863.159-1.19.476-.326.317-.536.742-.63 1.274h3.654c-.093-.513-.308-.933-.644-1.26a1.618 1.618 0 0 0-1.19-.49zM596.335 25v-.938a2.469 2.469 0 0 1-.938.742c-.374.177-.78.266-1.218.266a2.86 2.86 0 0 1-1.246-.28 3.271 3.271 0 0 1-1.022-.756 3.923 3.923 0 0 1-.672-1.134 4.076 4.076 0 0 1-.238-1.4c0-.495.084-.961.252-1.4.168-.439.396-.817.686-1.134.298-.317.648-.57 1.05-.756.401-.187.83-.28 1.288-.28.401 0 .774.084 1.12.252.354.159.662.383.924.672V14.99l1.582-.266V25h-1.568zm-3.766-3.5c0 .635.2 1.167.602 1.596.401.43.896.644 1.484.644.336 0 .644-.065.924-.196.289-.13.536-.322.742-.574v-2.954a2.17 2.17 0 0 0-.742-.546c-.29-.14-.598-.21-.924-.21-.598 0-1.097.215-1.498.644-.392.42-.588.952-.588 1.596z" fill="#fff"/><rect x="628" y="1" width="103" height="38" rx="19" fill="#fff"/><path d="M672.544 25l3.878-9.8h1.288l3.822 9.8h-1.162l-1.162-3.08h-4.368L673.678 25h-1.134zm2.632-3.934h3.71l-1.862-4.9-1.848 4.9zm1.876-7.042c-.439 0-.812-.15-1.12-.448a1.548 1.548 0 0 1-.448-1.12c0-.43.149-.793.448-1.092a1.549 1.549 0 0 1 1.12-.448c.429 0 .798.15 1.106.448.308.299.462.663.462 1.092 0 .439-.154.812-.462 1.12a1.533 1.533 0 0 1-1.106.448zm0-.56a.933.933 0 0 0 .686-.28c.187-.196.28-.439.28-.728a.91.91 0 0 0-.294-.686.917.917 0 0 0-.672-.28.95.95 0 0 0-.7.28.932.932 0 0 0-.28.686c0 .29.093.532.28.728a.95.95 0 0 0 .7.28zM682.71 25v-6.832h1.022v1.386c.177-.476.429-.845.756-1.106a1.78 1.78 0 0 1 1.148-.406c.121 0 .233.01.336.028.103.01.205.033.308.07v.924a2.08 2.08 0 0 0-.364-.084 1.769 1.769 0 0 0-1.456.322c-.308.243-.551.583-.728 1.022V25h-1.022z" fill="#000"/><rect x="421.5" y=".5" width="310" height="39" rx="19.5" stroke="#000"/><path d="M554.204 110.5l-7.26-13.95V112h-4.02V91h5.58l5.76 11.28 5.76-11.28h5.58v21h-4.11V96.58l-7.29 13.92zm19.562 1.77c-1.68 0-3.05-.44-4.11-1.32-1.06-.9-1.59-2.06-1.59-3.48 0-1.48.57-2.64 1.71-3.48 1.14-.84 2.71-1.26 4.71-1.26a12.42 12.42 0 0 1 3.81.6v-1.11c0-.9-.28-1.58-.84-2.04-.56-.46-1.38-.69-2.46-.69-.66 0-1.38.11-2.16.33-.76.2-1.63.52-2.61.96l-1.5-3.03c1.22-.56 2.4-.98 3.54-1.26 1.16-.28 2.3-.42 3.42-.42 2.1 0 3.73.51 4.89 1.53 1.18 1 1.77 2.42 1.77 4.26V112h-4.05v-1.08c-.66.46-1.36.8-2.1 1.02-.72.22-1.53.33-2.43.33zm-1.77-4.89c0 .6.26 1.08.78 1.44.52.34 1.21.51 2.07.51.68 0 1.3-.08 1.86-.24.58-.18 1.11-.43 1.59-.75V106c-.5-.2-1.03-.34-1.59-.42-.54-.1-1.11-.15-1.71-.15-.94 0-1.68.18-2.22.54-.52.34-.78.81-.78 1.41zm13.461 4.62V96.37h4.11v1.71c.5-.68 1.1-1.19 1.8-1.53.72-.36 1.51-.54 2.37-.54.4.02.73.06.99.12.28.04.52.12.72.24v3.6c-.3-.14-.63-.24-.99-.3-.36-.08-.73-.12-1.11-.12-.8 0-1.54.2-2.22.6-.66.4-1.18.98-1.56 1.74V112h-4.11zm11.073-1.86l2.04-2.73c.92.6 1.79 1.05 2.61 1.35.82.28 1.64.42 2.46.42.92 0 1.65-.15 2.19-.45.56-.3.84-.7.84-1.2 0-.4-.16-.72-.48-.96-.3-.24-.79-.41-1.47-.51l-3-.45c-1.54-.24-2.72-.74-3.54-1.5-.8-.76-1.2-1.77-1.2-3.03 0-1.5.59-2.7 1.77-3.6 1.18-.9 2.76-1.35 4.74-1.35 1.14 0 2.25.17 3.33.51 1.08.32 2.11.8 3.09 1.44l-1.98 2.64c-.86-.5-1.68-.87-2.46-1.11a7.45 7.45 0 0 0-2.37-.39c-.74 0-1.34.14-1.8.42-.44.28-.66.65-.66 1.11 0 .42.16.75.48.99.34.22.89.38 1.65.48l3 .45c1.52.22 2.69.72 3.51 1.5.84.78 1.26 1.77 1.26 2.97 0 .74-.18 1.43-.54 2.07a5.16 5.16 0 0 1-1.41 1.62c-.6.46-1.32.82-2.16 1.08-.84.26-1.75.39-2.73.39-1.42 0-2.75-.18-3.99-.54-1.24-.38-2.3-.92-3.18-1.62z" fill="#000"/><path fill-rule="evenodd" clip-rule="evenodd" d="M429.533 100.999c0-.588.478-1.066 1.067-1.066h12.8a1.067 1.067 0 1 1 0 2.132h-12.8a1.067 1.067 0 0 1-1.067-1.066z" fill="#000"/><path fill-rule="evenodd" clip-rule="evenodd" d="M436.687 94.912a1.066 1.066 0 0 1 0 1.509L432.108 101l4.579 4.579a1.066 1.066 0 1 1-1.508 1.509l-5.333-5.334a1.067 1.067 0 0 1 0-1.508l5.333-5.334a1.066 1.066 0 0 1 1.508 0z" fill="#000"/><path fill-rule="evenodd" clip-rule="evenodd" d="M437 87.133c-7.658 0-13.867 6.209-13.867 13.867 0 7.658 6.209 13.867 13.867 13.867 7.658 0 13.867-6.209 13.867-13.867 0-7.658-6.209-13.867-13.867-13.867zM421 101c0-8.837 7.163-16 16-16s16 7.163 16 16-7.163 16-16 16-16-7.163-16-16z" fill="#29D305"/><path fill-rule="evenodd" clip-rule="evenodd" d="M708.533 101c0-.589.478-1.067 1.067-1.067h12.8a1.067 1.067 0 0 1 0 2.134h-12.8a1.067 1.067 0 0 1-1.067-1.067z" fill="#000"/><path fill-rule="evenodd" clip-rule="evenodd" d="M716.312 94.912a1.067 1.067 0 0 1 1.509 0l5.333 5.334a1.065 1.065 0 0 1 0 1.508l-5.333 5.334a1.068 1.068 0 0 1-1.509 0 1.068 1.068 0 0 1 0-1.509l4.58-4.579-4.58-4.579a1.068 1.068 0 0 1 0-1.509z" fill="#000"/><path fill-rule="evenodd" clip-rule="evenodd" d="M716 114.867c7.658 0 13.867-6.209 13.867-13.867 0-7.658-6.209-13.867-13.867-13.867-7.658 0-13.867 6.209-13.867 13.867 0 7.658 6.209 13.867 13.867 13.867zM732 101c0 8.837-7.163 16-16 16s-16-7.163-16-16 7.163-16 16-16 16 7.163 16 16z" fill="#29D305"/><circle cx="448" cy="563" r="5" fill="#fff"/><path d="M461.518 567.5v-1.008l3.78-3.514c.56-.532.947-.975 1.162-1.33.224-.355.336-.728.336-1.12 0-.504-.196-.919-.588-1.246-.383-.336-.868-.504-1.456-.504-.476 0-.919.093-1.33.28-.411.187-.859.495-1.344.924l-.798-.952a5.952 5.952 0 0 1 1.694-1.092 4.687 4.687 0 0 1 1.806-.364c.495 0 .947.07 1.358.21.42.14.775.341 1.064.602a2.668 2.668 0 0 1 .952 2.058c0 .56-.14 1.078-.42 1.554-.271.476-.784 1.064-1.54 1.764l-2.758 2.548h4.872v1.19h-6.79zm11.938.14a3.874 3.874 0 0 1-1.68-.364 3.996 3.996 0 0 1-1.302-1.036 4.997 4.997 0 0 1-.84-1.582 6.85 6.85 0 0 1-.294-2.058c0-.747.098-1.428.294-2.044.205-.625.485-1.157.84-1.596a3.84 3.84 0 0 1 2.982-1.4c.606 0 1.162.126 1.666.378.513.243.952.583 1.316 1.022.364.439.644.971.84 1.596.205.616.308 1.297.308 2.044 0 .747-.103 1.433-.308 2.058a4.66 4.66 0 0 1-.84 1.582 3.956 3.956 0 0 1-1.316 1.036 3.787 3.787 0 0 1-1.666.364zm0-1.232c.84 0 1.507-.341 2.002-1.022.504-.691.756-1.619.756-2.786s-.252-2.095-.756-2.786c-.495-.691-1.162-1.036-2.002-1.036-.84 0-1.512.345-2.016 1.036-.495.691-.742 1.619-.742 2.786s.247 2.095.742 2.786c.504.681 1.176 1.022 2.016 1.022zm4.851 1.092v-1.008l3.78-3.514c.56-.532.947-.975 1.162-1.33.224-.355.336-.728.336-1.12 0-.504-.196-.919-.588-1.246-.383-.336-.868-.504-1.456-.504-.476 0-.919.093-1.33.28-.411.187-.859.495-1.344.924l-.798-.952a5.952 5.952 0 0 1 1.694-1.092 4.687 4.687 0 0 1 1.806-.364c.495 0 .947.07 1.358.21.42.14.775.341 1.064.602a2.668 2.668 0 0 1 .952 2.058c0 .56-.14 1.078-.42 1.554-.271.476-.784 1.064-1.54 1.764l-2.758 2.548h4.872v1.19h-6.79zm11.938.14a3.874 3.874 0 0 1-1.68-.364 3.996 3.996 0 0 1-1.302-1.036 4.997 4.997 0 0 1-.84-1.582 6.85 6.85 0 0 1-.294-2.058c0-.747.098-1.428.294-2.044.205-.625.485-1.157.84-1.596a3.84 3.84 0 0 1 2.982-1.4c.606 0 1.162.126 1.666.378.513.243.952.583 1.316 1.022.364.439.644.971.84 1.596.205.616.308 1.297.308 2.044 0 .747-.103 1.433-.308 2.058a4.66 4.66 0 0 1-.84 1.582 3.956 3.956 0 0 1-1.316 1.036 3.787 3.787 0 0 1-1.666.364zm0-1.232c.84 0 1.507-.341 2.002-1.022.504-.691.756-1.619.756-2.786s-.252-2.095-.756-2.786c-.495-.691-1.162-1.036-2.002-1.036-.84 0-1.512.345-2.016 1.036-.495.691-.742 1.619-.742 2.786s.247 2.095.742 2.786c.504.681 1.176 1.022 2.016 1.022z" fill="#000"/><circle cx="561" cy="563" r="5" fill="#fff"/><path d="M574.518 567.5v-1.008l3.78-3.514c.56-.532.947-.975 1.162-1.33.224-.355.336-.728.336-1.12 0-.504-.196-.919-.588-1.246-.383-.336-.868-.504-1.456-.504-.476 0-.919.093-1.33.28-.411.187-.859.495-1.344.924l-.798-.952a5.952 5.952 0 0 1 1.694-1.092 4.687 4.687 0 0 1 1.806-.364c.495 0 .947.07 1.358.21.42.14.775.341 1.064.602a2.668 2.668 0 0 1 .952 2.058c0 .56-.14 1.078-.42 1.554-.271.476-.784 1.064-1.54 1.764l-2.758 2.548h4.872v1.19h-6.79zm11.938.14a3.874 3.874 0 0 1-1.68-.364 3.996 3.996 0 0 1-1.302-1.036 4.997 4.997 0 0 1-.84-1.582 6.85 6.85 0 0 1-.294-2.058c0-.747.098-1.428.294-2.044.205-.625.485-1.157.84-1.596a3.84 3.84 0 0 1 2.982-1.4c.606 0 1.162.126 1.666.378.513.243.952.583 1.316 1.022.364.439.644.971.84 1.596.205.616.308 1.297.308 2.044 0 .747-.103 1.433-.308 2.058a4.66 4.66 0 0 1-.84 1.582 3.956 3.956 0 0 1-1.316 1.036 3.787 3.787 0 0 1-1.666.364zm0-1.232c.84 0 1.507-.341 2.002-1.022.504-.691.756-1.619.756-2.786s-.252-2.095-.756-2.786c-.495-.691-1.162-1.036-2.002-1.036-.84 0-1.512.345-2.016 1.036-.495.691-.742 1.619-.742 2.786s.247 2.095.742 2.786c.504.681 1.176 1.022 2.016 1.022zm4.851 1.092v-1.008l3.78-3.514c.56-.532.947-.975 1.162-1.33.224-.355.336-.728.336-1.12 0-.504-.196-.919-.588-1.246-.383-.336-.868-.504-1.456-.504-.476 0-.919.093-1.33.28-.411.187-.859.495-1.344.924l-.798-.952a5.952 5.952 0 0 1 1.694-1.092 4.687 4.687 0 0 1 1.806-.364c.495 0 .947.07 1.358.21.42.14.775.341 1.064.602a2.668 2.668 0 0 1 .952 2.058c0 .56-.14 1.078-.42 1.554-.271.476-.784 1.064-1.54 1.764l-2.758 2.548h4.872v1.19h-6.79zm10.748-9.8v9.8h-1.386v-8.358l-1.764.742v-1.232l2.268-.952h.882z" fill="#000"/><path d="M639 563.5c0-8.56 6.94-15.5 15.5-15.5h52c8.56 0 15.5 6.94 15.5 15.5 0 8.56-6.94 15.5-15.5 15.5h-52c-8.56 0-15.5-6.94-15.5-15.5z" fill="#21AC04" fill-opacity=".25"/><circle cx="660" cy="563.5" r="5" fill="#21AC04"/><path d="M673.518 568v-1.008l3.78-3.514c.56-.532.947-.975 1.162-1.33.224-.355.336-.728.336-1.12 0-.504-.196-.919-.588-1.246-.383-.336-.868-.504-1.456-.504-.476 0-.919.093-1.33.28-.411.187-.859.495-1.344.924l-.798-.952a5.952 5.952 0 0 1 1.694-1.092 4.687 4.687 0 0 1 1.806-.364c.495 0 .947.07 1.358.21.42.14.775.341 1.064.602a2.668 2.668 0 0 1 .952 2.058c0 .56-.14 1.078-.42 1.554-.271.476-.784 1.064-1.54 1.764l-2.758 2.548h4.872V568h-6.79zm11.938.14a3.874 3.874 0 0 1-1.68-.364 3.996 3.996 0 0 1-1.302-1.036 4.997 4.997 0 0 1-.84-1.582 6.85 6.85 0 0 1-.294-2.058c0-.747.098-1.428.294-2.044.205-.625.485-1.157.84-1.596a3.84 3.84 0 0 1 2.982-1.4c.606 0 1.162.126 1.666.378.513.243.952.583 1.316 1.022.364.439.644.971.84 1.596.205.616.308 1.297.308 2.044 0 .747-.103 1.433-.308 2.058a4.66 4.66 0 0 1-.84 1.582 3.956 3.956 0 0 1-1.316 1.036 3.787 3.787 0 0 1-1.666.364zm0-1.232c.84 0 1.507-.341 2.002-1.022.504-.691.756-1.619.756-2.786s-.252-2.095-.756-2.786c-.495-.691-1.162-1.036-2.002-1.036-.84 0-1.512.345-2.016 1.036-.495.691-.742 1.619-.742 2.786s.247 2.095.742 2.786c.504.681 1.176 1.022 2.016 1.022zm4.851 1.092v-1.008l3.78-3.514c.56-.532.947-.975 1.162-1.33.224-.355.336-.728.336-1.12 0-.504-.196-.919-.588-1.246-.383-.336-.868-.504-1.456-.504-.476 0-.919.093-1.33.28-.411.187-.859.495-1.344.924l-.798-.952a5.952 5.952 0 0 1 1.694-1.092 4.687 4.687 0 0 1 1.806-.364c.495 0 .947.07 1.358.21.42.14.775.341 1.064.602a2.668 2.668 0 0 1 .952 2.058c0 .56-.14 1.078-.42 1.554-.271.476-.784 1.064-1.54 1.764l-2.758 2.548h4.872V568h-6.79zm7.766 0v-1.008l3.78-3.514c.56-.532.947-.975 1.162-1.33.224-.355.336-.728.336-1.12 0-.504-.196-.919-.588-1.246-.383-.336-.868-.504-1.456-.504-.476 0-.92.093-1.33.28-.411.187-.859.495-1.344.924l-.798-.952a5.952 5.952 0 0 1 1.694-1.092 4.687 4.687 0 0 1 1.806-.364c.494 0 .947.07 1.358.21.42.14.774.341 1.064.602.298.252.532.555.7.91.168.345.252.728.252 1.148 0 .56-.14 1.078-.42 1.554-.271.476-.784 1.064-1.54 1.764l-2.758 2.548h4.872V568h-6.79z" fill="#000"/><path fill-rule="evenodd" clip-rule="evenodd" d="M1161 432H54v-1h1107v1zm0 77H54v-1h1107v1zm0-152H54v-1h1107v1zm0-74H54v-1h1107v1zm0-80H54v-1h1107v1z" fill="#D3D3D3"/><path fill-rule="evenodd" clip-rule="evenodd" d="M54 509V202h1v307h-1zm1107 0V202h1v307h-1z" fill="#D3D3D3"/><path d="M10.683 207v-6.842l-1.232.55v-.726l1.53-.682h.494v7.7h-.792zm9.245 0v-2.057H15.77v-.627l4.092-5.016h.847v4.95h1.067v.693h-1.067V207h-.781zm-3.234-2.75h3.234v-3.993l-3.234 3.993zm9.276 2.871a2.555 2.555 0 0 1-1.562-.506c-.447-.337-.799-.803-1.056-1.397-.256-.601-.385-1.291-.385-2.068 0-.785.129-1.474.385-2.068.257-.594.61-1.06 1.056-1.397a2.555 2.555 0 0 1 1.562-.506c.587 0 1.104.169 1.551.506.455.337.81.803 1.067 1.397.257.594.385 1.283.385 2.068 0 .777-.128 1.467-.385 2.068-.256.594-.612 1.06-1.067 1.397a2.508 2.508 0 0 1-1.55.506zm0-.715c.448 0 .833-.132 1.155-.396.33-.271.587-.649.77-1.133.184-.491.275-1.067.275-1.727 0-.66-.091-1.232-.275-1.716-.183-.491-.44-.869-.77-1.133a1.738 1.738 0 0 0-1.155-.407c-.44 0-.825.136-1.155.407-.33.264-.586.642-.77 1.133-.183.484-.275 1.056-.275 1.716 0 .66.092 1.236.275 1.727.184.484.44.862.77 1.133.33.264.715.396 1.155.396zm7.462.715a2.555 2.555 0 0 1-1.562-.506c-.447-.337-.8-.803-1.056-1.397-.256-.601-.385-1.291-.385-2.068 0-.785.129-1.474.385-2.068.257-.594.609-1.06 1.056-1.397a2.555 2.555 0 0 1 1.562-.506c.587 0 1.104.169 1.551.506.455.337.81.803 1.067 1.397.257.594.385 1.283.385 2.068 0 .777-.128 1.467-.385 2.068-.256.594-.612 1.06-1.067 1.397a2.508 2.508 0 0 1-1.55.506zm0-.715c.447 0 .832-.132 1.155-.396.33-.271.587-.649.77-1.133.184-.491.275-1.067.275-1.727 0-.66-.091-1.232-.275-1.716-.183-.491-.44-.869-.77-1.133a1.738 1.738 0 0 0-1.155-.407c-.44 0-.825.136-1.155.407-.33.264-.587.642-.77 1.133-.183.484-.275 1.056-.275 1.716 0 .66.092 1.236.275 1.727.183.484.44.862.77 1.133.33.264.715.396 1.155.396zM10.683 286v-6.842l-1.232.55v-.726l1.53-.682h.494v7.7h-.792zm8.288.121a2.555 2.555 0 0 1-1.562-.506c-.448-.337-.8-.803-1.056-1.397-.257-.601-.385-1.291-.385-2.068 0-.785.128-1.474.385-2.068.256-.594.608-1.06 1.056-1.397a2.555 2.555 0 0 1 1.562-.506c.586 0 1.103.169 1.55.506.455.337.81.803 1.068 1.397.256.594.385 1.283.385 2.068 0 .777-.129 1.467-.385 2.068-.257.594-.613 1.06-1.067 1.397a2.508 2.508 0 0 1-1.551.506zm0-.715c.447 0 .832-.132 1.155-.396.33-.271.586-.649.77-1.133.183-.491.275-1.067.275-1.727 0-.66-.092-1.232-.275-1.716-.184-.491-.44-.869-.77-1.133a1.738 1.738 0 0 0-1.155-.407c-.44 0-.825.136-1.155.407-.33.264-.587.642-.77 1.133-.184.484-.275 1.056-.275 1.716 0 .66.091 1.236.275 1.727.183.484.44.862.77 1.133.33.264.715.396 1.155.396zm7.461.715a2.555 2.555 0 0 1-1.562-.506c-.447-.337-.799-.803-1.056-1.397-.256-.601-.385-1.291-.385-2.068 0-.785.129-1.474.385-2.068.257-.594.609-1.06 1.056-1.397a2.555 2.555 0 0 1 1.562-.506c.587 0 1.104.169 1.551.506.455.337.81.803 1.067 1.397.257.594.385 1.283.385 2.068 0 .777-.128 1.467-.385 2.068-.256.594-.612 1.06-1.067 1.397a2.508 2.508 0 0 1-1.55.506zm0-.715c.448 0 .833-.132 1.155-.396.33-.271.587-.649.77-1.133.184-.491.275-1.067.275-1.727 0-.66-.091-1.232-.275-1.716-.183-.491-.44-.869-.77-1.133a1.738 1.738 0 0 0-1.155-.407c-.44 0-.825.136-1.155.407-.33.264-.586.642-.77 1.133-.183.484-.275 1.056-.275 1.716 0 .66.092 1.236.275 1.727.184.484.44.862.77 1.133.33.264.715.396 1.155.396zm7.462.715a2.555 2.555 0 0 1-1.562-.506c-.447-.337-.8-.803-1.056-1.397-.257-.601-.385-1.291-.385-2.068 0-.785.128-1.474.385-2.068.257-.594.609-1.06 1.056-1.397a2.555 2.555 0 0 1 1.562-.506c.587 0 1.104.169 1.551.506.455.337.81.803 1.067 1.397.257.594.385 1.283.385 2.068 0 .777-.128 1.467-.385 2.068-.257.594-.612 1.06-1.067 1.397a2.508 2.508 0 0 1-1.551.506zm0-.715c.447 0 .832-.132 1.155-.396.33-.271.587-.649.77-1.133.183-.491.275-1.067.275-1.727 0-.66-.092-1.232-.275-1.716-.183-.491-.44-.869-.77-1.133a1.738 1.738 0 0 0-1.155-.407c-.44 0-.825.136-1.155.407-.33.264-.587.642-.77 1.133-.183.484-.275 1.056-.275 1.716 0 .66.092 1.236.275 1.727.183.484.44.862.77 1.133.33.264.715.396 1.155.396zM12.641 358.11a2.694 2.694 0 0 1-1.573-.473c-.447-.315-.8-.748-1.056-1.298-.257-.557-.385-1.199-.385-1.925 0-.851.143-1.591.429-2.222.286-.638.69-1.133 1.21-1.485.52-.352 1.126-.528 1.815-.528.323 0 .642.044.957.132.315.088.598.216.847.385l-.396.616a3.226 3.226 0 0 0-.715-.308 2.69 2.69 0 0 0-.759-.11c-.528 0-.986.139-1.375.418-.381.271-.678.664-.891 1.177-.205.513-.315 1.129-.33 1.848a3.086 3.086 0 0 1 1.023-.858 2.648 2.648 0 0 1 1.232-.308c.499 0 .942.103 1.331.308a2.31 2.31 0 0 1 1.243 2.09c0 .484-.114.92-.341 1.309a2.459 2.459 0 0 1-.935.902c-.389.22-.832.33-1.331.33zm-.077-4.29c-.403 0-.792.103-1.166.308a3.007 3.007 0 0 0-.957.825c.059.491.183.924.374 1.298.198.367.451.653.759.858.315.205.667.308 1.056.308.352 0 .664-.077.935-.231.279-.161.495-.381.649-.66.161-.279.242-.59.242-.935 0-.345-.08-.649-.242-.913a1.633 1.633 0 0 0-.671-.627 1.992 1.992 0 0 0-.979-.231zm7.076 4.301a2.555 2.555 0 0 1-1.562-.506c-.447-.337-.799-.803-1.055-1.397-.257-.601-.386-1.291-.386-2.068 0-.785.129-1.474.386-2.068.256-.594.608-1.06 1.055-1.397a2.555 2.555 0 0 1 1.563-.506c.586 0 1.103.169 1.55.506.455.337.81.803 1.068 1.397.256.594.384 1.283.384 2.068 0 .777-.128 1.467-.384 2.068-.257.594-.613 1.06-1.067 1.397a2.508 2.508 0 0 1-1.552.506zm0-.715c.448 0 .833-.132 1.155-.396.33-.271.587-.649.77-1.133.184-.491.275-1.067.275-1.727 0-.66-.091-1.232-.274-1.716-.184-.491-.44-.869-.77-1.133a1.738 1.738 0 0 0-1.155-.407c-.44 0-.825.136-1.155.407-.33.264-.587.642-.77 1.133-.184.484-.276 1.056-.276 1.716 0 .66.092 1.236.275 1.727.184.484.44.862.77 1.133.33.264.716.396 1.155.396zm7.462.715a2.555 2.555 0 0 1-1.562-.506c-.447-.337-.8-.803-1.056-1.397-.256-.601-.385-1.291-.385-2.068 0-.785.129-1.474.385-2.068.257-.594.609-1.06 1.056-1.397a2.555 2.555 0 0 1 1.562-.506c.587 0 1.104.169 1.551.506.455.337.81.803 1.067 1.397.257.594.385 1.283.385 2.068 0 .777-.128 1.467-.385 2.068-.256.594-.612 1.06-1.067 1.397a2.508 2.508 0 0 1-1.55.506zm0-.715c.448 0 .833-.132 1.155-.396.33-.271.587-.649.77-1.133.184-.491.275-1.067.275-1.727 0-.66-.091-1.232-.275-1.716-.183-.491-.44-.869-.77-1.133a1.738 1.738 0 0 0-1.155-.407c-.44 0-.825.136-1.155.407-.33.264-.586.642-.77 1.133-.183.484-.275 1.056-.275 1.716 0 .66.092 1.236.275 1.727.184.484.44.862.77 1.133.33.264.715.396 1.155.396zM9.562 435v-.583l3.08-3.366c.241-.264.428-.495.56-.693.14-.205.235-.396.286-.572.06-.176.088-.363.088-.561 0-.389-.154-.708-.462-.957-.3-.257-.685-.385-1.155-.385-.359 0-.693.07-1 .209-.309.139-.653.381-1.035.726l-.462-.55c.404-.367.81-.638 1.221-.814.411-.183.84-.275 1.287-.275.462 0 .873.088 1.232.264.36.169.642.403.847.704.206.301.308.645.308 1.034 0 .257-.033.495-.099.715a2.675 2.675 0 0 1-.352.693c-.168.242-.41.535-.726.88l-2.629 2.849 3.971-.011V435h-4.96zm9.295.121a2.555 2.555 0 0 1-1.562-.506c-.448-.337-.8-.803-1.056-1.397-.257-.601-.385-1.291-.385-2.068 0-.785.128-1.474.385-2.068.256-.594.608-1.06 1.056-1.397a2.555 2.555 0 0 1 1.562-.506c.586 0 1.103.169 1.55.506.455.337.811.803 1.068 1.397.256.594.385 1.283.385 2.068 0 .777-.129 1.467-.385 2.068-.257.594-.613 1.06-1.067 1.397a2.508 2.508 0 0 1-1.551.506zm0-.715c.447 0 .832-.132 1.155-.396.33-.271.586-.649.77-1.133.183-.491.275-1.067.275-1.727 0-.66-.092-1.232-.275-1.716-.184-.491-.44-.869-.77-1.133a1.738 1.738 0 0 0-1.155-.407c-.44 0-.825.136-1.155.407-.33.264-.587.642-.77 1.133-.184.484-.275 1.056-.275 1.716 0 .66.091 1.236.275 1.727.183.484.44.862.77 1.133.33.264.715.396 1.155.396zm7.462.715a2.555 2.555 0 0 1-1.563-.506c-.447-.337-.799-.803-1.055-1.397-.257-.601-.386-1.291-.386-2.068 0-.785.129-1.474.386-2.068.256-.594.608-1.06 1.055-1.397a2.555 2.555 0 0 1 1.563-.506c.586 0 1.103.169 1.55.506.455.337.81.803 1.067 1.397.257.594.386 1.283.386 2.068 0 .777-.129 1.467-.386 2.068-.256.594-.612 1.06-1.067 1.397a2.508 2.508 0 0 1-1.55.506zm0-.715c.447 0 .832-.132 1.155-.396.33-.271.586-.649.77-1.133.183-.491.274-1.067.274-1.727 0-.66-.091-1.232-.274-1.716-.184-.491-.44-.869-.77-1.133a1.738 1.738 0 0 0-1.155-.407c-.44 0-.825.136-1.155.407-.33.264-.587.642-.77 1.133-.184.484-.275 1.056-.275 1.716 0 .66.091 1.236.274 1.727.184.484.44.862.77 1.133.33.264.715.396 1.155.396zM76.522 527v-6.842l-1.232.55v-.726l1.529-.682h.495v7.7h-.792zm3.265.088a.572.572 0 0 1-.418-.176.59.59 0 0 1-.165-.418c0-.169.055-.308.165-.418a.572.572 0 0 1 .418-.176c.161 0 .297.059.407.176.117.11.176.249.176.418a.571.571 0 0 1-.176.418.537.537 0 0 1-.407.176zm-53.79-.011a2.26 2.26 0 0 1-1.255-.363 2.695 2.695 0 0 1-.89-.99 2.954 2.954 0 0 1-.33-1.397c0-.521.11-.986.33-1.397.227-.418.531-.748.913-.99a2.284 2.284 0 0 1 1.276-.374c.33 0 .637.066.924.198.285.125.535.308.747.55v-3.256l.803-.165V527h-.803v-.715a2.094 2.094 0 0 1-.747.594 2.332 2.332 0 0 1-.968.198zm.198-.704c.315 0 .604-.062.869-.187.264-.125.48-.301.648-.528v-2.662a1.773 1.773 0 0 0-.67-.528 1.868 1.868 0 0 0-.848-.198c-.359 0-.681.088-.967.264a1.944 1.944 0 0 0-.672.726c-.16.308-.241.66-.241 1.056 0 .389.08.741.241 1.056.17.308.393.554.672.737.285.176.608.264.968.264zm5.832.726c-.382 0-.719-.07-1.012-.209a1.724 1.724 0 0 1-.693-.572 1.543 1.543 0 0 1-.242-.858c0-.323.084-.601.253-.836.169-.242.403-.429.704-.561a2.61 2.61 0 0 1 1.056-.198c.308 0 .597.033.869.099.278.066.535.172.77.319v-.737c0-.44-.117-.77-.352-.99-.235-.227-.58-.341-1.034-.341-.25 0-.506.037-.77.11a4.838 4.838 0 0 0-.858.352l-.297-.616c.719-.345 1.393-.517 2.024-.517.667 0 1.18.165 1.54.495.36.323.539.788.539 1.397V527h-.792v-.627a2.45 2.45 0 0 1-.781.55 2.417 2.417 0 0 1-.924.176zm-1.177-1.661c0 .315.12.568.363.759.25.191.575.286.979.286.3 0 .575-.051.825-.154.256-.103.495-.257.715-.462v-1.034a2.644 2.644 0 0 0-.704-.286 3.094 3.094 0 0 0-.814-.099c-.41 0-.74.092-.99.275a.83.83 0 0 0-.374.715zm7.39 1.672c-.461 0-.813-.11-1.055-.33-.235-.227-.352-.554-.352-.979v-3.509h-1.111v-.66h1.11v-1.474l.804-.187v1.661h1.54v.66h-1.54v3.3c0 .286.058.491.176.616.124.125.326.187.605.187.14 0 .264-.011.374-.033.11-.022.238-.059.385-.11v.715c-.147.051-.3.088-.462.11a3.499 3.499 0 0 1-.473.033zm4.58-.022c-.498 0-.946-.121-1.342-.363a2.585 2.585 0 0 1-.934-.99 2.922 2.922 0 0 1-.341-1.419c0-.528.113-1.001.34-1.419.228-.418.54-.748.935-.99a2.522 2.522 0 0 1 1.343-.363c.49 0 .93.121 1.32.363.395.242.707.572.934.99.228.418.341.891.341 1.419a2.92 2.92 0 0 1-.34 1.419 2.584 2.584 0 0 1-.935.99 2.445 2.445 0 0 1-1.32.363zm-.01-.704c.351 0 .663-.088.934-.264.272-.183.484-.433.639-.748.16-.315.241-.667.241-1.056 0-.396-.08-.748-.242-1.056a1.795 1.795 0 0 0-.637-.737 1.633 1.633 0 0 0-.935-.275c-.352 0-.664.092-.936.275a1.875 1.875 0 0 0-.649.737 2.33 2.33 0 0 0-.23 1.056c0 .389.077.741.23 1.056.162.315.378.565.65.748.27.176.583.264.934.264zm66.263.616v-.583l3.08-3.366c.242-.264.429-.495.561-.693.139-.205.235-.396.286-.572.059-.176.088-.363.088-.561 0-.389-.154-.708-.462-.957-.301-.257-.686-.385-1.155-.385-.359 0-.693.07-1.001.209-.308.139-.653.381-1.034.726l-.462-.55c.403-.367.81-.638 1.221-.814a3.13 3.13 0 0 1 1.287-.275c.462 0 .873.088 1.232.264.359.169.642.403.847.704.205.301.308.645.308 1.034 0 .257-.033.495-.099.715a2.665 2.665 0 0 1-.352.693 9.107 9.107 0 0 1-.726.88l-2.629 2.849 3.971-.011V527h-4.961zm7.04.088a.574.574 0 0 1-.418-.176.59.59 0 0 1-.165-.418c0-.169.055-.308.165-.418a.574.574 0 0 1 .418-.176c.162 0 .297.059.407.176.118.11.176.249.176.418a.568.568 0 0 1-.176.418.536.536 0 0 1-.407.176zm30.405.033a3.996 3.996 0 0 1-1.485-.275 3.521 3.521 0 0 1-1.21-.814l.528-.517c.322.323.652.557.99.704a3.09 3.09 0 0 0 1.166.209c.374 0 .704-.066.99-.198.293-.132.52-.315.682-.55.161-.235.242-.502.242-.803 0-.286-.074-.539-.22-.759a1.414 1.414 0 0 0-.583-.528 1.893 1.893 0 0 0-.858-.187h-.913v-.682h.88c.418 0 .755-.128 1.012-.385.264-.257.396-.59.396-1.001 0-.271-.074-.517-.22-.737a1.502 1.502 0 0 0-.605-.517 1.785 1.785 0 0 0-.847-.198c-.396 0-.752.073-1.067.22-.308.139-.624.378-.946.715l-.528-.528a3.41 3.41 0 0 1 1.166-.825 3.389 3.389 0 0 1 1.386-.286c.469 0 .887.092 1.254.275.374.183.667.436.88.759.212.315.319.675.319 1.078s-.132.766-.396 1.089a2.08 2.08 0 0 1-1.045.66c.52.117.938.345 1.254.682.315.337.473.73.473 1.177 0 .425-.118.807-.352 1.144a2.292 2.292 0 0 1-.957.792c-.404.191-.866.286-1.386.286zm4.692-.033a.574.574 0 0 1-.418-.176.59.59 0 0 1-.165-.418c0-.169.055-.308.165-.418a.574.574 0 0 1 .418-.176c.162 0 .297.059.407.176.118.11.176.249.176.418a.568.568 0 0 1-.176.418.536.536 0 0 1-.407.176zm31.556-.088v-2.057h-4.158v-.627l4.092-5.016h.847v4.95h1.067v.693h-1.067V527h-.781zm-3.234-2.75h3.234v-3.993l-3.234 3.993zm6.915 2.838a.57.57 0 0 1-.418-.176.59.59 0 0 1-.165-.418c0-.169.055-.308.165-.418a.57.57 0 0 1 .418-.176c.161 0 .297.059.407.176.117.11.176.249.176.418a.572.572 0 0 1-.176.418.537.537 0 0 1-.407.176zm30.58.033a3.669 3.669 0 0 1-2.618-1.045l.495-.539c.337.315.671.546 1.001.693.337.139.715.209 1.133.209.374 0 .704-.077.99-.231.286-.154.506-.37.66-.649a1.88 1.88 0 0 0 .242-.957c0-.513-.176-.928-.528-1.243-.345-.315-.8-.473-1.364-.473-.294 0-.58.037-.858.11a3.857 3.857 0 0 0-.869.33l-.55-.176.176-3.85h4.378v.693h-3.696l-.121 2.662c.293-.147.575-.249.847-.308.271-.066.557-.099.858-.099.506 0 .946.099 1.32.297.381.191.674.462.88.814.212.345.319.748.319 1.21 0 .506-.114.95-.341 1.331a2.444 2.444 0 0 1-.946.902c-.404.213-.873.319-1.408.319zm4.598-.033a.57.57 0 0 1-.418-.176.59.59 0 0 1-.165-.418c0-.169.055-.308.165-.418a.57.57 0 0 1 .418-.176c.161 0 .297.059.407.176.117.11.176.249.176.418a.572.572 0 0 1-.176.418.537.537 0 0 1-.407.176zm30.249.022a2.695 2.695 0 0 1-1.573-.473c-.447-.315-.799-.748-1.056-1.298-.257-.557-.385-1.199-.385-1.925 0-.851.143-1.591.429-2.222.286-.638.689-1.133 1.21-1.485.521-.352 1.126-.528 1.815-.528.323 0 .642.044.957.132.315.088.598.216.847.385l-.396.616a3.224 3.224 0 0 0-.715-.308 2.685 2.685 0 0 0-.759-.11c-.528 0-.986.139-1.375.418-.381.271-.678.664-.891 1.177-.205.513-.315 1.129-.33 1.848a3.086 3.086 0 0 1 1.023-.858 2.649 2.649 0 0 1 1.232-.308c.499 0 .942.103 1.331.308a2.31 2.31 0 0 1 1.243 2.09c0 .484-.114.92-.341 1.309a2.456 2.456 0 0 1-.935.902c-.389.22-.832.33-1.331.33zm-.077-4.29c-.403 0-.792.103-1.166.308a3 3 0 0 0-.957.825c.059.491.183.924.374 1.298.198.367.451.653.759.858.315.205.667.308 1.056.308.352 0 .664-.077.935-.231.279-.161.495-.381.649-.66.161-.279.242-.59.242-.935 0-.345-.081-.649-.242-.913a1.63 1.63 0 0 0-.671-.627 1.993 1.993 0 0 0-.979-.231zm4.596 4.268a.57.57 0 0 1-.418-.176.59.59 0 0 1-.165-.418c0-.169.055-.308.165-.418a.57.57 0 0 1 .418-.176c.161 0 .297.059.407.176.117.11.176.249.176.418a.572.572 0 0 1-.176.418.537.537 0 0 1-.407.176zm28.854-.088l3.828-7.007h-4.62v-.693h5.478v.616L286.149 527h-.902zm5.265.088a.57.57 0 0 1-.418-.176.59.59 0 0 1-.165-.418c0-.169.055-.308.165-.418a.57.57 0 0 1 .418-.176c.161 0 .297.059.407.176.117.11.176.249.176.418a.572.572 0 0 1-.176.418.537.537 0 0 1-.407.176zm31.125.033c-.528 0-.997-.095-1.408-.286a2.48 2.48 0 0 1-.979-.781 1.935 1.935 0 0 1-.352-1.133c0-.315.077-.605.231-.869.154-.271.367-.502.638-.693.279-.198.594-.337.946-.418a2.235 2.235 0 0 1-1.1-.671 1.622 1.622 0 0 1-.418-1.089c0-.381.106-.722.319-1.023.213-.301.502-.539.869-.715a2.909 2.909 0 0 1 1.254-.264c.469 0 .887.088 1.254.264.367.176.656.414.869.715.213.301.319.642.319 1.023 0 .403-.139.766-.418 1.089a2.17 2.17 0 0 1-1.1.671c.535.125.972.37 1.309.737.337.359.506.774.506 1.243 0 .418-.117.796-.352 1.133-.235.33-.561.59-.979.781-.411.191-.88.286-1.408.286zm0-4.51c.315 0 .598-.062.847-.187.257-.125.458-.29.605-.495.147-.213.22-.451.22-.715 0-.264-.073-.502-.22-.715a1.441 1.441 0 0 0-.605-.495 1.864 1.864 0 0 0-.847-.187c-.315 0-.601.062-.858.187a1.459 1.459 0 0 0-.594.495c-.147.213-.22.451-.22.715 0 .264.073.502.22.715.147.205.345.37.594.495.257.125.543.187.858.187zm0 3.872c.374 0 .708-.07 1.001-.209.293-.139.524-.33.693-.572a1.35 1.35 0 0 0 .264-.814 1.35 1.35 0 0 0-.264-.814 1.728 1.728 0 0 0-.693-.572 2.31 2.31 0 0 0-1.001-.209c-.374 0-.708.07-1.001.209-.293.139-.528.33-.704.572a1.387 1.387 0 0 0-.253.814c0 .301.084.572.253.814.176.242.411.433.704.572a2.31 2.31 0 0 0 1.001.209zm4.729.605a.574.574 0 0 1-.418-.176.59.59 0 0 1-.165-.418c0-.169.055-.308.165-.418a.574.574 0 0 1 .418-.176c.162 0 .297.059.407.176.118.11.176.249.176.418a.568.568 0 0 1-.176.418.536.536 0 0 1-.407.176zm30.062-7.909c.594 0 1.114.158 1.562.473.454.315.81.752 1.067 1.309.256.55.385 1.188.385 1.914 0 .851-.143 1.595-.429 2.233-.286.631-.69 1.122-1.21 1.474-.514.352-1.119.528-1.815.528-.316 0-.635-.044-.957-.132a3.3 3.3 0 0 1-.847-.385l.396-.616c.227.132.465.235.715.308.256.073.509.11.759.11.528 0 .982-.136 1.364-.407.388-.279.689-.675.902-1.188.212-.521.322-1.137.33-1.848a3.086 3.086 0 0 1-1.023.858 2.649 2.649 0 0 1-1.232.308c-.499 0-.943-.103-1.331-.308a2.397 2.397 0 0 1-.913-.858 2.31 2.31 0 0 1-.33-1.232 2.5 2.5 0 0 1 .341-1.309c.227-.381.535-.682.924-.902.396-.22.843-.33 1.342-.33zm.077 4.29a2.4 2.4 0 0 0 1.155-.297c.374-.205.696-.484.968-.836-.052-.499-.176-.931-.374-1.298a2.339 2.339 0 0 0-.759-.858 1.862 1.862 0 0 0-1.056-.308c-.352 0-.668.081-.946.242-.272.154-.488.37-.649.649a1.86 1.86 0 0 0-.231.935c0 .345.08.653.242.924.161.264.381.473.66.627.286.147.616.22.99.22zm4.861 3.619a.572.572 0 0 1-.418-.176.59.59 0 0 1-.165-.418c0-.169.055-.308.165-.418a.572.572 0 0 1 .418-.176c.161 0 .297.059.407.176.117.11.176.249.176.418a.572.572 0 0 1-.176.418.537.537 0 0 1-.407.176zm26.565-.088v-6.842l-1.232.55v-.726l1.529-.682h.495v7.7h-.792zm5.52.121a2.553 2.553 0 0 1-1.562-.506c-.448-.337-.8-.803-1.056-1.397-.257-.601-.385-1.291-.385-2.068 0-.785.128-1.474.385-2.068.256-.594.608-1.06 1.056-1.397a2.553 2.553 0 0 1 1.562-.506 2.51 2.51 0 0 1 1.551.506c.454.337.81.803 1.067 1.397.256.594.385 1.283.385 2.068 0 .777-.129 1.467-.385 2.068-.257.594-.613 1.06-1.067 1.397a2.51 2.51 0 0 1-1.551.506zm0-.715c.447 0 .832-.132 1.155-.396.33-.271.586-.649.77-1.133.183-.491.275-1.067.275-1.727 0-.66-.092-1.232-.275-1.716-.184-.491-.44-.869-.77-1.133a1.74 1.74 0 0 0-1.155-.407c-.44 0-.825.136-1.155.407-.33.264-.587.642-.77 1.133-.184.484-.275 1.056-.275 1.716 0 .66.091 1.236.275 1.727.183.484.44.862.77 1.133.33.264.715.396 1.155.396zm4.927.682a.574.574 0 0 1-.418-.176.59.59 0 0 1-.165-.418c0-.169.055-.308.165-.418a.574.574 0 0 1 .418-.176c.162 0 .297.059.407.176.118.11.176.249.176.418a.568.568 0 0 1-.176.418.536.536 0 0 1-.407.176zm26.357-.088v-6.842l-1.232.55v-.726l1.529-.682h.495v7.7h-.792zm3.573 0v-6.842l-1.232.55v-.726l1.529-.682h.495v7.7h-.792zm3.266.088a.57.57 0 0 1-.418-.176.59.59 0 0 1-.165-.418c0-.169.055-.308.165-.418a.57.57 0 0 1 .418-.176c.161 0 .297.059.407.176.117.11.176.249.176.418a.572.572 0 0 1-.176.418.537.537 0 0 1-.407.176zm26.835-.088v-6.842l-1.232.55v-.726l1.529-.682h.495v7.7h-.792zm2.451 0v-.583l3.08-3.366c.242-.264.429-.495.561-.693.139-.205.234-.396.286-.572.058-.176.088-.363.088-.561 0-.389-.154-.708-.462-.957-.301-.257-.686-.385-1.155-.385-.36 0-.693.07-1.001.209-.308.139-.653.381-1.034.726l-.462-.55c.403-.367.81-.638 1.221-.814.41-.183.839-.275 1.287-.275.462 0 .872.088 1.232.264.359.169.641.403.847.704.205.301.308.645.308 1.034 0 .257-.033.495-.099.715a2.697 2.697 0 0 1-.352.693 9.107 9.107 0 0 1-.726.88l-2.629 2.849 3.971-.011V527h-4.961zm7.04.088a.574.574 0 0 1-.418-.176.59.59 0 0 1-.165-.418c0-.169.055-.308.165-.418a.574.574 0 0 1 .418-.176c.162 0 .297.059.407.176.118.11.176.249.176.418a.568.568 0 0 1-.176.418.536.536 0 0 1-.407.176zm25.412-.088v-6.842l-1.232.55v-.726l1.529-.682h.495v7.7h-.792zm4.992.121a3.996 3.996 0 0 1-1.485-.275 3.521 3.521 0 0 1-1.21-.814l.528-.517c.323.323.653.557.99.704.345.139.733.209 1.166.209.374 0 .704-.066.99-.198.293-.132.521-.315.682-.55.161-.235.242-.502.242-.803 0-.286-.073-.539-.22-.759a1.408 1.408 0 0 0-.583-.528 1.887 1.887 0 0 0-.858-.187h-.913v-.682h.88c.418 0 .755-.128 1.012-.385.264-.257.396-.59.396-1.001 0-.271-.073-.517-.22-.737a1.496 1.496 0 0 0-.605-.517 1.782 1.782 0 0 0-.847-.198c-.396 0-.752.073-1.067.22-.308.139-.623.378-.946.715l-.528-.528a3.42 3.42 0 0 1 1.166-.825 3.395 3.395 0 0 1 1.386-.286c.469 0 .887.092 1.254.275.374.183.667.436.88.759.213.315.319.675.319 1.078s-.132.766-.396 1.089a2.075 2.075 0 0 1-1.045.66c.521.117.939.345 1.254.682.315.337.473.73.473 1.177 0 .425-.117.807-.352 1.144a2.28 2.28 0 0 1-.957.792c-.403.191-.865.286-1.386.286zm4.693-.033a.572.572 0 0 1-.418-.176.59.59 0 0 1-.165-.418c0-.169.055-.308.165-.418a.572.572 0 0 1 .418-.176c.161 0 .297.059.407.176.117.11.176.249.176.418a.572.572 0 0 1-.176.418.537.537 0 0 1-.407.176zm25.079-.088v-6.842l-1.232.55v-.726l1.529-.682h.495v7.7h-.792zm6.477 0v-2.057h-4.158v-.627l4.092-5.016h.847v4.95h1.067v.693h-1.067V527h-.781zm-3.234-2.75h3.234v-3.993l-3.234 3.993zm6.914 2.838a.574.574 0 0 1-.418-.176.59.59 0 0 1-.165-.418c0-.169.055-.308.165-.418a.574.574 0 0 1 .418-.176c.162 0 .297.059.407.176.118.11.176.249.176.418a.568.568 0 0 1-.176.418.536.536 0 0 1-.407.176zm25.165-.088v-6.842l-1.232.55v-.726l1.529-.682h.495v7.7h-.792zm4.915.121a3.669 3.669 0 0 1-2.618-1.045l.495-.539c.337.315.671.546 1.001.693.337.139.715.209 1.133.209.374 0 .704-.077.99-.231.286-.154.506-.37.66-.649a1.88 1.88 0 0 0 .242-.957c0-.513-.176-.928-.528-1.243-.345-.315-.799-.473-1.364-.473-.293 0-.579.037-.858.11a3.875 3.875 0 0 0-.869.33l-.55-.176.176-3.85h4.378v.693h-3.696l-.121 2.662c.293-.147.576-.249.847-.308.271-.066.557-.099.858-.099.506 0 .946.099 1.32.297.381.191.675.462.88.814.213.345.319.748.319 1.21 0 .506-.114.95-.341 1.331a2.438 2.438 0 0 1-.946.902c-.403.213-.873.319-1.408.319zm4.598-.033a.572.572 0 0 1-.418-.176.59.59 0 0 1-.165-.418c0-.169.055-.308.165-.418a.572.572 0 0 1 .418-.176c.161 0 .297.059.407.176.117.11.176.249.176.418a.572.572 0 0 1-.176.418.537.537 0 0 1-.407.176zm25.218-.088v-6.842l-1.232.55v-.726l1.529-.682h.495v7.7h-.792zm5.532.11a2.693 2.693 0 0 1-1.573-.473c-.448-.315-.8-.748-1.056-1.298-.257-.557-.385-1.199-.385-1.925 0-.851.143-1.591.429-2.222.286-.638.689-1.133 1.21-1.485.52-.352 1.125-.528 1.815-.528.322 0 .641.044.957.132.315.088.597.216.847.385l-.396.616a3.244 3.244 0 0 0-.715-.308 2.696 2.696 0 0 0-.759-.11c-.528 0-.987.139-1.375.418-.382.271-.679.664-.891 1.177-.206.513-.316 1.129-.33 1.848a3.086 3.086 0 0 1 1.023-.858 2.646 2.646 0 0 1 1.232-.308c.498 0 .942.103 1.331.308a2.31 2.31 0 0 1 1.243 2.09c0 .484-.114.92-.341 1.309a2.463 2.463 0 0 1-.935.902c-.389.22-.833.33-1.331.33zm-.077-4.29c-.404 0-.792.103-1.166.308a3 3 0 0 0-.957.825c.058.491.183.924.374 1.298.198.367.451.653.759.858.315.205.667.308 1.056.308.352 0 .663-.077.935-.231a1.7 1.7 0 0 0 .649-.66c.161-.279.242-.59.242-.935 0-.345-.081-.649-.242-.913a1.637 1.637 0 0 0-.671-.627 1.993 1.993 0 0 0-.979-.231zm4.595 4.268a.574.574 0 0 1-.418-.176.59.59 0 0 1-.165-.418c0-.169.055-.308.165-.418a.574.574 0 0 1 .418-.176c.162 0 .297.059.407.176.118.11.176.249.176.418a.568.568 0 0 1-.176.418.536.536 0 0 1-.407.176zM634.01 527v-6.842l-1.232.55v-.726l1.529-.682h.495v7.7h-.792zm3.023 0l3.828-7.007h-4.62v-.693h5.478v.616L637.935 527h-.902zm5.266.088a.57.57 0 0 1-.418-.176.59.59 0 0 1-.165-.418c0-.169.055-.308.165-.418a.57.57 0 0 1 .418-.176c.161 0 .297.059.407.176.117.11.176.249.176.418a.572.572 0 0 1-.176.418.537.537 0 0 1-.407.176zm26.857-.088v-6.842l-1.232.55v-.726l1.529-.682h.495v7.7h-.792zm5.267.121c-.528 0-.997-.095-1.408-.286a2.488 2.488 0 0 1-.979-.781 1.942 1.942 0 0 1-.352-1.133c0-.315.077-.605.231-.869.154-.271.367-.502.638-.693.279-.198.594-.337.946-.418a2.235 2.235 0 0 1-1.1-.671 1.627 1.627 0 0 1-.418-1.089c0-.381.107-.722.319-1.023.213-.301.503-.539.869-.715a2.909 2.909 0 0 1 1.254-.264c.47 0 .888.088 1.254.264a2.2 2.2 0 0 1 .869.715c.213.301.319.642.319 1.023 0 .403-.139.766-.418 1.089-.278.323-.645.546-1.1.671.536.125.972.37 1.309.737.338.359.506.774.506 1.243 0 .418-.117.796-.352 1.133a2.38 2.38 0 0 1-.979.781c-.41.191-.88.286-1.408.286zm0-4.51c.316 0 .598-.062.847-.187.257-.125.459-.29.605-.495.147-.213.22-.451.22-.715 0-.264-.073-.502-.22-.715a1.435 1.435 0 0 0-.605-.495 1.86 1.86 0 0 0-.847-.187c-.315 0-.601.062-.858.187a1.459 1.459 0 0 0-.594.495c-.146.213-.22.451-.22.715 0 .264.074.502.22.715.147.205.345.37.594.495.257.125.543.187.858.187zm0 3.872c.374 0 .708-.07 1.001-.209.294-.139.525-.33.693-.572a1.35 1.35 0 0 0 .264-.814 1.35 1.35 0 0 0-.264-.814 1.715 1.715 0 0 0-.693-.572 2.31 2.31 0 0 0-1.001-.209c-.374 0-.707.07-1.001.209-.293.139-.528.33-.704.572a1.394 1.394 0 0 0-.253.814c0 .301.085.572.253.814.176.242.411.433.704.572.294.139.627.209 1.001.209zm4.73.605a.57.57 0 0 1-.418-.176.59.59 0 0 1-.165-.418c0-.169.055-.308.165-.418a.57.57 0 0 1 .418-.176c.161 0 .297.059.407.176.117.11.176.249.176.418a.572.572 0 0 1-.176.418.537.537 0 0 1-.407.176zm26.003-.088v-6.842l-1.232.55v-.726l1.529-.682h.495v7.7h-.792zm5.058-7.821c.594 0 1.115.158 1.562.473.455.315.811.752 1.067 1.309.257.55.385 1.188.385 1.914 0 .851-.143 1.595-.429 2.233-.286.631-.689 1.122-1.21 1.474-.513.352-1.118.528-1.815.528a3.63 3.63 0 0 1-.957-.132 3.331 3.331 0 0 1-.847-.385l.396-.616c.228.132.466.235.715.308.257.073.51.11.759.11.528 0 .983-.136 1.364-.407.389-.279.69-.675.902-1.188.213-.521.323-1.137.33-1.848a3.086 3.086 0 0 1-1.023.858 2.646 2.646 0 0 1-1.232.308c-.498 0-.942-.103-1.331-.308a2.404 2.404 0 0 1-.913-.858 2.31 2.31 0 0 1-.33-1.232c0-.491.114-.928.341-1.309.228-.381.536-.682.924-.902.396-.22.844-.33 1.342-.33zm.077 4.29c.404 0 .789-.099 1.155-.297.374-.205.697-.484.968-.836a3.447 3.447 0 0 0-.374-1.298 2.339 2.339 0 0 0-.759-.858 1.862 1.862 0 0 0-1.056-.308c-.352 0-.667.081-.946.242-.271.154-.487.37-.649.649a1.86 1.86 0 0 0-.231.935c0 .345.081.653.242.924.162.264.382.473.66.627.286.147.616.22.99.22zm4.862 3.619a.57.57 0 0 1-.418-.176.59.59 0 0 1-.165-.418c0-.169.055-.308.165-.418a.57.57 0 0 1 .418-.176c.161 0 .297.059.407.176.117.11.176.249.176.418a.572.572 0 0 1-.176.418.537.537 0 0 1-.407.176zM739.957 520v-.583l3.08-3.366c.242-.264.429-.495.561-.693.139-.205.235-.396.286-.572.059-.176.088-.363.088-.561 0-.389-.154-.708-.462-.957-.301-.257-.686-.385-1.155-.385-.359 0-.693.07-1.001.209-.308.139-.653.381-1.034.726l-.462-.55c.403-.367.81-.638 1.221-.814a3.13 3.13 0 0 1 1.287-.275c.462 0 .873.088 1.232.264.359.169.642.403.847.704.205.301.308.645.308 1.034 0 .257-.033.495-.099.715a2.665 2.665 0 0 1-.352.693 9.107 9.107 0 0 1-.726.88l-2.629 2.849 3.971-.011V520h-4.961zm9.295.121a2.557 2.557 0 0 1-1.562-.506c-.447-.337-.799-.803-1.056-1.397-.256-.601-.385-1.291-.385-2.068 0-.785.129-1.474.385-2.068.257-.594.609-1.06 1.056-1.397a2.557 2.557 0 0 1 1.562-.506c.587 0 1.104.169 1.551.506.455.337.811.803 1.067 1.397.257.594.385 1.283.385 2.068 0 .777-.128 1.467-.385 2.068-.256.594-.612 1.06-1.067 1.397a2.507 2.507 0 0 1-1.551.506zm0-.715c.448 0 .833-.132 1.155-.396.33-.271.587-.649.77-1.133.184-.491.275-1.067.275-1.727 0-.66-.091-1.232-.275-1.716-.183-.491-.44-.869-.77-1.133a1.736 1.736 0 0 0-1.155-.407c-.44 0-.825.136-1.155.407-.33.264-.586.642-.77 1.133-.183.484-.275 1.056-.275 1.716 0 .66.092 1.236.275 1.727.184.484.44.862.77 1.133.33.264.715.396 1.155.396zM746 535.088a.574.574 0 0 1-.418-.176.59.59 0 0 1-.165-.418c0-.169.055-.308.165-.418a.574.574 0 0 1 .418-.176c.162 0 .297.059.407.176.118.11.176.249.176.418a.568.568 0 0 1-.176.418.536.536 0 0 1-.407.176zM776.286 527v-.583l3.081-3.366c.242-.264.428-.495.561-.693.139-.205.234-.396.286-.572.058-.176.088-.363.088-.561 0-.389-.154-.708-.462-.957-.301-.257-.686-.385-1.156-.385-.359 0-.693.07-1.001.209-.308.139-.652.381-1.034.726l-.461-.55c.403-.367.81-.638 1.22-.814.411-.183.84-.275 1.288-.275.462 0 .872.088 1.232.264.359.169.641.403.846.704.206.301.309.645.309 1.034 0 .257-.033.495-.099.715a2.697 2.697 0 0 1-.352.693 9.107 9.107 0 0 1-.726.88l-2.63 2.849 3.972-.011V527h-4.962zm7.349 0v-6.842l-1.232.55v-.726l1.529-.682h.495v7.7h-.792zm3.265.088a.572.572 0 0 1-.418-.176.59.59 0 0 1-.165-.418c0-.169.055-.308.165-.418a.572.572 0 0 1 .418-.176c.161 0 .297.059.407.176.117.11.176.249.176.418a.572.572 0 0 1-.176.418.537.537 0 0 1-.407.176zm24.06-.088v-.583l3.08-3.366c.242-.264.429-.495.561-.693.14-.205.235-.396.286-.572.059-.176.088-.363.088-.561 0-.389-.154-.708-.462-.957-.3-.257-.685-.385-1.155-.385-.359 0-.693.07-1.001.209-.308.139-.652.381-1.034.726l-.462-.55a4.443 4.443 0 0 1 1.221-.814 3.13 3.13 0 0 1 1.287-.275c.462 0 .873.088 1.232.264.36.169.642.403.847.704.206.301.308.645.308 1.034 0 .257-.033.495-.099.715a2.665 2.665 0 0 1-.352.693c-.168.242-.41.535-.726.88l-2.629 2.849 3.971-.011V527h-4.961zm6.227 0v-.583l3.08-3.366c.242-.264.429-.495.561-.693.139-.205.234-.396.286-.572.058-.176.088-.363.088-.561 0-.389-.154-.708-.462-.957-.301-.257-.686-.385-1.155-.385-.36 0-.693.07-1.001.209-.308.139-.653.381-1.034.726l-.462-.55c.403-.367.81-.638 1.221-.814.41-.183.839-.275 1.287-.275.462 0 .872.088 1.232.264.359.169.641.403.847.704.205.301.308.645.308 1.034 0 .257-.033.495-.099.715a2.697 2.697 0 0 1-.352.693 9.107 9.107 0 0 1-.726.88l-2.629 2.849 3.971-.011V527h-4.961zm7.04.088a.572.572 0 0 1-.418-.176.59.59 0 0 1-.165-.418c0-.169.055-.308.165-.418a.572.572 0 0 1 .418-.176c.161 0 .297.059.407.176.117.11.176.249.176.418a.572.572 0 0 1-.176.418.537.537 0 0 1-.407.176zm22.637-.088v-.583l3.08-3.366c.242-.264.429-.495.561-.693.139-.205.234-.396.286-.572.058-.176.088-.363.088-.561 0-.389-.154-.708-.462-.957-.301-.257-.686-.385-1.155-.385-.36 0-.693.07-1.001.209-.308.139-.653.381-1.034.726l-.462-.55c.403-.367.81-.638 1.221-.814.41-.183.839-.275 1.287-.275.462 0 .872.088 1.232.264.359.169.641.403.847.704.205.301.308.645.308 1.034 0 .257-.033.495-.099.715a2.697 2.697 0 0 1-.352.693 9.107 9.107 0 0 1-.726.88l-2.629 2.849 3.971-.011V527h-4.961zm8.767.121a3.996 3.996 0 0 1-1.485-.275 3.521 3.521 0 0 1-1.21-.814l.528-.517c.323.323.653.557.99.704.345.139.733.209 1.166.209.374 0 .704-.066.99-.198.293-.132.521-.315.682-.55.161-.235.242-.502.242-.803 0-.286-.073-.539-.22-.759a1.408 1.408 0 0 0-.583-.528 1.887 1.887 0 0 0-.858-.187h-.913v-.682h.88c.418 0 .755-.128 1.012-.385.264-.257.396-.59.396-1.001 0-.271-.073-.517-.22-.737a1.496 1.496 0 0 0-.605-.517 1.782 1.782 0 0 0-.847-.198c-.396 0-.752.073-1.067.22-.308.139-.623.378-.946.715l-.528-.528a3.42 3.42 0 0 1 1.166-.825 3.395 3.395 0 0 1 1.386-.286c.469 0 .887.092 1.254.275.374.183.667.436.88.759.213.315.319.675.319 1.078s-.132.766-.396 1.089a2.075 2.075 0 0 1-1.045.66c.521.117.939.345 1.254.682.315.337.473.73.473 1.177 0 .425-.117.807-.352 1.144a2.28 2.28 0 0 1-.957.792c-.403.191-.865.286-1.386.286zm4.693-.033a.57.57 0 0 1-.418-.176.59.59 0 0 1-.165-.418c0-.169.055-.308.165-.418a.57.57 0 0 1 .418-.176c.161 0 .297.059.407.176.117.11.176.249.176.418a.572.572 0 0 1-.176.418.537.537 0 0 1-.407.176zM882.74 527v-.583l3.08-3.366c.242-.264.429-.495.561-.693.139-.205.234-.396.286-.572.058-.176.088-.363.088-.561 0-.389-.154-.708-.462-.957-.301-.257-.686-.385-1.155-.385-.36 0-.693.07-1.001.209-.308.139-.653.381-1.034.726l-.462-.55c.403-.367.81-.638 1.221-.814.41-.183.839-.275 1.287-.275.462 0 .872.088 1.232.264.359.169.641.403.847.704.205.301.308.645.308 1.034 0 .257-.033.495-.099.715a2.697 2.697 0 0 1-.352.693 9.107 9.107 0 0 1-.726.88l-2.629 2.849 3.971-.011V527h-4.961zm10.026 0v-2.057h-4.158v-.627l4.092-5.016h.847v4.95h1.067v.693h-1.067V527h-.781zm-3.234-2.75h3.234v-3.993l-3.234 3.993zm6.915 2.838a.57.57 0 0 1-.418-.176.59.59 0 0 1-.165-.418c0-.169.055-.308.165-.418a.57.57 0 0 1 .418-.176c.161 0 .297.059.407.176.117.11.176.249.176.418a.572.572 0 0 1-.176.418.537.537 0 0 1-.407.176zM918.45 527v-.583l3.08-3.366c.242-.264.429-.495.561-.693.139-.205.234-.396.286-.572.058-.176.088-.363.088-.561 0-.389-.154-.708-.462-.957-.301-.257-.686-.385-1.155-.385-.36 0-.693.07-1.001.209-.308.139-.653.381-1.034.726l-.462-.55c.403-.367.81-.638 1.221-.814.41-.183.839-.275 1.287-.275.462 0 .872.088 1.232.264.359.169.641.403.847.704.205.301.308.645.308 1.034 0 .257-.033.495-.099.715a2.697 2.697 0 0 1-.352.693 9.107 9.107 0 0 1-.726.88l-2.629 2.849 3.971-.011V527h-4.961zm8.69.121a3.669 3.669 0 0 1-2.618-1.045l.495-.539c.337.315.671.546 1.001.693.337.139.715.209 1.133.209.374 0 .704-.077.99-.231.286-.154.506-.37.66-.649a1.88 1.88 0 0 0 .242-.957c0-.513-.176-.928-.528-1.243-.345-.315-.799-.473-1.364-.473-.293 0-.579.037-.858.11a3.875 3.875 0 0 0-.869.33l-.55-.176.176-3.85h4.378v.693h-3.696l-.121 2.662c.293-.147.576-.249.847-.308.271-.066.557-.099.858-.099.506 0 .946.099 1.32.297.381.191.675.462.88.814.213.345.319.748.319 1.21 0 .506-.114.95-.341 1.331a2.438 2.438 0 0 1-.946.902c-.403.213-.873.319-1.408.319zm4.598-.033a.57.57 0 0 1-.418-.176.59.59 0 0 1-.165-.418c0-.169.055-.308.165-.418a.57.57 0 0 1 .418-.176c.161 0 .297.059.407.176.117.11.176.249.176.418a.572.572 0 0 1-.176.418.537.537 0 0 1-.407.176zm22.943-.088v-.583l3.08-3.366c.242-.264.429-.495.561-.693.139-.205.235-.396.286-.572.059-.176.088-.363.088-.561 0-.389-.154-.708-.462-.957-.301-.257-.686-.385-1.155-.385-.359 0-.693.07-1.001.209-.308.139-.653.381-1.034.726l-.462-.55c.403-.367.81-.638 1.221-.814a3.13 3.13 0 0 1 1.287-.275c.462 0 .873.088 1.232.264.359.169.642.403.847.704.205.301.308.645.308 1.034 0 .257-.033.495-.099.715a2.665 2.665 0 0 1-.352.693 9.107 9.107 0 0 1-.726.88l-2.629 2.849 3.971-.011V527h-4.961zm9.306.11a2.695 2.695 0 0 1-1.573-.473c-.447-.315-.799-.748-1.056-1.298-.256-.557-.385-1.199-.385-1.925 0-.851.143-1.591.429-2.222.286-.638.69-1.133 1.21-1.485.521-.352 1.126-.528 1.815-.528.323 0 .642.044.957.132.316.088.598.216.847.385l-.396.616a3.204 3.204 0 0 0-.715-.308 2.685 2.685 0 0 0-.759-.11c-.528 0-.986.139-1.375.418-.381.271-.678.664-.891 1.177-.205.513-.315 1.129-.33 1.848a3.086 3.086 0 0 1 1.023-.858 2.649 2.649 0 0 1 1.232-.308c.499 0 .943.103 1.331.308a2.31 2.31 0 0 1 1.243 2.09c0 .484-.113.92-.341 1.309a2.456 2.456 0 0 1-.935.902c-.388.22-.832.33-1.331.33zm-.077-4.29c-.403 0-.792.103-1.166.308a3.022 3.022 0 0 0-.957.825c.059.491.184.924.374 1.298.198.367.451.653.759.858a1.9 1.9 0 0 0 1.056.308c.352 0 .664-.077.935-.231.279-.161.495-.381.649-.66.162-.279.242-.59.242-.935 0-.345-.08-.649-.242-.913a1.63 1.63 0 0 0-.671-.627 1.99 1.99 0 0 0-.979-.231zm4.596 4.268a.574.574 0 0 1-.418-.176.59.59 0 0 1-.165-.418c0-.169.055-.308.165-.418a.574.574 0 0 1 .418-.176c.162 0 .297.059.407.176.118.11.176.249.176.418a.568.568 0 0 1-.176.418.536.536 0 0 1-.407.176zm23.11-.088v-.583l3.08-3.366c.242-.264.429-.495.561-.693.139-.205.234-.396.286-.572.058-.176.088-.363.088-.561 0-.389-.154-.708-.462-.957-.301-.257-.686-.385-1.155-.385-.36 0-.693.07-1.001.209-.308.139-.653.381-1.034.726l-.462-.55c.403-.367.81-.638 1.221-.814.41-.183.839-.275 1.287-.275.462 0 .872.088 1.232.264.359.169.641.403.847.704.205.301.308.645.308 1.034 0 .257-.033.495-.099.715a2.697 2.697 0 0 1-.352.693 9.107 9.107 0 0 1-.726.88l-2.629 2.849 3.971-.011V527h-4.961zm6.691 0l3.823-7.007h-4.615v-.693h5.475v.616L999.209 527h-.902zm5.263.088c-.16 0-.3-.059-.42-.176a.586.586 0 0 1-.16-.418c0-.169.05-.308.16-.418a.583.583 0 0 1 .42-.176c.16 0 .3.059.41.176.12.11.17.249.17.418 0 .161-.05.301-.17.418a.545.545 0 0 1-.41.176zm23.19-.088v-.583l3.08-3.366c.24-.264.43-.495.56-.693.14-.205.24-.396.29-.572.06-.176.09-.363.09-.561 0-.389-.16-.708-.47-.957-.3-.257-.68-.385-1.15-.385-.36 0-.69.07-1 .209-.31.139-.65.381-1.04.726l-.46-.55c.41-.367.81-.638 1.22-.814.41-.183.84-.275 1.29-.275.46 0 .87.088 1.23.264.36.169.64.403.85.704.2.301.31.645.31 1.034 0 .257-.04.495-.1.715a3.13 3.13 0 0 1-.35.693c-.17.242-.41.535-.73.88l-2.63 2.849 3.97-.011V527h-4.96zm8.94.121c-.53 0-1-.095-1.41-.286a2.477 2.477 0 0 1-.98-.781 1.899 1.899 0 0 1-.35-1.133c0-.315.07-.605.23-.869.15-.271.36-.502.64-.693.27-.198.59-.337.94-.418a2.24 2.24 0 0 1-1.1-.671 1.62 1.62 0 0 1-.42-1.089c0-.381.11-.722.32-1.023.22-.301.51-.539.87-.715a2.93 2.93 0 0 1 1.26-.264c.47 0 .88.088 1.25.264.37.176.66.414.87.715.21.301.32.642.32 1.023 0 .403-.14.766-.42 1.089-.28.323-.65.546-1.1.671.54.125.97.37 1.31.737.34.359.51.774.51 1.243 0 .418-.12.796-.36 1.133-.23.33-.56.59-.98.781a3.29 3.29 0 0 1-1.4.286zm0-4.51c.31 0 .59-.062.84-.187.26-.125.46-.29.61-.495.14-.213.22-.451.22-.715 0-.264-.08-.502-.22-.715a1.456 1.456 0 0 0-.61-.495 1.852 1.852 0 0 0-.84-.187c-.32 0-.61.062-.86.187a1.49 1.49 0 0 0-.6.495c-.14.213-.22.451-.22.715 0 .264.08.502.22.715.15.205.35.37.6.495s.54.187.86.187zm0 3.872c.37 0 .7-.07 1-.209.29-.139.52-.33.69-.572.18-.242.26-.513.26-.814 0-.301-.08-.572-.26-.814-.17-.242-.4-.433-.69-.572a2.34 2.34 0 0 0-1-.209c-.38 0-.71.07-1 .209-.3.139-.53.33-.71.572-.17.242-.25.513-.25.814 0 .301.08.572.25.814.18.242.41.433.71.572.29.139.62.209 1 .209zm4.73.605a.552.552 0 0 1-.42-.176.595.595 0 0 1-.17-.418.57.57 0 0 1 .17-.418.552.552 0 0 1 .42-.176c.16 0 .29.059.4.176.12.11.18.249.18.418 0 .161-.06.301-.18.418a.524.524 0 0 1-.4.176zm22.28-.088v-.583l3.08-3.366c.24-.264.43-.495.56-.693.14-.205.23-.396.28-.572.06-.176.09-.363.09-.561 0-.389-.15-.708-.46-.957-.3-.257-.69-.385-1.15-.385-.36 0-.7.07-1.01.209-.3.139-.65.381-1.03.726l-.46-.55c.4-.367.81-.638 1.22-.814.41-.183.84-.275 1.29-.275.46 0 .87.088 1.23.264.36.169.64.403.85.704.2.301.3.645.3 1.034 0 .257-.03.495-.1.715-.06.213-.18.444-.35.693-.17.242-.41.535-.72.88l-2.63 2.849 3.97-.011V527h-4.96zm8.83-7.821c.59 0 1.12.158 1.56.473.46.315.81.752 1.07 1.309.26.55.38 1.188.38 1.914 0 .851-.14 1.595-.42 2.233-.29.631-.69 1.122-1.21 1.474-.52.352-1.12.528-1.82.528-.31 0-.63-.044-.96-.132a3.363 3.363 0 0 1-.84-.385l.39-.616c.23.132.47.235.72.308.25.073.51.11.76.11.52 0 .98-.136 1.36-.407.39-.279.69-.675.9-1.188.22-.521.33-1.137.33-1.848a2.98 2.98 0 0 1-1.02.858c-.4.205-.81.308-1.23.308-.5 0-.94-.103-1.33-.308a2.41 2.41 0 0 1-.92-.858 2.31 2.31 0 0 1-.33-1.232c0-.491.12-.928.34-1.309.23-.381.54-.682.93-.902.39-.22.84-.33 1.34-.33zm.08 4.29c.4 0 .79-.099 1.15-.297.38-.205.7-.484.97-.836a3.578 3.578 0 0 0-.37-1.298c-.2-.367-.45-.653-.76-.858a1.87 1.87 0 0 0-1.06-.308c-.35 0-.67.081-.94.242-.28.154-.49.37-.65.649-.16.271-.23.583-.23.935 0 .345.08.653.24.924.16.264.38.473.66.627.28.147.61.22.99.22zm4.86 3.619c-.16 0-.3-.059-.42-.176a.586.586 0 0 1-.16-.418c0-.169.05-.308.16-.418a.583.583 0 0 1 .42-.176c.16 0 .3.059.41.176.11.11.17.249.17.418 0 .161-.06.301-.17.418a.545.545 0 0 1-.41.176zm23.89.033c-.53 0-1.03-.092-1.49-.275a3.55 3.55 0 0 1-1.21-.814l.53-.517c.32.323.65.557.99.704.35.139.73.209 1.17.209.37 0 .7-.066.99-.198.29-.132.52-.315.68-.55.16-.235.24-.502.24-.803 0-.286-.07-.539-.22-.759a1.4 1.4 0 0 0-.58-.528 1.908 1.908 0 0 0-.86-.187h-.91v-.682h.88c.41 0 .75-.128 1.01-.385s.39-.59.39-1.001c0-.271-.07-.517-.22-.737-.14-.22-.34-.392-.6-.517a1.783 1.783 0 0 0-.85-.198c-.39 0-.75.073-1.06.22-.31.139-.63.378-.95.715l-.53-.528c.35-.367.73-.642 1.17-.825a3.36 3.36 0 0 1 1.38-.286c.47 0 .89.092 1.26.275.37.183.66.436.88.759.21.315.32.675.32 1.078s-.14.766-.4 1.089c-.26.315-.61.535-1.04.66.52.117.93.345 1.25.682.31.337.47.73.47 1.177 0 .425-.11.807-.35 1.144-.23.337-.55.601-.96.792-.4.191-.86.286-1.38.286zm7.06 0c-.58 0-1.1-.169-1.56-.506-.45-.337-.8-.803-1.05-1.397-.26-.601-.39-1.291-.39-2.068 0-.785.13-1.474.39-2.068.25-.594.6-1.06 1.05-1.397.46-.337.98-.506 1.56-.506.59 0 1.11.169 1.55.506.46.337.81.803 1.07 1.397s.39 1.283.39 2.068c0 .777-.13 1.467-.39 2.068-.26.594-.61 1.06-1.07 1.397-.44.337-.96.506-1.55.506zm0-.715c.45 0 .84-.132 1.16-.396.33-.271.58-.649.77-1.133.18-.491.27-1.067.27-1.727 0-.66-.09-1.232-.27-1.716-.19-.491-.44-.869-.77-1.133a1.742 1.742 0 0 0-1.16-.407c-.44 0-.82.136-1.15.407-.33.264-.59.642-.77 1.133-.19.484-.28 1.056-.28 1.716 0 .66.09 1.236.28 1.727.18.484.44.862.77 1.133.33.264.71.396 1.15.396zm4.93.682c-.16 0-.3-.059-.42-.176a.586.586 0 0 1-.16-.418c0-.169.05-.308.16-.418a.583.583 0 0 1 .42-.176c.16 0 .3.059.41.176.12.11.17.249.17.418 0 .161-.05.301-.17.418a.545.545 0 0 1-.41.176zm26.31.033c-.53 0-1.02-.092-1.48-.275a3.456 3.456 0 0 1-1.21-.814l.53-.517c.32.323.65.557.99.704.34.139.73.209 1.16.209.38 0 .71-.066.99-.198.29-.132.52-.315.68-.55a1.4 1.4 0 0 0 .25-.803c0-.286-.08-.539-.22-.759a1.427 1.427 0 0 0-.59-.528 1.878 1.878 0 0 0-.86-.187h-.91v-.682h.88c.42 0 .76-.128 1.01-.385.27-.257.4-.59.4-1.001 0-.271-.07-.517-.22-.737a1.51 1.51 0 0 0-.61-.517 1.771 1.771 0 0 0-.84-.198c-.4 0-.75.073-1.07.22-.31.139-.62.378-.95.715l-.52-.528c.34-.367.73-.642 1.16-.825.43-.191.9-.286 1.39-.286.47 0 .89.092 1.25.275.38.183.67.436.88.759.21.315.32.675.32 1.078s-.13.766-.39 1.089a2.13 2.13 0 0 1-1.05.66c.52.117.94.345 1.25.682.32.337.48.73.48 1.177 0 .425-.12.807-.35 1.144-.23.337-.55.601-.96.792-.41.191-.87.286-1.39.286zm5.12-.121v-6.842l-1.23.55v-.726l1.53-.682h.49v7.7h-.79zm3.27.088c-.17 0-.3-.059-.42-.176a.595.595 0 0 1-.17-.418.57.57 0 0 1 .17-.418.567.567 0 0 1 .42-.176c.16 0 .29.059.4.176.12.11.18.249.18.418 0 .161-.06.301-.18.418a.524.524 0 0 1-.4.176zM9.77 177v-7.909l1.243-.209v4.95l2.288-2.343h1.43l-2.541 2.552L14.863 177h-1.584l-2.266-2.541V177H9.77zm7.471 0l-1.683-7.7H16.9l1.144 5.643 1.65-5.643h1.254l1.65 5.632 1.144-5.632h1.298l-1.683 7.7h-1.375l-1.683-5.819L18.616 177h-1.375zm9.171 0v-7.887l1.243-.22v3.498c.213-.33.466-.576.76-.737.293-.169.619-.253.978-.253.381 0 .715.084 1.001.253.286.161.51.389.671.682.169.293.253.638.253 1.034V177h-1.254v-3.278c0-.403-.11-.722-.33-.957-.22-.242-.513-.363-.88-.363-.25 0-.476.059-.682.176-.198.11-.37.275-.517.495V177h-1.243z" fill="#515151"/><path d="M70 231a1 1 0 0 1 1-1h14a1 1 0 0 1 1 1v276.736H70V231zm35 52a1 1 0 0 1 1-1h14a1 1 0 0 1 1 1v224.544h-16V283z" fill="#21AC04"/><path opacity=".4" d="M121 295l-16 16v16l16-16v-16zm0 32l-16 16v16l16-16v-16zm0-65l-16 16v16l16-16v-16zm0 97l-16 16v16l16-16v-16zm0 32l-16 16v16l16-16v-16zm0 32l-16 16v16l16-16v-16zm0 32l-16 16v16l16-16v-16zm0 32l-16 16v5h11l5-5v-16z" fill="#fff"/><path d="M140 299a1 1 0 0 1 1-1h14a1 1 0 0 1 1 1v208.7h-16V299zm35 4a1 1 0 0 1 1-1h14a1 1 0 0 1 1 1v205.32h-16V303zm35 7a1 1 0 0 1 1-1h14a1 1 0 0 1 1 1v197.516h-16V310zm35 0a1 1 0 0 1 1-1h14a1 1 0 0 1 1 1v197.516h-16V310zm35-41a1 1 0 0 1 1-1h14a1 1 0 0 1 1 1v238.524h-16V269zm35 26a1 1 0 0 1 1-1h14a1 1 0 0 1 1 1v213.36h-16V295zm35 15a1 1 0 0 1 1-1h14a1 1 0 0 1 1 1v198h-16V310zm35 14a1 1 0 0 1 1-1h14a1 1 0 0 1 1 1v184.468h-16V324zm35-9a1 1 0 0 1 1-1h14a1 1 0 0 1 1 1v193h-16V315zm35 63a1 1 0 0 1 1-1h14a1 1 0 0 1 1 1v130.412h-16V378zm35-9a1 1 0 0 1 1-1h14a1 1 0 0 1 1 1v139h-16V369zm35-43a1 1 0 0 1 1-1h14a1 1 0 0 1 1 1v182h-16V326zm35 6a1 1 0 0 1 1-1h14a1 1 0 0 1 1 1v176.08h-16V332zm35-15a1 1 0 0 1 1-1h14a1 1 0 0 1 1 1v190.992h-16V317zm35-2a1 1 0 0 1 1-1h14a1 1 0 0 1 1 1v193h-16V315zm36 9a1 1 0 0 1 1-1h14a1 1 0 0 1 1 1v184.468h-16V324zm36-21a1 1 0 0 1 1-1h14a1 1 0 0 1 1 1v204.972h-16V303zm36-37a1 1 0 0 1 1-1h14a1 1 0 0 1 1 1v242.252h-16V266zm36 51a1 1 0 0 1 1-1h14a1 1 0 0 1 1 1v191.348h-16V317zm36-2a1 1 0 0 1 1-1h14a1 1 0 0 1 1 1v193h-16V315zm36 27a1 1 0 0 1 1-1h14a1 1 0 0 1 1 1v166h-16V342zm36 45a1 1 0 0 1 1-1h14a1 1 0 0 1 1 1v121.092h-16V387zm36-49a1 1 0 0 1 1-1h14a1 1 0 0 1 1 1v170.488h-16V338zm36 10a1 1 0 0 1 1-1h14a1 1 0 0 1 1 1v160.236h-16V348zm36-16a1 1 0 0 1 1-1h14c.55 0 1 .448 1 1v176.08h-16V332zm36 37c0-.552.45-1 1-1h14c.55 0 1 .448 1 1v139h-16V369zm36 3c0-.552.45-1 1-1h14c.55 0 1 .448 1 1v136.004h-16V372zm36-36c0-.552.45-1 1-1h14c.55 0 1 .448 1 1v172.352h-16V336zm36 16c0-.552.45-1 1-1h14c.55 0 1 .448 1 1v156h-16V352z" fill="#21AC04"/><defs><clipPath id="clip0_15_31517"><path fill="#fff" transform="translate(1137 14)" d="M0 0H16V16H0z"/></clipPath><clipPath id="clip1_15_31517"><path fill="#fff" transform="translate(96 16)" d="M0 0H16V16H0z"/></clipPath><clipPath id="clip2_15_31517"><path fill="#fff" transform="translate(236 16)" d="M0 0H16V16H0z"/></clipPath></defs></svg>