<svg fill="none" height="367" viewBox="0 0 574 367" width="574" xmlns="http://www.w3.org/2000/svg"><circle cx="433" cy="161" fill="#006ddb" r="4"/><path d="m446.344 154.8h1.872l5.84 8.128-.032-8.128h1.808v11.2h-1.712l-6-8.352.032 8.352h-1.808zm13.708 3.184v4.768c0 .576.16 1.04.48 1.392s.747.528 1.28.528c.363 0 .693-.08.992-.24.299-.171.555-.421.768-.752v-5.696h1.808v8.016h-1.808v-1.328c-.299.469-.667.832-1.104 1.088-.427.245-.912.368-1.456.368-.811 0-1.477-.267-2-.8-.512-.533-.768-1.221-.768-2.064v-5.28zm7.552 8.016v-8.016h1.808v1.28c.299-.459.646-.805 1.04-1.04.406-.245.854-.368 1.344-.368.534 0 1.008.144 1.424.432.416.277.726.651.928 1.12.299-.512.672-.896 1.12-1.152.459-.267.971-.4 1.536-.4.768 0 1.398.272 1.888.816.491.544.736 1.243.736 2.096v5.232h-1.808v-4.848c0-.555-.149-.997-.448-1.328-.288-.341-.677-.512-1.168-.512-.33 0-.629.08-.896.24-.266.16-.506.395-.72.704.011.085.016.171.016.256.011.085.016.171.016.256v5.232h-1.808v-4.848c0-.555-.149-.997-.448-1.328-.288-.341-.677-.512-1.168-.512-.32 0-.613.08-.88.24-.266.149-.501.373-.704.672v5.776zm21.92-4c0 .565-.096 1.099-.288 1.6s-.459.933-.8 1.296-.741.651-1.2.864-.949.32-1.472.32c-.469 0-.912-.096-1.328-.288-.405-.192-.752-.469-1.04-.832v1.04h-1.776v-11.44l1.808-.304v4.8c.277-.352.629-.629 1.056-.832.437-.203.907-.304 1.408-.304s.976.107 1.424.32.832.507 1.152.88c.331.363.587.795.768 1.296.192.491.288 1.019.288 1.584zm-4.176-2.56c-.395 0-.757.075-1.088.224-.32.149-.597.373-.832.672v3.344c.235.277.517.496.848.656.331.149.688.224 1.072.224.683 0 1.248-.24 1.696-.72.459-.491.688-1.104.688-1.84 0-.725-.229-1.333-.688-1.824s-1.024-.736-1.696-.736zm12.996 5.536c-.491.405-.992.704-1.504.896-.501.192-1.061.288-1.68.288-.565 0-1.099-.107-1.6-.32s-.933-.507-1.296-.88-.651-.816-.864-1.328-.32-1.056-.32-1.632c0-.587.096-1.131.288-1.632.203-.512.475-.949.816-1.312.352-.373.768-.667 1.248-.88s.997-.32 1.552-.32c.544 0 1.045.107 1.504.32.469.203.869.485 1.2.848.341.363.608.8.8 1.312.192.501.288 1.051.288 1.648v.448h-5.92c.085.629.352 1.152.8 1.568.459.416.992.624 1.6.624.373 0 .725-.064 1.056-.192.341-.139.624-.325.848-.56zm-3.376-5.648c-.533 0-.987.181-1.36.544s-.613.848-.72 1.456h4.176c-.107-.587-.352-1.067-.736-1.44-.373-.373-.827-.56-1.36-.56zm5.652 6.672v-8.016h1.808v1.744c.213-.608.507-1.072.88-1.392.384-.331.827-.496 1.328-.496.149.011.283.027.4.048s.245.059.384.112v1.584c-.139-.064-.299-.112-.48-.144-.171-.032-.341-.048-.512-.048-.427 0-.816.117-1.168.352s-.629.56-.832.976v5.28zm17.603-3.12c0 .469-.107.907-.32 1.312-.203.405-.491.752-.864 1.04-.363.288-.8.517-1.312.688-.512.16-1.072.24-1.68.24-.821 0-1.595-.144-2.32-.432-.715-.299-1.323-.715-1.824-1.248l1.184-1.104c.448.459.896.784 1.344.976.448.181.981.272 1.6.272.715 0 1.296-.171 1.744-.512.459-.352.688-.8.688-1.344 0-.491-.187-.891-.56-1.2-.373-.32-.848-.48-1.424-.48h-1.392v-1.456h1.248c.533 0 .96-.149 1.28-.448.331-.309.496-.72.496-1.232 0-.501-.203-.923-.608-1.264s-.912-.512-1.52-.512c-.555 0-1.045.101-1.472.304-.416.192-.853.533-1.312 1.024l-1.184-1.104c.523-.565 1.131-1.003 1.824-1.312.704-.309 1.44-.464 2.208-.464.555 0 1.067.08 1.536.24s.869.379 1.2.656c.341.277.608.608.8.992s.288.8.288 1.248c0 .608-.203 1.147-.608 1.616-.405.459-.928.773-1.568.944.757.149 1.365.459 1.824.928.469.459.704 1.003.704 1.632zm5.569-.8c0-1.632.33-3.088.992-4.368.672-1.291 1.632-2.32 2.88-3.088l.96 1.152c-1.024.651-1.814 1.525-2.368 2.624-.555 1.088-.832 2.315-.832 3.68 0 1.376.277 2.608.832 3.696.554 1.088 1.344 1.957 2.368 2.608l-.96 1.168c-1.248-.768-2.208-1.797-2.88-3.088-.662-1.291-.992-2.752-.992-4.384zm9.841-7.28v11.2h-1.744v-9.376l-1.984.864v-1.552l2.624-1.136zm6.156 11.376c-.608 0-1.168-.08-1.68-.24s-.954-.384-1.328-.672c-.362-.288-.645-.635-.848-1.04-.202-.405-.304-.843-.304-1.312 0-.64.224-1.211.672-1.712.459-.501 1.04-.843 1.744-1.024-.608-.203-1.104-.528-1.488-.976-.373-.448-.56-.955-.56-1.52 0-.437.096-.843.288-1.216s.454-.693.784-.96c.342-.277.742-.491 1.2-.64.47-.16.971-.24 1.504-.24.534 0 1.035.08 1.504.24.47.149.87.363 1.2.64.342.267.608.587.8.96s.288.779.288 1.216c0 .565-.192 1.072-.576 1.52-.373.448-.858.773-1.456.976.704.181 1.28.523 1.728 1.024.459.501.688 1.072.688 1.712 0 .469-.106.907-.32 1.312-.202.405-.485.752-.848 1.04-.362.288-.8.512-1.312.672s-1.072.24-1.68.24zm0-6.656c.576 0 1.062-.165 1.456-.496.406-.331.608-.741.608-1.232s-.202-.901-.608-1.232c-.394-.341-.88-.512-1.456-.512-.586 0-1.082.171-1.488.512-.394.331-.592.741-.592 1.232s.203.901.608 1.232c.406.331.896.496 1.472.496zm0 5.2c.683 0 1.254-.187 1.712-.56.459-.373.688-.832.688-1.376s-.229-.997-.688-1.36c-.458-.363-1.029-.544-1.712-.544-.693 0-1.269.181-1.728.544-.458.363-.688.816-.688 1.36s.23 1.003.688 1.376c.459.373 1.035.56 1.728.56zm7.856-4.24c-.714 0-1.296-.261-1.744-.784-.448-.533-.672-1.237-.672-2.112 0-.864.224-1.557.672-2.08.448-.533 1.03-.8 1.744-.8.715 0 1.296.267 1.744.8.448.523.672 1.216.672 2.08 0 .875-.224 1.579-.672 2.112-.448.523-1.029.784-1.744.784zm0-.992c.395 0 .715-.165.96-.496.246-.341.368-.811.368-1.408 0-.576-.122-1.035-.368-1.376-.245-.341-.565-.512-.96-.512-.394 0-.714.171-.96.512-.234.341-.352.8-.352 1.376 0 .597.118 1.067.352 1.408.246.331.566.496.96.496zm.768 6.512h-1.328l6.32-11.2h1.344zm5.872.08c-.714 0-1.296-.261-1.744-.784-.448-.533-.672-1.237-.672-2.112 0-.864.224-1.557.672-2.08.448-.533 1.03-.8 1.744-.8.715 0 1.296.267 1.744.8.448.523.672 1.216.672 2.08 0 .875-.224 1.579-.672 2.112-.448.523-1.029.784-1.744.784zm0-.992c.395 0 .715-.165.96-.496.246-.341.368-.811.368-1.408 0-.576-.122-1.035-.368-1.376-.245-.341-.565-.512-.96-.512-.394 0-.714.171-.96.512-.234.341-.352.8-.352 1.376 0 .597.118 1.067.352 1.408.246.331.566.496.96.496zm8.391-2.992c0 1.632-.336 3.088-1.008 4.368-.661 1.291-1.616 2.32-2.864 3.088l-.96-1.152c1.024-.651 1.814-1.52 2.368-2.608.555-1.099.832-2.331.832-3.696 0-1.376-.277-2.608-.832-3.696-.554-1.088-1.344-1.957-2.368-2.608l.96-1.168c1.248.768 2.203 1.797 2.864 3.088.672 1.291 1.008 2.752 1.008 4.384z" fill="#000"/><circle cx="433" cy="281" fill="#b90202" r="4"/><path d="m446.344 274.8h1.872l5.84 8.128-.032-8.128h1.808v11.2h-1.712l-6-8.352.032 8.352h-1.808zm13.708 3.184v4.768c0 .576.16 1.04.48 1.392s.747.528 1.28.528c.363 0 .693-.08.992-.24.299-.171.555-.421.768-.752v-5.696h1.808v8.016h-1.808v-1.328c-.299.469-.667.832-1.104 1.088-.427.245-.912.368-1.456.368-.811 0-1.477-.267-2-.8-.512-.533-.768-1.221-.768-2.064v-5.28zm7.552 8.016v-8.016h1.808v1.28c.299-.459.646-.805 1.04-1.04.406-.245.854-.368 1.344-.368.534 0 1.008.144 1.424.432.416.277.726.651.928 1.12.299-.512.672-.896 1.12-1.152.459-.267.971-.4 1.536-.4.768 0 1.398.272 1.888.816.491.544.736 1.243.736 2.096v5.232h-1.808v-4.848c0-.555-.149-.997-.448-1.328-.288-.341-.677-.512-1.168-.512-.33 0-.629.08-.896.24-.266.16-.506.395-.72.704.011.085.016.171.016.256.011.085.016.171.016.256v5.232h-1.808v-4.848c0-.555-.149-.997-.448-1.328-.288-.341-.677-.512-1.168-.512-.32 0-.613.08-.88.24-.266.149-.501.373-.704.672v5.776zm21.92-4c0 .565-.096 1.099-.288 1.6s-.459.933-.8 1.296-.741.651-1.2.864-.949.32-1.472.32c-.469 0-.912-.096-1.328-.288-.405-.192-.752-.469-1.04-.832v1.04h-1.776v-11.44l1.808-.304v4.8c.277-.352.629-.629 1.056-.832.437-.203.907-.304 1.408-.304s.976.107 1.424.32.832.507 1.152.88c.331.363.587.795.768 1.296.192.491.288 1.019.288 1.584zm-4.176-2.56c-.395 0-.757.075-1.088.224-.32.149-.597.373-.832.672v3.344c.235.277.517.496.848.656.331.149.688.224 1.072.224.683 0 1.248-.24 1.696-.72.459-.491.688-1.104.688-1.84 0-.725-.229-1.333-.688-1.824s-1.024-.736-1.696-.736zm12.996 5.536c-.491.405-.992.704-1.504.896-.501.192-1.061.288-1.68.288-.565 0-1.099-.107-1.6-.32s-.933-.507-1.296-.88-.651-.816-.864-1.328-.32-1.056-.32-1.632c0-.587.096-1.131.288-1.632.203-.512.475-.949.816-1.312.352-.373.768-.667 1.248-.88s.997-.32 1.552-.32c.544 0 1.045.107 1.504.32.469.203.869.485 1.2.848.341.363.608.8.8 1.312.192.501.288 1.051.288 1.648v.448h-5.92c.085.629.352 1.152.8 1.568.459.416.992.624 1.6.624.373 0 .725-.064 1.056-.192.341-.139.624-.325.848-.56zm-3.376-5.648c-.533 0-.987.181-1.36.544s-.613.848-.72 1.456h4.176c-.107-.587-.352-1.067-.736-1.44-.373-.373-.827-.56-1.36-.56zm5.652 6.672v-8.016h1.808v1.744c.213-.608.507-1.072.88-1.392.384-.331.827-.496 1.328-.496.149.011.283.027.4.048s.245.059.384.112v1.584c-.139-.064-.299-.112-.48-.144-.171-.032-.341-.048-.512-.048-.427 0-.816.117-1.168.352s-.629.56-.832.976v5.28zm14.195.144c-.683 0-1.312-.133-1.888-.4-.565-.267-1.056-.64-1.472-1.12-.405-.48-.72-1.056-.944-1.728s-.336-1.408-.336-2.208c0-.907.123-1.733.368-2.48.256-.747.608-1.381 1.056-1.904.459-.523 1.008-.928 1.648-1.216.651-.299 1.365-.448 2.144-.448.533 0 1.067.085 1.6.256.544.171 1.003.405 1.376.704l-.96 1.296c-.32-.235-.661-.405-1.024-.512-.352-.117-.731-.176-1.136-.176-1.035 0-1.845.395-2.432 1.184-.587.779-.885 1.867-.896 3.264.395-.523.859-.923 1.392-1.2.544-.288 1.109-.432 1.696-.432.544 0 1.045.085 1.504.256s.853.411 1.184.72c.331.299.587.661.768 1.088.192.416.288.875.288 1.376 0 .533-.101 1.024-.304 1.472-.192.448-.464.837-.816 1.168-.341.32-.757.576-1.248.768-.48.181-1.003.272-1.568.272zm-.08-5.728c-.533 0-1.04.117-1.52.352-.469.235-.875.565-1.216.992.139.864.453 1.563.944 2.096.501.523 1.104.784 1.808.784.651 0 1.195-.203 1.632-.608s.656-.912.656-1.52-.219-1.109-.656-1.504c-.427-.395-.976-.592-1.648-.592zm9.478 1.664c0-1.632.331-3.088.992-4.368.672-1.291 1.632-2.32 2.88-3.088l.96 1.152c-1.024.651-1.813 1.525-2.368 2.624-.554 1.088-.832 2.315-.832 3.68 0 1.376.278 2.608.832 3.696.555 1.088 1.344 1.957 2.368 2.608l-.96 1.168c-1.248-.768-2.208-1.797-2.88-3.088-.661-1.291-.992-2.752-.992-4.384zm10.961 4.064c-.682 0-1.312-.133-1.888-.4-.565-.267-1.056-.64-1.472-1.12-.405-.48-.72-1.056-.944-1.728s-.336-1.408-.336-2.208c0-.907.123-1.733.368-2.48.256-.747.608-1.381 1.056-1.904.459-.523 1.008-.928 1.648-1.216.651-.299 1.366-.448 2.144-.448.534 0 1.067.085 1.6.256.544.171 1.003.405 1.376.704l-.96 1.296c-.32-.235-.661-.405-1.024-.512-.352-.117-.73-.176-1.136-.176-1.034 0-1.845.395-2.432 1.184-.586.779-.885 1.867-.896 3.264.395-.523.859-.923 1.392-1.2.544-.288 1.11-.432 1.696-.432.544 0 1.046.085 1.504.256.459.171.854.411 1.184.72.331.299.587.661.768 1.088.192.416.288.875.288 1.376 0 .533-.101 1.024-.304 1.472-.192.448-.464.837-.816 1.168-.341.32-.757.576-1.248.768-.48.181-1.002.272-1.568.272zm-.08-5.728c-.533 0-1.04.117-1.52.352-.469.235-.874.565-1.216.992.139.864.454 1.563.944 2.096.502.523 1.104.784 1.808.784.651 0 1.195-.203 1.632-.608.438-.405.656-.912.656-1.52s-.218-1.109-.656-1.504c-.426-.395-.976-.592-1.648-.592zm7.645.064c-.715 0-1.296-.261-1.744-.784-.448-.533-.672-1.237-.672-2.112 0-.864.224-1.557.672-2.08.448-.533 1.029-.8 1.744-.8s1.296.267 1.744.8c.448.523.672 1.216.672 2.08 0 .875-.224 1.579-.672 2.112-.448.523-1.029.784-1.744.784zm0-.992c.395 0 .715-.165.96-.496.245-.341.368-.811.368-1.408 0-.576-.123-1.035-.368-1.376s-.565-.512-.96-.512-.715.171-.96.512c-.235.341-.352.8-.352 1.376 0 .597.117 1.067.352 1.408.245.331.565.496.96.496zm.768 6.512h-1.328l6.32-11.2h1.344zm5.872.08c-.715 0-1.296-.261-1.744-.784-.448-.533-.672-1.237-.672-2.112 0-.864.224-1.557.672-2.08.448-.533 1.029-.8 1.744-.8s1.296.267 1.744.8c.448.523.672 1.216.672 2.08 0 .875-.224 1.579-.672 2.112-.448.523-1.029.784-1.744.784zm0-.992c.395 0 .715-.165.96-.496.245-.341.368-.811.368-1.408 0-.576-.123-1.035-.368-1.376s-.565-.512-.96-.512-.715.171-.96.512c-.235.341-.352.8-.352 1.376 0 .597.117 1.067.352 1.408.245.331.565.496.96.496zm8.391-2.992c0 1.632-.336 3.088-1.008 4.368-.661 1.291-1.616 2.32-2.864 3.088l-.96-1.152c1.024-.651 1.813-1.52 2.368-2.608.555-1.099.832-2.331.832-3.696 0-1.376-.277-2.608-.832-3.696s-1.344-1.957-2.368-2.608l.96-1.168c1.248.768 2.203 1.797 2.864 3.088.672 1.291 1.008 2.752 1.008 4.384z" fill="#000"/><circle cx="433" cy="121" fill="#490192" r="4"/><path d="m446.344 114.8h1.872l5.84 8.128-.032-8.128h1.808v11.2h-1.712l-6-8.352.032 8.352h-1.808zm13.708 3.184v4.768c0 .576.16 1.04.48 1.392s.747.528 1.28.528c.363 0 .693-.08.992-.24.299-.171.555-.421.768-.752v-5.696h1.808v8.016h-1.808v-1.328c-.299.469-.667.832-1.104 1.088-.427.245-.912.368-1.456.368-.811 0-1.477-.267-2-.8-.512-.533-.768-1.221-.768-2.064v-5.28zm7.552 8.016v-8.016h1.808v1.28c.299-.459.646-.805 1.04-1.04.406-.245.854-.368 1.344-.368.534 0 1.008.144 1.424.432.416.277.726.651.928 1.12.299-.512.672-.896 1.12-1.152.459-.267.971-.4 1.536-.4.768 0 1.398.272 1.888.816.491.544.736 1.243.736 2.096v5.232h-1.808v-4.848c0-.555-.149-.997-.448-1.328-.288-.341-.677-.512-1.168-.512-.33 0-.629.08-.896.24-.266.16-.506.395-.72.704.011.085.016.171.016.256.011.085.016.171.016.256v5.232h-1.808v-4.848c0-.555-.149-.997-.448-1.328-.288-.341-.677-.512-1.168-.512-.32 0-.613.08-.88.24-.266.149-.501.373-.704.672v5.776zm21.92-4c0 .565-.096 1.099-.288 1.6s-.459.933-.8 1.296-.741.651-1.2.864-.949.32-1.472.32c-.469 0-.912-.096-1.328-.288-.405-.192-.752-.469-1.04-.832v1.04h-1.776v-11.44l1.808-.304v4.8c.277-.352.629-.629 1.056-.832.437-.203.907-.304 1.408-.304s.976.107 1.424.32.832.507 1.152.88c.331.363.587.795.768 1.296.192.491.288 1.019.288 1.584zm-4.176-2.56c-.395 0-.757.075-1.088.224-.32.149-.597.373-.832.672v3.344c.235.277.517.496.848.656.331.149.688.224 1.072.224.683 0 1.248-.24 1.696-.72.459-.491.688-1.104.688-1.84 0-.725-.229-1.333-.688-1.824s-1.024-.736-1.696-.736zm12.996 5.536c-.491.405-.992.704-1.504.896-.501.192-1.061.288-1.68.288-.565 0-1.099-.107-1.6-.32s-.933-.507-1.296-.88-.651-.816-.864-1.328-.32-1.056-.32-1.632c0-.587.096-1.131.288-1.632.203-.512.475-.949.816-1.312.352-.373.768-.667 1.248-.88s.997-.32 1.552-.32c.544 0 1.045.107 1.504.32.469.203.869.485 1.2.848.341.363.608.8.8 1.312.192.501.288 1.051.288 1.648v.448h-5.92c.085.629.352 1.152.8 1.568.459.416.992.624 1.6.624.373 0 .725-.064 1.056-.192.341-.139.624-.325.848-.56zm-3.376-5.648c-.533 0-.987.181-1.36.544s-.613.848-.72 1.456h4.176c-.107-.587-.352-1.067-.736-1.44-.373-.373-.827-.56-1.36-.56zm5.652 6.672v-8.016h1.808v1.744c.213-.608.507-1.072.88-1.392.384-.331.827-.496 1.328-.496.149.011.283.027.4.048s.245.059.384.112v1.584c-.139-.064-.299-.112-.48-.144-.171-.032-.341-.048-.512-.048-.427 0-.816.117-1.168.352s-.629.56-.832.976v5.28zm9.571 0v-1.264l4.592-4.8c.395-.427.672-.795.832-1.104.171-.32.256-.656.256-1.008 0-.469-.197-.859-.592-1.168-.384-.32-.869-.48-1.456-.48-.512 0-.992.107-1.44.32-.437.213-.923.565-1.456 1.056l-.992-1.2c.608-.565 1.237-.987 1.888-1.264.661-.288 1.344-.432 2.048-.432 1.088 0 1.973.288 2.656.864.693.565 1.04 1.296 1.04 2.192 0 .533-.117 1.029-.352 1.488s-.651 1.003-1.248 1.632l-3.584 3.696 5.392-.032v1.504zm13.007-3.92c0-1.632.33-3.088.992-4.368.672-1.291 1.632-2.32 2.88-3.088l.96 1.152c-1.024.651-1.814 1.525-2.368 2.624-.555 1.088-.832 2.315-.832 3.68 0 1.376.277 2.608.832 3.696.554 1.088 1.344 1.957 2.368 2.608l-.96 1.168c-1.248-.768-2.208-1.797-2.88-3.088-.662-1.291-.992-2.752-.992-4.384zm6.337 3.92v-1.264l4.592-4.8c.394-.427.672-.795.832-1.104.17-.32.256-.656.256-1.008 0-.469-.198-.859-.592-1.168-.384-.32-.87-.48-1.456-.48-.512 0-.992.107-1.44.32-.438.213-.923.565-1.456 1.056l-.992-1.2c.608-.565 1.237-.987 1.888-1.264.661-.288 1.344-.432 2.048-.432 1.088 0 1.973.288 2.656.864.693.565 1.04 1.296 1.04 2.192 0 .533-.118 1.029-.352 1.488-.235.459-.651 1.003-1.248 1.632l-3.584 3.696 5.392-.032v1.504zm9.125 0v-1.264l4.592-4.8c.394-.427.672-.795.832-1.104.17-.32.256-.656.256-1.008 0-.469-.198-.859-.592-1.168-.384-.32-.87-.48-1.456-.48-.512 0-.992.107-1.44.32-.438.213-.923.565-1.456 1.056l-.992-1.2c.608-.565 1.237-.987 1.888-1.264.661-.288 1.344-.432 2.048-.432 1.088 0 1.973.288 2.656.864.693.565 1.04 1.296 1.04 2.192 0 .533-.118 1.029-.352 1.488-.235.459-.651 1.003-1.248 1.632l-3.584 3.696 5.392-.032v1.504zm11.173-5.52c-.715 0-1.296-.261-1.744-.784-.448-.533-.672-1.237-.672-2.112 0-.864.224-1.557.672-2.08.448-.533 1.029-.8 1.744-.8.714 0 1.296.267 1.744.8.448.523.672 1.216.672 2.08 0 .875-.224 1.579-.672 2.112-.448.523-1.03.784-1.744.784zm0-.992c.394 0 .714-.165.96-.496.245-.341.368-.811.368-1.408 0-.576-.123-1.035-.368-1.376-.246-.341-.566-.512-.96-.512-.395 0-.715.171-.96.512-.235.341-.352.8-.352 1.376 0 .597.117 1.067.352 1.408.245.331.565.496.96.496zm.768 6.512h-1.328l6.32-11.2h1.344zm5.872.08c-.715 0-1.296-.261-1.744-.784-.448-.533-.672-1.237-.672-2.112 0-.864.224-1.557.672-2.08.448-.533 1.029-.8 1.744-.8.714 0 1.296.267 1.744.8.448.523.672 1.216.672 2.08 0 .875-.224 1.579-.672 2.112-.448.523-1.03.784-1.744.784zm0-.992c.394 0 .714-.165.96-.496.245-.341.368-.811.368-1.408 0-.576-.123-1.035-.368-1.376-.246-.341-.566-.512-.96-.512-.395 0-.715.171-.96.512-.235.341-.352.8-.352 1.376 0 .597.117 1.067.352 1.408.245.331.565.496.96.496zm8.391-2.992c0 1.632-.336 3.088-1.008 4.368-.662 1.291-1.616 2.32-2.864 3.088l-.96-1.152c1.024-.651 1.813-1.52 2.368-2.608.554-1.099.832-2.331.832-3.696 0-1.376-.278-2.608-.832-3.696-.555-1.088-1.344-1.957-2.368-2.608l.96-1.168c1.248.768 2.202 1.797 2.864 3.088.672 1.291 1.008 2.752 1.008 4.384z" fill="#000"/><circle cx="433" cy="241" fill="#db6d00" r="4"/><path d="m446.344 234.8h1.872l5.84 8.128-.032-8.128h1.808v11.2h-1.712l-6-8.352.032 8.352h-1.808zm13.708 3.184v4.768c0 .576.16 1.04.48 1.392s.747.528 1.28.528c.363 0 .693-.08.992-.24.299-.171.555-.421.768-.752v-5.696h1.808v8.016h-1.808v-1.328c-.299.469-.667.832-1.104 1.088-.427.245-.912.368-1.456.368-.811 0-1.477-.267-2-.8-.512-.533-.768-1.221-.768-2.064v-5.28zm7.552 8.016v-8.016h1.808v1.28c.299-.459.646-.805 1.04-1.04.406-.245.854-.368 1.344-.368.534 0 1.008.144 1.424.432.416.277.726.651.928 1.12.299-.512.672-.896 1.12-1.152.459-.267.971-.4 1.536-.4.768 0 1.398.272 1.888.816.491.544.736 1.243.736 2.096v5.232h-1.808v-4.848c0-.555-.149-.997-.448-1.328-.288-.341-.677-.512-1.168-.512-.33 0-.629.08-.896.24-.266.16-.506.395-.72.704.011.085.016.171.016.256.011.085.016.171.016.256v5.232h-1.808v-4.848c0-.555-.149-.997-.448-1.328-.288-.341-.677-.512-1.168-.512-.32 0-.613.08-.88.24-.266.149-.501.373-.704.672v5.776zm21.92-4c0 .565-.096 1.099-.288 1.6s-.459.933-.8 1.296-.741.651-1.2.864-.949.32-1.472.32c-.469 0-.912-.096-1.328-.288-.405-.192-.752-.469-1.04-.832v1.04h-1.776v-11.44l1.808-.304v4.8c.277-.352.629-.629 1.056-.832.437-.203.907-.304 1.408-.304s.976.107 1.424.32.832.507 1.152.88c.331.363.587.795.768 1.296.192.491.288 1.019.288 1.584zm-4.176-2.56c-.395 0-.757.075-1.088.224-.32.149-.597.373-.832.672v3.344c.235.277.517.496.848.656.331.149.688.224 1.072.224.683 0 1.248-.24 1.696-.72.459-.491.688-1.104.688-1.84 0-.725-.229-1.333-.688-1.824s-1.024-.736-1.696-.736zm12.996 5.536c-.491.405-.992.704-1.504.896-.501.192-1.061.288-1.68.288-.565 0-1.099-.107-1.6-.32s-.933-.507-1.296-.88-.651-.816-.864-1.328-.32-1.056-.32-1.632c0-.587.096-1.131.288-1.632.203-.512.475-.949.816-1.312.352-.373.768-.667 1.248-.88s.997-.32 1.552-.32c.544 0 1.045.107 1.504.32.469.203.869.485 1.2.848.341.363.608.8.8 1.312.192.501.288 1.051.288 1.648v.448h-5.92c.085.629.352 1.152.8 1.568.459.416.992.624 1.6.624.373 0 .725-.064 1.056-.192.341-.139.624-.325.848-.56zm-3.376-5.648c-.533 0-.987.181-1.36.544s-.613.848-.72 1.456h4.176c-.107-.587-.352-1.067-.736-1.44-.373-.373-.827-.56-1.36-.56zm5.652 6.672v-8.016h1.808v1.744c.213-.608.507-1.072.88-1.392.384-.331.827-.496 1.328-.496.149.011.283.027.4.048s.245.059.384.112v1.584c-.139-.064-.299-.112-.48-.144-.171-.032-.341-.048-.512-.048-.427 0-.816.117-1.168.352s-.629.56-.832.976v5.28zm9.811-5.408.256-5.792h6.816v1.504h-5.328l-.144 3.248c.373-.192.752-.331 1.136-.416.384-.096.784-.144 1.2-.144 1.109 0 2.005.315 2.688.944.693.619 1.04 1.435 1.04 2.448 0 .565-.107 1.083-.32 1.552-.203.459-.491.853-.864 1.184-.363.331-.805.592-1.328.784-.523.181-1.099.272-1.728.272-.747 0-1.456-.128-2.128-.384-.661-.256-1.264-.635-1.808-1.136l1.056-1.2c.48.427.955.736 1.424.928.469.181.976.272 1.52.272.704 0 1.275-.203 1.712-.608.448-.405.672-.933.672-1.584 0-.608-.229-1.109-.688-1.504s-1.04-.592-1.744-.592c-.373 0-.741.048-1.104.144-.352.096-.725.245-1.12.448zm13.095 1.488c0-1.632.331-3.088.992-4.368.672-1.291 1.632-2.32 2.88-3.088l.96 1.152c-1.024.651-1.813 1.525-2.368 2.624-.555 1.088-.832 2.315-.832 3.68 0 1.376.277 2.608.832 3.696s1.344 1.957 2.368 2.608l-.96 1.168c-1.248-.768-2.208-1.797-2.88-3.088-.661-1.291-.992-2.752-.992-4.384zm9.841-7.28v11.2h-1.744v-9.376l-1.984.864v-1.552l2.624-1.136zm9.997 8.08c0 .469-.107.907-.32 1.312-.203.405-.491.752-.864 1.04-.363.288-.8.517-1.312.688-.512.16-1.072.24-1.68.24-.822 0-1.595-.144-2.32-.432-.715-.299-1.323-.715-1.824-1.248l1.184-1.104c.448.459.896.784 1.344.976.448.181.981.272 1.6.272.714 0 1.296-.171 1.744-.512.458-.352.688-.8.688-1.344 0-.491-.187-.891-.56-1.2-.374-.32-.848-.48-1.424-.48h-1.392v-1.456h1.248c.533 0 .96-.149 1.28-.448.33-.309.496-.72.496-1.232 0-.501-.203-.923-.608-1.264-.406-.341-.912-.512-1.52-.512-.555 0-1.046.101-1.472.304-.416.192-.854.533-1.312 1.024l-1.184-1.104c.522-.565 1.13-1.003 1.824-1.312.704-.309 1.44-.464 2.208-.464.554 0 1.066.08 1.536.24.469.16.869.379 1.2.656.341.277.608.608.8.992s.288.8.288 1.248c0 .608-.203 1.147-.608 1.616-.406.459-.928.773-1.568.944.757.149 1.365.459 1.824.928.469.459.704 1.003.704 1.632zm3.734-2.4c-.714 0-1.296-.261-1.744-.784-.448-.533-.672-1.237-.672-2.112 0-.864.224-1.557.672-2.08.448-.533 1.03-.8 1.744-.8.715 0 1.296.267 1.744.8.448.523.672 1.216.672 2.08 0 .875-.224 1.579-.672 2.112-.448.523-1.029.784-1.744.784zm0-.992c.395 0 .715-.165.96-.496.246-.341.368-.811.368-1.408 0-.576-.122-1.035-.368-1.376-.245-.341-.565-.512-.96-.512-.394 0-.714.171-.96.512-.234.341-.352.8-.352 1.376 0 .597.118 1.067.352 1.408.246.331.566.496.96.496zm.768 6.512h-1.328l6.32-11.2h1.344zm5.872.08c-.714 0-1.296-.261-1.744-.784-.448-.533-.672-1.237-.672-2.112 0-.864.224-1.557.672-2.08.448-.533 1.03-.8 1.744-.8.715 0 1.296.267 1.744.8.448.523.672 1.216.672 2.08 0 .875-.224 1.579-.672 2.112-.448.523-1.029.784-1.744.784zm0-.992c.395 0 .715-.165.96-.496.246-.341.368-.811.368-1.408 0-.576-.122-1.035-.368-1.376-.245-.341-.565-.512-.96-.512-.394 0-.714.171-.96.512-.234.341-.352.8-.352 1.376 0 .597.118 1.067.352 1.408.246.331.566.496.96.496zm8.391-2.992c0 1.632-.336 3.088-1.008 4.368-.661 1.291-1.616 2.32-2.864 3.088l-.96-1.152c1.024-.651 1.814-1.52 2.368-2.608.555-1.099.832-2.331.832-3.696 0-1.376-.277-2.608-.832-3.696-.554-1.088-1.344-1.957-2.368-2.608l.96-1.168c1.248.768 2.203 1.797 2.864 3.088.672 1.291 1.008 2.752 1.008 4.384z" fill="#000"/><circle cx="433" cy="81" fill="#21ac04" r="4"/><path d="m446.344 74.8h1.872l5.84 8.128-.032-8.128h1.808v11.2h-1.712l-6-8.352.032 8.352h-1.808zm13.708 3.184v4.768c0 .576.16 1.04.48 1.392s.747.528 1.28.528c.363 0 .693-.08.992-.24.299-.1707.555-.4213.768-.752v-5.696h1.808v8.016h-1.808v-1.328c-.299.4693-.667.832-1.104 1.088-.427.2453-.912.368-1.456.368-.811 0-1.477-.2667-2-.8-.512-.5333-.768-1.2213-.768-2.064v-5.28zm7.552 8.016v-8.016h1.808v1.28c.299-.4587.646-.8053 1.04-1.04.406-.2453.854-.368 1.344-.368.534 0 1.008.144 1.424.432.416.2773.726.6507.928 1.12.299-.512.672-.896 1.12-1.152.459-.2667.971-.4 1.536-.4.768 0 1.398.272 1.888.816.491.544.736 1.2427.736 2.096v5.232h-1.808v-4.848c0-.5547-.149-.9973-.448-1.328-.288-.3413-.677-.512-1.168-.512-.33 0-.629.08-.896.24-.266.16-.506.3947-.72.704.011.0853.016.1707.016.256.011.0853.016.1707.016.256v5.232h-1.808v-4.848c0-.5547-.149-.9973-.448-1.328-.288-.3413-.677-.512-1.168-.512-.32 0-.613.08-.88.24-.266.1493-.501.3733-.704.672v5.776zm21.92-4c0 .5653-.096 1.0987-.288 1.6s-.459.9333-.8 1.296-.741.6507-1.2.864-.949.32-1.472.32c-.469 0-.912-.096-1.328-.288-.405-.192-.752-.4693-1.04-.832v1.04h-1.776v-11.44l1.808-.304v4.8c.277-.352.629-.6293 1.056-.832.437-.2027.907-.304 1.408-.304s.976.1067 1.424.32.832.5067 1.152.88c.331.3627.587.7947.768 1.296.192.4907.288 1.0187.288 1.584zm-4.176-2.56c-.395 0-.757.0747-1.088.224-.32.1493-.597.3733-.832.672v3.344c.235.2773.517.496.848.656.331.1493.688.224 1.072.224.683 0 1.248-.24 1.696-.72.459-.4907.688-1.104.688-1.84 0-.7253-.229-1.3333-.688-1.824s-1.024-.736-1.696-.736zm12.996 5.536c-.491.4053-.992.704-1.504.896-.501.192-1.061.288-1.68.288-.565 0-1.099-.1067-1.6-.32s-.933-.5067-1.296-.88-.651-.816-.864-1.328-.32-1.056-.32-1.632c0-.5867.096-1.1307.288-1.632.203-.512.475-.9493.816-1.312.352-.3733.768-.6667 1.248-.88s.997-.32 1.552-.32c.544 0 1.045.1067 1.504.32.469.2027.869.4853 1.2.848.341.3627.608.8.8 1.312.192.5013.288 1.0507.288 1.648v.448h-5.92c.085.6293.352 1.152.8 1.568.459.416.992.624 1.6.624.373 0 .725-.064 1.056-.192.341-.1387.624-.3253.848-.56zm-3.376-5.648c-.533 0-.987.1813-1.36.544s-.613.848-.72 1.456h4.176c-.107-.5867-.352-1.0667-.736-1.44-.373-.3733-.827-.56-1.36-.56zm5.652 6.672v-8.016h1.808v1.744c.213-.608.507-1.072.88-1.392.384-.3307.827-.496 1.328-.496.149.0107.283.0267.4.048s.245.0587.384.112v1.584c-.139-.064-.299-.112-.48-.144-.171-.032-.341-.048-.512-.048-.427 0-.816.1173-1.168.352s-.629.56-.832.976v5.28zm13.075-11.2v11.2h-1.744v-9.376l-1.984.864v-1.552l2.624-1.136zm5.847 7.28c0-1.632.33-3.088.992-4.368.672-1.2907 1.632-2.32 2.88-3.088l.96 1.152c-1.024.6507-1.814 1.5253-2.368 2.624-.555 1.088-.832 2.3147-.832 3.68 0 1.376.277 2.608.832 3.696.554 1.088 1.344 1.9573 2.368 2.608l-.96 1.168c-1.248-.768-2.208-1.7973-2.88-3.088-.662-1.2907-.992-2.752-.992-4.384zm6.337 3.92v-1.264l4.592-4.8c.394-.4267.672-.7947.832-1.104.17-.32.256-.656.256-1.008 0-.4693-.198-.8587-.592-1.168-.384-.32-.87-.48-1.456-.48-.512 0-.992.1067-1.44.32-.438.2133-.923.5653-1.456 1.056l-.992-1.2c.608-.5653 1.237-.9867 1.888-1.264.661-.288 1.344-.432 2.048-.432 1.088 0 1.973.288 2.656.864.693.5653 1.04 1.296 1.04 2.192 0 .5333-.118 1.0293-.352 1.488-.235.4587-.651 1.0027-1.248 1.632l-3.584 3.696 5.392-.032v1.504zm13.749.144c-.683 0-1.312-.1333-1.888-.4-.566-.2667-1.056-.64-1.472-1.12-.406-.48-.72-1.056-.944-1.728s-.336-1.408-.336-2.208c0-.9067.122-1.7333.368-2.48.256-.7467.608-1.3813 1.056-1.904.458-.5227 1.008-.928 1.648-1.216.65-.2987 1.365-.448 2.144-.448.533 0 1.066.0853 1.6.256.544.1707 1.002.4053 1.376.704l-.96 1.296c-.32-.2347-.662-.4053-1.024-.512-.352-.1173-.731-.176-1.136-.176-1.035 0-1.846.3947-2.432 1.184-.587.7787-.886 1.8667-.896 3.264.394-.5227.858-.9227 1.392-1.2.544-.288 1.109-.432 1.696-.432.544 0 1.045.0853 1.504.256.458.1707.853.4107 1.184.72.33.2987.586.6613.768 1.088.192.416.288.8747.288 1.376 0 .5333-.102 1.024-.304 1.472-.192.448-.464.8373-.816 1.168-.342.32-.758.576-1.248.768-.48.1813-1.003.272-1.568.272zm-.08-5.728c-.534 0-1.04.1173-1.52.352-.47.2347-.875.5653-1.216.992.138.864.453 1.5627.944 2.096.501.5227 1.104.784 1.808.784.65 0 1.194-.2027 1.632-.608.437-.4053.656-.912.656-1.52s-.219-1.1093-.656-1.504c-.427-.3947-.976-.592-1.648-.592zm7.644.064c-.715 0-1.296-.2613-1.744-.784-.448-.5333-.672-1.2373-.672-2.112 0-.864.224-1.5573.672-2.08.448-.5333 1.029-.8 1.744-.8s1.296.2667 1.744.8c.448.5227.672 1.216.672 2.08 0 .8747-.224 1.5787-.672 2.112-.448.5227-1.029.784-1.744.784zm0-.992c.395 0 .715-.1653.96-.496.245-.3413.368-.8107.368-1.408 0-.576-.123-1.0347-.368-1.376s-.565-.512-.96-.512-.715.1707-.96.512c-.235.3413-.352.8-.352 1.376 0 .5973.117 1.0667.352 1.408.245.3307.565.496.96.496zm.768 6.512h-1.328l6.32-11.2h1.344zm5.872.08c-.715 0-1.296-.2613-1.744-.784-.448-.5333-.672-1.2373-.672-2.112 0-.864.224-1.5573.672-2.08.448-.5333 1.029-.8 1.744-.8s1.296.2667 1.744.8c.448.5227.672 1.216.672 2.08 0 .8747-.224 1.5787-.672 2.112-.448.5227-1.029.784-1.744.784zm0-.992c.395 0 .715-.1653.96-.496.245-.3413.368-.8107.368-1.408 0-.576-.123-1.0347-.368-1.376s-.565-.512-.96-.512-.715.1707-.96.512c-.235.3413-.352.8-.352 1.376 0 .5973.117 1.0667.352 1.408.245.3307.565.496.96.496zm8.391-2.992c0 1.632-.336 3.088-1.008 4.368-.661 1.2907-1.616 2.32-2.864 3.088l-.96-1.152c1.024-.6507 1.813-1.52 2.368-2.608.555-1.0987.832-2.3307.832-3.696 0-1.376-.277-2.608-.832-3.696s-1.344-1.9573-2.368-2.608l.96-1.168c1.248.768 2.203 1.7973 2.864 3.088.672 1.2907 1.008 2.752 1.008 4.384z" fill="#000"/><circle cx="433" cy="201" fill="#b66dff" r="4"/><path d="m446.344 194.8h1.872l5.84 8.128-.032-8.128h1.808v11.2h-1.712l-6-8.352.032 8.352h-1.808zm13.708 3.184v4.768c0 .576.16 1.04.48 1.392s.747.528 1.28.528c.363 0 .693-.08.992-.24.299-.171.555-.421.768-.752v-5.696h1.808v8.016h-1.808v-1.328c-.299.469-.667.832-1.104 1.088-.427.245-.912.368-1.456.368-.811 0-1.477-.267-2-.8-.512-.533-.768-1.221-.768-2.064v-5.28zm7.552 8.016v-8.016h1.808v1.28c.299-.459.646-.805 1.04-1.04.406-.245.854-.368 1.344-.368.534 0 1.008.144 1.424.432.416.277.726.651.928 1.12.299-.512.672-.896 1.12-1.152.459-.267.971-.4 1.536-.4.768 0 1.398.272 1.888.816.491.544.736 1.243.736 2.096v5.232h-1.808v-4.848c0-.555-.149-.997-.448-1.328-.288-.341-.677-.512-1.168-.512-.33 0-.629.08-.896.24-.266.16-.506.395-.72.704.011.085.016.171.016.256.011.085.016.171.016.256v5.232h-1.808v-4.848c0-.555-.149-.997-.448-1.328-.288-.341-.677-.512-1.168-.512-.32 0-.613.08-.88.24-.266.149-.501.373-.704.672v5.776zm21.92-4c0 .565-.096 1.099-.288 1.6s-.459.933-.8 1.296-.741.651-1.2.864-.949.32-1.472.32c-.469 0-.912-.096-1.328-.288-.405-.192-.752-.469-1.04-.832v1.04h-1.776v-11.44l1.808-.304v4.8c.277-.352.629-.629 1.056-.832.437-.203.907-.304 1.408-.304s.976.107 1.424.32.832.507 1.152.88c.331.363.587.795.768 1.296.192.491.288 1.019.288 1.584zm-4.176-2.56c-.395 0-.757.075-1.088.224-.32.149-.597.373-.832.672v3.344c.235.277.517.496.848.656.331.149.688.224 1.072.224.683 0 1.248-.24 1.696-.72.459-.491.688-1.104.688-1.84 0-.725-.229-1.333-.688-1.824s-1.024-.736-1.696-.736zm12.996 5.536c-.491.405-.992.704-1.504.896-.501.192-1.061.288-1.68.288-.565 0-1.099-.107-1.6-.32s-.933-.507-1.296-.88-.651-.816-.864-1.328-.32-1.056-.32-1.632c0-.587.096-1.131.288-1.632.203-.512.475-.949.816-1.312.352-.373.768-.667 1.248-.88s.997-.32 1.552-.32c.544 0 1.045.107 1.504.32.469.203.869.485 1.2.848.341.363.608.8.8 1.312.192.501.288 1.051.288 1.648v.448h-5.92c.085.629.352 1.152.8 1.568.459.416.992.624 1.6.624.373 0 .725-.064 1.056-.192.341-.139.624-.325.848-.56zm-3.376-5.648c-.533 0-.987.181-1.36.544s-.613.848-.72 1.456h4.176c-.107-.587-.352-1.067-.736-1.44-.373-.373-.827-.56-1.36-.56zm5.652 6.672v-8.016h1.808v1.744c.213-.608.507-1.072.88-1.392.384-.331.827-.496 1.328-.496.149.011.283.027.4.048s.245.059.384.112v1.584c-.139-.064-.299-.112-.48-.144-.171-.032-.341-.048-.512-.048-.427 0-.816.117-1.168.352s-.629.56-.832.976v5.28zm17.155-11.2v6.928h1.44v1.504h-1.44v2.768h-1.744v-2.768h-6.016v-1.424l5.776-7.008zm-5.888 6.928h4.144v-5.056zm12.608.352c0-1.632.33-3.088.992-4.368.672-1.291 1.632-2.32 2.88-3.088l.96 1.152c-1.024.651-1.814 1.525-2.368 2.624-.555 1.088-.832 2.315-.832 3.68 0 1.376.277 2.608.832 3.696.554 1.088 1.344 1.957 2.368 2.608l-.96 1.168c-1.248-.768-2.208-1.797-2.88-3.088-.662-1.291-.992-2.752-.992-4.384zm9.841-7.28v11.2h-1.744v-9.376l-1.984.864v-1.552l2.624-1.136zm2.204 5.792.256-5.792h6.816v1.504h-5.328l-.144 3.248c.374-.192.752-.331 1.136-.416.384-.096.784-.144 1.2-.144 1.11 0 2.006.315 2.688.944.694.619 1.04 1.435 1.04 2.448 0 .565-.106 1.083-.32 1.552-.202.459-.49.853-.864 1.184-.362.331-.805.592-1.328.784-.522.181-1.098.272-1.728.272-.746 0-1.456-.128-2.128-.384-.661-.256-1.264-.635-1.808-1.136l1.056-1.2c.48.427.955.736 1.424.928.47.181.976.272 1.52.272.704 0 1.275-.203 1.712-.608.448-.405.672-.933.672-1.584 0-.608-.229-1.109-.688-1.504-.458-.395-1.04-.592-1.744-.592-.373 0-.741.048-1.104.144-.352.096-.725.245-1.12.448zm11.262-.112c-.715 0-1.296-.261-1.744-.784-.448-.533-.672-1.237-.672-2.112 0-.864.224-1.557.672-2.08.448-.533 1.029-.8 1.744-.8.714 0 1.296.267 1.744.8.448.523.672 1.216.672 2.08 0 .875-.224 1.579-.672 2.112-.448.523-1.03.784-1.744.784zm0-.992c.394 0 .714-.165.96-.496.245-.341.368-.811.368-1.408 0-.576-.123-1.035-.368-1.376-.246-.341-.566-.512-.96-.512-.395 0-.715.171-.96.512-.235.341-.352.8-.352 1.376 0 .597.117 1.067.352 1.408.245.331.565.496.96.496zm.768 6.512h-1.328l6.32-11.2h1.344zm5.872.08c-.715 0-1.296-.261-1.744-.784-.448-.533-.672-1.237-.672-2.112 0-.864.224-1.557.672-2.08.448-.533 1.029-.8 1.744-.8.714 0 1.296.267 1.744.8.448.523.672 1.216.672 2.08 0 .875-.224 1.579-.672 2.112-.448.523-1.03.784-1.744.784zm0-.992c.394 0 .714-.165.96-.496.245-.341.368-.811.368-1.408 0-.576-.123-1.035-.368-1.376-.246-.341-.566-.512-.96-.512-.395 0-.715.171-.96.512-.235.341-.352.8-.352 1.376 0 .597.117 1.067.352 1.408.245.331.565.496.96.496zm8.391-2.992c0 1.632-.336 3.088-1.008 4.368-.662 1.291-1.616 2.32-2.864 3.088l-.96-1.152c1.024-.651 1.813-1.52 2.368-2.608.554-1.099.832-2.331.832-3.696 0-1.376-.278-2.608-.832-3.696-.555-1.088-1.344-1.957-2.368-2.608l.96-1.168c1.248.768 2.202 1.797 2.864 3.088.672 1.291 1.008 2.752 1.008 4.384z" fill="#000"/><g stroke="#fff" stroke-width="4"><path d="m183.5 2.00002c24.795 0 49.327 5.08032 72.082 14.92748 22.756 9.8473 43.253 24.2525 60.226 42.3272s30.063 39.4353 38.462 62.7643 11.929 48.132 10.372 72.877l-181.142-11.396z" fill="#21ac04"/><path d="m364.642 194.896c-2.652 42.153-19.922 82.061-48.834 112.849-28.913 30.789-67.657 50.53-109.56 55.824l-22.748-180.069z" fill="#490192"/><path d="m206.248 363.569c-34.17 4.316-68.863-1.178-100.027-15.843-31.1637-14.664-57.5117-37.893-75.9665-66.973l153.2455-97.253z" fill="#006ddb"/><path d="m30.2545 280.753c-15.3475-24.184-24.75349-51.657-27.449-80.172-2.695513-28.516 1.39601-57.264 11.94-83.896l168.7545 66.815z" fill="#b66dff"/><path d="m14.7456 116.685c9.1276-23.0533 22.8819-43.9923 40.4145-61.5249s38.4716-31.2869 61.5249-40.4145l66.815 168.7544z" fill="#db6d00"/><path d="m116.685 14.7456c21.27-8.42114 43.939-12.74558 66.815-12.74558v181.49998z" fill="#b90202"/></g></svg>