<svg width="384" height="438" fill="none" xmlns="http://www.w3.org/2000/svg"><circle cx="88" cy="422" r="4" fill="#006DDB"/><path d="M100.816 427v-1.264l4.592-4.8c.395-.427.672-.795.832-1.104.171-.32.256-.656.256-1.008 0-.469-.197-.859-.592-1.168-.384-.32-.869-.48-1.456-.48-.512 0-.992.107-1.44.32-.437.213-.923.565-1.456 1.056l-.992-1.2c.608-.565 1.237-.987 1.888-1.264a5.078 5.078 0 0 1 2.048-.432c1.088 0 1.973.288 2.656.864.693.565 1.04 1.296 1.04 2.192 0 .533-.117 1.029-.352 1.488-.235.459-.651 1.003-1.248 1.632l-3.584 3.696 5.392-.032V427h-7.584zm13.701.16a4.195 4.195 0 0 1-1.872-.416 4.46 4.46 0 0 1-1.456-1.184c-.395-.501-.704-1.109-.928-1.824a8.211 8.211 0 0 1-.32-2.352c0-.843.112-1.621.336-2.336.224-.715.533-1.323.928-1.824a4.277 4.277 0 0 1 1.456-1.168 4.028 4.028 0 0 1 1.856-.432c.683 0 1.307.144 1.872.432a4.13 4.13 0 0 1 1.44 1.168c.405.501.715 1.109.928 1.824.224.715.336 1.493.336 2.336 0 .853-.112 1.637-.336 2.352-.213.715-.523 1.323-.928 1.824a4.302 4.302 0 0 1-1.44 1.184 4.195 4.195 0 0 1-1.872.416zm0-1.552c.864 0 1.552-.379 2.064-1.136.512-.757.768-1.787.768-3.088 0-1.28-.256-2.299-.768-3.056-.512-.768-1.2-1.152-2.064-1.152-.864 0-1.552.384-2.064 1.152-.512.768-.768 1.787-.768 3.056 0 1.291.256 2.32.768 3.088.512.757 1.2 1.136 2.064 1.136zm9.647-9.808V427h-1.744v-9.376l-1.984.864v-1.552l2.624-1.136h1.104zm2.877 11.2l5.2-9.648h-6.416V415.8h8.336v1.312L129.089 427h-2.048z" fill="#000"/><circle cx="155" cy="422" r="4" fill="#490192"/><path d="M167.816 427v-1.264l4.592-4.8c.395-.427.672-.795.832-1.104.171-.32.256-.656.256-1.008 0-.469-.197-.859-.592-1.168-.384-.32-.869-.48-1.456-.48-.512 0-.992.107-1.44.32-.437.213-.923.565-1.456 1.056l-.992-1.2c.608-.565 1.237-.987 1.888-1.264a5.078 5.078 0 0 1 2.048-.432c1.088 0 1.973.288 2.656.864.693.565 1.04 1.296 1.04 2.192 0 .533-.117 1.029-.352 1.488-.235.459-.651 1.003-1.248 1.632l-3.584 3.696 5.392-.032V427h-7.584zm13.701.16a4.195 4.195 0 0 1-1.872-.416 4.46 4.46 0 0 1-1.456-1.184c-.395-.501-.704-1.109-.928-1.824a8.211 8.211 0 0 1-.32-2.352c0-.843.112-1.621.336-2.336.224-.715.533-1.323.928-1.824a4.277 4.277 0 0 1 1.456-1.168 4.028 4.028 0 0 1 1.856-.432c.683 0 1.307.144 1.872.432a4.13 4.13 0 0 1 1.44 1.168c.405.501.715 1.109.928 1.824.224.715.336 1.493.336 2.336 0 .853-.112 1.637-.336 2.352-.213.715-.523 1.323-.928 1.824a4.302 4.302 0 0 1-1.44 1.184 4.195 4.195 0 0 1-1.872.416zm0-1.552c.864 0 1.552-.379 2.064-1.136.512-.757.768-1.787.768-3.088 0-1.28-.256-2.299-.768-3.056-.512-.768-1.2-1.152-2.064-1.152-.864 0-1.552.384-2.064 1.152-.512.768-.768 1.787-.768 3.056 0 1.291.256 2.32.768 3.088.512.757 1.2 1.136 2.064 1.136zm9.647-9.808V427h-1.744v-9.376l-1.984.864v-1.552l2.624-1.136h1.104zm6.157 11.376c-.608 0-1.168-.08-1.68-.24a4.217 4.217 0 0 1-1.329-.672 3.066 3.066 0 0 1-.847-1.04 2.889 2.889 0 0 1-.304-1.312c0-.64.224-1.211.672-1.712.458-.501 1.04-.843 1.744-1.024-.608-.203-1.104-.528-1.488-.976a2.308 2.308 0 0 1-.56-1.52c0-.437.096-.843.288-1.216.192-.373.453-.693.784-.96a3.69 3.69 0 0 1 1.2-.64c.469-.16.97-.24 1.504-.24.533 0 1.034.08 1.504.24.469.149.869.363 1.2.64.341.267.608.587.8.96.192.373.288.779.288 1.216 0 .565-.192 1.072-.576 1.52a3.186 3.186 0 0 1-1.456.976c.704.181 1.28.523 1.728 1.024.458.501.688 1.072.688 1.712 0 .469-.107.907-.32 1.312a3.072 3.072 0 0 1-.849 1.04 3.996 3.996 0 0 1-1.311.672c-.512.16-1.072.24-1.68.24zm0-6.656c.576 0 1.061-.165 1.456-.496.405-.331.608-.741.608-1.232s-.203-.901-.608-1.232c-.395-.341-.88-.512-1.456-.512-.587 0-1.083.171-1.488.512-.395.331-.592.741-.592 1.232s.202.901.608 1.232c.405.331.896.496 1.472.496zm0 5.2c.682 0 1.253-.187 1.712-.56.458-.373.688-.832.688-1.376 0-.544-.23-.997-.688-1.36-.459-.363-1.03-.544-1.712-.544-.694 0-1.27.181-1.728.544-.459.363-.688.816-.688 1.36 0 .544.229 1.003.688 1.376.458.373 1.034.56 1.728.56z" fill="#000"/><circle cx="223" cy="422" r="4" fill="#21AC04"/><path d="M235.816 427v-1.264l4.592-4.8c.395-.427.672-.795.832-1.104.171-.32.256-.656.256-1.008 0-.469-.197-.859-.592-1.168-.384-.32-.869-.48-1.456-.48-.512 0-.992.107-1.44.32-.437.213-.923.565-1.456 1.056l-.992-1.2c.608-.565 1.237-.987 1.888-1.264a5.078 5.078 0 0 1 2.048-.432c1.088 0 1.973.288 2.656.864.693.565 1.04 1.296 1.04 2.192 0 .533-.117 1.029-.352 1.488-.235.459-.651 1.003-1.248 1.632l-3.584 3.696 5.392-.032V427h-7.584zm13.701.16a4.195 4.195 0 0 1-1.872-.416 4.46 4.46 0 0 1-1.456-1.184c-.395-.501-.704-1.109-.928-1.824a8.211 8.211 0 0 1-.32-2.352c0-.843.112-1.621.336-2.336.224-.715.533-1.323.928-1.824a4.277 4.277 0 0 1 1.456-1.168 4.028 4.028 0 0 1 1.856-.432c.683 0 1.307.144 1.872.432a4.13 4.13 0 0 1 1.44 1.168c.405.501.715 1.109.928 1.824.224.715.336 1.493.336 2.336 0 .853-.112 1.637-.336 2.352-.213.715-.523 1.323-.928 1.824a4.302 4.302 0 0 1-1.44 1.184 4.195 4.195 0 0 1-1.872.416zm0-1.552c.864 0 1.552-.379 2.064-1.136.512-.757.768-1.787.768-3.088 0-1.28-.256-2.299-.768-3.056-.512-.768-1.2-1.152-2.064-1.152-.864 0-1.552.384-2.064 1.152-.512.768-.768 1.787-.768 3.056 0 1.291.256 2.32.768 3.088.512.757 1.2 1.136 2.064 1.136zm9.647-9.808V427h-1.744v-9.376l-1.984.864v-1.552l2.624-1.136h1.104zm5.805-.16c.682 0 1.306.133 1.872.4.576.267 1.066.64 1.471 1.12a5.02 5.02 0 0 1 .961 1.728c.224.672.336 1.408.336 2.208 0 .907-.128 1.733-.384 2.48-.246.747-.598 1.381-1.056 1.904a4.754 4.754 0 0 1-1.648 1.232c-.64.288-1.35.432-2.128.432a5.363 5.363 0 0 1-1.616-.256 4.193 4.193 0 0 1-1.36-.704l.96-1.296c.32.235.656.411 1.008.528.362.107.746.16 1.151.16 1.035 0 1.846-.389 2.433-1.168.586-.789.885-1.883.896-3.28a4.242 4.242 0 0 1-1.408 1.216 3.601 3.601 0 0 1-1.68.416 4.27 4.27 0 0 1-1.504-.256 3.626 3.626 0 0 1-1.184-.704 3.452 3.452 0 0 1-.784-1.088 3.513 3.513 0 0 1-.272-1.392c0-.533.096-1.024.288-1.472.202-.448.474-.832.816-1.152a3.71 3.71 0 0 1 1.248-.768 4.303 4.303 0 0 1 1.584-.288zm.08 5.728c.533 0 1.034-.117 1.504-.352.48-.235.89-.565 1.232-.992-.139-.864-.459-1.557-.96-2.08-.491-.533-1.088-.8-1.792-.8-.651 0-1.195.203-1.632.608a1.984 1.984 0 0 0-.656 1.52c0 .608.213 1.109.64 1.504.437.395.992.592 1.664.592z" fill="#000"/><path opacity=".2" d="M351.655 217.988a175.005 175.005 0 0 1-106.114 150.031 175.005 175.005 0 0 1-181.691-27.52L177 207l174.655 10.988z" fill="#490192" stroke="#fff" stroke-width="4"/><path opacity=".2" d="M64.326 340.901A175 175 0 0 1 179.219 32.014L177 207 64.326 340.901z" fill="#006DDB" stroke="#fff" stroke-width="4"/><g filter="url(#filter0_d_10031_74436)"><path d="M177 32a175.002 175.002 0 0 1 174.655 185.988L177 207V32z" fill="#21AC04"/><path d="M177 32a175.002 175.002 0 0 1 174.655 185.988L177 207V32z" stroke="#fff" stroke-width="4"/></g><g filter="url(#filter1_d_10031_74436)"><mask id="a" maskUnits="userSpaceOnUse" x="267" y="97" width="16" height="19" fill="#000"><path fill="#fff" d="M267 97H283V116H267z"/><path fill-rule="evenodd" clip-rule="evenodd" d="M271.836 108l-.887-1.355c-.605-.925-1.895-1.262-2.881-.755l.23-.118a.571.571 0 0 0-.262.7l1.227 3.175c.195.504.692 1.216 1.104 1.573 0 0 2.469 2.044 2.469 2.81v.97h4l1-2 1 2h1v-.97c0-.766 1.508-3.179 1.508-3.179.278-.469.51-1.296.51-1.844v-4.035c-.018-.894-.778-1.617-1.715-1.617-.468 0-.848.362-.848.808v.324c0-.894-.759-1.618-1.696-1.618-.469 0-.849.362-.849.809v.323c0-.893-.759-1.617-1.696-1.617-.469 0-.849.362-.849.809v.323c0-.143-.015-.258-.044-.348l-.259-4.167A1.072 1.072 0 0 0 272.836 98c-.557 0-1 .448-1 1v9zm7.018-1h1v4h-1v-4zm-2 0h1v4h-1v-4zm-2 0h1v4h-1v-4z"/></mask><path fill-rule="evenodd" clip-rule="evenodd" d="M271.836 108l-.887-1.355c-.605-.925-1.895-1.262-2.881-.755l.23-.118a.571.571 0 0 0-.262.7l1.227 3.175c.195.504.692 1.216 1.104 1.573 0 0 2.469 2.044 2.469 2.81v.97h4l1-2 1 2h1v-.97c0-.766 1.508-3.179 1.508-3.179.278-.469.51-1.296.51-1.844v-4.035c-.018-.894-.778-1.617-1.715-1.617-.468 0-.848.362-.848.808v.324c0-.894-.759-1.618-1.696-1.618-.469 0-.849.362-.849.809v.323c0-.893-.759-1.617-1.696-1.617-.469 0-.849.362-.849.809v.323c0-.143-.015-.258-.044-.348l-.259-4.167A1.072 1.072 0 0 0 272.836 98c-.557 0-1 .448-1 1v9zm7.018-1h1v4h-1v-4zm-2 0h1v4h-1v-4zm-2 0h1v4h-1v-4z" fill="#fff"/><path d="M271.836 108l-.837.548 1.837 2.806V108h-1zm-.887-1.355l.837-.547-.837.547zm-2.913-.173l-.933.361.933-.361zm1.227 3.175l.933-.36-.933.36zm1.104 1.573l-.656.755.009.008.009.008.638-.771zm2.469 3.78h-1v1h1v-1zm4 0v1h.618l.276-.553-.894-.447zm1-2l.894-.447-.894-1.789-.895 1.789.895.447zm1 2l-.895.447.277.553h.618v-1zm1 0v1h1v-1h-1zm1.508-4.149l.848.53.007-.01.006-.011-.861-.509zm.51-5.879h1v-.01l-.001-.01-.999.02zm-7.697-1.804l-.999.062.008.128.04.121.951-.311zm-.259-4.167l-.998.062.998-.062zM271.836 99h-1 1zm8.018 8h1v-1h-1v1zm0 4v1h1v-1h-1zm-1 0h-1v1h1v-1zm-1-4h1v-1h-1v1zm0 4v1h1v-1h-1zm-1 0h-1v1h1v-1zm-1-4h1v-1h-1v1zm0 4v1h1v-1h-1zm-1 0h-1v1h1v-1zm-2.182-3.548l-.886-1.354-1.674 1.095.887 1.355 1.673-1.096zm-.886-1.354c-.888-1.356-2.737-1.837-4.176-1.097l.915 1.778c.534-.274 1.264-.08 1.587.414l1.674-1.095zm-3.261.681l.23-.118-.915-1.779-.23.119.915 1.778zm-.685-1.897a1.573 1.573 0 0 0-.737 1.951l1.866-.721a.433.433 0 0 1 .005.309.446.446 0 0 1-.219.24l-.915-1.779zm-.737 1.951l1.228 3.175 1.865-.721-1.227-3.175-1.866.721zm1.228 3.175c.252.654.844 1.502 1.38 1.967l1.311-1.51c-.287-.249-.689-.825-.826-1.178l-1.865.721zm2.036 1.212l-.638.771h.001l.004.004.018.015.073.062a20.246 20.246 0 0 1 1.075.979c.296.291.568.581.759.829.096.124.154.215.184.272.041.078-.007.022-.007-.122h2c0-.336-.126-.623-.22-.804a3.95 3.95 0 0 0-.375-.57 10.602 10.602 0 0 0-.939-1.031 21.892 21.892 0 0 0-1.182-1.077l-.083-.071-.023-.019-.007-.006-.002-.001v-.001h-.001l-.637.77zm1.469 2.81v.97h2v-.97h-2zm1 1.97h4v-2h-4v2zm4.894-.553l1-2-1.789-.894-1 2 1.789.894zm-.789-2l1 2 1.789-.894-1-2-1.789.894zm1.895 2.553h1v-2h-1v2zm2-1v-.97h-2v.97h2zm0-.97c0 .036.01-.086.156-.43.124-.293.296-.635.478-.972a25.15 25.15 0 0 1 .663-1.151l.045-.073.011-.018.003-.004v-.001l-.848-.53-.848-.53-.001.002a.02.02 0 0 1-.004.006l-.014.023-.051.082-.177.295c-.146.246-.342.584-.539.949a14.18 14.18 0 0 0-.56 1.142c-.137.324-.314.791-.314 1.21h2zm1.369-2.67c.198-.334.354-.747.462-1.134.107-.387.187-.825.187-1.219h-2c0 .154-.037.403-.114.684-.078.28-.176.515-.256.65l1.721 1.019zm.649-2.353v-4.035h-2v4.035h2zm-.001-4.055c-.029-1.47-1.265-2.597-2.714-2.597v2c.426 0 .708.32.715.637l1.999-.04zm-2.714-2.597c-.975 0-1.848.765-1.848 1.808h2a.21.21 0 0 1-.062.152.133.133 0 0 1-.09.04v-2zm-1.848 1.808v.324h2v-.324h-2zm2 .324c0-1.49-1.253-2.618-2.696-2.618v2c.43 0 .696.321.696.618h2zm-2.696-2.618c-.976 0-1.849.766-1.849 1.809h2a.216.216 0 0 1-.061.152.131.131 0 0 1-.09.039v-2zm-1.849 1.809v.323h2v-.323h-2zm2 .323c0-1.49-1.252-2.617-2.696-2.617v2c.43 0 .696.321.696.617h2zm-2.696-2.617c-.976 0-1.849.765-1.849 1.809h2c0 .068-.03.122-.061.152a.136.136 0 0 1-.09.039v-2zm-1.849 1.809v.323h2v-.323h-2zm2 .323c0-.207-.021-.435-.094-.659l-1.901.622c-.008-.023-.008-.035-.007-.027 0 .007.002.027.002.064h2zm-.046-.41l-.259-4.167-1.996.124.258 4.167 1.997-.124zm-.259-4.167a2.072 2.072 0 0 0-2.06-1.939v2c.008 0 .024.004.041.02.016.014.022.03.023.043l1.996-.124zM272.836 97c-1.111 0-2 .898-2 2h2v-2zm-2 2v4h2v-4h-2zm0 4v5h2v-5h-2zm8.018 5h1v-2h-1v2zm0-1v4h2v-4h-2zm1 3h-1v2h1v-2zm0 1v-4h-2v4h2zm-3-3h1v-2h-1v2zm0-1v4h2v-4h-2zm1 3h-1v2h1v-2zm0 1v-4h-2v4h2zm-3-3h1v-2h-1v2zm0-1v4h2v-4h-2zm1 3h-1v2h1v-2zm0 1v-4h-2v4h2z" fill="#000" fill-opacity=".8" mask="url(#a)"/></g><g clip-path="url(#clip0_10031_74436)"><rect x="232" y="49" width="84" height="35" rx="4" fill="#515151"/><path d="M242.7 71v-.742l3.92-4.284c.457-.504.77-.92.938-1.246.168-.327.252-.677.252-1.05 0-.485-.196-.891-.588-1.218-.392-.327-.882-.49-1.47-.49-.457 0-.887.093-1.288.28-.392.177-.826.48-1.302.91l-.588-.7c.504-.467 1.017-.812 1.54-1.036a4.073 4.073 0 0 1 1.652-.35c.877 0 1.601.243 2.17.728.579.476.868 1.083.868 1.82 0 .243-.023.467-.07.672-.047.205-.126.42-.238.644a4.718 4.718 0 0 1-.462.7c-.187.252-.429.541-.728.868l-3.346 3.626 5.054-.014V71H242.7zm11.618.14c-.56 0-1.078-.121-1.554-.364a3.747 3.747 0 0 1-1.204-1.036 5.104 5.104 0 0 1-.784-1.596 7.108 7.108 0 0 1-.28-2.044c0-.737.093-1.414.28-2.03.187-.625.448-1.157.784-1.596a3.663 3.663 0 0 1 1.218-1.036 3.19 3.19 0 0 1 1.54-.378c.56 0 1.073.126 1.54.378.476.243.882.588 1.218 1.036.336.439.597.97.784 1.596.187.616.28 1.293.28 2.03 0 .737-.093 1.419-.28 2.044a5.104 5.104 0 0 1-.784 1.596 3.703 3.703 0 0 1-1.218 1.036c-.467.243-.98.364-1.54.364zm0-.91c.849 0 1.526-.373 2.03-1.12.513-.756.77-1.76.77-3.01 0-1.25-.257-2.25-.77-2.996-.513-.756-1.19-1.134-2.03-1.134-.84 0-1.517.378-2.03 1.134-.513.747-.77 1.745-.77 2.996 0 1.25.257 2.254.77 3.01.513.747 1.19 1.12 2.03 1.12zm7.691-9.03V71h-1.008v-8.708l-1.568.7v-.924l1.946-.868h.63zm5.203-.112c.56 0 1.073.117 1.54.35.476.224.882.546 1.218.966a4.5 4.5 0 0 1 .784 1.484 5.73 5.73 0 0 1 .294 1.876c0 .803-.108 1.535-.322 2.198a4.988 4.988 0 0 1-.882 1.68c-.383.467-.845.83-1.386 1.092a4.232 4.232 0 0 1-1.806.378c-.402 0-.808-.056-1.218-.168a4.204 4.204 0 0 1-1.078-.49l.504-.784c.289.168.592.299.91.392.326.093.648.14.966.14.998 0 1.792-.387 2.38-1.162.597-.775.905-1.834.924-3.178-.364.467-.803.83-1.316 1.092a3.338 3.338 0 0 1-1.554.392c-.476 0-.915-.075-1.316-.224a3.232 3.232 0 0 1-1.036-.644 2.975 2.975 0 0 1-.686-.966 3.076 3.076 0 0 1-.238-1.218 3.2 3.2 0 0 1 .252-1.274 3.02 3.02 0 0 1 .686-1.022c.298-.28.648-.5 1.05-.658.41-.168.854-.252 1.33-.252zm.098 5.432c.504 0 .994-.126 1.47-.378a3.946 3.946 0 0 0 1.232-1.064c-.103-.933-.406-1.685-.91-2.254-.504-.57-1.13-.854-1.876-.854-.663 0-1.218.22-1.666.658-.439.439-.658.985-.658 1.638 0 .653.224 1.195.672 1.624.457.42 1.036.63 1.736.63zm6.106 3.066c.196 0 .364.075.504.224.149.15.224.327.224.532a.744.744 0 0 1-.224.546.667.667 0 0 1-.504.224.725.725 0 0 1-.532-.224.769.769 0 0 1-.21-.546c0-.205.07-.383.21-.532a.725.725 0 0 1 .532-.224zm0-5.558c.196 0 .364.075.504.224.149.15.224.327.224.532a.744.744 0 0 1-.224.546.667.667 0 0 1-.504.224.725.725 0 0 1-.532-.224.769.769 0 0 1-.21-.546c0-.205.07-.383.21-.532a.725.725 0 0 1 .532-.224zM278.975 71v-.742l3.92-4.284c.458-.504.77-.92.938-1.246.168-.327.252-.677.252-1.05 0-.485-.196-.891-.588-1.218-.392-.327-.882-.49-1.47-.49a3.02 3.02 0 0 0-1.288.28c-.392.177-.826.48-1.302.91l-.588-.7c.504-.467 1.018-.812 1.54-1.036a4.073 4.073 0 0 1 1.652-.35c.878 0 1.601.243 2.17.728.579.476.868 1.083.868 1.82 0 .243-.023.467-.07.672a2.84 2.84 0 0 1-.238.644 4.718 4.718 0 0 1-.462.7c-.186.252-.429.541-.728.868l-3.346 3.626 5.054-.014V71h-6.314zm11.632.112c-.56 0-1.078-.112-1.554-.336a3.656 3.656 0 0 1-1.204-.966 4.91 4.91 0 0 1-.798-1.484 6.146 6.146 0 0 1-.28-1.89c0-.803.103-1.53.308-2.184.215-.663.514-1.227.896-1.694a3.907 3.907 0 0 1 1.386-1.078 4.104 4.104 0 0 1 1.806-.392c.402 0 .803.06 1.204.182.411.112.775.27 1.092.476l-.504.784a4.032 4.032 0 0 0-.924-.392 3.355 3.355 0 0 0-.952-.14c-.998 0-1.796.387-2.394 1.162-.588.775-.891 1.834-.91 3.178.364-.467.798-.83 1.302-1.092a3.424 3.424 0 0 1 1.568-.392c.476 0 .915.08 1.316.238.402.15.747.36 1.036.63.29.27.514.593.672.966.168.373.252.78.252 1.218 0 .457-.084.887-.252 1.288a2.96 2.96 0 0 1-.7 1.008c-.289.28-.639.504-1.05.672-.401.159-.84.238-1.316.238zm-.098-5.432c-.504 0-.994.13-1.47.392a3.784 3.784 0 0 0-1.232 1.05c.103.933.406 1.685.91 2.254.504.57 1.13.854 1.876.854.663 0 1.214-.22 1.652-.658.448-.439.672-.985.672-1.638 0-.653-.228-1.19-.686-1.61-.448-.43-1.022-.644-1.722-.644zm6.61.49a1.832 1.832 0 0 1-1.484-.7c-.373-.467-.56-1.073-.56-1.82 0-.747.187-1.353.56-1.82.383-.467.878-.7 1.484-.7a1.83 1.83 0 0 1 1.484.7c.383.457.574 1.064.574 1.82s-.191 1.367-.574 1.834c-.382.457-.877.686-1.484.686zm0-.644c.411 0 .738-.168.98-.504.252-.336.378-.793.378-1.372 0-.579-.126-1.036-.378-1.372-.242-.345-.569-.518-.98-.518-.401 0-.728.173-.98.518-.242.336-.364.793-.364 1.372 0 .579.122 1.036.364 1.372.252.336.579.504.98.504zm.364 5.474h-.798l5.502-9.8h.812l-5.516 9.8zm5.096.07a1.832 1.832 0 0 1-1.484-.7c-.373-.467-.56-1.073-.56-1.82 0-.747.187-1.353.56-1.82.383-.467.878-.7 1.484-.7a1.83 1.83 0 0 1 1.484.7c.383.457.574 1.064.574 1.82s-.191 1.367-.574 1.834c-.382.457-.877.686-1.484.686zm0-.644c.411 0 .738-.168.98-.504.252-.336.378-.793.378-1.372 0-.579-.126-1.036-.378-1.372-.242-.345-.569-.518-.98-.518-.401 0-.728.173-.98.518-.242.336-.364.793-.364 1.372 0 .579.122 1.036.364 1.372.252.336.579.504.98.504z" fill="#fff"/><path d="M267.5 84l5.858 5.715a1 1 0 0 0 1.403-.007L280.5 84h-13z" fill="#515151"/></g><defs><filter id="filter0_d_10031_74436" x="145" y="0" width="239" height="250.11" filterUnits="userSpaceOnUse" color-interpolation-filters="sRGB"><feFlood flood-opacity="0" result="BackgroundImageFix"/><feColorMatrix in="SourceAlpha" values="0 0 0 0 0 0 0 0 0 0 0 0 0 0 0 0 0 0 127 0" result="hardAlpha"/><feOffset/><feGaussianBlur stdDeviation="15"/><feColorMatrix values="0 0 0 0 0 0 0 0 0 0 0 0 0 0 0 0 0 0 0.08 0"/><feBlend in2="BackgroundImageFix" result="effect1_dropShadow_10031_74436"/><feBlend in="SourceGraphic" in2="effect1_dropShadow_10031_74436" result="shape"/></filter><filter id="filter1_d_10031_74436" x="264" y="95" width="21.855" height="25" filterUnits="userSpaceOnUse" color-interpolation-filters="sRGB"><feFlood flood-opacity="0" result="BackgroundImageFix"/><feColorMatrix in="SourceAlpha" values="0 0 0 0 0 0 0 0 0 0 0 0 0 0 0 0 0 0 127 0" result="hardAlpha"/><feOffset dy="1"/><feGaussianBlur stdDeviation="1.5"/><feColorMatrix values="0 0 0 0 0 0 0 0 0 0 0 0 0 0 0 0 0 0 0.2 0"/><feBlend in2="BackgroundImageFix" result="effect1_dropShadow_10031_74436"/><feBlend in="SourceGraphic" in2="effect1_dropShadow_10031_74436" result="shape"/></filter><clipPath id="clip0_10031_74436"><path fill="#fff" transform="translate(232 49)" d="M0 0H84V40.999H0z"/></clipPath></defs></svg>