<svg width="253" height="90" fill="none" xmlns="http://www.w3.org/2000/svg"><path d="M0 4a4 4 0 0 1 4-4h9.014a4 4 0 0 1 4 4v46H0V4zm144 4.507a8.507 8.507 0 0 1 17.014 0v32.986a8.507 8.507 0 0 1-17.014 0V8.507z" fill="#006DDB"/><path d="M41.696 85V71h5.12c1 0 1.933.18 2.8.54.866.36 1.606.853 2.22 1.48a6.584 6.584 0 0 1 1.46 2.24c.36.853.54 1.773.54 2.76 0 .987-.18 1.907-.54 2.76a6.63 6.63 0 0 1-1.46 2.22 6.77 6.77 0 0 1-2.22 1.46c-.867.36-1.8.54-2.8.54h-5.12zm5.18-11.92h-2.78v9.84h2.78c.626 0 1.213-.127 1.76-.38a4.542 4.542 0 0 0 1.42-1.02c.4-.44.713-.96.94-1.56.24-.6.36-1.247.36-1.94 0-.693-.12-1.34-.36-1.94a4.783 4.783 0 0 0-.94-1.58c-.4-.44-.874-.787-1.42-1.04a4.135 4.135 0 0 0-1.76-.38zM70.859 78c0 1-.186 1.947-.56 2.84a7.08 7.08 0 0 1-1.5 2.3 6.939 6.939 0 0 1-2.24 1.52 6.952 6.952 0 0 1-2.78.56 6.952 6.952 0 0 1-2.78-.56 7.173 7.173 0 0 1-2.26-1.52 7.54 7.54 0 0 1-1.5-2.3A7.526 7.526 0 0 1 56.7 78c0-1 .18-1.94.54-2.82a7.231 7.231 0 0 1 1.5-2.3 7.01 7.01 0 0 1 5.04-2.1c.987 0 1.914.187 2.78.56a6.786 6.786 0 0 1 2.24 1.54c.64.64 1.14 1.407 1.5 2.3.374.88.56 1.82.56 2.82zm-2.46 0c0-.72-.12-1.387-.36-2a4.793 4.793 0 0 0-.96-1.62 4.422 4.422 0 0 0-1.46-1.06 4.178 4.178 0 0 0-1.82-.4c-.653 0-1.266.133-1.84.4a4.421 4.421 0 0 0-1.46 1.06 5.06 5.06 0 0 0-.98 1.62 5.44 5.44 0 0 0-.36 2c0 .72.12 1.393.36 2.02.24.613.567 1.147.98 1.6.414.44.9.793 1.46 1.06.574.253 1.187.38 1.84.38.654 0 1.26-.127 1.82-.38a4.836 4.836 0 0 0 1.46-1.06c.414-.453.734-.987.96-1.6A5.6 5.6 0 0 0 68.4 78z" fill="#000"/><g clip-path="url(#clip0_10056_90436)"><path fill-rule="evenodd" clip-rule="evenodd" d="M0 77.997c0 6.617 5.385 12 12.004 12 6.62 0 12.005-5.383 12.005-12s-5.385-12-12.005-12C5.384 65.997 0 71.38 0 77.997zm1.5 0c0-5.79 4.712-10.5 10.504-10.5s10.504 4.71 10.504 10.5-4.712 10.5-10.504 10.5-10.503-4.71-10.503-10.5zm6.094-.69a.751.751 0 0 0-1.061 0 .748.748 0 0 0 0 1.06l3.536 3.53a.751.751 0 0 0 1.061 0l7.074-7.062a.748.748 0 0 0 0-1.06.751.751 0 0 0-1.061 0L10.6 80.308l-3.006-3.001z" fill="#29D305"/></g><path d="M185.715 85V71h5.12c1 0 1.933.18 2.8.54.867.36 1.607.853 2.22 1.48a6.585 6.585 0 0 1 1.46 2.24c.36.853.54 1.773.54 2.76 0 .987-.18 1.907-.54 2.76a6.632 6.632 0 0 1-1.46 2.22 6.764 6.764 0 0 1-2.22 1.46c-.867.36-1.8.54-2.8.54h-5.12zm5.18-11.92h-2.78v9.84h2.78c.627 0 1.213-.127 1.76-.38a4.539 4.539 0 0 0 1.42-1.02c.4-.44.713-.96.94-1.56.24-.6.36-1.247.36-1.94 0-.693-.12-1.34-.36-1.94a4.79 4.79 0 0 0-.94-1.58c-.4-.44-.873-.787-1.42-1.04a4.135 4.135 0 0 0-1.76-.38zM214.879 78c0 1-.187 1.947-.56 2.84a7.08 7.08 0 0 1-1.5 2.3 6.937 6.937 0 0 1-2.24 1.52 6.952 6.952 0 0 1-2.78.56 6.952 6.952 0 0 1-2.78-.56 7.17 7.17 0 0 1-2.26-1.52 7.529 7.529 0 0 1-1.5-2.3 7.526 7.526 0 0 1-.54-2.84c0-1 .18-1.94.54-2.82a7.221 7.221 0 0 1 1.5-2.3 7.007 7.007 0 0 1 5.04-2.1c.987 0 1.913.187 2.78.56a6.785 6.785 0 0 1 2.24 1.54c.64.64 1.14 1.407 1.5 2.3.373.88.56 1.82.56 2.82zm-2.46 0c0-.72-.12-1.387-.36-2a4.803 4.803 0 0 0-.96-1.62 4.418 4.418 0 0 0-1.46-1.06 4.18 4.18 0 0 0-1.82-.4 4.31 4.31 0 0 0-1.84.4 4.418 4.418 0 0 0-1.46 1.06c-.413.453-.74.993-.98 1.62a5.44 5.44 0 0 0-.36 2c0 .72.12 1.393.36 2.02a5.12 5.12 0 0 0 .98 1.6c.413.44.9.793 1.46 1.06.573.253 1.187.38 1.84.38s1.26-.127 1.82-.38a4.83 4.83 0 0 0 1.46-1.06c.413-.453.733-.987.96-1.6a5.6 5.6 0 0 0 .36-2.02zm5.951-7h2.34l7.3 10.16-.04-10.16h2.26v14h-2.14l-7.5-10.44.04 10.44h-2.26V71zm16.675-1h2.28l-1.96 5.28h-1.66l1.34-5.28zm4.389 3.08V71h11.76v2.08h-4.66V85h-2.4V73.08h-4.7z" fill="#000"/><g clip-path="url(#clip1_10056_90436)"><path fill-rule="evenodd" clip-rule="evenodd" d="M144 77.999c0 6.617 5.388 12 12.01 12 6.623 0 12.01-5.383 12.01-12s-5.387-12-12.01-12c-6.622 0-12.01 5.383-12.01 12zm1.501 0c0-5.79 4.714-10.5 10.509-10.5s10.509 4.71 10.509 10.5-4.714 10.5-10.509 10.5-10.509-4.71-10.509-10.5zm14.482 5.03a.747.747 0 0 0 1.061.001.75.75 0 0 0 0-1.061l-3.973-3.97 3.973-3.97a.744.744 0 0 0 0-1.06.748.748 0 0 0-1.061 0l-3.973 3.97-3.973-3.97a.745.745 0 0 0-.531-.22c-.2 0-.389.078-.53.22a.743.743 0 0 0-.22.53c0 .2.078.389.22.53l3.973 3.97-3.973 3.97a.752.752 0 0 0 .53 1.281c.2 0 .389-.078.531-.22l3.973-3.97 3.973 3.969z" fill="#EE0701"/></g><defs><clipPath id="clip0_10056_90436"><path fill="#fff" transform="translate(0 66)" d="M0 0H24.009V24H0z"/></clipPath><clipPath id="clip1_10056_90436"><path fill="#fff" transform="translate(144 66)" d="M0 0H24.02V24H0z"/></clipPath></defs></svg>