<svg fill="none" height="259" width="838" xmlns="http://www.w3.org/2000/svg"><path d="m38.5 5.5h799v228h-799z" stroke="#d3d3d3"/><path d="m38 195.5h800" stroke="#d3d3d3"/><path d="m6.717 192.3v7.7h-.792v-6.842l-1.232.55v-.726l1.529-.682zm4.728 7.81c-.44 0-.847-.095-1.221-.286a2.944 2.944 0 0 1 -.946-.814 4.005 4.005 0 0 1 -.616-1.254 5.594 5.594 0 0 1 -.22-1.606c0-.579.073-1.111.22-1.595a3.86 3.86 0 0 1 .616-1.254c.271-.352.59-.623.957-.814.367-.198.77-.297 1.21-.297s.843.099 1.21.297c.374.191.693.462.957.814.264.345.47.763.616 1.254.146.484.22 1.016.22 1.595s-.074 1.115-.22 1.606a4.003 4.003 0 0 1 -.616 1.254 2.906 2.906 0 0 1 -.957.814c-.367.191-.77.286-1.21.286zm0-.715c.667 0 1.199-.293 1.595-.88.403-.594.605-1.382.605-2.365s-.202-1.767-.605-2.354c-.403-.594-.935-.891-1.595-.891s-1.192.297-1.595.891c-.403.587-.605 1.371-.605 2.354s.202 1.771.605 2.365c.403.587.935.88 1.595.88zm7.462.715c-.44 0-.847-.095-1.221-.286a2.943 2.943 0 0 1 -.946-.814 4.003 4.003 0 0 1 -.616-1.254 5.593 5.593 0 0 1 -.22-1.606c0-.579.073-1.111.22-1.595.146-.491.352-.909.616-1.254.27-.352.59-.623.957-.814.366-.198.77-.297 1.21-.297s.843.099 1.21.297c.374.191.693.462.957.814.264.345.469.763.616 1.254.146.484.22 1.016.22 1.595s-.074 1.115-.22 1.606a4.006 4.006 0 0 1 -.616 1.254 2.906 2.906 0 0 1 -.957.814c-.367.191-.77.286-1.21.286zm0-.715c.667 0 1.199-.293 1.595-.88.403-.594.605-1.382.605-2.365s-.202-1.767-.605-2.354c-.404-.594-.935-.891-1.595-.891s-1.192.297-1.595.891c-.404.587-.605 1.371-.605 2.354s.201 1.771.605 2.365c.403.587.935.88 1.595.88zm7.461.715c-.44 0-.847-.095-1.22-.286a2.943 2.943 0 0 1 -.947-.814 4.003 4.003 0 0 1 -.616-1.254 5.593 5.593 0 0 1 -.22-1.606c0-.579.074-1.111.22-1.595.147-.491.352-.909.616-1.254.272-.352.59-.623.957-.814.367-.198.77-.297 1.21-.297s.844.099 1.21.297c.374.191.693.462.957.814.264.345.47.763.616 1.254.147.484.22 1.016.22 1.595s-.073 1.115-.22 1.606a4.006 4.006 0 0 1 -.616 1.254 2.906 2.906 0 0 1 -.957.814c-.366.191-.77.286-1.21.286zm0-.715c.668 0 1.2-.293 1.595-.88.404-.594.605-1.382.605-2.365s-.201-1.767-.605-2.354c-.403-.594-.935-.891-1.595-.891s-1.191.297-1.595.891c-.403.587-.605 1.371-.605 2.354s.202 1.771.605 2.365c.404.587.935.88 1.595.88z" fill="#000"/><path d="m38 157.5h800" stroke="#d3d3d3"/><path d="m2.138 162v-.583l3.08-3.366c.36-.396.605-.722.737-.979a1.78 1.78 0 0 0 .198-.825c0-.381-.154-.7-.462-.957s-.693-.385-1.155-.385c-.359 0-.696.073-1.012.22-.308.139-.649.378-1.023.715l-.462-.55c.396-.367.8-.638 1.21-.814.418-.183.851-.275 1.298-.275.69 0 1.258.191 1.705.572.455.374.682.851.682 1.43 0 .191-.018.367-.055.528-.036.161-.099.33-.187.506a3.691 3.691 0 0 1 -.363.55 8.892 8.892 0 0 1 -.572.682l-2.629 2.849 3.971-.011v.693h-4.959zm9.307.11c-.44 0-.847-.095-1.221-.286a2.944 2.944 0 0 1 -.946-.814 4.005 4.005 0 0 1 -.616-1.254 5.594 5.594 0 0 1 -.22-1.606c0-.579.073-1.111.22-1.595a3.86 3.86 0 0 1 .616-1.254c.271-.352.59-.623.957-.814.367-.198.77-.297 1.21-.297s.843.099 1.21.297c.374.191.693.462.957.814.264.345.47.763.616 1.254.146.484.22 1.016.22 1.595s-.074 1.115-.22 1.606a4.003 4.003 0 0 1 -.616 1.254 2.906 2.906 0 0 1 -.957.814c-.367.191-.77.286-1.21.286zm0-.715c.667 0 1.199-.293 1.595-.88.403-.594.605-1.382.605-2.365s-.202-1.767-.605-2.354c-.403-.594-.935-.891-1.595-.891s-1.192.297-1.595.891c-.403.587-.605 1.371-.605 2.354s.202 1.771.605 2.365c.403.587.935.88 1.595.88zm7.462.715c-.44 0-.847-.095-1.221-.286a2.943 2.943 0 0 1 -.946-.814 4.003 4.003 0 0 1 -.616-1.254 5.593 5.593 0 0 1 -.22-1.606c0-.579.073-1.111.22-1.595.146-.491.352-.909.616-1.254.27-.352.59-.623.957-.814.366-.198.77-.297 1.21-.297s.843.099 1.21.297c.374.191.693.462.957.814.264.345.469.763.616 1.254.146.484.22 1.016.22 1.595s-.074 1.115-.22 1.606a4.006 4.006 0 0 1 -.616 1.254 2.906 2.906 0 0 1 -.957.814c-.367.191-.77.286-1.21.286zm0-.715c.667 0 1.199-.293 1.595-.88.403-.594.605-1.382.605-2.365s-.202-1.767-.605-2.354c-.404-.594-.935-.891-1.595-.891s-1.192.297-1.595.891c-.404.587-.605 1.371-.605 2.354s.201 1.771.605 2.365c.403.587.935.88 1.595.88zm7.461.715c-.44 0-.847-.095-1.22-.286a2.943 2.943 0 0 1 -.947-.814 4.003 4.003 0 0 1 -.616-1.254 5.593 5.593 0 0 1 -.22-1.606c0-.579.074-1.111.22-1.595.147-.491.352-.909.616-1.254.272-.352.59-.623.957-.814.367-.198.77-.297 1.21-.297s.844.099 1.21.297c.374.191.693.462.957.814.264.345.47.763.616 1.254.147.484.22 1.016.22 1.595s-.073 1.115-.22 1.606a4.006 4.006 0 0 1 -.616 1.254 2.906 2.906 0 0 1 -.957.814c-.366.191-.77.286-1.21.286zm0-.715c.668 0 1.2-.293 1.595-.88.404-.594.605-1.382.605-2.365s-.201-1.767-.605-2.354c-.403-.594-.935-.891-1.595-.891s-1.191.297-1.595.891c-.403.587-.605 1.371-.605 2.354s.202 1.771.605 2.365c.404.587.935.88 1.595.88z" fill="#000"/><path d="m38 233.5h800" stroke="#d3d3d3"/><path d="m26.368 238.11c-.44 0-.847-.095-1.22-.286a2.943 2.943 0 0 1 -.947-.814 4.003 4.003 0 0 1 -.616-1.254 5.593 5.593 0 0 1 -.22-1.606c0-.579.074-1.111.22-1.595.147-.491.352-.909.616-1.254.272-.352.59-.623.957-.814.367-.198.77-.297 1.21-.297s.844.099 1.21.297c.374.191.693.462.957.814.264.345.47.763.616 1.254.147.484.22 1.016.22 1.595s-.073 1.115-.22 1.606a4.006 4.006 0 0 1 -.616 1.254 2.906 2.906 0 0 1 -.957.814c-.366.191-.77.286-1.21.286zm0-.715c.668 0 1.2-.293 1.595-.88.404-.594.605-1.382.605-2.365s-.201-1.767-.605-2.354c-.403-.594-.935-.891-1.595-.891s-1.191.297-1.595.891c-.403.587-.605 1.371-.605 2.354s.202 1.771.605 2.365c.404.587.935.88 1.595.88z" fill="#000"/><path d="m38 119.5h800" stroke="#d3d3d3"/><path d="m7.041 121.888c0 .323-.07.62-.209.891a2.078 2.078 0 0 1 -.56.704 2.545 2.545 0 0 1 -.848.462c-.33.11-.689.165-1.078.165a3.996 3.996 0 0 1 -1.485-.275 3.524 3.524 0 0 1 -1.21-.814l.528-.517c.323.323.653.557.99.704.345.139.734.209 1.166.209.558 0 1.016-.143 1.375-.429.36-.293.54-.667.54-1.122 0-.418-.158-.766-.474-1.045-.308-.279-.704-.418-1.188-.418h-.913v-.682h.88c.418 0 .756-.128 1.012-.385.264-.257.396-.59.396-1.001 0-.403-.16-.744-.484-1.023-.322-.286-.718-.429-1.188-.429-.396 0-.751.073-1.067.22-.308.139-.623.378-.946.715l-.528-.528a3.653 3.653 0 0 1 1.166-.825c.44-.191.902-.286 1.386-.286.352 0 .679.055.98.165.3.103.557.249.77.44.22.183.392.407.516.671.125.257.187.535.187.836 0 .403-.132.766-.396 1.089a2.077 2.077 0 0 1 -1.045.66c.514.11.928.337 1.243.682.323.337.484.726.484 1.166zm4.404 2.222c-.44 0-.847-.095-1.221-.286a2.944 2.944 0 0 1 -.946-.814 4.005 4.005 0 0 1 -.616-1.254 5.594 5.594 0 0 1 -.22-1.606c0-.579.073-1.111.22-1.595a3.86 3.86 0 0 1 .616-1.254c.271-.352.59-.623.957-.814.367-.198.77-.297 1.21-.297s.843.099 1.21.297c.374.191.693.462.957.814.264.345.47.763.616 1.254.146.484.22 1.016.22 1.595s-.074 1.115-.22 1.606a4.003 4.003 0 0 1 -.616 1.254 2.906 2.906 0 0 1 -.957.814c-.367.191-.77.286-1.21.286zm0-.715c.667 0 1.199-.293 1.595-.88.403-.594.605-1.382.605-2.365s-.202-1.767-.605-2.354c-.403-.594-.935-.891-1.595-.891s-1.192.297-1.595.891c-.403.587-.605 1.371-.605 2.354s.202 1.771.605 2.365c.403.587.935.88 1.595.88zm7.462.715c-.44 0-.847-.095-1.221-.286a2.943 2.943 0 0 1 -.946-.814 4.003 4.003 0 0 1 -.616-1.254 5.593 5.593 0 0 1 -.22-1.606c0-.579.073-1.111.22-1.595.146-.491.352-.909.616-1.254.27-.352.59-.623.957-.814.366-.198.77-.297 1.21-.297s.843.099 1.21.297c.374.191.693.462.957.814.264.345.469.763.616 1.254.146.484.22 1.016.22 1.595s-.074 1.115-.22 1.606a4.006 4.006 0 0 1 -.616 1.254 2.906 2.906 0 0 1 -.957.814c-.367.191-.77.286-1.21.286zm0-.715c.667 0 1.199-.293 1.595-.88.403-.594.605-1.382.605-2.365s-.202-1.767-.605-2.354c-.404-.594-.935-.891-1.595-.891s-1.192.297-1.595.891c-.404.587-.605 1.371-.605 2.354s.201 1.771.605 2.365c.403.587.935.88 1.595.88zm7.461.715c-.44 0-.847-.095-1.22-.286a2.943 2.943 0 0 1 -.947-.814 4.003 4.003 0 0 1 -.616-1.254 5.593 5.593 0 0 1 -.22-1.606c0-.579.074-1.111.22-1.595.147-.491.352-.909.616-1.254.272-.352.59-.623.957-.814.367-.198.77-.297 1.21-.297s.844.099 1.21.297c.374.191.693.462.957.814.264.345.47.763.616 1.254.147.484.22 1.016.22 1.595s-.073 1.115-.22 1.606a4.006 4.006 0 0 1 -.616 1.254 2.906 2.906 0 0 1 -.957.814c-.366.191-.77.286-1.21.286zm0-.715c.668 0 1.2-.293 1.595-.88.404-.594.605-1.382.605-2.365s-.201-1.767-.605-2.354c-.403-.594-.935-.891-1.595-.891s-1.191.297-1.595.891c-.403.587-.605 1.371-.605 2.354s.202 1.771.605 2.365c.404.587.935.88 1.595.88z" fill="#000"/><path d="m38 81.5h800" stroke="#d3d3d3"/><path d="m6.183 78.3v4.95h1.067v.693h-1.067v2.057h-.781v-2.057h-4.158v-.627l4.092-5.016zm-4.015 4.95h3.234v-3.993zm9.277 2.86c-.44 0-.847-.095-1.221-.286a2.947 2.947 0 0 1 -.946-.814 4.005 4.005 0 0 1 -.616-1.254 5.594 5.594 0 0 1 -.22-1.606c0-.58.073-1.111.22-1.595.147-.491.352-.91.616-1.254.271-.352.59-.623.957-.814.367-.198.77-.297 1.21-.297s.843.099 1.21.297c.374.19.693.462.957.814.264.345.47.763.616 1.254a5.48 5.48 0 0 1 .22 1.595c0 .58-.074 1.115-.22 1.606a4.003 4.003 0 0 1 -.616 1.254 2.91 2.91 0 0 1 -.957.814c-.367.19-.77.286-1.21.286zm0-.715c.667 0 1.199-.293 1.595-.88.403-.594.605-1.382.605-2.365s-.202-1.767-.605-2.354c-.403-.594-.935-.891-1.595-.891s-1.192.297-1.595.891c-.403.587-.605 1.371-.605 2.354s.202 1.771.605 2.365c.403.587.935.88 1.595.88zm7.462.715c-.44 0-.847-.095-1.221-.286a2.947 2.947 0 0 1 -.946-.814 4.003 4.003 0 0 1 -.616-1.254 5.593 5.593 0 0 1 -.22-1.606c0-.58.073-1.111.22-1.595.146-.491.352-.91.616-1.254.27-.352.59-.623.957-.814.366-.198.77-.297 1.21-.297s.843.099 1.21.297c.374.19.693.462.957.814.264.345.469.763.616 1.254.146.484.22 1.016.22 1.595 0 .58-.074 1.115-.22 1.606a4.006 4.006 0 0 1 -.616 1.254 2.91 2.91 0 0 1 -.957.814c-.367.19-.77.286-1.21.286zm0-.715c.667 0 1.199-.293 1.595-.88.403-.594.605-1.382.605-2.365s-.202-1.767-.605-2.354c-.404-.594-.935-.891-1.595-.891s-1.192.297-1.595.891c-.404.587-.605 1.371-.605 2.354s.201 1.771.605 2.365c.403.587.935.88 1.595.88zm7.461.715c-.44 0-.847-.095-1.22-.286a2.947 2.947 0 0 1 -.947-.814 4.003 4.003 0 0 1 -.616-1.254 5.593 5.593 0 0 1 -.22-1.606c0-.58.074-1.111.22-1.595.147-.491.352-.91.616-1.254.272-.352.59-.623.957-.814.367-.198.77-.297 1.21-.297s.844.099 1.21.297c.374.19.693.462.957.814.264.345.47.763.616 1.254.147.484.22 1.016.22 1.595 0 .58-.073 1.115-.22 1.606a4.006 4.006 0 0 1 -.616 1.254 2.91 2.91 0 0 1 -.957.814c-.366.19-.77.286-1.21.286zm0-.715c.668 0 1.2-.293 1.595-.88.404-.594.605-1.382.605-2.365s-.201-1.767-.605-2.354c-.403-.594-.935-.891-1.595-.891s-1.191.297-1.595.891c-.403.587-.605 1.371-.605 2.354s.202 1.771.605 2.365c.404.587.935.88 1.595.88z" fill="#000"/><path d="m38 43.5h800" stroke="#d3d3d3"/><path d="m2.1 44.15.176-3.85h4.378v.693h-3.696l-.12 2.662c.293-.14.575-.242.846-.308a3.62 3.62 0 0 1 .858-.099c.748 0 1.353.216 1.815.649.47.425.704.979.704 1.661 0 .755-.249 1.371-.748 1.848-.498.47-1.147.704-1.947.704-.506 0-.979-.088-1.419-.264a3.716 3.716 0 0 1 -1.199-.781l.495-.539c.338.315.671.546 1.001.693.338.14.715.209 1.133.209.558 0 1.012-.169 1.364-.506.352-.345.528-.788.528-1.331 0-.506-.176-.917-.528-1.232s-.806-.473-1.364-.473c-.293 0-.579.037-.858.11a3.875 3.875 0 0 0 -.869.33l-.55-.176zm9.345 3.96c-.44 0-.847-.095-1.221-.286a2.947 2.947 0 0 1 -.946-.814 4.005 4.005 0 0 1 -.616-1.254 5.594 5.594 0 0 1 -.22-1.606c0-.58.073-1.111.22-1.595.147-.491.352-.91.616-1.254.271-.352.59-.623.957-.814.367-.198.77-.297 1.21-.297s.843.099 1.21.297c.374.19.693.462.957.814.264.345.47.763.616 1.254a5.48 5.48 0 0 1 .22 1.595c0 .58-.074 1.115-.22 1.606a4.003 4.003 0 0 1 -.616 1.254 2.91 2.91 0 0 1 -.957.814c-.367.19-.77.286-1.21.286zm0-.715c.667 0 1.199-.293 1.595-.88.403-.594.605-1.382.605-2.365s-.202-1.767-.605-2.354c-.403-.594-.935-.891-1.595-.891s-1.192.297-1.595.891c-.403.587-.605 1.371-.605 2.354s.202 1.771.605 2.365c.403.587.935.88 1.595.88zm7.462.715c-.44 0-.847-.095-1.221-.286a2.947 2.947 0 0 1 -.946-.814 4.003 4.003 0 0 1 -.616-1.254 5.593 5.593 0 0 1 -.22-1.606c0-.58.073-1.111.22-1.595.146-.491.352-.91.616-1.254.27-.352.59-.623.957-.814.366-.198.77-.297 1.21-.297s.843.099 1.21.297c.374.19.693.462.957.814.264.345.469.763.616 1.254.146.484.22 1.016.22 1.595 0 .58-.074 1.115-.22 1.606a4.006 4.006 0 0 1 -.616 1.254 2.91 2.91 0 0 1 -.957.814c-.367.19-.77.286-1.21.286zm0-.715c.667 0 1.199-.293 1.595-.88.403-.594.605-1.382.605-2.365s-.202-1.767-.605-2.354c-.404-.594-.935-.891-1.595-.891s-1.192.297-1.595.891c-.404.587-.605 1.371-.605 2.354s.201 1.771.605 2.365c.403.587.935.88 1.595.88zm7.461.715c-.44 0-.847-.095-1.22-.286a2.947 2.947 0 0 1 -.947-.814 4.003 4.003 0 0 1 -.616-1.254 5.593 5.593 0 0 1 -.22-1.606c0-.58.074-1.111.22-1.595.147-.491.352-.91.616-1.254.272-.352.59-.623.957-.814.367-.198.77-.297 1.21-.297s.844.099 1.21.297c.374.19.693.462.957.814.264.345.47.763.616 1.254.147.484.22 1.016.22 1.595 0 .58-.073 1.115-.22 1.606a4.006 4.006 0 0 1 -.616 1.254 2.91 2.91 0 0 1 -.957.814c-.366.19-.77.286-1.21.286zm0-.715c.668 0 1.2-.293 1.595-.88.404-.594.605-1.382.605-2.365s-.201-1.767-.605-2.354c-.403-.594-.935-.891-1.595-.891s-1.191.297-1.595.891c-.403.587-.605 1.371-.605 2.354s.202 1.771.605 2.365c.404.587.935.88 1.595.88z" fill="#000"/><path d="m38 5.5h800" stroke="#d3d3d3"/><path d="m4.445 10.088c-.44 0-.847-.088-1.22-.264a2.868 2.868 0 0 1 -.947-.759 3.858 3.858 0 0 1 -.627-1.166 4.813 4.813 0 0 1 -.22-1.485c0-.63.081-1.203.242-1.716.169-.52.404-.964.704-1.331.301-.367.664-.649 1.09-.847a3.221 3.221 0 0 1 1.418-.308c.316 0 .631.048.946.143.323.088.609.213.858.374l-.396.616a3.18 3.18 0 0 0 -.726-.308 2.64 2.64 0 0 0 -.748-.11c-.784 0-1.411.304-1.88.913-.463.609-.701 1.441-.716 2.497a3.094 3.094 0 0 1 1.023-.858 2.688 2.688 0 0 1 1.232-.308c.374 0 .719.062 1.034.187.316.117.587.282.814.495.228.213.404.466.528.759.132.293.198.612.198.957 0 .36-.066.697-.198 1.012a2.329 2.329 0 0 1 -.55.792 2.57 2.57 0 0 1 -.825.528c-.315.125-.66.187-1.034.187zm-.077-4.268c-.396 0-.78.103-1.155.308a2.968 2.968 0 0 0 -.968.825c.081.733.32 1.324.715 1.771a1.89 1.89 0 0 0 1.474.671c.521 0 .954-.172 1.298-.517.352-.345.528-.774.528-1.287s-.18-.935-.539-1.265c-.352-.337-.803-.506-1.353-.506zm7.077 4.29c-.44 0-.847-.095-1.221-.286a2.948 2.948 0 0 1 -.946-.814 4.005 4.005 0 0 1 -.616-1.254 5.594 5.594 0 0 1 -.22-1.606c0-.58.073-1.111.22-1.595.147-.491.352-.91.616-1.254.271-.352.59-.623.957-.814.367-.198.77-.297 1.21-.297s.843.099 1.21.297c.374.19.693.462.957.814.264.345.47.763.616 1.254a5.48 5.48 0 0 1 .22 1.595c0 .58-.074 1.115-.22 1.606a4.003 4.003 0 0 1 -.616 1.254 2.91 2.91 0 0 1 -.957.814c-.367.19-.77.286-1.21.286zm0-.715c.667 0 1.199-.293 1.595-.88.403-.594.605-1.382.605-2.365s-.202-1.767-.605-2.354c-.403-.594-.935-.891-1.595-.891s-1.192.297-1.595.891c-.403.587-.605 1.371-.605 2.354s.202 1.771.605 2.365c.403.587.935.88 1.595.88zm7.462.715c-.44 0-.847-.095-1.221-.286a2.947 2.947 0 0 1 -.946-.814 4.003 4.003 0 0 1 -.616-1.254 5.593 5.593 0 0 1 -.22-1.606c0-.58.073-1.111.22-1.595.146-.491.352-.91.616-1.254.27-.352.59-.623.957-.814.366-.198.77-.297 1.21-.297s.843.099 1.21.297c.374.19.693.462.957.814.264.345.469.763.616 1.254.146.484.22 1.016.22 1.595 0 .58-.074 1.115-.22 1.606a4.006 4.006 0 0 1 -.616 1.254 2.91 2.91 0 0 1 -.957.814c-.367.19-.77.286-1.21.286zm0-.715c.667 0 1.199-.293 1.595-.88.403-.594.605-1.382.605-2.365s-.202-1.767-.605-2.354c-.404-.594-.935-.891-1.595-.891s-1.192.297-1.595.891c-.404.587-.605 1.371-.605 2.354s.201 1.771.605 2.365c.403.587.935.88 1.595.88zm7.461.715c-.44 0-.847-.095-1.22-.286a2.947 2.947 0 0 1 -.947-.814 4.003 4.003 0 0 1 -.616-1.254 5.593 5.593 0 0 1 -.22-1.606c0-.58.074-1.111.22-1.595.147-.491.352-.91.616-1.254.272-.352.59-.623.957-.814.367-.198.77-.297 1.21-.297s.844.099 1.21.297c.374.19.693.462.957.814.264.345.47.763.616 1.254.147.484.22 1.016.22 1.595 0 .58-.073 1.115-.22 1.606a4.006 4.006 0 0 1 -.616 1.254 2.91 2.91 0 0 1 -.957.814c-.366.19-.77.286-1.21.286zm0-.715c.668 0 1.2-.293 1.595-.88.404-.594.605-1.382.605-2.365s-.201-1.767-.605-2.354c-.403-.594-.935-.891-1.595-.891s-1.191.297-1.595.891c-.403.587-.605 1.371-.605 2.354s.202 1.771.605 2.365c.404.587.935.88 1.595.88zm259.961 80.46c0 .323-.073.623-.22.902a2.05 2.05 0 0 1 -.594.715c-.249.198-.55.356-.902.473-.352.11-.737.165-1.155.165a4.286 4.286 0 0 1 -1.595-.297 3.608 3.608 0 0 1 -1.254-.858l.814-.759c.308.315.616.539.924.671.308.125.675.187 1.1.187.492 0 .891-.117 1.199-.352.316-.242.473-.55.473-.924 0-.337-.128-.612-.385-.825-.256-.22-.583-.33-.979-.33h-.957v-1.001h.858c.367 0 .66-.103.88-.308.228-.213.341-.495.341-.847 0-.345-.139-.634-.418-.869-.278-.235-.627-.352-1.045-.352-.381 0-.718.07-1.012.209-.286.132-.586.367-.902.704l-.814-.759a3.733 3.733 0 0 1 2.772-1.221c.382 0 .734.055 1.056.165.323.11.598.26.825.451.235.19.418.418.55.682s.198.55.198.858c0 .418-.139.788-.418 1.111a2.131 2.131 0 0 1 -1.078.649c.521.103.939.315 1.254.638.323.315.484.69.484 1.122zm6.775 0c0 .323-.074.623-.22.902-.14.279-.338.517-.594.715-.25.198-.55.356-.902.473-.352.11-.737.165-1.155.165a4.278 4.278 0 0 1 -1.595-.297 3.59 3.59 0 0 1 -1.254-.858l.814-.759c.308.315.616.539.924.671.308.125.674.187 1.1.187.491 0 .891-.117 1.199-.352.315-.242.473-.55.473-.924 0-.337-.129-.612-.385-.825-.257-.22-.583-.33-.979-.33h-.957v-1.001h.858c.366 0 .66-.103.88-.308.227-.213.341-.495.341-.847 0-.345-.14-.634-.418-.869-.279-.235-.627-.352-1.045-.352-.382 0-.719.07-1.012.209-.286.132-.587.367-.902.704l-.814-.759a3.733 3.733 0 0 1 2.772-1.221c.381 0 .733.055 1.056.165.322.11.597.26.825.451.234.19.418.418.55.682s.198.55.198.858c0 .418-.14.788-.418 1.111a2.135 2.135 0 0 1 -1.078.649c.52.103.938.315 1.254.638.322.315.484.69.484 1.122zm1.284 2.145v-.869l3.157-3.3c.271-.293.462-.546.572-.759.117-.22.176-.451.176-.693 0-.323-.136-.59-.407-.803-.264-.22-.598-.33-1.001-.33-.352 0-.682.073-.99.22-.301.147-.634.389-1.001.726l-.682-.825a4.528 4.528 0 0 1 1.298-.869 3.493 3.493 0 0 1 1.408-.297c.748 0 1.357.198 1.826.594.477.389.715.891.715 1.507 0 .367-.081.708-.242 1.023s-.447.69-.858 1.122l-2.464 2.541 3.707-.022v1.034zm7.025 0 3.575-6.633h-4.411v-1.067h5.731v.902l-3.487 6.798z" fill="#000"/><path d="m278.953 101a4 4 0 0 1 4-4h19.438a4 4 0 0 1 4 4v132h-27.438z" fill="#21ac04"/><path d="m287.367 252.3-3.766-7.854v8.554h-1.008v-9.8h1.498l3.276 6.972 3.276-6.972h1.498v9.8h-1.022v-8.526zm9.066.826c-.728 0-1.326-.191-1.792-.574-.458-.392-.686-.896-.686-1.512 0-.607.233-1.097.7-1.47.476-.373 1.096-.56 1.862-.56.392 0 .76.047 1.106.14.354.084.681.215.98.392v-.938c0-.56-.15-.98-.448-1.26-.299-.289-.738-.434-1.316-.434-.318 0-.644.047-.98.14a6.132 6.132 0 0 0 -1.092.448l-.378-.784c.466-.224.91-.387 1.33-.49.42-.112.835-.168 1.246-.168.84 0 1.488.21 1.946.63.466.411.7 1.003.7 1.778v4.536h-1.008v-.798c-.299.308-.63.541-.994.7a3.074 3.074 0 0 1 -1.176.224zm-1.498-2.114c0 .401.158.723.476.966.317.243.728.364 1.232.364a2.73 2.73 0 0 0 1.05-.196 2.94 2.94 0 0 0 .91-.588v-1.316a3.371 3.371 0 0 0 -.896-.364 3.942 3.942 0 0 0 -1.036-.126c-.523 0-.943.117-1.26.35-.318.233-.476.537-.476.91zm6.753 1.988v-6.832h1.022v1.386c.177-.476.429-.845.756-1.106a1.777 1.777 0 0 1 1.148-.406c.121 0 .233.009.336.028.102.009.205.033.308.07v.924a2.157 2.157 0 0 0 -.364-.084 1.767 1.767 0 0 0 -1.456.322c-.308.243-.551.583-.728 1.022v4.676zm81.932-92.7v7.7h-1.199v-6.446l-1.364.594v-1.067l1.804-.781zm4.73 7.799c-.469 0-.902-.092-1.298-.275a3.039 3.039 0 0 1 -1.012-.77 3.56 3.56 0 0 1 -.649-1.188 4.775 4.775 0 0 1 -.231-1.518c0-.623.084-1.192.253-1.705.176-.513.418-.95.726-1.309a3.281 3.281 0 0 1 1.133-.836 3.496 3.496 0 0 1 1.474-.308c.367 0 .733.059 1.1.176.374.117.689.279.946.484l-.66.891a2.27 2.27 0 0 0 -.704-.352 2.444 2.444 0 0 0 -.781-.121c-.711 0-1.269.271-1.672.814-.403.535-.609 1.283-.616 2.244.271-.359.59-.634.957-.825a2.462 2.462 0 0 1 1.166-.297c.374 0 .719.059 1.034.176s.587.282.814.495c.227.205.403.455.528.748.132.286.198.601.198.946 0 .367-.07.704-.209 1.012a2.368 2.368 0 0 1 -.561.803c-.235.22-.521.396-.858.528-.33.125-.689.187-1.078.187zm-.055-3.938c-.367 0-.715.081-1.045.242a2.486 2.486 0 0 0 -.836.682c.095.594.312 1.074.649 1.441.345.359.759.539 1.243.539.447 0 .821-.139 1.122-.418s.451-.627.451-1.045-.15-.763-.451-1.034c-.293-.271-.671-.407-1.133-.407zm3.929 3.839v-.869l3.157-3.3c.272-.293.462-.546.572-.759.118-.22.176-.451.176-.693 0-.323-.135-.59-.407-.803-.264-.22-.597-.33-1.001-.33-.352 0-.682.073-.99.22-.3.147-.634.389-1.001.726l-.682-.825a4.528 4.528 0 0 1 1.298-.869 3.493 3.493 0 0 1 1.408-.297c.748 0 1.357.198 1.826.594.477.389.715.891.715 1.507 0 .367-.08.708-.242 1.023-.161.315-.447.689-.858 1.122l-2.464 2.541 3.707-.022v1.034zm8.883-7.7v7.7h-1.199v-6.446l-1.364.594v-1.067l1.804-.781z" fill="#000"/><path d="m377.273 177a4 4 0 0 1 4-4h19.438a4 4 0 0 1 4 4v56h-27.438z" fill="#21ac04"/><path d="m380.736 253 3.878-9.8h1.288l3.822 9.8h-1.162l-1.162-3.08h-4.368l-1.162 3.08zm2.632-3.934h3.71l-1.862-4.9zm7.535 6.86v-9.758h1.008v.98c.261-.345.578-.607.952-.784.382-.187.802-.28 1.26-.28.438 0 .849.093 1.232.28.392.177.728.425 1.008.742.28.308.499.677.658 1.106.168.429.252.887.252 1.372 0 .495-.084.957-.252 1.386a3.394 3.394 0 0 1 -.672 1.12c-.29.308-.63.555-1.022.742a3.026 3.026 0 0 1 -1.26.266c-.43 0-.831-.079-1.204-.238a2.698 2.698 0 0 1 -.938-.714v3.78zm2.968-8.946c-.402 0-.775.084-1.12.252a2.105 2.105 0 0 0 -.826.686v3.346c.224.299.504.532.84.7.345.168.714.252 1.106.252.681 0 1.25-.247 1.708-.742.457-.504.686-1.129.686-1.876s-.229-1.367-.686-1.862a2.213 2.213 0 0 0 -1.708-.756zm5.194 6.02v-6.832h1.022v1.386c.177-.476.429-.845.756-1.106a1.777 1.777 0 0 1 1.148-.406c.121 0 .233.009.336.028.102.009.205.033.308.07v.924a2.157 2.157 0 0 0 -.364-.084 1.767 1.767 0 0 0 -1.456.322c-.308.243-.551.583-.728 1.022v4.676zm77.385-123v-.869l3.157-3.3c.271-.293.462-.546.572-.759.117-.22.176-.451.176-.693 0-.323-.136-.59-.407-.803-.264-.22-.598-.33-1.001-.33-.352 0-.682.073-.99.22-.301.147-.634.389-1.001.726l-.682-.825a4.528 4.528 0 0 1 1.298-.869 3.493 3.493 0 0 1 1.408-.297c.748 0 1.357.198 1.826.594.477.389.715.891.715 1.507 0 .367-.081.708-.242 1.023s-.447.689-.858 1.122l-2.464 2.541 3.707-.022v1.034zm9.652.099c-.469 0-.902-.092-1.298-.275a3.049 3.049 0 0 1 -1.012-.77 3.578 3.578 0 0 1 -.649-1.188 4.775 4.775 0 0 1 -.231-1.518c0-.623.085-1.192.253-1.705.176-.513.418-.95.726-1.309a3.29 3.29 0 0 1 1.133-.836 3.5 3.5 0 0 1 1.474-.308c.367 0 .734.059 1.1.176.374.117.69.279.946.484l-.66.891a2.259 2.259 0 0 0 -.704-.352 2.444 2.444 0 0 0 -.781-.121c-.711 0-1.268.271-1.672.814-.403.535-.608 1.283-.616 2.244.272-.359.591-.634.957-.825a2.462 2.462 0 0 1 1.166-.297c.374 0 .719.059 1.034.176.316.117.587.282.814.495.228.205.404.455.528.748.132.286.198.601.198.946 0 .367-.069.704-.209 1.012a2.368 2.368 0 0 1 -.561.803c-.234.22-.52.396-.858.528-.33.125-.689.187-1.078.187zm-.055-3.938c-.366 0-.715.081-1.045.242a2.496 2.496 0 0 0 -.836.682c.096.594.312 1.074.649 1.441.345.359.759.539 1.243.539.448 0 .822-.139 1.122-.418.301-.279.451-.627.451-1.045s-.15-.763-.451-1.034c-.293-.271-.671-.407-1.133-.407zm6.409-3.971c.469 0 .898.092 1.287.275.396.183.733.44 1.012.77.286.33.506.726.66 1.188s.231.968.231 1.518a5.23 5.23 0 0 1 -.264 1.705c-.169.513-.411.95-.726 1.309a3.267 3.267 0 0 1 -1.133.847c-.44.198-.928.297-1.463.297-.367 0-.737-.059-1.111-.176a2.88 2.88 0 0 1 -.935-.484l.66-.891c.22.161.451.282.693.363.249.073.513.11.792.11.711 0 1.268-.268 1.672-.803.403-.543.608-1.294.616-2.255a2.927 2.927 0 0 1 -.968.836 2.468 2.468 0 0 1 -1.155.286 2.95 2.95 0 0 1 -1.034-.176 2.49 2.49 0 0 1 -.814-.484 2.373 2.373 0 0 1 -.539-.748 2.413 2.413 0 0 1 -.187-.957c0-.367.066-.704.198-1.012.139-.308.326-.572.561-.792.242-.227.528-.403.858-.528a2.96 2.96 0 0 1 1.089-.198zm.055 3.938c.366 0 .711-.081 1.034-.242.33-.161.612-.389.847-.682-.096-.594-.316-1.071-.66-1.43a1.611 1.611 0 0 0 -1.232-.55c-.448 0-.822.139-1.122.418a1.365 1.365 0 0 0 -.451 1.045c0 .418.146.763.44 1.034.3.271.682.407 1.144.407zm7.041-3.938c.47 0 .899.092 1.287.275.396.183.734.44 1.012.77.286.33.506.726.66 1.188s.231.968.231 1.518a5.23 5.23 0 0 1 -.264 1.705c-.168.513-.41.95-.726 1.309a3.258 3.258 0 0 1 -1.133.847c-.44.198-.927.297-1.463.297a3.71 3.71 0 0 1 -1.111-.176 2.9 2.9 0 0 1 -.935-.484l.66-.891c.22.161.451.282.693.363.25.073.514.11.792.11.712 0 1.269-.268 1.672-.803.404-.543.609-1.294.616-2.255a2.917 2.917 0 0 1 -.968.836 2.462 2.462 0 0 1 -1.155.286c-.374 0-.718-.059-1.034-.176a2.51 2.51 0 0 1 -.814-.484 2.389 2.389 0 0 1 -.539-.748 2.43 2.43 0 0 1 -.187-.957c0-.367.066-.704.198-1.012.14-.308.327-.572.561-.792.242-.227.528-.403.858-.528a2.967 2.967 0 0 1 1.089-.198zm.055 3.938c.367 0 .712-.081 1.034-.242.33-.161.613-.389.847-.682-.095-.594-.315-1.071-.66-1.43a1.61 1.61 0 0 0 -1.232-.55c-.447 0-.821.139-1.122.418-.3.279-.451.627-.451 1.045s.147.763.44 1.034c.301.271.682.407 1.144.407z" fill="#000"/><path d="m475.59 139a4 4 0 0 1 4-4h19.438a4 4 0 0 1 4 4v94h-27.438z" fill="#21ac04"/><path d="m483.046 252.3-3.766-7.854v8.554h-1.008v-9.8h1.498l3.276 6.972 3.276-6.972h1.498v9.8h-1.022v-8.526zm9.066.826c-.728 0-1.325-.191-1.792-.574-.457-.392-.686-.896-.686-1.512 0-.607.234-1.097.7-1.47.476-.373 1.097-.56 1.862-.56.392 0 .761.047 1.106.14.355.084.682.215.98.392v-.938c0-.56-.149-.98-.448-1.26-.298-.289-.737-.434-1.316-.434a3.67 3.67 0 0 0 -.98.14c-.326.093-.69.243-1.092.448l-.378-.784c.467-.224.91-.387 1.33-.49.42-.112.836-.168 1.246-.168.84 0 1.489.21 1.946.63.467.411.7 1.003.7 1.778v4.536h-1.008v-.798c-.298.308-.63.541-.994.7a3.074 3.074 0 0 1 -1.176.224zm-1.498-2.114c0 .401.159.723.476.966.318.243.728.364 1.232.364.383 0 .733-.065 1.05-.196.327-.131.63-.327.91-.588v-1.316a3.358 3.358 0 0 0 -.896-.364 3.936 3.936 0 0 0 -1.036-.126c-.522 0-.942.117-1.26.35-.317.233-.476.537-.476.91zm7.961 3.08.448-1.106-2.632-6.818h1.134l2.072 5.614 2.198-5.614h1.134l-3.388 8.232c-.215.551-.472.938-.77 1.162-.29.233-.686.35-1.19.35-.094 0-.196-.009-.308-.028a1.656 1.656 0 0 1 -.35-.07v-.91c.14.028.247.042.322.042.084.009.163.014.238.014.261 0 .476-.07.644-.21.177-.131.326-.35.448-.658zm-309.83-154.237c0 .323-.073.623-.22.902a2.047 2.047 0 0 1 -.594.715 2.91 2.91 0 0 1 -.902.473c-.352.11-.737.165-1.155.165a4.282 4.282 0 0 1 -1.595-.297 3.6 3.6 0 0 1 -1.254-.858l.814-.759c.308.315.616.539.924.671.308.125.675.187 1.1.187.491 0 .891-.117 1.199-.352.315-.242.473-.55.473-.924 0-.337-.128-.612-.385-.825-.257-.22-.583-.33-.979-.33h-.957v-1.001h.858c.367 0 .66-.103.88-.308.227-.213.341-.495.341-.847 0-.345-.139-.634-.418-.869s-.627-.352-1.045-.352c-.381 0-.719.07-1.012.209-.286.132-.587.367-.902.704l-.814-.759a3.733 3.733 0 0 1 2.772-1.221c.381 0 .733.055 1.056.165s.598.26.825.451c.235.19.418.418.55.682s.198.55.198.858c0 .418-.139.788-.418 1.111a2.135 2.135 0 0 1 -1.078.649c.521.103.939.315 1.254.638.323.315.484.69.484 1.122zm6.774 0c0 .323-.073.623-.22.902a2.047 2.047 0 0 1 -.594.715 2.91 2.91 0 0 1 -.902.473c-.352.11-.737.165-1.155.165a4.282 4.282 0 0 1 -1.595-.297 3.6 3.6 0 0 1 -1.254-.858l.814-.759c.308.315.616.539.924.671.308.125.675.187 1.1.187.491 0 .891-.117 1.199-.352.315-.242.473-.55.473-.924 0-.337-.128-.612-.385-.825-.257-.22-.583-.33-.979-.33h-.957v-1.001h.858c.367 0 .66-.103.88-.308.227-.213.341-.495.341-.847 0-.345-.139-.634-.418-.869s-.627-.352-1.045-.352c-.381 0-.719.07-1.012.209-.286.132-.587.367-.902.704l-.814-.759a3.733 3.733 0 0 1 2.772-1.221c.381 0 .733.055 1.056.165s.598.26.825.451c.235.19.418.418.55.682s.198.55.198.858c0 .418-.139.788-.418 1.111a2.135 2.135 0 0 1 -1.078.649c.521.103.939.315 1.254.638.323.315.484.69.484 1.122zm4.463 2.255c-.47 0-.899-.095-1.287-.286a3.049 3.049 0 0 1 -1.001-.814 3.876 3.876 0 0 1 -.638-1.254 5.623 5.623 0 0 1 -.22-1.617c0-.58.077-1.115.231-1.606a3.87 3.87 0 0 1 .638-1.254 2.931 2.931 0 0 1 1.001-.803 2.768 2.768 0 0 1 1.276-.297c.469 0 .898.099 1.287.297.388.19.718.458.99.803.278.345.491.763.638 1.254.154.491.231 1.027.231 1.606 0 .587-.077 1.126-.231 1.617-.147.491-.36.909-.638 1.254a2.96 2.96 0 0 1 -.99.814 2.88 2.88 0 0 1 -1.287.286zm0-1.067c.594 0 1.067-.26 1.419-.781.352-.52.528-1.228.528-2.123 0-.88-.176-1.58-.528-2.101-.352-.528-.825-.792-1.419-.792s-1.067.264-1.419.792-.528 1.228-.528 2.101c0 .887.176 1.595.528 2.123.352.521.825.781 1.419.781zm6.832-6.743v7.7h-1.199v-6.446l-1.364.594v-1.067l1.804-.781z" fill="#000"/><path d="m180.633 111a4 4 0 0 1 4-4h19.438a4 4 0 0 1 4 4v122h-27.438z" fill="#21ac04"/><path d="m184.128 253v-9.8h6.692v.938h-5.614v3.514h3.836v.938h-3.836v4.41zm12.993-.784a4.303 4.303 0 0 1 -1.218.686 3.99 3.99 0 0 1 -1.344.224c-.476 0-.924-.089-1.344-.266a3.521 3.521 0 0 1 -1.078-.756 3.636 3.636 0 0 1 -.714-1.12 3.88 3.88 0 0 1 -.252-1.4c0-.495.079-.957.238-1.386.168-.439.396-.812.686-1.12.289-.317.63-.565 1.022-.742.392-.187.816-.28 1.274-.28.448 0 .863.089 1.246.266.382.177.714.42.994.728.28.299.499.663.658 1.092.158.42.238.873.238 1.358v.308h-5.362c.046.691.303 1.269.77 1.736a2.299 2.299 0 0 0 1.666.686c.354 0 .695-.061 1.022-.182.336-.131.62-.303.854-.518zm-2.744-5.278c-.56 0-1.041.201-1.442.602-.402.401-.649.915-.742 1.54h4.326c-.075-.616-.313-1.125-.714-1.526a1.9 1.9 0 0 0 -1.428-.616zm11.265 2.646c0 .495-.084.957-.252 1.386a3.394 3.394 0 0 1 -.672 1.12c-.29.308-.63.555-1.022.742a3.026 3.026 0 0 1 -1.26.266c-.43 0-.831-.084-1.204-.252a2.918 2.918 0 0 1 -.952-.742v.896h-1.008v-10.01l1.022-.21v4.326c.261-.317.578-.565.952-.742a2.74 2.74 0 0 1 1.246-.28c.438 0 .849.093 1.232.28.392.177.728.425 1.008.742.28.308.499.677.658 1.106.168.429.252.887.252 1.372zm-3.402-2.604c-.402 0-.775.084-1.12.252a2.105 2.105 0 0 0 -.826.686v3.346c.224.299.504.532.84.7.345.168.714.252 1.106.252.681 0 1.25-.247 1.708-.742.457-.504.686-1.129.686-1.876s-.229-1.367-.686-1.862a2.213 2.213 0 0 0 -1.708-.756zm372.701-222.698.176-3.982h4.686v1.034h-3.663l-.099 2.233c.256-.132.517-.227.781-.286a3.39 3.39 0 0 1 .825-.099c.762 0 1.378.216 1.848.649.476.425.715.986.715 1.683 0 .389-.074.744-.22 1.067-.14.315-.338.587-.594.814-.25.227-.554.407-.913.539a3.61 3.61 0 0 1 -1.188.187 4.072 4.072 0 0 1 -1.463-.264 3.898 3.898 0 0 1 -1.243-.781l.726-.825c.33.293.656.506.979.638.322.125.671.187 1.045.187.484 0 .876-.14 1.177-.418.308-.279.462-.642.462-1.089 0-.418-.158-.763-.473-1.034-.316-.271-.715-.407-1.199-.407-.257 0-.51.033-.759.099a4.003 4.003 0 0 0 -.77.308zm6.416 3.718v-.869l3.157-3.3c.271-.293.462-.546.572-.759.117-.22.176-.451.176-.693 0-.323-.136-.59-.407-.803-.264-.22-.598-.33-1.001-.33-.352 0-.682.073-.99.22-.301.147-.635.389-1.001.726l-.682-.825c.418-.389.85-.678 1.298-.869a3.49 3.49 0 0 1 1.408-.297c.748 0 1.356.198 1.826.594.476.389.715.891.715 1.507 0 .367-.081.708-.242 1.023-.162.315-.448.69-.858 1.122l-2.464 2.541 3.707-.022v1.034zm9.652.099c-.469 0-.902-.092-1.298-.275a3.043 3.043 0 0 1 -1.012-.77 3.56 3.56 0 0 1 -.649-1.188 4.775 4.775 0 0 1 -.231-1.518c0-.623.084-1.192.253-1.705.176-.513.418-.95.726-1.309.315-.36.693-.638 1.133-.836a3.491 3.491 0 0 1 1.474-.308c.367 0 .733.059 1.1.176.374.117.689.279.946.484l-.66.891a2.27 2.27 0 0 0 -.704-.352 2.452 2.452 0 0 0 -.781-.121c-.711 0-1.269.271-1.672.814-.403.535-.609 1.283-.616 2.244.271-.36.59-.634.957-.825a2.462 2.462 0 0 1 1.166-.297c.374 0 .719.059 1.034.176a2.4 2.4 0 0 1 .814.495c.227.205.403.455.528.748.132.286.198.601.198.946 0 .367-.07.704-.209 1.012a2.37 2.37 0 0 1 -.561.803c-.235.22-.521.396-.858.528-.33.125-.689.187-1.078.187zm-.055-3.938c-.367 0-.715.08-1.045.242a2.486 2.486 0 0 0 -.836.682c.095.594.312 1.074.649 1.441.345.36.759.539 1.243.539.447 0 .821-.14 1.122-.418.301-.279.451-.627.451-1.045s-.15-.763-.451-1.034c-.293-.271-.671-.407-1.133-.407zm9.262-3.861v4.763h.99v1.034h-.99v1.903h-1.199v-1.903h-4.136v-.979l3.971-4.818zm-4.048 4.763h2.849v-3.476z" fill="#000"/><path d="m573.91 37a4 4 0 0 1 4-4h19.438a4 4 0 0 1 4 4v196h-27.438z" fill="#21ac04"/><path d="m583.338 249.304c0 1.176-.326 2.114-.98 2.814-.653.691-1.53 1.036-2.632 1.036-.83 0-1.554-.219-2.17-.658-.606-.448-1.045-1.064-1.316-1.848l.98-.392c.234.625.56 1.101.98 1.428s.934.49 1.54.49c.756 0 1.363-.261 1.82-.784.467-.523.7-1.223.7-2.1v-6.09h1.078zm3.089-3.136v4.116c0 .607.163 1.087.49 1.442.326.355.77.532 1.33.532.373 0 .714-.089 1.022-.266s.564-.434.77-.77v-5.054h1.022v6.832h-1.022v-1.106c-.262.401-.574.705-.938.91a2.468 2.468 0 0 1 -1.232.308c-.728 0-1.326-.233-1.792-.7-.458-.476-.686-1.087-.686-1.834v-4.41zm6.73 6.832v-6.832h1.022v1.106c.262-.401.574-.705.938-.91a2.468 2.468 0 0 1 1.232-.308c.728 0 1.321.233 1.778.7.467.467.7 1.073.7 1.82v4.424h-1.022v-4.13c0-.597-.168-1.073-.504-1.428-.326-.355-.77-.532-1.33-.532-.373 0-.714.089-1.022.266a2.147 2.147 0 0 0 -.77.784v5.04zm-506.673-70.7v7.7h-1.198v-6.446l-1.365.594v-1.067l1.804-.781h.76zm4.697 7.81c-.47 0-.898-.095-1.287-.286a3.06 3.06 0 0 1 -1-.814 3.89 3.89 0 0 1 -.639-1.254 5.634 5.634 0 0 1 -.22-1.617c0-.579.077-1.115.231-1.606a3.89 3.89 0 0 1 .638-1.254 2.941 2.941 0 0 1 1.001-.803 2.77 2.77 0 0 1 1.276-.297c.47 0 .899.099 1.287.297.389.191.719.458.99.803.279.345.492.763.638 1.254.154.491.231 1.027.231 1.606 0 .587-.077 1.126-.23 1.617-.147.491-.36.909-.639 1.254a2.946 2.946 0 0 1 -.99.814 2.877 2.877 0 0 1 -1.287.286zm0-1.067c.594 0 1.067-.26 1.42-.781.351-.521.527-1.228.527-2.123 0-.88-.176-1.58-.528-2.101-.352-.528-.825-.792-1.419-.792s-1.067.264-1.419.792-.528 1.228-.528 2.101c0 .887.176 1.595.528 2.123.352.521.825.781 1.42.781zm7.612 1.067c-.469 0-.898-.095-1.287-.286a3.06 3.06 0 0 1 -1-.814 3.89 3.89 0 0 1 -.639-1.254 5.634 5.634 0 0 1 -.22-1.617c0-.579.077-1.115.231-1.606a3.89 3.89 0 0 1 .638-1.254 2.941 2.941 0 0 1 1.001-.803 2.77 2.77 0 0 1 1.276-.297c.47 0 .899.099 1.287.297.389.191.719.458.99.803.279.345.492.763.638 1.254.154.491.231 1.027.231 1.606 0 .587-.077 1.126-.231 1.617a3.601 3.601 0 0 1 -.638 1.254 2.94 2.94 0 0 1 -.99.814 2.875 2.875 0 0 1 -1.287.286zm0-1.067c.594 0 1.067-.26 1.419-.781s.528-1.228.528-2.123c0-.88-.176-1.58-.528-2.101-.352-.528-.825-.792-1.419-.792s-1.067.264-1.419.792-.528 1.228-.528 2.101c0 .887.176 1.595.528 2.123.352.521.825.781 1.42.781zm7.612 1.067a2.88 2.88 0 0 1 -1.287-.286 3.07 3.07 0 0 1 -1.001-.814 3.896 3.896 0 0 1 -.638-1.254 5.655 5.655 0 0 1 -.22-1.617c0-.579.077-1.115.231-1.606s.367-.909.638-1.254a2.95 2.95 0 0 1 1.001-.803 2.771 2.771 0 0 1 1.276-.297c.47 0 .899.099 1.287.297.389.191.719.458.99.803.279.345.492.763.638 1.254.154.491.231 1.027.231 1.606 0 .587-.077 1.126-.231 1.617a3.601 3.601 0 0 1 -.638 1.254 2.94 2.94 0 0 1 -.99.814 2.874 2.874 0 0 1 -1.287.286zm0-1.067c.594 0 1.067-.26 1.419-.781s.528-1.228.528-2.123c0-.88-.176-1.58-.528-2.101-.352-.528-.825-.792-1.419-.792s-1.067.264-1.419.792-.528 1.228-.528 2.101c0 .887.176 1.595.528 2.123.352.521.825.781 1.419.781z" fill="#000"/><path d="m82.313 199a4 4 0 0 1 4-4h19.437a4 4 0 0 1 4 4v34h-27.438v-34z" fill="#21ac04"/><path d="m91.918 249.304c0 1.176-.326 2.114-.98 2.814-.653.691-1.53 1.036-2.632 1.036-.83 0-1.554-.219-2.17-.658-.606-.448-1.045-1.064-1.316-1.848l.98-.392c.234.625.56 1.101.98 1.428s.934.49 1.54.49c.756 0 1.363-.261 1.82-.784.467-.523.7-1.223.7-2.1v-6.09h1.078zm4.209 3.822c-.728 0-1.325-.191-1.792-.574-.457-.392-.686-.896-.686-1.512 0-.607.233-1.097.7-1.47.476-.373 1.097-.56 1.862-.56.392 0 .76.047 1.106.14.355.084.681.215.98.392v-.938c0-.56-.15-.98-.448-1.26-.299-.289-.737-.434-1.316-.434-.317 0-.644.047-.98.14a6.15 6.15 0 0 0 -1.092.448l-.378-.784a6.88 6.88 0 0 1 1.33-.49 4.82 4.82 0 0 1 1.246-.168c.84 0 1.489.21 1.946.63.467.411.7 1.003.7 1.778v4.536h-1.008v-.798a3.12 3.12 0 0 1 -.994.7 3.074 3.074 0 0 1 -1.176.224zm-1.498-2.114c0 .401.159.723.476.966s.728.364 1.232.364c.383 0 .733-.065 1.05-.196.327-.131.63-.327.91-.588v-1.316a3.362 3.362 0 0 0 -.896-.364 3.938 3.938 0 0 0 -1.036-.126c-.523 0-.943.117-1.26.35s-.476.537-.476.91zm6.753 1.988v-6.832h1.022v1.106c.261-.401.574-.705.938-.91a2.468 2.468 0 0 1 1.232-.308c.728 0 1.321.233 1.778.7.467.467.7 1.073.7 1.82v4.424h-1.022v-4.13c0-.597-.168-1.073-.504-1.428-.327-.355-.77-.532-1.33-.532-.373 0-.714.089-1.022.266a2.139 2.139 0 0 0 -.77.784v5.04zm676.789-55.879c-.418 0-.803-.055-1.155-.165a2.884 2.884 0 0 1 -.913-.462 2.093 2.093 0 0 1 -.583-.715 1.98 1.98 0 0 1 -.209-.902c0-.44.154-.832.462-1.177a2.392 2.392 0 0 1 1.199-.704 2.251 2.251 0 0 1 -1.023-.671 1.586 1.586 0 0 1 -.385-1.045c0-.301.066-.579.198-.836a2.02 2.02 0 0 1 .539-.66c.234-.191.509-.337.825-.44.322-.11.667-.165 1.034-.165.366 0 .711.055 1.034.165.322.103.597.249.825.44.234.183.418.403.55.66s.198.535.198.836c0 .389-.132.737-.396 1.045a2.187 2.187 0 0 1 -1.001.671c.484.125.88.359 1.188.704.315.345.473.737.473 1.177 0 .323-.074.623-.22.902-.14.279-.334.517-.583.715-.25.198-.55.352-.902.462s-.737.165-1.155.165zm0-4.576c.396 0 .729-.114 1.001-.341.278-.227.418-.51.418-.847s-.14-.62-.418-.847c-.272-.235-.605-.352-1.001-.352-.404 0-.745.117-1.023.352a1.06 1.06 0 0 0 -.407.847c0 .337.139.62.418.847a1.55 1.55 0 0 0 1.012.341zm0 3.575c.469 0 .861-.128 1.177-.385.315-.257.473-.572.473-.946s-.158-.686-.473-.935c-.316-.249-.708-.374-1.177-.374-.477 0-.873.125-1.188.374-.316.249-.473.561-.473.935s.157.689.473.946c.315.257.711.385 1.188.385zm4.25-2.838.176-3.982h4.686v1.034h-3.663l-.099 2.233c.257-.132.517-.227.781-.286a3.39 3.39 0 0 1 .825-.099c.763 0 1.379.216 1.848.649.477.425.715.986.715 1.683 0 .389-.073.744-.22 1.067a2.327 2.327 0 0 1 -.594.814 2.733 2.733 0 0 1 -.913.539 3.593 3.593 0 0 1 -1.188.187 4.076 4.076 0 0 1 -1.463-.264 3.903 3.903 0 0 1 -1.243-.781l.726-.825a3.5 3.5 0 0 0 .979.638c.323.125.671.187 1.045.187.484 0 .877-.139 1.177-.418.308-.279.462-.642.462-1.089 0-.418-.157-.763-.473-1.034-.315-.271-.715-.407-1.199-.407-.256 0-.509.033-.759.099a4.048 4.048 0 0 0 -.77.308zm9.713 3.817c-.469 0-.902-.092-1.298-.275a3.049 3.049 0 0 1 -1.012-.77 3.578 3.578 0 0 1 -.649-1.188 4.775 4.775 0 0 1 -.231-1.518c0-.623.085-1.192.253-1.705.176-.513.418-.95.726-1.309a3.29 3.29 0 0 1 1.133-.836 3.5 3.5 0 0 1 1.474-.308c.367 0 .734.059 1.1.176.374.117.69.279.946.484l-.66.891a2.259 2.259 0 0 0 -.704-.352 2.444 2.444 0 0 0 -.781-.121c-.711 0-1.268.271-1.672.814-.403.535-.608 1.283-.616 2.244.272-.359.591-.634.957-.825a2.462 2.462 0 0 1 1.166-.297c.374 0 .719.059 1.034.176.316.117.587.282.814.495.228.205.404.455.528.748.132.286.198.601.198.946 0 .367-.069.704-.209 1.012a2.368 2.368 0 0 1 -.561.803c-.234.22-.52.396-.858.528-.33.125-.689.187-1.078.187zm-.055-3.938c-.366 0-.715.081-1.045.242a2.496 2.496 0 0 0 -.836.682c.096.594.312 1.074.649 1.441.345.359.759.539 1.243.539.448 0 .822-.139 1.122-.418.301-.279.451-.627.451-1.045s-.15-.763-.451-1.034c-.293-.271-.671-.407-1.133-.407z" fill="#000"/><path d="m770.547 206a4 4 0 0 1 4-4h19.438a4 4 0 0 1 4 4v27h-27.438z" fill="#21ac04"/><path d="m772.718 253 3.878-9.8h1.288l3.822 9.8h-1.162l-1.162-3.08h-4.368l-1.162 3.08zm2.632-3.934h3.71l-1.862-4.9zm8.323-2.898v4.116c0 .607.163 1.087.49 1.442s.77.532 1.33.532c.373 0 .714-.089 1.022-.266s.565-.434.77-.77v-5.054h1.022v6.832h-1.022v-1.106a2.717 2.717 0 0 1 -.938.91 2.468 2.468 0 0 1 -1.232.308c-.728 0-1.325-.233-1.792-.7-.457-.476-.686-1.087-.686-1.834v-4.41zm9.573 6.916c-.439 0-.854-.089-1.246-.266a3.264 3.264 0 0 1 -.994-.742 3.728 3.728 0 0 1 -.672-1.12 3.919 3.919 0 0 1 -.238-1.372c0-.485.079-.943.238-1.372.168-.429.396-.798.686-1.106.289-.317.63-.565 1.022-.742.392-.187.812-.28 1.26-.28.429 0 .826.084 1.19.252.364.159.681.397.952.714v-.882h1.008v7.182c0 .84-.252 1.489-.756 1.946-.495.457-1.204.686-2.128.686-.458 0-.92-.065-1.386-.196a5.264 5.264 0 0 1 -1.274-.518l.434-.784c.42.215.802.373 1.148.476.345.103.69.154 1.036.154.616 0 1.087-.149 1.414-.448.326-.299.49-.733.49-1.302v-1.288a2.676 2.676 0 0 1 -.952.756 2.97 2.97 0 0 1 -1.232.252zm-2.142-3.5c0 .747.228 1.372.686 1.876a2.228 2.228 0 0 0 1.708.742c.401 0 .77-.079 1.106-.238.336-.168.611-.397.826-.686v-3.374a2.257 2.257 0 0 0 -.854-.672 2.38 2.38 0 0 0 -1.078-.252c-.682 0-1.251.247-1.708.742-.458.495-.686 1.115-.686 1.862zm-112.794-191.284v4.763h.99v1.034h-.99v1.903h-1.199v-1.903h-4.136v-.979l3.971-4.818zm-4.048 4.763h2.849v-3.476zm6.07 2.937v-.869l3.157-3.3c.271-.293.462-.546.572-.759.117-.22.176-.451.176-.693 0-.323-.136-.59-.407-.803-.264-.22-.598-.33-1.001-.33-.352 0-.682.073-.99.22-.301.147-.634.389-1.001.726l-.682-.825a4.528 4.528 0 0 1 1.298-.869 3.493 3.493 0 0 1 1.408-.297c.748 0 1.357.198 1.826.594.477.389.715.891.715 1.507 0 .367-.081.708-.242 1.023s-.447.69-.858 1.122l-2.464 2.541 3.707-.022v1.034zm9.62.11c-.47 0-.899-.095-1.287-.286a3.052 3.052 0 0 1 -1.001-.814 3.87 3.87 0 0 1 -.638-1.254 5.623 5.623 0 0 1 -.22-1.617c0-.58.077-1.115.231-1.606a3.87 3.87 0 0 1 .638-1.254 2.931 2.931 0 0 1 1.001-.803 2.768 2.768 0 0 1 1.276-.297c.469 0 .898.099 1.287.297.388.19.718.458.99.803.278.345.491.763.638 1.254.154.491.231 1.027.231 1.606 0 .587-.077 1.126-.231 1.617a3.63 3.63 0 0 1 -.638 1.254 2.963 2.963 0 0 1 -.99.814c-.389.19-.818.286-1.287.286zm0-1.067c.594 0 1.067-.26 1.419-.781.352-.52.528-1.228.528-2.123 0-.88-.176-1.58-.528-2.101-.352-.528-.825-.792-1.419-.792s-1.067.264-1.419.792-.528 1.228-.528 2.101c0 .887.176 1.595.528 2.123.352.52.825.781 1.419.781zm4.262.957v-.869l3.157-3.3c.271-.293.462-.546.572-.759.117-.22.176-.451.176-.693 0-.323-.136-.59-.407-.803-.264-.22-.598-.33-1.001-.33-.352 0-.682.073-.99.22-.301.147-.635.389-1.001.726l-.682-.825c.418-.389.85-.678 1.298-.869a3.49 3.49 0 0 1 1.408-.297c.748 0 1.356.198 1.826.594.476.389.715.891.715 1.507 0 .367-.081.708-.242 1.023-.162.315-.448.69-.858 1.122l-2.464 2.541 3.707-.022v1.034z" fill="#000"/><path d="m672.23 75a4 4 0 0 1 4-4h19.438a4 4 0 0 1 4 4v158h-27.438z" fill="#21ac04"/><path d="m683.962 249.304c0 1.176-.326 2.114-.98 2.814-.653.691-1.53 1.036-2.632 1.036-.83 0-1.554-.219-2.17-.658-.606-.448-1.045-1.064-1.316-1.848l.98-.392c.234.625.56 1.101.98 1.428s.934.49 1.54.49c.756 0 1.363-.261 1.82-.784.467-.523.7-1.223.7-2.1v-6.09h1.078zm3.089-3.136v4.116c0 .607.163 1.087.49 1.442s.77.532 1.33.532c.373 0 .714-.089 1.022-.266s.565-.434.77-.77v-5.054h1.022v6.832h-1.022v-1.106a2.717 2.717 0 0 1 -.938.91 2.468 2.468 0 0 1 -1.232.308c-.728 0-1.325-.233-1.792-.7-.457-.476-.686-1.087-.686-1.834v-4.41zm7.752-3.388v10.22h-1.022v-10.01z" fill="#000"/></svg>