<svg width="387" height="247" fill="none" xmlns="http://www.w3.org/2000/svg"><path d="M2.176 13V3.2h1.68v4.48L8.112 3.2h2.044L5.508 7.918 10.338 13H8.112L3.856 8.394V13h-1.68zM20.93 8.1c0 .7-.13 1.363-.392 1.988a4.956 4.956 0 0 1-1.05 1.61 4.855 4.855 0 0 1-1.568 1.064 4.866 4.866 0 0 1-1.946.392c-.69 0-1.34-.13-1.946-.392a5.022 5.022 0 0 1-1.582-1.064 5.281 5.281 0 0 1-1.05-1.61 5.268 5.268 0 0 1-.378-1.988c0-.7.126-1.358.378-1.974a5.065 5.065 0 0 1 1.05-1.61 4.908 4.908 0 0 1 3.528-1.47 4.866 4.866 0 0 1 3.514 1.47c.448.448.798.985 1.05 1.61A5 5 0 0 1 20.93 8.1zm-1.722 0c0-.504-.084-.97-.252-1.4a3.352 3.352 0 0 0-.672-1.134 3.095 3.095 0 0 0-1.022-.742 2.925 2.925 0 0 0-1.274-.28c-.457 0-.886.093-1.288.28a3.096 3.096 0 0 0-1.022.742c-.29.317-.518.695-.686 1.134-.168.43-.252.896-.252 1.4 0 .504.084.975.252 1.414.168.43.397.803.686 1.12.29.308.63.555 1.022.742.402.177.83.266 1.288.266.458 0 .882-.089 1.274-.266a3.384 3.384 0 0 0 1.022-.742c.29-.317.514-.69.672-1.12a3.92 3.92 0 0 0 .252-1.414zm9.446 4.2l-3.486-6.986V13h-1.554V3.2h2.184l2.87 5.936L31.524 3.2h2.184V13h-1.582V5.356L28.654 12.3zm13.255 0l-3.486-6.986V13h-1.554V3.2h2.184l2.87 5.936L44.779 3.2h2.184V13h-1.582V5.356L41.909 12.3zm8.215.7V3.2h7.014v1.428h-5.334v2.73h3.724v1.4h-3.724v2.814h5.39V13h-7.07zm9.769-9.8h1.638l5.11 7.112-.028-7.112h1.582V13h-1.498l-5.25-7.308.028 7.308h-1.582V3.2zm10.624 1.456V3.2h8.232v1.456h-3.262V13h-1.68V4.656h-3.29zM78.393 13l3.85-9.8h1.946l3.794 9.8h-1.806l-.994-2.744h-4.032L80.143 13h-1.75zm3.248-4.06h3.052l-1.512-4.172-1.54 4.172zM90.047 13V3.2H94.4c.961 0 1.745.275 2.352.826.616.55.924 1.265.924 2.142 0 .635-.178 1.19-.532 1.666a2.836 2.836 0 0 1-1.4 1.022L97.803 13H95.94l-1.89-3.92h-2.324V13h-1.68zm4.214-8.386h-2.534v3.122h2.534c.513 0 .928-.14 1.246-.42.317-.29.476-.667.476-1.134 0-.467-.159-.845-.476-1.134-.318-.29-.733-.434-1.246-.434zM100.253 13V3.2h7.014v1.428h-5.334v2.73h3.724v1.4h-3.724v2.814h5.39V13h-7.07zm9.769 0V3.2h4.354c.961 0 1.745.275 2.352.826.616.55.924 1.265.924 2.142 0 .635-.178 1.19-.532 1.666a2.839 2.839 0 0 1-1.4 1.022L117.778 13h-1.862l-1.89-3.92h-2.324V13h-1.68zm4.214-8.386h-2.534v3.122h2.534c.513 0 .928-.14 1.246-.42.317-.29.476-.667.476-1.134 0-.467-.159-.845-.476-1.134-.318-.29-.733-.434-1.246-.434zm9.726 4.956c0-1.428.29-2.702.868-3.822a6.814 6.814 0 0 1 2.52-2.702l.84 1.008a5.73 5.73 0 0 0-2.072 2.296c-.485.952-.728 2.025-.728 3.22 0 1.204.243 2.282.728 3.234a5.752 5.752 0 0 0 2.072 2.282l-.84 1.022a6.815 6.815 0 0 1-2.52-2.702c-.578-1.13-.868-2.408-.868-3.836zm10.349 3.57a3.67 3.67 0 0 1-1.638-.364 3.908 3.908 0 0 1-1.274-1.036c-.345-.439-.616-.97-.812-1.596a7.195 7.195 0 0 1-.28-2.058c0-.737.098-1.419.294-2.044.196-.625.467-1.157.812-1.596a3.74 3.74 0 0 1 1.274-1.022 3.526 3.526 0 0 1 1.624-.378c.598 0 1.144.126 1.638.378.495.243.915.583 1.26 1.022.355.439.626.97.812 1.596.196.625.294 1.307.294 2.044a6.85 6.85 0 0 1-.294 2.058c-.186.625-.457 1.157-.812 1.596a3.749 3.749 0 0 1-1.26 1.036 3.664 3.664 0 0 1-1.638.364zm0-1.358c.756 0 1.358-.331 1.806-.994.448-.663.672-1.563.672-2.702 0-1.12-.224-2.011-.672-2.674-.448-.672-1.05-1.008-1.806-1.008s-1.358.336-1.806 1.008c-.448.672-.672 1.563-.672 2.674 0 1.13.224 2.03.672 2.702.448.663 1.05.994 1.806.994zm10.264-2.198c0 1.428-.294 2.702-.882 3.822a6.717 6.717 0 0 1-2.506 2.702l-.84-1.008a5.745 5.745 0 0 0 2.072-2.282c.485-.961.728-2.04.728-3.234 0-1.204-.243-2.282-.728-3.234a5.745 5.745 0 0 0-2.072-2.282l.84-1.022a6.717 6.717 0 0 1 2.506 2.702c.588 1.13.882 2.408.882 3.836z" fill="#000"/><path d="M230.862 86.431c0 20.673-16.758 37.431-37.431 37.431-20.672 0-37.431-16.758-37.431-37.43C156 65.757 172.759 49 193.431 49c20.673 0 37.431 16.758 37.431 37.431z" fill="#F4F4F4"/><path d="M175.186 71.385h37.13c2.328 0 4.561.956 6.208 2.656a9.224 9.224 0 0 1 2.571 6.413V99.21c0 .601-.231 1.178-.643 1.603a2.158 2.158 0 0 1-1.552.664h-34.934V80.454a9.22 9.22 0 0 0-2.572-6.413 8.638 8.638 0 0 0-6.208-2.656z" fill="#000"/><path d="M186.76 101.477h-18.566c-.704 0-1.378-.239-1.876-.664-.497-.425-.777-1.002-.777-1.603V80.454c0-2.405 1.118-4.712 3.108-6.413 1.989-1.7 4.688-2.656 7.502-2.656 2.813 0 5.512.956 7.501 2.656 1.99 1.701 3.108 4.008 3.108 6.413v21.023z" fill="#fff"/><path fill-rule="evenodd" clip-rule="evenodd" d="M212.754 83.107a.918.918 0 0 1-.918.918h-16.589a.918.918 0 0 1 0-1.835h16.589c.507 0 .918.41.918.917z" fill="#fff"/><path d="M205.78 82.232v6.561c0 .58.271 1.136.752 1.546.481.41 1.134.641 1.814.641h2.566c.681 0 1.333-.23 1.815-.64.481-.41.751-.967.751-1.547v-5.46a1.1 1.1 0 0 0-1.101-1.1h-6.597z" fill="#29D305"/><path fill-rule="evenodd" clip-rule="evenodd" d="M193.431 96.707c.811 0 1.468.657 1.468 1.467v29.358a1.468 1.468 0 1 1-2.936 0V98.174c0-.81.658-1.468 1.468-1.468z" fill="#000"/><path d="M130.58 161v-9.8h1.68v9.8h-1.68zm3.771 0v-7.014h1.582v1.148c.261-.411.579-.723.952-.938a2.555 2.555 0 0 1 1.274-.322c.709 0 1.288.238 1.736.714.457.467.686 1.064.686 1.792V161h-1.582v-4.172c0-.504-.14-.91-.42-1.218-.28-.308-.653-.462-1.12-.462-.317 0-.607.075-.868.224-.252.14-.471.345-.658.616V161h-1.582zm11.005.042c-.439 0-.854-.093-1.246-.28a3.28 3.28 0 0 1-1.022-.756 3.728 3.728 0 0 1-.672-1.12 4.076 4.076 0 0 1-.238-1.4c0-.495.084-.961.252-1.4.168-.439.396-.817.686-1.134a3.193 3.193 0 0 1 1.05-.742c.401-.187.83-.28 1.288-.28.401 0 .779.084 1.134.252.354.159.662.392.924.7v-.896h1.568v7.252c0 .896-.29 1.587-.868 2.072-.57.485-1.382.728-2.436.728a6.11 6.11 0 0 1-1.484-.182 5.627 5.627 0 0 1-1.33-.49l.56-1.176a5.68 5.68 0 0 0 1.134.448c.354.103.704.154 1.05.154.588 0 1.031-.135 1.33-.406.308-.261.462-.644.462-1.148v-1.19a2.525 2.525 0 0 1-.938.728 2.778 2.778 0 0 1-1.204.266zm-1.61-3.556c0 .635.2 1.167.602 1.596.401.429.896.644 1.484.644.336 0 .644-.065.924-.196a2.03 2.03 0 0 0 .742-.574v-2.94a2.178 2.178 0 0 0-.742-.546c-.29-.14-.598-.21-.924-.21-.598 0-1.097.21-1.498.63-.392.42-.588.952-.588 1.596zm13.319 2.618a4.63 4.63 0 0 1-1.316.784 4.085 4.085 0 0 1-1.47.252 3.529 3.529 0 0 1-2.534-1.05 3.659 3.659 0 0 1-.756-1.162 3.67 3.67 0 0 1-.28-1.428c0-.513.084-.989.252-1.428.177-.448.415-.831.714-1.148a3.359 3.359 0 0 1 1.092-.77c.42-.187.872-.28 1.358-.28.476 0 .914.093 1.316.28.41.177.76.425 1.05.742.298.317.532.7.7 1.148a4 4 0 0 1 .252 1.442v.392h-5.18c.074.551.308 1.008.7 1.372.401.364.868.546 1.4.546.326 0 .634-.056.924-.168.298-.121.546-.285.742-.49l1.036.966zm-2.954-4.942c-.467 0-.864.159-1.19.476-.327.317-.537.742-.63 1.274h3.654c-.094-.513-.308-.933-.644-1.26a1.62 1.62 0 0 0-1.19-.49zm4.945 5.838v-7.014h1.582v1.148c.262-.411.579-.723.952-.938a2.558 2.558 0 0 1 1.274-.322c.71 0 1.288.238 1.736.714.458.467.686 1.064.686 1.792V161h-1.582v-4.172c0-.504-.14-.91-.42-1.218-.28-.308-.653-.462-1.12-.462-.317 0-.606.075-.868.224-.252.14-.471.345-.658.616V161h-1.582zm11.293 0v-10.01l1.582-.266v6.258l2.912-2.996h1.806l-3.206 3.248 3.402 3.766h-2.03l-2.884-3.234V161h-1.582zm6.788-3.5c0-.513.088-.989.266-1.428a3.466 3.466 0 0 1 3.262-2.198 3.47 3.47 0 0 1 3.262 2.198c.177.439.266.915.266 1.428 0 .513-.094.994-.28 1.442a3.51 3.51 0 0 1-.742 1.162 3.405 3.405 0 0 1-1.12.756c-.43.187-.892.28-1.386.28a3.466 3.466 0 0 1-2.52-1.05 3.845 3.845 0 0 1-.742-1.148 3.87 3.87 0 0 1-.266-1.442zm3.528 2.268c.569 0 1.036-.215 1.4-.644.373-.429.56-.966.56-1.61 0-.663-.187-1.209-.56-1.638a1.78 1.78 0 0 0-1.4-.644c-.57 0-1.041.215-1.414.644-.364.429-.546.975-.546 1.638 0 .653.182 1.195.546 1.624.373.42.844.63 1.414.63zm5.161 1.232v-7.014h1.582v1.12c.261-.401.564-.705.91-.91a2.221 2.221 0 0 1 1.176-.322c.466 0 .882.126 1.246.378.364.243.634.569.812.98.261-.448.588-.784.98-1.008.401-.233.849-.35 1.344-.35.672 0 1.222.238 1.652.714.429.476.644 1.087.644 1.834V161h-1.582v-4.242c0-.485-.131-.873-.392-1.162-.252-.299-.593-.448-1.022-.448-.29 0-.551.07-.784.21-.234.14-.444.345-.63.616.009.075.014.149.014.224.009.075.014.149.014.224V161h-1.582v-4.242c0-.485-.131-.873-.392-1.162-.252-.299-.593-.448-1.022-.448-.28 0-.537.07-.77.21a1.834 1.834 0 0 0-.616.588V161h-1.582zm12.263 0v-7.014h1.582v1.12c.262-.401.565-.705.91-.91a2.226 2.226 0 0 1 1.176-.322c.467 0 .882.126 1.246.378.364.243.635.569.812.98.262-.448.588-.784.98-1.008.402-.233.85-.35 1.344-.35.672 0 1.223.238 1.652.714.43.476.644 1.087.644 1.834V161h-1.582v-4.242c0-.485-.13-.873-.392-1.162-.252-.299-.592-.448-1.022-.448-.289 0-.55.07-.784.21-.233.14-.443.345-.63.616.01.075.014.149.014.224.01.075.014.149.014.224V161h-1.582v-4.242c0-.485-.13-.873-.392-1.162-.252-.299-.592-.448-1.022-.448-.28 0-.536.07-.77.21a1.852 1.852 0 0 0-.616.588V161h-1.582zm18.298-.896a4.616 4.616 0 0 1-1.316.784 4.085 4.085 0 0 1-1.47.252 3.532 3.532 0 0 1-2.534-1.05 3.693 3.693 0 0 1-.756-1.162 3.67 3.67 0 0 1-.28-1.428c0-.513.084-.989.252-1.428.177-.448.415-.831.714-1.148a3.359 3.359 0 0 1 1.092-.77c.42-.187.873-.28 1.358-.28.476 0 .915.093 1.316.28.411.177.761.425 1.05.742.299.317.532.7.7 1.148a4 4 0 0 1 .252 1.442v.392h-5.18c.075.551.308 1.008.7 1.372.401.364.868.546 1.4.546.327 0 .635-.056.924-.168a2.1 2.1 0 0 0 .742-.49l1.036.966zm-2.954-4.942c-.467 0-.863.159-1.19.476-.327.317-.537.742-.63 1.274h3.654c-.093-.513-.308-.933-.644-1.26a1.619 1.619 0 0 0-1.19-.49zm4.945 5.838v-7.014h1.582v1.148c.262-.411.579-.723.952-.938a2.558 2.558 0 0 1 1.274-.322c.71 0 1.288.238 1.736.714.458.467.686 1.064.686 1.792V161h-1.582v-4.172c0-.504-.14-.91-.42-1.218-.28-.308-.653-.462-1.12-.462-.317 0-.606.075-.868.224-.252.14-.471.345-.658.616V161h-1.582zm8.812-1.848v-3.906h-1.414v-1.26h1.414v-1.932l1.582-.336v2.268h1.96v1.26h-1.96v3.556c0 .345.074.593.224.742.149.14.401.21.756.21.158 0 .303-.009.434-.028.14-.028.312-.075.518-.14v1.33a3.598 3.598 0 0 1-.686.14 4.493 4.493 0 0 1-.672.056c-.7 0-1.237-.163-1.61-.49-.364-.336-.546-.826-.546-1.47zm7.057 1.96c-.728 0-1.326-.196-1.792-.588-.458-.401-.686-.915-.686-1.54s.238-1.125.714-1.498c.485-.373 1.138-.56 1.96-.56.326 0 .644.037.952.112.308.065.62.173.938.322v-.77c0-.457-.136-.803-.406-1.036-.271-.243-.672-.364-1.204-.364-.29 0-.602.047-.938.14a6.219 6.219 0 0 0-1.106.406l-.56-1.148a7.803 7.803 0 0 1 1.498-.532 5.721 5.721 0 0 1 1.414-.182c.905 0 1.61.224 2.114.672.504.439.756 1.064.756 1.876V161h-1.568v-.714a3.192 3.192 0 0 1-.98.63 3.02 3.02 0 0 1-1.106.196zm-.994-2.156c0 .317.13.574.392.77.261.187.606.28 1.036.28a2.7 2.7 0 0 0 .882-.14 2.34 2.34 0 0 0 .77-.434v-1.148a3.005 3.005 0 0 0-.77-.252 4.081 4.081 0 0 0-.854-.084c-.448 0-.803.093-1.064.28a.833.833 0 0 0-.392.728zm6.563 2.044v-7.014h1.582v1.526c.187-.532.443-.938.77-1.218a1.73 1.73 0 0 1 1.162-.434c.131.009.247.023.35.042.103.019.215.051.336.098v1.386a1.701 1.701 0 0 0-.42-.126 2.426 2.426 0 0 0-.448-.042c-.373 0-.714.103-1.022.308-.308.205-.551.49-.728.854V161h-1.582zm11.188-.896a4.616 4.616 0 0 1-1.316.784 4.077 4.077 0 0 1-1.47.252 3.536 3.536 0 0 1-2.534-1.05 3.693 3.693 0 0 1-.756-1.162 3.688 3.688 0 0 1-.28-1.428c0-.513.084-.989.252-1.428a3.59 3.59 0 0 1 .714-1.148 3.359 3.359 0 0 1 1.092-.77c.42-.187.873-.28 1.358-.28.476 0 .915.093 1.316.28.411.177.761.425 1.05.742.299.317.532.7.7 1.148a4 4 0 0 1 .252 1.442v.392h-5.18c.075.551.308 1.008.7 1.372a2.02 2.02 0 0 0 1.4.546c.327 0 .635-.056.924-.168a2.1 2.1 0 0 0 .742-.49l1.036.966zm-2.954-4.942c-.466 0-.863.159-1.19.476-.326.317-.536.742-.63 1.274h3.654c-.093-.513-.308-.933-.644-1.26a1.617 1.617 0 0 0-1.19-.49zm4.946 5.838v-7.014h1.582v1.526c.186-.532.443-.938.77-1.218a1.73 1.73 0 0 1 1.162-.434c.13.009.247.023.35.042.102.019.214.051.336.098v1.386a1.728 1.728 0 0 0-.42-.126 2.434 2.434 0 0 0-.448-.042c-.374 0-.714.103-1.022.308-.308.205-.551.49-.728.854V161h-1.582z" fill="#000"/><path d="M0 203a4 4 0 0 1 4-4h379a4 4 0 0 1 4 4v40a4 4 0 0 1-4 4H4a4 4 0 0 1-4-4v-40z" fill="#fff"/><path d="M16.392 226.474l.658-.784c.588.551 1.139.943 1.652 1.176.523.233 1.101.35 1.736.35.756 0 1.381-.187 1.876-.56.495-.383.742-.854.742-1.414 0-.485-.168-.859-.504-1.12-.327-.261-.887-.462-1.68-.602l-1.582-.266c-.896-.159-1.554-.429-1.974-.812-.41-.392-.616-.915-.616-1.568 0-.821.313-1.493.938-2.016.625-.523 1.433-.784 2.422-.784a6.48 6.48 0 0 1 2.03.308 6.656 6.656 0 0 1 1.848.938l-.56.84a6.268 6.268 0 0 0-1.61-.868 4.897 4.897 0 0 0-1.694-.308c-.681 0-1.241.173-1.68.518-.439.336-.658.756-.658 1.26 0 .429.145.765.434 1.008.29.243.76.415 1.414.518l1.568.266c1.036.187 1.792.49 2.268.91.476.42.714.994.714 1.722 0 .42-.093.812-.28 1.176a2.792 2.792 0 0 1-.784.938 3.701 3.701 0 0 1-1.176.616 4.764 4.764 0 0 1-1.484.224c-.765 0-1.48-.135-2.142-.406-.653-.28-1.279-.7-1.876-1.26zm9.38 1.526v-10.01l1.023-.21v6.454l3.248-3.066h1.232l-3.472 3.248L31.429 228h-1.344l-3.29-3.262V228h-1.022zm6.85 0v-6.832h1.022v1.386c.178-.476.43-.845.756-1.106a1.778 1.778 0 0 1 1.148-.406c.122 0 .234.009.336.028.103.009.206.033.308.07v.924a2.144 2.144 0 0 0-.364-.084 1.768 1.768 0 0 0-1.456.322c-.308.243-.55.583-.728 1.022V228h-1.022zm5.44-8.512a.752.752 0 0 1-.532-.21.751.751 0 0 1-.21-.532c0-.196.07-.364.21-.504a.728.728 0 0 1 .532-.224c.196 0 .364.075.504.224.15.14.224.308.224.504 0 .205-.07.383-.21.532a.704.704 0 0 1-.518.21zm.504 1.68V228h-1.022v-6.832h1.022zM42.621 228l-2.8-6.832h1.106l2.212 5.558 2.184-5.558h1.092L43.601 228h-.98zm13.964-.784a4.303 4.303 0 0 1-1.218.686 3.99 3.99 0 0 1-1.344.224c-.476 0-.924-.089-1.344-.266a3.525 3.525 0 0 1-1.078-.756 3.647 3.647 0 0 1-.714-1.12 3.88 3.88 0 0 1-.252-1.4c0-.495.079-.957.238-1.386.168-.439.396-.812.686-1.12.289-.317.63-.565 1.022-.742a2.92 2.92 0 0 1 1.274-.28c.448 0 .863.089 1.246.266a3.198 3.198 0 0 1 1.652 1.82c.158.42.238.873.238 1.358v.308h-5.362c.046.691.303 1.269.77 1.736a2.3 2.3 0 0 0 1.666.686 2.92 2.92 0 0 0 1.022-.182 2.68 2.68 0 0 0 .854-.518l.644.686zm-2.744-5.278c-.56 0-1.041.201-1.442.602-.402.401-.65.915-.742 1.54h4.326c-.075-.616-.313-1.125-.714-1.526a1.9 1.9 0 0 0-1.428-.616zM58.736 228v-6.832h1.022v1.106a2.72 2.72 0 0 1 .938-.91 2.467 2.467 0 0 1 1.232-.308c.728 0 1.32.233 1.778.7.466.467.7 1.073.7 1.82V228h-1.023v-4.13c0-.597-.168-1.073-.504-1.428-.326-.355-.77-.532-1.33-.532-.373 0-.713.089-1.021.266a2.142 2.142 0 0 0-.77.784V228h-1.023zm10.992 0v-10.01l1.022-.21v6.454l3.248-3.066h1.232l-3.472 3.248L75.384 228H74.04l-3.29-3.262V228h-1.022zm6.104-3.416c0-.504.084-.971.252-1.4a3.58 3.58 0 0 1 .686-1.12 3.17 3.17 0 0 1 1.064-.742 3.29 3.29 0 0 1 1.316-.266c.476 0 .914.089 1.316.266.41.177.765.425 1.064.742.299.317.532.691.7 1.12.168.429.252.896.252 1.4 0 .504-.089.975-.266 1.414a3.409 3.409 0 0 1-.7 1.134 3.31 3.31 0 0 1-1.05.742 3.29 3.29 0 0 1-1.316.266 3.29 3.29 0 0 1-1.316-.266 3.404 3.404 0 0 1-1.05-.756 3.797 3.797 0 0 1-.7-1.12 3.921 3.921 0 0 1-.252-1.414zm3.318 2.646c.662 0 1.213-.247 1.652-.742.448-.504.672-1.134.672-1.89s-.224-1.386-.672-1.89a2.098 2.098 0 0 0-1.652-.756c-.663 0-1.214.252-1.652.756-.439.504-.658 1.134-.658 1.89s.22 1.386.658 1.89c.438.495.99.742 1.652.742zm5.125.77v-6.832h1.022v1.064c.26-.392.56-.686.896-.882a2.209 2.209 0 0 1 1.134-.294c.476 0 .896.121 1.26.364.373.243.653.565.84.966.26-.439.583-.77.966-.994a2.556 2.556 0 0 1 1.316-.336c.68 0 1.236.238 1.666.714.438.467.658 1.073.658 1.82V228H93.01v-4.158c0-.588-.154-1.055-.462-1.4-.3-.355-.705-.532-1.218-.532-.355 0-.677.089-.966.266-.29.177-.537.448-.742.812a3.412 3.412 0 0 1 .056.602V228h-1.022v-4.158c0-.588-.154-1.055-.462-1.4-.308-.355-.72-.532-1.232-.532-.346 0-.658.084-.938.252-.28.168-.523.42-.728.756V228h-1.022zm11.826 0v-6.832h1.022v1.064c.261-.392.56-.686.896-.882a2.209 2.209 0 0 1 1.134-.294c.476 0 .896.121 1.26.364.373.243.653.565.84.966.261-.439.583-.77.966-.994a2.554 2.554 0 0 1 1.316-.336c.681 0 1.236.238 1.666.714.438.467.658 1.073.658 1.82V228h-1.022v-4.158c0-.588-.154-1.055-.462-1.4-.299-.355-.705-.532-1.218-.532-.355 0-.677.089-.966.266-.29.177-.537.448-.742.812a3.15 3.15 0 0 1 .056.602V228h-1.022v-4.158c0-.588-.154-1.055-.462-1.4-.308-.355-.719-.532-1.232-.532-.346 0-.658.084-.938.252-.28.168-.523.42-.728.756V228H96.1zm17.468-.784a4.303 4.303 0 0 1-1.218.686 3.99 3.99 0 0 1-1.344.224c-.476 0-.924-.089-1.344-.266a3.521 3.521 0 0 1-1.078-.756 3.636 3.636 0 0 1-.714-1.12 3.88 3.88 0 0 1-.252-1.4c0-.495.079-.957.238-1.386a3.38 3.38 0 0 1 .686-1.12c.289-.317.63-.565 1.022-.742.392-.187.817-.28 1.274-.28.448 0 .863.089 1.246.266.383.177.714.42.994.728.28.299.499.663.658 1.092.159.42.238.873.238 1.358v.308h-5.362c.047.691.303 1.269.77 1.736a2.3 2.3 0 0 0 1.666.686 2.92 2.92 0 0 0 1.022-.182c.336-.131.621-.303.854-.518l.644.686zm-2.744-5.278c-.56 0-1.041.201-1.442.602-.401.401-.649.915-.742 1.54h4.326c-.075-.616-.313-1.125-.714-1.526a1.9 1.9 0 0 0-1.428-.616zM115.72 228v-6.832h1.022v1.106c.261-.401.574-.705.938-.91a2.468 2.468 0 0 1 1.232-.308c.728 0 1.321.233 1.778.7.467.467.7 1.073.7 1.82V228h-1.022v-4.13c0-.597-.168-1.073-.504-1.428-.327-.355-.77-.532-1.33-.532-.373 0-.714.089-1.022.266a2.139 2.139 0 0 0-.77.784V228h-1.022zm8.331-1.54v-4.452h-1.414v-.84h1.414v-1.876l1.022-.238v2.114h1.96v.84h-1.96v4.186c0 .364.075.625.224.784.159.159.416.238.77.238.178 0 .336-.014.476-.042.14-.028.304-.075.49-.14v.91a3.005 3.005 0 0 1-.588.14 4.45 4.45 0 0 1-.602.042c-.588 0-1.036-.14-1.344-.42-.298-.289-.448-.705-.448-1.246zm6.593 1.666c-.728 0-1.325-.191-1.792-.574-.457-.392-.686-.896-.686-1.512 0-.607.234-1.097.7-1.47.476-.373 1.097-.56 1.862-.56.392 0 .761.047 1.106.14.355.084.682.215.98.392v-.938c0-.56-.149-.98-.448-1.26-.298-.289-.737-.434-1.316-.434a3.67 3.67 0 0 0-.98.14c-.326.093-.69.243-1.092.448l-.378-.784c.467-.224.91-.387 1.33-.49.42-.112.836-.168 1.246-.168.84 0 1.489.21 1.946.63.467.411.7 1.003.7 1.778V228h-1.008v-.798c-.298.308-.63.541-.994.7a3.074 3.074 0 0 1-1.176.224zm-1.498-2.114c0 .401.159.723.476.966.318.243.728.364 1.232.364.383 0 .733-.065 1.05-.196.327-.131.63-.327.91-.588v-1.316a3.358 3.358 0 0 0-.896-.364 3.936 3.936 0 0 0-1.036-.126c-.522 0-.942.117-1.26.35-.317.233-.476.537-.476.91zM135.9 228v-6.832h1.022v1.386c.177-.476.429-.845.756-1.106a1.777 1.777 0 0 1 1.148-.406c.121 0 .233.009.336.028.102.009.205.033.308.07v.924a2.157 2.157 0 0 0-.364-.084 1.767 1.767 0 0 0-1.456.322c-.308.243-.551.583-.728 1.022V228H135.9zm4.359-1.414c.196 0 .364.075.504.224a.728.728 0 0 1 .224.532.743.743 0 0 1-.224.546.668.668 0 0 1-.504.224.726.726 0 0 1-.532-.224.768.768 0 0 1-.21-.546c0-.205.07-.383.21-.532a.726.726 0 0 1 .532-.224zm3.076 0c.196 0 .364.075.504.224a.728.728 0 0 1 .224.532.743.743 0 0 1-.224.546.668.668 0 0 1-.504.224.728.728 0 0 1-.532-.224.768.768 0 0 1-.21-.546c0-.205.07-.383.21-.532a.728.728 0 0 1 .532-.224z" fill="#676767"/><path fill-rule="evenodd" clip-rule="evenodd" d="M367.81 212.608a.728.728 0 0 0-.047.028L349.28 224.19a.909.909 0 0 0-.395 1.027.915.915 0 0 0 .879.662h7.968l10.078-13.271zm1.345.709l-10.111 13.314 4.871 6.503a.922.922 0 0 0 .418.31.922.922 0 0 0 .973-.227.92.92 0 0 0 .238-.463l3.6-19.173v-.001a.894.894 0 0 0 .011-.263zm-6.44 20.717l-1.501-2.003-2.586 1.763a2.411 2.411 0 0 1-2.487.139 2.41 2.41 0 0 1-1.286-2.133v-4.421h-5.091a2.416 2.416 0 0 1-1.28-4.461l18.483-11.554a2.418 2.418 0 0 1 2.642.054 2.411 2.411 0 0 1 1.009 2.441v.001l-3.6 19.171a2.418 2.418 0 0 1-1.825 1.905 2.417 2.417 0 0 1-2.478-.902zm-6.36-6.655v4.421a.909.909 0 0 0 .486.807.913.913 0 0 0 .941-.053l2.531-1.724-2.583-3.451h-1.375z" fill="#000"/><path d="M4 200h379v-2H4v2zm382 3v40h2v-40h-2zm-3 43H4v2h379v-2zM1 243v-40h-2v40h2zm3 3a3 3 0 0 1-3-3h-2a5 5 0 0 0 5 5v-2zm382-3a3 3 0 0 1-3 3v2a5 5 0 0 0 5-5h-2zm-3-43a3 3 0 0 1 3 3h2a5 5 0 0 0-5-5v2zM4 198a5 5 0 0 0-5 5h2a3 3 0 0 1 3-3v-2z" fill="#000"/></svg>