<svg width="24" height="24" viewBox="0 0 24 24" fill="none" xmlns="http://www.w3.org/2000/svg">
<g clip-path="url(#clip0)">
<path fill-rule="evenodd" clip-rule="evenodd" d="M0.00878906 18.7528C0.00878906 19.9938 1.01779 21.0028 2.25879 21.0028H8.75C9.164 21.0028 9.5 20.6668 9.5 20.2528C9.5 19.8388 9.164 19.5028 8.75 19.5028H2.25879C1.84479 19.5028 1.50879 19.1668 1.50879 18.7528V6.00281H21.0088L21.0088 9.25C21.0088 9.664 21.3448 10 21.7588 10C22.1728 10 22.5088 9.664 22.5088 9.25L22.5088 2.25281C22.5088 1.01181 21.4998 0.00280762 20.2588 0.00280762H2.25879C1.01779 0.00280762 0.00878906 1.01181 0.00878906 2.25281V18.7528ZM21.0088 2.25281V4.50281H1.50879V2.25281C1.50879 1.83881 1.84479 1.50281 2.25879 1.50281H20.2588C20.6728 1.50281 21.0088 1.83881 21.0088 2.25281ZM10.5088 17.2529C10.5088 20.9749 13.5368 24.0029 17.2588 24.0029C20.9808 24.0029 24.0088 20.9749 24.0088 17.2529C24.0088 13.5309 20.9808 10.5029 17.2588 10.5029C13.5368 10.5029 10.5088 13.5309 10.5088 17.2529ZM12.0088 17.2529C12.0088 14.3579 14.3638 12.0029 17.2588 12.0029C20.1538 12.0029 22.5088 14.3579 22.5088 17.2529C22.5088 20.1479 20.1538 22.5029 17.2588 22.5029C14.3638 22.5029 12.0088 20.1479 12.0088 17.2529ZM17.2588 21.0029C16.8448 21.0029 16.5088 20.6669 16.5088 20.2529V18.0029H14.2588C13.8448 18.0029 13.5088 17.6669 13.5088 17.2529C13.5088 16.8389 13.8448 16.5029 14.2588 16.5029H16.5088V14.2529C16.5088 13.8389 16.8448 13.5029 17.2588 13.5029C17.6728 13.5029 18.0088 13.8389 18.0088 14.2529V16.5029H20.2588C20.6728 16.5029 21.0088 16.8389 21.0088 17.2529C21.0088 17.6669 20.6728 18.0029 20.2588 18.0029H18.0088V20.2529C18.0088 20.6669 17.6718 21.0029 17.2588 21.0029ZM5.86898 12.6531H8.14041V13.6265H4.89551V10.3816H7.16694V9.30001H4.89551V8.32654H8.14041V11.3551H5.86898V12.6531ZM9.65625 8.32654H12.9011V10.1284C12.3274 10.4714 11.8001 10.8842 11.3312 11.3551H9.65625V10.3816H11.9277V9.30001H9.65625V8.32654ZM10.2829 12.6531H9.65625V13.6265H9.74394C9.90134 13.2886 10.0817 12.9634 10.2829 12.6531ZM17 9C16.0964 9 15.2277 9.14982 14.4175 9.42598V8.32654H17.4461V9.01223C17.2984 9.00411 17.1497 9 17 9Z" fill="black"/>
</g>
<defs>
<clipPath id="clip0">
<rect width="24" height="24.0001" fill="white"/>
</clipPath>
</defs>
</svg>
