<svg width="24" height="24" viewBox="0 0 24 24" fill="none" xmlns="http://www.w3.org/2000/svg">
<path d="M24 12C24 18.617 18.617 24 12 24C5.383 24 0 18.617 0 12C0 5.383 5.383 0 12 0C18.617 0 24 5.383 24 12Z" fill="#29D305"/>
<path fill-rule="evenodd" clip-rule="evenodd" d="M14.1735 7.36603C14.6217 7.84033 14.6066 8.59394 14.1397 9.04927L11.114 12L14.1397 14.9507C14.6066 15.4061 14.6217 16.1597 14.1735 16.634C13.7253 17.1083 12.9835 17.1236 12.5166 16.6683L8.61031 12.8588C8.38012 12.6343 8.25 12.3242 8.25 12C8.25 11.6758 8.38012 11.3657 8.61031 11.1412L12.5166 7.33168C12.9835 6.87636 13.7253 6.89174 14.1735 7.36603Z" fill="black"/>
</svg>
