<svg width="24" height="24" viewBox="0 0 24 24" fill="none" xmlns="http://www.w3.org/2000/svg">
<path d="M12 24C5.383 24 0 18.617 0 12C0 5.383 5.383 0 12 0C18.617 0 24 5.383 24 12C24 18.617 18.617 24 12 24ZM12 1.5C6.21 1.5 1.5 6.21 1.5 12C1.5 17.79 6.21 22.5 12 22.5C17.79 22.5 22.5 17.79 22.5 12C22.5 6.21 17.79 1.5 12 1.5Z" fill="#29D305"/>
<path fill-rule="evenodd" clip-rule="evenodd" d="M9.2015 7.36601C8.75329 7.84031 8.76843 8.59392 9.23532 9.04925L12.261 12L9.23532 14.9507C8.76843 15.406 8.75329 16.1596 9.2015 16.6339C9.64971 17.1082 10.3915 17.1236 10.8584 16.6683L14.7647 12.8588C14.9949 12.6343 15.125 12.3241 15.125 12C15.125 11.6758 14.9949 11.3657 14.7647 11.1412L10.8584 7.33166C10.3915 6.87634 9.64971 6.89171 9.2015 7.36601Z" fill="black"/>
</svg>
