<svg width="24" height="24" viewBox="0 0 24 24" fill="none" xmlns="http://www.w3.org/2000/svg">
<g clip-path="url(#clip0)">
<path fill-rule="evenodd" clip-rule="evenodd" d="M13.4473 0.913582C12.856 0.322263 11.8973 0.322263 11.306 0.913582C10.7147 1.5049 10.7147 2.46362 11.306 3.05493L18.7303 10.4793L1.41419 10.4793C0.57794 10.4793 -0.0999756 11.1572 -0.0999756 11.9935C-0.0999756 12.8297 0.57794 13.5076 1.41419 13.5076H18.7303L11.306 20.932C10.7147 21.5233 10.7147 22.482 11.306 23.0733C11.8973 23.6647 12.856 23.6647 13.4473 23.0733L23.4565 13.0641C23.7521 12.7686 23.9 12.3797 23.9 11.9935C23.9 11.7896 23.8593 11.5933 23.7848 11.4136C23.7823 11.4077 23.7793 11.402 23.7757 11.3967L23.4729 10.942C23.4705 10.9384 23.4679 10.935 23.4651 10.9318C23.4639 10.9303 23.4625 10.9289 23.4612 10.9275L23.456 10.9222L13.4473 0.913582Z" fill="black"/>
</g>
<defs>
<clipPath id="clip0">
<rect width="24" height="24" fill="white"/>
</clipPath>
</defs>
</svg>
