<svg width="24" height="24" viewBox="0 0 24 24" fill="none" xmlns="http://www.w3.org/2000/svg">
<g clip-path="url(#clip0)">
<path fill-rule="evenodd" clip-rule="evenodd" d="M5.51386 23.7695C5.21812 23.4671 5.22357 22.9821 5.52603 22.6864L16.4553 12L5.52604 1.31362C5.22357 1.01788 5.21812 0.532929 5.51386 0.230462C5.80961 -0.0720035 6.29456 -0.0774527 6.59702 0.218291L17.5447 10.9227C17.6879 11.0625 17.8024 11.2295 17.8809 11.4145C17.9594 11.5996 18 11.7986 18 12C18 12.2014 17.9594 12.4004 17.8809 12.5855C17.8025 12.7704 17.6881 12.9372 17.5451 13.0769C17.545 13.077 17.5448 13.0772 17.5447 13.0773L6.59702 23.7817C6.29456 24.0775 5.80961 24.072 5.51386 23.7695Z" fill="black"/>
</g>
<defs>
<clipPath id="clip0">
<rect width="24" height="24" fill="white"/>
</clipPath>
</defs>
</svg>
