<svg width="24" height="24" viewBox="0 0 24 24" fill="none" xmlns="http://www.w3.org/2000/svg">
<path d="M12 24C5.383 24 0 18.617 0 12C0 5.383 5.383 0 12 0C18.617 0 24 5.383 24 12C24 18.617 18.617 24 12 24ZM12 1.5C6.21 1.5 1.5 6.21 1.5 12C1.5 17.79 6.21 22.5 12 22.5C17.79 22.5 22.5 17.79 22.5 12C22.5 6.21 17.79 1.5 12 1.5Z" fill="#29D305"/>
<path fill-rule="evenodd" clip-rule="evenodd" d="M9.8265 7.36603C9.37829 7.84033 9.39343 8.59394 9.86032 9.04927L12.886 12L9.86032 14.9507C9.39343 15.4061 9.37829 16.1597 9.8265 16.634C10.2747 17.1083 11.0165 17.1236 11.4834 16.6683L15.3897 12.8588C15.6199 12.6343 15.75 12.3242 15.75 12C15.75 11.6758 15.6199 11.3657 15.3897 11.1412L11.4834 7.33168C11.0165 6.87636 10.2747 6.89174 9.8265 7.36603Z" fill="black"/>
</svg>
