<svg width="24" height="24" viewBox="0 0 24 24" fill="none" xmlns="http://www.w3.org/2000/svg">
<path fill-rule="evenodd" clip-rule="evenodd" d="M15.7308 4.84411L4.1435 4.84388C2.80668 4.84385 1.72204 3.76002 1.72206 2.42189C1.72209 1.08377 2.80677 -2.59771e-05 4.14359 4.66985e-10L21.5782 0.000340506C22.1636 0.000351923 22.6993 0.207485 23.1181 0.553039C23.1779 0.602411 23.2353 0.654598 23.2901 0.709414C23.729 1.14818 23.9996 1.75309 23.9997 2.42223L24 19.8562C24 21.1943 22.9154 22.2782 21.5786 22.2782C20.2417 22.2782 19.1571 21.1944 19.157 19.8563L19.1568 8.26773L4.13354 23.2908C3.18794 24.2364 1.65504 24.2364 0.709443 23.2908C-0.236466 22.345 -0.236466 20.8112 0.709443 19.8653L15.7308 4.84411Z" fill="black"/>
</svg>
