<svg width="24" height="24" viewBox="0 0 24 24" fill="none" xmlns="http://www.w3.org/2000/svg">
<rect x="11.25" y="11.7366" width="4.99428" height="1.5" rx="0.75" transform="rotate(-90 11.25 11.7366)" fill="#29D305"/>
<path d="M9.75 24C6.855 24 4.5 21.645 4.5 18.75V7.5C4.5 3.365 7.865 0 12 0C16.135 0 19.5 3.365 19.5 7.5V15.749C19.5 16.163 19.164 16.499 18.75 16.499C18.336 16.499 18 16.163 18 15.749V7.5C18 4.192 15.308 1.5 12 1.5C8.692 1.5 6 4.192 6 7.5V18.75C6 20.818 7.682 22.5 9.75 22.5C11.818 22.5 13.5 20.818 13.5 18.75V7.5C13.5 6.673 12.827 6 12 6C11.173 6 10.5 6.673 10.5 7.5V17.25C10.5 17.664 10.164 18 9.75 18C9.336 18 9 17.664 9 17.25V7.5C9 5.846 10.346 4.5 12 4.5C13.654 4.5 15 5.846 15 7.5V18.75C15 21.645 12.645 24 9.75 24Z" fill="black"/>
</svg>
