<svg width="24" height="24" viewBox="0 0 24 24" fill="none" xmlns="http://www.w3.org/2000/svg">
<path fill-rule="evenodd" clip-rule="evenodd" d="M5.66603 0.587292C5.57541 0.182382 5.17358 -0.0723724 4.76853 0.0182822C4.36347 0.108937 4.10857 0.510671 4.19919 0.915581L4.61954 2.79372C4.28529 2.97252 3.97414 3.19315 3.69384 3.45093C3.33561 3.78038 3.03369 4.16509 2.79917 4.5897L0.957768 4.06448C0.558682 3.95065 0.142881 4.18189 0.0290505 4.58098C-0.0847804 4.98006 0.146464 5.39586 0.54555 5.5097L2.30161 6.01058C2.26502 6.22499 2.24391 6.44227 2.23867 6.66074C2.22416 7.26603 2.33176 7.86804 2.55505 8.43087C2.68295 8.75325 2.84731 9.059 3.04438 9.34236L2.02694 10.2781C1.72142 10.5591 1.70162 11.0344 1.98273 11.3398C2.26383 11.6452 2.73939 11.665 3.04491 11.3841L4.06774 10.4434L6.4263 12.6992L5.2543 13.7778C4.94886 14.0589 4.92922 14.5342 5.21042 14.8396C5.49162 15.1449 5.96719 15.1645 6.27262 14.8834L7.51478 13.7403L9.41629 15.5589L8.91616 16.0195C7.5572 17.271 7.49719 19.3544 8.7859 20.5421L11.8663 23.2284C13.2279 24.4831 15.4604 24.166 16.5617 22.5613L17.0403 21.864L21.874 22.0402C22.1815 22.0681 22.4747 21.9048 22.6128 21.6287L23.9189 19.0856C24.1041 18.7151 23.954 18.2646 23.5835 18.0793L20.6979 16.5348L22.0293 14.595C22.7986 13.4741 22.7868 12.0265 21.9999 11.0001L20.6546 9.64696C19.5821 8.24795 17.4858 8.12749 16.1189 9.38633L16.001 9.4949L13.9176 7.47031L15.1076 6.3759C15.4131 6.09491 15.4329 5.61955 15.1518 5.31414C14.8707 5.00873 14.3952 4.98894 14.0897 5.26992L12.8379 6.42111L10.7005 4.34398L11.6515 3.46931C11.957 3.18833 11.9769 2.71296 11.6958 2.40755C11.4147 2.10215 10.9391 2.08235 10.6336 2.36334L9.62153 3.29409C9.35533 3.07411 9.06409 2.88487 8.7532 2.7306C8.21066 2.46137 7.61944 2.30413 7.0148 2.26826C6.69251 2.24914 6.36993 2.26471 6.05253 2.3142L5.66603 0.587292ZM19.8422 17.7816L18.0482 20.3955L21.5001 20.5L22.2418 19.0856L19.8422 17.7816ZM9.05279 4.83822C9.04269 4.82725 9.03299 4.81606 9.02367 4.80467C8.76226 4.50202 8.44305 4.25453 8.08471 4.0767C7.72302 3.89722 7.32887 3.79239 6.92578 3.76848C6.52269 3.74457 6.11891 3.80205 5.73853 3.93752C5.35815 4.07298 5.00897 4.28364 4.71181 4.55693C4.41465 4.83022 4.1756 5.16054 4.00893 5.52818C3.84225 5.89583 3.75137 6.29327 3.74169 6.6968C3.73202 7.10032 3.80375 7.50167 3.95261 7.87688C4.10035 8.24926 4.32105 8.58834 4.60171 8.8742L10.5101 14.5226L14.8822 10.5018L9.10881 4.89312C9.08941 4.87598 9.07071 4.85768 9.05279 4.83822ZM16.0396 16.4827C16.3332 16.1893 16.3332 15.7135 16.0396 15.42C15.746 15.1266 15.2701 15.1266 14.9765 15.42L12.2202 18.1753C11.9266 18.4687 11.9266 18.9445 12.2202 19.238C12.5137 19.5314 12.9897 19.5314 13.2833 19.238L16.0396 16.4827ZM17.1376 10.4916L9.93485 17.1248C9.25537 17.7505 9.22537 18.7922 9.86973 19.3861L12.9502 22.0724C13.6309 22.6998 14.7472 22.5412 15.2979 21.7389L20.7655 13.7725C21.1501 13.2121 21.1442 12.4883 20.7507 11.9751L19.4054 10.6219C18.8692 9.92242 17.8211 9.8622 17.1376 10.4916Z" fill="black"/>
</svg>
