<svg width="24" height="24" viewBox="0 0 24 24" fill="none" xmlns="http://www.w3.org/2000/svg">
<path fill-rule="evenodd" clip-rule="evenodd" d="M23.4676 0.2248C24.03 0.618459 24.1667 1.39345 23.773 1.9558L9.34582 22.5652C9.3455 22.5656 9.34517 22.5661 9.34485 22.5666C9.04208 23.0011 8.64048 23.3577 8.17306 23.6068C7.70514 23.8562 7.18465 23.9908 6.65449 23.9995C6.12433 24.0083 5.59968 23.891 5.12377 23.6572C4.64837 23.4236 4.2352 23.0806 3.91824 22.6563C3.9179 22.6558 3.91756 22.6554 3.91723 22.6549L0.248701 17.7642C-0.163196 17.2151 -0.0519514 16.436 0.497174 16.0241C1.0463 15.6122 1.82536 15.7234 2.23726 16.2726L5.90954 21.1683C5.99107 21.2776 6.09741 21.3659 6.21979 21.426C6.34217 21.4861 6.47708 21.5163 6.6134 21.5141C6.74973 21.5118 6.88357 21.4772 7.00389 21.4131C7.12422 21.3489 7.22758 21.2571 7.30546 21.1452L7.30742 21.1424L21.7366 0.530231C22.1303 -0.0321127 22.9053 -0.168859 23.4676 0.2248Z" fill="black"/>
</svg>
