<svg width="24" height="24" viewBox="0 0 24 24" fill="none" xmlns="http://www.w3.org/2000/svg">
<g clip-path="url(#clip0)">
<path d="M14.3 12.179C14.2767 12.1558 14.2583 12.1282 14.2456 12.0978C14.233 12.0674 14.2266 12.0349 14.2266 12.002C14.2266 11.9691 14.233 11.9365 14.2456 11.9062C14.2583 11.8758 14.2767 11.8482 14.3 11.825L23.563 2.56298C23.8443 2.28132 24.0021 1.89947 24.0018 1.50142C24.0016 1.10338 23.8432 0.721745 23.5615 0.440482C23.2798 0.15922 22.898 0.00136702 22.4999 0.00164832C22.1019 0.00192962 21.7203 0.160323 21.439 0.441982L12.177 9.69998C12.1538 9.72326 12.1262 9.74174 12.0958 9.75434C12.0654 9.76694 12.0329 9.77343 12 9.77343C11.9671 9.77343 11.9346 9.76694 11.9042 9.75434C11.8738 9.74174 11.8462 9.72326 11.823 9.69998L2.56101 0.441982C2.42174 0.30265 2.25639 0.192112 2.07441 0.116681C1.89242 0.0412497 1.69736 0.00240184 1.50036 0.00235541C1.1025 0.00226164 0.7209 0.16022 0.439505 0.441482C0.15811 0.722745 -2.82604e-05 1.10427 -0.000122029 1.50213C-0.000215797 1.89999 0.157743 2.28159 0.439005 2.56298L9.7 11.825C9.72329 11.8482 9.74176 11.8758 9.75436 11.9062C9.76696 11.9365 9.77345 11.9691 9.77345 12.002C9.77345 12.0349 9.76696 12.0674 9.75436 12.0978C9.74176 12.1282 9.72329 12.1558 9.7 12.179L0.439005 21.442C0.299738 21.5813 0.189279 21.7467 0.113933 21.9287C0.0385875 22.1108 -0.000168458 22.3058 -0.000122029 22.5028C-2.82604e-05 22.9007 0.15811 23.2822 0.439505 23.5635C0.578838 23.7027 0.744236 23.8132 0.926258 23.8886C1.10828 23.9639 1.30336 24.0027 1.50036 24.0026C1.89822 24.0025 2.27974 23.8444 2.56101 23.563L11.823 14.3C11.8462 14.2767 11.8738 14.2582 11.9042 14.2456C11.9346 14.233 11.9671 14.2265 12 14.2265C12.0329 14.2265 12.0654 14.233 12.0958 14.2456C12.1262 14.2582 12.1538 14.2767 12.177 14.3L21.439 23.563C21.7203 23.8444 22.1018 24.0025 22.4997 24.0026C22.8975 24.0027 23.2791 23.8447 23.5605 23.5635C23.8419 23.2822 24 22.9007 24.0001 22.5028C24.0002 22.105 23.8423 21.7234 23.561 21.442L14.3 12.179Z" fill="black"/>
</g>
<defs>
<clipPath id="clip0">
<path d="M0 0H24V24H0V0Z" fill="white"/>
</clipPath>
</defs>
</svg>
