<svg width="24" height="24" viewBox="0 0 24 24" fill="none" xmlns="http://www.w3.org/2000/svg">
<path fill-rule="evenodd" clip-rule="evenodd" d="M17.2881 17.0363C16.8814 17.0363 16.4746 16.7312 16.4746 16.3245C16.4746 15.9177 16.7797 15.5109 17.2881 15.5109H18.8136C18.8136 15.5109 22.3729 15.0024 22.3729 11.4431C22.3729 9.20581 20.5424 7.3753 18.3051 7.3753H18.1017C17.7966 7.3753 17.4915 7.17191 17.3898 6.96852C16.678 5.54479 15.4576 4.42615 13.9322 3.81598C12.4068 3.30751 10.7797 3.30751 9.35593 4.01937C7.32203 4.93462 6 6.96852 5.89831 9.10412C5.89831 9.30751 5.79661 9.5109 5.59322 9.71428C5.49153 9.81598 5.28814 9.91768 5.08475 9.81598C3.55932 9.5109 2.0339 10.5278 1.62712 12.0533C1.62712 12.155 1.60169 12.2567 1.57627 12.3584C1.55085 12.46 1.52542 12.5617 1.52542 12.6634C1.52542 13.477 1.72881 14.1889 2.23729 14.6973C3.15254 15.6126 4.67797 15.6126 4.67797 15.6126H6.61017C7.01695 15.6126 7.42373 15.9177 7.42373 16.4262C7.42373 16.8329 7.11864 17.138 6.61017 17.138H4.67797C4.57627 17.138 2.54237 17.138 1.22034 15.816C0.40678 15.0024 0 13.9855 0 12.7651C0 12.46 0 12.155 0.101695 11.8499C0.61017 9.61259 2.54237 8.29056 4.57627 8.29056C4.98305 5.84988 6.50847 3.71429 8.84746 2.69734C10.678 1.88378 12.7119 1.78208 14.6441 2.39225C16.3729 3.00242 17.7966 4.22276 18.7119 5.84988C21.661 5.95157 24 8.49395 24 11.4431C24 15.4092 20.7458 16.8329 18.9153 17.0363H17.2881ZM11.1865 13.2737L9.55943 14.9007C9.25435 15.2058 8.74587 15.2058 8.44079 14.9007C8.1357 14.5956 8.1357 14.0871 8.44079 13.7821L11.4916 10.7312C11.5933 10.6295 11.7967 10.5278 12.0001 10.5278C12.2035 10.5278 12.4069 10.5278 12.712 10.7312L15.7628 13.7821C16.0679 14.0871 16.0679 14.5956 15.7628 14.9007C15.4577 15.2058 14.9493 15.2058 14.6442 14.9007L12.8136 13.0701V21.816C12.8136 22.3244 12.5085 22.6295 12 22.6295C11.4915 22.6295 11.1865 22.2227 11.1865 21.816V13.2737Z" fill="black"/>
</svg>
