<svg width="24" height="24" viewBox="0 0 24 24" fill="none" xmlns="http://www.w3.org/2000/svg">
<path d="M0 12C0 18.617 5.383 24 12 24C18.617 24 24 18.617 24 12C24 5.383 18.617 0 12 0C5.383 0 0 5.383 0 12Z" fill="#29D305"/>
<path fill-rule="evenodd" clip-rule="evenodd" d="M11.1871 9.10648C11.2937 8.99977 11.4204 8.91509 11.5598 8.8573C11.6993 8.79943 11.8489 8.76965 12 8.76965C12.1511 8.76965 12.3007 8.79943 12.4402 8.8573C12.5796 8.91509 12.7062 8.99977 12.8129 9.10648L17.05 13.3432C17.3833 13.6764 17.3833 14.2167 17.0501 14.55C16.7168 14.8833 16.1765 14.8833 15.8432 14.5501L12 10.7072L8.15674 14.5501C7.82346 14.8833 7.28314 14.8833 6.9499 14.55C6.61666 14.2167 6.61669 13.6764 6.94996 13.3432L11.1871 9.10648Z" fill="black"/>
</svg>
