<svg width="24" height="24" viewBox="0 0 24 24" fill="none" xmlns="http://www.w3.org/2000/svg">
<g clip-path="url(#clip0)">
<path d="M23.6867 11.9398C23.6822 11.7901 23.6374 11.6444 23.5569 11.5174L17.6252 2.67704C17.3656 2.3136 17.1359 2.04839 16.7664 2.0091C16.5834 1.98631 16.3975 2.00647 16.2239 2.06794C16.0504 2.1294 15.8941 2.23041 15.7678 2.36271L11.9831 5.36843H11.9232H10.0858C9.67416 5.37421 9.28066 5.53607 8.98736 5.82027C8.75051 6.07645 8.56977 6.37783 8.45639 6.70565C8.34301 7.03348 8.2994 7.38074 8.32829 7.72585C8.32829 8.9635 8.32829 11.1736 8.32829 11.7531C8.32829 11.7792 8.31777 11.8042 8.29904 11.8226C8.28031 11.841 8.25491 11.8513 8.22843 11.8513H3.51506C3.29387 11.8697 3.07865 11.9314 2.882 12.0327C2.68535 12.134 2.51124 12.2728 2.36987 12.4412C2.2285 12.6095 2.12271 12.8039 2.05872 13.013C1.99472 13.222 1.97381 13.4416 1.99719 13.6587V16.468C2.00866 16.7702 2.05557 17.0702 2.137 17.3618C1.52024 17.5034 0.971556 17.8489 0.582607 18.3405C0.193658 18.8321 -0.0119975 19.4402 8.77306e-07 20.063V20.3872C-0.002661 21.0759 0.272231 21.7375 0.764477 22.2272C1.25672 22.7169 1.9262 22.9948 2.62631 23H15.4083C16.1084 22.9948 16.7779 22.7169 17.2702 22.2272C17.7624 21.7375 18.0373 21.0759 18.0346 20.3872V20.063C18.0404 19.4628 17.8493 18.8767 17.4894 18.3918C17.1296 17.9069 16.6204 17.5492 16.0374 17.3716C16.0242 17.3702 16.0116 17.3655 16.0007 17.358C15.9898 17.3505 15.9809 17.3404 15.975 17.3287C15.969 17.317 15.9661 17.304 15.9666 17.2909C15.967 17.2778 15.9708 17.2651 15.9775 17.2538C16.134 16.7989 16.1752 16.3134 16.0974 15.8393C15.8777 14.1695 15.2486 9.64126 14.939 7.49011C14.9273 7.46176 14.9273 7.43006 14.939 7.40171L15.9775 6.51767L20.1117 12.8827C20.1205 12.891 20.1274 12.9009 20.1322 12.9119C20.137 12.9228 20.1394 12.9346 20.1394 12.9466C20.1394 12.9585 20.137 12.9703 20.1322 12.9813C20.1274 12.9923 20.1205 13.0022 20.1117 13.0104L18.1145 14.4642C17.9703 14.5635 17.8588 14.7022 17.7941 14.8633C17.7293 15.0243 17.7141 15.2005 17.7502 15.37C17.7864 15.5395 17.8724 15.6948 17.9975 15.8167C18.1226 15.9385 18.2814 16.0215 18.4541 16.0554L22.9677 17.0966C23.0947 17.1273 23.2273 17.1272 23.3543 17.0965C23.4813 17.0657 23.5987 17.005 23.6967 16.9198C23.801 16.8345 23.8828 16.7256 23.935 16.6025C23.9872 16.4793 24.0082 16.3455 23.9963 16.2126L23.6867 11.9398ZM15.5681 3.93433L16.5667 3.16817L22.2687 11.4977L21.2102 12.2541L15.5681 3.93433ZM22.7181 12.5193L22.8978 15.8393C22.8985 15.8551 22.8954 15.8709 22.8886 15.8852C22.8819 15.8996 22.8717 15.9121 22.8589 15.9217C22.8462 15.9314 22.8313 15.9379 22.8154 15.9406C22.7996 15.9434 22.7833 15.9423 22.768 15.9375L19.4227 15.1517C19.4058 15.1437 19.3916 15.1311 19.3816 15.1155C19.3716 15.0999 19.3664 15.0818 19.3664 15.0633C19.3664 15.0449 19.3716 15.0268 19.3816 15.0112C19.3916 14.9955 19.4058 14.983 19.4227 14.9749L22.7181 12.5193ZM14.6993 17.0377C14.5107 17.199 14.2702 17.2895 14.0203 17.2931H3.6249C3.5346 17.2987 3.44545 17.2707 3.37525 17.2145C3.26295 16.9962 3.21783 16.7504 3.24544 16.5073V13.6587C3.24544 13.2363 3.44516 13.1578 3.555 13.1578H9.48666H9.63645V12.5291C9.63645 12.5291 9.63645 9.52339 9.63645 7.7455V7.53922C9.63645 6.98916 9.63645 6.89093 9.75628 6.77306C9.79641 6.72738 9.84776 6.69256 9.90545 6.67192C9.96313 6.65129 10.0252 6.64553 10.0858 6.65519H13.1415C13.232 6.65803 13.3195 6.68768 13.3926 6.74026C13.4656 6.79284 13.5208 6.8659 13.5509 6.94987C13.5509 6.94987 14.5495 13.8257 14.8291 16.0063C14.8727 16.1829 14.8764 16.3666 14.8402 16.5448C14.804 16.7229 14.7286 16.8912 14.6194 17.0377H14.6993ZM1.28819 20.063C1.28108 19.6921 1.41557 19.332 1.66514 19.0537C1.9147 18.7755 2.26121 18.5994 2.63629 18.5602H15.4183C15.7916 18.6017 16.1357 18.7788 16.3832 19.0568C16.6307 19.3348 16.7638 19.6936 16.7564 20.063V20.3872C16.7578 20.5613 16.7242 20.734 16.6576 20.8954C16.5911 21.0568 16.4929 21.2037 16.3687 21.3277C16.2444 21.4518 16.0965 21.5505 15.9335 21.6184C15.7704 21.6862 15.5954 21.7218 15.4183 21.7231H2.63629C2.27784 21.7205 1.93496 21.5786 1.68243 21.3283C1.42989 21.0781 1.28818 20.7398 1.28819 20.3872V20.063ZM15.3884 5.55506L14.5995 6.24264C14.3851 5.90865 14.09 5.63196 13.7407 5.43719L14.7393 4.61209L15.3884 5.55506Z" fill="black"/>
<path d="M5.25 21.4C5.94036 21.4 6.5 20.8404 6.5 20.15C6.5 19.4597 5.94036 18.9 5.25 18.9C4.55964 18.9 4 19.4597 4 20.15C4 20.8404 4.55964 21.4 5.25 21.4Z" fill="#29D305"/>
<path d="M12.25 21.4C12.9404 21.4 13.5 20.8404 13.5 20.15C13.5 19.4597 12.9404 18.9 12.25 18.9C11.5596 18.9 11 19.4597 11 20.15C11 20.8404 11.5596 21.4 12.25 21.4Z" fill="#29D305"/>
</g>
<defs>
<clipPath id="clip0">
<path d="M0 0H24V24H0V0Z" fill="white"/>
</clipPath>
</defs>
</svg>
