<svg width="24" height="24" viewBox="0 0 24 24" fill="none" xmlns="http://www.w3.org/2000/svg">
<g clip-path="url(#clip0)">
<path fill-rule="evenodd" clip-rule="evenodd" d="M23.6867 10.9398C23.6822 10.7901 23.6374 10.6444 23.5569 10.5174L17.6252 1.67704C17.3656 1.3136 17.1359 1.04839 16.7664 1.0091C16.5834 0.986311 16.3975 1.00647 16.2239 1.06794C16.0504 1.1294 15.8941 1.23041 15.7678 1.36271L11.9831 4.36843H11.9232H10.0858C9.67416 4.37421 9.28066 4.53607 8.98736 4.82027C8.75051 5.07645 8.56977 5.37783 8.45639 5.70565C8.34301 6.03348 8.2994 6.38074 8.32829 6.72585V10.7531C8.32829 10.7792 8.31777 10.8042 8.29904 10.8226C8.28031 10.841 8.25491 10.8513 8.22843 10.8513H3.51506C3.29387 10.8697 3.07865 10.9314 2.882 11.0327C2.68535 11.134 2.51124 11.2728 2.36987 11.4412C2.2285 11.6095 2.12271 11.8039 2.05872 12.013C1.99472 12.222 1.97381 12.4416 1.99719 12.6587V15.468C2.00866 15.7702 2.05557 16.0702 2.137 16.3618C1.52024 16.5034 0.971556 16.8489 0.582607 17.3405C0.193658 17.8321 -0.0119975 18.4402 8.77306e-07 19.063V20.3872C-0.002661 21.0759 0.272231 21.7375 0.764477 22.2272C1.25672 22.7169 1.9262 22.9948 2.62631 23H15.4083C16.1084 22.9948 16.7779 22.7169 17.2702 22.2272C17.7624 21.7375 18.0373 21.0759 18.0346 20.3872V19.063C18.0404 18.4628 17.8493 17.8767 17.4894 17.3918C17.1296 16.9069 16.6204 16.5492 16.0374 16.3716C16.0242 16.3702 16.0116 16.3655 16.0007 16.358C15.9898 16.3505 15.9809 16.3404 15.975 16.3287C15.969 16.317 15.9661 16.304 15.9666 16.2909C15.967 16.2778 15.9708 16.2651 15.9775 16.2538C16.134 15.7989 16.1752 15.3134 16.0974 14.8393C15.9414 13.6539 15.5904 11.2456 15.2892 9.17856C15.1661 8.33395 15.0513 7.5463 14.9615 6.92231C14.9498 6.89395 14.9498 6.86225 14.9615 6.8339L16 5.94987L20.1117 11.8827C20.1205 11.891 20.1274 11.9009 20.1322 11.9119C20.137 11.9228 20.1394 11.9346 20.1394 11.9466C20.1394 11.9585 20.137 11.9703 20.1322 11.9813C20.1274 11.9923 20.1205 12.0022 20.1117 12.0104L18.1145 13.4642C17.9703 13.5635 17.8588 13.7022 17.7941 13.8633C17.7293 14.0243 17.7141 14.2005 17.7502 14.37C17.7864 14.5395 17.8724 14.6948 17.9975 14.8167C18.1226 14.9385 18.2814 15.0215 18.4541 15.0554L22.9677 16.0966C23.0947 16.1273 23.2273 16.1272 23.3543 16.0965C23.4813 16.0657 23.5987 16.005 23.6967 15.9198C23.801 15.8345 23.8828 15.7256 23.935 15.6025C23.9872 15.4793 24.0082 15.3455 23.9963 15.2126L23.6867 10.9398ZM22.7181 11.5193L22.8978 14.8393C22.8985 14.8551 22.8954 14.8709 22.8886 14.8852C22.8819 14.8996 22.8717 14.9121 22.8589 14.9217C22.8462 14.9314 22.8313 14.9379 22.8154 14.9406C22.7996 14.9434 22.7833 14.9423 22.768 14.9375L19.4227 14.1517C19.4058 14.1437 19.3916 14.1311 19.3816 14.1155C19.3716 14.0999 19.3664 14.0818 19.3664 14.0633C19.3664 14.0449 19.3716 14.0268 19.3816 14.0112C19.3916 13.9955 19.4058 13.983 19.4227 13.9749L22.7181 11.5193ZM1.28819 19.063C1.28108 18.6921 1.41557 18.332 1.66514 18.0537C1.9147 17.7755 2.34289 17.5392 2.71797 17.5H15.5C15.8733 17.5415 16.1357 17.7788 16.3832 18.0568C16.6307 18.3348 16.7638 18.6936 16.7564 19.063V20.3872C16.7578 20.5613 16.7142 20.7882 16.6477 20.9496C16.5811 21.111 16.4829 21.2579 16.3587 21.3819C16.2344 21.506 16.0865 21.6047 15.9235 21.6726C15.7604 21.7404 15.5854 21.776 15.4083 21.7773H2.62631C2.26785 21.7747 1.92498 21.6328 1.67244 21.3825C1.41991 21.1323 1.27819 20.794 1.2782 20.4414L1.28819 19.063ZM22.2687 10.4977L16.5667 2.16817L13.7407 4.43719C14 4.5 14.5 5 14.6219 5.67483L15.4984 5.03086C15.947 4.7013 16.5783 4.80143 16.9029 5.2536L21.2102 11.2541L22.2687 10.4977ZM3.6249 16.2931H14.0203C14.168 16.3004 14.4947 16.2596 14.6194 16.0377C14.7286 15.8912 14.804 15.7229 14.8402 15.5448C14.8764 15.3666 14.8727 15.1829 14.8291 15.0063C14.5495 12.8257 13.5509 5.94987 13.5509 5.94987C13.5208 5.8659 13.4656 5.79284 13.3926 5.74026C13.3195 5.68768 13.232 5.65803 13.1415 5.65519C13.1415 5.65519 11 5.65519 10.5 5.65519C10 5.65519 9.63645 6 9.63645 6.53922V11.1578C9.63645 11.71 9.18874 12.1578 8.63645 12.1578H3.555C3.44516 12.1578 3.24544 12.2363 3.24544 12.6587V15.5073C3.24544 16.0469 3.24544 16.1106 3.37525 16.2145C3.44545 16.2707 3.5346 16.2987 3.6249 16.2931Z" fill="black"/>
<path d="M5.25 20.8999C5.94036 20.8999 6.5 20.3403 6.5 19.6499C6.5 18.9595 5.94036 18.3999 5.25 18.3999C4.55964 18.3999 4 18.9595 4 19.6499C4 20.3403 4.55964 20.8999 5.25 20.8999Z" fill="#29D305"/>
<path d="M12.25 20.8999C12.9404 20.8999 13.5 20.3403 13.5 19.6499C13.5 18.9595 12.9404 18.3999 12.25 18.3999C11.5596 18.3999 11 18.9595 11 19.6499C11 20.3403 11.5596 20.8999 12.25 20.8999Z" fill="#29D305"/>
</g>
<defs>
<clipPath id="clip0">
<rect width="24" height="24" fill="white"/>
</clipPath>
</defs>
</svg>
