<svg width="24" height="24" viewBox="0 0 24 24" fill="none" xmlns="http://www.w3.org/2000/svg">
<path d="M19.6006 6.51715L21.6185 1.06295L15.2075 8.46794L17.8441 9.03917L15.8262 14.4934L22.2372 7.08839L19.6006 6.51715Z" fill="black"/>
<path fill-rule="evenodd" clip-rule="evenodd" d="M9.72719 3.1255L5.36012 1.6349L5.39269 1.43862H15.7473C16.2823 1.43862 16.7353 1.84449 16.7353 2.35674C16.7353 2.74765 17.0816 3.07317 17.5216 3.07317C17.9612 3.07317 18.308 2.74234 18.308 2.35674C18.308 1.06753 17.1615 0 15.741 0H2.5999C1.82917 0 1.22 0.572564 1.22 1.2632V20.411C1.22597 20.8872 1.50695 21.314 1.9741 21.5346C1.99883 21.546 2.02036 21.5559 2.0471 21.5658L8.51263 23.8906C8.71523 23.962 8.92276 24 9.12891 24C9.46666 24 9.7977 23.9072 10.0809 23.7279C10.5405 23.4402 10.8087 22.9648 10.8087 22.4605V21.105H15.741C17.1615 21.105 18.308 20.0375 18.308 18.7483V15.5294C18.308 15.1385 17.9617 14.813 17.5216 14.813C17.0821 14.813 16.7353 15.1438 16.7353 15.5294V18.7483C16.7353 19.2605 16.2823 19.6664 15.7473 19.6664H10.815V4.56108C10.815 3.9295 10.3781 3.349 9.72719 3.1255ZM2.79896 2.29627L9.22975 4.49474V22.5982L2.79896 20.2868V2.29627Z" fill="black"/>
</svg>
