<svg width="24" height="24" viewBox="0 0 24 24" fill="none" xmlns="http://www.w3.org/2000/svg">
<path d="M12 24C5.383 24 0 18.617 0 12C0 5.383 5.383 0 12 0C18.617 0 24 5.383 24 12C24 18.617 18.617 24 12 24ZM12 1.5C6.21 1.5 1.5 6.21 1.5 12C1.5 17.79 6.21 22.5 12 22.5C17.79 22.5 22.5 17.79 22.5 12C22.5 6.21 17.79 1.5 12 1.5Z" fill="#29D305"/>
<path fill-rule="evenodd" clip-rule="evenodd" d="M16.634 9.8265C16.1597 9.37829 15.4061 9.39343 14.9507 9.86032L12 12.886L9.04927 9.86032C8.59394 9.39343 7.84033 9.37829 7.36604 9.8265C6.89174 10.2747 6.87636 11.0165 7.33168 11.4834L11.1412 15.3897C11.3657 15.6199 11.6758 15.75 12 15.75C12.3242 15.75 12.6343 15.6199 12.8588 15.3897L16.6683 11.4834C17.1236 11.0165 17.1083 10.2747 16.634 9.8265Z" fill="black"/>
</svg>
