<svg width="24" height="24" viewBox="0 0 24 24" fill="none" xmlns="http://www.w3.org/2000/svg">
<path fill-rule="evenodd" clip-rule="evenodd" d="M1.5 12C1.5 6.20101 6.20101 1.5 12 1.5C17.799 1.5 22.5 6.20101 22.5 12C22.5 17.799 17.799 22.5 12 22.5C6.20101 22.5 1.5 17.799 1.5 12ZM12 0C5.37258 0 0 5.37258 0 12C0 18.6274 5.37258 24 12 24C18.6274 24 24 18.6274 24 12C24 5.37258 18.6274 0 12 0ZM18.7199 15.3333C18.904 14.9622 18.7524 14.5122 18.3813 14.3281C18.0103 14.144 17.5602 14.2955 17.3761 14.6666C16.8794 15.6678 16.1129 16.5103 15.1631 17.0992C14.2132 17.6882 13.1178 18.0001 12.0001 17.9999C11.5859 17.9998 11.2501 18.3356 11.25 18.7498C11.2499 19.164 11.5856 19.4998 11.9999 19.4999C13.3969 19.5002 14.7662 19.1103 15.9535 18.3741C17.1409 17.6379 18.099 16.5847 18.7199 15.3333ZM8.25 7.875C7.95163 7.875 7.66548 7.99353 7.4545 8.2045C7.24353 8.41548 7.125 8.70163 7.125 9C7.125 9.22251 7.19098 9.44001 7.3146 9.62502C7.43821 9.81002 7.61392 9.95422 7.81948 10.0394C8.02505 10.1245 8.25125 10.1468 8.46948 10.1034C8.6877 10.06 8.88816 9.95283 9.0455 9.7955C9.20283 9.63816 9.30998 9.4377 9.35338 9.21948C9.39679 9.00125 9.37451 8.77505 9.28936 8.56948C9.20422 8.36392 9.06002 8.18821 8.87502 8.0646C8.69001 7.94098 8.47251 7.875 8.25 7.875ZM14.9545 8.2045C15.1655 7.99352 15.4516 7.875 15.75 7.875C15.9725 7.875 16.19 7.94098 16.375 8.0646C16.56 8.18821 16.7042 8.36392 16.7894 8.56948C16.8745 8.77505 16.8968 9.00125 16.8534 9.21948C16.81 9.4377 16.7028 9.63816 16.5455 9.7955C16.3882 9.95283 16.1877 10.06 15.9695 10.1034C15.7513 10.1468 15.5251 10.1245 15.3195 10.0394C15.1139 9.95422 14.9382 9.81002 14.8146 9.62502C14.691 9.44001 14.625 9.22251 14.625 9C14.625 8.70163 14.7435 8.41548 14.9545 8.2045Z" fill="black"/>
</svg>
