<svg width="24" height="24" viewBox="0 0 24 24" fill="none" xmlns="http://www.w3.org/2000/svg">
<g clip-path="url(#clip0)">
<path d="M4.18677 11.4704C5.58522 11.0257 7.05964 10.8942 8.51144 11.0849C9.96323 11.2756 11.3585 11.784 12.6041 12.5757C13.5885 13.2024 14.6886 13.6107 15.8332 13.7742C16.9777 13.9377 18.1427 13.8533 19.2541 13.5263C19.7802 13.3715 20.3177 13.6889 20.4629 14.2155C20.6074 14.7392 20.3157 15.2948 19.7931 15.4486C18.4192 15.8528 16.9788 15.9572 15.5635 15.755C14.1484 15.5529 12.7899 15.0487 11.5745 14.275C10.5659 13.634 9.43692 13.2228 8.26314 13.0686C7.08919 12.9145 5.89685 13.0207 4.76558 13.3805C4.24291 13.5467 3.69872 13.2412 3.54265 12.7175C3.38749 12.1969 3.66781 11.6354 4.18677 11.4704Z" fill="black"/>
<path fill-rule="evenodd" clip-rule="evenodd" d="M0.974402 -0.0500488C1.54016 -0.0500488 1.99879 0.408586 1.99879 0.974342V22.9256C1.99879 23.4913 1.54016 23.95 0.974402 23.95C0.408647 23.95 -0.0499878 23.4913 -0.0499878 22.9256V0.974342C-0.0499878 0.408586 0.408647 -0.0500488 0.974402 -0.0500488Z" fill="black"/>
<path fill-rule="evenodd" clip-rule="evenodd" d="M3.75035 1.39709C5.16421 0.962114 6.65458 0.833641 8.12203 1.02024C9.58952 1.20685 11.0003 1.70426 12.2604 2.47929C13.2476 3.08669 14.3505 3.48203 15.4988 3.64002C16.647 3.798 17.8155 3.71528 18.93 3.39712C18.9301 3.39709 18.9299 3.39714 18.93 3.39712L21.2425 2.73627C21.5582 2.64649 21.8904 2.63113 22.213 2.6914C22.5356 2.75166 22.8399 2.88591 23.1019 3.08358C23.3638 3.28126 23.5764 3.53699 23.7229 3.83069C23.8694 4.12438 23.9458 4.44804 23.9461 4.77624V17.3321C23.9461 17.3322 23.9461 17.332 23.9461 17.3321C23.9462 17.7932 23.796 18.2421 23.5183 18.6103C23.2406 18.9785 22.8505 19.2462 22.407 19.3729L19.4931 20.206C18.1045 20.6026 16.6483 20.7059 15.2176 20.5092C13.787 20.3125 12.413 19.8201 11.183 19.0633C10.1713 18.4406 9.03823 18.0409 7.85977 17.891C6.68147 17.7412 5.48477 17.8445 4.3496 18.1941C4.34944 18.1941 4.34976 18.1941 4.3496 18.1941L1.27673 19.1433C0.965937 19.2393 0.62802 19.182 0.36626 18.9889C0.104501 18.7957 -0.0499878 18.4898 -0.0499878 18.1645V3.32257C-0.0499878 2.8728 0.243383 2.47565 0.673275 2.34343L3.75035 1.39709C3.75031 1.3971 3.75038 1.39708 3.75035 1.39709ZM7.86359 3.05266C6.68509 2.9028 5.48818 3.00598 4.35271 3.35532L1.99879 4.07926V16.7759L3.74524 16.2365C5.15917 15.801 6.65055 15.672 8.11821 15.8586C9.58581 16.0452 10.9967 16.5429 12.2566 17.3184C13.2443 17.9261 14.3478 18.3215 15.4968 18.4795C16.6457 18.6375 17.815 18.5546 18.9301 18.2361L21.844 17.403C21.8593 17.3986 21.873 17.3893 21.8826 17.3766C21.8922 17.3639 21.8973 17.3485 21.8973 17.3326V4.77816C21.8973 4.7667 21.8947 4.7554 21.8895 4.74514C21.8844 4.73488 21.877 4.72595 21.8678 4.71904C21.8587 4.71214 21.8481 4.70745 21.8368 4.70534C21.8256 4.70325 21.8141 4.70377 21.8031 4.70686C21.803 4.70688 21.8031 4.70684 21.8031 4.70686L19.493 5.36704C18.105 5.76331 16.6495 5.86642 15.2195 5.66968C13.7896 5.47294 12.4163 4.98073 11.187 4.22438C10.1751 3.60198 9.04209 3.20252 7.86359 3.05266Z" fill="black"/>
</g>
<defs>
<clipPath id="clip0">
<rect width="24" height="24" fill="white"/>
</clipPath>
</defs>
</svg>
