<svg width="24" height="24" viewBox="0 0 24 24" fill="none" xmlns="http://www.w3.org/2000/svg">
<path fill-rule="evenodd" clip-rule="evenodd" d="M0 23.25C0 23.664 0.336 24 0.75 24C1.164 24 1.5 23.664 1.5 23.25V18.262L4.125 17.454C4.97 17.194 5.847 17.062 6.731 17.062C8.372 17.062 9.978 17.516 11.375 18.376C13.009 19.384 14.892 19.916 16.82 19.916C17.779 19.916 18.732 19.783 19.653 19.521L22.64 18.667C23.441 18.438 24 17.697 24 16.864V5.136C24 4.635 23.804 4.164 23.448 3.811C23.094 3.458 22.623 3.263 22.121 3.263C21.948 3.263 21.776 3.288 21.609 3.335L19.24 4.012C18.452 4.237 17.635 4.351 16.812 4.351C15.166 4.351 13.557 3.897 12.161 3.038C10.528 2.032 8.65 1.501 6.731 1.501C5.698 1.501 4.672 1.655 3.684 1.959L1.5 2.63V0.75C1.5 0.336 1.164 0 0.75 0C0.336 0 0 0.336 0 0.75V23.25ZM12.161 17.099C10.527 16.093 8.65 15.562 6.731 15.562C5.697 15.562 4.672 15.717 3.684 16.021L1.5 16.693V4.199L4.124 3.393C4.969 3.133 5.846 3.001 6.73 3.001C8.371 3.001 9.977 3.455 11.374 4.315C13.006 5.319 14.887 5.85 16.812 5.85C17.774 5.85 18.73 5.716 19.652 5.453L22.02 4.776C22.054 4.767 22.089 4.762 22.124 4.762C22.225 4.762 22.319 4.801 22.39 4.872C22.461 4.943 22.5 5.037 22.5 5.137V16.864C22.5 17.031 22.388 17.179 22.228 17.225L19.241 18.079C18.455 18.302 17.641 18.416 16.82 18.416C15.171 18.416 13.56 17.961 12.161 17.099ZM4.37469 13.3922C5.57924 13.0214 6.84904 12.9118 8.09931 13.0708L11.6246 14.314C12.8494 15.0688 14.2179 15.5604 15.643 15.7575C17.0682 15.9546 18.5188 15.8529 19.9025 15.4587C20.3008 15.3453 20.5318 14.9303 20.4183 14.532C20.3048 14.1336 19.8899 13.9026 19.4915 14.0161C18.3081 14.3532 17.0674 14.4403 15.8485 14.2717C14.6296 14.1031 13.4591 13.6826 12.4115 13.037L12.4111 13.0367C11.1559 12.2643 9.75048 11.7687 8.28853 11.5828C6.82659 11.3969 5.3418 11.525 3.93333 11.9586C3.53745 12.0805 3.31533 12.5002 3.43721 12.8961C3.55909 13.292 3.97881 13.5141 4.37469 13.3922ZM8.09931 13.0708C9.34941 13.2297 10.5512 13.6535 11.6245 14.3139L8.09931 13.0708Z" fill="black"/>
</svg>
