<svg width="24" height="24" viewBox="0 0 24 24" fill="none" xmlns="http://www.w3.org/2000/svg">
<path d="M3.749 22H8.78968C8.78968 22 9.5 22 9.5 21.2458C9.5 20.4916 8.78968 20.4916 8.78968 20.4916H7.75H4.499V8.73777L2.999 10.246V21.2458C2.999 21.6621 3.335 22 3.749 22Z" fill="black"/>
<path d="M19.499 20.4916H17H16.5C16.5 20.4916 15.75 20.4916 15.75 21.2458C15.75 22 16.5 22 16.5 22H20.249C20.663 22 20.999 21.6621 20.999 21.2458V10.2441L19.499 8.73608V20.4916Z" fill="black"/>
<path d="M0.219 11.9744C0.36 12.1172 0.549 12.1956 0.749 12.1956C0.949 12.1956 1.138 12.1172 1.279 11.9754L2.999 10.246L4.499 8.73777L11.469 1.72959C11.611 1.58781 11.799 1.50937 12 1.50937C12.201 1.50937 12.389 1.58781 12.53 1.72959L19.499 8.73608L20.999 10.2441L22.719 11.9734C22.86 12.1162 23.049 12.1946 23.249 12.1946C23.449 12.1946 23.637 12.1162 23.779 11.9734C24.071 11.6788 24.071 11.2001 23.779 10.9065L20.999 8.11098L15.797 2.87997L13.591 0.661669C13.166 0.235305 12.601 0 12 0C11.398 0 10.833 0.235305 10.409 0.661669L0.219 10.9075C-0.073 11.2021 -0.073 11.6808 0.219 11.9744Z" fill="black"/>
<path fill-rule="evenodd" clip-rule="evenodd" d="M10.6 15.7C10.7 15.7 10.7 15.8 10.7 15.9V22.2C10.7 23.1 11.3 23.8 12.3 24H12.4C13.3 24 14.1 23.4 14.2 22.4V22.3V15.8C14.2 15.7 14.3 15.6 14.3 15.6H14.4C15 15.8 15.3 16 15.6 16.5C15.8 16.8 16.1 16.9 16.3 16.9C16.5 16.9 16.8 16.9 17.1 16.7C17.1 16.7 17.2 16.6 17.3 16.5C17.4 16.4 17.5 16.2 17.5 16V14.4C17.5 12.5 16 11 14 11H10.2C10.1 11 10.1 11 10.1 10.9C10 10.7 9.9 10.6 9.8 10.5C9.7 10.4 9.4 10.2 9 10.2H6.6C6.3 10.2 6 10.5 6 10.8V15.8C6 16.1 6.3 16.4 6.6 16.4H9C9.3 16.4 9.6 16.3 9.8 16.1C9.9 16 10 15.9 10 15.8C10 15.7 10.1 15.7 10.1 15.7H10.6ZM13 22.2C13 22.4 12.9 22.5 12.8 22.6C12.7 22.7 12.6 22.7 12.5 22.7C12.3 22.7 12.2 22.6 12.1 22.5C12 22.4 11.9 22.3 11.9 22.2V15.8C11.9 15.7 12 15.6 12 15.6H12.8C13 15.7 13 15.7 13 15.8V22.2ZM10.3 12.3C10.3 12.2 10.4 12.2 10.5 12.2H14C15.4 12.2 16.3 13.2 16.3 14.5V15.1C16.3 15.2 16.3 15.2 16.2 15.2C16.1 15.2 16.1 15.2 16 15.2C15.6 14.8 15.2 14.6 14.6 14.5H14.5H10.5C10.4 14.5 10.3 14.4 10.3 14.3V12.3ZM8.9 15C8.9 15.1 8.8 15.2 8.8 15.2H7.4C7.3 15.2 7.2 15.1 7.2 15V11.5C7.2 11.4 7.3 11.4 7.4 11.4H8.8C8.9 11.4 9 11.5 9 11.5V15H8.9Z" fill="#29D305"/>
</svg>
