<svg width="24" height="24" viewBox="0 0 24 24" fill="none" xmlns="http://www.w3.org/2000/svg">
<path fill-rule="evenodd" clip-rule="evenodd" d="M1 21.75C1 22.991 1.98658 24 3.2 24H20.8C22.0134 24 23 22.991 23 21.75V5.133C23 4.53 22.7575 3.943 22.3361 3.522L19.4477 0.639C19.0341 0.227 18.4895 0 17.9107 0H3.2C1.98658 0 1 1.009 1 2.25V21.75ZM2.46667 2.25C2.46667 1.836 2.7952 1.5 3.2 1.5H17.9116C18.1043 1.5 18.2852 1.576 18.423 1.713L21.3114 4.596C21.4522 4.736 21.5333 4.932 21.5333 5.133V21.75C21.5333 22.164 21.2048 22.5 20.8 22.5H3.2C2.7952 22.5 2.46667 22.164 2.46667 21.75V2.25ZM8.27301 10.5C6.61901 10.5 5.27301 9.154 5.27301 7.5C5.27301 5.846 6.61901 4.5 8.27301 4.5C9.92701 4.5 11.273 5.846 11.273 7.5C11.273 9.154 9.92701 10.5 8.27301 10.5ZM8.27301 6C7.44601 6 6.77301 6.673 6.77301 7.5C6.77301 8.327 7.44601 9 8.27301 9C9.10001 9 9.77301 8.327 9.77301 7.5C9.77301 6.673 9.10001 6 8.27301 6ZM18.813 18.95C18.561 18.95 18.328 18.825 18.188 18.616L14.263 12.728C14.214 12.655 14.132 12.611 14.044 12.611C13.993 12.611 13.943 12.626 13.9 12.654C13.873 12.672 13.85 12.695 13.831 12.722L11.139 16.568C11.021 16.737 10.836 16.851 10.631 16.88C10.594 16.885 10.559 16.888 10.525 16.888C10.354 16.888 10.187 16.829 10.055 16.723L8.38702 15.385C8.34002 15.348 8.28502 15.328 8.22602 15.328C8.21603 15.328 8.20604 15.329 8.19605 15.33L8.19602 15.33C8.12502 15.338 8.06502 15.371 8.02102 15.426L5.89602 18.616C5.75702 18.825 5.52302 18.95 5.27102 18.95C5.12302 18.95 4.97902 18.907 4.85602 18.825C4.51202 18.596 4.41802 18.129 4.64702 17.785L6.75802 14.614C6.78602 14.572 6.81702 14.529 6.85102 14.487C7.14402 14.121 7.56402 13.89 8.03102 13.839C8.09702 13.832 8.16302 13.828 8.22902 13.828C8.63002 13.828 9.00902 13.962 9.32502 14.215L10.369 15.052L12.601 11.863C12.727 11.682 12.885 11.528 13.069 11.405C13.358 11.212 13.694 11.111 14.042 11.111C14.635 11.111 15.184 11.405 15.511 11.897L19.436 17.784C19.547 17.951 19.587 18.151 19.548 18.347C19.508 18.544 19.395 18.713 19.228 18.824C19.105 18.906 18.961 18.95 18.813 18.95Z" fill="black"/>
</svg>
