<svg width="24" height="24" viewBox="0 0 24 24" fill="none" xmlns="http://www.w3.org/2000/svg">
<path d="M6.70655 8.99828C6.33855 8.99828 6.03989 8.66267 6.03989 8.24914C6.03989 7.83562 6.33855 7.5 6.70655 7.5H17.3732C17.7412 7.5 18.0399 7.83562 18.0399 8.24914C18.0399 8.66267 17.7403 8.99828 17.3732 8.99828H6.70655Z" fill="black"/>
<path d="M3.2 24C1.98658 24 1 22.991 1 21.75V2.25C1 1.009 1.98658 0 3.2 0H17.9107C18.4895 0 19.0341 0.227 19.4477 0.639L22.3361 3.522C22.7575 3.943 23 4.53 23 5.133V21.75C23 22.991 22.0134 24 20.8 24H3.2ZM3.2 1.5C2.7952 1.5 2.46667 1.836 2.46667 2.25V21.75C2.46667 22.164 2.7952 22.5 3.2 22.5H20.8C21.2048 22.5 21.5333 22.164 21.5333 21.75V5.133C21.5333 4.932 21.4522 4.736 21.3114 4.596L18.423 1.713C18.2852 1.576 18.1043 1.5 17.9116 1.5H3.2Z" fill="black"/>
<path d="M6.70655 13.4983C6.33855 13.4983 6.03989 13.1627 6.03989 12.7491C6.03989 12.3356 6.33855 12 6.70655 12H17.3732C17.7412 12 18.0399 12.3356 18.0399 12.7491C18.0399 13.1627 17.7412 13.4983 17.3732 13.4983H6.70655Z" fill="black"/>
<path d="M6.70655 17.9983C6.33855 17.9983 6.03989 17.6627 6.03989 17.2491C6.03989 16.8356 6.33855 16.5 6.70655 16.5H12.0399C12.407 16.5 12.7065 16.8356 12.7065 17.2491C12.7065 17.6627 12.407 17.9983 12.0399 17.9983H6.70655Z" fill="#29D305"/>
</svg>
