<svg width="24" height="24" viewBox="0 0 24 24" fill="none" xmlns="http://www.w3.org/2000/svg">
<path fill-rule="evenodd" clip-rule="evenodd" d="M6.58142 12.0001C6.58142 11.5582 6.9359 11.2001 7.37317 11.2001H16.8742C17.3115 11.2001 17.666 11.5582 17.666 12.0001C17.666 12.4419 17.3115 12.8001 16.8742 12.8001H7.37317C6.9359 12.8001 6.58142 12.4419 6.58142 12.0001Z" fill="black"/>
<path fill-rule="evenodd" clip-rule="evenodd" d="M11.8918 7.43427C12.201 7.74669 12.201 8.25322 11.8918 8.56564L8.49288 12L11.8918 15.4343C12.201 15.7467 12.201 16.2532 11.8918 16.5656C11.5826 16.8781 11.0813 16.8781 10.7721 16.5656L6.81332 12.5656C6.66484 12.4156 6.58142 12.2121 6.58142 12C6.58142 11.7878 6.66484 11.5843 6.81332 11.4343L10.7721 7.43427C11.0813 7.12185 11.5826 7.12185 11.8918 7.43427Z" fill="black"/>
<path fill-rule="evenodd" clip-rule="evenodd" d="M12.1237 1.6C6.43918 1.6 1.83094 6.25624 1.83094 12C1.83094 17.7438 6.43918 22.4 12.1237 22.4C17.8083 22.4 22.4165 17.7438 22.4165 12C22.4165 6.25624 17.8083 1.6 12.1237 1.6ZM0.247437 12C0.247437 5.37258 5.56463 0 12.1237 0C18.6828 0 24 5.37258 24 12C24 18.6274 18.6828 24 12.1237 24C5.56463 24 0.247437 18.6274 0.247437 12Z" fill="black"/>
</svg>
