<svg width="24" height="24" viewBox="0 0 24 24" fill="none" xmlns="http://www.w3.org/2000/svg">
<path fill-rule="evenodd" clip-rule="evenodd" d="M17.6 12C17.6 12.4419 17.2418 12.8 16.8 12.8L7.19998 12.8C6.75815 12.8 6.39998 12.4419 6.39998 12C6.39998 11.5582 6.75815 11.2 7.19998 11.2L16.8 11.2C17.2418 11.2 17.6 11.5582 17.6 12Z" fill="black"/>
<path fill-rule="evenodd" clip-rule="evenodd" d="M12.2343 16.5657C11.9219 16.2533 11.9219 15.7468 12.2343 15.4344L15.6686 12L12.2343 8.56573C11.9219 8.25331 11.9219 7.74678 12.2343 7.43436C12.5467 7.12194 13.0532 7.12194 13.3657 7.43436L17.3657 11.4344C17.5157 11.5844 17.6 11.7879 17.6 12C17.6 12.2122 17.5157 12.4157 17.3657 12.5657L13.3657 16.5657C13.0532 16.8782 12.5467 16.8782 12.2343 16.5657Z" fill="black"/>
<path fill-rule="evenodd" clip-rule="evenodd" d="M12 22.4C17.7438 22.4 22.4 17.7438 22.4 12C22.4 6.25624 17.7438 1.6 12 1.6C6.25624 1.6 1.6 6.25624 1.6 12C1.6 17.7438 6.25624 22.4 12 22.4ZM24 12C24 18.6274 18.6274 24 12 24C5.37258 24 -1.43766e-06 18.6274 -8.58275e-07 12C-2.78888e-07 5.37258 5.37258 -3.53581e-06 12 -2.95642e-06C18.6274 -2.37703e-06 24 5.37258 24 12Z" fill="black"/>
</svg>
