<svg width="106" height="101" viewBox="0 0 106 101" fill="none" xmlns="http://www.w3.org/2000/svg">
<path fill-rule="evenodd" clip-rule="evenodd" d="M50.5196 1.36657C51.8877 -0.00760949 54.1123 -0.00760531 55.4804 1.36657L105.063 51.1702C105.647 51.7573 105.645 52.707 105.058 53.2915C104.471 53.876 103.521 53.8739 102.937 53.2868L92.1956 42.4976V99.0012C92.1956 99.8296 91.5241 100.501 90.6956 100.501H15.3043C14.4759 100.501 13.8043 99.8296 13.8043 99.0012V42.4976L3.06302 53.2868C2.47853 53.8739 1.52879 53.876 0.9417 53.2915C0.354613 52.707 0.352502 51.7573 0.936984 51.1702L50.5196 1.36657ZM16.8043 39.4842V97.5012H89.1956V39.4842L53.3543 3.48317C53.1589 3.28686 52.8411 3.28686 52.6457 3.48317L16.8043 39.4842Z" fill="black"/>
<path fill-rule="evenodd" clip-rule="evenodd" d="M39 62.5C40.1046 62.5 41 63.3954 41 64.5V90.5H37V64.5C37 63.3954 37.8954 62.5 39 62.5ZM67 79.5C68.1046 79.5 69 80.3954 69 81.5V90.5H65V81.5C65 80.3954 65.8954 79.5 67 79.5Z" fill="#29D305"/>
<path fill-rule="evenodd" clip-rule="evenodd" d="M30.5 42C30.5 40.6193 31.6193 39.5 33 39.5H45C46.3807 39.5 47.5 40.6193 47.5 42V91.5H30.5V42ZM33.5 42.5V88.5H44.5V42.5H33.5Z" fill="black"/>
<path fill-rule="evenodd" clip-rule="evenodd" d="M58.5 60C58.5 58.6193 59.6193 57.5 61 57.5H73C74.3807 57.5 75.5 58.6193 75.5 60V91.5H58.5V60ZM61.5 60.5V88.5H72.5V60.5H61.5Z" fill="black"/>
<path fill-rule="evenodd" clip-rule="evenodd" d="M68.0121 54.107C67.4391 54.631 66.5609 54.631 65.9878 54.107L60.9878 49.5356C60.3764 48.9766 60.3339 48.0278 60.8929 47.4164C61.4519 46.805 62.4007 46.7625 63.0121 47.3215L65.5 49.5961L65.5 41C65.5 40.1716 66.1716 39.5 67 39.5C67.8284 39.5 68.5 40.1716 68.5 41L68.5 49.5961L70.9878 47.3215C71.5992 46.7625 72.548 46.805 73.107 47.4164C73.666 48.0278 73.6235 48.9766 73.0121 49.5356L68.0121 54.107Z" fill="black"/>
<path fill-rule="evenodd" clip-rule="evenodd" d="M25.5 90C25.5 89.1716 26.1716 88.5 27 88.5H79C79.8284 88.5 80.5 89.1716 80.5 90C80.5 90.8284 79.8284 91.5 79 91.5H27C26.1716 91.5 25.5 90.8284 25.5 90Z" fill="black"/>
</svg>
