<svg width="24" height="24" viewBox="0 0 24 24" fill="none" xmlns="http://www.w3.org/2000/svg">
<g clip-path="url(#clip0)">
<path d="M12 6.34155H8.60104C7.80104 6.34155 7.10104 7.02448 7.10104 7.80497V9.07326H4.10104C3.30104 9.07326 2.60104 9.75619 2.60104 10.5367V13.4635C2.60104 14.244 3.30104 14.9269 4.10104 14.9269H12.301C12.701 14.9269 13.001 14.6342 13.001 14.1464V7C13 6.5 12.6234 6.34155 12 6.34155ZM4.10104 13.7562V10.6342H7.10104V13.7562H4.10104ZM11.601 13.7562H8.60104V9.85375V7.90253H11.601V13.7562Z" fill="#29D305"/>
<path d="M0 5.14634V12.4634V17.3902C0 18.561 1 19.5366 2.2 19.5366H4.6C4.9 20.4146 5.7 21 6.7 21C7.7 21 8.5 20.4146 8.8 19.5366H16.6C16.9 20.4146 17.7 21 18.7 21C19.7 21 20.5 20.4146 20.8 19.5366H22.3C23.3 19.439 24 18.6585 24 17.7805V13.9268V11V9.73171C24.1 7.78049 22.6 6.02439 20.6 5.92683H18.1H15.9V5.14634C15.9 3.97561 14.9 3 13.7 3H2.2C1 3 0 3.97561 0 5.14634ZM14.3 13.6585H1.5V5.14634C1.5 4.7561 1.8 4.36585 2.3 4.36585H13.5C13.9 4.36585 14.3 4.65854 14.3 5.14634V6.60976V13.6585ZM22.5 9.63415V10.5H19C18.9 10.5 18.9 10.5 18.9 10.4024V7.39024H20.6C21.6 7.39024 22.6 8.46342 22.5 9.63415ZM22.3 18.1707H20.9C20.6 17.2927 19.8 16.7073 18.8 16.7073C17.8 16.7073 17 17.2927 16.7 18.1707H15.8V12.4634V7.39024H17.4V10.5C17.4 11.378 18.1 12.061 19 12.061H22.5V14.2439H21.3C20.9 14.2439 20.5 14.5366 20.5 15.0244C20.5 15.5122 20.8 15.8049 21.3 15.8049H22.5V17.9756C22.5 17.9756 22.4 18.0732 22.3 18.1707ZM18 18.8537C18 18.4634 18.3 18.0732 18.8 18.0732C19.3 18.0732 19.6 18.3659 19.6 18.8537C19.6 19.3415 19.3 19.6341 18.8 19.6341C18.3 19.6341 18 19.2439 18 18.8537ZM6 18.8537C6 18.4634 6.3 18.0732 6.8 18.0732C7.3 18.0732 7.6 18.3659 7.6 18.8537C7.6 19.3415 7.3 19.6341 6.8 19.6341C6.3 19.6341 6 19.2439 6 18.8537ZM1.5 17.3902V15.2195H14.3V18.1707H8.9C8.6 17.2927 7.8 16.7073 6.8 16.7073C5.8 16.7073 5 17.2927 4.7 18.1707H2.2C1.8 18.1707 1.5 17.7805 1.5 17.3902Z" fill="black"/>
</g>
<defs>
<clipPath id="clip0">
<rect width="24" height="24" fill="white"/>
</clipPath>
</defs>
</svg>
