<svg width="24" height="24" viewBox="0 0 24 24" fill="none" xmlns="http://www.w3.org/2000/svg">
<path fill-rule="evenodd" clip-rule="evenodd" d="M20.1425 2.25972L12.3309 10.0712C11.8897 10.5125 11.8897 11.228 12.3309 11.6692C12.772 12.1103 13.4871 12.1103 13.9282 11.6692L21.7407 3.85673L21.7409 9.99473C21.7409 10.619 22.2469 11.1245 22.8705 11.1245C23.494 11.1245 24 10.6189 24 9.99468L23.9998 1.12995C23.9998 0.817754 23.8737 0.53574 23.6688 0.330939C23.6432 0.305349 23.6164 0.28099 23.5885 0.257947C23.3932 0.0967267 23.1434 0.000178466 22.8703 0.000173139L14.0052 0C13.3816 -1.2115e-05 12.8756 0.50555 12.8756 1.12978C12.8756 1.75401 13.3816 2.25959 14.0052 2.2596L20.1425 2.25972ZM0.0499878 6.20868C0.0499878 3.91282 1.94856 2.04999 4.29267 2.04999H8.26015C8.88005 2.04999 9.38088 2.54243 9.38088 3.14781C9.38088 3.7532 8.88005 4.24564 8.26015 4.24564H4.29267C3.18836 4.24564 2.29145 5.12359 2.29145 6.20868V19.7913C2.29145 20.8764 3.18836 21.7543 4.29267 21.7543H17.7073C18.8116 21.7543 19.7085 20.8764 19.7085 19.7913V15.758C19.7085 15.1526 20.2094 14.6601 20.8293 14.6601C21.4492 14.6601 21.95 15.1526 21.95 15.758V19.7913C21.95 22.0872 20.0514 23.95 17.7073 23.95H4.29267C1.94857 23.95 0.0499878 22.0872 0.0499878 19.7913V6.20868Z" fill="black"/>
</svg>
