<svg width="24" height="24" viewBox="0 0 24 24" fill="none" xmlns="http://www.w3.org/2000/svg">
<path d="M2.25 24C1.009 24 0 22.991 0 21.75V2.25C0 1.009 1.009 0 2.25 0H21.75C22.991 0 24 1.009 24 2.25V13.629C24 13.946 23.934 14.254 23.804 14.545C23.802 14.55 23.795 14.563 23.793 14.568C23.684 14.807 23.531 15.029 23.342 15.218L15.219 23.34C15.029 23.53 14.808 23.683 14.56 23.796C14.554 23.799 14.534 23.808 14.528 23.81C14.254 23.934 13.946 24 13.629 24H2.25ZM2.25 1.5C1.836 1.5 1.5 1.836 1.5 2.25V21.75C1.5 22.164 1.836 22.5 2.25 22.5H13.5V15.75C13.5 14.509 14.509 13.5 15.75 13.5H22.5V2.25C22.5 1.836 22.164 1.5 21.75 1.5H2.25ZM15.75 15C15.336 15 15 15.336 15 15.75V21.439L21.439 15H15.75Z" fill="black"/>
<path d="M11.1151 4.44861C11.3126 4.16665 11.6264 4 11.9534 4C12.1803 4 12.3979 4.0776 12.5806 4.22395C12.8039 4.40329 12.9502 4.66611 12.9895 4.96535C13.0288 5.26304 12.957 5.56071 12.7891 5.80043L8.76124 11.5514C8.5781 11.8119 8.30023 11.9747 7.99794 11.997L7.99569 11.9972C7.97344 11.9985 7.94842 12 7.92427 12C7.64617 12 7.38226 11.8838 7.18507 11.6712L4.30838 8.59064C4.10977 8.37938 4 8.0952 4 7.79461C4 7.49406 4.10961 7.21006 4.30816 6.99881C4.50534 6.78629 4.7692 6.67009 5.04724 6.67009C5.32535 6.67009 5.58926 6.78634 5.78645 6.99894L7.81127 9.16589L11.1151 4.44861Z" fill="#29D305"/>
</svg>
