<svg width="24" height="24" viewBox="0 0 24 24" fill="none" xmlns="http://www.w3.org/2000/svg">
<path fill-rule="evenodd" clip-rule="evenodd" d="M11.775 23.963C11.852 23.988 11.926 24 12 24C12.075 24 12.151 23.987 12.225 23.964C12.244 23.959 12.262 23.954 12.278 23.947L23.528 19.447C23.815 19.332 24 19.059 24 18.75V5.25C24 5.183 23.99 5.117 23.969 5.041C23.963 5.021 23.956 5.002 23.947 4.981C23.93 4.938 23.911 4.898 23.888 4.86C23.8765 4.84057 23.8635 4.8227 23.8496 4.80364L23.844 4.796C23.818 4.761 23.789 4.73 23.75 4.694C23.7443 4.68918 23.7388 4.68436 23.7335 4.67972C23.7267 4.67375 23.7202 4.66806 23.714 4.663C23.701 4.651 23.684 4.638 23.671 4.629C23.644 4.611 23.615 4.595 23.58 4.579C23.563 4.57 23.544 4.56 23.528 4.554L12.279 0.054C12.19 0.018 12.096 0 12 0C11.904 0 11.81 0.018 11.721 0.054L0.47 4.554C0.449 4.563 0.432 4.572 0.417 4.58C0.387 4.594 0.357 4.61 0.33 4.629C0.317 4.637 0.3 4.651 0.285 4.664L0.284977 4.66402C0.270984 4.67601 0.256993 4.68801 0.244 4.7C0.211 4.73 0.181 4.763 0.155 4.798C0.139 4.818 0.125 4.839 0.113 4.858C0.089 4.898 0.069 4.939 0.052 4.983C0.046 4.997 0.034 5.031 0.03 5.045C0.01 5.116 0 5.183 0 5.25V18.75C0 19.059 0.185 19.332 0.471 19.446L11.721 23.946C11.738 23.953 11.756 23.958 11.775 23.963ZM22.5 18.242L12.75 22.142V10.258L22.5 6.358V18.242ZM11.25 10.258V22.142L1.5 18.243V6.358L11.25 10.258ZM16.168 7.275L12 8.942L2.77 5.25L6.938 3.583L16.168 7.275ZM21.23 5.25L18.187 6.467L8.957 2.775L12 1.558L21.23 5.25ZM18.054 17.528C18.168 17.815 18.441 18 18.75 18C18.846 18 18.94 17.982 19.028 17.946L20.903 17.196C21.089 17.122 21.235 16.979 21.314 16.795C21.393 16.611 21.395 16.407 21.321 16.221C21.207 15.934 20.934 15.749 20.625 15.749C20.53 15.749 20.436 15.767 20.347 15.803L18.472 16.553C18.286 16.627 18.14 16.77 18.061 16.954C17.982 17.138 17.98 17.342 18.054 17.528Z" fill="black"/>
</svg>
