<svg width="24" height="24" viewBox="0 0 24 24" fill="none" xmlns="http://www.w3.org/2000/svg">
<path d="M23.6018 0.25148C23.4833 0.153416 23.3449 0.0823885 23.1962 0.043334C22.9116 -0.0368704 22.6073 -0.00495328 22.3455 0.13254L0.899442 11.65C0.700226 11.7549 0.524047 11.8987 0.381343 12.0731C0.238639 12.2475 0.132312 12.4487 0.0686629 12.665C0.00501369 12.8813 -0.0146634 13.1082 0.0107976 13.3322C0.0362586 13.5563 0.10634 13.7729 0.216889 13.9693C0.397135 14.3007 0.682599 14.5623 1.02804 14.7127L4.54962 16.2292L7.06221 23.0683C7.15575 23.3271 7.32249 23.5531 7.54208 23.7185C7.76166 23.884 8.02458 23.9818 8.29872 24H8.4471C8.58026 23.9771 8.70992 23.9371 8.83289 23.8811C9.12079 23.7723 9.36909 23.5788 9.54512 23.326L12.1171 19.3613L16.43 21.2148C16.8422 21.3834 17.3038 21.3834 17.716 21.2148C17.9212 21.1328 18.1082 21.0109 18.2661 20.8561C18.424 20.7013 18.5497 20.5166 18.6359 20.3128C18.6635 20.245 18.6866 20.1755 18.7052 20.1047L23.9579 1.43098C24.0163 1.22078 24.0139 0.998249 23.9508 0.789388C23.8878 0.580527 23.7667 0.393959 23.6018 0.25148ZM19.2295 3.17544L4.93541 14.9605L1.52264 13.5332C1.42888 13.4952 1.35173 13.4249 1.30502 13.335C1.28271 13.2816 1.27122 13.2243 1.27122 13.1665C1.27122 13.1086 1.28271 13.0513 1.30502 12.998C1.34594 12.8896 1.42277 12.7986 1.52264 12.7403L19.2295 3.17544ZM22.3158 2.73933L17.5181 19.8569C17.5224 19.8765 17.5224 19.8968 17.5181 19.9164C17.4967 19.9701 17.4647 20.0189 17.4238 20.0598C17.383 20.1007 17.3343 20.1328 17.2807 20.1542C17.1721 20.1936 17.0531 20.1936 16.9444 20.1542L10.2969 17.2997L22.3158 2.73933ZM18.5469 5.34611L8.79332 17.1411L8.70429 17.2798C8.70004 17.3194 8.70004 17.3592 8.70429 17.3988L7.95249 21.9879L5.76634 15.9517L18.5469 5.34611ZM10.9597 18.9252L9.27803 21.5022L9.76274 18.4197L10.9597 18.9252Z" fill="black"/>
</svg>
