<svg width="24" height="24" viewBox="0 0 24 24" fill="none" xmlns="http://www.w3.org/2000/svg">
<g clip-path="url(#clip0)">
<path d="M5.48801 20.258C5.01901 20.258 4.56901 20.035 4.28501 19.662C4.25501 19.623 4.23101 19.583 4.21001 19.541C4.10101 19.32 4.04301 19.072 4.04301 18.825C3.95401 17.225 4.56301 14.94 7.93001 13.177L7.95001 12.917C8.01301 12.297 8.05101 11.675 8.06501 11.058C7.10301 10.137 6.17701 9.165 5.31201 8.168C5.29701 8.151 5.28101 8.13 5.26601 8.109C4.77201 7.409 4.55201 6.554 4.64701 5.702C4.79201 4.662 5.61001 3.866 6.63701 3.755C6.66301 3.751 6.69201 3.75 6.71901 3.75C7.53001 3.778 8.24301 4.197 8.64901 4.871C8.96801 5.413 9.17201 5.999 9.25801 6.616C9.45901 7.863 9.56501 9.143 9.57201 10.416C9.81701 10.643 10.064 10.867 10.313 11.087C10.635 11.347 10.98 11.606 11.333 11.849C12.421 11.516 13.554 11.347 14.704 11.347C15.26 11.347 15.82 11.388 16.369 11.467C16.95 11.561 17.496 11.797 17.955 12.15C18.53 12.606 18.823 13.334 18.725 14.052C18.719 14.091 18.711 14.129 18.7 14.166C18.439 15.034 17.655 15.643 16.748 15.68H16.685C16.019 15.68 15.357 15.539 14.771 15.272C13.49 14.818 12.263 14.222 11.119 13.501C10.471 13.704 9.88501 13.921 9.35801 14.151C9.20901 15.742 8.92001 17.381 7.97201 18.727C7.49701 19.496 6.69701 20.049 5.78801 20.227C5.69001 20.248 5.58901 20.258 5.48801 20.258ZM7.74601 15.013C6.19801 16.035 5.47501 17.261 5.54101 18.742C6.03301 18.634 6.45201 18.334 6.71001 17.914L6.73601 17.875C7.33501 17.028 7.60101 15.997 7.74601 15.013ZM13.191 12.962C13.871 13.312 14.578 13.616 15.301 13.871C15.326 13.88 15.347 13.889 15.368 13.899C15.767 14.085 16.214 14.183 16.66 14.183H16.703C16.934 14.173 17.149 14.018 17.241 13.792C17.247 13.616 17.168 13.443 17.029 13.333C16.774 13.137 16.465 13.004 16.138 12.95C15.67 12.882 15.187 12.847 14.705 12.847C14.199 12.847 13.692 12.885 13.191 12.962ZM9.49601 12.477C9.53101 12.464 9.56501 12.451 9.60001 12.437C9.56801 12.412 9.53601 12.387 9.50401 12.362C9.50201 12.4 9.50001 12.438 9.49601 12.477ZM6.47201 7.216C6.96601 7.784 7.48201 8.345 8.01201 8.892C7.96301 8.205 7.88401 7.518 7.77501 6.842C7.71401 6.404 7.57501 6.005 7.36001 5.639C7.23001 5.423 7.00101 5.279 6.74501 5.254C6.42801 5.31 6.18001 5.566 6.13501 5.888C6.08401 6.346 6.20301 6.821 6.47201 7.216Z" fill="black"/>
<path d="M2.99802 23.999C1.34502 23.999 2.34375e-05 22.654 -0.000976562 21V3.00002C-0.000976562 2.19902 0.310023 1.44602 0.877023 0.879023C1.44302 0.312023 2.19702 2.34375e-05 2.99802 -0.000976562H17.378C17.98 -0.000976562 18.544 0.233023 18.969 0.657023L23.34 5.03002C23.765 5.45502 23.999 6.02002 23.999 6.62002V21C23.999 22.653 22.653 23.999 21 23.999H2.99802ZM3.00002 1.49902C2.59802 1.49902 2.22102 1.65502 1.93802 1.93902C1.65502 2.22202 1.49902 2.59902 1.49902 3.00002V21C1.49902 21.826 2.17202 22.499 2.99902 22.499H21C21.826 22.499 22.499 21.826 22.499 20.999V7.49902H18.749C17.508 7.49902 16.499 6.49002 16.499 5.24902V1.49902H3.00002ZM17.999 5.24902C17.999 5.66302 18.335 5.99902 18.749 5.99902H22.188L17.999 1.80902V5.24902Z" fill="black"/>
</g>
<defs>
<clipPath id="clip0">
<rect width="24" height="24" fill="white"/>
</clipPath>
</defs>
</svg>
