<svg width="24" height="24" viewBox="0 0 24 24" fill="none" xmlns="http://www.w3.org/2000/svg">
<g clip-path="url(#clip0)">
<path fill-rule="evenodd" clip-rule="evenodd" d="M2.24734 1.49866C2.04843 1.49866 1.85767 1.57767 1.71701 1.71833C1.57636 1.85898 1.49734 2.04974 1.49734 2.24866V21.7487C1.49734 21.9476 1.57636 22.1383 1.71701 22.279C1.85767 22.4196 2.04843 22.4987 2.24734 22.4987H5.24734C5.66156 22.4987 5.99734 22.8344 5.99734 23.2487C5.99734 23.6629 5.66156 23.9987 5.24734 23.9987H2.24734C1.65061 23.9987 1.07831 23.7616 0.656355 23.3396C0.234397 22.9177 -0.00265503 22.3454 -0.00265503 21.7487V2.24866C-0.00265503 1.65192 0.234398 1.07962 0.656355 0.657667C1.07831 0.23571 1.65061 -0.00134277 2.24734 -0.00134277H12.7473H12.8763C13.172 -0.00127971 13.4649 0.0570416 13.7379 0.170288C14.0109 0.283475 14.2588 0.449312 14.4677 0.658327L20.3387 6.52933C20.5476 6.73836 20.7134 6.98667 20.8264 7.25974C20.9394 7.53271 20.9974 7.82525 20.9973 8.12066V8.24866V12.7487C20.9973 13.1629 20.6616 13.4987 20.2473 13.4987C19.8331 13.4987 19.4973 13.1629 19.4973 12.7487V8.99866H14.2473C13.6506 8.99866 13.0783 8.76161 12.6564 8.33965C12.2344 7.91769 11.9973 7.34539 11.9973 6.74866V1.49866H2.24734ZM13.4973 6.74866V1.80932L19.1867 7.49866H14.2473C14.0484 7.49866 13.8577 7.41964 13.717 7.27899C13.5764 7.13834 13.4973 6.94757 13.4973 6.74866ZM8.24734 14.9987C7.83313 14.9987 7.49734 15.3344 7.49734 15.7487V23.2487C7.49734 23.6629 7.83313 23.9987 8.24734 23.9987C8.66156 23.9987 8.99734 23.6629 8.99734 23.2487V20.9987H9.00134C9.79699 20.9987 10.5601 20.6826 11.1227 20.12C11.6853 19.5574 12.0013 18.7943 12.0013 17.9987C12.0013 17.203 11.6853 16.4399 11.1227 15.8773C10.5601 15.3147 9.79699 14.9987 9.00134 14.9987H8.24734ZM8.99734 16.4987V19.4987H9.00134C9.39917 19.4987 9.7807 19.3406 10.062 19.0593C10.3433 18.778 10.5013 18.3965 10.5013 17.9987C10.5013 17.6008 10.3433 17.2193 10.062 16.938C9.7807 16.6567 9.39917 16.4987 9.00134 16.4987H8.99734ZM14.2473 14.9987C13.8331 14.9987 13.4973 15.3344 13.4973 15.7487V23.2487C13.4973 23.4476 13.5764 23.6383 13.717 23.779C13.8577 23.9196 14.0484 23.9987 14.2473 23.9987C15.2419 23.9987 16.1957 23.6036 16.899 22.9003C17.6023 22.197 17.9973 21.2432 17.9973 20.2487V18.7487C17.9973 17.7541 17.6023 16.8003 16.899 16.097C16.1957 15.3937 15.2419 14.9987 14.2473 14.9987ZM15.8383 21.8396C15.5988 22.0792 15.3108 22.2592 14.9973 22.37V16.6273C15.3108 16.7382 15.5988 16.9181 15.8383 17.1577C16.2603 17.5796 16.4973 18.1519 16.4973 18.7487V20.2487C16.4973 20.8454 16.2603 21.4177 15.8383 21.8396ZM21.7473 16.4987C21.5484 16.4987 21.3577 16.5777 21.217 16.7183C21.0764 16.859 20.9973 17.0497 20.9973 17.2487V19.4987H22.4973C22.9116 19.4987 23.2473 19.8344 23.2473 20.2487C23.2473 20.6629 22.9116 20.9987 22.4973 20.9987H20.9973V23.2487C20.9973 23.6629 20.6616 23.9987 20.2473 23.9987C19.8331 23.9987 19.4973 23.6629 19.4973 23.2487V20.2487V17.2487C19.4973 16.6519 19.7344 16.0796 20.1564 15.6577C20.5783 15.2357 21.1506 14.9987 21.7473 14.9987H23.2473C23.6616 14.9987 23.9973 15.3344 23.9973 15.7487C23.9973 16.1629 23.6616 16.4987 23.2473 16.4987H21.7473Z" fill="black"/>
</g>
<defs>
<clipPath id="clip0">
<rect width="24" height="24" fill="white"/>
</clipPath>
</defs>
</svg>
