<svg width="24" height="24" viewBox="0 0 24 24" fill="none" xmlns="http://www.w3.org/2000/svg">
<path d="M16 12C16 14.2091 14.2091 16 12 16C9.79086 16 8 14.2091 8 12C8 9.79086 9.79086 8 12 8C14.2091 8 16 9.79086 16 12Z" fill="#29D305"/>
<path fill-rule="evenodd" clip-rule="evenodd" d="M10.88 0H13.13V2.46583C17.5305 2.98181 21.021 6.47387 21.5348 10.875H24V13.125H21.5348C21.0211 17.5262 17.5305 21.0182 13.13 21.5342V24H10.88V21.5354C6.47482 21.0235 2.97931 17.5295 2.46521 13.125H0V10.875H2.46522C2.97934 6.47053 6.47484 2.97651 10.88 2.46466V0ZM12 19.35C16.0593 19.35 19.35 16.0593 19.35 12C19.35 7.94073 16.0593 4.65002 12 4.65002C7.9407 4.65002 4.64999 7.94073 4.64999 12C4.64999 16.0593 7.9407 19.35 12 19.35Z" fill="black"/>
</svg>
