<svg width="24" height="24" viewBox="0 0 24 24" fill="none" xmlns="http://www.w3.org/2000/svg">
<path fill-rule="evenodd" clip-rule="evenodd" d="M1.15537 22.9543C1.50003 23.145 1.88888 23.2415 2.28269 23.2338L21.7173 23.2538C22.1111 23.2615 22.5 23.165 22.8446 22.9743C23.1893 22.7836 23.4776 22.5053 23.6804 22.1676C23.8832 21.8298 23.9933 21.4445 23.9997 21.0506C24.0061 20.6567 23.9085 20.268 23.7168 19.9238L13.9695 1.92384C13.7774 1.56883 13.493 1.27233 13.1463 1.06571C12.7996 0.859081 12.4036 0.75 12 0.75C11.5964 0.75 11.2004 0.859081 10.8537 1.06571C10.507 1.27233 10.2226 1.56883 10.0305 1.92384L0.283244 19.9038C0.0915043 20.248 -0.00609476 20.6367 0.000294734 21.0306C0.00668422 21.4245 0.116836 21.8098 0.319636 22.1476C0.522437 22.4853 0.81071 22.7636 1.15537 22.9543ZM11.6481 2.34086C11.7639 2.27244 11.8955 2.23554 12.03 2.23384C12.1627 2.23726 12.2923 2.27498 12.4062 2.34331C12.5201 2.41165 12.6143 2.50829 12.6798 2.62384L22.4271 20.6238C22.4884 20.7375 22.5204 20.8647 22.5204 20.9938C22.5204 21.123 22.4884 21.2501 22.4271 21.3638C22.3592 21.4757 22.2638 21.5683 22.1501 21.6331C22.0364 21.6978 21.9081 21.7325 21.7773 21.7338H2.28269C2.15187 21.7325 2.02355 21.6978 1.90985 21.6331C1.79615 21.5683 1.70083 21.4757 1.63287 21.3638C1.5689 21.251 1.53528 21.1235 1.53528 20.9938C1.53528 20.8641 1.5689 20.7367 1.63287 20.6238L11.3702 2.62384C11.4365 2.50685 11.5323 2.40929 11.6481 2.34086ZM15.6201 13.6637L13.2167 13.6828L14.7808 7.80005L11.5001 12.4565L14.3421 15.3308L15.6201 13.6637ZM15.6218 18.6739C15.7787 18.5182 15.7795 18.2647 15.6236 18.108L8.75408 11.1997C8.6 11.0448 8.35009 11.0422 8.19279 11.1939L8.09991 11.2834C7.93894 11.4386 7.93649 11.6957 8.0945 11.854L10.2998 14.0629L9.46414 15.3527L11.5 15.5L10.0738 20.9864L13.1193 16.918L14.9547 18.7718C15.1102 18.929 15.3638 18.9301 15.5208 18.7743L15.6218 18.6739Z" fill="black"/>
</svg>
