<svg width="24" height="24" viewBox="0 0 24 24" fill="none" xmlns="http://www.w3.org/2000/svg">
<path d="M15.3131 13.3636L12.9098 13.3828L14.4739 7.5L11.1931 12.1564L14.0352 15.0307L15.3131 13.3636Z" fill="#FFA000"/>
<path d="M15.2644 18.4241C15.4491 18.2406 15.4501 17.9421 15.2665 17.7575L8.49189 10.9447C8.31298 10.7648 8.02281 10.7618 7.84017 10.9379C7.65326 11.1181 7.65043 11.4166 7.83388 11.6004L9.99284 13.7629L9.1572 15.0527L11.1931 15.2L9.76683 20.6864L12.8124 16.618L14.5976 18.4212C14.7808 18.6063 15.0795 18.6076 15.2644 18.4241Z" fill="#FFA000"/>
<path fill-rule="evenodd" clip-rule="evenodd" d="M22.2352 20.5147L12.4949 2.95388C12.281 2.56831 11.718 2.56831 11.5042 2.9539L1.7648 20.5147C1.55973 20.8845 1.83187 21.3353 2.26015 21.3353H21.7398C22.1681 21.3353 22.4403 20.8844 22.2352 20.5147ZM23.7212 19.7175C24.5416 21.1966 23.453 23 21.7398 23H2.26015C0.547004 23 -0.541563 21.1967 0.278751 19.7176L10.0181 2.15679C10.8735 0.614444 13.1254 0.614394 13.9809 2.1567L23.7212 19.7175Z" fill="black"/>
</svg>
