<svg width="24" height="24" viewBox="0 0 24 24" fill="none" xmlns="http://www.w3.org/2000/svg">
<path d="M15.624 14.416C15.8538 14.0714 15.7607 13.6057 15.416 13.376C15.0714 13.1462 14.6057 13.2393 14.376 13.584L15.624 14.416ZM12.7696 17.3456L12.1456 16.9296L12.7696 17.3456ZM7.90799 14.4605L10.5562 17.8653L11.7402 16.9444L9.09201 13.5395L7.90799 14.4605ZM13.3936 17.7616L15.624 14.416L14.376 13.584L12.1456 16.9296L13.3936 17.7616ZM10.5562 17.8653C11.2895 18.8082 12.7311 18.7555 13.3936 17.7616L12.1456 16.9296C12.0509 17.0715 11.845 17.0791 11.7402 16.9444L10.5562 17.8653Z" fill="#29D305"/>
<path d="M12 11.25C14.8995 11.25 17.25 8.8995 17.25 6C17.25 3.10051 14.8995 0.75 12 0.75C9.10051 0.75 6.75 3.10051 6.75 6C6.75 8.8995 9.10051 11.25 12 11.25Z" stroke="black" stroke-width="1.5" stroke-linecap="round" stroke-linejoin="round"/>
<path d="M2.25 23.25C2.25 20.6641 3.27723 18.1842 5.10571 16.3557C6.93419 14.5272 9.41414 13.5 12 13.5C14.5859 13.5 17.0658 14.5272 18.8943 16.3557C20.7228 18.1842 21.75 20.6641 21.75 23.25" stroke="black" stroke-width="1.5" stroke-linecap="round" stroke-linejoin="round"/>
</svg>
