<svg width="24" height="24" viewBox="0 0 24 24" fill="none" xmlns="http://www.w3.org/2000/svg">
<g clip-path="url(#clip0)">
<path d="M12.8065 23.25C11.3259 23.25 9.8805 22.9595 8.50998 22.3882C8.3122 22.3056 8.15826 22.1513 8.07701 21.953C7.99576 21.7546 7.99577 21.536 8.07808 21.3377C8.20316 21.0364 8.49394 20.8424 8.81893 20.8424C8.92477 20.8424 9.02847 20.8628 9.12575 20.9035C10.3006 21.3934 11.5386 21.6421 12.8086 21.6421C15.292 21.6421 17.6472 20.6945 19.441 18.974C21.2883 17.201 22.3371 14.8096 22.3937 12.239C22.4504 9.66853 21.5075 7.23202 19.7404 5.3797C17.9166 3.46844 15.4556 2.41579 12.8097 2.41579C10.3263 2.41579 7.97225 3.36124 6.18266 5.07956C4.45828 6.73356 3.41595 8.95355 3.24704 11.3322C3.09738 13.4761 3.64794 15.5642 4.80999 17.3232V14.4076C4.80999 13.9638 5.1692 13.6036 5.61178 13.6036C6.05437 13.6036 6.41357 13.9638 6.41357 14.4076V19.2313C6.41357 19.6751 6.05437 20.0353 5.61178 20.0353H5.35735C5.34024 20.0374 5.32421 20.0385 5.30924 20.0385C5.29107 20.0385 5.27289 20.0374 5.25472 20.0353H0.801055C0.358469 20.0353 -0.000732422 19.6751 -0.000732422 19.2313C-0.000732422 18.7875 0.358469 18.4273 0.801055 18.4273H3.61907C2.27421 16.4893 1.56863 14.1578 1.62102 11.7781C1.62636 11.5305 1.6424 11.2711 1.67126 10.9624L1.67875 10.8809C1.68516 10.8101 1.69157 10.7405 1.69906 10.6697L1.70547 10.6215C2.02833 8.04347 3.22566 5.65305 5.08153 3.87256C7.18115 1.85946 9.9393 0.75 12.8471 0.75C14.3278 0.75 15.7742 1.03835 17.1436 1.60755C17.2505 1.6515 17.3446 1.71796 17.4216 1.8005C18.7322 2.39221 19.9018 3.22189 20.8992 4.26703C25.1658 8.73809 25.0086 15.8568 20.5496 20.1349C18.4564 22.1427 15.7068 23.2489 12.8086 23.2489H12.8065V23.25Z" fill="black"/>
</g>
<defs>
<clipPath id="clip0">
<path d="M-0.000732422 0H23.9993V24H-0.000732422V0Z" fill="white"/>
</clipPath>
</defs>
</svg>
