<svg width="24" height="24" viewBox="0 0 24 24" fill="none" xmlns="http://www.w3.org/2000/svg">
<path d="M12.8072 23.25C11.3266 23.25 9.88123 22.9595 8.51071 22.3882C8.31294 22.3056 8.15899 22.1513 8.07774 21.953C7.9965 21.7546 7.9965 21.536 8.07881 21.3377C8.20389 21.0364 8.49467 20.8424 8.81967 20.8424C8.9255 20.8424 9.0292 20.8628 9.12648 20.9035C10.3014 21.3934 11.5393 21.6421 12.8094 21.6421C15.2928 21.6421 17.6479 20.6945 19.4418 18.974C21.2891 17.201 22.3378 14.8096 22.3945 12.239C22.4511 9.66853 21.5082 7.23202 19.7411 5.3797C17.9173 3.46844 15.4563 2.41579 12.8104 2.41579C10.327 2.41579 7.97298 3.36124 6.18339 5.07956C4.45901 6.73356 3.41669 8.95355 3.24778 11.3322C3.09811 13.4761 3.64867 15.5642 4.81073 17.3232V14.4076C4.81073 13.9638 5.16993 13.6036 5.61251 13.6036C6.0551 13.6036 6.4143 13.9638 6.4143 14.4076L6.4143 19.2313C6.4143 19.6751 6.0551 20.0353 5.61251 20.0353H5.35808C5.34098 20.0374 5.32494 20.0385 5.30997 20.0385C5.2918 20.0385 5.27363 20.0374 5.25545 20.0353H0.801788C0.359201 20.0353 0 19.6751 0 19.2313C0 18.7875 0.359201 18.4273 0.801788 18.4273H3.6198C2.27494 16.4893 1.56937 14.1578 1.62175 11.7781C1.62709 11.5305 1.64313 11.2711 1.67199 10.9624L1.67948 10.8809C1.68589 10.8101 1.69231 10.7405 1.69979 10.6697L1.7062 10.6215C2.02906 8.04347 3.22639 5.65305 5.08227 3.87256C7.18188 1.85946 9.94003 0.75 12.8478 0.75C14.3285 0.75 15.7749 1.03835 17.1444 1.60755C17.2513 1.6515 17.3453 1.71796 17.4223 1.8005C18.733 2.39221 19.9025 3.22189 20.8999 4.26703C25.1665 8.73809 25.0094 15.8568 20.5504 20.1349C18.4572 22.1427 15.7076 23.2489 12.8094 23.2489H12.8072V23.25Z" fill="black"/>
</svg>
