<svg width="24" height="24" viewBox="0 0 24 24" fill="none" xmlns="http://www.w3.org/2000/svg">
<g clip-path="url(#clip0)">
<path d="M1.5 8.26705C1.10218 8.26705 0.720644 8.42509 0.43934 8.70639C0.158035 8.9877 0 9.36923 0 9.76705C0 10.1649 0.158035 10.5464 0.43934 10.8277C0.720644 11.109 1.10218 11.2671 1.5 11.2671C2.97682 11.222 4.44777 11.4722 5.82662 12.0031C7.20547 12.5339 8.46446 13.3347 9.52977 14.3585C10.5951 15.3823 11.4453 16.6085 12.0305 17.9651C12.6158 19.3218 12.9243 20.7816 12.938 22.2591C12.938 22.6569 13.096 23.0384 13.3773 23.3197C13.6586 23.601 14.0402 23.7591 14.438 23.7591C14.8358 23.7591 15.2174 23.601 15.4987 23.3197C15.78 23.0384 15.938 22.6569 15.938 22.2591C15.9284 20.3865 15.5451 18.5347 14.8105 16.8123C14.0759 15.0898 13.0049 13.5313 11.6602 12.2281C10.3155 10.9249 8.72416 9.90331 6.97949 9.22313C5.23482 8.54296 3.37192 8.21791 1.5 8.26705Z" fill="black"/>
<path d="M1.53101 0.237061C1.13318 0.237061 0.75165 0.395096 0.470346 0.6764C0.189041 0.957705 0.0310059 1.33924 0.0310059 1.73706C0.0310059 2.13489 0.189041 2.51642 0.470346 2.79772C0.75165 3.07903 1.13318 3.23706 1.53101 3.23706C12.448 3.23706 21 11.5921 21 22.2591C21 22.6569 21.158 23.0384 21.4393 23.3197C21.7207 23.601 22.1022 23.7591 22.5 23.7591C22.8978 23.7591 23.2794 23.601 23.5607 23.3197C23.842 23.0384 24 22.6569 24 22.2591C24 9.91006 14.13 0.237061 1.53101 0.237061Z" fill="black"/>
<path d="M3.5 23.748C5.433 23.748 7 22.181 7 20.248C7 18.3151 5.433 16.748 3.5 16.748C1.567 16.748 0 18.3151 0 20.248C0 22.181 1.567 23.748 3.5 23.748Z" fill="black"/>
</g>
<defs>
<clipPath id="clip0">
<rect width="24" height="24" fill="white"/>
</clipPath>
</defs>
</svg>
