<svg width="24" height="24" viewBox="0 0 24 24" fill="none" xmlns="http://www.w3.org/2000/svg">
<g clip-path="url(#clip0)">
<path fill-rule="evenodd" clip-rule="evenodd" d="M19.0222 1.74656C19.165 1.60375 19.3588 1.52353 19.5608 1.52353C19.7626 1.52353 19.9565 1.6039 20.0993 1.74656L22.2527 3.90402C22.3947 4.04675 22.4744 4.23991 22.4744 4.44127C22.4744 4.64276 22.3945 4.83599 22.2523 4.97875L22.2442 4.98716C22.0334 5.20543 21.7812 5.37953 21.5024 5.4993C21.2236 5.61907 20.9237 5.68211 20.6203 5.68475C20.3169 5.68738 20.0159 5.62956 19.7351 5.51466C19.4542 5.39975 19.1991 5.23006 18.9845 5.01549C18.7699 4.80091 18.6002 4.54576 18.4853 4.2649C18.3704 3.98405 18.3126 3.68313 18.3152 3.37968C18.3179 3.07624 18.3809 2.77637 18.5007 2.49756C18.6205 2.21874 18.7946 1.96665 19.0129 1.75584L19.0222 1.74656ZM19.5608 0C18.9571 0 18.378 0.238863 17.9499 0.66426C17.5882 1.01473 17.2996 1.43346 17.1009 1.89623C16.9012 2.36092 16.7962 2.86071 16.7918 3.36645C16.7874 3.87218 16.8837 4.37372 17.0753 4.84181C17.1696 5.07252 17.2862 5.29283 17.423 5.49976L10.4039 12.5189L7.17227 9.28732C6.87486 8.98991 6.39268 8.98983 6.09517 9.28713L1.78542 13.5938C0.642236 14.737 0 16.2875 0 17.9042C0 19.5209 0.642236 21.0714 1.78542 22.2146C2.92861 23.3578 4.47911 24 6.09582 24C7.71253 24 9.26309 23.3577 10.4063 22.2146L14.7148 17.905C14.8577 17.7621 14.9379 17.5683 14.9379 17.3663C14.9378 17.1642 14.8575 16.9704 14.7146 16.8276L13.0986 15.2127C12.801 14.9153 12.3187 14.9154 12.0213 15.213C11.7239 15.5106 11.7241 15.9929 12.0217 16.2903L13.0987 17.3666L9.32885 21.1374C8.47139 21.9948 7.30843 22.4765 6.09582 22.4765C4.88317 22.4765 3.72019 21.9948 2.86272 21.1373C2.00525 20.2799 1.52353 19.1169 1.52353 17.9042C1.52353 16.6917 2.00537 15.5286 2.86272 14.6711L6.63343 10.9031L9.32658 13.5962L7.1716 15.7512C6.87411 16.0487 6.87411 16.531 7.1716 16.8285C7.46909 17.126 7.95141 17.126 8.2489 16.8285L18.5003 6.57704C18.7072 6.7138 18.9275 6.83035 19.1582 6.92473C19.6263 7.11624 20.1278 7.21261 20.6335 7.20822C21.1393 7.20382 21.6391 7.09875 22.1038 6.89914C22.5667 6.70025 22.9856 6.41148 23.3362 6.04958C23.7601 5.6217 23.998 5.04371 23.998 4.44127C23.998 3.83678 23.7579 3.25633 23.3313 2.82802L21.1765 0.669102C20.7479 0.240677 20.1667 0 19.5608 0Z" fill="black"/>
</g>
<defs>
<clipPath id="clip0">
<rect width="24" height="24" fill="white"/>
</clipPath>
</defs>
</svg>
