<svg width="24" height="24" viewBox="0 0 24 24" fill="none" xmlns="http://www.w3.org/2000/svg">
<path fill-rule="evenodd" clip-rule="evenodd" d="M17.7885 0.0794919C17.665 0.130615 17.5492 0.206398 17.4487 0.306841L12.6868 5.06875C12.2777 5.47787 12.2777 6.14118 12.6868 6.5503C13.096 6.95942 13.7593 6.95942 14.1684 6.5503L17.1419 3.57679V22.9524C17.1419 23.531 17.6109 24 18.1895 24C18.7681 24 19.2371 23.531 19.2371 22.9524V3.57679L22.2107 6.5503C22.6198 6.95942 23.2831 6.95942 23.6922 6.5503C24.1013 6.14118 24.1013 5.47787 23.6922 5.06875L18.9303 0.306841C18.7407 0.117259 18.4788 0 18.1895 0L17.7885 0.0794919ZM5.06833 23.6927L0.306842 18.9313C-0.102279 18.5221 -0.102279 17.8588 0.306842 17.4497C0.715963 17.0406 1.37928 17.0406 1.7884 17.4497L4.76191 20.4232L4.76191 1.04762C4.76191 0.469035 5.23094 0 5.80953 0C6.38811 0 6.85715 0.469035 6.85715 1.04762L6.85714 20.4232L9.83065 17.4497C10.2398 17.0406 10.9031 17.0406 11.3122 17.4497C11.7213 17.8588 11.7213 18.5221 11.3122 18.9313L6.5503 23.6932C6.44986 23.7936 6.3341 23.8694 6.21054 23.9205C6.08702 23.9717 5.95157 24 5.80953 24C5.66748 24 5.53204 23.9717 5.40851 23.9205C5.28586 23.8698 5.1709 23.7947 5.07097 23.6954" fill="black"/>
</svg>
