<svg width="24" height="24" viewBox="0 0 24 24" fill="none" xmlns="http://www.w3.org/2000/svg">
<path fill-rule="evenodd" clip-rule="evenodd" d="M18.8354 16.3277C19.3215 16.7918 19.3215 17.5285 18.8354 17.9927L12.9251 23.637C12.4182 24.121 11.5818 24.121 11.0749 23.637L5.16454 17.9927C4.67847 17.5285 4.67847 16.7918 5.16454 16.3277C5.67141 15.8436 6.50782 15.8436 7.0147 16.3277L10.7104 19.8569L10.7104 1.19555C10.7104 0.569595 11.2526 -2.60213e-06 12 -2.53679e-06C12.7474 -2.47146e-06 13.2896 0.569595 13.2896 1.19555L13.2896 19.8569L16.9853 16.3277C17.4922 15.8436 18.3286 15.8436 18.8354 16.3277Z" fill="black"/>
</svg>
