<svg width="24" height="24" viewBox="0 0 24 24" fill="none" xmlns="http://www.w3.org/2000/svg">
<path d="M19.2072 24C18.7702 24 18.4155 23.625 18.4155 23.163V22.3249C18.4155 20.0171 16.64 18.14 14.457 18.14H12.8735C12.4365 18.14 12.0818 17.7651 12.0818 17.3031V9.7703C12.0818 9.3083 11.7271 8.93333 11.2901 8.93333C10.8531 8.93333 10.4984 9.3083 10.4984 9.7703V19.814C10.4984 20.1588 10.2936 20.4735 9.98854 20.5963C9.89776 20.632 9.80381 20.651 9.70775 20.651C9.48079 20.651 9.26544 20.5483 9.11555 20.3697L7.07293 17.9392C6.91142 17.7472 6.67919 17.6379 6.43534 17.6379C6.22633 17.6379 6.02576 17.7182 5.86953 17.8644C5.51801 18.1936 5.48634 18.765 5.7988 19.1366L8.71653 22.6073C8.85692 22.7746 8.92765 22.9889 8.91498 23.2121C8.90231 23.4353 8.80836 23.6406 8.65108 23.7891C8.5054 23.9252 8.31961 24 8.12538 24C7.89948 24 7.68308 23.8973 7.53318 23.7188L4.61546 20.2481C4.18371 19.7348 3.96625 19.073 4.00426 18.3867C4.04226 17.7004 4.3315 17.0698 4.81814 16.6134C5.26361 16.1949 5.83786 15.9639 6.43534 15.9639C7.13205 15.9639 7.79603 16.2786 8.25628 16.8277L8.91604 17.6133V9.77142C8.91604 8.38651 9.98115 7.2605 11.2912 7.2605C12.6012 7.2605 13.6663 8.38651 13.6663 9.77142V16.4672H14.458C17.514 16.4672 20 19.0953 20 22.326V23.1641C19.9989 23.6239 19.6443 24 19.2072 24Z" fill="black"/>
<path d="M7.10455 10.5043C7.33379 10.3693 7.50291 10.1435 7.57473 9.87671C7.64656 9.60989 7.61519 9.32383 7.48755 9.08145C7.1156 8.37232 6.9232 7.57366 6.92898 6.76283C6.93477 5.95201 7.13855 5.1565 7.52058 4.45339C7.90262 3.75028 8.44995 3.1634 9.10955 2.7496C9.76916 2.3358 10.5187 2.10911 11.2855 2.09149C12.0523 2.07388 12.8104 2.26594 13.4864 2.64906C14.1624 3.03218 14.7333 3.59338 15.1439 4.27828C15.5545 4.96319 15.7907 5.74858 15.8298 6.55838C15.8689 7.36817 15.7095 8.17492 15.3671 8.90046C15.3089 9.02335 15.2742 9.15716 15.265 9.29422C15.2557 9.43129 15.2721 9.56895 15.3132 9.69932C15.3543 9.8297 15.4192 9.95024 15.5044 10.0541C15.5895 10.1579 15.6932 10.243 15.8094 10.3045C15.9257 10.366 16.0522 10.4026 16.1819 10.4124C16.3116 10.4222 16.4418 10.4049 16.5651 10.3614C16.6884 10.318 16.8024 10.2493 16.9007 10.1593C16.9989 10.0693 17.0794 9.95972 17.1375 9.83682C17.6322 8.78877 17.8625 7.62341 17.806 6.45364C17.7495 5.28388 17.4081 4.14937 16.815 3.16004C16.2219 2.17071 15.3972 1.3601 14.4207 0.806744C13.4442 0.253393 12.349 -0.023939 11.2413 0.00161954C10.1336 0.0271781 9.05098 0.35476 8.09824 0.952628C7.1455 1.55049 6.35498 2.39838 5.80327 3.41412C5.25156 4.42987 4.95738 5.57904 4.94921 6.7503C4.94105 7.92156 5.21918 9.07519 5.75667 10.0994C5.88663 10.3398 6.10051 10.5169 6.35248 10.5926C6.60444 10.6682 6.87442 10.6366 7.10455 10.5043Z" fill="#29D305"/>
</svg>
