<svg width="24" height="24" viewBox="0 0 24 24" fill="none" xmlns="http://www.w3.org/2000/svg">
<g clip-path="url(#clip0)">
<path fill-rule="evenodd" clip-rule="evenodd" d="M12.0018 10.6761C11.8055 10.6761 11.6173 10.7541 11.4784 10.8929C11.3396 11.0317 11.2617 11.22 11.2617 11.4163V20.2983C11.2617 20.6056 11.0717 20.881 10.7845 20.9902C10.4972 21.0994 10.1723 21.0197 9.96817 20.7899L8.05763 18.6396C8.05761 18.6395 8.05758 18.6395 8.05756 18.6395C7.9172 18.4816 7.71988 18.3859 7.50899 18.3735C7.29806 18.3611 7.09083 18.4329 6.9329 18.5733C6.77496 18.7137 6.67926 18.911 6.66683 19.122C6.65441 19.3329 6.72628 19.5401 6.86665 19.698L9.59441 22.7673C9.86596 23.0728 9.8384 23.5406 9.53286 23.8122C9.22731 24.0838 8.75947 24.0562 8.48791 23.7506L5.76016 20.6814C5.35898 20.23 5.15355 19.6378 5.18906 19.0349C5.22457 18.432 5.49811 17.868 5.94951 17.4668C6.4009 17.0656 6.99318 16.8602 7.59603 16.8957C8.19889 16.9312 8.76295 17.2048 9.16412 17.6562L9.1642 17.6562L9.78133 18.3508V11.4163C9.78133 10.8274 10.0153 10.2626 10.4317 9.84617C10.8481 9.42975 11.4129 9.1958 12.0018 9.1958C12.5907 9.1958 13.1555 9.42975 13.572 9.84617C13.9884 10.2626 14.2223 10.8274 14.2223 11.4163V17.3376H14.9625C16.3366 17.3376 17.6545 17.8835 18.6261 18.8552C19.5978 19.8268 20.1436 21.1447 20.1436 22.5188V23.2599C20.1436 23.6687 19.8123 24.0001 19.4035 24.0001C18.9947 24.0001 18.6633 23.6687 18.6633 23.2599V22.5188C18.6633 21.5373 18.2734 20.5959 17.5794 19.9019C16.8853 19.2079 15.944 18.818 14.9625 18.818H13.4822C13.0734 18.818 12.742 18.4866 12.742 18.0778V11.4163C12.742 11.22 12.664 11.0317 12.5252 10.8929C12.3864 10.7541 12.1981 10.6761 12.0018 10.6761Z" fill="black"/>
<path fill-rule="evenodd" clip-rule="evenodd" d="M7.2412 1.53683C8.62747 0.537665 10.293 0 12.0018 0C13.7106 0 15.3761 0.537665 16.7624 1.53683C18.1487 2.536 19.1854 3.94602 19.7258 5.56715C20.2662 7.18829 20.2828 8.93836 19.7733 10.5695C19.2638 12.2006 18.254 13.63 16.8869 14.6553C16.5599 14.9006 16.0959 14.8343 15.8507 14.5073C15.6054 14.1802 15.6717 13.7163 15.9987 13.471C17.1172 12.6321 17.9434 11.4626 18.3603 10.1281C18.7772 8.79353 18.7636 7.36166 18.3215 6.03528C17.8793 4.70889 17.0311 3.55524 15.8969 2.73774C14.7626 1.92024 13.3999 1.48033 12.0018 1.48033C10.6037 1.48033 9.24099 1.92024 8.10677 2.73774C6.97254 3.55524 6.12429 4.70889 5.68216 6.03528C5.24004 7.36166 5.22645 8.79353 5.64333 10.1281C6.0602 11.4626 6.88641 12.6321 8.00491 13.471C8.33194 13.7163 8.39822 14.1802 8.15295 14.5073C7.90768 14.8343 7.44374 14.9006 7.11672 14.6553C5.74965 13.63 4.73984 12.2006 4.23033 10.5695C3.72081 8.93836 3.73742 7.18829 4.2778 5.56715C4.81818 3.94602 5.85493 2.536 7.2412 1.53683Z" fill="#29D305"/>
</g>
<defs>
<clipPath id="clip0">
<rect width="24" height="24" fill="white"/>
</clipPath>
</defs>
</svg>
