<svg width="24" height="24" viewBox="0 0 24 24" fill="none" xmlns="http://www.w3.org/2000/svg">
<path d="M10.3074 20.2494C10.2295 20.2494 10.1494 20.2372 10.0636 20.2116C10.0433 20.205 10.023 20.1983 10.0027 20.1905C9.98352 20.185 9.95531 20.175 9.9271 20.1605C9.88647 20.1405 9.84584 20.115 9.80748 20.0872C9.80183 20.0828 9.78942 20.0739 9.78942 20.0739C9.72623 20.025 9.6698 19.9672 9.61902 19.8972C9.61451 19.8906 9.59645 19.865 9.59194 19.8583C9.55357 19.7972 9.5231 19.7328 9.50166 19.665C9.49602 19.6494 9.49037 19.6339 9.48699 19.6183L8.64062 16.2851C8.52778 15.8396 8.80313 15.3863 9.25678 15.274C9.32336 15.2585 9.39219 15.2496 9.46103 15.2496C9.85036 15.2496 10.1878 15.5096 10.2826 15.8807L10.5737 17.0284L12.324 13.583H9.46103C9.17553 13.583 8.91146 13.443 8.7546 13.2086C8.59774 12.9741 8.57066 12.6797 8.68351 12.4219L11.2226 6.58879C11.3569 6.28213 11.6627 6.08325 12.0012 6.08325C12.1164 6.08325 12.2281 6.10547 12.3341 6.15103C12.763 6.33213 12.9627 6.82323 12.7788 7.24543L10.7441 11.9164H13.6928C13.984 11.9164 14.2593 12.0675 14.4128 12.3108C14.5685 12.5597 14.5821 12.8619 14.4501 13.1219L11.8873 18.1684L13.4875 17.7751C13.5563 17.7584 13.624 17.7506 13.6928 17.7506C14.0822 17.7506 14.4207 18.0095 14.5144 18.3817C14.6272 18.8273 14.3519 19.2806 13.8994 19.3917L10.5139 20.225C10.4451 20.2405 10.3762 20.2494 10.3074 20.2494Z" fill="black"/>
<path d="M21.7173 23.2538L2.28269 23.2338C1.88888 23.2415 1.50003 23.145 1.15537 22.9543C0.81071 22.7636 0.522437 22.4853 0.319636 22.1476C0.116836 21.8098 0.00668422 21.4245 0.000294734 21.0306C-0.00609476 20.6367 0.0915043 20.248 0.283244 19.9038L10.0305 1.92384C10.2226 1.56883 10.507 1.27233 10.8537 1.06571C11.2004 0.859081 11.5964 0.75 12 0.75C12.4036 0.75 12.7996 0.859081 13.1463 1.06571C13.493 1.27233 13.7774 1.56883 13.9695 1.92384L23.7168 19.9238C23.9085 20.268 24.0061 20.6567 23.9997 21.0506C23.9933 21.4445 23.8832 21.8298 23.6804 22.1676C23.4776 22.5053 23.1893 22.7836 22.8446 22.9743C22.5 23.165 22.1111 23.2615 21.7173 23.2538ZM12.03 2.23384C11.8955 2.23554 11.7639 2.27244 11.6481 2.34086C11.5323 2.40929 11.4365 2.50685 11.3702 2.62384L1.63287 20.6238C1.5689 20.7367 1.53528 20.8641 1.53528 20.9938C1.53528 21.1235 1.5689 21.251 1.63287 21.3638C1.70083 21.4757 1.79615 21.5683 1.90985 21.6331C2.02355 21.6978 2.15187 21.7325 2.28269 21.7338H21.7773C21.9081 21.7325 22.0364 21.6978 22.1501 21.6331C22.2638 21.5683 22.3592 21.4757 22.4271 21.3638C22.4884 21.2501 22.5204 21.123 22.5204 20.9938C22.5204 20.8647 22.4884 20.7375 22.4271 20.6238L12.6798 2.62384C12.6143 2.50829 12.5201 2.41165 12.4062 2.34331C12.2923 2.27498 12.1627 2.23726 12.03 2.23384Z" fill="#FFA000"/>
</svg>
