<svg width="24" height="24" viewBox="0 0 24 24" fill="none" xmlns="http://www.w3.org/2000/svg">
<g clip-path="url(#clip0)">
<path fill-rule="evenodd" clip-rule="evenodd" d="M12.7069 5.79367L11.9832 6.36848H11.9232H10.0858C9.67417 6.37426 9.28067 6.53613 8.98737 6.82032C8.75052 7.07651 8.56978 7.37788 8.4564 7.70571C8.34301 8.03353 8.29941 8.3808 8.3283 8.72591V12.7532C8.3283 12.7792 8.31778 12.8042 8.29905 12.8226C8.28032 12.8411 8.25492 12.8514 8.22844 12.8514H3.51507C3.29388 12.8698 3.07866 12.9314 2.88201 13.0327C2.68536 13.134 2.51125 13.2729 2.36988 13.4412C2.22851 13.6096 2.12272 13.804 2.05873 14.013C1.99473 14.2221 1.97381 14.4416 1.9972 14.6588V17.468C2.00867 17.7703 2.05558 18.0702 2.137 18.3619C1.52025 18.5035 0.971564 18.8489 0.582615 19.3406C0.193665 19.8322 -0.0119899 20.4402 8.5067e-06 21.0631V21.3872C-0.00265337 22.0759 0.272239 22.7375 0.764485 23.2273C1.25673 23.717 1.92621 23.9949 2.62632 24.0001H15.4083C16.1084 23.9949 16.7779 23.717 17.2702 23.2273C17.7624 22.7375 18.0373 22.0759 18.0346 21.3872V21.0631C18.0405 20.4628 17.8493 19.8767 17.4895 19.3919C17.1297 18.907 16.6204 18.5492 16.0375 18.3717C16.0242 18.3702 16.0116 18.3655 16.0007 18.358C15.9898 18.3505 15.9809 18.3405 15.975 18.3288C15.969 18.3171 15.9661 18.3041 15.9666 18.291C15.967 18.2779 15.9708 18.2651 15.9775 18.2538C16.134 17.799 16.1752 17.3134 16.0974 16.8394C15.8777 15.1695 15.2486 10.6413 14.939 8.49017C14.9273 8.46181 14.9273 8.43011 14.939 8.40176L15.9775 7.51773L20.1117 13.8828C20.1205 13.891 20.1275 13.9009 20.1322 13.9119C20.137 13.9229 20.1394 13.9347 20.1394 13.9466C20.1394 13.9586 20.137 13.9704 20.1322 13.9813C20.1275 13.9923 20.1205 14.0022 20.1117 14.0105L18.1145 15.4642C17.9703 15.5635 17.8589 15.7023 17.7941 15.8633C17.7293 16.0244 17.7141 16.2006 17.7503 16.3701C17.7864 16.5396 17.8724 16.6949 17.9975 16.8167C18.1226 16.9386 18.2814 17.0216 18.4541 17.0555L22.9677 18.0967C23.0947 18.1274 23.2274 18.1273 23.3543 18.0965C23.4813 18.0657 23.5988 18.0051 23.6967 17.9199C23.801 17.8346 23.8828 17.7257 23.935 17.6025C23.9872 17.4794 24.0082 17.3456 23.9963 17.2126L23.6867 12.9398C23.6822 12.7902 23.6374 12.6444 23.5569 12.5174L18.353 4.76172C17.9849 4.89455 17.6068 5.01523 17.2206 5.12342L22.2687 12.4978L21.2102 13.2541L15.9088 5.43679C15.5278 5.51274 15.1414 5.5771 14.7513 5.62958L15.3884 6.55511L14.5995 7.2427C14.3851 6.9087 14.0901 6.63201 13.7407 6.43724L14.7118 5.63486C14.0717 5.7196 13.4219 5.77238 12.7695 5.7919C12.7487 5.79252 12.7278 5.79311 12.7069 5.79367ZM22.7181 13.5193L22.8978 16.8394C22.8986 16.8552 22.8954 16.8709 22.8886 16.8853C22.8819 16.8996 22.8717 16.9121 22.8589 16.9218C22.8462 16.9314 22.8313 16.9379 22.8154 16.9407C22.7996 16.9434 22.7833 16.9424 22.768 16.9376L19.4227 16.1518C19.4058 16.1438 19.3916 16.1312 19.3816 16.1156C19.3716 16.0999 19.3664 16.0818 19.3664 16.0634C19.3664 16.0449 19.3716 16.0269 19.3816 16.0112C19.3916 15.9956 19.4058 15.983 19.4227 15.975L22.7181 13.5193ZM14.6993 18.0377C14.5107 18.199 14.2702 18.2895 14.0203 18.2931H3.62491C3.53461 18.2988 3.44546 18.2707 3.37526 18.2145C3.26296 17.9962 3.21784 17.7505 3.24544 17.5073V14.6588C3.24544 14.2364 3.44516 14.1578 3.55501 14.1578H9.48667H9.63646V13.5292V8.74555V8.53928C9.63646 7.98921 9.63646 7.89099 9.75629 7.77312C9.79642 7.72743 9.84777 7.69261 9.90546 7.67198C9.96314 7.65135 10.0252 7.64559 10.0858 7.65525H13.1415C13.232 7.65808 13.3195 7.68773 13.3926 7.74032C13.4656 7.7929 13.5208 7.86596 13.551 7.94992C13.551 7.94992 14.5495 14.8257 14.8292 17.0064C14.8727 17.1829 14.8764 17.3667 14.8402 17.5449C14.804 17.723 14.7286 17.8912 14.6195 18.0377H14.6993ZM1.2882 21.0631C1.28108 20.6921 1.41558 20.332 1.66514 20.0538C1.91471 19.7756 2.26122 19.5995 2.6363 19.5602H15.4183C15.7916 19.6018 16.1357 19.7789 16.3832 20.0568C16.6307 20.3348 16.7638 20.6937 16.7564 21.0631V21.3872C16.7578 21.5614 16.7242 21.7341 16.6577 21.8955C16.5911 22.0568 16.4929 22.2037 16.3687 22.3278C16.2444 22.4518 16.0965 22.5506 15.9335 22.6184C15.7704 22.6863 15.5954 22.7218 15.4183 22.7231H2.6363C2.27785 22.7205 1.93497 22.5786 1.68244 22.3284C1.4299 22.0781 1.28819 21.7398 1.2882 21.3872V21.0631Z" fill="black"/>
<path fill-rule="evenodd" clip-rule="evenodd" d="M22.3738 1.11133C22.6244 0.871891 22.635 0.473167 22.3975 0.220758C22.1601 -0.0316514 21.7645 -0.0421632 21.5139 0.197279C19.6085 2.01845 16.2437 3.19498 12.6478 3.30257C9.06131 3.40987 5.38594 2.44908 2.85377 0.170144C2.59635 -0.0615328 2.20125 -0.0389327 1.97128 0.220622C1.74132 0.480177 1.76358 0.878399 2.021 1.11008C4.86226 3.66719 8.8873 4.67551 12.6843 4.56191C16.4719 4.44859 20.1736 3.21419 22.3738 1.11133Z" fill="#29D305"/>
<path d="M5.25 22.5C5.94036 22.5 6.5 21.9404 6.5 21.25C6.5 20.5596 5.94036 20 5.25 20C4.55964 20 4 20.5596 4 21.25C4 21.9404 4.55964 22.5 5.25 22.5Z" fill="black"/>
<path d="M12.25 22.5C12.9404 22.5 13.5 21.9404 13.5 21.25C13.5 20.5596 12.9404 20 12.25 20C11.5596 20 11 20.5596 11 21.25C11 21.9404 11.5596 22.5 12.25 22.5Z" fill="black"/>
</g>
<defs>
<clipPath id="clip0">
<path d="M0 0H24V24H0V0Z" fill="white"/>
</clipPath>
</defs>
</svg>
