<svg width="24" height="24" fill="none" xmlns="http://www.w3.org/2000/svg"><path d="M4.969 14.945a2.49 2.49 0 0 1-2.485 2.484A2.49 2.49 0 0 1 0 14.945a2.49 2.49 0 0 1 2.484-2.485H4.97v2.485zm1.252 0a2.49 2.49 0 0 1 2.484-2.485 2.49 2.49 0 0 1 2.485 2.485v6.22a2.49 2.49 0 0 1-2.485 2.485 2.49 2.49 0 0 1-2.484-2.484v-6.221z" fill="#E01E5A"/><path d="M8.705 4.969a2.49 2.49 0 0 1-2.484-2.485A2.49 2.49 0 0 1 8.705 0a2.49 2.49 0 0 1 2.485 2.484V4.97H8.705zm0 1.252a2.49 2.49 0 0 1 2.485 2.484 2.49 2.49 0 0 1-2.485 2.485h-6.22A2.49 2.49 0 0 1 0 8.705a2.49 2.49 0 0 1 2.484-2.484h6.221z" fill="#36C5F0"/><path d="M18.682 8.705a2.49 2.49 0 0 1 2.484-2.484 2.49 2.49 0 0 1 2.485 2.484 2.49 2.49 0 0 1-2.485 2.485h-2.484V8.705zm-1.252 0a2.49 2.49 0 0 1-2.485 2.485 2.49 2.49 0 0 1-2.484-2.485v-6.22A2.49 2.49 0 0 1 14.945 0a2.49 2.49 0 0 1 2.485 2.484v6.221z" fill="#2EB67D"/><path d="M14.945 18.681a2.49 2.49 0 0 1 2.485 2.485 2.49 2.49 0 0 1-2.485 2.484 2.49 2.49 0 0 1-2.484-2.484V18.68h2.484zm0-1.252a2.49 2.49 0 0 1-2.484-2.484 2.49 2.49 0 0 1 2.484-2.485h6.221a2.49 2.49 0 0 1 2.485 2.485 2.49 2.49 0 0 1-2.485 2.484h-6.22z" fill="#ECB22E"/></svg>