<svg width="56" height="56" fill="none" xmlns="http://www.w3.org/2000/svg"><g clip-path="url(#clip0_3571_54815)"><path fill="#F4F4F4" d="M0 0H56V56H0z"/><rect x="4" y="40" width="48" height="8" rx="4" fill="#fff"/><rect x="4" y="28" width="48" height="8" rx="4" fill="#fff"/><circle cx="12" cy="16" r="8" fill="#fff"/><path d="M23.96 20l2.88-7h1.67l2.85 7h-1.57l-.71-1.84h-2.89L25.47 20h-1.51zm2.68-3h2l-1-2.58-1 2.58zm6.884 3.09c-.373 0-.703-.067-.99-.2-.286-.14-.51-.33-.67-.57-.16-.24-.24-.517-.24-.83 0-.5.187-.887.56-1.16.38-.28.9-.42 1.56-.42.454 0 .88.07 1.28.21v-.38c0-.3-.093-.527-.28-.68-.186-.153-.46-.23-.82-.23-.22 0-.456.037-.71.11a6.08 6.08 0 0 0-.88.32l-.5-1.01a7.017 7.017 0 0 1 1.18-.42c.38-.093.76-.14 1.14-.14.7 0 1.244.17 1.63.51.394.333.59.807.59 1.42V20h-1.35v-.37c-.213.16-.443.277-.69.35-.246.073-.516.11-.81.11zm-.6-1.63c0 .2.087.36.26.48.174.113.404.17.69.17.227 0 .437-.027.63-.08a1.73 1.73 0 0 0 .52-.26v-.76a2.733 2.733 0 0 0-.52-.15 3.189 3.189 0 0 0-.58-.05c-.313 0-.56.06-.74.18a.533.533 0 0 0-.26.47z" fill="#000"/><circle cx="50" cy="6" r="2" fill="#29D305"/></g><defs><clipPath id="clip0_3571_54815"><rect width="56" height="56" rx="2" fill="#fff"/></clipPath></defs></svg>