<svg width="40" height="40" fill="none" xmlns="http://www.w3.org/2000/svg"><g clip-path="url(#clip0_5144_198)" fill-rule="evenodd" clip-rule="evenodd"><path d="M33.022 21.225c.042.005.084.012.126.021A8.75 8.75 0 0 1 40 29.788v1.483a3.75 3.75 0 0 1-3.75 3.75H30a3.75 3.75 0 0 1-3.75-3.75 1.25 1.25 0 0 0-1.25-1.25H15a1.25 1.25 0 0 0-1.25 1.25 3.75 3.75 0 0 1-3.75 3.75H3.75A3.75 3.75 0 0 1 0 31.272V29.79m33.022-8.564a68.938 68.938 0 0 0-26.043-.005 1.264 1.264 0 0 0-.127.021A8.75 8.75 0 0 0 0 29.79m7.142-7.328v.083l.122.552-.122-.634zm.236 1.224A6.25 6.25 0 0 0 2.5 29.787v1.485a1.25 1.25 0 0 0 1.25 1.25H10a1.25 1.25 0 0 0 1.25-1.25 3.75 3.75 0 0 1 3.75-3.75h10a3.75 3.75 0 0 1 3.75 3.75 1.25 1.25 0 0 0 1.25 1.25h6.25a1.25 1.25 0 0 0 1.25-1.25v-1.484a6.25 6.25 0 0 0-4.82-6.084 66.44 66.44 0 0 0-25.3-.015l-.002-.004z" fill="var(--e-color-icon-stroke-1)"/><path d="M20 5.022c.69 0 1.25.56 1.25 1.25v8.75a1.25 1.25 0 0 1-2.5 0v-8.75c0-.69.56-1.25 1.25-1.25zM6.857 7.7a1.25 1.25 0 0 1 1.715.428l3.75 6.25a1.25 1.25 0 0 1-2.144 1.287l-3.75-6.25a1.25 1.25 0 0 1 .43-1.715zm26.286 0a1.25 1.25 0 0 1 .43 1.715l-3.75 6.25a1.25 1.25 0 0 1-2.145-1.287l3.75-6.25a1.25 1.25 0 0 1 1.715-.428z" fill="var(--e-color-icon-positive)"/></g><defs><clipPath id="clip0_5144_198"><path fill="#fff" d="M0 0H40V40H0z"/></clipPath></defs></svg>