<svg fill="none" height="40" width="40" xmlns="http://www.w3.org/2000/svg"><clipPath id="a"><path d="M0 0h40v40H0z"/></clipPath><g clip-path="url(#a)" clip-rule="evenodd" fill-rule="evenodd"><path d="M21.232 0a18.722 18.722 0 0 1 14.974 7.437 18.757 18.757 0 0 1 3.078 16.446 18.754 18.754 0 0 1-11.27 12.358 18.72 18.72 0 0 1-16.05-1.215L1.786 39.878a1.248 1.248 0 0 1-1.665-1.665l4.847-10.188a18.737 18.737 0 0 1 6.768-25.449A18.698 18.698 0 0 1 21.232 0zm0 1.25l-.001 1.25a16.202 16.202 0 0 0-14.19 8.336 16.236 16.236 0 0 0 .403 16.462c.224.362.25.813.067 1.198l-3.62 7.61 7.602-3.625a1.248 1.248 0 0 1 1.197.068 16.228 16.228 0 0 0 20.568-2.845 16.255 16.255 0 0 0 3.966-13.946 16.257 16.257 0 0 0-8.741-11.564A16.226 16.226 0 0 0 21.235 2.5z" fill="var(--e-color-icon-stroke-1)"/><g fill="var(--e-color-icon-positive)"><path d="M20.208 24.066a1.875 1.875 0 1 1 2.084 3.118 1.875 1.875 0 0 1-2.084-3.118zm1.281 2.136a.63.63 0 0 0 .338-.338.624.624 0 1 0-.338.338zm.493-13.63A3.75 3.75 0 0 0 17.5 16.25a1.25 1.25 0 1 1-2.5 0 6.25 6.25 0 1 1 6.25 6.25 1.25 1.25 0 1 1 0-2.5 3.75 3.75 0 0 0 .732-7.428z"/></g></g></svg>