<svg width="40" height="40" fill="none" xmlns="http://www.w3.org/2000/svg"><g clip-path="url(#clip0_5144_194)" fill-rule="evenodd" clip-rule="evenodd"><path d="M5.978 31.027a2.262 2.262 0 0 0-1.851.761c-.855.855-1.189 2.267-1.224 3.73-.013.57.02 1.098.064 1.524.427.044.956.077 1.527.063 1.466-.035 2.877-.37 3.729-1.221l1.023 1.024-.983-1.063a2.262 2.262 0 0 0-.234-3.51 1.446 1.446 0 0 1-.351-.352 2.262 2.262 0 0 0-1.7-.956zm4.273 6.924c-1.658 1.642-4.01 2.009-5.686 2.05a15.162 15.162 0 0 1-3.095-.253l-.057-.012-.017-.004-.006-.001h-.002s-.002 0 .307-1.416c-1.414.312-1.414.311-1.414.31l-.001-.002-.001-.006-.004-.018-.012-.057a13.668 13.668 0 0 1-.139-.872 15.098 15.098 0 0 1-.116-2.221c.04-1.677.407-4.03 2.051-5.69a5.158 5.158 0 0 1 7.839.357 5.158 5.158 0 0 1 .353 7.835zm-8.556.364l-1.414.31c.121.553.555.985 1.107 1.105l.307-1.415z" fill="var(--e-color-icon-positive)"/><path d="M39.58.42a1.448 1.448 0 0 1 0 2.047l-2.524 2.524a1.448 1.448 0 1 1-2.048-2.048L37.532.419a1.448 1.448 0 0 1 2.048 0z" fill="var(--e-color-icon-stroke-1)"/><path d="M27.184 2.183l.086.001 8.818.336a1.448 1.448 0 0 1 1.392 1.392l.336 8.818-1.447.055 1.448.032a9.389 9.389 0 0 1-4.34 7.711l-.03.019-15.866 9.579a1.448 1.448 0 0 1-1.773-.217l-5.726-5.734a1.448 1.448 0 0 1-.215-1.772l9.586-15.866.021-.033a9.4 9.4 0 0 1 7.71-4.32zm7.736 10.612l-.283-7.432-7.432-.283a6.503 6.503 0 0 0-5.283 2.973l-8.99 14.877 4.124 4.13 14.878-8.983a6.494 6.494 0 0 0 2.986-5.282z" fill="var(--e-color-icon-stroke-1)"/><path d="M13.493 14.41l2.106.747a1.448 1.448 0 0 1-.968 2.73l-2.124-.753a2.22 2.22 0 0 0-2.367.444l-3.098 3.09 4.414 1.084a1.448 1.448 0 0 1-.69 2.812L5.649 23.31l-.006-.001a2.548 2.548 0 0 1-1.783-1.616 2.362 2.362 0 0 1 .506-2.444l.026-.027 3.715-3.705.02-.02a5.117 5.117 0 0 1 5.366-1.086zm9.38 9.165a1.448 1.448 0 0 1 1.878.817l.82 2.085a5.116 5.116 0 0 1-1.058 5.386l-.024.024-3.71 3.725-.026.024a2.36 2.36 0 0 1-2.452.507 2.55 2.55 0 0 1-1.61-1.781l-.001-.007-1.255-5.116a1.448 1.448 0 0 1 2.812-.69l1.083 4.413 3.094-3.105a2.22 2.22 0 0 0 .45-2.325l-.818-2.08a1.448 1.448 0 0 1 .818-1.877zm4.419-12.316a1.448 1.448 0 1 0 0 2.897 1.448 1.448 0 0 0 0-2.897zm-4.345 1.448a4.344 4.344 0 1 1 8.689 0 4.344 4.344 0 0 1-8.689 0z" fill="var(--e-color-icon-stroke-1)"/></g><defs><clipPath id="clip0_5144_194"><path fill="#fff" d="M0 0H40V40H0z"/></clipPath></defs></svg>