<svg width="40" height="40" fill="none" xmlns="http://www.w3.org/2000/svg"><g clip-path="url(#clip0_5844_27000)" fill-rule="evenodd" clip-rule="evenodd"><path d="M16.628 14.841a3.163 3.163 0 0 0-3.8 1.594 3.164 3.164 0 0 0 .598 3.65l.02.02 6.553 6.838 6.55-6.838.019-.02a3.168 3.168 0 0 0 .598-3.65 3.164 3.164 0 0 0-5.064-.821l-1.219 1.218a1.25 1.25 0 0 1-1.766.002l-1.225-1.22a3.163 3.163 0 0 0-1.264-.773zm11.657 1.036l1.119-.557a5.667 5.667 0 0 1-1.06 6.524l-7.442 7.77a1.25 1.25 0 0 1-1.805.001l-7.448-7.77a5.663 5.663 0 0 1-1.058-6.526l1.119.558-1.118-.56a5.664 5.664 0 0 1 9.067-1.472l.339.337.336-.336a5.666 5.666 0 0 1 7.358-.558 5.664 5.664 0 0 1 1.71 2.03l-1.117.559z" fill="var(--e-color-icon-stroke-1)"/><path d="M20 2.5C10.335 2.5 2.5 10.335 2.5 20S10.335 37.5 20 37.5 37.5 29.665 37.5 20 29.665 2.5 20 2.5zM0 20C0 8.954 8.954 0 20 0s20 8.954 20 20-8.954 20-20 20S0 31.046 0 20z" fill="var(--e-color-icon-positive)"/></g><defs><clipPath id="clip0_5844_27000"><path fill="#fff" d="M0 0H40V40H0z"/></clipPath></defs></svg>