<svg width="40" height="40" fill="none" xmlns="http://www.w3.org/2000/svg"><path fill-rule="evenodd" clip-rule="evenodd" d="M0 10.5C0 9.672.597 9 1.333 9h37.334C39.403 9 40 9.672 40 10.5s-.597 1.5-1.333 1.5H1.333C.597 12 0 11.328 0 10.5z" fill="var(--e-color-icon-stroke-1)"/><path fill-rule="evenodd" clip-rule="evenodd" d="M4 3.714c-.736 0-1.333.608-1.333 1.357V34.93c0 .75.597 1.357 1.333 1.357h32c.736 0 1.333-.608 1.333-1.357V5.07c0-.75-.597-1.357-1.333-1.357H4zM0 5.071C0 2.823 1.79 1 4 1h32c2.21 0 4 1.823 4 4.071V34.93C40 37.177 38.21 39 36 39H4c-2.21 0-4-1.823-4-4.071V5.07z" fill="var(--e-color-icon-stroke-1)"/><path fill-rule="evenodd" clip-rule="evenodd" d="M19 29.5c0-.828.616-1.5 1.375-1.5h8.25c.76 0 1.375.672 1.375 1.5s-.616 1.5-1.375 1.5h-8.25c-.76 0-1.375-.672-1.375-1.5z" fill="var(--e-color-icon-stroke-1)"/><path fill-rule="evenodd" clip-rule="evenodd" d="M11.39 17.41a1.289 1.289 0 0 1 1.886 0l5.334 5.6a1.45 1.45 0 0 1 0 1.98l-5.334 5.6a1.289 1.289 0 0 1-1.886 0 1.45 1.45 0 0 1 0-1.98L15.781 24l-4.39-4.61a1.45 1.45 0 0 1 0-1.98z" fill="var(--e-color-icon-positive)"/></svg>