<svg width="289" height="24" viewBox="0 0 289 24" fill="none" xmlns="http://www.w3.org/2000/svg">
<path d="M1.232 16V6.2H2.31V10.582H7.938V6.2H9.016V16H7.938V11.548H2.31V16H1.232ZM10.9822 12.584C10.9822 12.08 11.0662 11.6133 11.2342 11.184C11.4022 10.7547 11.6309 10.3813 11.9202 10.064C12.2189 9.74667 12.5736 9.49933 12.9842 9.322C13.3949 9.14467 13.8336 9.056 14.3002 9.056C14.7762 9.056 15.2149 9.14467 15.6162 9.322C16.0269 9.49933 16.3816 9.74667 16.6802 10.064C16.9789 10.3813 17.2122 10.7547 17.3802 11.184C17.5482 11.6133 17.6322 12.08 17.6322 12.584C17.6322 13.088 17.5436 13.5593 17.3662 13.998C17.1982 14.4367 16.9649 14.8147 16.6662 15.132C16.3769 15.44 16.0269 15.6873 15.6162 15.874C15.2056 16.0513 14.7669 16.14 14.3002 16.14C13.8336 16.14 13.3949 16.0513 12.9842 15.874C12.5829 15.6873 12.2329 15.4353 11.9342 15.118C11.6449 14.8007 11.4116 14.4273 11.2342 13.998C11.0662 13.5593 10.9822 13.088 10.9822 12.584ZM14.3002 15.23C14.9629 15.23 15.5136 14.9827 15.9522 14.488C16.4002 13.984 16.6242 13.354 16.6242 12.598C16.6242 11.842 16.4002 11.212 15.9522 10.708C15.5136 10.204 14.9629 9.952 14.3002 9.952C13.6376 9.952 13.0869 10.204 12.6482 10.708C12.2096 11.212 11.9902 11.842 11.9902 12.598C11.9902 13.354 12.2096 13.984 12.6482 14.488C13.0869 14.9827 13.6376 15.23 14.3002 15.23ZM19.425 16V9.168H20.447V10.232C20.7083 9.84 21.007 9.546 21.343 9.35C21.679 9.154 22.057 9.056 22.477 9.056C22.953 9.056 23.373 9.17733 23.737 9.42C24.1103 9.66267 24.3903 9.98467 24.577 10.386C24.8383 9.94733 25.1603 9.616 25.543 9.392C25.9257 9.168 26.3643 9.056 26.859 9.056C27.5403 9.056 28.0957 9.294 28.525 9.77C28.9637 10.2367 29.183 10.8433 29.183 11.59V16H28.161V11.842C28.161 11.254 28.007 10.7873 27.699 10.442C27.4003 10.0873 26.9943 9.91 26.481 9.91C26.1263 9.91 25.8043 9.99867 25.515 10.176C25.2257 10.3533 24.9783 10.624 24.773 10.988C24.7917 11.0813 24.8057 11.1793 24.815 11.282C24.8243 11.3847 24.829 11.4873 24.829 11.59V16H23.807V11.842C23.807 11.254 23.653 10.7873 23.345 10.442C23.037 10.0873 22.6263 9.91 22.113 9.91C21.7677 9.91 21.455 9.994 21.175 10.162C20.895 10.33 20.6523 10.582 20.447 10.918V16H19.425ZM36.8932 15.216C36.5012 15.524 36.0952 15.7527 35.6752 15.902C35.2552 16.0513 34.8072 16.126 34.3312 16.126C33.8552 16.126 33.4072 16.0373 32.9872 15.86C32.5765 15.6733 32.2172 15.4213 31.9092 15.104C31.6105 14.7867 31.3725 14.4133 31.1952 13.984C31.0272 13.5453 30.9432 13.0787 30.9432 12.584C30.9432 12.0893 31.0225 11.6273 31.1812 11.198C31.3492 10.7593 31.5778 10.386 31.8672 10.078C32.1565 9.76067 32.4972 9.51333 32.8892 9.336C33.2812 9.14933 33.7058 9.056 34.1632 9.056C34.6112 9.056 35.0265 9.14467 35.4092 9.322C35.7918 9.49933 36.1232 9.742 36.4032 10.05C36.6832 10.3487 36.9025 10.7127 37.0612 11.142C37.2198 11.562 37.2992 12.0147 37.2992 12.5V12.808H31.9372C31.9838 13.4987 32.2405 14.0773 32.7072 14.544C33.1738 15.0013 33.7292 15.23 34.3732 15.23C34.7278 15.23 35.0685 15.1693 35.3952 15.048C35.7312 14.9173 36.0158 14.7447 36.2492 14.53L36.8932 15.216ZM34.1492 9.938C33.5892 9.938 33.1085 10.1387 32.7072 10.54C32.3058 10.9413 32.0585 11.4547 31.9652 12.08H36.2912C36.2165 11.464 35.9785 10.9553 35.5772 10.554C35.1852 10.1433 34.7092 9.938 34.1492 9.938Z" fill="#515151"/>
<path fill-rule="evenodd" clip-rule="evenodd" d="M48.0963 8.12966C48.2692 7.95678 48.5495 7.95678 48.7224 8.12966L52.1119 11.5192C52.1751 11.5823 52.2252 11.6572 52.2594 11.7397C52.2936 11.8222 52.3112 11.9107 52.3112 12C52.3112 12.0893 52.2936 12.1778 52.2594 12.2603C52.2252 12.3428 52.1751 12.4177 52.1119 12.4808L48.7224 15.8703C48.5495 16.0432 48.2692 16.0432 48.0963 15.8703C47.9234 15.6975 47.9234 15.4172 48.0963 15.2443L51.3406 12L48.0963 8.75572C47.9234 8.58283 47.9234 8.30254 48.0963 8.12966Z" fill="black"/>
<path d="M63.246 16V6.2H64.324V15.048H69.854V16H63.246ZM76.8678 15.216C76.4758 15.524 76.0698 15.7527 75.6498 15.902C75.2298 16.0513 74.7818 16.126 74.3058 16.126C73.8298 16.126 73.3818 16.0373 72.9618 15.86C72.5511 15.6733 72.1918 15.4213 71.8838 15.104C71.5851 14.7867 71.3471 14.4133 71.1698 13.984C71.0018 13.5453 70.9178 13.0787 70.9178 12.584C70.9178 12.0893 70.9971 11.6273 71.1558 11.198C71.3238 10.7593 71.5524 10.386 71.8418 10.078C72.1311 9.76067 72.4718 9.51333 72.8638 9.336C73.2558 9.14933 73.6804 9.056 74.1378 9.056C74.5858 9.056 75.0011 9.14467 75.3838 9.322C75.7664 9.49933 76.0978 9.742 76.3778 10.05C76.6578 10.3487 76.8771 10.7127 77.0358 11.142C77.1944 11.562 77.2738 12.0147 77.2738 12.5V12.808H71.9118C71.9584 13.4987 72.2151 14.0773 72.6818 14.544C73.1484 15.0013 73.7038 15.23 74.3478 15.23C74.7024 15.23 75.0431 15.1693 75.3698 15.048C75.7058 14.9173 75.9904 14.7447 76.2238 14.53L76.8678 15.216ZM74.1238 9.938C73.5638 9.938 73.0831 10.1387 72.6818 10.54C72.2804 10.9413 72.0331 11.4547 71.9398 12.08H76.2658C76.1911 11.464 75.9531 10.9553 75.5518 10.554C75.1598 10.1433 74.6838 9.938 74.1238 9.938ZM80.7737 16L77.9737 9.168H79.0797L81.2917 14.726L83.4757 9.168H84.5677L81.7537 16H80.7737ZM91.2643 15.216C90.8723 15.524 90.4663 15.7527 90.0463 15.902C89.6263 16.0513 89.1783 16.126 88.7023 16.126C88.2263 16.126 87.7783 16.0373 87.3583 15.86C86.9476 15.6733 86.5883 15.4213 86.2803 15.104C85.9816 14.7867 85.7436 14.4133 85.5663 13.984C85.3983 13.5453 85.3143 13.0787 85.3143 12.584C85.3143 12.0893 85.3936 11.6273 85.5523 11.198C85.7203 10.7593 85.9489 10.386 86.2383 10.078C86.5276 9.76067 86.8683 9.51333 87.2603 9.336C87.6523 9.14933 88.0769 9.056 88.5343 9.056C88.9823 9.056 89.3976 9.14467 89.7803 9.322C90.1629 9.49933 90.4943 9.742 90.7743 10.05C91.0543 10.3487 91.2736 10.7127 91.4323 11.142C91.5909 11.562 91.6703 12.0147 91.6703 12.5V12.808H86.3083C86.3549 13.4987 86.6116 14.0773 87.0783 14.544C87.5449 15.0013 88.1003 15.23 88.7443 15.23C89.0989 15.23 89.4396 15.1693 89.7663 15.048C90.1023 14.9173 90.3869 14.7447 90.6203 14.53L91.2643 15.216ZM88.5203 9.938C87.9603 9.938 87.4796 10.1387 87.0783 10.54C86.6769 10.9413 86.4296 11.4547 86.3363 12.08H90.6623C90.5876 11.464 90.3496 10.9553 89.9483 10.554C89.5563 10.1433 89.0803 9.938 88.5203 9.938ZM94.4372 5.78V16H93.4152V5.99L94.4372 5.78ZM99.45 16V15.258L103.37 10.974C103.827 10.47 104.14 10.0547 104.308 9.728C104.476 9.40133 104.56 9.05133 104.56 8.678C104.56 8.19267 104.364 7.78667 103.972 7.46C103.58 7.13333 103.09 6.97 102.502 6.97C102.045 6.97 101.615 7.06333 101.214 7.25C100.822 7.42733 100.388 7.73067 99.912 8.16L99.324 7.46C99.828 6.99333 100.341 6.648 100.864 6.424C101.396 6.19067 101.947 6.074 102.516 6.074C103.393 6.074 104.117 6.31667 104.686 6.802C105.265 7.278 105.554 7.88467 105.554 8.622C105.554 8.86467 105.531 9.08867 105.484 9.294C105.437 9.49933 105.358 9.714 105.246 9.938C105.134 10.1527 104.98 10.386 104.784 10.638C104.597 10.89 104.355 11.1793 104.056 11.506L100.71 15.132L105.764 15.118V16H99.45Z" fill="#515151"/>
<path fill-rule="evenodd" clip-rule="evenodd" d="M117.096 8.12966C117.269 7.95678 117.549 7.95678 117.722 8.12966L121.112 11.5192C121.175 11.5823 121.225 11.6572 121.259 11.7397C121.294 11.8222 121.311 11.9107 121.311 12C121.311 12.0893 121.294 12.1778 121.259 12.2603C121.225 12.3428 121.175 12.4177 121.112 12.4808L117.722 15.8703C117.549 16.0432 117.269 16.0432 117.096 15.8703C116.923 15.6975 116.923 15.4172 117.096 15.2443L120.341 12L117.096 8.75572C116.923 8.58283 116.923 8.30254 117.096 8.12966Z" fill="black"/>
<path d="M132.246 16V6.2H133.324V15.048H138.854V16H132.246ZM145.868 15.216C145.476 15.524 145.07 15.7527 144.65 15.902C144.23 16.0513 143.782 16.126 143.306 16.126C142.83 16.126 142.382 16.0373 141.962 15.86C141.551 15.6733 141.192 15.4213 140.884 15.104C140.585 14.7867 140.347 14.4133 140.17 13.984C140.002 13.5453 139.918 13.0787 139.918 12.584C139.918 12.0893 139.997 11.6273 140.156 11.198C140.324 10.7593 140.552 10.386 140.842 10.078C141.131 9.76067 141.472 9.51333 141.864 9.336C142.256 9.14933 142.68 9.056 143.138 9.056C143.586 9.056 144.001 9.14467 144.384 9.322C144.766 9.49933 145.098 9.742 145.378 10.05C145.658 10.3487 145.877 10.7127 146.036 11.142C146.194 11.562 146.274 12.0147 146.274 12.5V12.808H140.912C140.958 13.4987 141.215 14.0773 141.682 14.544C142.148 15.0013 142.704 15.23 143.348 15.23C143.702 15.23 144.043 15.1693 144.37 15.048C144.706 14.9173 144.99 14.7447 145.224 14.53L145.868 15.216ZM143.124 9.938C142.564 9.938 142.083 10.1387 141.682 10.54C141.28 10.9413 141.033 11.4547 140.94 12.08H145.266C145.191 11.464 144.953 10.9553 144.552 10.554C144.16 10.1433 143.684 9.938 143.124 9.938ZM149.774 16L146.974 9.168H148.08L150.292 14.726L152.476 9.168H153.568L150.754 16H149.774ZM160.264 15.216C159.872 15.524 159.466 15.7527 159.046 15.902C158.626 16.0513 158.178 16.126 157.702 16.126C157.226 16.126 156.778 16.0373 156.358 15.86C155.948 15.6733 155.588 15.4213 155.28 15.104C154.982 14.7867 154.744 14.4133 154.566 13.984C154.398 13.5453 154.314 13.0787 154.314 12.584C154.314 12.0893 154.394 11.6273 154.552 11.198C154.72 10.7593 154.949 10.386 155.238 10.078C155.528 9.76067 155.868 9.51333 156.26 9.336C156.652 9.14933 157.077 9.056 157.534 9.056C157.982 9.056 158.398 9.14467 158.78 9.322C159.163 9.49933 159.494 9.742 159.774 10.05C160.054 10.3487 160.274 10.7127 160.432 11.142C160.591 11.562 160.67 12.0147 160.67 12.5V12.808H155.308C155.355 13.4987 155.612 14.0773 156.078 14.544C156.545 15.0013 157.1 15.23 157.744 15.23C158.099 15.23 158.44 15.1693 158.766 15.048C159.102 14.9173 159.387 14.7447 159.62 14.53L160.264 15.216ZM157.52 9.938C156.96 9.938 156.48 10.1387 156.078 10.54C155.677 10.9413 155.43 11.4547 155.336 12.08H159.662C159.588 11.464 159.35 10.9553 158.948 10.554C158.556 10.1433 158.08 9.938 157.52 9.938ZM163.437 5.78V16H162.415V5.99L163.437 5.78ZM175.114 13.312C175.114 13.7227 175.025 14.1007 174.848 14.446C174.68 14.7913 174.442 15.09 174.134 15.342C173.835 15.594 173.476 15.79 173.056 15.93C172.636 16.07 172.179 16.14 171.684 16.14C171.012 16.14 170.382 16.0233 169.794 15.79C169.215 15.5567 168.702 15.2113 168.254 14.754L168.926 14.096C169.337 14.5067 169.757 14.8053 170.186 14.992C170.625 15.1693 171.119 15.258 171.67 15.258C172.379 15.258 172.963 15.076 173.42 14.712C173.877 14.3387 174.106 13.8627 174.106 13.284C174.106 12.752 173.905 12.3087 173.504 11.954C173.112 11.5993 172.608 11.422 171.992 11.422H170.83V10.554H171.95C172.482 10.554 172.911 10.3907 173.238 10.064C173.574 9.73733 173.742 9.31267 173.742 8.79C173.742 8.27667 173.537 7.84267 173.126 7.488C172.715 7.124 172.211 6.942 171.614 6.942C171.11 6.942 170.657 7.03533 170.256 7.222C169.864 7.39933 169.463 7.70267 169.052 8.132L168.38 7.46C168.819 7.00267 169.313 6.65267 169.864 6.41C170.424 6.16733 171.012 6.046 171.628 6.046C172.076 6.046 172.491 6.116 172.874 6.256C173.257 6.38667 173.583 6.57333 173.854 6.816C174.134 7.04933 174.353 7.334 174.512 7.67C174.671 7.99667 174.75 8.35133 174.75 8.734C174.75 9.24733 174.582 9.70933 174.246 10.12C173.91 10.5213 173.467 10.8013 172.916 10.96C173.569 11.1 174.097 11.3893 174.498 11.828C174.909 12.2573 175.114 12.752 175.114 13.312Z" fill="#515151"/>
<path fill-rule="evenodd" clip-rule="evenodd" d="M186.096 8.12966C186.269 7.95678 186.55 7.95678 186.722 8.12966L190.112 11.5192C190.175 11.5823 190.225 11.6572 190.259 11.7397C190.294 11.8222 190.311 11.9107 190.311 12C190.311 12.0893 190.294 12.1778 190.259 12.2603C190.225 12.3428 190.175 12.4177 190.112 12.4808L186.722 15.8703C186.55 16.0432 186.269 16.0432 186.096 15.8703C185.923 15.6975 185.923 15.4172 186.096 15.2443L189.341 12L186.096 8.75572C185.923 8.58283 185.923 8.30254 186.096 8.12966Z" fill="black"/>
<path d="M205.838 14.628C206.342 14.628 206.818 14.5207 207.266 14.306C207.723 14.082 208.12 13.7647 208.456 13.354L209.562 14.418C209.105 14.95 208.54 15.37 207.868 15.678C207.205 15.986 206.51 16.14 205.782 16.14C205.073 16.14 204.405 16.0093 203.78 15.748C203.164 15.4867 202.627 15.132 202.17 14.684C201.722 14.2267 201.367 13.69 201.106 13.074C200.845 12.458 200.714 11.8 200.714 11.1C200.714 10.3907 200.845 9.728 201.106 9.112C201.367 8.496 201.722 7.964 202.17 7.516C202.627 7.05867 203.164 6.69933 203.78 6.438C204.405 6.17667 205.073 6.046 205.782 6.046C206.529 6.046 207.238 6.2 207.91 6.508C208.591 6.816 209.156 7.24067 209.604 7.782L208.47 8.902C208.125 8.47267 207.719 8.14133 207.252 7.908C206.785 7.66533 206.295 7.544 205.782 7.544C205.306 7.544 204.863 7.63733 204.452 7.824C204.041 8.00133 203.687 8.24867 203.388 8.566C203.099 8.88333 202.865 9.26133 202.688 9.7C202.52 10.1293 202.436 10.596 202.436 11.1C202.436 11.5947 202.52 12.0613 202.688 12.5C202.865 12.9293 203.103 13.3027 203.402 13.62C203.71 13.928 204.074 14.1753 204.494 14.362C204.914 14.5393 205.362 14.628 205.838 14.628ZM212.632 8.986V13.158C212.632 13.662 212.772 14.068 213.052 14.376C213.332 14.684 213.705 14.838 214.172 14.838C214.489 14.838 214.779 14.768 215.04 14.628C215.301 14.4787 215.525 14.2593 215.712 13.97V8.986H217.294V16H215.712V14.838C215.451 15.2487 215.129 15.566 214.746 15.79C214.373 16.0047 213.948 16.112 213.472 16.112C212.763 16.112 212.179 15.8787 211.722 15.412C211.274 14.9453 211.05 14.3433 211.05 13.606V8.986H212.632ZM219.441 16V8.986H221.023V10.512C221.209 9.98 221.466 9.574 221.793 9.294C222.129 9.00467 222.516 8.86 222.955 8.86C223.085 8.86933 223.202 8.88333 223.305 8.902C223.407 8.92067 223.519 8.95333 223.641 9V10.386C223.519 10.33 223.379 10.288 223.221 10.26C223.071 10.232 222.922 10.218 222.773 10.218C222.399 10.218 222.059 10.3207 221.751 10.526C221.443 10.7313 221.2 11.016 221.023 11.38V16H219.441ZM225.137 16V8.986H226.719V10.512C226.905 9.98 227.162 9.574 227.489 9.294C227.825 9.00467 228.212 8.86 228.651 8.86C228.781 8.86933 228.898 8.88333 229.001 8.902C229.103 8.92067 229.215 8.95333 229.337 9V10.386C229.215 10.33 229.075 10.288 228.917 10.26C228.767 10.232 228.618 10.218 228.469 10.218C228.095 10.218 227.755 10.3207 227.447 10.526C227.139 10.7313 226.896 11.016 226.719 11.38V16H225.137ZM236.525 15.104C236.096 15.4587 235.657 15.72 235.209 15.888C234.77 16.056 234.28 16.14 233.739 16.14C233.244 16.14 232.778 16.0467 232.339 15.86C231.9 15.6733 231.522 15.4167 231.205 15.09C230.888 14.7633 230.636 14.376 230.449 13.928C230.262 13.48 230.169 13.004 230.169 12.5C230.169 11.9867 230.253 11.5107 230.421 11.072C230.598 10.624 230.836 10.2413 231.135 9.924C231.443 9.59733 231.807 9.34067 232.227 9.154C232.647 8.96733 233.1 8.874 233.585 8.874C234.061 8.874 234.5 8.96733 234.901 9.154C235.312 9.33133 235.662 9.57867 235.951 9.896C236.25 10.2133 236.483 10.596 236.651 11.044C236.819 11.4827 236.903 11.9633 236.903 12.486V12.878H231.723C231.798 13.4287 232.031 13.886 232.423 14.25C232.824 14.614 233.291 14.796 233.823 14.796C234.15 14.796 234.458 14.74 234.747 14.628C235.046 14.5067 235.293 14.3433 235.489 14.138L236.525 15.104ZM233.571 10.162C233.104 10.162 232.708 10.3207 232.381 10.638C232.054 10.9553 231.844 11.38 231.751 11.912H235.405C235.312 11.3987 235.097 10.9787 234.761 10.652C234.434 10.3253 234.038 10.162 233.571 10.162ZM238.716 16V8.986H240.298V10.134C240.56 9.72333 240.877 9.41067 241.25 9.196C241.633 8.98133 242.058 8.874 242.524 8.874C243.234 8.874 243.812 9.112 244.26 9.588C244.718 10.0547 244.946 10.652 244.946 11.38V16H243.364V11.828C243.364 11.324 243.224 10.918 242.944 10.61C242.664 10.302 242.291 10.148 241.824 10.148C241.507 10.148 241.218 10.2227 240.956 10.372C240.704 10.512 240.485 10.7173 240.298 10.988V16H238.716ZM247.728 14.152V10.246H246.314V8.986H247.728V7.054L249.31 6.718V8.986H251.27V10.246H249.31V13.802C249.31 14.1473 249.384 14.3947 249.534 14.544C249.683 14.684 249.935 14.754 250.29 14.754C250.448 14.754 250.593 14.7447 250.724 14.726C250.864 14.698 251.036 14.6513 251.242 14.586V15.916C251.036 15.9813 250.808 16.028 250.556 16.056C250.313 16.0933 250.089 16.112 249.884 16.112C249.184 16.112 248.647 15.9487 248.274 15.622C247.91 15.286 247.728 14.796 247.728 14.152ZM256.201 18.968V8.986H257.755V9.994C257.998 9.658 258.306 9.39667 258.679 9.21C259.062 9.02333 259.482 8.93 259.939 8.93C260.378 8.93 260.793 9.02333 261.185 9.21C261.577 9.39667 261.913 9.65333 262.193 9.98C262.482 10.2973 262.706 10.6753 262.865 11.114C263.033 11.5433 263.117 12.0053 263.117 12.5C263.117 12.9947 263.033 13.4613 262.865 13.9C262.697 14.3387 262.464 14.7167 262.165 15.034C261.866 15.3513 261.516 15.6033 261.115 15.79C260.714 15.9767 260.284 16.07 259.827 16.07C259.416 16.07 259.034 15.9907 258.679 15.832C258.334 15.6733 258.035 15.4493 257.783 15.16V18.968H256.201ZM259.463 10.26C259.118 10.26 258.8 10.3253 258.511 10.456C258.231 10.5867 257.988 10.7827 257.783 11.044V13.97C257.988 14.2127 258.236 14.404 258.525 14.544C258.814 14.6747 259.127 14.74 259.463 14.74C260.06 14.74 260.555 14.53 260.947 14.11C261.348 13.6807 261.549 13.144 261.549 12.5C261.549 11.8653 261.348 11.3333 260.947 10.904C260.546 10.4747 260.051 10.26 259.463 10.26ZM267.156 16.112C266.428 16.112 265.831 15.916 265.364 15.524C264.907 15.1227 264.678 14.6093 264.678 13.984C264.678 13.3587 264.916 12.8593 265.392 12.486C265.877 12.1127 266.531 11.926 267.352 11.926C267.679 11.926 267.996 11.9633 268.304 12.038C268.612 12.1033 268.925 12.2107 269.242 12.36V11.59C269.242 11.1327 269.107 10.7873 268.836 10.554C268.565 10.3113 268.164 10.19 267.632 10.19C267.343 10.19 267.03 10.2367 266.694 10.33C266.358 10.414 265.989 10.5493 265.588 10.736L265.028 9.588C265.551 9.34533 266.05 9.168 266.526 9.056C267.002 8.93467 267.473 8.874 267.94 8.874C268.845 8.874 269.55 9.098 270.054 9.546C270.558 9.98467 270.81 10.61 270.81 11.422V16H269.242V15.286C268.925 15.5753 268.598 15.7853 268.262 15.916C267.926 16.0467 267.557 16.112 267.156 16.112ZM266.162 13.956C266.162 14.2733 266.293 14.53 266.554 14.726C266.815 14.9127 267.161 15.006 267.59 15.006C267.907 15.006 268.201 14.9593 268.472 14.866C268.752 14.7727 269.009 14.628 269.242 14.432V13.284C268.99 13.1627 268.733 13.0787 268.472 13.032C268.211 12.976 267.926 12.948 267.618 12.948C267.17 12.948 266.815 13.0413 266.554 13.228C266.293 13.4053 266.162 13.648 266.162 13.956ZM275.781 16.042C275.343 16.042 274.927 15.9487 274.535 15.762C274.143 15.5753 273.803 15.3233 273.513 15.006C273.233 14.6887 273.009 14.3153 272.841 13.886C272.683 13.4473 272.603 12.9807 272.603 12.486C272.603 11.9913 272.687 11.5247 272.855 11.086C273.023 10.6473 273.252 10.2693 273.541 9.952C273.84 9.63467 274.19 9.38733 274.591 9.21C274.993 9.02333 275.422 8.93 275.879 8.93C276.281 8.93 276.659 9.014 277.013 9.182C277.368 9.34067 277.676 9.574 277.937 9.882V8.986H279.505V16.238C279.505 17.134 279.216 17.8247 278.637 18.31C278.068 18.7953 277.256 19.038 276.201 19.038C275.697 19.038 275.203 18.9773 274.717 18.856C274.241 18.744 273.798 18.5807 273.387 18.366L273.947 17.19C274.349 17.3953 274.727 17.5447 275.081 17.638C275.436 17.7407 275.786 17.792 276.131 17.792C276.719 17.792 277.163 17.6567 277.461 17.386C277.769 17.1247 277.923 16.742 277.923 16.238V15.048C277.681 15.356 277.368 15.5987 276.985 15.776C276.612 15.9533 276.211 16.042 275.781 16.042ZM274.171 12.486C274.171 13.1207 274.372 13.6527 274.773 14.082C275.175 14.5113 275.669 14.726 276.257 14.726C276.593 14.726 276.901 14.6607 277.181 14.53C277.471 14.3993 277.718 14.208 277.923 13.956V11.016C277.718 10.7827 277.471 10.6007 277.181 10.47C276.892 10.33 276.584 10.26 276.257 10.26C275.66 10.26 275.161 10.47 274.759 10.89C274.367 11.31 274.171 11.842 274.171 12.486ZM287.691 15.104C287.261 15.4587 286.823 15.72 286.375 15.888C285.936 16.056 285.446 16.14 284.905 16.14C284.41 16.14 283.943 16.0467 283.505 15.86C283.066 15.6733 282.688 15.4167 282.371 15.09C282.053 14.7633 281.801 14.376 281.615 13.928C281.428 13.48 281.335 13.004 281.335 12.5C281.335 11.9867 281.419 11.5107 281.587 11.072C281.764 10.624 282.002 10.2413 282.301 9.924C282.609 9.59733 282.973 9.34067 283.393 9.154C283.813 8.96733 284.265 8.874 284.751 8.874C285.227 8.874 285.665 8.96733 286.067 9.154C286.477 9.33133 286.827 9.57867 287.117 9.896C287.415 10.2133 287.649 10.596 287.817 11.044C287.985 11.4827 288.069 11.9633 288.069 12.486V12.878H282.889C282.963 13.4287 283.197 13.886 283.589 14.25C283.99 14.614 284.457 14.796 284.989 14.796C285.315 14.796 285.623 14.74 285.913 14.628C286.211 14.5067 286.459 14.3433 286.655 14.138L287.691 15.104ZM284.737 10.162C284.27 10.162 283.873 10.3207 283.547 10.638C283.22 10.9553 283.01 11.38 282.917 11.912H286.571C286.477 11.3987 286.263 10.9787 285.927 10.652C285.6 10.3253 285.203 10.162 284.737 10.162Z" fill="black"/>
</svg>
