<svg width="289" height="98" viewBox="0 0 289 98" fill="none" xmlns="http://www.w3.org/2000/svg">
<path d="M1.232 16V6.2H2.31V10.582H7.938V6.2H9.016V16H7.938V11.548H2.31V16H1.232ZM14.3279 16.112C13.6932 16.112 13.1239 15.958 12.6199 15.65C12.1159 15.342 11.7192 14.922 11.4299 14.39C11.1406 13.858 10.9959 13.256 10.9959 12.584C10.9959 11.912 11.1406 11.31 11.4299 10.778C11.7192 10.246 12.1159 9.826 12.6199 9.518C13.1239 9.21 13.6932 9.056 14.3279 9.056C14.9532 9.056 15.5132 9.21 16.0079 9.518C16.5119 9.826 16.9086 10.246 17.1979 10.778C17.4872 11.31 17.6319 11.912 17.6319 12.584C17.6319 13.256 17.4872 13.858 17.1979 14.39C16.9086 14.922 16.5119 15.342 16.0079 15.65C15.5132 15.958 14.9532 16.112 14.3279 16.112ZM14.3139 15.216C14.7619 15.216 15.1586 15.104 15.5039 14.88C15.8492 14.6467 16.1199 14.3293 16.3159 13.928C16.5212 13.5267 16.6239 13.0787 16.6239 12.584C16.6239 12.08 16.5212 11.632 16.3159 11.24C16.1199 10.8387 15.8492 10.526 15.5039 10.302C15.1586 10.0687 14.7619 9.952 14.3139 9.952C13.8659 9.952 13.4692 10.0687 13.1239 10.302C12.7786 10.526 12.5032 10.8387 12.2979 11.24C12.1019 11.632 12.0039 12.08 12.0039 12.584C12.0039 13.0787 12.1019 13.5267 12.2979 13.928C12.5032 14.3293 12.7786 14.6467 13.1239 14.88C13.4692 15.104 13.8659 15.216 14.3139 15.216ZM19.425 16V9.168H20.447V10.232C20.7083 9.84 21.007 9.546 21.343 9.35C21.679 9.154 22.057 9.056 22.477 9.056C22.9623 9.056 23.387 9.17733 23.751 9.42C24.115 9.65333 24.3903 9.97533 24.577 10.386C24.8477 9.94733 25.1697 9.616 25.543 9.392C25.9257 9.168 26.3643 9.056 26.859 9.056C27.3163 9.056 27.7177 9.16333 28.063 9.378C28.4177 9.59267 28.693 9.89133 28.889 10.274C29.085 10.6473 29.183 11.086 29.183 11.59V16H28.161V11.842C28.161 11.2447 28.0117 10.7733 27.713 10.428C27.4143 10.0827 27.0037 9.91 26.481 9.91C26.1263 9.91 25.8043 9.99867 25.515 10.176C25.235 10.3533 24.9877 10.624 24.773 10.988C24.7917 11.0813 24.8057 11.1793 24.815 11.282C24.8243 11.3847 24.829 11.4873 24.829 11.59V16H23.807V11.842C23.807 11.2447 23.653 10.7733 23.345 10.428C23.0463 10.0827 22.6357 9.91 22.113 9.91C21.413 9.91 20.8577 10.246 20.447 10.918V16H19.425ZM34.3312 16.14C33.6965 16.14 33.1225 15.986 32.6092 15.678C32.0958 15.3607 31.6898 14.936 31.3912 14.404C31.0925 13.8627 30.9432 13.256 30.9432 12.584C30.9432 11.912 31.0832 11.31 31.3632 10.778C31.6525 10.246 32.0398 9.826 32.5252 9.518C33.0105 9.21 33.5518 9.056 34.1492 9.056C34.7558 9.056 35.2925 9.21 35.7592 9.518C36.2352 9.81667 36.6085 10.2273 36.8792 10.75C37.1592 11.2633 37.2992 11.8467 37.2992 12.5V12.808H31.9372C31.9745 13.2747 32.1005 13.6947 32.3152 14.068C32.5392 14.432 32.8285 14.7213 33.1832 14.936C33.5472 15.1413 33.9438 15.244 34.3732 15.244C34.7278 15.244 35.0685 15.1833 35.3952 15.062C35.7312 14.9313 36.0158 14.7587 36.2492 14.544L36.8932 15.23C36.5012 15.538 36.0952 15.7667 35.6752 15.916C35.2552 16.0653 34.8072 16.14 34.3312 16.14ZM31.9652 12.08H36.2912C36.2445 11.6693 36.1185 11.3053 35.9132 10.988C35.7172 10.6613 35.4652 10.4047 35.1572 10.218C34.8585 10.0313 34.5225 9.938 34.1492 9.938C33.7758 9.938 33.4352 10.0313 33.1272 10.218C32.8192 10.3953 32.5625 10.6473 32.3572 10.974C32.1612 11.2913 32.0305 11.66 31.9652 12.08Z" fill="#515151"/>
<path fill-rule="evenodd" clip-rule="evenodd" d="M48.0963 8.12966C48.2692 7.95678 48.5495 7.95678 48.7224 8.12966L52.1119 11.5192C52.1751 11.5823 52.2252 11.6572 52.2594 11.7397C52.2936 11.8222 52.3112 11.9107 52.3112 12C52.3112 12.0893 52.2936 12.1778 52.2594 12.2603C52.2252 12.3428 52.1751 12.4177 52.1119 12.4808L48.7224 15.8703C48.5495 16.0432 48.2692 16.0432 48.0963 15.8703C47.9234 15.6975 47.9234 15.4172 48.0963 15.2443L51.3406 12L48.0963 8.75572C47.9234 8.58283 47.9234 8.30254 48.0963 8.12966Z" fill="black"/>
<path d="M63.246 16V6.2H64.324V15.048H69.854V16H63.246ZM74.2784 16.14C73.6438 16.14 73.0698 15.986 72.5564 15.678C72.0431 15.3607 71.6371 14.936 71.3384 14.404C71.0398 13.8627 70.8904 13.256 70.8904 12.584C70.8904 11.912 71.0304 11.31 71.3104 10.778C71.5998 10.246 71.9871 9.826 72.4724 9.518C72.9578 9.21 73.4991 9.056 74.0964 9.056C74.7031 9.056 75.2398 9.21 75.7064 9.518C76.1824 9.81667 76.5558 10.2273 76.8264 10.75C77.1064 11.2633 77.2464 11.8467 77.2464 12.5V12.808H71.8844C71.9218 13.2747 72.0478 13.6947 72.2624 14.068C72.4864 14.432 72.7758 14.7213 73.1304 14.936C73.4944 15.1413 73.8911 15.244 74.3204 15.244C74.6751 15.244 75.0158 15.1833 75.3424 15.062C75.6784 14.9313 75.9631 14.7587 76.1964 14.544L76.8404 15.23C76.4484 15.538 76.0424 15.7667 75.6224 15.916C75.2024 16.0653 74.7544 16.14 74.2784 16.14ZM71.9124 12.08H76.2384C76.1918 11.6693 76.0658 11.3053 75.8604 10.988C75.6644 10.6613 75.4124 10.4047 75.1044 10.218C74.8058 10.0313 74.4698 9.938 74.0964 9.938C73.7231 9.938 73.3824 10.0313 73.0744 10.218C72.7664 10.3953 72.5098 10.6473 72.3044 10.974C72.1084 11.2913 71.9778 11.66 71.9124 12.08ZM80.7463 16L77.9463 9.168H79.0523L81.2643 14.726L83.4483 9.168H84.5403L81.7263 16H80.7463ZM88.6749 16.14C88.0403 16.14 87.4663 15.986 86.9529 15.678C86.4396 15.3607 86.0336 14.936 85.7349 14.404C85.4363 13.8627 85.2869 13.256 85.2869 12.584C85.2869 11.912 85.4269 11.31 85.7069 10.778C85.9963 10.246 86.3836 9.826 86.8689 9.518C87.3543 9.21 87.8956 9.056 88.4929 9.056C89.0996 9.056 89.6363 9.21 90.1029 9.518C90.5789 9.81667 90.9523 10.2273 91.2229 10.75C91.5029 11.2633 91.6429 11.8467 91.6429 12.5V12.808H86.2809C86.3183 13.2747 86.4443 13.6947 86.6589 14.068C86.8829 14.432 87.1723 14.7213 87.5269 14.936C87.8909 15.1413 88.2876 15.244 88.7169 15.244C89.0716 15.244 89.4123 15.1833 89.7389 15.062C90.0749 14.9313 90.3596 14.7587 90.5929 14.544L91.2369 15.23C90.8449 15.538 90.4389 15.7667 90.0189 15.916C89.5989 16.0653 89.1509 16.14 88.6749 16.14ZM86.3089 12.08H90.6349C90.5883 11.6693 90.4623 11.3053 90.2569 10.988C90.0609 10.6613 89.8089 10.4047 89.5009 10.218C89.2023 10.0313 88.8663 9.938 88.4929 9.938C88.1196 9.938 87.7789 10.0313 87.4709 10.218C87.1629 10.3953 86.9063 10.6473 86.7009 10.974C86.5049 11.2913 86.3743 11.66 86.3089 12.08ZM93.3879 16V5.892L94.4099 5.682V16H93.3879ZM99.4367 16V15.258L103.357 10.974C103.665 10.638 103.903 10.344 104.071 10.092C104.248 9.83067 104.369 9.588 104.435 9.364C104.509 9.14 104.547 8.902 104.547 8.65C104.547 8.15533 104.351 7.74933 103.959 7.432C103.576 7.10533 103.086 6.942 102.489 6.942C102.031 6.942 101.607 7.03067 101.215 7.208C100.823 7.38533 100.384 7.69333 99.8987 8.132L99.3107 7.432C99.824 6.96533 100.342 6.62 100.865 6.396C101.387 6.16267 101.933 6.046 102.503 6.046C103.091 6.046 103.613 6.158 104.071 6.382C104.528 6.59667 104.887 6.89533 105.149 7.278C105.41 7.66067 105.541 8.09933 105.541 8.594C105.541 8.92067 105.499 9.224 105.415 9.504C105.331 9.77467 105.181 10.0687 104.967 10.386C104.752 10.694 104.444 11.0673 104.043 11.506L100.697 15.132L105.751 15.118V16H99.4367Z" fill="#515151"/>
<path fill-rule="evenodd" clip-rule="evenodd" d="M117.096 8.12966C117.269 7.95678 117.549 7.95678 117.722 8.12966L121.112 11.5192C121.175 11.5823 121.225 11.6572 121.259 11.7397C121.294 11.8222 121.311 11.9107 121.311 12C121.311 12.0893 121.294 12.1778 121.259 12.2603C121.225 12.3428 121.175 12.4177 121.112 12.4808L117.722 15.8703C117.549 16.0432 117.269 16.0432 117.096 15.8703C116.923 15.6975 116.923 15.4172 117.096 15.2443L120.341 12L117.096 8.75572C116.923 8.58283 116.923 8.30254 117.096 8.12966Z" fill="black"/>
<path d="M132.246 16V6.2H133.324V15.048H138.854V16H132.246ZM143.278 16.14C142.644 16.14 142.07 15.986 141.556 15.678C141.043 15.3607 140.637 14.936 140.338 14.404C140.04 13.8627 139.89 13.256 139.89 12.584C139.89 11.912 140.03 11.31 140.31 10.778C140.6 10.246 140.987 9.826 141.472 9.518C141.958 9.21 142.499 9.056 143.096 9.056C143.703 9.056 144.24 9.21 144.706 9.518C145.182 9.81667 145.556 10.2273 145.826 10.75C146.106 11.2633 146.246 11.8467 146.246 12.5V12.808H140.884C140.922 13.2747 141.048 13.6947 141.262 14.068C141.486 14.432 141.776 14.7213 142.13 14.936C142.494 15.1413 142.891 15.244 143.32 15.244C143.675 15.244 144.016 15.1833 144.342 15.062C144.678 14.9313 144.963 14.7587 145.196 14.544L145.84 15.23C145.448 15.538 145.042 15.7667 144.622 15.916C144.202 16.0653 143.754 16.14 143.278 16.14ZM140.912 12.08H145.238C145.192 11.6693 145.066 11.3053 144.86 10.988C144.664 10.6613 144.412 10.4047 144.104 10.218C143.806 10.0313 143.47 9.938 143.096 9.938C142.723 9.938 142.382 10.0313 142.074 10.218C141.766 10.3953 141.51 10.6473 141.304 10.974C141.108 11.2913 140.978 11.66 140.912 12.08ZM149.746 16L146.946 9.168H148.052L150.264 14.726L152.448 9.168H153.54L150.726 16H149.746ZM157.675 16.14C157.04 16.14 156.466 15.986 155.953 15.678C155.44 15.3607 155.034 14.936 154.735 14.404C154.436 13.8627 154.287 13.256 154.287 12.584C154.287 11.912 154.427 11.31 154.707 10.778C154.996 10.246 155.384 9.826 155.869 9.518C156.354 9.21 156.896 9.056 157.493 9.056C158.1 9.056 158.636 9.21 159.103 9.518C159.579 9.81667 159.952 10.2273 160.223 10.75C160.503 11.2633 160.643 11.8467 160.643 12.5V12.808H155.281C155.318 13.2747 155.444 13.6947 155.659 14.068C155.883 14.432 156.172 14.7213 156.527 14.936C156.891 15.1413 157.288 15.244 157.717 15.244C158.072 15.244 158.412 15.1833 158.739 15.062C159.075 14.9313 159.36 14.7587 159.593 14.544L160.237 15.23C159.845 15.538 159.439 15.7667 159.019 15.916C158.599 16.0653 158.151 16.14 157.675 16.14ZM155.309 12.08H159.635C159.588 11.6693 159.462 11.3053 159.257 10.988C159.061 10.6613 158.809 10.4047 158.501 10.218C158.202 10.0313 157.866 9.938 157.493 9.938C157.12 9.938 156.779 10.0313 156.471 10.218C156.163 10.3953 155.906 10.6473 155.701 10.974C155.505 11.2913 155.374 11.66 155.309 12.08ZM162.388 16V5.892L163.41 5.682V16H162.388ZM171.671 16.154C170.999 16.154 170.369 16.0373 169.781 15.804C169.202 15.5707 168.689 15.2253 168.241 14.768L168.913 14.11C169.323 14.5207 169.743 14.8193 170.173 15.006C170.611 15.1833 171.106 15.272 171.657 15.272C172.133 15.272 172.553 15.188 172.917 15.02C173.29 14.852 173.579 14.6187 173.785 14.32C173.99 14.0213 174.093 13.6807 174.093 13.298C174.093 12.934 173.999 12.612 173.813 12.332C173.635 12.0427 173.388 11.8187 173.071 11.66C172.753 11.5013 172.389 11.422 171.979 11.422H170.817V10.554H171.937C172.469 10.554 172.898 10.3907 173.225 10.064C173.561 9.73733 173.729 9.31267 173.729 8.79C173.729 8.44467 173.635 8.132 173.449 7.852C173.262 7.572 173.005 7.35267 172.679 7.194C172.361 7.026 172.002 6.942 171.601 6.942C171.097 6.942 170.644 7.03533 170.243 7.222C169.851 7.39933 169.449 7.70267 169.039 8.132L168.367 7.46C168.805 6.99333 169.3 6.64333 169.851 6.41C170.401 6.16733 170.989 6.046 171.615 6.046C172.212 6.046 172.744 6.16267 173.211 6.396C173.687 6.62933 174.06 6.95133 174.331 7.362C174.601 7.76333 174.737 8.22067 174.737 8.734C174.737 9.24733 174.569 9.70933 174.233 10.12C173.897 10.5213 173.453 10.8013 172.903 10.96C173.565 11.1093 174.097 11.3987 174.499 11.828C174.9 12.2573 175.101 12.7567 175.101 13.326C175.101 13.8673 174.951 14.3527 174.653 14.782C174.363 15.2113 173.957 15.5473 173.435 15.79C172.921 16.0327 172.333 16.154 171.671 16.154Z" fill="#515151"/>
<path fill-rule="evenodd" clip-rule="evenodd" d="M186.096 8.12966C186.269 7.95678 186.55 7.95678 186.722 8.12966L190.112 11.5192C190.175 11.5823 190.225 11.6572 190.259 11.7397C190.294 11.8222 190.311 11.9107 190.311 12C190.311 12.0893 190.294 12.1778 190.259 12.2603C190.225 12.3428 190.175 12.4177 190.112 12.4808L186.722 15.8703C186.55 16.0432 186.269 16.0432 186.096 15.8703C185.923 15.6975 185.923 15.4172 186.096 15.2443L189.341 12L186.096 8.75572C185.923 8.58283 185.923 8.30254 186.096 8.12966Z" fill="black"/>
<path d="M205.782 16.154C205.073 16.154 204.41 16.028 203.794 15.776C203.178 15.5147 202.637 15.1553 202.17 14.698C201.713 14.2313 201.353 13.6947 201.092 13.088C200.84 12.472 200.714 11.8093 200.714 11.1C200.714 10.3907 200.84 9.73267 201.092 9.126C201.353 8.51 201.713 7.97333 202.17 7.516C202.637 7.04933 203.178 6.69 203.794 6.438C204.41 6.17667 205.073 6.046 205.782 6.046C206.286 6.046 206.771 6.116 207.238 6.256C207.705 6.396 208.139 6.59667 208.54 6.858C208.951 7.11 209.305 7.42267 209.604 7.796L208.484 8.888C208.139 8.44933 207.733 8.118 207.266 7.894C206.799 7.67 206.305 7.558 205.782 7.558C205.306 7.558 204.863 7.64667 204.452 7.824C204.051 8.00133 203.696 8.25333 203.388 8.58C203.089 8.89733 202.856 9.27067 202.688 9.7C202.52 10.1293 202.436 10.596 202.436 11.1C202.436 11.604 202.52 12.0707 202.688 12.5C202.856 12.9293 203.089 13.3073 203.388 13.634C203.696 13.9513 204.051 14.1987 204.452 14.376C204.863 14.5533 205.306 14.642 205.782 14.642C206.305 14.642 206.799 14.53 207.266 14.306C207.733 14.0727 208.139 13.7413 208.484 13.312L209.604 14.404C209.305 14.768 208.951 15.0807 208.54 15.342C208.139 15.6033 207.705 15.804 207.238 15.944C206.771 16.084 206.286 16.154 205.782 16.154ZM213.486 16.112C213.001 16.112 212.576 16.0047 212.212 15.79C211.848 15.5753 211.559 15.2813 211.344 14.908C211.139 14.5347 211.036 14.1007 211.036 13.606V8.986H212.632V13.144C212.632 13.6667 212.767 14.082 213.038 14.39C213.318 14.6887 213.696 14.838 214.172 14.838C214.489 14.838 214.774 14.768 215.026 14.628C215.287 14.488 215.511 14.278 215.698 13.998V8.986H217.28V16H215.698V14.866C215.427 15.2767 215.105 15.5893 214.732 15.804C214.359 16.0093 213.943 16.112 213.486 16.112ZM219.441 16V8.986H221.023V10.498C221.228 9.966 221.494 9.56 221.821 9.28C222.147 9 222.525 8.86 222.955 8.86C223.085 8.86933 223.202 8.88333 223.305 8.902C223.407 8.91133 223.519 8.944 223.641 9V10.386C223.519 10.33 223.379 10.288 223.221 10.26C223.071 10.232 222.922 10.218 222.773 10.218C222.39 10.218 222.045 10.3207 221.737 10.526C221.438 10.7313 221.2 11.016 221.023 11.38V16H219.441ZM225.137 16V8.986H226.719V10.498C226.924 9.966 227.19 9.56 227.517 9.28C227.843 9 228.221 8.86 228.651 8.86C228.781 8.86933 228.898 8.88333 229.001 8.902C229.103 8.91133 229.215 8.944 229.337 9V10.386C229.215 10.33 229.075 10.288 228.917 10.26C228.767 10.232 228.618 10.218 228.469 10.218C228.086 10.218 227.741 10.3207 227.433 10.526C227.134 10.7313 226.896 11.016 226.719 11.38V16H225.137ZM233.767 16.14C233.095 16.14 232.488 15.9813 231.947 15.664C231.405 15.3373 230.976 14.9033 230.659 14.362C230.341 13.8113 230.183 13.1907 230.183 12.5C230.183 11.8093 230.332 11.1933 230.631 10.652C230.929 10.1107 231.335 9.68133 231.849 9.364C232.371 9.03733 232.95 8.874 233.585 8.874C234.238 8.874 234.812 9.03267 235.307 9.35C235.811 9.66733 236.203 10.0967 236.483 10.638C236.772 11.1793 236.917 11.8 236.917 12.5V12.878H231.737C231.793 13.2607 231.914 13.6013 232.101 13.9C232.297 14.1893 232.544 14.418 232.843 14.586C233.151 14.754 233.482 14.838 233.837 14.838C234.163 14.838 234.471 14.782 234.761 14.67C235.059 14.5487 235.307 14.3853 235.503 14.18L236.539 15.118C236.109 15.4727 235.671 15.734 235.223 15.902C234.784 16.0607 234.299 16.14 233.767 16.14ZM231.751 11.898H235.419C235.363 11.562 235.246 11.2633 235.069 11.002C234.901 10.7407 234.686 10.5353 234.425 10.386C234.173 10.2367 233.893 10.162 233.585 10.162C233.277 10.162 232.992 10.2367 232.731 10.386C232.479 10.526 232.269 10.7267 232.101 10.988C231.933 11.2493 231.816 11.5527 231.751 11.898ZM238.73 16V8.986H240.312V10.134C240.583 9.714 240.905 9.40133 241.278 9.196C241.651 8.98133 242.067 8.874 242.524 8.874C243.009 8.874 243.434 8.98133 243.798 9.196C244.162 9.40133 244.447 9.69067 244.652 10.064C244.867 10.4373 244.974 10.876 244.974 11.38V16H243.378V11.828C243.378 11.3147 243.238 10.9087 242.958 10.61C242.678 10.302 242.305 10.148 241.838 10.148C241.521 10.148 241.231 10.2227 240.97 10.372C240.718 10.512 240.499 10.722 240.312 11.002V16H238.73ZM249.897 16.14C249.188 16.14 248.651 15.9767 248.287 15.65C247.923 15.314 247.741 14.824 247.741 14.18V10.246H246.341V8.986H247.741V7.054L249.323 6.718V8.986H251.269V10.246H249.323V13.83C249.323 14.1753 249.398 14.4227 249.547 14.572C249.697 14.712 249.949 14.782 250.303 14.782C250.462 14.782 250.607 14.7727 250.737 14.754C250.877 14.726 251.05 14.6793 251.255 14.614V15.944C251.059 16.0093 250.835 16.056 250.583 16.084C250.341 16.1213 250.112 16.14 249.897 16.14ZM256.215 18.926V8.986H257.769V9.98C258.021 9.644 258.333 9.38733 258.707 9.21C259.089 9.02333 259.505 8.93 259.953 8.93C260.55 8.93 261.087 9.08867 261.563 9.406C262.039 9.72333 262.417 10.1527 262.697 10.694C262.977 11.2353 263.117 11.8373 263.117 12.5C263.117 13.1627 262.972 13.7647 262.683 14.306C262.393 14.8473 262.001 15.2767 261.507 15.594C261.012 15.9113 260.461 16.07 259.855 16.07C259.435 16.07 259.047 15.9953 258.693 15.846C258.347 15.6873 258.049 15.4633 257.797 15.174V18.926H256.215ZM259.477 14.754C259.878 14.754 260.233 14.656 260.541 14.46C260.858 14.264 261.105 13.998 261.283 13.662C261.469 13.3167 261.563 12.9293 261.563 12.5C261.563 12.0707 261.469 11.688 261.283 11.352C261.105 11.016 260.858 10.75 260.541 10.554C260.233 10.358 259.878 10.26 259.477 10.26C259.131 10.26 258.814 10.33 258.525 10.47C258.235 10.6007 257.993 10.792 257.797 11.044V13.97C258.002 14.2127 258.249 14.404 258.539 14.544C258.828 14.684 259.141 14.754 259.477 14.754ZM267.17 16.126C266.684 16.126 266.25 16.0373 265.868 15.86C265.494 15.6733 265.2 15.4213 264.986 15.104C264.78 14.7773 264.678 14.404 264.678 13.984C264.678 13.564 264.785 13.2 265 12.892C265.224 12.584 265.536 12.346 265.938 12.178C266.339 12.01 266.815 11.926 267.366 11.926C267.692 11.926 268.014 11.9633 268.332 12.038C268.649 12.1033 268.957 12.2153 269.256 12.374V11.59C269.256 11.1233 269.12 10.7733 268.85 10.54C268.588 10.3067 268.187 10.19 267.646 10.19C267.356 10.19 267.044 10.2367 266.708 10.33C266.381 10.414 266.012 10.5493 265.602 10.736L265.042 9.588C266.068 9.112 267.039 8.874 267.954 8.874C268.868 8.874 269.573 9.098 270.068 9.546C270.572 9.98467 270.824 10.61 270.824 11.422V16H269.256V15.272C268.957 15.5613 268.635 15.776 268.29 15.916C267.944 16.056 267.571 16.126 267.17 16.126ZM266.162 13.956C266.162 14.2827 266.292 14.5393 266.554 14.726C266.815 14.9127 267.165 15.006 267.604 15.006C267.921 15.006 268.215 14.9593 268.486 14.866C268.766 14.7633 269.022 14.614 269.256 14.418V13.284C269.013 13.172 268.761 13.088 268.5 13.032C268.238 12.976 267.954 12.948 267.646 12.948C267.188 12.948 266.824 13.0367 266.554 13.214C266.292 13.3913 266.162 13.6387 266.162 13.956ZM276.215 19.066C275.72 19.066 275.23 19.0053 274.745 18.884C274.26 18.7627 273.812 18.5947 273.401 18.38L273.947 17.218C274.367 17.414 274.75 17.5587 275.095 17.652C275.45 17.7547 275.8 17.806 276.145 17.806C276.733 17.806 277.176 17.6753 277.475 17.414C277.783 17.1527 277.937 16.7653 277.937 16.252V15.062C277.685 15.37 277.372 15.6127 276.999 15.79C276.626 15.958 276.22 16.042 275.781 16.042C275.193 16.042 274.661 15.8833 274.185 15.566C273.709 15.2393 273.326 14.81 273.037 14.278C272.757 13.7367 272.617 13.1347 272.617 12.472C272.617 11.8093 272.762 11.212 273.051 10.68C273.34 10.148 273.732 9.72333 274.227 9.406C274.731 9.08867 275.286 8.93 275.893 8.93C276.304 8.93 276.686 9.00933 277.041 9.168C277.396 9.32667 277.699 9.56 277.951 9.868V8.986H279.519V16.252C279.519 17.1573 279.234 17.8527 278.665 18.338C278.096 18.8233 277.279 19.066 276.215 19.066ZM276.271 14.726C276.607 14.726 276.92 14.6607 277.209 14.53C277.498 14.39 277.741 14.1987 277.937 13.956V11.016C277.732 10.7733 277.484 10.5867 277.195 10.456C276.906 10.3253 276.598 10.26 276.271 10.26C275.87 10.26 275.51 10.358 275.193 10.554C274.885 10.7407 274.638 11.002 274.451 11.338C274.264 11.6647 274.171 12.0473 274.171 12.486C274.171 12.906 274.264 13.2887 274.451 13.634C274.638 13.97 274.885 14.236 275.193 14.432C275.51 14.628 275.87 14.726 276.271 14.726ZM284.932 16.14C284.26 16.14 283.654 15.9813 283.112 15.664C282.571 15.3373 282.142 14.9033 281.824 14.362C281.507 13.8113 281.348 13.1907 281.348 12.5C281.348 11.8093 281.498 11.1933 281.796 10.652C282.095 10.1107 282.501 9.68133 283.014 9.364C283.537 9.03733 284.116 8.874 284.75 8.874C285.404 8.874 285.978 9.03267 286.472 9.35C286.976 9.66733 287.368 10.0967 287.648 10.638C287.938 11.1793 288.082 11.8 288.082 12.5V12.878H282.902C282.958 13.2607 283.08 13.6013 283.266 13.9C283.462 14.1893 283.71 14.418 284.008 14.586C284.316 14.754 284.648 14.838 285.002 14.838C285.329 14.838 285.637 14.782 285.926 14.67C286.225 14.5487 286.472 14.3853 286.668 14.18L287.704 15.118C287.275 15.4727 286.836 15.734 286.388 15.902C285.95 16.0607 285.464 16.14 284.932 16.14ZM282.916 11.898H286.584C286.528 11.562 286.412 11.2633 286.234 11.002C286.066 10.7407 285.852 10.5353 285.59 10.386C285.338 10.2367 285.058 10.162 284.75 10.162C284.442 10.162 284.158 10.2367 283.896 10.386C283.644 10.526 283.434 10.7267 283.266 10.988C283.098 11.2493 282.982 11.5527 282.916 11.898Z" fill="black"/>
<path fill-rule="evenodd" clip-rule="evenodd" d="M5.90493 82.1297C6.07781 82.3025 6.07781 82.5828 5.90493 82.7557L2.66064 86L5.90493 89.2443C6.07781 89.4172 6.07781 89.6975 5.90493 89.8703C5.73205 90.0432 5.45175 90.0432 5.27887 89.8703L1.88937 86.4808C1.88933 86.4808 1.88929 86.4808 1.88924 86.4807C1.88921 86.4807 1.88918 86.4806 1.88915 86.4806C1.82605 86.4176 1.77599 86.3427 1.74182 86.2603C1.70761 86.1778 1.69 86.0893 1.69 86C1.69 85.9107 1.70761 85.8222 1.74182 85.7397C1.77599 85.6573 1.82605 85.5824 1.88915 85.5194C1.88918 85.5194 1.88921 85.5193 1.88924 85.5193C1.88929 85.5192 1.88933 85.5192 1.88937 85.5192L5.27887 82.1297C5.45175 81.9568 5.73205 81.9568 5.90493 82.1297Z" fill="black"/>
<path d="M17.176 90V80.2H18.856V88.544H24.078V90H17.176ZM28.9186 90.14C28.2466 90.14 27.6399 89.9813 27.0986 89.664C26.5572 89.3373 26.1279 88.9033 25.8106 88.362C25.4932 87.8113 25.3346 87.1907 25.3346 86.5C25.3346 85.8093 25.4839 85.1933 25.7826 84.652C26.0812 84.1107 26.4872 83.6813 27.0006 83.364C27.5232 83.0373 28.1019 82.874 28.7366 82.874C29.3899 82.874 29.9639 83.0327 30.4586 83.35C30.9626 83.6673 31.3546 84.0967 31.6346 84.638C31.9239 85.1793 32.0686 85.8 32.0686 86.5V86.878H26.8886C26.9446 87.2607 27.0659 87.6013 27.2526 87.9C27.4486 88.1893 27.6959 88.418 27.9946 88.586C28.3026 88.754 28.6339 88.838 28.9886 88.838C29.3152 88.838 29.6232 88.782 29.9126 88.67C30.2112 88.5487 30.4586 88.3853 30.6546 88.18L31.6906 89.118C31.2612 89.4727 30.8226 89.734 30.3746 89.902C29.9359 90.0607 29.4506 90.14 28.9186 90.14ZM26.9026 85.898H30.5706C30.5146 85.562 30.3979 85.2633 30.2206 85.002C30.0526 84.7407 29.8379 84.5353 29.5766 84.386C29.3246 84.2367 29.0446 84.162 28.7366 84.162C28.4286 84.162 28.1439 84.2367 27.8826 84.386C27.6306 84.526 27.4206 84.7267 27.2526 84.988C27.0846 85.2493 26.9679 85.5527 26.9026 85.898ZM35.7069 90L32.8509 82.986H34.5729L36.5329 88.082L38.4789 82.986H40.1309L37.2469 90H35.7069ZM44.5217 90.14C43.8497 90.14 43.243 89.9813 42.7017 89.664C42.1604 89.3373 41.731 88.9033 41.4137 88.362C41.0964 87.8113 40.9377 87.1907 40.9377 86.5C40.9377 85.8093 41.087 85.1933 41.3857 84.652C41.6844 84.1107 42.0904 83.6813 42.6037 83.364C43.1264 83.0373 43.705 82.874 44.3397 82.874C44.993 82.874 45.567 83.0327 46.0617 83.35C46.5657 83.6673 46.9577 84.0967 47.2377 84.638C47.527 85.1793 47.6717 85.8 47.6717 86.5V86.878H42.4917C42.5477 87.2607 42.669 87.6013 42.8557 87.9C43.0517 88.1893 43.299 88.418 43.5977 88.586C43.9057 88.754 44.237 88.838 44.5917 88.838C44.9184 88.838 45.2264 88.782 45.5157 88.67C45.8144 88.5487 46.0617 88.3853 46.2577 88.18L47.2937 89.118C46.8644 89.4727 46.4257 89.734 45.9777 89.902C45.539 90.0607 45.0537 90.14 44.5217 90.14ZM42.5057 85.898H46.1737C46.1177 85.562 46.001 85.2633 45.8237 85.002C45.6557 84.7407 45.441 84.5353 45.1797 84.386C44.9277 84.2367 44.6477 84.162 44.3397 84.162C44.0317 84.162 43.747 84.2367 43.4857 84.386C43.2337 84.526 43.0237 84.7267 42.8557 84.988C42.6877 85.2493 42.571 85.5527 42.5057 85.898ZM49.4851 90V79.962L51.0671 79.682V90H49.4851ZM59.693 90.154C58.965 90.154 58.2883 90.028 57.663 89.776C57.0376 89.5147 56.5056 89.1507 56.067 88.684L57.089 87.704C57.481 88.1147 57.873 88.404 58.265 88.572C58.657 88.7307 59.1236 88.81 59.665 88.81C60.0943 88.81 60.4676 88.7447 60.785 88.614C61.1116 88.474 61.3636 88.2827 61.541 88.04C61.7183 87.7973 61.807 87.5127 61.807 87.186C61.807 86.8967 61.7323 86.64 61.583 86.416C61.4336 86.192 61.2283 86.0193 60.967 85.898C60.7056 85.7673 60.4023 85.702 60.057 85.702H58.853V84.414H59.931C60.407 84.414 60.785 84.2833 61.065 84.022C61.3543 83.7607 61.499 83.406 61.499 82.958C61.499 82.6687 61.415 82.4073 61.247 82.174C61.0883 81.9313 60.869 81.7447 60.589 81.614C60.309 81.474 59.9916 81.404 59.637 81.404C59.1423 81.404 58.7083 81.4927 58.335 81.67C57.971 81.838 57.593 82.1367 57.201 82.566L56.165 81.6C56.613 81.096 57.1403 80.7133 57.747 80.452C58.363 80.1813 59.007 80.046 59.679 80.046C60.3323 80.046 60.911 80.1627 61.415 80.396C61.919 80.6293 62.311 80.956 62.591 81.376C62.8803 81.7867 63.025 82.258 63.025 82.79C63.025 83.3127 62.8523 83.7793 62.507 84.19C62.171 84.5913 61.7276 84.8713 61.177 85.03C61.8303 85.17 62.353 85.4453 62.745 85.856C63.1463 86.2573 63.347 86.7333 63.347 87.284C63.347 87.8347 63.1883 88.3293 62.871 88.768C62.5536 89.1973 62.1196 89.538 61.569 89.79C61.0276 90.0327 60.4023 90.154 59.693 90.154Z" fill="black"/>
<path fill-rule="evenodd" clip-rule="evenodd" d="M124.753 21.9122C125.607 22.9976 127.178 23.1859 128.264 22.3326C129.349 21.4793 129.537 19.9076 128.684 18.8221C127.831 17.7366 126.259 17.5484 125.174 18.4017C124.088 19.255 123.9 20.8267 124.753 21.9122Z" fill="#29D305"/>
<path d="M121.609 24.3843L77.8307 58.7986" stroke="#29D305" stroke-width="2.5" stroke-linecap="round"/>
<path fill-rule="evenodd" clip-rule="evenodd" d="M73.7094 72.7382C74.3972 72.7982 75.0033 72.2892 75.0632 71.6015C75.1232 70.9137 74.6142 70.3076 73.9265 70.2477L66.1511 69.57L78.6032 59.7812L77.0582 57.8158L64.606 67.6046L65.7834 59.889C65.8876 59.2066 65.4188 58.5689 64.7363 58.4647C64.0538 58.3606 63.4162 58.8294 63.312 59.5119L61.6578 70.3522C61.6057 70.6938 61.6973 71.0417 61.9108 71.3133C62.1243 71.585 62.4408 71.7561 62.785 71.7861L73.7094 72.7382Z" fill="#29D305"/>
</svg>
