<svg width="289" height="98" fill="none" xmlns="http://www.w3.org/2000/svg"><path d="M1.232 16V6.2H2.31v4.382h5.628V6.2h1.078V16H7.938v-4.452H2.31V16H1.232zm13.096.112a3.21 3.21 0 0 1-1.708-.462 3.289 3.289 0 0 1-1.19-1.26c-.29-.532-.434-1.134-.434-1.806 0-.672.145-1.274.434-1.806.29-.532.686-.952 1.19-1.26a3.21 3.21 0 0 1 1.708-.462c.625 0 1.185.154 1.68.462.504.308.9.728 1.19 1.26.29.532.434 1.134.434 1.806 0 .672-.145 1.274-.434 1.806-.29.532-.686.952-1.19 1.26a3.113 3.113 0 0 1-1.68.462zm-.014-.896c.448 0 .845-.112 1.19-.336.345-.233.616-.55.812-.952.205-.401.308-.85.308-1.344 0-.504-.103-.952-.308-1.344a2.283 2.283 0 0 0-.812-.938 2.075 2.075 0 0 0-1.19-.35c-.448 0-.845.117-1.19.35-.345.224-.62.537-.826.938-.196.392-.294.84-.294 1.344 0 .495.098.943.294 1.344.205.401.48.719.826.952.345.224.742.336 1.19.336zm5.111.784V9.168h1.022v1.064c.261-.392.56-.686.896-.882a2.209 2.209 0 0 1 1.134-.294c.485 0 .91.121 1.274.364a2.2 2.2 0 0 1 .826.966c.27-.439.593-.77.966-.994a2.556 2.556 0 0 1 1.316-.336c.457 0 .859.107 1.204.322.355.215.63.513.826.896.196.373.294.812.294 1.316V16h-1.022v-4.158c0-.597-.15-1.069-.448-1.414-.299-.345-.71-.518-1.232-.518-.355 0-.677.089-.966.266-.28.177-.527.448-.742.812a3.412 3.412 0 0 1 .056.602V16h-1.022v-4.158c0-.597-.154-1.069-.462-1.414-.299-.345-.71-.518-1.232-.518-.7 0-1.255.336-1.666 1.008V16h-1.022zm14.906.14a3.282 3.282 0 0 1-1.722-.462 3.467 3.467 0 0 1-1.218-1.274 3.703 3.703 0 0 1-.448-1.82c0-.672.14-1.274.42-1.806.29-.532.677-.952 1.162-1.26a2.968 2.968 0 0 1 1.624-.462c.607 0 1.143.154 1.61.462.476.299.85.71 1.12 1.232.28.513.42 1.097.42 1.75v.308h-5.362c.037.467.163.887.378 1.26.224.364.514.653.868.868.364.205.76.308 1.19.308.355 0 .696-.06 1.022-.182.336-.13.62-.303.854-.518l.644.686a4.31 4.31 0 0 1-1.218.686c-.42.15-.868.224-1.344.224zm-2.366-4.06h4.326a2.5 2.5 0 0 0-.378-1.092 2.213 2.213 0 0 0-.756-.77 1.862 1.862 0 0 0-1.008-.28c-.373 0-.714.093-1.022.28-.308.177-.565.43-.77.756a2.94 2.94 0 0 0-.392 1.106z" fill="#515151"/><path fill-rule="evenodd" clip-rule="evenodd" d="M48.096 8.13a.443.443 0 0 1 .626 0l3.39 3.39a.679.679 0 0 1 0 .96l-3.39 3.39a.443.443 0 0 1-.626-.626L51.341 12l-3.245-3.244a.443.443 0 0 1 0-.626z" fill="#000"/><path d="M63.246 16V6.2h1.078v8.848h5.53V16h-6.608zm11.032.14a3.283 3.283 0 0 1-1.722-.462 3.469 3.469 0 0 1-1.218-1.274 3.704 3.704 0 0 1-.448-1.82c0-.672.14-1.274.42-1.806.29-.532.677-.952 1.162-1.26a2.968 2.968 0 0 1 1.624-.462c.607 0 1.144.154 1.61.462.476.299.85.71 1.12 1.232.28.513.42 1.097.42 1.75v.308h-5.362c.038.467.164.887.378 1.26.224.364.514.653.868.868.364.205.761.308 1.19.308.355 0 .696-.06 1.022-.182.336-.13.621-.303.854-.518l.644.686a4.31 4.31 0 0 1-1.218.686c-.42.15-.868.224-1.344.224zm-2.366-4.06h4.326a2.497 2.497 0 0 0-.378-1.092 2.213 2.213 0 0 0-.756-.77 1.862 1.862 0 0 0-1.008-.28c-.373 0-.714.093-1.022.28-.308.177-.564.43-.77.756a2.942 2.942 0 0 0-.392 1.106zM80.746 16l-2.8-6.832h1.106l2.212 5.558 2.184-5.558h1.092L81.726 16h-.98zm7.929.14a3.283 3.283 0 0 1-1.722-.462 3.469 3.469 0 0 1-1.218-1.274 3.704 3.704 0 0 1-.448-1.82c0-.672.14-1.274.42-1.806.29-.532.677-.952 1.162-1.26a2.968 2.968 0 0 1 1.624-.462c.607 0 1.143.154 1.61.462.476.299.85.71 1.12 1.232.28.513.42 1.097.42 1.75v.308H86.28c.037.467.163.887.378 1.26.224.364.513.653.868.868.364.205.76.308 1.19.308.355 0 .695-.06 1.022-.182.336-.13.62-.303.854-.518l.644.686a4.31 4.31 0 0 1-1.218.686c-.42.15-.868.224-1.344.224zm-2.366-4.06h4.326a2.497 2.497 0 0 0-.378-1.092 2.213 2.213 0 0 0-.756-.77 1.862 1.862 0 0 0-1.008-.28c-.373 0-.714.093-1.022.28-.308.177-.565.43-.77.756a2.942 2.942 0 0 0-.392 1.106zM93.388 16V5.892l1.022-.21V16h-1.022zm6.049 0v-.742l3.92-4.284c.308-.336.546-.63.714-.882.177-.261.298-.504.364-.728.074-.224.112-.462.112-.714 0-.495-.196-.9-.588-1.218-.383-.327-.873-.49-1.47-.49-.458 0-.882.089-1.274.266-.392.177-.831.485-1.316.924l-.588-.7c.513-.467 1.031-.812 1.554-1.036a3.97 3.97 0 0 1 1.638-.35c.588 0 1.11.112 1.568.336.457.215.816.513 1.078.896.261.383.392.821.392 1.316 0 .327-.042.63-.126.91a3.44 3.44 0 0 1-.448.882c-.215.308-.523.681-.924 1.12l-3.346 3.626 5.054-.014V16h-6.314z" fill="#515151"/><path fill-rule="evenodd" clip-rule="evenodd" d="M117.096 8.13a.443.443 0 0 1 .626 0l3.39 3.39a.677.677 0 0 1 .147.74.677.677 0 0 1-.147.22l-3.39 3.39a.443.443 0 1 1-.626-.626L120.341 12l-3.245-3.244a.442.442 0 0 1 0-.626z" fill="#000"/><path d="M132.246 16V6.2h1.078v8.848h5.53V16h-6.608zm11.032.14a3.286 3.286 0 0 1-1.722-.462 3.474 3.474 0 0 1-1.218-1.274 3.711 3.711 0 0 1-.448-1.82c0-.672.14-1.274.42-1.806.29-.532.677-.952 1.162-1.26a2.97 2.97 0 0 1 1.624-.462c.607 0 1.144.154 1.61.462.476.299.85.71 1.12 1.232.28.513.42 1.097.42 1.75v.308h-5.362c.038.467.164.887.378 1.26.224.364.514.653.868.868.364.205.761.308 1.19.308.355 0 .696-.06 1.022-.182.336-.13.621-.303.854-.518l.644.686a4.31 4.31 0 0 1-1.218.686c-.42.15-.868.224-1.344.224zm-2.366-4.06h4.326a2.482 2.482 0 0 0-.378-1.092 2.213 2.213 0 0 0-.756-.77 1.86 1.86 0 0 0-1.008-.28c-.373 0-.714.093-1.022.28-.308.177-.564.43-.77.756a2.952 2.952 0 0 0-.392 1.106zm8.834 3.92l-2.8-6.832h1.106l2.212 5.558 2.184-5.558h1.092L150.726 16h-.98zm7.929.14a3.28 3.28 0 0 1-1.722-.462 3.474 3.474 0 0 1-1.218-1.274 3.7 3.7 0 0 1-.448-1.82c0-.672.14-1.274.42-1.806a3.364 3.364 0 0 1 1.162-1.26 2.968 2.968 0 0 1 1.624-.462c.607 0 1.143.154 1.61.462.476.299.849.71 1.12 1.232.28.513.42 1.097.42 1.75v.308h-5.362c.037.467.163.887.378 1.26.224.364.513.653.868.868.364.205.761.308 1.19.308.355 0 .695-.06 1.022-.182.336-.13.621-.303.854-.518l.644.686a4.31 4.31 0 0 1-1.218.686c-.42.15-.868.224-1.344.224zm-2.366-4.06h4.326a2.507 2.507 0 0 0-.378-1.092 2.213 2.213 0 0 0-.756-.77 1.864 1.864 0 0 0-1.008-.28c-.373 0-.714.093-1.022.28-.308.177-.565.43-.77.756a2.935 2.935 0 0 0-.392 1.106zm7.079 3.92V5.892l1.022-.21V16h-1.022zm9.283.154a5.078 5.078 0 0 1-1.89-.35 4.482 4.482 0 0 1-1.54-1.036l.672-.658c.41.41.83.71 1.26.896.438.177.933.266 1.484.266.476 0 .896-.084 1.26-.252.373-.168.662-.401.868-.7.205-.299.308-.64.308-1.022 0-.364-.094-.686-.28-.966a1.793 1.793 0 0 0-.742-.672 2.413 2.413 0 0 0-1.092-.238h-1.162v-.868h1.12c.532 0 .961-.163 1.288-.49.336-.327.504-.751.504-1.274 0-.345-.094-.658-.28-.938-.187-.28-.444-.5-.77-.658a2.271 2.271 0 0 0-1.078-.252c-.504 0-.957.093-1.358.28-.392.177-.794.48-1.204.91l-.672-.672a4.354 4.354 0 0 1 1.484-1.05 4.32 4.32 0 0 1 1.764-.364c.597 0 1.129.117 1.596.35.476.233.849.555 1.12.966.27.401.406.859.406 1.372 0 .513-.168.975-.504 1.386-.336.401-.78.681-1.33.84.662.15 1.194.439 1.596.868.401.43.602.929.602 1.498 0 .541-.15 1.027-.448 1.456-.29.43-.696.765-1.218 1.008-.514.243-1.102.364-1.764.364z" fill="#515151"/><path fill-rule="evenodd" clip-rule="evenodd" d="M186.096 8.13a.443.443 0 0 1 .626 0l3.39 3.39a.677.677 0 0 1 .147.74.677.677 0 0 1-.147.22l-3.39 3.39a.443.443 0 1 1-.626-.626L189.341 12l-3.245-3.244a.442.442 0 0 1 0-.626z" fill="#000"/><path d="M205.782 16.154a5.2 5.2 0 0 1-1.988-.378 5.2 5.2 0 0 1-1.624-1.078 5.243 5.243 0 0 1-1.078-1.61 5.2 5.2 0 0 1-.378-1.988c0-.71.126-1.367.378-1.974a5.03 5.03 0 0 1 1.078-1.61 4.897 4.897 0 0 1 1.624-1.078 5.038 5.038 0 0 1 1.988-.392 5.041 5.041 0 0 1 2.758.812c.411.252.765.565 1.064.938l-1.12 1.092a3.428 3.428 0 0 0-1.218-.994 3.386 3.386 0 0 0-1.484-.336 3.32 3.32 0 0 0-1.33.266c-.401.177-.756.43-1.064.756-.299.317-.532.69-.7 1.12-.168.43-.252.896-.252 1.4 0 .504.084.97.252 1.4.168.43.401.807.7 1.134a3.37 3.37 0 0 0 1.064.742 3.32 3.32 0 0 0 1.33.266c.523 0 1.017-.112 1.484-.336a3.64 3.64 0 0 0 1.218-.994l1.12 1.092a4.466 4.466 0 0 1-1.064.938 5.003 5.003 0 0 1-2.758.812zm7.704-.042c-.485 0-.91-.107-1.274-.322a2.388 2.388 0 0 1-.868-.882c-.205-.373-.308-.807-.308-1.302v-4.62h1.596v4.158c0 .523.135.938.406 1.246.28.299.658.448 1.134.448.317 0 .602-.07.854-.21.261-.14.485-.35.672-.63V8.986h1.582V16h-1.582v-1.134c-.271.41-.593.723-.966.938a2.542 2.542 0 0 1-1.246.308zm5.955-.112V8.986h1.582v1.512c.205-.532.471-.938.798-1.218.326-.28.704-.42 1.134-.42.13.01.247.023.35.042.102.01.214.042.336.098v1.386a1.728 1.728 0 0 0-.42-.126 2.434 2.434 0 0 0-.448-.042c-.383 0-.728.103-1.036.308-.299.205-.537.49-.714.854V16h-1.582zm5.696 0V8.986h1.582v1.512c.205-.532.471-.938.798-1.218.326-.28.704-.42 1.134-.42.13.01.247.023.35.042.102.01.214.042.336.098v1.386a1.728 1.728 0 0 0-.42-.126 2.434 2.434 0 0 0-.448-.042c-.383 0-.728.103-1.036.308-.299.205-.537.49-.714.854V16h-1.582zm8.63.14a3.531 3.531 0 0 1-1.82-.476 3.655 3.655 0 0 1-1.288-1.302c-.318-.55-.476-1.171-.476-1.862 0-.69.149-1.307.448-1.848.298-.541.704-.97 1.218-1.288a3.208 3.208 0 0 1 1.736-.49c.653 0 1.227.159 1.722.476.504.317.896.747 1.176 1.288.289.541.434 1.162.434 1.862v.378h-5.18c.056.383.177.723.364 1.022.196.29.443.518.742.686.308.168.639.252.994.252.326 0 .634-.056.924-.168.298-.121.546-.285.742-.49l1.036.938c-.43.355-.868.616-1.316.784a4.255 4.255 0 0 1-1.456.238zm-2.016-4.242h3.668a2.23 2.23 0 0 0-.35-.896 1.85 1.85 0 0 0-.644-.616 1.617 1.617 0 0 0-.84-.224c-.308 0-.593.075-.854.224-.252.14-.462.34-.63.602a2.53 2.53 0 0 0-.35.91zM238.73 16V8.986h1.582v1.148c.271-.42.593-.733.966-.938a2.455 2.455 0 0 1 1.246-.322c.485 0 .91.107 1.274.322.364.205.649.495.854.868.215.373.322.812.322 1.316V16h-1.596v-4.172c0-.513-.14-.92-.42-1.218-.28-.308-.653-.462-1.12-.462-.317 0-.607.075-.868.224-.252.14-.471.35-.658.63V16h-1.582zm11.167.14c-.709 0-1.246-.163-1.61-.49-.364-.336-.546-.826-.546-1.47v-3.934h-1.4v-1.26h1.4V7.054l1.582-.336v2.268h1.946v1.26h-1.946v3.584c0 .345.075.593.224.742.15.14.402.21.756.21.159 0 .304-.01.434-.028a4.99 4.99 0 0 0 .518-.14v1.33c-.196.065-.42.112-.672.14a4.516 4.516 0 0 1-.686.056zm6.318 2.786v-9.94h1.554v.994c.252-.336.564-.593.938-.77.382-.187.798-.28 1.246-.28.597 0 1.134.159 1.61.476a3.38 3.38 0 0 1 1.134 1.288c.28.541.42 1.143.42 1.806s-.145 1.265-.434 1.806c-.29.541-.682.97-1.176 1.288a2.998 2.998 0 0 1-1.652.476c-.42 0-.808-.075-1.162-.224a2.63 2.63 0 0 1-.896-.672v3.752h-1.582zm3.262-4.172a1.94 1.94 0 0 0 1.064-.294c.317-.196.564-.462.742-.798.186-.345.28-.733.28-1.162 0-.43-.094-.812-.28-1.148a2.045 2.045 0 0 0-.742-.798 1.94 1.94 0 0 0-1.064-.294c-.346 0-.663.07-.952.21-.29.13-.532.322-.728.574v2.926c.205.243.452.434.742.574.289.14.602.21.938.21zm7.693 1.372c-.486 0-.92-.089-1.302-.266a2.25 2.25 0 0 1-.882-.756 2.054 2.054 0 0 1-.308-1.12c0-.42.107-.784.322-1.092.224-.308.536-.546.938-.714.401-.168.877-.252 1.428-.252.326 0 .648.037.966.112.317.065.625.177.924.336v-.784c0-.467-.136-.817-.406-1.05-.262-.233-.663-.35-1.204-.35-.29 0-.602.047-.938.14-.327.084-.696.22-1.106.406l-.56-1.148c1.026-.476 1.997-.714 2.912-.714.914 0 1.619.224 2.114.672.504.439.756 1.064.756 1.876V16h-1.568v-.728c-.299.29-.621.504-.966.644-.346.14-.719.21-1.12.21zm-1.008-2.17c0 .327.13.583.392.77.261.187.611.28 1.05.28.317 0 .611-.047.882-.14.28-.103.536-.252.77-.448v-1.134a3.61 3.61 0 0 0-.756-.252 4.081 4.081 0 0 0-.854-.084c-.458 0-.822.089-1.092.266a.846.846 0 0 0-.392.742zm10.053 5.11c-.495 0-.985-.06-1.47-.182a6.073 6.073 0 0 1-1.344-.504l.546-1.162c.42.196.803.34 1.148.434.355.103.705.154 1.05.154.588 0 1.031-.13 1.33-.392.308-.261.462-.649.462-1.162v-1.19c-.252.308-.565.55-.938.728a2.931 2.931 0 0 1-1.218.252c-.588 0-1.12-.159-1.596-.476a3.644 3.644 0 0 1-1.148-1.288 3.872 3.872 0 0 1-.42-1.806c0-.663.145-1.26.434-1.792a3.43 3.43 0 0 1 1.176-1.274 3.064 3.064 0 0 1 1.666-.476c.411 0 .793.08 1.148.238.355.159.658.392.91.7v-.882h1.568v7.266c0 .905-.285 1.6-.854 2.086-.569.485-1.386.728-2.45.728zm.056-4.34c.336 0 .649-.065.938-.196.289-.14.532-.331.728-.574v-2.94a2.084 2.084 0 0 0-.742-.56 2.216 2.216 0 0 0-.924-.196 2.01 2.01 0 0 0-1.078.294 2.074 2.074 0 0 0-.742.784c-.187.327-.28.71-.28 1.148 0 .42.093.803.28 1.148.187.336.434.602.742.798a2.01 2.01 0 0 0 1.078.294zm8.661 1.414a3.534 3.534 0 0 1-1.82-.476 3.67 3.67 0 0 1-1.288-1.302 3.665 3.665 0 0 1-.476-1.862c0-.69.15-1.307.448-1.848.299-.541.705-.97 1.218-1.288a3.212 3.212 0 0 1 1.736-.49c.654 0 1.228.159 1.722.476.504.317.896.747 1.176 1.288.29.541.434 1.162.434 1.862v.378h-5.18c.056.383.178.723.364 1.022.196.29.444.518.742.686.308.168.64.252.994.252.327 0 .635-.056.924-.168a2.1 2.1 0 0 0 .742-.49l1.036.938a4.623 4.623 0 0 1-1.316.784 4.25 4.25 0 0 1-1.456.238zm-2.016-4.242h3.668a2.216 2.216 0 0 0-.35-.896 1.842 1.842 0 0 0-.644-.616 1.617 1.617 0 0 0-.84-.224c-.308 0-.592.075-.854.224-.252.14-.462.34-.63.602a2.549 2.549 0 0 0-.35.91z" fill="#000"/><path fill-rule="evenodd" clip-rule="evenodd" d="M5.905 82.13a.443.443 0 0 1 0 .626L2.66 86l3.244 3.244a.443.443 0 1 1-.626.626l-3.39-3.39a.679.679 0 0 1 0-.96l3.39-3.39a.443.443 0 0 1 .626 0z" fill="#000"/><path d="M17.176 90v-9.8h1.68v8.344h5.222V90h-6.902zm11.743.14a3.532 3.532 0 0 1-1.82-.476 3.662 3.662 0 0 1-1.288-1.302c-.318-.55-.476-1.171-.476-1.862 0-.69.149-1.307.448-1.848.298-.541.704-.97 1.218-1.288a3.21 3.21 0 0 1 1.736-.49c.653 0 1.227.159 1.722.476.504.317.896.747 1.176 1.288.289.541.434 1.162.434 1.862v.378h-5.18c.056.383.177.723.364 1.022.196.29.443.518.742.686.308.168.639.252.994.252.326 0 .634-.056.924-.168.298-.121.546-.285.742-.49l1.036.938c-.43.355-.868.616-1.316.784a4.254 4.254 0 0 1-1.456.238zm-2.016-4.242h3.668a2.226 2.226 0 0 0-.35-.896 1.848 1.848 0 0 0-.644-.616 1.617 1.617 0 0 0-.84-.224c-.308 0-.593.075-.854.224-.252.14-.462.34-.63.602a2.536 2.536 0 0 0-.35.91zM35.707 90l-2.856-7.014h1.722l1.96 5.096 1.946-5.096h1.652L37.247 90h-1.54zm8.815.14a3.532 3.532 0 0 1-1.82-.476 3.663 3.663 0 0 1-1.288-1.302c-.318-.55-.476-1.171-.476-1.862 0-.69.149-1.307.448-1.848.298-.541.704-.97 1.218-1.288a3.21 3.21 0 0 1 1.736-.49c.653 0 1.227.159 1.722.476.504.317.896.747 1.176 1.288.289.541.434 1.162.434 1.862v.378h-5.18c.056.383.177.723.364 1.022.196.29.443.518.742.686.308.168.639.252.994.252.326 0 .634-.056.924-.168.298-.121.546-.285.742-.49l1.036.938c-.43.355-.868.616-1.316.784a4.254 4.254 0 0 1-1.456.238zm-2.016-4.242h3.668a2.226 2.226 0 0 0-.35-.896 1.848 1.848 0 0 0-.644-.616 1.617 1.617 0 0 0-.84-.224c-.308 0-.593.075-.854.224-.252.14-.462.34-.63.602a2.536 2.536 0 0 0-.35.91zM49.486 90V79.962l1.581-.28V90h-1.582zm10.207.154a5.38 5.38 0 0 1-2.03-.378 4.584 4.584 0 0 1-1.596-1.092l1.022-.98c.392.41.784.7 1.176.868.392.159.859.238 1.4.238.43 0 .803-.065 1.12-.196.327-.14.579-.331.756-.574.177-.243.266-.527.266-.854 0-.29-.075-.546-.224-.77a1.461 1.461 0 0 0-.616-.518 2.01 2.01 0 0 0-.91-.196h-1.204v-1.288h1.078c.476 0 .854-.13 1.134-.392.29-.261.434-.616.434-1.064 0-.29-.084-.55-.252-.784a1.549 1.549 0 0 0-.658-.56 2.1 2.1 0 0 0-.952-.21c-.495 0-.929.089-1.302.266-.364.168-.742.467-1.134.896l-1.036-.966a4.451 4.451 0 0 1 1.582-1.148 4.752 4.752 0 0 1 1.932-.406c.653 0 1.232.117 1.736.35.504.233.896.56 1.176.98.29.41.434.882.434 1.414 0 .523-.173.99-.518 1.4-.336.401-.78.681-1.33.84.653.14 1.176.415 1.568.826.401.401.602.877.602 1.428a2.47 2.47 0 0 1-.476 1.484c-.317.43-.751.77-1.302 1.022-.541.243-1.167.364-1.876.364z" fill="#000"/><path fill-rule="evenodd" clip-rule="evenodd" d="M124.753 21.912a2.5 2.5 0 1 0 3.932-3.091 2.5 2.5 0 0 0-3.932 3.091z" fill="#29D305"/><path d="M121.609 24.384L77.831 58.8" stroke="#29D305" stroke-width="2.5" stroke-linecap="round"/><path fill-rule="evenodd" clip-rule="evenodd" d="M73.71 72.738a1.25 1.25 0 1 0 .217-2.49l-7.776-.678 12.452-9.789-1.545-1.965-12.452 9.789 1.177-7.716a1.25 1.25 0 1 0-2.471-.377l-1.654 10.84a1.25 1.25 0 0 0 1.127 1.434l10.924.952z" fill="#29D305"/></svg>