<svg width="289" height="24" fill="none" xmlns="http://www.w3.org/2000/svg"><path d="M1.232 16V6.2H2.31v4.382h5.628V6.2h1.078V16H7.938v-4.452H2.31V16H1.232zm9.75-3.416c0-.504.084-.97.252-1.4a3.58 3.58 0 0 1 .686-1.12 3.17 3.17 0 0 1 1.064-.742c.41-.177.85-.266 1.316-.266.476 0 .915.089 1.316.266.41.177.766.425 1.064.742.299.317.532.69.7 1.12.168.43.252.896.252 1.4 0 .504-.088.975-.266 1.414a3.415 3.415 0 0 1-.7 1.134c-.29.308-.64.555-1.05.742-.41.177-.85.266-1.316.266-.466 0-.905-.089-1.316-.266a3.394 3.394 0 0 1-1.05-.756 3.797 3.797 0 0 1-.7-1.12 3.92 3.92 0 0 1-.252-1.414zM14.3 15.23c.663 0 1.214-.247 1.652-.742.448-.504.672-1.134.672-1.89s-.224-1.386-.672-1.89a2.098 2.098 0 0 0-1.652-.756c-.662 0-1.213.252-1.652.756-.438.504-.658 1.134-.658 1.89s.22 1.386.658 1.89c.439.495.99.742 1.652.742zm5.125.77V9.168h1.022v1.064c.261-.392.56-.686.896-.882a2.209 2.209 0 0 1 1.134-.294c.476 0 .896.121 1.26.364.373.243.653.565.84.966.261-.439.583-.77.966-.994a2.556 2.556 0 0 1 1.316-.336c.681 0 1.237.238 1.666.714.439.467.658 1.073.658 1.82V16h-1.022v-4.158c0-.588-.154-1.055-.462-1.4-.299-.355-.705-.532-1.218-.532-.355 0-.677.089-.966.266-.29.177-.537.448-.742.812a3.412 3.412 0 0 1 .056.602V16h-1.022v-4.158c0-.588-.154-1.055-.462-1.4-.308-.355-.719-.532-1.232-.532-.345 0-.658.084-.938.252-.28.168-.523.42-.728.756V16h-1.022zm17.468-.784a4.31 4.31 0 0 1-1.218.686c-.42.15-.868.224-1.344.224a3.42 3.42 0 0 1-1.344-.266 3.514 3.514 0 0 1-1.078-.756 3.647 3.647 0 0 1-.714-1.12 3.88 3.88 0 0 1-.252-1.4c0-.495.08-.957.238-1.386.168-.439.397-.812.686-1.12.29-.317.63-.565 1.022-.742.392-.187.817-.28 1.274-.28.448 0 .864.089 1.246.266a3.192 3.192 0 0 1 1.652 1.82c.159.42.238.873.238 1.358v.308h-5.362c.047.69.303 1.27.77 1.736a2.298 2.298 0 0 0 1.666.686c.355 0 .696-.06 1.022-.182.336-.13.62-.303.854-.518l.644.686zM34.15 9.938c-.56 0-1.04.2-1.442.602-.401.401-.648.915-.742 1.54h4.326c-.074-.616-.313-1.125-.714-1.526a1.9 1.9 0 0 0-1.428-.616z" fill="#515151"/><path fill-rule="evenodd" clip-rule="evenodd" d="M48.096 8.13a.443.443 0 0 1 .626 0l3.39 3.39a.679.679 0 0 1 0 .96l-3.39 3.39a.443.443 0 0 1-.626-.626L51.341 12l-3.245-3.244a.443.443 0 0 1 0-.626z" fill="#000"/><path d="M63.246 16V6.2h1.078v8.848h5.53V16h-6.608zm13.622-.784a4.31 4.31 0 0 1-1.218.686c-.42.15-.868.224-1.344.224a3.42 3.42 0 0 1-1.344-.266 3.514 3.514 0 0 1-1.078-.756 3.647 3.647 0 0 1-.714-1.12 3.88 3.88 0 0 1-.252-1.4c0-.495.08-.957.238-1.386.168-.439.396-.812.686-1.12.29-.317.63-.565 1.022-.742.392-.187.816-.28 1.274-.28.448 0 .863.089 1.246.266a3.192 3.192 0 0 1 1.652 1.82c.158.42.238.873.238 1.358v.308h-5.362c.046.69.303 1.27.77 1.736a2.298 2.298 0 0 0 1.666.686c.354 0 .695-.06 1.022-.182.336-.13.62-.303.854-.518l.644.686zm-2.744-5.278c-.56 0-1.04.2-1.442.602-.402.401-.649.915-.742 1.54h4.326c-.075-.616-.313-1.125-.714-1.526a1.9 1.9 0 0 0-1.428-.616zM80.774 16l-2.8-6.832h1.106l2.212 5.558 2.184-5.558h1.092L81.754 16h-.98zm10.49-.784a4.31 4.31 0 0 1-1.218.686c-.42.15-.868.224-1.344.224a3.42 3.42 0 0 1-1.344-.266 3.514 3.514 0 0 1-1.078-.756 3.647 3.647 0 0 1-.714-1.12 3.88 3.88 0 0 1-.252-1.4c0-.495.08-.957.238-1.386.168-.439.397-.812.686-1.12.29-.317.63-.565 1.022-.742.392-.187.817-.28 1.274-.28.448 0 .864.089 1.246.266a3.192 3.192 0 0 1 1.652 1.82c.159.42.238.873.238 1.358v.308h-5.362c.047.69.304 1.27.77 1.736a2.298 2.298 0 0 0 1.666.686c.355 0 .696-.06 1.022-.182.336-.13.62-.303.854-.518l.644.686zM88.52 9.938c-.56 0-1.04.2-1.442.602-.401.401-.648.915-.742 1.54h4.326c-.074-.616-.312-1.125-.714-1.526a1.9 1.9 0 0 0-1.428-.616zm5.917-4.158V16h-1.022V5.99l1.022-.21zM99.45 16v-.742l3.92-4.284c.457-.504.77-.92.938-1.246.168-.327.252-.677.252-1.05 0-.485-.196-.891-.588-1.218-.392-.327-.882-.49-1.47-.49-.457 0-.887.093-1.288.28-.392.177-.826.48-1.302.91l-.588-.7c.504-.467 1.017-.812 1.54-1.036a4.073 4.073 0 0 1 1.652-.35c.877 0 1.601.243 2.17.728.579.476.868 1.083.868 1.82 0 .243-.023.467-.07.672-.047.205-.126.42-.238.644a4.718 4.718 0 0 1-.462.7c-.187.252-.429.541-.728.868l-3.346 3.626 5.054-.014V16H99.45z" fill="#515151"/><path fill-rule="evenodd" clip-rule="evenodd" d="M117.096 8.13a.443.443 0 0 1 .626 0l3.39 3.39a.677.677 0 0 1 .147.74.677.677 0 0 1-.147.22l-3.39 3.39a.443.443 0 1 1-.626-.626L120.341 12l-3.245-3.244a.442.442 0 0 1 0-.626z" fill="#000"/><path d="M132.246 16V6.2h1.078v8.848h5.53V16h-6.608zm13.622-.784a4.31 4.31 0 0 1-1.218.686c-.42.15-.868.224-1.344.224a3.42 3.42 0 0 1-1.344-.266 3.51 3.51 0 0 1-1.078-.756 3.636 3.636 0 0 1-.714-1.12 3.88 3.88 0 0 1-.252-1.4c0-.495.079-.957.238-1.386.168-.439.396-.812.686-1.12.289-.317.63-.565 1.022-.742.392-.187.816-.28 1.274-.28.448 0 .863.089 1.246.266a3.197 3.197 0 0 1 1.652 1.82c.158.42.238.873.238 1.358v.308h-5.362c.046.69.303 1.27.77 1.736a2.297 2.297 0 0 0 1.666.686c.354 0 .695-.06 1.022-.182.336-.13.62-.303.854-.518l.644.686zm-2.744-5.278c-.56 0-1.041.2-1.442.602-.402.401-.649.915-.742 1.54h4.326c-.075-.616-.313-1.125-.714-1.526a1.9 1.9 0 0 0-1.428-.616zm6.65 6.062l-2.8-6.832h1.106l2.212 5.558 2.184-5.558h1.092L150.754 16h-.98zm10.49-.784a4.31 4.31 0 0 1-1.218.686c-.42.15-.868.224-1.344.224a3.42 3.42 0 0 1-1.344-.266 3.523 3.523 0 0 1-1.078-.756 3.673 3.673 0 0 1-.714-1.12 3.88 3.88 0 0 1-.252-1.4c0-.495.08-.957.238-1.386.168-.439.397-.812.686-1.12.29-.317.63-.565 1.022-.742.392-.187.817-.28 1.274-.28.448 0 .864.089 1.246.266a3.182 3.182 0 0 1 1.652 1.82c.159.42.238.873.238 1.358v.308h-5.362c.047.69.304 1.27.77 1.736a2.299 2.299 0 0 0 1.666.686c.355 0 .696-.06 1.022-.182.336-.13.621-.303.854-.518l.644.686zm-2.744-5.278c-.56 0-1.04.2-1.442.602-.401.401-.648.915-.742 1.54h4.326c-.074-.616-.312-1.125-.714-1.526a1.9 1.9 0 0 0-1.428-.616zm5.917-4.158V16h-1.022V5.99l1.022-.21zm11.677 7.532c0 .41-.089.789-.266 1.134a2.641 2.641 0 0 1-.714.896 3.242 3.242 0 0 1-1.078.588c-.42.14-.877.21-1.372.21a5.078 5.078 0 0 1-1.89-.35 4.482 4.482 0 0 1-1.54-1.036l.672-.658c.411.41.831.71 1.26.896a3.93 3.93 0 0 0 1.484.266c.709 0 1.293-.182 1.75-.546.457-.373.686-.85.686-1.428 0-.532-.201-.975-.602-1.33-.392-.355-.896-.532-1.512-.532h-1.162v-.868h1.12c.532 0 .961-.163 1.288-.49.336-.327.504-.751.504-1.274 0-.513-.205-.947-.616-1.302-.411-.364-.915-.546-1.512-.546-.504 0-.957.093-1.358.28-.392.177-.793.48-1.204.91l-.672-.672a4.636 4.636 0 0 1 1.484-1.05 4.39 4.39 0 0 1 1.764-.364c.448 0 .863.07 1.246.21.383.13.709.317.98.56.28.233.499.518.658.854.159.327.238.681.238 1.064 0 .513-.168.975-.504 1.386-.336.401-.779.681-1.33.84.653.14 1.181.43 1.582.868.411.43.616.924.616 1.484z" fill="#515151"/><path fill-rule="evenodd" clip-rule="evenodd" d="M186.096 8.13a.443.443 0 0 1 .626 0l3.39 3.39a.677.677 0 0 1 .147.74.677.677 0 0 1-.147.22l-3.39 3.39a.443.443 0 1 1-.626-.626L189.341 12l-3.245-3.244a.442.442 0 0 1 0-.626z" fill="#000"/><path d="M205.838 14.628c.504 0 .98-.107 1.428-.322a3.538 3.538 0 0 0 1.19-.952l1.106 1.064a4.88 4.88 0 0 1-1.694 1.26 4.893 4.893 0 0 1-2.086.462 5.14 5.14 0 0 1-2.002-.392 5.145 5.145 0 0 1-1.61-1.064 5.143 5.143 0 0 1-1.064-1.61 5.007 5.007 0 0 1-.392-1.974 5.043 5.043 0 0 1 1.456-3.584 5.026 5.026 0 0 1 1.61-1.078 5.14 5.14 0 0 1 2.002-.392c.747 0 1.456.154 2.128.462a4.646 4.646 0 0 1 1.694 1.274l-1.134 1.12a3.64 3.64 0 0 0-1.218-.994 3.146 3.146 0 0 0-1.47-.364c-.476 0-.919.093-1.33.28a3.169 3.169 0 0 0-1.064.742 3.75 3.75 0 0 0-.7 1.134c-.168.43-.252.896-.252 1.4 0 .495.084.961.252 1.4.177.43.415.803.714 1.12.308.308.672.555 1.092.742.42.177.868.266 1.344.266zm6.794-5.642v4.172c0 .504.14.91.42 1.218.28.308.653.462 1.12.462.317 0 .607-.07.868-.21.261-.15.485-.369.672-.658V8.986h1.582V16h-1.582v-1.162c-.261.41-.583.728-.966.952a2.508 2.508 0 0 1-1.274.322c-.709 0-1.293-.233-1.75-.7-.448-.467-.672-1.069-.672-1.806v-4.62h1.582zM219.441 16V8.986h1.582v1.526c.186-.532.443-.938.77-1.218.336-.29.723-.434 1.162-.434.13.01.247.023.35.042.102.019.214.051.336.098v1.386a1.728 1.728 0 0 0-.42-.126 2.434 2.434 0 0 0-.448-.042c-.374 0-.714.103-1.022.308-.308.205-.551.49-.728.854V16h-1.582zm5.696 0V8.986h1.582v1.526c.186-.532.443-.938.77-1.218.336-.29.723-.434 1.162-.434.13.01.247.023.35.042.102.019.214.051.336.098v1.386a1.728 1.728 0 0 0-.42-.126 2.434 2.434 0 0 0-.448-.042c-.374 0-.714.103-1.022.308-.308.205-.551.49-.728.854V16h-1.582zm11.388-.896a4.623 4.623 0 0 1-1.316.784 4.085 4.085 0 0 1-1.47.252 3.537 3.537 0 0 1-2.534-1.05 3.69 3.69 0 0 1-.756-1.162 3.67 3.67 0 0 1-.28-1.428c0-.513.084-.99.252-1.428a3.56 3.56 0 0 1 .714-1.148 3.359 3.359 0 0 1 1.092-.77c.42-.187.873-.28 1.358-.28.476 0 .915.093 1.316.28.411.177.761.425 1.05.742.299.317.532.7.7 1.148a4 4 0 0 1 .252 1.442v.392h-5.18c.075.55.308 1.008.7 1.372.401.364.868.546 1.4.546.327 0 .635-.056.924-.168a2.1 2.1 0 0 0 .742-.49l1.036.966zm-2.954-4.942c-.467 0-.863.159-1.19.476-.327.317-.537.742-.63 1.274h3.654c-.093-.513-.308-.933-.644-1.26a1.62 1.62 0 0 0-1.19-.49zM238.716 16V8.986h1.582v1.148c.262-.41.579-.723.952-.938a2.562 2.562 0 0 1 1.274-.322c.71 0 1.288.238 1.736.714.458.467.686 1.064.686 1.792V16h-1.582v-4.172c0-.504-.14-.91-.42-1.218-.28-.308-.653-.462-1.12-.462-.317 0-.606.075-.868.224a1.96 1.96 0 0 0-.658.616V16h-1.582zm9.012-1.848v-3.906h-1.414v-1.26h1.414V7.054l1.582-.336v2.268h1.96v1.26h-1.96v3.556c0 .345.074.593.224.742.149.14.401.21.756.21.158 0 .303-.01.434-.028.14-.028.312-.075.518-.14v1.33a3.575 3.575 0 0 1-.686.14 4.453 4.453 0 0 1-.672.056c-.7 0-1.237-.163-1.61-.49-.364-.336-.546-.826-.546-1.47zm8.473 4.816V8.986h1.554v1.008a2.51 2.51 0 0 1 .924-.784c.383-.187.803-.28 1.26-.28.439 0 .854.093 1.246.28.392.187.728.443 1.008.77.289.317.513.695.672 1.134.168.43.252.891.252 1.386 0 .495-.084.961-.252 1.4a3.41 3.41 0 0 1-.7 1.134 3.4 3.4 0 0 1-1.05.756c-.401.187-.831.28-1.288.28-.411 0-.793-.08-1.148-.238a2.639 2.639 0 0 1-.896-.672v3.808h-1.582zm3.262-8.708c-.345 0-.663.065-.952.196a1.99 1.99 0 0 0-.728.588v2.926c.205.243.453.434.742.574.289.13.602.196.938.196.597 0 1.092-.21 1.484-.63.401-.43.602-.966.602-1.61 0-.635-.201-1.167-.602-1.596a1.95 1.95 0 0 0-1.484-.644zm7.693 5.852c-.728 0-1.325-.196-1.792-.588-.457-.401-.686-.915-.686-1.54s.238-1.125.714-1.498c.485-.373 1.139-.56 1.96-.56.327 0 .644.037.952.112.308.065.621.173.938.322v-.77c0-.457-.135-.803-.406-1.036-.271-.243-.672-.364-1.204-.364-.289 0-.602.047-.938.14-.336.084-.705.22-1.106.406l-.56-1.148a7.85 7.85 0 0 1 1.498-.532 5.706 5.706 0 0 1 1.414-.182c.905 0 1.61.224 2.114.672.504.439.756 1.064.756 1.876V16h-1.568v-.714c-.317.29-.644.5-.98.63-.336.13-.705.196-1.106.196zm-.994-2.156a.92.92 0 0 0 .392.77c.261.187.607.28 1.036.28.317 0 .611-.047.882-.14.28-.093.537-.238.77-.434v-1.148a2.982 2.982 0 0 0-.77-.252 4.074 4.074 0 0 0-.854-.084c-.448 0-.803.093-1.064.28a.836.836 0 0 0-.392.728zm9.619 2.086c-.438 0-.854-.093-1.246-.28a3.283 3.283 0 0 1-1.022-.756 3.728 3.728 0 0 1-.672-1.12 4.1 4.1 0 0 1-.238-1.4c0-.495.084-.961.252-1.4.168-.439.397-.817.686-1.134a3.214 3.214 0 0 1 1.05-.742 3.02 3.02 0 0 1 1.288-.28c.402 0 .78.084 1.134.252.355.159.663.392.924.7v-.896h1.568v7.252c0 .896-.289 1.587-.868 2.072-.569.485-1.381.728-2.436.728-.504 0-.998-.06-1.484-.182a5.656 5.656 0 0 1-1.33-.49l.56-1.176c.402.205.78.355 1.134.448.355.103.705.154 1.05.154.588 0 1.032-.135 1.33-.406.308-.261.462-.644.462-1.148v-1.19c-.242.308-.555.55-.938.728a2.768 2.768 0 0 1-1.204.266zm-1.61-3.556c0 .635.201 1.167.602 1.596.402.43.896.644 1.484.644.336 0 .644-.065.924-.196.29-.13.537-.322.742-.574v-2.94a2.152 2.152 0 0 0-.742-.546 2.092 2.092 0 0 0-.924-.21c-.597 0-1.096.21-1.498.63-.392.42-.588.952-.588 1.596zm13.52 2.618c-.43.355-.868.616-1.316.784a4.085 4.085 0 0 1-1.47.252 3.534 3.534 0 0 1-2.534-1.05 3.656 3.656 0 0 1-.756-1.162 3.67 3.67 0 0 1-.28-1.428c0-.513.084-.99.252-1.428a3.56 3.56 0 0 1 .714-1.148 3.359 3.359 0 0 1 1.092-.77c.42-.187.872-.28 1.358-.28.476 0 .914.093 1.316.28.41.177.76.425 1.05.742.298.317.532.7.7 1.148a4 4 0 0 1 .252 1.442v.392h-5.18c.074.55.308 1.008.7 1.372.401.364.868.546 1.4.546.326 0 .634-.056.924-.168.298-.121.546-.285.742-.49l1.036.966zm-2.954-4.942c-.467 0-.864.159-1.19.476-.327.317-.537.742-.63 1.274h3.654c-.094-.513-.308-.933-.644-1.26a1.622 1.622 0 0 0-1.19-.49z" fill="#000"/></svg>