<svg width="735" height="188" viewBox="0 0 735 188" fill="none" xmlns="http://www.w3.org/2000/svg">
<line x1="47.7681" y1="1.04785" x2="47.7681" y2="186.867" stroke="#F4F4F4"/>
<line x1="425.917" y1="1.04785" x2="425.917" y2="186.867" stroke="#F4F4F4"/>
<line x1="24.1338" y1="1.04785" x2="24.1338" y2="186.867" stroke="#F4F4F4"/>
<line x1="734.14" y1="23.6689" x2="0.00012207" y2="23.6689" stroke="#F4F4F4"/>
<line x1="734.14" y1="94.458" x2="0.00012207" y2="94.458" stroke="#F4F4F4"/>
<line x1="734.14" y1="47.2651" x2="0.00012207" y2="47.2651" stroke="#F4F4F4"/>
<line x1="734.14" y1="118.054" x2="0.00012207" y2="118.054" stroke="#F4F4F4"/>
<line x1="734.14" y1="70.8618" x2="0.00012207" y2="70.8618" stroke="#F4F4F4"/>
<line x1="734.14" y1="141.649" x2="0.00012207" y2="141.649" stroke="#F4F4F4"/>
<line x1="734.14" y1="165.246" x2="0.00012207" y2="165.246" stroke="#F4F4F4"/>
<line x1="402.283" y1="1.04785" x2="402.283" y2="186.867" stroke="#F4F4F4"/>
<line x1="95.0366" y1="1.04785" x2="95.0366" y2="186.867" stroke="#F4F4F4"/>
<line x1="473.185" y1="1.04785" x2="473.185" y2="186.867" stroke="#F4F4F4"/>
<line x1="71.4038" y1="1.04785" x2="71.4038" y2="186.867" stroke="#F4F4F4"/>
<line x1="449.551" y1="1.04785" x2="449.551" y2="186.867" stroke="#F4F4F4"/>
<line x1="142.305" y1="1.04785" x2="142.305" y2="186.867" stroke="#F4F4F4"/>
<line x1="520.454" y1="1.04785" x2="520.454" y2="186.867" stroke="#F4F4F4"/>
<line x1="118.671" y1="1.04785" x2="118.671" y2="186.867" stroke="#F4F4F4"/>
<line x1="496.819" y1="1.04785" x2="496.819" y2="186.867" stroke="#F4F4F4"/>
<line x1="189.574" y1="1.04785" x2="189.574" y2="186.867" stroke="#F4F4F4"/>
<line x1="567.723" y1="1.04785" x2="567.723" y2="186.867" stroke="#F4F4F4"/>
<line x1="165.939" y1="1.04785" x2="165.939" y2="186.867" stroke="#F4F4F4"/>
<line x1="544.088" y1="1.04785" x2="544.088" y2="186.867" stroke="#F4F4F4"/>
<line x1="236.843" y1="1.04785" x2="236.843" y2="186.867" stroke="#F4F4F4"/>
<line x1="614.991" y1="1.04785" x2="614.991" y2="186.867" stroke="#F4F4F4"/>
<line x1="213.208" y1="1.04785" x2="213.208" y2="186.867" stroke="#F4F4F4"/>
<line x1="591.357" y1="1.04785" x2="591.357" y2="186.867" stroke="#F4F4F4"/>
<line x1="284.11" y1="1.04785" x2="284.11" y2="186.867" stroke="#F4F4F4"/>
<line x1="662.259" y1="1.04785" x2="662.259" y2="186.867" stroke="#F4F4F4"/>
<line x1="260.477" y1="1.04785" x2="260.477" y2="186.867" stroke="#F4F4F4"/>
<line x1="638.625" y1="1.04785" x2="638.625" y2="186.867" stroke="#F4F4F4"/>
<line x1="331.38" y1="1.04785" x2="331.38" y2="186.867" stroke="#F4F4F4"/>
<line x1="709.529" y1="1.04785" x2="709.529" y2="186.867" stroke="#F4F4F4"/>
<line x1="307.745" y1="1.04785" x2="307.745" y2="186.867" stroke="#F4F4F4"/>
<line x1="685.894" y1="1.04785" x2="685.894" y2="186.867" stroke="#F4F4F4"/>
<line x1="378.648" y1="1.04785" x2="378.648" y2="186.867" stroke="#F4F4F4"/>
<line x1="355.014" y1="1.04785" x2="355.014" y2="186.867" stroke="#F4F4F4"/>
<line x1="733.163" y1="1.04785" x2="733.163" y2="186.867" stroke="#F4F4F4"/>
<rect x="686.871" y="1.04736" width="47.2686" height="185.819" fill="#F4F4F4"/>
<rect y="1.04736" width="47.2686" height="185.819" fill="#F4F4F4"/>
<rect x="47.2686" y="70.3618" width="47.2686" height="47.1921" rx="4" stroke="#29D305" stroke-width="2"/>
<rect x="118.171" y="70.3618" width="47.2686" height="47.1921" rx="4" stroke="#29D305" stroke-width="2"/>
<rect x="212.709" y="70.3618" width="47.2686" height="47.1921" rx="4" stroke="#29D305" stroke-width="2"/>
<rect x="330.88" y="70.3618" width="47.2686" height="47.1921" rx="4" stroke="#29D305" stroke-width="2"/>
<rect x="474.163" y="70.3618" width="47.2686" height="47.1921" rx="4" stroke="#29D305" stroke-width="2"/>
<rect x="638.125" y="70.3618" width="47.2686" height="47.1921" rx="4" stroke="#29D305" stroke-width="2"/>
<line x1="97.0137" y1="136.25" x2="97.0137" y2="146.048" stroke="black" stroke-width="2" stroke-linecap="round" stroke-linejoin="round"/>
<line x1="117.695" y1="136.25" x2="117.695" y2="146.048" stroke="black" stroke-width="2" stroke-linecap="round" stroke-linejoin="round"/>
<line x1="117.171" y1="140.674" x2="98.4909" y2="140.674" stroke="black" stroke-width="2" stroke-linecap="round" stroke-linejoin="round"/>
<path d="M98.0889 170.087C97.5382 170.087 97.0296 170.017 96.5629 169.877C96.1056 169.737 95.7089 169.546 95.3729 169.303C95.0462 169.051 94.7896 168.753 94.6029 168.407C94.4162 168.053 94.3229 167.67 94.3229 167.259C94.3229 166.718 94.5002 166.233 94.8549 165.803C95.2096 165.365 95.6716 165.043 96.2409 164.837C95.7742 164.632 95.3962 164.333 95.1069 163.941C94.8269 163.54 94.6869 163.101 94.6869 162.625C94.6869 162.252 94.7709 161.907 94.9389 161.589C95.1162 161.263 95.3542 160.983 95.6529 160.749C95.9609 160.516 96.3202 160.334 96.7309 160.203C97.1509 160.063 97.6036 159.993 98.0889 159.993C98.5649 159.993 99.0129 160.063 99.4329 160.203C99.8529 160.334 100.212 160.516 100.511 160.749C100.819 160.983 101.057 161.263 101.225 161.589C101.402 161.907 101.491 162.252 101.491 162.625C101.491 163.101 101.346 163.54 101.057 163.941C100.777 164.333 100.404 164.632 99.9369 164.837C100.506 165.043 100.968 165.365 101.323 165.803C101.678 166.233 101.855 166.718 101.855 167.259C101.855 167.67 101.762 168.053 101.575 168.407C101.388 168.753 101.127 169.051 100.791 169.303C100.464 169.546 100.068 169.737 99.6009 169.877C99.1436 170.017 98.6396 170.087 98.0889 170.087ZM98.0889 164.291C98.6582 164.291 99.1389 164.137 99.5309 163.829C99.9322 163.521 100.133 163.148 100.133 162.709C100.133 162.261 99.9369 161.883 99.5449 161.575C99.1529 161.267 98.6676 161.113 98.0889 161.113C97.5102 161.113 97.0249 161.267 96.6329 161.575C96.2502 161.883 96.0589 162.261 96.0589 162.709C96.0589 163.148 96.2549 163.521 96.6469 163.829C97.0389 164.137 97.5196 164.291 98.0889 164.291ZM98.0889 168.953C98.7609 168.953 99.3256 168.785 99.7829 168.449C100.24 168.104 100.469 167.679 100.469 167.175C100.469 166.671 100.24 166.251 99.7829 165.915C99.3256 165.579 98.7609 165.411 98.0889 165.411C97.4169 165.411 96.8522 165.579 96.3949 165.915C95.9376 166.251 95.7089 166.671 95.7089 167.175C95.7089 167.679 95.9376 168.104 96.3949 168.449C96.8522 168.785 97.4169 168.953 98.0889 168.953ZM106.196 172.845V162.821H107.582V163.507C107.871 163.246 108.202 163.05 108.576 162.919C108.949 162.779 109.346 162.709 109.766 162.709C110.27 162.709 110.741 162.807 111.18 163.003C111.618 163.19 111.996 163.447 112.314 163.773C112.64 164.1 112.897 164.487 113.084 164.935C113.27 165.383 113.364 165.864 113.364 166.377C113.364 166.891 113.27 167.376 113.084 167.833C112.897 168.281 112.64 168.669 112.314 168.995C111.996 169.322 111.614 169.583 111.166 169.779C110.718 169.966 110.242 170.059 109.738 170.059C109.346 170.059 108.963 169.999 108.59 169.877C108.226 169.756 107.894 169.583 107.596 169.359V172.845H106.196ZM109.584 163.927C109.182 163.927 108.809 164.002 108.464 164.151C108.118 164.301 107.829 164.511 107.596 164.781V168.001C107.82 168.263 108.104 168.468 108.45 168.617C108.804 168.767 109.182 168.841 109.584 168.841C110.265 168.841 110.834 168.608 111.292 168.141C111.758 167.675 111.992 167.091 111.992 166.391C111.992 165.691 111.758 165.108 111.292 164.641C110.825 164.165 110.256 163.927 109.584 163.927ZM113.245 169.947L116.017 166.293L113.357 162.821H114.995L116.829 165.271L118.663 162.821H120.245L117.613 166.279L120.427 169.947H118.775L116.815 167.315L114.827 169.947H113.245Z" fill="black"/>
<line x1="167.916" y1="136.25" x2="167.916" y2="146.048" stroke="black" stroke-width="2" stroke-linecap="round" stroke-linejoin="round"/>
<line x1="210.754" y1="136.25" x2="210.754" y2="146.048" stroke="black" stroke-width="2" stroke-linecap="round" stroke-linejoin="round"/>
<line x1="210.231" y1="140.674" x2="169.394" y2="140.674" stroke="black" stroke-width="2" stroke-linecap="round" stroke-linejoin="round"/>
<path d="M175.539 160.148V169.948H174.153V161.59L172.389 162.332V161.1L174.657 160.148H175.539ZM181.117 170.088C180.51 170.088 179.95 169.971 179.437 169.738C178.933 169.504 178.499 169.182 178.135 168.772C177.78 168.352 177.5 167.852 177.295 167.274C177.099 166.686 177.001 166.042 177.001 165.342C177.001 164.539 177.113 163.806 177.337 163.144C177.561 162.481 177.874 161.921 178.275 161.464C178.686 160.997 179.176 160.638 179.745 160.386C180.324 160.134 180.963 160.008 181.663 160.008C182.13 160.008 182.592 160.078 183.049 160.218C183.506 160.358 183.903 160.544 184.239 160.778L183.497 161.814C183.208 161.618 182.9 161.473 182.573 161.38C182.256 161.286 181.924 161.24 181.579 161.24C180.618 161.24 179.852 161.58 179.283 162.262C178.723 162.943 178.424 163.895 178.387 165.118C178.732 164.716 179.157 164.404 179.661 164.18C180.165 163.946 180.692 163.83 181.243 163.83C181.738 163.83 182.19 163.909 182.601 164.068C183.021 164.217 183.38 164.427 183.679 164.698C183.987 164.959 184.225 165.276 184.393 165.65C184.561 166.023 184.645 166.429 184.645 166.868C184.645 167.334 184.556 167.764 184.379 168.156C184.202 168.548 183.954 168.888 183.637 169.178C183.329 169.458 182.956 169.682 182.517 169.85C182.088 170.008 181.621 170.088 181.117 170.088ZM181.005 164.95C180.529 164.95 180.067 165.066 179.619 165.3C179.171 165.524 178.784 165.846 178.457 166.266C178.578 167.05 178.877 167.684 179.353 168.17C179.829 168.655 180.403 168.898 181.075 168.898C181.7 168.898 182.218 168.706 182.629 168.324C183.049 167.941 183.259 167.47 183.259 166.91C183.259 166.331 183.049 165.86 182.629 165.496C182.209 165.132 181.668 164.95 181.005 164.95ZM188.902 172.846V162.822H190.288V163.508C190.577 163.246 190.908 163.05 191.282 162.92C191.655 162.78 192.052 162.71 192.472 162.71C192.976 162.71 193.447 162.808 193.886 163.004C194.324 163.19 194.702 163.447 195.02 163.774C195.346 164.1 195.603 164.488 195.79 164.936C195.976 165.384 196.07 165.864 196.07 166.378C196.07 166.891 195.976 167.376 195.79 167.834C195.603 168.282 195.346 168.669 195.02 168.996C194.702 169.322 194.32 169.584 193.872 169.78C193.424 169.966 192.948 170.06 192.444 170.06C192.052 170.06 191.669 169.999 191.296 169.878C190.932 169.756 190.6 169.584 190.302 169.36V172.846H188.902ZM192.29 163.928C191.888 163.928 191.515 164.002 191.17 164.152C190.824 164.301 190.535 164.511 190.302 164.782V168.002C190.526 168.263 190.81 168.468 191.156 168.618C191.51 168.767 191.888 168.842 192.29 168.842C192.971 168.842 193.54 168.608 193.998 168.142C194.464 167.675 194.698 167.092 194.698 166.392C194.698 165.692 194.464 165.108 193.998 164.642C193.531 164.166 192.962 163.928 192.29 163.928ZM195.951 169.948L198.723 166.294L196.063 162.822H197.701L199.535 165.272L201.369 162.822H202.951L200.319 166.28L203.133 169.948H201.481L199.521 167.316L197.533 169.948H195.951Z" fill="black"/>
<line x1="262.455" y1="136.25" x2="262.455" y2="146.048" stroke="black" stroke-width="2" stroke-linecap="round" stroke-linejoin="round"/>
<line x1="328.927" y1="136.25" x2="328.927" y2="146.048" stroke="black" stroke-width="2" stroke-linecap="round" stroke-linejoin="round"/>
<line x1="328.403" y1="140.674" x2="263.932" y2="140.674" stroke="black" stroke-width="2" stroke-linecap="round" stroke-linejoin="round"/>
<path d="M266.137 169.948V168.94L269.917 165.426C270.477 164.894 270.864 164.45 271.079 164.096C271.303 163.741 271.415 163.368 271.415 162.976C271.415 162.472 271.219 162.056 270.827 161.73C270.444 161.394 269.959 161.226 269.371 161.226C268.895 161.226 268.452 161.319 268.041 161.506C267.63 161.692 267.182 162 266.697 162.43L265.899 161.478C266.44 160.992 267.005 160.628 267.593 160.386C268.181 160.143 268.783 160.022 269.399 160.022C269.894 160.022 270.346 160.092 270.757 160.232C271.177 160.372 271.532 160.572 271.821 160.834C272.12 161.086 272.353 161.389 272.521 161.744C272.689 162.089 272.773 162.472 272.773 162.892C272.773 163.452 272.633 163.97 272.353 164.446C272.082 164.922 271.569 165.51 270.813 166.21L268.055 168.758H272.927V169.948H266.137ZM280.474 160.148V166.28H281.664V167.47H280.474V169.948H279.088V167.47H273.53V166.35L278.92 160.148H280.474ZM275.182 166.28H279.088V161.786L275.182 166.28ZM285.873 172.846V162.822H287.259V163.508C287.548 163.246 287.879 163.05 288.253 162.92C288.626 162.78 289.023 162.71 289.443 162.71C289.947 162.71 290.418 162.808 290.857 163.004C291.295 163.19 291.673 163.447 291.991 163.774C292.317 164.1 292.574 164.488 292.761 164.936C292.947 165.384 293.041 165.864 293.041 166.378C293.041 166.891 292.947 167.376 292.761 167.834C292.574 168.282 292.317 168.669 291.991 168.996C291.673 169.322 291.291 169.584 290.843 169.78C290.395 169.966 289.919 170.06 289.415 170.06C289.023 170.06 288.64 169.999 288.267 169.878C287.903 169.756 287.571 169.584 287.273 169.36V172.846H285.873ZM289.261 163.928C288.859 163.928 288.486 164.002 288.141 164.152C287.795 164.301 287.506 164.511 287.273 164.782V168.002C287.497 168.263 287.781 168.468 288.127 168.618C288.481 168.767 288.859 168.842 289.261 168.842C289.942 168.842 290.511 168.608 290.969 168.142C291.435 167.675 291.669 167.092 291.669 166.392C291.669 165.692 291.435 165.108 290.969 164.642C290.502 164.166 289.933 163.928 289.261 163.928ZM292.922 169.948L295.694 166.294L293.034 162.822H294.672L296.506 165.272L298.34 162.822H299.922L297.29 166.28L300.104 169.948H298.452L296.492 167.316L294.504 169.948H292.922Z" fill="black"/>
<line x1="380.625" y1="136.25" x2="380.625" y2="146.049" stroke="black" stroke-width="2" stroke-linecap="round" stroke-linejoin="round"/>
<line x1="470.732" y1="136.25" x2="470.732" y2="146.048" stroke="black" stroke-width="2" stroke-linecap="round" stroke-linejoin="round"/>
<line x1="470.208" y1="140.674" x2="382.102" y2="140.674" stroke="black" stroke-width="2" stroke-linecap="round" stroke-linejoin="round"/>
<path d="M414.659 167.246C414.659 167.656 414.566 168.039 414.379 168.394C414.192 168.739 413.936 169.038 413.609 169.29C413.282 169.542 412.89 169.738 412.433 169.878C411.976 170.018 411.481 170.088 410.949 170.088C410.221 170.088 409.535 169.966 408.891 169.724C408.256 169.472 407.706 169.112 407.239 168.646L408.177 167.764C408.588 168.165 409.008 168.454 409.437 168.632C409.876 168.8 410.375 168.884 410.935 168.884C411.616 168.884 412.172 168.725 412.601 168.408C413.03 168.09 413.245 167.68 413.245 167.176C413.245 166.718 413.04 166.345 412.629 166.056C412.228 165.766 411.691 165.622 411.019 165.622H410.165V164.488H410.907C411.476 164.488 411.952 164.324 412.335 163.998C412.718 163.671 412.909 163.265 412.909 162.78C412.909 162.332 412.713 161.958 412.321 161.66C411.938 161.361 411.462 161.212 410.893 161.212C410.389 161.212 409.936 161.3 409.535 161.478C409.134 161.655 408.718 161.958 408.289 162.388L407.351 161.492C407.827 161.016 408.373 160.647 408.989 160.386C409.605 160.124 410.249 159.994 410.921 159.994C411.406 159.994 411.854 160.064 412.265 160.204C412.685 160.334 413.044 160.516 413.343 160.75C413.642 160.983 413.875 161.268 414.043 161.604C414.211 161.93 414.295 162.29 414.295 162.682C414.295 163.176 414.15 163.624 413.861 164.026C413.581 164.418 413.194 164.73 412.699 164.964C413.287 165.141 413.758 165.435 414.113 165.846C414.477 166.247 414.659 166.714 414.659 167.246ZM415.667 169.948V168.94L419.447 165.426C420.007 164.894 420.394 164.45 420.609 164.096C420.833 163.741 420.945 163.368 420.945 162.976C420.945 162.472 420.749 162.056 420.357 161.73C419.974 161.394 419.489 161.226 418.901 161.226C418.425 161.226 417.981 161.319 417.571 161.506C417.16 161.692 416.712 162 416.227 162.43L415.429 161.478C415.97 160.992 416.535 160.628 417.123 160.386C417.711 160.143 418.313 160.022 418.929 160.022C419.423 160.022 419.876 160.092 420.287 160.232C420.707 160.372 421.061 160.572 421.351 160.834C421.649 161.086 421.883 161.389 422.051 161.744C422.219 162.089 422.303 162.472 422.303 162.892C422.303 163.452 422.163 163.97 421.883 164.446C421.612 164.922 421.099 165.51 420.343 166.21L417.585 168.758H422.457V169.948H415.667ZM426.666 172.846V162.822H428.052V163.508C428.341 163.246 428.673 163.05 429.046 162.92C429.419 162.78 429.816 162.71 430.236 162.71C430.74 162.71 431.211 162.808 431.65 163.004C432.089 163.19 432.467 163.447 432.784 163.774C433.111 164.1 433.367 164.488 433.554 164.936C433.741 165.384 433.834 165.864 433.834 166.378C433.834 166.891 433.741 167.376 433.554 167.834C433.367 168.282 433.111 168.669 432.784 168.996C432.467 169.322 432.084 169.584 431.636 169.78C431.188 169.966 430.712 170.06 430.208 170.06C429.816 170.06 429.433 169.999 429.06 169.878C428.696 169.756 428.365 169.584 428.066 169.36V172.846H426.666ZM430.054 163.928C429.653 163.928 429.279 164.002 428.934 164.152C428.589 164.301 428.299 164.511 428.066 164.782V168.002C428.29 168.263 428.575 168.468 428.92 168.618C429.275 168.767 429.653 168.842 430.054 168.842C430.735 168.842 431.305 168.608 431.762 168.142C432.229 167.675 432.462 167.092 432.462 166.392C432.462 165.692 432.229 165.108 431.762 164.642C431.295 164.166 430.726 163.928 430.054 163.928ZM433.716 169.948L436.488 166.294L433.828 162.822H435.466L437.3 165.272L439.134 162.822H440.716L438.084 166.28L440.898 169.948H439.246L437.286 167.316L435.298 169.948H433.716Z" fill="black"/>
<line x1="522.431" y1="136.25" x2="522.431" y2="146.049" stroke="black" stroke-width="2" stroke-linecap="round" stroke-linejoin="round"/>
<line x1="636.171" y1="136.25" x2="636.171" y2="146.048" stroke="black" stroke-width="2" stroke-linecap="round" stroke-linejoin="round"/>
<line x1="635.648" y1="140.674" x2="523.908" y2="140.674" stroke="black" stroke-width="2" stroke-linecap="round" stroke-linejoin="round"/>
<path d="M568.917 160.148V166.28H570.107V167.47H568.917V169.948H567.531V167.47H561.973V166.35L567.363 160.148H568.917ZM563.625 166.28H567.531V161.786L563.625 166.28ZM575.254 170.088C574.647 170.088 574.087 169.966 573.574 169.724C573.07 169.472 572.636 169.126 572.272 168.688C571.917 168.249 571.637 167.722 571.432 167.106C571.236 166.48 571.138 165.794 571.138 165.048C571.138 164.301 571.236 163.62 571.432 163.004C571.637 162.378 571.917 161.846 572.272 161.408C572.636 160.969 573.07 160.628 573.574 160.386C574.087 160.134 574.647 160.008 575.254 160.008C575.861 160.008 576.416 160.134 576.92 160.386C577.433 160.628 577.872 160.969 578.236 161.408C578.6 161.846 578.88 162.378 579.076 163.004C579.281 163.62 579.384 164.301 579.384 165.048C579.384 165.794 579.281 166.48 579.076 167.106C578.88 167.722 578.6 168.249 578.236 168.688C577.872 169.126 577.433 169.472 576.92 169.724C576.416 169.966 575.861 170.088 575.254 170.088ZM575.254 168.856C576.094 168.856 576.761 168.515 577.256 167.834C577.76 167.143 578.012 166.214 578.012 165.048C578.012 163.881 577.76 162.952 577.256 162.262C576.761 161.571 576.094 161.226 575.254 161.226C574.414 161.226 573.742 161.571 573.238 162.262C572.743 162.952 572.496 163.881 572.496 165.048C572.496 166.214 572.743 167.143 573.238 167.834C573.742 168.515 574.414 168.856 575.254 168.856ZM583.708 172.846V162.822H585.094V163.508C585.384 163.246 585.715 163.05 586.088 162.92C586.462 162.78 586.858 162.71 587.278 162.71C587.782 162.71 588.254 162.808 588.692 163.004C589.131 163.19 589.509 163.447 589.826 163.774C590.153 164.1 590.41 164.488 590.596 164.936C590.783 165.384 590.876 165.864 590.876 166.378C590.876 166.891 590.783 167.376 590.596 167.834C590.41 168.282 590.153 168.669 589.826 168.996C589.509 169.322 589.126 169.584 588.678 169.78C588.23 169.966 587.754 170.06 587.25 170.06C586.858 170.06 586.476 169.999 586.102 169.878C585.738 169.756 585.407 169.584 585.108 169.36V172.846H583.708ZM587.096 163.928C586.695 163.928 586.322 164.002 585.976 164.152C585.631 164.301 585.342 164.511 585.108 164.782V168.002C585.332 168.263 585.617 168.468 585.962 168.618C586.317 168.767 586.695 168.842 587.096 168.842C587.778 168.842 588.347 168.608 588.804 168.142C589.271 167.675 589.504 167.092 589.504 166.392C589.504 165.692 589.271 165.108 588.804 164.642C588.338 164.166 587.768 163.928 587.096 163.928ZM590.758 169.948L593.53 166.294L590.87 162.822H592.508L594.342 165.272L596.176 162.822H597.758L595.126 166.28L597.94 169.948H596.288L594.328 167.316L592.34 169.948H590.758Z" fill="black"/>
</svg>
