<svg width="274" height="170" viewBox="0 0 274 170" fill="none" xmlns="http://www.w3.org/2000/svg">
<rect x="195" y="91" width="78" height="78" rx="39" fill="white" stroke="#262626" stroke-width="2"/>
<path d="M215.115 131.648H216.727V133.924H215.115V137H212.293V133.924H206.463L206.336 132.146L212.264 122.781H215.115V131.648ZM209.148 131.648H212.293V126.629L212.107 126.951L209.148 131.648ZM218.514 135.613C218.514 135.164 218.663 134.799 218.963 134.52C219.269 134.24 219.65 134.1 220.105 134.1C220.568 134.1 220.949 134.24 221.248 134.52C221.554 134.799 221.707 135.164 221.707 135.613C221.707 136.056 221.557 136.417 221.258 136.697C220.958 136.971 220.574 137.107 220.105 137.107C219.643 137.107 219.262 136.971 218.963 136.697C218.663 136.417 218.514 136.056 218.514 135.613ZM230.672 131.316C229.936 132.039 229.077 132.4 228.094 132.4C226.837 132.4 225.831 131.971 225.076 131.111C224.321 130.245 223.943 129.08 223.943 127.615C223.943 126.684 224.145 125.831 224.549 125.057C224.959 124.275 225.529 123.67 226.258 123.24C226.987 122.804 227.807 122.586 228.719 122.586C229.656 122.586 230.49 122.82 231.219 123.289C231.948 123.758 232.514 124.432 232.918 125.311C233.322 126.189 233.527 127.195 233.533 128.328V129.373C233.533 131.743 232.944 133.605 231.766 134.959C230.587 136.313 228.917 137.036 226.756 137.127L226.062 137.137V134.783L226.688 134.773C229.142 134.663 230.47 133.51 230.672 131.316ZM228.787 130.242C229.243 130.242 229.633 130.125 229.959 129.891C230.291 129.656 230.542 129.373 230.711 129.041V127.879C230.711 126.922 230.529 126.18 230.164 125.652C229.799 125.125 229.311 124.861 228.699 124.861C228.133 124.861 227.667 125.122 227.303 125.643C226.938 126.157 226.756 126.805 226.756 127.586C226.756 128.361 226.932 128.999 227.283 129.5C227.641 129.995 228.143 130.242 228.787 130.242ZM242.156 131.316C241.421 132.039 240.561 132.4 239.578 132.4C238.322 132.4 237.316 131.971 236.561 131.111C235.805 130.245 235.428 129.08 235.428 127.615C235.428 126.684 235.63 125.831 236.033 125.057C236.443 124.275 237.013 123.67 237.742 123.24C238.471 122.804 239.292 122.586 240.203 122.586C241.141 122.586 241.974 122.82 242.703 123.289C243.432 123.758 243.999 124.432 244.402 125.311C244.806 126.189 245.011 127.195 245.018 128.328V129.373C245.018 131.743 244.428 133.605 243.25 134.959C242.072 136.313 240.402 137.036 238.24 137.127L237.547 137.137V134.783L238.172 134.773C240.626 134.663 241.954 133.51 242.156 131.316ZM240.271 130.242C240.727 130.242 241.118 130.125 241.443 129.891C241.775 129.656 242.026 129.373 242.195 129.041V127.879C242.195 126.922 242.013 126.18 241.648 125.652C241.284 125.125 240.796 124.861 240.184 124.861C239.617 124.861 239.152 125.122 238.787 125.643C238.423 126.157 238.24 126.805 238.24 127.586C238.24 128.361 238.416 128.999 238.768 129.5C239.126 129.995 239.627 130.242 240.271 130.242ZM247.293 135.613C247.293 135.164 247.443 134.799 247.742 134.52C248.048 134.24 248.429 134.1 248.885 134.1C249.347 134.1 249.728 134.24 250.027 134.52C250.333 134.799 250.486 135.164 250.486 135.613C250.486 136.056 250.337 136.417 250.037 136.697C249.738 136.971 249.354 137.107 248.885 137.107C248.423 137.107 248.042 136.971 247.742 136.697C247.443 136.417 247.293 136.056 247.293 135.613ZM247.293 127.615C247.293 127.166 247.443 126.801 247.742 126.521C248.048 126.242 248.429 126.102 248.885 126.102C249.347 126.102 249.728 126.242 250.027 126.521C250.333 126.801 250.486 127.166 250.486 127.615C250.486 128.058 250.337 128.419 250.037 128.699C249.738 128.973 249.354 129.109 248.885 129.109C248.423 129.109 248.042 128.973 247.742 128.699C247.443 128.419 247.293 128.058 247.293 127.615ZM259.539 137H256.717V126.121L253.348 127.166V124.871L259.236 122.762H259.539V137Z" fill="#0064FA"/>
<rect width="170" height="170" rx="85" fill="#0064FA"/>
<rect x="194.5" y="0.5" width="79" height="79" rx="39.5" fill="#262626" stroke="white"/>
<path d="M208.637 38.6406H210.141C210.857 38.6406 211.387 38.4616 211.732 38.1035C212.077 37.7454 212.25 37.2702 212.25 36.6777C212.25 36.1048 212.077 35.6589 211.732 35.3398C211.394 35.0208 210.925 34.8613 210.326 34.8613C209.786 34.8613 209.333 35.0111 208.969 35.3105C208.604 35.6035 208.422 35.9876 208.422 36.4629H205.6C205.6 35.7207 205.798 35.0566 206.195 34.4707C206.599 33.8783 207.159 33.416 207.875 33.084C208.598 32.752 209.392 32.5859 210.258 32.5859C211.762 32.5859 212.94 32.9473 213.793 33.6699C214.646 34.3861 215.072 35.3757 215.072 36.6387C215.072 37.2897 214.874 37.8887 214.477 38.4355C214.079 38.9824 213.559 39.4023 212.914 39.6953C213.715 39.9818 214.311 40.4115 214.701 40.9844C215.098 41.5573 215.297 42.2344 215.297 43.0156C215.297 44.2786 214.835 45.291 213.91 46.0527C212.992 46.8145 211.775 47.1953 210.258 47.1953C208.839 47.1953 207.676 46.821 206.771 46.0723C205.873 45.3236 205.424 44.334 205.424 43.1035H208.246C208.246 43.6374 208.445 44.0736 208.842 44.4121C209.245 44.7507 209.74 44.9199 210.326 44.9199C210.997 44.9199 211.521 44.7441 211.898 44.3926C212.283 44.0345 212.475 43.5625 212.475 42.9766C212.475 41.5573 211.693 40.8477 210.131 40.8477H208.637V38.6406ZM217.514 45.6133C217.514 45.1641 217.663 44.7995 217.963 44.5195C218.269 44.2396 218.65 44.0996 219.105 44.0996C219.568 44.0996 219.949 44.2396 220.248 44.5195C220.554 44.7995 220.707 45.1641 220.707 45.6133C220.707 46.056 220.557 46.4173 220.258 46.6973C219.958 46.9707 219.574 47.1074 219.105 47.1074C218.643 47.1074 218.262 46.9707 217.963 46.6973C217.663 46.4173 217.514 46.056 217.514 45.6133ZM232.641 41.1211C232.641 43.0872 232.234 44.5911 231.42 45.6328C230.606 46.6745 229.415 47.1953 227.846 47.1953C226.296 47.1953 225.111 46.6842 224.291 45.6621C223.471 44.64 223.051 43.1751 223.031 41.2676V38.6504C223.031 36.6647 223.441 35.1576 224.262 34.1289C225.089 33.1003 226.277 32.5859 227.826 32.5859C229.376 32.5859 230.561 33.097 231.381 34.1191C232.201 35.1348 232.621 36.5964 232.641 38.5039V41.1211ZM229.818 38.25C229.818 37.0716 229.656 36.2155 229.33 35.6816C229.011 35.1413 228.51 34.8711 227.826 34.8711C227.162 34.8711 226.671 35.1283 226.352 35.6426C226.039 36.1504 225.873 36.9479 225.854 38.0352V41.4922C225.854 42.651 226.01 43.5137 226.322 44.0801C226.641 44.64 227.149 44.9199 227.846 44.9199C228.536 44.9199 229.034 44.6497 229.34 44.1094C229.646 43.569 229.805 42.7422 229.818 41.6289V38.25ZM244.301 47H234.555V45.0664L239.154 40.1641C239.786 39.474 240.251 38.8717 240.551 38.3574C240.857 37.8431 241.01 37.3548 241.01 36.8926C241.01 36.2611 240.85 35.7663 240.531 35.4082C240.212 35.0436 239.757 34.8613 239.164 34.8613C238.526 34.8613 238.021 35.0827 237.65 35.5254C237.286 35.9616 237.104 36.5378 237.104 37.2539H234.271C234.271 36.388 234.477 35.597 234.887 34.8809C235.303 34.1647 235.889 33.6048 236.645 33.2012C237.4 32.791 238.256 32.5859 239.213 32.5859C240.678 32.5859 241.814 32.9375 242.621 33.6406C243.435 34.3438 243.842 35.3366 243.842 36.6191C243.842 37.3223 243.66 38.0384 243.295 38.7676C242.93 39.4967 242.305 40.3464 241.42 41.3164L238.188 44.7246H244.301V47ZM246.293 45.6133C246.293 45.1641 246.443 44.7995 246.742 44.5195C247.048 44.2396 247.429 44.0996 247.885 44.0996C248.347 44.0996 248.728 44.2396 249.027 44.5195C249.333 44.7995 249.486 45.1641 249.486 45.6133C249.486 46.056 249.337 46.4173 249.037 46.6973C248.738 46.9707 248.354 47.1074 247.885 47.1074C247.423 47.1074 247.042 46.9707 246.742 46.6973C246.443 46.4173 246.293 46.056 246.293 45.6133ZM246.293 37.6152C246.293 37.166 246.443 36.8014 246.742 36.5215C247.048 36.2415 247.429 36.1016 247.885 36.1016C248.347 36.1016 248.728 36.2415 249.027 36.5215C249.333 36.8014 249.486 37.166 249.486 37.6152C249.486 38.0579 249.337 38.4193 249.037 38.6992C248.738 38.9727 248.354 39.1094 247.885 39.1094C247.423 39.1094 247.042 38.9727 246.742 38.6992C246.443 38.4193 246.293 38.0579 246.293 37.6152ZM258.539 47H255.717V36.1211L252.348 37.166V34.8711L258.236 32.7617H258.539V47Z" fill="#0064FA"/>
<path d="M30.68 93L32 88.344H29.696V85.992H32.672L33.488 83.208H30.896V80.856H34.16L35.48 76.2H38.456L37.136 80.856H40.76L42.08 76.2H45.008L43.688 80.856H46.016V83.208H43.016L42.2 85.992H44.816V88.344H41.528L40.208 93H37.28L38.6 88.344H34.976L33.656 93H30.68ZM35.648 85.992H39.272L40.088 83.208H36.464L35.648 85.992ZM54.9502 93.24C53.8462 93.24 52.8382 93.032 51.9262 92.616C51.0142 92.2 50.2382 91.616 49.5982 90.864C48.9582 90.112 48.4542 89.2 48.0862 88.128C47.7342 87.056 47.5582 85.872 47.5582 84.576C47.5582 83.296 47.7342 82.12 48.0862 81.048C48.4542 79.976 48.9582 79.064 49.5982 78.312C50.2542 77.56 51.0382 76.976 51.9502 76.56C52.8622 76.144 53.8622 75.936 54.9502 75.936C56.0542 75.936 57.0622 76.144 57.9742 76.56C58.8862 76.976 59.6622 77.56 60.3022 78.312C60.9422 79.064 61.4382 79.976 61.7902 81.048C62.1582 82.12 62.3422 83.296 62.3422 84.576C62.3422 85.872 62.1662 87.056 61.8142 88.128C61.4622 89.2 60.9582 90.112 60.3022 90.864C59.6622 91.616 58.8862 92.2 57.9742 92.616C57.0622 93.032 56.0542 93.24 54.9502 93.24ZM54.9502 90.384C56.2462 90.384 57.2702 89.864 58.0222 88.824C58.7742 87.784 59.1502 86.368 59.1502 84.576C59.1502 82.816 58.7662 81.416 57.9982 80.376C57.2462 79.32 56.2302 78.792 54.9502 78.792C53.6702 78.792 52.6542 79.32 51.9022 80.376C51.1502 81.416 50.7742 82.816 50.7742 84.576C50.7742 86.368 51.1502 87.784 51.9022 88.824C52.6542 89.864 53.6702 90.384 54.9502 90.384ZM71.3799 93.24C70.2759 93.24 69.2679 93.032 68.3559 92.616C67.4439 92.2 66.6679 91.616 66.0279 90.864C65.3879 90.112 64.8839 89.2 64.5159 88.128C64.1639 87.056 63.9879 85.872 63.9879 84.576C63.9879 83.296 64.1639 82.12 64.5159 81.048C64.8839 79.976 65.3879 79.064 66.0279 78.312C66.6839 77.56 67.4679 76.976 68.3799 76.56C69.2919 76.144 70.2919 75.936 71.3799 75.936C72.4839 75.936 73.4919 76.144 74.4039 76.56C75.3159 76.976 76.0919 77.56 76.7319 78.312C77.3719 79.064 77.8679 79.976 78.2199 81.048C78.5879 82.12 78.7719 83.296 78.7719 84.576C78.7719 85.872 78.5959 87.056 78.2439 88.128C77.8919 89.2 77.3879 90.112 76.7319 90.864C76.0919 91.616 75.3159 92.2 74.4039 92.616C73.4919 93.032 72.4839 93.24 71.3799 93.24ZM71.3799 90.384C72.6759 90.384 73.6999 89.864 74.4519 88.824C75.2039 87.784 75.5799 86.368 75.5799 84.576C75.5799 82.816 75.1959 81.416 74.4279 80.376C73.6759 79.32 72.6599 78.792 71.3799 78.792C70.0999 78.792 69.0839 79.32 68.3319 80.376C67.5799 81.416 67.2039 82.816 67.2039 84.576C67.2039 86.368 67.5799 87.784 68.3319 88.824C69.0839 89.864 70.0999 90.384 71.3799 90.384ZM87.8096 93.264C86.7056 93.264 85.6976 93.064 84.7856 92.664C83.8736 92.248 83.0896 91.68 82.4336 90.96C81.7936 90.224 81.2896 89.344 80.9216 88.32C80.5696 87.296 80.3936 86.168 80.3936 84.936C80.3936 83.592 80.5936 82.368 80.9936 81.264C81.3936 80.144 81.9536 79.192 82.6736 78.408C83.3936 77.624 84.2656 77.016 85.2896 76.584C86.3136 76.152 87.4416 75.936 88.6736 75.936C89.5856 75.936 90.4896 76.088 91.3856 76.392C92.2816 76.68 93.0336 77.072 93.6416 77.568L91.7696 79.92C91.2736 79.536 90.7536 79.256 90.2096 79.08C89.6656 78.904 89.0736 78.816 88.4336 78.816C86.9936 78.816 85.8576 79.312 85.0256 80.304C84.2096 81.28 83.7616 82.672 83.6816 84.48C84.2256 83.872 84.8976 83.4 85.6976 83.064C86.4976 82.712 87.3456 82.536 88.2416 82.536C89.0896 82.536 89.8736 82.664 90.5936 82.92C91.3136 83.176 91.9296 83.536 92.4416 84C92.9696 84.448 93.3776 84.992 93.6656 85.632C93.9536 86.256 94.0976 86.944 94.0976 87.696C94.0976 88.496 93.9376 89.24 93.6176 89.928C93.2976 90.6 92.8576 91.184 92.2976 91.68C91.7536 92.176 91.0896 92.568 90.3056 92.856C89.5376 93.128 88.7056 93.264 87.8096 93.264ZM87.7136 85.128C86.9616 85.128 86.2576 85.288 85.6016 85.608C84.9616 85.928 84.3856 86.384 83.8736 86.976C84.1296 88.032 84.5936 88.88 85.2656 89.52C85.9376 90.16 86.7376 90.48 87.6656 90.48C88.5776 90.48 89.3376 90.224 89.9456 89.712C90.5696 89.2 90.8816 88.552 90.8816 87.768C90.8816 86.984 90.5856 86.352 89.9936 85.872C89.4016 85.376 88.6416 85.128 87.7136 85.128ZM108.275 76.2V86.304H110.339V89.064H108.275V93H104.987V89.064H95.5074V86.424L104.483 76.2H108.275ZM99.2994 86.304H104.987V79.848L99.2994 86.304ZM112.52 93V76.2H125.504V79.224H116V83.184H122.312V86.112H116V93H112.52ZM122.959 93L129.871 76.2H133.903L140.719 93H136.951L135.247 88.584H128.311L126.583 93H122.959ZM129.391 85.8H134.191L131.815 79.608L129.391 85.8Z" fill="white"/>
</svg>
