<svg width="2091" height="394" viewBox="0 0 2091 394" fill="none" xmlns="http://www.w3.org/2000/svg">
<rect y="68" width="470" height="326" rx="8" fill="#E9E9E9"/>
<rect x="73" y="160" width="148" height="144" rx="4" fill="#D3D3D3"/>
<rect x="246" y="172" width="152" height="16" rx="8" fill="#D3D3D3"/>
<rect x="246" y="216" width="152" height="16" rx="8" fill="#D3D3D3"/>
<rect x="246" y="260" width="152" height="16" rx="8" fill="#D3D3D3"/>
<rect x="246" y="300" width="43" height="16" rx="8" fill="#D3D3D3"/>
<rect x="246" y="160" width="89" height="8" rx="4" fill="#D3D3D3"/>
<rect x="73" y="312" width="89" height="4" rx="2" fill="#D3D3D3"/>
<rect x="246" y="204" width="89" height="8" rx="4" fill="#D3D3D3"/>
<rect x="246" y="248" width="89" height="8" rx="4" fill="#D3D3D3"/>
<rect x="73" y="132" width="102" height="16" rx="8" fill="#D3D3D3"/>
<path d="M0 76C0 71.5817 3.58172 68 8 68H462C466.418 68 470 71.5817 470 76V88H0V76Z" fill="#BDBDBD"/>
<circle r="4" transform="matrix(1 0 0 -1 20 78)" fill="#929292"/>
<circle r="4" transform="matrix(1 0 0 -1 33 78)" fill="#929292"/>
<circle r="4" transform="matrix(1 0 0 -1 46 78)" fill="#929292"/>
<rect x="0.75" y="87.75" width="468.5" height="16.5" fill="white" stroke="#29D305" stroke-width="1.5"/>
<rect x="486" y="68" width="163" height="326" rx="8" fill="#E9E9E9"/>
<rect x="502" y="145" width="131" height="88" rx="4" fill="#D3D3D3"/>
<rect x="502" y="269" width="131" height="16" rx="8" fill="#D3D3D3"/>
<rect x="502" y="313" width="131" height="16" rx="8" fill="#D3D3D3"/>
<rect x="502" y="353" width="33" height="16" rx="8" fill="#D3D3D3"/>
<rect x="502" y="257" width="65" height="8" rx="4" fill="#D3D3D3"/>
<rect x="502" y="301" width="65" height="8" rx="4" fill="#D3D3D3"/>
<rect x="502" y="121" width="88" height="16" rx="8" fill="#D3D3D3"/>
<path d="M486 76C486 71.5817 489.582 68 494 68H641C645.418 68 649 71.5817 649 76V88H486V76Z" fill="#BDBDBD"/>
<rect x="486.75" y="87.75" width="161.5" height="16.5" fill="white" stroke="#29D305" stroke-width="1.5"/>
<rect x="1207" y="68" width="163" height="326" rx="8" fill="#E9E9E9"/>
<rect x="1223" y="128" width="131" height="88" rx="4" fill="#D3D3D3"/>
<rect x="1223" y="252" width="131" height="16" rx="8" fill="#D3D3D3"/>
<rect x="1223" y="296" width="131" height="16" rx="8" fill="#D3D3D3"/>
<rect x="1223" y="366" width="33" height="16" rx="8" fill="#D3D3D3"/>
<rect x="1223" y="240" width="65" height="8" rx="4" fill="#D3D3D3"/>
<rect x="1223" y="284" width="65" height="8" rx="4" fill="#D3D3D3"/>
<rect x="1223" y="104" width="88" height="16" rx="8" fill="#D3D3D3"/>
<path d="M1207 76C1207 71.5817 1210.58 68 1215 68H1362C1366.42 68 1370 71.5817 1370 76V88H1207V76Z" fill="#BDBDBD"/>
<rect x="1223.75" y="328.75" width="129.5" height="20.5" rx="3.25" fill="white" stroke="#29D305" stroke-width="1.5"/>
<rect x="1928" y="68" width="163" height="326" rx="8" fill="#E9E9E9"/>
<rect x="1944" y="136" width="131" height="88" rx="4" fill="#D3D3D3"/>
<rect x="1944" y="260" width="131" height="16" rx="8" fill="#D3D3D3"/>
<rect x="1944" y="304" width="131" height="16" rx="8" fill="#D3D3D3"/>
<rect x="1944" y="344" width="33" height="16" rx="8" fill="#D3D3D3"/>
<rect x="1944" y="248" width="65" height="8" rx="4" fill="#D3D3D3"/>
<rect x="1944" y="292" width="65" height="8" rx="4" fill="#D3D3D3"/>
<rect x="1944" y="112" width="88" height="16" rx="8" fill="#D3D3D3"/>
<path d="M1928 76C1928 71.5817 1931.58 68 1936 68H2083C2087.42 68 2091 71.5817 2091 76V88H1928V76Z" fill="#BDBDBD"/>
<rect x="1944.75" y="350.75" width="129.5" height="26.5" rx="3.25" fill="white" stroke="#29D305" stroke-width="1.5"/>
<rect x="721" y="68" width="470" height="326" rx="8" fill="#E9E9E9"/>
<path d="M721 76C721 71.5817 724.582 68 729 68H1183C1187.42 68 1191 71.5817 1191 76V88H721V76Z" fill="#BDBDBD"/>
<circle r="4" transform="matrix(1 0 0 -1 741 78)" fill="#929292"/>
<circle r="4" transform="matrix(1 0 0 -1 754 78)" fill="#929292"/>
<circle r="4" transform="matrix(1 0 0 -1 767 78)" fill="#929292"/>
<rect x="794" y="160" width="148" height="144" rx="4" fill="#D3D3D3"/>
<rect x="967" y="172" width="152" height="16" rx="8" fill="#D3D3D3"/>
<rect x="967" y="216" width="152" height="16" rx="8" fill="#D3D3D3"/>
<rect x="967" y="260" width="152" height="16" rx="8" fill="#D3D3D3"/>
<rect x="967" y="340" width="43" height="16" rx="8" fill="#D3D3D3"/>
<rect x="967" y="160" width="89" height="8" rx="4" fill="#D3D3D3"/>
<rect x="794" y="312" width="89" height="4" rx="2" fill="#D3D3D3"/>
<rect x="967" y="204" width="89" height="8" rx="4" fill="#D3D3D3"/>
<rect x="967" y="248" width="89" height="8" rx="4" fill="#D3D3D3"/>
<rect x="967.75" y="292.75" width="95.5" height="30.5" rx="3.25" fill="white" stroke="#29D305" stroke-width="1.5"/>
<rect x="794" y="132" width="102" height="16" rx="8" fill="#D3D3D3"/>
<rect x="1442" y="68" width="470" height="326" rx="8" fill="#E9E9E9"/>
<path d="M1442 76C1442 71.5817 1445.58 68 1450 68H1904C1908.42 68 1912 71.5817 1912 76V88H1442V76Z" fill="#BDBDBD"/>
<circle r="4" transform="matrix(1 0 0 -1 1462 78)" fill="#929292"/>
<circle r="4" transform="matrix(1 0 0 -1 1475 78)" fill="#929292"/>
<circle r="4" transform="matrix(1 0 0 -1 1488 78)" fill="#929292"/>
<g filter="url(#filter0_d_4078_4083)">
<rect x="1814" y="96" width="90" height="28" rx="4" fill="white"/>
<rect x="1814.75" y="96.75" width="88.5" height="26.5" rx="3.25" stroke="#29D305" stroke-width="1.5"/>
</g>
<rect x="1515" y="160" width="148" height="144" rx="4" fill="#D3D3D3"/>
<rect x="1688" y="172" width="152" height="16" rx="8" fill="#D3D3D3"/>
<rect x="1688" y="216" width="152" height="16" rx="8" fill="#D3D3D3"/>
<rect x="1688" y="260" width="152" height="16" rx="8" fill="#D3D3D3"/>
<rect x="1688" y="300" width="43" height="16" rx="8" fill="#D3D3D3"/>
<rect x="1688" y="160" width="89" height="8" rx="4" fill="#D3D3D3"/>
<rect x="1515" y="312" width="89" height="4" rx="2" fill="#D3D3D3"/>
<rect x="1688" y="204" width="89" height="8" rx="4" fill="#D3D3D3"/>
<rect x="1688" y="248" width="89" height="8" rx="4" fill="#D3D3D3"/>
<rect x="1515" y="132" width="102" height="16" rx="8" fill="#D3D3D3"/>
<path d="M17.952 42.484C15.6347 42.484 13.4787 42.088 11.484 41.296C9.48933 40.4747 7.72933 39.3453 6.204 37.908C4.708 36.4413 3.53467 34.7547 2.684 32.848C1.86267 30.912 1.452 28.8293 1.452 26.6C1.452 24.3707 1.86267 22.3027 2.684 20.396C3.53467 18.46 4.69333 16.7733 6.16 15.336C7.656 13.8693 9.40133 12.74 11.396 11.948C13.3907 11.1267 15.532 10.716 17.82 10.716C20.4307 10.716 22.8947 11.2587 25.212 12.344C27.5293 13.4 29.4213 14.8667 30.888 16.744L25.564 21.54C24.5667 20.2493 23.408 19.2813 22.088 18.636C20.7973 17.9907 19.3747 17.668 17.82 17.668C16.588 17.668 15.444 17.9027 14.388 18.372C13.3613 18.812 12.452 19.428 11.66 20.22C10.8973 21.012 10.296 21.9507 9.856 23.036C9.44533 24.1213 9.24 25.3093 9.24 26.6C9.24 27.8907 9.46 29.0933 9.9 30.208C10.34 31.2933 10.956 32.2467 11.748 33.068C12.5693 33.86 13.508 34.4907 14.564 34.96C15.6493 35.4 16.8227 35.62 18.084 35.62C19.2867 35.62 20.372 35.4147 21.34 35.004C22.3373 34.5933 23.188 34.0213 23.892 33.288C24.596 32.5547 25.0947 31.7187 25.388 30.78H17.072V24.224H33.572V26.424C33.572 28.7413 33.176 30.8827 32.384 32.848C31.6213 34.784 30.536 36.4853 29.128 37.952C27.7493 39.3893 26.1067 40.504 24.2 41.296C22.2933 42.088 20.2107 42.484 17.952 42.484ZM37.2195 42V11.2L44.3475 10.1V42H37.2195ZM60.3072 42.44C57.9312 42.44 55.7898 41.912 53.8832 40.856C51.9765 39.7707 50.4658 38.3187 49.3512 36.5C48.2365 34.6813 47.6792 32.6427 47.6792 30.384C47.6792 28.1253 48.2365 26.0867 49.3512 24.268C50.4658 22.42 51.9765 20.968 53.8832 19.912C55.7898 18.8267 57.9312 18.284 60.3072 18.284C62.6832 18.284 64.8245 18.8267 66.7312 19.912C68.6378 20.968 70.1485 22.42 71.2632 24.268C72.3778 26.0867 72.9352 28.1253 72.9352 30.384C72.9352 32.6427 72.3778 34.6813 71.2632 36.5C70.1485 38.3187 68.6378 39.7707 66.7312 40.856C64.8245 41.912 62.6832 42.44 60.3072 42.44ZM60.3072 36.28C61.3925 36.28 62.3605 36.016 63.2112 35.488C64.0618 34.96 64.7365 34.256 65.2352 33.376C65.7338 32.4667 65.9832 31.4693 65.9832 30.384C65.9832 29.2693 65.7338 28.272 65.2352 27.392C64.7365 26.4827 64.0472 25.764 63.1672 25.236C62.3165 24.708 61.3632 24.444 60.3072 24.444C59.2512 24.444 58.2832 24.708 57.4032 25.236C56.5525 25.764 55.8778 26.4827 55.3792 27.392C54.8805 28.272 54.6312 29.2693 54.6312 30.384C54.6312 31.4693 54.8805 32.4667 55.3792 33.376C55.8778 34.256 56.5525 34.96 57.4032 35.488C58.2832 36.016 59.2512 36.28 60.3072 36.28ZM76.2781 42V11.2L83.4061 10.1V20.352C85.2248 19.0613 87.2781 18.416 89.5661 18.416C91.7955 18.416 93.8048 18.9587 95.5941 20.044C97.3835 21.1 98.8061 22.5373 99.8621 24.356C100.918 26.1453 101.446 28.1547 101.446 30.384C101.446 32.6133 100.903 34.6373 99.8181 36.456C98.7621 38.2453 97.3101 39.668 95.4621 40.724C93.6435 41.78 91.6048 42.308 89.3461 42.308C88.2608 42.308 87.2048 42.176 86.1781 41.912C85.1515 41.6187 84.1981 41.208 83.3181 40.68V42H76.2781ZM88.3341 36.28C89.5075 36.28 90.5488 36.0307 91.4581 35.532C92.3675 35.004 93.0861 34.3 93.6141 33.42C94.1715 32.5107 94.4501 31.4987 94.4501 30.384C94.4501 29.2693 94.1715 28.272 93.6141 27.392C93.0861 26.4827 92.3528 25.7787 91.4141 25.28C90.5048 24.752 89.4781 24.488 88.3341 24.488C87.3368 24.488 86.4275 24.6493 85.6061 24.972C84.7848 25.2653 84.0515 25.72 83.4061 26.336V34.476C84.0221 35.0333 84.7555 35.4733 85.6061 35.796C86.4568 36.1187 87.3661 36.28 88.3341 36.28ZM112.46 42.396C110.818 42.396 109.351 42.088 108.06 41.472C106.799 40.856 105.802 40.0053 105.068 38.92C104.364 37.8347 104.012 36.588 104.012 35.18C104.012 32.9507 104.848 31.2347 106.52 30.032C108.222 28.8 110.583 28.184 113.604 28.184C115.423 28.184 117.183 28.404 118.884 28.844V27.7C118.884 26.5267 118.503 25.6613 117.74 25.104C117.007 24.5173 115.907 24.224 114.44 24.224C113.531 24.224 112.504 24.3707 111.36 24.664C110.246 24.9573 108.926 25.4267 107.4 26.072L104.848 20.836C106.755 19.9853 108.588 19.3547 110.348 18.944C112.138 18.504 113.927 18.284 115.716 18.284C118.943 18.284 121.451 19.0613 123.24 20.616C125.03 22.1413 125.924 24.2973 125.924 27.084V42H118.884V40.592C117.946 41.2373 116.948 41.7067 115.892 42C114.866 42.264 113.722 42.396 112.46 42.396ZM110.788 35.048C110.788 35.7813 111.111 36.3533 111.756 36.764C112.402 37.1747 113.296 37.38 114.44 37.38C115.291 37.38 116.083 37.292 116.816 37.116C117.579 36.94 118.268 36.6613 118.884 36.28V33.288C118.21 33.112 117.52 32.98 116.816 32.892C116.112 32.804 115.394 32.76 114.66 32.76C113.428 32.76 112.475 32.9653 111.8 33.376C111.126 33.7573 110.788 34.3147 110.788 35.048ZM130.161 42V11.2L137.289 10.1V42H130.161Z" fill="black"/>
<path d="M723.552 42V11.2H731.12V35.312H747.356V42H723.552ZM762.1 42.44C759.724 42.44 757.583 41.912 755.676 40.856C753.769 39.7707 752.259 38.3187 751.144 36.5C750.029 34.6813 749.472 32.6427 749.472 30.384C749.472 28.1253 750.029 26.0867 751.144 24.268C752.259 22.42 753.769 20.968 755.676 19.912C757.583 18.8267 759.724 18.284 762.1 18.284C764.476 18.284 766.617 18.8267 768.524 19.912C770.431 20.968 771.941 22.42 773.056 24.268C774.171 26.0867 774.728 28.1253 774.728 30.384C774.728 32.6427 774.171 34.6813 773.056 36.5C771.941 38.3187 770.431 39.7707 768.524 40.856C766.617 41.912 764.476 42.44 762.1 42.44ZM762.1 36.28C763.185 36.28 764.153 36.016 765.004 35.488C765.855 34.96 766.529 34.256 767.028 33.376C767.527 32.4667 767.776 31.4693 767.776 30.384C767.776 29.2693 767.527 28.272 767.028 27.392C766.529 26.4827 765.84 25.764 764.96 25.236C764.109 24.708 763.156 24.444 762.1 24.444C761.044 24.444 760.076 24.708 759.196 25.236C758.345 25.764 757.671 26.4827 757.172 27.392C756.673 28.272 756.424 29.2693 756.424 30.384C756.424 31.4693 756.673 32.4667 757.172 33.376C757.671 34.256 758.345 34.96 759.196 35.488C760.076 36.016 761.044 36.28 762.1 36.28ZM789.335 42.44C787.018 42.44 784.92 41.912 783.043 40.856C781.195 39.8 779.728 38.3627 778.643 36.544C777.558 34.696 777.015 32.6427 777.015 30.384C777.015 28.096 777.558 26.0427 778.643 24.224C779.728 22.4053 781.195 20.968 783.043 19.912C784.92 18.8267 787.018 18.284 789.335 18.284C791.242 18.284 793.06 18.6653 794.791 19.428C796.522 20.1613 797.988 21.2173 799.191 22.596L794.835 27.128C794.014 26.1893 793.178 25.5147 792.327 25.104C791.476 24.664 790.538 24.444 789.511 24.444C788.484 24.444 787.56 24.708 786.739 25.236C785.918 25.7347 785.272 26.4387 784.803 27.348C784.334 28.228 784.099 29.24 784.099 30.384C784.099 31.4987 784.334 32.5107 784.803 33.42C785.302 34.3 785.976 35.004 786.827 35.532C787.678 36.0307 788.631 36.28 789.687 36.28C790.655 36.28 791.55 36.0747 792.371 35.664C793.192 35.2533 793.984 34.6227 794.747 33.772L798.971 38.172C797.798 39.5213 796.36 40.5773 794.659 41.34C792.958 42.0733 791.183 42.44 789.335 42.44ZM809.226 42.396C807.583 42.396 806.117 42.088 804.826 41.472C803.565 40.856 802.567 40.0053 801.834 38.92C801.13 37.8347 800.778 36.588 800.778 35.18C800.778 32.9507 801.614 31.2347 803.286 30.032C804.987 28.8 807.349 28.184 810.37 28.184C812.189 28.184 813.949 28.404 815.65 28.844V27.7C815.65 26.5267 815.269 25.6613 814.506 25.104C813.773 24.5173 812.673 24.224 811.206 24.224C810.297 24.224 809.27 24.3707 808.126 24.664C807.011 24.9573 805.691 25.4267 804.166 26.072L801.614 20.836C803.521 19.9853 805.354 19.3547 807.114 18.944C808.903 18.504 810.693 18.284 812.482 18.284C815.709 18.284 818.217 19.0613 820.006 20.616C821.795 22.1413 822.69 24.2973 822.69 27.084V42H815.65V40.592C814.711 41.2373 813.714 41.7067 812.658 42C811.631 42.264 810.487 42.396 809.226 42.396ZM807.554 35.048C807.554 35.7813 807.877 36.3533 808.522 36.764C809.167 37.1747 810.062 37.38 811.206 37.38C812.057 37.38 812.849 37.292 813.582 37.116C814.345 36.94 815.034 36.6613 815.65 36.28V33.288C814.975 33.112 814.286 32.98 813.582 32.892C812.878 32.804 812.159 32.76 811.426 32.76C810.194 32.76 809.241 32.9653 808.566 33.376C807.891 33.7573 807.554 34.3147 807.554 35.048ZM826.927 42V11.2L834.055 10.1V42H826.927Z" fill="black"/>
<path d="M1452.87 42V17.888H1442.79V11.2H1470.51V17.888H1460.44V42H1452.87ZM1479.79 42.44C1477.42 42.44 1475.27 41.912 1473.37 40.856C1471.46 39.7707 1469.95 38.3187 1468.84 36.5C1467.72 34.6813 1467.16 32.6427 1467.16 30.384C1467.16 28.1253 1467.72 26.0867 1468.84 24.268C1469.95 22.42 1471.46 20.968 1473.37 19.912C1475.27 18.8267 1477.42 18.284 1479.79 18.284C1482.17 18.284 1484.31 18.8267 1486.22 19.912C1488.12 20.968 1489.63 22.42 1490.75 24.268C1491.86 26.0867 1492.42 28.1253 1492.42 30.384C1492.42 32.6427 1491.86 34.6813 1490.75 36.5C1489.63 38.3187 1488.12 39.7707 1486.22 40.856C1484.31 41.912 1482.17 42.44 1479.79 42.44ZM1479.79 36.28C1480.88 36.28 1481.84 36.016 1482.7 35.488C1483.55 34.96 1484.22 34.256 1484.72 33.376C1485.22 32.4667 1485.47 31.4693 1485.47 30.384C1485.47 29.2693 1485.22 28.272 1484.72 27.392C1484.22 26.4827 1483.53 25.764 1482.65 25.236C1481.8 24.708 1480.85 24.444 1479.79 24.444C1478.74 24.444 1477.77 24.708 1476.89 25.236C1476.04 25.764 1475.36 26.4827 1474.86 27.392C1474.36 28.272 1474.12 29.2693 1474.12 30.384C1474.12 31.4693 1474.36 32.4667 1474.86 33.376C1475.36 34.256 1476.04 34.96 1476.89 35.488C1477.77 36.016 1478.74 36.28 1479.79 36.28ZM1503.41 42.396C1501.77 42.396 1500.3 42.088 1499.01 41.472C1497.75 40.856 1496.75 40.0053 1496.02 38.92C1495.32 37.8347 1494.97 36.588 1494.97 35.18C1494.97 32.9507 1495.8 31.2347 1497.47 30.032C1499.17 28.8 1501.54 28.184 1504.56 28.184C1506.38 28.184 1508.14 28.404 1509.84 28.844V27.7C1509.84 26.5267 1509.46 25.6613 1508.69 25.104C1507.96 24.5173 1506.86 24.224 1505.39 24.224C1504.48 24.224 1503.46 24.3707 1502.31 24.664C1501.2 24.9573 1499.88 25.4267 1498.35 26.072L1495.8 20.836C1497.71 19.9853 1499.54 19.3547 1501.3 18.944C1503.09 18.504 1504.88 18.284 1506.67 18.284C1509.9 18.284 1512.4 19.0613 1514.19 20.616C1515.98 22.1413 1516.88 24.2973 1516.88 27.084V42H1509.84V40.592C1508.9 41.2373 1507.9 41.7067 1506.85 42C1505.82 42.264 1504.67 42.396 1503.41 42.396ZM1501.74 35.048C1501.74 35.7813 1502.06 36.3533 1502.71 36.764C1503.35 37.1747 1504.25 37.38 1505.39 37.38C1506.24 37.38 1507.04 37.292 1507.77 37.116C1508.53 36.94 1509.22 36.6613 1509.84 36.28V33.288C1509.16 33.112 1508.47 32.98 1507.77 32.892C1507.07 32.804 1506.35 32.76 1505.61 32.76C1504.38 32.76 1503.43 32.9653 1502.75 33.376C1502.08 33.7573 1501.74 34.3147 1501.74 35.048ZM1530.31 42.44C1528.11 42.44 1526.07 42.1907 1524.19 41.692C1522.32 41.164 1520.69 40.4013 1519.31 39.404L1522.7 34.608C1524.16 35.488 1525.5 36.1333 1526.7 36.544C1527.9 36.9253 1529.09 37.116 1530.27 37.116C1531.44 37.116 1532.36 36.9547 1533.04 36.632C1533.74 36.28 1534.09 35.8253 1534.09 35.268C1534.09 34.828 1533.9 34.476 1533.52 34.212C1533.14 33.9187 1532.54 33.7133 1531.72 33.596L1527.1 32.892C1524.78 32.54 1523.01 31.7773 1521.77 30.604C1520.57 29.4013 1519.97 27.8467 1519.97 25.94C1519.97 24.356 1520.37 23.0067 1521.16 21.892C1521.98 20.748 1523.14 19.8827 1524.63 19.296C1526.13 18.68 1527.92 18.372 1530 18.372C1531.7 18.372 1533.39 18.6067 1535.06 19.076C1536.73 19.5453 1538.29 20.2493 1539.73 21.188L1536.34 25.764C1535.08 25.0307 1533.87 24.5027 1532.73 24.18C1531.59 23.828 1530.44 23.652 1529.3 23.652C1528.39 23.652 1527.66 23.8133 1527.1 24.136C1526.54 24.4293 1526.26 24.8253 1526.26 25.324C1526.26 25.7933 1526.47 26.1747 1526.88 26.468C1527.29 26.732 1527.99 26.9373 1528.99 27.084L1533.61 27.788C1535.9 28.1107 1537.66 28.8733 1538.89 30.076C1540.15 31.2493 1540.78 32.7453 1540.78 34.564C1540.78 36.0893 1540.33 37.4387 1539.42 38.612C1538.51 39.7853 1537.26 40.724 1535.68 41.428C1534.12 42.1027 1532.33 42.44 1530.31 42.44ZM1554.82 42.308C1552.03 42.308 1549.92 41.692 1548.48 40.46C1547.08 39.1987 1546.37 37.3507 1546.37 34.916V24.664H1541.66V18.724H1546.37V12.74L1553.5 11.2V18.724H1560.01V24.664H1553.5V33.508C1553.5 34.5347 1553.72 35.268 1554.16 35.708C1554.63 36.1187 1555.44 36.324 1556.58 36.324C1557.17 36.324 1557.69 36.2947 1558.16 36.236C1558.66 36.148 1559.2 36.016 1559.79 35.84V41.604C1559.15 41.8093 1558.32 41.9707 1557.33 42.088C1556.33 42.2347 1555.49 42.308 1554.82 42.308Z" fill="black"/>
<defs>
<filter id="filter0_d_4078_4083" x="1784" y="66" width="150" height="88" filterUnits="userSpaceOnUse" color-interpolation-filters="sRGB">
<feFlood flood-opacity="0" result="BackgroundImageFix"/>
<feColorMatrix in="SourceAlpha" type="matrix" values="0 0 0 0 0 0 0 0 0 0 0 0 0 0 0 0 0 0 127 0" result="hardAlpha"/>
<feOffset/>
<feGaussianBlur stdDeviation="15"/>
<feColorMatrix type="matrix" values="0 0 0 0 0 0 0 0 0 0 0 0 0 0 0 0 0 0 0.08 0"/>
<feBlend mode="normal" in2="BackgroundImageFix" result="effect1_dropShadow_4078_4083"/>
<feBlend mode="normal" in="SourceGraphic" in2="effect1_dropShadow_4078_4083" result="shape"/>
</filter>
</defs>
</svg>
