<svg width="2091" height="394" fill="none" xmlns="http://www.w3.org/2000/svg"><rect y="68" width="470" height="326" rx="8" fill="#E9E9E9"/><rect x="73" y="160" width="148" height="144" rx="4" fill="#D3D3D3"/><rect x="246" y="172" width="152" height="16" rx="8" fill="#D3D3D3"/><rect x="246" y="216" width="152" height="16" rx="8" fill="#D3D3D3"/><rect x="246" y="260" width="152" height="16" rx="8" fill="#D3D3D3"/><rect x="246" y="300" width="43" height="16" rx="8" fill="#D3D3D3"/><rect x="246" y="160" width="89" height="8" rx="4" fill="#D3D3D3"/><rect x="73" y="312" width="89" height="4" rx="2" fill="#D3D3D3"/><rect x="246" y="204" width="89" height="8" rx="4" fill="#D3D3D3"/><rect x="246" y="248" width="89" height="8" rx="4" fill="#D3D3D3"/><rect x="73" y="132" width="102" height="16" rx="8" fill="#D3D3D3"/><path d="M0 76a8 8 0 0 1 8-8h454a8 8 0 0 1 8 8v12H0V76z" fill="#BDBDBD"/><circle r="4" transform="matrix(1 0 0 -1 20 78)" fill="#929292"/><circle r="4" transform="matrix(1 0 0 -1 33 78)" fill="#929292"/><circle r="4" transform="matrix(1 0 0 -1 46 78)" fill="#929292"/><path fill="#fff" stroke="#29D305" stroke-width="1.5" d="M0.75 87.75H469.25V104.25H0.75z"/><rect x="486" y="68" width="163" height="326" rx="8" fill="#E9E9E9"/><rect x="502" y="145" width="131" height="88" rx="4" fill="#D3D3D3"/><rect x="502" y="269" width="131" height="16" rx="8" fill="#D3D3D3"/><rect x="502" y="313" width="131" height="16" rx="8" fill="#D3D3D3"/><rect x="502" y="353" width="33" height="16" rx="8" fill="#D3D3D3"/><rect x="502" y="257" width="65" height="8" rx="4" fill="#D3D3D3"/><rect x="502" y="301" width="65" height="8" rx="4" fill="#D3D3D3"/><rect x="502" y="121" width="88" height="16" rx="8" fill="#D3D3D3"/><path d="M486 76a8 8 0 0 1 8-8h147a8 8 0 0 1 8 8v12H486V76z" fill="#BDBDBD"/><path fill="#fff" stroke="#29D305" stroke-width="1.5" d="M486.75 87.75H648.25V104.25H486.75z"/><rect x="1207" y="68" width="163" height="326" rx="8" fill="#E9E9E9"/><rect x="1223" y="128" width="131" height="88" rx="4" fill="#D3D3D3"/><rect x="1223" y="252" width="131" height="16" rx="8" fill="#D3D3D3"/><rect x="1223" y="296" width="131" height="16" rx="8" fill="#D3D3D3"/><rect x="1223" y="366" width="33" height="16" rx="8" fill="#D3D3D3"/><rect x="1223" y="240" width="65" height="8" rx="4" fill="#D3D3D3"/><rect x="1223" y="284" width="65" height="8" rx="4" fill="#D3D3D3"/><rect x="1223" y="104" width="88" height="16" rx="8" fill="#D3D3D3"/><path d="M1207 76c0-4.418 3.58-8 8-8h147c4.42 0 8 3.582 8 8v12h-163V76z" fill="#BDBDBD"/><rect x="1223.75" y="328.75" width="129.5" height="20.5" rx="3.25" fill="#fff" stroke="#29D305" stroke-width="1.5"/><rect x="1928" y="68" width="163" height="326" rx="8" fill="#E9E9E9"/><rect x="1944" y="136" width="131" height="88" rx="4" fill="#D3D3D3"/><rect x="1944" y="260" width="131" height="16" rx="8" fill="#D3D3D3"/><rect x="1944" y="304" width="131" height="16" rx="8" fill="#D3D3D3"/><rect x="1944" y="344" width="33" height="16" rx="8" fill="#D3D3D3"/><rect x="1944" y="248" width="65" height="8" rx="4" fill="#D3D3D3"/><rect x="1944" y="292" width="65" height="8" rx="4" fill="#D3D3D3"/><rect x="1944" y="112" width="88" height="16" rx="8" fill="#D3D3D3"/><path d="M1928 76c0-4.418 3.58-8 8-8h147c4.42 0 8 3.582 8 8v12h-163V76z" fill="#BDBDBD"/><rect x="1944.75" y="350.75" width="129.5" height="26.5" rx="3.25" fill="#fff" stroke="#29D305" stroke-width="1.5"/><rect x="721" y="68" width="470" height="326" rx="8" fill="#E9E9E9"/><path d="M721 76a8 8 0 0 1 8-8h454c4.42 0 8 3.582 8 8v12H721V76z" fill="#BDBDBD"/><circle r="4" transform="matrix(1 0 0 -1 741 78)" fill="#929292"/><circle r="4" transform="matrix(1 0 0 -1 754 78)" fill="#929292"/><circle r="4" transform="matrix(1 0 0 -1 767 78)" fill="#929292"/><rect x="794" y="160" width="148" height="144" rx="4" fill="#D3D3D3"/><rect x="967" y="172" width="152" height="16" rx="8" fill="#D3D3D3"/><rect x="967" y="216" width="152" height="16" rx="8" fill="#D3D3D3"/><rect x="967" y="260" width="152" height="16" rx="8" fill="#D3D3D3"/><rect x="967" y="340" width="43" height="16" rx="8" fill="#D3D3D3"/><rect x="967" y="160" width="89" height="8" rx="4" fill="#D3D3D3"/><rect x="794" y="312" width="89" height="4" rx="2" fill="#D3D3D3"/><rect x="967" y="204" width="89" height="8" rx="4" fill="#D3D3D3"/><rect x="967" y="248" width="89" height="8" rx="4" fill="#D3D3D3"/><rect x="967.75" y="292.75" width="95.5" height="30.5" rx="3.25" fill="#fff" stroke="#29D305" stroke-width="1.5"/><rect x="794" y="132" width="102" height="16" rx="8" fill="#D3D3D3"/><rect x="1442" y="68" width="470" height="326" rx="8" fill="#E9E9E9"/><path d="M1442 76c0-4.418 3.58-8 8-8h454c4.42 0 8 3.582 8 8v12h-470V76z" fill="#BDBDBD"/><circle r="4" transform="matrix(1 0 0 -1 1462 78)" fill="#929292"/><circle r="4" transform="matrix(1 0 0 -1 1475 78)" fill="#929292"/><circle r="4" transform="matrix(1 0 0 -1 1488 78)" fill="#929292"/><g filter="url(#filter0_d_4078_4083)"><rect x="1814" y="96" width="90" height="28" rx="4" fill="#fff"/><rect x="1814.75" y="96.75" width="88.5" height="26.5" rx="3.25" stroke="#29D305" stroke-width="1.5"/></g><rect x="1515" y="160" width="148" height="144" rx="4" fill="#D3D3D3"/><rect x="1688" y="172" width="152" height="16" rx="8" fill="#D3D3D3"/><rect x="1688" y="216" width="152" height="16" rx="8" fill="#D3D3D3"/><rect x="1688" y="260" width="152" height="16" rx="8" fill="#D3D3D3"/><rect x="1688" y="300" width="43" height="16" rx="8" fill="#D3D3D3"/><rect x="1688" y="160" width="89" height="8" rx="4" fill="#D3D3D3"/><rect x="1515" y="312" width="89" height="4" rx="2" fill="#D3D3D3"/><rect x="1688" y="204" width="89" height="8" rx="4" fill="#D3D3D3"/><rect x="1688" y="248" width="89" height="8" rx="4" fill="#D3D3D3"/><rect x="1515" y="132" width="102" height="16" rx="8" fill="#D3D3D3"/><path d="M17.952 42.484c-2.317 0-4.473-.396-6.468-1.188a17.14 17.14 0 0 1-5.28-3.388 16.362 16.362 0 0 1-3.52-5.06c-.821-1.936-1.232-4.019-1.232-6.248 0-2.23.41-4.297 1.232-6.204a16.046 16.046 0 0 1 3.476-5.06 15.64 15.64 0 0 1 5.236-3.388c1.995-.821 4.136-1.232 6.424-1.232 2.61 0 5.075.543 7.392 1.628 2.317 1.056 4.21 2.523 5.676 4.4l-5.324 4.796c-.997-1.29-2.156-2.259-3.476-2.904-1.29-.645-2.713-.968-4.268-.968-1.232 0-2.376.235-3.432.704a8.634 8.634 0 0 0-2.728 1.848 8.75 8.75 0 0 0-1.804 2.816c-.41 1.085-.616 2.273-.616 3.564 0 1.29.22 2.493.66 3.608a8.887 8.887 0 0 0 1.848 2.86 9.696 9.696 0 0 0 2.816 1.892c1.085.44 2.259.66 3.52.66 1.203 0 2.288-.205 3.256-.616a7.387 7.387 0 0 0 2.552-1.716 6.293 6.293 0 0 0 1.496-2.508h-8.316v-6.556h16.5v2.2c0 2.317-.396 4.459-1.188 6.424a15.49 15.49 0 0 1-3.256 5.104c-1.379 1.437-3.021 2.552-4.928 3.344-1.907.792-3.99 1.188-6.248 1.188zM37.219 42V11.2l7.128-1.1V42H37.22zm23.088.44c-2.376 0-4.517-.528-6.424-1.584-1.907-1.085-3.417-2.537-4.532-4.356-1.114-1.819-1.672-3.857-1.672-6.116 0-2.259.557-4.297 1.672-6.116a11.97 11.97 0 0 1 4.532-4.356c1.907-1.085 4.048-1.628 6.424-1.628 2.376 0 4.517.543 6.424 1.628a11.972 11.972 0 0 1 4.532 4.356c1.115 1.819 1.672 3.857 1.672 6.116 0 2.259-.557 4.297-1.672 6.116-1.115 1.819-2.625 3.27-4.532 4.356-1.906 1.056-4.048 1.584-6.424 1.584zm0-6.16c1.085 0 2.053-.264 2.904-.792a5.825 5.825 0 0 0 2.024-2.112 6.12 6.12 0 0 0 .748-2.992c0-1.115-.25-2.112-.748-2.992a5.62 5.62 0 0 0-2.068-2.156c-.85-.528-1.804-.792-2.86-.792a5.539 5.539 0 0 0-2.904.792 5.727 5.727 0 0 0-2.024 2.156c-.498.88-.748 1.877-.748 2.992 0 1.085.25 2.083.748 2.992a5.824 5.824 0 0 0 2.024 2.112c.88.528 1.848.792 2.904.792zM76.278 42V11.2l7.128-1.1v10.252c1.819-1.29 3.872-1.936 6.16-1.936 2.23 0 4.239.543 6.028 1.628a11.798 11.798 0 0 1 4.268 4.312c1.056 1.79 1.584 3.799 1.584 6.028 0 2.23-.543 4.253-1.628 6.072-1.056 1.79-2.508 3.212-4.356 4.268-1.819 1.056-3.857 1.584-6.116 1.584a12.67 12.67 0 0 1-3.168-.396 11.867 11.867 0 0 1-2.86-1.232V42h-7.04zm12.056-5.72c1.173 0 2.215-.25 3.124-.748a5.955 5.955 0 0 0 2.156-2.112c.557-.91.836-1.921.836-3.036s-.279-2.112-.836-2.992a5.448 5.448 0 0 0-2.2-2.112c-.91-.528-1.936-.792-3.08-.792-.997 0-1.907.161-2.728.484a6.155 6.155 0 0 0-2.2 1.364v8.14c.616.557 1.35.997 2.2 1.32.85.323 1.76.484 2.728.484zm24.126 6.116c-1.642 0-3.109-.308-4.4-.924-1.261-.616-2.258-1.467-2.992-2.552-.704-1.085-1.056-2.332-1.056-3.74 0-2.23.836-3.945 2.508-5.148 1.702-1.232 4.063-1.848 7.084-1.848 1.819 0 3.579.22 5.28.66V27.7c0-1.173-.381-2.039-1.144-2.596-.733-.587-1.833-.88-3.3-.88-.909 0-1.936.147-3.08.44-1.114.293-2.434.763-3.96 1.408l-2.552-5.236c1.907-.85 3.74-1.481 5.5-1.892 1.79-.44 3.579-.66 5.368-.66 3.227 0 5.735.777 7.524 2.332 1.79 1.525 2.684 3.681 2.684 6.468V42h-7.04v-1.408A9.953 9.953 0 0 1 115.892 42c-1.026.264-2.17.396-3.432.396zm-1.672-7.348c0 .733.323 1.305.968 1.716.646.41 1.54.616 2.684.616.851 0 1.643-.088 2.376-.264a6.8 6.8 0 0 0 2.068-.836v-2.992a16.068 16.068 0 0 0-2.068-.396 17.36 17.36 0 0 0-2.156-.132c-1.232 0-2.185.205-2.86.616-.674.381-1.012.939-1.012 1.672zM130.161 42V11.2l7.128-1.1V42h-7.128zm593.391 0V11.2h7.568v24.112h16.236V42h-23.804zm38.548.44c-2.376 0-4.517-.528-6.424-1.584-1.907-1.085-3.417-2.537-4.532-4.356-1.115-1.819-1.672-3.857-1.672-6.116 0-2.259.557-4.297 1.672-6.116a11.972 11.972 0 0 1 4.532-4.356c1.907-1.085 4.048-1.628 6.424-1.628 2.376 0 4.517.543 6.424 1.628a11.972 11.972 0 0 1 4.532 4.356c1.115 1.819 1.672 3.857 1.672 6.116 0 2.259-.557 4.297-1.672 6.116-1.115 1.819-2.625 3.27-4.532 4.356-1.907 1.056-4.048 1.584-6.424 1.584zm0-6.16c1.085 0 2.053-.264 2.904-.792a5.824 5.824 0 0 0 2.024-2.112c.499-.91.748-1.907.748-2.992 0-1.115-.249-2.112-.748-2.992a5.621 5.621 0 0 0-2.068-2.156c-.851-.528-1.804-.792-2.86-.792a5.539 5.539 0 0 0-2.904.792 5.728 5.728 0 0 0-2.024 2.156c-.499.88-.748 1.877-.748 2.992 0 1.085.249 2.083.748 2.992a5.824 5.824 0 0 0 2.024 2.112c.88.528 1.848.792 2.904.792zm27.235 6.16c-2.317 0-4.415-.528-6.292-1.584a11.93 11.93 0 0 1-4.4-4.312c-1.085-1.848-1.628-3.901-1.628-6.16 0-2.288.543-4.341 1.628-6.16a11.93 11.93 0 0 1 4.4-4.312c1.877-1.085 3.975-1.628 6.292-1.628 1.907 0 3.725.381 5.456 1.144a11.929 11.929 0 0 1 4.4 3.168l-4.356 4.532c-.821-.939-1.657-1.613-2.508-2.024-.851-.44-1.789-.66-2.816-.66s-1.951.264-2.772.792c-.821.499-1.467 1.203-1.936 2.112-.469.88-.704 1.892-.704 3.036 0 1.115.235 2.127.704 3.036a5.824 5.824 0 0 0 2.024 2.112c.851.499 1.804.748 2.86.748.968 0 1.863-.205 2.684-.616.821-.41 1.613-1.041 2.376-1.892l4.224 4.4c-1.173 1.35-2.611 2.405-4.312 3.168a13.313 13.313 0 0 1-5.324 1.1zm19.891-.044c-1.643 0-3.109-.308-4.4-.924-1.261-.616-2.259-1.467-2.992-2.552-.704-1.085-1.056-2.332-1.056-3.74 0-2.23.836-3.945 2.508-5.148 1.701-1.232 4.063-1.848 7.084-1.848 1.819 0 3.579.22 5.28.66V27.7c0-1.173-.381-2.039-1.144-2.596-.733-.587-1.833-.88-3.3-.88-.909 0-1.936.147-3.08.44-1.115.293-2.435.763-3.96 1.408l-2.552-5.236c1.907-.85 3.74-1.481 5.5-1.892 1.789-.44 3.579-.66 5.368-.66 3.227 0 5.735.777 7.524 2.332 1.789 1.525 2.684 3.681 2.684 6.468V42h-7.04v-1.408A9.964 9.964 0 0 1 812.658 42c-1.027.264-2.171.396-3.432.396zm-1.672-7.348c0 .733.323 1.305.968 1.716.645.41 1.54.616 2.684.616.851 0 1.643-.088 2.376-.264a6.8 6.8 0 0 0 2.068-.836v-2.992a16.1 16.1 0 0 0-2.068-.396 17.372 17.372 0 0 0-2.156-.132c-1.232 0-2.185.205-2.86.616-.675.381-1.012.939-1.012 1.672zM826.927 42V11.2l7.128-1.1V42h-7.128zm625.943 0V17.888h-10.08V11.2h27.72v6.688h-10.07V42h-7.57zm26.92.44c-2.37 0-4.52-.528-6.42-1.584-1.91-1.085-3.42-2.537-4.53-4.356-1.12-1.819-1.68-3.857-1.68-6.116 0-2.259.56-4.297 1.68-6.116a11.91 11.91 0 0 1 4.53-4.356c1.9-1.085 4.05-1.628 6.42-1.628 2.38 0 4.52.543 6.43 1.628a12.053 12.053 0 0 1 4.53 4.356c1.11 1.819 1.67 3.857 1.67 6.116 0 2.259-.56 4.297-1.67 6.116-1.12 1.819-2.63 3.27-4.53 4.356-1.91 1.056-4.05 1.584-6.43 1.584zm0-6.16c1.09 0 2.05-.264 2.91-.792a5.83 5.83 0 0 0 2.02-2.112c.5-.91.75-1.907.75-2.992 0-1.115-.25-2.112-.75-2.992a5.634 5.634 0 0 0-2.07-2.156c-.85-.528-1.8-.792-2.86-.792a5.54 5.54 0 0 0-2.9.792 5.759 5.759 0 0 0-2.03 2.156c-.5.88-.74 1.877-.74 2.992 0 1.085.24 2.083.74 2.992.5.88 1.18 1.584 2.03 2.112a5.54 5.54 0 0 0 2.9.792zm23.62 6.116c-1.64 0-3.11-.308-4.4-.924-1.26-.616-2.26-1.467-2.99-2.552-.7-1.085-1.05-2.332-1.05-3.74 0-2.23.83-3.945 2.5-5.148 1.7-1.232 4.07-1.848 7.09-1.848 1.82 0 3.58.22 5.28.66V27.7c0-1.173-.38-2.039-1.15-2.596-.73-.587-1.83-.88-3.3-.88-.91 0-1.93.147-3.08.44-1.11.293-2.43.763-3.96 1.408l-2.55-5.236c1.91-.85 3.74-1.481 5.5-1.892 1.79-.44 3.58-.66 5.37-.66 3.23 0 5.73.777 7.52 2.332 1.79 1.525 2.69 3.681 2.69 6.468V42h-7.04v-1.408c-.94.645-1.94 1.115-2.99 1.408-1.03.264-2.18.396-3.44.396zm-1.67-7.348c0 .733.32 1.305.97 1.716.64.41 1.54.616 2.68.616.85 0 1.65-.088 2.38-.264a6.886 6.886 0 0 0 2.07-.836v-2.992c-.68-.176-1.37-.308-2.07-.396-.7-.088-1.42-.132-2.16-.132-1.23 0-2.18.205-2.86.616-.67.381-1.01.939-1.01 1.672zm28.57 7.392c-2.2 0-4.24-.25-6.12-.748-1.87-.528-3.5-1.29-4.88-2.288l3.39-4.796c1.46.88 2.8 1.525 4 1.936 1.2.381 2.39.572 3.57.572 1.17 0 2.09-.161 2.77-.484.7-.352 1.05-.807 1.05-1.364 0-.44-.19-.792-.57-1.056-.38-.293-.98-.499-1.8-.616l-4.62-.704c-2.32-.352-4.09-1.115-5.33-2.288-1.2-1.203-1.8-2.757-1.8-4.664 0-1.584.4-2.933 1.19-4.048.82-1.144 1.98-2.01 3.47-2.596 1.5-.616 3.29-.924 5.37-.924 1.7 0 3.39.235 5.06.704 1.67.47 3.23 1.173 4.67 2.112l-3.39 4.576c-1.26-.733-2.47-1.261-3.61-1.584a11.603 11.603 0 0 0-3.43-.528c-.91 0-1.64.161-2.2.484-.56.293-.84.69-.84 1.188 0 .47.21.85.62 1.144.41.264 1.11.47 2.11.616l4.62.704c2.29.323 4.05 1.085 5.28 2.288 1.26 1.173 1.89 2.67 1.89 4.488 0 1.525-.45 2.875-1.36 4.048-.91 1.173-2.16 2.112-3.74 2.816-1.56.675-3.35 1.012-5.37 1.012zm24.51-.132c-2.79 0-4.9-.616-6.34-1.848-1.4-1.261-2.11-3.11-2.11-5.544V24.664h-4.71v-5.94h4.71V12.74l7.13-1.54v7.524h6.51v5.94h-6.51v8.844c0 1.027.22 1.76.66 2.2.47.41 1.28.616 2.42.616.59 0 1.11-.03 1.58-.088.5-.088 1.04-.22 1.63-.396v5.764c-.64.205-1.47.367-2.46.484-1 .147-1.84.22-2.51.22z" fill="#000"/><defs><filter id="filter0_d_4078_4083" x="1784" y="66" width="150" height="88" filterUnits="userSpaceOnUse" color-interpolation-filters="sRGB"><feFlood flood-opacity="0" result="BackgroundImageFix"/><feColorMatrix in="SourceAlpha" values="0 0 0 0 0 0 0 0 0 0 0 0 0 0 0 0 0 0 127 0" result="hardAlpha"/><feOffset/><feGaussianBlur stdDeviation="15"/><feColorMatrix values="0 0 0 0 0 0 0 0 0 0 0 0 0 0 0 0 0 0 0.08 0"/><feBlend in2="BackgroundImageFix" result="effect1_dropShadow_4078_4083"/><feBlend in="SourceGraphic" in2="effect1_dropShadow_4078_4083" result="shape"/></filter></defs></svg>