<svg fill="none" height="326" viewBox="0 0 163 326" width="163" xmlns="http://www.w3.org/2000/svg"><rect fill="#e9e9e9" height="326" rx="8" width="163"/><g fill="#d3d3d3"><rect height="88" rx="4" width="131" x="16" y="77"/><rect height="16" rx="8" width="131" x="16" y="201"/><rect height="16" rx="8" width="131" x="16" y="245"/><rect height="16" rx="8" width="33" x="16" y="285"/><rect height="8" rx="4" width="65" x="16" y="189"/><rect height="8" rx="4" width="65" x="16" y="233"/><rect height="16" rx="8" width="88" x="16" y="53"/></g><path d="m0 8c0-4.41828 3.58172-8 8-8h147c4.418 0 8 3.58172 8 8v12h-163z" fill="#bdbdbd"/><path d="m.75 19.75h161.5v16.5h-161.5z" fill="#fff" stroke="#29d305" stroke-width="1.5"/></svg>