<svg width="163" height="326" viewBox="0 0 163 326" fill="none" xmlns="http://www.w3.org/2000/svg">
<rect width="163" height="326" rx="8" fill="#E9E9E9"/>
<rect x="16" y="77" width="131" height="88" rx="4" fill="#D3D3D3"/>
<rect x="16" y="201" width="131" height="16" rx="8" fill="#D3D3D3"/>
<rect x="16" y="245" width="131" height="16" rx="8" fill="#D3D3D3"/>
<rect x="16" y="285" width="33" height="16" rx="8" fill="#D3D3D3"/>
<rect x="16" y="189" width="65" height="8" rx="4" fill="#D3D3D3"/>
<rect x="16" y="233" width="65" height="8" rx="4" fill="#D3D3D3"/>
<rect x="16" y="53" width="88" height="16" rx="8" fill="#D3D3D3"/>
<path d="M0 8C0 3.58172 3.58172 0 8 0H155C159.418 0 163 3.58172 163 8V20H0V8Z" fill="#BDBDBD"/>
<rect x="0.75" y="19.75" width="161.5" height="16.5" fill="white" stroke="#29D305" stroke-width="1.5"/>
</svg>
