<svg width="234" height="162" viewBox="0 0 234 162" fill="none" xmlns="http://www.w3.org/2000/svg">
<rect width="233.791" height="162" rx="8" fill="#F4F4F4"/>
<rect x="36.3123" y="45.7632" width="73.6194" height="71.6297" rx="4" fill="#D3D3D3"/>
<rect x="122.367" y="51.7324" width="75.6091" height="7.95885" rx="3.97943" fill="#D3D3D3"/>
<rect x="122.367" y="73.6196" width="75.6091" height="7.95885" rx="3.97943" fill="#D3D3D3"/>
<rect x="122.367" y="95.5063" width="75.6091" height="7.95885" rx="3.97943" fill="#D3D3D3"/>
<rect x="122.367" y="115.403" width="21.3894" height="7.95885" rx="3.97943" fill="#D3D3D3"/>
<rect x="122.367" y="45.7632" width="44.2711" height="3.97943" rx="1.98971" fill="#D3D3D3"/>
<rect x="36.3123" y="121.373" width="44.2711" height="1.98971" rx="0.994856" fill="#D3D3D3"/>
<rect x="122.367" y="67.6504" width="44.2711" height="3.97943" rx="1.98971" fill="#D3D3D3"/>
<rect x="122.367" y="89.5371" width="44.2711" height="3.97943" rx="1.98971" fill="#D3D3D3"/>
<rect x="36.3121" y="31.8354" width="50.7377" height="7.95885" rx="3.97943" fill="#D3D3D3"/>
<path d="M0 8C0 3.58172 3.58172 0 8 0H225.791C230.21 0 233.791 3.58172 233.791 8V9.94857H0V8Z" fill="#D3D3D3"/>
<circle cx="1.98971" cy="1.98971" r="1.98971" transform="matrix(1 0 0 -1 7.95874 6.96387)" fill="#BDBDBD"/>
<circle cx="1.98971" cy="1.98971" r="1.98971" transform="matrix(1 0 0 -1 14.4254 6.96387)" fill="#BDBDBD"/>
<circle cx="1.98971" cy="1.98971" r="1.98971" transform="matrix(1 0 0 -1 20.8918 6.96387)" fill="#BDBDBD"/>
<rect x="0.75" y="153.75" width="232.291" height="7.45371" stroke="#29D305" stroke-width="1.5"/>
</svg>
