<svg width="82" height="162" viewBox="0 0 82 162" fill="none" xmlns="http://www.w3.org/2000/svg">
<rect x="0.75" width="81.0808" height="162" rx="8" fill="#F4F4F4"/>
<rect x="8.70874" y="38.2637" width="65.1631" height="43.7301" rx="4" fill="#D3D3D3"/>
<rect x="8.70874" y="99.8833" width="65.1631" height="7.95092" rx="3.97546" fill="#D3D3D3"/>
<rect x="8.70874" y="121.749" width="65.1631" height="7.95092" rx="3.97546" fill="#D3D3D3"/>
<rect x="8.70874" y="141.626" width="16.4151" height="7.95092" rx="3.97546" fill="#D3D3D3"/>
<rect x="8.70874" y="93.9199" width="32.3328" height="3.97546" rx="1.98773" fill="#D3D3D3"/>
<rect x="8.70874" y="115.785" width="32.3328" height="3.97546" rx="1.98773" fill="#D3D3D3"/>
<rect x="8.70874" y="26.3374" width="43.7737" height="7.95092" rx="3.97546" fill="#D3D3D3"/>
<path d="M0.75 8C0.75 3.58172 4.33172 0 8.75 0H73.8308C78.2491 0 81.8308 3.58172 81.8308 8V9.93865H0.75V8Z" fill="#D3D3D3"/>
<rect x="1.5" y="153.598" width="79.5808" height="7.44479" stroke="#29D305" stroke-width="1.5"/>
</svg>
