<svg width="535" height="326" viewBox="0 0 535 326" fill="none" xmlns="http://www.w3.org/2000/svg">
<rect width="521" height="326" rx="8" fill="#E9E9E9"/>
<path d="M0 8C0 3.58172 3.58172 0 8 0H513C517.418 0 521 3.58172 521 8V20H0V8Z" fill="#BDBDBD"/>
<circle r="4" transform="matrix(1 0 0 -1 20 10)" fill="#929292"/>
<circle r="4" transform="matrix(1 0 0 -1 33 10)" fill="#929292"/>
<circle r="4" transform="matrix(1 0 0 -1 46 10)" fill="#929292"/>
<g filter="url(#filter0_d)">
<rect x="415" y="36" width="90" height="18" rx="8" fill="#F4F4F4"/>
<rect x="415.5" y="36.5" width="89" height="17" rx="7.5" stroke="#29D305"/>
</g>
<rect x="98" y="92" width="148" height="144" rx="4" fill="#D3D3D3"/>
<rect x="271" y="104" width="152" height="16" rx="8" fill="#D3D3D3"/>
<rect x="271" y="148" width="152" height="16" rx="8" fill="#D3D3D3"/>
<rect x="271" y="192" width="152" height="16" rx="8" fill="#D3D3D3"/>
<rect x="271" y="232" width="43" height="16" rx="8" fill="#D3D3D3"/>
<rect x="271" y="92" width="89" height="8" rx="4" fill="#D3D3D3"/>
<rect x="98" y="244" width="89" height="4" rx="2" fill="#D3D3D3"/>
<rect x="271" y="136" width="89" height="8" rx="4" fill="#D3D3D3"/>
<rect x="271" y="180" width="89" height="8" rx="4" fill="#D3D3D3"/>
<rect x="98" y="64" width="102" height="16" rx="8" fill="#D3D3D3"/>
<defs>
<filter id="filter0_d" x="385" y="6" width="150" height="78" filterUnits="userSpaceOnUse" color-interpolation-filters="sRGB">
<feFlood flood-opacity="0" result="BackgroundImageFix"/>
<feColorMatrix in="SourceAlpha" type="matrix" values="0 0 0 0 0 0 0 0 0 0 0 0 0 0 0 0 0 0 127 0"/>
<feOffset/>
<feGaussianBlur stdDeviation="15"/>
<feColorMatrix type="matrix" values="0 0 0 0 0 0 0 0 0 0 0 0 0 0 0 0 0 0 0.08 0"/>
<feBlend mode="normal" in2="BackgroundImageFix" result="effect1_dropShadow"/>
<feBlend mode="normal" in="SourceGraphic" in2="effect1_dropShadow" result="shape"/>
</filter>
</defs>
</svg>
