<svg fill="none" height="326" viewBox="0 0 521 326" width="521" xmlns="http://www.w3.org/2000/svg"><rect fill="#e9e9e9" height="326" rx="8" width="521"/><g fill="#d3d3d3"><rect height="144" rx="4" width="148" x="98" y="92"/><rect height="16" rx="8" width="152" x="271" y="104"/><rect height="16" rx="8" width="152" x="271" y="148"/><rect height="16" rx="8" width="152" x="271" y="192"/><rect height="16" rx="8" width="43" x="271" y="272"/><rect height="8" rx="4" width="89" x="271" y="92"/><rect height="4" rx="2" width="89" x="98" y="244"/><rect height="8" rx="4" width="89" x="271" y="136"/><rect height="8" rx="4" width="89" x="271" y="180"/></g><path d="m0 8c0-4.41828 3.58172-8 8-8h505c4.418 0 8 3.58172 8 8v12h-521z" fill="#bdbdbd"/><circle fill="#929292" r="4" transform="matrix(1 0 0 -1 20 10)"/><circle fill="#929292" r="4" transform="matrix(1 0 0 -1 33 10)"/><circle fill="#929292" r="4" transform="matrix(1 0 0 -1 46 10)"/><rect fill="#fff" height="30.5" rx="3.25" stroke="#29d305" stroke-width="1.5" width="95.5" x="271.75" y="224.75"/><rect fill="#d3d3d3" height="16" rx="8" width="102" x="98" y="64"/></svg>