<svg width="521" height="326" viewBox="0 0 521 326" fill="none" xmlns="http://www.w3.org/2000/svg">
<rect width="521" height="326" rx="8" fill="#E9E9E9"/>
<rect x="98" y="92" width="148" height="144" rx="4" fill="#D3D3D3"/>
<rect x="271" y="104" width="152" height="16" rx="8" fill="#D3D3D3"/>
<rect x="271" y="148" width="152" height="16" rx="8" fill="#D3D3D3"/>
<rect x="271" y="192" width="152" height="16" rx="8" fill="#D3D3D3"/>
<rect x="271" y="272" width="43" height="16" rx="8" fill="#D3D3D3"/>
<rect x="271" y="92" width="89" height="8" rx="4" fill="#D3D3D3"/>
<rect x="98" y="244" width="89" height="4" rx="2" fill="#D3D3D3"/>
<rect x="271" y="136" width="89" height="8" rx="4" fill="#D3D3D3"/>
<rect x="271" y="180" width="89" height="8" rx="4" fill="#D3D3D3"/>
<path d="M0 8C0 3.58172 3.58172 0 8 0H513C517.418 0 521 3.58172 521 8V20H0V8Z" fill="#BDBDBD"/>
<circle r="4" transform="matrix(1 0 0 -1 20 10)" fill="#929292"/>
<circle r="4" transform="matrix(1 0 0 -1 33 10)" fill="#929292"/>
<circle r="4" transform="matrix(1 0 0 -1 46 10)" fill="#929292"/>
<rect x="271.75" y="224.75" width="95.5" height="30.5" rx="3.25" fill="white" stroke="#29D305" stroke-width="1.5"/>
<rect x="98" y="64" width="102" height="16" rx="8" fill="#D3D3D3"/>
</svg>
