<svg width="83" height="162" viewBox="0 0 83 162" fill="none" xmlns="http://www.w3.org/2000/svg">
<rect x="0.881836" width="81.1347" height="162" rx="8" fill="#F4F4F4"/>
<rect x="8.84595" y="29.8154" width="65.2064" height="43.7301" rx="4" fill="#D3D3D3"/>
<rect x="8.84595" y="91.4355" width="65.2064" height="7.95092" rx="3.97546" fill="#D3D3D3"/>
<rect x="8.84595" y="113.3" width="65.2064" height="7.95092" rx="3.97546" fill="#D3D3D3"/>
<rect x="8.84595" y="148.086" width="16.4261" height="7.95092" rx="3.97546" fill="#D3D3D3"/>
<rect x="8.84595" y="85.4727" width="32.3543" height="3.97546" rx="1.98773" fill="#D3D3D3"/>
<rect x="8.84595" y="107.337" width="32.3543" height="3.97546" rx="1.98773" fill="#D3D3D3"/>
<rect x="8.84595" y="17.8896" width="43.8028" height="7.95092" rx="3.97546" fill="#D3D3D3"/>
<path d="M0.881836 8C0.881836 3.58172 4.46356 0 8.88184 0H74.0166C78.4349 0 82.0166 3.58172 82.0166 8V9.93865H0.881836V8Z" fill="#D3D3D3"/>
<rect x="9.59595" y="129.953" width="63.7064" height="9.43252" rx="3.25" stroke="#29D305" stroke-width="1.5"/>
</svg>
