<svg fill="none" height="326" viewBox="0 0 163 326" width="163" xmlns="http://www.w3.org/2000/svg"><rect fill="#e9e9e9" height="326" rx="8" width="163"/><g fill="#d3d3d3"><rect height="88" rx="4" width="131" x="16" y="60"/><rect height="16" rx="8" width="131" x="16" y="184"/><rect height="16" rx="8" width="131" x="16" y="228"/><rect height="16" rx="8" width="33" x="16" y="298"/><rect height="8" rx="4" width="65" x="16" y="172"/><rect height="8" rx="4" width="65" x="16" y="216"/><rect height="16" rx="8" width="88" x="16" y="36"/></g><path d="m0 8c0-4.41828 3.58172-8 8-8h147c4.418 0 8 3.58172 8 8v12h-163z" fill="#bdbdbd"/><rect fill="#fff" height="20.5" rx="3.25" stroke="#29d305" stroke-width="1.5" width="129.5" x="16.75" y="260.75"/></svg>