<svg width="235" height="162" viewBox="0 0 235 162" fill="none" xmlns="http://www.w3.org/2000/svg">
<rect x="0.971191" width="233.947" height="162" rx="8" fill="#F4F4F4"/>
<path d="M0.971191 8C0.971191 3.58172 4.55291 0 8.97119 0H226.918C231.336 0 234.918 3.58172 234.918 8V9.93865H0.971191V8Z" fill="#D3D3D3"/>
<ellipse cx="1.99104" cy="1.98773" rx="1.99104" ry="1.98773" transform="matrix(1 0 0 -1 8.9353 6.95703)" fill="#BDBDBD"/>
<ellipse cx="1.99104" cy="1.98773" rx="1.99104" ry="1.98773" transform="matrix(1 0 0 -1 15.4062 6.95703)" fill="#BDBDBD"/>
<ellipse cx="1.99104" cy="1.98773" rx="1.99104" ry="1.98773" transform="matrix(1 0 0 -1 21.877 6.95703)" fill="#BDBDBD"/>
<rect x="37.3076" y="45.7178" width="73.6683" height="71.5583" rx="4" fill="#D3D3D3"/>
<rect x="123.42" y="51.6812" width="75.6594" height="7.95092" rx="3.97546" fill="#D3D3D3"/>
<rect x="123.42" y="73.5459" width="75.6594" height="7.95092" rx="3.97546" fill="#D3D3D3"/>
<rect x="123.42" y="95.4111" width="75.6594" height="7.95092" rx="3.97546" fill="#D3D3D3"/>
<rect x="123.42" y="135.166" width="21.4036" height="7.95092" rx="3.97546" fill="#D3D3D3"/>
<rect x="123.42" y="45.7178" width="44.3006" height="3.97546" rx="1.98773" fill="#D3D3D3"/>
<rect x="37.3076" y="121.251" width="44.3006" height="1.98773" rx="0.993865" fill="#D3D3D3"/>
<rect x="123.42" y="67.583" width="44.3006" height="3.97546" rx="1.98773" fill="#D3D3D3"/>
<rect x="123.42" y="89.4478" width="44.3006" height="3.97546" rx="1.98773" fill="#D3D3D3"/>
<rect x="124.17" y="112.063" width="46.7826" height="14.4018" rx="3.25" stroke="#29D305" stroke-width="1.5"/>
<rect x="37.3076" y="31.8037" width="50.7714" height="7.95092" rx="3.97546" fill="#D3D3D3"/>
</svg>
