<svg fill="none" height="326" viewBox="0 0 163 326" width="163" xmlns="http://www.w3.org/2000/svg"><rect fill="#e9e9e9" height="326" rx="8" width="163"/><g fill="#d3d3d3"><rect height="88" rx="4" width="131" x="16" y="68"/><rect height="16" rx="8" width="131" x="16" y="192"/><rect height="16" rx="8" width="131" x="16" y="236"/><rect height="16" rx="8" width="33" x="16" y="276"/><rect height="8" rx="4" width="65" x="16" y="180"/><rect height="8" rx="4" width="65" x="16" y="224"/><rect height="16" rx="8" width="88" x="16" y="44"/></g><path d="m0 8c0-4.41828 3.58172-8 8-8h147c4.418 0 8 3.58172 8 8v12h-163z" fill="#bdbdbd"/><rect fill="#fff" height="26.5" rx="3.25" stroke="#29d305" stroke-width="1.5" width="129.5" x="16.75" y="282.75"/></svg>