<svg fill="none" height="326" viewBox="0 0 535 326" width="535" xmlns="http://www.w3.org/2000/svg" xmlns:xlink="http://www.w3.org/1999/xlink"><filter id="a" color-interpolation-filters="sRGB" filterUnits="userSpaceOnUse" height="88" width="150" x="385" y="6"><feFlood flood-opacity="0" result="BackgroundImageFix"/><feColorMatrix in="SourceAlpha" type="matrix" values="0 0 0 0 0 0 0 0 0 0 0 0 0 0 0 0 0 0 127 0"/><feOffset/><feGaussianBlur stdDeviation="15"/><feColorMatrix type="matrix" values="0 0 0 0 0 0 0 0 0 0 0 0 0 0 0 0 0 0 0.08 0"/><feBlend in2="BackgroundImageFix" mode="normal" result="effect1_dropShadow"/><feBlend in="SourceGraphic" in2="effect1_dropShadow" mode="normal" result="shape"/></filter><rect fill="#e9e9e9" height="326" rx="8" width="521"/><path d="m0 8c0-4.41828 3.58172-8 8-8h505c4.418 0 8 3.58172 8 8v12h-521z" fill="#bdbdbd"/><circle fill="#929292" r="4" transform="matrix(1 0 0 -1 20 10)"/><circle fill="#929292" r="4" transform="matrix(1 0 0 -1 33 10)"/><circle fill="#929292" r="4" transform="matrix(1 0 0 -1 46 10)"/><g filter="url(#a)"><rect fill="#fff" height="28" rx="4" width="90" x="415" y="36"/><rect height="26.5" rx="3.25" stroke="#29d305" stroke-width="1.5" width="88.5" x="415.75" y="36.75"/></g><g fill="#d3d3d3"><rect height="144" rx="4" width="148" x="98" y="92"/><rect height="16" rx="8" width="152" x="271" y="104"/><rect height="16" rx="8" width="152" x="271" y="148"/><rect height="16" rx="8" width="152" x="271" y="192"/><rect height="16" rx="8" width="43" x="271" y="232"/><rect height="8" rx="4" width="89" x="271" y="92"/><rect height="4" rx="2" width="89" x="98" y="244"/><rect height="8" rx="4" width="89" x="271" y="136"/><rect height="8" rx="4" width="89" x="271" y="180"/><rect height="16" rx="8" width="102" x="98" y="64"/></g></svg>