<svg width="40" height="40" viewBox="0 0 40 40" fill="none" xmlns="http://www.w3.org/2000/svg">
<path fill-rule="evenodd" clip-rule="evenodd" d="M4 4.2858C3.26362 4.2858 2.66667 4.87209 2.66667 5.59532V34.4048C2.66667 35.1281 3.26362 35.7144 4 35.7144H36C36.7364 35.7144 37.3333 35.1281 37.3333 34.4048V5.59532C37.3333 4.87209 36.7364 4.2858 36 4.2858H4ZM0 5.59532C0 3.42563 1.79086 1.66675 4 1.66675H36C38.2091 1.66675 40 3.42563 40 5.59532V34.4048C40 36.5745 38.2091 38.3334 36 38.3334H4C1.79086 38.3334 0 36.5745 0 34.4048V5.59532Z" fill="black"/>
<path fill-rule="evenodd" clip-rule="evenodd" d="M7.38407 10.7154C7.3582 10.75 7.3231 10.8218 7.3231 10.9298V20.7483C7.3231 20.8563 7.3582 20.9282 7.38407 20.9627H15.6833C15.7092 20.9282 15.7443 20.8563 15.7443 20.7483L15.6833 10.9298C15.6833 10.8218 15.6482 10.75 15.6224 10.7154H7.38407ZM5 11.2871C5 9.94113 5.99743 8.50024 7.63742 8.50024H15.5497C17.1897 8.50024 18.1871 9.94113 18.1871 11.2871V20.2908C18.1871 21.6368 17.1897 23.0777 15.5497 23.0777H7.63742C5.99743 23.0777 5 21.6368 5 20.2908V11.2871Z" fill="black"/>
<path fill-rule="evenodd" clip-rule="evenodd" d="M5 30.2853C5 29.6144 5.59033 29.0706 6.31853 29.0706H16.8686C17.5968 29.0706 18.1871 29.6144 18.1871 30.2853C18.1871 30.9563 17.5968 31.5001 16.8686 31.5001H6.31853C5.59033 31.5001 5 30.9563 5 30.2853Z" fill="#29D305"/>
<path fill-rule="evenodd" clip-rule="evenodd" d="M24.287 10.6272C24.2529 10.6767 24.2077 10.7789 24.2077 10.9296V28.4549C24.2077 28.6056 24.2529 28.7078 24.287 28.7573H32.3641C32.3983 28.7078 32.4435 28.6056 32.4435 28.4549V10.9296C32.4435 10.7789 32.3983 10.6767 32.3641 10.6272H24.287ZM21.8145 11.5235C21.8145 10.1217 22.7602 8.5 24.4519 8.5H32.3641C34.0558 8.5 35.0015 10.1217 35.0015 11.5235V28.1526C35.0015 29.5544 34.0558 31.1761 32.3641 31.1761H24.4519C22.7602 31.1761 21.8145 29.5544 21.8145 28.1526V11.5235Z" fill="black"/>
<path fill-rule="evenodd" clip-rule="evenodd" d="M21.8145 19.4331C21.8145 18.7621 22.4049 18.2183 23.1332 18.2183H33.6828C34.4111 18.2183 35.0015 18.7621 35.0015 19.4331C35.0015 20.104 34.4111 20.6478 33.6828 20.6478H23.1332C22.4049 20.6478 21.8145 20.104 21.8145 19.4331Z" fill="black"/>
</svg>
