<svg width="32" height="32" viewBox="0 0 32 32" fill="none" xmlns="http://www.w3.org/2000/svg">
<g clip-path="url(#clip0)">
<path fill-rule="evenodd" clip-rule="evenodd" d="M21.6385 3.18222C18.8801 1.97067 15.8041 1.68221 12.8685 2.35976C9.93289 3.03732 7.29451 4.64468 5.34606 6.94262C3.3976 9.24056 2.24323 12.1062 2.05475 15.1131C1.86627 18.12 2.65375 21.1074 4.3 23.6307C5.94624 26.1539 8.36325 28.0782 11.1913 29.117C14.0193 30.1559 17.1072 30.2538 19.9954 29.3962C22.8835 28.5386 25.4176 26.7713 27.2204 24.3574C29.0232 21.9435 29.9983 19.012 30.0007 15.9992C30.0007 15.8128 29.9969 15.6279 29.9895 15.4445C29.9671 14.8927 30.3963 14.4272 30.9482 14.4048C31.5 14.3824 31.9655 14.8116 31.9879 15.3635C31.9964 15.5745 32.0007 15.7866 32.0007 16V16.0008C31.998 19.4444 30.8834 22.7951 28.8228 25.5541C26.7622 28.3132 23.8658 30.3332 20.5647 31.3134C17.2635 32.2937 13.7341 32.1818 10.5017 30.9944C7.26924 29.807 4.50662 27.6076 2.62497 24.7235C0.743323 21.8394 -0.156764 18.4249 0.0586695 14.988C0.274103 11.5511 1.59354 8.2757 3.82061 5.64917C6.04768 3.02264 9.06333 1.18544 12.4187 0.410998C15.7741 -0.363447 19.2899 -0.0337359 22.4428 1.35106C22.9485 1.57316 23.1784 2.16312 22.9563 2.66878C22.7342 3.17444 22.1442 3.40432 21.6385 3.18222Z" fill="black"/>
<path fill-rule="evenodd" clip-rule="evenodd" d="M10.7226 19.4978C12.3062 18.5151 14.1328 17.9944 15.9966 17.9944C17.8603 17.9944 19.687 18.5151 21.2706 19.4978C22.8542 20.4804 24.1318 21.886 24.9593 23.5559C25.2045 24.0508 25.0021 24.6508 24.5072 24.896C24.0124 25.1412 23.4124 24.9388 23.1672 24.4439C22.5052 23.1079 21.483 21.9833 20.2161 21.1972C18.9491 20.411 17.4877 19.9944 15.9966 19.9944C14.5055 19.9944 13.0441 20.411 11.7771 21.1972C10.5101 21.9833 9.48797 23.1079 8.82594 24.4439C8.58073 24.9388 7.98078 25.1412 7.48592 24.896C6.99105 24.6508 6.78867 24.0508 7.03388 23.5559C7.86136 21.886 9.13894 20.4804 10.7226 19.4978Z" fill="black"/>
<path fill-rule="evenodd" clip-rule="evenodd" d="M19.5191 11.7336C20.1946 11.2558 21.0016 10.9993 21.8289 10.9993C22.6563 10.9993 23.4633 11.2558 24.1387 11.7336C24.8142 12.2113 25.3249 12.8867 25.6005 13.6668C25.7845 14.1876 25.5115 14.7589 24.9907 14.9428C24.47 15.1268 23.8987 14.8538 23.7147 14.3331C23.5769 13.943 23.3216 13.6053 22.9838 13.3664C22.6461 13.1275 22.2426 12.9993 21.8289 12.9993C21.4153 12.9993 21.0118 13.1275 20.674 13.3664C20.3363 13.6053 20.081 13.943 19.9432 14.3331C19.7592 14.8538 19.1879 15.1268 18.6672 14.9428C18.1464 14.7589 17.8734 14.1876 18.0574 13.6668C18.333 12.8867 18.8437 12.2113 19.5191 11.7336Z" fill="black"/>
<path fill-rule="evenodd" clip-rule="evenodd" d="M7.8629 11.7336C8.53836 11.2558 9.34535 10.9993 10.1727 10.9993C11 10.9993 11.807 11.2558 12.4825 11.7336C13.1579 12.2113 13.6687 12.8867 13.9442 13.6668C14.1282 14.1876 13.8552 14.7589 13.3345 14.9428C12.8137 15.1268 12.2424 14.8538 12.0585 14.3331C11.9207 13.943 11.6653 13.6053 11.3276 13.3664C10.9899 13.1275 10.5864 12.9993 10.1727 12.9993C9.75902 12.9993 9.35553 13.1275 9.01779 13.3664C8.68006 13.6053 8.42471 13.943 8.28691 14.3331C8.10294 14.8538 7.53166 15.1268 7.01092 14.9428C6.49017 14.7589 6.21716 14.1876 6.40113 13.6668C6.67673 12.8867 7.18743 12.2113 7.8629 11.7336Z" fill="black"/>
<path fill-rule="evenodd" clip-rule="evenodd" d="M28.8493 0.472006L28.0001 1L27.1509 0.472006C27.3333 0.17848 27.6545 0 28.0001 0C28.3457 0 28.6669 0.17848 28.8493 0.472006ZM32 7.6403C31.9934 6.98028 31.7425 6.19159 31.4613 5.48049C31.162 4.72363 30.7695 3.91349 30.3866 3.18001C30.002 2.44352 29.6187 1.76829 29.3322 1.27808C29.1887 1.03257 29.0688 0.832476 28.9845 0.693158C28.9424 0.623478 28.909 0.568938 28.886 0.531455L28.8594 0.48824L28.8522 0.476662L28.8493 0.472006C28.8493 0.471899 28.8493 0.472006 28.0001 1C27.1509 0.472006 27.1509 0.471899 27.1509 0.472006L27.148 0.476662L27.1408 0.48824L27.1142 0.531455C27.0912 0.568938 27.0579 0.623478 27.0157 0.693158C26.9314 0.832476 26.8115 1.03257 26.668 1.27808C26.3815 1.76829 25.9982 2.44352 25.6136 3.18001C25.2307 3.91349 24.8382 4.72363 24.5389 5.48049C24.2577 6.19159 24.0068 6.98028 24.0002 7.6403C23.9515 8.73542 24.335 9.80624 25.0688 10.6215C25.8078 11.4427 26.842 11.9378 27.9452 11.9985C27.9818 12.0005 28.0184 12.0005 28.0551 11.9985C29.1582 11.9378 30.1924 11.4427 30.9314 10.6215C31.6652 9.80624 32.0487 8.73542 32 7.6403ZM28.0001 2.9755C27.8068 3.31927 27.5965 3.70358 27.3866 4.10565C27.0195 4.80868 26.662 5.55012 26.3988 6.21588C26.1212 6.91792 26.0001 7.41131 26.0001 7.66667C26.0001 7.6834 25.9997 7.70013 25.9988 7.71684C25.9699 8.29212 26.17 8.85544 26.5554 9.28359C26.9284 9.69807 27.4457 9.95321 28.0001 9.99779C28.5546 9.95321 29.0718 9.69807 29.4448 9.28359C29.8302 8.85544 30.0303 8.29212 30.0014 7.71684C30.0005 7.70013 30.0001 7.6834 30.0001 7.66667C30.0001 7.41131 29.879 6.91792 29.6014 6.21588C29.3382 5.55012 28.9807 4.80868 28.6136 4.10565C28.4037 3.70358 28.1934 3.31927 28.0001 2.9755Z" fill="#FF0000"/>
</g>
<defs>
<clipPath id="clip0">
<rect width="32" height="32" fill="white"/>
</clipPath>
</defs>
</svg>
