<svg width="204" height="204" viewBox="0 0 204 204" fill="none" xmlns="http://www.w3.org/2000/svg">
<path d="M204 102C204 158.333 158.333 204 102 204C45.667 204 0 158.333 0 102C0 45.667 45.667 0 102 0C158.333 0 204 45.667 204 102Z" fill="#F4F4F4"/>
<path d="M160.906 67.2574C162.859 68.9475 163.956 71.2397 163.956 73.6299V86.0225L164 151.454L48.8005 152C48.8005 152 39 152 39 143.237V61.012C39 58.6219 40.0971 56.3296 42.0499 54.6396C44.0027 52.9495 46.6513 52 49.413 52H81.8168C84.5785 52 87.2271 52.9495 89.1799 54.6396C91.1327 56.3296 92.2298 58.6219 92.2298 61.012V64.6178H153.543C156.305 64.6178 158.954 65.5673 160.906 67.2574Z" fill="white"/>
<path fill-rule="evenodd" clip-rule="evenodd" d="M57.5 86C57.5 84.6193 58.6193 83.5 60 83.5H134C135.381 83.5 136.5 84.6193 136.5 86C136.5 87.3807 135.381 88.5 134 88.5H60C58.6193 88.5 57.5 87.3807 57.5 86Z" fill="#E9E9E9"/>
<path fill-rule="evenodd" clip-rule="evenodd" d="M57.4175 107C57.4175 105.619 58.5368 104.5 59.9175 104.5H92.4531C93.8338 104.5 94.9531 105.619 94.9531 107C94.9531 108.38 93.8338 109.5 92.4531 109.5H59.9175C58.5368 109.5 57.4175 108.38 57.4175 107Z" fill="#E9E9E9"/>
<path fill-rule="evenodd" clip-rule="evenodd" d="M57.4175 127.917C57.4175 126.536 58.5368 125.417 59.9175 125.417H92.4531C93.8338 125.417 94.9531 126.536 94.9531 127.917C94.9531 129.298 93.8338 130.417 92.4531 130.417H59.9175C58.5368 130.417 57.4175 129.298 57.4175 127.917Z" fill="#E9E9E9"/>
<path d="M129.98 117.06L128.98 117.74C128.207 118.247 127.66 118.807 127.34 119.42C127.047 120.007 126.913 120.793 126.94 121.78H121.54C121.433 119.94 121.593 118.5 122.02 117.46C122.447 116.42 123.287 115.433 124.54 114.5L126.7 112.9C127.367 112.393 127.86 111.913 128.18 111.46C128.527 111.007 128.7 110.567 128.7 110.14C128.7 109.367 128.353 108.727 127.66 108.22C126.967 107.687 126.087 107.42 125.02 107.42C123.873 107.42 122.82 107.727 121.86 108.34C120.927 108.953 120.26 109.767 119.86 110.78L114.62 108.82C115.367 106.767 116.7 105.127 118.62 103.9C120.567 102.673 122.78 102.06 125.26 102.06C126.647 102.06 127.94 102.26 129.14 102.66C130.34 103.033 131.367 103.567 132.22 104.26C133.1 104.953 133.78 105.767 134.26 106.7C134.767 107.633 135.02 108.647 135.02 109.74C135.02 111.207 134.647 112.473 133.9 113.54C133.18 114.58 131.873 115.753 129.98 117.06ZM124.26 123.5C125.273 123.5 126.14 123.873 126.86 124.62C127.607 125.34 127.98 126.207 127.98 127.22C127.98 128.233 127.607 129.113 126.86 129.86C126.14 130.58 125.273 130.94 124.26 130.94C123.247 130.94 122.367 130.58 121.62 129.86C120.9 129.113 120.54 128.233 120.54 127.22C120.54 126.207 120.9 125.34 121.62 124.62C122.367 123.873 123.247 123.5 124.26 123.5Z" fill="#29D305"/>
<path fill-rule="evenodd" clip-rule="evenodd" d="M107.754 74.3119C84.2774 84.2894 73.3339 111.409 83.3114 134.886C93.2888 158.363 120.409 169.307 143.886 159.329C167.363 149.352 178.306 122.232 168.329 98.7548C158.351 75.2779 131.231 64.3345 107.754 74.3119ZM75.9487 138.015C64.2431 110.472 77.082 78.6548 104.625 66.9492C132.168 55.2437 163.986 68.0826 175.691 95.6258C187.397 123.169 174.558 154.986 147.015 166.692C119.472 178.397 87.6543 165.558 75.9487 138.015Z" fill="black"/>
<path fill-rule="evenodd" clip-rule="evenodd" d="M158.172 151.172C159.734 149.609 162.266 149.609 163.828 151.172L199.828 187.172C201.391 188.734 201.391 191.266 199.828 192.828C198.266 194.391 195.734 194.391 194.172 192.828L158.172 156.828C156.609 155.266 156.609 152.734 158.172 151.172Z" fill="black"/>
</svg>
