<svg width="385" height="137" viewBox="0 0 385 137" fill="none" xmlns="http://www.w3.org/2000/svg">
<path d="M163.466 60.2968C164.388 59.7233 165.6 60.006 166.174 60.9283C166.748 61.8506 166.465 63.0632 165.542 63.6367L152.958 71.4626L150.881 68.1227L163.466 60.2968Z" fill="white"/>
<path d="M173.89 77.0766C174.813 76.5031 176.025 76.7858 176.599 77.7081C177.172 78.6304 176.89 79.843 175.967 80.4165L163.383 88.2424L161.306 84.9025L173.89 77.0766Z" fill="white"/>
<path d="M114 104.837C100.5 110.837 99.2258 119.54 87 121.337C73.4357 123.331 67.2027 111.288 53.5 110.837C31.0494 110.098 23.0958 138.381 1 134.337" stroke="white" stroke-width="3"/>
<rect x="107.305" y="105.639" width="6.74398" height="5.11509" rx="0.5" transform="rotate(-31.9736 107.305 105.639)" fill="white" stroke="white"/>
<path fill-rule="evenodd" clip-rule="evenodd" d="M141.718 62.7679C143.161 61.8706 144.901 61.5833 146.556 61.9691C148.21 62.3549 149.644 63.3822 150.541 64.8251L166.193 89.9945C167.09 91.4373 167.378 93.1775 166.992 94.8322C166.606 96.4869 165.579 97.9205 164.136 98.8178L151.551 106.644C146.771 109.616 141.005 110.568 135.523 109.29C130.04 108.012 125.29 104.608 122.317 99.8276C119.344 95.0471 118.392 89.2815 119.671 83.799C120.949 78.3166 124.353 73.5665 129.133 70.5938L141.718 62.7679ZM145.89 64.8255C144.993 64.6163 144.049 64.7721 143.267 65.2586L130.682 73.0844C126.562 75.6465 123.629 79.7402 122.527 84.465C121.425 89.1899 122.246 94.1588 124.808 98.2788C127.37 102.399 131.464 105.332 136.189 106.434C140.913 107.535 145.882 106.715 150.002 104.153L162.587 96.3271C163.369 95.8406 163.926 95.0633 164.135 94.1662C164.345 93.2691 164.189 92.3256 163.702 91.5433L148.051 66.3739C147.564 65.5917 146.787 65.0347 145.89 64.8255Z" fill="white"/>
<path d="M119.814 88.0197C120.502 87.592 121.406 87.8028 121.834 88.4906C122.261 89.1784 122.051 90.0827 121.363 90.5104L114.931 94.5103C114.148 94.9967 113.591 95.774 113.382 96.6712C113.173 97.5683 113.329 98.5118 113.815 99.294L119.032 107.684C119.519 108.466 120.296 109.023 121.193 109.232C122.09 109.441 123.034 109.286 123.816 108.799L130.248 104.799C130.936 104.372 131.84 104.582 132.268 105.27C132.696 105.958 132.485 106.862 131.797 107.29L125.365 111.29C123.922 112.187 122.182 112.474 120.527 112.089C118.873 111.703 117.439 110.676 116.542 109.233L111.325 100.843C110.427 99.4 110.14 97.6599 110.526 96.0052C110.912 94.3505 111.939 92.9168 113.382 92.0196L119.814 88.0197Z" fill="white"/>
<path fill-rule="evenodd" clip-rule="evenodd" d="M238.603 61.9691C240.258 61.5833 241.998 61.8706 243.441 62.7679L256.026 70.5938C260.806 73.5665 264.21 78.3166 265.488 83.799C266.767 89.2815 265.815 95.0471 262.842 99.8276C259.869 104.608 255.119 108.012 249.637 109.29C244.154 110.568 238.389 109.616 233.608 106.644L221.023 98.8178C219.58 97.9205 218.553 96.4869 218.167 94.8322C217.782 93.1775 218.069 91.4373 218.966 89.9945L234.618 64.8251C235.515 63.3822 236.949 62.3549 238.603 61.9691ZM241.892 65.2586C241.11 64.7721 240.167 64.6163 239.269 64.8255C238.372 65.0347 237.595 65.5917 237.109 66.3739L221.457 91.5433C220.97 92.3256 220.815 93.2691 221.024 94.1662C221.233 95.0633 221.79 95.8406 222.572 96.3271L235.157 104.153C239.277 106.715 244.246 107.535 248.971 106.434C253.695 105.332 257.789 102.399 260.351 98.2788C262.913 94.1588 263.734 89.1899 262.632 84.465C261.53 79.7402 258.597 75.6465 254.477 73.0844L241.892 65.2586Z" fill="white"/>
<path d="M265.346 88.0197C264.658 87.592 263.753 87.8028 263.326 88.4906C262.898 89.1784 263.109 90.0827 263.797 90.5104L270.229 94.5103C271.011 94.9967 271.568 95.774 271.777 96.6712C271.986 97.5683 271.831 98.5118 271.344 99.294L266.127 107.684C265.641 108.466 264.863 109.023 263.966 109.232C263.069 109.441 262.125 109.286 261.343 108.799L254.911 104.799C254.223 104.372 253.319 104.582 252.891 105.27C252.464 105.958 252.674 106.862 253.362 107.29L259.794 111.29C261.237 112.187 262.977 112.474 264.632 112.089C266.287 111.703 267.72 110.676 268.618 109.233L273.835 100.843C274.732 99.4 275.019 97.6599 274.634 96.0052C274.248 94.3505 273.221 92.9168 271.778 92.0196L265.346 88.0197Z" fill="white"/>
<path d="M241.339 76.5876C241.757 75.894 241.533 74.9927 240.84 74.5746C240.146 74.1564 239.245 74.3797 238.827 75.0734L231.176 87.765C230.757 88.4587 230.981 89.36 231.674 89.7781C232.368 90.1963 233.269 89.973 233.687 89.2793L241.339 76.5876Z" fill="white"/>
<path d="M271.159 104.837C284.659 110.837 285.933 119.54 298.159 121.337C311.724 123.331 317.956 111.288 331.659 110.837C354.11 110.098 362.063 138.381 384.159 134.337" stroke="white" stroke-width="3"/>
<rect x="-0.688985" y="0.159057" width="6.53415" height="5.11509" rx="0.5" transform="matrix(-0.848042 -0.529928 -0.529928 0.848042 277.353 105.142)" fill="white" stroke="white"/>
<path fill-rule="evenodd" clip-rule="evenodd" d="M153.62 12.1611C154.515 11.5133 156.019 12.064 156.98 13.391L165.67 25.3947C166.631 26.7218 166.685 28.3227 165.79 28.9704C164.896 29.6182 163.391 29.0675 162.431 27.7405L153.74 15.7368C152.779 14.4098 152.725 12.8089 153.62 12.1611Z" fill="#29D305"/>
<path fill-rule="evenodd" clip-rule="evenodd" d="M231.64 12.1572C230.745 11.5094 229.241 12.0601 228.28 13.3871L219.589 25.3908C218.628 26.7178 218.575 28.3188 219.47 28.9665C220.364 29.6143 221.868 29.0636 222.829 27.7366L231.52 15.7329C232.481 14.4059 232.534 12.805 231.64 12.1572Z" fill="#29D305"/>
<path fill-rule="evenodd" clip-rule="evenodd" d="M192.632 0C193.736 0 194.632 1.32815 194.632 2.9665V17.786C194.632 19.4244 193.736 20.7525 192.632 20.7525C191.527 20.7525 190.632 19.4244 190.632 17.786V2.9665C190.632 1.32815 191.527 0 192.632 0Z" fill="#29D305"/>
</svg>
