<svg width="367" height="212" fill="none" xmlns="http://www.w3.org/2000/svg"><rect y="1.5" width="254" height="163" rx="6.5" transform="matrix(.86603 .5 -.86603 .5 145.299 .75)" fill="#fff" stroke="#000" stroke-width="3"/><rect y="1.5" width="100.692" height="53.656" rx="6.5" transform="matrix(.86603 .5 -.86603 .5 145.752 18.291)" fill="#fff" stroke="#29D305" stroke-width="3"/><path d="M159.305 46.772c.471-.272.472-.713.001-.985-.47-.271-1.234-.27-1.705.001l-21.466 12.393c-.471.272-.472.713-.001.985.47.272 1.234.271 1.705 0l21.466-12.394zm-14.965-1.37c.001-.384-.539-.696-1.205-.695-.666 0-1.206.312-1.206.696l-.004 2.742-16.312-9.417c-.471-.272-1.234-.271-1.705 0-.471.273-.472.713-.001.985l16.311 9.418-4.749.002c-.666 0-1.206.312-1.207.697 0 .384.539.696 1.205.695l7.66-.003c.333 0 .635-.079.853-.205a.83.83 0 0 0 .262-.226.455.455 0 0 0 .092-.266l.006-4.422z" fill="#262626" stroke="#262626" stroke-width=".2" stroke-linecap="round" stroke-linejoin="round"/><path d="M328.349 131.713c3.826-2.209 3.826-5.791 0-8l-70.841-40.9c-3.826-2.21-10.03-2.21-13.856 0l-35.125 20.279c-3.826 2.209-3.826 5.791 0 8l14.099 8.14c1.913 1.104 1.913 2.895 0 4l-53.068 30.638c-3.826 2.209-3.826 5.791 0 8l46.35 26.76c3.827 2.21 10.03 2.21 13.857 0l98.584-56.917z" fill="#262626"/><g clip-path="url(#clip0_10190_90719)" stroke="#fff" stroke-width="2.5" stroke-linecap="round" stroke-linejoin="round"><path d="M251.537 125.689l.008-5.307 9.192-.005"/><path d="M251.544 120.382l18.368 10.605c1.218.703 2.871 1.097 4.594 1.096 1.724 0 3.378-.397 4.598-1.101l9.2-5.311c1.22-.705 1.906-1.66 1.907-2.655.002-.995-.682-1.949-1.9-2.652l-8.418-4.861"/></g><rect y=".5" width="55.559" height="55.656" rx="7.5" transform="matrix(.86603 .5 -.86603 .5 146.818 92.087)" fill="#262626" stroke="#262626"/><path fill="#262626" d="M146.363 105.989l24.49 14.14-24.532 14.163-24.49-14.139z"/><path fill-rule="evenodd" clip-rule="evenodd" d="M128.412 123.68c.007-.353.509-.636 1.12-.632l22.076.132-.229-12.745c-.007-.353.483-.643 1.094-.647.611-.004 1.112.278 1.118.631l.23 12.767a.823.823 0 0 1-.16.489 1.467 1.467 0 0 1-.477.415 2.659 2.659 0 0 1-.72.276 3.618 3.618 0 0 1-.845.092h-.001l-22.113-.133c-.611-.003-1.1-.292-1.093-.645z" fill="#fff"/><rect y=".5" width="55.559" height="55.656" rx="7.5" transform="matrix(.86603 .5 -.86603 .5 81.51 54.381)" fill="#262626" stroke="#262626"/><path fill="#262626" d="M81.055 68.283l24.49 14.14-24.532 14.163-24.49-14.139z"/><path fill-rule="evenodd" clip-rule="evenodd" d="M98.662 78.721c-.007.353-.509.636-1.12.632l-22.076-.132.23 12.745c.006.353-.484.643-1.095.647-.611.004-1.112-.278-1.118-.631l-.23-12.767a.818.818 0 0 1 .16-.489 1.49 1.49 0 0 1 .477-.415c.206-.12.45-.213.72-.276.269-.063.556-.094.845-.092l22.114.133c.611.003 1.1.292 1.093.645z" fill="#fff"/><defs><clipPath id="clip0_10190_90719"><path fill="#fff" transform="matrix(.86603 .5 -.86603 .5 269.941 108.876)" d="M0 0h28.279v28.328H0z"/></clipPath></defs></svg>