<svg fill="none" height="170" width="274" xmlns="http://www.w3.org/2000/svg"><rect fill="#fff" height="78" rx="39" stroke="#f4f4f4" stroke-width="2" width="78" x="195" y="91"/><path d="m215.115 131.648h1.612v2.276h-1.612v3.076h-2.822v-3.076h-5.83l-.127-1.778 5.928-9.365h2.851zm-5.967 0h3.145v-5.019l-.186.322zm9.366 3.965c0-.449.149-.814.449-1.093.306-.28.687-.42 1.142-.42.463 0 .844.14 1.143.42.306.279.459.644.459 1.093 0 .443-.15.804-.449 1.084-.3.274-.684.41-1.153.41-.462 0-.843-.136-1.142-.41-.3-.28-.449-.641-.449-1.084zm12.158-4.297c-.736.723-1.595 1.084-2.578 1.084-1.257 0-2.263-.429-3.018-1.289-.755-.866-1.133-2.031-1.133-3.496 0-.931.202-1.784.606-2.558.41-.782.98-1.387 1.709-1.817.729-.436 1.549-.654 2.461-.654.937 0 1.771.234 2.5.703s1.295 1.143 1.699 2.022c.404.878.609 1.884.615 3.017v1.045c0 2.37-.589 4.232-1.767 5.586-1.179 1.354-2.849 2.077-5.01 2.168l-.694.01v-2.354l.626-.01c2.454-.11 3.782-1.263 3.984-3.457zm-1.885-1.074c.456 0 .846-.117 1.172-.351.332-.235.583-.518.752-.85v-1.162c0-.957-.182-1.699-.547-2.227-.365-.527-.853-.791-1.465-.791-.566 0-1.032.261-1.396.782-.365.514-.547 1.162-.547 1.943 0 .775.176 1.413.527 1.914.358.495.86.742 1.504.742zm13.369 1.074c-.735.723-1.595 1.084-2.578 1.084-1.256 0-2.262-.429-3.017-1.289-.756-.866-1.133-2.031-1.133-3.496 0-.931.202-1.784.605-2.558.41-.782.98-1.387 1.709-1.817.729-.436 1.55-.654 2.461-.654.938 0 1.771.234 2.5.703s1.296 1.143 1.699 2.022c.404.878.609 1.884.616 3.017v1.045c0 2.37-.59 4.232-1.768 5.586s-2.848 2.077-5.01 2.168l-.693.01v-2.354l.625-.01c2.454-.11 3.782-1.263 3.984-3.457zm-1.885-1.074c.456 0 .847-.117 1.172-.351.332-.235.583-.518.752-.85v-1.162c0-.957-.182-1.699-.547-2.227-.364-.527-.852-.791-1.464-.791-.567 0-1.032.261-1.397.782-.364.514-.547 1.162-.547 1.943 0 .775.176 1.413.528 1.914.358.495.859.742 1.503.742zm7.022 5.371c0-.449.15-.814.449-1.093.306-.28.687-.42 1.143-.42.462 0 .843.14 1.142.42.306.279.459.644.459 1.093 0 .443-.149.804-.449 1.084-.299.274-.683.41-1.152.41-.462 0-.843-.136-1.143-.41-.299-.28-.449-.641-.449-1.084zm0-7.998c0-.449.15-.814.449-1.094.306-.279.687-.419 1.143-.419.462 0 .843.14 1.142.419.306.28.459.645.459 1.094 0 .443-.149.804-.449 1.084-.299.274-.683.41-1.152.41-.462 0-.843-.136-1.143-.41-.299-.28-.449-.641-.449-1.084zm12.246 9.385h-2.822v-10.879l-3.369 1.045v-2.295l5.888-2.109h.303z" fill="#0064fa"/><rect fill="#0064fa" height="170" rx="85" width="170"/><rect fill="#262626" height="79" rx="39.5" stroke="#fff" width="79" x="194.5" y=".5"/><path d="m208.637 38.64h1.504c.716 0 1.246-.178 1.591-.537.345-.358.518-.833.518-1.425 0-.573-.173-1.02-.518-1.338-.338-.32-.807-.479-1.406-.479-.54 0-.993.15-1.357.45a1.406 1.406 0 0 0 -.547 1.152h-2.822c0-.742.198-1.406.595-1.992.404-.593.964-1.055 1.68-1.387a5.64 5.64 0 0 1 2.383-.498c1.504 0 2.682.361 3.535 1.084.853.716 1.279 1.706 1.279 2.969 0 .65-.198 1.25-.595 1.796a3.875 3.875 0 0 1 -1.563 1.26c.801.287 1.397.716 1.787 1.29.397.572.596 1.25.596 2.03 0 1.264-.462 2.276-1.387 3.038-.918.762-2.135 1.142-3.652 1.142-1.419 0-2.582-.374-3.487-1.123-.898-.748-1.347-1.738-1.347-2.969h2.822c0 .534.199.97.596 1.31.403.338.898.507 1.484.507.671 0 1.195-.176 1.572-.527.385-.358.577-.83.577-1.416 0-1.42-.782-2.13-2.344-2.13h-1.494v-2.206zm8.877 6.973c0-.449.149-.813.449-1.093.306-.28.687-.42 1.142-.42.463 0 .844.14 1.143.42.306.28.459.644.459 1.093 0 .443-.15.804-.449 1.084-.3.274-.684.41-1.153.41-.462 0-.843-.136-1.142-.41-.3-.28-.449-.641-.449-1.084zm15.127-4.492c0 1.966-.407 3.47-1.221 4.512-.814 1.041-2.005 1.562-3.574 1.562-1.55 0-2.735-.51-3.555-1.533-.82-1.022-1.24-2.487-1.26-4.394v-2.618c0-1.985.41-3.492 1.231-4.521.827-1.029 2.015-1.543 3.564-1.543 1.55 0 2.735.511 3.555 1.533.82 1.016 1.24 2.477 1.26 4.385zm-2.823-2.871c0-1.178-.162-2.035-.488-2.568-.319-.54-.82-.81-1.504-.81-.664 0-1.155.256-1.474.77-.313.508-.479 1.306-.498 2.393v3.457c0 1.159.156 2.022.468 2.588.319.56.827.84 1.524.84.69 0 1.188-.27 1.494-.81.306-.541.465-1.368.478-2.481zm14.483 8.75h-9.746v-1.934l4.599-4.902c.632-.69 1.097-1.292 1.397-1.807.306-.514.459-1.002.459-1.464 0-.632-.16-1.127-.479-1.485-.319-.364-.774-.547-1.367-.547-.638 0-1.143.222-1.514.664-.364.437-.546 1.013-.546 1.729h-2.833c0-.866.206-1.657.616-2.373a4.362 4.362 0 0 1 1.758-1.68c.755-.41 1.611-.615 2.568-.615 1.465 0 2.601.352 3.408 1.055.814.703 1.221 1.696 1.221 2.978 0 .703-.182 1.42-.547 2.149s-.99 1.578-1.875 2.548l-3.232 3.409h6.113zm1.992-1.387c0-.449.15-.813.449-1.093.306-.28.687-.42 1.143-.42.462 0 .843.14 1.142.42.306.28.459.644.459 1.093 0 .443-.149.804-.449 1.084-.299.274-.683.41-1.152.41-.462 0-.843-.136-1.143-.41-.299-.28-.449-.641-.449-1.084zm0-7.998c0-.449.15-.814.449-1.093.306-.28.687-.42 1.143-.42.462 0 .843.14 1.142.42.306.28.459.644.459 1.093 0 .443-.149.804-.449 1.084-.299.274-.683.41-1.152.41-.462 0-.843-.136-1.143-.41-.299-.28-.449-.641-.449-1.084zm12.246 9.385h-2.822v-10.879l-3.369 1.045v-2.295l5.888-2.11h.303z" fill="#0064fa"/><path d="m30.68 93 1.344-4.656h-2.328v-2.352h3l.792-2.784h-2.592v-2.352h3.264l1.32-4.656h2.952l-1.32 4.656h3.624l1.344-4.656h2.928l-1.32 4.656h2.328v2.352h-3l-.792 2.784h2.592v2.352h-3.264l-1.344 4.656h-2.928l1.344-4.656h-3.648l-1.344 4.656zm4.968-7.008h3.624l.816-2.784h-3.648zm19.279 7.272c-1.456 0-2.744-.36-3.864-1.08-1.104-.736-1.968-1.752-2.592-3.048-.608-1.312-.912-2.824-.912-4.536 0-1.728.304-3.24.912-4.536.624-1.296 1.488-2.304 2.592-3.024 1.12-.736 2.408-1.104 3.864-1.104 1.472 0 2.76.368 3.864 1.104 1.12.72 1.984 1.728 2.592 3.024.624 1.296.936 2.808.936 4.536 0 1.712-.312 3.224-.936 4.536-.608 1.296-1.472 2.312-2.592 3.048-1.104.72-2.392 1.08-3.864 1.08zm0-2.856c.864 0 1.608-.232 2.232-.696s1.104-1.136 1.44-2.016c.352-.88.528-1.912.528-3.096 0-1.2-.176-2.232-.528-3.096-.336-.88-.816-1.552-1.44-2.016s-1.368-.696-2.232-.696c-.848 0-1.584.232-2.208.696s-1.112 1.136-1.464 2.016c-.336.864-.504 1.896-.504 3.096 0 1.184.168 2.216.504 3.096.352.88.84 1.552 1.464 2.016s1.36.696 2.208.696zm16.43 2.856c-1.457 0-2.745-.36-3.865-1.08-1.104-.736-1.968-1.752-2.592-3.048-.608-1.312-.912-2.824-.912-4.536 0-1.728.304-3.24.912-4.536.624-1.296 1.488-2.304 2.592-3.024 1.12-.736 2.408-1.104 3.864-1.104 1.472 0 2.76.368 3.864 1.104 1.12.72 1.984 1.728 2.592 3.024.624 1.296.936 2.808.936 4.536 0 1.712-.312 3.224-.936 4.536-.608 1.296-1.472 2.312-2.592 3.048-1.104.72-2.392 1.08-3.864 1.08zm0-2.856c.863 0 1.607-.232 2.231-.696s1.104-1.136 1.44-2.016c.352-.88.528-1.912.528-3.096 0-1.2-.176-2.232-.528-3.096-.336-.88-.816-1.552-1.44-2.016s-1.368-.696-2.232-.696c-.848 0-1.584.232-2.208.696s-1.112 1.136-1.464 2.016c-.336.864-.504 1.896-.504 3.096 0 1.184.168 2.216.504 3.096.352.88.84 1.552 1.464 2.016s1.36.696 2.208.696zm16.405 2.856c-1.424 0-2.672-.352-3.744-1.056s-1.912-1.672-2.52-2.904c-.592-1.248-.888-2.696-.888-4.344 0-1.808.328-3.384.984-4.728.672-1.36 1.6-2.416 2.784-3.168 1.2-.752 2.6-1.128 4.2-1.128.88 0 1.752.144 2.616.432s1.584.688 2.16 1.2l-1.776 2.256a4.857 4.857 0 0 0 -1.488-.816 5.515 5.515 0 0 0 -1.752-.264c-.976 0-1.808.248-2.496.744s-1.216 1.208-1.584 2.136c-.352.912-.536 2.032-.552 3.36a5.913 5.913 0 0 1 2.016-1.776 5.05 5.05 0 0 1 2.472-.648c1.104 0 2.08.224 2.928.672a4.88 4.88 0 0 1 1.992 1.824c.48.768.72 1.648.72 2.64 0 1.056-.264 2.008-.792 2.856-.528.832-1.248 1.496-2.16 1.992-.912.48-1.952.72-3.12.72zm-.096-8.232c-.736 0-1.432.152-2.088.456a5.305 5.305 0 0 0 -1.704 1.296c.16.768.408 1.44.744 2.016.352.56.784.992 1.296 1.296s1.08.456 1.704.456c.592 0 1.12-.12 1.584-.36.48-.24.856-.568 1.128-.984.272-.432.408-.912.408-1.44 0-.544-.128-1.016-.384-1.416a2.523 2.523 0 0 0 -1.08-.96c-.448-.24-.984-.36-1.608-.36zm17.298 7.968v-3.936h-9.48v-2.64l8.976-10.224h3.792v10.104h2.064v2.76h-2.064v3.936zm-5.688-6.696h5.688v-6.456zm13.22 6.696v-16.8h12.984v3.024h-9.504v3.96h6.312v2.928h-6.312v6.888zm10.65 0 6.912-16.8h4.008l6.84 16.8h-3.768l-1.704-4.416h-6.936l-1.728 4.416zm6.432-7.2h4.8l-2.4-6.192z" fill="#fff"/></svg>