<svg width="24" height="24" viewBox="0 0 24 24" fill="none" xmlns="http://www.w3.org/2000/svg">
<path d="M9.36403 18.4998L8.43203 19.4318C7.58811 20.2757 6.44351 20.7498 5.25003 20.7498C4.05655 20.7498 2.91195 20.2757 2.06803 19.4318C1.22411 18.5879 0.75 17.4433 0.75 16.2498C0.75 15.0563 1.22411 13.9117 2.06803 13.0678L6.84103 8.29379C7.64125 7.49176 8.71455 7.02109 9.84661 6.97577C10.9787 6.93046 12.0862 7.31383 12.9479 8.04933C13.8097 8.78483 14.3623 9.81833 14.4954 10.9434C14.6286 12.0686 14.3324 13.2025 13.666 14.1188" stroke="#29D305" stroke-width="1.5" stroke-linecap="round" stroke-linejoin="round"/>
<path d="M14.8162 5.56705L15.5662 4.81705C16.4102 3.97313 17.5548 3.49902 18.7482 3.49902C19.9417 3.49902 21.0863 3.97313 21.9302 4.81705C22.7742 5.66097 23.2483 6.80557 23.2483 7.99905C23.2483 9.19253 22.7742 10.3371 21.9302 11.1811L17.1572 15.9541C16.3569 16.7557 15.2835 17.2261 14.1516 17.2711C13.0197 17.3161 11.9124 16.9326 11.0508 16.197C10.1892 15.4615 9.63681 14.428 9.5038 13.303C9.37078 12.178 9.66698 11.0442 10.3332 10.1281" stroke="#29D305" stroke-width="1.5" stroke-linecap="round" stroke-linejoin="round"/>
</svg>
