<svg width="204" height="218" fill="none" xmlns="http://www.w3.org/2000/svg"><path d="M204 102c0 56.333-45.667 102-102 102S0 158.333 0 102 45.667 0 102 0s102 45.667 102 102z" fill="#F4F4F4"/><path d="M52.282 61H153.46c6.345 0 12.431 2.604 16.917 7.238 4.487 4.635 7.008 10.92 7.008 17.474v51.11a6.28 6.28 0 0 1-1.752 4.368 5.885 5.885 0 0 1-4.229 1.81H76.207V85.712c0-6.554-2.52-12.84-7.008-17.474C64.713 63.604 58.627 61 52.282 61z" fill="#000"/><path d="M83.82 143H33.228c-1.917 0-3.756-.651-5.111-1.81-1.355-1.158-2.117-2.73-2.117-4.368v-51.11c0-6.554 3.046-12.84 8.468-17.474C39.889 63.604 47.243 61 54.91 61c7.668 0 15.021 2.604 20.443 7.238 5.422 4.635 8.468 10.92 8.468 17.474V143z" fill="#fff"/><path fill-rule="evenodd" clip-rule="evenodd" d="M154.654 92.942a2.5 2.5 0 0 1-2.5 2.5h-45.205a2.5 2.5 0 1 1 0-5h45.205a2.5 2.5 0 0 1 2.5 2.5z" fill="#fff"/><path d="M135.651 90.558v17.878c0 1.581.737 3.096 2.048 4.214 1.311 1.118 3.09 1.746 4.944 1.746h6.993c1.854 0 3.633-.628 4.944-1.746 1.311-1.118 2.048-2.633 2.048-4.214V93.558a3 3 0 0 0-3-3h-17.977z" fill="#29D305"/><path fill-rule="evenodd" clip-rule="evenodd" d="M102 130a4 4 0 0 1 4 4v80a4 4 0 0 1-8 0v-80a4 4 0 0 1 4-4z" fill="#000"/></svg>