<svg width="204" height="220" viewBox="0 0 204 220" fill="none" xmlns="http://www.w3.org/2000/svg">
<path d="M204 102C204 158.333 158.333 204 102 204C45.667 204 0 158.333 0 102C0 45.667 45.667 0 102 0C158.333 0 204 45.667 204 102Z" fill="#F4F4F4"/>
<path d="M124 141V157.8C124 160.77 122.867 163.619 120.851 165.72C118.835 167.82 116.101 169 113.25 169H91.75C88.8989 169 86.1646 167.82 84.1486 165.72C82.1326 163.619 81 160.77 81 157.8V141" fill="black"/>
<path fill-rule="evenodd" clip-rule="evenodd" d="M102.5 166C103.881 166 105 166.863 105 167.929L105 218.071C105 219.137 103.881 220 102.5 220C101.119 220 100 219.137 100 218.071L100 167.929C100 166.863 101.119 166 102.5 166Z" fill="black"/>
<path d="M124 141H81C72.9991 137.037 65.618 130.9 60.9595 123.295C56.3009 115.691 53.8899 106.928 54.0039 98.0158C54.1733 88.1655 57.2944 78.6627 62.8661 70.6866L81.0066 63L86.3161 71.8296L100.475 63L108.818 95.0389L125.252 71.8296L127.527 88.4798L145.95 77.1482C149.116 83.5832 150.866 90.6894 150.996 97.9871C151.115 106.904 148.707 115.673 144.048 123.283C139.389 130.894 132.005 137.035 124 141Z" fill="white"/>
<path fill-rule="evenodd" clip-rule="evenodd" d="M90.9447 110.816C90.0826 110.454 89.1343 110.36 88.2193 110.544C87.3044 110.728 86.4634 111.183 85.8029 111.852C85.1423 112.52 84.692 113.373 84.5095 114.302C84.327 115.23 84.4207 116.193 84.7786 117.068C85.1364 117.942 85.7421 118.689 86.5184 119.214C87.2946 119.739 88.2068 120.019 89.1395 120.019H93.8605V115.236C93.8605 114.289 93.583 113.363 93.0637 112.576C92.5445 111.79 91.8069 111.177 90.9447 110.816ZM97.2791 120.019V115.236C97.2791 113.608 96.8023 112.016 95.9084 110.662C95.0146 109.308 93.7436 108.251 92.2558 107.627C90.768 107.004 89.1305 106.84 87.5508 107.158C85.971 107.477 84.5205 108.262 83.3825 109.414C82.2445 110.566 81.47 112.033 81.1562 113.63C80.8425 115.226 81.0035 116.882 81.619 118.386C82.2345 119.89 83.2772 121.177 84.6158 122.082C85.9544 122.988 87.5287 123.471 89.1395 123.471H93.8605V141.274C93.8605 142.227 94.6257 143 95.5698 143C96.5138 143 97.2791 142.227 97.2791 141.274V123.471H106.721V141.274C106.721 142.227 107.486 143 108.43 143C109.374 143 110.14 142.227 110.14 141.274V123.471H114.86C116.471 123.471 118.046 122.988 119.384 122.082C120.723 121.177 121.765 119.89 122.381 118.386C122.997 116.882 123.157 115.226 122.844 113.63C122.53 112.033 121.756 110.566 120.618 109.414C119.479 108.262 118.029 107.477 116.449 107.158C114.869 106.84 113.232 107.004 111.744 107.627C110.256 108.251 108.985 109.308 108.092 110.662C107.198 112.016 106.721 113.608 106.721 115.236V120.019H97.2791ZM110.14 120.019H114.86C115.793 120.019 116.705 119.739 117.482 119.214C118.258 118.689 118.864 117.942 119.221 117.068C119.579 116.193 119.673 115.23 119.491 114.302C119.308 113.373 118.858 112.52 118.197 111.852C117.537 111.183 116.696 110.728 115.781 110.544C114.866 110.36 113.917 110.454 113.055 110.816C112.193 111.177 111.456 111.79 110.936 112.576C110.417 113.363 110.14 114.289 110.14 115.236V120.019Z" fill="black"/>
<path fill-rule="evenodd" clip-rule="evenodd" d="M98.5124 44.2779C99.369 43.6591 100.565 43.8519 101.184 44.7085L106.608 52.2179C107.227 53.0744 107.034 54.2704 106.177 54.8892C105.321 55.5079 104.125 55.3151 103.506 54.4586L98.0818 46.9492C97.463 46.0926 97.6558 44.8966 98.5124 44.2779Z" fill="#29D305"/>
<path fill-rule="evenodd" clip-rule="evenodd" d="M124.284 41.662C125.297 41.9604 125.877 43.0241 125.579 44.0378L123.062 52.5855C122.764 53.5992 121.7 54.179 120.687 53.8806C119.673 53.5821 119.093 52.5185 119.391 51.5048L121.908 42.9571C122.206 41.9434 123.27 41.3636 124.284 41.662Z" fill="#29D305"/>
<path fill-rule="evenodd" clip-rule="evenodd" d="M142 54.019C142.649 54.8527 142.5 56.0549 141.666 56.7041L134.839 62.0204C134.005 62.6696 132.803 62.52 132.154 61.6863C131.504 60.8526 131.654 59.6504 132.488 59.0012L139.315 53.6849C140.149 53.0357 141.351 53.1853 142 54.019Z" fill="#29D305"/>
</svg>
