<svg width="40" height="40" viewBox="0 0 40 40" fill="none" xmlns="http://www.w3.org/2000/svg">
<path fill-rule="evenodd" clip-rule="evenodd" d="M1.25 22.5C1.94036 22.5 2.5 23.0596 2.5 23.75V38.75C2.5 39.4404 1.94036 40 1.25 40C0.559644 40 0 39.4404 0 38.75V23.75C0 23.0596 0.559644 22.5 1.25 22.5Z" fill="black"/>
<path fill-rule="evenodd" clip-rule="evenodd" d="M0 26.25C0 25.5596 0.559644 25 1.25 25H10C11.6576 25 13.2473 25.6585 14.4194 26.8306C15.2924 27.7036 15.8805 28.8082 16.1237 30H21.25C22.9076 30 24.4973 30.6585 25.6694 31.8306C26.8415 33.0027 27.5 34.5924 27.5 36.25C27.5 36.9404 26.9404 37.5 26.25 37.5H1.25C0.559644 37.5 0 36.9404 0 36.25V26.25ZM2.5 27.5V35H24.7855C24.6008 34.4776 24.3009 33.9976 23.9017 33.5983C23.1984 32.8951 22.2446 32.5 21.25 32.5H15C14.3096 32.5 13.75 31.9404 13.75 31.25C13.75 30.2554 13.3549 29.3016 12.6517 28.5983C11.9484 27.8951 10.9946 27.5 10 27.5H2.5Z" fill="black"/>
<path fill-rule="evenodd" clip-rule="evenodd" d="M8.75 31.25C8.75 30.5596 9.30964 30 10 30H15C15.6904 30 16.25 30.5596 16.25 31.25C16.25 31.9404 15.6904 32.5 15 32.5H10C9.30964 32.5 8.75 31.9404 8.75 31.25Z" fill="black"/>
<path fill-rule="evenodd" clip-rule="evenodd" d="M26.25 2.5C20.0368 2.5 15 7.5368 15 13.75C15 19.9632 20.0368 25 26.25 25C32.4632 25 37.5 19.9632 37.5 13.75C37.5 7.5368 32.4632 2.5 26.25 2.5ZM12.5 13.75C12.5 6.15608 18.6561 0 26.25 0C33.8439 0 40 6.15608 40 13.75C40 21.3439 33.8439 27.5 26.25 27.5C18.6561 27.5 12.5 21.3439 12.5 13.75Z" fill="black"/>
<path fill-rule="evenodd" clip-rule="evenodd" d="M18.3712 2.58964C18.7578 2.0177 19.5349 1.86747 20.1068 2.25409L27.0838 6.97042C27.5958 7.31259 28.0157 7.77559 28.3063 8.31854C28.5976 8.86281 28.7501 9.47058 28.7501 10.0879V12.9496C28.7501 12.9496 28.7501 12.9496 28.7501 12.9496C28.7501 13.8166 28.4498 14.6569 27.9001 15.3274C27.3504 15.9978 26.5855 16.4571 25.7353 16.627C25.7353 16.6271 25.7354 16.627 25.7353 16.627L22.7807 17.2182L23.3703 19.5764C23.5259 20.206 23.5155 20.8652 23.3403 21.4896C23.165 22.114 22.8308 22.6823 22.3703 23.1389L22.3448 23.1635L20.2532 25.1235C19.7494 25.5955 18.9584 25.5698 18.4863 25.066C18.0143 24.5623 18.04 23.7713 18.5437 23.2992L20.6203 21.3534C20.7685 21.203 20.8762 21.0174 20.9333 20.814C20.9916 20.6063 20.9951 20.3871 20.9436 20.1776C20.9435 20.1772 20.9437 20.1781 20.9436 20.1776L20.0374 16.5528C19.9545 16.2212 20.011 15.8701 20.1938 15.5813C20.3766 15.2924 20.6697 15.091 21.0049 15.024L25.2449 14.1756C25.5283 14.119 25.7835 13.9658 25.9668 13.7423C26.15 13.5188 26.2501 13.2388 26.2501 12.9498V10.0881C26.2501 10.0881 26.2501 10.0881 26.2501 10.0881C26.2501 9.88235 26.1993 9.6797 26.1022 9.4983C26.0051 9.31688 25.8647 9.16224 25.6934 9.0481L25.6867 9.04362L18.7067 4.32527C18.1348 3.93865 17.9846 3.16158 18.3712 2.58964Z" fill="black"/>
<path fill-rule="evenodd" clip-rule="evenodd" d="M39.872 14.6263C40.0902 15.2812 39.7361 15.9891 39.0811 16.2073L33.7354 17.9881C33.4458 18.0839 33.2013 18.2822 33.0478 18.5457C32.8948 18.8084 32.8428 19.1178 32.9015 19.4161L33.8873 24.2253C34.0259 24.9016 33.5901 25.5622 32.9138 25.7009C32.2375 25.8395 31.5768 25.4036 31.4382 24.7274L30.4501 19.9071C30.2715 19.0098 30.427 18.0781 30.8875 17.2875C31.3477 16.4974 32.0808 15.9026 32.9488 15.615C32.9492 15.6149 32.9483 15.6152 32.9488 15.615L38.291 13.8354C38.946 13.6172 39.6538 13.9713 39.872 14.6263Z" fill="black"/>
</svg>
