<svg width="41" height="41" viewBox="0 0 41 41" fill="none" xmlns="http://www.w3.org/2000/svg">
<path fill-rule="evenodd" clip-rule="evenodd" d="M8.61271 8.36407C5.28945 11.5235 3.42322 15.7807 3.41641 20.2182C3.4096 24.6571 5.2639 28.9206 8.57939 32.0893L8.5917 32.1012C12.1734 35.6164 18.2496 38.1206 23.9333 38.2447C26.7552 38.3063 29.4046 37.7795 31.5801 36.5705C33.4814 35.5139 35.0789 33.9053 36.1315 31.5887C35.8936 31.6006 35.6257 31.6184 35.3228 31.6384L35.2455 31.6435C34.6813 31.6808 34.029 31.7223 33.3579 31.7287C32.0529 31.7413 30.4677 31.6289 29.1393 30.9434C27.695 30.198 26.7351 28.873 26.5702 26.8866L26.5701 26.8853C26.4784 25.7641 26.932 24.838 27.6092 24.1006C28.2566 23.3957 29.137 22.8282 30.0183 22.3423C30.7023 21.9651 31.4659 21.596 32.2089 21.2369C32.4255 21.1322 32.6403 21.0284 32.8509 20.9255C33.8115 20.4559 34.7226 19.9874 35.521 19.4664C37.1236 18.4208 38.0455 17.3177 38.0824 15.8485C38.122 14.2715 37.1665 11.8829 33.8336 8.26338L33.8335 8.26335C27.5006 1.38534 15.6778 1.74314 8.61271 8.36407ZM35.8518 6.62966C28.3347 -1.53446 14.6907 -0.870074 6.72409 6.59931L6.72407 6.59929L6.7178 6.60525C2.90119 10.2319 0.757841 15.1197 0.750021 20.2146C0.742206 25.3067 2.86823 30.1978 6.66982 33.8341C10.7644 37.8489 17.5198 40.6053 23.8712 40.744C27.0685 40.8138 30.239 40.222 32.9397 38.721C35.6611 37.2086 37.8288 34.8139 39.0496 31.4227L39.0497 31.4225C39.1515 31.1394 39.2299 30.7396 39.087 30.3076C38.9331 29.8426 38.5914 29.5427 38.262 29.371C37.7235 29.0903 37.063 29.0729 36.6546 29.0731C36.2075 29.0734 35.6837 29.1082 35.1756 29.1419C35.1363 29.1445 35.0971 29.1471 35.0581 29.1497C34.4917 29.1872 33.9122 29.2233 33.3305 29.2289C32.1299 29.2405 31.1261 29.115 30.4251 28.7532C29.8402 28.4514 29.3306 27.9198 29.2286 26.6933C29.2033 26.3811 29.3027 26.088 29.6297 25.7319C29.9868 25.3431 30.5625 24.9425 31.37 24.4972C31.9838 24.1588 32.6558 23.8339 33.3846 23.4815C33.612 23.3715 33.845 23.2589 34.0835 23.1423C35.0586 22.6657 36.0974 22.1361 37.0441 21.5185C38.9318 20.2868 40.6817 18.5502 40.7481 15.9074C40.8118 13.3725 39.3022 10.3768 35.8518 6.62966Z" fill="black"/>
<path fill-rule="evenodd" clip-rule="evenodd" d="M12.1992 21.6479C11.4433 21.6479 10.8305 22.2225 10.8305 22.9313C10.8305 23.64 11.4433 24.2146 12.1992 24.2146C12.9551 24.2146 13.568 23.64 13.568 22.9313C13.568 22.2225 12.9551 21.6479 12.1992 21.6479ZM8.16406 22.9313C8.16406 20.8418 9.97066 19.1479 12.1992 19.1479C14.4278 19.1479 16.2344 20.8418 16.2344 22.9313C16.2344 25.0207 14.4278 26.7146 12.1992 26.7146C9.97066 26.7146 8.16406 25.0207 8.16406 22.9313Z" fill="black"/>
<path fill-rule="evenodd" clip-rule="evenodd" d="M18.8828 29.706C18.1269 29.706 17.5141 30.2806 17.5141 30.9894C17.5141 31.6981 18.1269 32.2727 18.8828 32.2727C19.6387 32.2727 20.2515 31.6981 20.2515 30.9894C20.2515 30.2806 19.6387 29.706 18.8828 29.706ZM14.8477 30.9894C14.8477 28.8999 16.6543 27.2061 18.8828 27.2061C21.1113 27.2061 22.9179 28.8999 22.9179 30.9894C22.9179 33.0788 21.1113 34.7727 18.8828 34.7727C16.6542 34.7727 14.8477 33.0788 14.8477 30.9894Z" fill="black"/>
<path fill-rule="evenodd" clip-rule="evenodd" d="M25.3476 9.3198C24.5917 9.3198 23.9789 9.89437 23.9789 10.6031C23.9789 11.3119 24.5917 11.8864 25.3476 11.8864C26.1036 11.8864 26.7164 11.3119 26.7164 10.6031C26.7164 9.89437 26.1036 9.3198 25.3476 9.3198ZM21.3125 10.6031C21.3125 8.51367 23.1191 6.81982 25.3476 6.81982C27.5762 6.81982 29.3828 8.51367 29.3828 10.6031C29.3828 12.6926 27.5762 14.3864 25.3476 14.3864C23.1191 14.3864 21.3125 12.6926 21.3125 10.6031Z" fill="black"/>
<path fill-rule="evenodd" clip-rule="evenodd" d="M13.8887 12.0063C13.1327 12.0063 12.5199 12.5809 12.5199 13.2896C12.5199 13.9984 13.1327 14.573 13.8887 14.573C14.6446 14.573 15.2574 13.9984 15.2574 13.2896C15.2574 12.5809 14.6446 12.0063 13.8887 12.0063ZM9.85352 13.2896C9.85352 11.2002 11.6601 9.50635 13.8887 9.50635C16.1172 9.50635 17.9238 11.2002 17.9238 13.2896C17.9238 15.3791 16.1172 17.0729 13.8887 17.0729C11.6601 17.0729 9.85352 15.3791 9.85352 13.2896Z" fill="#29D305"/>
</svg>
