<svg width="40" height="40" viewBox="0 0 40 40" fill="none" xmlns="http://www.w3.org/2000/svg">
<path fill-rule="evenodd" clip-rule="evenodd" d="M14.75 18.2129C14.75 17.0433 15.6981 16.0952 16.8676 16.0952H37.8816C39.0511 16.0952 39.9992 17.0433 39.9992 18.2129V21.7871C39.9992 22.9566 39.0511 23.9047 37.8816 23.9047H16.8676C15.6981 23.9047 14.75 22.9566 14.75 21.7871V18.2129ZM17.1029 18.4482V21.5518H37.6463V18.4482H17.1029Z" fill="black"/>
<path fill-rule="evenodd" clip-rule="evenodd" d="M0 20C0 8.94801 9.00295 0 20.0972 0C26.0207 0 31.3471 2.55487 35.0265 6.62138C35.8338 7.51364 35.6868 8.84604 34.8365 9.58871L32.1426 11.9417C31.2193 12.7482 29.8832 12.5765 29.1242 11.757C26.8779 9.33173 23.6685 7.8095 20.0972 7.8095C13.3254 7.8095 7.83765 13.2778 7.83765 20C7.83765 26.7222 13.3254 32.1905 20.0972 32.1905C23.6684 32.1905 26.8886 30.6686 29.1226 28.2484C29.8808 27.4271 31.2194 27.2519 32.145 28.0604L34.8365 30.4113C35.6868 31.154 35.8338 32.4864 35.0265 33.3786C31.3471 37.4451 26.0207 40 20.0972 40C9.00295 40 0 31.052 0 20ZM20.0972 2.35294C10.291 2.35294 2.35292 10.2589 2.35292 20C2.35292 29.7411 10.291 37.6471 20.0972 37.6471C25.2274 37.6471 29.8465 35.4804 33.0893 32.0093L30.7434 29.9603C28.0851 32.7777 24.2918 34.5434 20.0972 34.5434C12.0374 34.5434 5.48473 28.0331 5.48473 20C5.48473 11.9669 12.0374 5.45656 20.0972 5.45656C24.2952 5.45656 28.0753 7.22493 30.7413 10.0416L33.0893 7.99071C29.8465 4.51955 25.2274 2.35294 20.0972 2.35294Z" fill="black"/>
</svg>
