<svg width="380" height="197" viewBox="0 0 380 197" fill="none" xmlns="http://www.w3.org/2000/svg">
<g clip-path="url(#clip0)">
<g filter="url(#filter0_d)">
<rect x="194" y="20" width="157" height="157" rx="8" fill="#29D305"/>
</g>
<g clip-path="url(#clip1)">
<path d="M249.855 104.539C249.022 104.539 248.346 103.862 248.346 103.029C248.346 102.196 249.022 101.519 249.855 101.519H251.365V94.9776C251.365 93.5908 252.494 92.4616 253.881 92.4616H259.418C260.805 92.4616 261.934 93.5908 261.934 94.9776V101.519H266.461V76.8622C266.461 75.4754 267.59 74.3462 268.977 74.3462H274.514C275.901 74.3462 277.03 75.4754 277.03 76.8622V101.519H281.559V85.9199C281.559 84.5351 282.686 83.4059 284.071 83.4039H289.611C290.997 83.4039 292.127 84.5331 292.127 85.9199V101.519H293.634C294.467 101.519 295.144 102.196 295.144 103.029C295.144 103.862 294.467 104.539 293.634 104.539H249.855ZM289.107 101.519V86.4231H284.578V101.519H289.107ZM274.011 101.519V77.3654H269.48V101.519H274.011ZM258.915 101.519V95.4808H254.384V101.519H258.915Z" fill="black"/>
<path d="M252.875 81.8962C250.377 81.8962 248.346 79.8653 248.346 77.3673C248.346 74.8694 250.377 72.8385 252.875 72.8385C253.144 72.8385 253.416 72.8626 253.686 72.913L260.499 66.1056C260.449 65.8339 260.423 65.5621 260.423 65.2884C260.423 62.7905 262.454 60.7596 264.951 60.7596C267.449 60.7596 269.48 62.7905 269.48 65.2884C269.48 65.3065 269.48 65.3266 269.48 65.3448L276.366 67.1865C277.21 66.003 278.572 65.2884 280.05 65.2884C280.782 65.2884 281.495 65.4635 282.139 65.8017L287.658 61.4862C287.618 61.2426 287.598 61.0011 287.598 60.7596C287.598 58.2616 289.631 56.2307 292.127 56.2307C294.622 56.2307 296.655 58.2616 296.655 60.7596C296.655 63.2575 294.624 65.2884 292.127 65.2884C291.015 65.2884 289.961 64.8838 289.14 64.1612L284.204 68.0198C284.45 68.5854 284.578 69.1973 284.578 69.8173C284.578 72.3152 282.548 74.3461 280.05 74.3461C277.644 74.3461 275.67 72.4601 275.529 70.091L268.424 68.1909C267.568 69.2194 266.306 69.8193 264.951 69.8193C263.897 69.8193 262.886 69.4509 262.083 68.7907L256.373 74.495C257.035 75.3002 257.403 76.3106 257.403 77.3673C257.403 79.8653 255.372 81.8962 252.875 81.8962ZM252.875 75.8577C252.041 75.8577 251.365 76.534 251.365 77.3673C251.365 78.2006 252.041 78.877 252.875 78.877C253.708 78.877 254.384 78.2006 254.384 77.3673C254.384 76.534 253.708 75.8577 252.875 75.8577ZM280.05 68.3076C279.218 68.3076 278.54 68.9839 278.54 69.8173C278.54 70.6506 279.216 71.3269 280.05 71.3269C280.883 71.3269 281.559 70.6506 281.559 69.8173C281.559 68.9839 280.883 68.3076 280.05 68.3076ZM264.951 63.7808C264.118 63.7808 263.442 64.4571 263.442 65.2904C263.442 66.1237 264.118 66.8 264.951 66.8C265.785 66.8 266.461 66.1237 266.461 65.2904C266.461 64.4571 265.785 63.7808 264.951 63.7808ZM292.127 59.2499C291.295 59.2499 290.617 59.9263 290.617 60.7596C290.617 61.5929 291.295 62.2692 292.127 62.2692C292.958 62.2692 293.636 61.5929 293.636 60.7596C293.636 59.9263 292.96 59.2499 292.127 59.2499Z" fill="white"/>
</g>
<path d="M237.853 131.967L238.893 130.559C239.608 131.146 240.253 131.567 240.829 131.823C241.405 132.069 242.013 132.191 242.653 132.191C243.389 132.191 243.992 132.026 244.461 131.695C244.931 131.354 245.165 130.927 245.165 130.415C245.165 129.957 245.011 129.61 244.701 129.375C244.392 129.141 243.869 128.954 243.133 128.815L241.069 128.463C240.109 128.293 239.389 127.967 238.909 127.487C238.429 127.007 238.189 126.383 238.189 125.615C238.189 124.613 238.563 123.802 239.309 123.183C240.067 122.565 241.069 122.255 242.317 122.255C243.149 122.255 243.944 122.383 244.701 122.639C245.469 122.885 246.173 123.242 246.813 123.711L245.837 125.151C245.283 124.725 244.701 124.405 244.093 124.191C243.485 123.967 242.872 123.855 242.253 123.855C241.581 123.855 241.043 124.005 240.637 124.303C240.232 124.602 240.029 124.981 240.029 125.439C240.029 125.834 240.163 126.143 240.429 126.367C240.707 126.591 241.149 126.751 241.757 126.847L243.741 127.199C244.861 127.391 245.693 127.743 246.237 128.255C246.781 128.757 247.053 129.429 247.053 130.271C247.053 130.783 246.941 131.258 246.717 131.695C246.504 132.122 246.2 132.49 245.805 132.799C245.411 133.098 244.936 133.338 244.381 133.519C243.827 133.69 243.219 133.775 242.557 133.775C241.683 133.775 240.856 133.626 240.077 133.327C239.299 133.018 238.557 132.565 237.853 131.967ZM249.534 131.503V127.039H247.918V125.599H249.534V123.391L251.342 123.007V125.599H253.582V127.039H251.342V131.103C251.342 131.498 251.428 131.781 251.598 131.951C251.769 132.111 252.057 132.191 252.462 132.191C252.644 132.191 252.809 132.181 252.958 132.159C253.118 132.127 253.316 132.074 253.55 131.999V133.519C253.316 133.594 253.054 133.647 252.766 133.679C252.489 133.722 252.233 133.743 251.998 133.743C251.198 133.743 250.585 133.557 250.158 133.183C249.742 132.799 249.534 132.239 249.534 131.503ZM257.599 133.743C256.767 133.743 256.085 133.519 255.551 133.071C255.029 132.613 254.767 132.026 254.767 131.311C254.767 130.597 255.039 130.026 255.583 129.599C256.138 129.173 256.885 128.959 257.823 128.959C258.197 128.959 258.559 129.002 258.911 129.087C259.263 129.162 259.621 129.285 259.983 129.455V128.575C259.983 128.053 259.829 127.658 259.519 127.391C259.21 127.114 258.751 126.975 258.143 126.975C257.813 126.975 257.455 127.029 257.071 127.135C256.687 127.231 256.266 127.386 255.807 127.599L255.167 126.287C255.765 126.01 256.335 125.807 256.879 125.679C257.423 125.541 257.962 125.471 258.495 125.471C259.53 125.471 260.335 125.727 260.911 126.239C261.487 126.741 261.775 127.455 261.775 128.383V133.615H259.983V132.799C259.621 133.13 259.247 133.37 258.863 133.519C258.479 133.669 258.058 133.743 257.599 133.743ZM256.463 131.279C256.463 131.642 256.613 131.935 256.911 132.159C257.21 132.373 257.605 132.479 258.095 132.479C258.458 132.479 258.794 132.426 259.103 132.319C259.423 132.213 259.717 132.047 259.983 131.823V130.511C259.695 130.373 259.402 130.277 259.103 130.223C258.805 130.159 258.479 130.127 258.127 130.127C257.615 130.127 257.21 130.234 256.911 130.447C256.613 130.65 256.463 130.927 256.463 131.279ZM264.722 131.503V127.039H263.106V125.599H264.722V123.391L266.53 123.007V125.599H268.77V127.039H266.53V131.103C266.53 131.498 266.615 131.781 266.786 131.951C266.956 132.111 267.244 132.191 267.65 132.191C267.831 132.191 267.996 132.181 268.146 132.159C268.306 132.127 268.503 132.074 268.738 131.999V133.519C268.503 133.594 268.242 133.647 267.954 133.679C267.676 133.722 267.42 133.743 267.186 133.743C266.386 133.743 265.772 133.557 265.346 133.183C264.93 132.799 264.722 132.239 264.722 131.503ZM271.251 123.967C270.941 123.967 270.675 123.861 270.451 123.647C270.237 123.434 270.131 123.173 270.131 122.863C270.131 122.565 270.243 122.303 270.467 122.079C270.691 121.855 270.952 121.743 271.251 121.743C271.56 121.743 271.827 121.855 272.051 122.079C272.275 122.303 272.387 122.565 272.387 122.863C272.387 123.173 272.275 123.434 272.051 123.647C271.837 123.861 271.571 123.967 271.251 123.967ZM272.163 125.599V133.615H270.355V125.599H272.163ZM273.666 132.687L274.514 131.471C275.037 131.802 275.495 132.037 275.89 132.175C276.285 132.314 276.685 132.383 277.09 132.383C277.57 132.383 277.959 132.287 278.258 132.095C278.557 131.893 278.706 131.631 278.706 131.311C278.706 131.066 278.615 130.874 278.434 130.735C278.263 130.586 277.986 130.474 277.602 130.399L276.178 130.159C275.41 130.021 274.829 129.77 274.434 129.407C274.05 129.034 273.858 128.549 273.858 127.951C273.858 127.205 274.141 126.607 274.706 126.159C275.282 125.701 276.034 125.471 276.962 125.471C277.517 125.471 278.05 125.551 278.562 125.711C279.085 125.861 279.602 126.101 280.114 126.431L279.266 127.615C278.85 127.349 278.445 127.157 278.05 127.039C277.655 126.911 277.255 126.847 276.85 126.847C276.434 126.847 276.098 126.933 275.842 127.103C275.597 127.263 275.474 127.493 275.474 127.791C275.474 128.047 275.554 128.239 275.714 128.367C275.885 128.495 276.183 128.597 276.61 128.671L278.018 128.927C278.818 129.077 279.41 129.338 279.794 129.711C280.189 130.085 280.386 130.57 280.386 131.167C280.386 131.53 280.301 131.871 280.13 132.191C279.97 132.511 279.741 132.789 279.442 133.023C279.154 133.258 278.807 133.445 278.402 133.583C278.007 133.711 277.581 133.775 277.122 133.775C276.429 133.775 275.783 133.685 275.186 133.503C274.599 133.311 274.093 133.039 273.666 132.687ZM282.878 131.503V127.039H281.262V125.599H282.878V123.391L284.686 123.007V125.599H286.926V127.039H284.686V131.103C284.686 131.498 284.771 131.781 284.942 131.951C285.113 132.111 285.401 132.191 285.806 132.191C285.987 132.191 286.153 132.181 286.302 132.159C286.462 132.127 286.659 132.074 286.894 131.999V133.519C286.659 133.594 286.398 133.647 286.11 133.679C285.833 133.722 285.577 133.743 285.342 133.743C284.542 133.743 283.929 133.557 283.502 133.183C283.086 132.799 282.878 132.239 282.878 131.503ZM289.407 123.967C289.098 123.967 288.831 123.861 288.607 123.647C288.394 123.434 288.287 123.173 288.287 122.863C288.287 122.565 288.399 122.303 288.623 122.079C288.847 121.855 289.108 121.743 289.407 121.743C289.716 121.743 289.983 121.855 290.207 122.079C290.431 122.303 290.543 122.565 290.543 122.863C290.543 123.173 290.431 123.434 290.207 123.647C289.994 123.861 289.727 123.967 289.407 123.967ZM290.319 125.599V133.615H288.511V125.599H290.319ZM296.334 132.175C296.718 132.175 297.076 132.101 297.406 131.951C297.748 131.802 298.036 131.583 298.27 131.295L299.358 132.383C298.985 132.81 298.521 133.151 297.966 133.407C297.412 133.653 296.83 133.775 296.222 133.775C295.657 133.775 295.124 133.669 294.622 133.455C294.132 133.242 293.705 132.949 293.342 132.575C292.98 132.202 292.692 131.759 292.478 131.247C292.276 130.735 292.174 130.191 292.174 129.615C292.174 129.039 292.276 128.501 292.478 127.999C292.692 127.487 292.98 127.05 293.342 126.687C293.705 126.314 294.132 126.021 294.622 125.807C295.124 125.594 295.657 125.487 296.222 125.487C296.841 125.487 297.428 125.605 297.982 125.839C298.548 126.074 299.028 126.405 299.422 126.831L298.302 127.999C298.025 127.69 297.716 127.455 297.374 127.295C297.033 127.135 296.67 127.055 296.286 127.055C295.646 127.055 295.102 127.306 294.654 127.807C294.206 128.298 293.982 128.901 293.982 129.615C293.982 130.341 294.206 130.949 294.654 131.439C295.102 131.93 295.662 132.175 296.334 132.175ZM300.275 132.687L301.123 131.471C301.646 131.802 302.105 132.037 302.499 132.175C302.894 132.314 303.294 132.383 303.699 132.383C304.179 132.383 304.569 132.287 304.867 132.095C305.166 131.893 305.315 131.631 305.315 131.311C305.315 131.066 305.225 130.874 305.043 130.735C304.873 130.586 304.595 130.474 304.211 130.399L302.787 130.159C302.019 130.021 301.438 129.77 301.043 129.407C300.659 129.034 300.467 128.549 300.467 127.951C300.467 127.205 300.75 126.607 301.315 126.159C301.891 125.701 302.643 125.471 303.571 125.471C304.126 125.471 304.659 125.551 305.171 125.711C305.694 125.861 306.211 126.101 306.723 126.431L305.875 127.615C305.459 127.349 305.054 127.157 304.659 127.039C304.265 126.911 303.865 126.847 303.459 126.847C303.043 126.847 302.707 126.933 302.451 127.103C302.206 127.263 302.083 127.493 302.083 127.791C302.083 128.047 302.163 128.239 302.323 128.367C302.494 128.495 302.793 128.597 303.219 128.671L304.627 128.927C305.427 129.077 306.019 129.338 306.403 129.711C306.798 130.085 306.995 130.57 306.995 131.167C306.995 131.53 306.91 131.871 306.739 132.191C306.579 132.511 306.35 132.789 306.051 133.023C305.763 133.258 305.417 133.445 305.011 133.583C304.617 133.711 304.19 133.775 303.731 133.775C303.038 133.775 302.393 133.685 301.795 133.503C301.209 133.311 300.702 133.039 300.275 132.687Z" fill="#333333"/>
<path d="M353 18L192 179" stroke="#EE0701" stroke-width="3" stroke-linecap="round" stroke-linejoin="round"/>
</g>
<circle cx="120.338" cy="56.7835" r="27.8946" fill="white"/>
<path d="M120.176 149.338C118.676 151.14 116.837 152.569 114.963 153.94C107.687 159.277 99.6116 162.929 90.9019 165.212C86.5347 166.352 82.0749 167.101 77.5751 167.45C72.9607 167.822 68.323 167.801 63.712 167.388C55.6498 166.661 47.8175 164.84 40.2192 162.075C35.2738 160.276 30.3982 158.314 25.9516 155.43C20.0396 151.591 15.155 146.713 11.1878 140.904C11.14 140.833 11.1025 140.755 11.0586 140.682C12.4465 138.959 13.8951 137.279 15.721 135.987C16.4821 135.448 17.1347 134.913 16.9964 133.865L17.1631 134.843C18.522 133.921 20.0001 133.188 21.5567 132.665L21.8384 132.567L28.151 131.354L31.2394 130.708L32.29 130.357C33.6507 129.84 35.0464 129.386 36.3657 128.775C37.8621 128.081 39.2914 127.241 40.7503 126.465L39.9556 127.628C39.8509 128.453 39.6971 129.278 39.6532 130.107C39.5356 132.679 40.5409 134.785 42.3979 136.525C43.811 137.818 45.3772 138.933 47.0616 139.846C50.8336 141.947 54.6328 144.002 58.4332 146.048C58.8881 146.294 59.436 146.365 59.9413 146.517C60.7166 146.546 60.8601 145.891 61.0591 145.398C62.0153 143.028 62.9612 140.655 63.8361 138.254C64.5494 136.297 65.233 134.305 65.1503 132.187C65.1154 131.314 64.7807 130.454 64.583 129.588C64.5619 129.505 64.5364 129.423 64.5067 129.342C63.955 128.05 62.8914 127.228 61.7633 126.518C61.1831 126.152 60.957 125.674 60.8239 125.079C60.7761 124.87 60.7463 124.657 60.7089 124.445L65.7395 124.865C66.2422 124.968 66.741 125.087 67.2463 125.17C67.5299 125.2 67.8152 125.214 68.1005 125.211C68.5941 125.437 69.0774 125.694 69.5852 125.886C74.9054 127.873 79.6866 130.818 84.2095 134.178C86.9852 136.246 89.6368 138.468 92.3157 140.656C95.5281 143.279 98.7135 145.935 101.903 148.586C102.586 149.154 103.235 149.762 103.899 150.352C103.904 150.174 103.854 149.999 103.756 149.85C102.421 147.351 101.076 144.857 99.7499 142.355C99.0663 141.055 98.888 139.714 99.6013 138.349C100.286 139.184 100.971 140.018 101.69 140.895L102.049 140.677C102.259 140.576 102.46 140.455 102.648 140.317C104.545 138.662 105.945 136.6 107.322 134.526C107.873 133.696 107.895 132.835 107.299 131.999C107.835 132.44 108.494 132.793 108.891 133.335C112.057 137.673 115.193 142.033 118.297 146.415C118.971 147.359 119.555 148.362 120.176 149.338Z" fill="#29D305"/>
<path opacity="0.5" d="M120.177 149.338C119.555 148.361 118.975 147.354 118.304 146.411C115.189 142.038 112.054 137.678 108.898 133.331C108.502 132.789 107.843 132.436 107.306 131.995C107.177 131.827 107.059 131.649 106.953 131.464C106.349 130.233 105.769 128.99 105.153 127.763C103.194 123.824 100.84 120.094 98.1288 116.629C96.7074 114.831 95.4436 112.917 94.0764 111.073C93.761 110.672 93.3852 110.324 92.9625 110.039C92.0359 109.385 91.0732 108.783 90.1273 108.156C89.1814 107.529 88.3117 106.851 87.3374 106.32C85.3331 105.229 83.095 105.068 80.8762 104.874C80.7023 104.811 80.522 104.768 80.3386 104.745C79.5245 104.729 78.71 104.729 77.895 104.745C77.7115 104.767 77.5312 104.811 77.3574 104.874C76.0846 105.069 74.8531 105.383 73.7573 106.098C73.3696 106.439 73.1783 106.823 73.4988 107.312L73.628 107.541C73.6512 107.663 73.6949 107.78 73.7573 107.887C74.4034 108.638 75.1632 109.03 76.1983 108.762C76.8961 108.583 77.643 108.337 78.3318 108.418C79.9613 108.614 81.5792 108.948 83.1867 109.297C84.8576 109.66 86.2764 110.517 87.4743 111.737L86.3113 112.366L85.3809 113.038C84.3701 113.374 83.4442 113.926 82.6672 114.655C82.0508 115.301 81.3582 115.886 80.8348 116.593C80.0492 117.661 79.898 118.853 80.4989 120.1C80.5777 120.263 80.4833 120.545 80.3994 120.746C80.1164 121.416 79.7532 122.053 79.5129 122.736C79.2234 123.574 79.1355 124.443 79.5697 125.282C80.7625 127.02 82.631 127.69 84.4802 128.393H85.7725L86.4729 128.005L87.6178 127.201C87.937 127.562 88.2523 127.933 88.5831 128.288C89.52 129.293 90.5021 130.259 91.3937 131.303C92.8927 133.058 94.508 134.637 96.5252 135.825C97.6494 136.49 98.5785 137.487 99.5942 138.335C98.8809 139.698 99.0592 141.04 99.7428 142.341C101.062 144.848 102.407 147.342 103.749 149.836C103.847 149.984 103.897 150.159 103.892 150.337C103.228 149.748 102.579 149.139 101.896 148.572C98.7064 145.92 95.5211 143.265 92.3086 140.642C89.6375 138.468 86.9859 136.245 84.2102 134.178C79.6873 130.818 74.9061 127.873 69.5872 125.883C69.0794 125.692 68.5961 125.435 68.1024 125.208C67.9603 124.636 67.8186 124.063 67.6773 123.49C67.2465 121.982 66.8184 120.475 66.3928 118.967C66.261 117.423 66.1288 115.88 65.9961 114.337C66.3592 113.949 66.7572 113.578 67.079 113.155C67.7484 112.271 68.4875 111.414 69.0005 110.441C70.1235 108.312 70.568 105.976 70.7838 103.592L70.913 101.636C70.8794 101.128 70.8562 100.617 70.811 100.111C70.727 99.1596 70.6301 98.2098 70.5383 97.2587C71.2645 97.0119 72.0127 96.8103 72.7157 96.5066C74.9061 95.5672 75.7589 93.7309 75.9398 91.4979C76.0691 89.787 75.6465 88.1717 74.8169 86.6792C73.6875 84.6504 72.1148 83.1501 69.7668 82.6267C70.0382 78.4916 69.2086 74.6782 66.5091 71.4062C67.2845 71.5781 68.0598 71.719 68.8248 71.9231C70.9238 72.4832 72.9465 73.2978 74.8479 74.3487C77.2269 75.6887 78.7802 77.7964 79.9432 80.187C81.0506 82.4665 82.0263 84.8093 83.0717 87.1173C84.6521 90.6063 86.593 93.8485 89.2292 96.663C91.9506 99.5679 95.1321 101.832 98.6289 103.69C101.903 105.431 105.361 106.713 108.88 107.858C112.001 108.862 114.878 110.506 117.328 112.684C121.576 116.459 124.135 121.192 125.33 126.706C125.846 129.036 126.055 131.422 125.952 133.806C125.706 139.03 124.21 143.845 121.127 148.119C120.822 148.54 120.492 148.934 120.177 149.338Z" fill="#29D305"/>
<path d="M66.5066 71.4062C69.2061 74.6781 70.0357 78.4928 69.7643 82.6267C68.7467 82.4252 67.6913 82.5556 66.7534 82.9988L66.5492 82.6447C66.5492 82.1046 66.2507 81.7544 65.7558 81.7221C65.3203 81.7221 64.8719 81.6717 64.4532 81.7583C64.0888 81.8345 63.7593 82.0736 63.4194 82.2416C62.2862 81.9017 62.2862 81.9017 62.2564 80.9106C63.2476 79.6791 65.6576 79.4503 66.8762 80.4725C67.0299 80.6017 67.1747 80.7387 67.3233 80.8731C67.0739 79.9827 66.7844 79.1221 66.3438 78.3481C64.8293 75.6886 62.6971 73.9338 59.482 73.7929C56.3806 73.6572 53.3258 73.1636 50.3071 72.4658C48.4851 72.0471 46.6449 71.6995 44.9521 70.8544C44.7966 70.7996 44.6372 70.7564 44.4753 70.7252C45.3075 71.9192 44.797 72.7927 44.076 73.643C43.4647 74.3654 42.8122 75.0645 42.3095 75.8631C40.7239 78.37 39.1836 80.9028 37.6574 83.4498C36.5952 85.2163 35.6506 87.0577 34.5251 88.7816C33.4047 90.4679 32.1331 92.0509 30.9443 93.6817C29.652 93.9105 28.9219 95.005 27.861 95.5916C27.8713 95.6408 27.883 95.6912 27.8933 95.7403L28.3482 95.8307L27.5056 96.756C27.4203 96.7676 27.3002 96.7456 27.2575 96.7934C26.2741 97.8996 25.2907 99.0057 24.3293 100.13C24.0114 100.501 23.753 100.921 23.4247 101.373C23.4362 100.202 23.7189 99.0501 24.2505 98.0068C24.7054 97.07 24.9858 96.0439 25.2998 95.0437C25.7508 93.6107 26.1759 92.1866 27.1826 90.9952C28.0761 89.926 28.9146 88.8119 29.6947 87.6573C31.0748 85.6389 32.3644 83.5596 33.751 81.5451C34.5393 80.3988 35.4852 79.3625 36.2864 78.224C38.1213 75.6163 39.1099 72.6674 39.6216 69.5441C39.6307 69.4924 39.5777 69.4316 39.5131 69.2753C39.3942 69.4123 39.2701 69.4937 39.2443 69.5983C39.1758 69.8891 39.1693 70.1928 39.1022 70.4835C38.3178 73.8537 36.9054 76.9098 34.7357 79.6351C33.4564 81.244 32.3218 82.9678 31.1433 84.6542C29.9156 86.4116 28.7501 88.213 27.4875 89.9433C26.5752 91.1916 25.6022 92.3714 25.2067 93.9234C24.7932 95.5438 24.3409 97.154 23.5268 98.6452C23.3472 98.9721 23.2929 99.3779 23.227 99.7565C22.9221 101.479 22.5874 103.199 22.3612 104.933C22.2416 105.787 22.2534 106.654 22.3961 107.505C22.5111 108.237 22.5024 108.984 22.3703 109.713C22.2604 110.454 22.0537 111.203 22.0963 111.937C22.1984 113.665 22.3845 115.39 22.6132 117.106C22.798 118.486 22.6559 119.838 22.515 121.204C22.4255 122.028 22.4069 122.858 22.4595 123.685C22.5189 124.556 22.758 125.414 22.8303 126.285C22.9595 127.814 22.5086 129.25 22.0356 130.678C21.8224 131.325 21.7112 131.999 21.5536 132.661C19.997 133.184 18.5188 133.917 17.16 134.839C17.16 134.436 17.1742 134.034 17.16 133.632C17.1367 133.05 17.0902 132.469 17.0527 131.887C17.0825 131.575 17.1135 131.264 17.1432 130.954C17.1639 131.177 17.1833 131.401 17.213 131.729C17.3758 130.437 17.5322 129.251 17.6717 128.063C17.9 126.131 18.1214 124.198 18.3359 122.266C18.3902 121.776 18.4109 121.284 18.4742 120.795C18.5866 119.936 18.8115 119.081 18.827 118.221C18.9019 113.828 18.88 109.443 18.9911 105.057C19.0299 103.571 19.2999 102.085 19.57 100.612C19.8091 99.3094 20.2381 98.043 20.5082 96.7456C20.9501 94.6225 21.4321 92.5187 22.3819 90.5506C22.9867 89.2959 23.6031 88.0437 24.1523 86.7644C24.8372 85.1672 25.4445 83.5403 26.11 81.9314C26.844 80.1456 27.6051 78.3713 28.3365 76.5842C29.2127 74.4455 30.3046 72.44 31.8643 70.7122C32.2068 70.3323 32.5221 69.9279 32.8503 69.535L32.7431 69.4252C32.5908 69.52 32.4491 69.6309 32.3205 69.756C31.5943 70.6295 30.8318 71.4772 30.1741 72.3999C28.4335 74.8396 27.5418 77.6981 26.3517 80.4118C24.9418 83.6126 23.8034 86.9272 22.2165 90.0583C21.5958 91.282 21.1226 92.5751 20.8067 93.9105C19.9848 97.4137 18.9769 100.882 18.6008 104.484C18.6474 103.074 18.7481 101.668 18.8593 100.264C19.0169 98.3454 19.2547 96.4303 19.3348 94.5088C19.4447 91.8894 19.464 89.2649 19.4718 86.6429C19.4796 84.9398 19.6527 83.265 20.1308 81.629C20.6736 79.7747 21.2939 77.9436 22.2372 76.2482C22.6184 75.5646 23.0461 74.9068 23.4532 74.2388C21.5872 75.5788 21.3081 77.7937 20.4526 79.692C20.6839 78.0573 21.0806 76.4924 22.1958 75.2092C22.2475 75.1498 22.1958 75.005 22.1958 74.8991C23.1947 74.0268 24.1342 73.0809 25.2067 72.2978C26.8764 71.0574 28.7143 70.0614 30.6651 69.3399C31.002 69.2087 31.3118 69.0164 31.5788 68.7726C33.3052 67.2335 35.2965 66.1313 37.337 65.0678C40.1411 63.6062 43.183 63.3452 46.2224 62.9924C46.4591 63.0567 46.7 63.1042 46.9434 63.1346C48.6918 63.2302 50.4454 63.2548 52.1873 63.4215C53.2831 63.5261 54.3686 63.8001 55.4438 64.0676C57.1004 64.4733 58.7816 64.8248 60.2599 65.7539C60.4163 65.8509 60.636 65.847 60.8272 65.8896C62.3533 66.7735 63.5086 68.0619 64.6432 69.3787C65.2428 70.0687 65.8824 70.729 66.5066 71.4062ZM64.6264 71.432L64.6665 71.1865C64.4932 71.1241 64.3168 71.0711 64.1379 71.0275C62.6286 70.7329 61.1128 70.4771 59.6151 70.1488C57.7982 69.7521 56.0072 69.2288 54.1877 68.8889C52.7663 68.6305 51.3655 68.3798 50.1417 67.5463C49.8885 67.3882 49.6237 67.2495 49.3496 67.1315C48.4967 66.7244 47.649 66.307 46.7858 65.9258C46.0315 65.575 45.2585 65.2661 44.4701 65.0006C44.0437 64.8713 43.5578 64.9153 43.0977 64.8817L43.0771 65.1117C43.2464 65.144 43.4156 65.1724 43.5836 65.2099C44.1845 65.3391 44.8203 65.3934 45.3772 65.6312C46.5958 66.1481 47.7756 66.7619 48.9658 67.3473C49.9634 67.8383 50.9209 68.4327 51.9573 68.8204C52.743 69.1137 53.6372 69.1267 54.4617 69.314C57.2568 69.9421 60.0428 70.6063 62.8392 71.2266C63.4117 71.3558 64.0229 71.3674 64.6238 71.432H64.6264ZM65.2609 70.7058C64.6542 69.8814 63.8338 69.2384 62.8883 68.8463C61.0663 68.1019 59.1925 67.4817 57.3317 66.8187C54.2846 65.7294 51.222 64.693 48.0573 63.9887C47.9165 63.9577 47.7692 63.95 47.6244 63.9319C47.6736 64.087 47.7407 64.1399 47.8157 64.1593C48.9309 64.4514 50.0668 64.6762 51.1613 65.0367C53.9741 65.9516 56.7769 66.8993 59.5699 67.8797C60.802 68.3121 62.0098 68.8108 63.1881 69.3735C63.9221 69.7276 64.5682 70.2561 65.2583 70.7058H65.2609ZM66.2158 71.6181L66.1241 71.7189C66.3929 71.9773 66.6625 72.2358 66.933 72.4942L66.9873 72.4283L66.2158 71.6181Z" fill="#262626"/>
<path opacity="0.5" d="M17.1433 130.963C17.1136 131.273 17.0826 131.584 17.0529 131.896C17.0339 132.553 17.015 133.211 16.996 133.87C17.1343 134.918 16.4791 135.453 15.7206 135.992C13.8998 137.284 12.4512 138.953 11.0685 140.682C10.3294 139.519 9.55144 138.392 8.85621 137.209C6.68775 133.493 4.94846 129.541 3.67177 125.432C2.67405 122.283 1.94987 119.054 1.50727 115.78C1.10012 112.886 0.937586 109.963 1.02139 107.041C1.15062 103.164 1.70757 99.3573 2.84086 95.6409C3.97415 91.9244 5.62046 88.4715 7.98266 85.3805C11.2727 81.0735 15.4867 78.0458 20.6362 76.3349C20.7211 76.3154 20.8076 76.3042 20.8947 76.3013C20.4825 76.8492 20.0573 77.3855 19.6632 77.945C18.2546 79.9467 17.4664 82.2378 16.9379 84.5742C16.1605 87.8774 16.2076 91.3211 17.0748 94.6019C17.3449 95.615 17.655 96.641 17.7287 97.6761C17.8243 99.0239 17.7287 100.39 17.668 101.741C17.4858 106.22 17.5504 110.694 17.7571 115.17C17.9448 118.806 17.8822 122.45 17.5698 126.077C17.416 127.705 17.2816 129.335 17.1433 130.963Z" fill="#29D305"/>
<path d="M17.1424 130.963C17.2845 129.334 17.4189 127.705 17.5688 126.077C17.8812 122.45 17.9438 118.806 17.7562 115.17C17.5494 110.694 17.4848 106.22 17.667 101.741C17.7226 100.387 17.8234 99.0276 17.7277 97.6759C17.6541 96.6421 17.3401 95.6148 17.0739 94.6017C16.2066 91.3209 16.1596 87.8772 16.9369 84.5739C17.4693 82.2376 18.2537 79.9464 19.6622 77.9448C20.0499 77.3852 20.4815 76.8489 20.8937 76.301L22.1989 74.899C22.1989 75.0049 22.2493 75.1497 22.1989 75.2091C21.0837 76.4923 20.687 78.052 20.4556 79.6919C21.3111 77.7936 21.5902 75.5787 23.4562 74.2386C23.0492 74.9067 22.6214 75.5645 22.2402 76.248C21.293 77.9435 20.6766 79.7746 20.1339 81.6289C19.6557 83.2649 19.4878 84.9396 19.4748 86.6428C19.4645 89.2647 19.4477 91.8893 19.3379 94.5086C19.2577 96.4302 19.02 98.3453 18.8623 100.264C18.746 101.668 18.6452 103.074 18.6039 104.483C18.9799 100.882 19.9879 97.4136 20.8097 93.9103C21.1256 92.575 21.5988 91.2819 22.2195 90.0582C23.809 86.9271 24.9474 83.6125 26.3547 80.4116C27.5448 77.7057 28.4365 74.846 30.1771 72.3998C30.8349 71.4771 31.5986 70.6294 32.3235 69.7559C32.4521 69.6308 32.5938 69.5199 32.7461 69.425L32.8533 69.5349C32.5251 69.9226 32.2072 70.3322 31.8674 70.7121C30.3076 72.4398 29.2157 74.4454 28.3396 76.584C27.6082 78.3712 26.847 80.1454 26.113 81.9313C25.4527 83.5401 24.8402 85.1619 24.1553 86.7643C23.6061 88.0436 22.9923 89.2958 22.3849 90.5505C21.4352 92.5186 20.9532 94.6223 20.5112 96.7455C20.2411 98.0377 19.8121 99.3093 19.573 100.612C19.303 102.081 19.0329 103.571 18.9941 105.057C18.883 109.443 18.905 113.833 18.83 118.221C18.8145 119.08 18.5897 119.936 18.4772 120.795C18.4139 121.284 18.3932 121.776 18.339 122.266C18.1219 124.198 17.9005 126.13 17.6748 128.063C17.5352 129.25 17.3788 130.435 17.216 131.729C17.1785 131.41 17.1591 131.186 17.1424 130.963Z" fill="black"/>
<path d="M60.8275 65.8858C60.6362 65.8431 60.4166 65.847 60.2602 65.7501C58.7819 64.821 57.1007 64.4695 55.444 64.0637C54.3689 63.8053 53.2834 63.5262 52.1876 63.4176C50.4457 63.2509 48.6921 63.2264 46.9437 63.1307C46.7003 63.1003 46.4594 63.0528 46.2227 62.9886C46.3519 62.9408 46.4811 62.849 46.6103 62.8516C49.6846 62.9136 52.7549 63.0196 55.7593 63.7833C57.5465 64.2434 59.3091 64.7667 60.8275 65.8858Z" fill="#070707"/>
<path d="M59.9427 146.515C59.4374 146.362 58.8895 146.291 58.4346 146.046C54.6303 144.001 50.8311 141.947 47.0629 139.843C45.3786 138.93 43.8124 137.815 42.3993 136.522C40.5423 134.782 39.537 132.676 39.6546 130.105C39.6933 129.275 39.8523 128.45 39.9569 127.625C40.824 127.552 41.6717 127.528 42.1537 128.467C42.1615 128.481 42.23 128.467 42.3812 128.458C43.1294 122.948 42.2003 117.733 39.5176 112.789C39.9931 112.789 40.4066 112.804 40.7698 112.946C43.4899 114.005 46.2269 115.027 48.9108 116.177C51.6504 117.361 54.5049 118.096 57.4112 118.666C58.5199 118.883 59.5524 118.631 60.3342 117.717C60.4113 117.643 60.4947 117.575 60.5836 117.516C60.5836 117.601 60.5836 117.687 60.5746 117.774C60.4014 119.998 60.342 122.221 60.7206 124.434C60.7581 124.646 60.7878 124.859 60.8356 125.069C60.9648 125.663 61.1948 126.141 61.775 126.507C62.9032 127.218 63.9718 128.04 64.5185 129.332C64.5481 129.412 64.5736 129.494 64.5947 129.577C64.6154 129.745 64.6257 129.917 64.6619 130.084C64.8002 130.73 65.087 131.376 65.0651 132.022C65.0134 133.548 64.6037 135.025 64.0507 136.447C63.203 138.624 62.3152 140.787 61.4352 142.953C60.9416 144.147 60.4324 145.33 59.9427 146.515Z" fill="#FED7CB"/>
<path d="M73.7618 106.107C74.8576 105.392 76.0878 105.073 77.3619 104.883H80.8807C83.1007 105.077 85.3389 105.238 87.3418 106.329C88.3162 106.86 89.2027 107.55 90.1318 108.165C91.0609 108.78 92.0404 109.394 92.967 110.048C93.3897 110.333 93.7655 110.682 94.0809 111.082C95.448 112.921 96.717 114.829 98.1333 116.639C100.845 120.103 103.198 123.834 105.158 127.772C105.773 128.999 106.353 130.242 106.958 131.473C107.062 131.656 107.178 131.832 107.306 131.999C107.901 132.835 107.879 133.696 107.329 134.526C105.951 136.6 104.552 138.661 102.655 140.317C102.467 140.456 102.266 140.576 102.055 140.677C100.812 138.997 99.4346 137.436 97.8051 136.115C97.0388 135.492 96.1743 134.971 95.4907 134.271C93.3856 132.11 91.3426 129.906 89.2996 127.695C87.7629 126.041 86.3986 124.234 85.2278 122.304C84.8918 121.747 84.3736 121.291 83.8955 120.834C83.7572 120.705 83.4651 120.732 83.2493 120.688C83.2132 120.903 83.1615 121.115 83.146 121.335C83.1356 121.482 83.2028 121.636 83.186 121.78C83.1395 122.156 83.2661 122.406 83.5737 122.653C84.2325 123.15 84.7089 123.851 84.9292 124.647C84.9964 124.905 84.9641 125.201 84.9771 125.479L84.7483 125.568C84.0919 124.822 83.4354 124.075 82.81 123.362C82.5515 123.692 82.2724 124.068 81.9145 124.541C82.3499 124.882 82.8061 125.302 83.3204 125.629C84.1371 126.145 84.8711 126.836 85.9824 126.767C86.5962 126.73 86.7901 127.315 86.4993 128.017L85.7989 128.404H84.5067C82.6575 127.701 80.7889 127.032 79.5962 125.294C79.4463 124.538 79.8546 123.872 79.9451 123.168C80.1092 121.979 80.6662 121.002 81.3989 120.133C81.7698 119.695 82.041 119.182 82.1936 118.629C82.5218 117.498 82.9043 116.384 83.2571 115.26C83.2822 115.108 83.2922 114.954 83.2868 114.801L80.8742 117.385L80.7915 117.305L82.6795 114.665C83.4565 113.937 84.3823 113.385 85.3932 113.049L86.3236 112.377L87.4866 111.747C87.5228 111.644 87.6158 111.466 87.5861 111.449C86.604 110.763 85.6749 109.958 84.6062 109.447C82.7156 108.543 80.6196 108.323 78.5676 108.009C78.1052 107.939 77.6324 107.997 77.2004 108.176C76.646 108.421 76.1666 108.713 75.505 108.553C74.9209 108.411 74.3497 108.342 74.0112 107.754C73.9504 107.651 73.7669 107.617 73.639 107.552L73.5098 107.323C73.5925 106.912 73.6765 106.511 73.7618 106.107Z" fill="#FED7CB"/>
<path d="M21.5547 132.67C21.7123 132.008 21.8235 131.331 22.0367 130.688C22.5096 129.256 22.9593 127.819 22.8314 126.294C22.759 125.423 22.52 124.565 22.4605 123.694C22.408 122.867 22.4266 122.037 22.5161 121.213C22.657 119.847 22.7991 118.499 22.6143 117.115C22.3856 115.399 22.1995 113.674 22.0974 111.946C22.0548 111.212 22.2615 110.463 22.3714 109.722C22.5035 108.993 22.5122 108.246 22.3972 107.514C22.2545 106.664 22.2427 105.796 22.3623 104.942C22.5885 103.208 22.9232 101.488 23.2281 99.7657C23.294 99.387 23.3483 98.9813 23.5279 98.6543C24.3407 97.167 24.793 95.553 25.2078 93.9325C25.6033 92.3818 26.5763 91.2007 27.4886 89.9524C28.7511 88.2221 29.9167 86.4208 31.1444 84.6633C32.3229 82.9769 33.4575 81.2531 34.7368 79.6443C36.9026 76.9189 38.3189 73.8628 39.1032 70.4927C39.1704 70.2019 39.1769 69.8982 39.2454 69.6075C39.2712 69.5028 39.3953 69.4214 39.5142 69.2844C39.5788 69.4408 39.6318 69.5015 39.6227 69.5532C39.1058 72.6765 38.1224 75.6267 36.2875 78.2332C35.4863 79.3716 34.5404 80.408 33.7521 81.5542C32.3655 83.5688 31.0759 85.648 29.6958 87.6665C28.9138 88.8194 28.0737 89.9317 27.1785 90.9991C26.1718 92.1906 25.7467 93.6146 25.2957 95.0477C24.9817 96.0479 24.7013 97.0739 24.2464 98.0108C23.7179 99.0548 23.4384 100.207 23.4297 101.377C23.7541 100.925 24.0125 100.505 24.3343 100.134C25.2957 99.0097 26.2791 97.9036 27.2625 96.7974C27.3051 96.7496 27.4253 96.7716 27.5106 96.7599C26.9937 97.7937 26.535 98.8663 26.796 100.027C27.4421 102.884 28.8338 105.196 31.7246 106.312C31.9326 106.528 32.1355 106.749 32.35 106.958C34.2793 108.831 36.219 110.684 37.7541 112.923C39.7726 115.867 41.4021 118.945 41.6877 122.587C41.7976 123.987 41.7394 125.338 40.7534 126.463C39.2945 127.239 37.8653 128.08 36.3689 128.774C35.0495 129.385 33.6552 129.835 32.2932 130.355C31.7091 128.28 31.5424 126.068 30.3367 124.191C30.4026 125.114 30.5525 126.012 30.6882 126.913C30.8782 128.177 31.0578 129.442 31.2426 130.707L28.1541 131.353C28.0249 130.275 27.782 129.196 27.7858 128.122C27.7936 125.807 27.9939 123.491 27.9939 121.175C27.9939 118.989 27.8647 116.801 27.7354 114.617C27.6799 113.677 27.477 112.745 27.3478 111.88C26.902 111.911 26.4988 112.055 26.1977 111.937C25.5986 111.713 25.038 111.398 24.5359 111.002C23.9117 110.485 23.3884 109.852 22.7784 109.224C22.7125 109.752 22.5988 110.257 22.5988 110.759C22.5988 111.614 22.6557 112.472 22.728 113.326C22.8094 114.372 22.9749 115.412 23.0149 116.457C23.0653 117.783 23.0834 119.117 23.0149 120.44C22.9413 121.787 22.719 123.122 23.0731 124.464C23.5374 126.174 23.4469 127.986 22.8146 129.641C22.4554 130.605 22.1685 131.593 21.8454 132.57L21.5547 132.67Z" fill="black"/>
<path d="M40.7476 126.465C41.7336 125.333 41.7917 123.982 41.6819 122.588C41.3963 118.946 39.7668 115.868 37.7483 112.925C36.2131 110.685 34.2735 108.832 32.3442 106.96C32.1297 106.752 31.9268 106.531 31.7188 106.314C32.4011 106.356 33.0834 106.395 33.7657 106.443C34.563 106.498 35.1173 106.118 35.5321 105.479C35.9793 104.79 36.093 104.047 35.8294 103.172C37.6902 104.688 39.4618 106.137 41.2438 107.573C41.4091 107.683 41.593 107.762 41.7866 107.806C41.9907 107.868 42.2363 107.847 42.4107 107.952C43.2946 108.478 44.1203 109.115 45.0417 109.564C48.3304 111.147 51.6192 112.736 54.9687 114.182C56.9341 115.031 59.0263 115.594 61.1985 115.603C62.2426 115.603 63.2855 115.434 64.3296 115.345L61.8614 115.991H60.7682C60.6984 116.538 60.639 117.037 60.5731 117.534C60.4842 117.594 60.4007 117.661 60.3237 117.736C59.5483 118.649 58.5145 118.899 57.4006 118.684C54.4944 118.114 51.6399 117.379 48.9003 116.195C46.2215 115.039 43.4846 114.017 40.7592 112.965C40.3961 112.823 39.9839 112.81 39.5071 112.807C42.1897 117.758 43.1189 122.967 42.3707 128.477C42.2195 128.484 42.151 128.5 42.1432 128.486C41.6625 127.546 40.8148 127.571 39.9464 127.643L40.7476 126.465Z" fill="#FFC6B4"/>
<path d="M21.8359 132.572C22.1564 131.595 22.4459 130.606 22.8051 129.642C23.4374 127.988 23.5279 126.175 23.0636 124.465C22.7095 123.123 22.9343 121.788 23.0054 120.441C23.0791 119.118 23.061 117.785 23.0054 116.459C22.9653 115.413 22.7999 114.373 22.7185 113.328C22.6513 112.474 22.5971 111.615 22.5893 110.76C22.5893 110.256 22.703 109.753 22.7689 109.225C23.3789 109.853 23.9022 110.489 24.5264 111.003C25.0285 111.399 25.5891 111.715 26.1882 111.939C26.4893 112.056 26.8924 111.913 27.3383 111.882C27.4675 112.746 27.673 113.678 27.7259 114.619C27.8552 116.803 27.9844 118.99 27.9844 121.177C27.9844 123.492 27.7841 125.808 27.7763 128.124C27.7763 129.203 28.0141 130.282 28.1446 131.354L21.8359 132.572Z" fill="#262626"/>
<path d="M60.5739 117.525C60.6373 117.027 60.7032 116.529 60.7691 115.982H61.8623C62.3004 116.354 62.7927 116.574 63.3833 116.512C64.315 116.414 64.9817 116.863 65.4974 117.577C65.8191 118.022 66.0957 118.501 66.3929 118.966C66.8236 120.474 67.2518 121.982 67.6774 123.489C67.0519 123.839 66.4226 124.181 65.8062 124.547C65.7442 124.583 65.761 124.752 65.7416 124.861L60.7109 124.441C60.3323 122.227 60.3917 120.005 60.5649 117.781C60.5714 117.697 60.5714 117.61 60.5739 117.525Z" fill="#262626"/>
<path d="M86.4872 128.011C86.7792 127.31 86.5854 126.719 85.9703 126.762C84.8564 126.83 84.125 126.144 83.3083 125.623C82.7914 125.296 82.3378 124.876 81.9023 124.535C82.2603 124.062 82.5485 123.686 82.7979 123.357C83.4272 124.07 84.0836 124.817 84.7362 125.563L84.9649 125.473C84.952 125.196 84.9843 124.906 84.9171 124.641C84.6975 123.846 84.222 123.145 83.5642 122.647C83.2566 122.4 83.13 122.151 83.1765 121.775C83.1933 121.63 83.1261 121.477 83.1364 121.329C83.1519 121.115 83.2036 120.903 83.2398 120.683C83.4621 120.727 83.7567 120.697 83.8859 120.829C84.364 121.285 84.8822 121.741 85.2182 122.298C86.389 124.229 87.7533 126.035 89.29 127.69C91.3421 129.906 93.3851 132.11 95.4915 134.267C96.1751 134.967 97.0422 135.488 97.8059 136.111C99.4354 137.432 100.813 138.99 102.056 140.673L101.697 140.898C100.978 140.02 100.293 139.187 99.6085 138.352C98.5928 137.504 97.6702 136.507 96.5395 135.842C94.5223 134.65 92.907 133.07 91.408 131.319C90.5164 130.275 89.5343 129.31 88.5974 128.305C88.2666 127.949 87.9513 127.578 87.6321 127.218L86.4872 128.011Z" fill="#FFC6B4"/>
<path d="M59.9434 146.515C60.4383 145.33 60.9423 144.147 61.4256 142.958C62.3056 140.793 63.1933 138.629 64.041 136.452C64.5941 135.031 65.0038 133.554 65.0555 132.027C65.0774 131.381 64.797 130.735 64.6523 130.089C64.6161 129.922 64.6058 129.751 64.5851 129.583C64.7828 130.448 65.1175 131.309 65.1524 132.181C65.2351 134.299 64.5515 136.292 63.8382 138.248C62.9633 140.649 62.0174 143.029 61.0611 145.393C60.8621 145.888 60.7135 146.543 59.9434 146.515Z" fill="#FC807E"/>
<path d="M31.2379 130.708C31.0531 129.443 30.8735 128.178 30.6835 126.914C30.5543 126.01 30.3979 125.115 30.332 124.193C31.5377 126.069 31.7044 128.281 32.2885 130.357L31.2379 130.708Z" fill="#252625"/>
<path d="M65.7422 124.862C65.7616 124.753 65.7422 124.584 65.8068 124.548C66.4232 124.182 67.0525 123.84 67.6779 123.49C67.8184 124.063 67.9601 124.636 68.1031 125.208C67.8178 125.211 67.5326 125.198 67.2489 125.167C66.7437 125.084 66.2487 124.965 65.7422 124.862Z" fill="#010201"/>
<path d="M16.9922 133.87C17.012 133.212 17.031 132.554 17.049 131.896C17.0865 132.477 17.133 133.059 17.1563 133.641C17.1731 134.043 17.1563 134.445 17.1563 134.848L16.9922 133.87Z" fill="#010101"/>
<path d="M64.331 115.336C63.2869 115.428 62.2441 115.594 61.1999 115.594C59.0277 115.586 56.9356 115.023 54.9701 114.173C51.6206 112.727 48.3319 111.141 45.0431 109.558C44.1218 109.115 43.296 108.473 42.4121 107.947C42.2377 107.842 41.9922 107.863 41.788 107.801C41.5945 107.757 41.4105 107.678 41.2452 107.568C39.4632 106.136 37.6903 104.683 35.8308 103.164C36.0892 104.039 35.9807 104.782 35.5336 105.471C35.1188 106.11 34.5644 106.49 33.7671 106.435C33.0848 106.387 32.4025 106.348 31.7202 106.306C28.8294 105.19 27.4364 102.877 26.7916 100.02C26.5331 98.8572 26.9867 97.782 27.5062 96.7534L28.3487 95.8282C28.9044 95.6835 29.4601 95.5413 30.0131 95.3927L47.7452 90.6411C48.2336 90.5119 48.7247 90.3905 49.23 90.2612C49.2661 90.4421 49.2972 90.5455 49.3062 90.6489C49.4715 92.9266 50.4921 95.0575 52.1633 96.6139C53.2139 97.614 54.4532 98.2938 55.9108 98.4514C58.5793 98.7396 61.9934 96.9188 62.4108 93.581C62.5115 92.7759 62.5206 91.9605 62.5723 91.149C63.2959 93.5332 64.5468 95.6589 65.8029 97.7846C66.6066 99.1466 66.5175 99.3883 65.0275 99.9582L63.7547 100.441C63.7689 100.488 63.7831 100.535 63.7986 100.58C64.7239 100.544 65.6543 100.492 66.5123 100.063C67.139 99.7488 67.36 99.2449 67.1869 98.5574C67.0952 98.2501 66.9649 97.9557 66.7992 97.6812C66.2448 96.6875 65.6762 95.7015 65.1128 94.7091C65.2924 94.859 65.4811 94.9973 65.6478 95.1588C66.5524 96.0453 67.5862 96.7289 68.8383 97.0028C69.394 97.1243 69.9665 97.1747 70.5312 97.2613C70.6229 98.2124 70.7198 99.1621 70.8038 100.113C70.849 100.62 70.8723 101.13 70.9059 101.638L70.7767 103.595C70.5609 105.976 70.1164 108.312 68.9934 110.443C68.4765 111.415 67.7412 112.272 67.0718 113.157C66.7501 113.581 66.3521 113.947 65.989 114.339L64.331 115.336ZM61.4881 104.998L62.2247 105.033H65.0082L65.4863 105.003C66.2719 104.915 66.9891 104.654 67.5474 104.083C67.6689 103.954 67.6378 103.684 67.6766 103.478C67.4879 103.501 67.236 103.452 67.1222 103.557C66.4063 104.203 65.5354 104.375 64.6244 104.396C63.7133 104.416 62.7855 104.388 61.8667 104.381C61.4791 104.352 61.0914 104.309 60.7128 104.3C60.5228 104.3 60.2295 104.237 60.3419 104.617L61.4881 104.998ZM28.2466 99.4413L27.8835 99.6442L27.9313 99.8677H29.7922L30.4577 100.059C29.3942 100.92 29.1758 101.978 29.9408 102.738C29.9974 102.459 30.0375 102.177 30.0609 101.894C30.092 100.697 31.6788 100.045 32.4865 100.85C32.8496 101.212 33.245 101.542 33.634 101.877C33.789 102.006 33.97 102.116 34.2142 102.288C33.9221 99.8638 30.6605 98.3829 28.2441 99.4348L28.2466 99.4413Z" fill="#FED7CB"/>
<path d="M62.5811 91.1465C62.5294 91.958 62.5204 92.7734 62.4196 93.5784C62.0022 96.9163 58.5881 98.737 55.9196 98.4489C54.4568 98.2899 53.2176 97.6115 52.1722 96.6113C50.5007 95.0568 49.4787 92.9279 49.3111 90.6515C49.3021 90.5456 49.2711 90.4422 49.2349 90.2639C48.7296 90.3931 48.2386 90.5133 47.7501 90.6438L30.0129 95.3953C29.4598 95.5439 28.9042 95.6861 28.3485 95.8308L27.8936 95.7403C27.8833 95.6912 27.8717 95.6408 27.8613 95.5917C28.9223 95.0051 29.6498 93.9118 30.9446 93.6818C31.1312 93.6722 31.3169 93.6493 31.5003 93.6133C37.1732 92.082 42.859 90.5339 48.5371 89.0246C49.1535 88.8605 49.4417 88.6111 49.5786 87.9676C50.1589 85.343 52.7575 83.8324 55.0745 83.6722C56.9974 83.5429 58.5636 84.423 59.8842 85.7501C60.2163 86.0848 60.5226 86.223 60.9542 86.0085L61.3793 85.9762C61.9776 85.9413 62.5811 85.9336 63.173 85.8547C63.3996 85.7982 63.6027 85.6716 63.7532 85.4929C64.2623 84.9515 64.6965 84.3299 65.2535 83.844C65.6786 83.4745 66.2472 83.2703 66.7512 82.9937C67.6891 82.5505 68.7445 82.4201 69.7621 82.6216C72.1101 83.1449 73.6827 84.6452 74.8121 86.674C75.6417 88.1743 76.0695 89.787 75.9403 91.4979C75.7645 93.7245 74.9065 95.5672 72.7213 96.5092C72.0183 96.8129 71.2701 97.0145 70.5439 97.2613C69.9792 97.1799 69.4067 97.1321 68.851 97.0029C67.5963 96.7289 66.569 96.0453 65.6605 95.1588C65.4938 94.9973 65.3051 94.859 65.1255 94.7091L62.9468 89.8064C63.0166 88.7972 63.0864 87.7866 63.16 86.705L61.7696 86.9079L61.3147 86.9247H60.8482L61.462 87.7182C62.05 88.7792 62.4298 89.9428 62.5811 91.1465ZM69.6742 89.0143L73.056 87.0165C72.2509 85.6299 71.1396 84.7124 69.7659 84.0857L68.099 83.7885C67.8265 83.6933 67.5348 83.6671 67.2498 83.7122C66.9647 83.7573 66.6953 83.8723 66.4656 84.0469C65.561 84.693 65.0157 85.6092 64.7262 86.6779C64.168 88.7455 64.5595 90.6993 65.5907 92.5085C66.578 94.2401 67.9555 95.5569 70.005 95.9755C70.2514 95.9716 70.4977 95.9819 70.7429 96.0065C71.8645 96.1836 72.6179 95.6344 73.2485 94.7918C74.3107 93.3704 74.4374 91.7551 74.219 90.0817C74.1402 89.4833 73.9308 88.9018 73.759 88.2234L69.5411 90.7963C69.5859 90.2053 69.6303 89.6121 69.6742 89.0168V89.0143ZM61.0795 92.5602C61.0899 90.6278 60.4222 88.7529 59.1929 87.262C58.2263 86.0641 57.0129 85.1944 55.4725 84.8752C54.2927 84.6349 53.1013 84.6168 52.2833 85.6635C51.7482 86.3284 51.3348 87.0826 51.0621 87.8913C50.4083 89.9847 50.8735 91.9903 51.9447 93.8356C52.9617 95.584 54.4 96.9215 56.4546 97.2949C58.2392 97.6193 58.9525 97.3867 59.9928 96.0027C60.75 94.9779 61.0356 93.8046 61.0795 92.5602Z" fill="#29D205"/>
<path d="M82.6786 114.665L80.7765 117.297L80.8592 117.377L83.2718 114.793C83.2771 114.946 83.2672 115.1 83.242 115.252C82.8893 116.376 82.5068 117.49 82.1785 118.621C82.026 119.174 81.7548 119.687 81.3838 120.125C80.6511 120.994 80.0916 121.971 79.9301 123.16C79.8332 123.867 79.4313 124.53 79.5812 125.286C79.147 124.447 79.2349 123.578 79.5243 122.74C79.7608 122.057 80.1278 121.42 80.4108 120.75C80.4948 120.554 80.5891 120.272 80.5103 120.104C79.9094 118.857 80.0606 117.664 80.8463 116.597C81.367 115.895 82.0622 115.311 82.6786 114.665Z" fill="#FFC6B4"/>
<path d="M64.3295 115.336L65.9952 114.336C66.1287 115.879 66.261 117.422 66.3919 118.966C66.0947 118.501 65.8181 118.022 65.4964 117.577C64.9795 116.863 64.314 116.414 63.3823 116.512C62.7917 116.574 62.2994 116.354 61.8613 115.982L64.3295 115.336Z" fill="#010100"/>
<path d="M73.6367 107.55C73.7659 107.616 73.9469 107.649 74.0076 107.753C74.3462 108.341 74.9122 108.409 75.5014 108.551C76.1656 108.712 76.6425 108.422 77.1968 108.174C77.6289 107.995 78.1016 107.937 78.564 108.007C80.6161 108.321 82.7121 108.545 84.6026 109.446C85.6713 109.956 86.6004 110.761 87.5825 111.447C87.6071 111.464 87.5192 111.642 87.483 111.746C86.2851 110.526 84.8662 109.669 83.1954 109.306C81.5878 108.957 79.9648 108.622 78.3405 108.427C77.6517 108.346 76.9048 108.591 76.207 108.771C75.1732 109.038 74.4108 108.642 73.7659 107.896C73.703 107.789 73.6593 107.672 73.6367 107.55Z" fill="#FFAEAE"/>
<path d="M80.8801 104.883H77.3613C77.5351 104.82 77.7154 104.776 77.8989 104.754C78.713 104.741 79.5275 104.741 80.3425 104.754C80.5259 104.777 80.7061 104.82 80.8801 104.883Z" fill="#CCB9A1"/>
<path d="M70.7832 103.595C70.8254 102.943 70.8685 102.291 70.9124 101.638L70.7832 103.595Z" fill="#B4BA8D"/>
<path d="M73.7622 106.107C73.6769 106.511 73.5929 106.917 73.5037 107.321C73.1833 106.832 73.3745 106.448 73.7622 106.107Z" fill="#C78B74"/>
<path d="M86.321 112.375L85.3906 113.047L86.321 112.375Z" fill="#DC9888"/>
<path d="M60.949 86.0136C60.5174 86.223 60.2112 86.0847 59.8791 85.7552C58.5571 84.4281 56.9922 83.5493 55.0694 83.6773C52.7524 83.8323 50.1589 85.3481 49.5735 87.9727C49.4313 88.6188 49.1483 88.8656 48.532 89.0297C42.8461 90.5391 37.1732 92.0872 31.4951 93.6185C31.3118 93.6544 31.1261 93.6773 30.9395 93.6869C32.1335 92.0561 33.3947 90.4731 34.5021 88.7842C35.6277 87.0604 36.5697 85.2189 37.6345 83.4524C39.1619 80.9093 40.7023 78.3727 42.2866 75.8657C42.7893 75.071 43.4418 74.368 44.0531 73.6457C44.7741 72.7941 45.2846 71.9218 44.4524 70.7278C44.6143 70.7591 44.7737 70.8022 44.9292 70.857C46.622 71.7021 48.4622 72.0497 50.2842 72.4684C53.3081 73.1662 56.3577 73.6599 59.4591 73.7956C62.6742 73.9364 64.8064 75.6913 66.3209 78.3507C66.7615 79.126 67.051 79.9854 67.3004 80.8757C67.1518 80.7465 67.007 80.6043 66.8533 80.4751C65.6347 79.453 63.2247 79.6817 62.2335 80.9132C61.9156 81.2724 62.0358 81.6433 62.262 81.9664C62.5437 82.3708 62.952 82.4303 63.4004 82.2442C63.7454 82.0762 64.075 81.8371 64.4342 81.7609C64.8529 81.6743 65.3013 81.7299 65.7368 81.7247L66.5302 82.6474L66.7344 83.0014C66.2304 83.278 65.6618 83.4822 65.2367 83.8517C64.6797 84.335 64.2455 84.9592 63.7364 85.5006C63.5859 85.6793 63.3828 85.8059 63.1562 85.8624C62.5643 85.9413 61.9609 85.949 61.3626 85.9839L61.0524 85.3636L60.8612 85.4334C60.9012 85.6247 60.9271 85.8185 60.949 86.0136ZM52.2032 80.9933H53.3055C53.7758 81.1367 54.2436 81.2866 54.7153 81.4223C55.3071 81.5942 55.8783 81.35 56.0463 80.8628C56.2143 80.3756 55.9171 79.7954 55.3407 79.5977C52.3182 78.5639 49.6639 79.4026 47.975 82.124C47.8755 82.2855 47.7566 82.4923 47.7812 82.659C47.8212 82.933 47.9 83.3051 48.0939 83.4253C48.2877 83.5455 48.6547 83.477 48.9196 83.402C49.0799 83.3568 49.2143 83.1578 49.3228 83.0014C50.0361 81.9715 50.9652 81.2621 52.2071 80.9933H52.2032Z" fill="#FED7CB"/>
<path d="M64.6241 71.4322C64.0232 71.3675 63.412 71.3559 62.8266 71.2267C60.0302 70.6051 57.2442 69.9422 54.449 69.3142C53.6181 69.1268 52.7304 69.1139 51.9447 68.8206C50.9109 68.4329 49.9508 67.8385 48.9532 67.3474C47.763 66.762 46.5832 66.1521 45.3646 65.6313C44.8077 65.3936 44.1719 65.3432 43.571 65.2101C43.403 65.1726 43.2337 65.1442 43.0645 65.1119L43.0851 64.8818C43.5452 64.9154 44.031 64.8663 44.4575 65.0007C45.2458 65.2662 46.0189 65.5751 46.7732 65.926C47.6364 66.3072 48.4841 66.7246 49.337 67.1316C49.6111 67.2497 49.8759 67.3884 50.1291 67.5464C51.3529 68.3799 52.7523 68.6241 54.1751 68.889C56.001 69.2289 57.7934 69.7523 59.6025 70.149C61.1041 70.4772 62.6199 70.7331 64.1253 71.0277C64.3042 71.0712 64.4806 71.1243 64.6538 71.1866L64.6241 71.4322Z" fill="#010101"/>
<path d="M65.2582 70.7057C64.5707 70.256 63.922 69.7275 63.1906 69.3747C62.0123 68.812 60.8045 68.3133 59.5724 67.8809C56.7812 66.8988 53.9783 65.9511 51.1638 65.038C50.0693 64.6826 48.9334 64.4526 47.8182 64.1605C47.7433 64.1412 47.6761 64.0882 47.627 63.9331C47.7717 63.9512 47.919 63.959 48.0599 63.99C51.2245 64.6942 54.2871 65.7306 57.3342 66.82C59.1886 67.4829 61.0623 68.1031 62.8908 68.8475C63.8343 69.2401 64.6527 69.8825 65.2582 70.7057Z" fill="#010101"/>
<path d="M63.4112 82.2416C62.9628 82.4277 62.5544 82.3709 62.2727 81.9638C62.0466 81.6408 61.9264 81.2699 62.2443 80.9106C62.2779 81.9018 62.2779 81.9018 63.4112 82.2416Z" fill="#090808"/>
<path d="M66.5473 82.6448L65.7539 81.7222C66.2488 81.7545 66.5486 82.1008 66.5473 82.6448Z" fill="#050606"/>
<path d="M66.2129 71.6182L66.9882 72.4258L66.9339 72.4917C66.6643 72.2333 66.3946 71.9748 66.125 71.7164L66.2129 71.6182Z" fill="#020303"/>
<path d="M62.942 89.8114L65.1207 94.7141C65.6841 95.7027 66.2527 96.6886 66.8071 97.6862C66.9728 97.9607 67.1031 98.2551 67.1947 98.5624C67.3679 99.2498 67.1469 99.7538 66.5202 100.068C65.6673 100.496 64.7369 100.547 63.8065 100.585C63.791 100.539 63.7768 100.493 63.7626 100.446L65.0354 99.9632C66.5241 99.3933 66.6132 99.1516 65.8107 97.7896C64.556 95.6639 63.3051 93.5382 62.5802 91.154C62.4266 89.9518 62.045 88.79 61.4559 87.7309L61.3086 86.9375L61.7635 86.9207C62.1563 87.8829 62.5491 88.8465 62.942 89.8114Z" fill="#FAB39D"/>
<path d="M28.2441 99.4349C30.6606 98.3843 33.9222 99.8639 34.2156 102.278C33.9713 102.106 33.7904 102 33.6353 101.867C33.2477 101.532 32.851 101.201 32.4878 100.84C31.6802 100.034 30.0933 100.687 30.0623 101.884C30.0389 102.167 29.9987 102.449 29.9421 102.727C29.1668 101.968 29.3916 100.909 30.459 100.049L29.7935 99.8574L30.0391 99.7062C29.442 99.7062 28.9523 99.7179 28.4651 99.6933C28.3863 99.6946 28.3165 99.5266 28.2441 99.4349Z" fill="#262525"/>
<path d="M61.8641 104.379C62.7828 104.385 63.7029 104.414 64.6217 104.393C65.5405 104.372 66.4037 104.204 67.1196 103.554C67.2333 103.45 67.4853 103.499 67.6739 103.476C67.6352 103.681 67.6662 103.956 67.5447 104.08C66.9865 104.652 66.2693 104.913 65.4836 105L63.9329 104.836C63.9329 104.88 63.9329 104.923 63.9226 104.966L65.0003 105.029H62.222L63.2971 104.966C63.2971 104.923 63.2971 104.879 63.2971 104.836L61.488 104.995L60.3418 104.614C60.5666 104.573 60.7902 104.527 61.0151 104.494C61.2955 104.456 61.5798 104.416 61.8641 104.379ZM64.8362 104.59V104.538H62.5192V104.59H64.8362Z" fill="#252525"/>
<path d="M28.244 99.4348C28.3163 99.5266 28.3848 99.6933 28.4611 99.6933C28.9482 99.7178 29.438 99.7062 30.035 99.7062L29.7895 99.8574H27.9287L27.8809 99.6338L28.244 99.4348Z" fill="#040404"/>
<path d="M61.8642 104.379C61.5799 104.416 61.2956 104.45 61.0126 104.494C60.7878 104.527 60.5642 104.573 60.3394 104.614C60.227 104.234 60.5203 104.292 60.7103 104.297C61.0953 104.306 61.4791 104.349 61.8642 104.379Z" fill="#020202"/>
<path d="M61.4844 104.996L63.2935 104.837C63.2935 104.881 63.2935 104.925 63.2935 104.966L62.2184 105.029L61.4844 104.996Z" fill="#070808"/>
<path d="M65.0048 105.03L63.9219 104.973C63.9219 104.93 63.9296 104.887 63.9322 104.844L65.4829 105.008L65.0048 105.03Z" fill="#070808"/>
<path d="M61.08 92.5601C61.0412 93.8045 60.7556 94.9779 59.9932 95.9962C58.9594 97.384 58.2396 97.6166 56.455 97.2884C54.3952 96.9149 52.966 95.5775 51.9451 93.8291C50.8739 91.9851 50.4087 89.9795 51.0625 87.8848C51.3353 87.0761 51.7487 86.3219 52.2837 85.657C53.1017 84.6129 54.2931 84.6232 55.4729 84.8687C57.0133 85.184 58.2267 86.0576 59.1933 87.2555C60.4241 88.7481 61.0918 90.6255 61.08 92.5601ZM53.2748 91.2756C53.2749 91.4693 53.3137 91.6609 53.3888 91.8394C53.4639 92.0179 53.5739 92.1795 53.7123 92.3149C53.8507 92.4504 54.0148 92.5568 54.1948 92.628C54.3749 92.6992 54.5673 92.7338 54.7609 92.7296C54.9545 92.7255 55.1453 92.6828 55.3222 92.604C55.4991 92.5251 55.6584 92.4118 55.7909 92.2706C55.9234 92.1294 56.0264 91.9632 56.0939 91.7817C56.1613 91.6002 56.1918 91.4071 56.1837 91.2136C56.1514 90.4292 55.4704 89.7521 54.726 89.7611C54.3349 89.7759 53.9648 89.9421 53.694 90.2248C53.4232 90.5074 53.2729 90.8842 53.2748 91.2756Z" fill="#FED7CB"/>
<path d="M70.004 95.9806C67.9545 95.5619 66.577 94.2451 65.5897 92.5135C64.5559 90.7044 64.1683 88.7518 64.7252 86.683C65.0147 85.6143 65.5626 84.7033 66.4646 84.052C66.6943 83.8774 66.9637 83.7624 67.2488 83.7173C67.5338 83.6722 67.8255 83.6984 68.098 83.7935L69.3902 91.3182C69.6732 92.7319 69.9652 94.1431 70.2276 95.5606C70.2534 95.6808 70.0828 95.8385 70.004 95.9806ZM66.4103 89.8774C66.5506 90.3233 66.7141 90.7615 66.9001 91.1903C67.0448 91.4914 67.2722 91.8015 67.6987 91.6671C68.1251 91.5327 68.421 91.3105 68.4197 90.8143C68.443 90.1671 68.2355 89.5328 67.8344 89.0245C67.7661 88.9293 67.6754 88.8525 67.5702 88.801C67.465 88.7495 67.3487 88.7249 67.2316 88.7294C67.1146 88.7338 67.0005 88.7673 66.8996 88.8267C66.7986 88.8861 66.714 88.9696 66.6532 89.0697C66.5214 89.2687 66.5059 89.5466 66.4103 89.8774Z" fill="#FED7CB"/>
<path d="M70.0038 95.9808C70.0826 95.8386 70.2493 95.681 70.226 95.5582C69.9676 94.1368 69.6717 92.7295 69.3887 91.3158L69.5399 90.7989L73.7577 88.2261C73.9296 88.9045 74.1454 89.486 74.2178 90.0843C74.4361 91.7577 74.3095 93.3743 73.2473 94.7945C72.6167 95.637 71.8633 96.1862 70.7416 96.0092C70.4965 95.9854 70.2501 95.9759 70.0038 95.9808Z" fill="#E9E9E9"/>
<path d="M69.7656 84.0881C71.1392 84.7149 72.2505 85.6324 73.0556 87.0189L69.6738 89.0167L69.7656 84.0881Z" fill="#E9E9E9"/>
<path d="M69.766 84.0883L69.6742 89.0169C69.6303 89.6131 69.5872 90.2079 69.545 90.8015L69.3938 91.3184L68.1016 83.7937L69.766 84.0883Z" fill="#272726"/>
<path d="M62.9409 89.8116C62.5481 88.8459 62.1556 87.8806 61.7637 86.9158L63.1541 86.7129C63.0805 87.7867 63.0171 88.8024 62.9409 89.8116Z" fill="#F5C8C5"/>
<path d="M61.3083 86.9326L61.4556 87.7261L60.8418 86.9326H61.3083Z" fill="#C2B399"/>
<path d="M60.9493 86.0139C60.9234 85.8188 60.8976 85.6262 60.873 85.4311L61.0643 85.3613L61.3744 85.9816L60.9493 86.0139Z" fill="#FAB39D"/>
<path d="M52.2078 80.9934C50.966 81.2622 50.0369 81.9755 49.3222 83.0041C49.2137 83.1605 49.0793 83.3595 48.9191 83.4047C48.6606 83.4797 48.2859 83.5546 48.0933 83.428C47.9008 83.3013 47.8207 82.9356 47.7806 82.6617C47.7561 82.495 47.8749 82.2882 47.9744 82.1267C49.6686 79.4052 52.3228 78.564 55.3402 79.6004C55.9165 79.7981 56.2111 80.386 56.0457 80.8655C55.8803 81.3449 55.3066 81.5969 54.7147 81.425C54.2431 81.2958 53.7753 81.1394 53.3049 80.996C53.3197 80.9806 53.3316 80.9627 53.3398 80.943C53.3444 80.9248 53.3444 80.9057 53.3398 80.8874C52.9185 80.8732 52.4986 80.8616 52.0773 80.85L52.2078 80.9934Z" fill="#262626"/>
<path d="M52.2073 80.9933L52.0781 80.8499C52.4994 80.8615 52.9194 80.8731 53.3406 80.8873C53.3453 80.9056 53.3453 80.9247 53.3406 80.9429C53.3324 80.9626 53.3206 80.9805 53.3057 80.9959L52.2073 80.9933Z" fill="#010101"/>
<path d="M63.6776 104.6C64.5826 104.6 65.3162 104.584 65.3162 104.564C65.3162 104.544 64.5826 104.527 63.6776 104.527C62.7727 104.527 62.0391 104.544 62.0391 104.564C62.0391 104.584 62.7727 104.6 63.6776 104.6Z" fill="#070808"/>
<path d="M53.2735 91.2758C53.2715 90.8844 53.4218 90.5076 53.6926 90.2249C53.9634 89.9423 54.3335 89.7761 54.7246 89.7613C55.469 89.7523 56.1461 90.4294 56.1823 91.2138C56.1904 91.4073 56.1599 91.6004 56.0924 91.7819C56.025 91.9634 55.922 92.1296 55.7895 92.2708C55.657 92.412 55.4977 92.5253 55.3208 92.6042C55.1439 92.683 54.9531 92.7257 54.7595 92.7298C54.5659 92.734 54.3735 92.6994 54.1934 92.6282C54.0134 92.557 53.8493 92.4506 53.7109 92.3151C53.5725 92.1797 53.4625 92.0181 53.3874 91.8396C53.3123 91.6611 53.2736 91.4695 53.2735 91.2758Z" fill="#010101"/>
<path d="M66.4121 89.8773C66.5064 89.5465 66.5232 89.2687 66.655 89.0697C66.7158 88.9695 66.8004 88.886 66.9014 88.8266C67.0023 88.7672 67.1164 88.7338 67.2334 88.7293C67.3505 88.7248 67.4668 88.7494 67.572 88.8009C67.6772 88.8524 67.7679 88.9292 67.8362 89.0244C68.2373 89.5327 68.4448 90.1671 68.4215 90.8142C68.4215 91.3104 68.1101 91.5378 67.7005 91.6671C67.2908 91.7963 67.0466 91.4913 66.9019 91.1902C66.7159 90.7614 66.5524 90.3232 66.4121 89.8773Z" fill="#010101"/>
<path d="M91.4512 86.2614C92.9922 83.6174 94.5347 80.9682 96.0787 78.3139C96.7222 77.2122 97.3502 76.0863 98.0223 74.9934C98.3088 74.5285 98.2955 74.1936 97.954 73.7331C95.1057 69.9722 93.2833 65.5359 92.6654 60.8589C91.4864 51.8251 93.8839 43.7917 100.138 37.1397C106.874 29.9744 115.298 27.0748 125.038 28.2558C137.264 29.7387 147.473 39.8124 149.472 51.9265C151.896 66.689 142.733 80.7067 128.681 84.4591C120.32 86.6933 112.476 85.3757 105.217 80.6759C104.613 80.2837 104.199 80.2352 103.551 80.5679C99.5846 82.551 95.6049 84.4679 91.6275 86.409L91.4512 86.2614ZM110.459 48.3747C110.951 48.263 111.436 48.1203 111.909 47.9472C112.57 47.6542 113.201 47.2509 113.875 46.9689C116.001 46.0876 118.176 45.5654 120.512 46.0369C122.198 46.3784 123.434 47.3986 123.65 48.8484C123.963 50.979 123.309 52.7351 121.612 54.1122C120.096 55.3395 118.353 56.0666 116.497 56.5513C115.887 56.71 115.677 56.992 115.689 57.6244C115.722 59.5677 115.689 61.5133 115.706 63.4589C115.724 63.6554 115.759 63.85 115.81 64.0405H123.379C123.379 62.8551 123.463 61.7512 123.355 60.6672C123.247 59.5831 123.602 59.0301 124.62 58.6247C126.615 57.8626 128.417 56.6676 129.895 55.1257C132.716 52.1314 133.641 45.594 129.342 42.463C128.048 41.5065 126.585 40.8037 125.03 40.3919C120.296 39.2219 115.649 40.0239 111.09 41.4936C110.838 41.5751 110.492 41.91 110.488 42.1325C110.44 44.1398 110.459 46.1515 110.459 48.3747ZM123.831 72.6535V67.0349H115.177V72.6535H123.831Z" fill="#29D305"/>
<path d="M148 28L2 168" stroke="#EE0701" stroke-width="3" stroke-linecap="round" stroke-linejoin="round"/>
<defs>
<filter id="filter0_d" x="154" y="-20" width="237" height="237" filterUnits="userSpaceOnUse" color-interpolation-filters="sRGB">
<feFlood flood-opacity="0" result="BackgroundImageFix"/>
<feColorMatrix in="SourceAlpha" type="matrix" values="0 0 0 0 0 0 0 0 0 0 0 0 0 0 0 0 0 0 127 0"/>
<feOffset/>
<feGaussianBlur stdDeviation="20"/>
<feColorMatrix type="matrix" values="0 0 0 0 0 0 0 0 0 0 0 0 0 0 0 0 0 0 0.06 0"/>
<feBlend mode="normal" in2="BackgroundImageFix" result="effect1_dropShadow"/>
<feBlend mode="normal" in="SourceGraphic" in2="effect1_dropShadow" result="shape"/>
</filter>
<clipPath id="clip0">
<rect width="165" height="165" fill="white" transform="translate(190 16)"/>
</clipPath>
<clipPath id="clip1">
<rect width="48.3077" height="48.3077" fill="white" transform="translate(248.346 56.2307)"/>
</clipPath>
</defs>
</svg>
