<svg width="775" height="213" viewBox="0 0 775 213" fill="none" xmlns="http://www.w3.org/2000/svg">
<rect width="775" height="102" fill="white"/>
<rect x="277" y="14" width="122" height="48" rx="24" fill="black"/>
<path d="M310.687 44V31.4H316.141C316.969 31.4 317.689 31.538 318.301 31.814C318.913 32.09 319.387 32.48 319.723 32.984C320.059 33.476 320.227 34.058 320.227 34.73C320.227 35.342 320.071 35.882 319.759 36.35C319.447 36.818 319.009 37.19 318.445 37.466C319.153 37.718 319.705 38.102 320.101 38.618C320.509 39.122 320.713 39.716 320.713 40.4C320.713 41.132 320.533 41.768 320.173 42.308C319.813 42.848 319.309 43.268 318.661 43.568C318.013 43.856 317.251 44 316.375 44H310.687ZM312.577 36.746H316.033C316.741 36.746 317.305 36.578 317.725 36.242C318.145 35.906 318.355 35.45 318.355 34.874C318.355 34.298 318.145 33.842 317.725 33.506C317.305 33.17 316.741 33.002 316.033 33.002H312.577V36.746ZM312.577 42.398H316.231C317.023 42.398 317.647 42.212 318.103 41.84C318.571 41.468 318.805 40.964 318.805 40.328C318.805 39.704 318.571 39.206 318.103 38.834C317.647 38.45 317.023 38.258 316.231 38.258H312.577V42.398ZM325.918 44.18C325.21 44.18 324.586 44.03 324.046 43.73C323.506 43.43 323.086 43.01 322.786 42.47C322.486 41.918 322.336 41.288 322.336 40.58V34.838H324.118V40.274C324.118 40.994 324.322 41.564 324.73 41.984C325.15 42.404 325.708 42.614 326.404 42.614C326.896 42.614 327.334 42.512 327.718 42.308C328.102 42.092 328.414 41.792 328.654 41.408V34.838H330.454V44H328.654V43.064C327.946 43.808 327.034 44.18 325.918 44.18ZM336.508 44.162C335.62 44.162 334.942 43.958 334.474 43.55C334.006 43.13 333.772 42.524 333.772 41.732V36.35H331.828V34.838H333.772V32.498L335.554 32.066V34.838H338.254V36.35H335.554V41.318C335.554 41.786 335.656 42.122 335.86 42.326C336.076 42.518 336.424 42.614 336.904 42.614C337.156 42.614 337.378 42.596 337.57 42.56C337.774 42.524 337.99 42.47 338.218 42.398V43.91C337.978 43.994 337.696 44.054 337.372 44.09C337.06 44.138 336.772 44.162 336.508 44.162ZM343.68 44.162C342.792 44.162 342.114 43.958 341.646 43.55C341.178 43.13 340.944 42.524 340.944 41.732V36.35H339V34.838H340.944V32.498L342.726 32.066V34.838H345.426V36.35H342.726V41.318C342.726 41.786 342.828 42.122 343.032 42.326C343.248 42.518 343.596 42.614 344.076 42.614C344.328 42.614 344.55 42.596 344.742 42.56C344.946 42.524 345.162 42.47 345.39 42.398V43.91C345.15 43.994 344.868 44.054 344.544 44.09C344.232 44.138 343.944 44.162 343.68 44.162ZM350.968 44.18C350.08 44.18 349.27 43.97 348.538 43.55C347.818 43.13 347.248 42.56 346.828 41.84C346.408 41.12 346.198 40.316 346.198 39.428C346.198 38.54 346.408 37.736 346.828 37.016C347.248 36.296 347.818 35.726 348.538 35.306C349.27 34.874 350.08 34.658 350.968 34.658C351.868 34.658 352.678 34.874 353.398 35.306C354.118 35.726 354.688 36.296 355.108 37.016C355.528 37.736 355.738 38.54 355.738 39.428C355.738 40.316 355.528 41.12 355.108 41.84C354.688 42.56 354.118 43.13 353.398 43.55C352.678 43.97 351.868 44.18 350.968 44.18ZM350.968 42.596C351.532 42.596 352.042 42.458 352.498 42.182C352.954 41.894 353.314 41.51 353.578 41.03C353.842 40.55 353.974 40.01 353.974 39.41C353.974 38.822 353.836 38.294 353.56 37.826C353.296 37.346 352.936 36.962 352.48 36.674C352.036 36.386 351.532 36.242 350.968 36.242C350.404 36.242 349.894 36.386 349.438 36.674C348.994 36.962 348.634 37.346 348.358 37.826C348.094 38.294 347.962 38.822 347.962 39.41C347.962 40.01 348.094 40.55 348.358 41.03C348.622 41.51 348.982 41.894 349.438 42.182C349.894 42.458 350.404 42.596 350.968 42.596ZM357.44 44V34.838H359.24V35.774C359.948 35.03 360.866 34.658 361.994 34.658C362.702 34.658 363.32 34.808 363.848 35.108C364.388 35.408 364.808 35.828 365.108 36.368C365.42 36.908 365.576 37.532 365.576 38.24V44H363.776V38.546C363.776 37.826 363.572 37.262 363.164 36.854C362.768 36.434 362.21 36.224 361.49 36.224C361.01 36.224 360.578 36.326 360.194 36.53C359.81 36.734 359.492 37.028 359.24 37.412V44H357.44Z" fill="white"/>
<rect x="491" y="14" width="158" height="23" rx="4" fill="#E9E9E9"/>
<path d="M500.001 29V21.058L500.804 20.893V24.314C501.017 24.072 501.266 23.8887 501.552 23.764C501.838 23.632 502.146 23.566 502.476 23.566C502.953 23.566 503.378 23.6907 503.752 23.94C504.133 24.182 504.434 24.512 504.654 24.93C504.881 25.3407 504.995 25.8063 504.995 26.327C504.995 26.8403 504.885 27.306 504.665 27.724C504.445 28.1347 504.148 28.4647 503.774 28.714C503.407 28.956 502.989 29.077 502.52 29.077C502.168 29.077 501.845 29.011 501.552 28.879C501.259 28.7397 501.009 28.5417 500.804 28.285V29H500.001ZM502.322 28.373C502.681 28.373 503 28.285 503.279 28.109C503.565 27.9257 503.789 27.68 503.95 27.372C504.119 27.0567 504.203 26.7047 504.203 26.316C504.203 25.92 504.119 25.568 503.95 25.26C503.789 24.952 503.565 24.71 503.279 24.534C503 24.358 502.681 24.27 502.322 24.27C502.021 24.27 501.735 24.336 501.464 24.468C501.2 24.5927 500.98 24.7687 500.804 24.996V27.658C500.973 27.8853 501.189 28.0613 501.453 28.186C501.717 28.3107 502.007 28.373 502.322 28.373ZM508.912 29.11C508.523 29.11 508.175 29.0403 507.867 28.901C507.566 28.7617 507.331 28.571 507.163 28.329C506.994 28.0797 506.91 27.7937 506.91 27.471C506.91 27.1483 506.994 26.866 507.163 26.624C507.339 26.382 507.581 26.195 507.889 26.063C508.204 25.931 508.567 25.865 508.978 25.865C509.3 25.865 509.601 25.898 509.88 25.964C510.158 26.0227 510.422 26.1253 510.672 26.272V25.656C510.672 25.1793 510.551 24.82 510.309 24.578C510.067 24.336 509.707 24.215 509.231 24.215C508.959 24.215 508.688 24.2553 508.417 24.336C508.145 24.4093 507.841 24.5413 507.504 24.732L507.174 24.127C507.562 23.9143 507.933 23.764 508.285 23.676C508.637 23.588 508.985 23.544 509.33 23.544C510.012 23.544 510.536 23.7163 510.903 24.061C511.277 24.4057 511.464 24.9007 511.464 25.546V29H510.672V28.384C510.422 28.6333 510.151 28.8167 509.858 28.934C509.572 29.0513 509.256 29.11 508.912 29.11ZM507.68 27.449C507.68 27.7643 507.808 28.0173 508.065 28.208C508.321 28.3987 508.659 28.494 509.077 28.494C509.392 28.494 509.678 28.4463 509.935 28.351C510.199 28.2483 510.444 28.087 510.672 27.867V26.833C510.444 26.6937 510.202 26.5947 509.946 26.536C509.689 26.4773 509.407 26.448 509.099 26.448C508.673 26.448 508.329 26.5397 508.065 26.723C507.808 26.9063 507.68 27.1483 507.68 27.449ZM516.579 29.11C516.073 29.11 515.615 28.989 515.204 28.747C514.801 28.4977 514.478 28.164 514.236 27.746C514.002 27.328 513.884 26.855 513.884 26.327C513.884 25.799 514.002 25.326 514.236 24.908C514.478 24.4827 514.801 24.149 515.204 23.907C515.615 23.665 516.073 23.544 516.579 23.544C517.078 23.544 517.529 23.654 517.932 23.874C518.336 24.094 518.655 24.391 518.889 24.765L518.24 25.172C518.072 24.8933 517.841 24.6733 517.547 24.512C517.261 24.3433 516.939 24.259 516.579 24.259C516.213 24.259 515.886 24.3507 515.6 24.534C515.314 24.71 515.087 24.952 514.918 25.26C514.757 25.568 514.676 25.9237 514.676 26.327C514.676 26.723 514.757 27.0787 514.918 27.394C515.087 27.702 515.314 27.9477 515.6 28.131C515.886 28.307 516.213 28.395 516.579 28.395C516.939 28.395 517.261 28.3143 517.547 28.153C517.841 27.9843 518.072 27.7607 518.24 27.482L518.889 27.889C518.655 28.263 518.336 28.56 517.932 28.78C517.529 29 517.078 29.11 516.579 29.11ZM521.53 29V21.058L522.333 20.893V26.107L525.171 23.632H526.183L523.213 26.206L526.304 29H525.226L522.333 26.382V29H521.53ZM530.716 31.409C530.356 31.409 529.993 31.3577 529.627 31.255C529.267 31.1597 528.934 31.024 528.626 30.848L528.967 30.232C529.297 30.4007 529.597 30.5253 529.869 30.606C530.14 30.6867 530.411 30.727 530.683 30.727C531.68 30.727 532.179 30.2687 532.179 29.352V28.274C531.973 28.5307 531.724 28.7287 531.431 28.868C531.137 29 530.815 29.066 530.463 29.066C530.001 29.066 529.583 28.945 529.209 28.703C528.835 28.4537 528.538 28.1237 528.318 27.713C528.098 27.295 527.988 26.8293 527.988 26.316C527.988 25.8027 528.098 25.3407 528.318 24.93C528.545 24.512 528.849 24.182 529.231 23.94C529.612 23.6907 530.037 23.566 530.507 23.566C530.844 23.566 531.156 23.632 531.442 23.764C531.728 23.8887 531.977 24.0757 532.19 24.325V23.632H532.982V29.341C532.982 30.0083 532.787 30.518 532.399 30.87C532.01 31.2293 531.449 31.409 530.716 31.409ZM530.661 28.373C530.976 28.373 531.266 28.3107 531.53 28.186C531.794 28.054 532.01 27.8743 532.179 27.647V24.996C532.003 24.7687 531.779 24.5927 531.508 24.468C531.244 24.336 530.961 24.27 530.661 24.27C530.301 24.27 529.979 24.358 529.693 24.534C529.414 24.71 529.19 24.952 529.022 25.26C528.86 25.568 528.78 25.92 528.78 26.316C528.78 26.7047 528.86 27.0567 529.022 27.372C529.19 27.68 529.414 27.9257 529.693 28.109C529.979 28.285 530.301 28.373 530.661 28.373ZM535.502 29V28.34H536.976V24.292H535.502V23.632H537.779V24.831C537.94 24.4203 538.182 24.105 538.505 23.885C538.827 23.6577 539.201 23.544 539.627 23.544C539.795 23.544 539.946 23.5587 540.078 23.588C540.21 23.61 540.367 23.6503 540.551 23.709V24.446C540.367 24.3873 540.191 24.3397 540.023 24.303C539.861 24.2663 539.7 24.248 539.539 24.248C539.143 24.248 538.791 24.3507 538.483 24.556C538.175 24.7613 537.94 25.0547 537.779 25.436V28.34H539.341V29H535.502ZM544.874 29.11C544.383 29.11 543.939 28.989 543.543 28.747C543.155 28.4977 542.843 28.164 542.608 27.746C542.381 27.328 542.267 26.855 542.267 26.327C542.267 25.799 542.381 25.326 542.608 24.908C542.843 24.4827 543.155 24.149 543.543 23.907C543.939 23.665 544.383 23.544 544.874 23.544C545.366 23.544 545.806 23.665 546.194 23.907C546.59 24.149 546.902 24.4827 547.129 24.908C547.364 25.326 547.481 25.799 547.481 26.327C547.481 26.855 547.364 27.328 547.129 27.746C546.902 28.164 546.59 28.4977 546.194 28.747C545.806 28.989 545.366 29.11 544.874 29.11ZM544.874 28.395C545.226 28.395 545.538 28.307 545.809 28.131C546.081 27.9477 546.293 27.702 546.447 27.394C546.609 27.0787 546.689 26.723 546.689 26.327C546.689 25.9237 546.609 25.568 546.447 25.26C546.293 24.952 546.081 24.71 545.809 24.534C545.538 24.3507 545.226 24.259 544.874 24.259C544.522 24.259 544.211 24.3507 543.939 24.534C543.668 24.71 543.452 24.952 543.29 25.26C543.136 25.568 543.059 25.9237 543.059 26.327C543.059 26.723 543.136 27.0787 543.29 27.394C543.452 27.702 543.668 27.9477 543.939 28.131C544.211 28.307 544.522 28.395 544.874 28.395ZM551.673 29.088C551.292 29.088 550.954 29.0037 550.661 28.835C550.368 28.6663 550.137 28.4317 549.968 28.131C549.807 27.8303 549.726 27.4857 549.726 27.097V23.632H550.54V26.866C550.54 27.3427 550.668 27.7203 550.925 27.999C551.182 28.2777 551.53 28.417 551.97 28.417C552.271 28.417 552.538 28.3473 552.773 28.208C553.015 28.0687 553.217 27.867 553.378 27.603V23.632H554.181V29H553.378V28.131C552.975 28.769 552.406 29.088 551.673 29.088ZM556.855 29V23.632H557.658V24.501C558.068 23.863 558.637 23.544 559.363 23.544C559.751 23.544 560.089 23.6283 560.375 23.797C560.668 23.9583 560.895 24.1893 561.057 24.49C561.225 24.7833 561.31 25.128 561.31 25.524V29H560.507V25.755C560.507 25.2783 560.375 24.9043 560.111 24.633C559.854 24.3543 559.506 24.215 559.066 24.215C558.772 24.215 558.505 24.2847 558.263 24.424C558.021 24.5633 557.819 24.7687 557.658 25.04V29H556.855ZM565.941 29.077C565.479 29.077 565.061 28.956 564.687 28.714C564.313 28.4647 564.016 28.1347 563.796 27.724C563.576 27.306 563.466 26.8403 563.466 26.327C563.466 25.8063 563.576 25.3407 563.796 24.93C564.024 24.512 564.328 24.182 564.709 23.94C565.091 23.6907 565.516 23.566 565.985 23.566C566.315 23.566 566.623 23.632 566.909 23.764C567.195 23.8887 567.445 24.072 567.657 24.314V21.058L568.46 20.893V29H567.657V28.285C567.452 28.5417 567.203 28.7397 566.909 28.879C566.616 29.011 566.293 29.077 565.941 29.077ZM566.139 28.373C566.455 28.373 566.744 28.3107 567.008 28.186C567.272 28.0613 567.489 27.8853 567.657 27.658V24.996C567.481 24.7687 567.258 24.5927 566.986 24.468C566.722 24.336 566.44 24.27 566.139 24.27C565.78 24.27 565.457 24.358 565.171 24.534C564.893 24.71 564.669 24.952 564.5 25.26C564.339 25.568 564.258 25.92 564.258 26.316C564.258 26.7047 564.339 27.0567 564.5 27.372C564.669 27.68 564.893 27.9257 565.171 28.109C565.457 28.285 565.78 28.373 566.139 28.373ZM571.431 26.25V25.59H575.083V26.25H571.431ZM580.485 29.11C579.971 29.11 579.509 28.989 579.099 28.747C578.688 28.4977 578.362 28.164 578.12 27.746C577.885 27.3207 577.768 26.844 577.768 26.316C577.768 25.788 577.881 25.315 578.109 24.897C578.336 24.479 578.644 24.149 579.033 23.907C579.429 23.665 579.869 23.544 580.353 23.544C580.859 23.544 581.31 23.665 581.706 23.907C582.102 24.1417 582.413 24.4643 582.641 24.875C582.868 25.2783 582.982 25.7367 582.982 26.25V26.492H578.549C578.578 26.8587 578.681 27.1887 578.857 27.482C579.033 27.768 579.264 27.9953 579.55 28.164C579.843 28.3253 580.166 28.406 580.518 28.406C580.833 28.406 581.126 28.3473 581.398 28.23C581.676 28.1053 581.907 27.9367 582.091 27.724L582.652 28.219C582.366 28.5123 582.039 28.736 581.673 28.89C581.306 29.0367 580.91 29.11 580.485 29.11ZM578.571 25.898H582.19C582.146 25.5753 582.036 25.2893 581.86 25.04C581.691 24.7907 581.475 24.5963 581.211 24.457C580.954 24.3103 580.664 24.237 580.342 24.237C580.041 24.237 579.766 24.3067 579.517 24.446C579.267 24.5853 579.058 24.7797 578.89 25.029C578.728 25.2783 578.622 25.568 578.571 25.898ZM588.713 29.11C588.149 29.11 587.716 28.978 587.415 28.714C587.115 28.45 586.964 28.054 586.964 27.526V21.663H584.973V21.003H587.767V27.449C587.767 27.7863 587.848 28.0283 588.009 28.175C588.171 28.3217 588.409 28.395 588.724 28.395C588.915 28.395 589.109 28.3767 589.307 28.34C589.505 28.296 589.725 28.2263 589.967 28.131V28.857C589.755 28.9303 589.542 28.989 589.329 29.033C589.124 29.0843 588.919 29.11 588.713 29.11ZM594.676 29.11C594.163 29.11 593.701 28.989 593.29 28.747C592.879 28.4977 592.553 28.164 592.311 27.746C592.076 27.3207 591.959 26.844 591.959 26.316C591.959 25.788 592.073 25.315 592.3 24.897C592.527 24.479 592.835 24.149 593.224 23.907C593.62 23.665 594.06 23.544 594.544 23.544C595.05 23.544 595.501 23.665 595.897 23.907C596.293 24.1417 596.605 24.4643 596.832 24.875C597.059 25.2783 597.173 25.7367 597.173 26.25V26.492H592.74C592.769 26.8587 592.872 27.1887 593.048 27.482C593.224 27.768 593.455 27.9953 593.741 28.164C594.034 28.3253 594.357 28.406 594.709 28.406C595.024 28.406 595.318 28.3473 595.589 28.23C595.868 28.1053 596.099 27.9367 596.282 27.724L596.843 28.219C596.557 28.5123 596.231 28.736 595.864 28.89C595.497 29.0367 595.101 29.11 594.676 29.11ZM592.762 25.898H596.381C596.337 25.5753 596.227 25.2893 596.051 25.04C595.882 24.7907 595.666 24.5963 595.402 24.457C595.145 24.3103 594.856 24.237 594.533 24.237C594.232 24.237 593.957 24.3067 593.708 24.446C593.459 24.5853 593.25 24.7797 593.081 25.029C592.92 25.2783 592.813 25.568 592.762 25.898ZM599.077 29V23.632H599.825V24.094C599.957 23.9033 600.1 23.7677 600.254 23.687C600.415 23.599 600.599 23.555 600.804 23.555C601.039 23.555 601.248 23.6137 601.431 23.731C601.614 23.841 601.757 23.9987 601.86 24.204C602.007 23.9767 602.175 23.8117 602.366 23.709C602.564 23.6063 602.788 23.555 603.037 23.555C603.396 23.555 603.686 23.687 603.906 23.951C604.133 24.215 604.247 24.5597 604.247 24.985V29H603.51V25.183C603.51 24.8677 603.444 24.6183 603.312 24.435C603.18 24.2517 602.989 24.16 602.74 24.16C602.601 24.16 602.472 24.193 602.355 24.259C602.238 24.3177 602.124 24.435 602.014 24.611C602.029 24.6697 602.036 24.732 602.036 24.798C602.043 24.8567 602.047 24.919 602.047 24.985V29H601.31V25.183C601.31 24.8677 601.24 24.6183 601.101 24.435C600.969 24.2517 600.775 24.16 600.518 24.16C600.393 24.16 600.272 24.1893 600.155 24.248C600.038 24.2993 599.928 24.4057 599.825 24.567V29H599.077ZM608.868 29.11C608.354 29.11 607.892 28.989 607.482 28.747C607.071 28.4977 606.745 28.164 606.503 27.746C606.268 27.3207 606.151 26.844 606.151 26.316C606.151 25.788 606.264 25.315 606.492 24.897C606.719 24.479 607.027 24.149 607.416 23.907C607.812 23.665 608.252 23.544 608.736 23.544C609.242 23.544 609.693 23.665 610.089 23.907C610.485 24.1417 610.796 24.4643 611.024 24.875C611.251 25.2783 611.365 25.7367 611.365 26.25V26.492H606.932C606.961 26.8587 607.064 27.1887 607.24 27.482C607.416 27.768 607.647 27.9953 607.933 28.164C608.226 28.3253 608.549 28.406 608.901 28.406C609.216 28.406 609.509 28.3473 609.781 28.23C610.059 28.1053 610.29 27.9367 610.474 27.724L611.035 28.219C610.749 28.5123 610.422 28.736 610.056 28.89C609.689 29.0367 609.293 29.11 608.868 29.11ZM606.954 25.898H610.573C610.529 25.5753 610.419 25.2893 610.243 25.04C610.074 24.7907 609.858 24.5963 609.594 24.457C609.337 24.3103 609.047 24.237 608.725 24.237C608.424 24.237 608.149 24.3067 607.9 24.446C607.65 24.5853 607.441 24.7797 607.273 25.029C607.111 25.2783 607.005 25.568 606.954 25.898ZM613.62 29V23.632H614.423V24.501C614.834 23.863 615.402 23.544 616.128 23.544C616.517 23.544 616.854 23.6283 617.14 23.797C617.434 23.9583 617.661 24.1893 617.822 24.49C617.991 24.7833 618.075 25.128 618.075 25.524V29H617.272V25.755C617.272 25.2783 617.14 24.9043 616.876 24.633C616.62 24.3543 616.271 24.215 615.831 24.215C615.538 24.215 615.27 24.2847 615.028 24.424C614.786 24.5633 614.585 24.7687 614.423 25.04V29H613.62ZM623.807 29.11C623.206 29.11 622.744 28.9817 622.421 28.725C622.106 28.461 621.948 28.0797 621.948 27.581V24.292H620.111V23.632H621.948V22.158L622.751 21.971V23.632H625.226V24.292H622.751V27.449C622.751 27.7863 622.843 28.0283 623.026 28.175C623.209 28.3217 623.473 28.395 623.818 28.395C624.031 28.395 624.251 28.373 624.478 28.329C624.705 28.285 624.955 28.2117 625.226 28.109V28.835C624.984 28.923 624.746 28.989 624.511 29.033C624.276 29.0843 624.042 29.11 623.807 29.11ZM628.197 26.25V25.59H631.849V26.25H628.197ZM636.986 29.121C635.974 29.121 635.102 28.7727 634.368 28.076L634.863 27.537C635.201 27.8523 635.534 28.0833 635.864 28.23C636.202 28.3693 636.579 28.439 636.997 28.439C637.371 28.439 637.701 28.362 637.987 28.208C638.273 28.054 638.493 27.8377 638.647 27.559C638.809 27.2803 638.889 26.9613 638.889 26.602C638.889 26.0887 638.713 25.6743 638.361 25.359C638.017 25.0437 637.562 24.886 636.997 24.886C636.704 24.886 636.418 24.9227 636.139 24.996C635.861 25.062 635.571 25.172 635.27 25.326L634.72 25.15L634.896 21.3H639.274V21.993H635.578L635.457 24.655C635.751 24.5083 636.033 24.4057 636.304 24.347C636.576 24.281 636.862 24.248 637.162 24.248C637.668 24.248 638.108 24.347 638.482 24.545C638.864 24.7357 639.157 25.007 639.362 25.359C639.575 25.7037 639.681 26.107 639.681 26.569C639.681 27.075 639.568 27.5187 639.34 27.9C639.113 28.2813 638.798 28.582 638.394 28.802C637.991 29.0147 637.522 29.121 636.986 29.121Z" fill="black"/>
<rect x="127" y="66" width="59" height="23" rx="4" fill="#E9E9E9"/>
<path d="M139.18 81.11C138.579 81.11 138.117 80.9817 137.794 80.725C137.479 80.461 137.321 80.0797 137.321 79.581V76.292H135.484V75.632H137.321V74.158L138.124 73.971V75.632H140.599V76.292H138.124V79.449C138.124 79.7863 138.216 80.0283 138.399 80.175C138.582 80.3217 138.846 80.395 139.191 80.395C139.404 80.395 139.624 80.373 139.851 80.329C140.078 80.285 140.328 80.2117 140.599 80.109V80.835C140.357 80.923 140.119 80.989 139.884 81.033C139.649 81.0843 139.415 81.11 139.18 81.11ZM145.528 81.11C145.014 81.11 144.552 80.989 144.142 80.747C143.731 80.4977 143.405 80.164 143.163 79.746C142.928 79.3207 142.811 78.844 142.811 78.316C142.811 77.788 142.924 77.315 143.152 76.897C143.379 76.479 143.687 76.149 144.076 75.907C144.472 75.665 144.912 75.544 145.396 75.544C145.902 75.544 146.353 75.665 146.749 75.907C147.145 76.1417 147.456 76.4643 147.684 76.875C147.911 77.2783 148.025 77.7367 148.025 78.25V78.492H143.592C143.621 78.8587 143.724 79.1887 143.9 79.482C144.076 79.768 144.307 79.9953 144.593 80.164C144.886 80.3253 145.209 80.406 145.561 80.406C145.876 80.406 146.169 80.3473 146.441 80.23C146.719 80.1053 146.95 79.9367 147.134 79.724L147.695 80.219C147.409 80.5123 147.082 80.736 146.716 80.89C146.349 81.0367 145.953 81.11 145.528 81.11ZM143.614 77.898H147.233C147.189 77.5753 147.079 77.2893 146.903 77.04C146.734 76.7907 146.518 76.5963 146.254 76.457C145.997 76.3103 145.707 76.237 145.385 76.237C145.084 76.237 144.809 76.3067 144.56 76.446C144.31 76.5853 144.101 76.7797 143.933 77.029C143.771 77.2783 143.665 77.568 143.614 77.898ZM149.829 81L151.996 78.239L149.928 75.632H150.885L152.502 77.689L154.141 75.632H155.054L152.975 78.217L155.153 81H154.196L152.458 78.789L150.742 81H149.829ZM160.467 81.11C159.866 81.11 159.404 80.9817 159.081 80.725C158.766 80.461 158.608 80.0797 158.608 79.581V76.292H156.771V75.632H158.608V74.158L159.411 73.971V75.632H161.886V76.292H159.411V79.449C159.411 79.7863 159.503 80.0283 159.686 80.175C159.869 80.3217 160.133 80.395 160.478 80.395C160.691 80.395 160.911 80.373 161.138 80.329C161.365 80.285 161.615 80.2117 161.886 80.109V80.835C161.644 80.923 161.406 80.989 161.171 81.033C160.936 81.0843 160.702 81.11 160.467 81.11ZM164.857 78.25V77.59H168.509V78.25H164.857ZM174.956 81V78.943H170.798V78.316L174.89 73.3H175.737V78.25H176.804V78.943H175.737V81H174.956ZM171.722 78.25H174.956V74.257L171.722 78.25Z" fill="black"/>
<circle cx="378" cy="27" r="7" fill="white" stroke="#29D305" stroke-width="2"/>
<path d="M385 26L459 26" stroke="#29D305" stroke-width="2" stroke-linecap="round" stroke-linejoin="round"/>
<circle cx="378" cy="27" r="2" fill="#29D305"/>
<circle cx="338" cy="48" r="7" transform="rotate(180 338 48)" fill="white" stroke="#29D305" stroke-width="2"/>
<path d="M338 78L192 78" stroke="#29D305" stroke-width="2" stroke-linecap="round" stroke-linejoin="round"/>
<circle cx="338" cy="48" r="2" transform="rotate(180 338 48)" fill="#29D305"/>
<path d="M338 56L338 78" stroke="#29D305" stroke-width="2" stroke-linecap="round" stroke-linejoin="round"/>
<rect width="775" height="111" transform="translate(0 102)" fill="#1F1F1F"/>
<rect x="277" y="120" width="122" height="48" rx="24" fill="#EDEDED"/>
<path d="M310.687 150V137.4H316.141C316.969 137.4 317.689 137.538 318.301 137.814C318.913 138.09 319.387 138.48 319.723 138.984C320.059 139.476 320.227 140.058 320.227 140.73C320.227 141.342 320.071 141.882 319.759 142.35C319.447 142.818 319.009 143.19 318.445 143.466C319.153 143.718 319.705 144.102 320.101 144.618C320.509 145.122 320.713 145.716 320.713 146.4C320.713 147.132 320.533 147.768 320.173 148.308C319.813 148.848 319.309 149.268 318.661 149.568C318.013 149.856 317.251 150 316.375 150H310.687ZM312.577 142.746H316.033C316.741 142.746 317.305 142.578 317.725 142.242C318.145 141.906 318.355 141.45 318.355 140.874C318.355 140.298 318.145 139.842 317.725 139.506C317.305 139.17 316.741 139.002 316.033 139.002H312.577V142.746ZM312.577 148.398H316.231C317.023 148.398 317.647 148.212 318.103 147.84C318.571 147.468 318.805 146.964 318.805 146.328C318.805 145.704 318.571 145.206 318.103 144.834C317.647 144.45 317.023 144.258 316.231 144.258H312.577V148.398ZM325.918 150.18C325.21 150.18 324.586 150.03 324.046 149.73C323.506 149.43 323.086 149.01 322.786 148.47C322.486 147.918 322.336 147.288 322.336 146.58V140.838H324.118V146.274C324.118 146.994 324.322 147.564 324.73 147.984C325.15 148.404 325.708 148.614 326.404 148.614C326.896 148.614 327.334 148.512 327.718 148.308C328.102 148.092 328.414 147.792 328.654 147.408V140.838H330.454V150H328.654V149.064C327.946 149.808 327.034 150.18 325.918 150.18ZM336.508 150.162C335.62 150.162 334.942 149.958 334.474 149.55C334.006 149.13 333.772 148.524 333.772 147.732V142.35H331.828V140.838H333.772V138.498L335.554 138.066V140.838H338.254V142.35H335.554V147.318C335.554 147.786 335.656 148.122 335.86 148.326C336.076 148.518 336.424 148.614 336.904 148.614C337.156 148.614 337.378 148.596 337.57 148.56C337.774 148.524 337.99 148.47 338.218 148.398V149.91C337.978 149.994 337.696 150.054 337.372 150.09C337.06 150.138 336.772 150.162 336.508 150.162ZM343.68 150.162C342.792 150.162 342.114 149.958 341.646 149.55C341.178 149.13 340.944 148.524 340.944 147.732V142.35H339V140.838H340.944V138.498L342.726 138.066V140.838H345.426V142.35H342.726V147.318C342.726 147.786 342.828 148.122 343.032 148.326C343.248 148.518 343.596 148.614 344.076 148.614C344.328 148.614 344.55 148.596 344.742 148.56C344.946 148.524 345.162 148.47 345.39 148.398V149.91C345.15 149.994 344.868 150.054 344.544 150.09C344.232 150.138 343.944 150.162 343.68 150.162ZM350.968 150.18C350.08 150.18 349.27 149.97 348.538 149.55C347.818 149.13 347.248 148.56 346.828 147.84C346.408 147.12 346.198 146.316 346.198 145.428C346.198 144.54 346.408 143.736 346.828 143.016C347.248 142.296 347.818 141.726 348.538 141.306C349.27 140.874 350.08 140.658 350.968 140.658C351.868 140.658 352.678 140.874 353.398 141.306C354.118 141.726 354.688 142.296 355.108 143.016C355.528 143.736 355.738 144.54 355.738 145.428C355.738 146.316 355.528 147.12 355.108 147.84C354.688 148.56 354.118 149.13 353.398 149.55C352.678 149.97 351.868 150.18 350.968 150.18ZM350.968 148.596C351.532 148.596 352.042 148.458 352.498 148.182C352.954 147.894 353.314 147.51 353.578 147.03C353.842 146.55 353.974 146.01 353.974 145.41C353.974 144.822 353.836 144.294 353.56 143.826C353.296 143.346 352.936 142.962 352.48 142.674C352.036 142.386 351.532 142.242 350.968 142.242C350.404 142.242 349.894 142.386 349.438 142.674C348.994 142.962 348.634 143.346 348.358 143.826C348.094 144.294 347.962 144.822 347.962 145.41C347.962 146.01 348.094 146.55 348.358 147.03C348.622 147.51 348.982 147.894 349.438 148.182C349.894 148.458 350.404 148.596 350.968 148.596ZM357.44 150V140.838H359.24V141.774C359.948 141.03 360.866 140.658 361.994 140.658C362.702 140.658 363.32 140.808 363.848 141.108C364.388 141.408 364.808 141.828 365.108 142.368C365.42 142.908 365.576 143.532 365.576 144.24V150H363.776V144.546C363.776 143.826 363.572 143.262 363.164 142.854C362.768 142.434 362.21 142.224 361.49 142.224C361.01 142.224 360.578 142.326 360.194 142.53C359.81 142.734 359.492 143.028 359.24 143.412V150H357.44Z" fill="#171717"/>
<rect x="491" y="120" width="158" height="23" rx="4" fill="#333333"/>
<path d="M500.001 135V127.058L500.804 126.893V130.314C501.017 130.072 501.266 129.889 501.552 129.764C501.838 129.632 502.146 129.566 502.476 129.566C502.953 129.566 503.378 129.691 503.752 129.94C504.133 130.182 504.434 130.512 504.654 130.93C504.881 131.341 504.995 131.806 504.995 132.327C504.995 132.84 504.885 133.306 504.665 133.724C504.445 134.135 504.148 134.465 503.774 134.714C503.407 134.956 502.989 135.077 502.52 135.077C502.168 135.077 501.845 135.011 501.552 134.879C501.259 134.74 501.009 134.542 500.804 134.285V135H500.001ZM502.322 134.373C502.681 134.373 503 134.285 503.279 134.109C503.565 133.926 503.789 133.68 503.95 133.372C504.119 133.057 504.203 132.705 504.203 132.316C504.203 131.92 504.119 131.568 503.95 131.26C503.789 130.952 503.565 130.71 503.279 130.534C503 130.358 502.681 130.27 502.322 130.27C502.021 130.27 501.735 130.336 501.464 130.468C501.2 130.593 500.98 130.769 500.804 130.996V133.658C500.973 133.885 501.189 134.061 501.453 134.186C501.717 134.311 502.007 134.373 502.322 134.373ZM508.912 135.11C508.523 135.11 508.175 135.04 507.867 134.901C507.566 134.762 507.331 134.571 507.163 134.329C506.994 134.08 506.91 133.794 506.91 133.471C506.91 133.148 506.994 132.866 507.163 132.624C507.339 132.382 507.581 132.195 507.889 132.063C508.204 131.931 508.567 131.865 508.978 131.865C509.3 131.865 509.601 131.898 509.88 131.964C510.158 132.023 510.422 132.125 510.672 132.272V131.656C510.672 131.179 510.551 130.82 510.309 130.578C510.067 130.336 509.707 130.215 509.231 130.215C508.959 130.215 508.688 130.255 508.417 130.336C508.145 130.409 507.841 130.541 507.504 130.732L507.174 130.127C507.562 129.914 507.933 129.764 508.285 129.676C508.637 129.588 508.985 129.544 509.33 129.544C510.012 129.544 510.536 129.716 510.903 130.061C511.277 130.406 511.464 130.901 511.464 131.546V135H510.672V134.384C510.422 134.633 510.151 134.817 509.858 134.934C509.572 135.051 509.256 135.11 508.912 135.11ZM507.68 133.449C507.68 133.764 507.808 134.017 508.065 134.208C508.321 134.399 508.659 134.494 509.077 134.494C509.392 134.494 509.678 134.446 509.935 134.351C510.199 134.248 510.444 134.087 510.672 133.867V132.833C510.444 132.694 510.202 132.595 509.946 132.536C509.689 132.477 509.407 132.448 509.099 132.448C508.673 132.448 508.329 132.54 508.065 132.723C507.808 132.906 507.68 133.148 507.68 133.449ZM516.579 135.11C516.073 135.11 515.615 134.989 515.204 134.747C514.801 134.498 514.478 134.164 514.236 133.746C514.002 133.328 513.884 132.855 513.884 132.327C513.884 131.799 514.002 131.326 514.236 130.908C514.478 130.483 514.801 130.149 515.204 129.907C515.615 129.665 516.073 129.544 516.579 129.544C517.078 129.544 517.529 129.654 517.932 129.874C518.336 130.094 518.655 130.391 518.889 130.765L518.24 131.172C518.072 130.893 517.841 130.673 517.547 130.512C517.261 130.343 516.939 130.259 516.579 130.259C516.213 130.259 515.886 130.351 515.6 130.534C515.314 130.71 515.087 130.952 514.918 131.26C514.757 131.568 514.676 131.924 514.676 132.327C514.676 132.723 514.757 133.079 514.918 133.394C515.087 133.702 515.314 133.948 515.6 134.131C515.886 134.307 516.213 134.395 516.579 134.395C516.939 134.395 517.261 134.314 517.547 134.153C517.841 133.984 518.072 133.761 518.24 133.482L518.889 133.889C518.655 134.263 518.336 134.56 517.932 134.78C517.529 135 517.078 135.11 516.579 135.11ZM521.53 135V127.058L522.333 126.893V132.107L525.171 129.632H526.183L523.213 132.206L526.304 135H525.226L522.333 132.382V135H521.53ZM530.716 137.409C530.356 137.409 529.993 137.358 529.627 137.255C529.267 137.16 528.934 137.024 528.626 136.848L528.967 136.232C529.297 136.401 529.597 136.525 529.869 136.606C530.14 136.687 530.411 136.727 530.683 136.727C531.68 136.727 532.179 136.269 532.179 135.352V134.274C531.973 134.531 531.724 134.729 531.431 134.868C531.137 135 530.815 135.066 530.463 135.066C530.001 135.066 529.583 134.945 529.209 134.703C528.835 134.454 528.538 134.124 528.318 133.713C528.098 133.295 527.988 132.829 527.988 132.316C527.988 131.803 528.098 131.341 528.318 130.93C528.545 130.512 528.849 130.182 529.231 129.94C529.612 129.691 530.037 129.566 530.507 129.566C530.844 129.566 531.156 129.632 531.442 129.764C531.728 129.889 531.977 130.076 532.19 130.325V129.632H532.982V135.341C532.982 136.008 532.787 136.518 532.399 136.87C532.01 137.229 531.449 137.409 530.716 137.409ZM530.661 134.373C530.976 134.373 531.266 134.311 531.53 134.186C531.794 134.054 532.01 133.874 532.179 133.647V130.996C532.003 130.769 531.779 130.593 531.508 130.468C531.244 130.336 530.961 130.27 530.661 130.27C530.301 130.27 529.979 130.358 529.693 130.534C529.414 130.71 529.19 130.952 529.022 131.26C528.86 131.568 528.78 131.92 528.78 132.316C528.78 132.705 528.86 133.057 529.022 133.372C529.19 133.68 529.414 133.926 529.693 134.109C529.979 134.285 530.301 134.373 530.661 134.373ZM535.502 135V134.34H536.976V130.292H535.502V129.632H537.779V130.831C537.94 130.42 538.182 130.105 538.505 129.885C538.827 129.658 539.201 129.544 539.627 129.544C539.795 129.544 539.946 129.559 540.078 129.588C540.21 129.61 540.367 129.65 540.551 129.709V130.446C540.367 130.387 540.191 130.34 540.023 130.303C539.861 130.266 539.7 130.248 539.539 130.248C539.143 130.248 538.791 130.351 538.483 130.556C538.175 130.761 537.94 131.055 537.779 131.436V134.34H539.341V135H535.502ZM544.874 135.11C544.383 135.11 543.939 134.989 543.543 134.747C543.155 134.498 542.843 134.164 542.608 133.746C542.381 133.328 542.267 132.855 542.267 132.327C542.267 131.799 542.381 131.326 542.608 130.908C542.843 130.483 543.155 130.149 543.543 129.907C543.939 129.665 544.383 129.544 544.874 129.544C545.366 129.544 545.806 129.665 546.194 129.907C546.59 130.149 546.902 130.483 547.129 130.908C547.364 131.326 547.481 131.799 547.481 132.327C547.481 132.855 547.364 133.328 547.129 133.746C546.902 134.164 546.59 134.498 546.194 134.747C545.806 134.989 545.366 135.11 544.874 135.11ZM544.874 134.395C545.226 134.395 545.538 134.307 545.809 134.131C546.081 133.948 546.293 133.702 546.447 133.394C546.609 133.079 546.689 132.723 546.689 132.327C546.689 131.924 546.609 131.568 546.447 131.26C546.293 130.952 546.081 130.71 545.809 130.534C545.538 130.351 545.226 130.259 544.874 130.259C544.522 130.259 544.211 130.351 543.939 130.534C543.668 130.71 543.452 130.952 543.29 131.26C543.136 131.568 543.059 131.924 543.059 132.327C543.059 132.723 543.136 133.079 543.29 133.394C543.452 133.702 543.668 133.948 543.939 134.131C544.211 134.307 544.522 134.395 544.874 134.395ZM551.673 135.088C551.292 135.088 550.954 135.004 550.661 134.835C550.368 134.666 550.137 134.432 549.968 134.131C549.807 133.83 549.726 133.486 549.726 133.097V129.632H550.54V132.866C550.54 133.343 550.668 133.72 550.925 133.999C551.182 134.278 551.53 134.417 551.97 134.417C552.271 134.417 552.538 134.347 552.773 134.208C553.015 134.069 553.217 133.867 553.378 133.603V129.632H554.181V135H553.378V134.131C552.975 134.769 552.406 135.088 551.673 135.088ZM556.855 135V129.632H557.658V130.501C558.068 129.863 558.637 129.544 559.363 129.544C559.751 129.544 560.089 129.628 560.375 129.797C560.668 129.958 560.895 130.189 561.057 130.49C561.225 130.783 561.31 131.128 561.31 131.524V135H560.507V131.755C560.507 131.278 560.375 130.904 560.111 130.633C559.854 130.354 559.506 130.215 559.066 130.215C558.772 130.215 558.505 130.285 558.263 130.424C558.021 130.563 557.819 130.769 557.658 131.04V135H556.855ZM565.941 135.077C565.479 135.077 565.061 134.956 564.687 134.714C564.313 134.465 564.016 134.135 563.796 133.724C563.576 133.306 563.466 132.84 563.466 132.327C563.466 131.806 563.576 131.341 563.796 130.93C564.024 130.512 564.328 130.182 564.709 129.94C565.091 129.691 565.516 129.566 565.985 129.566C566.315 129.566 566.623 129.632 566.909 129.764C567.195 129.889 567.445 130.072 567.657 130.314V127.058L568.46 126.893V135H567.657V134.285C567.452 134.542 567.203 134.74 566.909 134.879C566.616 135.011 566.293 135.077 565.941 135.077ZM566.139 134.373C566.455 134.373 566.744 134.311 567.008 134.186C567.272 134.061 567.489 133.885 567.657 133.658V130.996C567.481 130.769 567.258 130.593 566.986 130.468C566.722 130.336 566.44 130.27 566.139 130.27C565.78 130.27 565.457 130.358 565.171 130.534C564.893 130.71 564.669 130.952 564.5 131.26C564.339 131.568 564.258 131.92 564.258 132.316C564.258 132.705 564.339 133.057 564.5 133.372C564.669 133.68 564.893 133.926 565.171 134.109C565.457 134.285 565.78 134.373 566.139 134.373ZM571.431 132.25V131.59H575.083V132.25H571.431ZM580.485 135.11C579.971 135.11 579.509 134.989 579.099 134.747C578.688 134.498 578.362 134.164 578.12 133.746C577.885 133.321 577.768 132.844 577.768 132.316C577.768 131.788 577.881 131.315 578.109 130.897C578.336 130.479 578.644 130.149 579.033 129.907C579.429 129.665 579.869 129.544 580.353 129.544C580.859 129.544 581.31 129.665 581.706 129.907C582.102 130.142 582.413 130.464 582.641 130.875C582.868 131.278 582.982 131.737 582.982 132.25V132.492H578.549C578.578 132.859 578.681 133.189 578.857 133.482C579.033 133.768 579.264 133.995 579.55 134.164C579.843 134.325 580.166 134.406 580.518 134.406C580.833 134.406 581.126 134.347 581.398 134.23C581.676 134.105 581.907 133.937 582.091 133.724L582.652 134.219C582.366 134.512 582.039 134.736 581.673 134.89C581.306 135.037 580.91 135.11 580.485 135.11ZM578.571 131.898H582.19C582.146 131.575 582.036 131.289 581.86 131.04C581.691 130.791 581.475 130.596 581.211 130.457C580.954 130.31 580.664 130.237 580.342 130.237C580.041 130.237 579.766 130.307 579.517 130.446C579.267 130.585 579.058 130.78 578.89 131.029C578.728 131.278 578.622 131.568 578.571 131.898ZM588.713 135.11C588.149 135.11 587.716 134.978 587.415 134.714C587.115 134.45 586.964 134.054 586.964 133.526V127.663H584.973V127.003H587.767V133.449C587.767 133.786 587.848 134.028 588.009 134.175C588.171 134.322 588.409 134.395 588.724 134.395C588.915 134.395 589.109 134.377 589.307 134.34C589.505 134.296 589.725 134.226 589.967 134.131V134.857C589.755 134.93 589.542 134.989 589.329 135.033C589.124 135.084 588.919 135.11 588.713 135.11ZM594.676 135.11C594.163 135.11 593.701 134.989 593.29 134.747C592.879 134.498 592.553 134.164 592.311 133.746C592.076 133.321 591.959 132.844 591.959 132.316C591.959 131.788 592.073 131.315 592.3 130.897C592.527 130.479 592.835 130.149 593.224 129.907C593.62 129.665 594.06 129.544 594.544 129.544C595.05 129.544 595.501 129.665 595.897 129.907C596.293 130.142 596.605 130.464 596.832 130.875C597.059 131.278 597.173 131.737 597.173 132.25V132.492H592.74C592.769 132.859 592.872 133.189 593.048 133.482C593.224 133.768 593.455 133.995 593.741 134.164C594.034 134.325 594.357 134.406 594.709 134.406C595.024 134.406 595.318 134.347 595.589 134.23C595.868 134.105 596.099 133.937 596.282 133.724L596.843 134.219C596.557 134.512 596.231 134.736 595.864 134.89C595.497 135.037 595.101 135.11 594.676 135.11ZM592.762 131.898H596.381C596.337 131.575 596.227 131.289 596.051 131.04C595.882 130.791 595.666 130.596 595.402 130.457C595.145 130.31 594.856 130.237 594.533 130.237C594.232 130.237 593.957 130.307 593.708 130.446C593.459 130.585 593.25 130.78 593.081 131.029C592.92 131.278 592.813 131.568 592.762 131.898ZM599.077 135V129.632H599.825V130.094C599.957 129.903 600.1 129.768 600.254 129.687C600.415 129.599 600.599 129.555 600.804 129.555C601.039 129.555 601.248 129.614 601.431 129.731C601.614 129.841 601.757 129.999 601.86 130.204C602.007 129.977 602.175 129.812 602.366 129.709C602.564 129.606 602.788 129.555 603.037 129.555C603.396 129.555 603.686 129.687 603.906 129.951C604.133 130.215 604.247 130.56 604.247 130.985V135H603.51V131.183C603.51 130.868 603.444 130.618 603.312 130.435C603.18 130.252 602.989 130.16 602.74 130.16C602.601 130.16 602.472 130.193 602.355 130.259C602.238 130.318 602.124 130.435 602.014 130.611C602.029 130.67 602.036 130.732 602.036 130.798C602.043 130.857 602.047 130.919 602.047 130.985V135H601.31V131.183C601.31 130.868 601.24 130.618 601.101 130.435C600.969 130.252 600.775 130.16 600.518 130.16C600.393 130.16 600.272 130.189 600.155 130.248C600.038 130.299 599.928 130.406 599.825 130.567V135H599.077ZM608.868 135.11C608.354 135.11 607.892 134.989 607.482 134.747C607.071 134.498 606.745 134.164 606.503 133.746C606.268 133.321 606.151 132.844 606.151 132.316C606.151 131.788 606.264 131.315 606.492 130.897C606.719 130.479 607.027 130.149 607.416 129.907C607.812 129.665 608.252 129.544 608.736 129.544C609.242 129.544 609.693 129.665 610.089 129.907C610.485 130.142 610.796 130.464 611.024 130.875C611.251 131.278 611.365 131.737 611.365 132.25V132.492H606.932C606.961 132.859 607.064 133.189 607.24 133.482C607.416 133.768 607.647 133.995 607.933 134.164C608.226 134.325 608.549 134.406 608.901 134.406C609.216 134.406 609.509 134.347 609.781 134.23C610.059 134.105 610.29 133.937 610.474 133.724L611.035 134.219C610.749 134.512 610.422 134.736 610.056 134.89C609.689 135.037 609.293 135.11 608.868 135.11ZM606.954 131.898H610.573C610.529 131.575 610.419 131.289 610.243 131.04C610.074 130.791 609.858 130.596 609.594 130.457C609.337 130.31 609.047 130.237 608.725 130.237C608.424 130.237 608.149 130.307 607.9 130.446C607.65 130.585 607.441 130.78 607.273 131.029C607.111 131.278 607.005 131.568 606.954 131.898ZM613.62 135V129.632H614.423V130.501C614.834 129.863 615.402 129.544 616.128 129.544C616.517 129.544 616.854 129.628 617.14 129.797C617.434 129.958 617.661 130.189 617.822 130.49C617.991 130.783 618.075 131.128 618.075 131.524V135H617.272V131.755C617.272 131.278 617.14 130.904 616.876 130.633C616.62 130.354 616.271 130.215 615.831 130.215C615.538 130.215 615.27 130.285 615.028 130.424C614.786 130.563 614.585 130.769 614.423 131.04V135H613.62ZM623.807 135.11C623.206 135.11 622.744 134.982 622.421 134.725C622.106 134.461 621.948 134.08 621.948 133.581V130.292H620.111V129.632H621.948V128.158L622.751 127.971V129.632H625.226V130.292H622.751V133.449C622.751 133.786 622.843 134.028 623.026 134.175C623.209 134.322 623.473 134.395 623.818 134.395C624.031 134.395 624.251 134.373 624.478 134.329C624.705 134.285 624.955 134.212 625.226 134.109V134.835C624.984 134.923 624.746 134.989 624.511 135.033C624.276 135.084 624.042 135.11 623.807 135.11ZM628.197 132.25V131.59H631.849V132.25H628.197ZM636.986 135.121C635.974 135.121 635.102 134.773 634.368 134.076L634.863 133.537C635.201 133.852 635.534 134.083 635.864 134.23C636.202 134.369 636.579 134.439 636.997 134.439C637.371 134.439 637.701 134.362 637.987 134.208C638.273 134.054 638.493 133.838 638.647 133.559C638.809 133.28 638.889 132.961 638.889 132.602C638.889 132.089 638.713 131.674 638.361 131.359C638.017 131.044 637.562 130.886 636.997 130.886C636.704 130.886 636.418 130.923 636.139 130.996C635.861 131.062 635.571 131.172 635.27 131.326L634.72 131.15L634.896 127.3H639.274V127.993H635.578L635.457 130.655C635.751 130.508 636.033 130.406 636.304 130.347C636.576 130.281 636.862 130.248 637.162 130.248C637.668 130.248 638.108 130.347 638.482 130.545C638.864 130.736 639.157 131.007 639.362 131.359C639.575 131.704 639.681 132.107 639.681 132.569C639.681 133.075 639.568 133.519 639.34 133.9C639.113 134.281 638.798 134.582 638.394 134.802C637.991 135.015 637.522 135.121 636.986 135.121Z" fill="#EDEDED"/>
<rect x="127" y="172" width="59" height="23" rx="4" fill="#333333"/>
<path d="M139.18 187.11C138.579 187.11 138.117 186.982 137.794 186.725C137.479 186.461 137.321 186.08 137.321 185.581V182.292H135.484V181.632H137.321V180.158L138.124 179.971V181.632H140.599V182.292H138.124V185.449C138.124 185.786 138.216 186.028 138.399 186.175C138.582 186.322 138.846 186.395 139.191 186.395C139.404 186.395 139.624 186.373 139.851 186.329C140.078 186.285 140.328 186.212 140.599 186.109V186.835C140.357 186.923 140.119 186.989 139.884 187.033C139.649 187.084 139.415 187.11 139.18 187.11ZM145.528 187.11C145.014 187.11 144.552 186.989 144.142 186.747C143.731 186.498 143.405 186.164 143.163 185.746C142.928 185.321 142.811 184.844 142.811 184.316C142.811 183.788 142.924 183.315 143.152 182.897C143.379 182.479 143.687 182.149 144.076 181.907C144.472 181.665 144.912 181.544 145.396 181.544C145.902 181.544 146.353 181.665 146.749 181.907C147.145 182.142 147.456 182.464 147.684 182.875C147.911 183.278 148.025 183.737 148.025 184.25V184.492H143.592C143.621 184.859 143.724 185.189 143.9 185.482C144.076 185.768 144.307 185.995 144.593 186.164C144.886 186.325 145.209 186.406 145.561 186.406C145.876 186.406 146.169 186.347 146.441 186.23C146.719 186.105 146.95 185.937 147.134 185.724L147.695 186.219C147.409 186.512 147.082 186.736 146.716 186.89C146.349 187.037 145.953 187.11 145.528 187.11ZM143.614 183.898H147.233C147.189 183.575 147.079 183.289 146.903 183.04C146.734 182.791 146.518 182.596 146.254 182.457C145.997 182.31 145.707 182.237 145.385 182.237C145.084 182.237 144.809 182.307 144.56 182.446C144.31 182.585 144.101 182.78 143.933 183.029C143.771 183.278 143.665 183.568 143.614 183.898ZM149.829 187L151.996 184.239L149.928 181.632H150.885L152.502 183.689L154.141 181.632H155.054L152.975 184.217L155.153 187H154.196L152.458 184.789L150.742 187H149.829ZM160.467 187.11C159.866 187.11 159.404 186.982 159.081 186.725C158.766 186.461 158.608 186.08 158.608 185.581V182.292H156.771V181.632H158.608V180.158L159.411 179.971V181.632H161.886V182.292H159.411V185.449C159.411 185.786 159.503 186.028 159.686 186.175C159.869 186.322 160.133 186.395 160.478 186.395C160.691 186.395 160.911 186.373 161.138 186.329C161.365 186.285 161.615 186.212 161.886 186.109V186.835C161.644 186.923 161.406 186.989 161.171 187.033C160.936 187.084 160.702 187.11 160.467 187.11ZM164.857 184.25V183.59H168.509V184.25H164.857ZM174.956 187V184.943H170.798V184.316L174.89 179.3H175.737V184.25H176.804V184.943H175.737V187H174.956ZM171.722 184.25H174.956V180.257L171.722 184.25Z" fill="#EDEDED"/>
<circle cx="378" cy="133" r="7" fill="white" stroke="#35BB18" stroke-width="2"/>
<path d="M385 132L484 132" stroke="#35BB18" stroke-width="2" stroke-linecap="round" stroke-linejoin="round"/>
<circle cx="378" cy="133" r="1.5" fill="#29D305" stroke="#35BB18"/>
<circle cx="338" cy="154" r="7" transform="rotate(180 338 154)" fill="white" stroke="#35BB18" stroke-width="2"/>
<path d="M338 184L192 184" stroke="#35BB18" stroke-width="2" stroke-linecap="round" stroke-linejoin="round"/>
<circle cx="338" cy="154" r="1.5" transform="rotate(180 338 154)" fill="#29D305" stroke="#35BB18"/>
<path d="M338 162L338 184" stroke="#35BB18" stroke-width="2" stroke-linecap="round" stroke-linejoin="round"/>
</svg>
