<svg width="775" height="213" viewBox="0 0 775 213" fill="none" xmlns="http://www.w3.org/2000/svg">
<rect width="775" height="102" fill="white"/>
<rect x="51" y="13" width="122" height="48" rx="24" fill="black"/>
<path d="M84.6872 43V30.4H90.1412C90.9692 30.4 91.6892 30.538 92.3012 30.814C92.9132 31.09 93.3872 31.48 93.7232 31.984C94.0592 32.476 94.2272 33.058 94.2272 33.73C94.2272 34.342 94.0712 34.882 93.7592 35.35C93.4472 35.818 93.0092 36.19 92.4452 36.466C93.1532 36.718 93.7052 37.102 94.1012 37.618C94.5092 38.122 94.7132 38.716 94.7132 39.4C94.7132 40.132 94.5332 40.768 94.1732 41.308C93.8132 41.848 93.3092 42.268 92.6612 42.568C92.0132 42.856 91.2512 43 90.3752 43H84.6872ZM86.5772 35.746H90.0332C90.7412 35.746 91.3052 35.578 91.7252 35.242C92.1452 34.906 92.3552 34.45 92.3552 33.874C92.3552 33.298 92.1452 32.842 91.7252 32.506C91.3052 32.17 90.7412 32.002 90.0332 32.002H86.5772V35.746ZM86.5772 41.398H90.2312C91.0232 41.398 91.6472 41.212 92.1032 40.84C92.5712 40.468 92.8052 39.964 92.8052 39.328C92.8052 38.704 92.5712 38.206 92.1032 37.834C91.6472 37.45 91.0232 37.258 90.2312 37.258H86.5772V41.398ZM99.9176 43.18C99.2096 43.18 98.5856 43.03 98.0456 42.73C97.5056 42.43 97.0856 42.01 96.7856 41.47C96.4856 40.918 96.3356 40.288 96.3356 39.58V33.838H98.1176V39.274C98.1176 39.994 98.3216 40.564 98.7296 40.984C99.1496 41.404 99.7076 41.614 100.404 41.614C100.896 41.614 101.334 41.512 101.718 41.308C102.102 41.092 102.414 40.792 102.654 40.408V33.838H104.454V43H102.654V42.064C101.946 42.808 101.034 43.18 99.9176 43.18ZM110.508 43.162C109.62 43.162 108.942 42.958 108.474 42.55C108.006 42.13 107.772 41.524 107.772 40.732V35.35H105.828V33.838H107.772V31.498L109.554 31.066V33.838H112.254V35.35H109.554V40.318C109.554 40.786 109.656 41.122 109.86 41.326C110.076 41.518 110.424 41.614 110.904 41.614C111.156 41.614 111.378 41.596 111.57 41.56C111.774 41.524 111.99 41.47 112.218 41.398V42.91C111.978 42.994 111.696 43.054 111.372 43.09C111.06 43.138 110.772 43.162 110.508 43.162ZM117.68 43.162C116.792 43.162 116.114 42.958 115.646 42.55C115.178 42.13 114.944 41.524 114.944 40.732V35.35H113V33.838H114.944V31.498L116.726 31.066V33.838H119.426V35.35H116.726V40.318C116.726 40.786 116.828 41.122 117.032 41.326C117.248 41.518 117.596 41.614 118.076 41.614C118.328 41.614 118.55 41.596 118.742 41.56C118.946 41.524 119.162 41.47 119.39 41.398V42.91C119.15 42.994 118.868 43.054 118.544 43.09C118.232 43.138 117.944 43.162 117.68 43.162ZM124.968 43.18C124.08 43.18 123.27 42.97 122.538 42.55C121.818 42.13 121.248 41.56 120.828 40.84C120.408 40.12 120.198 39.316 120.198 38.428C120.198 37.54 120.408 36.736 120.828 36.016C121.248 35.296 121.818 34.726 122.538 34.306C123.27 33.874 124.08 33.658 124.968 33.658C125.868 33.658 126.678 33.874 127.398 34.306C128.118 34.726 128.688 35.296 129.108 36.016C129.528 36.736 129.738 37.54 129.738 38.428C129.738 39.316 129.528 40.12 129.108 40.84C128.688 41.56 128.118 42.13 127.398 42.55C126.678 42.97 125.868 43.18 124.968 43.18ZM124.968 41.596C125.532 41.596 126.042 41.458 126.498 41.182C126.954 40.894 127.314 40.51 127.578 40.03C127.842 39.55 127.974 39.01 127.974 38.41C127.974 37.822 127.836 37.294 127.56 36.826C127.296 36.346 126.936 35.962 126.48 35.674C126.036 35.386 125.532 35.242 124.968 35.242C124.404 35.242 123.894 35.386 123.438 35.674C122.994 35.962 122.634 36.346 122.358 36.826C122.094 37.294 121.962 37.822 121.962 38.41C121.962 39.01 122.094 39.55 122.358 40.03C122.622 40.51 122.982 40.894 123.438 41.182C123.894 41.458 124.404 41.596 124.968 41.596ZM131.44 43V33.838H133.24V34.774C133.948 34.03 134.866 33.658 135.994 33.658C136.702 33.658 137.32 33.808 137.848 34.108C138.388 34.408 138.808 34.828 139.108 35.368C139.42 35.908 139.576 36.532 139.576 37.24V43H137.776V37.546C137.776 36.826 137.572 36.262 137.164 35.854C136.768 35.434 136.21 35.224 135.49 35.224C135.01 35.224 134.578 35.326 134.194 35.53C133.81 35.734 133.492 36.028 133.24 36.412V43H131.44Z" fill="white"/>
<rect x="246" y="65" width="59" height="23" rx="4" fill="#E9E9E9"/>
<path d="M258.18 80.11C257.579 80.11 257.117 79.9817 256.794 79.725C256.479 79.461 256.321 79.0797 256.321 78.581V75.292H254.484V74.632H256.321V73.158L257.124 72.971V74.632H259.599V75.292H257.124V78.449C257.124 78.7863 257.216 79.0283 257.399 79.175C257.582 79.3217 257.846 79.395 258.191 79.395C258.404 79.395 258.624 79.373 258.851 79.329C259.078 79.285 259.328 79.2117 259.599 79.109V79.835C259.357 79.923 259.119 79.989 258.884 80.033C258.649 80.0843 258.415 80.11 258.18 80.11ZM264.528 80.11C264.014 80.11 263.552 79.989 263.142 79.747C262.731 79.4977 262.405 79.164 262.163 78.746C261.928 78.3207 261.811 77.844 261.811 77.316C261.811 76.788 261.924 76.315 262.152 75.897C262.379 75.479 262.687 75.149 263.076 74.907C263.472 74.665 263.912 74.544 264.396 74.544C264.902 74.544 265.353 74.665 265.749 74.907C266.145 75.1417 266.456 75.4643 266.684 75.875C266.911 76.2783 267.025 76.7367 267.025 77.25V77.492H262.592C262.621 77.8587 262.724 78.1887 262.9 78.482C263.076 78.768 263.307 78.9953 263.593 79.164C263.886 79.3253 264.209 79.406 264.561 79.406C264.876 79.406 265.169 79.3473 265.441 79.23C265.719 79.1053 265.95 78.9367 266.134 78.724L266.695 79.219C266.409 79.5123 266.082 79.736 265.716 79.89C265.349 80.0367 264.953 80.11 264.528 80.11ZM262.614 76.898H266.233C266.189 76.5753 266.079 76.2893 265.903 76.04C265.734 75.7907 265.518 75.5963 265.254 75.457C264.997 75.3103 264.707 75.237 264.385 75.237C264.084 75.237 263.809 75.3067 263.56 75.446C263.31 75.5853 263.101 75.7797 262.933 76.029C262.771 76.2783 262.665 76.568 262.614 76.898ZM268.829 80L270.996 77.239L268.928 74.632H269.885L271.502 76.689L273.141 74.632H274.054L271.975 77.217L274.153 80H273.196L271.458 77.789L269.742 80H268.829ZM279.467 80.11C278.866 80.11 278.404 79.9817 278.081 79.725C277.766 79.461 277.608 79.0797 277.608 78.581V75.292H275.771V74.632H277.608V73.158L278.411 72.971V74.632H280.886V75.292H278.411V78.449C278.411 78.7863 278.503 79.0283 278.686 79.175C278.869 79.3217 279.133 79.395 279.478 79.395C279.691 79.395 279.911 79.373 280.138 79.329C280.365 79.285 280.615 79.2117 280.886 79.109V79.835C280.644 79.923 280.406 79.989 280.171 80.033C279.936 80.0843 279.702 80.11 279.467 80.11ZM283.857 77.25V76.59H287.509V77.25H283.857ZM293.956 80V77.943H289.798V77.316L293.89 72.3H294.737V77.25H295.804V77.943H294.737V80H293.956ZM290.722 77.25H293.956V73.257L290.722 77.25Z" fill="black"/>
<rect x="246" y="13" width="158" height="23" rx="4" fill="#E9E9E9"/>
<path d="M255.001 28V20.058L255.804 19.893V23.314C256.017 23.072 256.266 22.8887 256.552 22.764C256.838 22.632 257.146 22.566 257.476 22.566C257.953 22.566 258.378 22.6907 258.752 22.94C259.133 23.182 259.434 23.512 259.654 23.93C259.881 24.3407 259.995 24.8063 259.995 25.327C259.995 25.8403 259.885 26.306 259.665 26.724C259.445 27.1347 259.148 27.4647 258.774 27.714C258.407 27.956 257.989 28.077 257.52 28.077C257.168 28.077 256.845 28.011 256.552 27.879C256.259 27.7397 256.009 27.5417 255.804 27.285V28H255.001ZM257.322 27.373C257.681 27.373 258 27.285 258.279 27.109C258.565 26.9257 258.789 26.68 258.95 26.372C259.119 26.0567 259.203 25.7047 259.203 25.316C259.203 24.92 259.119 24.568 258.95 24.26C258.789 23.952 258.565 23.71 258.279 23.534C258 23.358 257.681 23.27 257.322 23.27C257.021 23.27 256.735 23.336 256.464 23.468C256.2 23.5927 255.98 23.7687 255.804 23.996V26.658C255.973 26.8853 256.189 27.0613 256.453 27.186C256.717 27.3107 257.007 27.373 257.322 27.373ZM263.912 28.11C263.523 28.11 263.175 28.0403 262.867 27.901C262.566 27.7617 262.331 27.571 262.163 27.329C261.994 27.0797 261.91 26.7937 261.91 26.471C261.91 26.1483 261.994 25.866 262.163 25.624C262.339 25.382 262.581 25.195 262.889 25.063C263.204 24.931 263.567 24.865 263.978 24.865C264.3 24.865 264.601 24.898 264.88 24.964C265.158 25.0227 265.422 25.1253 265.672 25.272V24.656C265.672 24.1793 265.551 23.82 265.309 23.578C265.067 23.336 264.707 23.215 264.231 23.215C263.959 23.215 263.688 23.2553 263.417 23.336C263.145 23.4093 262.841 23.5413 262.504 23.732L262.174 23.127C262.562 22.9143 262.933 22.764 263.285 22.676C263.637 22.588 263.985 22.544 264.33 22.544C265.012 22.544 265.536 22.7163 265.903 23.061C266.277 23.4057 266.464 23.9007 266.464 24.546V28H265.672V27.384C265.422 27.6333 265.151 27.8167 264.858 27.934C264.572 28.0513 264.256 28.11 263.912 28.11ZM262.68 26.449C262.68 26.7643 262.808 27.0173 263.065 27.208C263.321 27.3987 263.659 27.494 264.077 27.494C264.392 27.494 264.678 27.4463 264.935 27.351C265.199 27.2483 265.444 27.087 265.672 26.867V25.833C265.444 25.6937 265.202 25.5947 264.946 25.536C264.689 25.4773 264.407 25.448 264.099 25.448C263.673 25.448 263.329 25.5397 263.065 25.723C262.808 25.9063 262.68 26.1483 262.68 26.449ZM271.579 28.11C271.073 28.11 270.615 27.989 270.204 27.747C269.801 27.4977 269.478 27.164 269.236 26.746C269.002 26.328 268.884 25.855 268.884 25.327C268.884 24.799 269.002 24.326 269.236 23.908C269.478 23.4827 269.801 23.149 270.204 22.907C270.615 22.665 271.073 22.544 271.579 22.544C272.078 22.544 272.529 22.654 272.932 22.874C273.336 23.094 273.655 23.391 273.889 23.765L273.24 24.172C273.072 23.8933 272.841 23.6733 272.547 23.512C272.261 23.3433 271.939 23.259 271.579 23.259C271.213 23.259 270.886 23.3507 270.6 23.534C270.314 23.71 270.087 23.952 269.918 24.26C269.757 24.568 269.676 24.9237 269.676 25.327C269.676 25.723 269.757 26.0787 269.918 26.394C270.087 26.702 270.314 26.9477 270.6 27.131C270.886 27.307 271.213 27.395 271.579 27.395C271.939 27.395 272.261 27.3143 272.547 27.153C272.841 26.9843 273.072 26.7607 273.24 26.482L273.889 26.889C273.655 27.263 273.336 27.56 272.932 27.78C272.529 28 272.078 28.11 271.579 28.11ZM276.53 28V20.058L277.333 19.893V25.107L280.171 22.632H281.183L278.213 25.206L281.304 28H280.226L277.333 25.382V28H276.53ZM285.716 30.409C285.356 30.409 284.993 30.3577 284.627 30.255C284.267 30.1597 283.934 30.024 283.626 29.848L283.967 29.232C284.297 29.4007 284.597 29.5253 284.869 29.606C285.14 29.6867 285.411 29.727 285.683 29.727C286.68 29.727 287.179 29.2687 287.179 28.352V27.274C286.973 27.5307 286.724 27.7287 286.431 27.868C286.137 28 285.815 28.066 285.463 28.066C285.001 28.066 284.583 27.945 284.209 27.703C283.835 27.4537 283.538 27.1237 283.318 26.713C283.098 26.295 282.988 25.8293 282.988 25.316C282.988 24.8027 283.098 24.3407 283.318 23.93C283.545 23.512 283.849 23.182 284.231 22.94C284.612 22.6907 285.037 22.566 285.507 22.566C285.844 22.566 286.156 22.632 286.442 22.764C286.728 22.8887 286.977 23.0757 287.19 23.325V22.632H287.982V28.341C287.982 29.0083 287.787 29.518 287.399 29.87C287.01 30.2293 286.449 30.409 285.716 30.409ZM285.661 27.373C285.976 27.373 286.266 27.3107 286.53 27.186C286.794 27.054 287.01 26.8743 287.179 26.647V23.996C287.003 23.7687 286.779 23.5927 286.508 23.468C286.244 23.336 285.961 23.27 285.661 23.27C285.301 23.27 284.979 23.358 284.693 23.534C284.414 23.71 284.19 23.952 284.022 24.26C283.86 24.568 283.78 24.92 283.78 25.316C283.78 25.7047 283.86 26.0567 284.022 26.372C284.19 26.68 284.414 26.9257 284.693 27.109C284.979 27.285 285.301 27.373 285.661 27.373ZM290.502 28V27.34H291.976V23.292H290.502V22.632H292.779V23.831C292.94 23.4203 293.182 23.105 293.505 22.885C293.827 22.6577 294.201 22.544 294.627 22.544C294.795 22.544 294.946 22.5587 295.078 22.588C295.21 22.61 295.367 22.6503 295.551 22.709V23.446C295.367 23.3873 295.191 23.3397 295.023 23.303C294.861 23.2663 294.7 23.248 294.539 23.248C294.143 23.248 293.791 23.3507 293.483 23.556C293.175 23.7613 292.94 24.0547 292.779 24.436V27.34H294.341V28H290.502ZM299.874 28.11C299.383 28.11 298.939 27.989 298.543 27.747C298.155 27.4977 297.843 27.164 297.608 26.746C297.381 26.328 297.267 25.855 297.267 25.327C297.267 24.799 297.381 24.326 297.608 23.908C297.843 23.4827 298.155 23.149 298.543 22.907C298.939 22.665 299.383 22.544 299.874 22.544C300.366 22.544 300.806 22.665 301.194 22.907C301.59 23.149 301.902 23.4827 302.129 23.908C302.364 24.326 302.481 24.799 302.481 25.327C302.481 25.855 302.364 26.328 302.129 26.746C301.902 27.164 301.59 27.4977 301.194 27.747C300.806 27.989 300.366 28.11 299.874 28.11ZM299.874 27.395C300.226 27.395 300.538 27.307 300.809 27.131C301.081 26.9477 301.293 26.702 301.447 26.394C301.609 26.0787 301.689 25.723 301.689 25.327C301.689 24.9237 301.609 24.568 301.447 24.26C301.293 23.952 301.081 23.71 300.809 23.534C300.538 23.3507 300.226 23.259 299.874 23.259C299.522 23.259 299.211 23.3507 298.939 23.534C298.668 23.71 298.452 23.952 298.29 24.26C298.136 24.568 298.059 24.9237 298.059 25.327C298.059 25.723 298.136 26.0787 298.29 26.394C298.452 26.702 298.668 26.9477 298.939 27.131C299.211 27.307 299.522 27.395 299.874 27.395ZM306.673 28.088C306.292 28.088 305.954 28.0037 305.661 27.835C305.368 27.6663 305.137 27.4317 304.968 27.131C304.807 26.8303 304.726 26.4857 304.726 26.097V22.632H305.54V25.866C305.54 26.3427 305.668 26.7203 305.925 26.999C306.182 27.2777 306.53 27.417 306.97 27.417C307.271 27.417 307.538 27.3473 307.773 27.208C308.015 27.0687 308.217 26.867 308.378 26.603V22.632H309.181V28H308.378V27.131C307.975 27.769 307.406 28.088 306.673 28.088ZM311.855 28V22.632H312.658V23.501C313.068 22.863 313.637 22.544 314.363 22.544C314.751 22.544 315.089 22.6283 315.375 22.797C315.668 22.9583 315.895 23.1893 316.057 23.49C316.225 23.7833 316.31 24.128 316.31 24.524V28H315.507V24.755C315.507 24.2783 315.375 23.9043 315.111 23.633C314.854 23.3543 314.506 23.215 314.066 23.215C313.772 23.215 313.505 23.2847 313.263 23.424C313.021 23.5633 312.819 23.7687 312.658 24.04V28H311.855ZM320.941 28.077C320.479 28.077 320.061 27.956 319.687 27.714C319.313 27.4647 319.016 27.1347 318.796 26.724C318.576 26.306 318.466 25.8403 318.466 25.327C318.466 24.8063 318.576 24.3407 318.796 23.93C319.024 23.512 319.328 23.182 319.709 22.94C320.091 22.6907 320.516 22.566 320.985 22.566C321.315 22.566 321.623 22.632 321.909 22.764C322.195 22.8887 322.445 23.072 322.657 23.314V20.058L323.46 19.893V28H322.657V27.285C322.452 27.5417 322.203 27.7397 321.909 27.879C321.616 28.011 321.293 28.077 320.941 28.077ZM321.139 27.373C321.455 27.373 321.744 27.3107 322.008 27.186C322.272 27.0613 322.489 26.8853 322.657 26.658V23.996C322.481 23.7687 322.258 23.5927 321.986 23.468C321.722 23.336 321.44 23.27 321.139 23.27C320.78 23.27 320.457 23.358 320.171 23.534C319.893 23.71 319.669 23.952 319.5 24.26C319.339 24.568 319.258 24.92 319.258 25.316C319.258 25.7047 319.339 26.0567 319.5 26.372C319.669 26.68 319.893 26.9257 320.171 27.109C320.457 27.285 320.78 27.373 321.139 27.373ZM326.431 25.25V24.59H330.083V25.25H326.431ZM335.485 28.11C334.971 28.11 334.509 27.989 334.099 27.747C333.688 27.4977 333.362 27.164 333.12 26.746C332.885 26.3207 332.768 25.844 332.768 25.316C332.768 24.788 332.881 24.315 333.109 23.897C333.336 23.479 333.644 23.149 334.033 22.907C334.429 22.665 334.869 22.544 335.353 22.544C335.859 22.544 336.31 22.665 336.706 22.907C337.102 23.1417 337.413 23.4643 337.641 23.875C337.868 24.2783 337.982 24.7367 337.982 25.25V25.492H333.549C333.578 25.8587 333.681 26.1887 333.857 26.482C334.033 26.768 334.264 26.9953 334.55 27.164C334.843 27.3253 335.166 27.406 335.518 27.406C335.833 27.406 336.126 27.3473 336.398 27.23C336.676 27.1053 336.907 26.9367 337.091 26.724L337.652 27.219C337.366 27.5123 337.039 27.736 336.673 27.89C336.306 28.0367 335.91 28.11 335.485 28.11ZM333.571 24.898H337.19C337.146 24.5753 337.036 24.2893 336.86 24.04C336.691 23.7907 336.475 23.5963 336.211 23.457C335.954 23.3103 335.664 23.237 335.342 23.237C335.041 23.237 334.766 23.3067 334.517 23.446C334.267 23.5853 334.058 23.7797 333.89 24.029C333.728 24.2783 333.622 24.568 333.571 24.898ZM343.713 28.11C343.149 28.11 342.716 27.978 342.415 27.714C342.115 27.45 341.964 27.054 341.964 26.526V20.663H339.973V20.003H342.767V26.449C342.767 26.7863 342.848 27.0283 343.009 27.175C343.171 27.3217 343.409 27.395 343.724 27.395C343.915 27.395 344.109 27.3767 344.307 27.34C344.505 27.296 344.725 27.2263 344.967 27.131V27.857C344.755 27.9303 344.542 27.989 344.329 28.033C344.124 28.0843 343.919 28.11 343.713 28.11ZM349.676 28.11C349.163 28.11 348.701 27.989 348.29 27.747C347.879 27.4977 347.553 27.164 347.311 26.746C347.076 26.3207 346.959 25.844 346.959 25.316C346.959 24.788 347.073 24.315 347.3 23.897C347.527 23.479 347.835 23.149 348.224 22.907C348.62 22.665 349.06 22.544 349.544 22.544C350.05 22.544 350.501 22.665 350.897 22.907C351.293 23.1417 351.605 23.4643 351.832 23.875C352.059 24.2783 352.173 24.7367 352.173 25.25V25.492H347.74C347.769 25.8587 347.872 26.1887 348.048 26.482C348.224 26.768 348.455 26.9953 348.741 27.164C349.034 27.3253 349.357 27.406 349.709 27.406C350.024 27.406 350.318 27.3473 350.589 27.23C350.868 27.1053 351.099 26.9367 351.282 26.724L351.843 27.219C351.557 27.5123 351.231 27.736 350.864 27.89C350.497 28.0367 350.101 28.11 349.676 28.11ZM347.762 24.898H351.381C351.337 24.5753 351.227 24.2893 351.051 24.04C350.882 23.7907 350.666 23.5963 350.402 23.457C350.145 23.3103 349.856 23.237 349.533 23.237C349.232 23.237 348.957 23.3067 348.708 23.446C348.459 23.5853 348.25 23.7797 348.081 24.029C347.92 24.2783 347.813 24.568 347.762 24.898ZM354.077 28V22.632H354.825V23.094C354.957 22.9033 355.1 22.7677 355.254 22.687C355.415 22.599 355.599 22.555 355.804 22.555C356.039 22.555 356.248 22.6137 356.431 22.731C356.614 22.841 356.757 22.9987 356.86 23.204C357.007 22.9767 357.175 22.8117 357.366 22.709C357.564 22.6063 357.788 22.555 358.037 22.555C358.396 22.555 358.686 22.687 358.906 22.951C359.133 23.215 359.247 23.5597 359.247 23.985V28H358.51V24.183C358.51 23.8677 358.444 23.6183 358.312 23.435C358.18 23.2517 357.989 23.16 357.74 23.16C357.601 23.16 357.472 23.193 357.355 23.259C357.238 23.3177 357.124 23.435 357.014 23.611C357.029 23.6697 357.036 23.732 357.036 23.798C357.043 23.8567 357.047 23.919 357.047 23.985V28H356.31V24.183C356.31 23.8677 356.24 23.6183 356.101 23.435C355.969 23.2517 355.775 23.16 355.518 23.16C355.393 23.16 355.272 23.1893 355.155 23.248C355.038 23.2993 354.928 23.4057 354.825 23.567V28H354.077ZM363.868 28.11C363.354 28.11 362.892 27.989 362.482 27.747C362.071 27.4977 361.745 27.164 361.503 26.746C361.268 26.3207 361.151 25.844 361.151 25.316C361.151 24.788 361.264 24.315 361.492 23.897C361.719 23.479 362.027 23.149 362.416 22.907C362.812 22.665 363.252 22.544 363.736 22.544C364.242 22.544 364.693 22.665 365.089 22.907C365.485 23.1417 365.796 23.4643 366.024 23.875C366.251 24.2783 366.365 24.7367 366.365 25.25V25.492H361.932C361.961 25.8587 362.064 26.1887 362.24 26.482C362.416 26.768 362.647 26.9953 362.933 27.164C363.226 27.3253 363.549 27.406 363.901 27.406C364.216 27.406 364.509 27.3473 364.781 27.23C365.059 27.1053 365.29 26.9367 365.474 26.724L366.035 27.219C365.749 27.5123 365.422 27.736 365.056 27.89C364.689 28.0367 364.293 28.11 363.868 28.11ZM361.954 24.898H365.573C365.529 24.5753 365.419 24.2893 365.243 24.04C365.074 23.7907 364.858 23.5963 364.594 23.457C364.337 23.3103 364.047 23.237 363.725 23.237C363.424 23.237 363.149 23.3067 362.9 23.446C362.65 23.5853 362.441 23.7797 362.273 24.029C362.111 24.2783 362.005 24.568 361.954 24.898ZM368.62 28V22.632H369.423V23.501C369.834 22.863 370.402 22.544 371.128 22.544C371.517 22.544 371.854 22.6283 372.14 22.797C372.434 22.9583 372.661 23.1893 372.822 23.49C372.991 23.7833 373.075 24.128 373.075 24.524V28H372.272V24.755C372.272 24.2783 372.14 23.9043 371.876 23.633C371.62 23.3543 371.271 23.215 370.831 23.215C370.538 23.215 370.27 23.2847 370.028 23.424C369.786 23.5633 369.585 23.7687 369.423 24.04V28H368.62ZM378.807 28.11C378.206 28.11 377.744 27.9817 377.421 27.725C377.106 27.461 376.948 27.0797 376.948 26.581V23.292H375.111V22.632H376.948V21.158L377.751 20.971V22.632H380.226V23.292H377.751V26.449C377.751 26.7863 377.843 27.0283 378.026 27.175C378.209 27.3217 378.473 27.395 378.818 27.395C379.031 27.395 379.251 27.373 379.478 27.329C379.705 27.285 379.955 27.2117 380.226 27.109V27.835C379.984 27.923 379.746 27.989 379.511 28.033C379.276 28.0843 379.042 28.11 378.807 28.11ZM383.197 25.25V24.59H386.849V25.25H383.197ZM391.986 28.121C390.974 28.121 390.102 27.7727 389.368 27.076L389.863 26.537C390.201 26.8523 390.534 27.0833 390.864 27.23C391.202 27.3693 391.579 27.439 391.997 27.439C392.371 27.439 392.701 27.362 392.987 27.208C393.273 27.054 393.493 26.8377 393.647 26.559C393.809 26.2803 393.889 25.9613 393.889 25.602C393.889 25.0887 393.713 24.6743 393.361 24.359C393.017 24.0437 392.562 23.886 391.997 23.886C391.704 23.886 391.418 23.9227 391.139 23.996C390.861 24.062 390.571 24.172 390.27 24.326L389.72 24.15L389.896 20.3H394.274V20.993H390.578L390.457 23.655C390.751 23.5083 391.033 23.4057 391.304 23.347C391.576 23.281 391.862 23.248 392.162 23.248C392.668 23.248 393.108 23.347 393.482 23.545C393.864 23.7357 394.157 24.007 394.362 24.359C394.575 24.7037 394.681 25.107 394.681 25.569C394.681 26.075 394.568 26.5187 394.34 26.9C394.113 27.2813 393.798 27.582 393.394 27.802C392.991 28.0147 392.522 28.121 391.986 28.121Z" fill="black"/>
<circle cx="153" cy="26" r="7" fill="white" stroke="#29D305" stroke-width="2"/>
<path d="M160 25L240 25" stroke="#29D305" stroke-width="2" stroke-linecap="round" stroke-linejoin="round"/>
<circle cx="153" cy="26" r="2" fill="#29D305"/>
<circle cx="113" cy="47" r="7" transform="rotate(180 113 47)" fill="white" stroke="#29D305" stroke-width="2"/>
<path d="M240 77H113" stroke="#29D305" stroke-width="2" stroke-linecap="round" stroke-linejoin="round"/>
<circle cx="113" cy="47" r="2" transform="rotate(180 113 47)" fill="#29D305"/>
<path d="M113 55L113 77" stroke="#29D305" stroke-width="2" stroke-linecap="round" stroke-linejoin="round"/>
<rect width="775" height="111" transform="translate(0 102)" fill="#1F1F1F"/>
<rect x="51" y="120" width="122" height="48" rx="24" fill="#EDEDED"/>
<path d="M84.6872 150V137.4H90.1412C90.9692 137.4 91.6892 137.538 92.3012 137.814C92.9132 138.09 93.3872 138.48 93.7232 138.984C94.0592 139.476 94.2272 140.058 94.2272 140.73C94.2272 141.342 94.0712 141.882 93.7592 142.35C93.4472 142.818 93.0092 143.19 92.4452 143.466C93.1532 143.718 93.7052 144.102 94.1012 144.618C94.5092 145.122 94.7132 145.716 94.7132 146.4C94.7132 147.132 94.5332 147.768 94.1732 148.308C93.8132 148.848 93.3092 149.268 92.6612 149.568C92.0132 149.856 91.2512 150 90.3752 150H84.6872ZM86.5772 142.746H90.0332C90.7412 142.746 91.3052 142.578 91.7252 142.242C92.1452 141.906 92.3552 141.45 92.3552 140.874C92.3552 140.298 92.1452 139.842 91.7252 139.506C91.3052 139.17 90.7412 139.002 90.0332 139.002H86.5772V142.746ZM86.5772 148.398H90.2312C91.0232 148.398 91.6472 148.212 92.1032 147.84C92.5712 147.468 92.8052 146.964 92.8052 146.328C92.8052 145.704 92.5712 145.206 92.1032 144.834C91.6472 144.45 91.0232 144.258 90.2312 144.258H86.5772V148.398ZM99.9176 150.18C99.2096 150.18 98.5856 150.03 98.0456 149.73C97.5056 149.43 97.0856 149.01 96.7856 148.47C96.4856 147.918 96.3356 147.288 96.3356 146.58V140.838H98.1176V146.274C98.1176 146.994 98.3216 147.564 98.7296 147.984C99.1496 148.404 99.7076 148.614 100.404 148.614C100.896 148.614 101.334 148.512 101.718 148.308C102.102 148.092 102.414 147.792 102.654 147.408V140.838H104.454V150H102.654V149.064C101.946 149.808 101.034 150.18 99.9176 150.18ZM110.508 150.162C109.62 150.162 108.942 149.958 108.474 149.55C108.006 149.13 107.772 148.524 107.772 147.732V142.35H105.828V140.838H107.772V138.498L109.554 138.066V140.838H112.254V142.35H109.554V147.318C109.554 147.786 109.656 148.122 109.86 148.326C110.076 148.518 110.424 148.614 110.904 148.614C111.156 148.614 111.378 148.596 111.57 148.56C111.774 148.524 111.99 148.47 112.218 148.398V149.91C111.978 149.994 111.696 150.054 111.372 150.09C111.06 150.138 110.772 150.162 110.508 150.162ZM117.68 150.162C116.792 150.162 116.114 149.958 115.646 149.55C115.178 149.13 114.944 148.524 114.944 147.732V142.35H113V140.838H114.944V138.498L116.726 138.066V140.838H119.426V142.35H116.726V147.318C116.726 147.786 116.828 148.122 117.032 148.326C117.248 148.518 117.596 148.614 118.076 148.614C118.328 148.614 118.55 148.596 118.742 148.56C118.946 148.524 119.162 148.47 119.39 148.398V149.91C119.15 149.994 118.868 150.054 118.544 150.09C118.232 150.138 117.944 150.162 117.68 150.162ZM124.968 150.18C124.08 150.18 123.27 149.97 122.538 149.55C121.818 149.13 121.248 148.56 120.828 147.84C120.408 147.12 120.198 146.316 120.198 145.428C120.198 144.54 120.408 143.736 120.828 143.016C121.248 142.296 121.818 141.726 122.538 141.306C123.27 140.874 124.08 140.658 124.968 140.658C125.868 140.658 126.678 140.874 127.398 141.306C128.118 141.726 128.688 142.296 129.108 143.016C129.528 143.736 129.738 144.54 129.738 145.428C129.738 146.316 129.528 147.12 129.108 147.84C128.688 148.56 128.118 149.13 127.398 149.55C126.678 149.97 125.868 150.18 124.968 150.18ZM124.968 148.596C125.532 148.596 126.042 148.458 126.498 148.182C126.954 147.894 127.314 147.51 127.578 147.03C127.842 146.55 127.974 146.01 127.974 145.41C127.974 144.822 127.836 144.294 127.56 143.826C127.296 143.346 126.936 142.962 126.48 142.674C126.036 142.386 125.532 142.242 124.968 142.242C124.404 142.242 123.894 142.386 123.438 142.674C122.994 142.962 122.634 143.346 122.358 143.826C122.094 144.294 121.962 144.822 121.962 145.41C121.962 146.01 122.094 146.55 122.358 147.03C122.622 147.51 122.982 147.894 123.438 148.182C123.894 148.458 124.404 148.596 124.968 148.596ZM131.44 150V140.838H133.24V141.774C133.948 141.03 134.866 140.658 135.994 140.658C136.702 140.658 137.32 140.808 137.848 141.108C138.388 141.408 138.808 141.828 139.108 142.368C139.42 142.908 139.576 143.532 139.576 144.24V150H137.776V144.546C137.776 143.826 137.572 143.262 137.164 142.854C136.768 142.434 136.21 142.224 135.49 142.224C135.01 142.224 134.578 142.326 134.194 142.53C133.81 142.734 133.492 143.028 133.24 143.412V150H131.44Z" fill="#171717"/>
<rect x="246" y="172" width="59" height="23" rx="4" fill="#333333"/>
<path d="M258.18 187.11C257.579 187.11 257.117 186.982 256.794 186.725C256.479 186.461 256.321 186.08 256.321 185.581V182.292H254.484V181.632H256.321V180.158L257.124 179.971V181.632H259.599V182.292H257.124V185.449C257.124 185.786 257.216 186.028 257.399 186.175C257.582 186.322 257.846 186.395 258.191 186.395C258.404 186.395 258.624 186.373 258.851 186.329C259.078 186.285 259.328 186.212 259.599 186.109V186.835C259.357 186.923 259.119 186.989 258.884 187.033C258.649 187.084 258.415 187.11 258.18 187.11ZM264.528 187.11C264.014 187.11 263.552 186.989 263.142 186.747C262.731 186.498 262.405 186.164 262.163 185.746C261.928 185.321 261.811 184.844 261.811 184.316C261.811 183.788 261.924 183.315 262.152 182.897C262.379 182.479 262.687 182.149 263.076 181.907C263.472 181.665 263.912 181.544 264.396 181.544C264.902 181.544 265.353 181.665 265.749 181.907C266.145 182.142 266.456 182.464 266.684 182.875C266.911 183.278 267.025 183.737 267.025 184.25V184.492H262.592C262.621 184.859 262.724 185.189 262.9 185.482C263.076 185.768 263.307 185.995 263.593 186.164C263.886 186.325 264.209 186.406 264.561 186.406C264.876 186.406 265.169 186.347 265.441 186.23C265.719 186.105 265.95 185.937 266.134 185.724L266.695 186.219C266.409 186.512 266.082 186.736 265.716 186.89C265.349 187.037 264.953 187.11 264.528 187.11ZM262.614 183.898H266.233C266.189 183.575 266.079 183.289 265.903 183.04C265.734 182.791 265.518 182.596 265.254 182.457C264.997 182.31 264.707 182.237 264.385 182.237C264.084 182.237 263.809 182.307 263.56 182.446C263.31 182.585 263.101 182.78 262.933 183.029C262.771 183.278 262.665 183.568 262.614 183.898ZM268.829 187L270.996 184.239L268.928 181.632H269.885L271.502 183.689L273.141 181.632H274.054L271.975 184.217L274.153 187H273.196L271.458 184.789L269.742 187H268.829ZM279.467 187.11C278.866 187.11 278.404 186.982 278.081 186.725C277.766 186.461 277.608 186.08 277.608 185.581V182.292H275.771V181.632H277.608V180.158L278.411 179.971V181.632H280.886V182.292H278.411V185.449C278.411 185.786 278.503 186.028 278.686 186.175C278.869 186.322 279.133 186.395 279.478 186.395C279.691 186.395 279.911 186.373 280.138 186.329C280.365 186.285 280.615 186.212 280.886 186.109V186.835C280.644 186.923 280.406 186.989 280.171 187.033C279.936 187.084 279.702 187.11 279.467 187.11ZM283.857 184.25V183.59H287.509V184.25H283.857ZM293.956 187V184.943H289.798V184.316L293.89 179.3H294.737V184.25H295.804V184.943H294.737V187H293.956ZM290.722 184.25H293.956V180.257L290.722 184.25Z" fill="#EDEDED"/>
<rect x="246" y="120" width="158" height="23" rx="4" fill="#333333"/>
<path d="M255.001 135V127.058L255.804 126.893V130.314C256.017 130.072 256.266 129.889 256.552 129.764C256.838 129.632 257.146 129.566 257.476 129.566C257.953 129.566 258.378 129.691 258.752 129.94C259.133 130.182 259.434 130.512 259.654 130.93C259.881 131.341 259.995 131.806 259.995 132.327C259.995 132.84 259.885 133.306 259.665 133.724C259.445 134.135 259.148 134.465 258.774 134.714C258.407 134.956 257.989 135.077 257.52 135.077C257.168 135.077 256.845 135.011 256.552 134.879C256.259 134.74 256.009 134.542 255.804 134.285V135H255.001ZM257.322 134.373C257.681 134.373 258 134.285 258.279 134.109C258.565 133.926 258.789 133.68 258.95 133.372C259.119 133.057 259.203 132.705 259.203 132.316C259.203 131.92 259.119 131.568 258.95 131.26C258.789 130.952 258.565 130.71 258.279 130.534C258 130.358 257.681 130.27 257.322 130.27C257.021 130.27 256.735 130.336 256.464 130.468C256.2 130.593 255.98 130.769 255.804 130.996V133.658C255.973 133.885 256.189 134.061 256.453 134.186C256.717 134.311 257.007 134.373 257.322 134.373ZM263.912 135.11C263.523 135.11 263.175 135.04 262.867 134.901C262.566 134.762 262.331 134.571 262.163 134.329C261.994 134.08 261.91 133.794 261.91 133.471C261.91 133.148 261.994 132.866 262.163 132.624C262.339 132.382 262.581 132.195 262.889 132.063C263.204 131.931 263.567 131.865 263.978 131.865C264.3 131.865 264.601 131.898 264.88 131.964C265.158 132.023 265.422 132.125 265.672 132.272V131.656C265.672 131.179 265.551 130.82 265.309 130.578C265.067 130.336 264.707 130.215 264.231 130.215C263.959 130.215 263.688 130.255 263.417 130.336C263.145 130.409 262.841 130.541 262.504 130.732L262.174 130.127C262.562 129.914 262.933 129.764 263.285 129.676C263.637 129.588 263.985 129.544 264.33 129.544C265.012 129.544 265.536 129.716 265.903 130.061C266.277 130.406 266.464 130.901 266.464 131.546V135H265.672V134.384C265.422 134.633 265.151 134.817 264.858 134.934C264.572 135.051 264.256 135.11 263.912 135.11ZM262.68 133.449C262.68 133.764 262.808 134.017 263.065 134.208C263.321 134.399 263.659 134.494 264.077 134.494C264.392 134.494 264.678 134.446 264.935 134.351C265.199 134.248 265.444 134.087 265.672 133.867V132.833C265.444 132.694 265.202 132.595 264.946 132.536C264.689 132.477 264.407 132.448 264.099 132.448C263.673 132.448 263.329 132.54 263.065 132.723C262.808 132.906 262.68 133.148 262.68 133.449ZM271.579 135.11C271.073 135.11 270.615 134.989 270.204 134.747C269.801 134.498 269.478 134.164 269.236 133.746C269.002 133.328 268.884 132.855 268.884 132.327C268.884 131.799 269.002 131.326 269.236 130.908C269.478 130.483 269.801 130.149 270.204 129.907C270.615 129.665 271.073 129.544 271.579 129.544C272.078 129.544 272.529 129.654 272.932 129.874C273.336 130.094 273.655 130.391 273.889 130.765L273.24 131.172C273.072 130.893 272.841 130.673 272.547 130.512C272.261 130.343 271.939 130.259 271.579 130.259C271.213 130.259 270.886 130.351 270.6 130.534C270.314 130.71 270.087 130.952 269.918 131.26C269.757 131.568 269.676 131.924 269.676 132.327C269.676 132.723 269.757 133.079 269.918 133.394C270.087 133.702 270.314 133.948 270.6 134.131C270.886 134.307 271.213 134.395 271.579 134.395C271.939 134.395 272.261 134.314 272.547 134.153C272.841 133.984 273.072 133.761 273.24 133.482L273.889 133.889C273.655 134.263 273.336 134.56 272.932 134.78C272.529 135 272.078 135.11 271.579 135.11ZM276.53 135V127.058L277.333 126.893V132.107L280.171 129.632H281.183L278.213 132.206L281.304 135H280.226L277.333 132.382V135H276.53ZM285.716 137.409C285.356 137.409 284.993 137.358 284.627 137.255C284.267 137.16 283.934 137.024 283.626 136.848L283.967 136.232C284.297 136.401 284.597 136.525 284.869 136.606C285.14 136.687 285.411 136.727 285.683 136.727C286.68 136.727 287.179 136.269 287.179 135.352V134.274C286.973 134.531 286.724 134.729 286.431 134.868C286.137 135 285.815 135.066 285.463 135.066C285.001 135.066 284.583 134.945 284.209 134.703C283.835 134.454 283.538 134.124 283.318 133.713C283.098 133.295 282.988 132.829 282.988 132.316C282.988 131.803 283.098 131.341 283.318 130.93C283.545 130.512 283.849 130.182 284.231 129.94C284.612 129.691 285.037 129.566 285.507 129.566C285.844 129.566 286.156 129.632 286.442 129.764C286.728 129.889 286.977 130.076 287.19 130.325V129.632H287.982V135.341C287.982 136.008 287.787 136.518 287.399 136.87C287.01 137.229 286.449 137.409 285.716 137.409ZM285.661 134.373C285.976 134.373 286.266 134.311 286.53 134.186C286.794 134.054 287.01 133.874 287.179 133.647V130.996C287.003 130.769 286.779 130.593 286.508 130.468C286.244 130.336 285.961 130.27 285.661 130.27C285.301 130.27 284.979 130.358 284.693 130.534C284.414 130.71 284.19 130.952 284.022 131.26C283.86 131.568 283.78 131.92 283.78 132.316C283.78 132.705 283.86 133.057 284.022 133.372C284.19 133.68 284.414 133.926 284.693 134.109C284.979 134.285 285.301 134.373 285.661 134.373ZM290.502 135V134.34H291.976V130.292H290.502V129.632H292.779V130.831C292.94 130.42 293.182 130.105 293.505 129.885C293.827 129.658 294.201 129.544 294.627 129.544C294.795 129.544 294.946 129.559 295.078 129.588C295.21 129.61 295.367 129.65 295.551 129.709V130.446C295.367 130.387 295.191 130.34 295.023 130.303C294.861 130.266 294.7 130.248 294.539 130.248C294.143 130.248 293.791 130.351 293.483 130.556C293.175 130.761 292.94 131.055 292.779 131.436V134.34H294.341V135H290.502ZM299.874 135.11C299.383 135.11 298.939 134.989 298.543 134.747C298.155 134.498 297.843 134.164 297.608 133.746C297.381 133.328 297.267 132.855 297.267 132.327C297.267 131.799 297.381 131.326 297.608 130.908C297.843 130.483 298.155 130.149 298.543 129.907C298.939 129.665 299.383 129.544 299.874 129.544C300.366 129.544 300.806 129.665 301.194 129.907C301.59 130.149 301.902 130.483 302.129 130.908C302.364 131.326 302.481 131.799 302.481 132.327C302.481 132.855 302.364 133.328 302.129 133.746C301.902 134.164 301.59 134.498 301.194 134.747C300.806 134.989 300.366 135.11 299.874 135.11ZM299.874 134.395C300.226 134.395 300.538 134.307 300.809 134.131C301.081 133.948 301.293 133.702 301.447 133.394C301.609 133.079 301.689 132.723 301.689 132.327C301.689 131.924 301.609 131.568 301.447 131.26C301.293 130.952 301.081 130.71 300.809 130.534C300.538 130.351 300.226 130.259 299.874 130.259C299.522 130.259 299.211 130.351 298.939 130.534C298.668 130.71 298.452 130.952 298.29 131.26C298.136 131.568 298.059 131.924 298.059 132.327C298.059 132.723 298.136 133.079 298.29 133.394C298.452 133.702 298.668 133.948 298.939 134.131C299.211 134.307 299.522 134.395 299.874 134.395ZM306.673 135.088C306.292 135.088 305.954 135.004 305.661 134.835C305.368 134.666 305.137 134.432 304.968 134.131C304.807 133.83 304.726 133.486 304.726 133.097V129.632H305.54V132.866C305.54 133.343 305.668 133.72 305.925 133.999C306.182 134.278 306.53 134.417 306.97 134.417C307.271 134.417 307.538 134.347 307.773 134.208C308.015 134.069 308.217 133.867 308.378 133.603V129.632H309.181V135H308.378V134.131C307.975 134.769 307.406 135.088 306.673 135.088ZM311.855 135V129.632H312.658V130.501C313.068 129.863 313.637 129.544 314.363 129.544C314.751 129.544 315.089 129.628 315.375 129.797C315.668 129.958 315.895 130.189 316.057 130.49C316.225 130.783 316.31 131.128 316.31 131.524V135H315.507V131.755C315.507 131.278 315.375 130.904 315.111 130.633C314.854 130.354 314.506 130.215 314.066 130.215C313.772 130.215 313.505 130.285 313.263 130.424C313.021 130.563 312.819 130.769 312.658 131.04V135H311.855ZM320.941 135.077C320.479 135.077 320.061 134.956 319.687 134.714C319.313 134.465 319.016 134.135 318.796 133.724C318.576 133.306 318.466 132.84 318.466 132.327C318.466 131.806 318.576 131.341 318.796 130.93C319.024 130.512 319.328 130.182 319.709 129.94C320.091 129.691 320.516 129.566 320.985 129.566C321.315 129.566 321.623 129.632 321.909 129.764C322.195 129.889 322.445 130.072 322.657 130.314V127.058L323.46 126.893V135H322.657V134.285C322.452 134.542 322.203 134.74 321.909 134.879C321.616 135.011 321.293 135.077 320.941 135.077ZM321.139 134.373C321.455 134.373 321.744 134.311 322.008 134.186C322.272 134.061 322.489 133.885 322.657 133.658V130.996C322.481 130.769 322.258 130.593 321.986 130.468C321.722 130.336 321.44 130.27 321.139 130.27C320.78 130.27 320.457 130.358 320.171 130.534C319.893 130.71 319.669 130.952 319.5 131.26C319.339 131.568 319.258 131.92 319.258 132.316C319.258 132.705 319.339 133.057 319.5 133.372C319.669 133.68 319.893 133.926 320.171 134.109C320.457 134.285 320.78 134.373 321.139 134.373ZM326.431 132.25V131.59H330.083V132.25H326.431ZM335.485 135.11C334.971 135.11 334.509 134.989 334.099 134.747C333.688 134.498 333.362 134.164 333.12 133.746C332.885 133.321 332.768 132.844 332.768 132.316C332.768 131.788 332.881 131.315 333.109 130.897C333.336 130.479 333.644 130.149 334.033 129.907C334.429 129.665 334.869 129.544 335.353 129.544C335.859 129.544 336.31 129.665 336.706 129.907C337.102 130.142 337.413 130.464 337.641 130.875C337.868 131.278 337.982 131.737 337.982 132.25V132.492H333.549C333.578 132.859 333.681 133.189 333.857 133.482C334.033 133.768 334.264 133.995 334.55 134.164C334.843 134.325 335.166 134.406 335.518 134.406C335.833 134.406 336.126 134.347 336.398 134.23C336.676 134.105 336.907 133.937 337.091 133.724L337.652 134.219C337.366 134.512 337.039 134.736 336.673 134.89C336.306 135.037 335.91 135.11 335.485 135.11ZM333.571 131.898H337.19C337.146 131.575 337.036 131.289 336.86 131.04C336.691 130.791 336.475 130.596 336.211 130.457C335.954 130.31 335.664 130.237 335.342 130.237C335.041 130.237 334.766 130.307 334.517 130.446C334.267 130.585 334.058 130.78 333.89 131.029C333.728 131.278 333.622 131.568 333.571 131.898ZM343.713 135.11C343.149 135.11 342.716 134.978 342.415 134.714C342.115 134.45 341.964 134.054 341.964 133.526V127.663H339.973V127.003H342.767V133.449C342.767 133.786 342.848 134.028 343.009 134.175C343.171 134.322 343.409 134.395 343.724 134.395C343.915 134.395 344.109 134.377 344.307 134.34C344.505 134.296 344.725 134.226 344.967 134.131V134.857C344.755 134.93 344.542 134.989 344.329 135.033C344.124 135.084 343.919 135.11 343.713 135.11ZM349.676 135.11C349.163 135.11 348.701 134.989 348.29 134.747C347.879 134.498 347.553 134.164 347.311 133.746C347.076 133.321 346.959 132.844 346.959 132.316C346.959 131.788 347.073 131.315 347.3 130.897C347.527 130.479 347.835 130.149 348.224 129.907C348.62 129.665 349.06 129.544 349.544 129.544C350.05 129.544 350.501 129.665 350.897 129.907C351.293 130.142 351.605 130.464 351.832 130.875C352.059 131.278 352.173 131.737 352.173 132.25V132.492H347.74C347.769 132.859 347.872 133.189 348.048 133.482C348.224 133.768 348.455 133.995 348.741 134.164C349.034 134.325 349.357 134.406 349.709 134.406C350.024 134.406 350.318 134.347 350.589 134.23C350.868 134.105 351.099 133.937 351.282 133.724L351.843 134.219C351.557 134.512 351.231 134.736 350.864 134.89C350.497 135.037 350.101 135.11 349.676 135.11ZM347.762 131.898H351.381C351.337 131.575 351.227 131.289 351.051 131.04C350.882 130.791 350.666 130.596 350.402 130.457C350.145 130.31 349.856 130.237 349.533 130.237C349.232 130.237 348.957 130.307 348.708 130.446C348.459 130.585 348.25 130.78 348.081 131.029C347.92 131.278 347.813 131.568 347.762 131.898ZM354.077 135V129.632H354.825V130.094C354.957 129.903 355.1 129.768 355.254 129.687C355.415 129.599 355.599 129.555 355.804 129.555C356.039 129.555 356.248 129.614 356.431 129.731C356.614 129.841 356.757 129.999 356.86 130.204C357.007 129.977 357.175 129.812 357.366 129.709C357.564 129.606 357.788 129.555 358.037 129.555C358.396 129.555 358.686 129.687 358.906 129.951C359.133 130.215 359.247 130.56 359.247 130.985V135H358.51V131.183C358.51 130.868 358.444 130.618 358.312 130.435C358.18 130.252 357.989 130.16 357.74 130.16C357.601 130.16 357.472 130.193 357.355 130.259C357.238 130.318 357.124 130.435 357.014 130.611C357.029 130.67 357.036 130.732 357.036 130.798C357.043 130.857 357.047 130.919 357.047 130.985V135H356.31V131.183C356.31 130.868 356.24 130.618 356.101 130.435C355.969 130.252 355.775 130.16 355.518 130.16C355.393 130.16 355.272 130.189 355.155 130.248C355.038 130.299 354.928 130.406 354.825 130.567V135H354.077ZM363.868 135.11C363.354 135.11 362.892 134.989 362.482 134.747C362.071 134.498 361.745 134.164 361.503 133.746C361.268 133.321 361.151 132.844 361.151 132.316C361.151 131.788 361.264 131.315 361.492 130.897C361.719 130.479 362.027 130.149 362.416 129.907C362.812 129.665 363.252 129.544 363.736 129.544C364.242 129.544 364.693 129.665 365.089 129.907C365.485 130.142 365.796 130.464 366.024 130.875C366.251 131.278 366.365 131.737 366.365 132.25V132.492H361.932C361.961 132.859 362.064 133.189 362.24 133.482C362.416 133.768 362.647 133.995 362.933 134.164C363.226 134.325 363.549 134.406 363.901 134.406C364.216 134.406 364.509 134.347 364.781 134.23C365.059 134.105 365.29 133.937 365.474 133.724L366.035 134.219C365.749 134.512 365.422 134.736 365.056 134.89C364.689 135.037 364.293 135.11 363.868 135.11ZM361.954 131.898H365.573C365.529 131.575 365.419 131.289 365.243 131.04C365.074 130.791 364.858 130.596 364.594 130.457C364.337 130.31 364.047 130.237 363.725 130.237C363.424 130.237 363.149 130.307 362.9 130.446C362.65 130.585 362.441 130.78 362.273 131.029C362.111 131.278 362.005 131.568 361.954 131.898ZM368.62 135V129.632H369.423V130.501C369.834 129.863 370.402 129.544 371.128 129.544C371.517 129.544 371.854 129.628 372.14 129.797C372.434 129.958 372.661 130.189 372.822 130.49C372.991 130.783 373.075 131.128 373.075 131.524V135H372.272V131.755C372.272 131.278 372.14 130.904 371.876 130.633C371.62 130.354 371.271 130.215 370.831 130.215C370.538 130.215 370.27 130.285 370.028 130.424C369.786 130.563 369.585 130.769 369.423 131.04V135H368.62ZM378.807 135.11C378.206 135.11 377.744 134.982 377.421 134.725C377.106 134.461 376.948 134.08 376.948 133.581V130.292H375.111V129.632H376.948V128.158L377.751 127.971V129.632H380.226V130.292H377.751V133.449C377.751 133.786 377.843 134.028 378.026 134.175C378.209 134.322 378.473 134.395 378.818 134.395C379.031 134.395 379.251 134.373 379.478 134.329C379.705 134.285 379.955 134.212 380.226 134.109V134.835C379.984 134.923 379.746 134.989 379.511 135.033C379.276 135.084 379.042 135.11 378.807 135.11ZM383.197 132.25V131.59H386.849V132.25H383.197ZM391.986 135.121C390.974 135.121 390.102 134.773 389.368 134.076L389.863 133.537C390.201 133.852 390.534 134.083 390.864 134.23C391.202 134.369 391.579 134.439 391.997 134.439C392.371 134.439 392.701 134.362 392.987 134.208C393.273 134.054 393.493 133.838 393.647 133.559C393.809 133.28 393.889 132.961 393.889 132.602C393.889 132.089 393.713 131.674 393.361 131.359C393.017 131.044 392.562 130.886 391.997 130.886C391.704 130.886 391.418 130.923 391.139 130.996C390.861 131.062 390.571 131.172 390.27 131.326L389.72 131.15L389.896 127.3H394.274V127.993H390.578L390.457 130.655C390.751 130.508 391.033 130.406 391.304 130.347C391.576 130.281 391.862 130.248 392.162 130.248C392.668 130.248 393.108 130.347 393.482 130.545C393.864 130.736 394.157 131.007 394.362 131.359C394.575 131.704 394.681 132.107 394.681 132.569C394.681 133.075 394.568 133.519 394.34 133.9C394.113 134.281 393.798 134.582 393.394 134.802C392.991 135.015 392.522 135.121 391.986 135.121Z" fill="#EDEDED"/>
<circle cx="152" cy="133" r="7" fill="white" stroke="#35BB18" stroke-width="2"/>
<path d="M159 132L239 132" stroke="#35BB18" stroke-width="2" stroke-linecap="round" stroke-linejoin="round"/>
<circle cx="152" cy="133" r="1.5" fill="#29D305" stroke="#35BB18"/>
<circle cx="112" cy="154" r="7" transform="rotate(180 112 154)" fill="white" stroke="#35BB18" stroke-width="2"/>
<path d="M239 184H112" stroke="#35BB18" stroke-width="2" stroke-linecap="round" stroke-linejoin="round"/>
<circle cx="112" cy="154" r="1.5" transform="rotate(180 112 154)" fill="#29D305" stroke="#35BB18"/>
<path d="M112 162L112 184" stroke="#35BB18" stroke-width="2" stroke-linecap="round" stroke-linejoin="round"/>
</svg>
