<svg width="537" height="180" viewBox="0 0 537 180" fill="none" xmlns="http://www.w3.org/2000/svg">
<rect x="1" y="34" width="46" height="46" fill="#DB6D00"/>
<rect x="71" y="80" width="16" height="16" fill="#006DDB"/>
<rect x="47.5" y="0.5" width="23" height="179" fill="#D3D3D3" stroke="#D3D3D3"/>
<rect x="87.5" y="0.5" width="23" height="179" fill="#D3D3D3" stroke="#D3D3D3"/>
<rect x="127.5" y="0.5" width="23" height="179" fill="#D3D3D3" stroke="#D3D3D3"/>
<rect x="167.5" y="0.5" width="23" height="179" fill="#D3D3D3" stroke="#D3D3D3"/>
<rect x="207.5" y="0.5" width="23" height="179" fill="#D3D3D3" stroke="#D3D3D3"/>
<rect x="247.5" y="0.5" width="23" height="179" fill="#D3D3D3" stroke="#D3D3D3"/>
<rect x="287.5" y="0.5" width="23" height="179" fill="#D3D3D3" stroke="#D3D3D3"/>
<rect x="327.5" y="0.5" width="23" height="179" fill="#D3D3D3" stroke="#D3D3D3"/>
<rect x="367.5" y="0.5" width="23" height="179" fill="#D3D3D3" stroke="#D3D3D3"/>
<rect x="407.5" y="0.5" width="23" height="179" fill="#D3D3D3" stroke="#D3D3D3"/>
<rect x="447.5" y="0.5" width="23" height="179" fill="#D3D3D3" stroke="#D3D3D3"/>
<rect x="488.5" y="0.5" width="23" height="179" fill="#D3D3D3" stroke="#D3D3D3"/>
<rect x="0.5" y="0.5" width="536" height="179" stroke="#D3D3D3"/>
<rect x="512" y="21" width="24" height="24" fill="#DB6D00"/>
<path d="M523.988 36.8L520.502 29.814V37.5H518.948V27.7H521.132L524.002 33.636L526.858 27.7H529.042V37.5H527.46V29.856L523.988 36.8Z" fill="black"/>
<path d="M23.9885 60.8L20.5025 53.814V61.5H18.9485V51.7H21.1325L24.0025 57.636L26.8585 51.7H29.0425V61.5H27.4605V53.856L23.9885 60.8Z" fill="black"/>
<path d="M83.9017 88.198C83.9017 88.898 83.7804 89.5513 83.5377 90.158C83.3044 90.7647 82.9777 91.292 82.5577 91.74C82.1377 92.1787 81.6337 92.524 81.0457 92.776C80.467 93.028 79.837 93.154 79.1557 93.154C78.4464 93.154 77.7837 93.0233 77.1677 92.762C76.5517 92.5007 76.015 92.146 75.5577 91.698C75.1097 91.2407 74.755 90.704 74.4937 90.088C74.2324 89.4627 74.1017 88.8 74.1017 88.1C74.1017 87.4 74.2324 86.742 74.4937 86.126C74.755 85.5007 75.1097 84.964 75.5577 84.516C76.0057 84.0587 76.5377 83.6993 77.1537 83.438C77.7697 83.1767 78.4277 83.046 79.1277 83.046C79.9024 83.046 80.6397 83.1953 81.3397 83.494C82.0397 83.7927 82.623 84.222 83.0897 84.782L81.9137 85.86C81.5777 85.4307 81.1624 85.104 80.6677 84.88C80.1824 84.656 79.669 84.544 79.1277 84.544C78.661 84.544 78.2224 84.6373 77.8117 84.824C77.4104 85.0013 77.0604 85.2487 76.7617 85.566C76.4724 85.8833 76.2437 86.2613 76.0757 86.7C75.9077 87.1387 75.8237 87.6053 75.8237 88.1C75.8237 88.604 75.9077 89.0753 76.0757 89.514C76.253 89.9433 76.4864 90.3213 76.7757 90.648C77.0744 90.9653 77.429 91.2173 77.8397 91.404C78.2504 91.5813 78.6937 91.67 79.1697 91.67C79.9537 91.67 80.621 91.4273 81.1717 90.942C81.7224 90.4473 82.049 89.8267 82.1517 89.08H79.2257V87.652H83.9017V88.198Z" fill="white"/>
</svg>
