<svg width="734" height="216" viewBox="0 0 734 216" fill="none" xmlns="http://www.w3.org/2000/svg">
<rect x="0.703125" y="0.5" width="57" height="39" stroke="#262626"/>
<rect x="0.703125" y="44.5" width="180.257" height="39" stroke="#262626"/>
<rect x="0.703125" y="88.5" width="241.584" height="39" stroke="#262626"/>
<rect x="0.5" y="132.5" width="364.239" height="39" stroke="#262626"/>
<rect x="61.7031" y="0.5" width="57" height="39" stroke="#262626"/>
<rect x="123.703" y="0.5" width="56" height="39" stroke="#262626"/>
<rect x="184.703" y="0.5" width="57" height="39" stroke="#262626"/>
<rect x="245.703" y="0.5" width="57" height="39" stroke="#262626"/>
<rect x="307.703" y="0.5" width="57" height="39" stroke="#262626"/>
<rect x="184.688" y="44.5" width="180.257" height="39" stroke="#262626"/>
<rect x="368.703" y="0.5" width="57" height="39" stroke="#262626"/>
<rect x="430.703" y="0.5" width="56" height="39" stroke="#262626"/>
<rect x="491.703" y="0.5" width="57" height="39" stroke="#262626"/>
<rect x="368.668" y="44.5" width="180.257" height="39" stroke="#262626"/>
<rect x="245.703" y="88.5" width="487" height="39" stroke="#262626"/>
<rect x="368.703" y="132.5" width="364" height="39" stroke="#262626"/>
<rect x="0.703125" y="176.5" width="732" height="39" stroke="#262626"/>
<rect x="614.703" y="0.5" width="57" height="39" stroke="#262626"/>
<rect x="552.703" y="0.5" width="57" height="39" stroke="#262626"/>
<rect x="552.703" y="44.5" width="180" height="39" stroke="#262626"/>
<rect x="675.703" y="0.5" width="57" height="39" stroke="#262626"/>
<path d="M19.6237 15.2V25H18.0977V16.796L16.3617 17.552V16.194L18.6577 15.2H19.6237ZM20.7289 27.912L26.3289 15.2H27.8689L22.2689 27.912H20.7289ZM32.9679 15.2V25H31.4419V16.796L29.7059 17.552V16.194L32.0019 15.2H32.9679ZM35.487 25V23.894L39.505 19.694C39.8504 19.3207 40.093 18.9987 40.233 18.728C40.3824 18.448 40.457 18.154 40.457 17.846C40.457 17.4353 40.2844 17.0947 39.939 16.824C39.603 16.544 39.1784 16.404 38.665 16.404C38.217 16.404 37.797 16.4973 37.405 16.684C37.0224 16.8707 36.5977 17.1787 36.131 17.608L35.263 16.558C35.795 16.0633 36.3457 15.6947 36.915 15.452C37.4937 15.2 38.091 15.074 38.707 15.074C39.659 15.074 40.4337 15.326 41.031 15.83C41.6377 16.3247 41.941 16.964 41.941 17.748C41.941 18.2147 41.8384 18.6487 41.633 19.05C41.4277 19.4513 41.0637 19.9273 40.541 20.478L37.405 23.712L42.123 23.684V25H35.487Z" fill="black"/>
<path d="M80.9499 15.2V25H79.4239V16.796L77.6879 17.552V16.194L79.9839 15.2H80.9499ZM82.0551 27.912L87.6551 15.2H89.1951L83.5951 27.912H82.0551ZM94.2941 15.2V25H92.7681V16.796L91.0321 17.552V16.194L93.3281 15.2H94.2941ZM96.8132 25V23.894L100.831 19.694C101.177 19.3207 101.419 18.9987 101.559 18.728C101.709 18.448 101.783 18.154 101.783 17.846C101.783 17.4353 101.611 17.0947 101.265 16.824C100.929 16.544 100.505 16.404 99.9912 16.404C99.5432 16.404 99.1232 16.4973 98.7312 16.684C98.3485 16.8707 97.9239 17.1787 97.4572 17.608L96.5892 16.558C97.1212 16.0633 97.6719 15.6947 98.2412 15.452C98.8199 15.2 99.4172 15.074 100.033 15.074C100.985 15.074 101.76 15.326 102.357 15.83C102.964 16.3247 103.267 16.964 103.267 17.748C103.267 18.2147 103.165 18.6487 102.959 19.05C102.754 19.4513 102.39 19.9273 101.867 20.478L98.7312 23.712L103.449 23.684V25H96.8132Z" fill="black"/>
<path d="M267.343 66.27C267.343 66.6807 267.249 67.0633 267.063 67.418C266.885 67.7727 266.633 68.076 266.307 68.328C265.989 68.58 265.607 68.7807 265.159 68.93C264.711 69.07 264.221 69.14 263.689 69.14C262.97 69.14 262.293 69.014 261.659 68.762C261.033 68.5007 260.501 68.1367 260.063 67.67L261.099 66.704C261.491 67.1053 261.883 67.39 262.275 67.558C262.667 67.7167 263.133 67.796 263.675 67.796C264.3 67.796 264.809 67.6467 265.201 67.348C265.602 67.04 265.803 66.648 265.803 66.172C265.803 65.7427 265.639 65.3927 265.313 65.122C264.986 64.842 264.571 64.702 264.067 64.702H262.849V63.428H263.941C264.407 63.428 264.781 63.2973 265.061 63.036C265.35 62.7653 265.495 62.406 265.495 61.958C265.495 61.5193 265.317 61.1507 264.963 60.852C264.608 60.5533 264.165 60.404 263.633 60.404C263.147 60.404 262.718 60.4927 262.345 60.67C261.981 60.838 261.598 61.1367 261.197 61.566L260.161 60.6C260.618 60.1053 261.15 59.7227 261.757 59.452C262.373 59.1813 263.017 59.046 263.689 59.046C264.174 59.046 264.622 59.116 265.033 59.256C265.443 59.396 265.793 59.5873 266.083 59.83C266.381 60.0727 266.615 60.362 266.783 60.698C266.951 61.034 267.035 61.398 267.035 61.79C267.035 62.322 266.857 62.7933 266.503 63.204C266.148 63.6053 265.691 63.8807 265.131 64.03C265.793 64.1607 266.325 64.4313 266.727 64.842C267.137 65.2433 267.343 65.7193 267.343 66.27ZM267.999 71.912L273.599 59.2H275.139L269.539 71.912H267.999ZM280.238 59.2V69H278.712V60.796L276.976 61.552V60.194L279.272 59.2H280.238ZM282.758 69V67.894L286.776 63.694C287.121 63.3207 287.364 62.9987 287.504 62.728C287.653 62.448 287.728 62.154 287.728 61.846C287.728 61.4353 287.555 61.0947 287.21 60.824C286.874 60.544 286.449 60.404 285.936 60.404C285.488 60.404 285.068 60.4973 284.676 60.684C284.293 60.8707 283.868 61.1787 283.402 61.608L282.534 60.558C283.066 60.0633 283.616 59.6947 284.186 59.452C284.764 59.2 285.362 59.074 285.978 59.074C286.93 59.074 287.704 59.326 288.302 59.83C288.908 60.3247 289.212 60.964 289.212 61.748C289.212 62.2147 289.109 62.6487 288.904 63.05C288.698 63.4513 288.334 63.9273 287.812 64.478L284.676 67.712L289.394 67.684V69H282.758Z" fill="black"/>
<path d="M83.3582 66.27C83.3582 66.6807 83.2649 67.0633 83.0782 67.418C82.9009 67.7727 82.6489 68.076 82.3222 68.328C82.0049 68.58 81.6222 68.7807 81.1742 68.93C80.7262 69.07 80.2362 69.14 79.7042 69.14C78.9855 69.14 78.3089 69.014 77.6742 68.762C77.0489 68.5007 76.5169 68.1367 76.0782 67.67L77.1142 66.704C77.5062 67.1053 77.8982 67.39 78.2902 67.558C78.6822 67.7167 79.1489 67.796 79.6902 67.796C80.3155 67.796 80.8242 67.6467 81.2162 67.348C81.6175 67.04 81.8182 66.648 81.8182 66.172C81.8182 65.7427 81.6549 65.3927 81.3282 65.122C81.0015 64.842 80.5862 64.702 80.0822 64.702H78.8642V63.428H79.9562C80.4229 63.428 80.7962 63.2973 81.0762 63.036C81.3655 62.7653 81.5102 62.406 81.5102 61.958C81.5102 61.5193 81.3329 61.1507 80.9782 60.852C80.6235 60.5533 80.1802 60.404 79.6482 60.404C79.1629 60.404 78.7335 60.4927 78.3602 60.67C77.9962 60.838 77.6135 61.1367 77.2122 61.566L76.1762 60.6C76.6335 60.1053 77.1655 59.7227 77.7722 59.452C78.3882 59.1813 79.0322 59.046 79.7042 59.046C80.1895 59.046 80.6375 59.116 81.0482 59.256C81.4589 59.396 81.8089 59.5873 82.0982 59.83C82.3969 60.0727 82.6302 60.362 82.7982 60.698C82.9662 61.034 83.0502 61.398 83.0502 61.79C83.0502 62.322 82.8729 62.7933 82.5182 63.204C82.1635 63.6053 81.7062 63.8807 81.1462 64.03C81.8089 64.1607 82.3409 64.4313 82.7422 64.842C83.1529 65.2433 83.3582 65.7193 83.3582 66.27ZM84.015 71.912L89.615 59.2H91.155L85.555 71.912H84.015ZM96.254 59.2V69H94.728V60.796L92.992 61.552V60.194L95.288 59.2H96.254ZM98.7732 69V67.894L102.791 63.694C103.137 63.3207 103.379 62.9987 103.519 62.728C103.669 62.448 103.743 62.154 103.743 61.846C103.743 61.4353 103.571 61.0947 103.225 60.824C102.889 60.544 102.465 60.404 101.951 60.404C101.503 60.404 101.083 60.4973 100.691 60.684C100.309 60.8707 99.8838 61.1787 99.4172 61.608L98.5492 60.558C99.0812 60.0633 99.6318 59.6947 100.201 59.452C100.78 59.2 101.377 59.074 101.993 59.074C102.945 59.074 103.72 59.326 104.317 59.83C104.924 60.3247 105.227 60.964 105.227 61.748C105.227 62.2147 105.125 62.6487 104.919 63.05C104.714 63.4513 104.35 63.9273 103.827 64.478L100.691 67.712L105.409 67.684V69H98.7732Z" fill="black"/>
<path d="M451.325 66.27C451.325 66.6807 451.232 67.0633 451.045 67.418C450.868 67.7727 450.616 68.076 450.289 68.328C449.972 68.58 449.589 68.7807 449.141 68.93C448.693 69.07 448.203 69.14 447.671 69.14C446.952 69.14 446.276 69.014 445.641 68.762C445.016 68.5007 444.484 68.1367 444.045 67.67L445.081 66.704C445.473 67.1053 445.865 67.39 446.257 67.558C446.649 67.7167 447.116 67.796 447.657 67.796C448.282 67.796 448.791 67.6467 449.183 67.348C449.584 67.04 449.785 66.648 449.785 66.172C449.785 65.7427 449.622 65.3927 449.295 65.122C448.968 64.842 448.553 64.702 448.049 64.702H446.831V63.428H447.923C448.39 63.428 448.763 63.2973 449.043 63.036C449.332 62.7653 449.477 62.406 449.477 61.958C449.477 61.5193 449.3 61.1507 448.945 60.852C448.59 60.5533 448.147 60.404 447.615 60.404C447.13 60.404 446.7 60.4927 446.327 60.67C445.963 60.838 445.58 61.1367 445.179 61.566L444.143 60.6C444.6 60.1053 445.132 59.7227 445.739 59.452C446.355 59.1813 446.999 59.046 447.671 59.046C448.156 59.046 448.604 59.116 449.015 59.256C449.426 59.396 449.776 59.5873 450.065 59.83C450.364 60.0727 450.597 60.362 450.765 60.698C450.933 61.034 451.017 61.398 451.017 61.79C451.017 62.322 450.84 62.7933 450.485 63.204C450.13 63.6053 449.673 63.8807 449.113 64.03C449.776 64.1607 450.308 64.4313 450.709 64.842C451.12 65.2433 451.325 65.7193 451.325 66.27ZM451.982 71.912L457.582 59.2H459.122L453.522 71.912H451.982ZM464.221 59.2V69H462.695V60.796L460.959 61.552V60.194L463.255 59.2H464.221ZM466.74 69V67.894L470.758 63.694C471.103 63.3207 471.346 62.9987 471.486 62.728C471.635 62.448 471.71 62.154 471.71 61.846C471.71 61.4353 471.537 61.0947 471.192 60.824C470.856 60.544 470.431 60.404 469.918 60.404C469.47 60.404 469.05 60.4973 468.658 60.684C468.275 60.8707 467.851 61.1787 467.384 61.608L466.516 60.558C467.048 60.0633 467.599 59.6947 468.168 59.452C468.747 59.2 469.344 59.074 469.96 59.074C470.912 59.074 471.687 59.326 472.284 59.83C472.891 60.3247 473.194 60.964 473.194 61.748C473.194 62.2147 473.091 62.6487 472.886 63.05C472.681 63.4513 472.317 63.9273 471.794 64.478L468.658 67.712L473.376 67.684V69H466.74Z" fill="black"/>
<path d="M635.309 66.27C635.309 66.6807 635.216 67.0633 635.029 67.418C634.852 67.7727 634.6 68.076 634.273 68.328C633.956 68.58 633.573 68.7807 633.125 68.93C632.677 69.07 632.187 69.14 631.655 69.14C630.937 69.14 630.26 69.014 629.625 68.762C629 68.5007 628.468 68.1367 628.029 67.67L629.065 66.704C629.457 67.1053 629.849 67.39 630.241 67.558C630.633 67.7167 631.1 67.796 631.641 67.796C632.267 67.796 632.775 67.6467 633.167 67.348C633.569 67.04 633.769 66.648 633.769 66.172C633.769 65.7427 633.606 65.3927 633.279 65.122C632.953 64.842 632.537 64.702 632.033 64.702H630.815V63.428H631.907C632.374 63.428 632.747 63.2973 633.027 63.036C633.317 62.7653 633.461 62.406 633.461 61.958C633.461 61.5193 633.284 61.1507 632.929 60.852C632.575 60.5533 632.131 60.404 631.599 60.404C631.114 60.404 630.685 60.4927 630.311 60.67C629.947 60.838 629.565 61.1367 629.163 61.566L628.127 60.6C628.585 60.1053 629.117 59.7227 629.723 59.452C630.339 59.1813 630.983 59.046 631.655 59.046C632.141 59.046 632.589 59.116 632.999 59.256C633.41 59.396 633.76 59.5873 634.049 59.83C634.348 60.0727 634.581 60.362 634.749 60.698C634.917 61.034 635.001 61.398 635.001 61.79C635.001 62.322 634.824 62.7933 634.469 63.204C634.115 63.6053 633.657 63.8807 633.097 64.03C633.76 64.1607 634.292 64.4313 634.693 64.842C635.104 65.2433 635.309 65.7193 635.309 66.27ZM635.966 71.912L641.566 59.2H643.106L637.506 71.912H635.966ZM648.205 59.2V69H646.679V60.796L644.943 61.552V60.194L647.239 59.2H648.205ZM650.724 69V67.894L654.742 63.694C655.088 63.3207 655.33 62.9987 655.47 62.728C655.62 62.448 655.694 62.154 655.694 61.846C655.694 61.4353 655.522 61.0947 655.176 60.824C654.84 60.544 654.416 60.404 653.902 60.404C653.454 60.404 653.034 60.4973 652.642 60.684C652.26 60.8707 651.835 61.1787 651.368 61.608L650.5 60.558C651.032 60.0633 651.583 59.6947 652.152 59.452C652.731 59.2 653.328 59.074 653.944 59.074C654.896 59.074 655.671 59.326 656.268 59.83C656.875 60.3247 657.178 60.964 657.178 61.748C657.178 62.2147 657.076 62.6487 656.87 63.05C656.665 63.4513 656.301 63.9273 655.778 64.478L652.642 67.712L657.36 67.684V69H650.724Z" fill="black"/>
<path d="M478.647 112.154C478.115 112.154 477.625 112.084 477.177 111.944C476.729 111.804 476.341 111.608 476.015 111.356C475.697 111.104 475.45 110.801 475.273 110.446C475.095 110.091 475.007 109.709 475.007 109.298C475.007 108.738 475.203 108.239 475.595 107.8C475.996 107.361 476.505 107.063 477.121 106.904C476.589 106.727 476.155 106.442 475.819 106.05C475.492 105.658 475.329 105.215 475.329 104.72C475.329 104.337 475.413 103.983 475.581 103.656C475.749 103.329 475.977 103.049 476.267 102.816C476.565 102.573 476.915 102.387 477.317 102.256C477.727 102.116 478.166 102.046 478.633 102.046C479.099 102.046 479.538 102.116 479.949 102.256C480.359 102.387 480.709 102.573 480.999 102.816C481.297 103.049 481.531 103.329 481.699 103.656C481.867 103.983 481.951 104.337 481.951 104.72C481.951 105.215 481.783 105.658 481.447 106.05C481.12 106.442 480.695 106.727 480.173 106.904C480.789 107.063 481.293 107.361 481.685 107.8C482.086 108.239 482.287 108.738 482.287 109.298C482.287 109.709 482.193 110.091 482.007 110.446C481.829 110.801 481.582 111.104 481.265 111.356C480.947 111.608 480.565 111.804 480.117 111.944C479.669 112.084 479.179 112.154 478.647 112.154ZM478.647 106.33C479.151 106.33 479.575 106.185 479.921 105.896C480.275 105.607 480.453 105.247 480.453 104.818C480.453 104.389 480.275 104.029 479.921 103.74C479.575 103.441 479.151 103.292 478.647 103.292C478.133 103.292 477.699 103.441 477.345 103.74C476.999 104.029 476.827 104.389 476.827 104.818C476.827 105.247 477.004 105.607 477.359 105.896C477.713 106.185 478.143 106.33 478.647 106.33ZM478.647 110.88C479.244 110.88 479.743 110.717 480.145 110.39C480.546 110.063 480.747 109.662 480.747 109.186C480.747 108.71 480.546 108.313 480.145 107.996C479.743 107.679 479.244 107.52 478.647 107.52C478.04 107.52 477.536 107.679 477.135 107.996C476.733 108.313 476.533 108.71 476.533 109.186C476.533 109.662 476.733 110.063 477.135 110.39C477.536 110.717 478.04 110.88 478.647 110.88ZM482.91 114.912L488.51 102.2H490.05L484.45 114.912H482.91ZM495.149 102.2V112H493.623V103.796L491.887 104.552V103.194L494.183 102.2H495.149ZM497.668 112V110.894L501.686 106.694C502.031 106.321 502.274 105.999 502.414 105.728C502.563 105.448 502.638 105.154 502.638 104.846C502.638 104.435 502.465 104.095 502.12 103.824C501.784 103.544 501.359 103.404 500.846 103.404C500.398 103.404 499.978 103.497 499.586 103.684C499.203 103.871 498.778 104.179 498.312 104.608L497.444 103.558C497.976 103.063 498.526 102.695 499.096 102.452C499.674 102.2 500.272 102.074 500.888 102.074C501.84 102.074 502.614 102.326 503.212 102.83C503.818 103.325 504.122 103.964 504.122 104.748C504.122 105.215 504.019 105.649 503.814 106.05C503.608 106.451 503.244 106.927 502.722 107.478L499.586 110.712L504.304 110.684V112H497.668Z" fill="black"/>
<path d="M113.328 102.2V108.262H114.588V109.578H113.328V112H111.802V109.578H106.538V108.332L111.592 102.2H113.328ZM108.176 108.262H111.802V103.838L108.176 108.262ZM115.197 114.912L120.797 102.2H122.337L116.737 114.912H115.197ZM127.436 102.2V112H125.91V103.796L124.174 104.552V103.194L126.47 102.2H127.436ZM129.955 112V110.894L133.973 106.694C134.318 106.321 134.561 105.999 134.701 105.728C134.85 105.448 134.925 105.154 134.925 104.846C134.925 104.435 134.752 104.095 134.407 103.824C134.071 103.544 133.646 103.404 133.133 103.404C132.685 103.404 132.265 103.497 131.873 103.684C131.49 103.871 131.065 104.179 130.599 104.608L129.731 103.558C130.263 103.063 130.813 102.695 131.383 102.452C131.961 102.2 132.559 102.074 133.175 102.074C134.127 102.074 134.901 102.326 135.499 102.83C136.105 103.325 136.409 103.964 136.409 104.748C136.409 105.215 136.306 105.649 136.101 106.05C135.895 106.451 135.531 106.927 135.009 107.478L131.873 110.712L136.591 110.684V112H129.955Z" fill="black"/>
<path d="M171.981 157.126C171.383 157.126 170.833 157.009 170.329 156.776C169.834 156.543 169.405 156.216 169.041 155.796C168.686 155.376 168.411 154.872 168.215 154.284C168.019 153.696 167.921 153.052 167.921 152.352C167.921 151.559 168.028 150.835 168.243 150.182C168.467 149.529 168.775 148.973 169.167 148.516C169.568 148.059 170.049 147.704 170.609 147.452C171.178 147.191 171.803 147.06 172.485 147.06C172.951 147.06 173.418 147.135 173.885 147.284C174.361 147.433 174.762 147.639 175.089 147.9L174.249 149.034C173.969 148.829 173.67 148.679 173.353 148.586C173.045 148.483 172.713 148.432 172.359 148.432C171.453 148.432 170.744 148.777 170.231 149.468C169.717 150.149 169.456 151.101 169.447 152.324C169.792 151.867 170.198 151.517 170.665 151.274C171.141 151.022 171.635 150.896 172.149 150.896C172.625 150.896 173.063 150.971 173.465 151.12C173.866 151.269 174.211 151.479 174.501 151.75C174.79 152.011 175.014 152.329 175.173 152.702C175.341 153.066 175.425 153.467 175.425 153.906C175.425 154.373 175.336 154.802 175.159 155.194C174.991 155.586 174.753 155.927 174.445 156.216C174.146 156.496 173.782 156.72 173.353 156.888C172.933 157.047 172.475 157.126 171.981 157.126ZM171.911 152.114C171.444 152.114 171.001 152.217 170.581 152.422C170.17 152.627 169.815 152.917 169.517 153.29C169.638 154.046 169.913 154.657 170.343 155.124C170.781 155.581 171.309 155.81 171.925 155.81C172.494 155.81 172.97 155.633 173.353 155.278C173.735 154.923 173.927 154.48 173.927 153.948C173.927 153.416 173.735 152.977 173.353 152.632C172.979 152.287 172.499 152.114 171.911 152.114ZM175.989 159.912L181.589 147.2H183.129L177.529 159.912H175.989ZM188.228 147.2V157H186.702V148.796L184.966 149.552V148.194L187.262 147.2H188.228ZM190.747 157V155.894L194.765 151.694C195.11 151.321 195.353 150.999 195.493 150.728C195.642 150.448 195.717 150.154 195.717 149.846C195.717 149.435 195.544 149.095 195.199 148.824C194.863 148.544 194.438 148.404 193.925 148.404C193.477 148.404 193.057 148.497 192.665 148.684C192.282 148.871 191.857 149.179 191.391 149.608L190.523 148.558C191.055 148.063 191.605 147.695 192.175 147.452C192.753 147.2 193.351 147.074 193.967 147.074C194.919 147.074 195.693 147.326 196.291 147.83C196.897 148.325 197.201 148.964 197.201 149.748C197.201 150.215 197.098 150.649 196.893 151.05C196.687 151.451 196.323 151.927 195.801 152.478L192.665 155.712L197.383 155.684V157H190.747Z" fill="black"/>
<path d="M539.947 157.126C539.35 157.126 538.799 157.009 538.295 156.776C537.801 156.543 537.371 156.216 537.007 155.796C536.653 155.376 536.377 154.872 536.181 154.284C535.985 153.696 535.887 153.052 535.887 152.352C535.887 151.559 535.995 150.835 536.209 150.182C536.433 149.529 536.741 148.973 537.133 148.516C537.535 148.059 538.015 147.704 538.575 147.452C539.145 147.191 539.77 147.06 540.451 147.06C540.918 147.06 541.385 147.135 541.851 147.284C542.327 147.433 542.729 147.639 543.055 147.9L542.215 149.034C541.935 148.829 541.637 148.679 541.319 148.586C541.011 148.483 540.68 148.432 540.325 148.432C539.42 148.432 538.711 148.777 538.197 149.468C537.684 150.149 537.423 151.101 537.413 152.324C537.759 151.867 538.165 151.517 538.631 151.274C539.107 151.022 539.602 150.896 540.115 150.896C540.591 150.896 541.03 150.971 541.431 151.12C541.833 151.269 542.178 151.479 542.467 151.75C542.757 152.011 542.981 152.329 543.139 152.702C543.307 153.066 543.391 153.467 543.391 153.906C543.391 154.373 543.303 154.802 543.125 155.194C542.957 155.586 542.719 155.927 542.411 156.216C542.113 156.496 541.749 156.72 541.319 156.888C540.899 157.047 540.442 157.126 539.947 157.126ZM539.877 152.114C539.411 152.114 538.967 152.217 538.547 152.422C538.137 152.627 537.782 152.917 537.483 153.29C537.605 154.046 537.88 154.657 538.309 155.124C538.748 155.581 539.275 155.81 539.891 155.81C540.461 155.81 540.937 155.633 541.319 155.278C541.702 154.923 541.893 154.48 541.893 153.948C541.893 153.416 541.702 152.977 541.319 152.632C540.946 152.287 540.465 152.114 539.877 152.114ZM543.955 159.912L549.555 147.2H551.095L545.495 159.912H543.955ZM556.194 147.2V157H554.668V148.796L552.932 149.552V148.194L555.228 147.2H556.194ZM558.714 157V155.894L562.732 151.694C563.077 151.321 563.32 150.999 563.46 150.728C563.609 150.448 563.684 150.154 563.684 149.846C563.684 149.435 563.511 149.095 563.166 148.824C562.83 148.544 562.405 148.404 561.892 148.404C561.444 148.404 561.024 148.497 560.632 148.684C560.249 148.871 559.824 149.179 559.358 149.608L558.49 148.558C559.022 148.063 559.572 147.695 560.142 147.452C560.72 147.2 561.318 147.074 561.934 147.074C562.886 147.074 563.66 147.326 564.258 147.83C564.864 148.325 565.168 148.964 565.168 149.748C565.168 150.215 565.065 150.649 564.86 151.05C564.654 151.451 564.29 151.927 563.768 152.478L560.632 155.712L565.35 155.684V157H558.714Z" fill="black"/>
<path d="M353.134 191.2V201H351.608V192.796L349.872 193.552V192.194L352.168 191.2H353.134ZM355.653 201V199.894L359.671 195.694C360.017 195.321 360.259 194.999 360.399 194.728C360.549 194.448 360.623 194.154 360.623 193.846C360.623 193.435 360.451 193.095 360.105 192.824C359.769 192.544 359.345 192.404 358.831 192.404C358.383 192.404 357.963 192.497 357.571 192.684C357.189 192.871 356.764 193.179 356.297 193.608L355.429 192.558C355.961 192.063 356.512 191.695 357.081 191.452C357.66 191.2 358.257 191.074 358.873 191.074C359.825 191.074 360.6 191.326 361.197 191.83C361.804 192.325 362.107 192.964 362.107 193.748C362.107 194.215 362.005 194.649 361.799 195.05C361.594 195.451 361.23 195.927 360.707 196.478L357.571 199.712L362.289 199.684V201H355.653ZM363.024 203.912L368.624 191.2H370.164L364.564 203.912H363.024ZM375.263 191.2V201H373.737V192.796L372.001 193.552V192.194L374.297 191.2H375.263ZM377.782 201V199.894L381.8 195.694C382.145 195.321 382.388 194.999 382.528 194.728C382.677 194.448 382.752 194.154 382.752 193.846C382.752 193.435 382.579 193.095 382.234 192.824C381.898 192.544 381.473 192.404 380.96 192.404C380.512 192.404 380.092 192.497 379.7 192.684C379.317 192.871 378.892 193.179 378.426 193.608L377.558 192.558C378.09 192.063 378.64 191.695 379.21 191.452C379.788 191.2 380.386 191.074 381.002 191.074C381.954 191.074 382.728 191.326 383.326 191.83C383.932 192.325 384.236 192.964 384.236 193.748C384.236 194.215 384.133 194.649 383.928 195.05C383.722 195.451 383.358 195.927 382.836 196.478L379.7 199.712L384.418 199.684V201H377.782Z" fill="black"/>
<path d="M142.278 15.2V25H140.752V16.796L139.016 17.552V16.194L141.312 15.2H142.278ZM143.383 27.912L148.983 15.2H150.523L144.923 27.912H143.383ZM155.622 15.2V25H154.096V16.796L152.36 17.552V16.194L154.656 15.2H155.622ZM158.141 25V23.894L162.159 19.694C162.505 19.3207 162.747 18.9987 162.887 18.728C163.037 18.448 163.111 18.154 163.111 17.846C163.111 17.4353 162.939 17.0947 162.593 16.824C162.257 16.544 161.833 16.404 161.319 16.404C160.871 16.404 160.451 16.4973 160.059 16.684C159.677 16.8707 159.252 17.1787 158.785 17.608L157.917 16.558C158.449 16.0633 159 15.6947 159.569 15.452C160.148 15.2 160.745 15.074 161.361 15.074C162.313 15.074 163.088 15.326 163.685 15.83C164.292 16.3247 164.595 16.964 164.595 17.748C164.595 18.2147 164.493 18.6487 164.287 19.05C164.082 19.4513 163.718 19.9273 163.195 20.478L160.059 23.712L164.777 23.684V25H158.141Z" fill="black"/>
<path d="M203.606 15.2V25H202.08V16.796L200.344 17.552V16.194L202.64 15.2H203.606ZM204.711 27.912L210.311 15.2H211.851L206.251 27.912H204.711ZM216.95 15.2V25H215.424V16.796L213.688 17.552V16.194L215.984 15.2H216.95ZM219.469 25V23.894L223.487 19.694C223.833 19.3207 224.075 18.9987 224.215 18.728C224.365 18.448 224.439 18.154 224.439 17.846C224.439 17.4353 224.267 17.0947 223.921 16.824C223.585 16.544 223.161 16.404 222.647 16.404C222.199 16.404 221.779 16.4973 221.387 16.684C221.005 16.8707 220.58 17.1787 220.113 17.608L219.245 16.558C219.777 16.0633 220.328 15.6947 220.897 15.452C221.476 15.2 222.073 15.074 222.689 15.074C223.641 15.074 224.416 15.326 225.013 15.83C225.62 16.3247 225.923 16.964 225.923 17.748C225.923 18.2147 225.821 18.6487 225.615 19.05C225.41 19.4513 225.046 19.9273 224.523 20.478L221.387 23.712L226.105 23.684V25H219.469Z" fill="black"/>
<path d="M264.934 15.2V25H263.408V16.796L261.672 17.552V16.194L263.968 15.2H264.934ZM266.039 27.912L271.639 15.2H273.179L267.579 27.912H266.039ZM278.278 15.2V25H276.752V16.796L275.016 17.552V16.194L277.312 15.2H278.278ZM280.798 25V23.894L284.816 19.694C285.161 19.3207 285.404 18.9987 285.544 18.728C285.693 18.448 285.768 18.154 285.768 17.846C285.768 17.4353 285.595 17.0947 285.25 16.824C284.914 16.544 284.489 16.404 283.976 16.404C283.528 16.404 283.108 16.4973 282.716 16.684C282.333 16.8707 281.908 17.1787 281.442 17.608L280.574 16.558C281.106 16.0633 281.656 15.6947 282.226 15.452C282.804 15.2 283.402 15.074 284.018 15.074C284.97 15.074 285.744 15.326 286.342 15.83C286.948 16.3247 287.252 16.964 287.252 17.748C287.252 18.2147 287.149 18.6487 286.944 19.05C286.738 19.4513 286.374 19.9273 285.852 20.478L282.716 23.712L287.434 23.684V25H280.798Z" fill="black"/>
<path d="M326.262 15.2V25H324.736V16.796L323 17.552V16.194L325.296 15.2H326.262ZM327.368 27.912L332.968 15.2H334.508L328.908 27.912H327.368ZM339.607 15.2V25H338.081V16.796L336.345 17.552V16.194L338.641 15.2H339.607ZM342.126 25V23.894L346.144 19.694C346.489 19.3207 346.732 18.9987 346.872 18.728C347.021 18.448 347.096 18.154 347.096 17.846C347.096 17.4353 346.923 17.0947 346.578 16.824C346.242 16.544 345.817 16.404 345.304 16.404C344.856 16.404 344.436 16.4973 344.044 16.684C343.661 16.8707 343.236 17.1787 342.77 17.608L341.902 16.558C342.434 16.0633 342.984 15.6947 343.554 15.452C344.132 15.2 344.73 15.074 345.346 15.074C346.298 15.074 347.072 15.326 347.67 15.83C348.276 16.3247 348.58 16.964 348.58 17.748C348.58 18.2147 348.477 18.6487 348.272 19.05C348.066 19.4513 347.702 19.9273 347.18 20.478L344.044 23.712L348.762 23.684V25H342.126Z" fill="black"/>
<path d="M387.589 15.2V25H386.063V16.796L384.327 17.552V16.194L386.623 15.2H387.589ZM388.694 27.912L394.294 15.2H395.834L390.234 27.912H388.694ZM400.933 15.2V25H399.407V16.796L397.671 17.552V16.194L399.967 15.2H400.933ZM403.452 25V23.894L407.47 19.694C407.815 19.3207 408.058 18.9987 408.198 18.728C408.347 18.448 408.422 18.154 408.422 17.846C408.422 17.4353 408.249 17.0947 407.904 16.824C407.568 16.544 407.143 16.404 406.63 16.404C406.182 16.404 405.762 16.4973 405.37 16.684C404.987 16.8707 404.563 17.1787 404.096 17.608L403.228 16.558C403.76 16.0633 404.311 15.6947 404.88 15.452C405.459 15.2 406.056 15.074 406.672 15.074C407.624 15.074 408.399 15.326 408.996 15.83C409.603 16.3247 409.906 16.964 409.906 17.748C409.906 18.2147 409.803 18.6487 409.598 19.05C409.393 19.4513 409.029 19.9273 408.506 20.478L405.37 23.712L410.088 23.684V25H403.452Z" fill="black"/>
<path d="M448.917 15.2V25H447.391V16.796L445.655 17.552V16.194L447.951 15.2H448.917ZM450.022 27.912L455.622 15.2H457.162L451.562 27.912H450.022ZM462.261 15.2V25H460.735V16.796L458.999 17.552V16.194L461.295 15.2H462.261ZM464.78 25V23.894L468.798 19.694C469.143 19.3207 469.386 18.9987 469.526 18.728C469.675 18.448 469.75 18.154 469.75 17.846C469.75 17.4353 469.577 17.0947 469.232 16.824C468.896 16.544 468.471 16.404 467.958 16.404C467.51 16.404 467.09 16.4973 466.698 16.684C466.315 16.8707 465.891 17.1787 465.424 17.608L464.556 16.558C465.088 16.0633 465.639 15.6947 466.208 15.452C466.787 15.2 467.384 15.074 468 15.074C468.952 15.074 469.727 15.326 470.324 15.83C470.931 16.3247 471.234 16.964 471.234 17.748C471.234 18.2147 471.131 18.6487 470.926 19.05C470.721 19.4513 470.357 19.9273 469.834 20.478L466.698 23.712L471.416 23.684V25H464.78Z" fill="black"/>
<path d="M510.245 15.2V25H508.719V16.796L506.983 17.552V16.194L509.279 15.2H510.245ZM511.35 27.912L516.95 15.2H518.49L512.89 27.912H511.35ZM523.589 15.2V25H522.063V16.796L520.327 17.552V16.194L522.623 15.2H523.589ZM526.108 25V23.894L530.126 19.694C530.471 19.3207 530.714 18.9987 530.854 18.728C531.003 18.448 531.078 18.154 531.078 17.846C531.078 17.4353 530.905 17.0947 530.56 16.824C530.224 16.544 529.799 16.404 529.286 16.404C528.838 16.404 528.418 16.4973 528.026 16.684C527.643 16.8707 527.219 17.1787 526.752 17.608L525.884 16.558C526.416 16.0633 526.967 15.6947 527.536 15.452C528.115 15.2 528.712 15.074 529.328 15.074C530.28 15.074 531.055 15.326 531.652 15.83C532.259 16.3247 532.562 16.964 532.562 17.748C532.562 18.2147 532.459 18.6487 532.254 19.05C532.049 19.4513 531.685 19.9273 531.162 20.478L528.026 23.712L532.744 23.684V25H526.108Z" fill="black"/>
<path d="M571.573 15.2V25H570.047V16.796L568.311 17.552V16.194L570.607 15.2H571.573ZM572.678 27.912L578.278 15.2H579.818L574.218 27.912H572.678ZM584.917 15.2V25H583.391V16.796L581.655 17.552V16.194L583.951 15.2H584.917ZM587.436 25V23.894L591.454 19.694C591.8 19.3207 592.042 18.9987 592.182 18.728C592.332 18.448 592.406 18.154 592.406 17.846C592.406 17.4353 592.234 17.0947 591.888 16.824C591.552 16.544 591.128 16.404 590.614 16.404C590.166 16.404 589.746 16.4973 589.354 16.684C588.972 16.8707 588.547 17.1787 588.08 17.608L587.212 16.558C587.744 16.0633 588.295 15.6947 588.864 15.452C589.443 15.2 590.04 15.074 590.656 15.074C591.608 15.074 592.383 15.326 592.98 15.83C593.587 16.3247 593.89 16.964 593.89 17.748C593.89 18.2147 593.788 18.6487 593.582 19.05C593.377 19.4513 593.013 19.9273 592.49 20.478L589.354 23.712L594.072 23.684V25H587.436Z" fill="black"/>
<path d="M632.901 15.2V25H631.375V16.796L629.639 17.552V16.194L631.935 15.2H632.901ZM634.006 27.912L639.606 15.2H641.146L635.546 27.912H634.006ZM646.245 15.2V25H644.719V16.796L642.983 17.552V16.194L645.279 15.2H646.245ZM648.764 25V23.894L652.782 19.694C653.128 19.3207 653.37 18.9987 653.51 18.728C653.66 18.448 653.734 18.154 653.734 17.846C653.734 17.4353 653.562 17.0947 653.216 16.824C652.88 16.544 652.456 16.404 651.942 16.404C651.494 16.404 651.074 16.4973 650.682 16.684C650.3 16.8707 649.875 17.1787 649.408 17.608L648.54 16.558C649.072 16.0633 649.623 15.6947 650.192 15.452C650.771 15.2 651.368 15.074 651.984 15.074C652.936 15.074 653.711 15.326 654.308 15.83C654.915 16.3247 655.218 16.964 655.218 17.748C655.218 18.2147 655.116 18.6487 654.91 19.05C654.705 19.4513 654.341 19.9273 653.818 20.478L650.682 23.712L655.4 23.684V25H648.764Z" fill="black"/>
<path d="M694.227 15.2V25H692.701V16.796L690.965 17.552V16.194L693.261 15.2H694.227ZM695.332 27.912L700.932 15.2H702.472L696.872 27.912H695.332ZM707.571 15.2V25H706.045V16.796L704.309 17.552V16.194L706.605 15.2H707.571ZM710.091 25V23.894L714.109 19.694C714.454 19.3207 714.697 18.9987 714.837 18.728C714.986 18.448 715.061 18.154 715.061 17.846C715.061 17.4353 714.888 17.0947 714.543 16.824C714.207 16.544 713.782 16.404 713.269 16.404C712.821 16.404 712.401 16.4973 712.009 16.684C711.626 16.8707 711.201 17.1787 710.735 17.608L709.867 16.558C710.399 16.0633 710.949 15.6947 711.519 15.452C712.097 15.2 712.695 15.074 713.311 15.074C714.263 15.074 715.037 15.326 715.635 15.83C716.241 16.3247 716.545 16.964 716.545 17.748C716.545 18.2147 716.442 18.6487 716.237 19.05C716.031 19.4513 715.667 19.9273 715.145 20.478L712.009 23.712L716.727 23.684V25H710.091Z" fill="black"/>
</svg>
