<svg width="204" height="220" viewBox="0 0 204 220" fill="none" xmlns="http://www.w3.org/2000/svg">
<path opacity="0.05" d="M204 102C204 158.333 158.333 204 102 204C45.667 204 0 158.333 0 102C0 45.667 45.667 0 102 0C158.333 0 204 45.667 204 102Z" fill="#F4F4F4"/>
<path d="M80.0639 141L123.936 141C131.859 137.053 138.509 130.938 143.12 123.361C147.73 115.785 150.114 107.054 149.996 98.1765C149.771 85.4697 144.642 73.3464 135.69 64.36C126.737 55.3735 114.659 50.2254 102 50C89.3358 50.2257 77.2538 55.3777 68.3003 64.3702C59.3467 73.3628 54.2211 85.4933 54.0038 98.205C53.891 107.078 56.2772 115.802 60.8877 123.373C65.4982 130.945 72.1454 137.055 80.0639 141Z" fill="#E9E9E9"/>
<path fill-rule="evenodd" clip-rule="evenodd" d="M90.9447 110.816C90.0826 110.454 89.1343 110.36 88.2193 110.544C87.3044 110.728 86.4634 111.183 85.8029 111.852C85.1423 112.52 84.692 113.373 84.5095 114.302C84.327 115.23 84.4207 116.193 84.7786 117.068C85.1364 117.942 85.7421 118.689 86.5184 119.214C87.2946 119.739 88.2068 120.019 89.1395 120.019H93.8605V115.236C93.8605 114.289 93.583 113.363 93.0637 112.576C92.5445 111.79 91.8069 111.177 90.9447 110.816ZM97.2791 120.019V115.236C97.2791 113.608 96.8023 112.016 95.9084 110.662C95.0146 109.308 93.7436 108.251 92.2558 107.627C90.768 107.004 89.1305 106.84 87.5508 107.158C85.971 107.477 84.5205 108.262 83.3825 109.414C82.2445 110.566 81.47 112.033 81.1562 113.63C80.8425 115.226 81.0035 116.882 81.619 118.386C82.2345 119.89 83.2772 121.177 84.6158 122.082C85.9544 122.988 87.5287 123.471 89.1395 123.471H93.8605V141.274C93.8605 142.227 94.6257 143 95.5698 143C96.5138 143 97.2791 142.227 97.2791 141.274V123.471H106.721V141.274C106.721 142.227 107.486 143 108.43 143C109.374 143 110.14 142.227 110.14 141.274V123.471H114.86C116.471 123.471 118.046 122.988 119.384 122.082C120.723 121.177 121.765 119.89 122.381 118.386C122.997 116.882 123.157 115.226 122.844 113.63C122.53 112.033 121.756 110.566 120.618 109.414C119.479 108.262 118.029 107.477 116.449 107.158C114.869 106.84 113.232 107.004 111.744 107.627C110.256 108.251 108.985 109.308 108.092 110.662C107.198 112.016 106.721 113.608 106.721 115.236V120.019H97.2791ZM110.14 120.019H114.86C115.793 120.019 116.705 119.739 117.482 119.214C118.258 118.689 118.864 117.942 119.221 117.068C119.579 116.193 119.673 115.23 119.491 114.302C119.308 113.373 118.858 112.52 118.197 111.852C117.537 111.183 116.696 110.728 115.781 110.544C114.866 110.36 113.917 110.454 113.055 110.816C112.193 111.177 111.456 111.79 110.936 112.576C110.417 113.363 110.14 114.289 110.14 115.236V120.019Z" fill="black"/>
<path d="M30 69.2642C29.5941 69.2642 29.2618 69.5872 29.2503 69.993C29.2388 70.3987 29.5523 70.74 29.9576 70.763C34.7907 71.0369 42.4595 72.2832 48.9024 76.8542C55.2993 81.3926 60.5798 89.272 60.5798 103.028C60.5798 103.443 60.9156 103.778 61.3298 103.778C61.744 103.778 62.0798 103.443 62.0798 103.028C62.0798 96.8694 64.2355 89.0217 69.1458 82.6077C74.0384 76.2168 81.6705 71.2387 92.6919 70.7635C93.1057 70.7456 93.4267 70.3957 93.4089 69.9819C93.391 69.568 93.0411 69.247 92.6273 69.2649C86.8408 69.5144 79.2047 68.5509 73.033 64.0165C66.9018 59.5118 62.0798 51.3813 62.0798 37C62.0798 36.5858 61.744 36.25 61.3298 36.25C60.9156 36.25 60.5798 36.5858 60.5798 37C60.5798 43.2375 59.3666 51.3191 54.9571 57.8197C50.5809 64.2715 42.9914 69.2642 30 69.2642Z" fill="#29D305" stroke="#29D305" stroke-width="1.5" stroke-linejoin="round"/>
<path fill-rule="evenodd" clip-rule="evenodd" d="M124 157.8V141H80V157.8C80 160.77 81.1589 163.619 83.2218 165.72C85.2847 167.82 88.0826 169 91 169H100L100 218.071C100 219.137 101.119 220 102.5 220C103.881 220 105 219.137 105 218.071L105 169H113C115.917 169 118.715 167.82 120.778 165.72C122.841 163.619 124 160.77 124 157.8Z" fill="white"/>
<path d="M154 128.768C153.594 128.768 153.262 129.091 153.25 129.496C153.239 129.902 153.552 130.243 153.957 130.267C156.474 130.41 160.436 131.064 163.752 133.433C167.022 135.769 169.757 139.84 169.757 147.035C169.757 147.45 170.093 147.785 170.507 147.785C170.921 147.785 171.257 147.45 171.257 147.035C171.257 143.838 172.371 139.75 174.909 136.412C177.428 133.098 181.354 130.514 187.047 130.267C187.461 130.249 187.781 129.899 187.763 129.485C187.746 129.071 187.395 128.75 186.982 128.768C183.975 128.899 180.046 128.392 176.885 126.053C173.764 123.744 171.257 119.547 171.257 112C171.257 111.586 170.921 111.25 170.507 111.25C170.093 111.25 169.757 111.586 169.757 112C169.757 115.276 169.123 119.484 166.854 122.852C164.62 126.17 160.736 128.768 154 128.768Z" fill="#29D305" stroke="#29D305" stroke-width="1.5" stroke-linejoin="round"/>
<path d="M123 41.6826C122.594 41.6826 122.262 42.0058 122.25 42.4117C122.239 42.8177 122.553 43.1588 122.958 43.1815C124.319 43.2573 126.431 43.6027 128.184 44.8271C129.891 46.0186 131.346 48.1014 131.346 51.8652C131.346 52.2795 131.682 52.6152 132.096 52.6152C132.51 52.6152 132.846 52.2795 132.846 51.8652C132.846 50.2175 133.436 48.0934 134.784 46.361C136.114 44.6515 138.188 43.3108 141.223 43.1819C141.637 43.1644 141.958 42.8147 141.941 42.4008C141.923 41.987 141.574 41.6657 141.16 41.6833C139.54 41.752 137.46 41.4815 135.804 40.2839C134.19 39.1171 132.846 36.973 132.846 33C132.846 32.5858 132.51 32.25 132.096 32.25C131.682 32.25 131.346 32.5858 131.346 33C131.346 34.7275 131.002 36.9118 129.808 38.6432C128.648 40.327 126.617 41.6826 123 41.6826Z" fill="#29D305" stroke="#29D305" stroke-width="1.5" stroke-linejoin="round"/>
</svg>
