<svg width="40" height="40" viewBox="0 0 40 40" fill="none" xmlns="http://www.w3.org/2000/svg">
<g clip-path="url(#clip0)">
<path fill-rule="evenodd" clip-rule="evenodd" d="M0.0594452 12.1563C-0.171656 9.94872 0.274447 7.72308 1.33848 5.77508C1.52898 5.42632 1.87269 5.18771 2.26605 5.13115C2.65941 5.07459 3.05643 5.20669 3.33748 5.48766L8.54722 10.6958L10.6958 10.6958L10.6958 8.54723L5.48765 3.33748L5.48557 3.3354C5.2048 3.0543 5.07287 2.65735 5.1295 2.2641C5.18613 1.87085 5.42471 1.52726 5.7734 1.3368C7.72139 0.27277 9.94704 -0.173333 12.1546 0.0577692C14.3622 0.288871 16.4472 1.18623 18.1326 2.63063C19.818 4.07502 21.024 5.99806 21.5904 8.14423C22.0871 10.0266 22.0712 12.0024 21.5515 13.8685L38.4073 30.7177C39.427 31.7374 40 33.1206 40 34.5627C40 36.0047 39.4271 37.3877 38.4074 38.4074C37.3877 39.4271 36.0047 40 34.5627 40C33.1206 40 31.7376 39.4271 30.7179 38.4074L13.8702 21.5532C12.0041 22.0729 10.0283 22.0888 8.14591 21.5921C5.99974 21.0257 4.07669 19.8197 2.6323 18.1343C1.18791 16.4489 0.290546 14.3639 0.0594452 12.1563ZM2.87885 8.59671C2.55974 9.65881 2.45208 10.7792 2.56874 11.8936C2.74653 13.5919 3.43687 15.1959 4.54805 16.4925C5.65922 17.7891 7.13862 18.7169 8.78968 19.1526C10.4407 19.5883 12.1853 19.5113 13.7915 18.9318C14.2516 18.7658 14.7661 18.8807 15.1118 19.2266L32.5019 36.6234C33.0485 37.1699 33.7897 37.477 34.5627 37.477C35.3356 37.477 36.0769 37.1699 36.6234 36.6234C37.1699 36.0769 37.477 35.3356 37.477 34.5627C37.477 33.7897 37.1699 33.0485 36.6234 32.5019L19.2249 15.1101C18.879 14.7644 18.7641 14.2499 18.9301 13.7899C19.5096 12.1836 19.5866 10.4391 19.1509 8.788C18.7152 7.13694 17.7874 5.65754 16.4908 4.54637C15.1942 3.4352 13.5902 2.74485 11.8919 2.56707C10.7775 2.4504 9.65712 2.55807 8.59502 2.87717L12.8495 7.13293C13.086 7.36949 13.2188 7.6903 13.2188 8.02481L13.2188 11.9573C13.2188 12.654 12.654 13.2188 11.9573 13.2188L8.02481 13.2188C7.6903 13.2188 7.36949 13.086 7.13292 12.8495L2.87885 8.59671Z" fill="black"/>
<path d="M33.5 33.5L25 25" stroke="#29D305" stroke-width="2.5" stroke-linecap="round" stroke-linejoin="round"/>
</g>
<defs>
<clipPath id="clip0">
<rect width="40" height="40" fill="white" transform="translate(0 40) rotate(-90)"/>
</clipPath>
</defs>
</svg>
