<svg width="40" height="40" viewBox="0 0 40 40" fill="none" xmlns="http://www.w3.org/2000/svg">
<g clip-path="url(#clip0)">
<path fill-rule="evenodd" clip-rule="evenodd" d="M33.0216 21.2249C33.0639 21.2298 33.1061 21.237 33.1478 21.2462C35.0913 21.678 36.8295 22.7598 38.0753 24.3128C39.3211 25.8658 40 27.7972 40 29.7882V31.2715C40 32.266 39.6049 33.2199 38.9016 33.9231C38.1984 34.6264 37.2446 35.0215 36.25 35.0215H30C29.0054 35.0215 28.0516 34.6264 27.3484 33.9231C26.6451 33.2199 26.25 32.266 26.25 31.2715C26.25 30.94 26.1183 30.622 25.8839 30.3876C25.6495 30.1532 25.3315 30.0215 25 30.0215H15C14.6685 30.0215 14.3505 30.1532 14.1161 30.3876C13.8817 30.622 13.75 30.94 13.75 31.2715C13.75 32.266 13.3549 33.2199 12.6517 33.9231C11.9484 34.6264 10.9946 35.0215 10 35.0215H3.75C2.75544 35.0215 1.80161 34.6264 1.09835 33.9231C0.39509 33.2199 1.54312e-06 32.266 1.54312e-06 31.2715V29.7886M33.0216 21.2249C24.4198 19.5687 15.5812 19.5669 6.97883 21.2199C6.93632 21.2248 6.89406 21.2319 6.85222 21.2412C4.90769 21.6733 3.16877 22.7558 1.92286 24.3101C0.677124 25.864 -0.00118081 27.7969 1.54312e-06 29.7886M7.14167 22.4615V22.544L7.26431 23.096L7.14167 22.4615ZM7.37822 23.6854C5.99582 23.9963 4.75994 24.7679 3.87347 25.8737C2.98353 26.9839 2.49902 28.3645 2.5 29.7873L2.5 31.2715C2.5 31.603 2.6317 31.9209 2.86612 32.1554C3.10054 32.3898 3.41848 32.5215 3.75 32.5215H10C10.3315 32.5215 10.6495 32.3898 10.8839 32.1554C11.1183 31.9209 11.25 31.603 11.25 31.2715C11.25 30.2769 11.6451 29.3231 12.3483 28.6198C13.0516 27.9166 14.0054 27.5215 15 27.5215H25C25.9946 27.5215 26.9484 27.9166 27.6516 28.6198C28.3549 29.3231 28.75 30.2769 28.75 31.2715C28.75 31.603 28.8817 31.9209 29.1161 32.1554C29.3505 32.3898 29.6685 32.5215 30 32.5215H36.25C36.5815 32.5215 36.8995 32.3898 37.1339 32.1554C37.3683 31.9209 37.5 31.603 37.5 31.2715V29.7881C37.5 28.366 37.0151 26.9864 36.1252 25.8771C35.2512 24.7875 34.0378 24.0227 32.6795 23.7036C32.6598 23.7008 32.6402 23.6975 32.6206 23.6937C24.2843 22.079 15.7158 22.0774 7.37888 23.6888L7.37822 23.6854Z" fill="black"/>
<path fill-rule="evenodd" clip-rule="evenodd" d="M20 5.02197C20.6904 5.02197 21.25 5.58162 21.25 6.27197V15.022C21.25 15.7123 20.6904 16.272 20 16.272C19.3096 16.272 18.75 15.7123 18.75 15.022V6.27197C18.75 5.58162 19.3096 5.02197 20 5.02197Z" fill="#29D305"/>
<path fill-rule="evenodd" clip-rule="evenodd" d="M6.85707 7.69981C7.44904 7.34462 8.21687 7.53658 8.57206 8.12855L12.3221 14.3786C12.6772 14.9705 12.4853 15.7384 11.8933 16.0935C11.3013 16.4487 10.5335 16.2568 10.1783 15.6648L6.42832 9.41479C6.07314 8.82282 6.26509 8.05499 6.85707 7.69981Z" fill="#29D305"/>
<path fill-rule="evenodd" clip-rule="evenodd" d="M33.1433 7.69981C33.7353 8.05499 33.9272 8.82282 33.5721 9.41479L29.8221 15.6648C29.4669 16.2568 28.699 16.4487 28.1071 16.0935C27.5151 15.7384 27.3231 14.9705 27.6783 14.3786L31.4283 8.12855C31.7835 7.53658 32.5513 7.34462 33.1433 7.69981Z" fill="#29D305"/>
</g>
<defs>
<clipPath id="clip0">
<rect width="40" height="40" fill="white"/>
</clipPath>
</defs>
</svg>
