<svg width="40" height="40" viewBox="0 0 40 40" fill="none" xmlns="http://www.w3.org/2000/svg">
<g clip-path="url(#clip0)">
<path fill-rule="evenodd" clip-rule="evenodd" d="M15.3657 2.73778C14.6056 2.49785 13.8002 2.43752 13.0128 2.56154C12.2254 2.68555 11.4775 2.99054 10.8279 3.45251C10.1812 3.91242 9.64949 4.51545 9.27418 5.21454C8.81211 6.12078 8.65314 7.15151 8.82083 8.15502C8.98909 9.16198 9.47731 10.0879 10.2131 10.7957L10.2367 10.819L19.11 19.8189C19.11 19.8189 19.11 19.8189 19.1101 19.819C19.2263 19.9368 19.3649 20.0304 19.5176 20.0943C19.6704 20.1582 19.8343 20.1911 20 20.1911C20.1656 20.1911 20.3295 20.1582 20.4823 20.0943C20.6351 20.0304 20.7737 19.9368 20.89 19.8189L20.8902 19.8187L29.7635 10.8253L29.7875 10.8016C30.5247 10.0937 31.0139 9.16686 31.1824 8.15877C31.3504 7.15401 31.1909 6.12196 30.7276 5.21491C30.3523 4.51566 29.8205 3.9125 29.1737 3.45251C28.5241 2.99054 27.7762 2.68555 26.9888 2.56154C26.2014 2.43752 25.396 2.49785 24.6358 2.73778C23.8763 2.97753 23.1826 3.39009 22.6094 3.94304C22.6089 3.94346 22.6085 3.94387 22.6081 3.94429L20.8709 5.63159C20.3857 6.10285 19.6136 6.10267 19.1286 5.63117L17.3935 3.94429C17.393 3.94381 17.3925 3.94334 17.392 3.94287C16.8188 3.39 16.1252 2.97751 15.3657 2.73778ZM31.835 4.63491L32.9469 4.06395C33.6595 5.45172 33.9054 7.03232 33.6482 8.57099C33.392 10.1038 32.6499 11.5136 31.5318 12.5926L22.67 21.5743C22.6699 21.5744 22.6698 21.5744 22.6698 21.5745C22.3209 21.9282 21.9053 22.209 21.447 22.4007C20.9887 22.5924 20.4968 22.6911 20 22.6911C19.5031 22.6911 19.0112 22.5924 18.5529 22.4007C18.0945 22.209 17.6788 21.9281 17.33 21.5743L17.3298 21.5742L8.4676 12.5854C7.35148 11.5068 6.61088 10.0983 6.35501 8.56705C6.09819 7.0301 6.34339 5.45131 7.05428 4.06465L8.16663 4.63491L7.06409 4.04592C7.62188 3.00178 8.41429 2.10126 9.379 1.41518C10.3437 0.7291 11.4544 0.276161 12.6238 0.0919793C13.7932 -0.0922026 14.9894 -0.00260641 16.1183 0.353723C17.2471 0.710052 18.278 1.3234 19.1297 2.14554L19.133 2.14865L19.133 2.14866L20.0004 2.99195L20.8691 2.14824L20.8718 2.14554C21.7236 1.3234 22.7544 0.710052 23.8833 0.353723C25.0122 -0.00260641 26.2084 -0.0922026 27.3778 0.0919793C28.5472 0.276161 29.6579 0.7291 30.6226 1.41518C31.5873 2.10126 32.3797 3.00178 32.9375 4.04592L31.835 4.63491Z" fill="#29D305"/>
<path fill-rule="evenodd" clip-rule="evenodd" d="M3.75 20.2267C3.41848 20.2267 3.10054 20.3584 2.86612 20.5928C2.6317 20.8272 2.5 21.1452 2.5 21.4767V30.0967C2.5 31.5103 2.97926 32.8821 3.85925 33.9881L7.20437 37.9427C7.65021 38.4698 7.58435 39.2585 7.05727 39.7044C6.53018 40.1502 5.74147 40.0844 5.29563 39.5573L1.93896 35.5889L1.91722 35.5625C0.676147 34.0111 6.55651e-06 32.0835 0 30.0967V21.4767C0 20.4821 0.395089 19.5283 1.09835 18.825C1.80161 18.1218 2.75544 17.7267 3.75 17.7267C4.74456 17.7267 5.69839 18.1218 6.40165 18.825C7.10491 19.5283 7.5 20.4821 7.5 21.4767V27.7267C7.5 28.417 6.94036 28.9767 6.25 28.9767C5.55964 28.9767 5 28.417 5 27.7267V21.4767C5 21.1452 4.8683 20.8272 4.63388 20.5928C4.39946 20.3584 4.08152 20.2267 3.75 20.2267Z" fill="black"/>
<path fill-rule="evenodd" clip-rule="evenodd" d="M7.92697 24.4174C8.40326 24.3281 8.89271 24.3364 9.36573 24.4417C9.83874 24.5469 10.2855 24.7471 10.6789 25.0299C11.0639 25.3066 11.39 25.6569 11.6384 26.0604L13.5276 28.8892C14.488 30.3282 15.0004 32.02 14.9998 33.7501C14.9998 33.7503 14.9998 33.7499 14.9998 33.7501V38.7501C14.9998 39.4404 14.4401 40.0001 13.7498 40.0001C13.0594 40.0001 12.4998 39.4404 12.4998 38.7501V33.7501C12.5003 32.5143 12.1345 31.3056 11.4486 30.2776C11.4485 30.2775 11.4487 30.2778 11.4486 30.2776L9.54528 27.4276C9.53471 27.4118 9.52451 27.3958 9.51468 27.3795C9.43896 27.2541 9.33859 27.1453 9.21964 27.0598C9.10069 26.9743 8.96562 26.9138 8.82262 26.882C8.67961 26.8501 8.53164 26.8476 8.38764 26.8746C8.24384 26.9016 8.107 26.9574 7.98535 27.0387C7.76709 27.1852 7.60955 27.4061 7.54211 27.6602C7.47808 27.9015 7.49943 28.157 7.60179 28.3838L9.82456 32.0829C10.1801 32.6747 9.98867 33.4426 9.39693 33.7982C8.80519 34.1538 8.03724 33.9623 7.68166 33.3706L5.42833 29.6206C5.41121 29.5921 5.39524 29.5629 5.38045 29.5332C4.99304 28.7538 4.90251 27.8601 5.12576 27.0189C5.34902 26.1777 5.87079 25.4465 6.59366 24.9619C6.99642 24.6924 7.45068 24.5067 7.92697 24.4174Z" fill="black"/>
<path fill-rule="evenodd" clip-rule="evenodd" d="M33.5984 18.825C34.3016 18.1218 35.2555 17.7267 36.25 17.7267C37.2446 17.7267 38.1984 18.1218 38.9017 18.825C39.6049 19.5283 40 20.4821 40 21.4767V30.0967C40 32.0835 39.3239 34.0111 38.0828 35.5625L38.0611 35.5889L34.7044 39.5573C34.2586 40.0844 33.4698 40.1502 32.9428 39.7044C32.4157 39.2585 32.3498 38.4698 32.7957 37.9427L36.1408 33.9881C37.0208 32.8821 37.5 31.5103 37.5 30.0967V21.4767C37.5 21.1452 37.3683 20.8272 37.1339 20.5928C36.8995 20.3584 36.5815 20.2267 36.25 20.2267C35.9185 20.2267 35.6006 20.3584 35.3661 20.5928C35.1317 20.8272 35 21.1452 35 21.4767V27.7267C35 28.417 34.4404 28.9767 33.75 28.9767C33.0597 28.9767 32.5 28.417 32.5 27.7267V21.4767C32.5 20.4821 32.8951 19.5283 33.5984 18.825Z" fill="black"/>
<path fill-rule="evenodd" clip-rule="evenodd" d="M31.6134 26.8648C31.4693 26.8381 31.3212 26.8409 31.1782 26.8731C31.0352 26.9053 30.9002 26.9662 30.7814 27.0521C30.6625 27.138 30.5624 27.2471 30.487 27.3729C30.4767 27.39 30.466 27.407 30.4549 27.4236L28.5515 30.277C27.8655 31.305 27.4994 32.5135 27.5 33.7494L27.5 38.75C27.5 39.4403 26.9404 40 26.25 40C25.5596 40 25 39.4403 25 38.75L25 33.7505C25 33.7503 25 33.7507 25 33.7505C24.9993 32.0206 25.5115 30.3286 26.4718 28.8896L28.3602 26.0586C28.6076 25.6547 28.9326 25.3038 29.3166 25.0262C29.7096 24.742 30.1561 24.5406 30.6292 24.4341C31.1023 24.3277 31.5921 24.3183 32.0689 24.4066C32.5457 24.495 32.9996 24.6792 33.4031 24.9481M31.6134 26.8648C31.7576 26.8915 31.8948 26.9472 32.0168 27.0285L31.6134 26.8648ZM32.0168 27.0285L32.7084 25.9907L32.0168 27.0285ZM32.7084 25.9907L32.0168 27.0285C32.2366 27.1749 32.3954 27.3966 32.4632 27.6518C32.5276 27.8943 32.5058 28.1513 32.4022 28.3789L30.1786 32.0795C29.823 32.6712 30.0144 33.4392 30.6062 33.7948C31.1979 34.1503 31.9659 33.9589 32.3214 33.3671L34.5748 29.6171C34.5914 29.5894 34.607 29.5611 34.6214 29.5322C35.012 28.7509 35.1037 27.8538 34.8793 27.0097C34.655 26.1656 34.13 25.4324 33.4031 24.9481" fill="black"/>
</g>
<defs>
<clipPath id="clip0">
<rect width="40" height="40" fill="white"/>
</clipPath>
</defs>
</svg>
