<svg width="40" height="40" viewBox="0 0 40 40" fill="none" xmlns="http://www.w3.org/2000/svg">
<g clip-path="url(#clip0)">
<path fill-rule="evenodd" clip-rule="evenodd" d="M5.97866 31.0268C5.64195 31.0042 5.30445 31.0572 4.99087 31.1819C4.6773 31.3067 4.3956 31.5 4.16639 31.7476C4.15369 31.7614 4.14072 31.7749 4.1275 31.7881C3.27279 32.6428 2.9388 34.0547 2.90402 35.5176C2.89045 36.0882 2.92371 36.6165 2.96815 37.042C3.3944 37.0862 3.92374 37.1191 4.49533 37.1053C5.9604 37.0698 7.37183 36.7355 8.22337 35.884L9.24733 36.9079L8.26367 35.8452C8.51121 35.6161 8.70439 35.3345 8.82909 35.0211C8.9538 34.7077 9.00686 34.3704 8.9844 34.0338C8.96194 33.6973 8.86452 33.37 8.69929 33.0759C8.53405 32.7819 8.30516 32.5285 8.02937 32.3343C7.89306 32.2383 7.77435 32.1195 7.67847 31.9831C7.48438 31.7071 7.231 31.4779 6.93689 31.3124C6.64277 31.1469 6.31537 31.0493 5.97866 31.0268ZM10.2516 37.9515C8.59412 39.5933 6.2419 39.96 4.56547 40.0006C3.68846 40.0219 2.9055 39.9559 2.34286 39.8854C2.06008 39.8499 1.82916 39.8129 1.66535 39.7839C1.58335 39.7694 1.51789 39.7569 1.47087 39.7475L1.4143 39.736L1.39677 39.7323L1.39076 39.731L1.38845 39.7305C1.38801 39.7304 1.38662 39.7301 1.69599 38.3155C0.281742 38.6267 0.281649 38.6263 0.281552 38.6259L0.280833 38.6226L0.279531 38.6166L0.275799 38.599L0.264211 38.5424C0.254802 38.4954 0.242202 38.43 0.227608 38.348C0.198453 38.1843 0.16115 37.9535 0.125449 37.6708C0.0544173 37.1084 -0.0122086 36.3258 0.00864239 35.4488C0.0485183 33.7717 0.415562 31.4199 2.06002 29.7598C2.57905 29.2051 3.21428 28.7717 3.92039 28.4908C4.63529 28.2065 5.40474 28.0856 6.1724 28.137C6.94007 28.1885 7.6865 28.411 8.35704 28.7883C8.95457 29.1245 9.47835 29.576 9.89845 30.1157C10.4376 30.536 10.8885 31.0598 11.2241 31.6571C11.6009 32.3275 11.823 33.0737 11.8742 33.841C11.9254 34.6083 11.8044 35.3773 11.5201 36.0918C11.2393 36.7976 10.8061 37.4326 10.2516 37.9515ZM1.69599 38.3155L0.281552 38.6259C0.403014 39.1777 0.836422 39.6098 1.38845 39.7305L1.69599 38.3155Z" fill="#29D305"/>
<path fill-rule="evenodd" clip-rule="evenodd" d="M39.5806 0.419255C40.1461 0.984771 40.1461 1.90166 39.5806 2.46717L37.057 4.99072C36.4915 5.55624 35.5746 5.55624 35.0091 4.99072C34.4436 4.42521 34.4436 3.50832 35.0091 2.94281L37.5326 0.419255C38.0982 -0.146262 39.015 -0.146262 39.5806 0.419255Z" fill="black"/>
<path fill-rule="evenodd" clip-rule="evenodd" d="M27.1854 2.18295C27.2141 2.18234 27.2428 2.18258 27.2714 2.18367L36.0894 2.51963C36.8459 2.54845 37.4525 3.15507 37.4813 3.91154L37.8173 12.7295L36.3702 12.7846L37.818 12.8164C37.7841 14.3594 37.3704 15.8703 36.6135 17.2154C35.8565 18.5605 34.7797 19.6982 33.4782 20.5279L33.4482 20.5465L17.5829 30.1252C17.0124 30.4696 16.2806 30.3803 15.8098 29.9088L10.083 24.1743C9.61255 23.7032 9.52394 22.972 9.86826 22.4022L19.4547 6.53682L19.4753 6.50362C20.3077 5.20649 21.4463 4.13396 22.7909 3.38051C24.1354 2.62705 25.6446 2.21579 27.1854 2.18295ZM34.9214 12.7941L34.6383 5.36263L27.2063 5.07948C26.1544 5.10851 25.125 5.3924 24.2067 5.90703C23.2819 6.4253 22.4979 7.16175 21.9229 8.05218L12.9333 22.9298L17.0573 27.0594L31.9354 18.0767C32.8291 17.5038 33.5688 16.7203 34.0895 15.795C34.6062 14.8768 34.8916 13.8469 34.9214 12.7941Z" fill="black"/>
<path fill-rule="evenodd" clip-rule="evenodd" d="M13.4934 14.41L15.5994 15.1567C16.3532 15.4239 16.7477 16.2516 16.4804 17.0054C16.2131 17.7592 15.3854 18.1536 14.6316 17.8864L12.5078 17.1334C12.4948 17.1288 12.4819 17.124 12.4691 17.119C12.0754 16.9667 11.6464 16.9298 11.2325 17.0126C10.8227 17.0945 10.4444 17.2904 10.1411 17.5777L7.04214 20.6686L11.456 21.7512C12.2328 21.9418 12.708 22.7259 12.5175 23.5026C12.327 24.2794 11.5428 24.7546 10.7661 24.5641L5.6495 23.309L5.64363 23.3076C5.23356 23.2052 4.8554 23.0024 4.54319 22.7175C4.23521 22.4365 4.00094 22.0843 3.86082 21.6918C3.70948 21.2808 3.67536 20.8357 3.76246 20.4063C3.85077 19.9709 4.06009 19.5693 4.36639 19.2476L4.3926 19.2207L8.10745 15.5155L8.1283 15.4951C8.83077 14.8222 9.71054 14.3634 10.6645 14.1726C11.6111 13.9833 12.5918 14.0656 13.4934 14.41Z" fill="black"/>
<path fill-rule="evenodd" clip-rule="evenodd" d="M22.8742 23.5745C23.6185 23.2818 24.4591 23.6478 24.7519 24.3921L25.5719 26.477C25.9254 27.3826 26.0135 28.3701 25.8261 29.3239C25.6387 30.2777 25.1834 31.1584 24.5136 31.8629L24.4899 31.8872L20.779 35.6117L20.7539 35.6363C20.4316 35.9444 20.0285 36.155 19.5915 36.2434C19.1603 36.3307 18.7135 36.2957 18.3015 36.1426C17.9104 36.0016 17.5596 35.7672 17.2797 35.4596C16.9959 35.1478 16.7939 34.7706 16.6917 34.3616L16.6901 34.3553L15.4351 29.2387C15.2446 28.462 15.7198 27.6779 16.4965 27.4874C17.2733 27.2968 18.0574 27.7721 18.2479 28.5488L19.3304 32.9622L22.4249 29.8565C22.71 29.5526 22.9039 29.1745 22.9842 28.7655C23.0655 28.3521 23.0274 27.9241 22.8745 27.5316C22.8743 27.531 22.8747 27.5321 22.8745 27.5316L22.0567 25.4522C21.7639 24.7079 22.13 23.8672 22.8742 23.5745Z" fill="black"/>
<path fill-rule="evenodd" clip-rule="evenodd" d="M27.292 11.259C26.4923 11.259 25.8439 11.9073 25.8439 12.7071C25.8439 13.5068 26.4923 14.1552 27.292 14.1552C28.0918 14.1552 28.7401 13.5068 28.7401 12.7071C28.7401 11.9073 28.0918 11.259 27.292 11.259ZM22.9478 12.7071C22.9478 10.3078 24.8928 8.36279 27.292 8.36279C29.6913 8.36279 31.6363 10.3078 31.6363 12.7071C31.6363 15.1064 29.6913 17.0514 27.292 17.0514C24.8928 17.0514 22.9478 15.1064 22.9478 12.7071Z" fill="black"/>
</g>
<defs>
<clipPath id="clip0">
<rect width="40" height="40" fill="white"/>
</clipPath>
</defs>
</svg>
