<svg width="40" height="40" viewBox="0 0 40 40" fill="none" xmlns="http://www.w3.org/2000/svg">
<g clip-path="url(#clip0)">
<path fill-rule="evenodd" clip-rule="evenodd" d="M5.9778 31.0268C5.64109 31.0042 5.30359 31.0572 4.99002 31.1819C4.67645 31.3067 4.39475 31.5 4.16554 31.7476C4.15284 31.7614 4.13987 31.7749 4.12665 31.7881C3.27193 32.6428 2.93795 34.0547 2.90316 35.5176C2.8896 36.0882 2.92286 36.6165 2.9673 37.042C3.39355 37.0862 3.92289 37.1191 4.49447 37.1053C5.95955 37.0698 7.37097 36.7355 8.22252 35.884L9.24648 36.9079L8.26281 35.8452C8.51035 35.6161 8.70354 35.3345 8.82824 35.0211C8.95294 34.7077 9.006 34.3704 8.98354 34.0338C8.96108 33.6973 8.86367 33.37 8.69843 33.0759C8.53319 32.7819 8.30431 32.5285 8.02852 32.3343C7.89221 32.2383 7.7735 32.1195 7.67761 31.9831C7.48353 31.7071 7.23015 31.4779 6.93603 31.3124C6.64192 31.1469 6.31452 31.0493 5.9778 31.0268ZM10.2507 37.9515C8.59327 39.5933 6.24105 39.96 4.56462 40.0006C3.6876 40.0219 2.90464 39.9559 2.34201 39.8854C2.05922 39.8499 1.8283 39.8129 1.66449 39.7839C1.58249 39.7694 1.51704 39.7569 1.47002 39.7475L1.41345 39.736L1.39591 39.7323L1.3899 39.731L1.3876 39.7305C1.38716 39.7304 1.38576 39.7301 1.69514 38.3155C0.280887 38.6267 0.280794 38.6263 0.280698 38.6259L0.279979 38.6226L0.278676 38.6166L0.274945 38.599L0.263356 38.5424C0.253948 38.4954 0.241347 38.43 0.226753 38.348C0.197598 38.1843 0.160296 37.9535 0.124595 37.6708C0.0535628 37.1084 -0.0130631 36.3258 0.0077879 35.4488C0.0476638 33.7717 0.414707 31.4199 2.05917 29.7598C2.57819 29.2051 3.21342 28.7717 3.91953 28.4908C4.63443 28.2065 5.40389 28.0856 6.17155 28.137C6.93921 28.1885 7.68564 28.411 8.35618 28.7883C8.95371 29.1245 9.4775 29.576 9.8976 30.1157C10.4367 30.536 10.8876 31.0598 11.2233 31.6571C11.6 32.3275 11.8221 33.0737 11.8733 33.841C11.9245 34.6083 11.8035 35.3773 11.5192 36.0918C11.2384 36.7976 10.8052 37.4326 10.2507 37.9515ZM1.69514 38.3155L0.280698 38.6259C0.40216 39.1777 0.835567 39.6098 1.3876 39.7305L1.69514 38.3155Z" fill="#29D305"/>
<path fill-rule="evenodd" clip-rule="evenodd" d="M39.5796 0.419499C40.1451 0.985016 40.1451 1.9019 39.5796 2.46742L37.056 4.99097C36.4905 5.55648 35.5736 5.55649 35.0081 4.99097C34.4426 4.42545 34.4426 3.50857 35.0081 2.94305L37.5317 0.4195C38.0972 -0.146018 39.0141 -0.146018 39.5796 0.419499Z" fill="black"/>
<path fill-rule="evenodd" clip-rule="evenodd" d="M27.1841 2.18343C27.2128 2.18282 27.2414 2.18306 27.2701 2.18416L36.088 2.52011C36.8445 2.54894 37.4511 3.15556 37.48 3.91203L37.8159 12.73L36.3689 12.7851L37.8166 12.8169C37.7828 14.3599 37.3691 15.8708 36.6121 17.2159C35.8552 18.561 34.7783 19.6987 33.4769 20.5284L33.4469 20.547L17.5815 30.1257C17.0111 30.4701 16.2793 30.3808 15.8084 29.9093L10.0817 24.1748C9.61121 23.7037 9.5226 22.9725 9.86692 22.4027L19.4533 6.5373L19.474 6.50411C20.3064 5.20698 21.445 4.13445 22.7895 3.381C24.134 2.62754 25.6432 2.21628 27.1841 2.18343ZM34.9201 12.7946L34.6369 5.36312L27.205 5.07997C26.1531 5.109 25.1237 5.39289 24.2054 5.90752C23.2805 6.42578 22.4965 7.16224 21.9215 8.05267L12.9319 22.9303L17.056 27.0599L31.9341 18.0772C32.8278 17.5043 33.5674 16.7208 34.0882 15.7955C34.6049 14.8773 34.8903 13.8474 34.9201 12.7946Z" fill="black"/>
<path fill-rule="evenodd" clip-rule="evenodd" d="M13.4929 14.4102L15.599 15.1569C16.3527 15.4242 16.7472 16.2519 16.4799 17.0057C16.2127 17.7594 15.3849 18.1539 14.6312 17.8866L12.5073 17.1336C12.4943 17.129 12.4815 17.1242 12.4686 17.1193C12.0749 16.9669 11.6459 16.93 11.232 17.0128C10.8222 17.0948 10.4439 17.2907 10.1406 17.5779L7.04165 20.6688L11.4556 21.7515C12.2323 21.942 12.7075 22.7261 12.517 23.5029C12.3265 24.2796 11.5424 24.7548 10.7656 24.5643L5.64901 23.3093L5.64314 23.3078C5.23307 23.2054 4.85491 23.0027 4.5427 22.7178C4.23472 22.4367 4.00045 22.0845 3.86033 21.692C3.70899 21.281 3.67487 20.836 3.76197 20.4065C3.85028 19.9712 4.05961 19.5695 4.3659 19.2478L4.39211 19.221L8.10697 15.5158L8.12782 15.4954C8.83029 14.8224 9.71005 14.3636 10.664 14.1728C11.6106 13.9835 12.5913 14.0659 13.4929 14.4102Z" fill="black"/>
<path fill-rule="evenodd" clip-rule="evenodd" d="M22.8737 23.5746C23.618 23.2819 24.4587 23.6479 24.7514 24.3922L25.5714 26.4771C25.9249 27.3827 26.013 28.3702 25.8256 29.324C25.6382 30.2778 25.1829 31.1586 24.5131 31.863L24.4895 31.8873L20.7785 35.6118L20.7534 35.6364C20.4311 35.9446 20.028 36.1551 19.591 36.2436C19.1598 36.3308 18.713 36.2958 18.301 36.1427C17.9099 36.0018 17.5591 35.7674 17.2792 35.4598C16.9954 35.148 16.7934 34.7707 16.6912 34.3617L16.6896 34.3555L15.4346 29.2389C15.2441 28.4621 15.7193 27.678 16.496 27.4875C17.2728 27.297 18.0569 27.7722 18.2474 28.5489L19.33 32.9623L22.4244 29.8566C22.7095 29.5527 22.9034 29.1747 22.9838 28.7656C23.065 28.3522 23.0269 27.9242 22.8741 27.5317C22.8739 27.5312 22.8743 27.5322 22.8741 27.5317L22.0562 25.4523C21.7634 24.708 22.1295 23.8674 22.8737 23.5746Z" fill="black"/>
<path fill-rule="evenodd" clip-rule="evenodd" d="M27.2916 11.2595C26.4918 11.2595 25.8435 11.9078 25.8435 12.7076C25.8435 13.5073 26.4918 14.1557 27.2916 14.1557C28.0913 14.1557 28.7397 13.5073 28.7397 12.7076C28.7397 11.9078 28.0913 11.2595 27.2916 11.2595ZM22.9473 12.7076C22.9473 10.3083 24.8923 8.36328 27.2916 8.36328C29.6908 8.36328 31.6358 10.3083 31.6358 12.7076C31.6358 15.1069 29.6908 17.0519 27.2916 17.0519C24.8923 17.0519 22.9473 15.1069 22.9473 12.7076Z" fill="black"/>
</g>
<defs>
<clipPath id="clip0">
<rect width="40" height="40" fill="white"/>
</clipPath>
</defs>
</svg>
