<svg width="40" height="40" viewBox="0 0 40 40" fill="none" xmlns="http://www.w3.org/2000/svg">
<path d="M32.5 40C29.3233 40 26.515 37.98 25.4517 35.065L21.615 38.8967C20.9083 39.6033 19.9667 39.9917 18.965 39.9917C17.9633 39.9917 17.02 39.6017 16.3133 38.895L12.8033 35.3833C12.5083 35.0883 12.38 34.6683 12.46 34.26C12.54 33.8517 12.8167 33.51 13.2 33.3483C14.41 32.8383 15.3567 31.8917 15.8667 30.6833C16.385 29.4517 16.3933 28.0933 15.89 26.8567C15.3867 25.62 14.4317 24.6533 13.2 24.1333C12.5767 23.8717 11.9233 23.7383 11.2583 23.7383C10.6133 23.7383 9.98 23.8633 9.37333 24.11C8.13667 24.6133 7.17 25.5683 6.65167 26.8C6.49 27.185 6.14833 27.4617 5.74 27.5417C5.665 27.5583 5.58167 27.5667 5.49833 27.5667C5.17167 27.5667 4.85 27.4333 4.61667 27.2017L1.09833 23.6917C-0.363333 22.23 -0.365 19.85 1.09667 18.3883L4.93333 14.5483C2.02 13.485 0 10.6767 0 7.5C0 3.365 3.365 0 7.5 0C10.6767 0 13.4833 2.02 14.5483 4.935L18.385 1.09833C19.0917 0.391667 20.0333 0.00166667 21.0367 0.00166667C22.04 0.00166667 22.9817 0.391667 23.6883 1.09833L27.2 4.61667C27.495 4.91167 27.6217 5.33167 27.5417 5.74167C27.4617 6.15 27.185 6.49 26.8 6.65167C25.59 7.16167 24.6433 8.10833 24.1333 9.31833C23.0633 11.8583 24.2583 14.7967 26.8 15.8667C27.4233 16.1283 28.0767 16.2617 28.7417 16.2617C29.3867 16.2617 30.0217 16.1367 30.6267 15.89C31.8633 15.3867 32.83 14.4317 33.35 13.2C33.5117 12.8167 33.8517 12.54 34.26 12.4583C34.34 12.4417 34.4217 12.435 34.5017 12.435C34.835 12.435 35.1483 12.565 35.3833 12.8L38.9017 16.31C40.3633 17.7733 40.3633 20.1517 38.9017 21.6133L35.065 25.45C37.98 26.5167 40 29.3233 40 32.5C40 36.635 36.635 40 32.5 40ZM26.25 31.25C26.415 31.25 26.5767 31.2817 26.73 31.345C27.1983 31.5383 27.5 31.9917 27.5 32.5C27.5 35.2567 29.7433 37.5 32.5 37.5C35.2567 37.5 37.5 35.2567 37.5 32.5C37.5 29.7433 35.2567 27.5 32.5 27.5C31.9933 27.5 31.54 27.1967 31.345 26.7283C31.15 26.26 31.2567 25.725 31.6167 25.3667L37.135 19.8483C37.6217 19.3617 37.6217 18.5683 37.135 18.0817L34.7717 15.725C33.9583 16.83 32.8633 17.68 31.5683 18.2083C30.66 18.5783 29.7083 18.765 28.74 18.765C27.74 18.765 26.76 18.565 25.8283 18.1733C22.0183 16.5667 20.2233 12.16 21.83 8.35C22.36 7.09167 23.1983 6.02667 24.2783 5.23167L21.92 2.86833C21.685 2.63333 21.3717 2.505 21.0367 2.505C20.7017 2.505 20.3883 2.635 20.1533 2.87L14.6333 8.385C14.3983 8.62167 14.0833 8.75167 13.75 8.75167C13.585 8.75167 13.4233 8.72 13.27 8.65667C12.8033 8.46167 12.5 8.00833 12.5 7.5C12.5 4.74333 10.2567 2.5 7.5 2.5C4.74333 2.5 2.5 4.74333 2.5 7.5C2.5 10.2567 4.74333 12.5 7.5 12.5C8.00833 12.5 8.46167 12.8033 8.655 13.2717C8.85 13.7417 8.74333 14.275 8.38333 14.635L2.865 20.1533C2.37833 20.64 2.37833 21.4333 2.865 21.9217L5.22833 24.2783C6.04167 23.1733 7.135 22.3233 8.43167 21.795C9.34 21.425 10.29 21.2383 11.26 21.2383C12.26 21.2383 13.24 21.4383 14.1733 21.8317C16.0183 22.61 17.4517 24.06 18.2067 25.915C18.9617 27.77 18.95 29.8083 18.1717 31.655C17.6417 32.9117 16.8033 33.9767 15.725 34.7717L18.0817 37.13C18.3167 37.365 18.63 37.495 18.965 37.495C19.3 37.495 19.6133 37.365 19.8483 37.13L25.3683 31.6167C25.5983 31.3833 25.9217 31.25 26.25 31.25Z" fill="black"/>
</svg>
