<svg width="40" height="40" viewBox="0 0 40 40" fill="none" xmlns="http://www.w3.org/2000/svg">
<path d="M24.3474 38.1297C24.1391 38.1297 23.9307 38.1031 23.7274 38.048C23.1074 37.8831 22.5907 37.488 22.2691 36.9331C21.8957 36.2897 21.8441 35.4964 22.1307 34.8097L24.1724 30.123C24.3724 29.6664 24.8224 29.373 25.3191 29.373C25.4907 29.373 25.6591 29.4081 25.8174 29.4764C26.4491 29.753 26.7391 30.4897 26.4641 31.123L24.5607 35.4897L29.3874 32.773C29.5757 32.668 29.7874 32.6131 30.0007 32.6131C30.2141 32.6131 30.4257 32.668 30.6124 32.773L35.4407 35.4897L33.4674 30.9564C33.2707 30.5047 33.3591 29.978 33.6924 29.613L37.3457 25.6264H33.4607C33.0074 25.6264 32.5874 25.3797 32.3674 24.983L30.2824 21.2297C29.9474 20.6264 30.1657 19.8647 30.7691 19.5297C30.9541 19.4264 31.1641 19.373 31.3757 19.373C31.8291 19.373 32.2491 19.6197 32.4691 20.0147L34.1974 23.1247H37.5974C38.2324 23.1264 38.8274 23.3647 39.2741 23.7964C39.7307 24.2397 39.9891 24.8347 39.9974 25.4714C40.0074 26.1164 39.7507 26.7464 39.2907 27.2014L36.0841 30.7031L37.8641 34.7914C38.1174 35.3981 38.1191 36.053 37.8741 36.6447C37.6291 37.2364 37.1691 37.6981 36.5774 37.9431C36.2874 38.0647 35.9774 38.1264 35.6591 38.1264C35.2374 38.1264 34.8224 38.0164 34.4591 37.8064L30.0007 35.2981L25.5307 37.813C25.1757 38.018 24.7641 38.1297 24.3474 38.1297Z" fill="black"/>
<path d="M15.6555 38.128C15.2371 38.128 14.8221 38.0164 14.4571 37.8047L10.0005 35.298L5.52879 37.8147C5.17546 38.018 4.76379 38.128 4.34379 38.128C4.02546 38.128 3.71546 38.0664 3.42379 37.9447C2.20379 37.438 1.62379 36.033 2.13046 34.813L3.91879 30.7047L0.670458 27.1614C0.247125 26.743 -0.00287498 26.1197 0.00712502 25.4747C0.017125 24.838 0.273792 24.243 0.730458 23.7997C1.16713 23.3764 1.76213 23.138 2.40713 23.128H5.80546L7.53379 20.0164C7.75379 19.6197 8.17379 19.373 8.62713 19.373C8.83879 19.373 9.04879 19.428 9.23379 19.5314C9.83546 19.8664 10.0538 20.628 9.71879 21.2314L7.63213 24.983C7.41213 25.3797 6.99379 25.6264 6.53879 25.6264H2.65379L6.30879 29.613C6.64213 29.978 6.73046 30.5047 6.53379 30.9564L4.56046 35.4897L9.38713 32.773C9.57546 32.668 9.78713 32.613 10.0005 32.613C10.2138 32.613 10.4255 32.668 10.6121 32.773L15.4405 35.4897L13.5371 31.123C13.2621 30.4914 13.5521 29.753 14.1838 29.478C14.3421 29.408 14.5105 29.3747 14.6821 29.3747C15.1805 29.3747 15.6305 29.6697 15.8288 30.1247L17.8621 34.7914C18.1555 35.493 18.1038 36.2914 17.7305 36.9347C17.4105 37.488 16.8921 37.8847 16.2738 38.048C16.0721 38.1014 15.8638 38.128 15.6555 38.128Z" fill="black"/>
<path d="M26.7117 26.8717C26.3933 26.8717 26.075 26.7967 25.79 26.6534L19.8917 23.705L13.9917 26.655C13.7033 26.7984 13.395 26.8717 13.075 26.8717C12.2883 26.8717 11.5817 26.435 11.2317 25.7317C11.0067 25.28 10.955 24.7634 11.0867 24.2767L12.8433 17.8367L8.105 13.0934C7.71667 12.7067 7.50167 12.19 7.5 11.64C7.5 11.09 7.71333 10.5734 8.10167 10.1834C8.435 9.84836 8.88 9.6367 9.35167 9.58836L15.0433 9.01836L18.0467 3.00837C18.2867 2.52003 18.7067 2.15337 19.2283 1.9767C19.4433 1.90337 19.665 1.8667 19.89 1.8667C20.2017 1.8667 20.5167 1.94003 20.8 2.08003C21.2017 2.27837 21.5333 2.60837 21.7333 3.0117L24.7383 9.02003L30.4317 9.59003C31.5617 9.70503 32.3883 10.7184 32.2717 11.8467C32.2233 12.3167 32.0133 12.7584 31.6817 13.09L26.94 17.8317L28.6967 24.27C28.8417 24.7984 28.7717 25.3534 28.4983 25.8317C28.225 26.31 27.7833 26.6517 27.2533 26.795C27.075 26.8467 26.8933 26.8717 26.7117 26.8717ZM19.8917 21.0567C20.085 21.0567 20.2783 21.1017 20.45 21.1884L26.0233 23.9734L24.3383 17.7917C24.22 17.36 24.3433 16.895 24.6617 16.5784L29.255 11.985L23.805 11.44C23.3767 11.3967 23.005 11.1417 22.8117 10.755L19.89 4.9167L16.9733 10.7534C16.78 11.14 16.4083 11.395 15.98 11.4384L10.53 11.985L15.125 16.58C15.4417 16.8967 15.565 17.3617 15.4467 17.7934L13.7617 23.975L19.3317 21.19C19.505 21.1034 19.6983 21.0567 19.8917 21.0567Z" fill="black"/>
</svg>
