<svg width="40" height="40" viewBox="0 0 40 40" fill="none" xmlns="http://www.w3.org/2000/svg">
<g clip-path="url(#clip0)">
<path fill-rule="evenodd" clip-rule="evenodd" d="M22.7954 9.71615L18.6701 13.1295C18.3454 13.3982 17.9072 13.4851 17.5045 13.3608L11.5102 11.51L13.361 17.5043C13.4853 17.907 13.3983 18.3453 13.1297 18.67L9.71473 22.7969L15.8507 22.6285C16.3177 22.6157 16.753 22.8645 16.979 23.2734L19.8693 28.5028L21.9447 22.702C22.0708 22.3496 22.3481 22.0722 22.7005 21.9461L28.5029 19.8702L23.2722 16.9806C22.8631 16.7546 22.6143 16.3193 22.6271 15.8521L22.7954 9.71615ZM11.0933 10.0731L11.4155 8.86533C11.0626 8.77115 10.691 8.77144 10.3382 8.86618C9.98535 8.96092 9.66364 9.14678 9.40531 9.40511C9.14698 9.66344 8.96113 9.98515 8.86639 10.338C8.77165 10.6908 8.77135 11.0624 8.86554 11.4153C8.8697 11.4309 8.87416 11.4464 8.87892 11.4618L10.773 17.5965L7.13331 21.995C6.88288 22.2799 6.71814 22.6302 6.6586 23.0053C6.59709 23.3928 6.65054 23.7899 6.81234 24.1473C6.97414 24.5048 7.23718 24.807 7.56894 25.0165C7.90069 25.226 8.28659 25.3337 8.67889 25.3262L15.1589 25.1485L18.1909 30.6344C18.2014 30.6533 18.2123 30.6719 18.2237 30.6902C18.4301 31.0218 18.7272 31.2874 19.0799 31.4554C19.4326 31.6234 19.8261 31.6867 20.2137 31.6379C20.6013 31.5891 20.9668 31.4303 21.2669 31.1801C21.5596 30.9361 21.7781 30.6153 21.8979 30.2539L24.0994 24.1008L30.2535 21.899C30.6148 21.7786 30.9355 21.5596 31.1793 21.2665C31.4288 20.9664 31.5873 20.6012 31.636 20.214C31.6847 19.8268 31.6215 19.4337 31.454 19.0813C31.2865 18.7288 31.0217 18.4315 30.6907 18.2247C30.6717 18.2128 30.6524 18.2014 30.6327 18.1906L25.147 15.1602L25.3245 8.69069L25.3247 8.68036C25.3322 8.28806 25.2246 7.90216 25.0151 7.5704C24.8055 7.23865 24.5033 6.9756 24.1459 6.8138C23.7884 6.65201 23.3914 6.59855 23.0038 6.66007C22.6287 6.71961 22.2785 6.88434 21.9936 7.13475L17.5967 10.7728L11.462 8.87871L11.0933 10.0731Z" fill="black"/>
<path fill-rule="evenodd" clip-rule="evenodd" d="M22.2382 22.2377C22.7263 21.7495 23.5178 21.7495 24.006 22.2377L39.6343 37.866C40.1224 38.3542 40.1224 39.1456 39.6343 39.6338C39.1461 40.122 38.3547 40.122 37.8665 39.6338L22.2382 24.0055C21.75 23.5173 21.75 22.7259 22.2382 22.2377Z" fill="black"/>
<path fill-rule="evenodd" clip-rule="evenodd" d="M28.75 3.75C28.75 3.05964 29.3096 2.5 30 2.5H35C35.6904 2.5 36.25 3.05964 36.25 3.75C36.25 4.44036 35.6904 5 35 5H30C29.3096 5 28.75 4.44036 28.75 3.75Z" fill="black"/>
<path fill-rule="evenodd" clip-rule="evenodd" d="M32.5 0C33.1904 0 33.75 0.559644 33.75 1.25V6.25C33.75 6.94036 33.1904 7.5 32.5 7.5C31.8096 7.5 31.25 6.94036 31.25 6.25V1.25C31.25 0.559644 31.8096 0 32.5 0Z" fill="black"/>
<path fill-rule="evenodd" clip-rule="evenodd" d="M2.5 33.75C2.5 33.0596 3.05964 32.5 3.75 32.5H8.75C9.44036 32.5 10 33.0596 10 33.75C10 34.4404 9.44036 35 8.75 35H3.75C3.05964 35 2.5 34.4404 2.5 33.75Z" fill="black"/>
<path fill-rule="evenodd" clip-rule="evenodd" d="M6.25 30C6.94036 30 7.5 30.5596 7.5 31.25V36.25C7.5 36.9404 6.94036 37.5 6.25 37.5C5.55964 37.5 5 36.9404 5 36.25V31.25C5 30.5596 5.55964 30 6.25 30Z" fill="black"/>
<path fill-rule="evenodd" clip-rule="evenodd" d="M15 0C15.6904 0 16.25 0.559644 16.25 1.25V5C16.25 5.69036 15.6904 6.25 15 6.25C14.3096 6.25 13.75 5.69036 13.75 5V1.25C13.75 0.559644 14.3096 0 15 0Z" fill="black"/>
<path fill-rule="evenodd" clip-rule="evenodd" d="M0 16.25C0 15.5596 0.559644 15 1.25 15H5C5.69036 15 6.25 15.5596 6.25 16.25C6.25 16.9404 5.69036 17.5 5 17.5H1.25C0.559644 17.5 0 16.9404 0 16.25Z" fill="black"/>
</g>
<defs>
<clipPath id="clip0">
<rect width="40" height="40" fill="white"/>
</clipPath>
</defs>
</svg>
